<?xml version="1.0" encoding="utf-8"?>
<!-- Generator: Adobe Illustrator 22.1.0, SVG Export Plug-In . SVG Version: 6.00 Build 0)  -->
<svg version="1.1" id="图层_1" xmlns="http://www.w3.org/2000/svg" xmlns:xlink="http://www.w3.org/1999/xlink" x="0px" y="0px"
	 viewBox="0 0 186 220" style="enable-background:new 0 0 186 220;" xml:space="preserve">
<style type="text/css">
	.st0{opacity:0.6;}
	.st1{fill:#EFEFEF;}
	.st2{fill:#C1C2BE;}
	.st3{fill:#D8D8D8;}
	.st4{fill:#F9F9F9;}
	.st5{fill:#038C7F;}
	.st6{fill:#FFFFFF;}
	.st7{fill:#00A99E;}
</style>
<g>
	<g class="st0">
		<g>
			<g>
				<path class="st1" d="M183.4,159.4c1.7,0.6,1.7,1.5,0,2.1l-88.8,30.2c-0.8,0.3-2.1,0.3-2.9,0L2.4,161.5c-1.7-0.6-1.7-1.5,0-2.1
					l88.8-30.2c0.8-0.3,2.1-0.3,2.9,0L183.4,159.4z"/>
			</g>
		</g>
	</g>
	<g>
		<g>
			<g>
				<path class="st2" d="M185.4,144.4c0.6,0.2,0.6,0.6,0,0.8l-90.9,30.9c-0.6,0.2-1.8,0.2-2.4,0L0.6,145.2c-0.6-0.2-0.6-0.6,0-0.8
					l90.9-30.9c0.6-0.2,1.8-0.2,2.4,0L185.4,144.4z"/>
			</g>
		</g>
	</g>
	<g>
		<polygon class="st3" points="0,123.8 0,144.9 93.5,176.3 186,144.9 186,123.8 93.5,155.3 		"/>
	</g>
	<g>
		<g>
			<path class="st4" d="M185.4,123.3c0.6,0.2,0.6,0.6,0,0.8l-90.9,31.1c-0.6,0.2-1.8,0.2-2.4,0l-91.5-31c-0.6-0.2-0.6-0.6,0-0.8
				l90.9-31.1c0.6-0.2,1.8-0.2,2.4,0L185.4,123.3z"/>
		</g>
	</g>
	<g>
		<ellipse class="st1" cx="92.7" cy="119.5" rx="46.5" ry="9.5"/>
	</g>
	<g>
		<circle class="st5" cx="88.3" cy="18" r="16.9"/>
	</g>
	<g>
		<g>
			<g>
				<path class="st6" d="M88.3,32.6c-8.1,0-14.6-6.6-14.6-14.6S80.3,3.4,88.3,3.4S102.9,10,102.9,18S96.4,32.6,88.3,32.6 M88.3,4.2
					c-7.7,0-13.8,6.2-13.8,13.8s6.2,13.9,13.8,13.9c7.6,0,13.8-6.2,13.8-13.8S96,4.2,88.3,4.2"/>
			</g>
		</g>
		<g>
			<g>
				<polygon class="st6" points="85.8,27.2 85.8,29.3 85.5,29.3 85.5,27.7 85.3,27.8 85,27.6 85.5,27.2 				"/>
			</g>
		</g>
		<g>
			<g>
				<path class="st6" d="M87.1,27.9c0.1,0,0.2,0,0.3,0.1c0.1,0,0.2,0.1,0.3,0.2c0.1,0.1,0.1,0.1,0.1,0.3c0,0.1,0.1,0.2,0,0.3
					c0,0.1,0,0.2-0.1,0.3c0,0.1-0.1,0.1-0.1,0.3c-0.1,0.1-0.1,0.1-0.3,0.1c-0.1,0-0.2,0.1-0.3,0.1l0,0c-0.1,0-0.2,0-0.3-0.1
					c-0.1,0-0.1-0.1-0.3-0.2c-0.1-0.1-0.1-0.1-0.1-0.3c0-0.1,0-0.2,0-0.3c0,0,0-0.1,0-0.2s0.1-0.2,0.1-0.3c0.1-0.1,0.1-0.3,0.3-0.4
					c0.1-0.1,0.3-0.3,0.5-0.5l0.2,0.2c-0.1,0.1-0.2,0.2-0.3,0.3c-0.1,0.1-0.1,0.1-0.2,0.3C86.9,27.9,87,27.8,87.1,27.9 M87.5,28.7
					c0-0.1,0-0.1,0-0.2s-0.1-0.1-0.1-0.1l-0.1-0.1c-0.1,0-0.1,0-0.2-0.1l0,0c-0.1,0-0.1,0-0.2,0s-0.1,0.1-0.1,0.1
					c-0.1,0-0.1,0.1-0.1,0.1c0,0.1,0,0.1,0,0.2s0,0.1,0,0.2s0.1,0.1,0.1,0.1C86.9,29,87,29,87.1,29c0.1,0,0.1,0,0.2,0
					s0.1-0.1,0.1-0.1l0.1-0.1C87.5,28.8,87.5,28.8,87.5,28.7"/>
			</g>
		</g>
		<g>
			<g>
				<path class="st6" d="M89.3,28.2c0.1,0,0.1,0.1,0.2,0.1c0.1,0.1,0.1,0.1,0.1,0.2s0,0.1,0,0.2s0,0.2-0.1,0.3
					c0,0.1-0.1,0.1-0.1,0.2c-0.1,0.1-0.1,0.1-0.3,0.1c-0.1,0-0.2,0.1-0.3,0.1c-0.1,0-0.2,0-0.3,0c-0.1,0-0.1-0.1-0.2-0.1
					s-0.1-0.1-0.2-0.1C88,29.1,88,29.1,88,29.1l0.3-0.1c0,0.1,0.1,0.1,0.2,0.2s0.2,0.1,0.3,0.1c0.1,0,0.1,0,0.2,0s0.1,0,0.1-0.1
					l0.1-0.1V29c0-0.1,0-0.1,0-0.1l-0.1-0.1L89,28.7c-0.1,0-0.1,0-0.2,0h-0.1h-0.1l-0.1-0.2l0.1-0.1l0.5-0.6h-1v-0.3h1.2h0.1v0.3
					l-0.6,0.6C89.1,28.2,89.3,28.2,89.3,28.2"/>
			</g>
		</g>
		<g>
			<g>
				<path class="st6" d="M90.8,27.9c0.1,0,0.2,0,0.3,0.1c0.1,0,0.2,0.1,0.3,0.2c0.1,0.1,0.1,0.1,0.1,0.3c0,0.1,0.1,0.2,0,0.3
					c0,0.1,0,0.2-0.1,0.3c0,0.1-0.1,0.1-0.1,0.3c-0.1,0.1-0.1,0.1-0.3,0.1c-0.1,0-0.2,0.1-0.3,0.1h-0.1c-0.1,0-0.2,0-0.3-0.1
					c-0.1,0-0.1-0.1-0.3-0.2c-0.1-0.1-0.1-0.1-0.1-0.3c0-0.1,0-0.2,0-0.3c0,0,0-0.1,0-0.2s0.1-0.2,0.1-0.3c0.1-0.1,0.1-0.3,0.3-0.4
					c0.1-0.1,0.3-0.3,0.5-0.5l0.2,0.2c-0.1,0.1-0.2,0.2-0.3,0.3c-0.1,0.1-0.1,0.1-0.2,0.3C90.7,27.9,90.7,27.8,90.8,27.9 M91.2,28.7
					c0-0.1,0-0.1,0-0.2s-0.1-0.1-0.1-0.1L91,28.3c-0.1,0-0.1,0-0.2-0.1l0,0c-0.1,0-0.1,0-0.2,0s-0.1,0.1-0.1,0.1l-0.1,0.1
					c0,0.1,0,0.1,0,0.2s0,0.1,0,0.2s0.1,0.1,0.1,0.1c0.1,0.1,0.2,0.1,0.3,0.1c0.1,0,0.1,0,0.2,0s0.1-0.1,0.1-0.1l0.1-0.1
					C91.2,28.8,91.2,28.8,91.2,28.7"/>
			</g>
		</g>
		<g>
			<g>
				<polygon class="st6" points="89.4,13.6 91.1,13.6 91.1,11.2 95.2,11.2 95.2,24.5 91.1,24.5 91.1,20.8 93.8,20.8 93.8,15.1 
					82.6,15.1 82.6,20.8 85.3,20.8 85.3,24.5 81.2,24.5 81.2,11.2 85.3,11.2 85.3,13.6 87,13.6 87,9.5 79.5,9.5 79.5,26.2 87,26.2 
					87,19.1 84.4,19.1 84.4,16.8 92,16.8 92,19.1 89.4,19.1 89.4,26.2 96.9,26.2 96.9,9.5 89.4,9.5 				"/>
			</g>
		</g>
	</g>
	<g>
		<path class="st7" d="M141.8,76.4c0,0,0-3.3,0-6.1c0-2.7-0.9-6.1-3.2-6.1c-6,0-7.6-3.9-9.1-6c-1.6-2.2-6.1-7.2-7.2-7.8
			c-0.6-5.6,3.4-9.6,4.2-11.8c0.8-2.2-0.6-2.8-1.1-3.1c-14.7-1.2-20.1,5-20.8,6.6c-3.8-1.4-16.7-0.7-16.7-0.7
			c-23.5,0.1-29.7,11.1-30.5,12.7l0,0c-1.1,0.2-2.9-0.1-2.9-1.5c0.6-0.5,2.1-2.2,2.1-5.1c0-2.9-3-3.9-3.9-3.9s-3.2-0.3-4.5,2.6
			c-1.3,2.9,1,5.8,1,5.8h-4.7c-0.7,1,1,2.2,1,2.2s4.5,0,5.2,0s1,0.4,1,0.4c1.1,1.5,4,1.7,4,1.7l0,0c-3.9,5.3-3.7,9.7-4.3,14.9
			c-0.7,5.9,3.4,17.5,7.2,20.8s5.6,7.5,5.6,10.2c0,6.4,2.8,6.4,2.8,6.4s8.4,0,11.4,0s2.5-3.5,2.6-4.7c0-1.2,1.5-1.2,1.5-1.2h2.3
			c3.2,0.7,3.8,0.5,5,0.5c1.9,0,4.5-0.4,4.5-0.4s3.2,0,3.7,0c0.4,0,0.5,0.7,0.5,1.1c0,5.2,3.5,4.7,3.5,4.7s5.6,0,9.3,0
			s3.6-1.5,3.6-5.4s4.1-6.8,5.9-7.9s6.8-4.4,8.3-6.3c4.3-5.1,7.2-5.8,9.1-5.8C142.2,83.5,141.8,76.4,141.8,76.4z M52.5,51.4h-1.4
			c-1.8-0.5-1-4.1-1-4.1c0.7-1.9,4.3-2.3,4.3,0.7C54.4,50.9,52.5,51.4,52.5,51.4z M99,48.4c0,0-7.2-0.5-9.4-0.5
			c-2.2,0-10.4,0.3-10.4,0.3c-0.8,0-1.4-0.4-1.4-1.2s0.6-1.4,1.4-1.4c0,0,8.2-0.3,10.8-0.3c1.9,0,9,0.3,9,0.3c0.8,0,1.4,0.6,1.4,1.4
			S99.8,48.4,99,48.4z M122.2,63.1c-1.6,0-2.9-1.3-2.9-2.9s1.3-2.9,2.9-2.9s2.9,1.3,2.9,2.9S123.8,63.1,122.2,63.1z"/>
	</g>
	<g>
		<path class="st6" d="M66.9,79.3v-0.8c0.7,0.4,1.5,0.6,2.2,0.6c0.9,0,1.7-0.3,2.2-0.8s0.8-1.2,0.8-2.1c0-1.9-1.1-2.8-3.2-2.8
			c-0.5,0-1,0-1.6,0.1l0.3-5.4h4.7v0.7h-4.1l-0.2,4c0.5,0,0.9-0.1,1.2-0.1c1.2,0,2.1,0.3,2.7,0.9s0.9,1.4,0.9,2.5s-0.3,1.9-1,2.6
			s-1.6,1-2.8,1C68.2,79.7,67.5,79.6,66.9,79.3z"/>
		<path class="st6" d="M77.4,73.7c-0.8,0-1.5-0.3-1.9-0.8s-0.7-1.2-0.7-2.1s0.3-1.7,0.8-2.2s1.2-0.8,2-0.8s1.4,0.3,1.9,0.8
			s0.7,1.2,0.7,2.2c0,0.8-0.2,1.5-0.7,2.1C78.8,73.4,78.2,73.7,77.4,73.7z M77.4,68.5c-0.6,0-1.1,0.2-1.4,0.6
			c-0.4,0.4-0.5,1-0.5,1.7s0.2,1.2,0.5,1.6s0.8,0.6,1.4,0.6s1.1-0.2,1.4-0.6s0.5-1,0.5-1.7s-0.2-1.3-0.5-1.7
			C78.4,68.7,78,68.5,77.4,68.5z M77.4,79.8h-0.8l6.9-11.7h0.8L77.4,79.8z M83.6,79.7c-0.8,0-1.5-0.3-1.9-0.8
			c-0.5-0.5-0.7-1.2-0.7-2.1s0.3-1.7,0.8-2.2s1.2-0.8,2-0.8s1.4,0.3,1.9,0.8s0.7,1.2,0.7,2.2c0,0.8-0.2,1.5-0.7,2.1
			C85.1,79.4,84.4,79.7,83.6,79.7z M83.7,74.5c-0.6,0-1.1,0.2-1.4,0.6c-0.4,0.4-0.5,1-0.5,1.7s0.2,1.2,0.5,1.6s0.8,0.6,1.4,0.6
			s1.1-0.2,1.4-0.6s0.5-1,0.5-1.7c0-0.8-0.2-1.3-0.5-1.7C84.7,74.7,84.2,74.5,83.7,74.5z"/>
		<path class="st6" d="M88.1,72.7c-0.3-0.3-0.5-0.4-0.6-0.6c1.4-1.4,2.5-3.1,3.4-5.1l0.8,0.2c-0.3,0.6-0.5,1.1-0.8,1.5h10v0.7h-5.2
			v2.9h5V73h-5v3.5h5.9v0.8h-5.9v4h-0.8v-4h-7.6v-0.8h2.4v-4.2h5.2v-2.9h-4.4C89.8,70.7,89.1,71.7,88.1,72.7z M90.5,73.2v3.5h4.4
			v-3.5H90.5z"/>
		<path class="st6" d="M103.5,77.1l0.8,0.3c-0.5,1.2-0.9,2.2-1.3,3l-0.7-0.4C102.8,79.2,103.2,78.2,103.5,77.1z M104.3,68.6h3.6
			c0.2-0.6,0.3-1.1,0.4-1.5l0.8,0.1c0,0,0,0.1-0.1,0.2c-0.2,0.5-0.3,0.9-0.4,1.2h5.9v7.3h-10.3L104.3,68.6L104.3,68.6z M105.1,69.3
			v1.5h8.6v-1.5H105.1z M105.1,71.5V73h8.6v-1.5H105.1z M105.1,73.7v1.5h8.6v-1.5H105.1z M105.8,77h0.8v2.1c0,0.5,0.1,0.8,0.3,0.9
			c0.2,0.2,0.5,0.3,1.1,0.3h3.1c0.9,0,1.4-0.3,1.5-0.9c0.1-0.3,0.2-0.8,0.3-1.5c0.3,0.1,0.6,0.2,0.8,0.3c-0.1,0.6-0.2,1.1-0.3,1.4
			c-0.2,1-0.9,1.5-2.2,1.4h-3.4c-1.4,0.1-2-0.6-1.9-1.9V77H105.8z M108.5,76.9l0.6-0.5c0.6,0.6,1.2,1.2,1.7,1.8l-0.6,0.5
			C109.5,78,108.9,77.4,108.5,76.9z M114.2,77.4l0.6-0.4c0.6,0.7,1.3,1.4,1.9,2.2l-0.7,0.5C115.5,78.8,114.8,78.1,114.2,77.4z"/>
	</g>
	<g>
		<path d="M63.5,211.7c1.4-2.2,2.4-4.6,3.1-7.1l0.8,0.2c-0.4,1.1-0.7,2.2-1.2,3.2v10.5h-0.8v-8.8c-0.5,1-1,1.9-1.5,2.7
			C63.9,212.2,63.7,211.9,63.5,211.7z M77.2,210.3c-2.1-1.3-3.6-2.8-4.6-4.4c-1.1,1.7-2.6,3.2-4.7,4.6c-0.2-0.2-0.4-0.5-0.6-0.7
			c2.4-1.5,4.2-3.3,5.2-5.4l0.9,0.1c0,0.1-0.1,0.2-0.2,0.3s-0.1,0.2-0.2,0.3c1.1,1.8,2.7,3.3,4.7,4.4
			C77.5,209.8,77.4,210,77.2,210.3z M70.7,210.3v1.8c0,0.2,0,0.4,0,0.6c0,2.6-0.8,4.6-2.4,6c-0.2-0.2-0.4-0.4-0.7-0.6
			c0.9-0.8,1.5-1.6,1.8-2.4c0.3-0.8,0.5-2,0.5-3.5v-1.8h0.8V210.3z M74.1,210.3h0.8v8.2h-0.8V210.3z"/>
		<path d="M78.8,212.2c-0.1-0.2-0.3-0.5-0.4-0.7c1.4-2.1,2.5-4.4,3.3-7l0.8,0.2c-0.5,1.4-1,2.7-1.5,3.7v10h-0.8v-8.5
			C79.8,210.7,79.3,211.5,78.8,212.2z M87,204.5h0.8v1.5h4.5v0.7h-4.5v1.6h3.5v9h1.3v0.7H82v-0.7h1.5v-9H87v-1.6h-4.3V206H87V204.5z
			 M84.3,209v1.6h6.2V209H84.3z M84.3,211.3v1.6h6.2v-1.6H84.3z M84.3,213.5v1.6h6.2v-1.6H84.3z M84.3,215.8v1.6h6.2v-1.6H84.3z"/>
		<path d="M98.5,204.4l0.9,0.2c-0.2,0.5-0.4,1-0.6,1.5h8.7v0.8h-9c-0.6,1.3-1.3,2.5-2,3.6v8.1h-0.8v-6.9c-0.5,0.7-1.1,1.4-1.8,2.2
			c-0.2-0.2-0.4-0.5-0.6-0.7c1.8-1.9,3.2-4,4.3-6.3h-3.8v-0.8h4.1C98.1,205.5,98.3,205,98.5,204.4z M102.5,211.7l3-2.2h-7v-0.7h8
			v0.9l-3.2,2.4v0.7h4.2v0.7h-4.2v3.2c0.1,1.1-0.5,1.6-1.7,1.6c-0.3,0-0.6,0-0.8,0c-0.1,0-0.3,0-0.4,0s-0.3,0-0.6,0
			c0-0.3-0.1-0.5-0.2-0.8c0.7,0,1.3,0,1.8,0c0.7,0,1.1-0.3,1-0.9v-3.2h-5v-0.7h5L102.5,211.7L102.5,211.7z"/>
		<path d="M108.6,212.1c0-0.2-0.2-0.4-0.4-0.8c1.2-1.8,2.1-4.1,2.8-6.8l0.8,0.1c-0.3,1.2-0.7,2.3-1,3.3v10.6h-0.7v-8.9
			C109.6,210.4,109.1,211.3,108.6,212.1z M113.5,216.2c0.4-0.3,0.9-0.7,1.6-1.2c0,0.3,0.1,0.5,0.2,0.7c-0.6,0.4-1.2,0.9-1.8,1.3
			c-0.2,0.1-0.4,0.3-0.6,0.6l-0.5-0.5c0.3-0.3,0.4-0.7,0.4-1.1v-5.9h-1.3v-0.7h2C113.5,209.4,113.5,216.2,113.5,216.2z M113.7,207.9
			c-0.4-0.8-0.8-1.6-1.3-2.4l0.6-0.3c0.4,0.7,0.9,1.5,1.3,2.3L113.7,207.9z M117.3,204.5h0.7v1.9h2v0.7h-2v2.3h0.7
			c1-1.1,1.9-2.3,2.6-3.6l0.7,0.4c-0.8,1.3-1.5,2.4-2.3,3.3h2.7v0.7H119c-0.6,0.6-1.2,1.1-1.8,1.6h4.1v6.8h-0.7v-1H117v1h-0.7v-6.1
			c-0.7,0.5-1.2,0.8-1.6,1.1c-0.1-0.2-0.3-0.4-0.4-0.6c1.4-0.8,2.7-1.7,3.8-2.8h-3.3v-0.7h2.6v-2.3h-2.1v-0.7h2.1L117.3,204.5
			L117.3,204.5z M117,212.4v1.9h3.6v-1.9H117z M117,214.9v1.9h3.6v-1.9H117z"/>
	</g>
</g>
</svg>
