<?xml version="1.0" encoding="utf-8"?>
<!-- Generator: Adobe Illustrator 22.1.0, SVG Export Plug-In . SVG Version: 6.00 Build 0)  -->
<svg version="1.1" id="图层_1" xmlns="http://www.w3.org/2000/svg" xmlns:xlink="http://www.w3.org/1999/xlink" x="0px" y="0px"
	 viewBox="0 0 400 198" style="enable-background:new 0 0 400 198;" xml:space="preserve">
<style type="text/css">
	.st0{fill:#456E68;}
	.st1{fill:#70DBCB;}
	.st2{fill:#F5F5F5;}
	.st3{fill:#E6E7E8;}
	.st4{fill:#FCFCFC;}
	.st5{fill:#F2F2F2;}
	.st6{fill:#00A99E;}
	.st7{fill:#FFFFFF;}
	.st8{fill:none;stroke:#456E68;stroke-linecap:round;stroke-miterlimit:10;}
	.st9{fill:none;stroke:#000000;stroke-miterlimit:10;}
	.st10{fill:#9FE7DD;}
	.st11{fill:#34B9A1;}
</style>
<g>
	<path class="st0" d="M328.9,171.9v-1.3h0c-0.2,0.5-0.5,0.8-0.9,1.1c-0.4,0.3-0.9,0.4-1.4,0.4c-0.6,0-1.1-0.2-1.5-0.5
		c-0.4-0.4-0.6-0.8-0.6-1.4c0-1.2,0.8-1.9,2.3-2.1l2.1-0.3c0-1.4-0.5-2.2-1.6-2.2c-0.7,0-1.5,0.3-2.2,0.9v-0.7
		c0.2-0.2,0.6-0.4,1-0.5c0.4-0.1,0.8-0.2,1.2-0.2c0.7,0,1.2,0.2,1.6,0.6c0.4,0.4,0.6,1.1,0.6,1.9v4.4H328.9z M327.1,168.6
		c-0.7,0.1-1.2,0.3-1.5,0.5c-0.3,0.2-0.4,0.6-0.4,1.1c0,0.4,0.1,0.7,0.4,1c0.3,0.3,0.6,0.4,1.1,0.4c0.6,0,1.2-0.2,1.6-0.7
		s0.6-1.1,0.6-1.8v-0.7L327.1,168.6z"/>
	<path class="st0" d="M331.2,171.6v-0.7c0.2,0.2,0.5,0.3,0.8,0.5c0.3,0.1,0.6,0.2,0.8,0.2c1.1,0,1.6-0.4,1.6-1.3
		c0-0.3-0.1-0.6-0.3-0.8c-0.2-0.2-0.6-0.4-1.1-0.6c-0.6-0.3-1.1-0.6-1.4-0.9c-0.3-0.3-0.4-0.7-0.4-1.1c0-0.5,0.2-1,0.6-1.3
		c0.4-0.3,0.9-0.5,1.5-0.5c0.6,0,1.1,0.1,1.5,0.4v0.7c-0.5-0.3-1-0.5-1.5-0.5c-0.4,0-0.8,0.1-1.1,0.3c-0.3,0.2-0.4,0.5-0.4,0.9
		c0,0.3,0.1,0.6,0.3,0.8c0.2,0.2,0.5,0.4,1.1,0.7c0.7,0.3,1.2,0.6,1.4,0.9c0.3,0.3,0.4,0.6,0.4,1.1c0,0.5-0.2,1-0.6,1.3
		c-0.4,0.3-0.9,0.5-1.7,0.5C332.2,172.1,331.6,171.9,331.2,171.6z"/>
	<path class="st0" d="M336.4,171.6v-0.7c0.2,0.2,0.5,0.3,0.8,0.5c0.3,0.1,0.6,0.2,0.8,0.2c1.1,0,1.6-0.4,1.6-1.3
		c0-0.3-0.1-0.6-0.3-0.8c-0.2-0.2-0.6-0.4-1.1-0.6c-0.6-0.3-1.1-0.6-1.4-0.9c-0.3-0.3-0.4-0.7-0.4-1.1c0-0.5,0.2-1,0.6-1.3
		c0.4-0.3,0.9-0.5,1.5-0.5c0.6,0,1.1,0.1,1.5,0.4v0.7c-0.5-0.3-1-0.5-1.5-0.5c-0.4,0-0.8,0.1-1.1,0.3c-0.3,0.2-0.4,0.5-0.4,0.9
		c0,0.3,0.1,0.6,0.3,0.8c0.2,0.2,0.5,0.4,1.1,0.7c0.7,0.3,1.2,0.6,1.4,0.9c0.3,0.3,0.4,0.6,0.4,1.1c0,0.5-0.2,1-0.6,1.3
		c-0.4,0.3-0.9,0.5-1.7,0.5C337.4,172.1,336.8,171.9,336.4,171.6z"/>
	<path class="st0" d="M342.1,168.6c0,0.9,0.2,1.6,0.6,2.2c0.4,0.5,1,0.8,1.8,0.8c0.8,0,1.5-0.3,2.2-0.8v0.6
		c-0.7,0.5-1.5,0.7-2.3,0.7c-0.9,0-1.6-0.3-2.1-0.9c-0.5-0.6-0.8-1.5-0.8-2.6c0-1,0.3-1.8,0.8-2.5c0.6-0.7,1.3-1,2.2-1
		c0.8,0,1.5,0.3,1.9,0.9c0.4,0.6,0.7,1.4,0.7,2.4v0.3H342.1z M346.4,168c0-0.8-0.2-1.4-0.6-1.8c-0.3-0.4-0.8-0.6-1.4-0.6
		c-0.6,0-1.2,0.2-1.6,0.6c-0.4,0.4-0.7,1-0.8,1.8H346.4z"/>
	<path class="st0" d="M351.4,171.8c-0.3,0.1-0.6,0.2-0.9,0.2c-1,0-1.5-0.6-1.5-1.8v-4.5h-1.2v-0.6h1.2v-1.7c0.1,0,0.2-0.1,0.3-0.1
		c0.1,0,0.2-0.1,0.3-0.1v1.9h1.8v0.6h-1.8v4.4c0,0.5,0.1,0.8,0.2,1c0.1,0.2,0.4,0.3,0.7,0.3c0.2,0,0.5-0.1,0.8-0.2V171.8z"/>
	<path class="st0" d="M359.1,172.1c-1,0-1.8-0.3-2.3-1c-0.6-0.6-0.9-1.5-0.9-2.5c0-1.1,0.3-2,0.9-2.6c0.6-0.6,1.4-0.9,2.4-0.9
		c1,0,1.7,0.3,2.3,0.9c0.6,0.6,0.8,1.5,0.8,2.6c0,1-0.3,1.9-0.8,2.5C360.8,171.8,360.1,172.1,359.1,172.1z M359.1,165.6
		c-0.8,0-1.4,0.3-1.9,0.8c-0.5,0.5-0.7,1.3-0.7,2.2c0,0.9,0.2,1.6,0.7,2.1c0.5,0.5,1.1,0.8,1.9,0.8c0.8,0,1.4-0.3,1.9-0.8
		c0.4-0.5,0.7-1.3,0.7-2.2c0-1-0.2-1.7-0.7-2.2C360.5,165.9,359.9,165.6,359.1,165.6z"/>
	<path class="st0" d="M369.6,171.9H369l-1.5-5.1c0-0.1-0.1-0.3-0.1-0.6h0c0,0.1-0.1,0.3-0.1,0.6l-1.6,5.1h-0.6l-2-6.7h0.7l1.6,5.3
		c0,0.1,0.1,0.3,0.1,0.6h0.1c0-0.1,0-0.3,0.1-0.6l1.7-5.3h0.4l1.5,5.3c0,0.1,0.1,0.3,0.1,0.6h0.1c0-0.1,0-0.3,0.1-0.6l1.6-5.3h0.6
		L369.6,171.9z"/>
	<path class="st0" d="M377.6,171.9V168c0-1.6-0.6-2.4-1.7-2.4c-0.6,0-1.2,0.2-1.6,0.7c-0.4,0.5-0.6,1.1-0.6,1.8v3.9H373v-6.7h0.6
		v1.2h0c0.5-0.9,1.3-1.4,2.3-1.4c0.7,0,1.3,0.2,1.7,0.7s0.6,1.2,0.6,2.1v4.1H377.6z"/>
	<path class="st0" d="M380.3,168.6c0,0.9,0.2,1.6,0.6,2.2c0.4,0.5,1,0.8,1.8,0.8c0.8,0,1.5-0.3,2.2-0.8v0.6
		c-0.7,0.5-1.5,0.7-2.3,0.7c-0.9,0-1.6-0.3-2.1-0.9c-0.5-0.6-0.8-1.5-0.8-2.6c0-1,0.3-1.8,0.8-2.5c0.6-0.7,1.3-1,2.2-1
		c0.8,0,1.5,0.3,1.9,0.9c0.4,0.6,0.7,1.4,0.7,2.4v0.3H380.3z M384.7,168c0-0.8-0.2-1.4-0.6-1.8c-0.3-0.4-0.8-0.6-1.4-0.6
		c-0.6,0-1.2,0.2-1.6,0.6c-0.4,0.4-0.7,1-0.8,1.8H384.7z"/>
	<path class="st0" d="M390.1,165.8c-0.2-0.1-0.4-0.2-0.7-0.2c-0.5,0-1,0.3-1.3,0.8c-0.4,0.5-0.5,1.3-0.5,2.3v3.1h-0.6v-6.7h0.6v1.5
		h0c0.1-0.5,0.4-0.9,0.7-1.2c0.3-0.3,0.7-0.4,1.2-0.4c0.2,0,0.5,0,0.7,0.1V165.8z"/>
</g>
<g>
	<path class="st0" d="M33,170.9v-9.4h0.6v9.4H33z"/>
	<path class="st0" d="M40.4,170.9V167c0-1.6-0.6-2.4-1.7-2.4c-0.6,0-1.2,0.2-1.6,0.7c-0.4,0.5-0.6,1.1-0.6,1.8v3.9h-0.6v-6.7h0.6
		v1.2h0c0.5-0.9,1.3-1.4,2.3-1.4c0.7,0,1.3,0.2,1.7,0.7c0.4,0.5,0.6,1.2,0.6,2.1v4.1H40.4z"/>
	<path class="st0" d="M45.3,170.9h-0.6l-2.6-6.7h0.7l2,5.3c0.1,0.3,0.2,0.5,0.2,0.7h0c0.1-0.3,0.1-0.5,0.2-0.7l2.1-5.4h0.7
		L45.3,170.9z"/>
	<path class="st0" d="M49.3,167.6c0,0.9,0.2,1.6,0.6,2.2c0.4,0.5,1,0.8,1.8,0.8c0.8,0,1.5-0.3,2.2-0.8v0.6c-0.7,0.5-1.5,0.7-2.3,0.7
		c-0.9,0-1.6-0.3-2.1-0.9c-0.5-0.6-0.8-1.5-0.8-2.6c0-1,0.3-1.8,0.8-2.5c0.6-0.7,1.3-1,2.2-1c0.8,0,1.5,0.3,1.9,0.9
		c0.4,0.6,0.7,1.4,0.7,2.4v0.3H49.3z M53.6,167c0-0.8-0.2-1.4-0.6-1.8c-0.3-0.4-0.8-0.6-1.4-0.6c-0.6,0-1.2,0.2-1.6,0.6
		c-0.4,0.4-0.7,1-0.8,1.8H53.6z"/>
	<path class="st0" d="M55.6,170.6v-0.7c0.2,0.2,0.5,0.3,0.8,0.5c0.3,0.1,0.6,0.2,0.8,0.2c1.1,0,1.6-0.4,1.6-1.3
		c0-0.3-0.1-0.6-0.3-0.8c-0.2-0.2-0.6-0.4-1.1-0.6c-0.6-0.3-1.1-0.6-1.3-0.9c-0.3-0.3-0.4-0.7-0.4-1.1c0-0.5,0.2-1,0.6-1.3
		c0.4-0.3,0.9-0.5,1.5-0.5c0.6,0,1.1,0.1,1.5,0.4v0.7c-0.5-0.3-1-0.5-1.5-0.5c-0.4,0-0.8,0.1-1.1,0.3c-0.3,0.2-0.4,0.5-0.4,0.9
		c0,0.3,0.1,0.6,0.3,0.8c0.2,0.2,0.5,0.4,1.1,0.7c0.7,0.3,1.2,0.6,1.4,0.9c0.3,0.3,0.4,0.6,0.4,1.1c0,0.5-0.2,1-0.6,1.3
		c-0.4,0.3-0.9,0.5-1.7,0.5C56.5,171.1,56,170.9,55.6,170.6z"/>
	<path class="st0" d="M63.8,170.8c-0.3,0.1-0.6,0.2-0.9,0.2c-1,0-1.5-0.6-1.5-1.8v-4.5h-1.2v-0.6h1.2v-1.7c0.1,0,0.2-0.1,0.3-0.1
		c0.1,0,0.2-0.1,0.3-0.1v1.9h1.8v0.6H62v4.4c0,0.5,0.1,0.8,0.2,1c0.1,0.2,0.4,0.3,0.7,0.3c0.2,0,0.5-0.1,0.8-0.2V170.8z"/>
	<path class="st0" d="M67.8,171.1c-1,0-1.8-0.3-2.3-1c-0.6-0.6-0.9-1.5-0.9-2.5c0-1.1,0.3-2,0.9-2.6c0.6-0.6,1.4-0.9,2.4-0.9
		c1,0,1.7,0.3,2.3,0.9c0.6,0.6,0.8,1.5,0.8,2.6c0,1-0.3,1.9-0.8,2.5C69.6,170.8,68.8,171.1,67.8,171.1z M67.8,164.6
		c-0.8,0-1.4,0.3-1.9,0.8c-0.5,0.5-0.7,1.3-0.7,2.2c0,0.9,0.2,1.6,0.7,2.1s1.1,0.8,1.9,0.8c0.8,0,1.4-0.3,1.9-0.8
		c0.4-0.5,0.7-1.3,0.7-2.2c0-1-0.2-1.7-0.7-2.2C69.2,164.9,68.6,164.6,67.8,164.6z"/>
	<path class="st0" d="M75.8,164.8c-0.2-0.1-0.4-0.2-0.7-0.2c-0.5,0-1,0.3-1.3,0.8c-0.4,0.5-0.5,1.3-0.5,2.3v3.1h-0.6v-6.7h0.6v1.5h0
		c0.1-0.5,0.4-0.9,0.7-1.2c0.3-0.3,0.7-0.4,1.2-0.4c0.2,0,0.5,0,0.7,0.1V164.8z"/>
</g>
<g id="矩形_48_2_">
	<rect x="89.4" y="123.4" class="st1" width="67.5" height="1.1"/>
</g>
<g id="矩形_48_1_">
	<rect x="239.3" y="123.4" class="st1" width="67.5" height="1.1"/>
</g>
<g id="圆角矩形_1_拷贝_3_">
	<path class="st2" d="M307.5,138.2l45.1-11.6c2-0.4,3.9-0.4,5.8,0.2l37.9,12.2c1.7,0.6,1.8,1.4,0.5,2l-39.7,14.4
		c-2.3,0.7-4.8,0.7-7.1,0.1l-43.4-15.2C304.8,139.7,305.2,138.7,307.5,138.2z"/>
</g>
<g id="矩形_46_3_">
	<path class="st3" d="M306.3,115.2l50,17.6v16.6l-50-17.6V115.2L306.3,115.2z"/>
</g>
<g id="矩形_46_拷贝_3_">
	<path class="st3" d="M398.9,116.2l-43.5,16.6v16.6l43.5-16.6V116.2z"/>
</g>
<g id="圆角矩形_1_3_">
	<path class="st4" d="M308.4,114.1l45.1-11.6c2-0.4,3.9-0.4,5.8,0.2l37.9,12.2c1.7,0.6,1.8,1.4,0.5,2l-39.5,14.5
		c-2.3,0.7-4.8,0.7-7.1,0.1l-43.4-15.3C305.7,115.5,306.1,114.6,308.4,114.1z"/>
</g>
<g id="椭圆_11_2_">
	<ellipse class="st5" cx="354.9" cy="113.8" rx="20.8" ry="4.2"/>
</g>
<g>
	<g>
		<g>
			<circle class="st0" cx="354.8" cy="55" r="5.4"/>
		</g>
		<g>
			<path class="st0" d="M356.7,63c-1.3-0.3-2.8-0.3-4.1,0.1c-9,1.1-11.9,11.5-11.1,19.4c0.4,3.4,5.8,3.5,5.4,0
				c-0.3-2.9-0.2-7.3,1.4-10.4c0,3.8,0,7.5,0,11.3c0,0.1,0,0.3,0,0.4c0,0.1,0,0.1,0,0.2c0,9,0,17.9-0.4,26.9c-0.2,4,6,4,6.2,0
				c0.3-7,0.4-14.1,0.4-21.1c0.3,0,0.6,0,0.9,0c0,7,0.1,14.1,0.4,21.1c0.2,4,6.3,4,6.2,0c-0.4-9-0.4-17.9-0.4-26.9
				c0-0.3,0-0.5-0.1-0.8c0-3.9-0.2-7.8-0.1-11.7c1.8,3.1,2,7.9,1.7,11c-0.4,3.5,5,3.4,5.4,0C369.2,74.3,366.1,63.6,356.7,63z"/>
		</g>
	</g>
</g>
<g id="圆角矩形_1_拷贝_2_">
	<path class="st2" d="M3,137.2l45.1-11.6c2-0.4,3.9-0.4,5.8,0.2L91.7,138c1.7,0.6,1.8,1.4,0.5,2l-39.7,14.4
		c-2.3,0.7-4.8,0.7-7.1,0.1L2.1,139.3C0.3,138.7,0.7,137.7,3,137.2z"/>
</g>
<g id="矩形_46_2_">
	<path class="st3" d="M1.8,114.2l50,17.6v16.6l-50-17.6V114.2L1.8,114.2z"/>
</g>
<g id="矩形_46_拷贝_2_">
	<path class="st3" d="M94.4,115.2l-43.5,16.6v16.6l43.5-16.6V115.2z"/>
</g>
<g id="圆角矩形_1_2_">
	<path class="st4" d="M3.9,113.1L49,101.5c2-0.4,3.9-0.4,5.8,0.2l37.9,12.2c1.7,0.6,1.8,1.4,0.5,2l-39.5,14.5
		c-2.3,0.7-4.8,0.7-7.1,0.1L3.2,115.2C1.2,114.5,1.6,113.6,3.9,113.1z"/>
</g>
<g id="椭圆_11_1_">
	<ellipse class="st5" cx="50.4" cy="112.8" rx="20.8" ry="4.2"/>
</g>
<g>
	<g>
		<g>
			<circle class="st0" cx="50.3" cy="54" r="5.4"/>
		</g>
		<g>
			<path class="st0" d="M52.2,62c-1.3-0.3-2.8-0.3-4.1,0.1c-9,1.1-11.9,11.5-11.1,19.4c0.4,3.4,5.8,3.5,5.4,0
				c-0.3-2.9-0.2-7.3,1.4-10.4c0,3.8,0,7.5,0,11.3c0,0.1,0,0.3,0,0.4c0,0.1,0,0.1,0,0.2c0,9,0,17.9-0.4,26.9c-0.2,4,6,4,6.2,0
				c0.3-7,0.4-14.1,0.4-21.1c0.3,0,0.6,0,0.9,0c0,7,0.1,14.1,0.4,21.1c0.2,4,6.3,4,6.2,0c-0.4-9-0.4-17.9-0.4-26.9
				c0-0.3,0-0.5-0.1-0.8c0-3.9-0.2-7.8-0.1-11.7c1.8,3.1,2,7.9,1.7,11c-0.4,3.5,5,3.4,5.4,0C64.7,73.3,61.6,62.6,52.2,62z"/>
		</g>
	</g>
</g>
<g>
	<path class="st0" d="M72.6,46l0.2-11c0-0.3,0.2-0.5,0.5-0.5c0.3,0,0.5,0.2,0.5,0.5l-0.1,10l10.9-0.2c0.3,0,0.5,0.2,0.5,0.5
		c0,0.3-0.2,0.5-0.5,0.5L72.6,46z"/>
</g>
<g id="椭圆_12_1_">
	<circle class="st6" cx="198.2" cy="61.8" r="18.2"/>
</g>
<g id="XMLID_1_">
	<polygon class="st7" points="199.5,57.4 201.3,57.4 201.3,54.7 205.7,54.7 205.7,69 201.3,69 201.3,64.9 204.3,64.9 204.3,58.9 
		192.2,58.9 192.2,64.9 195.1,64.9 195.1,69 190.7,69 190.7,54.7 195.1,54.7 195.1,57.4 197,57.4 197,52.8 189,52.8 189,70.9 
		197,70.9 197,63.1 194.1,63.1 194.1,60.8 202.3,60.8 202.3,63.1 199.5,63.1 199.5,70.9 207.5,70.9 207.5,52.8 199.5,52.8 	"/>
</g>
<g>
	<path class="st8" d="M73.2,48.2"/>
</g>
<g>
	<path class="st0" d="M317.4,163.5C317.4,163.5,317.4,163.5,317.4,163.5c-0.3,0-0.5-0.2-0.5-0.5l0.1-10l-10.9,0.2c0,0,0,0,0,0
		c-0.3,0-0.5-0.2-0.5-0.5c0-0.3,0.2-0.5,0.5-0.5l11.9-0.3l-0.2,11C317.9,163.3,317.7,163.5,317.4,163.5z"/>
</g>
<g>
	<g>
		<path class="st0" d="M318.6,45.7c-0.1,0-0.3-0.1-0.4-0.2C291.1,17.7,245.3,1,195.9,1c-49.4,0-95.2,16.6-122.3,44.5
			c-0.2,0.2-0.5,0.2-0.7,0c-0.2-0.2-0.2-0.5,0-0.7C100.2,16.8,146.2,0,195.9,0c49.7,0,95.7,16.8,123,44.9c0.2,0.2,0.2,0.5,0,0.7
			C318.8,45.7,318.7,45.7,318.6,45.7z"/>
	</g>
	<g>
		<path class="st0" d="M194.8,198c-49.7,0-95.7-16.8-123-44.9c-0.2-0.2-0.2-0.5,0-0.7c0.2-0.2,0.5-0.2,0.7,0
			c27.1,27.9,72.8,44.6,122.3,44.6c49.4,0,95.2-16.6,122.3-44.5c0.2-0.2,0.5-0.2,0.7,0c0.2,0.2,0.2,0.5,0,0.7
			C290.5,181.2,244.5,198,194.8,198z"/>
	</g>
</g>
<g>
	<path class="st9" d="M325.4,149.8"/>
</g>
<g>
	<polygon class="st10" points="259.5,138.4 137.3,138.4 125.3,124 137.3,109.4 259.5,109.4 271.1,123.9 	"/>
	<path class="st11" d="M259.8,138.9H137.1L124.7,124l12.4-15.1h122.7l12,15L259.8,138.9z M137.5,137.9h121.8l11.2-14l-11.2-14H137.5
		L126,124L137.5,137.9z"/>
</g>
<g>
	<path class="st0" d="M144.1,126.8v-7.5h2c0.6,0,1.1,0.2,1.4,0.5c0.3,0.3,0.5,0.7,0.5,1.3c0,0.4-0.1,0.8-0.3,1.1
		c-0.2,0.3-0.6,0.5-1,0.7v0c0.5,0,0.9,0.2,1.2,0.6c0.3,0.3,0.5,0.7,0.5,1.2c0,0.6-0.2,1.1-0.6,1.5c-0.4,0.4-1,0.6-1.6,0.6H144.1z
		 M144.7,119.8v2.9h1c0.5,0,1-0.1,1.3-0.4c0.3-0.3,0.5-0.7,0.5-1.1c0-0.9-0.5-1.3-1.6-1.3H144.7z M144.7,123.2v3.2h1.4
		c0.6,0,1-0.1,1.4-0.4s0.5-0.7,0.5-1.2c0-1-0.7-1.6-2.1-1.6H144.7z"/>
	<path class="st0" d="M149.9,126.8v-7.9h0.5v7.9H149.9z"/>
	<path class="st0" d="M154.2,127c-0.8,0-1.4-0.3-1.9-0.8c-0.5-0.5-0.7-1.2-0.7-2c0-0.9,0.2-1.6,0.7-2.1c0.5-0.5,1.1-0.8,1.9-0.8
		c0.8,0,1.4,0.2,1.8,0.7s0.7,1.2,0.7,2.1c0,0.8-0.2,1.5-0.7,2C155.6,126.7,155,127,154.2,127z M154.3,121.8c-0.6,0-1.1,0.2-1.5,0.6
		c-0.4,0.4-0.6,1-0.6,1.8c0,0.7,0.2,1.3,0.6,1.7c0.4,0.4,0.9,0.6,1.5,0.6c0.6,0,1.1-0.2,1.5-0.6s0.5-1,0.5-1.7
		c0-0.8-0.2-1.3-0.5-1.8C155.4,122,154.9,121.8,154.3,121.8z"/>
	<path class="st0" d="M161.6,126.6c-0.4,0.2-0.9,0.4-1.4,0.4c-0.7,0-1.3-0.3-1.8-0.8s-0.7-1.2-0.7-2c0-0.9,0.3-1.5,0.8-2.1
		c0.5-0.5,1.1-0.8,1.9-0.8c0.4,0,0.8,0.1,1.2,0.3v0.5c-0.4-0.2-0.8-0.4-1.3-0.4c-0.6,0-1.1,0.2-1.5,0.7c-0.4,0.5-0.6,1-0.6,1.8
		c0,0.7,0.2,1.3,0.5,1.7c0.4,0.4,0.8,0.6,1.4,0.6c0.5,0,1-0.1,1.4-0.4V126.6z"/>
	<path class="st0" d="M165.9,126.8l-2.6-2.6h0v2.6h-0.5v-7.9h0.5v5.1h0l2.4-2.5h0.6l-2.5,2.6l2.8,2.8H165.9z"/>
	<path class="st0" d="M171.1,126.6c-0.4,0.2-0.9,0.4-1.4,0.4c-0.7,0-1.3-0.3-1.8-0.8s-0.7-1.2-0.7-2c0-0.9,0.3-1.5,0.8-2.1
		s1.1-0.8,1.9-0.8c0.4,0,0.8,0.1,1.2,0.3v0.5c-0.4-0.2-0.8-0.4-1.3-0.4c-0.6,0-1.1,0.2-1.5,0.7c-0.4,0.5-0.6,1-0.6,1.8
		c0,0.7,0.2,1.3,0.5,1.7c0.4,0.4,0.8,0.6,1.4,0.6c0.5,0,1-0.1,1.4-0.4V126.6z"/>
	<path class="st0" d="M176,126.8v-3.2c0-0.6-0.1-1.1-0.3-1.4c-0.2-0.3-0.6-0.4-1.1-0.4c-0.5,0-0.9,0.2-1.2,0.5
		c-0.3,0.4-0.5,0.9-0.5,1.5v3h-0.5v-7.9h0.5v3.5h0c0.4-0.7,1-1.1,1.8-1.1c0.6,0,1,0.2,1.3,0.6c0.3,0.4,0.5,0.9,0.5,1.6v3.3H176z"/>
	<path class="st0" d="M181.4,126.8v-1.1h0c-0.2,0.4-0.4,0.7-0.7,0.9c-0.3,0.2-0.7,0.3-1.1,0.3c-0.5,0-0.9-0.1-1.2-0.4
		c-0.3-0.3-0.4-0.6-0.4-1.1c0-0.9,0.6-1.5,1.9-1.7l1.6-0.2c0-1.2-0.4-1.7-1.3-1.7c-0.6,0-1.2,0.2-1.7,0.7v-0.6
		c0.2-0.2,0.5-0.3,0.8-0.4s0.7-0.2,1-0.2c0.6,0,1,0.2,1.3,0.5c0.3,0.3,0.5,0.8,0.5,1.5v3.5H181.4z M179.9,124.2
		c-0.6,0.1-1,0.2-1.2,0.4c-0.2,0.2-0.3,0.5-0.3,0.9c0,0.3,0.1,0.6,0.3,0.8c0.2,0.2,0.5,0.3,0.9,0.3c0.5,0,0.9-0.2,1.3-0.6
		c0.3-0.4,0.5-0.9,0.5-1.5V124L179.9,124.2z"/>
	<path class="st0" d="M183.7,120.1c-0.1,0-0.2,0-0.3-0.1c-0.1-0.1-0.1-0.2-0.1-0.3c0-0.1,0-0.2,0.1-0.3c0.1-0.1,0.2-0.1,0.3-0.1
		c0.1,0,0.2,0,0.3,0.1c0.1,0.1,0.1,0.2,0.1,0.3c0,0.1,0,0.2-0.1,0.3C183.9,120.1,183.8,120.1,183.7,120.1z M183.4,126.8v-5.4h0.5
		v5.4H183.4z"/>
	<path class="st0" d="M189.3,126.8v-3.1c0-1.3-0.5-1.9-1.4-1.9c-0.5,0-0.9,0.2-1.3,0.6c-0.3,0.4-0.5,0.8-0.5,1.4v3.1h-0.5v-5.4h0.5
		v1h0c0.4-0.7,1-1.1,1.8-1.1c0.6,0,1,0.2,1.3,0.6c0.3,0.4,0.5,0.9,0.5,1.7v3.3H189.3z"/>
	<path class="st0" d="M201.1,126.8v-3.2c0-0.7-0.1-1.1-0.3-1.4c-0.2-0.3-0.5-0.4-1-0.4c-0.4,0-0.8,0.2-1.1,0.5
		c-0.3,0.4-0.5,0.8-0.5,1.4v3.1h-0.5v-3.3c0-1.2-0.5-1.8-1.4-1.8c-0.4,0-0.8,0.2-1.1,0.5c-0.3,0.4-0.4,0.8-0.4,1.4v3.1h-0.5v-5.4
		h0.5v0.9h0c0.4-0.7,0.9-1,1.6-1c0.4,0,0.7,0.1,1,0.3c0.3,0.2,0.5,0.5,0.6,0.9c0.2-0.4,0.4-0.7,0.7-0.9c0.3-0.2,0.7-0.3,1-0.3
		c1.2,0,1.8,0.7,1.8,2.2v3.3H201.1z"/>
	<path class="st0" d="M206.4,126.8v-1.1h0c-0.2,0.4-0.4,0.7-0.7,0.9c-0.3,0.2-0.7,0.3-1.1,0.3c-0.5,0-0.9-0.1-1.2-0.4
		c-0.3-0.3-0.4-0.6-0.4-1.1c0-0.9,0.6-1.5,1.9-1.7l1.6-0.2c0-1.2-0.4-1.7-1.3-1.7c-0.6,0-1.2,0.2-1.7,0.7v-0.6
		c0.2-0.2,0.5-0.3,0.8-0.4c0.3-0.1,0.7-0.2,1-0.2c0.6,0,1,0.2,1.3,0.5c0.3,0.3,0.5,0.8,0.5,1.5v3.5H206.4z M204.9,124.2
		c-0.6,0.1-1,0.2-1.2,0.4c-0.2,0.2-0.3,0.5-0.3,0.9c0,0.3,0.1,0.6,0.3,0.8c0.2,0.2,0.5,0.3,0.9,0.3c0.5,0,0.9-0.2,1.3-0.6
		c0.3-0.4,0.5-0.9,0.5-1.5V124L204.9,124.2z"/>
	<path class="st0" d="M212.1,126.8v-3.1c0-1.3-0.5-1.9-1.4-1.9c-0.5,0-0.9,0.2-1.3,0.6c-0.3,0.4-0.5,0.8-0.5,1.4v3.1h-0.5v-5.4h0.5
		v1h0c0.4-0.7,1-1.1,1.8-1.1c0.6,0,1,0.2,1.3,0.6c0.3,0.4,0.5,0.9,0.5,1.7v3.3H212.1z"/>
	<path class="st0" d="M217.4,126.8v-1.1h0c-0.2,0.4-0.4,0.7-0.7,0.9c-0.3,0.2-0.7,0.3-1.1,0.3c-0.5,0-0.9-0.1-1.2-0.4
		c-0.3-0.3-0.4-0.6-0.4-1.1c0-0.9,0.6-1.5,1.9-1.7l1.6-0.2c0-1.2-0.4-1.7-1.3-1.7c-0.6,0-1.2,0.2-1.7,0.7v-0.6
		c0.2-0.2,0.5-0.3,0.8-0.4c0.3-0.1,0.7-0.2,1-0.2c0.6,0,1,0.2,1.3,0.5c0.3,0.3,0.5,0.8,0.5,1.5v3.5H217.4z M215.9,124.2
		c-0.6,0.1-1,0.2-1.2,0.4c-0.2,0.2-0.3,0.5-0.3,0.9c0,0.3,0.1,0.6,0.3,0.8c0.2,0.2,0.5,0.3,0.9,0.3c0.5,0,0.9-0.2,1.3-0.6
		c0.3-0.4,0.5-0.9,0.5-1.5V124L215.9,124.2z"/>
	<path class="st0" d="M223.8,126.4c0,1-0.2,1.7-0.7,2.2c-0.4,0.5-1.1,0.7-2.1,0.7c-0.5,0-1-0.1-1.6-0.4v-0.5
		c0.6,0.3,1.1,0.5,1.6,0.5c1.5,0,2.2-0.8,2.2-2.3v-0.7h0c-0.4,0.7-1.1,1.1-1.9,1.1c-0.7,0-1.2-0.2-1.6-0.7c-0.4-0.5-0.6-1.1-0.6-2
		c0-0.9,0.2-1.6,0.7-2.1c0.5-0.5,1-0.8,1.8-0.8c0.8,0,1.4,0.3,1.7,1h0v-0.8h0.5V126.4z M223.3,123.5c0-0.5-0.2-0.9-0.5-1.2
		c-0.3-0.3-0.7-0.5-1.2-0.5c-0.6,0-1.1,0.2-1.4,0.7c-0.4,0.4-0.5,1-0.5,1.8c0,0.7,0.2,1.3,0.5,1.7c0.3,0.4,0.8,0.6,1.3,0.6
		c0.6,0,1-0.2,1.4-0.6s0.5-0.8,0.5-1.4V123.5z"/>
	<path class="st0" d="M225.6,124.2c0,0.7,0.2,1.3,0.5,1.7c0.3,0.4,0.8,0.6,1.4,0.6c0.6,0,1.2-0.2,1.8-0.7v0.5
		c-0.6,0.4-1.2,0.6-1.9,0.6c-0.7,0-1.3-0.2-1.7-0.7c-0.4-0.5-0.6-1.2-0.6-2.1c0-0.8,0.2-1.4,0.7-2c0.4-0.5,1-0.8,1.7-0.8
		c0.7,0,1.2,0.2,1.5,0.7c0.4,0.5,0.5,1.1,0.5,1.9v0.2H225.6z M229.1,123.7c0-0.6-0.2-1.1-0.4-1.4c-0.3-0.3-0.7-0.5-1.1-0.5
		c-0.5,0-0.9,0.2-1.3,0.5c-0.3,0.3-0.5,0.8-0.6,1.5H229.1z"/>
	<path class="st0" d="M237.7,126.8v-3.2c0-0.7-0.1-1.1-0.3-1.4c-0.2-0.3-0.5-0.4-1-0.4c-0.4,0-0.8,0.2-1.1,0.5
		c-0.3,0.4-0.5,0.8-0.5,1.4v3.1h-0.5v-3.3c0-1.2-0.5-1.8-1.4-1.8c-0.4,0-0.8,0.2-1.1,0.5c-0.3,0.4-0.4,0.8-0.4,1.4v3.1h-0.5v-5.4
		h0.5v0.9h0c0.4-0.7,0.9-1,1.6-1c0.4,0,0.7,0.1,1,0.3c0.3,0.2,0.5,0.5,0.6,0.9c0.2-0.4,0.4-0.7,0.7-0.9s0.7-0.3,1-0.3
		c1.2,0,1.8,0.7,1.8,2.2v3.3H237.7z"/>
	<path class="st0" d="M239.9,124.2c0,0.7,0.2,1.3,0.5,1.7c0.3,0.4,0.8,0.6,1.4,0.6c0.6,0,1.2-0.2,1.8-0.7v0.5
		c-0.6,0.4-1.2,0.6-1.9,0.6c-0.7,0-1.3-0.2-1.7-0.7c-0.4-0.5-0.6-1.2-0.6-2.1c0-0.8,0.2-1.4,0.7-2c0.4-0.5,1-0.8,1.7-0.8
		c0.7,0,1.2,0.2,1.5,0.7c0.4,0.5,0.5,1.1,0.5,1.9v0.2H239.9z M243.3,123.7c0-0.6-0.2-1.1-0.4-1.4c-0.3-0.3-0.7-0.5-1.1-0.5
		c-0.5,0-0.9,0.2-1.3,0.5c-0.3,0.3-0.5,0.8-0.6,1.5H243.3z"/>
	<path class="st0" d="M248.8,126.8v-3.1c0-1.3-0.5-1.9-1.4-1.9c-0.5,0-0.9,0.2-1.3,0.6c-0.3,0.4-0.5,0.8-0.5,1.4v3.1h-0.5v-5.4h0.5
		v1h0c0.4-0.7,1-1.1,1.8-1.1c0.6,0,1,0.2,1.3,0.6c0.3,0.4,0.5,0.9,0.5,1.7v3.3H248.8z"/>
	<path class="st0" d="M253.1,126.8c-0.3,0.1-0.5,0.2-0.7,0.2c-0.8,0-1.2-0.5-1.2-1.4v-3.6h-1v-0.4h1v-1.4c0.1,0,0.2-0.1,0.2-0.1
		c0.1,0,0.2-0.1,0.2-0.1v1.6h1.4v0.4h-1.4v3.5c0,0.4,0.1,0.6,0.2,0.8c0.1,0.2,0.3,0.3,0.6,0.3c0.2,0,0.4-0.1,0.6-0.2V126.8z"/>
</g>
<g>
	<path class="st0" d="M194.2,91.4v-4h-4.8v4h-0.6V83h0.6v3.8h4.8V83h0.6v8.4H194.2z"/>
	<path class="st0" d="M199.2,91.6c-0.9,0-1.6-0.3-2.1-0.9c-0.5-0.6-0.8-1.3-0.8-2.2c0-1,0.3-1.8,0.8-2.3c0.5-0.6,1.2-0.8,2.1-0.8
		c0.9,0,1.5,0.3,2,0.8c0.5,0.6,0.7,1.3,0.7,2.3c0,0.9-0.3,1.7-0.8,2.3C200.8,91.3,200.1,91.6,199.2,91.6z M199.3,85.8
		c-0.7,0-1.3,0.2-1.7,0.7c-0.4,0.5-0.6,1.1-0.6,2c0,0.8,0.2,1.4,0.6,1.9c0.4,0.5,1,0.7,1.7,0.7c0.7,0,1.3-0.2,1.7-0.7
		c0.4-0.5,0.6-1.1,0.6-2c0-0.9-0.2-1.5-0.6-2C200.5,86,200,85.8,199.3,85.8z"/>
	<path class="st0" d="M205.9,83.5v7.9h-0.6v-7.9h-2.4V83h5.4v0.5H205.9z"/>
</g>
</svg>
