<?xml version="1.0" encoding="utf-8"?>
<!-- Generator: Adobe Illustrator 22.1.0, SVG Export Plug-In . SVG Version: 6.00 Build 0)  -->
<svg version="1.1" id="图层_1" xmlns="http://www.w3.org/2000/svg" xmlns:xlink="http://www.w3.org/1999/xlink" x="0px" y="0px"
	 viewBox="0 0 400 198" style="enable-background:new 0 0 400 198;" xml:space="preserve">
<style type="text/css">
	.st0{fill:#456E68;}
	.st1{fill:#70DBCB;}
	.st2{fill:#F5F5F5;}
	.st3{fill:#E6E7E8;}
	.st4{fill:#FCFCFC;}
	.st5{fill:#F2F2F2;}
	.st6{fill:#00A99E;}
	.st7{fill:#FFFFFF;}
	.st8{fill:none;stroke:#456E68;stroke-linecap:round;stroke-miterlimit:10;}
	.st9{fill:none;stroke:#000000;stroke-miterlimit:10;}
	.st10{fill:#9FE7DD;}
	.st11{fill:#34B9A1;}
</style>
<g>
	<g>
		<path class="st0" d="M323.9,166.7c1-0.7,2-1.4,2.9-2.2c0,0.1,0.2,0.3,0.3,0.6c-0.9,0.7-1.8,1.4-2.8,2.2L323.9,166.7z M329.5,169
			h0.6c0,0.4,0,0.9-0.1,1.3c0,0,0,0.1,0,0.1c0,0.1-0.1,0.2-0.1,0.3c1.6,0.6,3.3,1.3,5.2,2l-0.4,0.6c-1.9-0.8-3.6-1.6-5.1-2.1
			c-0.6,0.9-2.2,1.7-5,2.2c-0.1-0.2-0.2-0.5-0.3-0.7c3.2-0.4,4.9-1.2,5.2-2.6C329.5,169.8,329.5,169.4,329.5,169z M326.4,163.8
			c-0.6-0.5-1.2-1-1.9-1.5l0.4-0.5c0.6,0.4,1.2,0.9,1.9,1.4L326.4,163.8z M325.8,167.6h8.1v3.5h-0.6v-2.9h-6.8v2.9h-0.6V167.6z
			 M327.7,167.2c-0.1-0.2-0.3-0.4-0.4-0.6c2.5-0.5,3.8-1.6,3.9-3.3h-2c-0.3,0.5-0.8,1.1-1.3,1.7c-0.2-0.2-0.4-0.3-0.5-0.4
			c0.9-0.8,1.5-1.8,1.9-2.9l0.6,0.2c-0.1,0.3-0.3,0.7-0.5,1h5.5v0.6l-0.7,1.5c-0.2-0.1-0.4-0.2-0.6-0.2l0.7-1.3h-2.6
			c0,0.1,0,0.2-0.1,0.3c0.6,1.6,1.8,2.6,3.8,2.9c-0.1,0.2-0.3,0.4-0.4,0.6c-1.9-0.5-3.1-1.5-3.6-2.8
			C331.2,165.6,329.9,166.5,327.7,167.2z"/>
	</g>
	<g>
		<path class="st0" d="M337.6,166.6h5.9c0.5-0.7,1-1.5,1.4-2.3l0.6,0.3c-0.4,0.6-0.9,1.3-1.4,2h3.5v0.6h-9.4v1
			c0.1,2.2-0.4,3.9-1.4,5.2c-0.2-0.2-0.4-0.4-0.5-0.5c0.5-0.6,0.8-1.3,1-2c0.2-0.7,0.3-1.6,0.3-2.8V166.6z M341.9,161.9l0.7-0.2
			c0.2,0.5,0.4,1,0.5,1.4h5v0.6h-11.4v-0.6h5.7C342.2,162.9,342.1,162.5,341.9,161.9C341.9,162,341.9,161.9,341.9,161.9z
			 M339.3,164.6l0.6-0.4c0.4,0.4,0.8,1,1.4,1.8l-0.6,0.4C340.2,165.8,339.7,165.2,339.3,164.6z"/>
	</g>
	<g>
		<path class="st0" d="M348.6,172.9c0.5-0.8,0.8-1.5,0.9-2.2c0.1-0.7,0.2-1.8,0.2-3.3v-4.8c1.4-0.1,2.7-0.2,4-0.4l0.2,0.6
			c-1.1,0.2-2.3,0.3-3.6,0.4v2.1h3.2v3.8h-3.2c0,1.6-0.4,3-1.2,4.2C349.1,173.2,348.9,173.1,348.6,172.9z M353,165.9h-2.5v1.6
			c0,0.1,0,0.3,0,0.6c0,0.2,0,0.4,0,0.5h2.5V165.9z M353,172.9c0.8-0.9,1.3-1.7,1.6-2.6c0.3-0.9,0.4-2.2,0.4-3.9v-3.7
			c1.9-0.1,3.6-0.3,5.1-0.5l0.2,0.6c-1.4,0.2-2.9,0.3-4.7,0.4v2.9h4.9v0.6h-1.9v6.6H358v-6.6h-2.4c0.1,2.9-0.6,5.1-2.1,6.6
			C353.4,173.3,353.2,173.1,353,172.9z"/>
	</g>
	<g>
		<path class="st0" d="M364.3,173.4h-0.7v-6.5c-0.6,0.6-1.3,1.3-2,2c-0.1-0.2-0.3-0.4-0.5-0.5c1.6-1.3,2.9-2.8,3.9-4.4h-3.5v-0.6
			h3.8c0.3-0.6,0.6-1.1,0.9-1.7l0.7,0.2c-0.3,0.6-0.6,1.1-0.8,1.5h6.6v0.6h-6.9c-0.3,0.5-0.7,1.1-1.1,1.6h6.6v6.2
			c0,0.9-0.4,1.4-1.4,1.4c-0.4,0-1,0-1.7,0c0-0.3-0.1-0.5-0.2-0.7c0.5,0,1.1,0,1.7,0c0.4,0,0.6-0.1,0.7-0.2c0.1-0.1,0.2-0.3,0.2-0.7
			v-1.1h-6.4V173.4z M364.3,166.2v1.6h6.4v-1.6H364.3z M364.3,168.4v1.6h6.4v-1.6H364.3z"/>
	</g>
	<g>
		<path class="st0" d="M383.8,162.6l0.5,0.4c-0.8,1-1.7,1.8-2.7,2.6h3.6v0.6h-4.4c-0.8,0.6-1.7,1.1-2.6,1.6h5.1v5.6h-0.7v-0.7h-5.9
			v0.7h-0.7v-4.6c-0.7,0.3-1.4,0.6-2.2,0.9c-0.1-0.2-0.2-0.4-0.3-0.6c2.4-0.8,4.5-1.8,6.2-2.9h-6v-0.6h4.6v-1.8H375v-0.6h3.4v-1.6
			h0.7v1.6h3v0.6h-3v1.8h1.5C381.8,164.8,382.8,163.8,383.8,162.6z M377.1,168.4c0,0-0.1,0-0.1,0.1c-0.1,0-0.2,0.1-0.2,0.1v1.4h5.9
			v-1.6H377.1z M376.7,170.6v1.6h5.9v-1.6H376.7z"/>
	</g>
</g>
<g>
	<g>
		<path class="st0" d="M31.9,168l-0.1-0.7c0.1,0,0.3-0.1,0.5-0.2c0.5-0.2,1-0.3,1.3-0.4v-2.9h-1.6v-0.6h1.6v-2.4h0.6v2.4h1.5v0.6
			h-1.5v2.7c0.4-0.1,0.9-0.3,1.3-0.4c0,0.3,0,0.5,0,0.7c0,0-0.1,0-0.1,0c-0.5,0.2-1,0.3-1.2,0.4v3.7c0,0.9-0.4,1.4-1.2,1.4
			c-0.4,0-0.7,0-0.9,0c0,0,0-0.1,0-0.2c0-0.2-0.1-0.4-0.1-0.6c0.4,0,0.7,0,0.9,0c0.5,0,0.7-0.2,0.7-0.8v-3.4c-0.1,0-0.3,0.1-0.5,0.2
			C32.8,167.6,32.4,167.8,31.9,168z M36.4,166.9v-0.6h6v0.6c-0.6,1.3-1.4,2.4-2.4,3.3c0.9,0.6,2.1,1.1,3.6,1.5
			c-0.1,0.2-0.2,0.4-0.3,0.7c-1.6-0.5-2.9-1-3.8-1.7c-1,0.7-2.3,1.3-3.9,1.8c-0.1-0.2-0.3-0.4-0.4-0.6c1.5-0.4,2.7-0.9,3.7-1.6
			c-0.9-0.8-1.5-1.9-2-3.2H36.4z M42.4,164.6h1.1c-0.1,0.2-0.1,0.4-0.1,0.6h-1.1c-0.9,0-1.4-0.4-1.3-1.3v-1.9h-3v0.6
			c0.1,1.4-0.5,2.5-1.7,3.3c-0.2-0.2-0.3-0.4-0.5-0.5c0.6-0.4,1-0.8,1.2-1.2c0.2-0.4,0.3-0.9,0.3-1.6v-1.2h4.2v2.4
			c0,0.3,0.1,0.5,0.2,0.6C41.9,164.5,42.1,164.6,42.4,164.6z M41.6,166.9h-4.1c0.4,1.2,1.1,2.1,1.9,2.9
			C40.4,169,41.1,168.1,41.6,166.9z"/>
	</g>
	<g>
		<path class="st0" d="M44.3,165.7c1-0.7,2-1.4,2.9-2.2c0,0.1,0.2,0.3,0.3,0.6c-0.9,0.7-1.8,1.4-2.8,2.2L44.3,165.7z M49.9,168h0.6
			c0,0.4,0,0.9-0.1,1.3c0,0,0,0.1,0,0.1c0,0.1-0.1,0.2-0.1,0.3c1.6,0.6,3.3,1.3,5.2,2l-0.4,0.6c-1.9-0.8-3.6-1.6-5.1-2.1
			c-0.5,0.9-2.2,1.7-5,2.2c-0.1-0.2-0.2-0.5-0.3-0.7c3.2-0.4,4.9-1.2,5.2-2.6C49.9,168.9,49.9,168.5,49.9,168z M46.7,162.9
			c-0.6-0.5-1.2-1-1.9-1.5l0.4-0.5c0.6,0.4,1.2,0.9,1.9,1.4L46.7,162.9z M46.1,166.6h8.1v3.5h-0.6v-2.9h-6.8v2.9h-0.6V166.6z
			 M48,166.2c-0.1-0.2-0.3-0.4-0.4-0.6c2.5-0.5,3.8-1.6,3.9-3.3h-2c-0.3,0.5-0.8,1.1-1.3,1.7c-0.2-0.2-0.4-0.3-0.5-0.4
			c0.9-0.8,1.5-1.8,1.9-2.9l0.6,0.2c-0.1,0.3-0.3,0.7-0.5,1h5.5v0.6l-0.7,1.5c-0.2-0.1-0.4-0.2-0.6-0.2l0.7-1.3h-2.6
			c0,0.1,0,0.2-0.1,0.3c0.6,1.6,1.8,2.6,3.8,2.9c-0.1,0.2-0.3,0.4-0.4,0.6c-1.9-0.5-3.1-1.5-3.6-2.8C51.5,164.6,50.2,165.6,48,166.2
			z"/>
	</g>
	<g>
		<path class="st0" d="M66.8,161.7l0.5,0.4c-0.8,1-1.7,1.8-2.7,2.6h3.6v0.6h-4.4c-0.8,0.6-1.6,1.1-2.6,1.6h5.1v5.6h-0.7v-0.7h-5.9
			v0.7h-0.7v-4.6c-0.7,0.3-1.4,0.6-2.2,0.9c-0.1-0.2-0.2-0.4-0.3-0.6c2.4-0.8,4.5-1.8,6.2-2.9h-6v-0.6h4.6v-1.8H58v-0.6h3.4v-1.6
			h0.7v1.6h3v0.6h-3v1.8h1.5C64.8,163.8,65.9,162.8,66.8,161.7z M60.2,167.4c0,0-0.1,0-0.1,0.1c-0.1,0-0.2,0.1-0.2,0.1v1.4h5.9v-1.6
			H60.2z M59.8,169.6v1.6h5.9v-1.6H59.8z"/>
	</g>
</g>
<g id="矩形_48_4_">
	<g>
		<rect x="89.1" y="123.4" class="st1" width="67.5" height="1.1"/>
	</g>
</g>
<g id="矩形_48_6_">
	<g>
		<rect x="239.1" y="123.4" class="st1" width="67.5" height="1.1"/>
	</g>
</g>
<g id="圆角矩形_1_拷贝_11_">
	<g>
		<path class="st2" d="M307.2,138.2l45.1-11.6c2-0.4,3.9-0.4,5.8,0.2L396,139c1.7,0.6,1.8,1.4,0.5,2l-39.7,14.4
			c-2.3,0.7-4.8,0.7-7.1,0.1l-43.4-15.2C304.5,139.7,304.9,138.7,307.2,138.2z"/>
	</g>
</g>
<g id="矩形_46_11_">
	<g>
		<path class="st3" d="M306,115.2l50,17.6v16.6l-50-17.6V115.2L306,115.2z"/>
	</g>
</g>
<g id="矩形_46_拷贝_11_">
	<g>
		<path class="st3" d="M398.6,116.2l-43.5,16.6v16.6l43.5-16.6V116.2z"/>
	</g>
</g>
<g id="圆角矩形_1_11_">
	<g>
		<path class="st4" d="M308.1,114.1l45.1-11.6c2-0.4,3.9-0.4,5.8,0.2l37.9,12.2c1.7,0.6,1.8,1.4,0.5,2l-39.5,14.5
			c-2.3,0.7-4.8,0.7-7.1,0.1l-43.4-15.3C305.4,115.5,305.8,114.6,308.1,114.1z"/>
	</g>
</g>
<g id="椭圆_11_13_">
	<g>
		<ellipse class="st5" cx="354.6" cy="113.8" rx="20.8" ry="4.2"/>
	</g>
</g>
<g>
	<g>
		<g>
			<g>
				<circle class="st0" cx="354.5" cy="55" r="5.4"/>
			</g>
		</g>
		<g>
			<g>
				<path class="st0" d="M356.4,63c-1.3-0.3-2.8-0.3-4.1,0.1c-9,1.1-11.9,11.5-11.1,19.4c0.4,3.4,5.8,3.5,5.4,0
					c-0.3-2.9-0.2-7.3,1.4-10.4c0,3.8,0,7.5,0,11.3c0,0.1,0,0.3,0,0.4c0,0.1,0,0.1,0,0.2c0,9,0,17.9-0.4,26.9c-0.2,4,6,4,6.2,0
					c0.3-7,0.4-14.1,0.4-21.1c0.3,0,0.6,0,0.9,0c0,7,0.1,14.1,0.4,21.1c0.2,4,6.3,4,6.2,0c-0.4-9-0.4-17.9-0.4-26.9
					c0-0.3,0-0.5-0.1-0.8c0-3.9-0.2-7.8-0.1-11.7c1.8,3.1,2,7.9,1.7,11c-0.4,3.5,5,3.4,5.4,0C368.9,74.3,365.8,63.6,356.4,63z"/>
			</g>
		</g>
	</g>
</g>
<g id="圆角矩形_1_拷贝_1_">
	<g>
		<path class="st2" d="M2.7,137.2l45.1-11.6c2-0.4,3.9-0.4,5.8,0.2L91.5,138c1.7,0.6,1.8,1.4,0.5,2l-39.7,14.4
			c-2.3,0.7-4.8,0.7-7.1,0.1L1.8,139.3C0,138.7,0.4,137.7,2.7,137.2z"/>
	</g>
</g>
<g id="矩形_46_1_">
	<g>
		<path class="st3" d="M1.5,114.2l50,17.6v16.6l-50-17.6V114.2L1.5,114.2z"/>
	</g>
</g>
<g id="矩形_46_拷贝_1_">
	<g>
		<path class="st3" d="M94.1,115.2l-43.5,16.6v16.6l43.5-16.6V115.2z"/>
	</g>
</g>
<g id="圆角矩形_1_1_">
	<g>
		<path class="st4" d="M3.6,113.1l45.1-11.6c2-0.4,3.9-0.4,5.8,0.2l37.9,12.2c1.7,0.6,1.8,1.4,0.5,2l-39.5,14.5
			c-2.3,0.7-4.8,0.7-7.1,0.1L2.9,115.2C0.9,114.5,1.3,113.6,3.6,113.1z"/>
	</g>
</g>
<g id="椭圆_11_11_">
	<g>
		<ellipse class="st5" cx="50.1" cy="112.8" rx="20.8" ry="4.2"/>
	</g>
</g>
<g>
	<g>
		<g>
			<g>
				<circle class="st0" cx="50" cy="54" r="5.4"/>
			</g>
		</g>
		<g>
			<g>
				<path class="st0" d="M51.9,62c-1.3-0.3-2.8-0.3-4.1,0.1c-9,1.1-11.9,11.5-11.1,19.4c0.4,3.4,5.8,3.5,5.4,0
					c-0.3-2.9-0.2-7.3,1.4-10.4c0,3.8,0,7.5,0,11.3c0,0.1,0,0.3,0,0.4c0,0.1,0,0.1,0,0.2c0,9,0,17.9-0.4,26.9c-0.2,4,6,4,6.2,0
					c0.3-7,0.4-14.1,0.4-21.1c0.3,0,0.6,0,0.9,0c0,7,0.1,14.1,0.4,21.1c0.2,4,6.3,4,6.2,0c-0.4-9-0.4-17.9-0.4-26.9
					c0-0.3,0-0.5-0.1-0.8c0-3.9-0.2-7.8-0.1-11.7c1.8,3.1,2,7.9,1.7,11c-0.4,3.5,5,3.4,5.4,0C64.4,73.3,61.3,62.6,51.9,62z"/>
			</g>
		</g>
	</g>
</g>
<g>
	<g>
		<path class="st0" d="M72.3,46l0.2-11c0-0.3,0.2-0.5,0.5-0.5c0,0,0,0,0,0c0.3,0,0.5,0.2,0.5,0.5l-0.1,10l10.9-0.2
			c0.3,0,0.5,0.2,0.5,0.5c0,0.3-0.2,0.5-0.5,0.5L72.3,46z"/>
	</g>
</g>
<g id="椭圆_12_2_">
	<g>
		<circle class="st6" cx="198" cy="61.8" r="18.2"/>
	</g>
</g>
<g id="XMLID_2_">
	<g>
		<polygon class="st7" points="199.3,57.4 201.1,57.4 201.1,54.7 205.4,54.7 205.4,69 201.1,69 201.1,64.9 204,64.9 204,58.9 
			191.9,58.9 191.9,64.9 194.8,64.9 194.8,69 190.4,69 190.4,54.7 194.8,54.7 194.8,57.4 196.7,57.4 196.7,52.8 188.7,52.8 
			188.7,70.9 196.7,70.9 196.7,63.1 193.8,63.1 193.8,60.8 202,60.8 202,63.1 199.3,63.1 199.3,70.9 207.2,70.9 207.2,52.8 
			199.3,52.8 		"/>
	</g>
</g>
<g>
	<g>
		<path class="st8" d="M73,48.2"/>
	</g>
</g>
<g>
	<g>
		<path class="st0" d="M317.1,163.5C317.1,163.5,317.1,163.5,317.1,163.5c-0.3,0-0.5-0.2-0.5-0.5l0.1-10l-10.9,0.2c0,0,0,0,0,0
			c-0.3,0-0.5-0.2-0.5-0.5c0-0.3,0.2-0.5,0.5-0.5l11.9-0.3l-0.2,11C317.6,163.3,317.4,163.5,317.1,163.5z"/>
	</g>
</g>
<g>
	<g>
		<g>
			<path class="st0" d="M318.3,45.7c-0.1,0-0.3-0.1-0.4-0.2C290.8,17.7,245.1,1,195.6,1c-49.4,0-95.2,16.6-122.3,44.5
				c-0.2,0.2-0.5,0.2-0.7,0c-0.2-0.2-0.2-0.5,0-0.7C99.9,16.8,145.9,0,195.6,0c49.7,0,95.7,16.8,123,44.9c0.2,0.2,0.2,0.5,0,0.7
				C318.5,45.7,318.4,45.7,318.3,45.7z"/>
		</g>
	</g>
	<g>
		<g>
			<path class="st0" d="M194.5,198c-49.7,0-95.7-16.8-123-44.9c-0.2-0.2-0.2-0.5,0-0.7c0.2-0.2,0.5-0.2,0.7,0
				C99.3,180.3,145,197,194.5,197c49.4,0,95.2-16.6,122.3-44.5c0.2-0.2,0.5-0.2,0.7,0c0.2,0.2,0.2,0.5,0,0.7
				C290.2,181.2,244.2,198,194.5,198z"/>
		</g>
	</g>
</g>
<g>
	<g>
		<path class="st9" d="M325.1,149.8"/>
	</g>
</g>
<g>
	<g>
		<polygon class="st10" points="249.3,138.4 147,138.4 135,124 147,109.4 249.3,109.4 260.9,123.9 		"/>
	</g>
	<g>
		<path class="st11" d="M249.6,138.9H146.7L134.4,124l12.4-15.1h102.8l12,15L249.6,138.9z M147.2,137.9h101.9l11.2-14l-11.2-14
			H147.2L135.7,124L147.2,137.9z"/>
	</g>
</g>
<g>
	<g>
		<path class="st0" d="M171.4,118.9h9.1v0.6h-8.5v7.9h8.7v0.6h-9.2V118.9z M173.2,120.8l0.4-0.4c0.2,0.2,0.6,0.6,1.1,1
			c0.8,0.7,1.3,1.2,1.7,1.5c0.8-0.9,1.6-1.8,2.3-2.8l0.5,0.3c-0.7,1-1.5,1.9-2.4,2.8c0.8,0.7,1.7,1.6,2.8,2.6l-0.5,0.5
			c-0.8-0.8-1.7-1.7-2.8-2.7c-1,1-2.1,2-3.2,2.8c-0.2-0.2-0.3-0.4-0.5-0.5c1.1-0.8,2.2-1.7,3.2-2.7
			C175,122.5,174.1,121.6,173.2,120.8z"/>
	</g>
	<g>
		<path class="st0" d="M181.7,126.7l-0.2-0.6c0.4-0.1,0.9-0.2,1.6-0.4v-4.3h-1.5v-0.5h1.5v-2.7h0.6v2.7h1.4v0.5h-1.4v4.2
			c0.2-0.1,0.5-0.1,0.9-0.2c0.3-0.1,0.5-0.1,0.7-0.2c0,0.2,0,0.4,0,0.6C184,126.1,182.8,126.4,181.7,126.7z M185,123.5h2.5
			c0.1-0.5,0.1-1.5,0.1-2.9h-2V120h2c0-0.2,0-0.5,0-0.7c0-0.1,0-0.3,0-0.5c0-0.1,0-0.4,0-0.7h0.6c0,0.5,0,0.9,0,1.1
			c0,0.3,0,0.5,0,0.8h2.7v3.4h1.1v0.5h-3.6c0.6,1.7,1.9,3,3.6,3.8c-0.1,0.2-0.3,0.4-0.4,0.6c-1.9-1-3.2-2.4-3.7-4.2
			c-0.3,1.6-1.3,3-3.2,4.3c-0.1-0.2-0.3-0.3-0.5-0.5c1.9-1.2,2.9-2.5,3.2-4H185V123.5z M190.3,120.6h-2.1c0,1.2-0.1,2.2-0.1,2.9h2.2
			V120.6z"/>
	</g>
	<g>
		<path class="st0" d="M192.6,121.7c0.7-1,1.2-2.2,1.5-3.6l0.6,0.1c-0.2,0.7-0.4,1.2-0.5,1.6h1.9v0.5H194c-0.2,0.5-0.5,1.1-0.9,1.8
			C192.9,121.9,192.8,121.8,192.6,121.7z M192.7,123.9h1.4v-1.6h-0.7v-0.5h2.3v0.5h-1.1v1.6h1.4v0.5h-1.4v2.6l1.3-1.2l0.1,0.6
			c-0.5,0.5-1,0.9-1.4,1.3c-0.1,0.1-0.3,0.3-0.4,0.5l-0.4-0.5c0.1-0.2,0.2-0.3,0.2-0.4c0-0.1,0.1-0.3,0.1-0.5v-2.4h-1.4V123.9z
			 M200.1,127.6c0.5,0,1,0,1.6,0c0.5,0,1,0,1.6,0c-0.1,0.2-0.2,0.4-0.2,0.6c-0.8,0-1.8,0-3,0c-1.1,0-2-0.4-2.6-1.3
			c-0.4,0.4-0.7,0.9-1.1,1.5l-0.5-0.4c0.3-0.3,0.6-0.8,1.2-1.4c0.1-0.1,0.1-0.1,0.2-0.2v-3.9h-0.9V122h1.4v4.4
			C198.2,127.2,199,127.6,200.1,127.6z M197.3,120.6c-0.2-0.6-0.4-1.3-0.8-2.2l0.5-0.2c0.4,0.9,0.6,1.6,0.8,2.2L197.3,120.6z
			 M198.4,125h2.4v-1.6h-2v-0.6c0.3-0.8,0.6-1.6,0.9-2.6h-1.1v-0.5h1.3c0.1-0.5,0.3-1,0.4-1.5l0.6,0.1c-0.2,0.6-0.3,1-0.4,1.4h2.6
			v0.5h-2.8c-0.3,1-0.6,1.9-1,2.7h1.5v-2h0.5v2h1.5v0.5h-1.5v1.6h1.8v0.5h-1.8v1.7h-0.5v-1.7h-2.4V125z"/>
	</g>
	<g>
		<path class="st0" d="M205.8,118l0.6,0.1c-0.2,0.4-0.4,0.7-0.5,0.9h3.3v0.5h-3.6c-0.4,0.5-0.8,1-1.3,1.4c-0.1-0.1-0.2-0.2-0.4-0.4
			C204.7,119.8,205.4,119,205.8,118z M208.6,120.5l0.5-0.2c0,0,0,0.1,0.1,0.1c0.2,0.4,0.3,0.6,0.4,0.8h4.3v1.5h-0.6v-1h-8.5v1h-0.6
			v-1.5h4.7C208.8,121,208.7,120.8,208.6,120.5z M205.5,122.7h7.1v2.1h-6.5v1h6.7v2.7h-0.6v-0.4h-6.2v0.5h-0.6V122.7z M206.1,123.2
			v1.1h5.9v-1.1H206.1z M212.3,126.3h-6.2v1.3h6.2V126.3z M207.1,120.9c-0.3-0.4-0.6-0.7-0.9-1l0.4-0.3c0.3,0.3,0.7,0.6,0.9,0.9
			L207.1,120.9z M210.7,118l0.6,0.1c-0.1,0.3-0.3,0.6-0.4,0.9h3.5v0.5h-3.8c-0.2,0.3-0.5,0.6-0.8,1c-0.1-0.1-0.3-0.2-0.5-0.4
			C209.9,119.5,210.4,118.8,210.7,118z M212.5,120.6l-0.4,0.3c-0.3-0.3-0.6-0.7-0.9-1l0.4-0.3C211.9,120,212.2,120.3,212.5,120.6z"
			/>
	</g>
	<g>
		<path class="st0" d="M215.1,122.7h1.4v-3.1H215v-0.5h3.5v0.5H217v3.1h1.4v0.5H217v3.3c0.5-0.1,0.9-0.2,1.4-0.3c0,0.2,0,0.4,0,0.6
			c-1.2,0.2-2.4,0.5-3.5,0.8l-0.1-0.6c0.6-0.1,1.1-0.2,1.6-0.3v-3.4h-1.4V122.7z M218.9,125.3h2.8v-1.5h-2.5v-5.1h5.6v5.1h-2.5v1.5
			h2.8v0.5h-2.8v1.8h3.2v0.5h-7.2v-0.5h3.4v-1.8h-2.8V125.3z M219.7,119.2v1.8h2v-1.8H219.7z M219.7,121.5v1.8h2v-1.8H219.7z
			 M224.2,119.2h-2v1.8h2V119.2z M222.2,121.5v1.8h2v-1.8H222.2z"/>
	</g>
</g>
<g>
	<g>
		<path class="st0" d="M193.9,91.4v-4h-4.8v4h-0.6V83h0.6v3.8h4.8V83h0.6v8.4H193.9z"/>
	</g>
	<g>
		<path class="st0" d="M199,91.6c-0.9,0-1.6-0.3-2.1-0.9c-0.5-0.6-0.8-1.3-0.8-2.2c0-1,0.3-1.8,0.8-2.3c0.5-0.6,1.2-0.8,2.1-0.8
			c0.9,0,1.5,0.3,2,0.8c0.5,0.6,0.7,1.3,0.7,2.3c0,0.9-0.3,1.7-0.8,2.3C200.5,91.3,199.8,91.6,199,91.6z M199,85.8
			c-0.7,0-1.3,0.2-1.7,0.7c-0.4,0.5-0.6,1.1-0.6,2c0,0.8,0.2,1.4,0.6,1.9c0.4,0.5,1,0.7,1.7,0.7c0.7,0,1.3-0.2,1.7-0.7
			c0.4-0.5,0.6-1.1,0.6-2c0-0.9-0.2-1.5-0.6-2C200.3,86,199.7,85.8,199,85.8z"/>
	</g>
	<g>
		<path class="st0" d="M205.7,83.6v7.9h-0.6v-7.9h-2.4V83h5.4v0.5H205.7z"/>
	</g>
</g>
</svg>
