<?xml version="1.0" encoding="utf-8"?>
<!-- Generator: Adobe Illustrator 22.1.0, SVG Export Plug-In . SVG Version: 6.00 Build 0)  -->
<svg version="1.1" id="图层_1" xmlns="http://www.w3.org/2000/svg" xmlns:xlink="http://www.w3.org/1999/xlink" x="0px" y="0px"
	 viewBox="0 0 298 298" style="enable-background:new 0 0 298 298;" xml:space="preserve">
<style type="text/css">
	.st0{fill:none;stroke:#70DBCB;}
	.st1{fill:#00A99E;}
	.st2{fill:#FFFFFF;}
	.st3{fill:#F5F5F5;}
	.st4{fill:#E6E7E8;}
	.st5{fill:#FCFCFC;}
	.st6{fill:#F2F2F2;}
	.st7{enable-background:new    ;}
	.st8{fill:#58595B;}
	.st9{fill:#70DBCB;}
</style>
<g id="形状_2_3_">
	<path class="st0" d="M187.6,161"/>
</g>
<g id="形状_2_拷贝_3_">
	<path class="st0" d="M187.6,170.4"/>
</g>
<g>
	<g id="椭圆_12_10_">
		<circle class="st1" cx="56.8" cy="92.3" r="9.1"/>
	</g>
	<g id="XMLID_9_">
		<polygon class="st2" points="57.4,90.1 58.3,90.1 58.3,88.8 60.5,88.8 60.5,95.9 58.3,95.9 58.3,93.9 59.8,93.9 59.8,90.9 
			53.8,90.9 53.8,93.9 55.2,93.9 55.2,95.9 53,95.9 53,88.8 55.2,88.8 55.2,90.1 56.2,90.1 56.2,87.8 52.2,87.8 52.2,96.9 
			56.2,96.9 56.2,93 54.7,93 54.7,91.8 58.8,91.8 58.8,93 57.4,93 57.4,96.9 61.4,96.9 61.4,87.8 57.4,87.8 		"/>
	</g>
</g>
<g>
	<g id="椭圆_12_7_">
		<circle class="st1" cx="150.1" cy="252.3" r="9.1"/>
	</g>
	<g id="XMLID_8_">
		<polygon class="st2" points="150.7,250.1 151.6,250.1 151.6,248.8 153.8,248.8 153.8,255.9 151.6,255.9 151.6,253.8 153.1,253.8 
			153.1,250.8 147.1,250.8 147.1,253.8 148.5,253.8 148.5,255.9 146.3,255.9 146.3,248.8 148.5,248.8 148.5,250.1 149.5,250.1 
			149.5,247.8 145.5,247.8 145.5,256.8 149.5,256.8 149.5,252.9 148,252.9 148,251.8 152.1,251.8 152.1,252.9 150.7,252.9 
			150.7,256.8 154.7,256.8 154.7,247.8 150.7,247.8 		"/>
	</g>
</g>
<g>
	<g id="椭圆_12_5_">
		<circle class="st1" cx="240.7" cy="83.2" r="9.1"/>
	</g>
	<g id="XMLID_6_">
		<polygon class="st2" points="241.4,81 242.3,81 242.3,79.7 244.5,79.7 244.5,86.9 242.3,86.9 242.3,84.8 243.8,84.8 243.8,81.8 
			237.7,81.8 237.7,84.8 239.2,84.8 239.2,86.9 237,86.9 237,79.7 239.2,79.7 239.2,81 240.1,81 240.1,78.8 236.1,78.8 236.1,87.8 
			240.1,87.8 240.1,83.9 238.7,83.9 238.7,82.7 242.8,82.7 242.8,83.9 241.4,83.9 241.4,87.8 245.4,87.8 245.4,78.8 241.4,78.8 		
			"/>
	</g>
</g>
<g>
	<g id="圆角矩形_1_拷贝_9_">
		<path class="st3" d="M109.9,67.9l38.9-10c1.7-0.3,3.3-0.3,5,0.2l32.7,10.6c1.5,0.5,1.5,1.2,0.4,1.7l-34.2,12.4
			c-2,0.6-4.1,0.6-6.1,0.1l-37.5-13.1C107.6,69.2,108,68.4,109.9,67.9z"/>
	</g>
	<g id="矩形_46_8_">
		<path class="st4" d="M108.9,48.1l43.1,15.2v14.3l-43.1-15.2V48.1L108.9,48.1z"/>
	</g>
	<g id="矩形_46_拷贝_8_">
		<path class="st4" d="M188.9,49l-37.6,14.3v14.3l37.6-14.3V49z"/>
	</g>
	<g id="圆角矩形_1_8_">
		<path class="st5" d="M110.7,47.2l38.9-10c1.7-0.3,3.3-0.3,5,0.2l32.7,10.6c1.5,0.5,1.5,1.2,0.4,1.7l-34.1,12.5
			c-2,0.6-4.1,0.6-6.1,0.1L110.1,49C108.4,48.4,108.7,47.6,110.7,47.2z"/>
	</g>
	<g id="椭圆_11_7_">
		<ellipse class="st6" cx="150.9" cy="46.9" rx="17.9" ry="3.6"/>
	</g>
	<g class="st7">
		<g>
			<path class="st8" d="M168.4,39.9c0.8,0,1.3-0.5,1.3-1.3V17.1c0-0.8-0.5-1.3-1.3-1.3h-8.1v-0.9c0-0.5-0.2-0.9-0.8-1.2l-8.1-4.1V7
				l5.6-1.8c0.5-0.2,0.9-0.6,0.9-1.3c0-0.5-0.4-1-0.9-1.3l-6.4-2.1c-0.4-0.2-0.9-0.1-1.2,0.2c-0.3,0.2-0.5,0.6-0.5,1v7.7l-7.9,4
				c-0.5,0.2-0.8,0.6-0.8,1.2v0.9h-8.3c-0.8,0-1.3,0.5-1.3,1.3v21.5c0,0.8,0.5,1.3,1.3,1.3L168.4,39.9L168.4,39.9L168.4,39.9z
				 M151.5,4.6V3.4l2.8,0.8L151.5,4.6z M133.3,18.3h6.9v19h-6.9V18.3L133.3,18.3z M142.9,15.6l7.4-3.7l7.4,3.7v21.6H143L142.9,15.6
				L142.9,15.6z M166.9,37.2h-6.8v-19h6.8V37.2z"/>
		</g>
		<g>
			<path class="st8" d="M148.1,17.8H146c-0.8,0-1.3,0.5-1.3,1.3s0.5,1.3,1.3,1.3h2.1c0.8,0,1.3-0.5,1.3-1.3
				C149.6,18.4,148.8,17.8,148.1,17.8z"/>
		</g>
		<g>
			<path class="st8" d="M135.9,22.6h2.1c0.8,0,1.3-0.5,1.3-1.3s-0.5-1.3-1.3-1.3h-2.1c-0.8,0-1.3,0.5-1.3,1.3
				C134.5,22,135.1,22.6,135.9,22.6z"/>
		</g>
		<g>
			<path class="st8" d="M138.1,24.4h-2.1c-0.8,0-1.3,0.5-1.3,1.3s0.5,1.3,1.3,1.3h2.1c0.8,0,1.3-0.5,1.3-1.3S138.7,24.4,138.1,24.4z
				"/>
		</g>
		<g>
			<path class="st8" d="M138.1,28.7h-2.1c-0.8,0-1.3,0.5-1.3,1.3s0.5,1.3,1.3,1.3h2.1c0.8,0,1.3-0.5,1.3-1.3S138.7,28.7,138.1,28.7z
				"/>
		</g>
		<g>
			<path class="st8" d="M162.5,22.6h2.1c0.8,0,1.3-0.5,1.3-1.3s-0.5-1.3-1.3-1.3h-2.1c-0.8,0-1.3,0.5-1.3,1.3S161.9,22.6,162.5,22.6
				z"/>
		</g>
		<g>
			<path class="st8" d="M162.5,26.9h2.1c0.8,0,1.3-0.5,1.3-1.3c0-0.8-0.5-1.3-1.3-1.3h-2.1c-0.8,0-1.3,0.5-1.3,1.3
				C161.2,26.3,161.9,26.9,162.5,26.9z"/>
		</g>
		<g>
			<path class="st8" d="M164.7,28.7h-2.1c-0.8,0-1.3,0.5-1.3,1.3s0.5,1.3,1.3,1.3h2.1c0.8,0,1.3-0.5,1.3-1.3
				C166,29.3,165.5,28.7,164.7,28.7z"/>
		</g>
		<g>
			<path class="st8" d="M154.5,17.8h-2.1c-0.8,0-1.3,0.5-1.3,1.3s0.5,1.3,1.3,1.3h2.1c0.8,0,1.3-0.5,1.3-1.3
				C155.9,18.4,155.2,17.8,154.5,17.8z"/>
		</g>
		<g>
			<path class="st8" d="M148.1,22.1H146c-0.8,0-1.3,0.5-1.3,1.3s0.5,1.3,1.3,1.3h2.1c0.8,0,1.3-0.5,1.3-1.3
				C149.6,22.7,148.8,22.1,148.1,22.1z"/>
		</g>
		<g>
			<path class="st8" d="M154.5,22.1h-2.1c-0.8,0-1.3,0.5-1.3,1.3s0.5,1.3,1.3,1.3h2.1c0.8,0,1.3-0.5,1.3-1.3
				C155.9,22.7,155.2,22.1,154.5,22.1z"/>
		</g>
		<g>
			<path class="st8" d="M148.1,26.5H146c-0.8,0-1.3,0.5-1.3,1.3c0,0.8,0.5,1.3,1.3,1.3h2.1c0.8,0,1.3-0.5,1.3-1.3
				S148.8,26.5,148.1,26.5z"/>
		</g>
		<g>
			<path class="st8" d="M154.5,26.5h-2.1c-0.8,0-1.3,0.5-1.3,1.3c0,0.8,0.5,1.3,1.3,1.3h2.1c0.8,0,1.3-0.5,1.3-1.3
				C155.9,27,155.2,26.5,154.5,26.5z"/>
		</g>
	</g>
	<g id="矩形_48_5_">
		<line class="st9" x1="188.9" y1="56.7" x2="188.9" y2="55.7"/>
	</g>
</g>
<g>
	<g id="圆角矩形_1_拷贝_8_">
		<path class="st3" d="M111.3,176.8l38.9-10c1.7-0.3,3.3-0.3,5,0.2l32.7,10.6c1.5,0.5,1.5,1.2,0.4,1.7l-34.1,12.5
			c-2,0.6-4.1,0.6-6.1,0.1l-37.5-13.1C109,178.2,109.3,177.3,111.3,176.8z"/>
	</g>
	<g id="矩形_46_7_">
		<path class="st4" d="M108,157.1l43.1,15.2v14.3L108,171.4V157.1z"/>
	</g>
	<g id="矩形_46_拷贝_7_">
		<path class="st4" d="M187.8,157.9l-37.6,14.3v14.3l37.6-14.3V157.9z"/>
	</g>
	<g id="圆角矩形_1_7_">
		<path class="st5" d="M109.8,156l38.9-10c1.7-0.3,3.3-0.3,5,0.2l32.7,10.6c1.5,0.5,1.5,1.2,0.4,1.7l-34.1,12.5
			c-2,0.6-4.1,0.6-6.1,0.1l-37.5-13.2C107.4,157.3,107.7,156.6,109.8,156z"/>
	</g>
	<g id="椭圆_11_5_">
		<ellipse class="st6" cx="147.8" cy="158" rx="17.9" ry="1.4"/>
	</g>
	<g>
		<g>
			<g>
				<path class="st8" d="M148.1,136.4c-2.6,0-4.6-2.1-4.6-4.6c0-2.6,2.1-4.6,4.6-4.6c2.6,0,4.6,2.1,4.6,4.6
					C152.8,134.3,150.7,136.4,148.1,136.4z"/>
			</g>
			<g>
				<path class="st8" d="M138.2,145c0.4-3.4,3.2-6.2,6.8-6.2h6.2c3.6,0,6.5,2.6,6.8,6.2l0,0v1c0,0.9-0.7,1.6-1.6,1.6h-16.6
					c-0.9,0-1.6-0.7-1.6-1.6v-1H138.2z"/>
			</g>
		</g>
		<g>
			<g>
				<path class="st8" d="M139.1,135.6c-1.7,0-3.1-1.4-3.1-3.1c0-1.7,1.4-3.1,3.1-3.1s3.1,1.4,3.1,3.1
					C142.2,134.1,140.8,135.6,139.1,135.6z"/>
			</g>
			<g>
				<path class="st8" d="M130.5,144c0.2-3,2.8-5.4,5.9-5.4h5c-2.3,1.2-3.9,3.6-4.2,6.4l0,0v1.2v0.1h-5.4c-0.7,0-1.5-0.6-1.5-1.5
					L130.5,144L130.5,144z"/>
			</g>
		</g>
		<g>
			<g>
				<path class="st8" d="M156.8,135.9c-1.8,0-3.4-1.5-3.4-3.4c0-1.8,1.5-3.4,3.4-3.4c1.8,0,3.4,1.5,3.4,3.4
					C160.1,134.4,158.6,135.9,156.8,135.9z"/>
			</g>
			<g>
				<path class="st8" d="M159,146.2V145l0,0c-0.2-2.8-1.8-5-4.2-6.4h4.6c3.1,0,5.7,2.3,5.9,5.4l0,0v0.9c0,0.7-0.6,1.5-1.5,1.5h-4.9
					C159,146.3,159,146.2,159,146.2z"/>
			</g>
		</g>
	</g>
	<g id="椭圆_12_4_">
		<circle class="st1" cx="148" cy="114.2" r="9.1"/>
	</g>
	<g id="XMLID_5_">
		<polygon class="st2" points="148.6,112 149.5,112 149.5,110.7 151.7,110.7 151.7,117.8 149.5,117.8 149.5,115.7 151,115.7 
			151,112.7 145,112.7 145,115.7 146.4,115.7 146.4,117.8 144.2,117.8 144.2,110.7 146.4,110.7 146.4,112 147.4,112 147.4,109.7 
			143.4,109.7 143.4,118.7 147.4,118.7 147.4,114.8 145.9,114.8 145.9,113.6 150,113.6 150,114.8 148.6,114.8 148.6,118.7 
			152.6,118.7 152.6,109.7 148.6,109.7 		"/>
	</g>
	<g id="矩形_48_3_">
		<line class="st9" x1="107.6" y1="164.3" x2="107.6" y2="165.2"/>
	</g>
</g>
<g id="形状_2_拷贝_1_">
	<path class="st0" d="M78.6,200.2"/>
</g>
<g>
	<g id="圆角矩形_1_拷贝_7_">
		<path class="st3" d="M78.5,209.6L41,222.7c-1.9,0.6-4.1,0.6-6.1,0L0.8,210.1c-1.1-0.3-1-1.1,0.3-1.8l32.7-10.5
			c1.6-0.3,3.3-0.3,4.9-0.2l39.1,10C79.9,208.1,80.2,208.9,78.5,209.6z"/>
	</g>
	<g id="矩形_46_5_">
		<path class="st4" d="M80.7,202.4l-41.8,15v-6.1l41.8-14.5V202.4z"/>
	</g>
	<g id="矩形_46_拷贝_5_">
		<path class="st4" d="M1,203l38.1,14.4v-6.1L1,197V203z"/>
	</g>
	<g id="圆角矩形_1_5_">
		<path class="st5" d="M79.6,197l-37.5,13.1c-1.9,0.6-4.1,0.6-6.1,0L1.9,197.5c-1.1-0.3-1-1.1,0.3-1.8l32.7-10.5
			c1.6-0.3,3.3-0.3,4.9-0.2l39.1,10C80.9,195.4,81.3,196.5,79.6,197z"/>
	</g>
	<g id="椭圆_11_4_">
		<ellipse class="st6" cx="38.8" cy="194.9" rx="18" ry="3.5"/>
	</g>
</g>
<g>
	<g>
		<polygon class="st8" points="25.4,170.3 42,157.3 58.6,169.7 59.8,167 42.1,153.8 24.1,167.9 		"/>
	</g>
	<g>
		<rect x="50.6" y="156.4" class="st8" width="3.4" height="6.5"/>
	</g>
	<g>
		<path class="st8" d="M42.1,160.3l-13.8,10.7v15.6h6.6v-10.9h6.3v10.9h15.2v-15.9L42.1,160.3z M51.3,176.2h-4.2V172h4.2V176.2z"/>
	</g>
</g>
<g>
	<g id="形状_2_2_">
		<path class="st0" d="M217.5,199.4"/>
	</g>
	<g id="形状_2_1_">
		<path class="st0" d="M294.5,199.4"/>
	</g>
	<g>
		<g id="圆角矩形_1_拷贝_5_">
			<path class="st3" d="M294.4,209.6l-37.5,13.1c-1.9,0.6-4.1,0.6-6.1,0l-34.1-12.6c-1.1-0.3-1-1.1,0.3-1.8l32.7-10.5
				c1.6-0.3,3.3-0.3,4.9-0.2l39.1,10C295.8,208.1,296.1,208.9,294.4,209.6z"/>
		</g>
		<g id="矩形_46_4_">
			<path class="st4" d="M296.6,202.4l-41.8,15v-6.1l41.8-14.5V202.4z"/>
		</g>
		<g id="矩形_46_拷贝_4_">
			<path class="st4" d="M216.9,203l38.1,14.4v-6.1L216.9,197V203z"/>
		</g>
		<g id="圆角矩形_1_4_">
			<path class="st5" d="M295.5,197L258,210.1c-1.9,0.6-4.1,0.6-6.1,0l-34.1-12.6c-1.1-0.3-1-1.1,0.3-1.8l32.7-10.5
				c1.6-0.3,3.3-0.3,4.9-0.2l39.1,10C296.8,195.4,297.3,196.5,295.5,197z"/>
		</g>
		<g id="椭圆_11_3_">
			<ellipse class="st6" cx="254.7" cy="194.9" rx="18" ry="3.5"/>
		</g>
	</g>
	<g>
		<path class="st8" d="M269.2,163.3l-12.5,9.7v14.2h6v-9.9h5.7v9.9h13.8v-14.5L269.2,163.3z M277.6,177.7h-3.8v-3.8h3.8V177.7z"/>
	</g>
	<g>
		<path class="st8" d="M267.9,153c1.4-0.8,2-2.6,1.2-4c-0.4-0.7-1.1-1.3-1.9-1.5v-1.6h1.5c0.4,0,0.7-0.3,0.7-0.7v-10.4h5.9
			c0.4,0,0.7-0.3,0.7-0.7v-3c0,0,0-0.1,0-0.1c0-0.1,0-0.1,0-0.2c0,0,0-0.1-0.1-0.1c-0.1-0.1-0.2-0.2-0.3-0.3c0,0-0.1,0-0.1-0.1
			c0,0,0,0-0.1,0l-28.1-6.7c-0.1,0-0.1,0-0.2,0h-3c-0.1,0-0.2,0-0.3,0.1c0,0,0,0-0.1,0c0,0,0,0-0.1,0l-11.8,6.7c0,0-0.1,0.1-0.1,0.1
			c0,0,0,0-0.1,0.1c-0.1,0.1-0.1,0.1-0.1,0.2v0c0,0.1,0,0.2-0.1,0.3c0,0,0,0,0,0v3c0,0.4,0.3,0.7,0.7,0.7h10.4v32.8l-2.7,2.7
			c-0.1,0.1-0.2,0.3-0.2,0.5v11.8h-1.5v4.4h14.8v-4.4h-1.5v-11.8c0-0.2-0.1-0.4-0.2-0.5l-2.7-2.7v-32.8h14.8v10.4
			c0,0.4,0.3,0.7,0.7,0.7h1.5v2.2c0,0.4,0.3,0.7,0.7,0.7c0.8,0,1.5,0.7,1.5,1.5s-0.7,1.5-1.5,1.5c-0.8,0-1.5-0.7-1.5-1.5v-0.7h-1.5
			v0.7c0,1.1,0.6,2.1,1.5,2.6H267.9z M269.4,131.9h5.2v1.5h-5.2V131.9z M267.9,141.5h-3v-6.7h3V141.5z M267.9,133.3h-3v-1.5h3V133.3
			z M245,125.2h1.5v5.2H245V125.2z M244.3,131.9h3v1.2l-0.3,0.3h-2.7V131.9z M247.2,135.1v24.3l-2.7-2.7L247.2,135.1z M244.3,134.8
			h2.5l-2.5,20.2V134.8z M244.3,158.6l2.7,2.7l-2.7,2.7V158.6z M247.2,163v4.9v0.4l-2.7-2.7L247.2,163z M244.3,167.9v-0.4l2.7,2.7
			l-2.7,2.7V167.9z M247.2,171.9v5.3l-2.7-2.7L247.2,171.9z M244.3,176.4l2.7,2.7l-2.7,2.7V176.4z M247.2,180.8v1.9h-1.9
			L247.2,180.8z M243.5,125.7v4.7h-8.3L243.5,125.7z M233.1,133.3v-1.5h9.6v1.5H233.1z M241.3,171.2l1.5-1.5v13h-1.5V171.2z
			 M251.7,184.2v1.5h-11.8v-1.5H251.7z M250.2,171.2v11.5h-1.5v-13L250.2,171.2z M263.5,133.3h-14.8v-1.5h14.8V133.3z M248,130.4v-5
			l21.1,5h-0.3H248z M265,144.5V143h3v1.5H265z"/>
	</g>
</g>
<g>
	<path class="st1" d="M163.9,252.8l-0.1-1c24.6-3,47.6-14.6,64.8-32.6l0.7,0.7C212,238.1,188.8,249.7,163.9,252.8z"/>
</g>
<g>
	<path class="st1" d="M255.3,117.7c-1.7-6.6-4-13.1-6.9-19.3l0.9-0.4c2.9,6.2,5.3,12.8,7,19.5L255.3,117.7z"/>
</g>
<g>
	<path class="st1" d="M231.3,72.6c-11.6-13-26.2-23.1-42.4-29.3l0.4-0.9c16.3,6.2,31.1,16.4,42.8,29.5L231.3,72.6z"/>
</g>
<g>
	<path class="st1" d="M64.3,79.1l-0.8-0.6C75.3,63,90.9,51,108.7,43.6l0.4,0.9C91.4,51.8,76,63.8,64.3,79.1z"/>
</g>
<g>
	<path class="st1" d="M42.3,144.5h-1c0-13.6,2.5-27,7.4-39.6l0.9,0.4C44.8,117.8,42.3,131,42.3,144.5z"/>
</g>
<g>
	<path class="st1" d="M134.6,252.5c-24.2-3.5-46.8-15.3-63.6-33.2l0.7-0.7c16.7,17.7,39.1,29.4,63.1,32.9L134.6,252.5z"/>
</g>
<g>
	<path d="M31.6,293.4c-1,0.4-2,0.6-3.1,0.6c-1.6,0-3-0.6-4-1.7c-1-1.1-1.6-2.6-1.6-4.3c0-2,0.6-3.5,1.7-4.7c1.1-1.2,2.6-1.8,4.3-1.8
		c0.9,0,1.8,0.2,2.7,0.5v0.9c-0.8-0.4-1.7-0.6-2.7-0.6c-1.5,0-2.7,0.5-3.7,1.5c-0.9,1-1.4,2.4-1.4,4.1c0,1.6,0.5,2.9,1.4,3.9
		s2.1,1.4,3.4,1.4c1.1,0,2.1-0.2,3-0.6V293.4z"/>
	<path d="M37.6,294c-1.3,0-2.2-0.4-3-1.2c-0.7-0.8-1.1-1.9-1.1-3.2c0-1.4,0.4-2.6,1.1-3.4s1.8-1.2,3-1.2c1.2,0,2.2,0.4,2.9,1.2
		s1.1,1.9,1.1,3.3c0,1.3-0.4,2.4-1.1,3.3C39.8,293.6,38.8,294,37.6,294z M37.6,285.7c-1,0-1.8,0.3-2.4,1c-0.6,0.7-0.9,1.6-0.9,2.9
		c0,1.1,0.3,2,0.9,2.7s1.4,1,2.4,1c1,0,1.8-0.3,2.4-1c0.6-0.7,0.8-1.6,0.8-2.8c0-1.2-0.3-2.2-0.8-2.8
		C39.4,286,38.6,285.7,37.6,285.7z"/>
	<path d="M49.6,293.8v-5c0-2.1-0.7-3.1-2.2-3.1c-0.8,0-1.5,0.3-2,0.9c-0.5,0.6-0.8,1.4-0.8,2.3v4.9h-0.8v-8.6h0.8v1.6h0
		c0.6-1.2,1.6-1.8,2.9-1.8c0.9,0,1.6,0.3,2.1,0.9c0.5,0.6,0.7,1.5,0.7,2.7v5.2H49.6z"/>
	<path d="M52.5,293.4v-0.9c0.3,0.2,0.6,0.4,1.1,0.6s0.8,0.2,1.1,0.2c1.3,0,2-0.5,2-1.7c0-0.4-0.1-0.7-0.4-1
		c-0.3-0.3-0.8-0.5-1.4-0.8c-0.8-0.4-1.4-0.7-1.7-1.1c-0.3-0.4-0.5-0.9-0.5-1.4c0-0.7,0.3-1.3,0.8-1.7s1.2-0.6,2-0.6
		c0.7,0,1.4,0.2,1.9,0.5v0.9c-0.6-0.4-1.3-0.6-2-0.6c-0.6,0-1,0.1-1.4,0.4s-0.5,0.7-0.5,1.1c0,0.4,0.1,0.7,0.3,1
		c0.2,0.3,0.7,0.5,1.4,0.9c0.9,0.4,1.5,0.8,1.8,1.1c0.3,0.3,0.5,0.8,0.5,1.4c0,0.7-0.3,1.2-0.8,1.7c-0.5,0.4-1.2,0.7-2.1,0.7
		C53.8,294,53.1,293.8,52.5,293.4z"/>
	<path d="M59.9,289.6c0,1.2,0.3,2.1,0.8,2.8c0.5,0.7,1.3,1,2.2,1c1,0,1.9-0.4,2.8-1.1v0.8c-0.9,0.6-1.9,0.9-3,0.9
		c-1.1,0-2-0.4-2.7-1.2c-0.7-0.8-1-1.9-1-3.4c0-1.3,0.4-2.3,1.1-3.2c0.7-0.9,1.6-1.3,2.8-1.3c1.1,0,1.9,0.4,2.5,1.1
		c0.6,0.8,0.9,1.8,0.9,3.1v0.3H59.9z M65.4,288.9c0-1-0.3-1.8-0.7-2.3c-0.4-0.5-1.1-0.8-1.8-0.8c-0.8,0-1.5,0.3-2,0.8
		c-0.5,0.5-0.9,1.3-1,2.3H65.4z"/>
	<path d="M74.2,293.8v-5c0-2.1-0.7-3.1-2.2-3.1c-0.8,0-1.5,0.3-2,0.9c-0.5,0.6-0.8,1.4-0.8,2.3v4.9h-0.8v-8.6h0.8v1.6h0
		c0.6-1.2,1.6-1.8,2.9-1.8c0.9,0,1.6,0.3,2.1,0.9c0.5,0.6,0.7,1.5,0.7,2.7v5.2H74.2z"/>
	<path d="M77.1,293.4v-0.9c0.3,0.2,0.6,0.4,1.1,0.6s0.8,0.2,1.1,0.2c1.3,0,2-0.5,2-1.7c0-0.4-0.1-0.7-0.4-1
		c-0.3-0.3-0.8-0.5-1.4-0.8c-0.8-0.4-1.4-0.7-1.7-1.1c-0.3-0.4-0.5-0.9-0.5-1.4c0-0.7,0.3-1.3,0.8-1.7s1.2-0.6,2-0.6
		c0.7,0,1.4,0.2,1.9,0.5v0.9c-0.6-0.4-1.3-0.6-2-0.6c-0.6,0-1,0.1-1.4,0.4s-0.5,0.7-0.5,1.1c0,0.4,0.1,0.7,0.3,1
		c0.2,0.3,0.7,0.5,1.4,0.9c0.9,0.4,1.5,0.8,1.8,1.1c0.3,0.3,0.5,0.8,0.5,1.4c0,0.7-0.3,1.2-0.8,1.7c-0.5,0.4-1.2,0.7-2.1,0.7
		C78.4,294,77.7,293.8,77.1,293.4z"/>
	<path d="M89.9,293.8v-1.6h0c-0.6,1.2-1.5,1.8-2.8,1.8c-2,0-3.1-1.3-3.1-3.8v-5h0.8v4.8c0,1.2,0.2,2,0.6,2.5c0.4,0.5,1,0.8,1.8,0.8
		c0.8,0,1.4-0.3,1.9-0.9c0.5-0.6,0.7-1.4,0.7-2.4v-4.9h0.8v8.6H89.9z"/>
	<path d="M93,293.4v-0.9c0.3,0.2,0.6,0.4,1.1,0.6s0.8,0.2,1.1,0.2c1.3,0,2-0.5,2-1.7c0-0.4-0.1-0.7-0.4-1c-0.3-0.3-0.8-0.5-1.4-0.8
		c-0.8-0.4-1.4-0.7-1.7-1.1c-0.3-0.4-0.5-0.9-0.5-1.4c0-0.7,0.3-1.3,0.8-1.7s1.2-0.6,2-0.6c0.7,0,1.4,0.2,1.9,0.5v0.9
		c-0.6-0.4-1.3-0.6-2-0.6c-0.6,0-1,0.1-1.4,0.4s-0.5,0.7-0.5,1.1c0,0.4,0.1,0.7,0.3,1c0.2,0.3,0.7,0.5,1.4,0.9
		c0.9,0.4,1.5,0.8,1.8,1.1c0.3,0.3,0.5,0.8,0.5,1.4c0,0.7-0.3,1.2-0.8,1.7c-0.5,0.4-1.2,0.7-2.1,0.7C94.3,294,93.6,293.8,93,293.4z"
		/>
	<path d="M112.8,293.8V288h-6.9v5.8H105v-12.1h0.8v5.5h6.9v-5.5h0.8v12.1H112.8z"/>
	<path d="M120,294c-1.3,0-2.2-0.4-3-1.2c-0.7-0.8-1.1-1.9-1.1-3.2c0-1.4,0.4-2.6,1.1-3.4s1.8-1.2,3-1.2c1.2,0,2.2,0.4,2.9,1.2
		s1.1,1.9,1.1,3.3c0,1.3-0.4,2.4-1.1,3.3C122.2,293.6,121.2,294,120,294z M120,285.7c-1,0-1.8,0.3-2.4,1c-0.6,0.7-0.9,1.6-0.9,2.9
		c0,1.1,0.3,2,0.9,2.7s1.4,1,2.4,1c1,0,1.8-0.3,2.4-1c0.6-0.7,0.8-1.6,0.8-2.8c0-1.2-0.3-2.2-0.8-2.8
		C121.8,286,121.1,285.7,120,285.7z"/>
	<path d="M129.6,282.5v11.3h-0.8v-11.3h-3.5v-0.8h7.8v0.8H129.6z"/>
	<path d="M143.5,281.9c-0.2-0.2-0.5-0.2-0.9-0.2c-1.1,0-1.6,0.7-1.6,2.1v1.4h2.3v0.7h-2.3v7.9h-0.8v-7.9h-1.5v-0.7h1.5v-1.5
		c0-0.9,0.2-1.6,0.7-2.1s1-0.7,1.7-0.7c0.4,0,0.7,0.1,0.9,0.2V281.9z"/>
	<path d="M150.1,293.8v-1.6h0c-0.6,1.2-1.5,1.8-2.8,1.8c-2,0-3.1-1.3-3.1-3.8v-5h0.8v4.8c0,1.2,0.2,2,0.6,2.5c0.4,0.5,1,0.8,1.8,0.8
		c0.8,0,1.4-0.3,1.9-0.9c0.5-0.6,0.7-1.4,0.7-2.4v-4.9h0.8v8.6H150.1z"/>
	<path d="M159.5,293.8v-5c0-2.1-0.7-3.1-2.2-3.1c-0.8,0-1.5,0.3-2,0.9c-0.5,0.6-0.8,1.4-0.8,2.3v4.9h-0.8v-8.6h0.8v1.6h0
		c0.6-1.2,1.6-1.8,2.9-1.8c0.9,0,1.6,0.3,2.1,0.9c0.5,0.6,0.7,1.5,0.7,2.7v5.2H159.5z"/>
	<path d="M168.5,293.4c-0.6,0.4-1.4,0.6-2.3,0.6c-1.2,0-2.1-0.4-2.8-1.2s-1.1-1.9-1.1-3.2c0-1.4,0.4-2.5,1.2-3.4
		c0.8-0.9,1.8-1.3,3.1-1.3c0.7,0,1.3,0.1,1.9,0.4v0.9c-0.6-0.4-1.3-0.6-2-0.6c-1,0-1.8,0.4-2.5,1.1s-0.9,1.7-0.9,2.8
		c0,1.1,0.3,2,0.9,2.7s1.3,1,2.3,1c0.9,0,1.6-0.2,2.3-0.7V293.4z"/>
	<path d="M173.9,293.7c-0.4,0.2-0.8,0.3-1.1,0.3c-1.3,0-1.9-0.8-1.9-2.3v-5.8h-1.5v-0.7h1.5V283c0.1,0,0.2-0.1,0.4-0.1
		c0.1,0,0.3-0.1,0.4-0.1v2.5h2.3v0.7h-2.3v5.7c0,0.6,0.1,1,0.3,1.3c0.2,0.3,0.5,0.4,1,0.4c0.3,0,0.7-0.1,1-0.3V293.7z"/>
	<path d="M176,283c-0.2,0-0.3-0.1-0.4-0.2s-0.2-0.3-0.2-0.5c0-0.2,0.1-0.3,0.2-0.4c0.1-0.1,0.3-0.2,0.4-0.2c0.2,0,0.3,0.1,0.5,0.2
		c0.1,0.1,0.2,0.3,0.2,0.5c0,0.2-0.1,0.3-0.2,0.5S176.2,283,176,283z M175.6,293.8v-8.6h0.8v8.6H175.6z"/>
	<path d="M182.6,294c-1.3,0-2.2-0.4-3-1.2c-0.7-0.8-1.1-1.9-1.1-3.2c0-1.4,0.4-2.6,1.1-3.4c0.8-0.8,1.8-1.2,3-1.2
		c1.2,0,2.2,0.4,2.9,1.2c0.7,0.8,1.1,1.9,1.1,3.3c0,1.3-0.4,2.4-1.1,3.3S183.9,294,182.6,294z M182.7,285.7c-1,0-1.8,0.3-2.4,1
		c-0.6,0.7-0.9,1.6-0.9,2.9c0,1.1,0.3,2,0.9,2.7s1.4,1,2.4,1c1,0,1.8-0.3,2.4-1c0.6-0.7,0.8-1.6,0.8-2.8c0-1.2-0.3-2.2-0.8-2.8
		S183.7,285.7,182.7,285.7z"/>
	<path d="M194.7,293.8v-5c0-2.1-0.7-3.1-2.2-3.1c-0.8,0-1.5,0.3-2,0.9c-0.5,0.6-0.8,1.4-0.8,2.3v4.9h-0.8v-8.6h0.8v1.6h0
		c0.6-1.2,1.6-1.8,2.9-1.8c0.9,0,1.6,0.3,2.1,0.9c0.5,0.6,0.7,1.5,0.7,2.7v5.2H194.7z"/>
	<path d="M203.2,293.8v-1.7h0c-0.3,0.6-0.7,1.1-1.2,1.4c-0.5,0.4-1.1,0.5-1.7,0.5c-0.8,0-1.5-0.2-1.9-0.7c-0.5-0.5-0.7-1-0.7-1.7
		c0-1.5,1-2.4,3-2.7l2.6-0.4c0-1.8-0.7-2.8-2.1-2.8c-0.9,0-1.9,0.4-2.8,1.1v-0.9c0.3-0.3,0.7-0.5,1.3-0.6c0.5-0.2,1.1-0.3,1.5-0.3
		c0.9,0,1.6,0.3,2.1,0.8c0.5,0.6,0.7,1.3,0.7,2.4v5.6H203.2z M200.8,289.5c-0.9,0.1-1.5,0.3-1.9,0.6c-0.4,0.3-0.5,0.8-0.5,1.4
		c0,0.5,0.2,0.9,0.5,1.3s0.8,0.5,1.4,0.5c0.8,0,1.5-0.3,2.1-0.9c0.5-0.6,0.8-1.4,0.8-2.4v-0.8L200.8,289.5z"/>
	<path d="M206.5,293.8v-12.7h0.8v12.7H206.5z"/>
	<path d="M215.6,292.3L215.6,292.3l0,5.5h-0.8v-12.6h0.8v1.8h0c0.3-0.6,0.7-1.1,1.3-1.5c0.6-0.3,1.2-0.5,1.9-0.5
		c1.1,0,1.9,0.4,2.6,1.1c0.6,0.8,0.9,1.8,0.9,3.1c0,1.4-0.4,2.6-1.1,3.5c-0.7,0.9-1.6,1.3-2.8,1.3
		C217.2,294,216.2,293.5,215.6,292.3z M215.6,289.1v1.1c0,0.9,0.3,1.6,0.8,2.2c0.5,0.6,1.3,0.9,2.1,0.9c0.9,0,1.6-0.4,2.1-1.1
		c0.6-0.8,0.8-1.7,0.8-3c0-1.1-0.3-1.9-0.8-2.6s-1.2-0.9-2-0.9c-1,0-1.8,0.3-2.3,1S215.6,288.2,215.6,289.1z"/>
	<path d="M228.5,286c-0.3-0.2-0.6-0.3-0.9-0.3c-0.7,0-1.2,0.3-1.7,1.1c-0.5,0.7-0.7,1.7-0.7,3v4h-0.8v-8.6h0.8v1.9h0
		c0.2-0.7,0.5-1.2,0.9-1.5c0.4-0.4,0.9-0.5,1.5-0.5c0.3,0,0.6,0.1,0.9,0.2V286z"/>
	<path d="M230,289.6c0,1.2,0.3,2.1,0.8,2.8c0.5,0.7,1.3,1,2.2,1c1,0,1.9-0.4,2.8-1.1v0.8c-0.9,0.6-1.9,0.9-3,0.9
		c-1.1,0-2-0.4-2.7-1.2c-0.7-0.8-1-1.9-1-3.4c0-1.3,0.4-2.3,1.1-3.2s1.6-1.3,2.8-1.3c1.1,0,1.9,0.4,2.5,1.1c0.6,0.8,0.9,1.8,0.9,3.1
		v0.3H230z M235.5,288.9c0-1-0.3-1.8-0.7-2.3c-0.4-0.5-1.1-0.8-1.8-0.8c-0.8,0-1.5,0.3-2,0.8c-0.5,0.5-0.9,1.3-1,2.3H235.5z"/>
	<path d="M249.3,293.8v-5.2c0-1.1-0.2-1.8-0.5-2.3c-0.3-0.4-0.9-0.7-1.6-0.7c-0.7,0-1.3,0.3-1.8,0.9c-0.5,0.6-0.7,1.3-0.7,2.2v5
		h-0.8v-5.2c0-1.9-0.7-2.9-2.2-2.9c-0.7,0-1.3,0.3-1.8,0.9c-0.5,0.6-0.7,1.3-0.7,2.3v5h-0.8v-8.6h0.8v1.4h0c0.6-1.1,1.5-1.6,2.6-1.6
		c0.6,0,1.2,0.2,1.6,0.5c0.4,0.4,0.7,0.8,0.9,1.4c0.3-0.6,0.7-1.1,1.2-1.5c0.5-0.3,1-0.5,1.6-0.5c1.9,0,2.8,1.2,2.8,3.5v5.3H249.3z"
		/>
	<path d="M253,283c-0.2,0-0.3-0.1-0.4-0.2s-0.2-0.3-0.2-0.5c0-0.2,0.1-0.3,0.2-0.4c0.1-0.1,0.3-0.2,0.4-0.2c0.2,0,0.3,0.1,0.5,0.2
		c0.1,0.1,0.2,0.3,0.2,0.5c0,0.2-0.1,0.3-0.2,0.5S253.2,283,253,283z M252.6,293.8v-8.6h0.8v8.6H252.6z"/>
	<path d="M261.8,293.8v-1.6h0c-0.6,1.2-1.5,1.8-2.8,1.8c-2,0-3.1-1.3-3.1-3.8v-5h0.8v4.8c0,1.2,0.2,2,0.6,2.5s1,0.8,1.8,0.8
		c0.8,0,1.4-0.3,1.9-0.9c0.5-0.6,0.7-1.4,0.7-2.4v-4.9h0.8v8.6H261.8z"/>
	<path d="M276.2,293.8v-5.2c0-1.1-0.2-1.8-0.5-2.3c-0.3-0.4-0.9-0.7-1.6-0.7c-0.7,0-1.3,0.3-1.8,0.9c-0.5,0.6-0.7,1.3-0.7,2.2v5
		h-0.8v-5.2c0-1.9-0.7-2.9-2.2-2.9c-0.7,0-1.3,0.3-1.8,0.9c-0.5,0.6-0.7,1.3-0.7,2.3v5h-0.8v-8.6h0.8v1.4h0c0.6-1.1,1.5-1.6,2.6-1.6
		c0.6,0,1.2,0.2,1.6,0.5c0.4,0.4,0.7,0.8,0.9,1.4c0.3-0.6,0.7-1.1,1.2-1.5c0.5-0.3,1-0.5,1.6-0.5c1.9,0,2.8,1.2,2.8,3.5v5.3H276.2z"
		/>
</g>
</svg>
