<?xml version="1.0" encoding="utf-8"?>
<!-- Generator: Adobe Illustrator 22.1.0, SVG Export Plug-In . SVG Version: 6.00 Build 0)  -->
<svg version="1.1" id="图层_1" xmlns="http://www.w3.org/2000/svg" xmlns:xlink="http://www.w3.org/1999/xlink" x="0px" y="0px"
	 viewBox="0 0 262 234" style="enable-background:new 0 0 262 234;" xml:space="preserve">
<style type="text/css">
	.st0{fill:#00A99E;}
	.st1{fill:#FFFFFF;}
	.st2{fill:#068474;}
	.st3{fill:#F5F5F5;}
	.st4{stroke:#000000;stroke-width:0.1;stroke-miterlimit:10;}
</style>
<g>
	<g>
		<g>
			<rect x="129.2" class="st0" width="4.1" height="20.1"/>
		</g>
	</g>
</g>
<g>
	<g>
		<g>
			<rect x="119" y="112.8" class="st1" width="4.8" height="9.6"/>
		</g>
	</g>
</g>
<g>
	<g>
		<g>
			<rect x="128.6" y="112.8" class="st1" width="4.8" height="9.6"/>
		</g>
	</g>
</g>
<g>
	<g>
		<g>
			<rect x="138.2" y="112.8" class="st1" width="4.8" height="9.6"/>
		</g>
	</g>
</g>
<g>
	<g>
		<g>
			<rect x="119" y="129.7" class="st1" width="4.8" height="9.6"/>
		</g>
	</g>
</g>
<g>
	<g>
		<g>
			<rect x="128.6" y="129.7" class="st1" width="4.8" height="9.6"/>
		</g>
	</g>
</g>
<g>
	<g>
		<g>
			<rect x="138.2" y="129.7" class="st1" width="4.8" height="9.6"/>
		</g>
	</g>
</g>
<g>
	<g>
		<g>
			<rect x="119" y="146.6" class="st1" width="4.8" height="9.6"/>
		</g>
	</g>
</g>
<g>
	<g>
		<g>
			<rect x="128.6" y="146.6" class="st1" width="4.8" height="9.6"/>
		</g>
	</g>
</g>
<g>
	<g>
		<g>
			<rect x="138.2" y="146.6" class="st1" width="4.8" height="9.6"/>
		</g>
	</g>
</g>
<g>
	<g>
		<g>
			<rect x="119" y="163.3" class="st1" width="4.8" height="9.6"/>
		</g>
	</g>
</g>
<g>
	<g>
		<g>
			<rect x="128.6" y="163.3" class="st1" width="4.8" height="9.6"/>
		</g>
	</g>
</g>
<g>
	<g>
		<g>
			<rect x="138.2" y="163.3" class="st1" width="4.8" height="9.6"/>
		</g>
	</g>
</g>
<g>
	<g>
		<g>
			<path class="st0" d="M149.1,56.3V32.1h-15.7h-4.8h-14.4v24h-8.4v160.1h50.6v-160L149.1,56.3L149.1,56.3z M123.8,203.1H119v-9.6
				h4.8V203.1z M123.8,187.7H119v-9.6h4.8V187.7z M123.8,173H119v-9.6h4.8V173z M123.8,156.2H119v-9.6h4.8V156.2z M123.8,139.3H119
				v-9.6h4.8V139.3z M123.8,122.4H119v-9.6h4.8V122.4z M123.8,105.6H119V96h4.8V105.6z M123.8,88.8H119v-9.6h4.8V88.8z M123.8,71.9
				H119v-9.6h4.8V71.9z M123.8,50.2H119v-9.6h4.8V50.2z M133.5,203.1h-4.8v-9.6h4.8V203.1z M133.5,187.7h-4.8v-9.6h4.8V187.7z
				 M133.5,173h-4.8v-9.6h4.8V173z M133.5,156.2h-4.8v-9.6h4.8V156.2z M133.5,139.3h-4.8v-9.6h4.8V139.3z M133.5,122.4h-4.8v-9.6
				h4.8V122.4z M133.5,105.6h-4.8V96h4.8V105.6z M133.5,88.8h-4.8v-9.6h4.8V88.8z M133.5,71.9h-4.8v-9.6h4.8V71.9z M133.5,50.2h-4.8
				v-9.6h4.8V50.2z M143.1,203.1h-4.8v-9.6h4.8V203.1z M143.1,187.7h-4.8v-9.6h4.8V187.7z M143.1,173h-4.8v-9.6h4.8V173z
				 M143.1,156.2h-4.8v-9.6h4.8V156.2z M143.1,139.3h-4.8v-9.6h4.8V139.3z M143.1,122.4h-4.8v-9.6h4.8V122.4z M143.1,105.6h-4.8V96
				h4.8V105.6z M143.1,88.8h-4.8v-9.6h4.8V88.8z M143.1,71.9h-4.8v-9.6h4.8V71.9z M143.1,50.2h-4.8v-9.6h4.8V50.2z"/>
		</g>
	</g>
</g>
<g>
	<g>
		<g>
			<rect x="119.7" y="21.1" class="st0" width="23.3" height="8.3"/>
		</g>
	</g>
</g>
<g>
	<g>
		<g>
			<rect x="114.2" y="30.7" class="st0" width="34.9" height="9.5"/>
		</g>
	</g>
</g>
<g>
	<g>
		<g>
			<rect x="99" y="212.5" class="st0" width="64" height="7.6"/>
		</g>
	</g>
</g>
<g>
	<g>
		<g>
			<polygon class="st2" points="115.7,102.2 103.7,102.2 103.7,66.9 115.7,66.9 115.7,67.4 104,67.4 104,101.7 115.7,101.7 			"/>
		</g>
	</g>
</g>
<g>
	<g>
		<g>
			<polygon class="st2" points="162.3,200.9 145.6,200.9 145.6,200.4 161.9,200.4 161.9,117.9 145.6,117.9 145.6,117.4 162.3,117.4 
							"/>
		</g>
	</g>
</g>
<g>
	<g>
		<g>
			<polygon class="st2" points="145.6,55.6 145.3,55.1 152.3,48.5 260.2,48.5 260.2,49 152.5,49 			"/>
		</g>
	</g>
</g>
<g>
	<g>
		<g>
			<circle class="st2" cx="145.5" cy="55.4" r="1.2"/>
		</g>
	</g>
</g>
<g>
	<g>
		<g>
			<circle class="st2" cx="116.3" cy="67.1" r="1.2"/>
		</g>
	</g>
</g>
<g>
	<g>
		<g>
			<circle class="st2" cx="116.3" cy="102.2" r="1.2"/>
		</g>
	</g>
</g>
<g>
	<g>
		<g>
			<circle class="st2" cx="145.1" cy="117.7" r="1.2"/>
		</g>
	</g>
</g>
<g>
	<g>
		<g>
			<circle class="st2" cx="145.6" cy="200.6" r="1.2"/>
		</g>
	</g>
</g>
<g>
	<g>
		<g>
			<rect x="5.1" y="83.8" class="st2" width="98.5" height="0.5"/>
		</g>
	</g>
</g>
<g>
	<g>
		<g>
			<rect x="162.1" y="159.4" class="st2" width="96.5" height="0.5"/>
		</g>
	</g>
</g>
<g>
	<ellipse class="st3" cx="131.1" cy="230" rx="48.2" ry="4"/>
</g>
<g>
	<path class="st4" d="M154.8,43.6V43c0.5,0.3,1.1,0.5,1.6,0.5c0.6,0,1-0.1,1.3-0.4c0.3-0.2,0.5-0.6,0.5-1s-0.1-0.7-0.3-0.9
		s-0.7-0.5-1.3-0.9c-0.8-0.4-1.2-0.8-1.5-1.1c-0.2-0.3-0.3-0.6-0.3-1c0-0.5,0.2-1,0.6-1.4c0.4-0.4,1-0.6,1.7-0.6
		c0.5,0,0.9,0.1,1.4,0.2V37c-0.4-0.2-0.9-0.3-1.4-0.3s-0.9,0.1-1.2,0.4c-0.3,0.3-0.5,0.6-0.5,1s0.1,0.7,0.3,0.9s0.6,0.5,1.3,0.9
		s1.2,0.8,1.4,1.1s0.4,0.7,0.4,1.1c0,0.6-0.2,1.1-0.6,1.4s-1,0.5-1.7,0.5c-0.3,0-0.6,0-0.9-0.1C155.2,43.8,155,43.7,154.8,43.6z"/>
	<path class="st4" d="M164,43.9v-3.2c0-0.6-0.1-1.1-0.3-1.4c-0.2-0.3-0.6-0.4-1.1-0.4s-0.9,0.2-1.2,0.5s-0.5,0.9-0.5,1.6v3h-0.5v-8
		h0.5v3.6l0,0c0.4-0.7,1-1.1,1.9-1.1c0.6,0,1,0.2,1.3,0.6s0.5,0.9,0.5,1.6V44L164,43.9L164,43.9z"/>
	<path class="st4" d="M169.3,43.9v-1.1l0,0c-0.2,0.4-0.4,0.7-0.8,0.9s-0.7,0.3-1.1,0.3c-0.5,0-0.9-0.1-1.2-0.4s-0.4-0.7-0.4-1.1
		c0-0.9,0.6-1.5,1.9-1.7l1.7-0.2c0-1.2-0.4-1.7-1.3-1.7c-0.6,0-1.2,0.2-1.7,0.7V39c0.2-0.2,0.5-0.3,0.8-0.4c0.3-0.1,0.7-0.2,1-0.2
		c0.6,0,1,0.2,1.3,0.5s0.5,0.8,0.5,1.5v3.5H169.3z M167.8,41.2c-0.6,0.1-1,0.2-1.2,0.4s-0.3,0.5-0.3,0.9c0,0.3,0.1,0.6,0.3,0.8
		s0.5,0.3,0.9,0.3c0.5,0,0.9-0.2,1.3-0.6s0.5-0.9,0.5-1.5V41L167.8,41.2z"/>
	<path class="st4" d="M174,39c-0.2-0.1-0.4-0.2-0.6-0.2c-0.4,0-0.8,0.2-1.1,0.7c-0.3,0.4-0.4,1.1-0.4,1.9v2.5h-0.5v-5.4h0.5v1.2l0,0
		c0.1-0.4,0.3-0.7,0.6-1c0.3-0.2,0.6-0.3,0.9-0.3c0.2,0,0.4,0,0.5,0.1V39H174z"/>
	<path class="st4" d="M174.9,41.2c0,0.7,0.2,1.3,0.5,1.7s0.8,0.6,1.4,0.6c0.6,0,1.2-0.2,1.8-0.7v0.5c-0.6,0.4-1.2,0.6-1.9,0.6
		s-1.3-0.3-1.7-0.7s-0.6-1.2-0.6-2.1c0-0.8,0.2-1.5,0.7-2s1-0.8,1.7-0.8s1.2,0.2,1.5,0.7c0.4,0.5,0.5,1.1,0.5,1.9v0.2L174.9,41.2
		L174.9,41.2z M178.4,40.7c0-0.6-0.2-1.1-0.4-1.5s-0.7-0.5-1.1-0.5c-0.5,0-0.9,0.2-1.3,0.5s-0.5,0.8-0.6,1.5H178.4z"/>
	<path class="st4" d="M179.9,43.6V43c0.2,0.2,0.4,0.3,0.7,0.4s0.5,0.1,0.7,0.1c0.8,0,1.3-0.3,1.3-1c0-0.2-0.1-0.4-0.3-0.6
		s-0.5-0.3-0.9-0.5c-0.5-0.2-0.9-0.5-1.1-0.7c-0.2-0.2-0.3-0.5-0.3-0.9s0.2-0.8,0.5-1.1s0.8-0.4,1.2-0.4c0.5,0,0.9,0.1,1.2,0.3v0.6
		c-0.4-0.3-0.8-0.4-1.2-0.4s-0.6,0.1-0.9,0.3s-0.3,0.4-0.3,0.7s0.1,0.5,0.2,0.6s0.4,0.3,0.9,0.6c0.6,0.3,0.9,0.5,1.2,0.7
		c0.2,0.2,0.3,0.5,0.3,0.9s-0.2,0.8-0.5,1.1s-0.8,0.4-1.3,0.4C180.7,44,180.3,43.9,179.9,43.6z"/>
	<path class="st4" d="M189.5,44c-0.8,0-1.4-0.3-1.9-0.8s-0.7-1.2-0.7-2c0-0.9,0.2-1.6,0.7-2.1s1.1-0.8,1.9-0.8
		c0.8,0,1.4,0.3,1.8,0.8c0.4,0.5,0.7,1.2,0.7,2.1c0,0.8-0.2,1.5-0.7,2S190.3,44,189.5,44z M189.6,38.8c-0.6,0-1.1,0.2-1.5,0.6
		s-0.6,1-0.6,1.8c0,0.7,0.2,1.3,0.6,1.7c0.4,0.4,0.9,0.6,1.5,0.6c0.7,0,1.2-0.2,1.5-0.6s0.5-1,0.5-1.8s-0.2-1.4-0.5-1.8
		C190.7,39,190.2,38.8,189.6,38.8z"/>
	<path class="st4" d="M195.5,36.4c-0.1-0.1-0.3-0.2-0.6-0.2c-0.7,0-1,0.4-1,1.3v0.9h1.4v0.4h-1.4v5h-0.5v-5h-1v-0.4h1v-0.9
		c0-0.6,0.1-1,0.4-1.3s0.6-0.4,1.1-0.4c0.2,0,0.4,0,0.6,0.1V36.4z"/>
	<path class="st4" d="M198.8,43.6V43c0.2,0.2,0.4,0.3,0.7,0.4s0.5,0.1,0.7,0.1c0.8,0,1.3-0.3,1.3-1c0-0.2-0.1-0.4-0.3-0.6
		s-0.5-0.3-0.9-0.5c-0.5-0.2-0.9-0.5-1.1-0.7c-0.2-0.2-0.3-0.5-0.3-0.9s0.2-0.8,0.5-1.1s0.8-0.4,1.2-0.4c0.5,0,0.9,0.1,1.2,0.3v0.6
		c-0.4-0.3-0.8-0.4-1.2-0.4s-0.6,0.1-0.9,0.3s-0.3,0.4-0.3,0.7s0.1,0.5,0.2,0.6s0.4,0.3,0.9,0.6c0.6,0.3,0.9,0.5,1.2,0.7
		c0.2,0.2,0.3,0.5,0.3,0.9s-0.2,0.8-0.5,1.1s-0.8,0.4-1.3,0.4C199.6,44,199.2,43.9,198.8,43.6z"/>
	<path class="st4" d="M205.4,43.8c-0.3,0.1-0.5,0.2-0.7,0.2c-0.8,0-1.2-0.5-1.2-1.4V39h-1v-0.4h1v-1.4c0.1,0,0.2-0.1,0.2-0.1
		l0.2-0.1v1.6h1.4V39H204v3.6c0,0.4,0.1,0.6,0.2,0.8s0.3,0.3,0.6,0.3c0.2,0,0.4-0.1,0.6-0.2L205.4,43.8L205.4,43.8z"/>
	<path class="st4" d="M208.7,44c-0.8,0-1.4-0.3-1.9-0.8s-0.7-1.2-0.7-2c0-0.9,0.2-1.6,0.7-2.1s1.1-0.8,1.9-0.8
		c0.8,0,1.4,0.3,1.8,0.8c0.4,0.5,0.7,1.2,0.7,2.1c0,0.8-0.2,1.5-0.7,2S209.4,44,208.7,44z M208.7,38.8c-0.6,0-1.1,0.2-1.5,0.6
		s-0.6,1-0.6,1.8c0,0.7,0.2,1.3,0.6,1.7c0.4,0.4,0.9,0.6,1.5,0.6c0.7,0,1.2-0.2,1.5-0.6s0.5-1,0.5-1.8s-0.2-1.4-0.5-1.8
		C209.8,39,209.3,38.8,208.7,38.8z"/>
	<path class="st4" d="M216,43.6c-0.4,0.2-0.9,0.4-1.4,0.4c-0.7,0-1.3-0.3-1.8-0.8s-0.7-1.2-0.7-2c0-0.9,0.3-1.6,0.8-2.1
		s1.2-0.8,2-0.8c0.4,0,0.8,0.1,1.2,0.3v0.5c-0.4-0.2-0.8-0.4-1.3-0.4c-0.6,0-1.1,0.2-1.5,0.7s-0.6,1-0.6,1.8c0,0.7,0.2,1.3,0.5,1.7
		c0.4,0.4,0.8,0.6,1.4,0.6c0.5,0,1-0.1,1.4-0.4L216,43.6L216,43.6z"/>
	<path class="st4" d="M220.4,43.9l-2.6-2.7l0,0v2.7h-0.5v-8h0.5V41l0,0l2.5-2.6h0.6l-2.6,2.6l2.8,2.8h-0.7V43.9z"/>
	<path class="st4" d="M222.5,39.2c-0.1,0-0.2,0-0.3-0.1s-0.1-0.2-0.1-0.3s0-0.2,0.1-0.3s0.2-0.1,0.3-0.1s0.2,0,0.3,0.1
		s0.1,0.2,0.1,0.3s0,0.2-0.1,0.3S222.6,39.2,222.5,39.2z M222.5,44c-0.1,0-0.2,0-0.3-0.1s-0.1-0.2-0.1-0.3s0-0.2,0.1-0.3
		s0.2-0.1,0.3-0.1s0.2,0,0.3,0.1s0.1,0.2,0.1,0.3s0,0.2-0.1,0.3S222.6,44,222.5,44z"/>
	<path class="st4" d="M226.4,36.1v7.7H226v-7c-0.2,0.2-0.5,0.4-0.8,0.6c-0.3,0.2-0.6,0.3-1,0.4v-0.4c0.2-0.1,0.4-0.2,0.6-0.3
		s0.4-0.2,0.5-0.3c0.2-0.1,0.3-0.2,0.5-0.4c0.2-0.1,0.3-0.3,0.5-0.4h0.1V36.1z"/>
	<path class="st4" d="M228.4,43.7v-0.6c0.5,0.3,1,0.4,1.4,0.4c0.6,0,1.1-0.2,1.5-0.5s0.5-0.8,0.5-1.4c0-1.2-0.7-1.8-2.1-1.8
		c-0.3,0-0.7,0-1.1,0.1l0.2-3.6h3.1v0.4h-2.7l-0.2,2.7c0.4,0,0.6,0,0.8,0c0.8,0,1.4,0.2,1.8,0.6s0.6,0.9,0.6,1.6
		c0,0.7-0.2,1.3-0.7,1.7s-1.1,0.7-1.9,0.7C229.2,44,228.8,43.9,228.4,43.7z"/>
	<path class="st4" d="M238.8,40.1c0,0.4-0.1,0.7-0.4,0.9s-0.5,0.3-0.9,0.3c-0.3,0-0.7-0.1-1.1-0.4c-0.4-0.3-0.7-0.4-0.9-0.4
		c-0.5,0-0.8,0.3-0.8,0.8h-0.4c0-0.4,0.1-0.7,0.4-0.9s0.5-0.3,0.9-0.3c0.3,0,0.7,0.1,1,0.4c0.2,0.2,0.4,0.3,0.6,0.4
		c0.1,0.1,0.3,0.1,0.4,0.1c0.5,0,0.7-0.3,0.8-0.8L238.8,40.1L238.8,40.1z"/>
	<path class="st4" d="M240.6,43.9v-0.4c0-0.2,0-0.5,0.1-0.6c0-0.2,0.1-0.4,0.2-0.5c0.1-0.2,0.2-0.3,0.3-0.4s0.3-0.3,0.4-0.4
		c0.2-0.1,0.3-0.3,0.5-0.4s0.4-0.3,0.6-0.5c0.2-0.2,0.4-0.3,0.6-0.5s0.4-0.3,0.5-0.5s0.3-0.4,0.4-0.6c0.1-0.2,0.1-0.5,0.1-0.8
		c0-0.5-0.1-0.9-0.4-1.2s-0.7-0.4-1.2-0.4c-0.3,0-0.7,0.1-1,0.2s-0.6,0.4-0.9,0.6v-0.6c0.3-0.2,0.6-0.4,0.9-0.5
		c0.3-0.1,0.7-0.2,1-0.2s0.6,0,0.8,0.1s0.5,0.2,0.6,0.4c0.2,0.2,0.3,0.4,0.4,0.6s0.1,0.5,0.1,0.8s0,0.7-0.1,0.9
		c-0.1,0.3-0.2,0.5-0.4,0.7s-0.4,0.4-0.6,0.6c-0.2,0.2-0.5,0.4-0.7,0.6c-0.3,0.2-0.6,0.5-0.9,0.6c-0.2,0.2-0.4,0.4-0.6,0.6
		s-0.3,0.4-0.3,0.6s-0.1,0.4-0.1,0.7v0.1h3.8v0.4L240.6,43.9L240.6,43.9z"/>
	<path class="st4" d="M248.4,44c-0.7,0-1.2-0.3-1.6-1c-0.4-0.6-0.6-1.6-0.6-2.8c0-1.3,0.2-2.4,0.6-3c0.4-0.7,1-1,1.8-1
		c1.5,0,2.2,1.3,2.2,3.9c0,1.3-0.2,2.3-0.6,2.9C249.7,43.7,249.1,44,248.4,44z M248.5,36.6c-0.6,0-1,0.3-1.4,0.9
		c-0.3,0.6-0.5,1.5-0.5,2.7c0,1.1,0.2,1.9,0.5,2.5s0.7,0.9,1.3,0.9s1-0.3,1.3-0.9c0.3-0.6,0.5-1.4,0.5-2.5
		C250.2,37.8,249.6,36.6,248.5,36.6z"/>
	<path class="st4" d="M253.4,40c-0.5,0-1-0.2-1.3-0.5s-0.5-0.8-0.5-1.4c0-0.6,0.2-1.1,0.5-1.4s0.8-0.5,1.3-0.5s0.9,0.2,1.3,0.5
		s0.5,0.8,0.5,1.4c0,0.6-0.2,1-0.5,1.4S253.9,40,253.4,40z M253.4,36.6c-0.4,0-0.7,0.1-1,0.4s-0.4,0.6-0.4,1.1s0.1,0.8,0.3,1.1
		s0.5,0.4,0.9,0.4s0.7-0.1,0.9-0.4s0.3-0.6,0.3-1.1s-0.1-0.9-0.3-1.1C254.1,36.7,253.8,36.6,253.4,36.6z M253.4,44h-0.5l4.6-7.7h0.5
		L253.4,44z M257.5,44c-0.5,0-1-0.2-1.3-0.5s-0.5-0.8-0.5-1.4c0-0.6,0.2-1.1,0.5-1.4c0.3-0.3,0.8-0.5,1.3-0.5s0.9,0.2,1.3,0.5
		s0.5,0.8,0.5,1.4c0,0.5-0.2,1-0.5,1.4S258.1,44,257.5,44z M257.6,40.6c-0.4,0-0.7,0.1-1,0.4s-0.4,0.6-0.4,1.1s0.1,0.8,0.3,1.1
		c0.2,0.3,0.5,0.4,0.9,0.4s0.7-0.1,0.9-0.4s0.3-0.6,0.3-1.1s-0.1-0.9-0.3-1.1C258.3,40.7,258,40.6,257.6,40.6z"/>
</g>
<g>
	<path class="st4" d="M166.2,150.8V144h1.8c0.5,0,1,0.1,1.3,0.4c0.3,0.3,0.5,0.7,0.5,1.1c0,0.4-0.1,0.7-0.3,1s-0.5,0.5-0.9,0.6l0,0
		c0.5,0,0.8,0.2,1.1,0.5s0.4,0.7,0.4,1.1c0,0.6-0.2,1-0.6,1.4c-0.4,0.4-0.9,0.5-1.5,0.5h-1.8V150.8z M166.6,144.4v2.6h0.9
		c0.5,0,0.9-0.1,1.2-0.4c0.3-0.3,0.4-0.6,0.4-1c0-0.8-0.5-1.2-1.4-1.2L166.6,144.4L166.6,144.4z M166.6,147.4v2.9h1.3
		c0.5,0,0.9-0.1,1.2-0.4c0.3-0.3,0.4-0.6,0.4-1.1c0-0.9-0.6-1.4-1.9-1.4H166.6z"/>
	<path class="st4" d="M174.2,150.8v-1l0,0c-0.2,0.3-0.4,0.6-0.7,0.8s-0.6,0.3-1,0.3c-0.5,0-0.8-0.1-1.1-0.4c-0.3-0.3-0.4-0.6-0.4-1
		c0-0.8,0.6-1.4,1.7-1.5l1.5-0.2c0-1-0.4-1.6-1.2-1.6c-0.5,0-1.1,0.2-1.6,0.6v-0.5c0.2-0.1,0.4-0.3,0.7-0.4c0.3-0.1,0.6-0.2,0.9-0.2
		c0.5,0,0.9,0.2,1.2,0.5s0.4,0.8,0.4,1.4v3.2L174.2,150.8L174.2,150.8z M172.9,148.3c-0.5,0.1-0.9,0.2-1.1,0.4
		c-0.2,0.2-0.3,0.4-0.3,0.8c0,0.3,0.1,0.5,0.3,0.7s0.5,0.3,0.8,0.3c0.5,0,0.9-0.2,1.2-0.5s0.5-0.8,0.5-1.3v-0.5L172.9,148.3z"/>
	<path class="st4" d="M179.4,150.8V148c0-1.2-0.4-1.7-1.3-1.7c-0.5,0-0.9,0.2-1.2,0.5s-0.5,0.8-0.5,1.3v2.8H176V146h0.4v0.9l0,0
		c0.4-0.7,0.9-1,1.7-1c0.5,0,0.9,0.2,1.2,0.5c0.3,0.4,0.4,0.8,0.4,1.5v3h-0.3V150.8z"/>
	<path class="st4" d="M184.1,150.8l-2.3-2.4l0,0v2.4h-0.4v-7.2h0.4v4.6l0,0l2.2-2.3h0.6l-2.3,2.4l2.5,2.5H184.1z"/>
	<path class="st4" d="M190.5,144c-0.1-0.1-0.3-0.1-0.5-0.1c-0.6,0-0.9,0.4-0.9,1.2v0.8h1.3v0.4H189v4.5h-0.4v-4.5h-0.9v-0.4h0.9V145
		c0-0.5,0.1-0.9,0.4-1.2s0.6-0.4,1-0.4c0.2,0,0.4,0,0.5,0.1V144z"/>
	<path class="st4" d="M191.2,144.7c-0.1,0-0.2,0-0.3-0.1s-0.1-0.2-0.1-0.3s0-0.2,0.1-0.3s0.2-0.1,0.3-0.1s0.2,0,0.3,0.1
		s0.1,0.1,0.1,0.3c0,0.1,0,0.2-0.1,0.3C191.4,144.6,191.3,144.7,191.2,144.7z M191,150.8v-4.9h0.4v4.9H191z"/>
	<path class="st4" d="M196.3,150.8V148c0-1.2-0.4-1.7-1.3-1.7c-0.5,0-0.9,0.2-1.2,0.5s-0.5,0.8-0.5,1.3v2.8H193V146h0.4v0.9l0,0
		c0.4-0.7,0.9-1,1.7-1c0.5,0,0.9,0.2,1.2,0.5c0.3,0.4,0.4,0.8,0.4,1.5v3h-0.4V150.8z"/>
	<path class="st4" d="M201.1,150.8v-1l0,0c-0.2,0.3-0.4,0.6-0.7,0.8s-0.6,0.3-1,0.3c-0.5,0-0.8-0.1-1.1-0.4c-0.3-0.3-0.4-0.6-0.4-1
		c0-0.8,0.6-1.4,1.7-1.5l1.5-0.2c0-1-0.4-1.6-1.2-1.6c-0.5,0-1.1,0.2-1.6,0.6v-0.5c0.2-0.1,0.4-0.3,0.7-0.4c0.3-0.1,0.6-0.2,0.9-0.2
		c0.5,0,0.9,0.2,1.2,0.5s0.4,0.8,0.4,1.4v3.2L201.1,150.8L201.1,150.8z M199.8,148.3c-0.5,0.1-0.9,0.2-1.1,0.4
		c-0.2,0.2-0.3,0.4-0.3,0.8c0,0.3,0.1,0.5,0.3,0.7s0.5,0.3,0.8,0.3c0.5,0,0.9-0.2,1.2-0.5s0.5-0.8,0.5-1.3v-0.5L199.8,148.3z"/>
	<path class="st4" d="M206.3,150.8V148c0-1.2-0.4-1.7-1.3-1.7c-0.5,0-0.9,0.2-1.2,0.5s-0.5,0.8-0.5,1.3v2.8H203V146h0.4v0.9l0,0
		c0.4-0.7,0.9-1,1.7-1c0.5,0,0.9,0.2,1.2,0.5c0.3,0.4,0.4,0.8,0.4,1.5v3h-0.4V150.8z"/>
	<path class="st4" d="M211.4,150.5c-0.4,0.2-0.8,0.3-1.3,0.3c-0.7,0-1.2-0.2-1.6-0.7c-0.4-0.5-0.6-1-0.6-1.8s0.2-1.4,0.7-1.9
		s1-0.7,1.8-0.7c0.4,0,0.7,0.1,1.1,0.2v0.5c-0.3-0.2-0.7-0.3-1.1-0.3c-0.6,0-1,0.2-1.4,0.6s-0.5,0.9-0.5,1.6c0,0.6,0.2,1.1,0.5,1.5
		s0.8,0.6,1.3,0.6s0.9-0.1,1.3-0.4v0.5H211.4z"/>
	<path class="st4" d="M212.7,144.7c-0.1,0-0.2,0-0.3-0.1s-0.1-0.2-0.1-0.3s0-0.2,0.1-0.3s0.2-0.1,0.3-0.1s0.2,0,0.3,0.1
		s0.1,0.1,0.1,0.3c0,0.1,0,0.2-0.1,0.3C212.9,144.6,212.8,144.7,212.7,144.7z M212.5,150.8v-4.9h0.4v4.9H212.5z"/>
	<path class="st4" d="M217.8,150.8V148c0-1.2-0.4-1.7-1.3-1.7c-0.5,0-0.9,0.2-1.2,0.5s-0.5,0.8-0.5,1.3v2.8h-0.4V146h0.4v0.9l0,0
		c0.4-0.7,0.9-1,1.7-1c0.5,0,0.9,0.2,1.2,0.5c0.3,0.4,0.4,0.8,0.4,1.5v3h-0.3V150.8z"/>
	<path class="st4" d="M223.6,150.4c0,0.9-0.2,1.6-0.6,2c-0.4,0.4-1,0.6-1.9,0.6c-0.5,0-1-0.1-1.4-0.4v-0.5c0.5,0.3,1,0.4,1.5,0.4
		c1.3,0,2-0.7,2-2.1v-0.6l0,0c-0.4,0.7-1,1-1.8,1c-0.6,0-1.1-0.2-1.5-0.7s-0.6-1-0.6-1.8s0.2-1.4,0.6-1.9c0.4-0.5,0.9-0.7,1.6-0.7
		c0.7,0,1.2,0.3,1.6,0.9l0,0v-0.8h0.4L223.6,150.4L223.6,150.4z M223.2,147.8c0-0.4-0.1-0.8-0.4-1.1c-0.3-0.3-0.7-0.5-1.1-0.5
		c-0.5,0-1,0.2-1.3,0.6s-0.5,0.9-0.5,1.6c0,0.7,0.2,1.2,0.4,1.5c0.3,0.4,0.7,0.6,1.2,0.6s0.9-0.2,1.3-0.5c0.3-0.3,0.5-0.8,0.5-1.2
		L223.2,147.8L223.2,147.8z"/>
	<path class="st4" d="M225.5,146.6c-0.1,0-0.2,0-0.3-0.1s-0.1-0.2-0.1-0.3s0-0.2,0.1-0.3s0.2-0.1,0.3-0.1s0.2,0,0.3,0.1
		s0.1,0.2,0.1,0.3s0,0.2-0.1,0.3S225.6,146.6,225.5,146.6z M225.5,150.8c-0.1,0-0.2,0-0.3-0.1s-0.1-0.2-0.1-0.3s0-0.2,0.1-0.3
		s0.2-0.1,0.3-0.1s0.2,0,0.3,0.1s0.1,0.2,0.1,0.3s0,0.2-0.1,0.3S225.6,150.8,225.5,150.8z"/>
	<path class="st4" d="M227.3,150.6v-0.5c0.4,0.2,0.9,0.4,1.3,0.4c0.6,0,1-0.2,1.3-0.5s0.5-0.7,0.5-1.2c0-1.1-0.6-1.7-1.9-1.7
		c-0.3,0-0.6,0-1,0.1l0.2-3.2h2.8v0.4h-2.4l-0.2,2.4c0.3,0,0.6,0,0.7,0c0.7,0,1.3,0.2,1.6,0.5c0.4,0.4,0.6,0.8,0.6,1.5
		c0,0.6-0.2,1.2-0.6,1.5s-1,0.6-1.7,0.6C228.1,150.9,227.7,150.8,227.3,150.6z"/>
	<path class="st4" d="M234,150.9c-0.6,0-1.1-0.3-1.5-0.9c-0.4-0.6-0.5-1.4-0.5-2.5c0-1.2,0.2-2.1,0.6-2.7c0.4-0.6,0.9-0.9,1.6-0.9
		c1.3,0,2,1.2,2,3.5c0,1.2-0.2,2-0.6,2.6C235.2,150.6,234.7,150.9,234,150.9z M234.1,144.2c-0.5,0-0.9,0.3-1.2,0.8s-0.4,1.3-0.4,2.4
		c0,1,0.1,1.7,0.4,2.2c0.3,0.5,0.7,0.8,1.2,0.8s0.9-0.3,1.2-0.8s0.4-1.3,0.4-2.3C235.7,145.3,235.1,144.2,234.1,144.2z"/>
	<path class="st4" d="M241.7,147.4c0,0.4-0.1,0.6-0.3,0.8s-0.5,0.3-0.8,0.3s-0.6-0.1-1-0.4c-0.3-0.3-0.6-0.4-0.8-0.4
		c-0.4,0-0.7,0.3-0.7,0.8h-0.4c0-0.4,0.1-0.6,0.3-0.8s0.5-0.3,0.8-0.3s0.6,0.1,0.9,0.4c0.2,0.2,0.4,0.3,0.5,0.3
		c0.1,0.1,0.2,0.1,0.4,0.1c0.4,0,0.7-0.3,0.7-0.8L241.7,147.4L241.7,147.4z"/>
	<path class="st4" d="M247.1,144v0.5c-0.3-0.2-0.7-0.2-1-0.2s-0.6,0.1-0.9,0.2c-0.3,0.2-0.5,0.4-0.7,0.7s-0.3,0.7-0.4,1.1
		c-0.1,0.4-0.2,0.9-0.2,1.4l0,0c0.3-0.8,0.9-1.1,1.7-1.1c0.3,0,0.5,0.1,0.8,0.2s0.4,0.3,0.6,0.4c0.2,0.2,0.3,0.4,0.4,0.7
		c0.1,0.3,0.1,0.5,0.1,0.8s0,0.6-0.1,0.9c-0.1,0.3-0.2,0.5-0.4,0.7s-0.4,0.4-0.6,0.5s-0.5,0.2-0.8,0.2s-0.6-0.1-0.8-0.2
		c-0.2-0.1-0.5-0.3-0.6-0.6c-0.2-0.3-0.3-0.6-0.4-1c-0.1-0.4-0.1-0.8-0.1-1.3c0-0.6,0.1-1.1,0.2-1.6c0.1-0.5,0.3-0.9,0.5-1.2
		s0.5-0.6,0.8-0.8s0.7-0.3,1.1-0.3C246.5,143.8,246.8,143.9,247.1,144z M245.5,146.9c-0.2,0-0.4,0-0.6,0.1c-0.2,0.1-0.4,0.2-0.5,0.4
		s-0.2,0.3-0.3,0.5s-0.1,0.4-0.1,0.6c0,0.3,0,0.5,0.1,0.7s0.2,0.4,0.3,0.6c0.1,0.2,0.3,0.3,0.5,0.4s0.4,0.2,0.6,0.2
		c0.2,0,0.4,0,0.6-0.1c0.2-0.1,0.3-0.2,0.5-0.4c0.1-0.2,0.2-0.3,0.3-0.6c0.1-0.2,0.1-0.5,0.1-0.7c0-0.3,0-0.5-0.1-0.7
		s-0.2-0.4-0.3-0.6c-0.1-0.2-0.3-0.3-0.5-0.4C246,146.9,245.8,146.9,245.5,146.9z"/>
	<path class="st4" d="M250.3,150.9c-0.6,0-1.1-0.3-1.5-0.9c-0.4-0.6-0.5-1.4-0.5-2.5c0-1.2,0.2-2.1,0.6-2.7c0.4-0.6,0.9-0.9,1.6-0.9
		c1.3,0,2,1.2,2,3.5c0,1.2-0.2,2-0.6,2.6C251.5,150.6,251,150.9,250.3,150.9z M250.4,144.2c-0.5,0-0.9,0.3-1.2,0.8s-0.4,1.3-0.4,2.4
		c0,1,0.1,1.7,0.4,2.2c0.3,0.5,0.7,0.8,1.2,0.8s0.9-0.3,1.2-0.8s0.4-1.3,0.4-2.3C252,145.3,251.5,144.2,250.4,144.2z"/>
	<path class="st4" d="M254.8,147.3c-0.5,0-0.9-0.2-1.2-0.5s-0.4-0.7-0.4-1.2c0-0.6,0.2-1,0.4-1.3c0.3-0.3,0.7-0.5,1.2-0.5
		s0.9,0.2,1.1,0.5c0.3,0.3,0.4,0.7,0.4,1.3c0,0.5-0.1,0.9-0.4,1.2C255.7,147.1,255.3,147.3,254.8,147.3z M254.9,144.2
		c-0.4,0-0.7,0.1-0.9,0.4c-0.2,0.2-0.3,0.6-0.3,1s0.1,0.7,0.3,1c0.2,0.2,0.5,0.4,0.8,0.4c0.4,0,0.6-0.1,0.8-0.4s0.3-0.6,0.3-1
		s-0.1-0.8-0.3-1C255.5,144.3,255.2,144.2,254.9,144.2z M254.9,150.9h-0.5l4.1-7h0.5L254.9,150.9z M258.6,150.9
		c-0.5,0-0.9-0.2-1.2-0.5s-0.4-0.7-0.4-1.2c0-0.6,0.2-1,0.5-1.3s0.7-0.5,1.2-0.5s0.9,0.2,1.1,0.5s0.4,0.7,0.4,1.3
		c0,0.5-0.1,0.9-0.4,1.2S259.1,150.9,258.6,150.9z M258.6,147.8c-0.4,0-0.6,0.1-0.9,0.4s-0.3,0.6-0.3,1s0.1,0.7,0.3,1
		c0.2,0.2,0.5,0.4,0.8,0.4c0.4,0,0.6-0.1,0.9-0.4s0.3-0.6,0.3-1s-0.1-0.8-0.3-1C259.2,147.9,259,147.8,258.6,147.8z"/>
</g>
<g>
	<path class="st4" d="M10,76.5v-3.3H6.1v3.3H5.6v-6.8h0.5v3.1H10v-3.1h0.5v6.8H10z"/>
	<path class="st4" d="M14,76.7c-0.7,0-1.3-0.2-1.7-0.7s-0.6-1.1-0.6-1.8c0-0.8,0.2-1.4,0.6-1.9c0.4-0.5,1-0.7,1.7-0.7
		s1.2,0.2,1.6,0.7c0.4,0.5,0.6,1.1,0.6,1.9S16,75.6,15.6,76S14.8,76.7,14,76.7z M14.1,72c-0.6,0-1,0.2-1.4,0.6s-0.5,0.9-0.5,1.6
		c0,0.6,0.2,1.1,0.5,1.5s0.8,0.6,1.4,0.6c0.6,0,1-0.2,1.4-0.6c0.3-0.4,0.5-0.9,0.5-1.6s-0.2-1.2-0.5-1.6C15.1,72.1,14.6,72,14.1,72z
		"/>
	<path class="st4" d="M19.5,70.2v6.4H19v-6.4h-2v-0.4h4.4v0.4H19.5z"/>
	<path class="st4" d="M27.3,69.8c-0.1-0.1-0.3-0.1-0.5-0.1c-0.6,0-0.9,0.4-0.9,1.2v0.8h1.3v0.4h-1.3v4.5h-0.4v-4.5h-0.9v-0.4h0.9
		v-0.8c0-0.5,0.1-0.9,0.4-1.2s0.6-0.4,1-0.4c0.2,0,0.4,0,0.5,0.1v0.4H27.3z"/>
	<path class="st4" d="M28.1,70.4c-0.1,0-0.2,0-0.3-0.1c-0.1-0.1-0.1-0.2-0.1-0.3c0-0.1,0-0.2,0.1-0.3c0.1-0.1,0.2-0.1,0.3-0.1
		c0.1,0,0.2,0,0.3,0.1c0.1,0.1,0.1,0.1,0.1,0.3c0,0.1,0,0.2-0.1,0.3C28.3,70.4,28.2,70.4,28.1,70.4z M27.9,76.5v-4.9h0.4v4.9H27.9z"
		/>
	<path class="st4" d="M33.2,76.5v-2.8c0-1.2-0.4-1.7-1.3-1.7c-0.5,0-0.9,0.2-1.2,0.5c-0.3,0.3-0.5,0.8-0.5,1.3v2.8h-0.4v-4.9h0.4
		v0.9l0,0c0.4-0.7,0.9-1,1.7-1c0.5,0,0.9,0.2,1.2,0.5c0.3,0.4,0.4,0.8,0.4,1.5v3h-0.3V76.5z"/>
	<path class="st4" d="M38,76.5v-1l0,0c-0.2,0.3-0.4,0.6-0.7,0.8c-0.3,0.2-0.6,0.3-1,0.3c-0.5,0-0.8-0.1-1.1-0.4s-0.4-0.6-0.4-1
		c0-0.8,0.6-1.4,1.7-1.5l1.5-0.2c0-1-0.4-1.6-1.2-1.6c-0.5,0-1.1,0.2-1.6,0.6V72c0.2-0.1,0.4-0.3,0.7-0.4s0.6-0.2,0.9-0.2
		c0.5,0,0.9,0.2,1.2,0.5s0.4,0.8,0.4,1.4v3.2C38.4,76.5,38,76.5,38,76.5z M36.6,74.1c-0.5,0.1-0.9,0.2-1.1,0.4
		c-0.2,0.2-0.3,0.4-0.3,0.8c0,0.3,0.1,0.5,0.3,0.7s0.5,0.3,0.8,0.3c0.5,0,0.9-0.2,1.2-0.5S38,75,38,74.5V74L36.6,74.1z"/>
	<path class="st4" d="M43.2,76.5v-2.8c0-1.2-0.4-1.7-1.3-1.7c-0.5,0-0.9,0.2-1.2,0.5s-0.5,0.8-0.5,1.3v2.8h-0.4v-4.9h0.4v0.9l0,0
		c0.4-0.7,0.9-1,1.7-1c0.5,0,0.9,0.2,1.2,0.5c0.3,0.4,0.4,0.8,0.4,1.5v3h-0.3V76.5z"/>
	<path class="st4" d="M48.2,76.3c-0.4,0.2-0.8,0.3-1.3,0.3c-0.7,0-1.2-0.2-1.6-0.7c-0.4-0.5-0.6-1-0.6-1.8s0.2-1.4,0.7-1.9
		s1-0.7,1.8-0.7c0.4,0,0.7,0.1,1.1,0.2v0.5c-0.3-0.2-0.7-0.3-1.1-0.3c-0.6,0-1,0.2-1.4,0.6s-0.5,0.9-0.5,1.6c0,0.6,0.2,1.1,0.5,1.5
		s0.8,0.6,1.3,0.6s0.9-0.1,1.3-0.4v0.5H48.2z"/>
	<path class="st4" d="M49.6,70.4c-0.1,0-0.2,0-0.3-0.1s-0.1-0.2-0.1-0.3c0-0.1,0-0.2,0.1-0.3c0.1-0.1,0.2-0.1,0.3-0.1s0.2,0,0.3,0.1
		S50,69.8,50,70c0,0.1,0,0.2-0.1,0.3C49.8,70.4,49.7,70.4,49.6,70.4z M49.4,76.5v-4.9h0.4v4.9H49.4z"/>
	<path class="st4" d="M54.7,76.5v-2.8c0-1.2-0.4-1.7-1.3-1.7c-0.5,0-0.9,0.2-1.2,0.5s-0.5,0.8-0.5,1.3v2.8h-0.4v-4.9h0.4v0.9l0,0
		c0.4-0.7,0.9-1,1.7-1c0.5,0,0.9,0.2,1.2,0.5c0.3,0.4,0.4,0.8,0.4,1.5v3h-0.3V76.5z"/>
	<path class="st4" d="M60.5,76.2c0,0.9-0.2,1.6-0.6,2c-0.4,0.4-1,0.6-1.9,0.6c-0.5,0-1-0.1-1.4-0.4V78c0.5,0.3,1,0.4,1.5,0.4
		c1.3,0,2-0.7,2-2.1v-0.6l0,0c-0.4,0.7-1,1-1.8,1c-0.6,0-1.1-0.2-1.5-0.7s-0.6-1-0.6-1.8s0.2-1.4,0.6-1.9c0.4-0.5,0.9-0.7,1.6-0.7
		c0.7,0,1.2,0.3,1.6,0.9l0,0v-0.8h0.4v4.5H60.5z M60,73.5c0-0.4-0.1-0.8-0.4-1.1c-0.3-0.3-0.7-0.5-1.1-0.5c-0.5,0-1,0.2-1.3,0.6
		s-0.5,0.9-0.5,1.6s0.2,1.2,0.4,1.5c0.3,0.4,0.7,0.6,1.2,0.6s0.9-0.2,1.3-0.5c0.3-0.3,0.5-0.8,0.5-1.2v-1H60z"/>
	<path class="st4" d="M62.3,72.4c-0.1,0-0.2,0-0.3-0.1s-0.1-0.2-0.1-0.3s0-0.2,0.1-0.3c0.1-0.1,0.2-0.1,0.3-0.1s0.2,0,0.3,0.1
		s0.1,0.2,0.1,0.3s0,0.2-0.1,0.3S62.4,72.4,62.3,72.4z M62.3,76.6c-0.1,0-0.2,0-0.3-0.1s-0.1-0.2-0.1-0.3c0-0.1,0-0.2,0.1-0.3
		c0.1-0.1,0.2-0.1,0.3-0.1s0.2,0,0.3,0.1s0.1,0.2,0.1,0.3c0,0.1,0,0.2-0.1,0.3S62.4,76.6,62.3,76.6z"/>
	<path class="st4" d="M66.5,76.5v-0.3c0-0.2,0-0.4,0.1-0.6c0-0.2,0.1-0.3,0.2-0.5c0.1-0.1,0.2-0.3,0.3-0.4s0.2-0.3,0.4-0.4
		c0.1-0.1,0.3-0.3,0.5-0.4s0.4-0.3,0.6-0.4s0.4-0.3,0.6-0.4s0.3-0.3,0.5-0.5c0.1-0.2,0.2-0.4,0.3-0.6c0.1-0.2,0.1-0.4,0.1-0.7
		c0-0.4-0.1-0.8-0.4-1s-0.6-0.4-1-0.4c-0.3,0-0.6,0.1-0.9,0.2s-0.6,0.3-0.8,0.6v-0.5c0.3-0.2,0.5-0.4,0.8-0.5s0.6-0.2,0.9-0.2
		s0.5,0,0.7,0.1s0.4,0.2,0.6,0.4c0.2,0.2,0.3,0.3,0.4,0.5s0.1,0.5,0.1,0.7c0,0.3,0,0.6-0.1,0.8c-0.1,0.2-0.2,0.5-0.4,0.7
		c-0.2,0.2-0.3,0.4-0.5,0.5c-0.2,0.2-0.4,0.3-0.7,0.5c-0.3,0.2-0.6,0.4-0.8,0.6c-0.2,0.2-0.4,0.3-0.5,0.5s-0.2,0.3-0.3,0.5
		C67,75.6,67,75.8,67,76.1v0.1h3.4v0.4L66.5,76.5L66.5,76.5z"/>
	<path class="st4" d="M73.5,76.7c-0.6,0-1.1-0.3-1.5-0.9s-0.5-1.4-0.5-2.5c0-1.2,0.2-2.1,0.6-2.7s0.9-0.9,1.6-0.9c1.3,0,2,1.2,2,3.5
		c0,1.2-0.2,2-0.6,2.6C74.7,76.3,74.2,76.7,73.5,76.7z M73.6,70c-0.5,0-0.9,0.3-1.2,0.8c-0.3,0.5-0.4,1.3-0.4,2.4
		c0,1,0.1,1.7,0.4,2.2s0.7,0.8,1.2,0.8s0.9-0.3,1.2-0.8c0.3-0.5,0.4-1.3,0.4-2.3C75.2,71.1,74.7,70,73.6,70z"/>
	<path class="st4" d="M81.2,73.2c0,0.4-0.1,0.6-0.3,0.8s-0.5,0.3-0.8,0.3s-0.6-0.1-1-0.4c-0.3-0.3-0.6-0.4-0.8-0.4
		c-0.4,0-0.7,0.3-0.7,0.8h-0.4c0-0.4,0.1-0.6,0.3-0.8c0.2-0.2,0.5-0.3,0.8-0.3s0.6,0.1,0.9,0.4c0.2,0.2,0.4,0.3,0.5,0.3
		c0.1,0.1,0.2,0.1,0.4,0.1c0.4,0,0.7-0.3,0.7-0.8H81.2z"/>
	<path class="st4" d="M82.9,76.3v-0.5c0.5,0.3,1,0.5,1.5,0.5s1-0.1,1.3-0.4s0.5-0.6,0.5-1.1s-0.2-0.9-0.5-1.1
		c-0.4-0.3-0.9-0.4-1.5-0.4h-0.5v-0.4H84c0.6,0,1.1-0.1,1.4-0.4s0.5-0.6,0.5-1.1c0-0.4-0.1-0.7-0.3-1c-0.2-0.2-0.6-0.3-1-0.3
		s-0.9,0.1-1.3,0.4V70c0.5-0.3,1-0.4,1.4-0.4c0.5,0,1,0.1,1.3,0.4s0.5,0.7,0.5,1.2c0,0.9-0.4,1.5-1.3,1.8l0,0c0.5,0,0.9,0.2,1.1,0.5
		c0.3,0.3,0.4,0.7,0.4,1.2c0,0.6-0.2,1.1-0.6,1.4c-0.4,0.4-0.9,0.5-1.6,0.5C83.9,76.7,83.4,76.5,82.9,76.3z"/>
	<path class="st4" d="M88.2,76.4v-0.5c0.4,0.2,0.9,0.4,1.3,0.4c0.6,0,1-0.2,1.3-0.5s0.5-0.7,0.5-1.2c0-1.1-0.6-1.7-1.9-1.7
		c-0.3,0-0.6,0-1,0.1l0.2-3.2h2.8v0.4H89l-0.2,2.4c0.3,0,0.6,0,0.7,0c0.7,0,1.3,0.2,1.6,0.5c0.4,0.4,0.6,0.8,0.6,1.5
		c0,0.6-0.2,1.2-0.6,1.5s-1,0.6-1.7,0.6C88.9,76.7,88.5,76.6,88.2,76.4z"/>
	<path class="st4" d="M94.4,73.1c-0.5,0-0.9-0.2-1.2-0.5s-0.4-0.7-0.4-1.2c0-0.6,0.2-1,0.4-1.3c0.3-0.3,0.7-0.5,1.2-0.5
		s0.9,0.2,1.1,0.5c0.3,0.3,0.4,0.7,0.4,1.3c0,0.5-0.1,0.9-0.4,1.2C95.2,72.9,94.8,73.1,94.4,73.1z M94.4,70c-0.4,0-0.7,0.1-0.9,0.4
		c-0.2,0.2-0.3,0.6-0.3,1s0.1,0.7,0.3,1c0.2,0.2,0.5,0.4,0.8,0.4c0.4,0,0.6-0.1,0.8-0.4s0.3-0.6,0.3-1s-0.1-0.8-0.3-1
		C95,70.1,94.7,70,94.4,70z M94.4,76.7h-0.5l4.1-7h0.5L94.4,76.7z M98.1,76.7c-0.5,0-0.9-0.2-1.2-0.5s-0.4-0.7-0.4-1.2
		c0-0.6,0.2-1,0.5-1.3s0.7-0.5,1.2-0.5s0.9,0.2,1.1,0.5s0.4,0.7,0.4,1.3c0,0.5-0.1,0.9-0.4,1.2S98.6,76.7,98.1,76.7z M98.1,73.6
		c-0.4,0-0.6,0.1-0.9,0.4s-0.3,0.6-0.3,1s0.1,0.7,0.3,1c0.2,0.2,0.5,0.4,0.8,0.4c0.4,0,0.6-0.1,0.9-0.4s0.3-0.6,0.3-1
		s-0.1-0.8-0.3-1C98.7,73.7,98.5,73.6,98.1,73.6z"/>
</g>
</svg>
