<?xml version="1.0" encoding="utf-8"?>
<!-- Generator: Adobe Illustrator 22.1.0, SVG Export Plug-In . SVG Version: 6.00 Build 0)  -->
<svg version="1.1" id="图层_1" xmlns="http://www.w3.org/2000/svg" xmlns:xlink="http://www.w3.org/1999/xlink" x="0px" y="0px"
	 viewBox="0 0 262 234" style="enable-background:new 0 0 262 234;" xml:space="preserve">
<style type="text/css">
	.st0{fill:#00A99E;}
	.st1{fill:#FFFFFF;}
	.st2{fill:#068474;}
	.st3{fill:#F5F5F5;}
</style>
<g>
	<g>
		<rect x="129.2" class="st0" width="4.1" height="20.1"/>
	</g>
</g>
<g>
	<g>
		<rect x="119" y="112.8" class="st1" width="4.8" height="9.6"/>
	</g>
</g>
<g>
	<g>
		<rect x="128.6" y="112.8" class="st1" width="4.8" height="9.6"/>
	</g>
</g>
<g>
	<g>
		<rect x="138.2" y="112.8" class="st1" width="4.8" height="9.6"/>
	</g>
</g>
<g>
	<g>
		<rect x="119" y="129.7" class="st1" width="4.8" height="9.6"/>
	</g>
</g>
<g>
	<g>
		<rect x="128.6" y="129.7" class="st1" width="4.8" height="9.6"/>
	</g>
</g>
<g>
	<g>
		<rect x="138.2" y="129.7" class="st1" width="4.8" height="9.6"/>
	</g>
</g>
<g>
	<g>
		<rect x="119" y="146.6" class="st1" width="4.8" height="9.6"/>
	</g>
</g>
<g>
	<g>
		<rect x="128.6" y="146.6" class="st1" width="4.8" height="9.6"/>
	</g>
</g>
<g>
	<g>
		<rect x="138.2" y="146.6" class="st1" width="4.8" height="9.6"/>
	</g>
</g>
<g>
	<g>
		<rect x="119" y="163.3" class="st1" width="4.8" height="9.6"/>
	</g>
</g>
<g>
	<g>
		<rect x="128.6" y="163.3" class="st1" width="4.8" height="9.6"/>
	</g>
</g>
<g>
	<g>
		<rect x="138.2" y="163.3" class="st1" width="4.8" height="9.6"/>
	</g>
</g>
<g>
	<g>
		<path class="st0" d="M149.1,56.3V32.1h-15.7h-4.8h-14.4v24h-8.4v160.1h50.6v-160H149.1z M123.8,203.1h-4.8v-9.6h4.8V203.1z
			 M123.8,187.7h-4.8v-9.6h4.8V187.7z M123.8,173h-4.8v-9.6h4.8V173z M123.8,156.2h-4.8v-9.6h4.8V156.2z M123.8,139.3h-4.8v-9.6h4.8
			V139.3z M123.8,122.4h-4.8v-9.6h4.8V122.4z M123.8,105.6h-4.8V96h4.8V105.6z M123.8,88.8h-4.8v-9.6h4.8V88.8z M123.8,71.9h-4.8
			v-9.6h4.8V71.9z M123.8,50.2h-4.8v-9.6h4.8V50.2z M133.5,203.1h-4.8v-9.6h4.8V203.1z M133.5,187.7h-4.8v-9.6h4.8V187.7z
			 M133.5,173h-4.8v-9.6h4.8V173z M133.5,156.2h-4.8v-9.6h4.8V156.2z M133.5,139.3h-4.8v-9.6h4.8V139.3z M133.5,122.4h-4.8v-9.6h4.8
			V122.4z M133.5,105.6h-4.8V96h4.8V105.6z M133.5,88.8h-4.8v-9.6h4.8V88.8z M133.5,71.9h-4.8v-9.6h4.8V71.9z M133.5,50.2h-4.8v-9.6
			h4.8V50.2z M143.1,203.1h-4.8v-9.6h4.8V203.1z M143.1,187.7h-4.8v-9.6h4.8V187.7z M143.1,173h-4.8v-9.6h4.8V173z M143.1,156.2
			h-4.8v-9.6h4.8V156.2z M143.1,139.3h-4.8v-9.6h4.8V139.3z M143.1,122.4h-4.8v-9.6h4.8V122.4z M143.1,105.6h-4.8V96h4.8V105.6z
			 M143.1,88.8h-4.8v-9.6h4.8V88.8z M143.1,71.9h-4.8v-9.6h4.8V71.9z M143.1,50.2h-4.8v-9.6h4.8V50.2z"/>
	</g>
</g>
<g>
	<g>
		<rect x="119.7" y="21.1" class="st0" width="23.3" height="8.3"/>
	</g>
</g>
<g>
	<g>
		<rect x="114.2" y="30.7" class="st0" width="34.9" height="9.5"/>
	</g>
</g>
<g>
	<g>
		<rect x="99" y="212.5" class="st0" width="64" height="7.6"/>
	</g>
</g>
<g>
	<g>
		<polygon class="st2" points="115.7,102.2 103.7,102.2 103.7,66.9 115.7,66.9 115.7,67.4 104,67.4 104,101.7 115.7,101.7 		"/>
	</g>
</g>
<g>
	<g>
		<polygon class="st2" points="162.3,200.9 145.6,200.9 145.6,200.4 161.9,200.4 161.9,117.9 145.6,117.9 145.6,117.4 162.3,117.4 
					"/>
	</g>
</g>
<g>
	<g>
		<polygon class="st2" points="145.6,55.6 145.3,55.1 152.3,48.5 235.2,48.5 235.2,49 152.5,49 		"/>
	</g>
</g>
<g>
	<g>
		<circle class="st2" cx="145.5" cy="55.4" r="1.2"/>
	</g>
</g>
<g>
	<g>
		<circle class="st2" cx="116.3" cy="67.1" r="1.2"/>
	</g>
</g>
<g>
	<g>
		<circle class="st2" cx="116.3" cy="102.2" r="1.2"/>
	</g>
</g>
<g>
	<g>
		<circle class="st2" cx="145.1" cy="117.7" r="1.2"/>
	</g>
</g>
<g>
	<g>
		<circle class="st2" cx="145.6" cy="200.6" r="1.2"/>
	</g>
</g>
<g>
	<g>
		<rect x="5.1" y="83.8" class="st2" width="98.5" height="0.5"/>
	</g>
</g>
<g>
	<g>
		<rect x="162.1" y="159.4" class="st2" width="96.5" height="0.5"/>
	</g>
</g>
<g>
	<path d="M158.2,34.6h3.3V44c0,0.8-0.3,1.2-1.2,1.2c-0.1,0-0.3,0-0.4,0c-0.1,0-0.1,0-0.2,0c-0.1,0-0.1,0-0.3,0
		c0-0.2-0.1-0.4-0.1-0.6c0.3,0,0.5,0,0.8,0c0.3,0,0.5,0,0.6-0.1s0.1-0.3,0.1-0.5v-2.8h-2.1c0,0.1,0,0.3,0,0.4c0,1.6-0.3,2.8-1,3.8
		c-0.2-0.1-0.3-0.3-0.6-0.4c0.4-0.6,0.6-1.1,0.7-1.6c0.1-0.5,0.2-1.3,0.2-2.3v-6.5H158.2z M158.8,35.2v2.4h2.1v-2.4H158.8z
		 M158.8,38.2v2.5h2.1v-2.5H158.8z M162.4,40.1v-0.6h5.4v0.6c-0.6,1.3-1.3,2.4-2.1,3.1c0.7,0.5,1.7,1,3,1.4
		c-0.1,0.2-0.3,0.4-0.4,0.6c-1.4-0.5-2.4-1-3.1-1.6c-0.7,0.6-1.8,1.2-3.2,1.8c-0.1-0.2-0.2-0.3-0.4-0.6c1.4-0.6,2.4-1.1,3.1-1.7
		c-0.7-0.7-1.3-1.7-1.8-3.1h-0.4V40.1z M167.9,38c0.2,0,0.4,0,0.5,0s0.2,0,0.3,0c-0.1,0.2-0.1,0.4-0.1,0.6c-0.1,0-0.2,0-0.4,0
		c-0.1,0-0.1,0-0.2,0c-0.1,0-0.2,0-0.3,0c-0.8,0-1.2-0.4-1.2-1.3v-2H164v0.4c0,1-0.1,1.6-0.3,2.1s-0.7,0.9-1.4,1.4
		c-0.1-0.1-0.3-0.3-0.4-0.5c0.7-0.4,1.1-0.8,1.3-1.1c0.2-0.4,0.3-1,0.3-1.8v-1h3.7v2.5c0,0.3,0.1,0.5,0.2,0.6
		C167.4,38,167.6,38.1,167.9,38z M167.1,40.1h-3.5c0.5,1.2,1,2.1,1.6,2.7C165.9,42.2,166.5,41.3,167.1,40.1z"/>
	<path d="M169.7,40.2c-0.1-0.3-0.2-0.5-0.3-0.7c1.1-1.5,2-3.3,2.7-5.5l0.7,0.2c-0.4,1-0.8,2-1.3,3v8.1H171v-7
		C170.5,39,170.2,39.6,169.7,40.2z M172.9,39.3c-0.2-0.2-0.3-0.3-0.5-0.5c1.3-1.1,2.3-2.5,3-4.1l0.6,0.2
		C175.2,36.6,174.2,38,172.9,39.3z M173.6,39.2h5.7c0,1.6-0.1,3-0.2,4.2c0,1.1-0.7,1.7-1.9,1.7c-0.2,0-0.4,0-0.6,0
		c-0.1,0-0.2,0-0.3,0s-0.3,0-0.5,0c0-0.2-0.1-0.4-0.2-0.7c0.5,0,1,0,1.5,0c0.8,0,1.3-0.4,1.3-1.2c0.1-1.2,0.1-2.3,0.2-3.5h-2.9
		c0,2.4-0.9,4.2-2.7,5.7c-0.2-0.2-0.3-0.4-0.5-0.5c1.8-1.2,2.6-2.9,2.6-5.1h-1.4L173.6,39.2L173.6,39.2z M177.1,34.3l0.6-0.2
		c0.7,1.9,1.8,3.3,3.2,4.2c-0.2,0.2-0.3,0.4-0.5,0.6C178.8,37.8,177.7,36.3,177.1,34.3z"/>
	<path d="M182.7,38.3c-0.1,0-0.3-0.1-0.4-0.2c-0.1-0.1-0.1-0.2-0.1-0.4c0-0.1,0-0.3,0.1-0.4s0.2-0.1,0.4-0.1s0.3,0,0.4,0.1
		s0.2,0.2,0.2,0.4c0,0.1-0.1,0.3-0.2,0.4C183,38.3,182.8,38.3,182.7,38.3z M182.7,44c-0.1,0-0.3,0-0.4-0.1c-0.1-0.1-0.1-0.2-0.1-0.4
		c0-0.1,0-0.3,0.1-0.4c0.1-0.1,0.2-0.1,0.4-0.1s0.3,0,0.4,0.1c0.1,0.1,0.2,0.2,0.2,0.4c0,0.1-0.1,0.3-0.2,0.4
		C183,44,182.8,44,182.7,44z"/>
	<path d="M191.1,34.5v9.4h-0.6v-8.4c-0.3,0.3-0.6,0.5-1,0.7s-0.8,0.4-1.2,0.5v-0.5c0.3-0.1,0.5-0.2,0.7-0.3s0.4-0.2,0.7-0.4
		c0.2-0.1,0.4-0.3,0.6-0.4c0.2-0.2,0.4-0.3,0.6-0.5h0.2V34.5z"/>
	<path d="M193.4,43.7V43c0.6,0.3,1.2,0.5,1.7,0.5c0.7,0,1.3-0.2,1.7-0.6s0.6-1,0.6-1.6c0-1.5-0.8-2.2-2.5-2.2c-0.4,0-0.8,0-1.3,0.1
		l0.3-4.3h3.8v0.5h-3.3l-0.2,3.2c0.4,0,0.7-0.1,0.9-0.1c1,0,1.7,0.2,2.2,0.7c0.5,0.5,0.7,1.1,0.7,2c0,0.8-0.3,1.5-0.8,2.1
		c-0.5,0.5-1.3,0.8-2.2,0.8C194.4,44.1,193.9,43.9,193.4,43.7z"/>
	<path d="M206,39.4c0,0.5-0.2,0.9-0.4,1.1c-0.3,0.3-0.6,0.4-1,0.4s-0.8-0.2-1.3-0.5c-0.4-0.4-0.8-0.5-1.1-0.5c-0.6,0-0.9,0.3-1,1
		h-0.5c0-0.5,0.2-0.9,0.4-1.1c0.3-0.3,0.6-0.4,1-0.4s0.8,0.2,1.2,0.5c0.3,0.2,0.5,0.4,0.7,0.5c0.1,0.1,0.3,0.1,0.5,0.1
		c0.6,0,0.9-0.3,1-1h0.5V39.4z"/>
	<path d="M208.2,43.9v-0.4c0-0.3,0-0.5,0.1-0.8c0-0.2,0.1-0.4,0.2-0.6c0.1-0.2,0.2-0.4,0.4-0.5c0.1-0.2,0.3-0.3,0.5-0.5
		s0.4-0.3,0.6-0.5c0.2-0.2,0.5-0.4,0.8-0.6c0.3-0.2,0.5-0.4,0.8-0.6s0.4-0.4,0.6-0.6c0.2-0.2,0.3-0.5,0.4-0.7s0.2-0.6,0.2-0.9
		c0-0.6-0.2-1.1-0.5-1.4c-0.3-0.3-0.8-0.5-1.4-0.5c-0.4,0-0.8,0.1-1.2,0.3c-0.4,0.2-0.7,0.4-1.1,0.7v-0.7c0.3-0.3,0.7-0.5,1.1-0.6
		c0.4-0.2,0.8-0.2,1.2-0.2s0.7,0.1,1,0.2c0.3,0.1,0.5,0.3,0.8,0.5c0.2,0.2,0.4,0.4,0.5,0.7s0.2,0.6,0.2,1s-0.1,0.8-0.2,1.1
		c-0.1,0.3-0.3,0.6-0.5,0.9s-0.4,0.5-0.7,0.7s-0.6,0.4-0.9,0.7c-0.4,0.3-0.8,0.5-1,0.8c-0.3,0.2-0.5,0.4-0.7,0.7
		c-0.2,0.2-0.3,0.4-0.4,0.7c-0.1,0.2-0.1,0.5-0.1,0.8v-0.2h4.5v0.5H208.2z"/>
	<path d="M217.6,44.1c-0.8,0-1.5-0.4-2-1.1s-0.7-1.9-0.7-3.3c0-1.6,0.2-2.8,0.7-3.7c0.5-0.8,1.2-1.2,2.1-1.2c1.7,0,2.6,1.5,2.6,4.6
		c0,1.5-0.2,2.7-0.7,3.5C219.2,43.7,218.5,44.1,217.6,44.1z M217.7,35.2c-0.7,0-1.2,0.4-1.6,1.1c-0.4,0.7-0.6,1.8-0.6,3.2
		c0,1.3,0.2,2.3,0.6,3c0.4,0.7,0.9,1,1.6,1c0.7,0,1.2-0.4,1.6-1.1c0.4-0.7,0.6-1.7,0.6-3C219.8,36.6,219.1,35.2,217.7,35.2z"/>
	<path d="M223.7,39.3c-0.6,0-1.2-0.2-1.5-0.6c-0.4-0.4-0.6-1-0.6-1.7s0.2-1.3,0.6-1.7c0.4-0.4,0.9-0.6,1.6-0.6
		c0.6,0,1.1,0.2,1.5,0.6c0.4,0.4,0.6,1,0.6,1.7s-0.2,1.2-0.6,1.6C224.9,39.1,224.3,39.3,223.7,39.3z M223.8,35.2
		c-0.5,0-0.9,0.2-1.1,0.5c-0.3,0.3-0.4,0.8-0.4,1.3s0.1,1,0.4,1.3c0.3,0.3,0.6,0.5,1.1,0.5s0.9-0.2,1.1-0.5c0.3-0.3,0.4-0.8,0.4-1.3
		c0-0.6-0.1-1-0.4-1.3C224.6,35.3,224.2,35.2,223.8,35.2z M223.7,44.1h-0.6l5.6-9.4h0.6L223.7,44.1z M228.7,44.1
		c-0.6,0-1.2-0.2-1.5-0.6c-0.4-0.4-0.6-1-0.6-1.7c0-0.7,0.2-1.3,0.6-1.7c0.4-0.4,0.9-0.6,1.6-0.6s1.1,0.2,1.5,0.6
		c0.4,0.4,0.6,1,0.6,1.7c0,0.7-0.2,1.2-0.6,1.6C229.8,43.8,229.3,44.1,228.7,44.1z M228.7,39.9c-0.5,0-0.9,0.2-1.1,0.5
		c-0.2,0.3-0.4,0.8-0.4,1.3c0,0.5,0.1,1,0.4,1.3s0.6,0.5,1.1,0.5s0.9-0.2,1.1-0.5c0.3-0.3,0.4-0.8,0.4-1.3c0-0.6-0.1-1-0.4-1.3
		C229.5,40.1,229.2,39.9,228.7,39.9z"/>
</g>
<g>
	<path d="M12.4,78.3v-4.1H7.5v4.1H6.9v-8.6h0.6v3.9h4.9v-3.9h0.6v8.6H12.4z"/>
	<path d="M17.5,78.4c-0.9,0-1.6-0.3-2.1-0.9c-0.5-0.6-0.8-1.3-0.8-2.3s0.3-1.8,0.8-2.4c0.5-0.6,1.3-0.9,2.1-0.9c0.9,0,1.5,0.3,2,0.8
		c0.5,0.6,0.8,1.3,0.8,2.3c0,0.9-0.3,1.7-0.8,2.3C19.1,78.1,18.4,78.4,17.5,78.4z M17.5,72.4c-0.7,0-1.3,0.2-1.7,0.7
		c-0.4,0.5-0.6,1.2-0.6,2s0.2,1.4,0.6,1.9s1,0.7,1.7,0.7c0.7,0,1.3-0.2,1.7-0.7s0.6-1.1,0.6-2s-0.2-1.5-0.6-2
		C18.8,72.7,18.3,72.4,17.5,72.4z"/>
	<path d="M24.4,70.2v8.1h-0.6v-8.1h-2.5v-0.5h5.6v0.5H24.4z"/>
	<path d="M27.7,69.4h5.4v0.5h-5.4V69.4z M28.5,79.5H28V74h5.1v4.4c0.1,0.7-0.3,1-1,1c-0.2,0-0.4,0-0.7,0c0-0.2-0.1-0.4-0.1-0.6
		c0.1,0,0.4,0,0.7,0c0.2,0,0.4,0,0.4-0.1c0.1-0.1,0.1-0.2,0.1-0.5v-3.7h-3.9C28.5,74.5,28.5,79.5,28.5,79.5z M28.4,70.8h4.1V73h-4.1
		C28.4,73,28.4,70.8,28.4,70.8z M28.9,76.6h1.7c0.3-0.5,0.5-1.1,0.8-1.8l0.5,0.2c0,0.1-0.1,0.2-0.2,0.3c-0.3,0.6-0.5,1-0.6,1.3h0.9
		v0.5h-1.3v2.1h-0.5v-2.1h-1.3V76.6z M28.9,71.3v1.3h3v-1.3H28.9z M29,75l0.5-0.2c0.2,0.4,0.5,0.9,0.7,1.4l-0.5,0.2
		c-0.1-0.3-0.3-0.7-0.6-1.2C29,75.1,29,75,29,75z M33.5,79.3l-0.1-0.6c0.5,0,1.3-0.1,2.1-0.2v-3h-1.1v0.9h-0.5V71h1.7v-2h0.5v2h1.7
		v4.5h-1.7v2.9c0.6-0.1,1-0.1,1.4-0.1c-0.1-0.6-0.3-1.2-0.5-1.8l0.5-0.1c0.3,1.2,0.6,2.2,0.8,2.9l-0.5,0.1c0-0.1-0.1-0.2-0.1-0.4
		c0-0.1,0-0.2,0-0.2C35.6,79,34.2,79.2,33.5,79.3z M34.4,71.5V75h1.1v-3.5H34.4z M37.2,71.5h-1.1V75h1.1V71.5z"/>
	<path d="M38.9,73.4c0.9-0.6,1.8-1.3,2.7-2c0,0.1,0.1,0.3,0.3,0.5c-0.8,0.6-1.7,1.3-2.5,2L38.9,73.4z M44,75.6h0.6
		c0,0.4,0,0.8-0.1,1.2v0.1c0,0.1,0,0.2-0.1,0.3c1.4,0.5,3,1.2,4.7,1.8l-0.3,0.6c-1.7-0.8-3.2-1.4-4.6-1.9c-0.5,0.8-2,1.5-4.6,2
		c-0.1-0.2-0.2-0.4-0.3-0.6c2.9-0.4,4.5-1.1,4.7-2.3C44,76.4,44,76,44,75.6z M41.2,70.9c-0.6-0.5-1.1-0.9-1.7-1.3l0.4-0.4
		c0.5,0.4,1.1,0.8,1.7,1.3L41.2,70.9z M40.6,74.3h7.4v3.2h-0.5v-2.7h-6.3v2.7h-0.6V74.3z M42.4,73.9c-0.1-0.2-0.2-0.4-0.4-0.5
		c2.2-0.5,3.4-1.5,3.6-2.9h-1.8c-0.3,0.5-0.7,1-1.1,1.5c-0.2-0.2-0.3-0.3-0.5-0.4c0.8-0.8,1.4-1.6,1.7-2.6l0.6,0.2
		c-0.1,0.3-0.3,0.6-0.4,0.9h5.1v0.5l-0.7,1.2c-0.2-0.1-0.3-0.1-0.6-0.2l0.6-1.2h-2.3c0,0.1,0,0.2-0.1,0.3c0.5,1.4,1.7,2.3,3.4,2.7
		c-0.1,0.2-0.2,0.4-0.3,0.5c-1.7-0.5-2.8-1.3-3.3-2.5C45.5,72.5,44.4,73.3,42.4,73.9z"/>
	<path d="M51.3,72.9c-0.1,0-0.2,0-0.3-0.1s-0.1-0.2-0.1-0.3s0-0.2,0.1-0.3c0.1-0.1,0.2-0.1,0.3-0.1s0.3,0,0.3,0.1s0.1,0.2,0.1,0.3
		s0,0.3-0.1,0.3C51.6,72.9,51.4,72.9,51.3,72.9z M51.3,78.4c-0.1,0-0.2,0-0.3-0.1s-0.1-0.2-0.1-0.3c0-0.1,0-0.3,0.1-0.3
		c0.1-0.1,0.2-0.1,0.3-0.1s0.3,0,0.3,0.1c0,0.1,0.1,0.2,0.1,0.3c0,0.1,0,0.2-0.1,0.3C51.6,78.3,51.4,78.4,51.3,78.4z"/>
	<path d="M56.6,78.3v-0.4c0-0.3,0-0.5,0.1-0.7c0-0.2,0.1-0.4,0.2-0.6c0.1-0.2,0.2-0.3,0.3-0.5s0.3-0.3,0.5-0.5s0.4-0.3,0.6-0.5
		c0.2-0.2,0.5-0.3,0.7-0.5c0.3-0.2,0.5-0.4,0.7-0.5c0.2-0.2,0.4-0.4,0.6-0.6c0.2-0.2,0.3-0.4,0.4-0.7c0.1-0.3,0.1-0.5,0.1-0.9
		c0-0.6-0.2-1-0.5-1.3S59.6,70,59,70c-0.4,0-0.7,0.1-1.1,0.2c-0.4,0.2-0.7,0.4-1,0.7v-0.6c0.3-0.2,0.7-0.4,1.1-0.6
		c0.4-0.1,0.8-0.2,1.2-0.2c0.3,0,0.6,0.1,0.9,0.2c0.3,0.1,0.5,0.3,0.7,0.4c0.2,0.2,0.3,0.4,0.5,0.7c0.1,0.3,0.2,0.6,0.2,0.9
		c0,0.4-0.1,0.7-0.2,1c-0.1,0.3-0.3,0.6-0.5,0.8c-0.2,0.2-0.4,0.5-0.7,0.7s-0.5,0.4-0.8,0.6c-0.4,0.3-0.7,0.5-1,0.7
		s-0.5,0.4-0.6,0.6c-0.2,0.2-0.3,0.4-0.4,0.6c-0.1,0.2-0.1,0.5-0.1,0.7v0.3h4.2v0.5H56.6z"/>
	<path d="M65.4,78.4c-0.8,0-1.4-0.4-1.8-1.1c-0.4-0.7-0.7-1.8-0.7-3.1c0-1.5,0.2-2.7,0.7-3.4c0.5-0.8,1.1-1.2,2-1.2
		c1.6,0,2.5,1.5,2.5,4.4c0,1.4-0.2,2.5-0.7,3.3C66.9,78,66.2,78.4,65.4,78.4z M65.5,70c-0.7,0-1.2,0.3-1.5,1c-0.4,0.7-0.5,1.7-0.5,3
		c0,1.2,0.2,2.2,0.5,2.8c0.3,0.7,0.8,1,1.5,1c0.6,0,1.1-0.3,1.5-1c0.3-0.7,0.5-1.6,0.5-2.9C67.4,71.3,66.8,70,65.5,70z"/>
	<path d="M75.1,73.9c0,0.4-0.2,0.8-0.4,1.1c-0.2,0.3-0.6,0.4-1,0.4s-0.8-0.2-1.2-0.5c-0.4-0.3-0.8-0.5-1-0.5c-0.6,0-0.9,0.3-0.9,0.9
		H70c0-0.4,0.2-0.8,0.4-1.1c0.2-0.3,0.6-0.4,1-0.4s0.8,0.2,1.2,0.5c0.3,0.2,0.5,0.4,0.6,0.4c0.1,0.1,0.3,0.1,0.5,0.1
		c0.5,0,0.8-0.3,0.9-0.9H75.1z"/>
	<path d="M77.2,78v-0.6c0.6,0.4,1.3,0.6,1.8,0.6c0.7,0,1.2-0.2,1.6-0.5c0.4-0.3,0.6-0.8,0.6-1.4s-0.2-1.1-0.7-1.4
		c-0.4-0.3-1.1-0.5-1.9-0.5h-0.7v-0.5h0.6c0.8,0,1.3-0.2,1.7-0.5c0.4-0.3,0.6-0.8,0.6-1.4c0-0.5-0.1-0.9-0.4-1.2
		c-0.3-0.3-0.7-0.4-1.3-0.4c-0.5,0-1.1,0.2-1.7,0.6v-0.6c0.6-0.3,1.2-0.5,1.8-0.5c0.7,0,1.2,0.2,1.6,0.5c0.4,0.4,0.6,0.8,0.6,1.4
		c0,1.2-0.6,1.9-1.7,2.2l0,0c0.6,0.1,1.1,0.3,1.4,0.7c0.4,0.4,0.5,0.9,0.5,1.4c0,0.7-0.3,1.3-0.8,1.8c-0.5,0.5-1.2,0.7-2,0.7
		C78.4,78.4,77.8,78.3,77.2,78z"/>
	<path d="M83.9,78.1v-0.6c0.5,0.3,1.1,0.4,1.6,0.4c0.7,0,1.2-0.2,1.6-0.6c0.4-0.4,0.6-0.9,0.6-1.5c0-1.4-0.8-2.1-2.4-2.1
		c-0.4,0-0.8,0-1.2,0.1l0.3-4h3.5v0.5h-3l-0.2,3c0.4,0,0.7,0,0.9,0c0.9,0,1.6,0.2,2,0.7c0.5,0.4,0.7,1.1,0.7,1.8
		c0,0.8-0.2,1.4-0.7,1.9c-0.5,0.5-1.2,0.7-2.1,0.7C84.8,78.4,84.3,78.3,83.9,78.1z"/>
	<path d="M91.7,73.8c-0.6,0-1.1-0.2-1.4-0.6c-0.4-0.4-0.5-0.9-0.5-1.6s0.2-1.2,0.6-1.6s0.9-0.6,1.5-0.6s1.1,0.2,1.4,0.6
		s0.5,0.9,0.5,1.6c0,0.6-0.2,1.1-0.5,1.5C92.8,73.6,92.3,73.8,91.7,73.8z M91.7,70c-0.5,0-0.8,0.2-1.1,0.5c-0.3,0.3-0.4,0.7-0.4,1.3
		c0,0.5,0.1,0.9,0.4,1.2c0.3,0.3,0.6,0.4,1,0.4s0.8-0.2,1.1-0.5s0.4-0.7,0.4-1.2c0-0.6-0.1-1-0.4-1.3C92.5,70.1,92.2,70,91.7,70z
		 M91.7,78.5h-0.6l5.2-8.8h0.6L91.7,78.5z M96.3,78.4c-0.6,0-1.1-0.2-1.4-0.6c-0.4-0.4-0.5-0.9-0.5-1.6s0.2-1.2,0.6-1.6
		s0.9-0.6,1.5-0.6c0.6,0,1.1,0.2,1.4,0.6s0.5,0.9,0.5,1.6c0,0.6-0.2,1.1-0.5,1.5C97.6,78.1,96.9,78.4,96.3,78.4z M96.4,74.4
		c-0.4,0-0.8,0.2-1.1,0.5c-0.3,0.3-0.4,0.7-0.4,1.3c0,0.5,0.1,0.9,0.4,1.2c0.3,0.3,0.6,0.5,1.1,0.5c0.5,0,0.8-0.2,1.1-0.5
		c0.3-0.3,0.4-0.7,0.4-1.2c0-0.6-0.1-1-0.4-1.3C97.2,74.6,96.8,74.4,96.4,74.4z"/>
</g>
<g>
	<path d="M167.6,147.4c-0.1-0.1-0.2-0.3-0.4-0.4c0.7-0.9,1.3-2,1.7-3.4l0.6,0.2c-0.2,0.5-0.4,1-0.6,1.5h1.9v0.5h-2.2
		C168.4,146.2,168,146.8,167.6,147.4z M167.3,149.4h1.4v-1.8H168v-0.5h2.5v0.5h-1.3v1.8h1.6v0.5h-1.6v2.9c0.6-0.4,1.1-0.7,1.6-1
		c0,0.2,0.1,0.4,0.1,0.6c-0.5,0.3-1.1,0.6-1.7,1.1c-0.1,0.1-0.3,0.2-0.5,0.4l-0.4-0.4c0.2-0.2,0.3-0.5,0.3-0.7v-2.7h-1.4v-0.7H167.3
		z M171.7,144h5.2v5.1h-2.7c0.2,0.8,0.5,1.5,0.9,2c0.8-0.5,1.5-0.9,2.1-1.3l0.4,0.5c-0.6,0.4-1.3,0.8-2.2,1.3
		c0.5,0.6,1.3,1.2,2.5,1.8c-0.1,0.1-0.3,0.3-0.4,0.5c-2.1-1-3.4-2.6-3.9-4.7h-1.3v3.9c0.5-0.2,1.1-0.6,1.9-1c0,0.2,0,0.4,0.1,0.6
		c-0.7,0.3-1.3,0.6-2,1c-0.2,0.1-0.4,0.2-0.5,0.4l-0.4-0.5c0.2-0.2,0.3-0.5,0.3-0.8V144H171.7z M172.3,144.5v1.7h3.9v-1.7H172.3z
		 M172.3,148.5h3.9v-1.7h-3.9V148.5z"/>
	<path d="M178.4,150c1.1-0.9,2.1-2.1,3-3.7l0.5,0.3c-0.4,0.6-0.8,1.2-1.2,1.7v5.7h-0.6v-4.8c-0.5,0.5-0.9,1-1.4,1.5
		C178.6,150.4,178.5,150.2,178.4,150z M179,147c-0.1-0.2-0.2-0.4-0.4-0.6c1-0.8,1.9-1.8,2.7-2.9l0.5,0.3
		C181.1,145,180,146.1,179,147z M182.4,147.6h6.7v0.6h-2.2v4.1c0,0.9-0.4,1.4-1.4,1.4c-0.2,0-0.5,0-0.7,0c-0.1,0-0.2,0-0.3,0
		s-0.2,0-0.4,0c0-0.2-0.1-0.4-0.1-0.6c0.4,0,0.9,0,1.4,0c0.4,0,0.6-0.1,0.8-0.2c0.1-0.1,0.2-0.3,0.2-0.7v-4h-3.8v-0.6H182.4z
		 M183,144.3h5.4v0.6H183V144.3z"/>
	<path d="M189.7,144h5.3v0.5h-5.3V144z M190.5,153.8H190v-5.4h4.9v4.3c0,0.6-0.3,1-1,1c-0.2,0-0.4,0-0.7,0c0-0.2-0.1-0.4-0.1-0.5
		c0.1,0,0.4,0,0.7,0c0.2,0,0.4,0,0.4-0.1c0.1-0.1,0.1-0.2,0.1-0.5v-3.6h-3.8L190.5,153.8L190.5,153.8z M190.4,145.3h4v2.2h-4V145.3z
		 M190.9,151h1.6c0.3-0.5,0.5-1.1,0.8-1.7l0.5,0.2c0,0.1-0.1,0.2-0.2,0.3c-0.3,0.6-0.5,1-0.6,1.2h0.9v0.5h-1.3v2.1h-0.5v-2.1h-1.2
		V151z M191,145.9v1.2h2.9v-1.2H191z M191.1,149.5l0.5-0.2c0.2,0.4,0.5,0.9,0.7,1.3l-0.5,0.2c-0.1-0.3-0.3-0.7-0.6-1.2
		C191.1,149.6,191.1,149.5,191.1,149.5z M195.4,153.6l-0.1-0.6c0.5,0,1.2-0.1,2.1-0.2v-2.9h-1.1v0.9h-0.5v-5.3h1.6v-1.9h0.5v1.9h1.6
		v4.4h-1.6v2.9c0.6-0.1,1-0.1,1.4-0.1c-0.1-0.6-0.3-1.1-0.5-1.8l0.5-0.1c0.3,1.2,0.6,2.1,0.7,2.9l-0.5,0.1c0-0.1-0.1-0.2-0.1-0.4
		c0-0.1,0-0.2,0-0.2C197.4,153.4,196.1,153.5,195.4,153.6z M196.2,146.1v3.4h1.1v-3.4H196.2z M199,146.1h-1.1v3.4h1.1V146.1z"/>
	<path d="M200.6,148c0.9-0.6,1.8-1.3,2.6-1.9c0,0.1,0.1,0.3,0.3,0.5c-0.8,0.6-1.6,1.3-2.5,1.9L200.6,148z M205.7,150h0.6
		c0,0.4,0,0.8-0.1,1.1v0.1c0,0.1,0,0.2-0.1,0.3c1.4,0.5,2.9,1.1,4.6,1.8l-0.3,0.6c-1.7-0.7-3.2-1.4-4.5-1.9c-0.5,0.8-2,1.5-4.5,1.9
		c-0.1-0.2-0.2-0.4-0.3-0.6c2.8-0.4,4.4-1.1,4.6-2.3C205.7,150.8,205.7,150.4,205.7,150z M202.9,145.5c-0.5-0.4-1.1-0.9-1.7-1.3
		l0.4-0.4c0.5,0.4,1.1,0.8,1.7,1.2L202.9,145.5z M202.3,148.8h7.3v3.1h-0.6v-2.6h-6.1v2.6h-0.6L202.3,148.8L202.3,148.8z
		 M204.1,148.4c-0.1-0.2-0.2-0.4-0.4-0.5c2.2-0.5,3.3-1.4,3.5-2.9h-1.7c-0.3,0.5-0.7,1-1.1,1.5c-0.2-0.2-0.3-0.3-0.5-0.4
		c0.8-0.8,1.3-1.6,1.7-2.6l0.6,0.2c-0.1,0.3-0.3,0.6-0.4,0.9h4.9v0.5l-0.6,1.3c-0.1-0.1-0.3-0.1-0.6-0.2l0.6-1.1h-2.3
		c0,0.1,0,0.2-0.1,0.3c0.5,1.4,1.6,2.3,3.3,2.6c-0.1,0.2-0.2,0.4-0.3,0.5c-1.7-0.5-2.8-1.3-3.2-2.5C207.1,147,206,147.9,204.1,148.4
		z"/>
	<path d="M212.8,147.5c-0.1,0-0.2,0-0.3-0.1s-0.1-0.2-0.1-0.3s0-0.2,0.1-0.3s0.2-0.1,0.3-0.1s0.2,0,0.3,0.1s0.1,0.2,0.1,0.3
		s0,0.2-0.1,0.3C213.1,147.5,212.9,147.5,212.8,147.5z M212.8,152.7c-0.1,0-0.2,0-0.3-0.1s-0.1-0.2-0.1-0.3s0-0.2,0.1-0.3
		s0.2-0.1,0.3-0.1s0.2,0,0.3,0.1s0.1,0.2,0.1,0.3s0,0.2-0.1,0.3S212.9,152.7,212.8,152.7z"/>
	<path d="M218.3,152.4v-0.6c0.5,0.3,1.1,0.4,1.6,0.4c0.7,0,1.2-0.2,1.6-0.6s0.6-0.9,0.6-1.5c0-1.4-0.8-2-2.3-2c-0.3,0-0.7,0-1.2,0.1
		l0.3-4h3.5v0.5h-3l-0.2,3c0.4,0,0.7,0,0.9,0c0.9,0,1.5,0.2,2,0.6s0.7,1,0.7,1.8s-0.2,1.4-0.7,1.9s-1.2,0.7-2.1,0.7
		C219.3,152.8,218.8,152.6,218.3,152.4z"/>
	<path d="M226.6,152.8c-0.8,0-1.4-0.4-1.8-1.1c-0.4-0.7-0.6-1.7-0.6-3.1c0-1.5,0.2-2.6,0.7-3.4s1.1-1.1,1.9-1.1
		c1.6,0,2.4,1.4,2.4,4.3c0,1.4-0.2,2.5-0.7,3.2C228,152.3,227.4,152.8,226.6,152.8z M226.7,144.5c-0.6,0-1.1,0.3-1.5,1
		s-0.5,1.6-0.5,2.9c0,1.2,0.2,2.1,0.5,2.7c0.3,0.6,0.8,1,1.5,1c0.6,0,1.1-0.3,1.4-1s0.5-1.6,0.5-2.8
		C228.6,145.9,228,144.5,226.7,144.5z"/>
	<path d="M236.1,148.5c0,0.4-0.2,0.8-0.4,1s-0.6,0.4-1,0.4s-0.8-0.2-1.2-0.5s-0.7-0.5-1-0.5c-0.5,0-0.8,0.3-0.9,0.9h-0.3
		c0-0.4,0.2-0.8,0.4-1c0.2-0.3,0.6-0.4,1-0.4s0.7,0.2,1.1,0.5c0.3,0.2,0.5,0.4,0.6,0.4c0.1,0.1,0.3,0.1,0.5,0.1
		c0.5,0,0.8-0.3,0.9-0.9H236.1z"/>
	<path d="M242.8,144.3v0.6c-0.4-0.2-0.8-0.3-1.2-0.3c-0.4,0-0.8,0.1-1.1,0.3s-0.6,0.5-0.8,0.9s-0.4,0.8-0.5,1.3s-0.2,1.1-0.2,1.7
		l0,0c0.4-0.9,1.1-1.4,2.1-1.4c0.3,0,0.6,0.1,0.9,0.2s0.5,0.3,0.7,0.5s0.4,0.5,0.5,0.8s0.2,0.6,0.2,1s-0.1,0.8-0.2,1.1
		c-0.1,0.3-0.3,0.6-0.5,0.9c-0.2,0.2-0.5,0.4-0.8,0.6c-0.3,0.1-0.6,0.2-1,0.2s-0.7-0.1-1-0.2c-0.3-0.2-0.6-0.4-0.8-0.7
		s-0.4-0.7-0.5-1.2s-0.2-1-0.2-1.6c0-0.7,0.1-1.4,0.2-2c0.1-0.6,0.4-1.1,0.6-1.5s0.6-0.7,1-1c0.4-0.2,0.9-0.3,1.4-0.3
		C242,144,242.5,144.1,242.8,144.3z M240.9,147.9c-0.3,0-0.5,0.1-0.8,0.2s-0.4,0.3-0.6,0.5s-0.3,0.4-0.4,0.6
		c-0.1,0.2-0.1,0.5-0.1,0.7c0,0.3,0,0.6,0.1,0.9s0.2,0.5,0.4,0.8s0.4,0.4,0.6,0.5s0.5,0.2,0.8,0.2s0.5-0.1,0.7-0.2s0.4-0.3,0.6-0.5
		c0.2-0.2,0.3-0.4,0.4-0.7s0.1-0.6,0.1-0.9c0-0.3,0-0.6-0.1-0.9c-0.1-0.3-0.2-0.5-0.4-0.7s-0.3-0.3-0.6-0.4
		C241.3,147.9,241.2,147.9,240.9,147.9z"/>
	<path d="M246.8,152.8c-0.8,0-1.4-0.4-1.8-1.1c-0.4-0.7-0.6-1.7-0.6-3.1c0-1.5,0.2-2.6,0.7-3.4s1.1-1.1,1.9-1.1
		c1.6,0,2.4,1.4,2.4,4.3c0,1.4-0.2,2.5-0.7,3.2S247.6,152.8,246.8,152.8z M246.9,144.5c-0.6,0-1.1,0.3-1.5,1s-0.5,1.6-0.5,2.9
		c0,1.2,0.2,2.1,0.5,2.7c0.3,0.6,0.8,1,1.5,1c0.6,0,1.1-0.3,1.4-1s0.5-1.6,0.5-2.8C248.8,145.9,248.1,144.5,246.9,144.5z"/>
	<path d="M252.4,148.4c-0.6,0-1.1-0.2-1.4-0.6s-0.5-0.9-0.5-1.5c0-0.7,0.2-1.2,0.5-1.6s0.8-0.6,1.4-0.6c0.6,0,1,0.2,1.4,0.6
		c0.3,0.4,0.5,0.9,0.5,1.6c0,0.6-0.2,1.1-0.5,1.5C253.4,148.2,253,148.4,252.4,148.4z M252.4,144.5c-0.4,0-0.8,0.1-1.1,0.4
		c-0.3,0.3-0.4,0.7-0.4,1.2s0.1,0.9,0.4,1.2s0.6,0.4,1,0.4s0.8-0.2,1-0.5s0.4-0.7,0.4-1.2s-0.1-1-0.4-1.2
		C253.2,144.6,252.8,144.5,252.4,144.5z M252.4,152.8h-0.6l5.1-8.6h0.6L252.4,152.8z M256.9,152.8c-0.6,0-1.1-0.2-1.4-0.6
		s-0.5-0.9-0.5-1.5c0-0.7,0.2-1.2,0.6-1.6c0.4-0.4,0.8-0.6,1.4-0.6c0.6,0,1,0.2,1.4,0.6s0.5,0.9,0.5,1.6c0,0.6-0.2,1.1-0.5,1.5
		S257.5,152.8,256.9,152.8z M257,149c-0.4,0-0.8,0.2-1,0.5c-0.2,0.3-0.4,0.7-0.4,1.2s0.1,0.9,0.4,1.2c0.2,0.3,0.6,0.4,1,0.4
		s0.8-0.2,1-0.5c0.2-0.3,0.4-0.7,0.4-1.2s-0.1-1-0.4-1.2S257.4,149,257,149z"/>
</g>
<ellipse class="st3" cx="131.1" cy="230" rx="48.2" ry="4"/>
</svg>
