<?xml version="1.0" encoding="utf-8"?>
<!-- Generator: Adobe Illustrator 22.1.0, SVG Export Plug-In . SVG Version: 6.00 Build 0)  -->
<svg version="1.1" id="图层_1" xmlns="http://www.w3.org/2000/svg" xmlns:xlink="http://www.w3.org/1999/xlink" x="0px" y="0px"
	 viewBox="0 0 298 298" style="enable-background:new 0 0 298 298;" xml:space="preserve">
<style type="text/css">
	.st0{fill:none;stroke:#70DBCB;}
	.st1{fill:#00A99E;}
	.st2{fill:#FFFFFF;}
	.st3{fill:#F5F5F5;}
	.st4{fill:#E6E7E8;}
	.st5{fill:#FCFCFC;}
	.st6{fill:#F2F2F2;}
	.st7{enable-background:new    ;}
	.st8{fill:#58595B;}
	.st9{fill:#70DBCB;}
</style>
<g id="形状_2_9_">
	<path class="st0" d="M187.7,160.9"/>
</g>
<g id="形状_2_拷贝_9_">
	<path class="st0" d="M187.7,170.2"/>
</g>
<g>
	<g id="椭圆_12_6_">
		<circle class="st1" cx="56.8" cy="92.1" r="9.1"/>
	</g>
	<g id="XMLID_4_">
		<polygon class="st2" points="57.4,89.9 58.3,89.9 58.3,88.6 60.5,88.6 60.5,95.7 58.3,95.7 58.3,93.7 59.8,93.7 59.8,90.7 
			53.8,90.7 53.8,93.7 55.2,93.7 55.2,95.7 53,95.7 53,88.6 55.2,88.6 55.2,89.9 56.2,89.9 56.2,87.6 52.2,87.6 52.2,96.7 
			56.2,96.7 56.2,92.8 54.7,92.8 54.7,91.6 58.8,91.6 58.8,92.8 57.4,92.8 57.4,96.7 61.4,96.7 61.4,87.6 57.4,87.6 		"/>
	</g>
</g>
<g>
	<g id="椭圆_12_9_">
		<circle class="st1" cx="150.2" cy="252.2" r="9.1"/>
	</g>
	<g id="XMLID_10_">
		<polygon class="st2" points="150.8,250 151.7,250 151.7,248.7 153.9,248.7 153.9,255.8 151.7,255.8 151.7,253.8 153.2,253.8 
			153.2,250.8 147.2,250.8 147.2,253.8 148.6,253.8 148.6,255.8 146.4,255.8 146.4,248.7 148.6,248.7 148.6,250 149.6,250 
			149.6,247.7 145.6,247.7 145.6,256.8 149.6,256.8 149.6,252.9 148.1,252.9 148.1,251.7 152.2,251.7 152.2,252.9 150.8,252.9 
			150.8,256.8 154.8,256.8 154.8,247.7 150.8,247.7 		"/>
	</g>
</g>
<g>
	<g id="椭圆_12_8_">
		<circle class="st1" cx="240.9" cy="83" r="9.1"/>
	</g>
	<g id="XMLID_7_">
		<polygon class="st2" points="241.6,80.8 242.5,80.8 242.5,79.5 244.6,79.5 244.6,86.6 242.5,86.6 242.5,84.6 243.9,84.6 
			243.9,81.6 237.9,81.6 237.9,84.6 239.4,84.6 239.4,86.6 237.2,86.6 237.2,79.5 239.4,79.5 239.4,80.8 240.3,80.8 240.3,78.6 
			236.3,78.6 236.3,87.6 240.3,87.6 240.3,83.7 238.9,83.7 238.9,82.5 242.9,82.5 242.9,83.7 241.6,83.7 241.6,87.6 245.5,87.6 
			245.5,78.6 241.6,78.6 		"/>
	</g>
</g>
<g>
	<g id="圆角矩形_1_拷贝_16_">
		<path class="st3" d="M110,67.7l39-10c1.7-0.3,3.3-0.3,5,0.2l32.7,10.6c1.5,0.5,1.5,1.2,0.4,1.7l-34.3,12.4c-2,0.6-4.1,0.6-6.1,0.1
			l-37.5-13.1C107.7,69,108,68.1,110,67.7z"/>
	</g>
	<g id="矩形_46_16_">
		<path class="st4" d="M109,47.9l43.2,15.2v14.3L109,62.2V47.9L109,47.9z"/>
	</g>
	<g id="矩形_46_拷贝_16_">
		<path class="st4" d="M189,48.7l-37.6,14.3v14.3L189,63.1V48.7z"/>
	</g>
	<g id="圆角矩形_1_16_">
		<path class="st5" d="M110.8,46.9l39-10c1.7-0.3,3.3-0.3,5,0.2l32.7,10.6c1.5,0.5,1.5,1.2,0.4,1.7l-34.1,12.5
			c-2,0.6-4.1,0.6-6.1,0.1l-37.5-13.2C108.5,48.1,108.8,47.4,110.8,46.9z"/>
	</g>
	<g id="椭圆_11_16_">
		<ellipse class="st6" cx="151" cy="46.7" rx="17.9" ry="3.6"/>
	</g>
	<g class="st7">
		<g>
			<path class="st8" d="M168.5,39.6c0.8,0,1.3-0.5,1.3-1.3V16.8c0-0.8-0.5-1.3-1.3-1.3h-8.2v-0.9c0-0.5-0.2-0.9-0.8-1.2l-8.1-4.1
				V6.8L157,5c0.5-0.2,0.9-0.6,0.9-1.3c0-0.5-0.4-1-0.9-1.3l-6.4-2.1c-0.4-0.2-0.9-0.1-1.2,0.2c-0.3,0.2-0.5,0.6-0.5,1v7.7l-7.9,4
				c-0.5,0.2-0.8,0.6-0.8,1.2v0.9h-8.3c-0.8,0-1.3,0.5-1.3,1.3v21.6c0,0.8,0.5,1.3,1.3,1.3L168.5,39.6L168.5,39.6L168.5,39.6z
				 M151.6,4.4V3.1l2.8,0.8L151.6,4.4z M133.4,18h7v19h-7V18L133.4,18z M143,15.3l7.4-3.7l7.4,3.7V37h-14.7L143,15.3L143,15.3z
				 M167,37h-6.8V18h6.8V37z"/>
		</g>
		<g>
			<path class="st8" d="M148.2,17.6h-2.1c-0.8,0-1.3,0.5-1.3,1.3s0.5,1.3,1.3,1.3h2.1c0.8,0,1.3-0.5,1.3-1.3
				C149.7,18.2,148.9,17.6,148.2,17.6z"/>
		</g>
		<g>
			<path class="st8" d="M136,22.3h2.1c0.8,0,1.3-0.5,1.3-1.3s-0.5-1.3-1.3-1.3H136c-0.8,0-1.3,0.5-1.3,1.3
				C134.6,21.8,135.2,22.3,136,22.3z"/>
		</g>
		<g>
			<path class="st8" d="M138.2,24.1H136c-0.8,0-1.3,0.5-1.3,1.3s0.5,1.3,1.3,1.3h2.1c0.8,0,1.3-0.5,1.3-1.3S138.8,24.1,138.2,24.1z"
				/>
		</g>
		<g>
			<path class="st8" d="M138.2,28.4H136c-0.8,0-1.3,0.5-1.3,1.3s0.5,1.3,1.3,1.3h2.1c0.8,0,1.3-0.5,1.3-1.3S138.8,28.4,138.2,28.4z"
				/>
		</g>
		<g>
			<path class="st8" d="M162.6,22.3h2.1c0.8,0,1.3-0.5,1.3-1.3s-0.5-1.3-1.3-1.3h-2.1c-0.8,0-1.3,0.5-1.3,1.3S162,22.3,162.6,22.3z"
				/>
		</g>
		<g>
			<path class="st8" d="M162.6,26.6h2.1c0.8,0,1.3-0.5,1.3-1.3s-0.5-1.3-1.3-1.3h-2.1c-0.8,0-1.3,0.5-1.3,1.3S162,26.6,162.6,26.6z"
				/>
		</g>
		<g>
			<path class="st8" d="M164.8,28.4h-2.1c-0.8,0-1.3,0.5-1.3,1.3s0.5,1.3,1.3,1.3h2.1c0.8,0,1.3-0.5,1.3-1.3
				C166.1,29,165.6,28.4,164.8,28.4z"/>
		</g>
		<g>
			<path class="st8" d="M154.6,17.6h-2.1c-0.8,0-1.3,0.5-1.3,1.3s0.5,1.3,1.3,1.3h2.1c0.8,0,1.3-0.5,1.3-1.3
				C156,18.2,155.3,17.6,154.6,17.6z"/>
		</g>
		<g>
			<path class="st8" d="M148.2,21.9h-2.1c-0.8,0-1.3,0.5-1.3,1.3s0.5,1.3,1.3,1.3h2.1c0.8,0,1.3-0.5,1.3-1.3
				C149.7,22.5,148.9,21.9,148.2,21.9z"/>
		</g>
		<g>
			<path class="st8" d="M154.6,21.9h-2.1c-0.8,0-1.3,0.5-1.3,1.3s0.5,1.3,1.3,1.3h2.1c0.8,0,1.3-0.5,1.3-1.3
				C156,22.5,155.3,21.9,154.6,21.9z"/>
		</g>
		<g>
			<path class="st8" d="M148.2,26.2h-2.1c-0.8,0-1.3,0.5-1.3,1.3s0.5,1.3,1.3,1.3h2.1c0.8,0,1.3-0.5,1.3-1.3S148.9,26.2,148.2,26.2z
				"/>
		</g>
		<g>
			<path class="st8" d="M154.6,26.2h-2.1c-0.8,0-1.3,0.5-1.3,1.3s0.5,1.3,1.3,1.3h2.1c0.8,0,1.3-0.5,1.3-1.3
				C156,26.8,155.3,26.2,154.6,26.2z"/>
		</g>
	</g>
	<g id="矩形_48_10_">
		<line class="st9" x1="189" y1="56.4" x2="189" y2="55.5"/>
	</g>
</g>
<g>
	<g id="圆角矩形_1_拷贝_6_">
		<path class="st3" d="M111.4,176.7l39-10c1.7-0.3,3.3-0.3,5,0.2l32.7,10.6c1.5,0.5,1.5,1.2,0.4,1.7l-34.1,12.5
			c-2,0.6-4.1,0.6-6.1,0.1l-37.5-13.1C109,178.1,109.4,177.2,111.4,176.7z"/>
	</g>
	<g id="矩形_46_6_">
		<path class="st4" d="M108,156.9l43.2,15.2v14.3L108,171.3V156.9z"/>
	</g>
	<g id="矩形_46_拷贝_6_">
		<path class="st4" d="M188,157.8l-37.6,14.3v14.3l37.6-14.3V157.8z"/>
	</g>
	<g id="圆角矩形_1_6_">
		<path class="st5" d="M109.8,155.8l39-10c1.7-0.3,3.3-0.3,5,0.2l32.7,10.6c1.5,0.5,1.5,1.2,0.4,1.7l-34.1,12.5
			c-2,0.6-4.1,0.6-6.1,0.1l-37.5-13.2C107.4,157.2,107.8,156.4,109.8,155.8z"/>
	</g>
	<g id="椭圆_11_6_">
		<ellipse class="st6" cx="147.9" cy="157.9" rx="17.9" ry="1.4"/>
	</g>
	<g>
		<g>
			<g>
				<path class="st8" d="M148.2,136.2c-2.6,0-4.6-2.1-4.6-4.6c0-2.6,2.1-4.6,4.6-4.6c2.6,0,4.6,2.1,4.6,4.6
					C152.9,134.1,150.8,136.2,148.2,136.2z"/>
			</g>
			<g>
				<path class="st8" d="M138.3,144.9c0.4-3.4,3.2-6.2,6.8-6.2h6.2c3.6,0,6.5,2.6,6.8,6.2l0,0v1c0,0.9-0.7,1.6-1.6,1.6H140
					c-0.9,0-1.6-0.7-1.6-1.6v-1H138.3z"/>
			</g>
		</g>
		<g>
			<g>
				<path class="st8" d="M139.2,135.4c-1.7,0-3.1-1.4-3.1-3.1c0-1.7,1.4-3.1,3.1-3.1c1.7,0,3.1,1.4,3.1,3.1
					C142.3,133.9,140.9,135.4,139.2,135.4z"/>
			</g>
			<g>
				<path class="st8" d="M130.5,143.9c0.2-3,2.8-5.4,5.9-5.4h5c-2.3,1.2-3.9,3.6-4.2,6.4l0,0v1.2v0.1h-5.4c-0.7,0-1.5-0.6-1.5-1.5
					L130.5,143.9L130.5,143.9z"/>
			</g>
		</g>
		<g>
			<g>
				<path class="st8" d="M156.9,135.7c-1.8,0-3.4-1.5-3.4-3.4c0-1.8,1.5-3.4,3.4-3.4c1.8,0,3.4,1.5,3.4,3.4
					C160.2,134.2,158.7,135.7,156.9,135.7z"/>
			</g>
			<g>
				<path class="st8" d="M159.1,146.1v-1.2l0,0c-0.2-2.8-1.8-5-4.2-6.4h4.6c3.1,0,5.7,2.3,5.9,5.4l0,0v0.9c0,0.7-0.6,1.5-1.5,1.5
					H159C159.1,146.2,159.1,146.1,159.1,146.1z"/>
			</g>
		</g>
	</g>
	<g id="椭圆_12_3_">
		<circle class="st1" cx="148.1" cy="114" r="9.1"/>
	</g>
	<g id="XMLID_3_">
		<polygon class="st2" points="148.7,111.8 149.6,111.8 149.6,110.5 151.8,110.5 151.8,117.6 149.6,117.6 149.6,115.5 151.1,115.5 
			151.1,112.5 145.1,112.5 145.1,115.5 146.5,115.5 146.5,117.6 144.3,117.6 144.3,110.5 146.5,110.5 146.5,111.8 147.5,111.8 
			147.5,109.5 143.4,109.5 143.4,118.5 147.5,118.5 147.5,114.7 146,114.7 146,113.5 150.1,113.5 150.1,114.7 148.7,114.7 
			148.7,118.5 152.7,118.5 152.7,109.5 148.7,109.5 		"/>
	</g>
	<g id="矩形_48_9_">
		<line class="st9" x1="107.6" y1="164.2" x2="107.6" y2="165.1"/>
	</g>
</g>
<g id="形状_2_拷贝_8_">
	<path class="st0" d="M78.6,200.1"/>
</g>
<g>
	<g id="圆角矩形_1_拷贝_17_">
		<path class="st3" d="M78.5,209.5L41,222.6c-1.9,0.6-4.2,0.6-6.1,0L0.7,210c-1.1-0.3-1-1.1,0.3-1.8l32.7-10.5
			c1.6-0.3,3.4-0.3,4.9-0.2l39.1,10.1C79.9,208.1,80.2,208.9,78.5,209.5z"/>
	</g>
	<g id="矩形_46_17_">
		<path class="st4" d="M80.7,202.3l-41.8,15v-6.1l41.8-14.5V202.3z"/>
	</g>
	<g id="矩形_46_拷贝_17_">
		<path class="st4" d="M0.9,202.9l38.2,14.4v-6.1L0.9,196.9V202.9z"/>
	</g>
	<g id="圆角矩形_1_17_">
		<path class="st5" d="M79.6,196.9L42.1,210c-1.9,0.6-4.2,0.6-6.1,0L1.9,197.4c-1.1-0.3-1-1.1,0.3-1.8l32.7-10.5
			c1.6-0.3,3.4-0.3,4.9-0.2L79,195C80.9,195.3,81.4,196.4,79.6,196.9z"/>
	</g>
	<g id="椭圆_11_17_">
		<ellipse class="st6" cx="38.7" cy="194.8" rx="18" ry="3.5"/>
	</g>
</g>
<g>
	<g>
		<polygon class="st8" points="25.4,170.2 42,157.2 58.6,169.6 59.8,166.8 42.1,153.7 24.1,167.8 		"/>
	</g>
	<g>
		<rect x="50.6" y="156.3" class="st8" width="3.5" height="6.5"/>
	</g>
	<g>
		<path class="st8" d="M42,160.2l-13.8,10.7v15.6h6.6v-10.9h6.3v10.9h15.2v-15.9L42,160.2z M51.3,176.1h-4.2v-4.2h4.2V176.1z"/>
	</g>
</g>
<g>
	<g id="形状_2_5_">
		<path class="st0" d="M217.7,199.3"/>
	</g>
	<g id="形状_2_8_">
		<path class="st0" d="M294.8,199.3"/>
	</g>
	<g>
		<g id="圆角矩形_1_拷贝_18_">
			<path class="st3" d="M294.6,209.5l-37.5,13.1c-1.9,0.6-4.2,0.6-6.1,0L216.9,210c-1.1-0.3-1-1.1,0.3-1.8l32.7-10.5
				c1.6-0.3,3.4-0.3,4.9-0.2l39.1,10.1C296.1,208.1,296.4,208.9,294.6,209.5z"/>
		</g>
		<g id="矩形_46_18_">
			<path class="st4" d="M296.9,202.3l-41.8,15v-6.1l41.8-14.5V202.3z"/>
		</g>
		<g id="矩形_46_拷贝_18_">
			<path class="st4" d="M217,202.9l38.2,14.4v-6.1L217,196.9V202.9z"/>
		</g>
		<g id="圆角矩形_1_18_">
			<path class="st5" d="M295.7,196.9L258.2,210c-1.9,0.6-4.2,0.6-6.1,0L218,197.4c-1.1-0.3-1-1.1,0.3-1.8l32.7-10.5
				c1.6-0.3,3.4-0.3,4.9-0.2l39.1,10.1C297,195.3,297.5,196.4,295.7,196.9z"/>
		</g>
		<g id="椭圆_11_18_">
			<ellipse class="st6" cx="254.9" cy="194.8" rx="18" ry="3.5"/>
		</g>
	</g>
	<g>
		<path class="st8" d="M269.4,163.1l-12.6,9.7v14.2h6v-9.9h5.7v9.9h13.8v-14.5L269.4,163.1z M277.8,177.6H274v-3.8h3.8V177.6z"/>
	</g>
	<g>
		<path class="st8" d="M268.1,152.8c1.4-0.8,2-2.6,1.2-4c-0.4-0.7-1.1-1.3-1.9-1.5v-1.6h1.5c0.4,0,0.7-0.3,0.7-0.7v-10.4h5.9
			c0.4,0,0.7-0.3,0.7-0.7v-3c0,0,0-0.1,0-0.1c0-0.1,0-0.1,0-0.2c0,0,0-0.1-0.1-0.1c-0.1-0.1-0.2-0.2-0.3-0.3c0,0-0.1,0-0.1-0.1
			c0,0,0,0-0.1,0l-28.2-6.7c-0.1,0-0.1,0-0.2,0h-3c-0.1,0-0.2,0-0.3,0.1c0,0,0,0-0.1,0c0,0,0,0-0.1,0l-11.9,6.7c0,0-0.1,0.1-0.1,0.1
			c0,0,0,0-0.1,0.1c-0.1,0.1-0.1,0.1-0.1,0.2v0c0,0.1,0,0.2-0.1,0.3c0,0,0,0,0,0v3c0,0.4,0.3,0.7,0.7,0.7H243v32.8l-2.7,2.7
			c-0.1,0.1-0.2,0.3-0.2,0.5v11.9h-1.5v4.4h14.8v-4.4h-1.5v-11.9c0-0.2-0.1-0.4-0.2-0.5l-2.7-2.7v-32.8h14.8V145
			c0,0.4,0.3,0.7,0.7,0.7h1.5v2.2c0,0.4,0.3,0.7,0.7,0.7c0.8,0,1.5,0.7,1.5,1.5c0,0.8-0.7,1.5-1.5,1.5s-1.5-0.7-1.5-1.5v-0.7h-1.5
			v0.7c0,1.1,0.6,2.1,1.6,2.6H268.1z M269.6,131.7h5.2v1.5h-5.2V131.7z M268.1,141.3h-3v-6.7h3V141.3z M268.1,133.2h-3v-1.5h3V133.2
			z M245.2,125h1.5v5.2h-1.5V125z M244.4,131.7h3v1.2l-0.3,0.3h-2.7V131.7z M247.4,135v24.4l-2.7-2.7L247.4,135z M244.4,134.7h2.5
			l-2.5,20.2V134.7z M244.4,158.5l2.7,2.7l-2.7,2.7V158.5z M247.4,162.9v4.9v0.4l-2.7-2.7L247.4,162.9z M244.4,167.8v-0.4l2.7,2.7
			l-2.7,2.7V167.8z M247.4,171.8v5.3l-2.7-2.7L247.4,171.8z M244.4,176.2l2.7,2.7l-2.7,2.7V176.2z M247.4,180.7v1.9h-1.9
			L247.4,180.7z M243.7,125.6v4.7h-8.3L243.7,125.6z M233.3,133.2v-1.5h9.6v1.5H233.3z M241.5,171.1l1.5-1.5v13h-1.5V171.1z
			 M251.8,184.1v1.5H240v-1.5H251.8z M250.4,171.1v11.5h-1.5v-13L250.4,171.1z M263.7,133.2h-14.8v-1.5h14.8V133.2z M248.1,130.2v-5
			l21.1,5h-0.3H248.1z M265.2,144.3v-1.5h3v1.5H265.2z"/>
	</g>
</g>
<g>
	<path class="st1" d="M164,252.7l-0.1-1c24.6-3,47.7-14.6,64.9-32.6l0.7,0.7C212.1,238,188.9,249.7,164,252.7z"/>
</g>
<g>
	<path class="st1" d="M255.5,117.5c-1.7-6.6-4-13.1-6.9-19.3l0.9-0.4c2.9,6.3,5.3,12.8,7,19.5L255.5,117.5z"/>
</g>
<g>
	<path class="st1" d="M231.5,72.4c-11.6-13-26.2-23.1-42.4-29.3l0.4-0.9c16.3,6.2,31.1,16.4,42.8,29.6L231.5,72.4z"/>
</g>
<g>
	<path class="st1" d="M64.4,78.9l-0.8-0.6c11.7-15.4,27.4-27.5,45.2-34.9l0.4,0.9C91.5,51.6,76,63.6,64.4,78.9z"/>
</g>
<g>
	<path class="st1" d="M42.3,144.3h-1c0-13.7,2.5-27,7.4-39.6l0.9,0.4C44.8,117.6,42.3,130.8,42.3,144.3z"/>
</g>
<g>
	<path class="st1" d="M134.7,252.4c-24.2-3.5-46.8-15.3-63.7-33.3l0.7-0.7c16.7,17.8,39.1,29.5,63.1,32.9L134.7,252.4z"/>
</g>
<g>
	<path d="M103.1,280.9h0.9v3.1h3.4v0.8h-3.4v4.7h4v0.8H93v-0.8h4v-4.7h-3.4V284H97v-3.1h0.9v3.1h5.2V280.9z M98.3,291.5l0.7,0.7
		c-1.8,1.3-3.5,2.4-5.2,3.3c-0.2-0.3-0.4-0.5-0.6-0.7C95,293.8,96.7,292.7,98.3,291.5z M97.9,284.8v4.7h5.2v-4.7H97.9z M101.9,292.2
		l0.6-0.7c1.8,1.1,3.5,2.2,5,3.2l-0.6,0.7C105.1,294.3,103.5,293.2,101.9,292.2z"/>
	<path d="M111.7,292.8c0.7-0.5,1.5-1.1,2.4-1.9l0.1,0.9c-1,0.7-1.8,1.4-2.6,2c-0.3,0.2-0.5,0.4-0.6,0.6l-0.7-0.7
		c0.3-0.3,0.5-0.8,0.5-1.4v-5.6h-2V286h2.8V292.8z M112.4,284.3c-0.7-0.9-1.5-1.7-2.3-2.6l0.7-0.5c1.1,1.2,1.9,2,2.3,2.5
		L112.4,284.3z M116.7,290.7l0.8,0.4c-1.2,1.8-2.4,3.3-3.6,4.5l-0.7-0.6C114.4,293.8,115.6,292.3,116.7,290.7z M114.7,281.9h8.1v7.4
		h-8.1V281.9z M115.6,282.6v5.9h6.4v-5.9H115.6z M119.9,291.2l0.7-0.5c1,1.3,2.2,2.7,3.4,4.3l-0.8,0.6
		C122.3,294.3,121.2,292.8,119.9,291.2z"/>
	<path d="M133.7,293.8V288h-6.9v5.8H126v-12.1h0.8v5.5h6.9v-5.5h0.8v12.1H133.7z"/>
	<path d="M140.9,294c-1.3,0-2.3-0.4-3-1.2s-1.1-1.9-1.1-3.2c0-1.4,0.4-2.6,1.1-3.4c0.8-0.8,1.8-1.2,3-1.2c1.2,0,2.2,0.4,2.9,1.2
		c0.7,0.8,1.1,1.9,1.1,3.3c0,1.3-0.4,2.4-1.1,3.3S142.2,294,140.9,294z M141,285.7c-1,0-1.8,0.3-2.4,1s-0.9,1.6-0.9,2.9
		c0,1.1,0.3,2,0.9,2.7c0.6,0.7,1.4,1,2.4,1c1,0,1.8-0.3,2.4-1c0.6-0.7,0.8-1.6,0.8-2.8c0-1.2-0.3-2.2-0.8-2.8S142,285.7,141,285.7z"
		/>
	<path d="M150.6,282.5v11.3h-0.8v-11.3h-3.5v-0.8h7.8v0.8H150.6z"/>
	<path d="M155.2,292.9L155,292c0.7-0.2,1.7-0.4,2.8-0.7v-7.8h-2.6v-0.8h5.9v0.8h-2.4v7.6c0.8-0.2,1.6-0.4,2.4-0.6
		c0,0.3,0,0.6,0.1,0.9C159.7,291.7,157.8,292.2,155.2,292.9z M161.2,284.1h2.2c0.1-1.2,0.1-2.3,0.1-3.2h0.9c0,1.2,0,2.3-0.1,3.2h5
		c-0.1,3.6-0.2,6.6-0.3,8.8c0,1.7-0.8,2.5-2.5,2.5c-0.5,0-1.2,0-2.3,0c0-0.4-0.1-0.7-0.2-0.9c0.3,0,0.6,0,1,0c0.2,0,0.4,0,0.6,0
		c0.2,0,0.5,0,0.8,0c1.2,0.1,1.8-0.5,1.8-1.6c0.2-2.8,0.2-5.5,0.3-8.1h-4.2c0,0.2,0,0.5-0.1,0.9c0,0.3,0,0.4,0,0.6
		c-0.2,4.3-1.7,7.4-4.7,9.4c-0.3-0.3-0.5-0.5-0.7-0.7c2.9-1.8,4.5-4.7,4.6-8.7c0-0.1,0-0.2,0-0.4c0-0.2,0-0.6,0.1-1.1h-2.2V284.1z"
		/>
	<path d="M178.3,285.9c-0.1-0.1-0.3-0.3-0.5-0.6c-0.1-0.2-0.2-0.3-0.3-0.3c-1.7,0.1-3.4,0.2-5.1,0.3c-0.4,0-0.8,0.1-1.1,0.2
		l-0.4-0.8c0.3-0.2,0.6-0.4,1-0.7c0.9-1,1.8-2,2.6-3.2l0.8,0.4c-1,1.3-2,2.4-3,3.5c1,0,2.6-0.1,4.7-0.2c-0.5-0.5-0.9-1-1.4-1.5
		l0.6-0.5c0.9,0.9,1.9,1.9,2.9,3L178.3,285.9z M172.7,295.6h-0.8v-8.9h5.9v7.3c0,1-0.4,1.5-1.5,1.5c-0.5,0-1,0-1.5,0
		c0-0.3-0.1-0.6-0.2-0.8c0.4,0,0.9,0,1.4,0c0.6,0,0.9-0.2,0.8-0.7v-1.7h-4.3V295.6z M172.7,287.4v1.7h4.3v-1.7H172.7z M172.7,289.9
		v1.7h4.3v-1.7H172.7z M179.7,288.4h0.8v2.7c1.7-0.6,3.3-1.4,4.7-2.2l0.5,0.7c-1.8,0.9-3.5,1.7-5.2,2.3v1.5c0,0.8,0.4,1.2,1.2,1.1
		h1.8c0.8,0,1.2-0.3,1.4-0.9c0.1-0.4,0.2-1,0.2-1.7c0.3,0.1,0.6,0.2,0.8,0.3c-0.1,0.7-0.1,1.2-0.2,1.6c-0.2,1-0.9,1.5-2,1.5h-2.1
		c-1.3,0-1.9-0.6-1.8-1.8V288.4z M179.7,280.8h0.8v3c1.6-0.6,3-1.3,4.4-2.1l0.5,0.7c-1.6,0.8-3.2,1.6-4.9,2.2v1
		c0,0.7,0.4,1.1,1.2,1.1h1.8c0.8,0,1.2-0.3,1.3-0.9c0.1-0.5,0.2-1,0.2-1.7c0.3,0.1,0.5,0.2,0.8,0.3c-0.1,0.7-0.2,1.2-0.3,1.6
		c-0.2,1-0.9,1.5-2,1.5h-2c-1.3,0-1.9-0.5-1.9-1.7V280.8z"/>
	<path d="M189.3,287.8c-0.8-0.7-1.6-1.4-2.4-2l0.6-0.6c1,0.8,1.8,1.4,2.4,1.9L189.3,287.8z M187.3,295.3c0.7-1.9,1.2-3.7,1.7-5.6
		c0.2,0.1,0.5,0.3,0.8,0.4c-0.7,2.2-1.2,4-1.6,5.5L187.3,295.3z M190,283.8c-0.7-0.6-1.4-1.3-2.3-2l0.6-0.6c0.6,0.5,1.4,1.1,2.4,2
		L190,283.8z M190.4,294.3h1.3v-5h9v5h1.4v0.7h-11.6V294.3z M194.3,285.7l0.6,0.6c-1.2,1.1-2.5,2-3.9,3c-0.1-0.2-0.3-0.5-0.6-0.7
		C191.8,287.7,193.1,286.8,194.3,285.7z M191.3,284.2h5.9c0.9-1.3,1.6-2.4,2.1-3.3l0.8,0.4c-0.6,1-1.3,1.9-2,3h3.5v0.7h-10.3V284.2z
		 M192.4,290.1v4.3h1.9v-4.3H192.4z M192.5,281.2l0.7-0.4c0.7,0.9,1.4,1.8,2,2.7l-0.7,0.5C194,283.2,193.3,282.3,192.5,281.2z
		 M195.2,290.1v4.3h1.9v-4.3H195.2z M197.3,286.3l0.6-0.6c1.6,1.1,2.9,2,3.9,2.8l-0.6,0.7C200.1,288.3,198.8,287.3,197.3,286.3z
		 M199.8,290.1h-2v4.3h2V290.1z"/>
	<path d="M202.8,288.4c1.5-2.4,2.6-4.9,3.3-7.6l0.9,0.2c-0.4,1.2-0.8,2.4-1.3,3.5v11.2h-0.8v-9.4c-0.5,1-1,2-1.6,2.9
		C203.1,289,202.9,288.7,202.8,288.4z M217.4,286.9c-2.2-1.4-3.9-3-4.9-4.8c-1.2,1.8-2.8,3.5-5,4.9c-0.2-0.3-0.4-0.5-0.6-0.7
		c2.6-1.6,4.5-3.5,5.6-5.7l0.9,0.1c-0.1,0.1-0.1,0.2-0.2,0.4c-0.1,0.1-0.1,0.3-0.2,0.3c1.2,2,2.9,3.5,5.1,4.7
		C217.8,286.4,217.6,286.7,217.4,286.9z M210.5,286.9v1.9c0,0.3,0,0.5,0,0.6c0,2.8-0.9,5-2.6,6.4c-0.2-0.2-0.4-0.4-0.7-0.6
		c1-0.8,1.6-1.7,1.9-2.6c0.3-0.9,0.5-2.1,0.5-3.8v-1.9H210.5z M214.1,286.9h0.9v8.8h-0.9V286.9z"/>
</g>
</svg>
