<?xml version="1.0" encoding="utf-8"?>
<!-- Generator: Adobe Illustrator 22.1.0, SVG Export Plug-In . SVG Version: 6.00 Build 0)  -->
<svg version="1.1" id="图层_1" xmlns="http://www.w3.org/2000/svg" xmlns:xlink="http://www.w3.org/1999/xlink" x="0px" y="0px"
	 viewBox="0 0 186 220" style="enable-background:new 0 0 186 220;" xml:space="preserve">
<style type="text/css">
	.st0{opacity:0.6;}
	.st1{fill:#EFEFEF;}
	.st2{fill:#C1C2BE;}
	.st3{fill:#D8D8D8;}
	.st4{fill:#F9F9F9;}
	.st5{fill:#038C7F;}
	.st6{fill:#FFFFFF;}
	.st7{fill:#00A99E;}
</style>
<g>
	<g class="st0">
		<g>
			<g>
				<path class="st1" d="M183.4,159.5c1.7,0.6,1.7,1.5,0,2.1l-88.8,30.2c-0.8,0.3-2.1,0.3-2.9,0L2.4,161.6c-1.7-0.6-1.7-1.5,0-2.1
					l88.8-30.2c0.8-0.3,2.1-0.3,2.9,0L183.4,159.5z"/>
			</g>
		</g>
	</g>
	<g>
		<g>
			<g>
				<path class="st2" d="M185.4,144.5c0.6,0.2,0.6,0.6,0,0.8l-90.9,30.9c-0.6,0.2-1.8,0.2-2.4,0L0.6,145.3c-0.6-0.2-0.6-0.6,0-0.8
					l90.9-30.9c0.6-0.2,1.8-0.2,2.4,0L185.4,144.5z"/>
			</g>
		</g>
	</g>
	<g>
		<polygon class="st3" points="0,123.8 0,145 93.5,176.4 186,145 186,123.8 93.5,155.4 		"/>
	</g>
	<g>
		<g>
			<path class="st4" d="M185.4,123.4c0.6,0.2,0.6,0.6,0,0.8l-90.9,31.1c-0.6,0.2-1.8,0.2-2.4,0L0.6,124.3c-0.6-0.2-0.6-0.6,0-0.8
				l90.9-31.1c0.6-0.2,1.8-0.2,2.4,0L185.4,123.4z"/>
		</g>
	</g>
	<g>
		<ellipse class="st1" cx="92.7" cy="119.6" rx="46.5" ry="9.5"/>
	</g>
	<g>
		<circle class="st5" cx="88.3" cy="18.1" r="16.9"/>
	</g>
	<g>
		<g>
			<g>
				<path class="st6" d="M88.3,32.7c-8.1,0-14.6-6.6-14.6-14.6S80.3,3.5,88.3,3.5s14.6,6.6,14.6,14.6S96.4,32.7,88.3,32.7 M88.3,4.3
					c-7.7,0-13.8,6.2-13.8,13.8s6.2,13.8,13.8,13.8c7.6,0,13.8-6.2,13.8-13.8S96,4.3,88.3,4.3"/>
			</g>
		</g>
		<g>
			<g>
				<polygon class="st6" points="85.8,27.3 85.8,29.4 85.5,29.4 85.5,27.7 85.3,27.9 85,27.7 85.5,27.3 				"/>
			</g>
		</g>
		<g>
			<g>
				<path class="st6" d="M87.1,28c0.1,0,0.2,0,0.3,0.1c0.1,0,0.2,0.1,0.3,0.2c0.1,0.1,0.1,0.1,0.1,0.3c0,0.1,0.1,0.2,0,0.3
					c0,0.1,0,0.2-0.1,0.3c0,0.1-0.1,0.1-0.1,0.3c-0.1,0.1-0.1,0.1-0.3,0.1s-0.2,0.1-0.3,0.1H87c-0.1,0-0.2,0-0.3-0.1
					s-0.1-0.1-0.3-0.2c-0.1-0.1-0.1-0.1-0.1-0.3c0-0.1,0-0.2,0-0.3c0,0,0-0.1,0-0.2c0-0.1,0.1-0.2,0.1-0.3c0.1-0.1,0.1-0.3,0.3-0.4
					c0.1-0.1,0.3-0.3,0.5-0.5l0.2,0.2c-0.1,0.1-0.2,0.2-0.3,0.3c-0.1,0.1-0.1,0.1-0.2,0.3C86.9,28,87,27.9,87.1,28 M87.5,28.8
					c0-0.1,0-0.1,0-0.2c0-0.1-0.1-0.1-0.1-0.1c0,0-0.1-0.1-0.1-0.1c-0.1,0-0.1,0-0.2-0.1h0c-0.1,0-0.1,0-0.2,0
					c-0.1,0-0.1,0.1-0.1,0.1c-0.1,0-0.1,0.1-0.1,0.1c0,0.1,0,0.1,0,0.2s0,0.1,0,0.2c0,0.1,0.1,0.1,0.1,0.1c0.1,0.1,0.2,0.1,0.3,0.1
					c0.1,0,0.1,0,0.2,0c0.1,0,0.1-0.1,0.1-0.1c0,0,0.1-0.1,0.1-0.1C87.5,28.9,87.5,28.8,87.5,28.8"/>
			</g>
		</g>
		<g>
			<g>
				<path class="st6" d="M89.3,28.3c0.1,0,0.1,0.1,0.2,0.1c0.1,0.1,0.1,0.1,0.1,0.2c0,0.1,0,0.1,0,0.2c0,0.1,0,0.2-0.1,0.3
					c0,0.1-0.1,0.1-0.1,0.2c-0.1,0.1-0.1,0.1-0.3,0.1c-0.1,0-0.2,0.1-0.3,0.1c-0.1,0-0.2,0-0.3,0c-0.1,0-0.1-0.1-0.2-0.1
					c-0.1,0-0.1-0.1-0.2-0.1c-0.1-0.1-0.1-0.1-0.1-0.1l0.3-0.1c0,0.1,0.1,0.1,0.2,0.2c0.1,0.1,0.2,0.1,0.3,0.1c0.1,0,0.1,0,0.2,0
					c0.1,0,0.1,0,0.1-0.1c0,0,0.1-0.1,0.1-0.1c0,0,0-0.1,0-0.1c0-0.1,0-0.1,0-0.1c0,0-0.1-0.1-0.1-0.1c0,0-0.1-0.1-0.1-0.1
					c-0.1,0-0.1,0-0.2,0h-0.1h-0.1l-0.1-0.2l0.1-0.1l0.5-0.6h-1v-0.3h1.2h0.1v0.3l-0.6,0.6C89.1,28.2,89.3,28.3,89.3,28.3"/>
			</g>
		</g>
		<g>
			<g>
				<path class="st6" d="M90.8,28c0.1,0,0.2,0,0.3,0.1c0.1,0,0.2,0.1,0.3,0.2c0.1,0.1,0.1,0.1,0.1,0.3c0,0.1,0.1,0.2,0,0.3
					c0,0.1,0,0.2-0.1,0.3c0,0.1-0.1,0.1-0.1,0.3c-0.1,0.1-0.1,0.1-0.3,0.1c-0.1,0-0.2,0.1-0.3,0.1h-0.1c-0.1,0-0.2,0-0.3-0.1
					c-0.1,0-0.1-0.1-0.3-0.2c-0.1-0.1-0.1-0.1-0.1-0.3c0-0.1,0-0.2,0-0.3c0,0,0-0.1,0-0.2c0-0.1,0.1-0.2,0.1-0.3
					c0.1-0.1,0.1-0.3,0.3-0.4c0.1-0.1,0.3-0.3,0.5-0.5l0.2,0.2c-0.1,0.1-0.2,0.2-0.3,0.3c-0.1,0.1-0.1,0.1-0.2,0.3
					C90.7,28,90.7,27.9,90.8,28 M91.2,28.8c0-0.1,0-0.1,0-0.2c0-0.1-0.1-0.1-0.1-0.1c0,0-0.1-0.1-0.1-0.1c-0.1,0-0.1,0-0.2-0.1h0
					c-0.1,0-0.1,0-0.2,0c-0.1,0-0.1,0.1-0.1,0.1c0,0-0.1,0.1-0.1,0.1c0,0.1,0,0.1,0,0.2s0,0.1,0,0.2c0,0.1,0.1,0.1,0.1,0.1
					c0.1,0.1,0.2,0.1,0.3,0.1c0.1,0,0.1,0,0.2,0c0.1,0,0.1-0.1,0.1-0.1c0,0,0.1-0.1,0.1-0.1C91.2,28.9,91.2,28.8,91.2,28.8"/>
			</g>
		</g>
		<g>
			<g>
				<polygon class="st6" points="89.4,13.7 91.1,13.7 91.1,11.3 95.2,11.3 95.2,24.6 91.1,24.6 91.1,20.8 93.8,20.8 93.8,15.2 
					82.6,15.2 82.6,20.8 85.3,20.8 85.3,24.6 81.2,24.6 81.2,11.3 85.3,11.3 85.3,13.7 87,13.7 87,9.6 79.5,9.6 79.5,26.3 87,26.3 
					87,19.1 84.4,19.1 84.4,16.9 92,16.9 92,19.2 89.4,19.2 89.4,26.3 96.9,26.3 96.9,9.6 89.4,9.6 				"/>
			</g>
		</g>
	</g>
	<g>
		<path class="st7" d="M141.8,76.5c0,0,0-3.3,0-6.1c0-2.7-0.9-6.1-3.2-6.1c-6,0-7.6-3.9-9.1-6c-1.6-2.2-6.1-7.2-7.2-7.8
			c-0.6-5.6,3.4-9.6,4.2-11.8c0.8-2.2-0.6-2.8-1.1-3.1c-14.7-1.2-20.1,5-20.8,6.6c-3.8-1.4-16.7-0.7-16.7-0.7
			c-23.5,0.1-29.7,11.1-30.5,12.7h0c-1.1,0.2-2.9-0.1-2.9-1.5c0.6-0.5,2.1-2.2,2.1-5.1c0-2.9-3-3.9-3.9-3.9s-3.2-0.3-4.5,2.6
			c-1.3,2.9,1,5.8,1,5.8h-4.7c-0.7,1,1,2.2,1,2.2s4.5,0,5.2,0c0.7,0,1,0.4,1,0.4c1.1,1.5,4,1.7,4,1.7s0,0,0,0
			c-3.9,5.3-3.7,9.7-4.3,14.9c-0.7,5.9,3.4,17.5,7.2,20.8c3.8,3.3,5.6,7.5,5.6,10.2c0,6.4,2.8,6.4,2.8,6.4s8.4,0,11.4,0
			c3,0,2.5-3.5,2.6-4.7c0-1.2,1.5-1.2,1.5-1.2h2.3c3.2,0.7,3.8,0.5,5,0.5c1.9,0,4.5-0.4,4.5-0.4s3.2,0,3.7,0c0.4,0,0.5,0.7,0.5,1.1
			c0,5.2,3.5,4.7,3.5,4.7s5.6,0,9.3,0s3.6-1.5,3.6-5.4c0-3.9,4.1-6.8,5.9-7.9c1.9-1,6.8-4.4,8.3-6.3c4.3-5.1,7.2-5.8,9.1-5.8
			C142.2,83.5,141.8,76.5,141.8,76.5z M52.5,51.5h-1.4c-1.8-0.5-1-4.1-1-4.1c0.7-1.9,4.3-2.3,4.3,0.7C54.4,51,52.5,51.5,52.5,51.5z
			 M99,48.5c0,0-7.2-0.5-9.4-0.5c-2.2,0-10.4,0.3-10.4,0.3c-0.8,0-1.4-0.4-1.4-1.2c0-0.8,0.6-1.4,1.4-1.4c0,0,8.2-0.3,10.8-0.3
			c1.9,0,9,0.3,9,0.3c0.8,0,1.4,0.6,1.4,1.4C100.4,47.8,99.8,48.5,99,48.5z M122.2,63.2c-1.6,0-2.9-1.3-2.9-2.9s1.3-2.9,2.9-2.9
			s2.9,1.3,2.9,2.9S123.8,63.2,122.2,63.2z"/>
	</g>
	<g>
		<path class="st6" d="M68.1,73.9v-0.6c0.5,0.3,1,0.4,1.5,0.4c0.6,0,1.2-0.2,1.5-0.5c0.4-0.4,0.5-0.8,0.5-1.4c0-1.3-0.7-1.9-2.2-1.9
			c-0.3,0-0.7,0-1.1,0.1l0.2-3.8h3.3v0.5h-2.8l-0.2,2.8c0.4,0,0.6,0,0.8,0c0.8,0,1.5,0.2,1.9,0.6s0.6,1,0.6,1.7
			c0,0.7-0.2,1.3-0.7,1.8s-1.1,0.7-2,0.7C69.1,74.2,68.6,74.1,68.1,73.9z"/>
		<path class="st6" d="M75.4,70c-0.6,0-1-0.2-1.3-0.6c-0.3-0.4-0.5-0.9-0.5-1.4c0-0.6,0.2-1.1,0.5-1.5c0.3-0.4,0.8-0.5,1.4-0.5
			c0.6,0,1,0.2,1.3,0.5c0.3,0.4,0.5,0.9,0.5,1.5c0,0.6-0.2,1.1-0.5,1.4C76.4,69.8,75.9,70,75.4,70z M75.4,66.4c-0.4,0-0.8,0.1-1,0.4
			C74.2,67.1,74,67.5,74,68c0,0.5,0.1,0.9,0.4,1.1c0.2,0.3,0.6,0.4,1,0.4c0.4,0,0.7-0.1,1-0.4c0.2-0.3,0.4-0.7,0.4-1.2
			c0-0.5-0.1-0.9-0.4-1.2C76.1,66.6,75.8,66.4,75.4,66.4z M75.4,74.2h-0.5l4.8-8.1h0.5L75.4,74.2z M79.7,74.2c-0.6,0-1-0.2-1.3-0.6
			c-0.3-0.4-0.5-0.9-0.5-1.4c0-0.7,0.2-1.2,0.5-1.5c0.4-0.4,0.8-0.5,1.4-0.5s1,0.2,1.3,0.5c0.3,0.4,0.5,0.9,0.5,1.5
			c0,0.6-0.2,1.1-0.5,1.4C80.7,74,80.3,74.2,79.7,74.2z M79.7,70.6c-0.4,0-0.8,0.1-1,0.4s-0.4,0.7-0.4,1.2c0,0.5,0.1,0.9,0.4,1.1
			c0.2,0.3,0.6,0.4,1,0.4c0.4,0,0.8-0.1,1-0.4c0.2-0.3,0.4-0.7,0.4-1.2c0-0.5-0.1-0.9-0.4-1.2C80.5,70.7,80.2,70.6,79.7,70.6z"/>
		<path class="st6" d="M89.3,74v-1.1h0c-0.2,0.4-0.4,0.7-0.8,0.9c-0.3,0.2-0.7,0.3-1.1,0.3c-0.5,0-1-0.2-1.3-0.5
			c-0.3-0.3-0.5-0.7-0.5-1.1c0-1,0.7-1.6,2-1.8l1.7-0.3c0-1.2-0.5-1.8-1.4-1.8c-0.6,0-1.2,0.3-1.8,0.8v-0.6c0.2-0.2,0.5-0.3,0.9-0.4
			s0.7-0.2,1-0.2c0.6,0,1,0.2,1.4,0.5c0.3,0.4,0.5,0.9,0.5,1.6V74H89.3z M87.8,71.2c-0.6,0.1-1,0.2-1.3,0.4
			c-0.2,0.2-0.4,0.5-0.4,0.9c0,0.3,0.1,0.6,0.3,0.8c0.2,0.2,0.5,0.3,0.9,0.3c0.5,0,1-0.2,1.4-0.6c0.4-0.4,0.5-0.9,0.5-1.6V71
			L87.8,71.2z"/>
		<path class="st6" d="M95.4,74v-3.3c0-1.4-0.5-2-1.5-2c-0.5,0-1,0.2-1.3,0.6c-0.4,0.4-0.5,0.9-0.5,1.5V74h-0.5v-5.7h0.5v1h0
			c0.4-0.8,1.1-1.2,1.9-1.2c0.6,0,1.1,0.2,1.4,0.6c0.3,0.4,0.5,1,0.5,1.7V74H95.4z"/>
		<path class="st6" d="M101.5,74v-3.3c0-1.4-0.5-2-1.5-2c-0.5,0-1,0.2-1.3,0.6c-0.4,0.4-0.5,0.9-0.5,1.5V74h-0.5v-5.7h0.5v1h0
			c0.4-0.8,1.1-1.2,1.9-1.2c0.6,0,1.1,0.2,1.4,0.6c0.3,0.4,0.5,1,0.5,1.7V74H101.5z"/>
		<path class="st6" d="M107.4,74v-1h0c-0.4,0.8-1,1.2-1.8,1.2c-1.3,0-2-0.8-2-2.5v-3.3h0.5v3.1c0,0.8,0.1,1.3,0.4,1.7
			c0.3,0.3,0.6,0.5,1.2,0.5c0.5,0,1-0.2,1.3-0.6c0.3-0.4,0.5-0.9,0.5-1.5v-3.2h0.5V74H107.4z"/>
		<path class="st6" d="M113.1,74v-1.1h0c-0.2,0.4-0.4,0.7-0.8,0.9c-0.3,0.2-0.7,0.3-1.1,0.3c-0.5,0-1-0.2-1.3-0.5
			c-0.3-0.3-0.5-0.7-0.5-1.1c0-1,0.7-1.6,2-1.8l1.7-0.3c0-1.2-0.5-1.8-1.4-1.8c-0.6,0-1.2,0.3-1.8,0.8v-0.6c0.2-0.2,0.5-0.3,0.9-0.4
			c0.4-0.1,0.7-0.2,1-0.2c0.6,0,1,0.2,1.4,0.5c0.3,0.4,0.5,0.9,0.5,1.6V74H113.1z M111.6,71.2c-0.6,0.1-1,0.2-1.3,0.4
			c-0.2,0.2-0.4,0.5-0.4,0.9c0,0.3,0.1,0.6,0.3,0.8c0.2,0.2,0.5,0.3,0.9,0.3c0.5,0,1-0.2,1.4-0.6c0.4-0.4,0.5-0.9,0.5-1.6V71
			L111.6,71.2z"/>
		<path class="st6" d="M115.3,74v-8.4h0.5V74H115.3z"/>
		<path class="st6" d="M75.9,79.5c-0.1,0-0.2,0-0.3-0.1c-0.1-0.1-0.1-0.2-0.1-0.3c0-0.1,0-0.2,0.1-0.3c0.1-0.1,0.2-0.1,0.3-0.1
			c0.1,0,0.2,0,0.3,0.1c0.1,0.1,0.1,0.2,0.1,0.3c0,0.1,0,0.2-0.1,0.3C76.2,79.5,76.1,79.5,75.9,79.5z M75.7,86.6V81h0.5v5.7H75.7z"
			/>
		<path class="st6" d="M81.9,86.6v-3.3c0-1.4-0.5-2-1.5-2c-0.5,0-1,0.2-1.3,0.6c-0.4,0.4-0.5,0.9-0.5,1.5v3.2H78V81h0.5v1h0
			c0.4-0.8,1.1-1.2,1.9-1.2c0.6,0,1.1,0.2,1.4,0.6c0.3,0.4,0.5,1,0.5,1.7v3.4H81.9z"/>
		<path class="st6" d="M86.3,86.5c-0.3,0.1-0.5,0.2-0.7,0.2c-0.8,0-1.3-0.5-1.3-1.5v-3.8h-1V81h1v-1.5c0.1,0,0.2-0.1,0.3-0.1
			c0.1,0,0.2-0.1,0.3-0.1V81h1.5v0.5h-1.5v3.7c0,0.4,0.1,0.7,0.2,0.8c0.1,0.2,0.3,0.3,0.6,0.3c0.2,0,0.4-0.1,0.7-0.2V86.5z"/>
		<path class="st6" d="M87.6,83.8c0,0.8,0.2,1.4,0.5,1.8c0.4,0.4,0.9,0.7,1.5,0.7c0.6,0,1.3-0.2,1.9-0.7v0.5c-0.6,0.4-1.2,0.6-2,0.6
			c-0.7,0-1.3-0.3-1.8-0.8c-0.5-0.5-0.7-1.3-0.7-2.2c0-0.8,0.2-1.5,0.7-2.1c0.5-0.6,1.1-0.8,1.8-0.8c0.7,0,1.2,0.2,1.6,0.7
			s0.6,1.2,0.6,2v0.2H87.6z M91.2,83.4c0-0.7-0.2-1.2-0.5-1.5c-0.3-0.4-0.7-0.5-1.2-0.5c-0.5,0-1,0.2-1.3,0.5
			c-0.3,0.4-0.6,0.9-0.6,1.5H91.2z"/>
		<path class="st6" d="M95.8,81.5c-0.2-0.1-0.4-0.2-0.6-0.2c-0.4,0-0.8,0.2-1.1,0.7c-0.3,0.5-0.5,1.1-0.5,2v2.7h-0.5V81h0.5v1.3h0
			c0.1-0.4,0.3-0.8,0.6-1c0.3-0.2,0.6-0.4,1-0.4c0.2,0,0.4,0,0.6,0.1V81.5z"/>
		<path class="st6" d="M96.8,83.8c0,0.8,0.2,1.4,0.5,1.8c0.4,0.4,0.9,0.7,1.5,0.7c0.6,0,1.3-0.2,1.9-0.7v0.5c-0.6,0.4-1.2,0.6-2,0.6
			c-0.7,0-1.3-0.3-1.8-0.8c-0.5-0.5-0.7-1.3-0.7-2.2c0-0.8,0.2-1.5,0.7-2.1c0.5-0.6,1.1-0.8,1.8-0.8c0.7,0,1.2,0.2,1.6,0.7
			s0.6,1.2,0.6,2v0.2H96.8z M100.4,83.4c0-0.7-0.2-1.2-0.5-1.5s-0.7-0.5-1.2-0.5c-0.5,0-1,0.2-1.3,0.5c-0.3,0.4-0.6,0.9-0.6,1.5
			H100.4z"/>
		<path class="st6" d="M102.1,86.4v-0.6c0.2,0.2,0.4,0.3,0.7,0.4c0.3,0.1,0.5,0.1,0.7,0.1c0.9,0,1.3-0.4,1.3-1.1
			c0-0.3-0.1-0.5-0.3-0.6c-0.2-0.2-0.5-0.4-1-0.5c-0.5-0.2-0.9-0.5-1.1-0.7c-0.2-0.3-0.3-0.6-0.3-0.9c0-0.5,0.2-0.8,0.5-1.1
			c0.4-0.3,0.8-0.4,1.3-0.4c0.5,0,0.9,0.1,1.2,0.3v0.6c-0.4-0.3-0.9-0.4-1.3-0.4c-0.4,0-0.7,0.1-0.9,0.3s-0.3,0.4-0.3,0.8
			c0,0.3,0.1,0.5,0.2,0.7c0.1,0.2,0.5,0.4,1,0.6c0.6,0.3,1,0.5,1.2,0.7c0.2,0.2,0.3,0.5,0.3,0.9c0,0.4-0.2,0.8-0.5,1.1
			s-0.8,0.4-1.4,0.4C102.9,86.8,102.4,86.6,102.1,86.4z"/>
		<path class="st6" d="M109,86.5c-0.3,0.1-0.5,0.2-0.7,0.2c-0.8,0-1.3-0.5-1.3-1.5v-3.8h-1V81h1v-1.5c0.1,0,0.2-0.1,0.3-0.1
			c0.1,0,0.2-0.1,0.3-0.1V81h1.5v0.5h-1.5v3.7c0,0.4,0.1,0.7,0.2,0.8s0.3,0.3,0.6,0.3c0.2,0,0.4-0.1,0.7-0.2V86.5z"/>
	</g>
	<g>
		<path d="M49.1,216.8l-1.3-3.5h-4.9l-1.3,3.5h-0.9l4.2-11.3h0.7l4.2,11.3H49.1z M45.6,207.4c-0.1-0.2-0.1-0.3-0.1-0.5
			c0-0.1-0.1-0.3-0.1-0.4h0c-0.1,0.3-0.2,0.6-0.3,0.8l-1.9,5.2h4.4L45.6,207.4z"/>
		<path d="M55.7,216.5v-0.9c0.3,0.2,0.6,0.4,1,0.6s0.7,0.2,1,0.2c1.3,0,1.9-0.5,1.9-1.5c0-0.4-0.1-0.7-0.4-0.9
			c-0.3-0.3-0.7-0.5-1.4-0.8c-0.8-0.3-1.3-0.7-1.6-1c-0.3-0.4-0.5-0.8-0.5-1.3c0-0.7,0.3-1.2,0.7-1.6s1.1-0.6,1.9-0.6
			c0.7,0,1.3,0.1,1.8,0.4v0.8c-0.6-0.4-1.2-0.6-1.9-0.6c-0.5,0-1,0.1-1.3,0.4c-0.3,0.3-0.5,0.6-0.5,1.1c0,0.4,0.1,0.7,0.3,0.9
			s0.7,0.5,1.4,0.8c0.8,0.4,1.4,0.7,1.7,1c0.3,0.3,0.5,0.8,0.5,1.3c0,0.6-0.2,1.2-0.7,1.6c-0.5,0.4-1.1,0.6-2,0.6
			C56.8,217,56.2,216.8,55.7,216.5z"/>
		<path d="M65.5,216.7c-0.4,0.2-0.7,0.3-1.1,0.3c-1.2,0-1.8-0.7-1.8-2.1v-5.4h-1.4v-0.7h1.4v-2.1c0.1,0,0.2-0.1,0.4-0.1
			c0.1,0,0.2-0.1,0.4-0.1v2.3h2.1v0.7h-2.1v5.3c0,0.6,0.1,1,0.3,1.2c0.2,0.3,0.5,0.4,0.9,0.4c0.3,0,0.6-0.1,1-0.3V216.7z"/>
		<path d="M70.4,217c-1.2,0-2.1-0.4-2.8-1.2s-1-1.8-1-3c0-1.3,0.4-2.4,1.1-3.1s1.7-1.1,2.8-1.1c1.1,0,2.1,0.4,2.7,1.1
			c0.7,0.7,1,1.8,1,3.1c0,1.3-0.3,2.3-1,3C72.5,216.6,71.5,217,70.4,217z M70.4,209.2c-1,0-1.7,0.3-2.3,1s-0.8,1.5-0.8,2.7
			c0,1.1,0.3,1.9,0.8,2.5c0.6,0.6,1.3,1,2.3,1c1,0,1.7-0.3,2.2-0.9c0.5-0.6,0.8-1.5,0.8-2.6c0-1.1-0.3-2-0.8-2.6
			C72.1,209.5,71.4,209.2,70.4,209.2z"/>
		<path d="M79.9,209.5c-0.2-0.2-0.5-0.3-0.9-0.3c-0.6,0-1.2,0.3-1.6,1c-0.4,0.7-0.6,1.6-0.6,2.8v3.8h-0.7v-8h0.7v1.8h0
			c0.2-0.6,0.5-1.1,0.9-1.4c0.4-0.3,0.9-0.5,1.4-0.5c0.3,0,0.6,0,0.8,0.1V209.5z"/>
		<path d="M81.3,212.8c0,1.1,0.3,2,0.8,2.6s1.2,0.9,2.1,0.9c0.9,0,1.8-0.3,2.6-1v0.8c-0.8,0.6-1.8,0.9-2.8,0.9c-1,0-1.9-0.4-2.5-1.1
			c-0.6-0.7-1-1.8-1-3.1c0-1.2,0.3-2.2,1-3c0.7-0.8,1.5-1.2,2.6-1.2c1,0,1.8,0.4,2.3,1.1c0.5,0.7,0.8,1.7,0.8,2.9v0.3H81.3z
			 M86.5,212.2c0-0.9-0.3-1.7-0.7-2.2c-0.4-0.5-1-0.8-1.7-0.8c-0.8,0-1.4,0.3-1.9,0.8c-0.5,0.5-0.8,1.2-0.9,2.2H86.5z"/>
		<path d="M96.9,217c-1.2,0-2.1-0.4-2.8-1.2c-0.7-0.8-1-1.8-1-3c0-1.3,0.4-2.4,1.1-3.1c0.7-0.8,1.7-1.1,2.8-1.1c1.1,0,2,0.4,2.7,1.1
			c0.7,0.7,1,1.8,1,3.1c0,1.3-0.3,2.3-1,3C99,216.6,98.1,217,96.9,217z M97,209.2c-1,0-1.7,0.3-2.3,1s-0.8,1.5-0.8,2.7
			c0,1.1,0.3,1.9,0.8,2.5c0.5,0.6,1.3,1,2.3,1c1,0,1.7-0.3,2.2-0.9c0.5-0.6,0.8-1.5,0.8-2.6c0-1.1-0.3-2-0.8-2.6
			S97.9,209.2,97,209.2z"/>
		<path d="M105.8,205.7c-0.2-0.2-0.5-0.2-0.9-0.2c-1,0-1.5,0.7-1.5,2v1.3h2.1v0.7h-2.1v7.4h-0.7v-7.4h-1.4v-0.7h1.4v-1.4
			c0-0.8,0.2-1.5,0.6-1.9s1-0.7,1.6-0.7c0.3,0,0.6,0.1,0.9,0.2V205.7z"/>
		<path d="M113.8,216.8h-0.7l-3.1-8h0.8l2.4,6.4c0.1,0.3,0.2,0.6,0.2,0.8h0c0.1-0.3,0.1-0.6,0.2-0.8l2.5-6.4h0.8L113.8,216.8z"/>
		<path d="M123.2,216.8v-1.6h0c-0.3,0.5-0.6,1-1.1,1.3c-0.5,0.3-1,0.5-1.6,0.5c-0.8,0-1.4-0.2-1.8-0.6c-0.4-0.4-0.7-1-0.7-1.6
			c0-1.4,0.9-2.3,2.8-2.5l2.5-0.4c0-1.7-0.7-2.6-2-2.6c-0.9,0-1.7,0.4-2.6,1.1v-0.9c0.3-0.2,0.7-0.4,1.2-0.6c0.5-0.2,1-0.3,1.4-0.3
			c0.8,0,1.5,0.3,1.9,0.8c0.5,0.5,0.7,1.3,0.7,2.2v5.2H123.2z M121,212.8c-0.8,0.1-1.4,0.3-1.8,0.6s-0.5,0.7-0.5,1.3
			c0,0.5,0.2,0.9,0.5,1.2c0.3,0.3,0.8,0.5,1.3,0.5c0.8,0,1.4-0.3,1.9-0.9s0.8-1.3,0.8-2.2v-0.8L121,212.8z"/>
		<path d="M126.4,216.8v-11.9h0.7v11.9H126.4z"/>
		<path d="M135,216.8v-1.5h0c-0.6,1.1-1.4,1.7-2.6,1.7c-1.9,0-2.9-1.2-2.9-3.6v-4.6h0.7v4.5c0,1.1,0.2,1.9,0.5,2.4
			c0.4,0.5,0.9,0.7,1.7,0.7c0.7,0,1.4-0.3,1.8-0.8c0.5-0.6,0.7-1.3,0.7-2.2v-4.6h0.7v8H135z"/>
		<path d="M138.5,212.8c0,1.1,0.3,2,0.8,2.6c0.5,0.6,1.2,0.9,2.1,0.9c0.9,0,1.8-0.3,2.6-1v0.8c-0.8,0.6-1.8,0.9-2.8,0.9
			c-1,0-1.9-0.4-2.5-1.1c-0.6-0.7-1-1.8-1-3.1c0-1.2,0.3-2.2,1-3c0.7-0.8,1.5-1.2,2.6-1.2c1,0,1.8,0.4,2.3,1.1
			c0.5,0.7,0.8,1.7,0.8,2.9v0.3H138.5z M143.7,212.2c0-0.9-0.3-1.7-0.7-2.2c-0.4-0.5-1-0.8-1.7-0.8c-0.8,0-1.4,0.3-1.9,0.8
			c-0.5,0.5-0.8,1.2-0.9,2.2H143.7z"/>
	</g>
</g>
</svg>
