<?xml version="1.0" encoding="utf-8"?>
<!-- Generator: Adobe Illustrator 22.1.0, SVG Export Plug-In . SVG Version: 6.00 Build 0)  -->
<svg version="1.1" id="图层_1" xmlns="http://www.w3.org/2000/svg" xmlns:xlink="http://www.w3.org/1999/xlink" x="0px" y="0px"
	 viewBox="0 0 124 129" style="enable-background:new 0 0 124 129;" xml:space="preserve">
<style type="text/css">
	.st0{opacity:0.6;}
	.st1{fill:#EFEFEF;}
	.st2{fill:#C1C2BE;}
	.st3{fill:#D8D8D8;}
	.st4{fill:#F9F9F9;}
	.st5{fill:#2DA291;}
</style>
<g class="st0">
	<g>
		<path class="st1" d="M122.3,107.3c1.1,0.4,1.1,1,0,1.4l-59.1,20.1c-0.5,0.2-1.4,0.2-1.9,0L1.8,108.7c-1.1-0.4-1.1-1,0-1.4
			l59.1-20.1c0.5-0.2,1.4-0.2,1.9,0L122.3,107.3z"/>
	</g>
</g>
<g>
	<g>
		<path class="st2" d="M123.6,97.4c0.4,0.1,0.4,0.4,0,0.5l-60.5,20.6c-0.4,0.1-1.2,0.1-1.6,0L0.6,97.9c-0.4-0.1-0.4-0.4,0-0.5
			l60.5-20.6c0.4-0.1,1.2-0.1,1.6,0L123.6,97.4z"/>
	</g>
</g>
<polygon class="st3" points="0.2,83.6 0.2,97.7 62.4,118.6 124,97.7 124,83.6 62.4,104.6 "/>
<g>
	<path class="st4" d="M123.6,83.3c0.4,0.1,0.4,0.4,0,0.5l-60.5,20.7c-0.4,0.1-1.2,0.1-1.6,0L0.6,83.9c-0.4-0.1-0.4-0.4,0-0.5
		l60.5-20.7c0.4-0.1,1.2-0.1,1.6,0L123.6,83.3z"/>
</g>
<ellipse class="st1" cx="61.9" cy="80.8" rx="30.9" ry="6.3"/>
<g>
	<path class="st5" d="M70.8,50.7c-1.6-0.7-5.3-2.3-5.3-2.3v0h0h0l0-1.3c0,0,2.6-2.9,2.9-4.8c0.3-0.3,1.9-4,0.1-3.9l-0.1-0.1
		c0,0,0.1-0.1,0.1-0.4c0.3-0.9,1-3.1,0.1-4.4c-1.1-1.6-1.9-3.7-8.4-3.8c-1,0-2.2,1-2,1.6c0,0-2.8,0.4-2.8,3.1c-0.1,2.7,0,3,0.4,3.6
		c0.1,0.2,0.1,0.3,0.1,0.3l-0.1,0.1C54,38.2,55.6,42,56,42.3c0.3,2,2.9,4.8,2.9,4.8l0,1.3h0h0v0c0,0-3.7,1.6-5.3,2.3
		c-1.6,0.7-5,1.6-4.9,6.1l-0.1,1.6h9.5h8.1h9.5l0.1-1.6C75.8,52.3,72.4,51.4,70.8,50.7z"/>
	<path class="st5" d="M81.5,58.4h7.6v-1.9c0.1-3.6-2.6-3.6-3.9-4.2C84,51.8,81,50.5,81,50.5v0h0h0l0-1.1c0,0,2.1-2.3,2.4-3.9
		c0.3-0.2,1.6-3.2,0.1-3.1l-0.1-0.1c0,0,0-0.1,0.1-0.3c0.2-0.7,0.8-2.5,0.1-3.6c-0.9-1.3-1.5-3-6.8-3.1c-0.8,0-1.8,0.8-1.6,1.3
		c0,0-2.2,0.3-2.3,2.5c-0.1,2.2,0,2.4,0.3,2.9c0.1,0.1,0.1,0.3,0.1,0.3l-0.1,0.1c-1.4-0.1-0.2,2.9,0.1,3.1c0.2,1.6,2.4,3.9,2.4,3.9
		l0,1.1h0h0v0c0,0-0.1,0-0.2,0.1c0.1,0,0.1,0.1,0.2,0.1c1.6,0.7,5,1.6,4.9,6.1l-0.1,1.6L81.5,58.4z"/>
	<path class="st5" d="M42.6,58.4H35v-1.9c-0.1-3.6,2.7-3.6,4-4.2c1.3-0.6,4.3-1.8,4.3-1.8v0h0h0l0-1.1c0,0-2.1-2.3-2.4-3.9
		c-0.3-0.2-1.6-3.2-0.1-3.1l0.1-0.1c0,0,0-0.1-0.1-0.3c-0.2-0.7-0.8-2.5-0.1-3.6c0.9-1.3,1.5-3,6.8-3.1c0.8,0,1.8,0.8,1.6,1.3
		c0,0,2.2,0.3,2.3,2.5c0.1,2.2,0,2.4-0.3,2.9C51,42.2,51,42.3,51,42.3l0.1,0.1c1.4-0.1,0.2,2.9-0.1,3.1c-0.2,1.6-2.4,3.9-2.4,3.9
		l0,1.1h0h0v0c0,0,0.1,0,0.2,0.1c-0.1,0-0.1,0.1-0.2,0.1c-1.6,0.7-5,1.6-4.9,6.1l-0.1,1.6L42.6,58.4z"/>
	<path class="st5" d="M85.8,19.8c0-3.3-2.8-6.2-6.7-7.5c0.2,0.7,0.3,1.4,0.3,2.1c0,5.5-4.9,10.2-11.9,12c1.9,1,4.2,1.5,6.7,1.5
		c1.5,0,3-0.2,4.3-0.6c0.8,0.4,4.8,2.1,6.3,1.8l-2.8-3.4C84.4,24.4,85.8,22.2,85.8,19.8z"/>
	<path class="st5" d="M59.1,0.5c-9.9,0-18,5.7-18,12.8c0,3.7,2.3,7.1,5.8,9.4L42.6,28c2.4,0.4,8.5-2.3,9.9-2.8
		c2.1,0.6,4.3,0.9,6.7,0.9c9.9,0,18-5.7,18-12.8S69.1,0.5,59.1,0.5z M52.8,15.4c-1.1,0-2-0.9-2-2s0.9-2,2-2c1.1,0,2,0.9,2,2
		S53.9,15.4,52.8,15.4z M59.4,15.4c-1.1,0-2-0.9-2-2s0.9-2,2-2c1.1,0,2,0.9,2,2S60.5,15.4,59.4,15.4z M66.5,15.4c-1.1,0-2-0.9-2-2
		s0.9-2,2-2s2,0.9,2,2S67.6,15.4,66.5,15.4z"/>
</g>
</svg>
