<?xml version="1.0" encoding="utf-8"?>
<!-- Generator: Adobe Illustrator 22.1.0, SVG Export Plug-In . SVG Version: 6.00 Build 0)  -->
<svg version="1.1" id="图层_1" xmlns="http://www.w3.org/2000/svg" xmlns:xlink="http://www.w3.org/1999/xlink" x="0px" y="0px"
	 viewBox="0 0 124 128" style="enable-background:new 0 0 124 128;" xml:space="preserve">
<style type="text/css">
	.st0{fill:#2A9381;}
	.st1{opacity:0.6;}
	.st2{fill:#EFEFEF;}
	.st3{fill:#C1C2BE;}
	.st4{fill:#D8D8D8;}
	.st5{fill:#F9F9F9;}
	.st6{fill:#2DA291;}
	.st7{fill:#2DA291;stroke:#FFFFFF;stroke-width:0.5;stroke-miterlimit:10;}
	.st8{fill:#FFFFFF;stroke:#FFFFFF;stroke-width:0.5;stroke-miterlimit:10;}
</style>
<circle class="st0" cx="66.7" cy="15.3" r="15.2"/>
<g class="st1">
	<g>
		<path class="st2" d="M121.8,106.4c1.1,0.4,1.1,1,0,1.4l-58.7,20c-0.5,0.2-1.4,0.2-1.9,0l-59.1-20c-1.1-0.4-1.1-1,0-1.4l58.7-20
			c0.5-0.2,1.4-0.2,1.9,0L121.8,106.4z"/>
	</g>
</g>
<g>
	<g>
		<path class="st3" d="M123.1,96.6c0.4,0.1,0.4,0.4,0,0.5L63,117.5c-0.4,0.1-1.2,0.1-1.6,0L1,97.1c-0.4-0.1-0.4-0.4,0-0.5L61,76.1
			c0.4-0.1,1.2-0.1,1.6,0L123.1,96.6z"/>
	</g>
</g>
<polygon class="st4" points="0.6,82.9 0.6,96.9 62.3,117.6 123.5,96.9 123.5,82.9 62.3,103.8 "/>
<g>
	<path class="st5" d="M123.1,82.6c0.4,0.1,0.4,0.4,0,0.5L63,103.7c-0.4,0.1-1.2,0.1-1.6,0L1,83.2c-0.4-0.1-0.4-0.4,0-0.5L61,62.1
		c0.4-0.1,1.2-0.1,1.6,0L123.1,82.6z"/>
</g>
<ellipse class="st2" cx="61.8" cy="80.1" rx="30.7" ry="6.3"/>
<g>
	<path class="st6" d="M90.8,33.3c-0.5,0.1-1,0.5-2.3,0.1c-0.7-0.2-1.2-0.1-1.8-0.1c-0.7,0.1-1.2,0.2-1.6,0.5
		c-1.4,0.8-2.8,1.5-4.3,2.3c-1.1,0.7-2.3,1.3-3.4,2c-0.1,0-0.2,0.2-0.4,0.2c0,0,0.1,0,0,0c1.4,0.2,5,1.6,4.4,4.8
		c-0.7,3.3-3.9,3.3-5,3.3c-1,0-7.9-1.2-9.1-1.4c-1.3-0.2-10.2-1.3-11.9-1.3c-1.8,0-2.4-0.7-2.2-1.3c0.2-0.7,1.5-0.5,1.5-0.5
		c5.9,0,12.9,1.3,15.4,2c1.4,0.4,2.7,0.7,4,0.9c1.6,0.4,3.2,0.7,4.7-0.2c1.3-0.8,1.3-2.3,0.4-3.5c-0.5-0.7-1.2-0.9-1.8-1.3
		c-0.5-0.4-7.3-2.1-8.5-2.3c-0.4-0.1-0.8-0.1-1.3-0.2C67.5,37,67.2,37,66.9,37c-3-0.7-5.4-1.5-5.9-1.6c-1.4-0.4-3.1-1-5-2.3
		c-2-1.3-6.3-2.4-9.1-2.4c-2.5,0-9,1.2-13.9,5.3c-0.9,0.1-7.4,1.3-7.8,1.5l6.7,12.1c0,0,3.8-1,4.7-1.2c0.8-0.1,3.1-1.2,5.8-0.2
		c2.7,0.9,7.7,2.5,8.3,2.8c0.7,0.1,7.8,3.6,8.5,3.8s3.2,1.2,5.5,0.4c2.2-0.8,13.6-5.6,19-9.1s12.5-7.8,12.8-10.4
		C96.8,33,92,33.2,90.8,33.3z"/>
</g>
<circle class="st7" cx="66.7" cy="15.3" r="13.1"/>
<path class="st8" d="M69.9,20.5h-6.4v-1.1l0.2-0.1c1.1-0.4,1.4-1.2,1.4-2.2v-1.2h-1.4v-1.2h1.4V13c0-1,0.2-1.5,0.8-2.2
	c0.6-0.6,1.2-0.9,2-0.9c0.4,0,1,0.1,1.3,0.2l0.2,0.1v1.3l-0.3-0.2c-0.3-0.2-0.8-0.3-1.2-0.3c-0.6,0-0.9,0.2-1.1,0.6
	c-0.3,0.3-0.4,0.9-0.4,1.5v1.5h2.1v1.2h-2v1c0,1.1-0.3,1.9-0.9,2.4H70L69.9,20.5L69.9,20.5z"/>
</svg>
