<?xml version="1.0" encoding="utf-8"?>
<!-- Generator: Adobe Illustrator 22.1.0, SVG Export Plug-In . SVG Version: 6.00 Build 0)  -->
<svg version="1.1" id="图层_1" xmlns="http://www.w3.org/2000/svg" xmlns:xlink="http://www.w3.org/1999/xlink" x="0px" y="0px"
	 viewBox="0 0 124 124" style="enable-background:new 0 0 124 124;" xml:space="preserve">
<style type="text/css">
	.st0{opacity:0.6;}
	.st1{fill:#EFEFEF;}
	.st2{fill:#C1C2BE;}
	.st3{fill:#D8D8D8;}
	.st4{fill:#F9F9F9;}
	.st5{fill:#2DA291;}
	.st6{fill:none;stroke:#FFFFFF;stroke-width:0.8;stroke-miterlimit:10;}
	.st7{fill:#FFFFFF;}
</style>
<g class="st0">
	<g>
		<path class="st1" d="M121.8,102.4c1.1,0.4,1.1,1,0,1.4l-58.8,20c-0.5,0.2-1.4,0.2-1.9,0l-59.2-20c-1.1-0.4-1.1-1,0-1.4l58.8-20
			c0.5-0.2,1.4-0.2,1.9,0L121.8,102.4z"/>
	</g>
</g>
<g>
	<g>
		<path class="st2" d="M123.1,92.5c0.4,0.1,0.4,0.4,0,0.5l-60.2,20.5c-0.4,0.1-1.2,0.1-1.6,0L0.7,93c-0.4-0.1-0.4-0.4,0-0.5L60.9,72
			c0.4-0.1,1.2-0.1,1.6,0L123.1,92.5z"/>
	</g>
</g>
<polygon class="st3" points="0.3,78.8 0.3,92.8 62.2,113.6 123.5,92.8 123.5,78.8 62.2,99.7 "/>
<g>
	<path class="st4" d="M123.1,78.5c0.4,0.1,0.4,0.4,0,0.5L62.9,99.6c-0.4,0.1-1.2,0.1-1.6,0L0.7,79.1c-0.4-0.1-0.4-0.4,0-0.5L60.9,58
		c0.4-0.1,1.2-0.1,1.6,0L123.1,78.5z"/>
</g>
<ellipse class="st1" cx="61.7" cy="76" rx="30.8" ry="6.3"/>
<path class="st5" d="M80.1,6.4c-0.4,0-0.8,0-1.3,0l0,0c-11,0-15.8-5-15.8-5l-1.1-1.2l-1.1,1.2c0,0-5.1,5.4-17.1,5h-1.5V29
	c0,5.9,2,14.6,19.2,21.2l0.5,0.2l0.5-0.2C79.6,43.6,81.6,34.9,81.6,29V6.4H80.1z"/>
<path class="st6" d="M76.7,10c-0.3,0-0.7,0-1,0l0,0c-8.9,0-12.8-4.1-12.9-4.1l-0.9-1l-0.9,1c0,0-4.2,4.4-13.9,4.1h-1.2v18.4
	c0,4.8,1.6,11.9,15.6,17.2l0.4,0.2l0.4-0.2c14-5.4,15.6-12.4,15.6-17.2V9.9L76.7,10z"/>
<path class="st7" d="M67.6,22.1l-3.5,0.6c-0.1,0-0.3-0.1-0.3-0.2l0,0l-0.2-8.4c0-0.1-0.1-0.3-0.3-0.2c-0.1,0-0.2,0.1-0.2,0.1
	l-7.2,12.7c-0.1,0.1,0,0.3,0.1,0.3s0.1,0,0.2,0l4.2-0.7c0.1,0,0.3,0.1,0.3,0.2l0,0l0.2,8.3c0,0.1,0.1,0.3,0.3,0.2
	c0.1,0,0.2-0.1,0.2-0.1l6.5-12.5c0.1-0.1,0-0.3-0.1-0.3C67.7,22.1,67.6,22.1,67.6,22.1z"/>
</svg>
