<?xml version="1.0" encoding="utf-8"?>
<!-- Generator: Adobe Illustrator 22.1.0, SVG Export Plug-In . SVG Version: 6.00 Build 0)  -->
<svg version="1.1" id="图层_1" xmlns="http://www.w3.org/2000/svg" xmlns:xlink="http://www.w3.org/1999/xlink" x="0px" y="0px"
	 viewBox="0 0 124 124" style="enable-background:new 0 0 124 124;" xml:space="preserve">
<style type="text/css">
	.st0{fill:#00A99E;}
	.st1{opacity:0.6;}
	.st2{fill:#EFEFEF;}
	.st3{fill:#C1C2BE;}
	.st4{fill:#D8D8D8;}
	.st5{fill:#F9F9F9;}
	.st6{fill:#FFFFFF;}
</style>
<path class="st0" d="M71,43.7c4,0,7.2-3.1,7.3-7.1c1-0.3,1.9-0.8,2.7-1.4c2.1-1.8,3-4.5,2.5-7.1c1.1-0.7,2-1.7,2.6-2.8
	c1.8-3.5,0.6-7.7-2.7-9.8c1-3.9-1.2-8-5.1-9.1C77.8,2.8,74.8,0,71,0c-4,0-7.3,3.3-7.3,7.3v29.1c0,0,0,0,0,0
	C63.8,40.4,67,43.7,71,43.7z"/>
<polygon class="st0" points="52.2,1 48.5,4.4 47.2,7.9 43.6,10.3 42.6,14.9 40.5,17.9 39.3,20.9 40,25.1 42.2,27.3 42.6,30.8 
	43.2,33.4 45.6,35.7 47.9,37.1 49.5,40.9 53.9,42.4 56.8,41.8 60.2,38.7 60.4,5 56.4,1.6 "/>
<g class="st1">
	<g>
		<path class="st2" d="M121.7,102.5c1.1,0.4,1.1,1,0,1.4l-58.6,19.9c-0.5,0.2-1.4,0.2-1.9,0l-59-19.9c-1.1-0.4-1.1-1,0-1.4
			l58.6-19.9c0.5-0.2,1.4-0.2,1.9,0L121.7,102.5z"/>
	</g>
</g>
<g>
	<g>
		<path class="st3" d="M123,92.6c0.4,0.1,0.4,0.4,0,0.5l-60,20.4c-0.4,0.1-1.2,0.1-1.6,0L1.1,93.1c-0.4-0.1-0.4-0.4,0-0.5l60-20.4
			c0.4-0.1,1.2-0.1,1.6,0L123,92.6z"/>
	</g>
</g>
<polygon class="st4" points="0.7,79 0.7,92.9 62.4,113.6 123.4,92.9 123.4,79 62.4,99.8 "/>
<g>
	<path class="st5" d="M123,78.7c0.4,0.1,0.4,0.4,0,0.5l-60,20.5c-0.4,0.1-1.2,0.1-1.6,0L1.1,79.3c-0.4-0.1-0.4-0.4,0-0.5l60-20.5
		c0.4-0.1,1.2-0.1,1.6,0L123,78.7z"/>
</g>
<ellipse class="st2" cx="61.9" cy="76.2" rx="30.7" ry="6.3"/>
<path class="st0" d="M54.1,43.7c-4,0-7.3-3.3-7.3-7.3c0-4,3.3-7.3,7.3-7.3c1.3,0,2.6,0.3,3.7,1c0.5,0.3,0.6,0.9,0.4,1.4
	c-0.3,0.5-0.9,0.6-1.4,0.4c-2.5-1.5-5.8-0.6-7.3,1.9c-1.5,2.5-0.6,5.8,1.9,7.3c2.5,1.5,5.8,0.6,7.3-1.9c0.5-0.8,0.7-1.7,0.7-2.7V7.3
	C59.4,4.4,57,2,54.1,2c-2.9,0-5.3,2.4-5.3,5.3s2.4,5.3,5.3,5.3l0,0c0.5,0,1,0.4,1,1c0,0.5-0.4,1-1,1c-4,0-7.3-3.3-7.3-7.3
	S50,0,54.1,0c4,0,7.3,3.3,7.3,7.3c0,0,0,0,0,0v29.1C61.4,40.4,58.1,43.7,54.1,43.7z"/>
<path class="st0" d="M44,19.5c-0.3,0-0.6-0.1-0.8-0.3C40.6,16,41,11.2,44.1,8.5c0.9-0.8,1.9-1.3,3.1-1.6c0.5-0.1,1.1,0.2,1.2,0.8
	c0.1,0.5-0.2,1-0.7,1.1c-3,0.7-4.8,3.7-4.1,6.7c0.2,0.8,0.6,1.6,1.2,2.3c0.4,0.4,0.3,1-0.1,1.4C44.5,19.4,44.3,19.5,44,19.5L44,19.5
	z M47.2,37.4c-0.1,0-0.2,0-0.3,0c-4-1.1-6.3-5.3-5.2-9.3c0.7-2.3,2.4-4.2,4.7-5c0.5-0.2,1.1,0,1.3,0.5c0.2,0.5,0,1.1-0.5,1.3
	c0,0-0.1,0-0.1,0c-2.9,1.1-4.3,4.2-3.3,7.1c0.6,1.7,2,2.9,3.7,3.4c0.5,0.2,0.8,0.7,0.7,1.2C48,37.1,47.6,37.4,47.2,37.4L47.2,37.4z"
	/>
<path class="st0" d="M42.8,28.6c-0.2,0-0.3,0-0.5-0.1c-3.7-1.9-5.2-6.4-3.3-10.1c0.7-1.3,1.8-2.4,3.1-3.2c0.5-0.3,1.1-0.1,1.3,0.4
	c0.3,0.5,0.1,1.1-0.4,1.3c-2.7,1.5-3.7,4.8-2.2,7.5c0.5,1,1.3,1.8,2.3,2.3c0.5,0.3,0.7,0.9,0.4,1.3C43.4,28.4,43.1,28.6,42.8,28.6
	L42.8,28.6z"/>
<path class="st6" d="M58.2,22.2c-0.2,0.3-0.4,0.5-0.6,0.7c-0.4,0.4-1,0.4-1.4,0s-0.4-1,0-1.4c0,0,0.1-0.1,0.1-0.1
	c0.7-0.7,1.1-1.7,0.9-2.7c0-0.7-0.4-1.4-1.1-1.8c-0.5-0.3-0.7-0.9-0.4-1.3s0.9-0.7,1.3-0.4c1.2,0.7,2,1.9,2.1,3.3
	C59.3,19.8,58.9,21.1,58.2,22.2L58.2,22.2z"/>
<path class="st6" d="M53.3,40.3c-0.3,0-0.6,0-0.9-0.1c-0.5-0.1-0.9-0.6-0.8-1.1s0.6-0.9,1.1-0.8c0,0,0.1,0,0.1,0
	c1,0.2,2-0.1,2.7-0.8c0.6-0.5,0.9-1.2,0.8-1.9c-0.1-0.5,0.3-1,0.9-1.1s1,0.3,1.1,0.9c0.1,1.4-0.4,2.7-1.4,3.6
	C55.9,39.8,54.6,40.3,53.3,40.3L53.3,40.3z"/>
<path class="st6" d="M57.6,6.8c0.1,0.3,0.2,0.6,0.3,0.9c0.1,0.5-0.2,1.1-0.7,1.2c-0.5,0.1-1.1-0.2-1.2-0.7c0,0,0-0.1,0-0.1
	c-0.2-1-0.9-1.8-1.8-2.2c-0.7-0.3-1.4-0.3-2.1,0c-0.5,0.3-1.1,0.1-1.4-0.3c-0.3-0.5-0.1-1.1,0.3-1.4c1.2-0.7,2.7-0.7,3.9-0.1
	C56.1,4.6,57,5.6,57.6,6.8L57.6,6.8z"/>
<path class="st6" d="M45.8,12c0.2-0.2,0.5-0.4,0.8-0.5c0.5-0.3,1.1-0.1,1.4,0.3c0.3,0.5,0.1,1.1-0.3,1.4c0,0-0.1,0-0.1,0.1
	c-0.9,0.5-1.4,1.4-1.5,2.4c-0.1,0.7,0.1,1.5,0.6,2c0.4,0.4,0.4,1,0.1,1.4c-0.4,0.4-1,0.4-1.4,0.1c-1-1-1.5-2.3-1.3-3.7
	C44.1,14,44.8,12.8,45.8,12L45.8,12z"/>
<path class="st6" d="M48.4,22.3c0.1-0.3,0.1-0.6,0.3-0.9c0.2-0.5,0.7-0.8,1.3-0.6c0.5,0.2,0.8,0.7,0.6,1.3c0,0,0,0.1,0,0.1
	c-0.3,0.9-0.2,2,0.3,2.8c0.4,0.6,1,1.1,1.7,1.1c0.5,0,1,0.5,0.9,1c0,0.5-0.5,1-1,0.9c-1.4-0.1-2.6-0.9-3.3-2.1
	C48.4,24.9,48.1,23.6,48.4,22.3L48.4,22.3z"/>
<path class="st6" d="M44.9,30.9c0-0.3,0-0.6,0.1-0.9c0.1-0.5,0.6-0.9,1.1-0.8s0.9,0.6,0.8,1.1c0,0,0,0.1,0,0.1c-0.2,1,0.1,2,0.8,2.7
	c0.5,0.6,1.2,0.9,1.9,0.8c0.5-0.1,1,0.3,1.1,0.9s-0.3,1-0.9,1.1c-1.4,0.1-2.7-0.4-3.6-1.5C45.3,33.5,44.9,32.2,44.9,30.9L44.9,30.9z
	"/>
<path class="st6" d="M60.3,28.2c-0.5,0-1-0.4-1-1c0,0,0,0,0,0c0-0.4-0.9-0.6-1-0.7c-0.5-0.1-0.9-0.6-0.8-1.2
	c0.1-0.5,0.6-0.9,1.2-0.8c1,0.2,2.6,0.9,2.6,2.6C61.3,27.7,60.9,28.2,60.3,28.2L60.3,28.2L60.3,28.2z"/>
<path class="st6" d="M43.3,22.7c0.5,0.1,0.9,0.6,0.9,1.1c0,0,0,0,0,0c0,0.4,0.8,0.7,0.9,0.8c0.5,0.2,0.8,0.7,0.6,1.2
	c-0.2,0.5-0.7,0.8-1.2,0.6c-0.9-0.3-2.5-1.3-2.3-2.9C42.3,23.1,42.8,22.7,43.3,22.7L43.3,22.7L43.3,22.7z"/>
<path class="st6" d="M53.3,15.6c-0.5,0-1-0.4-1-1c0,0,0,0,0,0c0-0.4-0.9-0.6-1-0.7c-0.5-0.1-0.9-0.6-0.8-1.2
	c0.1-0.5,0.6-0.9,1.2-0.8c1,0.2,2.6,0.9,2.6,2.6C54.3,15.2,53.8,15.6,53.3,15.6L53.3,15.6L53.3,15.6z"/>
<path class="st5" d="M71.3,13.6h-4.9c-0.4,0-0.7-0.3-0.7-0.7s0.3-0.7,0.7-0.7h4.8l2.2-0.6c0.4-0.1,0.8,0.1,0.9,0.5
	c0.1,0.4-0.1,0.8-0.5,0.9l-2.3,0.7C71.4,13.5,71.4,13.6,71.3,13.6L71.3,13.6z"/>
<path class="st5" d="M75.4,7.9c-1.6,0-2.8,1.2-2.8,2.8c0,1.6,1.2,2.8,2.8,2.8c0,0,0,0,0,0c1.6,0,2.8-1.3,2.8-2.8
	C78.2,9.2,76.9,7.9,75.4,7.9z M75.4,11.9c-0.7,0-1.2-0.5-1.2-1.2c0-0.7,0.5-1.2,1.2-1.2v0c0,0,0,0,0,0c0.7,0,1.2,0.5,1.2,1.2
	C76.5,11.4,76,11.9,75.4,11.9z"/>
<path class="st5" d="M76.2,31.5c-0.1,0-0.2,0-0.3,0l-2.4-0.7h-8.5c-0.5,0-1-0.4-1-1c0-0.5,0.4-1,1-1h8.6c0.1,0,0.2,0,0.3,0l2.5,0.7
	c0.5,0.1,0.8,0.7,0.7,1.2C77,31.2,76.6,31.5,76.2,31.5L76.2,31.5z"/>
<path class="st5" d="M79.3,28.5c-1.9,0-3.4,1.5-3.4,3.4c0,1.9,1.5,3.4,3.4,3.4c1.9,0,3.4-1.5,3.4-3.4C82.7,30,81.2,28.5,79.3,28.5z
	 M80.8,31.9c0,0.8-0.6,1.4-1.4,1.4c-0.8,0-1.4-0.6-1.4-1.4c0-0.8,0.6-1.4,1.4-1.4v0C80.1,30.4,80.7,31.1,80.8,31.9
	C80.8,31.9,80.8,31.9,80.8,31.9z"/>
<path class="st5" d="M81.9,19c-1.6,0-2.9,1.3-2.9,2.9c0,1.6,1.3,2.9,2.9,2.9v0c1.6,0,2.9-1.3,2.9-2.9C84.8,20.3,83.5,19,81.9,19z
	 M81.9,23c-0.7,0-1.2-0.5-1.2-1.2c0-0.7,0.5-1.2,1.2-1.2s1.2,0.5,1.2,1.2C83.1,22.5,82.6,23,81.9,23z"/>
<path class="st5" d="M71.1,35.2c-1.4,0-2.5,1.1-2.5,2.5c0,1.4,1.1,2.5,2.5,2.5c1.4,0,2.5-1.1,2.5-2.5C73.6,36.3,72.5,35.2,71.1,35.2
	z M72.2,37.7c0,0.6-0.5,1.1-1.1,1.1c-0.6,0-1.1-0.5-1.1-1.1c0-0.6,0.5-1.1,1.1-1.1v0C71.7,36.6,72.2,37.1,72.2,37.7
	C72.2,37.7,72.2,37.7,72.2,37.7z"/>
<path class="st5" d="M70,22.7h-2.7c-0.5,0-0.9-0.4-0.8-0.9c0-0.4,0.4-0.8,0.8-0.8H70c0.5,0,0.9,0.4,0.8,0.9
	C70.8,22.3,70.4,22.7,70,22.7L70,22.7z"/>
<path class="st5" d="M69.7,6.4H67c-0.5,0-0.9-0.4-0.8-0.9c0-0.4,0.4-0.8,0.8-0.8h2.7c0.5,0,0.9,0.4,0.8,0.9
	C70.5,6.1,70.2,6.4,69.7,6.4L69.7,6.4z"/>
<path class="st5" d="M79.5,22.7H73c-0.5,0-0.9-0.3-0.9-0.8c0-0.5,0.3-0.9,0.8-0.9c0,0,0.1,0,0.1,0h6.6c0.5,0,0.8,0.4,0.8,0.9
	C80.3,22.3,79.9,22.6,79.5,22.7L79.5,22.7z"/>
</svg>
