<?xml version="1.0" encoding="utf-8"?>
<!-- Generator: Adobe Illustrator 22.1.0, SVG Export Plug-In . SVG Version: 6.00 Build 0)  -->
<svg version="1.1" id="图层_1" xmlns="http://www.w3.org/2000/svg" xmlns:xlink="http://www.w3.org/1999/xlink" x="0px" y="0px"
	 viewBox="0 0 124 124" style="enable-background:new 0 0 124 124;" xml:space="preserve">
<style type="text/css">
	.st0{opacity:0.6;}
	.st1{fill:#EFEFEF;}
	.st2{fill:#C1C2BE;}
	.st3{fill:#D8D8D8;}
	.st4{fill:#F9F9F9;}
	.st5{fill:#FFFFFF;}
	.st6{fill:#00A99E;stroke:#00A99E;stroke-miterlimit:10;}
	.st7{fill:#00A99E;}
	.st8{fill:none;stroke:#00A99E;stroke-width:1.5;stroke-miterlimit:10;}
	.st9{fill:#00A99E;stroke:#00A99E;stroke-width:0.3;stroke-miterlimit:10;}
</style>
<g class="st0">
	<g>
		<path class="st1" d="M122.2,102.3c1.1,0.4,1.1,1,0,1.4l-59,20.1c-0.5,0.2-1.4,0.2-1.9,0L2,103.7c-1.1-0.4-1.1-1,0-1.4l59-20.1
			c0.5-0.2,1.4-0.2,1.9,0L122.2,102.3z"/>
	</g>
</g>
<g>
	<g>
		<path class="st2" d="M123.6,92.4c0.4,0.1,0.4,0.4,0,0.5l-60.4,20.6c-0.4,0.1-1.2,0.1-1.6,0L0.8,92.9c-0.4-0.1-0.4-0.4,0-0.5
			l60.4-20.6c0.4-0.1,1.2-0.1,1.6,0L123.6,92.4z"/>
	</g>
</g>
<polygon class="st3" points="0.4,78.8 0.4,92.8 62.5,113.7 124,92.8 124,78.8 62.5,99.8 "/>
<g>
	<path class="st4" d="M123.6,78.4c0.4,0.1,0.4,0.4,0,0.5L63.2,99.5c-0.4,0.1-1.2,0.1-1.6,0L0.8,79c-0.4-0.1-0.4-0.4,0-0.5l60.4-20.7
		c0.4-0.1,1.2-0.1,1.6,0L123.6,78.4z"/>
</g>
<ellipse class="st1" cx="62" cy="75.9" rx="30.9" ry="6.3"/>
<path class="st5" d="M75.7,17.6h-29c-0.2,0-0.3-0.1-0.3-0.3v-0.3c0-0.2,0.1-0.3,0.3-0.3h29c0.2,0,0.3,0.1,0.3,0.3v0.3
	C76,17.5,75.8,17.6,75.7,17.6z"/>
<path class="st5" d="M75.7,40.9h-29c-0.2,0-0.3-0.1-0.3-0.3v-0.3c0-0.2,0.1-0.3,0.3-0.3h29c0.2,0,0.3,0.1,0.3,0.3v0.3
	C76,40.7,75.8,40.9,75.7,40.9z"/>
<g>
	<polygon class="st6" points="75.8,13.4 63.5,3.7 61.4,6.4 60.7,5.9 63.4,2.4 76.4,12.7 	"/>
</g>
<g>
	<polygon class="st6" points="69.2,13.4 67.9,12.3 54.4,1.8 52.2,4.5 46.3,13.3 45.5,12.8 51.5,4 54.2,0.5 68.5,11.6 69.8,12.7 	"/>
</g>
<g>
	<path class="st6" d="M63.9,13.5L58.2,9c-1.4,1.6-3.7,1.4-5.1,1l-2.3,3.4l-0.8-0.5l2.7-4L53.1,9c0.1,0,3.1,1.3,4.6-0.9L58,7.7
		l6.4,5.1L63.9,13.5z"/>
</g>
<path class="st7" d="M68.3,28.5c0,3,2.4,5.4,5.4,5.4h10.5V23H73.7C70.7,23,68.3,25.5,68.3,28.5z"/>
<g>
	<path class="st5" d="M74.7,31.6c-1.7,0-3.2-1.4-3.2-3.2s1.4-3.2,3.2-3.2c1.7,0,3.2,1.4,3.2,3.2S76.5,31.6,74.7,31.6z M74.7,26.2
		c-1.2,0-2.3,1-2.3,2.3c0,1.2,1,2.3,2.3,2.3c1.2,0,2.3-1,2.3-2.3C77,27.2,76,26.2,74.7,26.2z"/>
</g>
<path class="st7" d="M80.9,22v-6.6c0-1.8-1.5-3.3-3.3-3.3H44.3c-1.8,0-3.3,1.5-3.3,3.3v14.1c1.8-1.4,4.1-2.3,6.6-2.3
	c5.8,0,10.5,4.7,10.5,10.5c0,3.1-1.3,5.9-3.5,7.8h22.9c1.8,0,3.2-1.4,3.3-3.3V35H79v0h-5.7c-3.6,0-6.5-2.9-6.5-6.5s2.9-6.5,6.5-6.5
	H79v0H80.9z"/>
<circle class="st8" cx="47.6" cy="37.7" r="10.5"/>
<path class="st9" d="M50.7,42.7h-6.1v-1.1l0.2-0.1c1.1-0.4,1.4-1.2,1.4-2.1v-1.2h-1.4v-1.2h1.4v-1.6c0-1,0.2-1.5,0.7-2.1
	c0.5-0.5,1.2-0.8,1.9-0.8c0.4,0,1,0.1,1.3,0.2l0.2,0.1v1.3L49.9,34c-0.3-0.2-0.7-0.3-1.2-0.3c-0.5,0-0.8,0.2-1.1,0.5
	c-0.3,0.3-0.4,0.8-0.4,1.5v1.5h2v1.2h-1.9v1c0,1.1-0.3,1.8-0.8,2.3h4.2L50.7,42.7L50.7,42.7z"/>
</svg>
