<?xml version="1.0" encoding="utf-8"?>
<!-- Generator: Adobe Illustrator 22.1.0, SVG Export Plug-In . SVG Version: 6.00 Build 0)  -->
<svg version="1.1" id="图层_1" xmlns="http://www.w3.org/2000/svg" xmlns:xlink="http://www.w3.org/1999/xlink" x="0px" y="0px"
	 viewBox="0 0 124 124" style="enable-background:new 0 0 124 124;" xml:space="preserve">
<style type="text/css">
	.st0{opacity:0.6;}
	.st1{fill:#EFEFEF;}
	.st2{fill:#C1C2BE;}
	.st3{fill:#D8D8D8;}
	.st4{fill:#F9F9F9;}
	.st5{fill:#00A99E;}
</style>
<g class="st0">
	<g>
		<path class="st1" d="M122.2,102.4c1.1,0.4,1.1,1,0,1.4l-58.8,20c-0.5,0.2-1.4,0.2-1.9,0l-59.2-20c-1.1-0.4-1.1-1,0-1.4l58.8-20
			c0.5-0.2,1.4-0.2,1.9,0L122.2,102.4z"/>
	</g>
</g>
<g>
	<g>
		<path class="st2" d="M123.5,92.5c0.4,0.1,0.4,0.4,0,0.5l-60.2,20.5c-0.4,0.1-1.2,0.1-1.6,0L1.1,93c-0.4-0.1-0.4-0.4,0-0.5L61.3,72
			c0.4-0.1,1.2-0.1,1.6,0L123.5,92.5z"/>
	</g>
</g>
<polygon class="st3" points="0.7,78.8 0.7,92.8 62.6,113.6 123.9,92.8 123.9,78.8 62.6,99.7 "/>
<g>
	<path class="st4" d="M123.5,78.5c0.4,0.1,0.4,0.4,0,0.5L63.3,99.6c-0.4,0.1-1.2,0.1-1.6,0L1.1,79.1c-0.4-0.1-0.4-0.4,0-0.5L61.3,58
		c0.4-0.1,1.2-0.1,1.6,0L123.5,78.5z"/>
</g>
<ellipse class="st1" cx="62.1" cy="76" rx="30.8" ry="6.3"/>
<path class="st5" d="M63.7,11c-1.1-0.2-1.7-1.3-1.5-2.3c0.2-1,1-1.6,2-1.6c0.1,0,0.2,0,0.3,0c3.7,0.8,6.8,2.9,8.9,6.1
	c2.1,3.2,2.8,7,2,10.7c-0.1,0.5-0.4,1-0.8,1.2c-0.3,0.2-0.7,0.3-1.1,0.3c-0.1,0-0.2,0-0.3,0c-1.1-0.2-1.7-1.3-1.5-2.3
	c0.5-2.7,0-5.4-1.5-7.7C68.6,13.1,66.4,11.6,63.7,11z M61.7,17.2c-0.5-0.1-0.9-0.4-1.2-0.8c-0.3-0.4-0.4-1-0.3-1.5
	c0.2-0.9,1-1.6,2-1.6c0.1,0,0.2,0,0.3,0c4.5,0.9,7.5,5.4,6.5,10c-0.1,0.5-0.4,1-0.8,1.3c-0.3,0.2-0.7,0.3-1.1,0.3
	c-0.1,0-0.2,0-0.3,0c-0.5-0.1-1-0.4-1.2-0.8c-0.3-0.4-0.4-1-0.3-1.5c0.2-1.2,0-2.4-0.6-3.4C63.9,18.1,62.9,17.4,61.7,17.2L61.7,17.2
	z M69.9,30.7c0.1,0.1,2.7,1.7,4.7,3.8c0.7,0.8,2,2.1,2,3.6c0,1-0.6,2.1-1.8,3.2c-0.3,0.3-2.9,2.7-7,2.7c-1.1,0-2.3-0.2-3.4-0.5
	c-1.2-0.4-2.5-0.9-3.7-1.7c-4.8-2.9-8.5-6.6-12.1-12c-6.1-9.3-6.2-17.3-6.2-18.9c0-7,5.7-9.7,6.4-10c0.9-0.4,1.7-0.6,2.4-0.6
	c0.3,0,0.7,0,1,0.1c0.6,0.2,1.5,0.7,2.1,2c0.8,1.8,1.6,4.3,2.1,6.9c0.5,2.7-1,3.5-2.4,4.2l-0.1,0c0,0-2.6,1.1-3,1.3
	c-0.4,0.2-0.7,0.7-0.5,1.2c1,3.2,2.6,6.5,4.6,9.6c1.9,3,4.2,5.8,6.7,8.1c0.2,0.2,0.4,0.2,0.6,0.2l0.1,0c0.3,0,0.5-0.2,0.7-0.4
	c0.4-0.5,1-1.3,1.6-1.9c1.2-1.2,2.3-1.7,3.3-1.7c0.3,0,0.6,0,0.8,0.1C69,30.1,69.4,30.3,69.9,30.7L69.9,30.7z M66.5,1
	c-0.1,0-0.2,0-0.3,0c-1,0-1.8,0.6-2,1.6c-0.1,0.5,0,1,0.3,1.5c0.3,0.4,0.7,0.7,1.2,0.8c4.1,0.9,7.6,3.3,10,6.8
	c2.3,3.6,3.1,7.8,2.3,12c-0.1,0.5,0,1,0.3,1.5c0.3,0.4,0.7,0.7,1.2,0.8c0.1,0,0.2,0,0.3,0c0.4,0,0.8-0.1,1.1-0.3
	c0.4-0.3,0.7-0.7,0.8-1.2C84,13.7,77.1,3.2,66.5,1z"/>
</svg>
