<?xml version="1.0" encoding="utf-8"?>
<!-- Generator: Adobe Illustrator 22.1.0, SVG Export Plug-In . SVG Version: 6.00 Build 0)  -->
<svg version="1.1" id="图层_1" xmlns="http://www.w3.org/2000/svg" xmlns:xlink="http://www.w3.org/1999/xlink" x="0px" y="0px"
	 viewBox="0 0 625 584" style="enable-background:new 0 0 625 584;" xml:space="preserve">
<style type="text/css">
	.st0{fill:#F4F4F4;}
	.st1{fill:#00B5A2;}
	.st2{fill:#EDEDED;}
	.st3{fill:none;stroke:#00B5A2;stroke-width:2;stroke-miterlimit:10;}
	.st4{fill:#FFFFFF;}
</style>
<g>
	<rect x="8.2" y="153.1" class="st0" width="67.6" height="90"/>
</g>
<g>
	<rect x="540.8" y="247.9" class="st0" width="82.1" height="108.5"/>
</g>
<g>
	<g>
		<path class="st1" d="M149.2,450.4l-49.8-28.9l-0.2-57.6l49.8,29L149.2,450.4z M101.4,420.3l45.8,26.6l-0.2-53l-45.8-26.6
			L101.4,420.3z"/>
	</g>
</g>
<g>
	<g>
		<polygon class="st2" points="195.9,365.7 148.1,393.4 100.3,365.6 148.4,337.8 148.4,338.1 		"/>
		<path class="st1" d="M148.1,394.5l-49.8-29l51.2-29.5v1.5l48.5,28.2L148.1,394.5z M102.2,365.6l45.8,26.6l45.9-26.5l-45.8-26.6
			L102.2,365.6z"/>
	</g>
	<g>
		<path class="st1" d="M195.3,367.3l-0.2-56.1l-1.3-0.8l116-67l1.1,0.7l48.7,28.3l-2.5,1.5l-46.4-27l0.1,53.7L195.3,367.3z
			 M197.1,310.8l0.2,53l111.6-64.4l-0.1-53L197.1,310.8z"/>
	</g>
</g>
<g>
	<path class="st1" d="M147.2,450.4l-0.2-57.6l163.7-94.5v1.6l48.4,28.1l-2.1,1.3l-0.5-0.3l-46.2-26.7l-0.2,54l-23.8,13.7
		L147.2,450.4z M149.1,393.9l0.2,53l159-91.8l0.2-53.2L149.1,393.9z"/>
</g>
<g>
	<polygon class="st1" points="356.6,329.4 356.5,273.5 355.1,272.7 358.6,270.7 358.6,273 358.7,328.3 	"/>
</g>
<g>
	<g>
		<path class="st3" d="M196.1,310.6l-0.3-0.2l-47.5-27.6l0.1,38.9l0,16.1v0.4l47.5,27.6l0.3-0.2L196.1,310.6z M169.1,330
			c-1.1-0.6-2-1.5-2.9-2.5c-0.4-0.4-0.7-0.9-1.1-1.4c-0.2-0.2-0.3-0.5-0.5-0.8s-0.3-0.5-0.4-0.8c-0.2-0.3-0.3-0.6-0.4-0.9
			c-0.1-0.2-0.2-0.5-0.3-0.7c-0.1-0.2-0.1-0.4-0.2-0.5c-0.1-0.2-0.1-0.4-0.2-0.6c0,0,0,0,0-0.1c-0.1-0.2-0.1-0.5-0.2-0.8
			c0-0.2-0.1-0.4-0.1-0.6c0-0.1,0-0.2,0-0.3c0-0.3,0-0.6,0-0.9c0-4.1,2.9-5.7,6.4-3.6c2.4,1.4,4.6,4.2,5.6,7.2
			c0.5,1.3,0.7,2.6,0.7,3.8C175.5,330.4,172.6,332.1,169.1,330z"/>
	</g>
	<g>
		<polygon class="st1" points="197.2,367.7 193.9,365.7 197.2,363.8 		"/>
	</g>
</g>
<g>
	<g>
		<polygon class="st2" points="244.1,227.9 243.8,227.7 309.7,189.7 310,189.9 		"/>
		<polygon class="st1" points="244.1,229 241.8,227.7 309.7,188.5 312,189.9 		"/>
	</g>
	<g>
		<polygon class="st2" points="310.1,244.8 244.3,282.8 243.9,283 196.1,310.6 195.8,310.4 148.3,282.8 196.4,255 196.4,255.4 
			243.6,282.8 244.3,282.4 309.8,244.6 		"/>
		<path class="st1" d="M196.1,311.8l-0.8-0.5l-49-28.5l51.2-29.5v1.5l46.2,26.8l0.2-0.1l66-38.1l2.3,1.3L196.1,311.8z M150.3,282.8
			l45.8,26.6l45.8-26.5l-45.8-26.6L150.3,282.8z"/>
	</g>
</g>
<g>
	<g>
		<path class="st1" d="M195.3,367.7v-2.1l-0.2-55.5l163.4-94.3v2.7L312.4,245l46.2,26.8v1.5l-0.6,0.3l-0.5,0.4l-0.9-0.6l-45.9-26.7
			l0.1,54.1l-1,0.6L195.3,367.7z M197.1,311.2l0.2,53l111.6-64.4l-0.1-53L197.1,311.2z"/>
	</g>
</g>
<g>
	<g>
		<path class="st1" d="M243.6,284l-48.2-28v-1l-0.2-56.7l49.8,28.9l0.2,55.7L243.6,284z M197.4,254.8l45.8,26.6l-0.2-53l-45.8-26.6
			L197.4,254.8z"/>
	</g>
	<g>
		<polygon class="st1" points="245.3,284.9 241.6,282.8 245.3,280.7 		"/>
	</g>
</g>
<g>
	<g>
		<polygon class="st2" points="357.4,162.5 310,189.9 244.1,227.9 243.8,227.7 196.3,200.1 309.5,134.7 		"/>
		<path class="st1" d="M244.1,229l-0.8-0.5l-49-28.5l115.2-66.5l49.8,28.9L244.1,229z M198.3,200.1l45.8,26.6l111.3-64.2l-45.8-26.6
			L198.3,200.1z"/>
	</g>
</g>
<g>
	<path class="st1" d="M243.3,284.2l-0.2-56.8l115.3-66.5l0.2,57.5l-1,0.3l-47.4,27.4l-0.3-0.2L243.3,284.2z M245.1,228.5l0.2,52.2
		l64.5-37.3l0.3,0.2l46.4-26.8l-0.1-52.6L245.1,228.5z"/>
</g>
<g>
	<g>
		<path class="st1" d="M427.1,426.2l0.2-57.6l49.8-29l-0.2,57.6L427.1,426.2z M429.3,369.8l-0.2,53l45.8-26.6l0.2-53L429.3,369.8z"
			/>
	</g>
</g>
<g>
	<g>
		<path class="st1" d="M429.1,426.2l-120.9-69.8v-0.7l0.2-55.7l1-0.5l0.5,0.2l119.3,68.9L429.1,426.2z M310.2,355.3l116.9,67.5
			l0.2-53l-116.9-67.5L310.2,355.3z"/>
	</g>
	<g>
		<polygon class="st1" points="308.4,302.2 308.4,298.7 309.9,299.7 311.3,300.7 309.8,301.5 		"/>
	</g>
</g>
<g>
	<polygon class="st1" points="356.6,329.4 356.5,272.9 357,272.9 357.7,271.9 358.6,272.5 358.7,328.3 	"/>
</g>
<g>
	<polygon class="st2" points="476.1,341.4 428.3,369.2 357.1,328.1 309.4,300.6 309.4,300.6 309.8,300.3 309.8,300.5 357.2,328 
		357.6,327.8 357.6,328.3 405.5,300.6 	"/>
	<path class="st1" d="M428.3,370.4l-0.5-0.3l-70.3-40.6l-0.8,0.5v-1l-47.8-27.6l-1.3-0.9l3.3-2v1.3l46.4,27l1.4-0.8v0.5l46.8-27
		l0.5,0.3l72.1,41.6L428.3,370.4z M359.5,328.3l68.8,39.7l45.8-26.6l-68.6-39.6L359.5,328.3z"/>
</g>
<g>
	<g>
		<path class="st1" d="M357.2,329.2L308.8,301V300l-0.2-55.1l1.3-0.7l48.6,28.2l0.2,56L357.2,329.2z M310.8,299.9l45.8,26.6l-0.2-53
			l-45.8-26.6L310.8,299.9z"/>
	</g>
	<g>
		<polygon class="st1" points="308.7,247.1 308.7,243.4 312,245.3 		"/>
	</g>
	<g>
		<polygon class="st1" points="358.6,330 355.2,328 358.6,326 		"/>
	</g>
</g>
<g>
	<polygon class="st2" points="357.6,272.4 310.4,245 357.5,217.8 357.5,217.8 357.5,217.5 357.8,217.4 405.6,245.1 357.6,272.9 	"/>
	<path class="st1" d="M356.6,274.6V273l-48.2-28l48.1-27.7V217l1.3-0.8l49.8,28.9L356.6,274.6z M312.4,245l45.6,26.5l45.6-26.3
		L358,218.7l-0.1,0L312.4,245z"/>
</g>
<g>
	<g>
		<path class="st3" d="M405.6,245.1l-48,27.7v0.1l0.1,54.7l-0.1,0.1v0.5l47.8-27.6l0.3-0.2L405.6,245.1z M389.9,291.7
			c-1,1.9-2.5,3.7-4.2,4.6c-3.1,1.8-5.7,0.4-5.7-3.2c0-1.9,0.7-4.1,1.9-6c1-1.6,2.3-3,3.7-3.8c3.1-1.8,5.7-0.4,5.7,3.2
			C391.3,288.2,390.8,290,389.9,291.7z"/>
	</g>
	<g>
		<polygon class="st1" points="356.6,329.4 356.5,272.6 356.9,272.1 358.6,271.2 358.6,273 358.7,328.3 		"/>
	</g>
</g>
<g>
	<g>
		<path class="st1" d="M172,331.9c-1.1,0-2.2-0.3-3.4-1c-1.1-0.6-2.2-1.6-3.2-2.7c-2.3-2.7-3.7-6.2-3.7-9.1c0-2.3,0.8-4.1,2.4-5
			c1.5-0.9,3.5-0.7,5.5,0.5c2.6,1.5,4.9,4.4,6.1,7.7c0.5,1.4,0.8,2.8,0.8,4.2v0c0,2.3-0.8,4.1-2.4,5
			C173.5,331.7,172.8,331.9,172,331.9z M166.3,315.5c-0.4,0-0.8,0.1-1.2,0.3c-0.9,0.5-1.4,1.7-1.4,3.2c0,2.5,1.2,5.6,3.2,7.8
			c0.9,1,1.8,1.8,2.7,2.3c1.4,0.8,2.6,1,3.5,0.5c0.9-0.5,1.4-1.7,1.4-3.2c0-1.1-0.2-2.3-0.7-3.5c-1-2.8-3-5.4-5.2-6.6
			C167.8,315.7,167,315.5,166.3,315.5z"/>
	</g>
</g>
<g>
	<g>
		<path class="st1" d="M173.6,418.8c-0.7,0-1.4-0.2-2-0.5c-1.4-0.8-2.2-2.4-2.2-4.5c0-4,2.7-8.6,6.1-10.6l0,0c1.8-1.1,3.6-1.2,5-0.4
			c1.4,0.8,2.2,2.4,2.2,4.5c0,4-2.7,8.6-6.1,10.6C175.6,418.5,174.6,418.8,173.6,418.8z M176.6,404.9c-2.8,1.6-5.2,5.7-5.1,8.9
			c0,1.4,0.4,2.3,1.2,2.8c0.7,0.4,1.8,0.3,3-0.4c2.8-1.6,5.2-5.7,5.1-8.9c0-1.4-0.4-2.3-1.2-2.8C178.9,404,177.8,404.2,176.6,404.9
			L176.6,404.9z"/>
	</g>
</g>
<g>
	<g>
		<path class="st1" d="M221.5,337c-0.8,0-1.5-0.2-2.2-0.6c-1.3-0.8-2-2.4-2-4.4c0-4,2.7-8.6,6.1-10.6c1.8-1.1,3.6-1.2,5-0.4
			c1.4,0.8,2.2,2.4,2.2,4.5v0c0,0.2,0,0.4,0,0.5l-0.1,0.5l-0.5,0.2c-0.2,0.1-0.4,0.2-0.6,0.3c-2.7,1.6-5,5.4-5.1,8.6l0,0.6l-0.6,0.2
			C223,336.8,222.2,337,221.5,337z M226.5,322.4c-0.6,0-1.3,0.2-2,0.6c-2.8,1.6-5.1,5.7-5.1,8.9c0,1.3,0.4,2.3,1.1,2.7
			c0.5,0.3,1.2,0.4,2,0.2c0.4-3.7,2.9-7.7,6.1-9.5c0.1,0,0.1-0.1,0.2-0.1c0-1.3-0.5-2.2-1.2-2.6
			C227.2,322.5,226.9,322.4,226.5,322.4z"/>
	</g>
</g>
<g>
	<g>
		<path class="st1" d="M226.5,341c-0.7,0-1.4-0.2-2-0.5c-1.4-0.8-2.2-2.4-2.2-4.5c0-0.2,0-0.3,0-0.5c0.2-3.9,2.8-8.2,6.1-10.2
			c0.2-0.1,0.5-0.3,0.7-0.4c1.7-0.8,3.3-0.7,4.5,0.1c1.3,0.8,2,2.4,2,4.4l0,0c0,4-2.7,8.6-6.1,10.6C228.5,340.6,227.4,341,226.5,341
			z M231.5,326.4c-0.4,0-0.9,0.1-1.5,0.3c-0.2,0.1-0.4,0.2-0.6,0.3c-2.7,1.6-5,5.4-5.1,8.6l0,0.1c0,0.1,0,0.2,0,0.3
			c0,1.4,0.4,2.3,1.2,2.8c0.7,0.4,1.8,0.3,3-0.4c2.8-1.6,5.2-5.7,5.1-8.9l0,0c0-1.3-0.4-2.3-1.1-2.7
			C232.3,326.5,231.9,326.4,231.5,326.4z"/>
	</g>
</g>
<g>
	<g>
		<path class="st1" d="M283.4,355.9c-0.7,0-1.4-0.2-2-0.5c-1.4-0.8-2.2-2.4-2.2-4.5c0-4,2.7-8.6,6.1-10.6l0,0c1.8-1.1,3.6-1.2,5-0.4
			c1.4,0.8,2.2,2.4,2.2,4.5c0,4-2.7,8.6-6.1,10.6C285.3,355.6,284.3,355.9,283.4,355.9z M288.4,341.4c-0.6,0-1.3,0.2-2,0.6l0,0
			c-2.8,1.6-5.2,5.7-5.1,8.9c0,1.4,0.4,2.3,1.2,2.8c0.7,0.4,1.8,0.3,3-0.4c2.8-1.6,5.2-5.7,5.1-8.9c0-1.4-0.4-2.3-1.2-2.8
			C289.1,341.4,288.8,341.4,288.4,341.4z"/>
	</g>
</g>
<g>
	<g>
		<path class="st1" d="M383.1,298.1c-0.7,0-1.4-0.2-2-0.5c-1.4-0.8-2.2-2.4-2.2-4.5c0-2.1,0.7-4.4,2.1-6.5c1.1-1.8,2.5-3.2,4.1-4.1
			c1.8-1.1,3.6-1.2,5-0.4c1.4,0.8,2.2,2.4,2.2,4.5v0c0,1.8-0.5,3.8-1.5,5.6c-1.1,2.2-2.8,4-4.6,5
			C385.1,297.7,384.1,298.1,383.1,298.1z M388.2,283.5c-0.6,0-1.3,0.2-2,0.6c-1.2,0.7-2.4,1.9-3.4,3.4c-1.1,1.8-1.8,3.8-1.8,5.5
			c0,1.4,0.4,2.3,1.2,2.8c0.7,0.4,1.8,0.3,3-0.4c1.5-0.8,2.9-2.4,3.8-4.2c0.8-1.6,1.3-3.2,1.3-4.7c0-1.4-0.4-2.4-1.2-2.8
			C388.9,283.6,388.6,283.5,388.2,283.5z"/>
	</g>
</g>
<g>
	<g>
		<path class="st1" d="M278.4,311c-0.7,0-1.3-0.1-1.8-0.4c-1.3-0.7-2.1-2.1-2.3-3.9c0-0.2,0-0.4,0-0.7c0-4,2.7-8.6,6.1-10.6
			c0.2-0.1,0.5-0.3,0.7-0.4c1.7-0.7,3.2-0.7,4.4,0.1c1.3,0.8,2,2.4,2,4.4l0,0c0,4-2.7,8.6-6.1,10.6C280.4,310.7,279.3,311,278.4,311
			z M283.4,296.5c-0.4,0-0.9,0.1-1.5,0.4c-0.2,0.1-0.4,0.2-0.6,0.3c-2.8,1.6-5.2,5.7-5.2,8.9c0,0.2,0,0.3,0,0.5
			c0.1,1.2,0.5,2,1.2,2.3c0.8,0.4,1.8,0.2,3-0.4c2.8-1.6,5.2-5.7,5.1-8.9l0,0c0-1.3-0.4-2.3-1.1-2.7
			C284.2,296.6,283.8,296.5,283.4,296.5z"/>
	</g>
	<g>
		<path class="st1" d="M273.4,308c-0.8,0-1.5-0.2-2.1-0.6c-1.3-0.8-2-2.4-2-4.4c0-4,2.7-8.6,6.1-10.6c1.8-1,3.5-1.2,4.9-0.5
			c1.3,0.7,2.1,2.1,2.3,3.9l0.1,0.7l-0.6,0.3c-0.2,0.1-0.4,0.2-0.6,0.3c-2.8,1.6-5.2,5.7-5.2,8.9c0,0.2,0,0.3,0,0.5l0.1,0.7
			l-0.7,0.3C274.9,307.9,274.1,308,273.4,308z M278.4,293.5c-0.6,0-1.3,0.2-2,0.6c-2.8,1.6-5.1,5.7-5.1,8.9c0,1.3,0.4,2.3,1.1,2.7
			c0.5,0.3,1.2,0.4,1.9,0.2c0-3.9,2.7-8.6,6.1-10.5c0,0,0,0,0.1,0c-0.2-0.8-0.6-1.4-1.1-1.7C279.1,293.5,278.8,293.5,278.4,293.5z"
			/>
	</g>
</g>
<g>
	
		<rect x="281.4" y="291.3" transform="matrix(0.5145 -0.8575 0.8575 0.5145 -115.2228 385.0082)" class="st1" width="2" height="5.8"/>
</g>
<g>
	
		<rect x="273.4" y="305.3" transform="matrix(0.5145 -0.8575 0.8575 0.5145 -131.0764 384.9455)" class="st1" width="2" height="5.8"/>
</g>
<g>
	<g>
		<path class="st1" d="M457,392.8c-0.7,0-1.3-0.1-1.8-0.4c-1.3-0.7-2.1-2.1-2.3-3.9c0-0.2,0-0.4,0-0.7c0-4,2.7-8.6,6.1-10.6
			c0.2-0.1,0.5-0.3,0.7-0.4c1.7-0.7,3.2-0.7,4.4,0.1c1.3,0.8,2,2.4,2,4.4l0,0c0,4-2.7,8.6-6.1,10.6C459,392.5,457.9,392.8,457,392.8
			z M462,378.3c-0.4,0-0.9,0.1-1.5,0.4c-0.2,0.1-0.4,0.2-0.6,0.3c-2.8,1.6-5.2,5.7-5.2,8.9c0,0.2,0,0.3,0,0.5c0.1,1.2,0.5,2,1.2,2.3
			c0.8,0.4,1.8,0.2,3-0.4c2.8-1.6,5.2-5.7,5.1-8.9l0,0c0-1.3-0.4-2.3-1.1-2.7C462.8,378.4,462.4,378.3,462,378.3z"/>
	</g>
	<g>
		<path class="st1" d="M452,389.8c-0.8,0-1.5-0.2-2.1-0.6c-1.3-0.8-2-2.4-2-4.4c0-4,2.7-8.6,6.1-10.6c1.8-1,3.5-1.2,4.9-0.5
			c1.3,0.7,2.1,2.1,2.3,3.9l0.1,0.7l-0.6,0.3c-0.2,0.1-0.4,0.2-0.6,0.3c-2.8,1.6-5.2,5.7-5.2,8.9c0,0.2,0,0.3,0,0.5l0.1,0.7
			l-0.7,0.3C453.5,389.7,452.7,389.8,452,389.8z M457,375.3c-0.6,0-1.3,0.2-2,0.6c-2.8,1.6-5.1,5.7-5.1,8.9c0,1.3,0.4,2.3,1.1,2.7
			c0.5,0.3,1.2,0.4,1.9,0.2c0-3.9,2.7-8.6,6.1-10.5c0,0,0,0,0.1,0c-0.2-0.8-0.6-1.4-1.1-1.7C457.7,375.3,457.4,375.3,457,375.3z"/>
	</g>
</g>
<g>
	<rect x="460" y="373.2" transform="matrix(0.5145 -0.8575 0.8575 0.5145 -98.669 577.8804)" class="st1" width="2" height="5.8"/>
</g>
<g>
	
		<rect x="452" y="387.1" transform="matrix(0.5145 -0.8575 0.8575 0.5145 -114.5225 577.8176)" class="st1" width="2" height="5.8"/>
</g>
<g>
	<rect x="230" y="321.7" transform="matrix(0.6 -0.8 0.8 0.6 -166.9512 314.4778)" class="st1" width="2" height="5"/>
</g>
<g>
	<rect x="221" y="334.7" transform="matrix(0.6 -0.8 0.8 0.6 -180.92 312.4822)" class="st1" width="2" height="5"/>
</g>
<g>
	<path class="st1" d="M167.1,322.2H58.4c-3.6,0-6.5-2.9-6.5-6.5c0-3.6,2.9-6.5,6.5-6.5h22.4c2.8,0,5-2.2,5-5s-2.2-5-5-5H6.5
		c-3,0-5.5-2.5-5.5-5.5s2.5-5.5,5.5-5.5h31.9c1.9,0,3.5-1.6,3.5-3.5v-24.9h1v24.9c0,2.5-2,4.5-4.5,4.5H6.5c-2.5,0-4.5,2-4.5,4.5
		s2,4.5,4.5,4.5h74.3c3.3,0,6,2.7,6,6s-2.7,6-6,6H58.4c-3,0-5.5,2.5-5.5,5.5s2.5,5.5,5.5,5.5h108.8V322.2z"/>
</g>
<g>
	<path class="st1" d="M531.3,306.2h-51.9c-2.5,0-4.5-2-4.5-4.5v-30.9c0-1.9-1.6-3.5-3.5-3.5s-3.5,1.6-3.5,3.5v15
		c0,2.5-2,4.5-4.5,4.5h-77.8v-1h77.8c1.9,0,3.5-1.6,3.5-3.5v-15c0-2.5,2-4.5,4.5-4.5s4.5,2,4.5,4.5v30.9c0,1.9,1.6,3.5,3.5,3.5h51.9
		V306.2z"/>
</g>
<g>
	<path class="st1" d="M300.3,483.3h-1v-28.9c0-1.9-1.6-3.5-3.5-3.5h-39.9c-2.5,0-4.5-2-4.5-4.5v-1c0-2.5,2-4.5,4.5-4.5h54.9
		c1.9,0,3.5-1.6,3.5-3.5s-1.6-3.5-3.5-3.5h-36.9c-2.5,0-4.5-2-4.5-4.5c0-2.5,2-4.5,4.5-4.5h8c1.9,0,3.5-1.6,3.5-3.5v-73.8h1v73.8
		c0,2.5-2,4.5-4.5,4.5h-8c-1.9,0-3.5,1.6-3.5,3.5c0,1.9,1.6,3.5,3.5,3.5h36.9c2.5,0,4.5,2,4.5,4.5s-2,4.5-4.5,4.5h-54.9
		c-1.9,0-3.5,1.6-3.5,3.5v1c0,1.9,1.6,3.5,3.5,3.5h39.9c2.5,0,4.5,2,4.5,4.5V483.3z"/>
</g>
<g>
	<path class="st1" d="M289.9,112.2h-31.9v-11h31.9V112.2z M259.9,110.2h27.9v-7h-27.9V110.2z"/>
</g>
<g>
	<path class="st1" d="M315.8,494.3h-31.9v-11h31.9V494.3z M285.9,492.3h27.9v-7h-27.9V492.3z"/>
</g>
<g>
	<path class="st1" d="M542.3,321.7h-11v-31.9h11V321.7z M533.3,319.7h7v-27.9h-7V319.7z"/>
</g>
<g>
	<path class="st1" d="M51.3,260.3H32.6v-8.1h18.7V260.3z M34.6,258.3h14.7v-4.1H34.6V258.3z"/>
</g>
<g>
	<g>
		<path class="st1" d="M305,170.7c-3.7,0-7.4-0.8-10.2-2.4c-2.9-1.7-4.5-4-4.5-6.5c0-2.5,1.6-4.8,4.5-6.4c5.6-3.3,14.7-3.3,20.4,0
			c2.9,1.7,4.5,4,4.5,6.5c0,2.5-1.6,4.8-4.5,6.4C312.3,169.9,308.7,170.7,305,170.7z M304.9,154.8c-3.3,0-6.6,0.7-9.2,2.2
			c-2.2,1.3-3.5,3-3.5,4.7c0,1.8,1.3,3.4,3.5,4.8c5.1,2.9,13.3,2.9,18.4,0c2.2-1.3,3.5-3,3.5-4.7c0-1.8-1.3-3.4-3.5-4.8l0,0
			C311.5,155.6,308.2,154.8,304.9,154.8z"/>
	</g>
</g>
<g>
	<g>
		<path class="st1" d="M305,170.7c-3.7,0-7.4-0.8-10.2-2.4c-2.9-1.7-4.5-4-4.5-6.5c0-2.5,1.6-4.8,4.5-6.4c5.6-3.3,14.7-3.3,20.4,0
			c2.9,1.7,4.5,4,4.5,6.5c0,2.5-1.6,4.8-4.5,6.4C312.3,169.9,308.7,170.7,305,170.7z M304.9,154.8c-3.3,0-6.6,0.7-9.2,2.2
			c-2.2,1.3-3.5,3-3.5,4.7c0,1.8,1.3,3.4,3.5,4.8c5.1,2.9,13.3,2.9,18.4,0c2.2-1.3,3.5-3,3.5-4.7c0-1.8-1.3-3.4-3.5-4.8l0,0
			C311.5,155.6,308.2,154.8,304.9,154.8z"/>
	</g>
</g>
<g>
	<g>
		<path class="st1" d="M274,188.9c-3.7,0-7.4-0.8-10.2-2.4c-2.9-1.7-4.5-4-4.5-6.5c0-2.5,1.6-4.8,4.5-6.4c5.6-3.3,14.7-3.3,20.4,0
			l0,0c2.9,1.7,4.5,4,4.5,6.5c0,2.5-1.6,4.8-4.5,6.4C281.3,188.1,277.6,188.9,274,188.9z M273.9,173.1c-3.3,0-6.6,0.7-9.2,2.2
			c-2.2,1.3-3.5,3-3.5,4.7c0,1.8,1.3,3.4,3.5,4.8c5.1,2.9,13.3,2.9,18.3,0c2.2-1.3,3.5-3,3.5-4.7c0-1.8-1.3-3.4-3.5-4.8l0,0
			C280.5,173.8,277.2,173.1,273.9,173.1z"/>
	</g>
</g>
<g>
	<g>
		<path class="st1" d="M242.9,207.2c-3.7,0-7.4-0.8-10.2-2.4c-2.9-1.7-4.5-4-4.5-6.5c0-2.5,1.6-4.8,4.5-6.4c5.6-3.3,14.7-3.2,20.3,0
			l0,0c2.9,1.7,4.5,4,4.5,6.5c0,2.5-1.6,4.8-4.5,6.4C250.3,206.3,246.6,207.2,242.9,207.2z M242.8,191.3c-3.3,0-6.6,0.7-9.2,2.2
			c-2.2,1.3-3.5,3-3.5,4.7c0,1.8,1.3,3.4,3.5,4.8c5.1,2.9,13.3,2.9,18.4,0c2.2-1.3,3.5-3,3.5-4.7c0-1.8-1.3-3.4-3.5-4.8l0,0
			C249.5,192.1,246.2,191.3,242.8,191.3z"/>
	</g>
</g>
<g>
	<path class="st1" d="M255.4,200.5c-0.8-0.9-1.8-1.7-3-2.4c-6.9-4-14-4.1-23-0.2l-0.8-1.8c9.6-4.1,17.2-4,24.8,0.3
		c1.4,0.8,2.6,1.8,3.5,2.8L255.4,200.5z"/>
</g>
<g>
	<path class="st1" d="M286.3,182.6c-0.8-0.9-1.8-1.7-3-2.4c-6.9-4-14-4.1-23-0.2l-0.8-1.8c9.6-4.1,17.2-4,24.8,0.3
		c1.4,0.8,2.6,1.8,3.5,2.8L286.3,182.6z"/>
</g>
<g>
	<path class="st1" d="M317.3,164.6c-0.8-0.9-1.8-1.7-3-2.4c-6.9-4-14-4.1-23-0.2l-0.8-1.8c9.6-4.1,17.2-4,24.8,0.3
		c1.4,0.8,2.6,1.8,3.5,2.8L317.3,164.6z"/>
</g>
<g>
	<rect x="273.4" y="111.2" class="st1" width="1" height="69.8"/>
</g>
<g>
	<rect x="241.6" y="501.4" class="st0" width="117.4" height="70.3"/>
</g>
<g>
	<path class="st1" d="M365.4,578.8H235v-77.1c0-5,4-9,9-9h112.4c5,0,9,4,9,9V578.8z M236.6,577.2h127.2v-75.6c0-4.1-3.3-7.4-7.4-7.4
		H244c-4.1,0-7.4,3.3-7.4,7.4V577.2z"/>
</g>
<g>
	<path class="st1" d="M359.9,572.3H241.1v-71.5h118.8V572.3z M242.1,571.3h116.8v-69.5H242.1V571.3z"/>
</g>
<g>
	<path class="st1" d="M355.6,568.7H245.7v-62.8h109.9V568.7z M246.7,567.8h107.9v-60.8H246.7V567.8z"/>
</g>
<g>
	<path class="st1" d="M348.4,553.6h-95.7V519h95.7V553.6z M253.8,552.4h93.3v-32.2h-93.3V552.4z"/>
</g>
<g>
	<path class="st1" d="M307,562.1h-13.8v-4.8H307V562.1z M294.2,561.1H306v-2.8h-11.8V561.1z"/>
</g>
<g>
	<rect x="294.8" y="548.1" class="st1" width="10.6" height="1.8"/>
</g>
<g>
	<path class="st1" d="M364.4,583.9H235.3c-3.2,0-5.9-2.6-5.9-5.9v-0.8h140.8v0.8C370.2,581.3,367.6,583.9,364.4,583.9z M231.1,578.9
		c0.4,2,2.1,3.5,4.2,3.5h129.1c2.1,0,3.8-1.5,4.2-3.5H231.1z"/>
</g>
<g>
	<path class="st1" d="M300.5,514.8c-1.2,0-2.2-1-2.2-2.2c0-1.2,1-2.2,2.2-2.2s2.2,1,2.2,2.2C302.8,513.8,301.8,514.8,300.5,514.8z
		 M300.5,511.3c-0.7,0-1.2,0.6-1.2,1.2c0,0.7,0.6,1.2,1.2,1.2c0.7,0,1.2-0.6,1.2-1.2C301.8,511.9,301.2,511.3,300.5,511.3z"/>
</g>
<g>
	
		<rect x="248.2" y="530.3" transform="matrix(0.6575 -0.7535 0.7535 0.6575 -310.0602 379.7513)" class="st1" width="28.9" height="1.2"/>
</g>
<g>
	
		<rect x="252.1" y="535.7" transform="matrix(0.6557 -0.755 0.755 0.6557 -310.4426 391.8209)" class="st1" width="44.7" height="1.2"/>
</g>
<g>
	
		<rect x="269.8" y="535.8" transform="matrix(0.6478 -0.7618 0.7618 0.6478 -305.9455 411.0541)" class="st1" width="43.7" height="1.2"/>
</g>
<g>
	
		<rect x="323.2" y="511.7" transform="matrix(0.6771 -0.7359 0.7359 0.6771 -289.9489 411.4527)" class="st1" width="1.2" height="48.8"/>
</g>
<g>
	<path class="st4" d="M335.2,541.6h-14.9c-1.2,0-2.1-0.9-2.1-2.1v-24.7c0-1.2,0.9-2.1,2.1-2.1h14.9c1.2,0,2.1,0.9,2.1,2.1v24.7
		C337.3,540.6,336.4,541.6,335.2,541.6z"/>
	<path class="st1" d="M335.2,542.2h-14.9c-1.5,0-2.7-1.2-2.7-2.7v-24.7c0-1.5,1.2-2.7,2.7-2.7h14.9c1.5,0,2.7,1.2,2.7,2.7v24.7
		C337.9,541,336.7,542.2,335.2,542.2z M320.3,513.2c-0.8,0-1.5,0.7-1.5,1.5v24.7c0,0.8,0.7,1.5,1.5,1.5h14.9c0.8,0,1.5-0.7,1.5-1.5
		v-24.7c0-0.8-0.7-1.5-1.5-1.5H320.3z"/>
</g>
<g>
	
		<rect x="310.4" y="523.8" transform="matrix(0.673 -0.7396 0.7396 0.673 -298.6216 407.0262)" class="st1" width="1.2" height="34.8"/>
</g>
<g id="XMLID_63_">
	<polygon class="st1" points="328.7,523.8 330,523.8 330,521.9 333.2,521.9 333.2,532.3 330,532.3 330,529.4 332.1,529.4 
		332.1,524.9 323.4,524.9 323.4,529.4 325.5,529.4 325.5,532.3 322.3,532.3 322.3,521.9 325.5,521.9 325.5,523.8 326.8,523.8 
		326.8,520.6 321,520.6 321,533.6 326.8,533.6 326.8,528 324.8,528 324.8,526.3 330.7,526.3 330.7,528.1 328.7,528.1 328.7,533.6 
		334.5,533.6 334.5,520.6 328.7,520.6 	"/>
</g>
<g>
	<rect x="205.9" y="9.7" class="st0" width="132.5" height="79.3"/>
</g>
<g>
	<path class="st1" d="M345.4,96.9H198.6V8.9c0-4.9,4-8.9,8.9-8.9h128.9c4.9,0,8.9,4,8.9,8.9V96.9z M200.1,95.4h143.8V8.9
		c0-4.1-3.3-7.4-7.4-7.4H207.5c-4.1,0-7.4,3.3-7.4,7.4V95.4z"/>
</g>
<g>
	<path class="st1" d="M339.5,89.9H205.1v-81h134.4V89.9z M206.6,88.4H338v-78H206.6V88.4z"/>
</g>
<g>
	<path class="st1" d="M344.5,102.7H198.8c-3.6,0-6.5-2.9-6.5-6.5v-0.7h158.5v0.9C350.8,99.8,348,102.7,344.5,102.7z M193.9,96.9
		c0.4,2.4,2.4,4.2,4.9,4.2h145.7c2.5,0,4.5-1.9,4.8-4.2H193.9z"/>
</g>
<g>
	<path class="st1" d="M63.7,253.4H20.4c-7.1,0-12.9-5.8-12.9-12.9v-84.4c0-6.1,5-11,11-11h47c6.1,0,11,5,11,11v84.4
		C76.6,247.6,70.8,253.4,63.7,253.4z M18.6,146.9c-5.1,0-9.2,4.1-9.2,9.2v84.4c0,6.1,5,11.1,11.1,11.1h43.4c6.1,0,11.1-5,11.1-11.1
		v-84.4c0-5.1-4.1-9.2-9.2-9.2H18.6z"/>
</g>
<g>
	<path class="st1" d="M76.2,153.9H7.9v-0.5c0-4.4,3.5-7.9,7.9-7.9h52.4c4.4,0,7.9,3.5,7.9,7.9V153.9z M8.9,152.9h66.2
		c-0.3-3.6-3.3-6.4-6.9-6.4H15.8C12.2,146.5,9.2,149.3,8.9,152.9z"/>
</g>
<g>
	<path class="st1" d="M66.2,253H17.9c-5.5,0-9.9-4.5-9.9-9.9v-0.5h68.3v0.5C76.2,248.5,71.7,253,66.2,253z M8.9,243.5
		c0.3,4.7,4.2,8.5,8.9,8.5h48.4c4.8,0,8.7-3.7,8.9-8.5H8.9z"/>
</g>
<g>
	<rect x="36.1" y="148.9" class="st1" width="11.7" height="2.2"/>
</g>
<g>
	<rect x="66.7" y="157.6" class="st1" width="4.1" height="0.9"/>
</g>
<g>
	<rect x="66.7" y="159.8" class="st1" width="4.1" height="0.8"/>
</g>
<g>
	<rect x="16.3" y="162.7" class="st1" width="0.8" height="34"/>
</g>
<g>
	<rect x="16.7" y="195.9" class="st1" width="50.8" height="0.8"/>
</g>
<g>
	<rect x="23.4" y="168.2" class="st1" width="0.8" height="27.9"/>
</g>
<g>
	<rect x="23.5" y="167.7" class="st1" width="6.9" height="1"/>
</g>
<g>
	<rect x="29.6" y="168.4" class="st1" width="0.8" height="27.6"/>
</g>
<g>
	<rect x="34.2" y="175.5" class="st1" width="0.8" height="20.7"/>
</g>
<g>
	<rect x="34.2" y="175.1" class="st1" width="6.9" height="0.8"/>
</g>
<g>
	<rect x="40.4" y="175.6" class="st1" width="0.8" height="20.4"/>
</g>
<g>
	<rect x="45.1" y="170.8" class="st1" width="0.8" height="25.3"/>
</g>
<g>
	<rect x="45.1" y="170.3" class="st1" width="6.9" height="1"/>
</g>
<g>
	<rect x="51.3" y="171" class="st1" width="0.8" height="25.1"/>
</g>
<g>
	<rect x="55.6" y="176.9" class="st1" width="0.8" height="19.3"/>
</g>
<g>
	<rect x="55.6" y="176.5" class="st1" width="6.9" height="0.8"/>
</g>
<g>
	<rect x="61.8" y="177" class="st1" width="0.8" height="19.1"/>
</g>
<g>
	<polygon class="st1" points="58.7,182.9 48.9,175.7 37.8,181.2 27.7,173.5 19,180.4 18.5,179.8 27.6,172.5 37.9,180.2 49,174.8 
		58.7,182 66.9,176.4 67.3,177 	"/>
</g>
<g>
	<rect x="41.6" y="202.1" class="st1" width="0.8" height="33.5"/>
</g>
<g>
	<rect x="16.9" y="202.5" class="st1" width="12.7" height="0.8"/>
</g>
<g>
	<rect x="32.3" y="202.6" class="st1" width="3.8" height="0.8"/>
</g>
<g>
	<rect x="16.9" y="207.3" class="st1" width="6.7" height="0.8"/>
</g>
<g>
	<rect x="16.9" y="220.8" class="st1" width="3.8" height="0.8"/>
</g>
<g>
	<rect x="22.9" y="220.8" class="st1" width="10.7" height="0.8"/>
</g>
<g>
	<rect x="16.9" y="216.3" class="st1" width="8.1" height="0.8"/>
</g>
<g>
	<rect x="22.2" y="211.8" class="st1" width="6.7" height="0.8"/>
</g>
<g>
	<rect x="16.6" y="211.8" class="st1" width="3.9" height="0.8"/>
</g>
<g>
	<rect x="30" y="211.8" class="st1" width="2.9" height="0.8"/>
</g>
<g>
	<rect x="25.3" y="207.3" class="st1" width="4.7" height="0.8"/>
</g>
<g>
	<rect x="32.3" y="207.4" class="st1" width="2.4" height="0.8"/>
</g>
<g>
	<rect x="49.2" y="202.5" class="st1" width="12.7" height="0.8"/>
</g>
<g>
	<rect x="64.6" y="202.6" class="st1" width="3.8" height="0.8"/>
</g>
<g>
	<rect x="49.2" y="207.3" class="st1" width="6.7" height="0.8"/>
</g>
<g>
	<rect x="49.2" y="220.8" class="st1" width="3.8" height="0.8"/>
</g>
<g>
	<rect x="55.1" y="220.8" class="st1" width="10.7" height="0.8"/>
</g>
<g>
	<rect x="49.2" y="216.3" class="st1" width="8.1" height="0.8"/>
</g>
<g>
	<rect x="54.4" y="211.8" class="st1" width="6.7" height="0.8"/>
</g>
<g>
	<rect x="48.9" y="211.8" class="st1" width="3.9" height="0.8"/>
</g>
<g>
	<rect x="62.3" y="211.8" class="st1" width="2.9" height="0.8"/>
</g>
<g>
	<rect x="57.6" y="207.3" class="st1" width="4.7" height="0.8"/>
</g>
<g>
	<rect x="64.6" y="207.4" class="st1" width="2.4" height="0.8"/>
</g>
<g>
	<path class="st1" d="M22.8,235h-5.5v-5.5h5.5V235z M18.1,234.2H22v-3.9h-3.9V234.2z"/>
</g>
<g>
	<rect x="19.3" y="231.6" class="st1" width="1.3" height="1.3"/>
</g>
<g>
	<path class="st1" d="M54.8,235h-5.5v-5.5h5.5V235z M50.1,234.2H54v-3.9h-3.9V234.2z"/>
</g>
<g>
	<rect x="51.3" y="231.6" class="st1" width="1.3" height="1.3"/>
</g>
<g>
	<path class="st1" d="M42.1,250.5c-1.5,0-2.7-1.2-2.7-2.7c0-1.5,1.2-2.7,2.7-2.7c1.5,0,2.7,1.2,2.7,2.7
		C44.8,249.3,43.6,250.5,42.1,250.5z M42.1,246c-1,0-1.7,0.8-1.7,1.7s0.8,1.8,1.7,1.8s1.8-0.8,1.8-1.8S43,246,42.1,246z"/>
</g>
<g>
	<g>
		<path class="st1" d="M610.7,369H553c-7.1,0-13-5.8-13-13V249c0-6.1,5-11.1,11.1-11.1h61.3c6.1,0,11.1,5,11.1,11.1v107
			C623.6,363.2,617.8,369,610.7,369z M551.2,239.9c-5,0-9.1,4.1-9.1,9.1v107c0,6,4.9,11,11,11h57.7c6,0,11-4.9,11-11V249
			c0-5-4.1-9.1-9.1-9.1H551.2z"/>
	</g>
	<g>
		<path class="st1" d="M623.1,248.3h-82.6v-0.5c0-5.2,4.3-9.5,9.5-9.5h63.6c5.2,0,9.5,4.3,9.5,9.5V248.3z M541.6,247.3h80.5
			c-0.3-4.5-4-8-8.5-8H550C545.5,239.4,541.8,242.9,541.6,247.3z"/>
	</g>
	<g>
		<path class="st1" d="M611.2,368.5h-58.7c-6.6,0-12-5.4-12-12V356h82.6v0.5C623.1,363.1,617.8,368.5,611.2,368.5z M541.6,357
			c0.3,5.8,5.1,10.5,10.9,10.5h58.7c5.9,0,10.7-4.6,10.9-10.5H541.6z"/>
	</g>
	<g>
		<rect x="574.6" y="242.4" class="st1" width="14.1" height="2.7"/>
	</g>
	<g>
		<rect x="611.8" y="253" class="st1" width="5" height="1.1"/>
	</g>
	<g>
		<rect x="611.8" y="255.6" class="st1" width="5" height="1"/>
	</g>
	<g>
		<rect x="550.6" y="259.1" class="st1" width="1" height="41.2"/>
	</g>
	<g>
		<rect x="551.1" y="299.4" class="st1" width="61.6" height="1"/>
	</g>
	<g>
		<rect x="559.2" y="265.8" class="st1" width="1" height="33.8"/>
	</g>
	<g>
		<rect x="559.3" y="265.3" class="st1" width="8.4" height="1"/>
	</g>
	<g>
		<rect x="566.8" y="266" class="st1" width="1" height="33.5"/>
	</g>
	<g>
		<rect x="572.3" y="274.6" class="st1" width="1" height="25"/>
	</g>
	<g>
		<rect x="572.3" y="274.1" class="st1" width="8.4" height="1"/>
	</g>
	<g>
		<rect x="579.8" y="274.8" class="st1" width="1" height="24.8"/>
	</g>
	<g>
		<rect x="585.5" y="268.9" class="st1" width="1" height="30.7"/>
	</g>
	<g>
		<rect x="585.5" y="268.4" class="st1" width="8.4" height="1"/>
	</g>
	<g>
		<rect x="593" y="269.1" class="st1" width="1" height="30.4"/>
	</g>
	<g>
		<rect x="598.2" y="276.3" class="st1" width="1" height="23.3"/>
	</g>
	<g>
		<rect x="598.3" y="275.8" class="st1" width="8.4" height="1"/>
	</g>
	<g>
		<rect x="605.7" y="276.5" class="st1" width="1" height="23.1"/>
	</g>
	<g>
		<polygon class="st1" points="602.1,283.7 590.2,274.9 576.7,281.6 564.4,272.2 553.9,280.6 553.2,279.8 564.4,270.9 576.8,280.4 
			590.3,273.8 602.1,282.5 612,275.7 612.5,276.5 		"/>
	</g>
	<g>
		<rect x="581.2" y="306.9" class="st1" width="1" height="40.6"/>
	</g>
	<g>
		<rect x="551.3" y="307.3" class="st1" width="15.4" height="1"/>
	</g>
	<g>
		<rect x="570" y="307.4" class="st1" width="4.6" height="1"/>
	</g>
	<g>
		<rect x="551.3" y="313.2" class="st1" width="8.2" height="1"/>
	</g>
	<g>
		<rect x="551.3" y="329.6" class="st1" width="4.6" height="1"/>
	</g>
	<g>
		<rect x="558.6" y="329.6" class="st1" width="12.9" height="1"/>
	</g>
	<g>
		<rect x="551.3" y="324.1" class="st1" width="9.8" height="1"/>
	</g>
	<g>
		<rect x="557.7" y="318.6" class="st1" width="8.2" height="1"/>
	</g>
	<g>
		<rect x="551" y="318.6" class="st1" width="4.8" height="1"/>
	</g>
	<g>
		<rect x="567.3" y="318.6" class="st1" width="3.5" height="1"/>
	</g>
	<g>
		<rect x="561.6" y="313.2" class="st1" width="5.7" height="1"/>
	</g>
	<g>
		<rect x="570" y="313.3" class="st1" width="2.9" height="1"/>
	</g>
	<g>
		<rect x="590.5" y="307.3" class="st1" width="15.4" height="1"/>
	</g>
	<g>
		<rect x="609.1" y="307.4" class="st1" width="4.6" height="1"/>
	</g>
	<g>
		<rect x="590.5" y="313.2" class="st1" width="8.2" height="1"/>
	</g>
	<g>
		<rect x="590.5" y="329.6" class="st1" width="4.6" height="1"/>
	</g>
	<g>
		<rect x="597.7" y="329.6" class="st1" width="12.9" height="1"/>
	</g>
	<g>
		<rect x="590.5" y="324.1" class="st1" width="9.8" height="1"/>
	</g>
	<g>
		<rect x="596.9" y="318.6" class="st1" width="8.2" height="1"/>
	</g>
	<g>
		<rect x="590.1" y="318.6" class="st1" width="4.8" height="1"/>
	</g>
	<g>
		<rect x="606.4" y="318.6" class="st1" width="3.5" height="1"/>
	</g>
	<g>
		<rect x="600.7" y="313.2" class="st1" width="5.7" height="1"/>
	</g>
	<g>
		<rect x="609.1" y="313.3" class="st1" width="2.9" height="1"/>
	</g>
	<g>
		<path class="st1" d="M558.5,346.8h-6.7V340h6.7V346.8z M552.8,345.8h4.7V341h-4.7V345.8z"/>
	</g>
	<g>
		<rect x="554.2" y="342.7" class="st1" width="1.6" height="1.6"/>
	</g>
	<g>
		<path class="st1" d="M597.3,346.8h-6.7V340h6.7V346.8z M591.6,345.8h4.7V341h-4.7V345.8z"/>
	</g>
	<g>
		<rect x="593.1" y="342.7" class="st1" width="1.6" height="1.6"/>
	</g>
	<g>
		<path class="st1" d="M581.9,365.5c-1.8,0-3.2-1.4-3.2-3.2s1.4-3.2,3.2-3.2s3.2,1.4,3.2,3.2S583.7,365.5,581.9,365.5z M581.9,360.1
			c-1.2,0-2.2,1-2.2,2.2s1,2.2,2.2,2.2s2.2-1,2.2-2.2S583.1,360.1,581.9,360.1z"/>
	</g>
</g>
<g>
	<g>
		<path class="st1" d="M259.2,27.3c-0.1,0-0.2,0-0.3,0c-0.4-0.1-0.6-0.6-0.4-1c1.5-4.2,7.3-7.2,13.6-7.2c0.4,0,0.7,0.3,0.7,0.7
			c0,0.4-0.3,0.7-0.7,0.7c-5.6,0-10.9,2.7-12.2,6.2C259.8,27.1,259.5,27.3,259.2,27.3z"/>
	</g>
	<g>
		<path class="st1" d="M250,53c-0.2,0-0.5-0.1-0.6-0.3c-2-2.9-3.1-6.7-3.1-10.8c0-8.5,4.9-15.4,11-15.4c3.2,0,6.2,1.9,8.3,5.3
			c0.2,0.4,0.1,0.8-0.2,1c-0.4,0.2-0.8,0.1-1-0.2c-1.8-2.9-4.4-4.6-7-4.6c-5.2,0-9.5,6.2-9.5,13.9c0,3.7,1,7.3,2.8,9.9
			c0.2,0.3,0.2,0.8-0.2,1C250.3,53,250.1,53,250,53z"/>
	</g>
	<g>
		<path class="st1" d="M261.1,71.5C261,71.5,261,71.5,261.1,71.5c-6.8-0.5-12.2-7.2-12.2-15c0-5.5,2.8-10.4,7-12.4
			c0.4-0.2,0.8,0,1,0.4c0.2,0.4,0,0.8-0.4,1c-3.8,1.8-6.2,6.1-6.2,11.1c0,7,4.8,13.1,10.8,13.5c0.4,0,0.7,0.4,0.7,0.8
			C261.8,71.2,261.4,71.5,261.1,71.5z"/>
	</g>
	<g>
		<path class="st1" d="M259.9,50c-0.2,0-0.3-0.1-0.5-0.2c-1.2-1-2.2-2.4-2.8-3.9c-0.8-2.2-0.8-4.5,0.1-6.4c0.2-0.4,0.6-0.5,1-0.4
			c0.4,0.2,0.6,0.6,0.4,1c-0.7,1.6-0.7,3.5,0,5.3c0.5,1.3,1.3,2.4,2.3,3.3c0.3,0.3,0.4,0.7,0.1,1.1C260.4,49.9,260.1,50,259.9,50z"
			/>
	</g>
	<g>
		<path class="st1" d="M264.9,65.6c-0.7,0-1.5-0.1-2.2-0.3c-1.6-0.5-2.9-1.5-3.7-2.8c-0.2-0.4-0.1-0.8,0.3-1c0.4-0.2,0.8-0.1,1,0.3
			c0.6,1,1.6,1.7,2.9,2.1c0.9,0.3,1.8,0.3,2.7,0.2c0.4-0.1,0.8,0.2,0.9,0.6c0.1,0.4-0.2,0.8-0.6,0.9
			C265.7,65.6,265.3,65.6,264.9,65.6z"/>
	</g>
	<g>
		<path class="st1" d="M252.6,60.1c-1,0-1.9-0.2-2.8-0.6c-0.4-0.2-0.6-0.6-0.4-1c0.2-0.4,0.6-0.6,1-0.4c1.6,0.7,3.4,0.6,5-0.2
			c1.2-0.6,2.2-1.5,3-2.7c0.2-0.4,0.7-0.5,1-0.2c0.4,0.2,0.5,0.7,0.2,1c-0.9,1.4-2.1,2.6-3.6,3.3C255,59.8,253.8,60.1,252.6,60.1z"
			/>
	</g>
	<g>
		<path class="st1" d="M264.1,76.3c-0.4,0-0.7-0.3-0.7-0.6c-0.3-1.8,0.1-3.3,1.2-4.3c0.8-0.7,1.9-1,3.1-0.9c0.4,0,0.7,0.4,0.7,0.8
			c0,0.4-0.4,0.7-0.8,0.7c-0.6,0-1.4,0-2,0.6c-0.7,0.6-1,1.6-0.7,2.9c0.1,0.4-0.2,0.8-0.6,0.9C264.2,76.3,264.2,76.3,264.1,76.3z"/>
	</g>
	<g>
		<path class="st1" d="M256.6,41.8C256.5,41.8,256.5,41.8,256.6,41.8c-2-0.2-3.6-1.1-4.6-2.7c-0.7-1.1-1-2.4-0.9-3.8
			c0-0.4,0.4-0.7,0.8-0.7c0.4,0,0.7,0.4,0.7,0.8c-0.1,1,0.2,2,0.7,2.8c0.7,1.1,1.9,1.9,3.4,2c0.4,0,0.7,0.4,0.7,0.8
			C257.3,41.5,256.9,41.8,256.6,41.8z"/>
	</g>
	<g>
		<path class="st1" d="M263.5,38.2c-0.2,0-0.4,0-0.6,0c-0.4,0-0.7-0.4-0.7-0.8c0-0.4,0.4-0.7,0.8-0.7c1.4,0.1,2.9-0.2,4-0.9
			c0.8-0.5,1.3-1,1.6-1.7c0.2-0.4,0.6-0.5,1-0.4c0.4,0.2,0.5,0.6,0.4,1c-0.4,0.9-1.2,1.7-2.2,2.3C266.5,37.8,265,38.2,263.5,38.2z"
			/>
	</g>
	<g>
		<path class="st1" d="M271,28.6c-0.9,0-1.8-0.2-2.6-0.7c-1.3-0.7-2.4-1.8-3-3.2c-0.2-0.4,0-0.8,0.4-1c0.4-0.2,0.8,0,1,0.4
			c0.5,1.1,1.4,2,2.4,2.5c0.7,0.4,1.5,0.6,2.2,0.5c0.4,0,0.8,0.3,0.8,0.7c0,0.4-0.3,0.8-0.7,0.8C271.2,28.6,271.1,28.6,271,28.6z"/>
	</g>
	<g>
		<path class="st1" d="M263.6,59.5c-0.1,0-0.2,0-0.3-0.1c-0.4-0.2-0.5-0.6-0.3-1c0.9-1.8,2.4-3.3,4.3-4.2c1.3-0.7,2.7-1,4.1-0.9
			c0.4,0,0.7,0.4,0.7,0.8c0,0.4-0.4,0.7-0.8,0.7c-1.1-0.1-2.2,0.2-3.3,0.8c-1.6,0.8-2.9,2.1-3.6,3.6
			C264.2,59.4,263.9,59.5,263.6,59.5z"/>
	</g>
	<g>
		<path class="st1" d="M267.5,55.5c-0.1,0-0.2,0-0.3-0.1c-0.4-0.2-0.5-0.6-0.3-1c0.5-1,0.7-2.3,0.3-3.6c-0.5-1.9-1.8-3.7-3.7-5.1
			c-0.3-0.2-0.4-0.7-0.2-1c0.2-0.3,0.7-0.4,1-0.2c2.2,1.6,3.8,3.7,4.3,5.9c0.4,1.7,0.2,3.3-0.5,4.6C268,55.4,267.8,55.5,267.5,55.5z
			"/>
	</g>
	<g>
		<path class="st1" d="M272.1,79.6c-6.4,0-11.8-4.7-11.8-10.3c0-1.7,0.5-3.4,1.4-5c0.2-0.4,0.7-0.5,1-0.3c0.4,0.2,0.5,0.7,0.3,1
			c-0.8,1.3-1.2,2.7-1.2,4.2c0,4.7,4.8,8.9,10.3,8.9c0.4,0,0.7,0.3,0.7,0.7C272.8,79.3,272.5,79.6,272.1,79.6z"/>
	</g>
	<g>
		<path class="st1" d="M285,27.3c-0.3,0-0.6-0.2-0.7-0.5c-1.3-3.5-6.6-6.2-12.2-6.2c-0.4,0-0.7-0.3-0.7-0.7c0-0.4,0.3-0.7,0.7-0.7
			c6.3,0,12,3,13.6,7.2c0.1,0.4-0.1,0.8-0.4,1C285.2,27.3,285.1,27.3,285,27.3z"/>
	</g>
	<g>
		<path class="st1" d="M294.2,53c-0.1,0-0.3,0-0.4-0.1c-0.3-0.2-0.4-0.7-0.2-1c1.8-2.6,2.8-6.2,2.8-9.9c0-7.7-4.2-13.9-9.5-13.9
			c-1.6,0-3.1,0.6-4.5,1.7c-0.3,0.3-0.8,0.2-1.1-0.1c-0.3-0.3-0.2-0.8,0.1-1.1c1.6-1.3,3.5-2,5.4-2c6,0,11,6.9,11,15.4
			c0,4-1.1,7.9-3.1,10.8C294.7,52.9,294.5,53,294.2,53z"/>
	</g>
	<g>
		<path class="st1" d="M283.1,71.5c-0.4,0-0.7-0.3-0.7-0.7c0-0.4,0.3-0.8,0.7-0.8c5.9-0.4,10.8-6.5,10.8-13.5c0-3.1-0.9-6-2.7-8.2
			c-0.3-0.3-0.2-0.8,0.1-1.1c0.3-0.3,0.8-0.2,1.1,0.1c1.9,2.5,3,5.7,3,9.1C295.4,64.2,289.9,71,283.1,71.5
			C283.2,71.5,283.2,71.5,283.1,71.5z"/>
	</g>
	<g>
		<path class="st1" d="M272.1,79.6c-0.4,0-0.7-0.3-0.7-0.7c0-0.4,0.3-0.7,0.7-0.7c5.5,0,10.3-4.1,10.3-8.9c0-1.5-0.4-2.9-1.2-4.2
			c-0.2-0.4-0.1-0.8,0.3-1c0.4-0.2,0.8-0.1,1,0.3c0.9,1.5,1.4,3.2,1.4,5C283.9,74.9,278.5,79.6,272.1,79.6z"/>
	</g>
	<g>
		<path class="st1" d="M272.1,79.3c-0.4,0-0.7-0.3-0.7-0.7V20.2c0-0.4,0.3-0.7,0.7-0.7s0.7,0.3,0.7,0.7v58.3
			C272.8,79,272.5,79.3,272.1,79.3z"/>
	</g>
	<g>
		<path class="st1" d="M284.4,48.8h-11.7c-0.4,0-0.7-0.3-0.7-0.7s0.3-0.7,0.7-0.7h11.7c0.4,0,0.7,0.3,0.7,0.7S284.8,48.8,284.4,48.8
			z"/>
	</g>
	<g>
		<path class="st1" d="M284.9,56h-3.4l-3.2-7.4c-0.2-0.4,0-0.8,0.4-1c0.4-0.2,0.8,0,1,0.4l2.8,6.5h2.4c0.4,0,0.7,0.3,0.7,0.7
			S285.3,56,284.9,56z"/>
	</g>
	<g>
		<path class="st1" d="M286.1,50.4c-1.3,0-2.4-1.1-2.4-2.4c0-1.3,1.1-2.4,2.4-2.4s2.4,1.1,2.4,2.4C288.5,49.4,287.4,50.4,286.1,50.4
			z M286.1,47.1c-0.5,0-0.9,0.4-0.9,0.9c0,0.5,0.4,0.9,0.9,0.9c0.5,0,0.9-0.4,0.9-0.9C287,47.5,286.6,47.1,286.1,47.1z"/>
	</g>
	<g>
		<path class="st1" d="M287,57.8c-1.3,0-2.4-1.1-2.4-2.4c0-1.3,1.1-2.4,2.4-2.4s2.4,1.1,2.4,2.4C289.4,56.7,288.3,57.8,287,57.8z
			 M287,54.4c-0.5,0-0.9,0.4-0.9,0.9c0,0.5,0.4,0.9,0.9,0.9c0.5,0,0.9-0.4,0.9-0.9C287.9,54.8,287.5,54.4,287,54.4z"/>
	</g>
	<g>
		<path class="st1" d="M277.5,62.9c-1.3,0-2.4-1.1-2.4-2.4c0-1.3,1.1-2.4,2.4-2.4c1.3,0,2.4,1.1,2.4,2.4
			C279.9,61.8,278.8,62.9,277.5,62.9z M277.5,59.5c-0.5,0-0.9,0.4-0.9,0.9s0.4,0.9,0.9,0.9c0.5,0,0.9-0.4,0.9-0.9
			S278,59.5,277.5,59.5z"/>
	</g>
	<g>
		<g>
			<path class="st1" d="M282.8,45.4h-10.1c-0.4,0-0.7-0.3-0.7-0.7c0-0.4,0.3-0.7,0.7-0.7h9.4l3.7-4.1c0.3-0.3,0.8-0.3,1.1,0
				c0.3,0.3,0.3,0.8,0,1.1L282.8,45.4z"/>
		</g>
		<g>
			<path class="st1" d="M287.6,41.5c-1.3,0-2.4-1.1-2.4-2.4c0-1.3,1.1-2.4,2.4-2.4s2.4,1.1,2.4,2.4C290,40.4,288.9,41.5,287.6,41.5z
				 M287.6,38.1c-0.5,0-0.9,0.4-0.9,0.9c0,0.5,0.4,0.9,0.9,0.9s0.9-0.4,0.9-0.9C288.5,38.5,288.1,38.1,287.6,38.1z"/>
		</g>
		<g>
			<g>
				<path class="st1" d="M279.5,42.4h-6.7c-0.4,0-0.7-0.3-0.7-0.7s0.3-0.7,0.7-0.7h6l2.4-2.9c0.3-0.3,0.7-0.4,1.1-0.1
					c0.3,0.3,0.4,0.7,0.1,1.1L279.5,42.4z"/>
			</g>
			<g>
				<path class="st1" d="M282.9,39.4c-1.3,0-2.4-1.1-2.4-2.4s1.1-2.4,2.4-2.4s2.4,1.1,2.4,2.4S284.2,39.4,282.9,39.4z M282.9,36.1
					c-0.5,0-0.9,0.4-0.9,0.9s0.4,0.9,0.9,0.9c0.5,0,0.9-0.4,0.9-0.9S283.4,36.1,282.9,36.1z"/>
			</g>
		</g>
	</g>
	<g>
		<path class="st1" d="M277.6,59.4c-0.4,0-0.7-0.3-0.7-0.7v-6.6h4c0.4,0,0.7,0.3,0.7,0.7c0,0.4-0.3,0.7-0.7,0.7h-2.6v5.1
			C278.3,59.1,278,59.4,277.6,59.4z"/>
	</g>
</g>
</svg>
