<?xml version="1.0" encoding="utf-8"?>
<!-- Generator: Adobe Illustrator 22.1.0, SVG Export Plug-In . SVG Version: 6.00 Build 0)  -->
<svg version="1.1" id="图层_1" xmlns="http://www.w3.org/2000/svg" xmlns:xlink="http://www.w3.org/1999/xlink" x="0px" y="0px"
	 viewBox="0 0 20 20" style="enable-background:new 0 0 20 20;" xml:space="preserve">
<style type="text/css">
	.st0{fill:#00B7A5;}
</style>
<path class="st0" d="M10,20C4.5,20,0,15.5,0,10S4.5,0,10,0s10,4.5,10,10S15.5,20,10,20z M10,1.2c-4.9,0-8.8,3.9-8.8,8.8
	s3.9,8.8,8.8,8.8s8.8-3.9,8.8-8.8S14.9,1.2,10,1.2z"/>
<path class="st0" d="M13.4,10.9h-2.7V9.4h2.7c0.4,0,0.7-0.2,0.7-0.6c0-0.4-0.3-0.7-0.7-0.7h-1.9l1.9-1.9c0.3-0.3,0.3-0.7,0-1
	c-0.3-0.3-0.7-0.3-1,0L10,7.7L7.6,5.3C7.3,5,6.9,5,6.6,5.3c-0.3,0.3-0.3,0.7,0,1l1.9,1.9H6.6c-0.4,0-0.7,0.3-0.7,0.7
	s0.3,0.6,0.7,0.6h2.8v1.6H6.6c-0.4,0-0.7,0.2-0.7,0.6s0.3,0.7,0.7,0.7h2.8V15c0,0.4,0.2,0.7,0.6,0.7c0.4,0,0.7-0.3,0.7-0.7v-2.7h2.7
	c0.4,0,0.7-0.3,0.7-0.7C14.1,11.2,13.8,10.9,13.4,10.9z"/>
</svg>
