<?xml version="1.0" encoding="utf-8"?>
<!-- Generator: Adobe Illustrator 22.1.0, SVG Export Plug-In . SVG Version: 6.00 Build 0)  -->
<svg version="1.1" id="图层_1" xmlns="http://www.w3.org/2000/svg" xmlns:xlink="http://www.w3.org/1999/xlink" x="0px" y="0px"
	 viewBox="0 0 24 22" style="enable-background:new 0 0 24 22;" xml:space="preserve">
<style type="text/css">
	.st0{fill:#00B7A5;}
</style>
<g>
	<g>
		<path class="st0" d="M12.5,8.6c-2.3,0-4.2-1.9-4.2-4.2s1.9-4.2,4.2-4.2s4.2,1.9,4.2,4.2S14.8,8.6,12.5,8.6z M12.5,1.2
			c-1.8,0-3.2,1.4-3.2,3.2s1.4,3.2,3.2,3.2s3.2-1.4,3.2-3.2S14.3,1.2,12.5,1.2z M19.3,21.2c-2.3,0-4.2-1.9-4.2-4.2s1.9-4.2,4.2-4.2
			s4.2,1.9,4.2,4.2S21.6,21.2,19.3,21.2z M19.3,13.8c-1.8,0-3.2,1.4-3.2,3.2s1.4,3.2,3.2,3.2c1.8,0,3.2-1.4,3.2-3.2
			S21,13.8,19.3,13.8z M4.8,21.2c-2.3,0-4.2-1.9-4.2-4.2s1.9-4.2,4.2-4.2S9,14.6,9,17S7.1,21.2,4.8,21.2z M4.8,13.8
			c-1.8,0-3.2,1.4-3.2,3.2s1.4,3.2,3.2,3.2S8,18.7,8,17S6.6,13.8,4.8,13.8z"/>
		<path class="st0" d="M19.3,21.4c-2.4,0-4.4-2-4.4-4.4s2-4.4,4.4-4.4c2.4,0,4.4,2,4.4,4.4S21.7,21.4,19.3,21.4z M19.3,12.9
			c-2.3,0-4.1,1.8-4.1,4.1s1.8,4.1,4.1,4.1c2.3,0,4.1-1.8,4.1-4.1S21.5,12.9,19.3,12.9z M4.8,21.4c-2.4,0-4.4-2-4.4-4.4
			s2-4.4,4.4-4.4c2.4,0,4.4,2,4.4,4.4S7.2,21.4,4.8,21.4z M4.8,12.9c-2.3,0-4.1,1.8-4.1,4.1s1.8,4.1,4.1,4.1c2.3,0,4.1-1.8,4.1-4.1
			S7.1,12.9,4.8,12.9z M19.3,20.3c-1.8,0-3.3-1.5-3.3-3.3s1.5-3.3,3.3-3.3s3.3,1.5,3.3,3.3S21.1,20.3,19.3,20.3z M19.3,13.9
			c-1.7,0-3.1,1.4-3.1,3.1s1.4,3.1,3.1,3.1s3.1-1.4,3.1-3.1S21,13.9,19.3,13.9z M4.8,20.3c-1.8,0-3.3-1.5-3.3-3.3s1.5-3.3,3.3-3.3
			s3.3,1.5,3.3,3.3S6.6,20.3,4.8,20.3z M4.8,13.9c-1.7,0-3.1,1.4-3.1,3.1s1.4,3.1,3.1,3.1s3.1-1.4,3.1-3.1S6.5,13.9,4.8,13.9z
			 M12.5,8.7c-2.4,0-4.4-2-4.4-4.4c0-2.4,2-4.4,4.4-4.4c2.4,0,4.4,2,4.4,4.4C16.9,6.8,14.9,8.7,12.5,8.7z M12.5,0.3
			c-2.3,0-4.1,1.8-4.1,4.1s1.8,4.1,4.1,4.1c2.3,0,4.1-1.8,4.1-4.1S14.8,0.3,12.5,0.3z M12.5,7.7c-1.8,0-3.3-1.5-3.3-3.3
			S10.6,1,12.5,1c1.8,0,3.3,1.5,3.3,3.3S14.3,7.7,12.5,7.7z M12.5,1.3c-1.7,0-3.1,1.4-3.1,3.1s1.4,3.1,3.1,3.1s3.1-1.4,3.1-3.1
			S14.2,1.3,12.5,1.3z"/>
	</g>
	<g>
		<path class="st0" d="M7.9,6.9C7.7,6.6,7.5,6.3,7.4,6C6.9,6.3,6.4,6.7,6,7.2C5.2,8,4.6,8.9,4.1,9.9c-0.3,0.7-0.5,1.4-0.6,2.2
			c0.3-0.1,0.7-0.1,1.1-0.2C4.9,9.8,6.2,8.1,7.9,6.9z M15.2,20.1c-1,0.4-2,0.7-3.2,0.7c-1.2,0-2.3-0.3-3.3-0.7
			c-0.2,0.3-0.5,0.5-0.7,0.8c0.2,0.1,0.4,0.2,0.7,0.3c1.1,0.4,2.2,0.7,3.3,0.7s2.3-0.2,3.3-0.7c0.2-0.1,0.4-0.2,0.6-0.3
			C15.7,20.7,15.4,20.4,15.2,20.1L15.2,20.1z M19.9,9.9c-0.4-1-1.1-1.9-1.8-2.7c-0.2-0.2-0.5-0.5-0.8-0.7c-0.1,0.3-0.3,0.6-0.5,0.9
			c1.4,1.1,2.3,2.7,2.7,4.5c0.4,0,0.7,0.1,1.1,0.2C20.4,11.3,20.2,10.6,19.9,9.9L19.9,9.9z"/>
		<path class="st0" d="M12,22c-1.2,0-2.3-0.2-3.4-0.7C8.4,21.2,8.2,21.1,8,21l-0.2-0.1l0.1-0.1c0.3-0.3,0.5-0.5,0.7-0.8l0.1-0.1
			l0.1,0c1,0.5,2.1,0.7,3.2,0.7c1.1,0,2.1-0.2,3.1-0.7l0.1,0l0.1,0.1c0.2,0.3,0.5,0.5,0.7,0.8l0.1,0.1L16,21
			c-0.2,0.1-0.4,0.2-0.6,0.3C14.4,21.8,13.2,22,12,22z M8.3,20.8c0.1,0.1,0.3,0.2,0.5,0.2c1.1,0.4,2.2,0.7,3.3,0.7
			c1.2,0,2.3-0.2,3.3-0.7c0.1,0,0.2-0.1,0.4-0.2c-0.2-0.2-0.4-0.4-0.6-0.6c-1,0.4-2,0.7-3.1,0.7c-1.1,0-2.2-0.2-3.2-0.7
			C8.7,20.5,8.5,20.7,8.3,20.8z M3.4,12.2l0-0.2c0.1-0.7,0.3-1.5,0.6-2.2c0.4-1,1.1-2,1.9-2.8c0.5-0.5,1-0.9,1.5-1.2l0.1-0.1
			l0.1,0.2C7.7,6.3,7.8,6.6,8,6.9L8,7L7.9,7.1C6.2,8.2,5.1,10,4.7,11.9l0,0.1l-0.1,0c-0.4,0-0.7,0.1-1,0.2L3.4,12.2z M7.4,6.2
			C6.9,6.5,6.5,6.8,6,7.3C5.3,8,4.7,8.9,4.2,9.9c-0.3,0.7-0.5,1.3-0.6,1.9c0.3-0.1,0.5-0.1,0.8-0.1C4.8,9.8,6,8,7.7,6.9
			C7.6,6.7,7.5,6.4,7.4,6.2z M20.7,12.2l-0.2-0.1c-0.3-0.1-0.7-0.1-1-0.2l-0.1,0l0-0.1c-0.3-1.7-1.2-3.3-2.6-4.4l-0.1-0.1l0.1-0.1
			c0.2-0.2,0.3-0.5,0.5-0.9l0.1-0.1l0.1,0.1c0.3,0.2,0.5,0.4,0.8,0.7c0.8,0.8,1.4,1.7,1.9,2.8l0,0c0.3,0.7,0.5,1.4,0.6,2.1
			L20.7,12.2z M19.6,11.7c0.3,0,0.5,0.1,0.8,0.1c-0.1-0.6-0.3-1.2-0.5-1.9l0,0c-0.4-1-1-1.9-1.8-2.7c-0.2-0.2-0.4-0.4-0.6-0.6
			c-0.1,0.3-0.3,0.5-0.4,0.7C18.3,8.5,19.2,10,19.6,11.7z"/>
	</g>
</g>
</svg>
