<?xml version="1.0" encoding="utf-8"?>
<!-- Generator: Adobe Illustrator 22.1.0, SVG Export Plug-In . SVG Version: 6.00 Build 0)  -->
<svg version="1.1" id="图层_1" xmlns="http://www.w3.org/2000/svg" xmlns:xlink="http://www.w3.org/1999/xlink" x="0px" y="0px"
	 viewBox="0 0 19 22" style="enable-background:new 0 0 19 22;" xml:space="preserve">
<style type="text/css">
	.st0{fill:#00B7A5;}
</style>
<path class="st0" d="M18.7,3.8c-0.1-0.4-0.4-0.6-0.8-0.6c0,0,0,0-0.1,0c-1.6,0.5-3.4,0.2-5.3-0.9c-1.4-0.9-2.4-1.9-2.4-1.9
	C10,0.2,9.7,0.2,9.5,0.2c-0.2,0-0.5,0-0.6,0.2c0,0-1,1.1-2.4,1.9C4.6,3.4,2.8,3.7,1.2,3.2C0.8,3.1,0.4,3.3,0.3,3.7c0,0,0,0,0,0.1
	c0,0.1-0.6,3.3,0.1,7.1c0.5,2.2,1.3,4.2,2.5,5.9c1.5,2.1,3.6,3.8,6.2,4.9c0.1,0,0.3,0.1,0.3,0.1c0.1,0,0.3-0.1,0.4-0.1
	c2.6-1.1,4.7-2.8,6.2-4.9c1.2-1.7,2.1-3.7,2.5-5.9C19.4,7,18.8,3.9,18.7,3.8L18.7,3.8z M17.3,10.6c-0.9,4.6-3.5,7.8-7.7,9.7
	c-4.2-1.9-6.8-5.2-7.7-9.7C1.3,8.1,1.5,5.9,1.6,4.7c0.9,0.2,1.8,0.1,2.8-0.1c1-0.2,1.9-0.6,2.9-1.2c1-0.6,1.8-1.3,2.3-1.7
	c0.5,0.4,1.3,1.1,2.3,1.7c1,0.6,1.9,1,2.9,1.2c0.9,0.2,1.9,0.2,2.8,0.1C17.6,5.9,17.8,8.1,17.3,10.6L17.3,10.6z"/>
<path class="st0" d="M17.1,11.2l-11-7C5.8,4,5.7,3.6,6,3.2l0,0c0.2-0.3,0.6-0.4,1-0.2l11,7c0.3,0.2,0.4,0.6,0.2,1v0
	C17.9,11.3,17.5,11.4,17.1,11.2z"/>
<path class="st0" d="M15.6,16L1,6.7c-0.3-0.2-0.4-0.6-0.2-1l0,0c0.2-0.3,0.6-0.4,1-0.2l14.6,9.3c0.3,0.2,0.4,0.6,0.2,1v0
	C16.4,16.2,15.9,16.3,15.6,16z"/>
<path class="st0" d="M12.6,19.4L1.4,12.3c-0.3-0.2-0.4-0.6-0.2-1l0,0c0.2-0.3,0.6-0.4,1-0.2l11.2,7.1c0.3,0.2,0.4,0.6,0.2,1l0,0
	C13.4,19.5,12.9,19.6,12.6,19.4z"/>
</svg>
