<?xml version="1.0" encoding="utf-8"?>
<!-- Generator: Adobe Illustrator 22.1.0, SVG Export Plug-In . SVG Version: 6.00 Build 0)  -->
<svg version="1.1" id="图层_1" xmlns="http://www.w3.org/2000/svg" xmlns:xlink="http://www.w3.org/1999/xlink" x="0px" y="0px"
	 viewBox="0 0 19 22" style="enable-background:new 0 0 19 22;" xml:space="preserve">
<style type="text/css">
	.st0{fill:#00B7A5;}
</style>
<path class="st0" d="M18.7,4c-0.1-0.4-0.4-0.6-0.8-0.6c0,0,0,0-0.1,0c-1.6,0.5-3.4,0.2-5.3-0.9c-1.4-0.9-2.4-1.9-2.4-1.9
	C10,0.4,9.7,0.4,9.5,0.4c-0.2,0-0.5,0-0.6,0.2c0,0-1,1.1-2.4,1.9C4.6,3.7,2.8,4,1.2,3.4C0.8,3.3,0.4,3.5,0.3,3.9c0,0,0,0,0,0.1
	c0,0.1-0.6,3.3,0.1,7.1c0.5,2.2,1.3,4.2,2.5,5.9c1.5,2.1,3.6,3.8,6.2,4.9C9.2,22,9.4,22,9.5,22c0.1,0,0.3-0.1,0.4-0.1
	c2.6-1.1,4.7-2.8,6.2-4.9c1.2-1.7,2.1-3.7,2.5-5.9C19.4,7.3,18.8,4.1,18.7,4L18.7,4z M17.3,10.8c-0.9,4.6-3.5,7.8-7.7,9.7
	c-4.2-1.9-6.8-5.1-7.7-9.7C1.3,8.3,1.5,6.1,1.6,4.9c0.9,0.2,1.8,0.1,2.8-0.1c1-0.2,1.9-0.6,2.9-1.2c1-0.6,1.8-1.3,2.3-1.7
	c0.5,0.4,1.3,1.1,2.3,1.7c1,0.6,1.9,1,2.9,1.2c0.9,0.2,1.9,0.2,2.8,0.1C17.6,6.1,17.8,8.3,17.3,10.8L17.3,10.8z"/>
<path class="st0" d="M8.8,14.4c-0.2,0-0.4-0.1-0.5-0.2l-2.4-2.4c-0.3-0.3-0.3-0.7,0-1c0.3-0.3,0.7-0.3,1,0l2,2l4-3.9
	c0.3-0.3,0.7-0.3,1,0s0.3,0.7,0,1l-4.5,4.4C9.2,14.3,9,14.4,8.8,14.4L8.8,14.4z"/>
</svg>
