<?xml version="1.0" encoding="utf-8"?>
<!-- Generator: Adobe Illustrator 23.0.0, SVG Export Plug-In . SVG Version: 6.00 Build 0)  -->
<svg version="1.1" id="强大的法律保障" xmlns="http://www.w3.org/2000/svg" xmlns:xlink="http://www.w3.org/1999/xlink"
	 x="0px" y="0px" viewBox="0 0 421 888" style="enable-background:new 0 0 421 888;" xml:space="preserve">
<style type="text/css">
	.st0{fill:#010101;}
	.st1{fill:#70DBCB;}
	.st2{fill:none;stroke:#70DBCB;}
	.st3{fill:#58595B;}
	.st4{fill:#F5F5F5;}
	.st5{fill:#FCFCFC;}
	.st6{fill:#F2F2F2;}
	.st7{fill:#E6E7E8;}
	.st8{enable-background:new    ;}
	.st9{fill:#FFFFFF;}
</style>
<rect id="矩形_47" x="215" y="658" class="st0" width="1" height="70"/>
<rect id="矩形_47_拷贝" x="250" y="795.7" class="st0" width="89.9" height="1"/>
<g id="组_27">
	<rect id="矩形_48" x="215.2" y="426.8" class="st1" width="1.2" height="77.3"/>
	<path id="形状_2" class="st2" d="M221.3,504v-72.3l146-65.5"/>
	<path id="形状_2_拷贝_2" class="st2" d="M215.3,499v-72.3l146-65.5"/>
	<path id="形状_2_拷贝" class="st2" d="M209,504v-72.3L63,367.9"/>
	<path id="形状_2_拷贝_3" class="st2" d="M215,500v-72.3L69,363.9"/>
</g>
<ellipse id="椭圆_12" class="st3" cx="349.5" cy="796.2" rx="16.6" ry="16.6"/>
<path id="圆角矩形_1_拷贝" class="st4" d="M173.8,809.9l39-10c1.7-0.4,3.4-0.3,5,0.1l32.8,10.6c1.4,0.5,1.6,1.2,0.4,1.7
	l-34.2,12.5c-2,0.6-4.1,0.7-6.1,0.1L173,811.8C171.5,811.3,171.9,810.4,173.8,809.9z"/>
<path id="圆角矩形_1" class="st5" d="M174.6,789.1l39-10c1.7-0.4,3.4-0.3,5,0.1l32.8,10.6c1.4,0.5,1.6,1.2,0.4,1.7L217.7,804
	c-2,0.6-4.1,0.7-6.1,0.1L173.9,791C172.3,790.4,172.7,789.6,174.6,789.1z"/>
<ellipse id="椭圆_11" class="st6" cx="214.9" cy="788.9" rx="18.1" ry="3.6"/>
<path id="矩形_46" class="st7" d="M172.8,790.1l43.3,15.2v14.4l-43.3-15.2V790.1z"/>
<path id="矩形_46_拷贝" class="st7" d="M253.1,790.9l-37.7,14.4v14.4l37.7-14.4V790.9z"/>
<path id="圆角矩形_1_拷贝-2" class="st4" d="M174.5,602.3l39.1-10c1.7-0.4,3.4-0.3,5,0.1l32.8,10.6c1.4,0.5,1.6,1.2,0.4,1.7
	l-34.2,12.6c-2,0.6-4.1,0.7-6.1,0.1l-37.7-13.2C172.2,603.7,172.6,602.8,174.5,602.3z"/>
<path id="圆角矩形_1-2" class="st5" d="M175.3,581.4l39.1-10c1.7-0.4,3.4-0.3,5,0.1l32.8,10.6c1.4,0.5,1.6,1.2,0.4,1.7
	l-34.2,12.6c-2,0.6-4.1,0.7-6.1,0.1l-37.7-13.2C173,582.8,173.4,581.9,175.3,581.4z"/>
<path id="椭圆_11-2" class="st6" d="M215.7,577.6c10,0,18.1,1.6,18.1,3.6s-8.1,3.6-18.1,3.6s-18.1-1.6-18.1-3.6
	S205.7,577.6,215.7,577.6z"/>
<path id="矩形_46-2" class="st7" d="M173.5,582.5l43.4,15.3v14.5L173.5,597V582.5z"/>
<path id="矩形_46_拷贝-2" class="st7" d="M253.9,583.3l-37.8,14.5v14.5l37.8-14.5V583.3z"/>
<path id="圆角矩形_1_拷贝-3" class="st4" d="M317.7,312.5l39.1-10c1.7-0.4,3.4-0.3,5,0.1l32.8,10.6c1.4,0.5,1.6,1.2,0.4,1.7
	l-34.2,12.5c-2,0.6-4.1,0.7-6.1,0.1L317,314.4C315.4,313.8,315.8,313,317.7,312.5z"/>
<path id="圆角矩形_1-3" class="st5" d="M318.5,291.6l39.1-10c1.7-0.4,3.4-0.3,5,0.1l32.8,10.6c1.4,0.5,1.6,1.2,0.4,1.6
	l-34.2,12.5c-2,0.6-4.1,0.7-6.1,0.1l-37.7-13.1C316.2,293,316.6,292.1,318.5,291.6z"/>
<path id="椭圆_11-3" class="st6" d="M358.9,287.9c10,0,18.1,1.6,18.1,3.6s-8.1,3.6-18.1,3.6s-18.1-1.6-18.1-3.6
	S348.9,287.9,358.9,287.9z"/>
<path id="矩形_46-3" class="st7" d="M316.7,292.7l43.4,15.2v14.4l-43.4-15.2V292.7z"/>
<path id="矩形_46_拷贝-3" class="st7" d="M397.1,293.5l-37.8,14.4v14.4l37.8-14.4V293.5L397.1,293.5z"/>
<path id="圆角矩形_1_拷贝-4" class="st4" d="M19.7,313.3l39.1-10c1.7-0.4,3.4-0.3,5,0.1L96.7,314c1.4,0.5,1.6,1.2,0.4,1.7
	l-34.2,12.6c-2,0.6-4.1,0.7-6.1,0.1L19,315.1C17.4,314.6,17.8,313.8,19.7,313.3z"/>
<path id="圆角矩形_1-4" class="st5" d="M20.5,292.3l39.1-10c1.7-0.4,3.4-0.3,5,0.1L97.4,293c1.4,0.5,1.6,1.2,0.4,1.7l-34.2,12.6
	c-2,0.6-4.1,0.7-6.1,0.1l-37.7-13.2C18.2,293.7,18.6,292.8,20.5,292.3z"/>
<path id="椭圆_11-4" class="st6" d="M60.9,288.5c10,0,18.1,1.6,18.1,3.6s-8.1,3.6-18.1,3.6s-18.1-1.6-18.1-3.6
	S50.9,288.5,60.9,288.5z"/>
<path id="矩形_46-4" class="st7" d="M18.7,293.4l43.4,15.3v14.5l-43.4-15.3V293.4z"/>
<path id="矩形_46_拷贝-4" class="st7" d="M99.1,294.2l-37.8,14.5v14.5l37.8-14.5V294.2z"/>
<path id="圆角矩形_1_拷贝-5" class="st4" d="M310.7,86.7l39.1-10c1.7-0.4,3.4-0.3,5,0.1l32.9,10.6c1.4,0.5,1.6,1.2,0.4,1.7
	l-34.3,12.6c-2,0.6-4.1,0.7-6.1,0.1L310,88.6C308.4,88,308.8,87.2,310.7,86.7z"/>
<path id="圆角矩形_1-5" class="st5" d="M308.5,65.8l39.1-10c1.7-0.4,3.4-0.3,5,0.1l32.9,10.6c1.4,0.5,1.6,1.2,0.4,1.7
	l-34.3,12.6c-2,0.6-4.1,0.7-6.1,0.1l-37.7-13.2C306.2,67.1,306.6,66.3,308.5,65.8z"/>
<ellipse id="椭圆_11-5" class="st6" cx="348.9" cy="65.6" rx="18.1" ry="3.6"/>
<path id="矩形_46-5" class="st7" d="M306.7,66.8l43.4,15.3v14.5l-43.4-15.3V66.8z"/>
<path id="矩形_46_拷贝-5" class="st7" d="M387.1,67.6l-37.8,14.5v14.5l37.8-14.5V67.6z"/>
<path id="圆角矩形_1_拷贝-6" class="st4" d="M20.6,86.1l39.1-10c1.7-0.4,3.4-0.3,5,0.1l32.8,10.6c1.4,0.5,1.6,1.2,0.4,1.7
	l-34.2,12.6c-2,0.6-4.1,0.7-6.1,0.1L19.9,88C18.3,87.4,18.7,86.6,20.6,86.1z"/>
<path id="圆角矩形_1-6" class="st5" d="M21.4,65.2l39.1-10c1.7-0.4,3.4-0.3,5,0.1l32.8,10.6c1.4,0.5,1.6,1.2,0.4,1.7L64.5,80.2
	c-2,0.6-4.1,0.7-6.1,0.1L20.7,67.1C19.1,66.6,19.5,65.7,21.4,65.2z"/>
<ellipse id="椭圆_11-6" class="st6" cx="61.8" cy="65.1" rx="18.1" ry="3.6"/>
<path id="矩形_46-6" class="st7" d="M19.6,66.3L63,81.5V96L19.6,80.7V66.3z"/>
<path id="矩形_46_拷贝-6" class="st7" d="M99.9,67L62.2,81.5V96L100,81.5L99.9,67L99.9,67z"/>
<rect id="矩形_49" x="359" y="172" class="st0" width="1" height="60"/>
<rect id="矩形_49_拷贝" x="62" y="162" class="st0" width="1" height="70"/>
<g class="st8">
	<path class="st3" d="M40,55h22.5V10H40V55z M54.1,15.6h5.6v5.6h-5.6V15.6z M54.1,26.9h5.6v5.6h-5.6V26.9z M54.1,38.1h5.6v5.6h-5.6
		V38.1z M42.8,15.6h5.6v5.6h-5.6V15.6z M42.8,26.9h5.6v5.6h-5.6V26.9z M42.8,38.1h5.6v5.6h-5.6V38.1z M65.3,24.1H85v2.8H65.3V24.1z
		 M65.3,55h5.6V43.8h8.4V55H85V29.7H65.3V55z"/>
</g>
<g class="st8">
	<path class="st3" d="M345.7,45.4h7.6v9.5h-7.6V45.4z"/>
	<path class="st3" d="M344.8,28.4c0,2.6,2.1,4.7,4.7,4.7s4.7-2.1,4.7-4.7s-2.1-4.7-4.7-4.7C346.9,23.7,344.8,25.8,344.8,28.4z
		 M350.4,29.3h-3.8v-1.9h1.9v-2.8h1.9V29.3z"/>
	<path class="st3" d="M323,24.6v30.3h15.1V24.6H323z M329.6,44.5h-3.8v-1.9h3.8V44.5z M329.6,40.7h-3.8v-1.9h3.8V40.7z M329.6,36.9
		h-3.8V35h3.8V36.9z M329.6,33.1h-3.8v-1.9h3.8V33.1z M329.6,29.3h-3.8v-1.9h3.8V29.3z M335.3,44.5h-3.8v-1.9h3.8V44.5z M335.3,40.7
		h-3.8v-1.9h3.8V40.7z M335.3,36.9h-3.8V35h3.8V36.9z M335.3,33.1h-3.8v-1.9h3.8V33.1z M335.3,29.3h-3.8v-1.9h3.8V29.3z"/>
	<path class="st3" d="M376,54.9V24.6h-15.1v30.3H376z M369.4,27.4h3.8v1.9h-3.8V27.4z M369.4,31.2h3.8v1.9h-3.8V31.2z M369.4,35h3.8
		v1.9h-3.8V35z M369.4,38.8h3.8v1.9h-3.8V38.8z M369.4,42.6h3.8v1.9h-3.8V42.6z M363.7,27.4h3.8v1.9h-3.8V27.4z M363.7,31.2h3.8v1.9
		h-3.8V31.2z M363.7,35h3.8v1.9h-3.8V35z M363.7,38.8h3.8v1.9h-3.8V38.8z M363.7,42.6h3.8v1.9h-3.8V42.6z"/>
	<path class="st3" d="M340,20.4v34.5h3.8V44.5c0-0.5,0.4-0.9,0.9-0.9h9.5c0.5,0,0.9,0.4,0.9,0.9v10.4h3.8V20.4l-9.5-6.9L340,20.4z
		 M356.1,28.4c0,3.7-3,6.6-6.6,6.6s-6.6-3-6.6-6.6s3-6.6,6.6-6.6C353.2,21.8,356.1,24.7,356.1,28.4z"/>
	<path class="st3" d="M349.5,1.9h11.4v5.7h-11.4V1.9z"/>
	<path class="st3" d="M349.5,16.1c-0.5,0-0.9-0.4-0.9-0.9V0.9c0-0.5,0.4-0.9,0.9-0.9s0.9,0.4,0.9,0.9v14.2
		C350.4,15.7,350,16.1,349.5,16.1z"/>
</g>
<g class="st8">
	<path class="st3" d="M78.7,281.2c0.7,0,1.3-0.6,1.3-1.3v-21.6c0-0.7-0.6-1.3-1.3-1.3h-8.1v-0.9c0-0.5-0.3-0.9-0.7-1.2l-7.9-4v-2.5
		l5.6-1.9c0.5-0.2,0.9-0.7,0.9-1.2c0-0.6-0.4-1.1-0.9-1.2L61,242c-0.4-0.1-0.8-0.1-1.2,0.2c-0.3,0.2-0.5,0.6-0.5,1.1v7.8l-7.9,4
		c-0.4,0.2-0.7,0.7-0.7,1.2v0.9h-8.3c-0.7,0-1.3,0.6-1.3,1.3v21.6c0,0.7,0.6,1.3,1.3,1.3h36.3V281.2z M61.9,246.1v-1.4l2.9,0.7
		L61.9,246.1z M43.7,259.6h7v19h-7V259.6z M53.3,257l7.3-3.7l7.3,3.7v21.6H53.3V257z M77.3,278.6h-6.8v-19h6.8V278.6z"/>
	<path class="st3" d="M58.6,259.2h-2.2c-0.7,0-1.3,0.6-1.3,1.3c0,0.7,0.6,1.3,1.3,1.3h2.2c0.7,0,1.3-0.6,1.3-1.3
		C59.9,259.8,59.3,259.2,58.6,259.2z"/>
	<path class="st3" d="M46.3,264h2.2c0.7,0,1.3-0.6,1.3-1.3c0-0.7-0.6-1.3-1.3-1.3h-2.2c-0.7,0-1.3,0.6-1.3,1.3S45.6,264,46.3,264z"
		/>
	<path class="st3" d="M48.4,265.7h-2.2c-0.7,0-1.3,0.6-1.3,1.3c0,0.7,0.6,1.3,1.3,1.3h2.2c0.7,0,1.3-0.6,1.3-1.3
		C49.8,266.3,49.2,265.7,48.4,265.7z"/>
	<path class="st3" d="M48.4,270h-2.2c-0.7,0-1.3,0.6-1.3,1.3c0,0.7,0.6,1.3,1.3,1.3h2.2c0.7,0,1.3-0.6,1.3-1.3
		C49.8,270.6,49.2,270,48.4,270z"/>
	<path class="st3" d="M73,264h2.2c0.7,0,1.3-0.6,1.3-1.3c0-0.7-0.6-1.3-1.3-1.3H73c-0.7,0-1.3,0.6-1.3,1.3S72.3,264,73,264z"/>
	<path class="st3" d="M73,268.3h2.2c0.7,0,1.3-0.6,1.3-1.3c0-0.7-0.6-1.3-1.3-1.3H73c-0.7,0-1.3,0.6-1.3,1.3
		C71.7,267.7,72.3,268.3,73,268.3z"/>
	<path class="st3" d="M75.1,270H73c-0.7,0-1.3,0.6-1.3,1.3c0,0.7,0.6,1.3,1.3,1.3h2.2c0.7,0,1.3-0.6,1.3-1.3S75.9,270,75.1,270z"/>
	<path class="st3" d="M65,259.2h-2.2c-0.7,0-1.3,0.6-1.3,1.3c0,0.7,0.6,1.3,1.3,1.3H65c0.7,0,1.3-0.6,1.3-1.3
		C66.3,259.8,65.8,259.2,65,259.2z"/>
	<path class="st3" d="M58.6,263.5h-2.2c-0.7,0-1.3,0.6-1.3,1.3c0,0.7,0.6,1.3,1.3,1.3h2.2c0.7,0,1.3-0.6,1.3-1.3
		C59.9,264.1,59.3,263.5,58.6,263.5z"/>
	<path class="st3" d="M65,263.5h-2.2c-0.7,0-1.3,0.6-1.3,1.3c0,0.7,0.6,1.3,1.3,1.3H65c0.7,0,1.3-0.6,1.3-1.3S65.8,263.5,65,263.5z"
		/>
	<path class="st3" d="M58.6,267.8h-2.2c-0.7,0-1.3,0.6-1.3,1.3s0.6,1.3,1.3,1.3h2.2c0.7,0,1.3-0.6,1.3-1.3S59.3,267.8,58.6,267.8z"
		/>
	<path class="st3" d="M65,267.8h-2.2c-0.7,0-1.3,0.6-1.3,1.3s0.6,1.3,1.3,1.3H65c0.7,0,1.3-0.6,1.3-1.3S65.8,267.8,65,267.8z"/>
</g>
<g class="st8">
	<path class="st3" d="M232.2,573.7c0.7,0,1.3-0.6,1.3-1.3v-21.6c0-0.7-0.6-1.3-1.3-1.3h-8.1v-0.9c0-0.5-0.3-0.9-0.7-1.2l-7.9-4v-2.5
		l5.6-1.9c0.5-0.2,0.9-0.7,0.9-1.2c0-0.6-0.4-1.1-0.9-1.2l-6.5-2.2c-0.4-0.1-0.8-0.1-1.2,0.2c-0.3,0.2-0.5,0.6-0.5,1.1v7.8l-7.9,4
		c-0.4,0.2-0.7,0.7-0.7,1.2v0.9H196c-0.7,0-1.3,0.6-1.3,1.3v21.6c0,0.7,0.6,1.3,1.3,1.3L232.2,573.7L232.2,573.7z M215.4,538.5v-1.4
		l2.9,0.7L215.4,538.5z M197.2,552.1h7v19h-7V552.1z M206.8,549.4l7.3-3.7l7.3,3.7V571h-14.7L206.8,549.4L206.8,549.4z M230.9,571.1
		h-6.8v-19h6.8V571.1z"/>
	<path class="st3" d="M212.1,551.6h-2.2c-0.7,0-1.3,0.6-1.3,1.3s0.6,1.3,1.3,1.3h2.2c0.7,0,1.3-0.6,1.3-1.3
		C213.4,552.2,212.8,551.6,212.1,551.6z"/>
	<path class="st3" d="M199.8,556.4h2.2c0.7,0,1.3-0.6,1.3-1.3s-0.6-1.3-1.3-1.3h-2.2c-0.7,0-1.3,0.6-1.3,1.3
		C198.5,555.8,199.1,556.4,199.8,556.4z"/>
	<path class="st3" d="M202,558.1h-2.2c-0.7,0-1.3,0.6-1.3,1.3s0.6,1.3,1.3,1.3h2.2c0.7,0,1.3-0.6,1.3-1.3S202.7,558.1,202,558.1z"/>
	<path class="st3" d="M202,562.4h-2.2c-0.7,0-1.3,0.6-1.3,1.3s0.6,1.3,1.3,1.3h2.2c0.7,0,1.3-0.6,1.3-1.3S202.7,562.4,202,562.4z"/>
	<path class="st3" d="M226.5,556.4h2.2c0.7,0,1.3-0.6,1.3-1.3s-0.6-1.3-1.3-1.3h-2.2c-0.7,0-1.3,0.6-1.3,1.3
		C225.2,555.8,225.8,556.4,226.5,556.4z"/>
	<path class="st3" d="M226.5,560.7h2.2c0.7,0,1.3-0.6,1.3-1.3s-0.6-1.3-1.3-1.3h-2.2c-0.7,0-1.3,0.6-1.3,1.3
		S225.8,560.7,226.5,560.7z"/>
	<path class="st3" d="M228.7,562.4h-2.2c-0.7,0-1.3,0.6-1.3,1.3s0.6,1.3,1.3,1.3h2.2c0.7,0,1.3-0.6,1.3-1.3S229.4,562.4,228.7,562.4
		z"/>
	<path class="st3" d="M218.6,551.6h-2.2c-0.7,0-1.3,0.6-1.3,1.3s0.6,1.3,1.3,1.3h2.2c0.7,0,1.3-0.6,1.3-1.3
		C219.9,552.2,219.3,551.6,218.6,551.6z"/>
	<path class="st3" d="M212.1,555.9h-2.2c-0.7,0-1.3,0.6-1.3,1.3s0.6,1.3,1.3,1.3h2.2c0.7,0,1.3-0.6,1.3-1.3S212.8,555.9,212.1,555.9
		z"/>
	<path class="st3" d="M218.6,555.9h-2.2c-0.7,0-1.3,0.6-1.3,1.3s0.6,1.3,1.3,1.3h2.2c0.7,0,1.3-0.6,1.3-1.3S219.3,555.9,218.6,555.9
		z"/>
	<path class="st3" d="M212.1,560.3h-2.2c-0.7,0-1.3,0.6-1.3,1.3s0.6,1.3,1.3,1.3h2.2c0.7,0,1.3-0.6,1.3-1.3S212.8,560.3,212.1,560.3
		z"/>
	<path class="st3" d="M218.6,560.3h-2.2c-0.7,0-1.3,0.6-1.3,1.3s0.6,1.3,1.3,1.3h2.2c0.7,0,1.3-0.6,1.3-1.3S219.3,560.3,218.6,560.3
		z"/>
</g>
<g class="st8">
	<path class="st3" d="M377.1,281.2c0.7,0,1.3-0.6,1.3-1.3v-21.6c0-0.7-0.6-1.3-1.3-1.3H369v-0.9c0-0.5-0.3-0.9-0.7-1.2l-7.9-4v-2.5
		l5.6-1.9c0.5-0.2,0.9-0.7,0.9-1.2c0-0.6-0.4-1.1-0.9-1.2l-6.5-2.2c-0.4-0.1-0.8-0.1-1.2,0.2c-0.3,0.2-0.5,0.6-0.5,1.1v7.8l-7.9,4
		c-0.4,0.2-0.7,0.7-0.7,1.2v0.9h-8.3c-0.7,0-1.3,0.6-1.3,1.3V280c0,0.7,0.6,1.3,1.3,1.3L377.1,281.2L377.1,281.2z M360.3,246.1v-1.4
		l2.9,0.7L360.3,246.1z M342.1,259.6h7v19h-7V259.6z M351.7,257l7.3-3.7l7.3,3.7v21.6h-14.7V257H351.7z M375.8,278.6H369v-19h6.8
		V278.6z"/>
	<path class="st3" d="M357,259.2h-2.2c-0.7,0-1.3,0.6-1.3,1.3c0,0.7,0.6,1.3,1.3,1.3h2.2c0.7,0,1.3-0.6,1.3-1.3
		C358.3,259.8,357.7,259.2,357,259.2z"/>
	<path class="st3" d="M344.7,264h2.2c0.7,0,1.3-0.6,1.3-1.3c0-0.7-0.6-1.3-1.3-1.3h-2.2c-0.7,0-1.3,0.6-1.3,1.3
		C343.4,263.4,344,264,344.7,264z"/>
	<path class="st3" d="M346.9,265.7h-2.2c-0.7,0-1.3,0.6-1.3,1.3c0,0.7,0.6,1.3,1.3,1.3h2.2c0.7,0,1.3-0.6,1.3-1.3
		C348.2,266.3,347.6,265.7,346.9,265.7z"/>
	<path class="st3" d="M346.9,270h-2.2c-0.7,0-1.3,0.6-1.3,1.3c0,0.7,0.6,1.3,1.3,1.3h2.2c0.7,0,1.3-0.6,1.3-1.3
		C348.2,270.6,347.6,270,346.9,270z"/>
	<path class="st3" d="M371.4,264h2.2c0.7,0,1.3-0.6,1.3-1.3c0-0.7-0.6-1.3-1.3-1.3h-2.2c-0.7,0-1.3,0.6-1.3,1.3S370.7,264,371.4,264
		z"/>
	<path class="st3" d="M371.4,268.3h2.2c0.7,0,1.3-0.6,1.3-1.3c0-0.7-0.6-1.3-1.3-1.3h-2.2c-0.7,0-1.3,0.6-1.3,1.3
		C370.1,267.7,370.7,268.3,371.4,268.3z"/>
	<path class="st3" d="M373.6,270h-2.2c-0.7,0-1.3,0.6-1.3,1.3c0,0.7,0.6,1.3,1.3,1.3h2.2c0.7,0,1.3-0.6,1.3-1.3S374.3,270,373.6,270
		z"/>
	<path class="st3" d="M363.5,259.2h-2.2c-0.7,0-1.3,0.6-1.3,1.3c0,0.7,0.6,1.3,1.3,1.3h2.2c0.7,0,1.3-0.6,1.3-1.3
		C364.8,259.8,364.2,259.2,363.5,259.2z"/>
	<path class="st3" d="M357,263.5h-2.2c-0.7,0-1.3,0.6-1.3,1.3c0,0.7,0.6,1.3,1.3,1.3h2.2c0.7,0,1.3-0.6,1.3-1.3
		S357.7,263.5,357,263.5z"/>
	<path class="st3" d="M363.5,263.5h-2.2c-0.7,0-1.3,0.6-1.3,1.3c0,0.7,0.6,1.3,1.3,1.3h2.2c0.7,0,1.3-0.6,1.3-1.3
		S364.2,263.5,363.5,263.5z"/>
	<path class="st3" d="M357,267.8h-2.2c-0.7,0-1.3,0.6-1.3,1.3s0.6,1.3,1.3,1.3h2.2c0.7,0,1.3-0.6,1.3-1.3S357.7,267.8,357,267.8z"/>
	<path class="st3" d="M363.5,267.8h-2.2c-0.7,0-1.3,0.6-1.3,1.3s0.6,1.3,1.3,1.3h2.2c0.7,0,1.3-0.6,1.3-1.3S364.2,267.8,363.5,267.8
		z"/>
</g>
<polygon id="XMLID_63_" class="st9" points="350.7,792.3 352.2,792.3 352.2,790 356,790 356,802.3 352.2,802.3 352.2,798.9 
	354.7,798.9 354.7,793.6 344.4,793.6 344.4,798.9 346.8,798.9 346.8,802.3 343.1,802.3 343.1,790 346.9,790 346.9,792.3 
	348.4,792.3 348.4,788.4 341.5,788.4 341.5,803.9 348.4,803.9 348.4,797.3 346,797.3 346,795.2 353.1,795.2 353.1,797.3 
	350.7,797.3 350.7,803.9 357.6,803.9 357.6,788.4 350.7,788.4 "/>
<g>
	<g>
		<g>
			<path class="st3" d="M234,751.3c0.2-0.5,0.3-1,0.1-1.5s-0.5-0.9-1-1.2l-4.5-2.3c-0.1-0.1-0.2-0.2-0.3-0.4l-0.8-5
				c-0.2-1-1-1.7-2-1.7c-0.1,0-0.2,0-0.3,0l-5,0.8c-0.2,0-0.3,0-0.4-0.1l-3.6-3.6c-0.4-0.4-0.9-0.6-1.4-0.6s-1,0.2-1.4,0.6l-3.6,3.6
				c-0.1,0.1-0.3,0.2-0.4,0.1l-5-0.8c-0.1,0-0.2,0-0.3,0c-1,0-1.8,0.7-2,1.7l-0.8,5c0,0.2-0.1,0.3-0.3,0.4l-4.5,2.3
				c-0.5,0.2-0.8,0.7-1,1.2s-0.1,1.1,0.1,1.5l2.3,4.5c0.1,0.1,0.1,0.3,0,0.5l-2.3,4.5c-0.2,0.5-0.3,1-0.1,1.5s0.5,0.9,1,1.2l4.5,2.3
				c0.1,0.1,0.2,0.2,0.3,0.4l0.8,5c0.2,1,1,1.7,2,1.7c0.1,0,0.2,0,0.3,0l5-0.8c0.2,0,0.3,0,0.4,0.1l3.6,3.6c0.4,0.4,0.9,0.6,1.4,0.6
				s1-0.2,1.4-0.6l3.6-3.6c0.1-0.1,0.3-0.2,0.4-0.1l5,0.8c0.1,0,0.2,0,0.3,0c1,0,1.8-0.7,2-1.7l0.8-5c0-0.2,0.1-0.3,0.3-0.4l4.5-2.3
				c0.5-0.2,0.8-0.7,1-1.2s0.1-1.1-0.1-1.5l-2.3-4.5c-0.1-0.1-0.1-0.3,0-0.5L234,751.3z M230.4,756.9l2.3,4.5c0.1,0.1,0.1,0.3,0,0.4
				c0,0.1-0.1,0.2-0.3,0.3l-4.5,2.3c-0.6,0.3-1,0.8-1.1,1.5l-0.8,5c0,0.3-0.3,0.5-0.6,0.4l-5-0.8c-0.1,0-0.2,0-0.3,0
				c-0.5,0-1,0.2-1.4,0.6l-3.6,3.6c-0.2,0.2-0.5,0.2-0.7,0L211,771c-0.4-0.4-0.9-0.6-1.4-0.6c-0.1,0-0.2,0-0.3,0l-5,0.8
				c-0.3,0-0.5-0.2-0.6-0.4l-0.8-5c-0.1-0.6-0.5-1.2-1.1-1.5l-4.5-2.3c-0.1-0.1-0.2-0.2-0.3-0.3c0-0.1,0-0.3,0-0.4l2.3-4.5
				c0.3-0.6,0.3-1.3,0-1.8l-2.3-4.5c-0.1-0.1-0.1-0.3,0-0.4s0.1-0.2,0.3-0.3l4.5-2.3c0.6-0.3,1-0.8,1.1-1.5l0.8-5
				c0-0.3,0.3-0.5,0.6-0.4l5,0.8c0.1,0,0.2,0,0.3,0l0,0c0.5,0,1-0.2,1.4-0.6l3.6-3.6c0.2-0.2,0.5-0.2,0.7,0l3.6,3.6
				c0.4,0.5,1.1,0.7,1.7,0.6l5-0.8c0.3,0,0.5,0.2,0.6,0.4l0.8,5c0.1,0.6,0.5,1.2,1.1,1.5l4.5,2.3c0.1,0.1,0.2,0.2,0.3,0.3
				c0,0.1,0,0.3,0,0.4l-2.3,4.5C230.1,755.6,230.1,756.3,230.4,756.9z"/>
			<path class="st3" d="M220.8,747.5c0.1,0.1,0.3,0.1,0.4,0.1c0.2,0,0.5-0.1,0.6-0.3c0.2-0.3,0.1-0.8-0.2-1s-0.8-0.1-1,0.2
				C220.4,746.8,220.5,747.2,220.8,747.5z"/>
			<path class="st3" d="M223.2,749.4c0.2,0,0.4-0.1,0.5-0.2c0.3-0.3,0.3-0.7,0.1-1.1c-0.3-0.3-0.8-0.3-1.1-0.1
				c-0.3,0.3-0.3,0.7-0.1,1.1C222.8,749.3,223,749.4,223.2,749.4z"/>
			<path class="st3" d="M218.6,765.6c-0.4,0.1-0.6,0.6-0.4,1c0.1,0.3,0.4,0.5,0.7,0.5c0.1,0,0.2,0,0.3,0c0.4-0.1,0.6-0.6,0.4-1
				C219.4,765.7,219,765.5,218.6,765.6z"/>
			<path class="st3" d="M220.8,764.4c-0.3,0.2-0.4,0.7-0.2,1c0.1,0.2,0.4,0.3,0.6,0.3c0.1,0,0.3,0,0.4-0.1c0.3-0.2,0.4-0.7,0.2-1
				C221.6,764.3,221.2,764.2,220.8,764.4z"/>
			<path class="st3" d="M211.3,765.6c-0.4-0.1-0.8,0-1,0.4s0,0.8,0.4,1c0.1,0,0.2,0,0.3,0c0.3,0,0.6-0.2,0.7-0.5
				C211.9,766.2,211.7,765.8,211.3,765.6z"/>
			<path class="st3" d="M216.2,766.2c-0.4,0-0.7,0.4-0.7,0.8c0,0.4,0.4,0.7,0.7,0.7h0.1c0.4,0,0.7-0.4,0.7-0.8
				C217,766.4,216.6,766.1,216.2,766.2z"/>
			<path class="st3" d="M213.7,766.2L213.7,766.2c-0.4,0-0.8,0.2-0.8,0.7c0,0.4,0.2,0.8,0.7,0.8h0.1c0.4,0,0.7-0.3,0.7-0.7
				S214.1,766.3,213.7,766.2z"/>
			<path class="st3" d="M225,753.5L225,753.5c0.1,0.3,0.4,0.6,0.7,0.6c0.1,0,0.1,0,0.2,0c0.4-0.1,0.6-0.5,0.5-0.9s-0.5-0.6-0.9-0.5
				C225.1,752.7,224.9,753.1,225,753.5z"/>
			<path class="st3" d="M226,755.2c-0.4,0-0.8,0.3-0.8,0.8s0.3,0.8,0.8,0.7c0.4,0,0.8-0.3,0.7-0.8
				C226.8,755.5,226.4,755.2,226,755.2z"/>
			<path class="st3" d="M225.9,757.9c-0.4-0.1-0.8,0.1-0.9,0.5c-0.1,0.4,0.1,0.8,0.5,0.9c0.1,0,0.1,0,0.2,0c0.3,0,0.6-0.2,0.7-0.6
				C226.5,758.4,226.3,758,225.9,757.9z"/>
			<path class="st3" d="M224.7,751.6c0.1,0,0.2,0,0.3-0.1c0.4-0.2,0.5-0.6,0.3-1s-0.6-0.5-1-0.3s-0.5,0.6-0.3,1
				C224.2,751.4,224.5,751.6,224.7,751.6z"/>
			<path class="st3" d="M222.7,762.8c-0.3,0.3-0.2,0.8,0.1,1.1c0.1,0.1,0.3,0.2,0.5,0.2s0.4-0.1,0.6-0.3c0.3-0.3,0.2-0.8-0.1-1.1
				C223.4,762.4,222.9,762.5,222.7,762.8z"/>
			<path class="st3" d="M225.1,760.4c-0.4-0.2-0.8,0-1,0.3c-0.2,0.4,0,0.8,0.3,1c0.1,0.1,0.2,0.1,0.3,0.1c0.3,0,0.5-0.1,0.7-0.4
				C225.6,761.1,225.5,760.6,225.1,760.4z"/>
			<path class="st3" d="M206.7,749.4c0.2,0,0.4-0.1,0.6-0.2c0.3-0.3,0.2-0.8-0.1-1.1s-0.8-0.2-1.1,0.1s-0.2,0.8,0.1,1.1
				C206.3,749.3,206.5,749.4,206.7,749.4z"/>
			<path class="st3" d="M204.8,760.5c-0.4,0.2-0.5,0.6-0.3,1c0.1,0.3,0.4,0.4,0.7,0.4c0.1,0,0.2,0,0.3-0.1c0.4-0.2,0.5-0.6,0.3-1
				S205.2,760.3,204.8,760.5z"/>
			<path class="st3" d="M204.9,758.5c-0.1-0.4-0.5-0.6-0.9-0.5s-0.6,0.5-0.5,0.9c0.1,0.3,0.4,0.6,0.7,0.6c0.1,0,0.1,0,0.2,0
				C204.8,759.3,205,758.9,204.9,758.5z"/>
			<path class="st3" d="M204,754c0.1,0,0.1,0,0.2,0c0.3,0,0.6-0.2,0.7-0.6c0.1-0.4-0.1-0.8-0.5-0.9c-0.4-0.1-0.8,0.1-0.9,0.5
				C203.4,753.5,203.6,753.9,204,754z"/>
			<path class="st3" d="M203.9,756.7c0.4,0,0.7-0.3,0.7-0.8l0,0l0,0c0-0.4-0.3-0.8-0.8-0.8c-0.4,0-0.7,0.3-0.7,0.8l0,0l0,0
				C203.1,756.4,203.5,756.7,203.9,756.7L203.9,756.7z"/>
			<path class="st3" d="M204.8,751.5c0.1,0.1,0.2,0.1,0.3,0.1c0.3,0,0.5-0.1,0.7-0.4c0.2-0.4,0-0.8-0.3-1c-0.4-0.2-0.8,0-1,0.3
				C204.3,750.8,204.4,751.3,204.8,751.5z"/>
			<path class="st3" d="M206.2,762.8c-0.3,0.3-0.3,0.8-0.1,1.1c0.1,0.2,0.4,0.2,0.6,0.2c0.2,0,0.4-0.1,0.5-0.2
				c0.3-0.3,0.3-0.8,0.1-1.1C207,762.5,206.5,762.5,206.2,762.8z"/>
			<path class="st3" d="M213.6,745.7L213.6,745.7c0.5-0.1,0.8-0.4,0.7-0.8c0-0.4-0.4-0.7-0.8-0.7s-0.7,0.4-0.7,0.8
				C212.9,745.4,213.2,745.7,213.6,745.7z"/>
			<path class="st3" d="M216.2,745.7L216.2,745.7c0.5,0,0.8-0.3,0.8-0.7s-0.2-0.8-0.7-0.8c-0.4,0-0.8,0.2-0.8,0.7
				C215.5,745.3,215.8,745.7,216.2,745.7z"/>
			<path class="st3" d="M218.6,746.3c0.1,0,0.2,0,0.3,0c0.3,0,0.6-0.2,0.7-0.5c0.1-0.4,0-0.8-0.4-1c-0.4-0.1-0.8,0-1,0.4
				S218.2,746.2,218.6,746.3z"/>
			<path class="st3" d="M211,746.4c0.1,0,0.2,0,0.3,0c0.4-0.1,0.6-0.6,0.4-1c-0.1-0.4-0.6-0.6-1-0.4l0,0c-0.4,0.1-0.6,0.6-0.4,1
				C210.4,746.2,210.7,746.4,211,746.4z"/>
			<path class="st3" d="M209.1,764.5c-0.3-0.2-0.8-0.1-1,0.2s-0.1,0.8,0.2,1c0.1,0.1,0.3,0.1,0.4,0.1c0.2,0,0.5-0.1,0.6-0.3
				C209.5,765.2,209.4,764.7,209.1,764.5z"/>
			<path class="st3" d="M208.6,747.6c0.1,0,0.3,0,0.4-0.1c0.3-0.2,0.4-0.7,0.2-1s-0.7-0.4-1-0.2s-0.4,0.7-0.2,1
				C208.2,747.5,208.4,747.6,208.6,747.6z"/>
		</g>
	</g>
	<g>
		<path class="st3" d="M200.3,760h29.3c1.7,0,3.1-1.4,3.1-3.1c0-1.2-0.7-2.2-1.7-2.7v-3.4c0-0.4-0.2-0.8-0.6-0.9l-15-7.2
			c-0.3-0.1-0.6-0.1-0.9,0l-15,7.2c-0.4,0.2-0.6,0.5-0.6,0.9v3.4c-1,0.5-1.7,1.5-1.7,2.7C197.2,758.7,198.6,760,200.3,760z
			 M214.9,747.8c1.1,0,2,0.9,2,2s-0.9,2-2,2s-2-0.9-2-2S213.8,747.8,214.9,747.8z"/>
		<path class="st3" d="M229.4,771.6h-0.5l0.4-4c0.1-1.2,0.1-2.4,0-3.6l-0.2-1.9h-6.8l-0.2,1.9c-0.1,1.2-0.1,2.4,0,3.6l0.4,4H218
			l0.4-4c0.1-1.2,0.1-2.4,0-3.6l-0.2-1.9h-6.8l-0.2,1.9c-0.1,1.2-0.1,2.4,0,3.6l0.4,4h-4.5l0.4-4c0.1-1.2,0.1-2.4,0-3.6l-0.2-1.9
			h-6.8l-0.2,1.9c-0.1,1.2-0.1,2.4,0,3.6l0.4,4h-0.5c-1.8,0-3.2,1.5-3.2,3.2s1.5,3.2,3.2,3.2h29c1.8,0,3.2-1.5,3.2-3.2
			S231.2,771.6,229.4,771.6z"/>
	</g>
</g>
<g>
	<path d="M12.5,121.9l1.1-0.1c0.1,0.4,0.2,0.8,0.4,1.1s0.5,0.5,0.9,0.7s0.8,0.3,1.3,0.3c0.4,0,0.8-0.1,1.1-0.2
		c0.3-0.1,0.6-0.3,0.7-0.5s0.2-0.5,0.2-0.7c0-0.3-0.1-0.5-0.2-0.7s-0.4-0.4-0.8-0.5c-0.2-0.1-0.7-0.2-1.5-0.4s-1.3-0.4-1.7-0.5
		c-0.4-0.2-0.7-0.5-0.9-0.8s-0.3-0.7-0.3-1.1s0.1-0.8,0.4-1.2s0.6-0.7,1.1-0.9s1-0.3,1.6-0.3c0.6,0,1.2,0.1,1.7,0.3s0.9,0.5,1.1,0.9
		s0.4,0.8,0.4,1.4l-1.1,0.1c-0.1-0.5-0.3-1-0.6-1.2s-0.8-0.4-1.5-0.4c-0.7,0-1.2,0.1-1.5,0.4s-0.5,0.6-0.5,0.9s0.1,0.6,0.3,0.8
		c0.2,0.2,0.8,0.4,1.7,0.6s1.6,0.4,1.9,0.5c0.5,0.2,0.9,0.5,1.1,0.9s0.4,0.8,0.4,1.2c0,0.5-0.1,0.9-0.4,1.3s-0.6,0.7-1.1,0.9
		s-1,0.3-1.7,0.3c-0.8,0-1.4-0.1-2-0.3s-0.9-0.6-1.2-1S12.5,122.5,12.5,121.9z"/>
	<path d="M24.8,124.7v-0.9c-0.5,0.7-1.1,1.1-2,1.1c-0.4,0-0.7-0.1-1-0.2s-0.6-0.3-0.7-0.5s-0.3-0.5-0.3-0.8c0-0.2-0.1-0.5-0.1-1
		v-3.9h1.1v3.5c0,0.6,0,0.9,0.1,1.1c0.1,0.3,0.2,0.5,0.4,0.7s0.5,0.2,0.8,0.2s0.6-0.1,0.9-0.2s0.5-0.4,0.6-0.7s0.2-0.7,0.2-1.2v-3.3
		h1.1v6.2L24.8,124.7L24.8,124.7z"/>
	<path d="M27.4,124.7v-6.2h0.9v0.9c0.2-0.4,0.5-0.7,0.7-0.9s0.4-0.2,0.7-0.2c0.4,0,0.7,0.1,1.1,0.3l-0.4,1c-0.3-0.2-0.5-0.2-0.8-0.2
		c-0.2,0-0.4,0.1-0.6,0.2s-0.3,0.3-0.4,0.6c-0.1,0.4-0.2,0.8-0.2,1.2v3.3C28.4,124.7,27.4,124.7,27.4,124.7z"/>
	<path d="M33.1,124.7l-2.4-6.2h1.1l1.3,3.7c0.1,0.4,0.3,0.8,0.4,1.3c0.1-0.3,0.2-0.7,0.4-1.2l1.4-3.8h1.1l-2.4,6.2H33.1z"/>
	<path d="M41.7,122.7l1.1,0.1c-0.2,0.6-0.5,1.1-1,1.5s-1.1,0.5-1.8,0.5c-0.9,0-1.6-0.3-2.2-0.8s-0.8-1.3-0.8-2.4
		c0-1,0.3-1.9,0.8-2.4s1.2-0.9,2.1-0.9c0.8,0,1.5,0.3,2,0.8s0.8,1.4,0.8,2.4c0,0.1,0,0.2,0,0.3h-4.6c0,0.7,0.2,1.2,0.6,1.6
		s0.8,0.5,1.3,0.5c0.4,0,0.7-0.1,1-0.3S41.5,123.1,41.7,122.7z M38.2,121h3.5c0-0.5-0.2-0.9-0.4-1.2c-0.3-0.4-0.8-0.6-1.3-0.6
		s-0.9,0.2-1.2,0.5S38.2,120.4,38.2,121z"/>
	<path d="M44.1,117.3v-1.2h1.1v1.2H44.1z M44.1,124.7v-6.2h1.1v6.2H44.1z"/>
	<path d="M46.7,124.7v-8.6h1.1v8.6H46.7z"/>
	<path d="M49.4,124.7v-8.6h1.1v8.6H49.4z"/>
	<path d="M56.1,123.9c-0.4,0.3-0.8,0.6-1.1,0.7s-0.7,0.2-1.2,0.2c-0.7,0-1.2-0.2-1.6-0.5s-0.6-0.8-0.6-1.3c0-0.3,0.1-0.6,0.2-0.8
		s0.3-0.5,0.5-0.6s0.5-0.3,0.8-0.3c0.2-0.1,0.5-0.1,0.9-0.2c0.9-0.1,1.5-0.2,1.9-0.4c0-0.1,0-0.2,0-0.3c0-0.4-0.1-0.7-0.3-0.9
		c-0.3-0.2-0.7-0.4-1.2-0.4s-0.9,0.1-1.1,0.3s-0.4,0.5-0.5,0.9l-1-0.1c0.1-0.4,0.2-0.8,0.5-1.1s0.5-0.5,0.9-0.6s0.9-0.2,1.4-0.2
		s1,0.1,1.3,0.2s0.6,0.3,0.7,0.5s0.3,0.4,0.3,0.7c0,0.2,0.1,0.5,0.1,1v1.4c0,1,0,1.6,0.1,1.9s0.1,0.5,0.3,0.7h-1.1
		C56.2,124.5,56.2,124.2,56.1,123.9z M56.1,121.6c-0.4,0.2-1,0.3-1.7,0.4c-0.4,0.1-0.7,0.1-0.9,0.2s-0.3,0.2-0.4,0.3
		S53,122.8,53,123c0,0.3,0.1,0.5,0.3,0.7s0.5,0.3,0.9,0.3s0.8-0.1,1.1-0.3s0.5-0.4,0.7-0.7c0.1-0.2,0.2-0.6,0.2-1.1L56.1,121.6
		L56.1,121.6z"/>
	<path d="M58.8,124.7v-6.2h0.9v0.9c0.5-0.7,1.1-1,2-1c0.4,0,0.7,0.1,1,0.2s0.5,0.3,0.7,0.5s0.3,0.5,0.3,0.8c0,0.2,0.1,0.5,0.1,1v3.8
		h-1.1v-3.8c0-0.4,0-0.8-0.1-1s-0.2-0.4-0.4-0.5s-0.5-0.2-0.7-0.2c-0.4,0-0.8,0.1-1.2,0.4s-0.5,0.8-0.5,1.6v3.4L58.8,124.7
		L58.8,124.7z"/>
	<path d="M69.5,122.4l1,0.1c-0.1,0.7-0.4,1.3-0.9,1.7s-1,0.6-1.7,0.6c-0.9,0-1.5-0.3-2.1-0.8s-0.8-1.4-0.8-2.4
		c0-0.7,0.1-1.3,0.3-1.8s0.6-0.9,1-1.1s1-0.4,1.5-0.4c0.7,0,1.2,0.2,1.7,0.5s0.7,0.8,0.8,1.5l-1,0.2c-0.1-0.4-0.3-0.7-0.5-0.9
		s-0.5-0.3-0.9-0.3c-0.5,0-1,0.2-1.3,0.6s-0.5,1-0.5,1.8s0.2,1.4,0.5,1.8s0.7,0.6,1.3,0.6c0.4,0,0.8-0.1,1-0.4
		S69.4,122.9,69.5,122.4z"/>
	<path d="M75.7,122.7l1.1,0.1c-0.2,0.6-0.5,1.1-1,1.5s-1.1,0.5-1.8,0.5c-0.9,0-1.6-0.3-2.2-0.8s-0.8-1.3-0.8-2.4
		c0-1,0.3-1.9,0.8-2.4s1.2-0.9,2.1-0.9c0.8,0,1.5,0.3,2,0.8s0.8,1.4,0.8,2.4c0,0.1,0,0.2,0,0.3h-4.6c0,0.7,0.2,1.2,0.6,1.6
		s0.8,0.5,1.3,0.5c0.4,0,0.7-0.1,1-0.3S75.5,123.1,75.7,122.7z M72.2,121h3.5c0-0.5-0.2-0.9-0.4-1.2c-0.3-0.4-0.8-0.6-1.3-0.6
		s-0.9,0.2-1.2,0.5S72.3,120.4,72.2,121z"/>
	<path d="M81.4,127.1v-8.6h1v0.8c0.2-0.3,0.5-0.6,0.8-0.7s0.6-0.2,1-0.2c0.5,0,1,0.1,1.4,0.4s0.7,0.7,0.9,1.2s0.3,1,0.3,1.6
		s-0.1,1.2-0.3,1.7s-0.6,0.9-1,1.2s-0.9,0.4-1.4,0.4c-0.4,0-0.7-0.1-0.9-0.2s-0.5-0.3-0.7-0.6v3C82.6,127.1,81.4,127.1,81.4,127.1z
		 M82.4,121.6c0,0.8,0.2,1.4,0.5,1.8s0.7,0.6,1.2,0.6s0.9-0.2,1.2-0.6s0.5-1,0.5-1.8s-0.2-1.4-0.5-1.8s-0.7-0.6-1.2-0.6
		c-0.4,0-0.8,0.2-1.2,0.6S82.4,120.8,82.4,121.6z"/>
	<path d="M92.2,123.9c-0.4,0.3-0.8,0.6-1.1,0.7s-0.7,0.2-1.2,0.2c-0.7,0-1.2-0.2-1.6-0.5s-0.6-0.8-0.6-1.3c0-0.3,0.1-0.6,0.2-0.8
		s0.3-0.5,0.5-0.6s0.5-0.3,0.8-0.3c0.2-0.1,0.5-0.1,0.9-0.2c0.9-0.1,1.5-0.2,1.9-0.4c0-0.1,0-0.2,0-0.3c0-0.4-0.1-0.7-0.3-0.9
		c-0.3-0.2-0.7-0.4-1.2-0.4s-0.9,0.1-1.1,0.3s-0.4,0.5-0.5,0.9l-1-0.1c0.1-0.4,0.2-0.8,0.5-1.1s0.5-0.5,0.9-0.6s0.9-0.2,1.4-0.2
		s1,0.1,1.3,0.2s0.6,0.3,0.7,0.5s0.3,0.4,0.3,0.7c0,0.2,0.1,0.5,0.1,1v1.4c0,1,0,1.6,0.1,1.9s0.1,0.5,0.3,0.7h-1.1
		C92.3,124.5,92.2,124.2,92.2,123.9z M92.1,121.6c-0.4,0.2-1,0.3-1.7,0.4c-0.4,0.1-0.7,0.1-0.9,0.2s-0.3,0.2-0.4,0.3
		S89,122.8,89,123c0,0.3,0.1,0.5,0.3,0.7s0.5,0.3,0.9,0.3s0.8-0.1,1.1-0.3s0.5-0.4,0.7-0.7c0.1-0.2,0.2-0.6,0.2-1.1L92.1,121.6
		L92.1,121.6z"/>
	<path d="M94.8,124.7v-6.2h0.9v0.9c0.2-0.4,0.5-0.7,0.7-0.9s0.4-0.2,0.7-0.2c0.4,0,0.7,0.1,1.1,0.3l-0.4,1c-0.3-0.2-0.5-0.2-0.8-0.2
		c-0.2,0-0.4,0.1-0.6,0.2s-0.3,0.3-0.4,0.6c-0.1,0.4-0.2,0.8-0.2,1.2v3.3C95.8,124.7,94.8,124.7,94.8,124.7z"/>
	<path d="M102.3,124.7v-8.6h5.8v1h-4.7v2.7h4v1h-4v3.9H102.3z"/>
	<path d="M115.7,121.7l1.1,0.3c-0.2,0.9-0.7,1.6-1.3,2.1s-1.4,0.7-2.3,0.7s-1.7-0.2-2.3-0.6s-1-0.9-1.3-1.6s-0.5-1.5-0.5-2.3
		c0-0.9,0.2-1.7,0.5-2.3s0.8-1.2,1.5-1.5s1.3-0.5,2.1-0.5c0.9,0,1.6,0.2,2.2,0.7s1,1.1,1.2,1.8l-1.1,0.3c-0.2-0.6-0.5-1.1-0.9-1.4
		s-0.9-0.4-1.4-0.4c-0.7,0-1.2,0.2-1.7,0.5s-0.8,0.7-0.9,1.3s-0.3,1.1-0.3,1.6c0,0.7,0.1,1.4,0.3,1.9s0.5,1,1,1.2s0.9,0.4,1.5,0.4
		s1.2-0.2,1.6-0.6S115.5,122.4,115.7,121.7z"/>
	<path d="M117.3,124.7l3.3-8.6h1.2l3.5,8.6H124l-1-2.6h-3.6l-0.9,2.6H117.3z M119.8,121.2h2.9l-0.9-2.4c-0.3-0.7-0.5-1.3-0.6-1.8
		c-0.1,0.6-0.3,1.1-0.5,1.6L119.8,121.2z"/>
	<path d="M4.6,139.1l3.3-8.6h1.2l3.5,8.6h-1.3l-1-2.6H6.7l-0.9,2.6H4.6z M7,135.6h2.9l-0.8-2.4c-0.3-0.7-0.5-1.3-0.6-1.8
		C8.4,132,8.2,132.5,8,133L7,135.6z"/>
	<path d="M17.5,139.1v-0.9c-0.5,0.7-1.1,1.1-2,1.1c-0.4,0-0.7-0.1-1-0.2s-0.6-0.3-0.7-0.5s-0.3-0.5-0.3-0.8c0-0.2-0.1-0.5-0.1-1
		v-3.9h1.1v3.5c0,0.6,0,0.9,0.1,1.1c0.1,0.3,0.2,0.5,0.4,0.7s0.5,0.2,0.8,0.2s0.6-0.1,0.9-0.2s0.5-0.4,0.6-0.7
		c0.1-0.3,0.2-0.7,0.2-1.2V133h1.1v6.2h-1.1V139.1z"/>
	<path d="M24.1,139.1v-0.8c-0.4,0.6-1,0.9-1.7,0.9c-0.5,0-1-0.1-1.4-0.4s-0.7-0.7-1-1.1s-0.3-1.1-0.3-1.7c0-0.6,0.1-1.2,0.3-1.7
		s0.5-0.9,0.9-1.2c0.4-0.3,0.9-0.4,1.4-0.4c0.4,0,0.7,0.1,1,0.2c0.3,0.1,0.5,0.4,0.7,0.6v-3.1h1v8.6h-0.9V139.1z M20.8,136
		c0,0.8,0.2,1.4,0.5,1.8s0.7,0.6,1.2,0.6s0.9-0.2,1.2-0.6s0.5-1,0.5-1.7c0-0.9-0.2-1.5-0.5-1.9s-0.7-0.6-1.2-0.6s-0.9,0.2-1.2,0.6
		C21,134.6,20.8,135.2,20.8,136z"/>
	<path d="M26.7,131.7v-1.2h1.1v1.2H26.7z M26.7,139.1v-6.2h1.1v6.2H26.7z"/>
	<path d="M31.7,138.2l0.2,0.9c-0.3,0.1-0.6,0.1-0.8,0.1c-0.4,0-0.7-0.1-0.9-0.2s-0.4-0.3-0.4-0.5s-0.1-0.6-0.1-1.2v-3.6h-0.8v-0.8
		h0.7v-1.5l1-0.6v2.2h1.1v0.8h-1.1v3.6c0,0.3,0,0.5,0.1,0.6s0.1,0.2,0.2,0.2s0.2,0.1,0.4,0.1C31.4,138.2,31.5,138.2,31.7,138.2z"/>
	<path d="M36.1,141.5v-8.6h1v0.8c0.2-0.3,0.5-0.6,0.8-0.7c0.3-0.1,0.6-0.2,1-0.2c0.5,0,1,0.1,1.4,0.4s0.7,0.7,0.9,1.2s0.3,1,0.3,1.6
		s-0.1,1.2-0.3,1.7s-0.6,0.9-1,1.2s-0.9,0.4-1.4,0.4c-0.4,0-0.7-0.1-0.9-0.2s-0.5-0.3-0.7-0.6v3H36.1z M37,136
		c0,0.8,0.2,1.4,0.5,1.8s0.7,0.6,1.2,0.6s0.9-0.2,1.2-0.6s0.5-1,0.5-1.8s-0.2-1.4-0.5-1.8s-0.7-0.6-1.2-0.6c-0.4,0-0.8,0.2-1.2,0.6
		S37,135.2,37,136z"/>
	<path d="M46.8,138.3c-0.4,0.3-0.8,0.6-1.1,0.7s-0.7,0.2-1.2,0.2c-0.7,0-1.2-0.2-1.6-0.5s-0.6-0.8-0.6-1.3c0-0.3,0.1-0.6,0.2-0.8
		s0.3-0.5,0.5-0.6s0.5-0.3,0.8-0.3c0.2-0.1,0.5-0.1,0.9-0.2c0.9-0.1,1.5-0.2,1.9-0.4c0-0.1,0-0.2,0-0.3c0-0.4-0.1-0.7-0.3-0.9
		c-0.3-0.2-0.7-0.4-1.2-0.4s-0.9,0.1-1.1,0.3c-0.2,0.2-0.4,0.5-0.5,0.9l-1-0.1c0.1-0.4,0.2-0.8,0.5-1.1c0.3-0.3,0.5-0.5,0.9-0.6
		c0.4-0.1,0.9-0.2,1.4-0.2s1,0.1,1.3,0.2c0.3,0.1,0.6,0.3,0.7,0.5s0.3,0.4,0.3,0.7c0,0.2,0.1,0.5,0.1,1v1.4c0,1,0,1.6,0.1,1.9
		s0.1,0.5,0.3,0.7h-1.1C46.9,138.9,46.8,138.6,46.8,138.3z M46.7,136c-0.4,0.2-1,0.3-1.7,0.4c-0.4,0.1-0.7,0.1-0.9,0.2
		s-0.3,0.2-0.4,0.3s-0.1,0.3-0.1,0.5c0,0.3,0.1,0.5,0.3,0.7s0.5,0.3,0.9,0.3s0.8-0.1,1.1-0.3s0.5-0.4,0.7-0.7
		c0.1-0.2,0.2-0.6,0.2-1.1L46.7,136L46.7,136z"/>
	<path d="M49.4,139.1v-6.2h0.9v0.9c0.2-0.4,0.5-0.7,0.7-0.9c0.2-0.2,0.4-0.2,0.7-0.2c0.4,0,0.7,0.1,1.1,0.3l-0.4,1
		c-0.3-0.2-0.5-0.2-0.8-0.2c-0.2,0-0.4,0.1-0.6,0.2c-0.2,0.1-0.3,0.3-0.4,0.6c-0.1,0.4-0.2,0.8-0.2,1.2v3.3L49.4,139.1L49.4,139.1z"
		/>
	<path d="M56.9,139.1v-8.6h6.2v1H58v2.6h4.8v1H58v2.9h5.3v1h-6.4V139.1z"/>
	<path d="M64.7,139.1v-6.2h0.9v0.9c0.2-0.4,0.5-0.7,0.7-0.9c0.2-0.2,0.4-0.2,0.7-0.2c0.4,0,0.7,0.1,1.1,0.3l-0.4,1
		c-0.3-0.2-0.5-0.2-0.8-0.2c-0.2,0-0.4,0.1-0.6,0.2c-0.2,0.1-0.3,0.3-0.4,0.6c-0.1,0.4-0.2,0.8-0.2,1.2v3.3L64.7,139.1L64.7,139.1z"
		/>
	<path d="M68.7,139.1v-6.2h0.9v0.9c0.5-0.7,1.1-1,2-1c0.4,0,0.7,0.1,1,0.2c0.3,0.1,0.5,0.3,0.7,0.5s0.3,0.5,0.3,0.8
		c0,0.2,0.1,0.5,0.1,1v3.8h-1.1v-3.8c0-0.4,0-0.8-0.1-1s-0.2-0.4-0.4-0.5c-0.2-0.1-0.5-0.2-0.7-0.2c-0.4,0-0.8,0.1-1.2,0.4
		s-0.5,0.8-0.5,1.6v3.4h-1V139.1z"/>
	<path d="M75,137.2l1-0.2c0.1,0.4,0.2,0.7,0.5,1s0.6,0.3,1.1,0.3s0.8-0.1,1.1-0.3s0.4-0.4,0.4-0.7c0-0.2-0.1-0.4-0.3-0.6
		c-0.1-0.1-0.5-0.2-1.1-0.4c-0.8-0.2-1.3-0.4-1.6-0.5s-0.5-0.3-0.7-0.6s-0.2-0.5-0.2-0.8s0.1-0.5,0.2-0.8s0.3-0.4,0.5-0.6
		c0.2-0.1,0.4-0.2,0.7-0.3s0.6-0.1,0.9-0.1c0.5,0,0.9,0.1,1.3,0.2c0.4,0.1,0.6,0.3,0.8,0.6c0.2,0.3,0.3,0.6,0.4,1l-1,0.1
		c0-0.3-0.2-0.6-0.4-0.8c-0.2-0.2-0.5-0.3-1-0.3s-0.8,0.1-1,0.2c-0.2,0.1-0.3,0.3-0.3,0.6c0,0.1,0,0.3,0.1,0.4s0.2,0.2,0.4,0.3
		c0.1,0,0.4,0.1,0.9,0.3c0.7,0.2,1.3,0.4,1.6,0.5s0.5,0.3,0.7,0.6s0.3,0.5,0.3,0.9s-0.1,0.7-0.3,1s-0.5,0.6-0.9,0.7
		s-0.8,0.3-1.3,0.3c-0.8,0-1.4-0.2-1.8-0.5S75.1,137.9,75,137.2z"/>
	<path d="M83.7,138.2l0.2,0.9c-0.3,0.1-0.6,0.1-0.8,0.1c-0.4,0-0.7-0.1-0.9-0.2s-0.4-0.3-0.4-0.5s-0.1-0.6-0.1-1.2v-3.6h-0.8v-0.8
		h0.7v-1.5l1-0.6v2.2h1.1v0.8h-1.1v3.6c0,0.3,0,0.5,0.1,0.6s0.1,0.2,0.2,0.2s0.2,0.1,0.4,0.1C83.4,138.2,83.5,138.2,83.7,138.2z"/>
	<path d="M93,138.1c-0.3,0.4-0.7,0.7-1.1,0.9s-0.9,0.3-1.3,0.3c-0.9,0-1.6-0.3-2.1-0.9c-0.4-0.5-0.6-1-0.6-1.6c0-0.5,0.2-1,0.5-1.4
		s0.9-0.8,1.5-1.1c-0.4-0.4-0.6-0.8-0.8-1.1c-0.2-0.3-0.2-0.5-0.2-0.8c0-0.5,0.2-1,0.6-1.3s0.9-0.6,1.5-0.6s1.1,0.2,1.4,0.5
		s0.6,0.8,0.6,1.3c0,0.8-0.5,1.5-1.6,2.1l1.5,2c0.2-0.3,0.3-0.7,0.4-1.2l1.1,0.2c-0.2,0.8-0.4,1.4-0.8,1.9c0.4,0.5,0.8,1,1.3,1.3
		l-0.7,0.8C93.9,139,93.4,138.6,93,138.1z M92.3,137.3l-1.9-2.4c-0.6,0.3-1,0.7-1.2,0.9s-0.3,0.6-0.3,0.9c0,0.3,0.1,0.7,0.4,1.1
		s0.7,0.6,1.2,0.6c0.3,0,0.6-0.1,1-0.3S92.1,137.6,92.3,137.3z M90.8,133.6c0.5-0.3,0.8-0.5,0.9-0.7s0.2-0.4,0.2-0.7
		c0-0.3-0.1-0.5-0.3-0.7s-0.4-0.3-0.7-0.3c-0.3,0-0.5,0.1-0.7,0.3c-0.2,0.2-0.3,0.4-0.3,0.7c0,0.1,0,0.3,0.1,0.4
		c0.1,0.1,0.2,0.3,0.3,0.5L90.8,133.6z"/>
	<path d="M101.8,139.1v-3.6l-3.3-5h1.4l1.7,2.6c0.3,0.5,0.6,1,0.9,1.5c0.3-0.4,0.6-1,0.9-1.5l1.7-2.5h1.3l-3.4,5v3.6h-1.2V139.1z"/>
	<path d="M105.7,136c0-1.2,0.3-2,1-2.6c0.5-0.5,1.2-0.7,2-0.7c0.9,0,1.6,0.3,2.1,0.8s0.8,1.3,0.8,2.3c0,0.8-0.1,1.4-0.4,1.9
		s-0.6,0.8-1,1.1s-1,0.4-1.5,0.4c-0.9,0-1.6-0.3-2.1-0.8S105.7,137,105.7,136z M106.8,136c0,0.8,0.2,1.4,0.5,1.8s0.8,0.6,1.3,0.6
		s1-0.2,1.3-0.6s0.5-1,0.5-1.8s-0.2-1.4-0.5-1.7s-0.8-0.6-1.3-0.6s-1,0.2-1.3,0.6S106.8,135.2,106.8,136z"/>
	<path d="M116.9,139.1v-0.9c-0.5,0.7-1.1,1.1-2,1.1c-0.4,0-0.7-0.1-1-0.2s-0.6-0.3-0.7-0.5s-0.3-0.5-0.3-0.8c0-0.2-0.1-0.5-0.1-1
		v-3.9h1.1v3.5c0,0.6,0,0.9,0.1,1.1c0.1,0.3,0.2,0.5,0.4,0.7s0.5,0.2,0.8,0.2s0.6-0.1,0.9-0.2s0.5-0.4,0.6-0.7s0.2-0.7,0.2-1.2V133
		h1.1v6.2h-1.1V139.1z"/>
	<path d="M119.5,139.1v-6.2h0.9v0.9c0.5-0.7,1.1-1,2-1c0.4,0,0.7,0.1,1,0.2c0.3,0.1,0.5,0.3,0.7,0.5s0.3,0.5,0.3,0.8
		c0,0.2,0.1,0.5,0.1,1v3.8h-1.1v-3.8c0-0.4,0-0.8-0.1-1s-0.2-0.4-0.4-0.5c-0.2-0.1-0.5-0.2-0.7-0.2c-0.4,0-0.8,0.1-1.2,0.4
		s-0.5,0.8-0.5,1.6v3.4h-1V139.1z"/>
	<path d="M125.9,139.6l1,0.2c0,0.3,0.2,0.5,0.4,0.7c0.3,0.2,0.6,0.3,1.1,0.3s0.9-0.1,1.1-0.3c0.2-0.2,0.4-0.5,0.5-0.8
		c0.1-0.2,0.1-0.7,0.1-1.4c-0.5,0.5-1,0.8-1.7,0.8c-0.9,0-1.5-0.3-2-0.9s-0.7-1.4-0.7-2.2c0-0.6,0.1-1.1,0.3-1.6s0.5-0.9,0.9-1.2
		c0.4-0.3,0.9-0.4,1.4-0.4c0.7,0,1.3,0.3,1.8,0.9v-0.8h1v5.4c0,1-0.1,1.7-0.3,2.1s-0.5,0.7-0.9,1c-0.4,0.3-1,0.4-1.6,0.4
		c-0.7,0-1.3-0.2-1.8-0.5S125.9,140.3,125.9,139.6z M126.8,135.9c0,0.8,0.2,1.4,0.5,1.8s0.7,0.6,1.2,0.6s0.9-0.2,1.2-0.6
		s0.5-1,0.5-1.8s-0.2-1.3-0.5-1.7s-0.7-0.6-1.2-0.6s-0.9,0.2-1.2,0.6S126.8,135.1,126.8,135.9z"/>
</g>
<g>
	<path d="M304.8,118.3l1.1-0.1c0.1,0.4,0.2,0.8,0.4,1.1s0.5,0.5,0.9,0.7s0.8,0.3,1.3,0.3c0.4,0,0.8-0.1,1.1-0.2
		c0.3-0.1,0.6-0.3,0.7-0.5s0.2-0.5,0.2-0.7c0-0.3-0.1-0.5-0.2-0.7s-0.4-0.4-0.8-0.5c-0.2-0.1-0.7-0.2-1.5-0.4
		c-0.8-0.2-1.3-0.4-1.7-0.5c-0.4-0.2-0.7-0.5-0.9-0.8s-0.3-0.7-0.3-1.1s0.1-0.8,0.4-1.2c0.3-0.4,0.6-0.7,1.1-0.9s1-0.3,1.6-0.3
		s1.2,0.1,1.7,0.3s0.9,0.5,1.1,0.9c0.2,0.4,0.4,0.8,0.4,1.4l-1.1,0.1c-0.1-0.5-0.3-1-0.6-1.2c-0.3-0.2-0.8-0.4-1.5-0.4
		c-0.7,0-1.2,0.1-1.5,0.4c-0.3,0.3-0.5,0.6-0.5,0.9s0.1,0.6,0.3,0.8c0.2,0.2,0.8,0.4,1.7,0.6s1.6,0.4,1.9,0.5
		c0.5,0.2,0.9,0.5,1.1,0.9c0.2,0.4,0.4,0.8,0.4,1.2c0,0.5-0.1,0.9-0.4,1.3c-0.3,0.4-0.6,0.7-1.1,0.9s-1,0.3-1.7,0.3
		c-0.8,0-1.4-0.1-2-0.3s-0.9-0.6-1.2-1C304.9,119.7,304.9,118.9,304.8,118.3z"/>
	<path d="M317.1,121.1v-0.9c-0.5,0.7-1.1,1.1-2,1.1c-0.4,0-0.7-0.1-1-0.2c-0.3-0.1-0.6-0.3-0.7-0.5c-0.1-0.2-0.3-0.5-0.3-0.8
		c0-0.2-0.1-0.5-0.1-1v-3.9h1.1v3.5c0,0.6,0,0.9,0.1,1.1c0.1,0.3,0.2,0.5,0.4,0.7c0.2,0.2,0.5,0.2,0.8,0.2c0.3,0,0.6-0.1,0.9-0.2
		c0.3-0.1,0.5-0.4,0.6-0.7c0.1-0.3,0.2-0.7,0.2-1.2V115h1.1v6.2h-1.1V121.1z"/>
	<path d="M319.8,121.1v-6.2h0.9v0.9c0.2-0.4,0.5-0.7,0.7-0.9s0.4-0.2,0.7-0.2c0.4,0,0.7,0.1,1.1,0.3l-0.4,1
		c-0.3-0.2-0.5-0.2-0.8-0.2c-0.2,0-0.4,0.1-0.6,0.2s-0.3,0.3-0.4,0.6c-0.1,0.4-0.2,0.8-0.2,1.2v3.3L319.8,121.1L319.8,121.1z"/>
	<path d="M325.5,121.1l-2.4-6.2h1.1l1.3,3.7c0.1,0.4,0.3,0.8,0.4,1.3c0.1-0.3,0.2-0.7,0.4-1.2l1.4-3.8h1.1l-2.4,6.2H325.5z"/>
	<path d="M334,119.1l1.1,0.1c-0.2,0.6-0.5,1.1-1,1.5s-1.1,0.5-1.8,0.5c-0.9,0-1.6-0.3-2.2-0.8c-0.6-0.5-0.8-1.3-0.8-2.4
		c0-1,0.3-1.9,0.8-2.4s1.2-0.9,2.1-0.9c0.8,0,1.5,0.3,2,0.8s0.8,1.4,0.8,2.4c0,0.1,0,0.2,0,0.3h-4.6c0,0.7,0.2,1.2,0.6,1.6
		c0.4,0.4,0.8,0.5,1.3,0.5c0.4,0,0.7-0.1,1-0.3S333.9,119.5,334,119.1z M330.5,117.3h3.5c0-0.5-0.2-0.9-0.4-1.2
		c-0.3-0.4-0.8-0.6-1.3-0.6s-0.9,0.2-1.2,0.5C330.9,116.3,330.5,116.8,330.5,117.3z"/>
	<path d="M336.5,113.7v-1.2h1.1v1.2H336.5z M336.5,121.1v-6.2h1.1v6.2H336.5z"/>
	<path d="M339.1,121.1v-8.6h1.1v8.6H339.1z"/>
	<path d="M341.8,121.1v-8.6h1.1v8.6H341.8z"/>
	<path d="M348.5,120.3c-0.4,0.3-0.8,0.6-1.1,0.7s-0.7,0.2-1.2,0.2c-0.7,0-1.2-0.2-1.6-0.5c-0.4-0.3-0.6-0.8-0.6-1.3
		c0-0.3,0.1-0.6,0.2-0.8c0.1-0.2,0.3-0.5,0.5-0.6c0.2-0.1,0.5-0.3,0.8-0.3c0.2-0.1,0.5-0.1,0.9-0.2c0.9-0.1,1.5-0.2,1.9-0.4
		c0-0.1,0-0.2,0-0.3c0-0.4-0.1-0.7-0.3-0.9c-0.3-0.2-0.7-0.4-1.2-0.4s-0.9,0.1-1.1,0.3c-0.2,0.2-0.4,0.5-0.5,0.9l-1-0.1
		c0.1-0.4,0.2-0.8,0.5-1.1c0.3-0.3,0.5-0.5,0.9-0.6s0.9-0.2,1.4-0.2s1,0.1,1.3,0.2c0.3,0.1,0.6,0.3,0.7,0.5s0.3,0.4,0.3,0.7
		c0,0.2,0.1,0.5,0.1,1v1.4c0,1,0,1.6,0.1,1.9s0.1,0.5,0.3,0.7h-1.1C348.6,120.8,348.5,120.6,348.5,120.3z M348.4,117.9
		c-0.4,0.2-1,0.3-1.7,0.4c-0.4,0.1-0.7,0.1-0.9,0.2s-0.3,0.2-0.4,0.3s-0.1,0.3-0.1,0.5c0,0.3,0.1,0.5,0.3,0.7
		c0.2,0.2,0.5,0.3,0.9,0.3c0.4,0,0.8-0.1,1.1-0.3c0.3-0.2,0.5-0.4,0.7-0.7c0.1-0.2,0.2-0.6,0.2-1.1v-0.3H348.4z"/>
	<path d="M351.1,121.1v-6.2h0.9v0.9c0.5-0.7,1.1-1,2-1c0.4,0,0.7,0.1,1,0.2c0.3,0.1,0.5,0.3,0.7,0.5c0.2,0.2,0.3,0.5,0.3,0.8
		c0,0.2,0.1,0.5,0.1,1v3.8H355v-3.8c0-0.4,0-0.8-0.1-1s-0.2-0.4-0.4-0.5c-0.2-0.1-0.5-0.2-0.7-0.2c-0.4,0-0.8,0.1-1.2,0.4
		c-0.4,0.3-0.5,0.8-0.5,1.6v3.4h-1V121.1z"/>
	<path d="M361.9,118.8l1,0.1c-0.1,0.7-0.4,1.3-0.9,1.7s-1,0.6-1.7,0.6c-0.9,0-1.5-0.3-2.1-0.8s-0.8-1.4-0.8-2.4
		c0-0.7,0.1-1.3,0.3-1.8c0.2-0.5,0.6-0.9,1-1.1s1-0.4,1.5-0.4c0.7,0,1.2,0.2,1.7,0.5s0.7,0.8,0.8,1.5l-1,0.2
		c-0.1-0.4-0.3-0.7-0.5-0.9c-0.2-0.2-0.5-0.3-0.9-0.3c-0.5,0-1,0.2-1.3,0.6c-0.3,0.4-0.5,1-0.5,1.8s0.2,1.4,0.5,1.8
		c0.3,0.4,0.7,0.6,1.3,0.6c0.4,0,0.8-0.1,1-0.4S361.8,119.3,361.9,118.8z"/>
	<path d="M368.1,119.1l1.1,0.1c-0.2,0.6-0.5,1.1-1,1.5s-1.1,0.5-1.8,0.5c-0.9,0-1.6-0.3-2.2-0.8c-0.6-0.5-0.8-1.3-0.8-2.4
		c0-1,0.3-1.9,0.8-2.4s1.2-0.9,2.1-0.9c0.8,0,1.5,0.3,2,0.8s0.8,1.4,0.8,2.4c0,0.1,0,0.2,0,0.3h-4.6c0,0.7,0.2,1.2,0.6,1.6
		c0.4,0.4,0.8,0.5,1.3,0.5c0.4,0,0.7-0.1,1-0.3C367.7,119.8,367.9,119.5,368.1,119.1z M364.6,117.3h3.5c0-0.5-0.2-0.9-0.4-1.2
		c-0.3-0.4-0.8-0.6-1.3-0.6s-0.9,0.2-1.2,0.5C364.9,116.3,364.6,116.8,364.6,117.3z"/>
	<path d="M373.8,123.4v-8.6h1v0.8c0.2-0.3,0.5-0.6,0.8-0.7c0.3-0.1,0.6-0.2,1-0.2c0.5,0,1,0.1,1.4,0.4s0.7,0.7,0.9,1.2
		s0.3,1,0.3,1.6s-0.1,1.2-0.3,1.7s-0.6,0.9-1,1.2s-0.9,0.4-1.4,0.4c-0.4,0-0.7-0.1-0.9-0.2c-0.2-0.1-0.5-0.3-0.7-0.6v3L373.8,123.4
		L373.8,123.4z M374.8,118c0,0.8,0.2,1.4,0.5,1.8c0.3,0.4,0.7,0.6,1.2,0.6s0.9-0.2,1.2-0.6s0.5-1,0.5-1.8s-0.2-1.4-0.5-1.8
		c-0.3-0.4-0.7-0.6-1.2-0.6c-0.4,0-0.8,0.2-1.2,0.6S374.8,117.2,374.8,118z"/>
	<path d="M384.5,120.3c-0.4,0.3-0.8,0.6-1.1,0.7s-0.7,0.2-1.2,0.2c-0.7,0-1.2-0.2-1.6-0.5c-0.4-0.3-0.6-0.8-0.6-1.3
		c0-0.3,0.1-0.6,0.2-0.8c0.1-0.2,0.3-0.5,0.5-0.6c0.2-0.1,0.5-0.3,0.8-0.3c0.2-0.1,0.5-0.1,0.9-0.2c0.9-0.1,1.5-0.2,1.9-0.4
		c0-0.1,0-0.2,0-0.3c0-0.4-0.1-0.7-0.3-0.9c-0.3-0.2-0.7-0.4-1.2-0.4s-0.9,0.1-1.1,0.3c-0.2,0.2-0.4,0.5-0.5,0.9l-1-0.1
		c0.1-0.4,0.2-0.8,0.5-1.1c0.3-0.3,0.5-0.5,0.9-0.6s0.9-0.2,1.4-0.2s1,0.1,1.3,0.2c0.3,0.1,0.6,0.3,0.7,0.5s0.3,0.4,0.3,0.7
		c0,0.2,0.1,0.5,0.1,1v1.4c0,1,0,1.6,0.1,1.9s0.1,0.5,0.3,0.7h-1.1C384.6,120.8,384.6,120.6,384.5,120.3z M384.4,117.9
		c-0.4,0.2-1,0.3-1.7,0.4c-0.4,0.1-0.7,0.1-0.9,0.2s-0.3,0.2-0.4,0.3s-0.1,0.3-0.1,0.5c0,0.3,0.1,0.5,0.3,0.7
		c0.2,0.2,0.5,0.3,0.9,0.3s0.8-0.1,1.1-0.3c0.3-0.2,0.5-0.4,0.7-0.7c0.1-0.2,0.2-0.6,0.2-1.1v-0.3H384.4z"/>
	<path d="M387.1,121.1v-6.2h0.9v0.9c0.2-0.4,0.5-0.7,0.7-0.9c0.2-0.2,0.4-0.2,0.7-0.2c0.4,0,0.7,0.1,1.1,0.3l-0.4,1
		c-0.3-0.2-0.5-0.2-0.8-0.2c-0.2,0-0.4,0.1-0.6,0.2c-0.2,0.1-0.3,0.3-0.4,0.6c-0.1,0.4-0.2,0.8-0.2,1.2v3.3L387.1,121.1L387.1,121.1
		z"/>
	<path d="M304,135.5v-8.6h1.1v3.5h4.6v-3.5h1.1v8.6h-1.1v-4h-4.5v4H304z"/>
	<path d="M312.1,132.3c0-1.2,0.3-2,1-2.6c0.5-0.5,1.2-0.7,2-0.7c0.9,0,1.6,0.3,2.1,0.8s0.8,1.3,0.8,2.3c0,0.8-0.1,1.4-0.4,1.9
		c-0.3,0.5-0.6,0.8-1,1.1s-1,0.4-1.5,0.4c-0.9,0-1.6-0.3-2.1-0.8S312.1,133.4,312.1,132.3z M313.1,132.3c0,0.8,0.2,1.4,0.5,1.8
		c0.3,0.4,0.8,0.6,1.3,0.6s1-0.2,1.3-0.6s0.5-1,0.5-1.8s-0.2-1.4-0.5-1.7s-0.8-0.6-1.3-0.6s-1,0.2-1.3,0.6
		C313.4,131,313.1,131.5,313.1,132.3z"/>
	<path d="M323.3,135.5v-0.9c-0.5,0.7-1.1,1.1-2,1.1c-0.4,0-0.7-0.1-1-0.2s-0.6-0.3-0.7-0.5c-0.1-0.2-0.3-0.5-0.3-0.8
		c0-0.2-0.1-0.5-0.1-1v-4h1.1v3.5c0,0.6,0,0.9,0.1,1.1c0.1,0.3,0.2,0.5,0.4,0.7c0.2,0.2,0.5,0.2,0.8,0.2c0.3,0,0.6-0.1,0.9-0.2
		c0.3-0.1,0.5-0.4,0.6-0.7c0.1-0.3,0.2-0.7,0.2-1.2v-3.4h1.1v6.2L323.3,135.5L323.3,135.5z"/>
	<path d="M325.5,133.6l1-0.2c0.1,0.4,0.2,0.7,0.5,1c0.3,0.3,0.6,0.3,1.1,0.3s0.8-0.1,1.1-0.3c0.3-0.2,0.4-0.4,0.4-0.7
		c0-0.2-0.1-0.4-0.3-0.6c-0.1-0.1-0.5-0.2-1.1-0.4c-0.8-0.2-1.3-0.4-1.6-0.5c-0.3-0.1-0.5-0.3-0.7-0.6c-0.2-0.3-0.2-0.5-0.2-0.8
		s0.1-0.5,0.2-0.8s0.3-0.4,0.5-0.6c0.2-0.1,0.4-0.2,0.7-0.3c0.3-0.1,0.6-0.1,0.9-0.1c0.5,0,0.9,0.1,1.3,0.2s0.6,0.3,0.8,0.6
		c0.2,0.3,0.3,0.6,0.4,1l-1,0.1c0-0.3-0.2-0.6-0.4-0.8c-0.2-0.2-0.5-0.3-1-0.3s-0.8,0.1-1,0.2c-0.2,0.1-0.3,0.3-0.3,0.6
		c0,0.1,0,0.3,0.1,0.4s0.2,0.2,0.4,0.3c0.1,0,0.4,0.1,0.9,0.3c0.7,0.2,1.3,0.4,1.6,0.5s0.5,0.3,0.7,0.6c0.2,0.3,0.3,0.5,0.3,0.9
		s-0.1,0.7-0.3,1c-0.2,0.3-0.5,0.6-0.9,0.7c-0.4,0.1-0.8,0.3-1.3,0.3c-0.8,0-1.4-0.2-1.8-0.5S325.5,134.3,325.5,133.6z"/>
	<path d="M336.1,133.5l1.1,0.1c-0.2,0.6-0.5,1.1-1,1.5s-1.1,0.5-1.8,0.5c-0.9,0-1.6-0.3-2.2-0.8s-0.8-1.3-0.8-2.4
		c0-1,0.3-1.9,0.8-2.4s1.2-0.9,2.1-0.9c0.8,0,1.5,0.3,2,0.8s0.8,1.4,0.8,2.4c0,0.1,0,0.2,0,0.3h-4.6c0,0.7,0.2,1.2,0.6,1.6
		s0.8,0.5,1.3,0.5c0.4,0,0.7-0.1,1-0.3C335.8,134.2,336,133.9,336.1,133.5z M332.6,131.7h3.5c0-0.5-0.2-0.9-0.4-1.2
		c-0.3-0.4-0.8-0.6-1.3-0.6s-0.9,0.2-1.2,0.5S332.6,131.2,332.6,131.7z"/>
	<path d="M340.9,135.5v-7.6h-2.8v-1h6.8v1h-2.8v7.6H340.9z"/>
	<path d="M344.1,132.3c0-1.2,0.3-2,1-2.6c0.5-0.5,1.2-0.7,2-0.7c0.9,0,1.6,0.3,2.1,0.8s0.8,1.3,0.8,2.3c0,0.8-0.1,1.4-0.4,1.9
		c-0.3,0.5-0.6,0.8-1,1.1s-1,0.4-1.5,0.4c-0.9,0-1.6-0.3-2.1-0.8S344.1,133.4,344.1,132.3z M345.3,132.3c0,0.8,0.2,1.4,0.5,1.8
		s0.8,0.6,1.3,0.6s1-0.2,1.3-0.6c0.3-0.4,0.5-1,0.5-1.8s-0.2-1.4-0.5-1.7c-0.3-0.3-0.8-0.6-1.3-0.6s-1,0.2-1.3,0.6
		S345.3,131.5,345.3,132.3z"/>
	<path d="M351.1,135.5v-8.6h1.1v4.9l2.5-2.5h1.4l-2.4,2.3l2.6,3.9H355l-2.1-3.2l-0.7,0.7v2.5L351.1,135.5L351.1,135.5z"/>
	<path d="M361.5,133.5l1.1,0.1c-0.2,0.6-0.5,1.1-1,1.5s-1.1,0.5-1.8,0.5c-0.9,0-1.6-0.3-2.2-0.8c-0.6-0.5-0.8-1.3-0.8-2.4
		c0-1,0.3-1.9,0.8-2.4s1.2-0.9,2.1-0.9c0.8,0,1.5,0.3,2,0.8s0.8,1.4,0.8,2.4c0,0.1,0,0.2,0,0.3h-4.6c0,0.7,0.2,1.2,0.6,1.6
		c0.4,0.4,0.8,0.5,1.3,0.5c0.4,0,0.7-0.1,1-0.3S361.3,133.9,361.5,133.5z M358,131.7h3.5c0-0.5-0.2-0.9-0.4-1.2
		c-0.3-0.4-0.8-0.6-1.3-0.6s-0.9,0.2-1.2,0.5C358.3,130.7,358.1,131.2,358,131.7z"/>
	<path d="M363.9,135.5v-6.3h0.9v0.9c0.5-0.7,1.1-1,2-1c0.4,0,0.7,0.1,1,0.2c0.3,0.1,0.5,0.3,0.7,0.5c0.2,0.2,0.3,0.5,0.3,0.8
		c0,0.2,0.1,0.5,0.1,1v3.8h-1.1v-3.8c0-0.4,0-0.8-0.1-1c-0.1-0.2-0.2-0.4-0.4-0.5s-0.5-0.2-0.7-0.2c-0.4,0-0.8,0.1-1.2,0.4
		s-0.5,0.8-0.5,1.6v3.4h-1V135.5z"/>
	<path d="M374,135.5v-8.6h1.1v7.6h4.2v1H374z"/>
	<path d="M382,135.5v-7.6h-2.8v-1h6.8v1h-2.8v7.6H382z"/>
	<path d="M387.1,135.5v-8.6h3c0.7,0,1.2,0,1.5,0.1c0.5,0.1,0.9,0.3,1.3,0.6c0.5,0.4,0.8,0.9,1,1.5c0.2,0.6,0.3,1.3,0.3,2
		s-0.1,1.2-0.2,1.7s-0.3,0.9-0.6,1.3s-0.5,0.6-0.8,0.8c-0.3,0.2-0.6,0.3-1,0.4c-0.4,0.1-0.9,0.1-1.4,0.1h-3.1V135.5z M388.3,134.4
		h1.8c0.6,0,1-0.1,1.3-0.2c0.3-0.1,0.6-0.3,0.8-0.4c0.3-0.3,0.5-0.6,0.6-1.1c0.1-0.5,0.2-1,0.2-1.7c0-0.9-0.1-1.6-0.4-2.1
		c-0.3-0.5-0.7-0.8-1.1-1c-0.3-0.1-0.8-0.2-1.5-0.2h-1.8v6.7H388.3z"/>
	<path d="M309.3,149.9l3.3-8.6h1.2l3.5,8.6H316l-1-2.6h-3.6l-0.9,2.6H309.3z M311.8,146.3h2.9l-0.9-2.4c-0.3-0.7-0.5-1.3-0.6-1.8
		c-0.1,0.6-0.3,1.1-0.5,1.6L311.8,146.3z"/>
	<path d="M322.1,149.9V149c-0.5,0.7-1.1,1.1-2,1.1c-0.4,0-0.7-0.1-1-0.2c-0.3-0.1-0.6-0.3-0.7-0.5c-0.1-0.2-0.3-0.5-0.3-0.8
		c0-0.2-0.1-0.5-0.1-1v-3.9h1.1v3.5c0,0.6,0,0.9,0.1,1.1c0.1,0.3,0.2,0.5,0.4,0.7c0.2,0.2,0.5,0.2,0.8,0.2c0.3,0,0.6-0.1,0.9-0.2
		c0.3-0.1,0.5-0.4,0.6-0.7c0.1-0.3,0.2-0.7,0.2-1.2v-3.3h1.1v6.2h-1.1V149.9z"/>
	<path d="M328.8,149.9v-0.8c-0.4,0.6-1,0.9-1.7,0.9c-0.5,0-1-0.1-1.4-0.4s-0.7-0.7-1-1.1c-0.3-0.4-0.3-1.1-0.3-1.7s0.1-1.2,0.3-1.7
		c0.2-0.5,0.5-0.9,0.9-1.2c0.4-0.3,0.9-0.4,1.4-0.4c0.4,0,0.7,0.1,1,0.2c0.3,0.1,0.5,0.4,0.7,0.6v-3.1h1v8.6h-0.9V149.9z
		 M325.5,146.7c0,0.8,0.2,1.4,0.5,1.8c0.3,0.4,0.7,0.6,1.2,0.6s0.9-0.2,1.2-0.6c0.3-0.4,0.5-1,0.5-1.7c0-0.9-0.2-1.5-0.5-1.9
		s-0.7-0.6-1.2-0.6s-0.9,0.2-1.2,0.6C325.6,145.3,325.5,145.9,325.5,146.7z"/>
	<path d="M331.5,142.5v-1.2h1.1v1.2H331.5z M331.5,149.9v-6.2h1.1v6.2H331.5z"/>
	<path d="M336.4,148.9l0.2,0.9c-0.3,0.1-0.6,0.1-0.8,0.1c-0.4,0-0.7-0.1-0.9-0.2s-0.4-0.3-0.4-0.5s-0.1-0.6-0.1-1.2v-3.6h-0.8v-0.8
		h0.8v-1.5l1-0.6v2.2h1.1v0.8h-1.1v3.6c0,0.3,0,0.5,0.1,0.6c0.1,0.1,0.1,0.2,0.2,0.2s0.2,0.1,0.4,0.1
		C336.1,149,336.1,148.9,336.4,148.9z"/>
	<path d="M340.8,152.2v-8.6h1v0.8c0.2-0.3,0.5-0.6,0.8-0.7c0.3-0.1,0.6-0.2,1-0.2c0.5,0,1,0.1,1.4,0.4c0.4,0.3,0.7,0.7,0.9,1.2
		s0.3,1,0.3,1.6s-0.1,1.2-0.3,1.7s-0.6,0.9-1,1.2s-0.9,0.4-1.4,0.4c-0.4,0-0.7-0.1-0.9-0.2c-0.2-0.1-0.5-0.3-0.7-0.6v3L340.8,152.2
		L340.8,152.2z M341.8,146.8c0,0.8,0.2,1.4,0.5,1.8s0.7,0.6,1.2,0.6s0.9-0.2,1.2-0.6c0.3-0.4,0.5-1,0.5-1.8s-0.2-1.4-0.5-1.8
		c-0.3-0.4-0.7-0.6-1.2-0.6c-0.4,0-0.8,0.2-1.2,0.6S341.8,146,341.8,146.8z"/>
	<path d="M351.5,149.1c-0.4,0.3-0.8,0.6-1.1,0.7s-0.7,0.2-1.2,0.2c-0.7,0-1.2-0.2-1.6-0.5c-0.4-0.3-0.6-0.8-0.6-1.3
		c0-0.3,0.1-0.6,0.2-0.8c0.1-0.2,0.3-0.5,0.5-0.6c0.2-0.1,0.5-0.3,0.8-0.3c0.2-0.1,0.5-0.1,0.9-0.2c0.9-0.1,1.5-0.2,1.9-0.4
		c0-0.1,0-0.2,0-0.3c0-0.4-0.1-0.7-0.3-0.9c-0.3-0.2-0.7-0.4-1.2-0.4s-0.9,0.1-1.1,0.3c-0.2,0.2-0.4,0.5-0.5,0.9l-1-0.1
		c0.1-0.4,0.2-0.8,0.5-1.1c0.3-0.3,0.5-0.5,0.9-0.6s0.9-0.2,1.4-0.2s1,0.1,1.3,0.2c0.3,0.1,0.6,0.3,0.7,0.5s0.3,0.4,0.3,0.7
		c0,0.2,0.1,0.5,0.1,1v1.4c0,1,0,1.6,0.1,1.9s0.1,0.5,0.3,0.7h-1.1C351.6,149.6,351.6,149.4,351.5,149.1z M351.4,146.7
		c-0.4,0.2-1,0.3-1.7,0.4c-0.4,0.1-0.7,0.1-0.9,0.2s-0.3,0.2-0.4,0.3s-0.1,0.3-0.1,0.5c0,0.3,0.1,0.5,0.3,0.7
		c0.2,0.2,0.5,0.3,0.9,0.3c0.4,0,0.8-0.1,1.1-0.3c0.3-0.2,0.5-0.4,0.7-0.7c0.1-0.2,0.2-0.6,0.2-1.1v-0.3H351.4z"/>
	<path d="M354.1,149.9v-6.2h0.9v0.9c0.2-0.4,0.5-0.7,0.7-0.9c0.2-0.2,0.4-0.2,0.7-0.2c0.4,0,0.7,0.1,1.1,0.3l-0.4,1
		c-0.3-0.2-0.5-0.2-0.8-0.2c-0.2,0-0.4,0.1-0.6,0.2c-0.2,0.1-0.3,0.3-0.4,0.6c-0.1,0.4-0.2,0.8-0.2,1.2v3.3L354.1,149.9L354.1,149.9
		z"/>
	<path d="M361.6,149.9v-8.6h3.2c0.6,0,1,0,1.3,0.1c0.4,0.1,0.8,0.2,1.1,0.4c0.3,0.2,0.5,0.5,0.7,0.8c0.2,0.3,0.3,0.7,0.3,1.2
		c0,0.7-0.2,1.3-0.7,1.9s-1.3,0.8-2.5,0.8h-2.3v3.5L361.6,149.9L361.6,149.9z M362.6,145.3h2.2c0.7,0,1.3-0.1,1.6-0.4
		c0.3-0.3,0.5-0.7,0.5-1.2c0-0.4-0.1-0.7-0.3-0.9s-0.4-0.4-0.7-0.5c-0.2-0.1-0.5-0.1-1.1-0.1h-2.2V145.3z"/>
	<path d="M371.1,149.9l-2.3-8.6h1.2l1.3,5.6c0.1,0.6,0.3,1.2,0.4,1.8c0.2-0.9,0.3-1.4,0.4-1.6l1.6-5.8h1.4l1.2,4.3
		c0.3,1.1,0.5,2.1,0.7,3c0.1-0.5,0.3-1.2,0.4-1.9l1.3-5.5h1.1l-2.4,8.6h-1.1l-1.8-6.5c-0.2-0.5-0.2-0.9-0.3-1
		c-0.1,0.4-0.2,0.7-0.3,1l-1.8,6.5h-1V149.9z"/>
	<path d="M387.1,146.8l1.1,0.3c-0.2,0.9-0.7,1.6-1.3,2.1s-1.4,0.7-2.3,0.7c-0.9,0-1.7-0.2-2.3-0.6s-1-0.9-1.3-1.6
		c-0.3-0.7-0.5-1.5-0.5-2.3c0-0.9,0.2-1.7,0.5-2.3c0.3-0.6,0.8-1.2,1.5-1.5c0.7-0.3,1.3-0.5,2.1-0.5c0.9,0,1.6,0.2,2.2,0.7
		c0.6,0.5,1,1.1,1.2,1.8l-1.1,0.3c-0.2-0.6-0.5-1.1-0.9-1.4s-0.9-0.4-1.4-0.4c-0.7,0-1.2,0.2-1.7,0.5s-0.8,0.7-0.9,1.3
		s-0.3,1.1-0.3,1.6c0,0.7,0.1,1.4,0.3,1.9s0.5,1,1,1.2s0.9,0.4,1.5,0.4s1.2-0.2,1.6-0.6S386.9,147.6,387.1,146.8z"/>
</g>
<g>
	<path d="M4,348.1v-8.6h3.2c0.6,0,1,0,1.3,0.1c0.4,0.1,0.8,0.2,1.1,0.4s0.5,0.5,0.7,0.8s0.3,0.7,0.3,1.2c0,0.7-0.2,1.3-0.7,1.9
		s-1.3,0.8-2.5,0.8H5.3v3.5L4,348.1L4,348.1z M5.2,343.5h2.2c0.7,0,1.3-0.1,1.6-0.4s0.5-0.7,0.5-1.2c0-0.4-0.1-0.7-0.3-0.9
		s-0.4-0.4-0.7-0.5c-0.2-0.1-0.5-0.1-1.1-0.1H5.2V343.5z"/>
	<path d="M11.8,348.1v-8.6H13v8.6H11.8z"/>
	<path d="M18.7,347.3c-0.4,0.3-0.8,0.6-1.1,0.7s-0.7,0.2-1.2,0.2c-0.7,0-1.2-0.2-1.6-0.5s-0.6-0.8-0.6-1.3c0-0.3,0.1-0.6,0.2-0.8
		s0.3-0.5,0.5-0.6s0.5-0.3,0.8-0.3c0.2-0.1,0.5-0.1,0.9-0.2c0.9-0.1,1.5-0.2,1.9-0.4c0-0.1,0-0.2,0-0.3c0-0.4-0.1-0.7-0.3-0.9
		c-0.3-0.2-0.7-0.4-1.2-0.4s-0.9,0.1-1.1,0.3s-0.4,0.5-0.5,0.9l-1-0.1c0.1-0.4,0.2-0.8,0.5-1.1s0.5-0.5,0.9-0.6s0.9-0.2,1.4-0.2
		s1,0.1,1.3,0.2s0.6,0.3,0.7,0.5s0.3,0.4,0.3,0.7c0,0.2,0.1,0.5,0.1,1v1.4c0,1,0,1.6,0.1,1.9s0.1,0.5,0.3,0.7h-1.1
		C18.8,347.8,18.7,347.6,18.7,347.3z M18.5,344.9c-0.4,0.2-1,0.3-1.7,0.4c-0.4,0.1-0.7,0.1-0.9,0.2s-0.3,0.2-0.4,0.3
		s-0.1,0.3-0.1,0.5c0,0.3,0.1,0.5,0.3,0.7s0.5,0.3,0.9,0.3s0.8-0.1,1.1-0.3s0.5-0.4,0.7-0.7c0.1-0.2,0.2-0.6,0.2-1.1v-0.3H18.5z"/>
	<path d="M23.5,347.1l0.2,0.9c-0.3,0.1-0.6,0.1-0.8,0.1c-0.4,0-0.7-0.1-0.9-0.2s-0.4-0.3-0.4-0.5s-0.1-0.6-0.1-1.2v-3.6h-0.9v-0.8
		h0.8v-1.5l1-0.6v2.2h1.1v0.8h-1.1v3.6c0,0.3,0,0.5,0.1,0.6s0.1,0.2,0.2,0.2s0.2,0.1,0.4,0.1C23.3,347.2,23.3,347.1,23.5,347.1z"/>
	<path d="M28.8,346.1l1.1,0.1c-0.2,0.6-0.5,1.1-1,1.5s-1.1,0.5-1.8,0.5c-0.9,0-1.6-0.3-2.2-0.8s-0.8-1.3-0.8-2.4
		c0-1,0.3-1.9,0.8-2.4s1.2-0.9,2.1-0.9c0.8,0,1.5,0.3,2,0.8s0.8,1.4,0.8,2.4c0,0.1,0,0.2,0,0.3h-4.6c0,0.7,0.2,1.2,0.6,1.6
		s0.8,0.5,1.3,0.5c0.4,0,0.7-0.1,1-0.3S28.7,346.5,28.8,346.1z M25.3,344.3h3.5c0-0.5-0.2-0.9-0.4-1.2c-0.3-0.4-0.8-0.6-1.3-0.6
		s-0.9,0.2-1.2,0.5S25.5,343.8,25.3,344.3z"/>
	<path d="M31.5,348.1v-5.4h-0.9v-0.8h0.9v-0.7c0-0.4,0-0.7,0.1-0.9c0.1-0.3,0.3-0.5,0.5-0.7s0.6-0.3,1.1-0.3c0.3,0,0.6,0,1,0.1
		l-0.2,0.9c-0.2,0-0.4-0.1-0.6-0.1c-0.3,0-0.5,0.1-0.7,0.2s-0.2,0.4-0.2,0.8v0.6h1.2v0.8h-1.2v5.4h-1V348.1z"/>
	<path d="M34.3,344.9c0-1.2,0.3-2,1-2.6c0.5-0.5,1.2-0.7,2-0.7c0.9,0,1.6,0.3,2.1,0.8s0.8,1.3,0.8,2.3c0,0.8-0.1,1.4-0.4,1.9
		s-0.6,0.8-1,1.1s-1,0.4-1.5,0.4c-0.9,0-1.6-0.3-2.1-0.8S34.3,346,34.3,344.9z M35.3,344.9c0,0.8,0.2,1.4,0.5,1.8s0.8,0.6,1.3,0.6
		s1-0.2,1.3-0.6s0.5-1,0.5-1.8s-0.2-1.4-0.5-1.7s-0.8-0.6-1.3-0.6s-1,0.2-1.3,0.6S35.3,344.1,35.3,344.9z"/>
	<path d="M41.3,348.1v-6.2h0.9v0.9c0.2-0.4,0.5-0.7,0.7-0.9s0.4-0.2,0.7-0.2c0.4,0,0.7,0.1,1.1,0.3l-0.4,1c-0.3-0.2-0.5-0.2-0.8-0.2
		c-0.2,0-0.4,0.1-0.6,0.2s-0.3,0.3-0.4,0.6c-0.1,0.4-0.2,0.8-0.2,1.2v3.3L41.3,348.1L41.3,348.1z"/>
	<path d="M45.3,348.1v-6.2h0.9v0.9c0.2-0.3,0.5-0.5,0.8-0.7s0.7-0.3,1.1-0.3c0.5,0,0.8,0.1,1.1,0.3s0.5,0.5,0.6,0.8
		c0.5-0.7,1.1-1.1,1.9-1.1c0.6,0,1.1,0.2,1.4,0.5s0.5,0.9,0.5,1.6v4.3h-1v-3.9c0-0.4,0-0.7-0.1-0.9s-0.2-0.3-0.4-0.4
		s-0.4-0.2-0.6-0.2c-0.4,0-0.8,0.1-1.1,0.4S50,344,50,344.6v3.6h-1.1v-4c0-0.5-0.1-0.8-0.3-1.1s-0.5-0.4-0.8-0.4s-0.6,0.1-0.8,0.2
		s-0.4,0.4-0.5,0.7s-0.2,0.7-0.2,1.3v3.2L45.3,348.1L45.3,348.1z"/>
	<path d="M59.5,346.1l1.1,0.1c-0.2,0.6-0.5,1.1-1,1.5s-1.1,0.5-1.8,0.5c-0.9,0-1.6-0.3-2.2-0.8s-0.8-1.3-0.8-2.4
		c0-1,0.3-1.9,0.8-2.4s1.2-0.9,2.1-0.9c0.8,0,1.5,0.3,2,0.8s0.8,1.4,0.8,2.4c0,0.1,0,0.2,0,0.3h-4.6c0,0.7,0.2,1.2,0.6,1.6
		s0.8,0.5,1.3,0.5c0.4,0,0.7-0.1,1-0.3S59.4,346.5,59.5,346.1z M56,344.3h3.5c0-0.5-0.2-0.9-0.4-1.2c-0.3-0.4-0.8-0.6-1.3-0.6
		s-0.9,0.2-1.2,0.5S56,343.8,56,344.3z"/>
	<path d="M69.4,348.1v-0.8c-0.4,0.6-1,0.9-1.7,0.9c-0.5,0-1-0.1-1.4-0.4s-0.7-0.7-1-1.1S65,345.6,65,345s0.1-1.2,0.3-1.7
		s0.5-0.9,0.9-1.2s0.9-0.4,1.4-0.4c0.4,0,0.7,0.1,1,0.2s0.5,0.4,0.7,0.6v-3.1h1v8.6h-0.9V348.1z M65.9,345c0,0.8,0.2,1.4,0.5,1.8
		s0.7,0.6,1.2,0.6s0.9-0.2,1.2-0.6s0.5-1,0.5-1.7c0-0.9-0.2-1.5-0.5-1.9s-0.7-0.6-1.2-0.6s-0.9,0.2-1.2,0.6S65.9,344.1,65.9,345z"/>
	<path d="M76.3,346.1l1.1,0.1c-0.2,0.6-0.5,1.1-1,1.5s-1.1,0.5-1.8,0.5c-0.9,0-1.6-0.3-2.2-0.8s-0.8-1.3-0.8-2.4
		c0-1,0.3-1.9,0.8-2.4s1.2-0.9,2.1-0.9c0.8,0,1.5,0.3,2,0.8s0.8,1.4,0.8,2.4c0,0.1,0,0.2,0,0.3h-4.6c0,0.7,0.2,1.2,0.6,1.6
		s0.8,0.5,1.3,0.5c0.4,0,0.7-0.1,1-0.3S76,346.5,76.3,346.1z M72.8,344.3h3.5c0-0.5-0.2-0.9-0.4-1.2c-0.3-0.4-0.8-0.6-1.3-0.6
		s-0.9,0.2-1.2,0.5S72.8,343.8,72.8,344.3z"/>
	<path d="M81.8,348.6l1,0.2c0,0.3,0.2,0.5,0.4,0.7c0.3,0.2,0.6,0.3,1.1,0.3s0.9-0.1,1.1-0.3s0.4-0.5,0.5-0.8
		c0.1-0.2,0.1-0.7,0.1-1.4c-0.5,0.5-1,0.8-1.7,0.8c-0.9,0-1.5-0.3-2-0.9s-0.7-1.4-0.7-2.2c0-0.6,0.1-1.1,0.3-1.6s0.5-0.9,0.9-1.2
		s0.9-0.4,1.4-0.4c0.7,0,1.3,0.3,1.8,0.9v-0.8h1v5.4c0,1-0.1,1.7-0.3,2.1s-0.5,0.7-0.9,1s-1,0.4-1.6,0.4c-0.7,0-1.3-0.2-1.8-0.5
		S81.8,349.2,81.8,348.6z M82.7,344.8c0,0.8,0.2,1.4,0.5,1.8s0.7,0.6,1.2,0.6s0.9-0.2,1.2-0.6s0.5-1,0.5-1.8s-0.2-1.3-0.5-1.7
		s-0.7-0.6-1.2-0.6s-0.9,0.2-1.2,0.6S82.7,344.1,82.7,344.8z"/>
	<path d="M92.9,346.1l1.1,0.1c-0.2,0.6-0.5,1.1-1,1.5s-1.1,0.5-1.8,0.5c-0.9,0-1.6-0.3-2.2-0.8s-0.8-1.3-0.8-2.4
		c0-1,0.3-1.9,0.8-2.4s1.2-0.9,2.1-0.9c0.8,0,1.5,0.3,2,0.8s0.8,1.4,0.8,2.4c0,0.1,0,0.2,0,0.3h-4.6c0,0.7,0.2,1.2,0.6,1.6
		s0.8,0.5,1.3,0.5c0.4,0,0.7-0.1,1-0.3S92.8,346.5,92.9,346.1z M89.4,344.3h3.5c0-0.5-0.2-0.9-0.4-1.2c-0.3-0.4-0.8-0.6-1.3-0.6
		s-0.9,0.2-1.2,0.5S89.4,343.8,89.4,344.3z"/>
	<path d="M94.9,346.2l1-0.2c0.1,0.4,0.2,0.7,0.5,1s0.6,0.3,1.1,0.3s0.8-0.1,1.1-0.3s0.4-0.4,0.4-0.7c0-0.2-0.1-0.4-0.3-0.6
		c-0.1-0.1-0.5-0.2-1.1-0.4c-0.8-0.2-1.3-0.4-1.6-0.5s-0.5-0.3-0.7-0.6s-0.2-0.5-0.2-0.8s0.1-0.5,0.2-0.8s0.3-0.4,0.5-0.6
		c0.2-0.1,0.4-0.2,0.7-0.3s0.6-0.1,0.9-0.1c0.5,0,0.9,0.1,1.3,0.2s0.6,0.3,0.8,0.6s0.3,0.6,0.4,1l-1,0.1c0-0.3-0.2-0.6-0.4-0.8
		s-0.5-0.3-1-0.3s-0.8,0.1-1,0.2s-0.3,0.3-0.3,0.6c0,0.1,0,0.3,0.1,0.4s0.2,0.2,0.4,0.3c0.1,0,0.4,0.1,0.9,0.3
		c0.7,0.2,1.3,0.4,1.6,0.5s0.5,0.3,0.7,0.6s0.3,0.5,0.3,0.9s-0.1,0.7-0.3,1s-0.5,0.6-0.9,0.7s-0.8,0.3-1.3,0.3
		c-0.8,0-1.4-0.2-1.8-0.5S94.9,346.9,94.9,346.2z"/>
	<path d="M103.7,347.1l0.2,0.9c-0.3,0.1-0.6,0.1-0.8,0.1c-0.4,0-0.7-0.1-0.9-0.2s-0.4-0.3-0.4-0.5s-0.1-0.6-0.1-1.2v-3.6h-0.8v-0.8
		h0.8v-1.5l1-0.6v2.2h1.1v0.8h-1.1v3.6c0,0.3,0,0.5,0.1,0.6s0.1,0.2,0.2,0.2s0.2,0.1,0.4,0.1C103.3,347.2,103.4,347.1,103.7,347.1z"
		/>
	<path d="M104.7,340.7v-1.2h1.1v1.2H104.7z M104.7,348.1v-6.2h1.1v6.2H104.7z"/>
	<path d="M106.9,344.9c0-1.2,0.3-2,1-2.6c0.5-0.5,1.2-0.7,2-0.7c0.9,0,1.6,0.3,2.1,0.8s0.8,1.3,0.8,2.3c0,0.8-0.1,1.4-0.4,1.9
		s-0.6,0.8-1,1.1s-1,0.4-1.5,0.4c-0.9,0-1.6-0.3-2.1-0.8S106.9,346,106.9,344.9z M107.9,344.9c0,0.8,0.2,1.4,0.5,1.8
		s0.8,0.6,1.3,0.6s1-0.2,1.3-0.6s0.5-1,0.5-1.8s-0.2-1.4-0.5-1.7s-0.8-0.6-1.3-0.6s-1,0.2-1.3,0.6S107.9,344.1,107.9,344.9z"/>
	<path d="M113.9,348.1v-6.2h0.9v0.9c0.5-0.7,1.1-1,2-1c0.4,0,0.7,0.1,1,0.2s0.5,0.3,0.7,0.5s0.3,0.5,0.3,0.8c0,0.2,0.1,0.5,0.1,1
		v3.8h-1.1v-3.8c0-0.4,0-0.8-0.1-1s-0.2-0.4-0.4-0.5s-0.5-0.2-0.7-0.2c-0.4,0-0.8,0.1-1.2,0.4s-0.5,0.8-0.5,1.6v3.4h-1V348.1z"/>
	<path d="M128,348.1v-0.8c-0.4,0.6-1,0.9-1.7,0.9c-0.5,0-1-0.1-1.4-0.4s-0.7-0.7-1-1.1s-0.3-1.1-0.3-1.7s0.1-1.2,0.3-1.7
		s0.5-0.9,0.9-1.2s0.9-0.4,1.4-0.4c0.4,0,0.7,0.1,1,0.2s0.5,0.4,0.7,0.6v-3.1h1v8.6H128V348.1z M124.7,345c0,0.8,0.2,1.4,0.5,1.8
		s0.7,0.6,1.2,0.6s0.9-0.2,1.2-0.6s0.5-1,0.5-1.7c0-0.9-0.2-1.5-0.5-1.9s-0.7-0.6-1.2-0.6s-0.9,0.2-1.2,0.6S124.7,344.1,124.7,345z"
		/>
	<path d="M134.9,346.1l1.1,0.1c-0.2,0.6-0.5,1.1-1,1.5s-1.1,0.5-1.8,0.5c-0.9,0-1.6-0.3-2.2-0.8s-0.8-1.3-0.8-2.4
		c0-1,0.3-1.9,0.8-2.4s1.2-0.9,2.1-0.9c0.8,0,1.5,0.3,2,0.8s0.8,1.4,0.8,2.4c0,0.1,0,0.2,0,0.3h-4.6c0,0.7,0.2,1.2,0.6,1.6
		s0.8,0.5,1.3,0.5c0.4,0,0.7-0.1,1-0.3S134.8,346.5,134.9,346.1z M131.4,344.3h3.5c0-0.5-0.2-0.9-0.4-1.2c-0.3-0.4-0.8-0.6-1.3-0.6
		s-0.9,0.2-1.2,0.5S131.4,343.8,131.4,344.3z"/>
	<path d="M136.9,346.2l1-0.2c0.1,0.4,0.2,0.7,0.5,1s0.6,0.3,1.1,0.3s0.8-0.1,1.1-0.3s0.4-0.4,0.4-0.7c0-0.2-0.1-0.4-0.3-0.6
		c-0.1-0.1-0.5-0.2-1.1-0.4c-0.8-0.2-1.3-0.4-1.6-0.5s-0.5-0.3-0.7-0.6s-0.2-0.5-0.2-0.8s0.1-0.5,0.2-0.8s0.3-0.4,0.5-0.6
		c0.2-0.1,0.4-0.2,0.7-0.3s0.6-0.1,0.9-0.1c0.5,0,0.9,0.1,1.3,0.2s0.6,0.3,0.8,0.6s0.3,0.6,0.4,1l-1,0.1c0-0.3-0.2-0.6-0.4-0.8
		s-0.5-0.3-1-0.3s-0.8,0.1-1,0.2s-0.3,0.3-0.3,0.6c0,0.1,0,0.3,0.1,0.4s0.2,0.2,0.4,0.3c0.1,0,0.4,0.1,0.9,0.3
		c0.7,0.2,1.3,0.4,1.6,0.5s0.5,0.3,0.7,0.6s0.3,0.5,0.3,0.9s-0.1,0.7-0.3,1s-0.5,0.6-0.9,0.7s-0.8,0.3-1.3,0.3
		c-0.8,0-1.4-0.2-1.8-0.5S137,346.9,136.9,346.2z"/>
	<path d="M146.6,342.5l-0.3-1.6v-1.4h1.2v1.4l-0.3,1.6H146.6z"/>
	<path d="M153,347.3c-0.4,0.3-0.8,0.6-1.1,0.7s-0.7,0.2-1.2,0.2c-0.7,0-1.2-0.2-1.6-0.5s-0.6-0.8-0.6-1.3c0-0.3,0.1-0.6,0.2-0.8
		s0.3-0.5,0.5-0.6s0.5-0.3,0.8-0.3c0.2-0.1,0.5-0.1,0.9-0.2c0.9-0.1,1.5-0.2,1.9-0.4c0-0.1,0-0.2,0-0.3c0-0.4-0.1-0.7-0.3-0.9
		c-0.3-0.2-0.7-0.4-1.2-0.4s-0.9,0.1-1.1,0.3s-0.4,0.5-0.5,0.9l-1-0.1c0.1-0.4,0.2-0.8,0.5-1.1s0.5-0.5,0.9-0.6s0.9-0.2,1.4-0.2
		s1,0.1,1.3,0.2s0.6,0.3,0.7,0.5s0.3,0.4,0.3,0.7c0,0.2,0.1,0.5,0.1,1v1.4c0,1,0,1.6,0.1,1.9s0.1,0.5,0.3,0.7h-1.1
		C153.1,347.8,153,347.6,153,347.3z M152.9,344.9c-0.4,0.2-1,0.3-1.7,0.4c-0.4,0.1-0.7,0.1-0.9,0.2s-0.3,0.2-0.4,0.3
		s-0.1,0.3-0.1,0.5c0,0.3,0.1,0.5,0.3,0.7s0.5,0.3,0.9,0.3s0.8-0.1,1.1-0.3s0.5-0.4,0.7-0.7c0.1-0.2,0.2-0.6,0.2-1.1v-0.3H152.9z"/>
	<path d="M159.6,345.8l1,0.1c-0.1,0.7-0.4,1.3-0.9,1.7s-1,0.6-1.7,0.6c-0.9,0-1.5-0.3-2.1-0.8s-0.8-1.4-0.8-2.4
		c0-0.7,0.1-1.3,0.3-1.8s0.6-0.9,1-1.1s1-0.4,1.5-0.4c0.7,0,1.2,0.2,1.7,0.5s0.7,0.8,0.8,1.5l-1,0.2c-0.1-0.4-0.3-0.7-0.5-0.9
		s-0.5-0.3-0.9-0.3c-0.5,0-1,0.2-1.3,0.6s-0.5,1-0.5,1.8s0.2,1.4,0.5,1.8s0.7,0.6,1.3,0.6c0.4,0,0.8-0.1,1-0.4
		S159.6,346.3,159.6,345.8z"/>
	<path d="M163.9,347.1l0.2,0.9c-0.3,0.1-0.6,0.1-0.8,0.1c-0.4,0-0.7-0.1-0.9-0.2s-0.4-0.3-0.4-0.5s-0.1-0.6-0.1-1.2v-3.6h-0.8v-0.8
		h0.8v-1.5l1-0.6v2.2h1.1v0.8H163v3.6c0,0.3,0,0.5,0.1,0.6s0.1,0.2,0.2,0.2s0.2,0.1,0.4,0.1C163.5,347.2,163.8,347.1,163.9,347.1z"
		/>
	<path d="M164.9,340.7v-1.2h1.1v1.2H164.9z M164.9,348.1v-6.2h1.1v6.2H164.9z"/>
	<path d="M167.9,348.1v-5.4H167v-0.8h0.9v-0.7c0-0.4,0-0.7,0.1-0.9c0.1-0.3,0.3-0.5,0.5-0.7s0.6-0.3,1.1-0.3c0.3,0,0.6,0,1,0.1
		l-0.2,0.9c-0.2,0-0.4-0.1-0.6-0.1c-0.3,0-0.5,0.1-0.7,0.2s-0.2,0.4-0.2,0.8v0.6h1.2v0.8h-1.2v5.4h-1V348.1z"/>
	<path d="M170.5,346.2l1-0.2c0.1,0.4,0.2,0.7,0.5,1s0.6,0.3,1.1,0.3s0.8-0.1,1.1-0.3s0.4-0.4,0.4-0.7c0-0.2-0.1-0.4-0.3-0.6
		c-0.1-0.1-0.5-0.2-1.1-0.4c-0.8-0.2-1.3-0.4-1.6-0.5s-0.5-0.3-0.7-0.6s-0.2-0.5-0.2-0.8s0.1-0.5,0.2-0.8s0.3-0.4,0.5-0.6
		c0.2-0.1,0.4-0.2,0.7-0.3s0.6-0.1,0.9-0.1c0.5,0,0.9,0.1,1.3,0.2s0.6,0.3,0.8,0.6s0.3,0.6,0.4,1l-1,0.1c0-0.3-0.2-0.6-0.4-0.8
		s-0.5-0.3-1-0.3s-0.8,0.1-1,0.2s-0.3,0.3-0.3,0.6c0,0.1,0,0.3,0.1,0.4s0.2,0.2,0.4,0.3c0.1,0,0.4,0.1,0.9,0.3
		c0.7,0.2,1.3,0.4,1.6,0.5s0.5,0.3,0.7,0.6s0.3,0.5,0.3,0.9s-0.1,0.7-0.3,1s-0.5,0.6-0.9,0.7s-0.8,0.3-1.3,0.3
		c-0.8,0-1.4-0.2-1.8-0.5S170.6,346.9,170.5,346.2z"/>
</g>
<g>
	<path d="M247.4,345v-8.6h3.2c0.6,0,1,0,1.3,0.1c0.4,0.1,0.8,0.2,1.1,0.4s0.5,0.5,0.7,0.8s0.3,0.7,0.3,1.2c0,0.7-0.2,1.3-0.7,1.9
		s-1.3,0.8-2.5,0.8h-2.2v3.5L247.4,345L247.4,345z M248.5,340.4h2.2c0.7,0,1.3-0.1,1.6-0.4s0.5-0.7,0.5-1.2c0-0.4-0.1-0.7-0.3-0.9
		s-0.4-0.4-0.7-0.5c-0.2-0.1-0.5-0.1-1.1-0.1h-2.2V340.4z"/>
	<path d="M255.2,345v-8.6h1.1v8.6H255.2z"/>
	<path d="M262,344.2c-0.4,0.3-0.8,0.6-1.1,0.7c-0.3,0.1-0.7,0.2-1.2,0.2c-0.7,0-1.2-0.2-1.6-0.5c-0.4-0.3-0.6-0.8-0.6-1.3
		c0-0.3,0.1-0.6,0.2-0.8c0.1-0.2,0.3-0.5,0.5-0.6c0.2-0.1,0.5-0.3,0.8-0.3c0.2-0.1,0.5-0.1,0.9-0.2c0.9-0.1,1.5-0.2,1.9-0.4
		c0-0.1,0-0.2,0-0.3c0-0.4-0.1-0.7-0.3-0.9c-0.3-0.2-0.7-0.4-1.2-0.4s-0.9,0.1-1.1,0.3s-0.4,0.5-0.5,0.9l-1-0.1
		c0.1-0.4,0.2-0.8,0.5-1.1c0.3-0.3,0.5-0.5,0.9-0.6s0.9-0.2,1.4-0.2s1,0.1,1.3,0.2c0.3,0.1,0.6,0.3,0.7,0.5c0.1,0.2,0.3,0.4,0.3,0.7
		c0,0.2,0.1,0.5,0.1,1v1.4c0,1,0,1.6,0.1,1.9s0.1,0.5,0.3,0.7h-1.1C262.1,344.7,262,344.5,262,344.2z M261.9,341.8
		c-0.4,0.2-1,0.3-1.7,0.4c-0.4,0.1-0.7,0.1-0.9,0.2c-0.2,0.1-0.3,0.2-0.4,0.3c-0.1,0.1-0.1,0.3-0.1,0.5c0,0.3,0.1,0.5,0.3,0.7
		c0.2,0.2,0.5,0.3,0.9,0.3s0.8-0.1,1.1-0.3c0.3-0.2,0.5-0.4,0.7-0.7c0.1-0.2,0.2-0.6,0.2-1.1v-0.3H261.9z"/>
	<path d="M266.9,344l0.2,0.9c-0.3,0.1-0.6,0.1-0.8,0.1c-0.4,0-0.7-0.1-0.9-0.2c-0.2-0.1-0.4-0.3-0.4-0.5s-0.1-0.6-0.1-1.2v-3.6H264
		v-0.8h0.8v-1.5l1-0.6v2.2h1.1v0.8h-1.1v3.6c0,0.3,0,0.5,0.1,0.6s0.1,0.2,0.2,0.2c0.1,0,0.2,0.1,0.4,0.1
		C266.6,344.1,266.7,344,266.9,344z"/>
	<path d="M272.2,343l1.1,0.1c-0.2,0.6-0.5,1.1-1,1.5s-1.1,0.5-1.8,0.5c-0.9,0-1.6-0.3-2.2-0.8c-0.6-0.5-0.8-1.3-0.8-2.4
		c0-1,0.3-1.9,0.8-2.4s1.2-0.9,2.1-0.9c0.8,0,1.5,0.3,2,0.8s0.8,1.4,0.8,2.4c0,0.1,0,0.2,0,0.3h-4.6c0,0.7,0.2,1.2,0.6,1.6
		c0.4,0.4,0.8,0.5,1.3,0.5c0.4,0,0.7-0.1,1-0.3C271.8,343.7,272,343.4,272.2,343z M268.7,341.2h3.5c0-0.5-0.2-0.9-0.4-1.2
		c-0.3-0.4-0.8-0.6-1.3-0.6s-0.9,0.2-1.2,0.5C269,340.2,268.8,340.7,268.7,341.2z"/>
	<path d="M274.9,345v-5.4H274v-0.8h0.9v-0.7c0-0.4,0-0.7,0.1-0.9c0.1-0.3,0.3-0.5,0.5-0.7c0.2-0.2,0.6-0.3,1.1-0.3
		c0.3,0,0.6,0,1,0.1l-0.2,0.9c-0.2,0-0.4-0.1-0.6-0.1c-0.3,0-0.5,0.1-0.7,0.2c-0.2,0.1-0.2,0.4-0.2,0.8v0.6h1.2v0.8h-1.2v5.4h-1V345
		z"/>
	<path d="M277.6,341.8c0-1.2,0.3-2,1-2.6c0.5-0.5,1.2-0.7,2-0.7c0.9,0,1.6,0.3,2.1,0.8s0.8,1.3,0.8,2.3c0,0.8-0.1,1.4-0.4,1.9
		s-0.6,0.8-1,1.1s-1,0.4-1.5,0.4c-0.9,0-1.6-0.3-2.1-0.8S277.6,342.9,277.6,341.8z M278.6,341.8c0,0.8,0.2,1.4,0.5,1.8
		c0.3,0.4,0.8,0.6,1.3,0.6s1-0.2,1.3-0.6c0.3-0.4,0.5-1,0.5-1.8s-0.2-1.4-0.5-1.7c-0.3-0.3-0.8-0.6-1.3-0.6s-1,0.2-1.3,0.6
		C278.8,340.5,278.6,341,278.6,341.8z"/>
	<path d="M284.6,345v-6.2h0.9v0.9c0.2-0.4,0.5-0.7,0.7-0.9c0.2-0.2,0.4-0.2,0.7-0.2c0.4,0,0.7,0.1,1.1,0.3l-0.4,1
		c-0.3-0.2-0.5-0.2-0.8-0.2c-0.2,0-0.4,0.1-0.6,0.2s-0.3,0.3-0.4,0.6c-0.1,0.4-0.2,0.8-0.2,1.2v3.3L284.6,345L284.6,345z"/>
	<path d="M288.6,345v-6.2h0.9v0.9c0.2-0.3,0.5-0.5,0.8-0.7c0.3-0.2,0.7-0.3,1.1-0.3c0.5,0,0.8,0.1,1.1,0.3c0.3,0.2,0.5,0.5,0.6,0.8
		c0.5-0.7,1.1-1.1,1.9-1.1c0.6,0,1.1,0.2,1.4,0.5s0.5,0.9,0.5,1.6v4.3h-1v-3.9c0-0.4,0-0.7-0.1-0.9s-0.2-0.3-0.4-0.4
		c-0.2-0.1-0.4-0.2-0.6-0.2c-0.4,0-0.8,0.1-1.1,0.4c-0.3,0.3-0.4,0.8-0.4,1.4v3.6h-1.1v-4c0-0.5-0.1-0.8-0.3-1.1
		c-0.2-0.3-0.5-0.4-0.8-0.4c-0.3,0-0.6,0.1-0.8,0.2c-0.2,0.1-0.4,0.4-0.5,0.7s-0.2,0.7-0.2,1.3v3.2L288.6,345L288.6,345z"/>
	<path d="M302.9,343l1.1,0.1c-0.2,0.6-0.5,1.1-1,1.5s-1.1,0.5-1.8,0.5c-0.9,0-1.6-0.3-2.2-0.8s-0.8-1.3-0.8-2.4c0-1,0.3-1.9,0.8-2.4
		s1.2-0.9,2.1-0.9c0.8,0,1.5,0.3,2,0.8s0.8,1.4,0.8,2.4c0,0.1,0,0.2,0,0.3h-4.6c0,0.7,0.2,1.2,0.6,1.6s0.8,0.5,1.3,0.5
		c0.4,0,0.7-0.1,1-0.3S302.7,343.4,302.9,343z M299.4,341.2h3.5c0-0.5-0.2-0.9-0.4-1.2c-0.3-0.4-0.8-0.6-1.3-0.6s-0.9,0.2-1.2,0.5
		S299.4,340.7,299.4,341.2z"/>
	<path d="M312.7,345v-0.8c-0.4,0.6-1,0.9-1.7,0.9c-0.5,0-1-0.1-1.4-0.4s-0.7-0.7-1-1.1s-0.3-1.1-0.3-1.7s0.1-1.2,0.3-1.7
		s0.5-0.9,0.9-1.2s0.9-0.4,1.4-0.4c0.4,0,0.7,0.1,1,0.2s0.5,0.4,0.7,0.6v-3.1h1v8.6h-0.9V345z M309.3,341.9c0,0.8,0.2,1.4,0.5,1.8
		s0.7,0.6,1.2,0.6s0.9-0.2,1.2-0.6s0.5-1,0.5-1.7c0-0.9-0.2-1.5-0.5-1.9s-0.7-0.6-1.2-0.6s-0.9,0.2-1.2,0.6S309.3,341,309.3,341.9z"
		/>
	<path d="M319.6,343l1.1,0.1c-0.2,0.6-0.5,1.1-1,1.5s-1.1,0.5-1.8,0.5c-0.9,0-1.6-0.3-2.2-0.8s-0.8-1.3-0.8-2.4c0-1,0.3-1.9,0.8-2.4
		s1.2-0.9,2.1-0.9c0.8,0,1.5,0.3,2,0.8s0.8,1.4,0.8,2.4c0,0.1,0,0.2,0,0.3H316c0,0.7,0.2,1.2,0.6,1.6s0.8,0.5,1.3,0.5
		c0.4,0,0.7-0.1,1-0.3S319.4,343.4,319.6,343z M316.1,341.2h3.5c0-0.5-0.2-0.9-0.4-1.2c-0.3-0.4-0.8-0.6-1.3-0.6s-0.9,0.2-1.2,0.5
		S316.1,340.7,316.1,341.2z"/>
	<path d="M325.1,345.5l1,0.2c0,0.3,0.2,0.5,0.4,0.7c0.3,0.2,0.6,0.3,1.1,0.3s0.9-0.1,1.1-0.3s0.4-0.5,0.5-0.8
		c0.1-0.2,0.1-0.7,0.1-1.4c-0.5,0.5-1,0.8-1.7,0.8c-0.9,0-1.5-0.3-2-0.9s-0.7-1.4-0.7-2.2c0-0.6,0.1-1.1,0.3-1.6s0.5-0.9,0.9-1.2
		s0.9-0.4,1.4-0.4c0.7,0,1.3,0.3,1.8,0.9v-0.8h1v5.4c0,1-0.1,1.7-0.3,2.1s-0.5,0.7-0.9,1s-1,0.4-1.6,0.4c-0.7,0-1.3-0.2-1.8-0.5
		S325.1,346.1,325.1,345.5z M326,341.7c0,0.8,0.2,1.4,0.5,1.8s0.7,0.6,1.2,0.6s0.9-0.2,1.2-0.6s0.5-1,0.5-1.8s-0.2-1.3-0.5-1.7
		s-0.7-0.6-1.2-0.6s-0.9,0.2-1.2,0.6S326,341,326,341.7z"/>
	<path d="M336.2,343l1.1,0.1c-0.2,0.6-0.5,1.1-1,1.5s-1.1,0.5-1.8,0.5c-0.9,0-1.6-0.3-2.2-0.8s-0.8-1.3-0.8-2.4c0-1,0.3-1.9,0.8-2.4
		s1.2-0.9,2.1-0.9c0.8,0,1.5,0.3,2,0.8s0.8,1.4,0.8,2.4c0,0.1,0,0.2,0,0.3h-4.6c0,0.7,0.2,1.2,0.6,1.6s0.8,0.5,1.3,0.5
		c0.4,0,0.7-0.1,1-0.3S336.1,343.4,336.2,343z M332.8,341.2h3.5c0-0.5-0.2-0.9-0.4-1.2c-0.3-0.4-0.8-0.6-1.3-0.6s-0.9,0.2-1.2,0.5
		S332.8,340.7,332.8,341.2z"/>
	<path d="M338.2,343.1l1-0.2c0.1,0.4,0.2,0.7,0.5,1s0.6,0.3,1.1,0.3s0.8-0.1,1.1-0.3s0.4-0.4,0.4-0.7c0-0.2-0.1-0.4-0.3-0.6
		c-0.1-0.1-0.5-0.2-1.1-0.4c-0.8-0.2-1.3-0.4-1.6-0.5s-0.5-0.3-0.7-0.6s-0.2-0.5-0.2-0.8s0.1-0.5,0.2-0.8s0.3-0.4,0.5-0.6
		c0.2-0.1,0.4-0.2,0.7-0.3s0.6-0.1,0.9-0.1c0.5,0,0.9,0.1,1.3,0.2s0.6,0.3,0.8,0.6s0.3,0.6,0.4,1l-1,0.1c0-0.3-0.2-0.6-0.4-0.8
		s-0.5-0.3-1-0.3s-0.8,0.1-1,0.2s-0.3,0.3-0.3,0.6c0,0.1,0,0.3,0.1,0.4s0.2,0.2,0.4,0.3c0.1,0,0.4,0.1,0.9,0.3
		c0.7,0.2,1.3,0.4,1.6,0.5s0.5,0.3,0.7,0.6s0.3,0.5,0.3,0.9s-0.1,0.7-0.3,1s-0.5,0.6-0.9,0.7s-0.8,0.3-1.3,0.3
		c-0.8,0-1.4-0.2-1.8-0.5S338.3,343.8,338.2,343.1z"/>
	<path d="M347,344l0.2,0.9c-0.3,0.1-0.6,0.1-0.8,0.1c-0.4,0-0.7-0.1-0.9-0.2s-0.4-0.3-0.4-0.5s-0.1-0.6-0.1-1.2v-3.6h-0.8v-0.8h0.8
		v-1.5l1-0.6v2.2h1.1v0.8H346v3.6c0,0.3,0,0.5,0.1,0.6s0.1,0.2,0.2,0.2s0.2,0.1,0.4,0.1C346.6,344.1,346.8,344,347,344z"/>
	<path d="M348,337.6v-1.2h1.1v1.2H348z M348,345v-6.2h1.1v6.2H348z"/>
	<path d="M350.3,341.8c0-1.2,0.3-2,1-2.6c0.5-0.5,1.2-0.7,2-0.7c0.9,0,1.6,0.3,2.1,0.8s0.8,1.3,0.8,2.3c0,0.8-0.1,1.4-0.4,1.9
		s-0.6,0.8-1,1.1s-1,0.4-1.5,0.4c-0.9,0-1.6-0.3-2.1-0.8S350.3,342.9,350.3,341.8z M351.3,341.8c0,0.8,0.2,1.4,0.5,1.8
		s0.8,0.6,1.3,0.6s1-0.2,1.3-0.6s0.5-1,0.5-1.8s-0.2-1.4-0.5-1.7s-0.8-0.6-1.3-0.6s-1,0.2-1.3,0.6S351.3,341,351.3,341.8z"/>
	<path d="M357.3,345v-6.2h0.9v0.9c0.5-0.7,1.1-1,2-1c0.4,0,0.7,0.1,1,0.2s0.5,0.3,0.7,0.5s0.3,0.5,0.3,0.8c0,0.2,0.1,0.5,0.1,1v3.8
		h-1.1v-3.8c0-0.4,0-0.8-0.1-1s-0.2-0.4-0.4-0.5s-0.5-0.2-0.7-0.2c-0.4,0-0.8,0.1-1.2,0.4s-0.5,0.8-0.5,1.6v3.4h-1V345z"/>
	<path d="M371.4,345v-0.8c-0.4,0.6-1,0.9-1.7,0.9c-0.5,0-1-0.1-1.4-0.4s-0.7-0.7-1-1.1s-0.3-1.1-0.3-1.7s0.1-1.2,0.3-1.7
		s0.5-0.9,0.9-1.2s0.9-0.4,1.4-0.4c0.4,0,0.7,0.1,1,0.2s0.5,0.4,0.7,0.6v-3.1h1v8.6h-0.9V345z M368,341.9c0,0.8,0.2,1.4,0.5,1.8
		s0.7,0.6,1.2,0.6s0.9-0.2,1.2-0.6s0.5-1,0.5-1.7c0-0.9-0.2-1.5-0.5-1.9s-0.7-0.6-1.2-0.6s-0.9,0.2-1.2,0.6S368,341,368,341.9z"/>
	<path d="M378.3,343l1.1,0.1c-0.2,0.6-0.5,1.1-1,1.5s-1.1,0.5-1.8,0.5c-0.9,0-1.6-0.3-2.2-0.8s-0.8-1.3-0.8-2.4c0-1,0.3-1.9,0.8-2.4
		s1.2-0.9,2.1-0.9c0.8,0,1.5,0.3,2,0.8s0.8,1.4,0.8,2.4c0,0.1,0,0.2,0,0.3h-4.6c0,0.7,0.2,1.2,0.6,1.6s0.8,0.5,1.3,0.5
		c0.4,0,0.7-0.1,1-0.3S378.1,343.4,378.3,343z M374.8,341.2h3.5c0-0.5-0.2-0.9-0.4-1.2c-0.3-0.4-0.8-0.6-1.3-0.6s-0.9,0.2-1.2,0.5
		S374.8,340.7,374.8,341.2z"/>
	<path d="M380.3,343.1l1-0.2c0.1,0.4,0.2,0.7,0.5,1s0.6,0.3,1.1,0.3s0.8-0.1,1.1-0.3s0.4-0.4,0.4-0.7c0-0.2-0.1-0.4-0.3-0.6
		c-0.1-0.1-0.5-0.2-1.1-0.4c-0.8-0.2-1.3-0.4-1.6-0.5s-0.5-0.3-0.7-0.6s-0.2-0.5-0.2-0.8s0.1-0.5,0.2-0.8s0.3-0.4,0.5-0.6
		c0.2-0.1,0.4-0.2,0.7-0.3s0.6-0.1,0.9-0.1c0.5,0,0.9,0.1,1.3,0.2s0.6,0.3,0.8,0.6s0.3,0.6,0.4,1l-1,0.1c0-0.3-0.2-0.6-0.4-0.8
		s-0.5-0.3-1-0.3s-0.8,0.1-1,0.2s-0.3,0.3-0.3,0.6c0,0.1,0,0.3,0.1,0.4s0.2,0.2,0.4,0.3c0.1,0,0.4,0.1,0.9,0.3
		c0.7,0.2,1.3,0.4,1.6,0.5s0.5,0.3,0.7,0.6s0.3,0.5,0.3,0.9s-0.1,0.7-0.3,1s-0.5,0.6-0.9,0.7s-0.8,0.3-1.3,0.3
		c-0.8,0-1.4-0.2-1.8-0.5S380.4,343.8,380.3,343.1z"/>
	<path d="M390,339.4l-0.3-1.6v-1.4h1.2v1.4l-0.3,1.6H390z"/>
	<path d="M396.4,344.2c-0.4,0.3-0.8,0.6-1.1,0.7s-0.7,0.2-1.2,0.2c-0.7,0-1.2-0.2-1.6-0.5s-0.6-0.8-0.6-1.3c0-0.3,0.1-0.6,0.2-0.8
		s0.3-0.5,0.5-0.6s0.5-0.3,0.8-0.3c0.2-0.1,0.5-0.1,0.9-0.2c0.9-0.1,1.5-0.2,1.9-0.4c0-0.1,0-0.2,0-0.3c0-0.4-0.1-0.7-0.3-0.9
		c-0.3-0.2-0.7-0.4-1.2-0.4s-0.9,0.1-1.1,0.3s-0.4,0.5-0.5,0.9l-1-0.1c0.1-0.4,0.2-0.8,0.5-1.1s0.5-0.5,0.9-0.6s0.9-0.2,1.4-0.2
		s1,0.1,1.3,0.2s0.6,0.3,0.7,0.5s0.3,0.4,0.3,0.7c0,0.2,0.1,0.5,0.1,1v1.4c0,1,0,1.6,0.1,1.9s0.1,0.5,0.3,0.7h-1.1
		C396.5,344.7,396.4,344.5,396.4,344.2z M396.3,341.8c-0.4,0.2-1,0.3-1.7,0.4c-0.4,0.1-0.7,0.1-0.9,0.2s-0.3,0.2-0.4,0.3
		s-0.1,0.3-0.1,0.5c0,0.3,0.1,0.5,0.3,0.7s0.5,0.3,0.9,0.3s0.8-0.1,1.1-0.3s0.5-0.4,0.7-0.7c0.1-0.2,0.2-0.6,0.2-1.1v-0.3H396.3z"/>
	<path d="M403,342.7l1,0.1c-0.1,0.7-0.4,1.3-0.9,1.7s-1,0.6-1.7,0.6c-0.9,0-1.5-0.3-2.1-0.8s-0.8-1.4-0.8-2.4c0-0.7,0.1-1.3,0.3-1.8
		s0.6-0.9,1-1.1s1-0.4,1.5-0.4c0.7,0,1.2,0.2,1.7,0.5s0.7,0.8,0.8,1.5l-1,0.2c-0.1-0.4-0.3-0.7-0.5-0.9s-0.5-0.3-0.9-0.3
		c-0.5,0-1,0.2-1.3,0.6s-0.5,1-0.5,1.8s0.2,1.4,0.5,1.8s0.7,0.6,1.3,0.6c0.4,0,0.8-0.1,1-0.4S403,343.2,403,342.7z"/>
	<path d="M407.3,344l0.2,0.9c-0.3,0.1-0.6,0.1-0.8,0.1c-0.4,0-0.7-0.1-0.9-0.2s-0.4-0.3-0.4-0.5s-0.1-0.6-0.1-1.2v-3.6h-0.8v-0.8
		h0.8v-1.5l1-0.6v2.2h1.1v0.8h-1.1v3.6c0,0.3,0,0.5,0.1,0.6s0.1,0.2,0.2,0.2s0.2,0.1,0.4,0.1C406.9,344.1,407.1,344,407.3,344z"/>
	<path d="M408.3,337.6v-1.2h1.1v1.2H408.3z M408.3,345v-6.2h1.1v6.2H408.3z"/>
	<path d="M411.2,345v-5.4h-0.9v-0.8h0.9v-0.7c0-0.4,0-0.7,0.1-0.9c0.1-0.3,0.3-0.5,0.5-0.7s0.6-0.3,1.1-0.3c0.3,0,0.6,0,1,0.1
		l-0.2,0.9c-0.2,0-0.4-0.1-0.6-0.1c-0.3,0-0.5,0.1-0.7,0.2s-0.2,0.4-0.2,0.8v0.6h1.2v0.8h-1.2v5.4h-1V345z"/>
	<path d="M413.9,343.1l1-0.2c0.1,0.4,0.2,0.7,0.5,1s0.6,0.3,1.1,0.3s0.8-0.1,1.1-0.3s0.4-0.4,0.4-0.7c0-0.2-0.1-0.4-0.3-0.6
		c-0.1-0.1-0.5-0.2-1.1-0.4c-0.8-0.2-1.3-0.4-1.6-0.5s-0.5-0.3-0.7-0.6s-0.2-0.5-0.2-0.8s0.1-0.5,0.2-0.8s0.3-0.4,0.5-0.6
		c0.2-0.1,0.4-0.2,0.7-0.3s0.6-0.1,0.9-0.1c0.5,0,0.9,0.1,1.3,0.2s0.6,0.3,0.8,0.6s0.3,0.6,0.4,1l-1,0.1c0-0.3-0.2-0.6-0.4-0.8
		s-0.5-0.3-1-0.3s-0.8,0.1-1,0.2s-0.3,0.3-0.3,0.6c0,0.1,0,0.3,0.1,0.4s0.2,0.2,0.4,0.3c0.1,0,0.4,0.1,0.9,0.3
		c0.7,0.2,1.3,0.4,1.6,0.5s0.5,0.3,0.7,0.6s0.3,0.5,0.3,0.9s-0.1,0.7-0.3,1s-0.5,0.6-0.9,0.7s-0.8,0.3-1.3,0.3
		c-0.8,0-1.4-0.2-1.8-0.5S414,343.8,413.9,343.1z"/>
</g>
<g>
	<path d="M128.8,633.8v-8.6h3.2c0.6,0,1,0,1.3,0.1c0.4,0.1,0.8,0.2,1.1,0.4c0.3,0.2,0.5,0.5,0.7,0.8s0.3,0.7,0.3,1.2
		c0,0.7-0.2,1.3-0.7,1.9c-0.5,0.6-1.3,0.8-2.5,0.8H130v3.5L128.8,633.8L128.8,633.8z M129.9,629.2h2.2c0.7,0,1.3-0.1,1.6-0.4
		s0.5-0.7,0.5-1.2c0-0.4-0.1-0.7-0.3-0.9c-0.2-0.2-0.4-0.4-0.7-0.5c-0.2-0.1-0.5-0.1-1.1-0.1h-2.2V629.2z"/>
	<path d="M136.6,633.8v-8.6h1.1v8.6H136.6z"/>
	<path d="M143.4,633c-0.4,0.3-0.8,0.6-1.1,0.7c-0.3,0.1-0.7,0.2-1.2,0.2c-0.7,0-1.2-0.2-1.6-0.5s-0.6-0.8-0.6-1.3
		c0-0.3,0.1-0.6,0.2-0.8c0.1-0.2,0.3-0.5,0.5-0.6c0.2-0.1,0.5-0.3,0.8-0.3c0.2-0.1,0.5-0.1,0.9-0.2c0.9-0.1,1.5-0.2,1.9-0.4
		c0-0.1,0-0.2,0-0.3c0-0.4-0.1-0.7-0.3-0.9c-0.3-0.2-0.7-0.4-1.2-0.4s-0.9,0.1-1.1,0.3c-0.2,0.2-0.4,0.5-0.5,0.9l-1-0.1
		c0.1-0.4,0.2-0.8,0.5-1.1c0.3-0.3,0.5-0.5,0.9-0.6c0.4-0.1,0.9-0.2,1.4-0.2s1,0.1,1.3,0.2c0.3,0.1,0.6,0.3,0.7,0.5s0.3,0.4,0.3,0.7
		c0,0.2,0.1,0.5,0.1,1v1.4c0,1,0,1.6,0.1,1.9s0.1,0.5,0.3,0.7h-1.1C143.5,633.5,143.4,633.3,143.4,633z M143.3,630.6
		c-0.4,0.2-1,0.3-1.7,0.4c-0.4,0.1-0.7,0.1-0.9,0.2c-0.2,0.1-0.3,0.2-0.4,0.3s-0.1,0.3-0.1,0.5c0,0.3,0.1,0.5,0.3,0.7
		s0.5,0.3,0.9,0.3s0.8-0.1,1.1-0.3c0.3-0.2,0.5-0.4,0.7-0.7c0.1-0.2,0.2-0.6,0.2-1.1v-0.3H143.3z"/>
	<path d="M148.3,632.8l0.2,0.9c-0.3,0.1-0.6,0.1-0.8,0.1c-0.4,0-0.7-0.1-0.9-0.2c-0.2-0.1-0.4-0.3-0.4-0.5s-0.1-0.6-0.1-1.2v-3.6
		h-0.9v-0.8h0.8V626l1-0.6v2.2h1.1v0.8h-1.1v3.6c0,0.3,0,0.5,0.1,0.6c0.1,0.1,0.1,0.2,0.2,0.2s0.2,0.1,0.4,0.1
		C148,632.9,148.1,632.8,148.3,632.8z"/>
	<path d="M153.6,631.8l1.1,0.1c-0.2,0.6-0.5,1.1-1,1.5c-0.5,0.4-1.1,0.5-1.8,0.5c-0.9,0-1.6-0.3-2.2-0.8s-0.8-1.3-0.8-2.4
		c0-1,0.3-1.9,0.8-2.4s1.2-0.9,2.1-0.9c0.8,0,1.5,0.3,2,0.8s0.8,1.4,0.8,2.4c0,0.1,0,0.2,0,0.3H150c0,0.7,0.2,1.2,0.6,1.6
		c0.4,0.4,0.8,0.5,1.3,0.5c0.4,0,0.7-0.1,1-0.3C153.2,632.5,153.4,632.2,153.6,631.8z M150.1,630h3.5c0-0.5-0.2-0.9-0.4-1.2
		c-0.3-0.4-0.8-0.6-1.3-0.6s-0.9,0.2-1.2,0.5S150.2,629.5,150.1,630z"/>
	<path d="M156.3,633.8v-5.4h-0.9v-0.8h0.9v-0.7c0-0.4,0-0.7,0.1-0.9c0.1-0.3,0.3-0.5,0.5-0.7s0.6-0.3,1.1-0.3c0.3,0,0.6,0,1,0.1
		l-0.2,0.9c-0.2,0-0.4-0.1-0.6-0.1c-0.3,0-0.5,0.1-0.7,0.2c-0.2,0.1-0.2,0.4-0.2,0.8v0.6h1.2v0.8h-1.2v5.4h-1V633.8z"/>
	<path d="M159,630.6c0-1.2,0.3-2,1-2.6c0.5-0.5,1.2-0.7,2-0.7c0.9,0,1.6,0.3,2.1,0.8s0.8,1.3,0.8,2.3c0,0.8-0.1,1.4-0.4,1.9
		s-0.6,0.8-1,1.1c-0.4,0.3-1,0.4-1.5,0.4c-0.9,0-1.6-0.3-2.1-0.8S159,631.7,159,630.6z M160,630.6c0,0.8,0.2,1.4,0.5,1.8
		c0.3,0.4,0.8,0.6,1.3,0.6s1-0.2,1.3-0.6c0.3-0.4,0.5-1,0.5-1.8s-0.2-1.4-0.5-1.7c-0.3-0.3-0.8-0.6-1.3-0.6s-1,0.2-1.3,0.6
		C160.2,629.3,160,629.8,160,630.6z"/>
	<path d="M166,633.8v-6.2h0.9v0.9c0.2-0.4,0.5-0.7,0.7-0.9c0.2-0.2,0.4-0.2,0.7-0.2c0.4,0,0.7,0.1,1.1,0.3l-0.4,1
		c-0.3-0.2-0.5-0.2-0.8-0.2c-0.2,0-0.4,0.1-0.6,0.2c-0.2,0.1-0.3,0.3-0.4,0.6c-0.1,0.4-0.2,0.8-0.2,1.2v3.3L166,633.8L166,633.8z"/>
	<path d="M170,633.8v-6.2h0.9v0.9c0.2-0.3,0.5-0.5,0.8-0.7s0.7-0.3,1.1-0.3c0.5,0,0.8,0.1,1.1,0.3c0.3,0.2,0.5,0.5,0.6,0.8
		c0.5-0.7,1.1-1.1,1.9-1.1c0.6,0,1.1,0.2,1.4,0.5s0.5,0.9,0.5,1.6v4.3h-1V630c0-0.4,0-0.7-0.1-0.9c-0.1-0.2-0.2-0.3-0.4-0.4
		c-0.2-0.1-0.4-0.2-0.6-0.2c-0.4,0-0.8,0.1-1.1,0.4s-0.4,0.8-0.4,1.4v3.6h-1.1v-4c0-0.5-0.1-0.8-0.3-1.1c-0.2-0.3-0.5-0.4-0.8-0.4
		s-0.6,0.1-0.8,0.2c-0.2,0.1-0.4,0.4-0.5,0.7c-0.1,0.3-0.2,0.7-0.2,1.3v3.2L170,633.8L170,633.8z"/>
	<path d="M184.3,631.8l1.1,0.1c-0.2,0.6-0.5,1.1-1,1.5c-0.5,0.4-1.1,0.5-1.8,0.5c-0.9,0-1.6-0.3-2.2-0.8s-0.8-1.3-0.8-2.4
		c0-1,0.3-1.9,0.8-2.4s1.2-0.9,2.1-0.9c0.8,0,1.5,0.3,2,0.8s0.8,1.4,0.8,2.4c0,0.1,0,0.2,0,0.3h-4.6c0,0.7,0.2,1.2,0.6,1.6
		c0.4,0.4,0.8,0.5,1.3,0.5c0.4,0,0.7-0.1,1-0.3C183.9,632.5,184.1,632.2,184.3,631.8z M180.8,630h3.5c0-0.5-0.2-0.9-0.4-1.2
		c-0.3-0.4-0.8-0.6-1.3-0.6s-0.9,0.2-1.2,0.5S180.8,629.5,180.8,630z"/>
	<path d="M194.1,633.8V633c-0.4,0.6-1,0.9-1.7,0.9c-0.5,0-1-0.1-1.4-0.4s-0.7-0.7-1-1.1c-0.3-0.4-0.3-1.1-0.3-1.7
		c0-0.6,0.1-1.2,0.3-1.7s0.5-0.9,0.9-1.2c0.4-0.3,0.9-0.4,1.4-0.4c0.4,0,0.7,0.1,1,0.2c0.3,0.1,0.5,0.4,0.7,0.6v-3.1h1v8.6h-0.9
		V633.8z M190.7,630.7c0,0.8,0.2,1.4,0.5,1.8c0.3,0.4,0.7,0.6,1.2,0.6s0.9-0.2,1.2-0.6c0.3-0.4,0.5-1,0.5-1.7c0-0.9-0.2-1.5-0.5-1.9
		c-0.3-0.4-0.7-0.6-1.2-0.6s-0.9,0.2-1.2,0.6C190.9,629.3,190.7,629.8,190.7,630.7z"/>
	<path d="M201,631.8l1.1,0.1c-0.2,0.6-0.5,1.1-1,1.5c-0.5,0.4-1.1,0.5-1.8,0.5c-0.9,0-1.6-0.3-2.2-0.8s-0.8-1.3-0.8-2.4
		c0-1,0.3-1.9,0.8-2.4s1.2-0.9,2.1-0.9c0.8,0,1.5,0.3,2,0.8s0.8,1.4,0.8,2.4c0,0.1,0,0.2,0,0.3h-4.6c0,0.7,0.2,1.2,0.6,1.6
		c0.4,0.4,0.8,0.5,1.3,0.5c0.4,0,0.7-0.1,1-0.3C200.6,632.5,200.8,632.2,201,631.8z M197.5,630h3.5c0-0.5-0.2-0.9-0.4-1.2
		c-0.3-0.4-0.8-0.6-1.3-0.6s-0.9,0.2-1.2,0.5S197.5,629.5,197.5,630z"/>
	<path d="M206.5,634.3l1,0.2c0,0.3,0.2,0.5,0.4,0.7c0.3,0.2,0.6,0.3,1.1,0.3s0.9-0.1,1.1-0.3c0.2-0.2,0.4-0.5,0.5-0.8
		c0.1-0.2,0.1-0.7,0.1-1.4c-0.5,0.5-1,0.8-1.7,0.8c-0.9,0-1.5-0.3-2-0.9c-0.5-0.6-0.7-1.4-0.7-2.2c0-0.6,0.1-1.1,0.3-1.6
		s0.5-0.9,0.9-1.2c0.4-0.3,0.9-0.4,1.4-0.4c0.7,0,1.3,0.3,1.8,0.9v-0.8h1v5.4c0,1-0.1,1.7-0.3,2.1c-0.2,0.4-0.5,0.7-0.9,1
		s-1,0.4-1.6,0.4c-0.7,0-1.3-0.2-1.8-0.5S206.5,634.9,206.5,634.3z M207.4,630.5c0,0.8,0.2,1.4,0.5,1.8c0.3,0.4,0.7,0.6,1.2,0.6
		s0.9-0.2,1.2-0.6c0.3-0.4,0.5-1,0.5-1.8s-0.2-1.3-0.5-1.7s-0.7-0.6-1.2-0.6s-0.9,0.2-1.2,0.6C207.6,629.2,207.4,629.8,207.4,630.5z
		"/>
	<path d="M217.6,631.8l1.1,0.1c-0.2,0.6-0.5,1.1-1,1.5c-0.5,0.4-1.1,0.5-1.8,0.5c-0.9,0-1.6-0.3-2.2-0.8s-0.8-1.3-0.8-2.4
		c0-1,0.3-1.9,0.8-2.4s1.2-0.9,2.1-0.9c0.8,0,1.5,0.3,2,0.8s0.8,1.4,0.8,2.4c0,0.1,0,0.2,0,0.3H214c0,0.7,0.2,1.2,0.6,1.6
		c0.4,0.4,0.8,0.5,1.3,0.5c0.4,0,0.7-0.1,1-0.3C217.2,632.5,217.5,632.2,217.6,631.8z M214.2,630h3.5c0-0.5-0.2-0.9-0.4-1.2
		c-0.3-0.4-0.8-0.6-1.3-0.6s-0.9,0.2-1.2,0.5S214.2,629.5,214.2,630z"/>
	<path d="M219.6,631.9l1-0.2c0.1,0.4,0.2,0.7,0.5,1s0.6,0.3,1.1,0.3s0.8-0.1,1.1-0.3c0.3-0.2,0.4-0.4,0.4-0.7c0-0.2-0.1-0.4-0.3-0.6
		c-0.1-0.1-0.5-0.2-1.1-0.4c-0.8-0.2-1.3-0.4-1.6-0.5c-0.3-0.1-0.5-0.3-0.7-0.6c-0.2-0.3-0.2-0.5-0.2-0.8s0.1-0.5,0.2-0.8
		s0.3-0.4,0.5-0.6c0.2-0.1,0.4-0.2,0.7-0.3s0.6-0.1,0.9-0.1c0.5,0,0.9,0.1,1.3,0.2c0.4,0.1,0.6,0.3,0.8,0.6c0.2,0.3,0.3,0.6,0.4,1
		l-1,0.1c0-0.3-0.2-0.6-0.4-0.8c-0.2-0.2-0.5-0.3-1-0.3s-0.8,0.1-1,0.2c-0.2,0.1-0.3,0.3-0.3,0.6c0,0.1,0,0.3,0.1,0.4
		c0.1,0.1,0.2,0.2,0.4,0.3c0.1,0,0.4,0.1,0.9,0.3c0.7,0.2,1.3,0.4,1.6,0.5c0.3,0.1,0.5,0.3,0.7,0.6c0.2,0.3,0.3,0.5,0.3,0.9
		c0,0.4-0.1,0.7-0.3,1s-0.5,0.6-0.9,0.7c-0.4,0.1-0.8,0.3-1.3,0.3c-0.8,0-1.4-0.2-1.8-0.5S219.7,632.6,219.6,631.9z"/>
	<path d="M228.4,632.8l0.2,0.9c-0.3,0.1-0.6,0.1-0.8,0.1c-0.4,0-0.7-0.1-0.9-0.2c-0.2-0.1-0.4-0.3-0.4-0.5s-0.1-0.6-0.1-1.2v-3.6
		h-0.8v-0.8h0.8V626l1-0.6v2.2h1.1v0.8h-1.1v3.6c0,0.3,0,0.5,0.1,0.6c0.1,0.1,0.1,0.2,0.2,0.2s0.2,0.1,0.4,0.1
		C228,632.9,228.2,632.8,228.4,632.8z"/>
	<path d="M229.4,626.4v-1.2h1.1v1.2H229.4z M229.4,633.8v-6.2h1.1v6.2H229.4z"/>
	<path d="M231.7,630.6c0-1.2,0.3-2,1-2.6c0.5-0.5,1.2-0.7,2-0.7c0.9,0,1.6,0.3,2.1,0.8s0.8,1.3,0.8,2.3c0,0.8-0.1,1.4-0.4,1.9
		s-0.6,0.8-1,1.1c-0.4,0.3-1,0.4-1.5,0.4c-0.9,0-1.6-0.3-2.1-0.8S231.7,631.7,231.7,630.6z M232.7,630.6c0,0.8,0.2,1.4,0.5,1.8
		c0.3,0.4,0.8,0.6,1.3,0.6s1-0.2,1.3-0.6c0.3-0.4,0.5-1,0.5-1.8s-0.2-1.4-0.5-1.7c-0.3-0.3-0.8-0.6-1.3-0.6s-1,0.2-1.3,0.6
		C232.9,629.3,232.7,629.8,232.7,630.6z"/>
	<path d="M238.7,633.8v-6.2h0.9v0.9c0.5-0.7,1.1-1,2-1c0.4,0,0.7,0.1,1,0.2c0.3,0.1,0.5,0.3,0.7,0.5s0.3,0.5,0.3,0.8
		c0,0.2,0.1,0.5,0.1,1v3.8h-1.1V630c0-0.4,0-0.8-0.1-1s-0.2-0.4-0.4-0.5c-0.2-0.1-0.5-0.2-0.7-0.2c-0.4,0-0.8,0.1-1.2,0.4
		s-0.5,0.8-0.5,1.6v3.4h-1V633.8z"/>
	<path d="M252.8,633.8V633c-0.4,0.6-1,0.9-1.7,0.9c-0.5,0-1-0.1-1.4-0.4s-0.7-0.7-1-1.1c-0.3-0.4-0.3-1.1-0.3-1.7
		c0-0.6,0.1-1.2,0.3-1.7s0.5-0.9,0.9-1.2c0.4-0.3,0.9-0.4,1.4-0.4c0.4,0,0.7,0.1,1,0.2c0.3,0.1,0.5,0.4,0.7,0.6v-3.1h1v8.6h-0.9
		V633.8z M249.4,630.7c0,0.8,0.2,1.4,0.5,1.8c0.3,0.4,0.7,0.6,1.2,0.6s0.9-0.2,1.2-0.6c0.3-0.4,0.5-1,0.5-1.7c0-0.9-0.2-1.5-0.5-1.9
		c-0.3-0.4-0.7-0.6-1.2-0.6s-0.9,0.2-1.2,0.6C249.6,629.3,249.4,629.8,249.4,630.7z"/>
	<path d="M259.7,631.8l1.1,0.1c-0.2,0.6-0.5,1.1-1,1.5c-0.5,0.4-1.1,0.5-1.8,0.5c-0.9,0-1.6-0.3-2.2-0.8s-0.8-1.3-0.8-2.4
		c0-1,0.3-1.9,0.8-2.4s1.2-0.9,2.1-0.9c0.8,0,1.5,0.3,2,0.8s0.8,1.4,0.8,2.4c0,0.1,0,0.2,0,0.3h-4.6c0,0.7,0.2,1.2,0.6,1.6
		c0.4,0.4,0.8,0.5,1.3,0.5c0.4,0,0.7-0.1,1-0.3C259.3,632.5,259.5,632.2,259.7,631.8z M256.2,630h3.5c0-0.5-0.2-0.9-0.4-1.2
		c-0.3-0.4-0.8-0.6-1.3-0.6s-0.9,0.2-1.2,0.5S256.2,629.5,256.2,630z"/>
	<path d="M261.7,631.9l1-0.2c0.1,0.4,0.2,0.7,0.5,1s0.6,0.3,1.1,0.3s0.8-0.1,1.1-0.3c0.3-0.2,0.4-0.4,0.4-0.7c0-0.2-0.1-0.4-0.3-0.6
		c-0.1-0.1-0.5-0.2-1.1-0.4c-0.8-0.2-1.3-0.4-1.6-0.5c-0.3-0.1-0.5-0.3-0.7-0.6c-0.2-0.3-0.2-0.5-0.2-0.8s0.1-0.5,0.2-0.8
		s0.3-0.4,0.5-0.6c0.2-0.1,0.4-0.2,0.7-0.3s0.6-0.1,0.9-0.1c0.5,0,0.9,0.1,1.3,0.2c0.4,0.1,0.6,0.3,0.8,0.6c0.2,0.3,0.3,0.6,0.4,1
		l-1,0.1c0-0.3-0.2-0.6-0.4-0.8c-0.2-0.2-0.5-0.3-1-0.3s-0.8,0.1-1,0.2c-0.2,0.1-0.3,0.3-0.3,0.6c0,0.1,0,0.3,0.1,0.4
		c0.1,0.1,0.2,0.2,0.4,0.3c0.1,0,0.4,0.1,0.9,0.3c0.7,0.2,1.3,0.4,1.6,0.5c0.3,0.1,0.5,0.3,0.7,0.6c0.2,0.3,0.3,0.5,0.3,0.9
		c0,0.4-0.1,0.7-0.3,1s-0.5,0.6-0.9,0.7c-0.4,0.1-0.8,0.3-1.3,0.3c-0.8,0-1.4-0.2-1.8-0.5S261.8,632.6,261.7,631.9z"/>
	<path d="M271.4,628.2l-0.3-1.6v-1.4h1.2v1.4l-0.3,1.6H271.4z"/>
	<path d="M277.8,633c-0.4,0.3-0.8,0.6-1.1,0.7c-0.3,0.1-0.7,0.2-1.2,0.2c-0.7,0-1.2-0.2-1.6-0.5s-0.6-0.8-0.6-1.3
		c0-0.3,0.1-0.6,0.2-0.8c0.1-0.2,0.3-0.5,0.5-0.6c0.2-0.1,0.5-0.3,0.8-0.3c0.2-0.1,0.5-0.1,0.9-0.2c0.9-0.1,1.5-0.2,1.9-0.4
		c0-0.1,0-0.2,0-0.3c0-0.4-0.1-0.7-0.3-0.9c-0.3-0.2-0.7-0.4-1.2-0.4s-0.9,0.1-1.1,0.3c-0.2,0.2-0.4,0.5-0.5,0.9l-1-0.1
		c0.1-0.4,0.2-0.8,0.5-1.1c0.3-0.3,0.5-0.5,0.9-0.6c0.4-0.1,0.9-0.2,1.4-0.2s1,0.1,1.3,0.2c0.3,0.1,0.6,0.3,0.7,0.5s0.3,0.4,0.3,0.7
		c0,0.2,0.1,0.5,0.1,1v1.4c0,1,0,1.6,0.1,1.9s0.1,0.5,0.3,0.7H278C277.9,633.5,277.8,633.3,277.8,633z M277.7,630.6
		c-0.4,0.2-1,0.3-1.7,0.4c-0.4,0.1-0.7,0.1-0.9,0.2c-0.2,0.1-0.3,0.2-0.4,0.3s-0.1,0.3-0.1,0.5c0,0.3,0.1,0.5,0.3,0.7
		s0.5,0.3,0.9,0.3s0.8-0.1,1.1-0.3c0.3-0.2,0.5-0.4,0.7-0.7c0.1-0.2,0.2-0.6,0.2-1.1v-0.3H277.7z"/>
	<path d="M284.4,631.5l1,0.1c-0.1,0.7-0.4,1.3-0.9,1.7s-1,0.6-1.7,0.6c-0.9,0-1.5-0.3-2.1-0.8s-0.8-1.4-0.8-2.4
		c0-0.7,0.1-1.3,0.3-1.8s0.6-0.9,1-1.1s1-0.4,1.5-0.4c0.7,0,1.2,0.2,1.7,0.5s0.7,0.8,0.8,1.5l-1,0.2c-0.1-0.4-0.3-0.7-0.5-0.9
		c-0.2-0.2-0.5-0.3-0.9-0.3c-0.5,0-1,0.2-1.3,0.6c-0.3,0.4-0.5,1-0.5,1.8s0.2,1.4,0.5,1.8c0.3,0.4,0.7,0.6,1.3,0.6
		c0.4,0,0.8-0.1,1-0.4S284.4,632,284.4,631.5z"/>
	<path d="M288.7,632.8l0.2,0.9c-0.3,0.1-0.6,0.1-0.8,0.1c-0.4,0-0.7-0.1-0.9-0.2c-0.2-0.1-0.4-0.3-0.4-0.5s-0.1-0.6-0.1-1.2v-3.6
		h-0.8v-0.8h0.8V626l1-0.6v2.2h1.1v0.8h-1.1v3.6c0,0.3,0,0.5,0.1,0.6c0.1,0.1,0.1,0.2,0.2,0.2s0.2,0.1,0.4,0.1
		C288.3,632.9,288.5,632.8,288.7,632.8z"/>
	<path d="M289.7,626.4v-1.2h1.1v1.2H289.7z M289.7,633.8v-6.2h1.1v6.2H289.7z"/>
	<path d="M292.6,633.8v-5.4h-0.9v-0.8h0.9v-0.7c0-0.4,0-0.7,0.1-0.9c0.1-0.3,0.3-0.5,0.5-0.7s0.6-0.3,1.1-0.3c0.3,0,0.6,0,1,0.1
		l-0.2,0.9c-0.2,0-0.4-0.1-0.6-0.1c-0.3,0-0.5,0.1-0.7,0.2c-0.2,0.1-0.2,0.4-0.2,0.8v0.6h1.2v0.8h-1.2v5.4h-1V633.8z"/>
	<path d="M295.3,631.9l1-0.2c0.1,0.4,0.2,0.7,0.5,1s0.6,0.3,1.1,0.3s0.8-0.1,1.1-0.3c0.3-0.2,0.4-0.4,0.4-0.7c0-0.2-0.1-0.4-0.3-0.6
		c-0.1-0.1-0.5-0.2-1.1-0.4c-0.8-0.2-1.3-0.4-1.6-0.5c-0.3-0.1-0.5-0.3-0.7-0.6c-0.2-0.3-0.2-0.5-0.2-0.8s0.1-0.5,0.2-0.8
		s0.3-0.4,0.5-0.6c0.2-0.1,0.4-0.2,0.7-0.3s0.6-0.1,0.9-0.1c0.5,0,0.9,0.1,1.3,0.2c0.4,0.1,0.6,0.3,0.8,0.6c0.2,0.3,0.3,0.6,0.4,1
		l-1,0.1c0-0.3-0.2-0.6-0.4-0.8c-0.2-0.2-0.5-0.3-1-0.3s-0.8,0.1-1,0.2c-0.2,0.1-0.3,0.3-0.3,0.6c0,0.1,0,0.3,0.1,0.4
		c0.1,0.1,0.2,0.2,0.4,0.3c0.1,0,0.4,0.1,0.9,0.3c0.7,0.2,1.3,0.4,1.6,0.5c0.3,0.1,0.5,0.3,0.7,0.6c0.2,0.3,0.3,0.5,0.3,0.9
		c0,0.4-0.1,0.7-0.3,1s-0.5,0.6-0.9,0.7c-0.4,0.1-0.8,0.3-1.3,0.3c-0.8,0-1.4-0.2-1.8-0.5S295.4,632.6,295.3,631.9z"/>
</g>
<g>
	<path d="M158.6,838.3l1.1-0.1c0.1,0.4,0.2,0.8,0.4,1.1c0.2,0.3,0.5,0.5,0.9,0.7s0.8,0.3,1.3,0.3c0.4,0,0.8-0.1,1.1-0.2
		c0.3-0.1,0.6-0.3,0.7-0.5c0.1-0.2,0.2-0.5,0.2-0.7c0-0.3-0.1-0.5-0.2-0.7s-0.4-0.4-0.8-0.5c-0.2-0.1-0.7-0.2-1.5-0.4
		c-0.8-0.2-1.3-0.4-1.7-0.5c-0.4-0.2-0.7-0.5-0.9-0.8c-0.2-0.3-0.3-0.7-0.3-1.1s0.1-0.8,0.4-1.2c0.3-0.4,0.6-0.7,1.1-0.9
		c0.5-0.2,1-0.3,1.6-0.3s1.2,0.1,1.7,0.3c0.5,0.2,0.9,0.5,1.1,0.9c0.2,0.4,0.4,0.8,0.4,1.4l-1.1,0.1c-0.1-0.5-0.3-1-0.6-1.2
		c-0.3-0.2-0.8-0.4-1.5-0.4s-1.2,0.1-1.5,0.4s-0.5,0.6-0.5,0.9s0.1,0.6,0.3,0.8s0.8,0.4,1.7,0.6s1.6,0.4,1.9,0.5
		c0.5,0.2,0.9,0.5,1.1,0.9c0.2,0.4,0.4,0.8,0.4,1.2c0,0.5-0.1,0.9-0.4,1.3s-0.6,0.7-1.1,0.9c-0.5,0.2-1,0.3-1.7,0.3
		c-0.8,0-1.4-0.1-2-0.3c-0.6-0.2-0.9-0.6-1.2-1C158.7,839.7,158.6,838.9,158.6,838.3z"/>
	<path d="M171,841.1v-0.9c-0.5,0.7-1.1,1.1-2,1.1c-0.4,0-0.7-0.1-1-0.2s-0.6-0.3-0.7-0.5s-0.3-0.5-0.3-0.8c0-0.2-0.1-0.5-0.1-1v-3.9
		h1.1v3.5c0,0.6,0,0.9,0.1,1.1c0.1,0.3,0.2,0.5,0.4,0.7c0.2,0.2,0.5,0.2,0.8,0.2s0.6-0.1,0.9-0.2c0.3-0.1,0.5-0.4,0.6-0.7
		c0.1-0.3,0.2-0.7,0.2-1.2V835h1.1v6.2L171,841.1L171,841.1z"/>
	<path d="M173.5,841.1v-6.2h0.9v0.9c0.2-0.4,0.5-0.7,0.7-0.9s0.4-0.2,0.7-0.2c0.4,0,0.7,0.1,1.1,0.3l-0.4,1
		c-0.3-0.2-0.5-0.2-0.8-0.2c-0.2,0-0.4,0.1-0.6,0.2c-0.2,0.1-0.3,0.3-0.4,0.6c-0.1,0.4-0.2,0.8-0.2,1.2v3.3H173.5L173.5,841.1z"/>
	<path d="M179.3,841.1l-2.4-6.2h1.1l1.3,3.7c0.1,0.4,0.3,0.8,0.4,1.3c0.1-0.3,0.2-0.7,0.4-1.2l1.4-3.8h1.1l-2.4,6.2H179.3z"/>
	<path d="M187.8,839.1l1.1,0.1c-0.2,0.6-0.5,1.1-1,1.5c-0.5,0.4-1.1,0.5-1.8,0.5c-0.9,0-1.6-0.3-2.2-0.8s-0.8-1.3-0.8-2.4
		c0-1,0.3-1.9,0.8-2.4s1.2-0.9,2.1-0.9c0.8,0,1.5,0.3,2,0.8s0.8,1.4,0.8,2.4c0,0.1,0,0.2,0,0.3h-4.6c0,0.7,0.2,1.2,0.6,1.6
		s0.8,0.5,1.3,0.5c0.4,0,0.7-0.1,1-0.3C187.4,839.8,187.7,839.5,187.8,839.1z M184.4,837.4h3.5c0-0.5-0.2-0.9-0.4-1.2
		c-0.3-0.4-0.8-0.6-1.3-0.6s-0.9,0.2-1.2,0.5C184.7,836.4,184.4,836.8,184.4,837.4z"/>
	<path d="M190.2,833.7v-1.2h1.1v1.2H190.2z M190.2,841.1v-6.2h1.1v6.2H190.2z"/>
	<path d="M192.9,841.1v-8.6h1.1v8.6H192.9z"/>
	<path d="M195.5,841.1v-8.6h1.1v8.6H195.5z"/>
	<path d="M202.3,840.3c-0.4,0.3-0.8,0.6-1.1,0.7s-0.7,0.2-1.2,0.2c-0.7,0-1.2-0.2-1.6-0.5s-0.6-0.8-0.6-1.3c0-0.3,0.1-0.6,0.2-0.8
		c0.1-0.2,0.3-0.5,0.5-0.6c0.2-0.1,0.5-0.3,0.8-0.3c0.2-0.1,0.5-0.1,0.9-0.2c0.9-0.1,1.5-0.2,1.9-0.4c0-0.1,0-0.2,0-0.3
		c0-0.4-0.1-0.7-0.3-0.9c-0.3-0.2-0.7-0.4-1.2-0.4s-0.9,0.1-1.1,0.3c-0.2,0.2-0.4,0.5-0.5,0.9l-1-0.1c0.1-0.4,0.2-0.8,0.5-1.1
		s0.5-0.5,0.9-0.6c0.4-0.1,0.9-0.2,1.4-0.2s1,0.1,1.3,0.2c0.3,0.1,0.6,0.3,0.7,0.5c0.1,0.2,0.3,0.4,0.3,0.7c0,0.2,0.1,0.5,0.1,1v1.4
		c0,1,0,1.6,0.1,1.9s0.1,0.5,0.3,0.7h-1.1C202.4,840.9,202.3,840.6,202.3,840.3z M202.2,838c-0.4,0.2-1,0.3-1.7,0.4
		c-0.4,0.1-0.7,0.1-0.9,0.2c-0.2,0.1-0.3,0.2-0.4,0.3c-0.1,0.1-0.1,0.3-0.1,0.5c0,0.3,0.1,0.5,0.3,0.7c0.2,0.2,0.5,0.3,0.9,0.3
		s0.8-0.1,1.1-0.3c0.3-0.2,0.5-0.4,0.7-0.7c0.1-0.2,0.2-0.6,0.2-1.1L202.2,838L202.2,838z"/>
	<path d="M204.9,841.1v-6.2h0.9v0.9c0.5-0.7,1.1-1,2-1c0.4,0,0.7,0.1,1,0.2s0.5,0.3,0.7,0.5s0.3,0.5,0.3,0.8c0,0.2,0.1,0.5,0.1,1
		v3.8h-1.1v-3.8c0-0.4,0-0.8-0.1-1c-0.1-0.2-0.2-0.4-0.4-0.5c-0.2-0.1-0.5-0.2-0.7-0.2c-0.4,0-0.8,0.1-1.2,0.4s-0.5,0.8-0.5,1.6v3.4
		h-1V841.1z"/>
	<path d="M215.6,838.8l1,0.1c-0.1,0.7-0.4,1.3-0.9,1.7c-0.5,0.4-1,0.6-1.7,0.6c-0.9,0-1.5-0.3-2.1-0.8s-0.8-1.4-0.8-2.4
		c0-0.7,0.1-1.3,0.3-1.8s0.6-0.9,1-1.1s1-0.4,1.5-0.4c0.7,0,1.2,0.2,1.7,0.5s0.7,0.8,0.8,1.5l-1,0.2c-0.1-0.4-0.3-0.7-0.5-0.9
		c-0.2-0.2-0.5-0.3-0.9-0.3c-0.5,0-1,0.2-1.3,0.6c-0.3,0.4-0.5,1-0.5,1.8s0.2,1.4,0.5,1.8s0.7,0.6,1.3,0.6c0.4,0,0.8-0.1,1-0.4
		S215.6,839.3,215.6,838.8z"/>
	<path d="M221.8,839.1l1.1,0.1c-0.2,0.6-0.5,1.1-1,1.5c-0.5,0.4-1.1,0.5-1.8,0.5c-0.9,0-1.6-0.3-2.2-0.8s-0.8-1.3-0.8-2.4
		c0-1,0.3-1.9,0.8-2.4s1.2-0.9,2.1-0.9c0.8,0,1.5,0.3,2,0.8s0.8,1.4,0.8,2.4c0,0.1,0,0.2,0,0.3h-4.6c0,0.7,0.2,1.2,0.6,1.6
		s0.8,0.5,1.3,0.5c0.4,0,0.7-0.1,1-0.3C221.4,839.8,221.7,839.5,221.8,839.1z M218.4,837.4h3.5c0-0.5-0.2-0.9-0.4-1.2
		c-0.3-0.4-0.8-0.6-1.3-0.6s-0.9,0.2-1.2,0.5C218.7,836.4,218.4,836.8,218.4,837.4z"/>
	<path d="M227.6,843.5v-8.6h1v0.8c0.2-0.3,0.5-0.6,0.8-0.7c0.3-0.1,0.6-0.2,1-0.2c0.5,0,1,0.1,1.4,0.4s0.7,0.7,0.9,1.2
		s0.3,1,0.3,1.6c0,0.6-0.1,1.2-0.3,1.7s-0.6,0.9-1,1.2s-0.9,0.4-1.4,0.4c-0.4,0-0.7-0.1-0.9-0.2c-0.2-0.1-0.5-0.3-0.7-0.6v3H227.6
		L227.6,843.5z M228.5,838c0,0.8,0.2,1.4,0.5,1.8c0.3,0.4,0.7,0.6,1.2,0.6s0.9-0.2,1.2-0.6c0.3-0.4,0.5-1,0.5-1.8
		c0-0.8-0.2-1.4-0.5-1.8s-0.7-0.6-1.2-0.6c-0.4,0-0.8,0.2-1.2,0.6S228.5,837.2,228.5,838z"/>
	<path d="M238.3,840.3c-0.4,0.3-0.8,0.6-1.1,0.7s-0.7,0.2-1.2,0.2c-0.7,0-1.2-0.2-1.6-0.5s-0.6-0.8-0.6-1.3c0-0.3,0.1-0.6,0.2-0.8
		c0.1-0.2,0.3-0.5,0.5-0.6c0.2-0.1,0.5-0.3,0.8-0.3c0.2-0.1,0.5-0.1,0.9-0.2c0.9-0.1,1.5-0.2,1.9-0.4c0-0.1,0-0.2,0-0.3
		c0-0.4-0.1-0.7-0.3-0.9c-0.3-0.2-0.7-0.4-1.2-0.4s-0.9,0.1-1.1,0.3c-0.2,0.2-0.4,0.5-0.5,0.9l-1-0.1c0.1-0.4,0.2-0.8,0.5-1.1
		s0.5-0.5,0.9-0.6c0.4-0.1,0.9-0.2,1.4-0.2s1,0.1,1.3,0.2c0.3,0.1,0.6,0.3,0.7,0.5c0.1,0.2,0.3,0.4,0.3,0.7c0,0.2,0.1,0.5,0.1,1v1.4
		c0,1,0,1.6,0.1,1.9s0.1,0.5,0.3,0.7h-1.1C238.4,840.9,238.3,840.6,238.3,840.3z M238.2,838c-0.4,0.2-1,0.3-1.7,0.4
		c-0.4,0.1-0.7,0.1-0.9,0.2c-0.2,0.1-0.3,0.2-0.4,0.3c-0.1,0.1-0.1,0.3-0.1,0.5c0,0.3,0.1,0.5,0.3,0.7c0.2,0.2,0.5,0.3,0.9,0.3
		s0.8-0.1,1.1-0.3c0.3-0.2,0.5-0.4,0.7-0.7c0.1-0.2,0.2-0.6,0.2-1.1L238.2,838L238.2,838z"/>
	<path d="M240.9,841.1v-6.2h0.9v0.9c0.2-0.4,0.5-0.7,0.7-0.9s0.4-0.2,0.7-0.2c0.4,0,0.7,0.1,1.1,0.3l-0.4,1
		c-0.3-0.2-0.5-0.2-0.8-0.2c-0.2,0-0.4,0.1-0.6,0.2c-0.2,0.1-0.3,0.3-0.4,0.6c-0.1,0.4-0.2,0.8-0.2,1.2v3.3H240.9L240.9,841.1z"/>
	<path d="M248.5,841.1v-8.6h5.8v1h-4.7v2.7h4v1h-4v3.9L248.5,841.1L248.5,841.1z"/>
	<path d="M261.9,838.1l1.1,0.3c-0.2,0.9-0.7,1.6-1.3,2.1s-1.4,0.7-2.3,0.7c-0.9,0-1.7-0.2-2.3-0.6c-0.6-0.4-1-0.9-1.3-1.6
		s-0.5-1.5-0.5-2.3c0-0.9,0.2-1.7,0.5-2.3c0.3-0.6,0.8-1.2,1.5-1.5c0.7-0.3,1.3-0.5,2.1-0.5c0.9,0,1.6,0.2,2.2,0.7s1,1.1,1.2,1.8
		l-1.1,0.3c-0.2-0.6-0.5-1.1-0.9-1.4s-0.9-0.4-1.4-0.4c-0.7,0-1.2,0.2-1.7,0.5s-0.8,0.7-0.9,1.3c-0.1,0.6-0.3,1.1-0.3,1.6
		c0,0.7,0.1,1.4,0.3,1.9s0.5,1,1,1.2s0.9,0.4,1.5,0.4s1.2-0.2,1.6-0.6S261.7,838.8,261.9,838.1z"/>
	<path d="M263.4,841.1l3.3-8.6h1.2l3.5,8.6h-1.3l-1-2.6h-3.6l-0.9,2.6H263.4z M265.9,837.6h2.9l-0.9-2.4c-0.3-0.7-0.5-1.3-0.6-1.8
		c-0.1,0.6-0.3,1.1-0.5,1.6L265.9,837.6z"/>
	<path d="M174.8,855.5l3.3-8.6h1.2l3.5,8.6h-1.3l-1-2.6h-3.6l-0.9,2.6H174.8z M177.2,852h2.9l-0.9-2.4c-0.3-0.7-0.5-1.3-0.6-1.8
		c-0.1,0.6-0.3,1.1-0.5,1.6L177.2,852z"/>
	<path d="M187.6,855.5v-0.9c-0.5,0.7-1.1,1.1-2,1.1c-0.4,0-0.7-0.1-1-0.2c-0.3-0.1-0.6-0.3-0.7-0.5c-0.1-0.2-0.3-0.5-0.3-0.8
		c0-0.2-0.1-0.5-0.1-1v-3.9h1.1v3.5c0,0.6,0,0.9,0.1,1.1c0.1,0.3,0.2,0.5,0.4,0.7s0.5,0.2,0.8,0.2s0.6-0.1,0.9-0.2s0.5-0.4,0.6-0.7
		c0.1-0.3,0.2-0.7,0.2-1.2v-3.3h1.1v6.2h-1.1V855.5z"/>
	<path d="M194.3,855.5v-0.8c-0.4,0.6-1,0.9-1.7,0.9c-0.5,0-1-0.1-1.4-0.4s-0.7-0.7-1-1.1c-0.3-0.4-0.3-1.1-0.3-1.7
		c0-0.6,0.1-1.2,0.3-1.7s0.5-0.9,0.9-1.2c0.4-0.3,0.9-0.4,1.4-0.4c0.4,0,0.7,0.1,1,0.2c0.3,0.1,0.5,0.4,0.7,0.6v-3.1h1v8.6
		L194.3,855.5L194.3,855.5z M190.9,852.4c0,0.8,0.2,1.4,0.5,1.8s0.7,0.6,1.2,0.6s0.9-0.2,1.2-0.6s0.5-1,0.5-1.7
		c0-0.9-0.2-1.5-0.5-1.9c-0.3-0.4-0.7-0.6-1.2-0.6s-0.9,0.2-1.2,0.6S190.9,851.6,190.9,852.4z"/>
	<path d="M196.9,848.1v-1.2h1.1v1.2H196.9z M196.9,855.5v-6.2h1.1v6.2H196.9z"/>
	<path d="M201.9,854.6l0.2,0.9c-0.3,0.1-0.6,0.1-0.8,0.1c-0.4,0-0.7-0.1-0.9-0.2s-0.4-0.3-0.4-0.5s-0.1-0.6-0.1-1.2v-3.6H199v-0.8
		h0.8v-1.5l1-0.6v2.2h1.1v0.8h-1.1v3.6c0,0.3,0,0.5,0.1,0.6c0.1,0.1,0.1,0.2,0.2,0.2s0.2,0.1,0.4,0.1
		C201.5,854.6,201.7,854.6,201.9,854.6z"/>
	<path d="M206.2,857.9v-8.6h1v0.8c0.2-0.3,0.5-0.6,0.8-0.7s0.6-0.2,1-0.2c0.5,0,1,0.1,1.4,0.4s0.7,0.7,0.9,1.2s0.3,1,0.3,1.6
		c0,0.6-0.1,1.2-0.3,1.7s-0.6,0.9-1,1.2c-0.4,0.3-0.9,0.4-1.4,0.4c-0.4,0-0.7-0.1-0.9-0.2s-0.5-0.3-0.7-0.6v3H206.2L206.2,857.9z
		 M207.2,852.4c0,0.8,0.2,1.4,0.5,1.8s0.7,0.6,1.2,0.6s0.9-0.2,1.2-0.6s0.5-1,0.5-1.8s-0.2-1.4-0.5-1.8c-0.3-0.4-0.7-0.6-1.2-0.6
		c-0.4,0-0.8,0.2-1.2,0.6C207.3,851,207.2,851.6,207.2,852.4z"/>
	<path d="M217,854.7c-0.4,0.3-0.8,0.6-1.1,0.7s-0.7,0.2-1.2,0.2c-0.7,0-1.2-0.2-1.6-0.5c-0.4-0.3-0.6-0.8-0.6-1.3
		c0-0.3,0.1-0.6,0.2-0.8s0.3-0.5,0.5-0.6c0.2-0.1,0.5-0.3,0.8-0.3c0.2-0.1,0.5-0.1,0.9-0.2c0.9-0.1,1.5-0.2,1.9-0.4
		c0-0.1,0-0.2,0-0.3c0-0.4-0.1-0.7-0.3-0.9c-0.3-0.2-0.7-0.4-1.2-0.4s-0.9,0.1-1.1,0.3s-0.4,0.5-0.5,0.9l-1-0.1
		c0.1-0.4,0.2-0.8,0.5-1.1c0.3-0.3,0.5-0.5,0.9-0.6c0.4-0.1,0.9-0.2,1.4-0.2s1,0.1,1.3,0.2s0.6,0.3,0.7,0.5s0.3,0.4,0.3,0.7
		c0,0.2,0.1,0.5,0.1,1v1.4c0,1,0,1.6,0.1,1.9s0.1,0.5,0.3,0.7h-1.1C217.1,855.3,217,855,217,854.7z M216.9,852.4
		c-0.4,0.2-1,0.3-1.7,0.4c-0.4,0.1-0.7,0.1-0.9,0.2s-0.3,0.2-0.4,0.3c-0.1,0.1-0.1,0.3-0.1,0.5c0,0.3,0.1,0.5,0.3,0.7
		s0.5,0.3,0.9,0.3s0.8-0.1,1.1-0.3s0.5-0.4,0.7-0.7c0.1-0.2,0.2-0.6,0.2-1.1L216.9,852.4L216.9,852.4z"/>
	<path d="M219.6,855.5v-6.2h0.9v0.9c0.2-0.4,0.5-0.7,0.7-0.9c0.2-0.2,0.4-0.2,0.7-0.2c0.4,0,0.7,0.1,1.1,0.3l-0.4,1
		c-0.3-0.2-0.5-0.2-0.8-0.2c-0.2,0-0.4,0.1-0.6,0.2s-0.3,0.3-0.4,0.6c-0.1,0.4-0.2,0.8-0.2,1.2v3.3L219.6,855.5L219.6,855.5z"/>
	<path d="M227.1,855.5v-8.6h3.2c0.6,0,1,0,1.3,0.1c0.4,0.1,0.8,0.2,1.1,0.4s0.5,0.5,0.7,0.8s0.3,0.7,0.3,1.2c0,0.7-0.2,1.3-0.7,1.9
		c-0.5,0.6-1.3,0.8-2.5,0.8h-2.2v3.5h-1.2V855.5z M228.2,851h2.2c0.7,0,1.3-0.1,1.6-0.4s0.5-0.7,0.5-1.2c0-0.4-0.1-0.7-0.3-0.9
		c-0.2-0.2-0.4-0.4-0.7-0.5c-0.2-0.1-0.5-0.1-1.1-0.1h-2.2V851z"/>
	<path d="M236.6,855.5l-2.3-8.6h1.2l1.3,5.6c0.1,0.6,0.3,1.2,0.4,1.8c0.2-0.9,0.3-1.4,0.4-1.6l1.6-5.8h1.4l1.2,4.3
		c0.3,1.1,0.5,2.1,0.7,3c0.1-0.5,0.3-1.2,0.4-1.9l1.3-5.5h1.1l-2.4,8.6h-1.1l-1.8-6.5c-0.2-0.5-0.2-0.9-0.3-1
		c-0.1,0.4-0.2,0.7-0.3,1l-1.8,6.5L236.6,855.5L236.6,855.5z"/>
	<path d="M252.5,852.5l1.1,0.3c-0.2,0.9-0.7,1.6-1.3,2.1s-1.4,0.7-2.3,0.7c-0.9,0-1.7-0.2-2.3-0.6c-0.6-0.4-1-0.9-1.3-1.6
		s-0.5-1.5-0.5-2.3c0-0.9,0.2-1.7,0.5-2.3c0.3-0.6,0.8-1.2,1.5-1.5c0.7-0.3,1.3-0.5,2.1-0.5c0.9,0,1.6,0.2,2.2,0.7s1,1.1,1.2,1.8
		l-1.1,0.3c-0.2-0.6-0.5-1.1-0.9-1.4s-0.9-0.4-1.4-0.4c-0.7,0-1.2,0.2-1.7,0.5c-0.5,0.3-0.8,0.7-0.9,1.3c-0.1,0.6-0.3,1.1-0.3,1.6
		c0,0.7,0.1,1.4,0.3,1.9s0.5,1,1,1.2c0.5,0.2,0.9,0.4,1.5,0.4s1.2-0.2,1.6-0.6C251.9,853.7,252.4,853.2,252.5,852.5z"/>
</g>
</svg>
