<?xml version="1.0" encoding="utf-8"?>
<!-- Generator: Adobe Illustrator 23.0.0, SVG Export Plug-In . SVG Version: 6.00 Build 0)  -->
<svg version="1.1" id="租金分红" xmlns="http://www.w3.org/2000/svg" xmlns:xlink="http://www.w3.org/1999/xlink" x="0px"
	 y="0px" viewBox="0 0 1072 186" style="enable-background:new 0 0 1072 186;" xml:space="preserve">
<style type="text/css">
	.st0{fill:none;stroke:#90A7AB;}
	.st1{fill:#9FE7DD;stroke:#34B9A1;stroke-width:2;}
	.st2{fill:none;stroke:#456E68;stroke-width:1.5;stroke-miterlimit:10;}
	.st3{enable-background:new    ;}
	.st4{fill:#456E68;}
</style>
<g id="组_29">
	<path id="形状_1" class="st0" d="M122.8,82.9h132.5l-4.8-5.5"/>
	<path id="形状_1_拷贝_6" class="st0" d="M255.1,103.1H122.8l4.8,5.5"/>
</g>
<path id="形状_1_拷贝_7" class="st0" d="M786.9,88.4h132.5l-4.8-5.5"/>
<g id="组_29_拷贝">
	<path id="形状_1-2" class="st0" d="M489.3,81h132.5l-4.8-5.5"/>
	<path id="形状_1_拷贝_6-2" class="st0" d="M621.6,101.3H489.3l4.8,5.5"/>
</g>
<circle id="椭圆_6" class="st1" cx="377.3" cy="93" r="91.8"/>
<g>
	<circle class="st2" cx="56" cy="65.3" r="15.3"/>
	<line class="st2" x1="43.7" y1="89.3" x2="56" y2="103.3"/>
	<line class="st2" x1="68" y1="89.3" x2="56" y2="103.3"/>
	<line class="st2" x1="56" y1="117.3" x2="56" y2="103.3"/>
	<path class="st2" d="M88.9,109.3v3.3c0,3-2.5,5.5-5.5,5.5H28.6c-3,0-5.5-2.5-5.5-5.5v-3.3"/>
	<path class="st2" d="M28.6,103.8"/>
	<path class="st2" d="M23.1,110.8c0-12.4,10.2-21.9,22.6-21.9h20.6c12.4,0,22.5,10.1,22.5,22.5l0,0"/>
</g>
<g class="st3">
	<path class="st4" d="M740.7,50h-10v10h10V50z M737.4,56.6h-3.3v-3.3h3.3V56.6z"/>
	<path class="st4" d="M754,50h-10v10h10V50z M750.7,56.6h-3.3v-3.3h3.3V56.6z"/>
	<path class="st4" d="M740.7,63.3h-10v10h10V63.3z M737.4,69.9h-3.3v-3.3h3.3V69.9z"/>
	<path class="st4" d="M754,63.3h-10v10h10V63.3z M750.7,69.9h-3.3v-3.3h3.3V69.9z"/>
	<path class="st4" d="M740.7,86.5v-10h-10v10H740.7z M734.1,79.9h3.3v3.3h-3.3V79.9z"/>
	<path class="st4" d="M754,76.6h-10v10h10V76.6z M750.7,83.2h-3.3v-3.3h3.3V83.2z"/>
	<path class="st4" d="M764,46.7v-3.3h-3.3v-6.6h-3.3v-6.6h-29.9v6.6h-3.3v6.6h-3.3v3.3h3.3v43.2h-13.3v-20h3.3V60h-3.3v-2.5
		l-23.3-16.1l-10,6.9v-5.1h-10v12l-3.3,2.3V60H661v10h3.3v20.3c-1.9,0.7-3.3,2.5-3.3,4.6v3.3c0,2.7,2.3,5,5,5h32.4
		c-2.6,3.2-4.2,7.2-4.2,11.6c0,10.1,8.2,18.3,18.3,18.3s18.3-8.1,18.3-18.2c0-4.4-1.5-8.4-4.2-11.6H759c2.7,0,5-2.3,5-5V95
		c0-2.1-1.4-4-3.3-4.6V46.7H764z M730.8,33.4H754v3.3h-23.3L730.8,33.4L730.8,33.4z M727.5,40h29.9v3.3h-29.9V40z M671,46.4h3.3v4.2
		l-3.3,2.3V46.4z M667.6,59.3l19.9-13.8l19.9,13.8v0.8h-39.9L667.6,59.3L667.6,59.3z M664.3,63.3h46.5v3.3h-46.5V63.3z M707.5,69.9
		v19.9h-13.3V73.3h-13.3v16.6h-13.3v-20H707.5z M690.9,89.9h-6.6V76.6h6.6V89.9z M712.5,129.7c-8.2,0-15-6.8-15-15s6.8-15,15-15
		s15,6.8,15,15C727.5,123.1,720.8,129.7,712.5,129.7z M760.7,98.2c0,0.9-0.7,1.7-1.7,1.7h-36.1c-3-2.1-6.5-3.3-10.4-3.3
		s-7.5,1.2-10.4,3.3H666c-0.9,0-1.7-0.7-1.7-1.7v-3.3c0-0.9,0.7-1.7,1.7-1.7h93c0.9,0,1.7,0.7,1.7,1.7V98.2z M757.4,89.9h-29.9V46.7
		h29.9V89.9z"/>
</g>
<g class="st3">
	<g>
		<g>
			<path class="st4" d="M964,53h-12.6c-0.9,0-1.6,0.7-1.6,1.6V61c0,0.9,0.7,1.6,1.6,1.6H964c0.9,0,1.6-0.7,1.6-1.6v-6.4
				C965.4,53.7,964.9,53,964,53z M955.9,59.4h-3.1v-3.1h3.1V59.4z M962.3,59.4h-3.1v-3.1h3.1V59.4z"/>
		</g>
	</g>
	<g>
		<g>
			<path class="st4" d="M964,65.6h-12.6c-0.9,0-1.6,0.7-1.6,1.6v6.4c0,0.9,0.7,1.6,1.6,1.6H964c0.9,0,1.6-0.7,1.6-1.6v-6.4
				C965.4,66.3,964.9,65.6,964,65.6z M955.9,72h-3.1v-3.1h3.1V72z M962.3,72h-3.1v-3.1h3.1V72z"/>
		</g>
	</g>
	<g>
		<g>
			<path class="st4" d="M964,78.4h-12.6c-0.9,0-1.6,0.7-1.6,1.6v6.2c0,0.9,0.7,1.6,1.6,1.6H964c0.9,0,1.6-0.7,1.6-1.6v-6.4
				C965.4,79,964.9,78.4,964,78.4z M955.9,84.6h-3.1v-3.1h3.1V84.6z M962.3,84.6h-3.1v-3.1h3.1V84.6z"/>
		</g>
	</g>
	<g>
		<g>
			<path class="st4" d="M1021,53h-12.6c-0.9,0-1.6,0.7-1.6,1.6V61c0,0.9,0.7,1.6,1.6,1.6h12.6c0.9,0,1.6-0.7,1.6-1.6v-6.4
				C1022.5,53.7,1021.9,53,1021,53z M1013,59.4h-3.1v-3.1h3.1V59.4z M1019.3,59.4h-3.1v-3.1h3.1V59.4z"/>
		</g>
	</g>
	<g>
		<g>
			<path class="st4" d="M1021,40.4h-12.6c-0.9,0-1.6,0.7-1.6,1.6v6.4c0,0.9,0.7,1.6,1.6,1.6h12.6c0.9,0,1.6-0.7,1.6-1.6V42
				C1022.5,40.9,1021.9,40.4,1021,40.4z M1013,46.6h-3.1v-3.1h3.1V46.6z M1019.3,46.6h-3.1v-3.1h3.1V46.6z"/>
		</g>
	</g>
	<g>
		<g>
			<path class="st4" d="M983,59.4h-6.4c-0.9,0-1.6,0.7-1.6,1.6v6.4c0,0.9,0.7,1.6,1.6,1.6h6.4c0.9,0,1.6-0.7,1.6-1.6V61
				C984.5,60,983.9,59.4,983,59.4z M981.3,65.6h-3.1v-3.1h3.1V65.6z"/>
		</g>
	</g>
	<g>
		<g>
			<path class="st4" d="M995.6,59.4h-6.4c-0.9,0-1.6,0.7-1.6,1.6v6.4c0,0.9,0.7,1.6,1.6,1.6h6.4c0.9,0,1.6-0.7,1.6-1.6V61
				C997.2,60,996.5,59.4,995.6,59.4z M994,65.6h-3.1v-3.1h3.1V65.6z"/>
		</g>
	</g>
	<g>
		<g>
			<path class="st4" d="M983,46.6h-6.4c-0.9,0-1.6,0.7-1.6,1.6v6.4c0,0.9,0.7,1.6,1.6,1.6h6.4c0.9,0,1.6-0.7,1.6-1.6v-6.4
				C984.5,47.3,983.9,46.6,983,46.6z M981.3,53h-3.1v-3.1h3.1V53z"/>
		</g>
	</g>
	<g>
		<g>
			<path class="st4" d="M995.6,46.6h-6.4c-0.9,0-1.6,0.7-1.6,1.6v6.4c0,0.9,0.7,1.6,1.6,1.6h6.4c0.9,0,1.6-0.7,1.6-1.6v-6.4
				C997.2,47.3,996.5,46.6,995.6,46.6z M994,53h-3.1v-3.1h3.1V53z"/>
		</g>
	</g>
	<g>
		<g>
			<path class="st4" d="M983,34h-6.4c-0.9,0-1.6,0.7-1.6,1.6V42c0,0.9,0.7,1.6,1.6,1.6h6.4c0.9,0,1.6-0.7,1.6-1.6v-6.4
				C984.5,34.7,983.9,34,983,34z M981.3,40.4h-3.1v-3.1h3.1V40.4z"/>
		</g>
	</g>
	<g>
		<g>
			<path class="st4" d="M995.6,34h-6.4c-0.9,0-1.6,0.7-1.6,1.6V42c0,0.9,0.7,1.6,1.6,1.6h6.4c0.9,0,1.6-0.7,1.6-1.6v-6.4
				C997.2,34.7,996.5,34,995.6,34z M994,40.4h-3.1v-3.1h3.1V40.4z"/>
		</g>
	</g>
	<g>
		<g>
			<path class="st4" d="M983,78.4h-6.4c-0.9,0-1.6,0.7-1.6,1.6v6.2c0,0.9,0.7,1.6,1.6,1.6h6.4c0.9,0,1.6-0.7,1.6-1.6v-6.4
				C984.5,79,983.9,78.4,983,78.4z M981.3,84.6h-3.1v-3.1h3.1V84.6z"/>
		</g>
	</g>
	<g>
		<g>
			<rect x="949.7" y="91" class="st4" width="3.1" height="3.1"/>
		</g>
	</g>
	<g>
		<g>
			<rect x="955.9" y="91" class="st4" width="3.1" height="3.1"/>
		</g>
	</g>
	<g>
		<g>
			<rect x="962.3" y="91" class="st4" width="3.1" height="3.1"/>
		</g>
	</g>
	<g>
		<g>
			<path class="st4" d="M1036.7,72h-7.9V35.6c0-0.9-0.7-1.6-1.6-1.6h-11.1v-2.5l1.6-1.6c1.3,1,3,1.6,4.6,1.6c2.1,0,4-0.7,5.5-2.2
				l0.3-0.3c0.6-0.6,0.6-1.6,0-2.2l-3.6-3.6l3.6-3.6l-2.2-2.2l-3.6,3.6l-5.2-5.2c-0.3-0.3-0.7-0.4-1.2-0.4c-0.6,0-1,0.3-1.3,0.6
				c-1.6,1.5-2.5,3.4-2.5,5.5s0.7,4.3,2.4,5.8l0.7,0.7l-2.1,2.1c-0.3,0.3-0.4,0.7-0.4,1.2v3.1h-9.5v-5c0-0.9-0.7-1.6-1.6-1.6H996
				l-9.1-12c-0.6-0.7-1.9-0.7-2.5,0l-9.1,12h-5.5c-0.9,0-1.6,0.7-1.6,1.6v17.4h-9.5V34h-3.1v12.6h-11.1c-0.9,0-1.6,0.7-1.6,1.6v60.1
				c0,0.9,0.7,1.6,1.6,1.6h25.4H981h12.6h1.6h9.5h25.4c4.3,0,7.9-3.6,7.9-7.9V73.6C1038.4,72.7,1037.6,72,1036.7,72z M968.7,106.9
				h-22.1v-57h22.1V106.9z M1016.2,18.8l8.6,8.6c-1.8,1-4.2,0.9-5.8-0.7l-2.2-2.2c-0.9-0.9-1.5-2.1-1.3-3.4
				C1015.6,20.3,1015.8,19.6,1016.2,18.8z M986.1,19.1l6.4,8.5h-12.6L986.1,19.1z M979.7,94.1v12.6h-7.9V48.2V30.9h28.5v4.8v28.5
				h3.1v-27h22.1V72h-3.1v-1.6c0-2.7-2.1-4.8-4.8-4.8h-9.5c-2.7,0-4.8,2.1-4.8,4.8V72H989c-0.9,0-1.6,0.7-1.6,1.6V91h-12.6v3.1
				H979.7z M1019.3,70.4V72h-12.6v-1.6c0-0.9,0.7-1.6,1.6-1.6h9.5C1018.6,68.9,1019.3,69.5,1019.3,70.4z M983,106.9V94.3h4.8v7.9
				c0,1.8,0.6,3.4,1.6,4.8H983V106.9z M1035.2,102.1c0,2.7-2.1,4.8-4.8,4.8H1005h-9.5c-2.7,0-4.8-2.1-4.8-4.8V86.2
				c1.3,1,3,1.6,4.8,1.6h1.6v4.8c0,0.9,0.7,1.6,1.6,1.6h6.4c0.9,0,1.6-0.7,1.6-1.6v-4.8h1.6h9.5h1.6v4.8c0,0.9,0.7,1.6,1.6,1.6h6.4
				c0.9,0,1.6-0.7,1.6-1.6v-4.8h1.6c1.8,0,3.4-0.6,4.8-1.6v15.9H1035.2z M1000.3,91v-3.1h3.1V91H1000.3z M1009.8,84.6v-3.1h6.4v3.1
				H1009.8z M1022.5,91v-3.1h3.1V91H1022.5z M1035.2,79.9c0,2.7-2.1,4.8-4.8,4.8h-3.1h-6.4h-1.6v-4.8c0-0.9-0.7-1.6-1.6-1.6h-9.5
				c-0.9,0-1.6,0.7-1.6,1.6v4.8h-1.6h-6.4h-3.1c-2.7,0-4.8-2.1-4.8-4.8v-4.8h44.4L1035.2,79.9L1035.2,79.9z"/>
		</g>
	</g>
	<g>
		<g>
			<rect x="1028.9" y="100.5" class="st4" width="3.1" height="3.1"/>
		</g>
	</g>
	<g>
		<g>
			<rect x="1022.5" y="100.5" class="st4" width="3.1" height="3.1"/>
		</g>
	</g>
	<g>
		<g>
			<rect x="1016.2" y="100.5" class="st4" width="3.1" height="3.1"/>
		</g>
	</g>
</g>
<g>
	<path class="st4" d="M706.7,122.5v-1.8c1.9-0.6,2.9-1.8,2.9-3.7v-2.2H707V113h2.6v-3c0-1.5,0.4-2.8,1.4-3.7c1-1,2.2-1.5,3.6-1.5
		c1,0,1.9,0.1,2.8,0.6v2.1c-0.8-0.6-1.8-0.7-2.6-0.7c-1.9,0-2.9,1.2-2.9,3.6v2.8h3.9v1.8h-4v1.8c0,1.9-0.8,3.2-2.3,4.1h8.9v1.8
		h-11.7V122.5z"/>
</g>
<g class="st3">
	<path class="st4" d="M13.1,147.9c1.1,0.4,1.6,1,1.6,2c0,0.5-0.1,0.9-0.4,1.3s-0.6,0.5-1.1,0.5c-0.5,0-0.9-0.1-1.2-0.4
		s-0.4-0.7-0.4-1.4v-1.1c-1.5,0.3-2.8,1.3-3.9,2.9H6.3v-6.4H6.2c-0.4,0-0.8-0.2-1.1-0.5s-0.5-0.7-0.5-1.1s0.2-0.8,0.5-1.1
		s0.7-0.5,1.1-0.5s0.8,0.2,1.1,0.5s0.5,0.7,0.5,1.1v6.7c1-1.3,2.3-2.1,3.9-2.4v-5.6h1.5V147.9z M6.2,144.4c0.2,0,0.4-0.1,0.5-0.2
		s0.2-0.3,0.2-0.5c0-0.2-0.1-0.4-0.2-0.5c-0.1-0.1-0.3-0.2-0.5-0.2s-0.4,0.1-0.5,0.2c-0.1,0.2-0.2,0.3-0.2,0.5
		c0,0.2,0.1,0.4,0.2,0.5S6,144.4,6.2,144.4z M14,149.9c0-0.2-0.1-0.5-0.2-0.7c-0.2-0.2-0.4-0.4-0.6-0.5v1.5c0,0.3,0,0.5,0.1,0.5
		s0.1,0.1,0.2,0.1C13.8,150.9,14,150.5,14,149.9z"/>
	<path class="st4" d="M15.2,137.6c-0.2,1.1-0.6,1.9-1.4,2.5s-1.8,0.9-2.9,0.9c-0.8,0-1.3-0.2-1.8-0.5s-0.6-0.8-0.6-1.3
		c0-0.4,0.2-0.8,0.5-1.1s0.7-0.5,1.1-0.5s0.8,0.2,1.1,0.5s0.5,0.7,0.5,1.1c0,0.4-0.1,0.7-0.4,1c0.8,0,1.4-0.2,1.9-0.7
		s0.8-1.1,0.9-1.8H15.2z M9.9,139.9c0.2,0,0.4-0.1,0.5-0.2c0.1-0.2,0.2-0.3,0.2-0.5s-0.1-0.4-0.2-0.5c-0.1-0.1-0.3-0.2-0.5-0.2
		s-0.4,0.1-0.5,0.2c-0.1,0.2-0.2,0.3-0.2,0.5s0.1,0.4,0.2,0.5C9.5,139.9,9.7,139.9,9.9,139.9z"/>
	<path class="st4" d="M24,151.6h-1.5v-6.1c0-0.7-0.2-1.3-0.7-1.8s-1.1-0.7-1.9-0.7c-1.2,0-2,0.4-2.4,1.1c0.3,0.6,1,0.9,2,1v0.5
		c-0.4,0-0.7,0.1-0.9,0.4s-0.3,0.6-0.3,0.9v4.6h-1.5V147c0-0.6,0.3-1.1,0.8-1.5c-0.7-0.3-1.3-0.7-1.6-1.3c0.7-1.4,2-2.2,3.9-2.2
		c1.2,0,2.1,0.3,2.9,0.9s1.2,1.4,1.2,2.5V151.6z"/>
	<path class="st4" d="M32.7,151.6h-1.5v-0.3c-0.6-1.6-1.2-2.8-1.8-3.8c-0.6-0.9-1-1.4-1.2-1.4c-0.2,0-0.3,0.2-0.3,0.6v1.8H28
		c0.4,0,0.8,0.2,1.1,0.5s0.5,0.7,0.5,1.1s-0.2,0.8-0.5,1.1s-0.7,0.5-1.1,0.5s-0.8-0.2-1.1-0.5s-0.5-0.7-0.5-1.1v-3.4
		c0-1.2,0.5-1.7,1.4-1.7c1,0,2.2,1.4,3.4,4.3v-4c0-0.7-0.2-1.2-0.6-1.6s-1-0.6-1.7-0.6c-1.1,0-1.9,0.4-2.5,1.3l-0.7-0.6
		c0.9-1.1,2-1.7,3.3-1.7c1.1,0,2,0.3,2.7,0.9s1.1,1.4,1.1,2.3V151.6z M28,150.9c0.2,0,0.4-0.1,0.5-0.2c0.1-0.1,0.2-0.3,0.2-0.5
		s-0.1-0.4-0.2-0.5c-0.1-0.2-0.3-0.2-0.5-0.2s-0.4,0.1-0.5,0.2c-0.1,0.1-0.2,0.3-0.2,0.5s0.1,0.4,0.2,0.5
		C27.6,150.8,27.8,150.9,28,150.9z"/>
	<path class="st4" d="M40.4,151.6h-1.5c-1-1.4-1.8-2.5-2.6-3.1s-1.6-1-2.6-1v-0.8c1,0,1.8,0.3,2.6,0.8c0.8,0.5,1.6,1.4,2.6,2.7v-5
		h-0.1c-0.4,0-0.8-0.2-1.1-0.5s-0.5-0.7-0.5-1.1s0.2-0.8,0.5-1.1s0.7-0.5,1.1-0.5c0.4,0,0.8,0.2,1.1,0.5s0.5,0.7,0.5,1.1V151.6z
		 M38.8,144.4c0.2,0,0.4-0.1,0.5-0.2s0.2-0.3,0.2-0.5c0-0.2-0.1-0.4-0.2-0.5c-0.2-0.1-0.3-0.2-0.5-0.2c-0.2,0-0.4,0.1-0.5,0.2
		c-0.1,0.2-0.2,0.3-0.2,0.5c0,0.2,0.1,0.4,0.2,0.5S38.6,144.4,38.8,144.4z"/>
	<path class="st4" d="M50.7,151.6h-1.5v-7.8c0-0.4-0.1-0.6-0.3-0.6c-0.1,0-0.2,0.1-0.4,0.3s-0.4,0.5-0.6,0.9s-0.5,1-0.8,1.6
		s-0.7,1.7-1.2,3s-0.7,2.1-0.7,2.3v0.3h-1.5v-6.4h-0.1c-0.4,0-0.8-0.2-1.1-0.5S42,144,42,143.6s0.2-0.8,0.5-1.1s0.7-0.5,1.1-0.5
		s0.8,0.2,1.1,0.5s0.5,0.7,0.5,1.1v4.7c0.6-1.7,1.3-3.2,2-4.4c0.7-1.2,1.4-1.8,2.2-1.8c0.9,0,1.4,0.6,1.4,1.7V151.6z M43.6,144.4
		c0.2,0,0.4-0.1,0.5-0.2s0.2-0.3,0.2-0.5c0-0.2-0.1-0.4-0.2-0.5c-0.1-0.1-0.3-0.2-0.5-0.2s-0.4,0.1-0.5,0.2
		c-0.1,0.2-0.2,0.3-0.2,0.5c0,0.2,0.1,0.4,0.2,0.5S43.4,144.4,43.6,144.4z"/>
	<path class="st4" d="M50.7,155.4h-0.8v-0.9c-0.2,0-0.4-0.1-0.5-0.2c-0.1-0.1-0.2-0.3-0.2-0.5c0-0.2,0.1-0.4,0.2-0.5
		s0.3-0.2,0.5-0.2c0.3,0,0.5,0.1,0.6,0.2s0.2,0.3,0.2,0.6V155.4z M49.9,154.1c0.2,0,0.4-0.1,0.4-0.4s-0.1-0.4-0.4-0.4
		s-0.4,0.1-0.4,0.4S49.6,154.1,49.9,154.1z"/>
	<path class="st4" d="M60.8,147.9c1.1,0.4,1.6,1,1.6,2c0,0.5-0.1,0.9-0.4,1.3s-0.6,0.5-1.1,0.5c-0.5,0-0.9-0.1-1.2-0.4
		s-0.4-0.7-0.4-1.4v-1.1c-1.5,0.3-2.8,1.3-3.9,2.9H54v-6.4h-0.1c-0.4,0-0.8-0.2-1.1-0.5s-0.5-0.7-0.5-1.1s0.2-0.8,0.5-1.1
		s0.7-0.5,1.1-0.5s0.8,0.2,1.1,0.5s0.5,0.7,0.5,1.1v6.7c1-1.3,2.3-2.1,3.9-2.4v-5.6h1.5V147.9z M53.9,144.4c0.2,0,0.4-0.1,0.5-0.2
		s0.2-0.3,0.2-0.5c0-0.2-0.1-0.4-0.2-0.5c-0.1-0.1-0.3-0.2-0.5-0.2s-0.4,0.1-0.5,0.2c-0.1,0.2-0.2,0.3-0.2,0.5
		c0,0.2,0.1,0.4,0.2,0.5S53.7,144.4,53.9,144.4z M61.6,149.9c0-0.2-0.1-0.5-0.2-0.7c-0.2-0.2-0.4-0.4-0.6-0.5v1.5
		c0,0.3,0,0.5,0.1,0.5s0.1,0.1,0.2,0.1C61.5,150.9,61.6,150.5,61.6,149.9z"/>
	<path class="st4" d="M72,155.4c-0.9-1.1-1.6-2.4-2.2-3.9s-0.9-3-0.9-4.6c0-1.4,0.2-2.7,0.7-4c0.5-1.5,1.3-3,2.4-4.4h1.1
		c-0.7,1.2-1.2,2.1-1.4,2.6c-0.4,0.8-0.6,1.7-0.8,2.5c-0.3,1.1-0.4,2.2-0.4,3.3c0,2.8,0.9,5.6,2.6,8.4H72z"/>
	<path class="st4" d="M83,151.6h-1.5c-0.7-1.6-1.6-2.8-2.5-3.7c-1,0.9-1.8,2.2-2.5,3.7H75v-8c0-0.4,0.2-0.8,0.5-1.1s0.7-0.5,1.1-0.5
		s0.8,0.2,1.1,0.5s0.5,0.7,0.5,1.1s-0.2,0.8-0.5,1.1s-0.7,0.5-1.1,0.5h-0.1v4.2c0.6-1.1,1.5-2.1,2.5-2.8c1,0.8,1.9,1.7,2.5,2.8v-7.1
		H83V151.6z M76.5,144.4c0.2,0,0.4-0.1,0.5-0.2s0.2-0.3,0.2-0.5c0-0.2-0.1-0.4-0.2-0.5c-0.1-0.1-0.3-0.2-0.5-0.2s-0.4,0.1-0.5,0.2
		c-0.1,0.2-0.2,0.3-0.2,0.5c0,0.2,0.1,0.4,0.2,0.5S76.3,144.4,76.5,144.4z"/>
	<path class="st4" d="M83,154.2c0,0.8-0.4,1.1-1.3,1.1h-1.5v-0.9c-0.2,0-0.4-0.1-0.5-0.2c-0.1-0.1-0.2-0.3-0.2-0.5
		c0-0.2,0.1-0.4,0.2-0.5s0.3-0.2,0.5-0.2c0.3,0,0.5,0.1,0.6,0.2s0.2,0.3,0.2,0.6v0.9h0.6c0.4,0,0.5-0.2,0.5-0.6V153H83V154.2z
		 M80.2,154.1c0.2,0,0.4-0.1,0.4-0.4s-0.1-0.4-0.4-0.4s-0.4,0.1-0.4,0.4S79.9,154.1,80.2,154.1z"/>
	<path class="st4" d="M83.9,137.6c-0.1,1-0.4,1.9-1.2,2.5s-1.7,0.9-3,0.9c-0.4,0-0.8,0-1.1-0.1v-0.6c0.6,0,1-0.2,1.3-0.5
		c-0.3,0-0.6-0.1-0.8-0.3c-0.2-0.2-0.3-0.5-0.3-0.8s0.1-0.6,0.3-0.8c0.2-0.2,0.5-0.3,0.8-0.3s0.6,0.1,0.8,0.3
		c0.2,0.2,0.3,0.5,0.3,0.8c0,0.6-0.3,1.1-0.9,1.6c0.8,0,1.5-0.3,2.1-0.8s0.9-1.1,0.9-1.9H83.9z M79.9,139.3c0.2,0,0.3-0.1,0.4-0.2
		s0.2-0.2,0.2-0.4c0-0.2-0.1-0.3-0.2-0.4s-0.2-0.2-0.4-0.2c-0.2,0-0.3,0.1-0.4,0.2s-0.2,0.2-0.2,0.4c0,0.2,0.1,0.3,0.2,0.4
		S79.8,139.3,79.9,139.3z"/>
	<path class="st4" d="M92.8,151.6h-1.5v-6.1c0-0.7-0.2-1.3-0.7-1.8s-1.1-0.7-1.9-0.7c-1.2,0-2,0.4-2.4,1.1c0.3,0.6,1,0.9,2,1v0.5
		c-0.4,0-0.7,0.1-0.9,0.4s-0.3,0.6-0.3,0.9v1.6h0.1c0.4,0,0.8,0.2,1.1,0.5s0.5,0.7,0.5,1.1s-0.2,0.8-0.5,1.1s-0.7,0.5-1.1,0.5
		c-0.4,0-0.8-0.2-1.1-0.5s-0.5-0.7-0.5-1.1V147c0-0.6,0.3-1.1,0.8-1.5c-0.7-0.3-1.3-0.7-1.6-1.3c0.7-1.4,2-2.2,3.9-2.2
		c1.2,0,2.1,0.3,2.9,0.9s1.2,1.4,1.2,2.5V151.6z M87.1,150.9c0.2,0,0.4-0.1,0.6-0.2c0.2-0.1,0.2-0.3,0.2-0.5s-0.1-0.4-0.2-0.5
		c-0.2-0.2-0.3-0.2-0.6-0.2c-0.2,0-0.4,0.1-0.5,0.2c-0.2,0.1-0.2,0.3-0.2,0.5s0.1,0.4,0.2,0.5C86.7,150.8,86.9,150.9,87.1,150.9z"/>
	<path class="st4" d="M92.8,141h-7c0.5-1.9,1.7-2.8,3.5-2.8c0.3,0,0.6,0,0.8,0.1v-0.6h0.7v0.8c0.5,0.2,0.9,0.5,1.3,1v-1.8h0.7V141z
		 M91.6,140.2c-0.4-0.9-1.2-1.4-2.3-1.4s-1.9,0.5-2.3,1.4H91.6z"/>
	<path class="st4" d="M102.2,149.7c0,0.6-0.2,1-0.6,1.4s-0.9,0.5-1.5,0.5h-2.3c-0.6,0-1.1-0.2-1.5-0.5s-0.6-0.8-0.6-1.4v-3.3
		c0-0.4,0.2-0.8,0.5-1.1s0.7-0.5,1.1-0.5c0.4,0,0.8,0.2,1.1,0.5s0.5,0.7,0.5,1.1s-0.2,0.8-0.5,1.1s-0.7,0.5-1.1,0.5h-0.1v1.9
		c0,0.5,0.3,0.8,0.9,0.8h1.6c0.6,0,0.9-0.3,0.9-0.8v-4.5c0-0.7-0.3-1.2-0.8-1.6s-1.1-0.6-1.9-0.6c-0.6,0-1.1,0.1-1.7,0.4
		c-0.6,0.2-1,0.6-1.2,1l-0.7-0.6c0.4-0.5,0.9-0.9,1.6-1.3s1.4-0.5,2.1-0.5c1.1,0,2.1,0.3,2.9,0.9c0.8,0.6,1.2,1.4,1.2,2.3V149.7z
		 M97.4,147.1c0.2,0,0.4-0.1,0.5-0.2c0.2-0.1,0.2-0.3,0.2-0.5s-0.1-0.4-0.2-0.5c-0.2-0.2-0.3-0.2-0.5-0.2c-0.2,0-0.4,0.1-0.5,0.2
		c-0.1,0.1-0.2,0.3-0.2,0.5s0.1,0.4,0.2,0.5C97,147.1,97.2,147.1,97.4,147.1z"/>
	<path class="st4" d="M108.3,148.5L108.3,148.5c0.5,0,0.9,0.2,1.2,0.5s0.5,0.7,0.5,1.1s-0.2,0.8-0.5,1.1s-0.7,0.5-1.1,0.5
		s-0.8-0.2-1.1-0.5s-0.5-0.7-0.5-1.1v-10.2c0-0.8-0.2-1.4-0.5-1.8s-0.8-0.6-1.5-0.6c-0.5,0-1,0.1-1.6,0.2c0.1-0.9,0.4-1.5,1-2
		s1.2-0.8,2-0.8c0.4,0,0.9,0.1,1.5,0.3s0.9,0.3,1.1,0.3c0.4,0,0.6-0.2,0.8-0.5l0.7,0.7c-0.4,0.5-0.9,0.8-1.6,0.8
		c-0.3,0-0.7-0.1-1.3-0.3s-1-0.3-1.3-0.3c-0.8,0-1.3,0.3-1.7,0.9c0.4-0.1,0.6-0.1,0.8-0.1c0.9,0,1.6,0.2,2.1,0.7
		c0.5,0.5,0.8,1.2,0.8,2.2V148.5z M108.4,150.9c0.2,0,0.4-0.1,0.5-0.2c0.1-0.1,0.2-0.3,0.2-0.5s-0.1-0.4-0.2-0.5
		c-0.1-0.2-0.3-0.2-0.5-0.2s-0.4,0.1-0.5,0.2c-0.1,0.1-0.2,0.3-0.2,0.5s0.1,0.4,0.2,0.5C108,150.8,108.2,150.9,108.4,150.9z"/>
	<path class="st4" d="M120.1,151.6h-1.5v-7.8c0-0.4-0.1-0.6-0.3-0.6c-0.1,0-0.2,0.1-0.4,0.3s-0.4,0.5-0.6,0.9s-0.5,1-0.8,1.6
		s-0.7,1.7-1.2,3s-0.7,2.1-0.7,2.3v0.3h-1.5v-6.4H113c-0.4,0-0.8-0.2-1.1-0.5s-0.5-0.7-0.5-1.1s0.2-0.8,0.5-1.1s0.7-0.5,1.1-0.5
		s0.8,0.2,1.1,0.5s0.5,0.7,0.5,1.1v4.7c0.6-1.7,1.3-3.2,2-4.4c0.7-1.2,1.4-1.8,2.2-1.8c0.9,0,1.4,0.6,1.4,1.7V151.6z M113,144.4
		c0.2,0,0.4-0.1,0.5-0.2s0.2-0.3,0.2-0.5c0-0.2-0.1-0.4-0.2-0.5c-0.1-0.1-0.3-0.2-0.5-0.2s-0.4,0.1-0.5,0.2
		c-0.1,0.2-0.2,0.3-0.2,0.5c0,0.2,0.1,0.4,0.2,0.5S112.8,144.4,113,144.4z"/>
	<path class="st4" d="M123.8,148.5L123.8,148.5c0.5,0,0.9,0.2,1.2,0.5s0.5,0.7,0.5,1.1s-0.2,0.8-0.5,1.1s-0.7,0.5-1.1,0.5
		c-0.4,0-0.8-0.2-1.1-0.5s-0.5-0.7-0.5-1.1v-7.8h1.5V148.5z M123.9,150.9c0.2,0,0.4-0.1,0.5-0.2c0.1-0.1,0.2-0.3,0.2-0.5
		s-0.1-0.4-0.2-0.5c-0.1-0.2-0.3-0.2-0.5-0.2c-0.2,0-0.4,0.1-0.5,0.2c-0.2,0.1-0.2,0.3-0.2,0.5s0.1,0.4,0.2,0.5
		C123.5,150.8,123.7,150.9,123.9,150.9z"/>
	<path class="st4" d="M135.4,151.6h-1.5v-6.1c0-0.7-0.3-1.3-0.8-1.8c-0.5-0.4-1.2-0.7-2.1-0.7c-0.9,0-1.7,0.3-2.2,0.8
		s-0.8,1.1-0.8,1.8c0,0.8,0.2,1.5,0.7,2.2v-1.5c0-0.4,0.2-0.8,0.5-1.1s0.7-0.5,1.1-0.5c0.4,0,0.8,0.2,1.1,0.5s0.5,0.7,0.5,1.1
		s-0.2,0.8-0.5,1.1s-0.7,0.5-1.1,0.5h-0.1v3.6h-1.5v-0.8c0-0.6-0.3-1.4-0.8-2.4s-0.8-1.9-0.8-2.7c0-1,0.4-1.9,1.1-2.5s1.7-1,2.9-1
		c1.3,0,2.3,0.3,3.1,0.9c0.8,0.6,1.2,1.4,1.2,2.5V151.6z M130.2,147.2c0.2,0,0.4-0.1,0.5-0.2c0.2-0.1,0.2-0.3,0.2-0.5
		c0-0.2-0.1-0.4-0.2-0.5s-0.3-0.2-0.5-0.2c-0.2,0-0.4,0.1-0.5,0.2s-0.2,0.3-0.2,0.5c0,0.2,0.1,0.4,0.2,0.5
		C129.8,147.1,130,147.2,130.2,147.2z"/>
	<path class="st4" d="M135.4,137c0,0.9-0.5,1.3-1.4,1.3c-0.3,0-0.6,0-1.1-0.1s-0.8-0.1-1.1-0.1c-0.4,0-0.7,0.1-0.9,0.3
		c-0.2,0.2-0.3,0.5-0.3,0.8c0,0.3,0.1,0.6,0.2,0.8c0.2-0.5,0.5-0.7,1-0.7c0.4,0,0.9,0.2,1.4,0.5c0-0.3,0.1-0.6,0.3-0.8
		c0.2-0.2,0.5-0.3,0.8-0.3s0.6,0.1,0.8,0.3c0.2,0.2,0.3,0.5,0.3,0.8s-0.1,0.6-0.3,0.8c-0.2,0.2-0.5,0.3-0.8,0.3
		c-0.4,0-0.9-0.2-1.3-0.5c-0.5-0.3-0.9-0.5-1.2-0.5c-0.2,0-0.4,0.1-0.5,0.3s-0.2,0.4-0.2,0.7h-0.7c-0.4-0.5-0.6-1.1-0.6-1.7
		c0-0.5,0.2-1,0.6-1.3s0.9-0.5,1.5-0.5c0.3,0,0.7,0,1.1,0.1s0.8,0.1,1,0.1c0.4,0,0.7-0.2,0.6-0.6H135.4z M134.3,140.4
		c0.2,0,0.3-0.1,0.4-0.2s0.2-0.2,0.2-0.4c0-0.2-0.1-0.3-0.2-0.4s-0.2-0.2-0.4-0.2c-0.2,0-0.3,0.1-0.4,0.2s-0.2,0.2-0.2,0.4
		c0,0.2,0.1,0.3,0.2,0.4S134.1,140.4,134.3,140.4z"/>
	<path class="st4" d="M145.5,147.9c1.1,0.4,1.6,1,1.6,2c0,0.5-0.1,0.9-0.4,1.3s-0.6,0.5-1.1,0.5c-0.5,0-0.9-0.1-1.2-0.4
		s-0.4-0.7-0.4-1.4v-1.1c-1.5,0.3-2.8,1.3-3.9,2.9h-1.5v-6.4h-0.1c-0.4,0-0.8-0.2-1.1-0.5s-0.5-0.7-0.5-1.1s0.2-0.8,0.5-1.1
		s0.7-0.5,1.1-0.5s0.8,0.2,1.1,0.5s0.5,0.7,0.5,1.1v6.7c1-1.3,2.3-2.1,3.9-2.4v-5.6h1.5V147.9z M138.6,144.4c0.2,0,0.4-0.1,0.5-0.2
		s0.2-0.3,0.2-0.5c0-0.2-0.1-0.4-0.2-0.5c-0.1-0.1-0.3-0.2-0.5-0.2s-0.4,0.1-0.5,0.2c-0.1,0.2-0.2,0.3-0.2,0.5
		c0,0.2,0.1,0.4,0.2,0.5S138.4,144.4,138.6,144.4z M146.3,149.9c0-0.2-0.1-0.5-0.2-0.7c-0.2-0.2-0.4-0.4-0.6-0.5v1.5
		c0,0.3,0,0.5,0.1,0.5s0.1,0.1,0.2,0.1C146.1,150.9,146.3,150.5,146.3,149.9z"/>
	<path class="st4" d="M149.8,155.4h-1.1c1.8-2.8,2.6-5.6,2.6-8.4c0-1.1-0.1-2.2-0.4-3.3c-0.2-0.9-0.5-1.7-0.8-2.5
		c-0.2-0.5-0.7-1.4-1.4-2.6h1.1c1.1,1.5,1.9,2.9,2.4,4.4c0.5,1.3,0.7,2.6,0.7,4c0,1.6-0.3,3.1-0.9,4.6S150.6,154.3,149.8,155.4z"/>
</g>
<g class="st3">
	<path class="st4" d="M568.4,152.6h-1.5v-6.1c0-0.7-0.2-1.3-0.7-1.8s-1.1-0.7-1.9-0.7c-1.2,0-2,0.4-2.4,1.1c0.3,0.6,1,0.9,2,1v0.5
		c-0.4,0-0.7,0.1-0.9,0.4s-0.3,0.6-0.3,0.9v4.6h-1.5V148c0-0.6,0.3-1.1,0.8-1.5c-0.7-0.3-1.3-0.7-1.6-1.3c0.7-1.4,2-2.2,3.9-2.2
		c1.2,0,2.1,0.3,2.9,0.9s1.2,1.4,1.2,2.5V152.6z"/>
	<path class="st4" d="M577.8,150.7c0,0.6-0.2,1-0.6,1.4s-0.9,0.5-1.5,0.5h-2.3c-0.6,0-1.1-0.2-1.4-0.5s-0.6-0.8-0.6-1.4v-3.3
		c0-0.4,0.2-0.8,0.5-1.1s0.7-0.5,1.1-0.5c0.4,0,0.8,0.2,1.1,0.5s0.5,0.7,0.5,1.1s-0.2,0.8-0.5,1.1s-0.7,0.5-1.1,0.5h-0.1v1.9
		c0,0.5,0.3,0.8,0.9,0.8h1.6c0.6,0,0.9-0.3,0.9-0.8v-4.5c0-0.7-0.3-1.2-0.8-1.6s-1.1-0.6-1.9-0.6c-0.6,0-1.1,0.1-1.7,0.4
		c-0.6,0.2-1,0.6-1.2,1l-0.7-0.6c0.4-0.5,0.9-0.9,1.6-1.3s1.4-0.5,2.1-0.5c1.1,0,2.1,0.3,2.9,0.9c0.8,0.6,1.2,1.4,1.2,2.3V150.7z
		 M572.9,148.1c0.2,0,0.4-0.1,0.5-0.2c0.2-0.1,0.2-0.3,0.2-0.5s-0.1-0.4-0.2-0.5c-0.2-0.2-0.3-0.2-0.5-0.2c-0.2,0-0.4,0.1-0.5,0.2
		c-0.1,0.1-0.2,0.3-0.2,0.5s0.1,0.4,0.2,0.5C572.5,148.1,572.7,148.1,572.9,148.1z"/>
	<path class="st4" d="M585.4,152.6h-1.5c-1-1.4-1.8-2.5-2.6-3.1s-1.6-1-2.6-1v-0.8c1,0,1.8,0.3,2.6,0.8c0.8,0.5,1.6,1.4,2.6,2.7v-5
		h-0.1c-0.4,0-0.8-0.2-1.1-0.5s-0.5-0.7-0.5-1.1s0.2-0.8,0.5-1.1s0.7-0.5,1.1-0.5c0.4,0,0.8,0.2,1.1,0.5s0.5,0.7,0.5,1.1V152.6z
		 M583.9,145.4c0.2,0,0.4-0.1,0.5-0.2s0.2-0.3,0.2-0.5c0-0.2-0.1-0.4-0.2-0.5c-0.2-0.1-0.3-0.2-0.5-0.2c-0.2,0-0.4,0.1-0.5,0.2
		c-0.1,0.2-0.2,0.3-0.2,0.5c0,0.2,0.1,0.4,0.2,0.5S583.6,145.4,583.9,145.4z"/>
	<path class="st4" d="M595.8,152.6h-1.5v-7.8c0-0.4-0.1-0.6-0.3-0.6c-0.1,0-0.2,0.1-0.4,0.3s-0.4,0.5-0.6,0.9s-0.5,1-0.8,1.6
		s-0.7,1.7-1.2,3s-0.7,2.1-0.7,2.3v0.3h-1.5v-6.4h-0.1c-0.4,0-0.8-0.2-1.1-0.5s-0.5-0.7-0.5-1.1s0.2-0.8,0.5-1.1s0.7-0.5,1.1-0.5
		s0.8,0.2,1.1,0.5s0.5,0.7,0.5,1.1v4.7c0.6-1.7,1.3-3.2,2-4.4c0.7-1.2,1.4-1.8,2.2-1.8c0.9,0,1.4,0.6,1.4,1.7V152.6z M588.6,145.4
		c0.2,0,0.4-0.1,0.5-0.2s0.2-0.3,0.2-0.5c0-0.2-0.1-0.4-0.2-0.5c-0.1-0.1-0.3-0.2-0.5-0.2s-0.4,0.1-0.5,0.2
		c-0.1,0.2-0.2,0.3-0.2,0.5c0,0.2,0.1,0.4,0.2,0.5S588.4,145.4,588.6,145.4z"/>
	<path class="st4" d="M595.8,156.4h-0.8v-0.9c-0.2,0-0.4-0.1-0.5-0.2c-0.1-0.1-0.2-0.3-0.2-0.5c0-0.2,0.1-0.4,0.2-0.5
		s0.3-0.2,0.5-0.2c0.3,0,0.5,0.1,0.6,0.2s0.2,0.3,0.2,0.6V156.4z M594.9,155.1c0.2,0,0.4-0.1,0.4-0.4s-0.1-0.4-0.4-0.4
		s-0.4,0.1-0.4,0.4S594.7,155.1,594.9,155.1z"/>
	<path class="st4" d="M605.9,148.9c1.1,0.4,1.6,1,1.6,2c0,0.5-0.1,0.9-0.4,1.3s-0.6,0.5-1.1,0.5c-0.5,0-0.9-0.1-1.2-0.4
		s-0.4-0.7-0.4-1.4v-1.1c-1.5,0.3-2.8,1.3-3.9,2.9h-1.5v-6.4H599c-0.4,0-0.8-0.2-1.1-0.5s-0.5-0.7-0.5-1.1s0.2-0.8,0.5-1.1
		s0.7-0.5,1.1-0.5s0.8,0.2,1.1,0.5s0.5,0.7,0.5,1.1v6.7c1-1.3,2.3-2.1,3.9-2.4v-5.6h1.5V148.9z M599,145.4c0.2,0,0.4-0.1,0.5-0.2
		s0.2-0.3,0.2-0.5c0-0.2-0.1-0.4-0.2-0.5c-0.1-0.1-0.3-0.2-0.5-0.2s-0.4,0.1-0.5,0.2c-0.1,0.2-0.2,0.3-0.2,0.5
		c0,0.2,0.1,0.4,0.2,0.5S598.8,145.4,599,145.4z M606.7,150.9c0-0.2-0.1-0.5-0.2-0.7c-0.2-0.2-0.4-0.4-0.6-0.5v1.5
		c0,0.3,0,0.5,0.1,0.5s0.1,0.1,0.2,0.1C606.5,151.9,606.7,151.5,606.7,150.9z"/>
	<path class="st4" d="M616.4,150.7c0,0.6-0.2,1-0.6,1.4s-0.9,0.5-1.5,0.5H612c-0.6,0-1.1-0.2-1.5-0.5s-0.6-0.8-0.6-1.4v-3.3
		c0-0.4,0.2-0.8,0.5-1.1s0.7-0.5,1.1-0.5c0.4,0,0.8,0.2,1.1,0.5s0.5,0.7,0.5,1.1s-0.2,0.8-0.5,1.1s-0.7,0.5-1.1,0.5h-0.1v1.9
		c0,0.5,0.3,0.8,0.9,0.8h1.6c0.6,0,0.9-0.3,0.9-0.8v-4.5c0-0.7-0.3-1.2-0.8-1.6s-1.1-0.6-1.9-0.6c-0.6,0-1.1,0.1-1.7,0.4
		c-0.6,0.2-1,0.6-1.2,1l-0.7-0.6c0.4-0.5,0.9-0.9,1.6-1.3s1.4-0.5,2.1-0.5c1.1,0,2.1,0.3,2.9,0.9c0.8,0.6,1.2,1.4,1.2,2.3V150.7z
		 M611.5,148.1c0.2,0,0.4-0.1,0.5-0.2c0.2-0.1,0.2-0.3,0.2-0.5s-0.1-0.4-0.2-0.5c-0.2-0.2-0.3-0.2-0.5-0.2c-0.2,0-0.4,0.1-0.5,0.2
		c-0.1,0.1-0.2,0.3-0.2,0.5s0.1,0.4,0.2,0.5C611.1,148.1,611.3,148.1,611.5,148.1z"/>
	<path class="st4" d="M625.8,152.6h-1.5v-0.4c-0.3-0.8-1-1.8-1.8-3.1c-0.9-1.3-1.5-1.9-1.9-1.9c-0.2,0-0.4,0.2-0.4,0.6v1.8h0.1
		c0.4,0,0.8,0.2,1.1,0.5s0.5,0.7,0.5,1.1s-0.2,0.8-0.5,1.1s-0.7,0.5-1.1,0.5s-0.8-0.2-1.1-0.5s-0.5-0.7-0.5-1.1v-3.4
		c0-1.2,0.5-1.7,1.4-1.7c0.4,0,0.8,0.1,1.1,0.4s0.9,1,1.7,2s1.2,1.7,1.3,1.9v-4.1c0-0.4-0.1-0.7-0.2-1c-0.6,0.3-1.3,0.4-1.9,0.4
		v-0.4c0.5-0.1,0.9-0.3,1.4-0.6c-0.5-0.4-1.2-0.6-1.9-0.6c-0.6,0-1.1,0.1-1.7,0.4c-0.6,0.2-1,0.6-1.2,1l-0.7-0.6
		c0.4-0.5,0.9-0.9,1.6-1.3s1.4-0.5,2.1-0.5c1,0,1.9,0.3,2.7,0.8c0.3-0.4,0.6-0.7,0.8-1.2l1,0.7c-0.3,0.5-0.6,0.9-1,1.2
		c0.4,0.5,0.6,1.1,0.6,1.7V152.6z M620.3,151.9c0.2,0,0.4-0.1,0.5-0.2c0.1-0.1,0.2-0.3,0.2-0.5s-0.1-0.4-0.2-0.5
		c-0.1-0.2-0.3-0.2-0.5-0.2s-0.4,0.1-0.5,0.2c-0.1,0.1-0.2,0.3-0.2,0.5s0.1,0.4,0.2,0.5C619.9,151.8,620.1,151.9,620.3,151.9z"/>
	<path class="st4" d="M626.8,138.6c-0.2,1.1-0.6,1.9-1.4,2.5s-1.8,0.9-2.9,0.9c-0.8,0-1.3-0.2-1.8-0.5s-0.6-0.8-0.6-1.3
		c0-0.4,0.2-0.8,0.5-1.1s0.7-0.5,1.1-0.5s0.8,0.2,1.1,0.5s0.5,0.7,0.5,1.1c0,0.4-0.1,0.7-0.4,1c0.8,0,1.4-0.2,1.9-0.7
		s0.8-1.1,0.9-1.8H626.8z M621.5,140.9c0.2,0,0.4-0.1,0.5-0.2c0.1-0.2,0.2-0.3,0.2-0.5s-0.1-0.4-0.2-0.5c-0.1-0.1-0.3-0.2-0.5-0.2
		s-0.4,0.1-0.5,0.2c-0.1,0.2-0.2,0.3-0.2,0.5s0.1,0.4,0.2,0.5C621.1,140.9,621.3,140.9,621.5,140.9z"/>
	<path class="st4" d="M633.4,152.6h-1.5c-1-1.4-1.8-2.5-2.6-3.1s-1.6-1-2.6-1v-0.8c1,0,1.8,0.3,2.6,0.8c0.8,0.5,1.6,1.4,2.6,2.7v-5
		h-0.1c-0.4,0-0.8-0.2-1.1-0.5s-0.5-0.7-0.5-1.1s0.2-0.8,0.5-1.1s0.7-0.5,1.1-0.5c0.4,0,0.8,0.2,1.1,0.5s0.5,0.7,0.5,1.1V152.6z
		 M631.9,145.4c0.2,0,0.4-0.1,0.5-0.2s0.2-0.3,0.2-0.5c0-0.2-0.1-0.4-0.2-0.5c-0.2-0.1-0.3-0.2-0.5-0.2c-0.2,0-0.4,0.1-0.5,0.2
		c-0.1,0.2-0.2,0.3-0.2,0.5c0,0.2,0.1,0.4,0.2,0.5S631.7,145.4,631.9,145.4z"/>
	<path class="st4" d="M644.3,152.6h-1.5v-5.1c0-0.4-0.1-0.7-0.2-0.8c-1.7,1.3-2.9,2.4-3.5,3.3s-1,1.8-1,2.6h-1.5v-6.4h-0.1
		c-0.4,0-0.8-0.2-1.1-0.5s-0.5-0.7-0.5-1.1s0.2-0.8,0.5-1.1s0.7-0.5,1.1-0.5s0.8,0.2,1.1,0.5s0.5,0.7,0.5,1.1v5.4
		c0.4-1,1.7-2.3,3.9-4c-0.7-0.4-1-0.9-1-1.4c0-0.4,0.2-0.8,0.5-1.1s0.7-0.5,1.1-0.5s0.8,0.2,1.1,0.5s0.5,0.7,0.5,1.1
		c0,0.6-0.2,1-0.7,1.4c0.5,0.3,0.8,0.8,0.8,1.5V152.6z M636.6,145.4c0.2,0,0.4-0.1,0.5-0.2s0.2-0.3,0.2-0.5c0-0.2-0.1-0.4-0.2-0.5
		c-0.1-0.1-0.3-0.2-0.5-0.2s-0.4,0.1-0.5,0.2c-0.1,0.2-0.2,0.3-0.2,0.5c0,0.2,0.1,0.4,0.2,0.5S636.4,145.4,636.6,145.4z
		 M642.8,145.6c0.4-0.3,0.7-0.6,0.7-1c0-0.2-0.1-0.4-0.2-0.5c-0.1-0.1-0.3-0.2-0.5-0.2s-0.4,0.1-0.5,0.2c-0.1,0.2-0.2,0.3-0.2,0.5
		C641.9,145,642.2,145.3,642.8,145.6z"/>
	<path class="st4" d="M651.9,152.6h-1.5v-6.3c0-1.5-0.7-2.2-2-2.2c-0.9,0-1.6,0.4-2.2,1.3l-0.7-0.6c0.8-1.1,1.8-1.7,3-1.7
		c1,0,1.8,0.3,2.4,0.9s0.9,1.4,0.9,2.4V152.6z"/>
	<path class="st4" d="M661.2,143.8c-0.4,0.5-0.9,0.8-1.6,0.8c-0.3,0-0.7-0.1-1.3-0.3s-1-0.3-1.3-0.3c-0.8,0-1.3,0.3-1.7,0.9
		c0.4-0.1,0.8-0.1,1.2-0.1c1.3,0,2.3,0.3,3,0.8s1,1.2,1,2.1v3.3c0,0.4-0.2,0.8-0.5,1.1s-0.7,0.5-1.1,0.5c-0.4,0-0.8-0.2-1.1-0.5
		s-0.5-0.7-0.5-1.1s0.2-0.8,0.5-1.1s0.7-0.5,1.1-0.5h0.1V148c0-0.9-0.2-1.4-0.7-1.7s-1.2-0.4-2.3-0.4c-0.8,0-1.4,0.1-2,0.3
		c0.1-0.9,0.4-1.7,0.9-2.2c0.5-0.5,1.2-0.8,2-0.8c0.4,0,0.9,0.1,1.5,0.3c0.6,0.2,0.9,0.3,1.1,0.3c0.4,0,0.6-0.2,0.8-0.5L661.2,143.8
		z M659.1,151.9c0.2,0,0.4-0.1,0.5-0.2c0.2-0.1,0.2-0.3,0.2-0.5s-0.1-0.4-0.2-0.5c-0.2-0.2-0.3-0.2-0.5-0.2c-0.2,0-0.4,0.1-0.6,0.2
		c-0.2,0.1-0.2,0.3-0.2,0.5s0.1,0.4,0.2,0.5C658.7,151.8,658.8,151.9,659.1,151.9z"/>
	<path class="st4" d="M660.6,142h-7c0.5-1.9,1.7-2.8,3.5-2.8S660.1,140.1,660.6,142z M659.4,141.2c-0.4-0.9-1.2-1.4-2.3-1.4
		s-1.9,0.5-2.3,1.4H659.4z"/>
	<path class="st4" d="M671.1,152.6h-1.5c-1-2-2.4-3.1-4.3-3.3v1.5c0,1.2-0.6,1.8-1.7,1.8c-0.5,0-0.9-0.2-1.2-0.5s-0.5-0.7-0.5-1.3
		c0-0.6,0.2-1.1,0.5-1.5c0.3-0.4,0.8-0.7,1.4-0.9v-2.4h-0.1c-0.4,0-0.8-0.2-1.1-0.5s-0.5-0.7-0.5-1.1s0.2-0.8,0.5-1.1
		s0.7-0.5,1.1-0.5s0.8,0.2,1.1,0.5s0.5,0.7,0.5,1.1v3.9c1.6,0.2,3.1,1,4.3,2.4v-7.7h1.5V152.6z M663.9,151v-1.7
		c-0.3,0.1-0.6,0.3-0.8,0.6s-0.3,0.6-0.3,1c0,0.3,0.1,0.5,0.2,0.7c0.1,0.2,0.3,0.3,0.5,0.3C663.7,151.9,663.9,151.6,663.9,151z
		 M663.8,145.4c0.2,0,0.4-0.1,0.5-0.2s0.2-0.3,0.2-0.5c0-0.2-0.1-0.4-0.2-0.5c-0.1-0.1-0.3-0.2-0.5-0.2s-0.4,0.1-0.5,0.2
		c-0.1,0.2-0.2,0.3-0.2,0.5c0,0.2,0.1,0.4,0.2,0.5S663.6,145.4,663.8,145.4z"/>
	<path class="st4" d="M681.5,152.6H680v-7.8c0-0.4-0.1-0.6-0.3-0.6c-0.1,0-0.2,0.1-0.4,0.3s-0.4,0.5-0.6,0.9s-0.5,1-0.8,1.6
		s-0.7,1.7-1.2,3s-0.7,2.1-0.7,2.3v0.3h-1.5v-6.4h-0.1c-0.4,0-0.8-0.2-1.1-0.5s-0.5-0.7-0.5-1.1s0.2-0.8,0.5-1.1s0.7-0.5,1.1-0.5
		s0.8,0.2,1.1,0.5s0.5,0.7,0.5,1.1v4.7c0.6-1.7,1.3-3.2,2-4.4c0.7-1.2,1.4-1.8,2.2-1.8c0.9,0,1.4,0.6,1.4,1.7V152.6z M674.3,145.4
		c0.2,0,0.4-0.1,0.5-0.2s0.2-0.3,0.2-0.5c0-0.2-0.1-0.4-0.2-0.5c-0.1-0.1-0.3-0.2-0.5-0.2s-0.4,0.1-0.5,0.2
		c-0.1,0.2-0.2,0.3-0.2,0.5c0,0.2,0.1,0.4,0.2,0.5S674.1,145.4,674.3,145.4z"/>
	<path class="st4" d="M690.8,143.8c-0.4,0.5-0.9,0.8-1.6,0.8c-0.3,0-0.7-0.1-1.3-0.3s-1-0.3-1.3-0.3c-0.8,0-1.3,0.3-1.7,0.9
		c0.4-0.1,0.8-0.1,1.2-0.1c1.3,0,2.3,0.3,3,0.8s1,1.2,1,2.1v3.3c0,0.4-0.2,0.8-0.5,1.1s-0.7,0.5-1.1,0.5c-0.4,0-0.8-0.2-1.1-0.5
		s-0.5-0.7-0.5-1.1s0.2-0.8,0.5-1.1s0.7-0.5,1.1-0.5h0.1V148c0-0.9-0.2-1.4-0.7-1.7s-1.2-0.4-2.3-0.4c-0.8,0-1.4,0.1-2,0.3
		c0.1-0.9,0.4-1.7,0.9-2.2c0.5-0.5,1.2-0.8,2-0.8c0.4,0,0.9,0.1,1.5,0.3c0.6,0.2,0.9,0.3,1.1,0.3c0.4,0,0.6-0.2,0.8-0.5L690.8,143.8
		z M688.6,151.9c0.2,0,0.4-0.1,0.5-0.2c0.2-0.1,0.2-0.3,0.2-0.5s-0.1-0.4-0.2-0.5c-0.2-0.2-0.3-0.2-0.5-0.2c-0.2,0-0.4,0.1-0.6,0.2
		c-0.2,0.1-0.2,0.3-0.2,0.5s0.1,0.4,0.2,0.5C688.2,151.8,688.4,151.9,688.6,151.9z"/>
	<path class="st4" d="M691.2,138.6c-0.2,1.1-0.6,1.9-1.4,2.5s-1.8,0.9-2.9,0.9c-0.8,0-1.3-0.2-1.8-0.5s-0.6-0.8-0.6-1.3
		c0-0.4,0.2-0.8,0.5-1.1s0.7-0.5,1.1-0.5s0.8,0.2,1.1,0.5s0.5,0.7,0.5,1.1c0,0.4-0.1,0.7-0.4,1c0.8,0,1.4-0.2,1.9-0.7
		s0.8-1.1,0.9-1.8H691.2z M685.9,140.9c0.2,0,0.4-0.1,0.5-0.2c0.1-0.2,0.2-0.3,0.2-0.5s-0.1-0.4-0.2-0.5c-0.1-0.1-0.3-0.2-0.5-0.2
		s-0.4,0.1-0.5,0.2c-0.1,0.2-0.2,0.3-0.2,0.5s0.1,0.4,0.2,0.5C685.5,140.9,685.7,140.9,685.9,140.9z"/>
	<path class="st4" d="M701.9,152.6h-1.5c0-0.6-0.4-1.7-1.3-3.2s-1.3-2.7-1.5-3.6c-0.1,0.9-0.6,2.1-1.5,3.6s-1.3,2.5-1.3,3.2h-1.5
		v-6.4h-0.1c-0.4,0-0.8-0.2-1.1-0.5s-0.5-0.7-0.5-1.1s0.2-0.8,0.5-1.1s0.7-0.5,1.1-0.5s0.8,0.2,1.1,0.5s0.5,0.7,0.5,1.1v5.1
		c0.2-0.3,0.5-0.9,0.9-1.7c0.9-1.5,1.3-3.1,1.3-4.8h1c0,1.7,0.4,3.3,1.3,4.8c0.5,0.8,0.8,1.3,0.9,1.7v-6.5h1.5V152.6z M693.4,145.4
		c0.2,0,0.4-0.1,0.5-0.2s0.2-0.3,0.2-0.5c0-0.2-0.1-0.4-0.2-0.5c-0.1-0.1-0.3-0.2-0.5-0.2s-0.4,0.1-0.5,0.2
		c-0.1,0.2-0.2,0.3-0.2,0.5c0,0.2,0.1,0.4,0.2,0.5S693.2,145.4,693.4,145.4z"/>
	<path class="st4" d="M710.9,150.7c0,0.6-0.2,1-0.6,1.4s-0.9,0.5-1.5,0.5H704v-2.9c0-0.7,0.3-1.3,0.8-1.6c-0.6-0.3-0.8-0.8-0.8-1.6
		v-1.9c0-0.4,0.2-0.8,0.5-1.1s0.7-0.5,1.1-0.5s0.8,0.2,1.1,0.5s0.5,0.7,0.5,1.1s-0.2,0.8-0.5,1.1s-0.7,0.5-1.1,0.5h-0.1v0.4
		c0,0.4,0.1,0.7,0.3,0.9s0.5,0.3,0.9,0.3v0.5c-0.4,0-0.7,0.1-0.9,0.3c-0.2,0.2-0.3,0.5-0.3,0.9v1.9h3c0.6,0,0.9-0.3,0.9-0.8v-7.5
		h1.5V150.7z M705.6,145.4c0.2,0,0.4-0.1,0.5-0.2s0.2-0.3,0.2-0.5c0-0.2-0.1-0.4-0.2-0.5c-0.1-0.1-0.3-0.2-0.5-0.2s-0.4,0.1-0.5,0.2
		c-0.1,0.2-0.2,0.3-0.2,0.5c0,0.2,0.1,0.4,0.2,0.5S705.3,145.4,705.6,145.4z"/>
	<path class="st4" d="M712.4,138.1c0,0.3-0.1,0.5-0.3,0.7s-0.6,0.4-1.2,0.6s-0.9,0.3-1.1,0.5c0.3,0,0.5,0.1,0.8,0.3s0.3,0.5,0.3,0.8
		c0,0.3-0.1,0.5-0.3,0.8s-0.5,0.3-0.8,0.3c-0.3,0-0.6-0.1-0.8-0.4c-0.2-0.2-0.3-0.5-0.3-0.9c0-0.9,0.5-1.5,1.6-1.8
		c0.5-0.2,0.9-0.3,1.1-0.4c0.2-0.1,0.3-0.2,0.3-0.4H712.4z M709.8,141.4c0.2,0,0.3-0.1,0.4-0.2c0.1-0.1,0.2-0.2,0.2-0.4
		s-0.1-0.3-0.2-0.4s-0.2-0.2-0.4-0.2s-0.3,0.1-0.4,0.2s-0.2,0.2-0.2,0.4s0.1,0.3,0.2,0.4C709.6,141.4,709.7,141.4,709.8,141.4z"/>
	<path class="st4" d="M721.3,152.6h-1.5v-7.8c0-0.4-0.1-0.6-0.3-0.6c-0.1,0-0.2,0.1-0.4,0.3s-0.4,0.5-0.6,0.9s-0.5,1-0.8,1.6
		s-0.7,1.7-1.2,3s-0.7,2.1-0.7,2.3v0.3h-1.5v-6.4h-0.1c-0.4,0-0.8-0.2-1.1-0.5s-0.5-0.7-0.5-1.1s0.2-0.8,0.5-1.1s0.7-0.5,1.1-0.5
		s0.8,0.2,1.1,0.5s0.5,0.7,0.5,1.1v4.7c0.6-1.7,1.3-3.2,2-4.4c0.7-1.2,1.4-1.8,2.2-1.8c0.9,0,1.4,0.6,1.4,1.7V152.6z M714.1,145.4
		c0.2,0,0.4-0.1,0.5-0.2s0.2-0.3,0.2-0.5c0-0.2-0.1-0.4-0.2-0.5c-0.1-0.1-0.3-0.2-0.5-0.2s-0.4,0.1-0.5,0.2
		c-0.1,0.2-0.2,0.3-0.2,0.5c0,0.2,0.1,0.4,0.2,0.5S713.9,145.4,714.1,145.4z"/>
	<path class="st4" d="M722.2,138.6c-0.2,1.1-0.6,1.9-1.4,2.5s-1.8,0.9-2.9,0.9c-0.8,0-1.3-0.2-1.8-0.5s-0.6-0.8-0.6-1.3
		c0-0.4,0.2-0.8,0.5-1.1s0.7-0.5,1.1-0.5s0.8,0.2,1.1,0.5s0.5,0.7,0.5,1.1c0,0.4-0.1,0.7-0.4,1c0.8,0,1.4-0.2,1.9-0.7
		s0.8-1.1,0.9-1.8H722.2z M717,140.9c0.2,0,0.4-0.1,0.5-0.2c0.1-0.2,0.2-0.3,0.2-0.5s-0.1-0.4-0.2-0.5c-0.1-0.1-0.3-0.2-0.5-0.2
		s-0.4,0.1-0.5,0.2c-0.1,0.2-0.2,0.3-0.2,0.5s0.1,0.4,0.2,0.5C716.6,140.9,716.8,140.9,717,140.9z"/>
	<path class="st4" d="M720.9,142h-0.7V139h0.7V142z"/>
	<path class="st4" d="M730,151.1c0,0.4-0.2,0.8-0.5,1.1s-0.7,0.5-1.1,0.5c-0.4,0-0.8-0.2-1.1-0.5s-0.5-0.7-0.5-1.1s0.2-0.8,0.5-1.1
		s0.7-0.5,1.1-0.5h0.1v-3.3c0-0.7-0.2-1.2-0.6-1.6s-1-0.6-1.7-0.6c-1.1,0-1.9,0.4-2.5,1.3l-0.7-0.6c0.9-1.1,2-1.7,3.3-1.7
		c1.1,0,2,0.3,2.7,0.9s1.1,1.4,1.1,2.3V151.1z M728.4,151.9c0.2,0,0.4-0.1,0.5-0.2c0.2-0.1,0.2-0.3,0.2-0.5s-0.1-0.4-0.2-0.5
		c-0.2-0.2-0.3-0.2-0.5-0.2c-0.2,0-0.4,0.1-0.6,0.2c-0.2,0.1-0.2,0.3-0.2,0.5s0.1,0.4,0.2,0.5C728,151.8,728.2,151.9,728.4,151.9z"
		/>
	<path class="st4" d="M736.1,149.5L736.1,149.5c0.5,0,0.9,0.2,1.2,0.5s0.5,0.7,0.5,1.1s-0.2,0.8-0.5,1.1s-0.7,0.5-1.1,0.5
		s-0.8-0.2-1.1-0.5s-0.5-0.7-0.5-1.1v-10.2c0-0.8-0.2-1.4-0.5-1.8s-0.8-0.6-1.5-0.6c-0.5,0-1,0.1-1.6,0.2c0.1-0.9,0.4-1.5,1-2
		s1.2-0.8,2-0.8c0.4,0,0.9,0.1,1.5,0.3s0.9,0.3,1.1,0.3c0.4,0,0.6-0.2,0.8-0.5l0.7,0.7c-0.4,0.5-0.9,0.8-1.6,0.8
		c-0.3,0-0.7-0.1-1.3-0.3s-1-0.3-1.3-0.3c-0.8,0-1.3,0.3-1.7,0.9c0.4-0.1,0.6-0.1,0.8-0.1c0.9,0,1.6,0.2,2.1,0.7
		c0.5,0.5,0.8,1.2,0.8,2.2V149.5z M736.2,151.9c0.2,0,0.4-0.1,0.5-0.2c0.1-0.1,0.2-0.3,0.2-0.5s-0.1-0.4-0.2-0.5
		c-0.1-0.2-0.3-0.2-0.5-0.2s-0.4,0.1-0.5,0.2c-0.1,0.1-0.2,0.3-0.2,0.5s0.1,0.4,0.2,0.5C735.8,151.8,735.9,151.9,736.2,151.9z"/>
	<path class="st4" d="M746.3,152.6h-1.5v-0.3c-0.6-1.6-1.2-2.8-1.8-3.8c-0.6-0.9-1-1.4-1.2-1.4c-0.2,0-0.3,0.2-0.3,0.6v1.8h0.1
		c0.4,0,0.8,0.2,1.1,0.5s0.5,0.7,0.5,1.1s-0.2,0.8-0.5,1.1s-0.7,0.5-1.1,0.5s-0.8-0.2-1.1-0.5s-0.5-0.7-0.5-1.1v-3.4
		c0-1.2,0.5-1.7,1.4-1.7c1,0,2.2,1.4,3.4,4.3v-4c0-0.7-0.2-1.2-0.6-1.6s-1-0.6-1.7-0.6c-1.1,0-1.9,0.4-2.5,1.3l-0.7-0.6
		c0.9-1.1,2-1.7,3.3-1.7c1.1,0,2,0.3,2.7,0.9s1.1,1.4,1.1,2.3V152.6z M741.5,151.9c0.2,0,0.4-0.1,0.5-0.2c0.1-0.1,0.2-0.3,0.2-0.5
		s-0.1-0.4-0.2-0.5c-0.1-0.2-0.3-0.2-0.5-0.2s-0.4,0.1-0.5,0.2c-0.1,0.1-0.2,0.3-0.2,0.5s0.1,0.4,0.2,0.5
		C741.1,151.8,741.3,151.9,741.5,151.9z"/>
	<path class="st4" d="M756.1,152.6h-1.5v-6.1c0-0.7-0.2-1.3-0.7-1.8s-1.1-0.7-1.9-0.7c-1.2,0-2,0.4-2.4,1.1c0.3,0.6,1,0.9,2,1v0.5
		c-0.4,0-0.7,0.1-0.9,0.4s-0.3,0.6-0.3,0.9v4.6h-1.5V148c0-0.6,0.3-1.1,0.8-1.5c-0.7-0.3-1.3-0.7-1.6-1.3c0.7-1.4,2-2.2,3.9-2.2
		c1.2,0,2.1,0.3,2.9,0.9s1.2,1.4,1.2,2.5V152.6z"/>
	<path class="st4" d="M763.5,152.6v-12.9h1.7v5.3h6.7v-5.3h1.7v12.9h-1.7v-6.1h-6.7v6.1H763.5z"/>
	<path class="st4" d="M775.6,147.9c0-1.7,0.5-3,1.4-3.8c0.8-0.7,1.8-1,2.9-1c1.3,0,2.3,0.4,3.1,1.3s1.2,2,1.2,3.5
		c0,1.2-0.2,2.1-0.5,2.8c-0.4,0.7-0.9,1.2-1.6,1.6s-1.4,0.6-2.3,0.6c-1.3,0-2.4-0.4-3.2-1.3S775.6,149.5,775.6,147.9z M777.3,147.9
		c0,1.2,0.3,2.1,0.8,2.7c0.5,0.6,1.2,0.9,2,0.9c0.8,0,1.4-0.3,2-0.9s0.8-1.5,0.8-2.7c0-1.2-0.3-2-0.8-2.6c-0.5-0.6-1.2-0.9-2-0.9
		c-0.8,0-1.4,0.3-2,0.9S777.3,146.7,777.3,147.9z"/>
	<path class="st4" d="M792.4,152.6v-1.4c-0.7,1.1-1.7,1.6-3,1.6c-0.6,0-1.1-0.1-1.5-0.3s-0.8-0.5-1.1-0.8s-0.4-0.7-0.5-1.2
		c-0.1-0.3-0.1-0.8-0.1-1.5v-5.8h1.6v5.2c0,0.8,0,1.4,0.1,1.7c0.1,0.4,0.3,0.7,0.6,1c0.3,0.2,0.7,0.4,1.2,0.4s0.9-0.1,1.3-0.4
		s0.7-0.6,0.9-1c0.2-0.4,0.3-1,0.3-1.8v-5h1.6v9.3H792.4z"/>
	<path class="st4" d="M795.6,149.8l1.6-0.2c0.1,0.6,0.3,1.1,0.7,1.4s1,0.5,1.7,0.5c0.7,0,1.3-0.1,1.6-0.4s0.5-0.6,0.5-1
		c0-0.4-0.2-0.6-0.5-0.8c-0.2-0.1-0.8-0.3-1.6-0.5c-1.2-0.3-2-0.5-2.4-0.8s-0.8-0.5-1-0.9c-0.2-0.4-0.3-0.8-0.3-1.3
		c0-0.4,0.1-0.8,0.3-1.2c0.2-0.4,0.4-0.6,0.8-0.9c0.2-0.2,0.6-0.3,1-0.5s0.9-0.2,1.4-0.2c0.7,0,1.4,0.1,1.9,0.3s1,0.5,1.2,0.9
		c0.3,0.4,0.4,0.8,0.5,1.4l-1.5,0.2c-0.1-0.5-0.3-0.9-0.6-1.1s-0.8-0.4-1.4-0.4c-0.7,0-1.2,0.1-1.6,0.4s-0.5,0.5-0.5,0.8
		c0,0.2,0.1,0.4,0.2,0.6c0.1,0.2,0.3,0.3,0.6,0.4c0.2,0.1,0.6,0.2,1.4,0.4c1.1,0.3,1.9,0.5,2.3,0.7s0.8,0.5,1,0.8s0.4,0.8,0.4,1.4
		c0,0.5-0.2,1-0.5,1.5c-0.3,0.5-0.8,0.8-1.3,1.1c-0.6,0.3-1.2,0.4-2,0.4c-1.2,0-2.1-0.3-2.8-0.8S795.8,150.8,795.6,149.8z"/>
	<path class="st4" d="M811.6,149.6l1.6,0.2c-0.3,1-0.7,1.7-1.4,2.2s-1.6,0.8-2.7,0.8c-1.4,0-2.4-0.4-3.2-1.3c-0.8-0.8-1.2-2-1.2-3.5
		c0-1.6,0.4-2.8,1.2-3.7s1.9-1.3,3.1-1.3c1.2,0,2.3,0.4,3.1,1.3s1.2,2,1.2,3.6c0,0.1,0,0.2,0,0.4h-7c0.1,1,0.3,1.8,0.9,2.4
		s1.2,0.8,2,0.8c0.6,0,1.1-0.2,1.5-0.5S811.4,150.3,811.6,149.6z M806.4,147h5.2c-0.1-0.8-0.3-1.4-0.6-1.8c-0.5-0.6-1.2-0.9-2-0.9
		c-0.7,0-1.3,0.2-1.8,0.7S806.5,146.2,806.4,147z"/>
	<path class="st4" d="M818.7,152.6v-11.4h-4.2v-1.5h10.2v1.5h-4.3v11.4H818.7z"/>
	<path class="st4" d="M823.7,147.9c0-1.7,0.5-3,1.4-3.8c0.8-0.7,1.8-1,2.9-1c1.3,0,2.3,0.4,3.1,1.3s1.2,2,1.2,3.5
		c0,1.2-0.2,2.1-0.5,2.8c-0.4,0.7-0.9,1.2-1.6,1.6s-1.4,0.6-2.3,0.6c-1.3,0-2.4-0.4-3.2-1.3S823.7,149.5,823.7,147.9z M825.3,147.9
		c0,1.2,0.3,2.1,0.8,2.7c0.5,0.6,1.2,0.9,2,0.9c0.8,0,1.4-0.3,2-0.9s0.8-1.5,0.8-2.7c0-1.2-0.3-2-0.8-2.6c-0.5-0.6-1.2-0.9-2-0.9
		c-0.8,0-1.4,0.3-2,0.9S825.3,146.7,825.3,147.9z"/>
	<path class="st4" d="M834.3,152.6v-12.9h1.6v7.3l3.7-3.8h2l-3.6,3.5l3.9,5.9h-2l-3.1-4.8l-1.1,1.1v3.7H834.3z"/>
	<path class="st4" d="M849.7,149.6l1.6,0.2c-0.3,1-0.7,1.7-1.4,2.2s-1.6,0.8-2.7,0.8c-1.4,0-2.4-0.4-3.2-1.3c-0.8-0.8-1.2-2-1.2-3.5
		c0-1.6,0.4-2.8,1.2-3.7s1.9-1.3,3.1-1.3c1.2,0,2.3,0.4,3.1,1.3s1.2,2,1.2,3.6c0,0.1,0,0.2,0,0.4h-7c0.1,1,0.3,1.8,0.9,2.4
		s1.2,0.8,2,0.8c0.6,0,1.1-0.2,1.5-0.5S849.4,150.3,849.7,149.6z M844.5,147h5.2c-0.1-0.8-0.3-1.4-0.6-1.8c-0.5-0.6-1.2-0.9-2-0.9
		c-0.7,0-1.3,0.2-1.8,0.7S844.5,146.2,844.5,147z"/>
	<path class="st4" d="M853.3,152.6v-9.3h1.4v1.3c0.7-1,1.7-1.5,3-1.5c0.6,0,1.1,0.1,1.6,0.3c0.5,0.2,0.8,0.5,1.1,0.8
		s0.4,0.7,0.5,1.2c0.1,0.3,0.1,0.8,0.1,1.5v5.7h-1.6v-5.7c0-0.6-0.1-1.1-0.2-1.4s-0.3-0.6-0.7-0.8c-0.3-0.2-0.7-0.3-1.1-0.3
		c-0.7,0-1.3,0.2-1.7,0.6s-0.7,1.2-0.7,2.4v5.1H853.3z"/>
	<path class="st4" d="M596.4,178c-0.9-1.1-1.6-2.4-2.2-3.9s-0.9-3-0.9-4.6c0-1.4,0.2-2.7,0.7-4c0.5-1.5,1.3-3,2.4-4.4h1.1
		c-0.7,1.2-1.2,2.1-1.4,2.6c-0.4,0.8-0.6,1.7-0.8,2.5c-0.3,1.1-0.4,2.2-0.4,3.3c0,2.8,0.9,5.6,2.6,8.4H596.4z"/>
	<path class="st4" d="M607.1,174.2h-1.5v-6.1c0-0.7-0.2-1.3-0.7-1.8s-1.1-0.7-1.9-0.7c-1.2,0-2,0.4-2.4,1.1c0.3,0.6,1,0.9,2,1v0.5
		c-0.4,0-0.7,0.1-0.9,0.4s-0.3,0.6-0.3,0.9v4.6h-1.5v-4.6c0-0.6,0.3-1.1,0.8-1.5c-0.7-0.3-1.3-0.7-1.6-1.3c0.7-1.4,2-2.2,3.9-2.2
		c1.2,0,2.1,0.3,2.9,0.9s1.2,1.4,1.2,2.5V174.2z"/>
	<path class="st4" d="M616.5,172.3c0,0.6-0.2,1-0.6,1.4s-0.9,0.5-1.5,0.5h-2.3c-0.6,0-1.1-0.2-1.5-0.5s-0.6-0.8-0.6-1.4V169
		c0-0.4,0.2-0.8,0.5-1.1s0.7-0.5,1.1-0.5c0.4,0,0.8,0.2,1.1,0.5c0.3,0.3,0.5,0.7,0.5,1.1s-0.2,0.8-0.5,1.1c-0.3,0.3-0.7,0.5-1.1,0.5
		h-0.1v1.9c0,0.5,0.3,0.8,0.9,0.8h1.6c0.6,0,0.9-0.3,0.9-0.8v-4.5c0-0.7-0.3-1.2-0.8-1.6c-0.5-0.4-1.1-0.6-1.9-0.6
		c-0.6,0-1.1,0.1-1.7,0.4c-0.6,0.2-1,0.6-1.2,1l-0.7-0.6c0.4-0.5,0.9-0.9,1.6-1.3c0.7-0.3,1.4-0.5,2.1-0.5c1.1,0,2.1,0.3,2.9,0.9
		c0.8,0.6,1.2,1.4,1.2,2.3V172.3z M611.6,169.7c0.2,0,0.4-0.1,0.5-0.2c0.2-0.1,0.2-0.3,0.2-0.5s-0.1-0.4-0.2-0.5
		c-0.2-0.2-0.3-0.2-0.5-0.2c-0.2,0-0.4,0.1-0.5,0.2c-0.1,0.1-0.2,0.3-0.2,0.5s0.1,0.4,0.2,0.5C611.2,169.7,611.4,169.7,611.6,169.7z
		"/>
	<path class="st4" d="M624.1,174.2h-1.5c-1-1.4-1.8-2.5-2.6-3.1c-0.8-0.7-1.6-1-2.6-1v-0.8c1,0,1.8,0.3,2.6,0.8
		c0.8,0.5,1.6,1.4,2.6,2.7v-5h-0.1c-0.4,0-0.8-0.2-1.1-0.5s-0.5-0.7-0.5-1.1s0.2-0.8,0.5-1.1s0.7-0.5,1.1-0.5c0.4,0,0.8,0.2,1.1,0.5
		c0.3,0.3,0.5,0.7,0.5,1.1V174.2z M622.6,167c0.2,0,0.4-0.1,0.5-0.2s0.2-0.3,0.2-0.5c0-0.2-0.1-0.4-0.2-0.5
		c-0.2-0.1-0.3-0.2-0.5-0.2c-0.2,0-0.4,0.1-0.5,0.2c-0.2,0.2-0.2,0.3-0.2,0.5c0,0.2,0.1,0.4,0.2,0.5
		C622.2,166.9,622.3,167,622.6,167z"/>
	<path class="st4" d="M634.5,174.2H633v-7.8c0-0.4-0.1-0.6-0.3-0.6c-0.1,0-0.2,0.1-0.4,0.3s-0.4,0.5-0.6,0.9s-0.5,1-0.8,1.6
		c-0.3,0.7-0.7,1.7-1.2,3s-0.7,2.1-0.7,2.3v0.3h-1.5v-6.4h-0.1c-0.4,0-0.8-0.2-1.1-0.5s-0.5-0.7-0.5-1.1s0.2-0.8,0.5-1.1
		s0.7-0.5,1.1-0.5s0.8,0.2,1.1,0.5s0.5,0.7,0.5,1.1v4.7c0.6-1.7,1.3-3.2,2-4.4c0.7-1.2,1.4-1.8,2.2-1.8c0.9,0,1.4,0.6,1.4,1.7V174.2
		z M627.3,167c0.2,0,0.4-0.1,0.5-0.2c0.2-0.2,0.2-0.3,0.2-0.5c0-0.2-0.1-0.4-0.2-0.5c-0.1-0.1-0.3-0.2-0.5-0.2s-0.4,0.1-0.5,0.2
		c-0.2,0.2-0.2,0.3-0.2,0.5c0,0.2,0.1,0.4,0.2,0.5C626.9,166.9,627.1,167,627.3,167z"/>
	<path class="st4" d="M634.5,178h-0.8v-0.9c-0.2,0-0.4-0.1-0.5-0.2c-0.1-0.1-0.2-0.3-0.2-0.5c0-0.2,0.1-0.4,0.2-0.5
		c0.1-0.1,0.3-0.2,0.5-0.2c0.3,0,0.5,0.1,0.6,0.2c0.1,0.2,0.2,0.3,0.2,0.6V178z M633.6,176.7c0.2,0,0.4-0.1,0.4-0.4
		s-0.1-0.4-0.4-0.4s-0.4,0.1-0.4,0.4S633.4,176.7,633.6,176.7z"/>
	<path class="st4" d="M644.6,170.5c1.1,0.4,1.6,1,1.6,2c0,0.5-0.1,0.9-0.4,1.3s-0.6,0.5-1.1,0.5c-0.5,0-0.9-0.1-1.2-0.4
		c-0.3-0.3-0.4-0.7-0.4-1.4v-1.1c-1.5,0.3-2.8,1.3-3.9,2.9h-1.5v-6.4h-0.1c-0.4,0-0.8-0.2-1.1-0.5s-0.5-0.7-0.5-1.1s0.2-0.8,0.5-1.1
		s0.7-0.5,1.1-0.5s0.8,0.2,1.1,0.5s0.5,0.7,0.5,1.1v6.7c1-1.3,2.3-2.1,3.9-2.4v-5.6h1.5V170.5z M637.7,167c0.2,0,0.4-0.1,0.5-0.2
		c0.2-0.2,0.2-0.3,0.2-0.5c0-0.2-0.1-0.4-0.2-0.5c-0.1-0.1-0.3-0.2-0.5-0.2s-0.4,0.1-0.5,0.2c-0.2,0.2-0.2,0.3-0.2,0.5
		c0,0.2,0.1,0.4,0.2,0.5C637.3,166.9,637.5,167,637.7,167z M645.4,172.5c0-0.2-0.1-0.5-0.2-0.7c-0.2-0.2-0.3-0.4-0.6-0.5v1.5
		c0,0.3,0,0.5,0.1,0.5c0,0.1,0.1,0.1,0.2,0.1C645.2,173.5,645.4,173.1,645.4,172.5z"/>
	<path class="st4" d="M650.6,174.2l4.9-12.9h1.8l5.3,12.9h-1.9l-1.5-3.9h-5.4l-1.4,3.9H650.6z M654.3,168.9h4.4l-1.3-3.6
		c-0.4-1.1-0.7-2-0.9-2.7c-0.2,0.8-0.4,1.6-0.7,2.5L654.3,168.9z"/>
	<path class="st4" d="M664.3,174.2v-12.9h1.7v12.9H664.3z"/>
	<path class="st4" d="M669.1,174.2v-12.9h8.7v1.5h-7v4h6v1.5h-6v5.9H669.1z"/>
	<path class="st4" d="M689.2,169.7l1.7,0.4c-0.4,1.4-1,2.5-1.9,3.2c-0.9,0.7-2.1,1.1-3.4,1.1c-1.4,0-2.5-0.3-3.4-0.8
		c-0.9-0.6-1.5-1.4-2-2.5c-0.5-1.1-0.7-2.2-0.7-3.5c0-1.3,0.3-2.5,0.8-3.5c0.5-1,1.2-1.8,2.2-2.3c0.9-0.5,2-0.8,3.1-0.8
		c1.3,0,2.4,0.3,3.3,1s1.5,1.6,1.8,2.8l-1.7,0.4c-0.3-0.9-0.7-1.6-1.3-2s-1.3-0.6-2.1-0.6c-1,0-1.8,0.2-2.5,0.7
		c-0.7,0.5-1.1,1.1-1.4,1.9c-0.3,0.8-0.4,1.6-0.4,2.5c0,1.1,0.2,2.1,0.5,2.9c0.3,0.8,0.8,1.4,1.5,1.8s1.4,0.6,2.2,0.6
		c1,0,1.8-0.3,2.4-0.8S689,170.8,689.2,169.7z"/>
	<path class="st4" d="M706.1,172.3c0,0.6-0.2,1-0.6,1.4s-0.9,0.5-1.5,0.5h-6v-1h0.8v-5.4h-0.1c-0.4,0-0.8-0.2-1.1-0.5
		s-0.5-0.7-0.5-1.1s0.2-0.8,0.5-1.1s0.7-0.5,1.1-0.5s0.8,0.2,1.1,0.5s0.5,0.7,0.5,1.1v7h3.3c0.6,0,0.9-0.3,0.9-0.8V160h1.5V172.3z
		 M698.9,167c0.2,0,0.4-0.1,0.5-0.2c0.2-0.2,0.2-0.3,0.2-0.5c0-0.2-0.1-0.4-0.2-0.5c-0.1-0.1-0.3-0.2-0.5-0.2s-0.4,0.1-0.5,0.2
		c-0.2,0.2-0.2,0.3-0.2,0.5c0,0.2,0.1,0.4,0.2,0.5C698.5,166.9,698.6,167,698.9,167z"/>
	<path class="st4" d="M715.4,165.4c-0.4,0.5-0.9,0.8-1.6,0.8c-0.3,0-0.7-0.1-1.3-0.3s-1-0.3-1.3-0.3c-0.8,0-1.3,0.3-1.7,0.9
		c0.4-0.1,0.8-0.1,1.2-0.1c1.3,0,2.3,0.3,3,0.8c0.7,0.5,1,1.2,1,2.1v3.3c0,0.4-0.2,0.8-0.5,1.1c-0.3,0.3-0.7,0.5-1.1,0.5
		c-0.4,0-0.8-0.2-1.1-0.5c-0.3-0.3-0.5-0.7-0.5-1.1s0.2-0.8,0.5-1.1c0.3-0.3,0.7-0.5,1.1-0.5h0.1v-1.6c0-0.9-0.2-1.4-0.7-1.7
		s-1.2-0.4-2.3-0.4c-0.8,0-1.4,0.1-2,0.3c0.1-0.9,0.4-1.7,0.9-2.2c0.5-0.5,1.2-0.8,2-0.8c0.4,0,0.9,0.1,1.5,0.3
		c0.6,0.2,0.9,0.3,1.1,0.3c0.4,0,0.6-0.2,0.8-0.5L715.4,165.4z M713.3,173.5c0.2,0,0.4-0.1,0.5-0.2c0.2-0.1,0.2-0.3,0.2-0.5
		s-0.1-0.4-0.2-0.5c-0.2-0.2-0.3-0.2-0.5-0.2c-0.2,0-0.4,0.1-0.6,0.2c-0.2,0.1-0.2,0.3-0.2,0.5s0.1,0.4,0.2,0.5
		C712.9,173.4,713.1,173.5,713.3,173.5z"/>
	<path class="st4" d="M723.2,164.9c-0.2,1.1-0.6,1.9-1.4,2.5c-0.8,0.6-1.8,0.9-2.9,0.9c-0.8,0-1.3-0.2-1.8-0.5
		c-0.4-0.4-0.6-0.8-0.6-1.3c0-0.4,0.2-0.8,0.5-1.1c0.3-0.3,0.7-0.5,1.1-0.5s0.8,0.2,1.1,0.5c0.3,0.3,0.5,0.7,0.5,1.1
		c0,0.4-0.1,0.7-0.4,1c0.7,0,1.4-0.2,1.9-0.7c0.5-0.5,0.8-1.1,1-1.9H723.2z M723.2,170.8c-0.2,1.1-0.6,1.9-1.4,2.5s-1.8,0.9-2.9,0.9
		c-0.8,0-1.3-0.2-1.8-0.5c-0.4-0.4-0.6-0.8-0.6-1.3c0-0.4,0.2-0.8,0.5-1.1s0.7-0.5,1.1-0.5s0.8,0.2,1.1,0.5s0.5,0.7,0.5,1.1
		c0,0.4-0.1,0.7-0.4,1c0.7,0,1.4-0.2,1.9-0.7c0.5-0.5,0.8-1.1,1-1.9H723.2z M718,167.3c0.2,0,0.4-0.1,0.5-0.2
		c0.1-0.2,0.2-0.3,0.2-0.6c0-0.2-0.1-0.4-0.2-0.5c-0.2-0.2-0.3-0.2-0.5-0.2s-0.4,0.1-0.5,0.2c-0.1,0.2-0.2,0.3-0.2,0.5
		c0,0.2,0.1,0.4,0.2,0.6C717.6,167.2,717.8,167.3,718,167.3z M718,173.1c0.2,0,0.4-0.1,0.5-0.2c0.1-0.2,0.2-0.3,0.2-0.5
		s-0.1-0.4-0.2-0.5c-0.2-0.1-0.3-0.2-0.5-0.2s-0.4,0.1-0.5,0.2c-0.1,0.2-0.2,0.3-0.2,0.5s0.1,0.4,0.2,0.5
		C717.6,173,717.8,173.1,718,173.1z"/>
	<path class="st4" d="M726.6,171.1L726.6,171.1c0.5,0,0.9,0.2,1.2,0.5c0.3,0.3,0.5,0.7,0.5,1.1s-0.2,0.8-0.5,1.1
		c-0.3,0.3-0.7,0.5-1.1,0.5c-0.4,0-0.8-0.2-1.1-0.5c-0.3-0.3-0.5-0.7-0.5-1.1v-7.8h1.5V171.1z M726.7,173.5c0.2,0,0.4-0.1,0.5-0.2
		c0.2-0.1,0.2-0.3,0.2-0.5s-0.1-0.4-0.2-0.5c-0.1-0.2-0.3-0.2-0.5-0.2c-0.2,0-0.4,0.1-0.5,0.2c-0.2,0.1-0.2,0.3-0.2,0.5
		s0.1,0.4,0.2,0.5C726.3,173.4,726.5,173.5,726.7,173.5z"/>
	<path class="st4" d="M738.4,174.2H737v-7.8c0-0.4-0.1-0.6-0.3-0.6c-0.1,0-0.2,0.1-0.4,0.3s-0.4,0.5-0.6,0.9s-0.5,1-0.8,1.6
		c-0.3,0.7-0.7,1.7-1.2,3s-0.7,2.1-0.7,2.3v0.3h-1.5v-6.4h-0.1c-0.4,0-0.8-0.2-1.1-0.5s-0.5-0.7-0.5-1.1s0.2-0.8,0.5-1.1
		s0.7-0.5,1.1-0.5s0.8,0.2,1.1,0.5s0.5,0.7,0.5,1.1v4.7c0.6-1.7,1.3-3.2,2-4.4c0.7-1.2,1.4-1.8,2.2-1.8c0.9,0,1.4,0.6,1.4,1.7V174.2
		z M731.3,167c0.2,0,0.4-0.1,0.5-0.2c0.1-0.2,0.2-0.3,0.2-0.5c0-0.2-0.1-0.4-0.2-0.5c-0.2-0.1-0.3-0.2-0.5-0.2s-0.4,0.1-0.5,0.2
		c-0.1,0.2-0.2,0.3-0.2,0.5c0,0.2,0.1,0.4,0.2,0.5C730.9,166.9,731.1,167,731.3,167z"/>
	<path class="st4" d="M744.9,167.3v-0.4c0.4-0.1,0.9-0.3,1.3-0.6c-0.5-0.4-1.2-0.6-2-0.6c-0.9,0-1.7,0.3-2.2,0.8
		c-0.6,0.5-0.8,1.1-0.8,1.8c0,0.8,0.2,1.5,0.7,2.2V169c0-0.4,0.2-0.8,0.5-1.1c0.3-0.3,0.7-0.5,1.1-0.5c0.4,0,0.8,0.2,1.1,0.5
		c0.3,0.3,0.5,0.7,0.5,1.1s-0.2,0.8-0.5,1.1c-0.3,0.3-0.7,0.5-1.1,0.5h-0.1v3.6h-1.5v-0.8c0-0.6-0.3-1.4-0.8-2.4s-0.8-1.9-0.8-2.7
		c0-1,0.4-1.9,1.1-2.5s1.7-1,2.9-1s2.2,0.3,3,0.8c0.3-0.3,0.6-0.7,0.8-1.2l1,0.7c-0.3,0.5-0.6,0.9-1,1.2c0.4,0.5,0.6,1.2,0.6,1.8
		v6.2h-1.5v-6.1c0-0.4-0.1-0.8-0.3-1.2C746.1,167.2,745.5,167.3,744.9,167.3z M743.4,169.8c0.2,0,0.4-0.1,0.5-0.2
		c0.2-0.1,0.2-0.3,0.2-0.5c0-0.2-0.1-0.4-0.2-0.5s-0.3-0.2-0.5-0.2c-0.2,0-0.4,0.1-0.5,0.2c-0.2,0.2-0.2,0.3-0.2,0.5
		c0,0.2,0.1,0.4,0.2,0.5C743,169.7,743.2,169.8,743.4,169.8z"/>
	<path class="st4" d="M757.3,174.2h-1.5v-0.3c-0.6-1.6-1.2-2.8-1.8-3.8c-0.6-0.9-1-1.4-1.2-1.4c-0.2,0-0.3,0.2-0.3,0.6v1.8h0.1
		c0.4,0,0.8,0.2,1.1,0.5s0.5,0.7,0.5,1.1s-0.2,0.8-0.5,1.1s-0.7,0.5-1.1,0.5s-0.8-0.2-1.1-0.5s-0.5-0.7-0.5-1.1v-3.4
		c0-1.2,0.5-1.7,1.4-1.7c1,0,2.2,1.4,3.4,4.3v-4c0-0.7-0.2-1.2-0.6-1.6c-0.4-0.4-1-0.6-1.7-0.6c-1.1,0-1.9,0.4-2.5,1.3l-0.7-0.6
		c0.9-1.1,2-1.7,3.3-1.7c1.1,0,2,0.3,2.7,0.9s1.1,1.4,1.1,2.3V174.2z M752.5,173.5c0.2,0,0.4-0.1,0.5-0.2c0.2-0.1,0.2-0.3,0.2-0.5
		s-0.1-0.4-0.2-0.5c-0.1-0.2-0.3-0.2-0.5-0.2s-0.4,0.1-0.5,0.2c-0.2,0.1-0.2,0.3-0.2,0.5s0.1,0.4,0.2,0.5
		C752.1,173.4,752.3,173.5,752.5,173.5z"/>
	<path class="st4" d="M758.2,160.2c-0.2,1.1-0.6,1.9-1.4,2.5s-1.8,0.9-2.9,0.9c-0.8,0-1.3-0.2-1.8-0.5c-0.4-0.3-0.6-0.8-0.6-1.3
		c0-0.4,0.2-0.8,0.5-1.1s0.7-0.5,1.1-0.5s0.8,0.2,1.1,0.5s0.5,0.7,0.5,1.1c0,0.4-0.1,0.7-0.4,1c0.8,0,1.4-0.2,1.9-0.7
		c0.5-0.5,0.8-1.1,0.9-1.8H758.2z M753,162.5c0.2,0,0.4-0.1,0.5-0.2c0.1-0.2,0.2-0.3,0.2-0.5s-0.1-0.4-0.2-0.5
		c-0.2-0.1-0.3-0.2-0.5-0.2s-0.4,0.1-0.5,0.2c-0.1,0.2-0.2,0.3-0.2,0.5s0.1,0.4,0.2,0.5C752.6,162.5,752.8,162.5,753,162.5z"/>
	<path class="st4" d="M767.1,174.2h-1.5v-6.1c0-0.7-0.2-1.3-0.7-1.8s-1.1-0.7-1.9-0.7c-1.2,0-2,0.4-2.4,1.1c0.3,0.6,1,0.9,2,1v0.5
		c-0.4,0-0.7,0.1-0.9,0.4s-0.3,0.6-0.3,0.9v4.6h-1.5v-4.6c0-0.6,0.3-1.1,0.8-1.5c-0.7-0.3-1.3-0.7-1.6-1.3c0.7-1.4,2-2.2,3.9-2.2
		c1.2,0,2.1,0.3,2.9,0.9s1.2,1.4,1.2,2.5V174.2z"/>
	<path class="st4" d="M770.8,171.1L770.8,171.1c0.5,0,0.9,0.2,1.2,0.5c0.3,0.3,0.5,0.7,0.5,1.1s-0.2,0.8-0.5,1.1
		c-0.3,0.3-0.7,0.5-1.1,0.5c-0.4,0-0.8-0.2-1.1-0.5c-0.3-0.3-0.5-0.7-0.5-1.1v-7.8h1.5V171.1z M770.8,173.5c0.2,0,0.4-0.1,0.5-0.2
		c0.2-0.1,0.2-0.3,0.2-0.5s-0.1-0.4-0.2-0.5c-0.1-0.2-0.3-0.2-0.5-0.2c-0.2,0-0.4,0.1-0.5,0.2c-0.2,0.1-0.2,0.3-0.2,0.5
		s0.1,0.4,0.2,0.5C770.4,173.4,770.6,173.5,770.8,173.5z"/>
	<path class="st4" d="M782.7,172.3c0,0.6-0.2,1-0.6,1.4s-0.9,0.5-1.5,0.5h-4.1v-1h0.8v-4c0-0.3,0.2-0.7,0.5-1.1
		c0.3-0.4,0.5-0.7,0.5-1.1c0-0.5-0.2-1-0.6-1.3l-1.1,0.7l-1.2-0.7c-0.4,0.2-0.6,0.6-0.8,1.1c0.2-0.1,0.4-0.2,0.5-0.2
		c0.4,0,0.8,0.2,1.1,0.5s0.5,0.7,0.5,1.1s-0.2,0.8-0.5,1.1s-0.7,0.5-1.1,0.5c-0.5,0-0.8-0.2-1.1-0.5c-0.3-0.3-0.5-0.8-0.5-1.4
		c0-1.3,0.6-2.3,1.9-3.1l1.1,0.7l1.1-0.7c1.3,0.4,1.9,1.2,1.9,2.3c0,0.4-0.1,0.9-0.4,1.3s-0.4,0.7-0.4,0.9v4h1.4
		c0.6,0,0.9-0.3,0.9-0.8v-4.8c0-0.8-0.4-1.2-1.1-1.2v-0.5c1-0.2,1.6-0.8,1.7-2h1.5c-0.1,1-0.6,1.7-1.5,2.1c0.6,0.2,0.8,0.7,0.8,1.5
		V172.3z M775.2,168.9c0.2,0,0.4-0.1,0.5-0.2c0.2-0.1,0.2-0.3,0.2-0.5s-0.1-0.4-0.2-0.5c-0.1-0.2-0.3-0.2-0.5-0.2
		c-0.2,0-0.4,0.1-0.5,0.2c-0.2,0.1-0.2,0.3-0.2,0.5s0.1,0.4,0.2,0.5C774.8,168.9,775,168.9,775.2,168.9z"/>
	<path class="st4" d="M793.3,174.2h-1.5c-1-2-2.4-3.1-4.3-3.3v1.5c0,1.2-0.6,1.8-1.7,1.8c-0.5,0-0.9-0.2-1.2-0.5
		c-0.3-0.3-0.5-0.7-0.5-1.3c0-0.6,0.2-1.1,0.5-1.5c0.3-0.4,0.8-0.7,1.4-0.9v-2.4H786c-0.4,0-0.8-0.2-1.1-0.5s-0.5-0.7-0.5-1.1
		s0.2-0.8,0.5-1.1s0.7-0.5,1.1-0.5s0.8,0.2,1.1,0.5s0.5,0.7,0.5,1.1v3.9c1.6,0.2,3.1,1,4.3,2.4v-7.7h1.5V174.2z M786,172.6v-1.7
		c-0.3,0.1-0.6,0.3-0.8,0.6c-0.2,0.3-0.3,0.6-0.3,1c0,0.3,0.1,0.5,0.2,0.7c0.1,0.2,0.3,0.3,0.5,0.3C785.9,173.5,786,173.2,786,172.6
		z M786,167c0.2,0,0.4-0.1,0.5-0.2c0.1-0.2,0.2-0.3,0.2-0.5c0-0.2-0.1-0.4-0.2-0.5c-0.2-0.1-0.3-0.2-0.5-0.2s-0.4,0.1-0.5,0.2
		c-0.1,0.2-0.2,0.3-0.2,0.5c0,0.2,0.1,0.4,0.2,0.5C785.6,166.9,785.7,167,786,167z"/>
	<path class="st4" d="M796.9,171.1L796.9,171.1c0.5,0,0.9,0.2,1.2,0.5c0.3,0.3,0.5,0.7,0.5,1.1s-0.2,0.8-0.5,1.1
		c-0.3,0.3-0.7,0.5-1.1,0.5c-0.4,0-0.8-0.2-1.1-0.5c-0.3-0.3-0.5-0.7-0.5-1.1v-7.8h1.5V171.1z M797,173.5c0.2,0,0.4-0.1,0.5-0.2
		c0.2-0.1,0.2-0.3,0.2-0.5s-0.1-0.4-0.2-0.5c-0.1-0.2-0.3-0.2-0.5-0.2c-0.2,0-0.4,0.1-0.5,0.2c-0.2,0.1-0.2,0.3-0.2,0.5
		s0.1,0.4,0.2,0.5C796.6,173.4,796.8,173.5,797,173.5z"/>
	<path class="st4" d="M808.9,172.3c0,0.6-0.2,1-0.6,1.4s-0.9,0.5-1.5,0.5h-6v-1h0.8v-5.4h-0.1c-0.4,0-0.8-0.2-1.1-0.5
		s-0.5-0.7-0.5-1.1s0.2-0.8,0.5-1.1s0.7-0.5,1.1-0.5s0.8,0.2,1.1,0.5s0.5,0.7,0.5,1.1v7h3.3c0.6,0,0.9-0.3,0.9-0.8v-7.5h1.5V172.3z
		 M801.6,167c0.2,0,0.4-0.1,0.5-0.2c0.1-0.2,0.2-0.3,0.2-0.5c0-0.2-0.1-0.4-0.2-0.5c-0.2-0.1-0.3-0.2-0.5-0.2s-0.4,0.1-0.5,0.2
		c-0.1,0.2-0.2,0.3-0.2,0.5c0,0.2,0.1,0.4,0.2,0.5C801.2,166.9,801.4,167,801.6,167z"/>
	<path class="st4" d="M808.9,163.6h-7c0.5-1.9,1.7-2.8,3.5-2.8S808.4,161.7,808.9,163.6z M807.7,162.8c-0.4-0.9-1.2-1.4-2.3-1.4
		s-1.9,0.5-2.3,1.4H807.7z"/>
	<path class="st4" d="M818.2,165.4c-0.4,0.5-0.9,0.8-1.6,0.8c-0.3,0-0.7-0.1-1.3-0.3s-1-0.3-1.3-0.3c-0.8,0-1.3,0.3-1.7,0.9
		c0.4-0.1,0.8-0.1,1.2-0.1c1.3,0,2.3,0.3,3,0.8c0.7,0.5,1,1.2,1,2.1v3.3c0,0.4-0.2,0.8-0.5,1.1c-0.3,0.3-0.7,0.5-1.1,0.5
		c-0.4,0-0.8-0.2-1.1-0.5c-0.3-0.3-0.5-0.7-0.5-1.1s0.2-0.8,0.5-1.1c0.3-0.3,0.7-0.5,1.1-0.5h0.1v-1.6c0-0.9-0.2-1.4-0.7-1.7
		s-1.2-0.4-2.3-0.4c-0.8,0-1.4,0.1-2,0.3c0.1-0.9,0.4-1.7,0.9-2.2c0.5-0.5,1.2-0.8,2-0.8c0.4,0,0.9,0.1,1.5,0.3
		c0.6,0.2,0.9,0.3,1.1,0.3c0.4,0,0.6-0.2,0.8-0.5L818.2,165.4z M816.1,173.5c0.2,0,0.4-0.1,0.5-0.2c0.2-0.1,0.2-0.3,0.2-0.5
		s-0.1-0.4-0.2-0.5c-0.2-0.2-0.3-0.2-0.5-0.2c-0.2,0-0.4,0.1-0.6,0.2c-0.2,0.1-0.2,0.3-0.2,0.5s0.1,0.4,0.2,0.5
		C815.7,173.4,815.8,173.5,816.1,173.5z"/>
	<path class="st4" d="M819.1,159.7c0,0.3-0.1,0.5-0.3,0.7s-0.6,0.4-1.2,0.6s-0.9,0.3-1.1,0.5c0.3,0,0.5,0.1,0.8,0.3s0.3,0.5,0.3,0.8
		c0,0.3-0.1,0.5-0.3,0.8s-0.5,0.3-0.8,0.3c-0.3,0-0.6-0.1-0.8-0.4c-0.2-0.2-0.3-0.5-0.3-0.9c0-0.9,0.5-1.5,1.6-1.8
		c0.5-0.2,0.9-0.3,1.1-0.4c0.2-0.1,0.3-0.2,0.3-0.4H819.1z M816.5,163c0.2,0,0.3-0.1,0.4-0.2c0.1-0.1,0.2-0.2,0.2-0.4
		s-0.1-0.3-0.2-0.4c-0.1-0.1-0.2-0.2-0.4-0.2s-0.3,0.1-0.4,0.2s-0.2,0.2-0.2,0.4s0.1,0.3,0.2,0.4C816.3,163,816.4,163,816.5,163z"/>
	<path class="st4" d="M827.4,174.2H826v-6.1c0-0.7-0.2-1.3-0.7-1.8s-1.1-0.7-1.9-0.7c-1.2,0-2,0.4-2.4,1.1c0.3,0.6,1,0.9,2,1v0.5
		c-0.4,0-0.7,0.1-0.9,0.4s-0.3,0.6-0.3,0.9v4.6h-1.5v-4.6c0-0.6,0.3-1.1,0.8-1.5c-0.7-0.3-1.3-0.7-1.6-1.3c0.7-1.4,2-2.2,3.9-2.2
		c1.2,0,2.1,0.3,2.9,0.9s1.2,1.4,1.2,2.5V174.2z"/>
	<path class="st4" d="M830.6,178h-1.1c1.8-2.8,2.6-5.6,2.6-8.4c0-1.1-0.1-2.2-0.4-3.3c-0.2-0.9-0.5-1.7-0.8-2.5
		c-0.2-0.5-0.7-1.4-1.4-2.6h1.1c1.1,1.5,1.9,2.9,2.4,4.4c0.5,1.3,0.7,2.6,0.7,4c0,1.6-0.3,3.1-0.9,4.6
		C832.2,175.6,831.5,176.9,830.6,178z"/>
</g>
<g class="st3">
	<path class="st4" d="M913,133c0,0.6-0.2,1-0.6,1.4s-0.9,0.5-1.5,0.5h-2.3c-0.6,0-1.1-0.2-1.5-0.5s-0.6-0.8-0.6-1.4v-3.3
		c0-0.4,0.2-0.8,0.5-1.1s0.7-0.5,1.1-0.5c0.4,0,0.8,0.2,1.1,0.5s0.5,0.7,0.5,1.1s-0.2,0.8-0.5,1.1s-0.7,0.5-1.1,0.5h-0.1v1.9
		c0,0.5,0.3,0.8,0.9,0.8h1.6c0.6,0,0.9-0.3,0.9-0.8v-4.5c0-0.7-0.3-1.2-0.8-1.6s-1.1-0.6-1.9-0.6c-0.6,0-1.1,0.1-1.7,0.4
		c-0.6,0.2-1,0.6-1.2,1l-0.7-0.6c0.4-0.5,0.9-0.9,1.6-1.3s1.4-0.5,2.1-0.5c1.1,0,2.1,0.3,2.9,0.9c0.8,0.6,1.2,1.4,1.2,2.3V133z
		 M908.2,130.5c0.2,0,0.4-0.1,0.5-0.2c0.2-0.1,0.2-0.3,0.2-0.5s-0.1-0.4-0.2-0.5c-0.2-0.2-0.3-0.2-0.5-0.2c-0.2,0-0.4,0.1-0.5,0.2
		c-0.1,0.1-0.2,0.3-0.2,0.5s0.1,0.4,0.2,0.5C907.8,130.4,907.9,130.5,908.2,130.5z"/>
	<path class="st4" d="M922.4,134.9H921v-0.4c-0.3-0.8-1-1.8-1.8-3.1c-0.9-1.3-1.5-1.9-1.9-1.9c-0.2,0-0.4,0.2-0.4,0.6v1.8h0.1
		c0.4,0,0.8,0.2,1.1,0.5s0.5,0.7,0.5,1.1s-0.2,0.8-0.5,1.1s-0.7,0.5-1.1,0.5s-0.8-0.2-1.1-0.5s-0.5-0.7-0.5-1.1v-3.4
		c0-1.2,0.5-1.7,1.4-1.7c0.4,0,0.8,0.1,1.1,0.4s0.9,1,1.7,2s1.2,1.7,1.3,1.9v-4.1c0-0.4-0.1-0.7-0.2-1c-0.6,0.3-1.3,0.4-1.9,0.4
		v-0.4c0.5-0.1,0.9-0.3,1.4-0.6c-0.5-0.4-1.2-0.6-1.9-0.6c-0.6,0-1.1,0.1-1.7,0.4c-0.6,0.2-1,0.6-1.2,1l-0.7-0.6
		c0.4-0.5,0.9-0.9,1.6-1.3s1.4-0.5,2.1-0.5c1,0,1.9,0.3,2.7,0.8c0.3-0.4,0.6-0.7,0.8-1.2l1,0.7c-0.3,0.5-0.6,0.9-1,1.2
		c0.4,0.5,0.6,1.1,0.6,1.7V134.9z M917,134.2c0.2,0,0.4-0.1,0.5-0.2c0.1-0.1,0.2-0.3,0.2-0.5s-0.1-0.4-0.2-0.5
		c-0.1-0.2-0.3-0.2-0.5-0.2s-0.4,0.1-0.5,0.2c-0.1,0.1-0.2,0.3-0.2,0.5s0.1,0.4,0.2,0.5C916.6,134.1,916.8,134.2,917,134.2z"/>
	<path class="st4" d="M923.4,121c-0.2,1.1-0.6,1.9-1.4,2.5s-1.8,0.9-2.9,0.9c-0.8,0-1.3-0.2-1.8-0.5s-0.6-0.8-0.6-1.3
		c0-0.4,0.2-0.8,0.5-1.1s0.7-0.5,1.1-0.5s0.8,0.2,1.1,0.5s0.5,0.7,0.5,1.1c0,0.4-0.1,0.7-0.4,1c0.8,0,1.4-0.2,1.9-0.7
		s0.8-1.1,0.9-1.8H923.4z M918.2,123.3c0.2,0,0.4-0.1,0.5-0.2c0.1-0.2,0.2-0.3,0.2-0.5s-0.1-0.4-0.2-0.5c-0.1-0.1-0.3-0.2-0.5-0.2
		s-0.4,0.1-0.5,0.2c-0.1,0.2-0.2,0.3-0.2,0.5s0.1,0.4,0.2,0.5C917.8,123.2,918,123.3,918.2,123.3z"/>
	<path class="st4" d="M930.1,134.9h-1.5c-1-1.4-1.8-2.5-2.6-3.1s-1.6-1-2.6-1v-0.8c1,0,1.8,0.3,2.6,0.8c0.8,0.5,1.6,1.4,2.6,2.7v-5
		h-0.1c-0.4,0-0.8-0.2-1.1-0.5s-0.5-0.7-0.5-1.1s0.2-0.8,0.5-1.1s0.7-0.5,1.1-0.5c0.4,0,0.8,0.2,1.1,0.5s0.5,0.7,0.5,1.1V134.9z
		 M928.5,127.7c0.2,0,0.4-0.1,0.5-0.2s0.2-0.3,0.2-0.5c0-0.2-0.1-0.4-0.2-0.5c-0.2-0.1-0.3-0.2-0.5-0.2c-0.2,0-0.4,0.1-0.5,0.2
		c-0.1,0.2-0.2,0.3-0.2,0.5c0,0.2,0.1,0.4,0.2,0.5S928.3,127.7,928.5,127.7z"/>
	<path class="st4" d="M941,134.9h-1.5v-5.1c0-0.4-0.1-0.7-0.2-0.8c-1.7,1.3-2.9,2.4-3.5,3.3s-1,1.8-1,2.6h-1.5v-6.4h-0.1
		c-0.4,0-0.8-0.2-1.1-0.5s-0.5-0.7-0.5-1.1s0.2-0.8,0.5-1.1s0.7-0.5,1.1-0.5s0.8,0.2,1.1,0.5s0.5,0.7,0.5,1.1v5.4
		c0.4-1,1.7-2.3,3.9-4c-0.7-0.4-1-0.9-1-1.4c0-0.4,0.2-0.8,0.5-1.1s0.7-0.5,1.1-0.5s0.8,0.2,1.1,0.5s0.5,0.7,0.5,1.1
		c0,0.6-0.2,1-0.7,1.4c0.5,0.3,0.8,0.8,0.8,1.5V134.9z M933.3,127.7c0.2,0,0.4-0.1,0.5-0.2s0.2-0.3,0.2-0.5c0-0.2-0.1-0.4-0.2-0.5
		c-0.1-0.1-0.3-0.2-0.5-0.2s-0.4,0.1-0.5,0.2c-0.1,0.2-0.2,0.3-0.2,0.5c0,0.2,0.1,0.4,0.2,0.5S933.1,127.7,933.3,127.7z
		 M939.4,127.9c0.4-0.3,0.7-0.6,0.7-1c0-0.2-0.1-0.4-0.2-0.5c-0.1-0.1-0.3-0.2-0.5-0.2s-0.4,0.1-0.5,0.2c-0.1,0.2-0.2,0.3-0.2,0.5
		C938.5,127.3,938.8,127.6,939.4,127.9z"/>
	<path class="st4" d="M948.5,134.9h-1.5v-6.3c0-1.5-0.7-2.2-2-2.2c-0.9,0-1.6,0.4-2.2,1.3l-0.7-0.6c0.8-1.1,1.8-1.7,3-1.7
		c1,0,1.8,0.3,2.4,0.9s0.9,1.4,0.9,2.4V134.9z"/>
	<path class="st4" d="M957.8,126.1c-0.4,0.5-0.9,0.8-1.6,0.8c-0.3,0-0.7-0.1-1.3-0.3s-1-0.3-1.3-0.3c-0.8,0-1.3,0.3-1.7,0.9
		c0.4-0.1,0.8-0.1,1.2-0.1c1.3,0,2.3,0.3,3,0.8s1,1.2,1,2.1v3.3c0,0.4-0.2,0.8-0.5,1.1s-0.7,0.5-1.1,0.5c-0.4,0-0.8-0.2-1.1-0.5
		s-0.5-0.7-0.5-1.1s0.2-0.8,0.5-1.1s0.7-0.5,1.1-0.5h0.1v-1.6c0-0.9-0.2-1.4-0.7-1.7s-1.2-0.4-2.3-0.4c-0.8,0-1.4,0.1-2,0.3
		c0.1-0.9,0.4-1.7,0.9-2.2c0.5-0.5,1.2-0.8,2-0.8c0.4,0,0.9,0.1,1.5,0.3c0.6,0.2,0.9,0.3,1.1,0.3c0.4,0,0.6-0.2,0.8-0.5L957.8,126.1
		z M955.7,134.2c0.2,0,0.4-0.1,0.5-0.2c0.2-0.1,0.2-0.3,0.2-0.5s-0.1-0.4-0.2-0.5c-0.2-0.2-0.3-0.2-0.5-0.2c-0.2,0-0.4,0.1-0.6,0.2
		c-0.2,0.1-0.2,0.3-0.2,0.5s0.1,0.4,0.2,0.5C955.3,134.1,955.5,134.2,955.7,134.2z"/>
	<path class="st4" d="M957.2,124.3h-7c0.5-1.9,1.7-2.8,3.5-2.8S956.7,122.4,957.2,124.3z M956.1,123.6c-0.4-0.9-1.2-1.4-2.3-1.4
		s-1.9,0.5-2.3,1.4H956.1z"/>
	<path class="st4" d="M967.8,134.9h-1.5c-1-2-2.4-3.1-4.3-3.3v1.5c0,1.2-0.6,1.8-1.7,1.8c-0.5,0-0.9-0.2-1.2-0.5s-0.5-0.7-0.5-1.3
		c0-0.6,0.2-1.1,0.5-1.5c0.3-0.4,0.8-0.7,1.4-0.9v-2.4h-0.1c-0.4,0-0.8-0.2-1.1-0.5s-0.5-0.7-0.5-1.1s0.2-0.8,0.5-1.1
		s0.7-0.5,1.1-0.5s0.8,0.2,1.1,0.5s0.5,0.7,0.5,1.1v3.9c1.6,0.2,3.1,1,4.3,2.4v-7.7h1.5V134.9z M960.5,133.4v-1.7
		c-0.3,0.1-0.6,0.3-0.8,0.6s-0.3,0.6-0.3,1c0,0.3,0.1,0.5,0.2,0.7c0.1,0.2,0.3,0.3,0.5,0.3C960.4,134.2,960.5,133.9,960.5,133.4z
		 M960.5,127.7c0.2,0,0.4-0.1,0.5-0.2s0.2-0.3,0.2-0.5c0-0.2-0.1-0.4-0.2-0.5c-0.1-0.1-0.3-0.2-0.5-0.2s-0.4,0.1-0.5,0.2
		c-0.1,0.2-0.2,0.3-0.2,0.5c0,0.2,0.1,0.4,0.2,0.5S960.3,127.7,960.5,127.7z"/>
	<path class="st4" d="M978.1,134.9h-1.5v-7.8c0-0.4-0.1-0.6-0.3-0.6c-0.1,0-0.2,0.1-0.4,0.3s-0.4,0.5-0.6,0.9s-0.5,1-0.8,1.6
		s-0.7,1.7-1.2,3s-0.7,2.1-0.7,2.3v0.3h-1.5v-6.4H971c-0.4,0-0.8-0.2-1.1-0.5s-0.5-0.7-0.5-1.1s0.2-0.8,0.5-1.1s0.7-0.5,1.1-0.5
		s0.8,0.2,1.1,0.5s0.5,0.7,0.5,1.1v4.7c0.6-1.7,1.3-3.2,2-4.4c0.7-1.2,1.4-1.8,2.2-1.8c0.9,0,1.4,0.6,1.4,1.7V134.9z M971,127.7
		c0.2,0,0.4-0.1,0.5-0.2s0.2-0.3,0.2-0.5c0-0.2-0.1-0.4-0.2-0.5c-0.1-0.1-0.3-0.2-0.5-0.2s-0.4,0.1-0.5,0.2
		c-0.1,0.2-0.2,0.3-0.2,0.5c0,0.2,0.1,0.4,0.2,0.5S970.8,127.7,971,127.7z"/>
	<path class="st4" d="M987.4,126.1c-0.4,0.5-0.9,0.8-1.6,0.8c-0.3,0-0.7-0.1-1.3-0.3s-1-0.3-1.3-0.3c-0.8,0-1.3,0.3-1.7,0.9
		c0.4-0.1,0.8-0.1,1.2-0.1c1.3,0,2.3,0.3,3,0.8s1,1.2,1,2.1v3.3c0,0.4-0.2,0.8-0.5,1.1s-0.7,0.5-1.1,0.5c-0.4,0-0.8-0.2-1.1-0.5
		s-0.5-0.7-0.5-1.1s0.2-0.8,0.5-1.1s0.7-0.5,1.1-0.5h0.1v-1.6c0-0.9-0.2-1.4-0.7-1.7s-1.2-0.4-2.3-0.4c-0.8,0-1.4,0.1-2,0.3
		c0.1-0.9,0.4-1.7,0.9-2.2c0.5-0.5,1.2-0.8,2-0.8c0.4,0,0.9,0.1,1.5,0.3c0.6,0.2,0.9,0.3,1.1,0.3c0.4,0,0.6-0.2,0.8-0.5L987.4,126.1
		z M985.3,134.2c0.2,0,0.4-0.1,0.5-0.2c0.2-0.1,0.2-0.3,0.2-0.5s-0.1-0.4-0.2-0.5c-0.2-0.2-0.3-0.2-0.5-0.2c-0.2,0-0.4,0.1-0.6,0.2
		c-0.2,0.1-0.2,0.3-0.2,0.5s0.1,0.4,0.2,0.5C984.9,134.1,985.1,134.2,985.3,134.2z"/>
	<path class="st4" d="M987.8,121c-0.2,1.1-0.6,1.9-1.4,2.5s-1.8,0.9-2.9,0.9c-0.8,0-1.3-0.2-1.8-0.5s-0.6-0.8-0.6-1.3
		c0-0.4,0.2-0.8,0.5-1.1s0.7-0.5,1.1-0.5s0.8,0.2,1.1,0.5s0.5,0.7,0.5,1.1c0,0.4-0.1,0.7-0.4,1c0.8,0,1.4-0.2,1.9-0.7
		s0.8-1.1,0.9-1.8H987.8z M982.6,123.3c0.2,0,0.4-0.1,0.5-0.2c0.1-0.2,0.2-0.3,0.2-0.5s-0.1-0.4-0.2-0.5c-0.1-0.1-0.3-0.2-0.5-0.2
		s-0.4,0.1-0.5,0.2c-0.1,0.2-0.2,0.3-0.2,0.5s0.1,0.4,0.2,0.5C982.2,123.2,982.4,123.3,982.6,123.3z"/>
	<path class="st4" d="M998.5,134.9h-1.5c0-0.6-0.4-1.7-1.3-3.2s-1.3-2.7-1.5-3.6c-0.1,0.9-0.6,2.1-1.5,3.6s-1.3,2.5-1.3,3.2h-1.5
		v-6.4H990c-0.4,0-0.8-0.2-1.1-0.5s-0.5-0.7-0.5-1.1s0.2-0.8,0.5-1.1s0.7-0.5,1.1-0.5s0.8,0.2,1.1,0.5s0.5,0.7,0.5,1.1v5.1
		c0.2-0.3,0.5-0.9,0.9-1.7c0.9-1.5,1.3-3.1,1.3-4.8h1c0,1.7,0.4,3.3,1.3,4.8c0.5,0.8,0.8,1.3,0.9,1.7v-6.5h1.5V134.9z M990,127.7
		c0.2,0,0.4-0.1,0.5-0.2s0.2-0.3,0.2-0.5c0-0.2-0.1-0.4-0.2-0.5c-0.1-0.1-0.3-0.2-0.5-0.2s-0.4,0.1-0.5,0.2
		c-0.1,0.2-0.2,0.3-0.2,0.5c0,0.2,0.1,0.4,0.2,0.5S989.8,127.7,990,127.7z"/>
	<path class="st4" d="M1007.6,133c0,0.6-0.2,1-0.6,1.4s-0.9,0.5-1.5,0.5h-4.8V132c0-0.7,0.3-1.3,0.8-1.6c-0.6-0.3-0.8-0.8-0.8-1.6
		v-1.9c0-0.4,0.2-0.8,0.5-1.1s0.7-0.5,1.1-0.5s0.8,0.2,1.1,0.5s0.5,0.7,0.5,1.1s-0.2,0.8-0.5,1.1s-0.7,0.5-1.1,0.5h-0.1v0.4
		c0,0.4,0.1,0.7,0.3,0.9s0.5,0.3,0.9,0.3v0.5c-0.4,0-0.7,0.1-0.9,0.3c-0.2,0.2-0.3,0.5-0.3,0.9v1.9h3c0.6,0,0.9-0.3,0.9-0.8v-7.5
		h1.5V133z M1002.2,127.7c0.2,0,0.4-0.1,0.5-0.2s0.2-0.3,0.2-0.5c0-0.2-0.1-0.4-0.2-0.5c-0.1-0.1-0.3-0.2-0.5-0.2s-0.4,0.1-0.5,0.2
		c-0.1,0.2-0.2,0.3-0.2,0.5c0,0.2,0.1,0.4,0.2,0.5S1002,127.7,1002.2,127.7z"/>
	<path class="st4" d="M1009,120.4c0,0.3-0.1,0.5-0.3,0.7s-0.6,0.4-1.2,0.6s-0.9,0.3-1.1,0.5c0.3,0,0.5,0.1,0.8,0.3s0.3,0.5,0.3,0.8
		c0,0.3-0.1,0.5-0.3,0.8s-0.5,0.3-0.8,0.3c-0.3,0-0.6-0.1-0.8-0.4c-0.2-0.2-0.3-0.5-0.3-0.9c0-0.9,0.5-1.5,1.6-1.8
		c0.5-0.2,0.9-0.3,1.1-0.4c0.2-0.1,0.3-0.2,0.3-0.4H1009z M1006.5,123.8c0.2,0,0.3-0.1,0.4-0.2c0.1-0.1,0.2-0.2,0.2-0.4
		s-0.1-0.3-0.2-0.4s-0.2-0.2-0.4-0.2s-0.3,0.1-0.4,0.2s-0.2,0.2-0.2,0.4s0.1,0.3,0.2,0.4C1006.2,123.7,1006.3,123.8,1006.5,123.8z"
		/>
	<path class="st4" d="M1011.2,131.9L1011.2,131.9c0.5,0,0.9,0.2,1.2,0.5s0.5,0.7,0.5,1.1s-0.2,0.8-0.5,1.1s-0.7,0.5-1.1,0.5
		c-0.4,0-0.8-0.2-1.1-0.5s-0.5-0.7-0.5-1.1v-7.8h1.5V131.9z M1011.3,134.2c0.2,0,0.4-0.1,0.5-0.2c0.1-0.1,0.2-0.3,0.2-0.5
		s-0.1-0.4-0.2-0.5c-0.1-0.2-0.3-0.2-0.5-0.2c-0.2,0-0.4,0.1-0.5,0.2c-0.2,0.1-0.2,0.3-0.2,0.5s0.1,0.4,0.2,0.5
		C1010.9,134.1,1011.1,134.2,1011.3,134.2z"/>
	<path class="st4" d="M1022.8,133c0,0.6-0.2,1-0.6,1.4s-0.9,0.5-1.5,0.5h-4.1v-1h0.8v-4c0-0.3,0.2-0.7,0.5-1.1
		c0.3-0.4,0.5-0.7,0.5-1.1c0-0.4-0.2-0.8-0.5-1.1s-0.7-0.4-1.2-0.4c-0.3,0-0.5,0-0.7,0.1c0.8,0.3,1.1,0.8,1.1,1.5
		c0,0.4-0.2,0.8-0.5,1.1s-0.7,0.5-1.1,0.5s-0.8-0.2-1.1-0.5s-0.5-0.7-0.5-1.1c0-0.6,0.3-1.2,0.8-1.7s1.2-0.7,1.9-0.7
		c0.9,0,1.6,0.2,2.2,0.6s0.8,1,0.8,1.7c0,0.4-0.1,0.9-0.4,1.3s-0.4,0.7-0.4,0.9v4h1.4c0.6,0,0.9-0.3,0.9-0.8v-4.8
		c0-0.8-0.4-1.2-1.1-1.2v-0.5c1-0.2,1.6-0.8,1.7-2h1.5c-0.1,1-0.6,1.7-1.5,2.1c0.6,0.2,0.8,0.7,0.8,1.5V133z M1015.6,128.6
		c0.2,0,0.4-0.1,0.5-0.2c0.1-0.2,0.2-0.3,0.2-0.5s-0.1-0.4-0.2-0.5c-0.1-0.1-0.3-0.2-0.5-0.2s-0.4,0.1-0.5,0.2
		c-0.1,0.2-0.2,0.3-0.2,0.5s0.1,0.4,0.2,0.5C1015.2,128.5,1015.4,128.6,1015.6,128.6z"/>
	<path class="st4" d="M1022.8,124.3h-7c0.5-1.9,1.7-2.8,3.5-2.8S1022.3,122.4,1022.8,124.3z M1021.6,123.6c-0.4-0.9-1.2-1.4-2.3-1.4
		s-1.9,0.5-2.3,1.4H1021.6z"/>
	<path class="st4" d="M1030.4,134.9h-1.5c-1-1.4-1.8-2.5-2.6-3.1s-1.6-1-2.6-1v-0.8c1,0,1.8,0.3,2.6,0.8c0.8,0.5,1.6,1.4,2.6,2.7v-5
		h-0.1c-0.4,0-0.8-0.2-1.1-0.5s-0.5-0.7-0.5-1.1s0.2-0.8,0.5-1.1s0.7-0.5,1.1-0.5c0.4,0,0.8,0.2,1.1,0.5s0.5,0.7,0.5,1.1V134.9z
		 M1028.9,127.7c0.2,0,0.4-0.1,0.5-0.2s0.2-0.3,0.2-0.5c0-0.2-0.1-0.4-0.2-0.5c-0.2-0.1-0.3-0.2-0.5-0.2c-0.2,0-0.4,0.1-0.5,0.2
		c-0.1,0.2-0.2,0.3-0.2,0.5c0,0.2,0.1,0.4,0.2,0.5S1028.7,127.7,1028.9,127.7z"/>
	<path class="st4" d="M1042.2,134.9h-1.5c0-0.6-0.4-1.7-1.3-3.2s-1.3-2.7-1.5-3.6c-0.1,0.9-0.6,2.1-1.5,3.6s-1.3,2.5-1.3,3.2h-1.5
		v-6.4h-0.1c-0.4,0-0.8-0.2-1.1-0.5s-0.5-0.7-0.5-1.1s0.2-0.8,0.5-1.1s0.7-0.5,1.1-0.5s0.8,0.2,1.1,0.5s0.5,0.7,0.5,1.1v5.1
		c0.2-0.3,0.5-0.9,0.9-1.7c0.9-1.5,1.3-3.1,1.3-4.8h1c0,1.7,0.4,3.3,1.3,4.8c0.5,0.8,0.8,1.3,0.9,1.7v-6.5h1.5V134.9z M1033.7,127.7
		c0.2,0,0.4-0.1,0.5-0.2s0.2-0.3,0.2-0.5c0-0.2-0.1-0.4-0.2-0.5c-0.1-0.1-0.3-0.2-0.5-0.2s-0.4,0.1-0.5,0.2
		c-0.1,0.2-0.2,0.3-0.2,0.5c0,0.2,0.1,0.4,0.2,0.5S1033.4,127.7,1033.7,127.7z"/>
	<path class="st4" d="M1049.7,134.9h-1.5v-6.3c0-1.5-0.7-2.2-2-2.2c-0.9,0-1.6,0.4-2.2,1.3l-0.7-0.6c0.8-1.1,1.8-1.7,3-1.7
		c1,0,1.8,0.3,2.4,0.9s0.9,1.4,0.9,2.4V134.9z"/>
	<path class="st4" d="M1058.7,134.9h-1.5v-6.1c0-0.8-0.2-1.4-0.5-1.8s-0.9-0.6-1.5-0.6c-1,0-1.7,0.4-2.1,1.1c0.3,0.6,1,0.9,2,1v0.5
		c-0.4,0-0.7,0.1-0.9,0.4s-0.3,0.6-0.3,0.9v1.6h0.1c0.4,0,0.8,0.2,1.1,0.5s0.5,0.7,0.5,1.1s-0.2,0.8-0.5,1.1s-0.7,0.5-1.1,0.5
		c-0.4,0-0.8-0.2-1.1-0.5s-0.5-0.7-0.5-1.1v-3.1c0-0.6,0.3-1.1,0.8-1.5c-0.7-0.3-1.3-0.7-1.6-1.3c0.7-1.4,1.9-2.2,3.6-2.2
		c1.1,0,1.9,0.3,2.6,0.9s1,1.4,1,2.5v4.2c0.6-1.1,1.4-1.8,2.4-2.1v-5.3h1.5v5.3c0.6,0.2,1,0.5,1.4,0.9s0.5,0.9,0.5,1.4
		c0,0.5-0.1,1-0.4,1.3s-0.7,0.5-1.1,0.5c-1.2,0-1.8-0.6-1.8-1.8v-1.4c-0.4,0.1-0.8,0.4-1.3,1
		C1059.2,133.4,1058.9,134.1,1058.7,134.9z M1053.9,134.2c0.2,0,0.4-0.1,0.6-0.2c0.2-0.1,0.2-0.3,0.2-0.5s-0.1-0.4-0.2-0.5
		c-0.2-0.2-0.3-0.2-0.6-0.2c-0.2,0-0.4,0.1-0.5,0.2c-0.2,0.1-0.2,0.3-0.2,0.5s0.1,0.4,0.2,0.5
		C1053.5,134.1,1053.7,134.2,1053.9,134.2z M1063.6,133.2c0-0.3-0.1-0.6-0.3-0.9s-0.5-0.5-0.8-0.6v1.7c0,0.6,0.2,0.8,0.5,0.8
		C1063.4,134.2,1063.6,133.9,1063.6,133.2z"/>
	<path class="st4" d="M1063.7,124.3h-7c0.5-1.9,1.7-2.8,3.5-2.8S1063.2,122.4,1063.7,124.3z M1062.5,123.6c-0.4-0.9-1.2-1.4-2.3-1.4
		s-1.9,0.5-2.3,1.4H1062.5z"/>
	<path class="st4" d="M924.9,154.6c0,0.6-0.2,1-0.6,1.4s-0.9,0.5-1.5,0.5h-4.1v-1h0.8v-4c0-0.3,0.2-0.7,0.5-1.1
		c0.3-0.4,0.5-0.7,0.5-1.1c0-0.4-0.2-0.8-0.5-1.1s-0.7-0.4-1.2-0.4c-0.3,0-0.5,0-0.7,0.1c0.8,0.3,1.1,0.8,1.1,1.5
		c0,0.4-0.2,0.8-0.5,1.1s-0.7,0.5-1.1,0.5s-0.8-0.2-1.1-0.5s-0.5-0.7-0.5-1.1c0-0.6,0.3-1.2,0.8-1.7s1.2-0.7,1.9-0.7
		c0.9,0,1.6,0.2,2.2,0.6s0.8,1,0.8,1.7c0,0.4-0.1,0.9-0.4,1.3s-0.4,0.7-0.4,0.9v4h1.4c0.6,0,0.9-0.3,0.9-0.8v-4.8
		c0-0.8-0.4-1.2-1.1-1.2v-0.5c1-0.2,1.6-0.8,1.7-2h1.5c-0.1,1-0.6,1.7-1.5,2.1c0.6,0.2,0.8,0.7,0.8,1.5V154.6z M917.7,150.2
		c0.2,0,0.4-0.1,0.5-0.2c0.1-0.2,0.2-0.3,0.2-0.5s-0.1-0.4-0.2-0.5c-0.1-0.1-0.3-0.2-0.5-0.2s-0.4,0.1-0.5,0.2
		c-0.1,0.2-0.2,0.3-0.2,0.5s0.1,0.4,0.2,0.5C917.3,150.1,917.5,150.2,917.7,150.2z"/>
	<path class="st4" d="M933.9,154.6c0,0.6-0.2,1-0.6,1.4s-0.9,0.5-1.5,0.5H927v-2.9c0-0.7,0.3-1.3,0.8-1.6c-0.6-0.3-0.8-0.8-0.8-1.6
		v-1.9c0-0.4,0.2-0.8,0.5-1.1s0.7-0.5,1.1-0.5s0.8,0.2,1.1,0.5s0.5,0.7,0.5,1.1s-0.2,0.8-0.5,1.1s-0.7,0.5-1.1,0.5h-0.1v0.4
		c0,0.4,0.1,0.7,0.3,0.9s0.5,0.3,0.9,0.3v0.5c-0.4,0-0.7,0.1-0.9,0.3c-0.2,0.2-0.3,0.5-0.3,0.9v1.9h3c0.6,0,0.9-0.3,0.9-0.8v-7.5
		h1.5V154.6z M928.6,149.3c0.2,0,0.4-0.1,0.5-0.2s0.2-0.3,0.2-0.5c0-0.2-0.1-0.4-0.2-0.5c-0.1-0.1-0.3-0.2-0.5-0.2s-0.4,0.1-0.5,0.2
		c-0.1,0.2-0.2,0.3-0.2,0.5c0,0.2,0.1,0.4,0.2,0.5S928.4,149.3,928.6,149.3z"/>
	<path class="st4" d="M935.4,142c0,0.3-0.1,0.5-0.3,0.7s-0.6,0.4-1.2,0.6s-0.9,0.3-1.1,0.5c0.3,0,0.5,0.1,0.8,0.3s0.3,0.5,0.3,0.8
		c0,0.3-0.1,0.5-0.3,0.8s-0.5,0.3-0.8,0.3c-0.3,0-0.6-0.1-0.8-0.4c-0.2-0.2-0.3-0.5-0.3-0.9c0-0.9,0.5-1.5,1.6-1.8
		c0.5-0.2,0.9-0.3,1.1-0.4c0.2-0.1,0.3-0.2,0.3-0.4H935.4z M932.9,145.4c0.2,0,0.3-0.1,0.4-0.2c0.1-0.1,0.2-0.2,0.2-0.4
		s-0.1-0.3-0.2-0.4s-0.2-0.2-0.4-0.2s-0.3,0.1-0.4,0.2s-0.2,0.2-0.2,0.4s0.1,0.3,0.2,0.4C932.6,145.3,932.7,145.4,932.9,145.4z"/>
	<path class="st4" d="M944.3,156.5h-1.5v-7.8c0-0.4-0.1-0.6-0.3-0.6c-0.1,0-0.2,0.1-0.4,0.3s-0.4,0.5-0.6,0.9s-0.5,1-0.8,1.6
		s-0.7,1.7-1.2,3s-0.7,2.1-0.7,2.3v0.3h-1.5v-6.4h-0.1c-0.4,0-0.8-0.2-1.1-0.5s-0.5-0.7-0.5-1.1s0.2-0.8,0.5-1.1s0.7-0.5,1.1-0.5
		s0.8,0.2,1.1,0.5s0.5,0.7,0.5,1.1v4.7c0.6-1.7,1.3-3.2,2-4.4c0.7-1.2,1.4-1.8,2.2-1.8c0.9,0,1.4,0.6,1.4,1.7V156.5z M937.2,149.3
		c0.2,0,0.4-0.1,0.5-0.2s0.2-0.3,0.2-0.5c0-0.2-0.1-0.4-0.2-0.5c-0.1-0.1-0.3-0.2-0.5-0.2s-0.4,0.1-0.5,0.2
		c-0.1,0.2-0.2,0.3-0.2,0.5c0,0.2,0.1,0.4,0.2,0.5S936.9,149.3,937.2,149.3z"/>
	<path class="st4" d="M944.3,145.9h-7c0.5-1.9,1.7-2.8,3.5-2.8c1.2,0,2.1,0.4,2.8,1.3v-1.8h0.7V145.9z M943.1,145.2
		c-0.4-0.9-1.2-1.4-2.3-1.4s-1.9,0.5-2.3,1.4H943.1z"/>
	<path class="st4" d="M943.9,145.9h-0.7V143h0.7V145.9z"/>
	<path class="st4" d="M954.8,156.5h-1.5c-1-2-2.4-3.1-4.3-3.3v1.5c0,1.2-0.6,1.8-1.7,1.8c-0.5,0-0.9-0.2-1.2-0.5s-0.5-0.7-0.5-1.3
		c0-0.6,0.2-1.1,0.5-1.5c0.3-0.4,0.8-0.7,1.4-0.9v-2.4h-0.1c-0.4,0-0.8-0.2-1.1-0.5s-0.5-0.7-0.5-1.1s0.2-0.8,0.5-1.1
		s0.7-0.5,1.1-0.5s0.8,0.2,1.1,0.5s0.5,0.7,0.5,1.1v3.9c1.6,0.2,3.1,1,4.3,2.4v-7.7h1.5V156.5z M947.6,155v-1.7
		c-0.3,0.1-0.6,0.3-0.8,0.6s-0.3,0.6-0.3,1c0,0.3,0.1,0.5,0.2,0.7c0.1,0.2,0.3,0.3,0.5,0.3C947.4,155.8,947.6,155.5,947.6,155z
		 M947.5,149.3c0.2,0,0.4-0.1,0.5-0.2s0.2-0.3,0.2-0.5c0-0.2-0.1-0.4-0.2-0.5c-0.1-0.1-0.3-0.2-0.5-0.2s-0.4,0.1-0.5,0.2
		c-0.1,0.2-0.2,0.3-0.2,0.5c0,0.2,0.1,0.4,0.2,0.5S947.3,149.3,947.5,149.3z"/>
	<path class="st4" d="M954.8,145.9h-7c0.5-1.9,1.7-2.8,3.5-2.8c1.2,0,2.1,0.4,2.8,1.3v-1.8h0.7V145.9z M953.6,145.2
		c-0.4-0.9-1.2-1.4-2.3-1.4s-1.9,0.5-2.3,1.4H953.6z"/>
	<path class="st4" d="M964.9,156.5h-1.5v-6.1c0-0.7-0.3-1.3-0.8-1.8c-0.5-0.4-1.2-0.7-2.1-0.7c-0.9,0-1.7,0.3-2.2,0.8
		s-0.8,1.1-0.8,1.8c0,0.8,0.2,1.5,0.7,2.2v-1.5c0-0.4,0.2-0.8,0.5-1.1s0.7-0.5,1.1-0.5c0.4,0,0.8,0.2,1.1,0.5s0.5,0.7,0.5,1.1
		s-0.2,0.8-0.5,1.1s-0.7,0.5-1.1,0.5h-0.1v3.6h-1.5v-0.8c0-0.6-0.3-1.4-0.8-2.4s-0.8-1.9-0.8-2.7c0-1,0.4-1.9,1.1-2.5s1.7-1,2.9-1
		c1.3,0,2.3,0.3,3.1,0.9c0.8,0.6,1.2,1.4,1.2,2.5V156.5z M959.7,152.1c0.2,0,0.4-0.1,0.5-0.2c0.2-0.1,0.2-0.3,0.2-0.5
		c0-0.2-0.1-0.4-0.2-0.5s-0.3-0.2-0.5-0.2c-0.2,0-0.4,0.1-0.5,0.2s-0.2,0.3-0.2,0.5c0,0.2,0.1,0.4,0.2,0.5
		C959.3,152.1,959.5,152.1,959.7,152.1z"/>
	<path class="st4" d="M964.9,160.3h-0.8v-0.9c-0.2,0-0.4-0.1-0.5-0.2c-0.1-0.1-0.2-0.3-0.2-0.5c0-0.2,0.1-0.4,0.2-0.5
		s0.3-0.2,0.5-0.2c0.3,0,0.5,0.1,0.6,0.2s0.2,0.3,0.2,0.6V160.3z M964.1,159.1c0.2,0,0.4-0.1,0.4-0.4s-0.1-0.4-0.4-0.4
		s-0.4,0.1-0.4,0.4S963.8,159.1,964.1,159.1z"/>
	<path class="st4" d="M973.8,156.5h-1.5v-6.1c0-0.8-0.2-1.4-0.5-1.8s-0.9-0.6-1.5-0.6c-1,0-1.7,0.4-2.1,1.1c0.3,0.6,1,0.9,2,1v0.5
		c-0.4,0-0.7,0.1-0.9,0.4s-0.3,0.6-0.3,0.9v1.6h0.1c0.4,0,0.8,0.2,1.1,0.5s0.5,0.7,0.5,1.1s-0.2,0.8-0.5,1.1s-0.7,0.5-1.1,0.5
		c-0.4,0-0.8-0.2-1.1-0.5s-0.5-0.7-0.5-1.1v-3.1c0-0.6,0.3-1.1,0.8-1.5c-0.7-0.3-1.3-0.7-1.6-1.3c0.7-1.4,1.9-2.2,3.6-2.2
		c1.1,0,1.9,0.3,2.6,0.9s1,1.4,1,2.5v4.2c0.6-1.1,1.4-1.8,2.4-2.1v-5.3h1.5v5.3c0.6,0.2,1,0.5,1.4,0.9s0.5,0.9,0.5,1.4
		c0,0.5-0.1,1-0.4,1.3s-0.7,0.5-1.1,0.5c-1.2,0-1.8-0.6-1.8-1.8v-1.4c-0.4,0.1-0.8,0.4-1.3,1C974.4,155,974.1,155.7,973.8,156.5z
		 M969.1,155.8c0.2,0,0.4-0.1,0.6-0.2c0.2-0.1,0.2-0.3,0.2-0.5s-0.1-0.4-0.2-0.5c-0.2-0.2-0.3-0.2-0.6-0.2c-0.2,0-0.4,0.1-0.5,0.2
		c-0.2,0.1-0.2,0.3-0.2,0.5s0.1,0.4,0.2,0.5C968.7,155.7,968.9,155.8,969.1,155.8z M978.8,154.8c0-0.3-0.1-0.6-0.3-0.9
		s-0.5-0.5-0.8-0.6v1.7c0,0.6,0.2,0.8,0.5,0.8C978.6,155.8,978.8,155.5,978.8,154.8z"/>
	<path class="st4" d="M989.4,156.5h-1.5v-6.1c0-0.7-0.2-1.3-0.7-1.8s-1.1-0.7-1.9-0.7c-1.2,0-2,0.4-2.4,1.1c0.3,0.6,1,0.9,2,1v0.5
		c-0.4,0-0.7,0.1-0.9,0.4s-0.3,0.6-0.3,0.9v3.1c0,0.4-0.2,0.8-0.5,1.1s-0.7,0.5-1.1,0.5s-0.8-0.2-1.1-0.5s-0.5-0.7-0.5-1.1
		s0.2-0.8,0.5-1.1s0.7-0.5,1.1-0.5h0.1v-1.5c0-0.6,0.3-1.1,0.8-1.5c-0.7-0.3-1.3-0.7-1.6-1.3c0.7-1.4,2-2.2,3.9-2.2
		c1.2,0,2.1,0.3,2.9,0.9s1.2,1.4,1.2,2.5V156.5z M982.1,155.8c0.2,0,0.4-0.1,0.5-0.2c0.1-0.1,0.2-0.3,0.2-0.5s-0.1-0.4-0.2-0.5
		c-0.1-0.2-0.3-0.2-0.5-0.2s-0.4,0.1-0.5,0.2c-0.1,0.1-0.2,0.3-0.2,0.5s0.1,0.4,0.2,0.5C981.7,155.7,981.9,155.8,982.1,155.8z"/>
	<path class="st4" d="M997,156.5h-1.5v-6.3c0-1.5-0.7-2.2-2-2.2c-0.9,0-1.6,0.4-2.2,1.3l-0.7-0.6c0.8-1.1,1.8-1.7,3-1.7
		c1,0,1.8,0.3,2.4,0.9s0.9,1.4,0.9,2.4V156.5z"/>
	<path class="st4" d="M1008.7,156.5h-1.5c0-0.6-0.4-1.7-1.3-3.2s-1.3-2.7-1.5-3.6c-0.1,0.9-0.6,2.1-1.5,3.6s-1.3,2.5-1.3,3.2h-1.5
		v-6.4h-0.1c-0.4,0-0.8-0.2-1.1-0.5s-0.5-0.7-0.5-1.1s0.2-0.8,0.5-1.1s0.7-0.5,1.1-0.5s0.8,0.2,1.1,0.5s0.5,0.7,0.5,1.1v5.1
		c0.2-0.3,0.5-0.9,0.9-1.7c0.9-1.5,1.3-3.1,1.3-4.8h1c0,1.7,0.4,3.3,1.3,4.8c0.5,0.8,0.8,1.3,0.9,1.7v-6.5h1.5V156.5z M1000.2,149.3
		c0.2,0,0.4-0.1,0.5-0.2s0.2-0.3,0.2-0.5c0-0.2-0.1-0.4-0.2-0.5c-0.1-0.1-0.3-0.2-0.5-0.2s-0.4,0.1-0.5,0.2
		c-0.1,0.2-0.2,0.3-0.2,0.5c0,0.2,0.1,0.4,0.2,0.5S1000,149.3,1000.2,149.3z"/>
	<path class="st4" d="M1018.8,156.5h-1.5v-6.1c0-0.7-0.3-1.3-0.8-1.8c-0.5-0.4-1.2-0.7-2.1-0.7c-0.9,0-1.7,0.3-2.2,0.8
		s-0.8,1.1-0.8,1.8c0,0.7,0.2,1.5,0.7,2.3s0.8,1.4,1,1.7c0.1-0.3,0.4-0.5,0.7-0.9s0.5-0.6,0.6-0.8h-0.1c-0.4,0-0.8-0.2-1.1-0.5
		s-0.5-0.7-0.5-1.1s0.2-0.8,0.5-1.1s0.7-0.5,1.1-0.5c0.4,0,0.8,0.2,1.1,0.5s0.5,0.7,0.5,1.1c0,0.4-0.1,0.8-0.3,1.2
		c-0.2,0.4-0.6,0.9-1.2,1.6s-0.9,1.2-0.9,1.6v0.8h-1.5v-0.8c0-0.6-0.3-1.4-0.8-2.4s-0.8-1.9-0.8-2.7c0-1,0.4-1.9,1.1-2.5
		s1.7-1,2.9-1c1.3,0,2.3,0.3,3.1,0.9c0.8,0.6,1.2,1.4,1.2,2.5V156.5z M1014.4,152.1c0.2,0,0.4-0.1,0.5-0.2c0.2-0.1,0.2-0.3,0.2-0.5
		c0-0.2-0.1-0.4-0.2-0.5s-0.3-0.2-0.5-0.2c-0.2,0-0.4,0.1-0.5,0.2s-0.2,0.3-0.2,0.5c0,0.2,0.1,0.4,0.2,0.5
		C1014,152.1,1014.2,152.1,1014.4,152.1z"/>
	<path class="st4" d="M1018.8,145.9h-7c0.5-1.9,1.7-2.8,3.5-2.8c1.2,0,2.1,0.4,2.8,1.3v-1.8h0.7V145.9z M1017.6,145.2
		c-0.4-0.9-1.2-1.4-2.3-1.4s-1.9,0.5-2.3,1.4H1017.6z"/>
	<path class="st4" d="M1022.5,153.5L1022.5,153.5c0.5,0,0.9,0.2,1.2,0.5s0.5,0.7,0.5,1.1s-0.2,0.8-0.5,1.1s-0.7,0.5-1.1,0.5
		c-0.4,0-0.8-0.2-1.1-0.5s-0.5-0.7-0.5-1.1v-7.8h1.5V153.5z M1022.5,155.8c0.2,0,0.4-0.1,0.5-0.2c0.1-0.1,0.2-0.3,0.2-0.5
		s-0.1-0.4-0.2-0.5c-0.1-0.2-0.3-0.2-0.5-0.2c-0.2,0-0.4,0.1-0.5,0.2c-0.2,0.1-0.2,0.3-0.2,0.5s0.1,0.4,0.2,0.5
		C1022.1,155.7,1022.3,155.8,1022.5,155.8z"/>
	<path class="st4" d="M1032.9,154.6c0,0.6-0.2,1-0.6,1.4s-0.9,0.5-1.5,0.5h-4.8v-2.9c0-0.7,0.3-1.3,0.8-1.6
		c-0.6-0.3-0.8-0.8-0.8-1.6v-1.9c0-0.4,0.2-0.8,0.5-1.1s0.7-0.5,1.1-0.5s0.8,0.2,1.1,0.5s0.5,0.7,0.5,1.1s-0.2,0.8-0.5,1.1
		s-0.7,0.5-1.1,0.5h-0.1v0.4c0,0.4,0.1,0.7,0.3,0.9s0.5,0.3,0.9,0.3v0.5c-0.4,0-0.7,0.1-0.9,0.3c-0.2,0.2-0.3,0.5-0.3,0.9v1.9h3
		c0.6,0,0.9-0.3,0.9-0.8v-7.5h1.5V154.6z M1027.6,149.3c0.2,0,0.4-0.1,0.5-0.2s0.2-0.3,0.2-0.5c0-0.2-0.1-0.4-0.2-0.5
		c-0.1-0.1-0.3-0.2-0.5-0.2s-0.4,0.1-0.5,0.2c-0.1,0.2-0.2,0.3-0.2,0.5c0,0.2,0.1,0.4,0.2,0.5S1027.4,149.3,1027.6,149.3z"/>
	<path class="st4" d="M1032.9,145.9h-7c0.5-1.9,1.7-2.8,3.5-2.8c1.2,0,2.1,0.4,2.8,1.3v-1.8h0.7V145.9z M1031.8,145.2
		c-0.4-0.9-1.2-1.4-2.3-1.4s-1.9,0.5-2.3,1.4H1031.8z"/>
	<path class="st4" d="M1032.6,145.9h-0.7V143h0.7V145.9z"/>
	<path class="st4" d="M1041.9,154.6c0,0.6-0.2,1-0.6,1.4s-0.9,0.5-1.5,0.5h-4.8v-2.9c0-0.7,0.3-1.3,0.8-1.6
		c-0.6-0.3-0.8-0.8-0.8-1.6v-1.9c0-0.4,0.2-0.8,0.5-1.1s0.7-0.5,1.1-0.5s0.8,0.2,1.1,0.5s0.5,0.7,0.5,1.1s-0.2,0.8-0.5,1.1
		s-0.7,0.5-1.1,0.5h-0.1v0.4c0,0.4,0.1,0.7,0.3,0.9s0.5,0.3,0.9,0.3v0.5c-0.4,0-0.7,0.1-0.9,0.3c-0.2,0.2-0.3,0.5-0.3,0.9v1.9h3
		c0.6,0,0.9-0.3,0.9-0.8v-7.5h1.5V154.6z M1036.6,149.3c0.2,0,0.4-0.1,0.5-0.2s0.2-0.3,0.2-0.5c0-0.2-0.1-0.4-0.2-0.5
		c-0.1-0.1-0.3-0.2-0.5-0.2s-0.4,0.1-0.5,0.2c-0.1,0.2-0.2,0.3-0.2,0.5c0,0.2,0.1,0.4,0.2,0.5S1036.4,149.3,1036.6,149.3z"/>
	<path class="st4" d="M1052.4,156.5h-1.5c-1-2-2.4-3.1-4.3-3.3v1.5c0,1.2-0.6,1.8-1.7,1.8c-0.5,0-0.9-0.2-1.2-0.5s-0.5-0.7-0.5-1.3
		c0-0.6,0.2-1.1,0.5-1.5c0.3-0.4,0.8-0.7,1.4-0.9v-2.4h-0.1c-0.4,0-0.8-0.2-1.1-0.5s-0.5-0.7-0.5-1.1s0.2-0.8,0.5-1.1
		s0.7-0.5,1.1-0.5s0.8,0.2,1.1,0.5s0.5,0.7,0.5,1.1v3.9c1.6,0.2,3.1,1,4.3,2.4v-7.7h1.5V156.5z M1045.2,155v-1.7
		c-0.3,0.1-0.6,0.3-0.8,0.6s-0.3,0.6-0.3,1c0,0.3,0.1,0.5,0.2,0.7c0.1,0.2,0.3,0.3,0.5,0.3C1045.1,155.8,1045.2,155.5,1045.2,155z
		 M1045.2,149.3c0.2,0,0.4-0.1,0.5-0.2s0.2-0.3,0.2-0.5c0-0.2-0.1-0.4-0.2-0.5c-0.1-0.1-0.3-0.2-0.5-0.2s-0.4,0.1-0.5,0.2
		c-0.1,0.2-0.2,0.3-0.2,0.5c0,0.2,0.1,0.4,0.2,0.5S1044.9,149.3,1045.2,149.3z"/>
</g>
<g class="st3">
	<path d="M302.4,90.3V76h1.9v5.9h7.4V76h1.9v14.3h-1.9v-6.7h-7.4v6.7H302.4z"/>
	<path d="M315.9,85.1c0-1.9,0.5-3.3,1.6-4.3c0.9-0.8,2-1.2,3.3-1.2c1.4,0,2.6,0.5,3.5,1.4s1.4,2.2,1.4,3.9c0,1.3-0.2,2.4-0.6,3.1
		s-1,1.4-1.7,1.8s-1.6,0.6-2.5,0.6c-1.5,0-2.6-0.5-3.5-1.4S315.9,86.9,315.9,85.1z M317.7,85.1c0,1.3,0.3,2.3,0.9,3s1.3,1,2.2,1
		c0.9,0,1.6-0.3,2.2-1s0.9-1.7,0.9-3c0-1.3-0.3-2.3-0.9-2.9s-1.3-1-2.2-1c-0.9,0-1.6,0.3-2.2,1S317.7,83.8,317.7,85.1z"/>
	<path d="M334.5,90.3v-1.5c-0.8,1.2-1.9,1.8-3.3,1.8c-0.6,0-1.2-0.1-1.7-0.4s-0.9-0.5-1.2-0.9s-0.4-0.8-0.5-1.3
		c-0.1-0.3-0.1-0.9-0.1-1.6v-6.4h1.8v5.8c0,0.9,0,1.5,0.1,1.9c0.1,0.5,0.3,0.8,0.7,1.1s0.8,0.4,1.3,0.4s1-0.1,1.5-0.4s0.8-0.6,1-1.1
		s0.3-1.1,0.3-2v-5.6h1.8v10.4H334.5z"/>
	<path d="M338.1,87.2l1.7-0.3c0.1,0.7,0.4,1.2,0.8,1.6s1.1,0.6,1.9,0.6c0.8,0,1.4-0.2,1.8-0.5s0.6-0.7,0.6-1.2
		c0-0.4-0.2-0.7-0.5-0.9c-0.2-0.2-0.8-0.4-1.8-0.6c-1.3-0.3-2.2-0.6-2.7-0.8s-0.9-0.6-1.1-1s-0.4-0.9-0.4-1.4c0-0.5,0.1-0.9,0.3-1.3
		s0.5-0.7,0.9-1c0.3-0.2,0.6-0.4,1.1-0.5s1-0.2,1.5-0.2c0.8,0,1.5,0.1,2.1,0.4s1.1,0.6,1.4,1s0.5,0.9,0.6,1.6l-1.7,0.2
		c-0.1-0.5-0.3-1-0.7-1.3s-0.9-0.4-1.6-0.4c-0.8,0-1.4,0.1-1.7,0.4s-0.5,0.6-0.5,0.9c0,0.2,0.1,0.4,0.2,0.6c0.1,0.2,0.4,0.3,0.7,0.5
		c0.2,0.1,0.7,0.2,1.6,0.4c1.2,0.3,2.1,0.6,2.6,0.8s0.9,0.5,1.2,0.9s0.4,0.9,0.4,1.5c0,0.6-0.2,1.1-0.5,1.7s-0.8,0.9-1.5,1.2
		s-1.4,0.4-2.2,0.4c-1.3,0-2.4-0.3-3.1-0.8S338.3,88.3,338.1,87.2z"/>
	<path d="M355.9,87l1.8,0.2c-0.3,1.1-0.8,1.9-1.6,2.5s-1.8,0.9-3,0.9c-1.5,0-2.7-0.5-3.6-1.4s-1.3-2.2-1.3-3.9
		c0-1.7,0.4-3.1,1.3-4.1s2.1-1.4,3.5-1.4c1.4,0,2.5,0.5,3.4,1.4s1.3,2.3,1.3,4c0,0.1,0,0.3,0,0.5H350c0.1,1.1,0.4,2,1,2.6
		s1.3,0.9,2.2,0.9c0.6,0,1.2-0.2,1.7-0.5S355.6,87.7,355.9,87z M350.1,84.1h5.8c-0.1-0.9-0.3-1.5-0.7-2c-0.6-0.7-1.3-1-2.2-1
		c-0.8,0-1.5,0.3-2,0.8S350.2,83.2,350.1,84.1z"/>
	<path d="M363.8,90.3V77.7h-4.7V76h11.3v1.7h-4.7v12.6H363.8z"/>
	<path d="M369.3,85.1c0-1.9,0.5-3.3,1.6-4.3c0.9-0.8,2-1.2,3.3-1.2c1.4,0,2.6,0.5,3.5,1.4s1.4,2.2,1.4,3.9c0,1.3-0.2,2.4-0.6,3.1
		s-1,1.4-1.7,1.8s-1.6,0.6-2.5,0.6c-1.5,0-2.6-0.5-3.5-1.4S369.3,86.9,369.3,85.1z M371.1,85.1c0,1.3,0.3,2.3,0.9,3s1.3,1,2.2,1
		c0.9,0,1.6-0.3,2.2-1s0.9-1.7,0.9-3c0-1.3-0.3-2.3-0.9-2.9s-1.3-1-2.2-1c-0.9,0-1.6,0.3-2.2,1S371.1,83.8,371.1,85.1z"/>
	<path d="M381,90.3V76h1.8v8.2l4.2-4.2h2.3l-4,3.8l4.4,6.5h-2.2L384,85l-1.2,1.2v4.1H381z"/>
	<path d="M398.1,87l1.8,0.2c-0.3,1.1-0.8,1.9-1.6,2.5s-1.8,0.9-3,0.9c-1.5,0-2.7-0.5-3.6-1.4s-1.3-2.2-1.3-3.9
		c0-1.7,0.4-3.1,1.3-4.1s2.1-1.4,3.5-1.4c1.4,0,2.5,0.5,3.4,1.4s1.3,2.3,1.3,4c0,0.1,0,0.3,0,0.5h-7.7c0.1,1.1,0.4,2,1,2.6
		s1.3,0.9,2.2,0.9c0.6,0,1.2-0.2,1.7-0.5S397.9,87.7,398.1,87z M392.4,84.1h5.8c-0.1-0.9-0.3-1.5-0.7-2c-0.6-0.7-1.3-1-2.2-1
		c-0.8,0-1.5,0.3-2,0.8S392.4,83.2,392.4,84.1z"/>
	<path d="M402.2,90.3V79.9h1.6v1.5c0.8-1.1,1.9-1.7,3.3-1.7c0.6,0,1.2,0.1,1.7,0.3s0.9,0.5,1.2,0.9s0.4,0.8,0.5,1.3
		c0.1,0.3,0.1,0.9,0.1,1.7v6.4h-1.8V84c0-0.7-0.1-1.3-0.2-1.6s-0.4-0.6-0.7-0.8s-0.8-0.3-1.2-0.3c-0.7,0-1.4,0.2-1.9,0.7
		s-0.8,1.4-0.8,2.7v5.7H402.2z"/>
	<path d="M419,90.3V76h1.9v12.6h7.1v1.7H419z"/>
	<path d="M432.3,90.3V77.7h-4.7V76H439v1.7h-4.7v12.6H432.3z"/>
	<path d="M440.9,90.3V76h4.9c1.1,0,2,0.1,2.5,0.2c0.8,0.2,1.5,0.5,2.1,1c0.8,0.6,1.3,1.5,1.7,2.4s0.6,2.1,0.6,3.4
		c0,1.1-0.1,2.1-0.4,2.9s-0.6,1.5-1,2.1s-0.8,1-1.3,1.3s-1,0.6-1.7,0.7s-1.4,0.2-2.3,0.2H440.9z M442.8,88.6h3.1
		c0.9,0,1.7-0.1,2.2-0.3s1-0.4,1.3-0.7c0.4-0.4,0.8-1.1,1-1.8s0.4-1.7,0.4-2.8c0-1.5-0.2-2.6-0.7-3.5s-1.1-1.3-1.8-1.6
		c-0.5-0.2-1.3-0.3-2.5-0.3h-3V88.6z"/>
	<path d="M292.9,118.5c-1-1.2-1.8-2.7-2.5-4.3s-1-3.3-1-5.1c0-1.5,0.3-3,0.8-4.5c0.6-1.6,1.5-3.3,2.7-4.9h1.3
		c-0.8,1.4-1.3,2.3-1.6,2.9c-0.4,0.9-0.7,1.8-0.9,2.8c-0.3,1.2-0.4,2.4-0.4,3.7c0,3.1,1,6.3,2.9,9.4H292.9z"/>
	<path d="M305.5,112.2c0,0.6-0.2,1.2-0.7,1.5s-1,0.6-1.6,0.6h-6.7v-1.1h0.9v-6h-0.1c-0.5,0-0.9-0.2-1.2-0.5s-0.5-0.7-0.5-1.2
		s0.2-0.9,0.5-1.2s0.7-0.5,1.2-0.5s0.9,0.2,1.2,0.5s0.5,0.7,0.5,1.2v7.8h3.7c0.7,0,1-0.3,1-0.9v-8.3h1.6V112.2z M297.4,106.3
		c0.2,0,0.4-0.1,0.6-0.3s0.2-0.4,0.2-0.6c0-0.2-0.1-0.4-0.2-0.6s-0.4-0.2-0.6-0.2s-0.4,0.1-0.6,0.2s-0.2,0.4-0.2,0.6
		c0,0.2,0.1,0.4,0.2,0.6S297.1,106.3,297.4,106.3z"/>
	<path d="M315.8,104.5c-0.5,0.6-1,0.9-1.7,0.9c-0.3,0-0.8-0.1-1.4-0.3s-1.1-0.3-1.4-0.3c-0.8,0-1.5,0.3-1.9,1
		c0.4-0.1,0.8-0.1,1.3-0.1c1.5,0,2.6,0.3,3.3,0.9s1.1,1.4,1.1,2.4v3.7c0,0.5-0.2,0.9-0.5,1.2s-0.7,0.5-1.2,0.5
		c-0.5,0-0.9-0.2-1.2-0.5s-0.5-0.7-0.5-1.2s0.2-0.9,0.5-1.2s0.7-0.5,1.2-0.5h0.1v-1.7c0-1-0.3-1.6-0.8-1.9s-1.4-0.5-2.5-0.5
		c-0.8,0-1.6,0.1-2.2,0.3c0.1-1,0.4-1.9,1-2.5s1.4-0.9,2.2-0.9c0.4,0,1,0.1,1.7,0.3s1.1,0.3,1.2,0.3c0.4,0,0.7-0.2,0.9-0.6
		L315.8,104.5z M313.4,113.5c0.2,0,0.4-0.1,0.6-0.2s0.3-0.4,0.3-0.6s-0.1-0.4-0.3-0.6s-0.4-0.2-0.6-0.2c-0.2,0-0.4,0.1-0.6,0.2
		s-0.3,0.4-0.3,0.6s0.1,0.4,0.3,0.6S313.2,113.5,313.4,113.5z"/>
	<path d="M315.1,102.5h-7.8c0.6-2.1,1.9-3.1,3.9-3.1S314.6,100.4,315.1,102.5z M313.8,101.7c-0.5-1-1.4-1.5-2.6-1.5
		s-2.1,0.5-2.6,1.5H313.8z"/>
	<path d="M326.8,112.2c0,0.6-0.2,1.2-0.7,1.5s-1,0.6-1.6,0.6h-6.7v-1.1h0.9v-6h-0.1c-0.5,0-0.9-0.2-1.2-0.5s-0.5-0.7-0.5-1.2
		s0.2-0.9,0.5-1.2s0.7-0.5,1.2-0.5s0.9,0.2,1.2,0.5s0.5,0.7,0.5,1.2v7.8h3.7c0.7,0,1-0.3,1-0.9v-1.7h-0.2c-0.9,0-1.6-0.2-2.3-0.6
		s-1-0.9-1-1.5c0-0.4,0.1-0.7,0.4-1s0.6-0.4,1-0.4c0.4,0,0.7,0.1,1,0.4s0.4,0.6,0.4,1c0,0.6-0.3,1-0.8,1.2c0.4,0.1,0.8,0.2,1.2,0.2
		h0.2v-5.9h1.6v5.3c0.6-0.4,1.1-1.1,1.4-1.9l0.7,0.5c-0.5,1.1-1.2,1.9-2.1,2.3V112.2z M318.7,106.3c0.2,0,0.4-0.1,0.6-0.3
		s0.2-0.4,0.2-0.6c0-0.2-0.1-0.4-0.2-0.6s-0.4-0.2-0.6-0.2s-0.4,0.1-0.6,0.2s-0.2,0.4-0.2,0.6c0,0.2,0.1,0.4,0.2,0.6
		S318.5,106.3,318.7,106.3z M323.1,109.1c0.2,0,0.4-0.1,0.5-0.2s0.2-0.3,0.2-0.5s-0.1-0.4-0.2-0.5s-0.3-0.2-0.5-0.2
		s-0.4,0.1-0.5,0.2s-0.2,0.3-0.2,0.5s0.1,0.4,0.2,0.5S322.9,109.1,323.1,109.1z"/>
	<path d="M328.9,98.8c-0.2,1.2-0.7,2.1-1.6,2.8s-2,1-3.3,1c-0.8,0-1.5-0.2-2-0.6s-0.7-0.9-0.7-1.4c0-0.5,0.2-0.9,0.5-1.2
		s0.7-0.5,1.2-0.5s0.9,0.2,1.2,0.5s0.5,0.7,0.5,1.2c0,0.4-0.1,0.8-0.4,1.1c0.8,0,1.5-0.3,2.1-0.8s0.9-1.2,1-2H328.9z M323.1,101.3
		c0.2,0,0.4-0.1,0.6-0.2s0.2-0.4,0.2-0.6s-0.1-0.4-0.2-0.6s-0.4-0.2-0.6-0.2s-0.4,0.1-0.6,0.2s-0.2,0.4-0.2,0.6s0.1,0.4,0.2,0.6
		S322.9,101.3,323.1,101.3z"/>
	<path d="M339.3,114.3h-1.6v-8.7c0-0.4-0.1-0.6-0.4-0.6c-0.1,0-0.3,0.1-0.4,0.3s-0.4,0.6-0.7,1s-0.6,1.1-0.9,1.8s-0.8,1.8-1.3,3.3
		s-0.8,2.3-0.8,2.5v0.3h-1.6v-7.2h-0.1c-0.5,0-0.9-0.2-1.2-0.5s-0.5-0.7-0.5-1.2s0.2-0.9,0.5-1.2s0.7-0.5,1.2-0.5s0.9,0.2,1.2,0.5
		s0.5,0.7,0.5,1.2v5.2c0.7-1.9,1.5-3.6,2.2-4.9s1.6-2,2.4-2c1,0,1.6,0.6,1.6,1.9V114.3z M331.4,106.3c0.2,0,0.4-0.1,0.6-0.3
		s0.2-0.4,0.2-0.6c0-0.2-0.1-0.4-0.2-0.6s-0.4-0.2-0.6-0.2s-0.4,0.1-0.6,0.2s-0.2,0.4-0.2,0.6c0,0.2,0.1,0.4,0.2,0.6
		S331.2,106.3,331.4,106.3z"/>
	<path d="M354.5,110.9L354.5,110.9c0.5,0,1,0.2,1.3,0.5s0.5,0.7,0.5,1.2s-0.2,0.9-0.5,1.2s-0.7,0.5-1.2,0.5c-0.5,0-0.9-0.2-1.2-0.5
		s-0.5-0.7-0.5-1.2v-8.7h1.6V110.9z M354.6,113.5c0.2,0,0.4-0.1,0.6-0.2s0.2-0.4,0.2-0.6s-0.1-0.4-0.2-0.6s-0.4-0.2-0.6-0.2
		c-0.2,0-0.4,0.1-0.6,0.2s-0.3,0.4-0.3,0.6s0.1,0.4,0.3,0.6S354.4,113.5,354.6,113.5z"/>
	<path d="M367.4,114.3h-1.6v-6.8c0-0.8-0.3-1.5-0.9-2s-1.3-0.7-2.3-0.7c-1,0-1.8,0.3-2.5,0.8s-0.9,1.2-0.9,2c0,0.8,0.2,1.7,0.7,2.5
		v-1.6c0-0.5,0.2-0.9,0.5-1.2s0.7-0.5,1.2-0.5c0.5,0,0.9,0.2,1.2,0.5s0.5,0.7,0.5,1.2s-0.2,0.9-0.5,1.2s-0.7,0.5-1.2,0.5h-0.1v4
		h-1.6v-0.9c0-0.7-0.3-1.6-0.9-2.7s-0.9-2.1-0.9-3c0-1.1,0.4-2.1,1.3-2.8s1.9-1.2,3.3-1.2c1.4,0,2.6,0.3,3.5,1s1.3,1.6,1.3,2.7
		V114.3z M361.6,109.4c0.2,0,0.4-0.1,0.6-0.2s0.3-0.4,0.3-0.6c0-0.2-0.1-0.4-0.3-0.6s-0.4-0.3-0.6-0.3c-0.2,0-0.4,0.1-0.6,0.3
		s-0.2,0.4-0.2,0.6c0,0.2,0.1,0.4,0.2,0.6S361.4,109.4,361.6,109.4z"/>
	<path d="M377.4,112.2c0,0.6-0.2,1.2-0.7,1.5s-1,0.6-1.6,0.6h-5.4V111c0-0.8,0.3-1.4,0.9-1.8c-0.6-0.3-0.9-0.9-0.9-1.8v-2.1
		c0-0.5,0.2-0.9,0.5-1.2s0.7-0.5,1.2-0.5s0.9,0.2,1.2,0.5s0.5,0.7,0.5,1.2s-0.2,0.9-0.5,1.2s-0.7,0.5-1.2,0.5h-0.1v0.4
		c0,0.4,0.1,0.8,0.4,1s0.6,0.4,1,0.4v0.6c-0.4,0-0.7,0.1-1,0.4s-0.4,0.6-0.4,1v2.2h3.3c0.7,0,1-0.3,1-0.9v-8.3h1.6V112.2z
		 M371.4,106.3c0.2,0,0.4-0.1,0.6-0.3s0.2-0.4,0.2-0.6c0-0.2-0.1-0.4-0.2-0.6s-0.4-0.2-0.6-0.2s-0.4,0.1-0.6,0.2s-0.2,0.4-0.2,0.6
		c0,0.2,0.1,0.4,0.2,0.6S371.2,106.3,371.4,106.3z"/>
	<path d="M379,98.2c0,0.3-0.1,0.6-0.3,0.8s-0.6,0.4-1.3,0.6s-1,0.4-1.2,0.5c0.3,0,0.6,0.1,0.8,0.4s0.4,0.5,0.4,0.8
		c0,0.3-0.1,0.6-0.4,0.8s-0.5,0.4-0.8,0.4c-0.3,0-0.6-0.1-0.9-0.4s-0.4-0.6-0.4-1c0-1,0.6-1.6,1.8-2c0.6-0.2,1-0.3,1.2-0.4
		s0.3-0.3,0.3-0.5H379z M376.2,101.9c0.2,0,0.3-0.1,0.4-0.2s0.2-0.3,0.2-0.4s-0.1-0.3-0.2-0.4s-0.3-0.2-0.4-0.2s-0.3,0.1-0.4,0.2
		s-0.2,0.3-0.2,0.4s0.1,0.3,0.2,0.4S376,101.9,376.2,101.9z"/>
	<path d="M381.5,110.9L381.5,110.9c0.5,0,1,0.2,1.3,0.5s0.5,0.7,0.5,1.2s-0.2,0.9-0.5,1.2s-0.7,0.5-1.2,0.5c-0.5,0-0.9-0.2-1.2-0.5
		s-0.5-0.7-0.5-1.2v-8.7h1.6V110.9z M381.5,113.5c0.2,0,0.4-0.1,0.6-0.2s0.2-0.4,0.2-0.6s-0.1-0.4-0.2-0.6s-0.4-0.2-0.6-0.2
		c-0.2,0-0.4,0.1-0.6,0.2s-0.3,0.4-0.3,0.6s0.1,0.4,0.3,0.6S381.3,113.5,381.5,113.5z M387.2,110.9L387.2,110.9c0.5,0,1,0.2,1.3,0.5
		s0.5,0.7,0.5,1.2s-0.2,0.9-0.5,1.2s-0.7,0.5-1.2,0.5s-0.9-0.2-1.2-0.5s-0.5-0.7-0.5-1.2v-8.7h1.6V110.9z M387.2,113.5
		c0.2,0,0.4-0.1,0.6-0.2s0.2-0.4,0.2-0.6s-0.1-0.4-0.2-0.6s-0.4-0.2-0.6-0.2s-0.4,0.1-0.6,0.2s-0.2,0.4-0.2,0.6s0.1,0.4,0.2,0.6
		S387,113.5,387.2,113.5z"/>
	<path d="M400.5,114.3h-1.6c-1.1-2.2-2.7-3.4-4.7-3.6v1.7c0,1.3-0.6,2-1.9,2c-0.5,0-0.9-0.2-1.3-0.5s-0.5-0.8-0.5-1.4
		c0-0.6,0.2-1.2,0.6-1.6s0.9-0.8,1.6-1v-2.7h-0.1c-0.5,0-0.9-0.2-1.2-0.5s-0.5-0.7-0.5-1.2s0.2-0.9,0.5-1.2s0.7-0.5,1.2-0.5
		s0.9,0.2,1.2,0.5s0.5,0.7,0.5,1.2v4.4c1.8,0.2,3.4,1.1,4.7,2.7v-8.6h1.6V114.3z M392.4,112.6v-1.9c-0.4,0.1-0.7,0.3-0.9,0.7
		s-0.3,0.7-0.3,1.1c0,0.3,0.1,0.6,0.2,0.8s0.3,0.3,0.5,0.3C392.3,113.5,392.4,113.2,392.4,112.6z M392.4,106.3
		c0.2,0,0.4-0.1,0.6-0.3s0.2-0.4,0.2-0.6c0-0.2-0.1-0.4-0.2-0.6s-0.4-0.2-0.6-0.2s-0.4,0.1-0.6,0.2s-0.2,0.4-0.2,0.6
		c0,0.2,0.1,0.4,0.2,0.6S392.1,106.3,392.4,106.3z"/>
	<path d="M411.7,110.2c1.2,0.4,1.8,1.1,1.8,2.2c0,0.6-0.2,1-0.5,1.4s-0.7,0.5-1.2,0.5c-0.6,0-1-0.1-1.3-0.4s-0.4-0.8-0.4-1.5v-1.3
		c-1.6,0.3-3.1,1.4-4.3,3.2h-1.6v-7.2H404c-0.5,0-0.9-0.2-1.2-0.5s-0.5-0.7-0.5-1.2s0.2-0.9,0.5-1.2s0.7-0.5,1.2-0.5
		s0.9,0.2,1.2,0.5s0.5,0.7,0.5,1.2v7.5c1.1-1.4,2.5-2.3,4.3-2.7v-6.3h1.6V110.2z M404,106.3c0.2,0,0.4-0.1,0.6-0.3s0.2-0.4,0.2-0.6
		c0-0.2-0.1-0.4-0.2-0.6s-0.4-0.2-0.6-0.2s-0.4,0.1-0.6,0.2s-0.2,0.4-0.2,0.6c0,0.2,0.1,0.4,0.2,0.6S403.8,106.3,404,106.3z
		 M412.6,112.4c0-0.3-0.1-0.5-0.3-0.8s-0.4-0.5-0.6-0.6v1.7c0,0.3,0,0.5,0.1,0.6s0.1,0.1,0.3,0.1
		C412.4,113.5,412.6,113.1,412.6,112.4z"/>
	<path d="M428.1,112.5c0,0.5-0.2,0.9-0.7,1.3s-1,0.6-1.7,0.6c-0.7,0-1.2-0.2-1.7-0.6s-0.7-0.8-0.7-1.3v-1.9h-0.1
		c-0.5,0-0.9-0.2-1.2-0.5s-0.5-0.7-0.5-1.2s0.2-0.9,0.5-1.2s0.7-0.5,1.2-0.5s0.9,0.2,1.2,0.5s0.5,0.7,0.5,1.2v3.7
		c0,0.2,0.1,0.4,0.2,0.5s0.3,0.2,0.5,0.2s0.4-0.1,0.5-0.2s0.2-0.3,0.2-0.5v-5.2c0-0.8-0.2-1.4-0.7-1.8s-1.1-0.6-1.9-0.6
		c-1.2,0-2.1,0.5-2.8,1.5l-0.8-0.7c1-1.3,2.2-1.9,3.7-1.9c1.2,0,2.2,0.3,2.9,1s1.2,1.5,1.2,2.6V112.5z M423.2,109.7
		c0.2,0,0.4-0.1,0.6-0.3s0.2-0.4,0.2-0.6c0-0.2-0.1-0.4-0.2-0.6s-0.4-0.2-0.6-0.2s-0.4,0.1-0.6,0.2s-0.2,0.4-0.2,0.6
		c0,0.2,0.1,0.4,0.2,0.6S423,109.7,423.2,109.7z"/>
	<path d="M426.9,97.8c0.5,0,0.9,0.2,1.2,0.5s0.5,0.7,0.5,1.2c0,0.5-0.2,0.9-0.5,1.2s-0.7,0.5-1.2,0.5c-0.5,0-0.9-0.2-1.2-0.5
		s-0.5-0.7-0.5-1.2c0-0.5,0.2-0.9,0.5-1.2S426.4,97.8,426.9,97.8z M426.9,100.4c0.2,0,0.4-0.1,0.6-0.3s0.2-0.4,0.2-0.6
		c0-0.2-0.1-0.4-0.2-0.6s-0.4-0.2-0.6-0.2c-0.2,0-0.4,0.1-0.6,0.2s-0.3,0.4-0.3,0.6c0,0.2,0.1,0.4,0.3,0.6S426.6,100.4,426.9,100.4z
		 M436.5,114.3h-1.6v-7c0-1.6-0.7-2.4-2.2-2.4c-1,0-1.8,0.5-2.4,1.5l-0.8-0.7c0.9-1.3,2-1.9,3.3-1.9c1.1,0,2,0.3,2.7,1s1,1.5,1,2.6
		V114.3z"/>
	<path d="M447.4,114.3h-1.6v-6.8c0-0.8-0.3-1.5-0.8-2s-1.3-0.7-2.1-0.7c-1.3,0-2.2,0.4-2.7,1.2c0.4,0.6,1.1,1,2.2,1.1v0.6
		c-0.4,0-0.7,0.1-1,0.4s-0.4,0.6-0.4,1.1v5.1h-1.6v-5.1c0-0.7,0.3-1.3,0.9-1.6c-0.8-0.3-1.4-0.8-1.8-1.4c0.8-1.6,2.3-2.4,4.4-2.4
		c1.3,0,2.4,0.3,3.2,1s1.3,1.6,1.3,2.7V114.3z"/>
	<path d="M448.5,98.8c-0.2,1.2-0.7,2.1-1.6,2.8s-2,1-3.3,1c-0.8,0-1.5-0.2-2-0.6s-0.7-0.9-0.7-1.4c0-0.5,0.2-0.9,0.5-1.2
		s0.7-0.5,1.2-0.5s0.9,0.2,1.2,0.5s0.5,0.7,0.5,1.2c0,0.4-0.1,0.8-0.4,1.1c0.8,0,1.5-0.3,2.1-0.8s0.9-1.2,1-2H448.5z M442.7,101.3
		c0.2,0,0.4-0.1,0.6-0.2s0.2-0.4,0.2-0.6s-0.1-0.4-0.2-0.6s-0.4-0.2-0.6-0.2s-0.4,0.1-0.6,0.2s-0.2,0.4-0.2,0.6s0.1,0.4,0.2,0.6
		S442.4,101.3,442.7,101.3z"/>
	<path d="M458.6,114.3H457v-6.8c0-0.8-0.3-1.5-0.9-2s-1.3-0.7-2.3-0.7c-1,0-1.8,0.3-2.5,0.8s-0.9,1.2-0.9,2c0,0.8,0.3,1.6,0.8,2.5
		s0.9,1.5,1.1,1.9c0.2-0.3,0.4-0.6,0.8-1s0.6-0.7,0.7-0.9h-0.1c-0.5,0-0.9-0.2-1.2-0.5s-0.5-0.7-0.5-1.2s0.2-0.9,0.5-1.2
		s0.7-0.5,1.2-0.5c0.5,0,0.9,0.2,1.2,0.5s0.5,0.7,0.5,1.2c0,0.4-0.1,0.9-0.3,1.3s-0.6,1-1.3,1.8s-1,1.3-1,1.7v0.9h-1.6v-0.9
		c0-0.7-0.3-1.6-0.9-2.7s-0.9-2.1-0.9-3c0-1.1,0.4-2.1,1.3-2.8s1.9-1.2,3.3-1.2c1.4,0,2.6,0.3,3.5,1s1.3,1.6,1.3,2.7V114.3z
		 M453.7,109.4c0.2,0,0.4-0.1,0.6-0.2s0.3-0.4,0.3-0.6c0-0.2-0.1-0.4-0.3-0.6s-0.4-0.3-0.6-0.3c-0.2,0-0.4,0.1-0.6,0.3
		s-0.2,0.4-0.2,0.6c0,0.2,0.1,0.4,0.2,0.6S453.5,109.4,453.7,109.4z"/>
	<path d="M462.2,118.5h-1.3c1.9-3.1,2.9-6.3,2.9-9.4c0-1.2-0.1-2.4-0.4-3.6c-0.2-1-0.5-1.9-0.9-2.8c-0.3-0.6-0.8-1.6-1.6-2.9h1.3
		c1.2,1.6,2.1,3.3,2.7,4.9c0.5,1.4,0.8,2.9,0.8,4.5c0,1.8-0.3,3.5-1,5.1S463.2,117.3,462.2,118.5z"/>
</g>
</svg>
