<?xml version="1.0" encoding="utf-8"?>
<!-- Generator: Adobe Illustrator 23.0.0, SVG Export Plug-In . SVG Version: 6.00 Build 0)  -->
<svg version="1.1" id="运作原理" xmlns="http://www.w3.org/2000/svg" xmlns:xlink="http://www.w3.org/1999/xlink" x="0px"
	 y="0px" viewBox="0 0 817 407" style="enable-background:new 0 0 817 407;" xml:space="preserve">
<style type="text/css">
	.st0{fill:none;stroke:#90A7AB;}
	.st1{fill:#70DBCB;}
	.st2{fill:#9FE7DD;stroke:#34B9A1;stroke-width:2;}
	.st3{fill:none;stroke:#456E68;stroke-width:1.5;stroke-miterlimit:10;}
	.st4{enable-background:new    ;}
	.st5{fill:#456E68;}
</style>
<path id="形状_1_拷贝_3" class="st0" d="M63.1,200.2l0.1,71.6l4.6-2.1"/>
<path id="形状_1_拷贝_5" class="st0" d="M734.8,153.2l-0.1-71.1l-4.6,2"/>
<path id="形状_1" class="st0" d="M127.2,93.1h98.3l46.2,46.1l-0.3-6"/>
<path id="形状_1_拷贝_2" class="st0" d="M271.4,172.3h-98l-46.1-46.5l0.3,6.1"/>
<path id="形状_1_拷贝" class="st0" d="M653,207.3h-98.1l-46.1,46.1l0.3-6"/>
<path id="形状_1_拷贝_4" class="st0" d="M509.1,286.5H607l46-46.5l-0.3,6.1"/>
<g id="椭圆_7">
	<path class="st1" d="M225.4,219.8c-10.8,0-19.5-8.7-19.5-19.5s8.7-19.5,19.5-19.5s19.5,8.7,19.5,19.5S236.2,219.8,225.4,219.8z
		 M225.4,181.8c-10.2,0-18.5,8.3-18.5,18.5s8.3,18.5,18.5,18.5s18.5-8.3,18.5-18.5S235.6,181.8,225.4,181.8z"/>
</g>
<circle id="椭圆_6" class="st2" cx="389.6" cy="197.3" r="104.2"/>
<g>
	<circle class="st3" cx="63.3" cy="72.4" r="17.1"/>
	<line class="st3" x1="49.5" y1="99.3" x2="63.3" y2="115"/>
	<line class="st3" x1="76.6" y1="99.3" x2="63.3" y2="115"/>
	<line class="st3" x1="63.3" y1="130.6" x2="63.3" y2="115"/>
	<path class="st3" d="M100,121.6v3.7c0,3.4-2.8,6.1-6.1,6.1H32.6c-3.4,0-6.1-2.8-6.1-6.1v-3.7"/>
	<path class="st3" d="M32.6,115.5"/>
	<path class="st3" d="M26.5,123.3c0-13.9,11.4-24.5,25.3-24.5h23c13.9,0,25.2,11.3,25.2,25.2l0,0"/>
</g>
<g class="st4">
	<g>
		<g>
			<path class="st5" d="M96.5,302.6H86.4c1-0.8,1.6-1.9,1.6-3.2c0-2.3-1.8-4.1-4.1-4.1s-4.1,1.8-4.1,4.1c0,0.7,0.2,1.3,0.5,1.9
				l-1.5,1.3h-20c-0.6-1.5-2.1-2.5-3.8-2.5s-3.2,1-3.8,2.5H28.9c-1.8,0-3.3,1.5-3.3,3.3v8c0,0.6,0.5,1.1,1.1,1.1s1.1-0.5,1.1-1.1v-8
				c0-0.6,0.5-1.1,1.1-1.1h22c0.1,0.4,0.2,0.8,0.3,1.2l-9.1,8.3c-0.6-0.4-1.4-0.7-2.2-0.7c-2.3,0-4.1,1.8-4.1,4.1s1.8,4.1,4.1,4.1
				s4.1-1.8,4.1-4.1c0-0.7-0.2-1.3-0.4-1.8l9.1-8.3c0.7,0.5,1.5,0.7,2.3,0.7c1.2,0,2.2-0.5,3-1.3l7.4,4.4c-0.1,0.3-0.1,0.5-0.1,0.8
				c0,2.3,1.8,4.1,4.1,4.1c2.3,0,4.1-1.8,4.1-4.1c0-0.6-0.1-1.2-0.4-1.7l6.4-5.8h16.9c0.6,0,1.1,0.5,1.1,1.1v26.8
				c0,0.6,0.5,1.1,1.1,1.1s1.1-0.5,1.1-1.1v-26.8C99.8,304,98.3,302.6,96.5,302.6z M39.9,319.6c-1.1,0-1.9-0.9-1.9-1.9
				c0-1.1,0.9-1.9,1.9-1.9s1.9,0.9,1.9,1.9S41,319.6,39.9,319.6z M55,306.1c-1.1,0-1.9-0.9-1.9-1.9c0-1.1,0.9-1.9,1.9-1.9
				s1.9,0.9,1.9,1.9S56.1,306.1,55,306.1z M69.5,314.2c-1.1,0-1.9-0.9-1.9-1.9c0-1.1,0.9-1.9,1.9-1.9s1.9,0.9,1.9,1.9
				C71.5,313.3,70.6,314.2,69.5,314.2z M71.9,308.9c-0.7-0.5-1.5-0.8-2.4-0.8c-1.2,0-2.3,0.5-3.1,1.4l-7.3-4.4
				c0-0.1,0.1-0.3,0.1-0.4h17.2L71.9,308.9z M83.9,301.3c-1.1,0-1.9-0.9-1.9-1.9s0.9-1.9,1.9-1.9s1.9,0.9,1.9,1.9
				S85,301.3,83.9,301.3z"/>
		</g>
	</g>
	<g>
		<g>
			<path class="st5" d="M99.8,337c0-0.6-0.5-1.1-1.1-1.1s-1.1,0.5-1.1,1.1v8.2h-8v-25.7v-4.4v-4.5c0-0.6-0.5-1.1-1.1-1.1h-8.2
				c-0.6,0-1.1,0.5-1.1,1.1v4.5v4.4v25.7h-4.1v-5.5v-4.5v-4.5c0-0.6-0.5-1.1-1.1-1.1h-8c-0.6,0-1.1,0.5-1.1,1.1v4.5v4.4v5.5h-4.1
				v-19.5v-4.4v-4.5c0-0.6-0.5-1.1-1.1-1.1h-8.2c-0.6,0-1.1,0.5-1.1,1.1v4.5v4.4v6.1c0,0.6,0.5,1.1,1.1,1.1s1.1-0.5,1.1-1.1v-5h6
				v18.4h-6V336c0-0.6-0.5-1.1-1.1-1.1s-1.1,0.5-1.1,1.1v9.1h-4.1v-5.5v-4.4v-4.5c0-0.6-0.5-1.1-1.1-1.1H37c-0.6,0-1.1,0.5-1.1,1.1
				v4.5v4.4v5.5h-8.2v-27c0-0.6-0.5-1.1-1.1-1.1s-1.1,0.5-1.1,1.1v36c0,1.8,1.5,3.3,3.3,3.3h23.8l-0.6,5.4h-5
				c-0.6,0-1.1,0.5-1.1,1.1v3.8c0,0.6,0.5,1.1,1.1,1.1h31.5c0.6,0,1.1-0.5,1.1-1.1v-3.8c0-0.6-0.5-1.1-1.1-1.1h-5.2l-0.6-5.4h23.8
				c1.8,0,3.3-1.5,3.3-3.3v-7.8l0,0V337L99.8,337z M81.5,311.6h6v2.3h-6V311.6z M81.5,316.1h6v2.3h-6V316.1z M81.5,320.5h6v24.6h-6
				V320.5z M67.1,331.8h6v2.3h-6V331.8z M67.1,336.3h6v2.3h-6V336.3z M67.1,340.7h6v4.4h-6V340.7z M52.6,320.1v-2.3h6v2.3H52.6z
				 M52.6,324.5v-2.3h6v2.3H52.6z M38.2,331.8h6v2.3h-6V331.8z M38.2,336.3h6v2.3h-6V336.3z M38.2,340.7h6v4.4h-6V340.7z M77.5,365
				v1.6H48V365H77.5z M54.2,362.8l0.6-5.4h15.6l0.6,5.4H54.2z M96.5,355.3H28.9c-0.6,0-1.1-0.5-1.1-1.1v-6.7h69.8v6.7l0,0
				C97.6,354.8,97.1,355.3,96.5,355.3z"/>
		</g>
	</g>
</g>
<path class="st5" d="M759.5,186.2h-8.4v8.4h8.4V186.2z M756.7,191.9h-2.8V189h2.8V191.9z"/>
<path class="st5" d="M770.7,186.2h-8.4v8.4h8.4V186.2z M767.9,191.9h-2.8V189h2.8V191.9z"/>
<path class="st5" d="M759.5,197.5h-8.4v8.4h8.4V197.5z M756.7,203.1h-2.8v-2.8h2.8V203.1z"/>
<path class="st5" d="M770.7,197.5h-8.4v8.4h8.4V197.5z M767.9,203.1h-2.8v-2.8h2.8V203.1z"/>
<path class="st5" d="M759.5,217.1v-8.4h-8.4v8.4H759.5z M753.9,211.5h2.8v2.8h-2.8V211.5z"/>
<path class="st5" d="M770.7,208.7h-8.4v8.4h8.4V208.7z M767.9,214.3h-2.8v-2.8h2.8V214.3z"/>
<path class="st5" d="M779.1,183.4v-2.8h-2.8V175h-2.8v-5.6h-25.2v5.6h-2.8v5.6h-2.8v2.8h2.8v36.5h-11.2v-16.8h2.8v-8.4h-2.8v-2.1
	L714.7,179l-8.4,5.8v-4.3h-8.4v10.1l-2.8,1.9v2.1h-2.8v8.4h2.8v17.1c-1.6,0.6-2.8,2.1-2.8,3.9v2.8c0,2.3,1.9,4.2,4.2,4.2h27.3
	c-2.2,2.7-3.5,6.1-3.5,9.8c0,8.5,6.9,15.4,15.4,15.4s15.4-6.8,15.4-15.3c0-3.7-1.3-7.1-3.5-9.8h27.3c2.3,0,4.2-1.9,4.2-4.2v-2.8
	c0-1.8-1.2-3.4-2.8-3.9v-36.8L779.1,183.4L779.1,183.4z M751.1,172.2h19.6v2.8h-19.6V172.2z M748.3,177.8h25.2v2.8h-25.2V177.8z
	 M700.6,183.2h2.8v3.5l-2.8,1.9V183.2z M697.8,194.1l16.8-11.6l16.8,11.6v0.7h-33.7v-0.7H697.8z M695,197.5h39.3v2.8H695V197.5z
	 M731.5,203.1v16.8h-11.2v-14H709v14h-11.2v-16.8H731.5z M717.4,219.9h-5.6v-11.2h5.6V219.9z M735.7,253.6
	c-6.9,0-12.6-5.7-12.6-12.6c0-6.9,5.7-12.6,12.6-12.6s12.6,5.7,12.6,12.6C748.3,247.9,742.7,253.6,735.7,253.6z M776.3,226.9
	c0,0.8-0.6,1.4-1.4,1.4h-30.4c-2.5-1.8-5.5-2.8-8.8-2.8s-6.3,1-8.8,2.8h-30.4c-0.8,0-1.4-0.6-1.4-1.4v-2.8c0-0.8,0.6-1.4,1.4-1.4
	H775c0.8,0,1.4,0.6,1.4,1.4L776.3,226.9L776.3,226.9z M773.5,219.9h-25.2v-36.5h25.2V219.9z"/>
<g class="st4">
	<g>
		<g>
			<path class="st5" d="M715.3,25.6h-8.5c-0.6,0-1.1,0.5-1.1,1.1V31c0,0.6,0.5,1.1,1.1,1.1h8.5c0.6,0,1.1-0.5,1.1-1.1v-4.3
				C716.3,26.1,715.9,25.6,715.3,25.6z M709.9,29.9h-2.1v-2.1h2.1V29.9z M714.2,29.9h-2.1v-2.1h2.1V29.9z"/>
		</g>
	</g>
	<g>
		<g>
			<path class="st5" d="M715.3,34.1h-8.5c-0.6,0-1.1,0.5-1.1,1.1v4.3c0,0.6,0.5,1.1,1.1,1.1h8.5c0.6,0,1.1-0.5,1.1-1.1v-4.3
				C716.3,34.6,715.9,34.1,715.3,34.1z M709.9,38.4h-2.1v-2.1h2.1V38.4z M714.2,38.4h-2.1v-2.1h2.1V38.4z"/>
		</g>
	</g>
	<g>
		<g>
			<path class="st5" d="M715.3,42.8h-8.5c-0.6,0-1.1,0.5-1.1,1.1v4.2c0,0.6,0.5,1.1,1.1,1.1h8.5c0.6,0,1.1-0.5,1.1-1.1v-4.3
				C716.3,43.2,715.9,42.8,715.3,42.8z M709.9,47h-2.1v-2.1h2.1V47z M714.2,47h-2.1v-2.1h2.1V47z"/>
		</g>
	</g>
	<g>
		<g>
			<path class="st5" d="M753.7,25.6h-8.5c-0.6,0-1.1,0.5-1.1,1.1V31c0,0.6,0.5,1.1,1.1,1.1h8.5c0.6,0,1.1-0.5,1.1-1.1v-4.3
				C754.7,26.1,754.3,25.6,753.7,25.6z M748.3,29.9h-2.1v-2.1h2.1V29.9z M752.6,29.9h-2.1v-2.1h2.1V29.9z"/>
		</g>
	</g>
	<g>
		<g>
			<path class="st5" d="M753.7,17.1h-8.5c-0.6,0-1.1,0.5-1.1,1.1v4.3c0,0.6,0.5,1.1,1.1,1.1h8.5c0.6,0,1.1-0.5,1.1-1.1v-4.3
				C754.7,17.5,754.3,17.1,753.7,17.1z M748.3,21.3h-2.1v-2.1h2.1V21.3z M752.6,21.3h-2.1v-2.1h2.1V21.3z"/>
		</g>
	</g>
	<g>
		<g>
			<path class="st5" d="M728.1,29.9h-4.3c-0.6,0-1.1,0.5-1.1,1.1v4.3c0,0.6,0.5,1.1,1.1,1.1h4.3c0.6,0,1.1-0.5,1.1-1.1V31
				C729.1,30.3,728.7,29.9,728.1,29.9z M727,34.1h-2.1V32h2.1V34.1z"/>
		</g>
	</g>
	<g>
		<g>
			<path class="st5" d="M736.6,29.9h-4.3c-0.6,0-1.1,0.5-1.1,1.1v4.3c0,0.6,0.5,1.1,1.1,1.1h4.3c0.6,0,1.1-0.5,1.1-1.1V31
				C737.7,30.3,737.2,29.9,736.6,29.9z M735.5,34.1h-2.1V32h2.1V34.1z"/>
		</g>
	</g>
	<g>
		<g>
			<path class="st5" d="M728.1,21.3h-4.3c-0.6,0-1.1,0.5-1.1,1.1v4.3c0,0.6,0.5,1.1,1.1,1.1h4.3c0.6,0,1.1-0.5,1.1-1.1v-4.3
				C729.1,21.8,728.7,21.3,728.1,21.3z M727,25.6h-2.1v-2.1h2.1V25.6z"/>
		</g>
	</g>
	<g>
		<g>
			<path class="st5" d="M736.6,21.3h-4.3c-0.6,0-1.1,0.5-1.1,1.1v4.3c0,0.6,0.5,1.1,1.1,1.1h4.3c0.6,0,1.1-0.5,1.1-1.1v-4.3
				C737.7,21.8,737.2,21.3,736.6,21.3z M735.5,25.6h-2.1v-2.1h2.1V25.6z"/>
		</g>
	</g>
	<g>
		<g>
			<path class="st5" d="M728.1,12.8h-4.3c-0.6,0-1.1,0.5-1.1,1.1v4.3c0,0.6,0.5,1.1,1.1,1.1h4.3c0.6,0,1.1-0.5,1.1-1.1v-4.3
				C729.1,13.3,728.7,12.8,728.1,12.8z M727,17.1h-2.1V15h2.1V17.1z"/>
		</g>
	</g>
	<g>
		<g>
			<path class="st5" d="M736.6,12.8h-4.3c-0.6,0-1.1,0.5-1.1,1.1v4.3c0,0.6,0.5,1.1,1.1,1.1h4.3c0.6,0,1.1-0.5,1.1-1.1v-4.3
				C737.7,13.3,737.2,12.8,736.6,12.8z M735.5,17.1h-2.1V15h2.1V17.1z"/>
		</g>
	</g>
	<g>
		<g>
			<path class="st5" d="M728.1,42.8h-4.3c-0.6,0-1.1,0.5-1.1,1.1v4.2c0,0.6,0.5,1.1,1.1,1.1h4.3c0.6,0,1.1-0.5,1.1-1.1v-4.3
				C729.1,43.2,728.7,42.8,728.1,42.8z M727,47h-2.1v-2.1h2.1V47z"/>
		</g>
	</g>
	<g>
		<g>
			<rect x="705.6" y="51.3" class="st5" width="2.1" height="2.1"/>
		</g>
	</g>
	<g>
		<g>
			<rect x="709.9" y="51.3" class="st5" width="2.1" height="2.1"/>
		</g>
	</g>
	<g>
		<g>
			<rect x="714.2" y="51.3" class="st5" width="2.1" height="2.1"/>
		</g>
	</g>
	<g>
		<g>
			<path class="st5" d="M764.3,38.4H759V13.9c0-0.6-0.5-1.1-1.1-1.1h-7.5v-1.7l1.1-1.1c0.9,0.7,2,1.1,3.1,1.1c1.4,0,2.7-0.5,3.7-1.5
				l0.2-0.2c0.4-0.4,0.4-1.1,0-1.5l-2.4-2.4l2.4-2.4L757,1.6L754.6,4l-3.5-3.5c-0.2-0.2-0.5-0.3-0.8-0.3c-0.4,0-0.7,0.2-0.9,0.4
				c-1.1,1-1.7,2.3-1.7,3.7s0.5,2.9,1.6,3.9l0.5,0.5l-1.4,1.4c-0.2,0.2-0.3,0.5-0.3,0.8V13h-6.4V9.6c0-0.6-0.5-1.1-1.1-1.1h-3.7
				l-6.1-8.1c-0.4-0.5-1.3-0.5-1.7,0L723,8.5h-3.7c-0.6,0-1.1,0.5-1.1,1.1v11.7h-6.4v-8.5h-2.1v8.5h-7.5c-0.6,0-1.1,0.5-1.1,1.1V63
				c0,0.6,0.5,1.1,1.1,1.1h17.1h7.5h8.5h1.1h6.4h17.1c2.9,0,5.3-2.4,5.3-5.3V39.6C765.4,38.9,764.9,38.4,764.3,38.4z M718.5,62
				h-14.9V23.5h14.9V62z M750.5,2.6l5.8,5.8c-1.2,0.7-2.8,0.6-3.9-0.5l-1.5-1.5c-0.6-0.6-1-1.4-0.9-2.3
				C750.1,3.6,750.2,3.1,750.5,2.6z M730.2,2.8l4.3,5.7H726L730.2,2.8z M725.9,53.4v8.5h-5.3V22.4V10.7h19.2v3.2v19.2h2.1V14.9h14.9
				v23.5h-2.1v-1.1c0-1.8-1.4-3.2-3.2-3.2h-6.4c-1.8,0-3.2,1.4-3.2,3.2v1.1h-9.6c-0.6,0-1.1,0.5-1.1,1.1v11.7h-8.5v2.1h3.2
				L725.9,53.4L725.9,53.4z M752.6,37.3v1.1h-8.5v-1.1c0-0.6,0.5-1.1,1.1-1.1h6.4C752.1,36.3,752.6,36.7,752.6,37.3z M728.1,62v-8.5
				h3.2v5.3c0,1.2,0.4,2.3,1.1,3.2H728.1z M763.3,58.8c0,1.8-1.4,3.2-3.2,3.2H743h-6.4c-1.8,0-3.2-1.4-3.2-3.2V48.1
				c0.9,0.7,2,1.1,3.2,1.1h1.1v3.2c0,0.6,0.5,1.1,1.1,1.1h4.3c0.6,0,1.1-0.5,1.1-1.1v-3.2h1.1h6.4h1.1v3.2c0,0.6,0.5,1.1,1.1,1.1
				h4.3c0.6,0,1.1-0.5,1.1-1.1v-3.2h1.1c1.2,0,2.3-0.4,3.2-1.1v10.7H763.3z M739.8,51.3v-2.1h2.1v2.1H739.8z M746.2,47v-2.1h4.3V47
				H746.2z M754.7,51.3v-2.1h2.1v2.1H754.7z M763.3,43.8c0,1.8-1.4,3.2-3.2,3.2H758h-4.3h-1.1v-3.2c0-0.6-0.5-1.1-1.1-1.1h-6.4
				c-0.6,0-1.1,0.5-1.1,1.1V47h-1.1h-4.3h-2.1c-1.8,0-3.2-1.4-3.2-3.2v-3.2h29.9L763.3,43.8L763.3,43.8z"/>
		</g>
	</g>
	<g>
		<g>
			<rect x="759" y="57.7" class="st5" width="2.1" height="2.1"/>
		</g>
	</g>
	<g>
		<g>
			<rect x="754.7" y="57.7" class="st5" width="2.1" height="2.1"/>
		</g>
	</g>
	<g>
		<g>
			<rect x="750.5" y="57.7" class="st5" width="2.1" height="2.1"/>
		</g>
	</g>
</g>
<g>
	<g>
		<path class="st1" d="M219.7,209.9v-1.1c2.2-0.9,3.3-2.5,3.3-4.8v-2.8h-3V200h3v-3.8c0-1.6,0.4-3,1.3-4c0.9-1,2-1.5,3.5-1.5
			c0.8,0,1.6,0.2,2.4,0.5v1.2c-0.8-0.4-1.6-0.6-2.4-0.6c-1.1,0-1.9,0.4-2.6,1.2c-0.6,0.8-0.9,1.9-0.9,3.4v3.6h4v1.2h-4v2.3
			c0,2.6-0.9,4.3-2.8,5.3h9.7v1.1H219.7z"/>
	</g>
</g>
<g>
	<g id="椭圆_7_1_">
		<path class="st1" d="M572.9,196.8c-10.8,0-19.5-8.7-19.5-19.5s8.7-19.5,19.5-19.5s19.5,8.7,19.5,19.5S583.7,196.8,572.9,196.8z
			 M572.9,158.8c-10.2,0-18.5,8.3-18.5,18.5s8.3,18.5,18.5,18.5s18.5-8.3,18.5-18.5S583.1,158.8,572.9,158.8z"/>
	</g>
	<g>
		<g>
			<path class="st1" d="M567.2,186.9v-1.1c2.2-0.9,3.3-2.5,3.3-4.8v-2.8h-3V177h3v-3.8c0-1.6,0.4-3,1.3-4c0.9-1,2-1.5,3.5-1.5
				c0.8,0,1.6,0.2,2.4,0.5v1.2c-0.8-0.4-1.6-0.6-2.4-0.6c-1.1,0-1.9,0.4-2.6,1.2c-0.6,0.8-0.9,1.9-0.9,3.4v3.6h4v1.2h-4v2.3
				c0,2.6-0.9,4.3-2.8,5.3h9.7v1.1H567.2z"/>
		</g>
	</g>
</g>
<g>
	<path class="st5" d="M729.9,249.1v-1.8c1.9-0.6,2.9-1.8,2.9-3.7v-2.2h-2.6v-1.8h2.6v-3c0-1.5,0.4-2.8,1.4-3.7c1-1,2.2-1.5,3.6-1.5
		c1,0,1.9,0.1,2.8,0.6v2.1c-0.8-0.6-1.8-0.7-2.6-0.7c-1.9,0-2.9,1.2-2.9,3.6v2.8h3.9v1.8h-4v1.8c0,1.9-0.8,3.2-2.3,4.1h8.9v1.8
		h-11.7L729.9,249.1L729.9,249.1z"/>
</g>
<g class="st4">
	<path d="M324.2,198.3h-1.8V192c0-0.5-0.1-0.9-0.2-1c-2.1,1.6-3.5,2.9-4.3,4.1c-0.8,1.1-1.2,2.2-1.2,3.2h-1.8v-7.9h-0.1
		c-0.5,0-1-0.2-1.3-0.6c-0.4-0.4-0.6-0.8-0.6-1.3s0.2-1,0.6-1.3c0.4-0.4,0.8-0.6,1.3-0.6s1,0.2,1.3,0.6c0.4,0.4,0.6,0.8,0.6,1.3v6.6
		c0.5-1.2,2.1-2.8,4.8-4.8c-0.8-0.5-1.2-1.1-1.2-1.7c0-0.5,0.2-1,0.6-1.3c0.4-0.4,0.8-0.6,1.3-0.6s1,0.2,1.3,0.6
		c0.4,0.4,0.6,0.8,0.6,1.3c0,0.7-0.3,1.2-0.8,1.7c0.6,0.4,1,1,1,1.8V198.3z M314.7,189.5c0.3,0,0.5-0.1,0.7-0.3s0.3-0.4,0.3-0.7
		c0-0.3-0.1-0.5-0.3-0.7c-0.2-0.2-0.4-0.3-0.7-0.3c-0.3,0-0.5,0.1-0.7,0.3c-0.2,0.2-0.3,0.4-0.3,0.7c0,0.3,0.1,0.5,0.3,0.7
		S314.5,189.5,314.7,189.5z M322.3,189.7c0.5-0.4,0.8-0.8,0.8-1.2c0-0.3-0.1-0.5-0.3-0.7c-0.2-0.2-0.4-0.3-0.7-0.3
		c-0.3,0-0.5,0.1-0.7,0.3c-0.2,0.2-0.3,0.4-0.3,0.7C321.2,189,321.5,189.4,322.3,189.7z"/>
	<path d="M334.8,198.3H333V198c-0.8-1.9-1.5-3.5-2.2-4.6c-0.7-1.2-1.2-1.7-1.5-1.7c-0.3,0-0.4,0.2-0.4,0.7v2.2h0.1
		c0.5,0,1,0.2,1.3,0.6c0.4,0.4,0.6,0.8,0.6,1.3s-0.2,1-0.6,1.3c-0.4,0.4-0.8,0.6-1.3,0.6s-1-0.2-1.3-0.6c-0.4-0.4-0.6-0.8-0.6-1.3
		v-4.1c0-1.4,0.6-2.1,1.7-2.1c1.3,0,2.7,1.7,4.2,5.2v-4.9c0-0.9-0.3-1.5-0.8-2s-1.2-0.7-2.1-0.7c-1.3,0-2.4,0.5-3.1,1.6l-0.9-0.7
		c1.1-1.4,2.4-2.1,4.1-2.1c1.3,0,2.4,0.4,3.2,1.1s1.3,1.7,1.3,2.9V198.3z M329,197.4c0.3,0,0.5-0.1,0.7-0.3c0.2-0.2,0.3-0.4,0.3-0.7
		s-0.1-0.5-0.3-0.7c-0.2-0.2-0.4-0.3-0.7-0.3c-0.3,0-0.5,0.1-0.7,0.3c-0.2,0.2-0.3,0.4-0.3,0.7s0.1,0.5,0.3,0.7
		C328.5,197.3,328.8,197.4,329,197.4z"/>
	<path d="M336,181.2c-0.2,1.3-0.8,2.3-1.8,3c-1,0.7-2.2,1.1-3.6,1.1c-0.9,0-1.6-0.2-2.2-0.6c-0.5-0.4-0.8-0.9-0.8-1.6
		c0-0.5,0.2-1,0.6-1.3c0.4-0.4,0.8-0.6,1.3-0.6s1,0.2,1.3,0.6c0.4,0.4,0.6,0.8,0.6,1.3c0,0.4-0.2,0.8-0.5,1.2c0.9,0,1.7-0.3,2.3-0.8
		c0.6-0.6,1-1.3,1.2-2.2H336z M329.6,184c0.3,0,0.5-0.1,0.7-0.3c0.2-0.2,0.3-0.4,0.3-0.7s-0.1-0.5-0.3-0.7c-0.2-0.2-0.4-0.3-0.7-0.3
		c-0.3,0-0.5,0.1-0.7,0.3c-0.2,0.2-0.3,0.4-0.3,0.7s0.1,0.5,0.3,0.7C329.1,184,329.3,184,329.6,184z"/>
	<path d="M346.8,198.3H345v-7.5c0-0.9-0.3-1.6-0.9-2.2s-1.4-0.8-2.3-0.8c-1.4,0-2.4,0.4-2.9,1.3c0.4,0.7,1.2,1.1,2.4,1.2v0.7
		c-0.5,0-0.8,0.1-1.1,0.4c-0.3,0.3-0.4,0.7-0.4,1.2v5.7H338v-5.6c0-0.8,0.3-1.4,0.9-1.8c-0.9-0.3-1.5-0.8-1.9-1.6
		c0.9-1.8,2.5-2.6,4.8-2.6c1.4,0,2.6,0.4,3.6,1.1c1,0.7,1.4,1.8,1.4,3V198.3z"/>
	<path d="M358.8,198.3H357v-7.5c0-0.9-0.3-1.6-0.9-2.2s-1.4-0.8-2.3-0.8c-1.4,0-2.4,0.4-2.9,1.3c0.4,0.7,1.2,1.1,2.4,1.2v0.7
		c-0.5,0-0.8,0.1-1.1,0.4c-0.3,0.3-0.4,0.7-0.4,1.2v5.7H350v-5.6c0-0.8,0.3-1.4,0.9-1.8c-0.9-0.3-1.5-0.8-1.9-1.6
		c0.9-1.8,2.5-2.6,4.8-2.6c1.4,0,2.6,0.4,3.6,1.1c1,0.7,1.4,1.8,1.4,3V198.3z"/>
	<path d="M368.1,198.3h-1.8v-7.7c0-1.8-0.8-2.7-2.4-2.7c-1,0-1.9,0.5-2.7,1.6l-0.9-0.7c1-1.4,2.2-2.1,3.6-2.1c1.2,0,2.2,0.4,3,1.1
		c0.7,0.7,1.1,1.7,1.1,2.9V198.3z"/>
	<path d="M379.4,187.5c-0.5,0.7-1.1,1-1.9,1c-0.3,0-0.9-0.1-1.6-0.3s-1.2-0.3-1.5-0.3c-0.9,0-1.6,0.4-2.1,1.1
		c0.4-0.1,0.9-0.1,1.5-0.1c1.6,0,2.8,0.3,3.7,0.9c0.8,0.6,1.3,1.5,1.3,2.6v4.1c0,0.5-0.2,1-0.6,1.3s-0.8,0.6-1.3,0.6
		c-0.5,0-1-0.2-1.3-0.6s-0.6-0.8-0.6-1.3s0.2-1,0.6-1.3s0.8-0.6,1.3-0.6h0.1v-1.9c0-1-0.3-1.7-0.9-2.1c-0.6-0.3-1.5-0.5-2.8-0.5
		c-0.9,0-1.7,0.1-2.5,0.3c0.1-1.1,0.4-2,1.1-2.7c0.7-0.7,1.5-1,2.5-1c0.5,0,1.1,0.1,1.8,0.3c0.7,0.2,1.2,0.3,1.3,0.3
		c0.4,0,0.8-0.2,1-0.6L379.4,187.5z M376.8,197.4c0.3,0,0.5-0.1,0.7-0.3c0.2-0.2,0.3-0.4,0.3-0.7s-0.1-0.5-0.3-0.7
		c-0.2-0.2-0.4-0.3-0.7-0.3c-0.3,0-0.5,0.1-0.7,0.3c-0.2,0.2-0.3,0.4-0.3,0.7s0.1,0.5,0.3,0.7C376.3,197.3,376.6,197.4,376.8,197.4z
		"/>
	<path d="M391.4,198.3h-1.8v-9.5c0-0.5-0.1-0.7-0.4-0.7c-0.1,0-0.3,0.1-0.5,0.4c-0.2,0.2-0.5,0.6-0.8,1.1c-0.3,0.5-0.6,1.2-1,2
		c-0.4,0.8-0.9,2-1.4,3.6c-0.6,1.6-0.9,2.5-0.9,2.8v0.3h-1.8v-7.9h-0.1c-0.5,0-1-0.2-1.3-0.6c-0.4-0.4-0.6-0.8-0.6-1.3
		s0.2-1,0.6-1.3c0.4-0.4,0.8-0.6,1.3-0.6s1,0.2,1.3,0.6c0.4,0.4,0.6,0.8,0.6,1.3v5.7c0.8-2.1,1.6-3.9,2.5-5.4
		c0.9-1.5,1.7-2.2,2.6-2.2c1.1,0,1.7,0.7,1.7,2.1V198.3z M382.6,189.5c0.3,0,0.5-0.1,0.7-0.3s0.3-0.4,0.3-0.7c0-0.3-0.1-0.5-0.3-0.7
		c-0.2-0.2-0.4-0.3-0.7-0.3c-0.3,0-0.5,0.1-0.7,0.3c-0.2,0.2-0.3,0.4-0.3,0.7c0,0.3,0.1,0.5,0.3,0.7S382.4,189.5,382.6,189.5z"/>
	<path d="M390,180.2c0.5,0,1,0.2,1.3,0.6c0.4,0.4,0.6,0.8,0.6,1.3c0,0.5-0.2,1-0.6,1.3c-0.4,0.4-0.8,0.6-1.3,0.6
		c-0.5,0-1-0.2-1.3-0.6c-0.4-0.4-0.6-0.8-0.6-1.3c0-0.5,0.2-1,0.6-1.3C389,180.4,389.5,180.2,390,180.2z M390,183
		c0.3,0,0.5-0.1,0.7-0.3s0.3-0.4,0.3-0.7c0-0.3-0.1-0.5-0.3-0.7c-0.2-0.2-0.4-0.3-0.7-0.3c-0.3,0-0.5,0.1-0.7,0.3
		c-0.2,0.2-0.3,0.4-0.3,0.7c0,0.3,0.1,0.5,0.3,0.7C389.5,182.9,389.7,183,390,183z M400.6,198.3h-1.8v-7.7c0-1.8-0.8-2.7-2.4-2.7
		c-1,0-1.9,0.5-2.7,1.6l-0.9-0.7c1-1.4,2.2-2.1,3.6-2.1c1.2,0,2.2,0.4,3,1.1c0.7,0.7,1.1,1.7,1.1,2.9V198.3z"/>
	<path d="M409.9,198.3h-1.8c-1.2-1.8-2.2-3-3.2-3.8c-0.9-0.8-2-1.2-3.1-1.2v-0.9c1.2,0,2.2,0.3,3.2,0.9c0.9,0.6,2,1.7,3.1,3.3v-6.1
		H408c-0.5,0-1-0.2-1.3-0.6c-0.4-0.4-0.6-0.8-0.6-1.3s0.2-1,0.6-1.3c0.4-0.4,0.8-0.6,1.3-0.6c0.5,0,1,0.2,1.3,0.6s0.6,0.8,0.6,1.3
		V198.3z M408,189.5c0.3,0,0.5-0.1,0.7-0.3c0.2-0.2,0.3-0.4,0.3-0.7c0-0.3-0.1-0.5-0.3-0.7c-0.2-0.2-0.4-0.3-0.7-0.3
		c-0.3,0-0.5,0.1-0.7,0.3c-0.2,0.2-0.3,0.4-0.3,0.7c0,0.3,0.1,0.5,0.3,0.7S407.8,189.5,408,189.5z"/>
	<path d="M419.2,198.3h-1.8v-7.7c0-1.8-0.8-2.7-2.4-2.7c-1,0-1.9,0.5-2.7,1.6l-0.9-0.7c1-1.4,2.2-2.1,3.6-2.1c1.2,0,2.2,0.4,3,1.1
		s1.1,1.7,1.1,2.9V198.3z"/>
	<path d="M431.5,193.8c1.3,0.4,1.9,1.3,1.9,2.4c0,0.6-0.2,1.1-0.5,1.5c-0.4,0.4-0.8,0.6-1.3,0.6c-0.6,0-1.1-0.2-1.4-0.5
		s-0.5-0.9-0.5-1.7v-1.4c-1.8,0.4-3.4,1.5-4.7,3.5h-1.8v-7.9h-0.1c-0.5,0-1-0.2-1.3-0.6c-0.4-0.4-0.6-0.8-0.6-1.3s0.2-1,0.6-1.3
		c0.4-0.4,0.8-0.6,1.3-0.6s1,0.2,1.3,0.6c0.4,0.4,0.6,0.8,0.6,1.3v8.2c1.2-1.5,2.8-2.5,4.7-3v-6.9h1.8V193.8z M423.1,189.5
		c0.3,0,0.5-0.1,0.7-0.3s0.3-0.4,0.3-0.7c0-0.3-0.1-0.5-0.3-0.7c-0.2-0.2-0.4-0.3-0.7-0.3c-0.3,0-0.5,0.1-0.7,0.3
		c-0.2,0.2-0.3,0.4-0.3,0.7c0,0.3,0.1,0.5,0.3,0.7S422.8,189.5,423.1,189.5z M432.5,196.2c0-0.3-0.1-0.6-0.3-0.9
		c-0.2-0.3-0.4-0.5-0.7-0.6v1.9c0,0.3,0,0.5,0.1,0.6c0,0.1,0.1,0.1,0.3,0.1C432.3,197.4,432.5,197,432.5,196.2z"/>
	<path d="M445.2,195.9c0,0.7-0.2,1.3-0.7,1.7c-0.5,0.4-1.1,0.7-1.8,0.7h-5v-1.2h1v-4.9c0-0.4,0.2-0.9,0.6-1.3
		c0.4-0.5,0.6-0.9,0.6-1.3c0-0.5-0.2-1-0.6-1.4s-0.9-0.5-1.4-0.5c-0.3,0-0.6,0.1-0.9,0.2c0.9,0.3,1.4,0.9,1.4,1.8
		c0,0.5-0.2,1-0.6,1.3c-0.4,0.4-0.8,0.6-1.3,0.6s-1-0.2-1.3-0.6c-0.4-0.4-0.6-0.8-0.6-1.3c0-0.8,0.3-1.5,1-2.1s1.4-0.9,2.3-0.9
		c1.1,0,2,0.3,2.7,0.8c0.7,0.5,1,1.2,1,2.1c0,0.5-0.2,1-0.5,1.5c-0.3,0.5-0.5,0.9-0.5,1.1v4.9h1.8c0.8,0,1.1-0.3,1.1-1v-9.2h1.8
		V195.9z M436.4,190.5c0.3,0,0.5-0.1,0.7-0.3c0.2-0.2,0.3-0.4,0.3-0.7s-0.1-0.5-0.3-0.7c-0.2-0.2-0.4-0.3-0.7-0.3
		c-0.3,0-0.5,0.1-0.7,0.3c-0.2,0.2-0.3,0.4-0.3,0.7s0.1,0.5,0.3,0.7C435.9,190.4,436.1,190.5,436.4,190.5z"/>
	<path d="M456.7,195.9c0,0.7-0.2,1.3-0.7,1.7c-0.5,0.4-1.1,0.7-1.8,0.7h-2.8c-0.7,0-1.3-0.2-1.8-0.7c-0.5-0.4-0.7-1-0.7-1.7v-4
		c0-0.5,0.2-1,0.6-1.3c0.4-0.4,0.8-0.6,1.3-0.6c0.5,0,1,0.2,1.3,0.6s0.6,0.8,0.6,1.3s-0.2,1-0.6,1.3s-0.8,0.6-1.3,0.6h-0.1v2.3
		c0,0.7,0.4,1,1.1,1h1.9c0.8,0,1.1-0.3,1.1-1v-5.5c0-0.8-0.3-1.5-0.9-2s-1.4-0.7-2.3-0.7c-0.7,0-1.3,0.1-2,0.4
		c-0.7,0.3-1.2,0.7-1.5,1.2l-0.9-0.7c0.5-0.6,1.1-1.2,2-1.5s1.7-0.6,2.5-0.6c1.3,0,2.5,0.4,3.5,1.1c1,0.7,1.5,1.7,1.5,2.8V195.9z
		 M450.8,192.8c0.3,0,0.5-0.1,0.7-0.3c0.2-0.2,0.3-0.4,0.3-0.7s-0.1-0.5-0.3-0.7c-0.2-0.2-0.4-0.3-0.7-0.3c-0.3,0-0.5,0.1-0.7,0.3
		c-0.2,0.2-0.3,0.4-0.3,0.7s0.1,0.5,0.3,0.7C450.3,192.8,450.5,192.8,450.8,192.8z"/>
	<path d="M466,198.3h-1.8c-1.2-1.8-2.2-3-3.2-3.8s-2-1.2-3.1-1.2v-0.9c1.2,0,2.2,0.3,3.2,0.9c0.9,0.6,2,1.7,3.1,3.3v-6.1h-0.1
		c-0.5,0-1-0.2-1.3-0.6c-0.4-0.4-0.6-0.8-0.6-1.3s0.2-1,0.6-1.3c0.4-0.4,0.8-0.6,1.3-0.6c0.5,0,1,0.2,1.3,0.6s0.6,0.8,0.6,1.3V198.3
		z M464.1,189.5c0.3,0,0.5-0.1,0.7-0.3c0.2-0.2,0.3-0.4,0.3-0.7c0-0.3-0.1-0.5-0.3-0.7c-0.2-0.2-0.4-0.3-0.7-0.3
		c-0.3,0-0.5,0.1-0.7,0.3c-0.2,0.2-0.3,0.4-0.3,0.7c0,0.3,0.1,0.5,0.3,0.7S463.9,189.5,464.1,189.5z"/>
	<path d="M376.7,213.9c-0.5,0.7-1.1,1-1.9,1c-0.3,0-0.9-0.1-1.6-0.3s-1.2-0.3-1.5-0.3c-0.9,0-1.6,0.4-2.1,1.1
		c0.4-0.1,0.9-0.1,1.5-0.1c1.6,0,2.8,0.3,3.7,0.9c0.8,0.6,1.3,1.5,1.3,2.6v4.1c0,0.5-0.2,1-0.6,1.3s-0.8,0.6-1.3,0.6
		c-0.5,0-1-0.2-1.3-0.6s-0.6-0.8-0.6-1.3s0.2-1,0.6-1.3s0.8-0.6,1.3-0.6h0.1V219c0-1-0.3-1.7-0.9-2.1c-0.6-0.3-1.5-0.5-2.8-0.5
		c-0.9,0-1.7,0.1-2.5,0.3c0.1-1.1,0.4-2,1.1-2.7c0.7-0.7,1.5-1,2.5-1c0.5,0,1.1,0.1,1.8,0.3c0.7,0.2,1.2,0.3,1.3,0.3
		c0.4,0,0.8-0.2,1-0.6L376.7,213.9z M374.1,223.8c0.3,0,0.5-0.1,0.7-0.3c0.2-0.2,0.3-0.4,0.3-0.7s-0.1-0.5-0.3-0.7
		c-0.2-0.2-0.4-0.3-0.7-0.3c-0.3,0-0.5,0.1-0.7,0.3c-0.2,0.2-0.3,0.4-0.3,0.7s0.1,0.5,0.3,0.7C373.6,223.7,373.8,223.8,374.1,223.8z
		"/>
	<path d="M386.2,213.4c-0.2,1.3-0.8,2.4-1.8,3.1c-1,0.7-2.2,1.1-3.6,1.1c-0.9,0-1.6-0.2-2.2-0.7c-0.5-0.4-0.8-1-0.8-1.6
		c0-0.5,0.2-1,0.6-1.3c0.4-0.4,0.8-0.6,1.3-0.6s1,0.2,1.3,0.6c0.4,0.4,0.6,0.8,0.6,1.3c0,0.5-0.2,0.9-0.5,1.2c0.9,0,1.7-0.3,2.3-0.8
		c0.6-0.6,1-1.3,1.2-2.3H386.2z M386.2,220.5c-0.2,1.3-0.8,2.3-1.8,3.1c-1,0.7-2.2,1.1-3.6,1.1c-0.9,0-1.6-0.2-2.2-0.7
		c-0.5-0.4-0.8-1-0.8-1.6c0-0.5,0.2-1,0.6-1.3c0.4-0.4,0.8-0.6,1.3-0.6s1,0.2,1.3,0.6c0.4,0.4,0.6,0.8,0.6,1.3
		c0,0.5-0.2,0.9-0.5,1.2c0.9,0,1.7-0.3,2.3-0.8c0.6-0.6,1-1.3,1.2-2.3H386.2z M379.8,216.2c0.3,0,0.5-0.1,0.7-0.3s0.3-0.4,0.3-0.7
		c0-0.3-0.1-0.5-0.3-0.7s-0.4-0.3-0.7-0.3c-0.3,0-0.5,0.1-0.7,0.3s-0.3,0.4-0.3,0.7c0,0.3,0.1,0.5,0.3,0.7S379.5,216.2,379.8,216.2z
		 M379.8,223.4c0.3,0,0.5-0.1,0.7-0.3c0.2-0.2,0.3-0.4,0.3-0.7s-0.1-0.5-0.3-0.7c-0.2-0.2-0.4-0.3-0.7-0.3c-0.3,0-0.5,0.1-0.7,0.3
		c-0.2,0.2-0.3,0.4-0.3,0.7s0.1,0.5,0.3,0.7C379.3,223.3,379.5,223.4,379.8,223.4z"/>
	<path d="M398.7,222.3c0,0.7-0.2,1.3-0.7,1.7c-0.5,0.4-1.1,0.7-1.8,0.7h-7.3v-1.2h1v-6.6h-0.1c-0.5,0-1-0.2-1.3-0.6
		c-0.4-0.4-0.6-0.8-0.6-1.3s0.2-1,0.6-1.3c0.4-0.4,0.8-0.6,1.3-0.6s1,0.2,1.3,0.6c0.4,0.4,0.6,0.8,0.6,1.3v8.5h4.1
		c0.8,0,1.1-0.3,1.1-1v-9.2h1.8V222.3z M389.8,215.9c0.3,0,0.5-0.1,0.7-0.3s0.3-0.4,0.3-0.7c0-0.3-0.1-0.5-0.3-0.7
		c-0.2-0.2-0.4-0.3-0.7-0.3c-0.3,0-0.5,0.1-0.7,0.3c-0.2,0.2-0.3,0.4-0.3,0.7c0,0.3,0.1,0.5,0.3,0.7S389.5,215.9,389.8,215.9z"/>
	<path d="M411.5,222.3c0,0.7-0.2,1.3-0.7,1.7c-0.5,0.4-1.1,0.7-1.8,0.7h-7.3v-1.2h1v-6.6h-0.1c-0.5,0-1-0.2-1.3-0.6
		c-0.4-0.4-0.6-0.8-0.6-1.3s0.2-1,0.6-1.3c0.4-0.4,0.8-0.6,1.3-0.6s1,0.2,1.3,0.6c0.4,0.4,0.6,0.8,0.6,1.3v8.5h4.1
		c0.8,0,1.1-0.3,1.1-1v-9.2h1.8V222.3z M402.6,215.9c0.3,0,0.5-0.1,0.7-0.3s0.3-0.4,0.3-0.7c0-0.3-0.1-0.5-0.3-0.7
		c-0.2-0.2-0.4-0.3-0.7-0.3c-0.3,0-0.5,0.1-0.7,0.3c-0.2,0.2-0.3,0.4-0.3,0.7c0,0.3,0.1,0.5,0.3,0.7S402.4,215.9,402.6,215.9z"/>
</g>
<g class="st4">
	<path class="st5" d="M6,394.6L6,394.6c0.4,0,0.8,0.1,1,0.4s0.4,0.6,0.4,1s-0.1,0.7-0.4,1s-0.6,0.4-1,0.4c-0.4,0-0.7-0.1-1-0.4
		s-0.4-0.6-0.4-1V389H6V394.6z M6.1,396.7c0.2,0,0.4-0.1,0.5-0.2s0.2-0.3,0.2-0.5s-0.1-0.4-0.2-0.5s-0.3-0.2-0.5-0.2
		c-0.2,0-0.3,0.1-0.5,0.2c-0.1,0.1-0.2,0.3-0.2,0.5s0.1,0.4,0.2,0.5C5.7,396.6,5.9,396.7,6.1,396.7z M10.6,394.6L10.6,394.6
		c0.4,0,0.8,0.1,1,0.4c0.3,0.3,0.4,0.6,0.4,1s-0.1,0.7-0.4,1c-0.3,0.3-0.6,0.4-1,0.4s-0.7-0.1-1-0.4c-0.3-0.3-0.4-0.6-0.4-1V389h1.3
		V394.6z M10.7,396.7c0.2,0,0.4-0.1,0.5-0.2s0.2-0.3,0.2-0.5s-0.1-0.4-0.2-0.5s-0.3-0.2-0.5-0.2c-0.2,0-0.4,0.1-0.5,0.2
		S10,395.8,10,396s0.1,0.4,0.2,0.5S10.5,396.7,10.7,396.7z"/>
	<path class="st5" d="M22.3,397.3H21c0-0.6-0.4-1.5-1.1-2.8s-1.2-2.4-1.3-3.2c-0.1,0.8-0.6,1.9-1.3,3.2s-1.1,2.2-1.1,2.8h-1.3v-5.7
		h-0.1c-0.4,0-0.7-0.1-1-0.4c-0.3-0.3-0.4-0.6-0.4-1s0.1-0.7,0.4-1c0.3-0.3,0.6-0.4,1-0.4s0.7,0.1,1,0.4c0.3,0.3,0.4,0.6,0.4,1v4.6
		c0.1-0.3,0.4-0.8,0.8-1.5c0.8-1.3,1.2-2.8,1.2-4.3H19c0,1.5,0.4,2.9,1.2,4.3c0.4,0.7,0.7,1.2,0.8,1.5V389h1.3V397.3z M14.7,390.9
		c0.2,0,0.4-0.1,0.5-0.2s0.2-0.3,0.2-0.5c0-0.2-0.1-0.4-0.2-0.5s-0.3-0.2-0.5-0.2c-0.2,0-0.4,0.1-0.5,0.2s-0.2,0.3-0.2,0.5
		c0,0.2,0.1,0.3,0.2,0.5S14.6,390.9,14.7,390.9z"/>
	<path class="st5" d="M30.1,397.3h-1.3v-0.2c-0.6-1.4-1.1-2.5-1.6-3.4c-0.5-0.8-0.9-1.3-1.1-1.3c-0.2,0-0.3,0.2-0.3,0.5v1.6h0.1
		c0.4,0,0.7,0.1,1,0.4c0.3,0.3,0.4,0.6,0.4,1s-0.1,0.7-0.4,1c-0.3,0.3-0.6,0.4-1,0.4s-0.7-0.1-1-0.4c-0.3-0.3-0.4-0.6-0.4-1v-3
		c0-1,0.4-1.6,1.3-1.6c0.9,0,1.9,1.3,3,3.8v-3.6c0-0.6-0.2-1.1-0.6-1.4s-0.9-0.5-1.5-0.5c-1,0-1.7,0.4-2.3,1.2l-0.6-0.5
		c0.8-1,1.8-1.5,3-1.5c0.9,0,1.7,0.3,2.4,0.8s0.9,1.2,0.9,2.1V397.3z M25.8,396.7c0.2,0,0.4-0.1,0.5-0.2s0.2-0.3,0.2-0.5
		s-0.1-0.4-0.2-0.5s-0.3-0.2-0.5-0.2c-0.2,0-0.4,0.1-0.5,0.2s-0.2,0.3-0.2,0.5s0.1,0.4,0.2,0.5S25.7,396.7,25.8,396.7z"/>
	<path class="st5" d="M39,397.3h-1.3v-5.1c0-1.2-0.3-2-0.8-2.3l-1.7,0.9l-1.7-0.9c-0.7,0.5-1,1.2-1,2.2c0,0.6,0.2,1.2,0.6,1.9
		c0.5,0.8,0.8,1.3,0.9,1.7c0.1-0.2,0.3-0.5,0.6-0.8s0.5-0.5,0.5-0.7h0c-0.4,0-0.7-0.1-1-0.4s-0.4-0.6-0.4-1s0.1-0.7,0.4-1
		s0.6-0.4,1-0.4c0.4,0,0.7,0.1,1,0.4s0.4,0.6,0.4,1c0,0.3-0.1,0.7-0.2,1.1c-0.2,0.4-0.5,0.8-1.1,1.4c-0.5,0.6-0.8,1-0.8,1.4v0.7
		h-1.3v-0.7c0-0.5-0.2-1.2-0.7-2.2c-0.5-0.9-0.7-1.7-0.7-2.4c0-1.3,0.6-2.4,1.9-3.2l1.7,0.9l1.7-0.9c1.4,0.5,2.2,1.6,2.2,3.4V397.3z
		 M35.1,393.4c0.2,0,0.3-0.1,0.5-0.2c0.1-0.1,0.2-0.3,0.2-0.5c0-0.2-0.1-0.3-0.2-0.5c-0.1-0.1-0.3-0.2-0.5-0.2
		c-0.2,0-0.4,0.1-0.5,0.2s-0.2,0.3-0.2,0.5c0,0.2,0.1,0.4,0.2,0.5S34.9,393.4,35.1,393.4z"/>
	<path class="st5" d="M49.5,397.3h-1.3c0-0.6-0.4-1.5-1.1-2.8s-1.2-2.4-1.3-3.2c-0.1,0.8-0.6,1.9-1.3,3.2s-1.1,2.2-1.1,2.8H42v-5.7
		h-0.1c-0.4,0-0.7-0.1-1-0.4c-0.3-0.3-0.4-0.6-0.4-1s0.1-0.7,0.4-1c0.3-0.3,0.6-0.4,1-0.4s0.7,0.1,1,0.4c0.3,0.3,0.4,0.6,0.4,1v4.6
		c0.1-0.3,0.4-0.8,0.8-1.5c0.8-1.3,1.2-2.8,1.2-4.3h0.9c0,1.5,0.4,2.9,1.2,4.3c0.4,0.7,0.7,1.2,0.8,1.5v-10.1h1.3V397.3z
		 M41.9,390.9c0.2,0,0.4-0.1,0.5-0.2s0.2-0.3,0.2-0.5c0-0.2-0.1-0.4-0.2-0.5s-0.3-0.2-0.5-0.2c-0.2,0-0.4,0.1-0.5,0.2
		s-0.2,0.3-0.2,0.5c0,0.2,0.1,0.3,0.2,0.5S41.7,390.9,41.9,390.9z"/>
	<path class="st5" d="M57.9,395.6c0,0.5-0.2,0.9-0.5,1.2c-0.4,0.3-0.8,0.5-1.3,0.5h-2c-0.5,0-0.9-0.2-1.3-0.5
		c-0.4-0.3-0.5-0.7-0.5-1.2v-2.9c0-0.4,0.1-0.7,0.4-1c0.3-0.3,0.6-0.4,1-0.4c0.4,0,0.7,0.1,1,0.4s0.4,0.6,0.4,1s-0.1,0.7-0.4,1
		s-0.6,0.4-1,0.4h-0.1v1.7c0,0.5,0.3,0.7,0.8,0.7h1.4c0.6,0,0.8-0.2,0.8-0.7v-4c0-0.6-0.2-1.1-0.7-1.4c-0.5-0.3-1-0.5-1.7-0.5
		c-0.5,0-1,0.1-1.5,0.3c-0.5,0.2-0.9,0.5-1.1,0.9l-0.6-0.5c0.4-0.5,0.8-0.8,1.4-1.1c0.6-0.3,1.2-0.4,1.8-0.4c1,0,1.8,0.3,2.5,0.8
		c0.7,0.5,1.1,1.2,1.1,2.1V395.6z M53.6,393.4c0.2,0,0.3-0.1,0.5-0.2c0.1-0.1,0.2-0.3,0.2-0.5s-0.1-0.4-0.2-0.5
		c-0.1-0.1-0.3-0.2-0.5-0.2c-0.2,0-0.4,0.1-0.5,0.2s-0.2,0.3-0.2,0.5s0.1,0.4,0.2,0.5S53.4,393.4,53.6,393.4z"/>
	<path class="st5" d="M66.1,389.5c-0.4,0.5-0.8,0.7-1.4,0.7c-0.2,0-0.6-0.1-1.2-0.2s-0.9-0.2-1.1-0.2c-0.7,0-1.2,0.3-1.5,0.8
		c0.3-0.1,0.7-0.1,1.1-0.1c1.2,0,2.1,0.2,2.7,0.7c0.6,0.5,0.9,1.1,0.9,1.9v3c0,0.4-0.1,0.7-0.4,1s-0.6,0.4-1,0.4
		c-0.4,0-0.7-0.1-1-0.4s-0.4-0.6-0.4-1s0.1-0.7,0.4-1s0.6-0.4,1-0.4h0.1v-1.4c0-0.8-0.2-1.3-0.6-1.5c-0.4-0.3-1.1-0.4-2-0.4
		c-0.7,0-1.3,0.1-1.8,0.2c0-0.8,0.3-1.5,0.8-2c0.5-0.5,1.1-0.7,1.8-0.7c0.4,0,0.8,0.1,1.3,0.2c0.5,0.2,0.8,0.2,0.9,0.2
		c0.3,0,0.6-0.2,0.8-0.5L66.1,389.5z M64.2,396.7c0.2,0,0.3-0.1,0.5-0.2c0.1-0.1,0.2-0.3,0.2-0.5s-0.1-0.4-0.2-0.5
		c-0.1-0.1-0.3-0.2-0.5-0.2c-0.2,0-0.4,0.1-0.5,0.2c-0.1,0.1-0.2,0.3-0.2,0.5s0.1,0.4,0.2,0.5C63.9,396.6,64,396.7,64.2,396.7z"/>
	<path class="st5" d="M66.9,384.4c0,0.2-0.1,0.5-0.3,0.6s-0.5,0.3-1,0.5c-0.5,0.2-0.8,0.3-1,0.4c0.3,0,0.5,0.1,0.7,0.3
		s0.3,0.4,0.3,0.7c0,0.3-0.1,0.5-0.3,0.7s-0.4,0.3-0.7,0.3c-0.3,0-0.5-0.1-0.7-0.3c-0.2-0.2-0.3-0.5-0.3-0.8c0-0.8,0.5-1.3,1.4-1.6
		c0.5-0.2,0.8-0.3,1-0.4s0.2-0.2,0.2-0.4H66.9z M64.6,387.4c0.1,0,0.2,0,0.3-0.1c0.1-0.1,0.1-0.2,0.1-0.3s0-0.3-0.1-0.3
		c-0.1-0.1-0.2-0.1-0.3-0.1c-0.1,0-0.3,0-0.3,0.1s-0.1,0.2-0.1,0.3s0,0.2,0.1,0.3S64.5,387.4,64.6,387.4z"/>
	<path class="st5" d="M74.9,397.3h-1.3c-0.9-1.8-2.2-2.7-3.8-2.9v1.4c0,1.1-0.5,1.6-1.6,1.6c-0.4,0-0.8-0.1-1-0.4
		c-0.3-0.3-0.4-0.7-0.4-1.1c0-0.5,0.1-0.9,0.4-1.3c0.3-0.4,0.7-0.6,1.2-0.8v-2.1h-0.1c-0.4,0-0.7-0.1-1-0.4c-0.3-0.3-0.4-0.6-0.4-1
		s0.1-0.7,0.4-1c0.3-0.3,0.6-0.4,1-0.4s0.7,0.1,1,0.4c0.3,0.3,0.4,0.6,0.4,1v3.5c1.4,0.2,2.7,0.9,3.8,2.2V389h1.3V397.3z
		 M68.5,395.9v-1.5c-0.3,0.1-0.5,0.3-0.7,0.5c-0.2,0.3-0.3,0.6-0.3,0.9c0,0.3,0.1,0.5,0.2,0.6c0.1,0.2,0.2,0.2,0.4,0.2
		C68.4,396.7,68.5,396.4,68.5,395.9z M68.5,390.9c0.2,0,0.4-0.1,0.5-0.2s0.2-0.3,0.2-0.5c0-0.2-0.1-0.4-0.2-0.5s-0.3-0.2-0.5-0.2
		c-0.2,0-0.4,0.1-0.5,0.2s-0.2,0.3-0.2,0.5c0,0.2,0.1,0.3,0.2,0.5S68.3,390.9,68.5,390.9z"/>
	<path class="st5" d="M83.7,397.3h-1.3v-5.4c0-0.7-0.2-1.2-0.7-1.6s-1-0.6-1.7-0.6c-1.1,0-1.8,0.3-2.1,1c0.3,0.5,0.9,0.8,1.8,0.9
		v0.5c-0.3,0-0.6,0.1-0.8,0.3c-0.2,0.2-0.3,0.5-0.3,0.8v4.1h-1.3v-4.1c0-0.6,0.2-1,0.7-1.3c-0.7-0.2-1.1-0.6-1.4-1.2
		c0.7-1.3,1.8-1.9,3.5-1.9c1,0,1.9,0.3,2.6,0.8c0.7,0.5,1,1.3,1,2.2V397.3z"/>
	<path class="st5" d="M90.4,397.3h-1.3v-5.6c0-1.3-0.6-2-1.7-2c-0.8,0-1.4,0.4-1.9,1.2l-0.6-0.5c0.7-1,1.6-1.5,2.6-1.5
		c0.9,0,1.6,0.3,2.2,0.8c0.5,0.5,0.8,1.2,0.8,2.1V397.3z"/>
	<path class="st5" d="M98.7,389.5c-0.4,0.5-0.8,0.7-1.4,0.7c-0.2,0-0.6-0.1-1.2-0.2s-0.9-0.2-1.1-0.2c-0.7,0-1.2,0.3-1.5,0.8
		c0.3-0.1,0.7-0.1,1.1-0.1c1.2,0,2.1,0.2,2.7,0.7c0.6,0.5,0.9,1.1,0.9,1.9v3c0,0.4-0.1,0.7-0.4,1s-0.6,0.4-1,0.4
		c-0.4,0-0.7-0.1-1-0.4s-0.4-0.6-0.4-1s0.1-0.7,0.4-1s0.6-0.4,1-0.4h0.1v-1.4c0-0.8-0.2-1.3-0.6-1.5c-0.4-0.3-1.1-0.4-2-0.4
		c-0.7,0-1.3,0.1-1.8,0.2c0-0.8,0.3-1.5,0.8-2c0.5-0.5,1.1-0.7,1.8-0.7c0.4,0,0.8,0.1,1.3,0.2c0.5,0.2,0.8,0.2,0.9,0.2
		c0.3,0,0.6-0.2,0.8-0.5L98.7,389.5z M96.8,396.7c0.2,0,0.3-0.1,0.5-0.2c0.1-0.1,0.2-0.3,0.2-0.5s-0.1-0.4-0.2-0.5
		c-0.1-0.1-0.3-0.2-0.5-0.2c-0.2,0-0.4,0.1-0.5,0.2c-0.1,0.1-0.2,0.3-0.2,0.5s0.1,0.4,0.2,0.5C96.4,396.6,96.6,396.7,96.8,396.7z"/>
	<path class="st5" d="M107.5,395.6c0,0.5-0.2,0.9-0.5,1.2c-0.4,0.3-0.8,0.5-1.3,0.5H102v-0.9h0.8v-3.6c0-0.3,0.1-0.6,0.4-1
		c0.3-0.3,0.4-0.7,0.4-1c0-0.5-0.2-0.9-0.6-1.1l-1,0.6l-1-0.6c-0.3,0.2-0.6,0.5-0.7,0.9c0.2-0.1,0.3-0.1,0.5-0.1
		c0.4,0,0.7,0.1,1,0.4c0.3,0.3,0.4,0.6,0.4,1s-0.1,0.7-0.4,1c-0.3,0.3-0.6,0.4-1,0.4c-0.4,0-0.7-0.2-1-0.5s-0.4-0.7-0.4-1.2
		c0-1.1,0.6-2.1,1.7-2.8l1,0.6l1-0.6c1.2,0.3,1.7,1,1.7,2.1c0,0.4-0.1,0.8-0.3,1.1c-0.2,0.4-0.3,0.6-0.3,0.8v3.6h1.3
		c0.6,0,0.8-0.2,0.8-0.7v-4.3c0-0.7-0.3-1-1-1.1v-0.5c0.9-0.2,1.4-0.8,1.5-1.8h1.4c-0.1,0.9-0.6,1.5-1.3,1.8
		c0.5,0.2,0.8,0.7,0.8,1.3V395.6z M100.8,392.6c0.2,0,0.4-0.1,0.5-0.2s0.2-0.3,0.2-0.5s-0.1-0.4-0.2-0.5s-0.3-0.2-0.5-0.2
		c-0.2,0-0.3,0.1-0.5,0.2c-0.1,0.1-0.2,0.3-0.2,0.5s0.1,0.4,0.2,0.5C100.4,392.6,100.6,392.6,100.8,392.6z"/>
	<path class="st5" d="M107.5,387.9h-6.2c0.5-1.7,1.5-2.5,3.1-2.5c0.3,0,0.5,0,0.7,0.1v-0.6h0.6v0.7c0.4,0.2,0.8,0.5,1.1,0.9v-1.6
		h0.6V387.9z M106.4,387.2c-0.4-0.8-1.1-1.2-2.1-1.2c-1,0-1.7,0.4-2.1,1.2H106.4z"/>
	<path class="st5" d="M108.3,384.9c-0.1,0.9-0.4,1.6-1,2.2s-1.5,0.8-2.6,0.8c-0.4,0-0.7,0-1-0.1v-0.5c0.5,0,0.9-0.1,1.1-0.4
		c-0.3,0-0.5-0.1-0.7-0.3s-0.3-0.4-0.3-0.7s0.1-0.5,0.3-0.7s0.4-0.3,0.7-0.3c0.3,0,0.5,0.1,0.7,0.3s0.3,0.4,0.3,0.7
		c0,0.5-0.3,1-0.8,1.4c0.7,0,1.4-0.3,1.9-0.7c0.5-0.5,0.8-1,0.8-1.7H108.3z M104.8,386.4c0.1,0,0.3,0,0.4-0.1
		c0.1-0.1,0.1-0.2,0.1-0.4c0-0.1,0-0.3-0.1-0.4c-0.1-0.1-0.2-0.1-0.4-0.1c-0.1,0-0.3,0-0.4,0.1c-0.1,0.1-0.1,0.2-0.1,0.4
		c0,0.1,0,0.3,0.1,0.4C104.5,386.4,104.7,386.4,104.8,386.4z"/>
	<path class="st5" d="M115.9,395.6c0,0.5-0.2,0.9-0.5,1.2c-0.4,0.3-0.8,0.5-1.3,0.5h-2c-0.5,0-0.9-0.2-1.3-0.5
		c-0.4-0.3-0.5-0.7-0.5-1.2v-2.9c0-0.4,0.1-0.7,0.4-1c0.3-0.3,0.6-0.4,1-0.4c0.4,0,0.7,0.1,1,0.4s0.4,0.6,0.4,1s-0.1,0.7-0.4,1
		s-0.6,0.4-1,0.4h-0.1v1.7c0,0.5,0.3,0.7,0.8,0.7h1.4c0.6,0,0.8-0.2,0.8-0.7v-4c0-0.6-0.2-1.1-0.7-1.4c-0.5-0.3-1-0.5-1.7-0.5
		c-0.5,0-1,0.1-1.5,0.3c-0.5,0.2-0.9,0.5-1.1,0.9l-0.6-0.5c0.4-0.5,0.8-0.8,1.4-1.1c0.6-0.3,1.2-0.4,1.8-0.4c1,0,1.8,0.3,2.5,0.8
		c0.7,0.5,1.1,1.2,1.1,2.1V395.6z M111.6,393.4c0.2,0,0.3-0.1,0.5-0.2c0.1-0.1,0.2-0.3,0.2-0.5s-0.1-0.4-0.2-0.5
		c-0.1-0.1-0.3-0.2-0.5-0.2c-0.2,0-0.4,0.1-0.5,0.2s-0.2,0.3-0.2,0.5s0.1,0.4,0.2,0.5S111.4,393.4,111.6,393.4z"/>
	<path class="st5" d="M124.9,395.6c0,0.5-0.2,0.9-0.5,1.2c-0.4,0.3-0.8,0.5-1.3,0.5h-3.7v-0.9h0.8v-3.6c0-0.3,0.1-0.6,0.4-1
		c0.3-0.3,0.4-0.7,0.4-1c0-0.4-0.1-0.7-0.4-1c-0.3-0.3-0.6-0.4-1-0.4c-0.2,0-0.4,0-0.7,0.1c0.7,0.2,1,0.7,1,1.3c0,0.4-0.1,0.7-0.4,1
		c-0.3,0.3-0.6,0.4-1,0.4s-0.7-0.1-1-0.4c-0.3-0.3-0.4-0.6-0.4-1c0-0.6,0.2-1.1,0.7-1.5c0.5-0.4,1-0.6,1.7-0.6
		c0.8,0,1.5,0.2,1.9,0.6c0.5,0.4,0.7,0.9,0.7,1.5c0,0.4-0.1,0.8-0.3,1.1c-0.2,0.4-0.3,0.6-0.3,0.8v3.6h1.3c0.6,0,0.8-0.2,0.8-0.7
		V389h1.3V395.6z M118.5,391.7c0.2,0,0.4-0.1,0.5-0.2s0.2-0.3,0.2-0.5s-0.1-0.4-0.2-0.5s-0.3-0.2-0.5-0.2c-0.2,0-0.4,0.1-0.5,0.2
		s-0.2,0.3-0.2,0.5s0.1,0.4,0.2,0.5S118.3,391.7,118.5,391.7z"/>
	<path class="st5" d="M131.6,397.3h-1.3v-5.6c0-1.3-0.6-2-1.7-2c-0.8,0-1.4,0.4-1.9,1.2l-0.6-0.5c0.7-1,1.6-1.5,2.6-1.5
		c0.9,0,1.6,0.3,2.2,0.8c0.5,0.5,0.8,1.2,0.8,2.1V397.3z"/>
	<path class="st5" d="M139.6,395.6c0,0.5-0.2,0.9-0.5,1.2c-0.4,0.3-0.8,0.5-1.3,0.5h-4.3v-2.6c0-0.7,0.2-1.1,0.7-1.4
		c-0.5-0.3-0.7-0.7-0.7-1.4v-1.7c0-0.4,0.1-0.7,0.4-1c0.3-0.3,0.6-0.4,1-0.4s0.7,0.1,1,0.4c0.3,0.3,0.4,0.6,0.4,1s-0.1,0.7-0.4,1
		c-0.3,0.3-0.6,0.4-1,0.4h-0.1v0.3c0,0.4,0.1,0.6,0.3,0.8s0.5,0.3,0.8,0.3v0.5c-0.3,0-0.6,0.1-0.8,0.3s-0.3,0.5-0.3,0.8v1.7h2.7
		c0.6,0,0.8-0.2,0.8-0.7V389h1.3V395.6z M134.8,390.9c0.2,0,0.4-0.1,0.5-0.2s0.2-0.3,0.2-0.5c0-0.2-0.1-0.4-0.2-0.5
		s-0.3-0.2-0.5-0.2c-0.2,0-0.4,0.1-0.5,0.2s-0.2,0.3-0.2,0.5c0,0.2,0.1,0.3,0.2,0.5S134.6,390.9,134.8,390.9z"/>
	<path class="st5" d="M147.8,389.5c-0.4,0.5-0.8,0.7-1.4,0.7c-0.2,0-0.6-0.1-1.2-0.2s-0.9-0.2-1.1-0.2c-0.7,0-1.2,0.3-1.5,0.8
		c0.3-0.1,0.7-0.1,1.1-0.1c1.2,0,2.1,0.2,2.7,0.7c0.6,0.5,0.9,1.1,0.9,1.9v3c0,0.4-0.1,0.7-0.4,1s-0.6,0.4-1,0.4
		c-0.4,0-0.7-0.1-1-0.4s-0.4-0.6-0.4-1s0.1-0.7,0.4-1s0.6-0.4,1-0.4h0.1v-1.4c0-0.8-0.2-1.3-0.6-1.5c-0.4-0.3-1.1-0.4-2-0.4
		c-0.7,0-1.3,0.1-1.8,0.2c0-0.8,0.3-1.5,0.8-2c0.5-0.5,1.1-0.7,1.8-0.7c0.4,0,0.8,0.1,1.3,0.2c0.5,0.2,0.8,0.2,0.9,0.2
		c0.3,0,0.6-0.2,0.8-0.5L147.8,389.5z M146,396.7c0.2,0,0.3-0.1,0.5-0.2c0.1-0.1,0.2-0.3,0.2-0.5s-0.1-0.4-0.2-0.5
		c-0.1-0.1-0.3-0.2-0.5-0.2c-0.2,0-0.4,0.1-0.5,0.2c-0.1,0.1-0.2,0.3-0.2,0.5s0.1,0.4,0.2,0.5C145.6,396.6,145.8,396.7,146,396.7z"
		/>
	<path class="st5" d="M154.8,389.1c-0.1,1-0.6,1.7-1.3,2.2c-0.7,0.5-1.6,0.8-2.6,0.8c-0.7,0-1.2-0.2-1.6-0.5
		c-0.4-0.3-0.6-0.7-0.6-1.2c0-0.4,0.1-0.7,0.4-1c0.3-0.3,0.6-0.4,1-0.4s0.7,0.1,1,0.4c0.3,0.3,0.4,0.6,0.4,1c0,0.3-0.1,0.6-0.3,0.9
		c0.7,0,1.2-0.2,1.7-0.6c0.5-0.4,0.8-1,0.8-1.7H154.8z M154.8,394.3c-0.1,1-0.6,1.7-1.3,2.2c-0.7,0.5-1.6,0.8-2.6,0.8
		c-0.7,0-1.2-0.2-1.6-0.5c-0.4-0.3-0.6-0.7-0.6-1.2c0-0.4,0.1-0.7,0.4-1c0.3-0.3,0.6-0.4,1-0.4s0.7,0.1,1,0.4c0.3,0.3,0.4,0.6,0.4,1
		c0,0.3-0.1,0.6-0.3,0.9c0.7,0,1.2-0.2,1.7-0.6c0.5-0.4,0.8-1,0.8-1.7H154.8z M150.1,391.2c0.2,0,0.4-0.1,0.5-0.2s0.2-0.3,0.2-0.5
		c0-0.2-0.1-0.3-0.2-0.5s-0.3-0.2-0.5-0.2c-0.2,0-0.4,0.1-0.5,0.2s-0.2,0.3-0.2,0.5c0,0.2,0.1,0.4,0.2,0.5S149.9,391.2,150.1,391.2z
		 M150.1,396.4c0.2,0,0.4-0.1,0.5-0.2s0.2-0.3,0.2-0.5s-0.1-0.4-0.2-0.5s-0.3-0.2-0.5-0.2c-0.2,0-0.4,0.1-0.5,0.2s-0.2,0.3-0.2,0.5
		s0.1,0.4,0.2,0.5S149.9,396.4,150.1,396.4z"/>
	<path class="st5" d="M163.5,397.3h-1.3v-5.4c0-0.6-0.2-1.2-0.7-1.6c-0.5-0.4-1.1-0.6-1.8-0.6c-0.8,0-1.5,0.2-2,0.7s-0.7,1-0.7,1.6
		c0,0.6,0.2,1.3,0.7,2s0.7,1.2,0.9,1.5c0.1-0.2,0.3-0.5,0.6-0.8s0.5-0.5,0.5-0.7h0c-0.4,0-0.7-0.1-1-0.4s-0.4-0.6-0.4-1
		s0.1-0.7,0.4-1s0.6-0.4,1-0.4c0.4,0,0.7,0.1,1,0.4s0.4,0.6,0.4,1c0,0.3-0.1,0.7-0.2,1.1c-0.2,0.4-0.5,0.8-1.1,1.4
		c-0.5,0.6-0.8,1-0.8,1.4v0.7h-1.3v-0.7c0-0.5-0.2-1.2-0.7-2.2c-0.5-0.9-0.7-1.7-0.7-2.4c0-0.9,0.3-1.6,1-2.3
		c0.7-0.6,1.5-0.9,2.6-0.9c1.2,0,2.1,0.3,2.8,0.8c0.7,0.5,1.1,1.3,1.1,2.2V397.3z M159.6,393.4c0.2,0,0.3-0.1,0.5-0.2
		c0.1-0.1,0.2-0.3,0.2-0.5c0-0.2-0.1-0.3-0.2-0.5c-0.1-0.1-0.3-0.2-0.5-0.2c-0.2,0-0.4,0.1-0.5,0.2s-0.2,0.3-0.2,0.5
		c0,0.2,0.1,0.4,0.2,0.5S159.4,393.4,159.6,393.4z"/>
	<path class="st5" d="M164.4,384.9c-0.1,1-0.6,1.7-1.3,2.2c-0.7,0.5-1.6,0.8-2.6,0.8c-0.7,0-1.2-0.2-1.6-0.5
		c-0.4-0.3-0.6-0.7-0.6-1.1c0-0.4,0.1-0.7,0.4-1c0.3-0.3,0.6-0.4,1-0.4s0.7,0.1,1,0.4c0.3,0.3,0.4,0.6,0.4,1c0,0.3-0.1,0.6-0.3,0.9
		c0.7,0,1.2-0.2,1.7-0.6c0.5-0.4,0.8-0.9,0.8-1.6H164.4z M159.7,387c0.2,0,0.4-0.1,0.5-0.2s0.2-0.3,0.2-0.5s-0.1-0.4-0.2-0.5
		s-0.3-0.2-0.5-0.2c-0.2,0-0.4,0.1-0.5,0.2s-0.2,0.3-0.2,0.5s0.1,0.4,0.2,0.5S159.5,387,159.7,387z"/>
	<path class="st5" d="M172.9,395.6c0,0.5-0.2,0.9-0.5,1.2c-0.4,0.3-0.8,0.5-1.3,0.5h-5.3v-0.9h0.8v-4.8h-0.1c-0.4,0-0.7-0.1-1-0.4
		c-0.3-0.3-0.4-0.6-0.4-1s0.1-0.7,0.4-1c0.3-0.3,0.6-0.4,1-0.4s0.7,0.1,1,0.4c0.3,0.3,0.4,0.6,0.4,1v6.2h3c0.6,0,0.8-0.2,0.8-0.7
		V389h1.3V395.6z M166.4,390.9c0.2,0,0.4-0.1,0.5-0.2s0.2-0.3,0.2-0.5c0-0.2-0.1-0.4-0.2-0.5s-0.3-0.2-0.5-0.2
		c-0.2,0-0.4,0.1-0.5,0.2s-0.2,0.3-0.2,0.5c0,0.2,0.1,0.3,0.2,0.5S166.2,390.9,166.4,390.9z"/>
	<path class="st5" d="M178.3,394.6L178.3,394.6c0.4,0,0.8,0.1,1,0.4c0.3,0.3,0.4,0.6,0.4,1s-0.1,0.7-0.4,1c-0.3,0.3-0.6,0.4-1,0.4
		s-0.7-0.1-1-0.4c-0.3-0.3-0.4-0.6-0.4-1v-9c0-0.7-0.1-1.3-0.4-1.6c-0.3-0.3-0.7-0.5-1.3-0.5c-0.4,0-0.9,0.1-1.4,0.2
		c0.1-0.8,0.4-1.4,0.9-1.8c0.5-0.4,1.1-0.7,1.7-0.7c0.4,0,0.8,0.1,1.3,0.2s0.8,0.2,0.9,0.2c0.3,0,0.6-0.2,0.8-0.5l0.6,0.6
		c-0.4,0.5-0.8,0.7-1.4,0.7c-0.2,0-0.6-0.1-1.2-0.2s-0.9-0.2-1.1-0.2c-0.7,0-1.2,0.3-1.5,0.8c0.3-0.1,0.6-0.1,0.8-0.1
		c0.8,0,1.4,0.2,1.9,0.7c0.5,0.4,0.7,1.1,0.7,1.9V394.6z M178.3,396.7c0.2,0,0.4-0.1,0.5-0.2s0.2-0.3,0.2-0.5s-0.1-0.4-0.2-0.5
		s-0.3-0.2-0.5-0.2c-0.2,0-0.4,0.1-0.5,0.2s-0.2,0.3-0.2,0.5s0.1,0.4,0.2,0.5S178.2,396.7,178.3,396.7z"/>
	<path class="st5" d="M187.3,397.3H186v-0.2c-0.6-1.4-1.1-2.5-1.6-3.4c-0.5-0.8-0.9-1.3-1.1-1.3c-0.2,0-0.3,0.2-0.3,0.5v1.6h0.1
		c0.4,0,0.7,0.1,1,0.4c0.3,0.3,0.4,0.6,0.4,1s-0.1,0.7-0.4,1c-0.3,0.3-0.6,0.4-1,0.4s-0.7-0.1-1-0.4c-0.3-0.3-0.4-0.6-0.4-1v-3
		c0-1,0.4-1.6,1.3-1.6c0.9,0,1.9,1.3,3,3.8v-3.6c0-0.6-0.2-1.1-0.6-1.4s-0.9-0.5-1.5-0.5c-1,0-1.7,0.4-2.3,1.2l-0.6-0.5
		c0.8-1,1.8-1.5,3-1.5c0.9,0,1.7,0.3,2.4,0.8s0.9,1.2,0.9,2.1V397.3z M183.1,396.7c0.2,0,0.4-0.1,0.5-0.2s0.2-0.3,0.2-0.5
		s-0.1-0.4-0.2-0.5s-0.3-0.2-0.5-0.2c-0.2,0-0.4,0.1-0.5,0.2s-0.2,0.3-0.2,0.5s0.1,0.4,0.2,0.5S182.9,396.7,183.1,396.7z"/>
	<path class="st5" d="M196.1,397.3h-1.3v-5.4c0-0.7-0.2-1.2-0.7-1.6s-1-0.6-1.7-0.6c-1.1,0-1.8,0.3-2.1,1c0.3,0.5,0.9,0.8,1.8,0.9
		v0.5c-0.3,0-0.6,0.1-0.8,0.3c-0.2,0.2-0.3,0.5-0.3,0.8v4.1h-1.3v-4.1c0-0.6,0.2-1,0.7-1.3c-0.7-0.2-1.1-0.6-1.4-1.2
		c0.7-1.3,1.8-1.9,3.5-1.9c1,0,1.9,0.3,2.6,0.8c0.7,0.5,1,1.3,1,2.2V397.3z"/>
</g>
<g class="st4">
	<path class="st5" d="M45.3,155.1c0.9,0.3,1.4,0.9,1.4,1.8c0,0.5-0.1,0.8-0.4,1.1c-0.3,0.3-0.6,0.4-1,0.4c-0.5,0-0.8-0.1-1-0.4
		s-0.3-0.6-0.3-1.2v-1c-1.3,0.3-2.5,1.1-3.4,2.6h-1.3v-5.7h-0.1c-0.4,0-0.7-0.1-1-0.4c-0.3-0.3-0.4-0.6-0.4-1s0.1-0.7,0.4-1
		c0.3-0.3,0.6-0.4,1-0.4s0.7,0.1,1,0.4c0.3,0.3,0.4,0.6,0.4,1v6c0.9-1.1,2-1.8,3.4-2.2v-5h1.3V155.1z M39.2,152
		c0.2,0,0.4-0.1,0.5-0.2s0.2-0.3,0.2-0.5c0-0.2-0.1-0.4-0.2-0.5s-0.3-0.2-0.5-0.2c-0.2,0-0.4,0.1-0.5,0.2s-0.2,0.3-0.2,0.5
		c0,0.2,0.1,0.3,0.2,0.5S39,152,39.2,152z M46.1,156.9c0-0.2-0.1-0.4-0.2-0.6c-0.1-0.2-0.3-0.4-0.5-0.4v1.4c0,0.2,0,0.4,0.1,0.5
		c0,0.1,0.1,0.1,0.2,0.1C45.9,157.7,46.1,157.5,46.1,156.9z"/>
	<path class="st5" d="M47.1,146c-0.1,1-0.6,1.7-1.3,2.2c-0.7,0.5-1.6,0.8-2.6,0.8c-0.7,0-1.2-0.2-1.6-0.5c-0.4-0.3-0.6-0.7-0.6-1.1
		c0-0.4,0.1-0.7,0.4-1c0.3-0.3,0.6-0.4,1-0.4s0.7,0.1,1,0.4c0.3,0.3,0.4,0.6,0.4,1c0,0.3-0.1,0.6-0.3,0.9c0.7,0,1.2-0.2,1.7-0.6
		c0.5-0.4,0.8-0.9,0.8-1.6H47.1z M42.5,148c0.2,0,0.4-0.1,0.5-0.2s0.2-0.3,0.2-0.5s-0.1-0.4-0.2-0.5s-0.3-0.2-0.5-0.2
		c-0.2,0-0.4,0.1-0.5,0.2s-0.2,0.3-0.2,0.5s0.1,0.4,0.2,0.5S42.3,148,42.5,148z"/>
	<path class="st5" d="M55,158.4h-1.3V153c0-0.7-0.2-1.2-0.7-1.6s-1-0.6-1.7-0.6c-1.1,0-1.8,0.3-2.1,1c0.3,0.5,0.9,0.8,1.8,0.9v0.5
		c-0.3,0-0.6,0.1-0.8,0.3c-0.2,0.2-0.3,0.5-0.3,0.8v4.1h-1.3v-4.1c0-0.6,0.2-1,0.7-1.3c-0.7-0.2-1.1-0.6-1.4-1.2
		c0.7-1.3,1.8-1.9,3.5-1.9c1,0,1.9,0.3,2.6,0.8c0.7,0.5,1,1.3,1,2.2V158.4z"/>
	<path class="st5" d="M62.7,158.4h-1.3v-0.2c-0.6-1.4-1.1-2.5-1.6-3.4c-0.5-0.8-0.9-1.3-1.1-1.3c-0.2,0-0.3,0.2-0.3,0.5v1.6h0.1
		c0.4,0,0.7,0.1,1,0.4c0.3,0.3,0.4,0.6,0.4,1s-0.1,0.7-0.4,1c-0.3,0.3-0.6,0.4-1,0.4s-0.7-0.1-1-0.4c-0.3-0.3-0.4-0.6-0.4-1v-3
		c0-1,0.4-1.6,1.3-1.6c0.9,0,1.9,1.3,3,3.8v-3.6c0-0.6-0.2-1.1-0.6-1.4s-0.9-0.5-1.5-0.5c-1,0-1.7,0.4-2.3,1.2l-0.6-0.5
		c0.8-1,1.8-1.5,3-1.5c0.9,0,1.7,0.3,2.4,0.8s0.9,1.2,0.9,2.1V158.4z M58.5,157.7c0.2,0,0.4-0.1,0.5-0.2s0.2-0.3,0.2-0.5
		s-0.1-0.4-0.2-0.5s-0.3-0.2-0.5-0.2c-0.2,0-0.4,0.1-0.5,0.2s-0.2,0.3-0.2,0.5s0.1,0.4,0.2,0.5S58.3,157.7,58.5,157.7z"/>
	<path class="st5" d="M69.5,158.4h-1.3c-0.9-1.3-1.6-2.2-2.3-2.8c-0.7-0.6-1.4-0.9-2.3-0.9v-0.7c0.9,0,1.6,0.2,2.3,0.7
		c0.7,0.4,1.4,1.2,2.3,2.4v-4.4h-0.1c-0.4,0-0.7-0.1-1-0.4c-0.3-0.3-0.4-0.6-0.4-1s0.1-0.7,0.4-1c0.3-0.3,0.6-0.4,1-0.4
		c0.4,0,0.7,0.1,1,0.4s0.4,0.6,0.4,1V158.4z M68.1,152c0.2,0,0.3-0.1,0.5-0.2c0.1-0.1,0.2-0.3,0.2-0.5c0-0.2-0.1-0.4-0.2-0.5
		c-0.1-0.1-0.3-0.2-0.5-0.2c-0.2,0-0.4,0.1-0.5,0.2s-0.2,0.3-0.2,0.5c0,0.2,0.1,0.3,0.2,0.5S68,152,68.1,152z"/>
	<path class="st5" d="M78.7,158.4h-1.3v-6.9c0-0.3-0.1-0.5-0.3-0.5c-0.1,0-0.2,0.1-0.4,0.3c-0.2,0.2-0.3,0.5-0.6,0.8
		c-0.2,0.4-0.5,0.9-0.7,1.5c-0.3,0.6-0.6,1.5-1.1,2.6c-0.4,1.2-0.6,1.8-0.6,2v0.2h-1.3v-5.7h-0.1c-0.4,0-0.7-0.1-1-0.4
		c-0.3-0.3-0.4-0.6-0.4-1s0.1-0.7,0.4-1c0.3-0.3,0.6-0.4,1-0.4s0.7,0.1,1,0.4c0.3,0.3,0.4,0.6,0.4,1v4.2c0.6-1.5,1.2-2.9,1.8-3.9
		s1.3-1.6,1.9-1.6c0.8,0,1.3,0.5,1.3,1.5V158.4z M72.4,152c0.2,0,0.4-0.1,0.5-0.2s0.2-0.3,0.2-0.5c0-0.2-0.1-0.4-0.2-0.5
		s-0.3-0.2-0.5-0.2c-0.2,0-0.4,0.1-0.5,0.2s-0.2,0.3-0.2,0.5c0,0.2,0.1,0.3,0.2,0.5S72.2,152,72.4,152z"/>
	<path class="st5" d="M78.7,161.8H78V161c-0.2,0-0.3-0.1-0.4-0.2c-0.1-0.1-0.2-0.3-0.2-0.4c0-0.2,0.1-0.3,0.2-0.5
		c0.1-0.1,0.3-0.2,0.4-0.2c0.2,0,0.4,0.1,0.5,0.2s0.2,0.3,0.2,0.5V161.8z M78,160.6c0.2,0,0.3-0.1,0.3-0.3S78.2,160,78,160
		c-0.2,0-0.3,0.1-0.3,0.3S77.8,160.6,78,160.6z"/>
	<path class="st5" d="M87.7,155.1c0.9,0.3,1.4,0.9,1.4,1.8c0,0.5-0.1,0.8-0.4,1.1c-0.3,0.3-0.6,0.4-1,0.4c-0.5,0-0.8-0.1-1-0.4
		s-0.3-0.6-0.3-1.2v-1c-1.3,0.3-2.5,1.1-3.4,2.6h-1.3v-5.7h-0.1c-0.4,0-0.7-0.1-1-0.4c-0.3-0.3-0.4-0.6-0.4-1s0.1-0.7,0.4-1
		c0.3-0.3,0.6-0.4,1-0.4s0.7,0.1,1,0.4c0.3,0.3,0.4,0.6,0.4,1v6c0.9-1.1,2-1.8,3.4-2.2v-5h1.3V155.1z M81.6,152
		c0.2,0,0.4-0.1,0.5-0.2s0.2-0.3,0.2-0.5c0-0.2-0.1-0.4-0.2-0.5s-0.3-0.2-0.5-0.2c-0.2,0-0.4,0.1-0.5,0.2s-0.2,0.3-0.2,0.5
		c0,0.2,0.1,0.3,0.2,0.5S81.4,152,81.6,152z M88.4,156.9c0-0.2-0.1-0.4-0.2-0.6c-0.1-0.2-0.3-0.4-0.5-0.4v1.4c0,0.2,0,0.4,0.1,0.5
		c0,0.1,0.1,0.1,0.2,0.1C88.3,157.7,88.4,157.5,88.4,156.9z"/>
</g>
<g class="st4">
	<path class="st5" d="M129.3,78.6c0,0.4-0.2,0.8-0.6,1.1c-0.4,0.3-0.8,0.4-1.4,0.4c-0.5,0-1-0.1-1.4-0.4c-0.4-0.3-0.6-0.6-0.6-1.1
		v-1.6h-0.1c-0.4,0-0.7-0.1-1-0.4c-0.3-0.3-0.4-0.6-0.4-1s0.1-0.7,0.4-1c0.3-0.3,0.6-0.4,1-0.4s0.7,0.1,1,0.4c0.3,0.3,0.4,0.6,0.4,1
		v2.9c0,0.2,0.1,0.3,0.2,0.4c0.1,0.1,0.3,0.2,0.4,0.2c0.2,0,0.3-0.1,0.4-0.2c0.1-0.1,0.2-0.3,0.2-0.4v-4.2c0-0.6-0.2-1.1-0.6-1.4
		s-0.9-0.5-1.5-0.5c-1,0-1.7,0.4-2.3,1.2l-0.6-0.5c0.8-1,1.8-1.5,3-1.5c0.9,0,1.7,0.3,2.4,0.8s0.9,1.2,0.9,2.1V78.6z M125.4,76.4
		c0.2,0,0.4-0.1,0.5-0.2s0.2-0.3,0.2-0.5c0-0.2-0.1-0.4-0.2-0.5s-0.3-0.2-0.5-0.2c-0.2,0-0.4,0.1-0.5,0.2s-0.2,0.3-0.2,0.5
		c0,0.2,0.1,0.3,0.2,0.5S125.2,76.4,125.4,76.4z"/>
	<path class="st5" d="M128.9,70.6h-0.6V68h0.6V70.6z"/>
	<path class="st5" d="M136,80.1h-1.3v-5.6c0-1.3-0.6-2-1.7-2c-0.8,0-1.4,0.4-1.9,1.2l-0.6-0.5c0.7-1,1.6-1.5,2.6-1.5
		c0.9,0,1.6,0.3,2.2,0.8c0.5,0.5,0.8,1.2,0.8,2.1V80.1z"/>
	<path class="st5" d="M144,78.4c0,0.5-0.2,0.9-0.5,1.2c-0.4,0.3-0.8,0.5-1.3,0.5h-4.3v-2.6c0-0.7,0.2-1.1,0.7-1.4
		c-0.5-0.3-0.7-0.7-0.7-1.4V73c0-0.4,0.1-0.7,0.4-1c0.3-0.3,0.6-0.4,1-0.4s0.7,0.1,1,0.4c0.3,0.3,0.4,0.6,0.4,1s-0.1,0.7-0.4,1
		c-0.3,0.3-0.6,0.4-1,0.4h-0.1v0.3c0,0.4,0.1,0.6,0.3,0.8s0.5,0.3,0.8,0.3v0.5c-0.3,0-0.6,0.1-0.8,0.3s-0.3,0.5-0.3,0.8v1.7h2.7
		c0.6,0,0.8-0.2,0.8-0.7v-6.7h1.3V78.4z M139.2,73.7c0.2,0,0.4-0.1,0.5-0.2s0.2-0.3,0.2-0.5c0-0.2-0.1-0.4-0.2-0.5s-0.3-0.2-0.5-0.2
		c-0.2,0-0.4,0.1-0.5,0.2s-0.2,0.3-0.2,0.5c0,0.2,0.1,0.3,0.2,0.5S139,73.7,139.2,73.7z"/>
	<path class="st5" d="M153.7,80.1h-1.3v-4.6c0-0.4,0-0.6-0.1-0.7c-1.5,1.2-2.6,2.1-3.1,2.9s-0.9,1.6-0.9,2.3h-1.3v-5.7h-0.1
		c-0.4,0-0.7-0.1-1-0.4c-0.3-0.3-0.4-0.6-0.4-1s0.1-0.7,0.4-1c0.3-0.3,0.6-0.4,1-0.4s0.7,0.1,1,0.4c0.3,0.3,0.4,0.6,0.4,1v4.8
		c0.4-0.9,1.5-2,3.5-3.5c-0.6-0.4-0.9-0.8-0.9-1.3c0-0.4,0.1-0.7,0.4-1c0.3-0.3,0.6-0.4,1-0.4s0.7,0.1,1,0.4c0.3,0.3,0.4,0.6,0.4,1
		c0,0.5-0.2,0.9-0.6,1.2c0.5,0.3,0.7,0.7,0.7,1.3V80.1z M146.8,73.7c0.2,0,0.4-0.1,0.5-0.2s0.2-0.3,0.2-0.5c0-0.2-0.1-0.4-0.2-0.5
		s-0.3-0.2-0.5-0.2c-0.2,0-0.4,0.1-0.5,0.2s-0.2,0.3-0.2,0.5c0,0.2,0.1,0.3,0.2,0.5S146.7,73.7,146.8,73.7z M152.3,73.9
		c0.4-0.3,0.6-0.6,0.6-0.9c0-0.2-0.1-0.4-0.2-0.5s-0.3-0.2-0.5-0.2c-0.2,0-0.4,0.1-0.5,0.2s-0.2,0.3-0.2,0.5
		C151.5,73.3,151.8,73.6,152.3,73.9z"/>
	<path class="st5" d="M153.7,83.5H153v-0.8c-0.2,0-0.3-0.1-0.4-0.2c-0.1-0.1-0.2-0.3-0.2-0.4c0-0.2,0.1-0.3,0.2-0.5
		c0.1-0.1,0.3-0.2,0.4-0.2c0.2,0,0.4,0.1,0.5,0.2s0.2,0.3,0.2,0.5V83.5z M153,82.3c0.2,0,0.3-0.1,0.3-0.3s-0.1-0.3-0.3-0.3
		c-0.2,0-0.3,0.1-0.3,0.3S152.7,82.3,153,82.3z"/>
	<path class="st5" d="M154.6,67.7c-0.1,0.9-0.4,1.6-1,2.2s-1.5,0.8-2.6,0.8c-0.4,0-0.7,0-1-0.1v-0.5c0.5,0,0.9-0.1,1.1-0.4
		c-0.3,0-0.5-0.1-0.7-0.3s-0.3-0.4-0.3-0.7s0.1-0.5,0.3-0.7s0.4-0.3,0.7-0.3c0.3,0,0.5,0.1,0.7,0.3s0.3,0.4,0.3,0.7
		c0,0.5-0.3,1-0.8,1.4c0.7,0,1.4-0.3,1.9-0.7c0.5-0.5,0.8-1,0.8-1.7H154.6z M151,69.2c0.1,0,0.3,0,0.4-0.1c0.1-0.1,0.1-0.2,0.1-0.4
		c0-0.1,0-0.3-0.1-0.4c-0.1-0.1-0.2-0.1-0.4-0.1c-0.1,0-0.3,0-0.4,0.1c-0.1,0.1-0.1,0.2-0.1,0.4c0,0.1,0,0.3,0.1,0.4
		C150.7,69.1,150.9,69.2,151,69.2z"/>
	<path class="st5" d="M162.7,76.8c0.9,0.3,1.4,0.9,1.4,1.8c0,0.5-0.1,0.8-0.4,1.1c-0.3,0.3-0.6,0.4-1,0.4c-0.5,0-0.8-0.1-1-0.4
		s-0.3-0.6-0.3-1.2v-1c-1.3,0.3-2.5,1.1-3.4,2.6h-1.3v-5.7h-0.1c-0.4,0-0.7-0.1-1-0.4c-0.3-0.3-0.4-0.6-0.4-1s0.1-0.7,0.4-1
		c0.3-0.3,0.6-0.4,1-0.4s0.7,0.1,1,0.4c0.3,0.3,0.4,0.6,0.4,1v6c0.9-1.1,2-1.8,3.4-2.2v-5h1.3V76.8z M156.6,73.7
		c0.2,0,0.4-0.1,0.5-0.2s0.2-0.3,0.2-0.5c0-0.2-0.1-0.4-0.2-0.5s-0.3-0.2-0.5-0.2c-0.2,0-0.4,0.1-0.5,0.2s-0.2,0.3-0.2,0.5
		c0,0.2,0.1,0.3,0.2,0.5S156.4,73.7,156.6,73.7z M163.4,78.6c0-0.2-0.1-0.4-0.2-0.6c-0.1-0.2-0.3-0.4-0.5-0.4v1.4
		c0,0.2,0,0.4,0.1,0.5c0,0.1,0.1,0.1,0.2,0.1C163.3,79.4,163.4,79.2,163.4,78.6z"/>
	<path class="st5" d="M173,78.4c0,0.5-0.2,0.9-0.5,1.2c-0.4,0.3-0.8,0.5-1.3,0.5h-5.3v-0.9h0.8v-4.8h-0.1c-0.4,0-0.7-0.1-1-0.4
		c-0.3-0.3-0.4-0.6-0.4-1s0.1-0.7,0.4-1c0.3-0.3,0.6-0.4,1-0.4s0.7,0.1,1,0.4c0.3,0.3,0.4,0.6,0.4,1v6.2h3c0.6,0,0.8-0.2,0.8-0.7
		v-11h1.3V78.4z M166.5,73.7c0.2,0,0.4-0.1,0.5-0.2s0.2-0.3,0.2-0.5c0-0.2-0.1-0.4-0.2-0.5s-0.3-0.2-0.5-0.2c-0.2,0-0.4,0.1-0.5,0.2
		s-0.2,0.3-0.2,0.5c0,0.2,0.1,0.3,0.2,0.5S166.3,73.7,166.5,73.7z"/>
	<path class="st5" d="M173.8,67.7c-0.1,1-0.6,1.7-1.3,2.2c-0.7,0.5-1.6,0.8-2.6,0.8c-0.7,0-1.2-0.2-1.6-0.5
		c-0.4-0.3-0.6-0.7-0.6-1.1c0-0.4,0.1-0.7,0.4-1c0.3-0.3,0.6-0.4,1-0.4s0.7,0.1,1,0.4c0.3,0.3,0.4,0.6,0.4,1c0,0.3-0.1,0.6-0.3,0.9
		c0.7,0,1.2-0.2,1.7-0.6c0.5-0.4,0.8-0.9,0.8-1.6H173.8z M169.2,69.7c0.2,0,0.4-0.1,0.5-0.2s0.2-0.3,0.2-0.5s-0.1-0.4-0.2-0.5
		s-0.3-0.2-0.5-0.2c-0.2,0-0.4,0.1-0.5,0.2s-0.2,0.3-0.2,0.5s0.1,0.4,0.2,0.5S169,69.7,169.2,69.7z"/>
	<path class="st5" d="M182,76.8c0.9,0.3,1.4,0.9,1.4,1.8c0,0.5-0.1,0.8-0.4,1.1c-0.3,0.3-0.6,0.4-1,0.4c-0.5,0-0.8-0.1-1-0.4
		s-0.3-0.6-0.3-1.2v-1c-1.3,0.3-2.5,1.1-3.4,2.6h-1.3v-5.7h-0.1c-0.4,0-0.7-0.1-1-0.4c-0.3-0.3-0.4-0.6-0.4-1s0.1-0.7,0.4-1
		c0.3-0.3,0.6-0.4,1-0.4s0.7,0.1,1,0.4c0.3,0.3,0.4,0.6,0.4,1v6c0.9-1.1,2-1.8,3.4-2.2v-5h1.3V76.8z M175.8,73.7
		c0.2,0,0.4-0.1,0.5-0.2s0.2-0.3,0.2-0.5c0-0.2-0.1-0.4-0.2-0.5s-0.3-0.2-0.5-0.2c-0.2,0-0.4,0.1-0.5,0.2s-0.2,0.3-0.2,0.5
		c0,0.2,0.1,0.3,0.2,0.5S175.6,73.7,175.8,73.7z M182.7,78.6c0-0.2-0.1-0.4-0.2-0.6c-0.1-0.2-0.3-0.4-0.5-0.4v1.4
		c0,0.2,0,0.4,0.1,0.5c0,0.1,0.1,0.1,0.2,0.1C182.5,79.4,182.7,79.2,182.7,78.6z"/>
	<path class="st5" d="M191.9,80.1h-1.3c-0.6-1.4-1.4-2.5-2.3-3.3c-0.9,0.8-1.6,1.9-2.2,3.3h-1.3V73c0-0.4,0.1-0.7,0.4-1
		c0.3-0.3,0.6-0.4,1-0.4s0.7,0.1,1,0.4c0.3,0.3,0.4,0.6,0.4,1s-0.1,0.7-0.4,1c-0.3,0.3-0.6,0.4-1,0.4h-0.1v3.7
		c0.6-1,1.3-1.8,2.2-2.5c0.9,0.7,1.7,1.5,2.3,2.5v-6.3h1.3V80.1z M186.1,73.7c0.2,0,0.4-0.1,0.5-0.2s0.2-0.3,0.2-0.5
		c0-0.2-0.1-0.4-0.2-0.5s-0.3-0.2-0.5-0.2c-0.2,0-0.4,0.1-0.5,0.2s-0.2,0.3-0.2,0.5c0,0.2,0.1,0.3,0.2,0.5S185.9,73.7,186.1,73.7z"
		/>
	<path class="st5" d="M199.6,80.1h-1.3v-0.2c-0.6-1.4-1.1-2.5-1.6-3.4c-0.5-0.8-0.9-1.3-1.1-1.3c-0.2,0-0.3,0.2-0.3,0.5v1.6h0.1
		c0.4,0,0.7,0.1,1,0.4c0.3,0.3,0.4,0.6,0.4,1s-0.1,0.7-0.4,1c-0.3,0.3-0.6,0.4-1,0.4s-0.7-0.1-1-0.4c-0.3-0.3-0.4-0.6-0.4-1v-3
		c0-1,0.4-1.6,1.3-1.6c0.9,0,1.9,1.3,3,3.8v-3.6c0-0.6-0.2-1.1-0.6-1.4s-0.9-0.5-1.5-0.5c-1,0-1.7,0.4-2.3,1.2l-0.6-0.5
		c0.8-1,1.8-1.5,3-1.5c0.9,0,1.7,0.3,2.4,0.8s0.9,1.2,0.9,2.1V80.1z M195.4,79.4c0.2,0,0.4-0.1,0.5-0.2s0.2-0.3,0.2-0.5
		s-0.1-0.4-0.2-0.5s-0.3-0.2-0.5-0.2c-0.2,0-0.4,0.1-0.5,0.2s-0.2,0.3-0.2,0.5s0.1,0.4,0.2,0.5S195.2,79.4,195.4,79.4z"/>
	<path class="st5" d="M207.9,72.3c-0.4,0.5-0.8,0.7-1.4,0.7c-0.2,0-0.6-0.1-1.2-0.2s-0.9-0.2-1.1-0.2c-0.7,0-1.2,0.3-1.5,0.8
		c0.3-0.1,0.7-0.1,1.1-0.1c1.2,0,2.1,0.2,2.7,0.7c0.6,0.5,0.9,1.1,0.9,1.9v3c0,0.4-0.1,0.7-0.4,1s-0.6,0.4-1,0.4
		c-0.4,0-0.7-0.1-1-0.4s-0.4-0.6-0.4-1s0.1-0.7,0.4-1s0.6-0.4,1-0.4h0.1V76c0-0.8-0.2-1.3-0.6-1.5c-0.4-0.3-1.1-0.4-2-0.4
		c-0.7,0-1.3,0.1-1.8,0.2c0-0.8,0.3-1.5,0.8-2c0.5-0.5,1.1-0.7,1.8-0.7c0.4,0,0.8,0.1,1.3,0.2c0.5,0.2,0.8,0.2,0.9,0.2
		c0.3,0,0.6-0.2,0.8-0.5L207.9,72.3z M206,79.4c0.2,0,0.3-0.1,0.5-0.2c0.1-0.1,0.2-0.3,0.2-0.5s-0.1-0.4-0.2-0.5
		c-0.1-0.1-0.3-0.2-0.5-0.2c-0.2,0-0.4,0.1-0.5,0.2c-0.1,0.1-0.2,0.3-0.2,0.5s0.1,0.4,0.2,0.5C205.6,79.4,205.8,79.4,206,79.4z"/>
	<path class="st5" d="M214.1,80.1h-1.3v-5.6c0-1.3-0.6-2-1.7-2c-0.8,0-1.4,0.4-1.9,1.2l-0.6-0.5c0.7-1,1.6-1.5,2.6-1.5
		c0.9,0,1.6,0.3,2.2,0.8c0.5,0.5,0.8,1.2,0.8,2.1V80.1z"/>
	<path class="st5" d="M222.1,78.4c0,0.5-0.2,0.9-0.5,1.2c-0.4,0.3-0.8,0.5-1.3,0.5H216v-2.6c0-0.7,0.2-1.1,0.7-1.4
		c-0.5-0.3-0.7-0.7-0.7-1.4V73c0-0.4,0.1-0.7,0.4-1c0.3-0.3,0.6-0.4,1-0.4s0.7,0.1,1,0.4c0.3,0.3,0.4,0.6,0.4,1s-0.1,0.7-0.4,1
		c-0.3,0.3-0.6,0.4-1,0.4h-0.1v0.3c0,0.4,0.1,0.6,0.3,0.8s0.5,0.3,0.8,0.3v0.5c-0.3,0-0.6,0.1-0.8,0.3s-0.3,0.5-0.3,0.8v1.7h2.7
		c0.6,0,0.8-0.2,0.8-0.7v-6.7h1.3V78.4z M217.3,73.7c0.2,0,0.4-0.1,0.5-0.2s0.2-0.3,0.2-0.5c0-0.2-0.1-0.4-0.2-0.5s-0.3-0.2-0.5-0.2
		c-0.2,0-0.4,0.1-0.5,0.2s-0.2,0.3-0.2,0.5c0,0.2,0.1,0.3,0.2,0.5S217.1,73.7,217.3,73.7z"/>
	<path class="st5" d="M225.3,77.4L225.3,77.4c0.4,0,0.8,0.1,1,0.4s0.4,0.6,0.4,1s-0.1,0.7-0.4,1s-0.6,0.4-1,0.4
		c-0.4,0-0.7-0.1-1-0.4s-0.4-0.6-0.4-1v-6.9h1.3V77.4z M225.4,79.4c0.2,0,0.4-0.1,0.5-0.2s0.2-0.3,0.2-0.5s-0.1-0.4-0.2-0.5
		s-0.3-0.2-0.5-0.2c-0.2,0-0.3,0.1-0.5,0.2c-0.1,0.1-0.2,0.3-0.2,0.5s0.1,0.4,0.2,0.5C225.1,79.4,225.2,79.4,225.4,79.4z"/>
	<path class="st5" d="M235.6,80.1h-1.3v-5.4c0-0.6-0.2-1.2-0.7-1.6c-0.5-0.4-1.1-0.6-1.8-0.6c-0.8,0-1.5,0.2-2,0.7s-0.7,1-0.7,1.6
		c0,0.6,0.2,1.3,0.7,2s0.7,1.2,0.9,1.5c0.1-0.2,0.3-0.5,0.6-0.8s0.5-0.5,0.5-0.7h0c-0.4,0-0.7-0.1-1-0.4s-0.4-0.6-0.4-1
		s0.1-0.7,0.4-1s0.6-0.4,1-0.4c0.4,0,0.7,0.1,1,0.4s0.4,0.6,0.4,1c0,0.3-0.1,0.7-0.2,1.1c-0.2,0.4-0.5,0.8-1.1,1.4
		c-0.5,0.6-0.8,1-0.8,1.4v0.7h-1.3v-0.7c0-0.5-0.2-1.2-0.7-2.2c-0.5-0.9-0.7-1.7-0.7-2.4c0-0.9,0.3-1.6,1-2.3
		c0.7-0.6,1.5-0.9,2.6-0.9c1.2,0,2.1,0.3,2.8,0.8c0.7,0.5,1.1,1.3,1.1,2.2V80.1z M231.7,76.2c0.2,0,0.3-0.1,0.5-0.2
		c0.1-0.1,0.2-0.3,0.2-0.5c0-0.2-0.1-0.3-0.2-0.5c-0.1-0.1-0.3-0.2-0.5-0.2c-0.2,0-0.4,0.1-0.5,0.2s-0.2,0.3-0.2,0.5
		c0,0.2,0.1,0.4,0.2,0.5S231.5,76.2,231.7,76.2z"/>
	<path class="st5" d="M235.6,70.6h-6.2c0.5-1.7,1.5-2.5,3.1-2.5c0.3,0,0.5,0,0.7,0.1v-0.6h0.6v0.7c0.4,0.2,0.8,0.5,1.1,0.9v-1.6h0.6
		V70.6z M234.6,70c-0.4-0.8-1.1-1.2-2.1-1.2c-1,0-1.7,0.4-2.1,1.2H234.6z"/>
	<path class="st5" d="M244,78.4c0,0.5-0.2,0.9-0.5,1.2c-0.4,0.3-0.8,0.5-1.3,0.5h-2c-0.5,0-0.9-0.2-1.3-0.5
		c-0.4-0.3-0.5-0.7-0.5-1.2v-2.9c0-0.4,0.1-0.7,0.4-1c0.3-0.3,0.6-0.4,1-0.4c0.4,0,0.7,0.1,1,0.4s0.4,0.6,0.4,1s-0.1,0.7-0.4,1
		s-0.6,0.4-1,0.4h-0.1v1.7c0,0.5,0.3,0.7,0.8,0.7h1.4c0.6,0,0.8-0.2,0.8-0.7v-4c0-0.6-0.2-1.1-0.7-1.4c-0.5-0.3-1-0.5-1.7-0.5
		c-0.5,0-1,0.1-1.5,0.3c-0.5,0.2-0.9,0.5-1.1,0.9l-0.6-0.5c0.4-0.5,0.8-0.8,1.4-1.1c0.6-0.3,1.2-0.4,1.8-0.4c1,0,1.8,0.3,2.5,0.8
		c0.7,0.5,1.1,1.2,1.1,2.1V78.4z M239.7,76.1c0.2,0,0.3-0.1,0.5-0.2c0.1-0.1,0.2-0.3,0.2-0.5s-0.1-0.4-0.2-0.5
		c-0.1-0.1-0.3-0.2-0.5-0.2c-0.2,0-0.4,0.1-0.5,0.2s-0.2,0.3-0.2,0.5s0.1,0.4,0.2,0.5S239.5,76.1,239.7,76.1z"/>
	<path class="st5" d="M253,76.8c0.9,0.3,1.4,0.9,1.4,1.8c0,0.5-0.1,0.8-0.4,1.1c-0.3,0.3-0.6,0.4-1,0.4c-0.5,0-0.8-0.1-1-0.4
		s-0.3-0.6-0.3-1.2v-1c-1.3,0.3-2.5,1.1-3.4,2.6h-1.3v-5.7h-0.1c-0.4,0-0.7-0.1-1-0.4c-0.3-0.3-0.4-0.6-0.4-1s0.1-0.7,0.4-1
		c0.3-0.3,0.6-0.4,1-0.4s0.7,0.1,1,0.4c0.3,0.3,0.4,0.6,0.4,1v6c0.9-1.1,2-1.8,3.4-2.2v-5h1.3V76.8z M246.9,73.7
		c0.2,0,0.4-0.1,0.5-0.2s0.2-0.3,0.2-0.5c0-0.2-0.1-0.4-0.2-0.5s-0.3-0.2-0.5-0.2c-0.2,0-0.4,0.1-0.5,0.2s-0.2,0.3-0.2,0.5
		c0,0.2,0.1,0.3,0.2,0.5S246.7,73.7,246.9,73.7z M253.7,78.6c0-0.2-0.1-0.4-0.2-0.6c-0.1-0.2-0.3-0.4-0.5-0.4v1.4
		c0,0.2,0,0.4,0.1,0.5c0,0.1,0.1,0.1,0.2,0.1C253.6,79.4,253.7,79.2,253.7,78.6z"/>
</g>
<g class="st4">
	<path class="st5" d="M544.5,311.6h-1.3v-0.4c-0.3-0.7-0.8-1.6-1.6-2.8s-1.3-1.7-1.7-1.7c-0.2,0-0.3,0.2-0.3,0.5v1.6h0.1
		c0.4,0,0.7,0.1,1,0.4s0.4,0.6,0.4,1s-0.1,0.7-0.4,1s-0.6,0.4-1,0.4s-0.7-0.1-1-0.4s-0.4-0.6-0.4-1v-3c0-1,0.4-1.6,1.3-1.6
		c0.3,0,0.7,0.1,1,0.4s0.8,0.9,1.5,1.8s1,1.5,1.1,1.7V306c0-0.3-0.1-0.6-0.2-0.9c-0.6,0.2-1.1,0.4-1.7,0.4v-0.4
		c0.4-0.1,0.8-0.3,1.3-0.6c-0.5-0.4-1-0.5-1.7-0.5c-0.5,0-1,0.1-1.5,0.3s-0.9,0.5-1.1,0.9l-0.6-0.5c0.4-0.5,0.8-0.8,1.4-1.1
		s1.2-0.4,1.8-0.4c0.9,0,1.7,0.2,2.4,0.7c0.3-0.3,0.5-0.7,0.7-1l0.9,0.6c-0.2,0.4-0.5,0.8-0.9,1.1c0.3,0.5,0.5,1,0.5,1.5V311.6z
		 M539.6,310.9c0.2,0,0.4-0.1,0.5-0.2s0.2-0.3,0.2-0.5s-0.1-0.4-0.2-0.5s-0.3-0.2-0.5-0.2s-0.4,0.1-0.5,0.2s-0.2,0.3-0.2,0.5
		s0.1,0.4,0.2,0.5S539.4,310.9,539.6,310.9z"/>
	<path class="st5" d="M544.5,302.1h-6.2c0.5-1.7,1.5-2.5,3.1-2.5C543,299.7,544,300.5,544.5,302.1z M543.4,301.5
		c-0.4-0.8-1.1-1.2-2.1-1.2c-1,0-1.7,0.4-2.1,1.2H543.4z"/>
	<path class="st5" d="M553.4,308.3c0.9,0.3,1.4,0.9,1.4,1.8c0,0.5-0.1,0.8-0.4,1.1s-0.6,0.4-1,0.4c-0.5,0-0.8-0.1-1-0.4
		s-0.3-0.6-0.3-1.2v-1c-1.3,0.3-2.5,1.1-3.4,2.6h-1.3v-5.7h-0.1c-0.4,0-0.7-0.1-1-0.4s-0.4-0.6-0.4-1s0.1-0.7,0.4-1s0.6-0.4,1-0.4
		s0.7,0.1,1,0.4s0.4,0.6,0.4,1v6c0.9-1.1,2-1.8,3.4-2.2v-5h1.3V308.3z M547.3,305.2c0.2,0,0.4-0.1,0.5-0.2s0.2-0.3,0.2-0.5
		c0-0.2-0.1-0.4-0.2-0.5s-0.3-0.2-0.5-0.2s-0.4,0.1-0.5,0.2s-0.2,0.3-0.2,0.5c0,0.2,0.1,0.3,0.2,0.5S547.1,305.2,547.3,305.2z
		 M554.2,310.1c0-0.2-0.1-0.4-0.2-0.6s-0.3-0.4-0.5-0.4v1.4c0,0.2,0,0.4,0.1,0.5s0.1,0.1,0.2,0.1C554,310.9,554.2,310.7,554.2,310.1
		z"/>
	<path class="st5" d="M563.6,311.6h-1.3v-6.9c0-0.3-0.1-0.5-0.3-0.5c-0.1,0-0.2,0.1-0.4,0.3s-0.3,0.5-0.6,0.8s-0.5,0.9-0.7,1.5
		s-0.6,1.5-1.1,2.6s-0.6,1.8-0.6,2v0.2h-1.3v-5.7h-0.1c-0.4,0-0.7-0.1-1-0.4s-0.4-0.6-0.4-1s0.1-0.7,0.4-1s0.6-0.4,1-0.4
		s0.7,0.1,1,0.4s0.4,0.6,0.4,1v4.2c0.6-1.5,1.2-2.9,1.8-3.9s1.3-1.6,1.9-1.6c0.8,0,1.3,0.5,1.3,1.5V311.6z M557.2,305.2
		c0.2,0,0.4-0.1,0.5-0.2s0.2-0.3,0.2-0.5c0-0.2-0.1-0.4-0.2-0.5s-0.3-0.2-0.5-0.2s-0.4,0.1-0.5,0.2s-0.2,0.3-0.2,0.5
		c0,0.2,0.1,0.3,0.2,0.5S557,305.2,557.2,305.2z"/>
	<path class="st5" d="M571.9,303.8c-0.4,0.5-0.8,0.7-1.4,0.7c-0.2,0-0.6-0.1-1.2-0.2s-0.9-0.2-1.1-0.2c-0.7,0-1.2,0.3-1.5,0.8
		c0.3-0.1,0.7-0.1,1.1-0.1c1.2,0,2.1,0.2,2.7,0.7s0.9,1.1,0.9,1.9v3c0,0.4-0.1,0.7-0.4,1s-0.6,0.4-1,0.4c-0.4,0-0.7-0.1-1-0.4
		s-0.4-0.6-0.4-1s0.1-0.7,0.4-1s0.6-0.4,1-0.4h0.1v-1.4c0-0.8-0.2-1.3-0.6-1.5s-1.1-0.4-2-0.4c-0.7,0-1.3,0.1-1.8,0.2
		c0-0.8,0.3-1.5,0.8-2s1.1-0.7,1.8-0.7c0.4,0,0.8,0.1,1.3,0.2s0.8,0.2,0.9,0.2c0.3,0,0.6-0.2,0.8-0.5L571.9,303.8z M570,310.9
		c0.2,0,0.3-0.1,0.5-0.2s0.2-0.3,0.2-0.5s-0.1-0.4-0.2-0.5s-0.3-0.2-0.5-0.2c-0.2,0-0.4,0.1-0.5,0.2s-0.2,0.3-0.2,0.5
		s0.1,0.4,0.2,0.5S569.8,310.9,570,310.9z"/>
	<path class="st5" d="M572.2,299.2c-0.1,1-0.6,1.7-1.3,2.2c-0.7,0.5-1.6,0.8-2.6,0.8c-0.7,0-1.2-0.2-1.6-0.5
		c-0.4-0.3-0.6-0.7-0.6-1.1c0-0.4,0.1-0.7,0.4-1c0.3-0.3,0.6-0.4,1-0.4s0.7,0.1,1,0.4c0.3,0.3,0.4,0.6,0.4,1c0,0.3-0.1,0.6-0.3,0.9
		c0.7,0,1.2-0.2,1.7-0.6c0.5-0.4,0.8-0.9,0.8-1.6H572.2z M567.5,301.2c0.2,0,0.4-0.1,0.5-0.2s0.2-0.3,0.2-0.5s-0.1-0.4-0.2-0.5
		s-0.3-0.2-0.5-0.2c-0.2,0-0.4,0.1-0.5,0.2s-0.2,0.3-0.2,0.5s0.1,0.4,0.2,0.5S567.4,301.2,567.5,301.2z"/>
	<path class="st5" d="M581.7,311.6h-1.3c0-0.6-0.4-1.5-1.1-2.8s-1.2-2.4-1.3-3.2c-0.1,0.8-0.6,1.9-1.3,3.2s-1.1,2.2-1.1,2.8h-1.3
		v-5.7h-0.1c-0.4,0-0.7-0.1-1-0.4s-0.4-0.6-0.4-1s0.1-0.7,0.4-1s0.6-0.4,1-0.4s0.7,0.1,1,0.4s0.4,0.6,0.4,1v4.6
		c0.1-0.3,0.4-0.8,0.8-1.5c0.8-1.3,1.2-2.8,1.2-4.3h0.9c0,1.5,0.4,2.9,1.2,4.3c0.4,0.7,0.7,1.2,0.8,1.5v-5.8h1.3V311.6z
		 M574.2,305.2c0.2,0,0.4-0.1,0.5-0.2s0.2-0.3,0.2-0.5c0-0.2-0.1-0.4-0.2-0.5s-0.3-0.2-0.5-0.2s-0.4,0.1-0.5,0.2s-0.2,0.3-0.2,0.5
		c0,0.2,0.1,0.3,0.2,0.5S574,305.2,574.2,305.2z"/>
	<path class="st5" d="M589.7,309.9c0,0.5-0.2,0.9-0.5,1.2s-0.8,0.5-1.3,0.5h-4.3V309c0-0.7,0.2-1.1,0.7-1.4
		c-0.5-0.3-0.7-0.7-0.7-1.4v-1.7c0-0.4,0.1-0.7,0.4-1s0.6-0.4,1-0.4s0.7,0.1,1,0.4s0.4,0.6,0.4,1s-0.1,0.7-0.4,1s-0.6,0.4-1,0.4
		h-0.1v0.3c0,0.4,0.1,0.6,0.3,0.8s0.5,0.3,0.8,0.3v0.5c-0.3,0-0.6,0.1-0.8,0.3s-0.3,0.5-0.3,0.8v1.7h2.7c0.6,0,0.8-0.2,0.8-0.7v-6.7
		h1.3V309.9z M585,305.2c0.2,0,0.4-0.1,0.5-0.2s0.2-0.3,0.2-0.5c0-0.2-0.1-0.4-0.2-0.5s-0.3-0.2-0.5-0.2s-0.4,0.1-0.5,0.2
		s-0.2,0.3-0.2,0.5c0,0.2,0.1,0.3,0.2,0.5S584.8,305.2,585,305.2z"/>
	<path class="st5" d="M591,298.7c0,0.2-0.1,0.5-0.3,0.6s-0.5,0.3-1,0.5c-0.5,0.2-0.8,0.3-1,0.4c0.3,0,0.5,0.1,0.7,0.3
		s0.3,0.4,0.3,0.7c0,0.3-0.1,0.5-0.3,0.7s-0.4,0.3-0.7,0.3c-0.3,0-0.5-0.1-0.7-0.3c-0.2-0.2-0.3-0.5-0.3-0.8c0-0.8,0.5-1.3,1.4-1.6
		c0.5-0.2,0.8-0.3,1-0.4s0.2-0.2,0.2-0.4H591z M588.8,301.7c0.1,0,0.2,0,0.3-0.1c0.1-0.1,0.1-0.2,0.1-0.3s0-0.3-0.1-0.3
		c-0.1-0.1-0.2-0.1-0.3-0.1c-0.1,0-0.3,0-0.3,0.1s-0.1,0.2-0.1,0.3s0,0.2,0.1,0.3S588.7,301.7,588.8,301.7z"/>
</g>
<g class="st4">
	<path class="st5" d="M661,282.8c0,0.5-0.2,0.9-0.5,1.2c-0.4,0.3-0.8,0.5-1.3,0.5h-2c-0.5,0-0.9-0.2-1.3-0.5
		c-0.4-0.3-0.5-0.7-0.5-1.2v-2.9c0-0.4,0.1-0.7,0.4-1c0.3-0.3,0.6-0.4,1-0.4c0.4,0,0.7,0.1,1,0.4s0.4,0.6,0.4,1s-0.1,0.7-0.4,1
		s-0.6,0.4-1,0.4h-0.1v1.7c0,0.5,0.3,0.7,0.8,0.7h1.4c0.6,0,0.8-0.2,0.8-0.7v-4c0-0.6-0.2-1.1-0.7-1.4c-0.5-0.3-1-0.5-1.7-0.5
		c-0.5,0-1,0.1-1.5,0.3c-0.5,0.2-0.9,0.5-1.1,0.9l-0.6-0.5c0.4-0.5,0.8-0.8,1.4-1.1c0.6-0.3,1.2-0.4,1.8-0.4c1,0,1.8,0.3,2.5,0.8
		c0.7,0.5,1.1,1.2,1.1,2.1V282.8z M656.7,280.5c0.2,0,0.3-0.1,0.5-0.2c0.1-0.1,0.2-0.3,0.2-0.5s-0.1-0.4-0.2-0.5
		c-0.1-0.1-0.3-0.2-0.5-0.2c-0.2,0-0.4,0.1-0.5,0.2s-0.2,0.3-0.2,0.5s0.1,0.4,0.2,0.5S656.5,280.5,656.7,280.5z"/>
	<path class="st5" d="M669.4,284.5h-1.3v-0.4c-0.3-0.7-0.8-1.6-1.6-2.8c-0.8-1.1-1.3-1.7-1.7-1.7c-0.2,0-0.3,0.2-0.3,0.5v1.6h0.1
		c0.4,0,0.7,0.1,1,0.4c0.3,0.3,0.4,0.6,0.4,1s-0.1,0.7-0.4,1c-0.3,0.3-0.6,0.4-1,0.4s-0.7-0.1-1-0.4c-0.3-0.3-0.4-0.6-0.4-1v-3
		c0-1,0.4-1.6,1.3-1.6c0.3,0,0.7,0.1,1,0.4c0.3,0.3,0.8,0.9,1.5,1.8s1,1.5,1.1,1.7v-3.6c0-0.3-0.1-0.6-0.2-0.9
		c-0.6,0.2-1.1,0.4-1.7,0.4V278c0.4-0.1,0.8-0.3,1.3-0.6c-0.5-0.4-1-0.5-1.7-0.5c-0.5,0-1,0.1-1.5,0.3c-0.5,0.2-0.9,0.5-1.1,0.9
		l-0.6-0.5c0.4-0.5,0.8-0.8,1.4-1.1c0.6-0.3,1.2-0.4,1.8-0.4c0.9,0,1.7,0.2,2.4,0.7c0.3-0.3,0.5-0.7,0.7-1l0.9,0.6
		c-0.2,0.4-0.5,0.8-0.9,1.1c0.3,0.5,0.5,1,0.5,1.5V284.5z M664.5,283.8c0.2,0,0.4-0.1,0.5-0.2s0.2-0.3,0.2-0.5s-0.1-0.4-0.2-0.5
		s-0.3-0.2-0.5-0.2c-0.2,0-0.4,0.1-0.5,0.2s-0.2,0.3-0.2,0.5s0.1,0.4,0.2,0.5S664.3,283.8,664.5,283.8z"/>
	<path class="st5" d="M670.2,272.1c-0.1,1-0.6,1.7-1.3,2.2s-1.6,0.8-2.6,0.8c-0.7,0-1.2-0.2-1.6-0.5s-0.6-0.7-0.6-1.1
		c0-0.4,0.1-0.7,0.4-1s0.6-0.4,1-0.4s0.7,0.1,1,0.4s0.4,0.6,0.4,1c0,0.3-0.1,0.6-0.3,0.9c0.7,0,1.2-0.2,1.7-0.6s0.8-0.9,0.8-1.6
		H670.2z M665.6,274.1c0.2,0,0.4-0.1,0.5-0.2s0.2-0.3,0.2-0.5s-0.1-0.4-0.2-0.5s-0.3-0.2-0.5-0.2s-0.4,0.1-0.5,0.2s-0.2,0.3-0.2,0.5
		s0.1,0.4,0.2,0.5S665.4,274.1,665.6,274.1z"/>
	<path class="st5" d="M676.2,284.5h-1.3c-0.9-1.3-1.6-2.2-2.3-2.8c-0.7-0.6-1.4-0.9-2.3-0.9v-0.7c0.9,0,1.6,0.2,2.3,0.7
		c0.7,0.4,1.4,1.2,2.3,2.4v-4.4h-0.1c-0.4,0-0.7-0.1-1-0.4c-0.3-0.3-0.4-0.6-0.4-1s0.1-0.7,0.4-1c0.3-0.3,0.6-0.4,1-0.4
		c0.4,0,0.7,0.1,1,0.4s0.4,0.6,0.4,1V284.5z M674.8,278.1c0.2,0,0.3-0.1,0.5-0.2c0.1-0.1,0.2-0.3,0.2-0.5c0-0.2-0.1-0.4-0.2-0.5
		c-0.1-0.1-0.3-0.2-0.5-0.2c-0.2,0-0.4,0.1-0.5,0.2s-0.2,0.3-0.2,0.5c0,0.2,0.1,0.3,0.2,0.5S674.6,278.1,674.8,278.1z"/>
	<path class="st5" d="M685.9,284.5h-1.3v-4.6c0-0.4,0-0.6-0.1-0.7c-1.5,1.2-2.6,2.1-3.1,2.9s-0.9,1.6-0.9,2.3h-1.3v-5.7H679
		c-0.4,0-0.7-0.1-1-0.4c-0.3-0.3-0.4-0.6-0.4-1s0.1-0.7,0.4-1c0.3-0.3,0.6-0.4,1-0.4s0.7,0.1,1,0.4c0.3,0.3,0.4,0.6,0.4,1v4.8
		c0.4-0.9,1.5-2,3.5-3.5c-0.6-0.4-0.9-0.8-0.9-1.3c0-0.4,0.1-0.7,0.4-1c0.3-0.3,0.6-0.4,1-0.4s0.7,0.1,1,0.4c0.3,0.3,0.4,0.6,0.4,1
		c0,0.5-0.2,0.9-0.6,1.2c0.5,0.3,0.7,0.7,0.7,1.3V284.5z M679,278.1c0.2,0,0.4-0.1,0.5-0.2s0.2-0.3,0.2-0.5c0-0.2-0.1-0.4-0.2-0.5
		s-0.3-0.2-0.5-0.2c-0.2,0-0.4,0.1-0.5,0.2s-0.2,0.3-0.2,0.5c0,0.2,0.1,0.3,0.2,0.5S678.8,278.1,679,278.1z M684.5,278.3
		c0.4-0.3,0.6-0.6,0.6-0.9c0-0.2-0.1-0.4-0.2-0.5s-0.3-0.2-0.5-0.2c-0.2,0-0.4,0.1-0.5,0.2s-0.2,0.3-0.2,0.5
		C683.7,277.7,684,278,684.5,278.3z"/>
	<path class="st5" d="M692.6,284.5h-1.3v-5.6c0-1.3-0.6-2-1.7-2c-0.8,0-1.4,0.4-1.9,1.2l-0.6-0.5c0.7-1,1.6-1.5,2.6-1.5
		c0.9,0,1.6,0.3,2.2,0.8c0.5,0.5,0.8,1.2,0.8,2.1V284.5z"/>
	<path class="st5" d="M700.9,276.7c-0.4,0.5-0.8,0.7-1.4,0.7c-0.2,0-0.6-0.1-1.2-0.2s-0.9-0.2-1.1-0.2c-0.7,0-1.2,0.3-1.5,0.8
		c0.3-0.1,0.7-0.1,1.1-0.1c1.2,0,2.1,0.2,2.7,0.7c0.6,0.5,0.9,1.1,0.9,1.9v3c0,0.4-0.1,0.7-0.4,1s-0.6,0.4-1,0.4
		c-0.4,0-0.7-0.1-1-0.4s-0.4-0.6-0.4-1s0.1-0.7,0.4-1s0.6-0.4,1-0.4h0.1v-1.4c0-0.8-0.2-1.3-0.6-1.5c-0.4-0.3-1.1-0.4-2-0.4
		c-0.7,0-1.3,0.1-1.8,0.2c0-0.8,0.3-1.5,0.8-2c0.5-0.5,1.1-0.7,1.8-0.7c0.4,0,0.8,0.1,1.3,0.2c0.5,0.2,0.8,0.2,0.9,0.2
		c0.3,0,0.6-0.2,0.8-0.5L700.9,276.7z M699,283.8c0.2,0,0.3-0.1,0.5-0.2c0.1-0.1,0.2-0.3,0.2-0.5s-0.1-0.4-0.2-0.5
		c-0.1-0.1-0.3-0.2-0.5-0.2c-0.2,0-0.4,0.1-0.5,0.2c-0.1,0.1-0.2,0.3-0.2,0.5s0.1,0.4,0.2,0.5C698.6,283.8,698.8,283.8,699,283.8z"
		/>
	<path class="st5" d="M700.3,275h-6.2c0.5-1.7,1.5-2.5,3.1-2.5S699.9,273.4,700.3,275z M699.3,274.4c-0.4-0.8-1.1-1.2-2.1-1.2
		s-1.7,0.4-2.1,1.2H699.3z"/>
	<path class="st5" d="M709.7,284.5h-1.3c-0.9-1.8-2.2-2.7-3.8-2.9v1.4c0,1.1-0.5,1.6-1.6,1.6c-0.4,0-0.8-0.1-1-0.4
		c-0.3-0.3-0.4-0.7-0.4-1.1c0-0.5,0.1-0.9,0.4-1.3c0.3-0.4,0.7-0.6,1.2-0.8v-2.1h-0.1c-0.4,0-0.7-0.1-1-0.4c-0.3-0.3-0.4-0.6-0.4-1
		s0.1-0.7,0.4-1c0.3-0.3,0.6-0.4,1-0.4s0.7,0.1,1,0.4c0.3,0.3,0.4,0.6,0.4,1v3.5c1.4,0.2,2.7,0.9,3.8,2.2v-6.9h1.3V284.5z
		 M703.3,283.1v-1.5c-0.3,0.1-0.5,0.3-0.7,0.5c-0.2,0.3-0.3,0.6-0.3,0.9c0,0.3,0.1,0.5,0.2,0.6c0.1,0.2,0.2,0.2,0.4,0.2
		C703.1,283.8,703.3,283.6,703.3,283.1z M703.2,278.1c0.2,0,0.4-0.1,0.5-0.2s0.2-0.3,0.2-0.5c0-0.2-0.1-0.4-0.2-0.5
		s-0.3-0.2-0.5-0.2c-0.2,0-0.4,0.1-0.5,0.2s-0.2,0.3-0.2,0.5c0,0.2,0.1,0.3,0.2,0.5S703,278.1,703.2,278.1z"/>
	<path class="st5" d="M718.9,284.5h-1.3v-6.9c0-0.3-0.1-0.5-0.3-0.5c-0.1,0-0.2,0.1-0.4,0.3c-0.2,0.2-0.3,0.5-0.6,0.8
		c-0.2,0.4-0.5,0.9-0.7,1.5c-0.3,0.6-0.6,1.5-1.1,2.6c-0.4,1.2-0.6,1.8-0.6,2v0.2h-1.3v-5.7h-0.1c-0.4,0-0.7-0.1-1-0.4
		c-0.3-0.3-0.4-0.6-0.4-1s0.1-0.7,0.4-1c0.3-0.3,0.6-0.4,1-0.4s0.7,0.1,1,0.4c0.3,0.3,0.4,0.6,0.4,1v4.2c0.6-1.5,1.2-2.9,1.8-3.9
		s1.3-1.6,1.9-1.6c0.8,0,1.3,0.5,1.3,1.5V284.5z M712.5,278.1c0.2,0,0.4-0.1,0.5-0.2s0.2-0.3,0.2-0.5c0-0.2-0.1-0.4-0.2-0.5
		s-0.3-0.2-0.5-0.2c-0.2,0-0.4,0.1-0.5,0.2s-0.2,0.3-0.2,0.5c0,0.2,0.1,0.3,0.2,0.5S712.3,278.1,712.5,278.1z"/>
	<path class="st5" d="M727.1,276.7c-0.4,0.5-0.8,0.7-1.4,0.7c-0.2,0-0.6-0.1-1.2-0.2s-0.9-0.2-1.1-0.2c-0.7,0-1.2,0.3-1.5,0.8
		c0.3-0.1,0.7-0.1,1.1-0.1c1.2,0,2.1,0.2,2.7,0.7c0.6,0.5,0.9,1.1,0.9,1.9v3c0,0.4-0.1,0.7-0.4,1s-0.6,0.4-1,0.4
		c-0.4,0-0.7-0.1-1-0.4s-0.4-0.6-0.4-1s0.1-0.7,0.4-1s0.6-0.4,1-0.4h0.1v-1.4c0-0.8-0.2-1.3-0.6-1.5c-0.4-0.3-1.1-0.4-2-0.4
		c-0.7,0-1.3,0.1-1.8,0.2c0-0.8,0.3-1.5,0.8-2c0.5-0.5,1.1-0.7,1.8-0.7c0.4,0,0.8,0.1,1.3,0.2c0.5,0.2,0.8,0.2,0.9,0.2
		c0.3,0,0.6-0.2,0.8-0.5L727.1,276.7z M725.3,283.8c0.2,0,0.3-0.1,0.5-0.2c0.1-0.1,0.2-0.3,0.2-0.5s-0.1-0.4-0.2-0.5
		c-0.1-0.1-0.3-0.2-0.5-0.2c-0.2,0-0.4,0.1-0.5,0.2c-0.1,0.1-0.2,0.3-0.2,0.5s0.1,0.4,0.2,0.5C724.9,283.8,725.1,283.8,725.3,283.8z
		"/>
	<path class="st5" d="M727.5,272.1c-0.1,1-0.6,1.7-1.3,2.2s-1.6,0.8-2.6,0.8c-0.7,0-1.2-0.2-1.6-0.5s-0.6-0.7-0.6-1.1
		c0-0.4,0.1-0.7,0.4-1s0.6-0.4,1-0.4s0.7,0.1,1,0.4s0.4,0.6,0.4,1c0,0.3-0.1,0.6-0.3,0.9c0.7,0,1.2-0.2,1.7-0.6s0.8-0.9,0.8-1.6
		H727.5z M722.8,274.1c0.2,0,0.4-0.1,0.5-0.2s0.2-0.3,0.2-0.5s-0.1-0.4-0.2-0.5s-0.3-0.2-0.5-0.2s-0.4,0.1-0.5,0.2s-0.2,0.3-0.2,0.5
		s0.1,0.4,0.2,0.5S722.7,274.1,722.8,274.1z"/>
	<path class="st5" d="M737,284.5h-1.3c0-0.6-0.4-1.5-1.1-2.8s-1.2-2.4-1.3-3.2c-0.1,0.8-0.6,1.9-1.3,3.2s-1.1,2.2-1.1,2.8h-1.3v-5.7
		h-0.1c-0.4,0-0.7-0.1-1-0.4c-0.3-0.3-0.4-0.6-0.4-1s0.1-0.7,0.4-1c0.3-0.3,0.6-0.4,1-0.4s0.7,0.1,1,0.4c0.3,0.3,0.4,0.6,0.4,1v4.6
		c0.1-0.3,0.4-0.8,0.8-1.5c0.8-1.3,1.2-2.8,1.2-4.3h0.9c0,1.5,0.4,2.9,1.2,4.3c0.4,0.7,0.7,1.2,0.8,1.5v-5.8h1.3V284.5z
		 M729.5,278.1c0.2,0,0.4-0.1,0.5-0.2s0.2-0.3,0.2-0.5c0-0.2-0.1-0.4-0.2-0.5s-0.3-0.2-0.5-0.2c-0.2,0-0.4,0.1-0.5,0.2
		s-0.2,0.3-0.2,0.5c0,0.2,0.1,0.3,0.2,0.5S729.3,278.1,729.5,278.1z"/>
	<path class="st5" d="M745,282.8c0,0.5-0.2,0.9-0.5,1.2c-0.4,0.3-0.8,0.5-1.3,0.5h-4.3v-2.6c0-0.7,0.2-1.1,0.7-1.4
		c-0.5-0.3-0.7-0.7-0.7-1.4v-1.7c0-0.4,0.1-0.7,0.4-1c0.3-0.3,0.6-0.4,1-0.4s0.7,0.1,1,0.4c0.3,0.3,0.4,0.6,0.4,1s-0.1,0.7-0.4,1
		c-0.3,0.3-0.6,0.4-1,0.4h-0.1v0.3c0,0.4,0.1,0.6,0.3,0.8s0.5,0.3,0.8,0.3v0.5c-0.3,0-0.6,0.1-0.8,0.3s-0.3,0.5-0.3,0.8v1.7h2.7
		c0.6,0,0.8-0.2,0.8-0.7v-6.7h1.3V282.8z M740.3,278.1c0.2,0,0.4-0.1,0.5-0.2s0.2-0.3,0.2-0.5c0-0.2-0.1-0.4-0.2-0.5
		s-0.3-0.2-0.5-0.2c-0.2,0-0.4,0.1-0.5,0.2s-0.2,0.3-0.2,0.5c0,0.2,0.1,0.3,0.2,0.5S740.1,278.1,740.3,278.1z"/>
	<path class="st5" d="M746.3,271.6c0,0.2-0.1,0.5-0.3,0.6s-0.5,0.3-1,0.5s-0.8,0.3-1,0.4c0.3,0,0.5,0.1,0.7,0.3s0.3,0.4,0.3,0.7
		c0,0.3-0.1,0.5-0.3,0.7s-0.4,0.3-0.7,0.3c-0.3,0-0.5-0.1-0.7-0.3s-0.3-0.5-0.3-0.8c0-0.8,0.5-1.3,1.4-1.6c0.5-0.2,0.8-0.3,1-0.4
		s0.2-0.2,0.2-0.4H746.3z M744.1,274.6c0.1,0,0.2,0,0.3-0.1s0.1-0.2,0.1-0.3s0-0.3-0.1-0.3s-0.2-0.1-0.3-0.1s-0.3,0-0.3,0.1
		s-0.1,0.2-0.1,0.3s0,0.2,0.1,0.3S744,274.6,744.1,274.6z"/>
	<path class="st5" d="M748.3,281.8L748.3,281.8c0.4,0,0.8,0.1,1,0.4s0.4,0.6,0.4,1s-0.1,0.7-0.4,1s-0.6,0.4-1,0.4
		c-0.4,0-0.7-0.1-1-0.4s-0.4-0.6-0.4-1v-6.9h1.3V281.8z M748.4,283.8c0.2,0,0.4-0.1,0.5-0.2s0.2-0.3,0.2-0.5s-0.1-0.4-0.2-0.5
		s-0.3-0.2-0.5-0.2c-0.2,0-0.3,0.1-0.5,0.2c-0.1,0.1-0.2,0.3-0.2,0.5s0.1,0.4,0.2,0.5C748,283.8,748.2,283.8,748.4,283.8z"/>
	<path class="st5" d="M758.6,282.8c0,0.5-0.2,0.9-0.5,1.2c-0.4,0.3-0.8,0.5-1.3,0.5h-3.7v-0.9h0.8V280c0-0.3,0.1-0.6,0.4-1
		c0.3-0.3,0.4-0.7,0.4-1c0-0.4-0.1-0.7-0.4-1c-0.3-0.3-0.6-0.4-1-0.4c-0.2,0-0.4,0-0.7,0.1c0.7,0.2,1,0.7,1,1.3c0,0.4-0.1,0.7-0.4,1
		c-0.3,0.3-0.6,0.4-1,0.4s-0.7-0.1-1-0.4c-0.3-0.3-0.4-0.6-0.4-1c0-0.6,0.2-1.1,0.7-1.5c0.5-0.4,1-0.6,1.7-0.6
		c0.8,0,1.5,0.2,1.9,0.6c0.5,0.4,0.7,0.9,0.7,1.5c0,0.4-0.1,0.8-0.3,1.1c-0.2,0.4-0.3,0.6-0.3,0.8v3.6h1.3c0.6,0,0.8-0.2,0.8-0.7
		v-4.3c0-0.7-0.3-1-1-1.1v-0.5c0.9-0.2,1.4-0.8,1.5-1.8h1.4c-0.1,0.9-0.6,1.5-1.3,1.8c0.5,0.2,0.8,0.7,0.8,1.3V282.8z M752.2,278.9
		c0.2,0,0.4-0.1,0.5-0.2s0.2-0.3,0.2-0.5s-0.1-0.4-0.2-0.5s-0.3-0.2-0.5-0.2c-0.2,0-0.4,0.1-0.5,0.2s-0.2,0.3-0.2,0.5
		s0.1,0.4,0.2,0.5S752,278.9,752.2,278.9z"/>
	<path class="st5" d="M758.6,275h-6.2c0.5-1.7,1.5-2.5,3.1-2.5S758.1,273.4,758.6,275z M757.6,274.4c-0.4-0.8-1.1-1.2-2.1-1.2
		s-1.7,0.4-2.1,1.2H757.6z"/>
	<path class="st5" d="M765.4,284.5h-1.3c-0.9-1.3-1.6-2.2-2.3-2.8c-0.7-0.6-1.4-0.9-2.3-0.9v-0.7c0.9,0,1.6,0.2,2.3,0.7
		c0.7,0.4,1.4,1.2,2.3,2.4v-4.4H764c-0.4,0-0.7-0.1-1-0.4c-0.3-0.3-0.4-0.6-0.4-1s0.1-0.7,0.4-1c0.3-0.3,0.6-0.4,1-0.4
		c0.4,0,0.7,0.1,1,0.4s0.4,0.6,0.4,1V284.5z M764,278.1c0.2,0,0.3-0.1,0.5-0.2c0.1-0.1,0.2-0.3,0.2-0.5c0-0.2-0.1-0.4-0.2-0.5
		c-0.1-0.1-0.3-0.2-0.5-0.2c-0.2,0-0.4,0.1-0.5,0.2s-0.2,0.3-0.2,0.5c0,0.2,0.1,0.3,0.2,0.5S763.8,278.1,764,278.1z"/>
	<path class="st5" d="M775.8,284.5h-1.3c0-0.6-0.4-1.5-1.1-2.8s-1.2-2.4-1.3-3.2c-0.1,0.8-0.6,1.9-1.3,3.2s-1.1,2.2-1.1,2.8h-1.3
		v-5.7h-0.1c-0.4,0-0.7-0.1-1-0.4c-0.3-0.3-0.4-0.6-0.4-1s0.1-0.7,0.4-1c0.3-0.3,0.6-0.4,1-0.4s0.7,0.1,1,0.4c0.3,0.3,0.4,0.6,0.4,1
		v4.6c0.1-0.3,0.4-0.8,0.8-1.5c0.8-1.3,1.2-2.8,1.2-4.3h0.9c0,1.5,0.4,2.9,1.2,4.3c0.4,0.7,0.7,1.2,0.8,1.5v-5.8h1.3V284.5z
		 M768.3,278.1c0.2,0,0.4-0.1,0.5-0.2s0.2-0.3,0.2-0.5c0-0.2-0.1-0.4-0.2-0.5s-0.3-0.2-0.5-0.2c-0.2,0-0.4,0.1-0.5,0.2
		s-0.2,0.3-0.2,0.5c0,0.2,0.1,0.3,0.2,0.5S768.1,278.1,768.3,278.1z"/>
	<path class="st5" d="M782.5,284.5h-1.3v-5.6c0-1.3-0.6-2-1.7-2c-0.8,0-1.4,0.4-1.9,1.2l-0.6-0.5c0.7-1,1.6-1.5,2.6-1.5
		c0.9,0,1.6,0.3,2.2,0.8c0.5,0.5,0.8,1.2,0.8,2.1V284.5z"/>
	<path class="st5" d="M790.5,284.5h-1.3v-5.4c0-0.7-0.2-1.2-0.5-1.6c-0.3-0.4-0.8-0.6-1.4-0.6c-0.9,0-1.5,0.3-1.8,1
		c0.3,0.5,0.9,0.8,1.8,0.9v0.5c-0.3,0-0.6,0.1-0.8,0.3c-0.2,0.2-0.3,0.5-0.3,0.8v1.4h0.1c0.4,0,0.7,0.1,1,0.4s0.4,0.6,0.4,1
		s-0.1,0.7-0.4,1s-0.6,0.4-1,0.4c-0.4,0-0.7-0.1-1-0.4s-0.4-0.6-0.4-1v-2.8c0-0.6,0.2-1,0.7-1.3c-0.7-0.2-1.1-0.6-1.4-1.2
		c0.6-1.3,1.7-1.9,3.2-1.9c0.9,0,1.7,0.3,2.3,0.8c0.6,0.5,0.9,1.3,0.9,2.2v3.7c0.5-1,1.2-1.6,2.1-1.9v-4.7h1.3v4.7
		c0.5,0.1,0.9,0.4,1.2,0.8c0.3,0.4,0.5,0.8,0.5,1.3c0,0.5-0.1,0.8-0.4,1.1s-0.6,0.4-1,0.4c-1.1,0-1.6-0.5-1.6-1.6v-1.2
		c-0.3,0.1-0.7,0.4-1.2,0.9C791,283.1,790.7,283.8,790.5,284.5z M786.2,283.8c0.2,0,0.4-0.1,0.5-0.2c0.1-0.1,0.2-0.3,0.2-0.5
		s-0.1-0.4-0.2-0.5c-0.1-0.1-0.3-0.2-0.5-0.2c-0.2,0-0.3,0.1-0.5,0.2c-0.1,0.1-0.2,0.3-0.2,0.5s0.1,0.4,0.2,0.5
		C785.9,283.8,786,283.8,786.2,283.8z M794.9,283c0-0.3-0.1-0.6-0.3-0.8c-0.2-0.3-0.4-0.5-0.7-0.6v1.5c0,0.5,0.1,0.7,0.4,0.7
		C794.7,283.8,794.9,283.6,794.9,283z"/>
	<path class="st5" d="M794.9,275h-6.2c0.5-1.7,1.5-2.5,3.1-2.5S794.5,273.4,794.9,275z M793.9,274.4c-0.4-0.8-1.1-1.2-2.1-1.2
		s-1.7,0.4-2.1,1.2H793.9z"/>
	<path class="st5" d="M803.9,282.8c0,0.5-0.2,0.9-0.5,1.2c-0.4,0.3-0.8,0.5-1.3,0.5h-3.7v-0.9h0.8V280c0-0.3,0.1-0.6,0.4-1
		c0.3-0.3,0.4-0.7,0.4-1c0-0.4-0.1-0.7-0.4-1c-0.3-0.3-0.6-0.4-1-0.4c-0.2,0-0.4,0-0.7,0.1c0.7,0.2,1,0.7,1,1.3c0,0.4-0.1,0.7-0.4,1
		c-0.3,0.3-0.6,0.4-1,0.4s-0.7-0.1-1-0.4c-0.3-0.3-0.4-0.6-0.4-1c0-0.6,0.2-1.1,0.7-1.5c0.5-0.4,1-0.6,1.7-0.6
		c0.8,0,1.5,0.2,1.9,0.6c0.5,0.4,0.7,0.9,0.7,1.5c0,0.4-0.1,0.8-0.3,1.1c-0.2,0.4-0.3,0.6-0.3,0.8v3.6h1.3c0.6,0,0.8-0.2,0.8-0.7
		v-4.3c0-0.7-0.3-1-1-1.1v-0.5c0.9-0.2,1.4-0.8,1.5-1.8h1.4c-0.1,0.9-0.6,1.5-1.3,1.8c0.5,0.2,0.8,0.7,0.8,1.3V282.8z M797.5,278.9
		c0.2,0,0.4-0.1,0.5-0.2s0.2-0.3,0.2-0.5s-0.1-0.4-0.2-0.5s-0.3-0.2-0.5-0.2c-0.2,0-0.4,0.1-0.5,0.2s-0.2,0.3-0.2,0.5
		s0.1,0.4,0.2,0.5S797.3,278.9,797.5,278.9z"/>
	<path class="st5" d="M811.9,282.8c0,0.5-0.2,0.9-0.5,1.2c-0.4,0.3-0.8,0.5-1.3,0.5h-4.3v-2.6c0-0.7,0.2-1.1,0.7-1.4
		c-0.5-0.3-0.7-0.7-0.7-1.4v-1.7c0-0.4,0.1-0.7,0.4-1c0.3-0.3,0.6-0.4,1-0.4s0.7,0.1,1,0.4c0.3,0.3,0.4,0.6,0.4,1s-0.1,0.7-0.4,1
		c-0.3,0.3-0.6,0.4-1,0.4h-0.1v0.3c0,0.4,0.1,0.6,0.3,0.8s0.5,0.3,0.8,0.3v0.5c-0.3,0-0.6,0.1-0.8,0.3s-0.3,0.5-0.3,0.8v1.7h2.7
		c0.6,0,0.8-0.2,0.8-0.7v-6.7h1.3V282.8z M807.2,278.1c0.2,0,0.4-0.1,0.5-0.2s0.2-0.3,0.2-0.5c0-0.2-0.1-0.4-0.2-0.5
		s-0.3-0.2-0.5-0.2c-0.2,0-0.4,0.1-0.5,0.2s-0.2,0.3-0.2,0.5c0,0.2,0.1,0.3,0.2,0.5S807,278.1,807.2,278.1z"/>
	<path class="st5" d="M813.2,271.6c0,0.2-0.1,0.5-0.3,0.6s-0.5,0.3-1,0.5s-0.8,0.3-1,0.4c0.3,0,0.5,0.1,0.7,0.3s0.3,0.4,0.3,0.7
		c0,0.3-0.1,0.5-0.3,0.7s-0.4,0.3-0.7,0.3c-0.3,0-0.5-0.1-0.7-0.3s-0.3-0.5-0.3-0.8c0-0.8,0.5-1.3,1.4-1.6c0.5-0.2,0.8-0.3,1-0.4
		s0.2-0.2,0.2-0.4H813.2z M811,274.6c0.1,0,0.2,0,0.3-0.1s0.1-0.2,0.1-0.3s0-0.3-0.1-0.3s-0.2-0.1-0.3-0.1s-0.3,0-0.3,0.1
		s-0.1,0.2-0.1,0.3s0,0.2,0.1,0.3S810.8,274.6,811,274.6z"/>
</g>
</svg>
