<?xml version="1.0" encoding="utf-8"?>
<!-- Generator: Adobe Illustrator 22.1.0, SVG Export Plug-In . SVG Version: 6.00 Build 0)  -->
<svg version="1.1" id="组_2" xmlns="http://www.w3.org/2000/svg" xmlns:xlink="http://www.w3.org/1999/xlink" x="0px" y="0px"
	 viewBox="0 0 678 253" style="enable-background:new 0 0 678 253;" xml:space="preserve">
<style type="text/css">
	.st0{enable-background:new    ;}
	.st1{fill:#D6D6D6;}
	.st2{fill:#0E0E0E;}
	.st3{fill:#0EAFA0;}
	.st4{fill:#CDBB78;}
	.st5{fill:#EC632F;}
</style>
<g id="_2.0_" class="st0">
	<path d="M13.6,187.6c0-0.6-0.2-1-0.5-1.4c-0.4-0.3-0.9-0.5-1.5-0.5c-0.4,0-0.9,0.1-1.3,0.3c-0.5,0.2-0.9,0.5-1.3,1v-1.3
		c0.3-0.4,0.7-0.6,1.2-0.8c0.4-0.2,1-0.3,1.6-0.3c1,0,1.7,0.3,2.3,0.8s0.9,1.2,0.9,2.1c0,0.8-0.2,1.5-0.5,2c-0.4,0.6-1,1.2-1.9,1.8
		s-1.5,1.1-1.8,1.3c-0.3,0.3-0.5,0.5-0.6,0.8c-0.1,0.2-0.2,0.5-0.2,0.9h5.3v1.2H8.6V195c0-0.6,0.1-1.1,0.3-1.6
		c0.2-0.4,0.4-0.8,0.8-1.3c0.4-0.4,1-0.9,1.8-1.5s1.4-1.1,1.7-1.5C13.5,188.7,13.6,188.2,13.6,187.6z"/>
	<path d="M16.9,194.8c0-0.2,0.1-0.5,0.3-0.6c0.2-0.2,0.4-0.3,0.6-0.3c0.3,0,0.5,0.1,0.6,0.3c0.2,0.2,0.3,0.4,0.3,0.6
		c0,0.2-0.1,0.4-0.3,0.6c-0.2,0.2-0.4,0.3-0.6,0.3c-0.3,0-0.5-0.1-0.6-0.3C16.9,195.2,16.9,195,16.9,194.8z"/>
	<path d="M20.1,190.4c0-1.9,0.3-3.3,0.9-4.3s1.5-1.5,2.7-1.5c2.3,0,3.4,1.8,3.4,5.5c0,1.8-0.3,3.2-1,4.1c-0.6,1-1.5,1.4-2.7,1.4
		c-1.1,0-1.9-0.5-2.5-1.4C20.4,193.4,20.1,192.1,20.1,190.4z M21.4,190.3c0,2.8,0.7,4.3,2.2,4.3c1.4,0,2.1-1.4,2.1-4.3
		c0-3-0.7-4.5-2.1-4.5S21.4,187.3,21.4,190.3z"/>
	<path d="M28.3,187.5c0-0.9,0.2-1.6,0.7-2.1s1.1-0.8,1.9-0.8s1.4,0.2,1.8,0.7s0.6,1.1,0.6,2c0,0.8-0.2,1.5-0.7,2s-1.1,0.8-1.9,0.8
		c-0.7,0-1.3-0.2-1.8-0.7C28.5,189,28.3,188.3,28.3,187.5z M29.4,187.4c0,0.6,0.1,1.1,0.4,1.4c0.3,0.3,0.6,0.5,1.1,0.5
		s0.8-0.2,1.1-0.5c0.3-0.3,0.4-0.8,0.4-1.4c0-0.6-0.1-1.1-0.4-1.4c-0.2-0.3-0.6-0.5-1-0.5c-0.5,0-0.8,0.2-1.1,0.5
		C29.5,186.4,29.4,186.8,29.4,187.4z M38,184.8l-6.9,10.8H30l6.9-10.8H38z M34.7,193c0-0.9,0.2-1.6,0.7-2.1s1.1-0.8,1.9-0.8
		c0.8,0,1.3,0.2,1.8,0.7c0.4,0.5,0.6,1.1,0.6,2c0,0.8-0.2,1.5-0.7,2s-1.1,0.8-1.9,0.8c-0.7,0-1.3-0.2-1.8-0.7
		C34.9,194.4,34.7,193.8,34.7,193z M35.8,192.9c0,0.6,0.1,1,0.4,1.4c0.3,0.3,0.6,0.5,1.1,0.5s0.8-0.2,1.1-0.5s0.4-0.8,0.4-1.4
		c0-0.6-0.1-1.1-0.4-1.4c-0.3-0.3-0.6-0.5-1-0.5c-0.5,0-0.8,0.2-1.1,0.5C35.9,191.9,35.8,192.3,35.8,192.9z"/>
</g>
<g id="_4.0_" class="st0">
	<path d="M14.2,157.2v7.1h1.6v1.1h-1.6v2.5h-1.3v-2.5h-5v-1.1c0.9-1,1.8-2.1,2.7-3.4c0.9-1.3,1.6-2.5,2.2-3.7L14.2,157.2L14.2,157.2
		z M9.4,164.3h3.5v-5.1c-0.5,0.9-1,1.7-1.5,2.5C10.8,162.5,10.1,163.3,9.4,164.3z"/>
	<path d="M16.9,167.2c0-0.2,0.1-0.5,0.3-0.6c0.2-0.2,0.4-0.3,0.6-0.3c0.3,0,0.5,0.1,0.6,0.3c0.2,0.2,0.3,0.4,0.3,0.6
		c0,0.2-0.1,0.4-0.3,0.6c-0.2,0.2-0.4,0.3-0.6,0.3c-0.3,0-0.5-0.1-0.6-0.3C16.9,167.6,16.9,167.4,16.9,167.2z"/>
	<path d="M20.1,162.8c0-1.9,0.3-3.3,0.9-4.3s1.5-1.5,2.7-1.5c2.3,0,3.4,1.8,3.4,5.5c0,1.8-0.3,3.2-1,4.1c-0.6,1-1.5,1.4-2.7,1.4
		c-1.1,0-1.9-0.5-2.5-1.4C20.4,165.8,20.1,164.5,20.1,162.8z M21.4,162.7c0,2.8,0.7,4.3,2.2,4.3c1.4,0,2.1-1.4,2.1-4.3
		c0-3-0.7-4.5-2.1-4.5S21.4,159.7,21.4,162.7z"/>
	<path d="M28.3,159.9c0-0.9,0.2-1.6,0.7-2.1s1.1-0.8,1.9-0.8s1.4,0.2,1.8,0.7s0.6,1.1,0.6,2c0,0.8-0.2,1.5-0.7,2s-1.1,0.8-1.9,0.8
		c-0.7,0-1.3-0.2-1.8-0.7C28.5,161.4,28.3,160.7,28.3,159.9z M29.4,159.8c0,0.6,0.1,1.1,0.4,1.4c0.3,0.3,0.6,0.5,1.1,0.5
		s0.8-0.2,1.1-0.5c0.3-0.3,0.4-0.8,0.4-1.4c0-0.6-0.1-1.1-0.4-1.4c-0.2-0.3-0.6-0.5-1-0.5c-0.5,0-0.8,0.2-1.1,0.5
		C29.5,158.8,29.4,159.2,29.4,159.8z M38,157.2L31.1,168H30l6.9-10.8H38z M34.7,165.4c0-0.9,0.2-1.6,0.7-2.1s1.1-0.8,1.9-0.8
		c0.8,0,1.3,0.2,1.8,0.7c0.4,0.5,0.6,1.1,0.6,2c0,0.8-0.2,1.5-0.7,2s-1.1,0.8-1.9,0.8c-0.7,0-1.3-0.2-1.8-0.7
		C34.9,166.8,34.7,166.2,34.7,165.4z M35.8,165.3c0,0.6,0.1,1,0.4,1.4c0.3,0.3,0.6,0.5,1.1,0.5s0.8-0.2,1.1-0.5s0.4-0.8,0.4-1.4
		c0-0.6-0.1-1.1-0.4-1.4c-0.3-0.3-0.6-0.5-1-0.5c-0.5,0-0.8,0.2-1.1,0.5C35.9,164.3,35.8,164.7,35.8,165.3z"/>
</g>
<g id="_6.0_" class="st0">
	<path d="M14.8,128.4c-0.6-0.3-1.1-0.4-1.7-0.4c-0.9,0-1.7,0.4-2.2,1.2c-0.6,0.8-0.8,1.9-0.9,3.3l0,0c0.5-1,1.3-1.5,2.4-1.5
		c0.9,0,1.7,0.3,2.2,0.9s0.8,1.4,0.8,2.4s-0.3,1.9-1,2.6c-0.6,0.7-1.4,1-2.4,1c-1.1,0-1.9-0.4-2.6-1.3c-0.6-0.8-0.9-2.1-0.9-3.6
		c0-1.9,0.4-3.4,1.2-4.5c0.8-1.1,1.9-1.7,3.2-1.7c0.8,0,1.4,0.1,1.8,0.3L14.8,128.4L14.8,128.4z M10,134.2c0,0.7,0.2,1.3,0.6,1.8
		c0.4,0.5,0.9,0.8,1.5,0.8s1.1-0.2,1.4-0.6c0.4-0.4,0.6-1,0.6-1.7s-0.2-1.3-0.5-1.7s-0.8-0.6-1.5-0.6c-0.6,0-1.1,0.2-1.5,0.6
		C10.2,133.2,10,133.7,10,134.2z"/>
	<path d="M16.9,137c0-0.2,0.1-0.5,0.3-0.6c0.2-0.2,0.4-0.3,0.6-0.3c0.3,0,0.5,0.1,0.6,0.3c0.2,0.2,0.3,0.4,0.3,0.6
		c0,0.2-0.1,0.4-0.3,0.6c-0.2,0.2-0.4,0.3-0.6,0.3c-0.3,0-0.5-0.1-0.6-0.3C16.9,137.4,16.9,137.2,16.9,137z"/>
	<path d="M20.1,132.6c0-1.9,0.3-3.3,0.9-4.3s1.5-1.5,2.7-1.5c2.3,0,3.4,1.8,3.4,5.5c0,1.8-0.3,3.2-1,4.1c-0.6,1-1.5,1.4-2.7,1.4
		c-1.1,0-1.9-0.5-2.5-1.4C20.4,135.6,20.1,134.3,20.1,132.6z M21.4,132.5c0,2.8,0.7,4.3,2.2,4.3c1.4,0,2.1-1.4,2.1-4.3
		c0-3-0.7-4.5-2.1-4.5S21.4,129.5,21.4,132.5z"/>
	<path d="M28.3,129.7c0-0.9,0.2-1.6,0.7-2.1c0.5-0.5,1.1-0.8,1.9-0.8s1.4,0.2,1.8,0.7s0.6,1.1,0.6,2c0,0.8-0.2,1.5-0.7,2
		s-1.1,0.8-1.9,0.8c-0.7,0-1.3-0.2-1.8-0.7C28.5,131.2,28.3,130.5,28.3,129.7z M29.4,129.7c0,0.6,0.1,1.1,0.4,1.4
		c0.3,0.3,0.6,0.5,1.1,0.5s0.8-0.2,1.1-0.5c0.3-0.3,0.4-0.8,0.4-1.4c0-0.6-0.1-1.1-0.4-1.4c-0.2-0.3-0.6-0.5-1-0.5
		c-0.5,0-0.8,0.2-1.1,0.5C29.5,128.6,29.4,129.1,29.4,129.7z M38,127l-6.9,10.8H30l6.9-10.8H38z M34.7,135.2c0-0.9,0.2-1.6,0.7-2.1
		s1.1-0.8,1.9-0.8c0.8,0,1.3,0.2,1.8,0.7c0.4,0.5,0.6,1.1,0.6,2c0,0.8-0.2,1.5-0.7,2s-1.1,0.8-1.9,0.8c-0.7,0-1.3-0.2-1.8-0.7
		C34.9,136.6,34.7,136,34.7,135.2z M35.8,135.1c0,0.6,0.1,1,0.4,1.4c0.3,0.3,0.6,0.5,1.1,0.5s0.8-0.2,1.1-0.5s0.4-0.8,0.4-1.4
		c0-0.6-0.1-1.1-0.4-1.4c-0.3-0.3-0.6-0.5-1-0.5c-0.5,0-0.8,0.2-1.1,0.5C35.9,134.1,35.8,134.5,35.8,135.1z"/>
</g>
<g id="_8.0_" class="st0">
	<path d="M8.4,102c0-0.6,0.2-1.2,0.6-1.7c0.4-0.5,0.8-0.9,1.4-1.1c-0.5-0.3-0.8-0.6-1.1-1s-0.4-0.9-0.4-1.3c0-0.5,0.1-1,0.4-1.4
		c0.3-0.4,0.6-0.7,1.1-1c0.5-0.2,1-0.4,1.5-0.4c0.6,0,1.1,0.1,1.5,0.4c0.5,0.2,0.8,0.6,1.1,1s0.4,0.9,0.4,1.4s-0.1,0.9-0.4,1.3
		c-0.3,0.4-0.6,0.8-1.1,1c0.6,0.2,1.1,0.6,1.4,1.1c0.4,0.5,0.5,1.1,0.5,1.7s-0.1,1.2-0.4,1.6c-0.3,0.5-0.7,0.9-1.2,1.1
		c-0.5,0.3-1.1,0.4-1.8,0.4s-1.3-0.1-1.8-0.4s-0.9-0.6-1.2-1.1C8.6,103.1,8.4,102.6,8.4,102z M9.8,101.9c0,0.6,0.2,1.1,0.6,1.5
		c0.4,0.4,0.9,0.6,1.6,0.6c0.6,0,1.2-0.2,1.6-0.6c0.4-0.4,0.6-0.9,0.6-1.5s-0.2-1.1-0.6-1.5c-0.4-0.4-0.9-0.6-1.5-0.6
		s-1.1,0.2-1.5,0.6C10,100.8,9.8,101.3,9.8,101.9z M10.1,96.9c0,0.5,0.2,0.9,0.5,1.2c0.3,0.3,0.8,0.5,1.2,0.5c0.5,0,0.9-0.2,1.3-0.5
		s0.5-0.8,0.5-1.2c0-0.5-0.2-0.9-0.5-1.2s-0.8-0.5-1.3-0.5s-0.9,0.2-1.3,0.5C10.3,96,10.1,96.5,10.1,96.9z"/>
	<path d="M16.9,104.3c0-0.2,0.1-0.5,0.3-0.6c0.2-0.2,0.4-0.3,0.6-0.3c0.3,0,0.5,0.1,0.6,0.3c0.2,0.2,0.3,0.4,0.3,0.6
		s-0.1,0.4-0.3,0.6c-0.2,0.2-0.4,0.3-0.6,0.3c-0.3,0-0.5-0.1-0.6-0.3C16.9,104.7,16.9,104.5,16.9,104.3z"/>
	<path d="M20.1,99.8c0-1.9,0.3-3.3,0.9-4.3s1.5-1.5,2.7-1.5c2.3,0,3.4,1.8,3.4,5.5c0,1.8-0.3,3.2-1,4.1c-0.6,1-1.5,1.4-2.7,1.4
		c-1.1,0-1.9-0.5-2.5-1.4C20.4,102.9,20.1,101.6,20.1,99.8z M21.4,99.8c0,2.8,0.7,4.3,2.2,4.3c1.4,0,2.1-1.4,2.1-4.3
		c0-3-0.7-4.5-2.1-4.5C22.2,95.2,21.4,96.7,21.4,99.8z"/>
	<path d="M28.3,97c0-0.9,0.2-1.6,0.7-2.1s1.1-0.8,1.9-0.8s1.4,0.2,1.8,0.7s0.6,1.1,0.6,2c0,0.8-0.2,1.5-0.7,2s-1.1,0.8-1.9,0.8
		c-0.7,0-1.3-0.2-1.8-0.7C28.5,98.4,28.3,97.8,28.3,97z M29.4,96.9c0,0.6,0.1,1.1,0.4,1.4s0.6,0.5,1.1,0.5s0.8-0.2,1.1-0.5
		c0.3-0.3,0.4-0.8,0.4-1.4s-0.1-1.1-0.4-1.4c-0.2-0.3-0.6-0.5-1-0.5c-0.5,0-0.8,0.2-1.1,0.5C29.5,95.8,29.4,96.3,29.4,96.9z
		 M38,94.3L31.1,105H30l6.9-10.8H38V94.3z M34.7,102.5c0-0.9,0.2-1.6,0.7-2.1s1.1-0.8,1.9-0.8c0.8,0,1.3,0.2,1.8,0.7
		c0.4,0.5,0.6,1.1,0.6,2c0,0.8-0.2,1.5-0.7,2s-1.1,0.8-1.9,0.8c-0.7,0-1.3-0.2-1.8-0.7C34.9,103.9,34.7,103.3,34.7,102.5z
		 M35.8,102.4c0,0.6,0.1,1,0.4,1.4c0.3,0.3,0.6,0.5,1.1,0.5s0.8-0.2,1.1-0.5s0.4-0.8,0.4-1.4s-0.1-1.1-0.4-1.4
		c-0.3-0.3-0.6-0.5-1-0.5c-0.5,0-0.8,0.2-1.1,0.5C35.9,101.3,35.8,101.8,35.8,102.4z"/>
</g>
<g id="_10.0_" class="st0">
	<path d="M4.3,72.2v-9.1c-0.2,0.2-0.6,0.4-1.1,0.7s-1,0.4-1.4,0.6V63c0.6-0.2,1.2-0.4,1.8-0.7s1.1-0.7,1.5-1h0.5v10.9H4.3z"/>
	<path d="M9.3,67.1c0-1.9,0.3-3.3,0.9-4.3c0.6-1,1.5-1.5,2.7-1.5c2.3,0,3.4,1.8,3.4,5.5c0,1.8-0.3,3.2-1,4.1c-0.6,1-1.5,1.4-2.7,1.4
		c-1.1,0-1.9-0.5-2.5-1.4C9.6,70.1,9.3,68.8,9.3,67.1z M10.7,67c0,2.8,0.7,4.3,2.2,4.3c1.4,0,2.1-1.4,2.1-4.3c0-3-0.7-4.5-2.1-4.5
		C11.4,62.5,10.7,64,10.7,67z"/>
	<path d="M17.8,71.5c0-0.2,0.1-0.5,0.3-0.6c0.2-0.2,0.4-0.3,0.6-0.3c0.3,0,0.5,0.1,0.6,0.3c0.2,0.2,0.3,0.4,0.3,0.6
		s-0.1,0.4-0.3,0.6c-0.2,0.2-0.4,0.3-0.6,0.3c-0.3,0-0.5-0.1-0.6-0.3C17.9,72,17.8,71.8,17.8,71.5z"/>
	<path d="M21,67.1c0-1.9,0.3-3.3,0.9-4.3s1.5-1.5,2.7-1.5c2.3,0,3.4,1.8,3.4,5.5c0,1.8-0.3,3.2-1,4.1c-0.6,1-1.5,1.4-2.7,1.4
		c-1.1,0-1.9-0.5-2.5-1.4C21.3,70.1,21,68.8,21,67.1z M22.4,67c0,2.8,0.7,4.3,2.2,4.3c1.4,0,2.1-1.4,2.1-4.3c0-3-0.7-4.5-2.1-4.5
		C23.1,62.5,22.4,64,22.4,67z"/>
	<path d="M29.3,64.2c0-0.9,0.2-1.6,0.7-2.1s1.1-0.8,1.9-0.8c0.8,0,1.4,0.2,1.8,0.7s0.6,1.1,0.6,2c0,0.8-0.2,1.5-0.7,2
		s-1.1,0.8-1.9,0.8c-0.7,0-1.3-0.2-1.8-0.7C29.5,65.7,29.3,65,29.3,64.2z M30.3,64.2c0,0.6,0.1,1.1,0.4,1.4s0.6,0.5,1.1,0.5
		s0.8-0.2,1.1-0.5s0.4-0.8,0.4-1.4s-0.1-1.1-0.4-1.4c-0.2-0.3-0.6-0.5-1-0.5c-0.5,0-0.8,0.2-1.1,0.5C30.5,63.1,30.3,63.6,30.3,64.2z
		 M38.9,61.5L32,72.3h-1.2l6.9-10.8C37.7,61.5,38.9,61.5,38.9,61.5z M35.7,69.7c0-0.9,0.2-1.6,0.7-2.1s1.1-0.8,1.9-0.8
		c0.8,0,1.3,0.2,1.8,0.7c0.4,0.5,0.6,1.1,0.6,2c0,0.8-0.2,1.5-0.7,2s-1.1,0.8-1.9,0.8c-0.7,0-1.3-0.2-1.8-0.7
		C35.9,71.2,35.7,70.5,35.7,69.7z M36.7,69.7c0,0.6,0.1,1,0.4,1.4c0.3,0.3,0.6,0.5,1.1,0.5s0.8-0.2,1.1-0.5s0.4-0.8,0.4-1.4
		s-0.1-1.1-0.4-1.4c-0.3-0.3-0.6-0.5-1-0.5c-0.5,0-0.8,0.2-1.1,0.5C36.8,68.6,36.7,69.1,36.7,69.7z"/>
</g>
<g id="_12.0_" class="st0">
	<path d="M4.3,41.4v-9.1c-0.2,0.2-0.6,0.4-1.1,0.7s-1,0.4-1.4,0.6v-1.3c0.6-0.2,1.2-0.4,1.8-0.7c0.6-0.3,1.1-0.7,1.5-1h0.5v10.9
		L4.3,41.4L4.3,41.4z"/>
	<path d="M14.6,33.5c0-0.6-0.2-1-0.5-1.4c-0.4-0.3-0.9-0.5-1.5-0.5c-0.4,0-0.9,0.1-1.3,0.3c-0.5,0.2-0.9,0.5-1.3,1v-1.3
		c0.3-0.4,0.7-0.6,1.2-0.8c0.4-0.2,1-0.3,1.6-0.3c1,0,1.7,0.3,2.3,0.8s0.9,1.2,0.9,2.1c0,0.8-0.2,1.5-0.5,2c-0.4,0.6-1,1.2-1.9,1.8
		s-1.5,1.1-1.8,1.3c-0.3,0.3-0.5,0.5-0.6,0.8c-0.1,0.2-0.2,0.5-0.2,0.9h5.3v1.2H9.5v-0.5c0-0.6,0.1-1.1,0.3-1.6
		c0.2-0.4,0.4-0.8,0.8-1.3c0.4-0.4,1-0.9,1.8-1.5s1.4-1.1,1.7-1.5C14.4,34.6,14.6,34.1,14.6,33.5z"/>
	<path d="M17.8,40.7c0-0.2,0.1-0.5,0.3-0.6c0.2-0.2,0.4-0.3,0.6-0.3c0.3,0,0.5,0.1,0.6,0.3c0.2,0.2,0.3,0.4,0.3,0.6
		c0,0.2-0.1,0.4-0.3,0.6c-0.2,0.2-0.4,0.3-0.6,0.3c-0.3,0-0.5-0.1-0.6-0.3C17.9,41.1,17.8,40.9,17.8,40.7z"/>
	<path d="M21,36.3c0-1.9,0.3-3.3,0.9-4.3s1.5-1.5,2.7-1.5c2.3,0,3.4,1.8,3.4,5.5c0,1.8-0.3,3.2-1,4.1c-0.6,1-1.5,1.4-2.7,1.4
		c-1.1,0-1.9-0.5-2.5-1.4C21.3,39.3,21,38,21,36.3z M22.4,36.2c0,2.8,0.7,4.3,2.2,4.3c1.4,0,2.1-1.4,2.1-4.3c0-3-0.7-4.5-2.1-4.5
		C23.1,31.7,22.4,33.2,22.4,36.2z"/>
	<path d="M29.3,33.4c0-0.9,0.2-1.6,0.7-2.1s1.1-0.8,1.9-0.8c0.8,0,1.4,0.2,1.8,0.7s0.6,1.1,0.6,2c0,0.8-0.2,1.5-0.7,2
		S32.5,36,31.7,36c-0.7,0-1.3-0.2-1.8-0.7C29.5,34.9,29.3,34.2,29.3,33.4z M30.3,33.4c0,0.6,0.1,1.1,0.4,1.4
		c0.3,0.3,0.6,0.5,1.1,0.5s0.8-0.2,1.1-0.5s0.4-0.8,0.4-1.4c0-0.6-0.1-1.1-0.4-1.4c-0.2-0.3-0.6-0.5-1-0.5c-0.5,0-0.8,0.2-1.1,0.5
		C30.5,32.3,30.3,32.7,30.3,33.4z M38.9,30.7L32,41.5h-1.2l6.9-10.8H38.9z M35.7,38.9c0-0.9,0.2-1.6,0.7-2.1s1.1-0.8,1.9-0.8
		c0.8,0,1.3,0.2,1.8,0.7c0.4,0.5,0.6,1.1,0.6,2c0,0.8-0.2,1.5-0.7,2s-1.1,0.8-1.9,0.8c-0.7,0-1.3-0.2-1.8-0.7
		C35.9,40.3,35.7,39.7,35.7,38.9z M36.7,38.8c0,0.6,0.1,1,0.4,1.4c0.3,0.3,0.6,0.5,1.1,0.5s0.8-0.2,1.1-0.5s0.4-0.8,0.4-1.4
		c0-0.6-0.1-1.1-0.4-1.4c-0.3-0.3-0.6-0.5-1-0.5c-0.5,0-0.8,0.2-1.1,0.5C36.8,37.8,36.7,38.2,36.7,38.8z"/>
</g>
<g id="线">
	<rect id="矩形_863_拷贝_2" x="47.3" y="194.8" class="st1" width="136.1" height="1.3"/>
	<rect id="矩形_863_拷贝_3" x="47.3" y="162" class="st1" width="136.1" height="1.3"/>
	<rect id="矩形_863_拷贝_4" x="47.3" y="129.3" class="st1" width="136.1" height="1.3"/>
	<rect id="矩形_863_拷贝_5" x="47.3" y="97.2" class="st1" width="136.1" height="1.3"/>
	<rect id="矩形_863_拷贝_5-2" x="47.3" y="64.5" class="st1" width="136.1" height="1.3"/>
	<rect id="矩形_863_拷贝_5-3" x="47.3" y="31.7" class="st1" width="136.1" height="1.3"/>
	<rect id="矩形_863" x="47.3" y="29.8" class="st2" width="1.3" height="200.3"/>
</g>
<rect id="矩形_864" x="67.2" y="64.5" class="st3" width="29.5" height="164.4"/>
<rect id="矩形_864_拷贝" x="96.7" y="129.3" class="st4" width="29.5" height="99.5"/>
<rect id="矩形_864_拷贝_2" x="126.2" y="184.5" class="st5" width="29.5" height="44.3"/>
<rect id="矩形_863_拷贝" x="47.3" y="228.8" class="st2" width="136.1" height="1.3"/>
<g id="_2">
	<g id="_2.0_2" class="st0">
		<path d="M215.7,187.6c0-0.6-0.2-1-0.5-1.4c-0.4-0.3-0.9-0.5-1.5-0.5c-0.4,0-0.9,0.1-1.3,0.3c-0.5,0.2-0.9,0.5-1.3,1v-1.3
			c0.3-0.4,0.7-0.6,1.2-0.8c0.4-0.2,1-0.3,1.6-0.3c1,0,1.7,0.3,2.3,0.8s0.9,1.2,0.9,2.1c0,0.8-0.2,1.5-0.5,2c-0.4,0.6-1,1.2-1.9,1.8
			s-1.5,1.1-1.8,1.3c-0.3,0.3-0.5,0.5-0.6,0.8c-0.1,0.2-0.2,0.5-0.2,0.9h5.3v1.2h-6.7V195c0-0.6,0.1-1.1,0.3-1.6
			c0.2-0.4,0.4-0.8,0.8-1.3c0.4-0.4,1-0.9,1.8-1.5s1.4-1.1,1.7-1.5S215.7,188.2,215.7,187.6z"/>
		<path d="M219,194.8c0-0.2,0.1-0.5,0.3-0.6c0.2-0.2,0.4-0.3,0.6-0.3c0.3,0,0.5,0.1,0.6,0.3c0.2,0.2,0.3,0.4,0.3,0.6
			c0,0.2-0.1,0.4-0.3,0.6c-0.2,0.2-0.4,0.3-0.6,0.3c-0.3,0-0.5-0.1-0.6-0.3C219.1,195.2,219,195,219,194.8z"/>
		<path d="M222.2,190.4c0-1.9,0.3-3.3,0.9-4.3c0.6-1,1.5-1.5,2.7-1.5c2.3,0,3.4,1.8,3.4,5.5c0,1.8-0.3,3.2-1,4.1
			c-0.6,1-1.5,1.4-2.7,1.4c-1.1,0-1.9-0.5-2.5-1.4C222.5,193.4,222.2,192.1,222.2,190.4z M223.5,190.3c0,2.8,0.7,4.3,2.2,4.3
			c1.4,0,2.1-1.4,2.1-4.3c0-3-0.7-4.5-2.1-4.5C224.3,185.8,223.5,187.3,223.5,190.3z"/>
		<path d="M230.4,187.5c0-0.9,0.2-1.6,0.7-2.1s1.1-0.8,1.9-0.8c0.8,0,1.4,0.2,1.8,0.7c0.4,0.5,0.6,1.1,0.6,2c0,0.8-0.2,1.5-0.7,2
			s-1.1,0.8-1.9,0.8c-0.7,0-1.3-0.2-1.8-0.7C230.7,189,230.4,188.3,230.4,187.5z M231.5,187.4c0,0.6,0.1,1.1,0.4,1.4
			c0.3,0.3,0.6,0.5,1.1,0.5s0.8-0.2,1.1-0.5s0.4-0.8,0.4-1.4c0-0.6-0.1-1.1-0.4-1.4c-0.2-0.3-0.6-0.5-1-0.5c-0.5,0-0.8,0.2-1.1,0.5
			C231.6,186.4,231.5,186.8,231.5,187.4z M240.1,184.8l-6.9,10.8H232l6.9-10.8H240.1z M236.8,193c0-0.9,0.2-1.6,0.7-2.1
			s1.1-0.8,1.9-0.8c0.8,0,1.3,0.2,1.8,0.7c0.4,0.5,0.6,1.1,0.6,2c0,0.8-0.2,1.5-0.7,2s-1.1,0.8-1.9,0.8c-0.7,0-1.3-0.2-1.8-0.7
			C237.1,194.4,236.8,193.8,236.8,193z M237.9,192.9c0,0.6,0.1,1,0.4,1.4c0.3,0.3,0.6,0.5,1.1,0.5s0.8-0.2,1.1-0.5s0.4-0.8,0.4-1.4
			c0-0.6-0.1-1.1-0.4-1.4c-0.3-0.3-0.6-0.5-1-0.5c-0.5,0-0.8,0.2-1.1,0.5C238,191.9,237.9,192.3,237.9,192.9z"/>
	</g>
	<g id="_4.0_2" class="st0">
		<path d="M216.3,157.2v7.1h1.6v1.1h-1.6v2.5H215v-2.5h-5v-1.1c0.9-1,1.8-2.1,2.7-3.4c0.9-1.3,1.6-2.5,2.2-3.7L216.3,157.2
			L216.3,157.2z M211.5,164.3h3.5v-5.1c-0.5,0.9-1,1.7-1.5,2.5C212.9,162.5,212.2,163.3,211.5,164.3z"/>
		<path d="M219,167.2c0-0.2,0.1-0.5,0.3-0.6c0.2-0.2,0.4-0.3,0.6-0.3c0.3,0,0.5,0.1,0.6,0.3c0.2,0.2,0.3,0.4,0.3,0.6
			c0,0.2-0.1,0.4-0.3,0.6c-0.2,0.2-0.4,0.3-0.6,0.3c-0.3,0-0.5-0.1-0.6-0.3C219.1,167.6,219,167.4,219,167.2z"/>
		<path d="M222.2,162.8c0-1.9,0.3-3.3,0.9-4.3c0.6-1,1.5-1.5,2.7-1.5c2.3,0,3.4,1.8,3.4,5.5c0,1.8-0.3,3.2-1,4.1
			c-0.6,1-1.5,1.4-2.7,1.4c-1.1,0-1.9-0.5-2.5-1.4C222.5,165.8,222.2,164.5,222.2,162.8z M223.5,162.7c0,2.8,0.7,4.3,2.2,4.3
			c1.4,0,2.1-1.4,2.1-4.3c0-3-0.7-4.5-2.1-4.5C224.3,158.2,223.5,159.7,223.5,162.7z"/>
		<path d="M230.4,159.9c0-0.9,0.2-1.6,0.7-2.1s1.1-0.8,1.9-0.8c0.8,0,1.4,0.2,1.8,0.7c0.4,0.5,0.6,1.1,0.6,2c0,0.8-0.2,1.5-0.7,2
			s-1.1,0.8-1.9,0.8c-0.7,0-1.3-0.2-1.8-0.7C230.7,161.4,230.4,160.7,230.4,159.9z M231.5,159.8c0,0.6,0.1,1.1,0.4,1.4
			c0.3,0.3,0.6,0.5,1.1,0.5s0.8-0.2,1.1-0.5s0.4-0.8,0.4-1.4c0-0.6-0.1-1.1-0.4-1.4c-0.2-0.3-0.6-0.5-1-0.5c-0.5,0-0.8,0.2-1.1,0.5
			C231.6,158.8,231.5,159.2,231.5,159.8z M240.1,157.2l-6.9,10.8H232l6.9-10.8H240.1z M236.8,165.4c0-0.9,0.2-1.6,0.7-2.1
			s1.1-0.8,1.9-0.8c0.8,0,1.3,0.2,1.8,0.7c0.4,0.5,0.6,1.1,0.6,2c0,0.8-0.2,1.5-0.7,2s-1.1,0.8-1.9,0.8c-0.7,0-1.3-0.2-1.8-0.7
			C237.1,166.8,236.8,166.2,236.8,165.4z M237.9,165.3c0,0.6,0.1,1,0.4,1.4c0.3,0.3,0.6,0.5,1.1,0.5s0.8-0.2,1.1-0.5
			s0.4-0.8,0.4-1.4c0-0.6-0.1-1.1-0.4-1.4c-0.3-0.3-0.6-0.5-1-0.5c-0.5,0-0.8,0.2-1.1,0.5C238,164.3,237.9,164.7,237.9,165.3z"/>
	</g>
	<g id="_6.0_2" class="st0">
		<path d="M216.9,128.4c-0.6-0.3-1.1-0.4-1.7-0.4c-0.9,0-1.7,0.4-2.2,1.2c-0.6,0.8-0.8,1.9-0.9,3.3l0,0c0.5-1,1.3-1.5,2.4-1.5
			c0.9,0,1.7,0.3,2.2,0.9s0.8,1.4,0.8,2.4s-0.3,1.9-1,2.6c-0.6,0.7-1.4,1-2.4,1c-1.1,0-1.9-0.4-2.6-1.3c-0.6-0.8-0.9-2.1-0.9-3.6
			c0-1.9,0.4-3.4,1.2-4.5c0.8-1.1,1.9-1.7,3.2-1.7c0.8,0,1.4,0.1,1.8,0.3L216.9,128.4L216.9,128.4z M212.1,134.2
			c0,0.7,0.2,1.3,0.6,1.8c0.4,0.5,0.9,0.8,1.5,0.8s1.1-0.2,1.4-0.6c0.4-0.4,0.6-1,0.6-1.7s-0.2-1.3-0.5-1.7s-0.8-0.6-1.5-0.6
			c-0.6,0-1.1,0.2-1.5,0.6C212.3,133.2,212.1,133.7,212.1,134.2z"/>
		<path d="M219,137c0-0.2,0.1-0.5,0.3-0.6c0.2-0.2,0.4-0.3,0.6-0.3c0.3,0,0.5,0.1,0.6,0.3c0.2,0.2,0.3,0.4,0.3,0.6
			c0,0.2-0.1,0.4-0.3,0.6c-0.2,0.2-0.4,0.3-0.6,0.3c-0.3,0-0.5-0.1-0.6-0.3C219.1,137.4,219,137.2,219,137z"/>
		<path d="M222.2,132.6c0-1.9,0.3-3.3,0.9-4.3c0.6-1,1.5-1.5,2.7-1.5c2.3,0,3.4,1.8,3.4,5.5c0,1.8-0.3,3.2-1,4.1
			c-0.6,1-1.5,1.4-2.7,1.4c-1.1,0-1.9-0.5-2.5-1.4C222.5,135.6,222.2,134.3,222.2,132.6z M223.5,132.5c0,2.8,0.7,4.3,2.2,4.3
			c1.4,0,2.1-1.4,2.1-4.3c0-3-0.7-4.5-2.1-4.5C224.3,128,223.5,129.5,223.5,132.5z"/>
		<path d="M230.4,129.7c0-0.9,0.2-1.6,0.7-2.1c0.5-0.5,1.1-0.8,1.9-0.8c0.8,0,1.4,0.2,1.8,0.7c0.4,0.5,0.6,1.1,0.6,2
			c0,0.8-0.2,1.5-0.7,2s-1.1,0.8-1.9,0.8c-0.7,0-1.3-0.2-1.8-0.7C230.7,131.2,230.4,130.5,230.4,129.7z M231.5,129.7
			c0,0.6,0.1,1.1,0.4,1.4c0.3,0.3,0.6,0.5,1.1,0.5s0.8-0.2,1.1-0.5s0.4-0.8,0.4-1.4c0-0.6-0.1-1.1-0.4-1.4c-0.2-0.3-0.6-0.5-1-0.5
			c-0.5,0-0.8,0.2-1.1,0.5C231.6,128.6,231.5,129.1,231.5,129.7z M240.1,127l-6.9,10.8H232l6.9-10.8H240.1z M236.8,135.2
			c0-0.9,0.2-1.6,0.7-2.1s1.1-0.8,1.9-0.8c0.8,0,1.3,0.2,1.8,0.7c0.4,0.5,0.6,1.1,0.6,2c0,0.8-0.2,1.5-0.7,2s-1.1,0.8-1.9,0.8
			c-0.7,0-1.3-0.2-1.8-0.7C237.1,136.6,236.8,136,236.8,135.2z M237.9,135.1c0,0.6,0.1,1,0.4,1.4c0.3,0.3,0.6,0.5,1.1,0.5
			s0.8-0.2,1.1-0.5s0.4-0.8,0.4-1.4c0-0.6-0.1-1.1-0.4-1.4c-0.3-0.3-0.6-0.5-1-0.5c-0.5,0-0.8,0.2-1.1,0.5
			C238,134.1,237.9,134.5,237.9,135.1z"/>
	</g>
	<g id="_8.0_2" class="st0">
		<path d="M210.5,102c0-0.6,0.2-1.2,0.6-1.7c0.4-0.5,0.8-0.9,1.4-1.1c-0.5-0.3-0.8-0.6-1.1-1s-0.4-0.9-0.4-1.3c0-0.5,0.1-1,0.4-1.4
			c0.3-0.4,0.6-0.7,1.1-1s1-0.4,1.5-0.4c0.6,0,1.1,0.1,1.5,0.4c0.5,0.2,0.8,0.6,1.1,1s0.4,0.9,0.4,1.4s-0.1,0.9-0.4,1.3
			c-0.3,0.4-0.6,0.8-1.1,1c0.6,0.2,1.1,0.6,1.4,1.1c0.4,0.5,0.5,1.1,0.5,1.7s-0.1,1.2-0.4,1.6c-0.3,0.5-0.7,0.9-1.2,1.1
			c-0.5,0.3-1.1,0.4-1.8,0.4s-1.3-0.1-1.8-0.4s-0.9-0.6-1.2-1.1S210.5,102.6,210.5,102z M211.9,101.9c0,0.6,0.2,1.1,0.6,1.5
			c0.4,0.4,0.9,0.6,1.6,0.6c0.6,0,1.2-0.2,1.6-0.6c0.4-0.4,0.6-0.9,0.6-1.5s-0.2-1.1-0.6-1.5c-0.4-0.4-0.9-0.6-1.5-0.6
			s-1.1,0.2-1.5,0.6C212.1,100.8,211.9,101.3,211.9,101.9z M212.3,96.9c0,0.5,0.2,0.9,0.5,1.2c0.3,0.3,0.8,0.5,1.2,0.5
			c0.5,0,0.9-0.2,1.3-0.5s0.5-0.8,0.5-1.2c0-0.5-0.2-0.9-0.5-1.2s-0.8-0.5-1.3-0.5s-0.9,0.2-1.3,0.5C212.4,96,212.3,96.5,212.3,96.9
			z"/>
		<path d="M219,104.3c0-0.2,0.1-0.5,0.3-0.6c0.2-0.2,0.4-0.3,0.6-0.3c0.3,0,0.5,0.1,0.6,0.3c0.2,0.2,0.3,0.4,0.3,0.6
			s-0.1,0.4-0.3,0.6s-0.4,0.3-0.6,0.3c-0.3,0-0.5-0.1-0.6-0.3C219.1,104.7,219,104.5,219,104.3z"/>
		<path d="M222.2,99.8c0-1.9,0.3-3.3,0.9-4.3c0.6-1,1.5-1.5,2.7-1.5c2.3,0,3.4,1.8,3.4,5.5c0,1.8-0.3,3.2-1,4.1
			c-0.6,1-1.5,1.4-2.7,1.4c-1.1,0-1.9-0.5-2.5-1.4C222.5,102.9,222.2,101.6,222.2,99.8z M223.5,99.8c0,2.8,0.7,4.3,2.2,4.3
			c1.4,0,2.1-1.4,2.1-4.3c0-3-0.7-4.5-2.1-4.5C224.3,95.2,223.5,96.7,223.5,99.8z"/>
		<path d="M230.4,97c0-0.9,0.2-1.6,0.7-2.1s1.1-0.8,1.9-0.8c0.8,0,1.4,0.2,1.8,0.7c0.4,0.5,0.6,1.1,0.6,2c0,0.8-0.2,1.5-0.7,2
			s-1.1,0.8-1.9,0.8c-0.7,0-1.3-0.2-1.8-0.7S230.4,97.8,230.4,97z M231.5,96.9c0,0.6,0.1,1.1,0.4,1.4c0.3,0.3,0.6,0.5,1.1,0.5
			s0.8-0.2,1.1-0.5s0.4-0.8,0.4-1.4s-0.1-1.1-0.4-1.4c-0.2-0.3-0.6-0.5-1-0.5c-0.5,0-0.8,0.2-1.1,0.5
			C231.6,95.8,231.5,96.3,231.5,96.9z M240.1,94.3l-6.9,10.8H232l6.9-10.8H240.1z M236.8,102.5c0-0.9,0.2-1.6,0.7-2.1
			s1.1-0.8,1.9-0.8c0.8,0,1.3,0.2,1.8,0.7c0.4,0.5,0.6,1.1,0.6,2c0,0.8-0.2,1.5-0.7,2s-1.1,0.8-1.9,0.8c-0.7,0-1.3-0.2-1.8-0.7
			C237.1,103.9,236.8,103.3,236.8,102.5z M237.9,102.4c0,0.6,0.1,1,0.4,1.4c0.3,0.3,0.6,0.5,1.1,0.5s0.8-0.2,1.1-0.5
			s0.4-0.8,0.4-1.4s-0.1-1.1-0.4-1.4c-0.3-0.3-0.6-0.5-1-0.5c-0.5,0-0.8,0.2-1.1,0.5C238,101.3,237.9,101.8,237.9,102.4z"/>
	</g>
	<g id="_10.0_2" class="st0">
		<path d="M206.4,72.2v-9.1c-0.2,0.2-0.6,0.4-1.1,0.7s-1,0.4-1.4,0.6V63c0.6-0.2,1.2-0.4,1.8-0.7s1.1-0.7,1.5-1h0.5v10.9H206.4z"/>
		<path d="M211.4,67.1c0-1.9,0.3-3.3,0.9-4.3c0.6-1,1.5-1.5,2.7-1.5c2.3,0,3.4,1.8,3.4,5.5c0,1.8-0.3,3.2-1,4.1
			c-0.6,1-1.5,1.4-2.7,1.4c-1.1,0-1.9-0.5-2.5-1.4C211.7,70.1,211.4,68.8,211.4,67.1z M212.8,67c0,2.8,0.7,4.3,2.2,4.3
			c1.4,0,2.1-1.4,2.1-4.3c0-3-0.7-4.5-2.1-4.5C213.5,62.5,212.8,64,212.8,67z"/>
		<path d="M219.9,71.5c0-0.2,0.1-0.5,0.3-0.6c0.2-0.2,0.4-0.3,0.6-0.3c0.3,0,0.5,0.1,0.6,0.3c0.2,0.2,0.3,0.4,0.3,0.6
			s-0.1,0.4-0.3,0.6s-0.4,0.3-0.6,0.3c-0.3,0-0.5-0.1-0.6-0.3C220,72,219.9,71.8,219.9,71.5z"/>
		<path d="M223.1,67.1c0-1.9,0.3-3.3,0.9-4.3c0.6-1,1.5-1.5,2.7-1.5c2.3,0,3.4,1.8,3.4,5.5c0,1.8-0.3,3.2-1,4.1
			c-0.6,1-1.5,1.4-2.7,1.4c-1.1,0-1.9-0.5-2.5-1.4S223.1,68.8,223.1,67.1z M224.5,67c0,2.8,0.7,4.3,2.2,4.3c1.4,0,2.1-1.4,2.1-4.3
			c0-3-0.7-4.5-2.1-4.5C225.2,62.5,224.5,64,224.5,67z"/>
		<path d="M231.4,64.2c0-0.9,0.2-1.6,0.7-2.1s1.1-0.8,1.9-0.8c0.8,0,1.4,0.2,1.8,0.7c0.4,0.5,0.6,1.1,0.6,2c0,0.8-0.2,1.5-0.7,2
			s-1.1,0.8-1.9,0.8c-0.7,0-1.3-0.2-1.8-0.7C231.6,65.7,231.4,65,231.4,64.2z M232.4,64.2c0,0.6,0.1,1.1,0.4,1.4
			c0.3,0.3,0.6,0.5,1.1,0.5s0.8-0.2,1.1-0.5s0.4-0.8,0.4-1.4s-0.1-1.1-0.4-1.4c-0.2-0.3-0.6-0.5-1-0.5c-0.5,0-0.8,0.2-1.1,0.5
			C232.6,63.1,232.4,63.6,232.4,64.2z M241,61.5l-6.9,10.8H233l6.9-10.8C239.9,61.5,241,61.5,241,61.5z M237.8,69.7
			c0-0.9,0.2-1.6,0.7-2.1s1.1-0.8,1.9-0.8c0.8,0,1.3,0.2,1.8,0.7c0.4,0.5,0.6,1.1,0.6,2c0,0.8-0.2,1.5-0.7,2s-1.1,0.8-1.9,0.8
			c-0.7,0-1.3-0.2-1.8-0.7C238,71.2,237.8,70.5,237.8,69.7z M238.8,69.7c0,0.6,0.1,1,0.4,1.4c0.3,0.3,0.6,0.5,1.1,0.5
			s0.8-0.2,1.1-0.5s0.4-0.8,0.4-1.4s-0.1-1.1-0.4-1.4c-0.3-0.3-0.6-0.5-1-0.5c-0.5,0-0.8,0.2-1.1,0.5
			C238.9,68.6,238.8,69.1,238.8,69.7z"/>
	</g>
	<g id="_12.0_2" class="st0">
		<path d="M206.4,41.4v-9.1c-0.2,0.2-0.6,0.4-1.1,0.7s-1,0.4-1.4,0.6v-1.3c0.6-0.2,1.2-0.4,1.8-0.7c0.6-0.3,1.1-0.7,1.5-1h0.5v10.9
			L206.4,41.4L206.4,41.4z"/>
		<path d="M216.7,33.5c0-0.6-0.2-1-0.5-1.4c-0.4-0.3-0.9-0.5-1.5-0.5c-0.4,0-0.9,0.1-1.3,0.3c-0.5,0.2-0.9,0.5-1.3,1v-1.3
			c0.3-0.4,0.7-0.6,1.2-0.8c0.4-0.2,1-0.3,1.6-0.3c1,0,1.7,0.3,2.3,0.8s0.9,1.2,0.9,2.1c0,0.8-0.2,1.5-0.5,2c-0.4,0.6-1,1.2-1.9,1.8
			s-1.5,1.1-1.8,1.3s-0.5,0.5-0.6,0.8c-0.1,0.2-0.2,0.5-0.2,0.9h5.3v1.2h-6.7v-0.5c0-0.6,0.1-1.1,0.3-1.6c0.2-0.4,0.4-0.8,0.8-1.3
			c0.4-0.4,1-0.9,1.8-1.5s1.4-1.1,1.7-1.5C216.5,34.6,216.7,34.1,216.7,33.5z"/>
		<path d="M219.9,40.7c0-0.2,0.1-0.5,0.3-0.6c0.2-0.2,0.4-0.3,0.6-0.3c0.3,0,0.5,0.1,0.6,0.3c0.2,0.2,0.3,0.4,0.3,0.6
			c0,0.2-0.1,0.4-0.3,0.6c-0.2,0.2-0.4,0.3-0.6,0.3c-0.3,0-0.5-0.1-0.6-0.3C220,41.1,219.9,40.9,219.9,40.7z"/>
		<path d="M223.1,36.3c0-1.9,0.3-3.3,0.9-4.3c0.6-1,1.5-1.5,2.7-1.5c2.3,0,3.4,1.8,3.4,5.5c0,1.8-0.3,3.2-1,4.1
			c-0.6,1-1.5,1.4-2.7,1.4c-1.1,0-1.9-0.5-2.5-1.4S223.1,38,223.1,36.3z M224.5,36.2c0,2.8,0.7,4.3,2.2,4.3c1.4,0,2.1-1.4,2.1-4.3
			c0-3-0.7-4.5-2.1-4.5C225.2,31.7,224.5,33.2,224.5,36.2z"/>
		<path d="M231.4,33.4c0-0.9,0.2-1.6,0.7-2.1s1.1-0.8,1.9-0.8c0.8,0,1.4,0.2,1.8,0.7c0.4,0.5,0.6,1.1,0.6,2c0,0.8-0.2,1.5-0.7,2
			s-1.1,0.8-1.9,0.8c-0.7,0-1.3-0.2-1.8-0.7C231.6,34.9,231.4,34.2,231.4,33.4z M232.4,33.4c0,0.6,0.1,1.1,0.4,1.4
			c0.3,0.3,0.6,0.5,1.1,0.5s0.8-0.2,1.1-0.5s0.4-0.8,0.4-1.4c0-0.6-0.1-1.1-0.4-1.4c-0.2-0.3-0.6-0.5-1-0.5c-0.5,0-0.8,0.2-1.1,0.5
			C232.6,32.3,232.4,32.7,232.4,33.4z M241,30.7l-6.9,10.8H233l6.9-10.8H241z M237.8,38.9c0-0.9,0.2-1.6,0.7-2.1s1.1-0.8,1.9-0.8
			c0.8,0,1.3,0.2,1.8,0.7c0.4,0.5,0.6,1.1,0.6,2c0,0.8-0.2,1.5-0.7,2s-1.1,0.8-1.9,0.8c-0.7,0-1.3-0.2-1.8-0.7
			C238,40.3,237.8,39.7,237.8,38.9z M238.8,38.8c0,0.6,0.1,1,0.4,1.4c0.3,0.3,0.6,0.5,1.1,0.5s0.8-0.2,1.1-0.5s0.4-0.8,0.4-1.4
			c0-0.6-0.1-1.1-0.4-1.4c-0.3-0.3-0.6-0.5-1-0.5c-0.5,0-0.8,0.2-1.1,0.5C238.9,37.8,238.8,38.2,238.8,38.8z"/>
	</g>
</g>
<g id="线-2">
	<rect id="矩形_863_拷贝_2-2" x="249.4" y="194.8" class="st1" width="136.2" height="1.3"/>
	<rect id="矩形_863_拷贝_3-2" x="249.4" y="162" class="st1" width="136.2" height="1.3"/>
	<rect id="矩形_863_拷贝_4-2" x="249.4" y="129.3" class="st1" width="136.2" height="1.3"/>
	<rect id="矩形_863_拷贝_5-4" x="249.4" y="97.2" class="st1" width="136.2" height="1.3"/>
	<rect id="矩形_863_拷贝_5-5" x="249.4" y="64.5" class="st1" width="136.2" height="1.3"/>
	<rect id="矩形_863_拷贝_5-6" x="249.4" y="31.7" class="st1" width="136.2" height="1.3"/>
	<rect id="矩形_863-2" x="249.4" y="29.8" class="st2" width="1.3" height="200.3"/>
</g>
<rect id="矩形_864-2" x="269.4" y="137.6" class="st3" width="29.5" height="91.2"/>
<rect id="矩形_864_拷贝-2" x="299" y="142.8" class="st4" width="29.5" height="86"/>
<rect id="矩形_864_拷贝_2-2" x="328.5" y="170.4" class="st5" width="29.5" height="58.4"/>
<rect id="矩形_863_拷贝-2" x="249.4" y="228.8" class="st2" width="136.2" height="1.3"/>
<g id="_3">
	<g id="_2.0_3" class="st0">
		<path d="M419.9,187.6c0-0.6-0.2-1-0.5-1.4c-0.4-0.3-0.9-0.5-1.5-0.5c-0.4,0-0.9,0.1-1.3,0.3c-0.5,0.2-0.9,0.5-1.3,1v-1.3
			c0.3-0.4,0.7-0.6,1.2-0.8c0.4-0.2,1-0.3,1.6-0.3c1,0,1.7,0.3,2.3,0.8c0.6,0.5,0.9,1.2,0.9,2.1c0,0.8-0.2,1.5-0.5,2
			c-0.4,0.6-1,1.2-1.9,1.8s-1.5,1.1-1.8,1.3c-0.3,0.3-0.5,0.5-0.6,0.8c-0.1,0.2-0.2,0.5-0.2,0.9h5.3v1.2h-6.7V195
			c0-0.6,0.1-1.1,0.3-1.6c0.2-0.4,0.4-0.8,0.8-1.3c0.4-0.4,1-0.9,1.8-1.5s1.4-1.1,1.7-1.5C419.8,188.6,419.9,188.1,419.9,187.6z"/>
		<path d="M423.1,194.7c0-0.2,0.1-0.5,0.3-0.6c0.2-0.2,0.4-0.3,0.6-0.3c0.3,0,0.5,0.1,0.6,0.3c0.2,0.2,0.3,0.4,0.3,0.6
			c0,0.2-0.1,0.4-0.3,0.6c-0.2,0.2-0.4,0.3-0.6,0.3c-0.3,0-0.5-0.1-0.6-0.3C423.2,195.2,423.1,195,423.1,194.7z"/>
		<path d="M426.3,190.3c0-1.9,0.3-3.3,0.9-4.3s1.5-1.5,2.7-1.5c2.3,0,3.4,1.8,3.4,5.5c0,1.8-0.3,3.2-1,4.1c-0.6,1-1.5,1.4-2.7,1.4
			c-1.1,0-1.9-0.5-2.5-1.4C426.6,193.4,426.3,192.1,426.3,190.3z M427.7,190.3c0,2.8,0.7,4.3,2.2,4.3c1.4,0,2.1-1.4,2.1-4.3
			c0-3-0.7-4.5-2.1-4.5C428.5,185.7,427.7,187.2,427.7,190.3z"/>
		<path d="M434.6,187.5c0-0.9,0.2-1.6,0.7-2.1s1.1-0.8,1.9-0.8s1.4,0.2,1.8,0.7s0.6,1.1,0.6,2c0,0.8-0.2,1.5-0.7,2s-1.1,0.8-1.9,0.8
			c-0.7,0-1.3-0.2-1.8-0.7C434.8,188.9,434.6,188.3,434.6,187.5z M435.7,187.4c0,0.6,0.1,1.1,0.4,1.4c0.3,0.3,0.6,0.5,1.1,0.5
			s0.8-0.2,1.1-0.5c0.3-0.3,0.4-0.8,0.4-1.4c0-0.6-0.1-1.1-0.4-1.4c-0.2-0.3-0.6-0.5-1-0.5c-0.5,0-0.8,0.2-1.1,0.5
			C435.8,186.3,435.7,186.8,435.7,187.4z M444.3,184.8l-6.9,10.8h-1.2l6.9-10.8H444.3z M441,193c0-0.9,0.2-1.6,0.7-2.1
			s1.1-0.8,1.9-0.8s1.3,0.2,1.8,0.7c0.4,0.5,0.6,1.1,0.6,2c0,0.8-0.2,1.5-0.7,2s-1.1,0.8-1.9,0.8c-0.7,0-1.3-0.2-1.8-0.7
			C441.2,194.4,441,193.7,441,193z M442.1,192.9c0,0.6,0.1,1,0.4,1.4c0.3,0.3,0.6,0.5,1.1,0.5s0.8-0.2,1.1-0.5
			c0.3-0.3,0.4-0.8,0.4-1.4c0-0.6-0.1-1.1-0.4-1.4c-0.3-0.3-0.6-0.5-1-0.5c-0.5,0-0.8,0.2-1.1,0.5
			C442.2,191.8,442.1,192.3,442.1,192.9z"/>
	</g>
	<g id="_4.0_3" class="st0">
		<path d="M420.4,157.2v7.1h1.6v1.1h-1.6v2.5h-1.3v-2.5h-5v-1.1c0.9-1,1.8-2.1,2.7-3.4c0.9-1.3,1.6-2.5,2.2-3.7L420.4,157.2
			L420.4,157.2z M415.7,164.2h3.5v-5.1c-0.5,0.9-1,1.7-1.5,2.5C417.1,162.4,416.4,163.3,415.7,164.2z"/>
		<path d="M423.1,167.1c0-0.2,0.1-0.5,0.3-0.6c0.2-0.2,0.4-0.3,0.6-0.3c0.3,0,0.5,0.1,0.6,0.3c0.2,0.2,0.3,0.4,0.3,0.6
			c0,0.2-0.1,0.4-0.3,0.6c-0.2,0.2-0.4,0.3-0.6,0.3c-0.3,0-0.5-0.1-0.6-0.3C423.2,167.6,423.1,167.4,423.1,167.1z"/>
		<path d="M426.3,162.7c0-1.9,0.3-3.3,0.9-4.3s1.5-1.5,2.7-1.5c2.3,0,3.4,1.8,3.4,5.5c0,1.8-0.3,3.2-1,4.1c-0.6,1-1.5,1.4-2.7,1.4
			c-1.1,0-1.9-0.5-2.5-1.4C426.6,165.8,426.3,164.5,426.3,162.7z M427.7,162.7c0,2.8,0.7,4.3,2.2,4.3c1.4,0,2.1-1.4,2.1-4.3
			c0-3-0.7-4.5-2.1-4.5C428.5,158.1,427.7,159.6,427.7,162.7z"/>
		<path d="M434.6,159.9c0-0.9,0.2-1.6,0.7-2.1s1.1-0.8,1.9-0.8s1.4,0.2,1.8,0.7s0.6,1.1,0.6,2c0,0.8-0.2,1.5-0.7,2s-1.1,0.8-1.9,0.8
			c-0.7,0-1.3-0.2-1.8-0.7C434.8,161.3,434.6,160.7,434.6,159.9z M435.7,159.8c0,0.6,0.1,1.1,0.4,1.4c0.3,0.3,0.6,0.5,1.1,0.5
			s0.8-0.2,1.1-0.5c0.3-0.3,0.4-0.8,0.4-1.4c0-0.6-0.1-1.1-0.4-1.4c-0.2-0.3-0.6-0.5-1-0.5c-0.5,0-0.8,0.2-1.1,0.5
			C435.8,158.7,435.7,159.2,435.7,159.8z M444.3,157.2l-6.9,10.8h-1.2l6.9-10.8H444.3z M441,165.4c0-0.9,0.2-1.6,0.7-2.1
			s1.1-0.8,1.9-0.8s1.3,0.2,1.8,0.7c0.4,0.5,0.6,1.1,0.6,2c0,0.8-0.2,1.5-0.7,2s-1.1,0.8-1.9,0.8c-0.7,0-1.3-0.2-1.8-0.7
			C441.2,166.8,441,166.1,441,165.4z M442.1,165.3c0,0.6,0.1,1,0.4,1.4c0.3,0.3,0.6,0.5,1.1,0.5s0.8-0.2,1.1-0.5
			c0.3-0.3,0.4-0.8,0.4-1.4c0-0.6-0.1-1.1-0.4-1.4c-0.3-0.3-0.6-0.5-1-0.5c-0.5,0-0.8,0.2-1.1,0.5
			C442.2,164.2,442.1,164.7,442.1,165.3z"/>
	</g>
	<g id="_6.0_3" class="st0">
		<path d="M421.1,128.4c-0.6-0.3-1.1-0.4-1.7-0.4c-0.9,0-1.7,0.4-2.2,1.2c-0.6,0.8-0.8,1.9-0.9,3.3l0,0c0.5-1,1.3-1.5,2.4-1.5
			c0.9,0,1.7,0.3,2.2,0.9c0.6,0.6,0.8,1.4,0.8,2.4s-0.3,1.9-1,2.6c-0.6,0.7-1.4,1-2.4,1c-1.1,0-1.9-0.4-2.6-1.3
			c-0.6-0.8-0.9-2.1-0.9-3.6c0-1.9,0.4-3.4,1.2-4.5c0.8-1.1,1.9-1.7,3.2-1.7c0.8,0,1.4,0.1,1.8,0.3v1.3H421.1z M416.3,134.2
			c0,0.7,0.2,1.3,0.6,1.8s0.9,0.8,1.5,0.8s1.1-0.2,1.4-0.6c0.4-0.4,0.6-1,0.6-1.7s-0.2-1.3-0.5-1.7s-0.8-0.6-1.5-0.6
			c-0.6,0-1.1,0.2-1.5,0.6S416.3,133.6,416.3,134.2z"/>
		<path d="M423.1,137c0-0.2,0.1-0.5,0.3-0.6c0.2-0.2,0.4-0.3,0.6-0.3c0.3,0,0.5,0.1,0.6,0.3c0.2,0.2,0.3,0.4,0.3,0.6
			c0,0.2-0.1,0.4-0.3,0.6c-0.2,0.2-0.4,0.3-0.6,0.3c-0.3,0-0.5-0.1-0.6-0.3C423.2,137.4,423.1,137.2,423.1,137z"/>
		<path d="M426.3,132.6c0-1.9,0.3-3.3,0.9-4.3s1.5-1.5,2.7-1.5c2.3,0,3.4,1.8,3.4,5.5c0,1.8-0.3,3.2-1,4.1c-0.6,1-1.5,1.4-2.7,1.4
			c-1.1,0-1.9-0.5-2.5-1.4C426.6,135.6,426.3,134.3,426.3,132.6z M427.7,132.5c0,2.8,0.7,4.3,2.2,4.3c1.4,0,2.1-1.4,2.1-4.3
			c0-3-0.7-4.5-2.1-4.5C428.5,128,427.7,129.5,427.7,132.5z"/>
		<path d="M434.6,129.7c0-0.9,0.2-1.6,0.7-2.1c0.5-0.5,1.1-0.8,1.9-0.8s1.4,0.2,1.8,0.7s0.6,1.1,0.6,2c0,0.8-0.2,1.5-0.7,2
			s-1.1,0.8-1.9,0.8c-0.7,0-1.3-0.2-1.8-0.7C434.8,131.2,434.6,130.5,434.6,129.7z M435.7,129.6c0,0.6,0.1,1.1,0.4,1.4
			c0.3,0.3,0.6,0.5,1.1,0.5s0.8-0.2,1.1-0.5c0.3-0.3,0.4-0.8,0.4-1.4c0-0.6-0.1-1.1-0.4-1.4c-0.2-0.3-0.6-0.5-1-0.5
			c-0.5,0-0.8,0.2-1.1,0.5C435.8,128.6,435.7,129,435.7,129.6z M444.3,127l-6.9,10.8h-1.2l6.9-10.8H444.3z M441,135.2
			c0-0.9,0.2-1.6,0.7-2.1s1.1-0.8,1.9-0.8s1.3,0.2,1.8,0.7c0.4,0.5,0.6,1.1,0.6,2c0,0.8-0.2,1.5-0.7,2s-1.1,0.8-1.9,0.8
			c-0.7,0-1.3-0.2-1.8-0.7C441.2,136.6,441,136,441,135.2z M442.1,135.1c0,0.6,0.1,1,0.4,1.4c0.3,0.3,0.6,0.5,1.1,0.5
			s0.8-0.2,1.1-0.5c0.3-0.3,0.4-0.8,0.4-1.4c0-0.6-0.1-1.1-0.4-1.4c-0.3-0.3-0.6-0.5-1-0.5c-0.5,0-0.8,0.2-1.1,0.5
			C442.2,134.1,442.1,134.5,442.1,135.1z"/>
	</g>
	<g id="_8.0_3" class="st0">
		<path d="M414.7,102c0-0.6,0.2-1.2,0.6-1.7s0.8-0.9,1.4-1.1c-0.5-0.3-0.8-0.6-1.1-1c-0.3-0.4-0.4-0.9-0.4-1.3c0-0.5,0.1-1,0.4-1.4
			s0.6-0.7,1.1-1s1-0.4,1.5-0.4c0.6,0,1.1,0.1,1.5,0.4c0.5,0.2,0.8,0.6,1.1,1s0.4,0.9,0.4,1.4s-0.1,0.9-0.4,1.3s-0.6,0.8-1.1,1
			c0.6,0.2,1.1,0.6,1.4,1.1c0.4,0.5,0.5,1.1,0.5,1.7s-0.1,1.2-0.4,1.6c-0.3,0.5-0.7,0.9-1.2,1.1c-0.5,0.3-1.1,0.4-1.8,0.4
			c-0.7,0-1.3-0.1-1.8-0.4s-0.9-0.6-1.2-1.1S414.7,102.6,414.7,102z M416,101.9c0,0.6,0.2,1.1,0.6,1.5s0.9,0.6,1.6,0.6
			c0.6,0,1.2-0.2,1.6-0.6s0.6-0.9,0.6-1.5s-0.2-1.1-0.6-1.5s-0.9-0.6-1.5-0.6s-1.1,0.2-1.5,0.6C416.2,100.8,416,101.3,416,101.9z
			 M416.4,96.9c0,0.5,0.2,0.9,0.5,1.2c0.3,0.3,0.8,0.5,1.2,0.5c0.5,0,0.9-0.2,1.3-0.5s0.5-0.8,0.5-1.2c0-0.5-0.2-0.9-0.5-1.2
			s-0.8-0.5-1.3-0.5s-0.9,0.2-1.3,0.5C416.6,96,416.4,96.4,416.4,96.9z"/>
		<path d="M423.1,104.2c0-0.2,0.1-0.5,0.3-0.6s0.4-0.3,0.6-0.3c0.3,0,0.5,0.1,0.6,0.3c0.2,0.2,0.3,0.4,0.3,0.6s-0.1,0.4-0.3,0.6
			c-0.2,0.2-0.4,0.3-0.6,0.3c-0.3,0-0.5-0.1-0.6-0.3C423.2,104.7,423.1,104.5,423.1,104.2z"/>
		<path d="M426.3,99.8c0-1.9,0.3-3.3,0.9-4.3s1.5-1.5,2.7-1.5c2.3,0,3.4,1.8,3.4,5.5c0,1.8-0.3,3.2-1,4.1c-0.6,1-1.5,1.4-2.7,1.4
			c-1.1,0-1.9-0.5-2.5-1.4C426.6,102.9,426.3,101.5,426.3,99.8z M427.7,99.8c0,2.8,0.7,4.3,2.2,4.3c1.4,0,2.1-1.4,2.1-4.3
			c0-3-0.7-4.5-2.1-4.5C428.5,95.2,427.7,96.7,427.7,99.8z"/>
		<path d="M434.6,97c0-0.9,0.2-1.6,0.7-2.1s1.1-0.8,1.9-0.8s1.4,0.2,1.8,0.7s0.6,1.1,0.6,2c0,0.8-0.2,1.5-0.7,2s-1.1,0.8-1.9,0.8
			c-0.7,0-1.3-0.2-1.8-0.7C434.8,98.4,434.6,97.8,434.6,97z M435.7,96.9c0,0.6,0.1,1.1,0.4,1.4s0.6,0.5,1.1,0.5s0.8-0.2,1.1-0.5
			c0.3-0.3,0.4-0.8,0.4-1.4s-0.1-1.1-0.4-1.4c-0.2-0.3-0.6-0.5-1-0.5c-0.5,0-0.8,0.2-1.1,0.5C435.8,95.8,435.7,96.3,435.7,96.9z
			 M444.3,94.3l-6.9,10.8h-1.2l6.9-10.8H444.3z M441,102.4c0-0.9,0.2-1.6,0.7-2.1s1.1-0.8,1.9-0.8s1.3,0.2,1.8,0.7
			c0.4,0.5,0.6,1.1,0.6,2c0,0.8-0.2,1.5-0.7,2s-1.1,0.8-1.9,0.8c-0.7,0-1.3-0.2-1.8-0.7C441.2,103.9,441,103.2,441,102.4z
			 M442.1,102.4c0,0.6,0.1,1,0.4,1.4c0.3,0.3,0.6,0.5,1.1,0.5s0.8-0.2,1.1-0.5c0.3-0.3,0.4-0.8,0.4-1.4s-0.1-1.1-0.4-1.4
			s-0.6-0.5-1-0.5c-0.5,0-0.8,0.2-1.1,0.5C442.2,101.3,442.1,101.8,442.1,102.4z"/>
	</g>
	<g id="_10.0_3" class="st0">
		<path d="M410.6,72.2v-9.1c-0.2,0.2-0.6,0.4-1.1,0.7s-1,0.4-1.4,0.6V63c0.6-0.2,1.2-0.4,1.8-0.7c0.6-0.3,1.1-0.7,1.5-1h0.5v10.9
			H410.6z"/>
		<path d="M415.6,67.1c0-1.9,0.3-3.3,0.9-4.3s1.5-1.5,2.7-1.5c2.3,0,3.4,1.8,3.4,5.5c0,1.8-0.3,3.2-1,4.1c-0.6,1-1.5,1.4-2.7,1.4
			c-1.1,0-1.9-0.5-2.5-1.4S415.6,68.8,415.6,67.1z M417,67c0,2.8,0.7,4.3,2.2,4.3c1.4,0,2.1-1.4,2.1-4.3c0-3-0.7-4.5-2.1-4.5
			C417.7,62.5,417,64,417,67z"/>
		<path d="M424.1,71.5c0-0.2,0.1-0.5,0.3-0.6c0.2-0.2,0.4-0.3,0.6-0.3c0.3,0,0.5,0.1,0.6,0.3c0.2,0.2,0.3,0.4,0.3,0.6
			s-0.1,0.4-0.3,0.6c-0.2,0.2-0.4,0.3-0.6,0.3c-0.3,0-0.5-0.1-0.6-0.3C424.2,71.9,424.1,71.7,424.1,71.5z"/>
		<path d="M427.3,67.1c0-1.9,0.3-3.3,0.9-4.3s1.5-1.5,2.7-1.5c2.3,0,3.4,1.8,3.4,5.5c0,1.8-0.3,3.2-1,4.1c-0.6,1-1.5,1.4-2.7,1.4
			c-1.1,0-1.9-0.5-2.5-1.4C427.6,70.1,427.3,68.8,427.3,67.1z M428.6,67c0,2.8,0.7,4.3,2.2,4.3c1.4,0,2.1-1.4,2.1-4.3
			c0-3-0.7-4.5-2.1-4.5C429.4,62.5,428.6,64,428.6,67z"/>
		<path d="M435.5,64.2c0-0.9,0.2-1.6,0.7-2.1s1.1-0.8,1.9-0.8s1.4,0.2,1.8,0.7s0.6,1.1,0.6,2c0,0.8-0.2,1.5-0.7,2s-1.1,0.8-1.9,0.8
			c-0.7,0-1.3-0.2-1.8-0.7S435.5,65,435.5,64.2z M436.6,64.2c0,0.6,0.1,1.1,0.4,1.4s0.6,0.5,1.1,0.5s0.8-0.2,1.1-0.5
			c0.3-0.3,0.4-0.8,0.4-1.4s-0.1-1.1-0.4-1.4c-0.2-0.3-0.6-0.5-1-0.5c-0.5,0-0.8,0.2-1.1,0.5C436.7,63.1,436.6,63.6,436.6,64.2z
			 M445.2,61.5l-6.9,10.8h-1.2l6.9-10.8C444,61.5,445.2,61.5,445.2,61.5z M441.9,69.7c0-0.9,0.2-1.6,0.7-2.1s1.1-0.8,1.9-0.8
			s1.3,0.2,1.8,0.7c0.4,0.5,0.6,1.1,0.6,2c0,0.8-0.2,1.5-0.7,2s-1.1,0.8-1.9,0.8c-0.7,0-1.3-0.2-1.8-0.7
			C442.1,71.1,441.9,70.5,441.9,69.7z M443,69.6c0,0.6,0.1,1,0.4,1.4c0.3,0.3,0.6,0.5,1.1,0.5s0.8-0.2,1.1-0.5s0.4-0.8,0.4-1.4
			s-0.1-1.1-0.4-1.4s-0.6-0.5-1-0.5c-0.5,0-0.8,0.2-1.1,0.5C443.1,68.6,443,69,443,69.6z"/>
	</g>
	<g id="_12.0_3" class="st0">
		<path d="M410.6,41.4v-9.1c-0.2,0.2-0.6,0.4-1.1,0.7s-1,0.4-1.4,0.6v-1.3c0.6-0.2,1.2-0.4,1.8-0.7c0.6-0.3,1.1-0.7,1.5-1h0.5v10.9
			L410.6,41.4L410.6,41.4z"/>
		<path d="M420.8,33.5c0-0.6-0.2-1-0.5-1.4c-0.4-0.3-0.9-0.5-1.5-0.5c-0.4,0-0.9,0.1-1.3,0.3c-0.5,0.2-0.9,0.5-1.3,1v-1.3
			c0.3-0.4,0.7-0.6,1.2-0.8c0.4-0.2,1-0.3,1.6-0.3c1,0,1.7,0.3,2.3,0.8c0.6,0.5,0.9,1.2,0.9,2.1c0,0.8-0.2,1.5-0.5,2
			c-0.4,0.6-1,1.2-1.9,1.8s-1.5,1.1-1.8,1.3c-0.3,0.3-0.5,0.5-0.6,0.8c-0.1,0.2-0.2,0.5-0.2,0.9h5.3v1.2h-6.7v-0.5
			c0-0.6,0.1-1.1,0.3-1.6c0.2-0.4,0.4-0.8,0.8-1.3c0.4-0.4,1-0.9,1.8-1.5s1.4-1.1,1.7-1.5C420.7,34.6,420.8,34.1,420.8,33.5z"/>
		<path d="M424.1,40.7c0-0.2,0.1-0.5,0.3-0.6c0.2-0.2,0.4-0.3,0.6-0.3c0.3,0,0.5,0.1,0.6,0.3c0.2,0.2,0.3,0.4,0.3,0.6
			c0,0.2-0.1,0.4-0.3,0.6c-0.2,0.2-0.4,0.3-0.6,0.3c-0.3,0-0.5-0.1-0.6-0.3C424.2,41.1,424.1,40.9,424.1,40.7z"/>
		<path d="M427.3,36.3c0-1.9,0.3-3.3,0.9-4.3s1.5-1.5,2.7-1.5c2.3,0,3.4,1.8,3.4,5.5c0,1.8-0.3,3.2-1,4.1c-0.6,1-1.5,1.4-2.7,1.4
			c-1.1,0-1.9-0.5-2.5-1.4C427.6,39.3,427.3,38,427.3,36.3z M428.6,36.2c0,2.8,0.7,4.3,2.2,4.3c1.4,0,2.1-1.4,2.1-4.3
			c0-3-0.7-4.5-2.1-4.5C429.4,31.7,428.6,33.2,428.6,36.2z"/>
		<path d="M435.5,33.4c0-0.9,0.2-1.6,0.7-2.1s1.1-0.8,1.9-0.8s1.4,0.2,1.8,0.7s0.6,1.1,0.6,2c0,0.8-0.2,1.5-0.7,2s-1.1,0.8-1.9,0.8
			c-0.7,0-1.3-0.2-1.8-0.7S435.5,34.2,435.5,33.4z M436.6,33.3c0,0.6,0.1,1.1,0.4,1.4c0.3,0.3,0.6,0.5,1.1,0.5s0.8-0.2,1.1-0.5
			c0.3-0.3,0.4-0.8,0.4-1.4c0-0.6-0.1-1.1-0.4-1.4c-0.2-0.3-0.6-0.5-1-0.5c-0.5,0-0.8,0.2-1.1,0.5C436.7,32.3,436.6,32.7,436.6,33.3
			z M445.2,30.7l-6.9,10.8h-1.2l6.9-10.8H445.2z M441.9,38.9c0-0.9,0.2-1.6,0.7-2.1s1.1-0.8,1.9-0.8s1.3,0.2,1.8,0.7
			c0.4,0.5,0.6,1.1,0.6,2c0,0.8-0.2,1.5-0.7,2s-1.1,0.8-1.9,0.8c-0.7,0-1.3-0.2-1.8-0.7C442.1,40.3,441.9,39.7,441.9,38.9z
			 M443,38.8c0,0.6,0.1,1,0.4,1.4c0.3,0.3,0.6,0.5,1.1,0.5s0.8-0.2,1.1-0.5s0.4-0.8,0.4-1.4c0-0.6-0.1-1.1-0.4-1.4s-0.6-0.5-1-0.5
			c-0.5,0-0.8,0.2-1.1,0.5C443.1,37.8,443,38.2,443,38.8z"/>
	</g>
</g>
<g id="线-3">
	<rect id="矩形_863_拷贝_2-3" x="453.6" y="194.7" class="st1" width="136.2" height="1.3"/>
	<rect id="矩形_863_拷贝_3-3" x="453.6" y="162" class="st1" width="136.2" height="1.3"/>
	<rect id="矩形_863_拷贝_4-3" x="453.6" y="129.3" class="st1" width="136.2" height="1.3"/>
	<rect id="矩形_863_拷贝_5-7" x="453.6" y="97.2" class="st1" width="136.2" height="1.3"/>
	<rect id="矩形_863_拷贝_5-8" x="453.6" y="64.5" class="st1" width="136.2" height="1.3"/>
	<rect id="矩形_863_拷贝_5-9" x="453.6" y="31.7" class="st1" width="136.2" height="1.3"/>
	<rect id="矩形_863-3" x="453.6" y="29.8" class="st2" width="1.3" height="200.3"/>
</g>
<rect id="矩形_864-3" x="473.6" y="80.5" class="st3" width="29.5" height="148.3"/>
<rect id="矩形_864_拷贝-3" x="503.1" y="110.7" class="st4" width="29.5" height="118.1"/>
<rect id="矩形_864_拷贝_2-3" x="532.7" y="143.4" class="st5" width="29.5" height="85.4"/>
<rect id="矩形_863_拷贝-3" x="453.6" y="228.8" class="st2" width="136.2" height="1.3"/>
<rect id="矩形_865" x="606.8" y="178" class="st3" width="12.3" height="12.1"/>
<rect id="矩形_865_拷贝" x="606.8" y="199" class="st4" width="12.3" height="12.1"/>
<rect id="矩形_865_拷贝_2" x="606.8" y="219.9" class="st5" width="12.3" height="12.1"/>
<g>
	<path d="M1.9,10.9v1.6c0,0.3,0.1,0.6,0.4,0.8c0.2,0.2,0.5,0.3,0.9,0.3c0.3,0,0.6-0.1,0.9-0.3c0.3-0.2,0.4-0.4,0.4-0.7V9.4
		c0-0.9-0.6-1.3-1.9-1.3c-0.8,0-1.4,0.4-1.8,1.3L0.5,9.1c0.4-1,1.2-1.5,2.5-1.5c0.6,0,1.1,0.1,1.6,0.4c0.5,0.3,0.8,0.8,0.8,1.4v3.2
		c0,0.4-0.3,0.7-0.8,1C4,13.9,3.6,14,3.2,14c-0.4,0-0.9-0.1-1.4-0.4C1.3,13.3,1,12.9,1,12.5v-2.3c0-0.8,0.4-1.1,1.2-1.1
		c0.3,0,0.5,0.1,0.7,0.3C3.1,9.5,3.2,9.8,3.2,10c0,0.6-0.3,0.9-1,0.9C2.1,11,2,11,1.9,10.9z M2.8,10.1c0-0.4-0.2-0.6-0.5-0.6
		c-0.4,0-0.6,0.2-0.6,0.5c0,0.4,0.2,0.6,0.5,0.6C2.6,10.6,2.8,10.4,2.8,10.1z"/>
	<path d="M6.8,4.1c0,0.7-0.3,1.3-0.8,1.7C5.5,6.2,4.9,6.4,4.2,6.4C3.8,6.4,3.4,6.3,3,6.1C2.7,5.9,2.5,5.5,2.5,5.1
		c0-0.3,0.1-0.5,0.3-0.7S3.3,4,3.5,4c0.8,0,1.2,0.4,1.2,1.1c0,0.3-0.1,0.5-0.3,0.7c0.5,0,1-0.2,1.3-0.5C6,5,6.2,4.6,6.2,4.1H6.8z
		 M4.3,5.1c0-0.2-0.1-0.3-0.2-0.5S3.8,4.4,3.6,4.4S3.3,4.5,3.2,4.6S3,4.9,3,5.1S3,5.4,3.2,5.6s0.3,0.2,0.5,0.2
		c0.2,0,0.3-0.1,0.5-0.2S4.3,5.3,4.3,5.1z"/>
	<path d="M11.7,14h-0.9V9.4c0-0.2-0.1-0.4-0.3-0.6c-0.2-0.2-0.3-0.4-0.5-0.4L9.4,9.2L8.5,8.1C8.1,8.2,7.8,8.5,7.6,8.9
		C7.4,9.2,7.3,9.6,7.3,9.9c0,0.4,0.2,0.8,0.6,1.3c0.1,0.1,0.2,0.2,0.3,0.5c0.1,0.2,0.2,0.4,0.2,0.5c0,0,0.2-0.2,0.4-0.3
		c0,0,0.1-0.1,0.3-0.3c-0.6,0-0.9-0.4-0.9-1c0-0.3,0.1-0.5,0.3-0.7s0.4-0.3,0.7-0.3c0.7,0,1,0.3,1,1c0,0.4-0.3,0.9-0.9,1.5l-0.7,0.7
		c-0.1,0.1-0.2,0.3-0.2,0.5V14H7.4v-2c0-0.1-0.1-0.2-0.2-0.5c-0.3-0.6-0.4-1.1-0.4-1.6c0-0.5,0.2-0.9,0.6-1.4
		c0.4-0.4,0.8-0.7,1.2-0.9l0.8,0.9l0.8-0.9c0.4,0.1,0.8,0.3,1.1,0.6c0.3,0.3,0.5,0.7,0.5,1.2V14z M9.8,10.5c0-0.2-0.1-0.3-0.2-0.4
		S9.3,9.9,9.2,9.9S8.8,10,8.7,10.1s-0.2,0.3-0.2,0.4c0,0.2,0.1,0.3,0.2,0.4s0.3,0.2,0.4,0.2c0.2,0,0.3-0.1,0.4-0.2
		S9.8,10.7,9.8,10.5z"/>
	<path d="M17.3,7.6c-0.2,0.8-0.5,1.1-0.9,1.1c-0.2,0-0.5-0.1-1-0.2s-0.8-0.2-0.9-0.2c-0.4,0-0.6,0.2-0.7,0.7l2.8,0.9v3
		c0,0.4-0.1,0.7-0.4,0.9c-0.2,0.2-0.5,0.3-0.9,0.3c-0.7,0-1-0.3-1-0.9c0-0.6,0.3-0.9,0.9-0.9c0.2,0,0.4,0,0.5,0.1V9.9l-2.5-0.8
		c0-0.3,0.2-0.7,0.4-1c0.3-0.4,0.6-0.6,0.9-0.6c0.3,0,0.7,0.1,1.3,0.3C16.1,8,16.3,8,16.6,8C16.8,8,17,7.9,17.3,7.6z M15.7,13.1
		c0-0.1-0.1-0.3-0.2-0.4c-0.1-0.1-0.2-0.2-0.4-0.2c-0.4,0-0.5,0.2-0.5,0.5c0,0.4,0.2,0.5,0.5,0.5S15.7,13.4,15.7,13.1z"/>
	<path d="M22,14h-0.9V9c0-0.7-0.3-1-1-1c-0.4,0-0.8,0.2-1.2,0.7l-0.1-0.4c0.4-0.5,1-0.8,1.6-0.8C21.4,7.6,22,8,22,8.9V14z"/>
	<path d="M28.3,13.3L27.7,14h-0.3v-0.9l-1.5-2.4l-1.6,2.5V14h-0.9V8.7c0-0.3,0.1-0.6,0.4-0.8c0.3-0.2,0.5-0.3,0.9-0.3
		c0.7,0,1,0.3,1,0.9c0,0.3-0.1,0.5-0.2,0.6c-0.2,0.2-0.4,0.3-0.6,0.3c-0.3,0-0.5,0-0.6-0.1v3l1.6-2.5l1.5,2.4V7.6h0.9V13.3z
		 M25.4,8.5c0-0.3-0.2-0.5-0.5-0.5s-0.5,0.2-0.5,0.5S24.6,9,24.9,9S25.4,8.9,25.4,8.5z"/>
	<path d="M34.4,14h-0.9v-3.3c0-0.3-0.2-0.6-0.5-0.8c-0.3-0.2-0.6-0.3-1-0.3c-0.3,0-0.6,0.1-0.8,0.4c-0.2,0.2-0.3,0.5-0.3,0.8v1.3
		c0.1-0.1,0.3-0.1,0.4-0.1c0.3,0,0.5,0.1,0.7,0.3s0.3,0.4,0.3,0.7c0,0.7-0.4,1-1.1,1c-0.4,0-0.7-0.1-0.9-0.4
		c-0.2-0.2-0.3-0.5-0.3-0.9v-1.9c0-0.5,0.2-0.9,0.6-1.2c0.4-0.3,0.8-0.5,1.3-0.5c0.7,0,1.2,0.3,1.6,0.8V9.3c0-0.4-0.2-0.7-0.6-0.9
		c-0.3-0.2-0.7-0.3-1.1-0.3c-0.8,0-1.5,0.4-2.1,1.1l-0.1-0.5c0.6-0.8,1.4-1.1,2.3-1.1c0.6,0,1.2,0.1,1.7,0.4
		c0.6,0.3,0.9,0.8,0.9,1.4V14z M31.9,13c0-0.2-0.1-0.3-0.2-0.4s-0.3-0.2-0.4-0.2s-0.3,0.1-0.4,0.2s-0.2,0.3-0.2,0.4
		c0,0.2,0.1,0.3,0.2,0.4s0.3,0.2,0.4,0.2c0.2,0,0.4-0.1,0.5-0.3C31.9,13.3,31.9,13.2,31.9,13z"/>
	<path d="M40.8,14h-0.9V9.4c0-0.2-0.1-0.4-0.3-0.6c-0.2-0.2-0.3-0.4-0.5-0.4l-0.7,0.9l-0.9-1.1c-0.3,0.1-0.6,0.3-0.9,0.7
		c-0.2,0.3-0.3,0.7-0.3,1.1c0,0.4,0.2,0.8,0.6,1.3c0.1,0.1,0.2,0.2,0.3,0.5c0.1,0.2,0.2,0.4,0.2,0.5c0,0,0.2-0.2,0.4-0.3
		c0,0,0.1-0.1,0.3-0.3c-0.6,0-0.9-0.4-0.9-1c0-0.3,0.1-0.5,0.3-0.7s0.4-0.3,0.7-0.3c0.7,0,1,0.3,1,1c0,0.4-0.3,0.9-0.9,1.5l-0.7,0.7
		c-0.1,0.1-0.2,0.3-0.2,0.5V14h-0.9v-2c0-0.1-0.1-0.2-0.2-0.5c-0.3-0.6-0.4-1.1-0.4-1.6c0-0.5,0.2-0.9,0.6-1.4
		c0.4-0.4,0.8-0.7,1.2-0.9l0.8,0.9l0.8-0.9c0.4,0.1,0.8,0.3,1.1,0.6c0.3,0.3,0.5,0.7,0.5,1.2V14z M38.8,10.5c0-0.2-0.1-0.3-0.2-0.4
		s-0.3-0.2-0.4-0.2s-0.3,0.1-0.4,0.2s-0.2,0.3-0.2,0.4c0,0.2,0.1,0.3,0.2,0.4s0.3,0.2,0.4,0.2c0.2,0,0.3-0.1,0.4-0.2
		S38.8,10.7,38.8,10.5z"/>
	<path d="M43.7,10.9v1.6c0,0.3,0.1,0.6,0.4,0.8c0.2,0.2,0.5,0.3,0.9,0.3c0.3,0,0.6-0.1,0.9-0.3c0.3-0.2,0.4-0.4,0.4-0.7V9.4
		c0-0.9-0.6-1.3-1.9-1.3c-0.8,0-1.4,0.4-1.8,1.3l-0.3-0.2c0.4-1,1.2-1.5,2.5-1.5c0.6,0,1.1,0.1,1.6,0.4c0.5,0.3,0.8,0.8,0.8,1.4v3.2
		c0,0.4-0.3,0.7-0.8,1C45.8,13.9,45.3,14,45,14c-0.4,0-0.9-0.1-1.4-0.4c-0.5-0.3-0.8-0.7-0.8-1.1v-2.3c0-0.8,0.4-1.1,1.2-1.1
		c0.3,0,0.5,0.1,0.7,0.3C44.9,9.5,45,9.8,45,10c0,0.6-0.3,0.9-1,0.9C43.9,11,43.8,11,43.7,10.9z M44.6,10.1c0-0.4-0.2-0.6-0.5-0.6
		c-0.4,0-0.6,0.2-0.6,0.5c0,0.4,0.2,0.6,0.5,0.6C44.4,10.6,44.6,10.4,44.6,10.1z"/>
	<path d="M49.3,14v-0.4h0.7V9.4c-0.2,0.1-0.4,0.2-0.6,0.2c-0.6,0-1-0.3-1-1c0-0.3,0.1-0.6,0.4-0.7c0.2-0.2,0.5-0.3,0.8-0.3
		c0.8,0,1.3,0.4,1.3,1.3v4.7h1.7c0.5,0,0.7-0.3,0.7-0.8V7.6h0.9v5.2c0,0.3-0.1,0.5-0.2,0.8c-0.2,0.3-0.4,0.4-0.6,0.4H49.3z M50,8.7
		c0-0.4-0.2-0.6-0.6-0.6c-0.2,0-0.3,0.1-0.4,0.2s-0.2,0.2-0.2,0.4S48.9,9,49,9.1s0.2,0.2,0.4,0.2C49.8,9.2,50,9,50,8.7z"/>
	<path d="M56,12.3V8.2l0.6-0.6h0.2v4.5c0.2,0,0.4,0.1,0.6,0.3c0.1,0.2,0.2,0.4,0.2,0.6c0,0.7-0.3,1-0.9,1c-0.3,0-0.5-0.1-0.7-0.3
		s-0.3-0.4-0.3-0.7C55.7,12.8,55.8,12.6,56,12.3z M57.3,13.1c0-0.4-0.2-0.6-0.6-0.6c-0.4,0-0.6,0.2-0.6,0.6c0,0.2,0.1,0.3,0.2,0.4
		s0.3,0.2,0.4,0.2C57.1,13.7,57.3,13.5,57.3,13.1z M59.2,12.3V8.2l0.6-0.6H60v4.5c0.2,0,0.4,0.1,0.6,0.3s0.2,0.4,0.2,0.6
		c0,0.7-0.3,1-1,1c-0.3,0-0.5-0.1-0.7-0.3s-0.3-0.4-0.3-0.7C58.9,12.8,59,12.6,59.2,12.3z M60.5,13c0-0.4-0.2-0.6-0.6-0.6
		c-0.4,0-0.6,0.2-0.6,0.6c0,0.4,0.2,0.7,0.6,0.7C60.3,13.7,60.5,13.5,60.5,13z"/>
	<path d="M67.5,14h-1V9c0-0.4-0.2-0.7-0.5-0.7c-0.2,0-0.4,0-0.5,0.1c-0.1,0.1-0.2,0.4-0.3,0.8L64.1,14h-0.9V9.4
		c-0.1,0.1-0.3,0.1-0.5,0.1c-0.7,0-1-0.3-1-1c0-0.3,0.1-0.5,0.3-0.7c0.2-0.2,0.5-0.2,0.8-0.2c0.4,0,0.7,0.1,0.9,0.3s0.3,0.5,0.3,0.9
		v3.5L65,8.9c0.2-0.9,0.6-1.3,1.2-1.3c0.4,0,0.8,0.1,1,0.4c0.2,0.3,0.4,0.6,0.4,1V14z M63.3,8.6c0-0.4-0.2-0.6-0.6-0.6
		c-0.2,0-0.3,0.1-0.4,0.2s-0.2,0.3-0.2,0.4s0.1,0.3,0.2,0.4s0.2,0.2,0.4,0.2c0.2,0,0.3-0.1,0.4-0.2S63.3,8.7,63.3,8.6z"/>
	<path d="M73.4,12.4c-0.5,0-1,0.1-1.5,0.4c-0.5,0.3-0.8,0.7-0.8,1.2h-0.9V9.3c-0.1,0.1-0.3,0.1-0.5,0.1c-0.3,0-0.5-0.1-0.6-0.2
		S69,8.8,69,8.6c0-0.6,0.4-1,1.1-1c0.8,0,1.2,0.4,1.2,1.2v4.1c0.5-0.6,1.2-0.9,2.1-0.9c0.1,0,0.2,0,0.4,0V8.2l0.6-0.6h0.3V12
		l-0.2,0.2c0.3,0.2,0.5,0.5,0.5,0.9c0,0.6-0.3,0.9-0.9,0.9c-0.6,0-0.9-0.3-0.9-0.9C73.1,12.8,73.2,12.5,73.4,12.4z M70.4,8.5
		c0-0.3-0.2-0.5-0.5-0.5s-0.5,0.2-0.5,0.5c0,0.3,0.2,0.5,0.5,0.5S70.4,8.9,70.4,8.5z M74.6,13.1c0-0.4-0.2-0.6-0.6-0.6
		c-0.4,0-0.6,0.2-0.6,0.6c0,0.4,0.2,0.5,0.6,0.5C74.4,13.7,74.6,13.5,74.6,13.1z"/>
	<path d="M81.3,14h-0.9V9.4c0-0.2-0.1-0.4-0.3-0.6c-0.2-0.2-0.3-0.4-0.5-0.4l-0.7,0.9L78,8.1c-0.3,0.1-0.6,0.3-0.9,0.7
		c-0.2,0.3-0.3,0.7-0.3,1.1c0,0.4,0.2,0.8,0.6,1.3c0.1,0.1,0.2,0.2,0.3,0.5c0.1,0.2,0.2,0.4,0.2,0.5c0,0,0.2-0.2,0.4-0.3
		c0,0,0.1-0.1,0.3-0.3c-0.6,0-0.9-0.4-0.9-1c0-0.3,0.1-0.5,0.3-0.7s0.4-0.3,0.7-0.3c0.7,0,1,0.3,1,1c0,0.4-0.3,0.9-0.9,1.5l-0.7,0.7
		c-0.1,0.1-0.2,0.3-0.2,0.5V14H77v-2c0-0.1-0.1-0.2-0.2-0.5c-0.3-0.6-0.4-1.1-0.4-1.6c0-0.5,0.2-0.9,0.6-1.4
		c0.4-0.4,0.8-0.7,1.2-0.9l0.8,0.9l0.8-0.9c0.4,0.1,0.8,0.3,1.1,0.6c0.3,0.3,0.5,0.7,0.5,1.2V14z M79.3,10.5c0-0.2-0.1-0.3-0.2-0.4
		s-0.3-0.2-0.4-0.2s-0.3,0.1-0.4,0.2s-0.2,0.3-0.2,0.4c0,0.2,0.1,0.3,0.2,0.4s0.3,0.2,0.4,0.2c0.2,0,0.3-0.1,0.4-0.2
		S79.3,10.7,79.3,10.5z"/>
	<path d="M81.1,0.7l-0.2,2h-0.6l-0.2-2H81.1z"/>
	<path d="M84.2,10.9v1.6c0,0.3,0.1,0.6,0.4,0.8c0.2,0.2,0.5,0.3,0.9,0.3c0.3,0,0.6-0.1,0.9-0.3c0.3-0.2,0.4-0.4,0.4-0.7V9.4
		c0-0.9-0.6-1.3-1.9-1.3c-0.8,0-1.4,0.4-1.8,1.3l-0.3-0.2c0.4-1,1.2-1.5,2.5-1.5c0.6,0,1.1,0.1,1.6,0.4c0.5,0.3,0.8,0.8,0.8,1.4v3.2
		c0,0.4-0.3,0.7-0.8,1c-0.5,0.3-0.9,0.4-1.3,0.4c-0.4,0-0.9-0.1-1.4-0.4c-0.5-0.3-0.8-0.7-0.8-1.1v-2.3c0-0.8,0.4-1.1,1.2-1.1
		c0.3,0,0.5,0.1,0.7,0.3c0.2,0.2,0.3,0.4,0.3,0.7c0,0.6-0.3,0.9-1,0.9C84.4,11,84.3,11,84.2,10.9z M85.1,10.1c0-0.4-0.2-0.6-0.5-0.6
		C84.2,9.5,84,9.7,84,10c0,0.4,0.2,0.6,0.5,0.6C84.9,10.6,85.1,10.4,85.1,10.1z"/>
	<path d="M89.8,14v-0.4h0.7V9.4c-0.2,0.1-0.4,0.2-0.6,0.2c-0.6,0-1-0.3-1-1c0-0.3,0.1-0.6,0.4-0.7c0.2-0.2,0.5-0.3,0.8-0.3
		c0.8,0,1.3,0.4,1.3,1.3v4.7h1.7c0.5,0,0.7-0.3,0.7-0.8V4.4l0.6-0.7h0.3v9.1c0,0.3-0.1,0.5-0.2,0.8c-0.2,0.3-0.4,0.4-0.6,0.4H89.8z
		 M90.5,8.7c0-0.4-0.2-0.6-0.6-0.6c-0.2,0-0.3,0.1-0.4,0.2s-0.2,0.2-0.2,0.4s0.1,0.3,0.2,0.4s0.2,0.2,0.4,0.2
		C90.3,9.2,90.5,9,90.5,8.7z"/>
	<path d="M94.8,6.6c-0.4-0.2-1-0.3-1.7-0.5C92.4,6,91.8,6,91.3,6c-0.4,0-0.9,0.1-1.6,0.2c0.1-0.6,0.3-1.1,0.8-1.5s1-0.6,1.6-0.6
		c0.6,0,1.1,0.1,1.5,0.4v-1h0.9v2C94.7,5.9,94.8,6.3,94.8,6.6z M94.2,6.1c-0.4-1-1.1-1.5-2.2-1.5c-0.8,0-1.4,0.4-1.9,1.1
		c0.5-0.1,0.9-0.1,1.3-0.1C92.4,5.7,93.4,5.8,94.2,6.1z"/>
	<path d="M96.6,9.3c0.1-0.2,0.3-0.3,0.7-0.3c0.5,0,0.7,0.2,0.7,0.7c0,0.6-0.3,0.9-0.8,0.9c-0.3,0-0.6-0.1-0.7-0.4
		c-0.1-0.2-0.2-0.5-0.2-0.8c0-1.2,0.5-1.7,1.5-1.7c0.4,0,0.7,0.1,1,0.3c0.3,0.2,0.4,0.5,0.4,0.9V13c0,0.4,0.2,0.6,0.6,0.6
		c0.4,0,0.5-0.2,0.5-0.6V8.3l0.7-0.7h0.2v5c0,0.4-0.1,0.7-0.4,1s-0.6,0.4-1,0.4c-0.4,0-0.8-0.1-1-0.4s-0.4-0.6-0.4-1V9.3
		c0-0.7-0.3-1.1-0.8-1.1C96.9,8.2,96.6,8.6,96.6,9.3z M97.6,9.8c0-0.3-0.1-0.5-0.4-0.5c-0.3,0-0.5,0.2-0.5,0.5
		c0,0.3,0.1,0.5,0.4,0.5C97.5,10.3,97.6,10.1,97.6,9.8z"/>
	<path d="M104,10.9v1.6c0,0.3,0.1,0.6,0.4,0.8c0.2,0.2,0.5,0.3,0.9,0.3c0.3,0,0.6-0.1,0.9-0.3c0.3-0.2,0.4-0.4,0.4-0.7V9.4
		c0-0.9-0.6-1.3-1.9-1.3c-0.8,0-1.4,0.4-1.8,1.3l-0.3-0.2c0.4-1,1.2-1.5,2.5-1.5c0.6,0,1.1,0.1,1.6,0.4c0.5,0.3,0.8,0.8,0.8,1.4v3.2
		c0,0.4-0.3,0.7-0.8,1c-0.5,0.3-0.9,0.4-1.3,0.4c-0.4,0-0.9-0.1-1.4-0.4c-0.5-0.3-0.8-0.7-0.8-1.1v-2.3c0-0.8,0.4-1.1,1.2-1.1
		c0.3,0,0.5,0.1,0.7,0.3c0.2,0.2,0.3,0.4,0.3,0.7c0,0.6-0.3,0.9-1,0.9C104.3,11,104.2,11,104,10.9z M104.9,10.1
		c0-0.4-0.2-0.6-0.5-0.6c-0.4,0-0.6,0.2-0.6,0.5c0,0.4,0.2,0.6,0.5,0.6C104.8,10.6,104.9,10.4,104.9,10.1z"/>
	<path d="M112.5,14h-0.9l-2.7-3.4v-0.4l2.7,2.5V9.4c-0.1,0.1-0.3,0.1-0.5,0.1c-0.3,0-0.5-0.1-0.6-0.3c-0.1-0.2-0.2-0.4-0.2-0.6
		c0-0.3,0.1-0.5,0.3-0.7c0.2-0.2,0.5-0.3,0.8-0.3c0.7,0,1.1,0.4,1.1,1.3V14z M111.8,8.6c0-0.4-0.2-0.6-0.5-0.6s-0.5,0.2-0.5,0.6
		c0,0.4,0.2,0.5,0.5,0.5S111.8,9,111.8,8.6z"/>
	<path d="M120,7.1c0,0.9-0.3,1.5-1,1.8V14h-0.9v-3.3c0-0.4-0.2-0.6-0.6-0.8c-0.3-0.2-0.6-0.2-1-0.2c-0.6,0-1,0.4-1,1.2v1.4
		c0.1,0,0.2,0,0.3,0c0.6,0,0.9,0.3,0.9,0.9c0,0.3-0.1,0.5-0.3,0.7s-0.4,0.3-0.7,0.3c-0.8,0-1.2-0.4-1.2-1.3v-1.9
		c0-0.5,0.2-0.9,0.6-1.3c0.4-0.3,0.8-0.5,1.3-0.5c0.2,0,0.4,0,0.5,0.1l0.7-0.3c-0.4-0.5-0.9-0.7-1.5-0.7c-0.8,0-1.5,0.4-2.1,1.2
		l-0.3-0.3c0.8-1,1.6-1.5,2.4-1.5c1,0,1.7,0.3,2.3,0.8c0.4-0.2,0.5-0.7,0.5-1.4H120z M116.5,13c0-0.2-0.1-0.3-0.2-0.4
		s-0.2-0.2-0.4-0.2s-0.3,0.1-0.4,0.2s-0.2,0.2-0.2,0.4c0,0.4,0.2,0.6,0.6,0.6c0.2,0,0.4-0.1,0.5-0.3C116.4,13.3,116.5,13.2,116.5,13
		z M118.1,9.1l-0.6,0.2c0.2,0,0.4,0.2,0.7,0.5l0.1,0.1c0,0,0-0.1,0-0.1C118.3,9.5,118.2,9.3,118.1,9.1z"/>
	<path d="M120,6.4c-1.1-0.5-2.3-0.8-3.6-0.8c-0.3,0-0.8,0.1-1.4,0.2c0.1-0.6,0.4-1.1,0.9-1.5c0.5-0.4,1-0.6,1.7-0.6
		c0.8,0,1.4,0.3,1.8,0.8C119.8,5,120,5.7,120,6.4z M119.6,5.8c-0.1-0.4-0.4-0.7-0.7-1c-0.4-0.3-0.7-0.5-1.1-0.5c-1,0-1.7,0.3-2.2,1
		c0.4-0.1,0.8-0.1,1.1-0.1C117.6,5.3,118.6,5.5,119.6,5.8z"/>
	<path d="M125.5,12.4c-0.5,0-1,0.1-1.5,0.4c-0.5,0.3-0.8,0.7-0.8,1.2h-0.9V9.3c-0.1,0.1-0.3,0.1-0.5,0.1c-0.3,0-0.5-0.1-0.6-0.2
		S121,8.8,121,8.6c0-0.6,0.4-1,1.1-1c0.8,0,1.2,0.4,1.2,1.2v4.1c0.5-0.6,1.2-0.9,2.1-0.9c0.1,0,0.2,0,0.4,0V8.2l0.6-0.6h0.3V12
		l-0.2,0.2c0.3,0.2,0.5,0.5,0.5,0.9c0,0.6-0.3,0.9-0.9,0.9c-0.6,0-0.9-0.3-0.9-0.9C125.1,12.8,125.3,12.5,125.5,12.4z M122.4,8.5
		c0-0.3-0.2-0.5-0.5-0.5s-0.5,0.2-0.5,0.5c0,0.3,0.2,0.5,0.5,0.5S122.4,8.9,122.4,8.5z M126.6,13.1c0-0.4-0.2-0.6-0.6-0.6
		c-0.4,0-0.6,0.2-0.6,0.6c0,0.4,0.2,0.5,0.6,0.5C126.4,13.7,126.6,13.5,126.6,13.1z"/>
	<path d="M134.1,14h-1V9c0-0.4-0.2-0.7-0.5-0.7c-0.2,0-0.4,0-0.5,0.1c-0.1,0.1-0.2,0.4-0.3,0.8l-1.2,4.8h-0.9V9.4
		c-0.1,0.1-0.3,0.1-0.5,0.1c-0.7,0-1-0.3-1-1c0-0.3,0.1-0.5,0.3-0.7c0.2-0.2,0.5-0.2,0.8-0.2c0.4,0,0.7,0.1,0.9,0.3s0.3,0.5,0.3,0.9
		v3.5l0.9-3.4c0.2-0.9,0.6-1.3,1.2-1.3c0.4,0,0.8,0.1,1,0.4c0.2,0.3,0.4,0.6,0.4,1V14z M129.9,8.6c0-0.4-0.2-0.6-0.6-0.6
		c-0.2,0-0.3,0.1-0.4,0.2s-0.2,0.3-0.2,0.4s0.1,0.3,0.2,0.4s0.2,0.2,0.4,0.2c0.2,0,0.3-0.1,0.4-0.2S129.9,8.7,129.9,8.6z"/>
	<path d="M139.6,7.6c-0.2,0.8-0.5,1.1-0.9,1.1c-0.2,0-0.5-0.1-1-0.2s-0.8-0.2-0.9-0.2c-0.4,0-0.6,0.2-0.7,0.7l2.8,0.9v3
		c0,0.4-0.1,0.7-0.4,0.9c-0.2,0.2-0.5,0.3-0.9,0.3c-0.7,0-1-0.3-1-0.9c0-0.6,0.3-0.9,0.9-0.9c0.2,0,0.4,0,0.5,0.1V9.9l-2.5-0.8
		c0-0.3,0.2-0.7,0.4-1c0.3-0.4,0.6-0.6,0.9-0.6c0.3,0,0.7,0.1,1.3,0.3c0.2,0.1,0.5,0.1,0.8,0.1C139.1,8,139.3,7.9,139.6,7.6z
		 M138.1,13.1c0-0.1-0.1-0.3-0.2-0.4c-0.1-0.1-0.2-0.2-0.4-0.2c-0.4,0-0.5,0.2-0.5,0.5c0,0.4,0.2,0.5,0.5,0.5S138.1,13.4,138.1,13.1
		z"/>
	<path d="M141,4.1c0,0.7-0.3,1.3-0.8,1.7c-0.5,0.4-1.1,0.7-1.8,0.7c-0.5,0-0.9-0.1-1.2-0.3c-0.4-0.2-0.6-0.6-0.6-1.1
		c0-0.3,0.1-0.5,0.3-0.7s0.5-0.3,0.7-0.3c0.8,0,1.2,0.4,1.2,1.1c0,0.3-0.1,0.5-0.3,0.7c0.5,0,1-0.2,1.3-0.5c0.4-0.3,0.5-0.8,0.5-1.3
		H141z M138.5,5.1c0-0.2-0.1-0.3-0.2-0.5s-0.3-0.2-0.5-0.2s-0.3,0.1-0.5,0.2s-0.2,0.3-0.2,0.5s0.1,0.3,0.2,0.5s0.3,0.2,0.5,0.2
		c0.2,0,0.3-0.1,0.5-0.2S138.5,5.3,138.5,5.1z"/>
	<path d="M147,14h-0.9l-1.4-5.5l-1.5,5.5h-0.9V9.4c-0.1,0.1-0.3,0.1-0.4,0.1c-0.7,0-1-0.3-1-0.9c0-0.3,0.1-0.5,0.3-0.7
		s0.4-0.3,0.7-0.3c0.3,0,0.6,0.1,0.8,0.2c0.3,0.2,0.4,0.4,0.4,0.7v3.9l1.3-4.8h0.4l1.2,4.6V7.6h0.9V14z M142.5,8.6
		c0-0.4-0.2-0.5-0.6-0.5c-0.4,0-0.5,0.2-0.5,0.5c0,0.4,0.2,0.6,0.5,0.6C142.3,9.1,142.5,8.9,142.5,8.6z"/>
	<path d="M149.3,10.2c-0.2-0.1-0.3-0.3-0.4-0.5c-0.1-0.3-0.2-0.5-0.2-0.7c0-0.4,0.1-0.7,0.4-1s0.6-0.4,0.9-0.4
		c0.3,0,0.5,0.1,0.7,0.2s0.3,0.4,0.3,0.6c0,0.7-0.3,1-0.9,1c-0.3,0-0.6-0.2-0.8-0.5c0,0.7,0.3,1,1,1h0.5v0.4h-0.4
		c-0.6,0-0.9,0.3-0.9,0.8v1.3c0,0.3,0.1,0.5,0.4,0.8c0.2,0.2,0.5,0.3,0.8,0.3s0.6-0.1,0.8-0.2c0.3-0.2,0.4-0.4,0.4-0.7V8.3l0.5-0.7
		h0.4v4.9c0,0.4-0.2,0.7-0.7,1.1c-0.4,0.3-0.8,0.4-1.2,0.4c-0.6,0-1.1-0.1-1.5-0.4c-0.5-0.3-0.7-0.7-0.7-1.3v-0.9
		c0-0.2,0.1-0.4,0.2-0.7C148.9,10.5,149.1,10.3,149.3,10.2z M150.5,8.5c0-0.3-0.2-0.5-0.5-0.5c-0.3,0-0.5,0.2-0.5,0.5
		c0,0.3,0.2,0.5,0.5,0.5C150.3,9,150.5,8.9,150.5,8.5z"/>
	<path d="M154.9,0.7c-0.2,0.8-0.7,1.2-1.4,1.4c0.1,0.1,0.2,0.3,0.2,0.5c0,0.6-0.3,0.8-0.8,0.8c-0.2,0-0.4-0.1-0.6-0.2
		S152,2.9,152,2.7c0-0.5,0.3-0.8,1-1c0.5-0.1,0.8-0.3,1-0.4c0.2-0.2,0.3-0.5,0.3-1L154.9,0.7z M153.3,2.7c0-0.3-0.2-0.5-0.5-0.5
		c-0.3,0-0.5,0.2-0.5,0.5c0,0.3,0.2,0.4,0.5,0.4C153.2,3.1,153.3,3,153.3,2.7z"/>
	<path d="M154.7,14v-0.4h0.7V9.4c-0.2,0.1-0.4,0.2-0.6,0.2c-0.6,0-1-0.3-1-1c0-0.3,0.1-0.6,0.4-0.7c0.2-0.2,0.5-0.3,0.8-0.3
		c0.8,0,1.3,0.4,1.3,1.3v4.7h1.7c0.5,0,0.7-0.3,0.7-0.8V4.4l0.6-0.7h0.3v9.1c0,0.3-0.1,0.5-0.2,0.8c-0.2,0.3-0.4,0.4-0.6,0.4H154.7z
		 M155.4,8.7c0-0.4-0.2-0.6-0.6-0.6c-0.2,0-0.3,0.1-0.4,0.2s-0.2,0.2-0.2,0.4s0.1,0.3,0.2,0.4s0.2,0.2,0.4,0.2
		C155.2,9.2,155.4,9,155.4,8.7z"/>
	<path d="M165.2,7.6c-0.2,0.8-0.5,1.1-0.9,1.1c-0.2,0-0.5-0.1-1-0.2s-0.8-0.2-0.9-0.2c-0.4,0-0.6,0.2-0.7,0.7l2.8,0.9v3
		c0,0.4-0.1,0.7-0.4,0.9c-0.2,0.2-0.5,0.3-0.9,0.3c-0.7,0-1-0.3-1-0.9c0-0.6,0.3-0.9,0.9-0.9c0.2,0,0.4,0,0.5,0.1V9.9l-2.5-0.8
		c0-0.3,0.2-0.7,0.4-1c0.3-0.4,0.6-0.6,0.9-0.6c0.3,0,0.7,0.1,1.3,0.3C164,8,164.2,8,164.5,8C164.7,8,164.9,7.9,165.2,7.6z
		 M163.7,13.1c0-0.1-0.1-0.3-0.2-0.4c-0.1-0.1-0.2-0.2-0.4-0.2c-0.4,0-0.5,0.2-0.5,0.5c0,0.4,0.2,0.5,0.5,0.5S163.7,13.4,163.7,13.1
		z"/>
	<path d="M170.9,7.8c0,0.7-0.3,1.3-0.8,1.7c-0.5,0.4-1.1,0.7-1.8,0.7c-0.5,0-0.9-0.1-1.2-0.3c-0.4-0.3-0.6-0.6-0.6-1.1
		c0-0.3,0.1-0.5,0.3-0.7s0.5-0.3,0.7-0.3c0.8,0,1.2,0.4,1.2,1.1c0,0.3-0.1,0.5-0.3,0.7c0.5,0,1-0.2,1.3-0.5c0.4-0.3,0.5-0.8,0.5-1.3
		H170.9z M170.9,11.6c0,0.7-0.3,1.3-0.8,1.7c-0.5,0.4-1.1,0.7-1.8,0.7c-0.5,0-0.9-0.1-1.2-0.3c-0.4-0.2-0.6-0.6-0.6-1.1
		c0-0.3,0.1-0.5,0.3-0.7s0.5-0.3,0.7-0.3c0.8,0,1.2,0.4,1.2,1.1c0,0.3-0.1,0.5-0.3,0.7c0.7,0,1.3-0.3,1.6-0.9
		c0.2-0.3,0.2-0.6,0.2-0.9H170.9z M168.4,8.8c0-0.2-0.1-0.3-0.2-0.5s-0.3-0.2-0.5-0.2c-0.2,0-0.3,0.1-0.5,0.2s-0.2,0.3-0.2,0.5
		c0,0.2,0.1,0.3,0.2,0.5s0.3,0.2,0.5,0.2c0.2,0,0.3-0.1,0.5-0.2S168.4,9,168.4,8.8z M168.4,12.6c0-0.2-0.1-0.3-0.2-0.5
		s-0.3-0.2-0.5-0.2c-0.2,0-0.3,0.1-0.5,0.2s-0.2,0.3-0.2,0.5c0,0.2,0.1,0.3,0.2,0.5s0.3,0.2,0.5,0.2s0.3-0.1,0.5-0.2
		S168.4,12.8,168.4,12.6z"/>
	<path d="M172.6,12.3V8.2l0.6-0.6h0.2v4.5c0.2,0,0.4,0.1,0.6,0.3c0.1,0.2,0.2,0.4,0.2,0.6c0,0.7-0.3,1-0.9,1c-0.3,0-0.5-0.1-0.7-0.3
		s-0.3-0.4-0.3-0.7C172.3,12.8,172.4,12.6,172.6,12.3z M173.9,13c0-0.4-0.2-0.6-0.6-0.6c-0.2,0-0.3,0.1-0.4,0.2s-0.2,0.3-0.2,0.4
		c0,0.4,0.2,0.7,0.6,0.7C173.7,13.7,173.9,13.5,173.9,13z"/>
	<path d="M180.2,13.2l-0.5,0.8h-0.4V9.4c0-0.8-0.6-1.2-1.8-1.2c-0.8,0-1.4,0.3-1.6,1h1.9v0.4H177V13c0,0.3-0.1,0.5-0.3,0.7
		c-0.2,0.2-0.5,0.2-0.8,0.2c-0.3,0-0.5-0.1-0.6-0.3c-0.2-0.2-0.3-0.4-0.3-0.7c0-0.7,0.4-1,1.1-1V9.7h-0.7V9.5c0-0.5,0.3-1,0.9-1.3
		c0.5-0.3,1.1-0.5,1.6-0.5c0.6,0,1.1,0.2,1.5,0.5c0.5,0.4,0.8,0.8,0.8,1.4V13.2z M176.5,13c0-0.4-0.2-0.5-0.5-0.5s-0.5,0.2-0.5,0.5
		c0,0.4,0.2,0.5,0.5,0.5S176.5,13.4,176.5,13z"/>
	<path d="M187.4,14h-1V9c0-0.4-0.2-0.7-0.5-0.7c-0.2,0-0.4,0-0.5,0.1c-0.1,0.1-0.2,0.4-0.3,0.8L184,14h-0.9V9.4
		c-0.1,0.1-0.3,0.1-0.5,0.1c-0.7,0-1-0.3-1-1c0-0.3,0.1-0.5,0.3-0.7c0.2-0.2,0.5-0.2,0.8-0.2c0.4,0,0.7,0.1,0.9,0.3s0.3,0.5,0.3,0.9
		v3.5l0.9-3.4c0.2-0.9,0.6-1.3,1.2-1.3c0.4,0,0.8,0.1,1,0.4c0.2,0.3,0.4,0.6,0.4,1V14z M183.2,8.6c0-0.4-0.2-0.6-0.6-0.6
		c-0.2,0-0.3,0.1-0.4,0.2S182,8.4,182,8.6s0.1,0.3,0.2,0.4s0.2,0.2,0.4,0.2c0.2,0,0.3-0.1,0.4-0.2S183.2,8.7,183.2,8.6z"/>
	<path d="M193.8,14h-0.9V9.4c0-0.2-0.1-0.4-0.3-0.6c-0.2-0.2-0.3-0.4-0.5-0.4l-0.7,0.9l-0.9-1.1c-0.3,0.1-0.6,0.3-0.9,0.7
		c-0.2,0.3-0.3,0.7-0.3,1.1c0,0.4,0.2,0.8,0.6,1.3c0.1,0.1,0.2,0.2,0.3,0.5c0.1,0.2,0.2,0.4,0.2,0.5c0,0,0.2-0.2,0.4-0.3
		c0,0,0.1-0.1,0.3-0.3c-0.6,0-0.9-0.4-0.9-1c0-0.3,0.1-0.5,0.3-0.7s0.4-0.3,0.7-0.3c0.7,0,1,0.3,1,1c0,0.4-0.3,0.9-0.9,1.5l-0.7,0.7
		c-0.1,0.1-0.2,0.3-0.2,0.5V14h-0.9v-2c0-0.1-0.1-0.2-0.2-0.5c-0.3-0.6-0.4-1.1-0.4-1.6c0-0.5,0.2-0.9,0.6-1.4
		c0.4-0.4,0.8-0.7,1.2-0.9l0.8,0.9l0.8-0.9c0.4,0.1,0.8,0.3,1.1,0.6c0.3,0.3,0.5,0.7,0.5,1.2V14z M191.8,10.5c0-0.2-0.1-0.3-0.2-0.4
		s-0.3-0.2-0.4-0.2s-0.3,0.1-0.4,0.2s-0.2,0.3-0.2,0.4c0,0.2,0.1,0.3,0.2,0.4s0.3,0.2,0.4,0.2c0.2,0,0.3-0.1,0.4-0.2
		S191.8,10.7,191.8,10.5z"/>
	<path d="M193.6,0.7l-0.2,2h-0.6l-0.2-2H193.6z"/>
	<path d="M198.5,14h-0.9V9c0-0.7-0.3-1-1-1c-0.4,0-0.8,0.2-1.2,0.7l-0.1-0.4c0.4-0.5,1-0.8,1.6-0.8c1.1,0,1.7,0.4,1.7,1.3V14z"/>
	<path d="M203.4,14h-0.9l-2.7-3.4v-0.4l2.7,2.5V9.4c-0.1,0.1-0.3,0.1-0.5,0.1c-0.3,0-0.5-0.1-0.6-0.3c-0.1-0.2-0.2-0.4-0.2-0.6
		c0-0.3,0.1-0.5,0.3-0.7c0.2-0.2,0.5-0.3,0.8-0.3c0.7,0,1.1,0.4,1.1,1.3V14z M202.7,8.6c0-0.4-0.2-0.6-0.5-0.6s-0.5,0.2-0.5,0.6
		c0,0.4,0.2,0.5,0.5,0.5S202.7,9,202.7,8.6z"/>
	<path d="M212.5,16h-0.9V9.2c0-0.2-0.1-0.4-0.3-0.6c-0.2-0.2-0.4-0.3-0.6-0.3c-0.1,0-0.1,0-0.2,0.1L210,9l-0.5-0.5
		c-0.1-0.2-0.3-0.2-0.4-0.2c-0.3,0-0.6,0.2-0.9,0.5c-0.2,0.3-0.4,0.7-0.4,1c0,0.6,0.2,0.9,0.7,0.9c0.2,0,0.3-0.1,0.3-0.3
		c0-0.2-0.1-0.4-0.3-0.5l0.4-0.3c0.4,0.1,0.6,0.4,0.6,0.8c0,0.5-0.2,0.7-0.7,0.7c-0.9,0-1.3-0.4-1.3-1.2c0-0.5,0.2-0.9,0.6-1.4
		c0.4-0.5,0.8-0.8,1.3-0.8l0.7,0.8l0.7-0.8c0.4,0.1,0.8,0.2,1.1,0.5c0.4,0.3,0.7,0.7,0.7,1V16z"/>
</g>
<g>
	<path d="M92.2,243.3l-0.5,1.1h-2.6l-0.6,1.2c1,0.1,1.8,0.5,2.4,1c0.7,0.6,1.1,1.4,1.1,2.3c0,0.9-0.3,1.7-1,2.3
		c-0.7,0.6-1.5,1-2.4,1c-1,0-1.5-0.3-1.5-0.9c0-0.3,0.2-0.5,0.5-0.5c0.2,0,0.4,0.1,0.7,0.3c0.3,0.2,0.6,0.3,1,0.3
		c0.5,0,1-0.2,1.3-0.6s0.5-0.8,0.5-1.4c0-1-0.4-1.7-1.3-2.2c-0.7-0.4-1.5-0.6-2.6-0.7l1.7-3.4H92.2z"/>
	<path d="M98,252v-0.5h0.9v-5.2c-0.2,0.2-0.4,0.2-0.7,0.2c-0.8,0-1.2-0.4-1.2-1.3c0-0.4,0.1-0.7,0.4-0.9c0.3-0.2,0.6-0.3,1-0.3
		c1,0,1.6,0.5,1.6,1.6v5.9h2.2c0.6,0,0.9-0.3,0.9-1V240l0.7-0.9h0.4v11.4c0,0.4-0.1,0.7-0.2,1c-0.2,0.3-0.5,0.5-0.8,0.5H98z
		 M98.9,245.3c0-0.5-0.2-0.7-0.7-0.7c-0.2,0-0.4,0.1-0.5,0.2c-0.1,0.1-0.2,0.3-0.2,0.5s0.1,0.4,0.2,0.5c0.1,0.1,0.3,0.2,0.5,0.2
		C98.6,246,98.9,245.8,98.9,245.3z"/>
	<path d="M104.2,242.8c-0.6-0.2-1.3-0.4-2.2-0.6c-0.9-0.2-1.6-0.2-2.2-0.2c-0.5,0-1.1,0.1-2,0.3c0.1-0.8,0.4-1.4,1-1.9
		s1.2-0.7,2-0.7c0.7,0,1.4,0.2,1.9,0.5v-1.3h1.1v2.5C104.1,241.9,104.2,242.4,104.2,242.8z M103.5,242.2c-0.5-1.2-1.4-1.9-2.8-1.9
		c-1,0-1.8,0.5-2.3,1.4c0.6-0.1,1.1-0.2,1.7-0.2C101.3,241.6,102.4,241.8,103.5,242.2z"/>
</g>
<g>
	<path d="M294.8,252h-3.3v-0.2c0.3,0,0.5,0,0.6,0c0.2,0,0.4-0.1,0.5-0.3c0.1-0.1,0.1-0.4,0.1-1v-4.7c0-0.6,0-0.9,0-1
		c-0.1-0.4-0.2-0.7-0.5-0.7c-0.2,0-0.4,0.1-0.7,0.2l-0.1-0.2l2.1-1h0.2v7.4c0,0.7,0.1,1,0.3,1.2c0.1,0.1,0.4,0.1,0.8,0.1V252z"/>
	<path d="M302.5,247.5c0,1.1-0.2,2.1-0.6,2.9c-0.5,1.1-1.3,1.7-2.3,1.7c-0.9,0-1.6-0.5-2.2-1.6c-0.4-0.9-0.6-1.8-0.6-2.8
		c0-1.1,0.2-2.1,0.6-2.9c0.5-1.1,1.3-1.7,2.2-1.7c0.6,0,1.1,0.2,1.5,0.7c0.4,0.4,0.7,0.9,0.9,1.5
		C302.4,245.9,302.5,246.7,302.5,247.5z M301.3,247.3c0-2.5-0.5-3.8-1.5-3.8c-1.1,0-1.6,1.4-1.6,4.3c0,0.9,0.1,1.6,0.2,2.3
		c0.3,1.1,0.7,1.6,1.3,1.6C300.7,251.8,301.3,250.3,301.3,247.3z"/>
	<path d="M307.9,252v-0.5h0.9v-5.2c-0.2,0.2-0.4,0.2-0.7,0.2c-0.8,0-1.2-0.4-1.2-1.3c0-0.4,0.1-0.7,0.4-0.9c0.3-0.2,0.6-0.3,1-0.3
		c1,0,1.6,0.5,1.6,1.6v5.9h2.2c0.6,0,0.9-0.3,0.9-1V240l0.7-0.9h0.4v11.4c0,0.4-0.1,0.7-0.2,1c-0.2,0.3-0.5,0.5-0.8,0.5H307.9z
		 M308.8,245.3c0-0.5-0.2-0.7-0.7-0.7c-0.2,0-0.4,0.1-0.5,0.2c-0.1,0.1-0.2,0.3-0.2,0.5s0.1,0.4,0.2,0.5c0.1,0.1,0.3,0.2,0.5,0.2
		C308.5,246,308.8,245.8,308.8,245.3z"/>
	<path d="M314.1,242.8c-0.6-0.2-1.3-0.4-2.2-0.6c-0.9-0.2-1.6-0.2-2.2-0.2c-0.5,0-1.1,0.1-2,0.3c0.1-0.8,0.4-1.4,1-1.9
		s1.2-0.7,2-0.7c0.7,0,1.4,0.2,1.9,0.5v-1.3h1.1v2.5C314,241.9,314.1,242.4,314.1,242.8z M313.4,242.2c-0.5-1.2-1.4-1.9-2.8-1.9
		c-1,0-1.8,0.5-2.3,1.4c0.6-0.1,1.1-0.2,1.7-0.2C311.2,241.6,312.3,241.8,313.4,242.2z"/>
</g>
<g>
	<path d="M500.3,250.3l-0.6,1.7h-5.2v-0.2c1.2-1.1,2-1.9,2.6-2.6c1-1.2,1.5-2.3,1.5-3.2c0-0.5-0.2-1-0.5-1.3
		c-0.3-0.4-0.8-0.6-1.3-0.6c-0.9,0-1.6,0.5-1.9,1.5h-0.2c0.2-1.6,1.1-2.5,2.5-2.5c0.7,0,1.3,0.2,1.7,0.6c0.5,0.4,0.8,1,0.8,1.7
		c0,1-0.7,2.4-2.2,4c-0.9,0.9-1.4,1.5-1.6,1.7h2.3c0.5,0,0.9,0,1.1-0.1c0.4-0.1,0.6-0.3,0.8-0.6H500.3z"/>
	<path d="M507,247.5c0,1.1-0.2,2.1-0.6,2.9c-0.5,1.1-1.3,1.7-2.3,1.7c-0.9,0-1.6-0.5-2.2-1.6c-0.4-0.9-0.6-1.8-0.6-2.8
		c0-1.1,0.2-2.1,0.6-2.9c0.5-1.1,1.3-1.7,2.2-1.7c0.6,0,1.1,0.2,1.5,0.7c0.4,0.4,0.7,0.9,0.9,1.5C506.9,245.9,507,246.7,507,247.5z
		 M505.7,247.3c0-2.5-0.5-3.8-1.5-3.8c-1.1,0-1.6,1.4-1.6,4.3c0,0.9,0.1,1.6,0.2,2.3c0.3,1.1,0.7,1.6,1.3,1.6
		C505.2,251.8,505.7,250.3,505.7,247.3z"/>
	<path d="M515.7,252v-0.5h0.9v-5.2c-0.2,0.2-0.4,0.2-0.7,0.2c-0.8,0-1.2-0.4-1.2-1.3c0-0.4,0.1-0.7,0.4-0.9c0.3-0.2,0.6-0.3,1-0.3
		c1,0,1.6,0.5,1.6,1.6v5.9h2.2c0.6,0,0.9-0.3,0.9-1V240l0.7-0.9h0.4v11.4c0,0.4-0.1,0.7-0.2,1c-0.2,0.3-0.5,0.5-0.8,0.5H515.7z
		 M516.5,245.3c0-0.5-0.2-0.7-0.7-0.7c-0.2,0-0.4,0.1-0.5,0.2c-0.1,0.1-0.2,0.3-0.2,0.5s0.1,0.4,0.2,0.5c0.1,0.1,0.3,0.2,0.5,0.2
		C516.3,246,516.5,245.8,516.5,245.3z"/>
	<path d="M521.9,242.8c-0.6-0.2-1.3-0.4-2.2-0.6c-0.9-0.2-1.6-0.2-2.2-0.2c-0.5,0-1.1,0.1-2,0.3c0.1-0.8,0.4-1.4,1-1.9
		s1.2-0.7,2-0.7c0.7,0,1.4,0.2,1.9,0.5v-1.3h1.1v2.5C521.7,241.9,521.9,242.4,521.9,242.8z M521.2,242.2c-0.5-1.2-1.4-1.9-2.8-1.9
		c-1,0-1.8,0.5-2.3,1.4c0.6-0.1,1.1-0.2,1.7-0.2C518.9,241.6,520.1,241.8,521.2,242.2z"/>
</g>
<g>
	<path d="M623.4,184.6v1.2c0,0.2,0.1,0.4,0.3,0.6c0.2,0.1,0.4,0.2,0.6,0.2c0.2,0,0.4-0.1,0.6-0.2c0.2-0.1,0.3-0.3,0.3-0.5v-2.4
		c0-0.7-0.5-1-1.4-1c-0.6,0-1,0.3-1.4,0.9l-0.2-0.1c0.3-0.8,0.9-1.1,1.9-1.1c0.5,0,0.9,0.1,1.2,0.3c0.4,0.2,0.6,0.6,0.6,1v2.4
		c0,0.3-0.2,0.5-0.6,0.8c-0.4,0.2-0.7,0.3-1,0.3c-0.3,0-0.7-0.1-1-0.3c-0.4-0.2-0.6-0.5-0.6-0.8v-1.7c0-0.6,0.3-0.9,0.9-0.9
		c0.2,0,0.4,0.1,0.5,0.2c0.1,0.1,0.2,0.3,0.2,0.5c0,0.5-0.3,0.7-0.8,0.7C623.5,184.7,623.4,184.7,623.4,184.6z M624,184
		c0-0.3-0.1-0.4-0.4-0.4c-0.3,0-0.4,0.1-0.4,0.4c0,0.3,0.1,0.4,0.4,0.4C623.9,184.4,624,184.3,624,184z"/>
	<path d="M631.6,181.7c0,0.7-0.2,1.1-0.7,1.3v3.9h-0.7v-2.5c0-0.3-0.1-0.5-0.4-0.6c-0.2-0.1-0.5-0.2-0.8-0.2c-0.5,0-0.7,0.3-0.7,0.9
		v1c0.1,0,0.1,0,0.2,0c0.5,0,0.7,0.2,0.7,0.7c0,0.2-0.1,0.4-0.2,0.5c-0.1,0.1-0.3,0.2-0.5,0.2c-0.6,0-0.9-0.3-0.9-1v-1.4
		c0-0.4,0.2-0.7,0.5-1c0.3-0.3,0.6-0.4,1-0.4c0.2,0,0.3,0,0.4,0l0.5-0.2c-0.3-0.3-0.6-0.5-1.1-0.5c-0.6,0-1.1,0.3-1.6,0.9l-0.2-0.2
		c0.6-0.7,1.2-1.1,1.8-1.1c0.7,0,1.3,0.2,1.7,0.6c0.3-0.2,0.4-0.5,0.4-1H631.6z M628.9,186.2c0-0.1,0-0.2-0.1-0.3s-0.2-0.1-0.3-0.1
		s-0.2,0-0.3,0.1s-0.1,0.2-0.1,0.3c0,0.3,0.1,0.4,0.4,0.4c0.2,0,0.3-0.1,0.4-0.2C628.9,186.4,628.9,186.3,628.9,186.2z M630.1,183.2
		l-0.5,0.1c0.1,0,0.3,0.2,0.5,0.4l0.1,0.1c0,0,0,0,0-0.1C630.3,183.6,630.2,183.4,630.1,183.2z"/>
	<path d="M632.3,179.5c0,0.5-0.2,0.9-0.6,1.3c-0.4,0.3-0.8,0.5-1.3,0.5c-0.4,0-0.7-0.1-0.9-0.2c-0.3-0.2-0.4-0.4-0.4-0.8
		c0-0.2,0.1-0.4,0.2-0.5s0.3-0.2,0.5-0.2c0.6,0,0.9,0.3,0.9,0.8c0,0.2-0.1,0.4-0.2,0.5c0.4,0,0.7-0.1,1-0.4c0.3-0.3,0.4-0.6,0.4-1
		H632.3z M630.4,180.3c0-0.1,0-0.3-0.1-0.3s-0.2-0.1-0.3-0.1s-0.3,0-0.3,0.1c-0.1,0.1-0.1,0.2-0.1,0.3s0,0.3,0.1,0.3
		c0.1,0.1,0.2,0.1,0.3,0.1c0.1,0,0.3,0,0.3-0.1S630.4,180.4,630.4,180.3z"/>
	<path d="M635,186.9h-0.7l-2-2.5v-0.3l2,1.8v-2.5c-0.1,0.1-0.2,0.1-0.4,0.1c-0.2,0-0.3-0.1-0.5-0.2c-0.1-0.1-0.2-0.3-0.2-0.5
		c0-0.2,0.1-0.4,0.2-0.5c0.2-0.1,0.3-0.2,0.6-0.2c0.6,0,0.8,0.3,0.8,1V186.9z M634.4,182.9c0-0.3-0.1-0.4-0.4-0.4s-0.4,0.1-0.4,0.4
		c0,0.3,0.1,0.4,0.4,0.4S634.4,183.2,634.4,182.9z"/>
	<path d="M640.2,183.5l0.1,0.3v3.1h-0.7v-3.3c-0.2,0-0.6,0.3-1.1,0.8c-0.5,0.5-0.8,0.9-0.8,1.1v1.3h-0.7v-3.5
		c-0.1,0-0.2,0.1-0.3,0.1c-0.5,0-0.7-0.2-0.7-0.7c0-0.2,0.1-0.4,0.2-0.5s0.3-0.2,0.5-0.2c0.6,0,0.9,0.3,0.9,0.8v2
		c0.3-0.4,0.6-0.7,0.9-1l0.4-0.3c0.1-0.1,0.2-0.2,0.4-0.3c-0.1-0.1-0.2-0.3-0.2-0.5c0-0.2,0.1-0.4,0.2-0.5s0.3-0.2,0.5-0.2
		c0.4,0,0.7,0.2,0.7,0.7C640.6,183.2,640.4,183.4,640.2,183.5z M637.1,182.9c0-0.3-0.1-0.4-0.4-0.4s-0.4,0.1-0.4,0.4
		c0,0.3,0.1,0.4,0.4,0.4S637.1,183.1,637.1,182.9z M640.3,182.9c0-0.3-0.1-0.4-0.4-0.4s-0.4,0.1-0.4,0.4s0.1,0.4,0.4,0.4
		S640.3,183.1,640.3,182.9z"/>
	<path d="M644.1,186.9h-0.7v-3.7c0-0.5-0.3-0.7-0.8-0.7c-0.3,0-0.6,0.2-0.9,0.5l-0.1-0.3c0.3-0.4,0.7-0.6,1.2-0.6
		c0.8,0,1.3,0.3,1.3,0.9V186.9z"/>
	<path d="M648.1,182.1c-0.1,0.6-0.4,0.8-0.7,0.8c-0.1,0-0.4-0.1-0.7-0.2s-0.6-0.2-0.7-0.2c-0.3,0-0.4,0.2-0.5,0.5l2.1,0.6v2.3
		c0,0.3-0.1,0.5-0.3,0.7c-0.2,0.1-0.4,0.2-0.7,0.2c-0.5,0-0.8-0.2-0.8-0.7c0-0.5,0.2-0.7,0.7-0.7c0.2,0,0.3,0,0.4,0.1v-1.7l-1.9-0.6
		c0-0.2,0.1-0.5,0.3-0.8c0.2-0.3,0.4-0.4,0.7-0.4c0.2,0,0.5,0.1,1,0.2c0.2,0,0.3,0.1,0.6,0.1C647.8,182.4,647.9,182.3,648.1,182.1z
		 M647,186.2c0-0.1,0-0.2-0.1-0.3c-0.1-0.1-0.2-0.1-0.3-0.1c-0.3,0-0.4,0.1-0.4,0.4c0,0.3,0.1,0.4,0.4,0.4
		C646.9,186.6,647,186.5,647,186.2z"/>
	<path d="M648.4,181.3c-0.8-0.4-1.7-0.6-2.7-0.6c-0.3,0-0.6,0-1,0.1c0.1-0.5,0.3-0.8,0.7-1.1c0.4-0.3,0.8-0.4,1.3-0.4
		c0.6,0,1,0.2,1.4,0.6C648.3,180.2,648.4,180.7,648.4,181.3z M648.1,180.8c-0.1-0.3-0.3-0.6-0.5-0.8c-0.3-0.2-0.6-0.3-0.9-0.3
		c-0.7,0-1.3,0.3-1.6,0.8c0.3,0,0.6-0.1,0.8-0.1C646.7,180.4,647.4,180.5,648.1,180.8z"/>
	<path d="M650.8,185.8v0.4c0,0.2-0.1,0.4-0.2,0.5c-0.1,0.1-0.3,0.2-0.5,0.2c-0.5,0-0.7-0.2-0.7-0.7c0-0.5,0.3-0.8,0.8-0.8v-1.9
		c-0.1,0-0.2,0.1-0.3,0.1c-0.2,0-0.3-0.1-0.5-0.2c-0.1-0.1-0.2-0.3-0.2-0.5c0-0.2,0.1-0.4,0.2-0.5c0.1-0.1,0.3-0.2,0.6-0.2
		c0.2,0,0.4,0.1,0.6,0.2c0.2,0.1,0.3,0.3,0.3,0.6v2.4c0.2,0.2,0.5,0.4,0.7,0.6c0.4,0.3,0.6,0.4,0.8,0.4c0.1,0,0.2-0.1,0.2-0.4v-3.2
		l0.4-0.6h0.2v4c0,0.2-0.1,0.4-0.2,0.5c-0.1,0.2-0.3,0.3-0.5,0.3c-0.2,0-0.5-0.2-1.1-0.7C651.2,186.1,651,186,650.8,185.8z
		 M650.3,182.9c0-0.1,0-0.2-0.1-0.3s-0.2-0.1-0.3-0.1c-0.1,0-0.2,0-0.3,0.1s-0.1,0.2-0.1,0.3c0,0.1,0,0.2,0.1,0.3s0.2,0.1,0.3,0.1
		c0.1,0,0.2,0,0.3-0.1S650.3,183,650.3,182.9z M650.2,186.4v-0.7c-0.3,0-0.5,0.2-0.5,0.5c0,0.3,0.1,0.4,0.3,0.4
		C650.1,186.6,650.2,186.5,650.2,186.4z"/>
	<path d="M658.5,186.9h-0.7v-3.8c0-0.3-0.1-0.5-0.4-0.5c-0.2,0-0.3,0-0.4,0.1c-0.1,0.1-0.2,0.3-0.2,0.6l-0.9,3.6h-0.7v-3.4
		c-0.1,0.1-0.2,0.1-0.3,0.1c-0.5,0-0.7-0.2-0.7-0.7c0-0.2,0.1-0.4,0.2-0.5c0.2-0.1,0.3-0.2,0.6-0.2c0.3,0,0.5,0.1,0.7,0.2
		c0.2,0.2,0.3,0.4,0.3,0.7v2.6l0.7-2.6c0.2-0.6,0.5-1,0.9-1c0.3,0,0.6,0.1,0.7,0.3c0.2,0.2,0.3,0.5,0.3,0.8V186.9z M655.4,182.9
		c0-0.3-0.1-0.4-0.4-0.4c-0.1,0-0.2,0-0.3,0.1c-0.1,0.1-0.1,0.2-0.1,0.3s0,0.2,0.1,0.3c0.1,0.1,0.2,0.1,0.3,0.1c0.1,0,0.2,0,0.3-0.1
		C655.4,183.1,655.4,183,655.4,182.9z"/>
	<path d="M662.7,182.1c-0.1,0.6-0.4,0.8-0.7,0.8c-0.1,0-0.4-0.1-0.7-0.2s-0.6-0.2-0.7-0.2c-0.3,0-0.4,0.2-0.5,0.5l2.1,0.6v2.3
		c0,0.3-0.1,0.5-0.3,0.7c-0.2,0.1-0.4,0.2-0.7,0.2c-0.5,0-0.8-0.2-0.8-0.7c0-0.5,0.2-0.7,0.7-0.7c0.2,0,0.3,0,0.4,0.1v-1.7l-1.9-0.6
		c0-0.2,0.1-0.5,0.3-0.8c0.2-0.3,0.4-0.4,0.7-0.4c0.2,0,0.5,0.1,1,0.2c0.2,0,0.3,0.1,0.6,0.1C662.3,182.4,662.5,182.3,662.7,182.1z
		 M661.5,186.2c0-0.1,0-0.2-0.1-0.3c-0.1-0.1-0.2-0.1-0.3-0.1c-0.3,0-0.4,0.1-0.4,0.4c0,0.3,0.1,0.4,0.4,0.4
		C661.4,186.6,661.5,186.5,661.5,186.2z"/>
	<path d="M663.7,179.5c0,0.5-0.2,0.9-0.6,1.3c-0.4,0.3-0.8,0.5-1.3,0.5c-0.4,0-0.7-0.1-0.9-0.2c-0.3-0.2-0.4-0.4-0.4-0.8
		c0-0.2,0.1-0.4,0.2-0.5s0.3-0.2,0.5-0.2c0.6,0,0.9,0.3,0.9,0.8c0,0.2-0.1,0.4-0.2,0.5c0.4,0,0.7-0.1,1-0.4c0.3-0.3,0.4-0.6,0.4-1
		H663.7z M661.8,180.3c0-0.1,0-0.3-0.1-0.3s-0.2-0.1-0.3-0.1s-0.3,0-0.3,0.1c-0.1,0.1-0.1,0.2-0.1,0.3s0,0.3,0.1,0.3
		c0.1,0.1,0.2,0.1,0.3,0.1c0.1,0,0.3,0,0.3-0.1S661.8,180.4,661.8,180.3z"/>
	<path d="M668.2,186.9h-0.7l-1.1-4.1l-1.1,4.1h-0.7v-3.5c-0.1,0-0.2,0.1-0.3,0.1c-0.5,0-0.7-0.2-0.7-0.7c0-0.2,0.1-0.4,0.2-0.5
		c0.1-0.1,0.3-0.2,0.5-0.2c0.2,0,0.4,0.1,0.6,0.2c0.2,0.1,0.3,0.3,0.3,0.5v2.9l1-3.6h0.3l0.9,3.5v-3.5h0.7V186.9z M664.8,182.9
		c0-0.3-0.1-0.4-0.4-0.4c-0.3,0-0.4,0.1-0.4,0.4c0,0.3,0.1,0.4,0.4,0.4C664.7,183.3,664.8,183.1,664.8,182.9z"/>
	<path d="M669.9,184.1c-0.1-0.1-0.2-0.2-0.3-0.4c-0.1-0.2-0.1-0.4-0.1-0.5c0-0.3,0.1-0.5,0.3-0.7s0.4-0.3,0.7-0.3
		c0.2,0,0.4,0.1,0.5,0.2c0.1,0.1,0.2,0.3,0.2,0.5c0,0.5-0.2,0.7-0.6,0.7c-0.3,0-0.5-0.1-0.6-0.3c0,0.5,0.3,0.8,0.8,0.8h0.4v0.3h-0.3
		c-0.4,0-0.6,0.2-0.6,0.6v1c0,0.2,0.1,0.4,0.3,0.6c0.2,0.1,0.4,0.2,0.6,0.2s0.4-0.1,0.6-0.2c0.2-0.1,0.3-0.3,0.3-0.5v-3.2l0.4-0.5
		h0.3v3.7c0,0.3-0.2,0.6-0.5,0.8c-0.3,0.2-0.6,0.3-0.9,0.3c-0.4,0-0.8-0.1-1.1-0.3c-0.4-0.2-0.6-0.6-0.6-1V185c0-0.2,0-0.3,0.1-0.5
		C669.7,184.3,669.8,184.2,669.9,184.1z M670.8,182.8c0-0.2-0.1-0.4-0.4-0.4c-0.2,0-0.4,0.1-0.4,0.4c0,0.2,0.1,0.4,0.4,0.4
		C670.7,183.2,670.8,183.1,670.8,182.8z"/>
	<path d="M674.2,176.9c-0.1,0.6-0.5,0.9-1.1,1.1c0.1,0.1,0.1,0.2,0.1,0.4c0,0.4-0.2,0.6-0.6,0.6c-0.2,0-0.3-0.1-0.5-0.2
		s-0.2-0.3-0.2-0.4c0-0.4,0.2-0.6,0.7-0.8c0.4-0.1,0.6-0.2,0.8-0.3c0.2-0.2,0.2-0.4,0.2-0.8L674.2,176.9z M673,178.4
		c0-0.3-0.1-0.4-0.4-0.4c-0.3,0-0.4,0.1-0.4,0.4c0,0.2,0.1,0.3,0.4,0.3C672.9,178.8,673,178.7,673,178.4z"/>
</g>
<g>
	<path d="M626.4,204.9l0.1,0.3v3.1h-0.7v-3.3c-0.2,0-0.6,0.3-1.1,0.8c-0.5,0.5-0.8,0.9-0.8,1.1v1.3h-0.7v-3.5
		c-0.1,0-0.2,0.1-0.3,0.1c-0.5,0-0.7-0.2-0.7-0.7c0-0.2,0.1-0.4,0.2-0.5s0.3-0.2,0.5-0.2c0.6,0,0.9,0.3,0.9,0.8v2
		c0.3-0.4,0.6-0.7,0.9-1l0.4-0.3c0.1-0.1,0.2-0.2,0.4-0.3c-0.1-0.1-0.2-0.3-0.2-0.5c0-0.2,0.1-0.4,0.2-0.5s0.3-0.2,0.5-0.2
		c0.4,0,0.7,0.2,0.7,0.7C626.8,204.6,626.7,204.8,626.4,204.9z M623.3,204.3c0-0.3-0.1-0.4-0.4-0.4s-0.4,0.1-0.4,0.4
		c0,0.3,0.1,0.4,0.4,0.4S623.3,204.5,623.3,204.3z M626.5,204.3c0-0.3-0.1-0.4-0.4-0.4s-0.4,0.1-0.4,0.4s0.1,0.4,0.4,0.4
		S626.5,204.6,626.5,204.3z"/>
	<path d="M626.8,210.7h-0.7V210c-0.1,0-0.2,0-0.2,0c-0.4,0-0.7-0.2-0.7-0.6c0-0.2,0.1-0.4,0.2-0.5c0.1-0.1,0.3-0.2,0.5-0.2
		c0.5,0,0.8,0.3,0.8,0.9V210.7z M626.2,209.4c0-0.3-0.1-0.4-0.4-0.4c-0.3,0-0.4,0.1-0.4,0.4c0,0.2,0.1,0.4,0.4,0.4
		S626.2,209.6,626.2,209.4z"/>
	<path d="M628.1,197.3c0,1.6-0.8,2.4-2.4,2.4v-0.3c0.2,0,0.4-0.1,0.5-0.2c0.2-0.1,0.3-0.3,0.3-0.5c-0.5,0-0.8-0.2-0.8-0.6
		c0-0.2,0.1-0.3,0.2-0.4s0.2-0.2,0.4-0.2c0.4,0,0.7,0.3,0.7,0.8c0,0.4-0.2,0.7-0.5,1c0.8-0.3,1.2-1,1.2-2.1H628.1z M626.7,198.1
		c0-0.2-0.1-0.4-0.3-0.4c-0.2,0-0.3,0.1-0.3,0.4c0,0.2,0.1,0.3,0.3,0.3C626.6,198.5,626.7,198.3,626.7,198.1z"/>
	<path d="M631.2,207.2c-0.4,0-0.8,0.1-1.1,0.3c-0.4,0.2-0.6,0.5-0.6,0.9h-0.7v-3.5c-0.1,0.1-0.2,0.1-0.4,0.1c-0.2,0-0.3-0.1-0.5-0.2
		c-0.1-0.1-0.2-0.3-0.2-0.5c0-0.5,0.3-0.7,0.8-0.7c0.6,0,0.9,0.3,0.9,0.9v3.1c0.4-0.5,0.9-0.7,1.6-0.7c0.1,0,0.2,0,0.3,0V204
		l0.5-0.5h0.2v3.3L632,207c0.3,0.2,0.4,0.4,0.4,0.7c0,0.5-0.2,0.7-0.7,0.7c-0.5,0-0.7-0.2-0.7-0.7
		C631,207.4,631.1,207.3,631.2,207.2z M629,204.2c0-0.3-0.1-0.4-0.4-0.4s-0.4,0.1-0.4,0.4c0,0.3,0.1,0.4,0.4,0.4
		S629,204.5,629,204.2z M632.1,207.7c0-0.3-0.1-0.4-0.4-0.4c-0.3,0-0.4,0.1-0.4,0.4c0,0.3,0.1,0.4,0.4,0.4
		C632,208.1,632.1,208,632.1,207.7z"/>
</g>
<g>
	<path d="M626.8,227.9h-0.7l-1.1-4.1l-1.1,4.1h-0.7v-3.5c-0.1,0-0.2,0.1-0.3,0.1c-0.5,0-0.7-0.2-0.7-0.7c0-0.2,0.1-0.4,0.2-0.5
		c0.1-0.1,0.3-0.2,0.5-0.2c0.2,0,0.4,0.1,0.6,0.2c0.2,0.1,0.3,0.3,0.3,0.5v2.9l1-3.6h0.3l0.9,3.5v-3.5h0.7V227.9z M623.4,223.8
		c0-0.3-0.1-0.4-0.4-0.4c-0.3,0-0.4,0.1-0.4,0.4c0,0.3,0.1,0.4,0.4,0.4C623.2,224.2,623.4,224.1,623.4,223.8z"/>
	<path d="M627.8,220.4c0,0.5-0.2,0.9-0.6,1.3c-0.4,0.3-0.8,0.5-1.3,0.5c-0.4,0-0.7-0.1-0.9-0.2c-0.3-0.2-0.4-0.4-0.4-0.8
		c0-0.2,0.1-0.4,0.2-0.5s0.3-0.2,0.5-0.2c0.6,0,0.9,0.3,0.9,0.8c0,0.2-0.1,0.4-0.2,0.5c0.4,0,0.7-0.1,1-0.4c0.3-0.3,0.4-0.6,0.4-1
		H627.8z M626,221.2c0-0.1,0-0.3-0.1-0.3s-0.2-0.1-0.3-0.1s-0.3,0-0.3,0.1c-0.1,0.1-0.1,0.2-0.1,0.3s0,0.3,0.1,0.3
		c0.1,0.1,0.2,0.1,0.3,0.1c0.1,0,0.3,0,0.3-0.1S626,221.3,626,221.2z"/>
	<path d="M631.2,226.7c-0.4,0-0.8,0.1-1.1,0.3c-0.4,0.2-0.6,0.5-0.6,0.9h-0.7v-3.5c-0.1,0.1-0.2,0.1-0.4,0.1c-0.2,0-0.3-0.1-0.5-0.2
		c-0.1-0.1-0.2-0.3-0.2-0.5c0-0.5,0.3-0.7,0.8-0.7c0.6,0,0.9,0.3,0.9,0.9v3.1c0.4-0.5,0.9-0.7,1.6-0.7c0.1,0,0.2,0,0.3,0v-2.9
		l0.5-0.5h0.2v3.3l-0.2,0.2c0.3,0.2,0.4,0.4,0.4,0.7c0,0.5-0.2,0.7-0.7,0.7c-0.5,0-0.7-0.2-0.7-0.7C631,227,631,226.8,631.2,226.7z
		 M628.9,223.8c0-0.3-0.1-0.4-0.4-0.4s-0.4,0.1-0.4,0.4c0,0.3,0.1,0.4,0.4,0.4S628.9,224,628.9,223.8z M632.1,227.2
		c0-0.3-0.1-0.4-0.4-0.4c-0.3,0-0.4,0.1-0.4,0.4c0,0.3,0.1,0.4,0.4,0.4C631.9,227.6,632.1,227.5,632.1,227.2z"/>
	<path d="M634.7,223.5l0.4,0.5v0.3l1.6,0.5v2.3c0,0.2-0.1,0.4-0.2,0.6c-0.1,0.2-0.3,0.2-0.5,0.2h-2v-0.3h0.5v-3l-1.1-0.3
		c0-0.3,0.2-0.6,0.5-0.9c0.3-0.2,0.6-0.3,1-0.3c0.3,0,0.7,0.1,1.2,0.3c0.1,0.1,0.3,0.1,0.4,0.1c0.2,0,0.3-0.1,0.4-0.3l0-0.1
		c0,0,0,0,0,0.1c0,0.2-0.1,0.4-0.2,0.6c-0.1,0.2-0.3,0.3-0.5,0.3c-0.2,0-0.5-0.1-0.9-0.3c-0.1,0-0.2-0.1-0.4-0.2L634.7,223.5z
		 M634.5,224.2v-0.7c-0.3,0-0.6,0.2-0.7,0.5L634.5,224.2z M636,227v-2l-0.9-0.3v2.9h0.4C635.9,227.6,636,227.4,636,227z"/>
	<path d="M638.5,227.9v-0.3h0.5v-3.1c-0.1,0.1-0.3,0.1-0.4,0.1c-0.5,0-0.7-0.3-0.7-0.8c0-0.2,0.1-0.4,0.3-0.6
		c0.2-0.1,0.4-0.2,0.6-0.2c0.6,0,0.9,0.3,0.9,0.9v3.6h1.3c0.4,0,0.6-0.2,0.6-0.6v-3.9h0.7v3.9c0,0.2,0,0.4-0.1,0.6
		c-0.1,0.2-0.3,0.3-0.5,0.3H638.5z M639,223.9c0-0.3-0.1-0.4-0.4-0.4c-0.1,0-0.2,0-0.3,0.1c-0.1,0.1-0.1,0.2-0.1,0.3s0,0.2,0.1,0.3
		s0.2,0.1,0.3,0.1C638.9,224.3,639,224.2,639,223.9z"/>
	<path d="M643.3,220.4c0,0.5-0.2,0.9-0.6,1.3c-0.4,0.3-0.8,0.5-1.3,0.5c-0.4,0-0.7-0.1-0.9-0.2c-0.3-0.2-0.4-0.4-0.4-0.8
		c0-0.2,0.1-0.4,0.2-0.5s0.3-0.2,0.5-0.2c0.6,0,0.9,0.3,0.9,0.8c0,0.2-0.1,0.4-0.2,0.5c0.4,0,0.7-0.1,1-0.4c0.3-0.3,0.4-0.6,0.4-1
		H643.3z M641.4,221.2c0-0.1,0-0.3-0.1-0.3s-0.2-0.1-0.3-0.1s-0.3,0-0.3,0.1c-0.1,0.1-0.1,0.2-0.1,0.3s0,0.3,0.1,0.3
		c0.1,0.1,0.2,0.1,0.3,0.1c0.1,0,0.3,0,0.3-0.1S641.4,221.3,641.4,221.2z"/>
	<path d="M647,227.9h-0.7v-3.5c0-0.1-0.1-0.3-0.2-0.4c-0.1-0.2-0.3-0.3-0.4-0.3l-0.5,0.7l-0.7-0.8c-0.3,0.1-0.5,0.3-0.7,0.5
		c-0.2,0.3-0.2,0.5-0.2,0.8c0,0.3,0.1,0.6,0.4,1c0.1,0.1,0.1,0.2,0.2,0.3c0.1,0.2,0.1,0.3,0.1,0.4c0,0,0.1-0.1,0.3-0.3
		c0,0,0.1-0.1,0.2-0.2c-0.4,0-0.7-0.3-0.7-0.7c0-0.2,0.1-0.4,0.2-0.5c0.1-0.1,0.3-0.2,0.5-0.2c0.5,0,0.7,0.2,0.7,0.7
		c0,0.3-0.2,0.7-0.7,1.1l-0.5,0.5c-0.1,0.1-0.1,0.2-0.2,0.3v0.6h-0.7v-1.5c0,0-0.1-0.2-0.2-0.4c-0.2-0.4-0.3-0.8-0.3-1.2
		c0-0.4,0.1-0.7,0.4-1c0.3-0.3,0.6-0.5,0.9-0.7l0.6,0.7l0.6-0.7c0.3,0.1,0.6,0.2,0.8,0.5c0.3,0.3,0.4,0.5,0.4,0.9V227.9z
		 M645.6,225.3c0-0.1,0-0.2-0.1-0.3s-0.2-0.1-0.3-0.1s-0.2,0-0.3,0.1c-0.1,0.1-0.1,0.2-0.1,0.3c0,0.1,0,0.2,0.1,0.3s0.2,0.1,0.3,0.1
		c0.1,0,0.2,0,0.3-0.1S645.6,225.4,645.6,225.3z"/>
	<path d="M651.2,223.1c-0.1,0.6-0.4,0.8-0.7,0.8c-0.1,0-0.4-0.1-0.7-0.2s-0.6-0.2-0.7-0.2c-0.3,0-0.4,0.2-0.5,0.5l2.1,0.6v2.3
		c0,0.3-0.1,0.5-0.3,0.7c-0.2,0.1-0.4,0.2-0.7,0.2c-0.5,0-0.8-0.2-0.8-0.7c0-0.5,0.2-0.7,0.7-0.7c0.2,0,0.3,0,0.4,0.1v-1.7l-1.9-0.6
		c0-0.2,0.1-0.5,0.3-0.8c0.2-0.3,0.4-0.4,0.7-0.4c0.2,0,0.5,0.1,1,0.2c0.2,0,0.3,0.1,0.6,0.1C650.8,223.4,651,223.3,651.2,223.1z
		 M650,227.2c0-0.1,0-0.2-0.1-0.3c-0.1-0.1-0.2-0.1-0.3-0.1c-0.3,0-0.4,0.1-0.4,0.4c0,0.3,0.1,0.4,0.4,0.4
		C649.9,227.6,650,227.4,650,227.2z"/>
	<path d="M655.3,223.1c-0.1,0.6-0.4,0.8-0.7,0.8c-0.1,0-0.4-0.1-0.7-0.2s-0.6-0.2-0.7-0.2c-0.3,0-0.4,0.2-0.5,0.5l2.1,0.6v2.3
		c0,0.3-0.1,0.5-0.3,0.7c-0.2,0.1-0.4,0.2-0.7,0.2c-0.5,0-0.8-0.2-0.8-0.7c0-0.5,0.2-0.7,0.7-0.7c0.2,0,0.3,0,0.4,0.1v-1.7l-1.9-0.6
		c0-0.2,0.1-0.5,0.3-0.8c0.2-0.3,0.4-0.4,0.7-0.4c0.2,0,0.5,0.1,1,0.2c0.2,0,0.3,0.1,0.6,0.1C654.9,223.4,655.1,223.3,655.3,223.1z
		 M654.1,227.2c0-0.1,0-0.2-0.1-0.3c-0.1-0.1-0.2-0.1-0.3-0.1c-0.3,0-0.4,0.1-0.4,0.4c0,0.3,0.1,0.4,0.4,0.4
		C654,227.6,654.1,227.4,654.1,227.2z"/>
	<path d="M656.3,220.4c0,0.5-0.2,0.9-0.6,1.3c-0.4,0.3-0.8,0.5-1.3,0.5c-0.4,0-0.7-0.1-0.9-0.2c-0.3-0.2-0.4-0.4-0.4-0.8
		c0-0.2,0.1-0.4,0.2-0.5s0.3-0.2,0.5-0.2c0.6,0,0.9,0.3,0.9,0.8c0,0.2-0.1,0.4-0.2,0.5c0.4,0,0.7-0.1,1-0.4c0.3-0.3,0.4-0.6,0.4-1
		H656.3z M654.5,221.2c0-0.1,0-0.3-0.1-0.3s-0.2-0.1-0.3-0.1s-0.3,0-0.3,0.1c-0.1,0.1-0.1,0.2-0.1,0.3s0,0.3,0.1,0.3
		c0.1,0.1,0.2,0.1,0.3,0.1c0.1,0,0.3,0,0.3-0.1S654.5,221.3,654.5,221.2z"/>
	<path d="M657.8,230c0,0,0-0.1,0-0.3c0-0.3-0.1-0.6-0.3-0.8c0,0.5-0.2,0.7-0.6,0.7s-0.6-0.2-0.6-0.6c0-0.1,0.1-0.3,0.2-0.4
		c0.1-0.1,0.3-0.2,0.4-0.2c0.1,0,0.3,0,0.4,0c0-0.2,0.1-0.3,0.2-0.4l0.3,0c-0.1,0.2-0.2,0.3-0.3,0.5c0.2,0.1,0.3,0.2,0.4,0.4
		c0.1,0.2,0.2,0.4,0.2,0.6h0.9v-0.4c-0.1,0-0.2,0-0.2,0c-0.4,0-0.6-0.2-0.6-0.5c0-0.2,0.1-0.3,0.2-0.4c0.1-0.1,0.3-0.1,0.4-0.1
		c0.2,0,0.3,0.1,0.5,0.2c0.2,0.1,0.2,0.3,0.2,0.4v0.7c0,0.4-0.2,0.6-0.6,0.6H657.8z M659.8,223.1c0,0.2-0.1,0.4-0.2,0.6
		c-0.1,0.2-0.3,0.3-0.5,0.3c-0.1,0-0.3-0.1-0.5-0.2c-0.4-0.2-0.6-0.3-0.8-0.3c-0.5,0-0.8,0.2-1.1,0.7c0.3-0.2,0.7-0.3,1-0.3
		c0.4,0,0.8,0.1,1.2,0.4c0.4,0.3,0.6,0.6,0.6,1v1.9c0,0.2-0.1,0.3-0.3,0.5c-0.2,0.1-0.4,0.2-0.6,0.2c-0.2,0-0.4-0.1-0.6-0.2
		c-0.2-0.1-0.3-0.3-0.3-0.5v-1.3c-0.7,0-1-0.2-1-0.7c0-0.2,0.1-0.4,0.2-0.5c0.1-0.1,0.3-0.2,0.5-0.2c0.3,0,0.5,0.1,0.7,0.2
		c0.2,0.2,0.3,0.4,0.3,0.6v1.7c0,0.2,0.1,0.4,0.3,0.4c0.2,0,0.3-0.1,0.3-0.4v-1.9c0-0.3-0.1-0.6-0.3-0.8s-0.5-0.3-0.8-0.3
		c-0.2,0-0.4,0-0.7,0.1c-0.3,0.1-0.5,0.2-0.6,0.4c0-0.5,0.2-0.9,0.5-1.2s0.7-0.4,1.2-0.4c0.2,0,0.4,0,0.6,0.1
		c0.3,0.1,0.5,0.2,0.6,0.2c0.2,0,0.4-0.1,0.6-0.3H659.8z M657.2,228.8c-0.1,0-0.2-0.1-0.3-0.1c-0.3,0-0.4,0.1-0.4,0.4
		c0,0.2,0.1,0.3,0.3,0.3c0.2,0,0.3-0.1,0.4-0.2C657.2,229.2,657.2,229,657.2,228.8z M657.6,225.2c0-0.2-0.1-0.4-0.4-0.4
		c-0.2,0-0.4,0.1-0.4,0.4c0,0.2,0.1,0.4,0.4,0.4C657.5,225.6,657.6,225.5,657.6,225.2z M659,228.7c0-0.2-0.1-0.3-0.3-0.3
		c-0.2,0-0.3,0.1-0.3,0.3c0,0.2,0.1,0.3,0.4,0.3C658.9,229,659,228.9,659,228.7z"/>
	<path d="M661.5,227.9v-0.3h0.5v-3.1c-0.1,0.1-0.3,0.1-0.4,0.1c-0.5,0-0.7-0.3-0.7-0.8c0-0.2,0.1-0.4,0.3-0.6
		c0.2-0.1,0.4-0.2,0.6-0.2c0.6,0,0.9,0.3,0.9,0.9v3.6h1.3c0.4,0,0.6-0.2,0.6-0.6v-3.9h0.7v3.9c0,0.2,0,0.4-0.1,0.6
		c-0.1,0.2-0.3,0.3-0.5,0.3H661.5z M662,223.9c0-0.3-0.1-0.4-0.4-0.4c-0.1,0-0.2,0-0.3,0.1c-0.1,0.1-0.1,0.2-0.1,0.3s0,0.2,0.1,0.3
		s0.2,0.1,0.3,0.1C661.9,224.3,662,224.2,662,223.9z"/>
	<path d="M668.7,227.9h-0.7v-3.7c0-0.5-0.3-0.7-0.8-0.7c-0.3,0-0.6,0.2-0.9,0.5l-0.1-0.3c0.3-0.4,0.7-0.6,1.2-0.6
		c0.8,0,1.3,0.3,1.3,0.9V227.9z"/>
	<path d="M673.4,227.9h-0.7v-2.5c0-0.2-0.1-0.4-0.4-0.6c-0.2-0.1-0.5-0.2-0.7-0.2c-0.2,0-0.4,0.1-0.6,0.3c-0.1,0.2-0.2,0.4-0.2,0.6
		v1c0.1,0,0.2-0.1,0.3-0.1c0.2,0,0.4,0.1,0.5,0.2c0.1,0.1,0.2,0.3,0.2,0.5c0,0.5-0.3,0.7-0.8,0.7c-0.3,0-0.5-0.1-0.6-0.3
		c-0.1-0.2-0.2-0.4-0.2-0.7v-1.4c0-0.4,0.1-0.7,0.4-0.9c0.3-0.3,0.6-0.4,1-0.4c0.5,0,0.9,0.2,1.2,0.6v-0.4c0-0.3-0.2-0.5-0.5-0.7
		c-0.2-0.1-0.5-0.2-0.9-0.2c-0.6,0-1.2,0.3-1.6,0.8l-0.1-0.4c0.5-0.6,1.1-0.8,1.8-0.8c0.5,0,0.9,0.1,1.3,0.3c0.4,0.2,0.7,0.6,0.7,1
		V227.9z M671.5,227.2c0-0.1,0-0.2-0.1-0.3s-0.2-0.1-0.3-0.1s-0.2,0-0.3,0.1c-0.1,0.1-0.1,0.2-0.1,0.3c0,0.1,0,0.2,0.1,0.3
		c0.1,0.1,0.2,0.1,0.3,0.1c0.2,0,0.3-0.1,0.4-0.2C671.5,227.3,671.5,227.2,671.5,227.2z"/>
	<path d="M675.5,225.6v1.2c0,0.2,0.1,0.4,0.3,0.6c0.2,0.1,0.4,0.2,0.6,0.2c0.2,0,0.4-0.1,0.6-0.2c0.2-0.1,0.3-0.3,0.3-0.5v-2.4
		c0-0.7-0.5-1-1.4-1c-0.6,0-1,0.3-1.4,0.9l-0.2-0.1c0.3-0.8,0.9-1.1,1.9-1.1c0.5,0,0.9,0.1,1.2,0.3c0.4,0.2,0.6,0.6,0.6,1v2.4
		c0,0.3-0.2,0.5-0.6,0.8c-0.4,0.2-0.7,0.3-1,0.3c-0.3,0-0.7-0.1-1-0.3c-0.4-0.2-0.6-0.5-0.6-0.8V225c0-0.6,0.3-0.9,0.9-0.9
		c0.2,0,0.4,0.1,0.5,0.2c0.1,0.1,0.2,0.3,0.2,0.5c0,0.5-0.3,0.7-0.8,0.7C675.7,225.6,675.6,225.6,675.5,225.6z M676.2,224.9
		c0-0.3-0.1-0.4-0.4-0.4c-0.3,0-0.4,0.1-0.4,0.4c0,0.3,0.1,0.4,0.4,0.4C676.1,225.3,676.2,225.2,676.2,224.9z"/>
	<path d="M624.7,237.9h-0.7v-3.7c0-0.5-0.3-0.7-0.8-0.7c-0.3,0-0.6,0.2-0.9,0.5l-0.1-0.3c0.3-0.4,0.7-0.6,1.2-0.6
		c0.8,0,1.3,0.3,1.3,0.9V237.9z"/>
	<path d="M626.3,235c-0.1-0.1-0.2-0.2-0.3-0.4c-0.1-0.2-0.1-0.4-0.1-0.5c0-0.3,0.1-0.5,0.3-0.7s0.4-0.3,0.7-0.3
		c0.2,0,0.4,0.1,0.5,0.2c0.1,0.1,0.2,0.3,0.2,0.5c0,0.5-0.2,0.7-0.6,0.7c-0.3,0-0.5-0.1-0.6-0.3c0,0.5,0.3,0.8,0.8,0.8h0.4v0.3h-0.3
		c-0.4,0-0.6,0.2-0.6,0.6v1c0,0.2,0.1,0.4,0.3,0.6c0.2,0.1,0.4,0.2,0.6,0.2s0.4-0.1,0.6-0.2c0.2-0.1,0.3-0.3,0.3-0.5v-3.2l0.4-0.5
		h0.3v3.7c0,0.3-0.2,0.6-0.5,0.8c-0.3,0.2-0.6,0.3-0.9,0.3c-0.4,0-0.8-0.1-1.1-0.3c-0.4-0.2-0.6-0.6-0.6-1v-0.7c0-0.2,0-0.3,0.1-0.5
		C626.1,235.2,626.2,235.1,626.3,235z M627.2,233.8c0-0.2-0.1-0.4-0.4-0.4c-0.2,0-0.4,0.1-0.4,0.4c0,0.2,0.1,0.4,0.4,0.4
		C627.1,234.1,627.2,234,627.2,233.8z"/>
	<path d="M628.7,240.2h-0.7v-0.7c-0.1,0-0.2,0-0.2,0c-0.4,0-0.7-0.2-0.7-0.6c0-0.2,0.1-0.4,0.2-0.5c0.1-0.1,0.3-0.2,0.5-0.2
		c0.5,0,0.8,0.3,0.8,0.9V240.2z M628.2,238.9c0-0.3-0.1-0.4-0.4-0.4c-0.3,0-0.4,0.1-0.4,0.4c0,0.2,0.1,0.4,0.4,0.4
		S628.2,239.2,628.2,238.9z"/>
	<path d="M634.4,237.9h-2v-0.1c0.2,0,0.3,0,0.3,0c0.1,0,0.2-0.1,0.3-0.2c0-0.1,0-0.3,0-0.6v-2.8c0-0.4,0-0.5,0-0.6
		c0-0.3-0.1-0.4-0.3-0.4c-0.1,0-0.2,0-0.4,0.1l-0.1-0.1l1.3-0.6h0.1v4.4c0,0.4,0.1,0.6,0.2,0.7c0.1,0.1,0.2,0.1,0.5,0.1V237.9z"/>
	<path d="M639.1,235.2c0,0.7-0.1,1.3-0.4,1.8c-0.3,0.7-0.8,1-1.4,1c-0.6,0-1-0.3-1.3-1c-0.2-0.5-0.4-1.1-0.4-1.7
		c0-0.6,0.1-1.2,0.4-1.8c0.3-0.7,0.8-1,1.3-1c0.3,0,0.6,0.1,0.9,0.4c0.2,0.2,0.4,0.5,0.5,0.9C639,234.2,639.1,234.7,639.1,235.2z
		 M638.3,235c0-1.5-0.3-2.3-0.9-2.3c-0.6,0-0.9,0.9-0.9,2.6c0,0.5,0,1,0.1,1.4c0.2,0.6,0.4,1,0.8,1C638,237.7,638.3,236.8,638.3,235
		z"/>
	<path d="M642.3,237.9v-0.3h0.5v-3.1c-0.1,0.1-0.3,0.1-0.4,0.1c-0.5,0-0.7-0.3-0.7-0.8c0-0.2,0.1-0.4,0.3-0.6
		c0.2-0.1,0.4-0.2,0.6-0.2c0.6,0,0.9,0.3,0.9,0.9v3.6h1.3c0.4,0,0.5-0.2,0.5-0.6v-6.3l0.4-0.5h0.2v6.9c0,0.2,0,0.4-0.1,0.6
		c-0.1,0.2-0.3,0.3-0.5,0.3H642.3z M642.8,233.9c0-0.3-0.1-0.4-0.4-0.4c-0.1,0-0.2,0-0.3,0.1c-0.1,0.1-0.1,0.2-0.1,0.3
		s0,0.2,0.1,0.3s0.2,0.1,0.3,0.1C642.7,234.3,642.8,234.2,642.8,233.9z"/>
	<path d="M646,232.4c-0.3-0.1-0.8-0.3-1.3-0.4c-0.5-0.1-1-0.1-1.3-0.1c-0.3,0-0.7,0.1-1.2,0.2c0.1-0.5,0.3-0.9,0.6-1.1
		s0.7-0.4,1.2-0.4c0.4,0,0.8,0.1,1.1,0.3V230h0.7v1.5C645.9,231.8,646,232.1,646,232.4z M645.6,232c-0.3-0.7-0.8-1.1-1.7-1.1
		c-0.6,0-1.1,0.3-1.4,0.8c0.3-0.1,0.7-0.1,1-0.1C644.3,231.6,644.9,231.7,645.6,232z"/>
</g>
</svg>
