<?xml version="1.0" encoding="utf-8"?>
<!-- Generator: Adobe Illustrator 23.0.0, SVG Export Plug-In . SVG Version: 6.00 Build 0)  -->
<svg version="1.1" id="图层_1" xmlns="http://www.w3.org/2000/svg" xmlns:xlink="http://www.w3.org/1999/xlink" x="0px" y="0px"
	 viewBox="0 0 750 870" style="enable-background:new 0 0 750 870;" xml:space="preserve">
<style type="text/css">
	.st0{enable-background:new    ;}
	.st1{fill:#D6D6D6;}
	.st2{fill:#0E0E0E;}
	.st3{fill:#0EAFA0;}
	.st4{fill:#CDBB78;}
	.st5{fill:#EC632F;}
</style>
<g id="_2.0_" class="st0">
	<path d="M79.2,331.6c0-0.9-0.3-1.6-0.8-2.2c-0.6-0.5-1.4-0.8-2.4-0.8c-0.6,0-1.4,0.2-2,0.5c-0.8,0.3-1.4,0.8-2,1.6v-2
		c0.5-0.6,1.1-0.9,1.9-1.3c0.6-0.3,1.6-0.5,2.5-0.5c1.6,0,2.7,0.5,3.6,1.3s1.4,1.9,1.4,3.3c0,1.3-0.3,2.4-0.8,3.1
		c-0.6,0.9-1.6,1.9-3,2.8s-2.4,1.7-2.8,2c-0.5,0.5-0.8,0.8-0.9,1.3c-0.2,0.3-0.3,0.8-0.3,1.4h8.3v1.9H71.4v-0.8
		c0-0.9,0.2-1.7,0.5-2.5c0.3-0.6,0.6-1.3,1.3-2c0.6-0.6,1.6-1.4,2.8-2.4c1.3-0.9,2.2-1.7,2.7-2.4C79,333.3,79.2,332.5,79.2,331.6z"
		/>
	<path d="M84.4,342.9c0-0.3,0.2-0.8,0.5-0.9c0.3-0.3,0.6-0.5,0.9-0.5c0.5,0,0.8,0.2,0.9,0.5c0.3,0.3,0.5,0.6,0.5,0.9
		s-0.2,0.6-0.5,0.9s-0.6,0.5-0.9,0.5c-0.5,0-0.8-0.2-0.9-0.5C84.4,343.5,84.4,343.2,84.4,342.9z"/>
	<path d="M89.4,336c0-3,0.5-5.2,1.4-6.7c0.9-1.6,2.4-2.4,4.2-2.4c3.6,0,5.3,2.8,5.3,8.6c0,2.8-0.5,5-1.6,6.4
		c-0.9,1.6-2.4,2.2-4.2,2.2c-1.7,0-3-0.8-3.9-2.2C89.9,340.7,89.4,338.7,89.4,336z M91.4,335.8c0,4.4,1.1,6.7,3.4,6.7
		c2.2,0,3.3-2.2,3.3-6.7c0-4.7-1.1-7.1-3.3-7.1C92.7,328.8,91.4,331.1,91.4,335.8z"/>
	<path d="M102.3,331.4c0-1.4,0.3-2.5,1.1-3.3c0.8-0.8,1.7-1.3,3-1.3s2.2,0.3,2.8,1.1c0.6,0.8,0.9,1.7,0.9,3.1c0,1.3-0.3,2.4-1.1,3.1
		c-0.8,0.8-1.7,1.3-3,1.3c-1.1,0-2-0.3-2.8-1.1C102.6,333.8,102.3,332.7,102.3,331.4z M104,331.3c0,0.9,0.2,1.7,0.6,2.2
		c0.5,0.5,0.9,0.8,1.7,0.8s1.3-0.3,1.7-0.8c0.5-0.5,0.6-1.3,0.6-2.2s-0.2-1.7-0.6-2.2c-0.3-0.5-0.9-0.8-1.6-0.8
		c-0.8,0-1.3,0.3-1.7,0.8C104.1,329.7,104,330.3,104,331.3z M117.5,327.2l-10.8,16.9H105l10.8-16.9H117.5z M112.3,340.1
		c0-1.4,0.3-2.5,1.1-3.3s1.7-1.3,3-1.3s2,0.3,2.8,1.1c0.6,0.8,0.9,1.7,0.9,3.1c0,1.3-0.3,2.4-1.1,3.1c-0.8,0.8-1.7,1.3-3,1.3
		c-1.1,0-2-0.3-2.8-1.1C112.6,342.3,112.3,341.3,112.3,340.1z M114,339.9c0,0.9,0.2,1.6,0.6,2.2c0.5,0.5,0.9,0.8,1.7,0.8
		s1.3-0.3,1.7-0.8c0.5-0.5,0.6-1.3,0.6-2.2c0-0.9-0.2-1.7-0.6-2.2c-0.5-0.5-0.9-0.8-1.6-0.8c-0.8,0-1.3,0.3-1.7,0.8
		C114.2,338.3,114,339,114,339.9z"/>
</g>
<g id="_4.0_" class="st0">
	<path d="M80.1,283.9V295h2.5v1.7h-2.5v3.9h-2v-3.9h-7.8V295c1.4-1.6,2.8-3.3,4.2-5.3s2.5-3.9,3.4-5.8L80.1,283.9L80.1,283.9z
		 M72.6,295.1h5.5v-8c-0.8,1.4-1.6,2.7-2.4,3.9C74.8,292.2,73.7,293.5,72.6,295.1z"/>
	<path d="M84.4,299.6c0-0.3,0.2-0.8,0.5-0.9c0.3-0.3,0.6-0.5,0.9-0.5c0.5,0,0.8,0.2,0.9,0.5c0.3,0.3,0.5,0.6,0.5,0.9
		s-0.2,0.6-0.5,0.9s-0.6,0.5-0.9,0.5c-0.5,0-0.8-0.2-0.9-0.5C84.4,300.2,84.4,299.9,84.4,299.6z"/>
	<path d="M89.4,292.7c0-3,0.5-5.2,1.4-6.7c0.9-1.6,2.4-2.4,4.2-2.4c3.6,0,5.3,2.8,5.3,8.6c0,2.8-0.5,5-1.6,6.4
		c-0.9,1.6-2.4,2.2-4.2,2.2c-1.7,0-3-0.8-3.9-2.2C89.9,297.4,89.4,295.4,89.4,292.7z M91.4,292.6c0,4.4,1.1,6.7,3.4,6.7
		c2.2,0,3.3-2.2,3.3-6.7c0-4.7-1.1-7.1-3.3-7.1C92.7,285.5,91.4,287.9,91.4,292.6z"/>
	<path d="M102.3,288.2c0-1.4,0.3-2.5,1.1-3.3c0.8-0.8,1.7-1.3,3-1.3s2.2,0.3,2.8,1.1c0.6,0.8,0.9,1.7,0.9,3.1c0,1.3-0.3,2.4-1.1,3.1
		c-0.8,0.8-1.7,1.3-3,1.3c-1.1,0-2-0.3-2.8-1.1C102.6,290.5,102.3,289.4,102.3,288.2z M104,288c0,0.9,0.2,1.7,0.6,2.2
		c0.5,0.5,0.9,0.8,1.7,0.8s1.3-0.3,1.7-0.8c0.5-0.5,0.6-1.3,0.6-2.2c0-0.9-0.2-1.7-0.6-2.2c-0.3-0.5-0.9-0.8-1.6-0.8
		c-0.8,0-1.3,0.3-1.7,0.8C104.1,286.4,104,287.1,104,288z M117.5,283.9l-10.8,16.9H105l10.8-16.9H117.5z M112.3,296.8
		c0-1.4,0.3-2.5,1.1-3.3s1.7-1.3,3-1.3s2,0.3,2.8,1.1c0.6,0.8,0.9,1.7,0.9,3.1c0,1.3-0.3,2.4-1.1,3.1c-0.8,0.8-1.7,1.3-3,1.3
		c-1.1,0-2-0.3-2.8-1.1C112.6,299,112.3,298,112.3,296.8z M114,296.6c0,0.9,0.2,1.6,0.6,2.2c0.5,0.5,0.9,0.8,1.7,0.8
		s1.3-0.3,1.7-0.8c0.5-0.5,0.6-1.3,0.6-2.2c0-0.9-0.2-1.7-0.6-2.2c-0.5-0.5-0.9-0.8-1.6-0.8c-0.8,0-1.3,0.3-1.7,0.8
		C114.2,295.1,114,295.7,114,296.6z"/>
</g>
<g id="_6.0_" class="st0">
	<path d="M81.1,238.8c-0.9-0.5-1.7-0.6-2.7-0.6c-1.4,0-2.7,0.6-3.4,1.9c-0.9,1.3-1.3,3-1.4,5.2l0,0c0.8-1.6,2-2.4,3.8-2.4
		c1.4,0,2.7,0.5,3.4,1.4c0.8,0.9,1.3,2.2,1.3,3.8s-0.5,3-1.6,4.1c-0.9,1.1-2.2,1.6-3.8,1.6c-1.7,0-3-0.6-4.1-2
		c-0.9-1.3-1.4-3.3-1.4-5.6c0-3,0.6-5.3,1.9-7.1c1.3-1.7,3-2.7,5-2.7c1.3,0,2.2,0.2,2.8,0.5L81.1,238.8L81.1,238.8z M73.6,247.9
		c0,1.1,0.3,2,0.9,2.8s1.4,1.3,2.4,1.3s1.7-0.3,2.2-0.9c0.6-0.6,0.9-1.6,0.9-2.7s-0.3-2-0.8-2.7c-0.5-0.6-1.3-0.9-2.4-0.9
		c-0.9,0-1.7,0.3-2.4,0.9C73.9,246.3,73.6,247.1,73.6,247.9z"/>
	<path d="M84.4,252.3c0-0.3,0.2-0.8,0.5-0.9c0.3-0.3,0.6-0.5,0.9-0.5c0.5,0,0.8,0.2,0.9,0.5c0.3,0.3,0.5,0.6,0.5,0.9
		c0,0.3-0.2,0.6-0.5,0.9c-0.3,0.3-0.6,0.5-0.9,0.5c-0.5,0-0.8-0.2-0.9-0.5C84.4,252.9,84.4,252.6,84.4,252.3z"/>
	<path d="M89.4,245.4c0-3,0.5-5.2,1.4-6.7s2.4-2.4,4.2-2.4c3.6,0,5.3,2.8,5.3,8.6c0,2.8-0.5,5-1.6,6.4c-0.9,1.6-2.4,2.2-4.2,2.2
		c-1.7,0-3-0.8-3.9-2.2C89.9,250.1,89.4,248,89.4,245.4z M91.4,245.2c0,4.4,1.1,6.7,3.4,6.7c2.2,0,3.3-2.2,3.3-6.7
		c0-4.7-1.1-7.1-3.3-7.1C92.7,238.1,91.4,240.5,91.4,245.2z"/>
	<path d="M102.3,240.8c0-1.4,0.3-2.5,1.1-3.3s1.7-1.3,3-1.3s2.2,0.3,2.8,1.1c0.6,0.8,0.9,1.7,0.9,3.1c0,1.3-0.3,2.4-1.1,3.1
		c-0.8,0.8-1.7,1.3-3,1.3c-1.1,0-2-0.3-2.8-1.1C102.6,243.2,102.3,242.1,102.3,240.8z M104,240.8c0,0.9,0.2,1.7,0.6,2.2
		c0.5,0.5,0.9,0.8,1.7,0.8s1.3-0.3,1.7-0.8s0.6-1.3,0.6-2.2s-0.2-1.7-0.6-2.2c-0.3-0.5-0.9-0.8-1.6-0.8c-0.8,0-1.3,0.3-1.7,0.8
		C104.1,239.1,104,239.9,104,240.8z M117.5,236.6l-10.8,16.9H105l10.8-16.9H117.5z M112.3,249.4c0-1.4,0.3-2.5,1.1-3.3
		c0.8-0.8,1.7-1.3,3-1.3s2,0.3,2.8,1.1c0.6,0.8,0.9,1.7,0.9,3.1c0,1.3-0.3,2.4-1.1,3.1c-0.8,0.8-1.7,1.3-3,1.3c-1.1,0-2-0.3-2.8-1.1
		C112.6,251.6,112.3,250.7,112.3,249.4z M114,249.3c0,0.9,0.2,1.6,0.6,2.2c0.5,0.5,0.9,0.8,1.7,0.8s1.3-0.3,1.7-0.8
		c0.5-0.5,0.6-1.3,0.6-2.2s-0.2-1.7-0.6-2.2c-0.5-0.5-0.9-0.8-1.6-0.8c-0.8,0-1.3,0.3-1.7,0.8C114.2,247.7,114,248.3,114,249.3z"/>
</g>
<g id="_8.0_" class="st0">
	<path d="M71,197.4c0-0.9,0.3-1.9,0.9-2.7s1.3-1.4,2.2-1.7c-0.8-0.5-1.3-0.9-1.7-1.6c-0.5-0.6-0.6-1.4-0.6-2c0-0.8,0.2-1.6,0.6-2.2
		c0.5-0.6,0.9-1.1,1.7-1.6c0.8-0.3,1.6-0.6,2.4-0.6c0.9,0,1.7,0.2,2.4,0.6c0.8,0.3,1.3,0.9,1.7,1.6c0.5,0.6,0.6,1.4,0.6,2.2
		s-0.2,1.4-0.6,2c-0.5,0.6-0.9,1.3-1.7,1.6c0.9,0.3,1.7,0.9,2.2,1.7c0.6,0.8,0.8,1.7,0.8,2.7c0,0.9-0.2,1.9-0.6,2.5
		c-0.5,0.8-1.1,1.4-1.9,1.7c-0.8,0.5-1.7,0.6-2.8,0.6c-1.1,0-2-0.2-2.8-0.6s-1.4-0.9-1.9-1.7C71.4,199.1,71,198.3,71,197.4z
		 M73.2,197.2c0,0.9,0.3,1.7,0.9,2.4s1.4,0.9,2.5,0.9c0.9,0,1.9-0.3,2.5-0.9s0.9-1.4,0.9-2.4c0-0.9-0.3-1.7-0.9-2.4
		c-0.6-0.6-1.4-0.9-2.4-0.9s-1.7,0.3-2.4,0.9C73.6,195.5,73.2,196.3,73.2,197.2z M73.7,189.4c0,0.8,0.3,1.4,0.8,1.9s1.3,0.8,1.9,0.8
		c0.8,0,1.4-0.3,2-0.8s0.8-1.3,0.8-1.9c0-0.8-0.3-1.4-0.8-1.9s-1.3-0.8-2-0.8s-1.4,0.3-2,0.8C74,188,73.7,188.7,73.7,189.4z"/>
	<path d="M84.4,201c0-0.3,0.2-0.8,0.5-0.9c0.3-0.3,0.6-0.5,0.9-0.5c0.5,0,0.8,0.2,0.9,0.5c0.3,0.3,0.5,0.6,0.5,0.9
		c0,0.3-0.2,0.6-0.5,0.9c-0.3,0.3-0.6,0.5-0.9,0.5c-0.5,0-0.8-0.2-0.9-0.5C84.4,201.6,84.4,201.3,84.4,201z"/>
	<path d="M89.4,193.9c0-3,0.5-5.2,1.4-6.7s2.4-2.4,4.2-2.4c3.6,0,5.3,2.8,5.3,8.6c0,2.8-0.5,5-1.6,6.4c-0.9,1.6-2.4,2.2-4.2,2.2
		c-1.7,0-3-0.8-3.9-2.2C89.9,198.8,89.4,196.7,89.4,193.9z M91.4,193.9c0,4.4,1.1,6.7,3.4,6.7c2.2,0,3.3-2.2,3.3-6.7
		c0-4.7-1.1-7.1-3.3-7.1C92.7,186.7,91.4,189.1,91.4,193.9z"/>
	<path d="M102.3,189.5c0-1.4,0.3-2.5,1.1-3.3c0.8-0.8,1.7-1.3,3-1.3s2.2,0.3,2.8,1.1c0.6,0.8,0.9,1.7,0.9,3.1c0,1.3-0.3,2.4-1.1,3.1
		c-0.8,0.8-1.7,1.3-3,1.3c-1.1,0-2-0.3-2.8-1.1C102.6,191.7,102.3,190.8,102.3,189.5z M104,189.4c0,0.9,0.2,1.7,0.6,2.2
		c0.5,0.5,0.9,0.8,1.7,0.8s1.3-0.3,1.7-0.8s0.6-1.3,0.6-2.2s-0.2-1.7-0.6-2.2c-0.3-0.5-0.9-0.8-1.6-0.8c-0.8,0-1.3,0.3-1.7,0.8
		C104.1,187.6,104,188.4,104,189.4z M117.5,185.3l-10.8,16.8H105l10.8-16.9L117.5,185.3L117.5,185.3z M112.3,198.2
		c0-1.4,0.3-2.5,1.1-3.3s1.7-1.3,3-1.3s2,0.3,2.8,1.1c0.6,0.8,0.9,1.7,0.9,3.1c0,1.3-0.3,2.4-1.1,3.1c-0.8,0.8-1.7,1.3-3,1.3
		c-1.1,0-2-0.3-2.8-1.1C112.6,200.3,112.3,199.4,112.3,198.2z M114,198c0,0.9,0.2,1.6,0.6,2.2c0.5,0.5,0.9,0.8,1.7,0.8
		s1.3-0.3,1.7-0.8c0.5-0.5,0.6-1.3,0.6-2.2s-0.2-1.7-0.6-2.2c-0.5-0.5-0.9-0.8-1.6-0.8c-0.8,0-1.3,0.3-1.7,0.8
		C114.2,196.3,114,197.1,114,198z"/>
</g>
<g id="_10.0_" class="st0">
	<path d="M64.6,150.6v-14.3c-0.3,0.3-0.9,0.6-1.7,1.1s-1.6,0.6-2.2,0.9v-2.2c0.9-0.3,1.9-0.6,2.8-1.1s1.7-1.1,2.4-1.6h0.8v17.1h-2.1
		V150.6z"/>
	<path d="M72.5,142.6c0-3,0.5-5.2,1.4-6.7c0.9-1.6,2.4-2.4,4.2-2.4c3.6,0,5.3,2.8,5.3,8.6c0,2.8-0.5,5-1.6,6.4
		c-0.9,1.6-2.4,2.2-4.2,2.2c-1.7,0-3-0.8-3.9-2.2C72.9,147.3,72.5,145.3,72.5,142.6z M74.7,142.5c0,4.4,1.1,6.7,3.4,6.7
		c2.2,0,3.3-2.2,3.3-6.7c0-4.7-1.1-7.1-3.3-7.1C75.8,135.4,74.7,137.8,74.7,142.5z"/>
	<path d="M85.8,149.5c0-0.3,0.2-0.8,0.5-0.9c0.3-0.3,0.6-0.5,0.9-0.5c0.5,0,0.8,0.2,0.9,0.5c0.3,0.3,0.5,0.6,0.5,0.9
		c0,0.3-0.2,0.6-0.5,0.9c-0.3,0.3-0.6,0.5-0.9,0.5c-0.5,0-0.8-0.2-0.9-0.5C85.9,150.3,85.8,150,85.8,149.5z"/>
	<path d="M90.8,142.6c0-3,0.5-5.2,1.4-6.7s2.4-2.4,4.2-2.4c3.6,0,5.3,2.8,5.3,8.6c0,2.8-0.5,5-1.6,6.4c-0.9,1.6-2.4,2.2-4.2,2.2
		c-1.7,0-3-0.8-3.9-2.2C91.3,147.3,90.8,145.3,90.8,142.6z M93,142.5c0,4.4,1.1,6.7,3.4,6.7c2.2,0,3.3-2.2,3.3-6.7
		c0-4.7-1.1-7.1-3.3-7.1C94.1,135.4,93,137.8,93,142.5z"/>
	<path d="M103.8,138.1c0-1.4,0.3-2.5,1.1-3.3c0.8-0.8,1.7-1.3,3-1.3s2.2,0.3,2.8,1.1c0.6,0.8,0.9,1.7,0.9,3.1c0,1.3-0.3,2.4-1.1,3.1
		c-0.8,0.8-1.7,1.3-3,1.3c-1.1,0-2-0.3-2.8-1.1C104.1,140.4,103.8,139.3,103.8,138.1z M105.4,138.1c0,0.9,0.2,1.7,0.6,2.2
		c0.5,0.5,0.9,0.8,1.7,0.8s1.3-0.3,1.7-0.8c0.5-0.5,0.6-1.3,0.6-2.2s-0.2-1.7-0.6-2.2c-0.3-0.5-0.9-0.8-1.6-0.8
		c-0.8,0-1.3,0.3-1.7,0.8C105.7,136.4,105.4,137.2,105.4,138.1z M118.9,133.9l-10.8,16.9h-1.9l10.8-16.9H118.9z M113.9,146.7
		c0-1.4,0.3-2.5,1.1-3.3c0.8-0.8,1.7-1.3,3-1.3s2,0.3,2.8,1.1c0.6,0.8,0.9,1.7,0.9,3.1c0,1.3-0.3,2.4-1.1,3.1
		c-0.8,0.8-1.7,1.3-3,1.3c-1.1,0-2-0.3-2.8-1.1C114.2,149.1,113.9,148,113.9,146.7z M115.4,146.7c0,0.9,0.2,1.6,0.6,2.2
		c0.5,0.5,0.9,0.8,1.7,0.8s1.3-0.3,1.7-0.8s0.6-1.3,0.6-2.2s-0.2-1.7-0.6-2.2c-0.5-0.5-0.9-0.8-1.6-0.8c-0.8,0-1.3,0.3-1.7,0.8
		C115.6,145,115.4,145.8,115.4,146.7z"/>
</g>
<g id="_12.0_" class="st0">
	<path d="M64.6,102.3V88.1c-0.3,0.3-0.9,0.6-1.7,1.1s-1.6,0.6-2.2,0.9v-2c0.9-0.3,1.9-0.6,2.8-1.1s1.7-1.1,2.4-1.6h0.8v17.1
		L64.6,102.3L64.6,102.3z"/>
	<path d="M80.8,90c0-0.9-0.3-1.6-0.8-2.2c-0.6-0.5-1.4-0.8-2.4-0.8c-0.6,0-1.4,0.2-2,0.5c-0.8,0.3-1.4,0.8-2,1.6v-2
		c0.5-0.6,1.1-0.9,1.9-1.3c0.6-0.3,1.6-0.5,2.5-0.5c1.6,0,2.7,0.5,3.6,1.3s1.4,1.9,1.4,3.3c0,1.3-0.3,2.4-0.8,3.1
		c-0.6,0.9-1.6,1.9-3,2.8s-2.4,1.7-2.8,2c-0.5,0.5-0.8,0.8-0.9,1.3c-0.2,0.3-0.3,0.8-0.3,1.4h8.3v1.9H72.8v-0.8
		c0-0.9,0.2-1.7,0.5-2.5c0.3-0.6,0.6-1.3,1.3-2c0.6-0.6,1.6-1.4,2.8-2.4c1.3-0.9,2.2-1.7,2.7-2.4C80.5,91.7,80.8,90.9,80.8,90z"/>
	<path d="M85.8,101.2c0-0.3,0.2-0.8,0.5-0.9c0.3-0.3,0.6-0.5,0.9-0.5c0.5,0,0.8,0.2,0.9,0.5c0.3,0.3,0.5,0.6,0.5,0.9
		s-0.2,0.6-0.5,0.9s-0.6,0.5-0.9,0.5c-0.5,0-0.8-0.2-0.9-0.5C85.9,101.9,85.8,101.6,85.8,101.2z"/>
	<path d="M90.8,94.3c0-3,0.5-5.2,1.4-6.7s2.4-2.4,4.2-2.4c3.6,0,5.3,2.8,5.3,8.6c0,2.8-0.5,5-1.6,6.4c-0.9,1.6-2.4,2.2-4.2,2.2
		c-1.7,0-3-0.8-3.9-2.2C91.3,99,90.8,97,90.8,94.3z M93,94.2c0,4.4,1.1,6.7,3.4,6.7c2.2,0,3.3-2.2,3.3-6.7c0-4.7-1.1-7.1-3.3-7.1
		C94.1,87.1,93,89.5,93,94.2z"/>
	<path d="M103.8,89.8c0-1.4,0.3-2.5,1.1-3.3s1.7-1.3,3-1.3s2.2,0.3,2.8,1.1c0.6,0.8,0.9,1.7,0.9,3.1c0,1.3-0.3,2.4-1.1,3.1
		s-1.7,1.3-3,1.3c-1.1,0-2-0.3-2.8-1.1C104.1,92.1,103.8,91,103.8,89.8z M105.4,89.8c0,0.9,0.2,1.7,0.6,2.2c0.5,0.5,0.9,0.8,1.7,0.8
		s1.3-0.3,1.7-0.8s0.6-1.3,0.6-2.2c0-0.9-0.2-1.7-0.6-2.2c-0.3-0.5-0.9-0.8-1.6-0.8c-0.8,0-1.3,0.3-1.7,0.8
		C105.7,88.1,105.4,88.7,105.4,89.8z M118.9,85.6l-10.8,16.9h-1.9L117,85.6H118.9z M113.9,98.4c0-1.4,0.3-2.5,1.1-3.3s1.7-1.3,3-1.3
		s2,0.3,2.8,1.1c0.6,0.8,0.9,1.7,0.9,3.1c0,1.3-0.3,2.4-1.1,3.1s-1.7,1.3-3,1.3c-1.1,0-2-0.3-2.8-1.1
		C114.2,100.6,113.9,99.7,113.9,98.4z M115.4,98.3c0,0.9,0.2,1.6,0.6,2.2c0.5,0.5,0.9,0.8,1.7,0.8s1.3-0.3,1.7-0.8s0.6-1.3,0.6-2.2
		c0-0.9-0.2-1.7-0.6-2.2c-0.5-0.5-0.9-0.8-1.6-0.8c-0.8,0-1.3,0.3-1.7,0.8C115.6,96.7,115.4,97.3,115.4,98.3z"/>
</g>
<g id="线">
	<rect id="矩形_863_拷贝_2" x="132" y="342.9" class="st1" width="213.4" height="2"/>
	<rect id="矩形_863_拷贝_3" x="132" y="291.5" class="st1" width="213.4" height="2"/>
	<rect id="矩形_863_拷贝_4" x="132" y="240.2" class="st1" width="213.4" height="2"/>
	<rect id="矩形_863_拷贝_5" x="132" y="189.8" class="st1" width="213.4" height="2"/>
	<rect id="矩形_863_拷贝_5-2" x="132" y="138.6" class="st1" width="213.4" height="2"/>
	<rect id="矩形_863_拷贝_5-3" x="132" y="87.1" class="st1" width="213.4" height="2"/>
	<rect id="矩形_863" x="132" y="84.2" class="st2" width="2" height="314.1"/>
</g>
<rect id="矩形_864" x="163.3" y="138.6" class="st3" width="46.3" height="257.8"/>
<rect id="矩形_864_拷贝" x="209.5" y="240.2" class="st4" width="46.3" height="156"/>
<rect id="矩形_864_拷贝_2" x="255.8" y="326.7" class="st5" width="46.3" height="69.5"/>
<rect id="矩形_863_拷贝" x="132" y="396.2" class="st2" width="213.4" height="2"/>
<g id="_2">
	<g id="_2.0_2" class="st0">
		<path d="M389.7,332c0-0.9-0.3-1.6-0.8-2.2c-0.6-0.5-1.4-0.8-2.3-0.8c-0.6,0-1.4,0.2-2,0.5c-0.8,0.3-1.4,0.8-2,1.6v-2
			c0.5-0.6,1.1-0.9,1.9-1.3c0.6-0.3,1.6-0.5,2.5-0.5c1.6,0,2.7,0.5,3.6,1.3s1.4,1.9,1.4,3.3c0,1.3-0.3,2.3-0.8,3.1
			c-0.6,0.9-1.6,1.9-3,2.8s-2.3,1.7-2.8,2c-0.5,0.5-0.8,0.8-0.9,1.3c-0.2,0.3-0.3,0.8-0.3,1.4h8.3v1.9H382v-0.8
			c0-0.9,0.2-1.7,0.5-2.5c0.3-0.6,0.6-1.3,1.3-2c0.6-0.6,1.6-1.4,2.8-2.3c1.3-0.9,2.2-1.7,2.7-2.3
			C389.6,333.7,389.7,332.9,389.7,332z"/>
		<path d="M394.9,343.2c0-0.3,0.2-0.8,0.5-0.9c0.3-0.3,0.6-0.5,0.9-0.5c0.5,0,0.8,0.2,0.9,0.5c0.3,0.3,0.5,0.6,0.5,0.9
			s-0.2,0.6-0.5,0.9s-0.6,0.5-0.9,0.5c-0.5,0-0.8-0.2-0.9-0.5C395.1,343.9,394.9,343.5,394.9,343.2z"/>
		<path d="M399.9,336.3c0-3,0.5-5.2,1.4-6.7c0.9-1.6,2.3-2.3,4.2-2.3c3.6,0,5.3,2.8,5.3,8.6c0,2.8-0.5,5-1.6,6.4
			c-0.9,1.6-2.3,2.2-4.2,2.2c-1.7,0-3-0.8-3.9-2.2C400.4,341,399.9,339,399.9,336.3z M402,336.2c0,4.4,1.1,6.7,3.4,6.7
			c2.2,0,3.3-2.2,3.3-6.7c0-4.7-1.1-7-3.3-7C403.2,329.1,402,331.5,402,336.2z"/>
		<path d="M412.8,331.8c0-1.4,0.3-2.5,1.1-3.3c0.8-0.8,1.7-1.3,3-1.3s2.2,0.3,2.8,1.1s0.9,1.7,0.9,3.1c0,1.3-0.3,2.3-1.1,3.1
			c-0.8,0.8-1.7,1.3-3,1.3c-1.1,0-2-0.3-2.8-1.1C413.2,334.1,412.8,333,412.8,331.8z M414.5,331.6c0,0.9,0.2,1.7,0.6,2.2
			c0.5,0.5,0.9,0.8,1.7,0.8c0.8,0,1.3-0.3,1.7-0.8s0.6-1.3,0.6-2.2c0-0.9-0.2-1.7-0.6-2.2c-0.3-0.5-0.9-0.8-1.6-0.8
			c-0.8,0-1.3,0.3-1.7,0.8C414.6,330.1,414.5,330.7,414.5,331.6z M428,327.6l-10.8,16.9h-1.9l10.8-16.9H428z M422.8,340.4
			c0-1.4,0.3-2.5,1.1-3.3c0.8-0.8,1.7-1.3,3-1.3s2,0.3,2.8,1.1c0.6,0.8,0.9,1.7,0.9,3.1c0,1.3-0.3,2.3-1.1,3.1
			c-0.8,0.8-1.7,1.3-3,1.3c-1.1,0-2-0.3-2.8-1.1C423.3,342.6,422.8,341.7,422.8,340.4z M424.5,340.3c0,0.9,0.2,1.6,0.6,2.2
			c0.5,0.5,0.9,0.8,1.7,0.8c0.8,0,1.3-0.3,1.7-0.8s0.6-1.3,0.6-2.2c0-0.9-0.2-1.7-0.6-2.2c-0.5-0.5-0.9-0.8-1.6-0.8
			c-0.8,0-1.3,0.3-1.7,0.8C424.7,338.7,424.5,339.3,424.5,340.3z"/>
	</g>
	<g id="_4.0_2" class="st0">
		<path d="M390.7,284.3v11.1h2.5v1.7h-2.5v3.9h-2v-3.9h-7.8v-1.7c1.4-1.6,2.8-3.3,4.2-5.3c1.4-2,2.5-3.9,3.4-5.8L390.7,284.3
			L390.7,284.3z M383.2,295.5h5.5v-8c-0.8,1.4-1.6,2.7-2.3,3.9C385.4,292.6,384.3,293.9,383.2,295.5z"/>
		<path d="M394.9,300c0-0.3,0.2-0.8,0.5-0.9c0.3-0.3,0.6-0.5,0.9-0.5c0.5,0,0.8,0.2,0.9,0.5c0.3,0.3,0.5,0.6,0.5,0.9
			s-0.2,0.6-0.5,0.9s-0.6,0.5-0.9,0.5c-0.5,0-0.8-0.2-0.9-0.5C395.1,300.6,394.9,300.3,394.9,300z"/>
		<path d="M399.9,293.1c0-3,0.5-5.2,1.4-6.7c0.9-1.6,2.3-2.3,4.2-2.3c3.6,0,5.3,2.8,5.3,8.6c0,2.8-0.5,5-1.6,6.4
			c-0.9,1.6-2.3,2.2-4.2,2.2c-1.7,0-3-0.8-3.9-2.2C400.4,297.8,399.9,295.8,399.9,293.1z M402,293c0,4.4,1.1,6.7,3.4,6.7
			c2.2,0,3.3-2.2,3.3-6.7c0-4.7-1.1-7-3.3-7C403.2,285.9,402,288.3,402,293z"/>
		<path d="M412.8,288.6c0-1.4,0.3-2.5,1.1-3.3c0.8-0.8,1.7-1.3,3-1.3s2.2,0.3,2.8,1.1c0.6,0.8,0.9,1.7,0.9,3.1
			c0,1.3-0.3,2.3-1.1,3.1c-0.8,0.8-1.7,1.3-3,1.3c-1.1,0-2-0.3-2.8-1.1C413.2,290.9,412.8,289.8,412.8,288.6z M414.5,288.4
			c0,0.9,0.2,1.7,0.6,2.2c0.5,0.5,0.9,0.8,1.7,0.8c0.8,0,1.3-0.3,1.7-0.8s0.6-1.3,0.6-2.2c0-0.9-0.2-1.7-0.6-2.2
			c-0.3-0.5-0.9-0.8-1.6-0.8c-0.8,0-1.3,0.3-1.7,0.8C414.6,286.8,414.5,287.5,414.5,288.4z M428,284.3l-10.8,16.9h-1.9l10.8-16.9
			H428z M422.8,297.2c0-1.4,0.3-2.5,1.1-3.3c0.8-0.8,1.7-1.3,3-1.3s2,0.3,2.8,1.1c0.6,0.8,0.9,1.7,0.9,3.1c0,1.3-0.3,2.3-1.1,3.1
			c-0.8,0.8-1.7,1.3-3,1.3c-1.1,0-2-0.3-2.8-1.1C423.3,299.4,422.8,298.4,422.8,297.2z M424.5,297c0,0.9,0.2,1.6,0.6,2.2
			c0.5,0.5,0.9,0.8,1.7,0.8c0.8,0,1.3-0.3,1.7-0.8s0.6-1.3,0.6-2.2c0-0.9-0.2-1.7-0.6-2.2c-0.5-0.5-0.9-0.8-1.6-0.8
			c-0.8,0-1.3,0.3-1.7,0.8C424.7,295.5,424.5,296.1,424.5,297z"/>
	</g>
	<g id="_6.0_2" class="st0">
		<path d="M391.6,239.2c-0.9-0.5-1.7-0.6-2.7-0.6c-1.4,0-2.7,0.6-3.4,1.9c-0.9,1.3-1.3,3-1.4,5.2l0,0c0.8-1.6,2-2.3,3.8-2.3
			c1.4,0,2.7,0.5,3.4,1.4c0.8,0.9,1.3,2.2,1.3,3.8s-0.5,3-1.6,4.1c-0.9,1.1-2.2,1.6-3.8,1.6c-1.7,0-3-0.6-4.1-2
			c-0.9-1.3-1.4-3.3-1.4-5.6c0-3,0.6-5.3,1.9-7s3-2.7,5-2.7c1.3,0,2.2,0.2,2.8,0.5L391.6,239.2L391.6,239.2z M384.1,248.3
			c0,1.1,0.3,2,0.9,2.8s1.4,1.3,2.3,1.3s1.7-0.3,2.2-0.9c0.6-0.6,0.9-1.6,0.9-2.7s-0.3-2-0.8-2.7c-0.5-0.6-1.3-0.9-2.3-0.9
			c-0.9,0-1.7,0.3-2.3,0.9C384.4,246.8,384.1,247.5,384.1,248.3z"/>
		<path d="M394.9,252.7c0-0.3,0.2-0.8,0.5-0.9c0.3-0.3,0.6-0.5,0.9-0.5c0.5,0,0.8,0.2,0.9,0.5c0.3,0.3,0.5,0.6,0.5,0.9
			s-0.2,0.6-0.5,0.9c-0.3,0.3-0.6,0.5-0.9,0.5c-0.5,0-0.8-0.2-0.9-0.5C395.1,253.3,394.9,253,394.9,252.7z"/>
		<path d="M399.9,245.8c0-3,0.5-5.2,1.4-6.7c0.9-1.6,2.3-2.3,4.2-2.3c3.6,0,5.3,2.8,5.3,8.6c0,2.8-0.5,5-1.6,6.4
			c-0.9,1.6-2.3,2.2-4.2,2.2c-1.7,0-3-0.8-3.9-2.2C400.4,250.5,399.9,248.5,399.9,245.8z M402,245.7c0,4.4,1.1,6.7,3.4,6.7
			c2.2,0,3.3-2.2,3.3-6.7c0-4.7-1.1-7-3.3-7C403.2,238.6,402,241,402,245.7z"/>
		<path d="M412.8,241.3c0-1.4,0.3-2.5,1.1-3.3c0.8-0.8,1.7-1.3,3-1.3s2.2,0.3,2.8,1.1s0.9,1.7,0.9,3.1c0,1.3-0.3,2.3-1.1,3.1
			c-0.8,0.8-1.7,1.3-3,1.3c-1.1,0-2-0.3-2.8-1.1C413.2,243.6,412.8,242.5,412.8,241.3z M414.5,241.3c0,0.9,0.2,1.7,0.6,2.2
			c0.5,0.5,0.9,0.8,1.7,0.8c0.8,0,1.3-0.3,1.7-0.8c0.5-0.5,0.6-1.3,0.6-2.2s-0.2-1.7-0.6-2.2c-0.3-0.5-0.9-0.8-1.6-0.8
			c-0.8,0-1.3,0.3-1.7,0.8C414.6,239.5,414.5,240.3,414.5,241.3z M428,237l-10.8,17h-1.9l10.8-16.9h1.9V237z M422.8,249.9
			c0-1.4,0.3-2.5,1.1-3.3c0.8-0.8,1.7-1.3,3-1.3s2,0.3,2.8,1.1c0.6,0.8,0.9,1.7,0.9,3.1c0,1.3-0.3,2.3-1.1,3.1
			c-0.8,0.8-1.7,1.3-3,1.3c-1.1,0-2-0.3-2.8-1.1C423.3,252.1,422.8,251.1,422.8,249.9z M424.5,249.7c0,0.9,0.2,1.6,0.6,2.2
			c0.5,0.5,0.9,0.8,1.7,0.8c0.8,0,1.3-0.3,1.7-0.8c0.5-0.5,0.6-1.3,0.6-2.2s-0.2-1.7-0.6-2.2c-0.5-0.5-0.9-0.8-1.6-0.8
			c-0.8,0-1.3,0.3-1.7,0.8C424.7,248.2,424.5,248.8,424.5,249.7z"/>
	</g>
	<g id="_8.0_2" class="st0">
		<path d="M381.6,197.9c0-0.9,0.3-1.9,0.9-2.7s1.3-1.4,2.2-1.7c-0.8-0.5-1.3-0.9-1.7-1.6c-0.5-0.6-0.6-1.4-0.6-2
			c0-0.8,0.2-1.6,0.6-2.2c0.5-0.6,0.9-1.1,1.7-1.6c0.8-0.5,1.6-0.6,2.3-0.6c0.9,0,1.7,0.2,2.3,0.6c0.8,0.3,1.3,0.9,1.7,1.6
			s0.6,1.4,0.6,2.2s-0.2,1.4-0.6,2c-0.5,0.6-0.9,1.3-1.7,1.6c0.9,0.3,1.7,0.9,2.2,1.7c0.6,0.8,0.8,1.7,0.8,2.7
			c0,0.9-0.2,1.9-0.6,2.5c-0.5,0.8-1.1,1.4-1.9,1.7c-0.8,0.5-1.7,0.6-2.8,0.6s-2-0.2-2.8-0.6c-0.8-0.5-1.4-0.9-1.9-1.7
			S381.6,198.8,381.6,197.9z M383.8,197.7c0,0.9,0.3,1.7,0.9,2.3s1.4,0.9,2.5,0.9c0.9,0,1.9-0.3,2.5-0.9c0.6-0.6,0.9-1.4,0.9-2.3
			s-0.3-1.7-0.9-2.3s-1.4-0.9-2.3-0.9s-1.7,0.3-2.3,0.9C384.1,196,383.8,196.8,383.8,197.7z M384.4,189.9c0,0.8,0.3,1.4,0.8,1.9
			s1.3,0.8,1.9,0.8c0.8,0,1.4-0.3,2-0.8s0.8-1.3,0.8-1.9c0-0.8-0.3-1.4-0.8-1.9s-1.3-0.8-2-0.8c-0.8,0-1.4,0.3-2,0.8
			C384.6,188.5,384.4,189.3,384.4,189.9z"/>
		<path d="M394.9,201.5c0-0.3,0.2-0.8,0.5-0.9c0.3-0.3,0.6-0.5,0.9-0.5c0.5,0,0.8,0.2,0.9,0.5c0.3,0.3,0.5,0.6,0.5,0.9
			s-0.2,0.6-0.5,0.9c-0.3,0.3-0.6,0.5-0.9,0.5c-0.5,0-0.8-0.2-0.9-0.5C395.1,202.1,394.9,201.8,394.9,201.5z"/>
		<path d="M399.9,194.4c0-3,0.5-5.2,1.4-6.7c0.9-1.6,2.3-2.3,4.2-2.3c3.6,0,5.3,2.8,5.3,8.6c0,2.8-0.5,5-1.6,6.4
			c-0.9,1.6-2.3,2.2-4.2,2.2c-1.7,0-3-0.8-3.9-2.2C400.4,199.3,399.9,197.3,399.9,194.4z M402,194.4c0,4.4,1.1,6.7,3.4,6.7
			c2.2,0,3.3-2.2,3.3-6.7c0-4.7-1.1-7-3.3-7C403.2,187.2,402,189.6,402,194.4z"/>
		<path d="M412.8,190.1c0-1.4,0.3-2.5,1.1-3.3c0.8-0.8,1.7-1.3,3-1.3s2.2,0.3,2.8,1.1s0.9,1.7,0.9,3.1c0,1.3-0.3,2.3-1.1,3.1
			c-0.8,0.8-1.7,1.3-3,1.3c-1.1,0-2-0.3-2.8-1.1C412.9,192.3,412.8,191.3,412.8,190.1z M414.5,189.9c0,0.9,0.2,1.7,0.6,2.2
			c0.5,0.5,0.9,0.8,1.7,0.8c0.8,0,1.3-0.3,1.7-0.8s0.6-1.3,0.6-2.2s-0.2-1.7-0.6-2.2c-0.3-0.5-0.9-0.8-1.6-0.8
			c-0.8,0-1.3,0.3-1.7,0.8C414.6,188.2,414.5,189,414.5,189.9z M428,185.8l-10.8,16.9h-1.9l10.8-16.9H428z M422.8,198.7
			c0-1.4,0.3-2.5,1.1-3.3c0.8-0.8,1.7-1.3,3-1.3s2,0.3,2.8,1.1c0.6,0.8,0.9,1.7,0.9,3.1c0,1.3-0.3,2.3-1.1,3.1
			c-0.8,0.8-1.7,1.3-3,1.3c-1.1,0-2-0.3-2.8-1.1C423.3,200.9,422.8,199.9,422.8,198.7z M424.5,198.5c0,0.9,0.2,1.6,0.6,2.2
			c0.5,0.5,0.9,0.8,1.7,0.8c0.8,0,1.3-0.3,1.7-0.8s0.6-1.3,0.6-2.2s-0.2-1.7-0.6-2.2c-0.5-0.5-0.9-0.8-1.6-0.8
			c-0.8,0-1.3,0.3-1.7,0.8C424.7,196.8,424.5,197.6,424.5,198.5z"/>
	</g>
	<g id="_10.0_2" class="st0">
		<path d="M375.2,151.2V137c-0.3,0.3-0.9,0.6-1.7,1.1c-0.8,0.5-1.6,0.6-2.2,0.9v-2.2c0.9-0.3,1.9-0.6,2.8-1.1s1.7-1.1,2.3-1.6h0.8
			v17.1H375.2z"/>
		<path d="M383,143.2c0-3,0.5-5.2,1.4-6.7c0.9-1.6,2.3-2.3,4.2-2.3c3.6,0,5.3,2.8,5.3,8.6c0,2.8-0.5,5-1.6,6.4
			c-0.9,1.6-2.3,2.2-4.2,2.2c-1.7,0-3-0.8-3.9-2.2C383.5,147.9,383,145.9,383,143.2z M385.2,143.1c0,4.4,1.1,6.7,3.4,6.7
			c2.2,0,3.3-2.2,3.3-6.7c0-4.7-1.1-7-3.3-7C386.3,136,385.2,138.4,385.2,143.1z"/>
		<path d="M396.3,150.1c0-0.3,0.2-0.8,0.5-0.9c0.3-0.3,0.6-0.5,0.9-0.5c0.5,0,0.8,0.2,0.9,0.5c0.3,0.3,0.5,0.6,0.5,0.9
			s-0.2,0.6-0.5,0.9c-0.3,0.3-0.6,0.5-0.9,0.5c-0.5,0-0.8-0.2-0.9-0.5C396.5,150.9,396.3,150.6,396.3,150.1z"/>
		<path d="M401.3,143.2c0-3,0.5-5.2,1.4-6.7c0.9-1.6,2.3-2.3,4.2-2.3c3.6,0,5.3,2.8,5.3,8.6c0,2.8-0.5,5-1.6,6.4
			c-0.9,1.6-2.3,2.2-4.2,2.2c-1.7,0-3-0.8-3.9-2.2C401.7,147.8,401.3,145.9,401.3,143.2z M403.5,143.1c0,4.4,1.1,6.7,3.4,6.7
			c2.2,0,3.3-2.2,3.3-6.7c0-4.7-1.1-7-3.3-7C404.6,136,403.5,138.4,403.5,143.1z"/>
		<path d="M414.3,138.7c0-1.4,0.3-2.5,1.1-3.3c0.8-0.8,1.7-1.3,3-1.3s2.2,0.3,2.8,1.1s0.9,1.7,0.9,3.1c0,1.3-0.3,2.3-1.1,3.1
			s-1.7,1.3-3,1.3c-1.1,0-2-0.3-2.8-1.1C414.6,141,414.3,139.9,414.3,138.7z M415.9,138.7c0,0.9,0.2,1.7,0.6,2.2
			c0.5,0.5,0.9,0.8,1.7,0.8c0.8,0,1.3-0.3,1.7-0.8c0.5-0.5,0.6-1.3,0.6-2.2s-0.2-1.7-0.6-2.2c-0.3-0.5-0.9-0.8-1.6-0.8
			c-0.8,0-1.3,0.3-1.7,0.8C416.2,137,415.9,137.8,415.9,138.7z M429.4,134.5l-10.8,16.9h-1.7l10.8-16.9
			C427.6,134.5,429.4,134.5,429.4,134.5z M424.4,147.3c0-1.4,0.3-2.5,1.1-3.3c0.8-0.8,1.7-1.3,3-1.3s2,0.3,2.8,1.1
			c0.6,0.8,0.9,1.7,0.9,3.1c0,1.3-0.3,2.3-1.1,3.1c-0.8,0.8-1.7,1.3-3,1.3c-1.1,0-2-0.3-2.8-1.1
			C424.7,149.7,424.4,148.6,424.4,147.3z M425.9,147.3c0,0.9,0.2,1.6,0.6,2.2c0.5,0.5,0.9,0.8,1.7,0.8c0.8,0,1.3-0.3,1.7-0.8
			c0.5-0.5,0.6-1.3,0.6-2.2s-0.2-1.7-0.6-2.2c-0.5-0.5-0.9-0.8-1.6-0.8c-0.8,0-1.3,0.3-1.7,0.8C426.1,145.6,425.9,146.4,425.9,147.3
			z"/>
	</g>
	<g id="_12.0_2" class="st0">
		<path d="M375.2,103V88.7c-0.3,0.3-0.9,0.6-1.7,1.1c-0.8,0.5-1.6,0.6-2.2,0.9v-2c0.9-0.3,1.9-0.6,2.8-1.1s1.7-1.1,2.3-1.6h0.8v17.1
			L375.2,103L375.2,103z"/>
		<path d="M391.3,90.6c0-0.9-0.3-1.6-0.8-2.2c-0.6-0.5-1.4-0.8-2.3-0.8c-0.6,0-1.4,0.2-2,0.5c-0.8,0.3-1.4,0.8-2,1.6v-2
			c0.5-0.6,1.1-0.9,1.9-1.3c0.6-0.3,1.6-0.5,2.5-0.5c1.6,0,2.7,0.5,3.6,1.3s1.4,1.9,1.4,3.3c0,1.3-0.3,2.3-0.8,3.1
			c-0.6,0.9-1.6,1.9-3,2.8s-2.3,1.7-2.8,2s-0.8,0.8-0.9,1.3c-0.2,0.3-0.3,0.8-0.3,1.4h8.3v1.9h-10.5v-0.8c0-0.9,0.2-1.7,0.5-2.5
			c0.3-0.6,0.6-1.3,1.3-2c0.6-0.6,1.6-1.4,2.8-2.3c1.3-0.9,2.2-1.7,2.7-2.3C391,92.3,391.3,91.6,391.3,90.6z"/>
		<path d="M396.3,101.9c0-0.3,0.2-0.8,0.5-0.9c0.3-0.3,0.6-0.5,0.9-0.5c0.5,0,0.8,0.2,0.9,0.5c0.3,0.3,0.5,0.6,0.5,0.9
			s-0.2,0.6-0.5,0.9s-0.6,0.5-0.9,0.5c-0.5,0-0.8-0.2-0.9-0.5C396.5,102.5,396.3,102.2,396.3,101.9z"/>
		<path d="M401.3,95c0-3,0.5-5.2,1.4-6.7c0.9-1.6,2.3-2.3,4.2-2.3c3.6,0,5.3,2.8,5.3,8.6c0,2.8-0.5,5-1.6,6.4
			c-0.9,1.6-2.3,2.2-4.2,2.2c-1.7,0-3-0.8-3.9-2.2C401.7,99.5,401.3,97.7,401.3,95z M403.5,94.8c0,4.4,1.1,6.7,3.4,6.7
			c2.2,0,3.3-2.2,3.3-6.7c0-4.7-1.1-7-3.3-7C404.6,87.8,403.5,90.1,403.5,94.8z"/>
		<path d="M414.3,90.5c0-1.4,0.3-2.5,1.1-3.3c0.8-0.8,1.7-1.3,3-1.3s2.2,0.3,2.8,1.1s0.9,1.7,0.9,3.1c0,1.3-0.3,2.3-1.1,3.1
			s-1.7,1.3-3,1.3c-1.1,0-2-0.3-2.8-1.1C414.6,92.8,414.3,91.7,414.3,90.5z M415.9,90.5c0,0.9,0.2,1.7,0.6,2.2
			c0.5,0.5,0.9,0.8,1.7,0.8c0.8,0,1.3-0.3,1.7-0.8c0.5-0.5,0.6-1.3,0.6-2.2c0-0.9-0.2-1.7-0.6-2.2c-0.3-0.5-0.9-0.8-1.6-0.8
			c-0.8,0-1.3,0.3-1.7,0.8C416.2,88.7,415.9,89.4,415.9,90.5z M429.4,86.2l-10.8,16.9h-1.7l10.8-16.9H429.4z M424.4,99.1
			c0-1.4,0.3-2.5,1.1-3.3c0.8-0.8,1.7-1.3,3-1.3s2,0.3,2.8,1.1c0.6,0.8,0.9,1.7,0.9,3.1c0,1.3-0.3,2.3-1.1,3.1
			c-0.8,0.8-1.7,1.3-3,1.3c-1.1,0-2-0.3-2.8-1.1C424.7,101.3,424.4,100.3,424.4,99.1z M425.9,98.9c0,0.9,0.2,1.6,0.6,2.2
			c0.5,0.5,0.9,0.8,1.7,0.8c0.8,0,1.3-0.3,1.7-0.8c0.5-0.5,0.6-1.3,0.6-2.2c0-0.9-0.2-1.7-0.6-2.2c-0.5-0.5-0.9-0.8-1.6-0.8
			c-0.8,0-1.3,0.3-1.7,0.8C426.1,97.3,425.9,98,425.9,98.9z"/>
	</g>
</g>
<g id="线-2">
	<rect id="矩形_863_拷贝_2-2" x="442.5" y="343.2" class="st1" width="213.3" height="2"/>
	<rect id="矩形_863_拷贝_3-2" x="442.5" y="291.9" class="st1" width="213.3" height="2"/>
	<rect id="矩形_863_拷贝_4-2" x="442.5" y="240.6" class="st1" width="213.3" height="2"/>
	<rect id="矩形_863_拷贝_5-4" x="442.5" y="190.4" class="st1" width="213.3" height="2"/>
	<rect id="矩形_863_拷贝_5-5" x="442.5" y="139.2" class="st1" width="213.3" height="2"/>
	<rect id="矩形_863_拷贝_5-6" x="442.5" y="87.8" class="st1" width="213.3" height="2"/>
	<rect id="矩形_863-2" x="442.5" y="84.8" class="st2" width="2" height="313.7"/>
</g>
<rect id="矩形_864-2" x="473.8" y="253.6" class="st3" width="46.2" height="142.8"/>
<rect id="矩形_864_拷贝-2" x="520.2" y="261.8" class="st4" width="46.2" height="134.7"/>
<rect id="矩形_864_拷贝_2-2" x="566.4" y="305" class="st5" width="46.2" height="91.5"/>
<rect id="矩形_863_拷贝-2" x="442.5" y="396.5" class="st2" width="213.3" height="2"/>
<g id="_3">
	<g id="_2.0_3" class="st0">
		<path d="M97.6,747.2c0-0.9-0.3-1.6-0.8-2.2c-0.6-0.5-1.4-0.8-2.4-0.8c-0.6,0-1.4,0.2-2,0.5c-0.8,0.3-1.4,0.8-2,1.6v-2
			c0.5-0.6,1.1-0.9,1.9-1.3c0.6-0.3,1.6-0.5,2.5-0.5c1.6,0,2.7,0.5,3.6,1.3s1.4,1.9,1.4,3.3c0,1.3-0.3,2.4-0.8,3.1
			c-0.6,0.9-1.6,1.9-3,2.8s-2.4,1.7-2.8,2c-0.5,0.5-0.8,0.8-0.9,1.3c-0.2,0.3-0.3,0.8-0.3,1.4h8.3v1.9H89.8v-0.8
			c0-0.9,0.2-1.7,0.5-2.5c0.3-0.6,0.6-1.3,1.3-2c0.6-0.6,1.6-1.4,2.8-2.4c1.3-0.9,2.2-1.7,2.7-2.4C97.5,748.7,97.6,748,97.6,747.2z"
			/>
		<path d="M102.7,758.3c0-0.3,0.2-0.8,0.5-0.9c0.3-0.3,0.6-0.5,0.9-0.5c0.5,0,0.8,0.2,0.9,0.5c0.3,0.3,0.5,0.6,0.5,0.9
			c0,0.3-0.2,0.6-0.5,0.9c-0.3,0.3-0.6,0.5-0.9,0.5c-0.5,0-0.8-0.2-0.9-0.5C102.8,759.1,102.7,758.8,102.7,758.3z"/>
		<path d="M107.7,751.4c0-3,0.5-5.2,1.4-6.7c0.9-1.6,2.4-2.4,4.2-2.4c3.6,0,5.3,2.8,5.3,8.6c0,2.8-0.5,5-1.6,6.4
			c-0.9,1.6-2.4,2.2-4.2,2.2c-1.7,0-3-0.8-3.9-2.2C108.1,756.3,107.7,754.2,107.7,751.4z M109.9,751.4c0,4.4,1.1,6.7,3.4,6.7
			c2.2,0,3.3-2.2,3.3-6.7c0-4.7-1.1-7.1-3.3-7.1C111.1,744.2,109.9,746.5,109.9,751.4z"/>
		<path d="M120.7,747c0-1.4,0.3-2.5,1.1-3.3c0.8-0.8,1.7-1.3,3-1.3s2.2,0.3,2.8,1.1c0.6,0.8,0.9,1.7,0.9,3.1c0,1.3-0.3,2.4-1.1,3.1
			c-0.8,0.8-1.7,1.3-3,1.3c-1.1,0-2-0.3-2.8-1.1C121,749.2,120.7,748.3,120.7,747z M122.4,746.9c0,0.9,0.2,1.7,0.6,2.2
			c0.5,0.5,0.9,0.8,1.7,0.8c0.8,0,1.3-0.3,1.7-0.8c0.5-0.5,0.6-1.3,0.6-2.2s-0.2-1.7-0.6-2.2c-0.3-0.5-0.9-0.8-1.6-0.8
			c-0.8,0-1.3,0.3-1.7,0.8C122.6,745.1,122.4,745.9,122.4,746.9z M135.9,742.8l-10.8,16.9h-1.9l10.8-16.9H135.9z M130.7,755.6
			c0-1.4,0.3-2.5,1.1-3.3s1.7-1.3,3-1.3s2,0.3,2.8,1.1c0.6,0.8,0.9,1.7,0.9,3.1c0,1.3-0.3,2.4-1.1,3.1s-1.7,1.3-3,1.3
			c-1.1,0-2-0.3-2.8-1.1C131,757.8,130.7,756.7,130.7,755.6z M132.4,755.5c0,0.9,0.2,1.6,0.6,2.2c0.5,0.5,0.9,0.8,1.7,0.8
			s1.3-0.3,1.7-0.8c0.5-0.5,0.6-1.3,0.6-2.2s-0.2-1.7-0.6-2.2c-0.5-0.5-0.9-0.8-1.6-0.8c-0.8,0-1.3,0.3-1.7,0.8
			C132.6,753.8,132.4,754.5,132.4,755.5z"/>
	</g>
	<g id="_4.0_3" class="st0">
		<path d="M98.4,699.5v11.1h2.5v1.7h-2.5v3.9h-2v-3.9h-7.8v-1.7c1.4-1.6,2.8-3.3,4.2-5.3c1.4-2,2.5-3.9,3.4-5.8H98.4L98.4,699.5z
			 M91.1,710.5h5.5v-8c-0.8,1.4-1.6,2.7-2.4,3.9C93.2,707.7,92.1,709.1,91.1,710.5z"/>
		<path d="M102.7,715c0-0.3,0.2-0.8,0.5-0.9c0.3-0.3,0.6-0.5,0.9-0.5c0.5,0,0.8,0.2,0.9,0.5c0.3,0.3,0.5,0.6,0.5,0.9
			c0,0.3-0.2,0.6-0.5,0.9c-0.3,0.3-0.6,0.5-0.9,0.5c-0.5,0-0.8-0.2-0.9-0.5C102.8,715.8,102.7,715.5,102.7,715z"/>
		<path d="M107.7,708.1c0-3,0.5-5.2,1.4-6.7c0.9-1.6,2.4-2.4,4.2-2.4c3.6,0,5.3,2.8,5.3,8.6c0,2.8-0.5,5-1.6,6.4
			c-0.9,1.6-2.4,2.2-4.2,2.2c-1.7,0-3-0.8-3.9-2.2C108.1,713,107.7,711,107.7,708.1z M109.9,708.1c0,4.4,1.1,6.7,3.4,6.7
			c2.2,0,3.3-2.2,3.3-6.7c0-4.7-1.1-7.1-3.3-7.1C111.1,700.9,109.9,703.3,109.9,708.1z"/>
		<path d="M120.7,703.7c0-1.4,0.3-2.5,1.1-3.3c0.8-0.8,1.7-1.3,3-1.3s2.2,0.3,2.8,1.1c0.6,0.8,0.9,1.7,0.9,3.1
			c0,1.3-0.3,2.4-1.1,3.1c-0.8,0.8-1.7,1.3-3,1.3c-1.1,0-2-0.3-2.8-1.1C121,705.9,120.7,705,120.7,703.7z M122.4,703.6
			c0,0.9,0.2,1.7,0.6,2.2s0.9,0.8,1.7,0.8c0.8,0,1.3-0.3,1.7-0.8c0.5-0.5,0.6-1.3,0.6-2.2s-0.2-1.7-0.6-2.2
			c-0.3-0.5-0.9-0.8-1.6-0.8c-0.8,0-1.3,0.3-1.7,0.8C122.6,701.9,122.4,702.7,122.4,703.6z M135.9,699.5l-10.8,16.9h-1.9l10.8-16.9
			H135.9z M130.7,712.4c0-1.4,0.3-2.5,1.1-3.3s1.7-1.3,3-1.3s2,0.3,2.8,1.1c0.6,0.8,0.9,1.7,0.9,3.1c0,1.3-0.3,2.4-1.1,3.1
			s-1.7,1.3-3,1.3c-1.1,0-2-0.3-2.8-1.1C131,714.6,130.7,713.5,130.7,712.4z M132.4,712.2c0,0.9,0.2,1.6,0.6,2.2
			c0.5,0.5,0.9,0.8,1.7,0.8s1.3-0.3,1.7-0.8c0.5-0.5,0.6-1.3,0.6-2.2s-0.2-1.7-0.6-2.2c-0.5-0.5-0.9-0.8-1.6-0.8
			c-0.8,0-1.3,0.3-1.7,0.8C132.6,710.5,132.4,711.3,132.4,712.2z"/>
	</g>
	<g id="_6.0_3" class="st0">
		<path d="M99.5,654.4c-0.9-0.5-1.7-0.6-2.7-0.6c-1.4,0-2.7,0.6-3.4,1.9c-0.9,1.3-1.3,3-1.4,5.2l0,0c0.8-1.6,2-2.4,3.8-2.4
			c1.4,0,2.7,0.5,3.4,1.4c0.9,0.9,1.3,2.2,1.3,3.8s-0.5,3-1.6,4.1c-0.9,1.1-2.2,1.6-3.8,1.6c-1.7,0-3-0.6-4.1-2
			c-0.9-1.3-1.4-3.3-1.4-5.6c0-3,0.6-5.3,1.9-7.1c1.3-1.7,3-2.7,5-2.7c1.3,0,2.2,0.2,2.8,0.5v2h0.2
			C99.5,654.5,99.5,654.4,99.5,654.4z M92,663.5c0,1.1,0.3,2,0.9,2.8s1.4,1.3,2.4,1.3s1.7-0.3,2.2-0.9c0.6-0.6,0.9-1.6,0.9-2.7
			c0-1.1-0.3-2-0.8-2.7c-0.5-0.6-1.3-0.9-2.4-0.9c-0.9,0-1.7,0.3-2.4,0.9C92.3,661.9,92,662.5,92,663.5z"/>
		<path d="M102.7,667.8c0-0.3,0.2-0.8,0.5-0.9c0.3-0.3,0.6-0.5,0.9-0.5c0.5,0,0.8,0.2,0.9,0.5c0.3,0.3,0.5,0.6,0.5,0.9
			c0,0.3-0.2,0.6-0.5,0.9c-0.3,0.3-0.6,0.5-0.9,0.5c-0.5,0-0.8-0.2-0.9-0.5C102.8,668.5,102.7,668.2,102.7,667.8z"/>
		<path d="M107.7,660.9c0-3,0.5-5.2,1.4-6.7c0.9-1.6,2.4-2.4,4.2-2.4c3.6,0,5.3,2.8,5.3,8.6c0,2.8-0.5,5-1.6,6.4
			c-0.9,1.6-2.4,2.2-4.2,2.2c-1.7,0-3-0.8-3.9-2.2C108.1,665.7,107.7,663.6,107.7,660.9z M109.9,660.8c0,4.4,1.1,6.7,3.4,6.7
			c2.2,0,3.3-2.2,3.3-6.7c0-4.7-1.1-7.1-3.3-7.1S109.9,656.1,109.9,660.8z"/>
		<path d="M120.7,656.4c0-1.4,0.3-2.5,1.1-3.3c0.8-0.8,1.7-1.3,3-1.3s2.2,0.3,2.8,1.1c0.6,0.8,0.9,1.7,0.9,3.1
			c0,1.3-0.3,2.4-1.1,3.1s-1.7,1.3-3,1.3c-1.1,0-2-0.3-2.8-1.1C121,658.8,120.7,657.7,120.7,656.4z M122.4,656.2
			c0,0.9,0.2,1.7,0.6,2.2s0.9,0.8,1.7,0.8c0.8,0,1.3-0.3,1.7-0.8c0.5-0.5,0.6-1.3,0.6-2.2s-0.2-1.7-0.6-2.2
			c-0.3-0.5-0.9-0.8-1.6-0.8c-0.8,0-1.3,0.3-1.7,0.8C122.6,654.7,122.4,655.3,122.4,656.2z M135.9,652.2l-10.8,16.9h-1.9l10.8-16.9
			H135.9z M130.7,665c0-1.4,0.3-2.5,1.1-3.3s1.7-1.3,3-1.3s2,0.3,2.8,1.1c0.6,0.8,0.9,1.7,0.9,3.1c0,1.3-0.3,2.4-1.1,3.1
			s-1.7,1.3-3,1.3c-1.1,0-2-0.3-2.8-1.1C131,667.2,130.7,666.3,130.7,665z M132.4,664.9c0,0.9,0.2,1.6,0.6,2.2
			c0.5,0.5,0.9,0.8,1.7,0.8s1.3-0.3,1.7-0.8c0.5-0.5,0.6-1.3,0.6-2.2s-0.2-1.7-0.6-2.2c-0.5-0.5-0.9-0.8-1.6-0.8
			c-0.8,0-1.3,0.3-1.7,0.8C132.6,663.3,132.4,663.9,132.4,664.9z"/>
	</g>
	<g id="_8.0_3" class="st0">
		<path d="M89.5,613c0-0.9,0.3-1.9,0.9-2.7s1.3-1.4,2.2-1.7c-0.8-0.5-1.3-0.9-1.7-1.6c-0.5-0.6-0.6-1.4-0.6-2c0-0.8,0.2-1.6,0.6-2.2
			c0.5-0.6,0.9-1.1,1.7-1.6c0.8-0.5,1.6-0.6,2.4-0.6c0.9,0,1.7,0.2,2.4,0.6c0.8,0.3,1.3,0.9,1.7,1.6c0.5,0.6,0.6,1.4,0.6,2.2
			s-0.2,1.4-0.6,2c-0.5,0.6-0.9,1.3-1.7,1.6c0.9,0.3,1.7,0.9,2.2,1.7c0.6,0.8,0.8,1.7,0.8,2.7s-0.2,1.9-0.6,2.5
			c-0.5,0.8-1.1,1.4-1.9,1.7c-0.8,0.5-1.7,0.6-2.8,0.6c-1.1,0-2-0.2-2.8-0.6c-0.8-0.5-1.4-0.9-1.9-1.7
			C89.8,614.7,89.5,613.9,89.5,613z M91.5,612.8c0,0.9,0.3,1.7,0.9,2.4c0.6,0.6,1.4,0.9,2.5,0.9c0.9,0,1.9-0.3,2.5-0.9
			c0.6-0.6,0.9-1.4,0.9-2.4s-0.3-1.7-0.9-2.4c-0.6-0.6-1.4-0.9-2.4-0.9s-1.7,0.3-2.4,0.9C91.8,611.1,91.5,611.9,91.5,612.8z
			 M92.1,605c0,0.8,0.3,1.4,0.8,1.9s1.3,0.8,1.9,0.8c0.8,0,1.4-0.3,2-0.8s0.8-1.3,0.8-1.9c0-0.8-0.3-1.4-0.8-1.9s-1.3-0.8-2-0.8
			s-1.4,0.3-2,0.8C92.5,603.6,92.1,604.2,92.1,605z"/>
		<path d="M102.7,616.4c0-0.3,0.2-0.8,0.5-0.9c0.3-0.2,0.6-0.5,0.9-0.5c0.5,0,0.8,0.2,0.9,0.5c0.3,0.3,0.5,0.6,0.5,0.9
			s-0.2,0.6-0.5,0.9c-0.3,0.3-0.6,0.5-0.9,0.5c-0.5,0-0.8-0.2-0.9-0.5C102.8,617.2,102.7,616.9,102.7,616.4z"/>
		<path d="M107.7,609.5c0-3,0.5-5.2,1.4-6.7c0.9-1.6,2.4-2.4,4.2-2.4c3.6,0,5.3,2.8,5.3,8.6c0,2.8-0.5,5-1.6,6.4
			c-0.9,1.6-2.4,2.2-4.2,2.2c-1.7,0-3-0.8-3.9-2.2C108.1,614.4,107.7,612.2,107.7,609.5z M109.9,609.5c0,4.4,1.1,6.7,3.4,6.7
			c2.2,0,3.3-2.2,3.3-6.7c0-4.7-1.1-7.1-3.3-7.1C111.1,602.3,109.9,604.7,109.9,609.5z"/>
		<path d="M120.7,605.1c0-1.4,0.3-2.5,1.1-3.3c0.8-0.8,1.7-1.3,3-1.3s2.2,0.3,2.8,1.1c0.6,0.8,0.9,1.7,0.9,3.1
			c0,1.3-0.3,2.4-1.1,3.1s-1.7,1.3-3,1.3c-1.1,0-2-0.3-2.8-1.1C121,607.3,120.7,606.4,120.7,605.1z M122.4,605
			c0,0.9,0.2,1.7,0.6,2.2s0.9,0.8,1.7,0.8c0.8,0,1.3-0.3,1.7-0.8c0.5-0.5,0.6-1.3,0.6-2.2s-0.2-1.7-0.6-2.2
			c-0.3-0.5-0.9-0.8-1.6-0.8c-0.8,0-1.3,0.3-1.7,0.8C122.6,603.3,122.4,604,122.4,605z M135.9,600.9l-10.8,16.9h-1.9l10.8-16.9
			H135.9z M130.7,613.6c0-1.4,0.3-2.5,1.1-3.3s1.7-1.3,3-1.3s2,0.3,2.8,1.1c0.6,0.8,0.9,1.7,0.9,3.1c0,1.3-0.3,2.4-1.1,3.1
			s-1.7,1.3-3,1.3c-1.1,0-2-0.3-2.8-1.1C131,616,130.7,614.9,130.7,613.6z M132.4,613.6c0,0.9,0.2,1.6,0.6,2.2
			c0.5,0.5,0.9,0.8,1.7,0.8s1.3-0.3,1.7-0.8c0.5-0.5,0.6-1.3,0.6-2.2s-0.2-1.7-0.6-2.2c-0.5-0.5-0.9-0.8-1.6-0.8
			c-0.8,0-1.3,0.3-1.7,0.8C132.6,611.9,132.4,612.7,132.4,613.6z"/>
	</g>
	<g id="_10.0_3" class="st0">
		<path d="M83.1,566.3V552c-0.3,0.3-0.9,0.6-1.7,1.1c-0.8,0.5-1.6,0.6-2.2,0.9v-2.2c0.9-0.3,1.9-0.6,2.8-1.1s1.7-1.1,2.4-1.6h0.8
			v17.1L83.1,566.3L83.1,566.3z"/>
		<path d="M90.9,558.3c0-3,0.5-5.2,1.4-6.7c0.9-1.6,2.4-2.4,4.2-2.4c3.6,0,5.3,2.8,5.3,8.6c0,2.8-0.5,5-1.6,6.4
			c-0.9,1.6-2.4,2.2-4.2,2.2c-1.7,0-3-0.8-3.9-2.2C91.2,562.8,90.9,560.9,90.9,558.3z M93.1,558.1c0,4.4,1.1,6.7,3.4,6.7
			c2.2,0,3.3-2.2,3.3-6.7c0-4.7-1.1-7.1-3.3-7.1C94.2,551,93.1,553.4,93.1,558.1z"/>
		<path d="M104.2,565.2c0-0.3,0.2-0.8,0.5-0.9c0.3-0.3,0.6-0.5,0.9-0.5c0.5,0,0.8,0.2,0.9,0.5c0.3,0.3,0.5,0.6,0.5,0.9
			s-0.2,0.6-0.5,0.9c-0.3,0.3-0.6,0.5-0.9,0.5c-0.5,0-0.8-0.2-0.9-0.5C104.4,565.8,104.2,565.5,104.2,565.2z"/>
		<path d="M109.2,558.3c0-3,0.5-5.2,1.4-6.7c0.9-1.6,2.4-2.4,4.2-2.4c3.6,0,5.3,2.8,5.3,8.6c0,2.8-0.5,5-1.6,6.4
			c-0.9,1.6-2.4,2.2-4.2,2.2c-1.7,0-3-0.8-3.9-2.2C109.7,563,109.2,560.9,109.2,558.3z M111.3,558.1c0,4.4,1.1,6.7,3.4,6.7
			c2.2,0,3.3-2.2,3.3-6.7c0-4.7-1.1-7.1-3.3-7.1S111.3,553.4,111.3,558.1z"/>
		<path d="M122.1,553.7c0-1.4,0.3-2.5,1.1-3.3c0.8-0.8,1.7-1.3,3-1.3s2.2,0.3,2.8,1.1s0.9,1.7,0.9,3.1c0,1.3-0.3,2.4-1.1,3.1
			s-1.7,1.3-3,1.3c-1.1,0-2-0.3-2.8-1.1C122.2,555.9,122.1,555,122.1,553.7z M123.8,553.7c0,0.9,0.2,1.7,0.6,2.2s0.9,0.8,1.7,0.8
			c0.8,0,1.3-0.3,1.7-0.8c0.5-0.5,0.6-1.3,0.6-2.2s-0.2-1.7-0.6-2.2c-0.3-0.5-0.9-0.8-1.6-0.8c-0.8,0-1.3,0.3-1.7,0.8
			C124,552,123.8,552.8,123.8,553.7z M137.3,549.5l-10.8,16.9h-1.9l10.8-16.9H137.3z M132.1,562.3c0-1.4,0.3-2.5,1.1-3.3
			s1.7-1.3,3-1.3s2,0.3,2.8,1.1c0.6,0.8,0.9,1.7,0.9,3.1c0,1.3-0.3,2.4-1.1,3.1s-1.7,1.3-3,1.3c-1.1,0-2-0.3-2.8-1.1
			C132.4,564.5,132.1,563.6,132.1,562.3z M133.9,562.2c0,0.9,0.2,1.6,0.6,2.2c0.5,0.5,0.9,0.8,1.7,0.8s1.3-0.3,1.7-0.8
			c0.5-0.5,0.6-1.3,0.6-2.2s-0.2-1.7-0.6-2.2c-0.5-0.5-0.9-0.8-1.6-0.8c-0.8,0-1.3,0.3-1.7,0.8C134,560.6,133.9,561.2,133.9,562.2z"
			/>
	</g>
	<g id="_12.0_3" class="st0">
		<path d="M83.1,518v-14.3c-0.3,0.3-0.9,0.6-1.7,1.1c-0.8,0.5-1.6,0.6-2.2,0.9v-2c0.9-0.3,1.9-0.6,2.8-1.1s1.7-1.1,2.4-1.6h0.8v17.1
			L83.1,518L83.1,518z"/>
		<path d="M99,505.6c0-0.9-0.3-1.6-0.8-2.2c-0.6-0.5-1.4-0.8-2.4-0.8c-0.6,0-1.4,0.2-2,0.5c-0.8,0.3-1.4,0.8-2,1.6v-2
			c0.5-0.6,1.1-0.9,1.9-1.3c0.6-0.3,1.6-0.5,2.5-0.5c1.6,0,2.7,0.5,3.6,1.3s1.4,1.9,1.4,3.3c0,1.3-0.3,2.4-0.8,3.1
			c-0.6,0.9-1.6,1.9-3,2.8s-2.4,1.7-2.8,2c-0.5,0.5-0.8,0.8-0.9,1.3c-0.2,0.3-0.3,0.8-0.3,1.4h8.3v1.9H91.2v-0.8
			c0-0.9,0.2-1.7,0.5-2.5c0.3-0.6,0.6-1.3,1.3-2c0.6-0.6,1.6-1.4,2.8-2.4c1.3-0.9,2.2-1.7,2.7-2.4C98.9,507.3,99,506.5,99,505.6z"/>
		<path d="M104.2,516.9c0-0.3,0.2-0.8,0.5-0.9c0.3-0.3,0.6-0.5,0.9-0.5c0.5,0,0.8,0.2,0.9,0.5c0.3,0.3,0.5,0.6,0.5,0.9
			c0,0.3-0.2,0.6-0.5,0.9c-0.3,0.3-0.6,0.5-0.9,0.5c-0.5,0-0.8-0.2-0.9-0.5C104.4,517.5,104.2,517.2,104.2,516.9z"/>
		<path d="M109.2,510c0-3,0.5-5.2,1.4-6.7c0.9-1.6,2.4-2.4,4.2-2.4c3.6,0,5.3,2.8,5.3,8.6c0,2.8-0.5,5-1.6,6.4
			c-0.9,1.6-2.4,2.2-4.2,2.2c-1.7,0-3-0.8-3.9-2.2C109.7,514.7,109.2,512.6,109.2,510z M111.3,509.8c0,4.4,1.1,6.7,3.4,6.7
			c2.2,0,3.3-2.2,3.3-6.7c0-4.7-1.1-7.1-3.3-7.1C112.5,502.8,111.3,505.1,111.3,509.8z"/>
		<path d="M122.1,505.4c0-1.4,0.3-2.5,1.1-3.3c0.8-0.8,1.7-1.3,3-1.3s2.2,0.3,2.8,1.1c0.6,0.8,0.9,1.7,0.9,3.1
			c0,1.3-0.3,2.4-1.1,3.1c-0.8,0.8-1.7,1.3-3,1.3c-1.1,0-2-0.3-2.8-1.1C122.2,507.6,122.1,506.7,122.1,505.4z M123.8,505.3
			c0,0.9,0.2,1.7,0.6,2.2s0.9,0.8,1.7,0.8c0.8,0,1.3-0.3,1.7-0.8c0.5-0.5,0.6-1.3,0.6-2.2s-0.2-1.7-0.6-2.2
			c-0.3-0.5-0.9-0.8-1.6-0.8c-0.8,0-1.3,0.3-1.7,0.8C124,503.7,123.8,504.3,123.8,505.3z M137.3,501.2l-10.8,16.9h-1.9l10.8-16.9
			L137.3,501.2L137.3,501.2z M132.1,514c0-1.4,0.3-2.5,1.1-3.3s1.7-1.3,3-1.3s2,0.3,2.8,1.1c0.6,0.8,0.9,1.7,0.9,3.1
			c0,1.3-0.3,2.4-1.1,3.1c-0.8,0.8-1.7,1.3-3,1.3c-1.1,0-2-0.3-2.8-1.1C132.4,516.2,132.1,515.3,132.1,514z M133.9,513.9
			c0,0.9,0.2,1.6,0.6,2.2c0.5,0.5,0.9,0.8,1.7,0.8s1.3-0.3,1.7-0.8c0.5-0.5,0.6-1.3,0.6-2.2s-0.2-1.7-0.6-2.2
			c-0.5-0.5-0.9-0.8-1.6-0.8c-0.8,0-1.3,0.3-1.7,0.8C134,512.3,133.9,513,133.9,513.9z"/>
	</g>
</g>
<g id="线-3">
	<rect id="矩形_863_拷贝_2-3" x="150.5" y="758.3" class="st1" width="213.5" height="2"/>
	<rect id="矩形_863_拷贝_3-3" x="150.5" y="707" class="st1" width="213.5" height="2"/>
	<rect id="矩形_863_拷贝_4-3" x="150.5" y="655.8" class="st1" width="213.5" height="2"/>
	<rect id="矩形_863_拷贝_5-7" x="150.5" y="605.4" class="st1" width="213.5" height="2"/>
	<rect id="矩形_863_拷贝_5-8" x="150.5" y="554.2" class="st1" width="213.5" height="2"/>
	<rect id="矩形_863_拷贝_5-9" x="150.5" y="502.8" class="st1" width="213.5" height="2"/>
	<rect id="矩形_863-3" x="150.5" y="499.8" class="st2" width="2" height="314"/>
</g>
<rect id="矩形_864-3" x="181.8" y="579.3" class="st3" width="46.2" height="232.5"/>
<rect id="矩形_864_拷贝-3" x="228.1" y="626.6" class="st4" width="46.2" height="185.2"/>
<rect id="矩形_864_拷贝_2-3" x="274.5" y="677.9" class="st5" width="46.2" height="133.9"/>
<rect id="矩形_863_拷贝-3" x="150.5" y="811.8" class="st2" width="213.5" height="2"/>
<rect id="矩形_865" x="470" y="632" class="st3" width="36.5" height="35.9"/>
<rect id="矩形_865_拷贝" x="470" y="694.3" class="st4" width="36.5" height="35.9"/>
<rect id="矩形_865_拷贝_2" x="470" y="756.3" class="st5" width="36.5" height="35.9"/>
<g>
	<path d="M67.3,45.2h-2.8l-5.9-7.1c-0.2-0.3-0.3-0.5-0.3-0.7l0,0v7.8h-2.1V29.6h2.1V37l0,0c0-0.2,0.2-0.3,0.3-0.7l5.7-6.7h2.4
		l-6.5,7.6L67.3,45.2z"/>
	<path d="M68.3,39.7c0-1.9,0.5-3.3,1.6-4.3c1-1,2.4-1.6,4.1-1.6c1.7,0,2.9,0.5,4,1.6c1,1,1.4,2.4,1.4,4.3c0,1.7-0.5,3.1-1.6,4.3
		c-1,1.2-2.2,1.4-4,1.4c-1.7,0-2.9-0.5-4-1.6S68.3,41.4,68.3,39.7z M70.4,39.7c0,1.2,0.3,2.2,1,3.1s1.6,1,2.6,1c1.2,0,2.1-0.3,2.6-1
		c0.5-0.7,0.9-1.7,0.9-3.1c0-1.4-0.3-2.4-0.9-3.1c-0.5-0.7-1.4-1-2.6-1c-1,0-2.1,0.3-2.6,1.2C70.9,37.7,70.4,38.3,70.4,39.7z"/>
	<path d="M81.4,43c0.9,0.7,1.7,0.9,2.9,0.9c1,0,1.9-0.3,2.4-0.9s1-1.6,1-2.6h-4.7v-1.6h4.7c-0.2-1-0.5-1.9-1-2.6
		c-0.5-0.7-1.6-0.9-2.6-0.9s-1.9,0.3-2.8,0.9v-1.9c0.9-0.3,1.7-0.5,2.8-0.5c1.7,0,3.1,0.5,4.1,1.6c1,1,1.4,2.4,1.4,4.3
		c0,1.7-0.5,3.1-1.6,4.1s-2.1,1.6-3.8,1.6c-1.2,0-2.1-0.2-2.9-0.7V43z"/>
	<path d="M99.5,45.4v5h-1.7v-5h-0.5c-1.6,0-2.9-0.5-4-1.6c-1-1-1.6-2.4-1.6-4.1c0-1.9,0.5-3.3,1.6-4.3c1-1,2.4-1.6,4-1.6h0.3v-4.7
		h1.7v4.5h0.3c1.7,0,3.1,0.5,4.1,1.6s1.6,2.6,1.6,4.3c0,1.7-0.5,3.1-1.6,4.1s-2.2,1.7-4,1.7H99.5z M97.6,43.9v-8.4h-0.2
		c-1,0-1.9,0.3-2.6,1.2c-0.7,0.9-1,1.7-1,3.1c0,1.2,0.3,2.2,1,3.1c0.7,0.9,1.6,1.2,2.6,1.2h0.2V43.9z M99.5,35.4v8.4h0.2
		c1,0,2.1-0.3,2.6-1.2c0.5-0.9,1-1.7,1-2.9c0-1.4-0.3-2.4-1-3.1c-0.7-0.7-1.6-1.2-2.6-1.2C99.7,35.4,99.5,35.4,99.5,35.4z"/>
	<path d="M115,45.4v5h-1.7v-5h-0.3c-1.6,0-2.9-0.5-4-1.6c-1-1-1.6-2.4-1.6-4.1c0-1.9,0.5-3.3,1.6-4.3c1-1,2.4-1.6,4-1.6h0.3v-4.7
		h1.7v4.5h0.3c1.7,0,3.1,0.5,4.1,1.6c1,1,1.6,2.6,1.6,4.3c0,1.7-0.5,3.1-1.6,4.1c-1,1-2.4,1.7-4,1.7H115z M113.3,43.9v-8.4h-0.2
		c-1,0-1.9,0.3-2.6,1.2c-0.7,0.9-1,1.9-1,3.1c0,1.2,0.3,2.2,1,3.1c0.7,0.9,1.6,1.2,2.6,1.2h0.2V43.9z M115,35.4v8.4h0.2
		c1,0,2.1-0.3,2.6-1.2c0.5-0.9,1-1.7,1-2.9c0-1.4-0.3-2.4-1-3.1c-0.7-0.7-1.6-1.2-2.6-1.2C115.2,35.4,115,35.4,115,35.4z"/>
	<path d="M133.3,45.2h-1.7v-8.8c0,0.2-0.3,0.5-0.7,1.4l-5,7.4h-2.1V34h1.7v8.6c0.2-0.3,0.3-0.7,0.5-1l5.2-7.6h2.1
		C133.3,34,133.3,45.2,133.3,45.2z"/>
	<path d="M147.9,49.2h-1.7v-4h-9.3V34h1.9v9.5h5.5V34h1.9v9.5h1.7C147.9,43.5,147.9,49.2,147.9,49.2z"/>
	<path d="M159.8,45.2h-1.7v-8.8c0,0.2-0.3,0.5-0.7,1.4l-5,7.4h-2.1V34h1.7v8.6c0.2-0.3,0.3-0.7,0.5-1l5.2-7.6h2.1V45.2z"/>
	<path d="M172.6,40.1h-7.8c0,1.2,0.3,2.1,1,2.8s1.6,1,2.6,1c1.2,0,2.4-0.3,3.4-1.2v1.7c-1,0.7-2.4,1-4,1c-1.6,0-2.9-0.5-3.8-1.6
		c-0.9-1-1.4-2.4-1.4-4.1c0-1.7,0.5-3.1,1.6-4.3c1-1.2,2.2-1.7,3.6-1.7s2.6,0.5,3.4,1.4s1.2,2.2,1.2,4V40.1z M170.5,38.5
		c0-1-0.2-1.7-0.7-2.4c-0.5-0.7-1-0.7-1.9-0.7s-1.6,0.3-2.1,0.9s-1,1.4-1.2,2.2H170.5z"/>
	<path d="M184.6,45.2h-1.9v-5h-5.5v5h-1.9V34h1.9v4.5h5.5V34h1.9V45.2z"/>
	<path d="M195.3,35.6H192v9.5h-1.9v-9.5h-3.3v-1.7h8.6v1.7H195.3z"/>
	<path d="M209.9,35.6h-4.3v9.5h-1.9V34h6.4v1.6H209.9z"/>
	<path d="M211.3,39.7c0-1.9,0.5-3.3,1.6-4.3c1-1,2.4-1.6,4.1-1.6s2.9,0.5,4,1.6c1,1,1.4,2.4,1.4,4.3c0,1.7-0.5,3.1-1.6,4.3
		c-1,1.2-2.2,1.4-4,1.4s-2.9-0.5-4-1.6C211.8,42.8,211.3,41.4,211.3,39.7z M213.4,39.7c0,1.2,0.3,2.2,1,3.1s1.6,1,2.6,1
		c1.2,0,2.1-0.3,2.6-1c0.5-0.7,0.9-1.7,0.9-3.1c0-1.4-0.3-2.4-0.9-3.1c-0.5-0.7-1.4-1-2.6-1c-1,0-2.1,0.3-2.6,1.2
		C213.9,37.7,213.4,38.3,213.4,39.7z"/>
	<path d="M235.3,49.2h-1.7v-4h-8.3v4.1h-1.7v-5.9h1.2c1.9-2.8,2.8-5.9,2.9-9.5h6v9.5h1.7v5.7H235.3z M231.7,43.5v-7.9h-2.4
		c-0.2,2.9-1,5.5-2.4,7.9H231.7z"/>
	<path d="M237,39.7c0-1.9,0.5-3.3,1.6-4.3c1-1,2.4-1.6,4.1-1.6s2.9,0.5,4,1.6c1,1,1.4,2.4,1.4,4.3c0,1.7-0.5,3.1-1.6,4.3
		c-1,1.2-2.4,1.6-4.1,1.6s-2.9-0.5-4-1.6C237.3,43,237,41.4,237,39.7z M238.9,39.7c0,1.2,0.3,2.2,1,3.1c0.7,0.9,1.6,1,2.6,1
		c1.2,0,2.1-0.3,2.6-1c0.5-0.7,0.9-1.7,0.9-3.1c0-1.4-0.3-2.4-0.9-3.1c-0.5-0.7-1.4-1-2.6-1c-1,0-2.1,0.3-2.6,1.2
		C239.4,37.7,238.9,38.3,238.9,39.7z"/>
	<path d="M250.8,45.2V34h5c1.2,0,2.1,0.2,2.6,0.7c0.5,0.5,1,1.2,1,2.1c0,1.4-0.7,2.2-2.1,2.6c1.7,0.2,2.6,1,2.6,2.6
		c0,0.9-0.3,1.7-1,2.2s-1.6,0.9-2.6,0.9h-5.5V45.2z M252.8,35.6v3.1h2.6c1.4,0,2.1-0.5,2.1-1.6s-0.7-1.4-1.9-1.4h-2.8V35.6z
		 M252.8,40.2v3.3h2.9c1.4,0,2.1-0.5,2.1-1.7c0-1-0.9-1.6-2.4-1.6C255.4,40.2,252.8,40.2,252.8,40.2z"/>
	<path d="M262,39.7c0-1.9,0.5-3.3,1.6-4.3c1-1,2.4-1.6,4.1-1.6c1.7,0,2.9,0.5,4,1.6c1,1,1.4,2.4,1.4,4.3c0,1.7-0.5,3.1-1.6,4.3
		c-1,1.2-2.4,1.6-4.1,1.6s-2.9-0.5-4-1.6C262.3,43,262,41.4,262,39.7z M264,39.7c0,1.2,0.3,2.2,1,3.1s1.6,1,2.6,1
		c1.2,0,2.1-0.3,2.6-1s0.9-1.7,0.9-3.1c0-1.4-0.3-2.4-0.9-3.1c-0.5-0.7-1.4-1-2.6-1c-1,0-2.1,0.3-2.6,1.2
		C264.6,37.7,264,38.3,264,39.7z"/>
	<path d="M285.4,45.2h-1.7v-8.8c0,0.2-0.3,0.5-0.7,1.4l-5,7.4h-2.1V34h1.7v8.6c0.2-0.3,0.3-0.7,0.5-1l5.2-7.6h2.1L285.4,45.2
		L285.4,45.2z M283.9,29.2c-0.2,0.9-0.3,1.6-1,2.1c-0.7,0.5-1.2,0.7-2.1,0.7s-1.6-0.3-2.1-0.9c-0.5-0.5-0.9-1.2-0.9-2.1h1.2
		c0.2,1,0.7,1.7,1.9,1.7c0.5,0,0.9-0.2,1.2-0.5c0.3-0.3,0.5-0.7,0.7-1.2h1V29.2z"/>
	<path d="M294.4,39.7c0-1.9,0.5-3.3,1.6-4.3c1-1,2.4-1.6,4.1-1.6s2.9,0.5,4,1.6c1,1,1.4,2.4,1.4,4.3c0,1.7-0.5,3.1-1.6,4.3
		c-1,1.2-2.4,1.6-4.1,1.6s-2.9-0.5-4-1.6C294.7,43,294.4,41.4,294.4,39.7z M296.4,39.7c0,1.2,0.3,2.2,1,3.1s1.6,1,2.6,1
		c1.2,0,2.1-0.3,2.6-1c0.5-0.7,0.9-1.7,0.9-3.1c0-1.4-0.3-2.4-0.9-3.1c-0.5-0.7-1.4-1-2.6-1c-1,0-2.1,0.3-2.6,1.2
		C297,37.7,296.4,38.3,296.4,39.7z"/>
	<path d="M315.4,35.6h-3.3v9.5h-1.9v-9.5h-3.3v-1.7h8.6v1.7H315.4z"/>
	<path d="M326.9,45.2H325v-9.6h-5.5v9.5h-1.9V34h9.5v11.2H326.9z"/>
	<path d="M339,45.2h-1.9v-9.6h-2.6c-0.3,3.4-0.9,6-1.6,7.4c-0.7,1.4-1.7,2.2-2.9,2.2c-0.3,0-0.7,0-1-0.2v-1.6
		c0.2,0.2,0.5,0.2,0.9,0.2c1.6,0,2.6-3.3,3.1-9.6h6.2v11.2H339z"/>
	<path d="M342.8,34.7c1-0.7,2.4-1,3.8-1c2.8,0,4,1.4,4,4.3v7.2h-1.9v-1.7l0,0c-0.7,1.4-1.9,2.1-3.4,2.1c-1,0-1.9-0.3-2.6-0.9
		c-0.7-0.5-1-1.4-1-2.4c0-2.1,1.2-3.3,3.8-3.6l3.3-0.5c0-1.9-0.7-2.8-2.2-2.8c-1.4,0-2.6,0.5-3.6,1.4L342.8,34.7L342.8,34.7z
		 M346.1,39.9c-0.9,0.2-1.6,0.3-1.9,0.7c-0.3,0.3-0.5,0.9-0.5,1.4s0.2,1,0.5,1.4c0.3,0.3,0.9,0.5,1.6,0.5c0.9,0,1.6-0.3,2.1-0.9
		s0.9-1.4,0.9-2.2v-1.2L346.1,39.9z"/>
	<path d="M361,35.6h-3.3v9.5h-1.9v-9.5h-3.3v-1.7h8.6v1.7H361z"/>
	<path d="M363.1,45.2V34h1.9v4.3h2.9c1.2,0,2.1,0.3,2.8,0.9c0.7,0.5,1,1.4,1,2.6c0,1-0.3,1.9-1,2.6c-0.7,0.7-1.6,0.9-2.6,0.9H363.1z
		 M365.2,39.9v3.8h2.6c1.4,0,2.2-0.7,2.2-1.9c0-1.2-0.7-1.7-2.2-1.7h-2.6V39.9z M375.7,45.2h-1.9V34h1.9V45.2z"/>
	<path d="M387.4,43.7v6.7h-1.9V34h1.9v1.9l0,0c0.9-1.4,2.2-2.2,3.8-2.2c1.4,0,2.6,0.5,3.3,1.6c0.7,1,1.2,2.4,1.2,4
		c0,1.9-0.5,3.3-1.4,4.5c-0.9,1.2-2.2,1.7-3.8,1.7C389.3,45.4,388.3,44.9,387.4,43.7L387.4,43.7z M387.4,40.6c0,0.9,0.3,1.7,0.9,2.2
		c0.5,0.5,1.4,0.9,2.2,0.9c1,0,1.9-0.3,2.4-1.2c0.5-0.9,0.9-1.9,0.9-3.3c0-1.2-0.3-2.1-0.9-2.8c-0.5-0.7-1.4-1-2.2-1
		c-1,0-1.7,0.3-2.4,1c-0.7,0.7-0.9,1.6-0.9,2.6V40.6z"/>
	<path d="M399,34.7c1-0.7,2.4-1,3.8-1c2.8,0,4,1.4,4,4.3v7.2h-1.9v-1.7l0,0c-0.7,1.4-1.9,2.1-3.4,2.1c-1,0-1.9-0.3-2.6-0.9
		c-0.7-0.5-1-1.4-1-2.4c0-2.1,1.2-3.3,3.8-3.6l3.3-0.5c0-1.9-0.7-2.8-2.2-2.8c-1.4,0-2.6,0.5-3.6,1.4L399,34.7L399,34.7z
		 M402.2,39.9c-0.9,0.2-1.6,0.3-1.9,0.7c-0.3,0.3-0.5,0.9-0.5,1.4s0.2,1,0.5,1.4s0.9,0.5,1.6,0.5c0.9,0,1.6-0.3,2.1-0.9
		s0.9-1.4,0.9-2.2v-1.2L402.2,39.9z"/>
	<path d="M409.1,43c1,0.5,2.1,0.9,3.4,0.9c1.9,0,2.9-0.5,2.9-1.7c0-1.2-1-1.7-3.1-1.7h-1.2v-1.7h1c1.9,0,2.8-0.5,2.8-1.7
		c0-0.5-0.2-0.9-0.7-1.2c-0.5-0.3-1-0.3-1.7-0.3c-1,0-2.1,0.3-3.3,0.9v-1.7c1.2-0.5,2.4-0.7,3.4-0.7c2.8,0,4.1,1,4.1,2.9
		c0,0.7-0.2,1.2-0.7,1.7c-0.5,0.5-1,0.7-1.7,0.9l0,0c0.9,0,1.6,0.3,2.1,0.9c0.5,0.5,0.7,1,0.7,1.9c0,1-0.3,1.9-1.2,2.4
		c-0.9,0.5-2.1,0.9-3.4,0.9c-1.6,0-2.8-0.2-3.6-0.5V43H409.1z"/>
	<path d="M429.4,45.2h-1.9v-5H422v5h-1.9V34h1.9v4.5h5.5V34h1.9V45.2z"/>
	<path d="M433.1,45.2V34h1.9v4.3h2.9c1.2,0,2.1,0.3,2.8,0.9c0.7,0.5,1,1.4,1,2.6c0,1-0.3,1.9-1,2.6c-0.7,0.7-1.6,0.9-2.6,0.9H433.1z
		 M435,39.9v3.8h2.6c1.4,0,2.2-0.7,2.2-1.9c0-1.2-0.7-1.7-2.2-1.7H435V39.9z M445.6,45.2h-1.9V34h1.9V45.2z"/>
	<path d="M457.7,34l-3.8,5.7l3.6,5.5h-2.2l-2.1-3.6c-0.2-0.2-0.3-0.5-0.5-0.9l0,0c0,0-0.2,0.3-0.5,0.9l-2.2,3.6h-2.2l3.8-5.5
		l-3.6-5.7h2.2l2.1,3.8c0.2,0.2,0.3,0.5,0.5,0.9l0,0l2.8-4.7C455.5,34,457.7,34,457.7,34z"/>
	<path d="M475.3,45.2h-2.8l-4.8-5.3l0,0v5.3h-1.9V34h1.9v5.2l0,0l4.5-5.2h2.6l-5,5.3L475.3,45.2z"/>
	<path d="M477.3,34.7c1-0.7,2.4-1,3.8-1c2.8,0,4,1.4,4,4.3v7.2h-1.9v-1.7l0,0c-0.7,1.4-1.9,2.1-3.4,2.1c-1,0-1.9-0.3-2.6-0.9
		c-0.7-0.5-1-1.4-1-2.4c0-2.1,1.2-3.3,3.8-3.6l3.3-0.5c0-1.9-0.7-2.8-2.2-2.8c-1.4,0-2.6,0.5-3.6,1.4L477.3,34.7L477.3,34.7z
		 M480.6,39.9c-0.9,0.2-1.6,0.3-1.9,0.7c-0.3,0.3-0.5,0.9-0.5,1.4s0.2,1,0.5,1.4c0.3,0.3,0.9,0.5,1.6,0.5c0.9,0,1.6-0.3,2.1-0.9
		s0.9-1.4,0.9-2.2v-1.2L480.6,39.9z"/>
	<path d="M497.8,45.2H496v-9.6h-5.5v9.5h-2.1V34h9.5V45.2z"/>
	<path d="M510.9,45.2h-1.7v-8.8c0,0.2-0.3,0.5-0.7,1.4l-5,7.4h-2.1V34h1.7v8.6c0.2-0.3,0.3-0.7,0.5-1l5.2-7.6h2.1V45.2z"/>
	<path d="M521.6,35.6h-3.3v9.5h-1.9v-9.5h-3.3v-1.7h8.6v1.7H521.6z"/>
	<path d="M524,34.7c1-0.7,2.4-1,3.8-1c2.8,0,4,1.4,4,4.3v7.2h-1.9v-1.7l0,0c-0.7,1.4-1.9,2.1-3.4,2.1c-1,0-1.9-0.3-2.6-0.9
		c-0.7-0.5-1-1.4-1-2.4c0-2.1,1.2-3.3,3.8-3.6l3.3-0.5c0-1.9-0.7-2.8-2.2-2.8c-1.4,0-2.6,0.5-3.6,1.4V34.7z M527.3,39.9
		c-0.9,0.2-1.6,0.3-1.9,0.7c-0.3,0.3-0.5,0.9-0.5,1.4s0.2,1,0.5,1.4s0.9,0.5,1.6,0.5c0.9,0,1.6-0.3,2.1-0.9s0.9-1.4,0.9-2.2v-1.2
		L527.3,39.9z"/>
	<path d="M543.7,45.2h-1.9v-9.6h-2.6c-0.3,3.4-0.9,6-1.6,7.4c-0.7,1.4-1.7,2.2-2.9,2.2c-0.3,0-0.7,0-1-0.2v-1.6
		c0.2,0.2,0.5,0.2,0.9,0.2c1.6,0,2.6-3.3,3.1-9.6h6.2v11.2H543.7z"/>
	<path d="M546.4,39.7c0-1.9,0.5-3.3,1.6-4.3c1-1,2.4-1.6,4.1-1.6c1.7,0,2.9,0.5,4,1.6c1,1,1.4,2.4,1.4,4.3c0,1.7-0.5,3.1-1.6,4.3
		c-1,1.2-2.4,1.6-4.1,1.6c-1.7,0-2.9-0.5-4-1.6C546.8,43,546.4,41.4,546.4,39.7z M548.5,39.7c0,1.2,0.3,2.2,1,3.1
		c0.7,0.9,1.6,1,2.6,1c1.2,0,2.1-0.3,2.6-1s0.9-1.7,0.9-3.1c0-1.4-0.3-2.4-0.9-3.1c-0.5-0.7-1.4-1-2.6-1c-1,0-2.1,0.3-2.6,1.2
		C549,37.7,548.5,38.3,548.5,39.7z"/>
	<path d="M560.4,45.2V34h5c1.2,0,2.1,0.2,2.6,0.7s1,1.2,1,2.1c0,1.4-0.7,2.2-2.1,2.6c1.7,0.2,2.6,1,2.6,2.6c0,0.9-0.3,1.7-1,2.2
		c-0.7,0.5-1.6,0.9-2.6,0.9h-5.5V45.2z M562.3,35.6v3.1h2.6c1.4,0,2.1-0.5,2.1-1.6s-0.7-1.4-1.9-1.4h-2.8V35.6z M562.3,40.2v3.3h2.9
		c1.4,0,2.1-0.5,2.1-1.7c0-1-0.9-1.6-2.4-1.6C564.9,40.2,562.3,40.2,562.3,40.2z"/>
</g>
<g>
	<path d="M207.6,428.4c0,1.9-0.7,3.4-1.9,4.7c-1.4,1.2-3.1,1.7-5.2,1.7c-1.9,0-3.3-0.3-4.1-0.9v-2.6c1.4,0.9,2.8,1.4,4.1,1.4
		c1.4,0,2.6-0.3,3.4-1.2c0.9-0.7,1.2-1.7,1.2-3.1c0-1.2-0.5-2.2-1.4-2.9c-0.9-0.7-2.1-1-3.8-1c-1.2,0-2.4,0-3.4,0.2l0.7-10.2h9.5
		v2.2h-7.2l-0.3,5.7h1.9c2.1,0,3.8,0.5,5,1.6C207.3,424.9,207.6,426.5,207.6,428.4z"/>
	<path d="M230.6,434.6H228v-12.2h-3.3c-0.3,4.5-1,7.8-1.9,9.6s-2.2,2.8-3.8,2.8c-0.5,0-0.9,0-1.2-0.2v-2.1c0.3,0.2,0.7,0.2,1,0.2
		c2.1,0,3.3-4.1,4-12.4h7.8C230.6,420.3,230.6,434.6,230.6,434.6z"/>
	<path d="M246.6,428h-10c0,1.6,0.5,2.8,1.2,3.6c0.9,0.9,1.9,1.2,3.3,1.2c1.6,0,3.1-0.5,4.5-1.6v2.2c-1.2,0.9-2.9,1.4-5,1.4
		c-2.1,0-3.6-0.7-4.8-1.9c-1.2-1.2-1.7-3.1-1.7-5.5c0-2.2,0.7-4,1.9-5.3c1.2-1.4,2.9-2.1,4.7-2.1c1.9,0,3.3,0.5,4.3,1.7
		c1,1.2,1.6,2.9,1.6,5v1.2H246.6z M244.2,426.1c0-1.4-0.3-2.2-0.9-2.9c-0.5-0.7-1.4-1-2.6-1c-1,0-1.9,0.3-2.6,1.2
		c-0.7,0.9-1.2,1.7-1.4,2.9h7.4V426.1z"/>
	<path d="M259.2,422.3H255v12.2h-2.6v-12.2h-4.3v-2.1h11V422.3z"/>
</g>
<g>
	<path d="M512,434.7v-17.1c-0.3,0.3-1,0.9-2.1,1.4c-1,0.5-1.9,0.9-2.6,1v-2.4c1-0.3,2.2-0.7,3.4-1.4c1.2-0.7,2.1-1.2,2.8-1.9h1v20.5
		H512V434.7z"/>
	<path d="M521.3,425c0-3.4,0.5-6.2,1.7-8.1c1.2-1.9,2.9-2.8,5.2-2.8c4.3,0,6.4,3.4,6.4,10.3c0,3.4-0.5,6-1.7,7.8
		c-1.2,1.7-2.9,2.8-5,2.8s-3.6-0.9-4.7-2.6C522,430.7,521.3,428.3,521.3,425z M523.9,425c0,5.3,1.4,7.9,4,7.9c2.6,0,4-2.8,4-8.1
		c0-5.5-1.4-8.4-4-8.4C525.3,416.4,523.9,419.3,523.9,425z"/>
	<path d="M556.7,434.7h-2.6v-12.2h-3.3c-0.3,4.5-1,7.8-1.9,9.6s-2.2,2.8-3.8,2.8c-0.5,0-0.9,0-1.2-0.2v-2.1c0.3,0.2,0.7,0.2,1,0.2
		c2.1,0,3.3-4.1,4-12.4h7.8L556.7,434.7L556.7,434.7z"/>
	<path d="M572.7,428.1h-10c0,1.6,0.5,2.8,1.2,3.6c0.9,0.9,1.9,1.2,3.3,1.2c1.6,0,3.1-0.5,4.5-1.6v2.2c-1.2,0.9-2.9,1.4-5,1.4
		s-3.6-0.7-4.8-1.9c-1.2-1.2-1.7-3.1-1.7-5.5c0-2.2,0.7-4,1.9-5.3c1.2-1.4,2.9-2.1,4.7-2.1c1.9,0,3.3,0.5,4.3,1.7
		c1,1.2,1.6,2.9,1.6,5v1.2H572.7z M570.3,426.2c0-1.4-0.3-2.2-0.9-2.9c-0.5-0.7-1.4-1-2.6-1c-1,0-1.9,0.3-2.6,1.2
		c-0.7,0.9-1.2,1.7-1.4,2.9h7.4V426.2z"/>
	<path d="M585.3,422.4H581v12.2h-2.6v-12.2h-4.3v-2.1h11v2.1H585.3z"/>
</g>
<g>
	<path d="M222.8,831.9c0-1-0.3-1.9-1-2.6s-1.6-0.9-2.8-0.9c-0.9,0-1.7,0.2-2.6,0.7c-0.9,0.3-1.6,1-2.4,1.7v-2.4
		c0.7-0.7,1.4-1.2,2.2-1.6c0.9-0.3,1.7-0.5,2.9-0.5c1.7,0,3.3,0.5,4.3,1.4c1,1,1.7,2.2,1.7,4c0,1.6-0.3,2.8-1,3.8s-1.9,2.2-3.4,3.3
		c-1.7,1.2-2.8,2.1-3.3,2.4c-0.5,0.5-1,1-1.2,1.4c-0.2,0.5-0.3,1-0.3,1.7h10v2.2h-12.6v-0.9c0-1.2,0.2-2.1,0.5-2.9
		c0.3-0.9,0.9-1.6,1.6-2.4s1.9-1.7,3.4-2.8c1.6-1,2.6-2.1,3.3-2.9C222.6,834,222.8,833.1,222.8,831.9z"/>
	<path d="M228.5,837.1c0-3.4,0.5-6.2,1.7-8.1c1.2-1.9,2.9-2.8,5.2-2.8c4.3,0,6.4,3.4,6.4,10.3c0,3.4-0.5,6-1.7,7.8
		c-1.2,1.7-2.9,2.8-5,2.8c-2.1,0-3.6-0.9-4.7-2.6C229.2,842.8,228.5,840.3,228.5,837.1z M231.1,837.1c0,5.3,1.4,7.9,4,7.9
		s4-2.8,4-8.1c0-5.5-1.4-8.4-4-8.4S231.1,831.4,231.1,837.1z"/>
	<path d="M263.8,846.7h-2.6v-12.2h-3.3c-0.3,4.5-1,7.8-1.9,9.6c-0.9,1.9-2.2,2.8-3.8,2.8c-0.5,0-0.9,0-1.2-0.2v-2.1
		c0.3,0.2,0.7,0.2,1,0.2c2.1,0,3.3-4.1,4-12.4h7.8L263.8,846.7L263.8,846.7z"/>
	<path d="M279.8,840.2h-10c0,1.6,0.5,2.8,1.2,3.6s1.9,1.2,3.3,1.2c1.6,0,3.1-0.5,4.5-1.6v2.2c-1.2,0.9-2.9,1.4-5,1.4
		s-3.6-0.7-4.8-1.9c-1.2-1.4-1.7-3.1-1.7-5.5c0-2.2,0.7-4,1.9-5.3c1.2-1.4,2.9-2.1,4.7-2.1c1.9,0,3.3,0.5,4.3,1.7s1.6,2.9,1.6,5v1.2
		H279.8z M277.4,838.3c0-1.4-0.3-2.2-0.9-2.9s-1.4-1-2.6-1c-1,0-1.9,0.3-2.6,1.2c-0.7,0.7-1.2,1.7-1.4,2.9h7.4V838.3z"/>
	<path d="M292.4,834.5h-4.3v12.2h-2.6v-12.2h-4.3v-2.1h11v2.1H292.4z"/>
</g>
<g>
	<path d="M542.7,655.9h-2v-7.5h-8.3v7.5h-2v-16.4h2v7.2h8.3v-7.2h2V655.9z"/>
	<path d="M556.2,650.7h-8.1c0,1.2,0.3,2.3,1.2,2.9c0.6,0.6,1.4,1.2,2.6,1.2c1.4,0,2.6-0.3,3.7-1.2v1.7c-1.2,0.9-2.3,1.2-4,1.2
		c-1.7,0-2.9-0.6-4-1.7c-0.9-1.2-1.4-2.6-1.4-4.6c0-1.7,0.6-3.2,1.4-4.3c1.2-1.2,2.3-1.7,3.7-1.7c1.4,0,2.6,0.6,3.5,1.4
		c0.9,0.9,1.2,2.3,1.2,4v1.2H556.2z M554.2,649c0-1.2-0.3-2-0.9-2.6c-0.6-0.6-1.2-0.9-2-0.9c-0.9,0-1.4,0.3-2,0.9
		c-0.6,0.6-0.9,1.4-1.2,2.3h6V649z"/>
	<path d="M569.4,660.2h-1.7v-4.3h-8.6v4.3h-1.7v-6h1.2c2-2.9,2.9-6,2.9-10.1h6.3v10.1h1.7L569.4,660.2L569.4,660.2z M565.7,654.1
		v-8.3h-2.6c-0.3,3.2-1.2,5.8-2.6,8.3H565.7z"/>
	<path d="M572,655.9v-11.8h5.2c1.2,0,2,0.3,2.9,0.9c0.6,0.6,0.9,1.2,0.9,2c0,1.4-0.9,2.3-2.3,2.9c1.7,0.3,2.6,1.2,2.6,2.6
		c0,0.9-0.3,1.7-1.2,2.3c-0.9,0.6-1.7,0.9-2.9,0.9H572V655.9z M574,645.8v3.2h2.6c1.4,0,2.3-0.6,2.3-1.7c0-0.9-0.6-1.4-2-1.4H574z
		 M574,650.7v3.5h3.2c1.4,0,2.3-0.6,2.3-1.7c0-1.2-0.9-1.7-2.6-1.7L574,650.7L574,650.7z"/>
	<path d="M594.5,655.9h-2v-9.2c0,0-0.3,0.6-0.9,1.4l-5.2,7.8h-2v-11.8h2v8.9c0.3-0.3,0.3-0.9,0.6-1.2l5.5-7.8h2L594.5,655.9
		L594.5,655.9z"/>
	<path d="M614,655.9h-2.6l-5.2-5.8l0,0v5.8h-2v-5.8l0,0l-5.2,5.8h-2.6l5.8-6l-5.5-5.8h2.6l4.9,5.5l0,0v-5.5h2v5.5l0,0l4.9-5.5h2.6
		l-5.5,5.8L614,655.9z"/>
	<path d="M626.1,655.9h-2v-9.2c0,0-0.3,0.6-0.9,1.4l-5.2,7.8h-2v-11.8h2v8.9c0.3-0.3,0.3-0.9,0.6-1.2l5.5-7.8h2L626.1,655.9
		L626.1,655.9z"/>
	<path d="M642.5,655.9h-2v-9.5c-0.3,0.6-0.3,1.2-0.9,2.3l-2.9,7.5H635l-2.9-7.5c-0.3-0.6-0.3-1.2-0.9-2.3v9.5h-1.7v-11.8h2.6
		l2.9,7.5c0,0.3,0.3,0.9,0.9,2.3c0,0,0.3-0.9,0.9-2.3l2.9-7.5h2.9L642.5,655.9L642.5,655.9z"/>
	<path d="M645.7,650.1c0-2,0.6-3.5,1.7-4.6c1.2-1.2,2.6-1.7,4.3-1.7c1.7,0,3.2,0.6,4,1.7c0.9,1.2,1.4,2.6,1.4,4.6
		c0,1.7-0.6,3.5-1.7,4.6c-1.2,1.2-2.6,1.7-4.3,1.7c-1.7,0-3.2-0.6-4.3-1.7C645.7,653.6,645.7,652.1,645.7,650.1z M647.7,650.1
		c0,1.4,0.3,2.3,1.2,3.2c0.6,0.9,1.7,1.2,2.9,1.2c1.2,0,2-0.3,2.6-1.2c0.6-0.9,0.9-1.7,0.9-3.2c0-1.4-0.3-2.6-0.9-3.2
		c-0.6-0.9-1.4-1.2-2.6-1.2c-1.2,0-2,0.3-2.9,1.2C648,647.5,647.7,648.7,647.7,650.1z"/>
	<path d="M668.1,655.3c-0.9,0.6-2,0.9-3.2,0.9c-1.7,0-3.2-0.6-4-1.7c-0.9-1.2-1.4-2.6-1.4-4.3c0-2,0.6-3.5,1.7-4.6
		c1.2-1.2,2.6-1.7,4.6-1.7c1.2,0,2,0.3,2.9,0.6v2c-0.9-0.6-1.7-0.9-2.9-0.9s-2,0.3-2.9,1.2c-0.9,0.9-1.2,2-1.2,3.2
		c0,1.4,0.3,2.3,1.2,3.2c0.6,0.9,1.7,1.2,2.9,1.2s2-0.3,2.9-0.9v2H668.1z"/>
	<path d="M678.5,645.8H675v10.1h-2v-10.1h-3.5v-1.7h8.9L678.5,645.8L678.5,645.8z"/>
	<path d="M680.8,655.9v-11.8h2v4.3h3.2c1.2,0,2.3,0.3,2.9,0.9c0.6,0.6,1.2,1.4,1.2,2.6s-0.3,2-1.2,2.6c-0.9,0.6-1.7,0.9-2.6,0.9
		h-5.5V655.9z M682.8,650.4v4h2.6c1.4,0,2.3-0.6,2.3-2c0-1.2-0.9-2-2.3-2H682.8z"/>
</g>
<g>
	<path d="M550,718.3h-2.3l-1.7-4.6h-6.9l-1.4,4.6h-2.3l6.3-16.4h2.3L550,718.3z M545.4,712l-2.6-6.9c0-0.3-0.3-0.6-0.3-1.2l0,0
		c0,0.6-0.3,0.9-0.3,1.2l-2.6,6.9H545.4z"/>
	<path d="M562.1,718.3h-2.9l-4.9-5.8l0,0v5.8h-2v-11.8h2v5.5l0,0l4.9-5.5h2.6l-5.2,5.8L562.1,718.3z"/>
	<path d="M575.6,722.6h-1.7v-4.3h-9.8v-11.8h2v10.1h5.8v-10.1h2v10.1h1.7V722.6z"/>
	<path d="M588.3,718.3h-2v-9.2c0,0-0.3,0.6-0.9,1.4l-5.2,7.8h-2v-11.8h2v8.9c0.3-0.3,0.3-0.9,0.6-1.2l5.5-7.8h2L588.3,718.3
		L588.3,718.3z"/>
	<path d="M601.8,718.3h-1.7v-9.2c0,0-0.3,0.6-0.9,1.4l-5.2,7.8h-2v-11.8h2v8.9c0.3-0.3,0.3-0.9,0.6-1.2l5.5-7.8h2v11.8H601.8z"/>
</g>
<g>
	<path d="M542.6,763.3h-6.6v14.4h-2v-16.4h8.6V763.3z"/>
	<path d="M544,772.2c0-2,0.6-3.5,1.7-4.6c1.2-1.2,2.6-1.7,4.3-1.7c1.7,0,3.2,0.6,4,1.7c0.9,1.2,1.4,2.6,1.4,4.6
		c0,1.7-0.6,3.5-1.7,4.6c-1.2,1.2-2.6,1.7-4.3,1.7c-1.7,0-3.2-0.6-4.3-1.7C544,775.6,544,773.9,544,772.2z M546,771.9
		c0,1.4,0.3,2.3,1.2,3.2c0.6,0.9,1.7,1.2,2.9,1.2c1.2,0,2-0.3,2.6-1.2c0.6-0.9,0.9-1.7,0.9-3.2c0-1.4-0.3-2.6-0.9-3.2
		c-0.6-0.9-1.4-1.2-2.6-1.2c-1.2,0-2,0.3-2.9,1.2C546.3,769.6,546,770.7,546,771.9z"/>
	<path d="M566.4,777.4c-0.9,0.6-2,0.9-3.2,0.9c-1.7,0-3.2-0.6-4-1.7c-0.9-1.2-1.4-2.6-1.4-4.3c0-2,0.6-3.5,1.7-4.6
		c1.2-1.2,2.6-1.7,4.6-1.7c1.2,0,2,0.3,2.9,0.6v2c-0.9-0.6-1.7-0.9-2.9-0.9s-2,0.3-2.9,1.2c-0.9,0.9-1.2,2-1.2,3.2
		c0,1.4,0.3,2.3,1.2,3.2c0.6,0.9,1.7,1.2,2.9,1.2s2-0.3,2.9-0.9v2H566.4z"/>
	<path d="M578.8,766.1l-5.2,13.5c-0.9,2.6-2.3,3.7-4.3,3.7c-0.6,0-0.9,0-1.4-0.3v-1.7c0.3,0.3,0.9,0.3,1.2,0.3c0.9,0,1.7-0.6,2-1.7
		l0.9-2l-4.6-11.8h2.3l3.2,8.9l0.3,0.9l0,0c0-0.3,0-0.6,0.3-0.9l3.2-8.9H578.8L578.8,766.1z"/>
	<path d="M591.2,782h-1.7v-4.3h-8.6v4.3h-1.7v-6h1.2c2-2.9,2.9-6,2.9-10.1h6.3v10.1h1.7L591.2,782L591.2,782z M587.4,776.2v-8.3
		h-2.6c-0.3,3.2-1.2,5.8-2.6,8.3H587.4z"/>
	<path d="M594.1,767c1.2-0.9,2.6-1.2,4-1.2c2.9,0,4.3,1.4,4.3,4.3v7.5h-2v-1.7l0,0c-0.9,1.4-2,2-3.5,2c-1.2,0-2-0.3-2.6-0.9
		c-0.6-0.6-0.9-1.4-0.9-2.6c0-2.3,1.4-3.5,4-3.7l3.5-0.6c0-2-0.9-2.9-2.3-2.9c-1.4,0-2.6,0.6-3.7,1.4V767H594.1z M597.5,772.2
		c-0.9,0-1.7,0.3-2,0.9c-0.3,0.3-0.6,0.9-0.6,1.4c0,0.6,0.3,1.2,0.6,1.4c0.3,0.3,0.9,0.6,1.4,0.6c0.9,0,1.7-0.3,2.3-0.9
		c0.6-0.6,0.9-1.4,0.9-2.3v-1.2H597.5z"/>
	<path d="M607.9,776.2v6.9h-2v-17h2v2l0,0c0.9-1.4,2.3-2.3,4-2.3c1.4,0,2.6,0.6,3.5,1.4s1.2,2.6,1.2,4.3c0,2-0.6,3.5-1.4,4.6
		c-0.9,1.2-2.3,1.7-4,1.7C609.9,778.2,608.7,777.4,607.9,776.2L607.9,776.2z M607.9,773c0,0.9,0.3,1.7,0.9,2.3
		c0.6,0.6,1.4,0.9,2.3,0.9c1.2,0,2-0.3,2.6-1.2c0.6-0.9,0.9-2,0.9-3.5c0-1.2-0.3-2.3-0.9-2.9c-0.6-0.6-1.4-1.2-2.3-1.2
		c-1.2,0-1.7,0.3-2.6,1.2c-0.6,0.9-0.9,1.7-0.9,2.9V773z"/>
	<path d="M627.7,777.4c-0.9,0.6-2,0.9-3.2,0.9c-1.7,0-3.2-0.6-4-1.7c-0.9-1.2-1.4-2.6-1.4-4.3c0-2,0.6-3.5,1.7-4.6
		c1.2-1.2,2.6-1.7,4.6-1.7c1.2,0,2,0.3,2.9,0.6v2c-0.9-0.6-1.7-0.9-2.9-0.9c-1.2,0-2,0.3-2.9,1.2c-0.9,0.9-1.2,2-1.2,3.2
		c0,1.4,0.3,2.3,1.2,3.2c0.6,0.9,1.7,1.2,2.9,1.2c1.2,0,2-0.3,2.9-0.9v2H627.7z"/>
	<path d="M638.1,767.9h-3.5v10.1h-2v-10.1h-3.5v-1.7h8.9L638.1,767.9L638.1,767.9z"/>
	<path d="M640.1,777.9v-11.8h5.2c1.2,0,2,0.3,2.9,0.9c0.6,0.6,0.9,1.2,0.9,2c0,1.4-0.9,2.3-2.3,2.9c1.7,0.3,2.6,1.2,2.6,2.6
		c0,0.9-0.3,1.7-1.2,2.3c-0.9,0.6-1.7,0.9-2.9,0.9h-5.2V777.9z M642.4,767.9v3.2h2.6c1.4,0,2.3-0.6,2.3-1.7c0-0.9-0.6-1.4-2-1.4
		H642.4z M642.4,772.8v3.5h3.2c1.4,0,2.3-0.6,2.3-1.7c0-1.2-0.9-1.7-2.6-1.7L642.4,772.8L642.4,772.8z"/>
	<path d="M662.3,772.5h-8.1c0,1.2,0.3,2.3,1.2,2.9c0.6,0.6,1.4,1.2,2.6,1.2c1.4,0,2.6-0.3,3.7-1.2v1.7c-1.2,0.9-2.3,1.2-4,1.2
		c-1.7,0-2.9-0.6-4-1.7c-0.9-1.2-1.4-2.6-1.4-4.6c0-1.7,0.6-3.2,1.4-4.3c1.2-1.2,2.3-1.7,3.7-1.7s2.6,0.6,3.5,1.4s1.2,2.3,1.2,4v1.2
		H662.3z M660.2,770.7c0-1.2-0.3-2-0.9-2.6c-0.6-0.6-1.2-0.9-2-0.9s-1.4,0.3-2,0.9c-0.6,0.6-0.9,1.4-1.2,2.3h6V770.7z"/>
	<path d="M674.9,777.9h-2v-5.2h-5.8v5.2h-2v-11.8h2v4.9h5.8v-4.9h2V777.9z"/>
	<path d="M688.7,777.9h-2v-5.2H681v5.2h-2v-11.8h2v4.9h5.8v-4.9h2V777.9z"/>
	<path d="M692.2,777.9v-11.8h2v4.3h3.2c1.2,0,2.3,0.3,2.9,0.9s1.2,1.4,1.2,2.6s-0.3,2-1.2,2.6c-0.9,0.6-1.7,0.9-2.6,0.9h-5.5V777.9z
		 M694.5,772.2v4h2.6c1.4,0,2.3-0.6,2.3-2c0-1.2-0.9-2-2.3-2H694.5z M705.4,777.9h-2v-11.8h2V777.9z"/>
	<path d="M719.2,777.9h-2v-9.2c0,0-0.3,0.6-0.9,1.4l-5.2,7.8h-2v-11.8h2v8.9c0.3-0.3,0.3-0.9,0.6-1.2l5.5-7.8h2L719.2,777.9
		L719.2,777.9z M717.5,761c0,0.9-0.6,1.7-1.2,2c-0.6,0.6-1.4,0.9-2.3,0.9s-1.7-0.3-2.3-0.9c-0.6-0.6-0.9-1.2-0.9-2h1.2
		c0,1.2,0.9,1.7,2,1.7c0.6,0,0.9-0.3,1.4-0.6c0.3-0.3,0.6-0.9,0.6-1.2L717.5,761L717.5,761z"/>
	<path d="M544,808.2h-1.7v-4.3h-8.6v4.3h-1.7v-6h1.2c2-2.9,2.9-6,2.9-10.1h6.3v10.1h1.7L544,808.2L544,808.2z M540.3,802.1v-8.3
		h-2.6c-0.3,3.2-1.2,5.8-2.6,8.3H540.3z"/>
	<path d="M545.7,798.1c0-2,0.6-3.5,1.7-4.6c1.2-1.2,2.6-1.7,4.3-1.7c1.7,0,3.2,0.6,4,1.7c0.9,1.2,1.4,2.6,1.4,4.6
		c0,1.7-0.6,3.5-1.7,4.6c-1.2,1.2-2.6,1.7-4.3,1.7c-1.7,0-3.2-0.6-4.3-1.7C545.7,801.5,545.7,799.8,545.7,798.1z M547.7,798.1
		c0,1.4,0.3,2.3,1.2,3.2c0.6,0.9,1.7,1.2,2.9,1.2s2-0.3,2.6-1.2s0.9-1.7,0.9-3.2c0-1.4-0.3-2.6-0.9-3.2c-0.6-0.9-1.4-1.2-2.6-1.2
		s-2,0.3-2.9,1.2C548.3,795.5,547.7,796.6,547.7,798.1z"/>
	<path d="M569,803.8h-2v-10.1h-2.6c-0.3,3.7-0.9,6.3-1.7,7.8c-0.9,1.4-1.7,2.3-3.2,2.3c-0.3,0-0.9,0-1.2-0.3v-1.7
		c0.3,0,0.6,0.3,0.9,0.3c1.7,0,2.6-3.5,3.2-10.1h6.3v11.8H569z"/>
	<path d="M579.4,793.8h-4.6v10.1h-2V792h6.6V793.8z"/>
	<path d="M598.1,803.8h-2v-5.2h-5.8v5.2h-2V792h2v4.9h5.8V792h2V803.8z"/>
	<path d="M602.1,792.9c1.2-0.9,2.6-1.2,4-1.2c2.9,0,4.3,1.4,4.3,4.3v7.5h-2v-1.7l0,0c-0.9,1.4-2,2-3.5,2c-1.2,0-2-0.3-2.6-0.9
		c-0.6-0.6-0.9-1.4-0.9-2.6c0-2.3,1.4-3.5,4-3.7l3.5-0.6c0-2-0.9-2.9-2.3-2.9c-1.4,0-2.6,0.6-3.7,1.4v-1.7H602.1z M605.6,798.4
		c-0.9,0-1.7,0.3-2,0.9c-0.3,0.3-0.6,0.9-0.6,1.4c0,0.6,0.3,1.2,0.6,1.4c0.3,0.3,0.9,0.6,1.4,0.6c0.9,0,1.7-0.3,2.3-0.9
		c0.6-0.6,0.9-1.4,0.9-2.3v-1.2H605.6z"/>
	<path d="M630.9,808.2h-1.7v-4.3h-8.6v4.3h-1.7v-6h1.2c2-2.9,2.9-6,2.9-10.1h6.3v10.1h1.7L630.9,808.2L630.9,808.2z M626.9,802.1
		v-8.3h-2.6c-0.3,3.2-1.2,5.8-2.6,8.3H626.9z"/>
	<path d="M643,798.7h-8.1c0,1.2,0.3,2.3,1.2,2.9c0.6,0.6,1.4,1.2,2.6,1.2c1.4,0,2.6-0.3,3.7-1.2v1.7c-1.2,0.9-2.3,1.2-4,1.2
		c-1.7,0-2.9-0.6-4-1.7c-0.9-1.2-1.4-2.6-1.4-4.6c0-1.7,0.6-3.2,1.4-4.3c1.2-1.2,2.3-1.7,3.7-1.7c1.4,0,2.6,0.6,3.5,1.4
		c0.9,0.9,1.2,2.3,1.2,4v1.2H643z M640.7,796.9c0-1.2-0.3-2-0.9-2.6c-0.6-0.6-1.2-0.9-2-0.9s-1.4,0.3-2,0.9
		c-0.6,0.6-0.9,1.4-1.2,2.3h6V796.9z"/>
	<path d="M653.6,803.3c-0.9,0.6-2,0.9-3.2,0.9c-1.7,0-3.2-0.6-4-1.7c-0.9-1.2-1.4-2.6-1.4-4.3c0-2,0.6-3.5,1.7-4.6
		c1.2-1.2,2.6-1.7,4.6-1.7c1.2,0,2,0.3,2.9,0.6v2c-0.9-0.6-1.7-0.9-2.9-0.9c-1.2,0-2,0.3-2.9,1.2c-0.9,0.9-1.2,2-1.2,3.2
		c0,1.4,0.3,2.3,1.2,3.2c0.6,0.9,1.7,1.2,2.9,1.2c1.2,0,2-0.3,2.9-0.9v2H653.6z"/>
	<path d="M664.8,803.8h-2v-4.9h-1.4c-0.9,0-1.4,0.6-2,1.7l-1.4,2.9h-2.3l2-3.5c0.6-0.9,1.2-1.4,1.7-1.7c-0.9,0-1.7-0.6-2-0.9
		c-0.6-0.6-0.9-1.2-0.9-2c0-1.2,0.3-2,1.2-2.6c0.9-0.6,1.7-0.9,3.2-0.9h4.3v11.8H664.8z M662.8,797.5v-3.7h-2
		c-1.4,0-2.3,0.6-2.3,1.7c0,1.2,0.9,1.7,2.3,1.7h2V797.5z"/>
	<path d="M676.1,793.8h-3.5v10.1h-2v-10.1h-3.5V792h8.9L676.1,793.8L676.1,793.8z"/>
	<path d="M678.1,803.8V792h2v4.3h3.2c1.2,0,2.3,0.3,2.9,0.9c0.6,0.6,1.2,1.4,1.2,2.6s-0.3,2-1.2,2.6c-0.9,0.6-1.7,0.9-2.6,0.9h-5.5
		V803.8z M680.1,798.4v4h2.6c1.4,0,2.3-0.6,2.3-2c0-1.2-0.9-2-2.3-2H680.1z"/>
	<path d="M705.4,803.8h-2v-10.1h-2.6c-0.3,3.7-0.9,6.3-1.7,7.8c-0.9,1.4-1.7,2.3-3.2,2.3c-0.3,0-0.9,0-1.2-0.3v-1.7
		c0.3,0,0.6,0.3,0.9,0.3c1.7,0,2.6-3.5,3.2-10.1h6.3v11.8H705.4z"/>
	<path d="M718.7,798.7h-8.1c0,1.2,0.3,2.3,1.2,2.9c0.6,0.6,1.4,1.2,2.6,1.2c1.4,0,2.6-0.3,3.7-1.2v1.7c-1.2,0.9-2.3,1.2-4,1.2
		c-1.7,0-2.9-0.6-4-1.7c-0.9-1.2-1.4-2.6-1.4-4.6c0-1.7,0.6-3.2,1.4-4.3c1.2-1.2,2.3-1.7,3.7-1.7s2.6,0.6,3.5,1.4s1.2,2.3,1.2,4v1.2
		H718.7z M716.6,796.9c0-1.2-0.3-2-0.9-2.6c-0.6-0.6-1.2-0.9-2-0.9s-1.4,0.3-2,0.9c-0.6,0.6-0.9,1.4-1.2,2.3h6V796.9z"/>
	<path d="M729,793.8h-3.5v10.1h-2.3v-10.1h-3.5V792h8.9v1.7H729z"/>
</g>
</svg>
