<?xml version="1.0" encoding="utf-8"?>
<!-- Generator: Adobe Illustrator 23.0.0, SVG Export Plug-In . SVG Version: 6.00 Build 0)  -->
<svg version="1.1" id="运作原理" xmlns="http://www.w3.org/2000/svg" xmlns:xlink="http://www.w3.org/1999/xlink" x="0px"
	 y="0px" viewBox="0 0 705 383" style="enable-background:new 0 0 705 383;" xml:space="preserve">
<style type="text/css">
	.st0{fill:none;stroke:#90A7AB;}
	.st1{fill:none;stroke:#70DBCB;}
	.st2{fill:#9FE7DD;stroke:#34B9A1;stroke-width:2;}
	.st3{enable-background:new    ;}
	.st4{fill:#456E68;}
	.st5{fill:none;stroke:#456E68;stroke-width:1.5;stroke-miterlimit:10;}
	.st6{fill:#70DBCB;}
</style>
<path id="形状_1_拷贝_3" class="st0" d="M63.1,175.9l0.1,71.4l4.6-2"/>
<path id="形状_1_拷贝_5" class="st0" d="M622,153l-0.1-71l-4.6,2"/>
<path id="形状_1" class="st0" d="M108,89h90.5l42.5,42.5l-0.3-5.5"/>
<path id="形状_1_拷贝_2" class="st0" d="M240.7,162h-90.2l-42.4-42.9l0.3,5.6"/>
<path id="形状_1_拷贝" class="st0" d="M560,201h-88.4L430,242.3l0.3-5.4"/>
<path id="形状_1_拷贝_4" class="st0" d="M430.3,272h88.2l41.4-41.7l-0.3,5.4"/>
<circle id="椭圆_7-2" class="st1" cx="487.3" cy="167" r="19"/>
<circle id="椭圆_6" class="st2" cx="339" cy="187" r="94"/>
<g class="st3">
	<path class="st4" d="M646.4,186.4H638v8.4h8.4V186.4z M643.6,192h-2.8v-2.8h2.8V192z"/>
	<path class="st4" d="M657.6,186.4h-8.4v8.4h8.4V186.4z M654.8,192H652v-2.8h2.8V192z"/>
	<path class="st4" d="M646.4,197.6H638v8.4h8.4V197.6z M643.6,203.2h-2.8v-2.8h2.8V203.2z"/>
	<path class="st4" d="M657.6,197.6h-8.4v8.4h8.4V197.6z M654.8,203.2H652v-2.8h2.8V203.2z"/>
	<path class="st4" d="M646.4,217.2v-8.4H638v8.4H646.4z M640.8,211.6h2.8v2.8h-2.8V211.6z"/>
	<path class="st4" d="M657.6,208.8h-8.4v8.4h8.4V208.8z M654.8,214.4H652v-2.8h2.8V214.4z"/>
	<path class="st4" d="M666,183.6v-2.8h-2.8v-5.6h-2.8v-5.6h-25.2v5.6h-2.8v5.6h-2.8v2.8h2.8V220h-11.2v-16.8h2.8v-8.4h-2.8v-2.1
		l-19.6-13.6l-8.4,5.8v-4.3h-8.4v10.1l-2.8,1.9v2.1h-2.8v8.4h2.8v17.1c-1.6,0.6-2.8,2.1-2.8,3.9v2.8c0,2.3,1.9,4.2,4.2,4.2h27.3
		c-2.2,2.7-3.5,6.1-3.5,9.8c0,8.5,6.9,15.4,15.4,15.4S638,249.5,638,241c0-3.7-1.3-7.1-3.5-9.8h27.3c2.3,0,4.2-1.9,4.2-4.2v-2.8
		c0-1.8-1.2-3.4-2.8-3.9v-36.7H666z M638,172.4h19.6v2.8H638V172.4z M635.2,178h25.2v2.8h-25.2V178z M587.6,183.4h2.8v3.5l-2.8,1.9
		V183.4z M584.8,194.2l16.8-11.6l16.8,11.6v0.7h-33.6V194.2z M582,197.6h39.2v2.8H582V197.6z M618.4,203.2V220h-11.2v-14H596v14
		h-11.2v-16.8H618.4z M604.4,220h-5.6v-11.2h5.6V220z M622.6,253.6c-6.9,0-12.6-5.7-12.6-12.6c0-6.9,5.7-12.6,12.6-12.6
		s12.6,5.7,12.6,12.6C635.2,248,629.6,253.6,622.6,253.6z M663.2,227c0,0.8-0.6,1.4-1.4,1.4h-30.4c-2.5-1.8-5.5-2.8-8.8-2.8
		s-6.3,1-8.8,2.8h-30.4c-0.8,0-1.4-0.6-1.4-1.4v-2.8c0-0.8,0.6-1.4,1.4-1.4h78.4c0.8,0,1.4,0.6,1.4,1.4V227z M660.4,220h-25.2v-36.4
		h25.2V220z"/>
</g>
<g class="st3">
	<g>
		<g>
			<path class="st4" d="M96.5,278.4H86.4c1-0.8,1.6-1.9,1.6-3.2c0-2.3-1.8-4.1-4.1-4.1s-4.1,1.8-4.1,4.1c0,0.7,0.2,1.3,0.5,1.9
				l-1.5,1.3H58.9c-0.6-1.5-2.1-2.5-3.8-2.5s-3.2,1-3.8,2.5H29c-1.8,0-3.3,1.5-3.3,3.3v8c0,0.6,0.5,1.1,1.1,1.1s1.1-0.5,1.1-1.1v-8
				c0-0.6,0.5-1.1,1.1-1.1h22c0.1,0.4,0.2,0.8,0.3,1.2l-9.1,8.3c-0.6-0.4-1.4-0.7-2.2-0.7c-2.3,0-4.1,1.8-4.1,4.1s1.8,4.1,4.1,4.1
				s4.1-1.8,4.1-4.1c0-0.7-0.2-1.3-0.4-1.8l9.1-8.3c0.7,0.5,1.5,0.7,2.3,0.7c1.2,0,2.2-0.5,3-1.3l7.4,4.4c-0.1,0.3-0.1,0.5-0.1,0.8
				c0,2.3,1.8,4.1,4.1,4.1s4.1-1.8,4.1-4.1c0-0.6-0.1-1.2-0.4-1.7l6.4-5.8h16.9c0.6,0,1.1,0.5,1.1,1.1v26.8c0,0.6,0.5,1.1,1.1,1.1
				s1.1-0.5,1.1-1.1v-26.8C99.8,279.8,98.3,278.4,96.5,278.4z M40,295.4c-1.1,0-1.9-0.9-1.9-1.9c0-1.1,0.9-1.9,1.9-1.9
				s1.9,0.9,1.9,1.9S41.1,295.4,40,295.4z M55.1,281.9c-1.1,0-1.9-0.9-1.9-1.9c0-1.1,0.9-1.9,1.9-1.9S57,279,57,280
				S56.2,281.9,55.1,281.9z M69.5,290c-1.1,0-1.9-0.9-1.9-1.9c0-1.1,0.9-1.9,1.9-1.9s1.9,0.9,1.9,1.9C71.5,289.1,70.6,290,69.5,290z
				 M71.9,284.7c-0.7-0.5-1.5-0.8-2.4-0.8c-1.2,0-2.3,0.5-3.1,1.4l-7.3-4.4c0-0.1,0.1-0.3,0.1-0.4h17.2L71.9,284.7z M83.9,277.1
				c-1.1,0-1.9-0.9-1.9-1.9s0.9-1.9,1.9-1.9s1.9,0.9,1.9,1.9S85,277.1,83.9,277.1z"/>
		</g>
	</g>
	<g>
		<g>
			<path class="st4" d="M99.8,312.8c0-0.6-0.5-1.1-1.1-1.1s-1.1,0.5-1.1,1.1v8.2h-8v-25.7v-4.4v-4.5c0-0.6-0.5-1.1-1.1-1.1h-8.2
				c-0.6,0-1.1,0.5-1.1,1.1v4.5v4.4V321h-4.1v-5.5V311v-4.5c0-0.6-0.5-1.1-1.1-1.1h-8c-0.6,0-1.1,0.5-1.1,1.1v4.5v4.4v5.5h-4.1
				v-19.5V297v-4.5c0-0.6-0.5-1.1-1.1-1.1h-8.2c-0.6,0-1.1,0.5-1.1,1.1v4.5v4.4v6.1c0,0.6,0.5,1.1,1.1,1.1s1.1-0.5,1.1-1.1v-5h6
				v18.4h-6v-9.1c0-0.6-0.5-1.1-1.1-1.1s-1.1,0.5-1.1,1.1v9.1h-4.1v-5.5V311v-4.5c0-0.6-0.5-1.1-1.1-1.1H37c-0.6,0-1.1,0.5-1.1,1.1
				v4.5v4.4v5.5h-8.2v-27c0-0.6-0.5-1.1-1.1-1.1s-1.1,0.5-1.1,1.1v35.9c0,1.8,1.5,3.3,3.3,3.3h23.8l-0.6,5.4h-5
				c-0.6,0-1.1,0.5-1.1,1.1v3.8c0,0.6,0.5,1.1,1.1,1.1h31.5c0.6,0,1.1-0.5,1.1-1.1v-3.8c0-0.6-0.5-1.1-1.1-1.1h-5.2l-0.6-5.4h23.8
				c1.8,0,3.3-1.5,3.3-3.3V322l0,0V312.8L99.8,312.8z M81.5,287.4h6v2.3h-6V287.4z M81.5,291.9h6v2.3h-6V291.9z M81.5,296.3h6v24.6
				h-6V296.3z M67.1,307.6h6v2.3h-6V307.6z M67.1,312.1h6v2.3h-6V312.1z M67.1,316.5h6v4.4h-6V316.5z M52.7,295.9v-2.3h6v2.3H52.7z
				 M52.7,300.3V298h6v2.3H52.7z M38.3,307.6h6v2.3h-6V307.6z M38.3,312.1h6v2.3h-6V312.1z M38.3,316.5h6v4.4h-6V316.5z M77.5,340.7
				v1.6H48.1v-1.6H77.5z M54.3,338.5l0.6-5.4h15.6l0.6,5.4H54.3z M96.5,331H29c-0.6,0-1.1-0.5-1.1-1.1v-6.7h69.7v6.7l0,0
				C97.6,330.5,97.1,331,96.5,331z"/>
		</g>
	</g>
</g>
<g class="st3">
	<g>
		<g>
			<path class="st4" d="M601.9,25.6h-8.5c-0.6,0-1.1,0.5-1.1,1.1V31c0,0.6,0.5,1.1,1.1,1.1h8.5c0.6,0,1.1-0.5,1.1-1.1v-4.3
				C602.9,26.1,602.5,25.6,601.9,25.6z M596.5,29.9h-2.1v-2.1h2.1V29.9z M600.8,29.9h-2.1v-2.1h2.1V29.9z"/>
		</g>
	</g>
	<g>
		<g>
			<path class="st4" d="M601.9,34.1h-8.5c-0.6,0-1.1,0.5-1.1,1.1v4.3c0,0.6,0.5,1.1,1.1,1.1h8.5c0.6,0,1.1-0.5,1.1-1.1v-4.3
				C602.9,34.6,602.5,34.1,601.9,34.1z M596.5,38.4h-2.1v-2.1h2.1V38.4z M600.8,38.4h-2.1v-2.1h2.1V38.4z"/>
		</g>
	</g>
	<g>
		<g>
			<path class="st4" d="M601.9,42.7h-8.5c-0.6,0-1.1,0.5-1.1,1.1V48c0,0.6,0.5,1.1,1.1,1.1h8.5c0.6,0,1.1-0.5,1.1-1.1v-4.3
				C602.9,43.1,602.5,42.7,601.9,42.7z M596.5,46.9h-2.1v-2.1h2.1V46.9z M600.8,46.9h-2.1v-2.1h2.1V46.9z"/>
		</g>
	</g>
	<g>
		<g>
			<path class="st4" d="M640.3,25.6h-8.5c-0.6,0-1.1,0.5-1.1,1.1V31c0,0.6,0.5,1.1,1.1,1.1h8.5c0.6,0,1.1-0.5,1.1-1.1v-4.3
				C641.3,26.1,640.9,25.6,640.3,25.6z M634.9,29.9h-2.1v-2.1h2.1V29.9z M639.2,29.9h-2.1v-2.1h2.1V29.9z"/>
		</g>
	</g>
	<g>
		<g>
			<path class="st4" d="M640.3,17.1h-8.5c-0.6,0-1.1,0.5-1.1,1.1v4.3c0,0.6,0.5,1.1,1.1,1.1h8.5c0.6,0,1.1-0.5,1.1-1.1v-4.3
				C641.3,17.5,640.9,17.1,640.3,17.1z M634.9,21.3h-2.1v-2.1h2.1V21.3z M639.2,21.3h-2.1v-2.1h2.1V21.3z"/>
		</g>
	</g>
	<g>
		<g>
			<path class="st4" d="M614.7,29.9h-4.3c-0.6,0-1.1,0.5-1.1,1.1v4.3c0,0.6,0.5,1.1,1.1,1.1h4.3c0.6,0,1.1-0.5,1.1-1.1V31
				C615.7,30.3,615.3,29.9,614.7,29.9z M613.6,34.1h-2.1V32h2.1V34.1z"/>
		</g>
	</g>
	<g>
		<g>
			<path class="st4" d="M623.2,29.9h-4.3c-0.6,0-1.1,0.5-1.1,1.1v4.3c0,0.6,0.5,1.1,1.1,1.1h4.3c0.6,0,1.1-0.5,1.1-1.1V31
				C624.3,30.3,623.8,29.9,623.2,29.9z M622.1,34.1H620V32h2.1V34.1z"/>
		</g>
	</g>
	<g>
		<g>
			<path class="st4" d="M614.7,21.3h-4.3c-0.6,0-1.1,0.5-1.1,1.1v4.3c0,0.6,0.5,1.1,1.1,1.1h4.3c0.6,0,1.1-0.5,1.1-1.1v-4.3
				C615.7,21.8,615.3,21.3,614.7,21.3z M613.6,25.6h-2.1v-2.1h2.1V25.6z"/>
		</g>
	</g>
	<g>
		<g>
			<path class="st4" d="M623.2,21.3h-4.3c-0.6,0-1.1,0.5-1.1,1.1v4.3c0,0.6,0.5,1.1,1.1,1.1h4.3c0.6,0,1.1-0.5,1.1-1.1v-4.3
				C624.3,21.8,623.8,21.3,623.2,21.3z M622.1,25.6H620v-2.1h2.1V25.6z"/>
		</g>
	</g>
	<g>
		<g>
			<path class="st4" d="M614.7,12.8h-4.3c-0.6,0-1.1,0.5-1.1,1.1v4.3c0,0.6,0.5,1.1,1.1,1.1h4.3c0.6,0,1.1-0.5,1.1-1.1v-4.3
				C615.7,13.3,615.3,12.8,614.7,12.8z M613.6,17.1h-2.1V15h2.1V17.1z"/>
		</g>
	</g>
	<g>
		<g>
			<path class="st4" d="M623.2,12.8h-4.3c-0.6,0-1.1,0.5-1.1,1.1v4.3c0,0.6,0.5,1.1,1.1,1.1h4.3c0.6,0,1.1-0.5,1.1-1.1v-4.3
				C624.3,13.3,623.8,12.8,623.2,12.8z M622.1,17.1H620V15h2.1V17.1z"/>
		</g>
	</g>
	<g>
		<g>
			<path class="st4" d="M614.7,42.7h-4.3c-0.6,0-1.1,0.5-1.1,1.1V48c0,0.6,0.5,1.1,1.1,1.1h4.3c0.6,0,1.1-0.5,1.1-1.1v-4.3
				C615.7,43.1,615.3,42.7,614.7,42.7z M613.6,46.9h-2.1v-2.1h2.1V46.9z"/>
		</g>
	</g>
	<g>
		<g>
			<rect x="592.3" y="51.2" class="st4" width="2.1" height="2.1"/>
		</g>
	</g>
	<g>
		<g>
			<rect x="596.5" y="51.2" class="st4" width="2.1" height="2.1"/>
		</g>
	</g>
	<g>
		<g>
			<rect x="600.8" y="51.2" class="st4" width="2.1" height="2.1"/>
		</g>
	</g>
	<g>
		<g>
			<path class="st4" d="M650.9,38.4h-5.3V13.9c0-0.6-0.5-1.1-1.1-1.1H637v-1.7l1.1-1.1c0.9,0.7,2,1.1,3.1,1.1c1.4,0,2.7-0.5,3.7-1.5
				l0.2-0.2c0.4-0.4,0.4-1.1,0-1.5l-2.4-2.4l2.4-2.4l-1.5-1.5L641.2,4l-3.5-3.5c-0.2-0.2-0.5-0.3-0.8-0.3c-0.4,0-0.7,0.2-0.9,0.4
				c-1.1,1-1.7,2.3-1.7,3.7s0.5,2.9,1.6,3.9l0.5,0.5l-1.4,1.4c-0.2,0.2-0.3,0.5-0.3,0.8V13h-6.4V9.6c0-0.6-0.5-1.1-1.1-1.1h-3.7
				l-6.1-8.1c-0.4-0.5-1.3-0.5-1.7,0l-6.1,8.1h-3.7c-0.6,0-1.1,0.5-1.1,1.1v11.7h-6.4v-8.5h-2.1v8.5h-7.5c-0.6,0-1.1,0.5-1.1,1.1
				v40.5c0,0.6,0.5,1.1,1.1,1.1h17.1h7.5h8.5h1.1h6.4h17.1c2.9,0,5.3-2.4,5.3-5.3V39.5C652,38.9,651.5,38.4,650.9,38.4z M605.1,61.9
				h-14.9V23.5h14.9V61.9z M637.1,2.6l5.8,5.8c-1.2,0.7-2.8,0.6-3.9-0.5l-1.5-1.5c-0.6-0.6-1-1.4-0.9-2.3
				C636.7,3.6,636.8,3.1,637.1,2.6z M616.8,2.8l4.3,5.7h-8.5L616.8,2.8z M612.5,53.3v8.5h-5.3V22.4V10.7h19.2v3.2v19.2h2.1V14.9
				h14.9v23.5h-2.1v-1.1c0-1.8-1.4-3.2-3.2-3.2h-6.4c-1.8,0-3.2,1.4-3.2,3.2v1.1h-9.6c-0.6,0-1.1,0.5-1.1,1.1v11.7h-8.5v2.1H612.5z
				 M639.2,37.3v1.1h-8.5v-1.1c0-0.6,0.5-1.1,1.1-1.1h6.4C638.7,36.3,639.2,36.7,639.2,37.3z M614.7,61.9v-8.5h3.2v5.3
				c0,1.2,0.4,2.3,1.1,3.2H614.7z M649.9,58.7c0,1.8-1.4,3.2-3.2,3.2h-17.1h-6.4c-1.8,0-3.2-1.4-3.2-3.2V48c0.9,0.7,2,1.1,3.2,1.1
				h1.1v3.2c0,0.6,0.5,1.1,1.1,1.1h4.3c0.6,0,1.1-0.5,1.1-1.1v-3.2h1.1h6.4h1.1v3.2c0,0.6,0.5,1.1,1.1,1.1h4.3
				c0.6,0,1.1-0.5,1.1-1.1v-3.2h1.1c1.2,0,2.3-0.4,3.2-1.1v10.7H649.9z M626.4,51.2v-2.1h2.1v2.1H626.4z M632.8,46.9v-2.1h4.3v2.1
				H632.8z M641.3,51.2v-2.1h2.1v2.1H641.3z M649.9,43.7c0,1.8-1.4,3.2-3.2,3.2h-2.1h-4.3h-1.1v-3.2c0-0.6-0.5-1.1-1.1-1.1h-6.4
				c-0.6,0-1.1,0.5-1.1,1.1v3.2h-1.1h-4.3h-2.1c-1.8,0-3.2-1.4-3.2-3.2v-3.2h29.9L649.9,43.7L649.9,43.7z"/>
		</g>
	</g>
	<g>
		<g>
			<rect x="645.6" y="57.6" class="st4" width="2.1" height="2.1"/>
		</g>
	</g>
	<g>
		<g>
			<rect x="641.3" y="57.6" class="st4" width="2.1" height="2.1"/>
		</g>
	</g>
	<g>
		<g>
			<rect x="637.1" y="57.6" class="st4" width="2.1" height="2.1"/>
		</g>
	</g>
</g>
<g>
	<circle class="st5" cx="61.9" cy="57.5" r="16.8"/>
	<line class="st5" x1="48.4" y1="83.8" x2="61.9" y2="99.2"/>
	<line class="st5" x1="75" y1="83.8" x2="61.9" y2="99.2"/>
	<line class="st5" x1="61.9" y1="114.5" x2="61.9" y2="99.2"/>
	<path class="st5" d="M97.9,105.7v3.6c0,3.3-2.7,6-6,6H31.8c-3.3,0-6-2.7-6-6v-3.6"/>
	<path class="st5" d="M31.8,99.7"/>
	<path class="st5" d="M25.8,107.4c0-13.6,11.2-24,24.8-24h22.6c13.6,0,24.7,11.1,24.7,24.7l0,0"/>
</g>
<g id="椭圆_7_1_">
	<path class="st6" d="M487.1,186.5c-10.8,0-19.5-8.7-19.5-19.5s8.7-19.5,19.5-19.5s19.5,8.7,19.5,19.5S497.9,186.5,487.1,186.5z
		 M487.1,148.5c-10.2,0-18.5,8.3-18.5,18.5s8.3,18.5,18.5,18.5s18.5-8.3,18.5-18.5S497.3,148.5,487.1,148.5z"/>
</g>
<g>
	<g>
		<path class="st6" d="M481.4,176.6v-1.1c2.2-0.9,3.3-2.5,3.3-4.8v-2.8h-3v-1.2h3v-3.8c0-1.6,0.4-3,1.3-4s2-1.5,3.5-1.5
			c0.8,0,1.6,0.2,2.4,0.5v1.2c-0.8-0.4-1.6-0.6-2.4-0.6c-1.1,0-1.9,0.4-2.6,1.2c-0.6,0.8-0.9,1.9-0.9,3.4v3.6h4v1.2h-4v2.3
			c0,2.6-0.9,4.3-2.8,5.3h9.7v1.1L481.4,176.6L481.4,176.6z"/>
	</g>
</g>
<g id="椭圆_7-2_1_">
	<path class="st6" d="M195.3,209c-10.8,0-19.5-8.7-19.5-19.5s8.7-19.5,19.5-19.5s19.5,8.7,19.5,19.5S206,209,195.3,209z
		 M195.3,171.1c-10.2,0-18.5,8.3-18.5,18.5s8.3,18.5,18.5,18.5s18.5-8.3,18.5-18.5C213.8,179.3,205.5,171.1,195.3,171.1z"/>
</g>
<g>
	<g>
		<g>
			<path class="st6" d="M189.6,199.1V198c2.2-0.9,3.3-2.5,3.3-4.8v-2.8h-3v-1.2h3v-3.8c0-1.6,0.4-3,1.3-4c0.9-1,2-1.5,3.5-1.5
				c0.8,0,1.6,0.2,2.4,0.5v1.2c-0.8-0.4-1.6-0.6-2.4-0.6c-1.1,0-1.9,0.4-2.6,1.2c-0.6,0.8-0.9,1.9-0.9,3.4v3.6h4v1.2h-4v2.3
				c0,2.6-0.9,4.3-2.8,5.3h9.7v1.1L189.6,199.1L189.6,199.1z"/>
		</g>
	</g>
</g>
<g>
	<path class="st4" d="M617.2,248.8v-1.7c1.8-0.5,2.7-1.7,2.7-3.4v-2h-2.4V240h2.4v-2.8c0-1.4,0.4-2.5,1.3-3.4c0.9-0.9,2-1.4,3.3-1.4
		c0.9,0,1.8,0.1,2.5,0.5v1.9c-0.8-0.5-1.7-0.6-2.4-0.6c-1.8,0-2.7,1.1-2.7,3.3v2.5h3.6v1.7h-3.6v1.7c0,1.8-0.8,2.9-2.2,3.8h8.3v1.7
		h-10.8V248.8z"/>
</g>
<g class="st3">
	<path d="M250,173.9h11.7v14.8h-2v-13.1H252v13.1h-2L250,173.9L250,173.9z"/>
	<path d="M264.7,192.9V178h1.7v1.4c0.4-0.6,0.9-0.9,1.3-1.2c0.5-0.3,1.1-0.4,1.8-0.4c0.9,0,1.7,0.3,2.5,0.8c0.7,0.5,1.2,1.1,1.6,2
		c0.4,0.9,0.6,1.8,0.6,2.8c0,1.1-0.2,2.1-0.6,3c-0.4,0.9-0.9,1.6-1.7,2c-0.8,0.5-1.5,0.7-2.4,0.7c-0.6,0-1.1-0.1-1.6-0.4
		c-0.5-0.3-0.9-0.6-1.2-0.9v5.3L264.7,192.9L264.7,192.9z M266.3,183.5c0,1.4,0.3,2.5,0.9,3.1c0.6,0.7,1.2,1,2.1,1
		c0.9,0,1.5-0.4,2.1-1c0.6-0.7,0.9-1.8,0.9-3.2c0-1.4-0.3-2.4-0.9-3.1c-0.6-0.7-1.2-1-2-1c-0.8,0-1.5,0.4-2.1,1.1
		C266.6,181,266.3,182,266.3,183.5z"/>
	<path d="M276.2,178h1.8v8.2l5.1-8.2h2v10.8h-1.8v-8.1l-5.1,8.1h-2V178z"/>
	<path d="M287.8,178h1.8v4.4h5.1V178h1.8v10.8h-1.8v-4.8h-5.1v4.8h-1.8V178z"/>
	<path d="M299.4,178h1.8v9.3h5V178h1.8v9.3h1.1v4.5h-1.5v-3h-8.4V178H299.4z"/>
	<path d="M311.3,178h1.8v8.2l5.1-8.2h2v10.8h-1.8v-8.1l-5.1,8.1h-2V178z"/>
	<path d="M322.9,178h8.5v10.8h-1.8v-9.3h-4.8v9.3H323L322.9,178L322.9,178z"/>
	<path d="M341.4,178h7.5v9.3h1.1v4.5h-1.5v-3h-8.5v3h-1.5v-4.5h0.9C340.8,185.5,341.5,182.4,341.4,178z M342.9,179.5
		c-0.1,3.5-0.7,6.1-1.6,7.8h5.8v-7.8H342.9z"/>
	<path d="M359.4,185.3l1.9,0.2c-0.3,1.1-0.9,2-1.7,2.6c-0.9,0.6-1.8,0.9-3.1,0.9c-1.6,0-2.8-0.5-3.8-1.4c-0.9-0.9-1.4-2.4-1.4-4.1
		c0-1.8,0.5-3.2,1.4-4.3c0.9-1,2.2-1.5,3.6-1.5s2.6,0.5,3.5,1.5s1.4,2.4,1.4,4.2c0,0.1,0,0.3,0,0.5h-8c0.1,1.2,0.4,2.1,1,2.7
		c0.6,0.7,1.3,0.9,2.3,0.9c0.7,0,1.2-0.2,1.7-0.6C358.7,186.6,359.2,186,359.4,185.3z M353.5,182.3h6.1c-0.1-0.9-0.3-1.6-0.7-2.1
		c-0.6-0.7-1.3-1-2.3-1c-0.9,0-1.5,0.3-2.1,0.9C353.9,180.6,353.5,181.4,353.5,182.3z"/>
	<path d="M363.7,178h1.8v8.2l5.1-8.2h2v10.8h-1.8v-8.1l-5.1,8.1h-2V178z M370,173.9h1.2c-0.1,0.9-0.4,1.5-0.9,2
		c-0.6,0.5-1.2,0.7-2.1,0.7c-0.9,0-1.5-0.2-2.1-0.7c-0.5-0.5-0.9-1.1-0.9-2h1.2c0.1,0.5,0.3,0.9,0.6,1c0.3,0.2,0.7,0.4,1.1,0.4
		c0.6,0,0.9-0.1,1.2-0.3C369.7,174.7,369.9,174.4,370,173.9z"/>
	<path d="M382.3,184.8l1.8,0.2c-0.2,1.2-0.7,2.2-1.5,2.9c-0.9,0.7-1.8,1-3,1c-1.5,0-2.6-0.5-3.6-1.4c-0.9-0.9-1.3-2.4-1.3-4.2
		c0-1.1,0.2-2.2,0.6-3c0.4-0.9,0.9-1.5,1.8-2c0.8-0.5,1.6-0.7,2.6-0.7c1.1,0,2.2,0.3,2.8,0.9c0.8,0.6,1.2,1.4,1.4,2.6l-1.8,0.3
		c-0.2-0.8-0.5-1.2-0.9-1.6c-0.5-0.4-0.9-0.6-1.5-0.6c-0.9,0-1.7,0.3-2.3,0.9c-0.6,0.7-0.9,1.7-0.9,3.1c0,1.4,0.3,2.5,0.9,3.1
		c0.6,0.7,1.3,0.9,2.2,0.9c0.8,0,1.3-0.2,1.8-0.7C381.8,186.2,382.2,185.7,382.3,184.8z"/>
	<path d="M384.7,178h8.8v1.5H390v9.3h-1.8v-9.3h-3.5L384.7,178L384.7,178z"/>
	<path d="M395.2,178h4.3c1,0,1.8,0.1,2.3,0.3s0.9,0.5,1.3,0.9c0.4,0.5,0.6,1,0.6,1.7c0,0.5-0.1,0.9-0.3,1.3
		c-0.2,0.4-0.6,0.7-0.9,0.9c0.5,0.2,0.9,0.5,1.2,0.9c0.4,0.5,0.5,1,0.5,1.6c-0.1,1-0.5,1.8-1.1,2.3c-0.7,0.5-1.6,0.8-2.9,0.8h-4.8
		V178z M397.1,182.5h2c0.8,0,1.3,0,1.6-0.1s0.6-0.3,0.8-0.5c0.2-0.3,0.4-0.6,0.4-0.9c0-0.6-0.2-0.9-0.6-1.2
		c-0.4-0.2-1.1-0.4-2.1-0.4h-2.1V182.5z M397.1,187.2h2.4c1,0,1.7-0.1,2.2-0.4c0.4-0.3,0.6-0.7,0.6-1.2c0-0.4-0.1-0.7-0.4-0.9
		c-0.2-0.3-0.5-0.5-0.9-0.6c-0.4-0.1-0.9-0.1-1.7-0.1h-2.2V187.2z"/>
	<path d="M406.3,178h1.8v8.2l5.1-8.2h2v10.8h-1.8v-8.1l-5.1,8.1h-2V178z"/>
	<path d="M426.4,178v10.8h-1.8v-4.2h-1c-0.7,0-1.1,0.1-1.4,0.3c-0.3,0.2-0.8,0.7-1.4,1.6l-1.6,2.4h-2.3l2-2.9
		c0.6-0.9,1.2-1.4,1.8-1.5c-1-0.2-1.8-0.5-2.4-1.1c-0.5-0.6-0.8-1.3-0.8-2.1c0-0.9,0.3-1.7,0.9-2.3c0.7-0.6,1.6-0.9,2.8-0.9
		L426.4,178L426.4,178z M424.6,179.5H422c-1.1,0-1.8,0.2-2.1,0.5c-0.3,0.3-0.5,0.8-0.5,1.2c0,0.7,0.2,1.1,0.7,1.4
		c0.5,0.3,1.3,0.5,2.5,0.5h2L424.6,179.5L424.6,179.5z"/>
	<path d="M305.1,209.8l1.8,0.2c-0.2,1.2-0.7,2.2-1.5,2.9c-0.9,0.7-1.8,1-3,1c-1.5,0-2.6-0.5-3.6-1.4c-0.9-0.9-1.3-2.4-1.3-4.2
		c0-1.1,0.2-2.2,0.6-3c0.4-0.9,0.9-1.5,1.8-2c0.8-0.5,1.6-0.7,2.6-0.7c1.1,0,2.2,0.3,2.8,0.9c0.8,0.6,1.2,1.4,1.4,2.6l-1.8,0.3
		c-0.2-0.8-0.5-1.2-0.9-1.6c-0.5-0.4-0.9-0.6-1.5-0.6c-0.9,0-1.7,0.3-2.3,0.9c-0.6,0.7-0.9,1.7-0.9,3.1s0.3,2.5,0.9,3.1
		c0.6,0.7,1.3,0.9,2.2,0.9c0.8,0,1.3-0.2,1.8-0.7C304.8,211.4,305,210.7,305.1,209.8z"/>
	<path d="M308.5,202.9h1.8v8.2l5.1-8.2h2v10.8h-1.8v-8.1l-5.1,8.1h-2V202.9z"/>
	<path d="M327.2,209.8l1.8,0.2c-0.2,1.2-0.7,2.2-1.5,2.9c-0.9,0.7-1.8,1-3,1c-1.5,0-2.6-0.5-3.6-1.4c-0.9-0.9-1.3-2.4-1.3-4.2
		c0-1.1,0.2-2.2,0.6-3c0.4-0.9,0.9-1.5,1.8-2c0.8-0.5,1.6-0.7,2.6-0.7c1.1,0,2.2,0.3,2.8,0.9c0.8,0.6,1.2,1.4,1.4,2.6l-1.8,0.3
		c-0.2-0.8-0.5-1.2-0.9-1.6s-0.9-0.6-1.5-0.6c-0.9,0-1.7,0.3-2.3,0.9c-0.6,0.7-0.9,1.7-0.9,3.1s0.3,2.5,0.9,3.1s1.3,0.9,2.2,0.9
		c0.8,0,1.3-0.2,1.8-0.7C326.8,211.4,327.1,210.7,327.2,209.8z"/>
	<path d="M329.6,202.9h8.8v1.5h-3.5v9.3h-1.8v-9.3h-3.5L329.6,202.9L329.6,202.9z"/>
	<path d="M347.2,210.2l1.9,0.2c-0.3,1.1-0.9,2-1.7,2.6c-0.9,0.6-1.8,0.9-3.1,0.9c-1.6,0-2.8-0.5-3.8-1.4c-0.9-0.9-1.4-2.4-1.4-4.1
		c0-1.8,0.5-3.2,1.4-4.3c0.9-1,2.2-1.5,3.6-1.5s2.6,0.5,3.5,1.5c0.9,1,1.4,2.4,1.4,4.2c0,0.1,0,0.3,0,0.5h-8c0.1,1.2,0.4,2.1,1,2.7
		c0.6,0.7,1.3,0.9,2.3,0.9c0.7,0,1.2-0.2,1.7-0.6C346.6,211.6,346.9,211,347.2,210.2z M341.3,207.3h6.1c-0.1-0.9-0.3-1.6-0.7-2.1
		c-0.6-0.7-1.3-1-2.3-1c-0.9,0-1.5,0.3-2.1,0.9C341.7,205.6,341.3,206.4,341.3,207.3z"/>
	<path d="M351.5,202.9h2.8l2.8,8.6l3.1-8.6h2.6v10.8h-1.8V205l-3.2,8.7h-1.6l-3-9.1v9.1h-1.8V202.9z"/>
	<path d="M365.8,202.9h1.8v4.3h2.3c1.5,0,2.6,0.3,3.5,0.9c0.9,0.6,1.2,1.4,1.2,2.5c0,0.9-0.4,1.7-1,2.3c-0.7,0.7-1.8,0.9-3.3,0.9
		h-4.5L365.8,202.9L365.8,202.9z M367.7,212.2h1.9c1.1,0,2-0.2,2.5-0.5c0.5-0.3,0.8-0.8,0.8-1.3c0-0.5-0.2-0.9-0.6-1.2
		c-0.4-0.4-1.1-0.6-2.5-0.6h-2.2L367.7,212.2L367.7,212.2z M376,202.9h1.8v10.8H376V202.9z"/>
</g>
<g class="st3">
	<path class="st4" d="M3,358.9h7.4v1.4H4.5v10.1H3V358.9z"/>
	<path class="st4" d="M11.2,362h6.5v8.3h-1.4v-7.1h-3.7v4.1c0,1,0,1.6-0.1,1.9s-0.2,0.6-0.5,0.8s-0.7,0.3-1.2,0.3
		c-0.3,0-0.7,0-1.1-0.1v-1.2h0.6c0.3,0,0.5,0,0.6-0.1s0.2-0.2,0.3-0.3c0-0.1,0.1-0.6,0.1-1.3V362H11.2z"/>
	<path class="st4" d="M19.5,366.2c0-1.5,0.4-2.7,1.3-3.4c0.7-0.6,1.6-0.9,2.6-0.9c1.1,0,2.1,0.4,2.8,1.1c0.7,0.7,1.1,1.8,1.1,3.1
		c0,1.1-0.2,1.9-0.5,2.5s-0.8,1.1-1.4,1.4s-1.3,0.5-2,0.5c-1.2,0-2.1-0.4-2.8-1.1C19.9,368.7,19.5,367.6,19.5,366.2z M21,366.2
		c0,1.1,0.2,1.9,0.7,2.4s1,0.8,1.8,0.8c0.7,0,1.3-0.3,1.7-0.8c0.5-0.5,0.7-1.3,0.7-2.4c0-1-0.2-1.8-0.7-2.3s-1-0.8-1.7-0.8
		s-1.3,0.3-1.8,0.8C21.2,364.3,21,365.1,21,366.2z"/>
	<path class="st4" d="M35,358.6h1.2c-0.1,0.6-0.2,0.9-0.4,1.2c-0.2,0.2-0.4,0.4-0.7,0.4c-0.3,0.1-0.9,0.1-1.8,0.1
		c-1.2,0-2,0.1-2.4,0.3s-0.7,0.6-0.9,1.1c-0.2,0.5-0.3,1.1-0.3,1.9c0.4-0.5,0.8-0.9,1.2-1.2c0.5-0.3,1-0.4,1.6-0.4
		c1.1,0,2,0.4,2.7,1.1s1.1,1.8,1.1,3c0,1-0.2,1.8-0.5,2.4s-0.8,1.1-1.3,1.4s-1.2,0.5-2,0.5c-1,0-1.8-0.2-2.3-0.7s-1-1-1.3-1.7
		s-0.4-1.9-0.4-3.7c0-2.2,0.4-3.7,1.1-4.4s1.9-1.1,3.4-1.1c1,0,1.5,0,1.6,0C34.9,358.8,35,358.7,35,358.6z M35,366.2
		c0-0.9-0.2-1.6-0.6-2.1c-0.4-0.6-1-0.8-1.7-0.8c-0.8,0-1.4,0.3-1.8,0.9s-0.6,1.4-0.6,2.3c0,1,0.2,1.7,0.7,2.2s1,0.8,1.7,0.8
		s1.3-0.3,1.7-0.9C34.8,367.9,35,367.1,35,366.2z"/>
	<path class="st4" d="M43.2,369.3c-0.5,0.4-1,0.8-1.5,0.9c-0.5,0.2-1,0.3-1.6,0.3c-0.9,0-1.6-0.2-2.1-0.7c-0.5-0.4-0.7-1-0.7-1.7
		c0-0.4,0.1-0.8,0.3-1.1c0.2-0.3,0.4-0.6,0.7-0.8c0.3-0.2,0.6-0.4,1-0.5c0.3-0.1,0.7-0.1,1.3-0.2c1.1-0.1,2-0.3,2.5-0.5
		c0-0.2,0-0.3,0-0.4c0-0.6-0.1-1-0.4-1.2c-0.4-0.3-0.9-0.5-1.6-0.5c-0.7,0-1.1,0.1-1.5,0.3c-0.3,0.2-0.5,0.6-0.7,1.2l-1.4-0.2
		c0.1-0.6,0.3-1.1,0.6-1.4c0.3-0.4,0.7-0.6,1.2-0.8c0.5-0.2,1.2-0.3,1.9-0.3s1.3,0.1,1.7,0.3c0.4,0.2,0.8,0.4,1,0.6
		c0.2,0.3,0.4,0.6,0.4,1c0,0.2,0.1,0.7,0.1,1.3v1.9c0,1.3,0,2.1,0.1,2.5c0.1,0.3,0.2,0.7,0.4,1h-1.5C43.3,370,43.2,369.7,43.2,369.3
		z M43.1,366.2c-0.5,0.2-1.3,0.4-2.3,0.5c-0.6,0.1-1,0.2-1.2,0.3c-0.2,0.1-0.4,0.3-0.6,0.5c-0.1,0.2-0.2,0.4-0.2,0.7
		c0,0.4,0.1,0.7,0.4,0.9c0.3,0.3,0.7,0.4,1.2,0.4s1-0.1,1.4-0.4s0.7-0.6,0.9-1c0.2-0.3,0.2-0.8,0.2-1.4v-0.5H43.1z"/>
	<path class="st4" d="M47.3,362h6.5v8.3h-1.4v-7.1h-3.7v4.1c0,1,0,1.6-0.1,1.9s-0.2,0.6-0.5,0.8s-0.7,0.3-1.2,0.3
		c-0.3,0-0.7,0-1.1-0.1v-1.2h0.6c0.3,0,0.5,0,0.6-0.1s0.2-0.2,0.3-0.3c0-0.1,0.1-0.6,0.1-1.3L47.3,362L47.3,362z"/>
	<path class="st4" d="M56,362h1.4v3.2h1.8c1.2,0,2.1,0.2,2.7,0.7c0.6,0.5,0.9,1.1,0.9,1.9c0,0.7-0.3,1.3-0.8,1.8s-1.4,0.7-2.5,0.7
		H56C56,370.3,56,362,56,362z M57.4,369.2h1.5c0.9,0,1.5-0.1,1.9-0.3c0.4-0.2,0.6-0.6,0.6-1s-0.1-0.7-0.4-1s-0.9-0.4-1.9-0.4h-1.7
		C57.4,366.5,57.4,369.2,57.4,369.2z"/>
	<path class="st4" d="M64.3,362h1.4v3.5h3.9V362h1.5v8.3h-1.4v-3.7h-3.9v3.7h-1.4L64.3,362L64.3,362z"/>
	<path class="st4" d="M78.6,369.3c-0.5,0.4-1,0.8-1.5,0.9c-0.5,0.2-1,0.3-1.6,0.3c-0.9,0-1.6-0.2-2.1-0.7c-0.5-0.4-0.7-1-0.7-1.7
		c0-0.4,0.1-0.8,0.3-1.1c0.2-0.3,0.4-0.6,0.7-0.8c0.3-0.2,0.6-0.4,1-0.5c0.3-0.1,0.7-0.1,1.3-0.2c1.1-0.1,2-0.3,2.5-0.5
		c0-0.2,0-0.3,0-0.4c0-0.6-0.1-1-0.4-1.2c-0.4-0.3-0.9-0.5-1.6-0.5s-1.1,0.1-1.5,0.3c-0.3,0.2-0.5,0.6-0.7,1.2l-1.4-0.2
		c0.1-0.6,0.3-1.1,0.6-1.4c0.3-0.4,0.7-0.6,1.2-0.8c0.5-0.2,1.2-0.3,1.9-0.3c0.7,0,1.3,0.1,1.7,0.3c0.4,0.2,0.8,0.4,1,0.6
		c0.2,0.3,0.4,0.6,0.4,1c0,0.2,0.1,0.7,0.1,1.3v1.9c0,1.3,0,2.1,0.1,2.5c0.1,0.3,0.2,0.7,0.4,1h-1.5C78.7,370,78.6,369.7,78.6,369.3
		z M78.5,366.2c-0.5,0.2-1.3,0.4-2.3,0.5c-0.6,0.1-1,0.2-1.2,0.3c-0.2,0.1-0.4,0.3-0.6,0.5c-0.1,0.2-0.2,0.4-0.2,0.7
		c0,0.4,0.1,0.7,0.4,0.9c0.3,0.3,0.7,0.4,1.2,0.4s1-0.1,1.4-0.4s0.7-0.6,0.9-1c0.2-0.3,0.2-0.8,0.2-1.4v-0.5H78.5z"/>
	<path class="st4" d="M88.6,362v8.3h-1.4V367h-0.8c-0.5,0-0.9,0.1-1.1,0.2s-0.6,0.5-1.1,1.2l-1.2,1.8h-1.7l1.5-2.2
		c0.5-0.7,0.9-1.1,1.4-1.2c-0.8-0.1-1.4-0.4-1.8-0.9s-0.6-1-0.6-1.6c0-0.7,0.3-1.3,0.8-1.8s1.2-0.7,2.2-0.7h3.8V362z M87.2,363.2h-2
		c-0.8,0-1.4,0.1-1.6,0.4s-0.4,0.6-0.4,0.9c0,0.5,0.2,0.9,0.5,1.1c0.4,0.2,1,0.3,1.9,0.3h1.6V363.2z"/>
	<path class="st4" d="M94.4,362h6.7v1.2h-2.7v7.1h-1.3v-7.1h-2.7V362z"/>
	<path class="st4" d="M101.8,366.2c0-1.5,0.4-2.7,1.3-3.4c0.7-0.6,1.6-0.9,2.6-0.9c1.1,0,2.1,0.4,2.8,1.1c0.7,0.7,1.1,1.8,1.1,3.1
		c0,1.1-0.2,1.9-0.5,2.5s-0.8,1.1-1.4,1.4s-1.3,0.5-2,0.5c-1.2,0-2.1-0.4-2.8-1.1C102.2,368.7,101.8,367.6,101.8,366.2z
		 M103.2,366.2c0,1.1,0.2,1.9,0.7,2.4s1,0.8,1.8,0.8c0.7,0,1.3-0.3,1.7-0.8c0.5-0.5,0.7-1.3,0.7-2.4c0-1-0.2-1.8-0.7-2.3
		s-1-0.8-1.7-0.8s-1.3,0.3-1.8,0.8C103.5,364.3,103.2,365.1,103.2,366.2z"/>
	<path class="st4" d="M111.2,373.5V362h1.3v1.1c0.3-0.4,0.6-0.7,1-0.9c0.4-0.2,0.8-0.3,1.4-0.3c0.7,0,1.3,0.2,1.9,0.5
		c0.5,0.4,1,0.9,1.2,1.5c0.3,0.7,0.4,1.4,0.4,2.2c0,0.8-0.2,1.6-0.5,2.3s-0.7,1.2-1.3,1.6c-0.6,0.4-1.2,0.5-1.8,0.5
		c-0.5,0-0.9-0.1-1.3-0.3c-0.4-0.2-0.7-0.4-0.9-0.8v4L111.2,373.5L111.2,373.5z M112.5,366.2c0,1.1,0.2,1.9,0.6,2.4s1,0.8,1.6,0.8
		s1.2-0.3,1.6-0.8s0.7-1.3,0.7-2.5c0-1.1-0.2-1.8-0.7-2.4c-0.4-0.5-1-0.8-1.6-0.8s-1.1,0.3-1.6,0.8S112.5,365.2,112.5,366.2z"/>
	<path class="st4" d="M120.1,362h4.8v1.2h-3.4v7.1h-1.4V362z"/>
	<path class="st4" d="M125.1,366.2c0-1.5,0.4-2.7,1.3-3.4c0.7-0.6,1.6-0.9,2.6-0.9c1.1,0,2.1,0.4,2.8,1.1s1.1,1.8,1.1,3.1
		c0,1.1-0.2,1.9-0.5,2.5s-0.8,1.1-1.4,1.4c-0.6,0.3-1.3,0.5-2,0.5c-1.2,0-2.1-0.4-2.8-1.1C125.4,368.7,125.1,367.6,125.1,366.2z
		 M126.5,366.2c0,1.1,0.2,1.9,0.7,2.4s1,0.8,1.8,0.8c0.7,0,1.3-0.3,1.7-0.8c0.5-0.5,0.7-1.3,0.7-2.4c0-1-0.2-1.8-0.7-2.3
		s-1-0.8-1.7-0.8s-1.3,0.3-1.8,0.8C126.8,364.3,126.5,365.1,126.5,366.2z"/>
	<path class="st4" d="M134.5,362h3.2c0.8,0,1.4,0.1,1.8,0.2c0.4,0.1,0.7,0.4,1,0.7c0.3,0.4,0.4,0.8,0.4,1.3c0,0.4-0.1,0.7-0.2,1
		s-0.4,0.5-0.7,0.7c0.4,0.1,0.7,0.4,1,0.7s0.4,0.8,0.4,1.3c-0.1,0.8-0.3,1.4-0.8,1.8s-1.3,0.6-2.2,0.6h-3.7V362H134.5z M135.9,365.5
		h1.5c0.6,0,1,0,1.2-0.1s0.4-0.2,0.6-0.4c0.2-0.2,0.3-0.4,0.3-0.7c0-0.4-0.2-0.7-0.5-0.9c-0.3-0.2-0.8-0.3-1.6-0.3h-1.5V365.5z
		 M135.9,369.2h1.9c0.8,0,1.3-0.1,1.6-0.3s0.5-0.5,0.5-1c0-0.3-0.1-0.5-0.3-0.7s-0.4-0.4-0.7-0.4c-0.3-0.1-0.7-0.1-1.3-0.1h-1.7
		V369.2z"/>
	<path class="st4" d="M148.2,369.3c-0.5,0.4-1,0.8-1.5,0.9c-0.5,0.2-1,0.3-1.6,0.3c-0.9,0-1.6-0.2-2.1-0.7c-0.5-0.4-0.7-1-0.7-1.7
		c0-0.4,0.1-0.8,0.3-1.1c0.2-0.3,0.4-0.6,0.7-0.8c0.3-0.2,0.6-0.4,1-0.5c0.3-0.1,0.7-0.1,1.3-0.2c1.1-0.1,2-0.3,2.5-0.5
		c0-0.2,0-0.3,0-0.4c0-0.6-0.1-1-0.4-1.2c-0.4-0.3-0.9-0.5-1.6-0.5c-0.7,0-1.1,0.1-1.5,0.3c-0.3,0.2-0.5,0.6-0.7,1.2l-1.4-0.2
		c0.1-0.6,0.3-1.1,0.6-1.4c0.3-0.4,0.7-0.6,1.2-0.8c0.5-0.2,1.2-0.3,1.9-0.3s1.3,0.1,1.7,0.3c0.4,0.2,0.8,0.4,1,0.6
		c0.2,0.3,0.4,0.6,0.4,1c0,0.2,0.1,0.7,0.1,1.3v1.9c0,1.3,0,2.1,0.1,2.5c0.1,0.3,0.2,0.7,0.4,1h-1.5
		C148.4,370,148.3,369.7,148.2,369.3z M148.1,366.2c-0.5,0.2-1.3,0.4-2.3,0.5c-0.6,0.1-1,0.2-1.2,0.3c-0.2,0.1-0.4,0.3-0.6,0.5
		c-0.1,0.2-0.2,0.4-0.2,0.7c0,0.4,0.1,0.7,0.4,0.9c0.3,0.3,0.7,0.4,1.2,0.4s1-0.1,1.4-0.4s0.7-0.6,0.9-1c0.2-0.3,0.2-0.8,0.2-1.4
		v-0.5H148.1z"/>
	<path class="st4" d="M158.3,362v8.3h-1.4V367h-0.8c-0.5,0-0.9,0.1-1.1,0.2s-0.6,0.5-1.1,1.2l-1.2,1.8H151l1.5-2.2
		c0.5-0.7,0.9-1.1,1.4-1.2c-0.8-0.1-1.4-0.4-1.8-0.9c-0.4-0.5-0.6-1-0.6-1.6c0-0.7,0.3-1.3,0.8-1.8s1.2-0.7,2.2-0.7h3.8V362z
		 M156.9,363.2h-2c-0.8,0-1.4,0.1-1.6,0.4s-0.4,0.6-0.4,0.9c0,0.5,0.2,0.9,0.5,1.1c0.4,0.2,1,0.3,1.9,0.3h1.6V363.2z"/>
	<path class="st4" d="M164.8,362h6.5v8.3h-1.4v-7.1h-3.7v7.1h-1.4L164.8,362L164.8,362z"/>
	<path class="st4" d="M174.2,362h6.5v8.3h-1.4v-7.1h-3.7v4.1c0,1,0,1.6-0.1,1.9s-0.2,0.6-0.5,0.8s-0.7,0.3-1.2,0.3
		c-0.3,0-0.7,0-1.1-0.1v-1.2h0.6c0.3,0,0.5,0,0.6-0.1s0.2-0.2,0.3-0.3c0-0.1,0.1-0.6,0.1-1.3V362H174.2z"/>
	<path class="st4" d="M188.2,369.3c-0.5,0.4-1,0.8-1.5,0.9c-0.5,0.2-1,0.3-1.6,0.3c-0.9,0-1.6-0.2-2.1-0.7c-0.5-0.4-0.7-1-0.7-1.7
		c0-0.4,0.1-0.8,0.3-1.1c0.2-0.3,0.4-0.6,0.7-0.8c0.3-0.2,0.6-0.4,1-0.5c0.3-0.1,0.7-0.1,1.3-0.2c1.1-0.1,2-0.3,2.5-0.5
		c0-0.2,0-0.3,0-0.4c0-0.6-0.1-1-0.4-1.2c-0.4-0.3-0.9-0.5-1.6-0.5c-0.7,0-1.1,0.1-1.5,0.3c-0.3,0.2-0.5,0.6-0.7,1.2l-1.4-0.2
		c0.1-0.6,0.3-1.1,0.6-1.4c0.3-0.4,0.7-0.6,1.2-0.8c0.5-0.2,1.2-0.3,1.9-0.3s1.3,0.1,1.7,0.3c0.4,0.2,0.8,0.4,1,0.6
		c0.2,0.3,0.4,0.6,0.4,1c0,0.2,0.1,0.7,0.1,1.3v1.9c0,1.3,0,2.1,0.1,2.5c0.1,0.3,0.2,0.7,0.4,1h-1.5
		C188.4,370,188.3,369.7,188.2,369.3z M188.1,366.2c-0.5,0.2-1.3,0.4-2.3,0.5c-0.6,0.1-1,0.2-1.2,0.3c-0.2,0.1-0.4,0.3-0.6,0.5
		c-0.1,0.2-0.2,0.4-0.2,0.7c0,0.4,0.1,0.7,0.4,0.9c0.3,0.3,0.7,0.4,1.2,0.4s1-0.1,1.4-0.4s0.7-0.6,0.9-1c0.2-0.3,0.2-0.8,0.2-1.4
		v-0.5H188.1z"/>
	<path class="st4" d="M190.6,362h6.7v1.2h-2.7v7.1h-1.4v-7.1h-2.7L190.6,362L190.6,362z"/>
	<path class="st4" d="M203.5,358.9h1.4v4c0.3-0.3,0.6-0.6,1-0.7c0.3-0.2,0.7-0.2,1.1-0.2c1,0,1.8,0.4,2.3,1.2
		c0.6,0.8,0.9,1.9,0.9,3.1c0,1.3-0.3,2.3-0.9,3.1c-0.6,0.8-1.4,1.2-2.3,1.2c-0.3,0-0.6,0-0.9-0.1s-0.7-0.3-1.1-0.8v3.9h-1.4v-3.9
		c-0.3,0.3-0.6,0.5-0.9,0.7c-0.3,0.2-0.7,0.2-1.1,0.2c-0.9,0-1.6-0.4-2.3-1.1c-0.7-0.8-1-1.9-1-3.3c0-1.2,0.3-2.2,0.9-3
		c0.6-0.8,1.4-1.2,2.4-1.2c0.4,0,0.8,0.1,1.1,0.2c0.3,0.2,0.6,0.4,0.9,0.7L203.5,358.9L203.5,358.9z M199.7,366.1
		c0,1.2,0.2,2,0.6,2.5c0.4,0.5,0.9,0.8,1.5,0.8s1.1-0.3,1.4-0.8c0.3-0.5,0.5-1.3,0.5-2.3c0-1.1-0.2-1.9-0.5-2.5
		c-0.3-0.5-0.8-0.8-1.4-0.8c-0.6,0-1,0.3-1.4,0.8C199.9,364.3,199.7,365.1,199.7,366.1z M204.9,366.2c0,1.3,0.2,2.1,0.5,2.5
		s0.8,0.6,1.3,0.6c0.6,0,1.1-0.3,1.5-0.8s0.6-1.4,0.6-2.5s-0.2-1.8-0.6-2.4c-0.4-0.5-0.9-0.8-1.4-0.8c-0.6,0-1.1,0.3-1.4,0.8
		C205.1,364.3,204.9,365.1,204.9,366.2z"/>
	<path class="st4" d="M211.3,366.2c0-1.5,0.4-2.7,1.3-3.4c0.7-0.6,1.6-0.9,2.6-0.9c1.1,0,2.1,0.4,2.8,1.1s1.1,1.8,1.1,3.1
		c0,1.1-0.2,1.9-0.5,2.5s-0.8,1.1-1.4,1.4c-0.6,0.3-1.3,0.5-2,0.5c-1.2,0-2.1-0.4-2.8-1.1C211.7,368.7,211.3,367.6,211.3,366.2z
		 M212.8,366.2c0,1.1,0.2,1.9,0.7,2.4s1,0.8,1.8,0.8c0.7,0,1.3-0.3,1.7-0.8c0.5-0.5,0.7-1.3,0.7-2.4c0-1-0.2-1.8-0.7-2.3
		s-1-0.8-1.7-0.8s-1.3,0.3-1.8,0.8C213,364.3,212.8,365.1,212.8,366.2z"/>
	<path class="st4" d="M220.8,373.5V362h1.3v1.1c0.3-0.4,0.6-0.7,1-0.9c0.4-0.2,0.8-0.3,1.4-0.3c0.7,0,1.3,0.2,1.9,0.5
		c0.5,0.4,1,0.9,1.2,1.5c0.3,0.7,0.4,1.4,0.4,2.2c0,0.8-0.2,1.6-0.5,2.3s-0.7,1.2-1.3,1.6s-1.2,0.5-1.8,0.5c-0.5,0-0.9-0.1-1.3-0.3
		c-0.4-0.2-0.7-0.4-0.9-0.8v4L220.8,373.5L220.8,373.5z M222,366.2c0,1.1,0.2,1.9,0.6,2.4c0.4,0.5,1,0.8,1.6,0.8s1.2-0.3,1.6-0.8
		s0.7-1.3,0.7-2.5c0-1.1-0.2-1.8-0.7-2.4c-0.4-0.5-1-0.8-1.6-0.8s-1.1,0.3-1.6,0.8S222,365.2,222,366.2z"/>
	<path class="st4" d="M229.7,362h2.2l2.2,6.6l2.4-6.6h2v8.3h-1.4v-6.7l-2.5,6.7h-1.3l-2.3-7v7h-1.4V362H229.7z"/>
	<path class="st4" d="M246.1,369.3c-0.5,0.4-1,0.8-1.5,0.9c-0.5,0.2-1,0.3-1.6,0.3c-0.9,0-1.6-0.2-2.1-0.7c-0.5-0.4-0.7-1-0.7-1.7
		c0-0.4,0.1-0.8,0.3-1.1c0.2-0.3,0.4-0.6,0.7-0.8c0.3-0.2,0.6-0.4,1-0.5c0.3-0.1,0.7-0.1,1.3-0.2c1.1-0.1,2-0.3,2.5-0.5
		c0-0.2,0-0.3,0-0.4c0-0.6-0.1-1-0.4-1.2c-0.4-0.3-0.9-0.5-1.6-0.5c-0.7,0-1.1,0.1-1.5,0.3c-0.3,0.2-0.5,0.6-0.7,1.2l-1.4-0.2
		c0.1-0.6,0.3-1.1,0.6-1.4c0.3-0.4,0.7-0.6,1.2-0.8c0.5-0.2,1.2-0.3,1.9-0.3s1.3,0.1,1.7,0.3c0.4,0.2,0.8,0.4,1,0.6
		c0.2,0.3,0.4,0.6,0.4,1c0,0.2,0.1,0.7,0.1,1.3v1.9c0,1.3,0,2.1,0.1,2.5c0.1,0.3,0.2,0.7,0.4,1h-1.5
		C246.2,370,246.1,369.7,246.1,369.3z M246,366.2c-0.5,0.2-1.3,0.4-2.3,0.5c-0.6,0.1-1,0.2-1.2,0.3c-0.2,0.1-0.4,0.3-0.6,0.5
		c-0.1,0.2-0.2,0.4-0.2,0.7c0,0.4,0.1,0.7,0.4,0.9c0.3,0.3,0.7,0.4,1.2,0.4s1-0.1,1.4-0.4s0.7-0.6,0.9-1c0.2-0.3,0.2-0.8,0.2-1.4
		v-0.5H246z"/>
</g>
<g class="st3">
	<path class="st4" d="M29.3,133.2h1.4v9.1l6.1-9.1h1.5v11.5h-1.4v-9l-6.1,9h-1.5C29.3,144.7,29.3,133.2,29.3,133.2z"/>
	<path class="st4" d="M40.6,136.4H42v3.5h3.9v-3.5h1.4v8.3h-1.4V141H42v3.7h-1.4V136.4z"/>
	<path class="st4" d="M49.4,136.4h3.2c0.8,0,1.4,0.1,1.8,0.2c0.4,0.1,0.7,0.4,1,0.7c0.3,0.4,0.4,0.8,0.4,1.3c0,0.4-0.1,0.7-0.2,1
		s-0.4,0.5-0.7,0.7c0.4,0.1,0.7,0.4,1,0.7s0.4,0.8,0.4,1.3c-0.1,0.8-0.3,1.4-0.8,1.8c-0.5,0.4-1.3,0.6-2.2,0.6h-3.9V136.4z
		 M50.8,139.9h1.5c0.6,0,1,0,1.2-0.1s0.4-0.2,0.6-0.4c0.2-0.2,0.3-0.4,0.3-0.7c0-0.4-0.2-0.7-0.5-0.9s-0.8-0.3-1.6-0.3h-1.5V139.9z
		 M50.8,143.5h1.9c0.8,0,1.3-0.1,1.6-0.3s0.5-0.5,0.5-1c0-0.3-0.1-0.5-0.3-0.7s-0.4-0.4-0.7-0.4c-0.3-0.1-0.7-0.1-1.3-0.1h-1.7
		V143.5z"/>
	<path class="st4" d="M63.4,142l1.5,0.2c-0.2,0.8-0.7,1.5-1.3,2c-0.6,0.5-1.4,0.7-2.4,0.7c-1.2,0-2.2-0.4-2.9-1.1s-1.1-1.8-1.1-3.1
		c0-1.4,0.4-2.5,1.1-3.3s1.7-1.2,2.8-1.2s2,0.4,2.7,1.1c0.7,0.7,1.1,1.8,1.1,3.2c0,0.1,0,0.2,0,0.4h-6.2c0.1,0.9,0.3,1.6,0.8,2.1
		s1,0.7,1.7,0.7c0.5,0,1-0.1,1.3-0.4C62.9,143.1,63.2,142.6,63.4,142z M58.8,139.8h4.6c-0.1-0.7-0.2-1.2-0.5-1.6
		c-0.4-0.5-1-0.8-1.7-0.8c-0.6,0-1.2,0.2-1.6,0.6C59.1,138.5,58.8,139,58.8,139.8z"/>
	<path class="st4" d="M72,141.7l1.4,0.2c-0.2,1-0.5,1.7-1.2,2.2c-0.6,0.5-1.4,0.8-2.3,0.8c-1.1,0-2-0.4-2.7-1.1
		c-0.7-0.7-1-1.8-1-3.2c0-0.9,0.1-1.7,0.4-2.4s0.7-1.2,1.4-1.5c0.6-0.3,1.3-0.5,2-0.5c0.9,0,1.6,0.2,2.2,0.7s0.9,1.1,1.1,1.9
		l-1.4,0.2c-0.1-0.6-0.4-1-0.7-1.3c-0.3-0.3-0.7-0.4-1.2-0.4c-0.7,0-1.3,0.3-1.7,0.8c-0.4,0.5-0.7,1.3-0.7,2.4
		c0,1.1,0.2,1.9,0.6,2.4s1,0.8,1.7,0.8c0.6,0,1-0.2,1.4-0.5C71.7,142.9,71.9,142.4,72,141.7z"/>
	<path class="st4" d="M73.9,136.4h6.7v1.2h-2.7v7.1h-1.4v-7.1h-2.7L73.9,136.4L73.9,136.4z"/>
	<path class="st4" d="M81.2,140.6c0-1.5,0.4-2.7,1.3-3.4c0.7-0.6,1.6-0.9,2.6-0.9c1.1,0,2.1,0.4,2.8,1.1c0.7,0.7,1.1,1.8,1.1,3.1
		c0,1.1-0.2,1.9-0.5,2.5s-0.8,1.1-1.4,1.4c-0.6,0.3-1.3,0.5-2,0.5c-1.2,0-2.1-0.4-2.8-1.1C81.6,143,81.2,142,81.2,140.6z
		 M82.7,140.6c0,1.1,0.2,1.9,0.7,2.4s1,0.8,1.8,0.8c0.7,0,1.3-0.3,1.7-0.8c0.5-0.5,0.7-1.3,0.7-2.4c0-1-0.2-1.8-0.7-2.3
		s-1-0.8-1.7-0.8s-1.3,0.3-1.8,0.8C82.9,138.7,82.7,139.5,82.7,140.6z"/>
	<path class="st4" d="M90.7,147.9v-11.5H92v1.1c0.3-0.4,0.6-0.7,1-0.9s0.8-0.3,1.4-0.3c0.7,0,1.3,0.2,1.9,0.5c0.5,0.4,1,0.9,1.2,1.5
		c0.3,0.7,0.4,1.4,0.4,2.2s-0.2,1.6-0.5,2.3s-0.7,1.2-1.3,1.6c-0.6,0.4-1.2,0.5-1.8,0.5c-0.5,0-0.9-0.1-1.3-0.3s-0.7-0.4-0.9-0.8v4
		L90.7,147.9L90.7,147.9z M91.9,140.6c0,1.1,0.2,1.9,0.6,2.4s1,0.8,1.6,0.8s1.2-0.3,1.6-0.8s0.7-1.3,0.7-2.5c0-1.1-0.2-1.8-0.7-2.4
		c-0.4-0.5-1-0.8-1.6-0.8s-1.1,0.3-1.6,0.8S91.9,139.5,91.9,140.6z"/>
</g>
<g class="st3">
	<path class="st4" d="M99.1,64.3V52.8h4.3c0.8,0,1.3,0,1.7,0.1c0.6,0.1,1,0.3,1.4,0.5c0.4,0.3,0.7,0.6,0.9,1.1
		c0.2,0.5,0.3,1,0.3,1.6c0,1-0.3,1.8-0.9,2.5c-0.6,0.7-1.7,1-3.4,1h-2.9v4.7C100.5,64.3,99.1,64.3,99.1,64.3z M100.6,58.2h3
		c1,0,1.7-0.2,2.1-0.5c0.4-0.4,0.6-0.9,0.6-1.5c0-0.5-0.1-0.9-0.4-1.2c-0.3-0.3-0.6-0.6-1-0.7c-0.3-0.1-0.7-0.1-1.4-0.1h-2.9
		C100.6,54.2,100.6,58.2,100.6,58.2z"/>
	<path class="st4" d="M114.4,63.2c-0.5,0.4-1,0.8-1.5,0.9c-0.5,0.2-1,0.3-1.6,0.3c-0.9,0-1.6-0.2-2.1-0.7c-0.5-0.4-0.7-1-0.7-1.7
		c0-0.4,0.1-0.8,0.3-1.1c0.2-0.3,0.4-0.6,0.7-0.8c0.3-0.2,0.6-0.4,1-0.5c0.3-0.1,0.7-0.1,1.3-0.2c1.1-0.1,2-0.3,2.5-0.5
		c0-0.2,0-0.3,0-0.4c0-0.6-0.1-1-0.4-1.2c-0.4-0.3-0.9-0.5-1.6-0.5s-1.1,0.1-1.5,0.3c-0.3,0.2-0.5,0.6-0.7,1.2l-1.4-0.2
		c0.1-0.6,0.3-1.1,0.6-1.4c0.3-0.4,0.7-0.6,1.2-0.8c0.5-0.2,1.2-0.3,1.9-0.3c0.7,0,1.3,0.1,1.7,0.3c0.4,0.2,0.8,0.4,1,0.6
		c0.2,0.3,0.4,0.6,0.4,1c0,0.2,0.1,0.7,0.1,1.3v1.9c0,1.3,0,2.1,0.1,2.5c0.1,0.3,0.2,0.7,0.4,1h-1.4C114.6,64,114.5,63.6,114.4,63.2
		z M114.3,60.1c-0.5,0.2-1.3,0.4-2.3,0.5c-0.6,0.1-1,0.2-1.2,0.3s-0.4,0.3-0.6,0.5c-0.1,0.2-0.2,0.4-0.2,0.7c0,0.4,0.1,0.7,0.4,0.9
		c0.3,0.3,0.7,0.4,1.2,0.4s1-0.1,1.4-0.4s0.7-0.6,0.9-1c0.2-0.3,0.2-0.8,0.2-1.4v-0.5H114.3z"/>
	<path class="st4" d="M123.3,61.2l1.4,0.2c-0.2,1-0.5,1.7-1.2,2.2c-0.6,0.5-1.4,0.8-2.3,0.8c-1.1,0-2-0.4-2.7-1.1
		c-0.7-0.7-1-1.8-1-3.2c0-0.9,0.1-1.7,0.4-2.4c0.3-0.7,0.7-1.2,1.4-1.5c0.6-0.3,1.3-0.5,2-0.5c0.9,0,1.6,0.2,2.2,0.7
		s0.9,1.1,1.1,1.9l-1.4,0.2c-0.1-0.6-0.4-1-0.7-1.3c-0.3-0.3-0.7-0.4-1.2-0.4c-0.7,0-1.3,0.3-1.7,0.8c-0.4,0.5-0.7,1.3-0.7,2.4
		s0.2,1.9,0.6,2.4s1,0.8,1.7,0.8c0.6,0,1-0.2,1.4-0.5C123,62.4,123.2,61.9,123.3,61.2z"/>
	<path class="st4" d="M125.9,56h6.5v8.3H131v-7.1h-3.7v7.1h-1.4V56z"/>
	<path class="st4" d="M134.6,67.4V56h1.3v1.1c0.3-0.4,0.6-0.7,1-0.9c0.4-0.2,0.8-0.3,1.4-0.3c0.7,0,1.3,0.2,1.9,0.5
		c0.5,0.4,1,0.9,1.2,1.5c0.3,0.7,0.4,1.4,0.4,2.2c0,0.8-0.2,1.6-0.5,2.3c-0.3,0.7-0.7,1.2-1.3,1.6c-0.6,0.4-1.2,0.5-1.8,0.5
		c-0.5,0-0.9-0.1-1.3-0.3c-0.4-0.2-0.7-0.4-0.9-0.8v4C136,67.3,134.6,67.3,134.6,67.4z M135.9,60.1c0,1.1,0.2,1.9,0.6,2.4
		c0.4,0.5,1,0.8,1.6,0.8s1.2-0.3,1.6-0.8s0.7-1.3,0.7-2.5c0-1.1-0.2-1.8-0.7-2.4c-0.4-0.5-1-0.8-1.6-0.8s-1.1,0.3-1.6,0.8
		S135.9,59.1,135.9,60.1z"/>
	<path class="st4" d="M149.2,61.6l1.5,0.2c-0.2,0.8-0.7,1.5-1.3,2s-1.4,0.7-2.4,0.7c-1.2,0-2.2-0.4-2.9-1.1s-1.1-1.8-1.1-3.1
		c0-1.4,0.4-2.5,1.1-3.3c0.7-0.8,1.7-1.2,2.8-1.2s2,0.4,2.7,1.1s1.1,1.8,1.1,3.2c0,0.1,0,0.2,0,0.4h-6.2c0.1,0.9,0.3,1.6,0.8,2.1
		s1,0.7,1.7,0.7c0.5,0,1-0.1,1.3-0.4C148.7,62.6,149,62.2,149.2,61.6z M144.6,59.3h4.6c-0.1-0.7-0.2-1.2-0.5-1.6
		c-0.4-0.5-1-0.8-1.7-0.8c-0.6,0-1.2,0.2-1.6,0.6C144.8,58,144.6,58.6,144.6,59.3z"/>
	<path class="st4" d="M153.2,56h5.8v7.1h0.9v3.5h-1.2v-2.4h-6.5v2.4H151v-3.5h0.7C152.7,61.8,153.2,59.4,153.2,56z M154.3,57.1
		c-0.1,2.7-0.5,4.7-1.3,6h4.5v-6H154.3z"/>
	<path class="st4" d="M167.1,61.6l1.5,0.2c-0.2,0.8-0.7,1.5-1.3,2s-1.4,0.7-2.4,0.7c-1.2,0-2.2-0.4-2.9-1.1s-1.1-1.8-1.1-3.1
		c0-1.4,0.4-2.5,1.1-3.3c0.7-0.8,1.7-1.2,2.8-1.2s2,0.4,2.7,1.1s1.1,1.8,1.1,3.2c0,0.1,0,0.2,0,0.4h-6.2c0.1,0.9,0.3,1.6,0.8,2.1
		s1,0.7,1.7,0.7c0.5,0,1-0.1,1.3-0.4C166.6,62.6,166.8,62.2,167.1,61.6z M162.4,59.3h4.6c-0.1-0.7-0.2-1.2-0.5-1.6
		c-0.4-0.5-1-0.8-1.7-0.8c-0.6,0-1.2,0.2-1.6,0.6C162.7,58,162.5,58.6,162.4,59.3z"/>
	<path class="st4" d="M170.4,56h6.5v8.3h-1.4v-7.1h-3.7v4.1c0,1,0,1.6-0.1,1.9s-0.2,0.6-0.5,0.8c-0.3,0.2-0.7,0.3-1.2,0.3
		c-0.3,0-0.7,0-1.1-0.1V63h0.6c0.3,0,0.5,0,0.6-0.1s0.2-0.2,0.3-0.3c0-0.1,0.1-0.6,0.1-1.3V56H170.4z"/>
	<path class="st4" d="M184.8,61.6l1.5,0.2c-0.2,0.8-0.7,1.5-1.3,2s-1.4,0.7-2.4,0.7c-1.2,0-2.2-0.4-2.9-1.1s-1.1-1.8-1.1-3.1
		c0-1.4,0.4-2.5,1.1-3.3c0.7-0.8,1.7-1.2,2.8-1.2s2,0.4,2.7,1.1s1.1,1.8,1.1,3.2c0,0.1,0,0.2,0,0.4h-6.2c0.1,0.9,0.3,1.6,0.8,2.1
		s1,0.7,1.7,0.7c0.5,0,1-0.1,1.3-0.4C184.3,62.6,184.5,62.2,184.8,61.6z M180.1,59.3h4.6c-0.1-0.7-0.2-1.2-0.5-1.6
		c-0.4-0.5-1-0.8-1.7-0.8c-0.6,0-1.2,0.2-1.6,0.6C180.4,58,180.2,58.6,180.1,59.3z"/>
	<path class="st4" d="M188,56h1.4v3.5h3.9V56h1.4v8.3h-1.4v-3.7h-3.9v3.7H188V56z"/>
	<path class="st4" d="M196.8,56h1.4v3.5h3.9V56h1.4v8.3h-1.4v-3.7h-3.9v3.7h-1.4V56z"/>
	<path class="st4" d="M205.7,56h1.4v3.2h1.8c1.2,0,2.1,0.2,2.7,0.7c0.6,0.5,0.9,1.1,0.9,1.9c0,0.7-0.3,1.3-0.8,1.8s-1.4,0.7-2.5,0.7
		h-3.5V56z M207.1,63.1h1.5c0.9,0,1.5-0.1,1.9-0.3c0.4-0.2,0.6-0.6,0.6-1s-0.1-0.7-0.4-1c-0.3-0.3-0.9-0.4-1.9-0.4h-1.7L207.1,63.1
		L207.1,63.1z M213.5,56h1.4v8.3h-1.4V56z"/>
	<path class="st4" d="M217.2,56h1.4v6.3l3.9-6.3h1.5v8.3h-1.4V58l-3.9,6.3h-1.5V56z M222,52.8h1c-0.1,0.7-0.3,1.2-0.7,1.5
		c-0.4,0.3-0.9,0.5-1.6,0.5c-0.7,0-1.2-0.2-1.6-0.5c-0.4-0.3-0.6-0.8-0.7-1.5h1c0.1,0.4,0.2,0.6,0.4,0.8c0.2,0.2,0.5,0.3,0.9,0.3
		s0.7-0.1,1-0.3C221.8,53.4,222,53.2,222,52.8z"/>
	<path class="st4" d="M231.6,56h5.8v7.1h0.9v3.5h-1.2v-2.4h-6.5v2.4h-1.2v-3.5h0.7C231.2,61.8,231.7,59.4,231.6,56z M232.8,57.1
		c-0.1,2.7-0.5,4.7-1.3,6h4.5v-6H232.8z"/>
	<path class="st4" d="M239.9,56h1.4v6.3l3.9-6.3h1.5v8.3h-1.4V58l-3.9,6.3h-1.5V56z"/>
	<path class="st4" d="M248.8,56h3.2c0.8,0,1.4,0.1,1.8,0.2c0.4,0.1,0.7,0.4,1,0.7c0.3,0.4,0.4,0.8,0.4,1.3c0,0.4-0.1,0.7-0.2,1
		c-0.1,0.3-0.4,0.5-0.7,0.7c0.4,0.1,0.7,0.4,1,0.7c0.3,0.3,0.4,0.8,0.4,1.3c-0.1,0.8-0.3,1.4-0.8,1.8c-0.5,0.4-1.3,0.6-2.2,0.6H249
		V56H248.8z M250.2,59.4h1.5c0.6,0,1,0,1.2-0.1s0.4-0.2,0.6-0.4c0.2-0.2,0.3-0.4,0.3-0.7c0-0.4-0.2-0.7-0.5-0.9
		c-0.3-0.2-0.8-0.3-1.6-0.3h-1.5V59.4z M250.2,63.1h1.9c0.8,0,1.3-0.1,1.6-0.3c0.3-0.2,0.5-0.5,0.5-1c0-0.3-0.1-0.5-0.3-0.7
		c-0.2-0.2-0.4-0.4-0.7-0.4c-0.3-0.1-0.7-0.1-1.3-0.1h-1.7V63.1z"/>
	<path class="st4" d="M257.3,56h1.4v6.3l3.9-6.3h1.5v8.3h-1.4V58l-3.9,6.3h-1.5V56z"/>
	<path class="st4" d="M267.4,56h5.8v7.1h0.9v3.5h-1.2v-2.4h-6.5v2.4h-1.2v-3.5h0.7C266.9,61.8,267.4,59.4,267.4,56z M268.5,57.1
		c-0.1,2.7-0.5,4.7-1.3,6h4.5v-6H268.5z"/>
	<path class="st4" d="M281.3,61.6l1.5,0.2c-0.2,0.8-0.7,1.5-1.3,2c-0.6,0.5-1.4,0.7-2.4,0.7c-1.2,0-2.2-0.4-2.9-1.1
		s-1.1-1.8-1.1-3.1c0-1.4,0.4-2.5,1.1-3.3c0.7-0.8,1.7-1.2,2.8-1.2c1.1,0,2,0.4,2.7,1.1s1.1,1.8,1.1,3.2c0,0.1,0,0.2,0,0.4h-6.2
		c0.1,0.9,0.3,1.6,0.8,2.1s1,0.7,1.7,0.7c0.5,0,1-0.1,1.3-0.4C280.8,62.6,281,62.2,281.3,61.6z M276.6,59.3h4.6
		c-0.1-0.7-0.2-1.2-0.5-1.6c-0.4-0.5-1-0.8-1.7-0.8c-0.6,0-1.2,0.2-1.6,0.6C276.9,58,276.7,58.6,276.6,59.3z"/>
	<path class="st4" d="M284.5,56h1.4v3.5h3.9V56h1.4v8.3h-1.4v-3.7h-3.9v3.7h-1.4V56z"/>
	<path class="st4" d="M294.4,56h5.8v7.1h0.9v3.5h-1.2v-2.4h-6.5v2.4h-1.2v-3.5h0.7C294,61.8,294.5,59.4,294.4,56z M295.6,57.1
		c-0.1,2.7-0.5,4.7-1.3,6h4.5v-6H295.6z"/>
	<path class="st4" d="M141.4,75.2h1.4v3.6c0.4,0,0.8-0.1,0.9-0.3s0.4-0.7,0.8-1.5c0.3-0.7,0.5-1.1,0.7-1.3s0.4-0.3,0.6-0.4
		c0.2-0.1,0.6-0.1,1.1-0.1h0.3v1.2h-0.4c-0.4,0-0.6,0.1-0.7,0.2c-0.1,0.1-0.3,0.5-0.5,1s-0.4,0.9-0.6,1.1c-0.2,0.2-0.5,0.4-0.8,0.6
		c0.6,0.2,1.2,0.7,1.8,1.7l1.5,2.6H146l-1.5-2.6c-0.3-0.5-0.6-0.9-0.8-1c-0.2-0.2-0.5-0.2-0.8-0.2v3.7h-1.4v-8.3H141.4z"/>
	<path class="st4" d="M154.2,82.4c-0.5,0.4-1,0.8-1.5,0.9c-0.5,0.2-1,0.3-1.6,0.3c-0.9,0-1.6-0.2-2.1-0.7c-0.5-0.4-0.7-1-0.7-1.7
		c0-0.4,0.1-0.8,0.3-1.1c0.2-0.3,0.4-0.6,0.7-0.8c0.3-0.2,0.6-0.4,1-0.5c0.3-0.1,0.7-0.1,1.3-0.2c1.1-0.1,2-0.3,2.5-0.5
		c0-0.2,0-0.3,0-0.4c0-0.6-0.1-1-0.4-1.2c-0.4-0.3-0.9-0.5-1.6-0.5c-0.7,0-1.1,0.1-1.5,0.3c-0.3,0.2-0.5,0.6-0.7,1.2l-1.4-0.2
		c0.1-0.6,0.3-1.1,0.6-1.4c0.3-0.4,0.7-0.6,1.2-0.8c0.5-0.2,1.2-0.3,1.9-0.3s1.3,0.1,1.7,0.3c0.4,0.2,0.8,0.4,1,0.6
		c0.2,0.3,0.4,0.6,0.4,1c0,0.2,0.1,0.7,0.1,1.3v1.9c0,1.3,0,2.1,0.1,2.5c0.1,0.3,0.2,0.7,0.4,1h-1.5
		C154.4,83.2,154.3,82.8,154.2,82.4z M154.1,79.3c-0.5,0.2-1.3,0.4-2.3,0.5c-0.6,0.1-1,0.2-1.2,0.3c-0.2,0.1-0.4,0.3-0.6,0.5
		c-0.1,0.2-0.2,0.4-0.2,0.7c0,0.4,0.1,0.7,0.4,0.9c0.3,0.3,0.7,0.4,1.2,0.4s1-0.1,1.4-0.4s0.7-0.6,0.9-1c0.2-0.3,0.2-0.8,0.2-1.4
		v-0.5H154.1z"/>
	<path class="st4" d="M162.7,75.2v3.6c0.4,0,0.8-0.1,0.9-0.3c0.2-0.2,0.4-0.7,0.8-1.5c0.3-0.8,0.6-1.3,0.9-1.5
		c0.3-0.2,0.7-0.3,1.2-0.3h0.5v1.2h-0.4c-0.4,0-0.6,0.1-0.7,0.2c-0.1,0.1-0.3,0.5-0.5,1s-0.4,0.9-0.6,1.1c-0.2,0.2-0.5,0.4-0.8,0.6
		c0.6,0.2,1.2,0.7,1.8,1.7l1.5,2.6h-1.5l-1.5-2.6c-0.3-0.5-0.6-0.9-0.8-1c-0.2-0.2-0.5-0.2-0.8-0.2v3.7h-1.4v-3.8
		c-0.3,0-0.6,0.1-0.8,0.2c-0.2,0.2-0.5,0.5-0.8,1l-1.5,2.6h-1.5l1.5-2.6c0.6-1,1.2-1.5,1.8-1.7c-0.4-0.2-0.7-0.4-0.9-0.6
		s-0.4-0.8-0.8-1.6c-0.1-0.3-0.2-0.5-0.4-0.5c-0.1-0.1-0.3-0.1-0.6-0.1c-0.1,0-0.2,0-0.4,0v-1.2h0.2c0.5,0,0.9,0,1.1,0.1
		c0.2,0.1,0.4,0.2,0.6,0.4c0.2,0.2,0.4,0.6,0.7,1.3c0.3,0.8,0.6,1.3,0.8,1.5s0.5,0.3,0.9,0.3v-3.6L162.7,75.2L162.7,75.2z"/>
	<path class="st4" d="M169.5,75.2h5.8v7.1h0.9v3.5H175v-2.3h-6.5v2.4h-1.2v-3.5h0.7C169.1,81,169.6,78.6,169.5,75.2z M170.7,76.3
		c-0.1,2.7-0.5,4.7-1.3,6h4.5v-6H170.7z"/>
	<path class="st4" d="M177.2,79.3c0-1.5,0.4-2.7,1.3-3.4c0.7-0.6,1.6-0.9,2.6-0.9c1.1,0,2.1,0.4,2.8,1.1s1.1,1.8,1.1,3.1
		c0,1.1-0.2,1.9-0.5,2.5s-0.8,1.1-1.4,1.4c-0.6,0.3-1.3,0.5-2,0.5c-1.2,0-2.1-0.4-2.8-1.1C177.6,81.8,177.2,80.7,177.2,79.3z
		 M178.7,79.3c0,1.1,0.2,1.9,0.7,2.4s1,0.8,1.8,0.8c0.7,0,1.3-0.3,1.7-0.8c0.5-0.5,0.7-1.3,0.7-2.4c0-1-0.2-1.8-0.7-2.3
		s-1-0.8-1.7-0.8s-1.3,0.3-1.8,0.8C178.9,77.4,178.7,78.2,178.7,79.3z"/>
	<path class="st4" d="M186.6,75.2h4.8v1.2H188v7.1h-1.4L186.6,75.2L186.6,75.2z"/>
	<path class="st4" d="M191.6,79.3c0-1.5,0.4-2.7,1.3-3.4c0.7-0.6,1.6-0.9,2.6-0.9c1.1,0,2.1,0.4,2.8,1.1s1.1,1.8,1.1,3.1
		c0,1.1-0.2,1.9-0.5,2.5s-0.8,1.1-1.4,1.4c-0.6,0.3-1.3,0.5-2,0.5c-1.2,0-2.1-0.4-2.8-1.1C192,81.8,191.6,80.7,191.6,79.3z
		 M193,79.3c0,1.1,0.2,1.9,0.7,2.4s1,0.8,1.8,0.8c0.7,0,1.3-0.3,1.7-0.8c0.5-0.5,0.7-1.3,0.7-2.4c0-1-0.2-1.8-0.7-2.3
		s-1-0.8-1.7-0.8s-1.3,0.3-1.8,0.8C193.3,77.4,193,78.2,193,79.3z"/>
	<path class="st4" d="M205.5,75.2h2.2l2.2,6.6l2.4-6.6h2v8.3h-1.4v-6.7l-2.5,6.7h-1.3l-2.3-7v7h-1.4v-8.3H205.5z"/>
	<path class="st4" d="M222.1,80.8l1.5,0.2c-0.2,0.8-0.7,1.5-1.3,2s-1.4,0.7-2.4,0.7c-1.2,0-2.2-0.4-2.9-1.1s-1.1-1.8-1.1-3.1
		c0-1.4,0.4-2.5,1.1-3.3s1.7-1.2,2.8-1.2s2,0.4,2.7,1.1s1.1,1.8,1.1,3.2c0,0.1,0,0.2,0,0.4h-6.2c0.1,0.9,0.3,1.6,0.8,2.1
		s1,0.7,1.7,0.7c0.5,0,1-0.1,1.3-0.4C221.6,81.8,221.9,81.4,222.1,80.8z M217.5,78.5h4.6c-0.1-0.7-0.2-1.2-0.5-1.6
		c-0.4-0.5-1-0.8-1.7-0.8c-0.6,0-1.2,0.2-1.6,0.6C217.8,77.2,217.6,77.8,217.5,78.5z"/>
	<path class="st4" d="M230.8,80.4l1.4,0.2c-0.2,1-0.5,1.7-1.2,2.2c-0.6,0.5-1.4,0.8-2.3,0.8c-1.1,0-2-0.4-2.7-1.1s-1-1.8-1-3.2
		c0-0.9,0.1-1.7,0.4-2.4s0.7-1.2,1.4-1.5c0.6-0.3,1.3-0.5,2-0.5c0.9,0,1.6,0.2,2.2,0.7c0.6,0.5,0.9,1.1,1.1,1.9l-1.4,0.2
		c-0.1-0.6-0.4-1-0.7-1.3s-0.7-0.4-1.2-0.4c-0.7,0-1.3,0.3-1.7,0.8s-0.7,1.3-0.7,2.4s0.2,1.9,0.6,2.4c0.4,0.5,1,0.8,1.7,0.8
		c0.6,0,1-0.2,1.4-0.5C230.4,81.6,230.7,81.1,230.8,80.4z"/>
	<path class="st4" d="M239.9,75.2v8.3h-1.4v-3.2h-0.8c-0.5,0-0.9,0.1-1.1,0.2s-0.6,0.5-1.1,1.2l-1.2,1.8h-1.7l1.5-2.2
		c0.5-0.7,0.9-1.1,1.4-1.2c-0.8-0.1-1.4-0.4-1.8-0.9c-0.4-0.5-0.6-1-0.6-1.6c0-0.7,0.3-1.3,0.8-1.8s1.2-0.7,2.2-0.7L239.9,75.2
		L239.9,75.2z M238.5,76.3h-2c-0.8,0-1.4,0.1-1.6,0.4s-0.4,0.6-0.4,0.9c0,0.5,0.2,0.9,0.5,1.1c0.4,0.2,1,0.3,1.9,0.3h1.6V76.3z"/>
	<path class="st4" d="M242.1,75.2h1.4v7.1h3.9v-7.1h1.4v7.1h0.9v3.5h-1.2v-2.3H242v-8.3H242.1z"/>
	<path class="st4" d="M256.6,82.4c-0.5,0.4-1,0.8-1.5,0.9c-0.5,0.2-1,0.3-1.6,0.3c-0.9,0-1.6-0.2-2.1-0.7c-0.5-0.4-0.7-1-0.7-1.7
		c0-0.4,0.1-0.8,0.3-1.1c0.2-0.3,0.4-0.6,0.7-0.8c0.3-0.2,0.6-0.4,1-0.5c0.3-0.1,0.7-0.1,1.3-0.2c1.1-0.1,2-0.3,2.5-0.5
		c0-0.2,0-0.3,0-0.4c0-0.6-0.1-1-0.4-1.2c-0.4-0.3-0.9-0.5-1.6-0.5c-0.7,0-1.1,0.1-1.5,0.3c-0.3,0.2-0.5,0.6-0.7,1.2l-1.4-0.2
		c0.1-0.6,0.3-1.1,0.6-1.4c0.3-0.4,0.7-0.6,1.2-0.8c0.5-0.2,1.2-0.3,1.9-0.3s1.3,0.1,1.7,0.3c0.4,0.2,0.8,0.4,1,0.6
		c0.2,0.3,0.4,0.6,0.4,1c0,0.2,0.1,0.7,0.1,1.3v1.9c0,1.3,0,2.1,0.1,2.5c0.1,0.3,0.2,0.7,0.4,1h-1.5
		C256.7,83.2,256.6,82.8,256.6,82.4z M256.5,79.3c-0.5,0.2-1.3,0.4-2.3,0.5c-0.6,0.1-1,0.2-1.2,0.3c-0.2,0.1-0.4,0.3-0.6,0.5
		c-0.1,0.2-0.2,0.4-0.2,0.7c0,0.4,0.1,0.7,0.4,0.9c0.3,0.3,0.7,0.4,1.2,0.4s1-0.1,1.4-0.4s0.7-0.6,0.9-1c0.2-0.3,0.2-0.8,0.2-1.4
		v-0.5H256.5z"/>
</g>
<g class="st3">
	<path class="st4" d="M454.9,281.5h1.5v5c0.7,0,1.2-0.1,1.5-0.4s0.6-0.9,1.1-1.9c0.3-0.8,0.6-1.3,0.8-1.6c0.2-0.3,0.5-0.6,0.9-0.8
		c0.4-0.2,0.8-0.3,1.3-0.3c0.6,0,0.9,0,0.9,0v1.3c-0.1,0-0.2,0-0.3,0c-0.2,0-0.3,0-0.3,0c-0.5,0-0.8,0.1-1.1,0.4
		c-0.2,0.2-0.5,0.7-0.8,1.5c-0.4,1-0.7,1.6-1,1.8c-0.3,0.2-0.6,0.5-1,0.6c0.7,0.2,1.5,0.9,2.2,2l2.4,3.8h-1.9l-1.9-3.1
		c-0.5-0.9-1-1.4-1.3-1.8c-0.3-0.4-0.8-0.5-1.4-0.5v5.4H455v-11.4H454.9z"/>
	<path class="st4" d="M469.4,292c-0.5,0.4-1,0.8-1.5,0.9c-0.5,0.1-1,0.3-1.6,0.3c-0.9,0-1.6-0.2-2.1-0.7s-0.7-1-0.7-1.7
		c0-0.4,0.1-0.8,0.3-1.1c0.2-0.3,0.4-0.6,0.7-0.8c0.3-0.2,0.6-0.4,1-0.5c0.3-0.1,0.7-0.1,1.3-0.2c1.1-0.1,2-0.3,2.5-0.5
		c0-0.2,0-0.3,0-0.4c0-0.6-0.1-1-0.4-1.2c-0.4-0.3-0.9-0.5-1.6-0.5c-0.7,0-1.1,0.1-1.5,0.3c-0.4,0.2-0.5,0.6-0.7,1.2l-1.4-0.2
		c0.1-0.6,0.3-1.1,0.6-1.4s0.7-0.6,1.2-0.8c0.5-0.2,1.2-0.3,1.9-0.3s1.3,0.1,1.7,0.3c0.4,0.2,0.8,0.4,1,0.6s0.4,0.6,0.4,1
		c0,0.2,0.1,0.7,0.1,1.3v1.9c0,1.3,0,2.1,0.1,2.5c0.1,0.4,0.2,0.7,0.4,1h-1.4C469.6,292.8,469.5,292.5,469.4,292z M469.3,288.8
		c-0.5,0.2-1.3,0.4-2.3,0.5c-0.6,0.1-1,0.2-1.2,0.3s-0.4,0.3-0.6,0.5s-0.2,0.4-0.2,0.7c0,0.4,0.1,0.7,0.4,0.9
		c0.3,0.2,0.7,0.4,1.2,0.4s1-0.1,1.4-0.4s0.7-0.6,0.9-1c0.2-0.3,0.2-0.8,0.2-1.4v-0.5H469.3z"/>
	<path class="st4" d="M472.9,284.8h6.5v8.3H478v-7.1h-3.7v7.1h-1.4L472.9,284.8L472.9,284.8z"/>
	<path class="st4" d="M481.6,284.8h1.4v6.3l3.9-6.3h1.5v8.3H487v-6.3l-3.9,6.3h-1.5V284.8z"/>
	<path class="st4" d="M489.8,284.8h6.7v1.2h-2.7v7.1h-1.4V286h-2.7v-1.2H489.8z"/>
	<path class="st4" d="M503.1,292c-0.5,0.4-1,0.8-1.5,0.9c-0.5,0.1-1,0.3-1.6,0.3c-0.9,0-1.6-0.2-2.1-0.7s-0.7-1-0.7-1.7
		c0-0.4,0.1-0.8,0.3-1.1c0.2-0.3,0.4-0.6,0.7-0.8c0.3-0.2,0.6-0.4,1-0.5c0.3-0.1,0.7-0.1,1.3-0.2c1.1-0.1,2-0.3,2.5-0.5
		c0-0.2,0-0.3,0-0.4c0-0.6-0.1-1-0.4-1.2c-0.4-0.3-0.9-0.5-1.6-0.5c-0.7,0-1.1,0.1-1.5,0.3c-0.4,0.2-0.5,0.6-0.7,1.2l-1.4-0.2
		c0.1-0.6,0.3-1.1,0.6-1.4s0.7-0.6,1.2-0.8c0.5-0.2,1.2-0.3,1.9-0.3s1.3,0.1,1.7,0.3c0.4,0.2,0.8,0.4,1,0.6s0.4,0.6,0.4,1
		c0,0.2,0.1,0.7,0.1,1.3v1.9c0,1.3,0,2.1,0.1,2.5c0.1,0.4,0.2,0.7,0.4,1h-1.5C503.2,292.8,503.1,292.5,503.1,292z M503,288.8
		c-0.5,0.2-1.3,0.4-2.3,0.5c-0.6,0.1-1,0.2-1.2,0.3s-0.4,0.3-0.6,0.5s-0.2,0.4-0.2,0.7c0,0.4,0.1,0.7,0.4,0.9
		c0.3,0.2,0.7,0.4,1.2,0.4s1-0.1,1.4-0.4s0.7-0.6,0.9-1c0.2-0.3,0.2-0.8,0.2-1.4v-0.5H503z"/>
	<path class="st4" d="M507.2,284.8h6.5v8.3h-1.4v-7.1h-3.6v4.1c0,1,0,1.6-0.1,1.9s-0.2,0.6-0.5,0.8c-0.3,0.2-0.7,0.3-1.2,0.3
		c-0.3,0-0.7,0-1.1-0.1v-1.2h0.6c0.3,0,0.5,0,0.6-0.1c0.1-0.1,0.2-0.2,0.3-0.3s0.1-0.6,0.1-1.3v-5.3H507.2z"/>
</g>
<g class="st3">
	<path class="st4" d="M572.6,263.5h1.5v5c0.7,0,1.2-0.1,1.5-0.4c0.3-0.3,0.6-0.9,1.1-1.9c0.3-0.8,0.6-1.3,0.8-1.6
		c0.2-0.3,0.5-0.6,0.9-0.8s0.8-0.3,1.3-0.3c0.6,0,0.9,0,0.9,0v1.3c-0.1,0-0.2,0-0.3,0c-0.2,0-0.3,0-0.3,0c-0.5,0-0.8,0.1-1.1,0.4
		c-0.2,0.2-0.5,0.7-0.8,1.5c-0.4,1-0.7,1.6-1,1.8c-0.3,0.2-0.6,0.5-1,0.6c0.7,0.2,1.5,0.9,2.2,2l2.4,3.8h-1.9l-1.9-3.1
		c-0.5-0.9-1-1.4-1.3-1.8c-0.3-0.4-0.8-0.5-1.4-0.5v5.4h-1.5v-11.4H572.6z"/>
	<path class="st4" d="M581.2,270.8c0-1.5,0.4-2.7,1.3-3.4c0.7-0.6,1.6-0.9,2.6-0.9c1.1,0,2.1,0.4,2.8,1.1c0.7,0.7,1.1,1.8,1.1,3.1
		c0,1.1-0.2,1.9-0.5,2.5c-0.3,0.6-0.8,1.1-1.4,1.4c-0.6,0.3-1.3,0.5-2,0.5c-1.2,0-2.1-0.4-2.8-1.1
		C581.6,273.3,581.2,272.1,581.2,270.8z M582.6,270.8c0,1.1,0.2,1.9,0.7,2.4s1,0.8,1.8,0.8c0.7,0,1.3-0.3,1.7-0.8s0.7-1.3,0.7-2.4
		c0-1-0.2-1.8-0.7-2.3s-1-0.8-1.7-0.8c-0.7,0-1.3,0.3-1.8,0.8S582.6,269.8,582.6,270.8z"/>
	<path class="st4" d="M590.7,266.6h2.2l2.2,6.6l2.4-6.6h2v8.3h-1.4v-6.7l-2.5,6.7h-1.3l-2.3-7v7h-1.4L590.7,266.6L590.7,266.6z"/>
	<path class="st4" d="M601.7,266.6h2.2l2.2,6.6l2.4-6.6h2v8.3h-1.4v-6.7l-2.5,6.7h-1.3l-2.3-7v7h-1.4L601.7,266.6L601.7,266.6z"/>
	<path class="st4" d="M618.3,272.3l1.5,0.2c-0.2,0.8-0.7,1.5-1.3,2s-1.4,0.7-2.4,0.7c-1.2,0-2.2-0.4-2.9-1.1
		c-0.7-0.7-1.1-1.8-1.1-3.1c0-1.4,0.4-2.5,1.1-3.3s1.7-1.2,2.8-1.2s2,0.4,2.7,1.1c0.7,0.7,1.1,1.8,1.1,3.2c0,0.1,0,0.2,0,0.4h-6.2
		c0.1,0.9,0.3,1.6,0.8,2.1s1,0.7,1.7,0.7c0.5,0,1-0.1,1.3-0.4C617.7,273.3,618.1,272.9,618.3,272.3z M613.7,270h4.6
		c-0.1-0.7-0.2-1.2-0.5-1.6c-0.4-0.5-1-0.8-1.7-0.8c-0.6,0-1.2,0.2-1.6,0.6C614.1,268.6,613.7,269.3,613.7,270z"/>
	<path class="st4" d="M621.5,278v-11.5h1.3v1.1c0.3-0.4,0.6-0.7,1-0.9s0.8-0.3,1.4-0.3c0.7,0,1.3,0.2,1.9,0.5c0.6,0.3,1,0.9,1.2,1.5
		c0.2,0.6,0.4,1.4,0.4,2.2c0,0.8-0.2,1.6-0.5,2.3c-0.3,0.7-0.7,1.2-1.3,1.6s-1.2,0.5-1.8,0.5c-0.5,0-0.9-0.1-1.3-0.3
		c-0.4-0.2-0.7-0.4-0.9-0.8v4L621.5,278L621.5,278z M622.8,270.9c0,1.1,0.2,1.9,0.6,2.4c0.4,0.5,1,0.8,1.6,0.8s1.2-0.3,1.6-0.8
		c0.4-0.5,0.7-1.3,0.7-2.5c0-1.1-0.2-1.8-0.7-2.4s-1-0.8-1.6-0.8s-1.1,0.3-1.6,0.8S622.8,269.8,622.8,270.9z"/>
	<path class="st4" d="M629.5,266.6h1.4v1.6c0,0.7,0,1.2,0.1,1.5s0.3,0.6,0.6,0.8c0.3,0.2,0.7,0.3,1.2,0.3s1.2-0.1,2.1-0.4v-3.8h1.4
		v8.3h-1.4v-3.3c-0.9,0.3-1.7,0.4-2.4,0.4c-0.6,0-1.2-0.2-1.7-0.5s-0.8-0.7-1-1.2c-0.2-0.5-0.3-1-0.3-1.5L629.5,266.6L629.5,266.6z"
		/>
	<path class="st4" d="M644.1,272.3l1.5,0.2c-0.2,0.8-0.7,1.5-1.3,2s-1.4,0.7-2.4,0.7c-1.2,0-2.2-0.4-2.9-1.1
		c-0.7-0.7-1.1-1.8-1.1-3.1c0-1.4,0.4-2.5,1.1-3.3s1.7-1.2,2.8-1.2s2,0.4,2.7,1.1c0.7,0.7,1.1,1.8,1.1,3.2c0,0.1,0,0.2,0,0.4h-6.2
		c0.1,0.9,0.3,1.6,0.8,2.1s1,0.7,1.7,0.7c0.5,0,1-0.1,1.3-0.4C643.5,273.3,643.9,272.9,644.1,272.3z M639.5,270h4.6
		c-0.1-0.7-0.2-1.2-0.5-1.6c-0.4-0.5-1-0.8-1.7-0.8c-0.6,0-1.2,0.2-1.6,0.6C639.9,268.6,639.5,269.3,639.5,270z"/>
	<path class="st4" d="M652.7,271.9l1.4,0.2c-0.2,1-0.5,1.7-1.2,2.2c-0.7,0.5-1.4,0.8-2.3,0.8c-1.1,0-2-0.4-2.7-1.1
		c-0.7-0.7-1-1.8-1-3.2c0-0.9,0.1-1.7,0.4-2.4s0.7-1.2,1.4-1.5c0.7-0.3,1.3-0.5,2-0.5c0.9,0,1.6,0.2,2.2,0.7
		c0.6,0.5,0.9,1.1,1.1,1.9l-1.4,0.2c-0.1-0.6-0.4-1-0.7-1.3c-0.3-0.3-0.7-0.4-1.2-0.4c-0.7,0-1.3,0.3-1.7,0.8s-0.7,1.3-0.7,2.4
		s0.2,1.9,0.6,2.4c0.4,0.5,1,0.8,1.7,0.8c0.6,0,1-0.2,1.4-0.5S652.6,272.5,652.7,271.9z"/>
	<path class="st4" d="M655.3,266.6h1.4v3.6c0.4,0,0.8-0.1,0.9-0.3c0.1-0.2,0.4-0.7,0.8-1.5c0.3-0.7,0.5-1.1,0.7-1.3
		c0.2-0.2,0.4-0.3,0.6-0.4s0.6-0.1,1.1-0.1h0.3v1.2h-0.4c-0.4,0-0.6,0.1-0.7,0.2c-0.1,0.1-0.3,0.5-0.5,1c-0.2,0.5-0.4,0.9-0.6,1.1
		s-0.5,0.4-0.8,0.6c0.6,0.2,1.2,0.7,1.8,1.7l1.5,2.6h-1.5l-1.5-2.6c-0.3-0.5-0.6-0.9-0.8-1c-0.2-0.1-0.5-0.2-0.8-0.2v3.8h-1.4
		L655.3,266.6L655.3,266.6z"/>
	<path class="st4" d="M668.1,273.9c-0.5,0.4-1,0.8-1.5,0.9s-1,0.3-1.6,0.3c-0.9,0-1.6-0.2-2.1-0.7s-0.7-1-0.7-1.7
		c0-0.4,0.1-0.8,0.3-1.1c0.2-0.3,0.4-0.6,0.7-0.8c0.3-0.2,0.6-0.4,1-0.5c0.3-0.1,0.7-0.1,1.3-0.2c1.1-0.1,2-0.3,2.5-0.5
		c0-0.2,0-0.3,0-0.4c0-0.6-0.1-1-0.4-1.2c-0.4-0.3-0.9-0.5-1.6-0.5s-1.1,0.1-1.5,0.3s-0.5,0.6-0.7,1.2l-1.4-0.2
		c0.1-0.6,0.3-1.1,0.6-1.4c0.3-0.3,0.7-0.6,1.2-0.8s1.2-0.3,1.9-0.3c0.7,0,1.3,0.1,1.7,0.3s0.8,0.4,1,0.6c0.2,0.2,0.4,0.6,0.4,1
		c0,0.2,0.1,0.7,0.1,1.3v1.9c0,1.3,0,2.1,0.1,2.5s0.2,0.7,0.4,1h-1.5C668.2,274.6,668.1,274.3,668.1,273.9z M667.9,270.8
		c-0.5,0.2-1.3,0.4-2.3,0.5c-0.6,0.1-1,0.2-1.2,0.3c-0.2,0.1-0.4,0.3-0.6,0.5s-0.2,0.4-0.2,0.7c0,0.4,0.1,0.7,0.4,0.9
		s0.7,0.4,1.2,0.4s1-0.1,1.4-0.4s0.7-0.6,0.9-1c0.2-0.3,0.2-0.8,0.2-1.4v-0.5H667.9z"/>
	<path class="st4" d="M678.1,266.6v8.3h-1.4v-3.2h-0.8c-0.5,0-0.9,0.1-1.1,0.2s-0.6,0.5-1.1,1.2l-1.2,1.8h-1.7l1.5-2.2
		c0.5-0.7,0.9-1.1,1.4-1.2c-0.8-0.1-1.4-0.4-1.8-0.9c-0.4-0.5-0.6-1-0.6-1.6c0-0.7,0.3-1.3,0.8-1.8s1.2-0.7,2.2-0.7h3.8V266.6z
		 M676.7,267.8h-2c-0.8,0-1.4,0.1-1.6,0.4s-0.4,0.6-0.4,0.9c0,0.5,0.2,0.9,0.5,1.1c0.3,0.2,1,0.3,1.9,0.3h1.6V267.8z"/>
	<path class="st4" d="M572.4,285.9h1.4v3.5h3.9v-3.5h1.4v8.3h-1.4v-3.7h-3.9v3.7h-1.4V285.9z"/>
	<path class="st4" d="M586.9,291.5l1.5,0.2c-0.2,0.8-0.7,1.5-1.3,2s-1.4,0.7-2.4,0.7c-1.2,0-2.2-0.4-2.9-1.1
		c-0.7-0.7-1.1-1.8-1.1-3.1c0-1.4,0.4-2.5,1.1-3.3s1.7-1.2,2.8-1.2s2,0.4,2.7,1.1c0.7,0.7,1.1,1.8,1.1,3.2c0,0.1,0,0.2,0,0.4h-6.2
		c0.1,0.9,0.3,1.6,0.8,2.1s1,0.7,1.7,0.7c0.5,0,1-0.1,1.3-0.4C586.3,292.5,586.7,292,586.9,291.5z M582.3,289.1h4.6
		c-0.1-0.7-0.2-1.2-0.5-1.6c-0.4-0.5-1-0.8-1.7-0.8c-0.6,0-1.2,0.2-1.6,0.6C582.7,287.8,582.3,288.5,582.3,289.1z"/>
	<path class="st4" d="M590.9,285.9h5.8v7.1h0.9v3.5h-1.2v-2.4h-6.5v2.4h-1.2V293h0.7C590.5,291.6,590.9,289.3,590.9,285.9z
		 M592.1,287c-0.1,2.7-0.5,4.7-1.3,6h4.5v-6H592.1z"/>
	<path class="st4" d="M599.1,285.9h3.2c0.8,0,1.4,0.1,1.8,0.2c0.4,0.1,0.7,0.4,1,0.7c0.3,0.3,0.4,0.8,0.4,1.3c0,0.4-0.1,0.7-0.2,1
		c-0.1,0.3-0.4,0.5-0.7,0.7c0.4,0.1,0.7,0.4,1,0.7c0.3,0.3,0.4,0.8,0.4,1.3c-0.1,0.8-0.3,1.4-0.8,1.8s-1.3,0.6-2.2,0.6h-3.7v-8.3
		H599.1z M600.5,289.4h1.5c0.6,0,1,0,1.2-0.1c0.2-0.1,0.4-0.2,0.6-0.4s0.3-0.4,0.3-0.7c0-0.4-0.2-0.7-0.5-0.9
		c-0.3-0.2-0.8-0.3-1.6-0.3h-1.5V289.4z M600.5,293h1.9c0.8,0,1.3-0.1,1.6-0.3c0.3-0.2,0.5-0.5,0.5-1c0-0.3-0.1-0.5-0.3-0.7
		c-0.2-0.2-0.4-0.4-0.7-0.4c-0.3,0-0.7-0.1-1.3-0.1h-1.7V293z"/>
	<path class="st4" d="M607.6,285.9h1.4v6.3l3.9-6.3h1.5v8.3H613v-6.3l-3.9,6.3h-1.5V285.9z"/>
	<path class="st4" d="M621.6,285.9v3.6c0.4,0,0.8-0.1,0.9-0.3c0.1-0.2,0.4-0.7,0.8-1.5c0.3-0.8,0.6-1.3,0.9-1.5
		c0.3-0.2,0.7-0.3,1.2-0.3h0.5v1.2h-0.4c-0.4,0-0.6,0.1-0.7,0.2s-0.3,0.5-0.5,1c-0.2,0.5-0.4,0.9-0.6,1.1s-0.5,0.4-0.8,0.6
		c0.6,0.2,1.2,0.7,1.8,1.7l1.5,2.6h-1.5l-1.5-2.6c-0.3-0.5-0.6-0.9-0.8-1c-0.2-0.1-0.5-0.2-0.8-0.2v3.8h-1.4v-3.8
		c-0.3,0-0.6,0.1-0.8,0.2c-0.2,0.1-0.5,0.5-0.8,1l-1.5,2.6h-1.5l1.5-2.6c0.6-1,1.2-1.5,1.8-1.7c-0.4-0.2-0.7-0.4-0.9-0.6
		c-0.2-0.2-0.4-0.8-0.8-1.6c-0.1-0.3-0.2-0.5-0.4-0.5c-0.1-0.1-0.3-0.1-0.6-0.1c-0.1,0-0.2,0-0.4,0V286h0.2c0.5,0,0.9,0,1.1,0.1
		s0.4,0.2,0.6,0.4s0.4,0.6,0.7,1.3c0.3,0.8,0.6,1.3,0.8,1.5c0.2,0.2,0.5,0.3,0.9,0.3V286h1.5V285.9z"/>
	<path class="st4" d="M627.3,285.9h1.4v6.3l3.9-6.3h1.5v8.3h-1.4v-6.3l-3.9,6.3h-1.5V285.9z"/>
	<path class="st4" d="M636.2,285.9h2.2l2.2,6.6l2.4-6.6h2v8.3h-1.4v-6.7l-2.5,6.7h-1.3l-2.3-7v7h-1.3V285.9z"/>
	<path class="st4" d="M646.7,290c0-1.5,0.4-2.7,1.3-3.4c0.7-0.6,1.6-0.9,2.6-0.9c1.1,0,2.1,0.4,2.8,1.1c0.7,0.7,1.1,1.8,1.1,3.1
		c0,1.1-0.2,1.9-0.5,2.5c-0.3,0.6-0.8,1.1-1.4,1.4c-0.6,0.3-1.3,0.5-2,0.5c-1.2,0-2.1-0.4-2.8-1.1
		C647.1,292.5,646.7,291.4,646.7,290z M648.1,290c0,1.1,0.2,1.9,0.7,2.4s1,0.8,1.8,0.8c0.7,0,1.3-0.3,1.7-0.8s0.7-1.3,0.7-2.4
		c0-1-0.2-1.8-0.7-2.3s-1-0.8-1.7-0.8c-0.7,0-1.3,0.3-1.8,0.8S648.1,289,648.1,290z"/>
	<path class="st4" d="M661.5,291l1.4,0.2c-0.2,1-0.5,1.7-1.2,2.2c-0.7,0.5-1.4,0.8-2.3,0.8c-1.1,0-2-0.4-2.7-1.1
		c-0.7-0.7-1-1.8-1-3.2c0-0.9,0.1-1.7,0.4-2.4s0.7-1.2,1.4-1.5c0.7-0.3,1.3-0.5,2-0.5c0.9,0,1.6,0.2,2.2,0.7
		c0.6,0.5,0.9,1.1,1.1,1.9l-1.4,0.2c-0.1-0.6-0.4-1-0.7-1.3c-0.3-0.3-0.7-0.4-1.2-0.4c-0.7,0-1.3,0.3-1.7,0.8s-0.7,1.3-0.7,2.4
		s0.2,1.9,0.6,2.4c0.4,0.5,1,0.8,1.7,0.8c0.6,0,1-0.2,1.4-0.5S661.4,291.8,661.5,291z"/>
	<path class="st4" d="M663.3,285.9h6.7v1.2h-2.7v7.1h-1.4v-7.1h-2.7L663.3,285.9L663.3,285.9z"/>
	<path class="st4" d="M671.4,285.9h1.4v3.2h1.8c1.2,0,2.1,0.2,2.7,0.7c0.6,0.5,0.9,1.1,0.9,1.9c0,0.7-0.3,1.3-0.8,1.8
		s-1.4,0.7-2.5,0.7h-3.5V285.9L671.4,285.9z M672.8,293h1.5c0.9,0,1.5-0.1,1.9-0.3s0.6-0.6,0.6-1s-0.1-0.7-0.4-1s-0.9-0.4-1.9-0.4
		h-1.7V293L672.8,293z"/>
</g>
</svg>
