<?xml version="1.0" encoding="utf-8"?>
<!-- Generator: Adobe Illustrator 23.0.0, SVG Export Plug-In . SVG Version: 6.00 Build 0)  -->
<svg version="1.1" id="租金分红" xmlns="http://www.w3.org/2000/svg" xmlns:xlink="http://www.w3.org/1999/xlink" x="0px"
	 y="0px" viewBox="0 0 608 523" style="enable-background:new 0 0 608 523;" xml:space="preserve">
<style type="text/css">
	.st0{fill:none;stroke:#90A7AB;}
	.st1{fill:#9FE7DD;stroke:#34B9A1;stroke-width:2;}
	.st2{enable-background:new    ;}
	.st3{fill:#456E68;}
	.st4{fill:none;stroke:#456E68;stroke-width:1.5;stroke-miterlimit:10;}
</style>
<g id="组_29">
	<path id="形状_1" class="st0" d="M127.8,82.9h212.5l-4.8-5.5"/>
	<path id="形状_1_拷贝_6" class="st0" d="M342.1,103.1H129.8l4.8,5.5"/>
</g>
<g id="组_29_拷贝">
	<path id="形状_1-2" class="st0" d="M497.4,213v116l5.6-4.9"/>
	<path id="形状_1_拷贝_6-2" class="st0" d="M476.6,328.7V213l-5.6,4.9"/>
</g>
<path id="形状_1_拷贝_7" class="st0" d="M381,411H168.2l4.9-5.4"/>
<circle id="椭圆_6" class="st1" cx="482" cy="97" r="96"/>
<g class="st2">
	<path class="st3" d="M510.7,379h-10v10h10V379z M507.4,385.6h-3.3v-3.3h3.3V385.6z"/>
	<path class="st3" d="M524,379h-10v10h10V379z M520.7,385.6h-3.3v-3.3h3.3V385.6z"/>
	<path class="st3" d="M510.7,392.2h-10v10h10V392.2z M507.4,398.9h-3.3v-3.3h3.3V398.9z"/>
	<path class="st3" d="M524,392.2h-10v10h10V392.2z M520.7,398.9h-3.3v-3.3h3.3V398.9z"/>
	<path class="st3" d="M510.7,415.5v-10h-10v10H510.7z M504.1,408.8h3.3v3.3h-3.3V408.8z"/>
	<path class="st3" d="M524,405.5h-10v10h10V405.5z M520.7,412.2h-3.3v-3.3h3.3V412.2z"/>
	<path class="st3" d="M534,375.6v-3.3h-3.3v-6.6h-3.3V359h-29.9v6.6h-3.3v6.6h-3.3v3.3h3.3v43.2h-13.3v-19.9h3.3v-10h-3.3v-2.5
		l-23.3-16.1l-10,6.9V372h-10v12l-3.3,2.3v2.5H431v10h3.3V419c-1.9,0.7-3.3,2.5-3.3,4.7v3.3c0,2.7,2.2,5,5,5h32.4
		c-2.6,3.2-4.2,7.2-4.2,11.6c0,10.1,8.2,18.3,18.3,18.3s18.3-8.2,18.3-18.3c0-4.4-1.6-8.5-4.2-11.6H529c2.7,0,5-2.2,5-5v-3.3
		c0-2.2-1.4-4-3.3-4.7v-43.5h3.3V375.6z M500.8,362.3H524v3.3h-23.3L500.8,362.3L500.8,362.3z M497.5,369h29.9v3.3h-29.9L497.5,369
		L497.5,369z M441,375.4h3.3v4.1l-3.3,2.3V375.4z M437.7,388.1l19.9-13.8l19.9,13.8v0.8h-39.9v-0.8H437.7z M434.3,392.2h46.5v3.3
		h-46.5V392.2z M477.5,398.9v19.9h-13.3v-16.6H451v16.6h-13.3v-19.9H477.5z M460.9,418.8h-6.6v-13.3h6.6V418.8z M482.5,458.7
		c-8.2,0-14.9-6.7-14.9-14.9s6.7-14.9,14.9-14.9s14.9,6.7,14.9,14.9S490.8,458.7,482.5,458.7z M530.7,427.1c0,0.9-0.7,1.7-1.7,1.7
		h-36c-3-2.1-6.6-3.3-10.5-3.3s-7.5,1.2-10.5,3.3h-36c-0.9,0-1.7-0.7-1.7-1.7v-3.3c0-0.9,0.7-1.7,1.7-1.7h93c0.9,0,1.7,0.7,1.7,1.7
		V427.1z M527.4,418.8h-29.9v-43.2h29.9V418.8z"/>
</g>
<g>
	<path class="st3" d="M476.6,452.5v-1.8c1.9-0.6,2.9-1.8,2.9-3.7v-2.2H477V443h2.6v-3c0-1.5,0.4-2.8,1.4-3.7c1-1,2.2-1.5,3.6-1.5
		c1,0,1.9,0.1,2.8,0.6v2.1c-0.8-0.6-1.8-0.7-2.6-0.7c-1.9,0-2.9,1.2-2.9,3.6v2.8h3.9v1.8h-4v1.8c0,1.9-0.8,3.2-2.3,4.1h8.9v1.8
		h-11.7L476.6,452.5L476.6,452.5z"/>
</g>
<g class="st2">
	<g>
		<g>
			<path class="st3" d="M54.6,391H41.9c-0.9,0-1.6,0.7-1.6,1.6v6.3c0,0.9,0.7,1.6,1.6,1.6h12.7c0.9,0,1.6-0.7,1.6-1.6v-6.3
				C56.2,391.7,55.5,391,54.6,391z M46.7,397.3h-3.2v-3.2h3.2V397.3z M53,397.3h-3.2v-3.2H53V397.3z"/>
		</g>
	</g>
	<g>
		<g>
			<path class="st3" d="M54.6,403.7H41.9c-0.9,0-1.6,0.7-1.6,1.6v6.3c0,0.9,0.7,1.6,1.6,1.6h12.7c0.9,0,1.6-0.7,1.6-1.6v-6.3
				C56.2,404.4,55.5,403.7,54.6,403.7z M46.7,410h-3.2v-3.2h3.2V410z M53,410h-3.2v-3.2H53V410z"/>
		</g>
	</g>
	<g>
		<g>
			<path class="st3" d="M54.6,416.3H41.9c-0.9,0-1.6,0.7-1.6,1.6v6.3c0,0.9,0.7,1.6,1.6,1.6h12.7c0.9,0,1.6-0.7,1.6-1.6v-6.3
				C56.2,417,55.5,416.3,54.6,416.3z M46.7,422.7h-3.2v-3.2h3.2V422.7z M53,422.7h-3.2v-3.2H53V422.7z"/>
		</g>
	</g>
	<g>
		<g>
			<path class="st3" d="M111.6,391H98.9c-0.9,0-1.6,0.7-1.6,1.6v6.3c0,0.9,0.7,1.6,1.6,1.6h12.7c0.9,0,1.6-0.7,1.6-1.6v-6.3
				C113.2,391.7,112.5,391,111.6,391z M103.7,397.3h-3.2v-3.2h3.2V397.3z M110,397.3h-3.2v-3.2h3.2V397.3z"/>
		</g>
	</g>
	<g>
		<g>
			<path class="st3" d="M111.6,378.3H98.9c-0.9,0-1.6,0.7-1.6,1.6v6.3c0,0.9,0.7,1.6,1.6,1.6h12.7c0.9,0,1.6-0.7,1.6-1.6v-6.3
				C113.2,379,112.5,378.3,111.6,378.3z M103.7,384.7h-3.2v-3.2h3.2V384.7z M110,384.7h-3.2v-3.2h3.2V384.7z"/>
		</g>
	</g>
	<g>
		<g>
			<path class="st3" d="M73.6,397.3h-6.3c-0.9,0-1.6,0.7-1.6,1.6v6.3c0,0.9,0.7,1.6,1.6,1.6h6.3c0.9,0,1.6-0.7,1.6-1.6v-6.3
				C75.2,398,74.5,397.3,73.6,397.3z M72,403.7h-3.2v-3.2H72V403.7z"/>
		</g>
	</g>
	<g>
		<g>
			<path class="st3" d="M86.3,397.3H80c-0.9,0-1.6,0.7-1.6,1.6v6.3c0,0.9,0.7,1.6,1.6,1.6h6.3c0.9,0,1.6-0.7,1.6-1.6v-6.3
				C87.8,398,87.1,397.3,86.3,397.3z M84.7,403.7h-3.2v-3.2h3.2V403.7z"/>
		</g>
	</g>
	<g>
		<g>
			<path class="st3" d="M73.6,384.7h-6.3c-0.9,0-1.6,0.7-1.6,1.6v6.3c0,0.9,0.7,1.6,1.6,1.6h6.3c0.9,0,1.6-0.7,1.6-1.6v-6.3
				C75.2,385.4,74.5,384.7,73.6,384.7z M72,391h-3.2v-3.2H72V391z"/>
		</g>
	</g>
	<g>
		<g>
			<path class="st3" d="M86.3,384.7H80c-0.9,0-1.6,0.7-1.6,1.6v6.3c0,0.9,0.7,1.6,1.6,1.6h6.3c0.9,0,1.6-0.7,1.6-1.6v-6.3
				C87.8,385.4,87.1,384.7,86.3,384.7z M84.7,391h-3.2v-3.2h3.2V391z"/>
		</g>
	</g>
	<g>
		<g>
			<path class="st3" d="M73.6,372h-6.3c-0.9,0-1.6,0.7-1.6,1.6v6.3c0,0.9,0.7,1.6,1.6,1.6h6.3c0.9,0,1.6-0.7,1.6-1.6v-6.3
				C75.2,372.7,74.5,372,73.6,372z M72,378.3h-3.2v-3.2H72V378.3z"/>
		</g>
	</g>
	<g>
		<g>
			<path class="st3" d="M86.3,372H80c-0.9,0-1.6,0.7-1.6,1.6v6.3c0,0.9,0.7,1.6,1.6,1.6h6.3c0.9,0,1.6-0.7,1.6-1.6v-6.3
				C87.8,372.7,87.1,372,86.3,372z M84.7,378.3h-3.2v-3.2h3.2V378.3z"/>
		</g>
	</g>
	<g>
		<g>
			<path class="st3" d="M73.6,416.3h-6.3c-0.9,0-1.6,0.7-1.6,1.6v6.3c0,0.9,0.7,1.6,1.6,1.6h6.3c0.9,0,1.6-0.7,1.6-1.6v-6.3
				C75.2,417,74.5,416.3,73.6,416.3z M72,422.7h-3.2v-3.2H72V422.7z"/>
		</g>
	</g>
	<g>
		<g>
			<rect x="40.3" y="429" class="st3" width="3.2" height="3.2"/>
		</g>
	</g>
	<g>
		<g>
			<rect x="46.7" y="429" class="st3" width="3.2" height="3.2"/>
		</g>
	</g>
	<g>
		<g>
			<rect x="53" y="429" class="st3" width="3.2" height="3.2"/>
		</g>
	</g>
	<g>
		<g>
			<path class="st3" d="M127.4,410h-7.9v-36.4c0-0.9-0.7-1.6-1.6-1.6h-11.1v-2.5l1.7-1.7c1.4,1,3,1.6,4.7,1.6c2,0,4-0.8,5.6-2.3
				l0.3-0.3c0.6-0.6,0.6-1.6,0-2.2l-3.6-3.6l3.6-3.6l-2.2-2.2l-3.6,3.6l-5.2-5.2c-0.3-0.3-0.7-0.5-1.1-0.5c-0.6,0-1,0.3-1.3,0.6
				c-1.6,1.4-2.5,3.4-2.5,5.5s0.8,4.2,2.3,5.7l0.8,0.8l-2,2c-0.3,0.3-0.5,0.7-0.5,1.1v3.2h-9.5v-4.8c0-0.9-0.7-1.6-1.6-1.6H87l-9-12
				c-0.6-0.8-1.9-0.8-2.5,0l-9,12H61c-0.9,0-1.6,0.7-1.6,1.6v17.4h-9.5V372h-3.2v12.7H35.6c-0.9,0-1.6,0.7-1.6,1.6v60.2
				c0,0.9,0.7,1.6,1.6,1.6h25.3H72h12.7h1.6h9.5h25.3c4.4,0,7.9-3.6,7.9-7.9v-28.5C129,410.7,128.3,410,127.4,410z M59.3,444.8H37.2
				v-57h22.2v57H59.3z M106.9,356.9l8.7,8.7c-1.8,1.1-4.2,0.8-5.7-0.7l-2.2-2.2c-0.9-0.9-1.4-2.1-1.4-3.4
				C106.3,358.4,106.5,357.6,106.9,356.9z M76.8,357.2l6.3,8.4H70.4L76.8,357.2z M70.4,432.2v12.7h-7.9v-58.6v-17.4H91v4.8v28.5h3.2
				v-26.9h22.2V410h-3.2v-1.6c0-2.6-2.1-4.8-4.8-4.8h-9.5c-2.6,0-4.8,2.1-4.8,4.8v1.6H79.9c-0.9,0-1.6,0.7-1.6,1.6V429H65.7v3.2
				H70.4z M110,408.4v1.6H97.3v-1.6c0-0.9,0.7-1.6,1.6-1.6h9.5C109.3,406.8,110,407.5,110,408.4z M73.6,444.8v-12.7h4.8v7.9
				c0,1.8,0.6,3.4,1.6,4.8L73.6,444.8L73.6,444.8z M125.8,440.1c0,2.6-2.1,4.8-4.8,4.8H95.8h-9.5c-2.6,0-4.8-2.1-4.8-4.8v-15.9
				c1.3,1,3,1.6,4.8,1.6h1.6v4.8c0,0.9,0.7,1.6,1.6,1.6h6.3c0.9,0,1.6-0.7,1.6-1.6v-4.8H99h9.5h1.6v4.8c0,0.9,0.7,1.6,1.6,1.6h6.3
				c0.9,0,1.6-0.7,1.6-1.6v-4.8h1.6c1.8,0,3.4-0.6,4.8-1.6v15.9H125.8z M91,429v-3.2h3.2v3.2H91z M100.5,422.7v-3.2h6.3v3.2H100.5z
				 M113.2,429v-3.2h3.2v3.2H113.2z M125.8,417.9c0,2.6-2.1,4.8-4.8,4.8h-3.2h-6.3H110v-4.8c0-0.9-0.7-1.6-1.6-1.6h-9.5
				c-0.9,0-1.6,0.7-1.6,1.6v4.8h-1.6h-6.3h-3.2c-2.6,0-4.8-2.1-4.8-4.8v-4.8h44.3v4.8H125.8z"/>
		</g>
	</g>
	<g>
		<g>
			<rect x="119.5" y="438.5" class="st3" width="3.2" height="3.2"/>
		</g>
	</g>
	<g>
		<g>
			<rect x="113.2" y="438.5" class="st3" width="3.2" height="3.2"/>
		</g>
	</g>
	<g>
		<g>
			<rect x="106.8" y="438.5" class="st3" width="3.2" height="3.2"/>
		</g>
	</g>
</g>
<g>
	<circle class="st4" cx="56.1" cy="58.7" r="15.8"/>
	<line class="st4" x1="43.4" y1="83.4" x2="56.1" y2="97.9"/>
	<line class="st4" x1="68.4" y1="83.4" x2="56.1" y2="97.9"/>
	<line class="st4" x1="56.1" y1="112.3" x2="56.1" y2="97.9"/>
	<path class="st4" d="M89.9,104v3.4c0,3.1-2.5,5.6-5.6,5.6H27.7c-3.1,0-5.6-2.5-5.6-5.6V104"/>
	<path class="st4" d="M27.7,98.4"/>
	<path class="st4" d="M22.1,105.6C22.1,92.8,32.7,83,45.4,83h21.2c12.8,0,23.2,10.5,23.2,23.2l0,0"/>
</g>
<g class="st2">
	<path class="st3" d="M16.3,127.5H18v10.2l6.9-10.2h1.7v12.9H25v-10.2L18,140.4h-1.7V127.5z"/>
	<path class="st3" d="M29,131.1h1.6v3.9h4.4v-3.9h1.6v9.3h-1.6v-4.1h-4.4v4.1h-1.6C29.1,140.4,29.1,131.1,29,131.1z"/>
	<path class="st3" d="M39,131.1h3.6c0.9,0,1.6,0.1,2,0.2c0.4,0.1,0.8,0.4,1.1,0.8s0.5,0.9,0.5,1.4c0,0.4-0.1,0.8-0.3,1.2
		c-0.2,0.3-0.5,0.6-0.8,0.8c0.4,0.1,0.8,0.4,1.1,0.8c0.3,0.4,0.4,0.9,0.4,1.4c-0.1,0.9-0.4,1.5-0.9,2s-1.4,0.6-2.5,0.6H39
		C39,140.3,39,131.1,39,131.1z M40.7,135h1.7c0.7,0,1.1,0,1.4-0.1s0.5-0.2,0.7-0.4s0.3-0.5,0.3-0.8c0-0.5-0.2-0.8-0.5-1
		s-0.9-0.3-1.8-0.3h-1.7v2.6H40.7z M40.7,139.1h2.1c0.9,0,1.5-0.1,1.8-0.3s0.5-0.6,0.5-1.1c0-0.3-0.1-0.6-0.3-0.8
		c-0.2-0.3-0.4-0.4-0.8-0.5c-0.3-0.1-0.8-0.1-1.5-0.1h-1.9v2.8H40.7z"/>
	<path class="st3" d="M54.8,137.4l1.6,0.2c-0.3,1-0.7,1.7-1.4,2.2s-1.6,0.8-2.7,0.8c-1.4,0-2.4-0.4-3.2-1.3c-0.8-0.8-1.2-2-1.2-3.5
		c0-1.6,0.4-2.8,1.2-3.7s1.9-1.3,3.1-1.3c1.2,0,2.3,0.4,3.1,1.3s1.2,2,1.2,3.6c0,0.1,0,0.2,0,0.4h-7c0.1,1,0.3,1.8,0.9,2.4
		s1.2,0.8,2,0.8c0.6,0,1.1-0.2,1.5-0.5S54.5,138.1,54.8,137.4z M49.5,134.9h5.2c-0.1-0.8-0.3-1.4-0.6-1.8c-0.5-0.6-1.2-0.9-2-0.9
		c-0.7,0-1.3,0.2-1.8,0.7S49.7,134,49.5,134.9z"/>
	<path class="st3" d="M64.4,137l1.6,0.2c-0.2,1.1-0.6,1.9-1.3,2.5c-0.7,0.6-1.6,0.9-2.6,0.9c-1.3,0-2.3-0.4-3.1-1.3
		c-0.8-0.8-1.2-2-1.2-3.6c0-1,0.2-1.9,0.5-2.6s0.8-1.3,1.5-1.7s1.4-0.6,2.2-0.6c1,0,1.8,0.3,2.5,0.8c0.7,0.5,1.1,1.2,1.2,2.2
		l-1.5,0.2c-0.1-0.6-0.4-1.1-0.8-1.4s-0.8-0.5-1.3-0.5c-0.8,0-1.4,0.3-1.9,0.9c-0.5,0.6-0.7,1.5-0.7,2.7c0,1.3,0.2,2.2,0.7,2.7
		s1.1,0.9,1.9,0.9c0.6,0,1.1-0.2,1.6-0.6C64.2,138.3,64.3,137.8,64.4,137z"/>
	<path class="st3" d="M66.5,131.1h7.6v1.3h-3v8h-1.6v-8h-3V131.1z"/>
	<path class="st3" d="M74.8,135.8c0-1.7,0.5-3,1.4-3.8c0.8-0.7,1.8-1,2.9-1c1.3,0,2.3,0.4,3.1,1.3s1.2,2,1.2,3.5
		c0,1.2-0.2,2.1-0.5,2.8c-0.4,0.7-0.9,1.2-1.6,1.6s-1.4,0.6-2.3,0.6c-1.3,0-2.4-0.4-3.2-1.3S74.8,137.3,74.8,135.8z M76.4,135.8
		c0,1.2,0.3,2.1,0.8,2.7c0.5,0.6,1.2,0.9,2,0.9s1.4-0.3,2-0.9s0.8-1.5,0.8-2.7s-0.3-2-0.8-2.6s-1.2-0.9-2-0.9s-1.4,0.3-2,0.9
		S76.4,134.6,76.4,135.8z"/>
	<path class="st3" d="M85.4,144v-12.9h1.4v1.2c0.3-0.5,0.7-0.8,1.2-1.1c0.4-0.2,0.9-0.4,1.6-0.4c0.8,0,1.5,0.2,2.1,0.6
		s1.1,1,1.4,1.7s0.5,1.6,0.5,2.5c0,1-0.2,1.8-0.5,2.6s-0.8,1.4-1.5,1.8c-0.7,0.4-1.3,0.6-2.1,0.6c-0.5,0-1-0.1-1.4-0.3
		s-0.8-0.5-1-0.8v4.5L85.4,144L85.4,144z M86.8,135.8c0,1.2,0.2,2.1,0.7,2.7s1.1,0.9,1.8,0.9c0.7,0,1.3-0.3,1.8-0.9
		c0.5-0.6,0.8-1.5,0.8-2.8c0-1.2-0.2-2.1-0.7-2.7s-1.1-0.9-1.8-0.9c-0.7,0-1.3,0.3-1.8,0.9C87.1,133.7,86.8,134.6,86.8,135.8z"/>
	<path class="st3" d="M19.2,165.8c-0.9-1.1-1.6-2.4-2.2-3.9c-0.6-1.5-0.9-3-0.9-4.6c0-1.4,0.2-2.7,0.7-4c0.5-1.5,1.3-3,2.4-4.4h1.1
		c-0.7,1.2-1.2,2.1-1.4,2.6c-0.4,0.8-0.6,1.7-0.8,2.5c-0.3,1.1-0.4,2.2-0.4,3.3c0,2.8,0.9,5.6,2.6,8.4L19.2,165.8L19.2,165.8z"/>
	<path class="st3" d="M22.2,152.7h3.6c0.9,0,1.6,0.1,2,0.2c0.4,0.1,0.8,0.4,1.1,0.8c0.3,0.4,0.5,0.9,0.5,1.4c0,0.4-0.1,0.8-0.3,1.2
		c-0.2,0.3-0.5,0.6-0.8,0.8c0.4,0.1,0.8,0.4,1.1,0.8c0.3,0.4,0.4,0.9,0.4,1.4c-0.1,0.9-0.4,1.5-0.9,2s-1.4,0.6-2.5,0.6h-4.2
		C22.2,161.9,22.2,152.7,22.2,152.7z M23.8,156.6h1.7c0.7,0,1.1,0,1.4-0.1s0.5-0.2,0.7-0.4s0.3-0.5,0.3-0.8c0-0.5-0.2-0.8-0.5-1
		s-0.9-0.3-1.8-0.3h-1.7L23.8,156.6L23.8,156.6z M23.8,160.7h2.1c0.9,0,1.5-0.1,1.8-0.3s0.5-0.6,0.5-1.1c0-0.3-0.1-0.6-0.3-0.8
		c-0.2-0.3-0.4-0.4-0.8-0.5c-0.3-0.1-0.8-0.1-1.5-0.1h-1.9L23.8,160.7L23.8,160.7z"/>
	<path class="st3" d="M32,152.7h7.3v9.3h-1.6v-8h-4.2v4.6c0,1.1,0,1.8-0.1,2.1s-0.3,0.6-0.6,0.9s-0.8,0.4-1.4,0.4
		c-0.4,0-0.8,0-1.3-0.1v-1.3H31c0.3,0,0.6,0,0.7-0.1s0.2-0.2,0.3-0.3s0.1-0.6,0.1-1.4V152.7z"/>
	<path class="st3" d="M47.9,160.9c-0.6,0.5-1.1,0.8-1.7,1.1s-1.1,0.3-1.7,0.3c-1,0-1.8-0.3-2.4-0.8c-0.6-0.5-0.8-1.1-0.8-1.9
		c0-0.5,0.1-0.9,0.3-1.3c0.2-0.4,0.5-0.7,0.8-0.9s0.7-0.4,1.1-0.5c0.3-0.1,0.8-0.2,1.4-0.2c1.3-0.2,2.2-0.3,2.8-0.5
		c0-0.2,0-0.4,0-0.4c0-0.6-0.1-1.1-0.4-1.4c-0.4-0.4-1-0.5-1.8-0.5c-0.7,0-1.3,0.1-1.6,0.4s-0.6,0.7-0.8,1.4l-1.5-0.2
		c0.1-0.7,0.4-1.2,0.7-1.6c0.3-0.4,0.8-0.7,1.4-0.9c0.6-0.2,1.3-0.3,2.1-0.3s1.4,0.1,1.9,0.3s0.9,0.4,1.1,0.7
		c0.2,0.3,0.4,0.6,0.5,1.1c0.1,0.3,0.1,0.8,0.1,1.5v2.1c0,1.5,0,2.4,0.1,2.8c0.1,0.4,0.2,0.8,0.4,1.1h-1.7
		C48,161.7,48,161.3,47.9,160.9z M47.8,157.3c-0.6,0.2-1.4,0.4-2.6,0.6c-0.7,0.1-1.1,0.2-1.4,0.3s-0.5,0.3-0.6,0.5s-0.2,0.5-0.2,0.8
		c0,0.4,0.2,0.8,0.5,1.1s0.8,0.4,1.4,0.4c0.6,0,1.2-0.1,1.6-0.4s0.8-0.6,1-1.1c0.2-0.4,0.3-0.9,0.3-1.6V157.3z"/>
	<path class="st3" d="M53,152.7h6.5v8h1v3.9h-1.3V162H52v2.6h-1.3v-3.9h0.8C52.5,159.2,53,156.5,53,152.7z M54.4,154
		c-0.1,3-0.6,5.3-1.4,6.7h5V154H54.4z"/>
	<path class="st3" d="M68.6,159l1.6,0.2c-0.3,1-0.7,1.7-1.4,2.2s-1.6,0.8-2.7,0.8c-1.4,0-2.4-0.4-3.2-1.3c-0.8-0.8-1.2-2-1.2-3.5
		c0-1.6,0.4-2.8,1.2-3.7s1.9-1.3,3.1-1.3c1.2,0,2.3,0.4,3.1,1.3s1.2,2,1.2,3.6c0,0.1,0,0.2,0,0.4h-7c0.1,1,0.3,1.8,0.9,2.4
		c0.6,0.6,1.2,0.8,2,0.8c0.6,0,1.1-0.2,1.5-0.5S68.4,159.7,68.6,159z M63.5,156.5h5.2c-0.1-0.8-0.3-1.4-0.6-1.8
		c-0.5-0.6-1.2-0.9-2-0.9c-0.7,0-1.3,0.2-1.8,0.7C63.7,155,63.5,155.6,63.5,156.5z"/>
	<path class="st3" d="M72.4,152.7h7.3v9.3h-1.6v-8H74v4.6c0,1.1,0,1.8-0.1,2.1s-0.3,0.6-0.6,0.9s-0.8,0.4-1.4,0.4
		c-0.4,0-0.8,0-1.3-0.1v-1.3h0.7c0.3,0,0.6,0,0.7-0.1s0.2-0.2,0.3-0.3s0.1-0.6,0.1-1.4L72.4,152.7L72.4,152.7z"/>
	<path class="st3" d="M88.6,159l1.6,0.2c-0.3,1-0.7,1.7-1.4,2.2s-1.6,0.8-2.7,0.8c-1.4,0-2.4-0.4-3.2-1.3c-0.8-0.8-1.2-2-1.2-3.5
		c0-1.6,0.4-2.8,1.2-3.7s1.9-1.3,3.1-1.3s2.3,0.4,3.1,1.3s1.2,2,1.2,3.6c0,0.1,0,0.2,0,0.4h-7c0.1,1,0.3,1.8,0.9,2.4s1.2,0.8,2,0.8
		c0.6,0,1.1-0.2,1.5-0.5S88.3,159.7,88.6,159z M83.4,156.5h5.2c-0.1-0.8-0.3-1.4-0.6-1.8c-0.5-0.6-1.2-0.9-2-0.9
		c-0.7,0-1.3,0.2-1.8,0.7S83.4,155.6,83.4,156.5z"/>
	<path class="st3" d="M92.3,152.7h1.6v8h4.4v-8h1.6v8h1v3.9h-1.3V162h-7.3C92.2,162,92.2,152.7,92.3,152.7z"/>
	<path class="st3" d="M113.8,152.7h6.5v8h1v3.9h-1.3V162h-7.3v2.6h-1.3v-3.9h0.8C113.3,159.2,113.8,156.5,113.8,152.7z M115.1,154
		c-0.1,3-0.6,5.3-1.4,6.7h5V154H115.1z"/>
	<path class="st3" d="M129.4,159l1.6,0.2c-0.3,1-0.7,1.7-1.4,2.2s-1.6,0.8-2.7,0.8c-1.4,0-2.4-0.4-3.2-1.3c-0.8-0.8-1.2-2-1.2-3.5
		c0-1.6,0.4-2.8,1.2-3.7s1.9-1.3,3.1-1.3c1.2,0,2.3,0.4,3.1,1.3s1.2,2,1.2,3.6c0,0.1,0,0.2,0,0.4h-7c0.1,1,0.3,1.8,0.9,2.4
		s1.2,0.8,2,0.8c0.6,0,1.1-0.2,1.5-0.5S129.1,159.7,129.4,159z M124.3,156.5h5.2c-0.1-0.8-0.3-1.4-0.6-1.8c-0.5-0.6-1.2-0.9-2-0.9
		c-0.7,0-1.3,0.2-1.8,0.7S124.3,155.6,124.3,156.5z"/>
	<path class="st3" d="M133.1,152.7h1.6v3.9h4.4v-3.9h1.6v9.3h-1.6v-4.1h-4.4v4.1h-1.6V152.7z"/>
	<path class="st3" d="M149.3,159l1.6,0.2c-0.3,1-0.7,1.7-1.4,2.2s-1.6,0.8-2.7,0.8c-1.4,0-2.4-0.4-3.2-1.3c-0.8-0.8-1.2-2-1.2-3.5
		c0-1.6,0.4-2.8,1.2-3.7s1.9-1.3,3.1-1.3c1.2,0,2.3,0.4,3.1,1.3s1.2,2,1.2,3.6c0,0.1,0,0.2,0,0.4h-7c0.1,1,0.3,1.8,0.9,2.4
		s1.2,0.8,2,0.8c0.6,0,1.1-0.2,1.5-0.5S149.1,159.7,149.3,159z M144.1,156.5h5.2c-0.1-0.8-0.3-1.4-0.6-1.8c-0.5-0.6-1.2-0.9-2-0.9
		c-0.7,0-1.3,0.2-1.8,0.7S144.3,155.6,144.1,156.5z"/>
	<path class="st3" d="M153.1,152.7h5.4v1.3h-3.8v8H153L153.1,152.7L153.1,152.7z"/>
	<path class="st3" d="M160.6,165.8h-1.1c1.8-2.8,2.6-5.6,2.6-8.4c0-1.1-0.1-2.2-0.4-3.3c-0.2-0.9-0.5-1.7-0.8-2.5
		c-0.2-0.5-0.7-1.4-1.4-2.6h1.1c1.1,1.5,1.9,2.9,2.4,4.4c0.5,1.3,0.7,2.6,0.7,4c0,1.6-0.3,3.1-0.9,4.6S161.4,164.7,160.6,165.8z"/>
</g>
<g class="st2">
	<path class="st3" d="M218.8,480.1v-12.9h1.7v5.3h6.7v-5.3h1.7v12.9h-1.7V474h-6.7v6.1H218.8z"/>
	<path class="st3" d="M231,475.4c0-1.7,0.5-3,1.4-3.8c0.8-0.7,1.8-1,2.9-1c1.3,0,2.3,0.4,3.1,1.3s1.2,2,1.2,3.5
		c0,1.2-0.2,2.1-0.5,2.8c-0.4,0.7-0.9,1.2-1.6,1.6c-0.7,0.4-1.4,0.6-2.3,0.6c-1.3,0-2.4-0.4-3.2-1.3S231,477,231,475.4z
		 M232.6,475.4c0,1.2,0.3,2.1,0.8,2.7c0.5,0.6,1.2,0.9,2,0.9s1.4-0.3,2-0.9c0.5-0.6,0.8-1.5,0.8-2.7s-0.3-2-0.8-2.6s-1.2-0.9-2-0.9
		s-1.4,0.3-2,0.9S232.6,474.2,232.6,475.4z"/>
	<path class="st3" d="M247.7,480.1v-1.4c-0.7,1.1-1.7,1.6-3,1.6c-0.6,0-1.1-0.1-1.5-0.3c-0.4-0.2-0.8-0.5-1.1-0.8s-0.4-0.7-0.5-1.2
		c-0.1-0.3-0.1-0.8-0.1-1.5v-5.8h1.6v5.2c0,0.8,0,1.4,0.1,1.7c0.1,0.4,0.3,0.7,0.6,1c0.3,0.2,0.7,0.4,1.2,0.4s0.9-0.1,1.3-0.4
		s0.7-0.6,0.9-1s0.3-1,0.3-1.8v-5h1.6v9.3H247.7z"/>
	<path class="st3" d="M251,477.3l1.6-0.2c0.1,0.6,0.3,1.1,0.7,1.4s1,0.5,1.7,0.5s1.3-0.1,1.6-0.4s0.5-0.6,0.5-1s-0.2-0.6-0.5-0.8
		c-0.2-0.1-0.8-0.3-1.6-0.5c-1.2-0.3-2-0.5-2.4-0.8s-0.8-0.5-1-0.9s-0.3-0.8-0.3-1.3c0-0.4,0.1-0.8,0.3-1.2s0.5-0.6,0.8-0.9
		c0.2-0.2,0.6-0.3,1-0.5s0.9-0.2,1.4-0.2c0.7,0,1.4,0.1,1.9,0.3s1,0.5,1.2,0.9c0.3,0.4,0.4,0.8,0.5,1.4l-1.5,0.2
		c-0.1-0.5-0.3-0.9-0.6-1.1s-0.8-0.4-1.4-0.4c-0.7,0-1.2,0.1-1.6,0.4s-0.5,0.5-0.5,0.8c0,0.2,0.1,0.4,0.2,0.6
		c0.1,0.2,0.3,0.3,0.6,0.4c0.2,0.1,0.6,0.2,1.4,0.4c1.1,0.3,1.9,0.5,2.3,0.7c0.4,0.2,0.8,0.5,1,0.8s0.4,0.8,0.4,1.4
		c0,0.5-0.2,1-0.5,1.5s-0.8,0.8-1.3,1.1c-0.6,0.3-1.2,0.4-2,0.4c-1.2,0-2.1-0.3-2.8-0.8S251.2,478.3,251,477.3z"/>
	<path class="st3" d="M267,477.1l1.6,0.2c-0.3,1-0.7,1.7-1.4,2.2s-1.6,0.8-2.7,0.8c-1.4,0-2.4-0.4-3.2-1.3c-0.8-0.8-1.2-2-1.2-3.5
		c0-1.6,0.4-2.8,1.2-3.7c0.8-0.9,1.9-1.3,3.1-1.3c1.2,0,2.3,0.4,3.1,1.3c0.8,0.9,1.2,2,1.2,3.6c0,0.1,0,0.2,0,0.4h-7
		c0.1,1,0.3,1.8,0.9,2.4c0.6,0.6,1.2,0.8,2,0.8c0.6,0,1.1-0.2,1.5-0.5S266.8,477.8,267,477.1z M261.8,474.5h5.2
		c-0.1-0.8-0.3-1.4-0.6-1.8c-0.5-0.6-1.2-0.9-2-0.9c-0.7,0-1.3,0.2-1.8,0.7S261.9,473.7,261.8,474.5z"/>
	<path class="st3" d="M274.1,480.1v-11.4h-4.2v-1.5h10.2v1.5h-4.3v11.4H274.1z"/>
	<path class="st3" d="M279,475.4c0-1.7,0.5-3,1.4-3.8c0.8-0.7,1.8-1,2.9-1c1.3,0,2.3,0.4,3.1,1.3s1.2,2,1.2,3.5
		c0,1.2-0.2,2.1-0.5,2.8c-0.4,0.7-0.9,1.2-1.6,1.6c-0.7,0.4-1.4,0.6-2.3,0.6c-1.3,0-2.4-0.4-3.2-1.3S279,477,279,475.4z
		 M280.7,475.4c0,1.2,0.3,2.1,0.8,2.7c0.5,0.6,1.2,0.9,2,0.9s1.4-0.3,2-0.9c0.6-0.6,0.8-1.5,0.8-2.7s-0.3-2-0.8-2.6s-1.2-0.9-2-0.9
		s-1.4,0.3-2,0.9S280.7,474.2,280.7,475.4z"/>
	<path class="st3" d="M289.6,480.1v-12.9h1.6v7.3l3.7-3.8h2l-3.6,3.5l3.9,5.9h-2l-3.1-4.8l-1.1,1.1v3.7H289.6z"/>
	<path class="st3" d="M305,477.1l1.6,0.2c-0.3,1-0.7,1.7-1.4,2.2s-1.6,0.8-2.7,0.8c-1.4,0-2.4-0.4-3.2-1.3c-0.8-0.8-1.2-2-1.2-3.5
		c0-1.6,0.4-2.8,1.2-3.7c0.8-0.9,1.9-1.3,3.1-1.3c1.2,0,2.3,0.4,3.1,1.3c0.8,0.9,1.2,2,1.2,3.6c0,0.1,0,0.2,0,0.4h-7
		c0.1,1,0.3,1.8,0.9,2.4c0.6,0.6,1.2,0.8,2,0.8c0.6,0,1.1-0.2,1.5-0.5S304.8,477.8,305,477.1z M299.8,474.5h5.2
		c-0.1-0.8-0.3-1.4-0.6-1.8c-0.5-0.6-1.2-0.9-2-0.9c-0.7,0-1.3,0.2-1.8,0.7S299.9,473.7,299.8,474.5z"/>
	<path class="st3" d="M308.6,480.1v-9.3h1.4v1.3c0.7-1,1.7-1.5,3-1.5c0.6,0,1.1,0.1,1.6,0.3c0.5,0.2,0.8,0.5,1.1,0.8
		s0.4,0.7,0.5,1.2c0.1,0.3,0.1,0.8,0.1,1.5v5.7h-1.6v-5.7c0-0.6-0.1-1.1-0.2-1.4s-0.3-0.6-0.7-0.8c-0.3-0.2-0.7-0.3-1.1-0.3
		c-0.7,0-1.3,0.2-1.7,0.6c-0.4,0.4-0.7,1.2-0.7,2.4v5.1h-1.7V480.1z"/>
	<path class="st3" d="M323.7,470.8h5.4v1.3h-3.8v8h-1.6L323.7,470.8L323.7,470.8z"/>
	<path class="st3" d="M330.6,470.8h7.3v9.3h-1.5v-8h-4.2v4.6c0,1.1,0,1.8-0.1,2.1s-0.3,0.6-0.6,0.9s-0.8,0.4-1.4,0.4
		c-0.4,0-0.8,0-1.3-0.1v-1.3h0.7c0.3,0,0.6,0,0.7-0.1c0.1-0.1,0.2-0.2,0.3-0.3s0.1-0.6,0.1-1.4V470.8z"/>
	<path class="st3" d="M339.9,475.4c0-1.7,0.5-3,1.4-3.8c0.8-0.7,1.8-1,2.9-1c1.3,0,2.3,0.4,3.1,1.3s1.2,2,1.2,3.5
		c0,1.2-0.2,2.1-0.5,2.8c-0.4,0.7-0.9,1.2-1.6,1.6c-0.7,0.4-1.4,0.6-2.3,0.6c-1.3,0-2.4-0.4-3.2-1.3S339.9,477,339.9,475.4z
		 M341.6,475.4c0,1.2,0.3,2.1,0.8,2.7c0.5,0.6,1.2,0.9,2,0.9s1.4-0.3,2-0.9c0.6-0.6,0.8-1.5,0.8-2.7s-0.3-2-0.8-2.6s-1.2-0.9-2-0.9
		s-1.4,0.3-2,0.9S341.6,474.2,341.6,475.4z"/>
	<path class="st3" d="M357.4,466.9h1.4c-0.1,0.6-0.2,1.1-0.4,1.3c-0.2,0.2-0.5,0.4-0.8,0.5c-0.3,0.1-1,0.1-2,0.1
		c-1.3,0-2.2,0.1-2.7,0.4s-0.8,0.7-1,1.2c-0.2,0.6-0.3,1.3-0.3,2.1c0.4-0.6,0.9-1,1.4-1.3c0.5-0.3,1.1-0.4,1.8-0.4
		c1.2,0,2.2,0.4,3,1.3s1.2,2,1.2,3.4c0,1.1-0.2,2-0.6,2.7c-0.4,0.7-0.9,1.2-1.4,1.6c-0.5,0.4-1.3,0.6-2.3,0.6c-1.1,0-2-0.3-2.6-0.8
		s-1.1-1.2-1.4-1.9s-0.5-2.2-0.5-4.1c0-2.5,0.4-4.1,1.3-5s2.1-1.3,3.9-1.3c1.1,0,1.7,0,1.8-0.1C357.3,467.1,357.3,467,357.4,466.9z
		 M357.3,475.4c0-1-0.2-1.8-0.7-2.4s-1.1-0.9-1.9-0.9c-0.9,0-1.5,0.3-2,1s-0.7,1.5-0.7,2.6s0.3,1.9,0.8,2.5s1.2,0.9,1.9,0.9
		c0.8,0,1.4-0.3,1.9-1S357.3,476.5,357.3,475.4z"/>
	<path class="st3" d="M366.5,478.9c-0.6,0.5-1.2,0.8-1.7,1.1s-1.1,0.3-1.7,0.3c-1,0-1.8-0.3-2.4-0.8c-0.6-0.5-0.8-1.1-0.8-1.9
		c0-0.5,0.1-0.9,0.3-1.3c0.2-0.4,0.5-0.7,0.8-0.9c0.3-0.2,0.7-0.4,1.1-0.5c0.3-0.1,0.8-0.2,1.4-0.2c1.3-0.2,2.2-0.3,2.8-0.5
		c0-0.2,0-0.4,0-0.4c0-0.6-0.1-1.1-0.4-1.4c-0.4-0.4-1-0.5-1.8-0.5c-0.7,0-1.3,0.1-1.6,0.4s-0.6,0.7-0.8,1.4l-1.5-0.2
		c0.1-0.7,0.4-1.2,0.7-1.6c0.3-0.4,0.8-0.7,1.4-0.9c0.6-0.2,1.3-0.3,2.1-0.3s1.4,0.1,1.9,0.3c0.5,0.2,0.9,0.4,1.1,0.7
		c0.2,0.3,0.4,0.6,0.5,1.1c0.1,0.3,0.1,0.8,0.1,1.5v2.1c0,1.5,0,2.4,0.1,2.8c0.1,0.4,0.2,0.8,0.4,1.1h-1.7
		C366.7,479.8,366.6,479.4,366.5,478.9z M366.4,475.4c-0.6,0.2-1.4,0.4-2.6,0.6c-0.7,0.1-1.1,0.2-1.4,0.3c-0.3,0.1-0.5,0.3-0.6,0.5
		c-0.1,0.2-0.2,0.5-0.2,0.8c0,0.4,0.2,0.8,0.5,1.1s0.8,0.4,1.4,0.4c0.6,0,1.2-0.1,1.6-0.4s0.8-0.6,1-1.1c0.2-0.4,0.3-0.9,0.3-1.6
		V475.4z"/>
	<path class="st3" d="M371.2,470.8h7.3v9.3h-1.6v-8h-4.2v4.6c0,1.1,0,1.8-0.1,2.1s-0.3,0.6-0.6,0.9s-0.8,0.4-1.4,0.4
		c-0.4,0-0.8,0-1.3-0.1v-1.3h0.7c0.3,0,0.6,0,0.7-0.1c0.1-0.1,0.2-0.2,0.3-0.3s0.1-0.6,0.1-1.4L371.2,470.8L371.2,470.8z"/>
	<path class="st3" d="M380.9,470.8h1.6v3.6h2c1.3,0,2.3,0.3,3,0.8s1.1,1.2,1.1,2.1c0,0.8-0.3,1.4-0.9,2c-0.6,0.6-1.5,0.8-2.8,0.8h-4
		L380.9,470.8L380.9,470.8z M382.5,478.8h1.7c1,0,1.7-0.1,2.1-0.4s0.6-0.6,0.6-1.2c0-0.4-0.2-0.8-0.5-1.1s-1-0.5-2.1-0.5h-1.9v3.2
		H382.5z"/>
	<path class="st3" d="M390.3,470.8h1.6v3.9h4.4v-3.9h1.6v9.3h-1.6V476h-4.4v4.1h-1.6V470.8z"/>
	<path class="st3" d="M400.3,470.8h1.6v3.6h2c1.3,0,2.3,0.3,3,0.8s1.1,1.2,1.1,2.1c0,0.8-0.3,1.4-0.9,2c-0.6,0.6-1.5,0.8-2.8,0.8h-4
		L400.3,470.8L400.3,470.8z M401.9,478.8h1.7c1,0,1.7-0.1,2.1-0.4s0.6-0.6,0.6-1.2c0-0.4-0.2-0.8-0.5-1.1s-1-0.5-2.1-0.5h-1.9v3.2
		H401.9z M409.2,470.8h1.6v9.3h-1.6V470.8z"/>
	<path class="st3" d="M413.2,470.8h1.6v7.1l4.4-7.1h1.7v9.3h-1.6V473l-4.4,7.1h-1.7V470.8z M418.7,467.2h1.1
		c-0.1,0.7-0.4,1.3-0.8,1.7s-1,0.6-1.8,0.6s-1.3-0.2-1.8-0.6c-0.4-0.4-0.7-1-0.8-1.7h1.1c0.1,0.4,0.2,0.7,0.5,0.9
		c0.3,0.2,0.6,0.3,1,0.3c0.5,0,0.8-0.1,1.1-0.3C418.5,467.9,418.6,467.6,418.7,467.2z"/>
	<path class="st3" d="M433.7,467.2h1.6v4.5c0.3-0.4,0.7-0.7,1.1-0.8c0.4-0.2,0.8-0.3,1.3-0.3c1.1,0,2,0.5,2.6,1.4
		c0.6,0.9,1,2.1,1,3.5c0,1.5-0.3,2.6-1,3.5c-0.7,0.9-1.6,1.3-2.6,1.3c-0.3,0-0.7-0.1-1-0.2c-0.3-0.1-0.8-0.4-1.3-0.9v4.4h-1.6v-4.4
		c-0.3,0.3-0.7,0.6-1.1,0.8s-0.8,0.3-1.2,0.3c-1,0-1.8-0.4-2.6-1.3s-1.1-2.1-1.1-3.7c0-1.4,0.3-2.5,1-3.4c0.7-0.9,1.6-1.4,2.7-1.4
		c0.5,0,0.9,0.1,1.3,0.3c0.4,0.2,0.7,0.5,1,0.8v-4.4H433.7z M429.3,475.3c0,1.3,0.2,2.3,0.7,2.8s1,0.9,1.6,0.9
		c0.7,0,1.2-0.3,1.5-0.9s0.5-1.4,0.5-2.6s-0.2-2.2-0.5-2.8c-0.3-0.6-0.9-0.9-1.6-0.9c-0.7,0-1.2,0.3-1.6,0.9
		C429.5,473.4,429.3,474.2,429.3,475.3z M435.3,475.5c0,1.4,0.2,2.4,0.6,2.8c0.4,0.5,0.9,0.7,1.5,0.7s1.2-0.3,1.6-0.9
		c0.5-0.6,0.7-1.5,0.7-2.8c0-1.2-0.2-2.1-0.6-2.6s-1-0.9-1.6-0.9c-0.7,0-1.2,0.3-1.6,0.9C435.5,473.3,435.3,474.3,435.3,475.5z"/>
	<path class="st3" d="M442.5,475.4c0-1.7,0.5-3,1.4-3.8c0.8-0.7,1.8-1,2.9-1c1.3,0,2.3,0.4,3.1,1.3s1.2,2,1.2,3.5
		c0,1.2-0.2,2.1-0.5,2.8c-0.4,0.7-0.9,1.2-1.6,1.6c-0.7,0.4-1.4,0.6-2.3,0.6c-1.3,0-2.4-0.4-3.2-1.3S442.5,477,442.5,475.4z
		 M444.1,475.4c0,1.2,0.3,2.1,0.8,2.7c0.5,0.6,1.2,0.9,2,0.9s1.4-0.3,2-0.9c0.6-0.6,0.8-1.5,0.8-2.7s-0.3-2-0.8-2.6s-1.2-0.9-2-0.9
		s-1.4,0.3-2,0.9S444.1,474.2,444.1,475.4z"/>
	<path class="st3" d="M453.1,470.8h1.6v3.9h4.4v-3.9h1.6v9.3h-1.6V476h-4.4v4.1h-1.6V470.8z"/>
	<path class="st3" d="M464.3,470.8h6.5v8h1v3.9h-1.3v-2.6h-7.3v2.6h-1.3v-3.9h0.8C463.8,477.3,464.3,474.6,464.3,470.8z
		 M465.6,472.1c-0.1,3-0.6,5.3-1.4,6.7h5v-6.7H465.6z"/>
	<path class="st3" d="M478.5,470.8h1.6v3.9h4.4v-3.9h1.6v9.3h-1.6V476h-4.4v4.1h-1.6V470.8z"/>
	<path class="st3" d="M494.9,477.1l1.6,0.2c-0.3,1-0.7,1.7-1.4,2.2s-1.6,0.8-2.7,0.8c-1.4,0-2.4-0.4-3.2-1.3c-0.8-0.8-1.2-2-1.2-3.5
		c0-1.6,0.4-2.8,1.2-3.7c0.8-0.9,1.9-1.3,3.1-1.3c1.2,0,2.3,0.4,3.1,1.3c0.8,0.9,1.2,2,1.2,3.6c0,0.1,0,0.2,0,0.4h-7
		c0.1,1,0.3,1.8,0.9,2.4c0.6,0.6,1.2,0.8,2,0.8c0.6,0,1.1-0.2,1.5-0.5S494.6,477.8,494.9,477.1z M489.7,474.5h5.2
		c-0.1-0.8-0.3-1.4-0.6-1.8c-0.5-0.6-1.2-0.9-2-0.9c-0.7,0-1.3,0.2-1.8,0.7S489.7,473.7,489.7,474.5z"/>
	<path class="st3" d="M499.3,470.8h6.5v8h1v3.9h-1.3v-2.6h-7.3v2.6h-1.3v-3.9h0.8C498.8,477.3,499.4,474.6,499.3,470.8z
		 M500.6,472.1c-0.1,3-0.6,5.3-1.4,6.7h5v-6.7H500.6z"/>
	<path class="st3" d="M508.6,470.8h3.6c0.9,0,1.6,0.1,2,0.2c0.4,0.1,0.8,0.4,1.1,0.8c0.3,0.4,0.5,0.9,0.5,1.4c0,0.4-0.1,0.8-0.3,1.2
		c-0.2,0.3-0.5,0.6-0.8,0.8c0.4,0.1,0.8,0.4,1.1,0.8c0.3,0.4,0.4,0.9,0.4,1.4c-0.1,0.9-0.4,1.5-0.9,2s-1.4,0.6-2.5,0.6h-4.2
		L508.6,470.8L508.6,470.8z M510.2,474.7h1.7c0.7,0,1.1,0,1.4-0.1c0.3-0.1,0.5-0.2,0.7-0.4c0.2-0.2,0.3-0.5,0.3-0.8
		c0-0.5-0.2-0.8-0.5-1c-0.3-0.2-0.9-0.3-1.8-0.3h-1.7v2.6H510.2z M510.2,478.8h2.1c0.9,0,1.5-0.1,1.8-0.3c0.3-0.2,0.5-0.6,0.5-1.1
		c0-0.3-0.1-0.6-0.3-0.8c-0.2-0.3-0.4-0.4-0.8-0.5c-0.3-0.1-0.8-0.1-1.5-0.1h-1.9v2.8H510.2z"/>
	<path class="st3" d="M518.1,470.8h1.6v7.1l4.4-7.1h1.7v9.3h-1.6V473l-4.4,7.1h-1.7V470.8z"/>
	<path class="st3" d="M533.8,470.8v4c0.5,0,0.9-0.1,1.1-0.3s0.5-0.8,0.9-1.7c0.4-0.9,0.7-1.5,1-1.7c0.3-0.2,0.7-0.4,1.4-0.4h0.6v1.3
		h-0.4c-0.4,0-0.7,0.1-0.8,0.2c-0.1,0.1-0.3,0.5-0.6,1.2c-0.2,0.6-0.5,1-0.7,1.3c-0.2,0.3-0.5,0.4-0.9,0.6c0.7,0.2,1.4,0.8,2,1.9
		l1.7,2.9h-1.7l-1.7-2.9c-0.3-0.6-0.6-1-0.9-1.2c-0.3-0.2-0.6-0.3-0.9-0.3v4.3h-1.6v-4.3c-0.4,0-0.7,0.1-0.9,0.3
		c-0.2,0.2-0.6,0.6-0.9,1.2l-1.7,2.9h-1.7l1.7-2.9c0.7-1.1,1.3-1.7,2-1.9c-0.5-0.2-0.8-0.5-1-0.7c-0.2-0.3-0.5-0.9-0.8-1.8
		c-0.1-0.3-0.3-0.5-0.4-0.6c-0.2-0.1-0.4-0.1-0.7-0.1c-0.1,0-0.2,0-0.5,0v-1.3h0.2c0.6,0,1,0,1.3,0.1c0.2,0.1,0.5,0.2,0.7,0.5
		c0.2,0.2,0.5,0.7,0.8,1.5c0.4,0.9,0.7,1.5,0.9,1.7c0.2,0.2,0.6,0.3,1.1,0.3v-4h1.4V470.8z"/>
	<path class="st3" d="M540.2,470.8h1.6v7.1l4.4-7.1h1.7v9.3h-1.6V473l-4.4,7.1h-1.7V470.8z"/>
	<path class="st3" d="M550.3,470.8h2.5l2.5,7.5l2.7-7.5h2.3v9.3h-1.6v-7.5l-2.8,7.5h-1.4l-2.6-7.9v7.9h-1.5L550.3,470.8L550.3,470.8
		z"/>
	<path class="st3" d="M562.1,475.4c0-1.7,0.5-3,1.4-3.8c0.8-0.7,1.8-1,2.9-1c1.3,0,2.3,0.4,3.1,1.3c0.8,0.9,1.2,2,1.2,3.5
		c0,1.2-0.2,2.1-0.5,2.8c-0.4,0.7-0.9,1.2-1.6,1.6c-0.7,0.4-1.4,0.6-2.3,0.6c-1.3,0-2.4-0.4-3.2-1.3
		C562.3,478.2,562.1,477,562.1,475.4z M563.7,475.4c0,1.2,0.3,2.1,0.8,2.7c0.5,0.6,1.2,0.9,2,0.9c0.8,0,1.4-0.3,2-0.9
		c0.6-0.6,0.8-1.5,0.8-2.7s-0.3-2-0.8-2.6s-1.2-0.9-2-0.9c-0.8,0-1.4,0.3-2,0.9S563.7,474.2,563.7,475.4z"/>
	<path class="st3" d="M578.8,476.7l1.6,0.2c-0.2,1.1-0.6,1.9-1.3,2.5c-0.7,0.6-1.6,0.9-2.6,0.9c-1.3,0-2.3-0.4-3.1-1.3
		c-0.8-0.8-1.2-2-1.2-3.6c0-1,0.2-1.9,0.5-2.6c0.3-0.7,0.8-1.3,1.5-1.7c0.7-0.4,1.4-0.6,2.2-0.6c1,0,1.8,0.3,2.5,0.8
		c0.7,0.5,1.1,1.2,1.2,2.2l-1.5,0.2c-0.1-0.6-0.4-1.1-0.8-1.4c-0.4-0.3-0.8-0.5-1.3-0.5c-0.8,0-1.4,0.3-1.9,0.9
		c-0.5,0.6-0.7,1.5-0.7,2.7c0,1.3,0.2,2.2,0.7,2.7s1.1,0.9,1.9,0.9c0.6,0,1.1-0.2,1.6-0.6C578.6,478,578.7,477.5,578.8,476.7z"/>
	<path class="st3" d="M580.8,470.8h7.6v1.3h-3v8h-1.6v-8h-3V470.8z"/>
	<path class="st3" d="M589.9,470.8h1.6v7.1l4.4-7.1h1.7v9.3H596V473l-4.4,7.1h-1.7V470.8z"/>
	<path class="st3" d="M310.3,505.5c-0.9-1.1-1.6-2.4-2.2-3.9s-0.9-3-0.9-4.6c0-1.4,0.2-2.7,0.7-4c0.5-1.5,1.3-3,2.4-4.4h1.1
		c-0.7,1.2-1.2,2.1-1.4,2.6c-0.4,0.8-0.6,1.7-0.8,2.5c-0.3,1.1-0.4,2.2-0.4,3.3c0,2.8,0.9,5.6,2.6,8.4L310.3,505.5L310.3,505.5z"/>
	<path class="st3" d="M318.7,488.8h1.6v4.5c0.3-0.4,0.7-0.7,1.1-0.8c0.4-0.2,0.8-0.3,1.3-0.3c1.1,0,2,0.5,2.6,1.4
		c0.6,0.9,1,2.1,1,3.5c0,1.5-0.3,2.6-1,3.5c-0.7,0.9-1.6,1.3-2.6,1.3c-0.3,0-0.7-0.1-1-0.2c-0.3-0.1-0.8-0.4-1.3-0.9v4.4h-1.6v-4.4
		c-0.3,0.3-0.7,0.6-1.1,0.8s-0.8,0.3-1.2,0.3c-1,0-1.8-0.4-2.6-1.3s-1.1-2.1-1.1-3.7c0-1.4,0.3-2.5,1-3.4c0.7-0.9,1.6-1.4,2.7-1.4
		c0.5,0,0.9,0.1,1.3,0.3c0.4,0.2,0.7,0.5,1,0.8v-4.4H318.7z M314.3,496.9c0,1.3,0.2,2.3,0.7,2.8s1,0.9,1.6,0.9
		c0.7,0,1.2-0.3,1.5-0.9c0.3-0.6,0.5-1.4,0.5-2.6c0-1.2-0.2-2.2-0.5-2.8s-0.9-0.9-1.6-0.9c-0.7,0-1.2,0.3-1.6,0.9
		C314.5,495,314.3,495.8,314.3,496.9z M320.2,497.1c0,1.4,0.2,2.4,0.6,2.8c0.4,0.5,0.9,0.7,1.5,0.7s1.2-0.3,1.6-0.9
		c0.5-0.6,0.7-1.5,0.7-2.8c0-1.2-0.2-2.1-0.6-2.6s-1-0.9-1.6-0.9c-0.7,0-1.2,0.3-1.6,0.9C320.4,494.9,320.2,495.9,320.2,497.1z"/>
	<path class="st3" d="M327.4,497c0-1.7,0.5-3,1.4-3.8c0.8-0.7,1.8-1,2.9-1c1.3,0,2.3,0.4,3.1,1.3s1.2,2,1.2,3.5
		c0,1.2-0.2,2.1-0.5,2.8c-0.4,0.7-0.9,1.2-1.6,1.6c-0.7,0.4-1.4,0.6-2.3,0.6c-1.3,0-2.4-0.4-3.2-1.3S327.4,498.6,327.4,497z
		 M329.1,497c0,1.2,0.3,2.1,0.8,2.7c0.5,0.6,1.2,0.9,2,0.9s1.4-0.3,2-0.9c0.6-0.6,0.8-1.5,0.8-2.7s-0.3-2-0.8-2.6s-1.2-0.9-2-0.9
		s-1.4,0.3-2,0.9S329.1,495.8,329.1,497z"/>
	<path class="st3" d="M338.1,492.4h1.6v3.9h4.4v-3.9h1.6v9.3h-1.6v-4.1h-4.4v4.1h-1.6V492.4z"/>
	<path class="st3" d="M349.2,492.4h6.5v8h1v3.9h-1.3v-2.6h-7.3v2.6h-1.3v-3.9h0.8C348.7,498.9,349.3,496.2,349.2,492.4z
		 M350.5,493.7c-0.1,3-0.6,5.3-1.4,6.7h5v-6.7H350.5z"/>
	<path class="st3" d="M361.3,501.7l4.9-12.9h1.8l5.3,12.9h-1.9l-1.5-3.9h-5.4l-1.4,3.9H361.3z M365,496.4h4.4l-1.3-3.6
		c-0.4-1.1-0.7-2-0.9-2.7c-0.2,0.8-0.4,1.6-0.7,2.5L365,496.4z"/>
	<path class="st3" d="M375,501.7v-12.9h1.7v12.9H375z"/>
	<path class="st3" d="M379.8,501.7v-12.9h8.7v1.5h-7v4h6v1.5h-6v5.9H379.8z"/>
	<path class="st3" d="M390.6,501.7v-12.9h2.6l3,9.1c0.3,0.8,0.5,1.5,0.6,1.9c0.1-0.5,0.4-1.2,0.7-2.1l3.1-9h2.3v12.9h-1.6v-10.8
		l-3.7,10.8h-1.5l-3.7-11v11h-1.8V501.7z"/>
	<path class="st3" d="M411.6,488.8h8.1v12.9H418v-11.4h-4.7v6.6c0,1.3-0.1,2.3-0.2,3c-0.1,0.7-0.4,1.1-0.8,1.5
		c-0.4,0.3-0.9,0.5-1.5,0.5c-0.4,0-0.8-0.1-1.4-0.2l0.3-1.5c0.3,0.1,0.5,0.2,0.7,0.2c0.4,0,0.7-0.1,0.9-0.4s0.3-1,0.3-2.1
		L411.6,488.8L411.6,488.8z"/>
	<path class="st3" d="M422.3,492.4h1.6v3.9h1.9c0.1-1.3,0.6-2.4,1.3-3.1s1.6-1.1,2.7-1.1c0.9,0,1.7,0.2,2.2,0.6s1,0.9,1.3,1.6
		s0.5,1.6,0.5,2.7c0,1.6-0.4,2.8-1.1,3.7s-1.7,1.2-3,1.2c-1.2,0-2.1-0.4-2.8-1.2s-1.1-1.8-1.2-3.2h-1.9v4.1h-1.6L422.3,492.4
		L422.3,492.4z M429.9,493.5c-0.8,0-1.4,0.3-1.8,0.9c-0.4,0.6-0.6,1.4-0.6,2.5c0,1.3,0.2,2.2,0.7,2.8c0.5,0.6,1,0.9,1.7,0.9
		s1.3-0.3,1.8-0.8c0.5-0.6,0.7-1.4,0.7-2.7c0-1.2-0.2-2.1-0.6-2.7S430.7,493.5,429.9,493.5z"/>
	<path class="st3" d="M435.8,492.4h1.6v4c0.5,0,0.9-0.1,1.1-0.3c0.2-0.2,0.5-0.8,0.9-1.7c0.3-0.7,0.6-1.2,0.8-1.5s0.4-0.4,0.7-0.5
		s0.7-0.1,1.2-0.1h0.3v1.3H442c-0.4,0-0.7,0.1-0.8,0.2c-0.1,0.1-0.3,0.5-0.6,1.2c-0.2,0.6-0.5,1-0.7,1.3s-0.5,0.4-0.9,0.6
		c0.7,0.2,1.3,0.8,2,1.9l1.7,2.9H441l-1.7-2.9c-0.3-0.6-0.6-1-0.9-1.1c-0.3-0.2-0.6-0.3-0.9-0.3v4.3h-1.6L435.8,492.4L435.8,492.4z"
		/>
	<path class="st3" d="M450,498.3l1.6,0.2c-0.2,1.1-0.6,1.9-1.3,2.5s-1.6,0.9-2.6,0.9c-1.3,0-2.3-0.4-3.1-1.3c-0.8-0.8-1.2-2-1.2-3.6
		c0-1,0.2-1.9,0.5-2.6s0.8-1.3,1.5-1.7s1.4-0.6,2.2-0.6c1,0,1.8,0.3,2.5,0.8s1.1,1.2,1.2,2.2l-1.5,0.2c-0.1-0.6-0.4-1.1-0.8-1.4
		s-0.8-0.5-1.3-0.5c-0.8,0-1.4,0.3-1.9,0.9c-0.5,0.6-0.7,1.5-0.7,2.7c0,1.3,0.2,2.2,0.7,2.7s1.1,0.9,1.9,0.9c0.6,0,1.1-0.2,1.6-0.6
		C449.8,499.6,449.9,499.1,450,498.3z"/>
	<path class="st3" d="M459.3,498.7l1.6,0.2c-0.3,1-0.7,1.7-1.4,2.2s-1.6,0.8-2.7,0.8c-1.4,0-2.4-0.4-3.2-1.3c-0.8-0.8-1.2-2-1.2-3.5
		c0-1.6,0.4-2.8,1.2-3.7s1.9-1.3,3.1-1.3c1.2,0,2.3,0.4,3.1,1.3s1.2,2,1.2,3.6c0,0.1,0,0.2,0,0.4h-7c0.1,1,0.3,1.8,0.9,2.4
		s1.2,0.8,2,0.8c0.6,0,1.1-0.2,1.5-0.5C458.8,499.8,459,499.4,459.3,498.7z M454.1,496.1h5.2c-0.1-0.8-0.3-1.4-0.6-1.8
		c-0.5-0.6-1.2-0.9-2-0.9c-0.7,0-1.3,0.2-1.8,0.7S454.1,495.3,454.1,496.1z"/>
	<path class="st3" d="M462.9,492.4h2.5l2.5,7.5l2.7-7.5h2.3v9.3h-1.6v-7.5l-2.8,7.5h-1.4l-2.6-7.9v7.9H463v-9.3H462.9z"/>
	<path class="st3" d="M481.9,488.5h1.4c-0.1,0.6-0.2,1.1-0.4,1.3c-0.2,0.2-0.5,0.4-0.8,0.5c-0.3,0.1-1,0.1-2,0.1
		c-1.3,0-2.2,0.1-2.7,0.4s-0.8,0.7-1,1.2c-0.2,0.6-0.3,1.3-0.3,2.1c0.4-0.6,0.9-1,1.4-1.3c0.5-0.3,1.1-0.4,1.8-0.4
		c1.2,0,2.2,0.4,3,1.3s1.2,2,1.2,3.4c0,1.1-0.2,2-0.6,2.7c-0.4,0.7-0.9,1.2-1.4,1.6c-0.5,0.4-1.3,0.6-2.3,0.6c-1.1,0-2-0.3-2.6-0.8
		s-1.1-1.2-1.4-1.9s-0.5-2.2-0.5-4.1c0-2.5,0.4-4.1,1.3-5s2.1-1.3,3.9-1.3c1.1,0,1.7,0,1.8-0.1C481.8,488.7,481.9,488.6,481.9,488.5
		z M481.8,497c0-1-0.2-1.8-0.7-2.4s-1.1-0.9-1.9-0.9c-0.9,0-1.5,0.3-2,1s-0.7,1.5-0.7,2.6s0.3,1.9,0.8,2.5s1.2,0.9,1.9,0.9
		c0.8,0,1.4-0.3,1.9-1S481.8,498.1,481.8,497z"/>
	<path class="st3" d="M484.9,505.3l-0.2-1.5c0.3,0.1,0.6,0.1,0.9,0.1c0.4,0,0.6-0.1,0.8-0.2s0.4-0.3,0.5-0.5s0.3-0.6,0.5-1.2
		c0-0.1,0.1-0.2,0.1-0.4l-3.5-9.4h1.7l1.9,5.4c0.3,0.7,0.5,1.4,0.7,2.2c0.2-0.7,0.4-1.4,0.7-2.1l2-5.4h1.6l-3.6,9.5
		c-0.4,1-0.7,1.7-0.9,2.1c-0.3,0.5-0.6,0.9-1,1.1c-0.4,0.2-0.8,0.4-1.3,0.4C485.6,505.5,485.3,505.4,484.9,505.3z"/>
	<path class="st3" d="M493.8,505.3v-12.9h1.4v1.2c0.3-0.5,0.7-0.8,1.2-1.1c0.4-0.2,0.9-0.4,1.6-0.4c0.8,0,1.5,0.2,2.1,0.6
		s1.1,1,1.4,1.7c0.3,0.7,0.5,1.6,0.5,2.5c0,1-0.2,1.8-0.5,2.6c-0.3,0.8-0.8,1.4-1.5,1.8s-1.3,0.6-2.1,0.6c-0.5,0-1-0.1-1.4-0.3
		c-0.4-0.2-0.8-0.5-1-0.8v4.5L493.8,505.3L493.8,505.3z M495.2,497.1c0,1.2,0.2,2.1,0.7,2.7c0.5,0.6,1.1,0.9,1.8,0.9
		s1.3-0.3,1.8-0.9c0.5-0.6,0.8-1.5,0.8-2.8c0-1.2-0.2-2.1-0.7-2.7c-0.5-0.6-1.1-0.9-1.8-0.9s-1.3,0.3-1.8,0.9
		C495.5,495,495.2,495.9,495.2,497.1z"/>
	<path class="st3" d="M503.8,492.4h5.4v1.3h-3.8v8h-1.6V492.4z"/>
	<path class="st3" d="M511.4,505.5h-1.1c1.8-2.8,2.6-5.6,2.6-8.4c0-1.1-0.1-2.2-0.4-3.3c-0.2-0.9-0.5-1.7-0.8-2.5
		c-0.2-0.5-0.7-1.4-1.4-2.6h1.1c1.1,1.5,1.9,2.9,2.4,4.4c0.5,1.3,0.7,2.6,0.7,4c0,1.6-0.3,3.1-0.9,4.6
		C513,503.2,512.3,504.4,511.4,505.5z"/>
</g>
<g class="st2">
	<path class="st3" d="M24.1,457.8h1.7v5.6c0.8,0,1.3-0.2,1.6-0.5c0.3-0.3,0.7-1,1.2-2.2c0.4-0.8,0.7-1.4,0.9-1.8s0.6-0.6,1-0.9
		c0.4-0.2,0.9-0.4,1.4-0.4c0.7,0,1,0,1,0v1.5c-0.1,0-0.2,0-0.3,0c-0.2,0-0.3,0-0.3,0c-0.5,0-0.9,0.1-1.2,0.4
		c-0.3,0.3-0.6,0.8-0.9,1.7c-0.4,1.1-0.8,1.8-1.1,2.1s-0.7,0.5-1.1,0.7c0.8,0.2,1.7,1,2.5,2.3l2.7,4.3h-2.1l-2.2-3.5
		c-0.6-1-1.1-1.6-1.5-2s-0.9-0.5-1.5-0.5v6h-1.7v-12.8H24.1z"/>
	<path class="st3" d="M40.5,469.6c-0.6,0.5-1.2,0.8-1.7,1.1c-0.5,0.3-1.1,0.3-1.7,0.3c-1,0-1.8-0.3-2.4-0.8
		c-0.6-0.5-0.8-1.1-0.8-1.9c0-0.5,0.1-0.9,0.3-1.3c0.2-0.4,0.5-0.7,0.8-0.9c0.3-0.2,0.7-0.4,1.1-0.5c0.3-0.1,0.8-0.2,1.4-0.2
		c1.3-0.2,2.2-0.3,2.8-0.5c0-0.2,0-0.4,0-0.4c0-0.6-0.1-1.1-0.4-1.4c-0.4-0.4-1-0.5-1.8-0.5c-0.7,0-1.3,0.1-1.6,0.4
		c-0.3,0.3-0.6,0.7-0.8,1.4l-1.5-0.2c0.1-0.7,0.4-1.2,0.7-1.6c0.3-0.4,0.8-0.7,1.4-0.9c0.6-0.2,1.3-0.3,2.1-0.3s1.4,0.1,1.9,0.3
		s0.9,0.4,1.1,0.7c0.2,0.3,0.4,0.6,0.5,1.1c0.1,0.3,0.1,0.8,0.1,1.5v2.1c0,1.5,0,2.4,0.1,2.8c0.1,0.4,0.2,0.8,0.4,1.1h-1.7
		C40.6,470.4,40.5,470,40.5,469.6z M40.4,466c-0.6,0.2-1.4,0.4-2.6,0.6c-0.7,0.1-1.1,0.2-1.4,0.3s-0.5,0.3-0.6,0.5
		c-0.1,0.2-0.2,0.5-0.2,0.8c0,0.4,0.2,0.8,0.5,1.1c0.3,0.3,0.8,0.4,1.4,0.4c0.6,0,1.2-0.1,1.6-0.4s0.8-0.6,1-1.1
		c0.2-0.4,0.3-0.9,0.3-1.6V466z"/>
	<path class="st3" d="M43.4,461.4H45v1.8c0,0.8,0,1.3,0.1,1.7c0.1,0.3,0.3,0.6,0.7,0.9c0.3,0.3,0.8,0.4,1.3,0.4
		c0.6,0,1.4-0.2,2.3-0.5v-4.2H51v9.3h-1.6V467c-1,0.3-1.9,0.5-2.7,0.5c-0.7,0-1.3-0.2-1.9-0.5c-0.5-0.4-0.9-0.8-1.1-1.3
		s-0.3-1.1-0.3-1.7L43.4,461.4L43.4,461.4z"/>
	<path class="st3" d="M59.8,467.7l1.6,0.2c-0.3,1-0.7,1.7-1.4,2.2s-1.6,0.8-2.7,0.8c-1.4,0-2.4-0.4-3.2-1.3c-0.8-0.8-1.2-2-1.2-3.5
		c0-1.6,0.4-2.8,1.2-3.7s1.9-1.3,3.1-1.3c1.2,0,2.3,0.4,3.1,1.3c0.8,0.9,1.2,2,1.2,3.6c0,0.1,0,0.2,0,0.4h-7c0.1,1,0.3,1.8,0.9,2.4
		c0.6,0.6,1.2,0.8,2,0.8c0.6,0,1.1-0.2,1.5-0.5C59.3,468.8,59.5,468.4,59.8,467.7z M54.6,465.2h5.2c-0.1-0.8-0.3-1.4-0.6-1.8
		c-0.5-0.6-1.2-0.9-2-0.9c-0.7,0-1.3,0.2-1.8,0.7S54.6,464.4,54.6,465.2z"/>
	<path class="st3" d="M69.5,467.3l1.6,0.2c-0.2,1.1-0.6,1.9-1.3,2.5s-1.6,0.9-2.6,0.9c-1.3,0-2.3-0.4-3.1-1.3
		c-0.8-0.8-1.2-2-1.2-3.6c0-1,0.2-1.9,0.5-2.6c0.3-0.7,0.8-1.3,1.5-1.7s1.4-0.6,2.2-0.6c1,0,1.8,0.3,2.5,0.8s1.1,1.2,1.2,2.2
		l-1.5,0.2c-0.1-0.6-0.4-1.1-0.8-1.4c-0.4-0.3-0.8-0.5-1.3-0.5c-0.8,0-1.4,0.3-1.9,0.9s-0.7,1.5-0.7,2.7c0,1.3,0.2,2.2,0.7,2.7
		s1.1,0.9,1.9,0.9c0.6,0,1.1-0.2,1.6-0.6C69.3,468.6,69.4,468.1,69.5,467.3z"/>
	<path class="st3" d="M71.6,461.4h7.6v1.3h-3v8h-1.6v-8h-3V461.4z"/>
	<path class="st3" d="M80.7,461.4h3.6c0.9,0,1.6,0.1,2,0.2c0.4,0.1,0.8,0.4,1.1,0.8s0.5,0.9,0.5,1.4c0,0.4-0.1,0.8-0.3,1.2
		c-0.2,0.3-0.5,0.6-0.8,0.8c0.4,0.1,0.8,0.4,1.1,0.8c0.3,0.4,0.4,0.9,0.4,1.4c-0.1,0.9-0.4,1.5-0.9,2s-1.4,0.6-2.5,0.6h-4.2
		L80.7,461.4L80.7,461.4z M82.2,465.3h1.7c0.7,0,1.1,0,1.4-0.1s0.5-0.2,0.7-0.4c0.2-0.2,0.3-0.5,0.3-0.8c0-0.5-0.2-0.8-0.5-1
		c-0.3-0.2-0.9-0.3-1.8-0.3h-1.7v2.6H82.2z M82.2,469.4h2.1c0.9,0,1.5-0.1,1.8-0.3c0.3-0.2,0.5-0.6,0.5-1.1c0-0.3-0.1-0.6-0.3-0.8
		c-0.2-0.3-0.4-0.4-0.8-0.5c-0.3-0.1-0.8-0.1-1.5-0.1h-1.9v2.8H82.2z"/>
	<path class="st3" d="M96.4,467.7l1.6,0.2c-0.3,1-0.7,1.7-1.4,2.2s-1.6,0.8-2.7,0.8c-1.4,0-2.4-0.4-3.2-1.3c-0.8-0.8-1.2-2-1.2-3.5
		c0-1.6,0.4-2.8,1.2-3.7s1.9-1.3,3.1-1.3c1.2,0,2.3,0.4,3.1,1.3c0.8,0.9,1.2,2,1.2,3.6c0,0.1,0,0.2,0,0.4h-7c0.1,1,0.3,1.8,0.9,2.4
		c0.6,0.6,1.2,0.8,2,0.8c0.6,0,1.1-0.2,1.5-0.5C95.9,468.8,96.2,468.4,96.4,467.7z M91.2,465.2h5.2c-0.1-0.8-0.3-1.4-0.6-1.8
		c-0.5-0.6-1.2-0.9-2-0.9c-0.7,0-1.3,0.2-1.8,0.7S91.3,464.4,91.2,465.2z"/>
	<path class="st3" d="M100,461.4h1.6v3.9h4.4v-3.9h1.6v9.3H106v-4.1h-4.4v4.1H100V461.4z"/>
	<path class="st3" d="M110,461.4h1.6v3.9h4.4v-3.9h1.6v9.3H116v-4.1h-4.4v4.1H110V461.4z"/>
	<path class="st3" d="M126,469.6c-0.6,0.5-1.2,0.8-1.7,1.1c-0.5,0.3-1.1,0.3-1.7,0.3c-1,0-1.8-0.3-2.4-0.8s-0.8-1.1-0.8-1.9
		c0-0.5,0.1-0.9,0.3-1.3c0.2-0.4,0.5-0.7,0.8-0.9c0.3-0.2,0.7-0.4,1.1-0.5c0.3-0.1,0.8-0.2,1.4-0.2c1.3-0.2,2.2-0.3,2.8-0.5
		c0-0.2,0-0.4,0-0.4c0-0.6-0.1-1.1-0.4-1.4c-0.4-0.4-1-0.5-1.8-0.5c-0.7,0-1.3,0.1-1.6,0.4c-0.3,0.3-0.6,0.7-0.8,1.4l-1.5-0.2
		c0.1-0.7,0.4-1.2,0.7-1.6c0.3-0.4,0.8-0.7,1.4-0.9c0.6-0.2,1.3-0.3,2.1-0.3c0.8,0,1.4,0.1,1.9,0.3s0.9,0.4,1.1,0.7
		c0.2,0.3,0.4,0.6,0.5,1.1c0.1,0.3,0.1,0.8,0.1,1.5v2.1c0,1.5,0,2.4,0.1,2.8c0.1,0.4,0.2,0.8,0.4,1.1h-1.7
		C126.1,470.4,126,470,126,469.6z M125.9,466c-0.6,0.2-1.4,0.4-2.6,0.6c-0.7,0.1-1.1,0.2-1.4,0.3s-0.5,0.3-0.6,0.5
		c-0.1,0.2-0.2,0.5-0.2,0.8c0,0.4,0.2,0.8,0.5,1.1c0.3,0.3,0.8,0.4,1.4,0.4s1.2-0.1,1.6-0.4s0.8-0.6,1-1.1c0.2-0.4,0.3-0.9,0.3-1.6
		L125.9,466L125.9,466z"/>
	<path class="st3" d="M137.3,461.4v9.3h-1.6v-3.6h-0.9c-0.6,0-1,0.1-1.2,0.2c-0.3,0.1-0.7,0.6-1.2,1.4l-1.4,2h-2l1.7-2.5
		c0.5-0.8,1-1.2,1.6-1.3c-0.9-0.1-1.6-0.4-2-1s-0.7-1.1-0.7-1.8c0-0.8,0.3-1.5,0.9-2s1.4-0.8,2.5-0.8h4.3V461.4z M135.7,462.7h-2.3
		c-0.9,0-1.6,0.1-1.8,0.4c-0.2,0.3-0.4,0.6-0.4,1c0,0.6,0.2,1,0.6,1.2c0.4,0.2,1.1,0.4,2.1,0.4h1.7v-3H135.7z"/>
	<path class="st3" d="M24.8,483h1.6v4c0.5,0,0.9-0.1,1.1-0.3c0.2-0.2,0.5-0.8,0.9-1.7c0.3-0.7,0.6-1.2,0.8-1.5
		c0.2-0.3,0.4-0.4,0.7-0.5s0.7-0.1,1.2-0.1h0.3v1.3H31c-0.4,0-0.7,0.1-0.8,0.2s-0.3,0.5-0.6,1.2c-0.2,0.6-0.5,1-0.7,1.3
		c-0.2,0.3-0.5,0.4-0.9,0.6c0.7,0.2,1.3,0.8,2,1.9l1.7,2.9H30l-1.7-2.9c-0.3-0.6-0.6-1-0.9-1.1c-0.3-0.2-0.6-0.3-0.9-0.3v4.3h-1.6
		L24.8,483L24.8,483z"/>
	<path class="st3" d="M32.3,487.7c0-1.7,0.5-3,1.4-3.8c0.8-0.7,1.8-1,2.9-1c1.3,0,2.3,0.4,3.1,1.3c0.8,0.9,1.2,2,1.2,3.5
		c0,1.2-0.2,2.1-0.5,2.8c-0.4,0.7-0.9,1.2-1.6,1.6c-0.7,0.4-1.4,0.6-2.3,0.6c-1.3,0-2.4-0.4-3.2-1.3
		C32.5,490.5,32.3,489.2,32.3,487.7z M34,487.7c0,1.2,0.3,2.1,0.8,2.7s1.2,0.9,2,0.9s1.4-0.3,2-0.9c0.6-0.6,0.8-1.5,0.8-2.7
		c0-1.2-0.3-2-0.8-2.6s-1.2-0.9-2-0.9s-1.4,0.3-2,0.9C34.2,485.7,34,486.5,34,487.7z"/>
	<path class="st3" d="M43,483h2.5l2.5,7.5l2.7-7.5H53v9.3h-1.6v-7.5l-2.8,7.5h-1.4l-2.6-7.9v7.9h-1.5V483H43z"/>
	<path class="st3" d="M55.4,483h2.5l2.5,7.5l2.7-7.5h2.3v9.3h-1.6v-7.5l-2.8,7.5h-1.5l-2.6-7.9v7.9h-1.5V483z"/>
	<path class="st3" d="M74.1,489.3l1.6,0.2c-0.3,1-0.7,1.7-1.4,2.2s-1.6,0.8-2.7,0.8c-1.4,0-2.4-0.4-3.2-1.3c-0.8-0.8-1.2-2-1.2-3.5
		c0-1.6,0.4-2.8,1.2-3.7s1.9-1.3,3.1-1.3c1.2,0,2.3,0.4,3.1,1.3c0.8,0.9,1.2,2,1.2,3.6c0,0.1,0,0.2,0,0.4h-7c0.1,1,0.3,1.8,0.9,2.4
		c0.6,0.6,1.2,0.8,2,0.8c0.6,0,1.1-0.2,1.5-0.5C73.6,490.4,73.8,490,74.1,489.3z M68.9,486.8h5.2c-0.1-0.8-0.3-1.4-0.6-1.8
		c-0.5-0.6-1.2-0.9-2-0.9c-0.7,0-1.3,0.2-1.8,0.7S68.9,486,68.9,486.8z"/>
	<path class="st3" d="M77.7,495.9V483h1.4v1.2c0.3-0.5,0.7-0.8,1.2-1.1c0.4-0.2,0.9-0.4,1.6-0.4c0.8,0,1.5,0.2,2.1,0.6
		c0.6,0.4,1.1,1,1.4,1.7c0.3,0.7,0.5,1.6,0.5,2.5c0,1-0.2,1.8-0.5,2.6c-0.3,0.8-0.8,1.4-1.5,1.8c-0.7,0.4-1.3,0.6-2.1,0.6
		c-0.5,0-1-0.1-1.4-0.3c-0.4-0.2-0.8-0.5-1-0.8v4.5L77.7,495.9L77.7,495.9z M79.1,487.7c0,1.2,0.2,2.1,0.7,2.7
		c0.5,0.6,1.1,0.9,1.8,0.9s1.3-0.3,1.8-0.9c0.5-0.6,0.8-1.5,0.8-2.8c0-1.2-0.2-2.1-0.7-2.7c-0.5-0.6-1.1-0.9-1.8-0.9
		s-1.3,0.3-1.8,0.9C79.4,485.6,79.1,486.5,79.1,487.7z"/>
	<path class="st3" d="M86.7,483h1.6v1.8c0,0.8,0,1.3,0.1,1.7c0.1,0.3,0.3,0.6,0.7,0.9c0.3,0.3,0.8,0.4,1.3,0.4
		c0.6,0,1.4-0.2,2.3-0.5v-4.2h1.6v9.3h-1.6v-3.8c-1,0.3-1.9,0.5-2.7,0.5c-0.7,0-1.3-0.2-1.9-0.5c-0.5-0.4-0.9-0.8-1.1-1.3
		s-0.3-1.1-0.3-1.7L86.7,483L86.7,483z"/>
	<path class="st3" d="M103.1,489.3l1.6,0.2c-0.3,1-0.7,1.7-1.4,2.2s-1.6,0.8-2.7,0.8c-1.4,0-2.4-0.4-3.2-1.3c-0.8-0.8-1.2-2-1.2-3.5
		c0-1.6,0.4-2.8,1.2-3.7s1.9-1.3,3.1-1.3c1.2,0,2.3,0.4,3.1,1.3c0.8,0.9,1.2,2,1.2,3.6c0,0.1,0,0.2,0,0.4h-7c0.1,1,0.3,1.8,0.9,2.4
		c0.6,0.6,1.2,0.8,2,0.8c0.6,0,1.1-0.2,1.5-0.5C102.6,490.4,102.8,490,103.1,489.3z M97.9,486.8h5.2c-0.1-0.8-0.3-1.4-0.6-1.8
		c-0.5-0.6-1.2-0.9-2-0.9c-0.7,0-1.3,0.2-1.8,0.7S97.9,486,97.9,486.8z"/>
	<path class="st3" d="M112.8,488.9l1.6,0.2c-0.2,1.1-0.6,1.9-1.3,2.5s-1.6,0.9-2.6,0.9c-1.3,0-2.3-0.4-3.1-1.3
		c-0.8-0.8-1.2-2-1.2-3.6c0-1,0.2-1.9,0.5-2.6s0.8-1.3,1.5-1.7s1.4-0.6,2.2-0.6c1,0,1.8,0.3,2.5,0.8s1.1,1.2,1.2,2.2l-1.5,0.2
		c-0.1-0.6-0.4-1.1-0.8-1.4s-0.8-0.5-1.3-0.5c-0.8,0-1.4,0.3-1.9,0.9c-0.5,0.6-0.7,1.5-0.7,2.7c0,1.3,0.2,2.2,0.7,2.7
		s1.1,0.9,1.9,0.9c0.6,0,1.1-0.2,1.6-0.6C112.6,490.2,112.7,489.7,112.8,488.9z"/>
	<path class="st3" d="M115.7,483h1.6v4c0.5,0,0.9-0.1,1.1-0.3c0.2-0.2,0.5-0.8,0.9-1.7c0.3-0.7,0.6-1.2,0.8-1.5
		c0.2-0.3,0.4-0.4,0.7-0.5s0.7-0.1,1.2-0.1h0.3v1.3h-0.4c-0.4,0-0.7,0.1-0.8,0.2c-0.1,0.1-0.3,0.5-0.6,1.2c-0.2,0.6-0.5,1-0.7,1.3
		c-0.2,0.3-0.5,0.4-0.9,0.6c0.7,0.2,1.3,0.8,2,1.9l1.7,2.9h-1.7l-1.7-2.9c-0.3-0.6-0.6-1-0.9-1.1c-0.3-0.2-0.6-0.3-0.9-0.3v4.3h-1.6
		L115.7,483L115.7,483z"/>
	<path class="st3" d="M130.1,491.2c-0.6,0.5-1.2,0.8-1.7,1.1c-0.5,0.3-1.1,0.3-1.7,0.3c-1,0-1.8-0.3-2.4-0.8s-0.8-1.1-0.8-1.9
		c0-0.5,0.1-0.9,0.3-1.3c0.2-0.4,0.5-0.7,0.8-0.9c0.3-0.2,0.7-0.4,1.1-0.5c0.3-0.1,0.8-0.2,1.4-0.2c1.3-0.2,2.2-0.3,2.8-0.5
		c0-0.2,0-0.4,0-0.4c0-0.6-0.1-1.1-0.4-1.4c-0.4-0.4-1-0.5-1.8-0.5c-0.7,0-1.3,0.1-1.6,0.4s-0.6,0.7-0.8,1.4l-1.5-0.2
		c0.1-0.7,0.4-1.2,0.7-1.6c0.3-0.4,0.8-0.7,1.4-0.9c0.6-0.2,1.3-0.3,2.1-0.3c0.8,0,1.4,0.1,1.9,0.3c0.5,0.2,0.9,0.4,1.1,0.7
		c0.2,0.3,0.4,0.6,0.5,1.1c0.1,0.3,0.1,0.8,0.1,1.5v2.1c0,1.5,0,2.4,0.1,2.8c0.1,0.4,0.2,0.8,0.4,1.1h-1.7
		C130.2,492,130.1,491.6,130.1,491.2z M129.9,487.6c-0.6,0.2-1.4,0.4-2.6,0.6c-0.7,0.1-1.1,0.2-1.4,0.3s-0.5,0.3-0.6,0.5
		c-0.1,0.2-0.2,0.5-0.2,0.8c0,0.4,0.2,0.8,0.5,1.1c0.3,0.3,0.8,0.4,1.4,0.4s1.2-0.1,1.6-0.4s0.8-0.6,1-1.1c0.2-0.4,0.3-0.9,0.3-1.6
		L129.9,487.6L129.9,487.6z"/>
	<path class="st3" d="M141.3,483v9.3h-1.6v-3.6h-0.9c-0.6,0-1,0.1-1.2,0.2c-0.3,0.1-0.7,0.6-1.2,1.4l-1.4,2h-2l1.7-2.5
		c0.5-0.8,1-1.2,1.6-1.3c-0.9-0.1-1.6-0.4-2-1s-0.7-1.1-0.7-1.8c0-0.8,0.3-1.5,0.9-2s1.4-0.8,2.5-0.8h4.3V483z M139.8,484.3h-2.3
		c-0.9,0-1.6,0.1-1.8,0.4s-0.4,0.6-0.4,1c0,0.6,0.2,1,0.6,1.2c0.4,0.2,1.1,0.4,2.1,0.4h1.7v-3H139.8z"/>
	<path class="st3" d="M23.9,504.6h1.6v3.9h4.4v-3.9h1.6v9.3h-1.6v-4.1h-4.4v4.1h-1.6V504.6z"/>
	<path class="st3" d="M40.2,510.9l1.6,0.2c-0.3,1-0.7,1.7-1.4,2.2s-1.6,0.8-2.7,0.8c-1.4,0-2.4-0.4-3.2-1.3c-0.8-0.8-1.2-2-1.2-3.5
		c0-1.6,0.4-2.8,1.2-3.7s1.9-1.3,3.1-1.3c1.2,0,2.3,0.4,3.1,1.3c0.8,0.9,1.2,2,1.2,3.6c0,0.1,0,0.2,0,0.4h-7c0.1,1,0.3,1.8,0.9,2.4
		c0.6,0.6,1.2,0.8,2,0.8c0.6,0,1.1-0.2,1.5-0.5S40,511.6,40.2,510.9z M35,508.4h5.2c-0.1-0.8-0.3-1.4-0.6-1.8
		c-0.5-0.6-1.2-0.9-2-0.9c-0.7,0-1.3,0.2-1.8,0.7S35.1,507.6,35,508.4z"/>
	<path class="st3" d="M44.7,504.6h6.5v8h1v3.9h-1.3v-2.6h-7.3v2.6h-1.3v-3.9h0.8C44.2,511.1,44.7,508.4,44.7,504.6z M46,505.9
		c-0.1,3-0.6,5.3-1.4,6.7h5v-6.7H46z"/>
	<path class="st3" d="M54,504.6h3.6c0.9,0,1.6,0.1,2,0.2c0.4,0.1,0.8,0.4,1.1,0.8c0.3,0.4,0.5,0.9,0.5,1.4c0,0.4-0.1,0.8-0.3,1.2
		c-0.2,0.3-0.5,0.6-0.8,0.8c0.4,0.1,0.8,0.4,1.1,0.8s0.4,0.9,0.4,1.4c-0.1,0.9-0.4,1.5-0.9,2s-1.4,0.6-2.5,0.6H54L54,504.6L54,504.6
		z M55.5,508.5h1.7c0.7,0,1.1,0,1.4-0.1s0.5-0.2,0.7-0.4c0.2-0.2,0.3-0.5,0.3-0.8c0-0.5-0.2-0.8-0.5-1c-0.3-0.2-0.9-0.3-1.8-0.3
		h-1.8V508.5z M55.5,512.6h2.1c0.9,0,1.5-0.1,1.8-0.3s0.5-0.6,0.5-1.1c0-0.3-0.1-0.6-0.3-0.8c-0.2-0.3-0.4-0.4-0.8-0.5
		c-0.3-0.1-0.8-0.1-1.5-0.1h-1.8V512.6z"/>
	<path class="st3" d="M63.5,504.6h1.6v7.1l4.4-7.1h1.7v9.3h-1.6v-7.1l-4.4,7.1h-1.7V504.6z"/>
	<path class="st3" d="M79.2,504.6v4c0.5,0,0.9-0.1,1.1-0.3c0.2-0.2,0.5-0.8,0.9-1.7s0.7-1.5,1-1.7c0.3-0.2,0.7-0.4,1.4-0.4h0.6v1.3
		h-0.4c-0.4,0-0.7,0.1-0.8,0.2c-0.1,0.1-0.3,0.5-0.6,1.2c-0.2,0.6-0.5,1-0.7,1.3c-0.2,0.3-0.5,0.4-0.9,0.6c0.7,0.2,1.4,0.8,2,1.9
		l1.7,2.9h-1.7l-1.7-2.9c-0.3-0.6-0.6-1-0.9-1.2c-0.3-0.2-0.6-0.3-0.9-0.3v4.3h-1.6v-4.3c-0.4,0-0.7,0.1-0.9,0.3
		c-0.2,0.2-0.6,0.6-0.9,1.2l-1.7,2.9h-1.7l1.7-2.9c0.7-1.1,1.3-1.7,2-1.9c-0.5-0.2-0.8-0.5-1-0.7c-0.2-0.3-0.5-0.9-0.8-1.8
		c-0.1-0.3-0.3-0.5-0.4-0.6c-0.2-0.1-0.4-0.1-0.7-0.1c-0.1,0-0.2,0-0.5,0v-1.3H73c0.6,0,1,0,1.3,0.1c0.2,0.1,0.5,0.2,0.7,0.5
		c0.2,0.2,0.5,0.7,0.8,1.5c0.4,0.9,0.7,1.5,0.9,1.7c0.2,0.2,0.6,0.3,1.1,0.3v-4h1.4V504.6z"/>
	<path class="st3" d="M85.6,504.6h1.6v7.1l4.4-7.1h1.7v9.3h-1.6v-7.1l-4.4,7.1h-1.7V504.6z"/>
	<path class="st3" d="M95.7,504.6h2.5l2.5,7.5l2.7-7.5h2.3v9.3h-1.6v-7.5l-2.8,7.5h-1.4l-2.6-7.9v7.9h-1.5v-9.3H95.7z"/>
	<path class="st3" d="M107.5,509.3c0-1.7,0.5-3,1.4-3.8c0.8-0.7,1.8-1,2.9-1c1.3,0,2.3,0.4,3.1,1.3c0.8,0.9,1.2,2,1.2,3.5
		c0,1.2-0.2,2.1-0.5,2.8c-0.4,0.7-0.9,1.2-1.6,1.6s-1.4,0.6-2.3,0.6c-1.3,0-2.4-0.4-3.2-1.3S107.5,510.8,107.5,509.3z M109.1,509.3
		c0,1.2,0.3,2.1,0.8,2.7c0.5,0.6,1.2,0.9,2,0.9s1.4-0.3,2-0.9c0.6-0.6,0.8-1.5,0.8-2.7c0-1.2-0.3-2-0.8-2.6s-1.2-0.9-2-0.9
		s-1.4,0.3-2,0.9C109.3,507.3,109.1,508.1,109.1,509.3z"/>
	<path class="st3" d="M124.1,510.5l1.6,0.2c-0.2,1.1-0.6,1.9-1.3,2.5c-0.7,0.6-1.6,0.9-2.6,0.9c-1.3,0-2.3-0.4-3.1-1.3
		c-0.8-0.8-1.2-2-1.2-3.6c0-1,0.2-1.9,0.5-2.6s0.8-1.3,1.5-1.7s1.4-0.6,2.2-0.6c1,0,1.8,0.3,2.5,0.8s1.1,1.2,1.2,2.2l-1.5,0.2
		c-0.1-0.6-0.4-1.1-0.8-1.4s-0.8-0.5-1.3-0.5c-0.8,0-1.4,0.3-1.9,0.9s-0.7,1.5-0.7,2.7c0,1.3,0.2,2.2,0.7,2.7s1.1,0.9,1.9,0.9
		c0.6,0,1.1-0.2,1.6-0.6S124,511.3,124.1,510.5z"/>
	<path class="st3" d="M126.2,504.6h7.6v1.3h-3v8h-1.6v-8h-3V504.6z"/>
	<path class="st3" d="M135.3,504.6h1.6v3.6h2c1.3,0,2.3,0.3,3,0.8s1.1,1.2,1.1,2.1c0,0.8-0.3,1.4-0.9,2c-0.6,0.6-1.5,0.8-2.8,0.8h-4
		L135.3,504.6L135.3,504.6z M136.9,512.6h1.7c1,0,1.7-0.1,2.1-0.4s0.6-0.6,0.6-1.2c0-0.4-0.2-0.8-0.5-1.1c-0.3-0.3-1-0.5-2.1-0.5
		h-1.9v3.2H136.9z"/>
</g>
<g class="st2">
	<path d="M407.8,97.1V82.8h1.9v5.9h7.4v-5.9h1.9v14.3h-1.9v-6.7h-7.4v6.7H407.8z"/>
	<path d="M421.3,91.8c0-1.9,0.5-3.3,1.6-4.3c0.9-0.8,2-1.2,3.3-1.2c1.4,0,2.6,0.5,3.5,1.4c0.9,0.9,1.4,2.2,1.4,3.9
		c0,1.3-0.2,2.4-0.6,3.1c-0.4,0.7-1,1.4-1.7,1.8s-1.6,0.6-2.5,0.6c-1.5,0-2.6-0.5-3.5-1.4C421.9,94.8,421.3,93.7,421.3,91.8z
		 M423.1,91.8c0,1.3,0.3,2.3,0.9,3c0.6,0.7,1.3,1,2.2,1s1.6-0.3,2.2-1c0.6-0.7,0.9-1.7,0.9-3s-0.3-2.3-0.9-2.9c-0.6-0.6-1.3-1-2.2-1
		c-0.9,0-1.6,0.3-2.2,1C423.4,89.6,423.1,90.6,423.1,91.8z"/>
	<path d="M439.9,97.1v-1.5c-0.8,1.2-1.9,1.8-3.3,1.8c-0.6,0-1.2-0.1-1.7-0.4s-0.9-0.5-1.2-0.9c-0.3-0.4-0.4-0.8-0.5-1.3
		c-0.1-0.3-0.1-0.9-0.1-1.6v-6.4h1.8v5.8c0,0.9,0,1.5,0.1,1.9c0.1,0.5,0.3,0.8,0.7,1.1s0.8,0.4,1.3,0.4s1-0.1,1.5-0.4s0.8-0.6,1-1.1
		s0.3-1.1,0.3-2v-5.6h1.8v10.4h-1.7V97.1z"/>
	<path d="M443.5,93.9l1.7-0.3c0.1,0.7,0.4,1.2,0.8,1.6c0.4,0.4,1.1,0.6,1.9,0.6s1.4-0.2,1.8-0.5c0.4-0.3,0.6-0.7,0.6-1.2
		c0-0.4-0.2-0.7-0.5-0.9c-0.2-0.2-0.8-0.4-1.8-0.6c-1.3-0.3-2.2-0.6-2.7-0.8s-0.9-0.6-1.1-1s-0.4-0.9-0.4-1.4s0.1-0.9,0.3-1.3
		c0.2-0.4,0.5-0.7,0.9-1c0.3-0.2,0.6-0.4,1.1-0.5s1-0.2,1.5-0.2c0.8,0,1.5,0.1,2.1,0.4c0.6,0.3,1.1,0.6,1.4,1s0.5,0.9,0.6,1.6
		l-1.7,0.2c-0.1-0.5-0.3-1-0.7-1.3s-0.9-0.4-1.6-0.4c-0.8,0-1.4,0.1-1.7,0.4c-0.3,0.3-0.5,0.6-0.5,0.9c0,0.2,0.1,0.4,0.2,0.6
		c0.1,0.2,0.4,0.3,0.7,0.5c0.2,0.1,0.7,0.2,1.6,0.4c1.2,0.3,2.1,0.6,2.6,0.8s0.9,0.5,1.2,0.9c0.3,0.4,0.4,0.9,0.4,1.5
		s-0.2,1.1-0.5,1.7s-0.8,0.9-1.5,1.2s-1.4,0.4-2.2,0.4c-1.3,0-2.4-0.3-3.1-0.8S443.7,95.1,443.5,93.9z"/>
	<path d="M461.3,93.8l1.8,0.2c-0.3,1.1-0.8,1.9-1.6,2.5c-0.8,0.6-1.8,0.9-3,0.9c-1.5,0-2.7-0.5-3.6-1.4c-0.9-0.9-1.3-2.2-1.3-3.9
		c0-1.7,0.4-3.1,1.3-4.1c0.9-1,2.1-1.4,3.5-1.4c1.4,0,2.5,0.5,3.4,1.4c0.9,0.9,1.3,2.3,1.3,4c0,0.1,0,0.3,0,0.5h-7.7
		c0.1,1.1,0.4,2,1,2.6c0.6,0.6,1.3,0.9,2.2,0.9c0.6,0,1.2-0.2,1.7-0.5S461.1,94.4,461.3,93.8z M455.6,90.8h5.8
		c-0.1-0.9-0.3-1.5-0.7-2c-0.6-0.7-1.3-1-2.2-1c-0.8,0-1.5,0.3-2,0.8S455.6,89.9,455.6,90.8z"/>
	<path d="M469.2,97.1V84.4h-4.7v-1.7h11.3v1.7h-4.7V97C471.1,97,469.2,97,469.2,97.1z"/>
	<path d="M474.7,91.8c0-1.9,0.5-3.3,1.6-4.3c0.9-0.8,2-1.2,3.3-1.2c1.4,0,2.6,0.5,3.5,1.4c0.9,0.9,1.4,2.2,1.4,3.9
		c0,1.3-0.2,2.4-0.6,3.1c-0.4,0.7-1,1.4-1.7,1.8s-1.6,0.6-2.5,0.6c-1.5,0-2.6-0.5-3.5-1.4C475.3,94.8,474.7,93.7,474.7,91.8z
		 M476.5,91.8c0,1.3,0.3,2.3,0.9,3c0.6,0.7,1.3,1,2.2,1s1.6-0.3,2.2-1c0.6-0.7,0.9-1.7,0.9-3s-0.3-2.3-0.9-2.9c-0.6-0.6-1.3-1-2.2-1
		c-0.9,0-1.6,0.3-2.2,1C476.8,89.6,476.5,90.6,476.5,91.8z"/>
	<path d="M486.5,97.1V82.8h1.8v8.2l4.2-4.2h2.3l-4,3.8l4.4,6.5H493l-3.4-5.3l-1.2,1.2V97C488.4,97,486.5,97,486.5,97.1z"/>
	<path d="M503.6,93.8l1.8,0.2c-0.3,1.1-0.8,1.9-1.6,2.5c-0.8,0.6-1.8,0.9-3,0.9c-1.5,0-2.7-0.5-3.6-1.4c-0.9-0.9-1.3-2.2-1.3-3.9
		c0-1.7,0.4-3.1,1.3-4.1c0.9-1,2.1-1.4,3.5-1.4c1.4,0,2.5,0.5,3.4,1.4c0.9,0.9,1.3,2.3,1.3,4c0,0.1,0,0.3,0,0.5h-7.7
		c0.1,1.1,0.4,2,1,2.6c0.6,0.6,1.3,0.9,2.2,0.9c0.6,0,1.2-0.2,1.7-0.5S503.3,94.4,503.6,93.8z M497.8,90.8h5.8
		c-0.1-0.9-0.3-1.5-0.7-2c-0.6-0.7-1.3-1-2.2-1c-0.8,0-1.5,0.3-2,0.8S497.9,89.9,497.8,90.8z"/>
	<path d="M507.6,97.1V86.7h1.6v1.5c0.8-1.1,1.9-1.7,3.3-1.7c0.6,0,1.2,0.1,1.7,0.3s0.9,0.5,1.2,0.9c0.3,0.4,0.4,0.8,0.5,1.3
		c0.1,0.3,0.1,0.9,0.1,1.7v6.4h-1.7v-6.3c0-0.7-0.1-1.3-0.2-1.6c-0.1-0.3-0.4-0.6-0.7-0.8c-0.3-0.2-0.8-0.3-1.2-0.3
		c-0.7,0-1.4,0.2-1.9,0.7s-0.8,1.4-0.8,2.7v5.7L507.6,97.1L507.6,97.1z"/>
	<path d="M524.4,97.1V82.8h1.9v12.6h7.1V97C533.4,97,524.4,97,524.4,97.1z"/>
	<path d="M537.8,97.1V84.4h-4.7v-1.7h11.3v1.7h-4.7V97C539.7,97,537.8,97,537.8,97.1z"/>
	<path d="M546.4,97.1V82.8h4.9c1.1,0,2,0.1,2.5,0.2c0.8,0.2,1.5,0.5,2.1,1c0.8,0.6,1.3,1.5,1.7,2.4s0.6,2.1,0.6,3.4
		c0,1.1-0.1,2.1-0.4,2.9s-0.6,1.5-1,2.1c-0.4,0.6-0.8,1-1.3,1.3s-1,0.6-1.7,0.7s-1.4,0.2-2.3,0.2h-5.1V97.1z M548.3,95.3h3.1
		c0.9,0,1.7-0.1,2.2-0.3s1-0.4,1.3-0.7c0.4-0.4,0.8-1.1,1-1.8s0.4-1.7,0.4-2.8c0-1.5-0.2-2.6-0.7-3.5s-1.1-1.3-1.8-1.6
		c-0.5-0.2-1.3-0.3-2.5-0.3h-3V95.3z"/>
	<path d="M410.9,125.3c-1-1.2-1.8-2.7-2.5-4.3s-1-3.3-1-5.1c0-1.5,0.3-3,0.8-4.5c0.6-1.6,1.5-3.3,2.7-4.9h1.3
		c-0.8,1.4-1.3,2.3-1.6,2.9c-0.4,0.9-0.7,1.8-0.9,2.8c-0.3,1.2-0.4,2.4-0.4,3.7c0,3.1,1,6.3,2.9,9.4H410.9z"/>
	<path d="M413.9,114.1c0-2.4,0.6-4.2,1.9-5.6s2.9-2,4.9-2c1.3,0,2.5,0.3,3.6,0.9c1.1,0.6,1.9,1.5,2.4,2.6s0.8,2.4,0.8,3.8
		c0,1.5-0.3,2.8-0.9,3.9c-0.6,1.1-1.4,2-2.5,2.6c-1.1,0.6-2.2,0.9-3.5,0.9s-2.6-0.3-3.6-1s-1.9-1.5-2.4-2.7S413.9,115.3,413.9,114.1
		z M415.8,114.2c0,1.7,0.5,3.1,1.4,4.1c0.9,1,2.1,1.5,3.5,1.5c1.4,0,2.6-0.5,3.5-1.5c0.9-1,1.4-2.4,1.4-4.3c0-1.2-0.2-2.2-0.6-3.1
		c-0.4-0.9-1-1.5-1.7-2s-1.6-0.7-2.6-0.7c-1.3,0-2.5,0.5-3.5,1.4S415.8,111.9,415.8,114.2z"/>
	<path d="M429.4,114.1c0-2.4,0.6-4.2,1.9-5.6s2.9-2,4.9-2c1.3,0,2.5,0.3,3.6,0.9c1.1,0.6,1.9,1.5,2.4,2.6s0.8,2.4,0.8,3.8
		c0,1.5-0.3,2.8-0.9,3.9c-0.6,1.1-1.4,2-2.5,2.6c-1.1,0.6-2.2,0.9-3.5,0.9s-2.6-0.3-3.6-1s-1.9-1.5-2.4-2.7S429.4,115.3,429.4,114.1
		z M431.4,114.2c0,1.7,0.5,3.1,1.4,4.1c0.9,1,2.1,1.5,3.5,1.5c1.4,0,2.6-0.5,3.5-1.5c0.9-1,1.4-2.4,1.4-4.3c0-1.2-0.2-2.2-0.6-3.1
		c-0.4-0.9-1-1.5-1.7-2s-1.6-0.7-2.6-0.7c-1.3,0-2.5,0.5-3.5,1.4S431.4,111.9,431.4,114.2z"/>
	<path d="M445,114.1c0-2.4,0.6-4.2,1.9-5.6s2.9-2,4.9-2c1.3,0,2.5,0.3,3.6,0.9c1.1,0.6,1.9,1.5,2.4,2.6s0.8,2.4,0.8,3.8
		c0,1.5-0.3,2.8-0.9,3.9c-0.6,1.1-1.4,2-2.5,2.6c-1.1,0.6-2.2,0.9-3.5,0.9s-2.6-0.3-3.6-1s-1.9-1.5-2.4-2.7S445,115.3,445,114.1z
		 M446.9,114.2c0,1.7,0.5,3.1,1.4,4.1c0.9,1,2.1,1.5,3.5,1.5c1.4,0,2.6-0.5,3.5-1.5c0.9-1,1.4-2.4,1.4-4.3c0-1.2-0.2-2.2-0.6-3.1
		c-0.4-0.9-1-1.5-1.7-2s-1.6-0.7-2.6-0.7c-1.3,0-2.5,0.5-3.5,1.4S446.9,111.9,446.9,114.2z"/>
	<path d="M466.7,106.8h1.9v6.3c0.9,0,1.5-0.2,1.8-0.5s0.8-1.1,1.3-2.4c0.4-0.9,0.7-1.6,1-2s0.6-0.7,1.1-1s1-0.4,1.6-0.4
		c0.7,0,1.1,0,1.2,0v1.6c-0.1,0-0.2,0-0.4,0s-0.3,0-0.4,0c-0.6,0-1.1,0.1-1.3,0.4c-0.3,0.3-0.6,0.9-1,1.9c-0.5,1.2-0.9,2-1.2,2.3
		c-0.3,0.3-0.7,0.6-1.2,0.8c0.9,0.3,1.8,1.1,2.7,2.6l2.9,4.8h-2.4l-2.4-3.9c-0.7-1.1-1.2-1.8-1.7-2.2s-1-0.6-1.7-0.6v6.7h-1.9
		L466.7,106.8L466.7,106.8z"/>
	<path d="M484.9,119.8c-0.7,0.6-1.3,0.9-1.9,1.2c-0.6,0.3-1.2,0.3-1.9,0.3c-1.1,0-2-0.3-2.6-0.8c-0.6-0.5-0.9-1.3-0.9-2.1
		c0-0.5,0.1-1,0.3-1.4c0.2-0.4,0.5-0.8,0.9-1c0.4-0.2,0.8-0.4,1.3-0.6c0.3-0.1,0.9-0.2,1.6-0.3c1.4-0.2,2.5-0.4,3.1-0.6
		c0-0.2,0-0.4,0-0.5c0-0.7-0.2-1.2-0.5-1.5c-0.4-0.4-1.1-0.6-2-0.6c-0.8,0-1.4,0.1-1.8,0.4c-0.4,0.3-0.7,0.8-0.9,1.5l-1.7-0.2
		c0.2-0.7,0.4-1.3,0.8-1.8c0.4-0.5,0.9-0.8,1.6-1s1.5-0.4,2.4-0.4c0.9,0,1.6,0.1,2.2,0.3c0.6,0.2,1,0.5,1.2,0.8s0.4,0.7,0.5,1.2
		c0.1,0.3,0.1,0.8,0.1,1.6v2.3c0,1.6,0,2.7,0.1,3.1c0.1,0.4,0.2,0.8,0.4,1.2h-1.8C485,120.7,484.9,120.3,484.9,119.8z M484.7,115.8
		c-0.6,0.3-1.6,0.5-2.9,0.7c-0.7,0.1-1.2,0.2-1.5,0.4s-0.5,0.3-0.7,0.6s-0.2,0.5-0.2,0.8c0,0.5,0.2,0.9,0.5,1.2s0.9,0.5,1.6,0.5
		s1.3-0.1,1.8-0.4s0.9-0.7,1.2-1.2c0.2-0.4,0.3-1,0.3-1.8L484.7,115.8L484.7,115.8z"/>
	<path d="M489.2,110.7h1.8v7.9l4.9-7.9h1.9v10.4H496v-7.9l-4.9,7.9h-1.9V110.7z M495.3,106.8h1.2c-0.1,0.8-0.4,1.4-0.9,1.9
		s-1.2,0.7-2,0.7s-1.5-0.2-2-0.6s-0.8-1.1-0.9-1.9h1.2c0.1,0.4,0.3,0.8,0.5,1s0.6,0.3,1.1,0.3s0.9-0.1,1.2-0.3
		C495,107.6,495.2,107.3,495.3,106.8z"/>
	<path d="M500.4,110.7h2.7l2.7,8.3l3-8.3h2.5v10.4h-1.8v-8.3l-3.1,8.3h-1.6l-2.9-8.8v8.8h-1.7v-10.4H500.4z"/>
	<path d="M520.9,119.8c-0.7,0.6-1.3,0.9-1.9,1.2c-0.6,0.3-1.2,0.3-1.9,0.3c-1.1,0-2-0.3-2.6-0.8c-0.6-0.5-0.9-1.3-0.9-2.1
		c0-0.5,0.1-1,0.3-1.4c0.2-0.4,0.5-0.8,0.9-1c0.4-0.2,0.8-0.4,1.3-0.6c0.3-0.1,0.9-0.2,1.6-0.3c1.4-0.2,2.5-0.4,3.1-0.6
		c0-0.2,0-0.4,0-0.5c0-0.7-0.2-1.2-0.5-1.5c-0.4-0.4-1.1-0.6-2-0.6c-0.8,0-1.4,0.1-1.8,0.4c-0.4,0.3-0.7,0.8-0.9,1.5l-1.7-0.2
		c0.2-0.7,0.4-1.3,0.8-1.8c0.4-0.5,0.9-0.8,1.6-1s1.5-0.4,2.4-0.4c0.9,0,1.6,0.1,2.2,0.3c0.6,0.2,1,0.5,1.2,0.8s0.4,0.7,0.5,1.2
		c0.1,0.3,0.1,0.8,0.1,1.6v2.3c0,1.6,0,2.7,0.1,3.1c0.1,0.4,0.2,0.8,0.4,1.2h-1.9C521.1,120.7,521,120.3,520.9,119.8z M520.8,115.8
		c-0.6,0.3-1.6,0.5-2.9,0.7c-0.7,0.1-1.2,0.2-1.5,0.4s-0.5,0.3-0.7,0.6s-0.2,0.5-0.2,0.8c0,0.5,0.2,0.9,0.5,1.2s0.9,0.5,1.6,0.5
		s1.3-0.1,1.8-0.4s0.9-0.7,1.2-1.2c0.2-0.4,0.3-1,0.3-1.8L520.8,115.8L520.8,115.8z"/>
	<path d="M525.3,110.7h1.8v4.3h4.9v-4.3h1.8v10.4H532v-4.6h-4.9v4.6h-1.8V110.7z"/>
	<path d="M536.3,110.7h1.8v4.1h2.2c1.5,0,2.6,0.3,3.4,0.8s1.2,1.3,1.2,2.3c0,0.9-0.3,1.6-1,2.2s-1.7,0.9-3.1,0.9h-4.5V110.7z
		 M538,119.7h1.8c1.1,0,1.9-0.1,2.4-0.4s0.7-0.7,0.7-1.3c0-0.4-0.2-0.8-0.5-1.2s-1.1-0.5-2.3-0.5H538V119.7z"/>
	<path d="M547.7,123.9l-0.3-0.3c2.5-2.4,3.6-5.6,3.6-8.7s-1.1-6.1-3.7-8.5l0.2-0.3c3.6,2.8,4.8,6,4.8,8.8
		C552.4,118.6,550.7,121.6,547.7,123.9z"/>
</g>
</svg>
