<?xml version="1.0" encoding="utf-8"?>
<!-- Generator: Adobe Illustrator 23.0.0, SVG Export Plug-In . SVG Version: 6.00 Build 0)  -->
<svg version="1.1" id="强大的法律保障" xmlns="http://www.w3.org/2000/svg" xmlns:xlink="http://www.w3.org/1999/xlink"
	 x="0px" y="0px" viewBox="0 0 421 888" style="enable-background:new 0 0 421 888;" xml:space="preserve">
<style type="text/css">
	.st0{fill:#010101;}
	.st1{fill:#70DBCB;}
	.st2{fill:none;stroke:#70DBCB;}
	.st3{fill:#58595B;}
	.st4{fill:#F5F5F5;}
	.st5{fill:#FCFCFC;}
	.st6{fill:#F2F2F2;}
	.st7{fill:#E6E7E8;}
	.st8{enable-background:new    ;}
	.st9{fill:#FFFFFF;}
</style>
<rect id="矩形_47" x="215" y="658" class="st0" width="1" height="70"/>
<rect id="矩形_47_拷贝" x="250" y="795.7" class="st0" width="89.9" height="1"/>
<g id="组_27">
	<rect id="矩形_48" x="215.2" y="426.8" class="st1" width="1.2" height="77.3"/>
	<path id="形状_2" class="st2" d="M221.3,504v-72.3l146-65.5"/>
	<path id="形状_2_拷贝_2" class="st2" d="M215.3,499v-72.3l146-65.5"/>
	<path id="形状_2_拷贝" class="st2" d="M209,504v-72.3L63,367.9"/>
	<path id="形状_2_拷贝_3" class="st2" d="M215,500v-72.3L69,363.9"/>
</g>
<ellipse id="椭圆_12" class="st3" cx="349.5" cy="796.2" rx="16.6" ry="16.6"/>
<path id="圆角矩形_1_拷贝" class="st4" d="M173.8,809.9l39-10c1.7-0.4,3.4-0.3,5,0.1l32.8,10.6c1.4,0.5,1.6,1.2,0.4,1.7
	l-34.2,12.5c-2,0.6-4.1,0.7-6.1,0.1L173,811.8C171.5,811.3,171.9,810.4,173.8,809.9z"/>
<path id="圆角矩形_1" class="st5" d="M174.6,789.1l39-10c1.7-0.4,3.4-0.3,5,0.1l32.8,10.6c1.4,0.5,1.6,1.2,0.4,1.7L217.7,804
	c-2,0.6-4.1,0.7-6.1,0.1L173.9,791C172.3,790.4,172.7,789.6,174.6,789.1z"/>
<ellipse id="椭圆_11" class="st6" cx="214.9" cy="788.9" rx="18.1" ry="3.6"/>
<path id="矩形_46" class="st7" d="M172.8,790.1l43.3,15.2v14.4l-43.3-15.2V790.1z"/>
<path id="矩形_46_拷贝" class="st7" d="M253.1,790.9l-37.7,14.4v14.4l37.7-14.4V790.9z"/>
<path id="圆角矩形_1_拷贝-2" class="st4" d="M174.5,602.3l39.1-10c1.7-0.4,3.4-0.3,5,0.1l32.8,10.6c1.4,0.5,1.6,1.2,0.4,1.7
	l-34.2,12.6c-2,0.6-4.1,0.7-6.1,0.1l-37.7-13.2C172.2,603.7,172.6,602.8,174.5,602.3z"/>
<path id="圆角矩形_1-2" class="st5" d="M175.3,581.4l39.1-10c1.7-0.4,3.4-0.3,5,0.1l32.8,10.6c1.4,0.5,1.6,1.2,0.4,1.7
	l-34.2,12.6c-2,0.6-4.1,0.7-6.1,0.1l-37.7-13.2C173,582.8,173.4,581.9,175.3,581.4z"/>
<path id="椭圆_11-2" class="st6" d="M215.7,577.6c10,0,18.1,1.6,18.1,3.6s-8.1,3.6-18.1,3.6s-18.1-1.6-18.1-3.6
	S205.7,577.6,215.7,577.6z"/>
<path id="矩形_46-2" class="st7" d="M173.5,582.5l43.4,15.3v14.5L173.5,597V582.5z"/>
<path id="矩形_46_拷贝-2" class="st7" d="M253.9,583.3l-37.8,14.5v14.5l37.8-14.5V583.3z"/>
<path id="圆角矩形_1_拷贝-3" class="st4" d="M317.7,312.5l39.1-10c1.7-0.4,3.4-0.3,5,0.1l32.8,10.6c1.4,0.5,1.6,1.2,0.4,1.7
	l-34.2,12.5c-2,0.6-4.1,0.7-6.1,0.1L317,314.4C315.4,313.8,315.8,313,317.7,312.5z"/>
<path id="圆角矩形_1-3" class="st5" d="M318.5,291.6l39.1-10c1.7-0.4,3.4-0.3,5,0.1l32.8,10.6c1.4,0.5,1.6,1.2,0.4,1.6
	l-34.2,12.5c-2,0.6-4.1,0.7-6.1,0.1l-37.7-13.1C316.2,293,316.6,292.1,318.5,291.6z"/>
<path id="椭圆_11-3" class="st6" d="M358.9,287.9c10,0,18.1,1.6,18.1,3.6s-8.1,3.6-18.1,3.6s-18.1-1.6-18.1-3.6
	S348.9,287.9,358.9,287.9z"/>
<path id="矩形_46-3" class="st7" d="M316.7,292.7l43.4,15.2v14.4l-43.4-15.2V292.7z"/>
<path id="矩形_46_拷贝-3" class="st7" d="M397.1,293.5l-37.8,14.4v14.4l37.8-14.4V293.5L397.1,293.5z"/>
<path id="圆角矩形_1_拷贝-4" class="st4" d="M19.7,313.3l39.1-10c1.7-0.4,3.4-0.3,5,0.1L96.7,314c1.4,0.5,1.6,1.2,0.4,1.7
	l-34.2,12.6c-2,0.6-4.1,0.7-6.1,0.1L19,315.1C17.4,314.6,17.8,313.8,19.7,313.3z"/>
<path id="圆角矩形_1-4" class="st5" d="M20.5,292.3l39.1-10c1.7-0.4,3.4-0.3,5,0.1L97.4,293c1.4,0.5,1.6,1.2,0.4,1.7l-34.2,12.6
	c-2,0.6-4.1,0.7-6.1,0.1l-37.7-13.2C18.2,293.7,18.6,292.8,20.5,292.3z"/>
<path id="椭圆_11-4" class="st6" d="M60.9,288.5c10,0,18.1,1.6,18.1,3.6s-8.1,3.6-18.1,3.6s-18.1-1.6-18.1-3.6
	S50.9,288.5,60.9,288.5z"/>
<path id="矩形_46-4" class="st7" d="M18.7,293.4l43.4,15.3v14.5l-43.4-15.3V293.4z"/>
<path id="矩形_46_拷贝-4" class="st7" d="M99.1,294.2l-37.8,14.5v14.5l37.8-14.5V294.2z"/>
<path id="圆角矩形_1_拷贝-5" class="st4" d="M310.7,86.7l39.1-10c1.7-0.4,3.4-0.3,5,0.1l32.9,10.6c1.4,0.5,1.6,1.2,0.4,1.7
	l-34.3,12.6c-2,0.6-4.1,0.7-6.1,0.1L310,88.6C308.4,88,308.8,87.2,310.7,86.7z"/>
<path id="圆角矩形_1-5" class="st5" d="M308.5,65.8l39.1-10c1.7-0.4,3.4-0.3,5,0.1l32.9,10.6c1.4,0.5,1.6,1.2,0.4,1.7
	l-34.3,12.6c-2,0.6-4.1,0.7-6.1,0.1l-37.7-13.2C306.2,67.1,306.6,66.3,308.5,65.8z"/>
<ellipse id="椭圆_11-5" class="st6" cx="348.9" cy="65.6" rx="18.1" ry="3.6"/>
<path id="矩形_46-5" class="st7" d="M306.7,66.8l43.4,15.3v14.5l-43.4-15.3V66.8z"/>
<path id="矩形_46_拷贝-5" class="st7" d="M387.1,67.6l-37.8,14.5v14.5l37.8-14.5V67.6z"/>
<path id="圆角矩形_1_拷贝-6" class="st4" d="M20.6,86.1l39.1-10c1.7-0.4,3.4-0.3,5,0.1l32.8,10.6c1.4,0.5,1.6,1.2,0.4,1.7
	l-34.2,12.6c-2,0.6-4.1,0.7-6.1,0.1L19.9,88C18.3,87.4,18.7,86.6,20.6,86.1z"/>
<path id="圆角矩形_1-6" class="st5" d="M21.4,65.2l39.1-10c1.7-0.4,3.4-0.3,5,0.1l32.8,10.6c1.4,0.5,1.6,1.2,0.4,1.7L64.5,80.2
	c-2,0.6-4.1,0.7-6.1,0.1L20.7,67.1C19.1,66.6,19.5,65.7,21.4,65.2z"/>
<ellipse id="椭圆_11-6" class="st6" cx="61.8" cy="65.1" rx="18.1" ry="3.6"/>
<path id="矩形_46-6" class="st7" d="M19.6,66.3L63,81.5V96L19.6,80.7V66.3z"/>
<path id="矩形_46_拷贝-6" class="st7" d="M99.9,67L62.2,81.5V96L100,81.5L99.9,67L99.9,67z"/>
<rect id="矩形_49" x="359" y="172" class="st0" width="1" height="60"/>
<rect id="矩形_49_拷贝" x="62" y="160" class="st0" width="1" height="72"/>
<g class="st8">
	<path class="st3" d="M40,55h22.5V10H40V55z M54.1,15.6h5.6v5.6h-5.6V15.6z M54.1,26.9h5.6v5.6h-5.6V26.9z M54.1,38.1h5.6v5.6h-5.6
		V38.1z M42.8,15.6h5.6v5.6h-5.6V15.6z M42.8,26.9h5.6v5.6h-5.6V26.9z M42.8,38.1h5.6v5.6h-5.6V38.1z M65.3,24.1H85v2.8H65.3V24.1z
		 M65.3,55h5.6V43.8h8.4V55H85V29.7H65.3V55z"/>
</g>
<g class="st8">
	<path class="st3" d="M345.7,45.4h7.6v9.5h-7.6V45.4z"/>
	<path class="st3" d="M344.8,28.4c0,2.6,2.1,4.7,4.7,4.7s4.7-2.1,4.7-4.7s-2.1-4.7-4.7-4.7C346.9,23.7,344.8,25.8,344.8,28.4z
		 M350.4,29.3h-3.8v-1.9h1.9v-2.8h1.9V29.3z"/>
	<path class="st3" d="M323,24.6v30.3h15.1V24.6H323z M329.6,44.5h-3.8v-1.9h3.8V44.5z M329.6,40.7h-3.8v-1.9h3.8V40.7z M329.6,36.9
		h-3.8V35h3.8V36.9z M329.6,33.1h-3.8v-1.9h3.8V33.1z M329.6,29.3h-3.8v-1.9h3.8V29.3z M335.3,44.5h-3.8v-1.9h3.8V44.5z M335.3,40.7
		h-3.8v-1.9h3.8V40.7z M335.3,36.9h-3.8V35h3.8V36.9z M335.3,33.1h-3.8v-1.9h3.8V33.1z M335.3,29.3h-3.8v-1.9h3.8V29.3z"/>
	<path class="st3" d="M376,54.9V24.6h-15.1v30.3H376z M369.4,27.4h3.8v1.9h-3.8V27.4z M369.4,31.2h3.8v1.9h-3.8V31.2z M369.4,35h3.8
		v1.9h-3.8V35z M369.4,38.8h3.8v1.9h-3.8V38.8z M369.4,42.6h3.8v1.9h-3.8V42.6z M363.7,27.4h3.8v1.9h-3.8V27.4z M363.7,31.2h3.8v1.9
		h-3.8V31.2z M363.7,35h3.8v1.9h-3.8V35z M363.7,38.8h3.8v1.9h-3.8V38.8z M363.7,42.6h3.8v1.9h-3.8V42.6z"/>
	<path class="st3" d="M340,20.4v34.5h3.8V44.5c0-0.5,0.4-0.9,0.9-0.9h9.5c0.5,0,0.9,0.4,0.9,0.9v10.4h3.8V20.4l-9.5-6.9L340,20.4z
		 M356.1,28.4c0,3.7-3,6.6-6.6,6.6s-6.6-3-6.6-6.6s3-6.6,6.6-6.6C353.2,21.8,356.1,24.7,356.1,28.4z"/>
	<path class="st3" d="M349.5,1.9h11.4v5.7h-11.4V1.9z"/>
	<path class="st3" d="M349.5,16.1c-0.5,0-0.9-0.4-0.9-0.9V0.9c0-0.5,0.4-0.9,0.9-0.9s0.9,0.4,0.9,0.9v14.2
		C350.4,15.7,350,16.1,349.5,16.1z"/>
</g>
<g class="st8">
	<path class="st3" d="M78.7,281.2c0.7,0,1.3-0.6,1.3-1.3v-21.6c0-0.7-0.6-1.3-1.3-1.3h-8.1v-0.9c0-0.5-0.3-0.9-0.7-1.2l-7.9-4v-2.5
		l5.6-1.9c0.5-0.2,0.9-0.7,0.9-1.2c0-0.6-0.4-1.1-0.9-1.2L61,242c-0.4-0.1-0.8-0.1-1.2,0.2c-0.3,0.2-0.5,0.6-0.5,1.1v7.8l-7.9,4
		c-0.4,0.2-0.7,0.7-0.7,1.2v0.9h-8.3c-0.7,0-1.3,0.6-1.3,1.3v21.6c0,0.7,0.6,1.3,1.3,1.3h36.3V281.2z M61.9,246.1v-1.4l2.9,0.7
		L61.9,246.1z M43.7,259.6h7v19h-7V259.6z M53.3,257l7.3-3.7l7.3,3.7v21.6H53.3V257z M77.3,278.6h-6.8v-19h6.8V278.6z"/>
	<path class="st3" d="M58.6,259.2h-2.2c-0.7,0-1.3,0.6-1.3,1.3c0,0.7,0.6,1.3,1.3,1.3h2.2c0.7,0,1.3-0.6,1.3-1.3
		C59.9,259.8,59.3,259.2,58.6,259.2z"/>
	<path class="st3" d="M46.3,264h2.2c0.7,0,1.3-0.6,1.3-1.3c0-0.7-0.6-1.3-1.3-1.3h-2.2c-0.7,0-1.3,0.6-1.3,1.3S45.6,264,46.3,264z"
		/>
	<path class="st3" d="M48.4,265.7h-2.2c-0.7,0-1.3,0.6-1.3,1.3c0,0.7,0.6,1.3,1.3,1.3h2.2c0.7,0,1.3-0.6,1.3-1.3
		C49.8,266.3,49.2,265.7,48.4,265.7z"/>
	<path class="st3" d="M48.4,270h-2.2c-0.7,0-1.3,0.6-1.3,1.3c0,0.7,0.6,1.3,1.3,1.3h2.2c0.7,0,1.3-0.6,1.3-1.3
		C49.8,270.6,49.2,270,48.4,270z"/>
	<path class="st3" d="M73,264h2.2c0.7,0,1.3-0.6,1.3-1.3c0-0.7-0.6-1.3-1.3-1.3H73c-0.7,0-1.3,0.6-1.3,1.3S72.3,264,73,264z"/>
	<path class="st3" d="M73,268.3h2.2c0.7,0,1.3-0.6,1.3-1.3c0-0.7-0.6-1.3-1.3-1.3H73c-0.7,0-1.3,0.6-1.3,1.3
		C71.7,267.7,72.3,268.3,73,268.3z"/>
	<path class="st3" d="M75.1,270H73c-0.7,0-1.3,0.6-1.3,1.3c0,0.7,0.6,1.3,1.3,1.3h2.2c0.7,0,1.3-0.6,1.3-1.3S75.9,270,75.1,270z"/>
	<path class="st3" d="M65,259.2h-2.2c-0.7,0-1.3,0.6-1.3,1.3c0,0.7,0.6,1.3,1.3,1.3H65c0.7,0,1.3-0.6,1.3-1.3
		C66.3,259.8,65.8,259.2,65,259.2z"/>
	<path class="st3" d="M58.6,263.5h-2.2c-0.7,0-1.3,0.6-1.3,1.3c0,0.7,0.6,1.3,1.3,1.3h2.2c0.7,0,1.3-0.6,1.3-1.3
		C59.9,264.1,59.3,263.5,58.6,263.5z"/>
	<path class="st3" d="M65,263.5h-2.2c-0.7,0-1.3,0.6-1.3,1.3c0,0.7,0.6,1.3,1.3,1.3H65c0.7,0,1.3-0.6,1.3-1.3S65.8,263.5,65,263.5z"
		/>
	<path class="st3" d="M58.6,267.8h-2.2c-0.7,0-1.3,0.6-1.3,1.3s0.6,1.3,1.3,1.3h2.2c0.7,0,1.3-0.6,1.3-1.3S59.3,267.8,58.6,267.8z"
		/>
	<path class="st3" d="M65,267.8h-2.2c-0.7,0-1.3,0.6-1.3,1.3s0.6,1.3,1.3,1.3H65c0.7,0,1.3-0.6,1.3-1.3S65.8,267.8,65,267.8z"/>
</g>
<g class="st8">
	<path class="st3" d="M232.2,573.7c0.7,0,1.3-0.6,1.3-1.3v-21.6c0-0.7-0.6-1.3-1.3-1.3h-8.1v-0.9c0-0.5-0.3-0.9-0.7-1.2l-7.9-4v-2.5
		l5.6-1.9c0.5-0.2,0.9-0.7,0.9-1.2c0-0.6-0.4-1.1-0.9-1.2l-6.5-2.2c-0.4-0.1-0.8-0.1-1.2,0.2c-0.3,0.2-0.5,0.6-0.5,1.1v7.8l-7.9,4
		c-0.4,0.2-0.7,0.7-0.7,1.2v0.9H196c-0.7,0-1.3,0.6-1.3,1.3v21.6c0,0.7,0.6,1.3,1.3,1.3L232.2,573.7L232.2,573.7z M215.4,538.5v-1.4
		l2.9,0.7L215.4,538.5z M197.2,552.1h7v19h-7V552.1z M206.8,549.4l7.3-3.7l7.3,3.7V571h-14.7L206.8,549.4L206.8,549.4z M230.9,571.1
		h-6.8v-19h6.8V571.1z"/>
	<path class="st3" d="M212.1,551.6h-2.2c-0.7,0-1.3,0.6-1.3,1.3s0.6,1.3,1.3,1.3h2.2c0.7,0,1.3-0.6,1.3-1.3
		C213.4,552.2,212.8,551.6,212.1,551.6z"/>
	<path class="st3" d="M199.8,556.4h2.2c0.7,0,1.3-0.6,1.3-1.3s-0.6-1.3-1.3-1.3h-2.2c-0.7,0-1.3,0.6-1.3,1.3
		C198.5,555.8,199.1,556.4,199.8,556.4z"/>
	<path class="st3" d="M202,558.1h-2.2c-0.7,0-1.3,0.6-1.3,1.3s0.6,1.3,1.3,1.3h2.2c0.7,0,1.3-0.6,1.3-1.3S202.7,558.1,202,558.1z"/>
	<path class="st3" d="M202,562.4h-2.2c-0.7,0-1.3,0.6-1.3,1.3s0.6,1.3,1.3,1.3h2.2c0.7,0,1.3-0.6,1.3-1.3S202.7,562.4,202,562.4z"/>
	<path class="st3" d="M226.5,556.4h2.2c0.7,0,1.3-0.6,1.3-1.3s-0.6-1.3-1.3-1.3h-2.2c-0.7,0-1.3,0.6-1.3,1.3
		C225.2,555.8,225.8,556.4,226.5,556.4z"/>
	<path class="st3" d="M226.5,560.7h2.2c0.7,0,1.3-0.6,1.3-1.3s-0.6-1.3-1.3-1.3h-2.2c-0.7,0-1.3,0.6-1.3,1.3
		S225.8,560.7,226.5,560.7z"/>
	<path class="st3" d="M228.7,562.4h-2.2c-0.7,0-1.3,0.6-1.3,1.3s0.6,1.3,1.3,1.3h2.2c0.7,0,1.3-0.6,1.3-1.3S229.4,562.4,228.7,562.4
		z"/>
	<path class="st3" d="M218.6,551.6h-2.2c-0.7,0-1.3,0.6-1.3,1.3s0.6,1.3,1.3,1.3h2.2c0.7,0,1.3-0.6,1.3-1.3
		C219.9,552.2,219.3,551.6,218.6,551.6z"/>
	<path class="st3" d="M212.1,555.9h-2.2c-0.7,0-1.3,0.6-1.3,1.3s0.6,1.3,1.3,1.3h2.2c0.7,0,1.3-0.6,1.3-1.3S212.8,555.9,212.1,555.9
		z"/>
	<path class="st3" d="M218.6,555.9h-2.2c-0.7,0-1.3,0.6-1.3,1.3s0.6,1.3,1.3,1.3h2.2c0.7,0,1.3-0.6,1.3-1.3S219.3,555.9,218.6,555.9
		z"/>
	<path class="st3" d="M212.1,560.3h-2.2c-0.7,0-1.3,0.6-1.3,1.3s0.6,1.3,1.3,1.3h2.2c0.7,0,1.3-0.6,1.3-1.3S212.8,560.3,212.1,560.3
		z"/>
	<path class="st3" d="M218.6,560.3h-2.2c-0.7,0-1.3,0.6-1.3,1.3s0.6,1.3,1.3,1.3h2.2c0.7,0,1.3-0.6,1.3-1.3S219.3,560.3,218.6,560.3
		z"/>
</g>
<g class="st8">
	<path class="st3" d="M377.1,281.2c0.7,0,1.3-0.6,1.3-1.3v-21.6c0-0.7-0.6-1.3-1.3-1.3H369v-0.9c0-0.5-0.3-0.9-0.7-1.2l-7.9-4v-2.5
		l5.6-1.9c0.5-0.2,0.9-0.7,0.9-1.2c0-0.6-0.4-1.1-0.9-1.2l-6.5-2.2c-0.4-0.1-0.8-0.1-1.2,0.2c-0.3,0.2-0.5,0.6-0.5,1.1v7.8l-7.9,4
		c-0.4,0.2-0.7,0.7-0.7,1.2v0.9h-8.3c-0.7,0-1.3,0.6-1.3,1.3V280c0,0.7,0.6,1.3,1.3,1.3L377.1,281.2L377.1,281.2z M360.3,246.1v-1.4
		l2.9,0.7L360.3,246.1z M342.1,259.6h7v19h-7V259.6z M351.7,257l7.3-3.7l7.3,3.7v21.6h-14.7V257H351.7z M375.8,278.6H369v-19h6.8
		V278.6z"/>
	<path class="st3" d="M357,259.2h-2.2c-0.7,0-1.3,0.6-1.3,1.3c0,0.7,0.6,1.3,1.3,1.3h2.2c0.7,0,1.3-0.6,1.3-1.3
		C358.3,259.8,357.7,259.2,357,259.2z"/>
	<path class="st3" d="M344.7,264h2.2c0.7,0,1.3-0.6,1.3-1.3c0-0.7-0.6-1.3-1.3-1.3h-2.2c-0.7,0-1.3,0.6-1.3,1.3
		C343.4,263.4,344,264,344.7,264z"/>
	<path class="st3" d="M346.9,265.7h-2.2c-0.7,0-1.3,0.6-1.3,1.3c0,0.7,0.6,1.3,1.3,1.3h2.2c0.7,0,1.3-0.6,1.3-1.3
		C348.2,266.3,347.6,265.7,346.9,265.7z"/>
	<path class="st3" d="M346.9,270h-2.2c-0.7,0-1.3,0.6-1.3,1.3c0,0.7,0.6,1.3,1.3,1.3h2.2c0.7,0,1.3-0.6,1.3-1.3
		C348.2,270.6,347.6,270,346.9,270z"/>
	<path class="st3" d="M371.4,264h2.2c0.7,0,1.3-0.6,1.3-1.3c0-0.7-0.6-1.3-1.3-1.3h-2.2c-0.7,0-1.3,0.6-1.3,1.3S370.7,264,371.4,264
		z"/>
	<path class="st3" d="M371.4,268.3h2.2c0.7,0,1.3-0.6,1.3-1.3c0-0.7-0.6-1.3-1.3-1.3h-2.2c-0.7,0-1.3,0.6-1.3,1.3
		C370.1,267.7,370.7,268.3,371.4,268.3z"/>
	<path class="st3" d="M373.6,270h-2.2c-0.7,0-1.3,0.6-1.3,1.3c0,0.7,0.6,1.3,1.3,1.3h2.2c0.7,0,1.3-0.6,1.3-1.3S374.3,270,373.6,270
		z"/>
	<path class="st3" d="M363.5,259.2h-2.2c-0.7,0-1.3,0.6-1.3,1.3c0,0.7,0.6,1.3,1.3,1.3h2.2c0.7,0,1.3-0.6,1.3-1.3
		C364.8,259.8,364.2,259.2,363.5,259.2z"/>
	<path class="st3" d="M357,263.5h-2.2c-0.7,0-1.3,0.6-1.3,1.3c0,0.7,0.6,1.3,1.3,1.3h2.2c0.7,0,1.3-0.6,1.3-1.3
		S357.7,263.5,357,263.5z"/>
	<path class="st3" d="M363.5,263.5h-2.2c-0.7,0-1.3,0.6-1.3,1.3c0,0.7,0.6,1.3,1.3,1.3h2.2c0.7,0,1.3-0.6,1.3-1.3
		S364.2,263.5,363.5,263.5z"/>
	<path class="st3" d="M357,267.8h-2.2c-0.7,0-1.3,0.6-1.3,1.3s0.6,1.3,1.3,1.3h2.2c0.7,0,1.3-0.6,1.3-1.3S357.7,267.8,357,267.8z"/>
	<path class="st3" d="M363.5,267.8h-2.2c-0.7,0-1.3,0.6-1.3,1.3s0.6,1.3,1.3,1.3h2.2c0.7,0,1.3-0.6,1.3-1.3S364.2,267.8,363.5,267.8
		z"/>
</g>
<polygon id="XMLID_63_" class="st9" points="350.7,792.3 352.2,792.3 352.2,790 356,790 356,802.3 352.2,802.3 352.2,798.9 
	354.7,798.9 354.7,793.6 344.4,793.6 344.4,798.9 346.8,798.9 346.8,802.3 343.1,802.3 343.1,790 346.9,790 346.9,792.3 
	348.4,792.3 348.4,788.4 341.5,788.4 341.5,803.9 348.4,803.9 348.4,797.3 346,797.3 346,795.2 353.1,795.2 353.1,797.3 
	350.7,797.3 350.7,803.9 357.6,803.9 357.6,788.4 350.7,788.4 "/>
<g>
	<g>
		<g>
			<path class="st3" d="M234,751.3c0.2-0.5,0.3-1,0.1-1.5s-0.5-0.9-1-1.2l-4.5-2.3c-0.1-0.1-0.2-0.2-0.3-0.4l-0.8-5
				c-0.2-1-1-1.7-2-1.7c-0.1,0-0.2,0-0.3,0l-5,0.8c-0.2,0-0.3,0-0.4-0.1l-3.6-3.6c-0.4-0.4-0.9-0.6-1.4-0.6s-1,0.2-1.4,0.6l-3.6,3.6
				c-0.1,0.1-0.3,0.2-0.4,0.1l-5-0.8c-0.1,0-0.2,0-0.3,0c-1,0-1.8,0.7-2,1.7l-0.8,5c0,0.2-0.1,0.3-0.3,0.4l-4.5,2.3
				c-0.5,0.2-0.8,0.7-1,1.2s-0.1,1.1,0.1,1.5l2.3,4.5c0.1,0.1,0.1,0.3,0,0.5l-2.3,4.5c-0.2,0.5-0.3,1-0.1,1.5s0.5,0.9,1,1.2l4.5,2.3
				c0.1,0.1,0.2,0.2,0.3,0.4l0.8,5c0.2,1,1,1.7,2,1.7c0.1,0,0.2,0,0.3,0l5-0.8c0.2,0,0.3,0,0.4,0.1l3.6,3.6c0.4,0.4,0.9,0.6,1.4,0.6
				s1-0.2,1.4-0.6l3.6-3.6c0.1-0.1,0.3-0.2,0.4-0.1l5,0.8c0.1,0,0.2,0,0.3,0c1,0,1.8-0.7,2-1.7l0.8-5c0-0.2,0.1-0.3,0.3-0.4l4.5-2.3
				c0.5-0.2,0.8-0.7,1-1.2s0.1-1.1-0.1-1.5l-2.3-4.5c-0.1-0.1-0.1-0.3,0-0.5L234,751.3z M230.4,756.9l2.3,4.5c0.1,0.1,0.1,0.3,0,0.4
				c0,0.1-0.1,0.2-0.3,0.3l-4.5,2.3c-0.6,0.3-1,0.8-1.1,1.5l-0.8,5c0,0.3-0.3,0.5-0.6,0.4l-5-0.8c-0.1,0-0.2,0-0.3,0
				c-0.5,0-1,0.2-1.4,0.6l-3.6,3.6c-0.2,0.2-0.5,0.2-0.7,0L211,771c-0.4-0.4-0.9-0.6-1.4-0.6c-0.1,0-0.2,0-0.3,0l-5,0.8
				c-0.3,0-0.5-0.2-0.6-0.4l-0.8-5c-0.1-0.6-0.5-1.2-1.1-1.5l-4.5-2.3c-0.1-0.1-0.2-0.2-0.3-0.3c0-0.1,0-0.3,0-0.4l2.3-4.5
				c0.3-0.6,0.3-1.3,0-1.8l-2.3-4.5c-0.1-0.1-0.1-0.3,0-0.4s0.1-0.2,0.3-0.3l4.5-2.3c0.6-0.3,1-0.8,1.1-1.5l0.8-5
				c0-0.3,0.3-0.5,0.6-0.4l5,0.8c0.1,0,0.2,0,0.3,0l0,0c0.5,0,1-0.2,1.4-0.6l3.6-3.6c0.2-0.2,0.5-0.2,0.7,0l3.6,3.6
				c0.4,0.5,1.1,0.7,1.7,0.6l5-0.8c0.3,0,0.5,0.2,0.6,0.4l0.8,5c0.1,0.6,0.5,1.2,1.1,1.5l4.5,2.3c0.1,0.1,0.2,0.2,0.3,0.3
				c0,0.1,0,0.3,0,0.4l-2.3,4.5C230.1,755.6,230.1,756.3,230.4,756.9z"/>
			<path class="st3" d="M220.8,747.5c0.1,0.1,0.3,0.1,0.4,0.1c0.2,0,0.5-0.1,0.6-0.3c0.2-0.3,0.1-0.8-0.2-1s-0.8-0.1-1,0.2
				C220.4,746.8,220.5,747.2,220.8,747.5z"/>
			<path class="st3" d="M223.2,749.4c0.2,0,0.4-0.1,0.5-0.2c0.3-0.3,0.3-0.7,0.1-1.1c-0.3-0.3-0.8-0.3-1.1-0.1
				c-0.3,0.3-0.3,0.7-0.1,1.1C222.8,749.3,223,749.4,223.2,749.4z"/>
			<path class="st3" d="M218.6,765.6c-0.4,0.1-0.6,0.6-0.4,1c0.1,0.3,0.4,0.5,0.7,0.5c0.1,0,0.2,0,0.3,0c0.4-0.1,0.6-0.6,0.4-1
				C219.4,765.7,219,765.5,218.6,765.6z"/>
			<path class="st3" d="M220.8,764.4c-0.3,0.2-0.4,0.7-0.2,1c0.1,0.2,0.4,0.3,0.6,0.3c0.1,0,0.3,0,0.4-0.1c0.3-0.2,0.4-0.7,0.2-1
				C221.6,764.3,221.2,764.2,220.8,764.4z"/>
			<path class="st3" d="M211.3,765.6c-0.4-0.1-0.8,0-1,0.4s0,0.8,0.4,1c0.1,0,0.2,0,0.3,0c0.3,0,0.6-0.2,0.7-0.5
				C211.9,766.2,211.7,765.8,211.3,765.6z"/>
			<path class="st3" d="M216.2,766.2c-0.4,0-0.7,0.4-0.7,0.8c0,0.4,0.4,0.7,0.7,0.7h0.1c0.4,0,0.7-0.4,0.7-0.8
				C217,766.4,216.6,766.1,216.2,766.2z"/>
			<path class="st3" d="M213.7,766.2L213.7,766.2c-0.4,0-0.8,0.2-0.8,0.7c0,0.4,0.2,0.8,0.7,0.8h0.1c0.4,0,0.7-0.3,0.7-0.7
				S214.1,766.3,213.7,766.2z"/>
			<path class="st3" d="M225,753.5L225,753.5c0.1,0.3,0.4,0.6,0.7,0.6c0.1,0,0.1,0,0.2,0c0.4-0.1,0.6-0.5,0.5-0.9s-0.5-0.6-0.9-0.5
				C225.1,752.7,224.9,753.1,225,753.5z"/>
			<path class="st3" d="M226,755.2c-0.4,0-0.8,0.3-0.8,0.8s0.3,0.8,0.8,0.7c0.4,0,0.8-0.3,0.7-0.8
				C226.8,755.5,226.4,755.2,226,755.2z"/>
			<path class="st3" d="M225.9,757.9c-0.4-0.1-0.8,0.1-0.9,0.5c-0.1,0.4,0.1,0.8,0.5,0.9c0.1,0,0.1,0,0.2,0c0.3,0,0.6-0.2,0.7-0.6
				C226.5,758.4,226.3,758,225.9,757.9z"/>
			<path class="st3" d="M224.7,751.6c0.1,0,0.2,0,0.3-0.1c0.4-0.2,0.5-0.6,0.3-1s-0.6-0.5-1-0.3s-0.5,0.6-0.3,1
				C224.2,751.4,224.5,751.6,224.7,751.6z"/>
			<path class="st3" d="M222.7,762.8c-0.3,0.3-0.2,0.8,0.1,1.1c0.1,0.1,0.3,0.2,0.5,0.2s0.4-0.1,0.6-0.3c0.3-0.3,0.2-0.8-0.1-1.1
				C223.4,762.4,222.9,762.5,222.7,762.8z"/>
			<path class="st3" d="M225.1,760.4c-0.4-0.2-0.8,0-1,0.3c-0.2,0.4,0,0.8,0.3,1c0.1,0.1,0.2,0.1,0.3,0.1c0.3,0,0.5-0.1,0.7-0.4
				C225.6,761.1,225.5,760.6,225.1,760.4z"/>
			<path class="st3" d="M206.7,749.4c0.2,0,0.4-0.1,0.6-0.2c0.3-0.3,0.2-0.8-0.1-1.1s-0.8-0.2-1.1,0.1s-0.2,0.8,0.1,1.1
				C206.3,749.3,206.5,749.4,206.7,749.4z"/>
			<path class="st3" d="M204.8,760.5c-0.4,0.2-0.5,0.6-0.3,1c0.1,0.3,0.4,0.4,0.7,0.4c0.1,0,0.2,0,0.3-0.1c0.4-0.2,0.5-0.6,0.3-1
				S205.2,760.3,204.8,760.5z"/>
			<path class="st3" d="M204.9,758.5c-0.1-0.4-0.5-0.6-0.9-0.5s-0.6,0.5-0.5,0.9c0.1,0.3,0.4,0.6,0.7,0.6c0.1,0,0.1,0,0.2,0
				C204.8,759.3,205,758.9,204.9,758.5z"/>
			<path class="st3" d="M204,754c0.1,0,0.1,0,0.2,0c0.3,0,0.6-0.2,0.7-0.6c0.1-0.4-0.1-0.8-0.5-0.9c-0.4-0.1-0.8,0.1-0.9,0.5
				C203.4,753.5,203.6,753.9,204,754z"/>
			<path class="st3" d="M203.9,756.7c0.4,0,0.7-0.3,0.7-0.8l0,0l0,0c0-0.4-0.3-0.8-0.8-0.8c-0.4,0-0.7,0.3-0.7,0.8l0,0l0,0
				C203.1,756.4,203.5,756.7,203.9,756.7L203.9,756.7z"/>
			<path class="st3" d="M204.8,751.5c0.1,0.1,0.2,0.1,0.3,0.1c0.3,0,0.5-0.1,0.7-0.4c0.2-0.4,0-0.8-0.3-1c-0.4-0.2-0.8,0-1,0.3
				C204.3,750.8,204.4,751.3,204.8,751.5z"/>
			<path class="st3" d="M206.2,762.8c-0.3,0.3-0.3,0.8-0.1,1.1c0.1,0.2,0.4,0.2,0.6,0.2c0.2,0,0.4-0.1,0.5-0.2
				c0.3-0.3,0.3-0.8,0.1-1.1C207,762.5,206.5,762.5,206.2,762.8z"/>
			<path class="st3" d="M213.6,745.7L213.6,745.7c0.5-0.1,0.8-0.4,0.7-0.8c0-0.4-0.4-0.7-0.8-0.7s-0.7,0.4-0.7,0.8
				C212.9,745.4,213.2,745.7,213.6,745.7z"/>
			<path class="st3" d="M216.2,745.7L216.2,745.7c0.5,0,0.8-0.3,0.8-0.7s-0.2-0.8-0.7-0.8c-0.4,0-0.8,0.2-0.8,0.7
				C215.5,745.3,215.8,745.7,216.2,745.7z"/>
			<path class="st3" d="M218.6,746.3c0.1,0,0.2,0,0.3,0c0.3,0,0.6-0.2,0.7-0.5c0.1-0.4,0-0.8-0.4-1c-0.4-0.1-0.8,0-1,0.4
				S218.2,746.2,218.6,746.3z"/>
			<path class="st3" d="M211,746.4c0.1,0,0.2,0,0.3,0c0.4-0.1,0.6-0.6,0.4-1c-0.1-0.4-0.6-0.6-1-0.4l0,0c-0.4,0.1-0.6,0.6-0.4,1
				C210.4,746.2,210.7,746.4,211,746.4z"/>
			<path class="st3" d="M209.1,764.5c-0.3-0.2-0.8-0.1-1,0.2s-0.1,0.8,0.2,1c0.1,0.1,0.3,0.1,0.4,0.1c0.2,0,0.5-0.1,0.6-0.3
				C209.5,765.2,209.4,764.7,209.1,764.5z"/>
			<path class="st3" d="M208.6,747.6c0.1,0,0.3,0,0.4-0.1c0.3-0.2,0.4-0.7,0.2-1s-0.7-0.4-1-0.2s-0.4,0.7-0.2,1
				C208.2,747.5,208.4,747.6,208.6,747.6z"/>
		</g>
	</g>
	<g>
		<path class="st3" d="M200.3,760h29.3c1.7,0,3.1-1.4,3.1-3.1c0-1.2-0.7-2.2-1.7-2.7v-3.4c0-0.4-0.2-0.8-0.6-0.9l-15-7.2
			c-0.3-0.1-0.6-0.1-0.9,0l-15,7.2c-0.4,0.2-0.6,0.5-0.6,0.9v3.4c-1,0.5-1.7,1.5-1.7,2.7C197.2,758.7,198.6,760,200.3,760z
			 M214.9,747.8c1.1,0,2,0.9,2,2s-0.9,2-2,2s-2-0.9-2-2S213.8,747.8,214.9,747.8z"/>
		<path class="st3" d="M229.4,771.6h-0.5l0.4-4c0.1-1.2,0.1-2.4,0-3.6l-0.2-1.9h-6.8l-0.2,1.9c-0.1,1.2-0.1,2.4,0,3.6l0.4,4H218
			l0.4-4c0.1-1.2,0.1-2.4,0-3.6l-0.2-1.9h-6.8l-0.2,1.9c-0.1,1.2-0.1,2.4,0,3.6l0.4,4h-4.5l0.4-4c0.1-1.2,0.1-2.4,0-3.6l-0.2-1.9
			h-6.8l-0.2,1.9c-0.1,1.2-0.1,2.4,0,3.6l0.4,4h-0.5c-1.8,0-3.2,1.5-3.2,3.2s1.5,3.2,3.2,3.2h29c1.8,0,3.2-1.5,3.2-3.2
			S231.2,771.6,229.4,771.6z"/>
	</g>
</g>
<g>
	<path d="M6.9,113.8H8v3.8c0.5,0,0.9-0.1,1.1-0.3s0.5-0.7,0.8-1.5c0.2-0.6,0.4-1,0.6-1.2s0.4-0.4,0.7-0.6s0.6-0.2,0.9-0.2
		c0.4,0,0.7,0,0.7,0v1c0,0-0.1,0-0.2,0c-0.1,0-0.2,0-0.2,0c-0.4,0-0.6,0.1-0.8,0.3c-0.2,0.2-0.4,0.6-0.6,1.1
		c-0.3,0.7-0.5,1.2-0.7,1.4s-0.4,0.3-0.7,0.5c0.6,0.2,1.1,0.7,1.6,1.5l1.8,2.9h-1.4l-1.4-2.3c-0.4-0.6-0.7-1.1-1-1.3s-0.6-0.4-1-0.4
		v4H6.9V113.8z"/>
	<path d="M13.4,119.3c0-1.2,0.3-2,1-2.6c0.5-0.5,1.2-0.7,2-0.7c0.9,0,1.6,0.3,2.1,0.8s0.8,1.3,0.8,2.3c0,0.8-0.1,1.4-0.4,1.9
		s-0.6,0.8-1,1.1s-1,0.4-1.5,0.4c-0.9,0-1.6-0.3-2.1-0.8S13.4,120.3,13.4,119.3z M14.4,119.3c0,0.8,0.2,1.4,0.5,1.8s0.8,0.6,1.3,0.6
		c0.5,0,1-0.2,1.3-0.6s0.5-1,0.5-1.8s-0.2-1.4-0.5-1.7s-0.8-0.6-1.3-0.6c-0.5,0-1,0.2-1.3,0.6S14.4,118.5,14.4,119.3z"/>
	<path d="M20.4,116.2h1.1v2.6h2.9v-2.6h1.1v6.2h-1.1v-2.8h-2.9v2.8h-1.1V116.2z"/>
	<path d="M26.5,116.2h5.1v0.9h-2v5.3h-1v-5.3h-2v-0.9H26.5z"/>
	<path d="M32.5,124.8v-8.6h1v0.8c0.2-0.3,0.5-0.6,0.8-0.7s0.6-0.2,1-0.2c0.5,0,1,0.1,1.4,0.4s0.7,0.7,0.9,1.2s0.3,1,0.3,1.6
		s-0.1,1.2-0.3,1.7s-0.6,0.9-1,1.2s-0.9,0.4-1.4,0.4c-0.4,0-0.7-0.1-0.9-0.2s-0.5-0.3-0.7-0.6v3C33.6,124.8,32.5,124.8,32.5,124.8z
		 M33.5,119.3c0,0.8,0.2,1.4,0.5,1.8s0.7,0.6,1.2,0.6s0.9-0.2,1.2-0.6s0.5-1,0.5-1.8s-0.2-1.4-0.5-1.8s-0.7-0.6-1.2-0.6
		c-0.4,0-0.8,0.2-1.2,0.6S33.5,118.5,33.5,119.3z"/>
	<path d="M38.8,119.3c0-1.2,0.3-2,1-2.6c0.5-0.5,1.2-0.7,2-0.7c0.9,0,1.6,0.3,2.1,0.8s0.8,1.3,0.8,2.3c0,0.8-0.1,1.4-0.4,1.9
		s-0.6,0.8-1,1.1s-1,0.4-1.5,0.4c-0.9,0-1.6-0.3-2.1-0.8S38.8,120.3,38.8,119.3z M39.9,119.3c0,0.8,0.2,1.4,0.5,1.8s0.8,0.6,1.3,0.6
		s1-0.2,1.3-0.6s0.5-1,0.5-1.8s-0.2-1.4-0.5-1.7s-0.8-0.6-1.3-0.6s-1,0.2-1.3,0.6S39.9,118.5,39.9,119.3z"/>
	<path d="M46.1,116.2H51v6.2h-1v-5.3h-2.8v3.1c0,0.7,0,1.2-0.1,1.4s-0.2,0.4-0.4,0.6s-0.5,0.3-0.9,0.3c-0.2,0-0.5,0-0.8,0v-0.9h0.5
		c0.2,0,0.4,0,0.5-0.1s0.2-0.1,0.2-0.2s0-0.4,0-1v-4.1H46.1z"/>
	<path d="M52.6,116.2h1.1v2.4H55c0.9,0,1.5,0.2,2,0.5s0.7,0.8,0.7,1.4c0,0.5-0.2,1-0.6,1.3s-1,0.6-1.9,0.6h-2.6V116.2z M53.7,121.5
		h1.1c0.7,0,1.1-0.1,1.4-0.2s0.4-0.4,0.4-0.8c0-0.3-0.1-0.5-0.3-0.7s-0.7-0.3-1.4-0.3h-1.2V121.5z"/>
	<path d="M58.9,116.2H60v2.6h2.9v-2.6H64v6.2h-1.1v-2.8H60v2.8h-1.1V116.2z"/>
	<path d="M69.6,121.6c-0.4,0.3-0.8,0.6-1.1,0.7s-0.7,0.2-1.2,0.2c-0.7,0-1.2-0.2-1.6-0.5s-0.6-0.8-0.6-1.3c0-0.3,0.1-0.6,0.2-0.8
		s0.3-0.5,0.5-0.6s0.5-0.3,0.8-0.3c0.2-0.1,0.5-0.1,0.9-0.2c0.9-0.1,1.5-0.2,1.9-0.4c0-0.1,0-0.2,0-0.3c0-0.4-0.1-0.7-0.3-0.9
		c-0.3-0.2-0.7-0.4-1.2-0.4s-0.9,0.1-1.1,0.3s-0.4,0.5-0.5,0.9l-1-0.1c0.1-0.4,0.2-0.8,0.5-1.1s0.5-0.5,0.9-0.6s0.9-0.2,1.4-0.2
		s1,0.1,1.3,0.2s0.6,0.3,0.7,0.5s0.3,0.4,0.3,0.7c0,0.2,0.1,0.5,0.1,1v1.4c0,1,0,1.6,0.1,1.9s0.1,0.5,0.3,0.7h-1.1
		C69.7,122.2,69.6,121.9,69.6,121.6z M69.5,119.3c-0.4,0.2-1,0.3-1.7,0.4c-0.4,0.1-0.7,0.1-0.9,0.2s-0.3,0.2-0.4,0.3
		s-0.1,0.3-0.1,0.5c0,0.3,0.1,0.5,0.3,0.7s0.5,0.3,0.9,0.3s0.8-0.1,1.1-0.3s0.5-0.4,0.7-0.7c0.1-0.2,0.2-0.6,0.2-1.1L69.5,119.3
		L69.5,119.3z"/>
	<path d="M77.1,116.2v6.2h-1V120h-0.6c-0.4,0-0.6,0-0.8,0.1s-0.4,0.4-0.8,0.9l-0.9,1.4h-1.3l1.1-1.7c0.3-0.5,0.7-0.8,1-0.9
		c-0.6-0.1-1-0.3-1.3-0.7s-0.4-0.8-0.4-1.2c0-0.5,0.2-1,0.6-1.3s0.9-0.5,1.7-0.5L77.1,116.2L77.1,116.2z M76,117.1h-1.5
		c-0.6,0-1,0.1-1.2,0.3s-0.3,0.4-0.3,0.7c0,0.4,0.1,0.6,0.4,0.8s0.7,0.3,1.4,0.3H76V117.1z"/>
	<path d="M82,116.2h1.1v2.7c0.3,0,0.6-0.1,0.7-0.2s0.3-0.5,0.6-1.1c0.2-0.5,0.4-0.8,0.5-1s0.3-0.3,0.4-0.3s0.4-0.1,0.8-0.1h0.2v0.9
		H86c-0.3,0-0.5,0-0.5,0.1c-0.1,0.1-0.2,0.3-0.4,0.8c-0.2,0.4-0.3,0.7-0.4,0.8s-0.3,0.3-0.6,0.4c0.5,0.1,0.9,0.5,1.3,1.3l1.2,1.9
		h-1.2l-1.1-1.9c-0.2-0.4-0.4-0.6-0.6-0.8s-0.4-0.2-0.6-0.2v2.9H82V116.2z"/>
	<path d="M87,119.3c0-1.2,0.3-2,1-2.6c0.5-0.5,1.2-0.7,2-0.7c0.9,0,1.6,0.3,2.1,0.8s0.8,1.3,0.8,2.3c0,0.8-0.1,1.4-0.4,1.9
		s-0.6,0.8-1,1.1s-1,0.4-1.5,0.4c-0.9,0-1.6-0.3-2.1-0.8S87,120.3,87,119.3z M88.1,119.3c0,0.8,0.2,1.4,0.5,1.8s0.8,0.6,1.3,0.6
		s1-0.2,1.3-0.6s0.5-1,0.5-1.8s-0.2-1.4-0.5-1.7s-0.8-0.6-1.3-0.6s-1,0.2-1.3,0.6S88.1,118.5,88.1,119.3z"/>
	<path d="M94.1,116.2h1.6l1.6,5l1.8-5h1.5v6.2h-1.1v-5l-1.8,5h-0.9l-1.7-5.3v5.3h-1V116.2z"/>
	<path d="M102.3,116.2h4.9v6.2h-1.1v-5.3h-2.8v5.3h-1.1L102.3,116.2L102.3,116.2z"/>
	<path d="M112.9,121.6c-0.4,0.3-0.8,0.6-1.1,0.7s-0.7,0.2-1.2,0.2c-0.7,0-1.2-0.2-1.6-0.5s-0.6-0.8-0.6-1.3c0-0.3,0.1-0.6,0.2-0.8
		s0.3-0.5,0.5-0.6s0.5-0.3,0.8-0.3c0.2-0.1,0.5-0.1,0.9-0.2c0.9-0.1,1.5-0.2,1.9-0.4c0-0.1,0-0.2,0-0.3c0-0.4-0.1-0.7-0.3-0.9
		c-0.3-0.2-0.7-0.4-1.2-0.4s-0.9,0.1-1.1,0.3s-0.4,0.5-0.5,0.9l-1-0.1c0.1-0.4,0.2-0.8,0.5-1.1s0.5-0.5,0.9-0.6s0.9-0.2,1.4-0.2
		s1,0.1,1.3,0.2s0.6,0.3,0.7,0.5s0.3,0.4,0.3,0.7c0,0.2,0.1,0.5,0.1,1v1.4c0,1,0,1.6,0.1,1.9s0.1,0.5,0.3,0.7h-1.1
		C113,122.2,112.9,121.9,112.9,121.6z M112.8,119.3c-0.4,0.2-1,0.3-1.7,0.4c-0.4,0.1-0.7,0.1-0.9,0.2s-0.3,0.2-0.4,0.3
		s-0.1,0.3-0.1,0.5c0,0.3,0.1,0.5,0.3,0.7s0.5,0.3,0.9,0.3s0.8-0.1,1.1-0.3s0.5-0.4,0.7-0.7c0.1-0.2,0.2-0.6,0.2-1.1L112.8,119.3
		L112.8,119.3z"/>
	<path d="M115.5,116.2h1.1v2.6h2.9v-2.6h1.1v6.2h-1.1v-2.8h-2.9v2.8h-1.1V116.2z"/>
	<path d="M122.1,116.2h1.1v4.7l2.9-4.7h1.1v6.2h-1.1v-4.7l-2.9,4.7h-1.1V116.2z"/>
	<path d="M133.7,116.2v6.2h-1V120h-0.6c-0.4,0-0.6,0-0.8,0.1s-0.4,0.4-0.8,0.9l-0.9,1.4h-1.3l1.1-1.7c0.3-0.5,0.7-0.8,1-0.9
		c-0.6-0.1-1-0.3-1.3-0.7s-0.4-0.8-0.4-1.2c0-0.5,0.2-1,0.6-1.3s0.9-0.5,1.7-0.5L133.7,116.2L133.7,116.2z M132.7,117.1h-1.5
		c-0.6,0-1,0.1-1.2,0.3s-0.3,0.4-0.3,0.7c0,0.4,0.1,0.6,0.4,0.8s0.7,0.3,1.4,0.3h1.2L132.7,117.1L132.7,117.1z"/>
	<path d="M138.9,122.4v-8.6h5.8v1H140v2.7h4v1h-4v3.9H138.9z"/>
	<path d="M152.3,119.4l1.1,0.3c-0.2,0.9-0.7,1.6-1.3,2.1s-1.4,0.7-2.3,0.7c-0.9,0-1.7-0.2-2.3-0.6s-1-0.9-1.3-1.6s-0.5-1.5-0.5-2.3
		c0-0.9,0.2-1.7,0.5-2.3s0.8-1.2,1.5-1.5s1.3-0.5,2.1-0.5c0.9,0,1.6,0.2,2.2,0.7s1,1.1,1.2,1.8l-1.1,0.3c-0.2-0.6-0.5-1.1-0.9-1.4
		s-0.9-0.4-1.4-0.4c-0.7,0-1.2,0.2-1.7,0.5s-0.8,0.7-0.9,1.3s-0.3,1.1-0.3,1.6c0,0.7,0.1,1.4,0.3,1.9s0.5,1,1,1.2s0.9,0.4,1.5,0.4
		s1.2-0.2,1.6-0.6S152.1,120.1,152.3,119.4z"/>
	<path d="M153.8,122.4l3.3-8.6h1.2l3.5,8.6h-1.3l-1-2.6h-3.6l-0.9,2.6H153.8z M156.3,118.9h2.9l-0.9-2.4c-0.3-0.7-0.5-1.3-0.6-1.8
		c-0.1,0.6-0.3,1.1-0.5,1.6L156.3,118.9z"/>
	<path d="M3.1,128.2h1.1v3.8c0.5,0,0.9-0.1,1.1-0.3c0.2-0.2,0.5-0.7,0.8-1.5c0.2-0.6,0.4-1,0.6-1.2s0.4-0.4,0.7-0.6
		c0.3-0.2,0.6-0.2,0.9-0.2c0.4,0,0.7,0,0.7,0v1c0,0-0.1,0-0.2,0c-0.1,0-0.2,0-0.2,0c-0.4,0-0.6,0.1-0.8,0.3
		c-0.2,0.1-0.4,0.5-0.7,1.1c-0.3,0.7-0.5,1.2-0.7,1.4c-0.2,0.2-0.4,0.3-0.7,0.5c0.6,0.2,1.1,0.7,1.6,1.5l1.8,2.9H7.7l-1.4-2.3
		c-0.4-0.6-0.7-1.1-1-1.3c-0.3-0.2-0.6-0.4-1-0.4v4H3.1V128.2z"/>
	<path d="M9.5,133.7c0-1.2,0.3-2,1-2.6c0.5-0.5,1.2-0.7,2-0.7c0.9,0,1.6,0.3,2.1,0.8s0.8,1.3,0.8,2.3c0,0.8-0.1,1.4-0.4,1.9
		s-0.6,0.8-1,1.1s-1,0.4-1.5,0.4c-0.9,0-1.6-0.3-2.1-0.8S9.5,134.7,9.5,133.7z M10.6,133.7c0,0.8,0.2,1.4,0.5,1.8s0.8,0.6,1.3,0.6
		s1-0.2,1.3-0.6s0.5-1,0.5-1.8s-0.2-1.4-0.5-1.7c-0.3-0.3-0.8-0.6-1.3-0.6s-1,0.2-1.3,0.6C10.8,132.4,10.6,132.9,10.6,133.7z"/>
	<path d="M16.6,130.6h1.6l1.6,5l1.8-5h1.5v6.2H22v-5l-1.8,5h-0.9l-1.7-5.3v5.3h-1V130.6z"/>
	<path d="M24.9,130.6h4.9v6.2h-1.1v-5.3h-2.8v5.3h-1.1v-6.2H24.9z"/>
	<path d="M35.4,136c-0.4,0.3-0.8,0.6-1.1,0.7s-0.7,0.2-1.2,0.2c-0.7,0-1.2-0.2-1.6-0.5s-0.6-0.8-0.6-1.3c0-0.3,0.1-0.6,0.2-0.8
		s0.3-0.5,0.5-0.6s0.5-0.3,0.8-0.3c0.2-0.1,0.5-0.1,0.9-0.2c0.9-0.1,1.5-0.2,1.9-0.4c0-0.1,0-0.2,0-0.3c0-0.4-0.1-0.7-0.3-0.9
		c-0.3-0.2-0.7-0.4-1.2-0.4s-0.9,0.1-1.1,0.3c-0.2,0.2-0.4,0.5-0.5,0.9l-1-0.1c0.1-0.4,0.2-0.8,0.5-1.1c0.3-0.3,0.5-0.5,0.9-0.6
		c0.4-0.1,0.9-0.2,1.4-0.2s1,0.1,1.3,0.2c0.3,0.1,0.6,0.3,0.7,0.5s0.3,0.4,0.3,0.7c0,0.2,0.1,0.5,0.1,1v1.4c0,1,0,1.6,0.1,1.9
		s0.1,0.5,0.3,0.7h-1.1C35.5,136.6,35.5,136.3,35.4,136z M35.3,133.7c-0.4,0.2-1,0.3-1.7,0.4c-0.4,0.1-0.7,0.1-0.9,0.2
		s-0.3,0.2-0.4,0.3s-0.1,0.3-0.1,0.5c0,0.3,0.1,0.5,0.3,0.7s0.5,0.3,0.9,0.3s0.8-0.1,1.1-0.3s0.5-0.4,0.7-0.7
		c0.1-0.2,0.2-0.6,0.2-1.1L35.3,133.7L35.3,133.7z"/>
	<path d="M38,130.6h1.1v2.6H42v-2.6h1.1v6.2H42V134h-2.9v2.8H38V130.6z"/>
	<path d="M44.7,130.6h1.1v4.7l2.9-4.7h1.1v6.2h-1.1v-4.7l-2.9,4.7h-1.1V130.6z"/>
	<path d="M56.3,130.6v6.2h-1v-2.4h-0.6c-0.4,0-0.6,0-0.8,0.1s-0.4,0.4-0.8,0.9l-0.9,1.4h-1.3l1.1-1.7c0.3-0.5,0.7-0.8,1-0.9
		c-0.6-0.1-1-0.3-1.3-0.7s-0.4-0.8-0.4-1.2c0-0.5,0.2-1,0.6-1.3s0.9-0.5,1.7-0.5L56.3,130.6L56.3,130.6z M55.2,131.5h-1.5
		c-0.6,0-1,0.1-1.2,0.3c-0.2,0.2-0.3,0.4-0.3,0.7c0,0.4,0.1,0.6,0.4,0.8c0.3,0.2,0.7,0.3,1.4,0.3h1.2
		C55.2,133.6,55.2,131.5,55.2,131.5z"/>
	<path d="M60.8,133.7c0-1.2,0.3-2,1-2.6c0.5-0.5,1.2-0.7,2-0.7c0.9,0,1.6,0.3,2.1,0.8s0.8,1.3,0.8,2.3c0,0.8-0.1,1.4-0.4,1.9
		s-0.6,0.8-1,1.1s-1,0.4-1.5,0.4c-0.9,0-1.6-0.3-2.1-0.8S60.8,134.7,60.8,133.7z M61.9,133.7c0,0.8,0.2,1.4,0.5,1.8s0.8,0.6,1.3,0.6
		c0.5,0,1-0.2,1.3-0.6s0.5-1,0.5-1.8s-0.2-1.4-0.5-1.7c-0.3-0.3-0.8-0.6-1.3-0.6c-0.5,0-1,0.2-1.3,0.6
		C62.1,132.4,61.9,132.9,61.9,133.7z"/>
	<path d="M67,130.6h5.1v0.9h-2v5.3h-1v-5.3h-2L67,130.6L67,130.6z"/>
	<path d="M72.7,130.6h1.1v1.2c0,0.5,0,0.9,0.1,1.1s0.2,0.4,0.4,0.6s0.5,0.3,0.9,0.3s0.9-0.1,1.5-0.3v-2.9h1.1v6.2h-1.1v-2.5
		c-0.6,0.2-1.3,0.3-1.8,0.3s-0.9-0.1-1.3-0.4s-0.6-0.5-0.7-0.9c-0.1-0.4-0.2-0.7-0.2-1.1V130.6z"/>
	<path d="M83.6,134.8l1.1,0.1c-0.2,0.6-0.5,1.1-1,1.5s-1.1,0.5-1.8,0.5c-0.9,0-1.6-0.3-2.2-0.8s-0.8-1.3-0.8-2.4
		c0-1,0.3-1.9,0.8-2.4s1.2-0.9,2.1-0.9c0.8,0,1.5,0.3,2,0.8s0.8,1.4,0.8,2.4c0,0.1,0,0.2,0,0.3h-4.5c0,0.7,0.2,1.2,0.6,1.6
		s0.8,0.5,1.3,0.5c0.4,0,0.7-0.1,1-0.3S83.5,135.2,83.6,134.8z M80.2,133.1h3.5c0-0.5-0.2-0.9-0.4-1.2c-0.3-0.4-0.8-0.6-1.3-0.6
		s-0.9,0.2-1.2,0.5S80.2,132.5,80.2,133.1z"/>
	<path d="M85.1,130.6h5v0.9h-2v5.3h-1v-5.3h-2V130.6z"/>
	<path d="M91.1,130.6h1.1v2.6h2.9v-2.6h1.1v6.2h-1.1V134h-2.9v2.8h-1.1V130.6z"/>
	<path d="M97.4,133.7c0-1.2,0.3-2,1-2.6c0.5-0.5,1.2-0.7,2-0.7c0.9,0,1.6,0.3,2.1,0.8s0.8,1.3,0.8,2.3c0,0.8-0.1,1.4-0.4,1.9
		s-0.6,0.8-1,1.1s-1,0.4-1.5,0.4c-0.9,0-1.6-0.3-2.1-0.8S97.4,134.7,97.4,133.7z M98.4,133.7c0,0.8,0.2,1.4,0.5,1.8s0.8,0.6,1.3,0.6
		s1-0.2,1.3-0.6s0.5-1,0.5-1.8s-0.2-1.4-0.5-1.7c-0.3-0.3-0.8-0.6-1.3-0.6s-1,0.2-1.3,0.6C98.6,132.4,98.4,132.9,98.4,133.7z"/>
	<path d="M108.5,134.5l1,0.1c-0.1,0.7-0.4,1.3-0.9,1.7s-1,0.6-1.7,0.6c-0.9,0-1.5-0.3-2.1-0.8s-0.8-1.4-0.8-2.4
		c0-0.7,0.1-1.3,0.3-1.8s0.6-0.9,1-1.1s1-0.4,1.5-0.4c0.7,0,1.2,0.2,1.7,0.5s0.7,0.8,0.8,1.5l-1,0.2c-0.1-0.4-0.3-0.7-0.5-0.9
		c-0.2-0.2-0.5-0.3-0.9-0.3c-0.5,0-1,0.2-1.3,0.6c-0.3,0.4-0.5,1-0.5,1.8s0.2,1.4,0.5,1.8s0.7,0.6,1.3,0.6c0.4,0,0.8-0.1,1-0.4
		S108.4,135,108.5,134.5z"/>
	<path d="M109.9,130.6h5.1v0.9h-2v5.3h-1v-5.3h-2L109.9,130.6L109.9,130.6z"/>
	<path d="M115.9,130.6h1.1v4.7l2.9-4.7h1.1v6.2h-1.1v-4.7l-2.9,4.7h-1.1V130.6z"/>
	<path d="M125.2,136.8l3.3-8.6h1.2l3.5,8.6h-1.3l-1-2.6h-3.6l-0.9,2.6H125.2z M127.6,133.3h2.9l-0.9-2.4c-0.3-0.7-0.5-1.3-0.6-1.8
		c-0.1,0.6-0.3,1.1-0.5,1.6L127.6,133.3z"/>
	<path d="M134,130.6h1.1v2.6h2.9v-2.6h1.1v6.2H138V134h-2.9v2.8H134V130.6z"/>
	<path d="M140.6,130.6h1.1v2.4h1.3c0.9,0,1.5,0.2,2,0.5s0.7,0.8,0.7,1.4c0,0.5-0.2,1-0.6,1.3s-1,0.6-1.9,0.6h-2.6V130.6z
		 M141.6,135.9h1.1c0.7,0,1.1-0.1,1.4-0.2s0.4-0.4,0.4-0.8c0-0.3-0.1-0.5-0.3-0.7s-0.7-0.3-1.4-0.3h-1.2V135.9z"/>
	<path d="M146.9,130.6h1.1v2.6h1.3c0.1-0.9,0.4-1.6,0.8-2c0.4-0.4,1.1-0.7,1.8-0.7c0.6,0,1.1,0.1,1.5,0.4s0.7,0.6,0.9,1
		c0.2,0.4,0.4,1,0.4,1.8c0,1.1-0.2,1.9-0.7,2.4s-1.2,0.8-2,0.8s-1.4-0.3-1.9-0.8s-0.7-1.2-0.8-2.1H148v2.8h-1.1V130.6z M151.9,131.3
		c-0.5,0-0.9,0.2-1.2,0.6c-0.3,0.4-0.4,1-0.4,1.7c0,0.9,0.1,1.5,0.4,1.9s0.7,0.6,1.2,0.6s0.9-0.2,1.2-0.6s0.5-1,0.5-1.8
		s-0.1-1.4-0.4-1.8C152.9,131.5,152.4,131.3,151.9,131.3z"/>
	<path d="M155.9,130.6h1.1v2.6h2.9v-2.6h1.1v6.2h-1.1V134H157v2.8h-1.1V130.6z"/>
</g>
<g>
	<path d="M278.2,109.4h1.1v3.8c0.5,0,0.9-0.1,1.1-0.3s0.5-0.7,0.8-1.5c0.2-0.6,0.4-1,0.6-1.2c0.2-0.2,0.4-0.4,0.7-0.6
		c0.3-0.2,0.6-0.2,0.9-0.2c0.4,0,0.7,0,0.7,0v1c0,0-0.1,0-0.2,0s-0.2,0-0.2,0c-0.4,0-0.6,0.1-0.8,0.3c-0.2,0.2-0.4,0.6-0.6,1.1
		c-0.3,0.7-0.5,1.2-0.7,1.4c-0.2,0.2-0.4,0.3-0.7,0.5c0.6,0.2,1.1,0.7,1.6,1.5l1.8,2.9h-1.4l-1.4-2.3c-0.4-0.6-0.7-1.1-1-1.3
		c-0.3-0.2-0.6-0.4-1-0.4v4h-1.1v-8.7H278.2z"/>
	<path d="M284.6,114.9c0-1.2,0.3-2,1-2.6c0.5-0.5,1.2-0.7,2-0.7c0.9,0,1.6,0.3,2.1,0.8s0.8,1.3,0.8,2.3c0,0.8-0.1,1.4-0.4,1.9
		c-0.3,0.5-0.6,0.8-1,1.1c-0.4,0.3-1,0.4-1.5,0.4c-0.9,0-1.6-0.3-2.1-0.8S284.6,115.9,284.6,114.9z M285.7,114.9
		c0,0.8,0.2,1.4,0.5,1.8c0.3,0.4,0.8,0.6,1.3,0.6s1-0.2,1.3-0.6s0.5-1,0.5-1.8s-0.2-1.4-0.5-1.7s-0.8-0.6-1.3-0.6s-1,0.2-1.3,0.6
		C285.9,113.6,285.7,114.1,285.7,114.9z"/>
	<path d="M291.7,111.8h1.1v2.6h2.9v-2.6h1v6.2h-1v-2.8h-2.9v2.8h-1.1V111.8z"/>
	<path d="M297.8,111.8h5.1v0.9h-2v5.3h-1v-5.3h-2v-0.9H297.8z"/>
	<path d="M303.8,120.4v-8.6h1v0.8c0.2-0.3,0.5-0.6,0.8-0.7c0.3-0.1,0.6-0.2,1-0.2c0.5,0,1,0.1,1.4,0.4c0.4,0.3,0.7,0.7,0.9,1.2
		s0.3,1,0.3,1.6s-0.1,1.2-0.3,1.7s-0.6,0.9-1,1.2s-0.9,0.4-1.4,0.4c-0.4,0-0.7-0.1-0.9-0.2c-0.2-0.1-0.5-0.3-0.7-0.6v3L303.8,120.4
		L303.8,120.4z M304.8,114.9c0,0.8,0.2,1.4,0.5,1.8s0.7,0.6,1.2,0.6s0.9-0.2,1.2-0.6c0.3-0.4,0.5-1,0.5-1.8s-0.2-1.4-0.5-1.8
		c-0.3-0.4-0.7-0.6-1.2-0.6c-0.4,0-0.8,0.2-1.2,0.6S304.8,114.1,304.8,114.9z"/>
	<path d="M310.1,114.9c0-1.2,0.3-2,1-2.6c0.5-0.5,1.2-0.7,2-0.7c0.9,0,1.6,0.3,2.1,0.8s0.8,1.3,0.8,2.3c0,0.8-0.1,1.4-0.4,1.9
		c-0.3,0.5-0.6,0.8-1,1.1c-0.4,0.3-1,0.4-1.5,0.4c-0.9,0-1.6-0.3-2.1-0.8S310.1,115.9,310.1,114.9z M311.2,114.9
		c0,0.8,0.2,1.4,0.5,1.8c0.3,0.4,0.8,0.6,1.3,0.6s1-0.2,1.3-0.6s0.5-1,0.5-1.8s-0.2-1.4-0.5-1.7s-0.8-0.6-1.3-0.6s-1,0.2-1.3,0.6
		C311.4,113.6,311.2,114.1,311.2,114.9z"/>
	<path d="M317.4,111.8h4.9v6.2h-1v-5.3h-2.8v3.1c0,0.7,0,1.2-0.1,1.4s-0.2,0.4-0.4,0.6c-0.2,0.2-0.5,0.3-0.9,0.3c-0.2,0-0.5,0-0.8,0
		v-0.9h0.4c0.2,0,0.4,0,0.5-0.1c0.1-0.1,0.2-0.1,0.2-0.2s0-0.4,0-1V111.8z"/>
	<path d="M323.9,111.8h1.1v2.4h1.3c0.9,0,1.5,0.2,2,0.5s0.7,0.8,0.7,1.4c0,0.5-0.2,1-0.6,1.3s-1,0.6-1.9,0.6h-2.6V111.8z
		 M324.9,117.1h1.1c0.7,0,1.1-0.1,1.4-0.2c0.3-0.1,0.4-0.4,0.4-0.8c0-0.3-0.1-0.5-0.3-0.7c-0.2-0.2-0.7-0.3-1.4-0.3h-1.2V117.1z"/>
	<path d="M330.2,111.8h1.1v2.6h2.9v-2.6h1.1v6.2h-1.1v-2.8h-2.9v2.8h-1.1V111.8z"/>
	<path d="M340.8,117.2c-0.4,0.3-0.8,0.6-1.1,0.7c-0.3,0.1-0.7,0.2-1.2,0.2c-0.7,0-1.2-0.2-1.6-0.5s-0.6-0.8-0.6-1.3
		c0-0.3,0.1-0.6,0.2-0.8s0.3-0.5,0.5-0.6c0.2-0.1,0.5-0.3,0.8-0.3c0.2-0.1,0.5-0.1,0.9-0.2c0.9-0.1,1.5-0.2,1.9-0.4
		c0-0.1,0-0.2,0-0.3c0-0.4-0.1-0.7-0.3-0.9c-0.3-0.2-0.7-0.4-1.2-0.4s-0.9,0.1-1.1,0.3c-0.2,0.2-0.4,0.5-0.5,0.9l-1-0.1
		c0.1-0.4,0.2-0.8,0.5-1.1c0.3-0.3,0.5-0.5,0.9-0.6c0.4-0.1,0.9-0.2,1.4-0.2s1,0.1,1.3,0.2c0.3,0.1,0.6,0.3,0.7,0.5
		c0.1,0.2,0.3,0.4,0.3,0.7c0,0.2,0.1,0.5,0.1,1v1.4c0,1,0,1.6,0.1,1.9c0.1,0.3,0.1,0.5,0.3,0.7H341
		C340.9,117.8,340.9,117.5,340.8,117.2z M340.8,114.9c-0.4,0.2-1,0.3-1.7,0.4c-0.4,0.1-0.7,0.1-0.9,0.2c-0.2,0.1-0.3,0.2-0.4,0.3
		s-0.1,0.3-0.1,0.5c0,0.3,0.1,0.5,0.3,0.7s0.5,0.3,0.9,0.3s0.8-0.1,1.1-0.3s0.5-0.4,0.7-0.7c0.1-0.2,0.2-0.6,0.2-1.1v-0.3H340.8z"/>
	<path d="M348.4,111.8v6.2h-1v-2.4h-0.7c-0.4,0-0.6,0-0.8,0.1s-0.4,0.4-0.8,0.9l-0.9,1.4h-1.3l1.1-1.7c0.3-0.5,0.7-0.8,1-0.9
		c-0.6-0.1-1-0.3-1.3-0.7c-0.3-0.4-0.4-0.8-0.4-1.2c0-0.5,0.2-1,0.6-1.3c0.4-0.3,0.9-0.5,1.7-0.5h2.8V111.8z M347.3,112.6h-1.5
		c-0.6,0-1,0.1-1.2,0.3c-0.2,0.2-0.3,0.4-0.3,0.7c0,0.4,0.1,0.6,0.4,0.8c0.3,0.2,0.7,0.3,1.4,0.3h1.2V112.6z"/>
	<path d="M353.3,111.8h1.1v2.7c0.3,0,0.6-0.1,0.7-0.2c0.1-0.1,0.3-0.5,0.6-1.1c0.2-0.5,0.4-0.8,0.5-1s0.3-0.3,0.4-0.3
		c0.1,0,0.4-0.1,0.8-0.1h0.2v0.9h-0.3c-0.3,0-0.5,0-0.5,0.1c-0.1,0.1-0.2,0.3-0.4,0.8c-0.2,0.4-0.3,0.7-0.4,0.8
		c-0.1,0.1-0.3,0.3-0.6,0.4c0.5,0.1,0.9,0.5,1.3,1.3l1.2,1.9h-1.2l-1.1-1.9c-0.2-0.4-0.4-0.6-0.6-0.8c-0.2-0.2-0.4-0.2-0.6-0.2v2.9
		h-1.1C353.3,118,353.3,111.8,353.3,111.8z"/>
	<path d="M358.3,114.9c0-1.2,0.3-2,1-2.6c0.5-0.5,1.2-0.7,2-0.7c0.9,0,1.6,0.3,2.1,0.8s0.8,1.3,0.8,2.3c0,0.8-0.1,1.4-0.4,1.9
		c-0.3,0.5-0.6,0.8-1,1.1s-1,0.4-1.5,0.4c-0.9,0-1.6-0.3-2.1-0.8S358.3,115.9,358.3,114.9z M359.4,114.9c0,0.8,0.2,1.4,0.5,1.8
		c0.3,0.4,0.8,0.6,1.3,0.6s1-0.2,1.3-0.6c0.3-0.4,0.5-1,0.5-1.8s-0.2-1.4-0.5-1.7c-0.3-0.3-0.8-0.6-1.3-0.6s-1,0.2-1.3,0.6
		C359.6,113.6,359.4,114.1,359.4,114.9z"/>
	<path d="M365.4,111.8h1.6l1.6,5l1.8-5h1.5v6.2h-1.1v-5l-1.8,5h-0.9l-1.7-5.3v5.3h-1V111.8z"/>
	<path d="M373.6,111.8h4.9v6.2h-1.1v-5.3h-2.7v5.3h-1.1V111.8z"/>
	<path d="M384.2,117.2c-0.4,0.3-0.8,0.6-1.1,0.7c-0.3,0.1-0.7,0.2-1.2,0.2c-0.7,0-1.2-0.2-1.6-0.5c-0.4-0.3-0.6-0.8-0.6-1.3
		c0-0.3,0.1-0.6,0.2-0.8s0.3-0.5,0.5-0.6c0.2-0.1,0.5-0.3,0.8-0.3c0.2-0.1,0.5-0.1,0.9-0.2c0.9-0.1,1.5-0.2,1.9-0.4
		c0-0.1,0-0.2,0-0.3c0-0.4-0.1-0.7-0.3-0.9c-0.3-0.2-0.7-0.4-1.2-0.4s-0.9,0.1-1.1,0.3c-0.2,0.2-0.4,0.5-0.5,0.9l-1-0.1
		c0.1-0.4,0.2-0.8,0.5-1.1c0.3-0.3,0.5-0.5,0.9-0.6c0.4-0.1,0.9-0.2,1.4-0.2s1,0.1,1.3,0.2c0.3,0.1,0.6,0.3,0.7,0.5s0.3,0.4,0.3,0.7
		c0,0.2,0.1,0.5,0.1,1v1.4c0,1,0,1.6,0.1,1.9s0.1,0.5,0.3,0.7h-1.1C384.3,117.8,384.2,117.5,384.2,117.2z M384.1,114.9
		c-0.4,0.2-1,0.3-1.7,0.4c-0.4,0.1-0.7,0.1-0.9,0.2s-0.3,0.2-0.4,0.3c-0.1,0.1-0.1,0.3-0.1,0.5c0,0.3,0.1,0.5,0.3,0.7
		c0.2,0.2,0.5,0.3,0.9,0.3c0.4,0,0.8-0.1,1.1-0.3c0.3-0.2,0.5-0.4,0.7-0.7c0.1-0.2,0.2-0.6,0.2-1.1L384.1,114.9L384.1,114.9z"/>
	<path d="M386.8,111.8h1.1v2.6h2.9v-2.6h1.1v6.2h-1.1v-2.8h-2.9v2.8h-1.1V111.8z"/>
	<path d="M393.4,111.8h1.1v4.7l2.9-4.7h1.1v6.2h-1.1v-4.7l-2.9,4.7h-1.1C393.4,118,393.4,111.8,393.4,111.8z"/>
	<path d="M405,111.8v6.2h-1v-2.4h-0.6c-0.4,0-0.6,0-0.8,0.1c-0.2,0.1-0.4,0.4-0.8,0.9l-0.9,1.4h-1.3l1.1-1.7c0.3-0.5,0.7-0.8,1-0.9
		c-0.6-0.1-1-0.3-1.3-0.7c-0.3-0.4-0.4-0.8-0.4-1.2c0-0.5,0.2-1,0.6-1.3c0.4-0.3,0.9-0.5,1.7-0.5h2.7V111.8z M403.9,112.6h-1.5
		c-0.6,0-1,0.1-1.2,0.3c-0.2,0.2-0.3,0.4-0.3,0.7c0,0.4,0.1,0.6,0.4,0.8s0.7,0.3,1.4,0.3h1.2L403.9,112.6L403.9,112.6z"/>
	<path d="M321.5,123.8h1.1v3.8c0.5,0,0.9-0.1,1.1-0.3c0.2-0.2,0.5-0.7,0.8-1.5c0.2-0.6,0.4-1,0.6-1.2c0.2-0.2,0.4-0.4,0.7-0.6
		s0.6-0.2,0.9-0.2c0.4,0,0.7,0,0.7,0v1c0,0-0.1,0-0.2,0s-0.2,0-0.2,0c-0.4,0-0.6,0.1-0.8,0.3c-0.2,0.2-0.4,0.6-0.6,1.1
		c-0.3,0.7-0.5,1.2-0.7,1.4c-0.2,0.2-0.4,0.3-0.7,0.5c0.6,0.2,1.1,0.7,1.6,1.5l1.8,2.9h-1.4l-1.4-2.3c-0.4-0.6-0.7-1.1-1-1.3
		c-0.3-0.2-0.6-0.4-1-0.4v4h-1.1v-8.7H321.5z"/>
	<path d="M332.4,131.6c-0.4,0.3-0.8,0.6-1.1,0.7s-0.7,0.2-1.2,0.2c-0.7,0-1.2-0.2-1.6-0.5s-0.6-0.8-0.6-1.3c0-0.3,0.1-0.6,0.2-0.8
		s0.3-0.5,0.5-0.6c0.2-0.1,0.5-0.3,0.8-0.3c0.2-0.1,0.5-0.1,0.9-0.2c0.9-0.1,1.5-0.2,1.9-0.4c0-0.1,0-0.2,0-0.3
		c0-0.4-0.1-0.7-0.3-0.9c-0.3-0.2-0.7-0.4-1.2-0.4s-0.9,0.1-1.1,0.3c-0.2,0.2-0.4,0.5-0.5,0.9l-1-0.1c0.1-0.4,0.2-0.8,0.5-1.1
		c0.3-0.3,0.5-0.5,0.9-0.6s0.9-0.2,1.4-0.2s1,0.1,1.3,0.2c0.3,0.1,0.6,0.3,0.7,0.5c0.1,0.2,0.3,0.4,0.3,0.7c0,0.2,0.1,0.5,0.1,1v1.4
		c0,1,0,1.6,0.1,1.9c0.1,0.3,0.1,0.5,0.3,0.7h-1.1C332.5,132.2,332.4,131.9,332.4,131.6z M332.3,129.3c-0.4,0.2-1,0.3-1.7,0.4
		c-0.4,0.1-0.7,0.1-0.9,0.2c-0.2,0.1-0.3,0.2-0.4,0.3s-0.1,0.3-0.1,0.5c0,0.3,0.1,0.5,0.3,0.7c0.2,0.2,0.5,0.3,0.9,0.3
		s0.8-0.1,1.1-0.3c0.3-0.2,0.5-0.4,0.7-0.7c0.1-0.2,0.2-0.6,0.2-1.1v-0.3H332.3z"/>
	<path d="M335,126.2h1.1v4.7l2.9-4.7h1.1v6.2H339v-4.7l-2.9,4.7H335V126.2z M338.7,123.8h0.7c-0.1,0.5-0.2,0.9-0.5,1.1
		c-0.3,0.2-0.7,0.4-1.2,0.4s-0.9-0.1-1.2-0.4s-0.5-0.6-0.5-1.1h0.7c0.1,0.3,0.2,0.5,0.3,0.6s0.4,0.2,0.7,0.2c0.3,0,0.6-0.1,0.7-0.2
		S338.6,124.1,338.7,123.8z"/>
	<path d="M341.7,126.2h1.6l1.6,5l1.8-5h1.5v6.2h-1.1v-5l-1.8,5h-0.9l-1.7-5.3v5.3h-1V126.2z"/>
	<path d="M354,131.6c-0.4,0.3-0.8,0.6-1.1,0.7s-0.7,0.2-1.2,0.2c-0.7,0-1.2-0.2-1.6-0.5s-0.6-0.8-0.6-1.3c0-0.3,0.1-0.6,0.2-0.8
		c0.1-0.2,0.3-0.5,0.5-0.6c0.2-0.1,0.5-0.3,0.8-0.3c0.2-0.1,0.5-0.1,0.9-0.2c0.9-0.1,1.5-0.2,1.9-0.4c0-0.1,0-0.2,0-0.3
		c0-0.4-0.1-0.7-0.3-0.9c-0.3-0.2-0.7-0.4-1.2-0.4s-0.9,0.1-1.1,0.3c-0.2,0.2-0.4,0.5-0.5,0.9l-1-0.1c0.1-0.4,0.2-0.8,0.5-1.1
		c0.3-0.3,0.5-0.5,0.9-0.6s0.9-0.2,1.4-0.2s1,0.1,1.3,0.2c0.3,0.1,0.6,0.3,0.7,0.5c0.1,0.2,0.3,0.4,0.3,0.7c0,0.2,0.1,0.5,0.1,1v1.4
		c0,1,0,1.6,0.1,1.9c0.1,0.3,0.1,0.5,0.3,0.7h-1.1C354.1,132.2,354.1,131.9,354,131.6z M353.9,129.3c-0.4,0.2-1,0.3-1.7,0.4
		c-0.4,0.1-0.7,0.1-0.9,0.2s-0.3,0.2-0.4,0.3s-0.1,0.3-0.1,0.5c0,0.3,0.1,0.5,0.3,0.7c0.2,0.2,0.5,0.3,0.9,0.3s0.8-0.1,1.1-0.3
		c0.3-0.2,0.5-0.4,0.7-0.7c0.1-0.2,0.2-0.6,0.2-1.1v-0.3H353.9z"/>
	<path d="M356.6,126.2h1.1v2.6h2.9v-2.6h1.1v6.2h-1.1v-2.8h-2.9v2.8h-1.1V126.2z"/>
	<path d="M268.3,138.2h1.1v3.8c0.5,0,0.9-0.1,1.1-0.3c0.2-0.2,0.5-0.7,0.8-1.5c0.2-0.6,0.4-1,0.6-1.2s0.4-0.4,0.7-0.6
		c0.3-0.2,0.6-0.2,0.9-0.2c0.4,0,0.7,0,0.7,0v1c0,0-0.1,0-0.2,0s-0.2,0-0.2,0c-0.4,0-0.6,0.1-0.8,0.3c-0.2,0.2-0.4,0.6-0.6,1.1
		c-0.3,0.7-0.5,1.2-0.7,1.4c-0.2,0.2-0.4,0.3-0.7,0.5c0.6,0.2,1.1,0.7,1.6,1.5l1.8,2.9h-1.5l-1.4-2.3c-0.4-0.6-0.7-1.1-1-1.3
		c-0.3-0.2-0.6-0.4-1-0.4v4h-1.2V138.2z"/>
	<path d="M274.7,143.7c0-1.2,0.3-2,1-2.6c0.5-0.5,1.2-0.7,2-0.7c0.9,0,1.6,0.3,2.1,0.8s0.8,1.3,0.8,2.3c0,0.8-0.1,1.4-0.4,1.9
		c-0.3,0.5-0.6,0.8-1,1.1c-0.4,0.3-1,0.4-1.5,0.4c-0.9,0-1.6-0.3-2.1-0.8S274.7,144.7,274.7,143.7z M275.8,143.7
		c0,0.8,0.2,1.4,0.5,1.8c0.3,0.4,0.8,0.6,1.3,0.6s1-0.2,1.3-0.6s0.5-1,0.5-1.8s-0.2-1.4-0.5-1.7s-0.7-0.7-1.2-0.7s-1,0.2-1.3,0.6
		S275.8,142.9,275.8,143.7z"/>
	<path d="M281.8,140.6h1.6l1.6,5l1.8-5h1.5v6.2h-1.1v-5l-1.8,5h-0.9l-1.7-5.3v5.3h-1V140.6z"/>
	<path d="M290.1,140.6h4.9v6.2h-1.1v-5.3h-2.8v5.3H290v-6.2H290.1z"/>
	<path d="M300.6,146c-0.4,0.3-0.8,0.6-1.1,0.7c-0.3,0.1-0.7,0.2-1.2,0.2c-0.7,0-1.2-0.2-1.6-0.5c-0.4-0.3-0.6-0.8-0.6-1.3
		c0-0.3,0.1-0.6,0.2-0.8s0.3-0.5,0.5-0.6c0.2-0.1,0.5-0.3,0.8-0.3c0.2-0.1,0.5-0.1,0.9-0.2c0.9-0.1,1.5-0.2,1.9-0.4
		c0-0.1,0-0.2,0-0.3c0-0.4-0.1-0.7-0.3-0.9c-0.3-0.2-0.7-0.4-1.2-0.4s-0.9,0.1-1.1,0.3c-0.2,0.2-0.4,0.5-0.5,0.9l-1-0.1
		c0.1-0.4,0.2-0.8,0.5-1.1c0.3-0.3,0.5-0.5,0.9-0.6c0.4-0.1,0.9-0.2,1.4-0.2s1,0.1,1.3,0.2c0.3,0.1,0.6,0.3,0.7,0.5s0.3,0.4,0.3,0.7
		c0,0.2,0.1,0.5,0.1,1v1.4c0,1,0,1.6,0.1,1.9c0.1,0.3,0.1,0.5,0.3,0.7h-1.1C300.7,146.6,300.6,146.3,300.6,146z M300.5,143.7
		c-0.4,0.2-1,0.3-1.7,0.4c-0.4,0.1-0.7,0.1-0.9,0.2c-0.2,0.1-0.3,0.2-0.4,0.3c-0.1,0.1-0.1,0.3-0.1,0.5c0,0.3,0.1,0.5,0.3,0.7
		c0.2,0.2,0.5,0.3,0.9,0.3c0.4,0,0.8-0.1,1.1-0.3c0.3-0.2,0.5-0.4,0.7-0.7c0.1-0.2,0.2-0.6,0.2-1.1L300.5,143.7L300.5,143.7z"/>
	<path d="M303.2,140.6h1.1v2.6h2.9v-2.6h1.1v6.2h-1.1V144h-2.9v2.8h-1.1V140.6z"/>
	<path d="M309.9,140.6h1.1v4.7l2.9-4.7h1.1v6.2h-1.1v-4.7l-2.9,4.7h-1.1V140.6z"/>
	<path d="M321.5,140.6v6.2h-1v-2.4h-0.6c-0.4,0-0.6,0-0.8,0.1c-0.2,0.1-0.4,0.4-0.8,0.9l-0.9,1.4h-1.3l1.1-1.7
		c0.3-0.5,0.7-0.8,1-0.9c-0.6-0.1-1-0.3-1.3-0.7s-0.4-0.8-0.4-1.2c0-0.5,0.2-1,0.6-1.3c0.4-0.3,0.9-0.5,1.7-0.5h2.7V140.6z
		 M320.4,141.4h-1.5c-0.6,0-1,0.1-1.2,0.3c-0.2,0.2-0.3,0.4-0.3,0.7c0,0.4,0.1,0.6,0.4,0.8c0.3,0.2,0.7,0.3,1.4,0.3h1.2
		C320.4,143.5,320.4,141.4,320.4,141.4z"/>
	<path d="M326,143.7c0-1.2,0.3-2,1-2.6c0.5-0.5,1.2-0.7,2-0.7c0.9,0,1.6,0.3,2.1,0.8s0.8,1.3,0.8,2.3c0,0.8-0.1,1.4-0.4,1.9
		c-0.3,0.5-0.6,0.8-1,1.1s-1,0.4-1.5,0.4c-0.9,0-1.6-0.3-2.1-0.8S326,144.7,326,143.7z M327.1,143.7c0,0.8,0.2,1.4,0.5,1.8
		c0.3,0.4,0.8,0.6,1.3,0.6s1-0.2,1.3-0.6c0.3-0.4,0.5-1,0.5-1.8s-0.2-1.4-0.5-1.7c-0.3-0.3-0.8-0.6-1.3-0.6s-1,0.2-1.3,0.6
		C327.3,142.4,327.1,142.9,327.1,143.7z"/>
	<path d="M332.2,140.6h5.1v0.9h-2v5.3h-1v-5.3h-2v-0.9H332.2z"/>
	<path d="M337.9,140.6h1.1v1.2c0,0.5,0,0.9,0.1,1.1c0.1,0.2,0.2,0.4,0.4,0.6c0.2,0.2,0.5,0.3,0.9,0.3s0.9-0.1,1.5-0.3v-2.8h1.1v6.2
		h-1.1v-2.6c-0.6,0.2-1.3,0.3-1.8,0.3s-0.9-0.1-1.3-0.4s-0.6-0.5-0.7-0.9c-0.1-0.4-0.2-0.7-0.2-1.1V140.6z"/>
	<path d="M348.8,144.8l1.1,0.1c-0.2,0.6-0.5,1.1-1,1.5s-1.1,0.5-1.8,0.5c-0.9,0-1.6-0.3-2.2-0.8s-0.8-1.3-0.8-2.4
		c0-1,0.3-1.9,0.8-2.4s1.2-0.9,2.1-0.9c0.8,0,1.5,0.3,2,0.8s0.8,1.4,0.8,2.4c0,0.1,0,0.2,0,0.3h-4.6c0,0.7,0.2,1.2,0.6,1.6
		s0.8,0.5,1.3,0.5c0.4,0,0.7-0.1,1-0.3C348.4,145.5,348.6,145.2,348.8,144.8z M345.3,143.1h3.5c0-0.5-0.2-0.9-0.4-1.2
		c-0.3-0.4-0.8-0.6-1.3-0.6s-0.9,0.2-1.2,0.5S345.4,142.5,345.3,143.1z"/>
	<path d="M350.3,140.6h5.1v0.9h-2v5.3h-1v-5.3h-2v-0.9H350.3z"/>
	<path d="M356.3,140.6h1.1v2.6h2.9v-2.6h1.1v6.2h-1.1V144h-2.9v2.8h-1.1V140.6z"/>
	<path d="M362.6,143.7c0-1.2,0.3-2,1-2.6c0.5-0.5,1.2-0.7,2-0.7c0.9,0,1.6,0.3,2.1,0.8s0.8,1.3,0.8,2.3c0,0.8-0.1,1.4-0.4,1.9
		c-0.3,0.5-0.6,0.8-1,1.1c-0.4,0.3-1,0.4-1.5,0.4c-0.9,0-1.6-0.3-2.1-0.8S362.6,144.7,362.6,143.7z M363.6,143.7
		c0,0.8,0.2,1.4,0.5,1.8c0.3,0.4,0.8,0.6,1.3,0.6s1-0.2,1.3-0.6c0.3-0.4,0.5-1,0.5-1.8s-0.2-1.4-0.5-1.7c-0.3-0.3-0.8-0.6-1.3-0.6
		s-1,0.2-1.3,0.6C363.8,142.4,363.6,142.9,363.6,143.7z"/>
	<path d="M373.7,144.5l1,0.1c-0.1,0.7-0.4,1.3-0.9,1.7s-1,0.6-1.7,0.6c-0.9,0-1.5-0.3-2.1-0.8s-0.8-1.4-0.8-2.4
		c0-0.7,0.1-1.3,0.3-1.8s0.6-0.9,1-1.1s1-0.4,1.5-0.4c0.7,0,1.2,0.2,1.7,0.5s0.7,0.8,0.8,1.5l-1,0.2c-0.1-0.4-0.3-0.7-0.5-0.9
		c-0.2-0.2-0.5-0.3-0.9-0.3c-0.5,0-1,0.2-1.3,0.6c-0.3,0.4-0.5,1-0.5,1.8s0.2,1.4,0.5,1.8c0.3,0.4,0.7,0.6,1.3,0.6
		c0.4,0,0.8-0.1,1-0.4C373.3,145.5,373.6,145,373.7,144.5z"/>
	<path d="M375,140.6h5.1v0.9h-2v5.3h-1v-5.3h-2v-0.9H375z"/>
	<path d="M381.1,140.6h1.1v4.7l2.9-4.7h1.1v6.2h-1.1v-4.7l-2.9,4.7h-1.1V140.6z"/>
	<path d="M394.6,146.8v-8.6h3.2c0.6,0,1,0,1.3,0.1c0.4,0.1,0.8,0.2,1.1,0.4c0.3,0.2,0.5,0.5,0.7,0.8c0.2,0.3,0.3,0.7,0.3,1.2
		c0,0.7-0.2,1.3-0.7,1.9s-1.3,0.8-2.5,0.8h-2.2v3.5L394.6,146.8L394.6,146.8z M395.8,142.3h2.2c0.7,0,1.3-0.1,1.6-0.4
		c0.3-0.3,0.5-0.7,0.5-1.2c0-0.4-0.1-0.7-0.3-0.9c-0.2-0.2-0.4-0.4-0.7-0.5c-0.2-0.1-0.5-0.1-1.1-0.1h-2.2V142.3z"/>
	<path d="M403.6,146.8l-1.9-6.2h1.1l1,3.6l0.4,1.3c0-0.1,0.1-0.5,0.3-1.3l1-3.6h1.1l0.9,3.6l0.3,1.2l0.4-1.2l1.1-3.6h1l-1.9,6.2
		h-1.1l-1-3.7l-0.2-1.1l-1.3,4.8L403.6,146.8L403.6,146.8z"/>
	<path d="M417.4,143.8l1.1,0.3c-0.2,0.9-0.7,1.6-1.3,2.1s-1.4,0.7-2.3,0.7s-1.7-0.2-2.3-0.6s-1-0.9-1.3-1.6
		c-0.3-0.7-0.5-1.5-0.5-2.3c0-0.9,0.2-1.7,0.5-2.3c0.3-0.6,0.8-1.2,1.5-1.5c0.7-0.3,1.3-0.5,2.1-0.5c0.9,0,1.6,0.2,2.2,0.7
		c0.6,0.5,1,1.1,1.2,1.8l-1.1,0.3c-0.2-0.6-0.5-1.1-0.9-1.4s-0.9-0.4-1.4-0.4c-0.7,0-1.2,0.2-1.7,0.5s-0.8,0.7-0.9,1.3
		c-0.1,0.6-0.3,1.1-0.3,1.6c0,0.7,0.1,1.4,0.3,1.9c0.2,0.5,0.5,1,1,1.2s0.9,0.4,1.5,0.4s1.2-0.2,1.6-0.6
		C416.8,145,417.3,144.5,417.4,143.8z"/>
</g>
<g>
	<path d="M6.6,330.9h6.8v8.6h-1.1v-7.6H7.8v7.6H6.7L6.6,330.9L6.6,330.9z"/>
	<path d="M15.6,333.3h4.9v6.2h-1v-5.3h-2.8v3.1c0,0.7,0,1.2-0.1,1.4s-0.2,0.4-0.4,0.6s-0.5,0.3-0.9,0.3c-0.2,0-0.5,0-0.8,0v-0.9H15
		c0.2,0,0.4,0,0.5-0.1s0.2-0.1,0.2-0.2s0-0.4,0-1L15.6,333.3L15.6,333.3z"/>
	<path d="M26.1,338.6c-0.4,0.3-0.8,0.6-1.1,0.7s-0.7,0.2-1.2,0.2c-0.7,0-1.2-0.2-1.6-0.5s-0.6-0.8-0.6-1.3c0-0.3,0.1-0.6,0.2-0.8
		s0.3-0.5,0.5-0.6s0.5-0.3,0.8-0.3c0.2-0.1,0.5-0.1,0.9-0.2c0.9-0.1,1.5-0.2,1.9-0.4c0-0.1,0-0.2,0-0.3c0-0.4-0.1-0.7-0.3-0.9
		c-0.3-0.2-0.7-0.4-1.2-0.4s-0.9,0.1-1.1,0.3s-0.4,0.5-0.5,0.9l-1-0.1c0.1-0.4,0.2-0.8,0.5-1.1s0.5-0.5,0.9-0.6s0.9-0.2,1.4-0.2
		s1,0.1,1.3,0.2s0.6,0.3,0.7,0.5s0.3,0.4,0.3,0.7c0,0.2,0.1,0.5,0.1,1v1.4c0,1,0,1.6,0.1,1.9s0.1,0.5,0.3,0.7h-1.1
		C26.2,339.3,26.1,339,26.1,338.6z M26,336.4c-0.4,0.2-1,0.3-1.7,0.4c-0.4,0.1-0.7,0.1-0.9,0.2s-0.3,0.2-0.4,0.3s-0.1,0.3-0.1,0.5
		c0,0.3,0.1,0.5,0.3,0.7s0.5,0.3,0.9,0.3s0.8-0.1,1.1-0.3s0.5-0.4,0.7-0.7c0.1-0.2,0.2-0.6,0.2-1.1v-0.3H26z"/>
	<path d="M27.9,333.3H33v0.9h-2v5.3h-1v-5.3h-2v-0.9H27.9z"/>
	<path d="M37.6,330.9h1.1v3c0.2-0.3,0.5-0.4,0.7-0.6s0.5-0.2,0.8-0.2c0.7,0,1.3,0.3,1.8,0.9s0.6,1.4,0.6,2.3c0,1-0.2,1.8-0.7,2.4
		s-1,0.9-1.7,0.9c-0.2,0-0.5,0-0.7-0.1s-0.5-0.3-0.8-0.6v2.9h-1.1v-2.9c-0.2,0.2-0.4,0.4-0.7,0.5s-0.5,0.2-0.8,0.2
		c-0.7,0-1.2-0.3-1.7-0.9s-0.7-1.4-0.7-2.5c0-0.9,0.2-1.7,0.7-2.3s1-0.9,1.8-0.9c0.3,0,0.6,0.1,0.8,0.2s0.5,0.3,0.7,0.6v-2.9H37.6z
		 M34.7,336.3c0,0.9,0.1,1.5,0.4,1.9s0.7,0.6,1.1,0.6c0.5,0,0.8-0.2,1-0.6s0.3-1,0.3-1.7c0-0.8-0.1-1.4-0.4-1.8S36.5,334,36,334
		c-0.4,0-0.8,0.2-1.1,0.6S34.7,335.6,34.7,336.3z M38.6,336.4c0,0.9,0.1,1.6,0.4,1.9s0.6,0.5,1,0.5s0.8-0.2,1.1-0.6s0.5-1,0.5-1.8
		s-0.1-1.4-0.4-1.8s-0.6-0.6-1.1-0.6s-0.8,0.2-1.1,0.6S38.6,335.6,38.6,336.4z"/>
	<path d="M43.4,336.4c0-1.2,0.3-2,1-2.6c0.5-0.5,1.2-0.7,2-0.7c0.9,0,1.6,0.3,2.1,0.8s0.8,1.3,0.8,2.3c0,0.8-0.1,1.4-0.4,1.9
		s-0.6,0.8-1,1.1s-1,0.4-1.5,0.4c-0.9,0-1.6-0.3-2.1-0.8S43.4,337.4,43.4,336.4z M44.5,336.4c0,0.8,0.2,1.4,0.5,1.8s0.8,0.6,1.3,0.6
		s1-0.2,1.3-0.6s0.5-1,0.5-1.8s-0.2-1.4-0.5-1.7s-0.8-0.6-1.3-0.6s-1,0.2-1.3,0.6S44.5,335.6,44.5,336.4z"/>
	<path d="M50.5,341.9v-8.6h1v0.8c0.2-0.3,0.5-0.6,0.8-0.7s0.6-0.2,1-0.2c0.5,0,1,0.1,1.4,0.4s0.7,0.7,0.9,1.2s0.3,1,0.3,1.6
		s-0.1,1.2-0.3,1.7s-0.6,0.9-1,1.2s-0.9,0.4-1.4,0.4c-0.4,0-0.7-0.1-0.9-0.2s-0.5-0.3-0.7-0.6v3L50.5,341.9L50.5,341.9z M51.4,336.4
		c0,0.8,0.2,1.4,0.5,1.8s0.7,0.6,1.2,0.6s0.9-0.2,1.2-0.6s0.5-1,0.5-1.8s-0.2-1.4-0.5-1.8s-0.7-0.6-1.2-0.6c-0.4,0-0.8,0.2-1.2,0.6
		S51.4,335.6,51.4,336.4z"/>
	<path d="M57.2,333.3h1.6l1.6,5l1.8-5h1.5v6.2h-1.1v-5l-1.8,5h-0.9l-1.7-5.3v5.3h-1L57.2,333.3L57.2,333.3z"/>
	<path d="M69.5,338.6c-0.4,0.3-0.8,0.6-1.1,0.7s-0.7,0.2-1.2,0.2c-0.7,0-1.2-0.2-1.6-0.5s-0.6-0.8-0.6-1.3c0-0.3,0.1-0.6,0.2-0.8
		s0.3-0.5,0.5-0.6s0.5-0.3,0.8-0.3c0.2-0.1,0.5-0.1,0.9-0.2c0.9-0.1,1.5-0.2,1.9-0.4c0-0.1,0-0.2,0-0.3c0-0.4-0.1-0.7-0.3-0.9
		c-0.3-0.2-0.7-0.4-1.2-0.4s-0.9,0.1-1.1,0.3s-0.4,0.5-0.5,0.9l-1-0.1c0.1-0.4,0.2-0.8,0.5-1.1s0.5-0.5,0.9-0.6s0.9-0.2,1.4-0.2
		s1,0.1,1.3,0.2c0.3,0.1,0.6,0.3,0.7,0.5s0.3,0.4,0.3,0.7c0,0.2,0.1,0.5,0.1,1v1.4c0,1,0,1.6,0.1,1.9s0.1,0.5,0.3,0.7h-1.1
		C69.6,339.3,69.5,339,69.5,338.6z M69.4,336.4c-0.4,0.2-1,0.3-1.7,0.4c-0.4,0.1-0.7,0.1-0.9,0.2s-0.3,0.2-0.4,0.3s-0.1,0.3-0.1,0.5
		c0,0.3,0.1,0.5,0.3,0.7s0.5,0.3,0.9,0.3s0.8-0.1,1.1-0.3s0.5-0.4,0.7-0.7c0.1-0.2,0.2-0.6,0.2-1.1v-0.3H69.4z"/>
	<path d="M75.4,341.9l-0.1-1c0.2,0.1,0.4,0.1,0.6,0.1s0.4,0,0.6-0.1s0.3-0.2,0.3-0.3c0.1-0.1,0.2-0.4,0.3-0.8c0-0.1,0.1-0.1,0.1-0.3
		l-2.4-6.2h1.1l1.3,3.6c0.2,0.5,0.3,0.9,0.5,1.4c0.1-0.5,0.3-1,0.4-1.4l1.3-3.6h1.1l-2.4,6.3c-0.3,0.7-0.5,1.2-0.6,1.4
		c-0.2,0.3-0.4,0.6-0.6,0.8S76.4,342,76,342C75.9,342,75.6,342,75.4,341.9z"/>
	<path d="M81.4,333.3h4.9v6.2h-1.1v-5.3h-2.8v5.3h-1V333.3z"/>
	<path d="M87.9,341.9v-8.6h1v0.8c0.2-0.3,0.5-0.6,0.8-0.7s0.6-0.2,1-0.2c0.5,0,1,0.1,1.4,0.4s0.7,0.7,0.9,1.2s0.3,1,0.3,1.6
		s-0.1,1.2-0.3,1.7s-0.6,0.9-1,1.2s-0.9,0.4-1.4,0.4c-0.4,0-0.7-0.1-0.9-0.2s-0.5-0.3-0.7-0.6v3L87.9,341.9L87.9,341.9z M88.9,336.4
		c0,0.8,0.2,1.4,0.5,1.8s0.7,0.6,1.2,0.6s0.9-0.2,1.2-0.6s0.5-1,0.5-1.8s-0.2-1.4-0.5-1.8s-0.7-0.6-1.2-0.6c-0.4,0-0.8,0.2-1.2,0.6
		S88.9,335.6,88.9,336.4z"/>
	<path d="M98.7,338.6c-0.4,0.3-0.8,0.6-1.1,0.7s-0.7,0.2-1.2,0.2c-0.7,0-1.2-0.2-1.6-0.5s-0.6-0.8-0.6-1.3c0-0.3,0.1-0.6,0.2-0.8
		s0.3-0.5,0.5-0.6s0.5-0.3,0.8-0.3c0.2-0.1,0.5-0.1,0.9-0.2c0.9-0.1,1.5-0.2,1.9-0.4c0-0.1,0-0.2,0-0.3c0-0.4-0.1-0.7-0.3-0.9
		c-0.3-0.2-0.7-0.4-1.2-0.4s-0.9,0.1-1.1,0.3s-0.4,0.5-0.5,0.9l-1-0.1c0.1-0.4,0.2-0.8,0.5-1.1s0.5-0.5,0.9-0.6s0.9-0.2,1.4-0.2
		s1,0.1,1.3,0.2s0.6,0.3,0.7,0.5s0.3,0.4,0.3,0.7c0,0.2,0.1,0.5,0.1,1v1.4c0,1,0,1.6,0.1,1.9s0.1,0.5,0.3,0.7h-1.1
		C98.8,339.3,98.7,339,98.7,338.6z M98.6,336.4c-0.4,0.2-1,0.3-1.7,0.4c-0.4,0.1-0.7,0.1-0.9,0.2s-0.3,0.2-0.4,0.3s-0.1,0.3-0.1,0.5
		c0,0.3,0.1,0.5,0.3,0.7s0.5,0.3,0.9,0.3s0.8-0.1,1.1-0.3s0.5-0.4,0.7-0.7c0.1-0.2,0.2-0.6,0.2-1.1v-0.3H98.6z"/>
	<path d="M101.3,333.3h2.4c0.6,0,1,0,1.3,0.1s0.5,0.3,0.8,0.5s0.3,0.6,0.3,1c0,0.3-0.1,0.6-0.2,0.8s-0.3,0.4-0.6,0.6
		c0.3,0.1,0.5,0.3,0.7,0.5s0.3,0.6,0.3,1c0,0.6-0.3,1-0.6,1.3s-0.9,0.4-1.7,0.4h-2.8v-6.2H101.3z M102.3,335.9h1.1
		c0.4,0,0.8,0,0.9-0.1s0.3-0.1,0.5-0.3s0.2-0.3,0.2-0.5c0-0.3-0.1-0.6-0.3-0.7s-0.6-0.2-1.2-0.2h-1.2V335.9z M102.3,338.6h1.4
		c0.6,0,1-0.1,1.2-0.2s0.3-0.4,0.4-0.7c0-0.2-0.1-0.4-0.2-0.6s-0.3-0.3-0.5-0.3s-0.5-0.1-1-0.1h-1.3V338.6z"/>
	<path d="M107.9,333.3h4.9v6.2h-1v-5.3H109v3.1c0,0.7,0,1.2-0.1,1.4s-0.2,0.4-0.4,0.6s-0.5,0.3-0.9,0.3c-0.2,0-0.5,0-0.8,0v-0.9h0.5
		c0.2,0,0.4,0,0.5-0.1s0.2-0.1,0.2-0.2s0-0.4,0-1v-4.1H107.9z"/>
	<path d="M118.6,337.5l1.1,0.1c-0.2,0.6-0.5,1.1-1,1.5s-1.1,0.5-1.8,0.5c-0.9,0-1.6-0.3-2.2-0.8s-0.8-1.3-0.8-2.4
		c0-1,0.3-1.9,0.8-2.4s1.2-0.9,2.1-0.9c0.8,0,1.5,0.3,2,0.8s0.8,1.4,0.8,2.4c0,0.1,0,0.2,0,0.3H115c0,0.7,0.2,1.2,0.6,1.6
		s0.8,0.5,1.3,0.5c0.4,0,0.7-0.1,1-0.3S118.5,337.9,118.6,337.5z M115.2,335.8h3.5c0-0.5-0.2-0.9-0.4-1.2c-0.3-0.4-0.8-0.6-1.3-0.6
		s-0.9,0.2-1.2,0.5S115.2,335.1,115.2,335.8z"/>
	<path d="M121.1,333.3h1.1v2.6h2.9v-2.6h1.1v6.2h-1.1v-2.8h-2.9v2.8h-1.1V333.3z"/>
	<path d="M127.7,333.3h1.1v4.7l2.9-4.7h1.1v6.2h-1.1v-4.7l-2.9,4.7h-1.1V333.3z"/>
	<path d="M139.3,333.3v6.2h-1v-2.4h-0.6c-0.4,0-0.6,0-0.8,0.1s-0.4,0.4-0.8,0.9l-0.9,1.4h-1.3l1.1-1.7c0.3-0.5,0.7-0.8,1-0.9
		c-0.6-0.1-1-0.3-1.3-0.7s-0.4-0.8-0.4-1.2c0-0.5,0.2-1,0.6-1.3s0.9-0.5,1.7-0.5h2.7V333.3z M138.2,334.1h-1.5c-0.6,0-1,0.1-1.2,0.3
		s-0.3,0.4-0.3,0.7c0,0.4,0.1,0.6,0.4,0.8s0.7,0.3,1.4,0.3h1.2V334.1z"/>
	<path d="M36.2,347.3h1.1v2.7c0.3,0,0.6-0.1,0.7-0.2s0.3-0.5,0.6-1.1c0.2-0.5,0.4-0.8,0.5-1s0.3-0.3,0.4-0.3s0.4-0.1,0.8-0.1h0.2
		v0.9h-0.3c-0.3,0-0.5,0-0.5,0.1c-0.1,0.1-0.2,0.3-0.4,0.8c-0.2,0.4-0.3,0.7-0.4,0.8s-0.3,0.3-0.6,0.4c0.5,0.1,0.9,0.5,1.3,1.3
		l1.2,1.9h-1.2l-1.1-1.9c-0.2-0.4-0.4-0.6-0.6-0.8s-0.4-0.2-0.6-0.2v2.9h-1.1V347.3z"/>
	<path d="M45.8,352.6c-0.4,0.3-0.8,0.6-1.1,0.7s-0.7,0.2-1.2,0.2c-0.7,0-1.2-0.2-1.6-0.5s-0.6-0.8-0.6-1.3c0-0.3,0.1-0.6,0.2-0.8
		s0.3-0.5,0.5-0.6s0.5-0.3,0.8-0.3c0.2-0.1,0.5-0.1,0.9-0.2c0.9-0.1,1.5-0.2,1.9-0.4c0-0.1,0-0.2,0-0.3c0-0.4-0.1-0.7-0.3-0.9
		c-0.3-0.2-0.7-0.4-1.2-0.4s-0.9,0.1-1.1,0.3s-0.4,0.5-0.5,0.9l-1-0.1c0.1-0.4,0.2-0.8,0.5-1.1s0.5-0.5,0.9-0.6s0.9-0.2,1.4-0.2
		s1,0.1,1.3,0.2s0.6,0.3,0.7,0.5s0.3,0.4,0.3,0.7c0,0.2,0.1,0.5,0.1,1v1.4c0,1,0,1.6,0.1,1.9s0.1,0.5,0.3,0.7H46
		C45.9,353.3,45.8,353,45.8,352.6z M45.7,350.4c-0.4,0.2-1,0.3-1.7,0.4c-0.4,0.1-0.7,0.1-0.9,0.2s-0.3,0.2-0.4,0.3s-0.1,0.3-0.1,0.5
		c0,0.3,0.1,0.5,0.3,0.7s0.5,0.3,0.9,0.3s0.8-0.1,1.1-0.3s0.5-0.4,0.7-0.7c0.1-0.2,0.2-0.6,0.2-1.1v-0.3H45.7z"/>
	<path d="M48.4,347.3h4.9v6.2h-1.1v-5.3h-2.8v5.3h-1V347.3z"/>
	<path d="M54.9,347.3H56v4.7l2.9-4.7H60v6.2h-1.1v-4.7l-2.9,4.7h-1.1V347.3z"/>
	<path d="M61,347.3h5.1v0.9h-2v5.3h-1v-5.3h-2v-0.9H61z"/>
	<path d="M71,352.6c-0.4,0.3-0.8,0.6-1.1,0.7s-0.7,0.2-1.2,0.2c-0.7,0-1.2-0.2-1.6-0.5s-0.6-0.8-0.6-1.3c0-0.3,0.1-0.6,0.2-0.8
		s0.3-0.5,0.5-0.6s0.5-0.3,0.8-0.3c0.2-0.1,0.5-0.1,0.9-0.2c0.9-0.1,1.5-0.2,1.9-0.4c0-0.1,0-0.2,0-0.3c0-0.4-0.1-0.7-0.3-0.9
		c-0.3-0.2-0.7-0.4-1.2-0.4s-0.9,0.1-1.1,0.3s-0.4,0.5-0.5,0.9l-1-0.1c0.1-0.4,0.2-0.8,0.5-1.1s0.5-0.5,0.9-0.6s0.9-0.2,1.4-0.2
		s1,0.1,1.3,0.2s0.6,0.3,0.7,0.5s0.3,0.4,0.3,0.7c0,0.2,0.1,0.5,0.1,1v1.4c0,1,0,1.6,0.1,1.9s0.1,0.5,0.3,0.7h-1.1
		C71.1,353.3,71,353,71,352.6z M70.9,350.4c-0.4,0.2-1,0.3-1.7,0.4c-0.4,0.1-0.7,0.1-0.9,0.2s-0.3,0.2-0.4,0.3s-0.1,0.3-0.1,0.5
		c0,0.3,0.1,0.5,0.3,0.7s0.5,0.3,0.9,0.3s0.8-0.1,1.1-0.3s0.5-0.4,0.7-0.7c0.1-0.2,0.2-0.6,0.2-1.1v-0.3H70.9z"/>
	<path d="M74.1,347.3H79v6.2h-1v-5.3h-2.8v3.1c0,0.7,0,1.2-0.1,1.4s-0.2,0.4-0.4,0.6s-0.5,0.3-0.9,0.3c-0.2,0-0.5,0-0.8,0v-0.9h0.5
		c0.2,0,0.4,0,0.5-0.1s0.2-0.1,0.2-0.2s0-0.4,0-1v-4.1H74.1z"/>
	<path d="M84.7,352.6c-0.4,0.3-0.8,0.6-1.1,0.7s-0.7,0.2-1.2,0.2c-0.7,0-1.2-0.2-1.6-0.5s-0.6-0.8-0.6-1.3c0-0.3,0.1-0.6,0.2-0.8
		s0.3-0.5,0.5-0.6s0.5-0.3,0.8-0.3c0.2-0.1,0.5-0.1,0.9-0.2c0.9-0.1,1.5-0.2,1.9-0.4c0-0.1,0-0.2,0-0.3c0-0.4-0.1-0.7-0.3-0.9
		c-0.3-0.2-0.7-0.4-1.2-0.4s-0.9,0.1-1.1,0.3s-0.4,0.5-0.5,0.9l-1-0.1c0.1-0.4,0.2-0.8,0.5-1.1s0.5-0.5,0.9-0.6s0.9-0.2,1.4-0.2
		s1,0.1,1.3,0.2s0.6,0.3,0.7,0.5s0.3,0.4,0.3,0.7c0,0.2,0.1,0.5,0.1,1v1.4c0,1,0,1.6,0.1,1.9s0.1,0.5,0.3,0.7h-1.1
		C84.8,353.3,84.7,353,84.7,352.6z M84.6,350.4c-0.4,0.2-1,0.3-1.7,0.4c-0.4,0.1-0.7,0.1-0.9,0.2s-0.3,0.2-0.4,0.3s-0.1,0.3-0.1,0.5
		c0,0.3,0.1,0.5,0.3,0.7s0.5,0.3,0.9,0.3s0.8-0.1,1.1-0.3s0.5-0.4,0.7-0.7c0.1-0.2,0.2-0.6,0.2-1.1v-0.3H84.6z"/>
	<path d="M87.3,347.3h1.6l1.6,5l1.8-5h1.5v6.2h-1.1v-5l-1.8,5H90l-1.7-5.3v5.3h-1V347.3z"/>
	<path d="M95.6,347.3h1.1v4.7l2.9-4.7h1.1v6.2h-1.1v-4.7l-2.9,4.7h-1.1V347.3z"/>
</g>
<g>
	<path d="M283.5,330.9h6.8v8.6h-1.1v-7.6h-4.5v7.6h-1.1v-8.6H283.5z"/>
	<path d="M292.5,333.3h4.9v6.2h-1v-5.3h-2.8v3.1c0,0.7,0,1.2-0.1,1.4s-0.2,0.4-0.4,0.6c-0.2,0.2-0.5,0.3-0.9,0.3c-0.2,0-0.5,0-0.8,0
		v-0.9h0.5c0.2,0,0.4,0,0.5-0.1s0.2-0.1,0.2-0.2s0-0.4,0-1v-4.1H292.5z"/>
	<path d="M303,338.6c-0.4,0.3-0.8,0.6-1.1,0.7c-0.3,0.1-0.7,0.2-1.2,0.2c-0.7,0-1.2-0.2-1.6-0.5c-0.4-0.3-0.6-0.8-0.6-1.3
		c0-0.3,0.1-0.6,0.2-0.8c0.1-0.2,0.3-0.5,0.5-0.6c0.2-0.1,0.5-0.3,0.8-0.3c0.2-0.1,0.5-0.1,0.9-0.2c0.9-0.1,1.5-0.2,1.9-0.4
		c0-0.1,0-0.2,0-0.3c0-0.4-0.1-0.7-0.3-0.9c-0.3-0.2-0.7-0.4-1.2-0.4s-0.9,0.1-1.1,0.3s-0.4,0.5-0.5,0.9l-1-0.1
		c0.1-0.4,0.2-0.8,0.5-1.1c0.3-0.3,0.5-0.5,0.9-0.6s0.9-0.2,1.4-0.2s1,0.1,1.3,0.2c0.3,0.1,0.6,0.3,0.7,0.5c0.1,0.2,0.3,0.4,0.3,0.7
		c0,0.2,0.1,0.5,0.1,1v1.4c0,1,0,1.6,0.1,1.9s0.1,0.5,0.3,0.7h-1.1C303.1,339.3,303,339,303,338.6z M303,336.4
		c-0.4,0.2-1,0.3-1.7,0.4c-0.4,0.1-0.7,0.1-0.9,0.2c-0.2,0.1-0.3,0.2-0.4,0.3c-0.1,0.1-0.1,0.3-0.1,0.5c0,0.3,0.1,0.5,0.3,0.7
		c0.2,0.2,0.5,0.3,0.9,0.3s0.8-0.1,1.1-0.3c0.3-0.2,0.5-0.4,0.7-0.7c0.1-0.2,0.2-0.6,0.2-1.1v-0.3H303z"/>
	<path d="M304.9,333.3h5.1v0.9h-2v5.3h-1v-5.3h-2v-0.9H304.9z"/>
	<path d="M314.5,330.9h1.1v3c0.2-0.3,0.5-0.4,0.7-0.6c0.2-0.2,0.5-0.2,0.8-0.2c0.7,0,1.3,0.3,1.8,0.9s0.6,1.4,0.6,2.3
		c0,1-0.2,1.8-0.7,2.4s-1,0.9-1.7,0.9c-0.2,0-0.5,0-0.7-0.1c-0.2-0.1-0.5-0.3-0.8-0.6v2.9h-1.1v-2.9c-0.2,0.2-0.4,0.4-0.7,0.5
		c-0.3,0.1-0.5,0.2-0.8,0.2c-0.7,0-1.2-0.3-1.7-0.9s-0.7-1.4-0.7-2.5c0-0.9,0.2-1.7,0.7-2.3s1-0.9,1.8-0.9c0.3,0,0.6,0.1,0.8,0.2
		c0.2,0.1,0.5,0.3,0.7,0.6v-2.9H314.5z M311.6,336.3c0,0.9,0.1,1.5,0.4,1.9s0.7,0.6,1.1,0.6c0.5,0,0.8-0.2,1-0.6
		c0.2-0.4,0.3-1,0.3-1.7c0-0.8-0.1-1.4-0.4-1.8s-0.6-0.6-1.1-0.6c-0.4,0-0.8,0.2-1.1,0.6C311.5,335,311.6,335.6,311.6,336.3z
		 M315.5,336.4c0,0.9,0.1,1.6,0.4,1.9s0.6,0.5,1,0.5s0.8-0.2,1.1-0.6c0.3-0.4,0.5-1,0.5-1.8s-0.1-1.4-0.4-1.8s-0.6-0.6-1.1-0.6
		s-0.8,0.2-1.1,0.6C315.6,335,315.5,335.6,315.5,336.4z"/>
	<path d="M320.4,336.4c0-1.2,0.3-2,1-2.6c0.5-0.5,1.2-0.7,2-0.7c0.9,0,1.6,0.3,2.1,0.8s0.8,1.3,0.8,2.3c0,0.8-0.1,1.4-0.4,1.9
		s-0.6,0.8-1,1.1s-1,0.4-1.5,0.4c-0.9,0-1.6-0.3-2.1-0.8S320.4,337.4,320.4,336.4z M321.5,336.4c0,0.8,0.2,1.4,0.5,1.8
		c0.3,0.4,0.8,0.6,1.3,0.6s1-0.2,1.3-0.6c0.3-0.4,0.5-1,0.5-1.8s-0.2-1.4-0.5-1.7c-0.3-0.3-0.8-0.6-1.3-0.6s-1,0.2-1.3,0.6
		C321.6,335,321.5,335.6,321.5,336.4z"/>
	<path d="M327.5,341.9v-8.6h1v0.8c0.2-0.3,0.5-0.6,0.8-0.7c0.3-0.1,0.6-0.2,1-0.2c0.5,0,1,0.1,1.4,0.4s0.7,0.7,0.9,1.2
		c0.2,0.5,0.3,1,0.3,1.6s-0.1,1.2-0.3,1.7c-0.2,0.5-0.6,0.9-1,1.2s-0.9,0.4-1.4,0.4c-0.4,0-0.7-0.1-0.9-0.2
		c-0.2-0.1-0.5-0.3-0.7-0.6v3L327.5,341.9L327.5,341.9z M328.4,336.4c0,0.8,0.2,1.4,0.5,1.8c0.3,0.4,0.7,0.6,1.2,0.6
		s0.9-0.2,1.2-0.6c0.3-0.4,0.5-1,0.5-1.8s-0.2-1.4-0.5-1.8c-0.3-0.4-0.7-0.6-1.2-0.6c-0.4,0-0.8,0.2-1.2,0.6
		S328.4,335.6,328.4,336.4z"/>
	<path d="M334.1,333.3h1.6l1.6,5l1.8-5h1.5v6.2h-1.1v-5l-1.8,5h-0.9l-1.7-5.3v5.3h-1L334.1,333.3L334.1,333.3z"/>
	<path d="M346.5,338.6c-0.4,0.3-0.8,0.6-1.1,0.7c-0.3,0.1-0.7,0.2-1.2,0.2c-0.7,0-1.2-0.2-1.6-0.5c-0.4-0.3-0.6-0.8-0.6-1.3
		c0-0.3,0.1-0.6,0.2-0.8c0.1-0.2,0.3-0.5,0.5-0.6c0.2-0.1,0.5-0.3,0.8-0.3c0.2-0.1,0.5-0.1,0.9-0.2c0.9-0.1,1.5-0.2,1.9-0.4
		c0-0.1,0-0.2,0-0.3c0-0.4-0.1-0.7-0.3-0.9c-0.3-0.2-0.7-0.4-1.2-0.4s-0.9,0.1-1.1,0.3s-0.4,0.5-0.5,0.9l-1-0.1
		c0.1-0.4,0.2-0.8,0.5-1.1c0.3-0.3,0.5-0.5,0.9-0.6s0.9-0.2,1.4-0.2s1,0.1,1.3,0.2c0.3,0.1,0.6,0.3,0.7,0.5s0.3,0.4,0.3,0.7
		c0,0.2,0.1,0.5,0.1,1v1.4c0,1,0,1.6,0.1,1.9s0.1,0.5,0.3,0.7h-1.1C346.6,339.3,346.5,339,346.5,338.6z M346.4,336.4
		c-0.4,0.2-1,0.3-1.7,0.4c-0.4,0.1-0.7,0.1-0.9,0.2c-0.2,0.1-0.3,0.2-0.4,0.3c-0.1,0.1-0.1,0.3-0.1,0.5c0,0.3,0.1,0.5,0.3,0.7
		c0.2,0.2,0.5,0.3,0.9,0.3s0.8-0.1,1.1-0.3c0.3-0.2,0.5-0.4,0.7-0.7c0.1-0.2,0.2-0.6,0.2-1.1v-0.3H346.4z"/>
	<path d="M352.4,341.9l-0.1-1c0.2,0.1,0.4,0.1,0.6,0.1s0.4,0,0.6-0.1s0.3-0.2,0.3-0.3c0.1-0.1,0.2-0.4,0.3-0.8
		c0-0.1,0.1-0.1,0.1-0.3l-2.4-6.2h1.1l1.3,3.6c0.2,0.5,0.3,0.9,0.5,1.4c0.1-0.5,0.3-1,0.4-1.4l1.3-3.6h1.1l-2.4,6.3
		c-0.3,0.7-0.5,1.2-0.6,1.4c-0.2,0.3-0.4,0.6-0.6,0.8s-0.5,0.2-0.9,0.2C352.9,342,352.6,342,352.4,341.9z"/>
	<path d="M358.4,333.3h4.9v6.2h-1.1v-5.3h-2.8v5.3h-1V333.3z"/>
	<path d="M364.9,341.9v-8.6h1v0.8c0.2-0.3,0.5-0.6,0.8-0.7s0.6-0.2,1-0.2c0.5,0,1,0.1,1.4,0.4s0.7,0.7,0.9,1.2s0.3,1,0.3,1.6
		s-0.1,1.2-0.3,1.7s-0.6,0.9-1,1.2s-0.9,0.4-1.4,0.4c-0.4,0-0.7-0.1-0.9-0.2s-0.5-0.3-0.7-0.6v3L364.9,341.9L364.9,341.9z
		 M365.9,336.4c0,0.8,0.2,1.4,0.5,1.8s0.7,0.6,1.2,0.6s0.9-0.2,1.2-0.6s0.5-1,0.5-1.8s-0.2-1.4-0.5-1.8s-0.7-0.6-1.2-0.6
		c-0.4,0-0.8,0.2-1.2,0.6S365.9,335.6,365.9,336.4z"/>
	<path d="M375.6,338.6c-0.4,0.3-0.8,0.6-1.1,0.7s-0.7,0.2-1.2,0.2c-0.7,0-1.2-0.2-1.6-0.5s-0.6-0.8-0.6-1.3c0-0.3,0.1-0.6,0.2-0.8
		s0.3-0.5,0.5-0.6s0.5-0.3,0.8-0.3c0.2-0.1,0.5-0.1,0.9-0.2c0.9-0.1,1.5-0.2,1.9-0.4c0-0.1,0-0.2,0-0.3c0-0.4-0.1-0.7-0.3-0.9
		c-0.3-0.2-0.7-0.4-1.2-0.4s-0.9,0.1-1.1,0.3s-0.4,0.5-0.5,0.9l-1-0.1c0.1-0.4,0.2-0.8,0.5-1.1s0.5-0.5,0.9-0.6s0.9-0.2,1.4-0.2
		s1,0.1,1.3,0.2s0.6,0.3,0.7,0.5s0.3,0.4,0.3,0.7c0,0.2,0.1,0.5,0.1,1v1.4c0,1,0,1.6,0.1,1.9s0.1,0.5,0.3,0.7h-1.1
		C375.8,339.3,375.6,339,375.6,338.6z M375.6,336.4c-0.4,0.2-1,0.3-1.7,0.4c-0.4,0.1-0.7,0.1-0.9,0.2s-0.3,0.2-0.4,0.3
		s-0.1,0.3-0.1,0.5c0,0.3,0.1,0.5,0.3,0.7s0.5,0.3,0.9,0.3s0.8-0.1,1.1-0.3s0.5-0.4,0.7-0.7c0.1-0.2,0.2-0.6,0.2-1.1v-0.3H375.6z"/>
	<path d="M378.3,333.3h2.4c0.6,0,1,0,1.3,0.1s0.5,0.3,0.8,0.5s0.3,0.6,0.3,1c0,0.3-0.1,0.6-0.2,0.8s-0.3,0.4-0.6,0.6
		c0.3,0.1,0.5,0.3,0.7,0.5s0.3,0.6,0.3,1c0,0.6-0.3,1-0.6,1.3s-0.9,0.4-1.7,0.4h-2.8v-6.2H378.3z M379.3,335.9h1.1
		c0.4,0,0.8,0,0.9-0.1s0.3-0.1,0.5-0.3s0.2-0.3,0.2-0.5c0-0.3-0.1-0.6-0.3-0.7s-0.6-0.2-1.2-0.2h-1.2V335.9z M379.3,338.6h1.4
		c0.6,0,1-0.1,1.2-0.2s0.3-0.4,0.4-0.7c0-0.2-0.1-0.4-0.2-0.6s-0.3-0.3-0.5-0.3s-0.5-0.1-1-0.1h-1.3V338.6z"/>
	<path d="M384.9,333.3h4.9v6.2h-1v-5.3H386v3.1c0,0.7,0,1.2-0.1,1.4s-0.2,0.4-0.4,0.6s-0.5,0.3-0.9,0.3c-0.2,0-0.5,0-0.8,0v-0.9h0.5
		c0.2,0,0.4,0,0.5-0.1s0.2-0.1,0.2-0.2s0-0.4,0-1v-4.1H384.9z"/>
	<path d="M395.6,337.5l1.1,0.1c-0.2,0.6-0.5,1.1-1,1.5s-1.1,0.5-1.8,0.5c-0.9,0-1.6-0.3-2.2-0.8s-0.8-1.3-0.8-2.4
		c0-1,0.3-1.9,0.8-2.4s1.2-0.9,2.1-0.9c0.8,0,1.5,0.3,2,0.8s0.8,1.4,0.8,2.4c0,0.1,0,0.2,0,0.3H392c0,0.7,0.2,1.2,0.6,1.6
		s0.8,0.5,1.3,0.5c0.4,0,0.7-0.1,1-0.3S395.5,337.9,395.6,337.5z M392.1,335.8h3.5c0-0.5-0.2-0.9-0.4-1.2c-0.3-0.4-0.8-0.6-1.3-0.6
		s-0.9,0.2-1.2,0.5S392.1,335.1,392.1,335.8z"/>
	<path d="M398.1,333.3h1.1v2.6h2.9v-2.6h1.1v6.2h-1.1v-2.8h-2.9v2.8h-1.1V333.3z"/>
	<path d="M404.6,333.3h1.1v4.7l2.9-4.7h1.1v6.2h-1.1v-4.7l-2.9,4.7h-1.1V333.3z"/>
	<path d="M416.3,333.3v6.2h-1v-2.4h-0.6c-0.4,0-0.6,0-0.8,0.1s-0.4,0.4-0.8,0.9l-0.9,1.4h-1.3l1.1-1.7c0.3-0.5,0.7-0.8,1-0.9
		c-0.6-0.1-1-0.3-1.3-0.7s-0.4-0.8-0.4-1.2c0-0.5,0.2-1,0.6-1.3s0.9-0.5,1.7-0.5h2.7V333.3z M415.1,334.1h-1.5c-0.6,0-1,0.1-1.2,0.3
		s-0.3,0.4-0.3,0.7c0,0.4,0.1,0.6,0.4,0.8s0.7,0.3,1.4,0.3h1.2V334.1z"/>
	<path d="M313.1,347.3h1.1v2.7c0.3,0,0.6-0.1,0.7-0.2s0.3-0.5,0.6-1.1c0.2-0.5,0.4-0.8,0.5-1s0.3-0.3,0.4-0.3s0.4-0.1,0.8-0.1h0.2
		v0.9h-0.3c-0.3,0-0.5,0-0.5,0.1c-0.1,0.1-0.2,0.3-0.4,0.8c-0.2,0.4-0.3,0.7-0.4,0.8s-0.3,0.3-0.6,0.4c0.5,0.1,0.9,0.5,1.3,1.3
		l1.2,1.9h-1.2l-1.1-1.9c-0.2-0.4-0.4-0.6-0.6-0.8s-0.4-0.2-0.6-0.2v2.9h-1.1V347.3z"/>
	<path d="M322.8,352.6c-0.4,0.3-0.8,0.6-1.1,0.7s-0.7,0.2-1.2,0.2c-0.7,0-1.2-0.2-1.6-0.5s-0.6-0.8-0.6-1.3c0-0.3,0.1-0.6,0.2-0.8
		s0.3-0.5,0.5-0.6s0.5-0.3,0.8-0.3c0.2-0.1,0.5-0.1,0.9-0.2c0.9-0.1,1.5-0.2,1.9-0.4c0-0.1,0-0.2,0-0.3c0-0.4-0.1-0.7-0.3-0.9
		c-0.3-0.2-0.7-0.4-1.2-0.4s-0.9,0.1-1.1,0.3s-0.4,0.5-0.5,0.9l-1-0.1c0.1-0.4,0.2-0.8,0.5-1.1s0.5-0.5,0.9-0.6s0.9-0.2,1.4-0.2
		s1,0.1,1.3,0.2s0.6,0.3,0.7,0.5s0.3,0.4,0.3,0.7c0,0.2,0.1,0.5,0.1,1v1.4c0,1,0,1.6,0.1,1.9s0.1,0.5,0.3,0.7h-1.1
		C322.9,353.3,322.8,353,322.8,352.6z M322.6,350.4c-0.4,0.2-1,0.3-1.7,0.4c-0.4,0.1-0.7,0.1-0.9,0.2s-0.3,0.2-0.4,0.3
		s-0.1,0.3-0.1,0.5c0,0.3,0.1,0.5,0.3,0.7s0.5,0.3,0.9,0.3s0.8-0.1,1.1-0.3s0.5-0.4,0.7-0.7c0.1-0.2,0.2-0.6,0.2-1.1v-0.3H322.6z"/>
	<path d="M325.4,347.3h4.9v6.2h-1.1v-5.3h-2.8v5.3h-1V347.3z"/>
	<path d="M331.9,347.3h1.1v4.7l2.9-4.7h1.1v6.2h-1.1v-4.7l-2.9,4.7h-1.1V347.3z"/>
	<path d="M338,347.3h5.1v0.9h-2v5.3h-1v-5.3h-2v-0.9H338z"/>
	<path d="M348,352.6c-0.4,0.3-0.8,0.6-1.1,0.7s-0.7,0.2-1.2,0.2c-0.7,0-1.2-0.2-1.6-0.5s-0.6-0.8-0.6-1.3c0-0.3,0.1-0.6,0.2-0.8
		s0.3-0.5,0.5-0.6s0.5-0.3,0.8-0.3c0.2-0.1,0.5-0.1,0.9-0.2c0.9-0.1,1.5-0.2,1.9-0.4c0-0.1,0-0.2,0-0.3c0-0.4-0.1-0.7-0.3-0.9
		c-0.3-0.2-0.7-0.4-1.2-0.4s-0.9,0.1-1.1,0.3s-0.4,0.5-0.5,0.9l-1-0.1c0.1-0.4,0.2-0.8,0.5-1.1s0.5-0.5,0.9-0.6s0.9-0.2,1.4-0.2
		s1,0.1,1.3,0.2s0.6,0.3,0.7,0.5s0.3,0.4,0.3,0.7c0,0.2,0.1,0.5,0.1,1v1.4c0,1,0,1.6,0.1,1.9s0.1,0.5,0.3,0.7h-1.1
		C348.1,353.3,348,353,348,352.6z M347.9,350.4c-0.4,0.2-1,0.3-1.7,0.4c-0.4,0.1-0.7,0.1-0.9,0.2s-0.3,0.2-0.4,0.3s-0.1,0.3-0.1,0.5
		c0,0.3,0.1,0.5,0.3,0.7s0.5,0.3,0.9,0.3s0.8-0.1,1.1-0.3s0.5-0.4,0.7-0.7c0.1-0.2,0.2-0.6,0.2-1.1v-0.3H347.9z"/>
	<path d="M351.1,347.3h4.9v6.2h-1v-5.3h-2.8v3.1c0,0.7,0,1.2-0.1,1.4s-0.2,0.4-0.4,0.6s-0.5,0.3-0.9,0.3c-0.2,0-0.5,0-0.8,0v-0.9
		h0.5c0.2,0,0.4,0,0.5-0.1s0.2-0.1,0.2-0.2s0-0.4,0-1v-4.1H351.1z"/>
	<path d="M361.6,352.6c-0.4,0.3-0.8,0.6-1.1,0.7s-0.7,0.2-1.2,0.2c-0.7,0-1.2-0.2-1.6-0.5s-0.6-0.8-0.6-1.3c0-0.3,0.1-0.6,0.2-0.8
		s0.3-0.5,0.5-0.6s0.5-0.3,0.8-0.3c0.2-0.1,0.5-0.1,0.9-0.2c0.9-0.1,1.5-0.2,1.9-0.4c0-0.1,0-0.2,0-0.3c0-0.4-0.1-0.7-0.3-0.9
		c-0.3-0.2-0.7-0.4-1.2-0.4s-0.9,0.1-1.1,0.3s-0.4,0.5-0.5,0.9l-1-0.1c0.1-0.4,0.2-0.8,0.5-1.1s0.5-0.5,0.9-0.6s0.9-0.2,1.4-0.2
		s1,0.1,1.3,0.2s0.6,0.3,0.7,0.5s0.3,0.4,0.3,0.7c0,0.2,0.1,0.5,0.1,1v1.4c0,1,0,1.6,0.1,1.9s0.1,0.5,0.3,0.7h-1.1
		C361.8,353.3,361.6,353,361.6,352.6z M361.6,350.4c-0.4,0.2-1,0.3-1.7,0.4c-0.4,0.1-0.7,0.1-0.9,0.2s-0.3,0.2-0.4,0.3
		s-0.1,0.3-0.1,0.5c0,0.3,0.1,0.5,0.3,0.7s0.5,0.3,0.9,0.3s0.8-0.1,1.1-0.3s0.5-0.4,0.7-0.7c0.1-0.2,0.2-0.6,0.2-1.1v-0.3H361.6z"/>
	<path d="M364.3,347.3h1.6l1.6,5l1.8-5h1.5v6.2h-1.1v-5l-1.8,5H367l-1.7-5.3v5.3h-1V347.3z"/>
	<path d="M372.6,347.3h1.1v4.7l2.9-4.7h1.1v6.2h-1.1v-4.7l-2.9,4.7h-1.1V347.3z"/>
</g>
<g>
	<path d="M149.8,618.1h6.8v8.6h-1.1v-7.6H151v7.6h-1.1v-8.6H149.8z"/>
	<path d="M158.8,620.5h4.9v6.2h-1v-5.3h-2.8v3.1c0,0.7,0,1.2-0.1,1.4c-0.1,0.2-0.2,0.4-0.4,0.6c-0.2,0.2-0.5,0.3-0.9,0.3
		c-0.2,0-0.5,0-0.8,0v-0.9h0.5c0.2,0,0.4,0,0.5-0.1c0.1-0.1,0.2-0.1,0.2-0.2c0-0.1,0-0.4,0-1v-4.1H158.8z"/>
	<path d="M169.3,625.9c-0.4,0.3-0.8,0.6-1.1,0.7c-0.3,0.1-0.7,0.2-1.2,0.2c-0.7,0-1.2-0.2-1.6-0.5c-0.4-0.3-0.6-0.8-0.6-1.3
		c0-0.3,0.1-0.6,0.2-0.8c0.1-0.2,0.3-0.5,0.5-0.6c0.2-0.1,0.5-0.3,0.8-0.3c0.2-0.1,0.5-0.1,0.9-0.2c0.9-0.1,1.5-0.2,1.9-0.4
		c0-0.1,0-0.2,0-0.3c0-0.4-0.1-0.7-0.3-0.9c-0.3-0.2-0.7-0.4-1.2-0.4s-0.9,0.1-1.1,0.3c-0.2,0.2-0.4,0.5-0.5,0.9l-1-0.1
		c0.1-0.4,0.2-0.8,0.5-1.1c0.3-0.3,0.5-0.5,0.9-0.6c0.4-0.1,0.9-0.2,1.4-0.2s1,0.1,1.3,0.2c0.3,0.1,0.6,0.3,0.7,0.5
		c0.1,0.2,0.3,0.4,0.3,0.7c0,0.2,0.1,0.5,0.1,1v1.4c0,1,0,1.6,0.1,1.9s0.1,0.5,0.3,0.7h-1.1C169.4,626.5,169.3,626.2,169.3,625.9z
		 M169.2,623.6c-0.4,0.2-1,0.3-1.7,0.4c-0.4,0.1-0.7,0.1-0.9,0.2c-0.2,0.1-0.3,0.2-0.4,0.3c-0.1,0.1-0.1,0.3-0.1,0.5
		c0,0.3,0.1,0.5,0.3,0.7c0.2,0.2,0.5,0.3,0.9,0.3s0.8-0.1,1.1-0.3c0.3-0.2,0.5-0.4,0.7-0.7c0.1-0.2,0.2-0.6,0.2-1.1v-0.3H169.2z"/>
	<path d="M171.1,620.5h5.1v0.9h-2v5.3h-1v-5.3h-2v-0.9H171.1z"/>
	<path d="M180.8,618.1h1.1v3c0.2-0.3,0.5-0.4,0.7-0.6c0.2-0.2,0.5-0.2,0.8-0.2c0.7,0,1.3,0.3,1.8,0.9c0.5,0.6,0.6,1.4,0.6,2.3
		c0,1-0.2,1.8-0.7,2.4c-0.5,0.6-1,0.9-1.7,0.9c-0.2,0-0.5,0-0.7-0.1c-0.2-0.1-0.5-0.3-0.8-0.6v2.9h-1.1v-2.9
		c-0.2,0.2-0.4,0.4-0.7,0.5c-0.3,0.1-0.5,0.2-0.8,0.2c-0.7,0-1.2-0.3-1.7-0.9c-0.5-0.6-0.7-1.4-0.7-2.5c0-0.9,0.2-1.7,0.7-2.3
		s1-0.9,1.8-0.9c0.3,0,0.6,0.1,0.8,0.2c0.2,0.1,0.5,0.3,0.7,0.6v-2.9H180.8z M177.9,623.5c0,0.9,0.1,1.5,0.4,1.9
		c0.3,0.4,0.7,0.6,1.1,0.6c0.5,0,0.8-0.2,1-0.6c0.2-0.4,0.3-1,0.3-1.7c0-0.8-0.1-1.4-0.4-1.8c-0.3-0.4-0.6-0.6-1.1-0.6
		c-0.4,0-0.8,0.2-1.1,0.6C177.8,622.3,177.9,622.8,177.9,623.5z M181.8,623.6c0,0.9,0.1,1.6,0.4,1.9s0.6,0.5,1,0.5s0.8-0.2,1.1-0.6
		c0.3-0.4,0.5-1,0.5-1.8s-0.1-1.4-0.4-1.8c-0.3-0.4-0.6-0.6-1.1-0.6s-0.8,0.2-1.1,0.6C181.9,622.2,181.8,622.8,181.8,623.6z"/>
	<path d="M186.6,623.6c0-1.2,0.3-2,1-2.6c0.5-0.5,1.2-0.7,2-0.7c0.9,0,1.6,0.3,2.1,0.8s0.8,1.3,0.8,2.3c0,0.8-0.1,1.4-0.4,1.9
		s-0.6,0.8-1,1.1c-0.4,0.3-1,0.4-1.5,0.4c-0.9,0-1.6-0.3-2.1-0.8S186.6,624.6,186.6,623.6z M187.7,623.6c0,0.8,0.2,1.4,0.5,1.8
		c0.3,0.4,0.8,0.6,1.3,0.6s1-0.2,1.3-0.6c0.3-0.4,0.5-1,0.5-1.8s-0.2-1.4-0.5-1.7c-0.3-0.3-0.8-0.6-1.3-0.6s-1,0.2-1.3,0.6
		C187.9,622.3,187.7,622.8,187.7,623.6z"/>
	<path d="M193.7,629.1v-8.6h1v0.8c0.2-0.3,0.5-0.6,0.8-0.7c0.3-0.1,0.6-0.2,1-0.2c0.5,0,1,0.1,1.4,0.4s0.7,0.7,0.9,1.2
		c0.2,0.5,0.3,1,0.3,1.6c0,0.6-0.1,1.2-0.3,1.7c-0.2,0.5-0.6,0.9-1,1.2c-0.4,0.3-0.9,0.4-1.4,0.4c-0.4,0-0.7-0.1-0.9-0.2
		c-0.2-0.1-0.5-0.3-0.7-0.6v3H193.7L193.7,629.1z M194.6,623.6c0,0.8,0.2,1.4,0.5,1.8c0.3,0.4,0.7,0.6,1.2,0.6s0.9-0.2,1.2-0.6
		c0.3-0.4,0.5-1,0.5-1.8s-0.2-1.4-0.5-1.8c-0.3-0.4-0.7-0.6-1.2-0.6c-0.4,0-0.8,0.2-1.2,0.6C194.7,622.2,194.6,622.8,194.6,623.6z"
		/>
	<path d="M200.4,620.5h1.6l1.6,5l1.8-5h1.5v6.2h-1.1v-5l-1.8,5h-0.9l-1.7-5.3v5.3h-1L200.4,620.5L200.4,620.5z"/>
	<path d="M212.7,625.9c-0.4,0.3-0.8,0.6-1.1,0.7c-0.3,0.1-0.7,0.2-1.2,0.2c-0.7,0-1.2-0.2-1.6-0.5c-0.4-0.3-0.6-0.8-0.6-1.3
		c0-0.3,0.1-0.6,0.2-0.8c0.1-0.2,0.3-0.5,0.5-0.6c0.2-0.1,0.5-0.3,0.8-0.3c0.2-0.1,0.5-0.1,0.9-0.2c0.9-0.1,1.5-0.2,1.9-0.4
		c0-0.1,0-0.2,0-0.3c0-0.4-0.1-0.7-0.3-0.9c-0.3-0.2-0.7-0.4-1.2-0.4s-0.9,0.1-1.1,0.3c-0.2,0.2-0.4,0.5-0.5,0.9l-1-0.1
		c0.1-0.4,0.2-0.8,0.5-1.1c0.3-0.3,0.5-0.5,0.9-0.6c0.4-0.1,0.9-0.2,1.4-0.2s1,0.1,1.3,0.2c0.3,0.1,0.6,0.3,0.7,0.5s0.3,0.4,0.3,0.7
		c0,0.2,0.1,0.5,0.1,1v1.4c0,1,0,1.6,0.1,1.9s0.1,0.5,0.3,0.7h-1.1C212.8,626.5,212.7,626.2,212.7,625.9z M212.6,623.6
		c-0.4,0.2-1,0.3-1.7,0.4c-0.4,0.1-0.7,0.1-0.9,0.2c-0.2,0.1-0.3,0.2-0.4,0.3c-0.1,0.1-0.1,0.3-0.1,0.5c0,0.3,0.1,0.5,0.3,0.7
		c0.2,0.2,0.5,0.3,0.9,0.3s0.8-0.1,1.1-0.3c0.3-0.2,0.5-0.4,0.7-0.7c0.1-0.2,0.2-0.6,0.2-1.1v-0.3H212.6z"/>
	<path d="M218.6,629.1l-0.1-1c0.2,0.1,0.4,0.1,0.6,0.1s0.4,0,0.6-0.1c0.2-0.1,0.3-0.2,0.3-0.3c0.1-0.1,0.2-0.4,0.3-0.8
		c0-0.1,0.1-0.1,0.1-0.3l-2.4-6.2h1.1l1.3,3.6c0.2,0.5,0.3,0.9,0.5,1.4c0.1-0.5,0.3-1,0.4-1.4l1.3-3.6h1.1l-2.4,6.3
		c-0.3,0.7-0.5,1.2-0.6,1.4c-0.2,0.3-0.4,0.6-0.6,0.8c-0.2,0.2-0.5,0.2-0.9,0.2C219.1,629.2,218.8,629.2,218.6,629.1z"/>
	<path d="M224.6,620.5h4.9v6.2h-1.1v-5.3h-2.8v5.3h-1V620.5z"/>
	<path d="M231.1,629.1v-8.6h1v0.8c0.2-0.3,0.5-0.6,0.8-0.7c0.3-0.1,0.6-0.2,1-0.2c0.5,0,1,0.1,1.4,0.4s0.7,0.7,0.9,1.2
		s0.3,1,0.3,1.6c0,0.6-0.1,1.2-0.3,1.7s-0.6,0.9-1,1.2c-0.4,0.3-0.9,0.4-1.4,0.4c-0.4,0-0.7-0.1-0.9-0.2c-0.2-0.1-0.5-0.3-0.7-0.6v3
		H231.1L231.1,629.1z M232.1,623.6c0,0.8,0.2,1.4,0.5,1.8c0.3,0.4,0.7,0.6,1.2,0.6s0.9-0.2,1.2-0.6c0.3-0.4,0.5-1,0.5-1.8
		s-0.2-1.4-0.5-1.8c-0.3-0.4-0.7-0.6-1.2-0.6c-0.4,0-0.8,0.2-1.2,0.6C232.1,622.2,232.1,622.8,232.1,623.6z"/>
	<path d="M241.9,625.9c-0.4,0.3-0.8,0.6-1.1,0.7c-0.3,0.1-0.7,0.2-1.2,0.2c-0.7,0-1.2-0.2-1.6-0.5s-0.6-0.8-0.6-1.3
		c0-0.3,0.1-0.6,0.2-0.8c0.1-0.2,0.3-0.5,0.5-0.6c0.2-0.1,0.5-0.3,0.8-0.3c0.2-0.1,0.5-0.1,0.9-0.2c0.9-0.1,1.5-0.2,1.9-0.4
		c0-0.1,0-0.2,0-0.3c0-0.4-0.1-0.7-0.3-0.9c-0.3-0.2-0.7-0.4-1.2-0.4s-0.9,0.1-1.1,0.3c-0.2,0.2-0.4,0.5-0.5,0.9l-1-0.1
		c0.1-0.4,0.2-0.8,0.5-1.1c0.3-0.3,0.5-0.5,0.9-0.6c0.4-0.1,0.9-0.2,1.4-0.2s1,0.1,1.3,0.2c0.3,0.1,0.6,0.3,0.7,0.5s0.3,0.4,0.3,0.7
		c0,0.2,0.1,0.5,0.1,1v1.4c0,1,0,1.6,0.1,1.9s0.1,0.5,0.3,0.7H242C242,626.5,241.9,626.2,241.9,625.9z M241.8,623.6
		c-0.4,0.2-1,0.3-1.7,0.4c-0.4,0.1-0.7,0.1-0.9,0.2c-0.2,0.1-0.3,0.2-0.4,0.3s-0.1,0.3-0.1,0.5c0,0.3,0.1,0.5,0.3,0.7
		s0.5,0.3,0.9,0.3s0.8-0.1,1.1-0.3c0.3-0.2,0.5-0.4,0.7-0.7c0.1-0.2,0.2-0.6,0.2-1.1v-0.3H241.8z"/>
	<path d="M244.5,620.5h2.4c0.6,0,1,0,1.3,0.1c0.3,0.1,0.5,0.3,0.8,0.5s0.3,0.6,0.3,1c0,0.3-0.1,0.6-0.2,0.8
		c-0.1,0.2-0.3,0.4-0.6,0.6c0.3,0.1,0.5,0.3,0.7,0.5s0.3,0.6,0.3,1c0,0.6-0.3,1-0.6,1.3s-0.9,0.4-1.7,0.4h-2.8v-6.2H244.5z
		 M245.5,623.1h1.1c0.4,0,0.8,0,0.9-0.1c0.1-0.1,0.3-0.1,0.5-0.3c0.2-0.2,0.2-0.3,0.2-0.5c0-0.3-0.1-0.6-0.3-0.7
		c-0.2-0.1-0.6-0.2-1.2-0.2h-1.2V623.1z M245.5,625.8h1.4c0.6,0,1-0.1,1.2-0.2c0.2-0.1,0.3-0.4,0.4-0.7c0-0.2-0.1-0.4-0.2-0.6
		s-0.3-0.3-0.5-0.3s-0.5-0.1-1-0.1h-1.3V625.8z"/>
	<path d="M251.1,620.5h4.9v6.2h-1v-5.3h-2.8v3.1c0,0.7,0,1.2-0.1,1.4c-0.1,0.2-0.2,0.4-0.4,0.6s-0.5,0.3-0.9,0.3c-0.2,0-0.5,0-0.8,0
		v-0.9h0.5c0.2,0,0.4,0,0.5-0.1c0.1-0.1,0.2-0.1,0.2-0.2c0-0.1,0-0.4,0-1v-4.1H251.1z"/>
	<path d="M261.8,624.7l1.1,0.1c-0.2,0.6-0.5,1.1-1,1.5c-0.5,0.4-1.1,0.5-1.8,0.5c-0.9,0-1.6-0.3-2.2-0.8s-0.8-1.3-0.8-2.4
		c0-1,0.3-1.9,0.8-2.4s1.2-0.9,2.1-0.9c0.8,0,1.5,0.3,2,0.8s0.8,1.4,0.8,2.4c0,0.1,0,0.2,0,0.3h-4.6c0,0.7,0.2,1.2,0.6,1.6
		c0.4,0.4,0.8,0.5,1.3,0.5c0.4,0,0.7-0.1,1-0.3C261.4,625.4,261.7,625.1,261.8,624.7z M258.4,623h3.5c0-0.5-0.2-0.9-0.4-1.2
		c-0.3-0.4-0.8-0.6-1.3-0.6s-0.9,0.2-1.2,0.5S258.4,622.4,258.4,623z"/>
	<path d="M264.3,620.5h1.1v2.6h2.9v-2.6h1.1v6.2h-1.1v-2.8h-2.9v2.8h-1.1V620.5z"/>
	<path d="M270.9,620.5h1.1v4.7l2.9-4.7h1.1v6.2h-1.1V622l-2.9,4.7h-1.1V620.5z"/>
	<path d="M282.5,620.5v6.2h-1v-2.4h-0.6c-0.4,0-0.6,0-0.8,0.1c-0.2,0.1-0.4,0.4-0.8,0.9l-0.9,1.4h-1.3l1.1-1.7
		c0.3-0.5,0.7-0.8,1-0.9c-0.6-0.1-1-0.3-1.3-0.7s-0.4-0.8-0.4-1.2c0-0.5,0.2-1,0.6-1.3s0.9-0.5,1.7-0.5h2.7V620.5z M281.4,621.4
		h-1.5c-0.6,0-1,0.1-1.2,0.3c-0.2,0.2-0.3,0.4-0.3,0.7c0,0.4,0.1,0.6,0.4,0.8c0.3,0.2,0.7,0.3,1.4,0.3h1.2V621.4z"/>
	<path d="M179.4,634.5h1.1v2.7c0.3,0,0.6-0.1,0.7-0.2c0.1-0.1,0.3-0.5,0.6-1.1c0.2-0.5,0.4-0.8,0.5-1s0.3-0.3,0.4-0.3
		s0.4-0.1,0.8-0.1h0.2v0.9h-0.3c-0.3,0-0.5,0-0.5,0.1c-0.1,0.1-0.2,0.3-0.4,0.8c-0.2,0.4-0.3,0.7-0.4,0.8s-0.3,0.3-0.6,0.4
		c0.5,0.1,0.9,0.5,1.3,1.3l1.2,1.9h-1.2l-1.1-1.9c-0.2-0.4-0.4-0.6-0.6-0.8c-0.2-0.2-0.4-0.2-0.6-0.2v2.9h-1.1V634.5z"/>
	<path d="M189,639.9c-0.4,0.3-0.8,0.6-1.1,0.7c-0.3,0.1-0.7,0.2-1.2,0.2c-0.7,0-1.2-0.2-1.6-0.5s-0.6-0.8-0.6-1.3
		c0-0.3,0.1-0.6,0.2-0.8c0.1-0.2,0.3-0.5,0.5-0.6c0.2-0.1,0.5-0.3,0.8-0.3c0.2-0.1,0.5-0.1,0.9-0.2c0.9-0.1,1.5-0.2,1.9-0.4
		c0-0.1,0-0.2,0-0.3c0-0.4-0.1-0.7-0.3-0.9c-0.3-0.2-0.7-0.4-1.2-0.4s-0.9,0.1-1.1,0.3c-0.2,0.2-0.4,0.5-0.5,0.9l-1-0.1
		c0.1-0.4,0.2-0.8,0.5-1.1c0.3-0.3,0.5-0.5,0.9-0.6c0.4-0.1,0.9-0.2,1.4-0.2s1,0.1,1.3,0.2c0.3,0.1,0.6,0.3,0.7,0.5s0.3,0.4,0.3,0.7
		c0,0.2,0.1,0.5,0.1,1v1.4c0,1,0,1.6,0.1,1.9s0.1,0.5,0.3,0.7h-1.1C189.1,640.5,189,640.2,189,639.9z M188.9,637.6
		c-0.4,0.2-1,0.3-1.7,0.4c-0.4,0.1-0.7,0.1-0.9,0.2c-0.2,0.1-0.3,0.2-0.4,0.3s-0.1,0.3-0.1,0.5c0,0.3,0.1,0.5,0.3,0.7
		s0.5,0.3,0.9,0.3s0.8-0.1,1.1-0.3c0.3-0.2,0.5-0.4,0.7-0.7c0.1-0.2,0.2-0.6,0.2-1.1v-0.3H188.9z"/>
	<path d="M191.6,634.5h4.9v6.2h-1.1v-5.3h-2.8v5.3h-1V634.5z"/>
	<path d="M198.1,634.5h1.1v4.7l2.9-4.7h1.1v6.2h-1.1V636l-2.9,4.7h-1.1V634.5z"/>
	<path d="M204.2,634.5h5.1v0.9h-2v5.3h-1v-5.3h-2v-0.9H204.2z"/>
	<path d="M214.2,639.9c-0.4,0.3-0.8,0.6-1.1,0.7c-0.3,0.1-0.7,0.2-1.2,0.2c-0.7,0-1.2-0.2-1.6-0.5s-0.6-0.8-0.6-1.3
		c0-0.3,0.1-0.6,0.2-0.8c0.1-0.2,0.3-0.5,0.5-0.6c0.2-0.1,0.5-0.3,0.8-0.3c0.2-0.1,0.5-0.1,0.9-0.2c0.9-0.1,1.5-0.2,1.9-0.4
		c0-0.1,0-0.2,0-0.3c0-0.4-0.1-0.7-0.3-0.9c-0.3-0.2-0.7-0.4-1.2-0.4s-0.9,0.1-1.1,0.3c-0.2,0.2-0.4,0.5-0.5,0.9l-1-0.1
		c0.1-0.4,0.2-0.8,0.5-1.1c0.3-0.3,0.5-0.5,0.9-0.6c0.4-0.1,0.9-0.2,1.4-0.2s1,0.1,1.3,0.2c0.3,0.1,0.6,0.3,0.7,0.5s0.3,0.4,0.3,0.7
		c0,0.2,0.1,0.5,0.1,1v1.4c0,1,0,1.6,0.1,1.9s0.1,0.5,0.3,0.7h-1.1C214.3,640.5,214.2,640.2,214.2,639.9z M214.1,637.6
		c-0.4,0.2-1,0.3-1.7,0.4c-0.4,0.1-0.7,0.1-0.9,0.2c-0.2,0.1-0.3,0.2-0.4,0.3s-0.1,0.3-0.1,0.5c0,0.3,0.1,0.5,0.3,0.7
		s0.5,0.3,0.9,0.3s0.8-0.1,1.1-0.3c0.3-0.2,0.5-0.4,0.7-0.7c0.1-0.2,0.2-0.6,0.2-1.1v-0.3H214.1z"/>
	<path d="M217.3,634.5h4.9v6.2h-1v-5.3h-2.8v3.1c0,0.7,0,1.2-0.1,1.4c-0.1,0.2-0.2,0.4-0.4,0.6s-0.5,0.3-0.9,0.3c-0.2,0-0.5,0-0.8,0
		v-0.9h0.5c0.2,0,0.4,0,0.5-0.1c0.1-0.1,0.2-0.1,0.2-0.2c0-0.1,0-0.4,0-1v-4.1H217.3z"/>
	<path d="M227.9,639.9c-0.4,0.3-0.8,0.6-1.1,0.7c-0.3,0.1-0.7,0.2-1.2,0.2c-0.7,0-1.2-0.2-1.6-0.5s-0.6-0.8-0.6-1.3
		c0-0.3,0.1-0.6,0.2-0.8c0.1-0.2,0.3-0.5,0.5-0.6c0.2-0.1,0.5-0.3,0.8-0.3c0.2-0.1,0.5-0.1,0.9-0.2c0.9-0.1,1.5-0.2,1.9-0.4
		c0-0.1,0-0.2,0-0.3c0-0.4-0.1-0.7-0.3-0.9c-0.3-0.2-0.7-0.4-1.2-0.4s-0.9,0.1-1.1,0.3c-0.2,0.2-0.4,0.5-0.5,0.9l-1-0.1
		c0.1-0.4,0.2-0.8,0.5-1.1c0.3-0.3,0.5-0.5,0.9-0.6c0.4-0.1,0.9-0.2,1.4-0.2s1,0.1,1.3,0.2c0.3,0.1,0.6,0.3,0.7,0.5s0.3,0.4,0.3,0.7
		c0,0.2,0.1,0.5,0.1,1v1.4c0,1,0,1.6,0.1,1.9s0.1,0.5,0.3,0.7H228C228,640.5,227.9,640.2,227.9,639.9z M227.8,637.6
		c-0.4,0.2-1,0.3-1.7,0.4c-0.4,0.1-0.7,0.1-0.9,0.2c-0.2,0.1-0.3,0.2-0.4,0.3s-0.1,0.3-0.1,0.5c0,0.3,0.1,0.5,0.3,0.7
		s0.5,0.3,0.9,0.3s0.8-0.1,1.1-0.3c0.3-0.2,0.5-0.4,0.7-0.7c0.1-0.2,0.2-0.6,0.2-1.1v-0.3H227.8z"/>
	<path d="M230.5,634.5h1.6l1.6,5l1.8-5h1.5v6.2h-1.1v-5l-1.8,5h-0.9l-1.7-5.3v5.3h-1V634.5z"/>
	<path d="M238.8,634.5h1.1v4.7l2.9-4.7h1.1v6.2h-1.1V636l-2.9,4.7h-1.1V634.5z"/>
</g>
<g>
	<path d="M127.6,837.8h1.1v3.8c0.5,0,0.9-0.1,1.1-0.3s0.5-0.7,0.8-1.5c0.2-0.6,0.4-1,0.6-1.2s0.4-0.4,0.7-0.6s0.6-0.2,0.9-0.2
		c0.4,0,0.7,0,0.7,0v1c0,0-0.1,0-0.2,0c-0.1,0-0.2,0-0.2,0c-0.4,0-0.6,0.1-0.8,0.3s-0.4,0.6-0.6,1.1c-0.3,0.7-0.5,1.2-0.7,1.4
		s-0.4,0.3-0.7,0.5c0.6,0.2,1.1,0.7,1.6,1.5l1.8,2.9h-1.4l-1.4-2.3c-0.4-0.6-0.7-1.1-1-1.3s-0.6-0.4-1-0.4v4h-1.1v-8.7H127.6z"/>
	<path d="M134,843.3c0-1.2,0.3-2,1-2.6c0.5-0.5,1.2-0.7,2-0.7c0.9,0,1.6,0.3,2.1,0.8s0.8,1.3,0.8,2.3c0,0.8-0.1,1.4-0.4,1.9
		s-0.6,0.8-1,1.1s-1,0.4-1.5,0.4c-0.9,0-1.6-0.3-2.1-0.8S134,844.3,134,843.3z M135.1,843.3c0,0.8,0.2,1.4,0.5,1.8s0.8,0.6,1.3,0.6
		s1-0.2,1.3-0.6s0.5-1,0.5-1.8s-0.2-1.4-0.5-1.7s-0.8-0.6-1.3-0.6s-1,0.2-1.3,0.6S135.1,842.5,135.1,843.3z"/>
	<path d="M141.1,840.2h1.1v2.6h2.9v-2.6h1.1v6.2h-1.1v-2.8h-3v2.8h-1V840.2z"/>
	<path d="M147.1,840.2h5.1v0.9h-2v5.3h-1v-5.3h-2L147.1,840.2L147.1,840.2z"/>
	<path d="M153.2,848.8v-8.6h1v0.8c0.2-0.3,0.5-0.6,0.8-0.7s0.6-0.2,1-0.2c0.5,0,1,0.1,1.4,0.4s0.7,0.7,0.9,1.2s0.3,1,0.3,1.6
		c0,0.6-0.1,1.2-0.3,1.7s-0.6,0.9-1,1.2c-0.4,0.3-0.9,0.4-1.4,0.4c-0.4,0-0.7-0.1-0.9-0.2s-0.5-0.3-0.7-0.6v3H153.2L153.2,848.8z
		 M154.2,843.3c0,0.8,0.2,1.4,0.5,1.8s0.7,0.6,1.2,0.6s0.9-0.2,1.2-0.6s0.5-1,0.5-1.8s-0.2-1.4-0.5-1.8c-0.3-0.4-0.7-0.6-1.2-0.6
		c-0.4,0-0.8,0.2-1.2,0.6C154.3,841.9,154.2,842.5,154.2,843.3z"/>
	<path d="M159.5,843.3c0-1.2,0.3-2,1-2.6c0.5-0.5,1.2-0.7,2-0.7c0.9,0,1.6,0.3,2.1,0.8s0.8,1.3,0.8,2.3c0,0.8-0.1,1.4-0.4,1.9
		s-0.6,0.8-1,1.1s-1,0.4-1.5,0.4c-0.9,0-1.6-0.3-2.1-0.8S159.5,844.3,159.5,843.3z M160.6,843.3c0,0.8,0.2,1.4,0.5,1.8
		s0.8,0.6,1.3,0.6s1-0.2,1.3-0.6s0.5-1,0.5-1.8s-0.2-1.4-0.5-1.7s-0.8-0.6-1.3-0.6s-1,0.2-1.3,0.6S160.6,842.5,160.6,843.3z"/>
	<path d="M166.8,840.2h4.9v6.2h-1v-5.3h-2.8v3.1c0,0.7,0,1.2-0.1,1.4s-0.2,0.4-0.4,0.6s-0.5,0.3-0.9,0.3c-0.2,0-0.5,0-0.8,0v-0.9
		h0.5c0.2,0,0.4,0,0.5-0.1c0.1-0.1,0.2-0.1,0.2-0.2s0-0.4,0-1v-4.1H166.8z"/>
	<path d="M173.3,840.2h1.1v2.4h1.3c0.9,0,1.5,0.2,2,0.5s0.7,0.8,0.7,1.4c0,0.5-0.2,1-0.6,1.3s-1,0.6-1.9,0.6h-2.6V840.2z
		 M174.3,845.5h1.1c0.7,0,1.1-0.1,1.4-0.2s0.4-0.4,0.4-0.8c0-0.3-0.1-0.5-0.3-0.7s-0.7-0.3-1.4-0.3h-1.2V845.5z"/>
	<path d="M179.5,840.2h1.1v2.6h2.9v-2.6h1.1v6.2h-1.1v-2.8h-2.9v2.8h-1.1V840.2z"/>
	<path d="M190.2,845.6c-0.4,0.3-0.8,0.6-1.1,0.7s-0.7,0.2-1.2,0.2c-0.7,0-1.2-0.2-1.6-0.5c-0.4-0.3-0.6-0.8-0.6-1.3
		c0-0.3,0.1-0.6,0.2-0.8s0.3-0.5,0.5-0.6c0.2-0.1,0.5-0.3,0.8-0.3c0.2-0.1,0.5-0.1,0.9-0.2c0.9-0.1,1.5-0.2,1.9-0.4
		c0-0.1,0-0.2,0-0.3c0-0.4-0.1-0.7-0.3-0.9c-0.3-0.2-0.7-0.4-1.2-0.4s-0.9,0.1-1.1,0.3s-0.4,0.5-0.5,0.9l-1-0.1
		c0.1-0.4,0.2-0.8,0.5-1.1c0.3-0.3,0.5-0.5,0.9-0.6c0.4-0.1,0.9-0.2,1.4-0.2s1,0.1,1.3,0.2s0.6,0.3,0.7,0.5s0.3,0.4,0.3,0.7
		c0,0.2,0.1,0.5,0.1,1v1.4c0,1,0,1.6,0.1,1.9s0.1,0.5,0.3,0.7h-1.1C190.3,846.2,190.3,845.9,190.2,845.6z M190.1,843.3
		c-0.4,0.2-1,0.3-1.7,0.4c-0.4,0.1-0.7,0.1-0.9,0.2s-0.3,0.2-0.4,0.3c-0.1,0.1-0.1,0.3-0.1,0.5c0,0.3,0.1,0.5,0.3,0.7
		s0.5,0.3,0.9,0.3s0.8-0.1,1.1-0.3s0.5-0.4,0.7-0.7c0.1-0.2,0.2-0.6,0.2-1.1L190.1,843.3L190.1,843.3z"/>
	<path d="M197.7,840.2v6.2h-1V844h-0.6c-0.4,0-0.6,0-0.8,0.1c-0.2,0.1-0.4,0.4-0.8,0.9l-0.9,1.4h-1.3l1.1-1.7c0.3-0.5,0.7-0.8,1-0.9
		c-0.6-0.1-1-0.3-1.3-0.7c-0.3-0.4-0.4-0.8-0.4-1.2c0-0.5,0.2-1,0.6-1.3c0.4-0.3,0.9-0.5,1.7-0.5h2.7V840.2z M196.7,841h-1.5
		c-0.6,0-1,0.1-1.2,0.3s-0.3,0.4-0.3,0.7c0,0.4,0.1,0.6,0.4,0.8s0.7,0.3,1.4,0.3h1.2L196.7,841L196.7,841z"/>
	<path d="M202.7,840.2h1.1v2.7c0.3,0,0.6-0.1,0.7-0.2c0.1-0.1,0.3-0.5,0.6-1.1c0.2-0.5,0.4-0.8,0.5-1s0.3-0.3,0.4-0.3
		s0.4-0.1,0.8-0.1h0.2v0.9h-0.3c-0.3,0-0.5,0-0.5,0.1c-0.1,0.1-0.2,0.3-0.4,0.8c-0.2,0.4-0.3,0.7-0.4,0.8c-0.1,0.1-0.3,0.3-0.6,0.4
		c0.5,0.1,0.9,0.5,1.3,1.3l1.2,1.9h-1.2l-1.1-1.9c-0.2-0.4-0.4-0.6-0.6-0.8c-0.2-0.2-0.4-0.2-0.6-0.2v2.9h-1.1L202.7,840.2
		L202.7,840.2z"/>
	<path d="M207.7,843.3c0-1.2,0.3-2,1-2.6c0.5-0.5,1.2-0.7,2-0.7c0.9,0,1.6,0.3,2.1,0.8s0.8,1.3,0.8,2.3c0,0.8-0.1,1.4-0.4,1.9
		s-0.6,0.8-1,1.1s-1,0.4-1.5,0.4c-0.9,0-1.6-0.3-2.1-0.8S207.7,844.3,207.7,843.3z M208.7,843.3c0,0.8,0.2,1.4,0.5,1.8
		s0.8,0.6,1.3,0.6s1-0.2,1.3-0.6s0.5-1,0.5-1.8s-0.2-1.4-0.5-1.7s-0.8-0.6-1.3-0.6s-1,0.2-1.3,0.6S208.7,842.5,208.7,843.3z"/>
	<path d="M214.8,840.2h1.6l1.6,5l1.8-5h1.5v6.2h-1.1v-5l-1.8,5h-0.9l-1.7-5.3v5.3h-1L214.8,840.2L214.8,840.2z"/>
	<path d="M223,840.2h4.9v6.2h-1.1v-5.3H224v5.3h-1.1L223,840.2L223,840.2z"/>
	<path d="M233.5,845.6c-0.4,0.3-0.8,0.6-1.1,0.7s-0.7,0.2-1.2,0.2c-0.7,0-1.2-0.2-1.6-0.5c-0.4-0.3-0.6-0.8-0.6-1.3
		c0-0.3,0.1-0.6,0.2-0.8s0.3-0.5,0.5-0.6c0.2-0.1,0.5-0.3,0.8-0.3c0.2-0.1,0.5-0.1,0.9-0.2c0.9-0.1,1.5-0.2,1.9-0.4
		c0-0.1,0-0.2,0-0.3c0-0.4-0.1-0.7-0.3-0.9c-0.3-0.2-0.7-0.4-1.2-0.4s-0.9,0.1-1.1,0.3s-0.4,0.5-0.5,0.9l-1-0.1
		c0.1-0.4,0.2-0.8,0.5-1.1c0.3-0.3,0.5-0.5,0.9-0.6c0.4-0.1,0.9-0.2,1.4-0.2s1,0.1,1.3,0.2s0.6,0.3,0.7,0.5s0.3,0.4,0.3,0.7
		c0,0.2,0.1,0.5,0.1,1v1.4c0,1,0,1.6,0.1,1.9s0.1,0.5,0.3,0.7h-1.1C233.6,846.2,233.6,845.9,233.5,845.6z M233.5,843.3
		c-0.4,0.2-1,0.3-1.7,0.4c-0.4,0.1-0.7,0.1-0.9,0.2s-0.3,0.2-0.4,0.3c-0.1,0.1-0.1,0.3-0.1,0.5c0,0.3,0.1,0.5,0.3,0.7
		s0.5,0.3,0.9,0.3s0.8-0.1,1.1-0.3s0.5-0.4,0.7-0.7c0.1-0.2,0.2-0.6,0.2-1.1L233.5,843.3L233.5,843.3z"/>
	<path d="M236.2,840.2h1.1v2.6h2.9v-2.6h1.1v6.2h-1.2v-2.8h-2.9v2.8h-1.1L236.2,840.2L236.2,840.2z"/>
	<path d="M242.8,840.2h1.1v4.7l2.9-4.7h1.1v6.2h-1.1v-4.7l-2.9,4.7h-1.1V840.2z"/>
	<path d="M254.4,840.2v6.2h-1V844h-0.6c-0.4,0-0.6,0-0.8,0.1c-0.2,0.1-0.4,0.4-0.8,0.9l-0.9,1.4H249l1.1-1.7c0.3-0.5,0.7-0.8,1-0.9
		c-0.6-0.1-1-0.3-1.3-0.7c-0.3-0.4-0.4-0.8-0.4-1.2c0-0.5,0.2-1,0.6-1.3c0.4-0.3,0.9-0.5,1.7-0.5h2.7V840.2z M253.3,841h-1.5
		c-0.6,0-1,0.1-1.2,0.3s-0.3,0.4-0.3,0.7c0,0.4,0.1,0.6,0.4,0.8s0.7,0.3,1.4,0.3h1.2L253.3,841L253.3,841z"/>
	<path d="M259.5,837.8h1.1v3.8c0.5,0,0.9-0.1,1.1-0.3s0.5-0.7,0.8-1.5c0.2-0.6,0.4-1,0.6-1.2s0.4-0.4,0.7-0.6s0.6-0.2,0.9-0.2
		c0.4,0,0.7,0,0.7,0v1c0,0-0.1,0-0.2,0c-0.1,0-0.2,0-0.2,0c-0.4,0-0.6,0.1-0.8,0.3s-0.4,0.6-0.6,1.1c-0.3,0.7-0.5,1.2-0.7,1.4
		s-0.4,0.3-0.7,0.5c0.6,0.2,1.1,0.7,1.6,1.5l1.8,2.9h-1.5l-1.4-2.3c-0.4-0.6-0.7-1.1-1-1.3s-0.6-0.4-1-0.4v4h-1.1L259.5,837.8
		L259.5,837.8z"/>
	<path d="M270.4,845.6c-0.4,0.3-0.8,0.6-1.1,0.7s-0.7,0.2-1.2,0.2c-0.7,0-1.2-0.2-1.6-0.5c-0.4-0.3-0.6-0.8-0.6-1.3
		c0-0.3,0.1-0.6,0.2-0.8s0.3-0.5,0.5-0.6c0.2-0.1,0.5-0.3,0.8-0.3c0.2-0.1,0.5-0.1,0.9-0.2c0.9-0.1,1.5-0.2,1.9-0.4
		c0-0.1,0-0.2,0-0.3c0-0.4-0.1-0.7-0.3-0.9c-0.3-0.2-0.7-0.4-1.2-0.4s-0.9,0.1-1.1,0.3s-0.4,0.5-0.5,0.9l-1-0.1
		c0.1-0.4,0.2-0.8,0.5-1.1c0.3-0.3,0.5-0.5,0.9-0.6c0.4-0.1,0.9-0.2,1.4-0.2s1,0.1,1.3,0.2s0.6,0.3,0.7,0.5s0.3,0.4,0.3,0.7
		c0,0.2,0.1,0.5,0.1,1v1.4c0,1,0,1.6,0.1,1.9s0.1,0.5,0.3,0.7h-1.1C270.5,846.2,270.4,845.9,270.4,845.6z M270.3,843.3
		c-0.4,0.2-1,0.3-1.7,0.4c-0.4,0.1-0.7,0.1-0.9,0.2s-0.3,0.2-0.4,0.3c-0.1,0.1-0.1,0.3-0.1,0.5c0,0.3,0.1,0.5,0.3,0.7
		s0.5,0.3,0.9,0.3s0.8-0.1,1.1-0.3s0.5-0.4,0.7-0.7c0.1-0.2,0.2-0.6,0.2-1.1L270.3,843.3L270.3,843.3z"/>
	<path d="M273,840.2h1.1v4.7l2.9-4.7h1.1v6.2H277v-4.7l-2.9,4.7H273V840.2z M276.6,837.8h0.7c-0.1,0.5-0.2,0.9-0.5,1.1
		s-0.7,0.4-1.2,0.4s-0.9-0.1-1.2-0.4s-0.5-0.6-0.5-1.1h0.7c0.1,0.3,0.2,0.5,0.3,0.6c0.1,0.1,0.4,0.2,0.7,0.2s0.6-0.1,0.7-0.2
		C276.4,838.3,276.6,838.1,276.6,837.8z"/>
	<path d="M279.7,840.2h1.6l1.6,5l1.8-5h1.5v6.2h-1.1v-5l-1.8,5h-0.9l-1.7-5.3v5.3h-1L279.7,840.2L279.7,840.2z"/>
	<path d="M292,845.6c-0.4,0.3-0.8,0.6-1.1,0.7s-0.7,0.2-1.2,0.2c-0.7,0-1.2-0.2-1.6-0.5c-0.4-0.3-0.6-0.8-0.6-1.3
		c0-0.3,0.1-0.6,0.2-0.8s0.3-0.5,0.5-0.6c0.2-0.1,0.5-0.3,0.8-0.3c0.2-0.1,0.5-0.1,0.9-0.2c0.9-0.1,1.5-0.2,1.9-0.4
		c0-0.1,0-0.2,0-0.3c0-0.4-0.1-0.7-0.3-0.9c-0.3-0.2-0.7-0.4-1.2-0.4s-0.9,0.1-1.1,0.3s-0.4,0.5-0.5,0.9l-1-0.1
		c0.1-0.4,0.2-0.8,0.5-1.1c0.3-0.3,0.5-0.5,0.9-0.6c0.4-0.1,0.9-0.2,1.4-0.2s1,0.1,1.3,0.2s0.6,0.3,0.7,0.5s0.3,0.4,0.3,0.7
		c0,0.2,0.1,0.5,0.1,1v1.4c0,1,0,1.6,0.1,1.9s0.1,0.5,0.3,0.7h-1.1C292.1,846.2,292,845.9,292,845.6z M291.9,843.3
		c-0.4,0.2-1,0.3-1.7,0.4c-0.4,0.1-0.7,0.1-0.9,0.2s-0.3,0.2-0.4,0.3c-0.1,0.1-0.1,0.3-0.1,0.5c0,0.3,0.1,0.5,0.3,0.7
		s0.5,0.3,0.9,0.3s0.8-0.1,1.1-0.3s0.5-0.4,0.7-0.7c0.1-0.2,0.2-0.6,0.2-1.1L291.9,843.3L291.9,843.3z"/>
	<path d="M294.6,840.2h1.1v2.6h2.9v-2.6h1.1v6.2h-1.1v-2.8h-2.9v2.8h-1.1V840.2z"/>
	<path d="M140.3,852.2h1.1v3.8c0.5,0,0.9-0.1,1.1-0.3c0.2-0.2,0.5-0.7,0.8-1.5c0.2-0.6,0.4-1,0.6-1.2s0.4-0.4,0.7-0.6
		s0.6-0.2,0.9-0.2c0.4,0,0.7,0,0.7,0v1c0,0-0.1,0-0.2,0c-0.1,0-0.2,0-0.2,0c-0.4,0-0.6,0.1-0.8,0.3s-0.4,0.6-0.6,1.1
		c-0.3,0.7-0.5,1.2-0.7,1.4s-0.4,0.3-0.7,0.5c0.6,0.2,1.1,0.7,1.6,1.5l1.8,2.9H145l-1.4-2.3c-0.4-0.6-0.7-1.1-1-1.3s-0.6-0.4-1-0.4
		v4h-1.1v-8.7H140.3z"/>
	<path d="M146.7,857.7c0-1.2,0.3-2,1-2.6c0.5-0.5,1.2-0.7,2-0.7c0.9,0,1.6,0.3,2.1,0.8s0.8,1.3,0.8,2.3c0,0.8-0.1,1.4-0.4,1.9
		s-0.6,0.8-1,1.1s-1,0.4-1.5,0.4c-0.9,0-1.6-0.3-2.1-0.8S146.7,858.7,146.7,857.7z M147.8,857.7c0,0.8,0.2,1.4,0.5,1.8
		s0.8,0.6,1.3,0.6s1-0.2,1.3-0.6s0.5-1,0.5-1.8c0-0.8-0.2-1.4-0.5-1.7s-0.8-0.6-1.3-0.6s-1,0.2-1.3,0.6S147.8,856.9,147.8,857.7z"/>
	<path d="M153.8,854.6h1.6l1.6,5l1.8-5h1.5v6.2h-1.1v-5l-1.8,5h-0.9l-1.7-5.3v5.3h-1L153.8,854.6L153.8,854.6z"/>
	<path d="M162.1,854.6h4.9v6.2h-1.1v-5.4h-2.8v5.3h-1V854.6z"/>
	<path d="M172.6,860c-0.4,0.3-0.8,0.6-1.1,0.7c-0.3,0.1-0.7,0.2-1.2,0.2c-0.7,0-1.2-0.2-1.6-0.5c-0.4-0.3-0.6-0.8-0.6-1.3
		c0-0.3,0.1-0.6,0.2-0.8s0.3-0.5,0.5-0.6c0.2-0.1,0.5-0.3,0.8-0.3c0.2-0.1,0.5-0.1,0.9-0.2c0.9-0.1,1.5-0.2,1.9-0.4
		c0-0.1,0-0.2,0-0.3c0-0.4-0.1-0.7-0.3-0.9c-0.3-0.2-0.7-0.4-1.2-0.4s-0.9,0.1-1.1,0.3s-0.4,0.5-0.5,0.9l-1-0.1
		c0.1-0.4,0.2-0.8,0.5-1.1c0.3-0.3,0.5-0.5,0.9-0.6c0.4-0.1,0.9-0.2,1.4-0.2s1,0.1,1.3,0.2s0.6,0.3,0.7,0.5s0.3,0.4,0.3,0.7
		c0,0.2,0.1,0.5,0.1,1v1.4c0,1,0,1.6,0.1,1.9s0.1,0.5,0.3,0.7h-1.1C172.7,860.6,172.7,860.3,172.6,860z M172.5,857.7
		c-0.4,0.2-1,0.3-1.7,0.4c-0.4,0.1-0.7,0.1-0.9,0.2s-0.3,0.2-0.4,0.3c-0.1,0.1-0.1,0.3-0.1,0.5c0,0.3,0.1,0.5,0.3,0.7
		s0.5,0.3,0.9,0.3s0.8-0.1,1.1-0.3s0.5-0.4,0.7-0.7c0.1-0.2,0.2-0.6,0.2-1.1L172.5,857.7L172.5,857.7z"/>
	<path d="M175.2,854.6h1.1v2.6h2.9v-2.6h1.1v6.2h-1.1V858h-2.9v2.8h-1.1V854.6z"/>
	<path d="M181.9,854.6h1.1v4.7l2.9-4.7h1.1v6.2h-1.1v-4.7l-2.9,4.7h-1.1V854.6z"/>
	<path d="M193.5,854.6v6.2h-1v-2.4h-0.6c-0.4,0-0.6,0-0.8,0.1c-0.2,0.1-0.4,0.4-0.8,0.9l-0.9,1.4h-1.3l1.1-1.7
		c0.3-0.5,0.7-0.8,1-0.9c-0.6-0.1-1-0.3-1.3-0.7c-0.3-0.4-0.4-0.8-0.4-1.2c0-0.5,0.2-1,0.6-1.3s0.9-0.5,1.7-0.5L193.5,854.6
		L193.5,854.6z M192.4,855.4h-1.5c-0.6,0-1,0.1-1.2,0.3c-0.2,0.2-0.3,0.4-0.3,0.7c0,0.4,0.1,0.6,0.4,0.8c0.3,0.2,0.7,0.3,1.4,0.3
		h1.2L192.4,855.4L192.4,855.4z"/>
	<path d="M198,857.7c0-1.2,0.3-2,1-2.6c0.5-0.5,1.2-0.7,2-0.7c0.9,0,1.6,0.3,2.1,0.8s0.8,1.3,0.8,2.3c0,0.8-0.1,1.4-0.4,1.9
		s-0.6,0.8-1,1.1s-1,0.4-1.5,0.4c-0.9,0-1.6-0.3-2.1-0.8S198,858.7,198,857.7z M199.1,857.7c0,0.8,0.2,1.4,0.5,1.8s0.8,0.6,1.3,0.6
		s1-0.2,1.3-0.6s0.5-1,0.5-1.8c0-0.8-0.2-1.4-0.5-1.7s-0.8-0.6-1.3-0.6s-1,0.2-1.3,0.6S199.1,856.9,199.1,857.7z"/>
	<path d="M204.2,854.6h5.1v0.9h-2v5.3h-1v-5.4h-2L204.2,854.6L204.2,854.6z"/>
	<path d="M209.9,854.6h1.1v1.2c0,0.5,0,0.9,0.1,1.1s0.2,0.4,0.4,0.6s0.5,0.3,0.9,0.3s0.9-0.1,1.5-0.3v-2.8h1.1v6.2h-1.1v-2.5
		c-0.6,0.2-1.3,0.3-1.8,0.3s-0.9-0.1-1.3-0.4s-0.6-0.5-0.7-0.9c-0.1-0.4-0.2-0.7-0.2-1.1V854.6z"/>
	<path d="M220.8,858.8l1.1,0.1c-0.2,0.6-0.5,1.1-1,1.5c-0.5,0.4-1.1,0.5-1.8,0.5c-0.9,0-1.6-0.3-2.2-0.8s-0.8-1.3-0.8-2.4
		c0-1,0.3-1.9,0.8-2.4s1.2-0.9,2.1-0.9c0.8,0,1.5,0.3,2,0.8s0.8,1.4,0.8,2.4c0,0.1,0,0.2,0,0.3h-4.6c0,0.7,0.2,1.2,0.6,1.6
		s0.8,0.5,1.3,0.5c0.4,0,0.7-0.1,1-0.3S220.7,859.2,220.8,858.8z M217.4,857.1h3.5c0-0.5-0.2-0.9-0.4-1.2c-0.3-0.4-0.8-0.6-1.3-0.6
		s-0.9,0.2-1.2,0.5S217.4,856.5,217.4,857.1z"/>
	<path d="M222.3,854.6h5.1v0.9h-2v5.3h-1v-5.4h-2L222.3,854.6L222.3,854.6z"/>
	<path d="M228.3,854.6h1.1v2.6h2.9v-2.6h1.1v6.2h-1.1V858h-2.9v2.8h-1.1V854.6z"/>
	<path d="M234.6,857.7c0-1.2,0.3-2,1-2.6c0.5-0.5,1.2-0.7,2-0.7c0.9,0,1.6,0.3,2.1,0.8s0.8,1.3,0.8,2.3c0,0.8-0.1,1.4-0.4,1.9
		s-0.6,0.8-1,1.1s-1,0.4-1.5,0.4c-0.9,0-1.6-0.3-2.1-0.8S234.6,858.7,234.6,857.7z M235.6,857.7c0,0.8,0.2,1.4,0.5,1.8
		s0.8,0.6,1.3,0.6s1-0.2,1.3-0.6s0.5-1,0.5-1.8c0-0.8-0.2-1.4-0.5-1.7s-0.8-0.6-1.3-0.6s-1,0.2-1.3,0.6S235.6,856.9,235.6,857.7z"/>
	<path d="M245.7,858.5l1,0.1c-0.1,0.7-0.4,1.3-0.9,1.7c-0.5,0.4-1,0.6-1.7,0.6c-0.9,0-1.5-0.3-2.1-0.8s-0.8-1.4-0.8-2.4
		c0-0.7,0.1-1.3,0.3-1.8s0.6-0.9,1-1.1s1-0.4,1.5-0.4c0.7,0,1.2,0.2,1.7,0.5c0.5,0.3,0.7,0.8,0.8,1.5l-1,0.2
		c-0.1-0.4-0.3-0.7-0.5-0.9s-0.5-0.3-0.9-0.3c-0.5,0-1,0.2-1.3,0.6s-0.5,1-0.5,1.8c0,0.8,0.2,1.4,0.5,1.8c0.3,0.4,0.7,0.6,1.3,0.6
		c0.4,0,0.8-0.1,1-0.4S245.6,859,245.7,858.5z"/>
	<path d="M247.1,854.6h5.1v0.9h-2v5.3h-1v-5.4h-2L247.1,854.6L247.1,854.6z"/>
	<path d="M253.1,854.6h1.1v4.7l2.9-4.7h1.1v6.2h-1.1v-4.7l-2.9,4.7h-1.1V854.6z"/>
	<path d="M266.6,860.8v-8.6h3.2c0.6,0,1,0,1.3,0.1c0.4,0.1,0.8,0.2,1.1,0.4c0.3,0.2,0.5,0.5,0.7,0.8c0.2,0.3,0.3,0.7,0.3,1.2
		c0,0.7-0.2,1.3-0.7,1.9s-1.3,0.8-2.5,0.8h-2.2v3.5L266.6,860.8L266.6,860.8z M267.8,856.3h2.2c0.7,0,1.3-0.1,1.6-0.4
		s0.5-0.7,0.5-1.2c0-0.4-0.1-0.7-0.3-0.9s-0.4-0.4-0.7-0.5c-0.2-0.1-0.5-0.1-1.1-0.1h-2.2V856.3z"/>
	<path d="M275.6,860.8l-1.9-6.2h1.1l1,3.6l0.4,1.3c0-0.1,0.1-0.5,0.3-1.3l1-3.6h1.1l0.9,3.6l0.3,1.2l0.4-1.2l1.1-3.6h1l-1.9,6.2
		h-1.1l-1-3.7l-0.2-1.1l-1.3,4.8H275.6z"/>
	<path d="M289.4,857.8l1.1,0.3c-0.2,0.9-0.7,1.6-1.3,2.1s-1.4,0.7-2.3,0.7c-0.9,0-1.7-0.2-2.3-0.6s-1-0.9-1.3-1.6s-0.5-1.5-0.5-2.3
		c0-0.9,0.2-1.7,0.5-2.3c0.3-0.6,0.8-1.2,1.5-1.5s1.3-0.5,2.1-0.5c0.9,0,1.6,0.2,2.2,0.7s1,1.1,1.2,1.8l-1.1,0.3
		c-0.2-0.6-0.5-1.1-0.9-1.4s-0.9-0.4-1.4-0.4c-0.7,0-1.2,0.2-1.7,0.5s-0.8,0.7-0.9,1.3c-0.1,0.6-0.3,1.1-0.3,1.6
		c0,0.7,0.1,1.4,0.3,1.9s0.5,1,1,1.2s0.9,0.4,1.5,0.4s1.2-0.2,1.6-0.6S289.3,858.5,289.4,857.8z"/>
</g>
</svg>
