<?xml version="1.0" encoding="utf-8"?>
<!-- Generator: Adobe Illustrator 22.1.0, SVG Export Plug-In . SVG Version: 6.00 Build 0)  -->
<svg version="1.1" id="组_2" xmlns="http://www.w3.org/2000/svg" xmlns:xlink="http://www.w3.org/1999/xlink" x="0px" y="0px"
	 viewBox="0 0 678 253" style="enable-background:new 0 0 678 253;" xml:space="preserve">
<style type="text/css">
	.st0{enable-background:new    ;}
	.st1{fill:#D6D6D6;}
	.st2{fill:#0E0E0E;}
	.st3{fill:#0EAFA0;}
	.st4{fill:#CDBB78;}
	.st5{fill:#EC632F;}
</style>
<g id="_2.0_" class="st0">
	<path d="M13.6,187.6c0-0.6-0.2-1-0.5-1.4c-0.4-0.3-0.9-0.5-1.5-0.5c-0.4,0-0.9,0.1-1.3,0.3c-0.5,0.2-0.9,0.5-1.3,1v-1.3
		c0.3-0.4,0.7-0.6,1.2-0.8c0.4-0.2,1-0.3,1.6-0.3c1,0,1.7,0.3,2.3,0.8s0.9,1.2,0.9,2.1c0,0.8-0.2,1.5-0.5,2c-0.4,0.6-1,1.2-1.9,1.8
		s-1.5,1.1-1.8,1.3c-0.3,0.3-0.5,0.5-0.6,0.8c-0.1,0.2-0.2,0.5-0.2,0.9h5.3v1.2H8.6V195c0-0.6,0.1-1.1,0.3-1.6
		c0.2-0.4,0.4-0.8,0.8-1.3c0.4-0.4,1-0.9,1.8-1.5s1.4-1.1,1.7-1.5C13.5,188.7,13.6,188.2,13.6,187.6z"/>
	<path d="M16.9,194.8c0-0.2,0.1-0.5,0.3-0.6c0.2-0.2,0.4-0.3,0.6-0.3c0.3,0,0.5,0.1,0.6,0.3c0.2,0.2,0.3,0.4,0.3,0.6
		c0,0.2-0.1,0.4-0.3,0.6c-0.2,0.2-0.4,0.3-0.6,0.3c-0.3,0-0.5-0.1-0.6-0.3C16.9,195.2,16.9,195,16.9,194.8z"/>
	<path d="M20.1,190.4c0-1.9,0.3-3.3,0.9-4.3s1.5-1.5,2.7-1.5c2.3,0,3.4,1.8,3.4,5.5c0,1.8-0.3,3.2-1,4.1c-0.6,1-1.5,1.4-2.7,1.4
		c-1.1,0-1.9-0.5-2.5-1.4C20.4,193.4,20.1,192.1,20.1,190.4z M21.4,190.3c0,2.8,0.7,4.3,2.2,4.3c1.4,0,2.1-1.4,2.1-4.3
		c0-3-0.7-4.5-2.1-4.5S21.4,187.3,21.4,190.3z"/>
	<path d="M28.3,187.5c0-0.9,0.2-1.6,0.7-2.1s1.1-0.8,1.9-0.8s1.4,0.2,1.8,0.7s0.6,1.1,0.6,2c0,0.8-0.2,1.5-0.7,2s-1.1,0.8-1.9,0.8
		c-0.7,0-1.3-0.2-1.8-0.7C28.5,189,28.3,188.3,28.3,187.5z M29.4,187.4c0,0.6,0.1,1.1,0.4,1.4c0.3,0.3,0.6,0.5,1.1,0.5
		s0.8-0.2,1.1-0.5c0.3-0.3,0.4-0.8,0.4-1.4c0-0.6-0.1-1.1-0.4-1.4c-0.2-0.3-0.6-0.5-1-0.5c-0.5,0-0.8,0.2-1.1,0.5
		C29.5,186.4,29.4,186.8,29.4,187.4z M38,184.8l-6.9,10.8H30l6.9-10.8H38z M34.7,193c0-0.9,0.2-1.6,0.7-2.1s1.1-0.8,1.9-0.8
		c0.8,0,1.3,0.2,1.8,0.7c0.4,0.5,0.6,1.1,0.6,2c0,0.8-0.2,1.5-0.7,2s-1.1,0.8-1.9,0.8c-0.7,0-1.3-0.2-1.8-0.7
		C34.9,194.4,34.7,193.8,34.7,193z M35.8,192.9c0,0.6,0.1,1,0.4,1.4c0.3,0.3,0.6,0.5,1.1,0.5s0.8-0.2,1.1-0.5s0.4-0.8,0.4-1.4
		c0-0.6-0.1-1.1-0.4-1.4c-0.3-0.3-0.6-0.5-1-0.5c-0.5,0-0.8,0.2-1.1,0.5C35.9,191.9,35.8,192.3,35.8,192.9z"/>
</g>
<g id="_4.0_" class="st0">
	<path d="M14.2,157.2v7.1h1.6v1.1h-1.6v2.5h-1.3v-2.5h-5v-1.1c0.9-1,1.8-2.1,2.7-3.4c0.9-1.3,1.6-2.5,2.2-3.7L14.2,157.2L14.2,157.2
		z M9.4,164.3h3.5v-5.1c-0.5,0.9-1,1.7-1.5,2.5C10.8,162.5,10.1,163.3,9.4,164.3z"/>
	<path d="M16.9,167.2c0-0.2,0.1-0.5,0.3-0.6c0.2-0.2,0.4-0.3,0.6-0.3c0.3,0,0.5,0.1,0.6,0.3c0.2,0.2,0.3,0.4,0.3,0.6
		c0,0.2-0.1,0.4-0.3,0.6c-0.2,0.2-0.4,0.3-0.6,0.3c-0.3,0-0.5-0.1-0.6-0.3C16.9,167.6,16.9,167.4,16.9,167.2z"/>
	<path d="M20.1,162.8c0-1.9,0.3-3.3,0.9-4.3s1.5-1.5,2.7-1.5c2.3,0,3.4,1.8,3.4,5.5c0,1.8-0.3,3.2-1,4.1c-0.6,1-1.5,1.4-2.7,1.4
		c-1.1,0-1.9-0.5-2.5-1.4C20.4,165.8,20.1,164.5,20.1,162.8z M21.4,162.7c0,2.8,0.7,4.3,2.2,4.3c1.4,0,2.1-1.4,2.1-4.3
		c0-3-0.7-4.5-2.1-4.5S21.4,159.7,21.4,162.7z"/>
	<path d="M28.3,159.9c0-0.9,0.2-1.6,0.7-2.1s1.1-0.8,1.9-0.8s1.4,0.2,1.8,0.7s0.6,1.1,0.6,2c0,0.8-0.2,1.5-0.7,2s-1.1,0.8-1.9,0.8
		c-0.7,0-1.3-0.2-1.8-0.7C28.5,161.4,28.3,160.7,28.3,159.9z M29.4,159.8c0,0.6,0.1,1.1,0.4,1.4c0.3,0.3,0.6,0.5,1.1,0.5
		s0.8-0.2,1.1-0.5c0.3-0.3,0.4-0.8,0.4-1.4c0-0.6-0.1-1.1-0.4-1.4c-0.2-0.3-0.6-0.5-1-0.5c-0.5,0-0.8,0.2-1.1,0.5
		C29.5,158.8,29.4,159.2,29.4,159.8z M38,157.2L31.1,168H30l6.9-10.8H38z M34.7,165.4c0-0.9,0.2-1.6,0.7-2.1s1.1-0.8,1.9-0.8
		c0.8,0,1.3,0.2,1.8,0.7c0.4,0.5,0.6,1.1,0.6,2c0,0.8-0.2,1.5-0.7,2s-1.1,0.8-1.9,0.8c-0.7,0-1.3-0.2-1.8-0.7
		C34.9,166.8,34.7,166.2,34.7,165.4z M35.8,165.3c0,0.6,0.1,1,0.4,1.4c0.3,0.3,0.6,0.5,1.1,0.5s0.8-0.2,1.1-0.5s0.4-0.8,0.4-1.4
		c0-0.6-0.1-1.1-0.4-1.4c-0.3-0.3-0.6-0.5-1-0.5c-0.5,0-0.8,0.2-1.1,0.5C35.9,164.3,35.8,164.7,35.8,165.3z"/>
</g>
<g id="_6.0_" class="st0">
	<path d="M14.8,128.4c-0.6-0.3-1.1-0.4-1.7-0.4c-0.9,0-1.7,0.4-2.2,1.2c-0.6,0.8-0.8,1.9-0.9,3.3l0,0c0.5-1,1.3-1.5,2.4-1.5
		c0.9,0,1.7,0.3,2.2,0.9s0.8,1.4,0.8,2.4s-0.3,1.9-1,2.6c-0.6,0.7-1.4,1-2.4,1c-1.1,0-1.9-0.4-2.6-1.3c-0.6-0.8-0.9-2.1-0.9-3.6
		c0-1.9,0.4-3.4,1.2-4.5c0.8-1.1,1.9-1.7,3.2-1.7c0.8,0,1.4,0.1,1.8,0.3L14.8,128.4L14.8,128.4z M10,134.2c0,0.7,0.2,1.3,0.6,1.8
		c0.4,0.5,0.9,0.8,1.5,0.8s1.1-0.2,1.4-0.6c0.4-0.4,0.6-1,0.6-1.7s-0.2-1.3-0.5-1.7s-0.8-0.6-1.5-0.6c-0.6,0-1.1,0.2-1.5,0.6
		C10.2,133.2,10,133.7,10,134.2z"/>
	<path d="M16.9,137c0-0.2,0.1-0.5,0.3-0.6c0.2-0.2,0.4-0.3,0.6-0.3c0.3,0,0.5,0.1,0.6,0.3c0.2,0.2,0.3,0.4,0.3,0.6
		c0,0.2-0.1,0.4-0.3,0.6c-0.2,0.2-0.4,0.3-0.6,0.3c-0.3,0-0.5-0.1-0.6-0.3C16.9,137.4,16.9,137.2,16.9,137z"/>
	<path d="M20.1,132.6c0-1.9,0.3-3.3,0.9-4.3s1.5-1.5,2.7-1.5c2.3,0,3.4,1.8,3.4,5.5c0,1.8-0.3,3.2-1,4.1c-0.6,1-1.5,1.4-2.7,1.4
		c-1.1,0-1.9-0.5-2.5-1.4C20.4,135.6,20.1,134.3,20.1,132.6z M21.4,132.5c0,2.8,0.7,4.3,2.2,4.3c1.4,0,2.1-1.4,2.1-4.3
		c0-3-0.7-4.5-2.1-4.5S21.4,129.5,21.4,132.5z"/>
	<path d="M28.3,129.7c0-0.9,0.2-1.6,0.7-2.1c0.5-0.5,1.1-0.8,1.9-0.8s1.4,0.2,1.8,0.7s0.6,1.1,0.6,2c0,0.8-0.2,1.5-0.7,2
		s-1.1,0.8-1.9,0.8c-0.7,0-1.3-0.2-1.8-0.7C28.5,131.2,28.3,130.5,28.3,129.7z M29.4,129.7c0,0.6,0.1,1.1,0.4,1.4
		c0.3,0.3,0.6,0.5,1.1,0.5s0.8-0.2,1.1-0.5c0.3-0.3,0.4-0.8,0.4-1.4c0-0.6-0.1-1.1-0.4-1.4c-0.2-0.3-0.6-0.5-1-0.5
		c-0.5,0-0.8,0.2-1.1,0.5C29.5,128.6,29.4,129.1,29.4,129.7z M38,127l-6.9,10.8H30l6.9-10.8H38z M34.7,135.2c0-0.9,0.2-1.6,0.7-2.1
		s1.1-0.8,1.9-0.8c0.8,0,1.3,0.2,1.8,0.7c0.4,0.5,0.6,1.1,0.6,2c0,0.8-0.2,1.5-0.7,2s-1.1,0.8-1.9,0.8c-0.7,0-1.3-0.2-1.8-0.7
		C34.9,136.6,34.7,136,34.7,135.2z M35.8,135.1c0,0.6,0.1,1,0.4,1.4c0.3,0.3,0.6,0.5,1.1,0.5s0.8-0.2,1.1-0.5s0.4-0.8,0.4-1.4
		c0-0.6-0.1-1.1-0.4-1.4c-0.3-0.3-0.6-0.5-1-0.5c-0.5,0-0.8,0.2-1.1,0.5C35.9,134.1,35.8,134.5,35.8,135.1z"/>
</g>
<g id="_8.0_" class="st0">
	<path d="M8.4,102c0-0.6,0.2-1.2,0.6-1.7c0.4-0.5,0.8-0.9,1.4-1.1c-0.5-0.3-0.8-0.6-1.1-1s-0.4-0.9-0.4-1.3c0-0.5,0.1-1,0.4-1.4
		c0.3-0.4,0.6-0.7,1.1-1c0.5-0.2,1-0.4,1.5-0.4c0.6,0,1.1,0.1,1.5,0.4c0.5,0.2,0.8,0.6,1.1,1s0.4,0.9,0.4,1.4s-0.1,0.9-0.4,1.3
		c-0.3,0.4-0.6,0.8-1.1,1c0.6,0.2,1.1,0.6,1.4,1.1c0.4,0.5,0.5,1.1,0.5,1.7s-0.1,1.2-0.4,1.6c-0.3,0.5-0.7,0.9-1.2,1.1
		c-0.5,0.3-1.1,0.4-1.8,0.4s-1.3-0.1-1.8-0.4s-0.9-0.6-1.2-1.1C8.6,103.1,8.4,102.6,8.4,102z M9.8,101.9c0,0.6,0.2,1.1,0.6,1.5
		c0.4,0.4,0.9,0.6,1.6,0.6c0.6,0,1.2-0.2,1.6-0.6c0.4-0.4,0.6-0.9,0.6-1.5s-0.2-1.1-0.6-1.5c-0.4-0.4-0.9-0.6-1.5-0.6
		s-1.1,0.2-1.5,0.6C10,100.8,9.8,101.3,9.8,101.9z M10.1,96.9c0,0.5,0.2,0.9,0.5,1.2c0.3,0.3,0.8,0.5,1.2,0.5c0.5,0,0.9-0.2,1.3-0.5
		s0.5-0.8,0.5-1.2c0-0.5-0.2-0.9-0.5-1.2s-0.8-0.5-1.3-0.5s-0.9,0.2-1.3,0.5C10.3,96,10.1,96.5,10.1,96.9z"/>
	<path d="M16.9,104.3c0-0.2,0.1-0.5,0.3-0.6c0.2-0.2,0.4-0.3,0.6-0.3c0.3,0,0.5,0.1,0.6,0.3c0.2,0.2,0.3,0.4,0.3,0.6
		s-0.1,0.4-0.3,0.6c-0.2,0.2-0.4,0.3-0.6,0.3c-0.3,0-0.5-0.1-0.6-0.3C16.9,104.7,16.9,104.5,16.9,104.3z"/>
	<path d="M20.1,99.8c0-1.9,0.3-3.3,0.9-4.3s1.5-1.5,2.7-1.5c2.3,0,3.4,1.8,3.4,5.5c0,1.8-0.3,3.2-1,4.1c-0.6,1-1.5,1.4-2.7,1.4
		c-1.1,0-1.9-0.5-2.5-1.4C20.4,102.9,20.1,101.6,20.1,99.8z M21.4,99.8c0,2.8,0.7,4.3,2.2,4.3c1.4,0,2.1-1.4,2.1-4.3
		c0-3-0.7-4.5-2.1-4.5C22.2,95.2,21.4,96.7,21.4,99.8z"/>
	<path d="M28.3,97c0-0.9,0.2-1.6,0.7-2.1s1.1-0.8,1.9-0.8s1.4,0.2,1.8,0.7s0.6,1.1,0.6,2c0,0.8-0.2,1.5-0.7,2s-1.1,0.8-1.9,0.8
		c-0.7,0-1.3-0.2-1.8-0.7C28.5,98.4,28.3,97.8,28.3,97z M29.4,96.9c0,0.6,0.1,1.1,0.4,1.4s0.6,0.5,1.1,0.5s0.8-0.2,1.1-0.5
		c0.3-0.3,0.4-0.8,0.4-1.4s-0.1-1.1-0.4-1.4c-0.2-0.3-0.6-0.5-1-0.5c-0.5,0-0.8,0.2-1.1,0.5C29.5,95.8,29.4,96.3,29.4,96.9z
		 M38,94.3L31.1,105H30l6.9-10.8H38V94.3z M34.7,102.5c0-0.9,0.2-1.6,0.7-2.1s1.1-0.8,1.9-0.8c0.8,0,1.3,0.2,1.8,0.7
		c0.4,0.5,0.6,1.1,0.6,2c0,0.8-0.2,1.5-0.7,2s-1.1,0.8-1.9,0.8c-0.7,0-1.3-0.2-1.8-0.7C34.9,103.9,34.7,103.3,34.7,102.5z
		 M35.8,102.4c0,0.6,0.1,1,0.4,1.4c0.3,0.3,0.6,0.5,1.1,0.5s0.8-0.2,1.1-0.5s0.4-0.8,0.4-1.4s-0.1-1.1-0.4-1.4
		c-0.3-0.3-0.6-0.5-1-0.5c-0.5,0-0.8,0.2-1.1,0.5C35.9,101.3,35.8,101.8,35.8,102.4z"/>
</g>
<g id="_10.0_" class="st0">
	<path d="M4.3,72.2v-9.1c-0.2,0.2-0.6,0.4-1.1,0.7s-1,0.4-1.4,0.6V63c0.6-0.2,1.2-0.4,1.8-0.7s1.1-0.7,1.5-1h0.5v10.9H4.3z"/>
	<path d="M9.3,67.1c0-1.9,0.3-3.3,0.9-4.3c0.6-1,1.5-1.5,2.7-1.5c2.3,0,3.4,1.8,3.4,5.5c0,1.8-0.3,3.2-1,4.1c-0.6,1-1.5,1.4-2.7,1.4
		c-1.1,0-1.9-0.5-2.5-1.4C9.6,70.1,9.3,68.8,9.3,67.1z M10.7,67c0,2.8,0.7,4.3,2.2,4.3c1.4,0,2.1-1.4,2.1-4.3c0-3-0.7-4.5-2.1-4.5
		C11.4,62.5,10.7,64,10.7,67z"/>
	<path d="M17.8,71.5c0-0.2,0.1-0.5,0.3-0.6c0.2-0.2,0.4-0.3,0.6-0.3c0.3,0,0.5,0.1,0.6,0.3c0.2,0.2,0.3,0.4,0.3,0.6
		s-0.1,0.4-0.3,0.6c-0.2,0.2-0.4,0.3-0.6,0.3c-0.3,0-0.5-0.1-0.6-0.3C17.9,72,17.8,71.8,17.8,71.5z"/>
	<path d="M21,67.1c0-1.9,0.3-3.3,0.9-4.3s1.5-1.5,2.7-1.5c2.3,0,3.4,1.8,3.4,5.5c0,1.8-0.3,3.2-1,4.1c-0.6,1-1.5,1.4-2.7,1.4
		c-1.1,0-1.9-0.5-2.5-1.4C21.3,70.1,21,68.8,21,67.1z M22.4,67c0,2.8,0.7,4.3,2.2,4.3c1.4,0,2.1-1.4,2.1-4.3c0-3-0.7-4.5-2.1-4.5
		C23.1,62.5,22.4,64,22.4,67z"/>
	<path d="M29.3,64.2c0-0.9,0.2-1.6,0.7-2.1s1.1-0.8,1.9-0.8c0.8,0,1.4,0.2,1.8,0.7s0.6,1.1,0.6,2c0,0.8-0.2,1.5-0.7,2
		s-1.1,0.8-1.9,0.8c-0.7,0-1.3-0.2-1.8-0.7C29.5,65.7,29.3,65,29.3,64.2z M30.3,64.2c0,0.6,0.1,1.1,0.4,1.4s0.6,0.5,1.1,0.5
		s0.8-0.2,1.1-0.5s0.4-0.8,0.4-1.4s-0.1-1.1-0.4-1.4c-0.2-0.3-0.6-0.5-1-0.5c-0.5,0-0.8,0.2-1.1,0.5C30.5,63.1,30.3,63.6,30.3,64.2z
		 M38.9,61.5L32,72.3h-1.2l6.9-10.8C37.7,61.5,38.9,61.5,38.9,61.5z M35.7,69.7c0-0.9,0.2-1.6,0.7-2.1s1.1-0.8,1.9-0.8
		c0.8,0,1.3,0.2,1.8,0.7c0.4,0.5,0.6,1.1,0.6,2c0,0.8-0.2,1.5-0.7,2s-1.1,0.8-1.9,0.8c-0.7,0-1.3-0.2-1.8-0.7
		C35.9,71.2,35.7,70.5,35.7,69.7z M36.7,69.7c0,0.6,0.1,1,0.4,1.4c0.3,0.3,0.6,0.5,1.1,0.5s0.8-0.2,1.1-0.5s0.4-0.8,0.4-1.4
		s-0.1-1.1-0.4-1.4c-0.3-0.3-0.6-0.5-1-0.5c-0.5,0-0.8,0.2-1.1,0.5C36.8,68.6,36.7,69.1,36.7,69.7z"/>
</g>
<g id="_12.0_" class="st0">
	<path d="M4.3,41.4v-9.1c-0.2,0.2-0.6,0.4-1.1,0.7s-1,0.4-1.4,0.6v-1.3c0.6-0.2,1.2-0.4,1.8-0.7c0.6-0.3,1.1-0.7,1.5-1h0.5v10.9
		L4.3,41.4L4.3,41.4z"/>
	<path d="M14.6,33.5c0-0.6-0.2-1-0.5-1.4c-0.4-0.3-0.9-0.5-1.5-0.5c-0.4,0-0.9,0.1-1.3,0.3c-0.5,0.2-0.9,0.5-1.3,1v-1.3
		c0.3-0.4,0.7-0.6,1.2-0.8c0.4-0.2,1-0.3,1.6-0.3c1,0,1.7,0.3,2.3,0.8s0.9,1.2,0.9,2.1c0,0.8-0.2,1.5-0.5,2c-0.4,0.6-1,1.2-1.9,1.8
		s-1.5,1.1-1.8,1.3c-0.3,0.3-0.5,0.5-0.6,0.8c-0.1,0.2-0.2,0.5-0.2,0.9h5.3v1.2H9.5v-0.5c0-0.6,0.1-1.1,0.3-1.6
		c0.2-0.4,0.4-0.8,0.8-1.3c0.4-0.4,1-0.9,1.8-1.5s1.4-1.1,1.7-1.5C14.4,34.6,14.6,34.1,14.6,33.5z"/>
	<path d="M17.8,40.7c0-0.2,0.1-0.5,0.3-0.6c0.2-0.2,0.4-0.3,0.6-0.3c0.3,0,0.5,0.1,0.6,0.3c0.2,0.2,0.3,0.4,0.3,0.6
		c0,0.2-0.1,0.4-0.3,0.6c-0.2,0.2-0.4,0.3-0.6,0.3c-0.3,0-0.5-0.1-0.6-0.3C17.9,41.1,17.8,40.9,17.8,40.7z"/>
	<path d="M21,36.3c0-1.9,0.3-3.3,0.9-4.3s1.5-1.5,2.7-1.5c2.3,0,3.4,1.8,3.4,5.5c0,1.8-0.3,3.2-1,4.1c-0.6,1-1.5,1.4-2.7,1.4
		c-1.1,0-1.9-0.5-2.5-1.4C21.3,39.3,21,38,21,36.3z M22.4,36.2c0,2.8,0.7,4.3,2.2,4.3c1.4,0,2.1-1.4,2.1-4.3c0-3-0.7-4.5-2.1-4.5
		C23.1,31.7,22.4,33.2,22.4,36.2z"/>
	<path d="M29.3,33.4c0-0.9,0.2-1.6,0.7-2.1s1.1-0.8,1.9-0.8c0.8,0,1.4,0.2,1.8,0.7s0.6,1.1,0.6,2c0,0.8-0.2,1.5-0.7,2
		S32.5,36,31.7,36c-0.7,0-1.3-0.2-1.8-0.7C29.5,34.9,29.3,34.2,29.3,33.4z M30.3,33.4c0,0.6,0.1,1.1,0.4,1.4
		c0.3,0.3,0.6,0.5,1.1,0.5s0.8-0.2,1.1-0.5s0.4-0.8,0.4-1.4c0-0.6-0.1-1.1-0.4-1.4c-0.2-0.3-0.6-0.5-1-0.5c-0.5,0-0.8,0.2-1.1,0.5
		C30.5,32.3,30.3,32.7,30.3,33.4z M38.9,30.7L32,41.5h-1.2l6.9-10.8H38.9z M35.7,38.9c0-0.9,0.2-1.6,0.7-2.1s1.1-0.8,1.9-0.8
		c0.8,0,1.3,0.2,1.8,0.7c0.4,0.5,0.6,1.1,0.6,2c0,0.8-0.2,1.5-0.7,2s-1.1,0.8-1.9,0.8c-0.7,0-1.3-0.2-1.8-0.7
		C35.9,40.3,35.7,39.7,35.7,38.9z M36.7,38.8c0,0.6,0.1,1,0.4,1.4c0.3,0.3,0.6,0.5,1.1,0.5s0.8-0.2,1.1-0.5s0.4-0.8,0.4-1.4
		c0-0.6-0.1-1.1-0.4-1.4c-0.3-0.3-0.6-0.5-1-0.5c-0.5,0-0.8,0.2-1.1,0.5C36.8,37.8,36.7,38.2,36.7,38.8z"/>
</g>
<g id="线">
	<rect id="矩形_863_拷贝_2" x="47.3" y="194.8" class="st1" width="136.1" height="1.3"/>
	<rect id="矩形_863_拷贝_3" x="47.3" y="162" class="st1" width="136.1" height="1.3"/>
	<rect id="矩形_863_拷贝_4" x="47.3" y="129.3" class="st1" width="136.1" height="1.3"/>
	<rect id="矩形_863_拷贝_5" x="47.3" y="97.2" class="st1" width="136.1" height="1.3"/>
	<rect id="矩形_863_拷贝_5-2" x="47.3" y="64.5" class="st1" width="136.1" height="1.3"/>
	<rect id="矩形_863_拷贝_5-3" x="47.3" y="31.7" class="st1" width="136.1" height="1.3"/>
	<rect id="矩形_863" x="47.3" y="29.8" class="st2" width="1.3" height="200.3"/>
</g>
<rect id="矩形_864" x="67.2" y="64.5" class="st3" width="29.5" height="164.4"/>
<rect id="矩形_864_拷贝" x="96.7" y="129.3" class="st4" width="29.5" height="99.5"/>
<rect id="矩形_864_拷贝_2" x="126.2" y="184.5" class="st5" width="29.5" height="44.3"/>
<rect id="矩形_863_拷贝" x="47.3" y="228.8" class="st2" width="136.1" height="1.3"/>
<g id="_2">
	<g id="_2.0_2" class="st0">
		<path d="M215.7,187.6c0-0.6-0.2-1-0.5-1.4c-0.4-0.3-0.9-0.5-1.5-0.5c-0.4,0-0.9,0.1-1.3,0.3c-0.5,0.2-0.9,0.5-1.3,1v-1.3
			c0.3-0.4,0.7-0.6,1.2-0.8c0.4-0.2,1-0.3,1.6-0.3c1,0,1.7,0.3,2.3,0.8s0.9,1.2,0.9,2.1c0,0.8-0.2,1.5-0.5,2c-0.4,0.6-1,1.2-1.9,1.8
			s-1.5,1.1-1.8,1.3c-0.3,0.3-0.5,0.5-0.6,0.8c-0.1,0.2-0.2,0.5-0.2,0.9h5.3v1.2h-6.7V195c0-0.6,0.1-1.1,0.3-1.6
			c0.2-0.4,0.4-0.8,0.8-1.3c0.4-0.4,1-0.9,1.8-1.5s1.4-1.1,1.7-1.5S215.7,188.2,215.7,187.6z"/>
		<path d="M219,194.8c0-0.2,0.1-0.5,0.3-0.6c0.2-0.2,0.4-0.3,0.6-0.3c0.3,0,0.5,0.1,0.6,0.3c0.2,0.2,0.3,0.4,0.3,0.6
			c0,0.2-0.1,0.4-0.3,0.6c-0.2,0.2-0.4,0.3-0.6,0.3c-0.3,0-0.5-0.1-0.6-0.3C219.1,195.2,219,195,219,194.8z"/>
		<path d="M222.2,190.4c0-1.9,0.3-3.3,0.9-4.3c0.6-1,1.5-1.5,2.7-1.5c2.3,0,3.4,1.8,3.4,5.5c0,1.8-0.3,3.2-1,4.1
			c-0.6,1-1.5,1.4-2.7,1.4c-1.1,0-1.9-0.5-2.5-1.4C222.5,193.4,222.2,192.1,222.2,190.4z M223.5,190.3c0,2.8,0.7,4.3,2.2,4.3
			c1.4,0,2.1-1.4,2.1-4.3c0-3-0.7-4.5-2.1-4.5C224.3,185.8,223.5,187.3,223.5,190.3z"/>
		<path d="M230.4,187.5c0-0.9,0.2-1.6,0.7-2.1s1.1-0.8,1.9-0.8c0.8,0,1.4,0.2,1.8,0.7c0.4,0.5,0.6,1.1,0.6,2c0,0.8-0.2,1.5-0.7,2
			s-1.1,0.8-1.9,0.8c-0.7,0-1.3-0.2-1.8-0.7C230.7,189,230.4,188.3,230.4,187.5z M231.5,187.4c0,0.6,0.1,1.1,0.4,1.4
			c0.3,0.3,0.6,0.5,1.1,0.5s0.8-0.2,1.1-0.5s0.4-0.8,0.4-1.4c0-0.6-0.1-1.1-0.4-1.4c-0.2-0.3-0.6-0.5-1-0.5c-0.5,0-0.8,0.2-1.1,0.5
			C231.6,186.4,231.5,186.8,231.5,187.4z M240.1,184.8l-6.9,10.8H232l6.9-10.8H240.1z M236.8,193c0-0.9,0.2-1.6,0.7-2.1
			s1.1-0.8,1.9-0.8c0.8,0,1.3,0.2,1.8,0.7c0.4,0.5,0.6,1.1,0.6,2c0,0.8-0.2,1.5-0.7,2s-1.1,0.8-1.9,0.8c-0.7,0-1.3-0.2-1.8-0.7
			C237.1,194.4,236.8,193.8,236.8,193z M237.9,192.9c0,0.6,0.1,1,0.4,1.4c0.3,0.3,0.6,0.5,1.1,0.5s0.8-0.2,1.1-0.5s0.4-0.8,0.4-1.4
			c0-0.6-0.1-1.1-0.4-1.4c-0.3-0.3-0.6-0.5-1-0.5c-0.5,0-0.8,0.2-1.1,0.5C238,191.9,237.9,192.3,237.9,192.9z"/>
	</g>
	<g id="_4.0_2" class="st0">
		<path d="M216.3,157.2v7.1h1.6v1.1h-1.6v2.5H215v-2.5h-5v-1.1c0.9-1,1.8-2.1,2.7-3.4c0.9-1.3,1.6-2.5,2.2-3.7L216.3,157.2
			L216.3,157.2z M211.5,164.3h3.5v-5.1c-0.5,0.9-1,1.7-1.5,2.5C212.9,162.5,212.2,163.3,211.5,164.3z"/>
		<path d="M219,167.2c0-0.2,0.1-0.5,0.3-0.6c0.2-0.2,0.4-0.3,0.6-0.3c0.3,0,0.5,0.1,0.6,0.3c0.2,0.2,0.3,0.4,0.3,0.6
			c0,0.2-0.1,0.4-0.3,0.6c-0.2,0.2-0.4,0.3-0.6,0.3c-0.3,0-0.5-0.1-0.6-0.3C219.1,167.6,219,167.4,219,167.2z"/>
		<path d="M222.2,162.8c0-1.9,0.3-3.3,0.9-4.3c0.6-1,1.5-1.5,2.7-1.5c2.3,0,3.4,1.8,3.4,5.5c0,1.8-0.3,3.2-1,4.1
			c-0.6,1-1.5,1.4-2.7,1.4c-1.1,0-1.9-0.5-2.5-1.4C222.5,165.8,222.2,164.5,222.2,162.8z M223.5,162.7c0,2.8,0.7,4.3,2.2,4.3
			c1.4,0,2.1-1.4,2.1-4.3c0-3-0.7-4.5-2.1-4.5C224.3,158.2,223.5,159.7,223.5,162.7z"/>
		<path d="M230.4,159.9c0-0.9,0.2-1.6,0.7-2.1s1.1-0.8,1.9-0.8c0.8,0,1.4,0.2,1.8,0.7c0.4,0.5,0.6,1.1,0.6,2c0,0.8-0.2,1.5-0.7,2
			s-1.1,0.8-1.9,0.8c-0.7,0-1.3-0.2-1.8-0.7C230.7,161.4,230.4,160.7,230.4,159.9z M231.5,159.8c0,0.6,0.1,1.1,0.4,1.4
			c0.3,0.3,0.6,0.5,1.1,0.5s0.8-0.2,1.1-0.5s0.4-0.8,0.4-1.4c0-0.6-0.1-1.1-0.4-1.4c-0.2-0.3-0.6-0.5-1-0.5c-0.5,0-0.8,0.2-1.1,0.5
			C231.6,158.8,231.5,159.2,231.5,159.8z M240.1,157.2l-6.9,10.8H232l6.9-10.8H240.1z M236.8,165.4c0-0.9,0.2-1.6,0.7-2.1
			s1.1-0.8,1.9-0.8c0.8,0,1.3,0.2,1.8,0.7c0.4,0.5,0.6,1.1,0.6,2c0,0.8-0.2,1.5-0.7,2s-1.1,0.8-1.9,0.8c-0.7,0-1.3-0.2-1.8-0.7
			C237.1,166.8,236.8,166.2,236.8,165.4z M237.9,165.3c0,0.6,0.1,1,0.4,1.4c0.3,0.3,0.6,0.5,1.1,0.5s0.8-0.2,1.1-0.5
			s0.4-0.8,0.4-1.4c0-0.6-0.1-1.1-0.4-1.4c-0.3-0.3-0.6-0.5-1-0.5c-0.5,0-0.8,0.2-1.1,0.5C238,164.3,237.9,164.7,237.9,165.3z"/>
	</g>
	<g id="_6.0_2" class="st0">
		<path d="M216.9,128.4c-0.6-0.3-1.1-0.4-1.7-0.4c-0.9,0-1.7,0.4-2.2,1.2c-0.6,0.8-0.8,1.9-0.9,3.3l0,0c0.5-1,1.3-1.5,2.4-1.5
			c0.9,0,1.7,0.3,2.2,0.9s0.8,1.4,0.8,2.4s-0.3,1.9-1,2.6c-0.6,0.7-1.4,1-2.4,1c-1.1,0-1.9-0.4-2.6-1.3c-0.6-0.8-0.9-2.1-0.9-3.6
			c0-1.9,0.4-3.4,1.2-4.5c0.8-1.1,1.9-1.7,3.2-1.7c0.8,0,1.4,0.1,1.8,0.3L216.9,128.4L216.9,128.4z M212.1,134.2
			c0,0.7,0.2,1.3,0.6,1.8c0.4,0.5,0.9,0.8,1.5,0.8s1.1-0.2,1.4-0.6c0.4-0.4,0.6-1,0.6-1.7s-0.2-1.3-0.5-1.7s-0.8-0.6-1.5-0.6
			c-0.6,0-1.1,0.2-1.5,0.6C212.3,133.2,212.1,133.7,212.1,134.2z"/>
		<path d="M219,137c0-0.2,0.1-0.5,0.3-0.6c0.2-0.2,0.4-0.3,0.6-0.3c0.3,0,0.5,0.1,0.6,0.3c0.2,0.2,0.3,0.4,0.3,0.6
			c0,0.2-0.1,0.4-0.3,0.6c-0.2,0.2-0.4,0.3-0.6,0.3c-0.3,0-0.5-0.1-0.6-0.3C219.1,137.4,219,137.2,219,137z"/>
		<path d="M222.2,132.6c0-1.9,0.3-3.3,0.9-4.3c0.6-1,1.5-1.5,2.7-1.5c2.3,0,3.4,1.8,3.4,5.5c0,1.8-0.3,3.2-1,4.1
			c-0.6,1-1.5,1.4-2.7,1.4c-1.1,0-1.9-0.5-2.5-1.4C222.5,135.6,222.2,134.3,222.2,132.6z M223.5,132.5c0,2.8,0.7,4.3,2.2,4.3
			c1.4,0,2.1-1.4,2.1-4.3c0-3-0.7-4.5-2.1-4.5C224.3,128,223.5,129.5,223.5,132.5z"/>
		<path d="M230.4,129.7c0-0.9,0.2-1.6,0.7-2.1c0.5-0.5,1.1-0.8,1.9-0.8c0.8,0,1.4,0.2,1.8,0.7c0.4,0.5,0.6,1.1,0.6,2
			c0,0.8-0.2,1.5-0.7,2s-1.1,0.8-1.9,0.8c-0.7,0-1.3-0.2-1.8-0.7C230.7,131.2,230.4,130.5,230.4,129.7z M231.5,129.7
			c0,0.6,0.1,1.1,0.4,1.4c0.3,0.3,0.6,0.5,1.1,0.5s0.8-0.2,1.1-0.5s0.4-0.8,0.4-1.4c0-0.6-0.1-1.1-0.4-1.4c-0.2-0.3-0.6-0.5-1-0.5
			c-0.5,0-0.8,0.2-1.1,0.5C231.6,128.6,231.5,129.1,231.5,129.7z M240.1,127l-6.9,10.8H232l6.9-10.8H240.1z M236.8,135.2
			c0-0.9,0.2-1.6,0.7-2.1s1.1-0.8,1.9-0.8c0.8,0,1.3,0.2,1.8,0.7c0.4,0.5,0.6,1.1,0.6,2c0,0.8-0.2,1.5-0.7,2s-1.1,0.8-1.9,0.8
			c-0.7,0-1.3-0.2-1.8-0.7C237.1,136.6,236.8,136,236.8,135.2z M237.9,135.1c0,0.6,0.1,1,0.4,1.4c0.3,0.3,0.6,0.5,1.1,0.5
			s0.8-0.2,1.1-0.5s0.4-0.8,0.4-1.4c0-0.6-0.1-1.1-0.4-1.4c-0.3-0.3-0.6-0.5-1-0.5c-0.5,0-0.8,0.2-1.1,0.5
			C238,134.1,237.9,134.5,237.9,135.1z"/>
	</g>
	<g id="_8.0_2" class="st0">
		<path d="M210.5,102c0-0.6,0.2-1.2,0.6-1.7c0.4-0.5,0.8-0.9,1.4-1.1c-0.5-0.3-0.8-0.6-1.1-1s-0.4-0.9-0.4-1.3c0-0.5,0.1-1,0.4-1.4
			c0.3-0.4,0.6-0.7,1.1-1s1-0.4,1.5-0.4c0.6,0,1.1,0.1,1.5,0.4c0.5,0.2,0.8,0.6,1.1,1s0.4,0.9,0.4,1.4s-0.1,0.9-0.4,1.3
			c-0.3,0.4-0.6,0.8-1.1,1c0.6,0.2,1.1,0.6,1.4,1.1c0.4,0.5,0.5,1.1,0.5,1.7s-0.1,1.2-0.4,1.6c-0.3,0.5-0.7,0.9-1.2,1.1
			c-0.5,0.3-1.1,0.4-1.8,0.4s-1.3-0.1-1.8-0.4s-0.9-0.6-1.2-1.1S210.5,102.6,210.5,102z M211.9,101.9c0,0.6,0.2,1.1,0.6,1.5
			c0.4,0.4,0.9,0.6,1.6,0.6c0.6,0,1.2-0.2,1.6-0.6c0.4-0.4,0.6-0.9,0.6-1.5s-0.2-1.1-0.6-1.5c-0.4-0.4-0.9-0.6-1.5-0.6
			s-1.1,0.2-1.5,0.6C212.1,100.8,211.9,101.3,211.9,101.9z M212.3,96.9c0,0.5,0.2,0.9,0.5,1.2c0.3,0.3,0.8,0.5,1.2,0.5
			c0.5,0,0.9-0.2,1.3-0.5s0.5-0.8,0.5-1.2c0-0.5-0.2-0.9-0.5-1.2s-0.8-0.5-1.3-0.5s-0.9,0.2-1.3,0.5C212.4,96,212.3,96.5,212.3,96.9
			z"/>
		<path d="M219,104.3c0-0.2,0.1-0.5,0.3-0.6c0.2-0.2,0.4-0.3,0.6-0.3c0.3,0,0.5,0.1,0.6,0.3c0.2,0.2,0.3,0.4,0.3,0.6
			s-0.1,0.4-0.3,0.6s-0.4,0.3-0.6,0.3c-0.3,0-0.5-0.1-0.6-0.3C219.1,104.7,219,104.5,219,104.3z"/>
		<path d="M222.2,99.8c0-1.9,0.3-3.3,0.9-4.3c0.6-1,1.5-1.5,2.7-1.5c2.3,0,3.4,1.8,3.4,5.5c0,1.8-0.3,3.2-1,4.1
			c-0.6,1-1.5,1.4-2.7,1.4c-1.1,0-1.9-0.5-2.5-1.4C222.5,102.9,222.2,101.6,222.2,99.8z M223.5,99.8c0,2.8,0.7,4.3,2.2,4.3
			c1.4,0,2.1-1.4,2.1-4.3c0-3-0.7-4.5-2.1-4.5C224.3,95.2,223.5,96.7,223.5,99.8z"/>
		<path d="M230.4,97c0-0.9,0.2-1.6,0.7-2.1s1.1-0.8,1.9-0.8c0.8,0,1.4,0.2,1.8,0.7c0.4,0.5,0.6,1.1,0.6,2c0,0.8-0.2,1.5-0.7,2
			s-1.1,0.8-1.9,0.8c-0.7,0-1.3-0.2-1.8-0.7S230.4,97.8,230.4,97z M231.5,96.9c0,0.6,0.1,1.1,0.4,1.4c0.3,0.3,0.6,0.5,1.1,0.5
			s0.8-0.2,1.1-0.5s0.4-0.8,0.4-1.4s-0.1-1.1-0.4-1.4c-0.2-0.3-0.6-0.5-1-0.5c-0.5,0-0.8,0.2-1.1,0.5
			C231.6,95.8,231.5,96.3,231.5,96.9z M240.1,94.3l-6.9,10.8H232l6.9-10.8H240.1z M236.8,102.5c0-0.9,0.2-1.6,0.7-2.1
			s1.1-0.8,1.9-0.8c0.8,0,1.3,0.2,1.8,0.7c0.4,0.5,0.6,1.1,0.6,2c0,0.8-0.2,1.5-0.7,2s-1.1,0.8-1.9,0.8c-0.7,0-1.3-0.2-1.8-0.7
			C237.1,103.9,236.8,103.3,236.8,102.5z M237.9,102.4c0,0.6,0.1,1,0.4,1.4c0.3,0.3,0.6,0.5,1.1,0.5s0.8-0.2,1.1-0.5
			s0.4-0.8,0.4-1.4s-0.1-1.1-0.4-1.4c-0.3-0.3-0.6-0.5-1-0.5c-0.5,0-0.8,0.2-1.1,0.5C238,101.3,237.9,101.8,237.9,102.4z"/>
	</g>
	<g id="_10.0_2" class="st0">
		<path d="M206.4,72.2v-9.1c-0.2,0.2-0.6,0.4-1.1,0.7s-1,0.4-1.4,0.6V63c0.6-0.2,1.2-0.4,1.8-0.7s1.1-0.7,1.5-1h0.5v10.9H206.4z"/>
		<path d="M211.4,67.1c0-1.9,0.3-3.3,0.9-4.3c0.6-1,1.5-1.5,2.7-1.5c2.3,0,3.4,1.8,3.4,5.5c0,1.8-0.3,3.2-1,4.1
			c-0.6,1-1.5,1.4-2.7,1.4c-1.1,0-1.9-0.5-2.5-1.4C211.7,70.1,211.4,68.8,211.4,67.1z M212.8,67c0,2.8,0.7,4.3,2.2,4.3
			c1.4,0,2.1-1.4,2.1-4.3c0-3-0.7-4.5-2.1-4.5C213.5,62.5,212.8,64,212.8,67z"/>
		<path d="M219.9,71.5c0-0.2,0.1-0.5,0.3-0.6c0.2-0.2,0.4-0.3,0.6-0.3c0.3,0,0.5,0.1,0.6,0.3c0.2,0.2,0.3,0.4,0.3,0.6
			s-0.1,0.4-0.3,0.6s-0.4,0.3-0.6,0.3c-0.3,0-0.5-0.1-0.6-0.3C220,72,219.9,71.8,219.9,71.5z"/>
		<path d="M223.1,67.1c0-1.9,0.3-3.3,0.9-4.3c0.6-1,1.5-1.5,2.7-1.5c2.3,0,3.4,1.8,3.4,5.5c0,1.8-0.3,3.2-1,4.1
			c-0.6,1-1.5,1.4-2.7,1.4c-1.1,0-1.9-0.5-2.5-1.4S223.1,68.8,223.1,67.1z M224.5,67c0,2.8,0.7,4.3,2.2,4.3c1.4,0,2.1-1.4,2.1-4.3
			c0-3-0.7-4.5-2.1-4.5C225.2,62.5,224.5,64,224.5,67z"/>
		<path d="M231.4,64.2c0-0.9,0.2-1.6,0.7-2.1s1.1-0.8,1.9-0.8c0.8,0,1.4,0.2,1.8,0.7c0.4,0.5,0.6,1.1,0.6,2c0,0.8-0.2,1.5-0.7,2
			s-1.1,0.8-1.9,0.8c-0.7,0-1.3-0.2-1.8-0.7C231.6,65.7,231.4,65,231.4,64.2z M232.4,64.2c0,0.6,0.1,1.1,0.4,1.4
			c0.3,0.3,0.6,0.5,1.1,0.5s0.8-0.2,1.1-0.5s0.4-0.8,0.4-1.4s-0.1-1.1-0.4-1.4c-0.2-0.3-0.6-0.5-1-0.5c-0.5,0-0.8,0.2-1.1,0.5
			C232.6,63.1,232.4,63.6,232.4,64.2z M241,61.5l-6.9,10.8H233l6.9-10.8C239.9,61.5,241,61.5,241,61.5z M237.8,69.7
			c0-0.9,0.2-1.6,0.7-2.1s1.1-0.8,1.9-0.8c0.8,0,1.3,0.2,1.8,0.7c0.4,0.5,0.6,1.1,0.6,2c0,0.8-0.2,1.5-0.7,2s-1.1,0.8-1.9,0.8
			c-0.7,0-1.3-0.2-1.8-0.7C238,71.2,237.8,70.5,237.8,69.7z M238.8,69.7c0,0.6,0.1,1,0.4,1.4c0.3,0.3,0.6,0.5,1.1,0.5
			s0.8-0.2,1.1-0.5s0.4-0.8,0.4-1.4s-0.1-1.1-0.4-1.4c-0.3-0.3-0.6-0.5-1-0.5c-0.5,0-0.8,0.2-1.1,0.5
			C238.9,68.6,238.8,69.1,238.8,69.7z"/>
	</g>
	<g id="_12.0_2" class="st0">
		<path d="M206.4,41.4v-9.1c-0.2,0.2-0.6,0.4-1.1,0.7s-1,0.4-1.4,0.6v-1.3c0.6-0.2,1.2-0.4,1.8-0.7c0.6-0.3,1.1-0.7,1.5-1h0.5v10.9
			L206.4,41.4L206.4,41.4z"/>
		<path d="M216.7,33.5c0-0.6-0.2-1-0.5-1.4c-0.4-0.3-0.9-0.5-1.5-0.5c-0.4,0-0.9,0.1-1.3,0.3c-0.5,0.2-0.9,0.5-1.3,1v-1.3
			c0.3-0.4,0.7-0.6,1.2-0.8c0.4-0.2,1-0.3,1.6-0.3c1,0,1.7,0.3,2.3,0.8s0.9,1.2,0.9,2.1c0,0.8-0.2,1.5-0.5,2c-0.4,0.6-1,1.2-1.9,1.8
			s-1.5,1.1-1.8,1.3s-0.5,0.5-0.6,0.8c-0.1,0.2-0.2,0.5-0.2,0.9h5.3v1.2h-6.7v-0.5c0-0.6,0.1-1.1,0.3-1.6c0.2-0.4,0.4-0.8,0.8-1.3
			c0.4-0.4,1-0.9,1.8-1.5s1.4-1.1,1.7-1.5C216.5,34.6,216.7,34.1,216.7,33.5z"/>
		<path d="M219.9,40.7c0-0.2,0.1-0.5,0.3-0.6c0.2-0.2,0.4-0.3,0.6-0.3c0.3,0,0.5,0.1,0.6,0.3c0.2,0.2,0.3,0.4,0.3,0.6
			c0,0.2-0.1,0.4-0.3,0.6c-0.2,0.2-0.4,0.3-0.6,0.3c-0.3,0-0.5-0.1-0.6-0.3C220,41.1,219.9,40.9,219.9,40.7z"/>
		<path d="M223.1,36.3c0-1.9,0.3-3.3,0.9-4.3c0.6-1,1.5-1.5,2.7-1.5c2.3,0,3.4,1.8,3.4,5.5c0,1.8-0.3,3.2-1,4.1
			c-0.6,1-1.5,1.4-2.7,1.4c-1.1,0-1.9-0.5-2.5-1.4S223.1,38,223.1,36.3z M224.5,36.2c0,2.8,0.7,4.3,2.2,4.3c1.4,0,2.1-1.4,2.1-4.3
			c0-3-0.7-4.5-2.1-4.5C225.2,31.7,224.5,33.2,224.5,36.2z"/>
		<path d="M231.4,33.4c0-0.9,0.2-1.6,0.7-2.1s1.1-0.8,1.9-0.8c0.8,0,1.4,0.2,1.8,0.7c0.4,0.5,0.6,1.1,0.6,2c0,0.8-0.2,1.5-0.7,2
			s-1.1,0.8-1.9,0.8c-0.7,0-1.3-0.2-1.8-0.7C231.6,34.9,231.4,34.2,231.4,33.4z M232.4,33.4c0,0.6,0.1,1.1,0.4,1.4
			c0.3,0.3,0.6,0.5,1.1,0.5s0.8-0.2,1.1-0.5s0.4-0.8,0.4-1.4c0-0.6-0.1-1.1-0.4-1.4c-0.2-0.3-0.6-0.5-1-0.5c-0.5,0-0.8,0.2-1.1,0.5
			C232.6,32.3,232.4,32.7,232.4,33.4z M241,30.7l-6.9,10.8H233l6.9-10.8H241z M237.8,38.9c0-0.9,0.2-1.6,0.7-2.1s1.1-0.8,1.9-0.8
			c0.8,0,1.3,0.2,1.8,0.7c0.4,0.5,0.6,1.1,0.6,2c0,0.8-0.2,1.5-0.7,2s-1.1,0.8-1.9,0.8c-0.7,0-1.3-0.2-1.8-0.7
			C238,40.3,237.8,39.7,237.8,38.9z M238.8,38.8c0,0.6,0.1,1,0.4,1.4c0.3,0.3,0.6,0.5,1.1,0.5s0.8-0.2,1.1-0.5s0.4-0.8,0.4-1.4
			c0-0.6-0.1-1.1-0.4-1.4c-0.3-0.3-0.6-0.5-1-0.5c-0.5,0-0.8,0.2-1.1,0.5C238.9,37.8,238.8,38.2,238.8,38.8z"/>
	</g>
</g>
<g id="线-2">
	<rect id="矩形_863_拷贝_2-2" x="249.4" y="194.8" class="st1" width="136.2" height="1.3"/>
	<rect id="矩形_863_拷贝_3-2" x="249.4" y="162" class="st1" width="136.2" height="1.3"/>
	<rect id="矩形_863_拷贝_4-2" x="249.4" y="129.3" class="st1" width="136.2" height="1.3"/>
	<rect id="矩形_863_拷贝_5-4" x="249.4" y="97.2" class="st1" width="136.2" height="1.3"/>
	<rect id="矩形_863_拷贝_5-5" x="249.4" y="64.5" class="st1" width="136.2" height="1.3"/>
	<rect id="矩形_863_拷贝_5-6" x="249.4" y="31.7" class="st1" width="136.2" height="1.3"/>
	<rect id="矩形_863-2" x="249.4" y="29.8" class="st2" width="1.3" height="200.3"/>
</g>
<rect id="矩形_864-2" x="269.4" y="137.6" class="st3" width="29.5" height="91.2"/>
<rect id="矩形_864_拷贝-2" x="299" y="142.8" class="st4" width="29.5" height="86"/>
<rect id="矩形_864_拷贝_2-2" x="328.5" y="170.4" class="st5" width="29.5" height="58.4"/>
<rect id="矩形_863_拷贝-2" x="249.4" y="228.8" class="st2" width="136.2" height="1.3"/>
<g id="_3">
	<g id="_2.0_3" class="st0">
		<path d="M419.9,187.6c0-0.6-0.2-1-0.5-1.4c-0.4-0.3-0.9-0.5-1.5-0.5c-0.4,0-0.9,0.1-1.3,0.3c-0.5,0.2-0.9,0.5-1.3,1v-1.3
			c0.3-0.4,0.7-0.6,1.2-0.8c0.4-0.2,1-0.3,1.6-0.3c1,0,1.7,0.3,2.3,0.8c0.6,0.5,0.9,1.2,0.9,2.1c0,0.8-0.2,1.5-0.5,2
			c-0.4,0.6-1,1.2-1.9,1.8s-1.5,1.1-1.8,1.3c-0.3,0.3-0.5,0.5-0.6,0.8c-0.1,0.2-0.2,0.5-0.2,0.9h5.3v1.2h-6.7V195
			c0-0.6,0.1-1.1,0.3-1.6c0.2-0.4,0.4-0.8,0.8-1.3c0.4-0.4,1-0.9,1.8-1.5s1.4-1.1,1.7-1.5C419.8,188.6,419.9,188.1,419.9,187.6z"/>
		<path d="M423.1,194.7c0-0.2,0.1-0.5,0.3-0.6c0.2-0.2,0.4-0.3,0.6-0.3c0.3,0,0.5,0.1,0.6,0.3c0.2,0.2,0.3,0.4,0.3,0.6
			c0,0.2-0.1,0.4-0.3,0.6c-0.2,0.2-0.4,0.3-0.6,0.3c-0.3,0-0.5-0.1-0.6-0.3C423.2,195.2,423.1,195,423.1,194.7z"/>
		<path d="M426.3,190.3c0-1.9,0.3-3.3,0.9-4.3s1.5-1.5,2.7-1.5c2.3,0,3.4,1.8,3.4,5.5c0,1.8-0.3,3.2-1,4.1c-0.6,1-1.5,1.4-2.7,1.4
			c-1.1,0-1.9-0.5-2.5-1.4C426.6,193.4,426.3,192.1,426.3,190.3z M427.7,190.3c0,2.8,0.7,4.3,2.2,4.3c1.4,0,2.1-1.4,2.1-4.3
			c0-3-0.7-4.5-2.1-4.5C428.5,185.7,427.7,187.2,427.7,190.3z"/>
		<path d="M434.6,187.5c0-0.9,0.2-1.6,0.7-2.1s1.1-0.8,1.9-0.8s1.4,0.2,1.8,0.7s0.6,1.1,0.6,2c0,0.8-0.2,1.5-0.7,2s-1.1,0.8-1.9,0.8
			c-0.7,0-1.3-0.2-1.8-0.7C434.8,188.9,434.6,188.3,434.6,187.5z M435.7,187.4c0,0.6,0.1,1.1,0.4,1.4c0.3,0.3,0.6,0.5,1.1,0.5
			s0.8-0.2,1.1-0.5c0.3-0.3,0.4-0.8,0.4-1.4c0-0.6-0.1-1.1-0.4-1.4c-0.2-0.3-0.6-0.5-1-0.5c-0.5,0-0.8,0.2-1.1,0.5
			C435.8,186.3,435.7,186.8,435.7,187.4z M444.3,184.8l-6.9,10.8h-1.2l6.9-10.8H444.3z M441,193c0-0.9,0.2-1.6,0.7-2.1
			s1.1-0.8,1.9-0.8s1.3,0.2,1.8,0.7c0.4,0.5,0.6,1.1,0.6,2c0,0.8-0.2,1.5-0.7,2s-1.1,0.8-1.9,0.8c-0.7,0-1.3-0.2-1.8-0.7
			C441.2,194.4,441,193.7,441,193z M442.1,192.9c0,0.6,0.1,1,0.4,1.4c0.3,0.3,0.6,0.5,1.1,0.5s0.8-0.2,1.1-0.5
			c0.3-0.3,0.4-0.8,0.4-1.4c0-0.6-0.1-1.1-0.4-1.4c-0.3-0.3-0.6-0.5-1-0.5c-0.5,0-0.8,0.2-1.1,0.5
			C442.2,191.8,442.1,192.3,442.1,192.9z"/>
	</g>
	<g id="_4.0_3" class="st0">
		<path d="M420.4,157.2v7.1h1.6v1.1h-1.6v2.5h-1.3v-2.5h-5v-1.1c0.9-1,1.8-2.1,2.7-3.4c0.9-1.3,1.6-2.5,2.2-3.7L420.4,157.2
			L420.4,157.2z M415.7,164.2h3.5v-5.1c-0.5,0.9-1,1.7-1.5,2.5C417.1,162.4,416.4,163.3,415.7,164.2z"/>
		<path d="M423.1,167.1c0-0.2,0.1-0.5,0.3-0.6c0.2-0.2,0.4-0.3,0.6-0.3c0.3,0,0.5,0.1,0.6,0.3c0.2,0.2,0.3,0.4,0.3,0.6
			c0,0.2-0.1,0.4-0.3,0.6c-0.2,0.2-0.4,0.3-0.6,0.3c-0.3,0-0.5-0.1-0.6-0.3C423.2,167.6,423.1,167.4,423.1,167.1z"/>
		<path d="M426.3,162.7c0-1.9,0.3-3.3,0.9-4.3s1.5-1.5,2.7-1.5c2.3,0,3.4,1.8,3.4,5.5c0,1.8-0.3,3.2-1,4.1c-0.6,1-1.5,1.4-2.7,1.4
			c-1.1,0-1.9-0.5-2.5-1.4C426.6,165.8,426.3,164.5,426.3,162.7z M427.7,162.7c0,2.8,0.7,4.3,2.2,4.3c1.4,0,2.1-1.4,2.1-4.3
			c0-3-0.7-4.5-2.1-4.5C428.5,158.1,427.7,159.6,427.7,162.7z"/>
		<path d="M434.6,159.9c0-0.9,0.2-1.6,0.7-2.1s1.1-0.8,1.9-0.8s1.4,0.2,1.8,0.7s0.6,1.1,0.6,2c0,0.8-0.2,1.5-0.7,2s-1.1,0.8-1.9,0.8
			c-0.7,0-1.3-0.2-1.8-0.7C434.8,161.3,434.6,160.7,434.6,159.9z M435.7,159.8c0,0.6,0.1,1.1,0.4,1.4c0.3,0.3,0.6,0.5,1.1,0.5
			s0.8-0.2,1.1-0.5c0.3-0.3,0.4-0.8,0.4-1.4c0-0.6-0.1-1.1-0.4-1.4c-0.2-0.3-0.6-0.5-1-0.5c-0.5,0-0.8,0.2-1.1,0.5
			C435.8,158.7,435.7,159.2,435.7,159.8z M444.3,157.2l-6.9,10.8h-1.2l6.9-10.8H444.3z M441,165.4c0-0.9,0.2-1.6,0.7-2.1
			s1.1-0.8,1.9-0.8s1.3,0.2,1.8,0.7c0.4,0.5,0.6,1.1,0.6,2c0,0.8-0.2,1.5-0.7,2s-1.1,0.8-1.9,0.8c-0.7,0-1.3-0.2-1.8-0.7
			C441.2,166.8,441,166.1,441,165.4z M442.1,165.3c0,0.6,0.1,1,0.4,1.4c0.3,0.3,0.6,0.5,1.1,0.5s0.8-0.2,1.1-0.5
			c0.3-0.3,0.4-0.8,0.4-1.4c0-0.6-0.1-1.1-0.4-1.4c-0.3-0.3-0.6-0.5-1-0.5c-0.5,0-0.8,0.2-1.1,0.5
			C442.2,164.2,442.1,164.7,442.1,165.3z"/>
	</g>
	<g id="_6.0_3" class="st0">
		<path d="M421.1,128.4c-0.6-0.3-1.1-0.4-1.7-0.4c-0.9,0-1.7,0.4-2.2,1.2c-0.6,0.8-0.8,1.9-0.9,3.3l0,0c0.5-1,1.3-1.5,2.4-1.5
			c0.9,0,1.7,0.3,2.2,0.9c0.6,0.6,0.8,1.4,0.8,2.4s-0.3,1.9-1,2.6c-0.6,0.7-1.4,1-2.4,1c-1.1,0-1.9-0.4-2.6-1.3
			c-0.6-0.8-0.9-2.1-0.9-3.6c0-1.9,0.4-3.4,1.2-4.5c0.8-1.1,1.9-1.7,3.2-1.7c0.8,0,1.4,0.1,1.8,0.3v1.3H421.1z M416.3,134.2
			c0,0.7,0.2,1.3,0.6,1.8s0.9,0.8,1.5,0.8s1.1-0.2,1.4-0.6c0.4-0.4,0.6-1,0.6-1.7s-0.2-1.3-0.5-1.7s-0.8-0.6-1.5-0.6
			c-0.6,0-1.1,0.2-1.5,0.6S416.3,133.6,416.3,134.2z"/>
		<path d="M423.1,137c0-0.2,0.1-0.5,0.3-0.6c0.2-0.2,0.4-0.3,0.6-0.3c0.3,0,0.5,0.1,0.6,0.3c0.2,0.2,0.3,0.4,0.3,0.6
			c0,0.2-0.1,0.4-0.3,0.6c-0.2,0.2-0.4,0.3-0.6,0.3c-0.3,0-0.5-0.1-0.6-0.3C423.2,137.4,423.1,137.2,423.1,137z"/>
		<path d="M426.3,132.6c0-1.9,0.3-3.3,0.9-4.3s1.5-1.5,2.7-1.5c2.3,0,3.4,1.8,3.4,5.5c0,1.8-0.3,3.2-1,4.1c-0.6,1-1.5,1.4-2.7,1.4
			c-1.1,0-1.9-0.5-2.5-1.4C426.6,135.6,426.3,134.3,426.3,132.6z M427.7,132.5c0,2.8,0.7,4.3,2.2,4.3c1.4,0,2.1-1.4,2.1-4.3
			c0-3-0.7-4.5-2.1-4.5C428.5,128,427.7,129.5,427.7,132.5z"/>
		<path d="M434.6,129.7c0-0.9,0.2-1.6,0.7-2.1c0.5-0.5,1.1-0.8,1.9-0.8s1.4,0.2,1.8,0.7s0.6,1.1,0.6,2c0,0.8-0.2,1.5-0.7,2
			s-1.1,0.8-1.9,0.8c-0.7,0-1.3-0.2-1.8-0.7C434.8,131.2,434.6,130.5,434.6,129.7z M435.7,129.6c0,0.6,0.1,1.1,0.4,1.4
			c0.3,0.3,0.6,0.5,1.1,0.5s0.8-0.2,1.1-0.5c0.3-0.3,0.4-0.8,0.4-1.4c0-0.6-0.1-1.1-0.4-1.4c-0.2-0.3-0.6-0.5-1-0.5
			c-0.5,0-0.8,0.2-1.1,0.5C435.8,128.6,435.7,129,435.7,129.6z M444.3,127l-6.9,10.8h-1.2l6.9-10.8H444.3z M441,135.2
			c0-0.9,0.2-1.6,0.7-2.1s1.1-0.8,1.9-0.8s1.3,0.2,1.8,0.7c0.4,0.5,0.6,1.1,0.6,2c0,0.8-0.2,1.5-0.7,2s-1.1,0.8-1.9,0.8
			c-0.7,0-1.3-0.2-1.8-0.7C441.2,136.6,441,136,441,135.2z M442.1,135.1c0,0.6,0.1,1,0.4,1.4c0.3,0.3,0.6,0.5,1.1,0.5
			s0.8-0.2,1.1-0.5c0.3-0.3,0.4-0.8,0.4-1.4c0-0.6-0.1-1.1-0.4-1.4c-0.3-0.3-0.6-0.5-1-0.5c-0.5,0-0.8,0.2-1.1,0.5
			C442.2,134.1,442.1,134.5,442.1,135.1z"/>
	</g>
	<g id="_8.0_3" class="st0">
		<path d="M414.7,102c0-0.6,0.2-1.2,0.6-1.7s0.8-0.9,1.4-1.1c-0.5-0.3-0.8-0.6-1.1-1c-0.3-0.4-0.4-0.9-0.4-1.3c0-0.5,0.1-1,0.4-1.4
			s0.6-0.7,1.1-1s1-0.4,1.5-0.4c0.6,0,1.1,0.1,1.5,0.4c0.5,0.2,0.8,0.6,1.1,1s0.4,0.9,0.4,1.4s-0.1,0.9-0.4,1.3s-0.6,0.8-1.1,1
			c0.6,0.2,1.1,0.6,1.4,1.1c0.4,0.5,0.5,1.1,0.5,1.7s-0.1,1.2-0.4,1.6c-0.3,0.5-0.7,0.9-1.2,1.1c-0.5,0.3-1.1,0.4-1.8,0.4
			c-0.7,0-1.3-0.1-1.8-0.4s-0.9-0.6-1.2-1.1S414.7,102.6,414.7,102z M416,101.9c0,0.6,0.2,1.1,0.6,1.5s0.9,0.6,1.6,0.6
			c0.6,0,1.2-0.2,1.6-0.6s0.6-0.9,0.6-1.5s-0.2-1.1-0.6-1.5s-0.9-0.6-1.5-0.6s-1.1,0.2-1.5,0.6C416.2,100.8,416,101.3,416,101.9z
			 M416.4,96.9c0,0.5,0.2,0.9,0.5,1.2c0.3,0.3,0.8,0.5,1.2,0.5c0.5,0,0.9-0.2,1.3-0.5s0.5-0.8,0.5-1.2c0-0.5-0.2-0.9-0.5-1.2
			s-0.8-0.5-1.3-0.5s-0.9,0.2-1.3,0.5C416.6,96,416.4,96.4,416.4,96.9z"/>
		<path d="M423.1,104.2c0-0.2,0.1-0.5,0.3-0.6s0.4-0.3,0.6-0.3c0.3,0,0.5,0.1,0.6,0.3c0.2,0.2,0.3,0.4,0.3,0.6s-0.1,0.4-0.3,0.6
			c-0.2,0.2-0.4,0.3-0.6,0.3c-0.3,0-0.5-0.1-0.6-0.3C423.2,104.7,423.1,104.5,423.1,104.2z"/>
		<path d="M426.3,99.8c0-1.9,0.3-3.3,0.9-4.3s1.5-1.5,2.7-1.5c2.3,0,3.4,1.8,3.4,5.5c0,1.8-0.3,3.2-1,4.1c-0.6,1-1.5,1.4-2.7,1.4
			c-1.1,0-1.9-0.5-2.5-1.4C426.6,102.9,426.3,101.5,426.3,99.8z M427.7,99.8c0,2.8,0.7,4.3,2.2,4.3c1.4,0,2.1-1.4,2.1-4.3
			c0-3-0.7-4.5-2.1-4.5C428.5,95.2,427.7,96.7,427.7,99.8z"/>
		<path d="M434.6,97c0-0.9,0.2-1.6,0.7-2.1s1.1-0.8,1.9-0.8s1.4,0.2,1.8,0.7s0.6,1.1,0.6,2c0,0.8-0.2,1.5-0.7,2s-1.1,0.8-1.9,0.8
			c-0.7,0-1.3-0.2-1.8-0.7C434.8,98.4,434.6,97.8,434.6,97z M435.7,96.9c0,0.6,0.1,1.1,0.4,1.4s0.6,0.5,1.1,0.5s0.8-0.2,1.1-0.5
			c0.3-0.3,0.4-0.8,0.4-1.4s-0.1-1.1-0.4-1.4c-0.2-0.3-0.6-0.5-1-0.5c-0.5,0-0.8,0.2-1.1,0.5C435.8,95.8,435.7,96.3,435.7,96.9z
			 M444.3,94.3l-6.9,10.8h-1.2l6.9-10.8H444.3z M441,102.4c0-0.9,0.2-1.6,0.7-2.1s1.1-0.8,1.9-0.8s1.3,0.2,1.8,0.7
			c0.4,0.5,0.6,1.1,0.6,2c0,0.8-0.2,1.5-0.7,2s-1.1,0.8-1.9,0.8c-0.7,0-1.3-0.2-1.8-0.7C441.2,103.9,441,103.2,441,102.4z
			 M442.1,102.4c0,0.6,0.1,1,0.4,1.4c0.3,0.3,0.6,0.5,1.1,0.5s0.8-0.2,1.1-0.5c0.3-0.3,0.4-0.8,0.4-1.4s-0.1-1.1-0.4-1.4
			s-0.6-0.5-1-0.5c-0.5,0-0.8,0.2-1.1,0.5C442.2,101.3,442.1,101.8,442.1,102.4z"/>
	</g>
	<g id="_10.0_3" class="st0">
		<path d="M410.6,72.2v-9.1c-0.2,0.2-0.6,0.4-1.1,0.7s-1,0.4-1.4,0.6V63c0.6-0.2,1.2-0.4,1.8-0.7c0.6-0.3,1.1-0.7,1.5-1h0.5v10.9
			H410.6z"/>
		<path d="M415.6,67.1c0-1.9,0.3-3.3,0.9-4.3s1.5-1.5,2.7-1.5c2.3,0,3.4,1.8,3.4,5.5c0,1.8-0.3,3.2-1,4.1c-0.6,1-1.5,1.4-2.7,1.4
			c-1.1,0-1.9-0.5-2.5-1.4S415.6,68.8,415.6,67.1z M417,67c0,2.8,0.7,4.3,2.2,4.3c1.4,0,2.1-1.4,2.1-4.3c0-3-0.7-4.5-2.1-4.5
			C417.7,62.5,417,64,417,67z"/>
		<path d="M424.1,71.5c0-0.2,0.1-0.5,0.3-0.6c0.2-0.2,0.4-0.3,0.6-0.3c0.3,0,0.5,0.1,0.6,0.3c0.2,0.2,0.3,0.4,0.3,0.6
			s-0.1,0.4-0.3,0.6c-0.2,0.2-0.4,0.3-0.6,0.3c-0.3,0-0.5-0.1-0.6-0.3C424.2,71.9,424.1,71.7,424.1,71.5z"/>
		<path d="M427.3,67.1c0-1.9,0.3-3.3,0.9-4.3s1.5-1.5,2.7-1.5c2.3,0,3.4,1.8,3.4,5.5c0,1.8-0.3,3.2-1,4.1c-0.6,1-1.5,1.4-2.7,1.4
			c-1.1,0-1.9-0.5-2.5-1.4C427.6,70.1,427.3,68.8,427.3,67.1z M428.6,67c0,2.8,0.7,4.3,2.2,4.3c1.4,0,2.1-1.4,2.1-4.3
			c0-3-0.7-4.5-2.1-4.5C429.4,62.5,428.6,64,428.6,67z"/>
		<path d="M435.5,64.2c0-0.9,0.2-1.6,0.7-2.1s1.1-0.8,1.9-0.8s1.4,0.2,1.8,0.7s0.6,1.1,0.6,2c0,0.8-0.2,1.5-0.7,2s-1.1,0.8-1.9,0.8
			c-0.7,0-1.3-0.2-1.8-0.7S435.5,65,435.5,64.2z M436.6,64.2c0,0.6,0.1,1.1,0.4,1.4s0.6,0.5,1.1,0.5s0.8-0.2,1.1-0.5
			c0.3-0.3,0.4-0.8,0.4-1.4s-0.1-1.1-0.4-1.4c-0.2-0.3-0.6-0.5-1-0.5c-0.5,0-0.8,0.2-1.1,0.5C436.7,63.1,436.6,63.6,436.6,64.2z
			 M445.2,61.5l-6.9,10.8h-1.2l6.9-10.8C444,61.5,445.2,61.5,445.2,61.5z M441.9,69.7c0-0.9,0.2-1.6,0.7-2.1s1.1-0.8,1.9-0.8
			s1.3,0.2,1.8,0.7c0.4,0.5,0.6,1.1,0.6,2c0,0.8-0.2,1.5-0.7,2s-1.1,0.8-1.9,0.8c-0.7,0-1.3-0.2-1.8-0.7
			C442.1,71.1,441.9,70.5,441.9,69.7z M443,69.6c0,0.6,0.1,1,0.4,1.4c0.3,0.3,0.6,0.5,1.1,0.5s0.8-0.2,1.1-0.5s0.4-0.8,0.4-1.4
			s-0.1-1.1-0.4-1.4s-0.6-0.5-1-0.5c-0.5,0-0.8,0.2-1.1,0.5C443.1,68.6,443,69,443,69.6z"/>
	</g>
	<g id="_12.0_3" class="st0">
		<path d="M410.6,41.4v-9.1c-0.2,0.2-0.6,0.4-1.1,0.7s-1,0.4-1.4,0.6v-1.3c0.6-0.2,1.2-0.4,1.8-0.7c0.6-0.3,1.1-0.7,1.5-1h0.5v10.9
			L410.6,41.4L410.6,41.4z"/>
		<path d="M420.8,33.5c0-0.6-0.2-1-0.5-1.4c-0.4-0.3-0.9-0.5-1.5-0.5c-0.4,0-0.9,0.1-1.3,0.3c-0.5,0.2-0.9,0.5-1.3,1v-1.3
			c0.3-0.4,0.7-0.6,1.2-0.8c0.4-0.2,1-0.3,1.6-0.3c1,0,1.7,0.3,2.3,0.8c0.6,0.5,0.9,1.2,0.9,2.1c0,0.8-0.2,1.5-0.5,2
			c-0.4,0.6-1,1.2-1.9,1.8s-1.5,1.1-1.8,1.3c-0.3,0.3-0.5,0.5-0.6,0.8c-0.1,0.2-0.2,0.5-0.2,0.9h5.3v1.2h-6.7v-0.5
			c0-0.6,0.1-1.1,0.3-1.6c0.2-0.4,0.4-0.8,0.8-1.3c0.4-0.4,1-0.9,1.8-1.5s1.4-1.1,1.7-1.5C420.7,34.6,420.8,34.1,420.8,33.5z"/>
		<path d="M424.1,40.7c0-0.2,0.1-0.5,0.3-0.6c0.2-0.2,0.4-0.3,0.6-0.3c0.3,0,0.5,0.1,0.6,0.3c0.2,0.2,0.3,0.4,0.3,0.6
			c0,0.2-0.1,0.4-0.3,0.6c-0.2,0.2-0.4,0.3-0.6,0.3c-0.3,0-0.5-0.1-0.6-0.3C424.2,41.1,424.1,40.9,424.1,40.7z"/>
		<path d="M427.3,36.3c0-1.9,0.3-3.3,0.9-4.3s1.5-1.5,2.7-1.5c2.3,0,3.4,1.8,3.4,5.5c0,1.8-0.3,3.2-1,4.1c-0.6,1-1.5,1.4-2.7,1.4
			c-1.1,0-1.9-0.5-2.5-1.4C427.6,39.3,427.3,38,427.3,36.3z M428.6,36.2c0,2.8,0.7,4.3,2.2,4.3c1.4,0,2.1-1.4,2.1-4.3
			c0-3-0.7-4.5-2.1-4.5C429.4,31.7,428.6,33.2,428.6,36.2z"/>
		<path d="M435.5,33.4c0-0.9,0.2-1.6,0.7-2.1s1.1-0.8,1.9-0.8s1.4,0.2,1.8,0.7s0.6,1.1,0.6,2c0,0.8-0.2,1.5-0.7,2s-1.1,0.8-1.9,0.8
			c-0.7,0-1.3-0.2-1.8-0.7S435.5,34.2,435.5,33.4z M436.6,33.3c0,0.6,0.1,1.1,0.4,1.4c0.3,0.3,0.6,0.5,1.1,0.5s0.8-0.2,1.1-0.5
			c0.3-0.3,0.4-0.8,0.4-1.4c0-0.6-0.1-1.1-0.4-1.4c-0.2-0.3-0.6-0.5-1-0.5c-0.5,0-0.8,0.2-1.1,0.5C436.7,32.3,436.6,32.7,436.6,33.3
			z M445.2,30.7l-6.9,10.8h-1.2l6.9-10.8H445.2z M441.9,38.9c0-0.9,0.2-1.6,0.7-2.1s1.1-0.8,1.9-0.8s1.3,0.2,1.8,0.7
			c0.4,0.5,0.6,1.1,0.6,2c0,0.8-0.2,1.5-0.7,2s-1.1,0.8-1.9,0.8c-0.7,0-1.3-0.2-1.8-0.7C442.1,40.3,441.9,39.7,441.9,38.9z
			 M443,38.8c0,0.6,0.1,1,0.4,1.4c0.3,0.3,0.6,0.5,1.1,0.5s0.8-0.2,1.1-0.5s0.4-0.8,0.4-1.4c0-0.6-0.1-1.1-0.4-1.4s-0.6-0.5-1-0.5
			c-0.5,0-0.8,0.2-1.1,0.5C443.1,37.8,443,38.2,443,38.8z"/>
	</g>
</g>
<g id="线-3">
	<rect id="矩形_863_拷贝_2-3" x="453.6" y="194.7" class="st1" width="136.2" height="1.3"/>
	<rect id="矩形_863_拷贝_3-3" x="453.6" y="162" class="st1" width="136.2" height="1.3"/>
	<rect id="矩形_863_拷贝_4-3" x="453.6" y="129.3" class="st1" width="136.2" height="1.3"/>
	<rect id="矩形_863_拷贝_5-7" x="453.6" y="97.2" class="st1" width="136.2" height="1.3"/>
	<rect id="矩形_863_拷贝_5-8" x="453.6" y="64.5" class="st1" width="136.2" height="1.3"/>
	<rect id="矩形_863_拷贝_5-9" x="453.6" y="31.7" class="st1" width="136.2" height="1.3"/>
	<rect id="矩形_863-3" x="453.6" y="29.8" class="st2" width="1.3" height="200.3"/>
</g>
<rect id="矩形_864-3" x="473.6" y="80.5" class="st3" width="29.5" height="148.3"/>
<rect id="矩形_864_拷贝-3" x="503.1" y="110.7" class="st4" width="29.5" height="118.1"/>
<rect id="矩形_864_拷贝_2-3" x="532.7" y="143.4" class="st5" width="29.5" height="85.4"/>
<rect id="矩形_863_拷贝-3" x="453.6" y="228.8" class="st2" width="136.2" height="1.3"/>
<rect id="矩形_865" x="601.8" y="178" class="st3" width="12.3" height="12.1"/>
<rect id="矩形_865_拷贝" x="601.8" y="199" class="st4" width="12.3" height="12.1"/>
<rect id="矩形_865_拷贝_2" x="601.8" y="219.9" class="st5" width="12.3" height="12.1"/>
<g>
	<path d="M0.8,9.6c1.6-1.3,3.3-3,4.5-5.9c0-0.1,0.1-0.2,0.1-0.3S5.2,3,4.4,2.5C4.1,2.3,4,2.2,4,2.2C4,2.1,4.1,2,4.3,2
		c0.1,0,0.3,0,0.5,0.1c0.6,0.2,1.8,0.7,1.8,1.1c0,0.1,0,0.2-0.1,0.3C6.2,4.1,5.8,4.9,5.3,5.6c0.3,0.6,1,1.1,1.5,1.5
		c0.6,0.5,0.6,0.1,1.4,1.4C8.4,8.8,8.5,9,8.5,9.1c0,0.3-0.2,0.4-0.4,0.4c-0.1,0-0.3,0-0.4-0.2C7.2,8.7,6.2,7.5,5.1,6
		C3,8.7,0.8,9.9,0.6,9.9H0.5C0.5,9.8,0.6,9.7,0.8,9.6z M11.4,1.6c0-0.4-0.8-0.8-1.4-1.1c-0.2,0-0.5-0.1-0.5-0.2s0.1-0.1,0.4-0.2
		c0.6,0,1.7,0.3,2,0.4c0.4,0.2,0.5,0.3,0.5,0.4s-0.1,0.4-0.1,0.6v10.2c0,2.1-0.4,2.7-0.6,2.7c-0.2,0-0.3-0.4-0.3-1.1V6H9.3
		C8.9,6,8.9,6.2,8.7,6.2c-0.2,0-1.2-0.4-1.2-0.6c0,0,0.1-0.1,0.2-0.1s0.1,0,0.2,0c0.4,0,0.7,0,0.9,0c0.7,0,1.3,0,2.6,0
		C11.4,5.5,11.4,1.6,11.4,1.6z"/>
	<path d="M29,12.3c-1.2-0.1-2.9-0.2-4.8-0.2c-2.7,0-4,0.1-5.3,0.2c-0.5,0-0.6,0.2-1,0.2c-0.3,0-0.8-0.1-1.7-0.7
		c-0.2-0.1-0.3-0.2-0.3-0.3c0,0,0-0.1,0.2-0.1c0.1,0,0.2,0,0.3,0c0.8,0.2,1.9,0.2,3.1,0.2c0.9,0,1.8,0,2.9-0.1c0-0.3,0-0.8,0-3.5
		c-0.8,0-1.5,0-2,0c-0.6,0-1.2-0.3-1.2-0.9V5.5c-0.1-0.3-0.6-0.4-1.1-0.6c-0.1,0-0.2-0.1-0.2-0.2s0.2-0.2,0.8-0.2
		c0.6,0,1.1,0.1,1.6,0.2c0.8,0,3-0.1,4.2-0.2c0.5,0,0.5-0.1,1-0.2c0.1-0.4,0.2-1.4,0.2-2.3c-1.3,0.1-3.4,0.2-5.3,0.3
		C19.9,2.8,19.9,3,19.6,3C19.4,3,18,2.4,18,2.2c0,0,0-0.1,0.2-0.1c0,0,0.1,0,0.2,0c0.7,0.1,1.4,0.1,2.2,0.1C22,2.2,23.5,2.1,25,2
		c0.4,0,0.4-0.2,1-0.2c0.7,0,1.1,0.1,1.1,0.2c0,0.1-0.3,0.4-0.4,0.6c-0.1,0.6-0.5,1.5-0.6,2c0.4,0,0.6,0.2,0.6,0.3
		c0,0.1-0.1,0.2-0.4,0.2c-2.1,0-4.1,0.2-5.8,0.3c-0.2,0.1-0.3,0-0.3,0.2l0,0c0,0.3,0,1.1,0,1.9c0,0.3,0.1,0.3,0.4,0.3
		c1.1,0,2.5-0.1,4.1-0.2c0.8-0.1,0.5-0.5,1.6-0.5c0.4,0,1,0,1,0.4c0,0.2-0.2,0.4-0.5,0.4c-1.4,0.1-2.4,0.2-3.4,0.2
		c0,2.2,0,2.8,0,3.5c0.7,0,1.9,0,3.3-0.1c0.6,0,0.5-0.3,1.2-0.3c0.4,0,1.8,0.1,1.8,0.6C29.7,12.1,29.5,12.3,29,12.3L29,12.3z"/>
	<path d="M41.3,1.4c0-0.3-0.8-0.6-1.5-0.9c-0.2-0.1-0.3-0.1-0.3-0.2s0.2-0.2,0.6-0.2c0.7,0.1,1.3,0.3,1.8,0.4
		c0.3,0.1,0.4,0.2,0.4,0.4c0,0.1,0,0.3,0,0.5V7h0.8c0.7-0.1,0.5-0.4,1.5-0.4c0.3,0,0.9,0,0.9,0.5c0,0.2-0.2,0.4-0.5,0.4h-2.6v4.4
		c0,1-0.1,1.6-0.4,2.3c-0.1,0.2-0.2,0.3-0.4,0.3c-0.1,0-0.2-0.2-0.2-0.7v-6c-1.9,1-5.7,2.3-7.5,2.3c-0.3,0-0.7-0.6-0.7-1.2V4
		c-0.1-0.4-0.5-0.5-1.3-0.8c-0.1,0-0.2,0-0.2-0.1s0.1-0.2,0.5-0.2c0.8,0,1.7,0.2,2.2,0.3c0.9,0,1.8,0,2.3-0.1
		c0.8-0.1,0.6-0.5,1.6-0.5c0.4,0,1.1,0,1.1,0.4c0,0.2-0.2,0.3-0.5,0.4c-1.5,0.1-3.1,0.2-4.4,0.2c-0.2,0-0.3,0-0.3,0.2
		c0,0.7,0,3,0,4.3c0,1.2,0,1.3,0.4,1.3c0.5,0,4.5-0.7,6.9-1.8V1.4H41.3z"/>
	<path d="M57.4,7.7C58,7.6,58,7.4,58.8,7.4c0.4,0,1.6,0,1.6,0.6c0,0.2-0.2,0.4-0.5,0.4h-0.1c-0.9-0.1-2-0.1-3.1-0.1
		c-2.3,0-6.4,0.1-6.9,0.1c-0.6,0.1-0.7,0.3-1,0.3s-2.1-0.7-2.1-1c0-0.1,0.1-0.1,0.2-0.1c0.1,0,0.2,0,0.3,0c0.8,0.2,2.2,0.3,4,0.3
		c1.6,0,3.6-0.1,5.5-0.1L57.4,7.7z M49.9,10.7c0-0.3-0.4-0.4-1.1-0.7c-0.2,0-0.3-0.1-0.3-0.2c0-0.1,0.1-0.2,0.5-0.2
		c0.7,0,1.3,0.1,1.6,0.1c0.3,0.1,0.3,0.2,0.3,0.3s0,0.2-0.1,0.4c0,0.7,0,1.5,0,2.1c0,0.3,0.2,0.5,0.7,0.5h3.3
		c1.1-0.1,0.6-0.4,1.9-0.4c0.4,0,1.2,0,1.2,0.5c0,0.2-0.2,0.3-0.4,0.3h-6c-1,0-1.6-0.3-1.6-1L49.9,10.7z M49.8,4.1
		c0-0.2-0.4-0.3-0.9-0.5c-0.1,0-0.2-0.1-0.2-0.1c0-0.1,0.2-0.2,0.5-0.2c0.7,0,1.3,0.1,1.7,0.3c1.2,0,3-0.1,4.3-0.1
		c0.5,0,0.4-0.1,0.9-0.2c0-0.4,0.1-0.7,0.1-1.7c-1.8,0-3.8,0.1-5.1,0.2C50.6,1.9,50.5,2,50.3,2c-0.3,0-1.6-0.6-1.6-0.8
		c0,0,0.1-0.1,0.2-0.1c0.1,0,0.1,0,0.2,0c0.5,0.1,1.4,0.2,2.4,0.2c1.4,0,2.9-0.1,3.9-0.1c0.7,0,0.3-0.2,1.3-0.2
		c0.6,0,0.8,0.1,0.8,0.2s-0.3,0.3-0.4,0.5c-0.2,0.6-0.4,1.1-0.5,1.5c0.4,0.1,0.6,0.2,0.6,0.3c0,0.2-0.4,0.2-0.6,0.2
		c-1.7,0-4.2,0.1-5.6,0.2c-0.2,0.1-0.3,0-0.3,0.3s0,0.8,0,1.2s0.2,0.4,0.6,0.4c0.7,0,2,0,3.6-0.1c1-0.1,0.6-0.4,2-0.4H57
		c0.6,0,0.8,0.2,0.8,0.4c0,0.2-0.2,0.3-0.4,0.3c-1.9,0.1-4.7,0.2-6.5,0.2c-0.8,0-1.2-0.3-1.2-0.8L49.8,4.1z"/>
	<path d="M72.6,3.1c0.3,0,0.2-0.1,0.6-0.1c0.8,0,1,0.1,1,0.2S74,3.5,73.9,3.8c-0.6,1.1-1.5,2.4-2.1,3c0.4,0.3,1,0.9,1.3,1.1
		c0.6,0.4,0.8,0.1,1.5,1.2C74.9,9.5,75,9.7,75,9.9s-0.1,0.3-0.3,0.3c-0.1,0-0.3-0.1-0.5-0.2c-0.4-0.5-1.3-1.4-2.8-2.9
		c-1.8,2-4.7,3.9-5.1,3.9h-0.1c0-0.1,0.1-0.2,0.4-0.4c1.9-1.3,4.7-3.8,6.2-7.1c-0.8,0-2.8,0.2-3.3,0.2C69.2,3.8,69.1,4,68.9,4
		c-0.3,0-1.6-0.6-1.6-0.8c0,0,0.1-0.1,0.2-0.1s0.2,0,0.3,0c0.5,0.1,1,0.1,1.6,0.1C70.5,3.2,72.2,3.2,72.6,3.1z M76.5,1.4
		c0-0.3-0.8-0.6-1.5-0.9c-0.2-0.1-0.3-0.1-0.3-0.2s0.2-0.2,0.6-0.2c0.7,0.1,1.3,0.3,1.8,0.4c0.3,0.1,0.4,0.2,0.4,0.4
		c0,0.1,0,0.3,0,0.5V7h0.8c0.7-0.1,0.5-0.4,1.5-0.4c0.3,0,0.9,0,0.9,0.5c0,0.2-0.2,0.4-0.5,0.4h-2.6v4.4c0,1-0.1,1.6-0.4,2.3
		c-0.1,0.2-0.2,0.3-0.4,0.3c-0.1,0-0.2-0.2-0.2-0.7V1.4H76.5z"/>
	<path d="M81.8,7.9C84.7,6,86.2,3.2,86.2,3S86,2.5,85.4,2c-0.2-0.1-0.3-0.2-0.3-0.3c0-0.1,0.1-0.1,0.3-0.1c0.1,0,0.2,0,0.3,0
		c0.3,0.1,1.9,0.8,1.9,1.1c0,0.2-0.4,0.6-0.9,1.6c0.5,0.5,0.7,0.8,1.2,1.2c0.9,0.6,0.8,0,1.9,1.5c0.1,0.2,0.1,0.3,0.1,0.4
		c0,0.2-0.1,0.4-0.3,0.4c-0.1,0-0.2,0-0.3-0.1c-0.8-0.8-2.1-2.3-2.8-3c-1.4,1.5-2.6,2.5-4.3,3.3c-0.2,0.1-0.3,0.1-0.4,0.1
		s-0.1,0-0.1-0.1C81.5,8.1,81.6,8,81.8,7.9z M86.6,10.6c0-0.3-0.4-0.4-1.1-0.7c-0.2,0-0.3-0.1-0.3-0.2c0-0.1,0.1-0.2,0.5-0.2
		c0.7,0,1.3,0.1,1.6,0.1c0.3,0.1,0.3,0.2,0.3,0.3s0,0.2,0,0.4c0,0.7,0,1.6,0,2.1c0,0.4,0.2,0.5,0.8,0.5h2.8c1.1-0.1,0.6-0.4,2-0.4
		c0.5,0,1.1,0.1,1.1,0.5c0,0.2-0.2,0.3-0.4,0.3h-5.5c-1,0-1.6-0.3-1.7-1L86.6,10.6z M91.8,1.5c0-0.2-0.4-0.4-1.3-0.8
		c-0.2-0.1-0.4-0.2-0.4-0.2c0-0.1,0.2-0.2,0.6-0.2c0.1,0,2.2,0.3,2.2,0.8c0,0.1-0.1,0.2-0.1,0.4v4.8c0.2,0,0.5,0,0.7,0
		c0.7-0.1,0.4-0.4,1.6-0.4c0.3,0,0.9,0,0.9,0.4c0,0.2-0.2,0.4-0.4,0.4l-2.7,0.1c0,2.8-0.1,3.5-0.3,3.9c-0.1,0.3-0.3,0.5-0.4,0.5
		S92,11,92,10.5v-9H91.8z"/>
	<path d="M107.7,1.6c0-0.4-0.6-0.7-1.3-1c-0.3-0.1-0.5-0.2-0.5-0.3s0.2-0.2,0.5-0.2c0.1,0,2.3,0.3,2.3,0.8c0,0.1-0.1,0.2-0.1,0.4
		v9.5c0,2.1-0.2,3.7-0.6,3.7c-0.2,0-0.3-0.2-0.3-1.1v-4c-3,0.9-3.8,1.1-7.1,1.7c-0.4,0.1-0.5,0.3-0.8,0.3s-2.2-0.8-2.2-1.1
		c0-0.1,0.1-0.1,0.2-0.1s0.2,0,0.3,0c0.4,0.1,0.8,0.1,1.4,0.1c2.5,0,6.6-0.8,8.3-1.2V1.6H107.7z M101.8,2.2c0.4,0,0.4-0.2,0.4-0.3
		c0-0.1,0-0.2-0.1-0.2c-0.1-0.1-0.2-0.2-0.2-0.3c0-0.1,0.1-0.1,0.2-0.1c0.5,0,0.9,0.3,0.9,0.5s-0.1,0.3-0.2,0.5
		c1.6,0.3,2.4,1.4,2.4,2.5c0,1.2-1.1,2.5-3,2.5c-2,0-3.1-1.3-3.1-2.6C99.2,3.6,100,2.5,101.8,2.2z M100.1,4.8c0,0.9,0.7,1.9,2.2,1.9
		c1.4,0,2.1-1,2.1-1.9c0-1-0.7-1.9-2.1-1.9C100.9,2.8,100.1,3.8,100.1,4.8z"/>
	<path d="M118.7,3.7c0-0.3-0.7-0.6-1.2-0.7c-0.2,0-0.3-0.1-0.3-0.2c0-0.1,0.1-0.2,0.4-0.2c1.8,0.1,2,0.3,2,0.5c0,0.1,0,0.2,0,0.2
		v3.9c0,0.2,0,0.3,0.3,0.3s2.6-0.6,4.4-1.5c0.1-0.1,0.2-0.1,0.3-0.1l0,0c0,0-0.1,0.2-0.3,0.3c-1.9,1.3-4.7,2.3-5.1,2.3
		s-0.6-0.6-0.6-1L118.7,3.7z M121.3,10.6c0-0.3-0.4-0.4-1.1-0.6c-0.2,0-0.5-0.1-0.5-0.2c0,0,0.1-0.1,0.2-0.2
		c0.2-0.1,0.4-0.1,0.7-0.1c0.3,0,0.8,0,1.2,0.1c0.5,0.1,0.6,0.1,0.6,0.3c0,0.1,0,0.2,0,0.5v2.3c0,0.5,0.2,0.6,0.5,0.6h4.1
		c1-0.1,0.6-0.4,1.8-0.4c0.9,0,1.1,0.2,1.1,0.5c0,0.2-0.2,0.4-0.5,0.4h-6.6c-1.1,0-1.4-0.6-1.4-1.2L121.3,10.6L121.3,10.6z
		 M127.6,1.8c0-0.2-0.8-0.7-1.3-0.9c-0.2-0.1-0.4-0.2-0.4-0.2c0-0.1,0.1-0.1,0.5-0.2c1.9,0.3,2.3,0.5,2.3,0.8c0,0.1-0.1,0.3-0.1,0.5
		l-0.1,7.7c-0.1,1-0.4,1.5-0.6,1.5c-0.2,0-0.3-0.3-0.3-0.8V7.5c-0.7,0-1.3,0.1-2,0.2c-0.3,0.1-0.3,0.2-0.5,0.2s-1.2-0.4-1.2-0.6
		c0,0,0.1-0.1,0.2-0.1s0.7,0,0.8,0c0.8,0,1.9-0.1,2.7-0.1v-3c-0.8,0.1-1.5,0.1-2,0.2c-0.3,0-0.3,0.2-0.5,0.2s-1.3-0.4-1.3-0.6
		c0,0,0.1-0.1,0.2-0.1c0.2,0,1.1,0.1,1.3,0.1c0.8,0,1.5-0.1,2.3-0.1L127.6,1.8L127.6,1.8z"/>
	<path d="M141.9,9c-1.5-0.2-2.4-1.1-2.4-2.1c0-0.9,0.7-1.8,2.4-2.1c0.1-0.1,0.1-0.2,0.1-0.3c0-0.2-0.1-0.4-0.4-0.6
		c-0.4,0-0.8,0.1-1.4,0.1c-0.4,0.1-0.4,0.2-0.6,0.2c-0.3,0-1.4-0.5-1.4-0.7c0-0.1,0.1-0.1,0.2-0.1c0.1,0,0.2,0,0.4,0
		c0.4,0,0.8,0.1,1.4,0.1c1.4,0,3-0.2,3.8-0.2c0.5-0.1,0.2-0.3,1.4-0.3c0.2,0,0.9,0,0.9,0.4c0,0.3-0.4,0.3-0.9,0.3
		c-0.9,0-1.7,0-3,0.1c0.1,0.2,0.2,0.2,0.4,0.5v0.1c0,0.2-0.1,0.2-0.1,0.3l0,0c1.7,0.2,2.5,1.1,2.5,2c0,1-0.8,1.9-2.3,2.1V10
		c0.9-0.1,3.2-0.5,4.6-0.8V1.5c0-0.2-0.6-0.6-1.4-0.9c-0.3-0.1-0.4-0.2-0.4-0.2c0-0.1,0.2-0.2,0.5-0.2c0.8,0,1.4,0.2,1.9,0.4
		c0.3,0.1,0.4,0.2,0.4,0.3s-0.1,0.3-0.1,0.5v9.5c0,1.3,0,2.2-0.3,3.2c-0.1,0.3-0.3,0.5-0.4,0.5c-0.1,0-0.2-0.2-0.2-0.6V9.4
		c-2.1,0.8-5,1.3-7.6,1.8c-0.3,0.1-0.3,0.2-0.6,0.2s-2.2-0.8-2.2-1.1c0-0.1,0.1-0.1,0.2-0.1c0.1,0,0.2,0,0.3,0
		c0.4,0.1,0.9,0.1,1.4,0.1c0.9,0,1.9-0.1,3-0.3L141.9,9L141.9,9z M141.5,2.2c-0.3,0-1.3-0.7-1.3-0.9c0,0,0-0.1,0.1-0.1
		s0.2,0,0.4,0.1c0.7,0.1,0.9,0.1,2.8,0.1c0.4,0,0.7,0.2,0.7,0.4s-0.3,0.4-0.8,0.4H141.5z M140.4,6.8c0,0.8,0.6,1.5,1.9,1.5
		c1.3,0,1.9-0.7,1.9-1.5s-0.6-1.5-1.9-1.5C141.1,5.3,140.4,6,140.4,6.8z"/>
	<path d="M158.5,7.9c-1.1,0-2.8,0.1-3.6,0.2c-0.4,0.1-0.5,0.3-0.8,0.3c-0.4,0-2.1-0.7-2.1-1c0,0,0.1-0.1,0.2-0.1c0.1,0,0.2,0,0.3,0
		c1,0.1,2.2,0.2,3.5,0.2c2.3,0,4.8-0.1,6.8-0.2c0.8-0.1,0.6-0.3,1.3-0.3c0.4,0,1.6,0,1.6,0.5c0,0.2-0.2,0.4-0.5,0.4
		c-0.9,0-1.8,0-2.8,0c-0.8,0-1.7,0-2.9,0c0,3.6,0,5.1-0.3,6c-0.1,0.4-0.3,0.6-0.4,0.6c-0.1,0-0.2-0.3-0.2-0.9V7.9H158.5z M153,5.4
		c2.7-1.1,5.2-3.2,5.6-4c0-0.2-0.5-0.5-1-0.8c-0.5-0.2-0.2-0.4,0.2-0.4c0.2,0,2.2,0.6,2.2,1c0,0.2-0.9,1.1-1,1.3
		c0.4,0.2,2,0.7,2.7,0.7c0.3,0,0.5-0.1,0.7-0.1c0.4,0,2.2,0.6,2.2,1.1c0,0.2-0.2,0.3-0.4,0.3s-0.3,0-0.6-0.1
		c-1.6-0.5-4.1-1.2-4.9-1.6c-2.5,2-5.4,2.8-5.8,2.8c-0.1,0-0.2,0-0.2,0C152.6,5.5,152.7,5.4,153,5.4z"/>
	<path d="M171,11.8c0-0.2-0.3-0.3-0.8-0.4c-0.1,0-0.3-0.1-0.3-0.1c0-0.1,0.3-0.2,0.6-0.2c0.7,0,1.4,0.1,1.6,0.2c1.4,0,2.2,0,3.6-0.1
		c0.4,0,0.4-0.1,0.8-0.1c0-0.3,0.1-0.9,0.1-1.7c-1,0-3,0.1-4.5,0.2c-0.4,0.1-0.5,0.2-0.8,0.2s-1.5-0.5-1.5-0.7c0,0,0.1-0.1,0.2-0.1
		c0.1,0,1.3,0.1,1.6,0.1c-0.1-0.1-0.1-0.2-0.1-0.5V6.9C171,6.9,170.4,7,170,7c-0.5,0.1-0.5,0.3-0.8,0.3c-0.2,0-1.9-0.6-1.9-0.9
		c0-0.1,0.1-0.1,0.2-0.1c0.1,0,0.2,0,0.3,0c0.5,0.1,1.6,0.2,2.9,0.2c2.5,0,5.8-0.2,7.2-0.3c0.8-0.1,0.7-0.3,1.4-0.3
		c0.2,0,0.6,0,1.1,0.1c0.3,0,0.5,0.2,0.5,0.4c0,0.2-0.2,0.4-0.6,0.4l0,0c-1.6-0.1-2.2-0.1-3.4-0.1c0,0.9,0,1.7-0.5,2.2
		c0.1,0,0.1,0,0.2,0c0.1,0,0.2,0,0.4,0c0.5,0,0.6,0.1,0.6,0.2c0,0.1-0.1,0.3-0.2,0.4c-0.2,0.5-0.4,1.2-0.5,1.5
		c0.4,0.1,0.6,0.2,0.6,0.4c0,0.1-0.2,0.2-0.5,0.2c-1.2,0-3.4,0.1-5,0.1c-0.2,0.1-0.3,0.1-0.3,0.2v1.3c0,0.3,0.2,0.4,0.4,0.4
		c0.3,0,0.8,0,1.3,0c0.7,0,1.7,0,2.6,0c0.9-0.1,0.6-0.4,1.6-0.4c0.4,0,1.2,0,1.2,0.4c0,0.2-0.2,0.4-0.5,0.4h-6
		c-1.1,0-1.4-0.4-1.4-0.8L171,11.8L171,11.8z M174.6,0.9c1.7,0.3,2.5,1.4,2.5,2.4c0,1.1-1.1,2.3-2.9,2.3c-2,0-3.1-1.1-3.1-2.4
		c0-1,0.8-2,2.5-2.3h0.1c0.2,0,0.3-0.1,0.3-0.2s0-0.2-0.1-0.3s-0.2-0.2-0.2-0.2c0-0.1,0-0.1,0.2-0.1s0.9,0.2,0.9,0.4
		C174.7,0.6,174.6,0.7,174.6,0.9L174.6,0.9z M176.1,6.7c-1,0-2.4,0.1-3.6,0.1c0,0.9,0,1.4-0.3,1.9c-0.1,0.2-0.3,0.3-0.4,0.4
		c1.3,0,2.9,0,4.3-0.1C176,8.9,176,8.7,176,8.5L176.1,6.7z M171.9,3.3c0,0.9,0.8,1.8,2.3,1.8c1.4,0,2.1-0.9,2.1-1.8
		s-0.7-1.8-2.1-1.8C172.7,1.5,171.9,2.4,171.9,3.3z"/>
</g>
<g class="st0">
	<path d="M92.7,248.2c0,0.9-0.3,1.6-0.9,2.1s-1.4,0.8-2.4,0.8c-0.9,0-1.5-0.1-1.9-0.4v-1.2c0.6,0.4,1.2,0.6,1.9,0.6
		c0.6,0,1.1-0.2,1.5-0.5s0.6-0.8,0.6-1.4s-0.2-1-0.6-1.4s-1-0.5-1.7-0.5c-0.6,0-1.1,0-1.5,0.1l0.3-4.6h4.2v1h-3.3l-0.2,2.6l0.8,0
		c1,0,1.7,0.2,2.3,0.7S92.7,247.3,92.7,248.2z"/>
	<path d="M97.3,248.6h1.9v-3.4h4.1v-2.1h-3.4c-0.5,0.9-1.1,1.8-1.8,2.6c-0.2-0.2-0.4-0.4-0.7-0.7c1.1-1.3,1.9-2.7,2.5-4.2l1,0.3
		c-0.2,0.4-0.3,0.8-0.5,1.1h8.1v0.8h-4.1v2.1h3.9v0.8h-3.9v2.5h4.6v0.8h-4.6v3.2h-0.9v-3.2h-6V248.6z M100.1,248.6h3.2v-2.5h-3.2
		V248.6z"/>
</g>
<g class="st0">
	<path d="M299.3,251v-7.8c-0.2,0.2-0.5,0.4-0.9,0.6s-0.8,0.4-1.2,0.5v-1.1c0.5-0.1,1-0.3,1.5-0.6s1-0.6,1.3-0.8h0.4v9.3H299.3z"/>
	<path d="M303.6,246.6c0-1.6,0.3-2.8,0.8-3.6s1.3-1.2,2.3-1.2c1.9,0,2.9,1.6,2.9,4.7c0,1.5-0.3,2.7-0.8,3.5s-1.3,1.2-2.3,1.2
		c-0.9,0-1.6-0.4-2.1-1.2S303.6,248.1,303.6,246.6z M304.7,246.6c0,2.4,0.6,3.6,1.8,3.6c1.2,0,1.8-1.2,1.8-3.7
		c0-2.5-0.6-3.8-1.8-3.8C305.4,242.7,304.7,244,304.7,246.6z"/>
	<path d="M313.8,248.6h1.9v-3.4h4.1v-2.1h-3.4c-0.5,0.9-1.1,1.8-1.8,2.6c-0.2-0.2-0.4-0.4-0.7-0.7c1.1-1.3,1.9-2.7,2.5-4.2l1,0.3
		c-0.2,0.4-0.3,0.8-0.5,1.1h8.1v0.8h-4.1v2.1h3.9v0.8h-3.9v2.5h4.6v0.8h-4.6v3.2h-0.9v-3.2h-6V248.6z M316.7,248.6h3.2v-2.5h-3.2
		V248.6z"/>
</g>
<g class="st0">
	<path d="M504.1,244.3c0-0.5-0.2-0.9-0.5-1.2s-0.7-0.4-1.3-0.4c-0.4,0-0.8,0.1-1.1,0.3s-0.7,0.5-1.1,0.8v-1.1c0.3-0.3,0.6-0.5,1-0.7
		s0.8-0.2,1.3-0.2c0.8,0,1.5,0.2,2,0.7s0.8,1,0.8,1.8c0,0.7-0.2,1.2-0.5,1.7s-0.8,1-1.6,1.5c-0.8,0.5-1.3,0.9-1.5,1.1
		s-0.4,0.4-0.5,0.7s-0.2,0.5-0.2,0.8h4.5v1h-5.7v-0.5c0-0.5,0.1-1,0.2-1.3s0.4-0.7,0.7-1.1s0.8-0.8,1.5-1.2c0.7-0.5,1.2-0.9,1.5-1.3
		S504.1,244.8,504.1,244.3z"/>
	<path d="M506.7,246.6c0-1.6,0.3-2.8,0.8-3.6s1.3-1.2,2.3-1.2c1.9,0,2.9,1.6,2.9,4.7c0,1.5-0.3,2.7-0.8,3.5s-1.3,1.2-2.3,1.2
		c-0.9,0-1.6-0.4-2.1-1.2S506.7,248.1,506.7,246.6z M507.8,246.6c0,2.4,0.6,3.6,1.8,3.6c1.2,0,1.8-1.2,1.8-3.7
		c0-2.5-0.6-3.8-1.8-3.8C508.5,242.7,507.8,244,507.8,246.6z"/>
	<path d="M516.9,248.6h1.9v-3.4h4.1v-2.1h-3.4c-0.5,0.9-1.1,1.8-1.8,2.6c-0.2-0.2-0.4-0.4-0.7-0.7c1.1-1.3,1.9-2.7,2.5-4.2l1,0.3
		c-0.2,0.4-0.3,0.8-0.5,1.1h8.1v0.8h-4.1v2.1h3.9v0.8h-3.9v2.5h4.6v0.8h-4.6v3.2H523v-3.2h-6V248.6z M519.8,248.6h3.2v-2.5h-3.2
		V248.6z"/>
</g>
<g>
	<path d="M621.6,183.6c-0.7,0-1.9,0.1-2.4,0.1c-0.3,0.1-0.3,0.2-0.5,0.2c-0.3,0-1.4-0.5-1.4-0.6c0,0,0,0,0.1,0s0.1,0,0.2,0
		c0.6,0.1,1.4,0.1,2.3,0.1c1.5,0,3.1-0.1,4.4-0.2c0.5-0.1,0.4-0.2,0.9-0.2c0.3,0,1.1,0,1.1,0.3c0,0.1-0.1,0.2-0.3,0.3
		c-0.6,0-1.2,0-1.9,0c-0.5,0-1.1,0-1.9,0c0,2.4,0,3.3-0.2,3.9c-0.1,0.2-0.2,0.4-0.3,0.4s-0.2-0.2-0.2-0.6v-3.7H621.6z M620.2,182.3
		c-0.1,0.3-0.2,0.5-0.4,0.5c-0.1,0-0.1-0.2-0.2-0.4c0-0.2,0-2.2,0-2.6c0-0.2,0-0.3-0.7-0.4c-0.1,0-0.2-0.1-0.2-0.1s0.1-0.1,0.3-0.1
		c1,0.1,1.2,0.2,1.2,0.3v0.2v0.7l3.3-0.1v-0.8c0-0.1-0.2-0.2-0.6-0.4c-0.1,0-0.2-0.1-0.2-0.1c0-0.1,0.1-0.1,0.3-0.1
		c1,0.1,1.1,0.2,1.1,0.4c0,0.1,0,0.1,0,0.2c0,0.9,0,2.6-0.2,2.9c-0.1,0.2-0.2,0.3-0.3,0.3s-0.2-0.1-0.2-0.4L620.2,182.3z
		 M620.2,180.5v1.5l3.3-0.1v-1.5L620.2,180.5z"/>
	<path d="M629.4,179.7c0-0.2-0.3-0.3-0.7-0.5c-0.1,0-0.1,0-0.1-0.1s0.1-0.1,0.3-0.1c0.5,0,1,0.1,1.3,0.2c0.8,0,1.7,0,2.7,0
		c0.8-0.1,0.4-0.3,1.2-0.3c0.2,0,0.7,0,0.7,0.3c0,0.1-0.2,0.2-0.5,0.2c-1,0-3.1,0.1-4.1,0.1c-0.1,0.1-0.1,0-0.1,0.2
		c0,0.4,0,1.1,0,1.6c0,0.3,0.1,0.3,1.1,0.3c0.5,0,1.1,0,1.9-0.1c0.5-0.1,0.3-0.3,1.2-0.3c0.3,0,0.5,0.1,0.5,0.3s-0.2,0.3-0.4,0.3
		c-0.4,0-1.5,0-2.1,0c0,0.6,0,1.1-0.1,1.5c0.8,0,1.6-0.1,2.2-0.2c0.5-0.1,0.4-0.2,0.8-0.2c0.2,0,0.4,0,0.8,0.1
		c0.3,0,0.4,0.2,0.4,0.3s-0.1,0.2-0.4,0.2l0,0c-0.5,0-1.2,0-2,0c-1.4,0-3.1,0-4.5,0.2c-0.4,0.1-0.5,0.2-0.7,0.2
		c-0.3,0-1.3-0.5-1.3-0.7c0,0,0-0.1,0.1-0.1c0,0,0.1,0,0.2,0c0.5,0.1,1.2,0.1,2,0.1c0.6,0,1.3,0,2-0.1c0-0.5,0-1.1,0-1.5l0,0h-1.2
		c-0.8,0-1-0.3-1-0.6L629.4,179.7z M631.8,184.4c0-0.1,0-0.2-0.1-0.3c-0.1,0-0.1-0.1-0.1-0.1s0-0.1,0.1-0.1c0.2,0,0.6,0.2,0.6,0.3
		s-0.1,0.2-0.1,0.3c1.1,0.2,1.6,0.9,1.6,1.6c0,0.8-0.7,1.6-2,1.6s-1.9-0.8-1.9-1.6c0-0.7,0.5-1.4,1.7-1.6
		C631.8,184.5,631.8,184.5,631.8,184.4z M630.5,186.1c0,0.6,0.5,1.2,1.4,1.2s1.4-0.6,1.4-1.2c0-0.6-0.5-1.2-1.4-1.2
		S630.5,185.5,630.5,186.1z"/>
	<path d="M637.5,183.6c1.9-1.2,2.9-3,2.9-3.2s-0.1-0.3-0.5-0.6c-0.2-0.1-0.2-0.1-0.2-0.2c0-0.1,0.1-0.1,0.2-0.1c0.1,0,0.1,0,0.2,0
		c0.2,0.1,1.2,0.5,1.2,0.8c0,0.2-0.2,0.4-0.6,1.1c0.3,0.3,0.5,0.5,0.8,0.8c0.6,0.4,0.5,0,1.2,1c0.1,0.1,0.1,0.2,0.1,0.3
		s-0.1,0.2-0.2,0.2c-0.1,0-0.1,0-0.2-0.1c-0.5-0.5-1.4-1.5-1.9-2c-0.9,1-1.7,1.6-2.8,2.2c-0.1,0.1-0.2,0.1-0.3,0.1h-0.1
		C637.3,183.8,637.3,183.7,637.5,183.6z M640.6,185.4c0-0.2-0.2-0.3-0.8-0.4c-0.1,0-0.2-0.1-0.2-0.1s0.1-0.1,0.3-0.1
		c0.5,0,0.9,0,1.1,0.1c0.2,0,0.2,0.1,0.2,0.2c0,0.1,0,0.1,0,0.3c0,0.4,0,1,0,1.4c0,0.2,0.1,0.3,0.5,0.3h1.8c0.7-0.1,0.4-0.3,1.3-0.3
		c0.3,0,0.7,0,0.7,0.3c0,0.1-0.1,0.2-0.3,0.2h-3.6c-0.7,0-1-0.2-1.1-0.7L640.6,185.4z M644,179.5c0-0.1-0.3-0.3-0.9-0.5
		c-0.1,0-0.2-0.1-0.2-0.1c0-0.1,0.1-0.1,0.4-0.1c0,0,1.4,0.2,1.4,0.5c0,0.1,0,0.1,0,0.3v3.1c0.1,0,0.3,0,0.5,0
		c0.5-0.1,0.2-0.3,1-0.3c0.2,0,0.6,0,0.6,0.3c0,0.1-0.1,0.2-0.3,0.2h-1.8c0,1.8-0.1,2.3-0.2,2.5c-0.1,0.2-0.2,0.3-0.3,0.3
		s-0.2-0.1-0.2-0.5V179.5z"/>
</g>
<g>
	<path d="M626,204.5c-0.5,0-1.2-0.1-1.8-0.1c-2,0-4.1,0.1-4.9,0.2c-0.3,0.1-0.3,0.2-0.5,0.2s-1.3-0.5-1.3-0.6c0,0,0-0.1,0.1-0.1
		c0,0,0.1,0,0.2,0c0.3,0.1,0.9,0.1,1.7,0.1c1.4,0,3.2-0.1,5-0.2c0.5,0,0.4-0.2,1-0.2c0.5,0,0.9,0.1,0.9,0.3
		C626.4,204.3,626.2,204.5,626,204.5L626,204.5z M622.9,200c0.5,0,0.3-0.1,1-0.1c0.4,0,0.5,0.1,0.5,0.1c0,0.1-0.2,0.2-0.3,0.3
		c-0.6,0.6-1.3,1.1-1.8,1.4c0.3,0.2,1,0.3,2.3,0.3c0.3,0,1.1,0.2,1.1,0.5c0,0.1-0.1,0.2-0.3,0.2c-0.1,0-2.8-0.5-3.6-0.7
		c-1,0.5-3.5,1.4-4,1.4c-0.1,0-0.1,0-0.1,0s0.1-0.1,0.3-0.1c1.6-0.5,4-1.5,5.1-2.8c-0.7,0-2,0.1-3,0.2c-0.2,0-0.2,0.1-0.4,0.1
		s-1-0.3-1-0.5c0,0,0,0,0.1,0c0,0,0.1,0,0.2,0c0.3,0,0.7,0.1,1.3,0.1C621,200.1,621.9,200.1,622.9,200L622.9,200z M621.8,205.4
		c0-0.1,0-0.2-0.1-0.3c-0.1,0-0.1-0.1-0.1-0.1s0-0.1,0.1-0.1c0.2,0,0.6,0.2,0.6,0.3s-0.1,0.2-0.1,0.3c1.1,0.2,1.6,0.9,1.6,1.6
		c0,0.8-0.7,1.6-2,1.6s-1.9-0.8-1.9-1.6c0-0.7,0.5-1.4,1.7-1.6C621.8,205.5,621.8,205.5,621.8,205.4z M620.5,207.1
		c0,0.6,0.5,1.2,1.4,1.2s1.4-0.6,1.4-1.2c0-0.6-0.5-1.2-1.4-1.2S620.5,206.5,620.5,207.1z"/>
	<path d="M630.6,203.8c-0.2,0-0.8,0.1-1.1,0.2c-0.2,0-0.2,0.2-0.4,0.2s-1.3-0.4-1.3-0.6c0,0,0-0.1,0.1-0.1h0.1
		c0.3,0.1,0.6,0.1,0.9,0.1c0.9,0,2.2-0.2,3-0.3c0.1-0.4,0.2-1,0.2-1.7v-0.3c-0.4,0-1.7,0.1-2.3,0.2c-0.3,0-0.3,0.1-0.4,0.1
		s-0.9-0.3-0.9-0.5c0,0,0.1-0.1,0.2-0.1h0.1c0.4,0,0.8,0,1.3,0c0.6,0,1.1,0,1.6-0.1c0.3,0,0.3-0.1,0.8-0.1c0.3,0,0.5,0.1,0.5,0.2
		c0,0.1-0.1,0.2-0.2,0.3c-0.1,0.5-0.3,1.3-0.5,1.8c0.4-0.1,0.8-0.2,1.1-0.3c0.1,0,0.1,0,0.2,0h0.1c0,0.1-1.2,0.5-2.4,0.8
		c0,0.7,0,1.2-0.1,1.4c-0.1,0.3-0.2,0.4-0.3,0.4s-0.2-0.1-0.2-0.4L630.6,203.8L630.6,203.8z M630.7,206.8c0-0.2-0.2-0.2-0.7-0.4
		c-0.1,0-0.3-0.1-0.3-0.1s0.1-0.1,0.4-0.2c0.2,0,0.6,0,0.9,0c0.3,0,0.3,0.1,0.3,0.2c0,0.1,0,0.1,0,0.3v1.2c0,0.3,0.1,0.4,0.3,0.4
		h2.2c0.7-0.1,0.3-0.3,1.2-0.3c0.3,0,0.7,0,0.7,0.3c0,0.1-0.1,0.2-0.3,0.2h-3.9c-0.8,0-0.9-0.3-0.9-0.7L630.7,206.8z M634.4,200.5
		c0-0.1-0.6-0.4-0.9-0.5c-0.1,0-0.3-0.1-0.3-0.2c0-0.1,0.4-0.1,0.4-0.1c0.3,0,1.4,0.2,1.4,0.4c0,0.1,0,0.2-0.1,0.4l-0.1,5
		c0,0.7-0.2,1.1-0.4,1.1c-0.1,0-0.2-0.2-0.2-0.5v-1.5c-0.3,0-0.9,0-1,0.1c-0.2,0-0.2,0.1-0.4,0.1s-0.8-0.3-0.8-0.4c0,0,0,0,0.1,0
		c0,0,0.1,0,0.2,0c0.2,0,0.3,0,0.5,0c0.5,0,0.9,0,1.4,0v-3.9H634.4z"/>
</g>
<g>
	<path d="M619.7,229v-6.5c-0.1,0.1-0.4,0.3-0.8,0.5c-0.4,0.2-0.7,0.3-1,0.4v-0.9c0.4-0.1,0.8-0.3,1.3-0.5s0.8-0.5,1-0.7h0.4v7.7
		H619.7z"/>
	<path d="M623.2,225.3c0-1.3,0.2-2.3,0.7-3c0.4-0.7,1.1-1,1.9-1c1.6,0,2.4,1.3,2.4,3.9c0,1.3-0.2,2.3-0.7,2.9c-0.5,0.7-1.1,1-1.9,1
		c-0.8,0-1.4-0.3-1.8-1C623.4,227.5,623.2,226.6,623.2,225.3z M624.2,225.3c0,2,0.5,3,1.5,3s1.5-1,1.5-3.1s-0.5-3.2-1.5-3.2
		C624.7,222.1,624.2,223.1,624.2,225.3z"/>
	<path d="M630.3,222.8c0-0.2-0.4-0.4-0.8-0.4c-0.1,0-0.2-0.1-0.2-0.1s0.1-0.1,0.3-0.2c1.2,0.1,1.3,0.2,1.3,0.3s0,0.1,0,0.2v2.6
		c0,0.1,0,0.2,0.2,0.2s1.7-0.4,2.9-1c0.1,0,0.2-0.1,0.2-0.1l0,0c0,0,0,0.1-0.2,0.2c-1.3,0.9-3,1.5-3.3,1.5s-0.4-0.4-0.4-0.7V222.8z
		 M632.1,227.4c0-0.2-0.3-0.3-0.8-0.4c-0.1,0-0.3,0-0.3-0.1c0,0,0-0.1,0.1-0.1s0.3-0.1,0.4-0.1c0.2,0,0.5,0,0.8,0s0.4,0.1,0.4,0.2
		c0,0.1,0,0.2,0,0.3v1.5c0,0.3,0.1,0.4,0.3,0.4h2.7c0.7-0.1,0.4-0.3,1.1-0.3c0.6,0,0.7,0.2,0.7,0.3s-0.1,0.2-0.3,0.2H633
		c-0.7,0-0.9-0.4-0.9-0.8V227.4z M636.2,221.6c0-0.2-0.5-0.4-0.8-0.6c-0.1,0-0.3-0.1-0.3-0.2c0,0,0.1-0.1,0.3-0.1
		c1.3,0.2,1.5,0.3,1.5,0.5c0,0.1,0,0.2-0.1,0.3l-0.1,5c-0.1,0.6-0.2,1-0.4,1c-0.1,0-0.2-0.2-0.2-0.5v-1.7c-0.4,0-0.9,0.1-1.3,0.1
		c-0.2,0-0.2,0.1-0.3,0.1s-0.8-0.3-0.8-0.4c0,0,0,0,0.1,0s0.4,0,0.5,0c0.5,0,1.2,0,1.7-0.1v-1.9c-0.5,0-1,0.1-1.3,0.1
		c-0.2,0-0.2,0.1-0.3,0.1s-0.8-0.3-0.8-0.4c0,0,0-0.1,0.2-0.1c0.1,0,0.7,0,0.8,0c0.5,0,1,0,1.5-0.1L636.2,221.6L636.2,221.6z"/>
	<path d="M641.4,222.5c-0.4,0.1-0.4,0.2-0.6,0.2c-0.3,0-1-0.4-1-0.5c0,0,0-0.1,0.1-0.1s0.1,0,0.2,0c0.5,0.1,1.1,0.1,1.8,0.1
		c0.4,0,0.8,0,1.3,0c0.3,0,0.2-0.1,0.5-0.1c0.1,0,0.1,0,0.2,0c0.3,0,0.4,0.1,0.4,0.2c0,0.1-0.1,0.2-0.2,0.3
		c-0.9,2.3-2.2,3.8-4.4,5.3c-0.2,0.1-0.3,0.2-0.4,0.2l0,0c0,0,0.1-0.1,0.3-0.3c1.7-1.3,3.4-3.4,3.9-5.3L641.4,222.5z M646.1,221.4
		c0-0.2-0.3-0.4-0.9-0.7c-0.1,0-0.2-0.1-0.2-0.2c0-0.1,0.1-0.1,0.3-0.1c0.6,0.1,1,0.2,1.2,0.3s0.2,0.1,0.2,0.2c0,0.1,0,0.2,0,0.3
		v5.9c0,1.8-0.1,2.1-0.2,2.5c-0.1,0.1-0.1,0.2-0.2,0.2c-0.1,0-0.1-0.1-0.1-0.4L646.1,221.4L646.1,221.4z"/>
	<path d="M651.3,222.4c-0.3,0.1-0.4,0.2-0.5,0.2c-0.2,0-1-0.4-1-0.5c0,0,0,0,0.1,0s0.1,0,0.2,0c0.3,0,0.7,0,1.1,0c0.6,0,1.2,0,1.8,0
		c0.3,0,0.2-0.1,0.5-0.1c0.2,0,0.6,0,0.6,0.2c0,0.1-0.1,0.2-0.2,0.3c-0.9,1.8-2.3,3.2-4.3,4.3c-0.1,0.1-0.2,0.1-0.3,0.1l0,0
		c0,0,0.1-0.1,0.2-0.3c1.5-1,3.2-2.9,3.7-4.3L651.3,222.4z M651.9,227.3c0-0.2-0.3-0.3-0.7-0.4c-0.1,0-0.3,0-0.3-0.1
		s0.4-0.2,0.6-0.2c0.2,0,0.5,0,0.8,0.1c0.3,0,0.4,0.1,0.4,0.2c0,0.1,0,0.2,0,0.3v1.6c0,0.3,0.1,0.4,0.3,0.4h2.5
		c0.7-0.1,0.3-0.3,1.3-0.3c0.5,0,0.6,0.1,0.6,0.3c0,0.1-0.1,0.2-0.3,0.2h-4.2c-0.7,0-0.9-0.4-0.9-0.8L651.9,227.3L651.9,227.3z
		 M655.7,221.4c0-0.1-0.3-0.3-0.9-0.5c-0.1,0-0.2-0.1-0.2-0.1c0-0.1,0.1-0.1,0.4-0.1c0,0,1.4,0.2,1.4,0.5c0,0.1,0,0.1,0,0.3v3.1
		c0.1,0,0.3,0,0.5,0c0.5-0.1,0.2-0.3,1-0.3c0.2,0,0.6,0,0.6,0.3c0,0.1-0.1,0.2-0.3,0.2h-1.8c0,1.8-0.1,2.3-0.2,2.5
		c-0.1,0.2-0.2,0.3-0.3,0.3s-0.2-0.1-0.2-0.5V221.4z"/>
	<path d="M666.4,223.9c0.5-0.1,0.3-0.2,0.8-0.2c0.3,0,0.9,0,0.9,0.3c0,0.1-0.1,0.2-0.3,0.2l0,0c-0.7,0-1.3,0-1.9,0
		c-0.6,0-1.2,0-1.9,0c0,0.9,0,1.2-0.2,1.6c-0.1,0.2-0.2,0.3-0.3,0.3s-0.1-0.1-0.2-0.3v-1.5c-1.1,0-1.7,0.1-2.1,0.1
		c-0.3,0-0.4,0.2-0.6,0.2c-0.3,0-1.3-0.4-1.3-0.5h0.1c0,0,0.1,0,0.2,0c0.7,0.1,1.5,0.1,2.3,0.1c0.7,0,2.9,0,3.5-0.1
		c0.2-0.7,0.4-1.4,0.5-2.4c-1.1,0-2.4,0.1-3.8,0.1c-0.3,0.1-0.4,0.2-0.5,0.2c-0.3,0-1.1-0.4-1.1-0.5c0,0,0,0,0.1,0c0,0,0.1,0,0.2,0
		c0.5,0.1,1.1,0.1,1.8,0.1s2.5-0.1,3.1-0.1c0.3,0,0.3-0.1,0.6-0.1h0.2c0.4,0,0.5,0.1,0.5,0.2c0,0.1-0.2,0.2-0.2,0.3
		c-0.3,0.9-0.6,1.6-0.9,2.2L666.4,223.9z M665.5,226.6c-0.9,0-2.8,0.1-3.2,0.2c-0.4,0.1-0.5,0.2-0.7,0.2s-1.1-0.3-1.1-0.5
		c0,0,0-0.1,0.1-0.1h0.1c0.4,0.1,1,0.1,1.6,0.1c1,0,2-0.1,2.7-0.1c0.3,0,0.3-0.1,0.5-0.1c0.1,0,0.2,0,0.3,0c0.3,0,0.4,0.1,0.4,0.1
		c0,0.1-0.1,0.2-0.1,0.3l-0.1,2c0,0.7-0.3,1-0.4,1c-0.1,0-0.2-0.1-0.2-0.4v-2.7H665.5z"/>
	<path d="M671.4,224.1c-0.2,0-0.3,0.1-0.4,0.1c-0.2,0-0.9-0.3-0.9-0.5c0,0,0,0,0.1,0s0.1,0,0.2,0c0.4,0,0.8,0.1,1.1,0.1
		c0.4,0,0.7,0,0.8,0c0.4,0,0.3-0.1,0.7-0.1c0.1,0,0.5,0,0.5,0.1s-0.1,0.2-0.2,0.3c-0.2,0.3-0.6,0.9-1,1.3c0.2,0.3,0.7,0.4,1,0.8
		c0.2,0.3,0.2,0.5,0.2,0.7s-0.1,0.3-0.2,0.3c0,0-0.1,0-0.2-0.1c-0.3-0.3-0.6-1.1-1-1.5c-1,1.1-2.7,2.1-2.9,2.1l0,0
		c0,0,0.1-0.1,0.2-0.2c0.7-0.4,2.4-1.9,3.1-3.4C672.2,224,671.6,224,671.4,224.1z M671.7,222.7c-0.1,0-0.7-0.4-0.7-0.6
		c0,0,0,0,0.1,0s0.1,0,0.3,0c0.7,0.1,1.1,0.1,1.8,0.1c0.2,0,0.3,0.1,0.3,0.2c0,0.1-0.1,0.2-0.2,0.2c-0.9,0-1,0-1.2,0L671.7,222.7z
		 M674.6,221.9c0-0.2-0.3-0.4-0.7-0.6c-0.1-0.1-0.2-0.1-0.2-0.2c0-0.1,0.1-0.1,0.3-0.1c1.1,0.2,1.2,0.3,1.2,0.5c0,0.1,0,0.1,0,0.2
		v3.4h1.3v-3.7c0-0.2-0.4-0.4-0.8-0.7c-0.1,0-0.2-0.1-0.2-0.2s0.1-0.1,0.4-0.1c1.1,0.3,1.3,0.4,1.3,0.6c0,0.1,0,0.2,0,0.3v7.5
		c-0.1,0.6-0.3,1-0.4,1c-0.1,0-0.2-0.2-0.2-0.5v-3.9h-1.3v2.9c0,0.5-0.2,0.8-0.3,0.8s-0.2-0.2-0.2-0.6v-6.6H674.6z"/>
</g>
</svg>
