<?xml version="1.0" encoding="utf-8"?>
<!-- Generator: Adobe Illustrator 23.0.0, SVG Export Plug-In . SVG Version: 6.00 Build 0)  -->
<svg version="1.1" id="平民化" xmlns="http://www.w3.org/2000/svg" xmlns:xlink="http://www.w3.org/1999/xlink" x="0px" y="0px"
	 viewBox="0 0 662 363" style="enable-background:new 0 0 662 363;" xml:space="preserve">
<style type="text/css">
	.st0{fill:#58595B;}
	.st1{fill:#70DBCB;}
	.st2{fill:none;stroke:#70DBCB;}
	.st3{fill:#F5F5F5;}
	.st4{fill:#E6E7E8;}
	.st5{fill:#FCFCFC;}
	.st6{fill:#F2F2F2;}
	.st7{enable-background:new    ;}
	.st8{fill:#FFFFFF;}
</style>
<g>
	<path class="st0" d="M333.3,148c-3.2,0-5.9-2.6-5.9-5.7v-5.7c0-3.2,2.6-5.7,5.9-5.7c3.2,0,5.9,2.6,5.9,5.7v5.7
		C339.2,145.4,336.7,148,333.3,148z M333.3,145.2c1.6,0,3-1.4,3-3v-5.7c0-1.6-1.4-3-3-3s-3,1.4-3,3v5.7
		C330.4,144,331.7,145.2,333.3,145.2z"/>
	<path class="st0" d="M335.1,136.2v-7.1h-3.4v7.1c0,0.9,0.7,1.6,1.7,1.6C334.3,137.9,335.1,137.2,335.1,136.2z"/>
	<path class="st0" d="M331.6,122.2v7.1h3.4v-7.1c0-0.9-0.7-1.6-1.7-1.6C332.5,120.6,331.6,121.3,331.6,122.2z"/>
	<path class="st0" d="M335.1,150v-7.1c0-0.9-0.7-1.6-1.7-1.6s-1.7,0.7-1.7,1.6v7.1H335.1z"/>
	<g>
		<path class="st0" d="M333.5,169c-3.2,0-5.9-2.6-5.9-5.7v-5.7c0-3.2,2.6-5.7,5.9-5.7c3.2,0,5.9,2.6,5.9,5.7v5.7
			C339.2,166.4,336.7,169,333.5,169z M333.5,166.1c1.6,0,3-1.4,3-3v-5.7c0-1.6-1.4-3-3-3s-3,1.4-3,3v5.7
			C330.4,164.9,331.7,166.1,333.5,166.1z"/>
		<path class="st0" d="M335.1,157.1V150h-3.4v7.1c0,0.9,0.7,1.6,1.7,1.6C334.3,158.7,335.1,158,335.1,157.1z"/>
		<path class="st0" d="M335.2,170.9v-7.1c0-0.9-0.7-1.6-1.7-1.6s-1.7,0.7-1.7,1.6v7.1H335.2z"/>
	</g>
	<g>
		<path class="st0" d="M333.5,189.4c-3.2,0-5.9-2.6-5.9-5.7V178c0-3.2,2.6-5.7,5.9-5.7c3.2,0,5.9,2.6,5.9,5.7v5.7
			C339.4,186.8,336.7,189.4,333.5,189.4z M333.5,186.7c1.6,0,3-1.4,3-3V178c0-1.6-1.4-3-3-3s-3,1.4-3,3v5.7
			C330.5,185.3,331.9,186.7,333.5,186.7z"/>
		<path class="st0" d="M335.2,177.6v-7.1h-3.4v7.1c0,0.9,0.7,1.6,1.7,1.6S335.2,178.5,335.2,177.6z"/>
		<path class="st0" d="M335.2,191.3v-7.1c0-0.9-0.7-1.6-1.7-1.6s-1.7,0.7-1.7,1.6v7.1H335.2z"/>
	</g>
	<g>
		<path class="st0" d="M333.5,209.9c-3.2,0-5.9-2.6-5.9-5.7v-5.7c0-3.2,2.6-5.7,5.9-5.7c3.2,0,5.9,2.6,5.9,5.7v5.7
			C339.4,207.3,336.7,209.9,333.5,209.9z M333.5,207.2c1.6,0,3-1.4,3-3v-5.7c0-1.6-1.4-3-3-3s-3,1.4-3,3v5.7
			C330.5,205.9,331.9,207.2,333.5,207.2z"/>
		<path class="st0" d="M335.2,198.1V191h-3.4v7.1c0,0.9,0.7,1.6,1.7,1.6C334.4,199.8,335.2,199.1,335.2,198.1z"/>
		<path class="st0" d="M335.2,211.9v-7.1c0-0.9-0.7-1.6-1.7-1.6s-1.7,0.7-1.7,1.6v7.1H335.2z"/>
	</g>
	<path class="st0" d="M333.5,230.7c-3.2,0-5.9-2.6-5.9-5.7v-5.7c0-3.2,2.6-5.7,5.9-5.7c3.2,0,5.9,2.6,5.9,5.7v5.7
		C339.4,228.3,336.8,230.7,333.5,230.7z M333.5,228c1.6,0,3-1.4,3-3v-5.7c0-1.6-1.4-3-3-3s-3,1.4-3,3v5.7
		C330.5,226.7,331.9,228,333.5,228z"/>
	<path class="st0" d="M335.2,218.9v-7.1h-3.4v7.1c0,0.9,0.7,1.6,1.7,1.6C334.4,220.6,335.2,219.9,335.2,218.9z"/>
	<path class="st0" d="M335.2,232.7v-7.1c0-0.9-0.7-1.6-1.7-1.6s-1.7,0.7-1.7,1.6v7.1H335.2z"/>
	<g>
		<path class="st0" d="M333.6,251.6c-3.2,0-5.9-2.6-5.9-5.7v-5.7c0-3.2,2.6-5.7,5.9-5.7c3.2,0,5.9,2.6,5.9,5.7v5.7
			C339.4,249.1,336.8,251.6,333.6,251.6z M333.6,248.9c1.6,0,3-1.4,3-3v-5.7c0-1.6-1.4-3-3-3s-3,1.4-3,3v5.7
			C330.5,247.6,331.9,248.9,333.6,248.9z"/>
		<path class="st0" d="M335.2,239.8v-7.1h-3.4v7.1c0,0.9,0.7,1.6,1.7,1.6C334.4,241.5,335.2,240.8,335.2,239.8z"/>
		<path class="st0" d="M335.3,253.6v-7.1c0-0.9-0.7-1.6-1.7-1.6s-1.7,0.7-1.7,1.6v7.1H335.3z"/>
	</g>
	<g>
		<path class="st0" d="M333.6,272.1c-3.2,0-5.9-2.6-5.9-5.7v-5.7c0-3.2,2.6-5.7,5.9-5.7c3.2,0,5.9,2.6,5.9,5.7v5.7
			C339.5,269.6,336.8,272.1,333.6,272.1z M333.6,269.4c1.6,0,3-1.4,3-3v-5.7c0-1.6-1.4-3-3-3s-3,1.4-3,3v5.7
			C330.6,268,331.9,269.4,333.6,269.4z"/>
		<path class="st0" d="M335.3,260.3v-7.1h-3.4v7.1c0,0.9,0.7,1.6,1.7,1.6C334.4,262,335.3,261.2,335.3,260.3z"/>
		<path class="st0" d="M335.3,274v-7.1c0-0.9-0.7-1.6-1.7-1.6s-1.7,0.7-1.7,1.6v7.1H335.3z"/>
	</g>
	<g>
		<path class="st0" d="M333.6,292.6c-3.2,0-5.9-2.6-5.9-5.7v-5.7c0-3.2,2.6-5.7,5.9-5.7c3.2,0,5.9,2.6,5.9,5.7v5.7
			C339.5,290.2,336.8,292.6,333.6,292.6z M333.6,289.9c1.6,0,3-1.4,3-3v-5.7c0-1.6-1.4-3-3-3s-3,1.4-3,3v5.7
			C330.6,288.6,332,289.9,333.6,289.9z"/>
		<path class="st0" d="M335.3,280.8v-7.1h-3.4v7.1c0,0.9,0.7,1.6,1.7,1.6S335.3,281.8,335.3,280.8z"/>
		<path class="st0" d="M335.3,294.6v-7.1c0-0.9-0.7-1.6-1.7-1.6s-1.7,0.7-1.7,1.6v7.1H335.3z"/>
	</g>
	<path class="st0" d="M335.2,301.7v-7.1h-3.4v7.1c0,0.9,0.7,1.6,1.7,1.6C334.4,303.4,335.2,302.7,335.2,301.7z"/>
</g>
<g>
	<g>
		<rect id="矩形_48_4_" x="376.4" y="276.5" class="st1" width="187.9" height="1.1"/>
		<path id="形状_2_4_" class="st2" d="M608.1,196.5h-78.9l-19.7,75.6H376.4"/>
		<path id="形状_2_拷贝_4_" class="st2" d="M608.1,347.6h-78.9L509.5,283H376.4"/>
	</g>
	<g>
		<path id="圆角矩形_1_拷贝_13_" class="st3" d="M660.6,205.4l-23.5,8.2c-1.2,0.4-2.6,0.4-3.8,0l-21.4-7.9
			c-0.7-0.2-0.6-0.7,0.2-1.1l20.5-6.6c1-0.2,2.1-0.2,3.1-0.1l24.5,6.3C661.5,204.4,661.8,205,660.6,205.4z"/>
		<path id="矩形_46_13_" class="st4" d="M662,200.8l-26.2,9.4v-3.8l26.2-9.1V200.8z"/>
		<path id="矩形_46_拷贝_13_" class="st4" d="M612,201.3l23.9,9v-3.8l-23.9-9V201.3z"/>
		<path id="圆角矩形_1_13_" class="st5" d="M661.3,197.5l-23.5,8.2c-1.2,0.4-2.6,0.4-3.8,0l-21.4-7.9c-0.7-0.2-0.6-0.7,0.2-1.1
			l20.5-6.6c1-0.2,2.1-0.2,3.1-0.1l24.5,6.3C662.1,196.5,662.4,197.1,661.3,197.5z"/>
		<ellipse id="椭圆_11_13_" class="st6" cx="635.7" cy="196.1" rx="11.3" ry="2.2"/>
	</g>
	<g>
		<g>
			<path class="st0" d="M636.9,180c-2.6,0-4.6-2.1-4.6-4.6c0-2.6,2.1-4.6,4.6-4.6c2.6,0,4.6,2.1,4.6,4.6
				C641.5,178.1,639.5,180,636.9,180z"/>
			<path class="st0" d="M627.1,188.6c0.4-3.4,3.2-6.2,6.8-6.2h6.2c3.6,0,6.5,2.6,6.8,6.2l0,0v1c0,0.9-0.7,1.6-1.6,1.6h-16.5
				c-0.9,0-1.6-0.7-1.6-1.6v-1H627.1z"/>
		</g>
		<g>
			<path class="st0" d="M627.9,179.3c-1.7,0-3.1-1.4-3.1-3.1s1.4-3.1,3.1-3.1s3.1,1.4,3.1,3.1S629.6,179.3,627.9,179.3z"/>
			<path class="st0" d="M619.3,187.8c0.2-3,2.8-5.4,5.9-5.4h5c-2.3,1.2-3.9,3.6-4.2,6.4l0,0v1.2v0.1h-5.4c-0.7,0-1.5-0.6-1.5-1.5
				L619.3,187.8L619.3,187.8z"/>
		</g>
		<g>
			<path class="st0" d="M645.5,179.5c-1.8,0-3.4-1.5-3.4-3.4c0-1.8,1.5-3.4,3.4-3.4c1.8,0,3.4,1.5,3.4,3.4
				C648.8,178.1,647.4,179.5,645.5,179.5z"/>
			<path class="st0" d="M647.7,189.9v-1.2l0,0c-0.2-2.8-1.8-5-4.2-6.4h4.6c3.1,0,5.7,2.3,5.9,5.4l0,0v0.9c0,0.7-0.6,1.5-1.5,1.5
				h-4.9C647.7,190,647.7,190,647.7,189.9z"/>
		</g>
	</g>
	<g>
		<path id="圆角矩形_1_拷贝_12_" class="st3" d="M616.8,285.1l-23.5,8.2c-1.2,0.4-2.6,0.4-3.8,0l-21.4-7.9
			c-0.7-0.2-0.6-0.7,0.2-1.1l20.5-6.6c1-0.2,2.1-0.2,3.1-0.1l24.5,6.3C617.7,284.2,617.9,284.7,616.8,285.1z"/>
		<path id="矩形_46_12_" class="st4" d="M618.2,280.6L592,290v-3.8l26.2-9.1V280.6z"/>
		<path id="矩形_46_拷贝_12_" class="st4" d="M568.2,281l23.9,9v-3.8l-23.9-9V281z"/>
		<path id="圆角矩形_1_12_" class="st5" d="M617.5,277.2l-23.5,8.2c-1.2,0.4-2.6,0.4-3.8,0l-21.4-7.9c-0.7-0.2-0.6-0.7,0.2-1.1
			l20.5-6.6c1-0.2,2.1-0.2,3.1-0.1l24.5,6.3C618.3,276.2,618.6,276.9,617.5,277.2z"/>
		<ellipse id="椭圆_11_12_" class="st6" cx="591.9" cy="275.9" rx="11.3" ry="2.2"/>
	</g>
	<g>
		<g>
			<path class="st0" d="M593.1,259.8c-2.6,0-4.6-2.1-4.6-4.6c0-2.6,2.1-4.6,4.6-4.6c2.6,0,4.6,2.1,4.6,4.6
				C597.6,257.8,595.7,259.8,593.1,259.8z"/>
			<path class="st0" d="M583.2,268.5c0.4-3.4,3.2-6.2,6.8-6.2h6.2c3.6,0,6.5,2.6,6.8,6.2l0,0v1c0,0.9-0.7,1.6-1.6,1.6h-16.5
				c-0.9,0-1.6-0.7-1.6-1.6v-1H583.2z"/>
		</g>
		<g>
			<path class="st0" d="M584.1,259c-1.7,0-3.1-1.4-3.1-3.1s1.4-3.1,3.1-3.1s3.1,1.4,3.1,3.1S585.8,259,584.1,259z"/>
			<path class="st0" d="M575.5,267.5c0.2-3,2.8-5.4,5.9-5.4h5c-2.3,1.2-3.9,3.6-4.2,6.4l0,0v1.2v0.1h-5.4c-0.7,0-1.5-0.6-1.5-1.5
				L575.5,267.5L575.5,267.5z"/>
		</g>
		<g>
			<path class="st0" d="M601.7,259.3c-1.8,0-3.4-1.5-3.4-3.4c0-1.8,1.5-3.4,3.4-3.4c1.8,0,3.4,1.5,3.4,3.4
				C605,257.8,603.6,259.3,601.7,259.3z"/>
			<path class="st0" d="M603.9,269.7v-1.2l0,0c-0.2-2.8-1.8-5-4.2-6.4h4.6c3.1,0,5.7,2.3,5.9,5.4l0,0v0.9c0,0.7-0.6,1.5-1.5,1.5
				h-4.9C603.9,269.7,603.9,269.7,603.9,269.7z"/>
		</g>
	</g>
	<g>
		<path id="圆角矩形_1_拷贝_11_" class="st3" d="M659.5,354.4l-23.5,8.2c-1.2,0.4-2.6,0.4-3.8,0l-21.4-7.9
			c-0.7-0.2-0.6-0.7,0.2-1.1l20.5-6.6c1-0.2,2.1-0.2,3.1-0.1l24.5,6.3C660.4,353.5,660.6,354.1,659.5,354.4z"/>
		<path id="矩形_46_11_" class="st4" d="M660.9,350l-26.2,9.4v-3.8l26.2-9.1V350z"/>
		<path id="矩形_46_拷贝_11_" class="st4" d="M610.9,350.3l23.9,9v-3.8l-23.9-9V350.3L610.9,350.3z"/>
		<path id="圆角矩形_1_11_" class="st5" d="M660.3,346.5l-23.5,8.2c-1.2,0.4-2.6,0.4-3.8,0l-21.4-7.9c-0.7-0.2-0.6-0.7,0.2-1.1
			l20.5-6.6c1-0.2,2.1-0.2,3.1-0.1l24.5,6.3C661,345.6,661.3,346.3,660.3,346.5z"/>
		<ellipse id="椭圆_11_11_" class="st6" cx="634.6" cy="345.3" rx="11.3" ry="2.2"/>
	</g>
	<g>
		<g>
			<path class="st0" d="M635.8,329.2c-2.6,0-4.6-2.1-4.6-4.6c0-2.6,2.1-4.6,4.6-4.6c2.6,0,4.6,2.1,4.6,4.6
				C640.5,327.1,638.4,329.2,635.8,329.2z"/>
			<path class="st0" d="M625.9,337.8c0.4-3.4,3.2-6.2,6.8-6.2h6.2c3.6,0,6.5,2.6,6.8,6.2l0,0v1c0,0.9-0.7,1.6-1.6,1.6h-16.5
				c-0.9,0-1.6-0.7-1.6-1.6v-1H625.9z"/>
		</g>
		<g>
			<path class="st0" d="M626.8,328.4c-1.7,0-3.1-1.4-3.1-3.1s1.4-3.1,3.1-3.1s3.1,1.4,3.1,3.1C629.9,326.9,628.5,328.4,626.8,328.4z
				"/>
			<path class="st0" d="M618.2,336.8c0.2-3,2.8-5.4,5.9-5.4h5c-2.3,1.2-3.9,3.6-4.2,6.4l0,0v1.2v0.1h-5.4c-0.7,0-1.5-0.6-1.5-1.5
				L618.2,336.8L618.2,336.8z"/>
		</g>
		<g>
			<path class="st0" d="M644.4,328.7c-1.8,0-3.4-1.5-3.4-3.4c0-1.8,1.5-3.4,3.4-3.4c1.8,0,3.4,1.5,3.4,3.4
				C647.7,327.2,646.2,328.7,644.4,328.7z"/>
			<path class="st0" d="M646.6,339v-1.2l0,0c-0.2-2.8-1.8-5-4.2-6.4h4.6c3.1,0,5.7,2.3,5.9,5.4l0,0v0.9c0,0.7-0.6,1.5-1.5,1.5h-4.9
				C646.6,339.1,646.6,339,646.6,339z"/>
		</g>
	</g>
</g>
<path id="圆角矩形_1_10_" class="st5" d="M287.2,54.3l45.4-11.7c2-0.4,3.9-0.4,5.8,0.2l38.1,12.3c1.7,0.6,1.8,1.4,0.5,2
	l-39.7,14.6c-2.3,0.7-4.8,0.7-7.1,0.1l-43.7-15.4C284.5,55.7,284.9,54.8,287.2,54.3z"/>
<path id="圆角矩形_1_拷贝_10_" class="st3" d="M286.3,78.5l45.4-11.7c2-0.4,3.9-0.4,5.8,0.2l38.1,12.3c1.7,0.6,1.8,1.4,0.5,2
	l-39.9,14.5c-2.3,0.7-4.8,0.7-7.1,0.1l-43.7-15.3C283.6,80,284,79,286.3,78.5z"/>
<ellipse id="椭圆_11_10_" class="st6" cx="334" cy="54" rx="20.9" ry="4.2"/>
<path id="矩形_46_10_" class="st4" d="M285.1,55.4l50.3,17.7v16.7l-50.3-17.7V55.4L285.1,55.4z"/>
<path id="矩形_46_拷贝_10_" class="st4" d="M378.3,56.4l-43.8,16.7v16.7l43.8-16.7V56.4z"/>
<g class="st7">
	<path class="st0" d="M354.4,45.8c0.9,0,1.5-0.6,1.5-1.5V19.2c0-0.9-0.6-1.5-1.5-1.5h-9.5v-1c0-0.6-0.2-1.1-0.9-1.4l-9.4-4.8v-3
		l6.5-2.1c0.6-0.2,1-0.7,1-1.5c0-0.6-0.5-1.2-1-1.5l-7.5-2.5c-0.5-0.2-1-0.1-1.4,0.2c-0.4,0.2-0.6,0.7-0.6,1.2v9l-9.2,4.7
		c-0.6,0.2-0.9,0.7-0.9,1.4v1h-9.7c-0.9,0-1.5,0.6-1.5,1.5V44c0,0.9,0.6,1.5,1.5,1.5L354.4,45.8L354.4,45.8L354.4,45.8z M334.7,4.7
		V3.2l3.3,0.9L334.7,4.7z M313.5,20.6h8.1v22.1h-8.1V20.6L313.5,20.6z M324.7,17.5l8.6-4.3l8.6,4.3v25.2h-17.1V17.5H324.7z
		 M352.7,42.7h-7.9V20.6h7.9V42.7z"/>
	<path class="st0" d="M330.8,20.1h-2.5c-0.9,0-1.5,0.6-1.5,1.5s0.6,1.5,1.5,1.5h2.5c0.9,0,1.5-0.6,1.5-1.5
		C332.5,20.8,331.6,20.1,330.8,20.1z"/>
	<path class="st0" d="M316.6,25.6h2.5c0.9,0,1.5-0.6,1.5-1.5s-0.6-1.5-1.5-1.5h-2.5c-0.9,0-1.5,0.6-1.5,1.5
		C314.9,25,315.6,25.6,316.6,25.6z"/>
	<path class="st0" d="M319.1,27.7h-2.5c-0.9,0-1.5,0.6-1.5,1.5s0.6,1.5,1.5,1.5h2.5c0.9,0,1.5-0.6,1.5-1.5S319.8,27.7,319.1,27.7z"
		/>
	<path class="st0" d="M319.1,32.7h-2.5c-0.9,0-1.5,0.6-1.5,1.5s0.6,1.5,1.5,1.5h2.5c0.9,0,1.5-0.6,1.5-1.5S319.8,32.7,319.1,32.7z"
		/>
	<path class="st0" d="M347.6,25.6h2.5c0.9,0,1.5-0.6,1.5-1.5s-0.6-1.5-1.5-1.5h-2.5c-0.9,0-1.5,0.6-1.5,1.5S346.9,25.6,347.6,25.6z"
		/>
	<path class="st0" d="M347.6,30.6h2.5c0.9,0,1.5-0.6,1.5-1.5s-0.6-1.5-1.5-1.5h-2.5c-0.9,0-1.5,0.6-1.5,1.5S346.9,30.6,347.6,30.6z"
		/>
	<path class="st0" d="M350.1,32.7h-2.5c-0.9,0-1.5,0.6-1.5,1.5s0.6,1.5,1.5,1.5h2.5c0.9,0,1.5-0.6,1.5-1.5
		C351.7,33.4,351.1,32.7,350.1,32.7z"/>
	<path class="st0" d="M338.3,20.1h-2.5c-0.9,0-1.5,0.6-1.5,1.5s0.6,1.5,1.5,1.5h2.5c0.9,0,1.5-0.6,1.5-1.5
		C339.9,20.8,339.1,20.1,338.3,20.1z"/>
	<path class="st0" d="M330.8,25.1h-2.5c-0.9,0-1.5,0.6-1.5,1.5s0.6,1.5,1.5,1.5h2.5c0.9,0,1.5-0.6,1.5-1.5
		C332.5,25.8,331.6,25.1,330.8,25.1z"/>
	<path class="st0" d="M338.3,25.1h-2.5c-0.9,0-1.5,0.6-1.5,1.5s0.6,1.5,1.5,1.5h2.5c0.9,0,1.5-0.6,1.5-1.5
		C339.9,25.8,339.1,25.1,338.3,25.1z"/>
	<path class="st0" d="M330.8,30.2h-2.5c-0.9,0-1.5,0.6-1.5,1.5c0,0.9,0.6,1.5,1.5,1.5h2.5c0.9,0,1.5-0.6,1.5-1.5
		S331.6,30.2,330.8,30.2z"/>
	<path class="st0" d="M338.3,30.2h-2.5c-0.9,0-1.5,0.6-1.5,1.5c0,0.9,0.6,1.5,1.5,1.5h2.5c0.9,0,1.5-0.6,1.5-1.5
		C339.9,30.8,339.1,30.2,338.3,30.2z"/>
</g>
<g>
	<g>
		<rect id="矩形_48_3_" x="97.7" y="276.2" class="st1" width="187.9" height="1.1"/>
		<path id="形状_2_3_" class="st2" d="M285.6,271.8H152.5l-19.7-75.6H53.9"/>
		<path id="形状_2_拷贝_3_" class="st2" d="M285.6,282.8H152.5l-19.7,64.6H53.9"/>
	</g>
	<g>
		<path id="圆角矩形_1_拷贝_9_" class="st3" d="M1.7,203.9l24.5-6.3c1.1-0.2,2.1-0.2,3.1,0.1l20.5,6.6c0.9,0.2,1,0.7,0.2,1.1
			l-21.4,7.9c-1.2,0.4-2.6,0.4-3.8,0l-23.5-8.2C0.2,204.8,0.5,204.1,1.7,203.9z"/>
		<path id="矩形_46_9_" class="st4" d="M0,197l26.2,9.1v3.8L0,200.6V197z"/>
		<path id="矩形_46_拷贝_9_" class="st4" d="M50,197.3l-23.9,9v3.8l23.9-9V197.3z"/>
		<path id="圆角矩形_1_9_" class="st5" d="M1.1,196l24.5-6.3c1.1-0.2,2.1-0.2,3.1,0.1l20.5,6.6c0.9,0.2,1,0.7,0.2,1.1L28,205.3
			c-1.2,0.4-2.6,0.4-3.8,0l-23.5-8.2C-0.4,196.9-0.1,196.3,1.1,196z"/>
		<ellipse id="椭圆_11_9_" class="st6" cx="26.3" cy="195.9" rx="11.3" ry="2.2"/>
	</g>
	<g>
		<g>
			<path class="st0" d="M25.1,179.8c2.6,0,4.6-2.1,4.6-4.6s-2.1-4.6-4.6-4.6c-2.6,0-4.6,2.1-4.6,4.6S22.5,179.8,25.1,179.8z"/>
			<path class="st0" d="M34.9,188.4c-0.4-3.4-3.2-6.2-6.8-6.2H22c-3.6,0-6.5,2.6-6.8,6.2l0,0v1c0,0.9,0.7,1.6,1.6,1.6h16.5
				c0.9,0,1.6-0.7,1.6-1.6L34.9,188.4L34.9,188.4z"/>
		</g>
		<g>
			<path class="st0" d="M34.1,179c1.7,0,3.1-1.4,3.1-3.1s-1.4-3.1-3.1-3.1c-1.7,0-3.1,1.4-3.1,3.1S32.4,179,34.1,179z"/>
			<path class="st0" d="M42.7,187.5c-0.2-3-2.8-5.4-5.9-5.4h-5c2.3,1.2,3.9,3.6,4.2,6.4l0,0v1.2v0.1h5.4c0.7,0,1.5-0.6,1.5-1.5
				L42.7,187.5L42.7,187.5z"/>
		</g>
		<g>
			<path class="st0" d="M16.5,179.3c1.8,0,3.4-1.5,3.4-3.4s-1.5-3.4-3.4-3.4c-1.8,0-3.4,1.5-3.4,3.4S14.6,179.3,16.5,179.3z"/>
			<path class="st0" d="M14.3,189.6v-1.2l0,0c0.2-2.8,1.8-5,4.2-6.4h-4.6c-3.1,0-5.7,2.3-5.9,5.4l0,0v0.9c0,0.7,0.6,1.5,1.5,1.5
				L14.3,189.6C14.3,189.7,14.3,189.7,14.3,189.6z"/>
		</g>
	</g>
	<g>
		<path id="圆角矩形_1_拷贝_8_" class="st3" d="M45.5,283.6l24.5-6.3c1.1-0.2,2.1-0.2,3.1,0.1l20.5,6.6c0.9,0.2,1,0.7,0.2,1.1
			L72.4,293c-1.2,0.4-2.6,0.4-3.8,0l-23.5-8.2C44.1,284.5,44.3,284,45.5,283.6z"/>
		<path id="矩形_46_8_" class="st4" d="M43.8,276.7l26.2,9.1v3.8l-26.2-9.2V276.7z"/>
		<path id="矩形_46_拷贝_8_" class="st4" d="M93.8,277l-23.9,9v3.8l23.9-9V277z"/>
		<path id="圆角矩形_1_8_" class="st5" d="M44.9,275.8l24.5-6.3c1.1-0.2,2.1-0.2,3.1,0.1l20.5,6.6c0.9,0.2,1,0.7,0.2,1.1
			l-21.4,7.9c-1.2,0.4-2.6,0.4-3.8,0L44.5,277C43.4,276.6,43.7,276,44.9,275.8z"/>
		<ellipse id="椭圆_11_8_" class="st6" cx="70.1" cy="275.6" rx="11.3" ry="2.2"/>
	</g>
	<g>
		<g>
			<path class="st0" d="M68.9,259.5c2.6,0,4.6-2.1,4.6-4.6c0-2.6-2.1-4.6-4.6-4.6c-2.6,0-4.6,2.1-4.6,4.6
				C64.4,257.5,66.3,259.5,68.9,259.5z"/>
			<path class="st0" d="M78.8,268.3c-0.4-3.4-3.2-6.2-6.8-6.2h-6.2c-3.6,0-6.5,2.6-6.8,6.2l0,0v1c0,0.9,0.7,1.6,1.6,1.6h16.5
				c0.9,0,1.6-0.7,1.6-1.6L78.8,268.3L78.8,268.3z"/>
		</g>
		<g>
			<path class="st0" d="M77.9,258.8c1.7,0,3.1-1.4,3.1-3.1c0-1.7-1.4-3.1-3.1-3.1s-3.1,1.4-3.1,3.1S76.2,258.8,77.9,258.8z"/>
			<path class="st0" d="M86.5,267.3c-0.2-3-2.8-5.4-5.9-5.4h-5c2.3,1.2,3.9,3.6,4.2,6.4l0,0v1.2v0.1h5.4c0.7,0,1.5-0.6,1.5-1.5
				L86.5,267.3L86.5,267.3z"/>
		</g>
		<g>
			<path class="st0" d="M60.3,259c1.8,0,3.4-1.5,3.4-3.4c0-2-1.5-3.4-3.4-3.4c-1.8,0-3.4,1.5-3.4,3.4C56.8,257.5,58.4,259,60.3,259z
				"/>
			<path class="st0" d="M58.1,269.5v-1.2l0,0c0.2-2.8,1.8-5,4.2-6.4h-4.6c-3.1,0-5.7,2.3-5.9,5.4l0,0v0.9c0,0.7,0.6,1.5,1.5,1.5h4.9
				C58.1,269.5,58.1,269.5,58.1,269.5z"/>
		</g>
	</g>
	<g>
		<path id="圆角矩形_1_拷贝_7_" class="st3" d="M2.8,353l24.5-6.3c1.1-0.2,2.1-0.2,3.1,0.1l20.5,6.6c0.9,0.2,1,0.7,0.2,1.1
			l-21.4,7.9c-1.2,0.4-2.6,0.4-3.8,0l-23.5-8.2C1.4,353.9,1.6,353.3,2.8,353z"/>
		<path id="矩形_46_7_" class="st4" d="M1.1,346.1l26.2,9.1v3.8l-26.2-9.4C1.1,349.7,1.1,346.1,1.1,346.1z"/>
		<path id="矩形_46_拷贝_7_" class="st4" d="M51.1,346.3l-24,9v3.8l23.9-9L51.1,346.3L51.1,346.3z"/>
		<path id="圆角矩形_1_7_" class="st5" d="M2.2,345.2l24.5-6.3c1.1-0.2,2.1-0.2,3.1,0.1l20.5,6.6c0.9,0.2,1,0.7,0.2,1.1
			l-21.4,7.9c-1.2,0.4-2.6,0.4-3.8,0l-23.5-8.2C0.7,346,1,345.4,2.2,345.2z"/>
		<ellipse id="椭圆_11_7_" class="st6" cx="27.4" cy="345" rx="11.3" ry="2.2"/>
	</g>
	<g>
		<g>
			<path class="st0" d="M26.2,328.9c2.6,0,4.6-2.1,4.6-4.6c0-2.6-2.1-4.6-4.6-4.6c-2.6,0-4.6,2.1-4.6,4.6
				C21.5,326.8,23.6,328.9,26.2,328.9z"/>
			<path class="st0" d="M36.1,337.5c-0.4-3.4-3.2-6.2-6.8-6.2h-6.2c-3.6,0-6.5,2.6-6.8,6.2l0,0v1c0,0.9,0.7,1.6,1.6,1.6h16.5
				c0.9,0,1.6-0.7,1.6-1.6L36.1,337.5L36.1,337.5z"/>
		</g>
		<g>
			<path class="st0" d="M35.2,328.2c1.7,0,3.1-1.4,3.1-3.1s-1.4-3.1-3.1-3.1s-3.1,1.4-3.1,3.1C32.1,326.8,33.5,328.2,35.2,328.2z"/>
			<path class="st0" d="M43.8,336.5c-0.2-3-2.8-5.4-5.9-5.4h-5c2.3,1.2,3.9,3.6,4.2,6.4l0,0v1.2v0.1h5.4c0.7,0,1.5-0.6,1.5-1.5
				L43.8,336.5L43.8,336.5z"/>
		</g>
		<g>
			<path class="st0" d="M17.6,328.4c1.8,0,3.4-1.5,3.4-3.4c0-1.8-1.5-3.4-3.4-3.4c-1.8,0-3.4,1.5-3.4,3.4
				C14.3,326.9,15.8,328.4,17.6,328.4z"/>
			<path class="st0" d="M15.4,338.8v-1.2l0,0c0.2-2.8,1.8-5,4.2-6.4H15c-3.1,0-5.7,2.3-5.9,5.4l0,0v0.9c0,0.7,0.6,1.5,1.5,1.5h4.9
				C15.4,338.9,15.4,338.9,15.4,338.8z"/>
		</g>
	</g>
</g>
<path id="圆角矩形_1_拷贝_15_" class="st3" d="M288.3,291.4l45.4-11.7c2-0.4,3.9-0.4,5.8,0.2l38.1,12.3c1.7,0.6,1.8,1.4,0.5,2
	l-39.7,14.6c-2.3,0.7-4.8,0.7-7.1,0.1l-43.7-15.3C285.6,293,286,292,288.3,291.4z"/>
<path id="矩形_46_15_" class="st4" d="M284.4,268.4l50.3,17.7v16.7l-50.3-17.7V268.4z"/>
<path id="矩形_46_拷贝_15_" class="st4" d="M377.5,269.4l-43.8,16.7v16.7l43.8-16.7V269.4z"/>
<path id="圆角矩形_1_15_" class="st5" d="M286.5,267.1l45.4-11.7c2-0.4,3.9-0.4,5.8,0.2l38.1,12.3c1.7,0.6,1.8,1.4,0.5,2
	l-39.7,14.6c-2.3,0.7-4.8,0.7-7.1,0.1l-43.7-15.4C283.7,268.7,284.1,267.8,286.5,267.1z"/>
<ellipse id="椭圆_11_15_" class="st6" cx="330.8" cy="269.5" rx="20.9" ry="1.6"/>
<circle id="椭圆_12_2_" class="st0" cx="333.6" cy="237.7" r="25.1"/>
<polygon id="XMLID_2_" class="st8" points="335.4,231.6 337.9,231.6 337.9,228 343.9,228 343.9,247.7 337.9,247.7 337.9,242 
	342,242 342,233.7 325.3,233.7 325.3,242 329.3,242 329.3,247.7 323.2,247.7 323.2,228 329.3,228 329.3,231.6 331.9,231.6 
	331.9,225.3 320.8,225.3 320.8,250.3 331.9,250.3 331.9,239.6 327.9,239.6 327.9,236.3 339.2,236.3 339.2,239.6 335.4,239.6 
	335.4,250.3 346.4,250.3 346.4,225.3 335.4,225.3 "/>
<g>
	<path d="M295,110.9c-3.3,0.2-7.1,0.3-11.4,0.3l-0.1-1.1c1.8,0,3.5,0,5.1-0.1v-3.8h1.3v3.7c2.6-0.1,4.3-0.1,5.1-0.2L295,110.9z
		 M289.9,101c0,0.9,0.5,1.8,1.5,2.6c1,0.9,2,1.4,3.1,1.6l-0.9,1c-0.9-0.3-1.8-0.8-2.6-1.4c-0.9-0.7-1.4-1.3-1.7-1.8
		c-0.3,0.6-0.8,1.2-1.7,2s-1.7,1.3-2.6,1.6l-0.9-0.9c1.1-0.3,2.2-0.9,3.1-1.8c1-0.9,1.5-1.8,1.5-2.8h-4v-1.1h4v-1.9h1.3v1.9h3.9v1.1
		H289.9z M297.3,97.6v16.6H296V97.6H297.3z"/>
	<path d="M300.9,111.3v-1.2h6.1v-5.4h1.3v5.4h8v1.2H300.9z M313.5,108.1l-1.2-0.1c0.2-1.8,0.3-3.5,0.3-5.1v-2.6h-9.4v-1.2h10.6v3.8
		C313.8,104.7,313.7,106.4,313.5,108.1z"/>
	<path d="M318.5,105.4v-1.1H330c0.1-1.1,0.2-2.7,0.2-4.8h-9.1v-1.2h10.4c0,2.7-0.1,4.7-0.2,6h2.7v1.1H318.5z M321.2,113.8v-6.7h1.3
		v2.3h7.7v-2.3h1.3v6.7H321.2z M330.1,110.6h-7.7v2.1h7.7V110.6z"/>
	<path d="M351.3,110.2c-0.8-0.6-1.6-1.5-2.4-2.5s-1.3-2-1.5-2.8c-0.2,0.8-0.7,1.7-1.5,2.8c-0.8,1.1-1.6,2-2.5,2.7l-1-0.9
		c1.2-0.8,2.2-1.9,3.1-3.4s1.2-2.9,1.2-4.2v-1.7h-3.7v-1.1h8.6v1.1H348v1.7c0,1.3,0.4,2.7,1.2,4.1s1.8,2.5,3,3.2L351.3,110.2z
		 M355.2,105.5v8.7H354V97.6h1.3v6.7h2.9v1.1H355.2z"/>
	<path d="M368.7,107c-0.7-0.4-1.5-1-2.3-1.8c-0.8-0.8-1.3-1.5-1.6-2.2c-0.3,0.7-0.8,1.5-1.6,2.4c-0.8,0.9-1.6,1.5-2.3,2l-0.9-0.9
		c1.2-0.6,2.2-1.4,3-2.5s1.3-2.3,1.3-3.5v-2.1h1.2v2.1c0,1.1,0.4,2.2,1.2,3.3c0.8,1.1,1.8,1.8,2.9,2.3L368.7,107z M362.9,113.7v-5.2
		h1.3v4h9.3v1.2H362.9z M372.9,104v5.7h-1.3V97.6h1.3v5.2h2.5v1.1H372.9z"/>
</g>
</svg>
