<?xml version="1.0" encoding="utf-8"?>
<!-- Generator: Adobe Illustrator 23.0.0, SVG Export Plug-In . SVG Version: 6.00 Build 0)  -->
<svg version="1.1" id="租金分红" xmlns="http://www.w3.org/2000/svg" xmlns:xlink="http://www.w3.org/1999/xlink" x="0px"
	 y="0px" viewBox="0 0 1072 186" style="enable-background:new 0 0 1072 186;" xml:space="preserve">
<style type="text/css">
	.st0{fill:none;stroke:#90A7AB;}
	.st1{fill:#9FE7DD;stroke:#34B9A1;stroke-width:2;}
	.st2{fill:none;stroke:#456E68;stroke-width:1.5;stroke-miterlimit:10;}
	.st3{enable-background:new    ;}
	.st4{fill:#456E68;}
</style>
<g id="组_29">
	<path id="形状_1" class="st0" d="M122.8,82.9h132.5l-4.8-5.5"/>
	<path id="形状_1_拷贝_6" class="st0" d="M255.1,103.1H122.8l4.8,5.5"/>
</g>
<path id="形状_1_拷贝_7" class="st0" d="M786.9,88.4h132.5l-4.8-5.5"/>
<g id="组_29_拷贝">
	<path id="形状_1-2" class="st0" d="M489.3,81h132.5l-4.8-5.5"/>
	<path id="形状_1_拷贝_6-2" class="st0" d="M621.6,101.3H489.3l4.8,5.5"/>
</g>
<circle id="椭圆_6" class="st1" cx="377.3" cy="93" r="91.8"/>
<g>
	<circle class="st2" cx="56" cy="65.3" r="15.3"/>
	<line class="st2" x1="43.7" y1="89.3" x2="56" y2="103.3"/>
	<line class="st2" x1="68" y1="89.3" x2="56" y2="103.3"/>
	<line class="st2" x1="56" y1="117.3" x2="56" y2="103.3"/>
	<path class="st2" d="M88.9,109.3v3.3c0,3-2.5,5.5-5.5,5.5H28.6c-3,0-5.5-2.5-5.5-5.5v-3.3"/>
	<path class="st2" d="M28.6,103.8"/>
	<path class="st2" d="M23.1,110.8c0-12.4,10.2-21.9,22.6-21.9h20.6c12.4,0,22.5,10.1,22.5,22.5l0,0"/>
</g>
<g class="st3">
	<path class="st4" d="M740.7,50h-10v10h10V50z M737.4,56.6h-3.3v-3.3h3.3V56.6z"/>
	<path class="st4" d="M754,50h-10v10h10V50z M750.7,56.6h-3.3v-3.3h3.3V56.6z"/>
	<path class="st4" d="M740.7,63.3h-10v10h10V63.3z M737.4,69.9h-3.3v-3.3h3.3V69.9z"/>
	<path class="st4" d="M754,63.3h-10v10h10V63.3z M750.7,69.9h-3.3v-3.3h3.3V69.9z"/>
	<path class="st4" d="M740.7,86.5v-10h-10v10H740.7z M734.1,79.9h3.3v3.3h-3.3V79.9z"/>
	<path class="st4" d="M754,76.6h-10v10h10V76.6z M750.7,83.2h-3.3v-3.3h3.3V83.2z"/>
	<path class="st4" d="M764,46.7v-3.3h-3.3v-6.6h-3.3v-6.6h-29.9v6.6h-3.3v6.6h-3.3v3.3h3.3v43.2h-13.3v-20h3.3V60h-3.3v-2.5
		l-23.3-16.1l-10,6.9v-5.1h-10v12l-3.3,2.3V60H661v10h3.3v20.3c-1.9,0.7-3.3,2.5-3.3,4.6v3.3c0,2.7,2.3,5,5,5h32.4
		c-2.6,3.2-4.2,7.2-4.2,11.6c0,10.1,8.2,18.3,18.3,18.3s18.3-8.1,18.3-18.2c0-4.4-1.5-8.4-4.2-11.6H759c2.7,0,5-2.3,5-5V95
		c0-2.1-1.4-4-3.3-4.6V46.7H764z M730.8,33.4H754v3.3h-23.3L730.8,33.4L730.8,33.4z M727.5,40h29.9v3.3h-29.9V40z M671,46.4h3.3v4.2
		l-3.3,2.3V46.4z M667.6,59.3l19.9-13.8l19.9,13.8v0.8h-39.9L667.6,59.3L667.6,59.3z M664.3,63.3h46.5v3.3h-46.5V63.3z M707.5,69.9
		v19.9h-13.3V73.3h-13.3v16.6h-13.3v-20H707.5z M690.9,89.9h-6.6V76.6h6.6V89.9z M712.5,129.7c-8.2,0-15-6.8-15-15s6.8-15,15-15
		s15,6.8,15,15C727.5,123.1,720.8,129.7,712.5,129.7z M760.7,98.2c0,0.9-0.7,1.7-1.7,1.7h-36.1c-3-2.1-6.5-3.3-10.4-3.3
		s-7.5,1.2-10.4,3.3H666c-0.9,0-1.7-0.7-1.7-1.7v-3.3c0-0.9,0.7-1.7,1.7-1.7h93c0.9,0,1.7,0.7,1.7,1.7V98.2z M757.4,89.9h-29.9V46.7
		h29.9V89.9z"/>
</g>
<g class="st3">
	<g>
		<g>
			<path class="st4" d="M964,53h-12.6c-0.9,0-1.6,0.7-1.6,1.6V61c0,0.9,0.7,1.6,1.6,1.6H964c0.9,0,1.6-0.7,1.6-1.6v-6.4
				C965.4,53.7,964.9,53,964,53z M955.9,59.4h-3.1v-3.1h3.1V59.4z M962.3,59.4h-3.1v-3.1h3.1V59.4z"/>
		</g>
	</g>
	<g>
		<g>
			<path class="st4" d="M964,65.6h-12.6c-0.9,0-1.6,0.7-1.6,1.6v6.4c0,0.9,0.7,1.6,1.6,1.6H964c0.9,0,1.6-0.7,1.6-1.6v-6.4
				C965.4,66.3,964.9,65.6,964,65.6z M955.9,72h-3.1v-3.1h3.1V72z M962.3,72h-3.1v-3.1h3.1V72z"/>
		</g>
	</g>
	<g>
		<g>
			<path class="st4" d="M964,78.4h-12.6c-0.9,0-1.6,0.7-1.6,1.6v6.2c0,0.9,0.7,1.6,1.6,1.6H964c0.9,0,1.6-0.7,1.6-1.6v-6.4
				C965.4,79,964.9,78.4,964,78.4z M955.9,84.6h-3.1v-3.1h3.1V84.6z M962.3,84.6h-3.1v-3.1h3.1V84.6z"/>
		</g>
	</g>
	<g>
		<g>
			<path class="st4" d="M1021,53h-12.6c-0.9,0-1.6,0.7-1.6,1.6V61c0,0.9,0.7,1.6,1.6,1.6h12.6c0.9,0,1.6-0.7,1.6-1.6v-6.4
				C1022.5,53.7,1021.9,53,1021,53z M1013,59.4h-3.1v-3.1h3.1V59.4z M1019.3,59.4h-3.1v-3.1h3.1V59.4z"/>
		</g>
	</g>
	<g>
		<g>
			<path class="st4" d="M1021,40.4h-12.6c-0.9,0-1.6,0.7-1.6,1.6v6.4c0,0.9,0.7,1.6,1.6,1.6h12.6c0.9,0,1.6-0.7,1.6-1.6V42
				C1022.5,40.9,1021.9,40.4,1021,40.4z M1013,46.6h-3.1v-3.1h3.1V46.6z M1019.3,46.6h-3.1v-3.1h3.1V46.6z"/>
		</g>
	</g>
	<g>
		<g>
			<path class="st4" d="M983,59.4h-6.4c-0.9,0-1.6,0.7-1.6,1.6v6.4c0,0.9,0.7,1.6,1.6,1.6h6.4c0.9,0,1.6-0.7,1.6-1.6V61
				C984.5,60,983.9,59.4,983,59.4z M981.3,65.6h-3.1v-3.1h3.1V65.6z"/>
		</g>
	</g>
	<g>
		<g>
			<path class="st4" d="M995.6,59.4h-6.4c-0.9,0-1.6,0.7-1.6,1.6v6.4c0,0.9,0.7,1.6,1.6,1.6h6.4c0.9,0,1.6-0.7,1.6-1.6V61
				C997.2,60,996.5,59.4,995.6,59.4z M994,65.6h-3.1v-3.1h3.1V65.6z"/>
		</g>
	</g>
	<g>
		<g>
			<path class="st4" d="M983,46.6h-6.4c-0.9,0-1.6,0.7-1.6,1.6v6.4c0,0.9,0.7,1.6,1.6,1.6h6.4c0.9,0,1.6-0.7,1.6-1.6v-6.4
				C984.5,47.3,983.9,46.6,983,46.6z M981.3,53h-3.1v-3.1h3.1V53z"/>
		</g>
	</g>
	<g>
		<g>
			<path class="st4" d="M995.6,46.6h-6.4c-0.9,0-1.6,0.7-1.6,1.6v6.4c0,0.9,0.7,1.6,1.6,1.6h6.4c0.9,0,1.6-0.7,1.6-1.6v-6.4
				C997.2,47.3,996.5,46.6,995.6,46.6z M994,53h-3.1v-3.1h3.1V53z"/>
		</g>
	</g>
	<g>
		<g>
			<path class="st4" d="M983,34h-6.4c-0.9,0-1.6,0.7-1.6,1.6V42c0,0.9,0.7,1.6,1.6,1.6h6.4c0.9,0,1.6-0.7,1.6-1.6v-6.4
				C984.5,34.7,983.9,34,983,34z M981.3,40.4h-3.1v-3.1h3.1V40.4z"/>
		</g>
	</g>
	<g>
		<g>
			<path class="st4" d="M995.6,34h-6.4c-0.9,0-1.6,0.7-1.6,1.6V42c0,0.9,0.7,1.6,1.6,1.6h6.4c0.9,0,1.6-0.7,1.6-1.6v-6.4
				C997.2,34.7,996.5,34,995.6,34z M994,40.4h-3.1v-3.1h3.1V40.4z"/>
		</g>
	</g>
	<g>
		<g>
			<path class="st4" d="M983,78.4h-6.4c-0.9,0-1.6,0.7-1.6,1.6v6.2c0,0.9,0.7,1.6,1.6,1.6h6.4c0.9,0,1.6-0.7,1.6-1.6v-6.4
				C984.5,79,983.9,78.4,983,78.4z M981.3,84.6h-3.1v-3.1h3.1V84.6z"/>
		</g>
	</g>
	<g>
		<g>
			<rect x="949.7" y="91" class="st4" width="3.1" height="3.1"/>
		</g>
	</g>
	<g>
		<g>
			<rect x="955.9" y="91" class="st4" width="3.1" height="3.1"/>
		</g>
	</g>
	<g>
		<g>
			<rect x="962.3" y="91" class="st4" width="3.1" height="3.1"/>
		</g>
	</g>
	<g>
		<g>
			<path class="st4" d="M1036.7,72h-7.9V35.6c0-0.9-0.7-1.6-1.6-1.6h-11.1v-2.5l1.6-1.6c1.3,1,3,1.6,4.6,1.6c2.1,0,4-0.7,5.5-2.2
				l0.3-0.3c0.6-0.6,0.6-1.6,0-2.2l-3.6-3.6l3.6-3.6l-2.2-2.2l-3.6,3.6l-5.2-5.2c-0.3-0.3-0.7-0.4-1.2-0.4c-0.6,0-1,0.3-1.3,0.6
				c-1.6,1.5-2.5,3.4-2.5,5.5s0.7,4.3,2.4,5.8l0.7,0.7l-2.1,2.1c-0.3,0.3-0.4,0.7-0.4,1.2v3.1h-9.5v-5c0-0.9-0.7-1.6-1.6-1.6H996
				l-9.1-12c-0.6-0.7-1.9-0.7-2.5,0l-9.1,12h-5.5c-0.9,0-1.6,0.7-1.6,1.6v17.4h-9.5V34h-3.1v12.6h-11.1c-0.9,0-1.6,0.7-1.6,1.6v60.1
				c0,0.9,0.7,1.6,1.6,1.6h25.4H981h12.6h1.6h9.5h25.4c4.3,0,7.9-3.6,7.9-7.9V73.6C1038.4,72.7,1037.6,72,1036.7,72z M968.7,106.9
				h-22.1v-57h22.1V106.9z M1016.2,18.8l8.6,8.6c-1.8,1-4.2,0.9-5.8-0.7l-2.2-2.2c-0.9-0.9-1.5-2.1-1.3-3.4
				C1015.6,20.3,1015.8,19.6,1016.2,18.8z M986.1,19.1l6.4,8.5h-12.6L986.1,19.1z M979.7,94.1v12.6h-7.9V48.2V30.9h28.5v4.8v28.5
				h3.1v-27h22.1V72h-3.1v-1.6c0-2.7-2.1-4.8-4.8-4.8h-9.5c-2.7,0-4.8,2.1-4.8,4.8V72H989c-0.9,0-1.6,0.7-1.6,1.6V91h-12.6v3.1
				H979.7z M1019.3,70.4V72h-12.6v-1.6c0-0.9,0.7-1.6,1.6-1.6h9.5C1018.6,68.9,1019.3,69.5,1019.3,70.4z M983,106.9V94.3h4.8v7.9
				c0,1.8,0.6,3.4,1.6,4.8H983V106.9z M1035.2,102.1c0,2.7-2.1,4.8-4.8,4.8H1005h-9.5c-2.7,0-4.8-2.1-4.8-4.8V86.2
				c1.3,1,3,1.6,4.8,1.6h1.6v4.8c0,0.9,0.7,1.6,1.6,1.6h6.4c0.9,0,1.6-0.7,1.6-1.6v-4.8h1.6h9.5h1.6v4.8c0,0.9,0.7,1.6,1.6,1.6h6.4
				c0.9,0,1.6-0.7,1.6-1.6v-4.8h1.6c1.8,0,3.4-0.6,4.8-1.6v15.9H1035.2z M1000.3,91v-3.1h3.1V91H1000.3z M1009.8,84.6v-3.1h6.4v3.1
				H1009.8z M1022.5,91v-3.1h3.1V91H1022.5z M1035.2,79.9c0,2.7-2.1,4.8-4.8,4.8h-3.1h-6.4h-1.6v-4.8c0-0.9-0.7-1.6-1.6-1.6h-9.5
				c-0.9,0-1.6,0.7-1.6,1.6v4.8h-1.6h-6.4h-3.1c-2.7,0-4.8-2.1-4.8-4.8v-4.8h44.4L1035.2,79.9L1035.2,79.9z"/>
		</g>
	</g>
	<g>
		<g>
			<rect x="1028.9" y="100.5" class="st4" width="3.1" height="3.1"/>
		</g>
	</g>
	<g>
		<g>
			<rect x="1022.5" y="100.5" class="st4" width="3.1" height="3.1"/>
		</g>
	</g>
	<g>
		<g>
			<rect x="1016.2" y="100.5" class="st4" width="3.1" height="3.1"/>
		</g>
	</g>
</g>
<g>
	<path class="st4" d="M706.7,122.5v-1.8c1.9-0.6,2.9-1.8,2.9-3.7v-2.2H707V113h2.6v-3c0-1.5,0.4-2.8,1.4-3.7c1-1,2.2-1.5,3.6-1.5
		c1,0,1.9,0.1,2.8,0.6v2.1c-0.8-0.6-1.8-0.7-2.6-0.7c-1.9,0-2.9,1.2-2.9,3.6v2.8h3.9v1.8h-4v1.8c0,1.9-0.8,3.2-2.3,4.1h8.9v1.8
		h-11.7V122.5z"/>
</g>
<g class="st3">
	<path class="st4" d="M17.7,146.9c-1.3,0.1-3.1,0.1-4.4,0.4c-0.5,0.1-0.5,0.3-0.8,0.3c-0.4,0-2.5-0.8-2.5-1.1c0-0.1,0.1-0.1,0.2-0.1
		c0.1,0,0.3,0,0.5,0.1c0.6,0.1,1.5,0.1,2.5,0.1c3.2,0,7.6-0.2,9.8-0.4c0.7-0.1,0.6-0.3,1.2-0.3c0.3,0,0.7,0.1,1.5,0.2
		c0.4,0.1,0.5,0.3,0.5,0.5c0,0.2-0.2,0.4-0.5,0.4c-0.1,0-0.1,0-0.1,0c-1.3-0.1-2.3-0.1-3.8-0.1c-0.8,0-1.7,0-2.9,0.1
		c0,2.3,0,5.9-0.3,6.8c-0.2,0.5-0.3,0.7-0.5,0.7c-0.2,0-0.3-0.3-0.3-0.9V146.9z M13.4,139.4c0-0.2-0.6-0.4-1.2-0.6
		c-0.2,0-0.4-0.1-0.4-0.2c0-0.1,0.2-0.2,0.7-0.2c1.4,0.1,2,0.2,2.3,0.3c0.5,0,0.9,0,1.4,0c1.1,0,2.1,0,3.7-0.1
		c0.8-0.1,0.6-0.4,1.7-0.4c0.4,0,1.3,0,1.3,0.5c0,0.2-0.2,0.4-0.6,0.4c-1.3,0.1-5.9,0.2-7.4,0.2c-0.2,0.1-0.3,0-0.3,0.2v1.9
		c1.4,0,3.7,0,4.9-0.1c1-0.1,0.6-0.4,1.8-0.4c0.5,0,1.2,0.1,1.2,0.5c0,0.2-0.2,0.4-0.6,0.4c-2,0.1-6.9,0.1-7.4,0.1v1.6
		c0,0.6,0.1,0.6,2.1,0.6c1,0,2.1,0,3.1-0.1c0.9-0.1,0.6-0.4,1.6-0.4c0.8,0,1.6,0.1,1.6,0.5c0,0.2-0.3,0.4-0.6,0.4l-7.8,0
		c-0.7,0-1-0.5-1.1-1.2L13.4,139.4z"/>
	<path class="st4" d="M35.2,140.8c0.3-0.1,0.3-0.1,0.8-0.1c1,0,1.1,0.1,1.1,0.2s-0.3,0.4-0.5,0.7c-0.7,1.2-1.8,2.8-2.4,3.6
		c0.4,0.4,1.2,1,1.6,1.3c0.7,0.5,0.9,0.2,1.8,1.5c0.3,0.4,0.4,0.7,0.4,0.9c0,0.3-0.1,0.4-0.3,0.4c-0.2,0-0.3-0.1-0.5-0.3
		c-0.5-0.6-1.5-1.7-3.2-3.4c-2.2,2.4-5.5,4.6-6,4.6c-0.1,0-0.1,0-0.1,0c0-0.1,0.1-0.2,0.4-0.4c2.2-1.5,5.5-4.4,7.3-8.3
		c-1,0-3.3,0.2-3.8,0.2c-0.5,0.1-0.5,0.3-0.8,0.3c-0.4,0-1.8-0.7-1.8-0.9c0-0.1,0.1-0.1,0.2-0.1c0.1,0,0.2,0,0.3,0
		c0.5,0.1,1.2,0.1,1.9,0.1C32.7,141,34.7,140.9,35.2,140.8z M39.7,138.8c0-0.3-1-0.7-1.7-1.1c-0.2-0.1-0.3-0.2-0.3-0.2
		c0-0.1,0.2-0.2,0.8-0.2c0.8,0.1,1.5,0.3,2.1,0.5c0.4,0.1,0.5,0.3,0.5,0.5c0,0.1-0.1,0.3-0.1,0.6v6.6h0.9c0.8-0.1,0.6-0.5,1.7-0.5
		c0.3,0,1.1,0,1.1,0.6c0,0.3-0.2,0.5-0.6,0.5h-3.1l0,5.2c0,1.2-0.1,1.9-0.5,2.7c-0.1,0.2-0.3,0.3-0.4,0.3c-0.2,0-0.3-0.2-0.3-0.8
		V138.8z"/>
	<path class="st4" d="M53.2,140.8c0.3-0.1,0.3-0.1,0.8-0.1c1,0,1.1,0.1,1.1,0.2s-0.3,0.4-0.5,0.7c-0.7,1.2-1.8,2.8-2.4,3.6
		c0.4,0.4,1.2,1,1.6,1.3c0.7,0.5,0.9,0.2,1.8,1.5c0.3,0.4,0.4,0.7,0.4,0.9c0,0.3-0.1,0.4-0.3,0.4c-0.2,0-0.3-0.1-0.5-0.3
		c-0.5-0.6-1.5-1.7-3.2-3.4c-2.2,2.4-5.5,4.6-6,4.6c-0.1,0-0.1,0-0.1,0c0-0.1,0.1-0.2,0.4-0.4c2.2-1.5,5.5-4.4,7.3-8.3
		c-1,0-3.3,0.2-3.8,0.2c-0.5,0.1-0.5,0.3-0.8,0.3c-0.4,0-1.8-0.7-1.8-0.9c0-0.1,0.1-0.1,0.2-0.1c0.1,0,0.2,0,0.3,0
		c0.5,0.1,1.2,0.1,1.9,0.1C50.7,141,52.7,140.9,53.2,140.8z M57.7,138.8c0-0.3-1-0.7-1.7-1.1c-0.2-0.1-0.3-0.2-0.3-0.2
		c0-0.1,0.2-0.2,0.8-0.2c0.8,0.1,1.5,0.3,2.1,0.5c0.4,0.1,0.5,0.3,0.5,0.5c0,0.1-0.1,0.3-0.1,0.6v6.6h0.9c0.8-0.1,0.6-0.5,1.7-0.5
		c0.3,0,1.1,0,1.1,0.6c0,0.3-0.2,0.5-0.6,0.5h-3.1l0,5.2c0,1.2-0.1,1.9-0.5,2.7c-0.1,0.2-0.3,0.3-0.4,0.3c-0.2,0-0.3-0.2-0.3-0.8
		V138.8z"/>
	<path class="st4" d="M80.6,138.1c-2.1,1.7-3.4,4.4-3.4,7.7c0,3.3,1.4,5.9,3.4,7.7v0.3c-3.2-1.8-4.5-4.6-4.5-8c0-3.3,1.4-6.2,4.5-8
		V138.1z"/>
	<path class="st4" d="M97.2,151.7c-1.4-0.1-3.4-0.2-5.6-0.2c-3.1,0-4.7,0.1-6.2,0.3c-0.5,0.1-0.7,0.3-1.2,0.3c-0.4,0-0.9-0.2-2-0.8
		c-0.3-0.1-0.4-0.2-0.4-0.3c0-0.1,0.1-0.1,0.2-0.1c0.1,0,0.2,0,0.4,0.1c0.9,0.2,2.2,0.2,3.7,0.2c1,0,2.2,0,3.4-0.1c0-0.3,0-1-0.1-4
		c-0.7,0-1.5,0-2.5,0c-1.1,0-1.7-0.5-1.7-1.3l-0.1-5c0-0.4-0.6-0.6-1.3-0.9c-0.2,0-0.4-0.1-0.4-0.3c0-0.2,0.5-0.3,0.7-0.3
		c0.8,0,1.9,0.2,2.4,0.4c1.4,0,3.6-0.1,5.8-0.1c0.9-0.2,0.6-0.5,2-0.5c1.3,0,1.4,0.4,1.4,0.6c0,0.2-0.2,0.4-0.6,0.4
		c-3,0.1-6.8,0.2-8.4,0.3c-0.2,0.1-0.3,0-0.3,0.3v2.5c1.5,0,3.4-0.1,6-0.1c0.8-0.1,0.2-0.4,1.9-0.5c0.6,0,0.8,0.2,0.8,0.4
		s-0.3,0.4-0.6,0.5c-1.2,0.1-5.7,0.1-8,0.2v2.3c0,0.6,0.2,0.6,1.5,0.6c1.4,0,2.7,0,4.5-0.1c1.1-0.1,0.5-0.5,2.2-0.5
		c0.4,0,1.1,0,1.1,0.5c0,0.2-0.3,0.5-0.7,0.5c-1.3,0.1-2.6,0.1-4.4,0.1c0,2.5,0,3.2,0,4c0.8,0,2.3-0.1,3.9-0.1
		c0.7,0,0.6-0.3,1.4-0.3c0.4,0,2.1,0.1,2.1,0.7C98,151.5,97.7,151.7,97.2,151.7L97.2,151.7z"/>
	<path class="st4" d="M112.8,145.4c0.8-0.1,0.6-0.4,1.6-0.4c0.6,0,1.7,0,1.7,0.6c0,0.2-0.2,0.4-0.6,0.4c-0.4,0-2,0-2.4,0
		c-3.7,0-7.6,0.2-9.3,0.4c-0.8,0.1-0.9,0.4-1.3,0.4c-0.5,0-2.4-0.8-2.4-1.1c0-0.1,0.1-0.1,0.2-0.1c0.1,0,0.2,0,0.4,0.1
		c0.7,0.1,1.8,0.2,3.2,0.2c2,0,4.6-0.1,7.3-0.3c0.2-0.7,0.5-2.1,0.7-3.5c-2.3,0.4-4.5,0.8-6.7,1.1c-0.5,0.1-0.5,0.4-0.8,0.4
		c-0.4,0-2.6-0.8-2.6-1.1c0-0.1,0.1-0.1,0.2-0.1c0.1,0,0.2,0,0.4,0c0.4,0,1,0.1,1.5,0.1c3,0,7-0.5,8.1-0.7c0.1-0.5,0.2-1.6,0.2-2.2
		c-1.7,0.1-4.7,0.1-6.8,0.3c-0.5,0.1-0.5,0.3-0.8,0.3c-0.3,0-2.1-0.7-2.1-1c0-0.1,0.1-0.1,0.2-0.1c0.1,0,0.2,0,0.3,0
		c0.9,0.2,2.3,0.2,3.7,0.2c2.1,0,4.3-0.1,4.9-0.2c0.6-0.1,0.3-0.2,1-0.2c1.1,0,1.3,0.1,1.3,0.3c0,0.1-0.3,0.4-0.4,0.6
		c-0.6,2.2-1.1,4.1-1.8,5.9h0.3L112.8,145.4z M103.7,149.8c0-0.3-0.5-0.5-1.4-0.8c-0.2-0.1-0.3-0.1-0.3-0.2c0-0.1,0.2-0.2,0.6-0.3
		c0.8,0,1.6,0.1,1.9,0.1c0.3,0.1,0.4,0.2,0.4,0.3c0,0.1-0.1,0.3-0.1,0.5c0,0.8,0,1.8,0,2.5c0,0.4,0.3,0.5,0.9,0.6l3.9,0
		c1.3-0.1,0.7-0.5,2.3-0.5c0.4,0,1.4,0,1.4,0.6c0,0.2-0.2,0.4-0.5,0.4h-7.1c-1.2,0-1.9-0.3-1.9-1.2L103.7,149.8z"/>
	<path class="st4" d="M130.6,148c0-0.2-0.3-0.4-1-0.6c-0.3-0.1-0.5-0.2-0.5-0.3c0-0.1,0.4-0.2,0.7-0.2c0.5,0,1.2,0.1,1.5,0.1
		c0.4,0.1,0.5,0.2,0.5,0.4s-0.1,0.3-0.1,0.5l-0.1,3.1c0.7,0,3.2,0,4.2-0.1c0.7-0.1,0.6-0.4,1.4-0.4c0.3,0,1.9,0,1.9,0.6
		c0,0.2-0.2,0.4-0.6,0.4h-0.1c-1.6,0-4.3-0.1-7.4-0.1c-1.2,0-4.2,0.2-5,0.2c-0.4,0.1-0.5,0.3-0.8,0.3c-0.3,0-0.7-0.2-1.8-0.7
		c-0.3-0.1-0.5-0.3-0.5-0.4c0-0.1,0.1-0.1,0.2-0.1c0.1,0,0.2,0,0.4,0c0.8,0.1,2.1,0.2,3.6,0.2c1.1,0,2.3,0,3.5-0.1L130.6,148z
		 M129.5,139.3c-0.1-0.1-0.3-0.2-0.3-0.3s0.2-0.2,0.6-0.2c0.8,0.2,1.4,0.4,2.3,1c0.1,0.1,0.2,0.2,0.2,0.3c0,0.3-1.2,1.9-1.4,2.2
		c0.8,0.5,1.9,1,2.7,1.3c1.3,0.5,0.8-0.4,3.6,1.5c0.4,0.3,0.6,0.6,0.6,0.8c0,0.2-0.1,0.3-0.4,0.3c-0.2,0-0.4-0.1-0.6-0.2
		c-1.3-0.7-4.3-2.1-6.2-3.3c-2.8,3-6.5,4.3-6.9,4.3c-0.1,0-0.1,0-0.1-0.1c0-0.1,0.1-0.2,0.5-0.3c2.6-1.1,5.7-4,6.7-6.2
		C130.7,140.1,130.2,139.7,129.5,139.3z"/>
	<path class="st4" d="M145.8,146.5c-0.3,0-0.8,0.1-1.5,0.1c-0.6,0.1-0.7,0.3-1,0.3c-0.4,0-2.3-0.9-2.3-1.1c0-0.1,0.1-0.1,0.2-0.1
		c0.1,0,0.3,0,0.5,0.1c0.6,0.1,1.9,0.2,3.4,0.2c3,0,7-0.2,8.5-0.3c1-0.1,0.8-0.3,1.8-0.3c0.6,0,1.8,0,1.8,0.6c0,0.2-0.3,0.5-0.8,0.5
		h0c-0.9,0-2.1-0.1-3.7-0.1h-0.4c0,2.6,0,6-0.3,7.1c-0.1,0.5-0.3,0.8-0.5,0.8c-0.2,0-0.3-0.3-0.3-0.9v-6.8c-0.6,0-2.9,0.1-4.1,0.1
		c0,3.8,0,5-0.4,6.2c-0.2,0.4-0.4,0.6-0.5,0.6c-0.2,0-0.3-0.3-0.3-1L145.8,146.5z M148.3,138.3c0.2,0,0.4-0.1,0.4-0.3
		c0-0.1-0.1-0.2-0.2-0.3c-0.2-0.1-0.2-0.2-0.2-0.3s0.1-0.1,0.2-0.1c0.4,0,1.2,0.3,1.2,0.5c0,0.1-0.2,0.5-0.2,0.5
		c2.1,0.4,3.1,1.7,3.1,3.1c0,1.5-1.3,3-3.6,3c-2.4,0-3.8-1.5-3.8-3.1C145.2,140,146.2,138.7,148.3,138.3z M146.3,141.4
		c0,1.2,0.9,2.3,2.7,2.3c1.7,0,2.5-1.2,2.5-2.3c0-1.2-0.8-2.4-2.5-2.4C147.2,139.1,146.3,140.2,146.3,141.4z"/>
	<path class="st4" d="M166.2,140.8c0.3-0.1,0.3-0.1,0.8-0.1c1,0,1.1,0.1,1.1,0.2s-0.3,0.4-0.5,0.7c-0.7,1.2-1.8,2.8-2.4,3.6
		c0.4,0.4,1.2,1,1.6,1.3c0.7,0.5,0.9,0.2,1.8,1.5c0.3,0.4,0.4,0.7,0.4,0.9c0,0.3-0.1,0.4-0.3,0.4c-0.2,0-0.3-0.1-0.5-0.3
		c-0.5-0.6-1.5-1.7-3.2-3.4c-2.2,2.4-5.5,4.6-6,4.6c-0.1,0-0.1,0-0.1,0c0-0.1,0.1-0.2,0.4-0.4c2.2-1.5,5.5-4.4,7.3-8.3
		c-1,0-3.3,0.2-3.8,0.2c-0.5,0.1-0.5,0.3-0.8,0.3c-0.4,0-1.8-0.7-1.8-0.9c0-0.1,0.1-0.1,0.2-0.1c0.1,0,0.2,0,0.3,0
		c0.5,0.1,1.2,0.1,1.9,0.1C163.7,141,165.7,140.9,166.2,140.8z M170.7,138.8c0-0.3-1-0.7-1.7-1.1c-0.2-0.1-0.3-0.2-0.3-0.2
		c0-0.1,0.2-0.2,0.8-0.2c0.8,0.1,1.5,0.3,2.1,0.5c0.4,0.1,0.5,0.3,0.5,0.5c0,0.1-0.1,0.3-0.1,0.6v6.6h0.9c0.8-0.1,0.6-0.5,1.7-0.5
		c0.3,0,1.1,0,1.1,0.6c0,0.3-0.2,0.5-0.6,0.5h-3.1l0,5.2c0,1.2-0.1,1.9-0.5,2.7c-0.1,0.2-0.3,0.3-0.4,0.3c-0.2,0-0.3-0.2-0.3-0.8
		V138.8z"/>
	<path class="st4" d="M176.4,153.4c2.1-1.8,3.4-4.3,3.4-7.7c0-3.3-1.4-6-3.4-7.7v-0.3c3.2,1.8,4.5,4.6,4.5,8c0,3.4-1.3,6.2-4.5,8
		V153.4z"/>
</g>
<g class="st3">
	<path class="st4" d="M581.9,152.6v-12.9h1.7v5.3h6.7v-5.3h1.7v12.9h-1.7v-6.1h-6.7v6.1H581.9z"/>
	<path class="st4" d="M594.1,147.9c0-1.7,0.5-3,1.4-3.8c0.8-0.7,1.8-1,2.9-1c1.3,0,2.3,0.4,3.1,1.3s1.2,2,1.2,3.5
		c0,1.2-0.2,2.1-0.5,2.8c-0.4,0.7-0.9,1.2-1.6,1.6s-1.4,0.6-2.3,0.6c-1.3,0-2.4-0.4-3.2-1.3S594.1,149.5,594.1,147.9z M595.7,147.9
		c0,1.2,0.3,2.1,0.8,2.7c0.5,0.6,1.2,0.9,2,0.9c0.8,0,1.4-0.3,2-0.9s0.8-1.5,0.8-2.7c0-1.2-0.3-2-0.8-2.6c-0.5-0.6-1.2-0.9-2-0.9
		c-0.8,0-1.4,0.3-2,0.9S595.7,146.7,595.7,147.9z"/>
	<path class="st4" d="M610.8,152.6v-1.4c-0.7,1.1-1.7,1.6-3,1.6c-0.6,0-1.1-0.1-1.5-0.3s-0.8-0.5-1.1-0.8s-0.4-0.7-0.5-1.2
		c-0.1-0.3-0.1-0.8-0.1-1.5v-5.8h1.6v5.2c0,0.8,0,1.4,0.1,1.7c0.1,0.4,0.3,0.7,0.6,1c0.3,0.2,0.7,0.4,1.2,0.4s0.9-0.1,1.3-0.4
		s0.7-0.6,0.9-1c0.2-0.4,0.3-1,0.3-1.8v-5h1.6v9.3H610.8z"/>
	<path class="st4" d="M614,149.8l1.6-0.2c0.1,0.6,0.3,1.1,0.7,1.4s1,0.5,1.7,0.5c0.7,0,1.3-0.1,1.6-0.4s0.5-0.6,0.5-1
		c0-0.4-0.2-0.6-0.5-0.8c-0.2-0.1-0.8-0.3-1.6-0.5c-1.2-0.3-2-0.5-2.4-0.8s-0.8-0.5-1-0.9c-0.2-0.4-0.3-0.8-0.3-1.3
		c0-0.4,0.1-0.8,0.3-1.2c0.2-0.4,0.4-0.6,0.8-0.9c0.2-0.2,0.6-0.3,1-0.5s0.9-0.2,1.4-0.2c0.7,0,1.4,0.1,1.9,0.3s1,0.5,1.2,0.9
		c0.3,0.4,0.4,0.8,0.5,1.4l-1.5,0.2c-0.1-0.5-0.3-0.9-0.6-1.1s-0.8-0.4-1.4-0.4c-0.7,0-1.2,0.1-1.6,0.4s-0.5,0.5-0.5,0.8
		c0,0.2,0.1,0.4,0.2,0.6c0.1,0.2,0.3,0.3,0.6,0.4c0.2,0.1,0.6,0.2,1.4,0.4c1.1,0.3,1.9,0.5,2.3,0.7s0.8,0.5,1,0.8s0.4,0.8,0.4,1.4
		c0,0.5-0.2,1-0.5,1.5c-0.3,0.5-0.8,0.8-1.3,1.1c-0.6,0.3-1.2,0.4-2,0.4c-1.2,0-2.1-0.3-2.8-0.8S614.2,150.8,614,149.8z"/>
	<path class="st4" d="M630.1,149.6l1.6,0.2c-0.3,1-0.7,1.7-1.4,2.2s-1.6,0.8-2.7,0.8c-1.4,0-2.4-0.4-3.2-1.3c-0.8-0.8-1.2-2-1.2-3.5
		c0-1.6,0.4-2.8,1.2-3.7s1.9-1.3,3.1-1.3c1.2,0,2.3,0.4,3.1,1.3s1.2,2,1.2,3.6c0,0.1,0,0.2,0,0.4h-7c0.1,1,0.3,1.8,0.9,2.4
		s1.2,0.8,2,0.8c0.6,0,1.1-0.2,1.5-0.5S629.8,150.3,630.1,149.6z M624.9,147h5.2c-0.1-0.8-0.3-1.4-0.6-1.8c-0.5-0.6-1.2-0.9-2-0.9
		c-0.7,0-1.3,0.2-1.8,0.7S624.9,146.2,624.9,147z"/>
	<path class="st4" d="M637.2,152.6v-11.4h-4.2v-1.5h10.2v1.5h-4.3v11.4H637.2z"/>
	<path class="st4" d="M642.1,147.9c0-1.7,0.5-3,1.4-3.8c0.8-0.7,1.8-1,2.9-1c1.3,0,2.3,0.4,3.1,1.3s1.2,2,1.2,3.5
		c0,1.2-0.2,2.1-0.5,2.8c-0.4,0.7-0.9,1.2-1.6,1.6s-1.4,0.6-2.3,0.6c-1.3,0-2.4-0.4-3.2-1.3S642.1,149.5,642.1,147.9z M643.7,147.9
		c0,1.2,0.3,2.1,0.8,2.7c0.5,0.6,1.2,0.9,2,0.9c0.8,0,1.4-0.3,2-0.9s0.8-1.5,0.8-2.7c0-1.2-0.3-2-0.8-2.6c-0.5-0.6-1.2-0.9-2-0.9
		c-0.8,0-1.4,0.3-2,0.9S643.7,146.7,643.7,147.9z"/>
	<path class="st4" d="M652.7,152.6v-12.9h1.6v7.3l3.7-3.8h2l-3.6,3.5l3.9,5.9h-2l-3.1-4.8l-1.1,1.1v3.7H652.7z"/>
	<path class="st4" d="M668.1,149.6l1.6,0.2c-0.3,1-0.7,1.7-1.4,2.2s-1.6,0.8-2.7,0.8c-1.4,0-2.4-0.4-3.2-1.3c-0.8-0.8-1.2-2-1.2-3.5
		c0-1.6,0.4-2.8,1.2-3.7s1.9-1.3,3.1-1.3c1.2,0,2.3,0.4,3.1,1.3s1.2,2,1.2,3.6c0,0.1,0,0.2,0,0.4h-7c0.1,1,0.3,1.8,0.9,2.4
		s1.2,0.8,2,0.8c0.6,0,1.1-0.2,1.5-0.5S667.8,150.3,668.1,149.6z M662.9,147h5.2c-0.1-0.8-0.3-1.4-0.6-1.8c-0.5-0.6-1.2-0.9-2-0.9
		c-0.7,0-1.3,0.2-1.8,0.7S662.9,146.2,662.9,147z"/>
	<path class="st4" d="M671.7,152.6v-9.3h1.4v1.3c0.7-1,1.7-1.5,3-1.5c0.6,0,1.1,0.1,1.6,0.3c0.5,0.2,0.8,0.5,1.1,0.8
		s0.4,0.7,0.5,1.2c0.1,0.3,0.1,0.8,0.1,1.5v5.7h-1.6v-5.7c0-0.6-0.1-1.1-0.2-1.4s-0.3-0.6-0.7-0.8c-0.3-0.2-0.7-0.3-1.1-0.3
		c-0.7,0-1.3,0.2-1.7,0.6s-0.7,1.2-0.7,2.4v5.1H671.7z"/>
	<path class="st4" d="M706.1,144.4c-3,0-10.2,0.2-11.1,0.3c-0.5,0.1-0.6,0.3-0.9,0.3c-0.4,0-2.4-0.8-2.4-1.1c0-0.1,0.1-0.1,0.2-0.1
		c0.1,0,0.2,0,0.3,0c1.3,0.2,2.9,0.2,4.7,0.2c1.7,0,3.5-0.1,5.7-0.1c0.6-2,0.8-3.4,1-4.6c-2.3,0-5.5,0.1-6.7,0.2
		c-0.6,0.1-0.7,0.3-1,0.3c-0.4,0-1.9-0.7-1.9-1c0-0.1,0.1-0.1,0.2-0.1c0.1,0,0.2,0,0.4,0.1c0.8,0.1,1.9,0.2,3.2,0.2
		c1.5,0,3.3-0.1,5.2-0.2c0.5,0,0.5-0.2,1-0.2c0.1,0,0.3,0,0.6,0.1c0.5,0.1,0.7,0.2,0.7,0.3c0,0.2-0.3,0.4-0.4,0.6
		c-0.3,1.3-1,3-1.5,4.3c0.3,0,0.6,0,1,0c1.3,0,1-0.5,2.1-0.5c0.2,0,1.5,0,1.5,0.6c0,0.2-0.3,0.4-0.8,0.4H706.1z M696.8,147.5
		c-0.6,0.1-0.7,0.2-1,0.2c-0.4,0-1.7-0.6-1.7-0.8c0-0.1,0.1-0.1,0.2-0.1c0,0,0.1,0,0.1,0c0.8,0.1,1.9,0.1,3.1,0.1
		c1.5,0,3.2-0.1,4.6-0.2c0.4,0,0.3-0.1,0.8-0.1c0.5,0,1.1,0.1,1.1,0.3c0,0.1-0.2,0.3-0.3,0.5c-0.3,1-0.5,1.7-0.6,2
		c0.5,0.1,0.8,0.3,0.8,0.4c0,0.1-0.2,0.3-0.6,0.3l-6.7,0.1c-0.2,0.1-0.3,0.1-0.3,0.3v1.7c0,0.3,0.2,0.4,0.6,0.4l4.7,0
		c1.1-0.1,0.7-0.5,1.9-0.5c1.1,0,1.4,0.4,1.4,0.6c0,0.2-0.2,0.4-0.6,0.4H697c-0.9,0-1.5-0.3-1.5-1v-1.6c-0.1-0.2-0.7-0.5-1-0.6
		c-0.2-0.1-0.4-0.1-0.4-0.2c0-0.1,0.1-0.1,0.5-0.2c1.1,0,2,0.2,2.2,0.3l4.5-0.1c0.6,0,0.7-0.1,1.3-0.2l0.1-2.2L696.8,147.5z"/>
	<path class="st4" d="M724.7,151.7c-1.4-0.1-3.4-0.2-5.6-0.2c-3.1,0-4.7,0.1-6.2,0.3c-0.5,0.1-0.7,0.3-1.2,0.3c-0.4,0-0.9-0.2-2-0.8
		c-0.3-0.1-0.4-0.2-0.4-0.3c0-0.1,0.1-0.1,0.2-0.1c0.1,0,0.2,0,0.4,0.1c0.9,0.2,2.2,0.2,3.7,0.2c1,0,2.2,0,3.4-0.1
		c0-0.3,0-1-0.1-4.1c-1,0-1.7,0.1-2.4,0.1c-0.8,0-1.4-0.3-1.4-1.1l0-1.9c-0.1-0.3-0.7-0.5-1.3-0.7c-0.1,0-0.3-0.1-0.3-0.2
		s0.2-0.3,0.9-0.3c0.7,0,1.3,0.1,1.9,0.2c1,0,3.5-0.2,4.9-0.3c0.6,0,0.6-0.1,1.2-0.2c0.1-0.5,0.2-1.7,0.2-2.7
		c-1.5,0.1-4.1,0.3-6.2,0.4c-0.6,0.1-0.6,0.3-0.9,0.3c-0.3,0-1.9-0.7-1.9-0.9c0-0.1,0.1-0.1,0.2-0.1c0.1,0,0.1,0,0.2,0
		c0.8,0.1,1.7,0.1,2.6,0.1c1.6,0,3.4-0.1,5.2-0.3c0.5-0.1,0.5-0.2,1.2-0.2c0.8,0,1.2,0.1,1.2,0.3s-0.4,0.5-0.5,0.7
		c-0.2,0.6-0.5,1.7-0.7,2.3c0.5,0,0.8,0.2,0.8,0.4c0,0.1-0.1,0.2-0.5,0.2c-2.5,0.1-4.9,0.2-6.8,0.3c-0.2,0.1-0.4-0.1-0.4,0.2v0.1
		c0,0.3,0,1.3,0,2.3c0,0.3,0.1,0.4,0.5,0.4c1.3,0,3-0.1,4.8-0.2c1-0.1,0.6-0.5,1.9-0.5c0.5,0,1.2,0,1.2,0.4c0,0.2-0.3,0.4-0.6,0.4
		c-1.6,0.1-2.8,0.2-4,0.2c0,2.6,0,3.3,0,4.1c0.8,0,2.3-0.1,3.9-0.1c0.7,0,0.6-0.3,1.4-0.3c0.4,0,2.1,0.1,2.1,0.7
		C725.5,151.5,725.3,151.7,724.7,151.7L724.7,151.7z"/>
	<path class="st4" d="M740,142.5c-0.9,0-1.5,0.1-2,0.1c-0.5,0-0.6,0.2-0.9,0.2c-0.2,0-0.5-0.1-0.9-0.3c0,1.4-0.1,2.7-0.2,3
		c-0.2,0.3-0.4,0.6-0.6,0.6c-0.1,0-0.3-0.2-0.3-0.8l-4.6,0.1c-0.2,0.7-0.5,1.1-0.7,1.1c-0.2,0-0.3-0.2-0.3-0.7c0-0.3,0-4.2-0.1-5.1
		c0-0.3,0-0.4-1.2-0.8c-0.2-0.1-0.3-0.1-0.3-0.2c0-0.1,0.2-0.2,0.6-0.3c1.8,0.1,2.1,0.3,2.1,0.5c0,0.1-0.1,0.2-0.1,0.4v1.4l4.5-0.1
		v-1.7c0-0.3-0.4-0.5-1.1-0.8c-0.2-0.1-0.4-0.2-0.4-0.3c0-0.1,0.2-0.2,0.6-0.2c1.7,0.2,2,0.4,2,0.6c0,0.1,0,0.3,0,0.4
		c0,0.7,0,1.5,0,2.3c0.2,0,0.4,0,0.7,0c0.9,0,2.2-0.1,3-0.1v-3c-0.1-0.4-0.9-0.8-1.6-1.1c-0.3-0.1-0.4-0.2-0.4-0.3
		c0-0.1,0.2-0.2,0.6-0.2c0.2,0,2.6,0.4,2.6,0.9c0,0.1-0.1,0.2-0.1,0.5l0,5.8c0,2.5-0.7,2.8-0.8,2.8c-0.2,0-0.3-0.3-0.3-1.2V142.5z
		 M730.7,142.2v2.8l4.5-0.1v-2.8L730.7,142.2z M733.2,151.1c0-0.2-0.4-0.3-1-0.5c-0.2-0.1-0.3-0.1-0.3-0.2c0,0,0.2-0.2,0.8-0.2
		c0.8,0,1.6,0.1,1.8,0.2c1.7,0,2.7,0,4.4-0.1c0.4,0,0.6-0.1,1-0.2c0-0.3,0.1-1.3,0.2-2.2c-1.2,0-3.6,0.1-5.3,0.2
		c-0.5,0.1-0.6,0.3-0.9,0.3c-0.4,0-1.8-0.6-1.8-0.8c0-0.1,0.1-0.1,0.3-0.1c0.1,0,0.2,0,0.3,0c0.6,0.1,1.5,0.1,2.5,0.1
		c1.5,0,3.2-0.1,4.6-0.2c0.3-0.1,0.3-0.1,0.7-0.1c0.1,0,0.2,0,0.4,0c0.5,0,0.7,0.1,0.7,0.3c0,0.1-0.2,0.3-0.3,0.5
		c-0.2,0.5-0.5,1.3-0.6,1.9c0.5,0.1,0.7,0.3,0.7,0.4c0,0.1-0.2,0.3-0.6,0.3c-1.4,0-4.1,0.1-6,0.1c-0.2,0.1-0.3,0.1-0.3,0.3v1.6
		c0,0.3,0.2,0.4,0.5,0.4c0.4,0,0.9,0,1.5,0c0.9,0,2,0,3.1,0c1.1-0.1,0.7-0.5,1.9-0.5c0.5,0,1.4,0,1.4,0.5c0,0.2-0.2,0.4-0.6,0.4
		h-7.2c-1.3,0-1.6-0.5-1.6-1V151.1z"/>
	<path class="st4" d="M758,146.4c-1.3,0-3.3,0.1-4.3,0.2c-0.5,0.1-0.5,0.4-0.9,0.4c-0.5,0-2.5-0.9-2.5-1.2c0-0.1,0.1-0.1,0.2-0.1
		c0.1,0,0.2,0,0.4,0.1c1.2,0.1,2.6,0.2,4.1,0.2c2.7,0,5.7-0.1,8-0.3c1-0.1,0.7-0.4,1.5-0.4c0.5,0,1.9,0,1.9,0.6
		c0,0.2-0.2,0.4-0.6,0.5c-1.1,0-2.1-0.1-3.3-0.1c-1,0-2.1,0-3.4,0.1c0,4.3,0,5.9-0.4,7.1c-0.2,0.4-0.3,0.6-0.5,0.6
		c-0.2,0-0.3-0.3-0.3-1V146.4z M755.4,144c-0.1,0.5-0.4,0.9-0.7,0.9c-0.2,0-0.3-0.3-0.3-0.7c0-0.4,0-4.1-0.1-4.6
		c0-0.3-0.1-0.5-1.2-0.8c-0.2-0.1-0.4-0.1-0.4-0.2c0-0.1,0.2-0.2,0.6-0.3c1.9,0.1,2.1,0.3,2.1,0.6c0,0.1,0,0.3,0,0.3v1.2l5.9-0.1
		v-1.4c0-0.2-0.4-0.5-1.1-0.7c-0.2-0.1-0.4-0.2-0.4-0.3c0-0.1,0.2-0.2,0.6-0.2c1.8,0.2,2.1,0.4,2.1,0.7c0,0.1,0,0.2,0,0.4
		c0,1.6,0,4.7-0.3,5.3c-0.1,0.3-0.4,0.6-0.6,0.6c-0.1,0-0.3-0.2-0.3-0.7L755.4,144z M755.5,140.8v2.6l5.9-0.1v-2.6L755.5,140.8z"/>
	<path class="st4" d="M771.9,139.3c-0.1-0.4-0.6-0.6-1.3-0.8c-0.2,0-0.2-0.1-0.2-0.1c0-0.1,0.2-0.2,0.5-0.2c0.9,0,1.8,0.2,2.3,0.4
		c1.4,0,3.1,0,4.8-0.1c1.4-0.1,0.8-0.5,2.2-0.5c0.4,0,1.3,0,1.3,0.5c0,0.2-0.3,0.4-0.8,0.4c-1.9,0.1-5.5,0.1-7.3,0.1
		c-0.1,0.1-0.2,0-0.2,0.3c0,0.7,0,2,0,2.8c0.1,0.6,0.1,0.6,2,0.6c1,0,2,0,3.5-0.1c1-0.1,0.5-0.5,2.2-0.5c0.6,0,0.9,0.2,0.9,0.5
		c0,0.2-0.3,0.5-0.7,0.5c-0.6,0-2.8,0.1-3.8,0.1c0,1.1,0,2-0.2,2.7c1.4-0.1,2.9-0.2,4.1-0.3c0.8-0.1,0.7-0.3,1.4-0.3
		c0.3,0,0.7,0,1.4,0.1c0.5,0.1,0.7,0.3,0.7,0.5c0,0.2-0.2,0.4-0.6,0.4h-0.1c-0.8,0-2.2-0.1-3.7-0.1c-2.5,0-5.6,0.1-8.1,0.4
		c-0.8,0.1-0.9,0.4-1.3,0.4c-0.5,0-2.4-0.8-2.4-1.2c0-0.1,0.1-0.1,0.2-0.1c0.1,0,0.2,0,0.3,0c0.9,0.1,2.2,0.2,3.6,0.2
		c1.2,0,2.4-0.1,3.5-0.1c-0.1-0.8-0.1-2-0.1-2.7l0,0h-2.2c-1.4,0-1.8-0.4-1.8-1.2L771.9,139.3z M776.4,147.8c0-0.1-0.1-0.3-0.2-0.5
		c-0.1-0.1-0.2-0.2-0.2-0.2c0-0.1,0.1-0.1,0.2-0.1c0.4,0,1.2,0.4,1.2,0.6c0,0.2-0.2,0.3-0.3,0.5c2,0.4,2.9,1.6,2.9,2.9
		c0,1.5-1.3,2.9-3.5,2.9s-3.5-1.4-3.5-2.9c0-1.3,1-2.6,3.1-2.9C776.3,148,776.4,147.9,776.4,147.8z M774.1,150.9
		c0,1.1,0.8,2.2,2.5,2.2c1.7,0,2.5-1.1,2.5-2.2c0-1.1-0.8-2.2-2.5-2.2C774.9,148.6,774.1,149.7,774.1,150.9z"/>
	<path class="st4" d="M786.6,146.4c3.4-2.2,5.2-5.4,5.2-5.7s-0.2-0.6-1-1.2c-0.3-0.1-0.4-0.3-0.4-0.3c0-0.1,0.2-0.1,0.4-0.1
		c0.1,0,0.2,0,0.3,0c0.4,0.1,2.2,0.9,2.2,1.4c0,0.3-0.4,0.8-1.1,1.9c0.5,0.6,0.9,0.9,1.4,1.4c1,0.7,0.9,0,2.2,1.8
		c0.1,0.2,0.1,0.4,0.1,0.5c0,0.3-0.2,0.4-0.4,0.4c-0.1,0-0.3-0.1-0.4-0.2c-0.9-1-2.5-2.6-3.3-3.5c-1.6,1.8-3,2.9-5.1,3.9
		c-0.2,0.1-0.4,0.1-0.5,0.1c-0.1,0-0.1,0-0.1-0.1C786.2,146.7,786.3,146.6,786.6,146.4z M792.1,149.7c0-0.3-0.4-0.5-1.4-0.8
		c-0.2-0.1-0.3-0.1-0.3-0.2c0-0.1,0.2-0.2,0.6-0.3c0.8,0,1.6,0.1,1.9,0.1c0.3,0.1,0.4,0.2,0.4,0.3c0,0.1,0,0.3-0.1,0.5
		c0,0.8,0,1.9,0,2.5c0,0.4,0.3,0.6,0.9,0.6l3.3,0c1.4-0.1,0.7-0.5,2.3-0.5c0.6,0,1.4,0.1,1.4,0.6c0,0.2-0.2,0.4-0.5,0.4h-6.5
		c-1.2,0-1.9-0.3-1.9-1.2L792.1,149.7z M798.2,139c0-0.2-0.5-0.5-1.5-1c-0.3-0.1-0.4-0.2-0.4-0.3c0-0.1,0.2-0.2,0.6-0.2
		c0.1,0,2.5,0.3,2.5,0.9c0,0.1-0.1,0.3-0.1,0.5l0,5.7c0.3,0,0.5,0,0.8,0c0.8-0.2,0.5-0.5,1.8-0.5c0.4,0,1,0,1,0.5
		c0,0.2-0.2,0.5-0.5,0.5l-3.2,0.1c0,3.3-0.1,4.1-0.3,4.6c-0.2,0.3-0.4,0.6-0.5,0.6s-0.3-0.2-0.3-0.8V139z"/>
	<path class="st4" d="M822,143.2c-0.9,0.1-1.5,0.1-1.9,0.1c-0.4,0.1-0.5,0.3-0.7,0.3c-0.2,0-0.5-0.1-0.9-0.3
		c-0.3-0.1-0.4-0.2-0.5-0.3c-0.4,1.2-0.9,2.6-1.2,3.3c0.6-0.1,1.8-0.4,3-0.7c0.2-0.1,0.4-0.1,0.5-0.1c0.1,0,0.1,0,0.1,0.1
		c0,0.1-0.2,0.2-0.5,0.3c-2.2,0.9-5.4,1.6-6.6,1.8c-0.5,0.1-0.5,0.3-0.8,0.3c-0.3,0-2.5-0.8-2.5-1.2c0-0.1,0.1-0.1,0.2-0.1
		c0.1,0,0.2,0,0.4,0.1c0.4,0.1,0.9,0.1,1.5,0.1c1.2,0,2.7-0.2,4-0.4c0.2-0.8,0.5-2.1,0.7-3.9c0-0.4-0.3-0.6-0.8-0.9
		c-0.2-0.1-0.3-0.2-0.3-0.3c0-0.1,0.2-0.1,0.6-0.2c0.1,0,2,0.4,2,0.8c0,0-0.3,0.7-0.3,0.7c0.1,0,1.4,0.1,1.5,0.1
		c0.8,0,1.8-0.1,2.5-0.1v-3.6c0-0.4-0.9-0.8-1.5-1.1c-0.3-0.1-0.5-0.2-0.5-0.3c0-0.1,0.2-0.2,0.6-0.2c0.9,0.1,1.8,0.4,2.2,0.5
		c0.3,0.2,0.4,0.3,0.4,0.4c0,0.1-0.1,0.2-0.1,0.4l0,7c-0.1,2.4-0.1,3.4-0.5,4c-0.1,0.2-0.2,0.3-0.3,0.3c-0.2,0-0.3-0.3-0.3-1.2
		V143.2z M818.6,139.6c0.7,0,1,0.2,1,0.4c0,0.2-0.4,0.5-1.1,0.5c-2.1,0-3.6,0.1-5.1,0.3c-0.5,0.1-0.6,0.2-0.9,0.2
		c-0.4,0-1.7-0.6-1.7-0.8c0-0.1,0.1-0.1,0.2-0.1c0.1,0,0.2,0,0.3,0.1c0.8,0.1,1.4,0.1,2.1,0.1c1.4,0,2.2-0.1,3.3-0.2
		c1-0.1,0.6-0.4,1.6-0.4H818.6z M814.3,145.1c-0.2,0.5-0.4,0.8-0.6,0.8c-0.2,0-0.4-0.2-0.4-0.6c-0.1-0.5-0.3-1.8-1-3
		c-0.1-0.1-0.1-0.3-0.1-0.4c0-0.1,0-0.1,0.1-0.1c0.3,0,2.1,1.9,2.1,2.9L814.3,145.1z M815.2,149.9c0-0.4-0.4-0.5-1.4-0.8
		c-0.2,0-0.3-0.1-0.3-0.2s0.1-0.2,0.6-0.3c0.8,0,1.6,0.1,1.9,0.1c0.3,0.1,0.4,0.2,0.4,0.3c0,0.1-0.1,0.3-0.1,0.5c0,0.8,0,1.8,0,2.4
		c0,0.4,0.2,0.6,0.9,0.6l3.8,0c1.4-0.1,0.7-0.5,2.3-0.5c0.6,0,1.3,0.1,1.3,0.6c0,0.2-0.2,0.4-0.5,0.4h-7c-1.2,0-1.9-0.3-1.9-1.2
		L815.2,149.9z"/>
	<path class="st4" d="M840,151c0.8-0.1,0.7-0.4,1.6-0.4c0.4,0,1.9,0.1,1.9,0.6c0,0.2-0.2,0.4-0.6,0.4h-0.1c-1.5-0.1-3.4-0.1-5-0.1
		c-2.3,0-4.6,0.1-7,0.2c-0.6,0.1-0.7,0.4-1,0.4c-0.3,0-2.4-0.8-2.4-1.2c0-0.1,0.1-0.1,0.2-0.1c0.1,0,0.2,0,0.4,0.1
		c0.7,0.2,2,0.3,3.5,0.3c2.2,0,4.9-0.1,7.7-0.2L840,151z M830.9,140.8c0-0.3-0.7-0.6-1.4-0.9c-0.2,0-0.3-0.1-0.3-0.2
		c0-0.1,0.2-0.2,0.6-0.2c1.1,0.1,2,0.3,2.4,0.5l5-0.1c2-0.1,0.9-0.6,2.9-0.6h0.2c0.5,0,0.8,0.3,0.8,0.5c0,0.2-0.3,0.5-0.8,0.5
		c-2.8,0.1-6.1,0.1-7.8,0.1c-0.2,0.1-0.4,0-0.4,0.4v4c0,0.7,0,0.7,2.5,0.7c1.1,0,2.3,0,3.4-0.1c1.2,0,0.8-0.5,2.4-0.5
		c0.9,0,1.1,0.4,1.1,0.5c0,0.2-0.3,0.5-0.7,0.5c-0.8,0.1-3.9,0.1-6,0.1c-1.1,0-2,0-2.3,0c-0.6,0-1.4-0.4-1.4-1.3L830.9,140.8z"/>
	<path class="st4" d="M625.1,159.7c-2.1,1.7-3.4,4.4-3.4,7.7c0,3.3,1.3,5.9,3.4,7.7v0.3c-3.2-1.8-4.5-4.6-4.5-8c0-3.3,1.4-6.2,4.5-8
		V159.7z"/>
	<path class="st4" d="M639.4,166.7c0.7-0.1,0.6-0.3,1.4-0.3c1,0,1.8,0.1,1.8,0.5c0,0.2-0.3,0.5-0.7,0.5h0c-1,0-2.7-0.1-4.2-0.1
		c-1,0-1.8,0-2.3,0.1c0.1,1.1-0.5,2.5-0.8,2.5c-0.2,0-0.3-0.3-0.3-0.8v-1.7c-1.2,0-3,0.1-4,0.1c-0.8,0.1-0.8,0.4-1.2,0.4
		c-0.5,0-2.4-0.8-2.4-1.1c0-0.1,0.1-0.1,0.2-0.1c0.1,0,0.2,0,0.3,0.1c0.7,0.1,1.9,0.2,3.4,0.2c2.2,0,5.1-0.1,8.2-0.3L639.4,166.7z
		 M637.8,170.3c-1.1,0.1-4,0.2-6,0.3c-0.7,0-0.8,0.3-1.2,0.3c-0.5,0-1.9-0.7-1.9-0.9c0-0.1,0.1-0.1,0.3-0.1c0.1,0,0.1,0,0.3,0
		c0.7,0.1,1.6,0.1,2.7,0.1c1.7,0,3.6-0.1,5.1-0.2c0.5,0,0.4-0.2,1-0.2h0.2c0.7,0,0.9,0.1,0.9,0.3c0,0.1-0.2,0.3-0.2,0.6
		c0,2.3,0,3.4-0.3,4.5c-0.1,0.5-0.4,0.8-0.6,0.8c-0.2,0-0.3-0.2-0.3-0.6V170.3z M630.3,163.5c0-0.2-0.4-0.4-1.1-0.6
		c-0.2,0-0.3-0.1-0.3-0.1c0-0.1,0.2-0.2,0.6-0.3c0.8,0,1.5,0.1,2,0.2c1.4,0,3.4-0.1,4.9-0.2c0.5,0,0.5-0.1,1-0.2
		c0.1-0.4,0.1-0.7,0.1-1.9c-2.1,0-4.4,0.1-5.9,0.2c-0.5,0.1-0.6,0.3-0.9,0.3c-0.3,0-1.9-0.7-1.9-1c0-0.1,0.1-0.1,0.2-0.1
		c0.1,0,0.2,0,0.3,0c0.6,0.1,1.6,0.2,2.7,0.2c1.6,0,3.5-0.1,4.6-0.1c0.7-0.1,0.4-0.2,1.4-0.2c0.5,0,1.1,0.1,1.1,0.3
		c0,0.2-0.3,0.4-0.5,0.6c-0.3,0.7-0.5,1.2-0.6,1.7c0.5,0.1,0.7,0.3,0.7,0.4c0,0.2-0.5,0.2-0.7,0.2c-2,0-4.8,0.1-6.5,0.2
		c-0.2,0.1-0.3,0-0.3,0.3c0,1.7,0.1,1.7,0.8,1.7c0.8,0,2.4-0.1,4.2-0.1c1.2-0.1,0.8-0.5,2.3-0.5h0c0.7,0,1,0.3,1,0.5
		c0,0.2-0.2,0.4-0.5,0.4c-2.3,0.1-5.5,0.2-7.6,0.2c-0.9,0-1.4-0.4-1.4-1L630.3,163.5z"/>
	<path class="st4" d="M645.4,168.9c3.2-2.7,4.5-5.8,4.5-6.1c0-0.2-0.3-0.5-0.9-0.9c-0.3-0.2-0.4-0.3-0.4-0.4c0-0.1,0.1-0.1,0.3-0.1
		c0.5,0,0.8,0.1,2.1,0.5c0.3,0.1,0.4,0.3,0.4,0.4c0,0.2-0.8,2-1.4,2.8c0.2,0.3,0.5,0.5,1,0.9c0.5,0.4,0.6-0.1,1.3,1.3
		c0.1,0.3,0.2,0.5,0.2,0.6c0,0.2-0.1,0.3-0.3,0.3c-0.1,0-0.3-0.1-0.4-0.2c-0.6-0.7-1.2-1.5-2.2-2.6c-1.7,2.1-4.2,3.7-4.5,3.7
		c0,0-0.1,0-0.1-0.1C645.1,169.1,645.2,169,645.4,168.9z M651.3,175.1c-0.1-0.6-0.1-3-0.3-4.3c0-0.3-0.1-0.4-1-0.7
		c-0.2-0.1-0.4-0.1-0.4-0.2c0-0.1,0.1-0.2,0.6-0.2c0.7,0,1.6,0.2,2,0.3c0.8,0,3.9-0.1,4.8-0.2c0.4,0,0.2-0.2,0.8-0.2
		c0.1,0,1.1,0,1.1,0.3c0,0.1-0.3,0.4-0.3,0.6c-0.2,1.2-0.6,2.8-0.7,3.5c0.5,0.1,0.8,0.3,0.8,0.4c0,0.1-0.2,0.3-0.5,0.3
		c-1.2,0-4.8,0.1-6,0.1c-0.1,0.7-0.4,1.1-0.6,1.1C651.5,175.8,651.3,175.6,651.3,175.1z M654.6,161.7c0-0.5-0.7-0.8-1.3-1.1
		c-0.2-0.1-0.4-0.2-0.4-0.3s0.2-0.2,0.6-0.2c0.4,0.1,1.2,0.3,1.6,0.4c0.4,0.2,0.5,0.3,0.5,0.5c0,0.1-0.1,0.2-0.1,0.4v4.8
		c0,1.9-0.4,2.7-0.7,2.7c-0.2,0-0.3-0.5-0.4-1.4v-2.2l-1.4,0.1c-0.4,0.1-0.5,0.3-0.6,0.3c-0.2,0-1.3-0.4-1.3-0.6
		c0-0.1,0-0.1,0.6-0.1c1.2,0,1.9,0,2.7-0.1V161.7z M656.2,174.2c0.5-0.1,0.6-0.1,1.1-0.2c0-0.8,0.1-2.9,0.1-3.8
		c-1,0.1-3.8,0.1-5.2,0.2c-0.1,0.1-0.2,0.1-0.2,0.3l0.1,3.6L656.2,174.2z M657.6,160.6c0-0.3-0.7-0.8-1.4-1.2
		c-0.3-0.1-0.4-0.2-0.4-0.3s0.2-0.2,0.6-0.2c0.9,0.1,1.6,0.4,2,0.5c0.3,0.1,0.4,0.3,0.4,0.4c0,0.1-0.1,0.3-0.1,0.5l0,5.3
		c0,2.2-0.5,3-0.8,3c-0.2,0-0.3-0.2-0.3-1.1V160.6z"/>
	<path class="st4" d="M670,168c-1.3,0-3.3,0.1-4.3,0.2c-0.5,0.1-0.5,0.4-0.9,0.4c-0.5,0-2.5-0.9-2.5-1.2c0-0.1,0.1-0.1,0.2-0.1
		c0.1,0,0.2,0,0.4,0.1c1.2,0.1,2.6,0.2,4.1,0.2c2.7,0,5.7-0.1,8-0.3c1-0.1,0.7-0.4,1.5-0.4c0.5,0,1.9,0,1.9,0.6
		c0,0.2-0.2,0.4-0.6,0.5c-1.1,0-2.1-0.1-3.3-0.1c-1,0-2.1,0-3.4,0.1c0,4.3,0,5.9-0.4,7.1c-0.2,0.4-0.3,0.6-0.5,0.6
		c-0.2,0-0.3-0.3-0.3-1V168z M667.4,165.6c-0.1,0.5-0.4,0.9-0.7,0.9c-0.2,0-0.3-0.3-0.3-0.7c0-0.4,0-4.1-0.1-4.6
		c0-0.3-0.1-0.5-1.2-0.8c-0.2-0.1-0.4-0.1-0.4-0.2c0-0.1,0.2-0.2,0.6-0.3c1.9,0.1,2.1,0.3,2.1,0.6c0,0.1,0,0.3,0,0.3v1.2l5.9-0.1
		v-1.4c0-0.2-0.4-0.5-1.1-0.7c-0.2-0.1-0.4-0.2-0.4-0.3c0-0.1,0.2-0.2,0.6-0.2c1.8,0.2,2.1,0.4,2.1,0.7c0,0.1,0,0.2,0,0.4
		c0,1.6,0,4.7-0.3,5.3c-0.1,0.3-0.4,0.6-0.6,0.6c-0.1,0-0.3-0.2-0.3-0.7L667.4,165.6z M667.4,162.4v2.6l5.9-0.1v-2.6L667.4,162.4z"
		/>
	<path class="st4" d="M692.9,172.5c0.7,0,0.6-0.4,1.6-0.4c0.5,0,2,0.1,2,0.7c0,0.2-0.2,0.4-0.6,0.4h-0.1c-0.9-0.1-2-0.1-3-0.1
		c-0.6,0-3.3,0-4,0c-1.6,0-3.7,0.2-4.8,0.2c-0.7,0.1-0.8,0.4-1.1,0.4c-0.4,0-2.4-0.9-2.4-1.2c0-0.1,0.1-0.1,0.2-0.1
		c0.1,0,0.2,0,0.3,0c0.8,0.2,2.4,0.3,4.4,0.3c2,0,4.4-0.1,6.8-0.2L692.9,172.5z M684.1,165.6c-0.1-0.3-0.7-0.5-1.3-0.7
		c-0.1,0-0.3-0.1-0.3-0.2s0.2-0.3,0.9-0.3c0.7,0,1.3,0.1,1.9,0.2c1,0,3.5-0.2,4.9-0.3c0.6,0,0.6-0.1,1.2-0.2
		c0.1-0.5,0.2-1.7,0.2-2.7c-1.5,0.1-4.1,0.3-6.2,0.4c-0.6,0.1-0.6,0.3-0.9,0.3c-0.3,0-1.9-0.7-1.9-0.9c0-0.1,0.1-0.1,0.2-0.1
		c0.1,0,0.1,0,0.2,0c0.8,0.1,1.7,0.1,2.6,0.1c1.6,0,3.4-0.1,5.2-0.3c0.5-0.1,0.5-0.2,1.2-0.2c0.8,0,1.2,0.1,1.2,0.3
		s-0.4,0.5-0.5,0.7c-0.2,0.6-0.5,1.7-0.7,2.3c0.5,0,0.8,0.2,0.8,0.4c0,0.1-0.1,0.2-0.5,0.2c-2.5,0.1-4.9,0.2-6.8,0.3
		c-0.2,0.1-0.4-0.1-0.4,0.2v0.1c0,0.3,0,1.3,0,2.3c0,0.3,0.1,0.4,0.5,0.4c1.3,0,3-0.1,4.8-0.2c1-0.1,0.6-0.5,1.9-0.5
		c0.5,0,1.2,0,1.2,0.4c0,0.2-0.3,0.4-0.6,0.4c-1.6,0.1-2.8,0.2-4,0.2l-1.1,0c-1,0-1.8,0.1-2.4,0.1c-0.8,0-1.4-0.3-1.4-1.1
		L684.1,165.6z"/>
	<path class="st4" d="M711,172.6c0.8-0.1,0.7-0.4,1.6-0.4c0.4,0,1.9,0.1,1.9,0.6c0,0.2-0.2,0.4-0.6,0.4h-0.1c-1.5-0.1-3.4-0.1-5-0.1
		c-2.3,0-4.6,0.1-7,0.2c-0.6,0.1-0.7,0.4-1,0.4c-0.3,0-2.4-0.8-2.4-1.2c0-0.1,0.1-0.1,0.2-0.1c0.1,0,0.2,0,0.4,0.1
		c0.7,0.2,1.9,0.3,3.4,0.3c1.9,0,4.4-0.1,7-0.2c0.5-2.2,0.9-4.7,1-6.3c-2.3,0.7-4.8,1.3-7,1.7c-0.5,0.1-0.6,0.3-0.9,0.3
		c-0.4,0-2.6-0.8-2.6-1.1c0-0.1,0.1-0.1,0.2-0.1c0.1,0,0.2,0,0.4,0c0.3,0,0.6,0,1,0c3,0,7.8-0.8,8.9-1.3c0.1-1.1,0.3-3,0.3-3.7
		c-1.7,0.1-5,0.3-7.1,0.3c-0.5,0.1-0.5,0.3-0.7,0.3c-0.3,0-2.1-0.7-2.1-1c0-0.1,0.1-0.1,0.2-0.1c0.1,0,0.2,0,0.4,0.1
		c0.8,0.1,2,0.2,3.3,0.2c2.4,0,5-0.1,5.6-0.2c0.5-0.1,0.3-0.2,1-0.2c1.1,0,1.2,0.1,1.2,0.3s-0.2,0.4-0.4,0.6
		c-0.6,3.4-1.2,6.6-2.2,10.2h0.4L711,172.6z"/>
	<path class="st4" d="M715.5,174.2l4.9-12.9h1.8l5.3,12.9h-1.9l-1.5-3.9h-5.4l-1.4,3.9H715.5z M719.2,168.9h4.4l-1.3-3.6
		c-0.4-1.1-0.7-2-0.9-2.7c-0.2,0.8-0.4,1.6-0.7,2.5L719.2,168.9z"/>
	<path class="st4" d="M729.2,174.2v-12.9h1.7v12.9H729.2z"/>
	<path class="st4" d="M734,174.2v-12.9h8.7v1.5h-7v4h6v1.5h-6v5.9H734z"/>
	<path class="st4" d="M744.8,174.2v-12.9h2.6l3,9.1c0.3,0.8,0.5,1.5,0.6,1.9c0.1-0.5,0.4-1.2,0.7-2.1l3.1-9h2.3v12.9h-1.6v-10.8
		l-3.7,10.8h-1.5l-3.7-11v11H744.8z"/>
	<path class="st4" d="M776.9,164.8c-0.9,0.1-1.5,0.1-1.9,0.1c-0.4,0.1-0.5,0.3-0.7,0.3c-0.2,0-0.5-0.1-0.9-0.3
		c-0.3-0.1-0.4-0.2-0.5-0.3c-0.4,1.2-0.9,2.6-1.2,3.3c0.6-0.1,1.8-0.4,3-0.7c0.2-0.1,0.4-0.1,0.5-0.1c0.1,0,0.1,0,0.1,0.1
		c0,0.1-0.2,0.2-0.5,0.3c-2.2,0.9-5.4,1.6-6.6,1.8c-0.5,0.1-0.5,0.3-0.8,0.3c-0.3,0-2.5-0.8-2.5-1.2c0-0.1,0.1-0.1,0.2-0.1
		c0.1,0,0.2,0,0.4,0.1c0.4,0.1,0.9,0.1,1.5,0.1c1.2,0,2.7-0.2,4-0.4c0.2-0.8,0.5-2.1,0.7-3.9c0-0.4-0.3-0.6-0.8-0.9
		c-0.2-0.1-0.3-0.2-0.3-0.3c0-0.1,0.2-0.1,0.6-0.2c0.1,0,2,0.4,2,0.8c0,0-0.3,0.7-0.3,0.7c0.1,0,1.4,0.1,1.5,0.1
		c0.8,0,1.8-0.1,2.5-0.1v-3.6c0-0.4-0.9-0.8-1.5-1.1c-0.3-0.1-0.5-0.2-0.5-0.3c0-0.1,0.2-0.2,0.6-0.2c0.9,0.1,1.8,0.4,2.2,0.5
		c0.3,0.2,0.4,0.3,0.4,0.4c0,0.1-0.1,0.2-0.1,0.4l0,7c-0.1,2.4-0.1,3.4-0.5,4c-0.1,0.2-0.2,0.3-0.3,0.3c-0.2,0-0.3-0.3-0.3-1.2
		V164.8z M773.6,161.2c0.7,0,1,0.2,1,0.4c0,0.2-0.4,0.5-1.1,0.5c-2.1,0-3.6,0.1-5.1,0.3c-0.5,0.1-0.6,0.2-0.9,0.2
		c-0.4,0-1.7-0.6-1.7-0.8c0-0.1,0.1-0.1,0.2-0.1c0.1,0,0.2,0,0.3,0.1c0.8,0.1,1.4,0.1,2.1,0.1c1.4,0,2.2-0.1,3.3-0.2
		c1-0.1,0.6-0.4,1.6-0.4H773.6z M769.2,166.7c-0.2,0.5-0.4,0.8-0.6,0.8c-0.2,0-0.4-0.2-0.4-0.6c-0.1-0.5-0.3-1.8-1-3
		c-0.1-0.1-0.1-0.3-0.1-0.4c0-0.1,0-0.1,0.1-0.1c0.3,0,2.1,1.9,2.1,2.9L769.2,166.7z M770.2,171.5c0-0.4-0.4-0.5-1.4-0.8
		c-0.2,0-0.3-0.1-0.3-0.2s0.1-0.2,0.6-0.3c0.8,0,1.6,0.1,1.9,0.1c0.3,0.1,0.4,0.2,0.4,0.3c0,0.1-0.1,0.3-0.1,0.5c0,0.8,0,1.8,0,2.4
		c0,0.4,0.2,0.6,0.9,0.6l3.8,0c1.4-0.1,0.7-0.5,2.3-0.5c0.6,0,1.3,0.1,1.3,0.6c0,0.2-0.2,0.4-0.5,0.4h-7c-1.2,0-1.9-0.3-1.9-1.2
		L770.2,171.5z"/>
	<path class="st4" d="M795,172.6c0.8-0.1,0.7-0.4,1.6-0.4c0.4,0,1.9,0.1,1.9,0.6c0,0.2-0.2,0.4-0.6,0.4h-0.1c-1.5-0.1-3.4-0.1-5-0.1
		c-2.3,0-4.6,0.1-7,0.2c-0.6,0.1-0.7,0.4-1,0.4c-0.3,0-2.4-0.8-2.4-1.2c0-0.1,0.1-0.1,0.2-0.1c0.1,0,0.2,0,0.4,0.1
		c0.7,0.2,2,0.3,3.5,0.3c2.2,0,4.9-0.1,7.7-0.2L795,172.6z M785.9,162.4c0-0.3-0.7-0.6-1.4-0.9c-0.2,0-0.3-0.1-0.3-0.2
		c0-0.1,0.2-0.2,0.6-0.2c1.1,0.1,2,0.3,2.4,0.5l5-0.1c2-0.1,0.9-0.6,2.9-0.6h0.2c0.5,0,0.8,0.3,0.8,0.5c0,0.2-0.3,0.5-0.8,0.5
		c-2.8,0.1-6.1,0.1-7.8,0.1c-0.2,0.1-0.4,0-0.4,0.4v4c0,0.7,0,0.7,2.5,0.7c1.1,0,2.3,0,3.4-0.1c1.2,0,0.8-0.5,2.4-0.5
		c0.9,0,1.1,0.4,1.1,0.5c0,0.2-0.3,0.5-0.7,0.5c-0.8,0.1-3.9,0.1-6,0.1c-1.1,0-2,0-2.3,0c-0.6,0-1.4-0.4-1.4-1.3L785.9,162.4z"/>
	<path class="st4" d="M799.9,175c2.1-1.8,3.4-4.3,3.4-7.7c0-3.3-1.4-6-3.4-7.7v-0.3c3.2,1.8,4.5,4.6,4.5,8c0,3.4-1.3,6.2-4.5,8V175z
		"/>
</g>
<g class="st3">
	<path class="st4" d="M916.5,122.3c0.5-0.1,0.5-0.4,0.5-0.4c0-0.1,0-0.2-0.1-0.3c-0.1-0.1-0.2-0.3-0.2-0.3c0-0.1,0.1-0.1,0.2-0.1
		c0.5,0,1.1,0.3,1.1,0.5c0,0.2-0.3,0.4-0.3,0.6c2.1,0.4,3,1.7,3,3c0,1.5-1.3,3.1-3.7,3.1c-2.3,0-3.7-1.4-3.7-3.1
		C913.3,124,914.3,122.6,916.5,122.3z M914.3,125.4c0,1.2,0.9,2.3,2.6,2.3s2.6-1.2,2.6-2.3c0-1.2-0.9-2.3-2.6-2.3
		S914.3,124.2,914.3,125.4z M921.5,130.1c0-0.1-0.1-0.3-0.2-0.5c-0.1-0.1-0.2-0.2-0.2-0.2c0-0.1,0.1-0.1,0.2-0.1
		c0.3,0,1.2,0.4,1.2,0.6c0,0.2-0.2,0.3-0.3,0.5c2,0.4,2.9,1.6,2.9,2.9c0,1.4-1.2,2.9-3.5,2.9c-2.2,0-3.5-1.4-3.5-2.9
		c0-1.3,1-2.6,3-2.9C921.4,130.4,921.5,130.2,921.5,130.1z M919.2,133.2c0,1.1,0.8,2.2,2.5,2.2s2.5-1.1,2.5-2.2
		c0-1.1-0.8-2.2-2.5-2.2S919.2,132.1,919.2,133.2z M924.2,121.2c0-0.2-0.8-0.6-1.6-1c-0.3-0.1-0.4-0.2-0.4-0.3
		c0-0.1,0.2-0.2,0.6-0.2c0.6,0.1,1.3,0.3,2,0.5c0.5,0.2,0.6,0.3,0.6,0.5c0,0.1-0.1,0.3-0.1,0.6l0,3c0.2,0,0.5,0,0.9-0.1
		c0.6-0.1,0.4-0.4,1.5-0.4c0.3,0,1.1,0,1.1,0.5c0,0.2-0.2,0.4-0.6,0.4l-3,0.1v3.2c0.2,0,0.6,0,0.9,0c0.6-0.1,0.3-0.4,1.5-0.4
		c0.3,0,1.1,0,1.1,0.5c0,0.2-0.2,0.4-0.6,0.4l-3,0c-0.1,1.2-0.5,1.7-0.7,1.7c-0.2,0-0.3-0.3-0.3-1V121.2z"/>
	<path class="st4" d="M934.7,123c-0.5,0.1-0.5,0.2-0.8,0.2c-0.3,0-1.9-0.6-1.9-0.8c0-0.1,0.1-0.1,0.2-0.1c0.1,0,0.2,0,0.4,0.1
		c0.5,0.1,1,0.1,1.7,0.1c0.8,0,1.8-0.1,3.4-0.1c0.8,0,0.6-0.2,1.2-0.2c0.5,0,1.1,0,1.1,0.2c0,0.1-0.2,0.3-0.3,0.4
		c-0.8,1.2-1.2,1.8-2.2,2.9c1.3,1.2,2.1,0.8,2.7,1.5c0.7,0.7,0.9,1.1,0.9,1.4c0,0.2-0.1,0.3-0.3,0.3c-0.1,0-0.3-0.1-0.3-0.1
		c-1-0.8-2-1.6-3.3-2.8c-2.2,2.2-5.8,4-6.4,4c0,0-0.1,0-0.1,0c0-0.1,0.1-0.1,0.3-0.3c2.2-1.3,5.9-4,7.2-6.9
		C937.4,122.8,935.4,123,934.7,123z M936.1,133.4c0-0.2-0.4-0.3-1-0.5c-0.2-0.1-0.3-0.1-0.3-0.2c0,0,0.2-0.2,0.8-0.2
		c0.8,0,1.6,0.1,1.8,0.2c1.7,0,2.7,0,4.4-0.1c0.4,0,0.6-0.1,1-0.2c0-0.3,0.1-1.3,0.2-2.2c-1.2,0-3.6,0.1-5.3,0.2
		c-0.5,0.1-0.6,0.3-0.9,0.3c-0.4,0-1.8-0.6-1.8-0.8c0-0.1,0.1-0.1,0.3-0.1c0.1,0,0.2,0,0.3,0c0.6,0.1,1.5,0.1,2.5,0.1
		c1.5,0,3.2-0.1,4.6-0.2c0.3-0.1,0.3-0.1,0.7-0.1c0.1,0,0.2,0,0.4,0c0.5,0,0.7,0.1,0.7,0.3c0,0.1-0.2,0.3-0.3,0.5
		c-0.2,0.5-0.5,1.3-0.6,1.9c0.5,0.1,0.7,0.3,0.7,0.4c0,0.1-0.2,0.3-0.6,0.3c-1.4,0-4.1,0.1-6,0.1c-0.2,0.1-0.3,0.1-0.3,0.3v1.6
		c0,0.3,0.2,0.4,0.5,0.4c0.4,0,0.9,0,1.5,0c0.9,0,2,0,3.1,0c1.1-0.1,0.7-0.5,1.9-0.5c0.5,0,1.4,0,1.4,0.5c0,0.2-0.2,0.4-0.6,0.4
		h-7.2c-1.3,0-1.6-0.5-1.6-1V133.4z M942.9,121.4c0-0.3-0.6-0.7-1.6-1.1c-0.3-0.1-0.5-0.2-0.5-0.3c0-0.1,0.2-0.2,0.6-0.2
		c0.1,0,2.6,0.3,2.6,0.9c0,0.1-0.1,0.3-0.1,0.5v5.2c0,0.8-0.1,1.8-0.3,2.5c-0.2,0.4-0.4,0.6-0.5,0.6s-0.3-0.3-0.3-0.8L942.9,121.4z"
		/>
	<path class="st4" d="M960.9,121.4c0-0.5-0.8-0.9-1.6-1.2c-0.4-0.1-0.6-0.2-0.6-0.3c0-0.1,0.2-0.2,0.6-0.2c0.2,0,2.7,0.4,2.7,0.9
		c0,0.1-0.1,0.3-0.1,0.5l0,11.1c0,2.5-0.3,4.3-0.7,4.3c-0.2,0-0.3-0.2-0.4-1.3v-4.7c-3.6,1.1-4.4,1.3-8.4,1.9
		c-0.5,0.1-0.6,0.4-0.9,0.4c-0.4,0-2.6-0.9-2.6-1.3c0-0.1,0.1-0.1,0.2-0.1c0.1,0,0.2,0,0.4,0.1c0.4,0.1,1,0.1,1.6,0.1
		c2.9,0,7.8-0.9,9.7-1.5V121.4z M954,122.1c0.4,0,0.5-0.3,0.5-0.4c0-0.1,0-0.2-0.1-0.3c-0.1-0.1-0.2-0.3-0.2-0.3
		c0-0.1,0.1-0.1,0.2-0.1c0.6,0,1.1,0.4,1.1,0.6c0,0.2-0.1,0.3-0.2,0.5c1.9,0.4,2.8,1.6,2.8,2.9c0,1.4-1.3,3-3.5,3
		c-2.4,0-3.7-1.5-3.7-3C950.9,123.8,951.9,122.5,954,122.1z M952,125.1c0,1.1,0.8,2.3,2.5,2.3c1.7,0,2.5-1.1,2.5-2.3
		c0-1.1-0.8-2.3-2.5-2.3C952.9,122.9,952,124,952,125.1z"/>
	<path class="st4" d="M971.5,128.5c3.2-2.1,5.2-5.5,5.2-5.8c0-0.2-0.2-0.5-1-1c-0.2-0.2-0.3-0.3-0.3-0.4s0.1-0.1,0.3-0.1
		c0.1,0,0.2,0,0.4,0c0.1,0,2.1,0.8,2.1,1.4c0,0.3-0.5,0.7-1.1,1.7c0.7,0.7,1,1,1.5,1.4c0.8,0.6,0.8,0,1.9,1.8
		c0.1,0.2,0.2,0.3,0.2,0.5c0,0.3-0.2,0.4-0.4,0.4c-0.2,0-0.4-0.1-0.6-0.3c-0.7-0.8-2.1-2.4-3-3.4c-1.5,1.7-3,3.1-5.1,4.1
		c-0.3,0.1-0.4,0.2-0.5,0.2c-0.1,0-0.1,0-0.1-0.1C971.1,128.8,971.2,128.6,971.5,128.5z M980.5,130.1c0-0.1-0.1-0.3-0.2-0.5
		c-0.1-0.1-0.2-0.2-0.2-0.2c0-0.1,0.1-0.1,0.2-0.1c0.3,0,1.2,0.4,1.2,0.6c0,0.2-0.2,0.3-0.3,0.5c2,0.4,2.9,1.6,2.9,2.9
		c0,1.4-1.2,2.9-3.5,2.9c-2.2,0-3.5-1.4-3.5-2.9c0-1.3,1-2.6,3-2.9C980.4,130.4,980.5,130.2,980.5,130.1z M978.2,133.2
		c0,1.1,0.8,2.2,2.5,2.2s2.5-1.1,2.5-2.2c0-1.1-0.8-2.2-2.5-2.2S978.2,132.1,978.2,133.2z M983.2,121.3c0-0.2-0.5-0.5-1.5-1
		c-0.3-0.1-0.4-0.2-0.4-0.3c0-0.1,0.2-0.2,0.6-0.2c0.8,0.1,1.5,0.3,2.1,0.5c0.4,0.1,0.5,0.3,0.5,0.4c0,0.1-0.1,0.3-0.1,0.5l0,5
		c0.3,0,0.4,0,0.7,0c0.8-0.2,0.5-0.5,1.7-0.5c0.4,0,1.1,0,1.1,0.5c0,0.2-0.2,0.4-0.5,0.5l-3.1,0.1c0,1.5-0.1,2.3-0.3,2.8
		c-0.2,0.4-0.4,0.6-0.5,0.6c-0.1,0-0.3-0.2-0.3-0.8V121.3z"/>
	<path class="st4" d="M995.6,131.1c0-0.3-0.5-0.5-1.1-0.7c-0.2-0.1-0.4-0.1-0.4-0.2c0-0.1,0.5-0.2,0.7-0.2c0.4,0,0.9,0.1,1.2,0.1
		c0.6,0.1,0.7,0.2,0.7,0.4c0,0.1,0,0.2,0,0.4v1.1l5.3-0.1v-1.4c0-0.2-0.3-0.5-0.9-0.6c-0.2-0.1-0.4-0.2-0.4-0.3
		c0-0.1,0.5-0.2,0.6-0.2c0.3,0,0.6,0.1,0.9,0.1c-0.1-0.1-0.2-0.5-0.2-1.2v-3.5c-0.9,0-1.5,0.1-2,0.1c-0.5,0-0.6,0.2-0.9,0.2
		c-0.2,0-0.5-0.1-1-0.3c0,0,0,0,0,0c0,2.4-2.1,3.2-3.8,3.2c-2.4,0-3.7-1.5-3.7-3.1c0-1.4,1-2.7,3-3.1l0.1,0c0.3,0,0.5-0.2,0.5-0.4
		c0-0.1,0-0.2-0.1-0.3c-0.1-0.1-0.2-0.2-0.2-0.3c0-0.1,0.1-0.1,0.2-0.1c0.5,0,1.1,0.3,1.1,0.6c0,0.2-0.2,0.4-0.3,0.5
		c1.8,0.2,2.9,1.2,3.1,2.5c0.1,0,0.7,0,0.8,0c0.9,0,2.3-0.1,3.1-0.1v-3c-0.1-0.4-0.9-0.8-1.6-1.1c-0.3-0.1-0.5-0.2-0.5-0.3
		c0-0.1,0.2-0.2,0.6-0.2c0.2,0,2.6,0.4,2.6,0.9c0,0.1-0.1,0.2-0.1,0.5l0,5.8c0,2.4-0.6,2.7-0.7,2.7c0,0,0.1,0,0.1,0
		c0.5,0.1,0.6,0.2,0.6,0.3c0,0.1-0.1,0.2-0.1,0.4v3.5c0,0.6,0,1.3-0.2,1.9c-0.1,0.3-0.3,0.5-0.4,0.5c-0.2,0-0.3-0.3-0.4-1l-5.3,0.1
		c-0.2,0.7-0.5,1.3-0.8,1.3c-0.2,0-0.3-0.2-0.3-0.8V131.1z M991.7,125c0,1.2,0.8,2.4,2.6,2.4c1.9,0,2.8-1.2,2.8-2.4
		c0-1.2-0.9-2.4-2.8-2.4C992.5,122.6,991.7,123.8,991.7,125z M996.7,132.4v2.3l5.3-0.1v-2.3L996.7,132.4z"/>
	<path class="st4" d="M1020,128.8c-1.3,0-3.3,0.1-4.3,0.2c-0.5,0.1-0.5,0.4-0.9,0.4c-0.5,0-2.5-0.9-2.5-1.2c0-0.1,0.1-0.1,0.2-0.1
		c0.1,0,0.2,0,0.4,0.1c1.2,0.1,2.6,0.2,4.1,0.2c2.7,0,5.7-0.1,8-0.3c1-0.1,0.7-0.4,1.5-0.4c0.5,0,1.9,0,1.9,0.6
		c0,0.2-0.2,0.4-0.6,0.5c-1.1,0-2.1-0.1-3.3-0.1c-1,0-2.1,0-3.4,0.1c0,4.3,0,5.9-0.4,7.1c-0.2,0.4-0.3,0.6-0.5,0.6
		c-0.2,0-0.3-0.3-0.3-1V128.8z M1017.3,126.3c-0.1,0.5-0.4,0.9-0.7,0.9c-0.2,0-0.3-0.3-0.3-0.7c0-0.4,0-4.1-0.1-4.6
		c0-0.3-0.1-0.5-1.2-0.8c-0.2-0.1-0.4-0.1-0.4-0.2c0-0.1,0.2-0.2,0.6-0.3c1.9,0.1,2.1,0.3,2.1,0.6c0,0.1,0,0.3,0,0.3v1.2l5.9-0.1
		v-1.4c0-0.2-0.4-0.5-1.1-0.7c-0.2-0.1-0.4-0.2-0.4-0.3c0-0.1,0.2-0.2,0.6-0.2c1.8,0.2,2.1,0.4,2.1,0.7c0,0.1,0,0.2,0,0.4
		c0,1.6,0,4.7-0.3,5.3c-0.1,0.3-0.4,0.6-0.6,0.6c-0.1,0-0.3-0.2-0.3-0.7L1017.3,126.3z M1017.4,123.2v2.6l5.9-0.1V123L1017.4,123.2z
		"/>
	<path class="st4" d="M1033.9,121.7c-0.1-0.4-0.6-0.6-1.4-0.8c-0.2,0-0.2-0.1-0.2-0.1c0-0.1,0.2-0.2,0.5-0.2c0.9,0,1.8,0.2,2.3,0.4
		c1.4,0,3.1,0,4.8-0.1c1.4-0.1,0.8-0.5,2.2-0.5c0.4,0,1.3,0,1.3,0.5c0,0.2-0.3,0.4-0.8,0.4c-1.9,0.1-5.5,0.1-7.3,0.1
		c-0.1,0.1-0.2,0-0.2,0.3c0,0.7,0,2,0,2.8c0.1,0.6,0.1,0.6,2,0.6c1,0,2,0,3.5-0.1c1-0.1,0.5-0.5,2.2-0.5c0.6,0,0.9,0.2,0.9,0.5
		c0,0.2-0.3,0.5-0.7,0.5c-0.6,0-2.8,0.1-3.8,0.1c0,1.1,0,2-0.2,2.7c1.4-0.1,2.9-0.2,4.1-0.3c0.8-0.1,0.7-0.3,1.4-0.3
		c0.3,0,0.7,0,1.4,0.1c0.5,0.1,0.7,0.3,0.7,0.5c0,0.2-0.2,0.4-0.6,0.4h-0.1c-0.8,0-2.2-0.1-3.7-0.1c-2.5,0-5.6,0.1-8.1,0.4
		c-0.8,0.1-0.9,0.4-1.3,0.4c-0.5,0-2.4-0.8-2.4-1.2c0-0.1,0.1-0.1,0.2-0.1c0.1,0,0.2,0,0.3,0c0.9,0.1,2.2,0.2,3.6,0.2
		c1.2,0,2.4-0.1,3.5-0.1c-0.1-0.8-0.1-2-0.1-2.7l0,0h-2.2c-1.4,0-1.8-0.4-1.8-1.2L1033.9,121.7z M1038.3,130.1
		c0-0.1-0.1-0.3-0.2-0.5c-0.1-0.1-0.2-0.2-0.2-0.2c0-0.1,0.1-0.1,0.2-0.1c0.4,0,1.2,0.4,1.2,0.6c0,0.2-0.2,0.3-0.3,0.5
		c2,0.4,2.9,1.6,2.9,2.9c0,1.5-1.3,2.9-3.5,2.9c-2.3,0-3.5-1.4-3.5-2.9c0-1.3,1-2.6,3.1-2.9C1038.2,130.4,1038.3,130.2,1038.3,130.1
		z M1036,133.2c0,1.1,0.8,2.2,2.5,2.2s2.5-1.1,2.5-2.2c0-1.1-0.8-2.2-2.5-2.2S1036,132.1,1036,133.2z"/>
	<path class="st4" d="M1048.5,128.8c3.4-2.2,5.2-5.4,5.2-5.7s-0.2-0.6-1-1.2c-0.3-0.1-0.4-0.3-0.4-0.3c0-0.1,0.2-0.1,0.4-0.1
		c0.1,0,0.2,0,0.3,0c0.4,0.1,2.2,0.9,2.2,1.4c0,0.3-0.4,0.8-1.1,1.9c0.5,0.6,0.9,0.9,1.4,1.4c1,0.7,0.9,0,2.2,1.8
		c0.1,0.2,0.1,0.4,0.1,0.5c0,0.3-0.2,0.4-0.4,0.4c-0.1,0-0.3-0.1-0.4-0.2c-0.9-1-2.5-2.6-3.3-3.5c-1.6,1.8-3,2.9-5.1,3.9
		c-0.2,0.1-0.4,0.1-0.5,0.1c-0.1,0-0.1,0-0.1-0.1C1048.1,129,1048.3,128.9,1048.5,128.8z M1054.1,132c0-0.3-0.4-0.5-1.3-0.8
		c-0.2-0.1-0.3-0.1-0.3-0.2c0-0.1,0.2-0.2,0.6-0.3c0.8,0,1.6,0.1,1.9,0.1c0.3,0.1,0.4,0.2,0.4,0.3c0,0.1,0,0.3-0.1,0.5
		c0,0.8,0,1.9,0,2.5c0,0.4,0.3,0.6,0.9,0.6l3.3,0c1.4-0.1,0.7-0.5,2.3-0.5c0.6,0,1.4,0.1,1.4,0.6c0,0.2-0.2,0.4-0.5,0.4h-6.5
		c-1.2,0-1.9-0.3-1.9-1.2L1054.1,132z M1060.2,121.3c0-0.2-0.5-0.5-1.5-1c-0.3-0.1-0.4-0.2-0.4-0.3c0-0.1,0.2-0.2,0.6-0.2
		c0.1,0,2.5,0.3,2.5,0.9c0,0.1-0.1,0.3-0.1,0.5l0,5.7c0.3,0,0.5,0,0.8,0c0.8-0.2,0.5-0.5,1.8-0.5c0.4,0,1,0,1,0.5
		c0,0.2-0.2,0.5-0.5,0.5l-3.2,0.1c0,3.3-0.1,4.1-0.3,4.6c-0.2,0.3-0.4,0.6-0.5,0.6s-0.3-0.2-0.3-0.8V121.3z"/>
</g>
<g class="st3">
	<path d="M310,90.3V76h1.9v5.9h7.4V76h1.9v14.3h-1.9v-6.7h-7.4v6.7H310z"/>
	<path d="M323.5,85.1c0-1.9,0.5-3.3,1.6-4.3c0.9-0.8,2-1.2,3.3-1.2c1.4,0,2.6,0.5,3.5,1.4s1.4,2.2,1.4,3.9c0,1.3-0.2,2.4-0.6,3.1
		s-1,1.4-1.7,1.8s-1.6,0.6-2.5,0.6c-1.5,0-2.6-0.5-3.5-1.4S323.5,86.9,323.5,85.1z M325.3,85.1c0,1.3,0.3,2.3,0.9,3s1.3,1,2.2,1
		c0.9,0,1.6-0.3,2.2-1s0.9-1.7,0.9-3c0-1.3-0.3-2.3-0.9-2.9s-1.3-1-2.2-1c-0.9,0-1.6,0.3-2.2,1S325.3,83.8,325.3,85.1z"/>
	<path d="M342.1,90.3v-1.5c-0.8,1.2-1.9,1.8-3.3,1.8c-0.6,0-1.2-0.1-1.7-0.4s-0.9-0.5-1.2-0.9s-0.4-0.8-0.5-1.3
		c-0.1-0.3-0.1-0.9-0.1-1.6v-6.4h1.8v5.8c0,0.9,0,1.5,0.1,1.9c0.1,0.5,0.3,0.8,0.7,1.1s0.8,0.4,1.3,0.4s1-0.1,1.5-0.4s0.8-0.6,1-1.1
		s0.3-1.1,0.3-2v-5.6h1.8v10.4H342.1z"/>
	<path d="M345.7,87.2l1.7-0.3c0.1,0.7,0.4,1.2,0.8,1.6s1.1,0.6,1.9,0.6c0.8,0,1.4-0.2,1.8-0.5s0.6-0.7,0.6-1.2
		c0-0.4-0.2-0.7-0.5-0.9c-0.2-0.2-0.8-0.4-1.8-0.6c-1.3-0.3-2.2-0.6-2.7-0.8s-0.9-0.6-1.1-1s-0.4-0.9-0.4-1.4c0-0.5,0.1-0.9,0.3-1.3
		s0.5-0.7,0.9-1c0.3-0.2,0.6-0.4,1.1-0.5s1-0.2,1.5-0.2c0.8,0,1.5,0.1,2.1,0.4s1.1,0.6,1.4,1s0.5,0.9,0.6,1.6l-1.7,0.2
		c-0.1-0.5-0.3-1-0.7-1.3s-0.9-0.4-1.6-0.4c-0.8,0-1.4,0.1-1.7,0.4s-0.5,0.6-0.5,0.9c0,0.2,0.1,0.4,0.2,0.6c0.1,0.2,0.4,0.3,0.7,0.5
		c0.2,0.1,0.7,0.2,1.6,0.4c1.2,0.3,2.1,0.6,2.6,0.8s0.9,0.5,1.2,0.9s0.4,0.9,0.4,1.5c0,0.6-0.2,1.1-0.5,1.7s-0.8,0.9-1.5,1.2
		s-1.4,0.4-2.2,0.4c-1.3,0-2.4-0.3-3.1-0.8S345.9,88.3,345.7,87.2z"/>
	<path d="M363.5,87l1.8,0.2c-0.3,1.1-0.8,1.9-1.6,2.5s-1.8,0.9-3,0.9c-1.5,0-2.7-0.5-3.6-1.4s-1.3-2.2-1.3-3.9
		c0-1.7,0.4-3.1,1.3-4.1s2.1-1.4,3.5-1.4c1.4,0,2.5,0.5,3.4,1.4s1.3,2.3,1.3,4c0,0.1,0,0.3,0,0.5h-7.7c0.1,1.1,0.4,2,1,2.6
		s1.3,0.9,2.2,0.9c0.6,0,1.2-0.2,1.7-0.5S363.3,87.7,363.5,87z M357.7,84.1h5.8c-0.1-0.9-0.3-1.5-0.7-2c-0.6-0.7-1.3-1-2.2-1
		c-0.8,0-1.5,0.3-2,0.8S357.8,83.2,357.7,84.1z"/>
	<path d="M371.4,90.3V77.7h-4.7V76H378v1.7h-4.7v12.6H371.4z"/>
	<path d="M376.9,85.1c0-1.9,0.5-3.3,1.6-4.3c0.9-0.8,2-1.2,3.3-1.2c1.4,0,2.6,0.5,3.5,1.4s1.4,2.2,1.4,3.9c0,1.3-0.2,2.4-0.6,3.1
		s-1,1.4-1.7,1.8s-1.6,0.6-2.5,0.6c-1.5,0-2.6-0.5-3.5-1.4S376.9,86.9,376.9,85.1z M378.7,85.1c0,1.3,0.3,2.3,0.9,3s1.3,1,2.2,1
		c0.9,0,1.6-0.3,2.2-1s0.9-1.7,0.9-3c0-1.3-0.3-2.3-0.9-2.9s-1.3-1-2.2-1c-0.9,0-1.6,0.3-2.2,1S378.7,83.8,378.7,85.1z"/>
	<path d="M388.7,90.3V76h1.8v8.2l4.2-4.2h2.3l-4,3.8l4.4,6.5h-2.2l-3.4-5.3l-1.2,1.2v4.1H388.7z"/>
	<path d="M405.8,87l1.8,0.2c-0.3,1.1-0.8,1.9-1.6,2.5s-1.8,0.9-3,0.9c-1.5,0-2.7-0.5-3.6-1.4s-1.3-2.2-1.3-3.9
		c0-1.7,0.4-3.1,1.3-4.1s2.1-1.4,3.5-1.4c1.4,0,2.5,0.5,3.4,1.4s1.3,2.3,1.3,4c0,0.1,0,0.3,0,0.5h-7.7c0.1,1.1,0.4,2,1,2.6
		s1.3,0.9,2.2,0.9c0.6,0,1.2-0.2,1.7-0.5S405.5,87.7,405.8,87z M400,84.1h5.8c-0.1-0.9-0.3-1.5-0.7-2c-0.6-0.7-1.3-1-2.2-1
		c-0.8,0-1.5,0.3-2,0.8S400.1,83.2,400,84.1z"/>
	<path d="M409.8,90.3V79.9h1.6v1.5c0.8-1.1,1.9-1.7,3.3-1.7c0.6,0,1.2,0.1,1.7,0.3s0.9,0.5,1.2,0.9s0.4,0.8,0.5,1.3
		c0.1,0.3,0.1,0.9,0.1,1.7v6.4h-1.8V84c0-0.7-0.1-1.3-0.2-1.6s-0.4-0.6-0.7-0.8s-0.8-0.3-1.2-0.3c-0.7,0-1.4,0.2-1.9,0.7
		s-0.8,1.4-0.8,2.7v5.7H409.8z"/>
	<path d="M426.6,90.3V76h1.9v12.6h7.1v1.7H426.6z"/>
	<path d="M440,90.3V77.7h-4.7V76h11.3v1.7h-4.7v12.6H440z"/>
	<path d="M448.5,90.3V76h4.9c1.1,0,2,0.1,2.5,0.2c0.8,0.2,1.5,0.5,2.1,1c0.8,0.6,1.3,1.5,1.7,2.4s0.6,2.1,0.6,3.4
		c0,1.1-0.1,2.1-0.4,2.9s-0.6,1.5-1,2.1s-0.8,1-1.3,1.3s-1,0.6-1.7,0.7s-1.4,0.2-2.3,0.2H448.5z M450.4,88.6h3.1
		c0.9,0,1.7-0.1,2.2-0.3s1-0.4,1.3-0.7c0.4-0.4,0.8-1.1,1-1.8s0.4-1.7,0.4-2.8c0-1.5-0.2-2.6-0.7-3.5s-1.1-1.3-1.8-1.6
		c-0.5-0.2-1.3-0.3-2.5-0.3h-3V88.6z"/>
	<path d="M297.9,118.5c-1-1.2-1.8-2.7-2.5-4.3s-1-3.3-1-5.1c0-1.5,0.3-3,0.8-4.5c0.6-1.6,1.5-3.3,2.7-4.9h1.3
		c-0.8,1.4-1.3,2.3-1.6,2.9c-0.4,0.9-0.7,1.8-0.9,2.8c-0.3,1.2-0.4,2.4-0.4,3.7c0,3.1,1,6.3,2.9,9.4H297.9z"/>
	<path d="M317.6,106.7c-0.7,0.1-1.8,0.1-2.4,0.2c-0.4,0.1-0.5,0.1-0.6,0.1s-0.4-0.1-1-0.3c-2.3,4.1-5.6,6.3-6,6.3c0,0-0.1,0-0.1,0
		c0-0.1,0.1-0.2,0.3-0.4c1.6-1.4,4.3-4.6,5.2-7.2c-0.9,0.3-1.8,0.5-2.9,0.8c-0.5,0.1-0.4,0.4-0.7,0.4c-0.3,0-2.2-0.8-2.2-1.1
		c0-0.1,0.1-0.1,0.2-0.1c0.1,0,0.2,0,0.3,0c0.3,0,0.6,0.1,0.9,0.1c1.4,0,3.3-0.3,4.6-0.5c0.2-0.4,0.8-2,0.9-2.9
		c-1,0.1-2.1,0.2-3.3,0.3c-0.4,0.1-0.5,0.3-0.7,0.3c-0.3,0-2-0.8-2-1.1c0-0.1,0.1-0.1,0.2-0.1c0.1,0,0.2,0,0.4,0.1
		c0.7,0.1,1.4,0.2,2.1,0.2c0.6,0,2.2,0,2.8-0.1c0.5,0,0.1-0.2,1.2-0.2c1,0,1.1,0.1,1.1,0.3c0,0.2-0.3,0.5-0.5,0.8
		c-0.4,1.4-0.9,2.6-1.6,3.8c0.2,0,0.6,0,0.9,0c0.8,0,1.9,0,2.8-0.1v-5.9c0-0.4-0.7-0.7-1.5-1c-0.3-0.1-0.4-0.2-0.4-0.3
		c0-0.1,0.2-0.2,0.6-0.2c2.2,0.4,2.5,0.6,2.5,0.9c0,0.1-0.1,0.3-0.1,0.4l-0.1,12.8c-0.1,1.3-0.5,2-0.8,2c-0.2,0-0.3-0.3-0.3-0.8
		V106.7z M321.1,99.3c-0.1-0.5-0.8-0.8-1.6-1.3c-0.2-0.1-0.4-0.2-0.4-0.3c0-0.1,0.2-0.1,0.6-0.1h0.2c2.1,0.4,2.5,0.7,2.5,1.1
		c0,0.2-0.1,0.3-0.1,0.5l-0.1,14.6c-0.1,1.5-0.5,2.2-0.8,2.2c-0.2,0-0.3-0.3-0.4-0.9V99.3z"/>
	<path d="M336.2,105.8c-0.2,1.9-1.6,3.4-4.2,3.4c-3,0-4.6-1.8-4.6-3.8c0-1.7,1.2-3.4,3.8-3.7c0.4-0.1,0.7-0.2,0.7-0.5
		c0-0.1-0.1-0.3-0.1-0.4c-0.1-0.1-0.2-0.2-0.2-0.3c0-0.1,0.1-0.1,0.2-0.1c0.6,0,1.3,0.6,1.3,0.8c0,0.2-0.2,0.3-0.4,0.6
		c2.4,0.5,3.5,1.9,3.6,3.6L336.2,105.8z M328.6,105.4c0,1.5,1.1,3,3.3,3c2.1,0,3.1-1.5,3.1-3s-1.1-3-3.1-3
		C329.7,102.4,328.6,103.9,328.6,105.4z M340.5,99.3c0-0.4-0.6-0.9-1.8-1.4c-0.3-0.1-0.4-0.2-0.4-0.3c0-0.1,0.2-0.2,0.7-0.3
		c1.3,0.2,2,0.5,2.4,0.6c0.3,0.1,0.4,0.3,0.4,0.4c0,0.2-0.1,0.3-0.1,0.5l0,11.8c0,3.7-0.1,4.2-0.5,4.9c-0.1,0.2-0.3,0.4-0.4,0.4
		c-0.2,0-0.3-0.2-0.3-0.9V99.3z"/>
	<path d="M358,100.2c-0.1-0.4-0.6-0.8-1.4-1.2c-0.3-0.1-0.5-0.2-0.5-0.3c0-0.1,0.2-0.2,0.5-0.2c0.9,0.1,1.5,0.3,2.1,0.4
		c0.5,0.1,0.6,0.2,0.6,0.5c0,0.2-0.1,0.4-0.1,0.8v5c0,4-0.2,5.1-0.4,5.7c-0.2,0.4-0.4,0.7-0.5,0.7c-0.1,0-0.2-0.2-0.2-0.7v-6.3
		l-1,0.1c-0.6,0.1-0.7,0.2-1,0.2c-0.2,0-0.4-0.1-1-0.4c-0.1,0.9-0.3,1.8-0.4,2.4c0.5,0.1,0.8,0.3,0.8,0.5c0,0.1-0.3,0.2-0.8,0.3
		c-1,0-3.5,0.1-4.5,0.1c0,0.6-0.3,1.1-0.6,1.1c-0.2,0-0.2-0.5-0.4-1.7l-0.3-4.4c-0.2-0.4-0.5-0.6-1.3-0.9c-0.1,0-0.2-0.1-0.2-0.2
		c0-0.1,0.2-0.2,0.6-0.3c0.6,0,1.5,0.1,2.1,0.3c1.5,0,2.1-0.1,3.6-0.1c0.5,0,0.2-0.1,1.4-0.1c0.6,0,0.8,0.1,0.8,0.2
		c0,0.2-0.4,0.5-0.4,0.7c-0.1,0.5-0.2,1-0.3,1.6c0.4,0,0.8,0.1,1.2,0.1c0.5,0,1,0,1.6-0.1V100.2z M350.5,102.3
		c-0.2,0.1-0.3,0-0.3,0.4l0.1,4.6c0.6,0,2.9,0,3.7-0.3c0.1-1.1,0.1-3.1,0.1-4.8L350.5,102.3z M353.2,111.3c0-0.2-0.3-0.5-1.5-0.8
		c-0.4,0-0.5-0.1-0.5-0.2c0-0.3,0.7-0.4,1.1-0.4c0.2,0,1.2,0.1,1.4,0.1c0.7,0,0.8,0.2,0.8,0.5c0,0.1,0,0.3,0,0.5v2.3
		c0,0.7,0.1,0.9,0.9,0.9h2.5c4,0,2.4-0.7,4.2-0.7c0.7,0,1.6,0,1.6,0.6c0,0.3-0.3,0.6-0.8,0.6H355c-0.8,0-1.8-0.3-1.8-1.3
		L353.2,111.3z M361.1,99.3c0-0.4-0.6-0.8-1.7-1.3c-0.3-0.1-0.5-0.2-0.5-0.3c0-0.1,0.2-0.2,0.8-0.2c1,0.1,1.5,0.3,2,0.5
		c0.6,0.2,0.7,0.3,0.7,0.5c0,0.1-0.1,0.3-0.1,0.5l0,8.9c0,1.7-0.1,2.9-0.3,3.6c-0.2,0.5-0.4,0.7-0.6,0.7c-0.2,0-0.3-0.3-0.3-0.9
		V99.3z"/>
	<path d="M377.5,107.5c-0.3,0-0.9,0.1-1.6,0.2c-0.7,0.1-0.8,0.4-1.1,0.4c-0.4,0-2.6-1-2.6-1.2c0-0.1,0.1-0.1,0.3-0.1
		c0.1,0,0.3,0,0.5,0.1c0.7,0.2,2.1,0.2,3.8,0.2c3.4,0,7.8-0.2,9.4-0.3c1.1-0.1,0.9-0.4,2-0.4c0.7,0,2,0,2,0.6c0,0.3-0.3,0.5-0.8,0.5
		h0c-1,0-2.3-0.1-4.2-0.1h-0.5c0,2.9,0,6.7-0.4,7.9c-0.1,0.5-0.4,0.8-0.5,0.8c-0.2,0-0.4-0.3-0.4-1v-7.6c-0.7,0-3.3,0.1-4.6,0.1
		c0,4.3,0,5.6-0.4,6.8c-0.2,0.5-0.4,0.7-0.6,0.7c-0.2,0-0.3-0.3-0.3-1.1L377.5,107.5z M380.2,98.5c0.2,0,0.5-0.1,0.5-0.4
		c0-0.1-0.1-0.3-0.2-0.4c-0.2-0.2-0.3-0.3-0.3-0.3s0.1-0.1,0.2-0.1c0.5,0,1.3,0.3,1.3,0.6c0,0.1-0.2,0.5-0.2,0.6
		c2.4,0.4,3.4,1.9,3.4,3.4c0,1.6-1.4,3.3-4,3.3c-2.7,0-4.2-1.7-4.2-3.4C376.8,100.3,377.9,98.9,380.2,98.5z M378,101.9
		c0,1.3,1,2.6,3,2.6c1.9,0,2.8-1.3,2.8-2.6c0-1.3-0.9-2.6-2.8-2.6C379,99.3,378,100.6,378,101.9z"/>
	<path d="M400.6,101.9c1.1-0.2,0.6-0.6,2.2-0.6c0.7,0,1,0.3,1,0.6c0,0.2-0.3,0.5-0.8,0.5c-1.7,0-3.3,0.1-4.4,0.2
		c0.3,0.4,0.4,0.6,0.4,0.7s-0.1,0.2-0.1,0.4c2.2,0.3,3.2,1.6,3.2,2.9c0,1.5-1.4,2.9-3.7,2.9c-2.5,0-3.8-1.5-3.8-2.9
		c0-1.3,1-2.6,3.3-2.9c0.1-0.1,0.2-0.3,0.2-0.4c0-0.2-0.1-0.4-0.3-0.6c-0.7,0-1.5,0.1-2.5,0.2c-0.4,0.1-0.5,0.2-0.7,0.2
		c-0.4,0-1.9-0.8-1.9-1.1c0-0.1,0.1-0.1,0.3-0.1c0.1,0,0.2,0,0.4,0c0.9,0.1,1.7,0.2,2.8,0.2C397.6,102.1,398.7,102.1,400.6,101.9z
		 M397.3,100.3c-0.4,0-1.7-0.9-1.7-1.1c0-0.1,0-0.1,0.2-0.1c0.1,0,0.3,0,0.5,0.1c0.9,0.1,1.1,0.1,3.6,0.1c0.5,0,0.8,0.3,0.8,0.5
		c0,0.2-0.3,0.5-1.1,0.5L397.3,100.3z M395.9,106.4c0,1.1,0.9,2.2,2.6,2.2c1.7,0,2.6-1.1,2.6-2.2c0-1.1-0.9-2.2-2.6-2.2
		C396.8,104.2,395.9,105.3,395.9,106.4z M397.9,111.9c0-0.4-0.5-0.6-1.4-0.9c-0.3-0.1-0.5-0.2-0.5-0.3c0-0.1,0.2-0.2,0.6-0.2
		c0.9,0,1.8,0.1,2.1,0.1c0.4,0.1,0.4,0.2,0.4,0.4c0,0.1-0.1,0.3-0.1,0.5v2.3c0,0.5,0.3,0.7,0.9,0.7l4.3,0c1.4,0,0.7-0.6,2.5-0.6
		c0.5,0,1.6,0,1.6,0.6c0,0.3-0.3,0.5-0.8,0.5h-7.6c-1.3,0-2.2-0.4-2.2-1.3V111.9z M405.1,99.2c0-0.2-0.5-0.6-1.7-1.1
		c-0.3-0.1-0.5-0.2-0.5-0.3c0-0.1,0.2-0.2,0.7-0.2c0.1,0,2.8,0.3,2.8,1c0,0.1-0.1,0.3-0.1,0.5l0,6.3c0.3,0,0.6,0,0.9,0
		c0.9-0.2,0.5-0.6,2-0.6c0.4,0,1.1,0,1.1,0.5c0,0.3-0.2,0.5-0.6,0.5l-3.5,0.1c0,3.6-0.1,4.5-0.3,5.1c-0.2,0.4-0.4,0.7-0.6,0.7
		c-0.2,0-0.3-0.2-0.3-0.9V99.2z"/>
	<path d="M424.4,108.9c-2-0.2-3.1-1.5-3.1-2.8c0-1.2,1-2.4,3.1-2.7c0.1-0.1,0.1-0.2,0.1-0.4c0-0.3-0.2-0.5-0.5-0.8
		c-0.5,0-1.1,0.1-1.8,0.1c-0.5,0.1-0.6,0.3-0.8,0.3c-0.4,0-1.9-0.6-1.9-0.9c0-0.1,0.1-0.1,0.3-0.1c0.1,0,0.3,0,0.5,0.1
		c0.5,0.1,1.1,0.1,1.8,0.1c1.8,0,3.9-0.2,5-0.3c0.7-0.1,0.2-0.4,1.8-0.4c0.2,0,1.2,0,1.2,0.5c0,0.4-0.6,0.4-1.2,0.4
		c-1.2,0-2.3,0.1-4,0.1c0.2,0.3,0.3,0.3,0.5,0.7v0.1c0,0.2-0.1,0.3-0.1,0.4v0.1c2.2,0.3,3.2,1.5,3.2,2.7c0,1.3-1.1,2.5-3,2.7v1.5
		c1.2-0.1,4.2-0.6,6-1.1V99.1c0-0.3-0.8-0.8-1.8-1.2c-0.4-0.1-0.5-0.2-0.5-0.3c0-0.1,0.2-0.2,0.7-0.3c1,0,1.8,0.3,2.5,0.5
		c0.4,0.1,0.5,0.2,0.5,0.4c0,0.1-0.1,0.3-0.1,0.6v12.4c0,1.7,0,2.9-0.3,4.1c-0.2,0.4-0.4,0.7-0.6,0.7c-0.2,0-0.3-0.2-0.3-0.8v-5.8
		c-2.7,1-6.5,1.8-9.9,2.3c-0.4,0.1-0.4,0.3-0.7,0.3c-0.4,0-2.9-1.1-2.9-1.4c0-0.1,0.1-0.1,0.3-0.1c0.1,0,0.2,0,0.3,0
		c0.5,0.1,1.1,0.2,1.8,0.2c1.2,0,2.5-0.2,3.9-0.3V108.9z M423.8,100.1c-0.4,0-1.7-0.9-1.7-1.1c0-0.1,0-0.1,0.2-0.1
		c0.1,0,0.3,0,0.5,0.1c0.9,0.1,1.1,0.1,3.7,0.1c0.6,0,0.9,0.3,0.9,0.5c0,0.2-0.3,0.5-1.1,0.5L423.8,100.1z M422.5,106
		c0,1,0.8,2,2.4,2c1.7,0,2.5-1,2.5-2s-0.8-2-2.5-2C423.3,104.1,422.5,105.1,422.5,106z"/>
	<path d="M437.4,110c1.8-1.6,4.6-4.9,5.7-8.4c0-0.3,0.1-0.4-0.9-1.3c-0.5-0.3-0.4-0.5-0.1-0.5c0.2,0,0.5,0.1,0.8,0.2
		c1.5,0.7,1.9,1,1.9,1.3c0,0.2-0.2,0.6-1.5,3.1c0.4,0.8,1.2,1.4,2.1,2.2c0.8,0.7,1.1,0.4,1.7,1.8c0.2,0.4,0.3,0.7,0.3,1
		c0,0.4-0.2,0.6-0.4,0.6c-0.1,0-0.3-0.1-0.4-0.2c-0.7-0.8-2.1-2.8-3.7-4.9c-2.1,3.2-5.4,5.7-5.8,5.7c-0.1,0-0.1,0-0.1-0.1
		C437,110.3,437.1,110.2,437.4,110z M450.7,99c0-0.3-1.1-0.8-1.9-1.2c-0.2-0.1-0.4-0.2-0.4-0.3c0-0.1,0.2-0.2,0.8-0.2
		c0.9,0.1,1.7,0.3,2.3,0.5c0.4,0.2,0.5,0.3,0.5,0.5c0,0.2-0.1,0.3-0.1,0.6v7.3h1c0.9-0.1,0.6-0.5,1.9-0.5c0.4,0,1.2,0,1.2,0.6
		c0,0.3-0.2,0.5-0.7,0.5H452l0,5.8c0,1.3-0.2,2.1-0.5,3c-0.2,0.2-0.3,0.4-0.5,0.4c-0.2,0-0.3-0.3-0.3-0.9V99z"/>
	<path d="M457,115.2c2.3-2,3.8-4.8,3.8-8.5c0-3.6-1.5-6.7-3.8-8.5v-0.4c3.5,2,5,5.2,5,8.9c0,3.8-1.5,6.9-5,8.8V115.2z"/>
</g>
</svg>
