<?xml version="1.0" encoding="utf-8"?>
<!-- Generator: Adobe Illustrator 23.0.0, SVG Export Plug-In . SVG Version: 6.00 Build 0)  -->
<svg version="1.1" id="强大的法律保障" xmlns="http://www.w3.org/2000/svg" xmlns:xlink="http://www.w3.org/1999/xlink"
	 x="0px" y="0px" viewBox="0 0 1017 345" style="enable-background:new 0 0 1017 345;" xml:space="preserve">
<style type="text/css">
	.st0{fill:#010101;}
	.st1{fill:#58595B;}
	.st2{fill:#70DBCB;}
	.st3{fill:none;stroke:#70DBCB;}
	.st4{fill:#F5F5F5;}
	.st5{fill:#F2F2F2;}
	.st6{fill:#E6E7E8;}
	.st7{enable-background:new    ;}
	.st8{fill:#FFFFFF;}
	.st9{fill:#FCFCFC;}
</style>
<rect id="矩形_47" x="686.9" y="160" class="st0" width="321.2" height="0.8"/>
<ellipse id="椭圆_12" class="st1" cx="1003" cy="159.6" rx="14" ry="14.1"/>
<g id="组_27">
	<path id="矩形_48" class="st2" d="M409.9,159.2h181.5v0.8H409.9V159.2z"/>
	<path id="形状_2" class="st3" d="M591.4,156H474.1l-38.5-87.6h-81.9"/>
	<path id="形状_2_拷贝" class="st3" d="M591.4,164H474.1l-38.5,87.7h-81.9"/>
</g>
<path id="圆角矩形_1_拷贝" class="st4" d="M608.4,165.4l39.1-10c1.6-0.4,3.4-0.3,5,0.1l32.8,10.6c1.4,0.5,1.6,1.2,0.4,1.7
	l-34.2,12.6c-2,0.6-4.1,0.7-6.2,0.1l-37.7-13.2C606.1,166.7,606.5,165.9,608.4,165.4z"/>
<path id="椭圆_11" class="st5" d="M649.6,140.7c10,0,18.1,1.6,18.1,3.6s-8.1,3.6-18.1,3.6s-18.1-1.6-18.1-3.6
	S639.6,140.7,649.6,140.7z"/>
<path id="矩形_46" class="st6" d="M607.4,145.5l43.4,15.3v14.5L607.4,160V145.5z"/>
<path id="矩形_46_拷贝" class="st6" d="M687.7,146.3L650,160.8v14.5l37.7-14.5V146.3z"/>
<path id="圆角矩形_1_拷贝-2" class="st4" d="M248.7,76.2l39.1-10.1c1.7-0.3,3.4-0.3,5,0.2l32.8,10.6c1.4,0.5,1.6,1.2,0.4,1.7
	l-34.2,12.5c-2,0.7-4.1,0.7-6.1,0.1L247.9,78C246.4,77.5,246.7,76.7,248.7,76.2z"/>
<ellipse id="椭圆_11-2" class="st5" cx="289.8" cy="55.1" rx="18.1" ry="3.6"/>
<path id="矩形_46-2" class="st6" d="M247.6,56.3L291,71.6V86l-43.4-15.2V56.3z"/>
<path id="矩形_46_拷贝-2" class="st6" d="M327.9,57.1l-37.7,14.5V86l37.7-14.4V57.1z"/>
<path id="圆角矩形_1_拷贝-3" class="st4" d="M248.7,265.9l39.1-10c1.7-0.4,3.4-0.3,5,0.1l32.8,10.6c1.4,0.5,1.6,1.2,0.4,1.7
	l-34.2,12.6c-2,0.6-4.1,0.6-6.1,0.1L248,267.8C246.4,267.2,246.7,266.4,248.7,265.9z"/>
<ellipse id="椭圆_11-3" class="st5" cx="289.8" cy="244.8" rx="18.1" ry="3.6"/>
<path id="矩形_46-3" class="st6" d="M247.6,246l43.4,15.3v14.5l-43.4-15.3V246z"/>
<path id="矩形_46_拷贝-3" class="st6" d="M327.9,246.8l-37.7,14.5v14.5l37.7-14.5V246.8z"/>
<path id="圆角矩形_1_拷贝-4" class="st4" d="M8.7,76.2l39.1-10.1c1.7-0.3,3.4-0.3,5,0.2l32.8,10.6c1.4,0.5,1.6,1.2,0.4,1.7
	L51.7,91.1c-2,0.7-4.1,0.7-6.1,0.1L7.9,78C6.4,77.5,6.7,76.7,8.7,76.2z"/>
<ellipse id="椭圆_11-4" class="st5" cx="49.8" cy="55.1" rx="18.1" ry="3.6"/>
<path id="矩形_46-4" class="st6" d="M7.6,56.3L51,71.6V86L7.6,70.8V56.3z"/>
<path id="矩形_46_拷贝-4" class="st6" d="M87.9,57.1L50.2,71.6V86l37.7-14.4V57.1z"/>
<path id="圆角矩形_1_拷贝-5" class="st4" d="M8.7,265.9l39.1-10c1.7-0.4,3.4-0.3,5,0.1l32.8,10.6c1.4,0.5,1.6,1.2,0.4,1.7
	l-34.2,12.6c-2,0.6-4.1,0.6-6.1,0.1L7.9,267.8C6.4,267.2,6.7,266.4,8.7,265.9z"/>
<ellipse id="椭圆_11-5" class="st5" cx="49.8" cy="244.8" rx="18.1" ry="3.6"/>
<path id="矩形_46-5" class="st6" d="M7.6,246L51,261.3v14.5L7.6,260.5V246z"/>
<path id="矩形_46_拷贝-5" class="st6" d="M87.9,246.8l-37.7,14.5v14.5l37.7-14.5V246.8z"/>
<path id="圆角矩形_1_拷贝-6" class="st4" d="M855.8,166.2l39.1-10c1.6-0.4,3.4-0.3,5,0.1l32.8,10.6c1.4,0.5,1.6,1.2,0.4,1.7
	l-34.2,12.6c-2,0.6-4.1,0.7-6.1,0.1L855,168.1C853.5,167.5,853.8,166.7,855.8,166.2z"/>
<path id="椭圆_11-6" class="st5" d="M896.9,141.5c10,0,18.1,1.6,18.1,3.6s-8.1,3.6-18.1,3.6s-18.1-1.6-18.1-3.6
	S887,141.5,896.9,141.5z"/>
<path id="矩形_46-6" class="st6" d="M854.8,146.3l43.4,15.3v14.5l-43.4-15.3V146.3z"/>
<path id="矩形_46_拷贝-6" class="st6" d="M935.1,147.1l-37.7,14.5v14.5l37.7-14.5V147.1z"/>
<rect id="矩形_49" x="87" y="70" class="st0" width="167" height="1"/>
<rect id="矩形_49_拷贝" x="87" y="260" class="st0" width="167" height="1"/>
<g class="st7">
	<path class="st1" d="M28,45h22.5V0H28V45z M42.1,5.6h5.6v5.6h-5.6V5.6z M42.1,16.9h5.6v5.6h-5.6V16.9z M42.1,28.1h5.6v5.6h-5.6
		V28.1z M30.8,5.6h5.6v5.6h-5.6C30.8,11.2,30.8,5.6,30.8,5.6z M30.8,16.9h5.6v5.6h-5.6C30.8,22.5,30.8,16.9,30.8,16.9z M30.8,28.1
		h5.6v5.6h-5.6C30.8,33.7,30.8,28.1,30.8,28.1z M53.3,14.1H73v2.8H53.3V14.1z M53.3,45h5.6V33.8h8.4V45H73V19.7H53.3V45z"/>
</g>
<g class="st7">
	<path class="st1" d="M46.7,224.9h7.6v9.5h-7.6V224.9z"/>
	<path class="st1" d="M45.8,207.9c0,2.6,2.1,4.7,4.7,4.7s4.7-2.1,4.7-4.7s-2.1-4.7-4.7-4.7S45.8,205.4,45.8,207.9z M51.4,208.9h-3.8
		V207h1.9v-2.8h1.9C51.4,204.2,51.4,208.9,51.4,208.9z"/>
	<path class="st1" d="M24,204.1v30.3h15.1v-30.3H24z M30.6,224.1h-3.8v-1.9h3.8V224.1z M30.6,220.3h-3.8v-1.9h3.8V220.3z
		 M30.6,216.4h-3.8v-1.9h3.8V216.4z M30.6,212.6h-3.8v-1.9h3.8V212.6z M30.6,208.9h-3.8V207h3.8V208.9z M36.3,224.1h-3.8v-1.9h3.8
		V224.1z M36.3,220.3h-3.8v-1.9h3.8V220.3z M36.3,216.4h-3.8v-1.9h3.8V216.4z M36.3,212.6h-3.8v-1.9h3.8V212.6z M36.3,208.9h-3.8
		V207h3.8V208.9z"/>
	<path class="st1" d="M77,234.4v-30.3H61.9v30.3H77z M70.4,206.9h3.8v1.9h-3.8V206.9z M70.4,210.8h3.8v1.9h-3.8V210.8z M70.4,214.6
		h3.8v1.9h-3.8V214.6z M70.4,218.4h3.8v1.9h-3.8V218.4z M70.4,222.1h3.8v1.9h-3.8V222.1z M64.7,206.9h3.8v1.9h-3.8V206.9z
		 M64.7,210.8h3.8v1.9h-3.8V210.8z M64.7,214.6h3.8v1.9h-3.8V214.6z M64.7,218.4h3.8v1.9h-3.8V218.4z M64.7,222.1h3.8v1.9h-3.8
		V222.1z"/>
	<path class="st1" d="M41,199.9v34.5h3.8V224c0-0.5,0.4-0.9,0.9-0.9h9.5c0.5,0,0.9,0.4,0.9,0.9v10.4h3.8v-34.5l-9.5-6.9L41,199.9z
		 M57.1,207.9c0,3.7-3,6.6-6.6,6.6s-6.6-3-6.6-6.6s3-6.6,6.6-6.6C54.2,201.4,57.1,204.3,57.1,207.9z"/>
	<path class="st1" d="M50.5,181.4h11.4v5.7H50.5V181.4z"/>
	<path class="st1" d="M50.5,195.6c-0.5,0-0.9-0.4-0.9-0.9v-14.3c0-0.5,0.4-0.9,0.9-0.9s0.9,0.4,0.9,0.9v14.2
		C51.4,195.3,51,195.6,50.5,195.6z"/>
</g>
<g class="st7">
	<path class="st1" d="M307.6,44.5c0.7,0,1.3-0.6,1.3-1.3V21.6c0-0.7-0.6-1.3-1.3-1.3h-8.1v-0.9c0-0.5-0.3-0.9-0.7-1.2l-7.9-4v-2.5
		l5.6-1.9c0.5-0.2,0.9-0.7,0.9-1.2c0-0.6-0.4-1.1-0.9-1.2L290,5.3c-0.4-0.1-0.8-0.1-1.2,0.2c-0.3,0.2-0.5,0.6-0.5,1.1v7.8l-7.9,4
		c-0.4,0.2-0.7,0.7-0.7,1.2v0.9h-8.3c-0.7,0-1.3,0.6-1.3,1.3v21.6c0,0.7,0.6,1.3,1.3,1.3h36.3L307.6,44.5L307.6,44.5z M290.9,9.4V8
		l2.9,0.7L290.9,9.4z M272.6,22.9h7v19h-7V22.9z M282.3,20.3l7.3-3.7l7.3,3.7v21.6h-14.6L282.3,20.3L282.3,20.3z M306.3,41.9h-6.8
		v-19h6.8V41.9z"/>
	<path class="st1" d="M287.5,22.5h-2.2c-0.7,0-1.3,0.6-1.3,1.3c0,0.7,0.6,1.3,1.3,1.3h2.2c0.7,0,1.3-0.6,1.3-1.3
		C288.9,23.1,288.3,22.5,287.5,22.5z"/>
	<path class="st1" d="M275.3,27.3h2.2c0.7,0,1.3-0.6,1.3-1.3c0-0.7-0.6-1.3-1.3-1.3h-2.2c-0.7,0-1.3,0.6-1.3,1.3
		S274.5,27.3,275.3,27.3z"/>
	<path class="st1" d="M277.4,29h-2.2c-0.7,0-1.3,0.6-1.3,1.3c0,0.7,0.6,1.3,1.3,1.3h2.2c0.7,0,1.3-0.6,1.3-1.3
		C278.8,29.6,278.1,29,277.4,29z"/>
	<path class="st1" d="M277.4,33.3h-2.2c-0.7,0-1.3,0.6-1.3,1.3s0.6,1.3,1.3,1.3h2.2c0.7,0,1.3-0.6,1.3-1.3
		C278.8,33.9,278.1,33.3,277.4,33.3z"/>
	<path class="st1" d="M302,27.3h2.2c0.7,0,1.3-0.6,1.3-1.3c0-0.7-0.6-1.3-1.3-1.3H302c-0.7,0-1.3,0.6-1.3,1.3S301.3,27.3,302,27.3z"
		/>
	<path class="st1" d="M302,31.6h2.2c0.7,0,1.3-0.6,1.3-1.3c0-0.7-0.6-1.3-1.3-1.3H302c-0.7,0-1.3,0.6-1.3,1.3
		C300.6,31,301.3,31.6,302,31.6z"/>
	<path class="st1" d="M304,33.3h-2c-0.7,0-1.3,0.6-1.3,1.3s0.6,1.3,1.3,1.3h2.2c0.7,0,1.3-0.6,1.3-1.3S304.9,33.3,304,33.3z"/>
	<path class="st1" d="M294,22.5h-2.2c-0.7,0-1.3,0.6-1.3,1.3c0,0.7,0.6,1.3,1.3,1.3h2.2c0.7,0,1.3-0.6,1.3-1.3S294.8,22.5,294,22.5z
		"/>
	<path class="st1" d="M287.5,26.8h-2.2c-0.7,0-1.3,0.6-1.3,1.3c0,0.7,0.6,1.3,1.3,1.3h2.2c0.7,0,1.3-0.6,1.3-1.3
		S288.3,26.8,287.5,26.8z"/>
	<path class="st1" d="M294,26.8h-2.2c-0.7,0-1.3,0.6-1.3,1.3c0,0.7,0.6,1.3,1.3,1.3h2.2c0.7,0,1.3-0.6,1.3-1.3S294.8,26.8,294,26.8z
		"/>
	<path class="st1" d="M287.5,31.1h-2.2c-0.7,0-1.3,0.6-1.3,1.3s0.6,1.3,1.3,1.3h2.2c0.7,0,1.3-0.6,1.3-1.3
		C288.9,31.7,288.3,31.1,287.5,31.1z"/>
	<path class="st1" d="M294,31.1h-2.2c-0.7,0-1.3,0.6-1.3,1.3s0.6,1.3,1.3,1.3h2.2c0.7,0,1.3-0.6,1.3-1.3S294.8,31.1,294,31.1z"/>
</g>
<g class="st7">
	<path class="st1" d="M308.6,233.5c0.7,0,1.3-0.6,1.3-1.3v-21.6c0-0.7-0.6-1.3-1.3-1.3h-8.1v-0.9c0-0.5-0.3-0.9-0.7-1.2l-7.9-4v-2.5
		l5.6-1.9c0.5-0.2,0.9-0.7,0.9-1.2c0-0.6-0.4-1.1-0.9-1.2l-6.6-2.1c-0.4-0.1-0.8-0.1-1.2,0.2c-0.3,0.2-0.5,0.6-0.5,1.1v7.8l-7.9,4
		c-0.4,0.2-0.7,0.7-0.7,1.2v0.9h-8.3c-0.7,0-1.3,0.6-1.3,1.3v21.6c0,0.7,0.6,1.3,1.3,1.3h36.3L308.6,233.5L308.6,233.5z
		 M291.9,198.4V197l2.9,0.7L291.9,198.4z M273.6,211.9h7v19h-7V211.9z M283.3,209.3l7.3-3.7l7.3,3.7v21.6h-14.6L283.3,209.3
		L283.3,209.3z M307.3,230.9h-6.8v-19h6.8V230.9z"/>
	<path class="st1" d="M288.5,211.5h-2.2c-0.7,0-1.3,0.6-1.3,1.3s0.6,1.3,1.3,1.3h2.2c0.7,0,1.3-0.6,1.3-1.3
		C289.9,212.1,289.3,211.5,288.5,211.5z"/>
	<path class="st1" d="M276.3,216.3h2.2c0.7,0,1.3-0.6,1.3-1.3s-0.6-1.3-1.3-1.3h-2.2c-0.7,0-1.3,0.6-1.3,1.3
		S275.5,216.3,276.3,216.3z"/>
	<path class="st1" d="M278.4,218h-2.2c-0.7,0-1.3,0.6-1.3,1.3s0.6,1.3,1.3,1.3h2.2c0.7,0,1.3-0.6,1.3-1.3
		C279.8,218.6,279.1,218,278.4,218z"/>
	<path class="st1" d="M278.4,222.3h-2.2c-0.7,0-1.3,0.6-1.3,1.3s0.6,1.3,1.3,1.3h2.2c0.7,0,1.3-0.6,1.3-1.3
		C279.8,222.9,279.1,222.3,278.4,222.3z"/>
	<path class="st1" d="M303,216.3h2.2c0.7,0,1.3-0.6,1.3-1.3s-0.6-1.3-1.3-1.3H303c-0.7,0-1.3,0.6-1.3,1.3S302.3,216.3,303,216.3z"/>
	<path class="st1" d="M303,220.6h2.2c0.7,0,1.3-0.6,1.3-1.3s-0.6-1.3-1.3-1.3H303c-0.7,0-1.3,0.6-1.3,1.3
		C301.6,220,302.3,220.6,303,220.6z"/>
	<path class="st1" d="M305,222.3h-2c-0.7,0-1.3,0.6-1.3,1.3s0.6,1.3,1.3,1.3h2.2c0.7,0,1.3-0.6,1.3-1.3S305.9,222.3,305,222.3z"/>
	<path class="st1" d="M295,211.5h-2.2c-0.7,0-1.3,0.6-1.3,1.3s0.6,1.3,1.3,1.3h2.2c0.7,0,1.3-0.6,1.3-1.3S295.8,211.5,295,211.5z"/>
	<path class="st1" d="M288.5,215.8h-2.2c-0.7,0-1.3,0.6-1.3,1.3s0.6,1.3,1.3,1.3h2.2c0.7,0,1.3-0.6,1.3-1.3S289.3,215.8,288.5,215.8
		z"/>
	<path class="st1" d="M295,215.8h-2.2c-0.7,0-1.3,0.6-1.3,1.3s0.6,1.3,1.3,1.3h2.2c0.7,0,1.3-0.6,1.3-1.3S295.8,215.8,295,215.8z"/>
	<path class="st1" d="M288.5,220.1h-2.2c-0.7,0-1.3,0.6-1.3,1.3s0.6,1.3,1.3,1.3h2.2c0.7,0,1.3-0.6,1.3-1.3S289.3,220.1,288.5,220.1
		z"/>
	<path class="st1" d="M295,220.1h-2.2c-0.7,0-1.3,0.6-1.3,1.3s0.6,1.3,1.3,1.3h2.2c0.7,0,1.3-0.6,1.3-1.3S295.8,220.1,295,220.1z"/>
</g>
<g class="st7">
	<path class="st1" d="M666.7,136.5c0.7,0,1.3-0.6,1.3-1.3v-21.6c0-0.7-0.6-1.3-1.3-1.3h-8.1v-0.9c0-0.5-0.3-0.9-0.7-1.2l-7.9-4v-2.5
		l5.6-1.9c0.5-0.2,0.9-0.7,0.9-1.2c0-0.6-0.4-1.1-0.9-1.2l-6.6-2.1c-0.4-0.1-0.8-0.1-1.2,0.2c-0.3,0.2-0.5,0.6-0.5,1.1v7.8l-7.9,4
		c-0.4,0.2-0.7,0.7-0.7,1.2v0.9h-8.3c-0.7,0-1.3,0.6-1.3,1.3v21.6c0,0.7,0.6,1.3,1.3,1.3h36.3L666.7,136.5L666.7,136.5z
		 M649.8,101.4V100l2.9,0.7L649.8,101.4z M631.7,114.9h7v19h-7V114.9z M641.3,112.3l7.3-3.7l7.3,3.7v21.6h-14.6V112.3z M665.3,133.9
		h-6.8v-19h6.8V133.9z"/>
	<path class="st1" d="M646.5,114.5h-2.2c-0.7,0-1.3,0.6-1.3,1.3c0,0.7,0.6,1.3,1.3,1.3h2.2c0.7,0,1.3-0.6,1.3-1.3
		S647.3,114.5,646.5,114.5z"/>
	<path class="st1" d="M634.3,119.3h2.2c0.7,0,1.3-0.6,1.3-1.3c0-0.7-0.6-1.3-1.3-1.3h-2.2c-0.7,0-1.3,0.6-1.3,1.3
		S633.5,119.3,634.3,119.3z"/>
	<path class="st1" d="M636.3,121h-2.2c-0.7,0-1.3,0.6-1.3,1.3c0,0.7,0.6,1.3,1.3,1.3h2.2c0.7,0,1.3-0.6,1.3-1.3
		C637.8,121.6,637.2,121,636.3,121z"/>
	<path class="st1" d="M636.3,125.3h-2.2c-0.7,0-1.3,0.6-1.3,1.3c0,0.7,0.6,1.3,1.3,1.3h2.2c0.7,0,1.3-0.6,1.3-1.3
		C637.8,125.9,637.2,125.3,636.3,125.3z"/>
	<path class="st1" d="M661,119.3h2.2c0.7,0,1.3-0.6,1.3-1.3c0-0.7-0.6-1.3-1.3-1.3H661c-0.7,0-1.3,0.6-1.3,1.3
		S660.3,119.3,661,119.3z"/>
	<path class="st1" d="M661,123.6h2.2c0.7,0,1.3-0.6,1.3-1.3c0-0.7-0.6-1.3-1.3-1.3H661c-0.7,0-1.3,0.6-1.3,1.3
		S660.3,123.6,661,123.6z"/>
	<path class="st1" d="M663,125.3h-2c-0.7,0-1.3,0.6-1.3,1.3c0,0.7,0.6,1.3,1.3,1.3h2.2c0.7,0,1.3-0.6,1.3-1.3S663.8,125.3,663,125.3
		z"/>
	<path class="st1" d="M653,114.5h-2.2c-0.7,0-1.3,0.6-1.3,1.3c0,0.7,0.6,1.3,1.3,1.3h2.2c0.7,0,1.3-0.6,1.3-1.3
		S653.8,114.5,653,114.5z"/>
	<path class="st1" d="M646.5,118.8h-2.2c-0.7,0-1.3,0.6-1.3,1.3c0,0.7,0.6,1.3,1.3,1.3h2.2c0.7,0,1.3-0.6,1.3-1.3
		S647.3,118.8,646.5,118.8z"/>
	<path class="st1" d="M653,118.8h-2.2c-0.7,0-1.3,0.6-1.3,1.3c0,0.7,0.6,1.3,1.3,1.3h2.2c0.7,0,1.3-0.6,1.3-1.3
		S653.8,118.8,653,118.8z"/>
	<path class="st1" d="M646.5,123.1h-2.2c-0.7,0-1.3,0.6-1.3,1.3s0.6,1.3,1.3,1.3h2.2c0.7,0,1.3-0.6,1.3-1.3S647.3,123.1,646.5,123.1
		z"/>
	<path class="st1" d="M653,123.1h-2.2c-0.7,0-1.3,0.6-1.3,1.3s0.6,1.3,1.3,1.3h2.2c0.7,0,1.3-0.6,1.3-1.3S653.8,123.1,653,123.1z"/>
</g>
<polygon id="XMLID_63_" class="st8" points="1003.7,155.6 1005.2,155.6 1005.2,153.3 1009,153.3 1009,165.6 1005.2,165.6 
	1005.2,162.3 1007.7,162.3 1007.7,156.9 997.3,156.9 997.3,162.3 999.8,162.3 999.8,165.6 996,165.6 996,153.3 999.8,153.3 
	999.8,155.6 1001.3,155.6 1001.3,151.8 994.5,151.8 994.5,167.3 1001.3,167.3 1001.3,160.6 999,160.6 999,158.5 1006,158.5 
	1006,160.6 1003.7,160.6 1003.7,167.3 1010.5,167.3 1010.5,151.8 1003.7,151.8 "/>
<g>
	<g>
		<g>
			<path class="st1" d="M916.2,110.4c0.2-0.5,0.3-1,0.1-1.5s-0.5-0.9-1-1.2l-4.5-2.3c-0.1-0.1-0.2-0.2-0.3-0.4l-0.8-5
				c-0.2-1-1-1.7-2-1.7c-0.1,0-0.2,0-0.3,0l-5,0.8c-0.2,0-0.3,0-0.4-0.1l-3.6-3.6c-0.4-0.4-0.9-0.6-1.4-0.6s-1,0.2-1.4,0.6L892,99
				c-0.1,0.1-0.3,0.2-0.4,0.1l-5-0.8c-0.1,0-0.2,0-0.3,0c-1,0-1.8,0.7-2,1.7l-0.8,5c0,0.2-0.1,0.3-0.3,0.4l-4.5,2.3
				c-0.5,0.2-0.8,0.7-1,1.2s-0.1,1.1,0.1,1.5l2.3,4.5c0.1,0.1,0.1,0.3,0,0.5l-2.3,4.5c-0.2,0.5-0.3,1-0.1,1.5s0.5,0.9,1,1.2l4.5,2.3
				c0.1,0.1,0.2,0.2,0.3,0.4l0.8,5c0.2,1,1,1.7,2,1.7c0.1,0,0.2,0,0.3,0l5-0.8c0.2,0,0.3,0,0.4,0.1l3.6,3.6c0.4,0.4,0.9,0.6,1.4,0.6
				s1-0.2,1.4-0.6l3.6-3.6c0.1-0.1,0.3-0.2,0.4-0.1l5,0.8c0.1,0,0.2,0,0.3,0c1,0,1.8-0.7,2-1.7l0.8-5c0-0.2,0.1-0.3,0.3-0.4l4.5-2.3
				c0.5-0.2,0.8-0.7,1-1.2s0.1-1.1-0.1-1.5l-2.3-4.5c-0.1-0.1-0.1-0.3,0-0.5L916.2,110.4z M912.6,116.1l2.3,4.5
				c0.1,0.1,0.1,0.3,0,0.4c0,0.1-0.1,0.2-0.3,0.3l-4.5,2.3c-0.6,0.3-1,0.8-1.1,1.5l-0.8,5c0,0.3-0.3,0.5-0.6,0.4l-5-0.8
				c-0.1,0-0.2,0-0.3,0c-0.5,0-1,0.2-1.4,0.6l-3.6,3.6c-0.2,0.2-0.5,0.2-0.7,0l-3.4-3.7c-0.4-0.4-0.9-0.6-1.4-0.6
				c-0.1,0-0.2,0-0.3,0l-5,0.8c-0.3,0-0.5-0.2-0.6-0.4l-0.8-5c-0.1-0.6-0.5-1.2-1.1-1.5l-4.5-2.3c-0.1-0.1-0.2-0.2-0.3-0.3
				c0-0.1,0-0.3,0-0.4l2.3-4.5c0.3-0.6,0.3-1.3,0-1.8l-2.3-4.5c-0.1-0.1-0.1-0.3,0-0.4s0.1-0.2,0.3-0.3l4.5-2.3
				c0.6-0.3,1-0.8,1.1-1.5l0.8-5c0-0.3,0.3-0.5,0.6-0.4l5,0.8c0.1,0,0.2,0,0.3,0l0,0c0.5,0,1-0.2,1.4-0.6l3.6-3.6
				c0.2-0.2,0.5-0.2,0.7,0l3.6,3.6c0.4,0.5,1.1,0.7,1.7,0.6l5-0.8c0.3,0,0.5,0.2,0.6,0.4l0.8,5c0.1,0.6,0.5,1.2,1.1,1.5l4.5,2.3
				c0.1,0.1,0.2,0.2,0.3,0.3c0,0.1,0,0.3,0,0.4l-2.3,4.5C912.3,114.7,912.3,115.4,912.6,116.1z"/>
			<path class="st1" d="M903,106.6c0.1,0.1,0.3,0.1,0.4,0.1c0.2,0,0.5-0.1,0.6-0.3c0.2-0.3,0.1-0.8-0.2-1s-0.8-0.1-1,0.2
				S902.7,106.4,903,106.6z"/>
			<path class="st1" d="M905.4,108.6c0.2,0,0.4-0.1,0.5-0.2c0.3-0.3,0.3-0.7,0.1-1.1c-0.3-0.3-0.8-0.3-1.1-0.1
				c-0.3,0.3-0.3,0.7-0.1,1.1C905,108.4,905.2,108.6,905.4,108.6z"/>
			<path class="st1" d="M900.8,124.7c-0.4,0.1-0.6,0.6-0.4,1c0.1,0.3,0.4,0.5,0.7,0.5c0.1,0,0.2,0,0.3,0c0.4-0.1,0.6-0.6,0.4-1
				C901.6,124.9,901.2,124.6,900.8,124.7z"/>
			<path class="st1" d="M903,123.6c-0.3,0.2-0.4,0.7-0.2,1c0.1,0.2,0.4,0.3,0.6,0.3c0.1,0,0.3,0,0.4-0.1c0.3-0.2,0.4-0.7,0.2-1
				C903.8,123.4,903.4,123.4,903,123.6z"/>
			<path class="st1" d="M893.5,124.7c-0.4-0.1-0.8,0-1,0.4s0,0.8,0.4,1c0.1,0,0.2,0,0.3,0c0.3,0,0.6-0.2,0.7-0.5
				C894.1,125.4,893.9,124.9,893.5,124.7z"/>
			<path class="st1" d="M898.4,125.4c-0.4,0-0.7,0.4-0.7,0.8s0.4,0.7,0.7,0.7h0.1c0.4,0,0.7-0.4,0.7-0.8
				C899.2,125.6,898.8,125.2,898.4,125.4z"/>
			<path class="st1" d="M895.9,125.4L895.9,125.4c-0.4,0-0.8,0.2-0.8,0.7c0,0.4,0.2,0.8,0.7,0.8h0.1c0.4,0,0.7-0.3,0.7-0.7
				S896.3,125.4,895.9,125.4z"/>
			<path class="st1" d="M907.2,112.6L907.2,112.6c0.1,0.3,0.4,0.6,0.7,0.6c0.1,0,0.1,0,0.2,0c0.4-0.1,0.6-0.5,0.5-0.9
				s-0.5-0.6-0.9-0.5C907.3,111.9,907.1,112.2,907.2,112.6z"/>
			<path class="st1" d="M908.2,114.4c-0.4,0-0.8,0.3-0.8,0.8s0.3,0.8,0.8,0.7c0.4,0,0.8-0.3,0.7-0.8
				C909,114.6,908.6,114.4,908.2,114.4z"/>
			<path class="st1" d="M908.1,117.1c-0.4-0.1-0.8,0.1-0.9,0.5c-0.1,0.4,0.1,0.8,0.5,0.9c0.1,0,0.1,0,0.2,0c0.3,0,0.6-0.2,0.7-0.6
				C908.7,117.6,908.5,117.1,908.1,117.1z"/>
			<path class="st1" d="M906.9,110.7c0.1,0,0.2,0,0.3-0.1c0.4-0.2,0.5-0.6,0.3-1s-0.6-0.5-1-0.3s-0.5,0.6-0.3,1
				C906.4,110.6,906.7,110.7,906.9,110.7z"/>
			<path class="st1" d="M904.9,121.9c-0.3,0.3-0.2,0.8,0.1,1.1c0.1,0.1,0.3,0.2,0.5,0.2s0.4-0.1,0.6-0.3c0.3-0.3,0.2-0.8-0.1-1.1
				C905.6,121.6,905.1,121.6,904.9,121.9z"/>
			<path class="st1" d="M907.3,119.6c-0.4-0.2-0.8,0-1,0.3c-0.2,0.4,0,0.8,0.3,1c0.1,0.1,0.2,0.1,0.3,0.1c0.3,0,0.5-0.1,0.7-0.4
				C907.8,120.2,907.7,119.7,907.3,119.6z"/>
			<path class="st1" d="M888.9,108.6c0.2,0,0.4-0.1,0.6-0.2c0.3-0.3,0.2-0.8-0.1-1.1c-0.3-0.3-0.8-0.2-1.1,0.1s-0.2,0.8,0.1,1.1
				C888.5,108.4,888.7,108.6,888.9,108.6z"/>
			<path class="st1" d="M887,119.6c-0.4,0.2-0.5,0.6-0.3,1c0.1,0.3,0.4,0.4,0.7,0.4c0.1,0,0.2,0,0.3-0.1c0.4-0.2,0.5-0.6,0.3-1
				S887.4,119.4,887,119.6z"/>
			<path class="st1" d="M887.1,117.6c-0.1-0.4-0.5-0.6-0.9-0.5s-0.6,0.5-0.5,0.9c0.1,0.3,0.4,0.6,0.7,0.6c0.1,0,0.1,0,0.2,0
				C887,118.4,887.2,118.1,887.1,117.6z"/>
			<path class="st1" d="M886.2,113.1c0.1,0,0.1,0,0.2,0c0.3,0,0.6-0.2,0.7-0.6c0.1-0.4-0.1-0.8-0.5-0.9s-0.8,0.1-0.9,0.5
				C885.6,112.6,885.8,113.1,886.2,113.1z"/>
			<path class="st1" d="M886.1,115.9c0.4,0,0.7-0.3,0.7-0.8l0,0l0,0c0-0.4-0.3-0.8-0.8-0.8c-0.4,0-0.7,0.3-0.7,0.8l0,0l0,0
				C885.3,115.6,885.7,115.9,886.1,115.9L886.1,115.9z"/>
			<path class="st1" d="M887,110.6c0.1,0.1,0.2,0.1,0.3,0.1c0.3,0,0.5-0.1,0.7-0.4c0.2-0.4,0-0.8-0.3-1c-0.4-0.2-0.8,0-1,0.3
				S886.6,110.4,887,110.6z"/>
			<path class="st1" d="M888.4,121.9c-0.3,0.3-0.3,0.8-0.1,1.1c0.1,0.2,0.4,0.2,0.6,0.2c0.2,0,0.4-0.1,0.5-0.2
				c0.3-0.3,0.3-0.8,0.1-1.1C889.2,121.6,888.7,121.6,888.4,121.9z"/>
			<path class="st1" d="M895.8,104.9L895.8,104.9c0.5-0.1,0.8-0.4,0.7-0.8c0-0.4-0.4-0.7-0.8-0.7s-0.7,0.4-0.7,0.8
				C895.1,104.6,895.4,104.9,895.8,104.9z"/>
			<path class="st1" d="M898.4,104.9L898.4,104.9c0.5,0,0.8-0.3,0.8-0.7s-0.2-0.8-0.7-0.8c-0.4,0-0.8,0.2-0.8,0.7
				C897.7,104.4,898,104.9,898.4,104.9z"/>
			<path class="st1" d="M900.8,105.4c0.1,0,0.2,0,0.3,0c0.3,0,0.6-0.2,0.7-0.5c0.1-0.4,0-0.8-0.4-1c-0.4-0.1-0.8,0-1,0.4
				S900.4,105.4,900.8,105.4z"/>
			<path class="st1" d="M893.2,105.6c0.1,0,0.2,0,0.3,0c0.4-0.1,0.6-0.6,0.4-1c-0.1-0.4-0.6-0.6-1-0.4l0,0c-0.4,0.1-0.6,0.6-0.4,1
				C892.6,105.4,892.9,105.6,893.2,105.6z"/>
			<path class="st1" d="M891.3,123.6c-0.3-0.2-0.8-0.1-1,0.2c-0.2,0.3-0.1,0.8,0.2,1c0.1,0.1,0.3,0.1,0.4,0.1c0.2,0,0.5-0.1,0.6-0.3
				C891.7,124.4,891.6,123.9,891.3,123.6z"/>
			<path class="st1" d="M890.8,106.7c0.1,0,0.3,0,0.4-0.1c0.3-0.2,0.4-0.7,0.2-1s-0.7-0.4-1-0.2c-0.3,0.2-0.4,0.7-0.2,1
				C890.4,106.6,890.6,106.7,890.8,106.7z"/>
		</g>
	</g>
	<g>
		<path class="st1" d="M882.5,119.1h29.3c1.7,0,3.1-1.4,3.1-3.1c0-1.2-0.7-2.2-1.7-2.7v-3.4c0-0.4-0.2-0.8-0.6-0.9l-15-7.2
			c-0.3-0.1-0.6-0.1-0.9,0l-15,7.2c-0.4,0.2-0.6,0.5-0.6,0.9v3.4c-1,0.5-1.7,1.5-1.7,2.7C879.4,117.9,880.8,119.1,882.5,119.1z
			 M897.1,106.9c1.1,0,2,0.9,2,2s-0.9,2-2,2s-2-0.9-2-2S896,106.9,897.1,106.9z"/>
		<path class="st1" d="M911.6,130.7h-0.5l0.4-4c0.1-1.2,0.1-2.4,0-3.6l-0.2-1.9h-6.8l-0.2,1.9c-0.1,1.2-0.1,2.4,0,3.6l0.4,4h-4.5
			l0.4-4c0.1-1.2,0.1-2.4,0-3.6l-0.2-1.9h-6.8l-0.2,1.9c-0.1,1.2-0.1,2.4,0,3.6l0.4,4h-4.5l0.4-4c0.1-1.2,0.1-2.4,0-3.6l-0.2-1.9
			h-6.8l-0.2,1.9c-0.1,1.2-0.1,2.4,0,3.6l0.4,4h-0.5c-1.8,0-3.2,1.5-3.2,3.2s1.5,3.2,3.2,3.2h29c1.8,0,3.2-1.5,3.2-3.2
			S913.4,130.7,911.6,130.7z"/>
	</g>
</g>
<path id="圆角矩形_1-5" class="st9" d="M9.5,245l39.1-10c1.7-0.4,3.4-0.3,5,0.1l32.8,10.6c1.4,0.5,1.6,1.2,0.4,1.7L52.5,260
	c-2,0.6-4.1,0.6-6.1,0.1L8.7,246.9C7.2,246.3,7.5,245.5,9.5,245z"/>
<path id="圆角矩形_1-3" class="st9" d="M249.5,245l39.1-10c1.7-0.4,3.4-0.3,5,0.1l32.8,10.6c1.4,0.5,1.6,1.2,0.4,1.7L292.5,260
	c-2,0.6-4.1,0.6-6.1,0.1l-37.7-13.2C247.2,246.3,247.5,245.5,249.5,245z"/>
<path id="圆角矩形_1-2" class="st9" d="M249.5,55.3l39.1-10.1c1.7-0.3,3.4-0.3,5,0.2L326.3,56c1.4,0.5,1.6,1.2,0.4,1.7
	l-34.2,12.5c-2,0.7-4.1,0.7-6.1,0.1l-37.7-13.2C247.2,56.6,247.5,55.8,249.5,55.3z"/>
<path id="圆角矩形_1-4" class="st9" d="M9.5,55.3l39.1-10.1c1.7-0.3,3.4-0.3,5,0.2L86.3,56c1.4,0.5,1.6,1.2,0.4,1.7L52.5,70.2
	c-2,0.7-4.1,0.7-6.1,0.1L8.7,57.1C7.2,56.6,7.5,55.8,9.5,55.3z"/>
<path id="圆角矩形_1" class="st9" d="M609.2,144.5l39.1-10c1.6-0.4,3.4-0.3,5,0.1l32.8,10.6c1.4,0.5,1.6,1.2,0.4,1.7l-34.2,12.6
	c-2,0.6-4.1,0.7-6.1,0.1l-37.7-13.2C606.9,145.8,607.3,145,609.2,144.5z"/>
<path id="圆角矩形_1-6" class="st9" d="M856.6,145.3l39.1-10c1.7-0.4,3.4-0.3,5,0.1l32.8,10.6c1.4,0.5,1.6,1.2,0.4,1.7
	l-34.2,12.6c-2,0.6-4.1,0.7-6.1,0.1l-37.7-13.2C854.3,146.6,854.6,145.8,856.6,145.3z"/>
<g>
	<path d="M12.7,116.6c1,0,1.1-0.3,1.1-1.1v-4.9c0-0.9-0.1-1.1-1.1-1.1v-0.2h5.1c0,0.6,0.1,1.3,0.1,1.8l-0.2,0
		c-0.2-1.3-0.5-1.6-1.9-1.6h-1c-0.3,0-0.3,0-0.3,0.3v2.9h1.4c1.1,0,1.2-0.1,1.4-0.9h0.2v2.3h-0.2c-0.2-0.9-0.3-1.1-1.4-1.1h-1.4v2.3
		c0,0.9,0.1,1.1,1.3,1.1v0.2h-3V116.6z"/>
	<path d="M26.4,114.6c-0.2,0.6-0.4,1.6-0.6,2c-0.4,0.1-1.5,0.3-2.4,0.3c-3.1,0-4.5-2-4.5-3.8c0-2.4,2-4,4.7-4c1.2,0,1.9,0.3,2.3,0.3
		c0.1,0.6,0.2,1.2,0.2,1.9l-0.2,0c-0.3-1.4-1.2-1.9-2.7-1.9c-2.4,0-3.4,1.6-3.4,3.4c0,2.3,1.4,3.8,3.5,3.8c1.7,0,2.4-0.9,2.9-2.1
		L26.4,114.6z"/>
	<path d="M32,116.6c0.7-0.1,0.9-0.2,0.9-0.5c0-0.3-0.4-1.2-0.8-2.4h-2.8c-0.1,0.2-0.7,1.8-0.7,2.2c0,0.4,0.3,0.5,1,0.6v0.2h-2.7
		v-0.2c0.8-0.2,1-0.3,1.4-1.4l2.6-6.1l0.1-0.1l0.8,2.2c0.6,1.5,1.1,3,1.5,4.1c0.4,0.9,0.5,1,1.3,1.2v0.2H32V116.6z M30.8,110.2
		c-0.5,1.1-0.9,2.2-1.3,3.2H32L30.8,110.2L30.8,110.2z"/>
	<path d="M38,108.6c-0.4,0.1-0.5,0.2-0.7,0.2c-0.3,0-1.2-0.4-1.2-0.6c0,0,0-0.1,0.1-0.1c0.1,0,0.2,0,0.3,0c0.5,0,1.1,0.1,1.7,0.1
		c0.6,0,1.2,0,1.8,0c0.3,0,0.3-0.1,0.7-0.1c0.3,0,0.8,0.1,0.8,0.2c0,0.1-0.2,0.2-0.3,0.4c-1.1,2-2.7,3.7-5.1,4.9
		c-0.2,0.1-0.3,0.2-0.4,0.2c0,0,0,0,0,0c0,0,0.1-0.2,0.3-0.3c1.7-1.1,3.7-3.4,4.3-4.8L38,108.6z M38.9,114.4
		c-0.1-0.3-0.3-0.4-0.7-0.5c-0.1,0-0.3-0.1-0.3-0.1c0,0,0.1-0.1,0.3-0.2c0.6,0,1.3,0.1,1.5,0.2l3.3-0.1c0.3,0,0.3-0.1,0.6-0.1
		c0.2,0,0.7,0,0.7,0.2c0,0.1-0.1,0.2-0.2,0.3c-0.2,0.9-0.5,2.1-0.6,2.5c0.4,0,0.6,0.2,0.6,0.3c0,0.1-0.1,0.2-0.4,0.2h-4.1
		c-0.1,0.5-0.3,0.8-0.4,0.8c-0.1,0-0.2-0.2-0.2-0.7L38.9,114.4z M39.6,114.8l0,2l2.7,0c0.4,0,0.4-0.1,0.7-0.2l0.1-2.6l-3.5,0
		c0,0-0.2,0.1-0.2,0.2V114.8z M43.4,107.6c0-0.1-0.3-0.4-1-0.6c-0.2-0.1-0.3-0.1-0.3-0.2c0-0.1,0.1-0.1,0.4-0.1
		c0.6,0,0.9,0.2,1.3,0.3c0.3,0.1,0.4,0.2,0.4,0.3c0,0.1,0,0.2,0,0.3l0,3.2c0.2,0,0.3,0,0.5,0c0.6-0.1,0.3-0.3,1.2-0.3
		c0.2,0,0.7,0,0.7,0.3c0,0.1-0.1,0.3-0.3,0.3l-2.1,0c0,1.8-0.5,2-0.6,2c-0.1,0-0.2-0.1-0.2-0.5V107.6z"/>
	<path d="M49.8,108c0-0.3-0.4-0.4-0.9-0.6c-0.1,0-0.2-0.1-0.2-0.1c0-0.1,0.1-0.1,0.3-0.1c0.6,0,1.2,0.1,1.5,0.3c0.9,0,2,0,3.2-0.1
		c0.9-0.1,0.5-0.3,1.5-0.3c0.3,0,0.9,0,0.9,0.3c0,0.1-0.2,0.3-0.6,0.3c-1.3,0.1-3.7,0.1-4.9,0.1c-0.1,0.1-0.1,0-0.1,0.2
		c0,0.5,0,1.3,0,1.9c0,0.4,0.1,0.4,1.3,0.4c0.6,0,1.3,0,2.3-0.1c0.7-0.1,0.3-0.3,1.4-0.3c0.4,0,0.6,0.2,0.6,0.3
		c0,0.2-0.2,0.3-0.5,0.3c-0.1,0-2.2,0.1-2.5,0.1c0,0.6,0,1.1-0.1,1.6c1,0,1.9,0,2.7-0.1c0.5-0.1,0.5-0.2,1-0.2c0.3,0,1.3,0,1.3,0.4
		c0,0.2-0.2,0.3-0.5,0.3c0,0-0.1,0-0.1,0c-0.6,0-1.7,0-3,0c-1.6,0-3.5,0-4.8,0.2c-0.4,0.1-0.5,0.2-0.7,0.2c-0.2,0-1.5-0.5-1.5-0.7
		c0,0,0-0.1,0.2-0.1c0,0,0.1,0,0.2,0c0.7,0.1,1.6,0.2,2.5,0.2c0.7,0,1.4,0,2.1-0.1c0-0.5-0.1-1-0.1-1.6H51c-0.9,0-1.2-0.3-1.2-0.8
		L49.8,108z M55.1,114.2c-0.7,0-2.7,0.1-4,0.2c-0.4,0-0.5,0.2-0.8,0.2c-0.3,0-1.2-0.5-1.2-0.6c0,0,0-0.1,0.2-0.1c0,0,0.1,0,0.2,0
		c0.4,0.1,1.1,0.1,1.8,0.1c1.1,0,2.4-0.1,3.4-0.1c0.3,0,0.3-0.1,0.6-0.1h0.2c0.5,0,0.6,0.1,0.6,0.2c0,0.1-0.1,0.2-0.1,0.4
		c0,1.6,0,2.3-0.2,3c-0.1,0.3-0.3,0.5-0.4,0.5c-0.1,0-0.2-0.1-0.2-0.4V114.2z"/>
	<path d="M65,111c0-0.2-0.2-0.2-0.7-0.4c-0.1,0-0.2-0.1-0.2-0.2c0,0,0.1-0.1,0.3-0.1c1.2,0,1.4,0.1,1.4,0.3c0,0.1,0,0.1,0,0.2
		c0,1,0,1.5,0,2c0.9-0.1,3.4-0.5,4.2-0.7v-4.2c0-0.3-0.6-0.5-1-0.7c-0.2-0.1-0.3-0.1-0.3-0.2c0-0.1,0.1-0.1,0.6-0.1
		c1.3,0.2,1.5,0.4,1.5,0.6c0,0.1,0,0.2,0,0.3v4.1l0.5,0c0.6-0.1,0.4-0.3,1.1-0.3c0.3,0,0.7,0,0.7,0.3c0,0.1-0.1,0.3-0.3,0.3l-2,0
		l-0.1,2.3c-0.1,0.6-0.3,1-0.5,1c-0.1,0-0.2-0.1-0.2-0.4v-2.7c-1.5,0.4-3.2,0.8-5.3,1.2c-0.3,0.1-0.4,0.2-0.6,0.2
		c-0.2,0-1.6-0.6-1.6-0.8c0,0,0.1-0.1,0.2-0.1c0,0,0.1,0,0.1,0c0.4,0.1,0.8,0.1,1.2,0.1c0.4,0,0.8,0,1.1-0.1V111z M67.1,108.4
		c0.2,0,0.6-0.1,0.8-0.1c0.6,0,0.7,0.1,0.7,0.2c0,0.1-0.2,0.2-0.2,0.4c-0.2,0.7-0.4,2.1-1,2.7c-0.1,0.1-0.2,0.1-0.2,0.1
		c0,0,0,0,0-0.1s0-0.1,0.1-0.2c0.2-0.7,0.5-2.2,0.5-2.7c-0.9,0-2.4,0.2-2.9,0.2c-0.4,0.1-0.4,0.3-0.6,0.3c-0.2,0-1.2-0.4-1.2-0.6
		c0,0,0.1-0.1,0.2-0.1c0.1,0,0.1,0,0.2,0c0.4,0,0.9,0.1,1.3,0.1C65.4,108.6,66.3,108.5,67.1,108.4z M65.5,115.2c0-0.3-0.3-0.4-1-0.5
		c-0.1,0-0.1-0.1-0.1-0.1c0-0.1,0.1-0.1,0.4-0.2c1.3,0,1.5,0.1,1.5,0.3c0,0.1,0,0.2,0,0.3v1.6c0,0.3,0.1,0.3,0.5,0.3h2.7
		c1.1-0.1,0.6-0.3,1.7-0.3c0.3,0,0.8,0,0.8,0.3c0,0.2-0.1,0.3-0.4,0.3h-4.8c-0.7,0-1.1-0.2-1.1-0.7V115.2z"/>
	<path d="M82.4,107.8c0-0.2-0.4-0.5-1.1-0.8c-0.2-0.1-0.3-0.1-0.3-0.2c0-0.1,0.1-0.1,0.4-0.2c0.8,0.1,1.2,0.3,1.5,0.4
		c0.2,0.1,0.2,0.2,0.2,0.3c0,0.1,0,0.2,0,0.3l0,7.1c0,2.2-0.1,2.5-0.3,3c-0.1,0.1-0.2,0.2-0.2,0.2c-0.1,0-0.2-0.1-0.2-0.5v-3.8
		c-1.9,1-5.3,2-6.1,2c-0.3,0-0.6-0.5-0.6-0.9l0-2.1c0-0.4-0.5-0.5-0.9-0.6c-0.2,0-0.2-0.1-0.2-0.2c0-0.1,0.1-0.2,0.4-0.2
		c0.6,0,1.2,0.1,1.5,0.2c0.6,0,1.3-0.1,1.8-0.1c0.3,0,0.4-0.1,0.6-0.2c0-0.6,0.1-1.5,0.1-2.3c-0.8,0-1.7,0.1-2.4,0.2
		c-0.3,0.1-0.4,0.2-0.5,0.2c-0.2,0-1.2-0.5-1.2-0.6c0,0,0-0.1,0.2-0.1c0,0,0.1,0,0.1,0c0.5,0.1,0.9,0.1,1.5,0.1c0.6,0,1.2,0,2-0.1
		c0.4,0,0.2-0.2,0.9-0.2c0.4,0,0.6,0.1,0.6,0.2c0,0.1-0.2,0.3-0.3,0.4c-0.1,0.5-0.4,1.6-0.5,2.1c0.4,0,0.6,0.2,0.6,0.3
		c0,0.1-0.1,0.2-0.3,0.2c-0.9,0-2.1,0.1-2.9,0.2c-0.2,0.1-0.3,0-0.3,0.3v0.1c0,0.9,0,1.3,0,2.1c0,0.2,0.1,0.3,0.3,0.3
		c0,0,0.1,0,0.1,0c1.4-0.1,3.6-0.5,5.5-1.5V107.8z"/>
	<path d="M27,123c0.2,0,0.3-0.1,0.3-0.2c0-0.1,0-0.1-0.1-0.2c-0.1-0.1-0.2-0.1-0.2-0.2c0,0,0-0.1,0.2-0.1c0.4,0,0.8,0.2,0.8,0.4
		c0,0.1-0.1,0.3-0.2,0.4c1.4,0.3,2,1.2,2,2.1c0,1.1-1,2.1-2.5,2.1c-1.7,0-2.6-1-2.6-2.1C24.7,124.2,25.5,123.2,27,123z M25.5,125.1
		c0,0.8,0.6,1.6,1.8,1.6c1.2,0,1.8-0.8,1.8-1.6c0-0.8-0.6-1.6-1.8-1.6C26.1,123.5,25.5,124.3,25.5,125.1z M28,129.2
		c0-0.2-0.3-0.3-0.9-0.5c-0.1,0-0.2-0.1-0.2-0.1c0-0.1,0.1-0.1,0.4-0.2c0.6,0,1,0,1.3,0.1c0.2,0,0.3,0.1,0.3,0.2c0,0.1,0,0.2,0,0.3
		c0,0.5,0,1.2,0,1.7c0,0.3,0.2,0.4,0.6,0.4l2.2,0c0.9-0.1,0.5-0.3,1.5-0.3c0.4,0,0.9,0,0.9,0.4c0,0.1-0.1,0.3-0.3,0.3h-4.3
		c-0.8,0-1.2-0.2-1.3-0.8L28,129.2z M32,122.1c0-0.1-0.3-0.3-1-0.7c-0.2-0.1-0.3-0.1-0.3-0.2c0-0.1,0.1-0.1,0.4-0.1
		c0,0,1.7,0.2,1.7,0.6c0,0.1,0,0.2,0,0.3l0,3.8c0.2,0,0.4,0,0.5,0c0.6-0.1,0.3-0.3,1.2-0.3c0.2,0,0.7,0,0.7,0.3
		c0,0.2-0.1,0.3-0.3,0.3l-2.1,0c0,2.2-0.1,2.7-0.2,3c-0.1,0.2-0.2,0.4-0.3,0.4s-0.2-0.1-0.2-0.5V122.1z"/>
	<path d="M42,124.8c-0.1,1.2-1,2-2.5,2c-1.6,0-2.4-1.1-2.4-2.1c0-0.9,0.6-1.8,2-2l0.1,0c0.2,0,0.3-0.1,0.3-0.3c0-0.1,0-0.1,0-0.2
		c-0.1-0.1-0.2-0.1-0.2-0.2c0,0,0-0.1,0.1-0.1c0.3,0,0.7,0.2,0.7,0.4c0,0.1-0.1,0.2-0.2,0.4c1.4,0.2,2.1,1,2.1,1.8L42,124.8z
		 M37.7,124.7c0,0.8,0.6,1.6,1.7,1.6c1.2,0,1.9-0.8,1.9-1.6c0-0.8-0.6-1.6-1.9-1.6C38.3,123.1,37.7,123.9,37.7,124.7z M42.6,128
		c0-0.1-0.1-0.2-0.2-0.3c-0.1,0-0.1-0.1-0.1-0.2s0-0.1,0.1-0.1c0.2,0,0.8,0.2,0.8,0.4c0,0.1-0.1,0.2-0.2,0.3c1.3,0.2,2,1.1,2,1.9
		c0,1-0.8,1.9-2.4,1.9c-1.5,0-2.3-1-2.3-1.9c0-0.9,0.6-1.8,2-1.9C42.5,128.2,42.6,128.1,42.6,128z M41,130c0,0.7,0.6,1.5,1.7,1.5
		c1.1,0,1.7-0.7,1.7-1.5c0-0.7-0.6-1.5-1.7-1.5C41.6,128.6,41,129.3,41,130z M44.6,122.2c0-0.3-0.5-0.6-1-0.8
		c-0.1,0-0.3-0.1-0.3-0.2c0-0.1,0.3-0.1,0.4-0.1c0.3,0,1.2,0.2,1.4,0.3c0.3,0.1,0.4,0.2,0.4,0.3c0,0.1,0,0.2,0,0.4l0,3.7
		c0,1.6-0.1,1.8-0.3,2.2c-0.1,0.2-0.2,0.3-0.3,0.3c-0.1,0-0.2-0.3-0.2-0.7V126c-0.4,0-0.8,0.1-1.2,0.1c-0.2,0-0.3,0.1-0.4,0.1
		c-0.2,0-1-0.4-1-0.5c0,0,0.1-0.1,0.2-0.1c0.1,0,0.5,0,0.6,0c0.6,0,1.2,0,1.8-0.1v-1.8c-0.5,0-0.9,0.1-1.1,0.1
		c-0.3,0-0.3,0.1-0.4,0.1c-0.2,0-1-0.3-1-0.5c0,0,0,0,0.1,0c0.1,0,0.1,0,0.3,0c0.3,0,0.5,0,0.7,0c0.6,0,0.8,0,1.5-0.1V122.2z"/>
	<path d="M53.1,123c-0.4,0.1-0.5,0.2-0.7,0.2c-0.3,0-1.2-0.4-1.2-0.6c0,0,0-0.1,0.1-0.1c0.1,0,0.2,0,0.3,0c0.5,0,1.1,0.1,1.7,0.1
		c0.6,0,1.2,0,1.8,0c0.3,0,0.3-0.1,0.7-0.1c0.3,0,0.8,0.1,0.8,0.2c0,0.1-0.2,0.2-0.3,0.4c-1.1,2-2.7,3.7-5.1,4.9
		c-0.2,0.1-0.3,0.2-0.4,0.2c0,0,0,0,0,0c0,0,0.1-0.2,0.3-0.3c1.7-1.1,3.7-3.4,4.3-4.8L53.1,123z M54,128.8c-0.1-0.3-0.3-0.4-0.7-0.5
		c-0.1,0-0.3-0.1-0.3-0.1c0,0,0.1-0.1,0.3-0.2c0.6,0,1.3,0.1,1.5,0.2l3.3-0.1c0.3,0,0.3-0.1,0.6-0.1c0.2,0,0.7,0,0.7,0.2
		c0,0.1-0.1,0.2-0.2,0.3c-0.2,0.9-0.5,2.1-0.6,2.5c0.4,0,0.6,0.2,0.6,0.3c0,0.1-0.1,0.2-0.4,0.2h-4.1c-0.1,0.5-0.3,0.8-0.4,0.8
		c-0.1,0-0.2-0.2-0.2-0.7L54,128.8z M54.8,129.2l0,2l2.7,0c0.4,0,0.4-0.1,0.7-0.2l0.1-2.6l-3.5,0c0,0-0.2,0.1-0.2,0.2V129.2z
		 M58.5,122c0-0.1-0.3-0.4-1-0.6c-0.2-0.1-0.3-0.1-0.3-0.2c0-0.1,0.1-0.1,0.4-0.1c0.6,0,0.9,0.2,1.3,0.3c0.3,0.1,0.4,0.2,0.4,0.3
		c0,0.1,0,0.2,0,0.3l0,3.2c0.2,0,0.3,0,0.5,0c0.6-0.1,0.3-0.3,1.2-0.3c0.2,0,0.7,0,0.7,0.3c0,0.1-0.1,0.3-0.3,0.3l-2.1,0
		c0,1.8-0.5,2-0.6,2c-0.1,0-0.2-0.1-0.2-0.5V122z"/>
	<path d="M62.5,128.6c1.1-1,2.8-3,3.4-5c0-0.2,0-0.3-0.6-0.8c-0.3-0.2-0.3-0.3,0-0.3c0.1,0,0.3,0,0.5,0.1c0.9,0.4,1.2,0.6,1.2,0.8
		c0,0.1-0.1,0.4-0.9,1.8c0.3,0.5,0.7,0.9,1.3,1.3c0.5,0.4,0.6,0.3,1,1.1c0.1,0.2,0.2,0.4,0.2,0.6c0,0.2-0.1,0.4-0.2,0.4
		c-0.1,0-0.2,0-0.3-0.1c-0.4-0.5-1.2-1.7-2.2-2.9c-1.3,1.9-3.2,3.4-3.5,3.4c0,0,0,0,0,0C62.3,128.8,62.4,128.7,62.5,128.6z
		 M70.5,122c0-0.2-0.7-0.5-1.2-0.7c-0.1,0-0.2-0.1-0.2-0.2c0-0.1,0.1-0.1,0.5-0.1c0.5,0.1,1,0.2,1.4,0.3c0.3,0.1,0.3,0.2,0.3,0.3
		c0,0.1,0,0.2,0,0.4v4.4h0.6c0.6-0.1,0.4-0.3,1.1-0.3c0.2,0,0.7,0,0.7,0.4c0,0.2-0.1,0.3-0.4,0.3h-2.1l0,3.5c0,0.8-0.1,1.3-0.3,1.8
		c-0.1,0.1-0.2,0.2-0.3,0.2c-0.1,0-0.2-0.2-0.2-0.6V122z"/>
</g>
<g>
	<path d="M249.8,109c0.2,0,0.2-0.1,0.5-0.1c0.6,0,0.8,0,0.8,0.2s-0.2,0.3-0.3,0.4c-0.5,0.8-1.2,1.9-1.6,2.4c0.3,0.3,0.8,0.7,1,0.9
		c0.5,0.3,0.6,0.1,1.2,1c0.2,0.3,0.2,0.5,0.2,0.6c0,0.2-0.1,0.3-0.2,0.3c-0.1,0-0.2-0.1-0.4-0.2c-0.3-0.4-1-1.1-2.2-2.3
		c-1.4,1.6-3.6,3-4,3c0,0,0,0,0,0c0,0,0.1-0.1,0.3-0.3c1.5-1,3.7-3,4.8-5.5c-0.6,0-2.2,0.1-2.6,0.1c-0.3,0.1-0.4,0.2-0.5,0.2
		c-0.2,0-1.2-0.5-1.2-0.6c0,0,0-0.1,0.1-0.1c0.1,0,0.1,0,0.2,0c0.4,0,0.8,0.1,1.3,0.1C248.1,109.1,249.4,109,249.8,109z
		 M252.8,107.6c0-0.2-0.7-0.5-1.2-0.7c-0.1,0-0.2-0.1-0.2-0.2c0-0.1,0.1-0.1,0.5-0.1c0.5,0.1,1,0.2,1.4,0.3c0.3,0.1,0.3,0.2,0.3,0.3
		c0,0.1,0,0.2,0,0.4v4.4h0.6c0.6-0.1,0.4-0.3,1.1-0.3c0.2,0,0.7,0,0.7,0.4c0,0.2-0.1,0.3-0.4,0.3h-2.1l0,3.5c0,0.8-0.1,1.3-0.3,1.8
		c-0.1,0.1-0.2,0.2-0.3,0.2c-0.1,0-0.2-0.2-0.2-0.6V107.6z"/>
	<path d="M257,112.7c2.2-1.5,3.4-3.6,3.4-3.8s-0.2-0.4-0.6-0.8c-0.2-0.1-0.3-0.2-0.3-0.2c0-0.1,0.1-0.1,0.2-0.1c0.1,0,0.1,0,0.2,0
		c0.3,0.1,1.5,0.6,1.5,0.9c0,0.2-0.3,0.5-0.7,1.3c0.4,0.4,0.6,0.6,0.9,0.9c0.7,0.5,0.6,0,1.5,1.2c0.1,0.1,0.1,0.3,0.1,0.3
		c0,0.2-0.1,0.3-0.3,0.3c-0.1,0-0.2,0-0.3-0.1c-0.6-0.6-1.7-1.8-2.2-2.4c-1.1,1.2-2,1.9-3.4,2.6c-0.1,0.1-0.2,0.1-0.3,0.1
		c0,0-0.1,0-0.1,0C256.8,112.9,256.8,112.8,257,112.7z M260.7,114.8c0-0.2-0.3-0.3-0.9-0.5c-0.1,0-0.2-0.1-0.2-0.1
		c0-0.1,0.1-0.1,0.4-0.2c0.6,0,1,0,1.3,0.1c0.2,0,0.3,0.1,0.3,0.2c0,0.1,0,0.2,0,0.3c0,0.5,0,1.2,0,1.7c0,0.3,0.2,0.4,0.6,0.4l2.2,0
		c0.9-0.1,0.5-0.3,1.5-0.3c0.4,0,0.9,0,0.9,0.4c0,0.1-0.1,0.3-0.3,0.3H262c-0.8,0-1.2-0.2-1.3-0.8L260.7,114.8z M264.8,107.7
		c0-0.1-0.3-0.3-1-0.7c-0.2-0.1-0.3-0.1-0.3-0.2c0-0.1,0.1-0.1,0.4-0.1c0,0,1.7,0.2,1.7,0.6c0,0.1,0,0.2,0,0.3l0,3.8
		c0.2,0,0.4,0,0.5,0c0.6-0.1,0.3-0.3,1.2-0.3c0.2,0,0.7,0,0.7,0.3c0,0.2-0.1,0.3-0.3,0.3l-2.1,0c0,2.2-0.1,2.7-0.2,3
		c-0.1,0.2-0.2,0.4-0.3,0.4s-0.2-0.1-0.2-0.5V107.7z"/>
	<path d="M274.4,111c0-0.2-0.2-0.2-0.7-0.4c-0.1,0-0.2-0.1-0.2-0.2c0,0,0.1-0.1,0.3-0.1c1.2,0,1.4,0.1,1.4,0.3c0,0.1,0,0.1,0,0.2
		c0,1,0,1.5,0,2c0.9-0.1,3.4-0.5,4.2-0.7v-4.2c0-0.3-0.6-0.5-1-0.7c-0.2-0.1-0.3-0.1-0.3-0.2c0-0.1,0.1-0.1,0.6-0.1
		c1.3,0.2,1.5,0.4,1.5,0.6c0,0.1,0,0.2,0,0.3v4.1l0.5,0c0.6-0.1,0.4-0.3,1.1-0.3c0.3,0,0.7,0,0.7,0.3c0,0.1-0.1,0.3-0.3,0.3l-2,0
		l-0.1,2.3c-0.1,0.6-0.3,1-0.5,1c-0.1,0-0.2-0.1-0.2-0.4v-2.7c-1.5,0.4-3.2,0.8-5.3,1.2c-0.3,0.1-0.4,0.2-0.6,0.2
		c-0.2,0-1.6-0.6-1.6-0.8c0,0,0.1-0.1,0.2-0.1c0,0,0.1,0,0.1,0c0.4,0.1,0.8,0.1,1.2,0.1c0.4,0,0.8,0,1.1-0.1V111z M276.6,108.4
		c0.2,0,0.6-0.1,0.8-0.1c0.6,0,0.7,0.1,0.7,0.2c0,0.1-0.2,0.2-0.2,0.4c-0.2,0.7-0.4,2.1-1,2.7c-0.1,0.1-0.2,0.1-0.2,0.1
		c0,0,0,0,0-0.1s0-0.1,0.1-0.2c0.2-0.7,0.5-2.2,0.5-2.7c-0.9,0-2.4,0.2-2.9,0.2c-0.4,0.1-0.4,0.3-0.6,0.3c-0.2,0-1.2-0.4-1.2-0.6
		c0,0,0.1-0.1,0.2-0.1c0.1,0,0.1,0,0.2,0c0.4,0,0.9,0.1,1.3,0.1C274.8,108.6,275.8,108.5,276.6,108.4z M274.9,115.2
		c0-0.3-0.3-0.4-1-0.5c-0.1,0-0.1-0.1-0.1-0.1c0-0.1,0.1-0.1,0.4-0.2c1.3,0,1.5,0.1,1.5,0.3c0,0.1,0,0.2,0,0.3v1.6
		c0,0.3,0.1,0.3,0.5,0.3h2.7c1.1-0.1,0.6-0.3,1.7-0.3c0.3,0,0.8,0,0.8,0.3c0,0.2-0.1,0.3-0.4,0.3H276c-0.7,0-1.1-0.2-1.1-0.7V115.2z
		"/>
	<path d="M291.8,107.8c0-0.2-0.4-0.5-1.1-0.8c-0.2-0.1-0.3-0.1-0.3-0.2c0-0.1,0.1-0.1,0.4-0.2c0.8,0.1,1.2,0.3,1.5,0.4
		c0.2,0.1,0.2,0.2,0.2,0.3c0,0.1,0,0.2,0,0.3l0,7.1c0,2.2-0.1,2.5-0.3,3c-0.1,0.1-0.2,0.2-0.2,0.2c-0.1,0-0.2-0.1-0.2-0.5v-3.8
		c-1.9,1-5.3,2-6.1,2c-0.3,0-0.6-0.5-0.6-0.9l0-2.1c0-0.4-0.5-0.5-0.9-0.6c-0.2,0-0.2-0.1-0.2-0.2c0-0.1,0.1-0.2,0.4-0.2
		c0.6,0,1.2,0.1,1.5,0.2c0.6,0,1.3-0.1,1.8-0.1c0.3,0,0.4-0.1,0.6-0.2c0-0.6,0.1-1.5,0.1-2.3c-0.8,0-1.7,0.1-2.4,0.2
		c-0.3,0.1-0.4,0.2-0.5,0.2c-0.2,0-1.2-0.5-1.2-0.6c0,0,0-0.1,0.2-0.1c0,0,0.1,0,0.1,0c0.5,0.1,0.9,0.1,1.5,0.1c0.6,0,1.2,0,2-0.1
		c0.4,0,0.2-0.2,0.9-0.2c0.4,0,0.6,0.1,0.6,0.2c0,0.1-0.2,0.3-0.3,0.4c-0.1,0.5-0.4,1.6-0.5,2.1c0.4,0,0.6,0.2,0.6,0.3
		c0,0.1-0.1,0.2-0.3,0.2c-0.9,0-2.1,0.1-2.9,0.2c-0.2,0.1-0.3,0-0.3,0.3v0.1c0,0.9,0,1.3,0,2.1c0,0.2,0.1,0.3,0.3,0.3
		c0,0,0.1,0,0.1,0c1.4-0.1,3.6-0.5,5.5-1.5V107.8z"/>
	<path d="M308.2,112.3c-0.6,0-1.4-0.1-2.2-0.1c-0.9,0-1.9,0-2.5,0c-0.8,0-3,0.2-3.5,0.2c-0.4,0-0.4,0.2-0.6,0.2
		c-0.3,0-1.5-0.5-1.5-0.7c0,0,0-0.1,0.2-0.1c0.1,0,0.1,0,0.2,0c0.3,0.1,1.1,0.1,2.1,0.1c1.7,0,4-0.1,5.9-0.2c0.6,0,0.5-0.2,1.2-0.2
		c0.6,0,1.2,0,1.2,0.4C308.6,112.2,308.5,112.3,308.2,112.3L308.2,112.3z M304.5,107c0.7-0.1,0.4-0.3,1.3-0.3c0.2,0,1,0,1,0.4
		c0,0,0,0.3-0.5,0.3c-1.7,0-4.3,0.1-5.1,0.1c-0.3,0.1-0.4,0.2-0.5,0.2s-1.3-0.4-1.3-0.7c0,0,0,0,0.1,0c0.1,0,0.2,0,0.3,0
		c0.6,0.1,1.3,0.1,2,0.1C301.9,107.2,304.1,107.1,304.5,107z M302.9,110.6c-0.4,0-1.2,0.1-1.6,0.1c-0.3,0.1-0.4,0.2-0.5,0.2
		c-0.2,0-1.2-0.5-1.2-0.6c0,0,0.1-0.1,0.2-0.1c0,0,0.1,0,0.2,0c0.5,0.1,1.2,0.1,1.8,0.1c0.7,0,1.5,0,2.1-0.1
		c0.3-0.8,0.5-1.8,0.5-1.8c0-0.2-0.1-0.3-0.3-0.4c-0.1,0-0.2-0.1-0.2-0.2c0-0.1,0.1-0.1,0.4-0.1c0,0,1.1,0.3,1.1,0.5
		c0,0.1-0.1,0.2-0.2,0.3c-0.3,0.5-0.7,1.2-1,1.6c0.2,0,0.4,0,0.6-0.1c0.5-0.1,0.2-0.3,1-0.3c0.3,0,0.9,0,0.9,0.4
		c0,0.2-0.2,0.3-0.5,0.3c-0.8,0-1.9,0-2.6,0L302.9,110.6z M300.8,115.8c0-0.1-0.3-0.2-0.6-0.3c-0.1,0-0.2-0.1-0.2-0.1
		c0-0.1,0.2-0.2,0.5-0.2c0.5,0,1.1,0.1,1.3,0.2c1.1,0,1.7,0,2.9-0.1c0.3,0,0.3-0.1,0.7-0.1c0-0.3,0-0.7,0.1-1.3
		c-0.8,0-2.4,0.1-3.5,0.1c-0.3,0.1-0.4,0.2-0.6,0.2c-0.2,0-1.2-0.4-1.2-0.5c0,0,0-0.1,0.2-0.1c0,0,0.1,0,0.2,0c0.4,0,1,0.1,1.7,0.1
		c0.9,0,2.1,0,3-0.1c0.2-0.1,0.2-0.1,0.4-0.1c0.8,0,0.8,0.1,0.8,0.2c0,0.1-0.1,0.2-0.2,0.3c-0.1,0.4-0.3,0.9-0.4,1.1
		c0.3,0.1,0.5,0.2,0.5,0.3c0,0.1-0.1,0.2-0.4,0.2c-0.9,0-2.7,0.1-3.9,0.1c-0.1,0.1-0.2,0-0.2,0.2v1c0,0.2,0.1,0.3,0.3,0.3
		c0.2,0,0.6,0,1,0c0.6,0,1.3,0,2,0c0.7-0.1,0.5-0.3,1.2-0.3c0.3,0,0.9,0,0.9,0.3c0,0.1-0.2,0.3-0.4,0.3h-4.7c-0.9,0-1.1-0.3-1.1-0.7
		V115.8z M302.2,109.7c-0.1,0.3-0.2,0.5-0.4,0.5c-0.1,0-0.2-0.1-0.3-0.2c-0.1-0.4-0.3-1.1-0.5-1.5c-0.1-0.2-0.2-0.3-0.2-0.3
		c0,0,0,0,0,0c0.3,0,1.2,0.9,1.3,1.4V109.7z"/>
	<path d="M316.5,108.3c0-0.3-0.4-0.4-0.8-0.6c-0.1,0-0.2-0.1-0.2-0.2s0.1-0.1,0.4-0.1c1.2,0.2,1.4,0.3,1.4,0.5c0,0.1,0,0.2,0,0.3
		v2.7l1.5,0v-3c0-0.2-0.5-0.5-1-0.7c-0.1-0.1-0.3-0.1-0.3-0.2s0.1-0.1,0.4-0.1c1.3,0.3,1.5,0.5,1.5,0.6c0,0.1,0,0.2,0,0.3l-0.1,4.8
		c0,0.7-0.3,1.2-0.4,1.2c-0.1,0-0.2-0.2-0.2-0.6l0-1.9l-1.5,0l0,1c-0.1,0.6-0.3,0.9-0.4,0.9c-0.1,0-0.2-0.2-0.2-0.5v-1
		c-1.3,0.8-3.6,1.6-4.2,1.6c-0.4,0-0.5-0.5-0.6-0.9l0-1.3c0-0.2-0.2-0.3-0.7-0.5c-0.1,0-0.1-0.1-0.1-0.1c0,0,0.1-0.1,0.3-0.1
		c0.6,0,1,0.1,1.3,0.2c0.2,0,0.5,0,1.1-0.1c0.3,0,0.3-0.1,0.5-0.2c0-0.5,0.1-1.1,0.1-1.5c-0.7,0-1.3,0.1-1.7,0.1
		c-0.3,0-0.3,0.2-0.5,0.2c-0.2,0-1-0.3-1-0.5c0,0,0-0.1,0.2-0.1c0,0,0.1,0,0.2,0c0.3,0,0.5,0,0.8,0c0.5,0,1.1,0,1.6,0
		c0.3,0,0-0.1,0.9-0.1c0.4,0,0.5,0.1,0.5,0.1s-0.1,0.2-0.2,0.3c-0.1,0.5-0.2,0.9-0.3,1.4c0.3,0,0.4,0.1,0.4,0.2
		c0,0.1-0.2,0.2-0.5,0.2c-0.4,0-1.4,0.1-1.9,0.1c-0.1,0.1-0.2,0-0.2,0.1c0,0.4,0,0.9,0,1.4c0,0.1,0.1,0.2,0.3,0.2
		c0.1,0,2-0.3,3.7-1.2V108.3z M316.2,114c0-0.2-0.3-0.4-0.6-0.6c-0.1-0.1-0.2-0.1-0.2-0.2c0-0.1,0.2-0.1,0.4-0.1
		c0.3,0,1.4,0.5,1.4,0.7c0,0.1-0.2,0.3-0.5,0.9c0.6,0.5,1.1,0.9,1.4,1.1c0.6,0.3,0.6,0,1.7,1.3c0.1,0.1,0.1,0.3,0.1,0.4
		c0,0.1-0.1,0.2-0.2,0.2c-0.1,0-0.2,0-0.3-0.1c-0.6-0.5-2.1-1.9-2.9-2.5c-1.1,1.4-2.4,2.4-3.9,2.9c-0.1,0-0.2,0-0.2,0
		c0,0-0.1,0-0.1,0c0,0,0.1-0.1,0.2-0.2c1.3-0.6,2.7-1.8,3.7-3.5C316.2,114.1,316.2,114,316.2,114z"/>
	<path d="M325.2,110.7c-0.3,0.1-0.4,0.2-0.5,0.2c-0.2,0-1.2-0.5-1.2-0.6c0,0,0.1-0.1,0.2-0.1c0,0,0.1,0,0.1,0
		c0.6,0.1,1.2,0.1,1.9,0.1c0.7,0,1.4,0,2-0.1c0.4-1.1,0.6-1.8,0.6-1.8c0-0.2-0.1-0.3-0.3-0.4c-0.1,0-0.2-0.1-0.2-0.2
		c0-0.1,0.1-0.1,0.4-0.1c0,0,1.1,0.3,1.1,0.5c0,0.1-0.1,0.2-0.2,0.3c-0.4,0.5-0.7,1.1-1,1.6c0.2,0,0.4,0,0.6-0.1
		c0.5-0.1,0.2-0.3,1.1-0.3c0.3,0,0.9,0,0.9,0.4c0,0.1-0.2,0.3-0.5,0.3c-0.8,0-1.9,0-2.6,0c0,0.6,0,1.1-0.1,1.5c1,0,1.9,0,2.7-0.1
		c0.5-0.1,0.5-0.2,1-0.2c0.3,0,1.3,0,1.3,0.4c0,0.2-0.2,0.3-0.5,0.3c0,0-0.1,0-0.1,0c-0.6,0-1.7,0-3,0c-1.6,0-3.5,0-4.8,0.2
		c-0.4,0.1-0.5,0.2-0.7,0.2c-0.2,0-1.5-0.5-1.5-0.7c0,0,0-0.1,0.2-0.1c0,0,0.1,0,0.2,0c0.7,0.1,1.6,0.2,2.5,0.2c0.7,0,1.4,0,2.1-0.1
		c0-0.5-0.1-1-0.1-1.5C326.1,110.7,325.6,110.7,325.2,110.7z M328.6,107.2c0.7-0.1,0.4-0.3,1.3-0.3c0.1,0,1,0,1,0.4
		c0,0,0,0.3-0.5,0.3c-1.7,0-4.3,0.1-5.1,0.1c-0.3,0.1-0.4,0.2-0.5,0.2c-0.2,0-1.3-0.4-1.3-0.7c0,0,0-0.1,0.1-0.1c0.1,0,0.2,0,0.3,0
		c0.6,0.1,1.3,0.1,2,0.1C326.6,107.3,328.3,107.2,328.6,107.2z M324.1,114.1c-0.1,0-0.3-0.1-0.3-0.2c0-0.1,0.1-0.1,0.4-0.2
		c0.5,0,1,0.1,1.4,0.2c0.6,0,2.7-0.1,3.3-0.1c0.3-0.1,0-0.1,0.8-0.1c0.5,0,0.6,0.1,0.6,0.2c0,0.1-0.2,0.2-0.2,0.4
		c-0.2,0.8-0.4,1.9-0.5,2.3c0.4,0,0.5,0.2,0.5,0.3c0,0.1-0.1,0.2-0.4,0.2c-0.8,0-3.3,0.1-4.1,0.1c-0.1,0.4-0.2,0.6-0.4,0.6
		c-0.1,0-0.2-0.1-0.2-0.5c0,0-0.2-2.4-0.2-2.8C324.8,114.3,324.4,114.2,324.1,114.1z M326.2,109.5c0,0.5-0.3,0.7-0.4,0.7
		c-0.1,0-0.2-0.1-0.3-0.3c-0.1-0.3-0.4-1.1-0.6-1.5c-0.1-0.1-0.1-0.3-0.1-0.3c0,0,0,0,0,0C325.1,108,326.1,108.9,326.2,109.5z
		 M328.4,116.8c0.3,0,0.4-0.1,0.7-0.2c0-0.5,0.1-1.9,0.1-2.5c-0.6,0-2.7,0.1-3.6,0.1c-0.1,0.1-0.1,0.1-0.1,0.2l0.1,2.4L328.4,116.8z
		"/>
</g>
<g>
	<path d="M612.2,192.5c0.2,0,0.2-0.1,0.5-0.1c0.6,0,0.8,0,0.8,0.2c0,0.1-0.2,0.3-0.3,0.4c-0.5,0.8-1.2,1.9-1.6,2.4
		c0.3,0.3,0.8,0.7,1,0.9c0.5,0.3,0.6,0.1,1.2,1c0.2,0.3,0.2,0.5,0.2,0.6c0,0.2-0.1,0.3-0.2,0.3c-0.1,0-0.2-0.1-0.4-0.2
		c-0.3-0.4-1-1.1-2.2-2.3c-1.4,1.6-3.6,3-4,3c0,0,0,0,0,0c0,0,0.1-0.1,0.3-0.3c1.5-1,3.7-3,4.8-5.5c-0.6,0-2.2,0.1-2.6,0.1
		c-0.3,0.1-0.4,0.2-0.5,0.2c-0.2,0-1.2-0.5-1.2-0.6c0,0,0-0.1,0.1-0.1c0.1,0,0.1,0,0.2,0c0.4,0,0.8,0.1,1.3,0.1
		C610.5,192.6,611.9,192.6,612.2,192.5z M615.2,191.2c0-0.2-0.7-0.5-1.2-0.7c-0.1,0-0.2-0.1-0.2-0.2c0-0.1,0.1-0.1,0.5-0.1
		c0.5,0.1,1,0.2,1.4,0.3c0.3,0.1,0.3,0.2,0.3,0.3c0,0.1,0,0.2,0,0.4v4.4h0.6c0.6-0.1,0.4-0.3,1.1-0.3c0.2,0,0.7,0,0.7,0.4
		c0,0.2-0.1,0.3-0.4,0.3H616l0,3.5c0,0.8-0.1,1.3-0.3,1.8c-0.1,0.1-0.2,0.2-0.3,0.2c-0.1,0-0.2-0.2-0.2-0.6V191.2z"/>
	<path d="M619.4,196.2c2.2-1.5,3.4-3.6,3.4-3.8c0-0.2-0.2-0.4-0.6-0.8c-0.2-0.1-0.3-0.2-0.3-0.2s0.1-0.1,0.2-0.1c0.1,0,0.1,0,0.2,0
		c0.3,0.1,1.5,0.6,1.5,0.9c0,0.2-0.3,0.5-0.7,1.3c0.4,0.4,0.6,0.6,0.9,0.9c0.7,0.5,0.6,0,1.5,1.2c0.1,0.1,0.1,0.3,0.1,0.3
		c0,0.2-0.1,0.3-0.3,0.3c-0.1,0-0.2,0-0.3-0.1c-0.6-0.6-1.7-1.8-2.2-2.4c-1.1,1.2-2,1.9-3.4,2.6c-0.1,0.1-0.2,0.1-0.3,0.1
		c0,0-0.1,0-0.1,0C619.2,196.4,619.3,196.3,619.4,196.2z M623.2,198.4c0-0.2-0.3-0.3-0.9-0.5c-0.1,0-0.2-0.1-0.2-0.1
		s0.1-0.1,0.4-0.2c0.6,0,1,0,1.3,0.1c0.2,0,0.3,0.1,0.3,0.2c0,0.1,0,0.2,0,0.3c0,0.5,0,1.2,0,1.7c0,0.3,0.2,0.4,0.6,0.4l2.2,0
		c0.9-0.1,0.5-0.3,1.5-0.3c0.4,0,0.9,0,0.9,0.4c0,0.1-0.1,0.3-0.3,0.3h-4.3c-0.8,0-1.2-0.2-1.3-0.8L623.2,198.4z M627.2,191.3
		c0-0.1-0.3-0.3-1-0.7c-0.2-0.1-0.3-0.1-0.3-0.2c0-0.1,0.1-0.1,0.4-0.1c0,0,1.7,0.2,1.7,0.6c0,0.1,0,0.2,0,0.3l0,3.8
		c0.2,0,0.4,0,0.5,0c0.6-0.1,0.3-0.3,1.2-0.3c0.2,0,0.7,0,0.7,0.3c0,0.2-0.1,0.3-0.3,0.3l-2.1,0c0,2.2-0.1,2.7-0.2,3
		c-0.1,0.2-0.2,0.4-0.3,0.4c-0.1,0-0.2-0.1-0.2-0.5V191.3z"/>
	<path d="M636.8,194.6c0-0.2-0.2-0.2-0.7-0.4c-0.1,0-0.2-0.1-0.2-0.2c0,0,0.1-0.1,0.3-0.1c1.2,0,1.4,0.1,1.4,0.3c0,0.1,0,0.1,0,0.2
		c0,1,0,1.5,0,2c0.9-0.1,3.4-0.5,4.2-0.7v-4.2c0-0.3-0.6-0.5-1-0.7c-0.2-0.1-0.3-0.1-0.3-0.2s0.1-0.1,0.6-0.1
		c1.3,0.2,1.5,0.4,1.5,0.6c0,0.1,0,0.2,0,0.3v4.2l0.5,0c0.6-0.1,0.4-0.3,1.1-0.3c0.3,0,0.7,0,0.7,0.3c0,0.1-0.1,0.3-0.3,0.3l-2,0
		l-0.1,2.3c-0.1,0.6-0.3,1-0.5,1c-0.1,0-0.2-0.1-0.2-0.4v-2.7c-1.5,0.4-3.2,0.8-5.3,1.2c-0.3,0.1-0.4,0.2-0.6,0.2
		c-0.2,0-1.6-0.6-1.6-0.8c0,0,0.1-0.1,0.2-0.1c0,0,0.1,0,0.1,0c0.4,0.1,0.8,0.1,1.2,0.1c0.4,0,0.8,0,1.1-0.1V194.6z M639,192
		c0.2,0,0.6-0.1,0.8-0.1c0.6,0,0.7,0.1,0.7,0.2c0,0.1-0.2,0.2-0.2,0.4c-0.2,0.7-0.4,2.1-1,2.7c-0.1,0.1-0.2,0.1-0.2,0.1
		c0,0,0,0,0-0.1s0-0.1,0.1-0.2c0.2-0.7,0.5-2.2,0.5-2.7c-0.9,0-2.4,0.2-2.9,0.2c-0.4,0.1-0.4,0.3-0.6,0.3s-1.2-0.4-1.2-0.6
		c0,0,0.1-0.1,0.2-0.1c0.1,0,0.1,0,0.2,0c0.4,0,0.9,0.1,1.3,0.1C637.3,192.1,638.2,192.1,639,192z M637.3,198.7c0-0.3-0.3-0.4-1-0.5
		c-0.1,0-0.1-0.1-0.1-0.1c0-0.1,0.1-0.1,0.4-0.2c1.3,0,1.5,0.1,1.5,0.3c0,0.1,0,0.2,0,0.3v1.6c0,0.3,0.1,0.3,0.5,0.3h2.7
		c1.1-0.1,0.6-0.3,1.7-0.3c0.3,0,0.8,0,0.8,0.3c0,0.2-0.1,0.3-0.4,0.3h-4.8c-0.7,0-1.1-0.2-1.1-0.7V198.7z"/>
	<path d="M654.2,191.3c0-0.2-0.4-0.5-1.1-0.8c-0.2-0.1-0.3-0.1-0.3-0.2c0-0.1,0.1-0.1,0.4-0.2c0.8,0.1,1.2,0.3,1.5,0.4
		c0.2,0.1,0.2,0.2,0.2,0.3c0,0.1,0,0.2,0,0.3l0,7.1c0,2.2-0.1,2.5-0.3,3c-0.1,0.1-0.2,0.2-0.2,0.2c-0.1,0-0.2-0.1-0.2-0.5V197
		c-1.9,1-5.3,2-6.1,2c-0.3,0-0.6-0.5-0.6-0.9l0-2.1c0-0.4-0.5-0.5-0.9-0.6c-0.2,0-0.2-0.1-0.2-0.2c0-0.1,0.1-0.2,0.4-0.2
		c0.6,0,1.2,0.1,1.5,0.2c0.6,0,1.3-0.1,1.8-0.1c0.3,0,0.4-0.1,0.6-0.2c0-0.6,0.1-1.5,0.1-2.3c-0.8,0-1.7,0.1-2.4,0.2
		c-0.3,0.1-0.4,0.2-0.5,0.2c-0.2,0-1.2-0.5-1.2-0.6c0,0,0-0.1,0.2-0.1c0,0,0.1,0,0.1,0c0.5,0.1,0.9,0.1,1.5,0.1c0.6,0,1.2,0,2-0.1
		c0.4,0,0.2-0.2,0.9-0.2c0.4,0,0.6,0.1,0.6,0.2c0,0.1-0.2,0.3-0.3,0.4c-0.1,0.5-0.4,1.6-0.5,2.1c0.4,0,0.6,0.2,0.6,0.3
		c0,0.1-0.1,0.2-0.3,0.2c-0.9,0-2.1,0.1-2.9,0.2c-0.2,0.1-0.3,0-0.3,0.3v0.1c0,0.9,0,1.3,0,2.1c0,0.2,0.1,0.3,0.3,0.3
		c0,0,0.1,0,0.1,0c1.4-0.1,3.6-0.5,5.5-1.5V191.3z"/>
	<path d="M670.6,195.9c-0.6,0-1.4-0.1-2.2-0.1c-0.9,0-1.9,0-2.5,0c-0.8,0-3,0.2-3.5,0.2c-0.4,0-0.4,0.2-0.6,0.2
		c-0.3,0-1.5-0.5-1.5-0.7c0,0,0-0.1,0.2-0.1c0.1,0,0.1,0,0.2,0c0.3,0.1,1.1,0.1,2.1,0.1c1.7,0,4-0.1,5.9-0.2c0.6,0,0.5-0.2,1.2-0.2
		c0.6,0,1.2,0,1.2,0.4C671.1,195.7,670.9,195.9,670.6,195.9L670.6,195.9z M666.9,190.6c0.7-0.1,0.4-0.3,1.3-0.3c0.2,0,1,0,1,0.4
		c0,0,0,0.3-0.5,0.3c-1.7,0-4.3,0.1-5.1,0.1c-0.3,0.1-0.4,0.2-0.5,0.2s-1.3-0.4-1.3-0.7c0,0,0,0,0.1,0c0.1,0,0.2,0,0.3,0
		c0.6,0.1,1.3,0.1,2,0.1C664.4,190.7,666.5,190.7,666.9,190.6z M665.3,194.2c-0.4,0-1.2,0.1-1.6,0.1c-0.3,0.1-0.4,0.2-0.5,0.2
		c-0.2,0-1.2-0.5-1.2-0.6c0,0,0.1-0.1,0.2-0.1c0,0,0.1,0,0.2,0c0.5,0.1,1.2,0.1,1.8,0.1c0.7,0,1.5,0,2.1-0.1
		c0.3-0.8,0.5-1.8,0.5-1.8c0-0.2-0.1-0.3-0.3-0.4c-0.1,0-0.2-0.1-0.2-0.2c0-0.1,0.1-0.1,0.4-0.1c0,0,1.1,0.3,1.1,0.5
		c0,0.1-0.1,0.2-0.2,0.3c-0.3,0.5-0.7,1.2-1,1.6c0.2,0,0.4,0,0.6-0.1c0.5-0.1,0.2-0.3,1-0.3c0.3,0,0.9,0,0.9,0.4
		c0,0.2-0.2,0.3-0.5,0.3c-0.8,0-1.9,0-2.6,0L665.3,194.2z M663.2,199.4c0-0.1-0.3-0.2-0.6-0.3c-0.1,0-0.2-0.1-0.2-0.1
		c0-0.1,0.2-0.2,0.5-0.2c0.5,0,1.1,0.1,1.3,0.2c1.1,0,1.7,0,2.9-0.1c0.3,0,0.3-0.1,0.7-0.1c0-0.3,0-0.7,0.1-1.3
		c-0.8,0-2.4,0.1-3.5,0.1c-0.3,0.1-0.4,0.2-0.6,0.2c-0.2,0-1.2-0.4-1.2-0.5c0,0,0-0.1,0.2-0.1c0,0,0.1,0,0.2,0c0.4,0,1,0.1,1.7,0.1
		c0.9,0,2.1,0,3-0.1c0.2-0.1,0.2-0.1,0.4-0.1c0.8,0,0.8,0.1,0.8,0.2c0,0.1-0.1,0.2-0.2,0.3c-0.1,0.4-0.3,0.9-0.4,1.1
		c0.3,0.1,0.5,0.2,0.5,0.3c0,0.1-0.1,0.2-0.4,0.2c-0.9,0-2.7,0.1-3.9,0.1c-0.1,0.1-0.2,0-0.2,0.2v1c0,0.2,0.1,0.3,0.3,0.3
		c0.2,0,0.6,0,1,0c0.6,0,1.3,0,2,0c0.7-0.1,0.5-0.3,1.2-0.3c0.3,0,0.9,0,0.9,0.3c0,0.1-0.2,0.3-0.4,0.3h-4.7c-0.9,0-1.1-0.3-1.1-0.7
		V199.4z M664.6,193.2c-0.1,0.3-0.2,0.5-0.4,0.5c-0.1,0-0.2-0.1-0.3-0.2c-0.1-0.4-0.3-1.1-0.5-1.5c-0.1-0.2-0.2-0.3-0.2-0.3
		c0,0,0,0,0,0c0.3,0,1.2,0.9,1.3,1.4V193.2z"/>
	<path d="M678.9,191.9c0-0.3-0.4-0.4-0.8-0.6c-0.1,0-0.2-0.1-0.2-0.2c0-0.1,0.1-0.1,0.4-0.1c1.2,0.2,1.4,0.3,1.4,0.5
		c0,0.1,0,0.2,0,0.3v2.7l1.5,0v-3c0-0.2-0.5-0.5-1-0.7c-0.1-0.1-0.3-0.1-0.3-0.2c0-0.1,0.1-0.1,0.4-0.1c1.3,0.3,1.5,0.5,1.5,0.6
		c0,0.1,0,0.2,0,0.3l-0.1,4.8c0,0.7-0.3,1.2-0.4,1.2c-0.1,0-0.2-0.2-0.2-0.6l0-1.9l-1.5,0l0,1c-0.1,0.6-0.3,0.9-0.4,0.9
		c-0.1,0-0.2-0.2-0.2-0.5v-1c-1.3,0.8-3.6,1.6-4.2,1.6c-0.4,0-0.5-0.5-0.6-0.9l0-1.3c0-0.2-0.2-0.3-0.7-0.5c-0.1,0-0.1-0.1-0.1-0.1
		c0,0,0.1-0.1,0.3-0.1c0.6,0,1,0.1,1.3,0.2c0.2,0,0.5,0,1.1-0.1c0.3,0,0.3-0.1,0.5-0.2c0-0.5,0.1-1.1,0.1-1.5
		c-0.7,0-1.3,0.1-1.7,0.1c-0.3,0-0.3,0.2-0.5,0.2c-0.2,0-1-0.3-1-0.5c0,0,0-0.1,0.2-0.1c0,0,0.1,0,0.2,0c0.3,0,0.5,0,0.8,0
		c0.5,0,1.1,0,1.6,0c0.3,0,0-0.1,0.9-0.1c0.4,0,0.5,0.1,0.5,0.1s-0.1,0.2-0.2,0.3c-0.1,0.5-0.2,0.9-0.3,1.4c0.3,0,0.4,0.1,0.4,0.2
		c0,0.1-0.2,0.2-0.5,0.2c-0.4,0-1.4,0.1-1.9,0.1c-0.1,0.1-0.2,0-0.2,0.1c0,0.4,0,0.9,0,1.4c0,0.1,0.1,0.2,0.3,0.2
		c0.1,0,2-0.3,3.7-1.2V191.9z M678.7,197.5c0-0.2-0.3-0.4-0.6-0.6c-0.1-0.1-0.2-0.1-0.2-0.2c0-0.1,0.2-0.1,0.4-0.1
		c0.3,0,1.4,0.5,1.4,0.7c0,0.1-0.2,0.3-0.5,0.9c0.6,0.5,1.1,0.9,1.4,1.1c0.6,0.3,0.6,0,1.7,1.3c0.1,0.1,0.1,0.3,0.1,0.4
		c0,0.1-0.1,0.2-0.2,0.2c-0.1,0-0.2,0-0.3-0.1c-0.6-0.5-2.1-1.9-2.9-2.5c-1.1,1.4-2.4,2.4-3.9,2.9c-0.1,0-0.2,0-0.2,0
		c0,0-0.1,0-0.1,0c0,0,0.1-0.1,0.2-0.2c1.3-0.6,2.7-1.8,3.7-3.5C678.7,197.6,678.7,197.6,678.7,197.5z"/>
	<path d="M687.7,194.3c-0.3,0.1-0.4,0.2-0.5,0.2c-0.2,0-1.2-0.5-1.2-0.6c0,0,0.1-0.1,0.2-0.1c0,0,0.1,0,0.1,0
		c0.6,0.1,1.2,0.1,1.9,0.1c0.7,0,1.4,0,2-0.1c0.4-1.1,0.6-1.8,0.6-1.8c0-0.2-0.1-0.3-0.3-0.4c-0.1,0-0.2-0.1-0.2-0.2
		c0-0.1,0.1-0.1,0.4-0.1c0,0,1.1,0.3,1.1,0.5c0,0.1-0.1,0.2-0.2,0.3c-0.4,0.5-0.7,1.1-1,1.6c0.2,0,0.4,0,0.6-0.1
		c0.5-0.1,0.2-0.3,1.1-0.3c0.3,0,0.9,0,0.9,0.4c0,0.1-0.2,0.3-0.5,0.3c-0.8,0-1.9,0-2.6,0c0,0.6,0,1.1-0.1,1.5c1,0,1.9,0,2.7-0.1
		c0.5-0.1,0.5-0.2,1-0.2c0.3,0,1.3,0,1.3,0.4c0,0.2-0.2,0.3-0.5,0.3c0,0-0.1,0-0.1,0c-0.6,0-1.7,0-3,0c-1.6,0-3.5,0-4.8,0.2
		c-0.4,0.1-0.5,0.2-0.7,0.2c-0.2,0-1.5-0.5-1.5-0.7c0,0,0-0.1,0.2-0.1c0,0,0.1,0,0.2,0c0.7,0.1,1.6,0.2,2.5,0.2c0.7,0,1.4,0,2.1-0.1
		c0-0.5-0.1-1-0.1-1.5C688.6,194.2,688,194.3,687.7,194.3z M691,190.7c0.7-0.1,0.4-0.3,1.3-0.3c0.1,0,1,0,1,0.4c0,0,0,0.3-0.5,0.3
		c-1.7,0-4.3,0.1-5.1,0.1c-0.3,0.1-0.4,0.2-0.5,0.2c-0.2,0-1.3-0.4-1.3-0.7c0,0,0-0.1,0.1-0.1c0.1,0,0.2,0,0.3,0
		c0.6,0.1,1.3,0.1,2,0.1C689,190.8,690.7,190.7,691,190.7z M686.5,197.6c-0.1,0-0.3-0.1-0.3-0.2s0.1-0.1,0.4-0.2
		c0.5,0,1,0.1,1.4,0.2c0.6,0,2.7-0.1,3.3-0.1c0.3-0.1,0-0.1,0.8-0.1c0.5,0,0.6,0.1,0.6,0.2c0,0.1-0.2,0.2-0.2,0.4
		c-0.2,0.8-0.4,1.9-0.5,2.3c0.4,0,0.5,0.2,0.5,0.3c0,0.1-0.1,0.2-0.4,0.2c-0.8,0-3.3,0.1-4.1,0.1c-0.1,0.4-0.2,0.6-0.4,0.6
		c-0.1,0-0.2-0.1-0.2-0.5c0,0-0.2-2.4-0.2-2.8C687.2,197.9,686.8,197.7,686.5,197.6z M688.6,193c0,0.5-0.3,0.7-0.4,0.7
		c-0.1,0-0.2-0.1-0.3-0.3c-0.1-0.3-0.4-1.1-0.6-1.5c-0.1-0.1-0.1-0.3-0.1-0.3c0,0,0,0,0,0C687.5,191.6,688.5,192.5,688.6,193z
		 M690.9,200.3c0.3,0,0.4-0.1,0.7-0.2c0-0.5,0.1-1.9,0.1-2.5c-0.6,0-2.7,0.1-3.6,0.1c-0.1,0.1-0.1,0.1-0.1,0.2l0.1,2.4L690.9,200.3z
		"/>
</g>
<g>
	<path d="M857.3,200.4v-0.3c1,0,1.1-0.2,1.1-0.9v-6.4c0-0.5-0.2-0.8-1.1-0.8v-0.3h6.2l0.9,2l-0.2,0.1c-0.5-0.7-1.4-1.8-2.9-1.8H860
		c-0.6,0-0.8,0.3-0.8,0.8v2.9h1.8c0.8,0,1.3-0.1,1.3-1.5h0.3v3.4h-0.3c0-1.2-0.6-1.6-1.4-1.6h-1.7v3.2c0,0.7,0.3,0.9,1.2,0.9v0.3
		H857.3z"/>
	<path d="M872.7,198c-0.6,1.4-1.5,2.5-3.4,2.5c-2.1,0-3.8-1.6-3.8-4.6c0-2.4,1.4-4.5,3.6-4.5c0.8,0,1.1,0.1,1.7,0.3l0.9-0.3l0.8,2.2
		l-0.2,0.1c-0.5-0.8-1.6-2-3.2-2c-1.7,0-2.8,1.8-2.8,4.2c0,2.3,1.3,4,3.3,4c1.2,0,2.1-0.6,2.9-2L872.7,198z"/>
	<path d="M878.2,191.5l3,7.7c0.2,0.7,0.6,0.9,1.2,0.9v0.3h-3v-0.3c0.8,0,1.2-0.1,1.2-0.5c0-0.1,0-0.2-0.1-0.4l-0.8-2H876l-0.6,1.7
		c-0.1,0.2-0.1,0.4-0.1,0.6c0,0.4,0.3,0.6,1.1,0.6v0.3h-2.6v-0.3c0.7,0,0.9-0.2,1.3-1.2l2.5-7L878.2,191.5z M877.8,192.3l-1.6,4.5
		h3.4L877.8,192.3z"/>
	<path d="M885.9,192.2c-0.4,0.1-0.5,0.2-0.7,0.2c-0.3,0-1.2-0.4-1.2-0.6c0,0,0-0.1,0.1-0.1c0.1,0,0.2,0,0.3,0c0.5,0,1.1,0.1,1.7,0.1
		c0.6,0,1.2,0,1.8,0c0.3,0,0.3-0.1,0.7-0.1c0.3,0,0.8,0.1,0.8,0.2c0,0.1-0.2,0.2-0.3,0.4c-1.1,2-2.7,3.7-5.1,4.9
		c-0.2,0.1-0.3,0.2-0.4,0.2c0,0,0,0,0,0c0,0,0.1-0.2,0.3-0.3c1.7-1.1,3.7-3.4,4.3-4.8L885.9,192.2z M886.8,198
		c-0.1-0.3-0.3-0.4-0.7-0.5c-0.1,0-0.3-0.1-0.3-0.1c0,0,0.1-0.1,0.3-0.2c0.6,0,1.3,0.1,1.5,0.2l3.3-0.1c0.3,0,0.3-0.1,0.6-0.1
		c0.2,0,0.7,0,0.7,0.2c0,0.1-0.1,0.2-0.2,0.3c-0.2,0.9-0.5,2.1-0.6,2.5c0.4,0,0.6,0.2,0.6,0.3c0,0.1-0.1,0.2-0.4,0.2h-4.1
		c-0.1,0.5-0.3,0.8-0.4,0.8c-0.1,0-0.2-0.2-0.2-0.7L886.8,198z M887.6,198.4l0,2l2.7,0c0.4,0,0.4-0.1,0.7-0.2l0.1-2.6l-3.5,0
		c0,0-0.2,0.1-0.2,0.2V198.4z M891.3,191.2c0-0.1-0.3-0.4-1-0.6c-0.2-0.1-0.3-0.1-0.3-0.2c0-0.1,0.1-0.1,0.4-0.1
		c0.6,0,0.9,0.2,1.3,0.3c0.3,0.1,0.4,0.2,0.4,0.3c0,0.1,0,0.2,0,0.3l0,3.2c0.2,0,0.3,0,0.5,0c0.6-0.1,0.3-0.3,1.2-0.3
		c0.2,0,0.7,0,0.7,0.3c0,0.1-0.1,0.3-0.3,0.3l-2.1,0c0,1.8-0.5,2-0.6,2c-0.1,0-0.2-0.1-0.2-0.5V191.2z"/>
	<path d="M897.8,191.5c0-0.3-0.4-0.4-0.9-0.6c-0.1,0-0.2-0.1-0.2-0.1c0-0.1,0.1-0.1,0.3-0.1c0.6,0,1.2,0.1,1.5,0.3
		c0.9,0,2,0,3.2-0.1c0.9-0.1,0.5-0.3,1.5-0.3c0.3,0,0.9,0,0.9,0.3c0,0.1-0.2,0.3-0.6,0.3c-1.3,0.1-3.7,0.1-4.9,0.1
		c-0.1,0.1-0.1,0-0.1,0.2c0,0.5,0,1.3,0,1.9c0,0.4,0.1,0.4,1.3,0.4c0.6,0,1.3,0,2.3-0.1c0.7-0.1,0.3-0.3,1.4-0.3
		c0.4,0,0.6,0.2,0.6,0.3s-0.2,0.3-0.5,0.3c-0.1,0-2.2,0.1-2.5,0.1c0,0.6,0,1.1-0.1,1.6c1,0,1.9,0,2.7-0.1c0.5-0.1,0.5-0.2,1-0.2
		c0.3,0,1.3,0,1.3,0.4c0,0.2-0.2,0.3-0.5,0.3c0,0-0.1,0-0.1,0c-0.6,0-1.7,0-3,0c-1.6,0-3.5,0-4.8,0.2c-0.4,0.1-0.5,0.2-0.7,0.2
		c-0.2,0-1.5-0.5-1.5-0.7c0,0,0-0.1,0.2-0.1c0,0,0.1,0,0.2,0c0.7,0.1,1.6,0.2,2.5,0.2c0.7,0,1.4,0,2.1-0.1c0-0.5-0.1-1-0.1-1.6H899
		c-0.9,0-1.2-0.3-1.2-0.8L897.8,191.5z M903.1,197.7c-0.7,0-2.7,0.1-4,0.2c-0.4,0-0.5,0.2-0.8,0.2c-0.3,0-1.2-0.5-1.2-0.6
		c0,0,0-0.1,0.2-0.1c0,0,0.1,0,0.2,0c0.4,0.1,1.1,0.1,1.8,0.1c1.1,0,2.4-0.1,3.4-0.1c0.3,0,0.3-0.1,0.6-0.1h0.2
		c0.5,0,0.6,0.1,0.6,0.2s-0.1,0.2-0.1,0.4c0,1.6,0,2.3-0.2,3c-0.1,0.3-0.3,0.5-0.4,0.5c-0.1,0-0.2-0.1-0.2-0.4V197.7z"/>
	<path d="M914.4,194.6c0-0.2-0.2-0.2-0.7-0.4c-0.1,0-0.2-0.1-0.2-0.2c0,0,0.1-0.1,0.3-0.1c1.2,0,1.4,0.1,1.4,0.3c0,0.1,0,0.1,0,0.2
		c0,1,0,1.5,0,2c0.9-0.1,3.4-0.5,4.2-0.7v-4.2c0-0.3-0.6-0.5-1-0.7c-0.2-0.1-0.3-0.1-0.3-0.2s0.1-0.1,0.6-0.1
		c1.3,0.2,1.5,0.4,1.5,0.6c0,0.1,0,0.2,0,0.3v4.2l0.5,0c0.6-0.1,0.4-0.3,1.1-0.3c0.3,0,0.7,0,0.7,0.3c0,0.1-0.1,0.3-0.3,0.3l-2,0
		L920,198c-0.1,0.6-0.3,1-0.5,1c-0.1,0-0.2-0.1-0.2-0.4v-2.7c-1.5,0.4-3.2,0.8-5.3,1.2c-0.3,0.1-0.4,0.2-0.6,0.2
		c-0.2,0-1.6-0.6-1.6-0.8c0,0,0.1-0.1,0.2-0.1c0,0,0.1,0,0.1,0c0.4,0.1,0.8,0.1,1.2,0.1c0.4,0,0.8,0,1.1-0.1V194.6z M916.6,192
		c0.2,0,0.6-0.1,0.8-0.1c0.6,0,0.7,0.1,0.7,0.2c0,0.1-0.2,0.2-0.2,0.4c-0.2,0.7-0.4,2.1-1,2.7c-0.1,0.1-0.2,0.1-0.2,0.1
		c0,0,0,0,0-0.1s0-0.1,0.1-0.2c0.2-0.7,0.5-2.2,0.5-2.7c-0.9,0-2.4,0.2-2.9,0.2c-0.4,0.1-0.4,0.3-0.6,0.3s-1.2-0.4-1.2-0.6
		c0,0,0.1-0.1,0.2-0.1c0.1,0,0.1,0,0.2,0c0.4,0,0.9,0.1,1.3,0.1C914.9,192.1,915.8,192.1,916.6,192z M914.9,198.7
		c0-0.3-0.3-0.4-1-0.5c-0.1,0-0.1-0.1-0.1-0.1c0-0.1,0.1-0.1,0.4-0.2c1.3,0,1.5,0.1,1.5,0.3c0,0.1,0,0.2,0,0.3v1.6
		c0,0.3,0.1,0.3,0.5,0.3h2.7c1.1-0.1,0.6-0.3,1.7-0.3c0.3,0,0.8,0,0.8,0.3c0,0.2-0.1,0.3-0.4,0.3H916c-0.7,0-1.1-0.2-1.1-0.7V198.7z
		"/>
	<path d="M931.8,191.3c0-0.2-0.4-0.5-1.1-0.8c-0.2-0.1-0.3-0.1-0.3-0.2c0-0.1,0.1-0.1,0.4-0.2c0.8,0.1,1.2,0.3,1.5,0.4
		c0.2,0.1,0.2,0.2,0.2,0.3c0,0.1,0,0.2,0,0.3l0,7.1c0,2.2-0.1,2.5-0.3,3c-0.1,0.1-0.2,0.2-0.2,0.2c-0.1,0-0.2-0.1-0.2-0.5V197
		c-1.9,1-5.3,2-6.1,2c-0.3,0-0.6-0.5-0.6-0.9l0-2.1c0-0.4-0.5-0.5-0.9-0.6c-0.2,0-0.2-0.1-0.2-0.2c0-0.1,0.1-0.2,0.4-0.2
		c0.6,0,1.2,0.1,1.5,0.2c0.6,0,1.3-0.1,1.8-0.1c0.3,0,0.4-0.1,0.6-0.2c0-0.6,0.1-1.5,0.1-2.3c-0.8,0-1.7,0.1-2.4,0.2
		c-0.3,0.1-0.4,0.2-0.5,0.2c-0.2,0-1.2-0.5-1.2-0.6c0,0,0-0.1,0.2-0.1c0,0,0.1,0,0.1,0c0.5,0.1,0.9,0.1,1.5,0.1c0.6,0,1.2,0,2-0.1
		c0.4,0,0.2-0.2,0.9-0.2c0.4,0,0.6,0.1,0.6,0.2c0,0.1-0.2,0.3-0.3,0.4c-0.1,0.5-0.4,1.6-0.5,2.1c0.4,0,0.6,0.2,0.6,0.3
		c0,0.1-0.1,0.2-0.3,0.2c-0.9,0-2.1,0.1-2.9,0.2c-0.2,0.1-0.3,0-0.3,0.3v0.1c0,0.9,0,1.3,0,2.1c0,0.2,0.1,0.3,0.3,0.3
		c0,0,0.1,0,0.1,0c1.4-0.1,3.6-0.5,5.5-1.5V191.3z"/>
	<path d="M861.1,207.3c-0.1-0.3-0.6-0.4-0.9-0.5c-0.2,0-0.2-0.1-0.2-0.1c0-0.1,0.1-0.1,0.4-0.2c0.5,0,0.9,0.1,1.4,0.2
		c0.2,0.1,0.3,0.1,0.3,0.2c0,0.1,0,0.2,0,0.4l0,1.1l4-0.1v-1.6c0-0.2-0.3-0.4-0.8-0.6c-0.1,0-0.2-0.1-0.2-0.1c0-0.1,0.1-0.1,0.4-0.1
		c0.4,0,0.8,0.1,1.3,0.3c0.2,0.1,0.2,0.1,0.2,0.2s0,0.2-0.1,0.3l0,3.5c-0.1,0.6-0.1,1.1-0.3,1.4c-0.1,0.1-0.2,0.1-0.2,0.1
		c-0.1,0-0.2-0.1-0.2-0.4l-1.9,0.1c0.4,0.1,0.5,0.1,0.5,0.3c0,0.1,0,0.2,0,0.3l0,2c0.5,0,1.1,0,2.4-0.1c0.8-0.1,0.7-0.3,1.2-0.3
		c0.5,0,1.4,0.1,1.4,0.5c0,0.1-0.2,0.3-0.5,0.3h-0.1c-1-0.1-2.3-0.1-3.5-0.1c-1.4,0-2.9,0.1-4.2,0.1c-0.5,0.1-0.6,0.3-0.8,0.3
		c-0.3,0-1.6-0.6-1.6-0.8c0,0,0.1-0.1,0.2-0.1c0,0,0.1,0,0.1,0c0.9,0.1,1.8,0.2,3.1,0.2c0.5,0,1,0,1.6,0V212c0-0.2-0.2-0.3-0.6-0.5
		c-0.1,0-0.2-0.1-0.2-0.1l-1,0c-0.2,0.5-0.3,0.7-0.4,0.7c-0.2,0-0.2-0.2-0.2-0.6L861.1,207.3z M861.9,208.7l0,2.3l4-0.1v-2.3
		L861.9,208.7z"/>
	<path d="M874.2,211.8c-1.2-0.1-1.9-0.9-1.9-1.7c0-0.7,0.6-1.5,1.8-1.7c0.1-0.1,0.1-0.2,0.1-0.3c0-0.1-0.1-0.3-0.2-0.4
		c-0.4,0-0.9,0-1.4,0.1c-0.3,0-0.3,0.2-0.5,0.2c-0.2,0-1.1-0.5-1.1-0.6c0,0,0-0.1,0.1-0.1c0,0,0.1,0,0.2,0c0.5,0.1,1.1,0.1,1.8,0.1
		c0.7,0,1.5,0,2.2-0.1h0.1c0.7-0.1,0.5-0.4,1.3-0.4c0.3,0,0.8,0,0.8,0.3c0,0.1-0.2,0.3-0.5,0.3c-0.5,0-1.7,0.1-2.6,0.1
		c0.1,0.2,0.3,0.3,0.3,0.4v0c0,0.2-0.1,0.2-0.1,0.3v0c1.2,0.2,1.8,0.9,1.8,1.7c0,0.8-0.6,1.5-1.7,1.6l0,1.1c0.7-0.1,2.5-0.3,3.5-0.7
		v-6.5c0-0.2-0.5-0.5-1.1-0.7c-0.2-0.1-0.3-0.1-0.3-0.2c0-0.1,0.1-0.1,0.4-0.2c0.6,0,1.1,0.2,1.5,0.3c0.2,0.1,0.3,0.2,0.3,0.3
		c0,0.1,0,0.2,0,0.3v4.9c0.2,0,0.4,0,0.6,0c0.3-0.1,0.2-0.3,1.2-0.3c0.4,0,0.5,0.2,0.5,0.4c0,0.1-0.1,0.3-0.3,0.3
		c-0.5,0-1.7,0.1-2,0.1v2.2c0,1.1,0,1.8-0.2,2.5c-0.1,0.2-0.2,0.4-0.3,0.4c-0.1,0-0.2-0.1-0.2-0.5v-3.1c-1.5,0.6-3.8,1-5.4,1.4
		c-0.2,0.1-0.3,0.2-0.4,0.2c-0.3,0-1.7-0.6-1.7-0.9c0,0,0-0.1,0.1-0.1c0.1,0,0.1,0,0.2,0c0.3,0.1,0.6,0.1,0.9,0.1
		c0.7,0,1.5-0.1,2.1-0.2V211.8z M873.8,206.5c-0.5,0-1-0.7-1-0.8c0,0,0-0.1,0.1-0.1c0,0,0.1,0,0.3,0c0.4,0.1,1.2,0.2,2.2,0.2
		c0.4,0,0.6,0.2,0.6,0.3c0,0.2-0.4,0.2-1,0.2H873.8z M873.1,210c0,0.6,0.5,1.2,1.5,1.2c0.9,0,1.4-0.6,1.4-1.2c0-0.6-0.5-1.2-1.4-1.2
		C873.5,208.8,873.1,209.4,873.1,210z"/>
	<path d="M888.3,208.3c-0.1,1.2-1,2-2.5,2c-1.6,0-2.4-1.1-2.4-2.1c0-0.9,0.6-1.8,2-2l0.1,0c0.2,0,0.3-0.1,0.3-0.3c0-0.1,0-0.1,0-0.2
		c-0.1-0.1-0.2-0.1-0.2-0.2c0,0,0-0.1,0.1-0.1c0.3,0,0.7,0.2,0.7,0.4c0,0.1-0.1,0.2-0.2,0.4c1.4,0.2,2.1,1,2.1,1.8L888.3,208.3z
		 M884,208.2c0,0.8,0.6,1.6,1.7,1.6c1.2,0,1.9-0.8,1.9-1.6s-0.6-1.6-1.9-1.6C884.6,206.6,884,207.4,884,208.2z M888.9,211.5
		c0-0.1-0.1-0.2-0.2-0.3c-0.1,0-0.1-0.1-0.1-0.2s0-0.1,0.1-0.1c0.2,0,0.8,0.2,0.8,0.4c0,0.1-0.1,0.2-0.2,0.3c1.3,0.2,2,1.1,2,1.9
		c0,1-0.8,1.9-2.4,1.9c-1.5,0-2.3-1-2.3-1.9c0-0.9,0.6-1.8,2-1.9C888.8,211.7,888.9,211.6,888.9,211.5z M887.3,213.6
		c0,0.7,0.6,1.5,1.7,1.5c1.1,0,1.7-0.7,1.7-1.5c0-0.7-0.6-1.5-1.7-1.5C887.9,212.1,887.3,212.8,887.3,213.6z M890.8,205.8
		c0-0.3-0.5-0.6-1-0.8c-0.1,0-0.3-0.1-0.3-0.2c0-0.1,0.3-0.1,0.4-0.1c0.3,0,1.2,0.2,1.4,0.3c0.3,0.1,0.4,0.2,0.4,0.3
		c0,0.1,0,0.2,0,0.4l0,3.7c0,1.6-0.1,1.8-0.3,2.2c-0.1,0.2-0.2,0.3-0.3,0.3c-0.1,0-0.2-0.3-0.2-0.7v-1.5c-0.4,0-0.8,0.1-1.2,0.1
		c-0.2,0-0.3,0.1-0.4,0.1c-0.2,0-1-0.4-1-0.5c0,0,0.1-0.1,0.2-0.1c0.1,0,0.5,0,0.6,0c0.6,0,1.2,0,1.8-0.1v-1.8
		c-0.5,0-0.9,0.1-1.1,0.1c-0.3,0-0.3,0.1-0.4,0.1c-0.2,0-1-0.3-1-0.5c0,0,0,0,0.1,0c0.1,0,0.1,0,0.3,0c0.3,0,0.5,0,0.7,0
		c0.6,0,0.8,0,1.5-0.1V205.8z"/>
	<path d="M899.6,212c0-0.2-0.2-0.3-0.6-0.5c-0.1,0-0.2-0.1-0.2-0.1c0-0.1,0.1-0.1,0.3-0.1c1,0.1,1.2,0.2,1.2,0.3c0,0.1,0,0.2,0,0.3
		l0,2c0.5,0,1.1,0,2.4-0.1c0.8-0.1,0.7-0.3,1.2-0.3c0.5,0,1.4,0.1,1.4,0.5c0,0.1-0.2,0.3-0.5,0.3h-0.1c-1-0.1-2.3-0.1-3.5-0.1
		c-1.4,0-2.9,0.1-4.2,0.1c-0.5,0.1-0.6,0.3-0.8,0.3c-0.3,0-1.6-0.6-1.6-0.8c0,0,0.1-0.1,0.2-0.1c0,0,0.1,0,0.1,0
		c0.9,0.1,1.8,0.2,3.1,0.2c0.5,0,1,0,1.6,0V212z M896.8,206.9c0-0.2-0.5-0.4-1-0.6c-0.1,0-0.2-0.1-0.2-0.1c0-0.1,0.1-0.1,0.4-0.1
		c0.7,0,1.3,0.2,1.6,0.3l3.3,0c1.3-0.1,0.6-0.4,2-0.4h0.1c0.4,0,0.6,0.2,0.6,0.3c0,0.2-0.2,0.3-0.6,0.3c-1.9,0.1-4.1,0.1-5.2,0.1
		c-0.1,0.1-0.3,0-0.3,0.2v2.7c0,0.5,0,0.5,1.7,0.5c0.7,0,1.5,0,2.2,0c0.8,0,0.5-0.3,1.6-0.3c0.6,0,0.7,0.2,0.7,0.3
		c0,0.2-0.2,0.3-0.5,0.3c-0.6,0-2.6,0-4,0c-0.7,0-1.3,0-1.5,0c-0.4,0-0.9-0.3-0.9-0.9L896.8,206.9z"/>
	<path d="M913,206.6c-0.4,0.1-0.5,0.2-0.7,0.2c-0.3,0-1.2-0.4-1.2-0.6c0,0,0-0.1,0.1-0.1c0.1,0,0.2,0,0.3,0c0.5,0,1.1,0.1,1.7,0.1
		c0.6,0,1.2,0,1.8,0c0.3,0,0.3-0.1,0.7-0.1c0.3,0,0.8,0.1,0.8,0.2c0,0.1-0.2,0.2-0.3,0.4c-1.1,2-2.7,3.7-5.1,4.9
		c-0.2,0.1-0.3,0.2-0.4,0.2c0,0,0,0,0,0c0,0,0.1-0.2,0.3-0.3c1.7-1.1,3.7-3.4,4.3-4.8L913,206.6z M913.8,212.4
		c-0.1-0.3-0.3-0.4-0.7-0.5c-0.1,0-0.3-0.1-0.3-0.1c0,0,0.1-0.1,0.3-0.2c0.6,0,1.3,0.1,1.5,0.2l3.3-0.1c0.3,0,0.3-0.1,0.6-0.1
		c0.2,0,0.7,0,0.7,0.2c0,0.1-0.1,0.2-0.2,0.3c-0.2,0.9-0.5,2.1-0.6,2.5c0.4,0,0.6,0.2,0.6,0.3c0,0.1-0.1,0.2-0.4,0.2h-4.1
		c-0.1,0.5-0.3,0.8-0.4,0.8c-0.1,0-0.2-0.2-0.2-0.7L913.8,212.4z M914.6,212.8l0,2l2.7,0c0.4,0,0.4-0.1,0.7-0.2l0.1-2.6l-3.5,0
		c0,0-0.2,0.1-0.2,0.2V212.8z M918.3,205.6c0-0.1-0.3-0.4-1-0.6c-0.2-0.1-0.3-0.1-0.3-0.2c0-0.1,0.1-0.1,0.4-0.1
		c0.6,0,0.9,0.2,1.3,0.3c0.3,0.1,0.4,0.2,0.4,0.3c0,0.1,0,0.2,0,0.3l0,3.2c0.2,0,0.3,0,0.5,0c0.6-0.1,0.3-0.3,1.2-0.3
		c0.2,0,0.7,0,0.7,0.3c0,0.1-0.1,0.3-0.3,0.3l-2.1,0c0,1.8-0.5,2-0.6,2c-0.1,0-0.2-0.1-0.2-0.5V205.6z"/>
	<path d="M922.3,212.2c1.1-1,2.8-3,3.4-5c0-0.2,0-0.3-0.6-0.8c-0.3-0.2-0.3-0.3,0-0.3c0.1,0,0.3,0,0.5,0.1c0.9,0.4,1.2,0.6,1.2,0.8
		c0,0.1-0.1,0.4-0.9,1.8c0.3,0.5,0.7,0.9,1.3,1.3c0.5,0.4,0.6,0.3,1,1.1c0.1,0.2,0.2,0.4,0.2,0.6c0,0.2-0.1,0.4-0.2,0.4
		c-0.1,0-0.2,0-0.3-0.1c-0.4-0.5-1.2-1.7-2.2-2.9c-1.3,1.9-3.2,3.4-3.5,3.4c0,0,0,0,0,0C922.1,212.4,922.2,212.3,922.3,212.2z
		 M930.3,205.6c0-0.2-0.7-0.5-1.2-0.7c-0.1,0-0.2-0.1-0.2-0.2c0-0.1,0.1-0.1,0.5-0.1c0.5,0.1,1,0.2,1.4,0.3c0.3,0.1,0.3,0.2,0.3,0.3
		c0,0.1,0,0.2,0,0.4v4.4h0.6c0.6-0.1,0.4-0.3,1.1-0.3c0.2,0,0.7,0,0.7,0.4c0,0.2-0.1,0.3-0.4,0.3h-2.1l0,3.5c0,0.8-0.1,1.3-0.3,1.8
		c-0.1,0.1-0.2,0.2-0.3,0.2c-0.1,0-0.2-0.2-0.2-0.6V205.6z"/>
</g>
<g>
	<path d="M248.6,294.2c0.2,0,0.2-0.1,0.5-0.1c0.6,0,0.8,0,0.8,0.2c0,0.1-0.2,0.3-0.3,0.4c-0.5,0.8-1.2,1.9-1.6,2.4
		c0.3,0.3,0.8,0.7,1,0.9c0.5,0.3,0.6,0.1,1.2,1c0.2,0.3,0.2,0.5,0.2,0.6c0,0.2-0.1,0.3-0.2,0.3c-0.1,0-0.2-0.1-0.4-0.2
		c-0.3-0.4-1-1.1-2.2-2.3c-1.4,1.6-3.6,3-4,3c0,0,0,0,0,0c0,0,0.1-0.1,0.3-0.3c1.5-1,3.7-3,4.8-5.5c-0.6,0-2.2,0.1-2.6,0.1
		c-0.3,0.1-0.4,0.2-0.5,0.2c-0.2,0-1.2-0.5-1.2-0.6c0,0,0-0.1,0.1-0.1c0.1,0,0.1,0,0.2,0c0.4,0,0.8,0.1,1.3,0.1
		C247,294.3,248.3,294.2,248.6,294.2z M251.6,292.8c0-0.2-0.7-0.5-1.2-0.7c-0.1,0-0.2-0.1-0.2-0.2c0-0.1,0.1-0.1,0.5-0.1
		c0.5,0.1,1,0.2,1.4,0.3c0.3,0.1,0.3,0.2,0.3,0.3c0,0.1,0,0.2,0,0.4v4.4h0.6c0.6-0.1,0.4-0.3,1.1-0.3c0.2,0,0.7,0,0.7,0.4
		c0,0.2-0.1,0.3-0.4,0.3h-2.1l0,3.5c0,0.8-0.1,1.3-0.3,1.8c-0.1,0.1-0.2,0.2-0.3,0.2c-0.1,0-0.2-0.2-0.2-0.6V292.8z"/>
	<path d="M255.9,297.9c2.2-1.5,3.4-3.6,3.4-3.8c0-0.2-0.2-0.4-0.6-0.8c-0.2-0.1-0.3-0.2-0.3-0.2s0.1-0.1,0.2-0.1c0.1,0,0.1,0,0.2,0
		c0.3,0.1,1.5,0.6,1.5,0.9c0,0.2-0.3,0.5-0.7,1.3c0.4,0.4,0.6,0.6,0.9,0.9c0.7,0.5,0.6,0,1.5,1.2c0.1,0.1,0.1,0.3,0.1,0.3
		c0,0.2-0.1,0.3-0.3,0.3c-0.1,0-0.2,0-0.3-0.1c-0.6-0.6-1.7-1.8-2.2-2.4c-1.1,1.2-2,1.9-3.4,2.6c-0.1,0.1-0.2,0.1-0.3,0.1
		c0,0-0.1,0-0.1,0C255.6,298.1,255.7,298,255.9,297.9z M259.6,300c0-0.2-0.3-0.3-0.9-0.5c-0.1,0-0.2-0.1-0.2-0.1s0.1-0.1,0.4-0.2
		c0.6,0,1,0,1.3,0.1c0.2,0,0.3,0.1,0.3,0.2c0,0.1,0,0.2,0,0.3c0,0.5,0,1.2,0,1.7c0,0.3,0.2,0.4,0.6,0.4l2.2,0
		c0.9-0.1,0.5-0.3,1.5-0.3c0.4,0,0.9,0,0.9,0.4c0,0.1-0.1,0.3-0.3,0.3h-4.3c-0.8,0-1.2-0.2-1.3-0.8L259.6,300z M263.6,292.9
		c0-0.1-0.3-0.3-1-0.7c-0.2-0.1-0.3-0.1-0.3-0.2c0-0.1,0.1-0.1,0.4-0.1c0,0,1.7,0.2,1.7,0.6c0,0.1,0,0.2,0,0.3l0,3.8
		c0.2,0,0.4,0,0.5,0c0.6-0.1,0.3-0.3,1.2-0.3c0.2,0,0.7,0,0.7,0.3c0,0.2-0.1,0.3-0.3,0.3l-2.1,0c0,2.2-0.1,2.7-0.2,3
		c-0.1,0.2-0.2,0.4-0.3,0.4s-0.2-0.1-0.2-0.5V292.9z"/>
	<path d="M273.3,296.2c0-0.2-0.2-0.2-0.7-0.4c-0.1,0-0.2-0.1-0.2-0.2c0,0,0.1-0.1,0.3-0.1c1.2,0,1.4,0.1,1.4,0.3c0,0.1,0,0.1,0,0.2
		c0,1,0,1.5,0,2c0.9-0.1,3.4-0.5,4.2-0.7V293c0-0.3-0.6-0.5-1-0.7c-0.2-0.1-0.3-0.1-0.3-0.2s0.1-0.1,0.6-0.1
		c1.3,0.2,1.5,0.4,1.5,0.6c0,0.1,0,0.2,0,0.3v4.2l0.5,0c0.6-0.1,0.4-0.3,1.1-0.3c0.3,0,0.7,0,0.7,0.3c0,0.1-0.1,0.3-0.3,0.3l-2,0
		l-0.1,2.3c-0.1,0.6-0.3,1-0.5,1c-0.1,0-0.2-0.1-0.2-0.4v-2.7c-1.5,0.4-3.2,0.8-5.3,1.2c-0.3,0.1-0.4,0.2-0.6,0.2
		c-0.2,0-1.6-0.6-1.6-0.8c0,0,0.1-0.1,0.2-0.1c0,0,0.1,0,0.1,0c0.4,0.1,0.8,0.1,1.2,0.1c0.4,0,0.8,0,1.1-0.1V296.2z M275.4,293.6
		c0.2,0,0.6-0.1,0.8-0.1c0.6,0,0.7,0.1,0.7,0.2c0,0.1-0.2,0.2-0.2,0.4c-0.2,0.7-0.4,2.1-1,2.7c-0.1,0.1-0.2,0.1-0.2,0.1
		c0,0,0,0,0-0.1s0-0.1,0.1-0.2c0.2-0.7,0.5-2.2,0.5-2.7c-0.9,0-2.4,0.2-2.9,0.2c-0.4,0.1-0.4,0.3-0.6,0.3c-0.2,0-1.2-0.4-1.2-0.6
		c0,0,0.1-0.1,0.2-0.1c0.1,0,0.1,0,0.2,0c0.4,0,0.9,0.1,1.3,0.1C273.7,293.8,274.6,293.7,275.4,293.6z M273.7,300.4
		c0-0.3-0.3-0.4-1-0.5c-0.1,0-0.1-0.1-0.1-0.1c0-0.1,0.1-0.1,0.4-0.2c1.3,0,1.5,0.1,1.5,0.3c0,0.1,0,0.2,0,0.3v1.6
		c0,0.3,0.1,0.3,0.5,0.3h2.7c1.1-0.1,0.6-0.3,1.7-0.3c0.3,0,0.8,0,0.8,0.3c0,0.2-0.1,0.3-0.4,0.3h-4.8c-0.7,0-1.1-0.2-1.1-0.7V300.4
		z"/>
	<path d="M290.7,293c0-0.2-0.4-0.5-1.1-0.8c-0.2-0.1-0.3-0.1-0.3-0.2c0-0.1,0.1-0.1,0.4-0.2c0.8,0.1,1.2,0.3,1.5,0.4
		c0.2,0.1,0.2,0.2,0.2,0.3c0,0.1,0,0.2,0,0.3l0,7.1c0,2.2-0.1,2.5-0.3,3c-0.1,0.1-0.2,0.2-0.2,0.2c-0.1,0-0.2-0.1-0.2-0.5v-3.8
		c-1.9,1-5.3,2-6.1,2c-0.3,0-0.6-0.5-0.6-0.9l0-2.1c0-0.4-0.5-0.5-0.9-0.6c-0.2,0-0.2-0.1-0.2-0.2c0-0.1,0.1-0.2,0.4-0.2
		c0.6,0,1.2,0.1,1.5,0.2c0.6,0,1.3-0.1,1.8-0.1c0.3,0,0.4-0.1,0.6-0.2c0-0.6,0.1-1.5,0.1-2.3c-0.8,0-1.7,0.1-2.4,0.2
		c-0.3,0.1-0.4,0.2-0.5,0.2c-0.2,0-1.2-0.5-1.2-0.6c0,0,0-0.1,0.2-0.1c0,0,0.1,0,0.1,0c0.5,0.1,0.9,0.1,1.5,0.1c0.6,0,1.2,0,2-0.1
		c0.4,0,0.2-0.2,0.9-0.2c0.4,0,0.6,0.1,0.6,0.2c0,0.1-0.2,0.3-0.3,0.4c-0.1,0.5-0.4,1.6-0.5,2.1c0.4,0,0.6,0.2,0.6,0.3
		c0,0.1-0.1,0.2-0.3,0.2c-0.9,0-2.1,0.1-2.9,0.2c-0.2,0.1-0.3,0-0.3,0.3v0.1c0,0.9,0,1.3,0,2.1c0,0.2,0.1,0.3,0.3,0.3
		c0,0,0.1,0,0.1,0c1.4-0.1,3.6-0.5,5.5-1.5V293z"/>
	<path d="M307.1,297.5c-0.6,0-1.4-0.1-2.2-0.1c-0.9,0-1.9,0-2.5,0c-0.8,0-3,0.2-3.5,0.2c-0.4,0-0.4,0.2-0.6,0.2
		c-0.3,0-1.5-0.5-1.5-0.7c0,0,0-0.1,0.2-0.1c0.1,0,0.1,0,0.2,0c0.3,0.1,1.1,0.1,2.1,0.1c1.7,0,4-0.1,5.9-0.2c0.6,0,0.5-0.2,1.2-0.2
		c0.6,0,1.2,0,1.2,0.4C307.5,297.4,307.3,297.5,307.1,297.5L307.1,297.5z M303.3,292.2c0.7-0.1,0.4-0.3,1.3-0.3c0.2,0,1,0,1,0.4
		c0,0,0,0.3-0.5,0.3c-1.7,0-4.3,0.1-5.1,0.1c-0.3,0.1-0.4,0.2-0.5,0.2s-1.3-0.4-1.3-0.7c0,0,0,0,0.1,0c0.1,0,0.2,0,0.3,0
		c0.6,0.1,1.3,0.1,2,0.1C300.8,292.4,303,292.3,303.3,292.2z M301.7,295.8c-0.4,0-1.2,0.1-1.6,0.1c-0.3,0.1-0.4,0.2-0.5,0.2
		c-0.2,0-1.2-0.5-1.2-0.6c0,0,0.1-0.1,0.2-0.1c0,0,0.1,0,0.2,0c0.5,0.1,1.2,0.1,1.8,0.1c0.7,0,1.5,0,2.1-0.1
		c0.3-0.8,0.5-1.8,0.5-1.8c0-0.2-0.1-0.3-0.3-0.4c-0.1,0-0.2-0.1-0.2-0.2c0-0.1,0.1-0.1,0.4-0.1c0,0,1.1,0.3,1.1,0.5
		c0,0.1-0.1,0.2-0.2,0.3c-0.3,0.5-0.7,1.2-1,1.6c0.2,0,0.4,0,0.6-0.1c0.5-0.1,0.2-0.3,1-0.3c0.3,0,0.9,0,0.9,0.4
		c0,0.2-0.2,0.3-0.5,0.3c-0.8,0-1.9,0-2.6,0L301.7,295.8z M299.6,301c0-0.1-0.3-0.2-0.6-0.3c-0.1,0-0.2-0.1-0.2-0.1
		c0-0.1,0.2-0.2,0.5-0.2c0.5,0,1.1,0.1,1.3,0.2c1.1,0,1.7,0,2.9-0.1c0.3,0,0.3-0.1,0.7-0.1c0-0.3,0-0.7,0.1-1.3
		c-0.8,0-2.4,0.1-3.5,0.1c-0.3,0.1-0.4,0.2-0.6,0.2c-0.2,0-1.2-0.4-1.2-0.5c0,0,0-0.1,0.2-0.1c0,0,0.1,0,0.2,0c0.4,0,1,0.1,1.7,0.1
		c0.9,0,2.1,0,3-0.1c0.2-0.1,0.2-0.1,0.4-0.1c0.8,0,0.8,0.1,0.8,0.2c0,0.1-0.1,0.2-0.2,0.3c-0.1,0.4-0.3,0.9-0.4,1.1
		c0.3,0.1,0.5,0.2,0.5,0.3c0,0.1-0.1,0.2-0.4,0.2c-0.9,0-2.7,0.1-3.9,0.1c-0.1,0.1-0.2,0-0.2,0.2v1c0,0.2,0.1,0.3,0.3,0.3
		c0.2,0,0.6,0,1,0c0.6,0,1.3,0,2,0c0.7-0.1,0.5-0.3,1.2-0.3c0.3,0,0.9,0,0.9,0.3c0,0.1-0.2,0.3-0.4,0.3h-4.7c-0.9,0-1.1-0.3-1.1-0.7
		V301z M301.1,294.9c-0.1,0.3-0.2,0.5-0.4,0.5c-0.1,0-0.2-0.1-0.3-0.2c-0.1-0.4-0.3-1.1-0.5-1.5c-0.1-0.2-0.2-0.3-0.2-0.3
		c0,0,0,0,0,0c0.3,0,1.2,0.9,1.3,1.4V294.9z"/>
	<path d="M315.4,293.5c0-0.3-0.4-0.4-0.8-0.6c-0.1,0-0.2-0.1-0.2-0.2c0-0.1,0.1-0.1,0.4-0.1c1.2,0.2,1.4,0.3,1.4,0.5
		c0,0.1,0,0.2,0,0.3v2.7l1.5,0v-3c0-0.2-0.5-0.5-1-0.7c-0.1-0.1-0.3-0.1-0.3-0.2c0-0.1,0.1-0.1,0.4-0.1c1.3,0.3,1.5,0.5,1.5,0.6
		c0,0.1,0,0.2,0,0.3l-0.1,4.8c0,0.7-0.3,1.2-0.4,1.2c-0.1,0-0.2-0.2-0.2-0.6l0-1.9l-1.5,0l0,1c-0.1,0.6-0.3,0.9-0.4,0.9
		c-0.1,0-0.2-0.2-0.2-0.5v-1c-1.3,0.8-3.6,1.6-4.2,1.6c-0.4,0-0.5-0.5-0.6-0.9l0-1.3c0-0.2-0.2-0.3-0.7-0.5c-0.1,0-0.1-0.1-0.1-0.1
		c0,0,0.1-0.1,0.3-0.1c0.6,0,1,0.1,1.3,0.2c0.2,0,0.5,0,1.1-0.1c0.3,0,0.3-0.1,0.5-0.2c0-0.5,0.1-1.1,0.1-1.5
		c-0.7,0-1.3,0.1-1.7,0.1c-0.3,0-0.3,0.2-0.5,0.2c-0.2,0-1-0.3-1-0.5c0,0,0-0.1,0.2-0.1c0,0,0.1,0,0.2,0c0.3,0,0.5,0,0.8,0
		c0.5,0,1.1,0,1.6,0c0.3,0,0-0.1,0.9-0.1c0.4,0,0.5,0.1,0.5,0.1s-0.1,0.2-0.2,0.3c-0.1,0.5-0.2,0.9-0.3,1.4c0.3,0,0.4,0.1,0.4,0.2
		c0,0.1-0.2,0.2-0.5,0.2c-0.4,0-1.4,0.1-1.9,0.1c-0.1,0.1-0.2,0-0.2,0.1c0,0.4,0,0.9,0,1.4c0,0.1,0.1,0.2,0.3,0.2
		c0.1,0,2-0.3,3.7-1.2V293.5z M315.1,299.2c0-0.2-0.3-0.4-0.6-0.6c-0.1-0.1-0.2-0.1-0.2-0.2c0-0.1,0.2-0.1,0.4-0.1
		c0.3,0,1.4,0.5,1.4,0.7c0,0.1-0.2,0.3-0.5,0.9c0.6,0.5,1.1,0.9,1.4,1.1c0.6,0.3,0.6,0,1.7,1.3c0.1,0.1,0.1,0.3,0.1,0.4
		c0,0.1-0.1,0.2-0.2,0.2c-0.1,0-0.2,0-0.3-0.1c-0.6-0.5-2.1-1.9-2.9-2.5c-1.1,1.4-2.4,2.4-3.9,2.9c-0.1,0-0.2,0-0.2,0
		c0,0-0.1,0-0.1,0c0,0,0.1-0.1,0.2-0.2c1.3-0.6,2.7-1.8,3.7-3.5C315.1,299.3,315.1,299.2,315.1,299.2z"/>
	<path d="M324.1,295.9c-0.3,0.1-0.4,0.2-0.5,0.2c-0.2,0-1.2-0.5-1.2-0.6c0,0,0.1-0.1,0.2-0.1c0,0,0.1,0,0.1,0
		c0.6,0.1,1.2,0.1,1.9,0.1c0.7,0,1.4,0,2-0.1c0.4-1.1,0.6-1.8,0.6-1.8c0-0.2-0.1-0.3-0.3-0.4c-0.1,0-0.2-0.1-0.2-0.2
		c0-0.1,0.1-0.1,0.4-0.1c0,0,1.1,0.3,1.1,0.5c0,0.1-0.1,0.2-0.2,0.3c-0.4,0.5-0.7,1.1-1,1.6c0.2,0,0.4,0,0.6-0.1
		c0.5-0.1,0.2-0.3,1.1-0.3c0.3,0,0.9,0,0.9,0.4c0,0.1-0.2,0.3-0.5,0.3c-0.8,0-1.9,0-2.6,0c0,0.6,0,1.1-0.1,1.5c1,0,1.9,0,2.7-0.1
		c0.5-0.1,0.5-0.2,1-0.2c0.3,0,1.3,0,1.3,0.4c0,0.2-0.2,0.3-0.5,0.3c0,0-0.1,0-0.1,0c-0.6,0-1.7,0-3,0c-1.6,0-3.5,0-4.8,0.2
		c-0.4,0.1-0.5,0.2-0.7,0.2c-0.2,0-1.5-0.5-1.5-0.7c0,0,0-0.1,0.2-0.1c0,0,0.1,0,0.2,0c0.7,0.1,1.6,0.2,2.5,0.2c0.7,0,1.4,0,2.1-0.1
		c0-0.5-0.1-1-0.1-1.5C325,295.9,324.5,295.9,324.1,295.9z M327.5,292.4c0.7-0.1,0.4-0.3,1.3-0.3c0.1,0,1,0,1,0.4c0,0,0,0.3-0.5,0.3
		c-1.7,0-4.3,0.1-5.1,0.1c-0.3,0.1-0.4,0.2-0.5,0.2c-0.2,0-1.3-0.4-1.3-0.7c0,0,0-0.1,0.1-0.1c0.1,0,0.2,0,0.3,0
		c0.6,0.1,1.3,0.1,2,0.1C325.4,292.5,327.2,292.4,327.5,292.4z M323,299.3c-0.1,0-0.3-0.1-0.3-0.2s0.1-0.1,0.4-0.2
		c0.5,0,1,0.1,1.4,0.2c0.6,0,2.7-0.1,3.3-0.1c0.3-0.1,0-0.1,0.8-0.1c0.5,0,0.6,0.1,0.6,0.2c0,0.1-0.2,0.2-0.2,0.4
		c-0.2,0.8-0.4,1.9-0.5,2.3c0.4,0,0.5,0.2,0.5,0.3c0,0.1-0.1,0.2-0.4,0.2c-0.8,0-3.3,0.1-4.1,0.1c-0.1,0.4-0.2,0.6-0.4,0.6
		c-0.1,0-0.2-0.1-0.2-0.5c0,0-0.2-2.4-0.2-2.8C323.6,299.5,323.2,299.4,323,299.3z M325.1,294.7c0,0.5-0.3,0.7-0.4,0.7
		c-0.1,0-0.2-0.1-0.3-0.3c-0.1-0.3-0.4-1.1-0.6-1.5c-0.1-0.1-0.1-0.3-0.1-0.3c0,0,0,0,0,0C323.9,293.2,325,294.1,325.1,294.7z
		 M327.3,302c0.3,0,0.4-0.1,0.7-0.2c0-0.5,0.1-1.9,0.1-2.5c-0.6,0-2.7,0.1-3.6,0.1c-0.1,0.1-0.1,0.1-0.1,0.2l0.1,2.4L327.3,302z"/>
</g>
<g>
	<path d="M12.3,297.4c-0.4,0-1.1,0.1-1.4,0.1c-0.2,0-0.3,0.1-0.4,0.1c-0.1,0-0.2,0-0.6-0.2c-1.4,2.4-3.3,3.8-3.6,3.8c0,0,0,0,0,0
		c0,0,0.1-0.1,0.2-0.2c1-0.8,2.6-2.8,3.1-4.3c-0.6,0.2-1.1,0.3-1.8,0.5c-0.3,0.1-0.3,0.2-0.4,0.2c-0.2,0-1.3-0.5-1.3-0.7
		c0,0,0,0,0.1,0c0.1,0,0.1,0,0.2,0c0.2,0,0.3,0,0.5,0c0.8,0,2-0.2,2.8-0.3c0.1-0.2,0.5-1.2,0.5-1.8c-0.6,0-1.2,0.1-2,0.2
		C8,294.9,8,295,7.8,295c-0.2,0-1.2-0.5-1.2-0.6c0,0,0-0.1,0.1-0.1c0.1,0,0.1,0,0.2,0c0.4,0.1,0.8,0.1,1.2,0.1c0.4,0,1.3,0,1.7-0.1
		c0.3,0,0-0.1,0.7-0.1c0.6,0,0.7,0.1,0.7,0.2c0,0.1-0.2,0.3-0.3,0.5c-0.2,0.8-0.5,1.6-1,2.3c0.1,0,0.3,0,0.6,0c0.5,0,1.1,0,1.7-0.1
		v-3.5c0-0.3-0.4-0.4-0.9-0.6c-0.2,0-0.2-0.1-0.2-0.2c0,0,0.1-0.1,0.4-0.1c1.3,0.2,1.5,0.4,1.5,0.6c0,0.1,0,0.2,0,0.3l0,7.7
		c0,0.8-0.3,1.2-0.5,1.2c-0.1,0-0.2-0.2-0.2-0.5V297.4z M14.4,293c0-0.3-0.5-0.5-0.9-0.8c-0.1-0.1-0.2-0.1-0.2-0.2
		c0,0,0.1-0.1,0.3-0.1h0.1c1.3,0.3,1.5,0.4,1.5,0.6c0,0.1,0,0.2,0,0.3l-0.1,8.7c-0.1,0.9-0.3,1.3-0.5,1.3c-0.1,0-0.2-0.2-0.2-0.6
		V293z"/>
	<path d="M23.4,296.9c-0.1,1.2-1,2-2.5,2c-1.8,0-2.8-1.1-2.8-2.3c0-1,0.7-2,2.3-2.2c0.2,0,0.4-0.1,0.4-0.3c0-0.1,0-0.2-0.1-0.2
		c-0.1-0.1-0.1-0.1-0.1-0.2c0,0,0-0.1,0.1-0.1c0.3,0,0.8,0.3,0.8,0.5c0,0.1-0.1,0.2-0.2,0.3c1.5,0.3,2.1,1.1,2.2,2.2L23.4,296.9z
		 M18.9,296.7c0,0.9,0.7,1.8,2,1.8c1.2,0,1.9-0.9,1.9-1.8s-0.6-1.8-1.9-1.8C19.5,294.9,18.9,295.8,18.9,296.7z M26,293
		c0-0.2-0.4-0.5-1.1-0.8c-0.2-0.1-0.3-0.1-0.3-0.2c0-0.1,0.1-0.1,0.4-0.2c0.8,0.1,1.2,0.3,1.5,0.4c0.2,0.1,0.2,0.2,0.2,0.3
		c0,0.1,0,0.2,0,0.3l0,7.1c0,2.2-0.1,2.5-0.3,3c-0.1,0.1-0.2,0.2-0.2,0.2c-0.1,0-0.2-0.1-0.2-0.5V293z"/>
	<path d="M36.5,293.6c0-0.3-0.4-0.5-0.8-0.7c-0.2-0.1-0.3-0.1-0.3-0.2c0,0,0.1-0.1,0.3-0.1c0.5,0,0.9,0.2,1.2,0.3
		c0.3,0.1,0.4,0.1,0.4,0.3c0,0.1,0,0.3,0,0.5v3c0,2.4-0.1,3.1-0.3,3.4c-0.1,0.3-0.2,0.4-0.3,0.4c-0.1,0-0.1-0.1-0.1-0.4v-3.8
		l-0.6,0.1c-0.4,0-0.4,0.1-0.6,0.1c-0.1,0-0.3-0.1-0.6-0.2c-0.1,0.6-0.2,1.1-0.2,1.4c0.3,0.1,0.5,0.2,0.5,0.3c0,0.1-0.2,0.1-0.5,0.2
		c-0.6,0-2.1,0-2.7,0.1c0,0.4-0.2,0.6-0.3,0.6c-0.1,0-0.1-0.3-0.2-1l-0.2-2.7c-0.1-0.2-0.3-0.4-0.8-0.5c-0.1,0-0.1,0-0.1-0.1
		c0,0,0.1-0.1,0.4-0.2c0.4,0,0.9,0.1,1.3,0.2c0.9,0,1.2,0,2.2-0.1c0.3,0,0.1-0.1,0.8-0.1c0.4,0,0.5,0.1,0.5,0.1
		c0,0.1-0.2,0.3-0.3,0.4c0,0.3-0.1,0.6-0.2,1c0.3,0,0.5,0,0.7,0c0.3,0,0.6,0,1-0.1V293.6z M32,294.8c-0.1,0-0.2,0-0.2,0.2l0.1,2.7
		c0.4,0,1.8,0,2.2-0.2c0-0.7,0.1-1.9,0.1-2.9L32,294.8z M33.6,300.2c0-0.1-0.2-0.3-0.9-0.5c-0.2,0-0.3-0.1-0.3-0.1
		c0-0.2,0.4-0.2,0.7-0.2c0.1,0,0.7,0,0.8,0c0.4,0,0.5,0.1,0.5,0.3c0,0.1,0,0.2,0,0.3v1.4c0,0.4,0.1,0.5,0.6,0.5h1.5
		c2.4,0,1.4-0.4,2.5-0.4c0.4,0,0.9,0,0.9,0.4c0,0.2-0.2,0.3-0.5,0.3h-4.7c-0.5,0-1.1-0.2-1.1-0.8L33.6,300.2z M38.4,293
		c0-0.2-0.4-0.5-1-0.8c-0.2-0.1-0.3-0.1-0.3-0.2c0-0.1,0.1-0.1,0.5-0.1c0.6,0.1,0.9,0.2,1.2,0.3c0.4,0.1,0.4,0.2,0.4,0.3
		c0,0.1,0,0.2,0,0.3l0,5.3c0,1,0,1.7-0.2,2.2c-0.1,0.3-0.2,0.4-0.3,0.4c-0.1,0-0.2-0.2-0.2-0.6V293z"/>
	<path d="M48.1,293.8c-0.4,0.1-0.5,0.2-0.7,0.2c-0.3,0-1.2-0.4-1.2-0.6c0,0,0-0.1,0.1-0.1c0.1,0,0.2,0,0.3,0c0.5,0,1.1,0.1,1.7,0.1
		c0.6,0,1.2,0,1.8,0c0.3,0,0.3-0.1,0.7-0.1c0.3,0,0.8,0.1,0.8,0.2c0,0.1-0.2,0.2-0.3,0.4c-1.1,2-2.7,3.7-5.1,4.9
		c-0.2,0.1-0.3,0.2-0.4,0.2c0,0,0,0,0,0c0,0,0.1-0.2,0.3-0.3c1.7-1.1,3.7-3.4,4.3-4.8L48.1,293.8z M49,299.6
		c-0.1-0.3-0.3-0.4-0.7-0.5c-0.1,0-0.3-0.1-0.3-0.1c0,0,0.1-0.1,0.3-0.2c0.6,0,1.3,0.1,1.5,0.2l3.3-0.1c0.3,0,0.3-0.1,0.6-0.1
		c0.2,0,0.7,0,0.7,0.2c0,0.1-0.1,0.2-0.2,0.3c-0.2,0.9-0.5,2.1-0.6,2.5c0.4,0,0.6,0.2,0.6,0.3c0,0.1-0.1,0.2-0.4,0.2h-4.1
		c-0.1,0.5-0.3,0.8-0.4,0.8c-0.1,0-0.2-0.2-0.2-0.7L49,299.6z M49.7,300l0,2l2.7,0c0.4,0,0.4-0.1,0.7-0.2l0.1-2.6l-3.5,0
		c0,0-0.2,0.1-0.2,0.2V300z M53.5,292.8c0-0.1-0.3-0.4-1-0.6c-0.2-0.1-0.3-0.1-0.3-0.2c0-0.1,0.1-0.1,0.4-0.1c0.6,0,0.9,0.2,1.3,0.3
		c0.3,0.1,0.4,0.2,0.4,0.3c0,0.1,0,0.2,0,0.3l0,3.2c0.2,0,0.3,0,0.5,0c0.6-0.1,0.3-0.3,1.2-0.3c0.2,0,0.7,0,0.7,0.3
		c0,0.1-0.1,0.3-0.3,0.3l-2.1,0c0,1.8-0.5,2-0.6,2c-0.1,0-0.2-0.1-0.2-0.5V292.8z"/>
	<path d="M59.9,293.2c0-0.3-0.4-0.4-0.9-0.6c-0.1,0-0.2-0.1-0.2-0.1c0-0.1,0.1-0.1,0.3-0.1c0.6,0,1.2,0.1,1.5,0.3c0.9,0,2,0,3.2-0.1
		c0.9-0.1,0.5-0.3,1.5-0.3c0.3,0,0.9,0,0.9,0.3c0,0.1-0.2,0.3-0.6,0.3c-1.3,0.1-3.7,0.1-4.9,0.1c-0.1,0.1-0.1,0-0.1,0.2
		c0,0.5,0,1.3,0,1.9c0,0.4,0.1,0.4,1.3,0.4c0.6,0,1.3,0,2.3-0.1c0.7-0.1,0.3-0.3,1.4-0.3c0.4,0,0.6,0.2,0.6,0.3s-0.2,0.3-0.5,0.3
		c-0.1,0-2.2,0.1-2.5,0.1c0,0.6,0,1.1-0.1,1.6c1,0,1.9,0,2.7-0.1c0.5-0.1,0.5-0.2,1-0.2c0.3,0,1.3,0,1.3,0.4c0,0.2-0.2,0.3-0.5,0.3
		c0,0-0.1,0-0.1,0c-0.6,0-1.7,0-3,0c-1.6,0-3.5,0-4.8,0.2c-0.4,0.1-0.5,0.2-0.7,0.2c-0.2,0-1.5-0.5-1.5-0.7c0,0,0-0.1,0.2-0.1
		c0,0,0.1,0,0.2,0c0.7,0.1,1.6,0.2,2.5,0.2c0.7,0,1.4,0,2.1-0.1c0-0.5-0.1-1-0.1-1.6h-1.5c-0.9,0-1.2-0.3-1.2-0.8L59.9,293.2z
		 M65.2,299.4c-0.7,0-2.7,0.1-4,0.2c-0.4,0-0.5,0.2-0.8,0.2c-0.3,0-1.2-0.5-1.2-0.6c0,0,0-0.1,0.2-0.1c0,0,0.1,0,0.2,0
		c0.4,0.1,1.1,0.1,1.8,0.1c1.1,0,2.4-0.1,3.4-0.1c0.3,0,0.3-0.1,0.6-0.1h0.2c0.5,0,0.6,0.1,0.6,0.2s-0.1,0.2-0.1,0.4
		c0,1.6,0,2.3-0.2,3c-0.1,0.3-0.3,0.5-0.4,0.5c-0.1,0-0.2-0.1-0.2-0.4V299.4z"/>
	<path d="M76.6,296.2c0-0.2-0.2-0.2-0.7-0.4c-0.1,0-0.2-0.1-0.2-0.2c0,0,0.1-0.1,0.3-0.1c1.2,0,1.4,0.1,1.4,0.3c0,0.1,0,0.1,0,0.2
		c0,1,0,1.5,0,2c0.9-0.1,3.4-0.5,4.2-0.7V293c0-0.3-0.6-0.5-1-0.7c-0.2-0.1-0.3-0.1-0.3-0.2s0.1-0.1,0.6-0.1
		c1.3,0.2,1.5,0.4,1.5,0.6c0,0.1,0,0.2,0,0.3v4.2l0.5,0c0.6-0.1,0.4-0.3,1.1-0.3c0.3,0,0.7,0,0.7,0.3c0,0.1-0.1,0.3-0.3,0.3l-2,0
		l-0.1,2.3c-0.1,0.6-0.3,1-0.5,1c-0.1,0-0.2-0.1-0.2-0.4v-2.7c-1.5,0.4-3.2,0.8-5.3,1.2c-0.3,0.1-0.4,0.2-0.6,0.2
		c-0.2,0-1.6-0.6-1.6-0.8c0,0,0.1-0.1,0.2-0.1c0,0,0.1,0,0.1,0c0.4,0.1,0.8,0.1,1.2,0.1c0.4,0,0.8,0,1.1-0.1V296.2z M78.8,293.6
		c0.2,0,0.6-0.1,0.8-0.1c0.6,0,0.7,0.1,0.7,0.2c0,0.1-0.2,0.2-0.2,0.4c-0.2,0.7-0.4,2.1-1,2.7c-0.1,0.1-0.2,0.1-0.2,0.1
		c0,0,0,0,0-0.1s0-0.1,0.1-0.2c0.2-0.7,0.5-2.2,0.5-2.7c-0.9,0-2.4,0.2-2.9,0.2c-0.4,0.1-0.4,0.3-0.6,0.3c-0.2,0-1.2-0.4-1.2-0.6
		c0,0,0.1-0.1,0.2-0.1c0.1,0,0.1,0,0.2,0c0.4,0,0.9,0.1,1.3,0.1C77,293.8,77.9,293.7,78.8,293.6z M77.1,300.4c0-0.3-0.3-0.4-1-0.5
		c-0.1,0-0.1-0.1-0.1-0.1c0-0.1,0.1-0.1,0.4-0.2c1.3,0,1.5,0.1,1.5,0.3c0,0.1,0,0.2,0,0.3v1.6c0,0.3,0.1,0.3,0.5,0.3h2.7
		c1.1-0.1,0.6-0.3,1.7-0.3c0.3,0,0.8,0,0.8,0.3c0,0.2-0.1,0.3-0.4,0.3h-4.8c-0.7,0-1.1-0.2-1.1-0.7V300.4z"/>
	<path d="M94,293c0-0.2-0.4-0.5-1.1-0.8c-0.2-0.1-0.3-0.1-0.3-0.2c0-0.1,0.1-0.1,0.4-0.2c0.8,0.1,1.2,0.3,1.5,0.4
		c0.2,0.1,0.2,0.2,0.2,0.3c0,0.1,0,0.2,0,0.3l0,7.1c0,2.2-0.1,2.5-0.3,3c-0.1,0.1-0.2,0.2-0.2,0.2c-0.1,0-0.2-0.1-0.2-0.5v-3.8
		c-1.9,1-5.3,2-6.1,2c-0.3,0-0.6-0.5-0.6-0.9l0-2.1c0-0.4-0.5-0.5-0.9-0.6c-0.2,0-0.2-0.1-0.2-0.2c0-0.1,0.1-0.2,0.4-0.2
		c0.6,0,1.2,0.1,1.5,0.2c0.6,0,1.3-0.1,1.8-0.1c0.3,0,0.4-0.1,0.6-0.2c0-0.6,0.1-1.5,0.1-2.3c-0.8,0-1.7,0.1-2.4,0.2
		c-0.3,0.1-0.4,0.2-0.5,0.2c-0.2,0-1.2-0.5-1.2-0.6c0,0,0-0.1,0.2-0.1c0,0,0.1,0,0.1,0c0.5,0.1,0.9,0.1,1.5,0.1c0.6,0,1.2,0,2-0.1
		c0.4,0,0.2-0.2,0.9-0.2c0.4,0,0.6,0.1,0.6,0.2c0,0.1-0.2,0.3-0.3,0.4c-0.1,0.5-0.4,1.6-0.5,2.1c0.4,0,0.6,0.2,0.6,0.3
		c0,0.1-0.1,0.2-0.3,0.2c-0.9,0-2.1,0.1-2.9,0.2c-0.2,0.1-0.3,0-0.3,0.3v0.1c0,0.9,0,1.3,0,2.1c0,0.2,0.1,0.3,0.3,0.3
		c0,0,0.1,0,0.1,0c1.4-0.1,3.6-0.5,5.5-1.5V293z"/>
	<path d="M16.2,308.9c-0.1-0.3-0.6-0.4-0.9-0.5c-0.2,0-0.2-0.1-0.2-0.1c0-0.1,0.1-0.1,0.4-0.2c0.5,0,0.9,0.1,1.4,0.2
		c0.2,0.1,0.3,0.1,0.3,0.2c0,0.1,0,0.2,0,0.4l0,1.1l4-0.1v-1.6c0-0.2-0.3-0.4-0.8-0.6c-0.1,0-0.2-0.1-0.2-0.1c0-0.1,0.1-0.1,0.4-0.1
		c0.4,0,0.8,0.1,1.3,0.3c0.2,0.1,0.2,0.1,0.2,0.2s0,0.2-0.1,0.3l0,3.5c-0.1,0.6-0.1,1.1-0.3,1.4c-0.1,0.1-0.2,0.1-0.2,0.1
		c-0.1,0-0.2-0.1-0.2-0.4l-1.9,0.1c0.4,0.1,0.5,0.1,0.5,0.3c0,0.1,0,0.2,0,0.3l0,2c0.5,0,1.1,0,2.4-0.1c0.8-0.1,0.7-0.3,1.2-0.3
		c0.5,0,1.4,0.1,1.4,0.5c0,0.1-0.2,0.3-0.5,0.3h-0.1c-1-0.1-2.3-0.1-3.5-0.1c-1.4,0-2.9,0.1-4.2,0.1c-0.5,0.1-0.6,0.3-0.8,0.3
		c-0.3,0-1.6-0.6-1.6-0.8c0,0,0.1-0.1,0.2-0.1c0,0,0.1,0,0.1,0c0.9,0.1,1.8,0.2,3.1,0.2c0.5,0,1,0,1.6,0v-1.8c0-0.2-0.2-0.3-0.6-0.5
		c-0.1,0-0.2-0.1-0.2-0.1l-1,0c-0.2,0.5-0.3,0.7-0.4,0.7c-0.2,0-0.2-0.2-0.2-0.6L16.2,308.9z M17,310.3l0,2.3l4-0.1v-2.3L17,310.3z"
		/>
	<path d="M29.4,313.4c-1.2-0.1-1.9-0.9-1.9-1.7c0-0.7,0.6-1.5,1.8-1.7c0.1-0.1,0.1-0.2,0.1-0.3c0-0.1-0.1-0.3-0.2-0.4
		c-0.4,0-0.9,0-1.4,0.1c-0.3,0-0.3,0.2-0.5,0.2c-0.2,0-1.1-0.5-1.1-0.6c0,0,0-0.1,0.1-0.1c0,0,0.1,0,0.2,0c0.5,0.1,1.1,0.1,1.8,0.1
		c0.7,0,1.5,0,2.2-0.1h0.1c0.7-0.1,0.5-0.4,1.3-0.4c0.3,0,0.8,0,0.8,0.3c0,0.1-0.2,0.3-0.5,0.3c-0.5,0-1.7,0.1-2.6,0.1
		c0.1,0.2,0.3,0.3,0.3,0.4v0c0,0.2-0.1,0.2-0.1,0.3v0c1.2,0.2,1.8,0.9,1.8,1.7c0,0.8-0.6,1.5-1.7,1.6l0,1.1c0.7-0.1,2.5-0.3,3.5-0.7
		v-6.5c0-0.2-0.5-0.5-1.1-0.7c-0.2-0.1-0.3-0.1-0.3-0.2c0-0.1,0.1-0.1,0.4-0.2c0.6,0,1.1,0.2,1.5,0.3c0.2,0.1,0.3,0.2,0.3,0.3
		c0,0.1,0,0.2,0,0.3v4.9c0.2,0,0.4,0,0.6,0c0.3-0.1,0.2-0.3,1.2-0.3c0.4,0,0.5,0.2,0.5,0.4c0,0.1-0.1,0.3-0.3,0.3
		c-0.5,0-1.7,0.1-2,0.1v2.2c0,1.1,0,1.8-0.2,2.5c-0.1,0.2-0.2,0.4-0.3,0.4c-0.1,0-0.2-0.1-0.2-0.5V314c-1.5,0.6-3.8,1-5.4,1.4
		c-0.2,0.1-0.3,0.2-0.4,0.2c-0.3,0-1.7-0.6-1.7-0.9c0,0,0-0.1,0.1-0.1c0.1,0,0.1,0,0.2,0c0.3,0.1,0.6,0.1,0.9,0.1
		c0.7,0,1.5-0.1,2.1-0.2V313.4z M29,308.1c-0.5,0-1-0.7-1-0.8c0,0,0-0.1,0.1-0.1c0,0,0.1,0,0.3,0c0.4,0.1,1.2,0.2,2.2,0.2
		c0.4,0,0.6,0.2,0.6,0.3c0,0.2-0.4,0.2-1,0.2H29z M28.2,311.7c0,0.6,0.5,1.2,1.5,1.2c0.9,0,1.4-0.6,1.4-1.2c0-0.6-0.5-1.2-1.4-1.2
		C28.7,310.4,28.2,311.1,28.2,311.7z"/>
	<path d="M43.4,310c-0.1,1.2-1,2-2.5,2c-1.6,0-2.4-1.1-2.4-2.1c0-0.9,0.6-1.8,2-2l0.1,0c0.2,0,0.3-0.1,0.3-0.3c0-0.1,0-0.1,0-0.2
		c-0.1-0.1-0.2-0.1-0.2-0.2c0,0,0-0.1,0.1-0.1c0.3,0,0.7,0.2,0.7,0.4c0,0.1-0.1,0.2-0.2,0.4c1.4,0.2,2.1,1,2.1,1.8L43.4,310z
		 M39.2,309.9c0,0.8,0.6,1.6,1.7,1.6c1.2,0,1.9-0.8,1.9-1.6s-0.6-1.6-1.9-1.6C39.7,308.3,39.2,309.1,39.2,309.9z M44,313.2
		c0-0.1-0.1-0.2-0.2-0.3c-0.1,0-0.1-0.1-0.1-0.2s0-0.1,0.1-0.1c0.2,0,0.8,0.2,0.8,0.4c0,0.1-0.1,0.2-0.2,0.3c1.3,0.2,2,1.1,2,1.9
		c0,1-0.8,1.9-2.4,1.9c-1.5,0-2.3-1-2.3-1.9c0-0.9,0.6-1.8,2-1.9C44,313.4,44,313.3,44,313.2z M42.5,315.2c0,0.7,0.6,1.5,1.7,1.5
		c1.1,0,1.7-0.7,1.7-1.5c0-0.7-0.6-1.5-1.7-1.5C43,313.8,42.5,314.5,42.5,315.2z M46,307.4c0-0.3-0.5-0.6-1-0.8
		c-0.1,0-0.3-0.1-0.3-0.2c0-0.1,0.3-0.1,0.4-0.1c0.3,0,1.2,0.2,1.4,0.3c0.3,0.1,0.4,0.2,0.4,0.3c0,0.1,0,0.2,0,0.4l0,3.7
		c0,1.6-0.1,1.8-0.3,2.2c-0.1,0.2-0.2,0.3-0.3,0.3c-0.1,0-0.2-0.3-0.2-0.7v-1.5c-0.4,0-0.8,0.1-1.2,0.1c-0.2,0-0.3,0.1-0.4,0.1
		c-0.2,0-1-0.4-1-0.5c0,0,0.1-0.1,0.2-0.1c0.1,0,0.5,0,0.6,0c0.6,0,1.2,0,1.8-0.1V309c-0.5,0-0.9,0.1-1.1,0.1
		c-0.3,0-0.3,0.1-0.4,0.1c-0.2,0-1-0.3-1-0.5c0,0,0,0,0.1,0c0.1,0,0.1,0,0.3,0c0.3,0,0.5,0,0.7,0c0.6,0,0.8,0,1.5-0.1V307.4z"/>
	<path d="M54.7,313.6c0-0.2-0.2-0.3-0.6-0.5c-0.1,0-0.2-0.1-0.2-0.1c0-0.1,0.1-0.1,0.3-0.1c1,0.1,1.2,0.2,1.2,0.3c0,0.1,0,0.2,0,0.3
		l0,2c0.5,0,1.1,0,2.4-0.1c0.8-0.1,0.7-0.3,1.2-0.3c0.5,0,1.4,0.1,1.4,0.5c0,0.1-0.2,0.3-0.5,0.3h-0.1c-1-0.1-2.3-0.1-3.5-0.1
		c-1.4,0-2.9,0.1-4.2,0.1c-0.5,0.1-0.6,0.3-0.8,0.3c-0.3,0-1.6-0.6-1.6-0.8c0,0,0.1-0.1,0.2-0.1c0,0,0.1,0,0.1,0
		c0.9,0.1,1.8,0.2,3.1,0.2c0.5,0,1,0,1.6,0V313.6z M51.9,308.6c0-0.2-0.5-0.4-1-0.6c-0.1,0-0.2-0.1-0.2-0.1c0-0.1,0.1-0.1,0.4-0.1
		c0.7,0,1.3,0.2,1.6,0.3l3.3,0c1.3-0.1,0.6-0.4,2-0.4h0.1c0.4,0,0.6,0.2,0.6,0.3c0,0.2-0.2,0.3-0.6,0.3c-1.9,0.1-4.1,0.1-5.2,0.1
		c-0.1,0.1-0.3,0-0.3,0.2v2.7c0,0.5,0,0.5,1.7,0.5c0.7,0,1.5,0,2.2,0c0.8,0,0.5-0.3,1.6-0.3c0.6,0,0.7,0.2,0.7,0.3
		c0,0.2-0.2,0.3-0.5,0.3c-0.6,0-2.6,0-4,0c-0.7,0-1.3,0-1.5,0c-0.4,0-0.9-0.3-0.9-0.9L51.9,308.6z"/>
	<path d="M68.1,308.2c-0.4,0.1-0.5,0.2-0.7,0.2c-0.3,0-1.2-0.4-1.2-0.6c0,0,0-0.1,0.1-0.1c0.1,0,0.2,0,0.3,0c0.5,0,1.1,0.1,1.7,0.1
		c0.6,0,1.2,0,1.8,0c0.3,0,0.3-0.1,0.7-0.1c0.3,0,0.8,0.1,0.8,0.2c0,0.1-0.2,0.2-0.3,0.4c-1.1,2-2.7,3.7-5.1,4.9
		c-0.2,0.1-0.3,0.2-0.4,0.2c0,0,0,0,0,0c0,0,0.1-0.2,0.3-0.3c1.7-1.1,3.7-3.4,4.3-4.8L68.1,308.2z M69,314c-0.1-0.3-0.3-0.4-0.7-0.5
		c-0.1,0-0.3-0.1-0.3-0.1c0,0,0.1-0.1,0.3-0.2c0.6,0,1.3,0.1,1.5,0.2l3.3-0.1c0.3,0,0.3-0.1,0.6-0.1c0.2,0,0.7,0,0.7,0.2
		c0,0.1-0.1,0.2-0.2,0.3c-0.2,0.9-0.5,2.1-0.6,2.5c0.4,0,0.6,0.2,0.6,0.3c0,0.1-0.1,0.2-0.4,0.2h-4.1c-0.1,0.5-0.3,0.8-0.4,0.8
		c-0.1,0-0.2-0.2-0.2-0.7L69,314z M69.7,314.4l0,2l2.7,0c0.4,0,0.4-0.1,0.7-0.2l0.1-2.6l-3.5,0c0,0-0.2,0.1-0.2,0.2V314.4z
		 M73.5,307.2c0-0.1-0.3-0.4-1-0.6c-0.2-0.1-0.3-0.1-0.3-0.2c0-0.1,0.1-0.1,0.4-0.1c0.6,0,0.9,0.2,1.3,0.3c0.3,0.1,0.4,0.2,0.4,0.3
		c0,0.1,0,0.2,0,0.3l0,3.2c0.2,0,0.3,0,0.5,0c0.6-0.1,0.3-0.3,1.2-0.3c0.2,0,0.7,0,0.7,0.3c0,0.1-0.1,0.3-0.3,0.3l-2.1,0
		c0,1.8-0.5,2-0.6,2c-0.1,0-0.2-0.1-0.2-0.5V307.2z"/>
	<path d="M77.5,313.8c1.1-1,2.8-3,3.4-5c0-0.2,0-0.3-0.6-0.8c-0.3-0.2-0.3-0.3,0-0.3c0.1,0,0.3,0,0.5,0.1c0.9,0.4,1.2,0.6,1.2,0.8
		c0,0.1-0.1,0.4-0.9,1.8c0.3,0.5,0.7,0.9,1.3,1.3c0.5,0.4,0.6,0.3,1,1.1c0.1,0.2,0.2,0.4,0.2,0.6c0,0.2-0.1,0.4-0.2,0.4
		c-0.1,0-0.2,0-0.3-0.1c-0.4-0.5-1.2-1.7-2.2-2.9c-1.3,1.9-3.2,3.4-3.5,3.4c0,0,0,0,0,0C77.3,314,77.3,313.9,77.5,313.8z
		 M85.5,307.2c0-0.2-0.7-0.5-1.2-0.7c-0.1,0-0.2-0.1-0.2-0.2c0-0.1,0.1-0.1,0.5-0.1c0.5,0.1,1,0.2,1.4,0.3c0.3,0.1,0.3,0.2,0.3,0.3
		c0,0.1,0,0.2,0,0.4v4.4h0.6c0.6-0.1,0.4-0.3,1.1-0.3c0.2,0,0.7,0,0.7,0.4c0,0.2-0.1,0.3-0.4,0.3h-2.1l0,3.5c0,0.8-0.1,1.3-0.3,1.8
		c-0.1,0.1-0.2,0.2-0.3,0.2c-0.1,0-0.2-0.2-0.2-0.6V307.2z"/>
</g>
</svg>
