<?xml version="1.0" encoding="utf-8"?>
<!-- Generator: Adobe Illustrator 23.0.0, SVG Export Plug-In . SVG Version: 6.00 Build 0)  -->
<svg version="1.1" id="租金分红" xmlns="http://www.w3.org/2000/svg" xmlns:xlink="http://www.w3.org/1999/xlink" x="0px"
	 y="0px" viewBox="0 0 1072 186" style="enable-background:new 0 0 1072 186;" xml:space="preserve">
<style type="text/css">
	.st0{fill:none;stroke:#90A7AB;}
	.st1{fill:#9FE7DD;stroke:#34B9A1;stroke-width:2;}
	.st2{fill:none;stroke:#456E68;stroke-width:1.5;stroke-miterlimit:10;}
	.st3{enable-background:new    ;}
	.st4{fill:#456E68;}
</style>
<g id="组_29">
	<path id="形状_1" class="st0" d="M122.8,82.9h132.5l-4.8-5.5"/>
	<path id="形状_1_拷贝_6" class="st0" d="M255.1,103.1H122.8l4.8,5.5"/>
</g>
<path id="形状_1_拷贝_7" class="st0" d="M786.9,88.4h132.5l-4.8-5.5"/>
<g id="组_29_拷贝">
	<path id="形状_1-2" class="st0" d="M489.3,81h132.5l-4.8-5.5"/>
	<path id="形状_1_拷贝_6-2" class="st0" d="M621.6,101.3H489.3l4.8,5.5"/>
</g>
<circle id="椭圆_6" class="st1" cx="377.3" cy="93" r="91.8"/>
<g>
	<circle class="st2" cx="56" cy="65.3" r="15.3"/>
	<line class="st2" x1="43.7" y1="89.3" x2="56" y2="103.3"/>
	<line class="st2" x1="68" y1="89.3" x2="56" y2="103.3"/>
	<line class="st2" x1="56" y1="117.3" x2="56" y2="103.3"/>
	<path class="st2" d="M88.9,109.3v3.3c0,3-2.5,5.5-5.5,5.5H28.6c-3,0-5.5-2.5-5.5-5.5v-3.3"/>
	<path class="st2" d="M28.6,103.8"/>
	<path class="st2" d="M23.1,110.8c0-12.4,10.2-21.9,22.6-21.9h20.6c12.4,0,22.5,10.1,22.5,22.5l0,0"/>
</g>
<g class="st3">
	<path class="st4" d="M740.7,50h-10v10h10V50z M737.4,56.6h-3.3v-3.3h3.3V56.6z"/>
	<path class="st4" d="M754,50h-10v10h10V50z M750.7,56.6h-3.3v-3.3h3.3V56.6z"/>
	<path class="st4" d="M740.7,63.3h-10v10h10V63.3z M737.4,69.9h-3.3v-3.3h3.3V69.9z"/>
	<path class="st4" d="M754,63.3h-10v10h10V63.3z M750.7,69.9h-3.3v-3.3h3.3V69.9z"/>
	<path class="st4" d="M740.7,86.5v-10h-10v10H740.7z M734.1,79.9h3.3v3.3h-3.3V79.9z"/>
	<path class="st4" d="M754,76.6h-10v10h10V76.6z M750.7,83.2h-3.3v-3.3h3.3V83.2z"/>
	<path class="st4" d="M764,46.7v-3.3h-3.3v-6.6h-3.3v-6.6h-29.9v6.6h-3.3v6.6h-3.3v3.3h3.3v43.2h-13.3v-20h3.3V60h-3.3v-2.5
		l-23.3-16.1l-10,6.9v-5.1h-10v12l-3.3,2.3V60H661v10h3.3v20.3c-1.9,0.7-3.3,2.5-3.3,4.6v3.3c0,2.7,2.3,5,5,5h32.4
		c-2.6,3.2-4.2,7.2-4.2,11.6c0,10.1,8.2,18.3,18.3,18.3s18.3-8.1,18.3-18.2c0-4.4-1.5-8.4-4.2-11.6H759c2.7,0,5-2.3,5-5V95
		c0-2.1-1.4-4-3.3-4.6V46.7H764z M730.8,33.4H754v3.3h-23.3L730.8,33.4L730.8,33.4z M727.5,40h29.9v3.3h-29.9V40z M671,46.4h3.3v4.2
		l-3.3,2.3V46.4z M667.6,59.3l19.9-13.8l19.9,13.8v0.8h-39.9L667.6,59.3L667.6,59.3z M664.3,63.3h46.5v3.3h-46.5V63.3z M707.5,69.9
		v19.9h-13.3V73.3h-13.3v16.6h-13.3v-20H707.5z M690.9,89.9h-6.6V76.6h6.6V89.9z M712.5,129.7c-8.2,0-15-6.8-15-15s6.8-15,15-15
		s15,6.8,15,15C727.5,123.1,720.8,129.7,712.5,129.7z M760.7,98.2c0,0.9-0.7,1.7-1.7,1.7h-36.1c-3-2.1-6.5-3.3-10.4-3.3
		s-7.5,1.2-10.4,3.3H666c-0.9,0-1.7-0.7-1.7-1.7v-3.3c0-0.9,0.7-1.7,1.7-1.7h93c0.9,0,1.7,0.7,1.7,1.7V98.2z M757.4,89.9h-29.9V46.7
		h29.9V89.9z"/>
</g>
<g class="st3">
	<g>
		<g>
			<path class="st4" d="M964,53h-12.6c-0.9,0-1.6,0.7-1.6,1.6V61c0,0.9,0.7,1.6,1.6,1.6H964c0.9,0,1.6-0.7,1.6-1.6v-6.4
				C965.4,53.7,964.9,53,964,53z M955.9,59.4h-3.1v-3.1h3.1V59.4z M962.3,59.4h-3.1v-3.1h3.1V59.4z"/>
		</g>
	</g>
	<g>
		<g>
			<path class="st4" d="M964,65.6h-12.6c-0.9,0-1.6,0.7-1.6,1.6v6.4c0,0.9,0.7,1.6,1.6,1.6H964c0.9,0,1.6-0.7,1.6-1.6v-6.4
				C965.4,66.3,964.9,65.6,964,65.6z M955.9,72h-3.1v-3.1h3.1V72z M962.3,72h-3.1v-3.1h3.1V72z"/>
		</g>
	</g>
	<g>
		<g>
			<path class="st4" d="M964,78.4h-12.6c-0.9,0-1.6,0.7-1.6,1.6v6.2c0,0.9,0.7,1.6,1.6,1.6H964c0.9,0,1.6-0.7,1.6-1.6v-6.4
				C965.4,79,964.9,78.4,964,78.4z M955.9,84.6h-3.1v-3.1h3.1V84.6z M962.3,84.6h-3.1v-3.1h3.1V84.6z"/>
		</g>
	</g>
	<g>
		<g>
			<path class="st4" d="M1021,53h-12.6c-0.9,0-1.6,0.7-1.6,1.6V61c0,0.9,0.7,1.6,1.6,1.6h12.6c0.9,0,1.6-0.7,1.6-1.6v-6.4
				C1022.5,53.7,1021.9,53,1021,53z M1013,59.4h-3.1v-3.1h3.1V59.4z M1019.3,59.4h-3.1v-3.1h3.1V59.4z"/>
		</g>
	</g>
	<g>
		<g>
			<path class="st4" d="M1021,40.4h-12.6c-0.9,0-1.6,0.7-1.6,1.6v6.4c0,0.9,0.7,1.6,1.6,1.6h12.6c0.9,0,1.6-0.7,1.6-1.6V42
				C1022.5,40.9,1021.9,40.4,1021,40.4z M1013,46.6h-3.1v-3.1h3.1V46.6z M1019.3,46.6h-3.1v-3.1h3.1V46.6z"/>
		</g>
	</g>
	<g>
		<g>
			<path class="st4" d="M983,59.4h-6.4c-0.9,0-1.6,0.7-1.6,1.6v6.4c0,0.9,0.7,1.6,1.6,1.6h6.4c0.9,0,1.6-0.7,1.6-1.6V61
				C984.5,60,983.9,59.4,983,59.4z M981.3,65.6h-3.1v-3.1h3.1V65.6z"/>
		</g>
	</g>
	<g>
		<g>
			<path class="st4" d="M995.6,59.4h-6.4c-0.9,0-1.6,0.7-1.6,1.6v6.4c0,0.9,0.7,1.6,1.6,1.6h6.4c0.9,0,1.6-0.7,1.6-1.6V61
				C997.2,60,996.5,59.4,995.6,59.4z M994,65.6h-3.1v-3.1h3.1V65.6z"/>
		</g>
	</g>
	<g>
		<g>
			<path class="st4" d="M983,46.6h-6.4c-0.9,0-1.6,0.7-1.6,1.6v6.4c0,0.9,0.7,1.6,1.6,1.6h6.4c0.9,0,1.6-0.7,1.6-1.6v-6.4
				C984.5,47.3,983.9,46.6,983,46.6z M981.3,53h-3.1v-3.1h3.1V53z"/>
		</g>
	</g>
	<g>
		<g>
			<path class="st4" d="M995.6,46.6h-6.4c-0.9,0-1.6,0.7-1.6,1.6v6.4c0,0.9,0.7,1.6,1.6,1.6h6.4c0.9,0,1.6-0.7,1.6-1.6v-6.4
				C997.2,47.3,996.5,46.6,995.6,46.6z M994,53h-3.1v-3.1h3.1V53z"/>
		</g>
	</g>
	<g>
		<g>
			<path class="st4" d="M983,34h-6.4c-0.9,0-1.6,0.7-1.6,1.6V42c0,0.9,0.7,1.6,1.6,1.6h6.4c0.9,0,1.6-0.7,1.6-1.6v-6.4
				C984.5,34.7,983.9,34,983,34z M981.3,40.4h-3.1v-3.1h3.1V40.4z"/>
		</g>
	</g>
	<g>
		<g>
			<path class="st4" d="M995.6,34h-6.4c-0.9,0-1.6,0.7-1.6,1.6V42c0,0.9,0.7,1.6,1.6,1.6h6.4c0.9,0,1.6-0.7,1.6-1.6v-6.4
				C997.2,34.7,996.5,34,995.6,34z M994,40.4h-3.1v-3.1h3.1V40.4z"/>
		</g>
	</g>
	<g>
		<g>
			<path class="st4" d="M983,78.4h-6.4c-0.9,0-1.6,0.7-1.6,1.6v6.2c0,0.9,0.7,1.6,1.6,1.6h6.4c0.9,0,1.6-0.7,1.6-1.6v-6.4
				C984.5,79,983.9,78.4,983,78.4z M981.3,84.6h-3.1v-3.1h3.1V84.6z"/>
		</g>
	</g>
	<g>
		<g>
			<rect x="949.7" y="91" class="st4" width="3.1" height="3.1"/>
		</g>
	</g>
	<g>
		<g>
			<rect x="955.9" y="91" class="st4" width="3.1" height="3.1"/>
		</g>
	</g>
	<g>
		<g>
			<rect x="962.3" y="91" class="st4" width="3.1" height="3.1"/>
		</g>
	</g>
	<g>
		<g>
			<path class="st4" d="M1036.7,72h-7.9V35.6c0-0.9-0.7-1.6-1.6-1.6h-11.1v-2.5l1.6-1.6c1.3,1,3,1.6,4.6,1.6c2.1,0,4-0.7,5.5-2.2
				l0.3-0.3c0.6-0.6,0.6-1.6,0-2.2l-3.6-3.6l3.6-3.6l-2.2-2.2l-3.6,3.6l-5.2-5.2c-0.3-0.3-0.7-0.4-1.2-0.4c-0.6,0-1,0.3-1.3,0.6
				c-1.6,1.5-2.5,3.4-2.5,5.5s0.7,4.3,2.4,5.8l0.7,0.7l-2.1,2.1c-0.3,0.3-0.4,0.7-0.4,1.2v3.1h-9.5v-5c0-0.9-0.7-1.6-1.6-1.6H996
				l-9.1-12c-0.6-0.7-1.9-0.7-2.5,0l-9.1,12h-5.5c-0.9,0-1.6,0.7-1.6,1.6v17.4h-9.5V34h-3.1v12.6h-11.1c-0.9,0-1.6,0.7-1.6,1.6v60.1
				c0,0.9,0.7,1.6,1.6,1.6h25.4H981h12.6h1.6h9.5h25.4c4.3,0,7.9-3.6,7.9-7.9V73.6C1038.4,72.7,1037.6,72,1036.7,72z M968.7,106.9
				h-22.1v-57h22.1V106.9z M1016.2,18.8l8.6,8.6c-1.8,1-4.2,0.9-5.8-0.7l-2.2-2.2c-0.9-0.9-1.5-2.1-1.3-3.4
				C1015.6,20.3,1015.8,19.6,1016.2,18.8z M986.1,19.1l6.4,8.5h-12.6L986.1,19.1z M979.7,94.1v12.6h-7.9V48.2V30.9h28.5v4.8v28.5
				h3.1v-27h22.1V72h-3.1v-1.6c0-2.7-2.1-4.8-4.8-4.8h-9.5c-2.7,0-4.8,2.1-4.8,4.8V72H989c-0.9,0-1.6,0.7-1.6,1.6V91h-12.6v3.1
				H979.7z M1019.3,70.4V72h-12.6v-1.6c0-0.9,0.7-1.6,1.6-1.6h9.5C1018.6,68.9,1019.3,69.5,1019.3,70.4z M983,106.9V94.3h4.8v7.9
				c0,1.8,0.6,3.4,1.6,4.8H983V106.9z M1035.2,102.1c0,2.7-2.1,4.8-4.8,4.8H1005h-9.5c-2.7,0-4.8-2.1-4.8-4.8V86.2
				c1.3,1,3,1.6,4.8,1.6h1.6v4.8c0,0.9,0.7,1.6,1.6,1.6h6.4c0.9,0,1.6-0.7,1.6-1.6v-4.8h1.6h9.5h1.6v4.8c0,0.9,0.7,1.6,1.6,1.6h6.4
				c0.9,0,1.6-0.7,1.6-1.6v-4.8h1.6c1.8,0,3.4-0.6,4.8-1.6v15.9H1035.2z M1000.3,91v-3.1h3.1V91H1000.3z M1009.8,84.6v-3.1h6.4v3.1
				H1009.8z M1022.5,91v-3.1h3.1V91H1022.5z M1035.2,79.9c0,2.7-2.1,4.8-4.8,4.8h-3.1h-6.4h-1.6v-4.8c0-0.9-0.7-1.6-1.6-1.6h-9.5
				c-0.9,0-1.6,0.7-1.6,1.6v4.8h-1.6h-6.4h-3.1c-2.7,0-4.8-2.1-4.8-4.8v-4.8h44.4L1035.2,79.9L1035.2,79.9z"/>
		</g>
	</g>
	<g>
		<g>
			<rect x="1028.9" y="100.5" class="st4" width="3.1" height="3.1"/>
		</g>
	</g>
	<g>
		<g>
			<rect x="1022.5" y="100.5" class="st4" width="3.1" height="3.1"/>
		</g>
	</g>
	<g>
		<g>
			<rect x="1016.2" y="100.5" class="st4" width="3.1" height="3.1"/>
		</g>
	</g>
</g>
<g>
	<path class="st4" d="M706.7,122.5v-1.8c1.9-0.6,2.9-1.8,2.9-3.7v-2.2H707V113h2.6v-3c0-1.5,0.4-2.8,1.4-3.7c1-1,2.2-1.5,3.6-1.5
		c1,0,1.9,0.1,2.8,0.6v2.1c-0.8-0.6-1.8-0.7-2.6-0.7c-1.9,0-2.9,1.2-2.9,3.6v2.8h3.9v1.8h-4v1.8c0,1.9-0.8,3.2-2.3,4.1h8.9v1.8
		h-11.7V122.5z"/>
</g>
<g class="st3">
	<path class="st4" d="M5.7,151.6v-12.9h1.7v12.9H5.7z"/>
	<path class="st4" d="M10.2,151.6v-9.3h1.4v1.3c0.7-1,1.7-1.5,3-1.5c0.6,0,1.1,0.1,1.6,0.3c0.5,0.2,0.8,0.5,1.1,0.8s0.4,0.7,0.5,1.2
		c0.1,0.3,0.1,0.8,0.1,1.5v5.7h-1.6v-5.7c0-0.6-0.1-1.1-0.2-1.4s-0.3-0.6-0.7-0.8c-0.3-0.2-0.7-0.3-1.1-0.3c-0.7,0-1.3,0.2-1.7,0.6
		s-0.7,1.2-0.7,2.4v5.1H10.2z"/>
	<path class="st4" d="M22.8,151.6l-3.6-9.3h1.7l2,5.6c0.2,0.6,0.4,1.2,0.6,1.9c0.1-0.5,0.3-1.1,0.6-1.8l2.1-5.7h1.6l-3.5,9.3H22.8z"
		/>
	<path class="st4" d="M35.6,148.6l1.6,0.2c-0.3,1-0.7,1.7-1.4,2.2s-1.6,0.8-2.7,0.8c-1.4,0-2.4-0.4-3.2-1.3c-0.8-0.8-1.2-2-1.2-3.5
		c0-1.6,0.4-2.8,1.2-3.7s1.9-1.3,3.1-1.3c1.2,0,2.3,0.4,3.1,1.3s1.2,2,1.2,3.6c0,0.1,0,0.2,0,0.4h-7c0.1,1,0.3,1.8,0.9,2.4
		s1.2,0.8,2,0.8c0.6,0,1.1-0.2,1.5-0.5S35.3,149.3,35.6,148.6z M30.4,146h5.2c-0.1-0.8-0.3-1.4-0.6-1.8c-0.5-0.6-1.2-0.9-2-0.9
		c-0.7,0-1.3,0.2-1.8,0.7S30.4,145.2,30.4,146z"/>
	<path class="st4" d="M39.2,151.6v-9.3h1.4v1.4c0.4-0.7,0.7-1.1,1-1.3s0.6-0.3,1-0.3c0.5,0,1.1,0.2,1.6,0.5l-0.5,1.5
		c-0.4-0.2-0.8-0.3-1.2-0.3c-0.3,0-0.7,0.1-0.9,0.3s-0.5,0.5-0.6,0.9c-0.2,0.6-0.3,1.2-0.3,1.8v4.9H39.2z"/>
	<path class="st4" d="M44.6,148.8l1.6-0.2c0.1,0.6,0.3,1.1,0.7,1.4s1,0.5,1.7,0.5c0.7,0,1.3-0.1,1.6-0.4s0.5-0.6,0.5-1
		c0-0.4-0.2-0.6-0.5-0.8c-0.2-0.1-0.8-0.3-1.6-0.5c-1.2-0.3-2-0.5-2.4-0.8s-0.8-0.5-1-0.9c-0.2-0.4-0.3-0.8-0.3-1.3
		c0-0.4,0.1-0.8,0.3-1.2c0.2-0.4,0.4-0.6,0.8-0.9c0.2-0.2,0.6-0.3,1-0.5s0.9-0.2,1.4-0.2c0.7,0,1.4,0.1,1.9,0.3s1,0.5,1.2,0.9
		c0.3,0.4,0.4,0.8,0.5,1.4l-1.5,0.2c-0.1-0.5-0.3-0.9-0.6-1.1s-0.8-0.4-1.4-0.4c-0.7,0-1.2,0.1-1.6,0.4s-0.5,0.5-0.5,0.8
		c0,0.2,0.1,0.4,0.2,0.6c0.1,0.2,0.3,0.3,0.6,0.4c0.2,0.1,0.6,0.2,1.4,0.4c1.1,0.3,1.9,0.5,2.3,0.7s0.8,0.5,1,0.8s0.4,0.8,0.4,1.4
		c0,0.5-0.2,1-0.5,1.5c-0.3,0.5-0.8,0.8-1.3,1.1c-0.6,0.3-1.2,0.4-2,0.4c-1.2,0-2.1-0.3-2.8-0.8S44.7,149.8,44.6,148.8z"/>
	<path class="st4" d="M54.2,140.5v-1.8h1.6v1.8H54.2z M54.2,151.6v-9.3h1.6v9.3H54.2z"/>
	<path class="st4" d="M57.6,146.9c0-1.7,0.5-3,1.4-3.8c0.8-0.7,1.8-1,2.9-1c1.3,0,2.3,0.4,3.1,1.3s1.2,2,1.2,3.5
		c0,1.2-0.2,2.1-0.5,2.8c-0.4,0.7-0.9,1.2-1.6,1.6s-1.4,0.6-2.3,0.6c-1.3,0-2.4-0.4-3.2-1.3S57.6,148.5,57.6,146.9z M59.2,146.9
		c0,1.2,0.3,2.1,0.8,2.7c0.5,0.6,1.2,0.9,2,0.9c0.8,0,1.4-0.3,2-0.9s0.8-1.5,0.8-2.7c0-1.2-0.3-2-0.8-2.6c-0.5-0.6-1.2-0.9-2-0.9
		c-0.8,0-1.4,0.3-2,0.9S59.2,145.7,59.2,146.9z"/>
	<path class="st4" d="M68.2,151.6v-9.3h1.4v1.3c0.7-1,1.7-1.5,3-1.5c0.6,0,1.1,0.1,1.6,0.3c0.5,0.2,0.8,0.5,1.1,0.8s0.4,0.7,0.5,1.2
		c0.1,0.3,0.1,0.8,0.1,1.5v5.7h-1.6v-5.7c0-0.6-0.1-1.1-0.2-1.4s-0.3-0.6-0.7-0.8c-0.3-0.2-0.7-0.3-1.1-0.3c-0.7,0-1.3,0.2-1.7,0.6
		s-0.7,1.2-0.7,2.4v5.1H68.2z"/>
	<path class="st4" d="M78.2,140.5v-1.8h1.6v1.8H78.2z M78.2,151.6v-9.3h1.6v9.3H78.2z"/>
	<path class="st4" d="M81.6,148.8l1.6-0.2c0.1,0.6,0.3,1.1,0.7,1.4s1,0.5,1.7,0.5c0.7,0,1.3-0.1,1.6-0.4s0.5-0.6,0.5-1
		c0-0.4-0.2-0.6-0.5-0.8c-0.2-0.1-0.8-0.3-1.6-0.5c-1.2-0.3-2-0.5-2.4-0.8s-0.8-0.5-1-0.9c-0.2-0.4-0.3-0.8-0.3-1.3
		c0-0.4,0.1-0.8,0.3-1.2c0.2-0.4,0.4-0.6,0.8-0.9c0.2-0.2,0.6-0.3,1-0.5s0.9-0.2,1.4-0.2c0.7,0,1.4,0.1,1.9,0.3s1,0.5,1.2,0.9
		c0.3,0.4,0.4,0.8,0.5,1.4l-1.5,0.2c-0.1-0.5-0.3-0.9-0.6-1.1s-0.8-0.4-1.4-0.4c-0.7,0-1.2,0.1-1.6,0.4s-0.5,0.5-0.5,0.8
		c0,0.2,0.1,0.4,0.2,0.6c0.1,0.2,0.3,0.3,0.6,0.4c0.2,0.1,0.6,0.2,1.4,0.4c1.1,0.3,1.9,0.5,2.3,0.7s0.8,0.5,1,0.8s0.4,0.8,0.4,1.4
		c0,0.5-0.2,1-0.5,1.5c-0.3,0.5-0.8,0.8-1.3,1.1c-0.6,0.3-1.2,0.4-2,0.4c-1.2,0-2.1-0.3-2.8-0.8S81.8,149.8,81.6,148.8z"/>
	<path class="st4" d="M94.7,150.2l0.2,1.4c-0.4,0.1-0.8,0.1-1.2,0.1c-0.6,0-1-0.1-1.3-0.3s-0.5-0.4-0.7-0.7s-0.2-0.9-0.2-1.9v-5.4
		h-1.2v-1.2h1.2V140l1.6-0.9v3.3h1.6v1.2h-1.6v5.5c0,0.5,0,0.7,0.1,0.9s0.1,0.2,0.3,0.3s0.3,0.1,0.5,0.1
		C94.2,150.2,94.4,150.2,94.7,150.2z"/>
	<path class="st4" d="M102.3,150.4c-0.6,0.5-1.1,0.8-1.7,1.1s-1.1,0.3-1.7,0.3c-1,0-1.8-0.3-2.4-0.8c-0.6-0.5-0.8-1.1-0.8-1.9
		c0-0.5,0.1-0.9,0.3-1.3c0.2-0.4,0.5-0.7,0.8-0.9s0.7-0.4,1.1-0.5c0.3-0.1,0.8-0.2,1.4-0.2c1.3-0.2,2.2-0.3,2.8-0.5
		c0-0.2,0-0.4,0-0.4c0-0.6-0.1-1.1-0.4-1.4c-0.4-0.4-1-0.5-1.8-0.5c-0.7,0-1.3,0.1-1.6,0.4s-0.6,0.7-0.8,1.4l-1.5-0.2
		c0.1-0.7,0.4-1.2,0.7-1.6c0.3-0.4,0.8-0.7,1.4-0.9c0.6-0.2,1.3-0.3,2.1-0.3c0.8,0,1.4,0.1,1.9,0.3s0.9,0.4,1.1,0.7
		c0.2,0.3,0.4,0.6,0.5,1.1c0.1,0.3,0.1,0.8,0.1,1.5v2.1c0,1.5,0,2.4,0.1,2.8c0.1,0.4,0.2,0.8,0.4,1.1h-1.7
		C102.5,151.3,102.4,150.9,102.3,150.4z M102.2,146.9c-0.6,0.2-1.4,0.4-2.6,0.6c-0.7,0.1-1.1,0.2-1.4,0.3s-0.5,0.3-0.6,0.5
		s-0.2,0.5-0.2,0.8c0,0.4,0.2,0.8,0.5,1.1s0.8,0.4,1.4,0.4c0.6,0,1.2-0.1,1.6-0.4s0.8-0.6,1-1.1c0.2-0.4,0.3-0.9,0.3-1.6V146.9z"/>
	<path class="st4" d="M114.3,155.4c-0.9-1.1-1.6-2.4-2.2-3.9s-0.9-3-0.9-4.6c0-1.4,0.2-2.7,0.7-4c0.5-1.5,1.3-3,2.4-4.4h1.1
		c-0.7,1.2-1.2,2.1-1.4,2.6c-0.4,0.8-0.6,1.7-0.8,2.5c-0.3,1.1-0.4,2.2-0.4,3.3c0,2.8,0.9,5.6,2.6,8.4H114.3z"/>
	<path class="st4" d="M120.7,151.6v-11.4h-4.2v-1.5h10.2v1.5h-4.3v11.4H120.7z"/>
	<path class="st4" d="M132.6,148.6l1.6,0.2c-0.3,1-0.7,1.7-1.4,2.2s-1.6,0.8-2.7,0.8c-1.4,0-2.4-0.4-3.2-1.3c-0.8-0.8-1.2-2-1.2-3.5
		c0-1.6,0.4-2.8,1.2-3.7s1.9-1.3,3.1-1.3c1.2,0,2.3,0.4,3.1,1.3s1.2,2,1.2,3.6c0,0.1,0,0.2,0,0.4h-7c0.1,1,0.3,1.8,0.9,2.4
		s1.2,0.8,2,0.8c0.6,0,1.1-0.2,1.5-0.5S132.4,149.3,132.6,148.6z M127.4,146h5.2c-0.1-0.8-0.3-1.4-0.6-1.8c-0.5-0.6-1.2-0.9-2-0.9
		c-0.7,0-1.3,0.2-1.8,0.7S127.5,145.2,127.4,146z"/>
	<path class="st4" d="M136.2,151.6v-9.3h1.4v1.3c0.7-1,1.7-1.5,3-1.5c0.6,0,1.1,0.1,1.6,0.3c0.5,0.2,0.8,0.5,1.1,0.8
		s0.4,0.7,0.5,1.2c0.1,0.3,0.1,0.8,0.1,1.5v5.7h-1.6v-5.7c0-0.6-0.1-1.1-0.2-1.4s-0.3-0.6-0.7-0.8c-0.3-0.2-0.7-0.3-1.1-0.3
		c-0.7,0-1.3,0.2-1.7,0.6s-0.7,1.2-0.7,2.4v5.1H136.2z"/>
	<path class="st4" d="M152.6,148.6l1.6,0.2c-0.3,1-0.7,1.7-1.4,2.2s-1.6,0.8-2.7,0.8c-1.4,0-2.4-0.4-3.2-1.3c-0.8-0.8-1.2-2-1.2-3.5
		c0-1.6,0.4-2.8,1.2-3.7s1.9-1.3,3.1-1.3c1.2,0,2.3,0.4,3.1,1.3s1.2,2,1.2,3.6c0,0.1,0,0.2,0,0.4h-7c0.1,1,0.3,1.8,0.9,2.4
		s1.2,0.8,2,0.8c0.6,0,1.1-0.2,1.5-0.5S152.4,149.3,152.6,148.6z M147.4,146h5.2c-0.1-0.8-0.3-1.4-0.6-1.8c-0.5-0.6-1.2-0.9-2-0.9
		c-0.7,0-1.3,0.2-1.8,0.7S147.5,145.2,147.4,146z"/>
	<path class="st4" d="M162.3,151.6v-1.2c-0.6,0.9-1.5,1.4-2.6,1.4c-0.7,0-1.4-0.2-2.1-0.6s-1.1-1-1.5-1.7c-0.3-0.7-0.5-1.6-0.5-2.5
		c0-0.9,0.2-1.8,0.5-2.5s0.8-1.3,1.4-1.7s1.3-0.6,2.1-0.6c0.6,0,1.1,0.1,1.5,0.4c0.4,0.2,0.8,0.5,1.1,0.9v-4.6h1.6v12.9H162.3z
		 M157.3,146.9c0,1.2,0.3,2.1,0.8,2.7s1.1,0.9,1.8,0.9c0.7,0,1.3-0.3,1.8-0.8s0.7-1.4,0.7-2.6c0-1.3-0.2-2.2-0.7-2.8
		s-1.1-0.9-1.8-0.9c-0.7,0-1.3,0.3-1.8,0.9S157.3,145.7,157.3,146.9z"/>
	<path class="st4" d="M165.7,146.9c0-1.7,0.5-3,1.4-3.8c0.8-0.7,1.8-1,2.9-1c1.3,0,2.3,0.4,3.1,1.3s1.2,2,1.2,3.5
		c0,1.2-0.2,2.1-0.5,2.8c-0.4,0.7-0.9,1.2-1.6,1.6s-1.4,0.6-2.3,0.6c-1.3,0-2.4-0.4-3.2-1.3S165.7,148.5,165.7,146.9z M167.3,146.9
		c0,1.2,0.3,2.1,0.8,2.7c0.5,0.6,1.2,0.9,2,0.9c0.8,0,1.4-0.3,2-0.9s0.8-1.5,0.8-2.7c0-1.2-0.3-2-0.8-2.6c-0.5-0.6-1.2-0.9-2-0.9
		c-0.8,0-1.4,0.3-2,0.9S167.3,145.7,167.3,146.9z"/>
	<path class="st4" d="M176.3,151.6v-9.3h1.4v1.4c0.4-0.7,0.7-1.1,1-1.3s0.6-0.3,1-0.3c0.5,0,1.1,0.2,1.6,0.5l-0.5,1.5
		c-0.4-0.2-0.8-0.3-1.2-0.3c-0.3,0-0.7,0.1-0.9,0.3s-0.5,0.5-0.6,0.9c-0.2,0.6-0.3,1.2-0.3,1.8v4.9H176.3z"/>
	<path class="st4" d="M193.3,151.6v-1.2c-0.6,0.9-1.5,1.4-2.6,1.4c-0.7,0-1.4-0.2-2.1-0.6s-1.1-1-1.5-1.7c-0.3-0.7-0.5-1.6-0.5-2.5
		c0-0.9,0.2-1.8,0.5-2.5s0.8-1.3,1.4-1.7s1.3-0.6,2.1-0.6c0.6,0,1.1,0.1,1.5,0.4c0.4,0.2,0.8,0.5,1.1,0.9v-4.6h1.6v12.9H193.3z
		 M188.3,146.9c0,1.2,0.3,2.1,0.8,2.7s1.1,0.9,1.8,0.9c0.7,0,1.3-0.3,1.8-0.8s0.7-1.4,0.7-2.6c0-1.3-0.2-2.2-0.7-2.8
		s-1.1-0.9-1.8-0.9c-0.7,0-1.3,0.3-1.8,0.9S188.3,145.7,188.3,146.9z"/>
	<path class="st4" d="M203.7,148.6l1.6,0.2c-0.3,1-0.7,1.7-1.4,2.2s-1.6,0.8-2.7,0.8c-1.4,0-2.4-0.4-3.2-1.3c-0.8-0.8-1.2-2-1.2-3.5
		c0-1.6,0.4-2.8,1.2-3.7s1.9-1.3,3.1-1.3c1.2,0,2.3,0.4,3.1,1.3s1.2,2,1.2,3.6c0,0.1,0,0.2,0,0.4h-7c0.1,1,0.3,1.8,0.9,2.4
		s1.2,0.8,2,0.8c0.6,0,1.1-0.2,1.5-0.5S203.4,149.3,203.7,148.6z M198.5,146h5.2c-0.1-0.8-0.3-1.4-0.6-1.8c-0.5-0.6-1.2-0.9-2-0.9
		c-0.7,0-1.3,0.2-1.8,0.7S198.5,145.2,198.5,146z"/>
	<path class="st4" d="M215.7,150.2l0.2,1.4c-0.4,0.1-0.8,0.1-1.2,0.1c-0.6,0-1-0.1-1.3-0.3s-0.5-0.4-0.7-0.7s-0.2-0.9-0.2-1.9v-5.4
		h-1.2v-1.2h1.2V140l1.6-0.9v3.3h1.6v1.2h-1.6v5.5c0,0.5,0,0.7,0.1,0.9s0.1,0.2,0.3,0.3s0.3,0.1,0.5,0.1
		C215.2,150.2,215.5,150.2,215.7,150.2z"/>
	<path class="st4" d="M216.7,146.9c0-1.7,0.5-3,1.4-3.8c0.8-0.7,1.8-1,2.9-1c1.3,0,2.3,0.4,3.1,1.3s1.2,2,1.2,3.5
		c0,1.2-0.2,2.1-0.5,2.8c-0.4,0.7-0.9,1.2-1.6,1.6s-1.4,0.6-2.3,0.6c-1.3,0-2.4-0.4-3.2-1.3S216.7,148.5,216.7,146.9z M218.3,146.9
		c0,1.2,0.3,2.1,0.8,2.7c0.5,0.6,1.2,0.9,2,0.9c0.8,0,1.4-0.3,2-0.9s0.8-1.5,0.8-2.7c0-1.2-0.3-2-0.8-2.6c-0.5-0.6-1.2-0.9-2-0.9
		c-0.8,0-1.4,0.3-2,0.9S218.3,145.7,218.3,146.9z"/>
	<path class="st4" d="M227.3,151.6v-12.9h1.6v7.3l3.7-3.8h2l-3.6,3.5l3.9,5.9h-2l-3.1-4.8l-1.1,1.1v3.7H227.3z"/>
	<path class="st4" d="M242.7,148.6l1.6,0.2c-0.3,1-0.7,1.7-1.4,2.2s-1.6,0.8-2.7,0.8c-1.4,0-2.4-0.4-3.2-1.3c-0.8-0.8-1.2-2-1.2-3.5
		c0-1.6,0.4-2.8,1.2-3.7s1.9-1.3,3.1-1.3c1.2,0,2.3,0.4,3.1,1.3s1.2,2,1.2,3.6c0,0.1,0,0.2,0,0.4h-7c0.1,1,0.3,1.8,0.9,2.4
		s1.2,0.8,2,0.8c0.6,0,1.1-0.2,1.5-0.5S242.5,149.3,242.7,148.6z M237.5,146h5.2c-0.1-0.8-0.3-1.4-0.6-1.8c-0.5-0.6-1.2-0.9-2-0.9
		c-0.7,0-1.3,0.2-1.8,0.7S237.6,145.2,237.5,146z"/>
	<path class="st4" d="M246.3,151.6v-9.3h1.4v1.3c0.7-1,1.7-1.5,3-1.5c0.6,0,1.1,0.1,1.6,0.3c0.5,0.2,0.8,0.5,1.1,0.8
		s0.4,0.7,0.5,1.2c0.1,0.3,0.1,0.8,0.1,1.5v5.7h-1.6v-5.7c0-0.6-0.1-1.1-0.2-1.4s-0.3-0.6-0.7-0.8c-0.3-0.2-0.7-0.3-1.1-0.3
		c-0.7,0-1.3,0.2-1.7,0.6s-0.7,1.2-0.7,2.4v5.1H246.3z"/>
	<path class="st4" d="M255.7,148.8l1.6-0.2c0.1,0.6,0.3,1.1,0.7,1.4s1,0.5,1.7,0.5c0.7,0,1.3-0.1,1.6-0.4s0.5-0.6,0.5-1
		c0-0.4-0.2-0.6-0.5-0.8c-0.2-0.1-0.8-0.3-1.6-0.5c-1.2-0.3-2-0.5-2.4-0.8s-0.8-0.5-1-0.9c-0.2-0.4-0.3-0.8-0.3-1.3
		c0-0.4,0.1-0.8,0.3-1.2c0.2-0.4,0.4-0.6,0.8-0.9c0.2-0.2,0.6-0.3,1-0.5s0.9-0.2,1.4-0.2c0.7,0,1.4,0.1,1.9,0.3s1,0.5,1.2,0.9
		c0.3,0.4,0.4,0.8,0.5,1.4l-1.5,0.2c-0.1-0.5-0.3-0.9-0.6-1.1s-0.8-0.4-1.4-0.4c-0.7,0-1.2,0.1-1.6,0.4s-0.5,0.5-0.5,0.8
		c0,0.2,0.1,0.4,0.2,0.6c0.1,0.2,0.3,0.3,0.6,0.4c0.2,0.1,0.6,0.2,1.4,0.4c1.1,0.3,1.9,0.5,2.3,0.7s0.8,0.5,1,0.8s0.4,0.8,0.4,1.4
		c0,0.5-0.2,1-0.5,1.5c-0.3,0.5-0.8,0.8-1.3,1.1c-0.6,0.3-1.2,0.4-2,0.4c-1.2,0-2.1-0.3-2.8-0.8S255.9,149.8,255.7,148.8z"/>
	<path class="st4" d="M266.4,155.4h-1.1c1.8-2.8,2.6-5.6,2.6-8.4c0-1.1-0.1-2.2-0.4-3.3c-0.2-0.9-0.5-1.7-0.8-2.5
		c-0.2-0.5-0.7-1.4-1.4-2.6h1.1c1.1,1.5,1.9,2.9,2.4,4.4c0.5,1.3,0.7,2.6,0.7,4c0,1.6-0.3,3.1-0.9,4.6S267.2,154.3,266.4,155.4z"/>
</g>
<g class="st3">
	<path class="st4" d="M496.2,152.6v-11.5h7.7v1.4h-6.2v3.5h5.4v1.4h-5.4v5.2H496.2z"/>
	<path class="st4" d="M505.2,148.5c0-1.5,0.4-2.7,1.3-3.4c0.7-0.6,1.6-0.9,2.6-0.9c1.1,0,2.1,0.4,2.8,1.1c0.7,0.7,1.1,1.8,1.1,3.1
		c0,1.1-0.2,1.9-0.5,2.5s-0.8,1.1-1.4,1.4c-0.6,0.3-1.3,0.5-2,0.5c-1.2,0-2.1-0.4-2.8-1.1C505.6,150.9,505.2,149.9,505.2,148.5z
		 M506.6,148.5c0,1.1,0.2,1.9,0.7,2.4c0.5,0.5,1,0.8,1.8,0.8c0.7,0,1.3-0.3,1.7-0.8c0.5-0.5,0.7-1.3,0.7-2.4c0-1-0.2-1.8-0.7-2.3
		c-0.5-0.5-1-0.8-1.7-0.8c-0.7,0-1.3,0.3-1.8,0.8C506.9,146.6,506.6,147.4,506.6,148.5z"/>
	<path class="st4" d="M514.6,152.6v-8.3h1.3v1.2c0.6-0.9,1.5-1.4,2.6-1.4c0.5,0,1,0.1,1.4,0.3c0.4,0.2,0.7,0.4,0.9,0.7
		c0.2,0.3,0.4,0.6,0.4,1c0.1,0.3,0.1,0.7,0.1,1.4v5.1H520v-5c0-0.6-0.1-1-0.2-1.3s-0.3-0.5-0.6-0.7c-0.3-0.2-0.6-0.3-1-0.3
		c-0.6,0-1.1,0.2-1.6,0.6c-0.4,0.4-0.7,1.1-0.7,2.2v4.5H514.6z"/>
	<path class="st4" d="M528.9,152.6v-1c-0.5,0.8-1.3,1.2-2.3,1.2c-0.7,0-1.3-0.2-1.8-0.5s-1-0.9-1.3-1.5s-0.5-1.4-0.5-2.3
		c0-0.8,0.1-1.6,0.4-2.3c0.3-0.7,0.7-1.2,1.2-1.6c0.6-0.4,1.2-0.5,1.9-0.5c0.5,0,0.9,0.1,1.3,0.3s0.7,0.5,1,0.8v-4.1h1.4v11.5H528.9
		z M524.5,148.5c0,1.1,0.2,1.9,0.7,2.4c0.4,0.5,1,0.8,1.6,0.8c0.6,0,1.1-0.3,1.6-0.8s0.6-1.3,0.6-2.3c0-1.1-0.2-2-0.7-2.5
		s-1-0.8-1.6-0.8c-0.6,0-1.1,0.3-1.6,0.8C524.7,146.6,524.5,147.4,524.5,148.5z"/>
	<path class="st4" d="M531.9,148.5c0-1.5,0.4-2.7,1.3-3.4c0.7-0.6,1.6-0.9,2.6-0.9c1.1,0,2.1,0.4,2.8,1.1s1.1,1.8,1.1,3.1
		c0,1.1-0.2,1.9-0.5,2.5s-0.8,1.1-1.4,1.4s-1.3,0.5-2,0.5c-1.2,0-2.1-0.4-2.8-1.1C532.3,150.9,531.9,149.9,531.9,148.5z
		 M533.3,148.5c0,1.1,0.2,1.9,0.7,2.4c0.5,0.5,1,0.8,1.8,0.8c0.7,0,1.3-0.3,1.7-0.8s0.7-1.3,0.7-2.4c0-1-0.2-1.8-0.7-2.3
		s-1-0.8-1.7-0.8c-0.7,0-1.3,0.3-1.8,0.8C533.6,146.6,533.3,147.4,533.3,148.5z"/>
	<path class="st4" d="M540.8,150.1l1.4-0.2c0.1,0.6,0.3,1,0.7,1.3s0.9,0.4,1.5,0.4c0.6,0,1.1-0.1,1.4-0.4s0.5-0.6,0.5-0.9
		c0-0.3-0.1-0.6-0.4-0.8c-0.2-0.1-0.7-0.3-1.4-0.5c-1-0.3-1.7-0.5-2.1-0.7s-0.7-0.5-0.9-0.8s-0.3-0.7-0.3-1.1c0-0.4,0.1-0.7,0.3-1
		s0.4-0.6,0.7-0.8c0.2-0.2,0.5-0.3,0.9-0.4s0.8-0.2,1.2-0.2c0.7,0,1.2,0.1,1.7,0.3s0.9,0.4,1.1,0.8s0.4,0.7,0.5,1.3l-1.4,0.2
		c-0.1-0.4-0.2-0.8-0.5-1s-0.7-0.4-1.3-0.4c-0.6,0-1.1,0.1-1.4,0.3s-0.4,0.5-0.4,0.8c0,0.2,0.1,0.3,0.2,0.5c0.1,0.2,0.3,0.3,0.5,0.4
		c0.1,0.1,0.6,0.2,1.2,0.4c1,0.3,1.7,0.5,2.1,0.7s0.7,0.4,0.9,0.7s0.3,0.7,0.3,1.2c0,0.5-0.1,0.9-0.4,1.3s-0.7,0.7-1.2,1
		s-1.1,0.3-1.8,0.3c-1.1,0-1.9-0.2-2.5-0.7S540.9,151,540.8,150.1z"/>
	<path class="st4" d="M559.1,152.6v-1c-0.5,0.8-1.3,1.2-2.3,1.2c-0.7,0-1.3-0.2-1.8-0.5s-1-0.9-1.3-1.5s-0.5-1.4-0.5-2.3
		c0-0.8,0.1-1.6,0.4-2.3s0.7-1.2,1.2-1.6s1.2-0.5,1.9-0.5c0.5,0,0.9,0.1,1.3,0.3s0.7,0.5,1,0.8v-4.1h1.4v11.5H559.1z M554.7,148.5
		c0,1.1,0.2,1.9,0.7,2.4s1,0.8,1.6,0.8c0.6,0,1.1-0.3,1.6-0.8s0.6-1.3,0.6-2.3c0-1.1-0.2-2-0.7-2.5s-1-0.8-1.6-0.8
		c-0.6,0-1.1,0.3-1.6,0.8S554.7,147.4,554.7,148.5z"/>
	<path class="st4" d="M568.3,149.9l1.5,0.2c-0.2,0.8-0.7,1.5-1.3,2s-1.4,0.7-2.4,0.7c-1.2,0-2.2-0.4-2.9-1.1s-1.1-1.8-1.1-3.1
		c0-1.4,0.4-2.5,1.1-3.3s1.7-1.2,2.8-1.2c1.1,0,2,0.4,2.7,1.1s1.1,1.8,1.1,3.2c0,0.1,0,0.2,0,0.4h-6.2c0.1,0.9,0.3,1.6,0.8,2.1
		s1,0.7,1.7,0.7c0.5,0,1-0.1,1.3-0.4S568.1,150.5,568.3,149.9z M563.7,147.7h4.6c-0.1-0.7-0.2-1.2-0.5-1.6c-0.4-0.5-1-0.8-1.7-0.8
		c-0.6,0-1.2,0.2-1.6,0.6S563.8,146.9,563.7,147.7z"/>
	<path class="st4" d="M576,152.6v-11.5h1.4v11.5H576z"/>
	<path class="st4" d="M579,148.5c0-1.5,0.4-2.7,1.3-3.4c0.7-0.6,1.6-0.9,2.6-0.9c1.1,0,2.1,0.4,2.8,1.1s1.1,1.8,1.1,3.1
		c0,1.1-0.2,1.9-0.5,2.5s-0.8,1.1-1.4,1.4s-1.3,0.5-2,0.5c-1.2,0-2.1-0.4-2.8-1.1S579,149.9,579,148.5z M580.5,148.5
		c0,1.1,0.2,1.9,0.7,2.4s1,0.8,1.8,0.8c0.7,0,1.3-0.3,1.7-0.8s0.7-1.3,0.7-2.4c0-1-0.2-1.8-0.7-2.3s-1-0.8-1.7-0.8
		c-0.7,0-1.3,0.3-1.8,0.8S580.5,147.4,580.5,148.5z"/>
	<path class="st4" d="M587.9,150.1l1.4-0.2c0.1,0.6,0.3,1,0.7,1.3s0.9,0.4,1.5,0.4c0.6,0,1.1-0.1,1.4-0.4s0.5-0.6,0.5-0.9
		c0-0.3-0.1-0.6-0.4-0.8c-0.2-0.1-0.7-0.3-1.4-0.5c-1-0.3-1.7-0.5-2.1-0.7s-0.7-0.5-0.9-0.8s-0.3-0.7-0.3-1.1c0-0.4,0.1-0.7,0.3-1
		s0.4-0.6,0.7-0.8c0.2-0.2,0.5-0.3,0.9-0.4s0.8-0.2,1.2-0.2c0.7,0,1.2,0.1,1.7,0.3s0.9,0.4,1.1,0.8s0.4,0.7,0.5,1.3l-1.4,0.2
		c-0.1-0.4-0.2-0.8-0.5-1s-0.7-0.4-1.3-0.4c-0.6,0-1.1,0.1-1.4,0.3s-0.4,0.5-0.4,0.8c0,0.2,0.1,0.3,0.2,0.5c0.1,0.2,0.3,0.3,0.5,0.4
		c0.1,0.1,0.6,0.2,1.2,0.4c1,0.3,1.7,0.5,2.1,0.7s0.7,0.4,0.9,0.7s0.3,0.7,0.3,1.2c0,0.5-0.1,0.9-0.4,1.3s-0.7,0.7-1.2,1
		s-1.1,0.3-1.8,0.3c-1.1,0-1.9-0.2-2.5-0.7S588.1,151,587.9,150.1z"/>
	<path class="st4" d="M602.2,152.6h-1.3v-11.5h1.4v4.1c0.6-0.7,1.4-1.1,2.3-1.1c0.5,0,1,0.1,1.4,0.3s0.8,0.5,1.1,0.9
		s0.5,0.8,0.7,1.3s0.3,1.1,0.3,1.7c0,1.4-0.4,2.5-1.1,3.3s-1.5,1.2-2.5,1.2c-1,0-1.7-0.4-2.3-1.2V152.6z M602.2,148.4
		c0,1,0.1,1.7,0.4,2.2c0.4,0.7,1,1.1,1.8,1.1c0.6,0,1.1-0.3,1.6-0.8s0.7-1.3,0.7-2.4c0-1.1-0.2-1.9-0.6-2.4s-0.9-0.8-1.6-0.8
		c-0.6,0-1.1,0.3-1.6,0.8S602.2,147.4,602.2,148.4z"/>
	<path class="st4" d="M609.8,142.8v-1.6h1.4v1.6H609.8z M609.8,152.6v-8.3h1.4v8.3H609.8z"/>
	<path class="st4" d="M619,149.9l1.5,0.2c-0.2,0.8-0.7,1.5-1.3,2s-1.4,0.7-2.4,0.7c-1.2,0-2.2-0.4-2.9-1.1s-1.1-1.8-1.1-3.1
		c0-1.4,0.4-2.5,1.1-3.3s1.7-1.2,2.8-1.2c1.1,0,2,0.4,2.7,1.1s1.1,1.8,1.1,3.2c0,0.1,0,0.2,0,0.4h-6.2c0.1,0.9,0.3,1.6,0.8,2.1
		s1,0.7,1.7,0.7c0.5,0,1-0.1,1.3-0.4S618.8,150.5,619,149.9z M614.4,147.7h4.6c-0.1-0.7-0.2-1.2-0.5-1.6c-0.4-0.5-1-0.8-1.7-0.8
		c-0.6,0-1.2,0.2-1.6,0.6S614.5,146.9,614.4,147.7z"/>
	<path class="st4" d="M622.3,152.6v-8.3h1.3v1.2c0.6-0.9,1.5-1.4,2.6-1.4c0.5,0,1,0.1,1.4,0.3s0.7,0.4,0.9,0.7s0.4,0.6,0.4,1
		c0.1,0.3,0.1,0.7,0.1,1.4v5.1h-1.4v-5c0-0.6-0.1-1-0.2-1.3s-0.3-0.5-0.6-0.7s-0.6-0.3-1-0.3c-0.6,0-1.1,0.2-1.6,0.6
		s-0.7,1.1-0.7,2.2v4.5H622.3z"/>
	<path class="st4" d="M636.8,149.9l1.5,0.2c-0.2,0.8-0.7,1.5-1.3,2s-1.4,0.7-2.4,0.7c-1.2,0-2.2-0.4-2.9-1.1s-1.1-1.8-1.1-3.1
		c0-1.4,0.4-2.5,1.1-3.3s1.7-1.2,2.8-1.2c1.1,0,2,0.4,2.7,1.1s1.1,1.8,1.1,3.2c0,0.1,0,0.2,0,0.4h-6.2c0.1,0.9,0.3,1.6,0.8,2.1
		s1,0.7,1.7,0.7c0.5,0,1-0.1,1.3-0.4S636.6,150.5,636.8,149.9z M632.2,147.7h4.6c-0.1-0.7-0.2-1.2-0.5-1.6c-0.4-0.5-1-0.8-1.7-0.8
		c-0.6,0-1.2,0.2-1.6,0.6S632.3,146.9,632.2,147.7z"/>
	<path class="st4" d="M639.5,150.1l1.4-0.2c0.1,0.6,0.3,1,0.7,1.3s0.9,0.4,1.5,0.4c0.6,0,1.1-0.1,1.4-0.4s0.5-0.6,0.5-0.9
		c0-0.3-0.1-0.6-0.4-0.8c-0.2-0.1-0.7-0.3-1.4-0.5c-1-0.3-1.7-0.5-2.1-0.7s-0.7-0.5-0.9-0.8s-0.3-0.7-0.3-1.1c0-0.4,0.1-0.7,0.3-1
		s0.4-0.6,0.7-0.8c0.2-0.2,0.5-0.3,0.9-0.4s0.8-0.2,1.2-0.2c0.7,0,1.2,0.1,1.7,0.3s0.9,0.4,1.1,0.8s0.4,0.7,0.5,1.3l-1.4,0.2
		c-0.1-0.4-0.2-0.8-0.5-1s-0.7-0.4-1.3-0.4c-0.6,0-1.1,0.1-1.4,0.3s-0.4,0.5-0.4,0.8c0,0.2,0.1,0.3,0.2,0.5c0.1,0.2,0.3,0.3,0.5,0.4
		c0.1,0.1,0.6,0.2,1.2,0.4c1,0.3,1.7,0.5,2.1,0.7s0.7,0.4,0.9,0.7s0.3,0.7,0.3,1.2c0,0.5-0.1,0.9-0.4,1.3s-0.7,0.7-1.2,1
		s-1.1,0.3-1.8,0.3c-1.1,0-1.9-0.2-2.5-0.7S639.6,151,639.5,150.1z"/>
	<path class="st4" d="M652.5,142.8v-1.6h1.4v1.6H652.5z M652.5,152.6v-8.3h1.4v8.3H652.5z"/>
	<path class="st4" d="M656.1,152.6v-8.3h1.3v1.2c0.6-0.9,1.5-1.4,2.6-1.4c0.5,0,1,0.1,1.4,0.3s0.7,0.4,0.9,0.7s0.4,0.6,0.4,1
		c0.1,0.3,0.1,0.7,0.1,1.4v5.1h-1.4v-5c0-0.6-0.1-1-0.2-1.3s-0.3-0.5-0.6-0.7s-0.6-0.3-1-0.3c-0.6,0-1.1,0.2-1.6,0.6
		s-0.7,1.1-0.7,2.2v4.5H656.1z"/>
	<path class="st4" d="M665,152.6v-8.3h1.3v1.2c0.3-0.4,0.6-0.7,1-1s0.9-0.4,1.5-0.4c0.6,0,1.1,0.1,1.5,0.4s0.7,0.6,0.8,1.1
		c0.7-1,1.5-1.5,2.6-1.5c0.8,0,1.5,0.2,1.9,0.7s0.7,1.2,0.7,2.1v5.7h-1.4v-5.2c0-0.6,0-1-0.1-1.2s-0.3-0.4-0.5-0.6s-0.5-0.2-0.8-0.2
		c-0.6,0-1.1,0.2-1.5,0.6s-0.6,1-0.6,1.9v4.8h-1.4v-5.4c0-0.6-0.1-1.1-0.3-1.4s-0.6-0.5-1.1-0.5c-0.4,0-0.8,0.1-1.1,0.3
		s-0.6,0.5-0.7,0.9s-0.2,1-0.2,1.7v4.3H665z"/>
	<path class="st4" d="M683.7,152.6v-1.2c-0.6,0.9-1.5,1.4-2.6,1.4c-0.5,0-0.9-0.1-1.4-0.3s-0.7-0.4-0.9-0.7s-0.4-0.6-0.4-1
		c-0.1-0.3-0.1-0.7-0.1-1.3v-5.1h1.4v4.6c0,0.7,0,1.2,0.1,1.5c0.1,0.4,0.3,0.7,0.6,0.9s0.6,0.3,1.1,0.3s0.8-0.1,1.2-0.3
		s0.6-0.5,0.8-0.9s0.2-0.9,0.2-1.6v-4.4h1.4v8.3H683.7z"/>
	<path class="st4" d="M692.9,149.9l1.5,0.2c-0.2,0.8-0.7,1.5-1.3,2s-1.4,0.7-2.4,0.7c-1.2,0-2.2-0.4-2.9-1.1s-1.1-1.8-1.1-3.1
		c0-1.4,0.4-2.5,1.1-3.3s1.7-1.2,2.8-1.2c1.1,0,2,0.4,2.7,1.1s1.1,1.8,1.1,3.2c0,0.1,0,0.2,0,0.4h-6.2c0.1,0.9,0.3,1.6,0.8,2.1
		s1,0.7,1.7,0.7c0.5,0,1-0.1,1.3-0.4S692.6,150.5,692.9,149.9z M688.2,147.7h4.6c-0.1-0.7-0.2-1.2-0.5-1.6c-0.4-0.5-1-0.8-1.7-0.8
		c-0.6,0-1.2,0.2-1.6,0.6S688.3,146.9,688.2,147.7z"/>
	<path class="st4" d="M697.4,152.6h-1.3v-11.5h1.4v4.1c0.6-0.7,1.4-1.1,2.3-1.1c0.5,0,1,0.1,1.4,0.3s0.8,0.5,1.1,0.9
		s0.5,0.8,0.7,1.3s0.3,1.1,0.3,1.7c0,1.4-0.4,2.5-1.1,3.3s-1.5,1.2-2.5,1.2c-1,0-1.7-0.4-2.3-1.2V152.6z M697.4,148.4
		c0,1,0.1,1.7,0.4,2.2c0.4,0.7,1,1.1,1.8,1.1c0.6,0,1.1-0.3,1.6-0.8s0.7-1.3,0.7-2.4c0-1.1-0.2-1.9-0.6-2.4s-0.9-0.8-1.6-0.8
		c-0.6,0-1.1,0.3-1.6,0.8S697.4,147.4,697.4,148.4z"/>
	<path class="st4" d="M704.9,152.6v-11.5h1.4v11.5H704.9z"/>
	<path class="st4" d="M714.2,149.9l1.5,0.2c-0.2,0.8-0.7,1.5-1.3,2s-1.4,0.7-2.4,0.7c-1.2,0-2.2-0.4-2.9-1.1s-1.1-1.8-1.1-3.1
		c0-1.4,0.4-2.5,1.1-3.3s1.7-1.2,2.8-1.2c1.1,0,2,0.4,2.7,1.1s1.1,1.8,1.1,3.2c0,0.1,0,0.2,0,0.4h-6.2c0.1,0.9,0.3,1.6,0.8,2.1
		s1,0.7,1.7,0.7c0.5,0,1-0.1,1.3-0.4S714,150.5,714.2,149.9z M709.6,147.7h4.6c-0.1-0.7-0.2-1.2-0.5-1.6c-0.4-0.5-1-0.8-1.7-0.8
		c-0.6,0-1.2,0.2-1.6,0.6S709.6,146.9,709.6,147.7z"/>
	<path class="st4" d="M716.9,150.1l1.4-0.2c0.1,0.6,0.3,1,0.7,1.3s0.9,0.4,1.5,0.4c0.6,0,1.1-0.1,1.4-0.4s0.5-0.6,0.5-0.9
		c0-0.3-0.1-0.6-0.4-0.8c-0.2-0.1-0.7-0.3-1.4-0.5c-1-0.3-1.7-0.5-2.1-0.7s-0.7-0.5-0.9-0.8s-0.3-0.7-0.3-1.1c0-0.4,0.1-0.7,0.3-1
		s0.4-0.6,0.7-0.8c0.2-0.2,0.5-0.3,0.9-0.4s0.8-0.2,1.2-0.2c0.7,0,1.2,0.1,1.7,0.3s0.9,0.4,1.1,0.8s0.4,0.7,0.5,1.3l-1.4,0.2
		c-0.1-0.4-0.2-0.8-0.5-1s-0.7-0.4-1.3-0.4c-0.6,0-1.1,0.1-1.4,0.3s-0.4,0.5-0.4,0.8c0,0.2,0.1,0.3,0.2,0.5c0.1,0.2,0.3,0.3,0.5,0.4
		c0.1,0.1,0.6,0.2,1.2,0.4c1,0.3,1.7,0.5,2.1,0.7s0.7,0.4,0.9,0.7s0.3,0.7,0.3,1.2c0,0.5-0.1,0.9-0.4,1.3s-0.7,0.7-1.2,1
		s-1.1,0.3-1.8,0.3c-1.1,0-1.9-0.2-2.5-0.7S717,151,716.9,150.1z"/>
	<path class="st4" d="M729.6,153.3l1.4,0.2c0.1,0.4,0.2,0.7,0.5,0.9c0.3,0.3,0.8,0.4,1.4,0.4c0.7,0,1.2-0.1,1.5-0.4s0.6-0.6,0.7-1.1
		c0.1-0.3,0.1-0.9,0.1-1.8c-0.6,0.7-1.4,1.1-2.3,1.1c-1.1,0-2-0.4-2.6-1.2s-0.9-1.8-0.9-3c0-0.8,0.1-1.5,0.4-2.2s0.7-1.2,1.2-1.6
		s1.2-0.5,1.9-0.5c1,0,1.8,0.4,2.4,1.2v-1h1.3v7.2c0,1.3-0.1,2.2-0.4,2.7s-0.7,1-1.3,1.3s-1.3,0.5-2.1,0.5c-1,0-1.8-0.2-2.4-0.7
		S729.6,154.2,729.6,153.3z M730.8,148.3c0,1.1,0.2,1.9,0.6,2.4s1,0.8,1.6,0.8c0.6,0,1.2-0.2,1.6-0.7s0.7-1.3,0.7-2.3
		c0-1-0.2-1.8-0.7-2.3s-1-0.8-1.6-0.8c-0.6,0-1.2,0.3-1.6,0.8S730.8,147.3,730.8,148.3z"/>
	<path class="st4" d="M738.7,152.6v-11.5h1.4v11.5H738.7z"/>
	<path class="st4" d="M741.8,148.5c0-1.5,0.4-2.7,1.3-3.4c0.7-0.6,1.6-0.9,2.6-0.9c1.1,0,2.1,0.4,2.8,1.1s1.1,1.8,1.1,3.1
		c0,1.1-0.2,1.9-0.5,2.5s-0.8,1.1-1.4,1.4s-1.3,0.5-2,0.5c-1.2,0-2.1-0.4-2.8-1.1S741.8,149.9,741.8,148.5z M743.3,148.5
		c0,1.1,0.2,1.9,0.7,2.4s1,0.8,1.8,0.8c0.7,0,1.3-0.3,1.7-0.8s0.7-1.3,0.7-2.4c0-1-0.2-1.8-0.7-2.3s-1-0.8-1.7-0.8
		c-0.7,0-1.3,0.3-1.8,0.8S743.3,147.4,743.3,148.5z"/>
	<path class="st4" d="M752.5,152.6h-1.3v-11.5h1.4v4.1c0.6-0.7,1.4-1.1,2.3-1.1c0.5,0,1,0.1,1.4,0.3s0.8,0.5,1.1,0.9
		s0.5,0.8,0.7,1.3s0.3,1.1,0.3,1.7c0,1.4-0.4,2.5-1.1,3.3s-1.5,1.2-2.5,1.2c-1,0-1.7-0.4-2.3-1.2V152.6z M752.5,148.4
		c0,1,0.1,1.7,0.4,2.2c0.4,0.7,1,1.1,1.8,1.1c0.6,0,1.1-0.3,1.6-0.8s0.7-1.3,0.7-2.4c0-1.1-0.2-1.9-0.6-2.4s-0.9-0.8-1.6-0.8
		c-0.6,0-1.1,0.3-1.6,0.8S752.5,147.4,752.5,148.4z"/>
	<path class="st4" d="M765.5,151.6c-0.5,0.4-1,0.8-1.5,0.9s-1,0.3-1.6,0.3c-0.9,0-1.6-0.2-2.1-0.7s-0.7-1-0.7-1.7
		c0-0.4,0.1-0.8,0.3-1.1s0.4-0.6,0.7-0.8s0.6-0.4,1-0.5c0.3-0.1,0.7-0.1,1.3-0.2c1.1-0.1,2-0.3,2.5-0.5c0-0.2,0-0.3,0-0.4
		c0-0.6-0.1-1-0.4-1.2c-0.4-0.3-0.9-0.5-1.6-0.5c-0.7,0-1.1,0.1-1.5,0.3s-0.5,0.6-0.7,1.2l-1.4-0.2c0.1-0.6,0.3-1.1,0.6-1.4
		s0.7-0.6,1.2-0.8s1.2-0.3,1.9-0.3c0.7,0,1.3,0.1,1.7,0.3s0.8,0.4,1,0.6s0.4,0.6,0.4,1c0,0.2,0.1,0.7,0.1,1.3v1.9
		c0,1.3,0,2.1,0.1,2.5s0.2,0.7,0.4,1h-1.5C765.7,152.3,765.6,152,765.5,151.6z M765.4,148.4c-0.5,0.2-1.3,0.4-2.3,0.5
		c-0.6,0.1-1,0.2-1.2,0.3s-0.4,0.3-0.6,0.5s-0.2,0.4-0.2,0.7c0,0.4,0.1,0.7,0.4,0.9s0.7,0.4,1.2,0.4c0.5,0,1-0.1,1.4-0.4
		s0.7-0.6,0.9-1c0.2-0.3,0.2-0.8,0.2-1.4V148.4z"/>
	<path class="st4" d="M769,152.6v-11.5h1.4v11.5H769z"/>
	<path class="st4" d="M778.3,149.9l1.5,0.2c-0.2,0.8-0.7,1.5-1.3,2s-1.4,0.7-2.4,0.7c-1.2,0-2.2-0.4-2.9-1.1s-1.1-1.8-1.1-3.1
		c0-1.4,0.4-2.5,1.1-3.3s1.7-1.2,2.8-1.2c1.1,0,2,0.4,2.7,1.1s1.1,1.8,1.1,3.2c0,0.1,0,0.2,0,0.4h-6.2c0.1,0.9,0.3,1.6,0.8,2.1
		s1,0.7,1.7,0.7c0.5,0,1-0.1,1.3-0.4S778,150.5,778.3,149.9z M773.6,147.7h4.6c-0.1-0.7-0.2-1.2-0.5-1.6c-0.4-0.5-1-0.8-1.7-0.8
		c-0.6,0-1.2,0.2-1.6,0.6S773.7,146.9,773.6,147.7z"/>
	<path class="st4" d="M780.9,150.1l1.4-0.2c0.1,0.6,0.3,1,0.7,1.3s0.9,0.4,1.5,0.4c0.6,0,1.1-0.1,1.4-0.4s0.5-0.6,0.5-0.9
		c0-0.3-0.1-0.6-0.4-0.8c-0.2-0.1-0.7-0.3-1.4-0.5c-1-0.3-1.7-0.5-2.1-0.7s-0.7-0.5-0.9-0.8s-0.3-0.7-0.3-1.1c0-0.4,0.1-0.7,0.3-1
		s0.4-0.6,0.7-0.8c0.2-0.2,0.5-0.3,0.9-0.4s0.8-0.2,1.2-0.2c0.7,0,1.2,0.1,1.7,0.3s0.9,0.4,1.1,0.8s0.4,0.7,0.5,1.3l-1.4,0.2
		c-0.1-0.4-0.2-0.8-0.5-1s-0.7-0.4-1.3-0.4c-0.6,0-1.1,0.1-1.4,0.3s-0.4,0.5-0.4,0.8c0,0.2,0.1,0.3,0.2,0.5c0.1,0.2,0.3,0.3,0.5,0.4
		c0.1,0.1,0.6,0.2,1.2,0.4c1,0.3,1.7,0.5,2.1,0.7s0.7,0.4,0.9,0.7s0.3,0.7,0.3,1.2c0,0.5-0.1,0.9-0.4,1.3s-0.7,0.7-1.2,1
		s-1.1,0.3-1.8,0.3c-1.1,0-1.9-0.2-2.5-0.7S781.1,151,780.9,150.1z"/>
	<path class="st4" d="M799.3,152.6v-1c-0.5,0.8-1.3,1.2-2.3,1.2c-0.7,0-1.3-0.2-1.8-0.5s-1-0.9-1.3-1.5s-0.5-1.4-0.5-2.3
		c0-0.8,0.1-1.6,0.4-2.3s0.7-1.2,1.2-1.6s1.2-0.5,1.9-0.5c0.5,0,0.9,0.1,1.3,0.3s0.7,0.5,1,0.8v-4.1h1.4v11.5H799.3z M794.9,148.5
		c0,1.1,0.2,1.9,0.7,2.4s1,0.8,1.6,0.8c0.6,0,1.1-0.3,1.6-0.8s0.6-1.3,0.6-2.3c0-1.1-0.2-2-0.7-2.5s-1-0.8-1.6-0.8
		c-0.6,0-1.1,0.3-1.6,0.8S794.9,147.4,794.9,148.5z"/>
	<path class="st4" d="M808.5,149.9l1.5,0.2c-0.2,0.8-0.7,1.5-1.3,2s-1.4,0.7-2.4,0.7c-1.2,0-2.2-0.4-2.9-1.1s-1.1-1.8-1.1-3.1
		c0-1.4,0.4-2.5,1.1-3.3s1.7-1.2,2.8-1.2c1.1,0,2,0.4,2.7,1.1s1.1,1.8,1.1,3.2c0,0.1,0,0.2,0,0.4h-6.2c0.1,0.9,0.3,1.6,0.8,2.1
		s1,0.7,1.7,0.7c0.5,0,1-0.1,1.3-0.4S808.3,150.5,808.5,149.9z M803.9,147.7h4.6c-0.1-0.7-0.2-1.2-0.5-1.6c-0.4-0.5-1-0.8-1.7-0.8
		c-0.6,0-1.2,0.2-1.6,0.6S803.9,146.9,803.9,147.7z"/>
	<path class="st4" d="M816.4,152.6v-11.5h1.5v4.7h6v-4.7h1.5v11.5h-1.5v-5.4h-6v5.4H816.4z"/>
	<path class="st4" d="M827.2,148.5c0-1.5,0.4-2.7,1.3-3.4c0.7-0.6,1.6-0.9,2.6-0.9c1.1,0,2.1,0.4,2.8,1.1s1.1,1.8,1.1,3.1
		c0,1.1-0.2,1.9-0.5,2.5s-0.8,1.1-1.4,1.4s-1.3,0.5-2,0.5c-1.2,0-2.1-0.4-2.8-1.1S827.2,149.9,827.2,148.5z M828.6,148.5
		c0,1.1,0.2,1.9,0.7,2.4s1,0.8,1.8,0.8c0.7,0,1.3-0.3,1.7-0.8s0.7-1.3,0.7-2.4c0-1-0.2-1.8-0.7-2.3s-1-0.8-1.7-0.8
		c-0.7,0-1.3,0.3-1.8,0.8S828.6,147.4,828.6,148.5z"/>
	<path class="st4" d="M842.1,152.6v-1.2c-0.6,0.9-1.5,1.4-2.6,1.4c-0.5,0-0.9-0.1-1.4-0.3s-0.7-0.4-0.9-0.7s-0.4-0.6-0.4-1
		c-0.1-0.3-0.1-0.7-0.1-1.3v-5.1h1.4v4.6c0,0.7,0,1.2,0.1,1.5c0.1,0.4,0.3,0.7,0.6,0.9s0.6,0.3,1.1,0.3s0.8-0.1,1.2-0.3
		s0.6-0.5,0.8-0.9s0.2-0.9,0.2-1.6v-4.4h1.4v8.3H842.1z"/>
	<path class="st4" d="M845,150.1l1.4-0.2c0.1,0.6,0.3,1,0.7,1.3s0.9,0.4,1.5,0.4c0.6,0,1.1-0.1,1.4-0.4s0.5-0.6,0.5-0.9
		c0-0.3-0.1-0.6-0.4-0.8c-0.2-0.1-0.7-0.3-1.4-0.5c-1-0.3-1.7-0.5-2.1-0.7s-0.7-0.5-0.9-0.8s-0.3-0.7-0.3-1.1c0-0.4,0.1-0.7,0.3-1
		s0.4-0.6,0.7-0.8c0.2-0.2,0.5-0.3,0.9-0.4s0.8-0.2,1.2-0.2c0.7,0,1.2,0.1,1.7,0.3s0.9,0.4,1.1,0.8s0.4,0.7,0.5,1.3l-1.4,0.2
		c-0.1-0.4-0.2-0.8-0.5-1s-0.7-0.4-1.3-0.4c-0.6,0-1.1,0.1-1.4,0.3s-0.4,0.5-0.4,0.8c0,0.2,0.1,0.3,0.2,0.5c0.1,0.2,0.3,0.3,0.5,0.4
		c0.1,0.1,0.6,0.2,1.2,0.4c1,0.3,1.7,0.5,2.1,0.7s0.7,0.4,0.9,0.7s0.3,0.7,0.3,1.2c0,0.5-0.1,0.9-0.4,1.3s-0.7,0.7-1.2,1
		s-1.1,0.3-1.8,0.3c-1.1,0-1.9-0.2-2.5-0.7S845.1,151,845,150.1z"/>
	<path class="st4" d="M859.2,149.9l1.5,0.2c-0.2,0.8-0.7,1.5-1.3,2s-1.4,0.7-2.4,0.7c-1.2,0-2.2-0.4-2.9-1.1s-1.1-1.8-1.1-3.1
		c0-1.4,0.4-2.5,1.1-3.3s1.7-1.2,2.8-1.2c1.1,0,2,0.4,2.7,1.1s1.1,1.8,1.1,3.2c0,0.1,0,0.2,0,0.4h-6.2c0.1,0.9,0.3,1.6,0.8,2.1
		s1,0.7,1.7,0.7c0.5,0,1-0.1,1.3-0.4S859,150.5,859.2,149.9z M854.6,147.7h4.6c-0.1-0.7-0.2-1.2-0.5-1.6c-0.4-0.5-1-0.8-1.7-0.8
		c-0.6,0-1.2,0.2-1.6,0.6S854.6,146.9,854.6,147.7z"/>
	<path class="st4" d="M865.5,152.6v-10.1h-3.8v-1.4h9.1v1.4H867v10.1H865.5z"/>
	<path class="st4" d="M869.9,148.5c0-1.5,0.4-2.7,1.3-3.4c0.7-0.6,1.6-0.9,2.6-0.9c1.1,0,2.1,0.4,2.8,1.1s1.1,1.8,1.1,3.1
		c0,1.1-0.2,1.9-0.5,2.5s-0.8,1.1-1.4,1.4s-1.3,0.5-2,0.5c-1.2,0-2.1-0.4-2.8-1.1S869.9,149.9,869.9,148.5z M871.3,148.5
		c0,1.1,0.2,1.9,0.7,2.4s1,0.8,1.8,0.8c0.7,0,1.3-0.3,1.7-0.8s0.7-1.3,0.7-2.4c0-1-0.2-1.8-0.7-2.3s-1-0.8-1.7-0.8
		c-0.7,0-1.3,0.3-1.8,0.8S871.3,147.4,871.3,148.5z"/>
	<path class="st4" d="M879.3,152.6v-11.5h1.4v6.5l3.3-3.4h1.8l-3.2,3.1l3.5,5.2h-1.7l-2.7-4.2l-1,1v3.3H879.3z"/>
	<path class="st4" d="M893,149.9l1.5,0.2c-0.2,0.8-0.7,1.5-1.3,2s-1.4,0.7-2.4,0.7c-1.2,0-2.2-0.4-2.9-1.1s-1.1-1.8-1.1-3.1
		c0-1.4,0.4-2.5,1.1-3.3s1.7-1.2,2.8-1.2c1.1,0,2,0.4,2.7,1.1s1.1,1.8,1.1,3.2c0,0.1,0,0.2,0,0.4h-6.2c0.1,0.9,0.3,1.6,0.8,2.1
		s1,0.7,1.7,0.7c0.5,0,1-0.1,1.3-0.4S892.8,150.5,893,149.9z M888.4,147.7h4.6c-0.1-0.7-0.2-1.2-0.5-1.6c-0.4-0.5-1-0.8-1.7-0.8
		c-0.6,0-1.2,0.2-1.6,0.6S888.4,146.9,888.4,147.7z"/>
	<path class="st4" d="M896.2,152.6v-8.3h1.3v1.2c0.6-0.9,1.5-1.4,2.6-1.4c0.5,0,1,0.1,1.4,0.3s0.7,0.4,0.9,0.7s0.4,0.6,0.4,1
		c0.1,0.3,0.1,0.7,0.1,1.4v5.1h-1.4v-5c0-0.6-0.1-1-0.2-1.3s-0.3-0.5-0.6-0.7s-0.6-0.3-1-0.3c-0.6,0-1.1,0.2-1.6,0.6
		s-0.7,1.1-0.7,2.2v4.5H896.2z"/>
	<path class="st4" d="M586.3,175.2c-0.8-1-1.4-2.1-2-3.4s-0.8-2.7-0.8-4.1c0-1.2,0.2-2.4,0.6-3.6c0.5-1.3,1.2-2.6,2.2-3.9h1
		c-0.6,1.1-1,1.9-1.3,2.3c-0.3,0.7-0.6,1.5-0.8,2.3c-0.2,1-0.3,2-0.3,2.9c0,2.5,0.8,5,2.3,7.5H586.3z"/>
	<path class="st4" d="M589.2,171.8v-11.5h7.7v1.4h-6.2v3.5h5.4v1.4h-5.4v5.2H589.2z"/>
	<path class="st4" d="M604.1,171.8v-1.2c-0.6,0.9-1.5,1.4-2.6,1.4c-0.5,0-0.9-0.1-1.4-0.3s-0.7-0.4-0.9-0.7s-0.4-0.6-0.4-1
		c-0.1-0.3-0.1-0.7-0.1-1.3v-5.1h1.4v4.6c0,0.7,0,1.2,0.1,1.5c0.1,0.4,0.3,0.7,0.6,0.9s0.6,0.3,1.1,0.3s0.8-0.1,1.2-0.3
		s0.6-0.5,0.8-0.9s0.2-0.9,0.2-1.6v-4.4h1.4v8.3H604.1z"/>
	<path class="st4" d="M607.6,171.8v-8.3h1.3v1.2c0.6-0.9,1.5-1.4,2.6-1.4c0.5,0,1,0.1,1.4,0.3s0.7,0.4,0.9,0.7s0.4,0.6,0.4,1
		c0.1,0.3,0.1,0.7,0.1,1.4v5.1h-1.4v-5c0-0.6-0.1-1-0.2-1.3s-0.3-0.5-0.6-0.7s-0.6-0.3-1-0.3c-0.6,0-1.1,0.2-1.6,0.6
		s-0.7,1.1-0.7,2.2v4.5H607.6z"/>
	<path class="st4" d="M621.9,171.8v-1c-0.5,0.8-1.3,1.2-2.3,1.2c-0.7,0-1.3-0.2-1.8-0.5s-1-0.9-1.3-1.5s-0.5-1.4-0.5-2.3
		c0-0.8,0.1-1.6,0.4-2.3s0.7-1.2,1.2-1.6s1.2-0.5,1.9-0.5c0.5,0,0.9,0.1,1.3,0.3s0.7,0.5,1,0.8v-4.1h1.4v11.5H621.9z M617.4,167.7
		c0,1.1,0.2,1.9,0.7,2.4s1,0.8,1.6,0.8c0.6,0,1.1-0.3,1.6-0.8s0.6-1.3,0.6-2.3c0-1.1-0.2-2-0.7-2.5s-1-0.8-1.6-0.8
		c-0.6,0-1.1,0.3-1.6,0.8S617.4,166.6,617.4,167.7z"/>
	<path class="st4" d="M630.8,170.8c-0.5,0.4-1,0.8-1.5,0.9s-1,0.3-1.6,0.3c-0.9,0-1.6-0.2-2.1-0.7s-0.7-1-0.7-1.7
		c0-0.4,0.1-0.8,0.3-1.1s0.4-0.6,0.7-0.8s0.6-0.4,1-0.5c0.3-0.1,0.7-0.1,1.3-0.2c1.1-0.1,2-0.3,2.5-0.5c0-0.2,0-0.3,0-0.4
		c0-0.6-0.1-1-0.4-1.2c-0.4-0.3-0.9-0.5-1.6-0.5c-0.7,0-1.1,0.1-1.5,0.3s-0.5,0.6-0.7,1.2l-1.4-0.2c0.1-0.6,0.3-1.1,0.6-1.4
		s0.7-0.6,1.2-0.8s1.2-0.3,1.9-0.3c0.7,0,1.3,0.1,1.7,0.3s0.8,0.4,1,0.6s0.4,0.6,0.4,1c0,0.2,0.1,0.7,0.1,1.3v1.9
		c0,1.3,0,2.1,0.1,2.5s0.2,0.7,0.4,1h-1.5C630.9,171.5,630.8,171.2,630.8,170.8z M630.7,167.6c-0.5,0.2-1.3,0.4-2.3,0.5
		c-0.6,0.1-1,0.2-1.2,0.3s-0.4,0.3-0.6,0.5s-0.2,0.4-0.2,0.7c0,0.4,0.1,0.7,0.4,0.9s0.7,0.4,1.2,0.4c0.5,0,1-0.1,1.4-0.4
		s0.7-0.6,0.9-1c0.2-0.3,0.2-0.8,0.2-1.4V167.6z"/>
	<path class="st4" d="M639.7,168.8l1.4,0.2c-0.2,1-0.5,1.7-1.2,2.2s-1.4,0.8-2.3,0.8c-1.1,0-2-0.4-2.7-1.1s-1-1.8-1-3.2
		c0-0.9,0.1-1.7,0.4-2.4s0.7-1.2,1.4-1.5s1.3-0.5,2-0.5c0.9,0,1.6,0.2,2.2,0.7s0.9,1.1,1.1,1.9l-1.4,0.2c-0.1-0.6-0.4-1-0.7-1.3
		s-0.7-0.4-1.2-0.4c-0.7,0-1.3,0.3-1.7,0.8s-0.7,1.3-0.7,2.4c0,1.1,0.2,1.9,0.6,2.4s1,0.8,1.7,0.8c0.6,0,1-0.2,1.4-0.5
		S639.6,169.5,639.7,168.8z"/>
	<path class="st4" d="M642.3,162v-1.6h1.4v1.6H642.3z M642.3,171.8v-8.3h1.4v8.3H642.3z"/>
	<path class="st4" d="M645.3,167.7c0-1.5,0.4-2.7,1.3-3.4c0.7-0.6,1.6-0.9,2.6-0.9c1.1,0,2.1,0.4,2.8,1.1s1.1,1.8,1.1,3.1
		c0,1.1-0.2,1.9-0.5,2.5s-0.8,1.1-1.4,1.4s-1.3,0.5-2,0.5c-1.2,0-2.1-0.4-2.8-1.1S645.3,169.1,645.3,167.7z M646.8,167.7
		c0,1.1,0.2,1.9,0.7,2.4s1,0.8,1.8,0.8c0.7,0,1.3-0.3,1.7-0.8s0.7-1.3,0.7-2.4c0-1-0.2-1.8-0.7-2.3s-1-0.8-1.7-0.8
		c-0.7,0-1.3,0.3-1.8,0.8S646.8,166.6,646.8,167.7z M648.4,162.5l1-2.2h1.8l-1.7,2.2H648.4z"/>
	<path class="st4" d="M654.7,171.8v-8.3h1.3v1.2c0.6-0.9,1.5-1.4,2.6-1.4c0.5,0,1,0.1,1.4,0.3s0.7,0.4,0.9,0.7s0.4,0.6,0.4,1
		c0.1,0.3,0.1,0.7,0.1,1.4v5.1h-1.4v-5c0-0.6-0.1-1-0.2-1.3s-0.3-0.5-0.6-0.7s-0.6-0.3-1-0.3c-0.6,0-1.1,0.2-1.6,0.6
		s-0.7,1.1-0.7,2.2v4.5H654.7z"/>
	<path class="st4" d="M666.1,171.8l4.4-11.5h1.6l4.7,11.5h-1.7l-1.3-3.5H669l-1.3,3.5H666.1z M669.4,167.1h3.9l-1.2-3.2
		c-0.4-1-0.6-1.8-0.8-2.4c-0.1,0.7-0.4,1.5-0.6,2.2L669.4,167.1z"/>
	<path class="st4" d="M678.3,171.8v-11.5h1.5v11.5H678.3z"/>
	<path class="st4" d="M682.6,171.8v-11.5h7.7v1.4h-6.2v3.5h5.4v1.4h-5.4v5.2H682.6z"/>
	<path class="st4" d="M692.2,171.8v-11.5h2.3l2.7,8.1c0.3,0.8,0.4,1.3,0.5,1.7c0.1-0.4,0.3-1,0.6-1.8l2.7-8h2v11.5h-1.5v-9.6
		l-3.3,9.6H697l-3.3-9.8v9.8H692.2z"/>
	<path class="st4" d="M715.2,171.8v-1c-0.5,0.8-1.3,1.2-2.3,1.2c-0.7,0-1.3-0.2-1.8-0.5s-1-0.9-1.3-1.5s-0.5-1.4-0.5-2.3
		c0-0.8,0.1-1.6,0.4-2.3s0.7-1.2,1.2-1.6s1.2-0.5,1.9-0.5c0.5,0,0.9,0.1,1.3,0.3s0.7,0.5,1,0.8v-4.1h1.4v11.5H715.2z M710.8,167.7
		c0,1.1,0.2,1.9,0.7,2.4s1,0.8,1.6,0.8c0.6,0,1.1-0.3,1.6-0.8s0.6-1.3,0.6-2.3c0-1.1-0.2-2-0.7-2.5s-1-0.8-1.6-0.8
		c-0.6,0-1.1,0.3-1.6,0.8S710.8,166.6,710.8,167.7z"/>
	<path class="st4" d="M724.4,169.1l1.5,0.2c-0.2,0.8-0.7,1.5-1.3,2s-1.4,0.7-2.4,0.7c-1.2,0-2.2-0.4-2.9-1.1s-1.1-1.8-1.1-3.1
		c0-1.4,0.4-2.5,1.1-3.3s1.7-1.2,2.8-1.2c1.1,0,2,0.4,2.7,1.1s1.1,1.8,1.1,3.2c0,0.1,0,0.2,0,0.4h-6.2c0.1,0.9,0.3,1.6,0.8,2.1
		s1,0.7,1.7,0.7c0.5,0,1-0.1,1.3-0.4S724.2,169.7,724.4,169.1z M719.8,166.9h4.6c-0.1-0.7-0.2-1.2-0.5-1.6c-0.4-0.5-1-0.8-1.7-0.8
		c-0.6,0-1.2,0.2-1.6,0.6S719.9,166.1,719.8,166.9z"/>
	<path class="st4" d="M732.2,171.8v-11.5h1.5v10.1h5.6v1.4H732.2z"/>
	<path class="st4" d="M746.4,171.8v-1.2c-0.6,0.9-1.5,1.4-2.6,1.4c-0.5,0-0.9-0.1-1.4-0.3s-0.7-0.4-0.9-0.7s-0.4-0.6-0.4-1
		c-0.1-0.3-0.1-0.7-0.1-1.3v-5.1h1.4v4.6c0,0.7,0,1.2,0.1,1.5c0.1,0.4,0.3,0.7,0.6,0.9s0.6,0.3,1.1,0.3s0.8-0.1,1.2-0.3
		s0.6-0.5,0.8-0.9s0.2-0.9,0.2-1.6v-4.4h1.4v8.3H746.4z"/>
	<path class="st4" d="M749,171.8l3-4.3l-2.8-4h1.8l1.3,1.9c0.2,0.4,0.4,0.7,0.6,0.9c0.2-0.3,0.4-0.6,0.6-0.9l1.4-2h1.7l-2.9,3.9
		l3.1,4.4H755l-1.7-2.6l-0.5-0.7l-2.2,3.3H749z"/>
	<path class="st4" d="M763.6,169.1l1.5,0.2c-0.2,0.8-0.7,1.5-1.3,2s-1.4,0.7-2.4,0.7c-1.2,0-2.2-0.4-2.9-1.1s-1.1-1.8-1.1-3.1
		c0-1.4,0.4-2.5,1.1-3.3s1.7-1.2,2.8-1.2c1.1,0,2,0.4,2.7,1.1s1.1,1.8,1.1,3.2c0,0.1,0,0.2,0,0.4h-6.2c0.1,0.9,0.3,1.6,0.8,2.1
		s1,0.7,1.7,0.7c0.5,0,1-0.1,1.3-0.4S763.4,169.7,763.6,169.1z M759,166.9h4.6c-0.1-0.7-0.2-1.2-0.5-1.6c-0.4-0.5-1-0.8-1.7-0.8
		c-0.6,0-1.2,0.2-1.6,0.6S759,166.1,759,166.9z"/>
	<path class="st4" d="M766.8,171.8v-8.3h1.3v1.2c0.3-0.4,0.6-0.7,1-1s0.9-0.4,1.5-0.4c0.6,0,1.1,0.1,1.5,0.4s0.7,0.6,0.8,1.1
		c0.7-1,1.5-1.5,2.6-1.5c0.8,0,1.5,0.2,1.9,0.7s0.7,1.2,0.7,2.1v5.7h-1.4v-5.2c0-0.6,0-1-0.1-1.2s-0.3-0.4-0.5-0.6s-0.5-0.2-0.8-0.2
		c-0.6,0-1.1,0.2-1.5,0.6s-0.6,1-0.6,1.9v4.8h-1.4v-5.4c0-0.6-0.1-1.1-0.3-1.4s-0.6-0.5-1.1-0.5c-0.4,0-0.8,0.1-1.1,0.3
		s-0.6,0.5-0.7,0.9s-0.2,1-0.2,1.7v4.3H766.8z"/>
	<path class="st4" d="M781.4,171.8h-1.3v-11.5h1.4v4.1c0.6-0.7,1.4-1.1,2.3-1.1c0.5,0,1,0.1,1.4,0.3s0.8,0.5,1.1,0.9
		s0.5,0.8,0.7,1.3s0.3,1.1,0.3,1.7c0,1.4-0.4,2.5-1.1,3.3s-1.5,1.2-2.5,1.2c-1,0-1.7-0.4-2.3-1.2V171.8z M781.4,167.6
		c0,1,0.1,1.7,0.4,2.2c0.4,0.7,1,1.1,1.8,1.1c0.6,0,1.1-0.3,1.6-0.8s0.7-1.3,0.7-2.4c0-1.1-0.2-1.9-0.6-2.4s-0.9-0.8-1.6-0.8
		c-0.6,0-1.1,0.3-1.6,0.8S781.4,166.6,781.4,167.6z"/>
	<path class="st4" d="M794.5,171.8v-1.2c-0.6,0.9-1.5,1.4-2.6,1.4c-0.5,0-0.9-0.1-1.4-0.3s-0.7-0.4-0.9-0.7s-0.4-0.6-0.4-1
		c-0.1-0.3-0.1-0.7-0.1-1.3v-5.1h1.4v4.6c0,0.7,0,1.2,0.1,1.5c0.1,0.4,0.3,0.7,0.6,0.9s0.6,0.3,1.1,0.3s0.8-0.1,1.2-0.3
		s0.6-0.5,0.8-0.9s0.2-0.9,0.2-1.6v-4.4h1.4v8.3H794.5z"/>
	<path class="st4" d="M797.9,171.8v-8.3h1.3v1.3c0.3-0.6,0.6-1,0.9-1.2s0.6-0.3,0.9-0.3c0.5,0,1,0.2,1.4,0.5l-0.5,1.3
		c-0.3-0.2-0.7-0.3-1-0.3c-0.3,0-0.6,0.1-0.8,0.3s-0.4,0.4-0.5,0.8c-0.2,0.5-0.2,1-0.2,1.6v4.3H797.9z"/>
	<path class="st4" d="M803,172.5l1.4,0.2c0.1,0.4,0.2,0.7,0.5,0.9c0.3,0.3,0.8,0.4,1.4,0.4c0.7,0,1.2-0.1,1.5-0.4s0.6-0.6,0.7-1.1
		c0.1-0.3,0.1-0.9,0.1-1.8c-0.6,0.7-1.4,1.1-2.3,1.1c-1.1,0-2-0.4-2.6-1.2s-0.9-1.8-0.9-3c0-0.8,0.1-1.5,0.4-2.2s0.7-1.2,1.2-1.6
		s1.2-0.5,1.9-0.5c1,0,1.8,0.4,2.4,1.2v-1h1.3v7.2c0,1.3-0.1,2.2-0.4,2.7s-0.7,1-1.3,1.3s-1.3,0.5-2.1,0.5c-1,0-1.8-0.2-2.4-0.7
		S803,173.4,803,172.5z M804.2,167.5c0,1.1,0.2,1.9,0.6,2.4s1,0.8,1.6,0.8c0.6,0,1.2-0.2,1.6-0.7s0.7-1.3,0.7-2.3
		c0-1-0.2-1.8-0.7-2.3s-1-0.8-1.6-0.8c-0.6,0-1.2,0.3-1.6,0.8S804.2,166.5,804.2,167.5z"/>
	<path class="st4" d="M811.6,167.7c0-1.5,0.4-2.7,1.3-3.4c0.7-0.6,1.6-0.9,2.6-0.9c1.1,0,2.1,0.4,2.8,1.1s1.1,1.8,1.1,3.1
		c0,1.1-0.2,1.9-0.5,2.5s-0.8,1.1-1.4,1.4s-1.3,0.5-2,0.5c-1.2,0-2.1-0.4-2.8-1.1S811.6,169.1,811.6,167.7z M813.1,167.7
		c0,1.1,0.2,1.9,0.7,2.4s1,0.8,1.8,0.8c0.7,0,1.3-0.3,1.7-0.8s0.7-1.3,0.7-2.4c0-1-0.2-1.8-0.7-2.3s-1-0.8-1.7-0.8
		c-0.7,0-1.3,0.3-1.8,0.8S813.1,166.6,813.1,167.7z"/>
	<path class="st4" d="M822,175.2h-1c1.6-2.5,2.3-5,2.3-7.5c0-1-0.1-2-0.3-2.9c-0.2-0.8-0.4-1.5-0.7-2.3c-0.2-0.5-0.6-1.3-1.3-2.3h1
		c1,1.3,1.7,2.6,2.2,3.9c0.4,1.1,0.6,2.3,0.6,3.6c0,1.4-0.3,2.8-0.8,4.1S822.7,174.2,822,175.2z"/>
</g>
<g class="st3">
	<path class="st4" d="M917.2,134.9V122h4.8c1,0,1.8,0.1,2.4,0.4c0.6,0.3,1.1,0.7,1.4,1.2s0.5,1.1,0.5,1.7c0,0.6-0.1,1.1-0.4,1.6
		s-0.8,0.9-1.4,1.2c0.8,0.2,1.4,0.6,1.8,1.2s0.6,1.2,0.6,2c0,0.6-0.1,1.2-0.4,1.7c-0.3,0.5-0.6,0.9-0.9,1.2s-0.8,0.5-1.4,0.6
		s-1.3,0.2-2.1,0.2H917.2z M918.9,127.5h2.8c0.8,0,1.3,0,1.6-0.1c0.4-0.1,0.8-0.3,1-0.6s0.3-0.7,0.3-1.1c0-0.4-0.1-0.8-0.3-1.1
		c-0.2-0.3-0.5-0.5-0.9-0.7s-1-0.2-2-0.2h-2.6V127.5z M918.9,133.4h3.2c0.6,0,0.9,0,1.2-0.1c0.4-0.1,0.7-0.2,1-0.4s0.5-0.4,0.7-0.7
		c0.2-0.3,0.3-0.7,0.3-1.1c0-0.5-0.1-0.9-0.4-1.3c-0.2-0.4-0.6-0.6-1-0.7s-1.1-0.2-1.9-0.2h-3V133.4z"/>
	<path class="st4" d="M929.1,123.9V122h1.6v1.8H929.1z M929.1,134.9v-9.3h1.6v9.3H929.1z"/>
	<path class="st4" d="M939.4,131.9l1.6,0.2c-0.3,1-0.7,1.7-1.4,2.2s-1.6,0.8-2.7,0.8c-1.4,0-2.4-0.4-3.2-1.3c-0.8-0.8-1.2-2-1.2-3.5
		c0-1.6,0.4-2.8,1.2-3.7s1.9-1.3,3.1-1.3c1.2,0,2.3,0.4,3.1,1.3s1.2,2,1.2,3.6c0,0.1,0,0.2,0,0.4h-7c0.1,1,0.3,1.8,0.9,2.4
		s1.2,0.8,2,0.8c0.6,0,1.1-0.2,1.5-0.5S939.2,132.6,939.4,131.9z M934.2,129.4h5.2c-0.1-0.8-0.3-1.4-0.6-1.8c-0.5-0.6-1.2-0.9-2-0.9
		c-0.7,0-1.3,0.2-1.8,0.7S934.3,128.6,934.2,129.4z"/>
	<path class="st4" d="M943.1,134.9v-9.3h1.4v1.3c0.7-1,1.7-1.5,3-1.5c0.6,0,1.1,0.1,1.6,0.3c0.5,0.2,0.8,0.5,1.1,0.8
		s0.4,0.7,0.5,1.2c0.1,0.3,0.1,0.8,0.1,1.5v5.7h-1.6v-5.7c0-0.6-0.1-1.1-0.2-1.4s-0.3-0.6-0.7-0.8c-0.3-0.2-0.7-0.3-1.1-0.3
		c-0.7,0-1.3,0.2-1.7,0.6s-0.7,1.2-0.7,2.4v5.1H943.1z"/>
	<path class="st4" d="M959.5,131.9l1.6,0.2c-0.3,1-0.7,1.7-1.4,2.2s-1.6,0.8-2.7,0.8c-1.4,0-2.4-0.4-3.2-1.3c-0.8-0.8-1.2-2-1.2-3.5
		c0-1.6,0.4-2.8,1.2-3.7s1.9-1.3,3.1-1.3c1.2,0,2.3,0.4,3.1,1.3s1.2,2,1.2,3.6c0,0.1,0,0.2,0,0.4h-7c0.1,1,0.3,1.8,0.9,2.4
		s1.2,0.8,2,0.8c0.6,0,1.1-0.2,1.5-0.5S959.2,132.6,959.5,131.9z M954.3,129.4h5.2c-0.1-0.8-0.3-1.4-0.6-1.8c-0.5-0.6-1.2-0.9-2-0.9
		c-0.7,0-1.3,0.2-1.8,0.7S954.3,128.6,954.3,129.4z"/>
	<path class="st4" d="M962.4,132.1l1.6-0.2c0.1,0.6,0.3,1.1,0.7,1.4s1,0.5,1.7,0.5c0.7,0,1.3-0.1,1.6-0.4s0.5-0.6,0.5-1
		c0-0.4-0.2-0.6-0.5-0.8c-0.2-0.1-0.8-0.3-1.6-0.5c-1.2-0.3-2-0.5-2.4-0.8s-0.8-0.5-1-0.9c-0.2-0.4-0.3-0.8-0.3-1.3
		c0-0.4,0.1-0.8,0.3-1.2c0.2-0.4,0.5-0.6,0.8-0.9c0.2-0.2,0.6-0.3,1-0.5s0.9-0.2,1.4-0.2c0.7,0,1.4,0.1,1.9,0.3s1,0.5,1.2,0.9
		c0.3,0.4,0.4,0.8,0.5,1.4l-1.5,0.2c-0.1-0.5-0.3-0.9-0.6-1.1s-0.8-0.4-1.4-0.4c-0.7,0-1.2,0.1-1.6,0.4s-0.5,0.5-0.5,0.8
		c0,0.2,0.1,0.4,0.2,0.6c0.1,0.2,0.3,0.3,0.6,0.4c0.2,0.1,0.6,0.2,1.4,0.4c1.1,0.3,1.9,0.5,2.3,0.7s0.8,0.5,1,0.8s0.4,0.8,0.4,1.4
		c0,0.5-0.2,1-0.5,1.5c-0.3,0.5-0.8,0.8-1.3,1.1c-0.6,0.3-1.2,0.4-2,0.4c-1.2,0-2.1-0.3-2.8-0.8S962.6,133.1,962.4,132.1z"/>
	<path class="st4" d="M977.1,123.9V122h1.6v1.8H977.1z M977.1,134.9v-9.3h1.6v9.3H977.1z"/>
	<path class="st4" d="M981.1,134.9v-9.3h1.4v1.3c0.7-1,1.7-1.5,3-1.5c0.6,0,1.1,0.1,1.6,0.3c0.5,0.2,0.8,0.5,1.1,0.8
		s0.4,0.7,0.5,1.2c0.1,0.3,0.1,0.8,0.1,1.5v5.7h-1.6v-5.7c0-0.6-0.1-1.1-0.2-1.4s-0.3-0.6-0.7-0.8c-0.3-0.2-0.7-0.3-1.1-0.3
		c-0.7,0-1.3,0.2-1.7,0.6s-0.7,1.2-0.7,2.4v5.1H981.1z"/>
	<path class="st4" d="M991.1,134.9v-9.3h1.4v1.3c0.3-0.5,0.7-0.8,1.2-1.1s1-0.4,1.7-0.4c0.7,0,1.3,0.1,1.7,0.4s0.8,0.7,0.9,1.2
		c0.7-1.1,1.7-1.6,2.9-1.6c0.9,0,1.6,0.3,2.1,0.8s0.7,1.3,0.7,2.4v6.4h-1.6v-5.9c0-0.6-0.1-1.1-0.2-1.4s-0.3-0.5-0.6-0.7
		s-0.6-0.3-0.9-0.3c-0.7,0-1.2,0.2-1.6,0.7c-0.4,0.4-0.7,1.1-0.7,2.1v5.4h-1.6v-6.1c0-0.7-0.1-1.2-0.4-1.6s-0.7-0.5-1.3-0.5
		c-0.4,0-0.9,0.1-1.2,0.4s-0.7,0.6-0.8,1s-0.3,1.1-0.3,2v4.8H991.1z"/>
	<path class="st4" d="M1012.2,134.9v-1.4c-0.7,1.1-1.7,1.6-3,1.6c-0.6,0-1.1-0.1-1.5-0.3s-0.8-0.5-1.1-0.8s-0.4-0.7-0.5-1.2
		c-0.1-0.3-0.1-0.8-0.1-1.5v-5.8h1.6v5.2c0,0.8,0,1.4,0.1,1.7c0.1,0.4,0.3,0.7,0.6,1c0.3,0.2,0.7,0.4,1.2,0.4s0.9-0.1,1.3-0.4
		s0.7-0.6,0.9-1c0.2-0.4,0.3-1,0.3-1.8v-5h1.6v9.3H1012.2z"/>
	<path class="st4" d="M1022.5,131.9l1.6,0.2c-0.3,1-0.7,1.7-1.4,2.2s-1.6,0.8-2.7,0.8c-1.4,0-2.4-0.4-3.2-1.3
		c-0.8-0.8-1.2-2-1.2-3.5c0-1.6,0.4-2.8,1.2-3.7s1.9-1.3,3.1-1.3c1.2,0,2.3,0.4,3.1,1.3s1.2,2,1.2,3.6c0,0.1,0,0.2,0,0.4h-7
		c0.1,1,0.3,1.8,0.9,2.4s1.2,0.8,2,0.8c0.6,0,1.1-0.2,1.5-0.5S1022.2,132.6,1022.5,131.9z M1017.3,129.4h5.2
		c-0.1-0.8-0.3-1.4-0.6-1.8c-0.5-0.6-1.2-0.9-2-0.9c-0.7,0-1.3,0.2-1.8,0.7S1017.3,128.6,1017.3,129.4z"/>
	<path class="st4" d="M1027.6,134.9h-1.5V122h1.6v4.6c0.7-0.8,1.5-1.3,2.6-1.3c0.6,0,1.1,0.1,1.6,0.3s0.9,0.6,1.3,1
		c0.3,0.4,0.6,0.9,0.8,1.5s0.3,1.2,0.3,1.9c0,1.6-0.4,2.8-1.2,3.7s-1.7,1.3-2.8,1.3c-1.1,0-2-0.5-2.6-1.4V134.9z M1027.5,130.2
		c0,1.1,0.2,1.9,0.5,2.4c0.5,0.8,1.2,1.2,2,1.2c0.7,0,1.3-0.3,1.8-0.9s0.8-1.5,0.8-2.7c0-1.2-0.2-2.1-0.7-2.7s-1.1-0.9-1.8-0.9
		c-0.7,0-1.3,0.3-1.8,0.9C1027.8,128.2,1027.5,129.1,1027.5,130.2z"/>
	<path class="st4" d="M1036.1,134.9V122h1.6v12.9H1036.1z"/>
	<path class="st4" d="M1046.5,131.9l1.6,0.2c-0.3,1-0.7,1.7-1.4,2.2s-1.6,0.8-2.7,0.8c-1.4,0-2.4-0.4-3.2-1.3
		c-0.8-0.8-1.2-2-1.2-3.5c0-1.6,0.4-2.8,1.2-3.7s1.9-1.3,3.1-1.3c1.2,0,2.3,0.4,3.1,1.3s1.2,2,1.2,3.6c0,0.1,0,0.2,0,0.4h-7
		c0.1,1,0.3,1.8,0.9,2.4s1.2,0.8,2,0.8c0.6,0,1.1-0.2,1.5-0.5S1046.3,132.6,1046.5,131.9z M1041.3,129.4h5.2
		c-0.1-0.8-0.3-1.4-0.6-1.8c-0.5-0.6-1.2-0.9-2-0.9c-0.7,0-1.3,0.2-1.8,0.7S1041.4,128.6,1041.3,129.4z"/>
	<path class="st4" d="M1049.5,132.1l1.6-0.2c0.1,0.6,0.3,1.1,0.7,1.4s1,0.5,1.7,0.5c0.7,0,1.3-0.1,1.6-0.4s0.5-0.6,0.5-1
		c0-0.4-0.2-0.6-0.5-0.8c-0.2-0.1-0.8-0.3-1.6-0.5c-1.2-0.3-2-0.5-2.4-0.8s-0.8-0.5-1-0.9c-0.2-0.4-0.3-0.8-0.3-1.3
		c0-0.4,0.1-0.8,0.3-1.2c0.2-0.4,0.5-0.6,0.8-0.9c0.2-0.2,0.6-0.3,1-0.5s0.9-0.2,1.4-0.2c0.7,0,1.4,0.1,1.9,0.3s1,0.5,1.2,0.9
		c0.3,0.4,0.4,0.8,0.5,1.4l-1.5,0.2c-0.1-0.5-0.3-0.9-0.6-1.1s-0.8-0.4-1.4-0.4c-0.7,0-1.2,0.1-1.6,0.4s-0.5,0.5-0.5,0.8
		c0,0.2,0.1,0.4,0.2,0.6c0.1,0.2,0.3,0.3,0.6,0.4c0.2,0.1,0.6,0.2,1.4,0.4c1.1,0.3,1.9,0.5,2.3,0.7s0.8,0.5,1,0.8s0.4,0.8,0.4,1.4
		c0,0.5-0.2,1-0.5,1.5c-0.3,0.5-0.8,0.8-1.3,1.1c-0.6,0.3-1.2,0.4-2,0.4c-1.2,0-2.1-0.3-2.8-0.8S1049.7,133.1,1049.5,132.1z"/>
	<path class="st4" d="M924.1,153.1l1.6,0.2c-0.2,1.1-0.6,1.9-1.3,2.5c-0.7,0.6-1.6,0.9-2.6,0.9c-1.3,0-2.3-0.4-3.1-1.3
		c-0.8-0.8-1.2-2-1.2-3.6c0-1,0.2-1.9,0.5-2.6s0.8-1.3,1.5-1.7c0.7-0.4,1.4-0.6,2.2-0.6c1,0,1.8,0.3,2.5,0.8s1.1,1.2,1.2,2.2
		l-1.5,0.2c-0.1-0.6-0.4-1.1-0.8-1.4s-0.8-0.5-1.3-0.5c-0.8,0-1.4,0.3-1.9,0.9c-0.5,0.6-0.7,1.5-0.7,2.7c0,1.3,0.2,2.2,0.7,2.7
		s1.1,0.9,1.9,0.9c0.6,0,1.1-0.2,1.6-0.6S924,153.9,924.1,153.1z"/>
	<path class="st4" d="M926.5,151.9c0-1.7,0.5-3,1.4-3.8c0.8-0.7,1.8-1,2.9-1c1.3,0,2.3,0.4,3.1,1.3s1.2,2,1.2,3.5
		c0,1.2-0.2,2.1-0.5,2.8c-0.4,0.7-0.9,1.2-1.6,1.6s-1.4,0.6-2.3,0.6c-1.3,0-2.4-0.4-3.2-1.3S926.5,153.4,926.5,151.9z M928.1,151.9
		c0,1.2,0.3,2.1,0.8,2.7c0.5,0.6,1.2,0.9,2,0.9c0.8,0,1.4-0.3,2-0.9s0.8-1.5,0.8-2.7c0-1.2-0.3-2-0.8-2.6c-0.5-0.6-1.2-0.9-2-0.9
		c-0.8,0-1.4,0.3-2,0.9S928.1,150.7,928.1,151.9z"/>
	<path class="st4" d="M937.1,156.5v-9.3h1.4v1.3c0.3-0.5,0.7-0.8,1.2-1.1s1-0.4,1.7-0.4c0.7,0,1.3,0.1,1.7,0.4s0.8,0.7,0.9,1.2
		c0.7-1.1,1.7-1.6,2.9-1.6c0.9,0,1.6,0.3,2.1,0.8s0.7,1.3,0.7,2.4v6.4h-1.6v-5.9c0-0.6-0.1-1.1-0.2-1.4s-0.3-0.5-0.6-0.7
		s-0.6-0.3-0.9-0.3c-0.7,0-1.2,0.2-1.6,0.7c-0.4,0.4-0.7,1.1-0.7,2.1v5.4h-1.6v-6.1c0-0.7-0.1-1.2-0.4-1.6s-0.7-0.5-1.3-0.5
		c-0.4,0-0.9,0.1-1.2,0.4s-0.7,0.6-0.8,1s-0.3,1.1-0.3,2v4.8H937.1z"/>
	<path class="st4" d="M958.4,153.5l1.6,0.2c-0.3,1-0.7,1.7-1.4,2.2s-1.6,0.8-2.7,0.8c-1.4,0-2.4-0.4-3.2-1.3c-0.8-0.8-1.2-2-1.2-3.5
		c0-1.6,0.4-2.8,1.2-3.7s1.9-1.3,3.1-1.3c1.2,0,2.3,0.4,3.1,1.3s1.2,2,1.2,3.6c0,0.1,0,0.2,0,0.4h-7c0.1,1,0.3,1.8,0.9,2.4
		s1.2,0.8,2,0.8c0.6,0,1.1-0.2,1.5-0.5S958.2,154.2,958.4,153.5z M953.3,151h5.2c-0.1-0.8-0.3-1.4-0.6-1.8c-0.5-0.6-1.2-0.9-2-0.9
		c-0.7,0-1.3,0.2-1.8,0.7S953.3,150.2,953.3,151z"/>
	<path class="st4" d="M962.1,156.5v-9.3h1.4v1.4c0.4-0.7,0.7-1.1,1-1.3s0.6-0.3,1-0.3c0.5,0,1.1,0.2,1.6,0.5l-0.5,1.5
		c-0.4-0.2-0.8-0.3-1.2-0.3c-0.3,0-0.7,0.1-0.9,0.3s-0.5,0.5-0.6,0.9c-0.2,0.6-0.3,1.2-0.3,1.8v4.9H962.1z"/>
	<path class="st4" d="M974.2,153.1l1.6,0.2c-0.2,1.1-0.6,1.9-1.3,2.5c-0.7,0.6-1.6,0.9-2.6,0.9c-1.3,0-2.3-0.4-3.1-1.3
		c-0.8-0.8-1.2-2-1.2-3.6c0-1,0.2-1.9,0.5-2.6s0.8-1.3,1.5-1.7c0.7-0.4,1.4-0.6,2.2-0.6c1,0,1.8,0.3,2.5,0.8s1.1,1.2,1.2,2.2
		l-1.5,0.2c-0.1-0.6-0.4-1.1-0.8-1.4s-0.8-0.5-1.3-0.5c-0.8,0-1.4,0.3-1.9,0.9c-0.5,0.6-0.7,1.5-0.7,2.7c0,1.3,0.2,2.2,0.7,2.7
		s1.1,0.9,1.9,0.9c0.6,0,1.1-0.2,1.6-0.6S974,153.9,974.2,153.1z"/>
	<path class="st4" d="M977.1,145.5v-1.8h1.6v1.8H977.1z M977.1,156.5v-9.3h1.6v9.3H977.1z"/>
	<path class="st4" d="M987.2,155.4c-0.6,0.5-1.2,0.8-1.7,1.1s-1.1,0.3-1.7,0.3c-1,0-1.8-0.3-2.4-0.8c-0.6-0.5-0.8-1.1-0.8-1.9
		c0-0.5,0.1-0.9,0.3-1.3c0.2-0.4,0.5-0.7,0.8-0.9s0.7-0.4,1.1-0.5c0.3-0.1,0.8-0.2,1.4-0.2c1.3-0.2,2.2-0.3,2.8-0.5
		c0-0.2,0-0.4,0-0.4c0-0.6-0.1-1.1-0.4-1.4c-0.4-0.4-1-0.5-1.8-0.5c-0.7,0-1.3,0.1-1.6,0.4s-0.6,0.7-0.8,1.4l-1.5-0.2
		c0.1-0.7,0.4-1.2,0.7-1.6c0.3-0.4,0.8-0.7,1.4-0.9c0.6-0.2,1.3-0.3,2.1-0.3c0.8,0,1.4,0.1,1.9,0.3s0.9,0.4,1.1,0.7
		c0.2,0.3,0.4,0.6,0.5,1.1c0.1,0.3,0.1,0.8,0.1,1.5v2.1c0,1.5,0,2.4,0.1,2.8c0.1,0.4,0.2,0.8,0.4,1.1h-1.7
		C987.3,156.2,987.2,155.8,987.2,155.4z M987,151.8c-0.6,0.2-1.4,0.4-2.6,0.6c-0.7,0.1-1.1,0.2-1.4,0.3s-0.5,0.3-0.6,0.5
		s-0.2,0.5-0.2,0.8c0,0.4,0.2,0.8,0.5,1.1s0.8,0.4,1.4,0.4c0.6,0,1.2-0.1,1.6-0.4s0.8-0.6,1-1.1c0.2-0.4,0.3-0.9,0.3-1.6V151.8z"/>
	<path class="st4" d="M991,156.5v-12.9h1.6v12.9H991z"/>
	<path class="st4" d="M1001.5,153.5l1.6,0.2c-0.3,1-0.7,1.7-1.4,2.2s-1.6,0.8-2.7,0.8c-1.4,0-2.4-0.4-3.2-1.3
		c-0.8-0.8-1.2-2-1.2-3.5c0-1.6,0.4-2.8,1.2-3.7s1.9-1.3,3.1-1.3c1.2,0,2.3,0.4,3.1,1.3s1.2,2,1.2,3.6c0,0.1,0,0.2,0,0.4h-7
		c0.1,1,0.3,1.8,0.9,2.4s1.2,0.8,2,0.8c0.6,0,1.1-0.2,1.5-0.5S1001.2,154.2,1001.5,153.5z M996.3,151h5.2c-0.1-0.8-0.3-1.4-0.6-1.8
		c-0.5-0.6-1.2-0.9-2-0.9c-0.7,0-1.3,0.2-1.8,0.7S996.3,150.2,996.3,151z"/>
	<path class="st4" d="M1004.5,153.7l1.6-0.2c0.1,0.6,0.3,1.1,0.7,1.4s1,0.5,1.7,0.5c0.7,0,1.3-0.1,1.6-0.4s0.5-0.6,0.5-1
		c0-0.4-0.2-0.6-0.5-0.8c-0.2-0.1-0.8-0.3-1.6-0.5c-1.2-0.3-2-0.5-2.4-0.8s-0.8-0.5-1-0.9c-0.2-0.4-0.3-0.8-0.3-1.3
		c0-0.4,0.1-0.8,0.3-1.2c0.2-0.4,0.5-0.6,0.8-0.9c0.2-0.2,0.6-0.3,1-0.5s0.9-0.2,1.4-0.2c0.7,0,1.4,0.1,1.9,0.3s1,0.5,1.2,0.9
		c0.3,0.4,0.4,0.8,0.5,1.4l-1.5,0.2c-0.1-0.5-0.3-0.9-0.6-1.1s-0.8-0.4-1.4-0.4c-0.7,0-1.2,0.1-1.6,0.4s-0.5,0.5-0.5,0.8
		c0,0.2,0.1,0.4,0.2,0.6c0.1,0.2,0.3,0.3,0.6,0.4c0.2,0.1,0.6,0.2,1.4,0.4c1.1,0.3,1.9,0.5,2.3,0.7s0.8,0.5,1,0.8s0.4,0.8,0.4,1.4
		c0,0.5-0.2,1-0.5,1.5c-0.3,0.5-0.8,0.8-1.3,1.1c-0.6,0.3-1.2,0.4-2,0.4c-1.2,0-2.1-0.3-2.8-0.8S1004.6,154.7,1004.5,153.7z"/>
	<path class="st4" d="M1025.1,156.5v-1.2c-0.6,0.9-1.5,1.4-2.6,1.4c-0.7,0-1.4-0.2-2.1-0.6s-1.1-1-1.5-1.7c-0.3-0.7-0.5-1.6-0.5-2.5
		c0-0.9,0.2-1.8,0.5-2.5s0.8-1.3,1.4-1.7s1.3-0.6,2.1-0.6c0.6,0,1.1,0.1,1.5,0.4c0.4,0.2,0.8,0.5,1.1,0.9v-4.6h1.6v12.9H1025.1z
		 M1020.1,151.9c0,1.2,0.3,2.1,0.8,2.7s1.1,0.9,1.8,0.9c0.7,0,1.3-0.3,1.8-0.8s0.7-1.4,0.7-2.6c0-1.3-0.2-2.2-0.7-2.8
		s-1.1-0.9-1.8-0.9c-0.7,0-1.3,0.3-1.8,0.9S1020.1,150.6,1020.1,151.9z"/>
	<path class="st4" d="M1035.5,153.5l1.6,0.2c-0.3,1-0.7,1.7-1.4,2.2s-1.6,0.8-2.7,0.8c-1.4,0-2.4-0.4-3.2-1.3
		c-0.8-0.8-1.2-2-1.2-3.5c0-1.6,0.4-2.8,1.2-3.7s1.9-1.3,3.1-1.3c1.2,0,2.3,0.4,3.1,1.3s1.2,2,1.2,3.6c0,0.1,0,0.2,0,0.4h-7
		c0.1,1,0.3,1.8,0.9,2.4s1.2,0.8,2,0.8c0.6,0,1.1-0.2,1.5-0.5S1035.2,154.2,1035.5,153.5z M1030.3,151h5.2c-0.1-0.8-0.3-1.4-0.6-1.8
		c-0.5-0.6-1.2-0.9-2-0.9c-0.7,0-1.3,0.2-1.8,0.7S1030.3,150.2,1030.3,151z"/>
	<path class="st4" d="M1044.1,156.5v-12.9h1.6v12.9H1044.1z"/>
	<path class="st4" d="M1054.2,155.4c-0.6,0.5-1.2,0.8-1.7,1.1s-1.1,0.3-1.7,0.3c-1,0-1.8-0.3-2.4-0.8c-0.6-0.5-0.8-1.1-0.8-1.9
		c0-0.5,0.1-0.9,0.3-1.3c0.2-0.4,0.5-0.7,0.8-0.9s0.7-0.4,1.1-0.5c0.3-0.1,0.8-0.2,1.4-0.2c1.3-0.2,2.2-0.3,2.8-0.5
		c0-0.2,0-0.4,0-0.4c0-0.6-0.1-1.1-0.4-1.4c-0.4-0.4-1-0.5-1.8-0.5c-0.7,0-1.3,0.1-1.6,0.4s-0.6,0.7-0.8,1.4l-1.5-0.2
		c0.1-0.7,0.4-1.2,0.7-1.6c0.3-0.4,0.8-0.7,1.4-0.9c0.6-0.2,1.3-0.3,2.1-0.3c0.8,0,1.4,0.1,1.9,0.3s0.9,0.4,1.1,0.7
		c0.2,0.3,0.4,0.6,0.5,1.1c0.1,0.3,0.1,0.8,0.1,1.5v2.1c0,1.5,0,2.4,0.1,2.8c0.1,0.4,0.2,0.8,0.4,1.1h-1.7
		C1054.3,156.2,1054.2,155.8,1054.2,155.4z M1054.1,151.8c-0.6,0.2-1.4,0.4-2.6,0.6c-0.7,0.1-1.1,0.2-1.4,0.3s-0.5,0.3-0.6,0.5
		s-0.2,0.5-0.2,0.8c0,0.4,0.2,0.8,0.5,1.1s0.8,0.4,1.4,0.4c0.6,0,1.2-0.1,1.6-0.4s0.8-0.6,1-1.1c0.2-0.4,0.3-0.9,0.3-1.6V151.8z"/>
	<path class="st4" d="M929.1,181.7v-12.9h1.4v1.2c0.3-0.5,0.7-0.8,1.2-1.1c0.4-0.2,0.9-0.4,1.6-0.4c0.8,0,1.5,0.2,2.1,0.6
		s1.1,1,1.4,1.7c0.3,0.7,0.5,1.6,0.5,2.5c0,1-0.2,1.8-0.5,2.6c-0.3,0.8-0.8,1.4-1.5,1.8c-0.7,0.4-1.3,0.6-2.1,0.6
		c-0.5,0-1-0.1-1.4-0.3s-0.8-0.5-1-0.8v4.5H929.1z M930.5,173.5c0,1.2,0.2,2.1,0.7,2.7s1.1,0.9,1.8,0.9c0.7,0,1.3-0.3,1.8-0.9
		c0.5-0.6,0.8-1.5,0.8-2.8c0-1.2-0.2-2.1-0.7-2.7s-1.1-0.9-1.8-0.9c-0.7,0-1.3,0.3-1.8,0.9C930.8,171.4,930.5,172.3,930.5,173.5z"/>
	<path class="st4" d="M939.1,178.1v-9.3h1.4v1.4c0.4-0.7,0.7-1.1,1-1.3s0.6-0.3,1-0.3c0.5,0,1.1,0.2,1.6,0.5l-0.5,1.5
		c-0.4-0.2-0.8-0.3-1.2-0.3c-0.3,0-0.7,0.1-0.9,0.3s-0.5,0.5-0.6,0.9c-0.2,0.6-0.3,1.2-0.3,1.8v4.9H939.1z"/>
	<path class="st4" d="M945.1,167.1v-1.8h1.6v1.8H945.1z M945.1,178.1v-9.3h1.6v9.3H945.1z"/>
	<path class="st4" d="M949.1,178.1v-9.3h1.4v1.3c0.3-0.5,0.7-0.8,1.2-1.1s1-0.4,1.7-0.4c0.7,0,1.3,0.1,1.7,0.4s0.8,0.7,0.9,1.2
		c0.7-1.1,1.7-1.6,2.9-1.6c0.9,0,1.6,0.3,2.1,0.8s0.7,1.3,0.7,2.4v6.4h-1.6v-5.9c0-0.6-0.1-1.1-0.2-1.4s-0.3-0.5-0.6-0.7
		s-0.6-0.3-0.9-0.3c-0.7,0-1.2,0.2-1.6,0.7c-0.4,0.4-0.7,1.1-0.7,2.1v5.4h-1.6v-6.1c0-0.7-0.1-1.2-0.4-1.6s-0.7-0.5-1.3-0.5
		c-0.4,0-0.9,0.1-1.2,0.4s-0.7,0.6-0.8,1s-0.3,1.1-0.3,2v4.8H949.1z"/>
	<path class="st4" d="M970.4,175.1l1.6,0.2c-0.3,1-0.7,1.7-1.4,2.2s-1.6,0.8-2.7,0.8c-1.4,0-2.4-0.4-3.2-1.3c-0.8-0.8-1.2-2-1.2-3.5
		c0-1.6,0.4-2.8,1.2-3.7s1.9-1.3,3.1-1.3c1.2,0,2.3,0.4,3.1,1.3s1.2,2,1.2,3.6c0,0.1,0,0.2,0,0.4h-7c0.1,1,0.3,1.8,0.9,2.4
		s1.2,0.8,2,0.8c0.6,0,1.1-0.2,1.5-0.5S970.2,175.8,970.4,175.1z M965.3,172.6h5.2c-0.1-0.8-0.3-1.4-0.6-1.8c-0.5-0.6-1.2-0.9-2-0.9
		c-0.7,0-1.3,0.2-1.8,0.7S965.3,171.8,965.3,172.6z"/>
	<path class="st4" d="M974,178.1v-9.3h1.4v1.4c0.4-0.7,0.7-1.1,1-1.3s0.6-0.3,1-0.3c0.5,0,1.1,0.2,1.6,0.5l-0.5,1.5
		c-0.4-0.2-0.8-0.3-1.2-0.3c-0.3,0-0.7,0.1-0.9,0.3s-0.5,0.5-0.6,0.9c-0.2,0.6-0.3,1.2-0.3,1.8v4.9H974z"/>
	<path class="st4" d="M986.2,177c-0.6,0.5-1.2,0.8-1.7,1.1s-1.1,0.3-1.7,0.3c-1,0-1.8-0.3-2.4-0.8c-0.6-0.5-0.8-1.1-0.8-1.9
		c0-0.5,0.1-0.9,0.3-1.3c0.2-0.4,0.5-0.7,0.8-0.9s0.7-0.4,1.1-0.5c0.3-0.1,0.8-0.2,1.4-0.2c1.3-0.2,2.2-0.3,2.8-0.5
		c0-0.2,0-0.4,0-0.4c0-0.6-0.1-1.1-0.4-1.4c-0.4-0.4-1-0.5-1.8-0.5c-0.7,0-1.3,0.1-1.6,0.4s-0.6,0.7-0.8,1.4l-1.5-0.2
		c0.1-0.7,0.4-1.2,0.7-1.6c0.3-0.4,0.8-0.7,1.4-0.9c0.6-0.2,1.3-0.3,2.1-0.3c0.8,0,1.4,0.1,1.9,0.3s0.9,0.4,1.1,0.7
		c0.2,0.3,0.4,0.6,0.5,1.1c0.1,0.3,0.1,0.8,0.1,1.5v2.1c0,1.5,0,2.4,0.1,2.8c0.1,0.4,0.2,0.8,0.4,1.1h-1.7
		C986.3,177.8,986.2,177.4,986.2,177z M986,173.4c-0.6,0.2-1.4,0.4-2.6,0.6c-0.7,0.1-1.1,0.2-1.4,0.3s-0.5,0.3-0.6,0.5
		s-0.2,0.5-0.2,0.8c0,0.4,0.2,0.8,0.5,1.1s0.8,0.4,1.4,0.4c0.6,0,1.2-0.1,1.6-0.4s0.8-0.6,1-1.1c0.2-0.4,0.3-0.9,0.3-1.6V173.4z"/>
	<path class="st4" d="M1001.2,174.7l1.6,0.2c-0.2,1.1-0.6,1.9-1.3,2.5c-0.7,0.6-1.6,0.9-2.6,0.9c-1.3,0-2.3-0.4-3.1-1.3
		c-0.8-0.8-1.2-2-1.2-3.6c0-1,0.2-1.9,0.5-2.6s0.8-1.3,1.5-1.7c0.7-0.4,1.4-0.6,2.2-0.6c1,0,1.8,0.3,2.5,0.8s1.1,1.2,1.2,2.2
		l-1.5,0.2c-0.1-0.6-0.4-1.1-0.8-1.4s-0.8-0.5-1.3-0.5c-0.8,0-1.4,0.3-1.9,0.9c-0.5,0.6-0.7,1.5-0.7,2.7c0,1.3,0.2,2.2,0.7,2.7
		s1.1,0.9,1.9,0.9c0.6,0,1.1-0.2,1.6-0.6S1001.1,175.5,1001.2,174.7z"/>
	<path class="st4" d="M1010.2,177c-0.6,0.5-1.2,0.8-1.7,1.1s-1.1,0.3-1.7,0.3c-1,0-1.8-0.3-2.4-0.8c-0.6-0.5-0.8-1.1-0.8-1.9
		c0-0.5,0.1-0.9,0.3-1.3c0.2-0.4,0.5-0.7,0.8-0.9s0.7-0.4,1.1-0.5c0.3-0.1,0.8-0.2,1.4-0.2c1.3-0.2,2.2-0.3,2.8-0.5
		c0-0.2,0-0.4,0-0.4c0-0.6-0.1-1.1-0.4-1.4c-0.4-0.4-1-0.5-1.8-0.5c-0.7,0-1.3,0.1-1.6,0.4s-0.6,0.7-0.8,1.4l-1.5-0.2
		c0.1-0.7,0.4-1.2,0.7-1.6c0.3-0.4,0.8-0.7,1.4-0.9c0.6-0.2,1.3-0.3,2.1-0.3c0.8,0,1.4,0.1,1.9,0.3s0.9,0.4,1.1,0.7
		c0.2,0.3,0.4,0.6,0.5,1.1c0.1,0.3,0.1,0.8,0.1,1.5v2.1c0,1.5,0,2.4,0.1,2.8c0.1,0.4,0.2,0.8,0.4,1.1h-1.7
		C1010.3,177.8,1010.2,177.4,1010.2,177z M1010,173.4c-0.6,0.2-1.4,0.4-2.6,0.6c-0.7,0.1-1.1,0.2-1.4,0.3s-0.5,0.3-0.6,0.5
		s-0.2,0.5-0.2,0.8c0,0.4,0.2,0.8,0.5,1.1s0.8,0.4,1.4,0.4c0.6,0,1.2-0.1,1.6-0.4s0.8-0.6,1-1.1c0.2-0.4,0.3-0.9,0.3-1.6V173.4z"/>
	<path class="st4" d="M1014,178.1v-12.9h1.6v12.9H1014z"/>
	<path class="st4" d="M1018.1,167.1v-1.8h1.6v1.8H1018.1z M1018.1,178.1v-9.3h1.6v9.3H1018.1z"/>
	<path class="st4" d="M1028.1,178.1V177c-0.6,0.9-1.5,1.4-2.6,1.4c-0.7,0-1.4-0.2-2.1-0.6s-1.1-1-1.5-1.7c-0.3-0.7-0.5-1.6-0.5-2.5
		c0-0.9,0.2-1.8,0.5-2.5s0.8-1.3,1.4-1.7s1.3-0.6,2.1-0.6c0.6,0,1.1,0.1,1.5,0.4c0.4,0.2,0.8,0.5,1.1,0.9v-4.6h1.6v12.9H1028.1z
		 M1023.1,173.5c0,1.2,0.3,2.1,0.8,2.7s1.1,0.9,1.8,0.9c0.7,0,1.3-0.3,1.8-0.8s0.7-1.4,0.7-2.6c0-1.3-0.2-2.2-0.7-2.8
		s-1.1-0.9-1.8-0.9c-0.7,0-1.3,0.3-1.8,0.9S1023.1,172.2,1023.1,173.5z"/>
	<path class="st4" d="M1038.2,177c-0.6,0.5-1.2,0.8-1.7,1.1s-1.1,0.3-1.7,0.3c-1,0-1.8-0.3-2.4-0.8c-0.6-0.5-0.8-1.1-0.8-1.9
		c0-0.5,0.1-0.9,0.3-1.3c0.2-0.4,0.5-0.7,0.8-0.9s0.7-0.4,1.1-0.5c0.3-0.1,0.8-0.2,1.4-0.2c1.3-0.2,2.2-0.3,2.8-0.5
		c0-0.2,0-0.4,0-0.4c0-0.6-0.1-1.1-0.4-1.4c-0.4-0.4-1-0.5-1.8-0.5c-0.7,0-1.3,0.1-1.6,0.4s-0.6,0.7-0.8,1.4l-1.5-0.2
		c0.1-0.7,0.4-1.2,0.7-1.6c0.3-0.4,0.8-0.7,1.4-0.9c0.6-0.2,1.3-0.3,2.1-0.3c0.8,0,1.4,0.1,1.9,0.3s0.9,0.4,1.1,0.7
		c0.2,0.3,0.4,0.6,0.5,1.1c0.1,0.3,0.1,0.8,0.1,1.5v2.1c0,1.5,0,2.4,0.1,2.8c0.1,0.4,0.2,0.8,0.4,1.1h-1.7
		C1038.3,177.8,1038.2,177.4,1038.2,177z M1038.1,173.4c-0.6,0.2-1.4,0.4-2.6,0.6c-0.7,0.1-1.1,0.2-1.4,0.3s-0.5,0.3-0.6,0.5
		s-0.2,0.5-0.2,0.8c0,0.4,0.2,0.8,0.5,1.1s0.8,0.4,1.4,0.4c0.6,0,1.2-0.1,1.6-0.4s0.8-0.6,1-1.1c0.2-0.4,0.3-0.9,0.3-1.6V173.4z"/>
	<path class="st4" d="M1048.2,178.1V177c-0.6,0.9-1.5,1.4-2.6,1.4c-0.7,0-1.4-0.2-2.1-0.6s-1.1-1-1.5-1.7c-0.3-0.7-0.5-1.6-0.5-2.5
		c0-0.9,0.2-1.8,0.5-2.5s0.8-1.3,1.4-1.7s1.3-0.6,2.1-0.6c0.6,0,1.1,0.1,1.5,0.4c0.4,0.2,0.8,0.5,1.1,0.9v-4.6h1.6v12.9H1048.2z
		 M1043.2,173.5c0,1.2,0.3,2.1,0.8,2.7s1.1,0.9,1.8,0.9c0.7,0,1.3-0.3,1.8-0.8s0.7-1.4,0.7-2.6c0-1.3-0.2-2.2-0.7-2.8
		s-1.1-0.9-1.8-0.9c-0.7,0-1.3,0.3-1.8,0.9S1043.2,172.2,1043.2,173.5z"/>
</g>
<g class="st3">
	<path d="M309.3,90.3V76h1.9v5.9h7.4V76h1.9v14.3h-1.9v-6.7h-7.4v6.7H309.3z"/>
	<path d="M322.9,85.1c0-1.9,0.5-3.3,1.6-4.3c0.9-0.8,2-1.2,3.3-1.2c1.4,0,2.6,0.5,3.5,1.4s1.4,2.2,1.4,3.9c0,1.3-0.2,2.4-0.6,3.1
		s-1,1.4-1.7,1.8s-1.6,0.6-2.5,0.6c-1.5,0-2.6-0.5-3.5-1.4S322.9,86.9,322.9,85.1z M324.7,85.1c0,1.3,0.3,2.3,0.9,3s1.3,1,2.2,1
		c0.9,0,1.6-0.3,2.2-1s0.9-1.7,0.9-3c0-1.3-0.3-2.3-0.9-2.9s-1.3-1-2.2-1c-0.9,0-1.6,0.3-2.2,1S324.7,83.8,324.7,85.1z"/>
	<path d="M341.4,90.3v-1.5c-0.8,1.2-1.9,1.8-3.3,1.8c-0.6,0-1.2-0.1-1.7-0.4s-0.9-0.5-1.2-0.9s-0.4-0.8-0.5-1.3
		c-0.1-0.3-0.1-0.9-0.1-1.6v-6.4h1.8v5.8c0,0.9,0,1.5,0.1,1.9c0.1,0.5,0.3,0.8,0.7,1.1s0.8,0.4,1.3,0.4s1-0.1,1.5-0.4s0.8-0.6,1-1.1
		s0.3-1.1,0.3-2v-5.6h1.8v10.4H341.4z"/>
	<path d="M345.1,87.2l1.7-0.3c0.1,0.7,0.4,1.2,0.8,1.6s1.1,0.6,1.9,0.6c0.8,0,1.4-0.2,1.8-0.5s0.6-0.7,0.6-1.2
		c0-0.4-0.2-0.7-0.5-0.9c-0.2-0.2-0.8-0.4-1.8-0.6c-1.3-0.3-2.2-0.6-2.7-0.8s-0.9-0.6-1.1-1s-0.4-0.9-0.4-1.4c0-0.5,0.1-0.9,0.3-1.3
		s0.5-0.7,0.9-1c0.3-0.2,0.6-0.4,1.1-0.5s1-0.2,1.5-0.2c0.8,0,1.5,0.1,2.1,0.4s1.1,0.6,1.4,1s0.5,0.9,0.6,1.6l-1.7,0.2
		c-0.1-0.5-0.3-1-0.7-1.3s-0.9-0.4-1.6-0.4c-0.8,0-1.4,0.1-1.7,0.4s-0.5,0.6-0.5,0.9c0,0.2,0.1,0.4,0.2,0.6c0.1,0.2,0.4,0.3,0.7,0.5
		c0.2,0.1,0.7,0.2,1.6,0.4c1.2,0.3,2.1,0.6,2.6,0.8s0.9,0.5,1.2,0.9s0.4,0.9,0.4,1.5c0,0.6-0.2,1.1-0.5,1.7s-0.8,0.9-1.5,1.2
		s-1.4,0.4-2.2,0.4c-1.3,0-2.4-0.3-3.1-0.8S345.2,88.3,345.1,87.2z"/>
	<path d="M362.9,87l1.8,0.2c-0.3,1.1-0.8,1.9-1.6,2.5s-1.8,0.9-3,0.9c-1.5,0-2.7-0.5-3.6-1.4s-1.3-2.2-1.3-3.9
		c0-1.7,0.4-3.1,1.3-4.1s2.1-1.4,3.5-1.4c1.4,0,2.5,0.5,3.4,1.4s1.3,2.3,1.3,4c0,0.1,0,0.3,0,0.5H357c0.1,1.1,0.4,2,1,2.6
		s1.3,0.9,2.2,0.9c0.6,0,1.2-0.2,1.7-0.5S362.6,87.7,362.9,87z M357.1,84.1h5.8c-0.1-0.9-0.3-1.5-0.7-2c-0.6-0.7-1.3-1-2.2-1
		c-0.8,0-1.5,0.3-2,0.8S357.1,83.2,357.1,84.1z"/>
	<path d="M370.7,90.3V77.7H366V76h11.3v1.7h-4.7v12.6H370.7z"/>
	<path d="M376.2,85.1c0-1.9,0.5-3.3,1.6-4.3c0.9-0.8,2-1.2,3.3-1.2c1.4,0,2.6,0.5,3.5,1.4s1.4,2.2,1.4,3.9c0,1.3-0.2,2.4-0.6,3.1
		s-1,1.4-1.7,1.8s-1.6,0.6-2.5,0.6c-1.5,0-2.6-0.5-3.5-1.4S376.2,86.9,376.2,85.1z M378,85.1c0,1.3,0.3,2.3,0.9,3s1.3,1,2.2,1
		c0.9,0,1.6-0.3,2.2-1s0.9-1.7,0.9-3c0-1.3-0.3-2.3-0.9-2.9s-1.3-1-2.2-1c-0.9,0-1.6,0.3-2.2,1S378,83.8,378,85.1z"/>
	<path d="M388,90.3V76h1.8v8.2l4.2-4.2h2.3l-4,3.8l4.4,6.5h-2.2L391,85l-1.2,1.2v4.1H388z"/>
	<path d="M405.1,87l1.8,0.2c-0.3,1.1-0.8,1.9-1.6,2.5s-1.8,0.9-3,0.9c-1.5,0-2.7-0.5-3.6-1.4s-1.3-2.2-1.3-3.9
		c0-1.7,0.4-3.1,1.3-4.1s2.1-1.4,3.5-1.4c1.4,0,2.5,0.5,3.4,1.4s1.3,2.3,1.3,4c0,0.1,0,0.3,0,0.5h-7.7c0.1,1.1,0.4,2,1,2.6
		s1.3,0.9,2.2,0.9c0.6,0,1.2-0.2,1.7-0.5S404.8,87.7,405.1,87z M399.3,84.1h5.8c-0.1-0.9-0.3-1.5-0.7-2c-0.6-0.7-1.3-1-2.2-1
		c-0.8,0-1.5,0.3-2,0.8S399.4,83.2,399.3,84.1z"/>
	<path d="M409.1,90.3V79.9h1.6v1.5c0.8-1.1,1.9-1.7,3.3-1.7c0.6,0,1.2,0.1,1.7,0.3s0.9,0.5,1.2,0.9s0.4,0.8,0.5,1.3
		c0.1,0.3,0.1,0.9,0.1,1.7v6.4h-1.8V84c0-0.7-0.1-1.3-0.2-1.6s-0.4-0.6-0.7-0.8s-0.8-0.3-1.2-0.3c-0.7,0-1.4,0.2-1.9,0.7
		s-0.8,1.4-0.8,2.7v5.7H409.1z"/>
	<path d="M425.9,90.3V76h1.9v12.6h7.1v1.7H425.9z"/>
	<path d="M439.3,90.3V77.7h-4.7V76h11.3v1.7h-4.7v12.6H439.3z"/>
	<path d="M447.9,90.3V76h4.9c1.1,0,2,0.1,2.5,0.2c0.8,0.2,1.5,0.5,2.1,1c0.8,0.6,1.3,1.5,1.7,2.4s0.6,2.1,0.6,3.4
		c0,1.1-0.1,2.1-0.4,2.9s-0.6,1.5-1,2.1s-0.8,1-1.3,1.3s-1,0.6-1.7,0.7s-1.4,0.2-2.3,0.2H447.9z M449.8,88.6h3.1
		c0.9,0,1.7-0.1,2.2-0.3s1-0.4,1.3-0.7c0.4-0.4,0.8-1.1,1-1.8s0.4-1.7,0.4-2.8c0-1.5-0.2-2.6-0.7-3.5s-1.1-1.3-1.8-1.6
		c-0.5-0.2-1.3-0.3-2.5-0.3h-3V88.6z"/>
	<path d="M300.6,118.5c-1-1.2-1.8-2.7-2.5-4.3s-1-3.3-1-5.1c0-1.5,0.3-3,0.8-4.5c0.6-1.6,1.5-3.3,2.7-4.9h1.3
		c-0.8,1.4-1.3,2.3-1.6,2.9c-0.4,0.9-0.7,1.8-0.9,2.8c-0.3,1.2-0.4,2.4-0.4,3.7c0,3.1,1,6.3,2.9,9.4H300.6z"/>
	<path d="M314.3,109.3l1.9,0.5c-0.4,1.6-1.1,2.7-2.1,3.6s-2.3,1.2-3.8,1.2c-1.5,0-2.8-0.3-3.8-0.9s-1.7-1.5-2.2-2.7
		s-0.8-2.5-0.8-3.8c0-1.5,0.3-2.8,0.9-3.9s1.4-2,2.4-2.5s2.2-0.9,3.5-0.9c1.4,0,2.6,0.4,3.6,1.1s1.7,1.8,2,3.1l-1.9,0.4
		c-0.3-1-0.8-1.8-1.4-2.3s-1.4-0.7-2.4-0.7c-1.1,0-2,0.3-2.8,0.8s-1.3,1.2-1.6,2.1s-0.4,1.8-0.4,2.7c0,1.2,0.2,2.3,0.5,3.2
		s0.9,1.6,1.7,2s1.6,0.7,2.4,0.7c1.1,0,2-0.3,2.7-0.9S314.1,110.5,314.3,109.3z"/>
	<path d="M325.1,113c-0.7,0.6-1.3,0.9-1.9,1.2s-1.2,0.3-1.9,0.3c-1.1,0-2-0.3-2.6-0.8s-0.9-1.3-0.9-2.1c0-0.5,0.1-1,0.3-1.4
		s0.5-0.8,0.9-1s0.8-0.4,1.3-0.6c0.3-0.1,0.9-0.2,1.6-0.3c1.4-0.2,2.5-0.4,3.1-0.6c0-0.2,0-0.4,0-0.5c0-0.7-0.2-1.2-0.5-1.5
		c-0.4-0.4-1.1-0.6-2-0.6c-0.8,0-1.4,0.1-1.8,0.4s-0.7,0.8-0.9,1.5l-1.7-0.2c0.2-0.7,0.4-1.3,0.8-1.8s0.9-0.8,1.6-1s1.5-0.4,2.4-0.4
		c0.9,0,1.6,0.1,2.2,0.3s1,0.5,1.2,0.8s0.4,0.7,0.5,1.2c0.1,0.3,0.1,0.8,0.1,1.6v2.3c0,1.6,0,2.7,0.1,3.1s0.2,0.8,0.4,1.2h-1.8
		C325.3,113.9,325.1,113.5,325.1,113z M324.9,109.1c-0.6,0.3-1.6,0.5-2.9,0.7c-0.7,0.1-1.2,0.2-1.5,0.4s-0.5,0.3-0.7,0.6
		s-0.2,0.5-0.2,0.8c0,0.5,0.2,0.9,0.5,1.2s0.9,0.5,1.6,0.5c0.7,0,1.3-0.1,1.8-0.4s0.9-0.7,1.2-1.2c0.2-0.4,0.3-1,0.3-1.8V109.1z"/>
	<path d="M329.4,118.3l-0.2-1.7c0.4,0.1,0.7,0.2,1,0.2c0.4,0,0.7-0.1,0.9-0.2s0.4-0.3,0.6-0.5c0.1-0.2,0.3-0.6,0.5-1.3
		c0-0.1,0.1-0.2,0.2-0.4l-3.9-10.4h1.9l2.2,6c0.3,0.8,0.5,1.6,0.8,2.4c0.2-0.8,0.4-1.6,0.7-2.4l2.2-6h1.8l-3.9,10.5
		c-0.4,1.1-0.8,1.9-1,2.4c-0.3,0.6-0.7,1-1.1,1.3s-0.9,0.4-1.4,0.4C330.2,118.5,329.8,118.4,329.4,118.3z"/>
	<path d="M339.4,114.3v-10.4h1.6v1.5c0.3-0.5,0.8-0.9,1.3-1.2s1.2-0.5,1.8-0.5c0.8,0,1.4,0.2,1.9,0.5s0.8,0.8,1,1.3
		c0.8-1.2,1.9-1.8,3.2-1.8c1,0,1.8,0.3,2.4,0.9s0.8,1.4,0.8,2.6v7.1h-1.7v-6.5c0-0.7-0.1-1.2-0.2-1.5s-0.3-0.6-0.6-0.7
		s-0.7-0.3-1.1-0.3c-0.7,0-1.3,0.2-1.8,0.7s-0.7,1.3-0.7,2.3v6h-1.8v-6.7c0-0.8-0.1-1.4-0.4-1.8s-0.8-0.6-1.4-0.6
		c-0.5,0-1,0.1-1.4,0.4s-0.7,0.6-0.9,1.1s-0.3,1.2-0.3,2.2v5.4H339.4z"/>
	<path d="M362.9,113c-0.7,0.6-1.3,0.9-1.9,1.2s-1.2,0.3-1.9,0.3c-1.1,0-2-0.3-2.6-0.8s-0.9-1.3-0.9-2.1c0-0.5,0.1-1,0.3-1.4
		s0.5-0.8,0.9-1s0.8-0.4,1.3-0.6c0.3-0.1,0.9-0.2,1.6-0.3c1.4-0.2,2.5-0.4,3.1-0.6c0-0.2,0-0.4,0-0.5c0-0.7-0.2-1.2-0.5-1.5
		c-0.4-0.4-1.1-0.6-2-0.6c-0.8,0-1.4,0.1-1.8,0.4s-0.7,0.8-0.9,1.5l-1.7-0.2c0.2-0.7,0.4-1.3,0.8-1.8s0.9-0.8,1.6-1s1.5-0.4,2.4-0.4
		c0.9,0,1.6,0.1,2.2,0.3s1,0.5,1.2,0.8s0.4,0.7,0.5,1.2c0.1,0.3,0.1,0.8,0.1,1.6v2.3c0,1.6,0,2.7,0.1,3.1s0.2,0.8,0.4,1.2h-1.8
		C363,113.9,362.9,113.5,362.9,113z M362.7,109.1c-0.6,0.3-1.6,0.5-2.9,0.7c-0.7,0.1-1.2,0.2-1.5,0.4s-0.5,0.3-0.7,0.6
		s-0.2,0.5-0.2,0.8c0,0.5,0.2,0.9,0.5,1.2s0.9,0.5,1.6,0.5c0.7,0,1.3-0.1,1.8-0.4s0.9-0.7,1.2-1.2c0.2-0.4,0.3-1,0.3-1.8V109.1z"/>
	<path d="M367.2,114.3v-10.4h1.6v1.5c0.8-1.1,1.9-1.7,3.3-1.7c0.6,0,1.2,0.1,1.7,0.3s0.9,0.5,1.2,0.9s0.4,0.8,0.5,1.3
		c0.1,0.3,0.1,0.9,0.1,1.7v6.4h-1.8V108c0-0.7-0.1-1.3-0.2-1.6s-0.4-0.6-0.7-0.8s-0.8-0.3-1.2-0.3c-0.7,0-1.4,0.2-1.9,0.7
		s-0.8,1.4-0.8,2.7v5.7H367.2z"/>
	<path d="M394.3,109.3l1.9,0.5c-0.4,1.6-1.1,2.7-2.1,3.6s-2.3,1.2-3.8,1.2c-1.5,0-2.8-0.3-3.8-0.9s-1.7-1.5-2.2-2.7
		s-0.8-2.5-0.8-3.8c0-1.5,0.3-2.8,0.9-3.9s1.4-2,2.4-2.5s2.2-0.9,3.5-0.9c1.4,0,2.6,0.4,3.6,1.1s1.7,1.8,2,3.1l-1.9,0.4
		c-0.3-1-0.8-1.8-1.4-2.3s-1.4-0.7-2.4-0.7c-1.1,0-2,0.3-2.8,0.8s-1.3,1.2-1.6,2.1s-0.4,1.8-0.4,2.7c0,1.2,0.2,2.3,0.5,3.2
		s0.9,1.6,1.7,2s1.6,0.7,2.4,0.7c1.1,0,2-0.3,2.7-0.9S394.1,110.5,394.3,109.3z"/>
	<path d="M397.7,109.1c0-1.9,0.5-3.3,1.6-4.3c0.9-0.8,2-1.2,3.3-1.2c1.4,0,2.6,0.5,3.5,1.4s1.4,2.2,1.4,3.9c0,1.3-0.2,2.4-0.6,3.1
		s-1,1.4-1.7,1.8s-1.6,0.6-2.5,0.6c-1.5,0-2.6-0.5-3.5-1.4S397.7,110.9,397.7,109.1z M399.5,109.1c0,1.3,0.3,2.3,0.9,3s1.3,1,2.2,1
		c0.9,0,1.6-0.3,2.2-1s0.9-1.7,0.9-3c0-1.3-0.3-2.3-0.9-2.9s-1.3-1-2.2-1c-0.9,0-1.6,0.3-2.2,1S399.5,107.8,399.5,109.1z"/>
	<path d="M410,114.3v-2h2v2H410z"/>
	<path d="M415.5,114.3v-2h2v2c0,0.7-0.1,1.3-0.4,1.8s-0.7,0.8-1.2,1l-0.5-0.8c0.4-0.2,0.6-0.4,0.8-0.7s0.3-0.8,0.3-1.4H415.5z"/>
	<path d="M420.7,114.3V100h1.9v12.6h7.1v1.7H420.7z"/>
	<path d="M435.5,112.7l0.3,1.6c-0.5,0.1-0.9,0.2-1.3,0.2c-0.6,0-1.1-0.1-1.5-0.3s-0.6-0.5-0.7-0.8s-0.2-1-0.2-2.1v-6h-1.3v-1.4h1.3
		v-2.6l1.7-1.1v3.6h1.8v1.4h-1.8v6.1c0,0.5,0,0.8,0.1,1s0.2,0.3,0.3,0.3s0.3,0.1,0.6,0.1C435,112.8,435.2,112.8,435.5,112.7z"/>
	<path d="M444,114.3V113c-0.7,1-1.6,1.5-2.9,1.5c-0.8,0-1.6-0.2-2.3-0.7s-1.2-1.1-1.6-1.9s-0.6-1.8-0.6-2.8c0-1,0.2-2,0.5-2.8
		s0.9-1.5,1.6-1.9s1.5-0.7,2.3-0.7c0.6,0,1.2,0.1,1.7,0.4s0.9,0.6,1.2,1V100h1.7v14.3H444z M438.4,109.1c0,1.3,0.3,2.3,0.8,3
		s1.2,1,2,1c0.8,0,1.4-0.3,2-0.9s0.8-1.6,0.8-2.9c0-1.4-0.3-2.5-0.8-3.1s-1.2-1-2-1c-0.8,0-1.4,0.3-2,1S438.4,107.8,438.4,109.1z"/>
	<path d="M448.9,114.3v-2h2v2H448.9z"/>
	<path d="M454.9,117.2l-0.3-0.3c2.5-2.4,3.6-5.6,3.6-8.7c0-3.1-1.1-6.1-3.7-8.5l0.2-0.3c3.6,2.8,4.8,6,4.8,8.8
		C459.6,111.8,458,114.8,454.9,117.2z"/>
</g>
</svg>
