<?xml version="1.0" encoding="utf-8"?>
<!-- Generator: Adobe Illustrator 22.1.0, SVG Export Plug-In . SVG Version: 6.00 Build 0)  -->
<svg version="1.1" id="组_2" xmlns="http://www.w3.org/2000/svg" xmlns:xlink="http://www.w3.org/1999/xlink" x="0px" y="0px"
	 viewBox="0 0 678 253" style="enable-background:new 0 0 678 253;" xml:space="preserve">
<style type="text/css">
	.st0{enable-background:new    ;}
	.st1{fill:#D6D6D6;}
	.st2{fill:#0E0E0E;}
	.st3{fill:#0EAFA0;}
	.st4{fill:#CDBB78;}
	.st5{fill:#EC632F;}
</style>
<g id="_2.0_" class="st0">
	<path d="M13.6,187.6c0-0.6-0.2-1-0.5-1.4c-0.4-0.3-0.9-0.5-1.5-0.5c-0.4,0-0.9,0.1-1.3,0.3c-0.5,0.2-0.9,0.5-1.3,1v-1.3
		c0.3-0.4,0.7-0.6,1.2-0.8c0.4-0.2,1-0.3,1.6-0.3c1,0,1.7,0.3,2.3,0.8s0.9,1.2,0.9,2.1c0,0.8-0.2,1.5-0.5,2c-0.4,0.6-1,1.2-1.9,1.8
		s-1.5,1.1-1.8,1.3c-0.3,0.3-0.5,0.5-0.6,0.8c-0.1,0.2-0.2,0.5-0.2,0.9h5.3v1.2H8.6V195c0-0.6,0.1-1.1,0.3-1.6
		c0.2-0.4,0.4-0.8,0.8-1.3c0.4-0.4,1-0.9,1.8-1.5s1.4-1.1,1.7-1.5C13.5,188.7,13.6,188.2,13.6,187.6z"/>
	<path d="M16.9,194.8c0-0.2,0.1-0.5,0.3-0.6c0.2-0.2,0.4-0.3,0.6-0.3c0.3,0,0.5,0.1,0.6,0.3c0.2,0.2,0.3,0.4,0.3,0.6
		c0,0.2-0.1,0.4-0.3,0.6c-0.2,0.2-0.4,0.3-0.6,0.3c-0.3,0-0.5-0.1-0.6-0.3C16.9,195.2,16.9,195,16.9,194.8z"/>
	<path d="M20.1,190.4c0-1.9,0.3-3.3,0.9-4.3s1.5-1.5,2.7-1.5c2.3,0,3.4,1.8,3.4,5.5c0,1.8-0.3,3.2-1,4.1c-0.6,1-1.5,1.4-2.7,1.4
		c-1.1,0-1.9-0.5-2.5-1.4C20.4,193.4,20.1,192.1,20.1,190.4z M21.4,190.3c0,2.8,0.7,4.3,2.2,4.3c1.4,0,2.1-1.4,2.1-4.3
		c0-3-0.7-4.5-2.1-4.5S21.4,187.3,21.4,190.3z"/>
	<path d="M28.3,187.5c0-0.9,0.2-1.6,0.7-2.1s1.1-0.8,1.9-0.8s1.4,0.2,1.8,0.7s0.6,1.1,0.6,2c0,0.8-0.2,1.5-0.7,2s-1.1,0.8-1.9,0.8
		c-0.7,0-1.3-0.2-1.8-0.7C28.5,189,28.3,188.3,28.3,187.5z M29.4,187.4c0,0.6,0.1,1.1,0.4,1.4c0.3,0.3,0.6,0.5,1.1,0.5
		s0.8-0.2,1.1-0.5c0.3-0.3,0.4-0.8,0.4-1.4c0-0.6-0.1-1.1-0.4-1.4c-0.2-0.3-0.6-0.5-1-0.5c-0.5,0-0.8,0.2-1.1,0.5
		C29.5,186.4,29.4,186.8,29.4,187.4z M38,184.8l-6.9,10.8H30l6.9-10.8H38z M34.7,193c0-0.9,0.2-1.6,0.7-2.1s1.1-0.8,1.9-0.8
		c0.8,0,1.3,0.2,1.8,0.7c0.4,0.5,0.6,1.1,0.6,2c0,0.8-0.2,1.5-0.7,2s-1.1,0.8-1.9,0.8c-0.7,0-1.3-0.2-1.8-0.7
		C34.9,194.4,34.7,193.8,34.7,193z M35.8,192.9c0,0.6,0.1,1,0.4,1.4c0.3,0.3,0.6,0.5,1.1,0.5s0.8-0.2,1.1-0.5s0.4-0.8,0.4-1.4
		c0-0.6-0.1-1.1-0.4-1.4c-0.3-0.3-0.6-0.5-1-0.5c-0.5,0-0.8,0.2-1.1,0.5C35.9,191.9,35.8,192.3,35.8,192.9z"/>
</g>
<g id="_4.0_" class="st0">
	<path d="M14.2,157.2v7.1h1.6v1.1h-1.6v2.5h-1.3v-2.5h-5v-1.1c0.9-1,1.8-2.1,2.7-3.4c0.9-1.3,1.6-2.5,2.2-3.7L14.2,157.2L14.2,157.2
		z M9.4,164.3h3.5v-5.1c-0.5,0.9-1,1.7-1.5,2.5C10.8,162.5,10.1,163.3,9.4,164.3z"/>
	<path d="M16.9,167.2c0-0.2,0.1-0.5,0.3-0.6c0.2-0.2,0.4-0.3,0.6-0.3c0.3,0,0.5,0.1,0.6,0.3c0.2,0.2,0.3,0.4,0.3,0.6
		c0,0.2-0.1,0.4-0.3,0.6c-0.2,0.2-0.4,0.3-0.6,0.3c-0.3,0-0.5-0.1-0.6-0.3C16.9,167.6,16.9,167.4,16.9,167.2z"/>
	<path d="M20.1,162.8c0-1.9,0.3-3.3,0.9-4.3s1.5-1.5,2.7-1.5c2.3,0,3.4,1.8,3.4,5.5c0,1.8-0.3,3.2-1,4.1c-0.6,1-1.5,1.4-2.7,1.4
		c-1.1,0-1.9-0.5-2.5-1.4C20.4,165.8,20.1,164.5,20.1,162.8z M21.4,162.7c0,2.8,0.7,4.3,2.2,4.3c1.4,0,2.1-1.4,2.1-4.3
		c0-3-0.7-4.5-2.1-4.5S21.4,159.7,21.4,162.7z"/>
	<path d="M28.3,159.9c0-0.9,0.2-1.6,0.7-2.1s1.1-0.8,1.9-0.8s1.4,0.2,1.8,0.7s0.6,1.1,0.6,2c0,0.8-0.2,1.5-0.7,2s-1.1,0.8-1.9,0.8
		c-0.7,0-1.3-0.2-1.8-0.7C28.5,161.4,28.3,160.7,28.3,159.9z M29.4,159.8c0,0.6,0.1,1.1,0.4,1.4c0.3,0.3,0.6,0.5,1.1,0.5
		s0.8-0.2,1.1-0.5c0.3-0.3,0.4-0.8,0.4-1.4c0-0.6-0.1-1.1-0.4-1.4c-0.2-0.3-0.6-0.5-1-0.5c-0.5,0-0.8,0.2-1.1,0.5
		C29.5,158.8,29.4,159.2,29.4,159.8z M38,157.2L31.1,168H30l6.9-10.8H38z M34.7,165.4c0-0.9,0.2-1.6,0.7-2.1s1.1-0.8,1.9-0.8
		c0.8,0,1.3,0.2,1.8,0.7c0.4,0.5,0.6,1.1,0.6,2c0,0.8-0.2,1.5-0.7,2s-1.1,0.8-1.9,0.8c-0.7,0-1.3-0.2-1.8-0.7
		C34.9,166.8,34.7,166.2,34.7,165.4z M35.8,165.3c0,0.6,0.1,1,0.4,1.4c0.3,0.3,0.6,0.5,1.1,0.5s0.8-0.2,1.1-0.5s0.4-0.8,0.4-1.4
		c0-0.6-0.1-1.1-0.4-1.4c-0.3-0.3-0.6-0.5-1-0.5c-0.5,0-0.8,0.2-1.1,0.5C35.9,164.3,35.8,164.7,35.8,165.3z"/>
</g>
<g id="_6.0_" class="st0">
	<path d="M14.8,128.4c-0.6-0.3-1.1-0.4-1.7-0.4c-0.9,0-1.7,0.4-2.2,1.2c-0.6,0.8-0.8,1.9-0.9,3.3l0,0c0.5-1,1.3-1.5,2.4-1.5
		c0.9,0,1.7,0.3,2.2,0.9s0.8,1.4,0.8,2.4s-0.3,1.9-1,2.6c-0.6,0.7-1.4,1-2.4,1c-1.1,0-1.9-0.4-2.6-1.3c-0.6-0.8-0.9-2.1-0.9-3.6
		c0-1.9,0.4-3.4,1.2-4.5c0.8-1.1,1.9-1.7,3.2-1.7c0.8,0,1.4,0.1,1.8,0.3L14.8,128.4L14.8,128.4z M10,134.2c0,0.7,0.2,1.3,0.6,1.8
		c0.4,0.5,0.9,0.8,1.5,0.8s1.1-0.2,1.4-0.6c0.4-0.4,0.6-1,0.6-1.7s-0.2-1.3-0.5-1.7s-0.8-0.6-1.5-0.6c-0.6,0-1.1,0.2-1.5,0.6
		C10.2,133.2,10,133.7,10,134.2z"/>
	<path d="M16.9,137c0-0.2,0.1-0.5,0.3-0.6c0.2-0.2,0.4-0.3,0.6-0.3c0.3,0,0.5,0.1,0.6,0.3c0.2,0.2,0.3,0.4,0.3,0.6
		c0,0.2-0.1,0.4-0.3,0.6c-0.2,0.2-0.4,0.3-0.6,0.3c-0.3,0-0.5-0.1-0.6-0.3C16.9,137.4,16.9,137.2,16.9,137z"/>
	<path d="M20.1,132.6c0-1.9,0.3-3.3,0.9-4.3s1.5-1.5,2.7-1.5c2.3,0,3.4,1.8,3.4,5.5c0,1.8-0.3,3.2-1,4.1c-0.6,1-1.5,1.4-2.7,1.4
		c-1.1,0-1.9-0.5-2.5-1.4C20.4,135.6,20.1,134.3,20.1,132.6z M21.4,132.5c0,2.8,0.7,4.3,2.2,4.3c1.4,0,2.1-1.4,2.1-4.3
		c0-3-0.7-4.5-2.1-4.5S21.4,129.5,21.4,132.5z"/>
	<path d="M28.3,129.7c0-0.9,0.2-1.6,0.7-2.1c0.5-0.5,1.1-0.8,1.9-0.8s1.4,0.2,1.8,0.7s0.6,1.1,0.6,2c0,0.8-0.2,1.5-0.7,2
		s-1.1,0.8-1.9,0.8c-0.7,0-1.3-0.2-1.8-0.7C28.5,131.2,28.3,130.5,28.3,129.7z M29.4,129.7c0,0.6,0.1,1.1,0.4,1.4
		c0.3,0.3,0.6,0.5,1.1,0.5s0.8-0.2,1.1-0.5c0.3-0.3,0.4-0.8,0.4-1.4c0-0.6-0.1-1.1-0.4-1.4c-0.2-0.3-0.6-0.5-1-0.5
		c-0.5,0-0.8,0.2-1.1,0.5C29.5,128.6,29.4,129.1,29.4,129.7z M38,127l-6.9,10.8H30l6.9-10.8H38z M34.7,135.2c0-0.9,0.2-1.6,0.7-2.1
		s1.1-0.8,1.9-0.8c0.8,0,1.3,0.2,1.8,0.7c0.4,0.5,0.6,1.1,0.6,2c0,0.8-0.2,1.5-0.7,2s-1.1,0.8-1.9,0.8c-0.7,0-1.3-0.2-1.8-0.7
		C34.9,136.6,34.7,136,34.7,135.2z M35.8,135.1c0,0.6,0.1,1,0.4,1.4c0.3,0.3,0.6,0.5,1.1,0.5s0.8-0.2,1.1-0.5s0.4-0.8,0.4-1.4
		c0-0.6-0.1-1.1-0.4-1.4c-0.3-0.3-0.6-0.5-1-0.5c-0.5,0-0.8,0.2-1.1,0.5C35.9,134.1,35.8,134.5,35.8,135.1z"/>
</g>
<g id="_8.0_" class="st0">
	<path d="M8.4,102c0-0.6,0.2-1.2,0.6-1.7c0.4-0.5,0.8-0.9,1.4-1.1c-0.5-0.3-0.8-0.6-1.1-1s-0.4-0.9-0.4-1.3c0-0.5,0.1-1,0.4-1.4
		c0.3-0.4,0.6-0.7,1.1-1c0.5-0.2,1-0.4,1.5-0.4c0.6,0,1.1,0.1,1.5,0.4c0.5,0.2,0.8,0.6,1.1,1s0.4,0.9,0.4,1.4s-0.1,0.9-0.4,1.3
		c-0.3,0.4-0.6,0.8-1.1,1c0.6,0.2,1.1,0.6,1.4,1.1c0.4,0.5,0.5,1.1,0.5,1.7s-0.1,1.2-0.4,1.6c-0.3,0.5-0.7,0.9-1.2,1.1
		c-0.5,0.3-1.1,0.4-1.8,0.4s-1.3-0.1-1.8-0.4s-0.9-0.6-1.2-1.1C8.6,103.1,8.4,102.6,8.4,102z M9.8,101.9c0,0.6,0.2,1.1,0.6,1.5
		c0.4,0.4,0.9,0.6,1.6,0.6c0.6,0,1.2-0.2,1.6-0.6c0.4-0.4,0.6-0.9,0.6-1.5s-0.2-1.1-0.6-1.5c-0.4-0.4-0.9-0.6-1.5-0.6
		s-1.1,0.2-1.5,0.6C10,100.8,9.8,101.3,9.8,101.9z M10.1,96.9c0,0.5,0.2,0.9,0.5,1.2c0.3,0.3,0.8,0.5,1.2,0.5c0.5,0,0.9-0.2,1.3-0.5
		s0.5-0.8,0.5-1.2c0-0.5-0.2-0.9-0.5-1.2s-0.8-0.5-1.3-0.5s-0.9,0.2-1.3,0.5C10.3,96,10.1,96.5,10.1,96.9z"/>
	<path d="M16.9,104.3c0-0.2,0.1-0.5,0.3-0.6c0.2-0.2,0.4-0.3,0.6-0.3c0.3,0,0.5,0.1,0.6,0.3c0.2,0.2,0.3,0.4,0.3,0.6
		s-0.1,0.4-0.3,0.6c-0.2,0.2-0.4,0.3-0.6,0.3c-0.3,0-0.5-0.1-0.6-0.3C16.9,104.7,16.9,104.5,16.9,104.3z"/>
	<path d="M20.1,99.8c0-1.9,0.3-3.3,0.9-4.3s1.5-1.5,2.7-1.5c2.3,0,3.4,1.8,3.4,5.5c0,1.8-0.3,3.2-1,4.1c-0.6,1-1.5,1.4-2.7,1.4
		c-1.1,0-1.9-0.5-2.5-1.4C20.4,102.9,20.1,101.6,20.1,99.8z M21.4,99.8c0,2.8,0.7,4.3,2.2,4.3c1.4,0,2.1-1.4,2.1-4.3
		c0-3-0.7-4.5-2.1-4.5C22.2,95.2,21.4,96.7,21.4,99.8z"/>
	<path d="M28.3,97c0-0.9,0.2-1.6,0.7-2.1s1.1-0.8,1.9-0.8s1.4,0.2,1.8,0.7s0.6,1.1,0.6,2c0,0.8-0.2,1.5-0.7,2s-1.1,0.8-1.9,0.8
		c-0.7,0-1.3-0.2-1.8-0.7C28.5,98.4,28.3,97.8,28.3,97z M29.4,96.9c0,0.6,0.1,1.1,0.4,1.4s0.6,0.5,1.1,0.5s0.8-0.2,1.1-0.5
		c0.3-0.3,0.4-0.8,0.4-1.4s-0.1-1.1-0.4-1.4c-0.2-0.3-0.6-0.5-1-0.5c-0.5,0-0.8,0.2-1.1,0.5C29.5,95.8,29.4,96.3,29.4,96.9z
		 M38,94.3L31.1,105H30l6.9-10.8H38V94.3z M34.7,102.5c0-0.9,0.2-1.6,0.7-2.1s1.1-0.8,1.9-0.8c0.8,0,1.3,0.2,1.8,0.7
		c0.4,0.5,0.6,1.1,0.6,2c0,0.8-0.2,1.5-0.7,2s-1.1,0.8-1.9,0.8c-0.7,0-1.3-0.2-1.8-0.7C34.9,103.9,34.7,103.3,34.7,102.5z
		 M35.8,102.4c0,0.6,0.1,1,0.4,1.4c0.3,0.3,0.6,0.5,1.1,0.5s0.8-0.2,1.1-0.5s0.4-0.8,0.4-1.4s-0.1-1.1-0.4-1.4
		c-0.3-0.3-0.6-0.5-1-0.5c-0.5,0-0.8,0.2-1.1,0.5C35.9,101.3,35.8,101.8,35.8,102.4z"/>
</g>
<g id="_10.0_" class="st0">
	<path d="M4.3,72.2v-9.1c-0.2,0.2-0.6,0.4-1.1,0.7s-1,0.4-1.4,0.6V63c0.6-0.2,1.2-0.4,1.8-0.7s1.1-0.7,1.5-1h0.5v10.9H4.3z"/>
	<path d="M9.3,67.1c0-1.9,0.3-3.3,0.9-4.3c0.6-1,1.5-1.5,2.7-1.5c2.3,0,3.4,1.8,3.4,5.5c0,1.8-0.3,3.2-1,4.1c-0.6,1-1.5,1.4-2.7,1.4
		c-1.1,0-1.9-0.5-2.5-1.4C9.6,70.1,9.3,68.8,9.3,67.1z M10.7,67c0,2.8,0.7,4.3,2.2,4.3c1.4,0,2.1-1.4,2.1-4.3c0-3-0.7-4.5-2.1-4.5
		C11.4,62.5,10.7,64,10.7,67z"/>
	<path d="M17.8,71.5c0-0.2,0.1-0.5,0.3-0.6c0.2-0.2,0.4-0.3,0.6-0.3c0.3,0,0.5,0.1,0.6,0.3c0.2,0.2,0.3,0.4,0.3,0.6
		s-0.1,0.4-0.3,0.6c-0.2,0.2-0.4,0.3-0.6,0.3c-0.3,0-0.5-0.1-0.6-0.3C17.9,72,17.8,71.8,17.8,71.5z"/>
	<path d="M21,67.1c0-1.9,0.3-3.3,0.9-4.3s1.5-1.5,2.7-1.5c2.3,0,3.4,1.8,3.4,5.5c0,1.8-0.3,3.2-1,4.1c-0.6,1-1.5,1.4-2.7,1.4
		c-1.1,0-1.9-0.5-2.5-1.4C21.3,70.1,21,68.8,21,67.1z M22.4,67c0,2.8,0.7,4.3,2.2,4.3c1.4,0,2.1-1.4,2.1-4.3c0-3-0.7-4.5-2.1-4.5
		C23.1,62.5,22.4,64,22.4,67z"/>
	<path d="M29.3,64.2c0-0.9,0.2-1.6,0.7-2.1s1.1-0.8,1.9-0.8c0.8,0,1.4,0.2,1.8,0.7s0.6,1.1,0.6,2c0,0.8-0.2,1.5-0.7,2
		s-1.1,0.8-1.9,0.8c-0.7,0-1.3-0.2-1.8-0.7C29.5,65.7,29.3,65,29.3,64.2z M30.3,64.2c0,0.6,0.1,1.1,0.4,1.4s0.6,0.5,1.1,0.5
		s0.8-0.2,1.1-0.5s0.4-0.8,0.4-1.4s-0.1-1.1-0.4-1.4c-0.2-0.3-0.6-0.5-1-0.5c-0.5,0-0.8,0.2-1.1,0.5C30.5,63.1,30.3,63.6,30.3,64.2z
		 M38.9,61.5L32,72.3h-1.2l6.9-10.8C37.7,61.5,38.9,61.5,38.9,61.5z M35.7,69.7c0-0.9,0.2-1.6,0.7-2.1s1.1-0.8,1.9-0.8
		c0.8,0,1.3,0.2,1.8,0.7c0.4,0.5,0.6,1.1,0.6,2c0,0.8-0.2,1.5-0.7,2s-1.1,0.8-1.9,0.8c-0.7,0-1.3-0.2-1.8-0.7
		C35.9,71.2,35.7,70.5,35.7,69.7z M36.7,69.7c0,0.6,0.1,1,0.4,1.4c0.3,0.3,0.6,0.5,1.1,0.5s0.8-0.2,1.1-0.5s0.4-0.8,0.4-1.4
		s-0.1-1.1-0.4-1.4c-0.3-0.3-0.6-0.5-1-0.5c-0.5,0-0.8,0.2-1.1,0.5C36.8,68.6,36.7,69.1,36.7,69.7z"/>
</g>
<g id="_12.0_" class="st0">
	<path d="M4.3,41.4v-9.1c-0.2,0.2-0.6,0.4-1.1,0.7s-1,0.4-1.4,0.6v-1.3c0.6-0.2,1.2-0.4,1.8-0.7c0.6-0.3,1.1-0.7,1.5-1h0.5v10.9
		L4.3,41.4L4.3,41.4z"/>
	<path d="M14.6,33.5c0-0.6-0.2-1-0.5-1.4c-0.4-0.3-0.9-0.5-1.5-0.5c-0.4,0-0.9,0.1-1.3,0.3c-0.5,0.2-0.9,0.5-1.3,1v-1.3
		c0.3-0.4,0.7-0.6,1.2-0.8c0.4-0.2,1-0.3,1.6-0.3c1,0,1.7,0.3,2.3,0.8s0.9,1.2,0.9,2.1c0,0.8-0.2,1.5-0.5,2c-0.4,0.6-1,1.2-1.9,1.8
		s-1.5,1.1-1.8,1.3c-0.3,0.3-0.5,0.5-0.6,0.8c-0.1,0.2-0.2,0.5-0.2,0.9h5.3v1.2H9.5v-0.5c0-0.6,0.1-1.1,0.3-1.6
		c0.2-0.4,0.4-0.8,0.8-1.3c0.4-0.4,1-0.9,1.8-1.5s1.4-1.1,1.7-1.5C14.4,34.6,14.6,34.1,14.6,33.5z"/>
	<path d="M17.8,40.7c0-0.2,0.1-0.5,0.3-0.6c0.2-0.2,0.4-0.3,0.6-0.3c0.3,0,0.5,0.1,0.6,0.3c0.2,0.2,0.3,0.4,0.3,0.6
		c0,0.2-0.1,0.4-0.3,0.6c-0.2,0.2-0.4,0.3-0.6,0.3c-0.3,0-0.5-0.1-0.6-0.3C17.9,41.1,17.8,40.9,17.8,40.7z"/>
	<path d="M21,36.3c0-1.9,0.3-3.3,0.9-4.3s1.5-1.5,2.7-1.5c2.3,0,3.4,1.8,3.4,5.5c0,1.8-0.3,3.2-1,4.1c-0.6,1-1.5,1.4-2.7,1.4
		c-1.1,0-1.9-0.5-2.5-1.4C21.3,39.3,21,38,21,36.3z M22.4,36.2c0,2.8,0.7,4.3,2.2,4.3c1.4,0,2.1-1.4,2.1-4.3c0-3-0.7-4.5-2.1-4.5
		C23.1,31.7,22.4,33.2,22.4,36.2z"/>
	<path d="M29.3,33.4c0-0.9,0.2-1.6,0.7-2.1s1.1-0.8,1.9-0.8c0.8,0,1.4,0.2,1.8,0.7s0.6,1.1,0.6,2c0,0.8-0.2,1.5-0.7,2
		S32.5,36,31.7,36c-0.7,0-1.3-0.2-1.8-0.7C29.5,34.9,29.3,34.2,29.3,33.4z M30.3,33.4c0,0.6,0.1,1.1,0.4,1.4
		c0.3,0.3,0.6,0.5,1.1,0.5s0.8-0.2,1.1-0.5s0.4-0.8,0.4-1.4c0-0.6-0.1-1.1-0.4-1.4c-0.2-0.3-0.6-0.5-1-0.5c-0.5,0-0.8,0.2-1.1,0.5
		C30.5,32.3,30.3,32.7,30.3,33.4z M38.9,30.7L32,41.5h-1.2l6.9-10.8H38.9z M35.7,38.9c0-0.9,0.2-1.6,0.7-2.1s1.1-0.8,1.9-0.8
		c0.8,0,1.3,0.2,1.8,0.7c0.4,0.5,0.6,1.1,0.6,2c0,0.8-0.2,1.5-0.7,2s-1.1,0.8-1.9,0.8c-0.7,0-1.3-0.2-1.8-0.7
		C35.9,40.3,35.7,39.7,35.7,38.9z M36.7,38.8c0,0.6,0.1,1,0.4,1.4c0.3,0.3,0.6,0.5,1.1,0.5s0.8-0.2,1.1-0.5s0.4-0.8,0.4-1.4
		c0-0.6-0.1-1.1-0.4-1.4c-0.3-0.3-0.6-0.5-1-0.5c-0.5,0-0.8,0.2-1.1,0.5C36.8,37.8,36.7,38.2,36.7,38.8z"/>
</g>
<g id="线">
	<rect id="矩形_863_拷贝_2" x="47.3" y="194.8" class="st1" width="136.1" height="1.3"/>
	<rect id="矩形_863_拷贝_3" x="47.3" y="162" class="st1" width="136.1" height="1.3"/>
	<rect id="矩形_863_拷贝_4" x="47.3" y="129.3" class="st1" width="136.1" height="1.3"/>
	<rect id="矩形_863_拷贝_5" x="47.3" y="97.2" class="st1" width="136.1" height="1.3"/>
	<rect id="矩形_863_拷贝_5-2" x="47.3" y="64.5" class="st1" width="136.1" height="1.3"/>
	<rect id="矩形_863_拷贝_5-3" x="47.3" y="31.7" class="st1" width="136.1" height="1.3"/>
	<rect id="矩形_863" x="47.3" y="29.8" class="st2" width="1.3" height="200.3"/>
</g>
<rect id="矩形_864" x="67.2" y="64.5" class="st3" width="29.5" height="164.4"/>
<rect id="矩形_864_拷贝" x="96.7" y="129.3" class="st4" width="29.5" height="99.5"/>
<rect id="矩形_864_拷贝_2" x="126.2" y="184.5" class="st5" width="29.5" height="44.3"/>
<rect id="矩形_863_拷贝" x="47.3" y="228.8" class="st2" width="136.1" height="1.3"/>
<g id="_2">
	<g id="_2.0_2" class="st0">
		<path d="M215.7,187.6c0-0.6-0.2-1-0.5-1.4c-0.4-0.3-0.9-0.5-1.5-0.5c-0.4,0-0.9,0.1-1.3,0.3c-0.5,0.2-0.9,0.5-1.3,1v-1.3
			c0.3-0.4,0.7-0.6,1.2-0.8c0.4-0.2,1-0.3,1.6-0.3c1,0,1.7,0.3,2.3,0.8s0.9,1.2,0.9,2.1c0,0.8-0.2,1.5-0.5,2c-0.4,0.6-1,1.2-1.9,1.8
			s-1.5,1.1-1.8,1.3c-0.3,0.3-0.5,0.5-0.6,0.8c-0.1,0.2-0.2,0.5-0.2,0.9h5.3v1.2h-6.7V195c0-0.6,0.1-1.1,0.3-1.6
			c0.2-0.4,0.4-0.8,0.8-1.3c0.4-0.4,1-0.9,1.8-1.5s1.4-1.1,1.7-1.5S215.7,188.2,215.7,187.6z"/>
		<path d="M219,194.8c0-0.2,0.1-0.5,0.3-0.6c0.2-0.2,0.4-0.3,0.6-0.3c0.3,0,0.5,0.1,0.6,0.3c0.2,0.2,0.3,0.4,0.3,0.6
			c0,0.2-0.1,0.4-0.3,0.6c-0.2,0.2-0.4,0.3-0.6,0.3c-0.3,0-0.5-0.1-0.6-0.3C219.1,195.2,219,195,219,194.8z"/>
		<path d="M222.2,190.4c0-1.9,0.3-3.3,0.9-4.3c0.6-1,1.5-1.5,2.7-1.5c2.3,0,3.4,1.8,3.4,5.5c0,1.8-0.3,3.2-1,4.1
			c-0.6,1-1.5,1.4-2.7,1.4c-1.1,0-1.9-0.5-2.5-1.4C222.5,193.4,222.2,192.1,222.2,190.4z M223.5,190.3c0,2.8,0.7,4.3,2.2,4.3
			c1.4,0,2.1-1.4,2.1-4.3c0-3-0.7-4.5-2.1-4.5C224.3,185.8,223.5,187.3,223.5,190.3z"/>
		<path d="M230.4,187.5c0-0.9,0.2-1.6,0.7-2.1s1.1-0.8,1.9-0.8c0.8,0,1.4,0.2,1.8,0.7c0.4,0.5,0.6,1.1,0.6,2c0,0.8-0.2,1.5-0.7,2
			s-1.1,0.8-1.9,0.8c-0.7,0-1.3-0.2-1.8-0.7C230.7,189,230.4,188.3,230.4,187.5z M231.5,187.4c0,0.6,0.1,1.1,0.4,1.4
			c0.3,0.3,0.6,0.5,1.1,0.5s0.8-0.2,1.1-0.5s0.4-0.8,0.4-1.4c0-0.6-0.1-1.1-0.4-1.4c-0.2-0.3-0.6-0.5-1-0.5c-0.5,0-0.8,0.2-1.1,0.5
			C231.6,186.4,231.5,186.8,231.5,187.4z M240.1,184.8l-6.9,10.8H232l6.9-10.8H240.1z M236.8,193c0-0.9,0.2-1.6,0.7-2.1
			s1.1-0.8,1.9-0.8c0.8,0,1.3,0.2,1.8,0.7c0.4,0.5,0.6,1.1,0.6,2c0,0.8-0.2,1.5-0.7,2s-1.1,0.8-1.9,0.8c-0.7,0-1.3-0.2-1.8-0.7
			C237.1,194.4,236.8,193.8,236.8,193z M237.9,192.9c0,0.6,0.1,1,0.4,1.4c0.3,0.3,0.6,0.5,1.1,0.5s0.8-0.2,1.1-0.5s0.4-0.8,0.4-1.4
			c0-0.6-0.1-1.1-0.4-1.4c-0.3-0.3-0.6-0.5-1-0.5c-0.5,0-0.8,0.2-1.1,0.5C238,191.9,237.9,192.3,237.9,192.9z"/>
	</g>
	<g id="_4.0_2" class="st0">
		<path d="M216.3,157.2v7.1h1.6v1.1h-1.6v2.5H215v-2.5h-5v-1.1c0.9-1,1.8-2.1,2.7-3.4c0.9-1.3,1.6-2.5,2.2-3.7L216.3,157.2
			L216.3,157.2z M211.5,164.3h3.5v-5.1c-0.5,0.9-1,1.7-1.5,2.5C212.9,162.5,212.2,163.3,211.5,164.3z"/>
		<path d="M219,167.2c0-0.2,0.1-0.5,0.3-0.6c0.2-0.2,0.4-0.3,0.6-0.3c0.3,0,0.5,0.1,0.6,0.3c0.2,0.2,0.3,0.4,0.3,0.6
			c0,0.2-0.1,0.4-0.3,0.6c-0.2,0.2-0.4,0.3-0.6,0.3c-0.3,0-0.5-0.1-0.6-0.3C219.1,167.6,219,167.4,219,167.2z"/>
		<path d="M222.2,162.8c0-1.9,0.3-3.3,0.9-4.3c0.6-1,1.5-1.5,2.7-1.5c2.3,0,3.4,1.8,3.4,5.5c0,1.8-0.3,3.2-1,4.1
			c-0.6,1-1.5,1.4-2.7,1.4c-1.1,0-1.9-0.5-2.5-1.4C222.5,165.8,222.2,164.5,222.2,162.8z M223.5,162.7c0,2.8,0.7,4.3,2.2,4.3
			c1.4,0,2.1-1.4,2.1-4.3c0-3-0.7-4.5-2.1-4.5C224.3,158.2,223.5,159.7,223.5,162.7z"/>
		<path d="M230.4,159.9c0-0.9,0.2-1.6,0.7-2.1s1.1-0.8,1.9-0.8c0.8,0,1.4,0.2,1.8,0.7c0.4,0.5,0.6,1.1,0.6,2c0,0.8-0.2,1.5-0.7,2
			s-1.1,0.8-1.9,0.8c-0.7,0-1.3-0.2-1.8-0.7C230.7,161.4,230.4,160.7,230.4,159.9z M231.5,159.8c0,0.6,0.1,1.1,0.4,1.4
			c0.3,0.3,0.6,0.5,1.1,0.5s0.8-0.2,1.1-0.5s0.4-0.8,0.4-1.4c0-0.6-0.1-1.1-0.4-1.4c-0.2-0.3-0.6-0.5-1-0.5c-0.5,0-0.8,0.2-1.1,0.5
			C231.6,158.8,231.5,159.2,231.5,159.8z M240.1,157.2l-6.9,10.8H232l6.9-10.8H240.1z M236.8,165.4c0-0.9,0.2-1.6,0.7-2.1
			s1.1-0.8,1.9-0.8c0.8,0,1.3,0.2,1.8,0.7c0.4,0.5,0.6,1.1,0.6,2c0,0.8-0.2,1.5-0.7,2s-1.1,0.8-1.9,0.8c-0.7,0-1.3-0.2-1.8-0.7
			C237.1,166.8,236.8,166.2,236.8,165.4z M237.9,165.3c0,0.6,0.1,1,0.4,1.4c0.3,0.3,0.6,0.5,1.1,0.5s0.8-0.2,1.1-0.5
			s0.4-0.8,0.4-1.4c0-0.6-0.1-1.1-0.4-1.4c-0.3-0.3-0.6-0.5-1-0.5c-0.5,0-0.8,0.2-1.1,0.5C238,164.3,237.9,164.7,237.9,165.3z"/>
	</g>
	<g id="_6.0_2" class="st0">
		<path d="M216.9,128.4c-0.6-0.3-1.1-0.4-1.7-0.4c-0.9,0-1.7,0.4-2.2,1.2c-0.6,0.8-0.8,1.9-0.9,3.3l0,0c0.5-1,1.3-1.5,2.4-1.5
			c0.9,0,1.7,0.3,2.2,0.9s0.8,1.4,0.8,2.4s-0.3,1.9-1,2.6c-0.6,0.7-1.4,1-2.4,1c-1.1,0-1.9-0.4-2.6-1.3c-0.6-0.8-0.9-2.1-0.9-3.6
			c0-1.9,0.4-3.4,1.2-4.5c0.8-1.1,1.9-1.7,3.2-1.7c0.8,0,1.4,0.1,1.8,0.3L216.9,128.4L216.9,128.4z M212.1,134.2
			c0,0.7,0.2,1.3,0.6,1.8c0.4,0.5,0.9,0.8,1.5,0.8s1.1-0.2,1.4-0.6c0.4-0.4,0.6-1,0.6-1.7s-0.2-1.3-0.5-1.7s-0.8-0.6-1.5-0.6
			c-0.6,0-1.1,0.2-1.5,0.6C212.3,133.2,212.1,133.7,212.1,134.2z"/>
		<path d="M219,137c0-0.2,0.1-0.5,0.3-0.6c0.2-0.2,0.4-0.3,0.6-0.3c0.3,0,0.5,0.1,0.6,0.3c0.2,0.2,0.3,0.4,0.3,0.6
			c0,0.2-0.1,0.4-0.3,0.6c-0.2,0.2-0.4,0.3-0.6,0.3c-0.3,0-0.5-0.1-0.6-0.3C219.1,137.4,219,137.2,219,137z"/>
		<path d="M222.2,132.6c0-1.9,0.3-3.3,0.9-4.3c0.6-1,1.5-1.5,2.7-1.5c2.3,0,3.4,1.8,3.4,5.5c0,1.8-0.3,3.2-1,4.1
			c-0.6,1-1.5,1.4-2.7,1.4c-1.1,0-1.9-0.5-2.5-1.4C222.5,135.6,222.2,134.3,222.2,132.6z M223.5,132.5c0,2.8,0.7,4.3,2.2,4.3
			c1.4,0,2.1-1.4,2.1-4.3c0-3-0.7-4.5-2.1-4.5C224.3,128,223.5,129.5,223.5,132.5z"/>
		<path d="M230.4,129.7c0-0.9,0.2-1.6,0.7-2.1c0.5-0.5,1.1-0.8,1.9-0.8c0.8,0,1.4,0.2,1.8,0.7c0.4,0.5,0.6,1.1,0.6,2
			c0,0.8-0.2,1.5-0.7,2s-1.1,0.8-1.9,0.8c-0.7,0-1.3-0.2-1.8-0.7C230.7,131.2,230.4,130.5,230.4,129.7z M231.5,129.7
			c0,0.6,0.1,1.1,0.4,1.4c0.3,0.3,0.6,0.5,1.1,0.5s0.8-0.2,1.1-0.5s0.4-0.8,0.4-1.4c0-0.6-0.1-1.1-0.4-1.4c-0.2-0.3-0.6-0.5-1-0.5
			c-0.5,0-0.8,0.2-1.1,0.5C231.6,128.6,231.5,129.1,231.5,129.7z M240.1,127l-6.9,10.8H232l6.9-10.8H240.1z M236.8,135.2
			c0-0.9,0.2-1.6,0.7-2.1s1.1-0.8,1.9-0.8c0.8,0,1.3,0.2,1.8,0.7c0.4,0.5,0.6,1.1,0.6,2c0,0.8-0.2,1.5-0.7,2s-1.1,0.8-1.9,0.8
			c-0.7,0-1.3-0.2-1.8-0.7C237.1,136.6,236.8,136,236.8,135.2z M237.9,135.1c0,0.6,0.1,1,0.4,1.4c0.3,0.3,0.6,0.5,1.1,0.5
			s0.8-0.2,1.1-0.5s0.4-0.8,0.4-1.4c0-0.6-0.1-1.1-0.4-1.4c-0.3-0.3-0.6-0.5-1-0.5c-0.5,0-0.8,0.2-1.1,0.5
			C238,134.1,237.9,134.5,237.9,135.1z"/>
	</g>
	<g id="_8.0_2" class="st0">
		<path d="M210.5,102c0-0.6,0.2-1.2,0.6-1.7c0.4-0.5,0.8-0.9,1.4-1.1c-0.5-0.3-0.8-0.6-1.1-1s-0.4-0.9-0.4-1.3c0-0.5,0.1-1,0.4-1.4
			c0.3-0.4,0.6-0.7,1.1-1s1-0.4,1.5-0.4c0.6,0,1.1,0.1,1.5,0.4c0.5,0.2,0.8,0.6,1.1,1s0.4,0.9,0.4,1.4s-0.1,0.9-0.4,1.3
			c-0.3,0.4-0.6,0.8-1.1,1c0.6,0.2,1.1,0.6,1.4,1.1c0.4,0.5,0.5,1.1,0.5,1.7s-0.1,1.2-0.4,1.6c-0.3,0.5-0.7,0.9-1.2,1.1
			c-0.5,0.3-1.1,0.4-1.8,0.4s-1.3-0.1-1.8-0.4s-0.9-0.6-1.2-1.1S210.5,102.6,210.5,102z M211.9,101.9c0,0.6,0.2,1.1,0.6,1.5
			c0.4,0.4,0.9,0.6,1.6,0.6c0.6,0,1.2-0.2,1.6-0.6c0.4-0.4,0.6-0.9,0.6-1.5s-0.2-1.1-0.6-1.5c-0.4-0.4-0.9-0.6-1.5-0.6
			s-1.1,0.2-1.5,0.6C212.1,100.8,211.9,101.3,211.9,101.9z M212.3,96.9c0,0.5,0.2,0.9,0.5,1.2c0.3,0.3,0.8,0.5,1.2,0.5
			c0.5,0,0.9-0.2,1.3-0.5s0.5-0.8,0.5-1.2c0-0.5-0.2-0.9-0.5-1.2s-0.8-0.5-1.3-0.5s-0.9,0.2-1.3,0.5C212.4,96,212.3,96.5,212.3,96.9
			z"/>
		<path d="M219,104.3c0-0.2,0.1-0.5,0.3-0.6c0.2-0.2,0.4-0.3,0.6-0.3c0.3,0,0.5,0.1,0.6,0.3c0.2,0.2,0.3,0.4,0.3,0.6
			s-0.1,0.4-0.3,0.6s-0.4,0.3-0.6,0.3c-0.3,0-0.5-0.1-0.6-0.3C219.1,104.7,219,104.5,219,104.3z"/>
		<path d="M222.2,99.8c0-1.9,0.3-3.3,0.9-4.3c0.6-1,1.5-1.5,2.7-1.5c2.3,0,3.4,1.8,3.4,5.5c0,1.8-0.3,3.2-1,4.1
			c-0.6,1-1.5,1.4-2.7,1.4c-1.1,0-1.9-0.5-2.5-1.4C222.5,102.9,222.2,101.6,222.2,99.8z M223.5,99.8c0,2.8,0.7,4.3,2.2,4.3
			c1.4,0,2.1-1.4,2.1-4.3c0-3-0.7-4.5-2.1-4.5C224.3,95.2,223.5,96.7,223.5,99.8z"/>
		<path d="M230.4,97c0-0.9,0.2-1.6,0.7-2.1s1.1-0.8,1.9-0.8c0.8,0,1.4,0.2,1.8,0.7c0.4,0.5,0.6,1.1,0.6,2c0,0.8-0.2,1.5-0.7,2
			s-1.1,0.8-1.9,0.8c-0.7,0-1.3-0.2-1.8-0.7S230.4,97.8,230.4,97z M231.5,96.9c0,0.6,0.1,1.1,0.4,1.4c0.3,0.3,0.6,0.5,1.1,0.5
			s0.8-0.2,1.1-0.5s0.4-0.8,0.4-1.4s-0.1-1.1-0.4-1.4c-0.2-0.3-0.6-0.5-1-0.5c-0.5,0-0.8,0.2-1.1,0.5
			C231.6,95.8,231.5,96.3,231.5,96.9z M240.1,94.3l-6.9,10.8H232l6.9-10.8H240.1z M236.8,102.5c0-0.9,0.2-1.6,0.7-2.1
			s1.1-0.8,1.9-0.8c0.8,0,1.3,0.2,1.8,0.7c0.4,0.5,0.6,1.1,0.6,2c0,0.8-0.2,1.5-0.7,2s-1.1,0.8-1.9,0.8c-0.7,0-1.3-0.2-1.8-0.7
			C237.1,103.9,236.8,103.3,236.8,102.5z M237.9,102.4c0,0.6,0.1,1,0.4,1.4c0.3,0.3,0.6,0.5,1.1,0.5s0.8-0.2,1.1-0.5
			s0.4-0.8,0.4-1.4s-0.1-1.1-0.4-1.4c-0.3-0.3-0.6-0.5-1-0.5c-0.5,0-0.8,0.2-1.1,0.5C238,101.3,237.9,101.8,237.9,102.4z"/>
	</g>
	<g id="_10.0_2" class="st0">
		<path d="M206.4,72.2v-9.1c-0.2,0.2-0.6,0.4-1.1,0.7s-1,0.4-1.4,0.6V63c0.6-0.2,1.2-0.4,1.8-0.7s1.1-0.7,1.5-1h0.5v10.9H206.4z"/>
		<path d="M211.4,67.1c0-1.9,0.3-3.3,0.9-4.3c0.6-1,1.5-1.5,2.7-1.5c2.3,0,3.4,1.8,3.4,5.5c0,1.8-0.3,3.2-1,4.1
			c-0.6,1-1.5,1.4-2.7,1.4c-1.1,0-1.9-0.5-2.5-1.4C211.7,70.1,211.4,68.8,211.4,67.1z M212.8,67c0,2.8,0.7,4.3,2.2,4.3
			c1.4,0,2.1-1.4,2.1-4.3c0-3-0.7-4.5-2.1-4.5C213.5,62.5,212.8,64,212.8,67z"/>
		<path d="M219.9,71.5c0-0.2,0.1-0.5,0.3-0.6c0.2-0.2,0.4-0.3,0.6-0.3c0.3,0,0.5,0.1,0.6,0.3c0.2,0.2,0.3,0.4,0.3,0.6
			s-0.1,0.4-0.3,0.6s-0.4,0.3-0.6,0.3c-0.3,0-0.5-0.1-0.6-0.3C220,72,219.9,71.8,219.9,71.5z"/>
		<path d="M223.1,67.1c0-1.9,0.3-3.3,0.9-4.3c0.6-1,1.5-1.5,2.7-1.5c2.3,0,3.4,1.8,3.4,5.5c0,1.8-0.3,3.2-1,4.1
			c-0.6,1-1.5,1.4-2.7,1.4c-1.1,0-1.9-0.5-2.5-1.4S223.1,68.8,223.1,67.1z M224.5,67c0,2.8,0.7,4.3,2.2,4.3c1.4,0,2.1-1.4,2.1-4.3
			c0-3-0.7-4.5-2.1-4.5C225.2,62.5,224.5,64,224.5,67z"/>
		<path d="M231.4,64.2c0-0.9,0.2-1.6,0.7-2.1s1.1-0.8,1.9-0.8c0.8,0,1.4,0.2,1.8,0.7c0.4,0.5,0.6,1.1,0.6,2c0,0.8-0.2,1.5-0.7,2
			s-1.1,0.8-1.9,0.8c-0.7,0-1.3-0.2-1.8-0.7C231.6,65.7,231.4,65,231.4,64.2z M232.4,64.2c0,0.6,0.1,1.1,0.4,1.4
			c0.3,0.3,0.6,0.5,1.1,0.5s0.8-0.2,1.1-0.5s0.4-0.8,0.4-1.4s-0.1-1.1-0.4-1.4c-0.2-0.3-0.6-0.5-1-0.5c-0.5,0-0.8,0.2-1.1,0.5
			C232.6,63.1,232.4,63.6,232.4,64.2z M241,61.5l-6.9,10.8H233l6.9-10.8C239.9,61.5,241,61.5,241,61.5z M237.8,69.7
			c0-0.9,0.2-1.6,0.7-2.1s1.1-0.8,1.9-0.8c0.8,0,1.3,0.2,1.8,0.7c0.4,0.5,0.6,1.1,0.6,2c0,0.8-0.2,1.5-0.7,2s-1.1,0.8-1.9,0.8
			c-0.7,0-1.3-0.2-1.8-0.7C238,71.2,237.8,70.5,237.8,69.7z M238.8,69.7c0,0.6,0.1,1,0.4,1.4c0.3,0.3,0.6,0.5,1.1,0.5
			s0.8-0.2,1.1-0.5s0.4-0.8,0.4-1.4s-0.1-1.1-0.4-1.4c-0.3-0.3-0.6-0.5-1-0.5c-0.5,0-0.8,0.2-1.1,0.5
			C238.9,68.6,238.8,69.1,238.8,69.7z"/>
	</g>
	<g id="_12.0_2" class="st0">
		<path d="M206.4,41.4v-9.1c-0.2,0.2-0.6,0.4-1.1,0.7s-1,0.4-1.4,0.6v-1.3c0.6-0.2,1.2-0.4,1.8-0.7c0.6-0.3,1.1-0.7,1.5-1h0.5v10.9
			L206.4,41.4L206.4,41.4z"/>
		<path d="M216.7,33.5c0-0.6-0.2-1-0.5-1.4c-0.4-0.3-0.9-0.5-1.5-0.5c-0.4,0-0.9,0.1-1.3,0.3c-0.5,0.2-0.9,0.5-1.3,1v-1.3
			c0.3-0.4,0.7-0.6,1.2-0.8c0.4-0.2,1-0.3,1.6-0.3c1,0,1.7,0.3,2.3,0.8s0.9,1.2,0.9,2.1c0,0.8-0.2,1.5-0.5,2c-0.4,0.6-1,1.2-1.9,1.8
			s-1.5,1.1-1.8,1.3s-0.5,0.5-0.6,0.8c-0.1,0.2-0.2,0.5-0.2,0.9h5.3v1.2h-6.7v-0.5c0-0.6,0.1-1.1,0.3-1.6c0.2-0.4,0.4-0.8,0.8-1.3
			c0.4-0.4,1-0.9,1.8-1.5s1.4-1.1,1.7-1.5C216.5,34.6,216.7,34.1,216.7,33.5z"/>
		<path d="M219.9,40.7c0-0.2,0.1-0.5,0.3-0.6c0.2-0.2,0.4-0.3,0.6-0.3c0.3,0,0.5,0.1,0.6,0.3c0.2,0.2,0.3,0.4,0.3,0.6
			c0,0.2-0.1,0.4-0.3,0.6c-0.2,0.2-0.4,0.3-0.6,0.3c-0.3,0-0.5-0.1-0.6-0.3C220,41.1,219.9,40.9,219.9,40.7z"/>
		<path d="M223.1,36.3c0-1.9,0.3-3.3,0.9-4.3c0.6-1,1.5-1.5,2.7-1.5c2.3,0,3.4,1.8,3.4,5.5c0,1.8-0.3,3.2-1,4.1
			c-0.6,1-1.5,1.4-2.7,1.4c-1.1,0-1.9-0.5-2.5-1.4S223.1,38,223.1,36.3z M224.5,36.2c0,2.8,0.7,4.3,2.2,4.3c1.4,0,2.1-1.4,2.1-4.3
			c0-3-0.7-4.5-2.1-4.5C225.2,31.7,224.5,33.2,224.5,36.2z"/>
		<path d="M231.4,33.4c0-0.9,0.2-1.6,0.7-2.1s1.1-0.8,1.9-0.8c0.8,0,1.4,0.2,1.8,0.7c0.4,0.5,0.6,1.1,0.6,2c0,0.8-0.2,1.5-0.7,2
			s-1.1,0.8-1.9,0.8c-0.7,0-1.3-0.2-1.8-0.7C231.6,34.9,231.4,34.2,231.4,33.4z M232.4,33.4c0,0.6,0.1,1.1,0.4,1.4
			c0.3,0.3,0.6,0.5,1.1,0.5s0.8-0.2,1.1-0.5s0.4-0.8,0.4-1.4c0-0.6-0.1-1.1-0.4-1.4c-0.2-0.3-0.6-0.5-1-0.5c-0.5,0-0.8,0.2-1.1,0.5
			C232.6,32.3,232.4,32.7,232.4,33.4z M241,30.7l-6.9,10.8H233l6.9-10.8H241z M237.8,38.9c0-0.9,0.2-1.6,0.7-2.1s1.1-0.8,1.9-0.8
			c0.8,0,1.3,0.2,1.8,0.7c0.4,0.5,0.6,1.1,0.6,2c0,0.8-0.2,1.5-0.7,2s-1.1,0.8-1.9,0.8c-0.7,0-1.3-0.2-1.8-0.7
			C238,40.3,237.8,39.7,237.8,38.9z M238.8,38.8c0,0.6,0.1,1,0.4,1.4c0.3,0.3,0.6,0.5,1.1,0.5s0.8-0.2,1.1-0.5s0.4-0.8,0.4-1.4
			c0-0.6-0.1-1.1-0.4-1.4c-0.3-0.3-0.6-0.5-1-0.5c-0.5,0-0.8,0.2-1.1,0.5C238.9,37.8,238.8,38.2,238.8,38.8z"/>
	</g>
</g>
<g id="线-2">
	<rect id="矩形_863_拷贝_2-2" x="249.4" y="194.8" class="st1" width="136.2" height="1.3"/>
	<rect id="矩形_863_拷贝_3-2" x="249.4" y="162" class="st1" width="136.2" height="1.3"/>
	<rect id="矩形_863_拷贝_4-2" x="249.4" y="129.3" class="st1" width="136.2" height="1.3"/>
	<rect id="矩形_863_拷贝_5-4" x="249.4" y="97.2" class="st1" width="136.2" height="1.3"/>
	<rect id="矩形_863_拷贝_5-5" x="249.4" y="64.5" class="st1" width="136.2" height="1.3"/>
	<rect id="矩形_863_拷贝_5-6" x="249.4" y="31.7" class="st1" width="136.2" height="1.3"/>
	<rect id="矩形_863-2" x="249.4" y="29.8" class="st2" width="1.3" height="200.3"/>
</g>
<rect id="矩形_864-2" x="269.4" y="137.6" class="st3" width="29.5" height="91.2"/>
<rect id="矩形_864_拷贝-2" x="299" y="142.8" class="st4" width="29.5" height="86"/>
<rect id="矩形_864_拷贝_2-2" x="328.5" y="170.4" class="st5" width="29.5" height="58.4"/>
<rect id="矩形_863_拷贝-2" x="249.4" y="228.8" class="st2" width="136.2" height="1.3"/>
<g id="_3">
	<g id="_2.0_3" class="st0">
		<path d="M419.9,187.6c0-0.6-0.2-1-0.5-1.4c-0.4-0.3-0.9-0.5-1.5-0.5c-0.4,0-0.9,0.1-1.3,0.3c-0.5,0.2-0.9,0.5-1.3,1v-1.3
			c0.3-0.4,0.7-0.6,1.2-0.8c0.4-0.2,1-0.3,1.6-0.3c1,0,1.7,0.3,2.3,0.8c0.6,0.5,0.9,1.2,0.9,2.1c0,0.8-0.2,1.5-0.5,2
			c-0.4,0.6-1,1.2-1.9,1.8s-1.5,1.1-1.8,1.3c-0.3,0.3-0.5,0.5-0.6,0.8c-0.1,0.2-0.2,0.5-0.2,0.9h5.3v1.2h-6.7V195
			c0-0.6,0.1-1.1,0.3-1.6c0.2-0.4,0.4-0.8,0.8-1.3c0.4-0.4,1-0.9,1.8-1.5s1.4-1.1,1.7-1.5C419.8,188.6,419.9,188.1,419.9,187.6z"/>
		<path d="M423.1,194.7c0-0.2,0.1-0.5,0.3-0.6c0.2-0.2,0.4-0.3,0.6-0.3c0.3,0,0.5,0.1,0.6,0.3c0.2,0.2,0.3,0.4,0.3,0.6
			c0,0.2-0.1,0.4-0.3,0.6c-0.2,0.2-0.4,0.3-0.6,0.3c-0.3,0-0.5-0.1-0.6-0.3C423.2,195.2,423.1,195,423.1,194.7z"/>
		<path d="M426.3,190.3c0-1.9,0.3-3.3,0.9-4.3s1.5-1.5,2.7-1.5c2.3,0,3.4,1.8,3.4,5.5c0,1.8-0.3,3.2-1,4.1c-0.6,1-1.5,1.4-2.7,1.4
			c-1.1,0-1.9-0.5-2.5-1.4C426.6,193.4,426.3,192.1,426.3,190.3z M427.7,190.3c0,2.8,0.7,4.3,2.2,4.3c1.4,0,2.1-1.4,2.1-4.3
			c0-3-0.7-4.5-2.1-4.5C428.5,185.7,427.7,187.2,427.7,190.3z"/>
		<path d="M434.6,187.5c0-0.9,0.2-1.6,0.7-2.1s1.1-0.8,1.9-0.8s1.4,0.2,1.8,0.7s0.6,1.1,0.6,2c0,0.8-0.2,1.5-0.7,2s-1.1,0.8-1.9,0.8
			c-0.7,0-1.3-0.2-1.8-0.7C434.8,188.9,434.6,188.3,434.6,187.5z M435.7,187.4c0,0.6,0.1,1.1,0.4,1.4c0.3,0.3,0.6,0.5,1.1,0.5
			s0.8-0.2,1.1-0.5c0.3-0.3,0.4-0.8,0.4-1.4c0-0.6-0.1-1.1-0.4-1.4c-0.2-0.3-0.6-0.5-1-0.5c-0.5,0-0.8,0.2-1.1,0.5
			C435.8,186.3,435.7,186.8,435.7,187.4z M444.3,184.8l-6.9,10.8h-1.2l6.9-10.8H444.3z M441,193c0-0.9,0.2-1.6,0.7-2.1
			s1.1-0.8,1.9-0.8s1.3,0.2,1.8,0.7c0.4,0.5,0.6,1.1,0.6,2c0,0.8-0.2,1.5-0.7,2s-1.1,0.8-1.9,0.8c-0.7,0-1.3-0.2-1.8-0.7
			C441.2,194.4,441,193.7,441,193z M442.1,192.9c0,0.6,0.1,1,0.4,1.4c0.3,0.3,0.6,0.5,1.1,0.5s0.8-0.2,1.1-0.5
			c0.3-0.3,0.4-0.8,0.4-1.4c0-0.6-0.1-1.1-0.4-1.4c-0.3-0.3-0.6-0.5-1-0.5c-0.5,0-0.8,0.2-1.1,0.5
			C442.2,191.8,442.1,192.3,442.1,192.9z"/>
	</g>
	<g id="_4.0_3" class="st0">
		<path d="M420.4,157.2v7.1h1.6v1.1h-1.6v2.5h-1.3v-2.5h-5v-1.1c0.9-1,1.8-2.1,2.7-3.4c0.9-1.3,1.6-2.5,2.2-3.7L420.4,157.2
			L420.4,157.2z M415.7,164.2h3.5v-5.1c-0.5,0.9-1,1.7-1.5,2.5C417.1,162.4,416.4,163.3,415.7,164.2z"/>
		<path d="M423.1,167.1c0-0.2,0.1-0.5,0.3-0.6c0.2-0.2,0.4-0.3,0.6-0.3c0.3,0,0.5,0.1,0.6,0.3c0.2,0.2,0.3,0.4,0.3,0.6
			c0,0.2-0.1,0.4-0.3,0.6c-0.2,0.2-0.4,0.3-0.6,0.3c-0.3,0-0.5-0.1-0.6-0.3C423.2,167.6,423.1,167.4,423.1,167.1z"/>
		<path d="M426.3,162.7c0-1.9,0.3-3.3,0.9-4.3s1.5-1.5,2.7-1.5c2.3,0,3.4,1.8,3.4,5.5c0,1.8-0.3,3.2-1,4.1c-0.6,1-1.5,1.4-2.7,1.4
			c-1.1,0-1.9-0.5-2.5-1.4C426.6,165.8,426.3,164.5,426.3,162.7z M427.7,162.7c0,2.8,0.7,4.3,2.2,4.3c1.4,0,2.1-1.4,2.1-4.3
			c0-3-0.7-4.5-2.1-4.5C428.5,158.1,427.7,159.6,427.7,162.7z"/>
		<path d="M434.6,159.9c0-0.9,0.2-1.6,0.7-2.1s1.1-0.8,1.9-0.8s1.4,0.2,1.8,0.7s0.6,1.1,0.6,2c0,0.8-0.2,1.5-0.7,2s-1.1,0.8-1.9,0.8
			c-0.7,0-1.3-0.2-1.8-0.7C434.8,161.3,434.6,160.7,434.6,159.9z M435.7,159.8c0,0.6,0.1,1.1,0.4,1.4c0.3,0.3,0.6,0.5,1.1,0.5
			s0.8-0.2,1.1-0.5c0.3-0.3,0.4-0.8,0.4-1.4c0-0.6-0.1-1.1-0.4-1.4c-0.2-0.3-0.6-0.5-1-0.5c-0.5,0-0.8,0.2-1.1,0.5
			C435.8,158.7,435.7,159.2,435.7,159.8z M444.3,157.2l-6.9,10.8h-1.2l6.9-10.8H444.3z M441,165.4c0-0.9,0.2-1.6,0.7-2.1
			s1.1-0.8,1.9-0.8s1.3,0.2,1.8,0.7c0.4,0.5,0.6,1.1,0.6,2c0,0.8-0.2,1.5-0.7,2s-1.1,0.8-1.9,0.8c-0.7,0-1.3-0.2-1.8-0.7
			C441.2,166.8,441,166.1,441,165.4z M442.1,165.3c0,0.6,0.1,1,0.4,1.4c0.3,0.3,0.6,0.5,1.1,0.5s0.8-0.2,1.1-0.5
			c0.3-0.3,0.4-0.8,0.4-1.4c0-0.6-0.1-1.1-0.4-1.4c-0.3-0.3-0.6-0.5-1-0.5c-0.5,0-0.8,0.2-1.1,0.5
			C442.2,164.2,442.1,164.7,442.1,165.3z"/>
	</g>
	<g id="_6.0_3" class="st0">
		<path d="M421.1,128.4c-0.6-0.3-1.1-0.4-1.7-0.4c-0.9,0-1.7,0.4-2.2,1.2c-0.6,0.8-0.8,1.9-0.9,3.3l0,0c0.5-1,1.3-1.5,2.4-1.5
			c0.9,0,1.7,0.3,2.2,0.9c0.6,0.6,0.8,1.4,0.8,2.4s-0.3,1.9-1,2.6c-0.6,0.7-1.4,1-2.4,1c-1.1,0-1.9-0.4-2.6-1.3
			c-0.6-0.8-0.9-2.1-0.9-3.6c0-1.9,0.4-3.4,1.2-4.5c0.8-1.1,1.9-1.7,3.2-1.7c0.8,0,1.4,0.1,1.8,0.3v1.3H421.1z M416.3,134.2
			c0,0.7,0.2,1.3,0.6,1.8s0.9,0.8,1.5,0.8s1.1-0.2,1.4-0.6c0.4-0.4,0.6-1,0.6-1.7s-0.2-1.3-0.5-1.7s-0.8-0.6-1.5-0.6
			c-0.6,0-1.1,0.2-1.5,0.6S416.3,133.6,416.3,134.2z"/>
		<path d="M423.1,137c0-0.2,0.1-0.5,0.3-0.6c0.2-0.2,0.4-0.3,0.6-0.3c0.3,0,0.5,0.1,0.6,0.3c0.2,0.2,0.3,0.4,0.3,0.6
			c0,0.2-0.1,0.4-0.3,0.6c-0.2,0.2-0.4,0.3-0.6,0.3c-0.3,0-0.5-0.1-0.6-0.3C423.2,137.4,423.1,137.2,423.1,137z"/>
		<path d="M426.3,132.6c0-1.9,0.3-3.3,0.9-4.3s1.5-1.5,2.7-1.5c2.3,0,3.4,1.8,3.4,5.5c0,1.8-0.3,3.2-1,4.1c-0.6,1-1.5,1.4-2.7,1.4
			c-1.1,0-1.9-0.5-2.5-1.4C426.6,135.6,426.3,134.3,426.3,132.6z M427.7,132.5c0,2.8,0.7,4.3,2.2,4.3c1.4,0,2.1-1.4,2.1-4.3
			c0-3-0.7-4.5-2.1-4.5C428.5,128,427.7,129.5,427.7,132.5z"/>
		<path d="M434.6,129.7c0-0.9,0.2-1.6,0.7-2.1c0.5-0.5,1.1-0.8,1.9-0.8s1.4,0.2,1.8,0.7s0.6,1.1,0.6,2c0,0.8-0.2,1.5-0.7,2
			s-1.1,0.8-1.9,0.8c-0.7,0-1.3-0.2-1.8-0.7C434.8,131.2,434.6,130.5,434.6,129.7z M435.7,129.6c0,0.6,0.1,1.1,0.4,1.4
			c0.3,0.3,0.6,0.5,1.1,0.5s0.8-0.2,1.1-0.5c0.3-0.3,0.4-0.8,0.4-1.4c0-0.6-0.1-1.1-0.4-1.4c-0.2-0.3-0.6-0.5-1-0.5
			c-0.5,0-0.8,0.2-1.1,0.5C435.8,128.6,435.7,129,435.7,129.6z M444.3,127l-6.9,10.8h-1.2l6.9-10.8H444.3z M441,135.2
			c0-0.9,0.2-1.6,0.7-2.1s1.1-0.8,1.9-0.8s1.3,0.2,1.8,0.7c0.4,0.5,0.6,1.1,0.6,2c0,0.8-0.2,1.5-0.7,2s-1.1,0.8-1.9,0.8
			c-0.7,0-1.3-0.2-1.8-0.7C441.2,136.6,441,136,441,135.2z M442.1,135.1c0,0.6,0.1,1,0.4,1.4c0.3,0.3,0.6,0.5,1.1,0.5
			s0.8-0.2,1.1-0.5c0.3-0.3,0.4-0.8,0.4-1.4c0-0.6-0.1-1.1-0.4-1.4c-0.3-0.3-0.6-0.5-1-0.5c-0.5,0-0.8,0.2-1.1,0.5
			C442.2,134.1,442.1,134.5,442.1,135.1z"/>
	</g>
	<g id="_8.0_3" class="st0">
		<path d="M414.7,102c0-0.6,0.2-1.2,0.6-1.7s0.8-0.9,1.4-1.1c-0.5-0.3-0.8-0.6-1.1-1c-0.3-0.4-0.4-0.9-0.4-1.3c0-0.5,0.1-1,0.4-1.4
			s0.6-0.7,1.1-1s1-0.4,1.5-0.4c0.6,0,1.1,0.1,1.5,0.4c0.5,0.2,0.8,0.6,1.1,1s0.4,0.9,0.4,1.4s-0.1,0.9-0.4,1.3s-0.6,0.8-1.1,1
			c0.6,0.2,1.1,0.6,1.4,1.1c0.4,0.5,0.5,1.1,0.5,1.7s-0.1,1.2-0.4,1.6c-0.3,0.5-0.7,0.9-1.2,1.1c-0.5,0.3-1.1,0.4-1.8,0.4
			c-0.7,0-1.3-0.1-1.8-0.4s-0.9-0.6-1.2-1.1S414.7,102.6,414.7,102z M416,101.9c0,0.6,0.2,1.1,0.6,1.5s0.9,0.6,1.6,0.6
			c0.6,0,1.2-0.2,1.6-0.6s0.6-0.9,0.6-1.5s-0.2-1.1-0.6-1.5s-0.9-0.6-1.5-0.6s-1.1,0.2-1.5,0.6C416.2,100.8,416,101.3,416,101.9z
			 M416.4,96.9c0,0.5,0.2,0.9,0.5,1.2c0.3,0.3,0.8,0.5,1.2,0.5c0.5,0,0.9-0.2,1.3-0.5s0.5-0.8,0.5-1.2c0-0.5-0.2-0.9-0.5-1.2
			s-0.8-0.5-1.3-0.5s-0.9,0.2-1.3,0.5C416.6,96,416.4,96.4,416.4,96.9z"/>
		<path d="M423.1,104.2c0-0.2,0.1-0.5,0.3-0.6s0.4-0.3,0.6-0.3c0.3,0,0.5,0.1,0.6,0.3c0.2,0.2,0.3,0.4,0.3,0.6s-0.1,0.4-0.3,0.6
			c-0.2,0.2-0.4,0.3-0.6,0.3c-0.3,0-0.5-0.1-0.6-0.3C423.2,104.7,423.1,104.5,423.1,104.2z"/>
		<path d="M426.3,99.8c0-1.9,0.3-3.3,0.9-4.3s1.5-1.5,2.7-1.5c2.3,0,3.4,1.8,3.4,5.5c0,1.8-0.3,3.2-1,4.1c-0.6,1-1.5,1.4-2.7,1.4
			c-1.1,0-1.9-0.5-2.5-1.4C426.6,102.9,426.3,101.5,426.3,99.8z M427.7,99.8c0,2.8,0.7,4.3,2.2,4.3c1.4,0,2.1-1.4,2.1-4.3
			c0-3-0.7-4.5-2.1-4.5C428.5,95.2,427.7,96.7,427.7,99.8z"/>
		<path d="M434.6,97c0-0.9,0.2-1.6,0.7-2.1s1.1-0.8,1.9-0.8s1.4,0.2,1.8,0.7s0.6,1.1,0.6,2c0,0.8-0.2,1.5-0.7,2s-1.1,0.8-1.9,0.8
			c-0.7,0-1.3-0.2-1.8-0.7C434.8,98.4,434.6,97.8,434.6,97z M435.7,96.9c0,0.6,0.1,1.1,0.4,1.4s0.6,0.5,1.1,0.5s0.8-0.2,1.1-0.5
			c0.3-0.3,0.4-0.8,0.4-1.4s-0.1-1.1-0.4-1.4c-0.2-0.3-0.6-0.5-1-0.5c-0.5,0-0.8,0.2-1.1,0.5C435.8,95.8,435.7,96.3,435.7,96.9z
			 M444.3,94.3l-6.9,10.8h-1.2l6.9-10.8H444.3z M441,102.4c0-0.9,0.2-1.6,0.7-2.1s1.1-0.8,1.9-0.8s1.3,0.2,1.8,0.7
			c0.4,0.5,0.6,1.1,0.6,2c0,0.8-0.2,1.5-0.7,2s-1.1,0.8-1.9,0.8c-0.7,0-1.3-0.2-1.8-0.7C441.2,103.9,441,103.2,441,102.4z
			 M442.1,102.4c0,0.6,0.1,1,0.4,1.4c0.3,0.3,0.6,0.5,1.1,0.5s0.8-0.2,1.1-0.5c0.3-0.3,0.4-0.8,0.4-1.4s-0.1-1.1-0.4-1.4
			s-0.6-0.5-1-0.5c-0.5,0-0.8,0.2-1.1,0.5C442.2,101.3,442.1,101.8,442.1,102.4z"/>
	</g>
	<g id="_10.0_3" class="st0">
		<path d="M410.6,72.2v-9.1c-0.2,0.2-0.6,0.4-1.1,0.7s-1,0.4-1.4,0.6V63c0.6-0.2,1.2-0.4,1.8-0.7c0.6-0.3,1.1-0.7,1.5-1h0.5v10.9
			H410.6z"/>
		<path d="M415.6,67.1c0-1.9,0.3-3.3,0.9-4.3s1.5-1.5,2.7-1.5c2.3,0,3.4,1.8,3.4,5.5c0,1.8-0.3,3.2-1,4.1c-0.6,1-1.5,1.4-2.7,1.4
			c-1.1,0-1.9-0.5-2.5-1.4S415.6,68.8,415.6,67.1z M417,67c0,2.8,0.7,4.3,2.2,4.3c1.4,0,2.1-1.4,2.1-4.3c0-3-0.7-4.5-2.1-4.5
			C417.7,62.5,417,64,417,67z"/>
		<path d="M424.1,71.5c0-0.2,0.1-0.5,0.3-0.6c0.2-0.2,0.4-0.3,0.6-0.3c0.3,0,0.5,0.1,0.6,0.3c0.2,0.2,0.3,0.4,0.3,0.6
			s-0.1,0.4-0.3,0.6c-0.2,0.2-0.4,0.3-0.6,0.3c-0.3,0-0.5-0.1-0.6-0.3C424.2,71.9,424.1,71.7,424.1,71.5z"/>
		<path d="M427.3,67.1c0-1.9,0.3-3.3,0.9-4.3s1.5-1.5,2.7-1.5c2.3,0,3.4,1.8,3.4,5.5c0,1.8-0.3,3.2-1,4.1c-0.6,1-1.5,1.4-2.7,1.4
			c-1.1,0-1.9-0.5-2.5-1.4C427.6,70.1,427.3,68.8,427.3,67.1z M428.6,67c0,2.8,0.7,4.3,2.2,4.3c1.4,0,2.1-1.4,2.1-4.3
			c0-3-0.7-4.5-2.1-4.5C429.4,62.5,428.6,64,428.6,67z"/>
		<path d="M435.5,64.2c0-0.9,0.2-1.6,0.7-2.1s1.1-0.8,1.9-0.8s1.4,0.2,1.8,0.7s0.6,1.1,0.6,2c0,0.8-0.2,1.5-0.7,2s-1.1,0.8-1.9,0.8
			c-0.7,0-1.3-0.2-1.8-0.7S435.5,65,435.5,64.2z M436.6,64.2c0,0.6,0.1,1.1,0.4,1.4s0.6,0.5,1.1,0.5s0.8-0.2,1.1-0.5
			c0.3-0.3,0.4-0.8,0.4-1.4s-0.1-1.1-0.4-1.4c-0.2-0.3-0.6-0.5-1-0.5c-0.5,0-0.8,0.2-1.1,0.5C436.7,63.1,436.6,63.6,436.6,64.2z
			 M445.2,61.5l-6.9,10.8h-1.2l6.9-10.8C444,61.5,445.2,61.5,445.2,61.5z M441.9,69.7c0-0.9,0.2-1.6,0.7-2.1s1.1-0.8,1.9-0.8
			s1.3,0.2,1.8,0.7c0.4,0.5,0.6,1.1,0.6,2c0,0.8-0.2,1.5-0.7,2s-1.1,0.8-1.9,0.8c-0.7,0-1.3-0.2-1.8-0.7
			C442.1,71.1,441.9,70.5,441.9,69.7z M443,69.6c0,0.6,0.1,1,0.4,1.4c0.3,0.3,0.6,0.5,1.1,0.5s0.8-0.2,1.1-0.5s0.4-0.8,0.4-1.4
			s-0.1-1.1-0.4-1.4s-0.6-0.5-1-0.5c-0.5,0-0.8,0.2-1.1,0.5C443.1,68.6,443,69,443,69.6z"/>
	</g>
	<g id="_12.0_3" class="st0">
		<path d="M410.6,41.4v-9.1c-0.2,0.2-0.6,0.4-1.1,0.7s-1,0.4-1.4,0.6v-1.3c0.6-0.2,1.2-0.4,1.8-0.7c0.6-0.3,1.1-0.7,1.5-1h0.5v10.9
			L410.6,41.4L410.6,41.4z"/>
		<path d="M420.8,33.5c0-0.6-0.2-1-0.5-1.4c-0.4-0.3-0.9-0.5-1.5-0.5c-0.4,0-0.9,0.1-1.3,0.3c-0.5,0.2-0.9,0.5-1.3,1v-1.3
			c0.3-0.4,0.7-0.6,1.2-0.8c0.4-0.2,1-0.3,1.6-0.3c1,0,1.7,0.3,2.3,0.8c0.6,0.5,0.9,1.2,0.9,2.1c0,0.8-0.2,1.5-0.5,2
			c-0.4,0.6-1,1.2-1.9,1.8s-1.5,1.1-1.8,1.3c-0.3,0.3-0.5,0.5-0.6,0.8c-0.1,0.2-0.2,0.5-0.2,0.9h5.3v1.2h-6.7v-0.5
			c0-0.6,0.1-1.1,0.3-1.6c0.2-0.4,0.4-0.8,0.8-1.3c0.4-0.4,1-0.9,1.8-1.5s1.4-1.1,1.7-1.5C420.7,34.6,420.8,34.1,420.8,33.5z"/>
		<path d="M424.1,40.7c0-0.2,0.1-0.5,0.3-0.6c0.2-0.2,0.4-0.3,0.6-0.3c0.3,0,0.5,0.1,0.6,0.3c0.2,0.2,0.3,0.4,0.3,0.6
			c0,0.2-0.1,0.4-0.3,0.6c-0.2,0.2-0.4,0.3-0.6,0.3c-0.3,0-0.5-0.1-0.6-0.3C424.2,41.1,424.1,40.9,424.1,40.7z"/>
		<path d="M427.3,36.3c0-1.9,0.3-3.3,0.9-4.3s1.5-1.5,2.7-1.5c2.3,0,3.4,1.8,3.4,5.5c0,1.8-0.3,3.2-1,4.1c-0.6,1-1.5,1.4-2.7,1.4
			c-1.1,0-1.9-0.5-2.5-1.4C427.6,39.3,427.3,38,427.3,36.3z M428.6,36.2c0,2.8,0.7,4.3,2.2,4.3c1.4,0,2.1-1.4,2.1-4.3
			c0-3-0.7-4.5-2.1-4.5C429.4,31.7,428.6,33.2,428.6,36.2z"/>
		<path d="M435.5,33.4c0-0.9,0.2-1.6,0.7-2.1s1.1-0.8,1.9-0.8s1.4,0.2,1.8,0.7s0.6,1.1,0.6,2c0,0.8-0.2,1.5-0.7,2s-1.1,0.8-1.9,0.8
			c-0.7,0-1.3-0.2-1.8-0.7S435.5,34.2,435.5,33.4z M436.6,33.3c0,0.6,0.1,1.1,0.4,1.4c0.3,0.3,0.6,0.5,1.1,0.5s0.8-0.2,1.1-0.5
			c0.3-0.3,0.4-0.8,0.4-1.4c0-0.6-0.1-1.1-0.4-1.4c-0.2-0.3-0.6-0.5-1-0.5c-0.5,0-0.8,0.2-1.1,0.5C436.7,32.3,436.6,32.7,436.6,33.3
			z M445.2,30.7l-6.9,10.8h-1.2l6.9-10.8H445.2z M441.9,38.9c0-0.9,0.2-1.6,0.7-2.1s1.1-0.8,1.9-0.8s1.3,0.2,1.8,0.7
			c0.4,0.5,0.6,1.1,0.6,2c0,0.8-0.2,1.5-0.7,2s-1.1,0.8-1.9,0.8c-0.7,0-1.3-0.2-1.8-0.7C442.1,40.3,441.9,39.7,441.9,38.9z
			 M443,38.8c0,0.6,0.1,1,0.4,1.4c0.3,0.3,0.6,0.5,1.1,0.5s0.8-0.2,1.1-0.5s0.4-0.8,0.4-1.4c0-0.6-0.1-1.1-0.4-1.4s-0.6-0.5-1-0.5
			c-0.5,0-0.8,0.2-1.1,0.5C443.1,37.8,443,38.2,443,38.8z"/>
	</g>
</g>
<g id="线-3">
	<rect id="矩形_863_拷贝_2-3" x="453.6" y="194.7" class="st1" width="129.4" height="1.3"/>
	<rect id="矩形_863_拷贝_3-3" x="453.6" y="162" class="st1" width="129.4" height="1.3"/>
	<rect id="矩形_863_拷贝_4-3" x="453.6" y="129.3" class="st1" width="129.4" height="1.3"/>
	<rect id="矩形_863_拷贝_5-7" x="453.6" y="97.2" class="st1" width="129.4" height="1.3"/>
	<rect id="矩形_863_拷贝_5-8" x="453.6" y="64.5" class="st1" width="129.4" height="1.3"/>
	<rect id="矩形_863_拷贝_5-9" x="453.6" y="31.7" class="st1" width="129.4" height="1.3"/>
	<rect id="矩形_863-3" x="453.6" y="29.8" class="st2" width="1.2" height="200.3"/>
</g>
<rect id="矩形_864-3" x="473.6" y="80.5" class="st3" width="29.5" height="148.3"/>
<rect id="矩形_864_拷贝-3" x="503.1" y="110.7" class="st4" width="29.5" height="118.1"/>
<rect id="矩形_864_拷贝_2-3" x="532.7" y="143.4" class="st5" width="29.5" height="85.4"/>
<rect id="矩形_863_拷贝-3" x="453.6" y="228.8" class="st2" width="129.4" height="1.3"/>
<rect id="矩形_865" x="595.8" y="178" class="st3" width="12.3" height="12.1"/>
<rect id="矩形_865_拷贝" x="595.8" y="199" class="st4" width="12.3" height="12.1"/>
<rect id="矩形_865_拷贝_2" x="595.8" y="219.9" class="st5" width="12.3" height="12.1"/>
<g>
	<path d="M6.9,2.7H4.2V11H3V2.7H0.3V1.6h6.6V2.7z"/>
	<path d="M6.9,4.8c0.7-0.4,1.4-0.6,2.3-0.6c1.6,0,2.4,0.8,2.4,2.5V11h-1.2v-1l0,0c-0.5,0.8-1.1,1.2-2.1,1.2c-0.6,0-1.2-0.2-1.5-0.5
		c-0.4-0.4-0.6-0.8-0.6-1.4C6.2,8,7,7.2,8.5,7l2-0.3c0-1.1-0.5-1.6-1.4-1.6c-0.8,0-1.5,0.3-2.2,0.8C6.9,5.9,6.9,4.8,6.9,4.8z
		 M8.9,7.9C8.3,7.9,8,8.1,7.7,8.3C7.5,8.5,7.4,8.7,7.4,9.1c0,0.3,0.1,0.6,0.3,0.8c0.2,0.2,0.5,0.3,0.9,0.3c0.5,0,0.9-0.2,1.3-0.5
		c0.3-0.4,0.5-0.8,0.5-1.4V7.6L8.9,7.9z"/>
	<path d="M13.2,9.6c0.6,0.4,1.2,0.6,1.9,0.6c0.9,0,1.4-0.3,1.4-0.9c0-0.3-0.1-0.5-0.3-0.6C16,8.5,15.6,8.3,15,8.1
		c-0.7-0.3-1.2-0.6-1.4-0.9s-0.3-0.6-0.3-1.1c0-0.6,0.3-1.1,0.8-1.4c0.5-0.4,1.1-0.5,1.9-0.5c0.6,0,1.1,0.1,1.6,0.3v1.1
		c-0.5-0.3-1.1-0.5-1.7-0.5c-0.4,0-0.7,0.1-0.9,0.2c-0.2,0.2-0.4,0.4-0.4,0.7c0,0.3,0.1,0.5,0.3,0.6s0.6,0.3,1.1,0.6
		c0.7,0.3,1.2,0.6,1.5,0.9c0.3,0.3,0.4,0.7,0.4,1.1c0,0.6-0.3,1.1-0.8,1.4c-0.5,0.4-1.2,0.5-1.9,0.5s-1.3-0.1-1.8-0.4V9.6H13.2z"/>
	<path d="M19.5,4.8c0.7-0.4,1.4-0.6,2.3-0.6c1.6,0,2.4,0.8,2.4,2.5V11H23v-1l0,0c-0.5,0.8-1.1,1.2-2.1,1.2c-0.6,0-1.2-0.2-1.5-0.5
		c-0.4-0.4-0.6-0.8-0.6-1.4c0-1.2,0.7-2,2.2-2.2l2-0.3c0-1.1-0.5-1.6-1.4-1.6c-0.8,0-1.5,0.3-2.2,0.8V4.8H19.5z M21.5,7.9
		C21,8,20.6,8.1,20.4,8.3C20.1,8.5,20,8.7,20,9.1c0,0.3,0.1,0.6,0.3,0.8c0.2,0.2,0.5,0.3,0.9,0.3c0.5,0,0.9-0.2,1.3-0.5
		C22.9,9.3,23,8.8,23,8.3V7.6L21.5,7.9z"/>
	<path d="M35.6,11h-1.2V9.9l0,0c-0.5,0.8-1.2,1.3-2.3,1.3c-0.8,0-1.5-0.3-2-0.9c-0.5-0.6-0.7-1.4-0.7-2.4c0-1.1,0.3-2,0.8-2.7
		c0.6-0.7,1.3-1,2.2-1s1.6,0.4,2,1.1l0,0V1.1h1.2V11z M34.5,7c0-0.5-0.2-1-0.5-1.3c-0.4-0.4-0.8-0.5-1.3-0.5c-0.6,0-1.1,0.2-1.5,0.7
		S30.7,7,30.7,7.8c0,0.7,0.2,1.3,0.5,1.8c0.3,0.4,0.8,0.6,1.4,0.6c0.6,0,1-0.2,1.4-0.6s0.5-1,0.5-1.6C34.5,8,34.5,7,34.5,7z"/>
	<path d="M43.2,8h-4.7c0,0.7,0.2,1.3,0.6,1.7c0.4,0.4,0.9,0.6,1.6,0.6c0.8,0,1.4-0.2,2.1-0.7v1.1c-0.6,0.4-1.4,0.6-2.3,0.6
		c-1,0-1.7-0.3-2.3-0.9c-0.5-0.6-0.8-1.5-0.8-2.6c0-1,0.3-1.9,0.9-2.5c0.6-0.7,1.3-1,2.2-1s1.6,0.3,2,0.8s0.7,1.3,0.7,2.4V8z M42,7
		c0-0.6-0.1-1.1-0.4-1.4c-0.3-0.3-0.7-0.5-1.2-0.5s-0.9,0.2-1.2,0.5C38.8,6,38.6,6.4,38.5,7H42z"/>
	<path d="M52,5.5c-0.2-0.1-0.5-0.2-0.8-0.2c-0.5,0-0.8,0.2-1.1,0.6s-0.4,1-0.4,1.7V11h-1.2V4.3h1.2v1.4l0,0c0.3-1,0.9-1.5,1.8-1.5
		c0.3,0,0.5,0,0.6,0.1L52,5.5L52,5.5z"/>
	<path d="M58.4,8h-4.7c0,0.7,0.2,1.3,0.6,1.7c0.4,0.4,0.9,0.6,1.6,0.6c0.8,0,1.4-0.2,2.1-0.7v1.1c-0.6,0.4-1.4,0.6-2.3,0.6
		c-1,0-1.7-0.3-2.3-0.9c-0.5-0.6-0.8-1.5-0.8-2.6c0-1,0.3-1.9,0.9-2.5c0.6-0.7,1.3-1,2.2-1s1.6,0.3,2,0.8s0.7,1.3,0.7,2.4V8z
		 M57.3,7c0-0.6-0.1-1.1-0.4-1.4c-0.3-0.3-0.7-0.5-1.2-0.5s-0.9,0.2-1.2,0.5C54.1,6,53.9,6.4,53.8,7H57.3z"/>
	<path d="M63.2,10.9c-0.3,0.1-0.6,0.2-1,0.2c-1.2,0-1.8-0.7-1.8-2V5.3h-1.1v-1h1.1V2.7l1.2-0.4v2h1.7v1h-1.7V9
		c0,0.4,0.1,0.8,0.2,0.9c0.1,0.2,0.4,0.3,0.7,0.3s0.5-0.1,0.7-0.2C63.2,10,63.2,10.9,63.2,10.9z"/>
	<path d="M64.1,7.7c0-1.1,0.3-2,0.9-2.6s1.5-1,2.5-1s1.8,0.3,2.4,0.9s0.9,1.5,0.9,2.5c0,1.1-0.3,1.9-0.9,2.6c-0.6,0.6-1.4,1-2.4,1
		s-1.8-0.3-2.4-0.9C64.4,9.6,64.1,8.8,64.1,7.7z M65.3,7.7c0,0.8,0.2,1.4,0.6,1.8c0.4,0.4,0.9,0.7,1.6,0.7S68.7,10,69,9.6
		c0.4-0.4,0.5-1.1,0.5-1.9S69.3,6.3,69,5.8c-0.4-0.4-0.9-0.7-1.5-0.7c-0.7,0-1.2,0.2-1.6,0.7C65.5,6.3,65.3,6.9,65.3,7.7z"/>
	<path d="M76,5.5c-0.2-0.1-0.5-0.2-0.8-0.2c-0.5,0-0.8,0.2-1.1,0.6c-0.3,0.4-0.4,1-0.4,1.7V11h-1.2V4.3h1.2v1.4l0,0
		c0.3-1,0.9-1.5,1.8-1.5c0.3,0,0.5,0,0.6,0.1L76,5.5L76,5.5z"/>
	<path d="M82.8,11h-1.2V7.2c0-1.4-0.5-2.1-1.5-2.1c-0.5,0-0.9,0.2-1.3,0.6c-0.3,0.4-0.5,0.9-0.5,1.5V11h-1.2V4.3h1.2v1.1l0,0
		c0.5-0.8,1.2-1.3,2.2-1.3c0.7,0,1.3,0.2,1.7,0.7c0.4,0.5,0.6,1.2,0.6,2.1C82.8,6.9,82.8,11,82.8,11z"/>
	<path d="M84.3,7.7c0-1.1,0.3-2,0.9-2.6s1.5-1,2.5-1s1.8,0.3,2.4,0.9S91,6.5,91,7.5c0,1.1-0.3,1.9-0.9,2.6c-0.6,0.6-1.4,1-2.4,1
		s-1.8-0.3-2.4-0.9C84.6,9.6,84.3,8.8,84.3,7.7z M85.5,7.7c0,0.8,0.2,1.4,0.6,1.8c0.4,0.4,0.9,0.7,1.6,0.7s1.2-0.2,1.5-0.6
		c0.4-0.4,0.5-1.1,0.5-1.9s-0.2-1.4-0.5-1.9c-0.4-0.4-0.9-0.7-1.5-0.7c-0.7,0-1.2,0.2-1.6,0.7C85.7,6.3,85.5,6.9,85.5,7.7z"/>
	<path d="M102.1,11h-1.2V9.9l0,0c-0.5,0.8-1.2,1.3-2.3,1.3c-0.8,0-1.5-0.3-2-0.9c-0.5-0.6-0.7-1.4-0.7-2.4c0-1.1,0.3-2,0.8-2.7
		c0.6-0.7,1.3-1,2.2-1s1.6,0.4,2,1.1l0,0V1.1h1.2V11z M100.9,7c0-0.5-0.2-1-0.5-1.3c-0.4-0.4-0.8-0.5-1.3-0.5
		c-0.6,0-1.1,0.2-1.5,0.7c-0.4,0.4-0.6,1-0.6,1.9c0,0.7,0.2,1.3,0.5,1.8c0.3,0.4,0.8,0.6,1.4,0.6s1-0.2,1.4-0.6s0.5-1,0.5-1.6
		L100.9,7L100.9,7z"/>
	<path d="M109.6,8H105c0,0.7,0.2,1.3,0.6,1.7s0.9,0.6,1.6,0.6c0.8,0,1.4-0.2,2.1-0.7v1.1c-0.6,0.4-1.4,0.6-2.3,0.6
		c-1,0-1.7-0.3-2.3-0.9c-0.5-0.6-0.8-1.5-0.8-2.6c0-1,0.3-1.9,0.9-2.5c0.6-0.7,1.3-1,2.2-1c0.9,0,1.6,0.3,2,0.8s0.7,1.3,0.7,2.4
		L109.6,8L109.6,8z M108.5,7c0-0.6-0.1-1.1-0.4-1.4s-0.7-0.5-1.2-0.5s-0.9,0.2-1.2,0.5C105.3,6,105.1,6.4,105,7H108.5z"/>
	<path d="M114.9,11V1.1h1.2V11H114.9z"/>
	<path d="M117.7,7.7c0-1.1,0.3-2,0.9-2.6s1.5-1,2.5-1s1.8,0.3,2.4,0.9s0.9,1.5,0.9,2.5c0,1.1-0.3,1.9-0.9,2.6c-0.6,0.6-1.4,1-2.4,1
		s-1.8-0.3-2.4-0.9C118,9.6,117.7,8.8,117.7,7.7z M118.9,7.7c0,0.8,0.2,1.4,0.6,1.8c0.4,0.4,0.9,0.7,1.6,0.7s1.2-0.2,1.5-0.6
		c0.4-0.4,0.5-1.1,0.5-1.9s-0.2-1.4-0.5-1.9c-0.4-0.4-0.9-0.7-1.5-0.7c-0.7,0-1.2,0.2-1.6,0.7C119.1,6.3,118.9,6.9,118.9,7.7z"/>
	<path d="M125.7,9.6c0.6,0.4,1.2,0.6,1.9,0.6c0.9,0,1.4-0.3,1.4-0.9c0-0.3-0.1-0.5-0.3-0.6c-0.2-0.2-0.6-0.4-1.2-0.6
		c-0.7-0.3-1.2-0.6-1.4-0.9c-0.2-0.3-0.3-0.6-0.3-1.1c0-0.6,0.3-1.1,0.8-1.4c0.5-0.4,1.1-0.5,1.9-0.5c0.6,0,1.1,0.1,1.6,0.3v1.1
		c-0.5-0.3-1.1-0.5-1.7-0.5c-0.4,0-0.7,0.1-0.9,0.2c-0.2,0.2-0.4,0.4-0.4,0.7c0,0.3,0.1,0.5,0.3,0.6c0.2,0.1,0.6,0.3,1.1,0.6
		c0.7,0.3,1.2,0.6,1.5,0.9c0.3,0.3,0.4,0.7,0.4,1.1c0,0.6-0.3,1.1-0.8,1.4c-0.5,0.4-1.2,0.5-1.9,0.5c-0.7,0-1.3-0.1-1.8-0.4V9.6
		H125.7z"/>
	<path d="M135.6,4.8c0.7-0.4,1.4-0.6,2.3-0.6c1.6,0,2.4,0.8,2.4,2.5V11h-1.2v-1l0,0c-0.5,0.8-1.1,1.2-2.1,1.2
		c-0.6,0-1.2-0.2-1.5-0.5c-0.4-0.4-0.6-0.8-0.6-1.4c0-1.2,0.7-2,2.2-2.2l2-0.3c0-1.1-0.5-1.6-1.4-1.6c-0.8,0-1.5,0.3-2.2,0.8V4.8
		H135.6z M137.6,7.9c-0.5,0.1-0.9,0.2-1.1,0.4c-0.2,0.2-0.3,0.5-0.3,0.8s0.1,0.6,0.3,0.8s0.5,0.3,0.9,0.3c0.5,0,0.9-0.2,1.3-0.5
		c0.3-0.4,0.5-0.8,0.5-1.4V7.6L137.6,7.9z"/>
	<path d="M146.9,10.7c-0.5,0.3-1.1,0.5-1.9,0.5c-1,0-1.7-0.3-2.3-0.9c-0.6-0.6-0.9-1.4-0.9-2.4c0-1.1,0.3-2,1-2.7
		c0.6-0.7,1.5-1,2.5-1c0.6,0,1.1,0.1,1.6,0.3v1.2c-0.5-0.3-1-0.5-1.6-0.5c-0.7,0-1.2,0.2-1.7,0.7C143.2,6.4,143,7,143,7.8
		s0.2,1.4,0.6,1.8c0.4,0.4,0.9,0.7,1.6,0.7c0.6,0,1.1-0.2,1.6-0.6L146.9,10.7L146.9,10.7z"/>
	<path d="M151.7,10.9c-0.3,0.1-0.6,0.2-1,0.2c-1.2,0-1.8-0.7-1.8-2V5.3h-1.1v-1h1.1V2.7l1.2-0.4v2h1.7v1h-1.7V9
		c0,0.4,0.1,0.8,0.2,0.9c0.1,0.2,0.4,0.3,0.7,0.3s0.5-0.1,0.7-0.2L151.7,10.9L151.7,10.9z"/>
	<path d="M153,2c0-0.2,0.1-0.4,0.2-0.5c0.1-0.1,0.3-0.2,0.5-0.2s0.4,0.1,0.5,0.2s0.2,0.3,0.2,0.5s-0.1,0.4-0.2,0.5
		c-0.1,0.1-0.3,0.2-0.5,0.2s-0.4-0.1-0.5-0.2S153,2.2,153,2z M153.1,11V4.3h1.2V11H153.1z"/>
	<path d="M161.8,4.3l-2.6,6.7H158l-2.5-6.7h1.3l1.6,4.8c0.1,0.4,0.2,0.7,0.2,1l0,0c0-0.3,0.1-0.7,0.2-0.9l1.7-4.8h1.3V4.3z"/>
	<path d="M162.4,7.7c0-1.1,0.3-2,0.9-2.6c0.6-0.6,1.5-1,2.5-1s1.8,0.3,2.4,0.9c0.6,0.6,0.9,1.5,0.9,2.5c0,1.1-0.3,1.9-0.9,2.6
		c-0.6,0.6-1.4,1-2.4,1s-1.8-0.3-2.4-0.9C162.7,9.6,162.4,8.8,162.4,7.7z M163.6,7.7c0,0.8,0.2,1.4,0.6,1.8c0.4,0.4,0.9,0.7,1.6,0.7
		c0.7,0,1.2-0.2,1.5-0.6c0.4-0.4,0.5-1.1,0.5-1.9s-0.2-1.4-0.5-1.9c-0.4-0.4-0.9-0.7-1.5-0.7c-0.7,0-1.2,0.2-1.6,0.7
		C163.8,6.3,163.6,6.9,163.6,7.7z"/>
	<path d="M170.3,9.6c0.6,0.4,1.2,0.6,1.9,0.6c0.9,0,1.4-0.3,1.4-0.9c0-0.3-0.1-0.5-0.3-0.6c-0.2-0.2-0.6-0.4-1.2-0.6
		c-0.7-0.3-1.2-0.6-1.4-0.9s-0.3-0.6-0.3-1.1c0-0.6,0.3-1.1,0.8-1.4c0.5-0.4,1.1-0.5,1.9-0.5c0.6,0,1.1,0.1,1.6,0.3v1.1
		c-0.5-0.3-1.1-0.5-1.7-0.5c-0.4,0-0.7,0.1-0.9,0.2c-0.2,0.2-0.4,0.4-0.4,0.7c0,0.3,0.1,0.5,0.3,0.6s0.6,0.3,1.1,0.6
		c0.7,0.3,1.2,0.6,1.5,0.9c0.3,0.3,0.4,0.7,0.4,1.1c0,0.6-0.3,1.1-0.8,1.4c-0.5,0.4-1.2,0.5-1.9,0.5s-1.3-0.1-1.8-0.4V9.6H170.3z"/>
	<path d="M185.9,11h-1.2V9.9l0,0c-0.5,0.8-1.2,1.3-2.3,1.3c-0.8,0-1.5-0.3-2-0.9c-0.5-0.6-0.7-1.4-0.7-2.4c0-1.1,0.3-2,0.8-2.7
		c0.6-0.7,1.3-1,2.2-1s1.6,0.4,2,1.1l0,0V1.1h1.2V11z M184.7,7c0-0.5-0.2-1-0.5-1.3c-0.4-0.4-0.8-0.5-1.3-0.5
		c-0.6,0-1.1,0.2-1.5,0.7s-0.5,1.1-0.5,1.9c0,0.7,0.2,1.3,0.5,1.8c0.3,0.4,0.8,0.6,1.4,0.6c0.6,0,1-0.2,1.4-0.6s0.5-1,0.5-1.6
		L184.7,7L184.7,7z"/>
	<path d="M193.5,8h-4.7c0,0.7,0.2,1.3,0.6,1.7c0.4,0.4,0.9,0.6,1.6,0.6c0.8,0,1.4-0.2,2.1-0.7v1.1c-0.6,0.4-1.4,0.6-2.3,0.6
		c-1,0-1.7-0.3-2.3-0.9c-0.5-0.6-0.8-1.5-0.8-2.6c0-1,0.3-1.9,0.9-2.5c0.6-0.7,1.3-1,2.2-1s1.6,0.3,2,0.8s0.7,1.3,0.7,2.4V8z
		 M192.3,7c0-0.6-0.1-1.1-0.4-1.4c-0.3-0.3-0.7-0.5-1.2-0.5s-0.9,0.2-1.2,0.5c-0.3,0.4-0.6,0.8-0.6,1.4H192.3z"/>
	<path d="M204.5,11h-1.2V9.9l0,0c-0.5,0.8-1.2,1.3-2.3,1.3c-0.8,0-1.5-0.3-2-0.9c-0.5-0.6-0.7-1.4-0.7-2.4c0-1.1,0.3-2,0.8-2.7
		c0.6-0.7,1.3-1,2.2-1s1.6,0.4,2,1.1l0,0V1.1h1.2V11z M203.4,7c0-0.5-0.2-1-0.5-1.3c-0.4-0.4-0.8-0.5-1.3-0.5
		c-0.6,0-1.1,0.2-1.5,0.7s-0.5,1.1-0.5,1.9c0,0.7,0.2,1.3,0.5,1.8c0.3,0.4,0.8,0.6,1.4,0.6c0.6,0,1-0.2,1.4-0.6s0.5-1,0.5-1.6
		L203.4,7L203.4,7z"/>
	<path d="M206.5,2c0-0.2,0.1-0.4,0.2-0.5c0.1-0.1,0.3-0.2,0.5-0.2s0.4,0.1,0.5,0.2s0.2,0.3,0.2,0.5s-0.1,0.4-0.2,0.5
		c-0.1,0.1-0.3,0.2-0.5,0.2s-0.4-0.1-0.5-0.2S206.5,2.2,206.5,2z M206.6,11V4.3h1.2V11H206.6z"/>
	<path d="M209.6,9.6c0.6,0.4,1.2,0.6,1.9,0.6c0.9,0,1.4-0.3,1.4-0.9c0-0.3-0.1-0.5-0.3-0.6c-0.2-0.2-0.6-0.4-1.2-0.6
		c-0.7-0.3-1.2-0.6-1.4-0.9s-0.3-0.6-0.3-1.1c0-0.6,0.3-1.1,0.8-1.4c0.5-0.4,1.1-0.5,1.9-0.5c0.6,0,1.1,0.1,1.6,0.3v1.1
		c-0.5-0.3-1.1-0.5-1.7-0.5c-0.4,0-0.7,0.1-0.9,0.2C211.2,5.5,211,5.7,211,6c0,0.3,0.1,0.5,0.3,0.6s0.6,0.3,1.1,0.6
		c0.7,0.3,1.2,0.6,1.5,0.9c0.3,0.3,0.4,0.7,0.4,1.1c0,0.6-0.3,1.1-0.8,1.4c-0.5,0.4-1.2,0.5-1.9,0.5s-1.3-0.1-1.8-0.4V9.6H209.6z"/>
	<path d="M218.9,10.9c-0.3,0.1-0.6,0.2-1,0.2c-1.2,0-1.8-0.7-1.8-2V5.3H215v-1h1.1V2.7l1.2-0.4v2h1.7v1h-1.7V9
		c0,0.4,0.1,0.8,0.2,0.9c0.1,0.2,0.4,0.3,0.7,0.3s0.5-0.1,0.7-0.2L218.9,10.9L218.9,10.9z"/>
	<path d="M220.1,2c0-0.2,0.1-0.4,0.2-0.5c0.1-0.1,0.3-0.2,0.5-0.2s0.4,0.1,0.5,0.2s0.2,0.3,0.2,0.5s-0.1,0.4-0.2,0.5
		c-0.1,0.1-0.3,0.2-0.5,0.2s-0.4-0.1-0.5-0.2S220.1,2.2,220.1,2z M220.3,11V4.3h1.2V11H220.3z"/>
	<path d="M229.2,11H228V7.2c0-1.4-0.5-2.1-1.5-2.1c-0.5,0-0.9,0.2-1.3,0.6c-0.3,0.4-0.5,0.9-0.5,1.5V11h-1.2V4.3h1.2v1.1l0,0
		c0.5-0.8,1.2-1.3,2.2-1.3c0.7,0,1.3,0.2,1.7,0.7s0.6,1.2,0.6,2.1V11z"/>
	<path d="M234.4,10.9c-0.3,0.1-0.6,0.2-1,0.2c-1.2,0-1.8-0.7-1.8-2V5.3h-1.1v-1h1.1V2.7l1.2-0.4v2h1.7v1h-1.7V9
		c0,0.4,0.1,0.8,0.2,0.9c0.1,0.2,0.4,0.3,0.7,0.3s0.5-0.1,0.7-0.2L234.4,10.9L234.4,10.9z"/>
	<path d="M236,4.8c0.7-0.4,1.4-0.6,2.3-0.6c1.6,0,2.4,0.8,2.4,2.5V11h-1.2v-1l0,0c-0.5,0.8-1.1,1.2-2.1,1.2c-0.6,0-1.2-0.2-1.5-0.5
		c-0.4-0.4-0.6-0.8-0.6-1.4c0-1.2,0.7-2,2.2-2.2l2-0.3c0-1.1-0.5-1.6-1.4-1.6c-0.8,0-1.5,0.3-2.2,0.8V4.8H236z M238,7.9
		c-0.5,0.1-0.9,0.2-1.1,0.4c-0.2,0.2-0.3,0.5-0.3,0.8s0.1,0.6,0.3,0.8s0.5,0.3,0.9,0.3c0.5,0,0.9-0.2,1.3-0.5
		c0.3-0.4,0.5-0.8,0.5-1.4V7.6L238,7.9z"/>
	<path d="M242.3,9.6c0.6,0.4,1.2,0.6,1.9,0.6c0.9,0,1.4-0.3,1.4-0.9c0-0.3-0.1-0.5-0.3-0.6c-0.2-0.2-0.6-0.4-1.2-0.6
		c-0.7-0.3-1.2-0.6-1.4-0.9s-0.3-0.6-0.3-1.1c0-0.6,0.3-1.1,0.8-1.4c0.5-0.4,1.1-0.5,1.9-0.5c0.6,0,1.1,0.1,1.6,0.3v1.1
		c-0.5-0.3-1.1-0.5-1.7-0.5c-0.4,0-0.7,0.1-0.9,0.2c-0.2,0.2-0.4,0.4-0.4,0.7c0,0.3,0.1,0.5,0.3,0.6s0.6,0.3,1.1,0.6
		c0.7,0.3,1.2,0.6,1.5,0.9c0.3,0.3,0.4,0.7,0.4,1.1c0,0.6-0.3,1.1-0.8,1.4c-0.5,0.4-1.2,0.5-1.9,0.5s-1.3-0.1-1.8-0.4V9.6H242.3z"/>
	<path d="M256.7,10.7c-0.5,0.3-1.1,0.5-1.9,0.5c-1,0-1.7-0.3-2.3-0.9c-0.6-0.6-0.9-1.4-0.9-2.4c0-1.1,0.3-2,1-2.7
		c0.6-0.7,1.5-1,2.5-1c0.6,0,1.1,0.1,1.6,0.3v1.2c-0.5-0.3-1-0.5-1.6-0.5c-0.7,0-1.2,0.2-1.7,0.7c-0.4,0.5-0.6,1.1-0.6,1.9
		s0.2,1.4,0.6,1.8c0.4,0.4,0.9,0.7,1.6,0.7c0.6,0,1.1-0.2,1.6-0.6v1H256.7z"/>
	<path d="M258.4,4.8c0.7-0.4,1.4-0.6,2.3-0.6c1.6,0,2.4,0.8,2.4,2.5V11H262v-1l0,0c-0.5,0.8-1.1,1.2-2.1,1.2c-0.6,0-1.2-0.2-1.5-0.5
		c-0.4-0.4-0.6-0.8-0.6-1.4c0-1.2,0.7-2,2.2-2.2l2-0.3c0-1.1-0.5-1.6-1.4-1.6c-0.8,0-1.5,0.3-2.2,0.8V4.8z M260.4,7.9
		c-0.5,0.1-0.9,0.2-1.1,0.4S259,8.8,259,9.1s0.1,0.6,0.3,0.8c0.2,0.2,0.5,0.3,0.9,0.3c0.5,0,0.9-0.2,1.3-0.5
		c0.3-0.4,0.5-0.8,0.5-1.4V7.6L260.4,7.9z"/>
	<path d="M268.3,10.9c-0.3,0.1-0.6,0.2-1,0.2c-1.2,0-1.8-0.7-1.8-2V5.3h-1.1v-1h1.1V2.7l1.2-0.4v2h1.7v1h-1.7V9
		c0,0.4,0.1,0.8,0.2,0.9c0.1,0.2,0.4,0.3,0.7,0.3c0.3,0,0.5-0.1,0.7-0.2L268.3,10.9L268.3,10.9z"/>
	<path d="M275.1,8h-4.7c0,0.7,0.2,1.3,0.6,1.7s0.9,0.6,1.6,0.6c0.8,0,1.4-0.2,2.1-0.7v1.1c-0.6,0.4-1.4,0.6-2.3,0.6
		c-1,0-1.7-0.3-2.3-0.9c-0.5-0.6-0.8-1.5-0.8-2.6c0-1,0.3-1.9,0.9-2.5c0.6-0.7,1.3-1,2.2-1c0.9,0,1.6,0.3,2,0.8s0.7,1.3,0.7,2.4
		L275.1,8L275.1,8z M273.9,7c0-0.6-0.1-1.1-0.4-1.4s-0.7-0.5-1.2-0.5s-0.9,0.2-1.2,0.5c-0.3,0.4-0.6,0.8-0.6,1.4H273.9z"/>
	<path d="M282.5,10.4c0,2.5-1.2,3.7-3.6,3.7c-0.8,0-1.6-0.2-2.2-0.5v-1.1c0.7,0.4,1.5,0.6,2.1,0.6c1.6,0,2.4-0.9,2.4-2.6V9.9l0,0
		c-0.5,0.8-1.3,1.3-2.3,1.3c-0.8,0-1.5-0.3-2-0.9s-0.8-1.4-0.8-2.4c0-1.1,0.3-2,0.8-2.7c0.6-0.7,1.3-1,2.2-1c0.9,0,1.6,0.4,2,1.1
		l0,0v-1h1.2v6.1H282.5z M281.3,7c0-0.5-0.2-1-0.5-1.3c-0.4-0.4-0.8-0.6-1.3-0.6c-0.6,0-1.1,0.2-1.5,0.7s-0.5,1.1-0.5,1.9
		c0,0.7,0.2,1.3,0.5,1.7s0.8,0.7,1.4,0.7s1-0.2,1.4-0.6s0.5-1,0.5-1.6V7z"/>
	<path d="M284.1,7.7c0-1.1,0.3-2,0.9-2.6s1.5-1,2.5-1s1.8,0.3,2.4,0.9s0.9,1.5,0.9,2.5c0,1.1-0.3,1.9-0.9,2.6c-0.6,0.6-1.4,1-2.4,1
		s-1.8-0.3-2.4-0.9C284.4,9.6,284.1,8.8,284.1,7.7z M285.3,7.7c0,0.8,0.2,1.4,0.6,1.8c0.4,0.4,0.9,0.7,1.6,0.7s1.2-0.2,1.5-0.6
		c0.4-0.4,0.5-1.1,0.5-1.9s-0.2-1.4-0.5-1.9c-0.4-0.4-0.9-0.7-1.5-0.7c-0.7,0-1.2,0.2-1.6,0.7C285.5,6.3,285.3,6.9,285.3,7.7z"/>
	<path d="M296,5.5c-0.2-0.1-0.5-0.2-0.8-0.2c-0.5,0-0.8,0.2-1.1,0.6c-0.3,0.4-0.4,1-0.4,1.7V11h-1.2V4.3h1.2v1.4l0,0
		c0.3-1,0.9-1.5,1.8-1.5c0.3,0,0.5,0,0.6,0.1v1.2H296z"/>
	<path d="M299.4,0.9L297.7,3h-0.9l1.5-2.1C298.3,0.9,299.4,0.9,299.4,0.9z M297.2,11V4.3h1.2V11H297.2z"/>
	<path d="M300.6,4.8c0.7-0.4,1.4-0.6,2.3-0.6c1.6,0,2.4,0.8,2.4,2.5V11h-1.2v-1l0,0c-0.5,0.8-1.1,1.2-2.1,1.2
		c-0.6,0-1.2-0.2-1.5-0.5c-0.4-0.4-0.6-0.8-0.6-1.4c0-1.2,0.7-2,2.2-2.2l2-0.3c0-1.1-0.5-1.6-1.4-1.6c-0.8,0-1.5,0.3-2.2,0.8V4.8
		H300.6z M302.6,7.9c-0.5,0.1-0.9,0.2-1.1,0.4s-0.3,0.5-0.3,0.8s0.1,0.6,0.3,0.8c0.2,0.2,0.5,0.3,0.9,0.3c0.5,0,0.9-0.2,1.3-0.5
		c0.3-0.4,0.5-0.8,0.5-1.4V7.6L302.6,7.9z"/>
	<path d="M307,9.6c0.6,0.4,1.2,0.6,1.9,0.6c0.9,0,1.4-0.3,1.4-0.9c0-0.3-0.1-0.5-0.3-0.6c-0.2-0.2-0.6-0.4-1.2-0.6
		c-0.7-0.3-1.2-0.6-1.4-0.9c-0.2-0.3-0.3-0.6-0.3-1.1c0-0.6,0.3-1.1,0.8-1.4c0.5-0.4,1.1-0.5,1.9-0.5c0.6,0,1.1,0.1,1.6,0.3v1.1
		c-0.5-0.3-1.1-0.5-1.7-0.5c-0.4,0-0.7,0.1-0.9,0.2c-0.2,0.2-0.4,0.4-0.4,0.7c0,0.3,0.1,0.5,0.3,0.6c0.2,0.1,0.6,0.3,1.1,0.6
		c0.7,0.3,1.2,0.6,1.5,0.9c0.3,0.3,0.4,0.7,0.4,1.1c0,0.6-0.3,1.1-0.8,1.4c-0.5,0.4-1.2,0.5-1.9,0.5c-0.7,0-1.3-0.1-1.8-0.4V9.6H307
		z"/>
</g>
<g>
	<path d="M93.7,248.7c0,1-0.3,1.9-1,2.5s-1.6,1-2.8,1c-1,0-1.7-0.1-2.2-0.4v-1.4c0.7,0.5,1.4,0.7,2.2,0.7c0.7,0,1.3-0.2,1.8-0.6
		c0.5-0.4,0.7-0.9,0.7-1.6s-0.2-1.2-0.7-1.6c-0.5-0.4-1.1-0.6-2-0.6c-0.7,0-1.3,0-1.8,0.1l0.4-5.4h4.9v1.2h-3.8l-0.2,3h1
		c1.1,0,2,0.3,2.6,0.8C93.4,246.9,93.7,247.7,93.7,248.7z"/>
	<path d="M100.2,245c0.8-0.5,1.6-0.7,2.6-0.7c1.8,0,2.7,1,2.7,2.9v4.9h-1.3v-1.2l0,0c-0.5,0.9-1.3,1.3-2.3,1.3
		c-0.7,0-1.3-0.2-1.8-0.6s-0.6-0.9-0.6-1.6c0-1.4,0.8-2.2,2.5-2.5l2.2-0.3c0-1.2-0.5-1.9-1.5-1.9c-0.9,0-1.7,0.3-2.5,0.9L100.2,245
		L100.2,245z M102.5,248.4c-0.6,0.1-1,0.2-1.3,0.5s-0.4,0.5-0.4,1c0,0.4,0.1,0.7,0.4,0.9s0.6,0.3,1,0.3c0.6,0,1.1-0.2,1.4-0.6
		s0.6-0.9,0.6-1.5v-0.7L102.5,248.4z"/>
	<path d="M114.2,252h-1.3v-4.3c0-1.6-0.6-2.3-1.7-2.3c-0.6,0-1.1,0.2-1.4,0.7s-0.6,1-0.6,1.7v4.3h-1.3v-7.6h1.3v1.3l0,0
		c0.6-1,1.4-1.4,2.5-1.4c0.8,0,1.5,0.3,1.9,0.8s0.6,1.3,0.6,2.3V252z M113.4,241.2c0,0.5-0.1,1-0.4,1.3c-0.2,0.3-0.6,0.5-1,0.5
		s-0.8-0.1-1.2-0.4c-0.4-0.2-0.7-0.3-0.9-0.3c-0.4,0-0.6,0.3-0.6,0.8h-0.7c0-0.6,0.1-1,0.4-1.3s0.6-0.5,1-0.5c0.3,0,0.7,0.1,1.1,0.4
		c0.4,0.2,0.7,0.3,0.9,0.3c0.4,0,0.6-0.3,0.6-0.9L113.4,241.2L113.4,241.2z"/>
	<path d="M115.9,248.3c0-1.2,0.3-2.2,1-3c0.7-0.7,1.6-1.1,2.8-1.1c1.1,0,2,0.3,2.7,1c0.6,0.7,1,1.7,1,2.9s-0.3,2.2-1,2.9
		s-1.6,1.1-2.8,1.1c-1.1,0-2-0.4-2.7-1.1S115.9,249.5,115.9,248.3z M117.3,248.3c0,0.9,0.2,1.6,0.7,2.1s1,0.8,1.8,0.8
		s1.3-0.2,1.8-0.7c0.4-0.5,0.6-1.2,0.6-2.1c0-0.9-0.2-1.6-0.6-2.1s-1-0.7-1.8-0.7s-1.3,0.3-1.8,0.8S117.3,247.4,117.3,248.3z"/>
	<path d="M124.9,250.4c0.7,0.5,1.4,0.7,2.2,0.7c1,0,1.6-0.3,1.6-1c0-0.3-0.1-0.5-0.3-0.7s-0.7-0.4-1.4-0.7c-0.8-0.3-1.4-0.7-1.6-1
		c-0.3-0.3-0.4-0.7-0.4-1.2c0-0.7,0.3-1.2,0.9-1.6c0.6-0.4,1.3-0.6,2.1-0.6c0.6,0,1.2,0.1,1.8,0.3v1.3c-0.6-0.4-1.2-0.5-1.9-0.5
		c-0.4,0-0.8,0.1-1,0.3s-0.4,0.4-0.4,0.7s0.1,0.5,0.3,0.7s0.6,0.4,1.3,0.6c0.8,0.3,1.4,0.6,1.7,1s0.4,0.8,0.4,1.3
		c0,0.7-0.3,1.2-0.9,1.6c-0.6,0.4-1.3,0.6-2.2,0.6c-0.8,0-1.5-0.1-2.1-0.4L124.9,250.4L124.9,250.4z"/>
</g>
<g>
	<path d="M293.7,252v-9.1c-0.2,0.2-0.6,0.4-1.1,0.7s-1,0.4-1.4,0.5v-1.3c0.6-0.2,1.2-0.4,1.8-0.7c0.6-0.3,1.1-0.7,1.5-1h0.5V252
		H293.7z"/>
	<path d="M298.6,246.9c0-1.9,0.3-3.3,0.9-4.2c0.6-1,1.5-1.4,2.7-1.4c2.2,0,3.4,1.8,3.4,5.4c0,1.8-0.3,3.2-0.9,4.1
		c-0.6,0.9-1.5,1.4-2.7,1.4c-1.1,0-1.9-0.4-2.5-1.3S298.6,248.6,298.6,246.9z M300,246.9c0,2.8,0.7,4.2,2.1,4.2s2.1-1.4,2.1-4.3
		c0-3-0.7-4.4-2.1-4.4C300.7,242.3,300,243.8,300,246.9z"/>
	<path d="M311.7,245c0.8-0.5,1.6-0.7,2.6-0.7c1.8,0,2.7,1,2.7,2.9v4.9h-1.3v-1.2l0,0c-0.5,0.9-1.3,1.3-2.3,1.3
		c-0.7,0-1.3-0.2-1.8-0.6s-0.6-0.9-0.6-1.6c0-1.4,0.8-2.2,2.5-2.5l2.2-0.3c0-1.2-0.5-1.9-1.5-1.9c-0.9,0-1.7,0.3-2.5,0.9L311.7,245
		L311.7,245z M314,248.4c-0.6,0.1-1,0.2-1.3,0.5s-0.4,0.5-0.4,1c0,0.4,0.1,0.7,0.4,0.9s0.6,0.3,1,0.3c0.6,0,1.1-0.2,1.4-0.6
		s0.6-0.9,0.6-1.5v-0.7L314,248.4z"/>
	<path d="M325.7,252h-1.3v-4.3c0-1.6-0.6-2.3-1.7-2.3c-0.6,0-1.1,0.2-1.4,0.7s-0.6,1-0.6,1.7v4.3h-1.3v-7.6h1.3v1.3l0,0
		c0.6-1,1.4-1.4,2.5-1.4c0.8,0,1.5,0.3,1.9,0.8s0.6,1.3,0.6,2.3V252z M324.9,241.2c0,0.5-0.1,1-0.4,1.3c-0.2,0.3-0.6,0.5-1,0.5
		s-0.8-0.1-1.2-0.4c-0.4-0.2-0.7-0.3-0.9-0.3c-0.4,0-0.6,0.3-0.6,0.8h-0.7c0-0.6,0.1-1,0.4-1.3s0.6-0.5,1-0.5c0.3,0,0.7,0.1,1.1,0.4
		c0.4,0.2,0.7,0.3,0.9,0.3c0.4,0,0.6-0.3,0.6-0.9L324.9,241.2L324.9,241.2z"/>
	<path d="M327.4,248.3c0-1.2,0.3-2.2,1-3c0.7-0.7,1.6-1.1,2.8-1.1c1.1,0,2,0.3,2.7,1c0.6,0.7,1,1.7,1,2.9s-0.3,2.2-1,2.9
		s-1.6,1.1-2.8,1.1c-1.1,0-2-0.4-2.7-1.1S327.4,249.5,327.4,248.3z M328.8,248.3c0,0.9,0.2,1.6,0.7,2.1s1,0.8,1.8,0.8
		s1.3-0.2,1.8-0.7c0.4-0.5,0.6-1.2,0.6-2.1c0-0.9-0.2-1.6-0.6-2.1s-1-0.7-1.8-0.7s-1.3,0.3-1.8,0.8S328.8,247.4,328.8,248.3z"/>
	<path d="M336.4,250.4c0.7,0.5,1.4,0.7,2.2,0.7c1,0,1.6-0.3,1.6-1c0-0.3-0.1-0.5-0.3-0.7c-0.2-0.2-0.7-0.4-1.4-0.7
		c-0.8-0.3-1.4-0.7-1.6-1c-0.3-0.3-0.4-0.7-0.4-1.2c0-0.7,0.3-1.2,0.9-1.6c0.6-0.4,1.3-0.6,2.1-0.6c0.6,0,1.2,0.1,1.8,0.3v1.3
		c-0.6-0.4-1.2-0.5-1.9-0.5c-0.4,0-0.8,0.1-1,0.3s-0.4,0.4-0.4,0.7s0.1,0.5,0.3,0.7s0.6,0.4,1.3,0.6c0.8,0.3,1.4,0.6,1.7,1
		c0.3,0.3,0.4,0.8,0.4,1.3c0,0.7-0.3,1.2-0.9,1.6c-0.6,0.4-1.3,0.6-2.2,0.6c-0.8,0-1.5-0.1-2.1-0.4v-1.4H336.4z"/>
</g>
<g>
	<path d="M500.1,244.2c0-0.6-0.2-1-0.5-1.3c-0.4-0.3-0.8-0.5-1.5-0.5c-0.4,0-0.9,0.1-1.3,0.3s-0.9,0.5-1.3,1v-1.3
		c0.3-0.4,0.7-0.6,1.2-0.8c0.4-0.2,1-0.3,1.5-0.3c1,0,1.7,0.3,2.3,0.8c0.6,0.5,0.9,1.2,0.9,2.1c0,0.8-0.2,1.5-0.5,2
		c-0.4,0.6-1,1.2-1.8,1.8c-0.9,0.6-1.5,1-1.8,1.3s-0.5,0.5-0.6,0.8c-0.1,0.2-0.2,0.5-0.2,0.9h5.3v1.2h-6.7v-0.5
		c0-0.6,0.1-1.1,0.3-1.6c0.2-0.4,0.4-0.8,0.8-1.2s1-0.9,1.8-1.5s1.4-1.1,1.7-1.5C499.9,245.2,500.1,244.7,500.1,244.2z"/>
	<path d="M503.1,246.9c0-1.9,0.3-3.3,0.9-4.2c0.6-1,1.5-1.4,2.7-1.4c2.2,0,3.4,1.8,3.4,5.4c0,1.8-0.3,3.2-0.9,4.1
		c-0.6,0.9-1.5,1.4-2.7,1.4c-1.1,0-1.9-0.4-2.5-1.3C503.4,249.9,503.1,248.6,503.1,246.9z M504.5,246.9c0,2.8,0.7,4.2,2.1,4.2
		s2.1-1.4,2.1-4.3c0-3-0.7-4.4-2.1-4.4C505.2,242.3,504.5,243.8,504.5,246.9z"/>
	<path d="M516.2,245c0.8-0.5,1.6-0.7,2.6-0.7c1.8,0,2.7,1,2.7,2.9v4.9h-1.3v-1.2l0,0c-0.5,0.9-1.3,1.3-2.3,1.3
		c-0.7,0-1.3-0.2-1.8-0.6c-0.4-0.4-0.6-0.9-0.6-1.6c0-1.4,0.8-2.2,2.5-2.5l2.2-0.3c0-1.2-0.5-1.9-1.5-1.9c-0.9,0-1.7,0.3-2.5,0.9
		L516.2,245L516.2,245z M518.4,248.4c-0.6,0.1-1,0.2-1.3,0.5c-0.2,0.2-0.4,0.5-0.4,1c0,0.4,0.1,0.7,0.4,0.9c0.3,0.2,0.6,0.3,1,0.3
		c0.6,0,1.1-0.2,1.4-0.6c0.4-0.4,0.6-0.9,0.6-1.5v-0.7L518.4,248.4z"/>
	<path d="M530.2,252h-1.3v-4.3c0-1.6-0.6-2.3-1.7-2.3c-0.6,0-1.1,0.2-1.4,0.7c-0.4,0.4-0.6,1-0.6,1.7v4.3h-1.3v-7.6h1.3v1.3l0,0
		c0.6-1,1.4-1.4,2.5-1.4c0.8,0,1.5,0.3,1.9,0.8s0.6,1.3,0.6,2.3V252z M529.3,241.2c0,0.5-0.1,1-0.4,1.3c-0.2,0.3-0.6,0.5-1,0.5
		s-0.8-0.1-1.2-0.4c-0.4-0.2-0.7-0.3-0.9-0.3c-0.4,0-0.6,0.3-0.6,0.8h-0.7c0-0.6,0.1-1,0.4-1.3c0.2-0.3,0.6-0.5,1-0.5
		c0.3,0,0.7,0.1,1.1,0.4c0.4,0.2,0.7,0.3,0.9,0.3c0.4,0,0.6-0.3,0.6-0.9L529.3,241.2L529.3,241.2z"/>
	<path d="M531.9,248.3c0-1.2,0.3-2.2,1-3c0.7-0.7,1.6-1.1,2.8-1.1c1.1,0,2,0.3,2.7,1c0.6,0.7,1,1.7,1,2.9s-0.3,2.2-1,2.9
		s-1.6,1.1-2.8,1.1c-1.1,0-2-0.4-2.7-1.1C532.2,250.4,531.9,249.5,531.9,248.3z M533.3,248.3c0,0.9,0.2,1.6,0.7,2.1
		c0.4,0.5,1,0.8,1.8,0.8s1.3-0.2,1.8-0.7c0.4-0.5,0.6-1.2,0.6-2.1c0-0.9-0.2-1.6-0.6-2.1c-0.4-0.5-1-0.7-1.8-0.7s-1.3,0.3-1.8,0.8
		C533.5,246.7,533.3,247.4,533.3,248.3z"/>
	<path d="M540.9,250.4c0.7,0.5,1.4,0.7,2.2,0.7c1,0,1.6-0.3,1.6-1c0-0.3-0.1-0.5-0.3-0.7s-0.7-0.4-1.4-0.7c-0.8-0.3-1.4-0.7-1.6-1
		c-0.3-0.3-0.4-0.7-0.4-1.2c0-0.7,0.3-1.2,0.9-1.6c0.6-0.4,1.3-0.6,2.1-0.6c0.6,0,1.2,0.1,1.8,0.3v1.3c-0.6-0.4-1.2-0.5-1.9-0.5
		c-0.4,0-0.8,0.1-1,0.3c-0.3,0.2-0.4,0.4-0.4,0.7s0.1,0.5,0.3,0.7s0.6,0.4,1.3,0.6c0.8,0.3,1.4,0.6,1.7,1c0.3,0.3,0.4,0.8,0.4,1.3
		c0,0.7-0.3,1.2-0.9,1.6c-0.6,0.4-1.3,0.6-2.2,0.6c-0.8,0-1.5-0.1-2.1-0.4L540.9,250.4L540.9,250.4z"/>
</g>
<g>
	<path d="M613.7,186.8v-5.4h1.6c0.5,0,0.8,0.1,1.2,0.4c0.2,0.2,0.5,0.5,0.5,1c0,0.4-0.1,0.6-0.2,0.8c-0.1,0.2-0.4,0.4-0.7,0.5l0,0
		c0.4,0,0.7,0.2,0.8,0.5s0.4,0.6,0.4,1c0,0.5-0.1,0.8-0.5,1.1s-0.7,0.5-1.3,0.5h-1.7V186.8z M614.4,181.9v1.7h0.6
		c0.4,0,0.6-0.1,0.8-0.2c0.2-0.1,0.2-0.4,0.2-0.7c0-0.5-0.4-0.7-1.1-0.7L614.4,181.9L614.4,181.9z M614.4,184.3v1.9h0.8
		c0.4,0,0.6-0.1,0.8-0.2c0.2-0.1,0.4-0.4,0.4-0.7c0-0.6-0.5-1-1.3-1H614.4z"/>
	<path d="M618,181.5c0-0.1,0-0.2,0.1-0.4c0.1-0.1,0.2-0.1,0.4-0.1s0.2,0,0.4,0.1c0.1,0.1,0.1,0.2,0.1,0.4c0,0.1,0,0.2-0.1,0.4
		c-0.1,0.1-0.2,0.1-0.4,0.1s-0.2,0-0.4-0.1C618,181.8,618,181.6,618,181.5z M618.1,186.8V183h0.7v3.9H618.1z"/>
	<path d="M623.2,185h-2.8c0,0.4,0.1,0.7,0.4,1s0.5,0.4,1,0.4c0.5,0,0.8-0.1,1.2-0.4v0.6c-0.4,0.2-0.8,0.4-1.3,0.4
		c-0.6,0-1-0.1-1.3-0.5c-0.4-0.4-0.5-0.8-0.5-1.4s0.1-1.1,0.5-1.4c0.4-0.4,0.7-0.6,1.3-0.6c0.5,0,1,0.1,1.2,0.5
		c0.2,0.4,0.5,0.8,0.5,1.3v0.2H623.2z M622.5,184.4c0-0.4-0.1-0.6-0.2-0.8c-0.1-0.2-0.4-0.2-0.7-0.2c-0.2,0-0.5,0.1-0.7,0.4
		s-0.4,0.5-0.4,0.8h2.1V184.4z"/>
	<path d="M627.4,186.8h-0.7v-2.3c0-0.8-0.2-1.2-0.8-1.2c-0.4,0-0.6,0.1-0.7,0.4s-0.2,0.5-0.2,0.8v2.2h-0.7v-3.9h0.7v0.6l0,0
		c0.2-0.5,0.7-0.7,1.3-0.7c0.5,0,0.7,0.1,1,0.4s0.4,0.7,0.4,1.2v2.5H627.4z"/>
	<path d="M631.8,185H629c0,0.4,0.1,0.7,0.4,1s0.5,0.4,1,0.4c0.5,0,0.8-0.1,1.2-0.4v0.6c-0.4,0.2-0.8,0.4-1.3,0.4
		c-0.6,0-1-0.1-1.3-0.5c-0.4-0.4-0.5-0.8-0.5-1.4s0.1-1.1,0.5-1.4c0.4-0.4,0.7-0.6,1.3-0.6c0.5,0,1,0.1,1.2,0.5
		c0.2,0.4,0.5,0.8,0.5,1.3v0.2H631.8z M631.1,184.4c0-0.4-0.1-0.6-0.2-0.8c-0.1-0.2-0.4-0.2-0.7-0.2c-0.2,0-0.5,0.1-0.7,0.4
		s-0.4,0.5-0.4,0.8h2.1V184.4z"/>
	<path d="M632.5,186c0.4,0.2,0.7,0.4,1.1,0.4c0.5,0,0.8-0.1,0.8-0.5c0-0.1,0-0.2-0.1-0.4s-0.4-0.2-0.7-0.4c-0.5-0.1-0.7-0.4-0.8-0.5
		c-0.1-0.1-0.2-0.4-0.2-0.6c0-0.4,0.1-0.6,0.5-0.8c0.4-0.2,0.6-0.4,1.1-0.4c0.4,0,0.6,0,1,0.1v0.7c-0.2-0.2-0.6-0.2-1-0.2
		c-0.2,0-0.4,0-0.5,0.1s-0.2,0.2-0.2,0.4c0,0.1,0,0.2,0.1,0.4c0.1,0.1,0.4,0.2,0.7,0.4c0.5,0.1,0.7,0.4,0.8,0.5s0.2,0.4,0.2,0.6
		c0,0.4-0.1,0.6-0.5,0.8c-0.2,0.2-0.7,0.4-1.1,0.4c-0.4,0-0.7-0.1-1.1-0.2V186H632.5z"/>
	<path d="M638.2,181.5c0-0.1,0-0.2,0.1-0.4c0.1-0.1,0.2-0.1,0.4-0.1s0.2,0,0.4,0.1c0.1,0.1,0.1,0.2,0.1,0.4c0,0.1,0,0.2-0.1,0.4
		c-0.1,0.1-0.2,0.1-0.4,0.1s-0.2,0-0.4-0.1C638.2,181.8,638.2,181.6,638.2,181.5z M638.2,186.8V183h0.7v3.9H638.2z"/>
	<path d="M643.5,186.8h-0.7v-2.3c0-0.8-0.2-1.2-0.8-1.2c-0.4,0-0.6,0.1-0.7,0.4s-0.2,0.5-0.2,0.8v2.2h-0.7v-3.9h0.7v0.6l0,0
		c0.2-0.5,0.7-0.7,1.3-0.7c0.5,0,0.7,0.1,1,0.4s0.4,0.7,0.4,1.2v2.5H643.5z"/>
	<path d="M650.2,186.8h-0.7v-2.3c0-0.5-0.1-0.7-0.2-1c-0.1-0.2-0.4-0.2-0.6-0.2s-0.5,0.1-0.6,0.4s-0.2,0.5-0.2,0.8v2.2h-0.7v-2.3
		c0-0.7-0.2-1.1-0.8-1.1c-0.2,0-0.5,0.1-0.6,0.4s-0.2,0.5-0.2,0.8v2.2h-0.7v-3.9h0.7v0.6l0,0c0.2-0.5,0.7-0.7,1.2-0.7
		c0.2,0,0.5,0.1,0.7,0.2c0.2,0.1,0.4,0.4,0.4,0.6c0.2-0.5,0.7-0.8,1.3-0.8c0.8,0,1.3,0.5,1.3,1.6v2.5H650.2z"/>
	<path d="M654.6,186.8H654v-0.6l0,0c-0.2,0.5-0.7,0.7-1.2,0.7c-1,0-1.4-0.6-1.4-1.7V183h0.7v2.3c0,0.8,0.4,1.2,1,1.2
		c0.4,0,0.6-0.1,0.7-0.4c0.2-0.2,0.2-0.5,0.2-0.8V183h0.7v3.9H654.6z"/>
	<path d="M659,185h-2.8c0,0.4,0.1,0.7,0.4,1c0.2,0.2,0.5,0.4,1,0.4c0.5,0,0.8-0.1,1.2-0.4v0.6c-0.4,0.2-0.8,0.4-1.3,0.4
		c-0.6,0-1-0.1-1.3-0.5c-0.4-0.4-0.5-0.8-0.5-1.4s0.1-1.1,0.5-1.4c0.4-0.4,0.7-0.6,1.3-0.6c0.5,0,1,0.1,1.2,0.5
		c0.2,0.4,0.5,0.8,0.5,1.3v0.2H659z M658.3,184.4c0-0.4-0.1-0.6-0.2-0.8c-0.1-0.2-0.4-0.2-0.7-0.2c-0.2,0-0.5,0.1-0.7,0.4
		c-0.2,0.2-0.4,0.5-0.4,0.8h2.1V184.4z"/>
	<path d="M660.6,186.2v0.6H660V181h0.7v2.5l0,0c0.4-0.5,0.7-0.7,1.3-0.7c0.5,0,0.8,0.1,1.2,0.5c0.4,0.4,0.5,0.8,0.5,1.4
		c0,0.6-0.1,1.2-0.5,1.6c-0.4,0.4-0.7,0.6-1.3,0.6C661.3,186.8,661,186.7,660.6,186.2L660.6,186.2z M660.6,185.1
		c0,0.4,0.1,0.6,0.4,0.8s0.5,0.4,0.7,0.4c0.4,0,0.6-0.1,0.8-0.5c0.2-0.4,0.4-0.7,0.4-1.2c0-0.4-0.1-0.7-0.2-1
		c-0.1-0.2-0.5-0.4-0.8-0.4c-0.4,0-0.6,0.1-0.8,0.4s-0.4,0.6-0.4,1L660.6,185.1L660.6,185.1z"/>
	<path d="M664.6,186.8V181h0.7v5.8H664.6z"/>
	<path d="M669.7,185h-2.8c0,0.4,0.1,0.7,0.4,1s0.5,0.4,1,0.4s0.8-0.1,1.2-0.4v0.6c-0.4,0.2-0.8,0.4-1.3,0.4c-0.6,0-1-0.1-1.3-0.5
		c-0.4-0.4-0.5-0.8-0.5-1.4s0.1-1.1,0.5-1.4c0.4-0.4,0.7-0.6,1.3-0.6c0.5,0,1,0.1,1.2,0.5c0.2,0.4,0.5,0.8,0.5,1.3v0.2H669.7z
		 M669.1,184.4c0-0.4-0.1-0.6-0.2-0.8c-0.1-0.2-0.4-0.2-0.7-0.2c-0.2,0-0.5,0.1-0.7,0.4s-0.4,0.5-0.4,0.8h2.1V184.4z"/>
	<path d="M670.4,186c0.4,0.2,0.7,0.4,1.1,0.4c0.5,0,0.8-0.1,0.8-0.5c0-0.1,0-0.2-0.1-0.4s-0.4-0.2-0.7-0.4c-0.5-0.1-0.7-0.4-0.8-0.5
		c-0.1-0.1-0.2-0.4-0.2-0.6c0-0.4,0.1-0.6,0.5-0.8c0.4-0.2,0.6-0.4,1.1-0.4c0.4,0,0.6,0,1,0.1v0.7c-0.2-0.2-0.6-0.2-1-0.2
		c-0.2,0-0.4,0-0.5,0.1c-0.1,0.1-0.2,0.2-0.2,0.4c0,0.1,0,0.2,0.1,0.4c0.1,0.1,0.4,0.2,0.7,0.4c0.5,0.1,0.7,0.4,0.8,0.5
		c0.1,0.1,0.2,0.4,0.2,0.6c0,0.4-0.1,0.6-0.5,0.8c-0.2,0.2-0.7,0.4-1.1,0.4c-0.4,0-0.7-0.1-1.1-0.2V186H670.4z"/>
</g>
<g>
	<path d="M618,207.9h-0.7l-0.6-1.4h-2.3l-0.5,1.4h-0.7l2.1-5.4h0.7L618,207.9z M616.5,205.7l-0.8-2.3c0-0.1,0-0.2-0.1-0.4l0,0
		c0,0.1,0,0.2-0.1,0.4l-0.8,2.3H616.5z"/>
	<path d="M621.4,207.6c-0.2,0.1-0.6,0.2-1.1,0.2c-0.6,0-1-0.2-1.3-0.6c-0.4-0.4-0.5-0.8-0.5-1.4c0-0.6,0.2-1.2,0.6-1.6
		c0.4-0.4,0.8-0.6,1.4-0.6c0.4,0,0.7,0.1,1,0.2v0.7c-0.2-0.2-0.6-0.4-1-0.4c-0.4,0-0.7,0.1-1,0.4c-0.2,0.2-0.4,0.6-0.4,1.1
		s0.1,0.8,0.4,1.1s0.6,0.4,1,0.4c0.4,0,0.6-0.1,1-0.4v0.8H621.4z"/>
	<path d="M625,207.6c-0.2,0.1-0.6,0.2-1.1,0.2c-0.6,0-1-0.2-1.3-0.6c-0.4-0.4-0.5-0.8-0.5-1.4c0-0.6,0.2-1.2,0.6-1.6
		s0.8-0.6,1.4-0.6c0.4,0,0.7,0.1,1,0.2v0.7c-0.2-0.2-0.6-0.4-1-0.4c-0.4,0-0.7,0.1-1,0.4c-0.2,0.2-0.4,0.6-0.4,1.1s0.1,0.8,0.4,1.1
		c0.2,0.2,0.6,0.4,1,0.4c0.4,0,0.6-0.1,1-0.4v0.8H625z"/>
	<path d="M625.9,202.6c0-0.1,0-0.2,0.1-0.4c0.1-0.1,0.2-0.1,0.4-0.1s0.2,0,0.4,0.1c0.1,0.1,0.1,0.2,0.1,0.4c0,0.1,0,0.2-0.1,0.4
		c-0.1,0.1-0.2,0.1-0.4,0.1s-0.2,0-0.4-0.1C625.9,202.8,625.9,202.7,625.9,202.6z M626,207.9V204h0.7v3.9H626z"/>
	<path d="M627.6,206c0-0.6,0.1-1.2,0.5-1.6c0.4-0.4,0.8-0.6,1.4-0.6c0.6,0,1.1,0.1,1.3,0.5s0.5,0.8,0.5,1.4s-0.1,1.1-0.5,1.4
		c-0.4,0.4-0.8,0.6-1.4,0.6c-0.6,0-1.1-0.2-1.4-0.6C627.6,206.8,627.6,206.6,627.6,206z M628.3,206c0,0.5,0.1,0.8,0.4,1.1
		c0.2,0.2,0.5,0.4,1,0.4c0.4,0,0.7-0.1,1-0.4c0.2-0.2,0.4-0.6,0.4-1.1s-0.1-0.8-0.4-1.1c-0.2-0.2-0.5-0.4-1-0.4
		c-0.4,0-0.7,0.1-1,0.4C628.4,205.1,628.3,205.5,628.3,206z"/>
	<path d="M635.8,207.9H635v-2.3c0-0.8-0.2-1.2-0.8-1.2c-0.4,0-0.6,0.1-0.7,0.4s-0.2,0.5-0.2,0.8v2.2h-0.7v-3.9h0.7v0.6l0,0
		c0.2-0.5,0.7-0.7,1.3-0.7c0.5,0,0.7,0.1,1,0.4s0.4,0.7,0.4,1.2v2.5H635.8z"/>
	<path d="M640.1,206.1h-2.8c0,0.4,0.1,0.7,0.4,1s0.5,0.4,1,0.4c0.5,0,0.8-0.1,1.2-0.4v0.6c-0.4,0.2-0.8,0.4-1.3,0.4
		c-0.6,0-1-0.1-1.3-0.5c-0.4-0.4-0.5-0.8-0.5-1.4c0-0.6,0.1-1.1,0.5-1.4c0.4-0.4,0.7-0.6,1.3-0.6c0.5,0,1,0.1,1.2,0.5
		c0.2,0.4,0.5,0.8,0.5,1.3v0.2H640.1z M639.4,205.5c0-0.4-0.1-0.6-0.2-0.8c-0.1-0.2-0.4-0.2-0.7-0.2c-0.2,0-0.5,0.1-0.7,0.4
		s-0.4,0.5-0.4,0.8h2.1V205.5z"/>
	<path d="M640.8,207c0.4,0.2,0.7,0.4,1.1,0.4c0.5,0,0.8-0.1,0.8-0.5c0-0.1,0-0.2-0.1-0.4c-0.1-0.1-0.4-0.2-0.7-0.4
		c-0.5-0.1-0.7-0.4-0.8-0.5c-0.1-0.1-0.2-0.4-0.2-0.6c0-0.4,0.1-0.6,0.5-0.8c0.4-0.2,0.6-0.4,1.1-0.4c0.4,0,0.6,0,1,0.1v0.7
		c-0.2-0.2-0.6-0.2-1-0.2c-0.2,0-0.4,0-0.5,0.1s-0.2,0.2-0.2,0.4c0,0.1,0,0.2,0.1,0.4c0.1,0.1,0.4,0.2,0.7,0.4
		c0.5,0.1,0.7,0.4,0.8,0.5c0.1,0.1,0.2,0.4,0.2,0.6c0,0.4-0.1,0.6-0.5,0.8c-0.2,0.2-0.7,0.4-1.1,0.4s-0.7-0.1-1.1-0.2V207H640.8z"/>
</g>
<g>
	<path d="M613.7,225.7v-5.4h1.6c0.8,0,1.6,0.2,2.1,0.7c0.5,0.5,0.8,1.1,0.8,1.9c0,0.8-0.2,1.6-0.8,2.1c-0.6,0.5-1.2,0.7-2.2,0.7
		L613.7,225.7L613.7,225.7z M614.4,220.9v4.2h0.8c0.7,0,1.2-0.2,1.6-0.6c0.4-0.4,0.6-1,0.6-1.6c0-0.6-0.2-1.2-0.6-1.6
		c-0.4-0.4-1-0.5-1.6-0.5H614.4z"/>
	<path d="M622.2,224h-2.8c0,0.4,0.1,0.7,0.4,1s0.5,0.4,1,0.4c0.5,0,0.8-0.1,1.2-0.4v0.6c-0.4,0.2-0.8,0.4-1.3,0.4
		c-0.6,0-1-0.1-1.3-0.5c-0.4-0.4-0.5-0.8-0.5-1.4c0-0.6,0.1-1.1,0.5-1.4c0.4-0.4,0.7-0.6,1.3-0.6c0.5,0,1,0.1,1.2,0.5
		c0.2,0.4,0.5,0.8,0.5,1.3v0.2H622.2z M621.5,223.4c0-0.4-0.1-0.6-0.2-0.8c-0.1-0.2-0.4-0.2-0.7-0.2c-0.2,0-0.5,0.1-0.7,0.4
		c-0.2,0.2-0.4,0.5-0.4,0.8h2.1V223.4z"/>
	<path d="M626.5,225.7h-0.7v-0.6l0,0c-0.2,0.5-0.6,0.7-1.2,0.7c-1,0-1.4-0.6-1.4-1.7v-2.3h0.7v2.3c0,0.8,0.4,1.2,1,1.2
		c0.4,0,0.6-0.1,0.7-0.4c0.2-0.2,0.2-0.5,0.2-0.8v-2.3h0.7L626.5,225.7L626.5,225.7z"/>
	<path d="M631.1,225.7h-0.7v-0.6l0,0c-0.2,0.5-0.7,0.7-1.3,0.7c-0.5,0-0.8-0.1-1.2-0.5c-0.4-0.4-0.5-0.8-0.5-1.4
		c0-0.6,0.1-1.2,0.5-1.6c0.4-0.4,0.7-0.6,1.3-0.6s1,0.2,1.2,0.6l0,0v-2.4h0.7V225.7z M630.3,223.4c0-0.4-0.1-0.6-0.4-0.8
		s-0.5-0.4-0.7-0.4c-0.4,0-0.6,0.1-0.8,0.4c-0.2,0.2-0.4,0.6-0.4,1.1s0.1,0.7,0.4,1.1c0.2,0.4,0.5,0.4,0.8,0.4
		c0.4,0,0.6-0.1,0.8-0.4c0.2-0.2,0.4-0.6,0.4-1v-0.4H630.3z"/>
	<path d="M632.4,222.1c0.4-0.2,0.8-0.4,1.3-0.4c1,0,1.4,0.5,1.4,1.4v2.5h-0.7v-0.6l0,0c-0.2,0.5-0.7,0.7-1.2,0.7
		c-0.4,0-0.7-0.1-1-0.4c-0.2-0.2-0.4-0.5-0.4-0.8c0-0.7,0.5-1.2,1.3-1.3l1.2-0.1c0-0.6-0.2-1-0.8-1c-0.5,0-0.8,0.1-1.3,0.5v-0.6
		H632.4z M633.6,223.9c-0.4,0-0.5,0.1-0.6,0.2s-0.2,0.2-0.2,0.5s0.1,0.4,0.2,0.5s0.4,0.1,0.5,0.1c0.4,0,0.6-0.1,0.7-0.4
		s0.2-0.5,0.2-0.8v-0.4L633.6,223.9z"/>
	<path d="M636.1,224.8c0.4,0.2,0.7,0.4,1.1,0.4c0.5,0,0.8-0.1,0.8-0.5c0-0.1,0-0.2-0.1-0.4c-0.1-0.1-0.4-0.2-0.7-0.4
		c-0.5-0.1-0.7-0.4-0.8-0.5c-0.1-0.1-0.2-0.4-0.2-0.6c0-0.4,0.1-0.6,0.5-0.8c0.2-0.2,0.6-0.4,1.1-0.4c0.4,0,0.6,0,1,0.1v0.7
		c-0.2-0.2-0.6-0.2-1-0.2c-0.2,0-0.4,0-0.5,0.1c-0.1,0.1-0.2,0.2-0.2,0.4s0,0.2,0.1,0.4c0.1,0.1,0.4,0.2,0.7,0.4
		c0.5,0.1,0.7,0.4,0.8,0.5c0.1,0.1,0.2,0.4,0.2,0.6c0,0.4-0.1,0.6-0.5,0.8c-0.2,0.2-0.7,0.4-1.1,0.4s-0.7-0.1-1.1-0.2v-0.7H636.1z"
		/>
	<path d="M645,225.7h-0.7v-2.2c0-0.8-0.2-1.2-0.8-1.2c-0.4,0-0.6,0.1-0.7,0.4s-0.2,0.5-0.2,0.8v2.2h-0.7v-3.9h0.7v0.6l0,0
		c0.2-0.5,0.7-0.7,1.3-0.7c0.5,0,0.7,0.1,1,0.4c0.2,0.2,0.4,0.7,0.4,1.2v2.4H645z"/>
	<path d="M646.4,222.1c0.4-0.2,0.8-0.4,1.3-0.4c1,0,1.4,0.5,1.4,1.4v2.5h-0.7v-0.6l0,0c-0.2,0.5-0.7,0.7-1.2,0.7
		c-0.4,0-0.7-0.1-1-0.4c-0.2-0.2-0.4-0.5-0.4-0.8c0-0.7,0.5-1.2,1.3-1.3l1.2-0.1c0-0.6-0.2-1-0.8-1c-0.5,0-0.8,0.1-1.3,0.5v-0.6
		H646.4z M647.5,223.9c-0.4,0-0.5,0.1-0.6,0.2s-0.2,0.2-0.2,0.5s0.1,0.4,0.2,0.5s0.4,0.1,0.5,0.1c0.4,0,0.6-0.1,0.7-0.4
		s0.2-0.5,0.2-0.8v-0.4L647.5,223.9z"/>
	<path d="M652.9,225.6c-0.2,0.1-0.6,0.2-1.1,0.2c-0.6,0-1-0.2-1.3-0.6c-0.4-0.4-0.5-0.8-0.5-1.4c0-0.6,0.2-1.2,0.6-1.6
		c0.4-0.4,0.8-0.6,1.4-0.6c0.4,0,0.7,0.1,1,0.2v0.7c-0.2-0.2-0.6-0.4-1-0.4c-0.4,0-0.7,0.1-1,0.4c-0.2,0.2-0.4,0.6-0.4,1.1
		s0.1,0.8,0.4,1.1c0.2,0.2,0.6,0.4,1,0.4c0.4,0,0.6-0.1,1-0.4v0.8H652.9z"/>
	<path d="M653.7,220.5c0-0.1,0-0.2,0.1-0.4s0.2-0.1,0.4-0.1s0.2,0,0.4,0.1s0.1,0.2,0.1,0.4c0,0.1,0,0.2-0.1,0.4
		c-0.1,0.1-0.2,0.1-0.4,0.1s-0.2,0-0.4-0.1C653.9,220.6,653.7,220.6,653.7,220.5z M653.9,225.7v-3.9h0.7v3.9H653.9z"/>
	<path d="M655.5,223.9c0-0.6,0.1-1.2,0.5-1.6c0.4-0.4,0.8-0.6,1.4-0.6c0.6,0,1.1,0.1,1.3,0.5c0.2,0.4,0.5,0.8,0.5,1.4
		c0,0.6-0.1,1.1-0.5,1.4c-0.4,0.4-0.8,0.6-1.4,0.6c-0.6,0-1.1-0.2-1.4-0.6C655.5,224.7,655.5,224.5,655.5,223.9z M656.3,223.8
		c0,0.5,0.1,0.8,0.4,1.1c0.2,0.2,0.5,0.4,1,0.4c0.4,0,0.7-0.1,1-0.4c0.2-0.2,0.4-0.6,0.4-1.1c0-0.5-0.1-0.8-0.4-1.1
		c-0.2-0.2-0.5-0.4-1-0.4c-0.4,0-0.7,0.1-1,0.4C656.4,223,656.3,223.4,656.3,223.8z"/>
	<path d="M663.7,225.7H663v-2.2c0-0.8-0.2-1.2-0.8-1.2c-0.4,0-0.6,0.1-0.7,0.4s-0.2,0.5-0.2,0.8v2.2h-0.7v-3.9h0.7v0.6l0,0
		c0.2-0.5,0.7-0.7,1.3-0.7c0.5,0,0.7,0.1,1,0.4c0.2,0.2,0.4,0.7,0.4,1.2v2.4H663.7z"/>
	<path d="M665,222.1c0.4-0.2,0.8-0.4,1.3-0.4c1,0,1.4,0.5,1.4,1.4v2.5H667v-0.6l0,0c-0.2,0.5-0.7,0.7-1.2,0.7c-0.4,0-0.7-0.1-1-0.4
		c-0.2-0.2-0.4-0.5-0.4-0.8c0-0.7,0.5-1.2,1.3-1.3l1.2-0.1c0-0.6-0.2-1-0.8-1c-0.5,0-0.8,0.1-1.3,0.5v-0.6H665z M666.2,223.9
		c-0.4,0-0.5,0.1-0.6,0.2s-0.2,0.2-0.2,0.5s0.1,0.4,0.2,0.5s0.4,0.1,0.5,0.1c0.4,0,0.6-0.1,0.7-0.4s0.2-0.5,0.2-0.8v-0.4
		L666.2,223.9z"/>
	<path d="M668.8,225.7v-5.8h0.7v5.8H668.8z"/>
	<path d="M674,224h-2.8c0,0.4,0.1,0.7,0.4,1c0.2,0.2,0.5,0.4,1,0.4c0.5,0,0.8-0.1,1.2-0.4v0.6c-0.4,0.2-0.8,0.4-1.3,0.4
		c-0.6,0-1-0.1-1.3-0.5s-0.5-0.8-0.5-1.4c0-0.6,0.1-1.1,0.5-1.4c0.4-0.4,0.7-0.6,1.3-0.6c0.5,0,1,0.1,1.2,0.5
		c0.2,0.4,0.5,0.8,0.5,1.3v0.2H674z M673.3,223.4c0-0.4-0.1-0.6-0.2-0.8s-0.4-0.2-0.7-0.2c-0.2,0-0.5,0.1-0.7,0.4
		c-0.2,0.2-0.4,0.5-0.4,0.8h2.1V223.4z"/>
	<path d="M674.7,224.8c0.4,0.2,0.7,0.4,1.1,0.4c0.5,0,0.8-0.1,0.8-0.5c0-0.1,0-0.2-0.1-0.4c-0.1-0.1-0.4-0.2-0.7-0.4
		c-0.5-0.1-0.7-0.4-0.8-0.5c-0.1-0.1-0.2-0.4-0.2-0.6c0-0.4,0.1-0.6,0.5-0.8c0.2-0.2,0.6-0.4,1.1-0.4c0.4,0,0.6,0,1,0.1v0.7
		c-0.2-0.2-0.6-0.2-1-0.2c-0.2,0-0.4,0-0.5,0.1c-0.1,0.1-0.2,0.2-0.2,0.4s0,0.2,0.1,0.4c0.1,0.1,0.4,0.2,0.7,0.4
		c0.5,0.1,0.7,0.4,0.8,0.5c0.1,0.1,0.2,0.4,0.2,0.6c0,0.4-0.1,0.6-0.5,0.8c-0.2,0.2-0.7,0.4-1.1,0.4c-0.4,0-0.7-0.1-1.1-0.2v-0.7
		H674.7z"/>
	<path d="M616.9,234.4h-0.7v-0.6l0,0c-0.2,0.5-0.7,0.7-1.3,0.7c-0.5,0-0.8-0.1-1.2-0.5c-0.4-0.4-0.5-0.8-0.5-1.4
		c0-0.6,0.1-1.2,0.5-1.6c0.4-0.4,0.7-0.6,1.3-0.6s1,0.2,1.2,0.6l0,0v-2.4h0.7V234.4z M616.3,232.1c0-0.4-0.1-0.6-0.4-0.8
		s-0.5-0.4-0.7-0.4c-0.4,0-0.6,0.1-0.8,0.4c-0.2,0.2-0.4,0.6-0.4,1.1s0.1,0.7,0.4,1.1c0.2,0.4,0.5,0.4,0.8,0.4
		c0.4,0,0.6-0.1,0.8-0.4s0.4-0.6,0.4-1v-0.4H616.3z"/>
	<path d="M621.4,232.7h-2.8c0,0.4,0.1,0.7,0.4,1s0.5,0.4,1,0.4c0.5,0,0.8-0.1,1.2-0.4v0.6c-0.4,0.2-0.8,0.4-1.3,0.4
		c-0.6,0-1-0.1-1.3-0.5c-0.4-0.4-0.5-0.8-0.5-1.4s0.1-1.1,0.5-1.4c0.4-0.4,0.7-0.6,1.3-0.6c0.5,0,1,0.1,1.2,0.5
		c0.2,0.4,0.5,0.8,0.5,1.3v0.2H621.4z M620.7,232.1c0-0.4-0.1-0.6-0.2-0.8c-0.1-0.2-0.4-0.2-0.7-0.2c-0.2,0-0.5,0.1-0.7,0.4
		c-0.2,0.2-0.4,0.5-0.4,0.8h2.1V232.1z"/>
	<path d="M622.4,234.4v-5.8h0.7v5.8H622.4z"/>
	<path d="M627.1,233.9v2.3h-0.7v-5.7h0.7v0.7l0,0c0.4-0.5,0.7-0.7,1.3-0.7c0.5,0,0.8,0.1,1.2,0.5c0.2,0.4,0.5,0.8,0.5,1.4
		c0,0.6-0.1,1.2-0.5,1.6c-0.4,0.4-0.7,0.6-1.3,0.6C627.8,234.5,627.3,234.3,627.1,233.9L627.1,233.9z M627.1,232.8
		c0,0.4,0.1,0.6,0.4,0.8s0.5,0.4,0.7,0.4c0.4,0,0.6-0.1,0.8-0.5c0.2-0.4,0.4-0.7,0.4-1.2c0-0.4-0.1-0.7-0.2-1
		c-0.2-0.2-0.5-0.4-0.8-0.4s-0.6,0.1-0.8,0.4s-0.4,0.6-0.4,1L627.1,232.8L627.1,232.8z"/>
	<path d="M631.1,234.4v-5.8h0.7v5.8H631.1z"/>
	<path d="M633,230.8c0.4-0.2,0.8-0.4,1.3-0.4c1,0,1.4,0.5,1.4,1.4v2.5H635v-0.6l0,0c-0.2,0.5-0.7,0.7-1.2,0.7c-0.4,0-0.7-0.1-1-0.4
		s-0.4-0.5-0.4-0.8c0-0.7,0.5-1.2,1.3-1.3l1.2-0.1c0-0.6-0.2-1-0.8-1c-0.5,0-0.8,0.1-1.3,0.5v-0.6H633z M634.2,232.6
		c-0.4,0-0.5,0.1-0.6,0.2c-0.1,0.1-0.2,0.2-0.2,0.5s0.1,0.4,0.2,0.5c0.1,0.1,0.4,0.1,0.5,0.1c0.4,0,0.6-0.1,0.7-0.4s0.2-0.5,0.2-0.8
		v-0.4L634.2,232.6z"/>
	<path d="M639.7,234.4h-3.3v-0.2l2.3-3.1h-2.1v-0.5h3v0.2l-2.3,3.1h2.3V234.4z"/>
	<path d="M640.2,232.6c0-0.6,0.1-1.2,0.5-1.6c0.4-0.4,0.8-0.6,1.4-0.6s1.1,0.1,1.3,0.5s0.5,0.8,0.5,1.4s-0.1,1.1-0.5,1.4
		c-0.4,0.4-0.8,0.6-1.4,0.6c-0.6,0-1.1-0.2-1.4-0.6C640.2,233.4,640.2,233.2,640.2,232.6z M640.9,232.4c0,0.5,0.1,0.8,0.4,1.1
		s0.5,0.4,1,0.4c0.4,0,0.7-0.1,1-0.4s0.4-0.6,0.4-1.1s-0.1-0.8-0.4-1.1s-0.5-0.4-1-0.4c-0.4,0-0.7,0.1-1,0.4
		C641.1,231.7,640.9,232.1,640.9,232.4z"/>
	<path d="M650.6,234.4h-0.7v-0.6l0,0c-0.2,0.5-0.7,0.7-1.3,0.7c-0.5,0-0.8-0.1-1.2-0.5c-0.4-0.4-0.5-0.8-0.5-1.4
		c0-0.6,0.1-1.2,0.5-1.6c0.4-0.4,0.7-0.6,1.3-0.6s1,0.2,1.2,0.6l0,0v-2.4h0.7V234.4z M650,232.1c0-0.4-0.1-0.6-0.4-0.8
		s-0.5-0.4-0.7-0.4c-0.4,0-0.6,0.1-0.8,0.4c-0.2,0.2-0.4,0.6-0.4,1.1s0.1,0.7,0.4,1.1c0.2,0.4,0.5,0.4,0.8,0.4
		c0.4,0,0.6-0.1,0.8-0.4c0.2-0.2,0.4-0.6,0.4-1v-0.4H650z"/>
	<path d="M655.1,232.7h-2.8c0,0.4,0.1,0.7,0.4,1c0.2,0.2,0.5,0.4,1,0.4c0.5,0,0.8-0.1,1.2-0.4v0.6c-0.4,0.2-0.8,0.4-1.3,0.4
		c-0.6,0-1-0.1-1.3-0.5c-0.4-0.4-0.5-0.8-0.5-1.4s0.1-1.1,0.5-1.4c0.4-0.4,0.7-0.6,1.3-0.6c0.5,0,1,0.1,1.2,0.5
		c0.2,0.4,0.5,0.8,0.5,1.3v0.2H655.1z M654.3,232.1c0-0.4-0.1-0.6-0.2-0.8c-0.1-0.2-0.4-0.2-0.7-0.2c-0.2,0-0.5,0.1-0.7,0.4
		c-0.2,0.2-0.4,0.5-0.4,0.8h2.1V232.1z"/>
	<path d="M615,243.1v-4.7c-0.1,0.1-0.2,0.2-0.6,0.4c-0.2,0.1-0.5,0.2-0.7,0.2v-0.7c0.2-0.1,0.6-0.2,1-0.4c0.4-0.1,0.6-0.4,0.7-0.5
		h0.2v5.5H615V243.1z"/>
	<path d="M617.5,240.5c0-1,0.1-1.7,0.5-2.2c0.4-0.5,0.8-0.7,1.4-0.7c1.2,0,1.7,1,1.7,2.8c0,1-0.1,1.7-0.5,2.2
		c-0.4,0.5-0.8,0.7-1.3,0.7c-0.6,0-1-0.2-1.3-0.7C617.7,242.1,617.5,241.4,617.5,240.5z M618.3,240.4c0,1.4,0.4,2.2,1.1,2.2
		c0.7,0,1.1-0.7,1.1-2.2c0-1.6-0.4-2.3-1.1-2.3S618.3,239,618.3,240.4z"/>
	<path d="M624.3,239.4c0.4-0.2,0.8-0.4,1.3-0.4c1,0,1.4,0.5,1.4,1.4v2.5h-0.7v-0.6l0,0c-0.2,0.5-0.7,0.7-1.2,0.7
		c-0.4,0-0.7-0.1-1-0.4s-0.4-0.5-0.4-0.8c0-0.7,0.5-1.2,1.3-1.3l1.2-0.1c0-0.6-0.2-1-0.8-1c-0.5,0-0.8,0.1-1.3,0.5v-0.6H624.3z
		 M625.5,241.3c-0.4,0-0.5,0.1-0.6,0.2c-0.1,0.1-0.2,0.2-0.2,0.5s0.1,0.4,0.2,0.5c0.1,0.1,0.4,0.1,0.5,0.1c0.4,0,0.6-0.1,0.7-0.4
		s0.2-0.5,0.2-0.8V241L625.5,241.3z"/>
	<path d="M631.5,243.1h-0.7v-2.2c0-0.8-0.2-1.2-0.8-1.2c-0.4,0-0.6,0.1-0.7,0.4s-0.2,0.5-0.2,0.8v2.2h-0.7v-3.9h0.7v0.6l0,0
		c0.2-0.5,0.7-0.7,1.3-0.7c0.5,0,0.7,0.1,1,0.4c0.2,0.2,0.4,0.7,0.4,1.2v2.4H631.5z M631.1,237.5c0,0.2-0.1,0.5-0.2,0.7
		c-0.1,0.1-0.2,0.2-0.5,0.2s-0.4-0.1-0.6-0.2c-0.2-0.1-0.4-0.1-0.5-0.1c-0.2,0-0.4,0.1-0.4,0.5h-0.2c0-0.2,0.1-0.5,0.2-0.7
		c0.1-0.1,0.2-0.2,0.5-0.2c0.1,0,0.4,0.1,0.6,0.2s0.4,0.1,0.5,0.1c0.2,0,0.4-0.1,0.4-0.5H631.1z"/>
	<path d="M632.4,241.3c0-0.6,0.1-1.2,0.5-1.6c0.4-0.4,0.8-0.6,1.4-0.6c0.6,0,1.1,0.1,1.3,0.5s0.5,0.8,0.5,1.4c0,0.6-0.1,1.1-0.5,1.4
		c-0.4,0.4-0.8,0.6-1.4,0.6c-0.6,0-1.1-0.2-1.4-0.6C632.4,242.1,632.4,241.9,632.4,241.3z M633.1,241.1c0,0.5,0.1,0.8,0.4,1.1
		c0.2,0.2,0.5,0.4,1,0.4c0.4,0,0.7-0.1,1-0.4c0.2-0.2,0.4-0.6,0.4-1.1s-0.1-0.8-0.4-1.1c-0.2-0.2-0.5-0.4-1-0.4
		c-0.4,0-0.7,0.1-1,0.4C633.2,240.4,633.1,240.8,633.1,241.1z"/>
	<path d="M637.1,242.2c0.4,0.2,0.7,0.4,1.1,0.4c0.5,0,0.8-0.1,0.8-0.5c0-0.1,0-0.2-0.1-0.4c-0.1-0.1-0.4-0.2-0.7-0.4
		c-0.5-0.1-0.7-0.4-0.8-0.5c-0.1-0.1-0.2-0.4-0.2-0.6c0-0.4,0.1-0.6,0.5-0.8c0.2-0.2,0.6-0.4,1.1-0.4c0.4,0,0.6,0,1,0.1v0.7
		c-0.2-0.2-0.6-0.2-1-0.2c-0.2,0-0.4,0-0.5,0.1c-0.1,0.1-0.2,0.2-0.2,0.4c0,0.1,0,0.2,0.1,0.4c0.1,0.1,0.4,0.2,0.7,0.4
		c0.5,0.1,0.7,0.4,0.8,0.5c0.1,0.1,0.2,0.4,0.2,0.6c0,0.4-0.1,0.6-0.5,0.8c-0.2,0.2-0.7,0.4-1.1,0.4s-0.7-0.1-1.1-0.2v-0.7H637.1z"
		/>
</g>
</svg>
