<?xml version="1.0" encoding="utf-8"?>
<!-- Generator: Adobe Illustrator 22.1.0, SVG Export Plug-In . SVG Version: 6.00 Build 0)  -->
<svg version="1.1" id="图层_1" xmlns="http://www.w3.org/2000/svg" xmlns:xlink="http://www.w3.org/1999/xlink" x="0px" y="0px"
	 viewBox="0 0 80 80" style="enable-background:new 0 0 80 80;" xml:space="preserve">
<style type="text/css">
	.st0{fill:#00A99E;}
	.st1{fill:#FFFFFF;}
</style>
<g>
	<circle class="st0" cx="40" cy="40" r="40"/>
</g>
<g>
	<path class="st1" d="M40,75.8C20.2,75.8,4.2,59.8,4.2,40C4.2,20.2,20.2,4.2,40,4.2c19.8,0,35.8,16.1,35.8,35.8
		C75.8,59.8,59.8,75.8,40,75.8z M40,4.9C20.7,4.9,4.9,20.7,4.9,40c0,19.3,15.7,35.1,35.1,35.1c19.3,0,35.1-15.7,35.1-35.1
		C75.1,20.7,59.3,4.9,40,4.9z"/>
</g>
<g>
	<g>
		<path class="st1" d="M27.6,55.8c-0.4,0-0.8-0.3-0.8-0.8c0,0,0,0,0,0l0.1-4.1h-1.7c-1.6,0-2.8-1.3-2.8-2.8V33.7
			c0-1.6,1.3-2.8,2.8-2.8h22.8c1.6,0,2.8,1.3,2.8,2.8v14.4c0,1.5-1.3,2.8-2.8,2.8H32.9l-4.7,4.7C28,55.7,27.8,55.8,27.6,55.8
			L27.6,55.8z M25.2,32.4c-0.7,0-1.3,0.6-1.3,1.3v14.4c0,0.7,0.6,1.3,1.3,1.3h2.4c0.4,0,0.8,0.4,0.8,0.8c0,0,0,0,0,0l0,3l3.6-3.6
			c0.1-0.1,0.3-0.2,0.5-0.2h15.5c0.7,0,1.3-0.6,1.3-1.3V33.7c0-0.7-0.6-1.3-1.3-1.3L25.2,32.4L25.2,32.4z"/>
		<path class="st1" d="M27.6,56C27.6,56,27.6,56,27.6,56c-0.3,0-0.5-0.1-0.7-0.3c-0.2-0.2-0.3-0.4-0.3-0.7l0.1-4h-1.5
			c-1.6,0-3-1.3-3-3V33.7c0-1.6,1.3-3,3-3h22.8c1.6,0,3,1.3,3,3v14.4c0,1.6-1.3,3-3,3H33l-4.7,4.6C28.1,55.9,27.9,56,27.6,56z
			 M25.2,31c-1.5,0-2.7,1.2-2.7,2.7v14.4c0,1.5,1.2,2.7,2.7,2.7h1.8L27,55c0,0.2,0.1,0.3,0.2,0.4s0.3,0.2,0.4,0.2h0c0,0,0,0,0,0
			c0.2,0,0.3-0.1,0.4-0.2l4.8-4.7h15.2c1.5,0,2.7-1.2,2.7-2.7V33.7c0-1.5-1.2-2.7-2.7-2.7H25.2z M28.3,53.5l0-3.4
			c0-0.3-0.3-0.6-0.6-0.6h-2.4c-0.8,0-1.4-0.6-1.4-1.4V33.7c0-0.8,0.6-1.4,1.4-1.4l22.8,0c0.8,0,1.4,0.6,1.4,1.4v14.4
			c0,0.8-0.6,1.4-1.4,1.4H32.6c-0.2,0-0.3,0.1-0.4,0.2L28.3,53.5z M25.2,32.6L25.2,32.6c-0.6,0-1.1,0.5-1.1,1.1v14.4
			c0,0.6,0.5,1.1,1.1,1.1h2.4c0.5,0,0.9,0.4,0.9,0.9l0,2.6l3.4-3.3c0.2-0.2,0.4-0.3,0.7-0.3h15.5c0.6,0,1.1-0.5,1.1-1.1V33.7
			c0-0.6-0.5-1.1-1.1-1.1H25.2z"/>
	</g>
	<g>
		<path class="st1" d="M54.8,24.2H31.9c-1.6,0-2.8,1.3-2.8,2.8v2.2h1.5V27c0-0.7,0.6-1.3,1.3-1.3h22.8c0.7,0,1.3,0.6,1.3,1.3v14.4
			c0,0.7-0.6,1.3-1.3,1.3h-1.8v1.5h1.8c1.6,0,2.8-1.3,2.8-2.8V27C57.6,25.5,56.3,24.2,54.8,24.2z"/>
		<path class="st1" d="M54.8,44.4h-2v-1.9h2c0.6,0,1.1-0.5,1.1-1.1V27c0-0.6-0.5-1.1-1.1-1.1H31.9c-0.6,0-1.1,0.5-1.1,1.1v2.3H29V27
			c0-1.6,1.3-3,3-3h22.8c1.6,0,3,1.3,3,3v14.4C57.7,43,56.4,44.4,54.8,44.4z M53.1,44.1h1.7c1.5,0,2.7-1.2,2.7-2.7V27
			c0-1.5-1.2-2.7-2.7-2.7H31.9c-1.5,0-2.7,1.2-2.7,2.7v2h1.2v-2c0-0.8,0.6-1.4,1.4-1.4h22.8c0.8,0,1.4,0.6,1.4,1.4v14.4
			c0,0.8-0.6,1.4-1.4,1.4h-1.7V44.1z"/>
	</g>
	<g>
		<path class="st1" d="M28.9,41.3c0,0.7,0.6,1.4,1.4,1.4s1.4-0.6,1.4-1.4l0,0c0-0.7-0.6-1.4-1.4-1.4S28.9,40.5,28.9,41.3z"/>
		<path class="st1" d="M30.2,42.8c-0.8,0-1.5-0.7-1.5-1.5c0-0.8,0.7-1.5,1.5-1.5c0.8,0,1.5,0.7,1.5,1.5
			C31.7,42.1,31.1,42.8,30.2,42.8z M30.2,40.1c-0.7,0-1.2,0.5-1.2,1.2c0,0.7,0.5,1.2,1.2,1.2s1.2-0.5,1.2-1.2
			C31.4,40.6,30.9,40.1,30.2,40.1z"/>
	</g>
	<g>
		<path class="st1" d="M35.3,41.3c0,0.7,0.6,1.4,1.4,1.4c0.7,0,1.4-0.6,1.4-1.4l0,0c0-0.7-0.6-1.4-1.4-1.4
			C35.9,39.9,35.3,40.5,35.3,41.3z"/>
		<path class="st1" d="M36.7,42.8c-0.8,0-1.5-0.7-1.5-1.5c0-0.8,0.7-1.5,1.5-1.5s1.5,0.7,1.5,1.5C38.2,42.1,37.5,42.8,36.7,42.8z
			 M36.7,40.1c-0.7,0-1.2,0.5-1.2,1.2c0,0.7,0.5,1.2,1.2,1.2s1.2-0.5,1.2-1.2C37.9,40.6,37.3,40.1,36.7,40.1z"/>
	</g>
	<g>
		<path class="st1" d="M41.7,41.3c0,0.7,0.6,1.4,1.4,1.4c0.7,0,1.4-0.6,1.4-1.4l0,0c0-0.7-0.6-1.4-1.4-1.4
			C42.3,39.9,41.7,40.5,41.7,41.3z"/>
		<path class="st1" d="M43.1,42.8c-0.8,0-1.5-0.7-1.5-1.5c0-0.8,0.7-1.5,1.5-1.5c0.8,0,1.5,0.7,1.5,1.5
			C44.6,42.1,43.9,42.8,43.1,42.8z M43.1,40.1c-0.7,0-1.2,0.5-1.2,1.2c0,0.7,0.5,1.2,1.2,1.2c0.7,0,1.2-0.5,1.2-1.2
			C44.3,40.6,43.8,40.1,43.1,40.1z"/>
	</g>
</g>
</svg>
