<?xml version="1.0" encoding="utf-8"?>
<!-- Generator: Adobe Illustrator 22.1.0, SVG Export Plug-In . SVG Version: 6.00 Build 0)  -->
<svg version="1.1" id="图层_1" xmlns="http://www.w3.org/2000/svg" xmlns:xlink="http://www.w3.org/1999/xlink" x="0px" y="0px"
	 viewBox="0 0 80 80" style="enable-background:new 0 0 80 80;" xml:space="preserve">
<style type="text/css">
	.st0{fill:#00A99E;}
	.st1{fill:#FFFFFF;}
	.st2{fill:#FFFFFF;stroke:#FFFFFF;stroke-width:0.4;stroke-miterlimit:10;}
</style>
<g>
	<circle class="st0" cx="40.1" cy="40.1" r="39.9"/>
</g>
<g>
	<path class="st1" d="M40.1,75.9c-19.7,0-35.8-16.1-35.8-35.8c0-19.7,16.1-35.8,35.8-35.8s35.8,16.1,35.8,35.8
		C75.9,59.8,59.8,75.9,40.1,75.9z M40.1,5C20.8,5,5,20.8,5,40.1c0,19.3,15.7,35,35,35s35-15.7,35-35C75.1,20.8,59.4,5,40.1,5z"/>
</g>
<g>
	<path class="st2" d="M41.6,33.2h-9.3v1.5h9.3V33.2z M44.4,39.3H32.3v1.5h12.1V39.3z M47.8,45.4H32.3v1.5h15.5V45.4z"/>
	<path class="st2" d="M46,26.9l-1.6-1.5H30.1c-1.3,0-2.4,1-2.4,2.3v24.6c0,1.3,1.1,2.3,2.4,2.3H50c1.3,0,2.4-1,2.4-2.3V33L46,26.9z
		 M45.6,28.2L45.6,28.2l4,3.7v0h-4V28.2z M50.9,52.4c0,0.4-0.4,0.8-0.9,0.8H30.1c-0.5,0-0.9-0.4-0.9-0.8V27.8c0-0.4,0.4-0.8,0.9-0.8
		h14.3V33h6.5V52.4z"/>
</g>
</svg>
