<?xml version="1.0" encoding="utf-8"?>
<!-- Generator: Adobe Illustrator 22.1.0, SVG Export Plug-In . SVG Version: 6.00 Build 0)  -->
<svg version="1.1" id="图层_1" xmlns="http://www.w3.org/2000/svg" xmlns:xlink="http://www.w3.org/1999/xlink" x="0px" y="0px"
	 viewBox="0 0 80 80" style="enable-background:new 0 0 80 80;" xml:space="preserve">
<style type="text/css">
	.st0{fill:#00A99E;}
	.st1{fill:#FFFFFF;}
	.st2{fill:none;stroke:#FFFFFF;stroke-width:1.8;stroke-miterlimit:10;}
</style>
<g>
	<circle class="st0" cx="40.1" cy="40.1" r="39.9"/>
</g>
<g>
	<path class="st1" d="M40.1,75.9c-19.7,0-35.8-16.1-35.8-35.8c0-19.7,16.1-35.8,35.8-35.8s35.8,16.1,35.8,35.8
		C75.9,59.8,59.8,75.9,40.1,75.9z M40.1,5C20.8,5,5,20.8,5,40.1c0,19.3,15.7,35,35,35s35-15.7,35-35C75.1,20.8,59.4,5,40.1,5z"/>
</g>
<path class="st2" d="M44.3,23.2L41.7,37c0,0.1,0,0.2,0.1,0.2h8.5c0.1,0,0.2,0.1,0.1,0.2L36.1,57c-0.1,0.1-0.3,0-0.2-0.1l2.6-13.8
	c0-0.1,0-0.2-0.1-0.2h-8.5c-0.1,0-0.2-0.1-0.1-0.2l14.3-19.6C44.1,23,44.3,23.1,44.3,23.2z"/>
</svg>
