<?xml version="1.0" encoding="utf-8"?>
<!-- Generator: Adobe Illustrator 22.1.0, SVG Export Plug-In . SVG Version: 6.00 Build 0)  -->
<svg version="1.1" id="图层_1" xmlns="http://www.w3.org/2000/svg" xmlns:xlink="http://www.w3.org/1999/xlink" x="0px" y="0px"
	 viewBox="0 0 80 80" style="enable-background:new 0 0 80 80;" xml:space="preserve">
<style type="text/css">
	.st0{fill:#00A99E;}
	.st1{fill:#FFFFFF;}
	.st2{fill:#FFFFFF;stroke:#FFFFFF;stroke-width:0.2;stroke-miterlimit:10;}
</style>
<g>
	<circle class="st0" cx="40.1" cy="40.1" r="39.9"/>
</g>
<g>
	<path class="st1" d="M40.1,75.9c-19.7,0-35.8-16.1-35.8-35.8c0-19.7,16.1-35.8,35.8-35.8s35.8,16.1,35.8,35.8
		C75.9,59.8,59.8,75.9,40.1,75.9z M40.1,5C20.8,5,5,20.8,5,40.1c0,19.3,15.7,35,35,35s35-15.7,35-35C75.1,20.8,59.4,5,40.1,5z"/>
</g>
<path class="st2" d="M53.1,29.7l-1.4,1.1C49.4,28,46,26,42,25.6c-8-0.9-15.2,4.9-16,12.9c-0.1,1-0.1,2,0,2.9l1.9-1.8
	c0.4-0.3,0.9-0.3,1.3,0c0.3,0.4,0.3,0.9,0,1.3l-3.8,3.7l-0.1,0.1c0,0-0.1,0-0.1,0.1L24.9,45c0,0,0,0,0,0c-0.2,0.1-0.4,0.1-0.5,0
	c-0.3,0-0.5-0.2-0.7-0.4l-3-4.5c-0.3-0.4-0.2-1,0.3-1.3c0.4-0.3,1-0.2,1.3,0.2l2.1,3.2c-0.2-1.3-0.2-2.6-0.1-3.9
	c1-9,9.1-15.5,18-14.5C46.7,24.3,50.5,26.5,53.1,29.7L53.1,29.7z M38.9,54.5c8,0.9,15.2-4.9,16-12.9c0.2-1.5,0.1-3.1-0.2-4.5
	l-2.4,2.3c-0.4,0.3-0.9,0.3-1.3,0c-0.3-0.4-0.3-0.9,0-1.3l3.9-3.8c0.2-0.2,0.5-0.3,0.8-0.2c0.3,0,0.6,0.1,0.7,0.4l3,4.5
	c0.3,0.4,0.2,1-0.3,1.3c-0.4,0.3-1,0.2-1.3-0.3l-1.3-1.9c0.1,1.2,0.2,2.4,0,3.7c-1,9-9.1,15.5-18,14.5c-4.7-0.5-8.6-2.9-11.3-6.4
	l1.4-1.1C31.2,51.9,34.7,54,38.9,54.5L38.9,54.5z"/>
</svg>
