<?xml version="1.0" encoding="utf-8"?>
<!-- Generator: Adobe Illustrator 22.1.0, SVG Export Plug-In . SVG Version: 6.00 Build 0)  -->
<svg version="1.1" id="图层_1" xmlns="http://www.w3.org/2000/svg" xmlns:xlink="http://www.w3.org/1999/xlink" x="0px" y="0px"
	 viewBox="0 0 80 80" style="enable-background:new 0 0 80 80;" xml:space="preserve">
<style type="text/css">
	.st0{fill:#00A99E;}
	.st1{fill:#FFFFFF;}
	.st2{fill:#FFFFFF;stroke:#FFFFFF;stroke-width:0.32;stroke-miterlimit:10;}
</style>
<g>
	<circle class="st0" cx="40.1" cy="40.1" r="39.9"/>
</g>
<g>
	<path class="st1" d="M40.1,75.9c-19.7,0-35.8-16.1-35.8-35.8c0-19.7,16.1-35.8,35.8-35.8s35.8,16.1,35.8,35.8
		C75.9,59.8,59.8,75.9,40.1,75.9z M40.1,5C20.8,5,5,20.8,5,40.1c0,19.3,15.7,35,35,35s35-15.7,35-35C75.1,20.8,59.4,5,40.1,5z"/>
</g>
<g>
	<path class="st2" d="M47.6,54.5H27.5c-0.5,0-0.9-0.4-0.9-0.8c0,0,0,0,0,0V30.9c0-0.5,0.4-0.9,0.9-0.9h0h20.1c0.5,0,0.9,0.4,0.9,0.9
		l0,0v22.8C48.5,54.1,48.1,54.5,47.6,54.5C47.6,54.5,47.6,54.5,47.6,54.5L47.6,54.5z M28.3,52.8h18.4V31.7H28.3V52.8z"/>
	<path class="st2" d="M53.6,49.1h-2.8c-0.5,0-0.9-0.4-0.9-0.9s0.4-0.9,0.9-0.9h1.9V26.3H34.3v2c0,0.5-0.4,0.9-0.9,0.9
		c-0.5,0-0.9-0.4-0.9-0.9v-2.9c0-0.5,0.4-0.9,0.8-0.9c0,0,0,0,0,0h20.1c0.5,0,0.9,0.4,0.9,0.9l0,0v22.8C54.4,48.7,54,49.1,53.6,49.1
		C53.6,49.1,53.6,49.1,53.6,49.1L53.6,49.1z"/>
	<path class="st2" d="M37.2,46.1c-0.2,0-0.4-0.1-0.6-0.2l-4.1-4.1c-0.3-0.3-0.3-0.9,0-1.2s0.9-0.3,1.2,0c0,0,0,0,0,0l3.5,3.5l5-5
		c0.3-0.3,0.9-0.3,1.2,0c0.3,0.3,0.3,0.9,0,1.2l-5.6,5.6C37.7,46,37.5,46.1,37.2,46.1L37.2,46.1z"/>
</g>
</svg>
