<?xml version="1.0" encoding="utf-8"?>
<!-- Generator: Adobe Illustrator 22.1.0, SVG Export Plug-In . SVG Version: 6.00 Build 0)  -->
<svg version="1.1" id="图层_1" xmlns="http://www.w3.org/2000/svg" xmlns:xlink="http://www.w3.org/1999/xlink" x="0px" y="0px"
	 viewBox="0 0 80 80" style="enable-background:new 0 0 80 80;" xml:space="preserve">
<style type="text/css">
	.st0{fill:#00A99E;}
	.st1{fill:#FFFFFF;}
	.st2{fill:#FFFFFF;stroke:#FFFFFF;stroke-width:0.2;stroke-miterlimit:10;}
</style>
<g>
	<circle class="st0" cx="40.1" cy="40.1" r="39.9"/>
</g>
<g>
	<path class="st1" d="M40.1,75.9c-19.7,0-35.8-16.1-35.8-35.8c0-19.7,16.1-35.8,35.8-35.8s35.8,16.1,35.8,35.8
		C75.9,59.8,59.8,75.9,40.1,75.9z M40.1,5C20.8,5,5,20.8,5,40.1c0,19.3,15.7,35,35,35s35-15.7,35-35C75.1,20.8,59.4,5,40.1,5z"/>
</g>
<path class="st2" d="M53.3,30.8l-11.7-6.8c-0.9-0.6-2.1-0.6-2.9,0l-11.8,6.8c-0.9,0.6-1.5,1.5-1.5,2.5v13.5c0,1,0.6,2.1,1.5,2.5
	l11.8,6.8c0.9,0.6,2.1,0.6,2.9,0l11.8-6.8c0.9-0.6,1.5-1.5,1.5-2.5V33.3C54.8,32.3,54.2,31.3,53.3,30.8L53.3,30.8z M52.8,47.1
	c0,0.2-0.2,0.5-0.3,0.5l-12.1,7c-0.2,0.2-0.5,0.2-0.6,0l-12.1-7c-0.2-0.2-0.3-0.3-0.3-0.5v-14c0-0.2,0.2-0.5,0.3-0.5l12.1-7
	c0.2-0.2,0.5-0.2,0.6,0l12.1,7c0.2,0.2,0.3,0.3,0.3,0.5L52.8,47.1L52.8,47.1z M40.1,39.2l-7.9-4.7c-0.4-0.3-1.1,0-1.4,0.4
	c-0.3,0.5-0.1,1.2,0.4,1.4l8,4.7v9.2c0,0.5,0.5,1.1,1.1,1.1c0.5,0,1.1-0.5,1.1-1.1V41l7.8-4.6c0.5-0.3,0.7-0.9,0.4-1.4
	c-0.4-0.5-1.1-0.7-1.6-0.4L40.1,39.2L40.1,39.2z"/>
</svg>
