<?xml version="1.0" encoding="utf-8"?>
<!-- Generator: Adobe Illustrator 22.1.0, SVG Export Plug-In . SVG Version: 6.00 Build 0)  -->
<svg version="1.1" id="图层_1" xmlns="http://www.w3.org/2000/svg" xmlns:xlink="http://www.w3.org/1999/xlink" x="0px" y="0px"
	 viewBox="0 0 80 80" style="enable-background:new 0 0 80 80;" xml:space="preserve">
<style type="text/css">
	.st0{fill:#00A99E;}
	.st1{fill:#FFFFFF;}
	.st2{fill:#FFFFFF;stroke:#FFFFFF;stroke-width:1.2;stroke-miterlimit:10;}
	.st3{fill:#FFFFFF;stroke:#FFFFFF;stroke-width:0.9;stroke-miterlimit:10;}
</style>
<g>
	<circle class="st0" cx="40.1" cy="40.1" r="39.9"/>
</g>
<g>
	<path class="st1" d="M40.1,75.9c-19.7,0-35.8-16.1-35.8-35.8c0-19.7,16.1-35.8,35.8-35.8s35.8,16.1,35.8,35.8
		C75.9,59.8,59.8,75.9,40.1,75.9z M40.1,5C20.8,5,5,20.8,5,40.1c0,19.3,15.7,35,35,35s35-15.7,35-35C75.1,20.8,59.4,5,40.1,5z"/>
</g>
<path class="st2" d="M33.5,39.1c-0.2-2.5-2.2-4.4-4.7-4.4c-2.6,0-4.8,2.1-4.8,4.8s2.1,4.8,4.8,4.8c2.6,0,4.7-2,4.8-4.6L33.5,39.1z
	 M28.7,43.8c-2.4,0-4.4-2-4.4-4.4s2-4.4,4.4-4.4s4.4,2,4.4,4.4S31.1,43.8,28.7,43.8z"/>
<path class="st3" d="M54.5,30.1v-6.4H48v2.6h-8.6v12.6h-5.7l0,0.9h5.7v12.8H48v2.8h6.4v-6.4H48v2.8h-7.8v-12H48v3h6.4v-6.4H48v2.5
	h-7.8V27.1H48v2.9H54.5z M48.9,24.6h4.6v4.6h-4.6V24.6z M48.9,49.9h4.6v4.6h-4.6V49.9z M48.9,37.2h4.6v4.6h-4.6V37.2z"/>
</svg>
