<?xml version="1.0" encoding="utf-8"?>
<!-- Generator: Adobe Illustrator 22.1.0, SVG Export Plug-In . SVG Version: 6.00 Build 0)  -->
<svg version="1.1" id="图层_1" xmlns="http://www.w3.org/2000/svg" xmlns:xlink="http://www.w3.org/1999/xlink" x="0px" y="0px"
	 viewBox="0 0 80 80" style="enable-background:new 0 0 80 80;" xml:space="preserve">
<style type="text/css">
	.st0{fill:#00A99E;}
	.st1{fill:#FFFFFF;}
</style>
<g>
	<circle class="st0" cx="40.1" cy="40.1" r="39.9"/>
</g>
<g>
	<path class="st1" d="M40.1,75.9c-19.7,0-35.8-16.1-35.8-35.8c0-19.7,16.1-35.8,35.8-35.8s35.8,16.1,35.8,35.8
		C75.9,59.8,59.8,75.9,40.1,75.9z M40.1,5C20.8,5,5,20.8,5,40.1c0,19.3,15.7,35,35,35s35-15.7,35-35C75.1,20.8,59.4,5,40.1,5z"/>
</g>
<g>
	<g>
		<path class="st1" d="M30.8,45.2c0,0.5,0.4,0.9,0.9,0.9s0.9-0.4,0.9-0.9l0,0c0-0.5-0.4-0.9-0.9-0.9S30.8,44.7,30.8,45.2z"/>
		<path class="st1" d="M31.7,46.1c-0.5,0-1-0.4-1-1s0.4-1,1-1s1,0.4,1,1S32.2,46.1,31.7,46.1z M31.7,44.4c-0.4,0-0.8,0.3-0.8,0.8
			s0.3,0.8,0.8,0.8c0.4,0,0.8-0.3,0.8-0.8S32.1,44.4,31.7,44.4z"/>
	</g>
	<g>
		<path class="st1" d="M26.3,50V27.2c0-1,0.8-1.8,1.8-1.8h19.1c1,0,1.8,0.8,1.8,1.8v10.9h1.8V27.2c0-2-1.6-3.6-3.6-3.6H28.1
			c-2,0-3.6,1.6-3.6,3.6V50c0,2,1.6,3.6,3.6,3.6h12.8v-1.8H28.1C27.1,51.8,26.3,51,26.3,50z"/>
		<path class="st1" d="M41,53.7H28.1c-2.1,0-3.7-1.7-3.7-3.7V27.2c0-2.1,1.7-3.7,3.7-3.7h19.1c2.1,0,3.7,1.7,3.7,3.7v11h-2v-11
			c0-1-0.8-1.7-1.7-1.7H28.1c-1,0-1.7,0.8-1.7,1.7V50c0,1,0.8,1.7,1.7,1.7H41V53.7z M28.1,23.7c-2,0-3.5,1.6-3.5,3.6V50
			c0,2,1.6,3.5,3.5,3.5h12.7v-1.6H28.1c-1.1,0-1.9-0.9-1.9-1.9V27.2c0-1.1,0.9-1.9,1.9-1.9h19.1c1.1,0,1.9,0.9,1.9,1.9v10.8h1.6
			V27.2c0-2-1.6-3.6-3.5-3.6H28.1z"/>
	</g>
	<g>
		<path class="st1" d="M45,42.7l-5.7-11.9c-0.1-0.3-0.4-0.6-0.7-0.7c0,0,0,0,0,0c0,0,0,0,0,0c-0.1-0.1-0.3-0.1-0.5-0.1
			c0,0-0.1,0-0.1,0c-0.1,0-0.2,0-0.3,0.1c-0.1,0-0.2,0.1-0.2,0.1c-0.2,0.1-0.4,0.3-0.5,0.6L31,44.4c-0.1,0.1-0.1,0.3-0.2,0.4
			l1.5,0.8c0.1-0.1,0.1-0.2,0.1-0.3l1.1-2.6h7.4h1.7 M34.4,41.1l3.8-8.6l4.1,8.6H34.4z"/>
		<path class="st1" d="M32.4,45.7l-1.7-0.8l0-0.1c0-0.1,0.1-0.2,0.1-0.4l0-0.1l5.9-13.6c0.1-0.2,0.3-0.5,0.5-0.6
			c0.1-0.1,0.1-0.1,0.2-0.2c0.1,0,0.2-0.1,0.3-0.1l0.1,0c0,0,0,0,0,0c0,0,0.1,0,0.1,0c0.2,0,0.3,0,0.5,0.1h0.1l0,0
			c0.3,0.1,0.6,0.4,0.7,0.7l5.7,11.9l-0.2,0.1l-5.7-11.9c-0.1-0.3-0.3-0.5-0.6-0.6l0,0c-0.1-0.1-0.3-0.1-0.4-0.1c0,0,0,0,0,0
			c0,0,0,0-0.1,0l0,0c-0.1,0-0.2,0-0.3,0c-0.1,0-0.1,0.1-0.2,0.1l0,0c-0.2,0.1-0.4,0.3-0.5,0.5l-6,13.7c0,0.1-0.1,0.2-0.1,0.3
			l1.4,0.7c0-0.1,0.1-0.1,0.1-0.2l1.2-2.7h9.1v0.2h-9l-1.1,2.5c0,0.1-0.1,0.2-0.1,0.2L32.4,45.7z M42.4,41.2h-8.2l3.9-8.9L42.4,41.2
			z M34.6,41h7.5l-3.9-8.3L34.6,41z"/>
	</g>
	<g>
		<path class="st1" d="M54.9,45.3h-4.2v-4.2c0-0.5-0.4-0.8-0.8-0.8c-0.5,0-0.8,0.4-0.8,0.8v4.2h-4.2c-0.5,0-0.8,0.4-0.8,0.8v5
			c0,0.5,0.4,0.8,0.8,0.8H49v3.4c0,0.5,0.4,0.8,0.8,0.8c0.5,0,0.8-0.4,0.8-0.8V52h4.2c0.5,0,0.8-0.4,0.8-0.8v-5
			C55.8,45.6,55.4,45.3,54.9,45.3z M49,50.3h-2.7c-0.5,0-0.9-0.4-0.9-0.8v-1.7c0-0.5,0.4-0.8,0.9-0.8H49V50.3z M54.3,49.5
			c0,0.5-0.4,0.8-0.9,0.8h-2.7v-3.4h2.7c0.5,0,0.9,0.4,0.9,0.8V49.5z"/>
		<path class="st1" d="M49.9,56.3c-0.5,0-0.9-0.4-0.9-0.9v-3.3h-4.1c-0.5,0-0.9-0.4-0.9-0.9v-5c0-0.5,0.4-0.9,0.9-0.9h4.1v-4.1
			c0-0.5,0.4-0.9,0.9-0.9s0.9,0.4,0.9,0.9v4.1h4.1c0.5,0,0.9,0.4,0.9,0.9v5c0,0.5-0.4,0.9-0.9,0.9h-4.1v3.3
			C50.8,55.9,50.4,56.3,49.9,56.3z M44.8,45.4c-0.4,0-0.7,0.3-0.7,0.7v5c0,0.4,0.3,0.7,0.7,0.7h4.3v3.5c0,0.4,0.3,0.7,0.7,0.7
			s0.7-0.3,0.7-0.7v-3.5h4.3c0.4,0,0.7-0.3,0.7-0.7v-5c0-0.4-0.3-0.7-0.7-0.7h-4.3v-4.3c0-0.4-0.3-0.7-0.7-0.7s-0.7,0.3-0.7,0.7v4.3
			H44.8z M53.4,50.4h-2.8v-3.6h2.8c0.5,0,1,0.4,1,0.9v1.7C54.4,50,54,50.4,53.4,50.4z M50.8,50.2h2.6c0.4,0,0.8-0.3,0.8-0.7v-1.7
			c0-0.4-0.4-0.7-0.8-0.7h-2.6V50.2z M49.1,50.4h-2.8c-0.5,0-1-0.4-1-0.9v-1.7c0-0.5,0.4-0.9,1-0.9h2.8V50.4z M46.4,47
			c-0.4,0-0.8,0.3-0.8,0.7v1.7c0,0.4,0.4,0.7,0.8,0.7h2.6V47H46.4z"/>
	</g>
</g>
</svg>
