<?xml version="1.0" encoding="utf-8"?>
<!-- Generator: Adobe Illustrator 22.1.0, SVG Export Plug-In . SVG Version: 6.00 Build 0)  -->
<svg version="1.1" id="图层_1" xmlns="http://www.w3.org/2000/svg" xmlns:xlink="http://www.w3.org/1999/xlink" x="0px" y="0px"
	 viewBox="0 0 80 80" style="enable-background:new 0 0 80 80;" xml:space="preserve">
<style type="text/css">
	.st0{fill:#00A99E;}
	.st1{fill:#FFFFFF;}
</style>
<g>
	<g>
		<circle class="st0" cx="40" cy="40" r="40"/>
	</g>
</g>
<g>
	<g>
		<path class="st1" d="M40,75.8C20.3,75.8,4.2,59.8,4.2,40C4.2,20.3,20.3,4.2,40,4.2S75.8,20.3,75.8,40C75.8,59.8,59.8,75.8,40,75.8
			z M40,5C20.7,5,5,20.7,5,40C5,59.3,20.7,75.1,40,75.1S75.1,59.3,75.1,40C75.1,20.7,59.3,5,40,5z"/>
	</g>
</g>
<g>
	<g>
		<path class="st1" d="M55.7,47.2L55.7,47.2c-0.3-0.4-1.5-1.6-3-2.6c-0.9-0.6-1.8-1.1-2.7-1.3c-1.1-0.3-2.1-0.2-2.9,0.2
			c-0.6,0.3-1.1,0.8-1.6,1.2c-0.9,0.8-1.2,1.1-1.8,0.8c-0.7-0.4-3.2-2.4-5.6-4.8c-1.2-1.3-2.2-2.4-2.9-3.4c-1-1.4-1-2-1-2.1
			c0.1-0.3,0.4-0.7,0.7-1.1c0.8-1.1,1.8-2.5,1.4-4.3c-0.4-1.6-1.4-3.1-2.7-4.4c-1.3-1.2-2.6-1.9-3.7-1.9c-1.1,0-2.6,0.7-4,2
			c-0.6,0.6-1.2,1.2-1.5,1.8c-0.4,0.7-0.7,1.4-0.7,2.1c0,2.7,0.9,5.5,2.6,8.4c1.5,2.6,3.6,5.2,6.3,7.7c4.6,4.4,10.8,8.4,16,10.4
			c0.5,0.2,1,0.3,1.5,0.3c0.7,0,1.4-0.2,2.1-0.5c1-0.5,1.9-1.4,2.6-2.5c0.7-1,1.2-2.2,1.4-3.3C56.4,48.9,56.3,47.9,55.7,47.2
			L55.7,47.2z M53.7,52.7c-0.5,0.8-2.4,3.2-4.7,2.3c-5.1-2-11.1-5.9-15.6-10.2c-3.8-3.7-8.4-9.3-8.4-15.2c0-0.8,0.7-2,1.8-3
			c1.1-1,2.3-1.6,3.1-1.6c0.7,0,1.8,0.6,2.8,1.5c1.1,1.1,2,2.4,2.4,3.8c0.3,1.1-0.5,2.2-1.2,3.2C33.5,34,33.1,34.5,33,35
			c-0.2,0.8,0.2,1.8,1.2,3.1c0.7,1,1.8,2.2,3.1,3.5c2.2,2.2,4.9,4.5,6,5c0.6,0.3,1.3,0.3,1.9,0c0.5-0.2,0.9-0.6,1.3-1
			c0.4-0.4,0.8-0.8,1.3-1c2-1.1,5.3,1.6,7,3.4l0,0C55.3,48.7,55,50.7,53.7,52.7L53.7,52.7z"/>
		<path class="st1" d="M50.1,56.7c-0.5,0-1.1-0.1-1.6-0.3c-5.3-2-11.5-6.1-16.1-10.5c-2.7-2.6-4.8-5.2-6.3-7.8
			c-1.7-3-2.6-5.9-2.6-8.6c0-0.7,0.2-1.4,0.7-2.2c0.4-0.7,0.9-1.3,1.6-1.9c1.4-1.3,2.9-2.1,4.2-2.1c1.1,0,2.6,0.7,3.9,2
			c1.4,1.3,2.4,2.9,2.8,4.5c0.5,1.9-0.6,3.4-1.4,4.5c-0.3,0.4-0.6,0.8-0.6,1c0,0-0.1,0.5,0.9,1.9c0.7,0.9,1.7,2.1,2.9,3.3
			c2.4,2.4,4.8,4.4,5.5,4.7c0.4,0.2,0.6,0.1,1.5-0.7c0.4-0.4,1-0.9,1.6-1.2c0.9-0.5,2-0.6,3.1-0.3c0.8,0.2,1.8,0.7,2.7,1.3
			c1.5,1,2.7,2.3,3,2.6l0,0c0.6,0.7,0.9,1.8,0.6,3.1c-0.2,1.1-0.7,2.3-1.4,3.4c-0.8,1.1-1.7,2-2.7,2.6
			C51.6,56.5,50.8,56.7,50.1,56.7z M29.9,23.9c-1.1,0-2.5,0.7-3.8,1.9c-0.6,0.6-1.1,1.2-1.5,1.8c-0.4,0.7-0.6,1.3-0.6,1.9
			c0,2.6,0.9,5.4,2.5,8.3c1.5,2.5,3.6,5.1,6.2,7.6c4.6,4.4,10.7,8.4,15.9,10.4c1.1,0.4,2.2,0.3,3.3-0.2c0.9-0.5,1.8-1.3,2.5-2.4
			c0.7-1,1.2-2.1,1.4-3.2c0.2-1.2,0.1-2.1-0.5-2.6l0,0c-0.4-0.4-1.5-1.6-2.9-2.5c-0.9-0.6-1.8-1.1-2.6-1.3c-1-0.3-1.9-0.2-2.7,0.2
			c-0.6,0.3-1.1,0.8-1.5,1.2c-0.9,0.8-1.4,1.2-2.1,0.8c-0.7-0.4-3.3-2.4-5.7-4.9c-1.2-1.3-2.3-2.4-3-3.4c-1-1.4-1.1-2.1-1-2.4
			c0.1-0.3,0.3-0.7,0.7-1.2c0.8-1.1,1.8-2.5,1.4-4.1c-0.4-1.5-1.4-3-2.6-4.2C32.2,24.6,30.9,23.9,29.9,23.9z M50.1,55.4
			c-0.4,0-0.7-0.1-1.1-0.2c-5.1-2-11.2-5.9-15.7-10.2c-3.9-3.7-8.5-9.4-8.5-15.4c0-0.9,0.7-2.1,1.9-3.2c1.1-1,2.4-1.7,3.3-1.7
			c0.8,0,2,0.6,3,1.6c1.2,1.1,2.1,2.5,2.4,3.9c0.3,1.3-0.5,2.4-1.2,3.4c-0.4,0.6-0.8,1.1-0.9,1.5c-0.1,0.7,0.2,1.6,1.1,2.9
			c0.7,1,1.8,2.2,3,3.5c2.1,2.2,4.8,4.5,5.9,5c0.6,0.3,1.1,0.3,1.6,0c0.4-0.2,0.8-0.6,1.3-1c0.4-0.4,0.9-0.8,1.4-1.1
			c2.7-1.5,6.9,2.9,7.3,3.4c0.7,0.8,0.3,3-1,4.9l0,0C53.5,53.5,52,55.4,50.1,55.4z M29.9,25.2c-0.7,0-1.9,0.6-2.9,1.6
			c-1,0.9-1.7,2.1-1.7,2.8c0,5.8,4.5,11.4,8.3,15c4.5,4.3,10.4,8.1,15.5,10.1c2.1,0.8,3.9-1.4,4.3-2.2h0c1.3-1.9,1.5-3.7,1-4.2
			C53,46.7,49.7,44,47.9,45c-0.5,0.2-0.9,0.6-1.2,1c-0.5,0.4-0.9,0.8-1.4,1.1c-0.7,0.3-1.4,0.3-2.1,0c-1.1-0.5-3.8-2.9-6-5.1
			c-1.3-1.3-2.4-2.5-3.1-3.6c-1-1.4-1.4-2.5-1.2-3.4c0.1-0.6,0.5-1.2,1-1.7c0.7-0.9,1.4-1.9,1.1-2.9c-0.3-1.3-1.2-2.6-2.3-3.6
			C31.6,25.8,30.5,25.2,29.9,25.2z"/>
	</g>
	<g>
		<path class="st1" d="M40.1,33.6c1.5,0,2.9,0.6,3.9,1.7c1,1,1.6,2.4,1.5,3.8c0,0.4,0.3,0.7,0.6,0.7h0c0.3,0,0.6-0.3,0.6-0.6
			c0.1-1.8-0.6-3.4-1.9-4.7c-1.3-1.3-3-2-4.8-2.1h0c-0.3,0-0.6,0.3-0.6,0.6C39.4,33.3,39.7,33.6,40.1,33.6z M41.7,29.8
			c4.6,0.1,8.3,3.8,8.1,8.2c0,0.4,0.3,0.7,0.6,0.7h0c0.3,0,0.6-0.3,0.6-0.6c0.1-2.5-0.9-4.8-2.6-6.6c-1.8-1.8-4.2-2.8-6.7-2.9
			c-0.4,0-0.7,0.3-0.7,0.6C41.1,29.5,41.4,29.8,41.7,29.8z"/>
		<path class="st1" d="M46.1,40c-0.3,0-0.5-0.1-0.7-0.3c-0.2-0.2-0.3-0.4-0.3-0.7c0-1.3-0.5-2.6-1.4-3.6c-1-1-2.3-1.5-3.7-1.6h0
			c-0.5,0-0.9-0.5-0.9-1c0-0.5,0.4-0.9,0.9-0.9c1.9,0.1,3.7,0.8,5,2.1c1.3,1.3,2,3.1,2,4.9C47.1,39.6,46.7,40,46.1,40z M40.1,33.4
			c1.6,0,3,0.7,4.1,1.8c1.1,1.1,1.6,2.5,1.6,4c0,0.1,0,0.2,0.1,0.3c0.1,0.1,0.2,0.1,0.3,0.1c0.2,0,0.4-0.2,0.4-0.4
			c0.1-1.7-0.6-3.3-1.8-4.5c-1.2-1.2-2.8-1.9-4.6-2c-0.2,0-0.4,0.2-0.4,0.4C39.7,33.2,39.9,33.4,40.1,33.4z M50.5,38.9
			c-0.3,0-0.5-0.1-0.7-0.3c-0.2-0.2-0.3-0.4-0.3-0.7c0.1-2-0.7-4-2.2-5.5c-1.5-1.5-3.5-2.4-5.7-2.4h0c-0.5,0-0.9-0.5-0.9-1
			c0-0.2,0.1-0.5,0.3-0.7s0.4-0.3,0.7-0.3c2.6,0.1,5.1,1.1,6.9,3c1.8,1.9,2.8,4.3,2.7,6.8C51.4,38.5,51,38.9,50.5,38.9z M41.8,29.5
			c2.3,0.1,4.5,1,6,2.6c1.6,1.6,2.4,3.7,2.4,5.9c0,0.1,0,0.2,0.1,0.3c0.1,0.1,0.2,0.1,0.3,0.1c0.2,0,0.4-0.2,0.4-0.4
			c0.1-2.4-0.8-4.7-2.6-6.4c-1.7-1.7-4-2.7-6.5-2.8c-0.1,0-0.2,0-0.3,0.1c-0.1,0.1-0.1,0.2-0.1,0.3C41.4,29.3,41.6,29.5,41.8,29.5z"
			/>
	</g>
</g>
</svg>
