<?xml version="1.0" encoding="utf-8"?>
<!-- Generator: Adobe Illustrator 22.1.0, SVG Export Plug-In . SVG Version: 6.00 Build 0)  -->
<svg version="1.1" id="图层_1" xmlns="http://www.w3.org/2000/svg" xmlns:xlink="http://www.w3.org/1999/xlink" x="0px" y="0px"
	 viewBox="0 0 80 80" style="enable-background:new 0 0 80 80;" xml:space="preserve">
<style type="text/css">
	.st0{fill:#00A99E;}
	.st1{fill:#FFFFFF;}
</style>
<g>
	<g>
		<circle class="st0" cx="40" cy="40" r="40"/>
	</g>
</g>
<g>
	<g>
		<path class="st1" d="M40,75.8C20.2,75.8,4.2,59.8,4.2,40C4.2,20.3,20.2,4.2,40,4.2S75.8,20.3,75.8,40C75.8,59.8,59.7,75.8,40,75.8
			z M40,5c-19.3,0-35,15.7-35,35c0,19.3,15.7,35,35,35s35-15.7,35-35C75,20.7,59.3,5,40,5z"/>
	</g>
</g>
<g>
	<path class="st1" d="M55,39.1h-1.9c-0.4-6.5-5.7-11.8-12.2-12.2v-1.4c0-0.5-0.4-0.9-0.9-0.9s-0.9,0.4-0.9,0.9v1.4
		c-6.5,0.4-11.8,5.7-12.2,12.2H25c-0.5,0-0.9,0.4-0.9,0.9s0.4,0.9,0.9,0.9h1.9c0.4,6.5,5.7,11.8,12.2,12.2v1.4
		c0,0.5,0.4,0.9,0.9,0.9s0.9-0.4,0.9-0.9v-1.4c6.5-0.4,11.8-5.7,12.2-12.2H55c0.5,0,0.9-0.4,0.9-0.9S55.4,39.1,55,39.1z M40.9,51.3
		v-5.8c0-0.5-0.4-0.9-0.9-0.9s-0.9,0.4-0.9,0.9v5.8c-5.5-0.4-9.9-4.9-10.4-10.4h5.4c0.5,0,0.9-0.4,0.9-0.9s-0.4-0.9-0.9-0.9h-5.4
		c0.4-5.5,4.9-9.9,10.4-10.4v5.8c0,0.5,0.4,0.9,0.9,0.9s0.9-0.4,0.9-0.9v-5.8c5.5,0.4,9.9,4.9,10.4,10.4h-5.4
		c-0.5,0-0.9,0.4-0.9,0.9s0.4,0.9,0.9,0.9h5.4C50.8,46.4,46.4,50.9,40.9,51.3z"/>
	<path class="st1" d="M40,55.6c-0.6,0-1-0.5-1-1v-1.3c-6.5-0.5-11.7-5.7-12.2-12.2H25c-0.6,0-1-0.5-1-1c0-0.6,0.5-1,1-1h1.7
		c0.5-6.5,5.7-11.7,12.2-12.2v-1.3c0-0.6,0.5-1,1-1c0.6,0,1,0.5,1,1v1.3c6.5,0.5,11.7,5.7,12.2,12.2H55c0.6,0,1,0.5,1,1
		c0,0.6-0.5,1-1,1h-1.7c-0.5,6.5-5.7,11.7-12.2,12.2v1.3C41,55.1,40.6,55.6,40,55.6z M25,39.3c-0.4,0-0.8,0.3-0.8,0.8
		c0,0.4,0.3,0.8,0.8,0.8h2l0,0.1c0.4,6.4,5.6,11.6,12.1,12.1l0.1,0v1.6c0,0.4,0.3,0.8,0.8,0.8c0.4,0,0.8-0.3,0.8-0.8V53l0.1,0
		c6.4-0.4,11.6-5.6,12.1-12.1l0-0.1h2c0.4,0,0.8-0.3,0.8-0.8c0-0.4-0.3-0.8-0.8-0.8h-2l0-0.1c-0.4-6.4-5.6-11.6-12.1-12.1l-0.1,0
		v-1.6c0-0.4-0.3-0.8-0.8-0.8c-0.4,0-0.8,0.3-0.8,0.8v1.6l-0.1,0c-6.4,0.4-11.6,5.6-12.1,12.1l0,0.1H25z M40.8,51.5v-5.9
		c0-0.4-0.3-0.8-0.8-0.8c-0.4,0-0.8,0.3-0.8,0.8v5.9l-0.2,0c-5.5-0.4-10.1-5-10.5-10.5l0-0.2h5.5c0.4,0,0.8-0.3,0.8-0.8
		c0-0.4-0.3-0.8-0.8-0.8h-5.5l0-0.2c0.4-5.5,5-10.1,10.5-10.5l0.2,0v5.9c0,0.4,0.3,0.8,0.8,0.8c0.4,0,0.8-0.3,0.8-0.8v-5.9l0.2,0
		c5.5,0.4,10.1,5,10.5,10.5l0,0.2h-5.5c-0.4,0-0.8,0.3-0.8,0.8c0,0.4,0.3,0.8,0.8,0.8h5.5l0,0.2c-0.4,5.6-5,10.1-10.5,10.5
		L40.8,51.5z M40,44.5c0.6,0,1,0.5,1,1v5.6c5.3-0.5,9.6-4.8,10.1-10.1h-5.2c-0.6,0-1-0.5-1-1c0-0.6,0.5-1,1-1h5.2
		c-0.5-5.3-4.8-9.6-10.1-10.1v5.6c0,0.6-0.5,1-1,1c-0.6,0-1-0.5-1-1v-5.6c-5.3,0.5-9.6,4.8-10.1,10.1h5.2c0.6,0,1,0.5,1,1
		c0,0.6-0.5,1-1,1h-5.2c0.5,5.3,4.8,9.6,10.1,10.1v-5.6C38.9,44.9,39.4,44.5,40,44.5z"/>
</g>
</svg>
