<?xml version="1.0" encoding="utf-8"?>
<!-- Generator: Adobe Illustrator 22.1.0, SVG Export Plug-In . SVG Version: 6.00 Build 0)  -->
<svg version="1.1" id="图层_1" xmlns="http://www.w3.org/2000/svg" xmlns:xlink="http://www.w3.org/1999/xlink" x="0px" y="0px"
	 viewBox="0 0 80 80" style="enable-background:new 0 0 80 80;" xml:space="preserve">
<style type="text/css">
	.st0{fill:#00A99E;}
	.st1{fill:#FFFFFF;}
	.st2{fill:none;stroke:#FFFFFF;stroke-width:1.8;stroke-miterlimit:10;}
</style>
<g>
	<circle class="st0" cx="40.1" cy="40.1" r="39.9"/>
</g>
<g>
	<path class="st1" d="M40.1,75.9c-19.7,0-35.8-16.1-35.8-35.8c0-19.7,16.1-35.8,35.8-35.8s35.8,16.1,35.8,35.8
		C75.9,59.8,59.8,75.9,40.1,75.9z M40.1,5C20.8,5,5,20.8,5,40.1c0,19.3,15.7,35,35,35s35-15.7,35-35C75.1,20.8,59.4,5,40.1,5z"/>
</g>
<path class="st1" d="M50.4,52.8H25.7c-1.7,0-3.2-1.5-3.2-3.3V30.7c0-1.8,1.4-3.3,3.2-3.3h24.7c1.7,0,3.2,1.5,3.2,3.3v18.7
	C53.5,51.3,52.1,52.8,50.4,52.8z M25.7,29.5c-0.6,0-1.2,0.6-1.2,1.2v18.7c0,0.7,0.5,1.2,1.2,1.2h24.7c0.6,0,1.2-0.6,1.2-1.2V30.7
	c0-0.7-0.5-1.2-1.2-1.2H25.7z"/>
<path class="st1" d="M59.3,47.5l-0.4-0.1l-6.8-3l0.9-1.9l6.5,2.9c0-0.1,0.1-0.2,0.1-0.4v-9.8c0-0.2-0.1-0.3-0.1-0.4l-6.5,2.9
	L52,35.7l7.2-3.1c1.3,0,2.3,1.1,2.3,2.6V45C61.5,46.4,60.5,47.5,59.3,47.5z"/>
<path class="st2" d="M41.7,41.6l-5.6,3.2c-1.2,0.7-2.6-0.2-2.6-1.5v-6.4c0-1.3,1.4-2.2,2.6-1.5l5.6,3.2
	C42.8,39.2,42.8,40.9,41.7,41.6z"/>
</svg>
