<?xml version="1.0" encoding="utf-8"?>
<!-- Generator: Adobe Illustrator 22.1.0, SVG Export Plug-In . SVG Version: 6.00 Build 0)  -->
<svg version="1.1" id="图层_1" xmlns="http://www.w3.org/2000/svg" xmlns:xlink="http://www.w3.org/1999/xlink" x="0px" y="0px"
	 viewBox="0 0 80 80" style="enable-background:new 0 0 80 80;" xml:space="preserve">
<style type="text/css">
	.st0{fill:#00A99E;}
	.st1{fill:#FFFFFF;}
	.st2{fill:#FFFFFF;stroke:#FFFFFF;stroke-width:0.3;stroke-miterlimit:10;}
</style>
<g>
	<circle class="st0" cx="40.1" cy="40.1" r="39.9"/>
</g>
<g>
	<path class="st1" d="M40.1,75.9c-19.7,0-35.8-16.1-35.8-35.8c0-19.7,16.1-35.8,35.8-35.8s35.8,16.1,35.8,35.8
		C75.9,59.8,59.8,75.9,40.1,75.9z M40.1,5C20.8,5,5,20.8,5,40.1c0,19.3,15.7,35,35,35s35-15.7,35-35C75.1,20.8,59.4,5,40.1,5z"/>
</g>
<path class="st2" d="M53.4,49.9l-2.6-4.5V36c0-2-0.7-4-2-5.8c-1.3-1.8-3.1-3.2-5.2-4l0,0c0,0-0.2-0.1-0.5-0.1v-0.3
	c0-1.7-1.4-3.1-3.1-3.1c-1.7,0-3.1,1.4-3.1,3.1V26c-0.2,0.1-0.4,0.1-0.4,0.1l0,0c-2.1,0.8-4,2.2-5.3,4c-1.3,1.8-2,3.9-2,5.9v9.4
	l-2.7,4.8c-0.5,0.9-0.2,2,0.7,2.6c0.3,0.2,0.6,0.2,0.9,0.2h6.8c0.4,2.6,2.6,4.5,5.2,4.5c2.6,0,4.8-1.9,5.2-4.5H52
	c1,0,1.9-0.8,1.9-1.9C53.9,50.7,53.7,50.3,53.4,49.9L53.4,49.9z M40.1,24.2c0.8,0,1.4,0.6,1.5,1.4c-0.2,0-0.3-0.1-0.5-0.1
	c-0.1,0-0.1,0-0.2,0l-0.1,0c-0.2,0-0.4-0.1-0.7-0.1c-0.3,0-0.5,0-0.7,0.1c0,0,0,0-0.1,0c-0.1,0-0.1,0-0.2,0c-0.2,0-0.3,0-0.5,0.1
	C38.6,24.8,39.3,24.2,40.1,24.2z M40.1,55.9c-1.7,0-3.2-1.2-3.6-2.8h7.1C43.3,54.7,41.8,55.9,40.1,55.9z M52,51.5h-24
	c-0.1,0-0.2,0-0.2-0.1c0-0.1,0-0.2,0-0.3l2.8-5c0.1-0.1,0.1-0.3,0.1-0.4V36c0-3.5,2.7-7.1,6.3-8.4c0.1,0,1-0.3,2-0.5
	c0.1,0,0.1,0,0.2,0c0.1,0,0.2,0,0.4,0c0.2,0,0.3,0,0.5,0c0.1,0,0.3,0,0.5,0c0.1,0,0.2,0,0.4,0c0.1,0,0.1,0,0.2,0
	c1,0.2,2,0.5,2.1,0.5c3.5,1.3,6.2,4.9,6.2,8.3v9.6c0,0.1,0,0.3,0.1,0.4l2.7,4.8c0,0.1,0.1,0.1,0.1,0.2c0.1,0,0.1,0.1,0.1,0.2
	C52.3,51.3,52.2,51.4,52,51.5C52,51.5,52,51.5,52,51.5z"/>
<path class="st2" d="M44.1,43.1c0.3,0.3,0.3,0.7,0,1c-0.3,0.3-0.7,0.3-1,0l-3-3l-3,3c-0.3,0.3-0.7,0.3-1,0c-0.3-0.3-0.3-0.7,0-1l3-3
	l-3-3c-0.3-0.3-0.3-0.7,0-1c0.3-0.3,0.7-0.3,1,0l3,3l3-3c0.3-0.3,0.7-0.3,1,0c0.3,0.3,0.3,0.7,0,1l-3,3L44.1,43.1L44.1,43.1z"/>
</svg>
