<?xml version="1.0" encoding="utf-8"?>
<!-- Generator: Adobe Illustrator 22.1.0, SVG Export Plug-In . SVG Version: 6.00 Build 0)  -->
<svg version="1.1" id="图层_1" xmlns="http://www.w3.org/2000/svg" xmlns:xlink="http://www.w3.org/1999/xlink" x="0px" y="0px"
	 viewBox="0 0 80 80" style="enable-background:new 0 0 80 80;" xml:space="preserve">
<style type="text/css">
	.st0{fill:#00A99E;}
	.st1{fill:#FFFFFF;}
</style>
<g>
	<circle class="st0" cx="40.1" cy="40.1" r="39.9"/>
</g>
<g>
	<path class="st1" d="M40.1,75.9c-19.7,0-35.8-16.1-35.8-35.8c0-19.7,16.1-35.8,35.8-35.8s35.8,16.1,35.8,35.8
		C75.9,59.8,59.8,75.9,40.1,75.9z M40.1,5C20.8,5,5,20.8,5,40.1c0,19.3,15.7,35,35,35s35-15.7,35-35C75.1,20.8,59.4,5,40.1,5z"/>
</g>
<path class="st1" d="M53.1,26.6H27c-1.4,0-2.4,1.1-2.4,2.5v16.3c0,1.4,1.1,2.5,2.4,2.5h12v3.5h-4.1c-0.7,0-1.2,0.5-1.2,1.1
	c0,0.6,0.5,1.1,1.2,1.1h10.3c0.7,0,1.2-0.5,1.2-1.1c0-0.6-0.5-1.1-1.2-1.1h-4.1v-3.5h12c1.4,0,2.5-1.1,2.5-2.5V29.1
	C55.6,27.7,54.5,26.6,53.1,26.6z M53.3,45c0,0.4-0.3,0.8-0.8,0.8c0,0,0,0,0,0H27.6c-0.4,0-0.8-0.3-0.8-0.8c0,0,0,0,0,0V29.5
	c0-0.4,0.4-0.8,0.8-0.8h24.9c0.4,0,0.8,0.3,0.8,0.8V45z"/>
<path class="st1" d="M41.9,32.6c-0.5-0.4-0.8-0.1-0.8,0.6v1.7h-0.1c-2.7,0-7.3,3.1-7.3,5.9c0,0.2,0.2,0.3,0.4,0
	c0.9-1.6,4.5-2.4,6.4-2.4H41v1.8c0,0.6,0.4,0.9,0.9,0.6l4.3-3.4c0.5-0.4,0.5-1,0-1.3L41.9,32.6z"/>
</svg>
