<?xml version="1.0" encoding="utf-8"?>
<!-- Generator: Adobe Illustrator 22.1.0, SVG Export Plug-In . SVG Version: 6.00 Build 0)  -->
<svg version="1.1" id="图层_1" xmlns="http://www.w3.org/2000/svg" xmlns:xlink="http://www.w3.org/1999/xlink" x="0px" y="0px"
	 viewBox="0 0 80 80" style="enable-background:new 0 0 80 80;" xml:space="preserve">
<style type="text/css">
	.st0{fill:#00A99E;}
	.st1{fill:#FFFFFF;}
</style>
<g>
	<circle class="st0" cx="40.1" cy="40.1" r="39.9"/>
</g>
<g>
	<path class="st1" d="M40.1,75.9c-19.7,0-35.8-16.1-35.8-35.8c0-19.7,16.1-35.8,35.8-35.8s35.8,16.1,35.8,35.8
		C75.9,59.8,59.8,75.9,40.1,75.9z M40.1,5C20.8,5,5,20.8,5,40.1c0,19.3,15.7,35,35,35s35-15.7,35-35C75.1,20.8,59.4,5,40.1,5z"/>
</g>
<g>
	<path class="st1" d="M40,30.3c-4.2,0-7.7,3.4-7.7,7.6c0,4.2,3.4,7.7,7.6,7.7c4.2,0,7.7-3.4,7.7-7.6c0-2-0.8-4-2.2-5.4
		C43.9,31.1,42,30.3,40,30.3z M40,43.8c-3.2,0-5.8-2.6-5.8-5.8c0-3.2,2.6-5.8,5.8-5.8s5.8,2.6,5.8,5.8v0
		C45.7,41.2,43.2,43.8,40,43.8L40,43.8z"/>
	<path class="st1" d="M52.8,32.6c-3-7.1-11.2-10.4-18.3-7.4s-10.4,11.2-7.4,18.3s11.2,10.4,18.3,7.4c0.7-0.3,1.3-0.6,1.9-1l-1.4-1.4
		c-5.7,3.2-13.4,1.2-16.6-4.4s-1-13.3,4.6-16.5s13.4-0.9,16.6,4.8c2,3.6,1.9,7.9-0.1,11.4l1.3,1.6C54.2,41.4,54.5,36.7,52.8,32.6
		L52.8,32.6z"/>
	<path class="st1" d="M46.1,45.6l1.4-1.4l8.5,8.5l-1.4,1.4L46.1,45.6z"/>
</g>
</svg>
