<?xml version="1.0" encoding="utf-8"?>
<!-- Generator: Adobe Illustrator 22.1.0, SVG Export Plug-In . SVG Version: 6.00 Build 0)  -->
<svg version="1.1" id="图层_1" xmlns="http://www.w3.org/2000/svg" xmlns:xlink="http://www.w3.org/1999/xlink" x="0px" y="0px"
	 viewBox="0 0 80 80" style="enable-background:new 0 0 80 80;" xml:space="preserve">
<style type="text/css">
	.st0{fill:#00A99E;}
	.st1{fill:#FFFFFF;}
	.st2{fill:#FFFFFF;stroke:#FFFFFF;stroke-width:0.4;stroke-miterlimit:10;}
</style>
<g>
	<circle class="st0" cx="40.1" cy="40.1" r="39.9"/>
</g>
<g>
	<path class="st1" d="M40.1,75.9c-19.7,0-35.8-16.1-35.8-35.8c0-19.7,16.1-35.8,35.8-35.8s35.8,16.1,35.8,35.8
		C75.9,59.8,59.8,75.9,40.1,75.9z M40.1,5C20.8,5,5,20.8,5,40.1c0,19.3,15.7,35,35,35s35-15.7,35-35C75.1,20.8,59.4,5,40.1,5z"/>
</g>
<g>
	<path class="st2" d="M55.8,40.1h-1.4v-3.5c0-0.4-0.3-0.7-0.7-0.7H41.4c-0.1,0-0.5,0-0.7-0.2c-0.2-0.2-0.3-0.5-0.3-0.6l-1.4-5.8
		c-0.1-0.3-0.4-0.5-0.7-0.5H27c-0.4,0-0.7,0.3-0.7,0.7l0,0v21.1c0,0.4,0.3,0.7,0.7,0.7h10.6v1.4H27c-1.2,0-2.1-0.9-2.1-2.1V29.5
		c0-1.2,0.9-2.1,2.1-2.1h11.4c1,0,1.8,0.7,2,1.6l1.4,5.4h11.9c1.2,0,2.1,0.9,2.1,2.1V40.1z M41.8,35.8v-1.4h-1.4v-4.2h9.1
		c1.2,0,2.1,0.9,2.1,2.1v3.5H41.8L41.8,35.8z M40.4,31.6v2.8h9.9v-2.1c0-0.4-0.3-0.7-0.7-0.7H40.4z M55.1,40.8
		c-0.4,0-0.7-0.3-0.7-0.7c0-0.4,0.3-0.7,0.7-0.7c0,0,0,0,0,0c0.4,0,0.7,0.3,0.7,0.7C55.8,40.5,55.5,40.8,55.1,40.8z M37.6,52.7
		c-0.4,0-0.7-0.3-0.7-0.7c0-0.4,0.3-0.7,0.7-0.7s0.7,0.3,0.7,0.7C38.3,52.4,37.9,52.7,37.6,52.7z M52.9,45.7l-1.1,0l-0.3-1.1
		c-0.6-2.3-2.9-3.6-5.2-3c-1.5,0.4-2.7,1.6-3.1,3.2l-0.2,0.8l-0.8,0.2c-1.5,0.5-2.3,2.1-1.8,3.5c0.4,1.2,1.5,2,2.7,2H53
		c1.6,0,2.8-1.3,2.8-2.8c0-1.6-1.3-2.8-2.8-2.8C53,45.7,53,45.7,52.9,45.7L52.9,45.7z M52.9,44.3l0.2,0c2.3,0,4.2,1.9,4.2,4.2
		s-1.9,4.2-4.2,4.2h-9.9c-2.3,0-4.2-1.9-4.2-4.2c0-1.8,1.2-3.5,2.9-4c0.7-3,3.7-5,6.7-4.3C50.7,40.7,52.3,42.2,52.9,44.3L52.9,44.3z
		"/>
</g>
</svg>
