<?xml version="1.0" encoding="utf-8"?>
<!-- Generator: Adobe Illustrator 23.0.0, SVG Export Plug-In . SVG Version: 6.00 Build 0)  -->
<svg version="1.1" id="租金分红" xmlns="http://www.w3.org/2000/svg" xmlns:xlink="http://www.w3.org/1999/xlink" x="0px"
	 y="0px" viewBox="0 0 608 523" style="enable-background:new 0 0 608 523;" xml:space="preserve">
<style type="text/css">
	.st0{fill:none;stroke:#90A7AB;}
	.st1{fill:#9FE7DD;stroke:#34B9A1;stroke-width:2;}
	.st2{enable-background:new    ;}
	.st3{fill:#456E68;}
	.st4{fill:none;stroke:#456E68;stroke-width:1.5;stroke-miterlimit:10;}
</style>
<g id="组_29">
	<path id="形状_1" class="st0" d="M127.8,82.9h212.5l-4.8-5.5"/>
	<path id="形状_1_拷贝_6" class="st0" d="M342.1,103.1H129.8l4.8,5.5"/>
</g>
<g id="组_29_拷贝">
	<path id="形状_1-2" class="st0" d="M497.4,213v116l5.6-4.9"/>
	<path id="形状_1_拷贝_6-2" class="st0" d="M476.6,328.7V213l-5.6,4.9"/>
</g>
<path id="形状_1_拷贝_7" class="st0" d="M381,411H168.2l4.9-5.4"/>
<circle id="椭圆_6" class="st1" cx="482" cy="97" r="96"/>
<g class="st2">
	<path class="st3" d="M510.7,379h-10v10h10V379z M507.4,385.6h-3.3v-3.3h3.3V385.6z"/>
	<path class="st3" d="M524,379h-10v10h10V379z M520.7,385.6h-3.3v-3.3h3.3V385.6z"/>
	<path class="st3" d="M510.7,392.2h-10v10h10V392.2z M507.4,398.9h-3.3v-3.3h3.3V398.9z"/>
	<path class="st3" d="M524,392.2h-10v10h10V392.2z M520.7,398.9h-3.3v-3.3h3.3V398.9z"/>
	<path class="st3" d="M510.7,415.5v-10h-10v10H510.7z M504.1,408.8h3.3v3.3h-3.3V408.8z"/>
	<path class="st3" d="M524,405.5h-10v10h10V405.5z M520.7,412.2h-3.3v-3.3h3.3V412.2z"/>
	<path class="st3" d="M534,375.6v-3.3h-3.3v-6.6h-3.3V359h-29.9v6.6h-3.3v6.6h-3.3v3.3h3.3v43.2h-13.3v-19.9h3.3v-10h-3.3v-2.5
		l-23.3-16.1l-10,6.9V372h-10v12l-3.3,2.3v2.5H431v10h3.3V419c-1.9,0.7-3.3,2.5-3.3,4.7v3.3c0,2.7,2.2,5,5,5h32.4
		c-2.6,3.2-4.2,7.2-4.2,11.6c0,10.1,8.2,18.3,18.3,18.3s18.3-8.2,18.3-18.3c0-4.4-1.6-8.5-4.2-11.6H529c2.7,0,5-2.2,5-5v-3.3
		c0-2.2-1.4-4-3.3-4.7v-43.5h3.3V375.6z M500.8,362.3H524v3.3h-23.3L500.8,362.3L500.8,362.3z M497.5,369h29.9v3.3h-29.9L497.5,369
		L497.5,369z M441,375.4h3.3v4.1l-3.3,2.3V375.4z M437.7,388.1l19.9-13.8l19.9,13.8v0.8h-39.9v-0.8H437.7z M434.3,392.2h46.5v3.3
		h-46.5V392.2z M477.5,398.9v19.9h-13.3v-16.6H451v16.6h-13.3v-19.9H477.5z M460.9,418.8h-6.6v-13.3h6.6V418.8z M482.5,458.7
		c-8.2,0-14.9-6.7-14.9-14.9s6.7-14.9,14.9-14.9s14.9,6.7,14.9,14.9S490.8,458.7,482.5,458.7z M530.7,427.1c0,0.9-0.7,1.7-1.7,1.7
		h-36c-3-2.1-6.6-3.3-10.5-3.3s-7.5,1.2-10.5,3.3h-36c-0.9,0-1.7-0.7-1.7-1.7v-3.3c0-0.9,0.7-1.7,1.7-1.7h93c0.9,0,1.7,0.7,1.7,1.7
		V427.1z M527.4,418.8h-29.9v-43.2h29.9V418.8z"/>
</g>
<g>
	<path class="st3" d="M476.6,452.5v-1.8c1.9-0.6,2.9-1.8,2.9-3.7v-2.2H477V443h2.6v-3c0-1.5,0.4-2.8,1.4-3.7c1-1,2.2-1.5,3.6-1.5
		c1,0,1.9,0.1,2.8,0.6v2.1c-0.8-0.6-1.8-0.7-2.6-0.7c-1.9,0-2.9,1.2-2.9,3.6v2.8h3.9v1.8h-4v1.8c0,1.9-0.8,3.2-2.3,4.1h8.9v1.8
		h-11.7L476.6,452.5L476.6,452.5z"/>
</g>
<g class="st2">
	<g>
		<g>
			<path class="st3" d="M54.6,391H41.9c-0.9,0-1.6,0.7-1.6,1.6v6.3c0,0.9,0.7,1.6,1.6,1.6h12.7c0.9,0,1.6-0.7,1.6-1.6v-6.3
				C56.2,391.7,55.5,391,54.6,391z M46.7,397.3h-3.2v-3.2h3.2V397.3z M53,397.3h-3.2v-3.2H53V397.3z"/>
		</g>
	</g>
	<g>
		<g>
			<path class="st3" d="M54.6,403.7H41.9c-0.9,0-1.6,0.7-1.6,1.6v6.3c0,0.9,0.7,1.6,1.6,1.6h12.7c0.9,0,1.6-0.7,1.6-1.6v-6.3
				C56.2,404.4,55.5,403.7,54.6,403.7z M46.7,410h-3.2v-3.2h3.2V410z M53,410h-3.2v-3.2H53V410z"/>
		</g>
	</g>
	<g>
		<g>
			<path class="st3" d="M54.6,416.3H41.9c-0.9,0-1.6,0.7-1.6,1.6v6.3c0,0.9,0.7,1.6,1.6,1.6h12.7c0.9,0,1.6-0.7,1.6-1.6v-6.3
				C56.2,417,55.5,416.3,54.6,416.3z M46.7,422.7h-3.2v-3.2h3.2V422.7z M53,422.7h-3.2v-3.2H53V422.7z"/>
		</g>
	</g>
	<g>
		<g>
			<path class="st3" d="M111.6,391H98.9c-0.9,0-1.6,0.7-1.6,1.6v6.3c0,0.9,0.7,1.6,1.6,1.6h12.7c0.9,0,1.6-0.7,1.6-1.6v-6.3
				C113.2,391.7,112.5,391,111.6,391z M103.7,397.3h-3.2v-3.2h3.2V397.3z M110,397.3h-3.2v-3.2h3.2V397.3z"/>
		</g>
	</g>
	<g>
		<g>
			<path class="st3" d="M111.6,378.3H98.9c-0.9,0-1.6,0.7-1.6,1.6v6.3c0,0.9,0.7,1.6,1.6,1.6h12.7c0.9,0,1.6-0.7,1.6-1.6v-6.3
				C113.2,379,112.5,378.3,111.6,378.3z M103.7,384.7h-3.2v-3.2h3.2V384.7z M110,384.7h-3.2v-3.2h3.2V384.7z"/>
		</g>
	</g>
	<g>
		<g>
			<path class="st3" d="M73.6,397.3h-6.3c-0.9,0-1.6,0.7-1.6,1.6v6.3c0,0.9,0.7,1.6,1.6,1.6h6.3c0.9,0,1.6-0.7,1.6-1.6v-6.3
				C75.2,398,74.5,397.3,73.6,397.3z M72,403.7h-3.2v-3.2H72V403.7z"/>
		</g>
	</g>
	<g>
		<g>
			<path class="st3" d="M86.3,397.3H80c-0.9,0-1.6,0.7-1.6,1.6v6.3c0,0.9,0.7,1.6,1.6,1.6h6.3c0.9,0,1.6-0.7,1.6-1.6v-6.3
				C87.8,398,87.1,397.3,86.3,397.3z M84.7,403.7h-3.2v-3.2h3.2V403.7z"/>
		</g>
	</g>
	<g>
		<g>
			<path class="st3" d="M73.6,384.7h-6.3c-0.9,0-1.6,0.7-1.6,1.6v6.3c0,0.9,0.7,1.6,1.6,1.6h6.3c0.9,0,1.6-0.7,1.6-1.6v-6.3
				C75.2,385.4,74.5,384.7,73.6,384.7z M72,391h-3.2v-3.2H72V391z"/>
		</g>
	</g>
	<g>
		<g>
			<path class="st3" d="M86.3,384.7H80c-0.9,0-1.6,0.7-1.6,1.6v6.3c0,0.9,0.7,1.6,1.6,1.6h6.3c0.9,0,1.6-0.7,1.6-1.6v-6.3
				C87.8,385.4,87.1,384.7,86.3,384.7z M84.7,391h-3.2v-3.2h3.2V391z"/>
		</g>
	</g>
	<g>
		<g>
			<path class="st3" d="M73.6,372h-6.3c-0.9,0-1.6,0.7-1.6,1.6v6.3c0,0.9,0.7,1.6,1.6,1.6h6.3c0.9,0,1.6-0.7,1.6-1.6v-6.3
				C75.2,372.7,74.5,372,73.6,372z M72,378.3h-3.2v-3.2H72V378.3z"/>
		</g>
	</g>
	<g>
		<g>
			<path class="st3" d="M86.3,372H80c-0.9,0-1.6,0.7-1.6,1.6v6.3c0,0.9,0.7,1.6,1.6,1.6h6.3c0.9,0,1.6-0.7,1.6-1.6v-6.3
				C87.8,372.7,87.1,372,86.3,372z M84.7,378.3h-3.2v-3.2h3.2V378.3z"/>
		</g>
	</g>
	<g>
		<g>
			<path class="st3" d="M73.6,416.3h-6.3c-0.9,0-1.6,0.7-1.6,1.6v6.3c0,0.9,0.7,1.6,1.6,1.6h6.3c0.9,0,1.6-0.7,1.6-1.6v-6.3
				C75.2,417,74.5,416.3,73.6,416.3z M72,422.7h-3.2v-3.2H72V422.7z"/>
		</g>
	</g>
	<g>
		<g>
			<rect x="40.3" y="429" class="st3" width="3.2" height="3.2"/>
		</g>
	</g>
	<g>
		<g>
			<rect x="46.7" y="429" class="st3" width="3.2" height="3.2"/>
		</g>
	</g>
	<g>
		<g>
			<rect x="53" y="429" class="st3" width="3.2" height="3.2"/>
		</g>
	</g>
	<g>
		<g>
			<path class="st3" d="M127.4,410h-7.9v-36.4c0-0.9-0.7-1.6-1.6-1.6h-11.1v-2.5l1.7-1.7c1.4,1,3,1.6,4.7,1.6c2,0,4-0.8,5.6-2.3
				l0.3-0.3c0.6-0.6,0.6-1.6,0-2.2l-3.6-3.6l3.6-3.6l-2.2-2.2l-3.6,3.6l-5.2-5.2c-0.3-0.3-0.7-0.5-1.1-0.5c-0.6,0-1,0.3-1.3,0.6
				c-1.6,1.4-2.5,3.4-2.5,5.5s0.8,4.2,2.3,5.7l0.8,0.8l-2,2c-0.3,0.3-0.5,0.7-0.5,1.1v3.2h-9.5v-4.8c0-0.9-0.7-1.6-1.6-1.6H87l-9-12
				c-0.6-0.8-1.9-0.8-2.5,0l-9,12H61c-0.9,0-1.6,0.7-1.6,1.6v17.4h-9.5V372h-3.2v12.7H35.6c-0.9,0-1.6,0.7-1.6,1.6v60.2
				c0,0.9,0.7,1.6,1.6,1.6h25.3H72h12.7h1.6h9.5h25.3c4.4,0,7.9-3.6,7.9-7.9v-28.5C129,410.7,128.3,410,127.4,410z M59.3,444.8H37.2
				v-57h22.2v57H59.3z M106.9,356.9l8.7,8.7c-1.8,1.1-4.2,0.8-5.7-0.7l-2.2-2.2c-0.9-0.9-1.4-2.1-1.4-3.4
				C106.3,358.4,106.5,357.6,106.9,356.9z M76.8,357.2l6.3,8.4H70.4L76.8,357.2z M70.4,432.2v12.7h-7.9v-58.6v-17.4H91v4.8v28.5h3.2
				v-26.9h22.2V410h-3.2v-1.6c0-2.6-2.1-4.8-4.8-4.8h-9.5c-2.6,0-4.8,2.1-4.8,4.8v1.6H79.9c-0.9,0-1.6,0.7-1.6,1.6V429H65.7v3.2
				H70.4z M110,408.4v1.6H97.3v-1.6c0-0.9,0.7-1.6,1.6-1.6h9.5C109.3,406.8,110,407.5,110,408.4z M73.6,444.8v-12.7h4.8v7.9
				c0,1.8,0.6,3.4,1.6,4.8L73.6,444.8L73.6,444.8z M125.8,440.1c0,2.6-2.1,4.8-4.8,4.8H95.8h-9.5c-2.6,0-4.8-2.1-4.8-4.8v-15.9
				c1.3,1,3,1.6,4.8,1.6h1.6v4.8c0,0.9,0.7,1.6,1.6,1.6h6.3c0.9,0,1.6-0.7,1.6-1.6v-4.8H99h9.5h1.6v4.8c0,0.9,0.7,1.6,1.6,1.6h6.3
				c0.9,0,1.6-0.7,1.6-1.6v-4.8h1.6c1.8,0,3.4-0.6,4.8-1.6v15.9H125.8z M91,429v-3.2h3.2v3.2H91z M100.5,422.7v-3.2h6.3v3.2H100.5z
				 M113.2,429v-3.2h3.2v3.2H113.2z M125.8,417.9c0,2.6-2.1,4.8-4.8,4.8h-3.2h-6.3H110v-4.8c0-0.9-0.7-1.6-1.6-1.6h-9.5
				c-0.9,0-1.6,0.7-1.6,1.6v4.8h-1.6h-6.3h-3.2c-2.6,0-4.8-2.1-4.8-4.8v-4.8h44.3v4.8H125.8z"/>
		</g>
	</g>
	<g>
		<g>
			<rect x="119.5" y="438.5" class="st3" width="3.2" height="3.2"/>
		</g>
	</g>
	<g>
		<g>
			<rect x="113.2" y="438.5" class="st3" width="3.2" height="3.2"/>
		</g>
	</g>
	<g>
		<g>
			<rect x="106.8" y="438.5" class="st3" width="3.2" height="3.2"/>
		</g>
	</g>
</g>
<g>
	<circle class="st4" cx="56.1" cy="58.7" r="15.8"/>
	<line class="st4" x1="43.4" y1="83.4" x2="56.1" y2="97.9"/>
	<line class="st4" x1="68.4" y1="83.4" x2="56.1" y2="97.9"/>
	<line class="st4" x1="56.1" y1="112.3" x2="56.1" y2="97.9"/>
	<path class="st4" d="M89.9,104v3.4c0,3.1-2.5,5.6-5.6,5.6H27.7c-3.1,0-5.6-2.5-5.6-5.6V104"/>
	<path class="st4" d="M27.7,98.4"/>
	<path class="st4" d="M22.1,105.6C22.1,92.8,32.7,83,45.4,83h21.2c12.8,0,23.2,10.5,23.2,23.2l0,0"/>
</g>
<g class="st2">
	<path class="st3" d="M14.4,146.5c1.1,0.4,1.6,1,1.6,2c0,0.5-0.1,0.9-0.4,1.3s-0.6,0.5-1.1,0.5s-0.9-0.1-1.2-0.4s-0.4-0.7-0.4-1.4
		v-1.1c-1.5,0.3-2.8,1.3-3.9,2.9H7.6v-6.4H7.5c-0.4,0-0.8-0.2-1.1-0.5c-0.3-0.3-0.5-0.7-0.5-1.1s0.2-0.8,0.5-1.1s0.7-0.5,1.1-0.5
		c0.4,0,0.8,0.2,1.1,0.5c0.3,0.3,0.5,0.7,0.5,1.1v6.7c1-1.3,2.3-2.1,3.9-2.4V141h1.5L14.4,146.5L14.4,146.5z M7.5,143
		c0.2,0,0.4-0.1,0.5-0.2c0.1-0.1,0.2-0.3,0.2-0.5s-0.1-0.4-0.2-0.5c-0.1-0.1-0.3-0.2-0.5-0.2s-0.4,0.1-0.5,0.2
		c-0.1,0.2-0.2,0.3-0.2,0.5s0.1,0.4,0.2,0.5C7.1,142.9,7.3,143,7.5,143z M15.3,148.5c0-0.2-0.1-0.5-0.2-0.7
		c-0.2-0.2-0.4-0.4-0.6-0.5v1.5c0,0.3,0,0.5,0.1,0.5s0.1,0.1,0.2,0.1C15.1,149.5,15.3,149.1,15.3,148.5z"/>
	<path class="st3" d="M16.5,136.2c-0.2,1.1-0.6,1.9-1.4,2.5s-1.8,0.9-2.9,0.9c-0.8,0-1.3-0.2-1.8-0.5s-0.6-0.8-0.6-1.3
		c0-0.4,0.2-0.8,0.5-1.1s0.7-0.5,1.1-0.5s0.8,0.2,1.1,0.5s0.5,0.7,0.5,1.1c0,0.4-0.1,0.7-0.4,1c0.8,0,1.4-0.2,1.9-0.7
		s0.8-1.1,0.9-1.8L16.5,136.2L16.5,136.2z M11.2,138.5c0.2,0,0.4-0.1,0.5-0.2c0.1-0.2,0.2-0.3,0.2-0.5s-0.1-0.4-0.2-0.5
		c-0.1-0.1-0.3-0.2-0.5-0.2s-0.4,0.1-0.5,0.2c-0.1,0.2-0.2,0.3-0.2,0.5s0.1,0.4,0.2,0.5C10.8,138.5,11,138.5,11.2,138.5z"/>
	<path class="st3" d="M25.3,150.2h-1.5v-6.1c0-0.7-0.2-1.3-0.7-1.8s-1.1-0.7-1.9-0.7c-1.2,0-2,0.4-2.4,1.1c0.3,0.6,1,0.9,2,1v0.5
		c-0.4,0-0.7,0.1-0.9,0.4s-0.3,0.6-0.3,0.9v4.6h-1.5v-4.5c0-0.6,0.3-1.1,0.8-1.5c-0.7-0.3-1.3-0.7-1.6-1.3c0.7-1.4,2-2.2,3.9-2.2
		c1.2,0,2.1,0.3,2.9,0.9s1.2,1.4,1.2,2.5V150.2z"/>
	<path class="st3" d="M34,150.2h-1.5v-0.3c-0.6-1.6-1.2-2.8-1.8-3.8c-0.6-0.9-1-1.4-1.2-1.4s-0.3,0.2-0.3,0.6v1.8h0.1
		c0.4,0,0.8,0.2,1.1,0.5s0.5,0.7,0.5,1.1s-0.2,0.8-0.5,1.1s-0.7,0.5-1.1,0.5s-0.8-0.2-1.1-0.5s-0.5-0.7-0.5-1.1v-3.4
		c0-1.2,0.5-1.7,1.4-1.7c1,0,2.2,1.4,3.4,4.3v-4c0-0.7-0.2-1.2-0.6-1.6c-0.4-0.4-1-0.6-1.7-0.6c-1.1,0-1.9,0.4-2.5,1.3l-0.7-0.6
		c0.9-1.1,2-1.7,3.3-1.7c1.1,0,2,0.3,2.7,0.9s1.1,1.4,1.1,2.3L34,150.2L34,150.2z M29.3,149.5c0.2,0,0.4-0.1,0.5-0.2
		c0.1-0.1,0.2-0.3,0.2-0.5s-0.1-0.4-0.2-0.5c-0.1-0.2-0.3-0.2-0.5-0.2s-0.4,0.1-0.5,0.2c-0.1,0.1-0.2,0.3-0.2,0.5s0.1,0.4,0.2,0.5
		S29.1,149.5,29.3,149.5z"/>
	<path class="st3" d="M41.7,150.2h-1.5c-1-1.4-1.8-2.5-2.6-3.1s-1.6-1-2.6-1v-0.8c1,0,1.8,0.3,2.6,0.8s1.6,1.4,2.6,2.7v-5h-0.1
		c-0.4,0-0.8-0.2-1.1-0.5s-0.5-0.7-0.5-1.1s0.2-0.8,0.5-1.1s0.7-0.5,1.1-0.5c0.4,0,0.8,0.2,1.1,0.5s0.5,0.7,0.5,1.1V150.2z
		 M40.1,143c0.2,0,0.4-0.1,0.5-0.2s0.2-0.3,0.2-0.5s-0.1-0.4-0.2-0.5c-0.2-0.1-0.3-0.2-0.5-0.2s-0.4,0.1-0.5,0.2
		c-0.1,0.2-0.2,0.3-0.2,0.5s0.1,0.4,0.2,0.5S39.9,143,40.1,143z"/>
	<path class="st3" d="M52,150.2h-1.5v-7.8c0-0.4-0.1-0.6-0.3-0.6c-0.1,0-0.2,0.1-0.4,0.3s-0.4,0.5-0.6,0.9s-0.5,1-0.8,1.6
		s-0.7,1.7-1.2,3s-0.7,2.1-0.7,2.3v0.3H45v-6.4h-0.1c-0.4,0-0.8-0.2-1.1-0.5s-0.5-0.7-0.5-1.1s0.2-0.8,0.5-1.1s0.7-0.5,1.1-0.5
		s0.8,0.2,1.1,0.5s0.5,0.7,0.5,1.1v4.7c0.6-1.7,1.3-3.2,2-4.4s1.4-1.8,2.2-1.8c0.9,0,1.4,0.6,1.4,1.7L52,150.2L52,150.2z M44.9,143
		c0.2,0,0.4-0.1,0.5-0.2s0.2-0.3,0.2-0.5s-0.1-0.4-0.2-0.5c-0.1-0.1-0.3-0.2-0.5-0.2s-0.4,0.1-0.5,0.2c-0.1,0.2-0.2,0.3-0.2,0.5
		s0.1,0.4,0.2,0.5S44.7,143,44.9,143z"/>
	<path class="st3" d="M52,154h-0.8v-0.9c-0.2,0-0.4-0.1-0.5-0.2c-0.1-0.1-0.2-0.3-0.2-0.5s0.1-0.4,0.2-0.5s0.3-0.2,0.5-0.2
		c0.3,0,0.5,0.1,0.6,0.2s0.2,0.3,0.2,0.6V154z M51.2,152.7c0.2,0,0.4-0.1,0.4-0.4s-0.1-0.4-0.4-0.4s-0.4,0.1-0.4,0.4
		S50.9,152.7,51.2,152.7z"/>
	<path class="st3" d="M62.1,146.5c1.1,0.4,1.6,1,1.6,2c0,0.5-0.1,0.9-0.4,1.3s-0.6,0.5-1.1,0.5s-0.9-0.1-1.2-0.4s-0.4-0.7-0.4-1.4
		v-1.1c-1.5,0.3-2.8,1.3-3.9,2.9h-1.4v-6.4h-0.1c-0.4,0-0.8-0.2-1.1-0.5s-0.5-0.7-0.5-1.1s0.2-0.8,0.5-1.1s0.7-0.5,1.1-0.5
		s0.8,0.2,1.1,0.5s0.5,0.7,0.5,1.1v6.7c1-1.3,2.3-2.1,3.9-2.4V141h1.5v5.5H62.1z M55.2,143c0.2,0,0.4-0.1,0.5-0.2s0.2-0.3,0.2-0.5
		s-0.1-0.4-0.2-0.5c-0.1-0.1-0.3-0.2-0.5-0.2s-0.4,0.1-0.5,0.2c-0.1,0.2-0.2,0.3-0.2,0.5s0.1,0.4,0.2,0.5S55,143,55.2,143z
		 M62.9,148.5c0-0.2-0.1-0.5-0.2-0.7c-0.2-0.2-0.4-0.4-0.6-0.5v1.5c0,0.3,0,0.5,0.1,0.5s0.1,0.1,0.2,0.1
		C62.8,149.5,62.9,149.1,62.9,148.5z"/>
	<path class="st3" d="M73.3,154c-0.9-1.1-1.6-2.4-2.2-3.9s-0.9-3-0.9-4.6c0-1.4,0.2-2.7,0.7-4c0.5-1.5,1.3-3,2.4-4.4h1.1
		c-0.7,1.2-1.2,2.1-1.4,2.6c-0.4,0.8-0.6,1.7-0.8,2.5c-0.3,1.1-0.4,2.2-0.4,3.3c0,2.8,0.9,5.6,2.6,8.4L73.3,154L73.3,154z"/>
	<path class="st3" d="M84.3,150.2h-1.5c-0.7-1.6-1.6-2.8-2.5-3.7c-1,0.9-1.8,2.2-2.5,3.7h-1.5v-8c0-0.4,0.2-0.8,0.5-1.1
		s0.7-0.5,1.1-0.5s0.8,0.2,1.1,0.5s0.5,0.7,0.5,1.1s-0.2,0.8-0.5,1.1s-0.7,0.5-1.1,0.5h-0.1v4.2c0.6-1.1,1.5-2.1,2.5-2.8
		c1,0.8,1.9,1.7,2.5,2.8v-7.1h1.5V150.2z M77.8,143c0.2,0,0.4-0.1,0.5-0.2s0.2-0.3,0.2-0.5s-0.1-0.4-0.2-0.5s-0.3-0.2-0.5-0.2
		s-0.4,0.1-0.5,0.2c-0.1,0.2-0.2,0.3-0.2,0.5s0.1,0.4,0.2,0.5S77.6,143,77.8,143z"/>
	<path class="st3" d="M84.3,152.8c0,0.8-0.4,1.1-1.3,1.1h-1.5V153c-0.2,0-0.4-0.1-0.5-0.2c-0.1-0.1-0.2-0.3-0.2-0.5s0.1-0.4,0.2-0.5
		s0.3-0.2,0.5-0.2c0.3,0,0.5,0.1,0.6,0.2s0.2,0.3,0.2,0.6v0.9h0.6c0.4,0,0.5-0.2,0.5-0.6v-1.1h0.9V152.8z M81.5,152.7
		c0.2,0,0.4-0.1,0.4-0.4s-0.1-0.4-0.4-0.4s-0.4,0.1-0.4,0.4S81.2,152.7,81.5,152.7z"/>
	<path class="st3" d="M85.2,136.2c-0.1,1-0.4,1.9-1.2,2.5s-1.7,0.9-3,0.9c-0.4,0-0.8,0-1.1-0.1v-0.6c0.6,0,1-0.2,1.3-0.5
		c-0.3,0-0.6-0.1-0.8-0.3c-0.2-0.2-0.3-0.5-0.3-0.8s0.1-0.6,0.3-0.8c0.2-0.2,0.5-0.3,0.8-0.3s0.6,0.1,0.8,0.3
		c0.2,0.2,0.3,0.5,0.3,0.8c0,0.6-0.3,1.1-0.9,1.6c0.8,0,1.5-0.3,2.1-0.8s0.9-1.1,0.9-1.9L85.2,136.2L85.2,136.2z M81.2,137.9
		c0.2,0,0.3-0.1,0.4-0.2s0.2-0.2,0.2-0.4s-0.1-0.3-0.2-0.4s-0.2-0.2-0.4-0.2c-0.2,0-0.3,0.1-0.4,0.2s-0.2,0.2-0.2,0.4
		s0.1,0.3,0.2,0.4S81.1,137.9,81.2,137.9z"/>
	<path class="st3" d="M94.1,150.2h-1.5v-6.1c0-0.7-0.2-1.3-0.7-1.8s-1.1-0.7-1.9-0.7c-1.2,0-2,0.4-2.4,1.1c0.3,0.6,1,0.9,2,1v0.5
		c-0.4,0-0.7,0.1-0.9,0.4s-0.3,0.6-0.3,0.9v1.6h0.1c0.4,0,0.8,0.2,1.1,0.5s0.5,0.7,0.5,1.1s-0.2,0.8-0.5,1.1s-0.7,0.5-1.1,0.5
		s-0.8-0.2-1.1-0.5s-0.5-0.7-0.5-1.1v-3.1c0-0.6,0.3-1.1,0.8-1.5c-0.7-0.3-1.3-0.7-1.6-1.3c0.7-1.4,2-2.2,3.9-2.2
		c1.2,0,2.1,0.3,2.9,0.9s1.2,1.4,1.2,2.5V150.2z M88.4,149.5c0.2,0,0.4-0.1,0.6-0.2c0.2-0.1,0.2-0.3,0.2-0.5s-0.1-0.4-0.2-0.5
		c-0.2-0.2-0.3-0.2-0.6-0.2c-0.2,0-0.4,0.1-0.5,0.2c-0.2,0.1-0.2,0.3-0.2,0.5s0.1,0.4,0.2,0.5S88.2,149.5,88.4,149.5z"/>
	<path class="st3" d="M94.1,139.6h-7c0.5-1.9,1.7-2.8,3.5-2.8c0.3,0,0.6,0,0.8,0.1v-0.6h0.7v0.8c0.5,0.2,0.9,0.5,1.3,1v-1.8h0.7
		V139.6z M92.9,138.8c-0.4-0.9-1.2-1.4-2.3-1.4s-1.9,0.5-2.3,1.4H92.9z"/>
	<path class="st3" d="M103.5,148.3c0,0.6-0.2,1-0.6,1.4s-0.9,0.5-1.5,0.5h-2.3c-0.6,0-1.1-0.2-1.5-0.5s-0.6-0.8-0.6-1.4V145
		c0-0.4,0.2-0.8,0.5-1.1s0.7-0.5,1.1-0.5s0.8,0.2,1.1,0.5s0.5,0.7,0.5,1.1s-0.2,0.8-0.5,1.1s-0.7,0.5-1.1,0.5h-0.1v1.9
		c0,0.5,0.3,0.8,0.9,0.8h1.6c0.6,0,0.9-0.3,0.9-0.8V144c0-0.7-0.3-1.2-0.8-1.6s-1.1-0.6-1.9-0.6c-0.6,0-1.1,0.1-1.7,0.4
		c-0.6,0.2-1,0.6-1.2,1l-0.7-0.6c0.4-0.5,0.9-0.9,1.6-1.3s1.4-0.5,2.1-0.5c1.1,0,2.1,0.3,2.9,0.9c0.8,0.6,1.2,1.4,1.2,2.3
		L103.5,148.3L103.5,148.3z M98.7,145.7c0.2,0,0.4-0.1,0.5-0.2c0.2-0.1,0.2-0.3,0.2-0.5s-0.1-0.4-0.2-0.5c-0.2-0.2-0.3-0.2-0.5-0.2
		s-0.4,0.1-0.5,0.2c-0.1,0.1-0.2,0.3-0.2,0.5s0.1,0.4,0.2,0.5C98.3,145.7,98.5,145.7,98.7,145.7z"/>
	<path class="st3" d="M109.6,147.1L109.6,147.1c0.5,0,0.9,0.2,1.2,0.5s0.5,0.7,0.5,1.1s-0.2,0.8-0.5,1.1s-0.7,0.5-1.1,0.5
		s-0.8-0.2-1.1-0.5s-0.5-0.7-0.5-1.1v-10.2c0-0.8-0.2-1.4-0.5-1.8s-0.8-0.6-1.5-0.6c-0.5,0-1,0.1-1.6,0.2c0.1-0.9,0.4-1.5,1-2
		s1.2-0.8,2-0.8c0.4,0,0.9,0.1,1.5,0.3s0.9,0.3,1.1,0.3c0.4,0,0.6-0.2,0.8-0.5l0.7,0.7c-0.4,0.5-0.9,0.8-1.6,0.8
		c-0.3,0-0.7-0.1-1.3-0.3s-1-0.3-1.3-0.3c-0.8,0-1.3,0.3-1.7,0.9c0.4-0.1,0.6-0.1,0.8-0.1c0.9,0,1.6,0.2,2.1,0.7s0.8,1.2,0.8,2.2
		v8.9H109.6z M109.7,149.5c0.2,0,0.4-0.1,0.5-0.2c0.1-0.1,0.2-0.3,0.2-0.5s-0.1-0.4-0.2-0.5c-0.1-0.2-0.3-0.2-0.5-0.2
		s-0.4,0.1-0.5,0.2c-0.1,0.1-0.2,0.3-0.2,0.5s0.1,0.4,0.2,0.5S109.5,149.5,109.7,149.5z"/>
	<path class="st3" d="M121.4,150.2h-1.5v-7.8c0-0.4-0.1-0.6-0.3-0.6c-0.1,0-0.2,0.1-0.4,0.3s-0.4,0.5-0.6,0.9s-0.5,1-0.8,1.6
		s-0.7,1.7-1.2,3s-0.7,2.1-0.7,2.3v0.3h-1.5v-6.4h-0.1c-0.4,0-0.8-0.2-1.1-0.5s-0.5-0.7-0.5-1.1s0.2-0.8,0.5-1.1s0.7-0.5,1.1-0.5
		s0.8,0.2,1.1,0.5s0.5,0.7,0.5,1.1v4.7c0.6-1.7,1.3-3.2,2-4.4s1.4-1.8,2.2-1.8c0.9,0,1.4,0.6,1.4,1.7L121.4,150.2L121.4,150.2z
		 M114.3,143c0.2,0,0.4-0.1,0.5-0.2s0.2-0.3,0.2-0.5s-0.1-0.4-0.2-0.5s-0.3-0.2-0.5-0.2s-0.4,0.1-0.5,0.2c-0.1,0.2-0.2,0.3-0.2,0.5
		s0.1,0.4,0.2,0.5S114.1,143,114.3,143z"/>
	<path class="st3" d="M125.1,147.1L125.1,147.1c0.5,0,0.9,0.2,1.2,0.5s0.5,0.7,0.5,1.1s-0.2,0.8-0.5,1.1s-0.7,0.5-1.1,0.5
		s-0.8-0.2-1.1-0.5s-0.5-0.7-0.5-1.1v-7.8h1.5V147.1z M125.2,149.5c0.2,0,0.4-0.1,0.5-0.2c0.1-0.1,0.2-0.3,0.2-0.5s-0.1-0.4-0.2-0.5
		c-0.1-0.2-0.3-0.2-0.5-0.2s-0.4,0.1-0.5,0.2c-0.2,0.1-0.2,0.3-0.2,0.5s0.1,0.4,0.2,0.5S125,149.5,125.2,149.5z"/>
	<path class="st3" d="M136.7,150.2h-1.5v-6.1c0-0.7-0.3-1.3-0.8-1.8c-0.5-0.4-1.2-0.7-2.1-0.7c-0.9,0-1.7,0.3-2.2,0.8
		s-0.8,1.1-0.8,1.8c0,0.8,0.2,1.5,0.7,2.2v-1.5c0-0.4,0.2-0.8,0.5-1.1s0.7-0.5,1.1-0.5c0.4,0,0.8,0.2,1.1,0.5s0.5,0.7,0.5,1.1
		s-0.2,0.8-0.5,1.1s-0.7,0.5-1.1,0.5h-0.1v3.6H130v-0.8c0-0.6-0.3-1.4-0.8-2.4s-0.8-1.9-0.8-2.7c0-1,0.4-1.9,1.1-2.5s1.7-1,2.9-1
		c1.3,0,2.3,0.3,3.1,0.9c0.8,0.6,1.2,1.4,1.2,2.5L136.7,150.2L136.7,150.2z M131.5,145.8c0.2,0,0.4-0.1,0.5-0.2
		c0.2-0.1,0.2-0.3,0.2-0.5s-0.1-0.4-0.2-0.5s-0.3-0.2-0.5-0.2s-0.4,0.1-0.5,0.2s-0.2,0.3-0.2,0.5s0.1,0.4,0.2,0.5
		C131.1,145.7,131.3,145.8,131.5,145.8z"/>
	<path class="st3" d="M136.7,135.6c0,0.9-0.5,1.3-1.4,1.3c-0.3,0-0.6,0-1.1-0.1s-0.8-0.1-1.1-0.1c-0.4,0-0.7,0.1-0.9,0.3
		s-0.3,0.5-0.3,0.8s0.1,0.6,0.2,0.8c0.2-0.5,0.5-0.7,1-0.7c0.4,0,0.9,0.2,1.4,0.5c0-0.3,0.1-0.6,0.3-0.8s0.5-0.3,0.8-0.3
		s0.6,0.1,0.8,0.3s0.3,0.5,0.3,0.8s-0.1,0.6-0.3,0.8s-0.5,0.3-0.8,0.3c-0.4,0-0.9-0.2-1.3-0.5c-0.5-0.3-0.9-0.5-1.2-0.5
		c-0.2,0-0.4,0.1-0.5,0.3s-0.2,0.4-0.2,0.7h-0.7c-0.4-0.5-0.6-1.1-0.6-1.7c0-0.5,0.2-1,0.6-1.3s0.9-0.5,1.5-0.5c0.3,0,0.7,0,1.1,0.1
		s0.8,0.1,1,0.1c0.4,0,0.7-0.2,0.6-0.6L136.7,135.6L136.7,135.6z M135.6,139c0.2,0,0.3-0.1,0.4-0.2s0.2-0.2,0.2-0.4
		s-0.1-0.3-0.2-0.4s-0.2-0.2-0.4-0.2s-0.3,0.1-0.4,0.2s-0.2,0.2-0.2,0.4s0.1,0.3,0.2,0.4S135.4,139,135.6,139z"/>
	<path class="st3" d="M146.8,146.5c1.1,0.4,1.6,1,1.6,2c0,0.5-0.1,0.9-0.4,1.3s-0.6,0.5-1.1,0.5s-0.9-0.1-1.2-0.4s-0.4-0.7-0.4-1.4
		v-1.1c-1.5,0.3-2.8,1.3-3.9,2.9H140v-6.4h-0.1c-0.4,0-0.8-0.2-1.1-0.5s-0.5-0.7-0.5-1.1s0.2-0.8,0.5-1.1s0.7-0.5,1.1-0.5
		s0.8,0.2,1.1,0.5s0.5,0.7,0.5,1.1v6.7c1-1.3,2.3-2.1,3.9-2.4V141h1.5L146.8,146.5L146.8,146.5z M139.9,143c0.2,0,0.4-0.1,0.5-0.2
		s0.2-0.3,0.2-0.5s-0.1-0.4-0.2-0.5c-0.1-0.1-0.3-0.2-0.5-0.2s-0.4,0.1-0.5,0.2c-0.1,0.2-0.2,0.3-0.2,0.5s0.1,0.4,0.2,0.5
		S139.7,143,139.9,143z M147.6,148.5c0-0.2-0.1-0.5-0.2-0.7c-0.2-0.2-0.4-0.4-0.6-0.5v1.5c0,0.3,0,0.5,0.1,0.5s0.1,0.1,0.2,0.1
		C147.4,149.5,147.6,149.1,147.6,148.5z"/>
	<path class="st3" d="M151.1,154H150c1.8-2.8,2.6-5.6,2.6-8.4c0-1.1-0.1-2.2-0.4-3.3c-0.2-0.9-0.5-1.7-0.8-2.5
		c-0.2-0.5-0.7-1.4-1.4-2.6h1.1c1.1,1.5,1.9,2.9,2.4,4.4c0.5,1.3,0.7,2.6,0.7,4c0,1.6-0.3,3.1-0.9,4.6S151.9,152.9,151.1,154z"/>
</g>
<g class="st2">
	<path class="st3" d="M309.8,483.3h-1.5v-6.1c0-0.7-0.2-1.3-0.7-1.8s-1.1-0.7-1.9-0.7c-1.2,0-2,0.4-2.4,1.1c0.3,0.6,1,0.9,2,1v0.5
		c-0.4,0-0.7,0.1-0.9,0.4s-0.3,0.6-0.3,0.9v4.6h-1.5v-4.5c0-0.6,0.3-1.1,0.8-1.5c-0.7-0.3-1.3-0.7-1.6-1.3c0.7-1.4,2-2.2,3.9-2.2
		c1.2,0,2.1,0.3,2.9,0.9c0.8,0.6,1.2,1.4,1.2,2.5V483.3z"/>
	<path class="st3" d="M319.2,481.4c0,0.6-0.2,1-0.6,1.4s-0.9,0.5-1.5,0.5h-2.3c-0.6,0-1.1-0.2-1.4-0.5s-0.6-0.8-0.6-1.4v-3.3
		c0-0.4,0.2-0.8,0.5-1.1c0.3-0.3,0.7-0.5,1.1-0.5c0.4,0,0.8,0.2,1.1,0.5c0.3,0.3,0.5,0.7,0.5,1.1c0,0.4-0.2,0.8-0.5,1.1
		c-0.3,0.3-0.7,0.5-1.1,0.5h-0.1v1.9c0,0.5,0.3,0.8,0.9,0.8h1.6c0.6,0,0.9-0.3,0.9-0.8v-4.5c0-0.7-0.3-1.2-0.8-1.6
		c-0.5-0.4-1.1-0.6-1.9-0.6c-0.6,0-1.1,0.1-1.7,0.4c-0.6,0.2-1,0.6-1.2,1l-0.7-0.6c0.4-0.5,0.9-0.9,1.6-1.3s1.4-0.5,2.1-0.5
		c1.1,0,2.1,0.3,2.9,0.9c0.8,0.6,1.2,1.4,1.2,2.3V481.4z M314.3,478.8c0.2,0,0.4-0.1,0.5-0.2c0.2-0.1,0.2-0.3,0.2-0.5
		s-0.1-0.4-0.2-0.5c-0.2-0.2-0.3-0.2-0.5-0.2s-0.4,0.1-0.5,0.2s-0.2,0.3-0.2,0.5s0.1,0.4,0.2,0.5
		C313.9,478.8,314.1,478.8,314.3,478.8z"/>
	<path class="st3" d="M326.8,483.3h-1.5c-1-1.4-1.8-2.5-2.6-3.1c-0.8-0.6-1.6-1-2.6-1v-0.8c1,0,1.8,0.3,2.6,0.8s1.6,1.4,2.6,2.7v-5
		h-0.1c-0.4,0-0.8-0.2-1.1-0.5s-0.5-0.7-0.5-1.1s0.2-0.8,0.5-1.1s0.7-0.5,1.1-0.5c0.4,0,0.8,0.2,1.1,0.5s0.5,0.7,0.5,1.1V483.3z
		 M325.3,476.1c0.2,0,0.4-0.1,0.5-0.2s0.2-0.3,0.2-0.5s-0.1-0.4-0.2-0.5c-0.2-0.1-0.3-0.2-0.5-0.2s-0.4,0.1-0.5,0.2
		c-0.1,0.2-0.2,0.3-0.2,0.5s0.1,0.4,0.2,0.5S325,476.1,325.3,476.1z"/>
	<path class="st3" d="M337.2,483.3h-1.5v-7.8c0-0.4-0.1-0.6-0.3-0.6c-0.1,0-0.2,0.1-0.4,0.3c-0.2,0.2-0.4,0.5-0.6,0.9
		c-0.2,0.4-0.5,1-0.8,1.6c-0.3,0.6-0.7,1.7-1.2,3c-0.5,1.3-0.7,2.1-0.7,2.3v0.3h-1.5v-6.4h-0.1c-0.4,0-0.8-0.2-1.1-0.5
		c-0.3-0.3-0.5-0.7-0.5-1.1c0-0.4,0.2-0.8,0.5-1.1c0.3-0.3,0.7-0.5,1.1-0.5s0.8,0.2,1.1,0.5c0.3,0.3,0.5,0.7,0.5,1.1v4.7
		c0.6-1.7,1.3-3.2,2-4.4s1.4-1.8,2.2-1.8c0.9,0,1.4,0.6,1.4,1.7v7.8H337.2z M330,476.1c0.2,0,0.4-0.1,0.5-0.2s0.2-0.3,0.2-0.5
		s-0.1-0.4-0.2-0.5c-0.1-0.1-0.3-0.2-0.5-0.2s-0.4,0.1-0.5,0.2c-0.1,0.2-0.2,0.3-0.2,0.5s0.1,0.4,0.2,0.5S329.8,476.1,330,476.1z"/>
	<path class="st3" d="M337.2,487.1h-0.8v-0.9c-0.2,0-0.4-0.1-0.5-0.2c-0.1-0.1-0.2-0.3-0.2-0.5s0.1-0.4,0.2-0.5s0.3-0.2,0.5-0.2
		c0.3,0,0.5,0.1,0.6,0.2s0.2,0.3,0.2,0.6V487.1z M336.3,485.8c0.2,0,0.4-0.1,0.4-0.4s-0.1-0.4-0.4-0.4s-0.4,0.1-0.4,0.4
		S336.1,485.8,336.3,485.8z"/>
	<path class="st3" d="M347.3,479.6c1.1,0.4,1.6,1,1.6,2c0,0.5-0.1,0.9-0.4,1.3s-0.6,0.5-1.1,0.5s-0.9-0.1-1.2-0.4s-0.4-0.7-0.4-1.4
		v-1.1c-1.5,0.3-2.8,1.3-3.9,2.9h-1.5V477h0c-0.4,0-0.8-0.2-1.1-0.5s-0.5-0.7-0.5-1.1s0.2-0.8,0.5-1.1s0.7-0.5,1.1-0.5
		s0.8,0.2,1.1,0.5s0.5,0.7,0.5,1.1v6.7c1-1.3,2.3-2.1,3.9-2.4v-5.6h1.5L347.3,479.6L347.3,479.6z M340.4,476.1
		c0.2,0,0.4-0.1,0.5-0.2s0.2-0.3,0.2-0.5s-0.1-0.4-0.2-0.5c-0.1-0.1-0.3-0.2-0.5-0.2s-0.4,0.1-0.5,0.2c-0.1,0.2-0.2,0.3-0.2,0.5
		s0.1,0.4,0.2,0.5S340.2,476.1,340.4,476.1z M348.1,481.6c0-0.2-0.1-0.5-0.2-0.7c-0.2-0.2-0.4-0.4-0.6-0.5v1.5c0,0.3,0,0.5,0.1,0.5
		s0.1,0.1,0.2,0.1C347.9,482.6,348.1,482.2,348.1,481.6z"/>
	<path class="st3" d="M357.8,481.4c0,0.6-0.2,1-0.6,1.4s-0.9,0.5-1.5,0.5h-2.3c-0.6,0-1.1-0.2-1.5-0.5s-0.6-0.8-0.6-1.4v-3.3
		c0-0.4,0.2-0.8,0.5-1.1c0.3-0.3,0.7-0.5,1.1-0.5c0.4,0,0.8,0.2,1.1,0.5c0.3,0.3,0.5,0.7,0.5,1.1c0,0.4-0.2,0.8-0.5,1.1
		c-0.3,0.3-0.7,0.5-1.1,0.5h-0.1v1.9c0,0.5,0.3,0.8,0.9,0.8h1.6c0.6,0,0.9-0.3,0.9-0.8v-4.5c0-0.7-0.3-1.2-0.8-1.6
		c-0.5-0.4-1.1-0.6-1.9-0.6c-0.6,0-1.1,0.1-1.7,0.4c-0.6,0.2-1,0.6-1.2,1l-0.7-0.6c0.4-0.5,0.9-0.9,1.6-1.3s1.4-0.5,2.1-0.5
		c1.1,0,2.1,0.3,2.9,0.9c0.8,0.6,1.2,1.4,1.2,2.3v4.3H357.8z M352.9,478.8c0.2,0,0.4-0.1,0.5-0.2c0.2-0.1,0.2-0.3,0.2-0.5
		s-0.1-0.4-0.2-0.5c-0.2-0.2-0.3-0.2-0.5-0.2s-0.4,0.1-0.5,0.2s-0.2,0.3-0.2,0.5s0.1,0.4,0.2,0.5
		C352.5,478.8,352.7,478.8,352.9,478.8z"/>
	<path class="st3" d="M367.2,483.3h-1.5v-0.4c-0.3-0.8-1-1.8-1.8-3.1c-0.9-1.3-1.5-1.9-1.9-1.9c-0.2,0-0.4,0.2-0.4,0.6v1.8h0.1
		c0.4,0,0.8,0.2,1.1,0.5s0.5,0.7,0.5,1.1s-0.2,0.8-0.5,1.1s-0.7,0.5-1.1,0.5s-0.8-0.2-1.1-0.5s-0.5-0.7-0.5-1.1v-3.4
		c0-1.2,0.5-1.7,1.4-1.7c0.4,0,0.8,0.1,1.1,0.4s0.9,1,1.7,2s1.2,1.7,1.3,1.9V477c0-0.4-0.1-0.7-0.2-1c-0.6,0.3-1.3,0.4-1.9,0.4V476
		c0.5-0.1,0.9-0.3,1.4-0.6c-0.5-0.4-1.2-0.6-1.9-0.6c-0.6,0-1.1,0.1-1.7,0.4c-0.6,0.2-1,0.6-1.2,1l-0.7-0.6c0.4-0.5,0.9-0.9,1.6-1.3
		s1.4-0.5,2.1-0.5c1,0,1.9,0.3,2.7,0.8c0.3-0.4,0.6-0.7,0.8-1.2l1,0.7c-0.3,0.5-0.6,0.9-1,1.2c0.4,0.5,0.6,1.1,0.6,1.7L367.2,483.3
		L367.2,483.3z M361.7,482.6c0.2,0,0.4-0.1,0.5-0.2s0.2-0.3,0.2-0.5s-0.1-0.4-0.2-0.5c-0.1-0.2-0.3-0.2-0.5-0.2s-0.4,0.1-0.5,0.2
		s-0.2,0.3-0.2,0.5s0.1,0.4,0.2,0.5S361.5,482.6,361.7,482.6z"/>
	<path class="st3" d="M368.2,469.3c-0.2,1.1-0.6,1.9-1.4,2.5c-0.8,0.6-1.8,0.9-2.9,0.9c-0.8,0-1.3-0.2-1.8-0.5
		c-0.5-0.3-0.6-0.8-0.6-1.3c0-0.4,0.2-0.8,0.5-1.1s0.7-0.5,1.1-0.5s0.8,0.2,1.1,0.5s0.5,0.7,0.5,1.1s-0.1,0.7-0.4,1
		c0.8,0,1.4-0.2,1.9-0.7s0.8-1.1,0.9-1.8h1.1V469.3z M362.9,471.6c0.2,0,0.4-0.1,0.5-0.2c0.1-0.2,0.2-0.3,0.2-0.5s-0.1-0.4-0.2-0.5
		c-0.1-0.1-0.3-0.2-0.5-0.2s-0.4,0.1-0.5,0.2c-0.1,0.2-0.2,0.3-0.2,0.5s0.1,0.4,0.2,0.5C362.5,471.6,362.7,471.6,362.9,471.6z"/>
	<path class="st3" d="M374.8,483.3h-1.5c-1-1.4-1.8-2.5-2.6-3.1c-0.8-0.6-1.6-1-2.6-1v-0.8c1,0,1.8,0.3,2.6,0.8s1.6,1.4,2.6,2.7v-5
		h-0.1c-0.4,0-0.8-0.2-1.1-0.5s-0.5-0.7-0.5-1.1s0.2-0.8,0.5-1.1s0.7-0.5,1.1-0.5c0.4,0,0.8,0.2,1.1,0.5s0.5,0.7,0.5,1.1V483.3z
		 M373.3,476.1c0.2,0,0.4-0.1,0.5-0.2s0.2-0.3,0.2-0.5s-0.1-0.4-0.2-0.5c-0.2-0.1-0.3-0.2-0.5-0.2s-0.4,0.1-0.5,0.2
		c-0.1,0.2-0.2,0.3-0.2,0.5s0.1,0.4,0.2,0.5S373.1,476.1,373.3,476.1z"/>
	<path class="st3" d="M385.7,483.3h-1.5v-5.1c0-0.4-0.1-0.7-0.2-0.8c-1.7,1.3-2.9,2.4-3.5,3.3c-0.6,0.9-1,1.8-1,2.6H378v-6.4h-0.1
		c-0.4,0-0.8-0.2-1.1-0.5c-0.3-0.3-0.5-0.7-0.5-1.1c0-0.4,0.2-0.8,0.5-1.1c0.3-0.3,0.7-0.5,1.1-0.5s0.8,0.2,1.1,0.5
		c0.3,0.3,0.5,0.7,0.5,1.1v5.4c0.4-1,1.7-2.3,3.9-4c-0.7-0.4-1-0.9-1-1.4c0-0.4,0.2-0.8,0.5-1.1c0.3-0.3,0.7-0.5,1.1-0.5
		s0.8,0.2,1.1,0.5c0.3,0.3,0.5,0.7,0.5,1.1c0,0.6-0.2,1-0.7,1.4c0.5,0.3,0.8,0.8,0.8,1.5L385.7,483.3L385.7,483.3z M378,476.1
		c0.2,0,0.4-0.1,0.5-0.2s0.2-0.3,0.2-0.5s-0.1-0.4-0.2-0.5c-0.1-0.1-0.3-0.2-0.5-0.2s-0.4,0.1-0.5,0.2c-0.1,0.2-0.2,0.3-0.2,0.5
		s0.1,0.4,0.2,0.5S377.8,476.1,378,476.1z M384.2,476.3c0.4-0.3,0.7-0.6,0.7-1c0-0.2-0.1-0.4-0.2-0.5c-0.1-0.1-0.3-0.2-0.5-0.2
		s-0.4,0.1-0.5,0.2c-0.1,0.2-0.2,0.3-0.2,0.5C383.3,475.7,383.6,476,384.2,476.3z"/>
	<path class="st3" d="M393.3,483.3h-1.5V477c0-1.5-0.7-2.2-2-2.2c-0.9,0-1.6,0.4-2.2,1.3l-0.7-0.6c0.8-1.1,1.8-1.7,3-1.7
		c1,0,1.8,0.3,2.4,0.9c0.6,0.6,0.9,1.4,0.9,2.4L393.3,483.3L393.3,483.3z"/>
	<path class="st3" d="M402.6,474.5c-0.4,0.5-0.9,0.8-1.6,0.8c-0.3,0-0.7-0.1-1.3-0.3s-1-0.3-1.3-0.3c-0.8,0-1.3,0.3-1.7,0.9
		c0.4-0.1,0.8-0.1,1.2-0.1c1.3,0,2.3,0.3,3,0.8s1,1.2,1,2.1v3.3c0,0.4-0.2,0.8-0.5,1.1c-0.3,0.3-0.7,0.5-1.1,0.5
		c-0.4,0-0.8-0.2-1.1-0.5c-0.3-0.3-0.5-0.7-0.5-1.1c0-0.4,0.2-0.8,0.5-1.1c0.3-0.3,0.7-0.5,1.1-0.5h0.1v-1.4c0-0.9-0.2-1.4-0.7-1.7
		s-1.2-0.4-2.3-0.4c-0.8,0-1.4,0.1-2,0.3c0.1-0.9,0.4-1.7,0.9-2.2s1.2-0.8,2-0.8c0.4,0,0.9,0.1,1.5,0.3s0.9,0.3,1.1,0.3
		c0.4,0,0.6-0.2,0.8-0.5L402.6,474.5z M400.5,482.6c0.2,0,0.4-0.1,0.5-0.2c0.2-0.1,0.2-0.3,0.2-0.5s-0.1-0.4-0.2-0.5
		c-0.2-0.2-0.3-0.2-0.5-0.2s-0.4,0.1-0.6,0.2c-0.2,0.1-0.2,0.3-0.2,0.5s0.1,0.4,0.2,0.5C400.1,482.5,400.2,482.6,400.5,482.6z"/>
	<path class="st3" d="M402,472.7h-7c0.5-1.9,1.7-2.8,3.5-2.8S401.5,470.8,402,472.7z M400.8,471.9c-0.4-0.9-1.2-1.4-2.3-1.4
		s-1.9,0.5-2.3,1.4H400.8z"/>
	<path class="st3" d="M412.5,483.3H411c-1-2-2.4-3.1-4.3-3.3v1.5c0,1.2-0.6,1.8-1.7,1.8c-0.5,0-0.9-0.2-1.2-0.5
		c-0.3-0.3-0.5-0.7-0.5-1.3s0.2-1.1,0.5-1.5s0.8-0.7,1.4-0.9v-2.4h-0.1c-0.4,0-0.8-0.2-1.1-0.5s-0.5-0.7-0.5-1.1s0.2-0.8,0.5-1.1
		s0.7-0.5,1.1-0.5s0.8,0.2,1.1,0.5s0.5,0.7,0.5,1.1v3.9c1.6,0.2,3.1,1,4.3,2.4v-7.7h1.5V483.3z M405.3,481.7V480
		c-0.3,0.1-0.6,0.3-0.8,0.6s-0.3,0.6-0.3,1c0,0.3,0.1,0.5,0.2,0.7c0.1,0.2,0.3,0.3,0.5,0.3C405.1,482.6,405.3,482.3,405.3,481.7z
		 M405.2,476.1c0.2,0,0.4-0.1,0.5-0.2s0.2-0.3,0.2-0.5s-0.1-0.4-0.2-0.5c-0.1-0.1-0.3-0.2-0.5-0.2s-0.4,0.1-0.5,0.2
		c-0.1,0.2-0.2,0.3-0.2,0.5s0.1,0.4,0.2,0.5S405,476.1,405.2,476.1z"/>
	<path class="st3" d="M422.9,483.3h-1.5v-7.8c0-0.4-0.1-0.6-0.3-0.6c-0.1,0-0.2,0.1-0.4,0.3c-0.2,0.2-0.4,0.5-0.6,0.9
		c-0.2,0.4-0.5,1-0.8,1.6c-0.3,0.6-0.7,1.7-1.2,3c-0.5,1.3-0.7,2.1-0.7,2.3v0.3h-1.5v-6.4h-0.1c-0.4,0-0.8-0.2-1.1-0.5
		c-0.3-0.3-0.5-0.7-0.5-1.1c0-0.4,0.2-0.8,0.5-1.1c0.3-0.3,0.7-0.5,1.1-0.5s0.8,0.2,1.1,0.5c0.3,0.3,0.5,0.7,0.5,1.1v4.7
		c0.6-1.7,1.3-3.2,2-4.4s1.4-1.8,2.2-1.8c0.9,0,1.4,0.6,1.4,1.7v7.8H422.9z M415.7,476.1c0.2,0,0.4-0.1,0.5-0.2s0.2-0.3,0.2-0.5
		s-0.1-0.4-0.2-0.5c-0.1-0.1-0.3-0.2-0.5-0.2s-0.4,0.1-0.5,0.2c-0.1,0.2-0.2,0.3-0.2,0.5s0.1,0.4,0.2,0.5S415.5,476.1,415.7,476.1z"
		/>
	<path class="st3" d="M432.2,474.5c-0.4,0.5-0.9,0.8-1.6,0.8c-0.3,0-0.7-0.1-1.3-0.3s-1-0.3-1.3-0.3c-0.8,0-1.3,0.3-1.7,0.9
		c0.4-0.1,0.8-0.1,1.2-0.1c1.3,0,2.3,0.3,3,0.8s1,1.2,1,2.1v3.3c0,0.4-0.2,0.8-0.5,1.1c-0.3,0.3-0.7,0.5-1.1,0.5
		c-0.4,0-0.8-0.2-1.1-0.5c-0.3-0.3-0.5-0.7-0.5-1.1c0-0.4,0.2-0.8,0.5-1.1c0.3-0.3,0.7-0.5,1.1-0.5h0.1v-1.4c0-0.9-0.2-1.4-0.7-1.7
		s-1.2-0.4-2.3-0.4c-0.8,0-1.4,0.1-2,0.3c0.1-0.9,0.4-1.7,0.9-2.2s1.2-0.8,2-0.8c0.4,0,0.9,0.1,1.5,0.3s0.9,0.3,1.1,0.3
		c0.4,0,0.6-0.2,0.8-0.5L432.2,474.5z M430,482.6c0.2,0,0.4-0.1,0.5-0.2c0.2-0.1,0.2-0.3,0.2-0.5s-0.1-0.4-0.2-0.5
		c-0.2-0.2-0.3-0.2-0.5-0.2s-0.4,0.1-0.6,0.2c-0.2,0.1-0.2,0.3-0.2,0.5s0.1,0.4,0.2,0.5C429.6,482.5,429.8,482.6,430,482.6z"/>
	<path class="st3" d="M432.6,469.3c-0.2,1.1-0.6,1.9-1.4,2.5c-0.8,0.6-1.8,0.9-2.9,0.9c-0.8,0-1.3-0.2-1.8-0.5
		c-0.5-0.3-0.6-0.8-0.6-1.3c0-0.4,0.2-0.8,0.5-1.1s0.7-0.5,1.1-0.5s0.8,0.2,1.1,0.5s0.5,0.7,0.5,1.1s-0.1,0.7-0.4,1
		c0.8,0,1.4-0.2,1.9-0.7s0.8-1.1,0.9-1.8h1.1V469.3z M427.3,471.6c0.2,0,0.4-0.1,0.5-0.2c0.1-0.2,0.2-0.3,0.2-0.5s-0.1-0.4-0.2-0.5
		c-0.1-0.1-0.3-0.2-0.5-0.2s-0.4,0.1-0.5,0.2c-0.1,0.2-0.2,0.3-0.2,0.5s0.1,0.4,0.2,0.5C426.9,471.6,427.1,471.6,427.3,471.6z"/>
	<path class="st3" d="M443.3,483.3h-1.5c0-0.6-0.4-1.7-1.3-3.2s-1.3-2.7-1.5-3.6c-0.1,0.9-0.6,2.1-1.5,3.6s-1.3,2.5-1.3,3.2h-1.5
		v-6.4h-0.1c-0.4,0-0.8-0.2-1.1-0.5c-0.3-0.3-0.5-0.7-0.5-1.1c0-0.4,0.2-0.8,0.5-1.1c0.3-0.3,0.7-0.5,1.1-0.5s0.8,0.2,1.1,0.5
		c0.3,0.3,0.5,0.7,0.5,1.1v5.1c0.2-0.3,0.5-0.9,0.9-1.7c0.9-1.5,1.3-3.1,1.3-4.8h1c0,1.7,0.4,3.3,1.3,4.8c0.5,0.8,0.8,1.3,0.9,1.7
		v-6.5h1.5v9.4H443.3z M434.8,476.1c0.2,0,0.4-0.1,0.5-0.2s0.2-0.3,0.2-0.5s-0.1-0.4-0.2-0.5c-0.1-0.1-0.3-0.2-0.5-0.2
		s-0.4,0.1-0.5,0.2c-0.1,0.2-0.2,0.3-0.2,0.5s0.1,0.4,0.2,0.5S434.6,476.1,434.8,476.1z"/>
	<path class="st3" d="M452.3,481.4c0,0.6-0.2,1-0.6,1.4s-0.9,0.5-1.5,0.5h-4.8v-2.9c0-0.7,0.3-1.3,0.8-1.6c-0.6-0.3-0.8-0.8-0.8-1.6
		v-1.9c0-0.4,0.2-0.8,0.5-1.1s0.7-0.5,1.1-0.5s0.8,0.2,1.1,0.5s0.5,0.7,0.5,1.1s-0.2,0.8-0.5,1.1s-0.7,0.5-1.1,0.5h-0.1v0.4
		c0,0.4,0.1,0.7,0.3,0.9s0.5,0.3,0.9,0.3v0.5c-0.4,0-0.7,0.1-0.9,0.3s-0.3,0.5-0.3,0.9v1.9h3c0.6,0,0.9-0.3,0.9-0.8v-7.5h1.5V481.4z
		 M447,476.1c0.2,0,0.4-0.1,0.5-0.2s0.2-0.3,0.2-0.5s-0.1-0.4-0.2-0.5c-0.1-0.1-0.3-0.2-0.5-0.2s-0.4,0.1-0.5,0.2
		c-0.1,0.2-0.2,0.3-0.2,0.5s0.1,0.4,0.2,0.5S446.7,476.1,447,476.1z"/>
	<path class="st3" d="M453.8,468.8c0,0.3-0.1,0.5-0.3,0.7s-0.6,0.4-1.2,0.6s-0.9,0.3-1.1,0.5c0.3,0,0.5,0.1,0.8,0.3
		c0.3,0.2,0.3,0.5,0.3,0.8s-0.1,0.5-0.3,0.8c-0.2,0.3-0.5,0.3-0.8,0.3s-0.6-0.1-0.8-0.4c-0.2-0.2-0.3-0.5-0.3-0.9
		c0-0.9,0.5-1.5,1.6-1.8c0.5-0.2,0.9-0.3,1.1-0.4c0.2-0.1,0.3-0.2,0.3-0.4h0.7V468.8z M451.2,472.1c0.2,0,0.3-0.1,0.4-0.2
		c0.1-0.1,0.2-0.2,0.2-0.4s-0.1-0.3-0.2-0.4s-0.2-0.2-0.4-0.2s-0.3,0.1-0.4,0.2s-0.2,0.2-0.2,0.4s0.1,0.3,0.2,0.4
		C451,472.1,451.1,472.1,451.2,472.1z"/>
	<path class="st3" d="M462.7,483.3h-1.5v-7.8c0-0.4-0.1-0.6-0.3-0.6c-0.1,0-0.2,0.1-0.4,0.3c-0.2,0.2-0.4,0.5-0.6,0.9
		c-0.2,0.4-0.5,1-0.8,1.6c-0.3,0.6-0.7,1.7-1.2,3c-0.5,1.3-0.7,2.1-0.7,2.3v0.3h-1.5v-6.4h-0.1c-0.4,0-0.8-0.2-1.1-0.5
		c-0.3-0.3-0.5-0.7-0.5-1.1c0-0.4,0.2-0.8,0.5-1.1c0.3-0.3,0.7-0.5,1.1-0.5s0.8,0.2,1.1,0.5c0.3,0.3,0.5,0.7,0.5,1.1v4.7
		c0.6-1.7,1.3-3.2,2-4.4s1.4-1.8,2.2-1.8c0.9,0,1.4,0.6,1.4,1.7v7.8H462.7z M455.5,476.1c0.2,0,0.4-0.1,0.5-0.2s0.2-0.3,0.2-0.5
		s-0.1-0.4-0.2-0.5c-0.1-0.1-0.3-0.2-0.5-0.2s-0.4,0.1-0.5,0.2c-0.1,0.2-0.2,0.3-0.2,0.5s0.1,0.4,0.2,0.5S455.3,476.1,455.5,476.1z"
		/>
	<path class="st3" d="M463.6,469.3c-0.2,1.1-0.6,1.9-1.4,2.5c-0.8,0.6-1.8,0.9-2.9,0.9c-0.8,0-1.3-0.2-1.8-0.5
		c-0.5-0.3-0.6-0.8-0.6-1.3c0-0.4,0.2-0.8,0.5-1.1s0.7-0.5,1.1-0.5s0.8,0.2,1.1,0.5s0.5,0.7,0.5,1.1s-0.1,0.7-0.4,1
		c0.8,0,1.4-0.2,1.9-0.7s0.8-1.1,0.9-1.8h1.1V469.3z M458.4,471.6c0.2,0,0.4-0.1,0.5-0.2c0.1-0.2,0.2-0.3,0.2-0.5s-0.1-0.4-0.2-0.5
		c-0.1-0.1-0.3-0.2-0.5-0.2s-0.4,0.1-0.5,0.2c-0.1,0.2-0.2,0.3-0.2,0.5s0.1,0.4,0.2,0.5C458,471.6,458.2,471.6,458.4,471.6z"/>
	<path class="st3" d="M462.3,472.7h-0.7v-3h0.7V472.7z"/>
	<path class="st3" d="M471.4,481.8c0,0.4-0.2,0.8-0.5,1.1c-0.3,0.3-0.7,0.5-1.1,0.5c-0.4,0-0.8-0.2-1.1-0.5
		c-0.3-0.3-0.5-0.7-0.5-1.1c0-0.4,0.2-0.8,0.5-1.1c0.3-0.3,0.7-0.5,1.1-0.5h0.1v-3.3c0-0.7-0.2-1.2-0.6-1.6s-1-0.6-1.7-0.6
		c-1.1,0-1.9,0.4-2.5,1.3l-0.7-0.6c0.9-1.1,2-1.7,3.3-1.7c1.1,0,2,0.3,2.7,0.9s1.1,1.4,1.1,2.3L471.4,481.8L471.4,481.8z
		 M469.8,482.6c0.2,0,0.4-0.1,0.5-0.2c0.2-0.1,0.2-0.3,0.2-0.5s-0.1-0.4-0.2-0.5c-0.2-0.2-0.3-0.2-0.5-0.2s-0.4,0.1-0.6,0.2
		c-0.2,0.1-0.2,0.3-0.2,0.5s0.1,0.4,0.2,0.5C469.4,482.5,469.6,482.6,469.8,482.6z"/>
	<path class="st3" d="M477.5,480.2L477.5,480.2c0.5,0,0.9,0.2,1.2,0.5c0.3,0.3,0.5,0.7,0.5,1.1c0,0.4-0.2,0.8-0.5,1.1
		c-0.3,0.3-0.7,0.5-1.1,0.5s-0.8-0.2-1.1-0.5c-0.3-0.3-0.5-0.7-0.5-1.1v-10.2c0-0.8-0.2-1.4-0.5-1.8c-0.3-0.4-0.8-0.6-1.5-0.6
		c-0.5,0-1,0.1-1.6,0.2c0.1-0.9,0.4-1.5,1-2s1.2-0.8,2-0.8c0.4,0,0.9,0.1,1.5,0.3s0.9,0.3,1.1,0.3c0.4,0,0.6-0.2,0.8-0.5l0.7,0.7
		c-0.4,0.5-0.9,0.8-1.6,0.8c-0.3,0-0.7-0.1-1.3-0.3s-1-0.3-1.3-0.3c-0.8,0-1.3,0.3-1.7,0.9c0.4-0.1,0.6-0.1,0.8-0.1
		c0.9,0,1.6,0.2,2.1,0.7s0.8,1.2,0.8,2.2v8.9H477.5z M477.6,482.6c0.2,0,0.4-0.1,0.5-0.2s0.2-0.3,0.2-0.5s-0.1-0.4-0.2-0.5
		c-0.1-0.2-0.3-0.2-0.5-0.2s-0.4,0.1-0.5,0.2s-0.2,0.3-0.2,0.5s0.1,0.4,0.2,0.5C477.2,482.5,477.3,482.6,477.6,482.6z"/>
	<path class="st3" d="M487.7,483.3h-1.5V483c-0.6-1.6-1.2-2.8-1.8-3.8c-0.6-0.9-1-1.4-1.2-1.4s-0.3,0.2-0.3,0.6v1.8h0.1
		c0.4,0,0.8,0.2,1.1,0.5s0.5,0.7,0.5,1.1s-0.2,0.8-0.5,1.1s-0.7,0.5-1.1,0.5s-0.8-0.2-1.1-0.5s-0.5-0.7-0.5-1.1v-3.4
		c0-1.2,0.5-1.7,1.4-1.7c1,0,2.2,1.4,3.4,4.3v-4c0-0.7-0.2-1.2-0.6-1.6s-1-0.6-1.7-0.6c-1.1,0-1.9,0.4-2.5,1.3l-0.7-0.6
		c0.9-1.1,2-1.7,3.3-1.7c1.1,0,2,0.3,2.7,0.9s1.1,1.4,1.1,2.3v6.3H487.7z M482.9,482.6c0.2,0,0.4-0.1,0.5-0.2s0.2-0.3,0.2-0.5
		s-0.1-0.4-0.2-0.5c-0.1-0.2-0.3-0.2-0.5-0.2s-0.4,0.1-0.5,0.2s-0.2,0.3-0.2,0.5s0.1,0.4,0.2,0.5
		C482.5,482.5,482.7,482.6,482.9,482.6z"/>
	<path class="st3" d="M497.5,483.3H496v-6.1c0-0.7-0.2-1.3-0.7-1.8s-1.1-0.7-1.9-0.7c-1.2,0-2,0.4-2.4,1.1c0.3,0.6,1,0.9,2,1v0.5
		c-0.4,0-0.7,0.1-0.9,0.4s-0.3,0.6-0.3,0.9v4.6h-1.5v-4.5c0-0.6,0.3-1.1,0.8-1.5c-0.7-0.3-1.3-0.7-1.6-1.3c0.7-1.4,2-2.2,3.9-2.2
		c1.2,0,2.1,0.3,2.9,0.9c0.8,0.6,1.2,1.4,1.2,2.5V483.3z"/>
	<path class="st3" d="M504.9,483.3v-12.9h1.7v5.3h6.7v-5.3h1.7v12.9h-1.7v-6.1h-6.7v6.1H504.9z"/>
	<path class="st3" d="M517,478.6c0-1.7,0.5-3,1.4-3.8c0.8-0.7,1.8-1,2.9-1c1.3,0,2.3,0.4,3.1,1.3c0.8,0.9,1.2,2,1.2,3.5
		c0,1.2-0.2,2.1-0.5,2.8c-0.4,0.7-0.9,1.2-1.6,1.6s-1.4,0.6-2.3,0.6c-1.3,0-2.4-0.4-3.2-1.3C517.2,481.4,517,480.2,517,478.6z
		 M518.7,478.6c0,1.2,0.3,2.1,0.8,2.7c0.5,0.6,1.2,0.9,2,0.9s1.4-0.3,2-0.9s0.8-1.5,0.8-2.7c0-1.2-0.3-2-0.8-2.6
		c-0.5-0.6-1.2-0.9-2-0.9s-1.4,0.3-2,0.9C518.9,476.6,518.7,477.4,518.7,478.6z"/>
	<path class="st3" d="M533.8,483.3v-1.4c-0.7,1.1-1.7,1.6-3,1.6c-0.6,0-1.1-0.1-1.5-0.3s-0.8-0.5-1.1-0.8c-0.3-0.3-0.4-0.7-0.5-1.2
		c-0.1-0.3-0.1-0.8-0.1-1.5v-5.8h1.6v5.2c0,0.8,0,1.4,0.1,1.7c0.1,0.4,0.3,0.7,0.6,1c0.3,0.2,0.7,0.4,1.2,0.4s0.9-0.1,1.3-0.4
		s0.7-0.6,0.9-1c0.2-0.4,0.3-1,0.3-1.8v-5h1.6v9.3H533.8z"/>
	<path class="st3" d="M537,480.5l1.6-0.2c0.1,0.6,0.3,1.1,0.7,1.4s1,0.5,1.7,0.5s1.3-0.1,1.6-0.4s0.5-0.6,0.5-1
		c0-0.4-0.2-0.6-0.5-0.8c-0.2-0.1-0.8-0.3-1.6-0.5c-1.2-0.3-2-0.5-2.4-0.8c-0.4-0.3-0.8-0.5-1-0.9c-0.2-0.4-0.3-0.8-0.3-1.3
		c0-0.4,0.1-0.8,0.3-1.2c0.2-0.4,0.4-0.6,0.8-0.9c0.2-0.2,0.6-0.3,1-0.5c0.4-0.2,0.9-0.2,1.4-0.2c0.7,0,1.4,0.1,1.9,0.3
		c0.5,0.2,1,0.5,1.2,0.9c0.3,0.4,0.4,0.8,0.5,1.4l-1.5,0.2c-0.1-0.5-0.3-0.9-0.6-1.1s-0.8-0.4-1.4-0.4c-0.7,0-1.2,0.1-1.6,0.4
		s-0.5,0.5-0.5,0.8c0,0.2,0.1,0.4,0.2,0.6c0.1,0.2,0.3,0.3,0.6,0.4c0.2,0.1,0.6,0.2,1.4,0.4c1.1,0.3,1.9,0.5,2.3,0.7s0.8,0.5,1,0.8
		c0.2,0.3,0.4,0.8,0.4,1.4c0,0.5-0.2,1-0.5,1.5s-0.8,0.8-1.3,1.1c-0.6,0.3-1.2,0.4-2,0.4c-1.2,0-2.1-0.3-2.8-0.8
		S537.2,481.5,537,480.5z"/>
	<path class="st3" d="M553,480.3l1.6,0.2c-0.3,1-0.7,1.7-1.4,2.2s-1.6,0.8-2.7,0.8c-1.4,0-2.4-0.4-3.2-1.3c-0.8-0.8-1.2-2-1.2-3.5
		c0-1.6,0.4-2.8,1.2-3.7s1.9-1.3,3.1-1.3c1.2,0,2.3,0.4,3.1,1.3s1.2,2,1.2,3.6c0,0.1,0,0.2,0,0.4h-7c0.1,1,0.3,1.8,0.9,2.4
		s1.2,0.8,2,0.8c0.6,0,1.1-0.2,1.5-0.5C552.5,481.4,552.8,481,553,480.3z M547.8,477.7h5.2c-0.1-0.8-0.3-1.4-0.6-1.8
		c-0.5-0.6-1.2-0.9-2-0.9c-0.7,0-1.3,0.2-1.8,0.7S547.9,476.9,547.8,477.7z"/>
	<path class="st3" d="M560.1,483.3v-11.4h-4.2v-1.5h10.2v1.5h-4.3v11.4H560.1z"/>
	<path class="st3" d="M565.1,478.6c0-1.7,0.5-3,1.4-3.8c0.8-0.7,1.8-1,2.9-1c1.3,0,2.3,0.4,3.1,1.3c0.8,0.9,1.2,2,1.2,3.5
		c0,1.2-0.2,2.1-0.5,2.8c-0.4,0.7-0.9,1.2-1.6,1.6s-1.4,0.6-2.3,0.6c-1.3,0-2.4-0.4-3.2-1.3C565.3,481.4,565.1,480.2,565.1,478.6z
		 M566.7,478.6c0,1.2,0.3,2.1,0.8,2.7c0.5,0.6,1.2,0.9,2,0.9s1.4-0.3,2-0.9s0.8-1.5,0.8-2.7c0-1.2-0.3-2-0.8-2.6
		c-0.5-0.6-1.2-0.9-2-0.9s-1.4,0.3-2,0.9C566.9,476.6,566.7,477.4,566.7,478.6z"/>
	<path class="st3" d="M575.7,483.3v-12.9h1.6v7.3l3.7-3.8h2l-3.6,3.5l3.9,5.9h-2l-3.1-4.8l-1.1,1.1v3.7H575.7z"/>
	<path class="st3" d="M591.1,480.3l1.6,0.2c-0.3,1-0.7,1.7-1.4,2.2s-1.6,0.8-2.7,0.8c-1.4,0-2.4-0.4-3.2-1.3c-0.8-0.8-1.2-2-1.2-3.5
		c0-1.6,0.4-2.8,1.2-3.7s1.9-1.3,3.1-1.3c1.2,0,2.3,0.4,3.1,1.3s1.2,2,1.2,3.6c0,0.1,0,0.2,0,0.4h-7c0.1,1,0.3,1.8,0.9,2.4
		s1.2,0.8,2,0.8c0.6,0,1.1-0.2,1.5-0.5C590.6,481.4,590.8,481,591.1,480.3z M585.9,477.7h5.2c-0.1-0.8-0.3-1.4-0.6-1.8
		c-0.5-0.6-1.2-0.9-2-0.9c-0.7,0-1.3,0.2-1.8,0.7S585.9,476.9,585.9,477.7z"/>
	<path class="st3" d="M594.7,483.3V474h1.4v1.3c0.7-1,1.7-1.5,3-1.5c0.6,0,1.1,0.1,1.6,0.3s0.8,0.5,1.1,0.8c0.3,0.3,0.4,0.7,0.5,1.2
		c0.1,0.3,0.1,0.8,0.1,1.5v5.7h-1.6v-5.7c0-0.6-0.1-1.1-0.2-1.4s-0.3-0.6-0.7-0.8c-0.3-0.2-0.7-0.3-1.1-0.3c-0.7,0-1.3,0.2-1.7,0.6
		s-0.7,1.2-0.7,2.4v5.1L594.7,483.3L594.7,483.3z"/>
	<path class="st3" d="M337.8,508.7c-0.9-1.1-1.6-2.4-2.2-3.9s-0.9-3-0.9-4.6c0-1.4,0.2-2.7,0.7-4c0.5-1.5,1.3-3,2.4-4.4h1.1
		c-0.7,1.2-1.2,2.1-1.4,2.6c-0.4,0.8-0.6,1.7-0.8,2.5c-0.3,1.1-0.4,2.2-0.4,3.3c0,2.8,0.9,5.6,2.6,8.4h-1.1V508.7z"/>
	<path class="st3" d="M348.5,504.9H347v-6.1c0-0.7-0.2-1.3-0.7-1.8s-1.1-0.7-1.9-0.7c-1.2,0-2,0.4-2.4,1.1c0.3,0.6,1,0.9,2,1v0.5
		c-0.4,0-0.7,0.1-0.9,0.4s-0.3,0.6-0.3,0.9v4.6h-1.5v-4.6c0-0.6,0.3-1.1,0.8-1.5c-0.7-0.3-1.3-0.7-1.6-1.3c0.7-1.4,2-2.2,3.9-2.2
		c1.2,0,2.1,0.3,2.9,0.9s1.2,1.4,1.2,2.5V504.9z"/>
	<path class="st3" d="M357.9,503c0,0.6-0.2,1-0.6,1.4s-0.9,0.5-1.5,0.5h-2.3c-0.6,0-1.1-0.2-1.5-0.5s-0.6-0.8-0.6-1.4v-3.3
		c0-0.4,0.2-0.8,0.5-1.1c0.3-0.3,0.7-0.5,1.1-0.5c0.4,0,0.8,0.2,1.1,0.5c0.3,0.3,0.5,0.7,0.5,1.1c0,0.4-0.2,0.8-0.5,1.1
		c-0.3,0.3-0.7,0.5-1.1,0.5h-0.1v1.9c0,0.5,0.3,0.8,0.9,0.8h1.6c0.6,0,0.9-0.3,0.9-0.8v-4.5c0-0.7-0.3-1.2-0.8-1.6
		c-0.5-0.4-1.1-0.6-1.9-0.6c-0.6,0-1.1,0.1-1.7,0.4c-0.6,0.2-1,0.6-1.2,1l-0.7-0.6c0.4-0.5,0.9-0.9,1.6-1.3c0.7-0.3,1.4-0.5,2.1-0.5
		c1.1,0,2.1,0.3,2.9,0.9c0.8,0.6,1.2,1.4,1.2,2.3L357.9,503L357.9,503z M353,500.4c0.2,0,0.4-0.1,0.5-0.2c0.2-0.1,0.2-0.3,0.2-0.5
		c0-0.2-0.1-0.4-0.2-0.5c-0.2-0.2-0.3-0.2-0.5-0.2s-0.4,0.1-0.5,0.2c-0.1,0.1-0.2,0.3-0.2,0.5c0,0.2,0.1,0.4,0.2,0.5
		C352.6,500.4,352.8,500.4,353,500.4z"/>
	<path class="st3" d="M365.5,504.9H364c-1-1.4-1.8-2.5-2.6-3.1c-0.8-0.7-1.6-1-2.6-1V500c1,0,1.8,0.3,2.6,0.8s1.6,1.4,2.6,2.7v-5
		h-0.1c-0.4,0-0.8-0.2-1.1-0.5c-0.3-0.3-0.5-0.7-0.5-1.1c0-0.4,0.2-0.8,0.5-1.1c0.3-0.3,0.7-0.5,1.1-0.5c0.4,0,0.8,0.2,1.1,0.5
		c0.3,0.3,0.5,0.7,0.5,1.1V504.9z M364,497.7c0.2,0,0.4-0.1,0.5-0.2s0.2-0.3,0.2-0.5s-0.1-0.4-0.2-0.5c-0.2-0.1-0.3-0.2-0.5-0.2
		s-0.4,0.1-0.5,0.2c-0.2,0.2-0.2,0.3-0.2,0.5s0.1,0.4,0.2,0.5C363.6,497.6,363.7,497.7,364,497.7z"/>
	<path class="st3" d="M375.9,504.9h-1.5v-7.8c0-0.4-0.1-0.6-0.3-0.6c-0.1,0-0.2,0.1-0.4,0.3s-0.4,0.5-0.6,0.9s-0.5,1-0.8,1.6
		c-0.3,0.7-0.7,1.7-1.2,3s-0.7,2.1-0.7,2.3v0.3h-1.5v-6.4h-0.1c-0.4,0-0.8-0.2-1.1-0.5s-0.5-0.7-0.5-1.1s0.2-0.8,0.5-1.1
		s0.7-0.5,1.1-0.5s0.8,0.2,1.1,0.5s0.5,0.7,0.5,1.1v4.7c0.6-1.7,1.3-3.2,2-4.4c0.7-1.2,1.4-1.8,2.2-1.8c0.9,0,1.4,0.6,1.4,1.7v7.8
		H375.9z M368.7,497.7c0.2,0,0.4-0.1,0.5-0.2c0.2-0.2,0.2-0.3,0.2-0.5s-0.1-0.4-0.2-0.5c-0.1-0.1-0.3-0.2-0.5-0.2s-0.4,0.1-0.5,0.2
		c-0.2,0.2-0.2,0.3-0.2,0.5s0.1,0.4,0.2,0.5C368.3,497.6,368.5,497.7,368.7,497.7z"/>
	<path class="st3" d="M375.9,508.7h-0.8v-0.9c-0.2,0-0.4-0.1-0.5-0.2s-0.2-0.3-0.2-0.5s0.1-0.4,0.2-0.5c0.1-0.1,0.3-0.2,0.5-0.2
		c0.3,0,0.5,0.1,0.6,0.2c0.1,0.2,0.2,0.3,0.2,0.6V508.7z M375,507.4c0.2,0,0.4-0.1,0.4-0.4s-0.1-0.4-0.4-0.4s-0.4,0.1-0.4,0.4
		S374.8,507.4,375,507.4z"/>
	<path class="st3" d="M386,501.2c1.1,0.4,1.6,1,1.6,2c0,0.5-0.1,0.9-0.4,1.3s-0.6,0.5-1.1,0.5s-0.9-0.1-1.2-0.4
		c-0.3-0.3-0.4-0.7-0.4-1.4v-1.1c-1.5,0.3-2.8,1.3-3.9,2.9h-1.5v-6.4H379c-0.4,0-0.8-0.2-1.1-0.5s-0.5-0.7-0.5-1.1s0.2-0.8,0.5-1.1
		s0.7-0.5,1.1-0.5s0.8,0.2,1.1,0.5s0.5,0.7,0.5,1.1v6.7c1-1.3,2.3-2.1,3.9-2.4v-5.6h1.5L386,501.2L386,501.2z M379.1,497.7
		c0.2,0,0.4-0.1,0.5-0.2c0.2-0.2,0.2-0.3,0.2-0.5s-0.1-0.4-0.2-0.5c-0.1-0.1-0.3-0.2-0.5-0.2s-0.4,0.1-0.5,0.2
		c-0.2,0.2-0.2,0.3-0.2,0.5s0.1,0.4,0.2,0.5C378.7,497.6,378.9,497.7,379.1,497.7z M386.8,503.2c0-0.2-0.1-0.5-0.2-0.7
		c-0.2-0.2-0.3-0.4-0.6-0.5v1.5c0,0.3,0,0.5,0.1,0.5c0,0.1,0.1,0.1,0.2,0.1C386.6,504.2,386.8,503.8,386.8,503.2z"/>
	<path class="st3" d="M392,504.9l4.9-12.9h1.8l5.3,12.9h-1.9l-1.5-3.9h-5.4l-1.4,3.9H392z M395.7,499.6h4.4l-1.3-3.6
		c-0.4-1.1-0.7-2-0.9-2.7c-0.2,0.8-0.4,1.6-0.7,2.5L395.7,499.6z"/>
	<path class="st3" d="M405.7,504.9V492h1.7v12.9H405.7z"/>
	<path class="st3" d="M410.5,504.9V492h8.7v1.5h-7v4h6v1.5h-6v5.9H410.5z"/>
	<path class="st3" d="M430.6,500.4l1.7,0.4c-0.4,1.4-1,2.5-1.9,3.2c-0.9,0.7-2.1,1.1-3.4,1.1c-1.4,0-2.5-0.3-3.4-0.8
		c-0.9-0.6-1.5-1.4-2-2.5s-0.7-2.2-0.7-3.5s0.3-2.5,0.8-3.5s1.2-1.8,2.2-2.3c0.9-0.5,2-0.8,3.1-0.8c1.3,0,2.4,0.3,3.3,1
		s1.5,1.6,1.8,2.8l-1.7,0.4c-0.3-0.9-0.7-1.6-1.3-2c-0.6-0.4-1.3-0.6-2.1-0.6c-1,0-1.8,0.2-2.5,0.7s-1.1,1.1-1.4,1.9
		c-0.3,0.8-0.4,1.6-0.4,2.5c0,1.1,0.2,2.1,0.5,2.9c0.3,0.8,0.8,1.4,1.5,1.8c0.7,0.4,1.4,0.6,2.2,0.6c1,0,1.8-0.3,2.4-0.8
		S430.4,501.5,430.6,500.4z"/>
	<path class="st3" d="M447.5,503c0,0.6-0.2,1-0.6,1.4s-0.9,0.5-1.5,0.5h-6v-1h0.8v-5.4h-0.1c-0.4,0-0.8-0.2-1.1-0.5
		s-0.5-0.7-0.5-1.1s0.2-0.8,0.5-1.1s0.7-0.5,1.1-0.5s0.8,0.2,1.1,0.5s0.5,0.7,0.5,1.1v7h3.3c0.6,0,0.9-0.3,0.9-0.8v-12.4h1.5
		L447.5,503L447.5,503z M440.3,497.7c0.2,0,0.4-0.1,0.5-0.2c0.2-0.2,0.2-0.3,0.2-0.5s-0.1-0.4-0.2-0.5c-0.1-0.1-0.3-0.2-0.5-0.2
		s-0.4,0.1-0.5,0.2c-0.2,0.2-0.2,0.3-0.2,0.5s0.1,0.4,0.2,0.5C439.9,497.6,440,497.7,440.3,497.7z"/>
	<path class="st3" d="M456.8,496.1c-0.4,0.5-0.9,0.8-1.6,0.8c-0.3,0-0.7-0.1-1.3-0.3c-0.6-0.2-1-0.3-1.3-0.3c-0.8,0-1.3,0.3-1.7,0.9
		c0.4-0.1,0.8-0.1,1.2-0.1c1.3,0,2.3,0.3,3,0.8s1,1.2,1,2.1v3.3c0,0.4-0.2,0.8-0.5,1.1s-0.7,0.5-1.1,0.5c-0.4,0-0.8-0.2-1.1-0.5
		s-0.5-0.7-0.5-1.1s0.2-0.8,0.5-1.1s0.7-0.5,1.1-0.5h0.1v-1.6c0-0.9-0.2-1.4-0.7-1.7c-0.5-0.3-1.2-0.4-2.3-0.4c-0.8,0-1.4,0.1-2,0.3
		c0.1-0.9,0.4-1.7,0.9-2.2s1.2-0.8,2-0.8c0.4,0,0.9,0.1,1.5,0.3c0.6,0.2,0.9,0.3,1.1,0.3c0.4,0,0.6-0.2,0.8-0.5L456.8,496.1z
		 M454.7,504.2c0.2,0,0.4-0.1,0.5-0.2c0.2-0.1,0.2-0.3,0.2-0.5s-0.1-0.4-0.2-0.5c-0.2-0.2-0.3-0.2-0.5-0.2s-0.4,0.1-0.6,0.2
		c-0.2,0.1-0.2,0.3-0.2,0.5s0.1,0.4,0.2,0.5C454.3,504.1,454.5,504.2,454.7,504.2z"/>
	<path class="st3" d="M464.6,495.6c-0.2,1.1-0.6,1.9-1.4,2.5c-0.8,0.6-1.8,0.9-2.9,0.9c-0.8,0-1.3-0.2-1.8-0.5
		c-0.4-0.4-0.6-0.8-0.6-1.3c0-0.4,0.2-0.8,0.5-1.1s0.7-0.5,1.1-0.5s0.8,0.2,1.1,0.5s0.5,0.7,0.5,1.1s-0.1,0.7-0.4,1
		c0.7,0,1.4-0.2,1.9-0.7s0.8-1.1,1-1.9H464.6z M464.6,501.5c-0.2,1.1-0.6,1.9-1.4,2.5s-1.8,0.9-2.9,0.9c-0.8,0-1.3-0.2-1.8-0.5
		c-0.4-0.4-0.6-0.8-0.6-1.3c0-0.4,0.2-0.8,0.5-1.1c0.3-0.3,0.7-0.5,1.1-0.5s0.8,0.2,1.1,0.5c0.3,0.3,0.5,0.7,0.5,1.1
		c0,0.4-0.1,0.7-0.4,1c0.7,0,1.4-0.2,1.9-0.7s0.8-1.1,1-1.9H464.6z M459.4,498c0.2,0,0.4-0.1,0.5-0.2c0.1-0.2,0.2-0.3,0.2-0.6
		c0-0.2-0.1-0.4-0.2-0.5c-0.2-0.2-0.3-0.2-0.5-0.2s-0.4,0.1-0.5,0.2c-0.1,0.2-0.2,0.3-0.2,0.5c0,0.2,0.1,0.4,0.2,0.6
		C459,497.9,459.2,498,459.4,498z M459.4,503.8c0.2,0,0.4-0.1,0.5-0.2c0.1-0.2,0.2-0.3,0.2-0.5s-0.1-0.4-0.2-0.5
		c-0.2-0.1-0.3-0.2-0.5-0.2s-0.4,0.1-0.5,0.2c-0.1,0.2-0.2,0.3-0.2,0.5s0.1,0.4,0.2,0.5C459,503.7,459.2,503.8,459.4,503.8z"/>
	<path class="st3" d="M468,501.8L468,501.8c0.5,0,0.9,0.2,1.2,0.5c0.3,0.3,0.5,0.7,0.5,1.1c0,0.4-0.2,0.8-0.5,1.1
		c-0.3,0.3-0.7,0.5-1.1,0.5c-0.4,0-0.8-0.2-1.1-0.5c-0.3-0.3-0.5-0.7-0.5-1.1v-7.8h1.5L468,501.8L468,501.8z M468.1,504.2
		c0.2,0,0.4-0.1,0.5-0.2c0.2-0.1,0.2-0.3,0.2-0.5s-0.1-0.4-0.2-0.5c-0.1-0.2-0.3-0.2-0.5-0.2s-0.4,0.1-0.5,0.2
		c-0.2,0.1-0.2,0.3-0.2,0.5s0.1,0.4,0.2,0.5C467.7,504.1,467.9,504.2,468.1,504.2z"/>
	<path class="st3" d="M479.8,504.9h-1.4v-7.8c0-0.4-0.1-0.6-0.3-0.6c-0.1,0-0.2,0.1-0.4,0.3s-0.4,0.5-0.6,0.9s-0.5,1-0.8,1.6
		c-0.3,0.7-0.7,1.7-1.2,3s-0.7,2.1-0.7,2.3v0.3h-1.5v-6.4h-0.1c-0.4,0-0.8-0.2-1.1-0.5s-0.5-0.7-0.5-1.1s0.2-0.8,0.5-1.1
		s0.7-0.5,1.1-0.5s0.8,0.2,1.1,0.5s0.5,0.7,0.5,1.1v4.7c0.6-1.7,1.3-3.2,2-4.4c0.7-1.2,1.4-1.8,2.2-1.8c0.9,0,1.4,0.6,1.4,1.7v7.8
		H479.8z M472.7,497.7c0.2,0,0.4-0.1,0.5-0.2c0.1-0.2,0.2-0.3,0.2-0.5s-0.1-0.4-0.2-0.5c-0.2-0.1-0.3-0.2-0.5-0.2s-0.4,0.1-0.5,0.2
		c-0.1,0.2-0.2,0.3-0.2,0.5s0.1,0.4,0.2,0.5C472.3,497.6,472.5,497.7,472.7,497.7z"/>
	<path class="st3" d="M486.3,498v-0.4c0.4-0.1,0.9-0.3,1.3-0.6c-0.5-0.4-1.2-0.6-2-0.6c-0.9,0-1.7,0.3-2.2,0.8
		c-0.6,0.5-0.8,1.1-0.8,1.8c0,0.8,0.2,1.5,0.7,2.2v-1.5c0-0.4,0.2-0.8,0.5-1.1c0.3-0.3,0.7-0.5,1.1-0.5c0.4,0,0.8,0.2,1.1,0.5
		c0.3,0.3,0.5,0.7,0.5,1.1c0,0.4-0.2,0.8-0.5,1.1c-0.3,0.3-0.7,0.5-1.1,0.5h-0.1v3.6h-1.5v-0.8c0-0.6-0.3-1.4-0.8-2.4
		s-0.8-1.9-0.8-2.7c0-1,0.4-1.9,1.1-2.5c0.7-0.6,1.7-1,2.9-1s2.2,0.3,3,0.8c0.3-0.3,0.6-0.7,0.8-1.2l1,0.7c-0.3,0.5-0.6,0.9-1,1.2
		c0.4,0.5,0.6,1.2,0.6,1.8v6.2h-1.5v-6.1c0-0.4-0.1-0.8-0.3-1.2C487.5,497.9,486.9,498,486.3,498z M484.8,500.5
		c0.2,0,0.4-0.1,0.5-0.2c0.2-0.1,0.2-0.3,0.2-0.5c0-0.2-0.1-0.4-0.2-0.5c-0.1-0.1-0.3-0.2-0.5-0.2s-0.4,0.1-0.5,0.2
		c-0.2,0.2-0.2,0.3-0.2,0.5c0,0.2,0.1,0.4,0.2,0.5C484.4,500.4,484.6,500.5,484.8,500.5z"/>
	<path class="st3" d="M498.7,504.9h-1.5v-0.3c-0.6-1.6-1.2-2.8-1.8-3.8c-0.6-0.9-1-1.4-1.2-1.4s-0.3,0.2-0.3,0.6v1.8h0.1
		c0.4,0,0.8,0.2,1.1,0.5c0.3,0.3,0.5,0.7,0.5,1.1c0,0.4-0.2,0.8-0.5,1.1c-0.3,0.3-0.7,0.5-1.1,0.5s-0.8-0.2-1.1-0.5
		c-0.3-0.3-0.5-0.7-0.5-1.1V500c0-1.2,0.5-1.7,1.4-1.7c1,0,2.2,1.4,3.4,4.3v-4c0-0.7-0.2-1.2-0.6-1.6c-0.4-0.4-1-0.6-1.7-0.6
		c-1.1,0-1.9,0.4-2.5,1.3l-0.7-0.6c0.9-1.1,2-1.7,3.3-1.7c1.1,0,2,0.3,2.7,0.9c0.7,0.6,1.1,1.4,1.1,2.3v6.3H498.7z M493.9,504.2
		c0.2,0,0.4-0.1,0.5-0.2c0.2-0.1,0.2-0.3,0.2-0.5s-0.1-0.4-0.2-0.5c-0.1-0.2-0.3-0.2-0.5-0.2s-0.4,0.1-0.5,0.2
		c-0.2,0.1-0.2,0.3-0.2,0.5s0.1,0.4,0.2,0.5C493.5,504.1,493.7,504.2,493.9,504.2z"/>
	<path class="st3" d="M499.6,490.9c-0.2,1.1-0.6,1.9-1.4,2.5s-1.8,0.9-2.9,0.9c-0.8,0-1.3-0.2-1.8-0.5c-0.4-0.3-0.6-0.8-0.6-1.3
		c0-0.4,0.2-0.8,0.5-1.1c0.3-0.3,0.7-0.5,1.1-0.5s0.8,0.2,1.1,0.5c0.3,0.3,0.5,0.7,0.5,1.1c0,0.4-0.1,0.7-0.4,1
		c0.8,0,1.4-0.2,1.9-0.7s0.8-1.1,0.9-1.8h1.1V490.9z M494.4,493.2c0.2,0,0.4-0.1,0.5-0.2c0.1-0.2,0.2-0.3,0.2-0.5s-0.1-0.4-0.2-0.5
		c-0.2-0.1-0.3-0.2-0.5-0.2s-0.4,0.1-0.5,0.2c-0.1,0.2-0.2,0.3-0.2,0.5s0.1,0.4,0.2,0.5C494,493.2,494.2,493.2,494.4,493.2z"/>
	<path class="st3" d="M508.5,504.9H507v-6.1c0-0.7-0.2-1.3-0.7-1.8s-1.1-0.7-1.9-0.7c-1.2,0-2,0.4-2.4,1.1c0.3,0.6,1,0.9,2,1v0.5
		c-0.4,0-0.7,0.1-0.9,0.4s-0.3,0.6-0.3,0.9v4.6h-1.5v-4.6c0-0.6,0.3-1.1,0.8-1.5c-0.7-0.3-1.3-0.7-1.6-1.3c0.7-1.4,2-2.2,3.9-2.2
		c1.2,0,2.1,0.3,2.9,0.9s1.2,1.4,1.2,2.5V504.9z"/>
	<path class="st3" d="M512.2,501.8L512.2,501.8c0.5,0,0.9,0.2,1.2,0.5c0.3,0.3,0.5,0.7,0.5,1.1c0,0.4-0.2,0.8-0.5,1.1
		c-0.3,0.3-0.7,0.5-1.1,0.5c-0.4,0-0.8-0.2-1.1-0.5c-0.3-0.3-0.5-0.7-0.5-1.1v-7.8h1.5L512.2,501.8L512.2,501.8z M512.2,504.2
		c0.2,0,0.4-0.1,0.5-0.2c0.2-0.1,0.2-0.3,0.2-0.5s-0.1-0.4-0.2-0.5c-0.1-0.2-0.3-0.2-0.5-0.2s-0.4,0.1-0.5,0.2
		c-0.2,0.1-0.2,0.3-0.2,0.5s0.1,0.4,0.2,0.5C511.8,504.1,512,504.2,512.2,504.2z"/>
	<path class="st3" d="M524.1,503c0,0.6-0.2,1-0.6,1.4s-0.9,0.5-1.5,0.5h-4.1v-1h0.8v-4c0-0.3,0.2-0.7,0.5-1.1
		c0.3-0.4,0.5-0.7,0.5-1.1c0-0.5-0.2-1-0.6-1.3l-1.1,0.7l-1.2-0.7c-0.4,0.2-0.6,0.6-0.8,1.1c0.2-0.1,0.4-0.2,0.5-0.2
		c0.4,0,0.8,0.2,1.1,0.5s0.5,0.7,0.5,1.1s-0.2,0.8-0.5,1.1s-0.7,0.5-1.1,0.5c-0.5,0-0.8-0.2-1.1-0.5s-0.5-0.8-0.5-1.4
		c0-1.3,0.6-2.3,1.9-3.1l1.1,0.7l1.1-0.7c1.3,0.4,1.9,1.2,1.9,2.3c0,0.4-0.1,0.9-0.4,1.3s-0.4,0.7-0.4,0.9v4h1.4
		c0.6,0,0.9-0.3,0.9-0.8v-4.8c0-0.8-0.4-1.2-1.1-1.2v-0.5c1-0.2,1.6-0.8,1.7-2h1.5c-0.1,1-0.6,1.7-1.5,2.1c0.6,0.2,0.8,0.7,0.8,1.5
		v4.7H524.1z M516.6,499.6c0.2,0,0.4-0.1,0.5-0.2c0.2-0.1,0.2-0.3,0.2-0.5s-0.1-0.4-0.2-0.5c-0.1-0.2-0.3-0.2-0.5-0.2
		s-0.4,0.1-0.5,0.2c-0.2,0.1-0.2,0.3-0.2,0.5s0.1,0.4,0.2,0.5C516.2,499.6,516.4,499.6,516.6,499.6z"/>
	<path class="st3" d="M534.7,504.9h-1.5c-1-2-2.4-3.1-4.3-3.3v1.5c0,1.2-0.6,1.8-1.7,1.8c-0.5,0-0.9-0.2-1.2-0.5s-0.5-0.7-0.5-1.3
		c0-0.6,0.2-1.1,0.5-1.5c0.3-0.4,0.8-0.7,1.4-0.9v-2.4l0,0c-0.4,0-0.8-0.2-1.1-0.5c-0.3-0.3-0.5-0.7-0.5-1.1c0-0.4,0.2-0.8,0.5-1.1
		c0.3-0.3,0.7-0.5,1.1-0.5s0.8,0.2,1.1,0.5c0.3,0.3,0.5,0.7,0.5,1.1v3.9c1.6,0.2,3.1,1,4.3,2.4v-7.7h1.5L534.7,504.9L534.7,504.9z
		 M527.4,503.3v-1.7c-0.3,0.1-0.6,0.3-0.8,0.6s-0.3,0.6-0.3,1c0,0.3,0.1,0.5,0.2,0.7c0.1,0.2,0.3,0.3,0.5,0.3
		C527.3,504.2,527.4,503.9,527.4,503.3z M527.4,497.7c0.2,0,0.4-0.1,0.5-0.2c0.1-0.2,0.2-0.3,0.2-0.5s-0.1-0.4-0.2-0.5
		c-0.2-0.1-0.3-0.2-0.5-0.2s-0.4,0.1-0.5,0.2c-0.1,0.2-0.2,0.3-0.2,0.5s0.1,0.4,0.2,0.5C527,497.6,527.1,497.7,527.4,497.7z"/>
	<path class="st3" d="M538.3,501.8L538.3,501.8c0.5,0,0.9,0.2,1.2,0.5c0.3,0.3,0.5,0.7,0.5,1.1c0,0.4-0.2,0.8-0.5,1.1
		c-0.3,0.3-0.7,0.5-1.1,0.5c-0.4,0-0.8-0.2-1.1-0.5c-0.3-0.3-0.5-0.7-0.5-1.1v-7.8h1.5L538.3,501.8L538.3,501.8z M538.4,504.2
		c0.2,0,0.4-0.1,0.5-0.2c0.2-0.1,0.2-0.3,0.2-0.5s-0.1-0.4-0.2-0.5c-0.1-0.2-0.3-0.2-0.5-0.2s-0.4,0.1-0.5,0.2
		c-0.2,0.1-0.2,0.3-0.2,0.5s0.1,0.4,0.2,0.5C538,504.1,538.2,504.2,538.4,504.2z"/>
	<path class="st3" d="M550.3,503c0,0.6-0.2,1-0.6,1.4s-0.9,0.5-1.5,0.5h-6v-1h0.8v-5.4h-0.1c-0.4,0-0.8-0.2-1.1-0.5
		s-0.5-0.7-0.5-1.1s0.2-0.8,0.5-1.1s0.7-0.5,1.1-0.5s0.8,0.2,1.1,0.5s0.5,0.7,0.5,1.1v7h3.3c0.6,0,0.9-0.3,0.9-0.8v-7.5h1.5
		L550.3,503L550.3,503z M543,497.7c0.2,0,0.4-0.1,0.5-0.2c0.1-0.2,0.2-0.3,0.2-0.5s-0.1-0.4-0.2-0.5c-0.2-0.1-0.3-0.2-0.5-0.2
		s-0.4,0.1-0.5,0.2c-0.1,0.2-0.2,0.3-0.2,0.5s0.1,0.4,0.2,0.5C542.6,497.6,542.8,497.7,543,497.7z"/>
	<path class="st3" d="M550.3,494.3h-7c0.5-1.9,1.7-2.8,3.5-2.8S549.8,492.4,550.3,494.3z M549.1,493.5c-0.4-0.9-1.2-1.4-2.3-1.4
		s-1.9,0.5-2.3,1.4H549.1z"/>
	<path class="st3" d="M559.6,496.1c-0.4,0.5-0.9,0.8-1.6,0.8c-0.3,0-0.7-0.1-1.3-0.3c-0.6-0.2-1-0.3-1.3-0.3c-0.8,0-1.3,0.3-1.7,0.9
		c0.4-0.1,0.8-0.1,1.2-0.1c1.3,0,2.3,0.3,3,0.8s1,1.2,1,2.1v3.3c0,0.4-0.2,0.8-0.5,1.1s-0.7,0.5-1.1,0.5c-0.4,0-0.8-0.2-1.1-0.5
		s-0.5-0.7-0.5-1.1s0.2-0.8,0.5-1.1s0.7-0.5,1.1-0.5h0.1v-1.6c0-0.9-0.2-1.4-0.7-1.7c-0.5-0.3-1.2-0.4-2.3-0.4c-0.8,0-1.4,0.1-2,0.3
		c0.1-0.9,0.4-1.7,0.9-2.2s1.2-0.8,2-0.8c0.4,0,0.9,0.1,1.5,0.3c0.6,0.2,0.9,0.3,1.1,0.3c0.4,0,0.6-0.2,0.8-0.5L559.6,496.1z
		 M557.5,504.2c0.2,0,0.4-0.1,0.5-0.2c0.2-0.1,0.2-0.3,0.2-0.5s-0.1-0.4-0.2-0.5c-0.2-0.2-0.3-0.2-0.5-0.2s-0.4,0.1-0.6,0.2
		c-0.2,0.1-0.2,0.3-0.2,0.5s0.1,0.4,0.2,0.5C557.1,504.1,557.2,504.2,557.5,504.2z"/>
	<path class="st3" d="M560.5,490.4c0,0.3-0.1,0.5-0.3,0.7c-0.2,0.2-0.6,0.4-1.2,0.6s-0.9,0.3-1.1,0.5c0.3,0,0.5,0.1,0.8,0.3
		s0.3,0.5,0.3,0.8c0,0.3-0.1,0.5-0.3,0.8s-0.5,0.3-0.8,0.3s-0.6-0.1-0.8-0.4c-0.2-0.2-0.3-0.5-0.3-0.9c0-0.9,0.5-1.5,1.6-1.8
		c0.5-0.2,0.9-0.3,1.1-0.4c0.2-0.1,0.3-0.2,0.3-0.4h0.7V490.4z M557.9,493.7c0.2,0,0.3-0.1,0.4-0.2c0.1-0.1,0.2-0.2,0.2-0.4
		s-0.1-0.3-0.2-0.4c-0.1-0.1-0.2-0.2-0.4-0.2s-0.3,0.1-0.4,0.2s-0.2,0.2-0.2,0.4s0.1,0.3,0.2,0.4
		C557.7,493.7,557.8,493.7,557.9,493.7z"/>
	<path class="st3" d="M568.8,504.9h-1.4v-6.1c0-0.7-0.2-1.3-0.7-1.8s-1.1-0.7-1.9-0.7c-1.2,0-2,0.4-2.4,1.1c0.3,0.6,1,0.9,2,1v0.5
		c-0.4,0-0.7,0.1-0.9,0.4s-0.3,0.6-0.3,0.9v4.6h-1.5v-4.6c0-0.6,0.3-1.1,0.8-1.5c-0.7-0.3-1.3-0.7-1.6-1.3c0.7-1.4,2-2.2,3.9-2.2
		c1.2,0,2.1,0.3,2.9,0.9s1.2,1.4,1.2,2.5L568.8,504.9L568.8,504.9z"/>
	<path class="st3" d="M572,508.7h-1.1c1.8-2.8,2.6-5.6,2.6-8.4c0-1.1-0.1-2.2-0.4-3.3c-0.2-0.9-0.5-1.7-0.8-2.5
		c-0.2-0.5-0.7-1.4-1.4-2.6h1.1c1.1,1.5,1.9,2.9,2.4,4.4c0.5,1.3,0.7,2.6,0.7,4c0,1.6-0.3,3.1-0.9,4.6
		C573.6,506.3,572.9,507.6,572,508.7z"/>
</g>
<g class="st2">
	<path class="st3" d="M17.7,478.1c0,0.6-0.2,1-0.6,1.4s-0.9,0.5-1.5,0.5h-2.3c-0.6,0-1.1-0.2-1.5-0.5c-0.4-0.3-0.6-0.8-0.6-1.4v-3.3
		c0-0.4,0.2-0.8,0.5-1.1c0.3-0.3,0.7-0.5,1.1-0.5c0.4,0,0.8,0.2,1.1,0.5c0.3,0.3,0.5,0.7,0.5,1.1c0,0.4-0.2,0.8-0.5,1.1
		c-0.3,0.3-0.7,0.5-1.1,0.5h-0.1v1.9c0,0.5,0.3,0.8,0.9,0.8h1.6c0.6,0,0.9-0.3,0.9-0.8v-4.5c0-0.7-0.3-1.2-0.8-1.6
		c-0.5-0.4-1.1-0.6-1.9-0.6c-0.6,0-1.1,0.1-1.7,0.4c-0.6,0.2-1,0.6-1.2,1l-0.7-0.6c0.4-0.5,0.9-0.9,1.6-1.3c0.7-0.4,1.4-0.5,2.1-0.5
		c1.1,0,2.1,0.3,2.9,0.9c0.8,0.6,1.2,1.4,1.2,2.3L17.7,478.1L17.7,478.1z M13,475.6c0.2,0,0.4-0.1,0.5-0.2c0.2-0.1,0.2-0.3,0.2-0.5
		c0-0.2-0.1-0.4-0.2-0.5c-0.2-0.2-0.3-0.2-0.5-0.2s-0.4,0.1-0.5,0.2c-0.1,0.1-0.2,0.3-0.2,0.5c0,0.2,0.1,0.4,0.2,0.5
		C12.5,475.5,12.7,475.6,13,475.6z"/>
	<path class="st3" d="M27.2,480h-1.4v-0.4c-0.3-0.8-1-1.8-1.8-3.1c-0.9-1.3-1.5-1.9-1.9-1.9c-0.2,0-0.4,0.2-0.4,0.6v1.8h0.1
		c0.4,0,0.8,0.2,1.1,0.5c0.3,0.3,0.5,0.7,0.5,1.1c0,0.4-0.2,0.8-0.5,1.1c-0.3,0.3-0.7,0.5-1.1,0.5s-0.8-0.2-1.1-0.5
		c-0.3-0.3-0.5-0.7-0.5-1.1v-3.4c0-1.2,0.5-1.7,1.4-1.7c0.4,0,0.8,0.1,1.1,0.4s0.9,1,1.7,2s1.2,1.7,1.3,1.9v-4.1
		c0-0.4-0.1-0.7-0.2-1c-0.6,0.3-1.3,0.4-1.9,0.4v-0.4c0.5-0.1,0.9-0.3,1.4-0.6c-0.5-0.4-1.2-0.6-1.9-0.6c-0.6,0-1.1,0.1-1.7,0.4
		c-0.6,0.2-1,0.6-1.2,1l-0.7-0.6c0.4-0.5,0.9-0.9,1.6-1.3s1.4-0.5,2.1-0.5c1,0,1.9,0.3,2.7,0.8c0.3-0.4,0.6-0.7,0.8-1.2l1,0.7
		c-0.3,0.5-0.6,0.9-1,1.2c0.4,0.5,0.6,1.1,0.6,1.7L27.2,480L27.2,480z M21.7,479.3c0.2,0,0.4-0.1,0.5-0.2c0.1-0.1,0.2-0.3,0.2-0.5
		c0-0.2-0.1-0.4-0.2-0.5c-0.1-0.2-0.3-0.2-0.5-0.2s-0.4,0.1-0.5,0.2s-0.2,0.3-0.2,0.5c0,0.2,0.1,0.4,0.2,0.5
		C21.3,479.2,21.5,479.3,21.7,479.3z"/>
	<path class="st3" d="M28.2,466.1c-0.2,1.1-0.6,1.9-1.4,2.5c-0.8,0.6-1.8,0.9-2.9,0.9c-0.8,0-1.3-0.2-1.8-0.5
		c-0.5-0.3-0.6-0.8-0.6-1.3c0-0.4,0.2-0.8,0.5-1.1c0.3-0.3,0.7-0.5,1.1-0.5s0.8,0.2,1.1,0.5c0.3,0.3,0.5,0.7,0.5,1.1
		c0,0.4-0.1,0.7-0.4,1c0.8,0,1.4-0.2,1.9-0.7s0.8-1.1,0.9-1.8L28.2,466.1L28.2,466.1z M23,468.4c0.2,0,0.4-0.1,0.5-0.2
		c0.1-0.2,0.2-0.3,0.2-0.5c0-0.2-0.1-0.4-0.2-0.5c-0.1-0.1-0.3-0.2-0.5-0.2s-0.4,0.1-0.5,0.2c-0.1,0.2-0.2,0.3-0.2,0.5
		c0,0.2,0.1,0.4,0.2,0.5C22.5,468.3,22.7,468.4,23,468.4z"/>
	<path class="st3" d="M34.8,480h-1.5c-1-1.4-1.8-2.5-2.6-3.1s-1.6-1-2.6-1V475c1,0,1.8,0.3,2.6,0.8s1.6,1.4,2.6,2.7v-5h-0.1
		c-0.4,0-0.8-0.2-1.1-0.5c-0.3-0.3-0.5-0.7-0.5-1.1c0-0.4,0.2-0.8,0.5-1.1c0.3-0.3,0.7-0.5,1.1-0.5c0.4,0,0.8,0.2,1.1,0.5
		c0.3,0.3,0.5,0.7,0.5,1.1V480z M33.2,472.8c0.2,0,0.4-0.1,0.5-0.2c0.1-0.1,0.2-0.3,0.2-0.5c0-0.2-0.1-0.4-0.2-0.5
		c-0.2-0.1-0.3-0.2-0.5-0.2s-0.4,0.1-0.5,0.2c-0.1,0.2-0.2,0.3-0.2,0.5c0,0.2,0.1,0.4,0.2,0.5C32.9,472.6,33,472.8,33.2,472.8z"/>
	<path class="st3" d="M45.7,480h-1.5v-5.1c0-0.4-0.1-0.7-0.2-0.8c-1.7,1.3-2.9,2.4-3.5,3.3c-0.6,0.9-1,1.8-1,2.6H38v-6.4H38
		c-0.4,0-0.8-0.2-1.1-0.5c-0.3-0.3-0.5-0.7-0.5-1.1s0.2-0.8,0.5-1.1s0.7-0.5,1.1-0.5s0.8,0.2,1.1,0.5c0.3,0.3,0.5,0.7,0.5,1.1v5.4
		c0.4-1,1.7-2.3,3.9-4c-0.7-0.4-1-0.9-1-1.4c0-0.4,0.2-0.8,0.5-1.1s0.7-0.5,1.1-0.5s0.8,0.2,1.1,0.5c0.3,0.3,0.5,0.7,0.5,1.1
		c0,0.6-0.2,1-0.7,1.4c0.5,0.3,0.8,0.8,0.8,1.5L45.7,480L45.7,480z M38,472.8c0.2,0,0.4-0.1,0.5-0.2c0.1-0.1,0.2-0.3,0.2-0.5
		c0-0.2-0.1-0.4-0.2-0.5c-0.1-0.1-0.3-0.2-0.5-0.2s-0.4,0.1-0.5,0.2c-0.1,0.2-0.2,0.3-0.2,0.5c0,0.2,0.1,0.4,0.2,0.5
		C37.7,472.6,37.8,472.8,38,472.8z M44.2,473c0.4-0.3,0.7-0.6,0.7-1c0-0.2-0.1-0.4-0.2-0.5c-0.1-0.1-0.3-0.2-0.5-0.2
		s-0.4,0.1-0.5,0.2c-0.1,0.2-0.2,0.3-0.2,0.5C43.2,472.4,43.5,472.6,44.2,473z"/>
	<path class="st3" d="M53.2,480h-1.5v-6.3c0-1.5-0.7-2.2-2-2.2c-0.9,0-1.6,0.4-2.2,1.3l-0.7-0.6c0.8-1.1,1.8-1.7,3-1.7
		c1,0,1.8,0.3,2.4,0.9s0.9,1.4,0.9,2.4L53.2,480L53.2,480z"/>
	<path class="st3" d="M62.5,471.1c-0.4,0.5-0.9,0.8-1.6,0.8c-0.3,0-0.7-0.1-1.3-0.3c-0.6-0.2-1-0.3-1.3-0.3c-0.8,0-1.3,0.3-1.7,0.9
		c0.4-0.1,0.8-0.1,1.2-0.1c1.3,0,2.3,0.3,3,0.8s1,1.2,1,2.1v3.3c0,0.4-0.2,0.8-0.5,1.1c-0.3,0.3-0.7,0.5-1.1,0.5
		c-0.4,0-0.8-0.2-1.1-0.5c-0.3-0.3-0.5-0.7-0.5-1.1c0-0.4,0.2-0.8,0.5-1.1c0.3-0.3,0.7-0.5,1.1-0.5h0.1v-1.6c0-0.9-0.2-1.4-0.7-1.7
		c-0.5-0.3-1.2-0.4-2.3-0.4c-0.8,0-1.4,0.1-2,0.3c0.1-0.9,0.4-1.7,0.9-2.2s1.2-0.8,2-0.8c0.4,0,0.9,0.1,1.5,0.3s0.9,0.3,1.1,0.3
		c0.4,0,0.6-0.2,0.8-0.5L62.5,471.1z M60.5,479.3c0.2,0,0.4-0.1,0.5-0.2c0.2-0.1,0.2-0.3,0.2-0.5c0-0.2-0.1-0.4-0.2-0.5
		c-0.2-0.2-0.3-0.2-0.5-0.2s-0.4,0.1-0.6,0.2c-0.2,0.1-0.2,0.3-0.2,0.5c0,0.2,0.1,0.4,0.2,0.5C60,479.2,60.2,479.3,60.5,479.3z"/>
	<path class="st3" d="M62,469.4h-7c0.5-1.9,1.7-2.8,3.5-2.8S61.5,467.5,62,469.4z M60.8,468.6c-0.4-0.9-1.2-1.4-2.3-1.4
		s-1.9,0.5-2.3,1.4H60.8z"/>
	<path class="st3" d="M72.5,480H71c-1-2-2.4-3.1-4.3-3.3v1.5c0,1.2-0.6,1.8-1.7,1.8c-0.5,0-0.9-0.2-1.2-0.5
		c-0.3-0.3-0.5-0.7-0.5-1.3s0.2-1.1,0.5-1.5s0.8-0.7,1.4-0.9v-2.4h-0.1c-0.4,0-0.8-0.2-1.1-0.5c-0.3-0.3-0.5-0.7-0.5-1.1
		c0-0.4,0.2-0.8,0.5-1.1c0.3-0.3,0.7-0.5,1.1-0.5s0.8,0.2,1.1,0.5c0.3,0.3,0.5,0.7,0.5,1.1v3.9c1.6,0.2,3.1,1,4.3,2.4v-7.7h1.5V480z
		 M65.2,478.5v-1.7c-0.3,0.1-0.6,0.3-0.8,0.6c-0.2,0.3-0.3,0.6-0.3,1c0,0.3,0.1,0.5,0.2,0.7c0.1,0.2,0.3,0.3,0.5,0.3
		C65.2,479.3,65.2,479,65.2,478.5z M65.2,472.8c0.2,0,0.4-0.1,0.5-0.2c0.1-0.1,0.2-0.3,0.2-0.5c0-0.2-0.1-0.4-0.2-0.5
		c-0.1-0.1-0.3-0.2-0.5-0.2s-0.4,0.1-0.5,0.2c-0.1,0.2-0.2,0.3-0.2,0.5c0,0.2,0.1,0.4,0.2,0.5C64.9,472.6,65,472.8,65.2,472.8z"/>
	<path class="st3" d="M82.8,480h-1.5v-7.8c0-0.4-0.1-0.6-0.3-0.6c-0.1,0-0.2,0.1-0.4,0.3s-0.4,0.5-0.6,0.9c-0.2,0.4-0.5,1-0.8,1.6
		s-0.7,1.7-1.2,3c-0.5,1.3-0.7,2.1-0.7,2.3v0.3h-1.5v-6.4h-0.1c-0.4,0-0.8-0.2-1.1-0.5c-0.3-0.3-0.5-0.7-0.5-1.1
		c0-0.4,0.2-0.8,0.5-1.1c0.3-0.3,0.7-0.5,1.1-0.5s0.8,0.2,1.1,0.5c0.3,0.3,0.5,0.7,0.5,1.1v4.7c0.6-1.7,1.3-3.2,2-4.4
		s1.4-1.8,2.2-1.8c0.9,0,1.4,0.6,1.4,1.7v7.8H82.8z M75.7,472.8c0.2,0,0.4-0.1,0.5-0.2c0.1-0.1,0.2-0.3,0.2-0.5
		c0-0.2-0.1-0.4-0.2-0.5c-0.1-0.1-0.3-0.2-0.5-0.2s-0.4,0.1-0.5,0.2c-0.1,0.2-0.2,0.3-0.2,0.5c0,0.2,0.1,0.4,0.2,0.5
		C75.4,472.6,75.5,472.8,75.7,472.8z"/>
	<path class="st3" d="M92.2,471.1c-0.4,0.5-0.9,0.8-1.6,0.8c-0.3,0-0.7-0.1-1.3-0.3c-0.6-0.2-1-0.3-1.3-0.3c-0.8,0-1.3,0.3-1.7,0.9
		c0.4-0.1,0.8-0.1,1.2-0.1c1.3,0,2.3,0.3,3,0.8s1,1.2,1,2.1v3.3c0,0.4-0.2,0.8-0.5,1.1c-0.3,0.3-0.7,0.5-1.1,0.5
		c-0.4,0-0.8-0.2-1.1-0.5c-0.3-0.3-0.5-0.7-0.5-1.1c0-0.4,0.2-0.8,0.5-1.1c0.3-0.3,0.7-0.5,1.1-0.5H90v-1.6c0-0.9-0.2-1.4-0.7-1.7
		c-0.5-0.3-1.2-0.4-2.3-0.4c-0.8,0-1.4,0.1-2,0.3c0.1-0.9,0.4-1.7,0.9-2.2s1.2-0.8,2-0.8c0.4,0,0.9,0.1,1.5,0.3s0.9,0.3,1.1,0.3
		c0.4,0,0.6-0.2,0.8-0.5L92.2,471.1z M90,479.3c0.2,0,0.4-0.1,0.5-0.2c0.2-0.1,0.2-0.3,0.2-0.5c0-0.2-0.1-0.4-0.2-0.5
		c-0.2-0.2-0.3-0.2-0.5-0.2s-0.4,0.1-0.6,0.2c-0.2,0.1-0.2,0.3-0.2,0.5c0,0.2,0.1,0.4,0.2,0.5C89.7,479.2,89.8,479.3,90,479.3z"/>
	<path class="st3" d="M92.5,466.1c-0.2,1.1-0.6,1.9-1.4,2.5c-0.8,0.6-1.8,0.9-2.9,0.9c-0.8,0-1.3-0.2-1.8-0.5
		c-0.5-0.3-0.6-0.8-0.6-1.3c0-0.4,0.2-0.8,0.5-1.1c0.3-0.3,0.7-0.5,1.1-0.5s0.8,0.2,1.1,0.5c0.3,0.3,0.5,0.7,0.5,1.1
		c0,0.4-0.1,0.7-0.4,1c0.8,0,1.4-0.2,1.9-0.7s0.8-1.1,0.9-1.8L92.5,466.1L92.5,466.1z M87.3,468.4c0.2,0,0.4-0.1,0.5-0.2
		c0.1-0.2,0.2-0.3,0.2-0.5c0-0.2-0.1-0.4-0.2-0.5c-0.1-0.1-0.3-0.2-0.5-0.2s-0.4,0.1-0.5,0.2c-0.1,0.2-0.2,0.3-0.2,0.5
		c0,0.2,0.1,0.4,0.2,0.5C87,468.3,87.2,468.4,87.3,468.4z"/>
	<path class="st3" d="M103.2,480h-1.5c0-0.6-0.4-1.7-1.3-3.2s-1.3-2.7-1.5-3.6c-0.1,0.9-0.6,2.1-1.5,3.6s-1.3,2.5-1.3,3.2h-1.5v-6.4
		h0.1c-0.4,0-0.8-0.2-1.1-0.5c-0.3-0.3-0.5-0.7-0.5-1.1s0.2-0.8,0.5-1.1s0.7-0.5,1.1-0.5s0.8,0.2,1.1,0.5c0.3,0.3,0.5,0.7,0.5,1.1
		v5.1c0.2-0.3,0.5-0.9,0.9-1.7c0.9-1.5,1.3-3.1,1.3-4.8h1c0,1.7,0.4,3.3,1.3,4.8c0.5,0.8,0.8,1.3,0.9,1.7v-6.5h1.5V480z M94.7,472.8
		c0.2,0,0.4-0.1,0.5-0.2c0.1-0.1,0.2-0.3,0.2-0.5c0-0.2-0.1-0.4-0.2-0.5c-0.1-0.1-0.3-0.2-0.5-0.2s-0.4,0.1-0.5,0.2
		c-0.1,0.2-0.2,0.3-0.2,0.5c0,0.2,0.1,0.4,0.2,0.5C94.4,472.6,94.5,472.8,94.7,472.8z"/>
	<path class="st3" d="M112.3,478.1c0,0.6-0.2,1-0.6,1.4s-0.9,0.5-1.5,0.5h-4.8v-2.9c0-0.7,0.3-1.3,0.8-1.6c-0.6-0.3-0.8-0.8-0.8-1.6
		v-1.9c0-0.4,0.2-0.8,0.5-1.1c0.3-0.3,0.7-0.5,1.1-0.5s0.8,0.2,1.1,0.5c0.3,0.3,0.5,0.7,0.5,1.1c0,0.4-0.2,0.8-0.5,1.1
		c-0.3,0.3-0.7,0.5-1.1,0.5H107v0.4c0,0.4,0.1,0.7,0.3,0.9c0.2,0.2,0.5,0.3,0.9,0.3v0.5c-0.4,0-0.7,0.1-0.9,0.3
		c-0.2,0.2-0.3,0.5-0.3,0.9v1.9h3c0.6,0,0.9-0.3,0.9-0.8v-7.5h1.5L112.3,478.1L112.3,478.1z M107,472.8c0.2,0,0.4-0.1,0.5-0.2
		c0.1-0.1,0.2-0.3,0.2-0.5c0-0.2-0.1-0.4-0.2-0.5c-0.1-0.1-0.3-0.2-0.5-0.2s-0.4,0.1-0.5,0.2c-0.1,0.2-0.2,0.3-0.2,0.5
		c0,0.2,0.1,0.4,0.2,0.5C106.6,472.6,106.7,472.8,107,472.8z"/>
	<path class="st3" d="M113.7,465.5c0,0.3-0.1,0.5-0.3,0.7c-0.2,0.2-0.6,0.4-1.2,0.6c-0.6,0.2-0.9,0.3-1.1,0.5c0.3,0,0.5,0.1,0.8,0.3
		c0.3,0.2,0.3,0.5,0.3,0.8c0,0.3-0.1,0.5-0.3,0.8c-0.2,0.3-0.5,0.3-0.8,0.3s-0.6-0.1-0.8-0.4c-0.2-0.2-0.3-0.5-0.3-0.9
		c0-0.9,0.5-1.5,1.6-1.8c0.5-0.2,0.9-0.3,1.1-0.4c0.2-0.1,0.3-0.2,0.3-0.4h0.7V465.5z M111.2,468.9c0.2,0,0.3-0.1,0.4-0.2
		c0.1-0.1,0.2-0.2,0.2-0.4c0-0.2-0.1-0.3-0.2-0.4s-0.2-0.2-0.4-0.2s-0.3,0.1-0.4,0.2s-0.2,0.2-0.2,0.4c0,0.2,0.1,0.3,0.2,0.4
		C111,468.8,111,468.9,111.2,468.9z"/>
	<path class="st3" d="M116,477L116,477c0.5,0,0.9,0.2,1.2,0.5c0.3,0.3,0.5,0.7,0.5,1.1c0,0.4-0.2,0.8-0.5,1.1
		c-0.3,0.3-0.7,0.5-1.1,0.5c-0.4,0-0.8-0.2-1.1-0.5c-0.3-0.3-0.5-0.7-0.5-1.1v-7.8h1.5L116,477L116,477z M116,479.3
		c0.2,0,0.4-0.1,0.5-0.2c0.1-0.1,0.2-0.3,0.2-0.5c0-0.2-0.1-0.4-0.2-0.5c-0.1-0.2-0.3-0.2-0.5-0.2s-0.4,0.1-0.5,0.2
		c-0.2,0.1-0.2,0.3-0.2,0.5c0,0.2,0.1,0.4,0.2,0.5S115.8,479.3,116,479.3z"/>
	<path class="st3" d="M127.5,478.1c0,0.6-0.2,1-0.6,1.4s-0.9,0.5-1.5,0.5h-4.1v-1h0.8v-4c0-0.3,0.2-0.7,0.5-1.1s0.5-0.7,0.5-1.1
		s-0.2-0.8-0.5-1.1s-0.7-0.4-1.2-0.4c-0.3,0-0.5,0-0.7,0.1c0.8,0.3,1.1,0.8,1.1,1.5c0,0.4-0.2,0.8-0.5,1.1c-0.3,0.3-0.7,0.5-1.1,0.5
		s-0.8-0.2-1.1-0.5c-0.3-0.3-0.5-0.7-0.5-1.1c0-0.6,0.3-1.2,0.8-1.7s1.2-0.7,1.9-0.7c0.9,0,1.6,0.2,2.2,0.6c0.6,0.4,0.8,1,0.8,1.7
		c0,0.4-0.1,0.9-0.4,1.3c-0.3,0.4-0.4,0.7-0.4,0.9v4h1.4c0.6,0,0.9-0.3,0.9-0.8v-4.8c0-0.8-0.4-1.2-1.1-1.2v-0.5
		c1-0.2,1.6-0.8,1.7-2h1.5c-0.1,1-0.6,1.7-1.5,2.1c0.6,0.2,0.8,0.7,0.8,1.5v4.8H127.5z M120.3,473.7c0.2,0,0.4-0.1,0.5-0.2
		c0.1-0.2,0.2-0.3,0.2-0.5c0-0.2-0.1-0.4-0.2-0.5c-0.1-0.1-0.3-0.2-0.5-0.2s-0.4,0.1-0.5,0.2c-0.1,0.2-0.2,0.3-0.2,0.5
		c0,0.2,0.1,0.4,0.2,0.5S120.2,473.7,120.3,473.7z"/>
	<path class="st3" d="M127.5,469.4h-7c0.5-1.9,1.7-2.8,3.5-2.8S127,467.5,127.5,469.4z M126.3,468.6c-0.4-0.9-1.2-1.4-2.3-1.4
		s-1.9,0.5-2.3,1.4H126.3z"/>
	<path class="st3" d="M135.2,480h-1.5c-1-1.4-1.8-2.5-2.6-3.1s-1.6-1-2.6-1V475c1,0,1.8,0.3,2.6,0.8c0.8,0.5,1.6,1.4,2.6,2.7v-5
		h-0.1c-0.4,0-0.8-0.2-1.1-0.5c-0.3-0.3-0.5-0.7-0.5-1.1c0-0.4,0.2-0.8,0.5-1.1c0.3-0.3,0.7-0.5,1.1-0.5s0.8,0.2,1.1,0.5
		c0.3,0.3,0.5,0.7,0.5,1.1V480z M133.7,472.8c0.2,0,0.4-0.1,0.5-0.2c0.1-0.1,0.2-0.3,0.2-0.5c0-0.2-0.1-0.4-0.2-0.5
		c-0.2-0.1-0.3-0.2-0.5-0.2s-0.4,0.1-0.5,0.2c-0.1,0.2-0.2,0.3-0.2,0.5c0,0.2,0.1,0.4,0.2,0.5C133.3,472.6,133.4,472.8,133.7,472.8z
		"/>
	<path class="st3" d="M146.9,480h-1.5c0-0.6-0.4-1.7-1.3-3.2s-1.3-2.7-1.5-3.6c-0.1,0.9-0.6,2.1-1.5,3.6s-1.3,2.5-1.3,3.2h-1.5v-6.4
		h-0.1c-0.4,0-0.8-0.2-1.1-0.5c-0.3-0.3-0.5-0.7-0.5-1.1s0.2-0.8,0.5-1.1s0.7-0.5,1.1-0.5s0.8,0.2,1.1,0.5c0.3,0.3,0.5,0.7,0.5,1.1
		v5.1c0.2-0.3,0.5-0.9,0.9-1.7c0.9-1.5,1.3-3.1,1.3-4.8h1c0,1.7,0.4,3.3,1.3,4.8c0.5,0.8,0.8,1.3,0.9,1.7v-6.5h1.5v9.4H146.9z
		 M138.4,472.8c0.2,0,0.4-0.1,0.5-0.2c0.1-0.1,0.2-0.3,0.2-0.5c0-0.2-0.1-0.4-0.2-0.5c-0.1-0.1-0.3-0.2-0.5-0.2s-0.4,0.1-0.5,0.2
		c-0.1,0.2-0.2,0.3-0.2,0.5c0,0.2,0.1,0.4,0.2,0.5C138,472.6,138.2,472.8,138.4,472.8z"/>
	<path class="st3" d="M154.4,480h-1.5v-6.3c0-1.5-0.7-2.2-2-2.2c-0.9,0-1.6,0.4-2.2,1.3l-0.7-0.6c0.8-1.1,1.8-1.7,3-1.7
		c1,0,1.8,0.3,2.4,0.9s0.9,1.4,0.9,2.4L154.4,480L154.4,480z"/>
	<path class="st3" d="M163.4,480h-1.5v-6.1c0-0.8-0.2-1.4-0.5-1.8s-0.9-0.6-1.5-0.6c-1,0-1.7,0.4-2.1,1.1c0.3,0.6,1,0.9,2,1v0.5
		c-0.4,0-0.7,0.1-0.9,0.4s-0.3,0.6-0.3,0.9v1.6h0.1c0.4,0,0.8,0.2,1.1,0.5c0.3,0.3,0.5,0.7,0.5,1.1c0,0.4-0.2,0.8-0.5,1.1
		c-0.3,0.3-0.7,0.5-1.1,0.5s-0.8-0.2-1.1-0.5c-0.3-0.3-0.5-0.7-0.5-1.1v-3.1c0-0.6,0.3-1.1,0.8-1.5c-0.7-0.3-1.3-0.7-1.6-1.3
		c0.7-1.4,1.9-2.2,3.6-2.2c1.1,0,1.9,0.3,2.6,0.9c0.7,0.6,1,1.4,1,2.5v4.2c0.6-1.1,1.4-1.8,2.4-2.1v-5.3h1.5v5.3
		c0.6,0.2,1,0.5,1.4,0.9s0.5,0.9,0.5,1.4s-0.1,1-0.4,1.3c-0.3,0.3-0.7,0.5-1.1,0.5c-1.2,0-1.8-0.6-1.8-1.8v-1.4
		c-0.4,0.1-0.8,0.4-1.3,1C163.9,478.5,163.7,479.2,163.4,480z M158.7,479.3c0.2,0,0.4-0.1,0.6-0.2c0.2-0.1,0.2-0.3,0.2-0.5
		c0-0.2-0.1-0.4-0.2-0.5c-0.2-0.2-0.3-0.2-0.6-0.2c-0.2,0-0.4,0.1-0.5,0.2c-0.2,0.1-0.2,0.3-0.2,0.5c0,0.2,0.1,0.4,0.2,0.5
		S158.4,479.3,158.7,479.3z M168.3,478.3c0-0.3-0.1-0.6-0.3-0.9s-0.5-0.5-0.8-0.6v1.7c0,0.6,0.2,0.8,0.5,0.8
		C168.2,479.3,168.3,479,168.3,478.3z"/>
	<path class="st3" d="M168.4,469.4h-7c0.5-1.9,1.7-2.8,3.5-2.8S167.9,467.5,168.4,469.4z M167.3,468.6c-0.4-0.9-1.2-1.4-2.3-1.4
		s-1.9,0.5-2.3,1.4H167.3z"/>
	<path class="st3" d="M29.7,499.7c0,0.6-0.2,1-0.6,1.4s-0.9,0.5-1.5,0.5h-4.1v-1h0.8v-4c0-0.3,0.2-0.7,0.5-1.1s0.5-0.7,0.5-1.1
		s-0.2-0.8-0.5-1.1c-0.3-0.3-0.7-0.4-1.2-0.4c-0.3,0-0.5,0-0.7,0.1c0.8,0.3,1.1,0.8,1.1,1.5c0,0.4-0.2,0.8-0.5,1.1
		c-0.3,0.3-0.7,0.5-1.1,0.5s-0.8-0.2-1.1-0.5c-0.3-0.3-0.5-0.7-0.5-1.1c0-0.6,0.3-1.2,0.8-1.7s1.2-0.7,1.9-0.7
		c0.9,0,1.6,0.2,2.2,0.6c0.6,0.4,0.8,1,0.8,1.7c0,0.4-0.1,0.9-0.4,1.3c-0.3,0.4-0.4,0.7-0.4,0.9v4h1.4c0.6,0,0.9-0.3,0.9-0.8V495
		c0-0.8-0.4-1.2-1.1-1.2v-0.5c1-0.2,1.6-0.8,1.7-2h1.5c-0.1,1-0.6,1.7-1.5,2.1c0.6,0.2,0.8,0.7,0.8,1.5v4.8H29.7z M22.5,495.3
		c0.2,0,0.4-0.1,0.5-0.2c0.1-0.2,0.2-0.3,0.2-0.5c0-0.2-0.1-0.4-0.2-0.5c-0.1-0.1-0.3-0.2-0.5-0.2S22,494,22,494.1
		c-0.1,0.2-0.2,0.3-0.2,0.5c0,0.2,0.1,0.4,0.2,0.5C22,495.2,22.2,495.3,22.5,495.3z"/>
	<path class="st3" d="M38.7,499.7c0,0.6-0.2,1-0.6,1.4s-0.9,0.5-1.5,0.5h-4.8v-2.9c0-0.7,0.3-1.3,0.8-1.6c-0.6-0.3-0.8-0.8-0.8-1.6
		v-1.9c0-0.4,0.2-0.8,0.5-1.1c0.3-0.3,0.7-0.5,1.1-0.5s0.8,0.2,1.1,0.5c0.3,0.3,0.5,0.7,0.5,1.1c0,0.4-0.2,0.8-0.5,1.1
		c-0.3,0.3-0.7,0.5-1.1,0.5h-0.1v0.4c0,0.4,0.1,0.7,0.3,0.9c0.2,0.2,0.5,0.3,0.9,0.3v0.5c-0.4,0-0.7,0.1-0.9,0.3
		c-0.2,0.2-0.3,0.5-0.3,0.9v1.9h3c0.6,0,0.9-0.3,0.9-0.8V492h1.5V499.7z M33.3,494.4c0.2,0,0.4-0.1,0.5-0.2c0.1-0.1,0.2-0.3,0.2-0.5
		c0-0.2-0.1-0.4-0.2-0.5c-0.1-0.1-0.3-0.2-0.5-0.2s-0.4,0.1-0.5,0.2c-0.1,0.2-0.2,0.3-0.2,0.5c0,0.2,0.1,0.4,0.2,0.5
		S33.2,494.4,33.3,494.4z"/>
	<path class="st3" d="M40.2,487.1c0,0.3-0.1,0.5-0.3,0.7c-0.2,0.2-0.6,0.4-1.2,0.6s-0.9,0.3-1.1,0.5c0.3,0,0.5,0.1,0.8,0.3
		c0.3,0.2,0.3,0.5,0.3,0.8c0,0.3-0.1,0.5-0.3,0.8c-0.2,0.3-0.5,0.3-0.8,0.3s-0.6-0.1-0.8-0.4c-0.2-0.2-0.3-0.5-0.3-0.9
		c0-0.9,0.5-1.5,1.6-1.8c0.5-0.2,0.9-0.3,1.1-0.4c0.2-0.1,0.3-0.2,0.3-0.4h0.7V487.1z M37.7,490.5c0.2,0,0.3-0.1,0.4-0.2
		c0.1-0.1,0.2-0.2,0.2-0.4c0-0.2-0.1-0.3-0.2-0.4c-0.1-0.1-0.2-0.2-0.4-0.2s-0.3,0.1-0.4,0.2c-0.1,0.1-0.2,0.2-0.2,0.4
		c0,0.2,0.1,0.3,0.2,0.4C37.3,490.4,37.5,490.5,37.7,490.5z"/>
	<path class="st3" d="M49,501.6h-1.5v-7.8c0-0.4-0.1-0.6-0.3-0.6c-0.1,0-0.2,0.1-0.4,0.3c-0.2,0.2-0.4,0.5-0.6,0.9s-0.5,1-0.8,1.6
		s-0.7,1.7-1.2,3c-0.5,1.3-0.7,2.1-0.7,2.3v0.3H42v-6.4H42c-0.4,0-0.8-0.2-1.1-0.5c-0.3-0.3-0.5-0.7-0.5-1.1c0-0.4,0.2-0.8,0.5-1.1
		c0.3-0.3,0.7-0.5,1.1-0.5s0.8,0.2,1.1,0.5c0.3,0.3,0.5,0.7,0.5,1.1v4.7c0.6-1.7,1.3-3.2,2-4.4c0.7-1.2,1.4-1.8,2.2-1.8
		c0.9,0,1.4,0.6,1.4,1.7v7.8H49z M42,494.4c0.2,0,0.4-0.1,0.5-0.2c0.1-0.1,0.2-0.3,0.2-0.5c0-0.2-0.1-0.4-0.2-0.5
		c-0.1-0.1-0.3-0.2-0.5-0.2s-0.4,0.1-0.5,0.2c-0.1,0.2-0.2,0.3-0.2,0.5c0,0.2,0.1,0.4,0.2,0.5S41.7,494.4,42,494.4z"/>
	<path class="st3" d="M49,491h-7c0.5-1.9,1.7-2.8,3.5-2.8c1.2,0,2.1,0.4,2.8,1.3v-1.8H49V491z M47.8,490.3c-0.4-0.9-1.2-1.4-2.3-1.4
		s-1.9,0.5-2.3,1.4H47.8z"/>
	<path class="st3" d="M48.7,491H48v-2.9h0.7V491z"/>
	<path class="st3" d="M59.5,501.6H58c-1-2-2.4-3.1-4.3-3.3v1.5c0,1.2-0.6,1.8-1.7,1.8c-0.5,0-0.9-0.2-1.2-0.5
		c-0.3-0.3-0.5-0.7-0.5-1.3s0.2-1.1,0.5-1.5s0.8-0.7,1.4-0.9V495h-0.1c-0.4,0-0.8-0.2-1.1-0.5c-0.3-0.3-0.5-0.7-0.5-1.1
		c0-0.4,0.2-0.8,0.5-1.1c0.3-0.3,0.7-0.5,1.1-0.5s0.8,0.2,1.1,0.5c0.3,0.3,0.5,0.7,0.5,1.1v3.9c1.6,0.2,3.1,1,4.3,2.4V492h1.5V501.6
		z M52.3,500.1v-1.7c-0.3,0.1-0.6,0.3-0.8,0.6c-0.2,0.3-0.3,0.6-0.3,1c0,0.3,0.1,0.5,0.2,0.7c0.1,0.2,0.3,0.3,0.5,0.3
		C52.2,500.9,52.3,500.6,52.3,500.1z M52.2,494.4c0.2,0,0.4-0.1,0.5-0.2c0.1-0.1,0.2-0.3,0.2-0.5c0-0.2-0.1-0.4-0.2-0.5
		c-0.1-0.1-0.3-0.2-0.5-0.2s-0.4,0.1-0.5,0.2c-0.1,0.2-0.2,0.3-0.2,0.5c0,0.2,0.1,0.4,0.2,0.5S52,494.4,52.2,494.4z"/>
	<path class="st3" d="M59.5,491h-7c0.5-1.9,1.7-2.8,3.5-2.8c1.2,0,2.1,0.4,2.8,1.3v-1.8h0.7V491z M58.3,490.3
		c-0.4-0.9-1.2-1.4-2.3-1.4s-1.9,0.5-2.3,1.4H58.3z"/>
	<path class="st3" d="M69.7,501.6h-1.5v-6.1c0-0.7-0.3-1.3-0.8-1.8c-0.5-0.4-1.2-0.7-2.1-0.7c-0.9,0-1.7,0.3-2.2,0.8
		s-0.8,1.1-0.8,1.8c0,0.8,0.2,1.5,0.7,2.2v-1.5c0-0.4,0.2-0.8,0.5-1.1c0.3-0.3,0.7-0.5,1.1-0.5c0.4,0,0.8,0.2,1.1,0.5
		c0.3,0.3,0.5,0.7,0.5,1.1c0,0.4-0.2,0.8-0.5,1.1c-0.3,0.3-0.7,0.5-1.1,0.5h-0.1v3.6H63v-0.8c0-0.6-0.3-1.4-0.8-2.4
		s-0.8-1.9-0.8-2.7c0-1,0.4-1.9,1.1-2.5s1.7-1,2.9-1c1.3,0,2.3,0.3,3.1,0.9c0.8,0.6,1.2,1.4,1.2,2.5L69.7,501.6L69.7,501.6z
		 M64.5,497.2c0.2,0,0.4-0.1,0.5-0.2c0.2-0.1,0.2-0.3,0.2-0.5c0-0.2-0.1-0.4-0.2-0.5s-0.3-0.2-0.5-0.2S64,495.9,64,496
		c-0.1,0.1-0.2,0.3-0.2,0.5c0,0.2,0.1,0.4,0.2,0.5C64,497.2,64.2,497.2,64.5,497.2z"/>
	<path class="st3" d="M69.7,505.4h-0.8v-0.9c-0.2,0-0.4-0.1-0.5-0.2c-0.1-0.1-0.2-0.3-0.2-0.5c0-0.2,0.1-0.4,0.2-0.5
		s0.3-0.2,0.5-0.2c0.3,0,0.5,0.1,0.6,0.2c0.1,0.1,0.2,0.3,0.2,0.6V505.4z M68.8,504.2c0.2,0,0.4-0.1,0.4-0.4s-0.1-0.4-0.4-0.4
		s-0.4,0.1-0.4,0.4S68.5,504.2,68.8,504.2z"/>
	<path class="st3" d="M78.5,501.6H77v-6.1c0-0.8-0.2-1.4-0.5-1.8c-0.3-0.4-0.9-0.6-1.5-0.6c-1,0-1.7,0.4-2.1,1.1c0.3,0.6,1,0.9,2,1
		v0.5c-0.4,0-0.7,0.1-0.9,0.4s-0.3,0.6-0.3,0.9v1.6h0.1c0.4,0,0.8,0.2,1.1,0.5c0.3,0.3,0.5,0.7,0.5,1.1c0,0.4-0.2,0.8-0.5,1.1
		c-0.3,0.3-0.7,0.5-1.1,0.5c-0.4,0-0.8-0.2-1.1-0.5c-0.3-0.3-0.5-0.7-0.5-1.1V497c0-0.6,0.3-1.1,0.8-1.5c-0.7-0.3-1.3-0.7-1.6-1.3
		c0.7-1.4,1.9-2.2,3.6-2.2c1.1,0,1.9,0.3,2.6,0.9c0.7,0.6,1,1.4,1,2.5v4.2c0.6-1.1,1.4-1.8,2.4-2.1v-5.3h1.5v5.3
		c0.6,0.2,1,0.5,1.4,0.9s0.5,0.9,0.5,1.4s-0.1,1-0.4,1.3c-0.3,0.3-0.7,0.5-1.1,0.5c-1.2,0-1.8-0.6-1.8-1.8v-1.4
		c-0.4,0.1-0.8,0.4-1.3,1C79.2,500.1,78.8,500.8,78.5,501.6z M73.8,500.9c0.2,0,0.4-0.1,0.6-0.2c0.2-0.1,0.2-0.3,0.2-0.5
		c0-0.2-0.1-0.4-0.2-0.5c-0.2-0.2-0.3-0.2-0.6-0.2c-0.2,0-0.4,0.1-0.5,0.2c-0.2,0.1-0.2,0.3-0.2,0.5c0,0.2,0.1,0.4,0.2,0.5
		C73.5,500.8,73.7,500.9,73.8,500.9z M83.5,499.9c0-0.3-0.1-0.6-0.3-0.9s-0.5-0.5-0.8-0.6v1.7c0,0.6,0.2,0.8,0.5,0.8
		C83.3,500.9,83.5,500.6,83.5,499.9z"/>
	<path class="st3" d="M94.2,501.6h-1.5v-6.1c0-0.7-0.2-1.3-0.7-1.8S90.9,493,90,493c-1.2,0-2,0.4-2.4,1.1c0.3,0.6,1,0.9,2,1v0.5
		c-0.4,0-0.7,0.1-0.9,0.4s-0.3,0.6-0.3,0.9v3.1c0,0.4-0.2,0.8-0.5,1.1c-0.3,0.3-0.7,0.5-1.1,0.5s-0.8-0.2-1.1-0.5
		c-0.3-0.3-0.5-0.7-0.5-1.1c0-0.4,0.2-0.8,0.5-1.1c0.3-0.3,0.7-0.5,1.1-0.5h0.1v-1.5c0-0.6,0.3-1.1,0.8-1.5
		c-0.7-0.3-1.3-0.7-1.6-1.3c0.7-1.4,2-2.2,3.9-2.2c1.2,0,2.1,0.3,2.9,0.9c0.8,0.6,1.2,1.4,1.2,2.5V501.6z M86.8,500.9
		c0.2,0,0.4-0.1,0.5-0.2c0.1-0.1,0.2-0.3,0.2-0.5c0-0.2-0.1-0.4-0.2-0.5c-0.1-0.2-0.3-0.2-0.5-0.2s-0.4,0.1-0.5,0.2
		s-0.2,0.3-0.2,0.5c0,0.2,0.1,0.4,0.2,0.5C86.5,500.8,86.7,500.9,86.8,500.9z"/>
	<path class="st3" d="M101.7,501.6h-1.5v-6.3c0-1.5-0.7-2.2-2-2.2c-0.9,0-1.6,0.4-2.2,1.3l-0.7-0.6c0.8-1.1,1.8-1.7,3-1.7
		c1,0,1.8,0.3,2.4,0.9c0.6,0.6,0.9,1.4,0.9,2.4L101.7,501.6L101.7,501.6z"/>
	<path class="st3" d="M113.5,501.6H112c0-0.6-0.4-1.7-1.3-3.2s-1.3-2.7-1.5-3.6c-0.1,0.9-0.6,2.1-1.5,3.6s-1.3,2.5-1.3,3.2h-1.5
		v-6.4h-0.1c-0.4,0-0.8-0.2-1.1-0.5c-0.3-0.3-0.5-0.7-0.5-1.1c0-0.4,0.2-0.8,0.5-1.1c0.3-0.3,0.7-0.5,1.1-0.5s0.8,0.2,1.1,0.5
		c0.3,0.3,0.5,0.7,0.5,1.1v5.1c0.2-0.3,0.5-0.9,0.9-1.7c0.9-1.5,1.3-3.1,1.3-4.8h1c0,1.7,0.4,3.3,1.3,4.8c0.5,0.8,0.8,1.3,0.9,1.7
		v-6.5h1.5v9.4H113.5z M105,494.4c0.2,0,0.4-0.1,0.5-0.2c0.1-0.1,0.2-0.3,0.2-0.5c0-0.2-0.1-0.4-0.2-0.5c-0.1-0.1-0.3-0.2-0.5-0.2
		s-0.4,0.1-0.5,0.2c-0.1,0.2-0.2,0.3-0.2,0.5c0,0.2,0.1,0.4,0.2,0.5S104.7,494.4,105,494.4z"/>
	<path class="st3" d="M123.5,501.6H122v-6.1c0-0.7-0.3-1.3-0.8-1.8c-0.5-0.4-1.2-0.7-2.1-0.7c-0.9,0-1.7,0.3-2.2,0.8
		s-0.8,1.1-0.8,1.8c0,0.7,0.2,1.5,0.7,2.3c0.5,0.8,0.8,1.4,1,1.7c0.1-0.3,0.4-0.5,0.7-0.9s0.5-0.6,0.6-0.8h-0.1
		c-0.4,0-0.8-0.2-1.1-0.5c-0.3-0.3-0.5-0.7-0.5-1.1c0-0.4,0.2-0.8,0.5-1.1c0.3-0.3,0.7-0.5,1.1-0.5c0.4,0,0.8,0.2,1.1,0.5
		c0.3,0.3,0.5,0.7,0.5,1.1s-0.1,0.8-0.3,1.2s-0.6,0.9-1.2,1.6s-0.9,1.2-0.9,1.6v0.8h-1.5v-0.8c0-0.6-0.3-1.4-0.8-2.4
		s-0.8-1.9-0.8-2.7c0-1,0.4-1.9,1.1-2.5s1.7-1,2.9-1c1.3,0,2.3,0.3,3.1,0.9c0.8,0.6,1.2,1.4,1.2,2.5L123.5,501.6L123.5,501.6z
		 M119.2,497.2c0.2,0,0.4-0.1,0.5-0.2c0.2-0.1,0.2-0.3,0.2-0.5c0-0.2-0.1-0.4-0.2-0.5s-0.3-0.2-0.5-0.2s-0.4,0.1-0.5,0.2
		c-0.1,0.1-0.2,0.3-0.2,0.5c0,0.2,0.1,0.4,0.2,0.5C118.7,497.2,119,497.2,119.2,497.2z"/>
	<path class="st3" d="M123.5,491h-7c0.5-1.9,1.7-2.8,3.5-2.8c1.2,0,2.1,0.4,2.8,1.3v-1.8h0.7V491z M122.3,490.3
		c-0.4-0.9-1.2-1.4-2.3-1.4s-1.9,0.5-2.3,1.4H122.3z"/>
	<path class="st3" d="M127.2,498.6L127.2,498.6c0.5,0,0.9,0.2,1.2,0.5c0.3,0.3,0.5,0.7,0.5,1.1c0,0.4-0.2,0.8-0.5,1.1
		c-0.3,0.3-0.7,0.5-1.1,0.5c-0.4,0-0.8-0.2-1.1-0.5c-0.3-0.3-0.5-0.7-0.5-1.1v-7.8h1.5V498.6z M127.2,500.9c0.2,0,0.4-0.1,0.5-0.2
		c0.1-0.1,0.2-0.3,0.2-0.5c0-0.2-0.1-0.4-0.2-0.5c-0.1-0.2-0.3-0.2-0.5-0.2s-0.4,0.1-0.5,0.2c-0.2,0.1-0.2,0.3-0.2,0.5
		c0,0.2,0.1,0.4,0.2,0.5C126.8,500.8,127,500.9,127.2,500.9z"/>
	<path class="st3" d="M137.7,499.7c0,0.6-0.2,1-0.6,1.4s-0.9,0.5-1.5,0.5h-4.8v-2.9c0-0.7,0.3-1.3,0.8-1.6c-0.6-0.3-0.8-0.8-0.8-1.6
		v-1.9c0-0.4,0.2-0.8,0.5-1.1c0.3-0.3,0.7-0.5,1.1-0.5s0.8,0.2,1.1,0.5c0.3,0.3,0.5,0.7,0.5,1.1c0,0.4-0.2,0.8-0.5,1.1
		c-0.3,0.3-0.7,0.5-1.1,0.5h-0.1v0.4c0,0.4,0.1,0.7,0.3,0.9c0.2,0.2,0.5,0.3,0.9,0.3v0.5c-0.4,0-0.7,0.1-0.9,0.3
		c-0.2,0.2-0.3,0.5-0.3,0.9v1.9h3c0.6,0,0.9-0.3,0.9-0.8V492h1.5V499.7z M132.3,494.4c0.2,0,0.4-0.1,0.5-0.2
		c0.1-0.1,0.2-0.3,0.2-0.5c0-0.2-0.1-0.4-0.2-0.5s-0.3-0.2-0.5-0.2s-0.4,0.1-0.5,0.2c-0.1,0.2-0.2,0.3-0.2,0.5
		c0,0.2,0.1,0.4,0.2,0.5S132.2,494.4,132.3,494.4z"/>
	<path class="st3" d="M137.7,491h-7c0.5-1.9,1.7-2.8,3.5-2.8c1.2,0,2.1,0.4,2.8,1.3v-1.8h0.7V491z M136.6,490.3
		c-0.4-0.9-1.2-1.4-2.3-1.4s-1.9,0.5-2.3,1.4H136.6z"/>
	<path class="st3" d="M137.3,491h-0.7v-2.9h0.7V491z"/>
	<path class="st3" d="M146.7,499.7c0,0.6-0.2,1-0.6,1.4s-0.9,0.5-1.5,0.5h-4.8v-2.9c0-0.7,0.3-1.3,0.8-1.6c-0.6-0.3-0.8-0.8-0.8-1.6
		v-1.9c0-0.4,0.2-0.8,0.5-1.1c0.3-0.3,0.7-0.5,1.1-0.5s0.8,0.2,1.1,0.5c0.3,0.3,0.5,0.7,0.5,1.1c0,0.4-0.2,0.8-0.5,1.1
		c-0.3,0.3-0.7,0.5-1.1,0.5h-0.1v0.4c0,0.4,0.1,0.7,0.3,0.9c0.2,0.2,0.5,0.3,0.9,0.3v0.5c-0.4,0-0.7,0.1-0.9,0.3
		c-0.2,0.2-0.3,0.5-0.3,0.9v1.9h3c0.6,0,0.9-0.3,0.9-0.8V492h1.5V499.7z M141.3,494.4c0.2,0,0.4-0.1,0.5-0.2
		c0.1-0.1,0.2-0.3,0.2-0.5c0-0.2-0.1-0.4-0.2-0.5s-0.3-0.2-0.5-0.2s-0.4,0.1-0.5,0.2c-0.1,0.2-0.2,0.3-0.2,0.5
		c0,0.2,0.1,0.4,0.2,0.5S141.2,494.4,141.3,494.4z"/>
	<path class="st3" d="M157.2,501.6h-1.5c-1-2-2.4-3.1-4.3-3.3v1.5c0,1.2-0.6,1.8-1.7,1.8c-0.5,0-0.9-0.2-1.2-0.5
		c-0.3-0.3-0.5-0.7-0.5-1.3s0.2-1.1,0.5-1.5s0.8-0.7,1.4-0.9V495h-0.1c-0.4,0-0.8-0.2-1.1-0.5c-0.3-0.3-0.5-0.7-0.5-1.1
		c0-0.4,0.2-0.8,0.5-1.1c0.3-0.3,0.7-0.5,1.1-0.5s0.8,0.2,1.1,0.5c0.3,0.3,0.5,0.7,0.5,1.1v3.9c1.6,0.2,3.1,1,4.3,2.4V492h1.5
		L157.2,501.6L157.2,501.6z M149.9,500.1v-1.7c-0.3,0.1-0.6,0.3-0.8,0.6c-0.2,0.3-0.3,0.6-0.3,1c0,0.3,0.1,0.5,0.2,0.7
		c0.1,0.2,0.3,0.3,0.5,0.3C149.8,500.9,149.9,500.6,149.9,500.1z M149.9,494.4c0.2,0,0.4-0.1,0.5-0.2c0.1-0.1,0.2-0.3,0.2-0.5
		c0-0.2-0.1-0.4-0.2-0.5s-0.3-0.2-0.5-0.2s-0.4,0.1-0.5,0.2c-0.1,0.2-0.2,0.3-0.2,0.5c0,0.2,0.1,0.4,0.2,0.5
		S149.7,494.4,149.9,494.4z"/>
</g>
<g class="st2">
	<path d="M408,94.1V79.8h1.9v5.9h7.4v-5.9h1.9v14.3h-1.9v-6.7H410v6.7H408z"/>
	<path d="M421.5,88.8c0-1.9,0.5-3.3,1.6-4.3c0.9-0.8,2-1.2,3.3-1.2c1.4,0,2.6,0.5,3.5,1.4c0.9,0.9,1.4,2.2,1.4,3.9
		c0,1.3-0.2,2.4-0.6,3.1c-0.4,0.7-1,1.4-1.7,1.8s-1.6,0.6-2.5,0.6c-1.5,0-2.6-0.5-3.5-1.4C422.1,91.8,421.5,90.7,421.5,88.8z
		 M423.4,88.8c0,1.3,0.3,2.3,0.9,3c0.6,0.7,1.3,1,2.2,1s1.6-0.3,2.2-1c0.6-0.7,0.9-1.7,0.9-3s-0.3-2.3-0.9-2.9c-0.6-0.6-1.3-1-2.2-1
		c-0.9,0-1.6,0.3-2.2,1C423.7,86.6,423.4,87.6,423.4,88.8z"/>
	<path d="M440.2,94.1v-1.5c-0.8,1.2-1.9,1.8-3.3,1.8c-0.6,0-1.2-0.1-1.7-0.4s-0.9-0.5-1.2-0.9c-0.3-0.4-0.4-0.8-0.5-1.3
		c-0.1-0.3-0.1-0.9-0.1-1.6v-6.4h1.8v5.8c0,0.9,0,1.5,0.1,1.9c0.1,0.5,0.3,0.8,0.7,1.1s0.8,0.4,1.3,0.4s1-0.1,1.5-0.4s0.8-0.6,1-1.1
		s0.3-1.1,0.3-2v-5.6h1.8v10.4h-1.7V94.1z"/>
	<path d="M443.8,90.9l1.7-0.3c0.1,0.7,0.4,1.2,0.8,1.6c0.4,0.4,1.1,0.6,1.9,0.6s1.4-0.2,1.8-0.5c0.4-0.3,0.6-0.7,0.6-1.2
		c0-0.4-0.2-0.7-0.5-0.9c-0.2-0.2-0.8-0.4-1.8-0.6c-1.3-0.3-2.2-0.6-2.7-0.8s-0.9-0.6-1.1-1s-0.4-0.9-0.4-1.4s0.1-0.9,0.3-1.3
		c0.2-0.4,0.5-0.7,0.9-1c0.3-0.2,0.6-0.4,1.1-0.5s1-0.2,1.5-0.2c0.8,0,1.5,0.1,2.1,0.4c0.6,0.3,1.1,0.6,1.4,1s0.5,0.9,0.6,1.6
		l-1.7,0.2c-0.1-0.5-0.3-1-0.7-1.3s-0.9-0.4-1.6-0.4c-0.8,0-1.4,0.1-1.7,0.4c-0.3,0.3-0.5,0.6-0.5,0.9c0,0.2,0.1,0.4,0.2,0.6
		c0.1,0.2,0.4,0.3,0.7,0.5c0.2,0.1,0.7,0.2,1.6,0.4c1.2,0.3,2.1,0.6,2.6,0.8s0.9,0.5,1.2,0.9c0.3,0.4,0.4,0.9,0.4,1.5
		s-0.2,1.1-0.5,1.7s-0.8,0.9-1.5,1.2s-1.4,0.4-2.2,0.4c-1.3,0-2.4-0.3-3.1-0.8S444,92.1,443.8,90.9z"/>
	<path d="M461.5,90.8l1.8,0.2c-0.3,1.1-0.8,1.9-1.6,2.5c-0.8,0.6-1.8,0.9-3,0.9c-1.5,0-2.7-0.5-3.6-1.4c-0.9-0.9-1.3-2.2-1.3-3.9
		c0-1.7,0.4-3.1,1.3-4.1c0.9-1,2.1-1.4,3.5-1.4c1.4,0,2.5,0.5,3.4,1.4c0.9,0.9,1.3,2.3,1.3,4c0,0.1,0,0.3,0,0.5h-7.7
		c0.1,1.1,0.4,2,1,2.6c0.6,0.6,1.3,0.9,2.2,0.9c0.6,0,1.2-0.2,1.7-0.5S461.3,91.4,461.5,90.8z M455.8,87.8h5.8
		c-0.1-0.9-0.3-1.5-0.7-2c-0.6-0.7-1.3-1-2.2-1c-0.8,0-1.5,0.3-2,0.8S455.9,86.9,455.8,87.8z"/>
	<path d="M469.5,94.1V81.4h-4.7v-1.7H476v1.7h-4.7V94C471.3,94,469.5,94,469.5,94.1z"/>
	<path d="M475,88.8c0-1.9,0.5-3.3,1.6-4.3c0.9-0.8,2-1.2,3.3-1.2c1.4,0,2.6,0.5,3.5,1.4c0.9,0.9,1.4,2.2,1.4,3.9
		c0,1.3-0.2,2.4-0.6,3.1c-0.4,0.7-1,1.4-1.7,1.8s-1.6,0.6-2.5,0.6c-1.5,0-2.6-0.5-3.5-1.4C475.5,91.8,475,90.7,475,88.8z
		 M476.8,88.8c0,1.3,0.3,2.3,0.9,3c0.6,0.7,1.3,1,2.2,1c0.9,0,1.6-0.3,2.2-1c0.6-0.7,0.9-1.7,0.9-3s-0.3-2.3-0.9-2.9
		c-0.6-0.6-1.3-1-2.2-1s-1.6,0.3-2.2,1C477,86.6,476.8,87.6,476.8,88.8z"/>
	<path d="M486.7,94.1V79.8h1.8v8.2l4.2-4.2h2.3l-4,3.8l4.4,6.5h-2.2l-3.5-5.3l-1.2,1.2V94C488.5,94,486.7,94,486.7,94.1z"/>
	<path d="M503.8,90.8l1.8,0.2c-0.3,1.1-0.8,1.9-1.6,2.5c-0.8,0.6-1.8,0.9-3,0.9c-1.5,0-2.7-0.5-3.6-1.4c-0.9-0.9-1.3-2.2-1.3-3.9
		c0-1.7,0.4-3.1,1.3-4.1c0.9-1,2.1-1.4,3.5-1.4c1.4,0,2.5,0.5,3.4,1.4c0.9,0.9,1.3,2.3,1.3,4c0,0.1,0,0.3,0,0.5h-7.7
		c0.1,1.1,0.4,2,1,2.6c0.6,0.6,1.3,0.9,2.2,0.9c0.6,0,1.2-0.2,1.7-0.5S503.5,91.4,503.8,90.8z M498,87.8h5.8c-0.1-0.9-0.3-1.5-0.7-2
		c-0.6-0.7-1.3-1-2.2-1c-0.8,0-1.5,0.3-2,0.8S498,86.9,498,87.8z"/>
	<path d="M507.9,94.1V83.7h1.6v1.5c0.8-1.1,1.9-1.7,3.3-1.7c0.6,0,1.2,0.1,1.7,0.3s0.9,0.5,1.2,0.9c0.3,0.4,0.4,0.8,0.5,1.3
		c0.1,0.3,0.1,0.9,0.1,1.7v6.4h-1.8v-6.3c0-0.7-0.1-1.3-0.2-1.6c-0.1-0.3-0.4-0.6-0.7-0.8c-0.3-0.2-0.8-0.3-1.2-0.3
		c-0.7,0-1.4,0.2-1.9,0.7s-0.8,1.4-0.8,2.7v5.7L507.9,94.1L507.9,94.1z"/>
	<path d="M524.7,94.1V79.8h1.9v12.6h7.1V94C533.7,94,524.7,94,524.7,94.1z"/>
	<path d="M538,94.1V81.4h-4.7v-1.7h11.4v1.7H540V94C540,94,538,94,538,94.1z"/>
	<path d="M546.5,94.1V79.8h4.9c1.1,0,2,0.1,2.5,0.2c0.8,0.2,1.5,0.5,2.1,1c0.8,0.6,1.3,1.5,1.7,2.4s0.6,2.1,0.6,3.4
		c0,1.1-0.1,2.1-0.4,2.9s-0.6,1.5-1,2.1c-0.4,0.6-0.8,1-1.3,1.3s-1,0.6-1.7,0.7s-1.4,0.2-2.3,0.2h-5.1V94.1z M548.5,92.3h3.1
		c0.9,0,1.7-0.1,2.2-0.3s1-0.4,1.3-0.7c0.4-0.4,0.8-1.1,1-1.8s0.4-1.7,0.4-2.8c0-1.5-0.2-2.6-0.7-3.5s-1.1-1.3-1.8-1.6
		c-0.5-0.2-1.3-0.3-2.5-0.3h-3V92.3z"/>
	<path d="M398.5,122.3c-1-1.2-1.8-2.7-2.5-4.3s-1-3.3-1-5.1c0-1.5,0.3-3,0.8-4.5c0.6-1.6,1.5-3.3,2.7-4.9h1.3
		c-0.8,1.4-1.3,2.3-1.6,2.9c-0.4,0.9-0.7,1.8-0.9,2.8c-0.3,1.2-0.4,2.4-0.4,3.7c0,3.1,1,6.3,2.9,9.4H398.5z"/>
	<path d="M411.2,115.9c0,0.6-0.2,1.2-0.7,1.5s-1,0.6-1.6,0.6h-6.7v-1.1h0.9v-6h-0.1c-0.5,0-0.9-0.2-1.2-0.5
		c-0.3-0.3-0.5-0.7-0.5-1.2s0.2-0.9,0.5-1.2s0.7-0.5,1.2-0.5s0.9,0.2,1.2,0.5c0.3,0.3,0.5,0.7,0.5,1.2v7.8h3.7c0.7,0,1-0.3,1-0.9
		v-8.3h1.6v8.1H411.2z M403,110.1c0.2,0,0.4-0.1,0.6-0.3s0.2-0.4,0.2-0.6s-0.1-0.4-0.2-0.6c-0.1-0.2-0.4-0.2-0.6-0.2
		s-0.4,0.1-0.6,0.2s-0.2,0.4-0.2,0.6s0.1,0.4,0.2,0.6C402.5,109.9,402.8,110.1,403,110.1z"/>
	<path d="M421.5,108.3c-0.5,0.6-1,0.9-1.7,0.9c-0.3,0-0.8-0.1-1.4-0.3c-0.6-0.2-1.1-0.3-1.4-0.3c-0.8,0-1.5,0.3-1.9,1
		c0.4-0.1,0.8-0.1,1.3-0.1c1.5,0,2.6,0.3,3.3,0.9c0.7,0.6,1.1,1.4,1.1,2.4v3.7c0,0.5-0.2,0.9-0.5,1.2s-0.7,0.5-1.2,0.5
		s-0.9-0.2-1.2-0.5c-0.3-0.3-0.5-0.7-0.5-1.2s0.2-0.9,0.5-1.2s0.7-0.5,1.2-0.5h0.1v-1.7c0-1-0.3-1.6-0.8-1.9s-1.4-0.5-2.5-0.5
		c-0.8,0-1.6,0.1-2.2,0.3c0.1-1,0.4-1.9,1-2.5c0.6-0.6,1.4-0.9,2.2-0.9c0.4,0,1,0.1,1.7,0.3s1.1,0.3,1.2,0.3c0.4,0,0.7-0.2,0.9-0.6
		L421.5,108.3z M419,117.3c0.2,0,0.4-0.1,0.6-0.2s0.3-0.4,0.3-0.6s-0.1-0.4-0.3-0.6c-0.2-0.2-0.4-0.2-0.6-0.2s-0.4,0.1-0.6,0.2
		s-0.3,0.4-0.3,0.6s0.1,0.4,0.3,0.6C418.6,117.3,418.9,117.3,419,117.3z"/>
	<path d="M420.8,106.3H413c0.6-2.1,1.9-3.1,3.9-3.1S420.3,104.2,420.8,106.3z M419.5,105.4c-0.5-1-1.4-1.5-2.6-1.5s-2.1,0.5-2.6,1.5
		H419.5z"/>
	<path d="M432.5,115.9c0,0.6-0.2,1.2-0.7,1.5s-1,0.6-1.6,0.6h-6.7v-1.1h0.9v-6h-0.1c-0.5,0-0.9-0.2-1.2-0.5
		c-0.3-0.3-0.5-0.7-0.5-1.2s0.2-0.9,0.5-1.2s0.7-0.5,1.2-0.5s0.9,0.2,1.2,0.5c0.3,0.3,0.5,0.7,0.5,1.2v7.8h3.7c0.7,0,1-0.3,1-0.9
		v-1.7h-0.2c-0.9,0-1.6-0.2-2.3-0.6c-0.7-0.4-1-0.9-1-1.5c0-0.4,0.1-0.7,0.4-1s0.6-0.4,1-0.4c0.4,0,0.7,0.1,1,0.4s0.4,0.6,0.4,1
		c0,0.6-0.3,1-0.8,1.2c0.4,0.1,0.8,0.2,1.2,0.2h0.2v-5.9h1.6v5.3c0.6-0.4,1.1-1.1,1.4-1.9l0.7,0.5c-0.5,1.1-1.2,1.9-2.1,2.3v1.9
		H432.5z M424.4,110.1c0.2,0,0.4-0.1,0.6-0.3s0.2-0.4,0.2-0.6s-0.1-0.4-0.2-0.6c-0.1-0.2-0.4-0.2-0.6-0.2s-0.4,0.1-0.6,0.2
		s-0.2,0.4-0.2,0.6s0.1,0.4,0.2,0.6C423.9,109.9,424.2,110.1,424.4,110.1z M428.8,112.8c0.2,0,0.4-0.1,0.5-0.2
		c0.1-0.1,0.2-0.3,0.2-0.5s-0.1-0.4-0.2-0.5c-0.1-0.1-0.3-0.2-0.5-0.2s-0.4,0.1-0.5,0.2c-0.1,0.1-0.2,0.3-0.2,0.5s0.1,0.4,0.2,0.5
		C428.4,112.8,428.5,112.8,428.8,112.8z"/>
	<path d="M434.5,102.6c-0.2,1.2-0.7,2.1-1.6,2.8c-0.9,0.7-2,1-3.3,1c-0.8,0-1.5-0.2-2-0.6s-0.7-0.9-0.7-1.4s0.2-0.9,0.5-1.2
		s0.7-0.5,1.2-0.5s0.9,0.2,1.2,0.5c0.3,0.3,0.5,0.7,0.5,1.2c0,0.4-0.1,0.8-0.4,1.1c0.8,0,1.5-0.3,2.1-0.8c0.6-0.5,0.9-1.2,1-2
		L434.5,102.6L434.5,102.6z M428.8,105.1c0.2,0,0.4-0.1,0.6-0.2s0.2-0.4,0.2-0.6s-0.1-0.4-0.2-0.6c-0.1-0.2-0.4-0.2-0.6-0.2
		s-0.4,0.1-0.6,0.2s-0.2,0.4-0.2,0.6s0.1,0.4,0.2,0.6C428.3,105.1,428.5,105.1,428.8,105.1z"/>
	<path d="M445,118.1h-1.6v-8.7c0-0.4-0.1-0.6-0.4-0.6c-0.1,0-0.3,0.1-0.4,0.3c-0.1,0.2-0.4,0.6-0.7,1c-0.3,0.4-0.6,1.1-0.9,1.8
		s-0.8,1.8-1.3,3.3s-0.8,2.3-0.8,2.5v0.3h-1.6v-7.2h-0.1c-0.5,0-0.9-0.2-1.2-0.5c-0.3-0.3-0.5-0.7-0.5-1.2s0.2-0.9,0.5-1.2
		s0.7-0.5,1.2-0.5s0.9,0.2,1.2,0.5c0.3,0.3,0.5,0.7,0.5,1.2v5.2c0.7-1.9,1.5-3.6,2.2-4.9s1.6-2,2.4-2c1,0,1.6,0.6,1.6,1.9v8.8H445z
		 M437,110.1c0.2,0,0.4-0.1,0.6-0.3s0.2-0.4,0.2-0.6s-0.1-0.4-0.2-0.6c-0.1-0.2-0.4-0.2-0.6-0.2s-0.4,0.1-0.6,0.2s-0.2,0.4-0.2,0.6
		s0.1,0.4,0.2,0.6C436.5,109.9,436.9,110.1,437,110.1z"/>
	<path d="M460.2,114.7L460.2,114.7c0.5,0,1,0.2,1.3,0.5s0.5,0.7,0.5,1.2s-0.2,0.9-0.5,1.2s-0.7,0.5-1.2,0.5s-0.9-0.2-1.2-0.5
		c-0.3-0.3-0.5-0.7-0.5-1.2v-8.7h1.6L460.2,114.7L460.2,114.7z M460.3,117.3c0.2,0,0.4-0.1,0.6-0.2s0.2-0.4,0.2-0.6
		s-0.1-0.4-0.2-0.6c-0.1-0.2-0.4-0.2-0.6-0.2s-0.4,0.1-0.6,0.2s-0.3,0.4-0.3,0.6s0.1,0.4,0.3,0.6C459.8,117.3,460,117.3,460.3,117.3
		z"/>
	<path d="M473,118.1h-1.6v-6.8c0-0.8-0.3-1.5-0.9-2c-0.6-0.5-1.3-0.7-2.3-0.7s-1.8,0.3-2.5,0.8s-0.9,1.2-0.9,2s0.2,1.7,0.7,2.5v-1.6
		c0-0.5,0.2-0.9,0.5-1.2s0.7-0.5,1.2-0.5s0.9,0.2,1.2,0.5c0.3,0.3,0.5,0.7,0.5,1.2s-0.2,0.9-0.5,1.2s-0.7,0.5-1.2,0.5h-0.1v4h-1.6
		v-0.9c0-0.7-0.3-1.6-0.9-2.7c-0.6-1.1-0.9-2.1-0.9-3c0-1.1,0.4-2.1,1.3-2.8c0.9-0.7,1.9-1.2,3.3-1.2c1.4,0,2.6,0.3,3.5,1
		c0.9,0.7,1.3,1.6,1.3,2.7v7H473z M467.3,113.2c0.2,0,0.4-0.1,0.6-0.2s0.3-0.4,0.3-0.6s-0.1-0.4-0.3-0.6c-0.2-0.2-0.4-0.3-0.6-0.3
		s-0.4,0.1-0.6,0.3s-0.2,0.4-0.2,0.6s0.1,0.4,0.2,0.6C466.8,113.2,467,113.2,467.3,113.2z"/>
	<path d="M483,115.9c0,0.6-0.2,1.2-0.7,1.5s-1,0.6-1.6,0.6h-5.4v-3.3c0-0.8,0.3-1.4,0.9-1.8c-0.6-0.3-0.9-0.9-0.9-1.8V109
		c0-0.5,0.2-0.9,0.5-1.2s0.7-0.5,1.2-0.5s0.9,0.2,1.2,0.5c0.3,0.3,0.5,0.7,0.5,1.2s-0.2,0.9-0.5,1.2s-0.7,0.5-1.2,0.5H477v0.4
		c0,0.4,0.1,0.8,0.4,1s0.6,0.4,1,0.4v0.6c-0.4,0-0.7,0.1-1,0.4s-0.4,0.6-0.4,1v2.2h3.3c0.7,0,1-0.3,1-0.9v-8.3h1.6v8.4H483z
		 M477,110.1c0.2,0,0.4-0.1,0.6-0.3s0.2-0.4,0.2-0.6s-0.1-0.4-0.2-0.6c-0.1-0.2-0.4-0.2-0.6-0.2s-0.4,0.1-0.6,0.2s-0.2,0.4-0.2,0.6
		s0.1,0.4,0.2,0.6C476.5,109.9,476.9,110.1,477,110.1z"/>
	<path d="M484.7,101.9c0,0.3-0.1,0.6-0.3,0.8c-0.2,0.2-0.6,0.4-1.3,0.6c-0.7,0.2-1,0.4-1.2,0.5c0.3,0,0.6,0.1,0.8,0.4
		c0.2,0.3,0.4,0.5,0.4,0.8s-0.1,0.6-0.4,0.8s-0.5,0.4-0.8,0.4s-0.6-0.1-0.9-0.4s-0.4-0.6-0.4-1c0-1,0.6-1.6,1.8-2
		c0.6-0.2,1-0.3,1.2-0.4s0.3-0.3,0.3-0.5C483.9,102,484.7,102,484.7,101.9z M481.9,105.7c0.2,0,0.3-0.1,0.4-0.2
		c0.1-0.1,0.2-0.3,0.2-0.4s-0.1-0.3-0.2-0.4c-0.1-0.1-0.3-0.2-0.4-0.2c-0.1,0-0.3,0.1-0.4,0.2c-0.1,0.1-0.2,0.3-0.2,0.4
		s0.1,0.3,0.2,0.4C481.6,105.6,481.7,105.7,481.9,105.7z"/>
	<path d="M487.2,114.7L487.2,114.7c0.5,0,1,0.2,1.3,0.5s0.5,0.7,0.5,1.2s-0.2,0.9-0.5,1.2s-0.7,0.5-1.2,0.5s-0.9-0.2-1.2-0.5
		c-0.3-0.3-0.5-0.7-0.5-1.2v-8.7h1.6L487.2,114.7L487.2,114.7z M487.2,117.3c0.2,0,0.4-0.1,0.6-0.2s0.2-0.4,0.2-0.6
		s-0.1-0.4-0.2-0.6c-0.1-0.2-0.4-0.2-0.6-0.2s-0.4,0.1-0.6,0.2s-0.3,0.4-0.3,0.6s0.1,0.4,0.3,0.6C486.8,117.3,487,117.3,487.2,117.3
		z M492.9,114.7L492.9,114.7c0.5,0,1,0.2,1.3,0.5s0.5,0.7,0.5,1.2s-0.2,0.9-0.5,1.2s-0.7,0.5-1.2,0.5s-0.9-0.2-1.2-0.5
		c-0.3-0.3-0.5-0.7-0.5-1.2v-8.7h1.6L492.9,114.7L492.9,114.7z M492.9,117.3c0.2,0,0.4-0.1,0.6-0.2s0.2-0.4,0.2-0.6
		s-0.1-0.4-0.2-0.6c-0.1-0.2-0.4-0.2-0.6-0.2s-0.4,0.1-0.6,0.2s-0.2,0.4-0.2,0.6s0.1,0.4,0.2,0.6
		C492.4,117.3,492.7,117.3,492.9,117.3z"/>
	<path d="M506.2,118.1h-1.6c-1.1-2.2-2.7-3.4-4.7-3.6v1.7c0,1.3-0.6,2-1.9,2c-0.5,0-0.9-0.2-1.3-0.5c-0.4-0.3-0.5-0.8-0.5-1.4
		s0.2-1.2,0.6-1.6c0.4-0.4,0.9-0.8,1.6-1V111h-0.1c-0.5,0-0.9-0.2-1.2-0.5c-0.3-0.3-0.5-0.7-0.5-1.2s0.2-0.9,0.5-1.2
		s0.7-0.5,1.2-0.5s0.9,0.2,1.2,0.5c0.3,0.3,0.5,0.7,0.5,1.2v4.4c1.8,0.2,3.4,1.1,4.7,2.7v-8.6h1.6v10.3H506.2z M498,116.3v-1.9
		c-0.4,0.1-0.7,0.3-0.9,0.7c-0.2,0.4-0.3,0.7-0.3,1.1c0,0.3,0.1,0.6,0.2,0.8c0.1,0.2,0.3,0.3,0.5,0.3C498,117.3,498,116.9,498,116.3
		z M498,110.1c0.2,0,0.4-0.1,0.6-0.3s0.2-0.4,0.2-0.6s-0.1-0.4-0.2-0.6c-0.1-0.2-0.4-0.2-0.6-0.2s-0.4,0.1-0.6,0.2s-0.2,0.4-0.2,0.6
		s0.1,0.4,0.2,0.6C497.5,109.9,497.8,110.1,498,110.1z"/>
	<path d="M517.4,113.9c1.2,0.4,1.8,1.1,1.8,2.2c0,0.6-0.2,1-0.5,1.4s-0.7,0.5-1.2,0.5c-0.6,0-1-0.1-1.3-0.4s-0.4-0.8-0.4-1.5v-1.3
		c-1.6,0.3-3.1,1.4-4.3,3.2h-1.6v-7.2h-0.2c-0.5,0-0.9-0.2-1.2-0.5c-0.3-0.3-0.5-0.7-0.5-1.2s0.2-0.9,0.5-1.2s0.7-0.5,1.2-0.5
		s0.9,0.2,1.2,0.5c0.3,0.3,0.5,0.7,0.5,1.2v7.5c1.1-1.4,2.5-2.3,4.3-2.7v-6.3h1.6v6.3H517.4z M509.7,110.1c0.2,0,0.4-0.1,0.6-0.3
		s0.2-0.4,0.2-0.6s-0.1-0.4-0.2-0.6c-0.1-0.2-0.4-0.2-0.6-0.2s-0.4,0.1-0.6,0.2s-0.2,0.4-0.2,0.6s0.1,0.4,0.2,0.6
		C509.2,109.9,509.5,110.1,509.7,110.1z M518.3,116.2c0-0.3-0.1-0.5-0.3-0.8c-0.2-0.3-0.4-0.5-0.6-0.6v1.7c0,0.3,0,0.5,0.1,0.6
		c0.1,0.1,0.1,0.1,0.3,0.1C518,117.3,518.3,116.8,518.3,116.2z"/>
	<path d="M533.8,116.3c0,0.5-0.2,0.9-0.7,1.3s-1,0.6-1.7,0.6s-1.2-0.2-1.7-0.6s-0.7-0.8-0.7-1.3v-1.9h-0.1c-0.5,0-0.9-0.2-1.2-0.5
		c-0.3-0.3-0.5-0.7-0.5-1.2s0.2-0.9,0.5-1.2s0.7-0.5,1.2-0.5s0.9,0.2,1.2,0.5c0.3,0.3,0.5,0.7,0.5,1.2v3.7c0,0.2,0.1,0.4,0.2,0.5
		c0.1,0.1,0.3,0.2,0.5,0.2s0.4-0.1,0.5-0.2c0.1-0.1,0.2-0.3,0.2-0.5v-5.2c0-0.8-0.2-1.4-0.7-1.8s-1.1-0.6-1.9-0.6
		c-1.2,0-2.1,0.5-2.8,1.5l-0.8-0.7c1-1.3,2.2-1.9,3.7-1.9c1.2,0,2.2,0.3,2.9,1c0.7,0.7,1.2,1.5,1.2,2.6v5H533.8z M528.9,113.4
		c0.2,0,0.4-0.1,0.6-0.3s0.2-0.4,0.2-0.6s-0.1-0.4-0.2-0.6c-0.1-0.2-0.4-0.2-0.6-0.2s-0.4,0.1-0.6,0.2s-0.2,0.4-0.2,0.6
		s0.1,0.4,0.2,0.6C528.4,113.3,528.7,113.4,528.9,113.4z"/>
	<path d="M532.5,101.6c0.5,0,0.9,0.2,1.2,0.5c0.3,0.3,0.5,0.7,0.5,1.2s-0.2,0.9-0.5,1.2s-0.7,0.5-1.2,0.5s-0.9-0.2-1.2-0.5
		c-0.3-0.3-0.5-0.7-0.5-1.2s0.2-0.9,0.5-1.2S532,101.6,532.5,101.6z M532.5,104.2c0.2,0,0.4-0.1,0.6-0.3s0.2-0.4,0.2-0.6
		s-0.1-0.4-0.2-0.6c-0.1-0.2-0.4-0.2-0.6-0.2s-0.4,0.1-0.6,0.2s-0.3,0.4-0.3,0.6s0.1,0.4,0.3,0.6C532.1,104,532.3,104.2,532.5,104.2
		z M542.2,118.1h-1.6v-7c0-1.6-0.7-2.4-2.2-2.4c-1,0-1.8,0.5-2.4,1.5l-0.8-0.7c0.9-1.3,2-1.9,3.3-1.9c1.1,0,2,0.3,2.7,1s1,1.5,1,2.6
		V118.1z"/>
	<path d="M553,118.1h-1.6v-6.8c0-0.8-0.3-1.5-0.8-2s-1.3-0.7-2.1-0.7c-1.3,0-2.2,0.4-2.7,1.2c0.4,0.6,1.1,1,2.2,1.1v0.6
		c-0.4,0-0.7,0.1-1,0.4s-0.4,0.6-0.4,1.1v5.1H545v-5.1c0-0.7,0.3-1.3,0.9-1.6c-0.8-0.3-1.4-0.8-1.8-1.4c0.8-1.6,2.3-2.4,4.4-2.4
		c1.3,0,2.4,0.3,3.2,1c0.8,0.7,1.3,1.6,1.3,2.7V118.1z"/>
	<path d="M554.2,102.6c-0.2,1.2-0.7,2.1-1.6,2.8c-0.9,0.7-2,1-3.3,1c-0.8,0-1.5-0.2-2-0.6s-0.7-0.9-0.7-1.4s0.2-0.9,0.5-1.2
		s0.7-0.5,1.2-0.5s0.9,0.2,1.2,0.5c0.3,0.3,0.5,0.7,0.5,1.2c0,0.4-0.1,0.8-0.4,1.1c0.8,0,1.5-0.3,2.1-0.8c0.6-0.5,0.9-1.2,1-2
		L554.2,102.6L554.2,102.6z M548.4,105.1c0.2,0,0.4-0.1,0.6-0.2s0.2-0.4,0.2-0.6s-0.1-0.4-0.2-0.6c-0.1-0.2-0.4-0.2-0.6-0.2
		s-0.4,0.1-0.6,0.2s-0.2,0.4-0.2,0.6s0.1,0.4,0.2,0.6C547.9,105.1,548,105.1,548.4,105.1z"/>
	<path d="M564.3,118.1h-1.6v-6.8c0-0.8-0.3-1.5-0.9-2c-0.6-0.5-1.3-0.7-2.3-0.7s-1.8,0.3-2.5,0.8s-0.9,1.2-0.9,2s0.3,1.6,0.8,2.5
		s0.9,1.5,1.1,1.9c0.2-0.3,0.4-0.6,0.8-1c0.4-0.4,0.6-0.7,0.7-0.9h-0.1c-0.5,0-0.9-0.2-1.2-0.5c-0.3-0.3-0.5-0.7-0.5-1.2
		s0.2-0.9,0.5-1.2s0.7-0.5,1.2-0.5s0.9,0.2,1.2,0.5c0.3,0.3,0.5,0.7,0.5,1.2c0,0.4-0.1,0.9-0.3,1.3c-0.2,0.4-0.6,1-1.3,1.8
		c-0.7,0.8-1,1.3-1,1.7v0.9h-1.6V117c0-0.7-0.3-1.6-0.9-2.7c-0.6-1.1-0.9-2.1-0.9-3c0-1.1,0.4-2.1,1.3-2.8c0.9-0.7,1.9-1.2,3.3-1.2
		c1.4,0,2.6,0.3,3.5,1c0.9,0.7,1.3,1.6,1.3,2.7v7.1H564.3z M559.4,113.2c0.2,0,0.4-0.1,0.6-0.2s0.3-0.4,0.3-0.6s-0.1-0.4-0.3-0.6
		c-0.2-0.2-0.4-0.3-0.6-0.3s-0.4,0.1-0.6,0.3s-0.2,0.4-0.2,0.6s0.1,0.4,0.2,0.6C558.9,113.2,559.2,113.2,559.4,113.2z"/>
	<path d="M567.9,122.3h-1.3c1.9-3.1,2.9-6.3,2.9-9.4c0-1.2-0.1-2.4-0.4-3.6c-0.2-1-0.5-1.9-0.9-2.8c-0.3-0.6-0.8-1.6-1.6-2.9h1.3
		c1.2,1.6,2.1,3.3,2.7,4.9c0.5,1.4,0.8,2.9,0.8,4.5c0,1.8-0.3,3.5-1,5.1S568.9,121.1,567.9,122.3z"/>
</g>
</svg>
