<?xml version="1.0" encoding="utf-8"?>
<!-- Generator: Adobe Illustrator 23.0.0, SVG Export Plug-In . SVG Version: 6.00 Build 0)  -->
<svg version="1.1" id="图层_1" xmlns="http://www.w3.org/2000/svg" xmlns:xlink="http://www.w3.org/1999/xlink" x="0px" y="0px"
	 viewBox="0 0 750 870" style="enable-background:new 0 0 750 870;" xml:space="preserve">
<style type="text/css">
	.st0{enable-background:new    ;}
	.st1{fill:#D6D6D6;}
	.st2{fill:#0E0E0E;}
	.st3{fill:#0EAFA0;}
	.st4{fill:#CDBB78;}
	.st5{fill:#EC632F;}
</style>
<g id="_2.0_" class="st0">
	<path d="M79.2,331.6c0-0.9-0.3-1.6-0.8-2.2c-0.6-0.5-1.4-0.8-2.4-0.8c-0.6,0-1.4,0.2-2,0.5c-0.8,0.3-1.4,0.8-2,1.6v-2
		c0.5-0.6,1.1-0.9,1.9-1.3c0.6-0.3,1.6-0.5,2.5-0.5c1.6,0,2.7,0.5,3.6,1.3s1.4,1.9,1.4,3.3c0,1.3-0.3,2.4-0.8,3.1
		c-0.6,0.9-1.6,1.9-3,2.8s-2.4,1.7-2.8,2c-0.5,0.5-0.8,0.8-0.9,1.3c-0.2,0.3-0.3,0.8-0.3,1.4h8.3v1.9H71.4v-0.8
		c0-0.9,0.2-1.7,0.5-2.5c0.3-0.6,0.6-1.3,1.3-2c0.6-0.6,1.6-1.4,2.8-2.4c1.3-0.9,2.2-1.7,2.7-2.4C79,333.3,79.2,332.5,79.2,331.6z"
		/>
	<path d="M84.4,342.9c0-0.3,0.2-0.8,0.5-0.9c0.3-0.3,0.6-0.5,0.9-0.5c0.5,0,0.8,0.2,0.9,0.5c0.3,0.3,0.5,0.6,0.5,0.9
		s-0.2,0.6-0.5,0.9s-0.6,0.5-0.9,0.5c-0.5,0-0.8-0.2-0.9-0.5C84.4,343.5,84.4,343.2,84.4,342.9z"/>
	<path d="M89.4,336c0-3,0.5-5.2,1.4-6.7c0.9-1.6,2.4-2.4,4.2-2.4c3.6,0,5.3,2.8,5.3,8.6c0,2.8-0.5,5-1.6,6.4
		c-0.9,1.6-2.4,2.2-4.2,2.2c-1.7,0-3-0.8-3.9-2.2C89.9,340.7,89.4,338.7,89.4,336z M91.4,335.8c0,4.4,1.1,6.7,3.4,6.7
		c2.2,0,3.3-2.2,3.3-6.7c0-4.7-1.1-7.1-3.3-7.1C92.7,328.8,91.4,331.1,91.4,335.8z"/>
	<path d="M102.3,331.4c0-1.4,0.3-2.5,1.1-3.3c0.8-0.8,1.7-1.3,3-1.3s2.2,0.3,2.8,1.1c0.6,0.8,0.9,1.7,0.9,3.1c0,1.3-0.3,2.4-1.1,3.1
		c-0.8,0.8-1.7,1.3-3,1.3c-1.1,0-2-0.3-2.8-1.1C102.6,333.8,102.3,332.7,102.3,331.4z M104,331.3c0,0.9,0.2,1.7,0.6,2.2
		c0.5,0.5,0.9,0.8,1.7,0.8s1.3-0.3,1.7-0.8c0.5-0.5,0.6-1.3,0.6-2.2s-0.2-1.7-0.6-2.2c-0.3-0.5-0.9-0.8-1.6-0.8
		c-0.8,0-1.3,0.3-1.7,0.8C104.1,329.7,104,330.3,104,331.3z M117.5,327.2l-10.8,16.9H105l10.8-16.9H117.5z M112.3,340.1
		c0-1.4,0.3-2.5,1.1-3.3s1.7-1.3,3-1.3s2,0.3,2.8,1.1c0.6,0.8,0.9,1.7,0.9,3.1c0,1.3-0.3,2.4-1.1,3.1c-0.8,0.8-1.7,1.3-3,1.3
		c-1.1,0-2-0.3-2.8-1.1C112.6,342.3,112.3,341.3,112.3,340.1z M114,339.9c0,0.9,0.2,1.6,0.6,2.2c0.5,0.5,0.9,0.8,1.7,0.8
		s1.3-0.3,1.7-0.8c0.5-0.5,0.6-1.3,0.6-2.2c0-0.9-0.2-1.7-0.6-2.2c-0.5-0.5-0.9-0.8-1.6-0.8c-0.8,0-1.3,0.3-1.7,0.8
		C114.2,338.3,114,339,114,339.9z"/>
</g>
<g id="_4.0_" class="st0">
	<path d="M80.1,283.9V295h2.5v1.7h-2.5v3.9h-2v-3.9h-7.8V295c1.4-1.6,2.8-3.3,4.2-5.3s2.5-3.9,3.4-5.8L80.1,283.9L80.1,283.9z
		 M72.6,295.1h5.5v-8c-0.8,1.4-1.6,2.7-2.4,3.9C74.8,292.2,73.7,293.5,72.6,295.1z"/>
	<path d="M84.4,299.6c0-0.3,0.2-0.8,0.5-0.9c0.3-0.3,0.6-0.5,0.9-0.5c0.5,0,0.8,0.2,0.9,0.5c0.3,0.3,0.5,0.6,0.5,0.9
		s-0.2,0.6-0.5,0.9s-0.6,0.5-0.9,0.5c-0.5,0-0.8-0.2-0.9-0.5C84.4,300.2,84.4,299.9,84.4,299.6z"/>
	<path d="M89.4,292.7c0-3,0.5-5.2,1.4-6.7c0.9-1.6,2.4-2.4,4.2-2.4c3.6,0,5.3,2.8,5.3,8.6c0,2.8-0.5,5-1.6,6.4
		c-0.9,1.6-2.4,2.2-4.2,2.2c-1.7,0-3-0.8-3.9-2.2C89.9,297.4,89.4,295.4,89.4,292.7z M91.4,292.6c0,4.4,1.1,6.7,3.4,6.7
		c2.2,0,3.3-2.2,3.3-6.7c0-4.7-1.1-7.1-3.3-7.1C92.7,285.5,91.4,287.9,91.4,292.6z"/>
	<path d="M102.3,288.2c0-1.4,0.3-2.5,1.1-3.3c0.8-0.8,1.7-1.3,3-1.3s2.2,0.3,2.8,1.1c0.6,0.8,0.9,1.7,0.9,3.1c0,1.3-0.3,2.4-1.1,3.1
		c-0.8,0.8-1.7,1.3-3,1.3c-1.1,0-2-0.3-2.8-1.1C102.6,290.5,102.3,289.4,102.3,288.2z M104,288c0,0.9,0.2,1.7,0.6,2.2
		c0.5,0.5,0.9,0.8,1.7,0.8s1.3-0.3,1.7-0.8c0.5-0.5,0.6-1.3,0.6-2.2c0-0.9-0.2-1.7-0.6-2.2c-0.3-0.5-0.9-0.8-1.6-0.8
		c-0.8,0-1.3,0.3-1.7,0.8C104.1,286.4,104,287.1,104,288z M117.5,283.9l-10.8,16.9H105l10.8-16.9H117.5z M112.3,296.8
		c0-1.4,0.3-2.5,1.1-3.3s1.7-1.3,3-1.3s2,0.3,2.8,1.1c0.6,0.8,0.9,1.7,0.9,3.1c0,1.3-0.3,2.4-1.1,3.1c-0.8,0.8-1.7,1.3-3,1.3
		c-1.1,0-2-0.3-2.8-1.1C112.6,299,112.3,298,112.3,296.8z M114,296.6c0,0.9,0.2,1.6,0.6,2.2c0.5,0.5,0.9,0.8,1.7,0.8
		s1.3-0.3,1.7-0.8c0.5-0.5,0.6-1.3,0.6-2.2c0-0.9-0.2-1.7-0.6-2.2c-0.5-0.5-0.9-0.8-1.6-0.8c-0.8,0-1.3,0.3-1.7,0.8
		C114.2,295.1,114,295.7,114,296.6z"/>
</g>
<g id="_6.0_" class="st0">
	<path d="M81.1,238.8c-0.9-0.5-1.7-0.6-2.7-0.6c-1.4,0-2.7,0.6-3.4,1.9c-0.9,1.3-1.3,3-1.4,5.2l0,0c0.8-1.6,2-2.4,3.8-2.4
		c1.4,0,2.7,0.5,3.4,1.4c0.8,0.9,1.3,2.2,1.3,3.8s-0.5,3-1.6,4.1c-0.9,1.1-2.2,1.6-3.8,1.6c-1.7,0-3-0.6-4.1-2
		c-0.9-1.3-1.4-3.3-1.4-5.6c0-3,0.6-5.3,1.9-7.1c1.3-1.7,3-2.7,5-2.7c1.3,0,2.2,0.2,2.8,0.5L81.1,238.8L81.1,238.8z M73.6,247.9
		c0,1.1,0.3,2,0.9,2.8s1.4,1.3,2.4,1.3s1.7-0.3,2.2-0.9c0.6-0.6,0.9-1.6,0.9-2.7s-0.3-2-0.8-2.7c-0.5-0.6-1.3-0.9-2.4-0.9
		c-0.9,0-1.7,0.3-2.4,0.9C73.9,246.3,73.6,247.1,73.6,247.9z"/>
	<path d="M84.4,252.3c0-0.3,0.2-0.8,0.5-0.9c0.3-0.3,0.6-0.5,0.9-0.5c0.5,0,0.8,0.2,0.9,0.5c0.3,0.3,0.5,0.6,0.5,0.9
		c0,0.3-0.2,0.6-0.5,0.9c-0.3,0.3-0.6,0.5-0.9,0.5c-0.5,0-0.8-0.2-0.9-0.5C84.4,252.9,84.4,252.6,84.4,252.3z"/>
	<path d="M89.4,245.4c0-3,0.5-5.2,1.4-6.7s2.4-2.4,4.2-2.4c3.6,0,5.3,2.8,5.3,8.6c0,2.8-0.5,5-1.6,6.4c-0.9,1.6-2.4,2.2-4.2,2.2
		c-1.7,0-3-0.8-3.9-2.2C89.9,250.1,89.4,248,89.4,245.4z M91.4,245.2c0,4.4,1.1,6.7,3.4,6.7c2.2,0,3.3-2.2,3.3-6.7
		c0-4.7-1.1-7.1-3.3-7.1C92.7,238.1,91.4,240.5,91.4,245.2z"/>
	<path d="M102.3,240.8c0-1.4,0.3-2.5,1.1-3.3s1.7-1.3,3-1.3s2.2,0.3,2.8,1.1c0.6,0.8,0.9,1.7,0.9,3.1c0,1.3-0.3,2.4-1.1,3.1
		c-0.8,0.8-1.7,1.3-3,1.3c-1.1,0-2-0.3-2.8-1.1C102.6,243.2,102.3,242.1,102.3,240.8z M104,240.8c0,0.9,0.2,1.7,0.6,2.2
		c0.5,0.5,0.9,0.8,1.7,0.8s1.3-0.3,1.7-0.8s0.6-1.3,0.6-2.2s-0.2-1.7-0.6-2.2c-0.3-0.5-0.9-0.8-1.6-0.8c-0.8,0-1.3,0.3-1.7,0.8
		C104.1,239.1,104,239.9,104,240.8z M117.5,236.6l-10.8,16.9H105l10.8-16.9H117.5z M112.3,249.4c0-1.4,0.3-2.5,1.1-3.3
		c0.8-0.8,1.7-1.3,3-1.3s2,0.3,2.8,1.1c0.6,0.8,0.9,1.7,0.9,3.1c0,1.3-0.3,2.4-1.1,3.1c-0.8,0.8-1.7,1.3-3,1.3c-1.1,0-2-0.3-2.8-1.1
		C112.6,251.6,112.3,250.7,112.3,249.4z M114,249.3c0,0.9,0.2,1.6,0.6,2.2c0.5,0.5,0.9,0.8,1.7,0.8s1.3-0.3,1.7-0.8
		c0.5-0.5,0.6-1.3,0.6-2.2s-0.2-1.7-0.6-2.2c-0.5-0.5-0.9-0.8-1.6-0.8c-0.8,0-1.3,0.3-1.7,0.8C114.2,247.7,114,248.3,114,249.3z"/>
</g>
<g id="_8.0_" class="st0">
	<path d="M71,197.4c0-0.9,0.3-1.9,0.9-2.7s1.3-1.4,2.2-1.7c-0.8-0.5-1.3-0.9-1.7-1.6c-0.5-0.6-0.6-1.4-0.6-2c0-0.8,0.2-1.6,0.6-2.2
		c0.5-0.6,0.9-1.1,1.7-1.6c0.8-0.3,1.6-0.6,2.4-0.6c0.9,0,1.7,0.2,2.4,0.6c0.8,0.3,1.3,0.9,1.7,1.6c0.5,0.6,0.6,1.4,0.6,2.2
		s-0.2,1.4-0.6,2c-0.5,0.6-0.9,1.3-1.7,1.6c0.9,0.3,1.7,0.9,2.2,1.7c0.6,0.8,0.8,1.7,0.8,2.7c0,0.9-0.2,1.9-0.6,2.5
		c-0.5,0.8-1.1,1.4-1.9,1.7c-0.8,0.5-1.7,0.6-2.8,0.6c-1.1,0-2-0.2-2.8-0.6s-1.4-0.9-1.9-1.7C71.4,199.1,71,198.3,71,197.4z
		 M73.2,197.2c0,0.9,0.3,1.7,0.9,2.4s1.4,0.9,2.5,0.9c0.9,0,1.9-0.3,2.5-0.9s0.9-1.4,0.9-2.4c0-0.9-0.3-1.7-0.9-2.4
		c-0.6-0.6-1.4-0.9-2.4-0.9s-1.7,0.3-2.4,0.9C73.6,195.5,73.2,196.3,73.2,197.2z M73.7,189.4c0,0.8,0.3,1.4,0.8,1.9s1.3,0.8,1.9,0.8
		c0.8,0,1.4-0.3,2-0.8s0.8-1.3,0.8-1.9c0-0.8-0.3-1.4-0.8-1.9s-1.3-0.8-2-0.8s-1.4,0.3-2,0.8C74,188,73.7,188.7,73.7,189.4z"/>
	<path d="M84.4,201c0-0.3,0.2-0.8,0.5-0.9c0.3-0.3,0.6-0.5,0.9-0.5c0.5,0,0.8,0.2,0.9,0.5c0.3,0.3,0.5,0.6,0.5,0.9
		c0,0.3-0.2,0.6-0.5,0.9c-0.3,0.3-0.6,0.5-0.9,0.5c-0.5,0-0.8-0.2-0.9-0.5C84.4,201.6,84.4,201.3,84.4,201z"/>
	<path d="M89.4,193.9c0-3,0.5-5.2,1.4-6.7s2.4-2.4,4.2-2.4c3.6,0,5.3,2.8,5.3,8.6c0,2.8-0.5,5-1.6,6.4c-0.9,1.6-2.4,2.2-4.2,2.2
		c-1.7,0-3-0.8-3.9-2.2C89.9,198.8,89.4,196.7,89.4,193.9z M91.4,193.9c0,4.4,1.1,6.7,3.4,6.7c2.2,0,3.3-2.2,3.3-6.7
		c0-4.7-1.1-7.1-3.3-7.1C92.7,186.7,91.4,189.1,91.4,193.9z"/>
	<path d="M102.3,189.5c0-1.4,0.3-2.5,1.1-3.3c0.8-0.8,1.7-1.3,3-1.3s2.2,0.3,2.8,1.1c0.6,0.8,0.9,1.7,0.9,3.1c0,1.3-0.3,2.4-1.1,3.1
		c-0.8,0.8-1.7,1.3-3,1.3c-1.1,0-2-0.3-2.8-1.1C102.6,191.7,102.3,190.8,102.3,189.5z M104,189.4c0,0.9,0.2,1.7,0.6,2.2
		c0.5,0.5,0.9,0.8,1.7,0.8s1.3-0.3,1.7-0.8s0.6-1.3,0.6-2.2s-0.2-1.7-0.6-2.2c-0.3-0.5-0.9-0.8-1.6-0.8c-0.8,0-1.3,0.3-1.7,0.8
		C104.1,187.6,104,188.4,104,189.4z M117.5,185.3l-10.8,16.8H105l10.8-16.9L117.5,185.3L117.5,185.3z M112.3,198.2
		c0-1.4,0.3-2.5,1.1-3.3s1.7-1.3,3-1.3s2,0.3,2.8,1.1c0.6,0.8,0.9,1.7,0.9,3.1c0,1.3-0.3,2.4-1.1,3.1c-0.8,0.8-1.7,1.3-3,1.3
		c-1.1,0-2-0.3-2.8-1.1C112.6,200.3,112.3,199.4,112.3,198.2z M114,198c0,0.9,0.2,1.6,0.6,2.2c0.5,0.5,0.9,0.8,1.7,0.8
		s1.3-0.3,1.7-0.8c0.5-0.5,0.6-1.3,0.6-2.2s-0.2-1.7-0.6-2.2c-0.5-0.5-0.9-0.8-1.6-0.8c-0.8,0-1.3,0.3-1.7,0.8
		C114.2,196.3,114,197.1,114,198z"/>
</g>
<g id="_10.0_" class="st0">
	<path d="M64.6,150.6v-14.3c-0.3,0.3-0.9,0.6-1.7,1.1s-1.6,0.6-2.2,0.9v-2.2c0.9-0.3,1.9-0.6,2.8-1.1s1.7-1.1,2.4-1.6h0.8v17.1h-2.1
		V150.6z"/>
	<path d="M72.5,142.6c0-3,0.5-5.2,1.4-6.7c0.9-1.6,2.4-2.4,4.2-2.4c3.6,0,5.3,2.8,5.3,8.6c0,2.8-0.5,5-1.6,6.4
		c-0.9,1.6-2.4,2.2-4.2,2.2c-1.7,0-3-0.8-3.9-2.2C72.9,147.3,72.5,145.3,72.5,142.6z M74.7,142.5c0,4.4,1.1,6.7,3.4,6.7
		c2.2,0,3.3-2.2,3.3-6.7c0-4.7-1.1-7.1-3.3-7.1C75.8,135.4,74.7,137.8,74.7,142.5z"/>
	<path d="M85.8,149.5c0-0.3,0.2-0.8,0.5-0.9c0.3-0.3,0.6-0.5,0.9-0.5c0.5,0,0.8,0.2,0.9,0.5c0.3,0.3,0.5,0.6,0.5,0.9
		c0,0.3-0.2,0.6-0.5,0.9c-0.3,0.3-0.6,0.5-0.9,0.5c-0.5,0-0.8-0.2-0.9-0.5C85.9,150.3,85.8,150,85.8,149.5z"/>
	<path d="M90.8,142.6c0-3,0.5-5.2,1.4-6.7s2.4-2.4,4.2-2.4c3.6,0,5.3,2.8,5.3,8.6c0,2.8-0.5,5-1.6,6.4c-0.9,1.6-2.4,2.2-4.2,2.2
		c-1.7,0-3-0.8-3.9-2.2C91.3,147.3,90.8,145.3,90.8,142.6z M93,142.5c0,4.4,1.1,6.7,3.4,6.7c2.2,0,3.3-2.2,3.3-6.7
		c0-4.7-1.1-7.1-3.3-7.1C94.1,135.4,93,137.8,93,142.5z"/>
	<path d="M103.8,138.1c0-1.4,0.3-2.5,1.1-3.3c0.8-0.8,1.7-1.3,3-1.3s2.2,0.3,2.8,1.1c0.6,0.8,0.9,1.7,0.9,3.1c0,1.3-0.3,2.4-1.1,3.1
		c-0.8,0.8-1.7,1.3-3,1.3c-1.1,0-2-0.3-2.8-1.1C104.1,140.4,103.8,139.3,103.8,138.1z M105.4,138.1c0,0.9,0.2,1.7,0.6,2.2
		c0.5,0.5,0.9,0.8,1.7,0.8s1.3-0.3,1.7-0.8c0.5-0.5,0.6-1.3,0.6-2.2s-0.2-1.7-0.6-2.2c-0.3-0.5-0.9-0.8-1.6-0.8
		c-0.8,0-1.3,0.3-1.7,0.8C105.7,136.4,105.4,137.2,105.4,138.1z M118.9,133.9l-10.8,16.9h-1.9l10.8-16.9H118.9z M113.9,146.7
		c0-1.4,0.3-2.5,1.1-3.3c0.8-0.8,1.7-1.3,3-1.3s2,0.3,2.8,1.1c0.6,0.8,0.9,1.7,0.9,3.1c0,1.3-0.3,2.4-1.1,3.1
		c-0.8,0.8-1.7,1.3-3,1.3c-1.1,0-2-0.3-2.8-1.1C114.2,149.1,113.9,148,113.9,146.7z M115.4,146.7c0,0.9,0.2,1.6,0.6,2.2
		c0.5,0.5,0.9,0.8,1.7,0.8s1.3-0.3,1.7-0.8s0.6-1.3,0.6-2.2s-0.2-1.7-0.6-2.2c-0.5-0.5-0.9-0.8-1.6-0.8c-0.8,0-1.3,0.3-1.7,0.8
		C115.6,145,115.4,145.8,115.4,146.7z"/>
</g>
<g id="_12.0_" class="st0">
	<path d="M64.6,102.3V88.1c-0.3,0.3-0.9,0.6-1.7,1.1s-1.6,0.6-2.2,0.9v-2c0.9-0.3,1.9-0.6,2.8-1.1s1.7-1.1,2.4-1.6h0.8v17.1
		L64.6,102.3L64.6,102.3z"/>
	<path d="M80.8,90c0-0.9-0.3-1.6-0.8-2.2c-0.6-0.5-1.4-0.8-2.4-0.8c-0.6,0-1.4,0.2-2,0.5c-0.8,0.3-1.4,0.8-2,1.6v-2
		c0.5-0.6,1.1-0.9,1.9-1.3c0.6-0.3,1.6-0.5,2.5-0.5c1.6,0,2.7,0.5,3.6,1.3s1.4,1.9,1.4,3.3c0,1.3-0.3,2.4-0.8,3.1
		c-0.6,0.9-1.6,1.9-3,2.8s-2.4,1.7-2.8,2c-0.5,0.5-0.8,0.8-0.9,1.3c-0.2,0.3-0.3,0.8-0.3,1.4h8.3v1.9H72.8v-0.8
		c0-0.9,0.2-1.7,0.5-2.5c0.3-0.6,0.6-1.3,1.3-2c0.6-0.6,1.6-1.4,2.8-2.4c1.3-0.9,2.2-1.7,2.7-2.4C80.5,91.7,80.8,90.9,80.8,90z"/>
	<path d="M85.8,101.2c0-0.3,0.2-0.8,0.5-0.9c0.3-0.3,0.6-0.5,0.9-0.5c0.5,0,0.8,0.2,0.9,0.5c0.3,0.3,0.5,0.6,0.5,0.9
		s-0.2,0.6-0.5,0.9s-0.6,0.5-0.9,0.5c-0.5,0-0.8-0.2-0.9-0.5C85.9,101.9,85.8,101.6,85.8,101.2z"/>
	<path d="M90.8,94.3c0-3,0.5-5.2,1.4-6.7s2.4-2.4,4.2-2.4c3.6,0,5.3,2.8,5.3,8.6c0,2.8-0.5,5-1.6,6.4c-0.9,1.6-2.4,2.2-4.2,2.2
		c-1.7,0-3-0.8-3.9-2.2C91.3,99,90.8,97,90.8,94.3z M93,94.2c0,4.4,1.1,6.7,3.4,6.7c2.2,0,3.3-2.2,3.3-6.7c0-4.7-1.1-7.1-3.3-7.1
		C94.1,87.1,93,89.5,93,94.2z"/>
	<path d="M103.8,89.8c0-1.4,0.3-2.5,1.1-3.3s1.7-1.3,3-1.3s2.2,0.3,2.8,1.1c0.6,0.8,0.9,1.7,0.9,3.1c0,1.3-0.3,2.4-1.1,3.1
		s-1.7,1.3-3,1.3c-1.1,0-2-0.3-2.8-1.1C104.1,92.1,103.8,91,103.8,89.8z M105.4,89.8c0,0.9,0.2,1.7,0.6,2.2c0.5,0.5,0.9,0.8,1.7,0.8
		s1.3-0.3,1.7-0.8s0.6-1.3,0.6-2.2c0-0.9-0.2-1.7-0.6-2.2c-0.3-0.5-0.9-0.8-1.6-0.8c-0.8,0-1.3,0.3-1.7,0.8
		C105.7,88.1,105.4,88.7,105.4,89.8z M118.9,85.6l-10.8,16.9h-1.9L117,85.6H118.9z M113.9,98.4c0-1.4,0.3-2.5,1.1-3.3s1.7-1.3,3-1.3
		s2,0.3,2.8,1.1c0.6,0.8,0.9,1.7,0.9,3.1c0,1.3-0.3,2.4-1.1,3.1s-1.7,1.3-3,1.3c-1.1,0-2-0.3-2.8-1.1
		C114.2,100.6,113.9,99.7,113.9,98.4z M115.4,98.3c0,0.9,0.2,1.6,0.6,2.2c0.5,0.5,0.9,0.8,1.7,0.8s1.3-0.3,1.7-0.8s0.6-1.3,0.6-2.2
		c0-0.9-0.2-1.7-0.6-2.2c-0.5-0.5-0.9-0.8-1.6-0.8c-0.8,0-1.3,0.3-1.7,0.8C115.6,96.7,115.4,97.3,115.4,98.3z"/>
</g>
<g id="线">
	<rect id="矩形_863_拷贝_2" x="132" y="342.9" class="st1" width="213.4" height="2"/>
	<rect id="矩形_863_拷贝_3" x="132" y="291.5" class="st1" width="213.4" height="2"/>
	<rect id="矩形_863_拷贝_4" x="132" y="240.2" class="st1" width="213.4" height="2"/>
	<rect id="矩形_863_拷贝_5" x="132" y="189.8" class="st1" width="213.4" height="2"/>
	<rect id="矩形_863_拷贝_5-2" x="132" y="138.6" class="st1" width="213.4" height="2"/>
	<rect id="矩形_863_拷贝_5-3" x="132" y="87.1" class="st1" width="213.4" height="2"/>
	<rect id="矩形_863" x="132" y="84.2" class="st2" width="2" height="314.1"/>
</g>
<rect id="矩形_864" x="163.3" y="138.6" class="st3" width="46.3" height="257.8"/>
<rect id="矩形_864_拷贝" x="209.5" y="240.2" class="st4" width="46.3" height="156"/>
<rect id="矩形_864_拷贝_2" x="255.8" y="326.7" class="st5" width="46.3" height="69.5"/>
<rect id="矩形_863_拷贝" x="132" y="396.2" class="st2" width="213.4" height="2"/>
<g id="_2">
	<g id="_2.0_2" class="st0">
		<path d="M389.7,332c0-0.9-0.3-1.6-0.8-2.2c-0.6-0.5-1.4-0.8-2.3-0.8c-0.6,0-1.4,0.2-2,0.5c-0.8,0.3-1.4,0.8-2,1.6v-2
			c0.5-0.6,1.1-0.9,1.9-1.3c0.6-0.3,1.6-0.5,2.5-0.5c1.6,0,2.7,0.5,3.6,1.3s1.4,1.9,1.4,3.3c0,1.3-0.3,2.3-0.8,3.1
			c-0.6,0.9-1.6,1.9-3,2.8s-2.3,1.7-2.8,2c-0.5,0.5-0.8,0.8-0.9,1.3c-0.2,0.3-0.3,0.8-0.3,1.4h8.3v1.9H382v-0.8
			c0-0.9,0.2-1.7,0.5-2.5c0.3-0.6,0.6-1.3,1.3-2c0.6-0.6,1.6-1.4,2.8-2.3c1.3-0.9,2.2-1.7,2.7-2.3
			C389.6,333.7,389.7,332.9,389.7,332z"/>
		<path d="M394.9,343.2c0-0.3,0.2-0.8,0.5-0.9c0.3-0.3,0.6-0.5,0.9-0.5c0.5,0,0.8,0.2,0.9,0.5c0.3,0.3,0.5,0.6,0.5,0.9
			s-0.2,0.6-0.5,0.9s-0.6,0.5-0.9,0.5c-0.5,0-0.8-0.2-0.9-0.5C395.1,343.9,394.9,343.5,394.9,343.2z"/>
		<path d="M399.9,336.3c0-3,0.5-5.2,1.4-6.7c0.9-1.6,2.3-2.3,4.2-2.3c3.6,0,5.3,2.8,5.3,8.6c0,2.8-0.5,5-1.6,6.4
			c-0.9,1.6-2.3,2.2-4.2,2.2c-1.7,0-3-0.8-3.9-2.2C400.4,341,399.9,339,399.9,336.3z M402,336.2c0,4.4,1.1,6.7,3.4,6.7
			c2.2,0,3.3-2.2,3.3-6.7c0-4.7-1.1-7-3.3-7C403.2,329.1,402,331.5,402,336.2z"/>
		<path d="M412.8,331.8c0-1.4,0.3-2.5,1.1-3.3c0.8-0.8,1.7-1.3,3-1.3s2.2,0.3,2.8,1.1s0.9,1.7,0.9,3.1c0,1.3-0.3,2.3-1.1,3.1
			c-0.8,0.8-1.7,1.3-3,1.3c-1.1,0-2-0.3-2.8-1.1C413.2,334.1,412.8,333,412.8,331.8z M414.5,331.6c0,0.9,0.2,1.7,0.6,2.2
			c0.5,0.5,0.9,0.8,1.7,0.8c0.8,0,1.3-0.3,1.7-0.8s0.6-1.3,0.6-2.2c0-0.9-0.2-1.7-0.6-2.2c-0.3-0.5-0.9-0.8-1.6-0.8
			c-0.8,0-1.3,0.3-1.7,0.8C414.6,330.1,414.5,330.7,414.5,331.6z M428,327.6l-10.8,16.9h-1.9l10.8-16.9H428z M422.8,340.4
			c0-1.4,0.3-2.5,1.1-3.3c0.8-0.8,1.7-1.3,3-1.3s2,0.3,2.8,1.1c0.6,0.8,0.9,1.7,0.9,3.1c0,1.3-0.3,2.3-1.1,3.1
			c-0.8,0.8-1.7,1.3-3,1.3c-1.1,0-2-0.3-2.8-1.1C423.3,342.6,422.8,341.7,422.8,340.4z M424.5,340.3c0,0.9,0.2,1.6,0.6,2.2
			c0.5,0.5,0.9,0.8,1.7,0.8c0.8,0,1.3-0.3,1.7-0.8s0.6-1.3,0.6-2.2c0-0.9-0.2-1.7-0.6-2.2c-0.5-0.5-0.9-0.8-1.6-0.8
			c-0.8,0-1.3,0.3-1.7,0.8C424.7,338.7,424.5,339.3,424.5,340.3z"/>
	</g>
	<g id="_4.0_2" class="st0">
		<path d="M390.7,284.3v11.1h2.5v1.7h-2.5v3.9h-2v-3.9h-7.8v-1.7c1.4-1.6,2.8-3.3,4.2-5.3c1.4-2,2.5-3.9,3.4-5.8L390.7,284.3
			L390.7,284.3z M383.2,295.5h5.5v-8c-0.8,1.4-1.6,2.7-2.3,3.9C385.4,292.6,384.3,293.9,383.2,295.5z"/>
		<path d="M394.9,300c0-0.3,0.2-0.8,0.5-0.9c0.3-0.3,0.6-0.5,0.9-0.5c0.5,0,0.8,0.2,0.9,0.5c0.3,0.3,0.5,0.6,0.5,0.9
			s-0.2,0.6-0.5,0.9s-0.6,0.5-0.9,0.5c-0.5,0-0.8-0.2-0.9-0.5C395.1,300.6,394.9,300.3,394.9,300z"/>
		<path d="M399.9,293.1c0-3,0.5-5.2,1.4-6.7c0.9-1.6,2.3-2.3,4.2-2.3c3.6,0,5.3,2.8,5.3,8.6c0,2.8-0.5,5-1.6,6.4
			c-0.9,1.6-2.3,2.2-4.2,2.2c-1.7,0-3-0.8-3.9-2.2C400.4,297.8,399.9,295.8,399.9,293.1z M402,293c0,4.4,1.1,6.7,3.4,6.7
			c2.2,0,3.3-2.2,3.3-6.7c0-4.7-1.1-7-3.3-7C403.2,285.9,402,288.3,402,293z"/>
		<path d="M412.8,288.6c0-1.4,0.3-2.5,1.1-3.3c0.8-0.8,1.7-1.3,3-1.3s2.2,0.3,2.8,1.1c0.6,0.8,0.9,1.7,0.9,3.1
			c0,1.3-0.3,2.3-1.1,3.1c-0.8,0.8-1.7,1.3-3,1.3c-1.1,0-2-0.3-2.8-1.1C413.2,290.9,412.8,289.8,412.8,288.6z M414.5,288.4
			c0,0.9,0.2,1.7,0.6,2.2c0.5,0.5,0.9,0.8,1.7,0.8c0.8,0,1.3-0.3,1.7-0.8s0.6-1.3,0.6-2.2c0-0.9-0.2-1.7-0.6-2.2
			c-0.3-0.5-0.9-0.8-1.6-0.8c-0.8,0-1.3,0.3-1.7,0.8C414.6,286.8,414.5,287.5,414.5,288.4z M428,284.3l-10.8,16.9h-1.9l10.8-16.9
			H428z M422.8,297.2c0-1.4,0.3-2.5,1.1-3.3c0.8-0.8,1.7-1.3,3-1.3s2,0.3,2.8,1.1c0.6,0.8,0.9,1.7,0.9,3.1c0,1.3-0.3,2.3-1.1,3.1
			c-0.8,0.8-1.7,1.3-3,1.3c-1.1,0-2-0.3-2.8-1.1C423.3,299.4,422.8,298.4,422.8,297.2z M424.5,297c0,0.9,0.2,1.6,0.6,2.2
			c0.5,0.5,0.9,0.8,1.7,0.8c0.8,0,1.3-0.3,1.7-0.8s0.6-1.3,0.6-2.2c0-0.9-0.2-1.7-0.6-2.2c-0.5-0.5-0.9-0.8-1.6-0.8
			c-0.8,0-1.3,0.3-1.7,0.8C424.7,295.5,424.5,296.1,424.5,297z"/>
	</g>
	<g id="_6.0_2" class="st0">
		<path d="M391.6,239.2c-0.9-0.5-1.7-0.6-2.7-0.6c-1.4,0-2.7,0.6-3.4,1.9c-0.9,1.3-1.3,3-1.4,5.2l0,0c0.8-1.6,2-2.3,3.8-2.3
			c1.4,0,2.7,0.5,3.4,1.4c0.8,0.9,1.3,2.2,1.3,3.8s-0.5,3-1.6,4.1c-0.9,1.1-2.2,1.6-3.8,1.6c-1.7,0-3-0.6-4.1-2
			c-0.9-1.3-1.4-3.3-1.4-5.6c0-3,0.6-5.3,1.9-7s3-2.7,5-2.7c1.3,0,2.2,0.2,2.8,0.5L391.6,239.2L391.6,239.2z M384.1,248.3
			c0,1.1,0.3,2,0.9,2.8s1.4,1.3,2.3,1.3s1.7-0.3,2.2-0.9c0.6-0.6,0.9-1.6,0.9-2.7s-0.3-2-0.8-2.7c-0.5-0.6-1.3-0.9-2.3-0.9
			c-0.9,0-1.7,0.3-2.3,0.9C384.4,246.8,384.1,247.5,384.1,248.3z"/>
		<path d="M394.9,252.7c0-0.3,0.2-0.8,0.5-0.9c0.3-0.3,0.6-0.5,0.9-0.5c0.5,0,0.8,0.2,0.9,0.5c0.3,0.3,0.5,0.6,0.5,0.9
			s-0.2,0.6-0.5,0.9c-0.3,0.3-0.6,0.5-0.9,0.5c-0.5,0-0.8-0.2-0.9-0.5C395.1,253.3,394.9,253,394.9,252.7z"/>
		<path d="M399.9,245.8c0-3,0.5-5.2,1.4-6.7c0.9-1.6,2.3-2.3,4.2-2.3c3.6,0,5.3,2.8,5.3,8.6c0,2.8-0.5,5-1.6,6.4
			c-0.9,1.6-2.3,2.2-4.2,2.2c-1.7,0-3-0.8-3.9-2.2C400.4,250.5,399.9,248.5,399.9,245.8z M402,245.7c0,4.4,1.1,6.7,3.4,6.7
			c2.2,0,3.3-2.2,3.3-6.7c0-4.7-1.1-7-3.3-7C403.2,238.6,402,241,402,245.7z"/>
		<path d="M412.8,241.3c0-1.4,0.3-2.5,1.1-3.3c0.8-0.8,1.7-1.3,3-1.3s2.2,0.3,2.8,1.1s0.9,1.7,0.9,3.1c0,1.3-0.3,2.3-1.1,3.1
			c-0.8,0.8-1.7,1.3-3,1.3c-1.1,0-2-0.3-2.8-1.1C413.2,243.6,412.8,242.5,412.8,241.3z M414.5,241.3c0,0.9,0.2,1.7,0.6,2.2
			c0.5,0.5,0.9,0.8,1.7,0.8c0.8,0,1.3-0.3,1.7-0.8c0.5-0.5,0.6-1.3,0.6-2.2s-0.2-1.7-0.6-2.2c-0.3-0.5-0.9-0.8-1.6-0.8
			c-0.8,0-1.3,0.3-1.7,0.8C414.6,239.5,414.5,240.3,414.5,241.3z M428,237l-10.8,17h-1.9l10.8-16.9h1.9V237z M422.8,249.9
			c0-1.4,0.3-2.5,1.1-3.3c0.8-0.8,1.7-1.3,3-1.3s2,0.3,2.8,1.1c0.6,0.8,0.9,1.7,0.9,3.1c0,1.3-0.3,2.3-1.1,3.1
			c-0.8,0.8-1.7,1.3-3,1.3c-1.1,0-2-0.3-2.8-1.1C423.3,252.1,422.8,251.1,422.8,249.9z M424.5,249.7c0,0.9,0.2,1.6,0.6,2.2
			c0.5,0.5,0.9,0.8,1.7,0.8c0.8,0,1.3-0.3,1.7-0.8c0.5-0.5,0.6-1.3,0.6-2.2s-0.2-1.7-0.6-2.2c-0.5-0.5-0.9-0.8-1.6-0.8
			c-0.8,0-1.3,0.3-1.7,0.8C424.7,248.2,424.5,248.8,424.5,249.7z"/>
	</g>
	<g id="_8.0_2" class="st0">
		<path d="M381.6,197.9c0-0.9,0.3-1.9,0.9-2.7s1.3-1.4,2.2-1.7c-0.8-0.5-1.3-0.9-1.7-1.6c-0.5-0.6-0.6-1.4-0.6-2
			c0-0.8,0.2-1.6,0.6-2.2c0.5-0.6,0.9-1.1,1.7-1.6c0.8-0.5,1.6-0.6,2.3-0.6c0.9,0,1.7,0.2,2.3,0.6c0.8,0.3,1.3,0.9,1.7,1.6
			s0.6,1.4,0.6,2.2s-0.2,1.4-0.6,2c-0.5,0.6-0.9,1.3-1.7,1.6c0.9,0.3,1.7,0.9,2.2,1.7c0.6,0.8,0.8,1.7,0.8,2.7
			c0,0.9-0.2,1.9-0.6,2.5c-0.5,0.8-1.1,1.4-1.9,1.7c-0.8,0.5-1.7,0.6-2.8,0.6s-2-0.2-2.8-0.6c-0.8-0.5-1.4-0.9-1.9-1.7
			S381.6,198.8,381.6,197.9z M383.8,197.7c0,0.9,0.3,1.7,0.9,2.3s1.4,0.9,2.5,0.9c0.9,0,1.9-0.3,2.5-0.9c0.6-0.6,0.9-1.4,0.9-2.3
			s-0.3-1.7-0.9-2.3s-1.4-0.9-2.3-0.9s-1.7,0.3-2.3,0.9C384.1,196,383.8,196.8,383.8,197.7z M384.4,189.9c0,0.8,0.3,1.4,0.8,1.9
			s1.3,0.8,1.9,0.8c0.8,0,1.4-0.3,2-0.8s0.8-1.3,0.8-1.9c0-0.8-0.3-1.4-0.8-1.9s-1.3-0.8-2-0.8c-0.8,0-1.4,0.3-2,0.8
			C384.6,188.5,384.4,189.3,384.4,189.9z"/>
		<path d="M394.9,201.5c0-0.3,0.2-0.8,0.5-0.9c0.3-0.3,0.6-0.5,0.9-0.5c0.5,0,0.8,0.2,0.9,0.5c0.3,0.3,0.5,0.6,0.5,0.9
			s-0.2,0.6-0.5,0.9c-0.3,0.3-0.6,0.5-0.9,0.5c-0.5,0-0.8-0.2-0.9-0.5C395.1,202.1,394.9,201.8,394.9,201.5z"/>
		<path d="M399.9,194.4c0-3,0.5-5.2,1.4-6.7c0.9-1.6,2.3-2.3,4.2-2.3c3.6,0,5.3,2.8,5.3,8.6c0,2.8-0.5,5-1.6,6.4
			c-0.9,1.6-2.3,2.2-4.2,2.2c-1.7,0-3-0.8-3.9-2.2C400.4,199.3,399.9,197.3,399.9,194.4z M402,194.4c0,4.4,1.1,6.7,3.4,6.7
			c2.2,0,3.3-2.2,3.3-6.7c0-4.7-1.1-7-3.3-7C403.2,187.2,402,189.6,402,194.4z"/>
		<path d="M412.8,190.1c0-1.4,0.3-2.5,1.1-3.3c0.8-0.8,1.7-1.3,3-1.3s2.2,0.3,2.8,1.1s0.9,1.7,0.9,3.1c0,1.3-0.3,2.3-1.1,3.1
			c-0.8,0.8-1.7,1.3-3,1.3c-1.1,0-2-0.3-2.8-1.1C412.9,192.3,412.8,191.3,412.8,190.1z M414.5,189.9c0,0.9,0.2,1.7,0.6,2.2
			c0.5,0.5,0.9,0.8,1.7,0.8c0.8,0,1.3-0.3,1.7-0.8s0.6-1.3,0.6-2.2s-0.2-1.7-0.6-2.2c-0.3-0.5-0.9-0.8-1.6-0.8
			c-0.8,0-1.3,0.3-1.7,0.8C414.6,188.2,414.5,189,414.5,189.9z M428,185.8l-10.8,16.9h-1.9l10.8-16.9H428z M422.8,198.7
			c0-1.4,0.3-2.5,1.1-3.3c0.8-0.8,1.7-1.3,3-1.3s2,0.3,2.8,1.1c0.6,0.8,0.9,1.7,0.9,3.1c0,1.3-0.3,2.3-1.1,3.1
			c-0.8,0.8-1.7,1.3-3,1.3c-1.1,0-2-0.3-2.8-1.1C423.3,200.9,422.8,199.9,422.8,198.7z M424.5,198.5c0,0.9,0.2,1.6,0.6,2.2
			c0.5,0.5,0.9,0.8,1.7,0.8c0.8,0,1.3-0.3,1.7-0.8s0.6-1.3,0.6-2.2s-0.2-1.7-0.6-2.2c-0.5-0.5-0.9-0.8-1.6-0.8
			c-0.8,0-1.3,0.3-1.7,0.8C424.7,196.8,424.5,197.6,424.5,198.5z"/>
	</g>
	<g id="_10.0_2" class="st0">
		<path d="M375.2,151.2V137c-0.3,0.3-0.9,0.6-1.7,1.1c-0.8,0.5-1.6,0.6-2.2,0.9v-2.2c0.9-0.3,1.9-0.6,2.8-1.1s1.7-1.1,2.3-1.6h0.8
			v17.1H375.2z"/>
		<path d="M383,143.2c0-3,0.5-5.2,1.4-6.7c0.9-1.6,2.3-2.3,4.2-2.3c3.6,0,5.3,2.8,5.3,8.6c0,2.8-0.5,5-1.6,6.4
			c-0.9,1.6-2.3,2.2-4.2,2.2c-1.7,0-3-0.8-3.9-2.2C383.5,147.9,383,145.9,383,143.2z M385.2,143.1c0,4.4,1.1,6.7,3.4,6.7
			c2.2,0,3.3-2.2,3.3-6.7c0-4.7-1.1-7-3.3-7C386.3,136,385.2,138.4,385.2,143.1z"/>
		<path d="M396.3,150.1c0-0.3,0.2-0.8,0.5-0.9c0.3-0.3,0.6-0.5,0.9-0.5c0.5,0,0.8,0.2,0.9,0.5c0.3,0.3,0.5,0.6,0.5,0.9
			s-0.2,0.6-0.5,0.9c-0.3,0.3-0.6,0.5-0.9,0.5c-0.5,0-0.8-0.2-0.9-0.5C396.5,150.9,396.3,150.6,396.3,150.1z"/>
		<path d="M401.3,143.2c0-3,0.5-5.2,1.4-6.7c0.9-1.6,2.3-2.3,4.2-2.3c3.6,0,5.3,2.8,5.3,8.6c0,2.8-0.5,5-1.6,6.4
			c-0.9,1.6-2.3,2.2-4.2,2.2c-1.7,0-3-0.8-3.9-2.2C401.7,147.8,401.3,145.9,401.3,143.2z M403.5,143.1c0,4.4,1.1,6.7,3.4,6.7
			c2.2,0,3.3-2.2,3.3-6.7c0-4.7-1.1-7-3.3-7C404.6,136,403.5,138.4,403.5,143.1z"/>
		<path d="M414.3,138.7c0-1.4,0.3-2.5,1.1-3.3c0.8-0.8,1.7-1.3,3-1.3s2.2,0.3,2.8,1.1s0.9,1.7,0.9,3.1c0,1.3-0.3,2.3-1.1,3.1
			s-1.7,1.3-3,1.3c-1.1,0-2-0.3-2.8-1.1C414.6,141,414.3,139.9,414.3,138.7z M415.9,138.7c0,0.9,0.2,1.7,0.6,2.2
			c0.5,0.5,0.9,0.8,1.7,0.8c0.8,0,1.3-0.3,1.7-0.8c0.5-0.5,0.6-1.3,0.6-2.2s-0.2-1.7-0.6-2.2c-0.3-0.5-0.9-0.8-1.6-0.8
			c-0.8,0-1.3,0.3-1.7,0.8C416.2,137,415.9,137.8,415.9,138.7z M429.4,134.5l-10.8,16.9h-1.7l10.8-16.9
			C427.6,134.5,429.4,134.5,429.4,134.5z M424.4,147.3c0-1.4,0.3-2.5,1.1-3.3c0.8-0.8,1.7-1.3,3-1.3s2,0.3,2.8,1.1
			c0.6,0.8,0.9,1.7,0.9,3.1c0,1.3-0.3,2.3-1.1,3.1c-0.8,0.8-1.7,1.3-3,1.3c-1.1,0-2-0.3-2.8-1.1
			C424.7,149.7,424.4,148.6,424.4,147.3z M425.9,147.3c0,0.9,0.2,1.6,0.6,2.2c0.5,0.5,0.9,0.8,1.7,0.8c0.8,0,1.3-0.3,1.7-0.8
			c0.5-0.5,0.6-1.3,0.6-2.2s-0.2-1.7-0.6-2.2c-0.5-0.5-0.9-0.8-1.6-0.8c-0.8,0-1.3,0.3-1.7,0.8C426.1,145.6,425.9,146.4,425.9,147.3
			z"/>
	</g>
	<g id="_12.0_2" class="st0">
		<path d="M375.2,103V88.7c-0.3,0.3-0.9,0.6-1.7,1.1c-0.8,0.5-1.6,0.6-2.2,0.9v-2c0.9-0.3,1.9-0.6,2.8-1.1s1.7-1.1,2.3-1.6h0.8v17.1
			L375.2,103L375.2,103z"/>
		<path d="M391.3,90.6c0-0.9-0.3-1.6-0.8-2.2c-0.6-0.5-1.4-0.8-2.3-0.8c-0.6,0-1.4,0.2-2,0.5c-0.8,0.3-1.4,0.8-2,1.6v-2
			c0.5-0.6,1.1-0.9,1.9-1.3c0.6-0.3,1.6-0.5,2.5-0.5c1.6,0,2.7,0.5,3.6,1.3s1.4,1.9,1.4,3.3c0,1.3-0.3,2.3-0.8,3.1
			c-0.6,0.9-1.6,1.9-3,2.8s-2.3,1.7-2.8,2s-0.8,0.8-0.9,1.3c-0.2,0.3-0.3,0.8-0.3,1.4h8.3v1.9h-10.5v-0.8c0-0.9,0.2-1.7,0.5-2.5
			c0.3-0.6,0.6-1.3,1.3-2c0.6-0.6,1.6-1.4,2.8-2.3c1.3-0.9,2.2-1.7,2.7-2.3C391,92.3,391.3,91.6,391.3,90.6z"/>
		<path d="M396.3,101.9c0-0.3,0.2-0.8,0.5-0.9c0.3-0.3,0.6-0.5,0.9-0.5c0.5,0,0.8,0.2,0.9,0.5c0.3,0.3,0.5,0.6,0.5,0.9
			s-0.2,0.6-0.5,0.9s-0.6,0.5-0.9,0.5c-0.5,0-0.8-0.2-0.9-0.5C396.5,102.5,396.3,102.2,396.3,101.9z"/>
		<path d="M401.3,95c0-3,0.5-5.2,1.4-6.7c0.9-1.6,2.3-2.3,4.2-2.3c3.6,0,5.3,2.8,5.3,8.6c0,2.8-0.5,5-1.6,6.4
			c-0.9,1.6-2.3,2.2-4.2,2.2c-1.7,0-3-0.8-3.9-2.2C401.7,99.5,401.3,97.7,401.3,95z M403.5,94.8c0,4.4,1.1,6.7,3.4,6.7
			c2.2,0,3.3-2.2,3.3-6.7c0-4.7-1.1-7-3.3-7C404.6,87.8,403.5,90.1,403.5,94.8z"/>
		<path d="M414.3,90.5c0-1.4,0.3-2.5,1.1-3.3c0.8-0.8,1.7-1.3,3-1.3s2.2,0.3,2.8,1.1s0.9,1.7,0.9,3.1c0,1.3-0.3,2.3-1.1,3.1
			s-1.7,1.3-3,1.3c-1.1,0-2-0.3-2.8-1.1C414.6,92.8,414.3,91.7,414.3,90.5z M415.9,90.5c0,0.9,0.2,1.7,0.6,2.2
			c0.5,0.5,0.9,0.8,1.7,0.8c0.8,0,1.3-0.3,1.7-0.8c0.5-0.5,0.6-1.3,0.6-2.2c0-0.9-0.2-1.7-0.6-2.2c-0.3-0.5-0.9-0.8-1.6-0.8
			c-0.8,0-1.3,0.3-1.7,0.8C416.2,88.7,415.9,89.4,415.9,90.5z M429.4,86.2l-10.8,16.9h-1.7l10.8-16.9H429.4z M424.4,99.1
			c0-1.4,0.3-2.5,1.1-3.3c0.8-0.8,1.7-1.3,3-1.3s2,0.3,2.8,1.1c0.6,0.8,0.9,1.7,0.9,3.1c0,1.3-0.3,2.3-1.1,3.1
			c-0.8,0.8-1.7,1.3-3,1.3c-1.1,0-2-0.3-2.8-1.1C424.7,101.3,424.4,100.3,424.4,99.1z M425.9,98.9c0,0.9,0.2,1.6,0.6,2.2
			c0.5,0.5,0.9,0.8,1.7,0.8c0.8,0,1.3-0.3,1.7-0.8c0.5-0.5,0.6-1.3,0.6-2.2c0-0.9-0.2-1.7-0.6-2.2c-0.5-0.5-0.9-0.8-1.6-0.8
			c-0.8,0-1.3,0.3-1.7,0.8C426.1,97.3,425.9,98,425.9,98.9z"/>
	</g>
</g>
<g id="线-2">
	<rect id="矩形_863_拷贝_2-2" x="442.5" y="343.2" class="st1" width="213.3" height="2"/>
	<rect id="矩形_863_拷贝_3-2" x="442.5" y="291.9" class="st1" width="213.3" height="2"/>
	<rect id="矩形_863_拷贝_4-2" x="442.5" y="240.6" class="st1" width="213.3" height="2"/>
	<rect id="矩形_863_拷贝_5-4" x="442.5" y="190.4" class="st1" width="213.3" height="2"/>
	<rect id="矩形_863_拷贝_5-5" x="442.5" y="139.2" class="st1" width="213.3" height="2"/>
	<rect id="矩形_863_拷贝_5-6" x="442.5" y="87.8" class="st1" width="213.3" height="2"/>
	<rect id="矩形_863-2" x="442.5" y="84.8" class="st2" width="2" height="313.7"/>
</g>
<rect id="矩形_864-2" x="473.8" y="253.6" class="st3" width="46.2" height="142.8"/>
<rect id="矩形_864_拷贝-2" x="520.2" y="261.8" class="st4" width="46.2" height="134.7"/>
<rect id="矩形_864_拷贝_2-2" x="566.4" y="305" class="st5" width="46.2" height="91.5"/>
<rect id="矩形_863_拷贝-2" x="442.5" y="396.5" class="st2" width="213.3" height="2"/>
<g id="_3">
	<g id="_2.0_3" class="st0">
		<path d="M97.6,747.2c0-0.9-0.3-1.6-0.8-2.2c-0.6-0.5-1.4-0.8-2.4-0.8c-0.6,0-1.4,0.2-2,0.5c-0.8,0.3-1.4,0.8-2,1.6v-2
			c0.5-0.6,1.1-0.9,1.9-1.3c0.6-0.3,1.6-0.5,2.5-0.5c1.6,0,2.7,0.5,3.6,1.3s1.4,1.9,1.4,3.3c0,1.3-0.3,2.4-0.8,3.1
			c-0.6,0.9-1.6,1.9-3,2.8s-2.4,1.7-2.8,2c-0.5,0.5-0.8,0.8-0.9,1.3c-0.2,0.3-0.3,0.8-0.3,1.4h8.3v1.9H89.8v-0.8
			c0-0.9,0.2-1.7,0.5-2.5c0.3-0.6,0.6-1.3,1.3-2c0.6-0.6,1.6-1.4,2.8-2.4c1.3-0.9,2.2-1.7,2.7-2.4C97.5,748.7,97.6,748,97.6,747.2z"
			/>
		<path d="M102.7,758.3c0-0.3,0.2-0.8,0.5-0.9c0.3-0.3,0.6-0.5,0.9-0.5c0.5,0,0.8,0.2,0.9,0.5c0.3,0.3,0.5,0.6,0.5,0.9
			c0,0.3-0.2,0.6-0.5,0.9c-0.3,0.3-0.6,0.5-0.9,0.5c-0.5,0-0.8-0.2-0.9-0.5C102.8,759.1,102.7,758.8,102.7,758.3z"/>
		<path d="M107.7,751.4c0-3,0.5-5.2,1.4-6.7c0.9-1.6,2.4-2.4,4.2-2.4c3.6,0,5.3,2.8,5.3,8.6c0,2.8-0.5,5-1.6,6.4
			c-0.9,1.6-2.4,2.2-4.2,2.2c-1.7,0-3-0.8-3.9-2.2C108.1,756.3,107.7,754.2,107.7,751.4z M109.9,751.4c0,4.4,1.1,6.7,3.4,6.7
			c2.2,0,3.3-2.2,3.3-6.7c0-4.7-1.1-7.1-3.3-7.1C111.1,744.2,109.9,746.5,109.9,751.4z"/>
		<path d="M120.7,747c0-1.4,0.3-2.5,1.1-3.3c0.8-0.8,1.7-1.3,3-1.3s2.2,0.3,2.8,1.1c0.6,0.8,0.9,1.7,0.9,3.1c0,1.3-0.3,2.4-1.1,3.1
			c-0.8,0.8-1.7,1.3-3,1.3c-1.1,0-2-0.3-2.8-1.1C121,749.2,120.7,748.3,120.7,747z M122.4,746.9c0,0.9,0.2,1.7,0.6,2.2
			c0.5,0.5,0.9,0.8,1.7,0.8c0.8,0,1.3-0.3,1.7-0.8c0.5-0.5,0.6-1.3,0.6-2.2s-0.2-1.7-0.6-2.2c-0.3-0.5-0.9-0.8-1.6-0.8
			c-0.8,0-1.3,0.3-1.7,0.8C122.6,745.1,122.4,745.9,122.4,746.9z M135.9,742.8l-10.8,16.9h-1.9l10.8-16.9H135.9z M130.7,755.6
			c0-1.4,0.3-2.5,1.1-3.3s1.7-1.3,3-1.3s2,0.3,2.8,1.1c0.6,0.8,0.9,1.7,0.9,3.1c0,1.3-0.3,2.4-1.1,3.1s-1.7,1.3-3,1.3
			c-1.1,0-2-0.3-2.8-1.1C131,757.8,130.7,756.7,130.7,755.6z M132.4,755.5c0,0.9,0.2,1.6,0.6,2.2c0.5,0.5,0.9,0.8,1.7,0.8
			s1.3-0.3,1.7-0.8c0.5-0.5,0.6-1.3,0.6-2.2s-0.2-1.7-0.6-2.2c-0.5-0.5-0.9-0.8-1.6-0.8c-0.8,0-1.3,0.3-1.7,0.8
			C132.6,753.8,132.4,754.5,132.4,755.5z"/>
	</g>
	<g id="_4.0_3" class="st0">
		<path d="M98.4,699.5v11.1h2.5v1.7h-2.5v3.9h-2v-3.9h-7.8v-1.7c1.4-1.6,2.8-3.3,4.2-5.3c1.4-2,2.5-3.9,3.4-5.8H98.4L98.4,699.5z
			 M91.1,710.5h5.5v-8c-0.8,1.4-1.6,2.7-2.4,3.9C93.2,707.7,92.1,709.1,91.1,710.5z"/>
		<path d="M102.7,715c0-0.3,0.2-0.8,0.5-0.9c0.3-0.3,0.6-0.5,0.9-0.5c0.5,0,0.8,0.2,0.9,0.5c0.3,0.3,0.5,0.6,0.5,0.9
			c0,0.3-0.2,0.6-0.5,0.9c-0.3,0.3-0.6,0.5-0.9,0.5c-0.5,0-0.8-0.2-0.9-0.5C102.8,715.8,102.7,715.5,102.7,715z"/>
		<path d="M107.7,708.1c0-3,0.5-5.2,1.4-6.7c0.9-1.6,2.4-2.4,4.2-2.4c3.6,0,5.3,2.8,5.3,8.6c0,2.8-0.5,5-1.6,6.4
			c-0.9,1.6-2.4,2.2-4.2,2.2c-1.7,0-3-0.8-3.9-2.2C108.1,713,107.7,711,107.7,708.1z M109.9,708.1c0,4.4,1.1,6.7,3.4,6.7
			c2.2,0,3.3-2.2,3.3-6.7c0-4.7-1.1-7.1-3.3-7.1C111.1,700.9,109.9,703.3,109.9,708.1z"/>
		<path d="M120.7,703.7c0-1.4,0.3-2.5,1.1-3.3c0.8-0.8,1.7-1.3,3-1.3s2.2,0.3,2.8,1.1c0.6,0.8,0.9,1.7,0.9,3.1
			c0,1.3-0.3,2.4-1.1,3.1c-0.8,0.8-1.7,1.3-3,1.3c-1.1,0-2-0.3-2.8-1.1C121,705.9,120.7,705,120.7,703.7z M122.4,703.6
			c0,0.9,0.2,1.7,0.6,2.2s0.9,0.8,1.7,0.8c0.8,0,1.3-0.3,1.7-0.8c0.5-0.5,0.6-1.3,0.6-2.2s-0.2-1.7-0.6-2.2
			c-0.3-0.5-0.9-0.8-1.6-0.8c-0.8,0-1.3,0.3-1.7,0.8C122.6,701.9,122.4,702.7,122.4,703.6z M135.9,699.5l-10.8,16.9h-1.9l10.8-16.9
			H135.9z M130.7,712.4c0-1.4,0.3-2.5,1.1-3.3s1.7-1.3,3-1.3s2,0.3,2.8,1.1c0.6,0.8,0.9,1.7,0.9,3.1c0,1.3-0.3,2.4-1.1,3.1
			s-1.7,1.3-3,1.3c-1.1,0-2-0.3-2.8-1.1C131,714.6,130.7,713.5,130.7,712.4z M132.4,712.2c0,0.9,0.2,1.6,0.6,2.2
			c0.5,0.5,0.9,0.8,1.7,0.8s1.3-0.3,1.7-0.8c0.5-0.5,0.6-1.3,0.6-2.2s-0.2-1.7-0.6-2.2c-0.5-0.5-0.9-0.8-1.6-0.8
			c-0.8,0-1.3,0.3-1.7,0.8C132.6,710.5,132.4,711.3,132.4,712.2z"/>
	</g>
	<g id="_6.0_3" class="st0">
		<path d="M99.5,654.4c-0.9-0.5-1.7-0.6-2.7-0.6c-1.4,0-2.7,0.6-3.4,1.9c-0.9,1.3-1.3,3-1.4,5.2l0,0c0.8-1.6,2-2.4,3.8-2.4
			c1.4,0,2.7,0.5,3.4,1.4c0.9,0.9,1.3,2.2,1.3,3.8s-0.5,3-1.6,4.1c-0.9,1.1-2.2,1.6-3.8,1.6c-1.7,0-3-0.6-4.1-2
			c-0.9-1.3-1.4-3.3-1.4-5.6c0-3,0.6-5.3,1.9-7.1c1.3-1.7,3-2.7,5-2.7c1.3,0,2.2,0.2,2.8,0.5v2h0.2
			C99.5,654.5,99.5,654.4,99.5,654.4z M92,663.5c0,1.1,0.3,2,0.9,2.8s1.4,1.3,2.4,1.3s1.7-0.3,2.2-0.9c0.6-0.6,0.9-1.6,0.9-2.7
			c0-1.1-0.3-2-0.8-2.7c-0.5-0.6-1.3-0.9-2.4-0.9c-0.9,0-1.7,0.3-2.4,0.9C92.3,661.9,92,662.5,92,663.5z"/>
		<path d="M102.7,667.8c0-0.3,0.2-0.8,0.5-0.9c0.3-0.3,0.6-0.5,0.9-0.5c0.5,0,0.8,0.2,0.9,0.5c0.3,0.3,0.5,0.6,0.5,0.9
			c0,0.3-0.2,0.6-0.5,0.9c-0.3,0.3-0.6,0.5-0.9,0.5c-0.5,0-0.8-0.2-0.9-0.5C102.8,668.5,102.7,668.2,102.7,667.8z"/>
		<path d="M107.7,660.9c0-3,0.5-5.2,1.4-6.7c0.9-1.6,2.4-2.4,4.2-2.4c3.6,0,5.3,2.8,5.3,8.6c0,2.8-0.5,5-1.6,6.4
			c-0.9,1.6-2.4,2.2-4.2,2.2c-1.7,0-3-0.8-3.9-2.2C108.1,665.7,107.7,663.6,107.7,660.9z M109.9,660.8c0,4.4,1.1,6.7,3.4,6.7
			c2.2,0,3.3-2.2,3.3-6.7c0-4.7-1.1-7.1-3.3-7.1S109.9,656.1,109.9,660.8z"/>
		<path d="M120.7,656.4c0-1.4,0.3-2.5,1.1-3.3c0.8-0.8,1.7-1.3,3-1.3s2.2,0.3,2.8,1.1c0.6,0.8,0.9,1.7,0.9,3.1
			c0,1.3-0.3,2.4-1.1,3.1s-1.7,1.3-3,1.3c-1.1,0-2-0.3-2.8-1.1C121,658.8,120.7,657.7,120.7,656.4z M122.4,656.2
			c0,0.9,0.2,1.7,0.6,2.2s0.9,0.8,1.7,0.8c0.8,0,1.3-0.3,1.7-0.8c0.5-0.5,0.6-1.3,0.6-2.2s-0.2-1.7-0.6-2.2
			c-0.3-0.5-0.9-0.8-1.6-0.8c-0.8,0-1.3,0.3-1.7,0.8C122.6,654.7,122.4,655.3,122.4,656.2z M135.9,652.2l-10.8,16.9h-1.9l10.8-16.9
			H135.9z M130.7,665c0-1.4,0.3-2.5,1.1-3.3s1.7-1.3,3-1.3s2,0.3,2.8,1.1c0.6,0.8,0.9,1.7,0.9,3.1c0,1.3-0.3,2.4-1.1,3.1
			s-1.7,1.3-3,1.3c-1.1,0-2-0.3-2.8-1.1C131,667.2,130.7,666.3,130.7,665z M132.4,664.9c0,0.9,0.2,1.6,0.6,2.2
			c0.5,0.5,0.9,0.8,1.7,0.8s1.3-0.3,1.7-0.8c0.5-0.5,0.6-1.3,0.6-2.2s-0.2-1.7-0.6-2.2c-0.5-0.5-0.9-0.8-1.6-0.8
			c-0.8,0-1.3,0.3-1.7,0.8C132.6,663.3,132.4,663.9,132.4,664.9z"/>
	</g>
	<g id="_8.0_3" class="st0">
		<path d="M89.5,613c0-0.9,0.3-1.9,0.9-2.7s1.3-1.4,2.2-1.7c-0.8-0.5-1.3-0.9-1.7-1.6c-0.5-0.6-0.6-1.4-0.6-2c0-0.8,0.2-1.6,0.6-2.2
			c0.5-0.6,0.9-1.1,1.7-1.6c0.8-0.5,1.6-0.6,2.4-0.6c0.9,0,1.7,0.2,2.4,0.6c0.8,0.3,1.3,0.9,1.7,1.6c0.5,0.6,0.6,1.4,0.6,2.2
			s-0.2,1.4-0.6,2c-0.5,0.6-0.9,1.3-1.7,1.6c0.9,0.3,1.7,0.9,2.2,1.7c0.6,0.8,0.8,1.7,0.8,2.7s-0.2,1.9-0.6,2.5
			c-0.5,0.8-1.1,1.4-1.9,1.7c-0.8,0.5-1.7,0.6-2.8,0.6c-1.1,0-2-0.2-2.8-0.6c-0.8-0.5-1.4-0.9-1.9-1.7
			C89.8,614.7,89.5,613.9,89.5,613z M91.5,612.8c0,0.9,0.3,1.7,0.9,2.4c0.6,0.6,1.4,0.9,2.5,0.9c0.9,0,1.9-0.3,2.5-0.9
			c0.6-0.6,0.9-1.4,0.9-2.4s-0.3-1.7-0.9-2.4c-0.6-0.6-1.4-0.9-2.4-0.9s-1.7,0.3-2.4,0.9C91.8,611.1,91.5,611.9,91.5,612.8z
			 M92.1,605c0,0.8,0.3,1.4,0.8,1.9s1.3,0.8,1.9,0.8c0.8,0,1.4-0.3,2-0.8s0.8-1.3,0.8-1.9c0-0.8-0.3-1.4-0.8-1.9s-1.3-0.8-2-0.8
			s-1.4,0.3-2,0.8C92.5,603.6,92.1,604.2,92.1,605z"/>
		<path d="M102.7,616.4c0-0.3,0.2-0.8,0.5-0.9c0.3-0.2,0.6-0.5,0.9-0.5c0.5,0,0.8,0.2,0.9,0.5c0.3,0.3,0.5,0.6,0.5,0.9
			s-0.2,0.6-0.5,0.9c-0.3,0.3-0.6,0.5-0.9,0.5c-0.5,0-0.8-0.2-0.9-0.5C102.8,617.2,102.7,616.9,102.7,616.4z"/>
		<path d="M107.7,609.5c0-3,0.5-5.2,1.4-6.7c0.9-1.6,2.4-2.4,4.2-2.4c3.6,0,5.3,2.8,5.3,8.6c0,2.8-0.5,5-1.6,6.4
			c-0.9,1.6-2.4,2.2-4.2,2.2c-1.7,0-3-0.8-3.9-2.2C108.1,614.4,107.7,612.2,107.7,609.5z M109.9,609.5c0,4.4,1.1,6.7,3.4,6.7
			c2.2,0,3.3-2.2,3.3-6.7c0-4.7-1.1-7.1-3.3-7.1C111.1,602.3,109.9,604.7,109.9,609.5z"/>
		<path d="M120.7,605.1c0-1.4,0.3-2.5,1.1-3.3c0.8-0.8,1.7-1.3,3-1.3s2.2,0.3,2.8,1.1c0.6,0.8,0.9,1.7,0.9,3.1
			c0,1.3-0.3,2.4-1.1,3.1s-1.7,1.3-3,1.3c-1.1,0-2-0.3-2.8-1.1C121,607.3,120.7,606.4,120.7,605.1z M122.4,605
			c0,0.9,0.2,1.7,0.6,2.2s0.9,0.8,1.7,0.8c0.8,0,1.3-0.3,1.7-0.8c0.5-0.5,0.6-1.3,0.6-2.2s-0.2-1.7-0.6-2.2
			c-0.3-0.5-0.9-0.8-1.6-0.8c-0.8,0-1.3,0.3-1.7,0.8C122.6,603.3,122.4,604,122.4,605z M135.9,600.9l-10.8,16.9h-1.9l10.8-16.9
			H135.9z M130.7,613.6c0-1.4,0.3-2.5,1.1-3.3s1.7-1.3,3-1.3s2,0.3,2.8,1.1c0.6,0.8,0.9,1.7,0.9,3.1c0,1.3-0.3,2.4-1.1,3.1
			s-1.7,1.3-3,1.3c-1.1,0-2-0.3-2.8-1.1C131,616,130.7,614.9,130.7,613.6z M132.4,613.6c0,0.9,0.2,1.6,0.6,2.2
			c0.5,0.5,0.9,0.8,1.7,0.8s1.3-0.3,1.7-0.8c0.5-0.5,0.6-1.3,0.6-2.2s-0.2-1.7-0.6-2.2c-0.5-0.5-0.9-0.8-1.6-0.8
			c-0.8,0-1.3,0.3-1.7,0.8C132.6,611.9,132.4,612.7,132.4,613.6z"/>
	</g>
	<g id="_10.0_3" class="st0">
		<path d="M83.1,566.3V552c-0.3,0.3-0.9,0.6-1.7,1.1c-0.8,0.5-1.6,0.6-2.2,0.9v-2.2c0.9-0.3,1.9-0.6,2.8-1.1s1.7-1.1,2.4-1.6h0.8
			v17.1L83.1,566.3L83.1,566.3z"/>
		<path d="M90.9,558.3c0-3,0.5-5.2,1.4-6.7c0.9-1.6,2.4-2.4,4.2-2.4c3.6,0,5.3,2.8,5.3,8.6c0,2.8-0.5,5-1.6,6.4
			c-0.9,1.6-2.4,2.2-4.2,2.2c-1.7,0-3-0.8-3.9-2.2C91.2,562.8,90.9,560.9,90.9,558.3z M93.1,558.1c0,4.4,1.1,6.7,3.4,6.7
			c2.2,0,3.3-2.2,3.3-6.7c0-4.7-1.1-7.1-3.3-7.1C94.2,551,93.1,553.4,93.1,558.1z"/>
		<path d="M104.2,565.2c0-0.3,0.2-0.8,0.5-0.9c0.3-0.3,0.6-0.5,0.9-0.5c0.5,0,0.8,0.2,0.9,0.5c0.3,0.3,0.5,0.6,0.5,0.9
			s-0.2,0.6-0.5,0.9c-0.3,0.3-0.6,0.5-0.9,0.5c-0.5,0-0.8-0.2-0.9-0.5C104.4,565.8,104.2,565.5,104.2,565.2z"/>
		<path d="M109.2,558.3c0-3,0.5-5.2,1.4-6.7c0.9-1.6,2.4-2.4,4.2-2.4c3.6,0,5.3,2.8,5.3,8.6c0,2.8-0.5,5-1.6,6.4
			c-0.9,1.6-2.4,2.2-4.2,2.2c-1.7,0-3-0.8-3.9-2.2C109.7,563,109.2,560.9,109.2,558.3z M111.3,558.1c0,4.4,1.1,6.7,3.4,6.7
			c2.2,0,3.3-2.2,3.3-6.7c0-4.7-1.1-7.1-3.3-7.1S111.3,553.4,111.3,558.1z"/>
		<path d="M122.1,553.7c0-1.4,0.3-2.5,1.1-3.3c0.8-0.8,1.7-1.3,3-1.3s2.2,0.3,2.8,1.1s0.9,1.7,0.9,3.1c0,1.3-0.3,2.4-1.1,3.1
			s-1.7,1.3-3,1.3c-1.1,0-2-0.3-2.8-1.1C122.2,555.9,122.1,555,122.1,553.7z M123.8,553.7c0,0.9,0.2,1.7,0.6,2.2s0.9,0.8,1.7,0.8
			c0.8,0,1.3-0.3,1.7-0.8c0.5-0.5,0.6-1.3,0.6-2.2s-0.2-1.7-0.6-2.2c-0.3-0.5-0.9-0.8-1.6-0.8c-0.8,0-1.3,0.3-1.7,0.8
			C124,552,123.8,552.8,123.8,553.7z M137.3,549.5l-10.8,16.9h-1.9l10.8-16.9H137.3z M132.1,562.3c0-1.4,0.3-2.5,1.1-3.3
			s1.7-1.3,3-1.3s2,0.3,2.8,1.1c0.6,0.8,0.9,1.7,0.9,3.1c0,1.3-0.3,2.4-1.1,3.1s-1.7,1.3-3,1.3c-1.1,0-2-0.3-2.8-1.1
			C132.4,564.5,132.1,563.6,132.1,562.3z M133.9,562.2c0,0.9,0.2,1.6,0.6,2.2c0.5,0.5,0.9,0.8,1.7,0.8s1.3-0.3,1.7-0.8
			c0.5-0.5,0.6-1.3,0.6-2.2s-0.2-1.7-0.6-2.2c-0.5-0.5-0.9-0.8-1.6-0.8c-0.8,0-1.3,0.3-1.7,0.8C134,560.6,133.9,561.2,133.9,562.2z"
			/>
	</g>
	<g id="_12.0_3" class="st0">
		<path d="M83.1,518v-14.3c-0.3,0.3-0.9,0.6-1.7,1.1c-0.8,0.5-1.6,0.6-2.2,0.9v-2c0.9-0.3,1.9-0.6,2.8-1.1s1.7-1.1,2.4-1.6h0.8v17.1
			L83.1,518L83.1,518z"/>
		<path d="M99,505.6c0-0.9-0.3-1.6-0.8-2.2c-0.6-0.5-1.4-0.8-2.4-0.8c-0.6,0-1.4,0.2-2,0.5c-0.8,0.3-1.4,0.8-2,1.6v-2
			c0.5-0.6,1.1-0.9,1.9-1.3c0.6-0.3,1.6-0.5,2.5-0.5c1.6,0,2.7,0.5,3.6,1.3s1.4,1.9,1.4,3.3c0,1.3-0.3,2.4-0.8,3.1
			c-0.6,0.9-1.6,1.9-3,2.8s-2.4,1.7-2.8,2c-0.5,0.5-0.8,0.8-0.9,1.3c-0.2,0.3-0.3,0.8-0.3,1.4h8.3v1.9H91.2v-0.8
			c0-0.9,0.2-1.7,0.5-2.5c0.3-0.6,0.6-1.3,1.3-2c0.6-0.6,1.6-1.4,2.8-2.4c1.3-0.9,2.2-1.7,2.7-2.4C98.9,507.3,99,506.5,99,505.6z"/>
		<path d="M104.2,516.9c0-0.3,0.2-0.8,0.5-0.9c0.3-0.3,0.6-0.5,0.9-0.5c0.5,0,0.8,0.2,0.9,0.5c0.3,0.3,0.5,0.6,0.5,0.9
			c0,0.3-0.2,0.6-0.5,0.9c-0.3,0.3-0.6,0.5-0.9,0.5c-0.5,0-0.8-0.2-0.9-0.5C104.4,517.5,104.2,517.2,104.2,516.9z"/>
		<path d="M109.2,510c0-3,0.5-5.2,1.4-6.7c0.9-1.6,2.4-2.4,4.2-2.4c3.6,0,5.3,2.8,5.3,8.6c0,2.8-0.5,5-1.6,6.4
			c-0.9,1.6-2.4,2.2-4.2,2.2c-1.7,0-3-0.8-3.9-2.2C109.7,514.7,109.2,512.6,109.2,510z M111.3,509.8c0,4.4,1.1,6.7,3.4,6.7
			c2.2,0,3.3-2.2,3.3-6.7c0-4.7-1.1-7.1-3.3-7.1C112.5,502.8,111.3,505.1,111.3,509.8z"/>
		<path d="M122.1,505.4c0-1.4,0.3-2.5,1.1-3.3c0.8-0.8,1.7-1.3,3-1.3s2.2,0.3,2.8,1.1c0.6,0.8,0.9,1.7,0.9,3.1
			c0,1.3-0.3,2.4-1.1,3.1c-0.8,0.8-1.7,1.3-3,1.3c-1.1,0-2-0.3-2.8-1.1C122.2,507.6,122.1,506.7,122.1,505.4z M123.8,505.3
			c0,0.9,0.2,1.7,0.6,2.2s0.9,0.8,1.7,0.8c0.8,0,1.3-0.3,1.7-0.8c0.5-0.5,0.6-1.3,0.6-2.2s-0.2-1.7-0.6-2.2
			c-0.3-0.5-0.9-0.8-1.6-0.8c-0.8,0-1.3,0.3-1.7,0.8C124,503.7,123.8,504.3,123.8,505.3z M137.3,501.2l-10.8,16.9h-1.9l10.8-16.9
			L137.3,501.2L137.3,501.2z M132.1,514c0-1.4,0.3-2.5,1.1-3.3s1.7-1.3,3-1.3s2,0.3,2.8,1.1c0.6,0.8,0.9,1.7,0.9,3.1
			c0,1.3-0.3,2.4-1.1,3.1c-0.8,0.8-1.7,1.3-3,1.3c-1.1,0-2-0.3-2.8-1.1C132.4,516.2,132.1,515.3,132.1,514z M133.9,513.9
			c0,0.9,0.2,1.6,0.6,2.2c0.5,0.5,0.9,0.8,1.7,0.8s1.3-0.3,1.7-0.8c0.5-0.5,0.6-1.3,0.6-2.2s-0.2-1.7-0.6-2.2
			c-0.5-0.5-0.9-0.8-1.6-0.8c-0.8,0-1.3,0.3-1.7,0.8C134,512.3,133.9,513,133.9,513.9z"/>
	</g>
</g>
<g id="线-3">
	<rect id="矩形_863_拷贝_2-3" x="150.5" y="758.3" class="st1" width="213.5" height="2"/>
	<rect id="矩形_863_拷贝_3-3" x="150.5" y="707" class="st1" width="213.5" height="2"/>
	<rect id="矩形_863_拷贝_4-3" x="150.5" y="655.8" class="st1" width="213.5" height="2"/>
	<rect id="矩形_863_拷贝_5-7" x="150.5" y="605.4" class="st1" width="213.5" height="2"/>
	<rect id="矩形_863_拷贝_5-8" x="150.5" y="554.2" class="st1" width="213.5" height="2"/>
	<rect id="矩形_863_拷贝_5-9" x="150.5" y="502.8" class="st1" width="213.5" height="2"/>
	<rect id="矩形_863-3" x="150.5" y="499.8" class="st2" width="2" height="314"/>
</g>
<rect id="矩形_864-3" x="181.8" y="579.3" class="st3" width="46.2" height="232.5"/>
<rect id="矩形_864_拷贝-3" x="228.1" y="626.6" class="st4" width="46.2" height="185.2"/>
<rect id="矩形_864_拷贝_2-3" x="274.5" y="677.9" class="st5" width="46.2" height="133.9"/>
<rect id="矩形_863_拷贝-3" x="150.5" y="811.8" class="st2" width="213.5" height="2"/>
<rect id="矩形_865" x="470" y="632" class="st3" width="36.5" height="35.9"/>
<rect id="矩形_865_拷贝" x="470" y="694.3" class="st4" width="36.5" height="35.9"/>
<rect id="矩形_865_拷贝_2" x="470" y="756.3" class="st5" width="36.5" height="35.9"/>
<g>
	<path d="M65.2,42.2V46c0,0.7,0.2,1.4,1,1.9c0.5,0.5,1.2,0.7,2.2,0.7c0.7,0,1.4-0.2,2.2-0.7s1-1,1-1.7v-7.6c0-2.2-1.4-3.1-4.5-3.1
		c-1.9,0-3.3,1-4.3,3.1l-0.7-0.7c1-2.4,2.9-3.6,6-3.6c1.4,0,2.6,0.2,3.8,1c1.2,0.7,1.9,1.9,1.9,3.3v7.6c0,1-0.7,1.7-1.9,2.4
		c-1.4,0.7-2.4,1-3.3,1c-1,0-2.2-0.2-3.3-1C63.7,47.9,63,47,63,46v-5.5c0-1.9,1-2.6,2.9-2.6c0.7,0,1.2,0.2,1.7,0.7
		c0.5,0.2,0.7,1,0.7,1.4c0,1.4-0.7,2.2-2.4,2.2C65.6,42.5,65.4,42.5,65.2,42.2z M67.3,40.3c0-1-0.5-1.4-1.2-1.4
		c-1,0-1.4,0.5-1.4,1.2c0,1,0.5,1.4,1.2,1.4C66.8,41.5,67.3,41,67.3,40.3z"/>
	<path d="M76.9,26c0,1.7-0.7,3.1-1.9,4.1c-1.2,1-2.6,1.4-4.3,1.4c-1,0-1.9-0.2-2.9-0.7c-0.7-0.5-1.2-1.4-1.2-2.4
		c0-0.7,0.2-1.2,0.7-1.7c0.5-0.5,1.2-1,1.7-1c1.9,0,2.9,1,2.9,2.6c0,0.7-0.2,1.2-0.7,1.7c1.2,0,2.4-0.5,3.1-1.2
		c0.7-0.7,1.2-1.7,1.2-2.9H76.9z M70.9,28.4c0-0.5-0.2-0.7-0.5-1.2s-0.7-0.5-1.2-0.5c-0.5,0-0.7,0.2-1,0.5s-0.5,0.7-0.5,1.2
		c0,0.5,0,0.7,0.5,1.2S69,30,69.5,30c0.5,0,0.7-0.2,1.2-0.5C71.1,29.3,70.9,28.8,70.9,28.4z"/>
	<path d="M88.6,49.6h-2.2v-11c0-0.5-0.2-1-0.7-1.4c-0.5-0.5-0.7-1-1.2-1l-1.4,1.9l-2.2-2.6c-1,0.2-1.7,1-2.2,1.9
		c-0.5,0.7-0.7,1.7-0.7,2.4c0,1,0.5,1.9,1.4,3.1c0.2,0.2,0.5,0.5,0.7,1.2c0.2,0.5,0.5,1,0.5,1.2c0,0,0.5-0.5,1-0.7
		c0,0,0.2-0.2,0.7-0.7c-1.4,0-2.2-1-2.2-2.4c0-0.7,0.2-1.2,0.7-1.7c0.5-0.5,1-0.7,1.7-0.7c1.7,0,2.4,0.7,2.4,2.4
		c0,1-0.7,2.2-2.2,3.6l-1.7,1.7c-0.2,0.2-0.5,0.7-0.5,1.2v1.7h-2.4v-4.8c0-0.2-0.2-0.5-0.5-1.2c-0.7-1.4-1-2.6-1-3.8
		c0-1.2,0.5-2.2,1.4-3.3c1-1,1.9-1.7,2.9-2.2l1.9,2.2l1.9-2.2c1,0.2,1.9,0.7,2.6,1.4s1.2,1.7,1.2,2.9v11H88.6z M84,41.3
		c0-0.5-0.2-0.7-0.5-1c-0.2-0.2-0.7-0.5-1-0.5s-1,0.2-1.2,0.5s-0.5,0.7-0.5,1c0,0.5,0.2,0.7,0.5,1s0.7,0.5,1,0.5
		c0.5,0,0.7-0.2,1-0.5C83.6,42,84,41.7,84,41.3z"/>
	<path d="M102,34.3c-0.5,1.9-1.2,2.6-2.2,2.6c-0.5,0-1.2-0.2-2.4-0.5c-1.2-0.2-1.9-0.5-2.2-0.5c-1,0-1.4,0.5-1.7,1.7l6.7,2.2V47
		c0,1-0.2,1.7-1,2.2c-0.5,0.5-1.2,0.7-2.2,0.7c-1.7,0-2.4-0.7-2.4-2.2c0-1.4,0.7-2.2,2.2-2.2c0.5,0,1,0,1.2,0.2v-6l-6-1.9
		c0-0.7,0.5-1.7,1-2.4c0.7-1,1.4-1.4,2.2-1.4c0.7,0,1.7,0.2,3.1,0.7c0.7,0.5,1.2,0.5,1.9,0.5C100.8,35.3,101.2,35,102,34.3z
		 M98.1,47.5c0-0.2-0.2-0.7-0.5-1c-0.2-0.2-0.5-0.5-1-0.5c-1,0-1.2,0.5-1.2,1.2c0,1,0.5,1.2,1.2,1.2S98.1,48.2,98.1,47.5z"/>
	<path d="M113.2,49.6H111V37.7c0-1.7-0.7-2.4-2.4-2.4c-1,0-1.9,0.5-2.9,1.7l-0.2-1c1-1.2,2.4-1.9,3.8-1.9c2.4,0.2,3.8,1.2,3.8,3.3
		V49.6z"/>
	<path d="M128.2,47.9l-1.4,1.7h-0.7v-2.2l-3.6-5.7l-3.8,6v1.9h-2.2V37c0-0.7,0.2-1.4,1-1.9c0.7-0.5,1.2-0.7,2.2-0.7
		c1.7,0,2.4,0.7,2.4,2.2c0,0.7-0.2,1.2-0.5,1.4c-0.5,0.5-1,0.7-1.4,0.7c-0.7,0-1.2,0-1.4-0.2v7.2l3.8-6l3.6,5.7v-11h2.2V47.9z
		 M121.3,36.5c0-0.7-0.5-1.2-1.2-1.2s-1.2,0.5-1.2,1.2c0,0.7,0.5,1.2,1.2,1.2S121.3,37.4,121.3,36.5z"/>
	<path d="M142.8,49.6h-2.2v-7.9c0-0.7-0.5-1.4-1.2-1.9c-0.7-0.5-1.4-0.7-2.4-0.7c-0.7,0-1.4,0.2-1.9,1c-0.5,0.5-0.7,1.2-0.7,1.9v3.1
		c0.2-0.2,0.7-0.2,1-0.2c0.7,0,1.2,0.2,1.7,0.7c0.5,0.5,0.7,1,0.7,1.7c0,1.7-1,2.4-2.6,2.4c-1,0-1.7-0.2-2.2-1
		c-0.5-0.5-0.7-1.2-0.7-2.2V42c0-1.2,0.5-2.2,1.4-2.9s1.9-1.2,3.1-1.2c1.7,0,2.9,0.7,3.8,1.9v-1.4c0-1-0.5-1.7-1.4-2.2
		c-0.7-0.5-1.7-0.7-2.6-0.7c-1.9,0-3.6,1-5,2.6l-0.2-1.2c1.4-1.9,3.3-2.6,5.5-2.6c1.4,0,2.9,0.2,4.1,1c1.4,0.7,2.2,1.9,2.2,3.3v11
		H142.8z M136.9,47.2c0-0.5-0.2-0.7-0.5-1c-0.2-0.2-0.7-0.5-1-0.5c-0.2,0-0.7,0.2-1,0.5c-0.2,0.2-0.5,0.7-0.5,1c0,0.5,0.2,0.7,0.5,1
		c0.2,0.2,0.7,0.5,1,0.5c0.5,0,1-0.2,1.2-0.7C136.9,47.9,136.9,47.7,136.9,47.2z"/>
	<path d="M158.1,49.6H156v-11c0-0.5-0.2-1-0.7-1.4c-0.5-0.5-0.7-1-1.2-1l-1.7,2.2l-2.2-2.6c-0.7,0.2-1.4,0.7-2.2,1.7
		c-0.5,0.7-0.7,1.7-0.7,2.6s0.5,1.9,1.4,3.1c0.2,0.2,0.5,0.5,0.7,1.2c0.2,0.5,0.5,1,0.5,1.2c0,0,0.5-0.5,1-0.7c0,0,0.2-0.2,0.7-0.7
		c-1.4,0-2.2-1-2.2-2.4c0-0.7,0.2-1.2,0.7-1.7s1-0.7,1.7-0.7c1.7,0,2.4,0.7,2.4,2.4c0,1-0.7,2.2-2.2,3.6l-1.7,1.7
		c-0.2,0.2-0.5,0.7-0.5,1.2v1.4h-2.2v-4.8c0-0.2-0.2-0.5-0.5-1.2c-0.7-1.4-1-2.6-1-3.8c0-1.2,0.5-2.2,1.4-3.3c1-1,1.9-1.7,2.9-2.2
		l1.9,2.2l1.9-2.2c1,0.2,1.9,0.7,2.6,1.4s1.2,1.7,1.2,2.9v11H158.1z M153.3,41.3c0-0.5-0.2-0.7-0.5-1c-0.2-0.2-0.7-0.5-1-0.5
		c-0.2,0-0.7,0.2-1,0.5c-0.2,0.2-0.5,0.7-0.5,1c0,0.5,0.2,0.7,0.5,1c0.2,0.2,0.7,0.5,1,0.5c0.5,0,0.7-0.2,1-0.5
		C153.1,42,153.3,41.7,153.3,41.3z"/>
	<path d="M165,42.2V46c0,0.7,0.2,1.4,1,1.9c0.5,0.5,1.2,0.7,2.2,0.7c0.7,0,1.4-0.2,2.2-0.7c0.7-0.5,1-1,1-1.7v-7.6
		c0-2.2-1.4-3.1-4.5-3.1c-1.9,0-3.3,1-4.3,3.1l-0.7-0.5c1-2.4,2.9-3.6,6-3.6c1.4,0,2.6,0.2,3.8,1c1.2,0.7,1.9,1.9,1.9,3.3v7.6
		c0,1-0.7,1.7-1.9,2.4c-1.4,0.5-2.6,0.7-3.3,0.7c-1,0-2.2-0.2-3.3-1s-1.9-1.7-1.9-2.6v-5.5c0-1.9,1-2.6,2.9-2.6
		c0.7,0,1.2,0.2,1.7,0.7c0.5,0.2,0.7,1,0.7,1.4c0,1.4-0.7,2.2-2.4,2.2C165.5,42.5,165.3,42.5,165,42.2z M167.2,40.3
		c0-1-0.5-1.4-1.2-1.4c-1,0-1.4,0.5-1.4,1.2c0,1,0.5,1.4,1.2,1.4C166.7,41.5,167.2,41,167.2,40.3z"/>
	<path d="M178.4,49.6v-1h1.7v-10c-0.5,0.2-1,0.5-1.4,0.5c-1.4,0-2.4-0.7-2.4-2.4c0-0.7,0.2-1.4,1-1.7c0.5-0.5,1.2-0.7,1.9-0.7
		c1.9,0,3.1,1,3.1,3.1v11.2h4.1c1.2,0,1.7-0.7,1.7-1.9V34.3h2.2v12.4c0,0.7-0.2,1.2-0.5,1.9c-0.5,0.7-1,1-1.4,1
		C188.2,49.6,178.4,49.6,178.4,49.6z M180.1,37c0-1-0.5-1.4-1.4-1.4c-0.5,0-0.7,0.2-1,0.5c-0.2,0.2-0.5,0.5-0.5,1
		c0,0.5,0.2,0.7,0.5,1s0.5,0.5,1,0.5C179.6,38.2,180.1,37.7,180.1,37z"/>
	<path d="M194.4,45.6v-9.8l1.4-1.4h0.5v10.8c0.5,0,1,0.2,1.4,0.7c0.2,0.5,0.5,1,0.5,1.4c0,1.7-0.7,2.4-2.2,2.4
		c-0.7,0-1.2-0.2-1.7-0.7c-0.5-0.5-0.7-1-0.7-1.7C193.7,46.8,194,46.3,194.4,45.6z M197.5,47.5c0-1-0.5-1.4-1.4-1.4
		c-1,0-1.4,0.5-1.4,1.4c0,0.5,0.2,0.7,0.5,1c0.2,0.2,0.7,0.5,1,0.5C197.1,48.9,197.5,48.4,197.5,47.5z M202.1,45.6v-9.8l1.4-1.4h0.5
		v10.8c0.5,0,1,0.2,1.4,0.7c0.5,0.5,0.5,1,0.5,1.4c0,1.7-0.7,2.4-2.4,2.4c-0.7,0-1.2-0.2-1.7-0.7c-0.5-0.5-0.7-1-0.7-1.7
		C201.4,46.8,201.6,46.3,202.1,45.6z M205.2,47.2c0-1-0.5-1.4-1.4-1.4c-1,0-1.4,0.5-1.4,1.4c0,1,0.5,1.7,1.4,1.7
		C204.7,48.9,205.2,48.4,205.2,47.2z"/>
	<path d="M221.9,49.6h-2.4V37.7c0-1-0.5-1.7-1.2-1.7c-0.5,0-1,0-1.2,0.2s-0.5,1-0.7,1.9l-2.6,11.5h-2.2v-11
		c-0.2,0.2-0.7,0.2-1.2,0.2c-1.7,0-2.4-0.7-2.4-2.4c0-0.7,0.2-1.2,0.7-1.7c0.5-0.5,1.2-0.5,1.9-0.5c1,0,1.7,0.2,2.2,0.7
		c0.5,0.5,0.7,1.2,0.7,2.2v8.4l2.4-8.1c0.5-2.2,1.4-3.1,2.9-3.1c1,0,1.9,0.2,2.4,1c0.5,0.7,1,1.4,1,2.4v11.9H221.9z M211.9,36.7
		c0-1-0.5-1.4-1.4-1.4c-0.5,0-0.7,0.2-1,0.5c-0.2,0.2-0.5,0.7-0.5,1c0,0.2,0.2,0.7,0.5,1c0.2,0.2,0.5,0.5,1,0.5s0.7-0.2,1-0.5
		C211.6,37.4,211.9,37,211.9,36.7z"/>
	<path d="M236,45.8c-1.2,0-2.4,0.2-3.6,1s-1.9,1.7-1.9,2.9h-2.2V38.4c-0.2,0.2-0.7,0.2-1.2,0.2c-0.7,0-1.2-0.2-1.4-0.5
		c-0.2-0.2-0.2-1-0.2-1.4c0-1.4,1-2.4,2.6-2.4c1.9,0,2.9,1,2.9,2.9V47c1.2-1.4,2.9-2.2,5-2.2c0.2,0,0.5,0,1,0v-9.1l1.4-1.4h0.7v10.5
		l-0.5,0.5c0.7,0.5,1.2,1.2,1.2,2.2c0,1.4-0.7,2.2-2.2,2.2s-2.2-0.7-2.2-2.2C235.3,46.8,235.5,46,236,45.8z M228.8,36.5
		c0-0.7-0.5-1.2-1.2-1.2s-1.2,0.5-1.2,1.2c0,0.7,0.5,1.2,1.2,1.2S228.8,37.4,228.8,36.5z M238.9,47.5c0-1-0.5-1.4-1.4-1.4
		s-1.4,0.5-1.4,1.4c0,1,0.5,1.2,1.4,1.2C238.4,48.9,238.9,48.4,238.9,47.5z"/>
	<path d="M254.9,49.6h-2.2v-11c0-0.5-0.2-1-0.7-1.4c-0.5-0.5-0.7-1-1.2-1l-1.7,2.2l-2.2-2.9c-0.7,0.2-1.4,0.7-2.2,1.7
		c-0.5,0.7-0.7,1.7-0.7,2.6s0.5,1.9,1.4,3.1c0.2,0.2,0.5,0.5,0.7,1.2c0.2,0.5,0.5,1,0.5,1.2c0,0,0.5-0.5,1-0.7c0,0,0.2-0.2,0.7-0.7
		c-1.4,0-2.2-1-2.2-2.4c0-0.7,0.2-1.2,0.7-1.7c0.5-0.5,1-0.7,1.7-0.7c1.7,0,2.4,0.7,2.4,2.4c0,1-0.7,2.2-2.2,3.6l-1.7,1.7
		c-0.2,0.2-0.5,0.7-0.5,1.2v1.7h-2.2v-4.8c0-0.2-0.2-0.5-0.5-1.2c-0.7-1.4-1-2.6-1-3.8c0-1.2,0.5-2.2,1.4-3.3c1-1,1.9-1.7,2.9-2.2
		l1.9,2.2l1.9-2.2c1,0.2,1.9,0.7,2.6,1.4c0.7,0.7,1.2,1.7,1.2,2.9v11H254.9z M250.1,41.3c0-0.5-0.2-0.7-0.5-1
		c-0.2-0.2-0.7-0.5-1-0.5s-0.7,0.2-1,0.5c-0.2,0.2-0.5,0.7-0.5,1c0,0.5,0.2,0.7,0.5,1s0.7,0.5,1,0.5c0.5,0,0.7-0.2,1-0.5
		S250.1,41.7,250.1,41.3z"/>
	<path d="M254.4,17.8l-0.5,4.8h-1.4l-0.5-4.8C252,17.8,254.4,17.8,254.4,17.8z"/>
	<path d="M261.8,42.2V46c0,0.7,0.2,1.4,1,1.9c0.5,0.5,1.2,0.7,2.2,0.7c0.7,0,1.4-0.2,2.2-0.7c0.7-0.5,1-1,1-1.7v-7.6
		c0-2.2-1.4-3.1-4.5-3.1c-1.9,0-3.3,1-4.3,3.1l-0.7-0.5c1-2.4,2.9-3.6,6-3.6c1.4,0,2.6,0.2,3.8,1c1.2,0.7,1.9,1.9,1.9,3.3v7.6
		c0,1-0.7,1.7-1.9,2.4c-1.2,0.7-2.2,1-3.1,1s-2.2-0.2-3.3-1c-1.2-0.7-1.9-1.7-1.9-2.6v-5.5c0-1.9,1-2.6,2.9-2.6
		c0.7,0,1.2,0.2,1.7,0.7c0.5,0.5,0.7,1,0.7,1.7c0,1.4-0.7,2.2-2.4,2.2C262.3,42.5,262.1,42.5,261.8,42.2z M264,40.3
		c0-1-0.5-1.4-1.2-1.4c-1,0-1.4,0.5-1.4,1.2c0,1,0.5,1.4,1.2,1.4C263.5,41.5,264,41,264,40.3z"/>
	<path d="M275.2,49.6v-1h1.7v-10c-0.5,0.2-1,0.5-1.4,0.5c-1.4,0-2.4-0.7-2.4-2.4c0-0.7,0.2-1.4,1-1.7c0.5-0.5,1.2-0.7,1.9-0.7
		c1.9,0,3.1,1,3.1,3.1v11.2h4.1c1.2,0,1.7-0.7,1.7-1.9V26.7l1.4-1.7h0.7v21.7c0,0.7-0.2,1.2-0.5,1.9c-0.5,0.7-1,1-1.4,1H275.2z
		 M276.9,37c0-1-0.5-1.4-1.4-1.4c-0.5,0-0.7,0.2-1,0.5c-0.2,0.2-0.5,0.5-0.5,1c0,0.5,0.2,0.7,0.5,1c0.2,0.2,0.5,0.5,1,0.5
		C276.4,38.2,276.9,37.7,276.9,37z"/>
	<path d="M287.1,31.9c-1-0.5-2.4-0.7-4.1-1.2c-1.7-0.2-3.1-0.2-4.3-0.2c-1,0-2.2,0.2-3.8,0.5c0.2-1.4,0.7-2.6,1.9-3.6
		c1.2-1,2.4-1.4,3.8-1.4s2.6,0.2,3.6,1v-2.4h2.2v4.8C286.9,30.3,287.1,31.2,287.1,31.9z M285.7,30.7c-1-2.4-2.6-3.6-5.3-3.6
		c-1.9,0-3.3,1-4.5,2.6c1.2-0.2,2.2-0.2,3.1-0.2C281.4,29.8,283.8,30,285.7,30.7z"/>
	<path d="M291.4,38.4c0.2-0.5,0.7-0.7,1.7-0.7c1.2,0,1.7,0.5,1.7,1.7c0,1.4-0.7,2.2-1.9,2.2c-0.7,0-1.4-0.2-1.7-1
		c-0.2-0.5-0.5-1.2-0.5-1.9c0-2.9,1.2-4.1,3.6-4.1c1,0,1.7,0.2,2.4,0.7c0.7,0.5,1,1.2,1,2.2v9.8c0,1,0.5,1.4,1.4,1.4
		s1.2-0.5,1.2-1.4V36l1.7-1.7h0.5v11.9c0,1-0.2,1.7-1,2.4c-0.7,0.7-1.4,1-2.4,1s-1.9-0.2-2.4-1c-0.5-0.7-1-1.4-1-2.4v-7.9
		c0-1.7-0.7-2.6-1.9-2.6C292.2,35.8,291.4,36.7,291.4,38.4z M293.8,39.6c0-0.7-0.2-1.2-1-1.2c-0.7,0-1.2,0.5-1.2,1.2
		c0,0.7,0.2,1.2,1,1.2C293.6,40.8,293.8,40.3,293.8,39.6z"/>
	<path d="M309.1,42.2V46c0,0.7,0.2,1.4,1,1.9c0.5,0.5,1.2,0.7,2.2,0.7c0.7,0,1.4-0.2,2.2-0.7c0.7-0.5,1-1,1-1.7v-7.6
		c0-2.2-1.4-3.1-4.5-3.1c-1.9,0-3.3,1-4.3,3.1l-0.7-0.5c1-2.4,2.9-3.6,6-3.6c1.4,0,2.6,0.2,3.8,1c1.2,0.7,1.9,1.9,1.9,3.3v7.6
		c0,1-0.7,1.7-1.9,2.4c-1.2,0.7-2.2,1-3.1,1s-2.2-0.2-3.3-1s-1.9-1.7-1.9-2.6v-5.5c0-1.9,1-2.6,2.9-2.6c0.7,0,1.2,0.2,1.7,0.7
		c0.5,0.5,0.7,1,0.7,1.7c0,1.4-0.7,2.2-2.4,2.2C309.8,42.5,309.6,42.5,309.1,42.2z M311.3,40.3c0-1-0.5-1.4-1.2-1.4
		c-1,0-1.4,0.5-1.4,1.2c0,1,0.5,1.4,1.2,1.4C311,41.5,311.3,41,311.3,40.3z"/>
	<path d="M329.4,49.6h-2.2l-6.5-8.1v-1l6.5,6v-7.9c-0.2,0.2-0.7,0.2-1.2,0.2c-0.7,0-1.2-0.2-1.4-0.7c-0.2-0.5-0.5-1-0.5-1.4
		c0-0.7,0.2-1.2,0.7-1.7c0.5-0.5,1.2-0.7,1.9-0.7c1.7,0,2.6,1,2.6,3.1C329.4,37.4,329.4,49.6,329.4,49.6z M327.8,36.7
		c0-1-0.5-1.4-1.2-1.4c-0.7,0-1.2,0.5-1.2,1.4s0.5,1.2,1.2,1.2C327.3,37.9,327.8,37.7,327.8,36.7z"/>
	<path d="M347.4,33.1c0,2.2-0.7,3.6-2.4,4.3v12.2h-2.2v-7.9c0-1-0.5-1.4-1.4-1.9c-0.7-0.5-1.4-0.5-2.4-0.5c-1.4,0-2.4,1-2.4,2.9v3.3
		c0.2,0,0.5,0,0.7,0c1.4,0,2.2,0.7,2.2,2.2c0,0.7-0.2,1.2-0.7,1.7c-0.5,0.5-1,0.7-1.7,0.7c-1.9,0-2.9-1-2.9-3.1v-4.5
		c0-1.2,0.5-2.2,1.4-3.1c1-0.7,1.9-1.2,3.1-1.2c0.5,0,1,0,1.2,0.2l1.7-0.7c-1-1.2-2.2-1.7-3.6-1.7c-1.9,0-3.6,1-5,2.9l-0.7-0.7
		c1.9-2.4,3.8-3.6,5.7-3.6c2.4,0,4.1,0.7,5.5,1.9c1-0.5,1.2-1.7,1.2-3.3C344.7,33.1,347.4,33.1,347.4,33.1z M339,47.2
		c0-0.5-0.2-0.7-0.5-1c-0.2-0.2-0.5-0.5-1-0.5s-0.7,0.2-1,0.5c-0.2,0.2-0.5,0.5-0.5,1c0,1,0.5,1.4,1.4,1.4c0.5,0,1-0.2,1.2-0.7
		C338.8,47.9,339,47.7,339,47.2z M342.8,37.9l-1.4,0.5c0.5,0,1,0.5,1.7,1.2l0.2,0.2v-0.2C343.3,38.9,343.1,38.4,342.8,37.9z"/>
	<path d="M347.4,31.5c-2.6-1.2-5.5-1.9-8.6-1.9c-0.7,0-1.9,0.2-3.3,0.5c0.2-1.4,1-2.6,2.2-3.6c1.2-1,2.4-1.4,4.1-1.4
		c1.9,0,3.3,0.7,4.3,1.9C346.9,28.1,347.4,29.8,347.4,31.5z M346.4,30c-0.2-1-1-1.7-1.7-2.4c-1-0.7-1.7-1.2-2.6-1.2
		c-2.4,0-4.1,0.7-5.3,2.4c1-0.2,1.9-0.2,2.6-0.2C341.6,28.8,344,29.3,346.4,30z"/>
	<path d="M360.5,45.8c-1.2,0-2.4,0.2-3.6,1c-1.2,0.7-1.9,1.7-1.9,2.9h-2.2V38.4c-0.2,0.2-0.7,0.2-1.2,0.2c-0.7,0-1.2-0.2-1.4-0.5
		c-0.2-0.2-0.5-1-0.5-1.4c0-1.4,1-2.4,2.6-2.4c1.9,0,2.9,1,2.9,2.9V47c1.2-1.4,2.9-2.2,5-2.2c0.2,0,0.5,0,1,0v-9.1l1.4-1.4h0.7v10.5
		l-0.5,0.5c0.7,0.5,1.2,1.2,1.2,2.2c0,1.4-0.7,2.2-2.2,2.2s-2.2-0.7-2.2-2.2C359.5,46.8,360,46,360.5,45.8z M353.1,36.5
		c0-0.7-0.5-1.2-1.2-1.2c-0.7,0-1.2,0.5-1.2,1.2c0,0.7,0.5,1.2,1.2,1.2C352.6,37.7,353.1,37.4,353.1,36.5z M363.1,47.5
		c0-1-0.5-1.4-1.4-1.4s-1.4,0.5-1.4,1.4c0,1,0.5,1.2,1.4,1.2C362.7,48.9,363.1,48.4,363.1,47.5z"/>
	<path d="M381.1,49.6h-2.4V37.7c0-1-0.5-1.7-1.2-1.7c-0.5,0-1,0-1.2,0.2s-0.5,1-0.7,1.9l-2.9,11.5h-2.2v-11
		c-0.2,0.2-0.7,0.2-1.2,0.2c-1.7,0-2.4-0.7-2.4-2.4c0-0.7,0.2-1.2,0.7-1.7c0.5-0.5,1.2-0.5,1.9-0.5c1,0,1.7,0.2,2.2,0.7
		c0.5,0.5,0.7,1.2,0.7,2.2v8.4l2.2-8.1c0.5-2.2,1.4-3.1,2.9-3.1c1,0,1.9,0.2,2.4,1c0.5,0.7,1,1.4,1,2.4v11.9H381.1z M371,36.7
		c0-1-0.5-1.4-1.4-1.4c-0.5,0-0.7,0.2-1,0.5c-0.2,0.2-0.5,0.7-0.5,1c0,0.2,0.2,0.7,0.5,1c0.2,0.2,0.5,0.5,1,0.5s0.7-0.2,1-0.5
		C370.8,37.4,371,37,371,36.7z"/>
	<path d="M394.2,34.3c-0.5,1.9-1.2,2.6-2.2,2.6c-0.5,0-1.2-0.2-2.4-0.5c-1.2-0.2-1.9-0.5-2.2-0.5c-1,0-1.4,0.5-1.7,1.7l6.7,2.2V47
		c0,1-0.2,1.7-1,2.2c-0.5,0.5-1.2,0.7-2.2,0.7c-1.7,0-2.4-0.7-2.4-2.2c0-1.4,0.7-2.2,2.2-2.2c0.5,0,1,0,1.2,0.2v-6l-6-1.9
		c0-0.7,0.5-1.7,1-2.4c0.7-1,1.4-1.4,2.2-1.4c0.7,0,1.7,0.2,3.1,0.7c0.5,0.2,1.2,0.2,1.9,0.2C393,35.3,393.5,35,394.2,34.3z
		 M390.6,47.5c0-0.2-0.2-0.7-0.5-1c-0.2-0.2-0.5-0.5-1-0.5c-1,0-1.2,0.5-1.2,1.2c0,1,0.5,1.2,1.2,1.2
		C389.9,48.4,390.6,48.2,390.6,47.5z"/>
	<path d="M397.5,26c0,1.7-0.7,3.1-1.9,4.1c-1.2,1-2.6,1.7-4.3,1.7c-1.2,0-2.2-0.2-2.9-0.7c-1-0.5-1.4-1.4-1.4-2.6
		c0-0.7,0.2-1.2,0.7-1.7c0.5-0.5,1.2-0.7,1.7-0.7c1.9,0,2.9,1,2.9,2.6c0,0.7-0.2,1.2-0.7,1.7c1.2,0,2.4-0.5,3.1-1.2
		c1-0.7,1.2-1.9,1.2-3.1C395.9,26,397.5,26,397.5,26z M391.6,28.4c0-0.5-0.2-0.7-0.5-1.2s-0.7-0.5-1.2-0.5c-0.5,0-0.7,0.2-1.2,0.5
		s-0.5,0.7-0.5,1.2c0,0.5,0.2,0.7,0.5,1.2s0.7,0.5,1.2,0.5c0.5,0,0.7-0.2,1.2-0.5C391.6,29.3,391.6,28.8,391.6,28.4z"/>
	<path d="M411.9,49.6h-2.2l-3.3-13.1l-3.6,13.1h-2.2v-11c-0.2,0.2-0.7,0.2-1,0.2c-1.7,0-2.4-0.7-2.4-2.2c0-0.7,0.2-1.2,0.7-1.7
		c0.5-0.5,1-0.7,1.7-0.7c0.7,0,1.4,0.2,1.9,0.5c0.7,0.5,1,1,1,1.7v9.3l3.1-11.5h1l2.9,11v-11h2.2v15.3H411.9z M401.1,36.7
		c0-1-0.5-1.2-1.4-1.2c-1,0-1.2,0.5-1.2,1.2c0,1,0.5,1.4,1.2,1.4C400.6,37.9,401.1,37.4,401.1,36.7z"/>
	<path d="M417.4,40.5c-0.5-0.2-0.7-0.7-1-1.2c-0.2-0.7-0.5-1.2-0.5-1.7c0-1,0.2-1.7,1-2.4c0.7-0.7,1.4-1,2.2-1s1.2,0.2,1.7,0.5
		c0.5,0.2,0.7,1,0.7,1.4c0,1.7-0.7,2.4-2.2,2.4c-0.7,0-1.4-0.5-1.9-1.2c0,1.7,0.7,2.4,2.4,2.4h1.2v1h-1c-1.4,0-2.2,0.7-2.2,1.9v3.1
		c0,0.7,0.2,1.2,1,1.9c0.5,0.5,1.2,0.7,1.9,0.7c0.7,0,1.4-0.2,1.9-0.5c0.7-0.5,1-1,1-1.7V36l1.2-1.7h1V46c0,1-0.5,1.7-1.7,2.6
		c-1,0.7-1.9,1-2.9,1c-1.4,0-2.6-0.2-3.6-1c-1.2-0.7-1.7-1.7-1.7-3.1v-2.2c0-0.5,0.2-1,0.5-1.7C416.4,41.3,416.9,40.8,417.4,40.5z
		 M420.2,36.5c0-0.7-0.5-1.2-1.2-1.2c-0.7,0-1.2,0.5-1.2,1.2c0,0.7,0.5,1.2,1.2,1.2C419.8,37.7,420.2,37.4,420.2,36.5z"/>
	<path d="M430.8,17.8c-0.5,1.9-1.7,2.9-3.3,3.3c0.2,0.2,0.5,0.7,0.5,1.2c0,1.4-0.7,1.9-1.9,1.9c-0.5,0-1-0.2-1.4-0.5
		c-0.5-0.2-0.7-0.7-0.7-1.2c0-1.2,0.7-1.9,2.4-2.4c1.2-0.2,1.9-0.7,2.4-1c0.5-0.5,0.7-1.2,0.7-2.4L430.8,17.8z M426.9,22.6
		c0-0.7-0.5-1.2-1.2-1.2s-1.2,0.5-1.2,1.2s0.5,1,1.2,1C426.7,23.6,426.9,23.3,426.9,22.6z"/>
	<path d="M430.3,49.6v-1h1.7v-10c-0.5,0.2-1,0.5-1.4,0.5c-1.4,0-2.4-0.7-2.4-2.4c0-0.7,0.2-1.4,1-1.7c0.5-0.5,1.2-0.7,1.9-0.7
		c1.9,0,3.1,1,3.1,3.1v11.2h4.1c1.2,0,1.7-0.7,1.7-1.9V26.7l1.4-1.7h0.7v21.7c0,0.7-0.2,1.2-0.5,1.9c-0.5,0.7-1,1-1.4,1H430.3z
		 M431.9,37c0-1-0.5-1.4-1.4-1.4c-0.5,0-0.7,0.2-1,0.5c-0.2,0.2-0.5,0.5-0.5,1c0,0.5,0.2,0.7,0.5,1s0.5,0.5,1,0.5
		C431.5,38.2,431.9,37.7,431.9,37z"/>
	<path d="M455.4,34.3c-0.5,1.9-1.2,2.6-2.2,2.6c-0.5,0-1.2-0.2-2.4-0.5c-1.2-0.2-1.9-0.5-2.2-0.5c-1,0-1.4,0.5-1.7,1.7l6.7,2.2V47
		c0,1-0.2,1.7-1,2.2c-0.5,0.5-1.2,0.7-2.2,0.7c-1.7,0-2.4-0.7-2.4-2.2c0-1.4,0.7-2.2,2.2-2.2c0.5,0,1,0,1.2,0.2v-6l-6-1.9
		c0-0.7,0.5-1.7,1-2.4c0.7-1,1.4-1.4,2.2-1.4c0.7,0,1.7,0.2,3.1,0.7c0.7,0.5,1.2,0.5,1.9,0.5C454.2,35.3,454.6,35,455.4,34.3z
		 M451.8,47.5c0-0.2-0.2-0.7-0.5-1c-0.2-0.2-0.5-0.5-1-0.5c-1,0-1.2,0.5-1.2,1.2c0,1,0.5,1.2,1.2,1.2
		C451.1,48.4,451.8,48.2,451.8,47.5z"/>
	<path d="M469,34.8c0,1.7-0.7,3.1-1.9,4.1c-1.2,1-2.6,1.7-4.3,1.7c-1.2,0-2.2-0.2-2.9-0.7c-1-0.7-1.4-1.4-1.4-2.6
		c0-0.7,0.2-1.2,0.7-1.7c0.5-0.5,1.2-0.7,1.7-0.7c1.9,0,2.9,1,2.9,2.6c0,0.7-0.2,1.2-0.7,1.7c1.2,0,2.4-0.5,3.1-1.2
		c1-0.7,1.2-1.9,1.2-3.1C467.3,34.8,469,34.8,469,34.8z M469,43.9c0,1.7-0.7,3.1-1.9,4.1c-1.2,1-2.6,1.7-4.3,1.7
		c-1.2,0-2.2-0.2-2.9-0.7c-1-0.5-1.4-1.4-1.4-2.6c0-0.7,0.2-1.2,0.7-1.7c0.5-0.5,1.2-0.7,1.7-0.7c1.9,0,2.9,1,2.9,2.6
		c0,0.7-0.2,1.2-0.7,1.7c1.7,0,3.1-0.7,3.8-2.2c0.5-0.7,0.5-1.4,0.5-2.2H469z M463,37.2c0-0.5-0.2-0.7-0.5-1.2s-0.7-0.5-1.2-0.5
		c-0.5,0-0.7,0.2-1.2,0.5s-0.5,0.7-0.5,1.2c0,0.5,0.2,0.7,0.5,1.2c0.2,0.5,0.7,0.5,1.2,0.5c0.5,0,0.7-0.2,1.2-0.5
		C463,38.2,463,37.7,463,37.2z M463,46.3c0-0.5-0.2-0.7-0.5-1.2c-0.2-0.5-0.7-0.5-1.2-0.5c-0.5,0-0.7,0.2-1.2,0.5
		c-0.5,0.2-0.5,0.7-0.5,1.2s0.2,0.7,0.5,1.2c0.2,0.5,0.7,0.5,1.2,0.5c0.5,0,0.7-0.2,1.2-0.5C463,47.2,463,46.8,463,46.3z"/>
	<path d="M473,45.6v-9.8l1.4-1.4h0.5v10.8c0.5,0,1,0.2,1.4,0.7c0.2,0.5,0.5,1,0.5,1.4c0,1.7-0.7,2.4-2.2,2.4c-0.7,0-1.2-0.2-1.7-0.7
		c-0.5-0.5-0.7-1-0.7-1.7C472.3,46.8,472.6,46.3,473,45.6z M476.2,47.2c0-1-0.5-1.4-1.4-1.4c-0.5,0-0.7,0.2-1,0.5
		c-0.2,0.2-0.5,0.7-0.5,1c0,1,0.5,1.7,1.4,1.7C475.7,48.9,476.2,48.4,476.2,47.2z"/>
	<path d="M491.2,47.7l-1.2,1.9h-1v-11c0-1.9-1.4-2.9-4.3-2.9c-1.9,0-3.3,0.7-3.8,2.4h4.5v1h-1.9v8.1c0,0.7-0.2,1.2-0.7,1.7
		c-0.5,0.5-1.2,0.5-1.9,0.5s-1.2-0.2-1.4-0.7c-0.5-0.5-0.7-1-0.7-1.7c0-1.7,1-2.4,2.6-2.4v-5.3h-1.7v-0.5c0-1.2,0.7-2.4,2.2-3.1
		c1.2-0.7,2.6-1.2,3.8-1.2c1.4,0,2.6,0.5,3.6,1.2c1.2,1,1.9,1.9,1.9,3.3V47.7z M482.4,47.2c0-1-0.5-1.2-1.2-1.2
		c-0.7,0-1.2,0.5-1.2,1.2c0,1,0.5,1.2,1.2,1.2C481.9,48.4,482.4,48.2,482.4,47.2z"/>
	<path d="M508.4,49.6H506V37.7c0-1-0.5-1.7-1.2-1.7c-0.5,0-1,0-1.2,0.2s-0.5,1-0.7,1.9l-2.6,11.5h-2.2v-11c-0.2,0.2-0.7,0.2-1.2,0.2
		c-1.7,0-2.4-0.7-2.4-2.4c0-0.7,0.2-1.2,0.7-1.7c0.5-0.5,1.2-0.5,1.9-0.5c1,0,1.7,0.2,2.2,0.7c0.5,0.5,0.7,1.2,0.7,2.2v8.4l2.2-8.1
		c0.5-2.2,1.4-3.1,2.9-3.1c1,0,1.9,0.2,2.4,1c0.5,0.7,1,1.4,1,2.4V49.6z M498.4,36.7c0-1-0.5-1.4-1.4-1.4c-0.5,0-0.7,0.2-1,0.5
		c-0.2,0.2-0.5,0.5-0.5,1s0.2,0.7,0.5,1c0.2,0.2,0.5,0.5,1,0.5s0.7-0.2,1-0.5C498.1,37.4,498.4,37,498.4,36.7z"/>
	<path d="M523.7,49.6h-2.2v-11c0-0.5-0.2-1-0.7-1.4c-0.5-0.5-0.7-1-1.2-1l-1.7,2.2l-2.2-2.6c-0.7,0.2-1.4,0.7-2.2,1.7
		c-0.5,0.7-0.7,1.7-0.7,2.6s0.5,1.9,1.4,3.1c0.2,0.2,0.5,0.5,0.7,1.2c0.2,0.5,0.5,1,0.5,1.2c0,0,0.5-0.5,1-0.7c0,0,0.2-0.2,0.7-0.7
		c-1.4,0-2.2-1-2.2-2.4c0-0.7,0.2-1.2,0.7-1.7c0.5-0.5,1-0.7,1.7-0.7c1.7,0,2.4,0.7,2.4,2.4c0,1-0.7,2.2-2.2,3.6l-1.7,1.7
		c-0.2,0.2-0.5,0.7-0.5,1.2v1.4h-2.2v-4.8c0-0.2-0.2-0.5-0.5-1.2c-0.7-1.4-1-2.6-1-3.8c0-1.2,0.5-2.2,1.4-3.3c1-1,1.9-1.7,2.9-2.2
		l1.9,2.2l1.9-2.2c1,0.2,1.9,0.7,2.6,1.4s1.2,1.7,1.2,2.9v11H523.7z M518.9,41.3c0-0.5-0.2-0.7-0.5-1c-0.2-0.2-0.7-0.5-1-0.5
		c-0.2,0-0.7,0.2-1,0.5c-0.2,0.2-0.5,0.7-0.5,1c0,0.5,0.2,0.7,0.5,1c0.2,0.2,0.7,0.5,1,0.5c0.5,0,0.7-0.2,1-0.5
		C518.7,42,518.9,41.7,518.9,41.3z"/>
	<path d="M523.2,17.8l-0.5,4.8h-1.4l-0.5-4.8C520.8,17.8,523.2,17.8,523.2,17.8z"/>
	<path d="M534.9,49.6h-2.2V37.7c0-1.7-0.7-2.4-2.4-2.4c-1,0-1.9,0.5-2.9,1.7l-0.2-1c1-1.2,2.4-1.9,3.8-1.9c2.6,0,4.1,1,4.1,3.1v12.4
		H534.9z"/>
	<path d="M546.6,49.6h-2.2l-6.5-8.1v-1l6.5,6v-7.9c-0.2,0.2-0.7,0.2-1.2,0.2c-0.7,0-1.2-0.2-1.4-0.7c-0.2-0.5-0.5-1-0.5-1.4
		c0-0.7,0.2-1.2,0.7-1.7c0.5-0.5,1.2-0.7,1.9-0.7c1.7,0,2.6,1,2.6,3.1V49.6L546.6,49.6z M545,36.7c0-1-0.5-1.4-1.2-1.4
		c-0.7,0-1.2,0.5-1.2,1.4s0.5,1.2,1.2,1.2C544.5,37.9,545,37.7,545,36.7z"/>
	<path d="M568.4,54.4h-2.2V38.2c0-0.5-0.2-1-0.7-1.4c-0.5-0.5-1-0.7-1.4-0.7c-0.2,0-0.2,0-0.5,0.2l-1.2,1.4l-1.2-1.2
		c-0.2-0.5-0.7-0.5-1-0.5c-0.7,0-1.4,0.5-2.2,1.2c-0.5,0.7-1,1.7-1,2.4c0,1.4,0.5,2.2,1.7,2.2c0.5,0,0.7-0.2,0.7-0.7
		c0-0.5-0.2-1-0.7-1.2l1-0.7c1,0.2,1.4,1,1.4,1.9c0,1.2-0.5,1.7-1.7,1.7c-2.2,0-3.1-1-3.1-2.9c0-1.2,0.5-2.2,1.4-3.3
		c1-1.2,1.9-1.9,3.1-1.9l1.7,1.9l1.7-1.9c1,0.2,1.9,0.5,2.6,1.2c1,0.7,1.7,1.7,1.7,2.4v16.2H568.4z"/>
</g>
<g>
	<path d="M213.9,422.7l-1.2,2.6h-6.2l-1.4,2.9c2.4,0.2,4.3,1.2,5.7,2.4c1.7,1.4,2.6,3.3,2.6,5.5c0,2.2-0.7,4.1-2.4,5.5
		c-1.7,1.4-3.6,2.4-5.7,2.4c-2.4,0-3.6-0.7-3.6-2.2c0-0.7,0.5-1.2,1.2-1.2c0.5,0,1,0.2,1.7,0.7c0.7,0.5,1.4,0.7,2.4,0.7
		c1.2,0,2.4-0.5,3.1-1.4c0.7-1,1.2-1.9,1.2-3.3c0-2.4-1-4.1-3.1-5.3c-1.7-1-3.6-1.4-6.2-1.7l4.1-8.1h7.9V422.7z"/>
	<path d="M227.8,443.5v-1.2h2.2v-12.4c-0.5,0.5-1,0.5-1.7,0.5c-1.9,0-2.9-1-2.9-3.1c0-1,0.2-1.7,1-2.2s1.4-0.7,2.4-0.7
		c2.4,0,3.8,1.2,3.8,3.8v14.1h5.3c1.4,0,2.2-0.7,2.2-2.4v-25.1l1.7-2.2h1v27.2c0,1-0.2,1.7-0.5,2.4c-0.5,0.7-1.2,1.2-1.9,1.2H227.8z
		 M229.9,427.5c0-1.2-0.5-1.7-1.7-1.7c-0.5,0-1,0.2-1.2,0.5c-0.2,0.2-0.5,0.7-0.5,1.2c0,0.5,0.2,1,0.5,1.2c0.2,0.2,0.7,0.5,1.2,0.5
		C229.2,429.2,229.9,428.7,229.9,427.5z"/>
	<path d="M242.6,421.5c-1.4-0.5-3.1-1-5.3-1.4c-2.2-0.5-3.8-0.5-5.3-0.5c-1.2,0-2.6,0.2-4.8,0.7c0.2-1.9,1-3.3,2.4-4.5
		c1.4-1.2,2.9-1.7,4.8-1.7c1.7,0,3.3,0.5,4.5,1.2v-3.1h2.6v6C242.3,419.4,242.6,420.6,242.6,421.5z M240.9,420.1
		c-1.2-2.9-3.3-4.5-6.7-4.5c-2.4,0-4.3,1.2-5.5,3.3c1.4-0.2,2.6-0.5,4.1-0.5C235.7,418.7,238.3,419.2,240.9,420.1z"/>
</g>
<g>
	<path d="M524.2,442.4h-7.9v-0.5c0.7,0,1.2,0,1.4,0c0.5,0,1-0.2,1.2-0.7c0.2-0.2,0.2-1,0.2-2.4v-11.2c0-1.4,0-2.2,0-2.4
		c-0.2-1-0.5-1.7-1.2-1.7c-0.5,0-1,0.2-1.7,0.5l-0.2-0.5l5-2.4h0.5v17.7c0,1.7,0.2,2.4,0.7,2.9c0.2,0.2,1,0.2,1.9,0.2V442.4z"/>
	<path d="M542.6,431.6c0,2.6-0.5,5-1.4,6.9c-1.2,2.6-3.1,4.1-5.5,4.1c-2.2,0-3.8-1.2-5.3-3.8c-1-2.2-1.4-4.3-1.4-6.7
		c0-2.6,0.5-5,1.4-6.9c1.2-2.6,3.1-4.1,5.3-4.1c1.4,0,2.6,0.5,3.6,1.7c1,1,1.7,2.2,2.2,3.6C542.3,427.8,542.6,429.7,542.6,431.6z
		 M539.7,431.1c0-6-1.2-9.1-3.6-9.1c-2.6,0-3.8,3.3-3.8,10.3c0,2.2,0.2,3.8,0.5,5.5c0.7,2.6,1.7,3.8,3.1,3.8
		C538.3,441.9,539.7,438.3,539.7,431.1z"/>
	<path d="M555.5,442.4v-1.2h2.2v-12.4c-0.5,0.5-1,0.5-1.7,0.5c-1.9,0-2.9-1-2.9-3.1c0-1,0.2-1.7,1-2.2s1.4-0.7,2.4-0.7
		c2.4,0,3.8,1.2,3.8,3.8v14.1h5.3c1.4,0,2.2-0.7,2.2-2.4v-25.1l1.7-2.2h1v27.2c0,1-0.2,1.7-0.5,2.4c-0.5,0.7-1.2,1.2-1.9,1.2H555.5z
		 M557.6,426.4c0-1.2-0.5-1.7-1.7-1.7c-0.5,0-1,0.2-1.2,0.5c-0.2,0.2-0.5,0.7-0.5,1.2c0,0.5,0.2,1,0.5,1.2s0.7,0.5,1.2,0.5
		C556.9,428,557.6,427.6,557.6,426.4z"/>
	<path d="M570.3,420.4c-1.4-0.5-3.1-1-5.3-1.4c-2.2-0.5-3.8-0.5-5.3-0.5c-1.2,0-2.6,0.2-4.8,0.7c0.2-1.9,1-3.3,2.4-4.5
		c1.4-1.2,2.9-1.7,4.8-1.7c1.7,0,3.3,0.5,4.5,1.2v-3.1h2.6v6C570.1,418.2,570.3,419.4,570.3,420.4z M568.6,419
		c-1.2-2.9-3.3-4.5-6.7-4.5c-2.4,0-4.3,1.2-5.5,3.3c1.4-0.2,2.6-0.5,4.1-0.5C563.4,417.5,566,418,568.6,419z"/>
</g>
<g>
	<path d="M230,851.3l-1.4,4.1h-12.4v-0.5c2.9-2.6,4.8-4.5,6.2-6.2c2.4-2.9,3.6-5.5,3.6-7.6c0-1.2-0.5-2.4-1.2-3.1
		c-0.7-1-1.9-1.4-3.1-1.4c-2.2,0-3.8,1.2-4.5,3.6h-0.5c0.5-3.8,2.6-6,6-6c1.7,0,3.1,0.5,4.1,1.4c1.2,1,1.9,2.4,1.9,4.1
		c0,2.4-1.7,5.7-5.3,9.6c-2.2,2.2-3.3,3.6-3.8,4.1h5.5c1.2,0,2.2,0,2.6-0.2c1-0.2,1.4-0.7,1.9-1.4h0.5V851.3z"/>
	<path d="M246,844.6c0,2.6-0.5,5-1.4,6.9c-1.2,2.6-3.1,4.1-5.5,4.1c-2.2,0-3.8-1.2-5.3-3.8c-1-2.2-1.4-4.3-1.4-6.7
		c0-2.6,0.5-5,1.4-6.9c1.2-2.6,3.1-4.1,5.3-4.1c1.4,0,2.6,0.5,3.6,1.7c1,1,1.7,2.2,2.2,3.6C245.8,840.8,246,842.7,246,844.6z
		 M242.9,844.2c0-6-1.2-9.1-3.6-9.1c-2.6,0-3.8,3.3-3.8,10.3c0,2.2,0.2,3.8,0.5,5.5c0.7,2.6,1.7,3.8,3.1,3.8
		C241.7,854.9,242.9,851.3,242.9,844.2z"/>
	<path d="M266.8,855.4v-1.2h2.2v-12.4c-0.5,0.5-1,0.5-1.7,0.5c-1.9,0-2.9-1-2.9-3.1c0-1,0.2-1.7,1-2.2c0.7-0.5,1.4-0.7,2.4-0.7
		c2.4,0,3.8,1.2,3.8,3.8v14.1h5.3c1.4,0,2.2-0.7,2.2-2.4v-25.1l1.7-2.2h1v27.2c0,1-0.2,1.7-0.5,2.4c-0.5,0.7-1.2,1.2-1.9,1.2H266.8z
		 M268.7,839.4c0-1.2-0.5-1.7-1.7-1.7c-0.5,0-1,0.2-1.2,0.5c-0.2,0.2-0.5,0.7-0.5,1.2c0,0.5,0.2,1,0.5,1.2c0.2,0.2,0.7,0.5,1.2,0.5
		C268.2,841,268.7,840.6,268.7,839.4z"/>
	<path d="M281.6,833.4c-1.4-0.5-3.1-1-5.3-1.4c-2.2-0.5-3.8-0.5-5.3-0.5c-1.2,0-2.6,0.2-4.8,0.7c0.2-1.9,1-3.3,2.4-4.5
		c1.4-1.2,2.9-1.7,4.8-1.7c1.7,0,3.3,0.5,4.5,1.2v-3.1h2.6v6C281.1,831.2,281.6,832.4,281.6,833.4z M279.9,832
		c-1.2-2.9-3.3-4.5-6.7-4.5c-2.4,0-4.3,1.2-5.5,3.3c1.4-0.2,2.6-0.5,4.1-0.5C274.4,830.5,277.3,831,279.9,832z"/>
</g>
<g>
	<path d="M531,651.4v3.2c0,0.5,0.3,1.1,0.8,1.6c0.5,0.3,1.1,0.5,1.6,0.5c0.5,0,1.1-0.3,1.6-0.5c0.5-0.3,0.8-0.8,0.8-1.3v-6.4
		c0-1.9-1.3-2.7-3.7-2.7c-1.6,0-2.7,0.8-3.7,2.4l-0.5-0.3c0.8-2.1,2.4-2.9,5-2.9c1.3,0,2.4,0.3,3.2,0.8c1.1,0.5,1.6,1.6,1.6,2.7v6.4
		c0,0.8-0.5,1.3-1.6,2.1c-1.1,0.5-1.9,0.8-2.7,0.8s-1.9-0.3-2.7-0.8c-1.1-0.5-1.6-1.3-1.6-2.1v-4.5c0-1.6,0.8-2.4,2.4-2.4
		c0.5,0,1.1,0.3,1.3,0.5c0.3,0.3,0.5,0.8,0.5,1.3c0,1.3-0.8,1.9-2.1,1.9C531.2,651.6,531,651.6,531,651.4z M532.5,649.8
		c0-0.8-0.3-1.1-1.1-1.1c-0.8,0-1.1,0.3-1.1,1.1c0,0.8,0.3,1.1,1.1,1.1C532.3,650.8,532.5,650.6,532.5,649.8z"/>
	<path d="M552.7,643.7c0,1.9-0.5,2.9-1.9,3.5v10.4H549v-6.6c0-0.8-0.3-1.3-1.1-1.6c-0.5-0.3-1.3-0.5-2.1-0.5c-1.3,0-1.9,0.8-1.9,2.4
		v2.7c0.3,0,0.3,0,0.5,0c1.3,0,1.9,0.5,1.9,1.9c0,0.5-0.3,1.1-0.5,1.3c-0.3,0.3-0.8,0.5-1.3,0.5c-1.6,0-2.4-0.8-2.4-2.7v-3.7
		c0-1.1,0.5-1.9,1.3-2.7s1.6-1.1,2.7-1.1c0.5,0,0.8,0,1.1,0l1.3-0.5c-0.8-0.8-1.6-1.3-2.9-1.3c-1.6,0-2.9,0.8-4.3,2.4l-0.5-0.5
		c1.6-1.9,3.2-2.9,4.8-2.9c1.9,0,3.5,0.5,4.5,1.6c0.8-0.5,1.1-1.3,1.1-2.7h1.6V643.7z M545.6,655.6c0-0.3,0-0.5-0.3-0.8
		c-0.3-0.3-0.5-0.3-0.8-0.3c-0.3,0-0.5,0-0.8,0.3c-0.3,0.3-0.3,0.5-0.3,0.8c0,0.8,0.3,1.1,1.1,1.1c0.5,0,0.8-0.3,1.1-0.5
		C545.6,656.1,545.6,655.9,545.6,655.6z M548.8,647.6l-1.3,0.3c0.3,0,0.8,0.5,1.3,1.1l0.3,0.3c0,0,0,0,0-0.3
		C549.3,648.7,549,648.2,548.8,647.6z"/>
	<path d="M554.6,637.8c0,1.3-0.5,2.4-1.6,3.5c-1.1,0.8-2.1,1.3-3.5,1.3c-1.1,0-1.9-0.3-2.4-0.5c-0.8-0.5-1.1-1.1-1.1-2.1
		c0-0.5,0.3-1.1,0.5-1.3c0.3-0.3,0.8-0.5,1.3-0.5c1.6,0,2.4,0.8,2.4,2.1c0,0.5-0.3,1.1-0.5,1.3c1.1,0,1.9-0.3,2.7-1.1
		s1.1-1.6,1.1-2.7H554.6L554.6,637.8z M549.5,639.9c0-0.3,0-0.8-0.3-0.8c-0.3,0-0.5-0.3-0.8-0.3c-0.3,0-0.8,0-0.8,0.3
		c-0.3,0.3-0.3,0.5-0.3,0.8s0,0.8,0.3,0.8c0.3,0.3,0.5,0.3,0.8,0.3c0.3,0,0.8,0,0.8-0.3C549.3,640.5,549.5,640.2,549.5,639.9z"/>
	<path d="M561.8,657.5h-1.9l-5.3-6.6V650l5.3,4.8v-6.6c-0.3,0.3-0.5,0.3-1.1,0.3c-0.5,0-0.8-0.3-1.3-0.5c-0.3-0.3-0.5-0.8-0.5-1.3
		c0-0.5,0.3-1.1,0.5-1.3c0.5-0.3,0.8-0.5,1.6-0.5c1.6,0,2.1,0.8,2.1,2.7v10.1H561.8z M560.2,646.9c0-0.8-0.3-1.1-1.1-1.1
		c-0.8,0-1.1,0.3-1.1,1.1s0.3,1.1,1.1,1.1C559.9,647.9,560.2,647.6,560.2,646.9z"/>
	<path d="M575.6,648.4l0.3,0.8v8.2H574v-8.8c-0.5,0-1.6,0.8-2.9,2.1c-1.3,1.3-2.1,2.4-2.1,2.9v3.5h-1.9v-9.3c-0.3,0-0.5,0.3-0.8,0.3
		c-1.3,0-1.9-0.5-1.9-1.9c0-0.5,0.3-1.1,0.5-1.3c0.3-0.3,0.8-0.5,1.3-0.5c1.6,0,2.4,0.8,2.4,2.1v5.3c0.8-1.1,1.6-1.9,2.4-2.7
		l1.1-0.8c0.3-0.3,0.5-0.5,1.1-0.8c-0.3-0.3-0.5-0.8-0.5-1.3s0.3-1.1,0.5-1.3c0.3-0.3,0.8-0.5,1.3-0.5c1.1,0,1.9,0.5,1.9,1.9
		C576.6,647.6,576.1,648.2,575.6,648.4z M567.3,646.9c0-0.8-0.3-1.1-1.1-1.1c-0.8,0-1.1,0.3-1.1,1.1s0.3,1.1,1.1,1.1
		C567.1,647.9,567.3,647.4,567.3,646.9z M575.8,646.9c0-0.8-0.3-1.1-1.1-1.1c-0.8,0-1.1,0.3-1.1,1.1c0,0.8,0.3,1.1,1.1,1.1
		C575.6,647.9,575.8,647.4,575.8,646.9z"/>
	<path d="M585.9,657.5h-1.9v-9.8c0-1.3-0.8-1.9-2.1-1.9c-0.8,0-1.6,0.5-2.4,1.3l-0.3-0.8c0.8-1.1,1.9-1.6,3.2-1.6
		c2.1,0,3.5,0.8,3.5,2.4V657.5z"/>
	<path d="M596.6,644.7c-0.3,1.6-1.1,2.1-1.9,2.1c-0.3,0-1.1-0.3-1.9-0.5s-1.6-0.5-1.9-0.5c-0.8,0-1.1,0.5-1.3,1.3l5.6,1.6v6.1
		c0,0.8-0.3,1.3-0.8,1.9c-0.5,0.3-1.1,0.5-1.9,0.5c-1.3,0-2.1-0.5-2.1-1.9c0-1.3,0.5-1.9,1.9-1.9c0.5,0,0.8,0,1.1,0.3v-4.5l-5-1.6
		c0-0.5,0.3-1.3,0.8-2.1c0.5-0.8,1.1-1.1,1.9-1.1c0.5,0,1.3,0.3,2.7,0.5c0.5,0,0.8,0.3,1.6,0.3C595.8,645.5,596,645.3,596.6,644.7z
		 M593.6,655.6c0-0.3,0-0.5-0.3-0.8c-0.3-0.3-0.5-0.3-0.8-0.3c-0.8,0-1.1,0.3-1.1,1.1s0.3,1.1,1.1,1.1
		C593.4,656.7,593.6,656.4,593.6,655.6z"/>
	<path d="M597.4,642.6c-2.1-1.1-4.5-1.6-7.2-1.6c-0.8,0-1.6,0-2.7,0.3c0.3-1.3,0.8-2.1,1.9-2.9c1.1-0.8,2.1-1.1,3.5-1.1
		c1.6,0,2.7,0.5,3.7,1.6C597.1,639.7,597.4,641,597.4,642.6z M596.6,641.3c-0.3-0.8-0.8-1.6-1.3-2.1c-0.8-0.5-1.6-0.8-2.4-0.8
		c-1.9,0-3.5,0.8-4.3,2.1c0.8,0,1.6-0.3,2.1-0.3C592.9,640.2,594.7,640.5,596.6,641.3z"/>
	<path d="M603.7,654.6v1.1c0,0.5-0.3,1.1-0.5,1.3c-0.3,0.3-0.8,0.5-1.3,0.5c-1.3,0-1.9-0.5-1.9-1.9c0-1.3,0.8-2.1,2.1-2.1v-5
		c-0.3,0-0.5,0.3-0.8,0.3c-0.5,0-0.8-0.3-1.3-0.5c-0.3-0.3-0.5-0.8-0.5-1.3s0.3-1.1,0.5-1.3c0.3-0.3,0.8-0.5,1.6-0.5
		c0.5,0,1.1,0.3,1.6,0.5c0.5,0.3,0.8,0.8,0.8,1.6v6.4c0.5,0.5,1.3,1.1,1.9,1.6c1.1,0.8,1.6,1.1,2.1,1.1c0.3,0,0.5-0.3,0.5-1.1v-8.5
		l1.1-1.6h0.5v10.6c0,0.5-0.3,1.1-0.5,1.3c-0.3,0.5-0.8,0.8-1.3,0.8c-0.5,0-1.3-0.5-2.9-1.9C604.8,655.4,604.3,655.1,603.7,654.6z
		 M602.4,646.9c0-0.3,0-0.5-0.3-0.8c-0.3-0.3-0.5-0.3-0.8-0.3c-0.3,0-0.5,0-0.8,0.3c-0.3,0.3-0.3,0.5-0.3,0.8c0,0.3,0,0.5,0.3,0.8
		c0.3,0.3,0.5,0.3,0.8,0.3c0.3,0,0.5,0,0.8-0.3C602.4,647.4,602.4,647.1,602.4,646.9z M602.1,656.1v-1.9c-0.8,0-1.3,0.5-1.3,1.3
		c0,0.8,0.3,1.1,0.8,1.1C601.9,656.7,602.1,656.4,602.1,656.1z"/>
	<path d="M624.2,657.5h-1.9v-10.1c0-0.8-0.3-1.3-1.1-1.3c-0.5,0-0.8,0-1.1,0.3c-0.3,0.3-0.5,0.8-0.5,1.6l-2.4,9.6h-1.9v-9
		c-0.3,0.3-0.5,0.3-0.8,0.3c-1.3,0-1.9-0.5-1.9-1.9c0-0.5,0.3-1.1,0.5-1.3c0.5-0.3,0.8-0.5,1.6-0.5s1.3,0.3,1.9,0.5
		c0.5,0.5,0.8,1.1,0.8,1.9v6.9l1.9-6.9c0.5-1.6,1.3-2.7,2.4-2.7c0.8,0,1.6,0.3,1.9,0.8c0.5,0.5,0.8,1.3,0.8,2.1v9.8H624.2z
		 M616,646.9c0-0.8-0.3-1.1-1.1-1.1c-0.3,0-0.5,0-0.8,0.3c-0.3,0.3-0.3,0.5-0.3,0.8s0,0.5,0.3,0.8c0.3,0.3,0.5,0.3,0.8,0.3
		c0.3,0,0.5,0,0.8-0.3C616,647.4,616,647.1,616,646.9z"/>
	<path d="M635.4,644.7c-0.3,1.6-1.1,2.1-1.9,2.1c-0.3,0-1.1-0.3-1.9-0.5s-1.6-0.5-1.9-0.5c-0.8,0-1.1,0.5-1.3,1.3l5.6,1.6v6.1
		c0,0.8-0.3,1.3-0.8,1.9c-0.5,0.3-1.1,0.5-1.9,0.5c-1.3,0-2.1-0.5-2.1-1.9c0-1.3,0.5-1.9,1.9-1.9c0.5,0,0.8,0,1.1,0.3v-4.5l-5-1.6
		c0-0.5,0.3-1.3,0.8-2.1c0.5-0.8,1.1-1.1,1.9-1.1c0.5,0,1.3,0.3,2.7,0.5c0.5,0,0.8,0.3,1.6,0.3C634.3,645.5,634.8,645.3,635.4,644.7
		z M632.2,655.6c0-0.3,0-0.5-0.3-0.8c-0.3-0.3-0.5-0.3-0.8-0.3c-0.8,0-1.1,0.3-1.1,1.1s0.3,1.1,1.1,1.1
		C631.9,656.7,632.2,656.4,632.2,655.6z"/>
	<path d="M638,637.8c0,1.3-0.5,2.4-1.6,3.5c-1.1,0.8-2.1,1.3-3.5,1.3c-1.1,0-1.9-0.3-2.4-0.5c-0.8-0.5-1.1-1.1-1.1-2.1
		c0-0.5,0.3-1.1,0.5-1.3c0.3-0.3,0.8-0.5,1.3-0.5c1.6,0,2.4,0.8,2.4,2.1c0,0.5-0.3,1.1-0.5,1.3c1.1,0,1.9-0.3,2.7-1.1
		c0.8-0.8,1.1-1.6,1.1-2.7H638L638,637.8z M633,639.9c0-0.3,0-0.8-0.3-0.8c-0.3,0-0.5-0.3-0.8-0.3s-0.8,0-0.8,0.3
		c-0.3,0.3-0.3,0.5-0.3,0.8s0,0.8,0.3,0.8c0.3,0.3,0.5,0.3,0.8,0.3s0.8,0,0.8-0.3C632.7,640.5,633,640.2,633,639.9z"/>
	<path d="M650,657.5h-1.9l-2.9-10.9l-2.9,10.9h-1.9v-9.3c-0.3,0-0.5,0.3-0.8,0.3c-1.3,0-1.9-0.5-1.9-1.9c0-0.5,0.3-1.1,0.5-1.3
		c0.3-0.3,0.8-0.5,1.3-0.5c0.5,0,1.1,0.3,1.6,0.5c0.5,0.3,0.8,0.8,0.8,1.3v7.7l2.7-9.6h0.8l2.4,9.3v-9.3h1.9v12.8H650z M640.9,646.9
		c0-0.8-0.3-1.1-1.1-1.1c-0.8,0-1.1,0.3-1.1,1.1s0.3,1.1,1.1,1.1C640.7,647.9,640.9,647.4,640.9,646.9z"/>
	<path d="M654.5,650c-0.3-0.3-0.5-0.5-0.8-1.1c-0.3-0.5-0.3-1.1-0.3-1.3c0-0.8,0.3-1.3,0.8-1.9c0.5-0.5,1.1-0.8,1.9-0.8
		c0.5,0,1.1,0.3,1.3,0.5c0.3,0.3,0.5,0.8,0.5,1.3c0,1.3-0.5,1.9-1.6,1.9c-0.8,0-1.3-0.3-1.6-0.8c0,1.3,0.8,2.1,2.1,2.1h1.1v0.8h-0.8
		c-1.1,0-1.6,0.5-1.6,1.6v2.7c0,0.5,0.3,1.1,0.8,1.6c0.5,0.3,1.1,0.5,1.6,0.5s1.1-0.3,1.6-0.5c0.5-0.3,0.8-0.8,0.8-1.3v-8.5l1.1-1.3
		h0.8v9.8c0,0.8-0.5,1.6-1.3,2.1s-1.6,0.8-2.4,0.8c-1.1,0-2.1-0.3-2.9-0.8c-1.1-0.5-1.6-1.6-1.6-2.7v-2.4c0-0.5,0-0.8,0.3-1.3
		C654,650.6,654.2,650.3,654.5,650z M656.9,646.6c0-0.5-0.3-1.1-1.1-1.1c-0.5,0-1.1,0.3-1.1,1.1c0,0.5,0.3,1.1,1.1,1.1
		C656.6,647.6,656.9,647.4,656.9,646.6z"/>
	<path d="M665.9,630.9c-0.3,1.6-1.3,2.4-2.9,2.9c0.3,0.3,0.3,0.5,0.3,1.1c0,1.1-0.5,1.6-1.6,1.6c-0.5,0-0.8-0.3-1.3-0.5
		c-0.5-0.3-0.5-0.8-0.5-1.1c0-1.1,0.5-1.6,1.9-2.1c1.1-0.3,1.6-0.5,2.1-0.8c0.5-0.5,0.5-1.1,0.5-2.1L665.9,630.9z M662.7,634.9
		c0-0.8-0.3-1.1-1.1-1.1c-0.8,0-1.1,0.3-1.1,1.1c0,0.5,0.3,0.8,1.1,0.8C662.5,636,662.7,635.7,662.7,634.9z"/>
</g>
<g>
	<path d="M538.9,711.3l0.3,0.8v8.2h-1.9v-8.8c-0.5,0-1.6,0.8-2.9,2.1c-1.3,1.3-2.1,2.4-2.1,2.9v3.5h-1.9v-9.3
		c-0.3,0-0.5,0.3-0.8,0.3c-1.3,0-1.9-0.5-1.9-1.9c0-0.5,0.3-1.1,0.5-1.3s0.8-0.5,1.3-0.5c1.6,0,2.4,0.8,2.4,2.1v5.3
		c0.8-1.1,1.6-1.9,2.4-2.7l1.1-0.8c0.3-0.3,0.5-0.5,1.1-0.8c-0.3-0.3-0.5-0.8-0.5-1.3s0.3-1.1,0.5-1.3s0.8-0.5,1.3-0.5
		c1.1,0,1.9,0.5,1.9,1.9C540,710.5,539.7,711,538.9,711.3z M530.7,709.7c0-0.8-0.3-1.1-1.1-1.1c-0.8,0-1.1,0.3-1.1,1.1
		c0,0.8,0.3,1.1,1.1,1.1C530.4,710.8,530.7,710.2,530.7,709.7z M539.2,709.7c0-0.8-0.3-1.1-1.1-1.1c-0.8,0-1.1,0.3-1.1,1.1
		s0.3,1.1,1.1,1.1C538.9,710.8,539.2,710.5,539.2,709.7z"/>
	<path d="M540,726.7h-1.9v-1.9c-0.3,0-0.5,0-0.5,0c-1.1,0-1.9-0.5-1.9-1.6c0-0.5,0.3-1.1,0.5-1.3c0.3-0.3,0.8-0.5,1.3-0.5
		c1.3,0,2.1,0.8,2.1,2.4v2.9H540z M538.4,723.2c0-0.8-0.3-1.1-1.1-1.1c-0.8,0-1.1,0.3-1.1,1.1c0,0.5,0.3,1.1,1.1,1.1
		C538.1,724.3,538.4,723.8,538.4,723.2z"/>
	<path d="M543.4,691.1c0,4.3-2.1,6.4-6.4,6.4v-0.8c0.5,0,1.1-0.3,1.3-0.5c0.5-0.3,0.8-0.8,0.8-1.3c-1.3,0-2.1-0.5-2.1-1.6
		c0-0.5,0.3-0.8,0.5-1.1s0.5-0.5,1.1-0.5c1.1,0,1.9,0.8,1.9,2.1c0,1.1-0.5,1.9-1.3,2.7c2.1-0.8,3.2-2.7,3.2-5.6h1.1V691.1z
		 M539.7,693.2c0-0.5-0.3-1.1-0.8-1.1c-0.5,0-0.8,0.3-0.8,1.1c0,0.5,0.3,0.8,0.8,0.8C539.5,694.3,539.7,693.8,539.7,693.2z"/>
	<path d="M551.7,717.4c-1.1,0-2.1,0.3-2.9,0.8c-1.1,0.5-1.6,1.3-1.6,2.4h-1.9v-9.3c-0.3,0.3-0.5,0.3-1.1,0.3c-0.5,0-0.8-0.3-1.3-0.5
		c-0.3-0.3-0.5-0.8-0.5-1.3c0-1.3,0.8-1.9,2.1-1.9c1.6,0,2.4,0.8,2.4,2.4v8.2c1.1-1.3,2.4-1.9,4.3-1.9c0.3,0,0.5,0,0.8,0v-7.7
		l1.3-1.3h0.5v8.8v0.5c0.8,0.5,1.1,1.1,1.1,1.9c0,1.3-0.5,1.9-1.9,1.9c-1.3,0-1.9-0.5-1.9-1.9C551.1,717.9,551.4,717.7,551.7,717.4z
		 M545.8,709.4c0-0.8-0.3-1.1-1.1-1.1s-1.1,0.3-1.1,1.1s0.3,1.1,1.1,1.1S545.8,710.2,545.8,709.4z M554.1,718.7
		c0-0.8-0.3-1.1-1.1-1.1c-0.8,0-1.1,0.3-1.1,1.1c0,0.8,0.3,1.1,1.1,1.1C553.8,719.8,554.1,719.5,554.1,718.7z"/>
</g>
<g>
	<path d="M540,778.4h-1.9l-2.9-10.9l-2.9,10.9h-1.9v-9.3c-0.3,0-0.5,0.3-0.8,0.3c-1.3,0-1.9-0.5-1.9-1.9c0-0.5,0.3-1.1,0.5-1.3
		c0.3-0.3,0.8-0.5,1.3-0.5c0.5,0,1.1,0.3,1.6,0.5c0.5,0.3,0.8,0.8,0.8,1.3v7.7l2.7-9.6h0.8l2.4,9.3v-9.3h1.9v12.8H540z M531,767.5
		c0-0.8-0.3-1.1-1.1-1.1c-0.8,0-1.1,0.3-1.1,1.1c0,0.8,0.3,1.1,1.1,1.1C530.4,768.6,531,768.3,531,767.5z"/>
	<path d="M542.6,758.5c0,1.3-0.5,2.4-1.6,3.5c-1.1,0.8-2.1,1.3-3.5,1.3c-1.1,0-1.9-0.3-2.4-0.5c-0.8-0.5-1.1-1.1-1.1-2.1
		c0-0.5,0.3-1.1,0.5-1.3c0.3-0.3,0.8-0.5,1.3-0.5c1.6,0,2.4,0.8,2.4,2.1c0,0.5-0.3,1.1-0.5,1.3c1.1,0,1.9-0.3,2.7-1.1
		c0.8-0.8,1.1-1.6,1.1-2.7L542.6,758.5L542.6,758.5z M537.9,760.6c0-0.3,0-0.8-0.3-0.8c-0.3,0-0.5-0.3-0.8-0.3c-0.3,0-0.8,0-0.8,0.3
		c-0.3,0.3-0.3,0.5-0.3,0.8s0,0.8,0.3,0.8c0.3,0.3,0.5,0.3,0.8,0.3c0.3,0,0.8,0,0.8-0.3S537.9,760.9,537.9,760.6z"/>
	<path d="M551.7,775.2c-1.1,0-2.1,0.3-2.9,0.8c-1.1,0.5-1.6,1.3-1.6,2.4h-1.9v-9.3c-0.3,0.3-0.5,0.3-1.1,0.3c-0.5,0-0.8-0.3-1.3-0.5
		c-0.3-0.3-0.5-0.8-0.5-1.3c0-1.3,0.8-1.9,2.1-1.9c1.6,0,2.4,0.8,2.4,2.4v8.2c1.1-1.3,2.4-1.9,4.3-1.9c0.3,0,0.5,0,0.8,0v-7.7
		l1.3-1.3h0.5v8.8l-0.5,0.5c0.8,0.5,1.1,1.1,1.1,1.9c0,1.3-0.5,1.9-1.9,1.9c-1.3,0-1.9-0.5-1.9-1.9
		C551.1,776,551.1,775.5,551.7,775.2z M545.6,767.5c0-0.8-0.3-1.1-1.1-1.1c-0.8,0-1.1,0.3-1.1,1.1c0,0.8,0.3,1.1,1.1,1.1
		C545.3,768.6,545.6,768,545.6,767.5z M554.1,776.5c0-0.8-0.3-1.1-1.1-1.1c-0.8,0-1.1,0.3-1.1,1.1c0,0.8,0.3,1.1,1.1,1.1
		C553.5,777.6,554.1,777.3,554.1,776.5z"/>
	<path d="M561,766.7l1.1,1.3v0.8l4.3,1.3v6.1c0,0.5-0.3,1.1-0.5,1.6c-0.3,0.5-0.8,0.5-1.3,0.5h-5.3v-0.8h1.3v-8l-2.9-0.8
		c0-0.8,0.5-1.6,1.3-2.4c0.8-0.5,1.6-0.8,2.7-0.8c0.8,0,1.9,0.3,3.2,0.8c0.3,0.3,0.8,0.3,1.1,0.3c0.5,0,0.8-0.3,1.1-0.8v-0.3
		c0,0,0,0,0,0.3c0,0.5-0.3,1.1-0.5,1.6c-0.3,0.5-0.8,0.8-1.3,0.8c-0.5,0-1.3-0.3-2.4-0.8c-0.3,0-0.5-0.3-1.1-0.5L561,766.7z
		 M560.4,768.6v-1.9c-0.8,0-1.6,0.5-1.9,1.3L560.4,768.6z M564.4,776v-5.3l-2.4-0.8v7.7h1.1C564.2,777.6,564.4,777.1,564.4,776z"/>
	<path d="M571.1,778.4v-0.8h1.3v-8.2c-0.3,0.3-0.8,0.3-1.1,0.3c-1.3,0-1.9-0.8-1.9-2.1c0-0.5,0.3-1.1,0.8-1.6
		c0.5-0.3,1.1-0.5,1.6-0.5c1.6,0,2.4,0.8,2.4,2.4v9.6h3.5c1.1,0,1.6-0.5,1.6-1.6v-10.4h1.9v10.4c0,0.5,0,1.1-0.3,1.6
		c-0.3,0.5-0.8,0.8-1.3,0.8h-8.5V778.4z M572.4,767.8c0-0.8-0.3-1.1-1.1-1.1c-0.3,0-0.5,0-0.8,0.3c-0.3,0.3-0.3,0.5-0.3,0.8
		s0,0.5,0.3,0.8c0.3,0.3,0.5,0.3,0.8,0.3C572.1,768.8,572.4,768.6,572.4,767.8z"/>
	<path d="M583.8,758.5c0,1.3-0.5,2.4-1.6,3.5c-1.1,0.8-2.1,1.3-3.5,1.3c-1.1,0-1.9-0.3-2.4-0.5c-0.8-0.5-1.1-1.1-1.1-2.1
		c0-0.5,0.3-1.1,0.5-1.3c0.3-0.3,0.8-0.5,1.3-0.5c1.6,0,2.4,0.8,2.4,2.1c0,0.5-0.3,1.1-0.5,1.3c1.1,0,1.9-0.3,2.7-1.1
		c0.8-0.8,1.1-1.6,1.1-2.7L583.8,758.5L583.8,758.5z M578.8,760.6c0-0.3,0-0.8-0.3-0.8s-0.5-0.3-0.8-0.3s-0.8,0-0.8,0.3
		c-0.3,0.3-0.3,0.5-0.3,0.8s0,0.8,0.3,0.8c0.3,0.3,0.5,0.3,0.8,0.3s0.8,0,0.8-0.3S578.8,760.9,578.8,760.6z"/>
	<path d="M593.6,778.4h-1.9v-9.3c0-0.3-0.3-0.8-0.5-1.1c-0.3-0.5-0.8-0.8-1.1-0.8l-1.3,1.9L587,767c-0.8,0.3-1.3,0.8-1.9,1.3
		c-0.5,0.8-0.5,1.3-0.5,2.1c0,0.8,0.3,1.6,1.1,2.7c0.3,0.3,0.3,0.5,0.5,0.8c0.3,0.5,0.3,0.8,0.3,1.1c0,0,0.3-0.3,0.8-0.8
		c0,0,0.3-0.3,0.5-0.5c-1.1,0-1.9-0.8-1.9-1.9c0-0.5,0.3-1.1,0.5-1.3c0.3-0.3,0.8-0.5,1.3-0.5c1.3,0,1.9,0.5,1.9,1.9
		c0,0.8-0.5,1.9-1.9,2.9l-1.3,1.3c-0.3,0.3-0.3,0.5-0.5,0.8v1.6h-1.9v-4c0,0-0.3-0.5-0.5-1.1c-0.5-1.1-0.8-2.1-0.8-3.2
		s0.3-1.9,1.1-2.7c0.8-0.8,1.6-1.3,2.4-1.9l1.6,1.9l1.6-1.9c0.8,0.3,1.6,0.5,2.1,1.3c0.8,0.8,1.1,1.3,1.1,2.4v9H593.6z M589.9,771.5
		c0-0.3,0-0.5-0.3-0.8c-0.3-0.3-0.5-0.3-0.8-0.3s-0.5,0-0.8,0.3c-0.3,0.3-0.3,0.5-0.3,0.8s0,0.5,0.3,0.8c0.3,0.3,0.5,0.3,0.8,0.3
		s0.5,0,0.8-0.3C589.9,772,589.9,771.8,589.9,771.5z"/>
	<path d="M604.8,765.6c-0.3,1.6-1.1,2.1-1.9,2.1c-0.3,0-1.1-0.3-1.9-0.5s-1.6-0.5-1.9-0.5c-0.8,0-1.1,0.5-1.3,1.3l5.6,1.6v6.1
		c0,0.8-0.3,1.3-0.8,1.9c-0.5,0.3-1.1,0.5-1.9,0.5c-1.3,0-2.1-0.5-2.1-1.9c0-1.3,0.5-1.9,1.9-1.9c0.5,0,0.8,0,1.1,0.3v-4.5l-5-1.6
		c0-0.5,0.3-1.3,0.8-2.1c0.5-0.8,1.1-1.1,1.9-1.1c0.5,0,1.3,0.3,2.7,0.5c0.5,0,0.8,0.3,1.6,0.3C603.7,766.4,604.3,766.2,604.8,765.6
		z M601.6,776.5c0-0.3,0-0.5-0.3-0.8c-0.3-0.3-0.5-0.3-0.8-0.3c-0.8,0-1.1,0.3-1.1,1.1s0.3,1.1,1.1,1.1
		C601.4,777.6,601.6,777.1,601.6,776.5z"/>
	<path d="M615.7,765.6c-0.3,1.6-1.1,2.1-1.9,2.1c-0.3,0-1.1-0.3-1.9-0.5s-1.6-0.5-1.9-0.5c-0.8,0-1.1,0.5-1.3,1.3l5.6,1.6v6.1
		c0,0.8-0.3,1.3-0.8,1.9c-0.5,0.3-1.1,0.5-1.9,0.5c-1.3,0-2.1-0.5-2.1-1.9c0-1.3,0.5-1.9,1.9-1.9c0.5,0,0.8,0,1.1,0.3v-4.5l-5-1.6
		c0-0.5,0.3-1.3,0.8-2.1c0.5-0.8,1.1-1.1,1.9-1.1c0.5,0,1.3,0.3,2.7,0.5c0.5,0,0.8,0.3,1.6,0.3C614.6,766.4,615.2,766.2,615.7,765.6
		z M612.5,776.5c0-0.3,0-0.5-0.3-0.8c-0.3-0.3-0.5-0.3-0.8-0.3c-0.8,0-1.1,0.3-1.1,1.1s0.3,1.1,1.1,1.1
		C612.2,777.6,612.5,777.1,612.5,776.5z"/>
	<path d="M618.4,758.5c0,1.3-0.5,2.4-1.6,3.5c-1.1,0.8-2.1,1.3-3.5,1.3c-1.1,0-1.9-0.3-2.4-0.5c-0.8-0.5-1.1-1.1-1.1-2.1
		c0-0.5,0.3-1.1,0.5-1.3c0.3-0.3,0.8-0.5,1.3-0.5c1.6,0,2.4,0.8,2.4,2.1c0,0.5-0.3,1.1-0.5,1.3c1.1,0,1.9-0.3,2.7-1.1
		c0.8-0.8,1.1-1.6,1.1-2.7L618.4,758.5L618.4,758.5z M613.6,760.6c0-0.3,0-0.8-0.3-0.8c-0.3,0-0.5-0.3-0.8-0.3c-0.3,0-0.8,0-0.8,0.3
		c-0.3,0.3-0.3,0.5-0.3,0.8s0,0.8,0.3,0.8c0.3,0.3,0.5,0.3,0.8,0.3c0.3,0,0.8,0,0.8-0.3S613.6,760.9,613.6,760.6z"/>
	<path d="M622.3,784c0,0,0-0.3,0-0.8c0-0.8-0.3-1.6-0.8-2.1c0,1.3-0.5,1.9-1.6,1.9c-1.1,0-1.6-0.5-1.6-1.6c0-0.3,0.3-0.8,0.5-1.1
		c0.3-0.3,0.8-0.5,1.1-0.5c0.3,0,0.8,0,1.1,0c0-0.5,0.3-0.8,0.5-1.1h0.8c-0.3,0.5-0.5,0.8-0.8,1.3c0.5,0.3,0.8,0.5,1.1,1.1
		c0.3,0.5,0.5,1.1,0.5,1.6h2.4v-1.1c-0.3,0-0.5,0-0.5,0c-1.1,0-1.6-0.5-1.6-1.3c0-0.5,0.3-0.8,0.5-1.1c0.3-0.3,0.8-0.3,1.1-0.3
		c0.5,0,0.8,0.3,1.3,0.5c0.5,0.3,0.5,0.8,0.5,1.1v1.9c0,1.1-0.5,1.6-1.6,1.6H622.3z M627.7,765.6c0,0.5-0.3,1.1-0.5,1.6
		c-0.3,0.5-0.8,0.8-1.3,0.8c-0.3,0-0.8-0.3-1.3-0.5c-1.1-0.5-1.6-0.8-2.1-0.8c-1.3,0-2.1,0.5-2.9,1.9c0.8-0.5,1.9-0.8,2.7-0.8
		c1.1,0,2.1,0.3,3.2,1.1c1.1,0.8,1.6,1.6,1.6,2.7v5c0,0.5-0.3,0.8-0.8,1.3c-0.5,0.3-1.1,0.5-1.6,0.5c-0.5,0-1.1-0.3-1.6-0.5
		c-0.5-0.3-0.8-0.8-0.8-1.3v-3.5c-1.9,0-2.7-0.5-2.7-1.9c0-0.5,0.3-1.1,0.5-1.3c0.3-0.3,0.8-0.5,1.3-0.5c0.8,0,1.3,0.3,1.9,0.5
		c0.5,0.5,0.8,1.1,0.8,1.6v4.5c0,0.5,0.3,1.1,0.8,1.1c0.5,0,0.8-0.3,0.8-1.1v-5c0-0.8-0.3-1.6-0.8-2.1c-0.5-0.5-1.3-0.8-2.1-0.8
		c-0.5,0-1.1,0-1.9,0.3s-1.3,0.5-1.6,1.1c0-1.3,0.5-2.4,1.3-3.2s1.9-1.1,3.2-1.1c0.5,0,1.1,0,1.6,0.3c0.8,0.3,1.3,0.5,1.6,0.5
		c0.5,0,1.1-0.3,1.6-0.8h-0.8V765.6z M620.7,780.8c-0.3,0-0.5-0.3-0.8-0.3c-0.8,0-1.1,0.3-1.1,1.1c0,0.5,0.3,0.8,0.8,0.8
		c0.5,0,0.8-0.3,1.1-0.5C620.7,781.8,620.7,781.3,620.7,780.8z M621.8,771.2c0-0.5-0.3-1.1-1.1-1.1c-0.5,0-1.1,0.3-1.1,1.1
		c0,0.5,0.3,1.1,1.1,1.1C621.5,772.3,621.8,772,621.8,771.2z M625.5,780.5c0-0.5-0.3-0.8-0.8-0.8c-0.5,0-0.8,0.3-0.8,0.8
		s0.3,0.8,1.1,0.8C625.3,781.3,625.5,781.1,625.5,780.5z"/>
	<path d="M632.2,778.4v-0.8h1.3v-8.2c-0.3,0.3-0.8,0.3-1.1,0.3c-1.3,0-1.9-0.8-1.9-2.1c0-0.5,0.3-1.1,0.8-1.6
		c0.5-0.3,1.1-0.5,1.6-0.5c1.6,0,2.4,0.8,2.4,2.4v9.6h3.5c1.1,0,1.6-0.5,1.6-1.6v-10.4h1.9v10.4c0,0.5,0,1.1-0.3,1.6
		c-0.3,0.5-0.8,0.8-1.3,0.8h-8.5V778.4z M633.5,767.8c0-0.8-0.3-1.1-1.1-1.1c-0.3,0-0.5,0-0.8,0.3c-0.3,0.3-0.3,0.5-0.3,0.8
		s0,0.5,0.3,0.8c0.3,0.3,0.5,0.3,0.8,0.3C633.2,768.8,633.5,768.6,633.5,767.8z"/>
	<path d="M651.3,778.4h-1.9v-9.8c0-1.3-0.8-1.9-2.1-1.9c-0.8,0-1.6,0.5-2.4,1.3l-0.3-0.8c0.8-1.1,1.9-1.6,3.2-1.6
		c2.1,0,3.5,0.8,3.5,2.4V778.4z"/>
	<path d="M663.8,778.4h-1.9v-6.6c0-0.5-0.3-1.1-1.1-1.6c-0.5-0.3-1.3-0.5-1.9-0.5c-0.5,0-1.1,0.3-1.6,0.8c-0.3,0.5-0.5,1.1-0.5,1.6
		v2.7c0.3,0,0.5-0.3,0.8-0.3c0.5,0,1.1,0.3,1.3,0.5c0.3,0.3,0.5,0.8,0.5,1.3c0,1.3-0.8,1.9-2.1,1.9c-0.8,0-1.3-0.3-1.6-0.8
		c-0.3-0.5-0.5-1.1-0.5-1.9v-3.7c0-1.1,0.3-1.9,1.1-2.4c0.8-0.8,1.6-1.1,2.7-1.1c1.3,0,2.4,0.5,3.2,1.6v-1.1c0-0.8-0.5-1.3-1.3-1.9
		c-0.5-0.3-1.3-0.5-2.4-0.5c-1.6,0-3.2,0.8-4.3,2.1l-0.3-1.1c1.3-1.6,2.9-2.1,4.8-2.1c1.3,0,2.4,0.3,3.5,0.8
		c1.1,0.5,1.9,1.6,1.9,2.7v9.6H663.8z M658.7,776.5c0-0.3,0-0.5-0.3-0.8c-0.3-0.3-0.5-0.3-0.8-0.3c-0.3,0-0.5,0-0.8,0.3
		c-0.3,0.3-0.3,0.5-0.3,0.8c0,0.3,0,0.5,0.3,0.8c0.3,0.3,0.5,0.3,0.8,0.3c0.5,0,0.8-0.3,1.1-0.5
		C658.7,776.8,658.7,776.5,658.7,776.5z"/>
	<path d="M669.4,772.3v3.2c0,0.5,0.3,1.1,0.8,1.6c0.5,0.3,1.1,0.5,1.6,0.5c0.5,0,1.1-0.3,1.6-0.5c0.5-0.3,0.8-0.8,0.8-1.3v-6.4
		c0-1.9-1.3-2.7-3.7-2.7c-1.6,0-2.7,0.8-3.7,2.4l-0.5-0.3c0.8-2.1,2.4-2.9,5-2.9c1.3,0,2.4,0.3,3.2,0.8c1.1,0.5,1.6,1.6,1.6,2.7v6.4
		c0,0.8-0.5,1.3-1.6,2.1c-1.1,0.5-1.9,0.8-2.7,0.8s-1.9-0.3-2.7-0.8c-1.1-0.5-1.6-1.3-1.6-2.1v-5c0-1.6,0.8-2.4,2.4-2.4
		c0.5,0,1.1,0.3,1.3,0.5c0.3,0.3,0.5,0.8,0.5,1.3c0,1.3-0.8,1.9-2.1,1.9C669.9,772.3,669.6,772.3,669.4,772.3z M671.2,770.4
		c0-0.8-0.3-1.1-1.1-1.1c-0.8,0-1.1,0.3-1.1,1.1s0.3,1.1,1.1,1.1C671,771.5,671.2,771.2,671.2,770.4z"/>
	<path d="M534.4,805h-1.9v-9.8c0-1.3-0.8-1.9-2.1-1.9c-0.8,0-1.6,0.5-2.4,1.3l-0.3-0.8c0.8-1.1,1.9-1.6,3.2-1.6
		c2.1,0,3.5,0.8,3.5,2.4V805z"/>
	<path d="M538.7,797.3c-0.3-0.3-0.5-0.5-0.8-1.1s-0.3-1.1-0.3-1.3c0-0.8,0.3-1.3,0.8-1.9c0.5-0.5,1.1-0.8,1.9-0.8
		c0.5,0,1.1,0.3,1.3,0.5c0.3,0.3,0.5,0.8,0.5,1.3c0,1.3-0.5,1.9-1.6,1.9c-0.8,0-1.3-0.3-1.6-0.8c0,1.3,0.8,2.1,2.1,2.1h1.1v0.8h-0.8
		c-1.1,0-1.6,0.5-1.6,1.6v2.7c0,0.5,0.3,1.1,0.8,1.6c0.5,0.3,1.1,0.5,1.6,0.5s1.1-0.3,1.6-0.5c0.5-0.3,0.8-0.8,0.8-1.3v-8.5l1.1-1.3
		h0.8v9.8c0,0.8-0.5,1.6-1.3,2.1c-0.8,0.5-1.6,0.8-2.4,0.8c-1.1,0-2.1-0.3-2.9-0.8c-1.1-0.5-1.6-1.6-1.6-2.7v-1.9
		c0-0.5,0-0.8,0.3-1.3C538.1,797.8,538.4,797.5,538.7,797.3z M541,794.1c0-0.5-0.3-1.1-1.1-1.1c-0.5,0-1.1,0.3-1.1,1.1
		c0,0.5,0.3,1.1,1.1,1.1C540.8,794.9,541,794.6,541,794.1z"/>
	<path d="M545,811.1h-1.9v-1.9c-0.3,0-0.5,0-0.5,0c-1.1,0-1.9-0.5-1.9-1.6c0-0.5,0.3-1.1,0.5-1.3c0.3-0.3,0.8-0.5,1.3-0.5
		c1.3,0,2.1,0.8,2.1,2.4v2.9H545z M543.7,807.6c0-0.8-0.3-1.1-1.1-1.1c-0.8,0-1.1,0.3-1.1,1.1c0,0.5,0.3,1.1,1.1,1.1
		C543.4,808.7,543.7,808.4,543.7,807.6z"/>
	<path d="M560.2,805h-5.3v-0.3c0.5,0,0.8,0,0.8,0c0.3,0,0.5-0.3,0.8-0.5c0-0.3,0-0.8,0-1.6v-7.4c0-1.1,0-1.3,0-1.6
		c0-0.8-0.3-1.1-0.8-1.1c-0.3,0-0.5,0-1.1,0.3l-0.3-0.3l3.5-1.6h0.3v11.7c0,1.1,0.3,1.6,0.5,1.9c0.3,0.3,0.5,0.3,1.3,0.3v0.3H560.2z
		"/>
	<path d="M572.7,797.8c0,1.9-0.3,3.5-1.1,4.8c-0.8,1.9-2.1,2.7-3.7,2.7c-1.6,0-2.7-0.8-3.5-2.7c-0.5-1.3-1.1-2.9-1.1-4.5
		s0.3-3.2,1.1-4.8c0.8-1.9,2.1-2.7,3.5-2.7c0.8,0,1.6,0.3,2.4,1.1c0.5,0.5,1.1,1.3,1.3,2.4C572.4,795.1,572.7,796.5,572.7,797.8z
		 M570.5,797.3c0-4-0.8-6.1-2.4-6.1c-1.6,0-2.4,2.4-2.4,6.9c0,1.3,0,2.7,0.3,3.7c0.5,1.6,1.1,2.7,2.1,2.7
		C569.7,804.4,570.5,802,570.5,797.3z"/>
	<path d="M581.2,805v-0.8h1.3v-8.2c-0.3,0.3-0.8,0.3-1.1,0.3c-1.3,0-1.9-0.8-1.9-2.1c0-0.5,0.3-1.1,0.8-1.6c0.5-0.3,1.1-0.5,1.6-0.5
		c1.6,0,2.4,0.8,2.4,2.4v9.6h3.5c1.1,0,1.3-0.5,1.3-1.6v-16.7l1.1-1.3h0.5v18.3c0,0.5,0,1.1-0.3,1.6c-0.3,0.5-0.8,0.8-1.3,0.8
		L581.2,805L581.2,805z M582.5,794.3c0-0.8-0.3-1.1-1.1-1.1c-0.3,0-0.5,0-0.8,0.3c-0.3,0.3-0.3,0.5-0.3,0.8c0,0.3,0,0.5,0.3,0.8
		c0.3,0.3,0.5,0.3,0.8,0.3C582.2,795.4,582.5,795.1,582.5,794.3z"/>
	<path d="M591,790.4c-0.8-0.3-2.1-0.8-3.5-1.1c-1.3-0.3-2.7-0.3-3.5-0.3c-0.8,0-1.9,0.3-3.2,0.5c0.3-1.3,0.8-2.4,1.6-2.9
		c0.8-0.5,1.9-1.1,3.2-1.1c1.1,0,2.1,0.3,2.9,0.8V784h1.9v4C590.7,788.8,591,789.6,591,790.4z M589.9,789.3
		c-0.8-1.9-2.1-2.9-4.5-2.9c-1.6,0-2.9,0.8-3.7,2.1c0.8-0.3,1.9-0.3,2.7-0.3C586.5,788.2,588.1,788.5,589.9,789.3z"/>
</g>
</svg>
