<?xml version="1.0" encoding="utf-8"?>
<!-- Generator: Adobe Illustrator 23.0.0, SVG Export Plug-In . SVG Version: 6.00 Build 0)  -->
<svg version="1.1" id="运作原理" xmlns="http://www.w3.org/2000/svg" xmlns:xlink="http://www.w3.org/1999/xlink" x="0px"
	 y="0px" viewBox="0 0 705 383" style="enable-background:new 0 0 705 383;" xml:space="preserve">
<style type="text/css">
	.st0{fill:none;stroke:#90A7AB;}
	.st1{fill:none;stroke:#70DBCB;}
	.st2{fill:#9FE7DD;stroke:#34B9A1;stroke-width:2;}
	.st3{enable-background:new    ;}
	.st4{fill:#456E68;}
	.st5{fill:none;stroke:#456E68;stroke-width:1.5;stroke-miterlimit:10;}
	.st6{fill:#70DBCB;}
</style>
<path id="形状_1_拷贝_3" class="st0" d="M63.1,175.9l0.1,71.4l4.6-2"/>
<path id="形状_1_拷贝_5" class="st0" d="M622,153l-0.1-71l-4.6,2"/>
<path id="形状_1" class="st0" d="M108,89h90.5l42.5,42.5l-0.3-5.5"/>
<path id="形状_1_拷贝_2" class="st0" d="M240.7,162h-90.2l-42.4-42.9l0.3,5.6"/>
<path id="形状_1_拷贝" class="st0" d="M560,201h-88.4L430,242.3l0.3-5.4"/>
<path id="形状_1_拷贝_4" class="st0" d="M430.3,272h88.2l41.4-41.7l-0.3,5.4"/>
<circle id="椭圆_7-2" class="st1" cx="487.3" cy="167" r="19"/>
<circle id="椭圆_6" class="st2" cx="339" cy="187" r="94"/>
<g class="st3">
	<path class="st4" d="M646.4,186.4H638v8.4h8.4V186.4z M643.6,192h-2.8v-2.8h2.8V192z"/>
	<path class="st4" d="M657.6,186.4h-8.4v8.4h8.4V186.4z M654.8,192H652v-2.8h2.8V192z"/>
	<path class="st4" d="M646.4,197.6H638v8.4h8.4V197.6z M643.6,203.2h-2.8v-2.8h2.8V203.2z"/>
	<path class="st4" d="M657.6,197.6h-8.4v8.4h8.4V197.6z M654.8,203.2H652v-2.8h2.8V203.2z"/>
	<path class="st4" d="M646.4,217.2v-8.4H638v8.4H646.4z M640.8,211.6h2.8v2.8h-2.8V211.6z"/>
	<path class="st4" d="M657.6,208.8h-8.4v8.4h8.4V208.8z M654.8,214.4H652v-2.8h2.8V214.4z"/>
	<path class="st4" d="M666,183.6v-2.8h-2.8v-5.6h-2.8v-5.6h-25.2v5.6h-2.8v5.6h-2.8v2.8h2.8V220h-11.2v-16.8h2.8v-8.4h-2.8v-2.1
		l-19.6-13.6l-8.4,5.8v-4.3h-8.4v10.1l-2.8,1.9v2.1h-2.8v8.4h2.8v17.1c-1.6,0.6-2.8,2.1-2.8,3.9v2.8c0,2.3,1.9,4.2,4.2,4.2h27.3
		c-2.2,2.7-3.5,6.1-3.5,9.8c0,8.5,6.9,15.4,15.4,15.4S638,249.5,638,241c0-3.7-1.3-7.1-3.5-9.8h27.3c2.3,0,4.2-1.9,4.2-4.2v-2.8
		c0-1.8-1.2-3.4-2.8-3.9v-36.7H666z M638,172.4h19.6v2.8H638V172.4z M635.2,178h25.2v2.8h-25.2V178z M587.6,183.4h2.8v3.5l-2.8,1.9
		V183.4z M584.8,194.2l16.8-11.6l16.8,11.6v0.7h-33.6V194.2z M582,197.6h39.2v2.8H582V197.6z M618.4,203.2V220h-11.2v-14H596v14
		h-11.2v-16.8H618.4z M604.4,220h-5.6v-11.2h5.6V220z M622.6,253.6c-6.9,0-12.6-5.7-12.6-12.6c0-6.9,5.7-12.6,12.6-12.6
		s12.6,5.7,12.6,12.6C635.2,248,629.6,253.6,622.6,253.6z M663.2,227c0,0.8-0.6,1.4-1.4,1.4h-30.4c-2.5-1.8-5.5-2.8-8.8-2.8
		s-6.3,1-8.8,2.8h-30.4c-0.8,0-1.4-0.6-1.4-1.4v-2.8c0-0.8,0.6-1.4,1.4-1.4h78.4c0.8,0,1.4,0.6,1.4,1.4V227z M660.4,220h-25.2v-36.4
		h25.2V220z"/>
</g>
<g class="st3">
	<g>
		<g>
			<path class="st4" d="M96.5,278.4H86.4c1-0.8,1.6-1.9,1.6-3.2c0-2.3-1.8-4.1-4.1-4.1s-4.1,1.8-4.1,4.1c0,0.7,0.2,1.3,0.5,1.9
				l-1.5,1.3H58.9c-0.6-1.5-2.1-2.5-3.8-2.5s-3.2,1-3.8,2.5H29c-1.8,0-3.3,1.5-3.3,3.3v8c0,0.6,0.5,1.1,1.1,1.1s1.1-0.5,1.1-1.1v-8
				c0-0.6,0.5-1.1,1.1-1.1h22c0.1,0.4,0.2,0.8,0.3,1.2l-9.1,8.3c-0.6-0.4-1.4-0.7-2.2-0.7c-2.3,0-4.1,1.8-4.1,4.1s1.8,4.1,4.1,4.1
				s4.1-1.8,4.1-4.1c0-0.7-0.2-1.3-0.4-1.8l9.1-8.3c0.7,0.5,1.5,0.7,2.3,0.7c1.2,0,2.2-0.5,3-1.3l7.4,4.4c-0.1,0.3-0.1,0.5-0.1,0.8
				c0,2.3,1.8,4.1,4.1,4.1s4.1-1.8,4.1-4.1c0-0.6-0.1-1.2-0.4-1.7l6.4-5.8h16.9c0.6,0,1.1,0.5,1.1,1.1v26.8c0,0.6,0.5,1.1,1.1,1.1
				s1.1-0.5,1.1-1.1v-26.8C99.8,279.8,98.3,278.4,96.5,278.4z M40,295.4c-1.1,0-1.9-0.9-1.9-1.9c0-1.1,0.9-1.9,1.9-1.9
				s1.9,0.9,1.9,1.9S41.1,295.4,40,295.4z M55.1,281.9c-1.1,0-1.9-0.9-1.9-1.9c0-1.1,0.9-1.9,1.9-1.9S57,279,57,280
				S56.2,281.9,55.1,281.9z M69.5,290c-1.1,0-1.9-0.9-1.9-1.9c0-1.1,0.9-1.9,1.9-1.9s1.9,0.9,1.9,1.9C71.5,289.1,70.6,290,69.5,290z
				 M71.9,284.7c-0.7-0.5-1.5-0.8-2.4-0.8c-1.2,0-2.3,0.5-3.1,1.4l-7.3-4.4c0-0.1,0.1-0.3,0.1-0.4h17.2L71.9,284.7z M83.9,277.1
				c-1.1,0-1.9-0.9-1.9-1.9s0.9-1.9,1.9-1.9s1.9,0.9,1.9,1.9S85,277.1,83.9,277.1z"/>
		</g>
	</g>
	<g>
		<g>
			<path class="st4" d="M99.8,312.8c0-0.6-0.5-1.1-1.1-1.1s-1.1,0.5-1.1,1.1v8.2h-8v-25.7v-4.4v-4.5c0-0.6-0.5-1.1-1.1-1.1h-8.2
				c-0.6,0-1.1,0.5-1.1,1.1v4.5v4.4V321h-4.1v-5.5V311v-4.5c0-0.6-0.5-1.1-1.1-1.1h-8c-0.6,0-1.1,0.5-1.1,1.1v4.5v4.4v5.5h-4.1
				v-19.5V297v-4.5c0-0.6-0.5-1.1-1.1-1.1h-8.2c-0.6,0-1.1,0.5-1.1,1.1v4.5v4.4v6.1c0,0.6,0.5,1.1,1.1,1.1s1.1-0.5,1.1-1.1v-5h6
				v18.4h-6v-9.1c0-0.6-0.5-1.1-1.1-1.1s-1.1,0.5-1.1,1.1v9.1h-4.1v-5.5V311v-4.5c0-0.6-0.5-1.1-1.1-1.1H37c-0.6,0-1.1,0.5-1.1,1.1
				v4.5v4.4v5.5h-8.2v-27c0-0.6-0.5-1.1-1.1-1.1s-1.1,0.5-1.1,1.1v35.9c0,1.8,1.5,3.3,3.3,3.3h23.8l-0.6,5.4h-5
				c-0.6,0-1.1,0.5-1.1,1.1v3.8c0,0.6,0.5,1.1,1.1,1.1h31.5c0.6,0,1.1-0.5,1.1-1.1v-3.8c0-0.6-0.5-1.1-1.1-1.1h-5.2l-0.6-5.4h23.8
				c1.8,0,3.3-1.5,3.3-3.3V322l0,0V312.8L99.8,312.8z M81.5,287.4h6v2.3h-6V287.4z M81.5,291.9h6v2.3h-6V291.9z M81.5,296.3h6v24.6
				h-6V296.3z M67.1,307.6h6v2.3h-6V307.6z M67.1,312.1h6v2.3h-6V312.1z M67.1,316.5h6v4.4h-6V316.5z M52.7,295.9v-2.3h6v2.3H52.7z
				 M52.7,300.3V298h6v2.3H52.7z M38.3,307.6h6v2.3h-6V307.6z M38.3,312.1h6v2.3h-6V312.1z M38.3,316.5h6v4.4h-6V316.5z M77.5,340.7
				v1.6H48.1v-1.6H77.5z M54.3,338.5l0.6-5.4h15.6l0.6,5.4H54.3z M96.5,331H29c-0.6,0-1.1-0.5-1.1-1.1v-6.7h69.7v6.7l0,0
				C97.6,330.5,97.1,331,96.5,331z"/>
		</g>
	</g>
</g>
<g class="st3">
	<g>
		<g>
			<path class="st4" d="M601.9,25.6h-8.5c-0.6,0-1.1,0.5-1.1,1.1V31c0,0.6,0.5,1.1,1.1,1.1h8.5c0.6,0,1.1-0.5,1.1-1.1v-4.3
				C602.9,26.1,602.5,25.6,601.9,25.6z M596.5,29.9h-2.1v-2.1h2.1V29.9z M600.8,29.9h-2.1v-2.1h2.1V29.9z"/>
		</g>
	</g>
	<g>
		<g>
			<path class="st4" d="M601.9,34.1h-8.5c-0.6,0-1.1,0.5-1.1,1.1v4.3c0,0.6,0.5,1.1,1.1,1.1h8.5c0.6,0,1.1-0.5,1.1-1.1v-4.3
				C602.9,34.6,602.5,34.1,601.9,34.1z M596.5,38.4h-2.1v-2.1h2.1V38.4z M600.8,38.4h-2.1v-2.1h2.1V38.4z"/>
		</g>
	</g>
	<g>
		<g>
			<path class="st4" d="M601.9,42.7h-8.5c-0.6,0-1.1,0.5-1.1,1.1V48c0,0.6,0.5,1.1,1.1,1.1h8.5c0.6,0,1.1-0.5,1.1-1.1v-4.3
				C602.9,43.1,602.5,42.7,601.9,42.7z M596.5,46.9h-2.1v-2.1h2.1V46.9z M600.8,46.9h-2.1v-2.1h2.1V46.9z"/>
		</g>
	</g>
	<g>
		<g>
			<path class="st4" d="M640.3,25.6h-8.5c-0.6,0-1.1,0.5-1.1,1.1V31c0,0.6,0.5,1.1,1.1,1.1h8.5c0.6,0,1.1-0.5,1.1-1.1v-4.3
				C641.3,26.1,640.9,25.6,640.3,25.6z M634.9,29.9h-2.1v-2.1h2.1V29.9z M639.2,29.9h-2.1v-2.1h2.1V29.9z"/>
		</g>
	</g>
	<g>
		<g>
			<path class="st4" d="M640.3,17.1h-8.5c-0.6,0-1.1,0.5-1.1,1.1v4.3c0,0.6,0.5,1.1,1.1,1.1h8.5c0.6,0,1.1-0.5,1.1-1.1v-4.3
				C641.3,17.5,640.9,17.1,640.3,17.1z M634.9,21.3h-2.1v-2.1h2.1V21.3z M639.2,21.3h-2.1v-2.1h2.1V21.3z"/>
		</g>
	</g>
	<g>
		<g>
			<path class="st4" d="M614.7,29.9h-4.3c-0.6,0-1.1,0.5-1.1,1.1v4.3c0,0.6,0.5,1.1,1.1,1.1h4.3c0.6,0,1.1-0.5,1.1-1.1V31
				C615.7,30.3,615.3,29.9,614.7,29.9z M613.6,34.1h-2.1V32h2.1V34.1z"/>
		</g>
	</g>
	<g>
		<g>
			<path class="st4" d="M623.2,29.9h-4.3c-0.6,0-1.1,0.5-1.1,1.1v4.3c0,0.6,0.5,1.1,1.1,1.1h4.3c0.6,0,1.1-0.5,1.1-1.1V31
				C624.3,30.3,623.8,29.9,623.2,29.9z M622.1,34.1H620V32h2.1V34.1z"/>
		</g>
	</g>
	<g>
		<g>
			<path class="st4" d="M614.7,21.3h-4.3c-0.6,0-1.1,0.5-1.1,1.1v4.3c0,0.6,0.5,1.1,1.1,1.1h4.3c0.6,0,1.1-0.5,1.1-1.1v-4.3
				C615.7,21.8,615.3,21.3,614.7,21.3z M613.6,25.6h-2.1v-2.1h2.1V25.6z"/>
		</g>
	</g>
	<g>
		<g>
			<path class="st4" d="M623.2,21.3h-4.3c-0.6,0-1.1,0.5-1.1,1.1v4.3c0,0.6,0.5,1.1,1.1,1.1h4.3c0.6,0,1.1-0.5,1.1-1.1v-4.3
				C624.3,21.8,623.8,21.3,623.2,21.3z M622.1,25.6H620v-2.1h2.1V25.6z"/>
		</g>
	</g>
	<g>
		<g>
			<path class="st4" d="M614.7,12.8h-4.3c-0.6,0-1.1,0.5-1.1,1.1v4.3c0,0.6,0.5,1.1,1.1,1.1h4.3c0.6,0,1.1-0.5,1.1-1.1v-4.3
				C615.7,13.3,615.3,12.8,614.7,12.8z M613.6,17.1h-2.1V15h2.1V17.1z"/>
		</g>
	</g>
	<g>
		<g>
			<path class="st4" d="M623.2,12.8h-4.3c-0.6,0-1.1,0.5-1.1,1.1v4.3c0,0.6,0.5,1.1,1.1,1.1h4.3c0.6,0,1.1-0.5,1.1-1.1v-4.3
				C624.3,13.3,623.8,12.8,623.2,12.8z M622.1,17.1H620V15h2.1V17.1z"/>
		</g>
	</g>
	<g>
		<g>
			<path class="st4" d="M614.7,42.7h-4.3c-0.6,0-1.1,0.5-1.1,1.1V48c0,0.6,0.5,1.1,1.1,1.1h4.3c0.6,0,1.1-0.5,1.1-1.1v-4.3
				C615.7,43.1,615.3,42.7,614.7,42.7z M613.6,46.9h-2.1v-2.1h2.1V46.9z"/>
		</g>
	</g>
	<g>
		<g>
			<rect x="592.3" y="51.2" class="st4" width="2.1" height="2.1"/>
		</g>
	</g>
	<g>
		<g>
			<rect x="596.5" y="51.2" class="st4" width="2.1" height="2.1"/>
		</g>
	</g>
	<g>
		<g>
			<rect x="600.8" y="51.2" class="st4" width="2.1" height="2.1"/>
		</g>
	</g>
	<g>
		<g>
			<path class="st4" d="M650.9,38.4h-5.3V13.9c0-0.6-0.5-1.1-1.1-1.1H637v-1.7l1.1-1.1c0.9,0.7,2,1.1,3.1,1.1c1.4,0,2.7-0.5,3.7-1.5
				l0.2-0.2c0.4-0.4,0.4-1.1,0-1.5l-2.4-2.4l2.4-2.4l-1.5-1.5L641.2,4l-3.5-3.5c-0.2-0.2-0.5-0.3-0.8-0.3c-0.4,0-0.7,0.2-0.9,0.4
				c-1.1,1-1.7,2.3-1.7,3.7s0.5,2.9,1.6,3.9l0.5,0.5l-1.4,1.4c-0.2,0.2-0.3,0.5-0.3,0.8V13h-6.4V9.6c0-0.6-0.5-1.1-1.1-1.1h-3.7
				l-6.1-8.1c-0.4-0.5-1.3-0.5-1.7,0l-6.1,8.1h-3.7c-0.6,0-1.1,0.5-1.1,1.1v11.7h-6.4v-8.5h-2.1v8.5h-7.5c-0.6,0-1.1,0.5-1.1,1.1
				v40.5c0,0.6,0.5,1.1,1.1,1.1h17.1h7.5h8.5h1.1h6.4h17.1c2.9,0,5.3-2.4,5.3-5.3V39.5C652,38.9,651.5,38.4,650.9,38.4z M605.1,61.9
				h-14.9V23.5h14.9V61.9z M637.1,2.6l5.8,5.8c-1.2,0.7-2.8,0.6-3.9-0.5l-1.5-1.5c-0.6-0.6-1-1.4-0.9-2.3
				C636.7,3.6,636.8,3.1,637.1,2.6z M616.8,2.8l4.3,5.7h-8.5L616.8,2.8z M612.5,53.3v8.5h-5.3V22.4V10.7h19.2v3.2v19.2h2.1V14.9
				h14.9v23.5h-2.1v-1.1c0-1.8-1.4-3.2-3.2-3.2h-6.4c-1.8,0-3.2,1.4-3.2,3.2v1.1h-9.6c-0.6,0-1.1,0.5-1.1,1.1v11.7h-8.5v2.1H612.5z
				 M639.2,37.3v1.1h-8.5v-1.1c0-0.6,0.5-1.1,1.1-1.1h6.4C638.7,36.3,639.2,36.7,639.2,37.3z M614.7,61.9v-8.5h3.2v5.3
				c0,1.2,0.4,2.3,1.1,3.2H614.7z M649.9,58.7c0,1.8-1.4,3.2-3.2,3.2h-17.1h-6.4c-1.8,0-3.2-1.4-3.2-3.2V48c0.9,0.7,2,1.1,3.2,1.1
				h1.1v3.2c0,0.6,0.5,1.1,1.1,1.1h4.3c0.6,0,1.1-0.5,1.1-1.1v-3.2h1.1h6.4h1.1v3.2c0,0.6,0.5,1.1,1.1,1.1h4.3
				c0.6,0,1.1-0.5,1.1-1.1v-3.2h1.1c1.2,0,2.3-0.4,3.2-1.1v10.7H649.9z M626.4,51.2v-2.1h2.1v2.1H626.4z M632.8,46.9v-2.1h4.3v2.1
				H632.8z M641.3,51.2v-2.1h2.1v2.1H641.3z M649.9,43.7c0,1.8-1.4,3.2-3.2,3.2h-2.1h-4.3h-1.1v-3.2c0-0.6-0.5-1.1-1.1-1.1h-6.4
				c-0.6,0-1.1,0.5-1.1,1.1v3.2h-1.1h-4.3h-2.1c-1.8,0-3.2-1.4-3.2-3.2v-3.2h29.9L649.9,43.7L649.9,43.7z"/>
		</g>
	</g>
	<g>
		<g>
			<rect x="645.6" y="57.6" class="st4" width="2.1" height="2.1"/>
		</g>
	</g>
	<g>
		<g>
			<rect x="641.3" y="57.6" class="st4" width="2.1" height="2.1"/>
		</g>
	</g>
	<g>
		<g>
			<rect x="637.1" y="57.6" class="st4" width="2.1" height="2.1"/>
		</g>
	</g>
</g>
<g>
	<circle class="st5" cx="61.9" cy="57.5" r="16.8"/>
	<line class="st5" x1="48.4" y1="83.8" x2="61.9" y2="99.2"/>
	<line class="st5" x1="75" y1="83.8" x2="61.9" y2="99.2"/>
	<line class="st5" x1="61.9" y1="114.5" x2="61.9" y2="99.2"/>
	<path class="st5" d="M97.9,105.7v3.6c0,3.3-2.7,6-6,6H31.8c-3.3,0-6-2.7-6-6v-3.6"/>
	<path class="st5" d="M31.8,99.7"/>
	<path class="st5" d="M25.8,107.4c0-13.6,11.2-24,24.8-24h22.6c13.6,0,24.7,11.1,24.7,24.7l0,0"/>
</g>
<g id="椭圆_7_1_">
	<path class="st6" d="M487.1,186.5c-10.8,0-19.5-8.7-19.5-19.5s8.7-19.5,19.5-19.5s19.5,8.7,19.5,19.5S497.9,186.5,487.1,186.5z
		 M487.1,148.5c-10.2,0-18.5,8.3-18.5,18.5s8.3,18.5,18.5,18.5s18.5-8.3,18.5-18.5S497.3,148.5,487.1,148.5z"/>
</g>
<g>
	<g>
		<path class="st6" d="M481.4,176.6v-1.1c2.2-0.9,3.3-2.5,3.3-4.8v-2.8h-3v-1.2h3v-3.8c0-1.6,0.4-3,1.3-4s2-1.5,3.5-1.5
			c0.8,0,1.6,0.2,2.4,0.5v1.2c-0.8-0.4-1.6-0.6-2.4-0.6c-1.1,0-1.9,0.4-2.6,1.2c-0.6,0.8-0.9,1.9-0.9,3.4v3.6h4v1.2h-4v2.3
			c0,2.6-0.9,4.3-2.8,5.3h9.7v1.1L481.4,176.6L481.4,176.6z"/>
	</g>
</g>
<g id="椭圆_7-2_1_">
	<path class="st6" d="M195.3,209c-10.8,0-19.5-8.7-19.5-19.5s8.7-19.5,19.5-19.5s19.5,8.7,19.5,19.5S206,209,195.3,209z
		 M195.3,171.1c-10.2,0-18.5,8.3-18.5,18.5s8.3,18.5,18.5,18.5s18.5-8.3,18.5-18.5C213.8,179.3,205.5,171.1,195.3,171.1z"/>
</g>
<g>
	<g>
		<g>
			<path class="st6" d="M189.6,199.1V198c2.2-0.9,3.3-2.5,3.3-4.8v-2.8h-3v-1.2h3v-3.8c0-1.6,0.4-3,1.3-4c0.9-1,2-1.5,3.5-1.5
				c0.8,0,1.6,0.2,2.4,0.5v1.2c-0.8-0.4-1.6-0.6-2.4-0.6c-1.1,0-1.9,0.4-2.6,1.2c-0.6,0.8-0.9,1.9-0.9,3.4v3.6h4v1.2h-4v2.3
				c0,2.6-0.9,4.3-2.8,5.3h9.7v1.1L189.6,199.1L189.6,199.1z"/>
		</g>
	</g>
</g>
<g>
	<path class="st4" d="M617.2,248.8v-1.7c1.8-0.5,2.7-1.7,2.7-3.4v-2h-2.4V240h2.4v-2.8c0-1.4,0.4-2.5,1.3-3.4c0.9-0.9,2-1.4,3.3-1.4
		c0.9,0,1.8,0.1,2.5,0.5v1.9c-0.8-0.5-1.7-0.6-2.4-0.6c-1.8,0-2.7,1.1-2.7,3.3v2.5h3.6v1.7h-3.6v1.7c0,1.8-0.8,2.9-2.2,3.8h8.3v1.7
		h-10.8V248.8z"/>
</g>
<g class="st3">
	<path d="M275.7,185.7h-1.8v-6.3c0-0.5-0.1-0.9-0.2-1c-2.1,1.6-3.5,2.9-4.3,4.1c-0.8,1.1-1.2,2.2-1.2,3.2h-1.8v-7.9h-0.1
		c-0.5,0-1-0.2-1.3-0.6c-0.4-0.4-0.6-0.8-0.6-1.3s0.2-1,0.6-1.3c0.4-0.4,0.8-0.6,1.3-0.6s1,0.2,1.3,0.6c0.4,0.4,0.6,0.8,0.6,1.3v6.6
		c0.5-1.2,2.1-2.8,4.8-4.8c-0.8-0.5-1.2-1.1-1.2-1.7c0-0.5,0.2-1,0.6-1.3c0.4-0.4,0.8-0.6,1.3-0.6s1,0.2,1.3,0.6
		c0.4,0.4,0.6,0.8,0.6,1.3c0,0.7-0.3,1.2-0.8,1.7c0.6,0.4,1,1,1,1.8L275.7,185.7L275.7,185.7z M266.2,176.9c0.3,0,0.5-0.1,0.7-0.3
		s0.3-0.4,0.3-0.7s-0.1-0.5-0.3-0.7c-0.2-0.2-0.4-0.3-0.7-0.3c-0.3,0-0.5,0.1-0.7,0.3s-0.3,0.4-0.3,0.7s0.1,0.5,0.3,0.7
		S266,176.9,266.2,176.9z M273.8,177.1c0.5-0.4,0.8-0.8,0.8-1.2c0-0.3-0.1-0.5-0.3-0.7c-0.2-0.2-0.4-0.3-0.7-0.3
		c-0.3,0-0.5,0.1-0.7,0.3s-0.3,0.4-0.3,0.7C272.7,176.4,273,176.8,273.8,177.1z"/>
	<path d="M286.3,185.7h-1.8v-0.3c-0.8-1.9-1.5-3.5-2.2-4.6c-0.7-1.2-1.2-1.7-1.5-1.7s-0.4,0.2-0.4,0.7v2.2h0.1c0.5,0,1,0.2,1.3,0.6
		c0.4,0.4,0.6,0.8,0.6,1.3s-0.2,1-0.6,1.3c-0.4,0.4-0.8,0.6-1.3,0.6s-1-0.2-1.3-0.6c-0.4-0.4-0.6-0.8-0.6-1.3v-4.1
		c0-1.4,0.6-2.1,1.7-2.1c1.3,0,2.7,1.7,4.2,5.2V178c0-0.9-0.3-1.5-0.8-2s-1.2-0.7-2.1-0.7c-1.3,0-2.4,0.5-3.1,1.6l-0.9-0.7
		c1.1-1.4,2.4-2.1,4.1-2.1c1.3,0,2.4,0.4,3.2,1.1s1.3,1.7,1.3,2.9L286.3,185.7L286.3,185.7z M280.5,184.8c0.3,0,0.5-0.1,0.7-0.3
		s0.3-0.4,0.3-0.7s-0.1-0.5-0.3-0.7c-0.2-0.2-0.4-0.3-0.7-0.3c-0.3,0-0.5,0.1-0.7,0.3s-0.3,0.4-0.3,0.7s0.1,0.5,0.3,0.7
		C280,184.7,280.3,184.8,280.5,184.8z"/>
	<path d="M287.5,168.6c-0.2,1.3-0.8,2.3-1.8,3s-2.2,1.1-3.6,1.1c-0.9,0-1.6-0.2-2.2-0.6c-0.5-0.4-0.8-0.9-0.8-1.6
		c0-0.5,0.2-1,0.6-1.3c0.4-0.4,0.8-0.6,1.3-0.6s1,0.2,1.3,0.6c0.4,0.4,0.6,0.8,0.6,1.3c0,0.4-0.2,0.8-0.5,1.2c0.9,0,1.7-0.3,2.3-0.8
		c0.6-0.6,1-1.3,1.2-2.2L287.5,168.6L287.5,168.6z M281.1,171.4c0.3,0,0.5-0.1,0.7-0.3s0.3-0.4,0.3-0.7s-0.1-0.5-0.3-0.7
		c-0.2-0.2-0.4-0.3-0.7-0.3c-0.3,0-0.5,0.1-0.7,0.3s-0.3,0.4-0.3,0.7s0.1,0.5,0.3,0.7C280.6,171.4,280.8,171.4,281.1,171.4z"/>
	<path d="M298.3,185.7h-1.8v-7.5c0-0.9-0.3-1.6-0.9-2.2s-1.4-0.8-2.3-0.8c-1.4,0-2.4,0.4-2.9,1.3c0.4,0.7,1.2,1.1,2.4,1.2v0.7
		c-0.5,0-0.8,0.1-1.1,0.4c-0.3,0.3-0.4,0.7-0.4,1.2v5.7h-1.8v-5.6c0-0.8,0.3-1.4,0.9-1.8c-0.9-0.3-1.5-0.8-1.9-1.6
		c0.9-1.8,2.5-2.6,4.8-2.6c1.4,0,2.6,0.4,3.6,1.1c1,0.7,1.4,1.8,1.4,3V185.7z"/>
	<path d="M310.3,185.7h-1.8v-7.5c0-0.9-0.3-1.6-0.9-2.2s-1.4-0.8-2.3-0.8c-1.4,0-2.4,0.4-2.9,1.3c0.4,0.7,1.2,1.1,2.4,1.2v0.7
		c-0.5,0-0.8,0.1-1.1,0.4c-0.3,0.3-0.4,0.7-0.4,1.2v5.7h-1.8v-5.6c0-0.8,0.3-1.4,0.9-1.8c-0.9-0.3-1.5-0.8-1.9-1.6
		c0.9-1.8,2.5-2.6,4.8-2.6c1.4,0,2.6,0.4,3.6,1.1c1,0.7,1.4,1.8,1.4,3V185.7z"/>
	<path d="M319.6,185.7h-1.8V178c0-1.8-0.8-2.7-2.4-2.7c-1,0-1.9,0.5-2.7,1.6l-0.9-0.7c1-1.4,2.2-2.1,3.6-2.1c1.2,0,2.2,0.4,3,1.1
		c0.7,0.7,1.1,1.7,1.1,2.9L319.6,185.7L319.6,185.7z"/>
	<path d="M330.9,174.9c-0.5,0.7-1.1,1-1.9,1c-0.3,0-0.9-0.1-1.6-0.3s-1.2-0.3-1.5-0.3c-0.9,0-1.6,0.4-2.1,1.1
		c0.4-0.1,0.9-0.1,1.5-0.1c1.6,0,2.8,0.3,3.7,0.9c0.8,0.6,1.3,1.5,1.3,2.6v4.1c0,0.5-0.2,1-0.6,1.3s-0.8,0.6-1.3,0.6s-1-0.2-1.3-0.6
		s-0.6-0.8-0.6-1.3s0.2-1,0.6-1.3s0.8-0.6,1.3-0.6h0.1v-1.9c0-1-0.3-1.7-0.9-2.1c-0.6-0.3-1.5-0.5-2.8-0.5c-0.9,0-1.7,0.1-2.5,0.3
		c0.1-1.1,0.4-2,1.1-2.7s1.5-1,2.5-1c0.5,0,1.1,0.1,1.8,0.3c0.7,0.2,1.2,0.3,1.3,0.3c0.4,0,0.8-0.2,1-0.6L330.9,174.9z M328.3,184.8
		c0.3,0,0.5-0.1,0.7-0.3s0.3-0.4,0.3-0.7s-0.1-0.5-0.3-0.7c-0.2-0.2-0.4-0.3-0.7-0.3c-0.3,0-0.5,0.1-0.7,0.3s-0.3,0.4-0.3,0.7
		s0.1,0.5,0.3,0.7C327.8,184.7,328.1,184.8,328.3,184.8z"/>
	<path d="M342.9,185.7h-1.8v-9.5c0-0.5-0.1-0.7-0.4-0.7c-0.1,0-0.3,0.1-0.5,0.4c-0.2,0.2-0.5,0.6-0.8,1.1s-0.6,1.2-1,2
		s-0.9,2-1.4,3.6c-0.6,1.6-0.9,2.5-0.9,2.8v0.3h-1.8v-7.9h-0.1c-0.5,0-1-0.2-1.3-0.6c-0.4-0.4-0.6-0.8-0.6-1.3s0.2-1,0.6-1.3
		c0.4-0.4,0.8-0.6,1.3-0.6s1,0.2,1.3,0.6c0.4,0.4,0.6,0.8,0.6,1.3v5.7c0.8-2.1,1.6-3.9,2.5-5.4s1.7-2.2,2.6-2.2
		c1.1,0,1.7,0.7,1.7,2.1L342.9,185.7L342.9,185.7z M334.1,176.9c0.3,0,0.5-0.1,0.7-0.3s0.3-0.4,0.3-0.7s-0.1-0.5-0.3-0.7
		c-0.2-0.2-0.4-0.3-0.7-0.3c-0.3,0-0.5,0.1-0.7,0.3s-0.3,0.4-0.3,0.7s0.1,0.5,0.3,0.7S333.9,176.9,334.1,176.9z"/>
	<path d="M341.5,167.6c0.5,0,1,0.2,1.3,0.6c0.4,0.4,0.6,0.8,0.6,1.3s-0.2,1-0.6,1.3c-0.4,0.4-0.8,0.6-1.3,0.6s-1-0.2-1.3-0.6
		c-0.4-0.4-0.6-0.8-0.6-1.3s0.2-1,0.6-1.3C340.5,167.8,341,167.6,341.5,167.6z M341.5,170.4c0.3,0,0.5-0.1,0.7-0.3s0.3-0.4,0.3-0.7
		s-0.1-0.5-0.3-0.7c-0.2-0.2-0.4-0.3-0.7-0.3c-0.3,0-0.5,0.1-0.7,0.3s-0.3,0.4-0.3,0.7s0.1,0.5,0.3,0.7
		C341,170.3,341.2,170.4,341.5,170.4z M352.1,185.7h-1.8V178c0-1.8-0.8-2.7-2.4-2.7c-1,0-1.9,0.5-2.7,1.6l-0.9-0.7
		c1-1.4,2.2-2.1,3.6-2.1c1.2,0,2.2,0.4,3,1.1c0.7,0.7,1.1,1.7,1.1,2.9L352.1,185.7L352.1,185.7z"/>
	<path d="M361.4,185.7h-1.8c-1.2-1.8-2.2-3-3.2-3.8c-0.9-0.8-2-1.2-3.1-1.2v-0.9c1.2,0,2.2,0.3,3.2,0.9c0.9,0.6,2,1.7,3.1,3.3v-6.1
		h-0.1c-0.5,0-1-0.2-1.3-0.6c-0.4-0.4-0.6-0.8-0.6-1.3s0.2-1,0.6-1.3c0.4-0.4,0.8-0.6,1.3-0.6s1,0.2,1.3,0.6s0.6,0.8,0.6,1.3V185.7z
		 M359.5,176.9c0.3,0,0.5-0.1,0.7-0.3s0.3-0.4,0.3-0.7s-0.1-0.5-0.3-0.7c-0.2-0.2-0.4-0.3-0.7-0.3c-0.3,0-0.5,0.1-0.7,0.3
		s-0.3,0.4-0.3,0.7s0.1,0.5,0.3,0.7S359.3,176.9,359.5,176.9z"/>
	<path d="M370.7,185.7h-1.8V178c0-1.8-0.8-2.7-2.4-2.7c-1,0-1.9,0.5-2.7,1.6l-0.9-0.7c1-1.4,2.2-2.1,3.6-2.1c1.2,0,2.2,0.4,3,1.1
		s1.1,1.7,1.1,2.9L370.7,185.7L370.7,185.7z"/>
	<path d="M383,181.2c1.3,0.4,1.9,1.3,1.9,2.4c0,0.6-0.2,1.1-0.5,1.5c-0.4,0.4-0.8,0.6-1.3,0.6c-0.6,0-1.1-0.2-1.4-0.5
		s-0.5-0.9-0.5-1.7v-1.4c-1.8,0.4-3.4,1.5-4.7,3.5h-1.8v-7.9h-0.1c-0.5,0-1-0.2-1.3-0.6c-0.4-0.4-0.6-0.8-0.6-1.3s0.2-1,0.6-1.3
		c0.4-0.4,0.8-0.6,1.3-0.6s1,0.2,1.3,0.6c0.4,0.4,0.6,0.8,0.6,1.3v8.2c1.2-1.5,2.8-2.5,4.7-3v-6.9h1.8V181.2z M374.6,176.9
		c0.3,0,0.5-0.1,0.7-0.3s0.3-0.4,0.3-0.7s-0.1-0.5-0.3-0.7c-0.2-0.2-0.4-0.3-0.7-0.3c-0.3,0-0.5,0.1-0.7,0.3s-0.3,0.4-0.3,0.7
		s0.1,0.5,0.3,0.7S374.3,176.9,374.6,176.9z M384,183.6c0-0.3-0.1-0.6-0.3-0.9c-0.2-0.3-0.4-0.5-0.7-0.6v1.9c0,0.3,0,0.5,0.1,0.6
		c0,0.1,0.1,0.1,0.3,0.1C383.8,184.8,384,184.4,384,183.6z"/>
	<path d="M396.7,183.3c0,0.7-0.2,1.3-0.7,1.7s-1.1,0.7-1.8,0.7h-5v-1.2h1v-4.9c0-0.4,0.2-0.9,0.6-1.3c0.4-0.5,0.6-0.9,0.6-1.3
		c0-0.5-0.2-1-0.6-1.4s-0.9-0.5-1.4-0.5c-0.3,0-0.6,0.1-0.9,0.2c0.9,0.3,1.4,0.9,1.4,1.8c0,0.5-0.2,1-0.6,1.3
		c-0.4,0.4-0.8,0.6-1.3,0.6s-1-0.2-1.3-0.6c-0.4-0.4-0.6-0.8-0.6-1.3c0-0.8,0.3-1.5,1-2.1s1.4-0.9,2.3-0.9c1.1,0,2,0.3,2.7,0.8
		s1,1.2,1,2.1c0,0.5-0.2,1-0.5,1.5s-0.5,0.9-0.5,1.1v4.9h1.8c0.8,0,1.1-0.3,1.1-1v-9.2h1.8v9H396.7z M387.9,177.9
		c0.3,0,0.5-0.1,0.7-0.3s0.3-0.4,0.3-0.7s-0.1-0.5-0.3-0.7c-0.2-0.2-0.4-0.3-0.7-0.3c-0.3,0-0.5,0.1-0.7,0.3s-0.3,0.4-0.3,0.7
		s0.1,0.5,0.3,0.7C387.4,177.8,387.6,177.9,387.9,177.9z"/>
	<path d="M408.2,183.3c0,0.7-0.2,1.3-0.7,1.7s-1.1,0.7-1.8,0.7h-2.8c-0.7,0-1.3-0.2-1.8-0.7c-0.5-0.4-0.7-1-0.7-1.7v-4
		c0-0.5,0.2-1,0.6-1.3c0.4-0.4,0.8-0.6,1.3-0.6s1,0.2,1.3,0.6s0.6,0.8,0.6,1.3s-0.2,1-0.6,1.3s-0.8,0.6-1.3,0.6h-0.1v2.3
		c0,0.7,0.4,1,1.1,1h1.9c0.8,0,1.1-0.3,1.1-1V178c0-0.8-0.3-1.5-0.9-2s-1.4-0.7-2.3-0.7c-0.7,0-1.3,0.1-2,0.4
		c-0.7,0.3-1.2,0.7-1.5,1.2l-0.9-0.7c0.5-0.6,1.1-1.2,2-1.5s1.7-0.6,2.5-0.6c1.3,0,2.5,0.4,3.5,1.1c1,0.7,1.5,1.7,1.5,2.8
		L408.2,183.3L408.2,183.3z M402.3,180.2c0.3,0,0.5-0.1,0.7-0.3s0.3-0.4,0.3-0.7s-0.1-0.5-0.3-0.7c-0.2-0.2-0.4-0.3-0.7-0.3
		c-0.3,0-0.5,0.1-0.7,0.3s-0.3,0.4-0.3,0.7s0.1,0.5,0.3,0.7C401.8,180.2,402,180.2,402.3,180.2z"/>
	<path d="M417.5,185.7h-1.8c-1.2-1.8-2.2-3-3.2-3.8s-2-1.2-3.1-1.2v-0.9c1.2,0,2.2,0.3,3.2,0.9c0.9,0.6,2,1.7,3.1,3.3v-6.1h-0.1
		c-0.5,0-1-0.2-1.3-0.6c-0.4-0.4-0.6-0.8-0.6-1.3s0.2-1,0.6-1.3c0.4-0.4,0.8-0.6,1.3-0.6s1,0.2,1.3,0.6s0.6,0.8,0.6,1.3V185.7z
		 M415.6,176.9c0.3,0,0.5-0.1,0.7-0.3s0.3-0.4,0.3-0.7s-0.1-0.5-0.3-0.7c-0.2-0.2-0.4-0.3-0.7-0.3c-0.3,0-0.5,0.1-0.7,0.3
		s-0.3,0.4-0.3,0.7s0.1,0.5,0.3,0.7S415.4,176.9,415.6,176.9z"/>
	<path d="M328.2,201.3c-0.5,0.7-1.1,1-1.9,1c-0.3,0-0.9-0.1-1.6-0.3s-1.2-0.3-1.5-0.3c-0.9,0-1.6,0.4-2.1,1.1
		c0.4-0.1,0.9-0.1,1.5-0.1c1.6,0,2.8,0.3,3.7,0.9c0.8,0.6,1.3,1.5,1.3,2.6v4.1c0,0.5-0.2,1-0.6,1.3s-0.8,0.6-1.3,0.6s-1-0.2-1.3-0.6
		s-0.6-0.8-0.6-1.3s0.2-1,0.6-1.3s0.8-0.6,1.3-0.6h0.1v-2c0-1-0.3-1.7-0.9-2.1c-0.6-0.3-1.5-0.5-2.8-0.5c-0.9,0-1.7,0.1-2.5,0.3
		c0.1-1.1,0.4-2,1.1-2.7s1.5-1,2.5-1c0.5,0,1.1,0.1,1.8,0.3c0.7,0.2,1.2,0.3,1.3,0.3c0.4,0,0.8-0.2,1-0.6L328.2,201.3z M325.6,211.2
		c0.3,0,0.5-0.1,0.7-0.3s0.3-0.4,0.3-0.7s-0.1-0.5-0.3-0.7c-0.2-0.2-0.4-0.3-0.7-0.3c-0.3,0-0.5,0.1-0.7,0.3s-0.3,0.4-0.3,0.7
		s0.1,0.5,0.3,0.7C325.1,211.1,325.3,211.2,325.6,211.2z"/>
	<path d="M337.7,200.8c-0.2,1.3-0.8,2.4-1.8,3.1c-1,0.7-2.2,1.1-3.6,1.1c-0.9,0-1.6-0.2-2.2-0.7c-0.5-0.4-0.8-1-0.8-1.6
		c0-0.5,0.2-1,0.6-1.3c0.4-0.4,0.8-0.6,1.3-0.6s1,0.2,1.3,0.6c0.4,0.4,0.6,0.8,0.6,1.3s-0.2,0.9-0.5,1.2c0.9,0,1.7-0.3,2.3-0.8
		c0.6-0.6,1-1.3,1.2-2.3H337.7z M337.7,207.9c-0.2,1.3-0.8,2.3-1.8,3.1c-1,0.7-2.2,1.1-3.6,1.1c-0.9,0-1.6-0.2-2.2-0.7
		c-0.5-0.4-0.8-1-0.8-1.6c0-0.5,0.2-1,0.6-1.3c0.4-0.4,0.8-0.6,1.3-0.6s1,0.2,1.3,0.6c0.4,0.4,0.6,0.8,0.6,1.3s-0.2,0.9-0.5,1.2
		c0.9,0,1.7-0.3,2.3-0.8c0.6-0.6,1-1.3,1.2-2.3H337.7z M331.3,203.6c0.3,0,0.5-0.1,0.7-0.3s0.3-0.4,0.3-0.7s-0.1-0.5-0.3-0.7
		s-0.4-0.3-0.7-0.3c-0.3,0-0.5,0.1-0.7,0.3s-0.3,0.4-0.3,0.7s0.1,0.5,0.3,0.7S331,203.6,331.3,203.6z M331.3,210.8
		c0.3,0,0.5-0.1,0.7-0.3s0.3-0.4,0.3-0.7s-0.1-0.5-0.3-0.7c-0.2-0.2-0.4-0.3-0.7-0.3c-0.3,0-0.5,0.1-0.7,0.3s-0.3,0.4-0.3,0.7
		s0.1,0.5,0.3,0.7C330.8,210.7,331,210.8,331.3,210.8z"/>
	<path d="M350.2,209.7c0,0.7-0.2,1.3-0.7,1.7s-1.1,0.7-1.8,0.7h-7.3v-1.2h1v-6.6h-0.1c-0.5,0-1-0.2-1.3-0.6
		c-0.4-0.4-0.6-0.8-0.6-1.3s0.2-1,0.6-1.3c0.4-0.4,0.8-0.6,1.3-0.6s1,0.2,1.3,0.6c0.4,0.4,0.6,0.8,0.6,1.3v8.5h4.1
		c0.8,0,1.1-0.3,1.1-1v-9.2h1.8V209.7z M341.3,203.3c0.3,0,0.5-0.1,0.7-0.3s0.3-0.4,0.3-0.7s-0.1-0.5-0.3-0.7
		c-0.2-0.2-0.4-0.3-0.7-0.3c-0.3,0-0.5,0.1-0.7,0.3s-0.3,0.4-0.3,0.7s0.1,0.5,0.3,0.7S341,203.3,341.3,203.3z"/>
	<path d="M363,209.7c0,0.7-0.2,1.3-0.7,1.7s-1.1,0.7-1.8,0.7h-7.3v-1.2h1v-6.6h-0.1c-0.5,0-1-0.2-1.3-0.6c-0.4-0.4-0.6-0.8-0.6-1.3
		s0.2-1,0.6-1.3c0.4-0.4,0.8-0.6,1.3-0.6s1,0.2,1.3,0.6c0.4,0.4,0.6,0.8,0.6,1.3v8.5h4.1c0.8,0,1.1-0.3,1.1-1v-9.2h1.8V209.7z
		 M354.1,203.3c0.3,0,0.5-0.1,0.7-0.3s0.3-0.4,0.3-0.7s-0.1-0.5-0.3-0.7c-0.2-0.2-0.4-0.3-0.7-0.3c-0.3,0-0.5,0.1-0.7,0.3
		s-0.3,0.4-0.3,0.7s0.1,0.5,0.3,0.7S353.9,203.3,354.1,203.3z"/>
</g>
<g class="st3">
	<path class="st4" d="M3.8,366.1L3.8,366.1c0.4,0,0.8,0.1,1,0.4s0.4,0.6,0.4,1s-0.1,0.7-0.4,1s-0.6,0.4-1,0.4s-0.7-0.1-1-0.4
		s-0.4-0.6-0.4-1v-7h1.4V366.1z M3.9,368.2c0.2,0,0.4-0.1,0.5-0.2s0.2-0.3,0.2-0.5s-0.1-0.4-0.2-0.5s-0.3-0.2-0.5-0.2
		s-0.3,0.1-0.5,0.2c-0.1,0.1-0.2,0.3-0.2,0.5s0.1,0.4,0.2,0.5S3.7,368.2,3.9,368.2z M8.4,366.1L8.4,366.1c0.4,0,0.8,0.1,1,0.4
		c0.3,0.3,0.4,0.6,0.4,1s-0.1,0.7-0.4,1s-0.6,0.4-1,0.4s-0.7-0.1-1-0.4s-0.4-0.6-0.4-1v-7h1.3L8.4,366.1L8.4,366.1z M8.5,368.2
		c0.2,0,0.4-0.1,0.5-0.2s0.2-0.3,0.2-0.5S9.1,367.1,9,367c-0.1-0.1-0.3-0.2-0.5-0.2c-0.2,0-0.4,0.1-0.5,0.2
		c-0.1,0.1-0.2,0.3-0.2,0.5s0.1,0.4,0.2,0.5C8.1,368.1,8.3,368.2,8.5,368.2z"/>
	<path class="st4" d="M20.1,368.8h-1.3c0-0.6-0.4-1.5-1.1-2.8s-1.2-2.4-1.3-3.2c-0.1,0.8-0.6,1.9-1.3,3.2s-1.1,2.2-1.1,2.8h-1.3
		v-5.7h-0.1c-0.4,0-0.7-0.1-1-0.4c-0.3-0.3-0.4-0.6-0.4-1s0.1-0.7,0.4-1s0.6-0.4,1-0.4s0.7,0.1,1,0.4c0.3,0.3,0.4,0.6,0.4,1v4.6
		c0.1-0.3,0.4-0.8,0.8-1.5c0.8-1.3,1.2-2.8,1.2-4.3h0.8c0,1.5,0.4,2.9,1.2,4.3c0.4,0.7,0.7,1.2,0.8,1.5v-5.8h1.3V368.8z M12.5,362.4
		c0.2,0,0.4-0.1,0.5-0.2s0.2-0.3,0.2-0.5s-0.1-0.4-0.2-0.5c-0.1-0.1-0.3-0.2-0.5-0.2c-0.2,0-0.4,0.1-0.5,0.2s-0.2,0.3-0.2,0.5
		s0.1,0.3,0.2,0.5C12.1,362.4,12.4,362.4,12.5,362.4z"/>
	<path class="st4" d="M27.9,368.8h-1.3v-0.2c-0.6-1.4-1.1-2.5-1.6-3.4c-0.5-0.8-0.9-1.3-1.1-1.3s-0.3,0.2-0.3,0.5v1.6h0.1
		c0.4,0,0.7,0.1,1,0.4s0.4,0.6,0.4,1s-0.1,0.7-0.4,1s-0.6,0.4-1,0.4s-0.7-0.1-1-0.4s-0.4-0.6-0.4-1v-3c0-1,0.4-1.6,1.3-1.6
		s1.9,1.3,3,3.8V363c0-0.6-0.2-1.1-0.6-1.4s-0.9-0.5-1.5-0.5c-1,0-1.7,0.4-2.3,1.2l-0.6-0.5c0.8-1,1.8-1.5,3-1.5
		c0.9,0,1.7,0.3,2.4,0.8s0.9,1.2,0.9,2.1V368.8z M23.6,368.2c0.2,0,0.4-0.1,0.5-0.2s0.2-0.3,0.2-0.5s-0.1-0.4-0.2-0.5
		s-0.3-0.2-0.5-0.2s-0.4,0.1-0.5,0.2s-0.2,0.3-0.2,0.5s0.1,0.4,0.2,0.5S23.5,368.2,23.6,368.2z"/>
	<path class="st4" d="M36.8,368.8h-1.3v-5.1c0-1.2-0.3-2-0.8-2.3l-1.7,0.9l-1.7-0.9c-0.7,0.5-1,1.2-1,2.2c0,0.6,0.2,1.2,0.6,1.9
		c0.5,0.8,0.8,1.3,0.9,1.7c0.1-0.2,0.3-0.5,0.6-0.8s0.5-0.5,0.5-0.7l0,0c-0.4,0-0.7-0.1-1-0.4c-0.3-0.3-0.4-0.6-0.4-1s0.1-0.7,0.4-1
		c0.3-0.3,0.6-0.4,1-0.4s0.7,0.1,1,0.4s0.4,0.6,0.4,1c0,0.3-0.1,0.7-0.2,1.1c-0.2,0.4-0.5,0.8-1.1,1.4c-0.5,0.6-0.8,1-0.8,1.4v0.7
		h-1.3v-0.7c0-0.5-0.2-1.2-0.7-2.2c-0.5-0.9-0.7-1.7-0.7-2.4c0-1.3,0.6-2.4,1.9-3.2l1.7,0.9l1.7-0.9c1.4,0.5,2.2,1.6,2.2,3.4v5H36.8
		z M32.9,364.9c0.2,0,0.3-0.1,0.5-0.2c0.1-0.1,0.2-0.3,0.2-0.5s-0.1-0.3-0.2-0.5c-0.1-0.1-0.3-0.2-0.5-0.2s-0.4,0.1-0.5,0.2
		s-0.2,0.3-0.2,0.5s0.1,0.4,0.2,0.5S32.7,364.9,32.9,364.9z"/>
	<path class="st4" d="M47.3,368.8H46c0-0.6-0.4-1.5-1.1-2.8s-1.2-2.4-1.3-3.2c-0.1,0.8-0.6,1.9-1.3,3.2s-1.1,2.2-1.1,2.8h-1.4v-5.7
		h-0.1c-0.4,0-0.7-0.1-1-0.4s-0.4-0.6-0.4-1s0.1-0.7,0.4-1c0.3-0.3,0.6-0.4,1-0.4s0.7,0.1,1,0.4s0.4,0.6,0.4,1v4.6
		c0.1-0.3,0.4-0.8,0.8-1.5c0.8-1.3,1.2-2.8,1.2-4.3H44c0,1.5,0.4,2.9,1.2,4.3c0.4,0.7,0.7,1.2,0.8,1.5v-10.1h1.3
		C47.3,356.2,47.3,368.8,47.3,368.8z M39.7,362.4c0.2,0,0.4-0.1,0.5-0.2s0.2-0.3,0.2-0.5s-0.1-0.4-0.2-0.5s-0.3-0.2-0.5-0.2
		s-0.4,0.1-0.5,0.2s-0.2,0.3-0.2,0.5s0.1,0.3,0.2,0.5S39.5,362.4,39.7,362.4z"/>
	<path class="st4" d="M55.7,367.1c0,0.5-0.2,0.9-0.5,1.2c-0.4,0.3-0.8,0.5-1.3,0.5h-2c-0.5,0-0.9-0.2-1.3-0.5
		c-0.4-0.3-0.5-0.7-0.5-1.2v-2.9c0-0.4,0.1-0.7,0.4-1c0.3-0.3,0.6-0.4,1-0.4s0.7,0.1,1,0.4s0.4,0.6,0.4,1s-0.1,0.7-0.4,1
		s-0.6,0.4-1,0.4h-0.1v1.7c0,0.5,0.3,0.7,0.8,0.7h1.4c0.6,0,0.8-0.2,0.8-0.7v-4c0-0.6-0.2-1.1-0.7-1.4s-1-0.5-1.7-0.5
		c-0.5,0-1,0.1-1.5,0.3c-0.5,0.2-0.9,0.5-1.1,0.9l-0.6-0.5c0.4-0.5,0.8-0.8,1.4-1.1c0.6-0.3,1.2-0.4,1.8-0.4c1,0,1.8,0.3,2.5,0.8
		s1.1,1.2,1.1,2.1L55.7,367.1L55.7,367.1z M51.4,364.9c0.2,0,0.3-0.1,0.5-0.2c0.1-0.1,0.2-0.3,0.2-0.5s-0.1-0.4-0.2-0.5
		c-0.1-0.1-0.3-0.2-0.5-0.2s-0.4,0.1-0.5,0.2s-0.2,0.3-0.2,0.5s0.1,0.4,0.2,0.5S51.2,364.9,51.4,364.9z"/>
	<path class="st4" d="M63.9,361c-0.4,0.5-0.8,0.7-1.4,0.7c-0.2,0-0.6-0.1-1.2-0.2s-0.9-0.2-1.1-0.2c-0.7,0-1.2,0.3-1.5,0.8
		c0.3-0.1,0.7-0.1,1.1-0.1c1.2,0,2.1,0.2,2.7,0.7s0.9,1.1,0.9,1.9v3c0,0.4-0.1,0.7-0.4,1s-0.6,0.4-1,0.4s-0.7-0.1-1-0.4
		s-0.4-0.6-0.4-1s0.1-0.7,0.4-1s0.6-0.4,1-0.4h0.1v-1.4c0-0.8-0.2-1.3-0.6-1.5c-0.4-0.3-1.1-0.4-2-0.4c-0.7,0-1.3,0.1-1.8,0.2
		c0-0.8,0.3-1.5,0.8-2s1.1-0.7,1.8-0.7c0.4,0,0.8,0.1,1.3,0.2c0.5,0.2,0.8,0.2,0.9,0.2c0.3,0,0.6-0.2,0.8-0.5L63.9,361z M62,368.2
		c0.2,0,0.3-0.1,0.5-0.2c0.1-0.1,0.2-0.3,0.2-0.5s-0.1-0.4-0.2-0.5s-0.3-0.2-0.5-0.2c-0.2,0-0.4,0.1-0.5,0.2s-0.2,0.3-0.2,0.5
		s0.1,0.4,0.2,0.5C61.7,368.1,61.8,368.2,62,368.2z"/>
	<path class="st4" d="M64.7,355.9c0,0.2-0.1,0.5-0.3,0.6s-0.5,0.3-1,0.5s-0.8,0.3-1,0.4c0.3,0,0.5,0.1,0.7,0.3s0.3,0.4,0.3,0.7
		c0,0.3-0.1,0.5-0.3,0.7s-0.4,0.3-0.7,0.3c-0.3,0-0.5-0.1-0.7-0.3c-0.2-0.2-0.3-0.5-0.3-0.8c0-0.8,0.5-1.3,1.4-1.6
		c0.5-0.2,0.8-0.3,1-0.4s0.2-0.2,0.2-0.4L64.7,355.9L64.7,355.9z M62.4,358.9c0.1,0,0.2,0,0.3-0.1c0.1-0.1,0.1-0.2,0.1-0.3
		s0-0.3-0.1-0.3c-0.1-0.1-0.2-0.1-0.3-0.1c-0.1,0-0.3,0-0.3,0.1s-0.1,0.2-0.1,0.3s0,0.2,0.1,0.3S62.3,358.9,62.4,358.9z"/>
	<path class="st4" d="M72.7,368.8h-1.3c-0.9-1.8-2.2-2.7-3.8-2.9v1.4c0,1.1-0.5,1.6-1.6,1.6c-0.4,0-0.8-0.1-1-0.4
		c-0.3-0.3-0.4-0.7-0.4-1.1c0-0.5,0.1-0.9,0.4-1.3s0.7-0.6,1.2-0.8v-2.1h-0.1c-0.4,0-0.7-0.1-1-0.4s-0.4-0.6-0.4-1s0.1-0.7,0.4-1
		s0.6-0.4,1-0.4s0.7,0.1,1,0.4s0.4,0.6,0.4,1v3.5c1.4,0.2,2.7,0.9,3.8,2.2v-7h1.3L72.7,368.8L72.7,368.8z M66.3,367.4v-1.5
		c-0.3,0.1-0.5,0.3-0.7,0.5c-0.2,0.3-0.3,0.6-0.3,0.9s0.1,0.5,0.2,0.6c0.1,0.2,0.2,0.2,0.4,0.2C66.2,368.2,66.3,367.9,66.3,367.4z
		 M66.3,362.4c0.2,0,0.4-0.1,0.5-0.2s0.2-0.3,0.2-0.5s-0.1-0.4-0.2-0.5s-0.3-0.2-0.5-0.2s-0.4,0.1-0.5,0.2s-0.2,0.3-0.2,0.5
		s0.1,0.3,0.2,0.5S66.1,362.4,66.3,362.4z"/>
	<path class="st4" d="M81.5,368.8h-1.3v-5.4c0-0.7-0.2-1.2-0.7-1.6s-1-0.6-1.7-0.6c-1.1,0-1.8,0.3-2.1,1c0.3,0.5,0.9,0.8,1.8,0.9
		v0.5c-0.3,0-0.6,0.1-0.8,0.3c-0.2,0.2-0.3,0.5-0.3,0.8v4.1h-1.3v-4.1c0-0.6,0.2-1,0.7-1.3c-0.7-0.2-1.1-0.6-1.4-1.2
		c0.7-1.3,1.8-1.9,3.5-1.9c1,0,1.9,0.3,2.6,0.8s1,1.3,1,2.2C81.5,363.3,81.5,368.8,81.5,368.8z"/>
	<path class="st4" d="M88.2,368.8h-1.3v-5.6c0-1.3-0.6-2-1.7-2c-0.8,0-1.4,0.4-1.9,1.2l-0.6-0.5c0.7-1,1.6-1.5,2.6-1.5
		c0.9,0,1.6,0.3,2.2,0.8c0.5,0.5,0.8,1.2,0.8,2.1L88.2,368.8L88.2,368.8z"/>
	<path class="st4" d="M96.5,361c-0.4,0.5-0.8,0.7-1.4,0.7c-0.2,0-0.6-0.1-1.2-0.2s-0.9-0.2-1.1-0.2c-0.7,0-1.2,0.3-1.5,0.8
		c0.3-0.1,0.7-0.1,1.1-0.1c1.2,0,2.1,0.2,2.7,0.7s0.9,1.1,0.9,1.9v3c0,0.4-0.1,0.7-0.4,1s-0.6,0.4-1,0.4s-0.7-0.1-1-0.4
		s-0.4-0.6-0.4-1s0.1-0.7,0.4-1s0.6-0.4,1-0.4h0.1v-1.4c0-0.8-0.2-1.3-0.6-1.5c-0.4-0.3-1.1-0.4-2-0.4c-0.7,0-1.3,0.1-1.8,0.2
		c0-0.8,0.3-1.5,0.8-2s1.1-0.7,1.8-0.7c0.4,0,0.8,0.1,1.3,0.2c0.5,0.2,0.8,0.2,0.9,0.2c0.3,0,0.6-0.2,0.8-0.5L96.5,361z M94.6,368.2
		c0.2,0,0.3-0.1,0.5-0.2c0.1-0.1,0.2-0.3,0.2-0.5s-0.1-0.4-0.2-0.5s-0.3-0.2-0.5-0.2s-0.4,0.1-0.5,0.2s-0.2,0.3-0.2,0.5
		s0.1,0.4,0.2,0.5S94.4,368.2,94.6,368.2z"/>
	<path class="st4" d="M105.3,367.1c0,0.5-0.2,0.9-0.5,1.2c-0.4,0.3-0.8,0.5-1.3,0.5h-3.7v-0.9h0.8v-3.6c0-0.3,0.1-0.6,0.4-1
		c0.3-0.3,0.4-0.7,0.4-1c0-0.5-0.2-0.9-0.6-1.1l-1,0.6l-1-0.6c-0.3,0.2-0.6,0.5-0.7,0.9c0.2-0.1,0.3-0.1,0.5-0.1
		c0.4,0,0.7,0.1,1,0.4s0.4,0.6,0.4,1s-0.1,0.7-0.4,1s-0.6,0.4-1,0.4s-0.7-0.2-1-0.5s-0.4-0.7-0.4-1.2c0-1.1,0.6-2.1,1.7-2.8l1,0.6
		l1-0.6c1.2,0.3,1.7,1,1.7,2.1c0,0.4-0.1,0.8-0.3,1.1c-0.2,0.4-0.3,0.6-0.3,0.8v3.6h1.3c0.6,0,0.8-0.2,0.8-0.7v-4.3
		c0-0.7-0.3-1-1-1.1v-0.5c0.9-0.2,1.4-0.8,1.5-1.8h1.4c-0.1,0.9-0.6,1.5-1.3,1.8c0.5,0.2,0.8,0.7,0.8,1.3v4.5H105.3z M98.6,364.1
		c0.2,0,0.4-0.1,0.5-0.2s0.2-0.3,0.2-0.5s-0.1-0.4-0.2-0.5s-0.3-0.2-0.5-0.2s-0.3,0.1-0.5,0.2c-0.1,0.1-0.2,0.3-0.2,0.5
		s0.1,0.4,0.2,0.5C98.2,364.1,98.4,364.1,98.6,364.1z"/>
	<path class="st4" d="M105.3,359.4h-6.2c0.5-1.7,1.5-2.5,3.1-2.5c0.3,0,0.5,0,0.7,0.1v-0.6h0.6v0.7c0.4,0.2,0.8,0.5,1.1,0.9v-1.6
		h0.6v3H105.3z M104.2,358.7c-0.4-0.8-1.1-1.2-2.1-1.2s-1.7,0.4-2.1,1.2H104.2z"/>
	<path class="st4" d="M106.1,356.4c-0.1,0.9-0.4,1.6-1,2.2s-1.5,0.8-2.6,0.8c-0.4,0-0.7,0-1-0.1v-0.5c0.5,0,0.9-0.1,1.1-0.4
		c-0.3,0-0.5-0.1-0.7-0.3s-0.3-0.4-0.3-0.7s0.1-0.5,0.3-0.7s0.4-0.3,0.7-0.3c0.3,0,0.5,0.1,0.7,0.3s0.3,0.4,0.3,0.7
		c0,0.5-0.3,1-0.8,1.4c0.7,0,1.4-0.3,1.9-0.7c0.5-0.5,0.8-1,0.8-1.7L106.1,356.4L106.1,356.4z M102.6,357.9c0.1,0,0.3,0,0.4-0.1
		s0.1-0.2,0.1-0.4c0-0.1,0-0.3-0.1-0.4s-0.2-0.1-0.4-0.1c-0.1,0-0.3,0-0.4,0.1s-0.1,0.2-0.1,0.4c0,0.1,0,0.3,0.1,0.4
		S102.5,357.9,102.6,357.9z"/>
	<path class="st4" d="M113.7,367.1c0,0.5-0.2,0.9-0.5,1.2c-0.4,0.3-0.8,0.5-1.3,0.5h-2c-0.5,0-0.9-0.2-1.3-0.5s-0.5-0.7-0.5-1.2
		v-2.9c0-0.4,0.1-0.7,0.4-1s0.6-0.4,1-0.4s0.7,0.1,1,0.4s0.4,0.6,0.4,1s-0.1,0.7-0.4,1s-0.6,0.4-1,0.4h-0.1v1.7
		c0,0.5,0.3,0.7,0.8,0.7h1.4c0.6,0,0.8-0.2,0.8-0.7v-4c0-0.6-0.2-1.1-0.7-1.4s-1-0.5-1.7-0.5c-0.5,0-1,0.1-1.5,0.3
		c-0.5,0.2-0.9,0.5-1.1,0.9l-0.6-0.5c0.4-0.5,0.8-0.8,1.4-1.1c0.6-0.3,1.2-0.4,1.8-0.4c1,0,1.8,0.3,2.5,0.8s1.1,1.2,1.1,2.1
		L113.7,367.1L113.7,367.1z M109.4,364.9c0.2,0,0.3-0.1,0.5-0.2c0.1-0.1,0.2-0.3,0.2-0.5s-0.1-0.4-0.2-0.5s-0.3-0.2-0.5-0.2
		s-0.4,0.1-0.5,0.2s-0.2,0.3-0.2,0.5s0.1,0.4,0.2,0.5S109.2,364.9,109.4,364.9z"/>
	<path class="st4" d="M122.7,367.1c0,0.5-0.2,0.9-0.5,1.2c-0.4,0.3-0.8,0.5-1.3,0.5h-3.7v-0.9h0.8v-3.6c0-0.3,0.1-0.6,0.4-1
		c0.3-0.3,0.4-0.7,0.4-1c0-0.4-0.1-0.7-0.4-1s-0.6-0.4-1-0.4c-0.2,0-0.4,0-0.7,0.1c0.7,0.2,1,0.7,1,1.3c0,0.4-0.1,0.7-0.4,1
		s-0.6,0.4-1,0.4s-0.7-0.1-1-0.4s-0.4-0.6-0.4-1c0-0.6,0.2-1.1,0.7-1.5s1-0.6,1.7-0.6c0.8,0,1.5,0.2,1.9,0.6
		c0.5,0.4,0.7,0.9,0.7,1.5c0,0.4-0.1,0.8-0.3,1.1c-0.2,0.4-0.3,0.6-0.3,0.8v3.6h1.3c0.6,0,0.8-0.2,0.8-0.7v-6.6h1.3V367.1z
		 M116.3,363.2c0.2,0,0.4-0.1,0.5-0.2s0.2-0.3,0.2-0.5s-0.1-0.4-0.2-0.5s-0.3-0.2-0.5-0.2s-0.4,0.1-0.5,0.2s-0.2,0.3-0.2,0.5
		s0.1,0.4,0.2,0.5S116.1,363.2,116.3,363.2z"/>
	<path class="st4" d="M129.4,368.8h-1.3v-5.6c0-1.3-0.6-2-1.7-2c-0.8,0-1.4,0.4-1.9,1.2l-0.6-0.5c0.7-1,1.6-1.5,2.6-1.5
		c0.9,0,1.6,0.3,2.2,0.8c0.5,0.5,0.8,1.2,0.8,2.1v5.5H129.4z"/>
	<path class="st4" d="M137.4,367.1c0,0.5-0.2,0.9-0.5,1.2c-0.4,0.3-0.8,0.5-1.3,0.5h-4.3v-2.6c0-0.7,0.2-1.1,0.7-1.4
		c-0.5-0.3-0.7-0.7-0.7-1.4v-1.7c0-0.4,0.1-0.7,0.4-1c0.3-0.3,0.6-0.4,1-0.4s0.7,0.1,1,0.4s0.4,0.6,0.4,1s-0.1,0.7-0.4,1
		c-0.3,0.3-0.6,0.4-1,0.4h-0.1v0.3c0,0.4,0.1,0.6,0.3,0.8s0.5,0.3,0.8,0.3v0.5c-0.3,0-0.6,0.1-0.8,0.3s-0.3,0.5-0.3,0.8v1.7h2.7
		c0.6,0,0.8-0.2,0.8-0.7v-6.6h1.3L137.4,367.1L137.4,367.1z M132.6,362.4c0.2,0,0.4-0.1,0.5-0.2s0.2-0.3,0.2-0.5s-0.1-0.4-0.2-0.5
		s-0.3-0.2-0.5-0.2s-0.4,0.1-0.5,0.2s-0.2,0.3-0.2,0.5s0.1,0.3,0.2,0.5S132.4,362.4,132.6,362.4z"/>
	<path class="st4" d="M145.6,361c-0.4,0.5-0.8,0.7-1.4,0.7c-0.2,0-0.6-0.1-1.2-0.2s-0.9-0.2-1.1-0.2c-0.7,0-1.2,0.3-1.5,0.8
		c0.3-0.1,0.7-0.1,1.1-0.1c1.2,0,2.1,0.2,2.7,0.7c0.6,0.5,0.9,1.1,0.9,1.9v3c0,0.4-0.1,0.7-0.4,1s-0.6,0.4-1,0.4s-0.7-0.1-1-0.4
		s-0.4-0.6-0.4-1s0.1-0.7,0.4-1s0.6-0.4,1-0.4h0.1v-1.4c0-0.8-0.2-1.3-0.6-1.5c-0.4-0.3-1.1-0.4-2-0.4c-0.7,0-1.3,0.1-1.8,0.2
		c0-0.8,0.3-1.5,0.8-2s1.1-0.7,1.8-0.7c0.4,0,0.8,0.1,1.3,0.2c0.5,0.2,0.8,0.2,0.9,0.2c0.3,0,0.6-0.2,0.8-0.5L145.6,361z
		 M143.8,368.2c0.2,0,0.3-0.1,0.5-0.2c0.1-0.1,0.2-0.3,0.2-0.5s-0.1-0.4-0.2-0.5c-0.1-0.1-0.3-0.2-0.5-0.2s-0.4,0.1-0.5,0.2
		s-0.2,0.3-0.2,0.5s0.1,0.4,0.2,0.5C143.4,368.1,143.6,368.2,143.8,368.2z"/>
	<path class="st4" d="M152.6,360.6c-0.1,1-0.6,1.7-1.3,2.2s-1.6,0.8-2.6,0.8c-0.7,0-1.2-0.2-1.6-0.5c-0.4-0.3-0.6-0.7-0.6-1.2
		c0-0.4,0.1-0.7,0.4-1c0.3-0.3,0.6-0.4,1-0.4s0.7,0.1,1,0.4s0.4,0.6,0.4,1c0,0.3-0.1,0.6-0.3,0.9c0.7,0,1.2-0.2,1.7-0.6
		s0.8-1,0.8-1.7h1.1V360.6z M152.6,365.8c-0.1,1-0.6,1.7-1.3,2.2s-1.6,0.8-2.6,0.8c-0.7,0-1.2-0.2-1.6-0.5c-0.4-0.3-0.6-0.7-0.6-1.2
		c0-0.4,0.1-0.7,0.4-1c0.3-0.3,0.6-0.4,1-0.4s0.7,0.1,1,0.4s0.4,0.6,0.4,1c0,0.3-0.1,0.6-0.3,0.9c0.7,0,1.2-0.2,1.7-0.6
		s0.8-1,0.8-1.7h1.1V365.8z M147.9,362.7c0.2,0,0.4-0.1,0.5-0.2s0.2-0.3,0.2-0.5s-0.1-0.3-0.2-0.5s-0.3-0.2-0.5-0.2
		s-0.4,0.1-0.5,0.2s-0.2,0.3-0.2,0.5s0.1,0.4,0.2,0.5S147.7,362.7,147.9,362.7z M147.9,367.9c0.2,0,0.4-0.1,0.5-0.2s0.2-0.3,0.2-0.5
		s-0.1-0.4-0.2-0.5s-0.3-0.2-0.5-0.2s-0.4,0.1-0.5,0.2s-0.2,0.3-0.2,0.5s0.1,0.4,0.2,0.5S147.7,367.9,147.9,367.9z"/>
	<path class="st4" d="M161.3,368.8H160v-5.4c0-0.6-0.2-1.2-0.7-1.6s-1.1-0.6-1.8-0.6c-0.8,0-1.5,0.2-2,0.7s-0.7,1-0.7,1.6
		s0.2,1.3,0.7,2s0.7,1.2,0.9,1.5c0.1-0.2,0.3-0.5,0.6-0.8s0.5-0.5,0.5-0.7l0,0c-0.4,0-0.7-0.1-1-0.4s-0.4-0.6-0.4-1s0.1-0.7,0.4-1
		s0.6-0.4,1-0.4s0.7,0.1,1,0.4s0.4,0.6,0.4,1c0,0.3-0.1,0.7-0.2,1.1c-0.2,0.4-0.5,0.8-1.1,1.4c-0.5,0.6-0.8,1-0.8,1.4v0.7h-1.3V368
		c0-0.5-0.2-1.2-0.7-2.2c-0.5-0.9-0.7-1.7-0.7-2.4c0-0.9,0.3-1.6,1-2.3c0.7-0.6,1.5-0.9,2.6-0.9c1.2,0,2.1,0.3,2.8,0.8
		s1.1,1.3,1.1,2.2v5.6H161.3z M157.4,364.9c0.2,0,0.3-0.1,0.5-0.2c0.1-0.1,0.2-0.3,0.2-0.5s-0.1-0.3-0.2-0.5
		c-0.1-0.1-0.3-0.2-0.5-0.2s-0.4,0.1-0.5,0.2s-0.2,0.3-0.2,0.5s0.1,0.4,0.2,0.5S157.2,364.9,157.4,364.9z"/>
	<path class="st4" d="M162.2,356.4c-0.1,1-0.6,1.7-1.3,2.2s-1.6,0.8-2.6,0.8c-0.7,0-1.2-0.2-1.6-0.5c-0.4-0.3-0.6-0.7-0.6-1.1
		s0.1-0.7,0.4-1c0.3-0.3,0.6-0.4,1-0.4s0.7,0.1,1,0.4s0.4,0.6,0.4,1c0,0.3-0.1,0.6-0.3,0.9c0.7,0,1.2-0.2,1.7-0.6s0.8-0.9,0.8-1.6
		L162.2,356.4L162.2,356.4z M157.5,358.5c0.2,0,0.4-0.1,0.5-0.2s0.2-0.3,0.2-0.5s-0.1-0.4-0.2-0.5s-0.3-0.2-0.5-0.2
		s-0.4,0.1-0.5,0.2s-0.2,0.3-0.2,0.5s0.1,0.4,0.2,0.5S157.3,358.5,157.5,358.5z"/>
	<path class="st4" d="M170.7,367.1c0,0.5-0.2,0.9-0.5,1.2c-0.4,0.3-0.8,0.5-1.3,0.5h-5.3v-0.9h0.8v-4.8h-0.1c-0.4,0-0.7-0.1-1-0.4
		s-0.4-0.6-0.4-1s0.1-0.7,0.4-1c0.3-0.3,0.6-0.4,1-0.4s0.7,0.1,1,0.4s0.4,0.6,0.4,1v6.2h3c0.6,0,0.8-0.2,0.8-0.7v-6.7h1.3
		L170.7,367.1L170.7,367.1z M164.2,362.4c0.2,0,0.4-0.1,0.5-0.2s0.2-0.3,0.2-0.5s-0.1-0.4-0.2-0.5s-0.3-0.2-0.5-0.2
		s-0.4,0.1-0.5,0.2s-0.2,0.3-0.2,0.5s0.1,0.3,0.2,0.5S164,362.4,164.2,362.4z"/>
	<path class="st4" d="M176.1,366.1L176.1,366.1c0.4,0,0.8,0.1,1,0.4c0.3,0.3,0.4,0.6,0.4,1s-0.1,0.7-0.4,1c-0.3,0.3-0.6,0.4-1,0.4
		s-0.7-0.1-1-0.4s-0.4-0.6-0.4-1v-9c0-0.7-0.1-1.3-0.4-1.6c-0.3-0.3-0.7-0.5-1.3-0.5c-0.4,0-0.9,0.1-1.4,0.2
		c0.1-0.8,0.4-1.4,0.9-1.8s1.1-0.7,1.7-0.7c0.4,0,0.8,0.1,1.3,0.2s0.8,0.2,0.9,0.2c0.3,0,0.6-0.2,0.8-0.5l0.6,0.6
		c-0.4,0.5-0.8,0.7-1.4,0.7c-0.2,0-0.6-0.1-1.2-0.2s-0.9-0.2-1.1-0.2c-0.7,0-1.2,0.3-1.5,0.8c0.3-0.1,0.6-0.1,0.8-0.1
		c0.8,0,1.4,0.2,1.9,0.7c0.5,0.4,0.7,1.1,0.7,1.9L176.1,366.1L176.1,366.1z M176.1,368.2c0.2,0,0.4-0.1,0.5-0.2s0.2-0.3,0.2-0.5
		s-0.1-0.4-0.2-0.5s-0.3-0.2-0.5-0.2s-0.4,0.1-0.5,0.2s-0.2,0.3-0.2,0.5s0.1,0.4,0.2,0.5S176,368.2,176.1,368.2z"/>
	<path class="st4" d="M185.1,368.8h-1.3v-0.2c-0.6-1.4-1.1-2.5-1.6-3.4c-0.5-0.8-0.9-1.3-1.1-1.3c-0.2,0-0.3,0.2-0.3,0.5v1.6h0.1
		c0.4,0,0.7,0.1,1,0.4s0.4,0.6,0.4,1s-0.1,0.7-0.4,1c-0.3,0.3-0.6,0.4-1,0.4s-0.7-0.1-1-0.4s-0.4-0.6-0.4-1v-3c0-1,0.4-1.6,1.3-1.6
		c0.9,0,1.9,1.3,3,3.8V363c0-0.6-0.2-1.1-0.6-1.4s-0.9-0.5-1.5-0.5c-1,0-1.7,0.4-2.3,1.2l-0.6-0.5c0.8-1,1.8-1.5,3-1.5
		c0.9,0,1.7,0.3,2.4,0.8s0.9,1.2,0.9,2.1L185.1,368.8L185.1,368.8z M180.9,368.2c0.2,0,0.4-0.1,0.5-0.2s0.2-0.3,0.2-0.5
		s-0.1-0.4-0.2-0.5s-0.3-0.2-0.5-0.2s-0.4,0.1-0.5,0.2s-0.2,0.3-0.2,0.5s0.1,0.4,0.2,0.5S180.7,368.2,180.9,368.2z"/>
	<path class="st4" d="M193.9,368.8h-1.3v-5.4c0-0.7-0.2-1.2-0.7-1.6s-1-0.6-1.7-0.6c-1.1,0-1.8,0.3-2.1,1c0.3,0.5,0.9,0.8,1.8,0.9
		v0.5c-0.3,0-0.6,0.1-0.8,0.3c-0.2,0.2-0.3,0.5-0.3,0.8v4.1h-1.3v-4.1c0-0.6,0.2-1,0.7-1.3c-0.7-0.2-1.1-0.6-1.4-1.2
		c0.7-1.3,1.8-1.9,3.5-1.9c1,0,1.9,0.3,2.6,0.8c0.7,0.5,1,1.3,1,2.2V368.8z"/>
</g>
<g class="st3">
	<path class="st4" d="M43.7,140.6c0.9,0.3,1.4,0.9,1.4,1.8c0,0.5-0.1,0.8-0.4,1.1c-0.3,0.3-0.6,0.4-1,0.4c-0.5,0-0.8-0.1-1-0.4
		s-0.3-0.6-0.3-1.2v-1c-1.3,0.3-2.5,1.1-3.4,2.6h-1.3v-5.7h-0.1c-0.4,0-0.7-0.1-1-0.4c-0.3-0.3-0.4-0.6-0.4-1s0.1-0.7,0.4-1
		c0.3-0.3,0.6-0.4,1-0.4s0.7,0.1,1,0.4c0.3,0.3,0.4,0.6,0.4,1v6c0.9-1.1,2-1.8,3.4-2.2v-5h1.3C43.7,135.6,43.7,140.6,43.7,140.6z
		 M37.6,137.5c0.2,0,0.4-0.1,0.5-0.2s0.2-0.3,0.2-0.5s-0.1-0.4-0.2-0.5s-0.3-0.2-0.5-0.2s-0.4,0.1-0.5,0.2s-0.2,0.3-0.2,0.5
		s0.1,0.3,0.2,0.5S37.4,137.5,37.6,137.5z M44.5,142.4c0-0.2-0.1-0.4-0.2-0.6c-0.1-0.2-0.3-0.4-0.5-0.4v1.4c0,0.2,0,0.4,0.1,0.5
		c0,0.1,0.1,0.1,0.2,0.1C44.3,143.2,44.5,143,44.5,142.4z"/>
	<path class="st4" d="M45.5,131.5c-0.1,1-0.6,1.7-1.3,2.2s-1.6,0.8-2.6,0.8c-0.7,0-1.2-0.2-1.6-0.5c-0.4-0.3-0.6-0.7-0.6-1.1
		c0-0.4,0.1-0.7,0.4-1c0.3-0.3,0.6-0.4,1-0.4s0.7,0.1,1,0.4c0.3,0.3,0.4,0.6,0.4,1c0,0.3-0.1,0.6-0.3,0.9c0.7,0,1.2-0.2,1.7-0.6
		c0.5-0.4,0.8-0.9,0.8-1.6L45.5,131.5L45.5,131.5z M40.9,133.5c0.2,0,0.4-0.1,0.5-0.2s0.2-0.3,0.2-0.5s-0.1-0.4-0.2-0.5
		s-0.3-0.2-0.5-0.2s-0.4,0.1-0.5,0.2s-0.2,0.3-0.2,0.5s0.1,0.4,0.2,0.5S40.7,133.5,40.9,133.5z"/>
	<path class="st4" d="M53.4,143.9h-1.3v-5.4c0-0.7-0.2-1.2-0.7-1.6s-1-0.6-1.7-0.6c-1.1,0-1.8,0.3-2.1,1c0.3,0.5,0.9,0.8,1.8,0.9
		v0.5c-0.3,0-0.6,0.1-0.8,0.3s-0.3,0.5-0.3,0.8v4.1H47v-4.1c0-0.6,0.2-1,0.7-1.3c-0.7-0.2-1.1-0.6-1.4-1.2c0.7-1.3,1.8-1.9,3.5-1.9
		c1,0,1.9,0.3,2.6,0.8c0.7,0.5,1,1.3,1,2.2V143.9z"/>
	<path class="st4" d="M61.1,143.9h-1.3v-0.2c-0.6-1.4-1.1-2.5-1.6-3.4c-0.5-0.8-0.9-1.3-1.1-1.3c-0.2,0-0.3,0.2-0.3,0.5v1.6h0.1
		c0.4,0,0.7,0.1,1,0.4c0.3,0.3,0.4,0.6,0.4,1s-0.1,0.7-0.4,1c-0.3,0.3-0.6,0.4-1,0.4s-0.7-0.1-1-0.4c-0.3-0.3-0.4-0.6-0.4-1v-3
		c0-1,0.4-1.6,1.3-1.6c0.9,0,1.9,1.3,3,3.8v-3.6c0-0.6-0.2-1.1-0.6-1.4s-0.9-0.5-1.5-0.5c-1,0-1.7,0.4-2.3,1.2l-0.6-0.5
		c0.8-1,1.8-1.5,3-1.5c0.9,0,1.7,0.3,2.4,0.8s0.9,1.2,0.9,2.1C61.1,138.3,61.1,143.9,61.1,143.9z M56.9,143.2c0.2,0,0.4-0.1,0.5-0.2
		s0.2-0.3,0.2-0.5s-0.1-0.4-0.2-0.5s-0.3-0.2-0.5-0.2s-0.4,0.1-0.5,0.2s-0.2,0.3-0.2,0.5s0.1,0.4,0.2,0.5S56.7,143.2,56.9,143.2z"/>
	<path class="st4" d="M67.9,143.9h-1.3c-0.9-1.3-1.6-2.2-2.3-2.8c-0.7-0.6-1.4-0.9-2.3-0.9v-0.7c0.9,0,1.6,0.2,2.3,0.7
		c0.7,0.4,1.4,1.2,2.3,2.4v-4.4h-0.1c-0.4,0-0.7-0.1-1-0.4c-0.3-0.3-0.4-0.6-0.4-1s0.1-0.7,0.4-1s0.6-0.4,1-0.4c0.4,0,0.7,0.1,1,0.4
		s0.4,0.6,0.4,1V143.9z M66.5,137.5c0.2,0,0.3-0.1,0.5-0.2c0.1-0.1,0.2-0.3,0.2-0.5s-0.1-0.4-0.2-0.5c-0.1-0.1-0.3-0.2-0.5-0.2
		s-0.4,0.1-0.5,0.2c-0.1,0.1-0.2,0.3-0.2,0.5s0.1,0.3,0.2,0.5C66.1,137.5,66.4,137.5,66.5,137.5z"/>
	<path class="st4" d="M77.1,143.9h-1.3V137c0-0.3-0.1-0.5-0.3-0.5c-0.1,0-0.2,0.1-0.4,0.3s-0.3,0.5-0.6,0.8
		c-0.2,0.4-0.5,0.9-0.7,1.5c-0.3,0.6-0.6,1.5-1.1,2.6c-0.4,1.2-0.6,1.8-0.6,2v0.2h-1.3v-5.7h-0.1c-0.4,0-0.7-0.1-1-0.4
		c-0.3-0.3-0.4-0.6-0.4-1s0.1-0.7,0.4-1s0.6-0.4,1-0.4c0.4,0,0.7,0.1,1,0.4c0.3,0.3,0.4,0.6,0.4,1v4.2c0.6-1.5,1.2-2.9,1.8-3.9
		s1.3-1.6,1.9-1.6c0.8,0,1.3,0.5,1.3,1.5C77.1,137,77.1,143.9,77.1,143.9z M70.8,137.5c0.2,0,0.4-0.1,0.5-0.2
		c0.1-0.1,0.2-0.3,0.2-0.5s-0.1-0.4-0.2-0.5c-0.1-0.1-0.3-0.2-0.5-0.2s-0.4,0.1-0.5,0.2c-0.1,0.1-0.2,0.3-0.2,0.5s0.1,0.3,0.2,0.5
		C70.4,137.5,70.6,137.5,70.8,137.5z"/>
	<path class="st4" d="M77.1,147.3h-0.7v-0.8c-0.2,0-0.3-0.1-0.4-0.2c-0.1-0.1-0.2-0.3-0.2-0.4c0-0.2,0.1-0.3,0.2-0.5
		c0.1-0.1,0.3-0.2,0.4-0.2c0.2,0,0.4,0.1,0.5,0.2c0.1,0.1,0.2,0.3,0.2,0.5V147.3z M76.4,146.1c0.2,0,0.3-0.1,0.3-0.3
		s-0.1-0.3-0.3-0.3s-0.3,0.1-0.3,0.3S76.2,146.1,76.4,146.1z"/>
	<path class="st4" d="M86.1,140.6c0.9,0.3,1.4,0.9,1.4,1.8c0,0.5-0.1,0.8-0.4,1.1s-0.6,0.4-1,0.4c-0.5,0-0.8-0.1-1-0.4
		s-0.3-0.6-0.3-1.2v-1c-1.3,0.3-2.5,1.1-3.4,2.6h-1.3v-5.7H80c-0.4,0-0.7-0.1-1-0.4c-0.3-0.3-0.4-0.6-0.4-1s0.1-0.7,0.4-1
		s0.6-0.4,1-0.4c0.4,0,0.7,0.1,1,0.4c0.3,0.3,0.4,0.6,0.4,1v6c0.9-1.1,2-1.8,3.4-2.2v-5h1.3V140.6z M80,137.5c0.2,0,0.4-0.1,0.5-0.2
		c0.1-0.1,0.2-0.3,0.2-0.5s-0.1-0.4-0.2-0.5c-0.1-0.1-0.3-0.2-0.5-0.2s-0.4,0.1-0.5,0.2c-0.1,0.1-0.2,0.3-0.2,0.5s0.1,0.3,0.2,0.5
		C79.6,137.5,79.8,137.5,80,137.5z M86.8,142.4c0-0.2-0.1-0.4-0.2-0.6c-0.1-0.2-0.3-0.4-0.5-0.4v1.4c0,0.2,0,0.4,0.1,0.5
		c0,0.1,0.1,0.1,0.2,0.1C86.7,143.2,86.8,143,86.8,142.4z"/>
</g>
<g class="st3">
	<path class="st4" d="M116.1,77.4c0,0.4-0.2,0.8-0.6,1.1c-0.4,0.3-0.8,0.4-1.4,0.4c-0.5,0-1-0.1-1.4-0.4s-0.6-0.6-0.6-1.1v-1.6H112
		c-0.4,0-0.7-0.1-1-0.4s-0.4-0.6-0.4-1c0-0.4,0.1-0.7,0.4-1s0.6-0.4,1-0.4s0.7,0.1,1,0.4s0.4,0.6,0.4,1v2.9c0,0.2,0.1,0.3,0.2,0.4
		c0.1,0.1,0.3,0.2,0.4,0.2c0.2,0,0.3-0.1,0.4-0.2c0.1-0.1,0.2-0.3,0.2-0.4v-4.2c0-0.6-0.2-1.1-0.6-1.4s-0.9-0.5-1.5-0.5
		c-1,0-1.7,0.4-2.3,1.2l-0.6-0.5c0.8-1,1.8-1.5,3-1.5c0.9,0,1.7,0.3,2.4,0.8c0.7,0.5,0.9,1.2,0.9,2.1v4.1H116.1z M112.2,75.2
		c0.2,0,0.4-0.1,0.5-0.2c0.1-0.1,0.2-0.3,0.2-0.5s-0.1-0.4-0.2-0.5c-0.1-0.1-0.3-0.2-0.5-0.2s-0.4,0.1-0.5,0.2
		c-0.1,0.1-0.2,0.3-0.2,0.5s0.1,0.3,0.2,0.5S112,75.2,112.2,75.2z"/>
	<path class="st4" d="M115.7,69.4h-0.6v-2.6h0.6V69.4z"/>
	<path class="st4" d="M122.8,78.9h-1.3v-5.6c0-1.3-0.6-2-1.7-2c-0.8,0-1.4,0.4-1.9,1.2l-0.6-0.5c0.7-1,1.6-1.5,2.6-1.5
		c0.9,0,1.6,0.3,2.2,0.8c0.5,0.5,0.8,1.2,0.8,2.1v5.5H122.8z"/>
	<path class="st4" d="M130.8,77.2c0,0.5-0.2,0.9-0.5,1.2c-0.4,0.3-0.8,0.5-1.3,0.5h-4.3v-2.6c0-0.7,0.2-1.1,0.7-1.4
		c-0.5-0.3-0.7-0.7-0.7-1.4v-1.7c0-0.4,0.1-0.7,0.4-1c0.3-0.3,0.6-0.4,1-0.4s0.7,0.1,1,0.4s0.4,0.6,0.4,1c0,0.4-0.1,0.7-0.4,1
		c-0.3,0.3-0.6,0.4-1,0.4H126v0.3c0,0.4,0.1,0.6,0.3,0.8c0.2,0.2,0.5,0.3,0.8,0.3v0.5c-0.3,0-0.6,0.1-0.8,0.3
		c-0.2,0.2-0.3,0.5-0.3,0.8v1.7h2.7c0.6,0,0.8-0.2,0.8-0.7v-6.7h1.3L130.8,77.2L130.8,77.2z M126,72.5c0.2,0,0.4-0.1,0.5-0.2
		c0.1-0.1,0.2-0.3,0.2-0.5s-0.1-0.4-0.2-0.5c-0.1-0.1-0.3-0.2-0.5-0.2s-0.4,0.1-0.5,0.2c-0.1,0.1-0.2,0.3-0.2,0.5s0.1,0.3,0.2,0.5
		S125.8,72.5,126,72.5z"/>
	<path class="st4" d="M140.5,78.9h-1.3v-4.6c0-0.4,0-0.6-0.1-0.7c-1.5,1.2-2.6,2.1-3.1,2.9s-0.9,1.6-0.9,2.3h-1.3v-5.7h-0.1
		c-0.4,0-0.7-0.1-1-0.4s-0.4-0.6-0.4-1c0-0.4,0.1-0.7,0.4-1c0.3-0.3,0.6-0.4,1-0.4s0.7,0.1,1,0.4s0.4,0.6,0.4,1v4.8
		c0.4-0.9,1.5-2,3.5-3.5c-0.6-0.4-0.9-0.8-0.9-1.3c0-0.4,0.1-0.7,0.4-1c0.3-0.3,0.6-0.4,1-0.4s0.7,0.1,1,0.4s0.4,0.6,0.4,1
		c0,0.5-0.2,0.9-0.6,1.2c0.5,0.3,0.7,0.7,0.7,1.3L140.5,78.9L140.5,78.9z M133.6,72.5c0.2,0,0.4-0.1,0.5-0.2
		c0.1-0.1,0.2-0.3,0.2-0.5s-0.1-0.4-0.2-0.5c-0.1-0.1-0.3-0.2-0.5-0.2s-0.4,0.1-0.5,0.2c-0.1,0.1-0.2,0.3-0.2,0.5s0.1,0.3,0.2,0.5
		S133.5,72.5,133.6,72.5z M139.1,72.7c0.4-0.3,0.6-0.6,0.6-0.9c0-0.2-0.1-0.4-0.2-0.5c-0.1-0.1-0.3-0.2-0.5-0.2s-0.4,0.1-0.5,0.2
		c-0.1,0.1-0.2,0.3-0.2,0.5C138.3,72.1,138.6,72.4,139.1,72.7z"/>
	<path class="st4" d="M140.5,82.3h-0.7v-0.8c-0.2,0-0.3-0.1-0.4-0.2c-0.1-0.1-0.2-0.3-0.2-0.4c0-0.2,0.1-0.3,0.2-0.5
		c0.1-0.1,0.3-0.2,0.4-0.2c0.2,0,0.4,0.1,0.5,0.2c0.1,0.1,0.2,0.3,0.2,0.5V82.3z M139.8,81.1c0.2,0,0.3-0.1,0.3-0.3
		c0-0.2-0.1-0.3-0.3-0.3s-0.3,0.1-0.3,0.3C139.5,81,139.5,81.1,139.8,81.1z"/>
	<path class="st4" d="M141.4,66.5c-0.1,0.9-0.4,1.6-1,2.2c-0.6,0.6-1.5,0.8-2.6,0.8c-0.4,0-0.7,0-1-0.1v-0.5c0.5,0,0.9-0.1,1.1-0.4
		c-0.3,0-0.5-0.1-0.7-0.3c-0.2-0.2-0.3-0.4-0.3-0.7c0-0.3,0.1-0.5,0.3-0.7s0.4-0.3,0.7-0.3s0.5,0.1,0.7,0.3c0.2,0.2,0.3,0.4,0.3,0.7
		c0,0.5-0.3,1-0.8,1.4c0.7,0,1.4-0.3,1.9-0.7c0.5-0.5,0.8-1,0.8-1.7C140.8,66.5,141.4,66.5,141.4,66.5z M137.8,68
		c0.1,0,0.3,0,0.4-0.1c0.1-0.1,0.1-0.2,0.1-0.4c0-0.1,0-0.3-0.1-0.4c-0.1-0.1-0.2-0.1-0.4-0.1c-0.1,0-0.3,0-0.4,0.1
		c-0.1,0.1-0.1,0.2-0.1,0.4c0,0.1,0,0.3,0.1,0.4C137.5,67.9,137.7,68,137.8,68z"/>
	<path class="st4" d="M149.5,75.6c0.9,0.3,1.4,0.9,1.4,1.8c0,0.5-0.1,0.8-0.4,1.1c-0.3,0.3-0.6,0.4-1,0.4c-0.5,0-0.8-0.1-1-0.4
		s-0.3-0.6-0.3-1.2v-1c-1.3,0.3-2.5,1.1-3.4,2.6h-1.3v-5.7h-0.1c-0.4,0-0.7-0.1-1-0.4s-0.4-0.6-0.4-1c0-0.4,0.1-0.7,0.4-1
		c0.3-0.3,0.6-0.4,1-0.4s0.7,0.1,1,0.4s0.4,0.6,0.4,1v6c0.9-1.1,2-1.8,3.4-2.2v-5h1.3L149.5,75.6L149.5,75.6z M143.4,72.5
		c0.2,0,0.4-0.1,0.5-0.2c0.1-0.1,0.2-0.3,0.2-0.5s-0.1-0.4-0.2-0.5c-0.1-0.1-0.3-0.2-0.5-0.2s-0.4,0.1-0.5,0.2
		c-0.1,0.1-0.2,0.3-0.2,0.5s0.1,0.3,0.2,0.5S143.2,72.5,143.4,72.5z M150.2,77.4c0-0.2-0.1-0.4-0.2-0.6c-0.1-0.2-0.3-0.4-0.5-0.4
		v1.4c0,0.2,0,0.4,0.1,0.5c0,0.1,0.1,0.1,0.2,0.1C150.1,78.2,150.2,78,150.2,77.4z"/>
	<path class="st4" d="M159.8,77.2c0,0.5-0.2,0.9-0.5,1.2c-0.4,0.3-0.8,0.5-1.3,0.5h-5.3V78h0.8v-4.8h-0.1c-0.4,0-0.7-0.1-1-0.4
		s-0.4-0.6-0.4-1c0-0.4,0.1-0.7,0.4-1c0.3-0.3,0.6-0.4,1-0.4s0.7,0.1,1,0.4s0.4,0.6,0.4,1V78h3c0.6,0,0.8-0.2,0.8-0.7v-11h1.3
		L159.8,77.2L159.8,77.2z M153.3,72.5c0.2,0,0.4-0.1,0.5-0.2c0.1-0.1,0.2-0.3,0.2-0.5s-0.1-0.4-0.2-0.5c-0.1-0.1-0.3-0.2-0.5-0.2
		s-0.4,0.1-0.5,0.2c-0.1,0.1-0.2,0.3-0.2,0.5s0.1,0.3,0.2,0.5S153.1,72.5,153.3,72.5z"/>
	<path class="st4" d="M160.6,66.5c-0.1,1-0.6,1.7-1.3,2.2s-1.6,0.8-2.6,0.8c-0.7,0-1.2-0.2-1.6-0.5c-0.4-0.3-0.6-0.7-0.6-1.1
		c0-0.4,0.1-0.7,0.4-1c0.3-0.3,0.6-0.4,1-0.4s0.7,0.1,1,0.4s0.4,0.6,0.4,1c0,0.3-0.1,0.6-0.3,0.9c0.7,0,1.2-0.2,1.7-0.6
		c0.5-0.4,0.8-0.9,0.8-1.6h1.1V66.5z M156,68.5c0.2,0,0.4-0.1,0.5-0.2c0.1-0.1,0.2-0.3,0.2-0.5s-0.1-0.4-0.2-0.5
		c-0.1-0.1-0.3-0.2-0.5-0.2s-0.4,0.1-0.5,0.2c-0.1,0.1-0.2,0.3-0.2,0.5s0.1,0.4,0.2,0.5C155.6,68.4,155.8,68.5,156,68.5z"/>
	<path class="st4" d="M168.8,75.6c0.9,0.3,1.4,0.9,1.4,1.8c0,0.5-0.1,0.8-0.4,1.1c-0.3,0.3-0.6,0.4-1,0.4c-0.5,0-0.8-0.1-1-0.4
		s-0.3-0.6-0.3-1.2v-1c-1.3,0.3-2.5,1.1-3.4,2.6h-1.3v-5.7h-0.1c-0.4,0-0.7-0.1-1-0.4s-0.4-0.6-0.4-1c0-0.4,0.1-0.7,0.4-1
		c0.3-0.3,0.6-0.4,1-0.4s0.7,0.1,1,0.4s0.4,0.6,0.4,1v6c0.9-1.1,2-1.8,3.4-2.2v-5h1.3L168.8,75.6L168.8,75.6z M162.6,72.5
		c0.2,0,0.4-0.1,0.5-0.2c0.1-0.1,0.2-0.3,0.2-0.5s-0.1-0.4-0.2-0.5c-0.1-0.1-0.3-0.2-0.5-0.2s-0.4,0.1-0.5,0.2
		c-0.1,0.1-0.2,0.3-0.2,0.5s0.1,0.3,0.2,0.5S162.4,72.5,162.6,72.5z M169.5,77.4c0-0.2-0.1-0.4-0.2-0.6c-0.1-0.2-0.3-0.4-0.5-0.4
		v1.4c0,0.2,0,0.4,0.1,0.5c0,0.1,0.1,0.1,0.2,0.1C169.3,78.2,169.5,78,169.5,77.4z"/>
	<path class="st4" d="M178.7,78.9h-1.3c-0.6-1.4-1.4-2.5-2.3-3.3c-0.9,0.8-1.6,1.9-2.2,3.3h-1.3v-7.1c0-0.4,0.1-0.7,0.4-1
		c0.3-0.3,0.6-0.4,1-0.4s0.7,0.1,1,0.4s0.4,0.6,0.4,1c0,0.4-0.1,0.7-0.4,1c-0.3,0.3-0.6,0.4-1,0.4h-0.1v3.7c0.6-1,1.3-1.8,2.2-2.5
		c0.9,0.7,1.7,1.5,2.3,2.5v-6.3h1.3L178.7,78.9L178.7,78.9z M172.9,72.5c0.2,0,0.4-0.1,0.5-0.2c0.1-0.1,0.2-0.3,0.2-0.5
		s-0.1-0.4-0.2-0.5c-0.1-0.1-0.3-0.2-0.5-0.2s-0.4,0.1-0.5,0.2c-0.1,0.1-0.2,0.3-0.2,0.5s0.1,0.3,0.2,0.5S172.7,72.5,172.9,72.5z"/>
	<path class="st4" d="M186.4,78.9h-1.3v-0.2c-0.6-1.4-1.1-2.5-1.6-3.4c-0.5-0.8-0.9-1.3-1.1-1.3c-0.2,0-0.3,0.2-0.3,0.5v1.6h0.1
		c0.4,0,0.7,0.1,1,0.4s0.4,0.6,0.4,1c0,0.4-0.1,0.7-0.4,1c-0.3,0.3-0.6,0.4-1,0.4s-0.7-0.1-1-0.4s-0.4-0.6-0.4-1v-3
		c0-1,0.4-1.6,1.3-1.6c0.9,0,1.9,1.3,3,3.8v-3.6c0-0.6-0.2-1.1-0.6-1.4s-0.9-0.5-1.5-0.5c-1,0-1.7,0.4-2.3,1.2l-0.6-0.5
		c0.8-1,1.8-1.5,3-1.5c0.9,0,1.7,0.3,2.4,0.8s0.9,1.2,0.9,2.1L186.4,78.9L186.4,78.9z M182.2,78.2c0.2,0,0.4-0.1,0.5-0.2
		c0.1-0.1,0.2-0.3,0.2-0.5s-0.1-0.4-0.2-0.5c-0.1-0.1-0.3-0.2-0.5-0.2s-0.4,0.1-0.5,0.2c-0.1,0.1-0.2,0.3-0.2,0.5s0.1,0.4,0.2,0.5
		C181.8,78.1,182,78.2,182.2,78.2z"/>
	<path class="st4" d="M194.7,71.1c-0.4,0.5-0.8,0.7-1.4,0.7c-0.2,0-0.6-0.1-1.2-0.2c-0.6-0.1-0.9-0.2-1.1-0.2
		c-0.7,0-1.2,0.3-1.5,0.8c0.3-0.1,0.7-0.1,1.1-0.1c1.2,0,2.1,0.2,2.7,0.7c0.6,0.5,0.9,1.1,0.9,1.9v3c0,0.4-0.1,0.7-0.4,1
		s-0.6,0.4-1,0.4s-0.7-0.1-1-0.4s-0.4-0.6-0.4-1c0-0.4,0.1-0.7,0.4-1s0.6-0.4,1-0.4h0.1v-1.5c0-0.8-0.2-1.3-0.6-1.5
		c-0.4-0.3-1.1-0.4-2-0.4c-0.7,0-1.3,0.1-1.8,0.2c0-0.8,0.3-1.5,0.8-2s1.1-0.7,1.8-0.7c0.4,0,0.8,0.1,1.3,0.2
		c0.5,0.2,0.8,0.2,0.9,0.2c0.3,0,0.6-0.2,0.8-0.5L194.7,71.1z M192.8,78.2c0.2,0,0.3-0.1,0.5-0.2c0.1-0.1,0.2-0.3,0.2-0.5
		s-0.1-0.4-0.2-0.5c-0.1-0.1-0.3-0.2-0.5-0.2s-0.4,0.1-0.5,0.2c-0.1,0.1-0.2,0.3-0.2,0.5s0.1,0.4,0.2,0.5
		C192.4,78.2,192.6,78.2,192.8,78.2z"/>
	<path class="st4" d="M200.9,78.9h-1.3v-5.6c0-1.3-0.6-2-1.7-2c-0.8,0-1.4,0.4-1.9,1.2l-0.6-0.5c0.7-1,1.6-1.5,2.6-1.5
		c0.9,0,1.6,0.3,2.2,0.8c0.5,0.5,0.8,1.2,0.8,2.1v5.5H200.9z"/>
	<path class="st4" d="M208.9,77.2c0,0.5-0.2,0.9-0.5,1.2c-0.4,0.3-0.8,0.5-1.3,0.5h-4.3v-2.6c0-0.7,0.2-1.1,0.7-1.4
		c-0.5-0.3-0.7-0.7-0.7-1.4v-1.7c0-0.4,0.1-0.7,0.4-1c0.3-0.3,0.6-0.4,1-0.4s0.7,0.1,1,0.4s0.4,0.6,0.4,1c0,0.4-0.1,0.7-0.4,1
		c-0.3,0.3-0.6,0.4-1,0.4h-0.1v0.3c0,0.4,0.1,0.6,0.3,0.8c0.2,0.2,0.5,0.3,0.8,0.3v0.5c-0.3,0-0.6,0.1-0.8,0.3
		c-0.2,0.2-0.3,0.5-0.3,0.8v1.7h2.7c0.6,0,0.8-0.2,0.8-0.7v-6.7h1.3L208.9,77.2L208.9,77.2z M204.1,72.5c0.2,0,0.4-0.1,0.5-0.2
		c0.1-0.1,0.2-0.3,0.2-0.5s-0.1-0.4-0.2-0.5c-0.1-0.1-0.3-0.2-0.5-0.2s-0.4,0.1-0.5,0.2c-0.1,0.1-0.2,0.3-0.2,0.5s0.1,0.3,0.2,0.5
		S203.9,72.5,204.1,72.5z"/>
	<path class="st4" d="M212.1,76.2L212.1,76.2c0.4,0,0.8,0.1,1,0.4s0.4,0.6,0.4,1c0,0.4-0.1,0.7-0.4,1s-0.6,0.4-1,0.4s-0.7-0.1-1-0.4
		s-0.4-0.6-0.4-1v-6.9h1.3L212.1,76.2L212.1,76.2z M212.2,78.2c0.2,0,0.4-0.1,0.5-0.2c0.1-0.1,0.2-0.3,0.2-0.5s-0.1-0.4-0.2-0.5
		c-0.1-0.1-0.3-0.2-0.5-0.2s-0.3,0.1-0.5,0.2c-0.1,0.1-0.2,0.3-0.2,0.5s0.1,0.4,0.2,0.5C211.9,78.2,212,78.2,212.2,78.2z"/>
	<path class="st4" d="M222.4,78.9h-1.3v-5.4c0-0.6-0.2-1.2-0.7-1.6c-0.5-0.4-1.1-0.6-1.8-0.6c-0.8,0-1.5,0.2-2,0.7s-0.7,1-0.7,1.6
		c0,0.6,0.2,1.3,0.7,2s0.7,1.2,0.9,1.5c0.1-0.2,0.3-0.5,0.6-0.8s0.5-0.5,0.5-0.7l0,0c-0.4,0-0.7-0.1-1-0.4s-0.4-0.6-0.4-1
		c0-0.4,0.1-0.7,0.4-1s0.6-0.4,1-0.4s0.7,0.1,1,0.4s0.4,0.6,0.4,1c0,0.3-0.1,0.7-0.2,1.1c-0.2,0.4-0.5,0.8-1.1,1.4
		c-0.5,0.6-0.8,1-0.8,1.4v0.7h-1.3v-0.7c0-0.5-0.2-1.2-0.7-2.2c-0.5-0.9-0.7-1.7-0.7-2.4c0-0.9,0.3-1.6,1-2.3
		c0.7-0.6,1.5-0.9,2.6-0.9c1.2,0,2.1,0.3,2.8,0.8s1.1,1.3,1.1,2.2v5.6H222.4z M218.5,75c0.2,0,0.3-0.1,0.5-0.2
		c0.1-0.1,0.2-0.3,0.2-0.5s-0.1-0.3-0.2-0.5c-0.1-0.1-0.3-0.2-0.5-0.2s-0.4,0.1-0.5,0.2c-0.1,0.1-0.2,0.3-0.2,0.5s0.1,0.4,0.2,0.5
		C218.1,74.9,218.3,75,218.5,75z"/>
	<path class="st4" d="M222.4,69.4h-6.2c0.5-1.7,1.5-2.5,3.1-2.5c0.3,0,0.5,0,0.7,0.1v-0.6h0.6v0.7c0.4,0.2,0.8,0.5,1.1,0.9v-1.6h0.6
		L222.4,69.4L222.4,69.4z M221.4,68.8c-0.4-0.8-1.1-1.2-2.1-1.2s-1.7,0.4-2.1,1.2H221.4z"/>
	<path class="st4" d="M230.8,77.2c0,0.5-0.2,0.9-0.5,1.2c-0.4,0.3-0.8,0.5-1.3,0.5h-2c-0.5,0-0.9-0.2-1.3-0.5
		c-0.4-0.3-0.5-0.7-0.5-1.2v-2.9c0-0.4,0.1-0.7,0.4-1c0.3-0.3,0.6-0.4,1-0.4s0.7,0.1,1,0.4s0.4,0.6,0.4,1c0,0.4-0.1,0.7-0.4,1
		s-0.6,0.4-1,0.4h-0.1v1.7c0,0.5,0.3,0.7,0.8,0.7h1.4c0.6,0,0.8-0.2,0.8-0.7v-4c0-0.6-0.2-1.1-0.7-1.4s-1-0.5-1.7-0.5
		c-0.5,0-1,0.1-1.5,0.3s-0.9,0.5-1.1,0.9l-0.6-0.5c0.4-0.5,0.8-0.8,1.4-1.1c0.6-0.3,1.2-0.4,1.8-0.4c1,0,1.8,0.3,2.5,0.8
		s1.1,1.2,1.1,2.1v3.6H230.8z M226.5,74.9c0.2,0,0.3-0.1,0.5-0.2c0.1-0.1,0.2-0.3,0.2-0.5s-0.1-0.4-0.2-0.5
		c-0.1-0.1-0.3-0.2-0.5-0.2s-0.4,0.1-0.5,0.2c-0.1,0.1-0.2,0.3-0.2,0.5s0.1,0.4,0.2,0.5C226.1,74.8,226.3,74.9,226.5,74.9z"/>
	<path class="st4" d="M239.8,75.6c0.9,0.3,1.4,0.9,1.4,1.8c0,0.5-0.1,0.8-0.4,1.1c-0.3,0.3-0.6,0.4-1,0.4c-0.5,0-0.8-0.1-1-0.4
		s-0.3-0.6-0.3-1.2v-1c-1.3,0.3-2.5,1.1-3.4,2.6h-1.3v-5.7h-0.1c-0.4,0-0.7-0.1-1-0.4s-0.4-0.6-0.4-1c0-0.4,0.1-0.7,0.4-1
		c0.3-0.3,0.6-0.4,1-0.4s0.7,0.1,1,0.4s0.4,0.6,0.4,1v6c0.9-1.1,2-1.8,3.4-2.2v-5h1.3L239.8,75.6L239.8,75.6z M233.7,72.5
		c0.2,0,0.4-0.1,0.5-0.2c0.1-0.1,0.2-0.3,0.2-0.5s-0.1-0.4-0.2-0.5c-0.1-0.1-0.3-0.2-0.5-0.2s-0.4,0.1-0.5,0.2
		c-0.1,0.1-0.2,0.3-0.2,0.5s0.1,0.3,0.2,0.5S233.5,72.5,233.7,72.5z M240.5,77.4c0-0.2-0.1-0.4-0.2-0.6c-0.1-0.2-0.3-0.4-0.5-0.4
		v1.4c0,0.2,0,0.4,0.1,0.5c0,0.1,0.1,0.1,0.2,0.1C240.4,78.2,240.5,78,240.5,77.4z"/>
</g>
<g class="st3">
	<path class="st4" d="M459.4,297h-1.3v-0.4c-0.3-0.7-0.8-1.6-1.6-2.8c-0.8-1.2-1.3-1.7-1.7-1.7c-0.2,0-0.3,0.2-0.3,0.5v1.6h0.1
		c0.4,0,0.7,0.1,1,0.4s0.4,0.6,0.4,1c0,0.4-0.1,0.7-0.4,1s-0.6,0.4-1,0.4s-0.7-0.1-1-0.4s-0.4-0.6-0.4-1v-3c0-1,0.4-1.6,1.3-1.6
		c0.3,0,0.7,0.1,1,0.4s0.8,0.9,1.5,1.8c0.7,0.9,1,1.5,1.1,1.7v-3.5c0-0.3-0.1-0.6-0.2-0.9c-0.6,0.2-1.1,0.4-1.7,0.4v-0.4
		c0.4-0.1,0.8-0.3,1.3-0.6c-0.5-0.4-1-0.5-1.7-0.5c-0.5,0-1,0.1-1.5,0.3c-0.5,0.2-0.9,0.5-1.1,0.9l-0.6-0.5c0.4-0.5,0.8-0.8,1.4-1.1
		c0.6-0.3,1.2-0.4,1.8-0.4c0.9,0,1.7,0.2,2.4,0.7c0.3-0.3,0.5-0.7,0.7-1l0.9,0.6c-0.2,0.4-0.5,0.8-0.9,1.1c0.3,0.5,0.5,1,0.5,1.5
		V297z M454.5,296.3c0.2,0,0.4-0.1,0.5-0.2c0.1-0.1,0.2-0.3,0.2-0.5s-0.1-0.4-0.2-0.5c-0.1-0.1-0.3-0.2-0.5-0.2s-0.4,0.1-0.5,0.2
		c-0.1,0.1-0.2,0.3-0.2,0.5s0.1,0.4,0.2,0.5C454.1,296.2,454.3,296.3,454.5,296.3z"/>
	<path class="st4" d="M459.4,287.5h-6.2c0.5-1.7,1.5-2.5,3.1-2.5C457.9,285.1,458.9,285.9,459.4,287.5z M458.3,286.9
		c-0.4-0.8-1.1-1.2-2.1-1.2s-1.7,0.4-2.1,1.2H458.3z"/>
	<path class="st4" d="M468.3,293.7c0.9,0.3,1.4,0.9,1.4,1.8c0,0.5-0.1,0.8-0.4,1.1c-0.3,0.3-0.6,0.4-1,0.4c-0.5,0-0.8-0.1-1-0.4
		s-0.3-0.6-0.3-1.2v-1c-1.3,0.3-2.5,1.1-3.4,2.6h-1.3v-5.7h-0.1c-0.4,0-0.7-0.1-1-0.4s-0.4-0.6-0.4-1c0-0.4,0.1-0.7,0.4-1
		s0.6-0.4,1-0.4s0.7,0.1,1,0.4s0.4,0.6,0.4,1v6c0.9-1.1,2-1.8,3.4-2.2v-5h1.3L468.3,293.7L468.3,293.7z M462.2,290.6
		c0.2,0,0.4-0.1,0.5-0.2c0.1-0.1,0.2-0.3,0.2-0.5s-0.1-0.4-0.2-0.5c-0.1-0.1-0.3-0.2-0.5-0.2s-0.4,0.1-0.5,0.2
		c-0.1,0.1-0.2,0.3-0.2,0.5s0.1,0.3,0.2,0.5S462,290.6,462.2,290.6z M469.1,295.5c0-0.2-0.1-0.4-0.2-0.6s-0.3-0.4-0.5-0.4v1.4
		c0,0.2,0,0.4,0.1,0.5c0.1,0.1,0.1,0.1,0.2,0.1C468.9,296.3,469.1,296.1,469.1,295.5z"/>
	<path class="st4" d="M478.5,297h-1.3v-6.9c0-0.3-0.1-0.5-0.3-0.5c-0.1,0-0.2,0.1-0.4,0.3c-0.2,0.2-0.3,0.5-0.6,0.8
		s-0.5,0.9-0.7,1.5c-0.2,0.6-0.6,1.5-1.1,2.6c-0.5,1.1-0.6,1.8-0.6,2v0.2h-1.3v-5.7h-0.1c-0.4,0-0.7-0.1-1-0.4s-0.4-0.6-0.4-1
		c0-0.4,0.1-0.7,0.4-1s0.6-0.4,1-0.4s0.7,0.1,1,0.4s0.4,0.6,0.4,1v4.2c0.6-1.5,1.2-2.9,1.8-3.9s1.3-1.6,1.9-1.6
		c0.8,0,1.3,0.5,1.3,1.5L478.5,297L478.5,297z M472.1,290.6c0.2,0,0.4-0.1,0.5-0.2c0.1-0.1,0.2-0.3,0.2-0.5s-0.1-0.4-0.2-0.5
		c-0.1-0.1-0.3-0.2-0.5-0.2s-0.4,0.1-0.5,0.2c-0.1,0.1-0.2,0.3-0.2,0.5s0.1,0.3,0.2,0.5S471.9,290.6,472.1,290.6z"/>
	<path class="st4" d="M486.8,289.2c-0.4,0.5-0.8,0.7-1.4,0.7c-0.2,0-0.6-0.1-1.2-0.2c-0.6-0.1-0.9-0.2-1.1-0.2
		c-0.7,0-1.2,0.3-1.5,0.8c0.3-0.1,0.7-0.1,1.1-0.1c1.2,0,2.1,0.2,2.7,0.7s0.9,1.1,0.9,1.9v3c0,0.4-0.1,0.7-0.4,1s-0.6,0.4-1,0.4
		s-0.7-0.1-1-0.4s-0.4-0.6-0.4-1c0-0.4,0.1-0.7,0.4-1s0.6-0.4,1-0.4h0.1V293c0-0.8-0.2-1.3-0.6-1.5s-1.1-0.4-2-0.4
		c-0.7,0-1.3,0.1-1.8,0.2c0-0.8,0.3-1.5,0.8-2s1.1-0.7,1.8-0.7c0.4,0,0.8,0.1,1.3,0.2c0.5,0.1,0.8,0.2,0.9,0.2
		c0.3,0,0.6-0.2,0.8-0.5L486.8,289.2z M484.9,296.3c0.2,0,0.3-0.1,0.5-0.2c0.2-0.1,0.2-0.3,0.2-0.5s-0.1-0.4-0.2-0.5
		c-0.1-0.1-0.3-0.2-0.5-0.2s-0.4,0.1-0.5,0.2c-0.1,0.1-0.2,0.3-0.2,0.5s0.1,0.4,0.2,0.5C484.5,296.2,484.7,296.3,484.9,296.3z"/>
	<path class="st4" d="M487.1,284.6c-0.1,1-0.6,1.7-1.3,2.2s-1.6,0.8-2.6,0.8c-0.7,0-1.2-0.2-1.6-0.5c-0.4-0.3-0.6-0.7-0.6-1.1
		c0-0.4,0.1-0.7,0.4-1c0.3-0.3,0.6-0.4,1-0.4s0.7,0.1,1,0.4s0.4,0.6,0.4,1c0,0.3-0.1,0.6-0.3,0.9c0.7,0,1.2-0.2,1.7-0.6
		c0.5-0.4,0.8-0.9,0.8-1.6L487.1,284.6L487.1,284.6z M482.4,286.6c0.2,0,0.4-0.1,0.5-0.2c0.1-0.1,0.2-0.3,0.2-0.5s-0.1-0.4-0.2-0.5
		c-0.1-0.1-0.3-0.2-0.5-0.2s-0.4,0.1-0.5,0.2c-0.1,0.1-0.2,0.3-0.2,0.5s0.1,0.4,0.2,0.5C482,286.5,482.3,286.6,482.4,286.6z"/>
	<path class="st4" d="M496.6,297h-1.3c0-0.6-0.4-1.5-1.1-2.8s-1.2-2.4-1.3-3.2c-0.1,0.8-0.6,1.9-1.3,3.2c-0.7,1.3-1.1,2.2-1.1,2.8
		h-1.3v-5.7h-0.1c-0.4,0-0.7-0.1-1-0.4s-0.4-0.6-0.4-1c0-0.4,0.1-0.7,0.4-1s0.6-0.4,1-0.4s0.7,0.1,1,0.4s0.4,0.6,0.4,1v4.6
		c0.1-0.3,0.4-0.8,0.8-1.5c0.8-1.3,1.2-2.8,1.2-4.3h0.9c0,1.5,0.4,2.9,1.2,4.3c0.4,0.7,0.7,1.2,0.8,1.5v-5.8h1.3v8.3H496.6z
		 M489.1,290.6c0.2,0,0.4-0.1,0.5-0.2c0.1-0.1,0.2-0.3,0.2-0.5s-0.1-0.4-0.2-0.5c-0.1-0.1-0.3-0.2-0.5-0.2s-0.4,0.1-0.5,0.2
		c-0.1,0.1-0.2,0.3-0.2,0.5s0.1,0.3,0.2,0.5S488.9,290.6,489.1,290.6z"/>
	<path class="st4" d="M504.6,295.3c0,0.5-0.2,0.9-0.5,1.2c-0.3,0.3-0.8,0.5-1.3,0.5h-4.3v-2.6c0-0.7,0.2-1.1,0.7-1.4
		c-0.5-0.3-0.7-0.7-0.7-1.4v-1.7c0-0.4,0.1-0.7,0.4-1s0.6-0.4,1-0.4s0.7,0.1,1,0.4s0.4,0.6,0.4,1c0,0.4-0.1,0.7-0.4,1
		s-0.6,0.4-1,0.4h-0.1v0.3c0,0.4,0.1,0.6,0.3,0.8c0.2,0.2,0.5,0.3,0.8,0.3v0.5c-0.3,0-0.6,0.1-0.8,0.3c-0.2,0.2-0.3,0.5-0.3,0.8v1.7
		h2.7c0.6,0,0.8-0.2,0.8-0.7v-6.7h1.3L504.6,295.3L504.6,295.3z M499.9,290.6c0.2,0,0.4-0.1,0.5-0.2c0.1-0.1,0.2-0.3,0.2-0.5
		s-0.1-0.4-0.2-0.5c-0.1-0.1-0.3-0.2-0.5-0.2s-0.4,0.1-0.5,0.2c-0.1,0.1-0.2,0.3-0.2,0.5s0.1,0.3,0.2,0.5S499.7,290.6,499.9,290.6z"
		/>
	<path class="st4" d="M505.9,284.1c0,0.2-0.1,0.5-0.3,0.6c-0.2,0.1-0.5,0.3-1,0.5s-0.8,0.3-1,0.4c0.3,0,0.5,0.1,0.7,0.3
		c0.2,0.2,0.3,0.4,0.3,0.7c0,0.3-0.1,0.5-0.3,0.7s-0.4,0.3-0.7,0.3s-0.5-0.1-0.7-0.3c-0.2-0.2-0.3-0.5-0.3-0.8
		c0-0.8,0.5-1.3,1.4-1.6c0.5-0.2,0.8-0.3,1-0.4c0.2-0.1,0.2-0.2,0.2-0.4H505.9L505.9,284.1z M503.7,287.1c0.1,0,0.2,0,0.3-0.1
		c0.1-0.1,0.1-0.2,0.1-0.3s0-0.3-0.1-0.3c-0.1-0.1-0.2-0.1-0.3-0.1s-0.3,0-0.3,0.1c0,0.1-0.1,0.2-0.1,0.3s0,0.2,0.1,0.3
		S503.6,287.1,503.7,287.1z"/>
</g>
<g class="st3">
	<path class="st4" d="M549,280.1c0,0.5-0.2,0.9-0.5,1.2c-0.4,0.3-0.8,0.5-1.3,0.5h-2c-0.5,0-0.9-0.2-1.3-0.5s-0.5-0.7-0.5-1.2v-2.9
		c0-0.4,0.1-0.7,0.4-1s0.6-0.4,1-0.4s0.7,0.1,1,0.4c0.3,0.3,0.4,0.6,0.4,1c0,0.4-0.1,0.7-0.4,1s-0.6,0.4-1,0.4h-0.1v1.7
		c0,0.5,0.3,0.7,0.8,0.7h1.4c0.6,0,0.8-0.2,0.8-0.7v-4c0-0.6-0.2-1.1-0.7-1.4s-1-0.5-1.7-0.5c-0.5,0-1,0.1-1.5,0.3
		c-0.5,0.2-0.9,0.5-1.1,0.9l-0.6-0.5c0.4-0.5,0.8-0.8,1.4-1.1c0.6-0.3,1.2-0.4,1.8-0.4c1,0,1.8,0.3,2.5,0.8c0.7,0.5,1.1,1.2,1.1,2.1
		L549,280.1L549,280.1z M544.8,277.8c0.2,0,0.3-0.1,0.5-0.2c0.1-0.1,0.2-0.3,0.2-0.5s-0.1-0.4-0.2-0.5c-0.1-0.1-0.3-0.2-0.5-0.2
		c-0.2,0-0.4,0.1-0.5,0.2c-0.1,0.1-0.2,0.3-0.2,0.5s0.1,0.4,0.2,0.5C544.3,277.7,544.5,277.8,544.8,277.8z"/>
	<path class="st4" d="M557.4,281.8h-1.3v-0.4c-0.3-0.7-0.8-1.6-1.6-2.8c-0.8-1.1-1.3-1.7-1.7-1.7c-0.2,0-0.3,0.2-0.3,0.5v1.6h0.1
		c0.4,0,0.7,0.1,1,0.4c0.3,0.3,0.4,0.6,0.4,1c0,0.4-0.1,0.7-0.4,1s-0.6,0.4-1,0.4s-0.7-0.1-1-0.4c-0.3-0.3-0.4-0.6-0.4-1v-3
		c0-1,0.4-1.6,1.3-1.6c0.3,0,0.7,0.1,1,0.4c0.3,0.3,0.8,0.9,1.5,1.8c0.7,0.9,1,1.5,1.1,1.7v-3.6c0-0.3-0.1-0.6-0.2-0.9
		c-0.6,0.2-1.1,0.4-1.7,0.4v-0.3c0.4-0.1,0.8-0.3,1.3-0.6c-0.5-0.4-1-0.5-1.7-0.5c-0.5,0-1,0.1-1.5,0.3c-0.5,0.2-0.9,0.5-1.1,0.9
		l-0.6-0.5c0.4-0.5,0.8-0.8,1.4-1.1c0.6-0.3,1.2-0.4,1.8-0.4c0.9,0,1.7,0.2,2.4,0.7c0.3-0.3,0.5-0.7,0.7-1l0.9,0.6
		c-0.2,0.4-0.5,0.8-0.9,1.1c0.3,0.5,0.5,1,0.5,1.5V281.8z M552.5,281.1c0.2,0,0.4-0.1,0.5-0.2c0.1-0.1,0.2-0.3,0.2-0.5
		s-0.1-0.4-0.2-0.5c-0.1-0.1-0.3-0.2-0.5-0.2c-0.2,0-0.4,0.1-0.5,0.2c-0.1,0.1-0.2,0.3-0.2,0.5s0.1,0.4,0.2,0.5
		C552.2,281,552.3,281.1,552.5,281.1z"/>
	<path class="st4" d="M558.3,269.4c-0.1,1-0.6,1.7-1.3,2.2c-0.7,0.5-1.6,0.8-2.6,0.8c-0.7,0-1.2-0.2-1.6-0.5
		c-0.4-0.3-0.6-0.7-0.6-1.1c0-0.4,0.1-0.7,0.4-1s0.6-0.4,1-0.4s0.7,0.1,1,0.4c0.3,0.3,0.4,0.6,0.4,1c0,0.3-0.1,0.6-0.3,0.9
		c0.7,0,1.2-0.2,1.7-0.6c0.5-0.4,0.8-0.9,0.8-1.6L558.3,269.4L558.3,269.4z M553.6,271.4c0.2,0,0.4-0.1,0.5-0.2
		c0.1-0.1,0.2-0.3,0.2-0.5s-0.1-0.4-0.2-0.5c-0.1-0.1-0.3-0.2-0.5-0.2c-0.2,0-0.4,0.1-0.5,0.2c-0.1,0.1-0.2,0.3-0.2,0.5
		s0.1,0.4,0.2,0.5C553.3,271.3,553.4,271.4,553.6,271.4z"/>
	<path class="st4" d="M564.3,281.8h-1.3c-0.9-1.3-1.6-2.2-2.3-2.8c-0.7-0.6-1.4-0.9-2.3-0.9v-0.7c0.9,0,1.6,0.2,2.3,0.7
		c0.7,0.4,1.4,1.2,2.3,2.4v-4.4h-0.1c-0.4,0-0.7-0.1-1-0.4c-0.3-0.3-0.4-0.6-0.4-1c0-0.4,0.1-0.7,0.4-1s0.6-0.4,1-0.4s0.7,0.1,1,0.4
		c0.3,0.3,0.4,0.6,0.4,1V281.8L564.3,281.8z M562.8,275.4c0.2,0,0.3-0.1,0.5-0.2c0.1-0.1,0.2-0.3,0.2-0.5s-0.1-0.4-0.2-0.5
		c-0.1-0.1-0.3-0.2-0.5-0.2c-0.2,0-0.4,0.1-0.5,0.2c-0.1,0.1-0.2,0.3-0.2,0.5s0.1,0.3,0.2,0.5C562.4,275.4,562.6,275.4,562.8,275.4z
		"/>
	<path class="st4" d="M573.9,281.8h-1.3v-4.6c0-0.4,0-0.6-0.1-0.7c-1.5,1.2-2.6,2.1-3.1,2.9s-0.9,1.6-0.9,2.3h-1.3V276H567
		c-0.4,0-0.7-0.1-1-0.4c-0.3-0.3-0.4-0.6-0.4-1c0-0.4,0.1-0.7,0.4-1s0.6-0.4,1-0.4s0.7,0.1,1,0.4c0.3,0.3,0.4,0.6,0.4,1v4.8
		c0.4-0.9,1.5-2,3.5-3.5c-0.6-0.4-0.9-0.8-0.9-1.3c0-0.4,0.1-0.7,0.4-1s0.6-0.4,1-0.4s0.7,0.1,1,0.4c0.3,0.3,0.4,0.6,0.4,1
		c0,0.5-0.2,0.9-0.6,1.2c0.5,0.3,0.7,0.7,0.7,1.3L573.9,281.8L573.9,281.8z M567,275.4c0.2,0,0.4-0.1,0.5-0.2
		c0.1-0.1,0.2-0.3,0.2-0.5s-0.1-0.4-0.2-0.5c-0.1-0.1-0.3-0.2-0.5-0.2c-0.2,0-0.4,0.1-0.5,0.2c-0.1,0.1-0.2,0.3-0.2,0.5
		s0.1,0.3,0.2,0.5C566.7,275.4,566.8,275.4,567,275.4z M572.5,275.6c0.4-0.3,0.6-0.6,0.6-0.9c0-0.2-0.1-0.4-0.2-0.5
		c-0.1-0.1-0.3-0.2-0.5-0.2c-0.2,0-0.4,0.1-0.5,0.2c-0.1,0.1-0.2,0.3-0.2,0.5C571.8,275,572,275.3,572.5,275.6z"/>
	<path class="st4" d="M580.6,281.8h-1.3v-5.6c0-1.3-0.6-2-1.7-2c-0.8,0-1.4,0.4-1.9,1.2l-0.6-0.5c0.7-1,1.6-1.5,2.6-1.5
		c0.9,0,1.6,0.3,2.2,0.8c0.5,0.5,0.8,1.2,0.8,2.1L580.6,281.8L580.6,281.8z"/>
	<path class="st4" d="M588.9,274c-0.4,0.5-0.8,0.7-1.4,0.7c-0.2,0-0.6-0.1-1.2-0.2c-0.6-0.1-0.9-0.2-1.1-0.2c-0.7,0-1.2,0.3-1.5,0.8
		c0.3-0.1,0.7-0.1,1.1-0.1c1.2,0,2.1,0.2,2.7,0.7s0.9,1.1,0.9,1.9v3c0,0.4-0.1,0.7-0.4,1s-0.6,0.4-1,0.4s-0.7-0.1-1-0.4
		c-0.3-0.3-0.4-0.6-0.4-1c0-0.4,0.1-0.7,0.4-1s0.6-0.4,1-0.4h0.1v-1.4c0-0.8-0.2-1.3-0.6-1.5c-0.4-0.3-1.1-0.4-2-0.4
		c-0.7,0-1.3,0.1-1.8,0.2c0-0.8,0.3-1.5,0.8-2s1.1-0.7,1.8-0.7c0.4,0,0.8,0.1,1.3,0.2c0.5,0.2,0.8,0.2,0.9,0.2
		c0.3,0,0.6-0.2,0.8-0.5L588.9,274z M587,281.1c0.2,0,0.3-0.1,0.5-0.2c0.1-0.1,0.2-0.3,0.2-0.5s-0.1-0.4-0.2-0.5
		c-0.1-0.1-0.3-0.2-0.5-0.2c-0.2,0-0.4,0.1-0.5,0.2c-0.1,0.1-0.2,0.3-0.2,0.5s0.1,0.4,0.2,0.5C586.6,281.1,586.8,281.1,587,281.1z"
		/>
	<path class="st4" d="M588.3,272.3h-6.2c0.5-1.7,1.5-2.5,3.1-2.5S587.9,270.7,588.3,272.3z M587.3,271.7c-0.4-0.8-1.1-1.2-2.1-1.2
		s-1.7,0.4-2.1,1.2H587.3z"/>
	<path class="st4" d="M597.8,281.8h-1.3c-0.9-1.8-2.2-2.7-3.8-2.9v1.4c0,1.1-0.5,1.6-1.6,1.6c-0.4,0-0.8-0.1-1-0.4
		c-0.3-0.3-0.4-0.7-0.4-1.1c0-0.5,0.1-0.9,0.4-1.3c0.3-0.4,0.7-0.6,1.2-0.8v-2.1h-0.1c-0.4,0-0.7-0.1-1-0.4c-0.3-0.3-0.4-0.6-0.4-1
		c0-0.4,0.1-0.7,0.4-1s0.6-0.4,1-0.4s0.7,0.1,1,0.4c0.3,0.3,0.4,0.6,0.4,1v3.5c1.4,0.2,2.7,0.9,3.8,2.2v-6.9h1.3L597.8,281.8
		L597.8,281.8z M591.3,280.4v-1.5c-0.3,0.1-0.5,0.3-0.7,0.5c-0.2,0.3-0.3,0.6-0.3,0.9s0.1,0.5,0.2,0.6c0.1,0.2,0.2,0.2,0.4,0.2
		S591.3,280.9,591.3,280.4z M591.3,275.4c0.2,0,0.4-0.1,0.5-0.2c0.1-0.1,0.2-0.3,0.2-0.5s-0.1-0.4-0.2-0.5c-0.1-0.1-0.3-0.2-0.5-0.2
		c-0.2,0-0.4,0.1-0.5,0.2c-0.1,0.1-0.2,0.3-0.2,0.5s0.1,0.3,0.2,0.5C590.8,275.4,591,275.4,591.3,275.4z"/>
	<path class="st4" d="M606.9,281.8h-1.3v-6.9c0-0.3-0.1-0.5-0.3-0.5c-0.1,0-0.2,0.1-0.4,0.3c-0.2,0.2-0.3,0.5-0.6,0.8
		c-0.2,0.4-0.5,0.9-0.7,1.5c-0.3,0.6-0.6,1.5-1.1,2.6c-0.4,1.2-0.6,1.8-0.6,2v0.2h-1.3v-5.7h-0.1c-0.4,0-0.7-0.1-1-0.4
		c-0.3-0.3-0.4-0.6-0.4-1c0-0.4,0.1-0.7,0.4-1s0.6-0.4,1-0.4s0.7,0.1,1,0.4c0.3,0.3,0.4,0.6,0.4,1v4.2c0.6-1.5,1.2-2.9,1.8-3.9
		s1.3-1.6,1.9-1.6c0.8,0,1.3,0.5,1.3,1.5L606.9,281.8L606.9,281.8z M600.5,275.4c0.2,0,0.4-0.1,0.5-0.2c0.1-0.1,0.2-0.3,0.2-0.5
		s-0.1-0.4-0.2-0.5c-0.1-0.1-0.3-0.2-0.5-0.2c-0.2,0-0.4,0.1-0.5,0.2c-0.1,0.1-0.2,0.3-0.2,0.5s0.1,0.3,0.2,0.5
		C600.2,275.4,600.3,275.4,600.5,275.4z"/>
	<path class="st4" d="M615.1,274c-0.4,0.5-0.8,0.7-1.4,0.7c-0.2,0-0.6-0.1-1.2-0.2c-0.6-0.1-0.9-0.2-1.1-0.2c-0.7,0-1.2,0.3-1.5,0.8
		c0.3-0.1,0.7-0.1,1.1-0.1c1.2,0,2.1,0.2,2.7,0.7s0.9,1.1,0.9,1.9v3c0,0.4-0.1,0.7-0.4,1s-0.6,0.4-1,0.4s-0.7-0.1-1-0.4
		c-0.3-0.3-0.4-0.6-0.4-1c0-0.4,0.1-0.7,0.4-1s0.6-0.4,1-0.4h0.1v-1.4c0-0.8-0.2-1.3-0.6-1.5c-0.4-0.3-1.1-0.4-2-0.4
		c-0.7,0-1.3,0.1-1.8,0.2c0-0.8,0.3-1.5,0.8-2s1.1-0.7,1.8-0.7c0.4,0,0.8,0.1,1.3,0.2c0.5,0.2,0.8,0.2,0.9,0.2
		c0.3,0,0.6-0.2,0.8-0.5L615.1,274z M613.3,281.1c0.2,0,0.3-0.1,0.5-0.2c0.1-0.1,0.2-0.3,0.2-0.5s-0.1-0.4-0.2-0.5
		c-0.1-0.1-0.3-0.2-0.5-0.2c-0.2,0-0.4,0.1-0.5,0.2c-0.1,0.1-0.2,0.3-0.2,0.5s0.1,0.4,0.2,0.5C612.9,281.1,613.1,281.1,613.3,281.1z
		"/>
	<path class="st4" d="M615.5,269.4c-0.1,1-0.6,1.7-1.3,2.2c-0.7,0.5-1.6,0.8-2.6,0.8c-0.7,0-1.2-0.2-1.6-0.5
		c-0.4-0.3-0.6-0.7-0.6-1.1c0-0.4,0.1-0.7,0.4-1s0.6-0.4,1-0.4s0.7,0.1,1,0.4c0.3,0.3,0.4,0.6,0.4,1c0,0.3-0.1,0.6-0.3,0.9
		c0.7,0,1.2-0.2,1.7-0.6c0.5-0.4,0.8-0.9,0.8-1.6L615.5,269.4L615.5,269.4z M610.8,271.4c0.2,0,0.4-0.1,0.5-0.2
		c0.1-0.1,0.2-0.3,0.2-0.5s-0.1-0.4-0.2-0.5c-0.1-0.1-0.3-0.2-0.5-0.2c-0.2,0-0.4,0.1-0.5,0.2c-0.1,0.1-0.2,0.3-0.2,0.5
		s0.1,0.4,0.2,0.5C610.4,271.3,610.8,271.4,610.8,271.4z"/>
	<path class="st4" d="M625,281.8h-1.3c0-0.6-0.4-1.5-1.1-2.8s-1.2-2.4-1.3-3.2c-0.1,0.8-0.6,1.9-1.3,3.2c-0.7,1.3-1.1,2.2-1.1,2.8
		h-1.3v-5.7h-0.1c-0.4,0-0.7-0.1-1-0.4c-0.3-0.3-0.4-0.6-0.4-1c0-0.4,0.1-0.7,0.4-1s0.6-0.4,1-0.4s0.7,0.1,1,0.4
		c0.3,0.3,0.4,0.6,0.4,1v4.6c0.1-0.3,0.4-0.8,0.8-1.5c0.8-1.3,1.2-2.8,1.2-4.3h0.9c0,1.5,0.4,2.9,1.2,4.3c0.4,0.7,0.7,1.2,0.8,1.5
		v-5.8h1.3v8.3H625z M617.5,275.4c0.2,0,0.4-0.1,0.5-0.2c0.1-0.1,0.2-0.3,0.2-0.5s-0.1-0.4-0.2-0.5c-0.1-0.1-0.3-0.2-0.5-0.2
		c-0.2,0-0.4,0.1-0.5,0.2c-0.1,0.1-0.2,0.3-0.2,0.5s0.1,0.3,0.2,0.5C617.2,275.4,617.3,275.4,617.5,275.4z"/>
	<path class="st4" d="M633,280.1c0,0.5-0.2,0.9-0.5,1.2c-0.4,0.3-0.8,0.5-1.3,0.5h-4.3v-2.6c0-0.7,0.2-1.1,0.7-1.4
		c-0.5-0.3-0.7-0.7-0.7-1.4v-1.7c0-0.4,0.1-0.7,0.4-1s0.6-0.4,1-0.4s0.7,0.1,1,0.4c0.3,0.3,0.4,0.6,0.4,1c0,0.4-0.1,0.7-0.4,1
		c-0.3,0.3-0.6,0.4-1,0.4h-0.1v0.3c0,0.4,0.1,0.6,0.3,0.8c0.2,0.2,0.5,0.3,0.8,0.3v0.5c-0.3,0-0.6,0.1-0.8,0.3
		c-0.2,0.2-0.3,0.5-0.3,0.8v1.7h2.7c0.6,0,0.8-0.2,0.8-0.7v-6.7h1.3L633,280.1L633,280.1z M628.3,275.4c0.2,0,0.4-0.1,0.5-0.2
		c0.1-0.1,0.2-0.3,0.2-0.5s-0.1-0.4-0.2-0.5c-0.1-0.1-0.3-0.2-0.5-0.2c-0.2,0-0.4,0.1-0.5,0.2c-0.1,0.1-0.2,0.3-0.2,0.5
		s0.1,0.3,0.2,0.5C627.9,275.4,628.1,275.4,628.3,275.4z"/>
	<path class="st4" d="M634.3,268.9c0,0.2-0.1,0.5-0.3,0.6c-0.2,0.1-0.5,0.3-1,0.5s-0.8,0.3-1,0.4c0.3,0,0.5,0.1,0.7,0.3
		c0.2,0.2,0.3,0.4,0.3,0.7s-0.1,0.5-0.3,0.7c-0.2,0.2-0.4,0.3-0.7,0.3c-0.3,0-0.5-0.1-0.7-0.3c-0.2-0.2-0.3-0.5-0.3-0.8
		c0-0.8,0.5-1.3,1.4-1.6c0.5-0.2,0.8-0.3,1-0.4c0.2-0.1,0.2-0.2,0.2-0.4L634.3,268.9L634.3,268.9z M632.1,271.9c0.1,0,0.2,0,0.3-0.1
		c0.1-0.1,0.1-0.2,0.1-0.3s0-0.3-0.1-0.3s-0.2-0.1-0.3-0.1s-0.3,0-0.3,0.1c0,0.1-0.1,0.2-0.1,0.3s0,0.2,0.1,0.3
		S632,271.9,632.1,271.9z"/>
	<path class="st4" d="M636.3,279.1L636.3,279.1c0.4,0,0.8,0.1,1,0.4c0.2,0.3,0.4,0.6,0.4,1c0,0.4-0.1,0.7-0.4,1s-0.6,0.4-1,0.4
		s-0.7-0.1-1-0.4c-0.3-0.3-0.4-0.6-0.4-1v-6.9h1.3v5.5H636.3z M636.4,281.1c0.2,0,0.4-0.1,0.5-0.2c0.1-0.1,0.2-0.3,0.2-0.5
		s-0.1-0.4-0.2-0.5c-0.1-0.1-0.3-0.2-0.5-0.2c-0.2,0-0.3,0.1-0.5,0.2c-0.1,0.1-0.2,0.3-0.2,0.5s0.1,0.4,0.2,0.5
		C636,281.1,636.3,281.1,636.4,281.1z"/>
	<path class="st4" d="M646.6,280.1c0,0.5-0.2,0.9-0.5,1.2c-0.4,0.3-0.8,0.5-1.3,0.5h-3.7v-0.9h0.8v-3.6c0-0.3,0.1-0.6,0.4-1
		c0.3-0.3,0.4-0.7,0.4-1c0-0.4-0.1-0.7-0.4-1s-0.6-0.4-1-0.4c-0.2,0-0.4,0-0.7,0.1c0.7,0.2,1,0.7,1,1.3c0,0.4-0.1,0.7-0.4,1
		c-0.3,0.3-0.6,0.4-1,0.4s-0.7-0.1-1-0.4c-0.3-0.3-0.4-0.6-0.4-1c0-0.6,0.2-1.1,0.7-1.5c0.5-0.4,1-0.6,1.7-0.6
		c0.8,0,1.5,0.2,1.9,0.6c0.5,0.4,0.7,0.9,0.7,1.5c0,0.4-0.1,0.8-0.3,1.1c-0.2,0.4-0.3,0.6-0.3,0.8v3.6h1.3c0.6,0,0.8-0.2,0.8-0.7
		v-4.3c0-0.7-0.3-1-1-1.1v-0.5c0.9-0.2,1.4-0.8,1.5-1.8h1.4c-0.1,0.9-0.6,1.5-1.3,1.8c0.5,0.2,0.8,0.7,0.8,1.3v4.6H646.6z
		 M640.3,276.2c0.2,0,0.4-0.1,0.5-0.2c0.1-0.1,0.2-0.3,0.2-0.5s-0.1-0.4-0.2-0.5c-0.1-0.1-0.3-0.2-0.5-0.2c-0.2,0-0.4,0.1-0.5,0.2
		c-0.1,0.1-0.2,0.3-0.2,0.5s0.1,0.4,0.2,0.5C639.8,276.1,640,276.2,640.3,276.2z"/>
	<path class="st4" d="M646.6,272.3h-6.2c0.5-1.7,1.5-2.5,3.1-2.5S646.1,270.7,646.6,272.3z M645.6,271.7c-0.4-0.8-1.1-1.2-2.1-1.2
		s-1.7,0.4-2.1,1.2H645.6z"/>
	<path class="st4" d="M653.4,281.8h-1.3c-0.9-1.3-1.6-2.2-2.3-2.8c-0.7-0.6-1.4-0.9-2.3-0.9v-0.7c0.9,0,1.6,0.2,2.3,0.7
		c0.7,0.4,1.4,1.2,2.3,2.4v-4.4H652c-0.4,0-0.7-0.1-1-0.4c-0.3-0.3-0.4-0.6-0.4-1c0-0.4,0.1-0.7,0.4-1s0.6-0.4,1-0.4s0.7,0.1,1,0.4
		c0.3,0.3,0.4,0.6,0.4,1V281.8z M652,275.4c0.2,0,0.3-0.1,0.5-0.2c0.1-0.1,0.2-0.3,0.2-0.5s-0.1-0.4-0.2-0.5
		c-0.1-0.1-0.3-0.2-0.5-0.2c-0.2,0-0.4,0.1-0.5,0.2c-0.1,0.1-0.2,0.3-0.2,0.5s0.1,0.3,0.2,0.5C651.7,275.4,651.8,275.4,652,275.4z"
		/>
	<path class="st4" d="M663.8,281.8h-1.3c0-0.6-0.4-1.5-1.1-2.8s-1.2-2.4-1.3-3.2c-0.1,0.8-0.6,1.9-1.3,3.2c-0.7,1.3-1.1,2.2-1.1,2.8
		h-1.3v-5.7h-0.1c-0.4,0-0.7-0.1-1-0.4c-0.3-0.3-0.4-0.6-0.4-1c0-0.4,0.1-0.7,0.4-1c0.3-0.3,0.6-0.4,1-0.4s0.7,0.1,1,0.4
		c0.3,0.3,0.4,0.6,0.4,1v4.6c0.1-0.3,0.4-0.8,0.8-1.5c0.8-1.3,1.2-2.8,1.2-4.3h0.9c0,1.5,0.4,2.9,1.2,4.3c0.4,0.7,0.7,1.2,0.8,1.5
		v-5.8h1.3v8.3H663.8z M656.3,275.4c0.2,0,0.4-0.1,0.5-0.2c0.1-0.1,0.2-0.3,0.2-0.5s-0.1-0.4-0.2-0.5c-0.1-0.1-0.3-0.2-0.5-0.2
		c-0.2,0-0.4,0.1-0.5,0.2c-0.1,0.1-0.2,0.3-0.2,0.5s0.1,0.3,0.2,0.5C655.9,275.4,656.1,275.4,656.3,275.4z"/>
	<path class="st4" d="M670.5,281.8h-1.3v-5.6c0-1.3-0.6-2-1.7-2c-0.8,0-1.4,0.4-1.9,1.2l-0.6-0.5c0.7-1,1.6-1.5,2.6-1.5
		c0.9,0,1.6,0.3,2.2,0.8c0.5,0.5,0.8,1.2,0.8,2.1L670.5,281.8L670.5,281.8z"/>
	<path class="st4" d="M678.5,281.8h-1.3v-5.4c0-0.7-0.2-1.2-0.5-1.6c-0.3-0.4-0.8-0.6-1.4-0.6c-0.9,0-1.5,0.3-1.8,1
		c0.3,0.5,0.9,0.8,1.8,0.9v0.5c-0.3,0-0.6,0.1-0.8,0.3c-0.2,0.2-0.3,0.5-0.3,0.8v1.4h0.1c0.4,0,0.7,0.1,1,0.4c0.3,0.3,0.4,0.6,0.4,1
		c0,0.4-0.1,0.7-0.4,1s-0.6,0.4-1,0.4s-0.7-0.1-1-0.4c-0.3-0.3-0.4-0.6-0.4-1v-2.8c0-0.6,0.2-1,0.7-1.3c-0.7-0.2-1.1-0.6-1.4-1.2
		c0.6-1.3,1.7-1.9,3.2-1.9c0.9,0,1.7,0.3,2.3,0.8s0.9,1.3,0.9,2.2v3.7c0.5-1,1.2-1.6,2.1-1.9v-4.7h1.3v4.7c0.5,0.1,0.9,0.4,1.2,0.8
		c0.3,0.4,0.5,0.8,0.5,1.3s-0.1,0.8-0.4,1.1c-0.3,0.3-0.6,0.4-1,0.4c-1.1,0-1.6-0.5-1.6-1.6v-1.2c-0.3,0.1-0.7,0.4-1.2,0.9
		C679,280.4,678.8,281.1,678.5,281.8z M674.3,281.1c0.2,0,0.4-0.1,0.5-0.2c0.1-0.1,0.2-0.3,0.2-0.5s-0.1-0.4-0.2-0.5
		c-0.1-0.1-0.3-0.2-0.5-0.2c-0.2,0-0.3,0.1-0.5,0.2c-0.1,0.1-0.2,0.3-0.2,0.5s0.1,0.4,0.2,0.5C673.9,281.1,674,281.1,674.3,281.1z
		 M682.9,280.3c0-0.3-0.1-0.6-0.3-0.8c-0.2-0.3-0.4-0.5-0.7-0.6v1.5c0,0.5,0.1,0.7,0.4,0.7C682.8,281.1,682.9,280.9,682.9,280.3z"/>
	<path class="st4" d="M682.9,272.3h-6.2c0.5-1.7,1.5-2.5,3.1-2.5S682.5,270.7,682.9,272.3z M681.9,271.7c-0.4-0.8-1.1-1.2-2.1-1.2
		s-1.7,0.4-2.1,1.2H681.9z"/>
	<path class="st4" d="M691.9,280.1c0,0.5-0.2,0.9-0.5,1.2c-0.4,0.3-0.8,0.5-1.3,0.5h-3.7v-0.9h0.8v-3.6c0-0.3,0.1-0.6,0.4-1
		c0.3-0.3,0.4-0.7,0.4-1c0-0.4-0.1-0.7-0.4-1s-0.6-0.4-1-0.4c-0.2,0-0.4,0-0.7,0.1c0.7,0.2,1,0.7,1,1.3c0,0.4-0.1,0.7-0.4,1
		c-0.3,0.3-0.6,0.4-1,0.4s-0.7-0.1-1-0.4c-0.3-0.3-0.4-0.6-0.4-1c0-0.6,0.2-1.1,0.7-1.5c0.5-0.4,1-0.6,1.7-0.6
		c0.8,0,1.5,0.2,1.9,0.6c0.5,0.4,0.7,0.9,0.7,1.5c0,0.4-0.1,0.8-0.3,1.1c-0.2,0.4-0.3,0.6-0.3,0.8v3.6h1.3c0.6,0,0.8-0.2,0.8-0.7
		v-4.3c0-0.7-0.3-1-1-1.1v-0.5c0.9-0.2,1.4-0.8,1.5-1.8h1.4c-0.1,0.9-0.6,1.5-1.3,1.8c0.5,0.2,0.8,0.7,0.8,1.3v4.6H691.9z
		 M685.5,276.2c0.2,0,0.4-0.1,0.5-0.2c0.1-0.1,0.2-0.3,0.2-0.5s-0.1-0.4-0.2-0.5c-0.1-0.1-0.3-0.2-0.5-0.2c-0.2,0-0.4,0.1-0.5,0.2
		c-0.1,0.1-0.2,0.3-0.2,0.5s0.1,0.4,0.2,0.5C685.2,276.1,685.3,276.2,685.5,276.2z"/>
	<path class="st4" d="M699.9,280.1c0,0.5-0.2,0.9-0.5,1.2c-0.4,0.3-0.8,0.5-1.3,0.5h-4.3v-2.6c0-0.7,0.2-1.1,0.7-1.4
		c-0.5-0.3-0.7-0.7-0.7-1.4v-1.7c0-0.4,0.1-0.7,0.4-1s0.6-0.4,1-0.4s0.7,0.1,1,0.4c0.3,0.3,0.4,0.6,0.4,1c0,0.4-0.1,0.7-0.4,1
		c-0.3,0.3-0.6,0.4-1,0.4h-0.1v0.3c0,0.4,0.1,0.6,0.3,0.8c0.2,0.2,0.5,0.3,0.8,0.3v0.5c-0.3,0-0.6,0.1-0.8,0.3
		c-0.2,0.2-0.3,0.5-0.3,0.8v1.7h2.7c0.6,0,0.8-0.2,0.8-0.7v-6.7h1.3L699.9,280.1L699.9,280.1z M695.3,275.4c0.2,0,0.4-0.1,0.5-0.2
		c0.1-0.1,0.2-0.3,0.2-0.5s-0.1-0.4-0.2-0.5c-0.1-0.1-0.3-0.2-0.5-0.2c-0.2,0-0.4,0.1-0.5,0.2c-0.1,0.1-0.2,0.3-0.2,0.5
		s0.1,0.3,0.2,0.5C694.8,275.4,695,275.4,695.3,275.4z"/>
	<path class="st4" d="M701.3,268.9c0,0.2-0.1,0.5-0.3,0.6c-0.2,0.1-0.5,0.3-1,0.5s-0.8,0.3-1,0.4c0.3,0,0.5,0.1,0.7,0.3
		c0.2,0.2,0.3,0.4,0.3,0.7s-0.1,0.5-0.3,0.7c-0.2,0.2-0.4,0.3-0.7,0.3c-0.3,0-0.5-0.1-0.7-0.3c-0.2-0.2-0.3-0.5-0.3-0.8
		c0-0.8,0.5-1.3,1.4-1.6c0.5-0.2,0.8-0.3,1-0.4c0.2-0.1,0.2-0.2,0.2-0.4L701.3,268.9L701.3,268.9z M699,271.9c0.1,0,0.2,0,0.3-0.1
		c0.1-0.1,0.1-0.2,0.1-0.3s0-0.3-0.1-0.3s-0.2-0.1-0.3-0.1s-0.3,0-0.3,0.1c0,0.1-0.1,0.2-0.1,0.3s0,0.2,0.1,0.3
		S698.8,271.9,699,271.9z"/>
</g>
</svg>
