<?xml version="1.0" encoding="utf-8"?>
<!-- Generator: Adobe Illustrator 23.0.0, SVG Export Plug-In . SVG Version: 6.00 Build 0)  -->
<svg version="1.1" id="强大的法律保障" xmlns="http://www.w3.org/2000/svg" xmlns:xlink="http://www.w3.org/1999/xlink"
	 x="0px" y="0px" viewBox="0 0 1017 345" style="enable-background:new 0 0 1017 345;" xml:space="preserve">
<style type="text/css">
	.st0{fill:#010101;}
	.st1{fill:#58595B;}
	.st2{fill:#70DBCB;}
	.st3{fill:none;stroke:#70DBCB;}
	.st4{fill:#F5F5F5;}
	.st5{fill:#F2F2F2;}
	.st6{fill:#E6E7E8;}
	.st7{enable-background:new    ;}
	.st8{fill:#FFFFFF;}
	.st9{fill:#FCFCFC;}
</style>
<rect id="矩形_47" x="686.9" y="160" class="st0" width="321.2" height="0.8"/>
<ellipse id="椭圆_12" class="st1" cx="1003" cy="159.6" rx="14" ry="14.1"/>
<g id="组_27">
	<path id="矩形_48" class="st2" d="M409.9,159.2h181.5v0.8H409.9V159.2z"/>
	<path id="形状_2" class="st3" d="M591.4,156H474.1l-38.5-87.6h-81.9"/>
	<path id="形状_2_拷贝" class="st3" d="M591.4,164H474.1l-38.5,87.7h-81.9"/>
</g>
<path id="圆角矩形_1_拷贝" class="st4" d="M608.4,165.4l39.1-10c1.6-0.4,3.4-0.3,5,0.1l32.8,10.6c1.4,0.5,1.6,1.2,0.4,1.7
	l-34.2,12.6c-2,0.6-4.1,0.7-6.2,0.1l-37.7-13.2C606.1,166.7,606.5,165.9,608.4,165.4z"/>
<path id="椭圆_11" class="st5" d="M649.6,140.7c10,0,18.1,1.6,18.1,3.6s-8.1,3.6-18.1,3.6s-18.1-1.6-18.1-3.6
	S639.6,140.7,649.6,140.7z"/>
<path id="矩形_46" class="st6" d="M607.4,145.5l43.4,15.3v14.5L607.4,160V145.5z"/>
<path id="矩形_46_拷贝" class="st6" d="M687.7,146.3L650,160.8v14.5l37.7-14.5V146.3z"/>
<path id="圆角矩形_1_拷贝-2" class="st4" d="M248.7,76.2l39.1-10.1c1.7-0.3,3.4-0.3,5,0.2l32.8,10.6c1.4,0.5,1.6,1.2,0.4,1.7
	l-34.2,12.5c-2,0.7-4.1,0.7-6.1,0.1L247.9,78C246.4,77.5,246.7,76.7,248.7,76.2z"/>
<ellipse id="椭圆_11-2" class="st5" cx="289.8" cy="55.1" rx="18.1" ry="3.6"/>
<path id="矩形_46-2" class="st6" d="M247.6,56.3L291,71.6V86l-43.4-15.2V56.3z"/>
<path id="矩形_46_拷贝-2" class="st6" d="M327.9,57.1l-37.7,14.5V86l37.7-14.4V57.1z"/>
<path id="圆角矩形_1_拷贝-3" class="st4" d="M248.7,265.9l39.1-10c1.7-0.4,3.4-0.3,5,0.1l32.8,10.6c1.4,0.5,1.6,1.2,0.4,1.7
	l-34.2,12.6c-2,0.6-4.1,0.6-6.1,0.1L248,267.8C246.4,267.2,246.7,266.4,248.7,265.9z"/>
<ellipse id="椭圆_11-3" class="st5" cx="289.8" cy="244.8" rx="18.1" ry="3.6"/>
<path id="矩形_46-3" class="st6" d="M247.6,246l43.4,15.3v14.5l-43.4-15.3V246z"/>
<path id="矩形_46_拷贝-3" class="st6" d="M327.9,246.8l-37.7,14.5v14.5l37.7-14.5V246.8z"/>
<path id="圆角矩形_1_拷贝-4" class="st4" d="M8.7,76.2l39.1-10.1c1.7-0.3,3.4-0.3,5,0.2l32.8,10.6c1.4,0.5,1.6,1.2,0.4,1.7
	L51.7,91.1c-2,0.7-4.1,0.7-6.1,0.1L7.9,78C6.4,77.5,6.7,76.7,8.7,76.2z"/>
<ellipse id="椭圆_11-4" class="st5" cx="49.8" cy="55.1" rx="18.1" ry="3.6"/>
<path id="矩形_46-4" class="st6" d="M7.6,56.3L51,71.6V86L7.6,70.8V56.3z"/>
<path id="矩形_46_拷贝-4" class="st6" d="M87.9,57.1L50.2,71.6V86l37.7-14.4V57.1z"/>
<path id="圆角矩形_1_拷贝-5" class="st4" d="M8.7,265.9l39.1-10c1.7-0.4,3.4-0.3,5,0.1l32.8,10.6c1.4,0.5,1.6,1.2,0.4,1.7
	l-34.2,12.6c-2,0.6-4.1,0.6-6.1,0.1L7.9,267.8C6.4,267.2,6.7,266.4,8.7,265.9z"/>
<ellipse id="椭圆_11-5" class="st5" cx="49.8" cy="244.8" rx="18.1" ry="3.6"/>
<path id="矩形_46-5" class="st6" d="M7.6,246L51,261.3v14.5L7.6,260.5V246z"/>
<path id="矩形_46_拷贝-5" class="st6" d="M87.9,246.8l-37.7,14.5v14.5l37.7-14.5V246.8z"/>
<path id="圆角矩形_1_拷贝-6" class="st4" d="M855.8,166.2l39.1-10c1.6-0.4,3.4-0.3,5,0.1l32.8,10.6c1.4,0.5,1.6,1.2,0.4,1.7
	l-34.2,12.6c-2,0.6-4.1,0.7-6.1,0.1L855,168.1C853.5,167.5,853.8,166.7,855.8,166.2z"/>
<path id="椭圆_11-6" class="st5" d="M896.9,141.5c10,0,18.1,1.6,18.1,3.6s-8.1,3.6-18.1,3.6s-18.1-1.6-18.1-3.6
	S887,141.5,896.9,141.5z"/>
<path id="矩形_46-6" class="st6" d="M854.8,146.3l43.4,15.3v14.5l-43.4-15.3V146.3z"/>
<path id="矩形_46_拷贝-6" class="st6" d="M935.1,147.1l-37.7,14.5v14.5l37.7-14.5V147.1z"/>
<rect id="矩形_49" x="87" y="70" class="st0" width="167" height="1"/>
<rect id="矩形_49_拷贝" x="87" y="260" class="st0" width="167" height="1"/>
<g class="st7">
	<path class="st1" d="M28,45h22.5V0H28V45z M42.1,5.6h5.6v5.6h-5.6V5.6z M42.1,16.9h5.6v5.6h-5.6V16.9z M42.1,28.1h5.6v5.6h-5.6
		V28.1z M30.8,5.6h5.6v5.6h-5.6C30.8,11.2,30.8,5.6,30.8,5.6z M30.8,16.9h5.6v5.6h-5.6C30.8,22.5,30.8,16.9,30.8,16.9z M30.8,28.1
		h5.6v5.6h-5.6C30.8,33.7,30.8,28.1,30.8,28.1z M53.3,14.1H73v2.8H53.3V14.1z M53.3,45h5.6V33.8h8.4V45H73V19.7H53.3V45z"/>
</g>
<g class="st7">
	<path class="st1" d="M46.7,224.9h7.6v9.5h-7.6V224.9z"/>
	<path class="st1" d="M45.8,207.9c0,2.6,2.1,4.7,4.7,4.7s4.7-2.1,4.7-4.7s-2.1-4.7-4.7-4.7S45.8,205.4,45.8,207.9z M51.4,208.9h-3.8
		V207h1.9v-2.8h1.9C51.4,204.2,51.4,208.9,51.4,208.9z"/>
	<path class="st1" d="M24,204.1v30.3h15.1v-30.3H24z M30.6,224.1h-3.8v-1.9h3.8V224.1z M30.6,220.3h-3.8v-1.9h3.8V220.3z
		 M30.6,216.4h-3.8v-1.9h3.8V216.4z M30.6,212.6h-3.8v-1.9h3.8V212.6z M30.6,208.9h-3.8V207h3.8V208.9z M36.3,224.1h-3.8v-1.9h3.8
		V224.1z M36.3,220.3h-3.8v-1.9h3.8V220.3z M36.3,216.4h-3.8v-1.9h3.8V216.4z M36.3,212.6h-3.8v-1.9h3.8V212.6z M36.3,208.9h-3.8
		V207h3.8V208.9z"/>
	<path class="st1" d="M77,234.4v-30.3H61.9v30.3H77z M70.4,206.9h3.8v1.9h-3.8V206.9z M70.4,210.8h3.8v1.9h-3.8V210.8z M70.4,214.6
		h3.8v1.9h-3.8V214.6z M70.4,218.4h3.8v1.9h-3.8V218.4z M70.4,222.1h3.8v1.9h-3.8V222.1z M64.7,206.9h3.8v1.9h-3.8V206.9z
		 M64.7,210.8h3.8v1.9h-3.8V210.8z M64.7,214.6h3.8v1.9h-3.8V214.6z M64.7,218.4h3.8v1.9h-3.8V218.4z M64.7,222.1h3.8v1.9h-3.8
		V222.1z"/>
	<path class="st1" d="M41,199.9v34.5h3.8V224c0-0.5,0.4-0.9,0.9-0.9h9.5c0.5,0,0.9,0.4,0.9,0.9v10.4h3.8v-34.5l-9.5-6.9L41,199.9z
		 M57.1,207.9c0,3.7-3,6.6-6.6,6.6s-6.6-3-6.6-6.6s3-6.6,6.6-6.6C54.2,201.4,57.1,204.3,57.1,207.9z"/>
	<path class="st1" d="M50.5,181.4h11.4v5.7H50.5V181.4z"/>
	<path class="st1" d="M50.5,195.6c-0.5,0-0.9-0.4-0.9-0.9v-14.3c0-0.5,0.4-0.9,0.9-0.9s0.9,0.4,0.9,0.9v14.2
		C51.4,195.3,51,195.6,50.5,195.6z"/>
</g>
<g class="st7">
	<path class="st1" d="M307.6,44.5c0.7,0,1.3-0.6,1.3-1.3V21.6c0-0.7-0.6-1.3-1.3-1.3h-8.1v-0.9c0-0.5-0.3-0.9-0.7-1.2l-7.9-4v-2.5
		l5.6-1.9c0.5-0.2,0.9-0.7,0.9-1.2c0-0.6-0.4-1.1-0.9-1.2L290,5.3c-0.4-0.1-0.8-0.1-1.2,0.2c-0.3,0.2-0.5,0.6-0.5,1.1v7.8l-7.9,4
		c-0.4,0.2-0.7,0.7-0.7,1.2v0.9h-8.3c-0.7,0-1.3,0.6-1.3,1.3v21.6c0,0.7,0.6,1.3,1.3,1.3h36.3L307.6,44.5L307.6,44.5z M290.9,9.4V8
		l2.9,0.7L290.9,9.4z M272.6,22.9h7v19h-7V22.9z M282.3,20.3l7.3-3.7l7.3,3.7v21.6h-14.6L282.3,20.3L282.3,20.3z M306.3,41.9h-6.8
		v-19h6.8V41.9z"/>
	<path class="st1" d="M287.5,22.5h-2.2c-0.7,0-1.3,0.6-1.3,1.3c0,0.7,0.6,1.3,1.3,1.3h2.2c0.7,0,1.3-0.6,1.3-1.3
		C288.9,23.1,288.3,22.5,287.5,22.5z"/>
	<path class="st1" d="M275.3,27.3h2.2c0.7,0,1.3-0.6,1.3-1.3c0-0.7-0.6-1.3-1.3-1.3h-2.2c-0.7,0-1.3,0.6-1.3,1.3
		S274.5,27.3,275.3,27.3z"/>
	<path class="st1" d="M277.4,29h-2.2c-0.7,0-1.3,0.6-1.3,1.3c0,0.7,0.6,1.3,1.3,1.3h2.2c0.7,0,1.3-0.6,1.3-1.3
		C278.8,29.6,278.1,29,277.4,29z"/>
	<path class="st1" d="M277.4,33.3h-2.2c-0.7,0-1.3,0.6-1.3,1.3s0.6,1.3,1.3,1.3h2.2c0.7,0,1.3-0.6,1.3-1.3
		C278.8,33.9,278.1,33.3,277.4,33.3z"/>
	<path class="st1" d="M302,27.3h2.2c0.7,0,1.3-0.6,1.3-1.3c0-0.7-0.6-1.3-1.3-1.3H302c-0.7,0-1.3,0.6-1.3,1.3S301.3,27.3,302,27.3z"
		/>
	<path class="st1" d="M302,31.6h2.2c0.7,0,1.3-0.6,1.3-1.3c0-0.7-0.6-1.3-1.3-1.3H302c-0.7,0-1.3,0.6-1.3,1.3
		C300.6,31,301.3,31.6,302,31.6z"/>
	<path class="st1" d="M304,33.3h-2c-0.7,0-1.3,0.6-1.3,1.3s0.6,1.3,1.3,1.3h2.2c0.7,0,1.3-0.6,1.3-1.3S304.9,33.3,304,33.3z"/>
	<path class="st1" d="M294,22.5h-2.2c-0.7,0-1.3,0.6-1.3,1.3c0,0.7,0.6,1.3,1.3,1.3h2.2c0.7,0,1.3-0.6,1.3-1.3S294.8,22.5,294,22.5z
		"/>
	<path class="st1" d="M287.5,26.8h-2.2c-0.7,0-1.3,0.6-1.3,1.3c0,0.7,0.6,1.3,1.3,1.3h2.2c0.7,0,1.3-0.6,1.3-1.3
		S288.3,26.8,287.5,26.8z"/>
	<path class="st1" d="M294,26.8h-2.2c-0.7,0-1.3,0.6-1.3,1.3c0,0.7,0.6,1.3,1.3,1.3h2.2c0.7,0,1.3-0.6,1.3-1.3S294.8,26.8,294,26.8z
		"/>
	<path class="st1" d="M287.5,31.1h-2.2c-0.7,0-1.3,0.6-1.3,1.3s0.6,1.3,1.3,1.3h2.2c0.7,0,1.3-0.6,1.3-1.3
		C288.9,31.7,288.3,31.1,287.5,31.1z"/>
	<path class="st1" d="M294,31.1h-2.2c-0.7,0-1.3,0.6-1.3,1.3s0.6,1.3,1.3,1.3h2.2c0.7,0,1.3-0.6,1.3-1.3S294.8,31.1,294,31.1z"/>
</g>
<g class="st7">
	<path class="st1" d="M308.6,233.5c0.7,0,1.3-0.6,1.3-1.3v-21.6c0-0.7-0.6-1.3-1.3-1.3h-8.1v-0.9c0-0.5-0.3-0.9-0.7-1.2l-7.9-4v-2.5
		l5.6-1.9c0.5-0.2,0.9-0.7,0.9-1.2c0-0.6-0.4-1.1-0.9-1.2l-6.6-2.1c-0.4-0.1-0.8-0.1-1.2,0.2c-0.3,0.2-0.5,0.6-0.5,1.1v7.8l-7.9,4
		c-0.4,0.2-0.7,0.7-0.7,1.2v0.9h-8.3c-0.7,0-1.3,0.6-1.3,1.3v21.6c0,0.7,0.6,1.3,1.3,1.3h36.3L308.6,233.5L308.6,233.5z
		 M291.9,198.4V197l2.9,0.7L291.9,198.4z M273.6,211.9h7v19h-7V211.9z M283.3,209.3l7.3-3.7l7.3,3.7v21.6h-14.6L283.3,209.3
		L283.3,209.3z M307.3,230.9h-6.8v-19h6.8V230.9z"/>
	<path class="st1" d="M288.5,211.5h-2.2c-0.7,0-1.3,0.6-1.3,1.3s0.6,1.3,1.3,1.3h2.2c0.7,0,1.3-0.6,1.3-1.3
		C289.9,212.1,289.3,211.5,288.5,211.5z"/>
	<path class="st1" d="M276.3,216.3h2.2c0.7,0,1.3-0.6,1.3-1.3s-0.6-1.3-1.3-1.3h-2.2c-0.7,0-1.3,0.6-1.3,1.3
		S275.5,216.3,276.3,216.3z"/>
	<path class="st1" d="M278.4,218h-2.2c-0.7,0-1.3,0.6-1.3,1.3s0.6,1.3,1.3,1.3h2.2c0.7,0,1.3-0.6,1.3-1.3
		C279.8,218.6,279.1,218,278.4,218z"/>
	<path class="st1" d="M278.4,222.3h-2.2c-0.7,0-1.3,0.6-1.3,1.3s0.6,1.3,1.3,1.3h2.2c0.7,0,1.3-0.6,1.3-1.3
		C279.8,222.9,279.1,222.3,278.4,222.3z"/>
	<path class="st1" d="M303,216.3h2.2c0.7,0,1.3-0.6,1.3-1.3s-0.6-1.3-1.3-1.3H303c-0.7,0-1.3,0.6-1.3,1.3S302.3,216.3,303,216.3z"/>
	<path class="st1" d="M303,220.6h2.2c0.7,0,1.3-0.6,1.3-1.3s-0.6-1.3-1.3-1.3H303c-0.7,0-1.3,0.6-1.3,1.3
		C301.6,220,302.3,220.6,303,220.6z"/>
	<path class="st1" d="M305,222.3h-2c-0.7,0-1.3,0.6-1.3,1.3s0.6,1.3,1.3,1.3h2.2c0.7,0,1.3-0.6,1.3-1.3S305.9,222.3,305,222.3z"/>
	<path class="st1" d="M295,211.5h-2.2c-0.7,0-1.3,0.6-1.3,1.3s0.6,1.3,1.3,1.3h2.2c0.7,0,1.3-0.6,1.3-1.3S295.8,211.5,295,211.5z"/>
	<path class="st1" d="M288.5,215.8h-2.2c-0.7,0-1.3,0.6-1.3,1.3s0.6,1.3,1.3,1.3h2.2c0.7,0,1.3-0.6,1.3-1.3S289.3,215.8,288.5,215.8
		z"/>
	<path class="st1" d="M295,215.8h-2.2c-0.7,0-1.3,0.6-1.3,1.3s0.6,1.3,1.3,1.3h2.2c0.7,0,1.3-0.6,1.3-1.3S295.8,215.8,295,215.8z"/>
	<path class="st1" d="M288.5,220.1h-2.2c-0.7,0-1.3,0.6-1.3,1.3s0.6,1.3,1.3,1.3h2.2c0.7,0,1.3-0.6,1.3-1.3S289.3,220.1,288.5,220.1
		z"/>
	<path class="st1" d="M295,220.1h-2.2c-0.7,0-1.3,0.6-1.3,1.3s0.6,1.3,1.3,1.3h2.2c0.7,0,1.3-0.6,1.3-1.3S295.8,220.1,295,220.1z"/>
</g>
<g class="st7">
	<path class="st1" d="M666.7,136.5c0.7,0,1.3-0.6,1.3-1.3v-21.6c0-0.7-0.6-1.3-1.3-1.3h-8.1v-0.9c0-0.5-0.3-0.9-0.7-1.2l-7.9-4v-2.5
		l5.6-1.9c0.5-0.2,0.9-0.7,0.9-1.2c0-0.6-0.4-1.1-0.9-1.2l-6.6-2.1c-0.4-0.1-0.8-0.1-1.2,0.2c-0.3,0.2-0.5,0.6-0.5,1.1v7.8l-7.9,4
		c-0.4,0.2-0.7,0.7-0.7,1.2v0.9h-8.3c-0.7,0-1.3,0.6-1.3,1.3v21.6c0,0.7,0.6,1.3,1.3,1.3h36.3L666.7,136.5L666.7,136.5z
		 M649.8,101.4V100l2.9,0.7L649.8,101.4z M631.7,114.9h7v19h-7V114.9z M641.3,112.3l7.3-3.7l7.3,3.7v21.6h-14.6V112.3z M665.3,133.9
		h-6.8v-19h6.8V133.9z"/>
	<path class="st1" d="M646.5,114.5h-2.2c-0.7,0-1.3,0.6-1.3,1.3c0,0.7,0.6,1.3,1.3,1.3h2.2c0.7,0,1.3-0.6,1.3-1.3
		S647.3,114.5,646.5,114.5z"/>
	<path class="st1" d="M634.3,119.3h2.2c0.7,0,1.3-0.6,1.3-1.3c0-0.7-0.6-1.3-1.3-1.3h-2.2c-0.7,0-1.3,0.6-1.3,1.3
		S633.5,119.3,634.3,119.3z"/>
	<path class="st1" d="M636.3,121h-2.2c-0.7,0-1.3,0.6-1.3,1.3c0,0.7,0.6,1.3,1.3,1.3h2.2c0.7,0,1.3-0.6,1.3-1.3
		C637.8,121.6,637.2,121,636.3,121z"/>
	<path class="st1" d="M636.3,125.3h-2.2c-0.7,0-1.3,0.6-1.3,1.3c0,0.7,0.6,1.3,1.3,1.3h2.2c0.7,0,1.3-0.6,1.3-1.3
		C637.8,125.9,637.2,125.3,636.3,125.3z"/>
	<path class="st1" d="M661,119.3h2.2c0.7,0,1.3-0.6,1.3-1.3c0-0.7-0.6-1.3-1.3-1.3H661c-0.7,0-1.3,0.6-1.3,1.3
		S660.3,119.3,661,119.3z"/>
	<path class="st1" d="M661,123.6h2.2c0.7,0,1.3-0.6,1.3-1.3c0-0.7-0.6-1.3-1.3-1.3H661c-0.7,0-1.3,0.6-1.3,1.3
		S660.3,123.6,661,123.6z"/>
	<path class="st1" d="M663,125.3h-2c-0.7,0-1.3,0.6-1.3,1.3c0,0.7,0.6,1.3,1.3,1.3h2.2c0.7,0,1.3-0.6,1.3-1.3S663.8,125.3,663,125.3
		z"/>
	<path class="st1" d="M653,114.5h-2.2c-0.7,0-1.3,0.6-1.3,1.3c0,0.7,0.6,1.3,1.3,1.3h2.2c0.7,0,1.3-0.6,1.3-1.3
		S653.8,114.5,653,114.5z"/>
	<path class="st1" d="M646.5,118.8h-2.2c-0.7,0-1.3,0.6-1.3,1.3c0,0.7,0.6,1.3,1.3,1.3h2.2c0.7,0,1.3-0.6,1.3-1.3
		S647.3,118.8,646.5,118.8z"/>
	<path class="st1" d="M653,118.8h-2.2c-0.7,0-1.3,0.6-1.3,1.3c0,0.7,0.6,1.3,1.3,1.3h2.2c0.7,0,1.3-0.6,1.3-1.3
		S653.8,118.8,653,118.8z"/>
	<path class="st1" d="M646.5,123.1h-2.2c-0.7,0-1.3,0.6-1.3,1.3s0.6,1.3,1.3,1.3h2.2c0.7,0,1.3-0.6,1.3-1.3S647.3,123.1,646.5,123.1
		z"/>
	<path class="st1" d="M653,123.1h-2.2c-0.7,0-1.3,0.6-1.3,1.3s0.6,1.3,1.3,1.3h2.2c0.7,0,1.3-0.6,1.3-1.3S653.8,123.1,653,123.1z"/>
</g>
<polygon id="XMLID_63_" class="st8" points="1003.7,155.6 1005.2,155.6 1005.2,153.3 1009,153.3 1009,165.6 1005.2,165.6 
	1005.2,162.3 1007.7,162.3 1007.7,156.9 997.3,156.9 997.3,162.3 999.8,162.3 999.8,165.6 996,165.6 996,153.3 999.8,153.3 
	999.8,155.6 1001.3,155.6 1001.3,151.8 994.5,151.8 994.5,167.3 1001.3,167.3 1001.3,160.6 999,160.6 999,158.5 1006,158.5 
	1006,160.6 1003.7,160.6 1003.7,167.3 1010.5,167.3 1010.5,151.8 1003.7,151.8 "/>
<g>
	<g>
		<g>
			<path class="st1" d="M916.2,110.4c0.2-0.5,0.3-1,0.1-1.5s-0.5-0.9-1-1.2l-4.5-2.3c-0.1-0.1-0.2-0.2-0.3-0.4l-0.8-5
				c-0.2-1-1-1.7-2-1.7c-0.1,0-0.2,0-0.3,0l-5,0.8c-0.2,0-0.3,0-0.4-0.1l-3.6-3.6c-0.4-0.4-0.9-0.6-1.4-0.6s-1,0.2-1.4,0.6L892,99
				c-0.1,0.1-0.3,0.2-0.4,0.1l-5-0.8c-0.1,0-0.2,0-0.3,0c-1,0-1.8,0.7-2,1.7l-0.8,5c0,0.2-0.1,0.3-0.3,0.4l-4.5,2.3
				c-0.5,0.2-0.8,0.7-1,1.2s-0.1,1.1,0.1,1.5l2.3,4.5c0.1,0.1,0.1,0.3,0,0.5l-2.3,4.5c-0.2,0.5-0.3,1-0.1,1.5s0.5,0.9,1,1.2l4.5,2.3
				c0.1,0.1,0.2,0.2,0.3,0.4l0.8,5c0.2,1,1,1.7,2,1.7c0.1,0,0.2,0,0.3,0l5-0.8c0.2,0,0.3,0,0.4,0.1l3.6,3.6c0.4,0.4,0.9,0.6,1.4,0.6
				s1-0.2,1.4-0.6l3.6-3.6c0.1-0.1,0.3-0.2,0.4-0.1l5,0.8c0.1,0,0.2,0,0.3,0c1,0,1.8-0.7,2-1.7l0.8-5c0-0.2,0.1-0.3,0.3-0.4l4.5-2.3
				c0.5-0.2,0.8-0.7,1-1.2s0.1-1.1-0.1-1.5l-2.3-4.5c-0.1-0.1-0.1-0.3,0-0.5L916.2,110.4z M912.6,116.1l2.3,4.5
				c0.1,0.1,0.1,0.3,0,0.4c0,0.1-0.1,0.2-0.3,0.3l-4.5,2.3c-0.6,0.3-1,0.8-1.1,1.5l-0.8,5c0,0.3-0.3,0.5-0.6,0.4l-5-0.8
				c-0.1,0-0.2,0-0.3,0c-0.5,0-1,0.2-1.4,0.6l-3.6,3.6c-0.2,0.2-0.5,0.2-0.7,0l-3.4-3.7c-0.4-0.4-0.9-0.6-1.4-0.6
				c-0.1,0-0.2,0-0.3,0l-5,0.8c-0.3,0-0.5-0.2-0.6-0.4l-0.8-5c-0.1-0.6-0.5-1.2-1.1-1.5l-4.5-2.3c-0.1-0.1-0.2-0.2-0.3-0.3
				c0-0.1,0-0.3,0-0.4l2.3-4.5c0.3-0.6,0.3-1.3,0-1.8l-2.3-4.5c-0.1-0.1-0.1-0.3,0-0.4s0.1-0.2,0.3-0.3l4.5-2.3
				c0.6-0.3,1-0.8,1.1-1.5l0.8-5c0-0.3,0.3-0.5,0.6-0.4l5,0.8c0.1,0,0.2,0,0.3,0l0,0c0.5,0,1-0.2,1.4-0.6l3.6-3.6
				c0.2-0.2,0.5-0.2,0.7,0l3.6,3.6c0.4,0.5,1.1,0.7,1.7,0.6l5-0.8c0.3,0,0.5,0.2,0.6,0.4l0.8,5c0.1,0.6,0.5,1.2,1.1,1.5l4.5,2.3
				c0.1,0.1,0.2,0.2,0.3,0.3c0,0.1,0,0.3,0,0.4l-2.3,4.5C912.3,114.7,912.3,115.4,912.6,116.1z"/>
			<path class="st1" d="M903,106.6c0.1,0.1,0.3,0.1,0.4,0.1c0.2,0,0.5-0.1,0.6-0.3c0.2-0.3,0.1-0.8-0.2-1s-0.8-0.1-1,0.2
				S902.7,106.4,903,106.6z"/>
			<path class="st1" d="M905.4,108.6c0.2,0,0.4-0.1,0.5-0.2c0.3-0.3,0.3-0.7,0.1-1.1c-0.3-0.3-0.8-0.3-1.1-0.1
				c-0.3,0.3-0.3,0.7-0.1,1.1C905,108.4,905.2,108.6,905.4,108.6z"/>
			<path class="st1" d="M900.8,124.7c-0.4,0.1-0.6,0.6-0.4,1c0.1,0.3,0.4,0.5,0.7,0.5c0.1,0,0.2,0,0.3,0c0.4-0.1,0.6-0.6,0.4-1
				C901.6,124.9,901.2,124.6,900.8,124.7z"/>
			<path class="st1" d="M903,123.6c-0.3,0.2-0.4,0.7-0.2,1c0.1,0.2,0.4,0.3,0.6,0.3c0.1,0,0.3,0,0.4-0.1c0.3-0.2,0.4-0.7,0.2-1
				C903.8,123.4,903.4,123.4,903,123.6z"/>
			<path class="st1" d="M893.5,124.7c-0.4-0.1-0.8,0-1,0.4s0,0.8,0.4,1c0.1,0,0.2,0,0.3,0c0.3,0,0.6-0.2,0.7-0.5
				C894.1,125.4,893.9,124.9,893.5,124.7z"/>
			<path class="st1" d="M898.4,125.4c-0.4,0-0.7,0.4-0.7,0.8s0.4,0.7,0.7,0.7h0.1c0.4,0,0.7-0.4,0.7-0.8
				C899.2,125.6,898.8,125.2,898.4,125.4z"/>
			<path class="st1" d="M895.9,125.4L895.9,125.4c-0.4,0-0.8,0.2-0.8,0.7c0,0.4,0.2,0.8,0.7,0.8h0.1c0.4,0,0.7-0.3,0.7-0.7
				S896.3,125.4,895.9,125.4z"/>
			<path class="st1" d="M907.2,112.6L907.2,112.6c0.1,0.3,0.4,0.6,0.7,0.6c0.1,0,0.1,0,0.2,0c0.4-0.1,0.6-0.5,0.5-0.9
				s-0.5-0.6-0.9-0.5C907.3,111.9,907.1,112.2,907.2,112.6z"/>
			<path class="st1" d="M908.2,114.4c-0.4,0-0.8,0.3-0.8,0.8s0.3,0.8,0.8,0.7c0.4,0,0.8-0.3,0.7-0.8
				C909,114.6,908.6,114.4,908.2,114.4z"/>
			<path class="st1" d="M908.1,117.1c-0.4-0.1-0.8,0.1-0.9,0.5c-0.1,0.4,0.1,0.8,0.5,0.9c0.1,0,0.1,0,0.2,0c0.3,0,0.6-0.2,0.7-0.6
				C908.7,117.6,908.5,117.1,908.1,117.1z"/>
			<path class="st1" d="M906.9,110.7c0.1,0,0.2,0,0.3-0.1c0.4-0.2,0.5-0.6,0.3-1s-0.6-0.5-1-0.3s-0.5,0.6-0.3,1
				C906.4,110.6,906.7,110.7,906.9,110.7z"/>
			<path class="st1" d="M904.9,121.9c-0.3,0.3-0.2,0.8,0.1,1.1c0.1,0.1,0.3,0.2,0.5,0.2s0.4-0.1,0.6-0.3c0.3-0.3,0.2-0.8-0.1-1.1
				C905.6,121.6,905.1,121.6,904.9,121.9z"/>
			<path class="st1" d="M907.3,119.6c-0.4-0.2-0.8,0-1,0.3c-0.2,0.4,0,0.8,0.3,1c0.1,0.1,0.2,0.1,0.3,0.1c0.3,0,0.5-0.1,0.7-0.4
				C907.8,120.2,907.7,119.7,907.3,119.6z"/>
			<path class="st1" d="M888.9,108.6c0.2,0,0.4-0.1,0.6-0.2c0.3-0.3,0.2-0.8-0.1-1.1c-0.3-0.3-0.8-0.2-1.1,0.1s-0.2,0.8,0.1,1.1
				C888.5,108.4,888.7,108.6,888.9,108.6z"/>
			<path class="st1" d="M887,119.6c-0.4,0.2-0.5,0.6-0.3,1c0.1,0.3,0.4,0.4,0.7,0.4c0.1,0,0.2,0,0.3-0.1c0.4-0.2,0.5-0.6,0.3-1
				S887.4,119.4,887,119.6z"/>
			<path class="st1" d="M887.1,117.6c-0.1-0.4-0.5-0.6-0.9-0.5s-0.6,0.5-0.5,0.9c0.1,0.3,0.4,0.6,0.7,0.6c0.1,0,0.1,0,0.2,0
				C887,118.4,887.2,118.1,887.1,117.6z"/>
			<path class="st1" d="M886.2,113.1c0.1,0,0.1,0,0.2,0c0.3,0,0.6-0.2,0.7-0.6c0.1-0.4-0.1-0.8-0.5-0.9s-0.8,0.1-0.9,0.5
				C885.6,112.6,885.8,113.1,886.2,113.1z"/>
			<path class="st1" d="M886.1,115.9c0.4,0,0.7-0.3,0.7-0.8l0,0l0,0c0-0.4-0.3-0.8-0.8-0.8c-0.4,0-0.7,0.3-0.7,0.8l0,0l0,0
				C885.3,115.6,885.7,115.9,886.1,115.9L886.1,115.9z"/>
			<path class="st1" d="M887,110.6c0.1,0.1,0.2,0.1,0.3,0.1c0.3,0,0.5-0.1,0.7-0.4c0.2-0.4,0-0.8-0.3-1c-0.4-0.2-0.8,0-1,0.3
				S886.6,110.4,887,110.6z"/>
			<path class="st1" d="M888.4,121.9c-0.3,0.3-0.3,0.8-0.1,1.1c0.1,0.2,0.4,0.2,0.6,0.2c0.2,0,0.4-0.1,0.5-0.2
				c0.3-0.3,0.3-0.8,0.1-1.1C889.2,121.6,888.7,121.6,888.4,121.9z"/>
			<path class="st1" d="M895.8,104.9L895.8,104.9c0.5-0.1,0.8-0.4,0.7-0.8c0-0.4-0.4-0.7-0.8-0.7s-0.7,0.4-0.7,0.8
				C895.1,104.6,895.4,104.9,895.8,104.9z"/>
			<path class="st1" d="M898.4,104.9L898.4,104.9c0.5,0,0.8-0.3,0.8-0.7s-0.2-0.8-0.7-0.8c-0.4,0-0.8,0.2-0.8,0.7
				C897.7,104.4,898,104.9,898.4,104.9z"/>
			<path class="st1" d="M900.8,105.4c0.1,0,0.2,0,0.3,0c0.3,0,0.6-0.2,0.7-0.5c0.1-0.4,0-0.8-0.4-1c-0.4-0.1-0.8,0-1,0.4
				S900.4,105.4,900.8,105.4z"/>
			<path class="st1" d="M893.2,105.6c0.1,0,0.2,0,0.3,0c0.4-0.1,0.6-0.6,0.4-1c-0.1-0.4-0.6-0.6-1-0.4l0,0c-0.4,0.1-0.6,0.6-0.4,1
				C892.6,105.4,892.9,105.6,893.2,105.6z"/>
			<path class="st1" d="M891.3,123.6c-0.3-0.2-0.8-0.1-1,0.2c-0.2,0.3-0.1,0.8,0.2,1c0.1,0.1,0.3,0.1,0.4,0.1c0.2,0,0.5-0.1,0.6-0.3
				C891.7,124.4,891.6,123.9,891.3,123.6z"/>
			<path class="st1" d="M890.8,106.7c0.1,0,0.3,0,0.4-0.1c0.3-0.2,0.4-0.7,0.2-1s-0.7-0.4-1-0.2c-0.3,0.2-0.4,0.7-0.2,1
				C890.4,106.6,890.6,106.7,890.8,106.7z"/>
		</g>
	</g>
	<g>
		<path class="st1" d="M882.5,119.1h29.3c1.7,0,3.1-1.4,3.1-3.1c0-1.2-0.7-2.2-1.7-2.7v-3.4c0-0.4-0.2-0.8-0.6-0.9l-15-7.2
			c-0.3-0.1-0.6-0.1-0.9,0l-15,7.2c-0.4,0.2-0.6,0.5-0.6,0.9v3.4c-1,0.5-1.7,1.5-1.7,2.7C879.4,117.9,880.8,119.1,882.5,119.1z
			 M897.1,106.9c1.1,0,2,0.9,2,2s-0.9,2-2,2s-2-0.9-2-2S896,106.9,897.1,106.9z"/>
		<path class="st1" d="M911.6,130.7h-0.5l0.4-4c0.1-1.2,0.1-2.4,0-3.6l-0.2-1.9h-6.8l-0.2,1.9c-0.1,1.2-0.1,2.4,0,3.6l0.4,4h-4.5
			l0.4-4c0.1-1.2,0.1-2.4,0-3.6l-0.2-1.9h-6.8l-0.2,1.9c-0.1,1.2-0.1,2.4,0,3.6l0.4,4h-4.5l0.4-4c0.1-1.2,0.1-2.4,0-3.6l-0.2-1.9
			h-6.8l-0.2,1.9c-0.1,1.2-0.1,2.4,0,3.6l0.4,4h-0.5c-1.8,0-3.2,1.5-3.2,3.2s1.5,3.2,3.2,3.2h29c1.8,0,3.2-1.5,3.2-3.2
			S913.4,130.7,911.6,130.7z"/>
	</g>
</g>
<path id="圆角矩形_1-5" class="st9" d="M9.5,245l39.1-10c1.7-0.4,3.4-0.3,5,0.1l32.8,10.6c1.4,0.5,1.6,1.2,0.4,1.7L52.5,260
	c-2,0.6-4.1,0.6-6.1,0.1L8.7,246.9C7.2,246.3,7.5,245.5,9.5,245z"/>
<path id="圆角矩形_1-3" class="st9" d="M249.5,245l39.1-10c1.7-0.4,3.4-0.3,5,0.1l32.8,10.6c1.4,0.5,1.6,1.2,0.4,1.7L292.5,260
	c-2,0.6-4.1,0.6-6.1,0.1l-37.7-13.2C247.2,246.3,247.5,245.5,249.5,245z"/>
<path id="圆角矩形_1-2" class="st9" d="M249.5,55.3l39.1-10.1c1.7-0.3,3.4-0.3,5,0.2L326.3,56c1.4,0.5,1.6,1.2,0.4,1.7
	l-34.2,12.5c-2,0.7-4.1,0.7-6.1,0.1l-37.7-13.2C247.2,56.6,247.5,55.8,249.5,55.3z"/>
<path id="圆角矩形_1-4" class="st9" d="M9.5,55.3l39.1-10.1c1.7-0.3,3.4-0.3,5,0.2L86.3,56c1.4,0.5,1.6,1.2,0.4,1.7L52.5,70.2
	c-2,0.7-4.1,0.7-6.1,0.1L8.7,57.1C7.2,56.6,7.5,55.8,9.5,55.3z"/>
<path id="圆角矩形_1" class="st9" d="M609.2,144.5l39.1-10c1.6-0.4,3.4-0.3,5,0.1l32.8,10.6c1.4,0.5,1.6,1.2,0.4,1.7l-34.2,12.6
	c-2,0.6-4.1,0.7-6.1,0.1l-37.7-13.2C606.9,145.8,607.3,145,609.2,144.5z"/>
<path id="圆角矩形_1-6" class="st9" d="M856.6,145.3l39.1-10c1.7-0.4,3.4-0.3,5,0.1l32.8,10.6c1.4,0.5,1.6,1.2,0.4,1.7
	l-34.2,12.6c-2,0.6-4.1,0.7-6.1,0.1l-37.7-13.2C854.3,146.6,854.6,145.8,856.6,145.3z"/>
<g>
	<path d="M9.9,115.7l1.1-0.1c0.1,0.4,0.2,0.8,0.4,1.1s0.5,0.5,0.9,0.7s0.8,0.3,1.3,0.3c0.4,0,0.8-0.1,1.1-0.2s0.6-0.3,0.7-0.5
		s0.2-0.5,0.2-0.7c0-0.3-0.1-0.5-0.2-0.7s-0.4-0.4-0.8-0.5c-0.2-0.1-0.7-0.2-1.5-0.4s-1.3-0.4-1.7-0.5c-0.4-0.2-0.7-0.5-0.9-0.8
		s-0.3-0.7-0.3-1.1c0-0.4,0.1-0.8,0.4-1.2s0.6-0.7,1.1-0.9s1-0.3,1.6-0.3c0.6,0,1.2,0.1,1.7,0.3s0.9,0.5,1.1,0.9s0.4,0.8,0.4,1.4
		l-1.1,0.1c-0.1-0.5-0.3-1-0.6-1.2s-0.8-0.4-1.5-0.4c-0.7,0-1.2,0.1-1.5,0.4s-0.5,0.6-0.5,0.9c0,0.3,0.1,0.6,0.3,0.8
		c0.2,0.2,0.8,0.4,1.7,0.6s1.6,0.4,1.9,0.5c0.5,0.2,0.9,0.5,1.1,0.9s0.4,0.8,0.4,1.2c0,0.5-0.1,0.9-0.4,1.3s-0.6,0.7-1.1,0.9
		s-1,0.3-1.7,0.3c-0.8,0-1.4-0.1-2-0.3s-0.9-0.6-1.2-1S9.9,116.3,9.9,115.7z"/>
	<path d="M22.2,118.5v-0.9c-0.5,0.7-1.1,1.1-2,1.1c-0.4,0-0.7-0.1-1-0.2s-0.6-0.3-0.7-0.5s-0.3-0.5-0.3-0.8c0-0.2-0.1-0.5-0.1-1
		v-3.9h1.1v3.5c0,0.6,0,0.9,0.1,1.1c0.1,0.3,0.2,0.5,0.4,0.7s0.5,0.2,0.8,0.2s0.6-0.1,0.9-0.2s0.5-0.4,0.6-0.7s0.2-0.7,0.2-1.2v-3.3
		h1.1v6.2H22.2z"/>
	<path d="M24.8,118.5v-6.2h0.9v0.9c0.2-0.4,0.5-0.7,0.7-0.9s0.4-0.2,0.7-0.2c0.4,0,0.7,0.1,1.1,0.3l-0.4,1c-0.3-0.2-0.5-0.2-0.8-0.2
		c-0.2,0-0.4,0.1-0.6,0.2s-0.3,0.3-0.4,0.6c-0.1,0.4-0.2,0.8-0.2,1.2v3.3H24.8z"/>
	<path d="M30.5,118.5l-2.4-6.2h1.1l1.3,3.7c0.1,0.4,0.3,0.8,0.4,1.3c0.1-0.3,0.2-0.7,0.4-1.2l1.4-3.8h1.1l-2.4,6.2H30.5z"/>
	<path d="M39.1,116.5l1.1,0.1c-0.2,0.6-0.5,1.1-1,1.5s-1.1,0.5-1.8,0.5c-0.9,0-1.6-0.3-2.2-0.8s-0.8-1.3-0.8-2.4
		c0-1,0.3-1.9,0.8-2.4s1.2-0.9,2.1-0.9c0.8,0,1.5,0.3,2,0.8s0.8,1.4,0.8,2.4c0,0.1,0,0.2,0,0.3h-4.6c0,0.7,0.2,1.2,0.6,1.6
		s0.8,0.5,1.3,0.5c0.4,0,0.7-0.1,1-0.3S38.9,116.9,39.1,116.5z M35.6,114.8h3.5c0-0.5-0.2-0.9-0.4-1.2c-0.3-0.4-0.8-0.6-1.3-0.6
		c-0.5,0-0.9,0.2-1.2,0.5S35.6,114.2,35.6,114.8z"/>
	<path d="M41.5,111.1v-1.2h1.1v1.2H41.5z M41.5,118.5v-6.2h1.1v6.2H41.5z"/>
	<path d="M44.1,118.5v-8.6h1.1v8.6H44.1z"/>
	<path d="M46.8,118.5v-8.6h1.1v8.6H46.8z"/>
	<path d="M53.5,117.7c-0.4,0.3-0.8,0.6-1.1,0.7s-0.7,0.2-1.2,0.2c-0.7,0-1.2-0.2-1.6-0.5s-0.6-0.8-0.6-1.3c0-0.3,0.1-0.6,0.2-0.8
		s0.3-0.5,0.5-0.6s0.5-0.3,0.8-0.3c0.2-0.1,0.5-0.1,0.9-0.2c0.9-0.1,1.5-0.2,1.9-0.4c0-0.1,0-0.2,0-0.3c0-0.4-0.1-0.7-0.3-0.9
		c-0.3-0.2-0.7-0.4-1.2-0.4c-0.5,0-0.9,0.1-1.1,0.3s-0.4,0.5-0.5,0.9l-1-0.1c0.1-0.4,0.2-0.8,0.5-1.1s0.5-0.5,0.9-0.6
		s0.9-0.2,1.4-0.2c0.5,0,1,0.1,1.3,0.2s0.6,0.3,0.7,0.5s0.3,0.4,0.3,0.7c0,0.2,0.1,0.5,0.1,1v1.4c0,1,0,1.6,0.1,1.9s0.1,0.5,0.3,0.7
		h-1.1C53.6,118.3,53.6,118,53.5,117.7z M53.5,115.4c-0.4,0.2-1,0.3-1.7,0.4c-0.4,0.1-0.7,0.1-0.9,0.2s-0.3,0.2-0.4,0.3
		s-0.1,0.3-0.1,0.5c0,0.3,0.1,0.5,0.3,0.7s0.5,0.3,0.9,0.3c0.4,0,0.8-0.1,1.1-0.3s0.5-0.4,0.7-0.7c0.1-0.2,0.2-0.6,0.2-1.1V115.4z"
		/>
	<path d="M56.2,118.5v-6.2h0.9v0.9c0.5-0.7,1.1-1,2-1c0.4,0,0.7,0.1,1,0.2s0.5,0.3,0.7,0.5s0.3,0.5,0.3,0.8c0,0.2,0.1,0.5,0.1,1v3.8
		h-1.1v-3.8c0-0.4,0-0.8-0.1-1s-0.2-0.4-0.4-0.5s-0.5-0.2-0.7-0.2c-0.4,0-0.8,0.1-1.2,0.4s-0.5,0.8-0.5,1.6v3.4H56.2z"/>
	<path d="M66.9,116.2l1,0.1c-0.1,0.7-0.4,1.3-0.9,1.7s-1,0.6-1.7,0.6c-0.9,0-1.5-0.3-2.1-0.8s-0.8-1.4-0.8-2.4
		c0-0.7,0.1-1.3,0.3-1.8s0.6-0.9,1-1.1s1-0.4,1.5-0.4c0.7,0,1.2,0.2,1.7,0.5s0.7,0.8,0.8,1.5l-1,0.2c-0.1-0.4-0.3-0.7-0.5-0.9
		s-0.5-0.3-0.9-0.3c-0.5,0-1,0.2-1.3,0.6s-0.5,1-0.5,1.8c0,0.8,0.2,1.4,0.5,1.8s0.7,0.6,1.3,0.6c0.4,0,0.8-0.1,1-0.4
		S66.8,116.7,66.9,116.2z"/>
	<path d="M73.1,116.5l1.1,0.1c-0.2,0.6-0.5,1.1-1,1.5s-1.1,0.5-1.8,0.5c-0.9,0-1.6-0.3-2.2-0.8s-0.8-1.3-0.8-2.4
		c0-1,0.3-1.9,0.8-2.4s1.2-0.9,2.1-0.9c0.8,0,1.5,0.3,2,0.8s0.8,1.4,0.8,2.4c0,0.1,0,0.2,0,0.3h-4.6c0,0.7,0.2,1.2,0.6,1.6
		s0.8,0.5,1.3,0.5c0.4,0,0.7-0.1,1-0.3S72.9,116.9,73.1,116.5z M69.6,114.8h3.5c0-0.5-0.2-0.9-0.4-1.2c-0.3-0.4-0.8-0.6-1.3-0.6
		c-0.5,0-0.9,0.2-1.2,0.5S69.7,114.2,69.6,114.8z"/>
	<path d="M78.8,120.9v-8.6h1v0.8c0.2-0.3,0.5-0.6,0.8-0.7s0.6-0.2,1-0.2c0.5,0,1,0.1,1.4,0.4s0.7,0.7,0.9,1.2s0.3,1,0.3,1.6
		c0,0.6-0.1,1.2-0.3,1.7s-0.6,0.9-1,1.2s-0.9,0.4-1.4,0.4c-0.4,0-0.7-0.1-0.9-0.2s-0.5-0.3-0.7-0.6v3H78.8z M79.8,115.4
		c0,0.8,0.2,1.4,0.5,1.8s0.7,0.6,1.2,0.6c0.5,0,0.9-0.2,1.2-0.6s0.5-1,0.5-1.8c0-0.8-0.2-1.4-0.5-1.8S82,113,81.5,113
		c-0.4,0-0.8,0.2-1.2,0.6S79.8,114.6,79.8,115.4z"/>
	<path d="M89.6,117.7c-0.4,0.3-0.8,0.6-1.1,0.7s-0.7,0.2-1.2,0.2c-0.7,0-1.2-0.2-1.6-0.5s-0.6-0.8-0.6-1.3c0-0.3,0.1-0.6,0.2-0.8
		s0.3-0.5,0.5-0.6s0.5-0.3,0.8-0.3c0.2-0.1,0.5-0.1,0.9-0.2c0.9-0.1,1.5-0.2,1.9-0.4c0-0.1,0-0.2,0-0.3c0-0.4-0.1-0.7-0.3-0.9
		c-0.3-0.2-0.7-0.4-1.2-0.4c-0.5,0-0.9,0.1-1.1,0.3s-0.4,0.5-0.5,0.9l-1-0.1c0.1-0.4,0.2-0.8,0.5-1.1s0.5-0.5,0.9-0.6
		s0.9-0.2,1.4-0.2c0.5,0,1,0.1,1.3,0.2s0.6,0.3,0.7,0.5s0.3,0.4,0.3,0.7c0,0.2,0.1,0.5,0.1,1v1.4c0,1,0,1.6,0.1,1.9s0.1,0.5,0.3,0.7
		h-1.1C89.7,118.3,89.6,118,89.6,117.7z M89.5,115.4c-0.4,0.2-1,0.3-1.7,0.4c-0.4,0.1-0.7,0.1-0.9,0.2s-0.3,0.2-0.4,0.3
		s-0.1,0.3-0.1,0.5c0,0.3,0.1,0.5,0.3,0.7s0.5,0.3,0.9,0.3c0.4,0,0.8-0.1,1.1-0.3s0.5-0.4,0.7-0.7c0.1-0.2,0.2-0.6,0.2-1.1V115.4z"
		/>
	<path d="M92.2,118.5v-6.2h0.9v0.9c0.2-0.4,0.5-0.7,0.7-0.9s0.4-0.2,0.7-0.2c0.4,0,0.7,0.1,1.1,0.3l-0.4,1c-0.3-0.2-0.5-0.2-0.8-0.2
		c-0.2,0-0.4,0.1-0.6,0.2s-0.3,0.3-0.4,0.6c-0.1,0.4-0.2,0.8-0.2,1.2v3.3H92.2z"/>
	<path d="M99.7,118.5v-8.6h5.8v1h-4.7v2.7h4v1h-4v3.9H99.7z"/>
	<path d="M113.1,115.5l1.1,0.3c-0.2,0.9-0.7,1.6-1.3,2.1s-1.4,0.7-2.3,0.7c-0.9,0-1.7-0.2-2.3-0.6s-1-0.9-1.3-1.6s-0.5-1.5-0.5-2.3
		c0-0.9,0.2-1.7,0.5-2.3s0.8-1.2,1.5-1.5s1.3-0.5,2.1-0.5c0.9,0,1.6,0.2,2.2,0.7s1,1.1,1.2,1.8l-1.1,0.3c-0.2-0.6-0.5-1.1-0.9-1.4
		s-0.9-0.4-1.4-0.4c-0.7,0-1.2,0.2-1.7,0.5s-0.8,0.7-0.9,1.3s-0.3,1.1-0.3,1.6c0,0.7,0.1,1.4,0.3,1.9s0.5,1,1,1.2s0.9,0.4,1.5,0.4
		c0.6,0,1.2-0.2,1.6-0.6S112.9,116.2,113.1,115.5z"/>
	<path d="M114.7,118.5l3.3-8.6h1.2l3.5,8.6h-1.3l-1-2.6h-3.6l-0.9,2.6H114.7z M117.2,115h2.9l-0.9-2.4c-0.3-0.7-0.5-1.3-0.6-1.8
		c-0.1,0.6-0.3,1.1-0.5,1.6L117.2,115z"/>
	<path d="M2,132.9l3.3-8.6h1.2l3.5,8.6H8.7l-1-2.6H4.1l-0.9,2.6H2z M4.4,129.4h2.9L6.5,127c-0.3-0.7-0.5-1.3-0.6-1.8
		c-0.1,0.6-0.3,1.1-0.5,1.6L4.4,129.4z"/>
	<path d="M14.9,132.9V132c-0.5,0.7-1.1,1.1-2,1.1c-0.4,0-0.7-0.1-1-0.2s-0.6-0.3-0.7-0.5s-0.3-0.5-0.3-0.8c0-0.2-0.1-0.5-0.1-1v-3.9
		h1.1v3.5c0,0.6,0,0.9,0.1,1.1c0.1,0.3,0.2,0.5,0.4,0.7s0.5,0.2,0.8,0.2s0.6-0.1,0.9-0.2s0.5-0.4,0.6-0.7s0.2-0.7,0.2-1.2v-3.3h1.1
		v6.2H14.9z"/>
	<path d="M21.5,132.9v-0.8c-0.4,0.6-1,0.9-1.7,0.9c-0.5,0-1-0.1-1.4-0.4s-0.7-0.7-1-1.1s-0.3-1.1-0.3-1.7c0-0.6,0.1-1.2,0.3-1.7
		s0.5-0.9,0.9-1.2s0.9-0.4,1.4-0.4c0.4,0,0.7,0.1,1,0.2s0.5,0.4,0.7,0.6v-3.1h1v8.6H21.5z M18.2,129.8c0,0.8,0.2,1.4,0.5,1.8
		s0.7,0.6,1.2,0.6c0.5,0,0.9-0.2,1.2-0.6s0.5-1,0.5-1.7c0-0.9-0.2-1.5-0.5-1.9s-0.7-0.6-1.2-0.6c-0.5,0-0.9,0.2-1.2,0.6
		S18.2,129,18.2,129.8z"/>
	<path d="M24.1,125.5v-1.2h1.1v1.2H24.1z M24.1,132.9v-6.2h1.1v6.2H24.1z"/>
	<path d="M29.1,132l0.2,0.9c-0.3,0.1-0.6,0.1-0.8,0.1c-0.4,0-0.7-0.1-0.9-0.2s-0.4-0.3-0.4-0.5s-0.1-0.6-0.1-1.2v-3.6h-0.8v-0.8H27
		v-1.5l1-0.6v2.2h1.1v0.8H28v3.6c0,0.3,0,0.5,0.1,0.6s0.1,0.2,0.2,0.2s0.2,0.1,0.4,0.1C28.8,132,28.9,132,29.1,132z"/>
	<path d="M33.5,135.3v-8.6h1v0.8c0.2-0.3,0.5-0.6,0.8-0.7s0.6-0.2,1-0.2c0.5,0,1,0.1,1.4,0.4s0.7,0.7,0.9,1.2s0.3,1,0.3,1.6
		c0,0.6-0.1,1.2-0.3,1.7s-0.6,0.9-1,1.2s-0.9,0.4-1.4,0.4c-0.4,0-0.7-0.1-0.9-0.2s-0.5-0.3-0.7-0.6v3H33.5z M34.4,129.8
		c0,0.8,0.2,1.4,0.5,1.8s0.7,0.6,1.2,0.6c0.5,0,0.9-0.2,1.2-0.6s0.5-1,0.5-1.8c0-0.8-0.2-1.4-0.5-1.8s-0.7-0.6-1.2-0.6
		c-0.4,0-0.8,0.2-1.2,0.6S34.4,129,34.4,129.8z"/>
	<path d="M44.2,132.1c-0.4,0.3-0.8,0.6-1.1,0.7s-0.7,0.2-1.2,0.2c-0.7,0-1.2-0.2-1.6-0.5s-0.6-0.8-0.6-1.3c0-0.3,0.1-0.6,0.2-0.8
		s0.3-0.5,0.5-0.6s0.5-0.3,0.8-0.3c0.2-0.1,0.5-0.1,0.9-0.2c0.9-0.1,1.5-0.2,1.9-0.4c0-0.1,0-0.2,0-0.3c0-0.4-0.1-0.7-0.3-0.9
		c-0.3-0.2-0.7-0.4-1.2-0.4c-0.5,0-0.9,0.1-1.1,0.3s-0.4,0.5-0.5,0.9l-1-0.1c0.1-0.4,0.2-0.8,0.5-1.1s0.5-0.5,0.9-0.6
		s0.9-0.2,1.4-0.2c0.5,0,1,0.1,1.3,0.2s0.6,0.3,0.7,0.5s0.3,0.4,0.3,0.7c0,0.2,0.1,0.5,0.1,1v1.4c0,1,0,1.6,0.1,1.9s0.1,0.5,0.3,0.7
		h-1.1C44.3,132.7,44.2,132.4,44.2,132.1z M44.1,129.8c-0.4,0.2-1,0.3-1.7,0.4c-0.4,0.1-0.7,0.1-0.9,0.2s-0.3,0.2-0.4,0.3
		s-0.1,0.3-0.1,0.5c0,0.3,0.1,0.5,0.3,0.7s0.5,0.3,0.9,0.3c0.4,0,0.8-0.1,1.1-0.3s0.5-0.4,0.7-0.7c0.1-0.2,0.2-0.6,0.2-1.1V129.8z"
		/>
	<path d="M46.8,132.9v-6.2h0.9v0.9c0.2-0.4,0.5-0.7,0.7-0.9s0.4-0.2,0.7-0.2c0.4,0,0.7,0.1,1.1,0.3l-0.4,1c-0.3-0.2-0.5-0.2-0.8-0.2
		c-0.2,0-0.4,0.1-0.6,0.2s-0.3,0.3-0.4,0.6c-0.1,0.4-0.2,0.8-0.2,1.2v3.3H46.8z"/>
	<path d="M54.3,132.9v-8.6h6.2v1h-5.1v2.6h4.8v1h-4.8v2.9h5.3v1H54.3z"/>
	<path d="M62.1,132.9v-6.2h0.9v0.9c0.2-0.4,0.5-0.7,0.7-0.9s0.4-0.2,0.7-0.2c0.4,0,0.7,0.1,1.1,0.3l-0.4,1c-0.3-0.2-0.5-0.2-0.8-0.2
		c-0.2,0-0.4,0.1-0.6,0.2s-0.3,0.3-0.4,0.6c-0.1,0.4-0.2,0.8-0.2,1.2v3.3H62.1z"/>
	<path d="M66.1,132.9v-6.2h0.9v0.9c0.5-0.7,1.1-1,2-1c0.4,0,0.7,0.1,1,0.2s0.5,0.3,0.7,0.5s0.3,0.5,0.3,0.8c0,0.2,0.1,0.5,0.1,1v3.8
		h-1.1v-3.8c0-0.4,0-0.8-0.1-1s-0.2-0.4-0.4-0.5s-0.5-0.2-0.7-0.2c-0.4,0-0.8,0.1-1.2,0.4s-0.5,0.8-0.5,1.6v3.4H66.1z"/>
	<path d="M72.4,131l1-0.2c0.1,0.4,0.2,0.7,0.5,1s0.6,0.3,1.1,0.3c0.5,0,0.8-0.1,1.1-0.3s0.4-0.4,0.4-0.7c0-0.2-0.1-0.4-0.3-0.6
		c-0.1-0.1-0.5-0.2-1.1-0.4c-0.8-0.2-1.3-0.4-1.6-0.5s-0.5-0.3-0.7-0.6s-0.2-0.5-0.2-0.8c0-0.3,0.1-0.5,0.2-0.8s0.3-0.4,0.5-0.6
		c0.2-0.1,0.4-0.2,0.7-0.3s0.6-0.1,0.9-0.1c0.5,0,0.9,0.1,1.3,0.2s0.6,0.3,0.8,0.6s0.3,0.6,0.4,1l-1,0.1c0-0.3-0.2-0.6-0.4-0.8
		s-0.5-0.3-1-0.3c-0.5,0-0.8,0.1-1,0.2s-0.3,0.3-0.3,0.6c0,0.1,0,0.3,0.1,0.4c0.1,0.1,0.2,0.2,0.4,0.3c0.1,0,0.4,0.1,0.9,0.3
		c0.7,0.2,1.3,0.4,1.6,0.5s0.5,0.3,0.7,0.6s0.3,0.5,0.3,0.9c0,0.4-0.1,0.7-0.3,1s-0.5,0.6-0.9,0.7s-0.8,0.3-1.3,0.3
		c-0.8,0-1.4-0.2-1.8-0.5S72.5,131.7,72.4,131z"/>
	<path d="M81.1,132l0.2,0.9c-0.3,0.1-0.6,0.1-0.8,0.1c-0.4,0-0.7-0.1-0.9-0.2s-0.4-0.3-0.4-0.5s-0.1-0.6-0.1-1.2v-3.6h-0.8v-0.8H79
		v-1.5l1-0.6v2.2h1.1v0.8h-1.1v3.6c0,0.3,0,0.5,0.1,0.6s0.1,0.2,0.2,0.2s0.2,0.1,0.4,0.1C80.8,132,80.9,132,81.1,132z"/>
	<path d="M90.4,131.9c-0.3,0.4-0.7,0.7-1.1,0.9s-0.9,0.3-1.3,0.3c-0.9,0-1.6-0.3-2.1-0.9c-0.4-0.5-0.6-1-0.6-1.6
		c0-0.5,0.2-1,0.5-1.4s0.9-0.8,1.5-1.1c-0.4-0.4-0.6-0.8-0.8-1.1s-0.2-0.5-0.2-0.8c0-0.5,0.2-1,0.6-1.3s0.9-0.6,1.5-0.6
		c0.6,0,1.1,0.2,1.4,0.5s0.6,0.8,0.6,1.3c0,0.8-0.5,1.5-1.6,2.1l1.5,2c0.2-0.3,0.3-0.7,0.4-1.2l1.1,0.2c-0.2,0.8-0.4,1.4-0.8,1.9
		c0.4,0.5,0.8,1,1.3,1.3l-0.7,0.8C91.3,132.8,90.8,132.4,90.4,131.9z M89.7,131.1l-1.9-2.4c-0.6,0.3-1,0.7-1.2,0.9s-0.3,0.6-0.3,0.9
		c0,0.3,0.1,0.7,0.4,1.1s0.7,0.6,1.2,0.6c0.3,0,0.6-0.1,1-0.3S89.5,131.4,89.7,131.1z M88.2,127.4c0.5-0.3,0.8-0.5,0.9-0.7
		s0.2-0.4,0.2-0.7c0-0.3-0.1-0.5-0.3-0.7s-0.4-0.3-0.7-0.3c-0.3,0-0.5,0.1-0.7,0.3s-0.3,0.4-0.3,0.7c0,0.1,0,0.3,0.1,0.4
		s0.2,0.3,0.3,0.5L88.2,127.4z"/>
	<path d="M99.2,132.9v-3.6l-3.3-5h1.4l1.7,2.6c0.3,0.5,0.6,1,0.9,1.5c0.3-0.4,0.6-1,0.9-1.5l1.7-2.5h1.3l-3.4,5v3.6H99.2z"/>
	<path d="M103.1,129.8c0-1.2,0.3-2,1-2.6c0.5-0.5,1.2-0.7,2-0.7c0.9,0,1.6,0.3,2.1,0.8s0.8,1.3,0.8,2.3c0,0.8-0.1,1.4-0.4,1.9
		s-0.6,0.8-1,1.1s-1,0.4-1.5,0.4c-0.9,0-1.6-0.3-2.1-0.8S103.1,130.8,103.1,129.8z M104.2,129.8c0,0.8,0.2,1.4,0.5,1.8
		s0.8,0.6,1.3,0.6c0.5,0,1-0.2,1.3-0.6s0.5-1,0.5-1.8c0-0.8-0.2-1.4-0.5-1.7s-0.8-0.6-1.3-0.6c-0.5,0-1,0.2-1.3,0.6
		S104.2,129,104.2,129.8z"/>
	<path d="M114.3,132.9V132c-0.5,0.7-1.1,1.1-2,1.1c-0.4,0-0.7-0.1-1-0.2s-0.6-0.3-0.7-0.5s-0.3-0.5-0.3-0.8c0-0.2-0.1-0.5-0.1-1
		v-3.9h1.1v3.5c0,0.6,0,0.9,0.1,1.1c0.1,0.3,0.2,0.5,0.4,0.7s0.5,0.2,0.8,0.2s0.6-0.1,0.9-0.2s0.5-0.4,0.6-0.7s0.2-0.7,0.2-1.2v-3.3
		h1.1v6.2H114.3z"/>
	<path d="M116.9,132.9v-6.2h0.9v0.9c0.5-0.7,1.1-1,2-1c0.4,0,0.7,0.1,1,0.2s0.5,0.3,0.7,0.5s0.3,0.5,0.3,0.8c0,0.2,0.1,0.5,0.1,1
		v3.8h-1.1v-3.8c0-0.4,0-0.8-0.1-1s-0.2-0.4-0.4-0.5s-0.5-0.2-0.7-0.2c-0.4,0-0.8,0.1-1.2,0.4s-0.5,0.8-0.5,1.6v3.4H116.9z"/>
	<path d="M123.3,133.4l1,0.2c0,0.3,0.2,0.5,0.4,0.7c0.3,0.2,0.6,0.3,1.1,0.3c0.5,0,0.9-0.1,1.1-0.3s0.4-0.5,0.5-0.8
		c0.1-0.2,0.1-0.7,0.1-1.4c-0.5,0.5-1,0.8-1.7,0.8c-0.9,0-1.5-0.3-2-0.9s-0.7-1.4-0.7-2.2c0-0.6,0.1-1.1,0.3-1.6s0.5-0.9,0.9-1.2
		s0.9-0.4,1.4-0.4c0.7,0,1.3,0.3,1.8,0.9v-0.8h1v5.4c0,1-0.1,1.7-0.3,2.1s-0.5,0.7-0.9,1s-1,0.4-1.6,0.4c-0.7,0-1.3-0.2-1.8-0.5
		S123.3,134.1,123.3,133.4z M124.2,129.7c0,0.8,0.2,1.4,0.5,1.8s0.7,0.6,1.2,0.6c0.5,0,0.9-0.2,1.2-0.6s0.5-1,0.5-1.8
		c0-0.8-0.2-1.3-0.5-1.7s-0.7-0.6-1.2-0.6c-0.5,0-0.9,0.2-1.2,0.6S124.2,128.9,124.2,129.7z"/>
</g>
<g>
	<path d="M6.1,297.1l1.1-0.1c0.1,0.4,0.2,0.8,0.4,1.1s0.5,0.5,0.9,0.7s0.8,0.3,1.3,0.3c0.4,0,0.8-0.1,1.1-0.2s0.6-0.3,0.7-0.5
		s0.2-0.5,0.2-0.7c0-0.3-0.1-0.5-0.2-0.7s-0.4-0.4-0.8-0.5c-0.2-0.1-0.7-0.2-1.5-0.4s-1.3-0.4-1.7-0.5c-0.4-0.2-0.7-0.5-0.9-0.8
		s-0.3-0.7-0.3-1.1c0-0.4,0.1-0.8,0.4-1.2s0.6-0.7,1.1-0.9s1-0.3,1.6-0.3c0.6,0,1.2,0.1,1.7,0.3s0.9,0.5,1.1,0.9s0.4,0.8,0.4,1.4
		l-1.1,0.1c-0.1-0.5-0.3-1-0.6-1.2s-0.8-0.4-1.5-0.4c-0.7,0-1.2,0.1-1.5,0.4s-0.5,0.6-0.5,0.9c0,0.3,0.1,0.6,0.3,0.8
		c0.2,0.2,0.8,0.4,1.7,0.6s1.6,0.4,1.9,0.5c0.5,0.2,0.9,0.5,1.1,0.9s0.4,0.8,0.4,1.2c0,0.5-0.1,0.9-0.4,1.3s-0.6,0.7-1.1,0.9
		s-1,0.3-1.7,0.3c-0.8,0-1.4-0.1-2-0.3s-0.9-0.6-1.2-1S6.2,297.7,6.1,297.1z"/>
	<path d="M18.5,299.9v-0.9c-0.5,0.7-1.1,1.1-2,1.1c-0.4,0-0.7-0.1-1-0.2s-0.6-0.3-0.7-0.5s-0.3-0.5-0.3-0.8c0-0.2-0.1-0.5-0.1-1
		v-3.9h1.1v3.5c0,0.6,0,0.9,0.1,1.1c0.1,0.3,0.2,0.5,0.4,0.7s0.5,0.2,0.8,0.2s0.6-0.1,0.9-0.2s0.5-0.4,0.6-0.7s0.2-0.7,0.2-1.2v-3.3
		h1.1v6.2H18.5z"/>
	<path d="M21.1,299.9v-6.2H22v0.9c0.2-0.4,0.5-0.7,0.7-0.9s0.4-0.2,0.7-0.2c0.4,0,0.7,0.1,1.1,0.3l-0.4,1c-0.3-0.2-0.5-0.2-0.8-0.2
		c-0.2,0-0.4,0.1-0.6,0.2s-0.3,0.3-0.4,0.6c-0.1,0.4-0.2,0.8-0.2,1.2v3.3H21.1z"/>
	<path d="M26.8,299.9l-2.4-6.2h1.1l1.3,3.7c0.1,0.4,0.3,0.8,0.4,1.3c0.1-0.3,0.2-0.7,0.4-1.2l1.4-3.8h1.1l-2.4,6.2H26.8z"/>
	<path d="M35.3,297.9l1.1,0.1c-0.2,0.6-0.5,1.1-1,1.5s-1.1,0.5-1.8,0.5c-0.9,0-1.6-0.3-2.2-0.8s-0.8-1.3-0.8-2.4
		c0-1,0.3-1.9,0.8-2.4s1.2-0.9,2.1-0.9c0.8,0,1.5,0.3,2,0.8s0.8,1.4,0.8,2.4c0,0.1,0,0.2,0,0.3h-4.6c0,0.7,0.2,1.2,0.6,1.6
		s0.8,0.5,1.3,0.5c0.4,0,0.7-0.1,1-0.3S35.2,298.3,35.3,297.9z M31.9,296.1h3.5c0-0.5-0.2-0.9-0.4-1.2c-0.3-0.4-0.8-0.6-1.3-0.6
		c-0.5,0-0.9,0.2-1.2,0.5S31.9,295.6,31.9,296.1z"/>
	<path d="M37.8,292.5v-1.2h1.1v1.2H37.8z M37.8,299.9v-6.2h1.1v6.2H37.8z"/>
	<path d="M40.4,299.9v-8.6h1.1v8.6H40.4z"/>
	<path d="M43.1,299.9v-8.6h1.1v8.6H43.1z"/>
	<path d="M49.8,299.1c-0.4,0.3-0.8,0.6-1.1,0.7s-0.7,0.2-1.2,0.2c-0.7,0-1.2-0.2-1.6-0.5s-0.6-0.8-0.6-1.3c0-0.3,0.1-0.6,0.2-0.8
		s0.3-0.5,0.5-0.6s0.5-0.3,0.8-0.3c0.2-0.1,0.5-0.1,0.9-0.2c0.9-0.1,1.5-0.2,1.9-0.4c0-0.1,0-0.2,0-0.3c0-0.4-0.1-0.7-0.3-0.9
		c-0.3-0.2-0.7-0.4-1.2-0.4c-0.5,0-0.9,0.1-1.1,0.3s-0.4,0.5-0.5,0.9l-1-0.1c0.1-0.4,0.2-0.8,0.5-1.1s0.5-0.5,0.9-0.6
		s0.9-0.2,1.4-0.2c0.5,0,1,0.1,1.3,0.2s0.6,0.3,0.7,0.5s0.3,0.4,0.3,0.7c0,0.2,0.1,0.5,0.1,1v1.4c0,1,0,1.6,0.1,1.9s0.1,0.5,0.3,0.7
		H50C49.9,299.6,49.8,299.4,49.8,299.1z M49.7,296.7c-0.4,0.2-1,0.3-1.7,0.4c-0.4,0.1-0.7,0.1-0.9,0.2s-0.3,0.2-0.4,0.3
		s-0.1,0.3-0.1,0.5c0,0.3,0.1,0.5,0.3,0.7s0.5,0.3,0.9,0.3c0.4,0,0.8-0.1,1.1-0.3s0.5-0.4,0.7-0.7c0.1-0.2,0.2-0.6,0.2-1.1V296.7z"
		/>
	<path d="M52.4,299.9v-6.2h0.9v0.9c0.5-0.7,1.1-1,2-1c0.4,0,0.7,0.1,1,0.2s0.5,0.3,0.7,0.5s0.3,0.5,0.3,0.8c0,0.2,0.1,0.5,0.1,1v3.8
		h-1.1v-3.8c0-0.4,0-0.8-0.1-1s-0.2-0.4-0.4-0.5s-0.5-0.2-0.7-0.2c-0.4,0-0.8,0.1-1.2,0.4s-0.5,0.8-0.5,1.6v3.4H52.4z"/>
	<path d="M63.2,297.6l1,0.1c-0.1,0.7-0.4,1.3-0.9,1.7s-1,0.6-1.7,0.6c-0.9,0-1.5-0.3-2.1-0.8s-0.8-1.4-0.8-2.4
		c0-0.7,0.1-1.3,0.3-1.8s0.6-0.9,1-1.1s1-0.4,1.5-0.4c0.7,0,1.2,0.2,1.7,0.5s0.7,0.8,0.8,1.5l-1,0.2c-0.1-0.4-0.3-0.7-0.5-0.9
		s-0.5-0.3-0.9-0.3c-0.5,0-1,0.2-1.3,0.6s-0.5,1-0.5,1.8c0,0.8,0.2,1.4,0.5,1.8s0.7,0.6,1.3,0.6c0.4,0,0.8-0.1,1-0.4
		S63.1,298.1,63.2,297.6z"/>
	<path d="M69.4,297.9l1.1,0.1c-0.2,0.6-0.5,1.1-1,1.5s-1.1,0.5-1.8,0.5c-0.9,0-1.6-0.3-2.2-0.8s-0.8-1.3-0.8-2.4
		c0-1,0.3-1.9,0.8-2.4s1.2-0.9,2.1-0.9c0.8,0,1.5,0.3,2,0.8s0.8,1.4,0.8,2.4c0,0.1,0,0.2,0,0.3h-4.6c0,0.7,0.2,1.2,0.6,1.6
		s0.8,0.5,1.3,0.5c0.4,0,0.7-0.1,1-0.3S69.2,298.3,69.4,297.9z M65.9,296.1h3.5c0-0.5-0.2-0.9-0.4-1.2c-0.3-0.4-0.8-0.6-1.3-0.6
		c-0.5,0-0.9,0.2-1.2,0.5S65.9,295.6,65.9,296.1z"/>
	<path d="M75.1,302.2v-8.6h1v0.8c0.2-0.3,0.5-0.6,0.8-0.7s0.6-0.2,1-0.2c0.5,0,1,0.1,1.4,0.4s0.7,0.7,0.9,1.2s0.3,1,0.3,1.6
		c0,0.6-0.1,1.2-0.3,1.7s-0.6,0.9-1,1.2s-0.9,0.4-1.4,0.4c-0.4,0-0.7-0.1-0.9-0.2s-0.5-0.3-0.7-0.6v3H75.1z M76.1,296.8
		c0,0.8,0.2,1.4,0.5,1.8s0.7,0.6,1.2,0.6c0.5,0,0.9-0.2,1.2-0.6s0.5-1,0.5-1.8c0-0.8-0.2-1.4-0.5-1.8s-0.7-0.6-1.2-0.6
		c-0.4,0-0.8,0.2-1.2,0.6S76.1,296,76.1,296.8z"/>
	<path d="M85.8,299.1c-0.4,0.3-0.8,0.6-1.1,0.7S84,300,83.5,300c-0.7,0-1.2-0.2-1.6-0.5s-0.6-0.8-0.6-1.3c0-0.3,0.1-0.6,0.2-0.8
		s0.3-0.5,0.5-0.6s0.5-0.3,0.8-0.3c0.2-0.1,0.5-0.1,0.9-0.2c0.9-0.1,1.5-0.2,1.9-0.4c0-0.1,0-0.2,0-0.3c0-0.4-0.1-0.7-0.3-0.9
		c-0.3-0.2-0.7-0.4-1.2-0.4c-0.5,0-0.9,0.1-1.1,0.3s-0.4,0.5-0.5,0.9l-1-0.1c0.1-0.4,0.2-0.8,0.5-1.1s0.5-0.5,0.9-0.6
		s0.9-0.2,1.4-0.2c0.5,0,1,0.1,1.3,0.2s0.6,0.3,0.7,0.5s0.3,0.4,0.3,0.7c0,0.2,0.1,0.5,0.1,1v1.4c0,1,0,1.6,0.1,1.9s0.1,0.5,0.3,0.7
		H86C85.9,299.6,85.9,299.4,85.8,299.1z M85.7,296.7c-0.4,0.2-1,0.3-1.7,0.4c-0.4,0.1-0.7,0.1-0.9,0.2s-0.3,0.2-0.4,0.3
		s-0.1,0.3-0.1,0.5c0,0.3,0.1,0.5,0.3,0.7s0.5,0.3,0.9,0.3c0.4,0,0.8-0.1,1.1-0.3s0.5-0.4,0.7-0.7c0.1-0.2,0.2-0.6,0.2-1.1V296.7z"
		/>
	<path d="M88.4,299.9v-6.2h0.9v0.9c0.2-0.4,0.5-0.7,0.7-0.9s0.4-0.2,0.7-0.2c0.4,0,0.7,0.1,1.1,0.3l-0.4,1c-0.3-0.2-0.5-0.2-0.8-0.2
		c-0.2,0-0.4,0.1-0.6,0.2s-0.3,0.3-0.4,0.6c-0.1,0.4-0.2,0.8-0.2,1.2v3.3H88.4z"/>
	<path d="M5.3,314.3v-8.6h1.1v3.5H11v-3.5h1.1v8.6H11v-4H6.5v4H5.3z"/>
	<path d="M13.5,311.1c0-1.2,0.3-2,1-2.6c0.5-0.5,1.2-0.7,2-0.7c0.9,0,1.6,0.3,2.1,0.8s0.8,1.3,0.8,2.3c0,0.8-0.1,1.4-0.4,1.9
		s-0.6,0.8-1,1.1s-1,0.4-1.5,0.4c-0.9,0-1.6-0.3-2.1-0.8S13.5,312.2,13.5,311.1z M14.5,311.1c0,0.8,0.2,1.4,0.5,1.8s0.8,0.6,1.3,0.6
		c0.5,0,1-0.2,1.3-0.6s0.5-1,0.5-1.8c0-0.8-0.2-1.4-0.5-1.7s-0.8-0.6-1.3-0.6c-0.5,0-1,0.2-1.3,0.6S14.5,310.3,14.5,311.1z"/>
	<path d="M24.6,314.3v-0.9c-0.5,0.7-1.1,1.1-2,1.1c-0.4,0-0.7-0.1-1-0.2s-0.6-0.3-0.7-0.5s-0.3-0.5-0.3-0.8c0-0.2-0.1-0.5-0.1-1V308
		h1.1v3.5c0,0.6,0,0.9,0.1,1.1c0.1,0.3,0.2,0.5,0.4,0.7s0.5,0.2,0.8,0.2s0.6-0.1,0.9-0.2s0.5-0.4,0.6-0.7s0.2-0.7,0.2-1.2V308h1.1
		v6.2H24.6z"/>
	<path d="M26.8,312.4l1-0.2c0.1,0.4,0.2,0.7,0.5,1s0.6,0.3,1.1,0.3c0.5,0,0.8-0.1,1.1-0.3s0.4-0.4,0.4-0.7c0-0.2-0.1-0.4-0.3-0.6
		c-0.1-0.1-0.5-0.2-1.1-0.4c-0.8-0.2-1.3-0.4-1.6-0.5s-0.5-0.3-0.7-0.6s-0.2-0.5-0.2-0.8c0-0.3,0.1-0.5,0.2-0.8s0.3-0.4,0.5-0.6
		c0.2-0.1,0.4-0.2,0.7-0.3s0.6-0.1,0.9-0.1c0.5,0,0.9,0.1,1.3,0.2s0.6,0.3,0.8,0.6s0.3,0.6,0.4,1l-1,0.1c0-0.3-0.2-0.6-0.4-0.8
		s-0.5-0.3-1-0.3c-0.5,0-0.8,0.1-1,0.2s-0.3,0.3-0.3,0.6c0,0.1,0,0.3,0.1,0.4c0.1,0.1,0.2,0.2,0.4,0.3c0.1,0,0.4,0.1,0.9,0.3
		c0.7,0.2,1.3,0.4,1.6,0.5s0.5,0.3,0.7,0.6s0.3,0.5,0.3,0.9c0,0.4-0.1,0.7-0.3,1s-0.5,0.6-0.9,0.7s-0.8,0.3-1.3,0.3
		c-0.8,0-1.4-0.2-1.8-0.5S26.9,313.1,26.8,312.4z"/>
	<path d="M37.5,312.3l1.1,0.1c-0.2,0.6-0.5,1.1-1,1.5s-1.1,0.5-1.8,0.5c-0.9,0-1.6-0.3-2.2-0.8s-0.8-1.3-0.8-2.4
		c0-1,0.3-1.9,0.8-2.4s1.2-0.9,2.1-0.9c0.8,0,1.5,0.3,2,0.8s0.8,1.4,0.8,2.4c0,0.1,0,0.2,0,0.3h-4.6c0,0.7,0.2,1.2,0.6,1.6
		s0.8,0.5,1.3,0.5c0.4,0,0.7-0.1,1-0.3S37.3,312.7,37.5,312.3z M34,310.5h3.5c0-0.5-0.2-0.9-0.4-1.2c-0.3-0.4-0.8-0.6-1.3-0.6
		c-0.5,0-0.9,0.2-1.2,0.5S34,310,34,310.5z"/>
	<path d="M42.2,314.3v-7.6h-2.8v-1h6.8v1h-2.8v7.6H42.2z"/>
	<path d="M45.5,311.1c0-1.2,0.3-2,1-2.6c0.5-0.5,1.2-0.7,2-0.7c0.9,0,1.6,0.3,2.1,0.8s0.8,1.3,0.8,2.3c0,0.8-0.1,1.4-0.4,1.9
		s-0.6,0.8-1,1.1s-1,0.4-1.5,0.4c-0.9,0-1.6-0.3-2.1-0.8S45.5,312.2,45.5,311.1z M46.6,311.1c0,0.8,0.2,1.4,0.5,1.8s0.8,0.6,1.3,0.6
		c0.5,0,1-0.2,1.3-0.6s0.5-1,0.5-1.8c0-0.8-0.2-1.4-0.5-1.7s-0.8-0.6-1.3-0.6c-0.5,0-1,0.2-1.3,0.6S46.6,310.3,46.6,311.1z"/>
	<path d="M52.5,314.3v-8.6h1.1v4.9l2.5-2.5h1.4l-2.4,2.3l2.6,3.9h-1.3l-2.1-3.2l-0.7,0.7v2.5H52.5z"/>
	<path d="M62.8,312.3l1.1,0.1c-0.2,0.6-0.5,1.1-1,1.5s-1.1,0.5-1.8,0.5c-0.9,0-1.6-0.3-2.2-0.8s-0.8-1.3-0.8-2.4
		c0-1,0.3-1.9,0.8-2.4s1.2-0.9,2.1-0.9c0.8,0,1.5,0.3,2,0.8s0.8,1.4,0.8,2.4c0,0.1,0,0.2,0,0.3h-4.6c0,0.7,0.2,1.2,0.6,1.6
		s0.8,0.5,1.3,0.5c0.4,0,0.7-0.1,1-0.3S62.6,312.7,62.8,312.3z M59.3,310.5h3.5c0-0.5-0.2-0.9-0.4-1.2c-0.3-0.4-0.8-0.6-1.3-0.6
		c-0.5,0-0.9,0.2-1.2,0.5S59.4,310,59.3,310.5z"/>
	<path d="M65.2,314.3V308h0.9v0.9c0.5-0.7,1.1-1,2-1c0.4,0,0.7,0.1,1,0.2s0.5,0.3,0.7,0.5s0.3,0.5,0.3,0.8c0,0.2,0.1,0.5,0.1,1v3.8
		h-1.1v-3.8c0-0.4,0-0.8-0.1-1s-0.2-0.4-0.4-0.5s-0.5-0.2-0.7-0.2c-0.4,0-0.8,0.1-1.2,0.4s-0.5,0.8-0.5,1.6v3.4H65.2z"/>
	<path d="M75.3,314.3v-8.6h1.1v7.6h4.2v1H75.3z"/>
	<path d="M83.3,314.3v-7.6h-2.8v-1h6.8v1h-2.8v7.6H83.3z"/>
	<path d="M88.5,314.3v-8.6h3c0.7,0,1.2,0,1.5,0.1c0.5,0.1,0.9,0.3,1.3,0.6c0.5,0.4,0.8,0.9,1,1.5s0.3,1.3,0.3,2
		c0,0.7-0.1,1.2-0.2,1.7s-0.3,0.9-0.6,1.3s-0.5,0.6-0.8,0.8s-0.6,0.3-1,0.4s-0.9,0.1-1.4,0.1H88.5z M89.6,313.2h1.8
		c0.6,0,1-0.1,1.3-0.2s0.6-0.3,0.8-0.4c0.3-0.3,0.5-0.6,0.6-1.1s0.2-1,0.2-1.7c0-0.9-0.1-1.6-0.4-2.1s-0.7-0.8-1.1-1
		c-0.3-0.1-0.8-0.2-1.5-0.2h-1.8V313.2z"/>
	<path d="M10.6,328.7l3.3-8.6h1.2l3.5,8.6h-1.3l-1-2.6h-3.6l-0.9,2.6H10.6z M13.1,325.1H16l-0.9-2.4c-0.3-0.7-0.5-1.3-0.6-1.8
		c-0.1,0.6-0.3,1.1-0.5,1.6L13.1,325.1z"/>
	<path d="M23.5,328.7v-0.9c-0.5,0.7-1.1,1.1-2,1.1c-0.4,0-0.7-0.1-1-0.2s-0.6-0.3-0.7-0.5s-0.3-0.5-0.3-0.8c0-0.2-0.1-0.5-0.1-1
		v-3.9h1.1v3.5c0,0.6,0,0.9,0.1,1.1c0.1,0.3,0.2,0.5,0.4,0.7s0.5,0.2,0.8,0.2s0.6-0.1,0.9-0.2s0.5-0.4,0.6-0.7s0.2-0.7,0.2-1.2v-3.3
		h1.1v6.2H23.5z"/>
	<path d="M30.1,328.7v-0.8c-0.4,0.6-1,0.9-1.7,0.9c-0.5,0-1-0.1-1.4-0.4s-0.7-0.7-1-1.1s-0.3-1.1-0.3-1.7c0-0.6,0.1-1.2,0.3-1.7
		s0.5-0.9,0.9-1.2s0.9-0.4,1.4-0.4c0.4,0,0.7,0.1,1,0.2s0.5,0.4,0.7,0.6v-3.1h1v8.6H30.1z M26.8,325.5c0,0.8,0.2,1.4,0.5,1.8
		s0.7,0.6,1.2,0.6c0.5,0,0.9-0.2,1.2-0.6s0.5-1,0.5-1.7c0-0.9-0.2-1.5-0.5-1.9s-0.7-0.6-1.2-0.6c-0.5,0-0.9,0.2-1.2,0.6
		S26.8,324.7,26.8,325.5z"/>
	<path d="M32.8,321.3v-1.2h1.1v1.2H32.8z M32.8,328.7v-6.2h1.1v6.2H32.8z"/>
	<path d="M37.7,327.7l0.2,0.9c-0.3,0.1-0.6,0.1-0.8,0.1c-0.4,0-0.7-0.1-0.9-0.2s-0.4-0.3-0.4-0.5s-0.1-0.6-0.1-1.2v-3.6h-0.8v-0.8
		h0.8v-1.5l1-0.6v2.2h1.1v0.8h-1.1v3.6c0,0.3,0,0.5,0.1,0.6s0.1,0.2,0.2,0.2s0.2,0.1,0.4,0.1C37.4,327.8,37.5,327.7,37.7,327.7z"/>
	<path d="M42.1,331v-8.6h1v0.8c0.2-0.3,0.5-0.6,0.8-0.7s0.6-0.2,1-0.2c0.5,0,1,0.1,1.4,0.4s0.7,0.7,0.9,1.2s0.3,1,0.3,1.6
		c0,0.6-0.1,1.2-0.3,1.7s-0.6,0.9-1,1.2s-0.9,0.4-1.4,0.4c-0.4,0-0.7-0.1-0.9-0.2s-0.5-0.3-0.7-0.6v3H42.1z M43.1,325.6
		c0,0.8,0.2,1.4,0.5,1.8s0.7,0.6,1.2,0.6c0.5,0,0.9-0.2,1.2-0.6s0.5-1,0.5-1.8c0-0.8-0.2-1.4-0.5-1.8s-0.7-0.6-1.2-0.6
		c-0.4,0-0.8,0.2-1.2,0.6S43.1,324.8,43.1,325.6z"/>
	<path d="M52.8,327.9c-0.4,0.3-0.8,0.6-1.1,0.7s-0.7,0.2-1.2,0.2c-0.7,0-1.2-0.2-1.6-0.5s-0.6-0.8-0.6-1.3c0-0.3,0.1-0.6,0.2-0.8
		s0.3-0.5,0.5-0.6s0.5-0.3,0.8-0.3c0.2-0.1,0.5-0.1,0.9-0.2c0.9-0.1,1.5-0.2,1.9-0.4c0-0.1,0-0.2,0-0.3c0-0.4-0.1-0.7-0.3-0.9
		c-0.3-0.2-0.7-0.4-1.2-0.4c-0.5,0-0.9,0.1-1.1,0.3s-0.4,0.5-0.5,0.9l-1-0.1c0.1-0.4,0.2-0.8,0.5-1.1s0.5-0.5,0.9-0.6
		s0.9-0.2,1.4-0.2c0.5,0,1,0.1,1.3,0.2s0.6,0.3,0.7,0.5s0.3,0.4,0.3,0.7c0,0.2,0.1,0.5,0.1,1v1.4c0,1,0,1.6,0.1,1.9s0.1,0.5,0.3,0.7
		H53C52.9,328.4,52.9,328.2,52.8,327.9z M52.7,325.5c-0.4,0.2-1,0.3-1.7,0.4c-0.4,0.1-0.7,0.1-0.9,0.2s-0.3,0.2-0.4,0.3
		s-0.1,0.3-0.1,0.5c0,0.3,0.1,0.5,0.3,0.7s0.5,0.3,0.9,0.3c0.4,0,0.8-0.1,1.1-0.3s0.5-0.4,0.7-0.7c0.1-0.2,0.2-0.6,0.2-1.1V325.5z"
		/>
	<path d="M55.4,328.7v-6.2h0.9v0.9c0.2-0.4,0.5-0.7,0.7-0.9s0.4-0.2,0.7-0.2c0.4,0,0.7,0.1,1.1,0.3l-0.4,1c-0.3-0.2-0.5-0.2-0.8-0.2
		c-0.2,0-0.4,0.1-0.6,0.2s-0.3,0.3-0.4,0.6c-0.1,0.4-0.2,0.8-0.2,1.2v3.3H55.4z"/>
	<path d="M62.9,328.7v-8.6h3.2c0.6,0,1,0,1.3,0.1c0.4,0.1,0.8,0.2,1.1,0.4s0.5,0.5,0.7,0.8s0.3,0.7,0.3,1.2c0,0.7-0.2,1.3-0.7,1.9
		s-1.3,0.8-2.5,0.8H64v3.5H62.9z M64,324.1h2.2c0.7,0,1.3-0.1,1.6-0.4s0.5-0.7,0.5-1.2c0-0.4-0.1-0.7-0.3-0.9s-0.4-0.4-0.7-0.5
		c-0.2-0.1-0.5-0.1-1.1-0.1H64V324.1z"/>
	<path d="M72.4,328.7l-2.3-8.6h1.2l1.3,5.6c0.1,0.6,0.3,1.2,0.4,1.8c0.2-0.9,0.3-1.4,0.4-1.6l1.6-5.8h1.4l1.2,4.3
		c0.3,1.1,0.5,2.1,0.7,3c0.1-0.5,0.3-1.2,0.4-1.9l1.3-5.5h1.1l-2.4,8.6h-1.1l-1.8-6.5c-0.2-0.5-0.2-0.9-0.3-1
		c-0.1,0.4-0.2,0.7-0.3,1l-1.8,6.5H72.4z"/>
	<path d="M88.4,325.6l1.1,0.3c-0.2,0.9-0.7,1.6-1.3,2.1s-1.4,0.7-2.3,0.7c-0.9,0-1.7-0.2-2.3-0.6s-1-0.9-1.3-1.6s-0.5-1.5-0.5-2.3
		c0-0.9,0.2-1.7,0.5-2.3s0.8-1.2,1.5-1.5s1.3-0.5,2.1-0.5c0.9,0,1.6,0.2,2.2,0.7s1,1.1,1.2,1.8l-1.1,0.3c-0.2-0.6-0.5-1.1-0.9-1.4
		s-0.9-0.4-1.4-0.4c-0.7,0-1.2,0.2-1.7,0.5s-0.8,0.7-0.9,1.3s-0.3,1.1-0.3,1.6c0,0.7,0.1,1.4,0.3,1.9s0.5,1,1,1.2s0.9,0.4,1.5,0.4
		c0.6,0,1.2-0.2,1.6-0.6S88.2,326.4,88.4,325.6z"/>
</g>
<g>
	<path d="M205.4,118.5v-8.6h3.2c0.6,0,1,0,1.3,0.1c0.4,0.1,0.8,0.2,1.1,0.4s0.5,0.5,0.7,0.8s0.3,0.7,0.3,1.2c0,0.7-0.2,1.3-0.7,1.9
		s-1.3,0.8-2.5,0.8h-2.2v3.5H205.4z M206.5,114h2.2c0.7,0,1.3-0.1,1.6-0.4s0.5-0.7,0.5-1.2c0-0.4-0.1-0.7-0.3-0.9s-0.4-0.4-0.7-0.5
		c-0.2-0.1-0.5-0.1-1.1-0.1h-2.2V114z"/>
	<path d="M213.2,118.5v-8.6h1.1v8.6H213.2z"/>
	<path d="M220,117.7c-0.4,0.3-0.8,0.6-1.1,0.7s-0.7,0.2-1.2,0.2c-0.7,0-1.2-0.2-1.6-0.5s-0.6-0.8-0.6-1.3c0-0.3,0.1-0.6,0.2-0.8
		s0.3-0.5,0.5-0.6s0.5-0.3,0.8-0.3c0.2-0.1,0.5-0.1,0.9-0.2c0.9-0.1,1.5-0.2,1.9-0.4c0-0.1,0-0.2,0-0.3c0-0.4-0.1-0.7-0.3-0.9
		c-0.3-0.2-0.7-0.4-1.2-0.4c-0.5,0-0.9,0.1-1.1,0.3s-0.4,0.5-0.5,0.9l-1-0.1c0.1-0.4,0.2-0.8,0.5-1.1s0.5-0.5,0.9-0.6
		s0.9-0.2,1.4-0.2c0.5,0,1,0.1,1.3,0.2s0.6,0.3,0.7,0.5s0.3,0.4,0.3,0.7c0,0.2,0.1,0.5,0.1,1v1.4c0,1,0,1.6,0.1,1.9s0.1,0.5,0.3,0.7
		h-1.1C220.1,118.3,220,118,220,117.7z M219.9,115.4c-0.4,0.2-1,0.3-1.7,0.4c-0.4,0.1-0.7,0.1-0.9,0.2s-0.3,0.2-0.4,0.3
		s-0.1,0.3-0.1,0.5c0,0.3,0.1,0.5,0.3,0.7s0.5,0.3,0.9,0.3c0.4,0,0.8-0.1,1.1-0.3s0.5-0.4,0.7-0.7c0.1-0.2,0.2-0.6,0.2-1.1V115.4z"
		/>
	<path d="M224.9,117.6l0.2,0.9c-0.3,0.1-0.6,0.1-0.8,0.1c-0.4,0-0.7-0.1-0.9-0.2s-0.4-0.3-0.4-0.5s-0.1-0.6-0.1-1.2v-3.6H222v-0.8
		h0.8v-1.5l1-0.6v2.2h1.1v0.8h-1.1v3.6c0,0.3,0,0.5,0.1,0.6s0.1,0.2,0.2,0.2s0.2,0.1,0.4,0.1C224.6,117.6,224.7,117.6,224.9,117.6z"
		/>
	<path d="M230.2,116.5l1.1,0.1c-0.2,0.6-0.5,1.1-1,1.5s-1.1,0.5-1.8,0.5c-0.9,0-1.6-0.3-2.2-0.8s-0.8-1.3-0.8-2.4
		c0-1,0.3-1.9,0.8-2.4s1.2-0.9,2.1-0.9c0.8,0,1.5,0.3,2,0.8s0.8,1.4,0.8,2.4c0,0.1,0,0.2,0,0.3h-4.6c0,0.7,0.2,1.2,0.6,1.6
		s0.8,0.5,1.3,0.5c0.4,0,0.7-0.1,1-0.3S230,116.9,230.2,116.5z M226.7,114.8h3.5c0-0.5-0.2-0.9-0.4-1.2c-0.3-0.4-0.8-0.6-1.3-0.6
		c-0.5,0-0.9,0.2-1.2,0.5S226.8,114.2,226.7,114.8z"/>
	<path d="M232.9,118.5v-5.4h-0.9v-0.8h0.9v-0.7c0-0.4,0-0.7,0.1-0.9c0.1-0.3,0.3-0.5,0.5-0.7s0.6-0.3,1.1-0.3c0.3,0,0.6,0,1,0.1
		l-0.2,0.9c-0.2,0-0.4-0.1-0.6-0.1c-0.3,0-0.5,0.1-0.7,0.2s-0.2,0.4-0.2,0.8v0.6h1.2v0.8h-1.2v5.4H232.9z"/>
	<path d="M235.6,115.4c0-1.2,0.3-2,1-2.6c0.5-0.5,1.2-0.7,2-0.7c0.9,0,1.6,0.3,2.1,0.8s0.8,1.3,0.8,2.3c0,0.8-0.1,1.4-0.4,1.9
		s-0.6,0.8-1,1.1s-1,0.4-1.5,0.4c-0.9,0-1.6-0.3-2.1-0.8S235.6,116.4,235.6,115.4z M236.6,115.4c0,0.8,0.2,1.4,0.5,1.8
		s0.8,0.6,1.3,0.6c0.5,0,1-0.2,1.3-0.6s0.5-1,0.5-1.8c0-0.8-0.2-1.4-0.5-1.7s-0.8-0.6-1.3-0.6c-0.5,0-1,0.2-1.3,0.6
		S236.6,114.6,236.6,115.4z"/>
	<path d="M242.6,118.5v-6.2h0.9v0.9c0.2-0.4,0.5-0.7,0.7-0.9s0.4-0.2,0.7-0.2c0.4,0,0.7,0.1,1.1,0.3l-0.4,1
		c-0.3-0.2-0.5-0.2-0.8-0.2c-0.2,0-0.4,0.1-0.6,0.2s-0.3,0.3-0.4,0.6c-0.1,0.4-0.2,0.8-0.2,1.2v3.3H242.6z"/>
	<path d="M246.6,118.5v-6.2h0.9v0.9c0.2-0.3,0.5-0.5,0.8-0.7s0.7-0.3,1.1-0.3c0.5,0,0.8,0.1,1.1,0.3s0.5,0.5,0.6,0.8
		c0.5-0.7,1.1-1.1,1.9-1.1c0.6,0,1.1,0.2,1.4,0.5s0.5,0.9,0.5,1.6v4.3h-1v-3.9c0-0.4,0-0.7-0.1-0.9s-0.2-0.3-0.4-0.4
		s-0.4-0.2-0.6-0.2c-0.4,0-0.8,0.1-1.1,0.4s-0.4,0.8-0.4,1.4v3.6h-1.1v-4c0-0.5-0.1-0.8-0.3-1.1s-0.5-0.4-0.8-0.4
		c-0.3,0-0.6,0.1-0.8,0.2s-0.4,0.4-0.5,0.7s-0.2,0.7-0.2,1.3v3.2H246.6z"/>
	<path d="M260.9,116.5l1.1,0.1c-0.2,0.6-0.5,1.1-1,1.5s-1.1,0.5-1.8,0.5c-0.9,0-1.6-0.3-2.2-0.8s-0.8-1.3-0.8-2.4
		c0-1,0.3-1.9,0.8-2.4s1.2-0.9,2.1-0.9c0.8,0,1.5,0.3,2,0.8s0.8,1.4,0.8,2.4c0,0.1,0,0.2,0,0.3h-4.6c0,0.7,0.2,1.2,0.6,1.6
		s0.8,0.5,1.3,0.5c0.4,0,0.7-0.1,1-0.3S260.7,116.9,260.9,116.5z M257.4,114.8h3.5c0-0.5-0.2-0.9-0.4-1.2c-0.3-0.4-0.8-0.6-1.3-0.6
		c-0.5,0-0.9,0.2-1.2,0.5S257.4,114.2,257.4,114.8z"/>
	<path d="M270.7,118.5v-0.8c-0.4,0.6-1,0.9-1.7,0.9c-0.5,0-1-0.1-1.4-0.4s-0.7-0.7-1-1.1s-0.3-1.1-0.3-1.7c0-0.6,0.1-1.2,0.3-1.7
		s0.5-0.9,0.9-1.2s0.9-0.4,1.4-0.4c0.4,0,0.7,0.1,1,0.2s0.5,0.4,0.7,0.6v-3.1h1v8.6H270.7z M267.3,115.4c0,0.8,0.2,1.4,0.5,1.8
		s0.7,0.6,1.2,0.6c0.5,0,0.9-0.2,1.2-0.6s0.5-1,0.5-1.7c0-0.9-0.2-1.5-0.5-1.9s-0.7-0.6-1.2-0.6c-0.5,0-0.9,0.2-1.2,0.6
		S267.3,114.6,267.3,115.4z"/>
	<path d="M277.6,116.5l1.1,0.1c-0.2,0.6-0.5,1.1-1,1.5s-1.1,0.5-1.8,0.5c-0.9,0-1.6-0.3-2.2-0.8s-0.8-1.3-0.8-2.4
		c0-1,0.3-1.9,0.8-2.4s1.2-0.9,2.1-0.9c0.8,0,1.5,0.3,2,0.8s0.8,1.4,0.8,2.4c0,0.1,0,0.2,0,0.3H274c0,0.7,0.2,1.2,0.6,1.6
		s0.8,0.5,1.3,0.5c0.4,0,0.7-0.1,1-0.3S277.4,116.9,277.6,116.5z M274.1,114.8h3.5c0-0.5-0.2-0.9-0.4-1.2c-0.3-0.4-0.8-0.6-1.3-0.6
		c-0.5,0-0.9,0.2-1.2,0.5S274.1,114.2,274.1,114.8z"/>
	<path d="M283.1,119l1,0.2c0,0.3,0.2,0.5,0.4,0.7c0.3,0.2,0.6,0.3,1.1,0.3c0.5,0,0.9-0.1,1.1-0.3s0.4-0.5,0.5-0.8
		c0.1-0.2,0.1-0.7,0.1-1.4c-0.5,0.5-1,0.8-1.7,0.8c-0.9,0-1.5-0.3-2-0.9s-0.7-1.4-0.7-2.2c0-0.6,0.1-1.1,0.3-1.6s0.5-0.9,0.9-1.2
		s0.9-0.4,1.4-0.4c0.7,0,1.3,0.3,1.8,0.9v-0.8h1v5.4c0,1-0.1,1.7-0.3,2.1s-0.5,0.7-0.9,1s-1,0.4-1.6,0.4c-0.7,0-1.3-0.2-1.8-0.5
		S283.1,119.7,283.1,119z M284,115.3c0,0.8,0.2,1.4,0.5,1.8s0.7,0.6,1.2,0.6c0.5,0,0.9-0.2,1.2-0.6s0.5-1,0.5-1.8
		c0-0.8-0.2-1.3-0.5-1.7s-0.7-0.6-1.2-0.6c-0.5,0-0.9,0.2-1.2,0.6S284,114.5,284,115.3z"/>
	<path d="M294.2,116.5l1.1,0.1c-0.2,0.6-0.5,1.1-1,1.5s-1.1,0.5-1.8,0.5c-0.9,0-1.6-0.3-2.2-0.8s-0.8-1.3-0.8-2.4
		c0-1,0.3-1.9,0.8-2.4s1.2-0.9,2.1-0.9c0.8,0,1.5,0.3,2,0.8s0.8,1.4,0.8,2.4c0,0.1,0,0.2,0,0.3h-4.6c0,0.7,0.2,1.2,0.6,1.6
		s0.8,0.5,1.3,0.5c0.4,0,0.7-0.1,1-0.3S294.1,116.9,294.2,116.5z M290.8,114.8h3.5c0-0.5-0.2-0.9-0.4-1.2c-0.3-0.4-0.8-0.6-1.3-0.6
		c-0.5,0-0.9,0.2-1.2,0.5S290.8,114.2,290.8,114.8z"/>
	<path d="M296.2,116.6l1-0.2c0.1,0.4,0.2,0.7,0.5,1s0.6,0.3,1.1,0.3c0.5,0,0.8-0.1,1.1-0.3s0.4-0.4,0.4-0.7c0-0.2-0.1-0.4-0.3-0.6
		c-0.1-0.1-0.5-0.2-1.1-0.4c-0.8-0.2-1.3-0.4-1.6-0.5s-0.5-0.3-0.7-0.6s-0.2-0.5-0.2-0.8c0-0.3,0.1-0.5,0.2-0.8s0.3-0.4,0.5-0.6
		c0.2-0.1,0.4-0.2,0.7-0.3s0.6-0.1,0.9-0.1c0.5,0,0.9,0.1,1.3,0.2s0.6,0.3,0.8,0.6s0.3,0.6,0.4,1l-1,0.1c0-0.3-0.2-0.6-0.4-0.8
		s-0.5-0.3-1-0.3c-0.5,0-0.8,0.1-1,0.2s-0.3,0.3-0.3,0.6c0,0.1,0,0.3,0.1,0.4c0.1,0.1,0.2,0.2,0.4,0.3c0.1,0,0.4,0.1,0.9,0.3
		c0.7,0.2,1.3,0.4,1.6,0.5s0.5,0.3,0.7,0.6s0.3,0.5,0.3,0.9c0,0.4-0.1,0.7-0.3,1s-0.5,0.6-0.9,0.7s-0.8,0.3-1.3,0.3
		c-0.8,0-1.4-0.2-1.8-0.5S296.3,117.3,296.2,116.6z"/>
	<path d="M305,117.6l0.2,0.9c-0.3,0.1-0.6,0.1-0.8,0.1c-0.4,0-0.7-0.1-0.9-0.2s-0.4-0.3-0.4-0.5s-0.1-0.6-0.1-1.2v-3.6h-0.8v-0.8
		h0.8v-1.5l1-0.6v2.2h1.1v0.8h-1.1v3.6c0,0.3,0,0.5,0.1,0.6s0.1,0.2,0.2,0.2s0.2,0.1,0.4,0.1C304.6,117.6,304.8,117.6,305,117.6z"/>
	<path d="M306,111.1v-1.2h1.1v1.2H306z M306,118.5v-6.2h1.1v6.2H306z"/>
	<path d="M308.3,115.4c0-1.2,0.3-2,1-2.6c0.5-0.5,1.2-0.7,2-0.7c0.9,0,1.6,0.3,2.1,0.8s0.8,1.3,0.8,2.3c0,0.8-0.1,1.4-0.4,1.9
		s-0.6,0.8-1,1.1s-1,0.4-1.5,0.4c-0.9,0-1.6-0.3-2.1-0.8S308.3,116.4,308.3,115.4z M309.3,115.4c0,0.8,0.2,1.4,0.5,1.8
		s0.8,0.6,1.3,0.6c0.5,0,1-0.2,1.3-0.6s0.5-1,0.5-1.8c0-0.8-0.2-1.4-0.5-1.7s-0.8-0.6-1.3-0.6c-0.5,0-1,0.2-1.3,0.6
		S309.3,114.6,309.3,115.4z"/>
	<path d="M315.3,118.5v-6.2h0.9v0.9c0.5-0.7,1.1-1,2-1c0.4,0,0.7,0.1,1,0.2s0.5,0.3,0.7,0.5s0.3,0.5,0.3,0.8c0,0.2,0.1,0.5,0.1,1
		v3.8h-1.1v-3.8c0-0.4,0-0.8-0.1-1s-0.2-0.4-0.4-0.5s-0.5-0.2-0.7-0.2c-0.4,0-0.8,0.1-1.2,0.4s-0.5,0.8-0.5,1.6v3.4H315.3z"/>
	<path d="M329.4,118.5v-0.8c-0.4,0.6-1,0.9-1.7,0.9c-0.5,0-1-0.1-1.4-0.4s-0.7-0.7-1-1.1s-0.3-1.1-0.3-1.7c0-0.6,0.1-1.2,0.3-1.7
		s0.5-0.9,0.9-1.2s0.9-0.4,1.4-0.4c0.4,0,0.7,0.1,1,0.2s0.5,0.4,0.7,0.6v-3.1h1v8.6H329.4z M326,115.4c0,0.8,0.2,1.4,0.5,1.8
		s0.7,0.6,1.2,0.6c0.5,0,0.9-0.2,1.2-0.6s0.5-1,0.5-1.7c0-0.9-0.2-1.5-0.5-1.9s-0.7-0.6-1.2-0.6c-0.5,0-0.9,0.2-1.2,0.6
		S326,114.6,326,115.4z"/>
	<path d="M336.3,116.5l1.1,0.1c-0.2,0.6-0.5,1.1-1,1.5s-1.1,0.5-1.8,0.5c-0.9,0-1.6-0.3-2.2-0.8s-0.8-1.3-0.8-2.4
		c0-1,0.3-1.9,0.8-2.4s1.2-0.9,2.1-0.9c0.8,0,1.5,0.3,2,0.8s0.8,1.4,0.8,2.4c0,0.1,0,0.2,0,0.3h-4.6c0,0.7,0.2,1.2,0.6,1.6
		s0.8,0.5,1.3,0.5c0.4,0,0.7-0.1,1-0.3S336.1,116.9,336.3,116.5z M332.8,114.8h3.5c0-0.5-0.2-0.9-0.4-1.2c-0.3-0.4-0.8-0.6-1.3-0.6
		c-0.5,0-0.9,0.2-1.2,0.5S332.8,114.2,332.8,114.8z"/>
	<path d="M338.3,116.6l1-0.2c0.1,0.4,0.2,0.7,0.5,1s0.6,0.3,1.1,0.3c0.5,0,0.8-0.1,1.1-0.3s0.4-0.4,0.4-0.7c0-0.2-0.1-0.4-0.3-0.6
		c-0.1-0.1-0.5-0.2-1.1-0.4c-0.8-0.2-1.3-0.4-1.6-0.5s-0.5-0.3-0.7-0.6s-0.2-0.5-0.2-0.8c0-0.3,0.1-0.5,0.2-0.8s0.3-0.4,0.5-0.6
		c0.2-0.1,0.4-0.2,0.7-0.3s0.6-0.1,0.9-0.1c0.5,0,0.9,0.1,1.3,0.2s0.6,0.3,0.8,0.6s0.3,0.6,0.4,1l-1,0.1c0-0.3-0.2-0.6-0.4-0.8
		s-0.5-0.3-1-0.3c-0.5,0-0.8,0.1-1,0.2s-0.3,0.3-0.3,0.6c0,0.1,0,0.3,0.1,0.4c0.1,0.1,0.2,0.2,0.4,0.3c0.1,0,0.4,0.1,0.9,0.3
		c0.7,0.2,1.3,0.4,1.6,0.5s0.5,0.3,0.7,0.6s0.3,0.5,0.3,0.9c0,0.4-0.1,0.7-0.3,1s-0.5,0.6-0.9,0.7s-0.8,0.3-1.3,0.3
		c-0.8,0-1.4-0.2-1.8-0.5S338.4,117.3,338.3,116.6z"/>
	<path d="M348,113l-0.3-1.6v-1.4h1.2v1.4l-0.3,1.6H348z"/>
	<path d="M354.4,117.7c-0.4,0.3-0.8,0.6-1.1,0.7s-0.7,0.2-1.2,0.2c-0.7,0-1.2-0.2-1.6-0.5s-0.6-0.8-0.6-1.3c0-0.3,0.1-0.6,0.2-0.8
		s0.3-0.5,0.5-0.6s0.5-0.3,0.8-0.3c0.2-0.1,0.5-0.1,0.9-0.2c0.9-0.1,1.5-0.2,1.9-0.4c0-0.1,0-0.2,0-0.3c0-0.4-0.1-0.7-0.3-0.9
		c-0.3-0.2-0.7-0.4-1.2-0.4c-0.5,0-0.9,0.1-1.1,0.3s-0.4,0.5-0.5,0.9l-1-0.1c0.1-0.4,0.2-0.8,0.5-1.1s0.5-0.5,0.9-0.6
		s0.9-0.2,1.4-0.2c0.5,0,1,0.1,1.3,0.2s0.6,0.3,0.7,0.5s0.3,0.4,0.3,0.7c0,0.2,0.1,0.5,0.1,1v1.4c0,1,0,1.6,0.1,1.9s0.1,0.5,0.3,0.7
		h-1.1C354.5,118.3,354.4,118,354.4,117.7z M354.3,115.4c-0.4,0.2-1,0.3-1.7,0.4c-0.4,0.1-0.7,0.1-0.9,0.2s-0.3,0.2-0.4,0.3
		s-0.1,0.3-0.1,0.5c0,0.3,0.1,0.5,0.3,0.7s0.5,0.3,0.9,0.3c0.4,0,0.8-0.1,1.1-0.3s0.5-0.4,0.7-0.7c0.1-0.2,0.2-0.6,0.2-1.1V115.4z"
		/>
	<path d="M361,116.2l1,0.1c-0.1,0.7-0.4,1.3-0.9,1.7s-1,0.6-1.7,0.6c-0.9,0-1.5-0.3-2.1-0.8s-0.8-1.4-0.8-2.4c0-0.7,0.1-1.3,0.3-1.8
		s0.6-0.9,1-1.1s1-0.4,1.5-0.4c0.7,0,1.2,0.2,1.7,0.5s0.7,0.8,0.8,1.5l-1,0.2c-0.1-0.4-0.3-0.7-0.5-0.9s-0.5-0.3-0.9-0.3
		c-0.5,0-1,0.2-1.3,0.6s-0.5,1-0.5,1.8c0,0.8,0.2,1.4,0.5,1.8s0.7,0.6,1.3,0.6c0.4,0,0.8-0.1,1-0.4S361,116.7,361,116.2z"/>
	<path d="M365.3,117.6l0.2,0.9c-0.3,0.1-0.6,0.1-0.8,0.1c-0.4,0-0.7-0.1-0.9-0.2s-0.4-0.3-0.4-0.5s-0.1-0.6-0.1-1.2v-3.6h-0.8v-0.8
		h0.8v-1.5l1-0.6v2.2h1.1v0.8h-1.1v3.6c0,0.3,0,0.5,0.1,0.6s0.1,0.2,0.2,0.2s0.2,0.1,0.4,0.1C364.9,117.6,365.1,117.6,365.3,117.6z"
		/>
	<path d="M366.3,111.1v-1.2h1.1v1.2H366.3z M366.3,118.5v-6.2h1.1v6.2H366.3z"/>
	<path d="M369.2,118.5v-5.4h-0.9v-0.8h0.9v-0.7c0-0.4,0-0.7,0.1-0.9c0.1-0.3,0.3-0.5,0.5-0.7s0.6-0.3,1.1-0.3c0.3,0,0.6,0,1,0.1
		l-0.2,0.9c-0.2,0-0.4-0.1-0.6-0.1c-0.3,0-0.5,0.1-0.7,0.2s-0.2,0.4-0.2,0.8v0.6h1.2v0.8h-1.2v5.4H369.2z"/>
	<path d="M371.9,116.6l1-0.2c0.1,0.4,0.2,0.7,0.5,1s0.6,0.3,1.1,0.3c0.5,0,0.8-0.1,1.1-0.3s0.4-0.4,0.4-0.7c0-0.2-0.1-0.4-0.3-0.6
		c-0.1-0.1-0.5-0.2-1.1-0.4c-0.8-0.2-1.3-0.4-1.6-0.5s-0.5-0.3-0.7-0.6s-0.2-0.5-0.2-0.8c0-0.3,0.1-0.5,0.2-0.8s0.3-0.4,0.5-0.6
		c0.2-0.1,0.4-0.2,0.7-0.3s0.6-0.1,0.9-0.1c0.5,0,0.9,0.1,1.3,0.2s0.6,0.3,0.8,0.6s0.3,0.6,0.4,1l-1,0.1c0-0.3-0.2-0.6-0.4-0.8
		s-0.5-0.3-1-0.3c-0.5,0-0.8,0.1-1,0.2s-0.3,0.3-0.3,0.6c0,0.1,0,0.3,0.1,0.4c0.1,0.1,0.2,0.2,0.4,0.3c0.1,0,0.4,0.1,0.9,0.3
		c0.7,0.2,1.3,0.4,1.6,0.5s0.5,0.3,0.7,0.6s0.3,0.5,0.3,0.9c0,0.4-0.1,0.7-0.3,1s-0.5,0.6-0.9,0.7s-0.8,0.3-1.3,0.3
		c-0.8,0-1.4-0.2-1.8-0.5S372,117.3,371.9,116.6z"/>
</g>
<g>
	<path d="M205.4,299.9v-8.6h3.2c0.6,0,1,0,1.3,0.1c0.4,0.1,0.8,0.2,1.1,0.4s0.5,0.5,0.7,0.8s0.3,0.7,0.3,1.2c0,0.7-0.2,1.3-0.7,1.9
		s-1.3,0.8-2.5,0.8h-2.2v3.5H205.4z M206.5,295.3h2.2c0.7,0,1.3-0.1,1.6-0.4s0.5-0.7,0.5-1.2c0-0.4-0.1-0.7-0.3-0.9
		s-0.4-0.4-0.7-0.5c-0.2-0.1-0.5-0.1-1.1-0.1h-2.2V295.3z"/>
	<path d="M213.2,299.9v-8.6h1.1v8.6H213.2z"/>
	<path d="M220,299.1c-0.4,0.3-0.8,0.6-1.1,0.7s-0.7,0.2-1.2,0.2c-0.7,0-1.2-0.2-1.6-0.5s-0.6-0.8-0.6-1.3c0-0.3,0.1-0.6,0.2-0.8
		s0.3-0.5,0.5-0.6s0.5-0.3,0.8-0.3c0.2-0.1,0.5-0.1,0.9-0.2c0.9-0.1,1.5-0.2,1.9-0.4c0-0.1,0-0.2,0-0.3c0-0.4-0.1-0.7-0.3-0.9
		c-0.3-0.2-0.7-0.4-1.2-0.4c-0.5,0-0.9,0.1-1.1,0.3s-0.4,0.5-0.5,0.9l-1-0.1c0.1-0.4,0.2-0.8,0.5-1.1s0.5-0.5,0.9-0.6
		s0.9-0.2,1.4-0.2c0.5,0,1,0.1,1.3,0.2s0.6,0.3,0.7,0.5s0.3,0.4,0.3,0.7c0,0.2,0.1,0.5,0.1,1v1.4c0,1,0,1.6,0.1,1.9s0.1,0.5,0.3,0.7
		h-1.1C220.1,299.6,220,299.4,220,299.1z M219.9,296.7c-0.4,0.2-1,0.3-1.7,0.4c-0.4,0.1-0.7,0.1-0.9,0.2s-0.3,0.2-0.4,0.3
		s-0.1,0.3-0.1,0.5c0,0.3,0.1,0.5,0.3,0.7s0.5,0.3,0.9,0.3c0.4,0,0.8-0.1,1.1-0.3s0.5-0.4,0.7-0.7c0.1-0.2,0.2-0.6,0.2-1.1V296.7z"
		/>
	<path d="M224.9,298.9l0.2,0.9c-0.3,0.1-0.6,0.1-0.8,0.1c-0.4,0-0.7-0.1-0.9-0.2s-0.4-0.3-0.4-0.5s-0.1-0.6-0.1-1.2v-3.6H222v-0.8
		h0.8v-1.5l1-0.6v2.2h1.1v0.8h-1.1v3.6c0,0.3,0,0.5,0.1,0.6s0.1,0.2,0.2,0.2s0.2,0.1,0.4,0.1C224.6,299,224.7,298.9,224.9,298.9z"/>
	<path d="M230.2,297.9l1.1,0.1c-0.2,0.6-0.5,1.1-1,1.5s-1.1,0.5-1.8,0.5c-0.9,0-1.6-0.3-2.2-0.8s-0.8-1.3-0.8-2.4
		c0-1,0.3-1.9,0.8-2.4s1.2-0.9,2.1-0.9c0.8,0,1.5,0.3,2,0.8s0.8,1.4,0.8,2.4c0,0.1,0,0.2,0,0.3h-4.6c0,0.7,0.2,1.2,0.6,1.6
		s0.8,0.5,1.3,0.5c0.4,0,0.7-0.1,1-0.3S230,298.3,230.2,297.9z M226.7,296.1h3.5c0-0.5-0.2-0.9-0.4-1.2c-0.3-0.4-0.8-0.6-1.3-0.6
		c-0.5,0-0.9,0.2-1.2,0.5S226.8,295.6,226.7,296.1z"/>
	<path d="M232.9,299.9v-5.4h-0.9v-0.8h0.9V293c0-0.4,0-0.7,0.1-0.9c0.1-0.3,0.3-0.5,0.5-0.7s0.6-0.3,1.1-0.3c0.3,0,0.6,0,1,0.1
		l-0.2,0.9c-0.2,0-0.4-0.1-0.6-0.1c-0.3,0-0.5,0.1-0.7,0.2s-0.2,0.4-0.2,0.8v0.6h1.2v0.8h-1.2v5.4H232.9z"/>
	<path d="M235.6,296.7c0-1.2,0.3-2,1-2.6c0.5-0.5,1.2-0.7,2-0.7c0.9,0,1.6,0.3,2.1,0.8s0.8,1.3,0.8,2.3c0,0.8-0.1,1.4-0.4,1.9
		s-0.6,0.8-1,1.1s-1,0.4-1.5,0.4c-0.9,0-1.6-0.3-2.1-0.8S235.6,297.8,235.6,296.7z M236.6,296.7c0,0.8,0.2,1.4,0.5,1.8
		s0.8,0.6,1.3,0.6c0.5,0,1-0.2,1.3-0.6s0.5-1,0.5-1.8c0-0.8-0.2-1.4-0.5-1.7s-0.8-0.6-1.3-0.6c-0.5,0-1,0.2-1.3,0.6
		S236.6,295.9,236.6,296.7z"/>
	<path d="M242.6,299.9v-6.2h0.9v0.9c0.2-0.4,0.5-0.7,0.7-0.9s0.4-0.2,0.7-0.2c0.4,0,0.7,0.1,1.1,0.3l-0.4,1
		c-0.3-0.2-0.5-0.2-0.8-0.2c-0.2,0-0.4,0.1-0.6,0.2s-0.3,0.3-0.4,0.6c-0.1,0.4-0.2,0.8-0.2,1.2v3.3H242.6z"/>
	<path d="M246.6,299.9v-6.2h0.9v0.9c0.2-0.3,0.5-0.5,0.8-0.7s0.7-0.3,1.1-0.3c0.5,0,0.8,0.1,1.1,0.3s0.5,0.5,0.6,0.8
		c0.5-0.7,1.1-1.1,1.9-1.1c0.6,0,1.1,0.2,1.4,0.5s0.5,0.9,0.5,1.6v4.3h-1v-3.9c0-0.4,0-0.7-0.1-0.9s-0.2-0.3-0.4-0.4
		s-0.4-0.2-0.6-0.2c-0.4,0-0.8,0.1-1.1,0.4s-0.4,0.8-0.4,1.4v3.6h-1.1v-4c0-0.5-0.1-0.8-0.3-1.1s-0.5-0.4-0.8-0.4
		c-0.3,0-0.6,0.1-0.8,0.2s-0.4,0.4-0.5,0.7s-0.2,0.7-0.2,1.3v3.2H246.6z"/>
	<path d="M260.9,297.9l1.1,0.1c-0.2,0.6-0.5,1.1-1,1.5s-1.1,0.5-1.8,0.5c-0.9,0-1.6-0.3-2.2-0.8s-0.8-1.3-0.8-2.4
		c0-1,0.3-1.9,0.8-2.4s1.2-0.9,2.1-0.9c0.8,0,1.5,0.3,2,0.8s0.8,1.4,0.8,2.4c0,0.1,0,0.2,0,0.3h-4.6c0,0.7,0.2,1.2,0.6,1.6
		s0.8,0.5,1.3,0.5c0.4,0,0.7-0.1,1-0.3S260.7,298.3,260.9,297.9z M257.4,296.1h3.5c0-0.5-0.2-0.9-0.4-1.2c-0.3-0.4-0.8-0.6-1.3-0.6
		c-0.5,0-0.9,0.2-1.2,0.5S257.4,295.6,257.4,296.1z"/>
	<path d="M270.7,299.9v-0.8c-0.4,0.6-1,0.9-1.7,0.9c-0.5,0-1-0.1-1.4-0.4s-0.7-0.7-1-1.1s-0.3-1.1-0.3-1.7c0-0.6,0.1-1.2,0.3-1.7
		s0.5-0.9,0.9-1.2s0.9-0.4,1.4-0.4c0.4,0,0.7,0.1,1,0.2s0.5,0.4,0.7,0.6v-3.1h1v8.6H270.7z M267.3,296.8c0,0.8,0.2,1.4,0.5,1.8
		s0.7,0.6,1.2,0.6c0.5,0,0.9-0.2,1.2-0.6s0.5-1,0.5-1.7c0-0.9-0.2-1.5-0.5-1.9s-0.7-0.6-1.2-0.6c-0.5,0-0.9,0.2-1.2,0.6
		S267.3,295.9,267.3,296.8z"/>
	<path d="M277.6,297.9l1.1,0.1c-0.2,0.6-0.5,1.1-1,1.5s-1.1,0.5-1.8,0.5c-0.9,0-1.6-0.3-2.2-0.8s-0.8-1.3-0.8-2.4
		c0-1,0.3-1.9,0.8-2.4s1.2-0.9,2.1-0.9c0.8,0,1.5,0.3,2,0.8s0.8,1.4,0.8,2.4c0,0.1,0,0.2,0,0.3H274c0,0.7,0.2,1.2,0.6,1.6
		s0.8,0.5,1.3,0.5c0.4,0,0.7-0.1,1-0.3S277.4,298.3,277.6,297.9z M274.1,296.1h3.5c0-0.5-0.2-0.9-0.4-1.2c-0.3-0.4-0.8-0.6-1.3-0.6
		c-0.5,0-0.9,0.2-1.2,0.5S274.1,295.6,274.1,296.1z"/>
	<path d="M283.1,300.4l1,0.2c0,0.3,0.2,0.5,0.4,0.7c0.3,0.2,0.6,0.3,1.1,0.3c0.5,0,0.9-0.1,1.1-0.3s0.4-0.5,0.5-0.8
		c0.1-0.2,0.1-0.7,0.1-1.4c-0.5,0.5-1,0.8-1.7,0.8c-0.9,0-1.5-0.3-2-0.9s-0.7-1.4-0.7-2.2c0-0.6,0.1-1.1,0.3-1.6s0.5-0.9,0.9-1.2
		s0.9-0.4,1.4-0.4c0.7,0,1.3,0.3,1.8,0.9v-0.8h1v5.4c0,1-0.1,1.7-0.3,2.1s-0.5,0.7-0.9,1s-1,0.4-1.6,0.4c-0.7,0-1.3-0.2-1.8-0.5
		S283.1,301,283.1,300.4z M284,296.6c0,0.8,0.2,1.4,0.5,1.8s0.7,0.6,1.2,0.6c0.5,0,0.9-0.2,1.2-0.6s0.5-1,0.5-1.8
		c0-0.8-0.2-1.3-0.5-1.7s-0.7-0.6-1.2-0.6c-0.5,0-0.9,0.2-1.2,0.6S284,295.9,284,296.6z"/>
	<path d="M294.2,297.9l1.1,0.1c-0.2,0.6-0.5,1.1-1,1.5s-1.1,0.5-1.8,0.5c-0.9,0-1.6-0.3-2.2-0.8s-0.8-1.3-0.8-2.4
		c0-1,0.3-1.9,0.8-2.4s1.2-0.9,2.1-0.9c0.8,0,1.5,0.3,2,0.8s0.8,1.4,0.8,2.4c0,0.1,0,0.2,0,0.3h-4.6c0,0.7,0.2,1.2,0.6,1.6
		s0.8,0.5,1.3,0.5c0.4,0,0.7-0.1,1-0.3S294.1,298.3,294.2,297.9z M290.8,296.1h3.5c0-0.5-0.2-0.9-0.4-1.2c-0.3-0.4-0.8-0.6-1.3-0.6
		c-0.5,0-0.9,0.2-1.2,0.5S290.8,295.6,290.8,296.1z"/>
	<path d="M296.2,298l1-0.2c0.1,0.4,0.2,0.7,0.5,1s0.6,0.3,1.1,0.3c0.5,0,0.8-0.1,1.1-0.3s0.4-0.4,0.4-0.7c0-0.2-0.1-0.4-0.3-0.6
		c-0.1-0.1-0.5-0.2-1.1-0.4c-0.8-0.2-1.3-0.4-1.6-0.5s-0.5-0.3-0.7-0.6s-0.2-0.5-0.2-0.8c0-0.3,0.1-0.5,0.2-0.8s0.3-0.4,0.5-0.6
		c0.2-0.1,0.4-0.2,0.7-0.3s0.6-0.1,0.9-0.1c0.5,0,0.9,0.1,1.3,0.2s0.6,0.3,0.8,0.6s0.3,0.6,0.4,1l-1,0.1c0-0.3-0.2-0.6-0.4-0.8
		s-0.5-0.3-1-0.3c-0.5,0-0.8,0.1-1,0.2s-0.3,0.3-0.3,0.6c0,0.1,0,0.3,0.1,0.4c0.1,0.1,0.2,0.2,0.4,0.3c0.1,0,0.4,0.1,0.9,0.3
		c0.7,0.2,1.3,0.4,1.6,0.5s0.5,0.3,0.7,0.6s0.3,0.5,0.3,0.9c0,0.4-0.1,0.7-0.3,1s-0.5,0.6-0.9,0.7s-0.8,0.3-1.3,0.3
		c-0.8,0-1.4-0.2-1.8-0.5S296.3,298.7,296.2,298z"/>
	<path d="M305,298.9l0.2,0.9c-0.3,0.1-0.6,0.1-0.8,0.1c-0.4,0-0.7-0.1-0.9-0.2s-0.4-0.3-0.4-0.5s-0.1-0.6-0.1-1.2v-3.6h-0.8v-0.8
		h0.8v-1.5l1-0.6v2.2h1.1v0.8h-1.1v3.6c0,0.3,0,0.5,0.1,0.6s0.1,0.2,0.2,0.2s0.2,0.1,0.4,0.1C304.6,299,304.8,298.9,305,298.9z"/>
	<path d="M306,292.5v-1.2h1.1v1.2H306z M306,299.9v-6.2h1.1v6.2H306z"/>
	<path d="M308.3,296.7c0-1.2,0.3-2,1-2.6c0.5-0.5,1.2-0.7,2-0.7c0.9,0,1.6,0.3,2.1,0.8s0.8,1.3,0.8,2.3c0,0.8-0.1,1.4-0.4,1.9
		s-0.6,0.8-1,1.1s-1,0.4-1.5,0.4c-0.9,0-1.6-0.3-2.1-0.8S308.3,297.8,308.3,296.7z M309.3,296.7c0,0.8,0.2,1.4,0.5,1.8
		s0.8,0.6,1.3,0.6c0.5,0,1-0.2,1.3-0.6s0.5-1,0.5-1.8c0-0.8-0.2-1.4-0.5-1.7s-0.8-0.6-1.3-0.6c-0.5,0-1,0.2-1.3,0.6
		S309.3,295.9,309.3,296.7z"/>
	<path d="M315.3,299.9v-6.2h0.9v0.9c0.5-0.7,1.1-1,2-1c0.4,0,0.7,0.1,1,0.2s0.5,0.3,0.7,0.5s0.3,0.5,0.3,0.8c0,0.2,0.1,0.5,0.1,1
		v3.8h-1.1v-3.8c0-0.4,0-0.8-0.1-1s-0.2-0.4-0.4-0.5s-0.5-0.2-0.7-0.2c-0.4,0-0.8,0.1-1.2,0.4s-0.5,0.8-0.5,1.6v3.4H315.3z"/>
	<path d="M329.4,299.9v-0.8c-0.4,0.6-1,0.9-1.7,0.9c-0.5,0-1-0.1-1.4-0.4s-0.7-0.7-1-1.1s-0.3-1.1-0.3-1.7c0-0.6,0.1-1.2,0.3-1.7
		s0.5-0.9,0.9-1.2s0.9-0.4,1.4-0.4c0.4,0,0.7,0.1,1,0.2s0.5,0.4,0.7,0.6v-3.1h1v8.6H329.4z M326,296.8c0,0.8,0.2,1.4,0.5,1.8
		s0.7,0.6,1.2,0.6c0.5,0,0.9-0.2,1.2-0.6s0.5-1,0.5-1.7c0-0.9-0.2-1.5-0.5-1.9s-0.7-0.6-1.2-0.6c-0.5,0-0.9,0.2-1.2,0.6
		S326,295.9,326,296.8z"/>
	<path d="M336.3,297.9l1.1,0.1c-0.2,0.6-0.5,1.1-1,1.5s-1.1,0.5-1.8,0.5c-0.9,0-1.6-0.3-2.2-0.8s-0.8-1.3-0.8-2.4
		c0-1,0.3-1.9,0.8-2.4s1.2-0.9,2.1-0.9c0.8,0,1.5,0.3,2,0.8s0.8,1.4,0.8,2.4c0,0.1,0,0.2,0,0.3h-4.6c0,0.7,0.2,1.2,0.6,1.6
		s0.8,0.5,1.3,0.5c0.4,0,0.7-0.1,1-0.3S336.1,298.3,336.3,297.9z M332.8,296.1h3.5c0-0.5-0.2-0.9-0.4-1.2c-0.3-0.4-0.8-0.6-1.3-0.6
		c-0.5,0-0.9,0.2-1.2,0.5S332.8,295.6,332.8,296.1z"/>
	<path d="M338.3,298l1-0.2c0.1,0.4,0.2,0.7,0.5,1s0.6,0.3,1.1,0.3c0.5,0,0.8-0.1,1.1-0.3s0.4-0.4,0.4-0.7c0-0.2-0.1-0.4-0.3-0.6
		c-0.1-0.1-0.5-0.2-1.1-0.4c-0.8-0.2-1.3-0.4-1.6-0.5s-0.5-0.3-0.7-0.6s-0.2-0.5-0.2-0.8c0-0.3,0.1-0.5,0.2-0.8s0.3-0.4,0.5-0.6
		c0.2-0.1,0.4-0.2,0.7-0.3s0.6-0.1,0.9-0.1c0.5,0,0.9,0.1,1.3,0.2s0.6,0.3,0.8,0.6s0.3,0.6,0.4,1l-1,0.1c0-0.3-0.2-0.6-0.4-0.8
		s-0.5-0.3-1-0.3c-0.5,0-0.8,0.1-1,0.2s-0.3,0.3-0.3,0.6c0,0.1,0,0.3,0.1,0.4c0.1,0.1,0.2,0.2,0.4,0.3c0.1,0,0.4,0.1,0.9,0.3
		c0.7,0.2,1.3,0.4,1.6,0.5s0.5,0.3,0.7,0.6s0.3,0.5,0.3,0.9c0,0.4-0.1,0.7-0.3,1s-0.5,0.6-0.9,0.7s-0.8,0.3-1.3,0.3
		c-0.8,0-1.4-0.2-1.8-0.5S338.4,298.7,338.3,298z"/>
	<path d="M348,294.3l-0.3-1.6v-1.4h1.2v1.4l-0.3,1.6H348z"/>
	<path d="M354.4,299.1c-0.4,0.3-0.8,0.6-1.1,0.7s-0.7,0.2-1.2,0.2c-0.7,0-1.2-0.2-1.6-0.5s-0.6-0.8-0.6-1.3c0-0.3,0.1-0.6,0.2-0.8
		s0.3-0.5,0.5-0.6s0.5-0.3,0.8-0.3c0.2-0.1,0.5-0.1,0.9-0.2c0.9-0.1,1.5-0.2,1.9-0.4c0-0.1,0-0.2,0-0.3c0-0.4-0.1-0.7-0.3-0.9
		c-0.3-0.2-0.7-0.4-1.2-0.4c-0.5,0-0.9,0.1-1.1,0.3s-0.4,0.5-0.5,0.9l-1-0.1c0.1-0.4,0.2-0.8,0.5-1.1s0.5-0.5,0.9-0.6
		s0.9-0.2,1.4-0.2c0.5,0,1,0.1,1.3,0.2s0.6,0.3,0.7,0.5s0.3,0.4,0.3,0.7c0,0.2,0.1,0.5,0.1,1v1.4c0,1,0,1.6,0.1,1.9s0.1,0.5,0.3,0.7
		h-1.1C354.5,299.6,354.4,299.4,354.4,299.1z M354.3,296.7c-0.4,0.2-1,0.3-1.7,0.4c-0.4,0.1-0.7,0.1-0.9,0.2s-0.3,0.2-0.4,0.3
		s-0.1,0.3-0.1,0.5c0,0.3,0.1,0.5,0.3,0.7s0.5,0.3,0.9,0.3c0.4,0,0.8-0.1,1.1-0.3s0.5-0.4,0.7-0.7c0.1-0.2,0.2-0.6,0.2-1.1V296.7z"
		/>
	<path d="M361,297.6l1,0.1c-0.1,0.7-0.4,1.3-0.9,1.7s-1,0.6-1.7,0.6c-0.9,0-1.5-0.3-2.1-0.8s-0.8-1.4-0.8-2.4c0-0.7,0.1-1.3,0.3-1.8
		s0.6-0.9,1-1.1s1-0.4,1.5-0.4c0.7,0,1.2,0.2,1.7,0.5s0.7,0.8,0.8,1.5l-1,0.2c-0.1-0.4-0.3-0.7-0.5-0.9s-0.5-0.3-0.9-0.3
		c-0.5,0-1,0.2-1.3,0.6s-0.5,1-0.5,1.8c0,0.8,0.2,1.4,0.5,1.8s0.7,0.6,1.3,0.6c0.4,0,0.8-0.1,1-0.4S361,298.1,361,297.6z"/>
	<path d="M365.3,298.9l0.2,0.9c-0.3,0.1-0.6,0.1-0.8,0.1c-0.4,0-0.7-0.1-0.9-0.2s-0.4-0.3-0.4-0.5s-0.1-0.6-0.1-1.2v-3.6h-0.8v-0.8
		h0.8v-1.5l1-0.6v2.2h1.1v0.8h-1.1v3.6c0,0.3,0,0.5,0.1,0.6s0.1,0.2,0.2,0.2s0.2,0.1,0.4,0.1C364.9,299,365.1,298.9,365.3,298.9z"/>
	<path d="M366.3,292.5v-1.2h1.1v1.2H366.3z M366.3,299.9v-6.2h1.1v6.2H366.3z"/>
	<path d="M369.2,299.9v-5.4h-0.9v-0.8h0.9V293c0-0.4,0-0.7,0.1-0.9c0.1-0.3,0.3-0.5,0.5-0.7s0.6-0.3,1.1-0.3c0.3,0,0.6,0,1,0.1
		l-0.2,0.9c-0.2,0-0.4-0.1-0.6-0.1c-0.3,0-0.5,0.1-0.7,0.2s-0.2,0.4-0.2,0.8v0.6h1.2v0.8h-1.2v5.4H369.2z"/>
	<path d="M371.9,298l1-0.2c0.1,0.4,0.2,0.7,0.5,1s0.6,0.3,1.1,0.3c0.5,0,0.8-0.1,1.1-0.3s0.4-0.4,0.4-0.7c0-0.2-0.1-0.4-0.3-0.6
		c-0.1-0.1-0.5-0.2-1.1-0.4c-0.8-0.2-1.3-0.4-1.6-0.5s-0.5-0.3-0.7-0.6s-0.2-0.5-0.2-0.8c0-0.3,0.1-0.5,0.2-0.8s0.3-0.4,0.5-0.6
		c0.2-0.1,0.4-0.2,0.7-0.3s0.6-0.1,0.9-0.1c0.5,0,0.9,0.1,1.3,0.2s0.6,0.3,0.8,0.6s0.3,0.6,0.4,1l-1,0.1c0-0.3-0.2-0.6-0.4-0.8
		s-0.5-0.3-1-0.3c-0.5,0-0.8,0.1-1,0.2s-0.3,0.3-0.3,0.6c0,0.1,0,0.3,0.1,0.4c0.1,0.1,0.2,0.2,0.4,0.3c0.1,0,0.4,0.1,0.9,0.3
		c0.7,0.2,1.3,0.4,1.6,0.5s0.5,0.3,0.7,0.6s0.3,0.5,0.3,0.9c0,0.4-0.1,0.7-0.3,1s-0.5,0.6-0.9,0.7s-0.8,0.3-1.3,0.3
		c-0.8,0-1.4-0.2-1.8-0.5S372,298.7,371.9,298z"/>
</g>
<g>
	<path d="M565.2,197.7v-8.6h3.2c0.6,0,1,0,1.3,0.1c0.4,0.1,0.8,0.2,1.1,0.4s0.5,0.5,0.7,0.8s0.3,0.7,0.3,1.2c0,0.7-0.2,1.3-0.7,1.9
		s-1.3,0.8-2.5,0.8h-2.2v3.5H565.2z M566.3,193.2h2.2c0.7,0,1.3-0.1,1.6-0.4s0.5-0.7,0.5-1.2c0-0.4-0.1-0.7-0.3-0.9
		s-0.4-0.4-0.7-0.5c-0.2-0.1-0.5-0.1-1.1-0.1h-2.2V193.2z"/>
	<path d="M573,197.7v-8.6h1.1v8.6H573z"/>
	<path d="M579.8,196.9c-0.4,0.3-0.8,0.6-1.1,0.7s-0.7,0.2-1.2,0.2c-0.7,0-1.2-0.2-1.6-0.5s-0.6-0.8-0.6-1.3c0-0.3,0.1-0.6,0.2-0.8
		s0.3-0.5,0.5-0.6s0.5-0.3,0.8-0.3c0.2-0.1,0.5-0.1,0.9-0.2c0.9-0.1,1.5-0.2,1.9-0.4c0-0.1,0-0.2,0-0.3c0-0.4-0.1-0.7-0.3-0.9
		c-0.3-0.2-0.7-0.4-1.2-0.4c-0.5,0-0.9,0.1-1.1,0.3s-0.4,0.5-0.5,0.9l-1-0.1c0.1-0.4,0.2-0.8,0.5-1.1s0.5-0.5,0.9-0.6
		s0.9-0.2,1.4-0.2c0.5,0,1,0.1,1.3,0.2s0.6,0.3,0.7,0.5s0.3,0.4,0.3,0.7c0,0.2,0.1,0.5,0.1,1v1.4c0,1,0,1.6,0.1,1.9s0.1,0.5,0.3,0.7
		H580C579.9,197.5,579.8,197.2,579.8,196.9z M579.7,194.6c-0.4,0.2-1,0.3-1.7,0.4c-0.4,0.1-0.7,0.1-0.9,0.2s-0.3,0.2-0.4,0.3
		s-0.1,0.3-0.1,0.5c0,0.3,0.1,0.5,0.3,0.7s0.5,0.3,0.9,0.3c0.4,0,0.8-0.1,1.1-0.3s0.5-0.4,0.7-0.7c0.1-0.2,0.2-0.6,0.2-1.1V194.6z"
		/>
	<path d="M584.7,196.8l0.2,0.9c-0.3,0.1-0.6,0.1-0.8,0.1c-0.4,0-0.7-0.1-0.9-0.2s-0.4-0.3-0.4-0.5s-0.1-0.6-0.1-1.2v-3.6h-0.8v-0.8
		h0.8v-1.5l1-0.6v2.2h1.1v0.8h-1.1v3.6c0,0.3,0,0.5,0.1,0.6s0.1,0.2,0.2,0.2s0.2,0.1,0.4,0.1C584.4,196.8,584.5,196.8,584.7,196.8z"
		/>
	<path d="M590,195.7l1.1,0.1c-0.2,0.6-0.5,1.1-1,1.5s-1.1,0.5-1.8,0.5c-0.9,0-1.6-0.3-2.2-0.8s-0.8-1.3-0.8-2.4c0-1,0.3-1.9,0.8-2.4
		s1.2-0.9,2.1-0.9c0.8,0,1.5,0.3,2,0.8s0.8,1.4,0.8,2.4c0,0.1,0,0.2,0,0.3h-4.6c0,0.7,0.2,1.2,0.6,1.6s0.8,0.5,1.3,0.5
		c0.4,0,0.7-0.1,1-0.3S589.8,196.1,590,195.7z M586.5,194h3.5c0-0.5-0.2-0.9-0.4-1.2c-0.3-0.4-0.8-0.6-1.3-0.6
		c-0.5,0-0.9,0.2-1.2,0.5S586.6,193.4,586.5,194z"/>
	<path d="M592.7,197.7v-5.4h-0.9v-0.8h0.9v-0.7c0-0.4,0-0.7,0.1-0.9c0.1-0.3,0.3-0.5,0.5-0.7s0.6-0.3,1.1-0.3c0.3,0,0.6,0,1,0.1
		l-0.2,0.9c-0.2,0-0.4-0.1-0.6-0.1c-0.3,0-0.5,0.1-0.7,0.2s-0.2,0.4-0.2,0.8v0.6h1.2v0.8h-1.2v5.4H592.7z"/>
	<path d="M595.4,194.6c0-1.2,0.3-2,1-2.6c0.5-0.5,1.2-0.7,2-0.7c0.9,0,1.6,0.3,2.1,0.8s0.8,1.3,0.8,2.3c0,0.8-0.1,1.4-0.4,1.9
		s-0.6,0.8-1,1.1s-1,0.4-1.5,0.4c-0.9,0-1.6-0.3-2.1-0.8S595.4,195.6,595.4,194.6z M596.4,194.6c0,0.8,0.2,1.4,0.5,1.8
		s0.8,0.6,1.3,0.6c0.5,0,1-0.2,1.3-0.6s0.5-1,0.5-1.8c0-0.8-0.2-1.4-0.5-1.7s-0.8-0.6-1.3-0.6c-0.5,0-1,0.2-1.3,0.6
		S596.4,193.8,596.4,194.6z"/>
	<path d="M602.4,197.7v-6.2h0.9v0.9c0.2-0.4,0.5-0.7,0.7-0.9s0.4-0.2,0.7-0.2c0.4,0,0.7,0.1,1.1,0.3l-0.4,1
		c-0.3-0.2-0.5-0.2-0.8-0.2c-0.2,0-0.4,0.1-0.6,0.2s-0.3,0.3-0.4,0.6c-0.1,0.4-0.2,0.8-0.2,1.2v3.3H602.4z"/>
	<path d="M606.4,197.7v-6.2h0.9v0.9c0.2-0.3,0.5-0.5,0.8-0.7s0.7-0.3,1.1-0.3c0.5,0,0.8,0.1,1.1,0.3s0.5,0.5,0.6,0.8
		c0.5-0.7,1.1-1.1,1.9-1.1c0.6,0,1.1,0.2,1.4,0.5s0.5,0.9,0.5,1.6v4.3h-1v-3.9c0-0.4,0-0.7-0.1-0.9s-0.2-0.3-0.4-0.4
		s-0.4-0.2-0.6-0.2c-0.4,0-0.8,0.1-1.1,0.4s-0.4,0.8-0.4,1.4v3.6h-1.1v-4c0-0.5-0.1-0.8-0.3-1.1s-0.5-0.4-0.8-0.4
		c-0.3,0-0.6,0.1-0.8,0.2s-0.4,0.4-0.5,0.7s-0.2,0.7-0.2,1.3v3.2H606.4z"/>
	<path d="M620.7,195.7l1.1,0.1c-0.2,0.6-0.5,1.1-1,1.5s-1.1,0.5-1.8,0.5c-0.9,0-1.6-0.3-2.2-0.8s-0.8-1.3-0.8-2.4
		c0-1,0.3-1.9,0.8-2.4s1.2-0.9,2.1-0.9c0.8,0,1.5,0.3,2,0.8s0.8,1.4,0.8,2.4c0,0.1,0,0.2,0,0.3h-4.6c0,0.7,0.2,1.2,0.6,1.6
		s0.8,0.5,1.3,0.5c0.4,0,0.7-0.1,1-0.3S620.5,196.1,620.7,195.7z M617.2,194h3.5c0-0.5-0.2-0.9-0.4-1.2c-0.3-0.4-0.8-0.6-1.3-0.6
		c-0.5,0-0.9,0.2-1.2,0.5S617.2,193.4,617.2,194z"/>
	<path d="M630.5,197.7v-0.8c-0.4,0.6-1,0.9-1.7,0.9c-0.5,0-1-0.1-1.4-0.4s-0.7-0.7-1-1.1s-0.3-1.1-0.3-1.7c0-0.6,0.1-1.2,0.3-1.7
		s0.5-0.9,0.9-1.2s0.9-0.4,1.4-0.4c0.4,0,0.7,0.1,1,0.2s0.5,0.4,0.7,0.6v-3.1h1v8.6H630.5z M627.1,194.6c0,0.8,0.2,1.4,0.5,1.8
		s0.7,0.6,1.2,0.6c0.5,0,0.9-0.2,1.2-0.6s0.5-1,0.5-1.7c0-0.9-0.2-1.5-0.5-1.9s-0.7-0.6-1.2-0.6c-0.5,0-0.9,0.2-1.2,0.6
		S627.1,193.8,627.1,194.6z"/>
	<path d="M637.4,195.7l1.1,0.1c-0.2,0.6-0.5,1.1-1,1.5s-1.1,0.5-1.8,0.5c-0.9,0-1.6-0.3-2.2-0.8s-0.8-1.3-0.8-2.4
		c0-1,0.3-1.9,0.8-2.4s1.2-0.9,2.1-0.9c0.8,0,1.5,0.3,2,0.8s0.8,1.4,0.8,2.4c0,0.1,0,0.2,0,0.3h-4.6c0,0.7,0.2,1.2,0.6,1.6
		s0.8,0.5,1.3,0.5c0.4,0,0.7-0.1,1-0.3S637.2,196.1,637.4,195.7z M633.9,194h3.5c0-0.5-0.2-0.9-0.4-1.2c-0.3-0.4-0.8-0.6-1.3-0.6
		c-0.5,0-0.9,0.2-1.2,0.5S633.9,193.4,633.9,194z"/>
	<path d="M642.9,198.2l1,0.2c0,0.3,0.2,0.5,0.4,0.7c0.3,0.2,0.6,0.3,1.1,0.3c0.5,0,0.9-0.1,1.1-0.3s0.4-0.5,0.5-0.8
		c0.1-0.2,0.1-0.7,0.1-1.4c-0.5,0.5-1,0.8-1.7,0.8c-0.9,0-1.5-0.3-2-0.9s-0.7-1.4-0.7-2.2c0-0.6,0.1-1.1,0.3-1.6s0.5-0.9,0.9-1.2
		s0.9-0.4,1.4-0.4c0.7,0,1.3,0.3,1.8,0.9v-0.8h1v5.4c0,1-0.1,1.7-0.3,2.1s-0.5,0.7-0.9,1s-1,0.4-1.6,0.4c-0.7,0-1.3-0.2-1.8-0.5
		S642.9,198.9,642.9,198.2z M643.8,194.5c0,0.8,0.2,1.4,0.5,1.8s0.7,0.6,1.2,0.6c0.5,0,0.9-0.2,1.2-0.6s0.5-1,0.5-1.8
		c0-0.8-0.2-1.3-0.5-1.7s-0.7-0.6-1.2-0.6c-0.5,0-0.9,0.2-1.2,0.6S643.8,193.7,643.8,194.5z"/>
	<path d="M654,195.7l1.1,0.1c-0.2,0.6-0.5,1.1-1,1.5s-1.1,0.5-1.8,0.5c-0.9,0-1.6-0.3-2.2-0.8s-0.8-1.3-0.8-2.4c0-1,0.3-1.9,0.8-2.4
		s1.2-0.9,2.1-0.9c0.8,0,1.5,0.3,2,0.8s0.8,1.4,0.8,2.4c0,0.1,0,0.2,0,0.3h-4.6c0,0.7,0.2,1.2,0.6,1.6s0.8,0.5,1.3,0.5
		c0.4,0,0.7-0.1,1-0.3S653.9,196.1,654,195.7z M650.6,194h3.5c0-0.5-0.2-0.9-0.4-1.2c-0.3-0.4-0.8-0.6-1.3-0.6
		c-0.5,0-0.9,0.2-1.2,0.5S650.6,193.4,650.6,194z"/>
	<path d="M656,195.8l1-0.2c0.1,0.4,0.2,0.7,0.5,1s0.6,0.3,1.1,0.3c0.5,0,0.8-0.1,1.1-0.3s0.4-0.4,0.4-0.7c0-0.2-0.1-0.4-0.3-0.6
		c-0.1-0.1-0.5-0.2-1.1-0.4c-0.8-0.2-1.3-0.4-1.6-0.5s-0.5-0.3-0.7-0.6s-0.2-0.5-0.2-0.8c0-0.3,0.1-0.5,0.2-0.8s0.3-0.4,0.5-0.6
		c0.2-0.1,0.4-0.2,0.7-0.3s0.6-0.1,0.9-0.1c0.5,0,0.9,0.1,1.3,0.2s0.6,0.3,0.8,0.6s0.3,0.6,0.4,1l-1,0.1c0-0.3-0.2-0.6-0.4-0.8
		s-0.5-0.3-1-0.3c-0.5,0-0.8,0.1-1,0.2s-0.3,0.3-0.3,0.6c0,0.1,0,0.3,0.1,0.4c0.1,0.1,0.2,0.2,0.4,0.3c0.1,0,0.4,0.1,0.9,0.3
		c0.7,0.2,1.3,0.4,1.6,0.5s0.5,0.3,0.7,0.6s0.3,0.5,0.3,0.9c0,0.4-0.1,0.7-0.3,1s-0.5,0.6-0.9,0.7s-0.8,0.3-1.3,0.3
		c-0.8,0-1.4-0.2-1.8-0.5S656.1,196.5,656,195.8z"/>
	<path d="M664.8,196.8l0.2,0.9c-0.3,0.1-0.6,0.1-0.8,0.1c-0.4,0-0.7-0.1-0.9-0.2s-0.4-0.3-0.4-0.5s-0.1-0.6-0.1-1.2v-3.6h-0.8v-0.8
		h0.8v-1.5l1-0.6v2.2h1.1v0.8h-1.1v3.6c0,0.3,0,0.5,0.1,0.6s0.1,0.2,0.2,0.2s0.2,0.1,0.4,0.1C664.4,196.8,664.6,196.8,664.8,196.8z"
		/>
	<path d="M665.8,190.3v-1.2h1.1v1.2H665.8z M665.8,197.7v-6.2h1.1v6.2H665.8z"/>
	<path d="M668.1,194.6c0-1.2,0.3-2,1-2.6c0.5-0.5,1.2-0.7,2-0.7c0.9,0,1.6,0.3,2.1,0.8s0.8,1.3,0.8,2.3c0,0.8-0.1,1.4-0.4,1.9
		s-0.6,0.8-1,1.1s-1,0.4-1.5,0.4c-0.9,0-1.6-0.3-2.1-0.8S668.1,195.6,668.1,194.6z M669.1,194.6c0,0.8,0.2,1.4,0.5,1.8
		s0.8,0.6,1.3,0.6c0.5,0,1-0.2,1.3-0.6s0.5-1,0.5-1.8c0-0.8-0.2-1.4-0.5-1.7s-0.8-0.6-1.3-0.6c-0.5,0-1,0.2-1.3,0.6
		S669.1,193.8,669.1,194.6z"/>
	<path d="M675.1,197.7v-6.2h0.9v0.9c0.5-0.7,1.1-1,2-1c0.4,0,0.7,0.1,1,0.2s0.5,0.3,0.7,0.5s0.3,0.5,0.3,0.8c0,0.2,0.1,0.5,0.1,1
		v3.8h-1.1v-3.8c0-0.4,0-0.8-0.1-1s-0.2-0.4-0.4-0.5s-0.5-0.2-0.7-0.2c-0.4,0-0.8,0.1-1.2,0.4s-0.5,0.8-0.5,1.6v3.4H675.1z"/>
	<path d="M689.2,197.7v-0.8c-0.4,0.6-1,0.9-1.7,0.9c-0.5,0-1-0.1-1.4-0.4s-0.7-0.7-1-1.1s-0.3-1.1-0.3-1.7c0-0.6,0.1-1.2,0.3-1.7
		s0.5-0.9,0.9-1.2s0.9-0.4,1.4-0.4c0.4,0,0.7,0.1,1,0.2s0.5,0.4,0.7,0.6v-3.1h1v8.6H689.2z M685.8,194.6c0,0.8,0.2,1.4,0.5,1.8
		s0.7,0.6,1.2,0.6c0.5,0,0.9-0.2,1.2-0.6s0.5-1,0.5-1.7c0-0.9-0.2-1.5-0.5-1.9s-0.7-0.6-1.2-0.6c-0.5,0-0.9,0.2-1.2,0.6
		S685.8,193.8,685.8,194.6z"/>
	<path d="M696.1,195.7l1.1,0.1c-0.2,0.6-0.5,1.1-1,1.5s-1.1,0.5-1.8,0.5c-0.9,0-1.6-0.3-2.2-0.8s-0.8-1.3-0.8-2.4
		c0-1,0.3-1.9,0.8-2.4s1.2-0.9,2.1-0.9c0.8,0,1.5,0.3,2,0.8s0.8,1.4,0.8,2.4c0,0.1,0,0.2,0,0.3h-4.6c0,0.7,0.2,1.2,0.6,1.6
		s0.8,0.5,1.3,0.5c0.4,0,0.7-0.1,1-0.3S695.9,196.1,696.1,195.7z M692.6,194h3.5c0-0.5-0.2-0.9-0.4-1.2c-0.3-0.4-0.8-0.6-1.3-0.6
		c-0.5,0-0.9,0.2-1.2,0.5S692.6,193.4,692.6,194z"/>
	<path d="M698.1,195.8l1-0.2c0.1,0.4,0.2,0.7,0.5,1s0.6,0.3,1.1,0.3c0.5,0,0.8-0.1,1.1-0.3s0.4-0.4,0.4-0.7c0-0.2-0.1-0.4-0.3-0.6
		c-0.1-0.1-0.5-0.2-1.1-0.4c-0.8-0.2-1.3-0.4-1.6-0.5s-0.5-0.3-0.7-0.6s-0.2-0.5-0.2-0.8c0-0.3,0.1-0.5,0.2-0.8s0.3-0.4,0.5-0.6
		c0.2-0.1,0.4-0.2,0.7-0.3s0.6-0.1,0.9-0.1c0.5,0,0.9,0.1,1.3,0.2s0.6,0.3,0.8,0.6s0.3,0.6,0.4,1l-1,0.1c0-0.3-0.2-0.6-0.4-0.8
		s-0.5-0.3-1-0.3c-0.5,0-0.8,0.1-1,0.2s-0.3,0.3-0.3,0.6c0,0.1,0,0.3,0.1,0.4c0.1,0.1,0.2,0.2,0.4,0.3c0.1,0,0.4,0.1,0.9,0.3
		c0.7,0.2,1.3,0.4,1.6,0.5s0.5,0.3,0.7,0.6s0.3,0.5,0.3,0.9c0,0.4-0.1,0.7-0.3,1s-0.5,0.6-0.9,0.7s-0.8,0.3-1.3,0.3
		c-0.8,0-1.4-0.2-1.8-0.5S698.2,196.5,698.1,195.8z"/>
	<path d="M707.8,192.2l-0.3-1.6v-1.4h1.2v1.4l-0.3,1.6H707.8z"/>
	<path d="M714.2,196.9c-0.4,0.3-0.8,0.6-1.1,0.7s-0.7,0.2-1.2,0.2c-0.7,0-1.2-0.2-1.6-0.5s-0.6-0.8-0.6-1.3c0-0.3,0.1-0.6,0.2-0.8
		s0.3-0.5,0.5-0.6s0.5-0.3,0.8-0.3c0.2-0.1,0.5-0.1,0.9-0.2c0.9-0.1,1.5-0.2,1.9-0.4c0-0.1,0-0.2,0-0.3c0-0.4-0.1-0.7-0.3-0.9
		c-0.3-0.2-0.7-0.4-1.2-0.4c-0.5,0-0.9,0.1-1.1,0.3s-0.4,0.5-0.5,0.9l-1-0.1c0.1-0.4,0.2-0.8,0.5-1.1s0.5-0.5,0.9-0.6
		s0.9-0.2,1.4-0.2c0.5,0,1,0.1,1.3,0.2s0.6,0.3,0.7,0.5s0.3,0.4,0.3,0.7c0,0.2,0.1,0.5,0.1,1v1.4c0,1,0,1.6,0.1,1.9s0.1,0.5,0.3,0.7
		h-1.1C714.3,197.5,714.2,197.2,714.2,196.9z M714.1,194.6c-0.4,0.2-1,0.3-1.7,0.4c-0.4,0.1-0.7,0.1-0.9,0.2s-0.3,0.2-0.4,0.3
		s-0.1,0.3-0.1,0.5c0,0.3,0.1,0.5,0.3,0.7s0.5,0.3,0.9,0.3c0.4,0,0.8-0.1,1.1-0.3s0.5-0.4,0.7-0.7c0.1-0.2,0.2-0.6,0.2-1.1V194.6z"
		/>
	<path d="M720.8,195.4l1,0.1c-0.1,0.7-0.4,1.3-0.9,1.7s-1,0.6-1.7,0.6c-0.9,0-1.5-0.3-2.1-0.8s-0.8-1.4-0.8-2.4
		c0-0.7,0.1-1.3,0.3-1.8s0.6-0.9,1-1.1s1-0.4,1.5-0.4c0.7,0,1.2,0.2,1.7,0.5s0.7,0.8,0.8,1.5l-1,0.2c-0.1-0.4-0.3-0.7-0.5-0.9
		s-0.5-0.3-0.9-0.3c-0.5,0-1,0.2-1.3,0.6s-0.5,1-0.5,1.8c0,0.8,0.2,1.4,0.5,1.8s0.7,0.6,1.3,0.6c0.4,0,0.8-0.1,1-0.4
		S720.8,195.9,720.8,195.4z"/>
	<path d="M725.1,196.8l0.2,0.9c-0.3,0.1-0.6,0.1-0.8,0.1c-0.4,0-0.7-0.1-0.9-0.2s-0.4-0.3-0.4-0.5s-0.1-0.6-0.1-1.2v-3.6h-0.8v-0.8
		h0.8v-1.5l1-0.6v2.2h1.1v0.8H724v3.6c0,0.3,0,0.5,0.1,0.6s0.1,0.2,0.2,0.2s0.2,0.1,0.4,0.1C724.7,196.8,724.9,196.8,725.1,196.8z"
		/>
	<path d="M726.1,190.3v-1.2h1.1v1.2H726.1z M726.1,197.7v-6.2h1.1v6.2H726.1z"/>
	<path d="M729,197.7v-5.4h-0.9v-0.8h0.9v-0.7c0-0.4,0-0.7,0.1-0.9c0.1-0.3,0.3-0.5,0.5-0.7s0.6-0.3,1.1-0.3c0.3,0,0.6,0,1,0.1
		l-0.2,0.9c-0.2,0-0.4-0.1-0.6-0.1c-0.3,0-0.5,0.1-0.7,0.2s-0.2,0.4-0.2,0.8v0.6h1.2v0.8h-1.2v5.4H729z"/>
	<path d="M731.7,195.8l1-0.2c0.1,0.4,0.2,0.7,0.5,1s0.6,0.3,1.1,0.3c0.5,0,0.8-0.1,1.1-0.3s0.4-0.4,0.4-0.7c0-0.2-0.1-0.4-0.3-0.6
		c-0.1-0.1-0.5-0.2-1.1-0.4c-0.8-0.2-1.3-0.4-1.6-0.5s-0.5-0.3-0.7-0.6s-0.2-0.5-0.2-0.8c0-0.3,0.1-0.5,0.2-0.8s0.3-0.4,0.5-0.6
		c0.2-0.1,0.4-0.2,0.7-0.3s0.6-0.1,0.9-0.1c0.5,0,0.9,0.1,1.3,0.2s0.6,0.3,0.8,0.6s0.3,0.6,0.4,1l-1,0.1c0-0.3-0.2-0.6-0.4-0.8
		s-0.5-0.3-1-0.3c-0.5,0-0.8,0.1-1,0.2s-0.3,0.3-0.3,0.6c0,0.1,0,0.3,0.1,0.4c0.1,0.1,0.2,0.2,0.4,0.3c0.1,0,0.4,0.1,0.9,0.3
		c0.7,0.2,1.3,0.4,1.6,0.5s0.5,0.3,0.7,0.6s0.3,0.5,0.3,0.9c0,0.4-0.1,0.7-0.3,1s-0.5,0.6-0.9,0.7s-0.8,0.3-1.3,0.3
		c-0.8,0-1.4-0.2-1.8-0.5S731.8,196.5,731.7,195.8z"/>
</g>
<g>
	<path d="M841.6,194.9l1.1-0.1c0.1,0.4,0.2,0.8,0.4,1.1s0.5,0.5,0.9,0.7s0.8,0.3,1.3,0.3c0.4,0,0.8-0.1,1.1-0.2s0.6-0.3,0.7-0.5
		s0.2-0.5,0.2-0.7c0-0.3-0.1-0.5-0.2-0.7s-0.4-0.4-0.8-0.5c-0.2-0.1-0.7-0.2-1.5-0.4s-1.3-0.4-1.7-0.5c-0.4-0.2-0.7-0.5-0.9-0.8
		s-0.3-0.7-0.3-1.1c0-0.4,0.1-0.8,0.4-1.2s0.6-0.7,1.1-0.9s1-0.3,1.6-0.3c0.6,0,1.2,0.1,1.7,0.3s0.9,0.5,1.1,0.9s0.4,0.8,0.4,1.4
		l-1.1,0.1c-0.1-0.5-0.3-1-0.6-1.2s-0.8-0.4-1.5-0.4c-0.7,0-1.2,0.1-1.5,0.4s-0.5,0.6-0.5,0.9c0,0.3,0.1,0.6,0.3,0.8
		c0.2,0.2,0.8,0.4,1.7,0.6s1.6,0.4,1.9,0.5c0.5,0.2,0.9,0.5,1.1,0.9s0.4,0.8,0.4,1.2c0,0.5-0.1,0.9-0.4,1.3s-0.6,0.7-1.1,0.9
		s-1,0.3-1.7,0.3c-0.8,0-1.4-0.1-2-0.3s-0.9-0.6-1.2-1S841.6,195.5,841.6,194.9z"/>
	<path d="M854,197.7v-0.9c-0.5,0.7-1.1,1.1-2,1.1c-0.4,0-0.7-0.1-1-0.2s-0.6-0.3-0.7-0.5s-0.3-0.5-0.3-0.8c0-0.2-0.1-0.5-0.1-1v-3.9
		h1.1v3.5c0,0.6,0,0.9,0.1,1.1c0.1,0.3,0.2,0.5,0.4,0.7s0.5,0.2,0.8,0.2s0.6-0.1,0.9-0.2s0.5-0.4,0.6-0.7s0.2-0.7,0.2-1.2v-3.3h1.1
		v6.2H854z"/>
	<path d="M856.5,197.7v-6.2h0.9v0.9c0.2-0.4,0.5-0.7,0.7-0.9s0.4-0.2,0.7-0.2c0.4,0,0.7,0.1,1.1,0.3l-0.4,1
		c-0.3-0.2-0.5-0.2-0.8-0.2c-0.2,0-0.4,0.1-0.6,0.2s-0.3,0.3-0.4,0.6c-0.1,0.4-0.2,0.8-0.2,1.2v3.3H856.5z"/>
	<path d="M862.3,197.7l-2.4-6.2h1.1l1.3,3.7c0.1,0.4,0.3,0.8,0.4,1.3c0.1-0.3,0.2-0.7,0.4-1.2l1.4-3.8h1.1l-2.4,6.2H862.3z"/>
	<path d="M870.8,195.7l1.1,0.1c-0.2,0.6-0.5,1.1-1,1.5s-1.1,0.5-1.8,0.5c-0.9,0-1.6-0.3-2.2-0.8s-0.8-1.3-0.8-2.4
		c0-1,0.3-1.9,0.8-2.4s1.2-0.9,2.1-0.9c0.8,0,1.5,0.3,2,0.8s0.8,1.4,0.8,2.4c0,0.1,0,0.2,0,0.3h-4.6c0,0.7,0.2,1.2,0.6,1.6
		s0.8,0.5,1.3,0.5c0.4,0,0.7-0.1,1-0.3S870.7,196.1,870.8,195.7z M867.4,194h3.5c0-0.5-0.2-0.9-0.4-1.2c-0.3-0.4-0.8-0.6-1.3-0.6
		c-0.5,0-0.9,0.2-1.2,0.5S867.4,193.4,867.4,194z"/>
	<path d="M873.2,190.3v-1.2h1.1v1.2H873.2z M873.2,197.7v-6.2h1.1v6.2H873.2z"/>
	<path d="M875.9,197.7v-8.6h1.1v8.6H875.9z"/>
	<path d="M878.5,197.7v-8.6h1.1v8.6H878.5z"/>
	<path d="M885.3,196.9c-0.4,0.3-0.8,0.6-1.1,0.7s-0.7,0.2-1.2,0.2c-0.7,0-1.2-0.2-1.6-0.5s-0.6-0.8-0.6-1.3c0-0.3,0.1-0.6,0.2-0.8
		s0.3-0.5,0.5-0.6s0.5-0.3,0.8-0.3c0.2-0.1,0.5-0.1,0.9-0.2c0.9-0.1,1.5-0.2,1.9-0.4c0-0.1,0-0.2,0-0.3c0-0.4-0.1-0.7-0.3-0.9
		c-0.3-0.2-0.7-0.4-1.2-0.4c-0.5,0-0.9,0.1-1.1,0.3s-0.4,0.5-0.5,0.9l-1-0.1c0.1-0.4,0.2-0.8,0.5-1.1s0.5-0.5,0.9-0.6
		s0.9-0.2,1.4-0.2c0.5,0,1,0.1,1.3,0.2s0.6,0.3,0.7,0.5s0.3,0.4,0.3,0.7c0,0.2,0.1,0.5,0.1,1v1.4c0,1,0,1.6,0.1,1.9s0.1,0.5,0.3,0.7
		h-1.1C885.4,197.5,885.3,197.2,885.3,196.9z M885.2,194.6c-0.4,0.2-1,0.3-1.7,0.4c-0.4,0.1-0.7,0.1-0.9,0.2s-0.3,0.2-0.4,0.3
		s-0.1,0.3-0.1,0.5c0,0.3,0.1,0.5,0.3,0.7s0.5,0.3,0.9,0.3c0.4,0,0.8-0.1,1.1-0.3s0.5-0.4,0.7-0.7c0.1-0.2,0.2-0.6,0.2-1.1V194.6z"
		/>
	<path d="M887.9,197.7v-6.2h0.9v0.9c0.5-0.7,1.1-1,2-1c0.4,0,0.7,0.1,1,0.2s0.5,0.3,0.7,0.5s0.3,0.5,0.3,0.8c0,0.2,0.1,0.5,0.1,1
		v3.8h-1.1v-3.8c0-0.4,0-0.8-0.1-1s-0.2-0.4-0.4-0.5s-0.5-0.2-0.7-0.2c-0.4,0-0.8,0.1-1.2,0.4s-0.5,0.8-0.5,1.6v3.4H887.9z"/>
	<path d="M898.6,195.4l1,0.1c-0.1,0.7-0.4,1.3-0.9,1.7s-1,0.6-1.7,0.6c-0.9,0-1.5-0.3-2.1-0.8s-0.8-1.4-0.8-2.4
		c0-0.7,0.1-1.3,0.3-1.8s0.6-0.9,1-1.1s1-0.4,1.5-0.4c0.7,0,1.2,0.2,1.7,0.5s0.7,0.8,0.8,1.5l-1,0.2c-0.1-0.4-0.3-0.7-0.5-0.9
		s-0.5-0.3-0.9-0.3c-0.5,0-1,0.2-1.3,0.6s-0.5,1-0.5,1.8c0,0.8,0.2,1.4,0.5,1.8s0.7,0.6,1.3,0.6c0.4,0,0.8-0.1,1-0.4
		S898.6,195.9,898.6,195.4z"/>
	<path d="M904.8,195.7l1.1,0.1c-0.2,0.6-0.5,1.1-1,1.5s-1.1,0.5-1.8,0.5c-0.9,0-1.6-0.3-2.2-0.8s-0.8-1.3-0.8-2.4
		c0-1,0.3-1.9,0.8-2.4s1.2-0.9,2.1-0.9c0.8,0,1.5,0.3,2,0.8s0.8,1.4,0.8,2.4c0,0.1,0,0.2,0,0.3h-4.6c0,0.7,0.2,1.2,0.6,1.6
		s0.8,0.5,1.3,0.5c0.4,0,0.7-0.1,1-0.3S904.7,196.1,904.8,195.7z M901.4,194h3.5c0-0.5-0.2-0.9-0.4-1.2c-0.3-0.4-0.8-0.6-1.3-0.6
		c-0.5,0-0.9,0.2-1.2,0.5S901.4,193.4,901.4,194z"/>
	<path d="M910.6,200.1v-8.6h1v0.8c0.2-0.3,0.5-0.6,0.8-0.7s0.6-0.2,1-0.2c0.5,0,1,0.1,1.4,0.4s0.7,0.7,0.9,1.2s0.3,1,0.3,1.6
		c0,0.6-0.1,1.2-0.3,1.7s-0.6,0.9-1,1.2s-0.9,0.4-1.4,0.4c-0.4,0-0.7-0.1-0.9-0.2s-0.5-0.3-0.7-0.6v3H910.6z M911.5,194.6
		c0,0.8,0.2,1.4,0.5,1.8s0.7,0.6,1.2,0.6c0.5,0,0.9-0.2,1.2-0.6s0.5-1,0.5-1.8c0-0.8-0.2-1.4-0.5-1.8s-0.7-0.6-1.2-0.6
		c-0.4,0-0.8,0.2-1.2,0.6S911.5,193.8,911.5,194.6z"/>
	<path d="M921.3,196.9c-0.4,0.3-0.8,0.6-1.1,0.7s-0.7,0.2-1.2,0.2c-0.7,0-1.2-0.2-1.6-0.5s-0.6-0.8-0.6-1.3c0-0.3,0.1-0.6,0.2-0.8
		s0.3-0.5,0.5-0.6s0.5-0.3,0.8-0.3c0.2-0.1,0.5-0.1,0.9-0.2c0.9-0.1,1.5-0.2,1.9-0.4c0-0.1,0-0.2,0-0.3c0-0.4-0.1-0.7-0.3-0.9
		c-0.3-0.2-0.7-0.4-1.2-0.4c-0.5,0-0.9,0.1-1.1,0.3s-0.4,0.5-0.5,0.9l-1-0.1c0.1-0.4,0.2-0.8,0.5-1.1s0.5-0.5,0.9-0.6
		s0.9-0.2,1.4-0.2c0.5,0,1,0.1,1.3,0.2s0.6,0.3,0.7,0.5s0.3,0.4,0.3,0.7c0,0.2,0.1,0.5,0.1,1v1.4c0,1,0,1.6,0.1,1.9s0.1,0.5,0.3,0.7
		h-1.1C921.4,197.5,921.3,197.2,921.3,196.9z M921.2,194.6c-0.4,0.2-1,0.3-1.7,0.4c-0.4,0.1-0.7,0.1-0.9,0.2s-0.3,0.2-0.4,0.3
		s-0.1,0.3-0.1,0.5c0,0.3,0.1,0.5,0.3,0.7s0.5,0.3,0.9,0.3c0.4,0,0.8-0.1,1.1-0.3s0.5-0.4,0.7-0.7c0.1-0.2,0.2-0.6,0.2-1.1V194.6z"
		/>
	<path d="M923.9,197.7v-6.2h0.9v0.9c0.2-0.4,0.5-0.7,0.7-0.9s0.4-0.2,0.7-0.2c0.4,0,0.7,0.1,1.1,0.3l-0.4,1
		c-0.3-0.2-0.5-0.2-0.8-0.2c-0.2,0-0.4,0.1-0.6,0.2s-0.3,0.3-0.4,0.6c-0.1,0.4-0.2,0.8-0.2,1.2v3.3H923.9z"/>
	<path d="M931.5,197.7v-8.6h5.8v1h-4.7v2.7h4v1h-4v3.9H931.5z"/>
	<path d="M944.9,194.7l1.1,0.3c-0.2,0.9-0.7,1.6-1.3,2.1s-1.4,0.7-2.3,0.7c-0.9,0-1.7-0.2-2.3-0.6s-1-0.9-1.3-1.6s-0.5-1.5-0.5-2.3
		c0-0.9,0.2-1.7,0.5-2.3s0.8-1.2,1.5-1.5s1.3-0.5,2.1-0.5c0.9,0,1.6,0.2,2.2,0.7s1,1.1,1.2,1.8l-1.1,0.3c-0.2-0.6-0.5-1.1-0.9-1.4
		s-0.9-0.4-1.4-0.4c-0.7,0-1.2,0.2-1.7,0.5s-0.8,0.7-0.9,1.3s-0.3,1.1-0.3,1.6c0,0.7,0.1,1.4,0.3,1.9s0.5,1,1,1.2s0.9,0.4,1.5,0.4
		c0.6,0,1.2-0.2,1.6-0.6S944.7,195.4,944.9,194.7z"/>
	<path d="M946.4,197.7l3.3-8.6h1.2l3.5,8.6h-1.3l-1-2.6h-3.6l-0.9,2.6H946.4z M948.9,194.2h2.9l-0.9-2.4c-0.3-0.7-0.5-1.3-0.6-1.8
		c-0.1,0.6-0.3,1.1-0.5,1.6L948.9,194.2z"/>
	<path d="M857.8,212.1l3.3-8.6h1.2l3.5,8.6h-1.3l-1-2.6h-3.6l-0.9,2.6H857.8z M860.2,208.6h2.9l-0.9-2.4c-0.3-0.7-0.5-1.3-0.6-1.8
		c-0.1,0.6-0.3,1.1-0.5,1.6L860.2,208.6z"/>
	<path d="M870.6,212.1v-0.9c-0.5,0.7-1.1,1.1-2,1.1c-0.4,0-0.7-0.1-1-0.2s-0.6-0.3-0.7-0.5s-0.3-0.5-0.3-0.8c0-0.2-0.1-0.5-0.1-1
		v-3.9h1.1v3.5c0,0.6,0,0.9,0.1,1.1c0.1,0.3,0.2,0.5,0.4,0.7s0.5,0.2,0.8,0.2s0.6-0.1,0.9-0.2s0.5-0.4,0.6-0.7s0.2-0.7,0.2-1.2v-3.3
		h1.1v6.2H870.6z"/>
	<path d="M877.3,212.1v-0.8c-0.4,0.6-1,0.9-1.7,0.9c-0.5,0-1-0.1-1.4-0.4s-0.7-0.7-1-1.1s-0.3-1.1-0.3-1.7c0-0.6,0.1-1.2,0.3-1.7
		s0.5-0.9,0.9-1.2s0.9-0.4,1.4-0.4c0.4,0,0.7,0.1,1,0.2s0.5,0.4,0.7,0.6v-3.1h1v8.6H877.3z M873.9,209c0,0.8,0.2,1.4,0.5,1.8
		s0.7,0.6,1.2,0.6c0.5,0,0.9-0.2,1.2-0.6s0.5-1,0.5-1.7c0-0.9-0.2-1.5-0.5-1.9s-0.7-0.6-1.2-0.6c-0.5,0-0.9,0.2-1.2,0.6
		S873.9,208.2,873.9,209z"/>
	<path d="M879.9,204.7v-1.2h1.1v1.2H879.9z M879.9,212.1v-6.2h1.1v6.2H879.9z"/>
	<path d="M884.9,211.2l0.2,0.9c-0.3,0.1-0.6,0.1-0.8,0.1c-0.4,0-0.7-0.1-0.9-0.2s-0.4-0.3-0.4-0.5s-0.1-0.6-0.1-1.2v-3.6H882v-0.8
		h0.8v-1.5l1-0.6v2.2h1.1v0.8h-1.1v3.6c0,0.3,0,0.5,0.1,0.6s0.1,0.2,0.2,0.2s0.2,0.1,0.4,0.1C884.5,211.2,884.7,211.2,884.9,211.2z"
		/>
	<path d="M889.2,214.5v-8.6h1v0.8c0.2-0.3,0.5-0.6,0.8-0.7s0.6-0.2,1-0.2c0.5,0,1,0.1,1.4,0.4s0.7,0.7,0.9,1.2s0.3,1,0.3,1.6
		c0,0.6-0.1,1.2-0.3,1.7s-0.6,0.9-1,1.2s-0.9,0.4-1.4,0.4c-0.4,0-0.7-0.1-0.9-0.2s-0.5-0.3-0.7-0.6v3H889.2z M890.2,209
		c0,0.8,0.2,1.4,0.5,1.8s0.7,0.6,1.2,0.6c0.5,0,0.9-0.2,1.2-0.6s0.5-1,0.5-1.8c0-0.8-0.2-1.4-0.5-1.8s-0.7-0.6-1.2-0.6
		c-0.4,0-0.8,0.2-1.2,0.6S890.2,208.2,890.2,209z"/>
	<path d="M900,211.3c-0.4,0.3-0.8,0.6-1.1,0.7s-0.7,0.2-1.2,0.2c-0.7,0-1.2-0.2-1.6-0.5s-0.6-0.8-0.6-1.3c0-0.3,0.1-0.6,0.2-0.8
		s0.3-0.5,0.5-0.6s0.5-0.3,0.8-0.3c0.2-0.1,0.5-0.1,0.9-0.2c0.9-0.1,1.5-0.2,1.9-0.4c0-0.1,0-0.2,0-0.3c0-0.4-0.1-0.7-0.3-0.9
		c-0.3-0.2-0.7-0.4-1.2-0.4c-0.5,0-0.9,0.1-1.1,0.3s-0.4,0.5-0.5,0.9l-1-0.1c0.1-0.4,0.2-0.8,0.5-1.1s0.5-0.5,0.9-0.6
		s0.9-0.2,1.4-0.2c0.5,0,1,0.1,1.3,0.2s0.6,0.3,0.7,0.5s0.3,0.4,0.3,0.7c0,0.2,0.1,0.5,0.1,1v1.4c0,1,0,1.6,0.1,1.9s0.1,0.5,0.3,0.7
		h-1.1C900.1,211.9,900,211.6,900,211.3z M899.9,209c-0.4,0.2-1,0.3-1.7,0.4c-0.4,0.1-0.7,0.1-0.9,0.2s-0.3,0.2-0.4,0.3
		s-0.1,0.3-0.1,0.5c0,0.3,0.1,0.5,0.3,0.7s0.5,0.3,0.9,0.3c0.4,0,0.8-0.1,1.1-0.3s0.5-0.4,0.7-0.7c0.1-0.2,0.2-0.6,0.2-1.1V209z"/>
	<path d="M902.6,212.1v-6.2h0.9v0.9c0.2-0.4,0.5-0.7,0.7-0.9s0.4-0.2,0.7-0.2c0.4,0,0.7,0.1,1.1,0.3l-0.4,1
		c-0.3-0.2-0.5-0.2-0.8-0.2c-0.2,0-0.4,0.1-0.6,0.2s-0.3,0.3-0.4,0.6c-0.1,0.4-0.2,0.8-0.2,1.2v3.3H902.6z"/>
	<path d="M910.1,212.1v-8.6h3.2c0.6,0,1,0,1.3,0.1c0.4,0.1,0.8,0.2,1.1,0.4s0.5,0.5,0.7,0.8s0.3,0.7,0.3,1.2c0,0.7-0.2,1.3-0.7,1.9
		s-1.3,0.8-2.5,0.8h-2.2v3.5H910.1z M911.2,207.6h2.2c0.7,0,1.3-0.1,1.6-0.4s0.5-0.7,0.5-1.2c0-0.4-0.1-0.7-0.3-0.9
		s-0.4-0.4-0.7-0.5c-0.2-0.1-0.5-0.1-1.1-0.1h-2.2V207.6z"/>
	<path d="M919.6,212.1l-2.3-8.6h1.2l1.3,5.6c0.1,0.6,0.3,1.2,0.4,1.8c0.2-0.9,0.3-1.4,0.4-1.6l1.6-5.8h1.4l1.2,4.3
		c0.3,1.1,0.5,2.1,0.7,3c0.1-0.5,0.3-1.2,0.4-1.9l1.3-5.5h1.1l-2.4,8.6h-1.1l-1.8-6.5c-0.2-0.5-0.2-0.9-0.3-1
		c-0.1,0.4-0.2,0.7-0.3,1l-1.8,6.5H919.6z"/>
	<path d="M935.5,209.1l1.1,0.3c-0.2,0.9-0.7,1.6-1.3,2.1s-1.4,0.7-2.3,0.7c-0.9,0-1.7-0.2-2.3-0.6s-1-0.9-1.3-1.6s-0.5-1.5-0.5-2.3
		c0-0.9,0.2-1.7,0.5-2.3s0.8-1.2,1.5-1.5s1.3-0.5,2.1-0.5c0.9,0,1.6,0.2,2.2,0.7s1,1.1,1.2,1.8l-1.1,0.3c-0.2-0.6-0.5-1.1-0.9-1.4
		s-0.9-0.4-1.4-0.4c-0.7,0-1.2,0.2-1.7,0.5s-0.8,0.7-0.9,1.3s-0.3,1.1-0.3,1.6c0,0.7,0.1,1.4,0.3,1.9s0.5,1,1,1.2s0.9,0.4,1.5,0.4
		c0.6,0,1.2-0.2,1.6-0.6S935.4,209.8,935.5,209.1z"/>
</g>
</svg>
