<?xml version="1.0" encoding="utf-8"?>
<!-- Generator: Adobe Illustrator 22.1.0, SVG Export Plug-In . SVG Version: 6.00 Build 0)  -->
<svg version="1.1" id="图层_1" xmlns="http://www.w3.org/2000/svg" xmlns:xlink="http://www.w3.org/1999/xlink" x="0px" y="0px"
	 viewBox="0 0 63 63" style="enable-background:new 0 0 63 63;" xml:space="preserve">
<style type="text/css">
	.st0{fill:#CDCCCC;}
</style>
<g>
	<polygon id="XMLID_63_" class="st0" points="33.9,22.1 37.4,22.1 37.4,16.8 46.2,16.8 46.2,45.5 37.5,45.5 37.5,37.4 43.2,37.4 
		43.2,25.2 19.3,25.2 19.3,37.4 24.9,37.4 24.9,45.5 16.2,45.5 16.2,16.8 25,16.8 25,22.1 28.6,22.1 28.6,13.1 12.5,13.1 12.5,49.2 
		28.6,49.2 28.6,33.8 23,33.8 23,28.8 39.4,28.8 39.4,33.8 33.9,33.8 33.9,49.1 49.9,49.1 49.9,13.1 33.9,13.1 	"/>
	<path id="XMLID_60_" class="st0" d="M31.5,63C14.1,63,0,48.9,0,31.5S14.1,0,31.5,0S63,14.1,63,31.5C63,48.9,48.9,63,31.5,63
		 M31.5,2.7c-16,0-28.8,13-28.8,28.8s13,28.8,28.8,28.8s28.8-13,28.8-28.8S47.4,2.7,31.5,2.7"/>
	<polygon id="XMLID_59_" class="st0" points="26,51.3 26,55.9 25.3,55.9 25.3,52.3 24.9,52.7 24.4,52.2 25.3,51.3 	"/>
	<path id="XMLID_56_" class="st0" d="M28.8,52.8c0.2,0,0.5,0.1,0.7,0.2c0.2,0.1,0.4,0.2,0.5,0.4c0.1,0.1,0.2,0.3,0.3,0.5
		c0.1,0.2,0.1,0.4,0.1,0.7c0,0.2-0.1,0.4-0.1,0.6c-0.1,0.2-0.2,0.3-0.3,0.5c-0.1,0.1-0.3,0.2-0.5,0.3s-0.4,0.1-0.6,0.1h-0.1
		c-0.2,0-0.4-0.1-0.6-0.1s-0.3-0.2-0.5-0.4l0,0l0,0c-0.1-0.2-0.2-0.3-0.3-0.6c-0.1-0.2-0.1-0.4-0.1-0.7l0,0c0-0.1,0-0.2,0.1-0.4
		c0-0.2,0.1-0.4,0.2-0.7c0.1-0.2,0.3-0.5,0.6-0.9c0.2-0.3,0.6-0.7,1-1.2l0.5,0.5c-0.2,0.2-0.5,0.4-0.6,0.6c-0.2,0.2-0.3,0.3-0.5,0.5
		C28.5,52.8,28.6,52.7,28.8,52.8 M29.7,54.5c0-0.1,0-0.2-0.1-0.4c-0.1-0.2-0.1-0.2-0.2-0.3s-0.2-0.2-0.3-0.2
		c-0.1-0.1-0.2-0.1-0.4-0.1h-0.1c-0.1,0-0.2,0-0.4,0.1c-0.2,0.1-0.2,0.1-0.3,0.2c-0.1,0.1-0.1,0.2-0.2,0.3c-0.1,0.1-0.1,0.2-0.1,0.4
		c0,0.2,0,0.2,0.1,0.4c0.1,0.2,0.1,0.2,0.2,0.3c0.2,0.2,0.4,0.3,0.7,0.3c0.1,0,0.2,0,0.4-0.1c0.2-0.1,0.2-0.1,0.3-0.2
		c0.1-0.1,0.2-0.2,0.2-0.3C29.7,54.8,29.7,54.7,29.7,54.5"/>
	<path id="XMLID_55_" class="st0" d="M33.6,53.5c0.1,0.1,0.2,0.2,0.4,0.3c0.1,0.1,0.2,0.2,0.2,0.4c0.1,0.2,0.1,0.3,0.1,0.5
		c0,0.2-0.1,0.4-0.1,0.5c-0.1,0.2-0.2,0.3-0.3,0.5c-0.1,0.2-0.3,0.2-0.5,0.2c-0.2,0.1-0.4,0.1-0.7,0.1c-0.2,0-0.4,0-0.5-0.1
		c-0.2-0.1-0.3-0.1-0.5-0.2s-0.2-0.2-0.4-0.2c-0.1-0.1-0.2-0.2-0.2-0.3l0.6-0.2c0.1,0.1,0.2,0.2,0.4,0.4c0.2,0.1,0.4,0.1,0.7,0.1
		c0.1,0,0.2,0,0.4-0.1c0.2-0.1,0.2-0.1,0.3-0.1s0.2-0.1,0.2-0.2c0.1-0.1,0.1-0.2,0.1-0.2c0-0.1,0-0.2-0.1-0.2s-0.1-0.2-0.2-0.2
		c-0.1-0.1-0.2-0.1-0.3-0.1c-0.1-0.1-0.2-0.1-0.4-0.1h-0.1h-0.2l-0.1-0.5l0.1-0.1l1.2-1.3h-2.1v-0.7h2.6h0.2v0.7l-1.2,1.4
		C33.3,53.4,33.5,53.4,33.6,53.5"/>
	<path id="XMLID_52_" class="st0" d="M36.9,52.8c0.2,0,0.5,0.1,0.7,0.2c0.2,0.1,0.4,0.2,0.5,0.4c0.1,0.1,0.2,0.3,0.3,0.5
		c0.1,0.2,0.1,0.4,0.1,0.7c0,0.2-0.1,0.4-0.1,0.6c-0.1,0.2-0.2,0.3-0.3,0.5c-0.1,0.1-0.3,0.2-0.5,0.3c-0.2,0.1-0.4,0.1-0.6,0.1h-0.1
		c-0.2,0-0.4-0.1-0.6-0.1c-0.2-0.1-0.3-0.2-0.5-0.4l0,0l0,0c-0.1-0.2-0.2-0.3-0.3-0.6c-0.1-0.2-0.1-0.4-0.1-0.7l0,0
		c0-0.1,0-0.2,0.1-0.4c0-0.2,0.1-0.4,0.2-0.7c0.1-0.2,0.3-0.5,0.6-0.9c0.2-0.3,0.6-0.7,1-1.2l0.5,0.5c-0.2,0.2-0.5,0.4-0.6,0.6
		c-0.2,0.2-0.3,0.3-0.5,0.5C36.6,52.8,36.7,52.7,36.9,52.8 M37.8,54.5c0-0.1,0-0.2-0.1-0.4s-0.1-0.2-0.2-0.3s-0.2-0.2-0.3-0.2
		c-0.1-0.1-0.2-0.1-0.4-0.1h-0.1c-0.1,0-0.2,0-0.4,0.1c-0.2,0.1-0.2,0.1-0.3,0.2c-0.1,0.1-0.1,0.2-0.2,0.3c-0.1,0.1-0.1,0.2-0.1,0.4
		c0,0.2,0,0.2,0.1,0.4s0.1,0.2,0.2,0.3c0.2,0.2,0.4,0.3,0.7,0.3c0.1,0,0.2,0,0.4-0.1c0.2-0.1,0.2-0.1,0.3-0.2s0.2-0.2,0.2-0.3
		C37.7,54.7,37.8,54.7,37.8,54.5"/>
</g>
</svg>
