<?xml version="1.0" encoding="utf-8"?>
<!-- Generator: Adobe Illustrator 23.0.0, SVG Export Plug-In . SVG Version: 6.00 Build 0)  -->
<svg version="1.1" id="租金分红" xmlns="http://www.w3.org/2000/svg" xmlns:xlink="http://www.w3.org/1999/xlink" x="0px"
	 y="0px" viewBox="0 0 608 523" style="enable-background:new 0 0 608 523;" xml:space="preserve">
<style type="text/css">
	.st0{fill:none;stroke:#90A7AB;}
	.st1{fill:#9FE7DD;stroke:#34B9A1;stroke-width:2;}
	.st2{enable-background:new    ;}
	.st3{fill:#456E68;}
	.st4{fill:none;stroke:#456E68;stroke-width:1.5;stroke-miterlimit:10;}
</style>
<g id="组_29">
	<path id="形状_1" class="st0" d="M127.8,82.9h212.5l-4.8-5.5"/>
	<path id="形状_1_拷贝_6" class="st0" d="M342.1,103.1H129.8l4.8,5.5"/>
</g>
<g id="组_29_拷贝">
	<path id="形状_1-2" class="st0" d="M497.4,213v116l5.6-4.9"/>
	<path id="形状_1_拷贝_6-2" class="st0" d="M476.6,328.7V213l-5.6,4.9"/>
</g>
<path id="形状_1_拷贝_7" class="st0" d="M381,411H168.2l4.9-5.4"/>
<circle id="椭圆_6" class="st1" cx="482" cy="97" r="96"/>
<g class="st2">
	<path class="st3" d="M510.7,379h-10v10h10V379z M507.4,385.6h-3.3v-3.3h3.3V385.6z"/>
	<path class="st3" d="M524,379h-10v10h10V379z M520.7,385.6h-3.3v-3.3h3.3V385.6z"/>
	<path class="st3" d="M510.7,392.2h-10v10h10V392.2z M507.4,398.9h-3.3v-3.3h3.3V398.9z"/>
	<path class="st3" d="M524,392.2h-10v10h10V392.2z M520.7,398.9h-3.3v-3.3h3.3V398.9z"/>
	<path class="st3" d="M510.7,415.5v-10h-10v10H510.7z M504.1,408.8h3.3v3.3h-3.3V408.8z"/>
	<path class="st3" d="M524,405.5h-10v10h10V405.5z M520.7,412.2h-3.3v-3.3h3.3V412.2z"/>
	<path class="st3" d="M534,375.6v-3.3h-3.3v-6.6h-3.3V359h-29.9v6.6h-3.3v6.6h-3.3v3.3h3.3v43.2h-13.3v-19.9h3.3v-10h-3.3v-2.5
		l-23.3-16.1l-10,6.9V372h-10v12l-3.3,2.3v2.5H431v10h3.3V419c-1.9,0.7-3.3,2.5-3.3,4.7v3.3c0,2.7,2.2,5,5,5h32.4
		c-2.6,3.2-4.2,7.2-4.2,11.6c0,10.1,8.2,18.3,18.3,18.3s18.3-8.2,18.3-18.3c0-4.4-1.6-8.5-4.2-11.6H529c2.7,0,5-2.2,5-5v-3.3
		c0-2.2-1.4-4-3.3-4.7v-43.5h3.3V375.6z M500.8,362.3H524v3.3h-23.3L500.8,362.3L500.8,362.3z M497.5,369h29.9v3.3h-29.9L497.5,369
		L497.5,369z M441,375.4h3.3v4.1l-3.3,2.3V375.4z M437.7,388.1l19.9-13.8l19.9,13.8v0.8h-39.9v-0.8H437.7z M434.3,392.2h46.5v3.3
		h-46.5V392.2z M477.5,398.9v19.9h-13.3v-16.6H451v16.6h-13.3v-19.9H477.5z M460.9,418.8h-6.6v-13.3h6.6V418.8z M482.5,458.7
		c-8.2,0-14.9-6.7-14.9-14.9s6.7-14.9,14.9-14.9s14.9,6.7,14.9,14.9S490.8,458.7,482.5,458.7z M530.7,427.1c0,0.9-0.7,1.7-1.7,1.7
		h-36c-3-2.1-6.6-3.3-10.5-3.3s-7.5,1.2-10.5,3.3h-36c-0.9,0-1.7-0.7-1.7-1.7v-3.3c0-0.9,0.7-1.7,1.7-1.7h93c0.9,0,1.7,0.7,1.7,1.7
		V427.1z M527.4,418.8h-29.9v-43.2h29.9V418.8z"/>
</g>
<g>
	<path class="st3" d="M476.6,452.5v-1.8c1.9-0.6,2.9-1.8,2.9-3.7v-2.2H477V443h2.6v-3c0-1.5,0.4-2.8,1.4-3.7c1-1,2.2-1.5,3.6-1.5
		c1,0,1.9,0.1,2.8,0.6v2.1c-0.8-0.6-1.8-0.7-2.6-0.7c-1.9,0-2.9,1.2-2.9,3.6v2.8h3.9v1.8h-4v1.8c0,1.9-0.8,3.2-2.3,4.1h8.9v1.8
		h-11.7L476.6,452.5L476.6,452.5z"/>
</g>
<g class="st2">
	<g>
		<g>
			<path class="st3" d="M54.6,391H41.9c-0.9,0-1.6,0.7-1.6,1.6v6.3c0,0.9,0.7,1.6,1.6,1.6h12.7c0.9,0,1.6-0.7,1.6-1.6v-6.3
				C56.2,391.7,55.5,391,54.6,391z M46.7,397.3h-3.2v-3.2h3.2V397.3z M53,397.3h-3.2v-3.2H53V397.3z"/>
		</g>
	</g>
	<g>
		<g>
			<path class="st3" d="M54.6,403.7H41.9c-0.9,0-1.6,0.7-1.6,1.6v6.3c0,0.9,0.7,1.6,1.6,1.6h12.7c0.9,0,1.6-0.7,1.6-1.6v-6.3
				C56.2,404.4,55.5,403.7,54.6,403.7z M46.7,410h-3.2v-3.2h3.2V410z M53,410h-3.2v-3.2H53V410z"/>
		</g>
	</g>
	<g>
		<g>
			<path class="st3" d="M54.6,416.3H41.9c-0.9,0-1.6,0.7-1.6,1.6v6.3c0,0.9,0.7,1.6,1.6,1.6h12.7c0.9,0,1.6-0.7,1.6-1.6v-6.3
				C56.2,417,55.5,416.3,54.6,416.3z M46.7,422.7h-3.2v-3.2h3.2V422.7z M53,422.7h-3.2v-3.2H53V422.7z"/>
		</g>
	</g>
	<g>
		<g>
			<path class="st3" d="M111.6,391H98.9c-0.9,0-1.6,0.7-1.6,1.6v6.3c0,0.9,0.7,1.6,1.6,1.6h12.7c0.9,0,1.6-0.7,1.6-1.6v-6.3
				C113.2,391.7,112.5,391,111.6,391z M103.7,397.3h-3.2v-3.2h3.2V397.3z M110,397.3h-3.2v-3.2h3.2V397.3z"/>
		</g>
	</g>
	<g>
		<g>
			<path class="st3" d="M111.6,378.3H98.9c-0.9,0-1.6,0.7-1.6,1.6v6.3c0,0.9,0.7,1.6,1.6,1.6h12.7c0.9,0,1.6-0.7,1.6-1.6v-6.3
				C113.2,379,112.5,378.3,111.6,378.3z M103.7,384.7h-3.2v-3.2h3.2V384.7z M110,384.7h-3.2v-3.2h3.2V384.7z"/>
		</g>
	</g>
	<g>
		<g>
			<path class="st3" d="M73.6,397.3h-6.3c-0.9,0-1.6,0.7-1.6,1.6v6.3c0,0.9,0.7,1.6,1.6,1.6h6.3c0.9,0,1.6-0.7,1.6-1.6v-6.3
				C75.2,398,74.5,397.3,73.6,397.3z M72,403.7h-3.2v-3.2H72V403.7z"/>
		</g>
	</g>
	<g>
		<g>
			<path class="st3" d="M86.3,397.3H80c-0.9,0-1.6,0.7-1.6,1.6v6.3c0,0.9,0.7,1.6,1.6,1.6h6.3c0.9,0,1.6-0.7,1.6-1.6v-6.3
				C87.8,398,87.1,397.3,86.3,397.3z M84.7,403.7h-3.2v-3.2h3.2V403.7z"/>
		</g>
	</g>
	<g>
		<g>
			<path class="st3" d="M73.6,384.7h-6.3c-0.9,0-1.6,0.7-1.6,1.6v6.3c0,0.9,0.7,1.6,1.6,1.6h6.3c0.9,0,1.6-0.7,1.6-1.6v-6.3
				C75.2,385.4,74.5,384.7,73.6,384.7z M72,391h-3.2v-3.2H72V391z"/>
		</g>
	</g>
	<g>
		<g>
			<path class="st3" d="M86.3,384.7H80c-0.9,0-1.6,0.7-1.6,1.6v6.3c0,0.9,0.7,1.6,1.6,1.6h6.3c0.9,0,1.6-0.7,1.6-1.6v-6.3
				C87.8,385.4,87.1,384.7,86.3,384.7z M84.7,391h-3.2v-3.2h3.2V391z"/>
		</g>
	</g>
	<g>
		<g>
			<path class="st3" d="M73.6,372h-6.3c-0.9,0-1.6,0.7-1.6,1.6v6.3c0,0.9,0.7,1.6,1.6,1.6h6.3c0.9,0,1.6-0.7,1.6-1.6v-6.3
				C75.2,372.7,74.5,372,73.6,372z M72,378.3h-3.2v-3.2H72V378.3z"/>
		</g>
	</g>
	<g>
		<g>
			<path class="st3" d="M86.3,372H80c-0.9,0-1.6,0.7-1.6,1.6v6.3c0,0.9,0.7,1.6,1.6,1.6h6.3c0.9,0,1.6-0.7,1.6-1.6v-6.3
				C87.8,372.7,87.1,372,86.3,372z M84.7,378.3h-3.2v-3.2h3.2V378.3z"/>
		</g>
	</g>
	<g>
		<g>
			<path class="st3" d="M73.6,416.3h-6.3c-0.9,0-1.6,0.7-1.6,1.6v6.3c0,0.9,0.7,1.6,1.6,1.6h6.3c0.9,0,1.6-0.7,1.6-1.6v-6.3
				C75.2,417,74.5,416.3,73.6,416.3z M72,422.7h-3.2v-3.2H72V422.7z"/>
		</g>
	</g>
	<g>
		<g>
			<rect x="40.3" y="429" class="st3" width="3.2" height="3.2"/>
		</g>
	</g>
	<g>
		<g>
			<rect x="46.7" y="429" class="st3" width="3.2" height="3.2"/>
		</g>
	</g>
	<g>
		<g>
			<rect x="53" y="429" class="st3" width="3.2" height="3.2"/>
		</g>
	</g>
	<g>
		<g>
			<path class="st3" d="M127.4,410h-7.9v-36.4c0-0.9-0.7-1.6-1.6-1.6h-11.1v-2.5l1.7-1.7c1.4,1,3,1.6,4.7,1.6c2,0,4-0.8,5.6-2.3
				l0.3-0.3c0.6-0.6,0.6-1.6,0-2.2l-3.6-3.6l3.6-3.6l-2.2-2.2l-3.6,3.6l-5.2-5.2c-0.3-0.3-0.7-0.5-1.1-0.5c-0.6,0-1,0.3-1.3,0.6
				c-1.6,1.4-2.5,3.4-2.5,5.5s0.8,4.2,2.3,5.7l0.8,0.8l-2,2c-0.3,0.3-0.5,0.7-0.5,1.1v3.2h-9.5v-4.8c0-0.9-0.7-1.6-1.6-1.6H87l-9-12
				c-0.6-0.8-1.9-0.8-2.5,0l-9,12H61c-0.9,0-1.6,0.7-1.6,1.6v17.4h-9.5V372h-3.2v12.7H35.6c-0.9,0-1.6,0.7-1.6,1.6v60.2
				c0,0.9,0.7,1.6,1.6,1.6h25.3H72h12.7h1.6h9.5h25.3c4.4,0,7.9-3.6,7.9-7.9v-28.5C129,410.7,128.3,410,127.4,410z M59.3,444.8H37.2
				v-57h22.2v57H59.3z M106.9,356.9l8.7,8.7c-1.8,1.1-4.2,0.8-5.7-0.7l-2.2-2.2c-0.9-0.9-1.4-2.1-1.4-3.4
				C106.3,358.4,106.5,357.6,106.9,356.9z M76.8,357.2l6.3,8.4H70.4L76.8,357.2z M70.4,432.2v12.7h-7.9v-58.6v-17.4H91v4.8v28.5h3.2
				v-26.9h22.2V410h-3.2v-1.6c0-2.6-2.1-4.8-4.8-4.8h-9.5c-2.6,0-4.8,2.1-4.8,4.8v1.6H79.9c-0.9,0-1.6,0.7-1.6,1.6V429H65.7v3.2
				H70.4z M110,408.4v1.6H97.3v-1.6c0-0.9,0.7-1.6,1.6-1.6h9.5C109.3,406.8,110,407.5,110,408.4z M73.6,444.8v-12.7h4.8v7.9
				c0,1.8,0.6,3.4,1.6,4.8L73.6,444.8L73.6,444.8z M125.8,440.1c0,2.6-2.1,4.8-4.8,4.8H95.8h-9.5c-2.6,0-4.8-2.1-4.8-4.8v-15.9
				c1.3,1,3,1.6,4.8,1.6h1.6v4.8c0,0.9,0.7,1.6,1.6,1.6h6.3c0.9,0,1.6-0.7,1.6-1.6v-4.8H99h9.5h1.6v4.8c0,0.9,0.7,1.6,1.6,1.6h6.3
				c0.9,0,1.6-0.7,1.6-1.6v-4.8h1.6c1.8,0,3.4-0.6,4.8-1.6v15.9H125.8z M91,429v-3.2h3.2v3.2H91z M100.5,422.7v-3.2h6.3v3.2H100.5z
				 M113.2,429v-3.2h3.2v3.2H113.2z M125.8,417.9c0,2.6-2.1,4.8-4.8,4.8h-3.2h-6.3H110v-4.8c0-0.9-0.7-1.6-1.6-1.6h-9.5
				c-0.9,0-1.6,0.7-1.6,1.6v4.8h-1.6h-6.3h-3.2c-2.6,0-4.8-2.1-4.8-4.8v-4.8h44.3v4.8H125.8z"/>
		</g>
	</g>
	<g>
		<g>
			<rect x="119.5" y="438.5" class="st3" width="3.2" height="3.2"/>
		</g>
	</g>
	<g>
		<g>
			<rect x="113.2" y="438.5" class="st3" width="3.2" height="3.2"/>
		</g>
	</g>
	<g>
		<g>
			<rect x="106.8" y="438.5" class="st3" width="3.2" height="3.2"/>
		</g>
	</g>
</g>
<g>
	<circle class="st4" cx="56.1" cy="58.7" r="15.8"/>
	<line class="st4" x1="43.4" y1="83.4" x2="56.1" y2="97.9"/>
	<line class="st4" x1="68.4" y1="83.4" x2="56.1" y2="97.9"/>
	<line class="st4" x1="56.1" y1="112.3" x2="56.1" y2="97.9"/>
	<path class="st4" d="M89.9,104v3.4c0,3.1-2.5,5.6-5.6,5.6H27.7c-3.1,0-5.6-2.5-5.6-5.6V104"/>
	<path class="st4" d="M27.7,98.4"/>
	<path class="st4" d="M22.1,105.6C22.1,92.8,32.7,83,45.4,83h21.2c12.8,0,23.2,10.5,23.2,23.2l0,0"/>
</g>
<g class="st2">
	<path class="st3" d="M12.2,139.7v-12.9h1.7v6.4l6.4-6.4h2.3l-5.4,5.2l5.6,7.7h-2.3l-4.6-6.5l-2.1,2.1v4.5H12.2z"/>
	<path class="st3" d="M30.2,138.6c-0.6,0.5-1.1,0.8-1.7,1.1s-1.1,0.3-1.7,0.3c-1,0-1.8-0.3-2.4-0.8c-0.6-0.5-0.8-1.1-0.8-1.9
		c0-0.5,0.1-0.9,0.3-1.3c0.2-0.4,0.5-0.7,0.8-0.9s0.7-0.4,1.1-0.5c0.3-0.1,0.8-0.2,1.4-0.2c1.3-0.2,2.2-0.3,2.8-0.5
		c0-0.2,0-0.4,0-0.4c0-0.6-0.1-1.1-0.4-1.4c-0.4-0.4-1-0.5-1.8-0.5c-0.7,0-1.3,0.1-1.6,0.4s-0.6,0.7-0.8,1.4l-1.5-0.2
		c0.1-0.7,0.4-1.2,0.7-1.6c0.3-0.4,0.8-0.7,1.4-0.9c0.6-0.2,1.3-0.3,2.1-0.3c0.8,0,1.4,0.1,1.9,0.3s0.9,0.4,1.1,0.7
		c0.2,0.3,0.4,0.6,0.5,1.1c0.1,0.3,0.1,0.8,0.1,1.5v2.1c0,1.5,0,2.4,0.1,2.8c0.1,0.4,0.2,0.8,0.4,1.1h-1.7
		C30.3,139.4,30.2,139,30.2,138.6z M30,135c-0.6,0.2-1.4,0.4-2.6,0.6c-0.7,0.1-1.1,0.2-1.4,0.3s-0.5,0.3-0.6,0.5s-0.2,0.5-0.2,0.8
		c0,0.4,0.2,0.8,0.5,1.1s0.8,0.4,1.4,0.4c0.6,0,1.2-0.1,1.6-0.4s0.8-0.6,1-1.1c0.2-0.4,0.3-0.9,0.3-1.6V135z"/>
	<path class="st3" d="M34.1,143.3v-12.9h1.4v1.2c0.3-0.5,0.7-0.8,1.2-1.1c0.4-0.2,0.9-0.4,1.6-0.4c0.8,0,1.5,0.2,2.1,0.6
		s1.1,1,1.4,1.7c0.3,0.7,0.5,1.6,0.5,2.5c0,1-0.2,1.8-0.5,2.6c-0.3,0.8-0.8,1.4-1.5,1.8c-0.7,0.4-1.3,0.6-2.1,0.6
		c-0.5,0-1-0.1-1.4-0.3s-0.8-0.5-1-0.8v4.5H34.1z M35.5,135.1c0,1.2,0.2,2.1,0.7,2.7s1.1,0.9,1.8,0.9c0.7,0,1.3-0.3,1.8-0.9
		c0.5-0.6,0.8-1.5,0.8-2.8c0-1.2-0.2-2.1-0.7-2.7s-1.1-0.9-1.8-0.9c-0.7,0-1.3,0.3-1.8,0.9C35.8,133,35.5,133.9,35.5,135.1z"/>
	<path class="st3" d="M44.1,128.7v-1.8h1.6v1.8H44.1z M44.1,139.7v-9.3h1.6v9.3H44.1z"/>
	<path class="st3" d="M51.6,138.3l0.2,1.4c-0.4,0.1-0.8,0.1-1.2,0.1c-0.6,0-1-0.1-1.3-0.3s-0.5-0.4-0.7-0.7s-0.2-0.9-0.2-1.9v-5.4
		h-1.2v-1.2h1.2v-2.3l1.6-0.9v3.3h1.6v1.2H50v5.5c0,0.5,0,0.7,0.1,0.9s0.1,0.2,0.3,0.3s0.3,0.1,0.5,0.1
		C51,138.4,51.3,138.4,51.6,138.3z"/>
	<path class="st3" d="M59.2,138.6c-0.6,0.5-1.1,0.8-1.7,1.1s-1.1,0.3-1.7,0.3c-1,0-1.8-0.3-2.4-0.8c-0.6-0.5-0.8-1.1-0.8-1.9
		c0-0.5,0.1-0.9,0.3-1.3c0.2-0.4,0.5-0.7,0.8-0.9s0.7-0.4,1.1-0.5c0.3-0.1,0.8-0.2,1.4-0.2c1.3-0.2,2.2-0.3,2.8-0.5
		c0-0.2,0-0.4,0-0.4c0-0.6-0.1-1.1-0.4-1.4c-0.4-0.4-1-0.5-1.8-0.5c-0.7,0-1.3,0.1-1.6,0.4s-0.6,0.7-0.8,1.4l-1.5-0.2
		c0.1-0.7,0.4-1.2,0.7-1.6c0.3-0.4,0.8-0.7,1.4-0.9c0.6-0.2,1.3-0.3,2.1-0.3c0.8,0,1.4,0.1,1.9,0.3s0.9,0.4,1.1,0.7
		c0.2,0.3,0.4,0.6,0.5,1.1c0.1,0.3,0.1,0.8,0.1,1.5v2.1c0,1.5,0,2.4,0.1,2.8c0.1,0.4,0.2,0.8,0.4,1.1h-1.7
		C59.4,139.4,59.2,139,59.2,138.6z M59.1,135c-0.6,0.2-1.4,0.4-2.6,0.6c-0.7,0.1-1.1,0.2-1.4,0.3s-0.5,0.3-0.6,0.5s-0.2,0.5-0.2,0.8
		c0,0.4,0.2,0.8,0.5,1.1s0.8,0.4,1.4,0.4c0.6,0,1.2-0.1,1.6-0.4s0.8-0.6,1-1.1c0.2-0.4,0.3-0.9,0.3-1.6V135z"/>
	<path class="st3" d="M63.1,139.7v-12.9h1.6v12.9H63.1z"/>
	<path class="st3" d="M73.2,138.6c-0.6,0.5-1.1,0.8-1.7,1.1s-1.1,0.3-1.7,0.3c-1,0-1.8-0.3-2.4-0.8c-0.6-0.5-0.8-1.1-0.8-1.9
		c0-0.5,0.1-0.9,0.3-1.3c0.2-0.4,0.5-0.7,0.8-0.9s0.7-0.4,1.1-0.5c0.3-0.1,0.8-0.2,1.4-0.2c1.3-0.2,2.2-0.3,2.8-0.5
		c0-0.2,0-0.4,0-0.4c0-0.6-0.1-1.1-0.4-1.4c-0.4-0.4-1-0.5-1.8-0.5c-0.7,0-1.3,0.1-1.6,0.4s-0.6,0.7-0.8,1.4l-1.5-0.2
		c0.1-0.7,0.4-1.2,0.7-1.6c0.3-0.4,0.8-0.7,1.4-0.9c0.6-0.2,1.3-0.3,2.1-0.3c0.8,0,1.4,0.1,1.9,0.3s0.9,0.4,1.1,0.7
		c0.2,0.3,0.4,0.6,0.5,1.1c0.1,0.3,0.1,0.8,0.1,1.5v2.1c0,1.5,0,2.4,0.1,2.8c0.1,0.4,0.2,0.8,0.4,1.1h-1.7
		C73.4,139.4,73.3,139,73.2,138.6z M73.1,135c-0.6,0.2-1.4,0.4-2.6,0.6c-0.7,0.1-1.1,0.2-1.4,0.3s-0.5,0.3-0.6,0.5s-0.2,0.5-0.2,0.8
		c0,0.4,0.2,0.8,0.5,1.1s0.8,0.4,1.4,0.4c0.6,0,1.2-0.1,1.6-0.4s0.8-0.6,1-1.1c0.2-0.4,0.3-0.9,0.3-1.6V135z"/>
	<path class="st3" d="M77.1,139.7v-9.3h1.4v1.3c0.7-1,1.7-1.5,3-1.5c0.6,0,1.1,0.1,1.6,0.3c0.5,0.2,0.8,0.5,1.1,0.8s0.4,0.7,0.5,1.2
		c0.1,0.3,0.1,0.8,0.1,1.5v5.7h-1.6v-5.7c0-0.6-0.1-1.1-0.2-1.4s-0.3-0.6-0.7-0.8c-0.3-0.2-0.7-0.3-1.1-0.3c-0.7,0-1.3,0.2-1.7,0.6
		s-0.7,1.2-0.7,2.4v5.1H77.1z"/>
	<path class="st3" d="M87.1,139.7v-12.9h1.6v12.9H87.1z"/>
	<path class="st3" d="M97.5,136.7l1.6,0.2c-0.3,1-0.7,1.7-1.4,2.2s-1.6,0.8-2.7,0.8c-1.4,0-2.4-0.4-3.2-1.3c-0.8-0.8-1.2-2-1.2-3.5
		c0-1.6,0.4-2.8,1.2-3.7s1.9-1.3,3.1-1.3c1.2,0,2.3,0.4,3.1,1.3s1.2,2,1.2,3.6c0,0.1,0,0.2,0,0.4h-7c0.1,1,0.3,1.8,0.9,2.4
		s1.2,0.8,2,0.8c0.6,0,1.1-0.2,1.5-0.5S97.3,137.4,97.5,136.7z M92.3,134.2h5.2c-0.1-0.8-0.3-1.4-0.6-1.8c-0.5-0.6-1.2-0.9-2-0.9
		c-0.7,0-1.3,0.2-1.8,0.7S92.4,133.4,92.3,134.2z"/>
	<path class="st3" d="M100.9,140.5l1.5,0.2c0.1,0.5,0.2,0.8,0.5,1c0.4,0.3,0.9,0.4,1.6,0.4c0.7,0,1.3-0.1,1.7-0.4s0.7-0.7,0.8-1.2
		c0.1-0.3,0.1-1,0.1-2c-0.7,0.8-1.6,1.2-2.6,1.2c-1.3,0-2.3-0.5-3-1.4s-1.1-2-1.1-3.3c0-0.9,0.2-1.7,0.5-2.5
		c0.3-0.8,0.8-1.3,1.4-1.7s1.3-0.6,2.2-0.6c1.1,0,2,0.4,2.7,1.3v-1.1h1.5v8.1c0,1.5-0.1,2.5-0.4,3.1c-0.3,0.6-0.8,1.1-1.4,1.4
		s-1.4,0.5-2.4,0.5c-1.1,0-2-0.3-2.7-0.8C101.2,142.3,100.8,141.5,100.9,140.5z M102.2,134.9c0,1.2,0.2,2.1,0.7,2.7s1.1,0.8,1.8,0.8
		c0.7,0,1.3-0.3,1.8-0.8s0.7-1.4,0.7-2.6c0-1.1-0.3-2-0.8-2.6s-1.1-0.9-1.8-0.9c-0.7,0-1.3,0.3-1.8,0.9
		C102.4,132.9,102.2,133.8,102.2,134.9z"/>
	<path class="st3" d="M117.5,136.7l1.6,0.2c-0.3,1-0.7,1.7-1.4,2.2s-1.6,0.8-2.7,0.8c-1.4,0-2.4-0.4-3.2-1.3c-0.8-0.8-1.2-2-1.2-3.5
		c0-1.6,0.4-2.8,1.2-3.7s1.9-1.3,3.1-1.3c1.2,0,2.3,0.4,3.1,1.3s1.2,2,1.2,3.6c0,0.1,0,0.2,0,0.4h-7c0.1,1,0.3,1.8,0.9,2.4
		s1.2,0.8,2,0.8c0.6,0,1.1-0.2,1.5-0.5S117.3,137.4,117.5,136.7z M112.4,134.2h5.2c-0.1-0.8-0.3-1.4-0.6-1.8c-0.5-0.6-1.2-0.9-2-0.9
		c-0.7,0-1.3,0.2-1.8,0.7S112.4,133.4,112.4,134.2z"/>
	<path class="st3" d="M121.2,139.7v-9.3h1.4v1.4c0.4-0.7,0.7-1.1,1-1.3s0.6-0.3,1-0.3c0.5,0,1.1,0.2,1.6,0.5l-0.5,1.5
		c-0.4-0.2-0.8-0.3-1.2-0.3c-0.3,0-0.7,0.1-0.9,0.3s-0.5,0.5-0.6,0.9c-0.2,0.6-0.3,1.2-0.3,1.8v4.9H121.2z"/>
</g>
<g class="st2">
	<path class="st3" d="M10.6,165.1c-0.9-1.1-1.6-2.4-2.2-3.9s-0.9-3-0.9-4.6c0-1.4,0.2-2.7,0.7-4c0.5-1.5,1.3-3,2.4-4.4h1.1
		c-0.7,1.2-1.2,2.1-1.4,2.6c-0.4,0.8-0.6,1.7-0.8,2.5c-0.3,1.1-0.4,2.2-0.4,3.3c0,2.8,0.9,5.6,2.6,8.4H10.6z"/>
	<path class="st3" d="M17.1,161.3V150h-4.2v-1.5H23v1.5h-4.3v11.4H17.1z"/>
	<path class="st3" d="M22,156.7c0-1.7,0.5-3,1.4-3.8c0.8-0.7,1.8-1,2.9-1c1.3,0,2.3,0.4,3.1,1.3s1.2,2,1.2,3.5
		c0,1.2-0.2,2.1-0.5,2.8c-0.4,0.7-0.9,1.2-1.6,1.6s-1.4,0.6-2.3,0.6c-1.3,0-2.4-0.4-3.2-1.3S22,158.2,22,156.7z M23.6,156.7
		c0,1.2,0.3,2.1,0.8,2.7c0.5,0.6,1.2,0.9,2,0.9c0.8,0,1.4-0.3,2-0.9s0.8-1.5,0.8-2.7c0-1.2-0.3-2-0.8-2.6c-0.5-0.6-1.2-0.9-2-0.9
		c-0.8,0-1.4,0.3-2,0.9S23.6,155.5,23.6,156.7z"/>
	<path class="st3" d="M32.6,161.3v-12.9h1.6v7.3l3.7-3.8h2l-3.6,3.5l3.9,5.9h-2l-3.1-4.8l-1.1,1.1v3.7H32.6z"/>
	<path class="st3" d="M48,158.3l1.6,0.2c-0.3,1-0.7,1.7-1.4,2.2s-1.6,0.8-2.7,0.8c-1.4,0-2.4-0.4-3.2-1.3c-0.8-0.8-1.2-2-1.2-3.5
		c0-1.6,0.4-2.8,1.2-3.7s1.9-1.3,3.1-1.3c1.2,0,2.3,0.4,3.1,1.3s1.2,2,1.2,3.6c0,0.1,0,0.2,0,0.4h-7c0.1,1,0.3,1.8,0.9,2.4
		s1.2,0.8,2,0.8c0.6,0,1.1-0.2,1.5-0.5S47.7,159,48,158.3z M42.8,155.8H48c-0.1-0.8-0.3-1.4-0.6-1.8c-0.5-0.6-1.2-0.9-2-0.9
		c-0.7,0-1.3,0.2-1.8,0.7S42.8,155,42.8,155.8z"/>
	<path class="st3" d="M51.6,161.3V152H53v1.3c0.7-1,1.7-1.5,3-1.5c0.6,0,1.1,0.1,1.6,0.3c0.5,0.2,0.8,0.5,1.1,0.8s0.4,0.7,0.5,1.2
		c0.1,0.3,0.1,0.8,0.1,1.5v5.7h-1.6v-5.7c0-0.6-0.1-1.1-0.2-1.4s-0.3-0.6-0.7-0.8c-0.3-0.2-0.7-0.3-1.1-0.3c-0.7,0-1.3,0.2-1.7,0.6
		s-0.7,1.2-0.7,2.4v5.1H51.6z"/>
	<path class="st3" d="M61,157.5v-1.6h4.9v1.6H61z"/>
	<path class="st3" d="M68.1,161.3v-12.9h1.7v12.9H68.1z"/>
	<path class="st3" d="M72.6,161.3V152H74v1.3c0.7-1,1.7-1.5,3-1.5c0.6,0,1.1,0.1,1.6,0.3c0.5,0.2,0.8,0.5,1.1,0.8s0.4,0.7,0.5,1.2
		c0.1,0.3,0.1,0.8,0.1,1.5v5.7h-1.6v-5.7c0-0.6-0.1-1.1-0.2-1.4s-0.3-0.6-0.7-0.8c-0.3-0.2-0.7-0.3-1.1-0.3c-0.7,0-1.3,0.2-1.7,0.6
		s-0.7,1.2-0.7,2.4v5.1H72.6z"/>
	<path class="st3" d="M82.6,161.3v-12.9h1.6v4.6c0.7-0.9,1.7-1.3,2.8-1.3c0.7,0,1.3,0.1,1.8,0.4c0.5,0.3,0.9,0.6,1.1,1.1
		s0.3,1.2,0.3,2.1v5.9h-1.6v-5.9c0-0.8-0.2-1.4-0.5-1.7c-0.3-0.4-0.8-0.5-1.5-0.5c-0.5,0-0.9,0.1-1.3,0.4c-0.4,0.2-0.7,0.6-0.9,1
		s-0.3,1-0.3,1.7v5.1H82.6z"/>
	<path class="st3" d="M98.7,160.2c-0.6,0.5-1.1,0.8-1.7,1.1s-1.1,0.3-1.7,0.3c-1,0-1.8-0.3-2.4-0.8c-0.6-0.5-0.8-1.1-0.8-1.9
		c0-0.5,0.1-0.9,0.3-1.3c0.2-0.4,0.5-0.7,0.8-0.9s0.7-0.4,1.1-0.5c0.3-0.1,0.8-0.2,1.4-0.2c1.3-0.2,2.2-0.3,2.8-0.5
		c0-0.2,0-0.4,0-0.4c0-0.6-0.1-1.1-0.4-1.4c-0.4-0.4-1-0.5-1.8-0.5c-0.7,0-1.3,0.1-1.6,0.4s-0.6,0.7-0.8,1.4l-1.5-0.2
		c0.1-0.7,0.4-1.2,0.7-1.6c0.3-0.4,0.8-0.7,1.4-0.9c0.6-0.2,1.3-0.3,2.1-0.3c0.8,0,1.4,0.1,1.9,0.3s0.9,0.4,1.1,0.7
		c0.2,0.3,0.4,0.6,0.5,1.1c0.1,0.3,0.1,0.8,0.1,1.5v2.1c0,1.5,0,2.4,0.1,2.8c0.1,0.4,0.2,0.8,0.4,1.1H99
		C98.9,161,98.8,160.6,98.7,160.2z M98.6,156.6c-0.6,0.2-1.4,0.4-2.6,0.6c-0.7,0.1-1.1,0.2-1.4,0.3s-0.5,0.3-0.6,0.5
		s-0.2,0.5-0.2,0.8c0,0.4,0.2,0.8,0.5,1.1s0.8,0.4,1.4,0.4c0.6,0,1.2-0.1,1.6-0.4s0.8-0.6,1-1.1c0.2-0.4,0.3-0.9,0.3-1.6V156.6z"/>
	<path class="st3" d="M104.1,161.3h-1.5v-12.9h1.6v4.6c0.7-0.8,1.5-1.3,2.6-1.3c0.6,0,1.1,0.1,1.6,0.3s0.9,0.6,1.3,1
		c0.3,0.4,0.6,0.9,0.8,1.5s0.3,1.2,0.3,1.9c0,1.6-0.4,2.8-1.2,3.7s-1.7,1.3-2.8,1.3c-1.1,0-2-0.5-2.6-1.4V161.3z M104.1,156.6
		c0,1.1,0.2,1.9,0.5,2.4c0.5,0.8,1.2,1.2,2,1.2c0.7,0,1.3-0.3,1.8-0.9s0.8-1.5,0.8-2.7c0-1.2-0.2-2.1-0.7-2.7s-1.1-0.9-1.8-0.9
		c-0.7,0-1.3,0.3-1.8,0.9C104.3,154.6,104.1,155.5,104.1,156.6z"/>
	<path class="st3" d="M119,158.3l1.6,0.2c-0.3,1-0.7,1.7-1.4,2.2s-1.6,0.8-2.7,0.8c-1.4,0-2.4-0.4-3.2-1.3c-0.8-0.8-1.2-2-1.2-3.5
		c0-1.6,0.4-2.8,1.2-3.7s1.9-1.3,3.1-1.3c1.2,0,2.3,0.4,3.1,1.3s1.2,2,1.2,3.6c0,0.1,0,0.2,0,0.4h-7c0.1,1,0.3,1.8,0.9,2.4
		s1.2,0.8,2,0.8c0.6,0,1.1-0.2,1.5-0.5S118.8,159,119,158.3z M113.8,155.8h5.2c-0.1-0.8-0.3-1.4-0.6-1.8c-0.5-0.6-1.2-0.9-2-0.9
		c-0.7,0-1.3,0.2-1.8,0.7S113.9,155,113.8,155.8z"/>
	<path class="st3" d="M122.6,161.3V152h1.4v1.4c0.4-0.7,0.7-1.1,1-1.3s0.6-0.3,1-0.3c0.5,0,1.1,0.2,1.6,0.5l-0.5,1.5
		c-0.4-0.2-0.8-0.3-1.2-0.3c-0.3,0-0.7,0.1-0.9,0.3s-0.5,0.5-0.6,0.9c-0.2,0.6-0.3,1.2-0.3,1.8v4.9H122.6z"/>
	<path class="st3" d="M129.7,165.1h-1.1c1.8-2.8,2.6-5.6,2.6-8.4c0-1.1-0.1-2.2-0.4-3.3c-0.2-0.9-0.5-1.7-0.8-2.5
		c-0.2-0.5-0.7-1.4-1.4-2.6h1.1c1.1,1.5,1.9,2.9,2.4,4.4c0.5,1.3,0.7,2.6,0.7,4c0,1.6-0.3,3.1-0.9,4.6S130.6,164,129.7,165.1z"/>
</g>
<g class="st2">
	<path class="st3" d="M299.4,484.4v-12.9h1.7v5.3h6.7v-5.3h1.7v12.9h-1.7v-6.1h-6.7v6.1H299.4z"/>
	<path class="st3" d="M311.6,479.7c0-1.7,0.5-3,1.4-3.8c0.8-0.7,1.8-1,2.9-1c1.3,0,2.3,0.4,3.1,1.3s1.2,2,1.2,3.5
		c0,1.2-0.2,2.1-0.5,2.8c-0.4,0.7-0.9,1.2-1.6,1.6s-1.4,0.6-2.3,0.6c-1.3,0-2.4-0.4-3.2-1.3S311.6,481.3,311.6,479.7z M313.2,479.7
		c0,1.2,0.3,2.1,0.8,2.7c0.5,0.6,1.2,0.9,2,0.9c0.8,0,1.4-0.3,2-0.9s0.8-1.5,0.8-2.7c0-1.2-0.3-2-0.8-2.6c-0.5-0.6-1.2-0.9-2-0.9
		c-0.8,0-1.4,0.3-2,0.9S313.2,478.5,313.2,479.7z"/>
	<path class="st3" d="M328.3,484.4V483c-0.7,1.1-1.7,1.6-3,1.6c-0.6,0-1.1-0.1-1.5-0.3s-0.8-0.5-1.1-0.8s-0.4-0.7-0.5-1.2
		c-0.1-0.3-0.1-0.8-0.1-1.5v-5.8h1.6v5.2c0,0.8,0,1.4,0.1,1.7c0.1,0.4,0.3,0.7,0.6,1c0.3,0.2,0.7,0.4,1.2,0.4s0.9-0.1,1.3-0.4
		s0.7-0.6,0.9-1c0.2-0.4,0.3-1,0.3-1.8v-5h1.6v9.3H328.3z"/>
	<path class="st3" d="M331.6,481.6l1.6-0.2c0.1,0.6,0.3,1.1,0.7,1.4s1,0.5,1.7,0.5c0.7,0,1.3-0.1,1.6-0.4s0.5-0.6,0.5-1
		c0-0.4-0.2-0.6-0.5-0.8c-0.2-0.1-0.8-0.3-1.6-0.5c-1.2-0.3-2-0.5-2.4-0.8s-0.8-0.5-1-0.9c-0.2-0.4-0.3-0.8-0.3-1.3
		c0-0.4,0.1-0.8,0.3-1.2c0.2-0.4,0.5-0.6,0.8-0.9c0.2-0.2,0.6-0.3,1-0.5s0.9-0.2,1.4-0.2c0.7,0,1.4,0.1,1.9,0.3s1,0.5,1.2,0.9
		c0.3,0.4,0.4,0.8,0.5,1.4l-1.5,0.2c-0.1-0.5-0.3-0.9-0.6-1.1s-0.8-0.4-1.4-0.4c-0.7,0-1.2,0.1-1.6,0.4s-0.5,0.5-0.5,0.8
		c0,0.2,0.1,0.4,0.2,0.6c0.1,0.2,0.3,0.3,0.6,0.4c0.2,0.1,0.6,0.2,1.4,0.4c1.1,0.3,1.9,0.5,2.3,0.7s0.8,0.5,1,0.8s0.4,0.8,0.4,1.4
		c0,0.5-0.2,1-0.5,1.5c-0.3,0.5-0.8,0.8-1.3,1.1c-0.6,0.3-1.2,0.4-2,0.4c-1.2,0-2.1-0.3-2.8-0.8S331.8,482.6,331.6,481.6z"/>
	<path class="st3" d="M347.6,481.4l1.6,0.2c-0.3,1-0.7,1.7-1.4,2.2s-1.6,0.8-2.7,0.8c-1.4,0-2.4-0.4-3.2-1.3c-0.8-0.8-1.2-2-1.2-3.5
		c0-1.6,0.4-2.8,1.2-3.7s1.9-1.3,3.1-1.3c1.2,0,2.3,0.4,3.1,1.3s1.2,2,1.2,3.6c0,0.1,0,0.2,0,0.4h-7c0.1,1,0.3,1.8,0.9,2.4
		s1.2,0.8,2,0.8c0.6,0,1.1-0.2,1.5-0.5S347.4,482.1,347.6,481.4z M342.4,478.8h5.2c-0.1-0.8-0.3-1.4-0.6-1.8c-0.5-0.6-1.2-0.9-2-0.9
		c-0.7,0-1.3,0.2-1.8,0.7S342.5,478,342.4,478.8z"/>
	<path class="st3" d="M354.7,484.4V473h-4.2v-1.5h10.2v1.5h-4.3v11.4H354.7z"/>
	<path class="st3" d="M359.6,479.7c0-1.7,0.5-3,1.4-3.8c0.8-0.7,1.8-1,2.9-1c1.3,0,2.3,0.4,3.1,1.3s1.2,2,1.2,3.5
		c0,1.2-0.2,2.1-0.5,2.8c-0.4,0.7-0.9,1.2-1.6,1.6s-1.4,0.6-2.3,0.6c-1.3,0-2.4-0.4-3.2-1.3S359.6,481.3,359.6,479.7z M361.3,479.7
		c0,1.2,0.3,2.1,0.8,2.7c0.5,0.6,1.2,0.9,2,0.9c0.8,0,1.4-0.3,2-0.9s0.8-1.5,0.8-2.7c0-1.2-0.3-2-0.8-2.6c-0.5-0.6-1.2-0.9-2-0.9
		c-0.8,0-1.4,0.3-2,0.9S361.3,478.5,361.3,479.7z"/>
	<path class="st3" d="M370.2,484.4v-12.9h1.6v7.3l3.7-3.8h2l-3.6,3.5l3.9,5.9h-2l-3.1-4.8l-1.1,1.1v3.7H370.2z"/>
	<path class="st3" d="M385.6,481.4l1.6,0.2c-0.3,1-0.7,1.7-1.4,2.2s-1.6,0.8-2.7,0.8c-1.4,0-2.4-0.4-3.2-1.3c-0.8-0.8-1.2-2-1.2-3.5
		c0-1.6,0.4-2.8,1.2-3.7s1.9-1.3,3.1-1.3c1.2,0,2.3,0.4,3.1,1.3s1.2,2,1.2,3.6c0,0.1,0,0.2,0,0.4h-7c0.1,1,0.3,1.8,0.9,2.4
		s1.2,0.8,2,0.8c0.6,0,1.1-0.2,1.5-0.5S385.4,482.1,385.6,481.4z M380.4,478.8h5.2c-0.1-0.8-0.3-1.4-0.6-1.8c-0.5-0.6-1.2-0.9-2-0.9
		c-0.7,0-1.3,0.2-1.8,0.7S380.5,478,380.4,478.8z"/>
	<path class="st3" d="M389.2,484.4v-9.3h1.4v1.3c0.7-1,1.7-1.5,3-1.5c0.6,0,1.1,0.1,1.6,0.3c0.5,0.2,0.8,0.5,1.1,0.8
		s0.4,0.7,0.5,1.2c0.1,0.3,0.1,0.8,0.1,1.5v5.7h-1.6v-5.7c0-0.6-0.1-1.1-0.2-1.4s-0.3-0.6-0.7-0.8c-0.3-0.2-0.7-0.3-1.1-0.3
		c-0.7,0-1.3,0.2-1.7,0.6s-0.7,1.2-0.7,2.4v5.1H389.2z"/>
	<path class="st3" d="M410.5,479.3v-1.5l5.5,0v4.8c-0.8,0.7-1.7,1.2-2.6,1.5c-0.9,0.3-1.8,0.5-2.7,0.5c-1.3,0-2.4-0.3-3.5-0.8
		c-1-0.5-1.8-1.3-2.3-2.4s-0.8-2.2-0.8-3.4c0-1.3,0.3-2.4,0.8-3.5c0.5-1.1,1.3-1.9,2.3-2.4s2.1-0.8,3.4-0.8c0.9,0,1.8,0.2,2.5,0.5
		c0.8,0.3,1.3,0.7,1.8,1.3s0.8,1.2,1,2.1l-1.5,0.4c-0.2-0.7-0.4-1.2-0.7-1.5s-0.7-0.7-1.2-0.9s-1.1-0.3-1.8-0.3
		c-0.8,0-1.5,0.1-2,0.4c-0.6,0.2-1,0.5-1.4,0.9s-0.6,0.8-0.8,1.3c-0.3,0.8-0.5,1.7-0.5,2.6c0,1.1,0.2,2.1,0.6,2.9s1,1.3,1.7,1.7
		s1.6,0.6,2.4,0.6c0.7,0,1.5-0.1,2.2-0.4s1.2-0.6,1.6-0.9v-2.4H410.5z"/>
	<path class="st3" d="M418.2,484.4v-12.9h1.6v12.9H418.2z"/>
	<path class="st3" d="M421.7,479.7c0-1.7,0.5-3,1.4-3.8c0.8-0.7,1.8-1,2.9-1c1.3,0,2.3,0.4,3.1,1.3s1.2,2,1.2,3.5
		c0,1.2-0.2,2.1-0.5,2.8c-0.4,0.7-0.9,1.2-1.6,1.6s-1.4,0.6-2.3,0.6c-1.3,0-2.4-0.4-3.2-1.3S421.7,481.3,421.7,479.7z M423.3,479.7
		c0,1.2,0.3,2.1,0.8,2.7c0.5,0.6,1.2,0.9,2,0.9c0.8,0,1.4-0.3,2-0.9s0.8-1.5,0.8-2.7c0-1.2-0.3-2-0.8-2.6c-0.5-0.6-1.2-0.9-2-0.9
		c-0.8,0-1.4,0.3-2,0.9S423.3,478.5,423.3,479.7z"/>
	<path class="st3" d="M433.7,484.4h-1.5v-12.9h1.6v4.6c0.7-0.8,1.5-1.3,2.6-1.3c0.6,0,1.1,0.1,1.6,0.3s0.9,0.6,1.3,1
		c0.3,0.4,0.6,0.9,0.8,1.5s0.3,1.2,0.3,1.9c0,1.6-0.4,2.8-1.2,3.7s-1.7,1.3-2.8,1.3c-1.1,0-2-0.5-2.6-1.4V484.4z M433.7,479.7
		c0,1.1,0.2,1.9,0.5,2.4c0.5,0.8,1.2,1.2,2,1.2c0.7,0,1.3-0.3,1.8-0.9s0.8-1.5,0.8-2.7c0-1.2-0.2-2.1-0.7-2.7s-1.1-0.9-1.8-0.9
		c-0.7,0-1.3,0.3-1.8,0.9C434,477.7,433.7,478.5,433.7,479.7z"/>
	<path class="st3" d="M448.4,483.2c-0.6,0.5-1.2,0.8-1.7,1.1s-1.1,0.3-1.7,0.3c-1,0-1.8-0.3-2.4-0.8c-0.6-0.5-0.8-1.1-0.8-1.9
		c0-0.5,0.1-0.9,0.3-1.3c0.2-0.4,0.5-0.7,0.8-0.9s0.7-0.4,1.1-0.5c0.3-0.1,0.8-0.2,1.4-0.2c1.3-0.2,2.2-0.3,2.8-0.5
		c0-0.2,0-0.4,0-0.4c0-0.6-0.1-1.1-0.4-1.4c-0.4-0.4-1-0.5-1.8-0.5c-0.7,0-1.3,0.1-1.6,0.4s-0.6,0.7-0.8,1.4l-1.5-0.2
		c0.1-0.7,0.4-1.2,0.7-1.6c0.3-0.4,0.8-0.7,1.4-0.9c0.6-0.2,1.3-0.3,2.1-0.3c0.8,0,1.4,0.1,1.9,0.3s0.9,0.4,1.1,0.7
		c0.2,0.3,0.4,0.6,0.5,1.1c0.1,0.3,0.1,0.8,0.1,1.5v2.1c0,1.5,0,2.4,0.1,2.8c0.1,0.4,0.2,0.8,0.4,1.1h-1.7
		C448.5,484.1,448.4,483.7,448.4,483.2z M448.2,479.7c-0.6,0.2-1.4,0.4-2.6,0.6c-0.7,0.1-1.1,0.2-1.4,0.3s-0.5,0.3-0.6,0.5
		s-0.2,0.5-0.2,0.8c0,0.4,0.2,0.8,0.5,1.1s0.8,0.4,1.4,0.4c0.6,0,1.2-0.1,1.6-0.4s0.8-0.6,1-1.1c0.2-0.4,0.3-0.9,0.3-1.6V479.7z"/>
	<path class="st3" d="M452.2,484.4v-12.9h1.6v12.9H452.2z"/>
	<path class="st3" d="M462.7,481.4l1.6,0.2c-0.3,1-0.7,1.7-1.4,2.2s-1.6,0.8-2.7,0.8c-1.4,0-2.4-0.4-3.2-1.3c-0.8-0.8-1.2-2-1.2-3.5
		c0-1.6,0.4-2.8,1.2-3.7s1.9-1.3,3.1-1.3c1.2,0,2.3,0.4,3.1,1.3s1.2,2,1.2,3.6c0,0.1,0,0.2,0,0.4h-7c0.1,1,0.3,1.8,0.9,2.4
		s1.2,0.8,2,0.8c0.6,0,1.1-0.2,1.5-0.5S462.4,482.1,462.7,481.4z M457.5,478.8h5.2c-0.1-0.8-0.3-1.4-0.6-1.8c-0.5-0.6-1.2-0.9-2-0.9
		c-0.7,0-1.3,0.2-1.8,0.7S457.5,478,457.5,478.8z"/>
	<path class="st3" d="M466.3,484.4v-9.3h1.4v1.4c0.4-0.7,0.7-1.1,1-1.3s0.6-0.3,1-0.3c0.5,0,1.1,0.2,1.6,0.5l-0.5,1.5
		c-0.4-0.2-0.8-0.3-1.2-0.3c-0.3,0-0.7,0.1-0.9,0.3s-0.5,0.5-0.6,0.9c-0.2,0.6-0.3,1.2-0.3,1.8v4.9H466.3z"/>
	<path class="st3" d="M477.8,484.4v-12.9h1.7v12.9H477.8z"/>
	<path class="st3" d="M482.3,484.4v-9.3h1.4v1.3c0.3-0.5,0.7-0.8,1.2-1.1s1-0.4,1.7-0.4c0.7,0,1.3,0.1,1.7,0.4s0.8,0.7,0.9,1.2
		c0.7-1.1,1.7-1.6,2.9-1.6c0.9,0,1.6,0.3,2.1,0.8s0.7,1.3,0.7,2.4v6.4h-1.6v-5.9c0-0.6-0.1-1.1-0.2-1.4s-0.3-0.5-0.6-0.7
		s-0.6-0.3-0.9-0.3c-0.7,0-1.2,0.2-1.6,0.7c-0.4,0.4-0.7,1.1-0.7,2.1v5.4h-1.6v-6.1c0-0.7-0.1-1.2-0.4-1.6s-0.7-0.5-1.3-0.5
		c-0.4,0-0.9,0.1-1.2,0.4s-0.7,0.6-0.8,1s-0.3,1.1-0.3,2v4.8H482.3z"/>
	<path class="st3" d="M497.3,484.4v-9.3h1.4v1.3c0.3-0.5,0.7-0.8,1.2-1.1s1-0.4,1.7-0.4c0.7,0,1.3,0.1,1.7,0.4s0.8,0.7,0.9,1.2
		c0.7-1.1,1.7-1.6,2.9-1.6c0.9,0,1.6,0.3,2.1,0.8s0.7,1.3,0.7,2.4v6.4h-1.6v-5.9c0-0.6-0.1-1.1-0.2-1.4s-0.3-0.5-0.6-0.7
		s-0.6-0.3-0.9-0.3c-0.7,0-1.2,0.2-1.6,0.7c-0.4,0.4-0.7,1.1-0.7,2.1v5.4h-1.6v-6.1c0-0.7-0.1-1.2-0.4-1.6s-0.7-0.5-1.3-0.5
		c-0.4,0-0.9,0.1-1.2,0.4s-0.7,0.6-0.8,1s-0.3,1.1-0.3,2v4.8H497.3z"/>
	<path class="st3" d="M511.7,479.7c0-1.7,0.5-3,1.4-3.8c0.8-0.7,1.8-1,2.9-1c1.3,0,2.3,0.4,3.1,1.3s1.2,2,1.2,3.5
		c0,1.2-0.2,2.1-0.5,2.8c-0.4,0.7-0.9,1.2-1.6,1.6s-1.4,0.6-2.3,0.6c-1.3,0-2.4-0.4-3.2-1.3S511.7,481.3,511.7,479.7z M513.3,479.7
		c0,1.2,0.3,2.1,0.8,2.7c0.5,0.6,1.2,0.9,2,0.9c0.8,0,1.4-0.3,2-0.9s0.8-1.5,0.8-2.7c0-1.2-0.3-2-0.8-2.6c-0.5-0.6-1.2-0.9-2-0.9
		c-0.8,0-1.4,0.3-2,0.9S513.3,478.5,513.3,479.7z"/>
	<path class="st3" d="M523.7,484.4h-1.5v-12.9h1.6v4.6c0.7-0.8,1.5-1.3,2.6-1.3c0.6,0,1.1,0.1,1.6,0.3s0.9,0.6,1.3,1
		c0.3,0.4,0.6,0.9,0.8,1.5s0.3,1.2,0.3,1.9c0,1.6-0.4,2.8-1.2,3.7s-1.7,1.3-2.8,1.3c-1.1,0-2-0.5-2.6-1.4V484.4z M523.7,479.7
		c0,1.1,0.2,1.9,0.5,2.4c0.5,0.8,1.2,1.2,2,1.2c0.7,0,1.3-0.3,1.8-0.9s0.8-1.5,0.8-2.7c0-1.2-0.2-2.1-0.7-2.7s-1.1-0.9-1.8-0.9
		c-0.7,0-1.3,0.3-1.8,0.9C524,477.7,523.7,478.5,523.7,479.7z"/>
	<path class="st3" d="M532.3,473.3v-1.8h1.6v1.8H532.3z M532.3,484.4v-9.3h1.6v9.3H532.3z"/>
	<path class="st3" d="M536.3,484.4v-12.9h1.6v12.9H536.3z"/>
	<path class="st3" d="M540.3,473.3v-1.8h1.6v1.8H540.3z M540.3,484.4v-9.3h1.6v9.3H540.3z"/>
	<path class="st3" d="M550.7,481.4l1.6,0.2c-0.3,1-0.7,1.7-1.4,2.2s-1.6,0.8-2.7,0.8c-1.4,0-2.4-0.4-3.2-1.3c-0.8-0.8-1.2-2-1.2-3.5
		c0-1.6,0.4-2.8,1.2-3.7s1.9-1.3,3.1-1.3c1.2,0,2.3,0.4,3.1,1.3s1.2,2,1.2,3.6c0,0.1,0,0.2,0,0.4h-7c0.1,1,0.3,1.8,0.9,2.4
		s1.2,0.8,2,0.8c0.6,0,1.1-0.2,1.5-0.5S550.4,482.1,550.7,481.4z M545.5,478.8h5.2c-0.1-0.8-0.3-1.4-0.6-1.8c-0.5-0.6-1.2-0.9-2-0.9
		c-0.7,0-1.3,0.2-1.8,0.7S545.5,478,545.5,478.8z"/>
	<path class="st3" d="M554.3,484.4v-9.3h1.4v1.3c0.7-1,1.7-1.5,3-1.5c0.6,0,1.1,0.1,1.6,0.3c0.5,0.2,0.8,0.5,1.1,0.8
		s0.4,0.7,0.5,1.2c0.1,0.3,0.1,0.8,0.1,1.5v5.7h-1.6v-5.7c0-0.6-0.1-1.1-0.2-1.4s-0.3-0.6-0.7-0.8c-0.3-0.2-0.7-0.3-1.1-0.3
		c-0.7,0-1.3,0.2-1.7,0.6s-0.7,1.2-0.7,2.4v5.1H554.3z"/>
	<path class="st3" d="M564.7,484.4v-8.1h-1.4v-1.2h1.4v-1c0-0.6,0.1-1.1,0.2-1.4c0.2-0.4,0.4-0.7,0.8-1c0.4-0.3,0.9-0.4,1.6-0.4
		c0.4,0,0.9,0.1,1.5,0.2l-0.2,1.4c-0.3-0.1-0.6-0.1-0.9-0.1c-0.5,0-0.8,0.1-1,0.3s-0.3,0.6-0.3,1.2v0.9h1.8v1.2h-1.8v8.1H564.7z"/>
	<path class="st3" d="M568.7,479.7c0-1.7,0.5-3,1.4-3.8c0.8-0.7,1.8-1,2.9-1c1.3,0,2.3,0.4,3.1,1.3s1.2,2,1.2,3.5
		c0,1.2-0.2,2.1-0.5,2.8c-0.4,0.7-0.9,1.2-1.6,1.6s-1.4,0.6-2.3,0.6c-1.3,0-2.4-0.4-3.2-1.3S568.7,481.3,568.7,479.7z M570.4,479.7
		c0,1.2,0.3,2.1,0.8,2.7c0.5,0.6,1.2,0.9,2,0.9c0.8,0,1.4-0.3,2-0.9s0.8-1.5,0.8-2.7c0-1.2-0.3-2-0.8-2.6c-0.5-0.6-1.2-0.9-2-0.9
		c-0.8,0-1.4,0.3-2,0.9S570.4,478.5,570.4,479.7z"/>
	<path class="st3" d="M579.3,484.4v-9.3h1.4v1.3c0.7-1,1.7-1.5,3-1.5c0.6,0,1.1,0.1,1.6,0.3c0.5,0.2,0.8,0.5,1.1,0.8
		s0.4,0.7,0.5,1.2c0.1,0.3,0.1,0.8,0.1,1.5v5.7h-1.6v-5.7c0-0.6-0.1-1.1-0.2-1.4s-0.3-0.6-0.7-0.8c-0.3-0.2-0.7-0.3-1.1-0.3
		c-0.7,0-1.3,0.2-1.7,0.6s-0.7,1.2-0.7,2.4v5.1H579.3z"/>
	<path class="st3" d="M595.4,484.4v-1.2c-0.6,0.9-1.5,1.4-2.6,1.4c-0.7,0-1.4-0.2-2.1-0.6s-1.1-1-1.5-1.7c-0.3-0.7-0.5-1.6-0.5-2.5
		c0-0.9,0.2-1.8,0.5-2.5s0.8-1.3,1.4-1.7s1.3-0.6,2.1-0.6c0.6,0,1.1,0.1,1.5,0.4c0.4,0.2,0.8,0.5,1.1,0.9v-4.6h1.6v12.9H595.4z
		 M590.4,479.7c0,1.2,0.3,2.1,0.8,2.7s1.1,0.9,1.8,0.9c0.7,0,1.3-0.3,1.8-0.8s0.7-1.4,0.7-2.6c0-1.3-0.2-2.2-0.7-2.8
		s-1.1-0.9-1.8-0.9c-0.7,0-1.3,0.3-1.8,0.9S590.4,478.5,590.4,479.7z"/>
	<path class="st3" d="M598.7,481.6l1.6-0.2c0.1,0.6,0.3,1.1,0.7,1.4s1,0.5,1.7,0.5c0.7,0,1.3-0.1,1.6-0.4s0.5-0.6,0.5-1
		c0-0.4-0.2-0.6-0.5-0.8c-0.2-0.1-0.8-0.3-1.6-0.5c-1.2-0.3-2-0.5-2.4-0.8s-0.8-0.5-1-0.9c-0.2-0.4-0.3-0.8-0.3-1.3
		c0-0.4,0.1-0.8,0.3-1.2c0.2-0.4,0.5-0.6,0.8-0.9c0.2-0.2,0.6-0.3,1-0.5s0.9-0.2,1.4-0.2c0.7,0,1.4,0.1,1.9,0.3s1,0.5,1.2,0.9
		c0.3,0.4,0.4,0.8,0.5,1.4l-1.5,0.2c-0.1-0.5-0.3-0.9-0.6-1.1s-0.8-0.4-1.4-0.4c-0.7,0-1.2,0.1-1.6,0.4s-0.5,0.5-0.5,0.8
		c0,0.2,0.1,0.4,0.2,0.6c0.1,0.2,0.3,0.3,0.6,0.4c0.2,0.1,0.6,0.2,1.4,0.4c1.1,0.3,1.9,0.5,2.3,0.7s0.8,0.5,1,0.8s0.4,0.8,0.4,1.4
		c0,0.5-0.2,1-0.5,1.5c-0.3,0.5-0.8,0.8-1.3,1.1c-0.6,0.3-1.2,0.4-2,0.4c-1.2,0-2.1-0.3-2.8-0.8S598.9,482.6,598.7,481.6z"/>
</g>
<g class="st2">
	<path class="st3" d="M349.2,509.8c-0.9-1.1-1.6-2.4-2.2-3.9s-0.9-3-0.9-4.6c0-1.4,0.2-2.7,0.7-4c0.5-1.5,1.3-3,2.4-4.4h1.1
		c-0.7,1.2-1.2,2.1-1.4,2.6c-0.4,0.8-0.6,1.7-0.8,2.5c-0.3,1.1-0.4,2.2-0.4,3.3c0,2.8,0.9,5.6,2.6,8.4H349.2z"/>
	<path class="st3" d="M352.3,506v-12.9h1.7v11.4h6.3v1.5H352.3z"/>
	<path class="st3" d="M368.3,506v-1.4c-0.7,1.1-1.7,1.6-3,1.6c-0.6,0-1.1-0.1-1.5-0.3s-0.8-0.5-1.1-0.8s-0.4-0.7-0.5-1.2
		c-0.1-0.3-0.1-0.8-0.1-1.5v-5.8h1.6v5.2c0,0.8,0,1.4,0.1,1.7c0.1,0.4,0.3,0.7,0.6,1c0.3,0.2,0.7,0.4,1.2,0.4s0.9-0.1,1.3-0.4
		s0.7-0.6,0.9-1c0.2-0.4,0.3-1,0.3-1.8v-5h1.6v9.3H368.3z"/>
	<path class="st3" d="M371.1,506l3.4-4.9l-3.2-4.5h2l1.4,2.2c0.3,0.4,0.5,0.8,0.7,1c0.3-0.4,0.5-0.7,0.7-1l1.6-2.2h1.9l-3.2,4.4
		l3.5,4.9h-1.9l-1.9-2.9l-0.5-0.8l-2.5,3.7H371.1z"/>
	<path class="st3" d="M387.6,503l1.6,0.2c-0.3,1-0.7,1.7-1.4,2.2s-1.6,0.8-2.7,0.8c-1.4,0-2.4-0.4-3.2-1.3c-0.8-0.8-1.2-2-1.2-3.5
		c0-1.6,0.4-2.8,1.2-3.7s1.9-1.3,3.1-1.3c1.2,0,2.3,0.4,3.1,1.3s1.2,2,1.2,3.6c0,0.1,0,0.2,0,0.4h-7c0.1,1,0.3,1.8,0.9,2.4
		s1.2,0.8,2,0.8c0.6,0,1.1-0.2,1.5-0.5S387.4,503.7,387.6,503z M382.4,500.4h5.2c-0.1-0.8-0.3-1.4-0.6-1.8c-0.5-0.6-1.2-0.9-2-0.9
		c-0.7,0-1.3,0.2-1.8,0.7S382.5,499.6,382.4,500.4z"/>
	<path class="st3" d="M391.2,506v-9.3h1.4v1.3c0.3-0.5,0.7-0.8,1.2-1.1s1-0.4,1.7-0.4c0.7,0,1.3,0.1,1.7,0.4s0.8,0.7,0.9,1.2
		c0.7-1.1,1.7-1.6,2.9-1.6c0.9,0,1.6,0.3,2.1,0.8s0.7,1.3,0.7,2.4v6.4h-1.6v-5.9c0-0.6-0.1-1.1-0.2-1.4s-0.3-0.5-0.6-0.7
		s-0.6-0.3-0.9-0.3c-0.7,0-1.2,0.2-1.6,0.7c-0.4,0.4-0.7,1.1-0.7,2.1v5.4h-1.6v-6.1c0-0.7-0.1-1.2-0.4-1.6s-0.7-0.5-1.3-0.5
		c-0.4,0-0.9,0.1-1.2,0.4s-0.7,0.6-0.8,1s-0.3,1.1-0.3,2v4.8H391.2z"/>
	<path class="st3" d="M407.7,506h-1.5v-12.9h1.6v4.6c0.7-0.8,1.5-1.3,2.6-1.3c0.6,0,1.1,0.1,1.6,0.3s0.9,0.6,1.3,1
		c0.3,0.4,0.6,0.9,0.8,1.5s0.3,1.2,0.3,1.9c0,1.6-0.4,2.8-1.2,3.7s-1.7,1.3-2.8,1.3c-1.1,0-2-0.5-2.6-1.4V506z M407.6,501.3
		c0,1.1,0.2,1.9,0.5,2.4c0.5,0.8,1.2,1.2,2,1.2c0.7,0,1.3-0.3,1.8-0.9s0.8-1.5,0.8-2.7c0-1.2-0.2-2.1-0.7-2.7s-1.1-0.9-1.8-0.9
		c-0.7,0-1.3,0.3-1.8,0.9C407.9,499.3,407.6,500.1,407.6,501.3z"/>
	<path class="st3" d="M422.3,506v-1.4c-0.7,1.1-1.7,1.6-3,1.6c-0.6,0-1.1-0.1-1.5-0.3s-0.8-0.5-1.1-0.8s-0.4-0.7-0.5-1.2
		c-0.1-0.3-0.1-0.8-0.1-1.5v-5.8h1.6v5.2c0,0.8,0,1.4,0.1,1.7c0.1,0.4,0.3,0.7,0.6,1c0.3,0.2,0.7,0.4,1.2,0.4s0.9-0.1,1.3-0.4
		s0.7-0.6,0.9-1c0.2-0.4,0.3-1,0.3-1.8v-5h1.6v9.3H422.3z"/>
	<path class="st3" d="M426.2,506v-9.3h1.4v1.4c0.4-0.7,0.7-1.1,1-1.3s0.6-0.3,1-0.3c0.5,0,1.1,0.2,1.6,0.5l-0.5,1.5
		c-0.4-0.2-0.8-0.3-1.2-0.3c-0.3,0-0.7,0.1-0.9,0.3s-0.5,0.5-0.6,0.9c-0.2,0.6-0.3,1.2-0.3,1.8v4.9H426.2z"/>
	<path class="st3" d="M431.9,506.8l1.5,0.2c0.1,0.5,0.2,0.8,0.5,1c0.4,0.3,0.9,0.4,1.6,0.4c0.7,0,1.3-0.1,1.7-0.4s0.7-0.7,0.8-1.2
		c0.1-0.3,0.1-1,0.1-2c-0.7,0.8-1.6,1.2-2.6,1.2c-1.3,0-2.3-0.5-3-1.4s-1.1-2-1.1-3.3c0-0.9,0.2-1.7,0.5-2.5
		c0.3-0.8,0.8-1.3,1.4-1.7s1.3-0.6,2.2-0.6c1.1,0,2,0.4,2.7,1.3v-1.1h1.5v8.1c0,1.5-0.1,2.5-0.4,3.1c-0.3,0.6-0.8,1.1-1.4,1.4
		s-1.4,0.5-2.4,0.5c-1.1,0-2-0.3-2.7-0.8C432.2,508.5,431.9,507.8,431.9,506.8z M433.2,501.2c0,1.2,0.2,2.1,0.7,2.7s1.1,0.8,1.8,0.8
		c0.7,0,1.3-0.3,1.8-0.8s0.7-1.4,0.7-2.6c0-1.1-0.3-2-0.8-2.6s-1.1-0.9-1.8-0.9c-0.7,0-1.3,0.3-1.8,0.9
		C433.5,499.2,433.2,500,433.2,501.2z"/>
	<path class="st3" d="M448.6,503l1.6,0.2c-0.3,1-0.7,1.7-1.4,2.2s-1.6,0.8-2.7,0.8c-1.4,0-2.4-0.4-3.2-1.3c-0.8-0.8-1.2-2-1.2-3.5
		c0-1.6,0.4-2.8,1.2-3.7s1.9-1.3,3.1-1.3c1.2,0,2.3,0.4,3.1,1.3s1.2,2,1.2,3.6c0,0.1,0,0.2,0,0.4h-7c0.1,1,0.3,1.8,0.9,2.4
		s1.2,0.8,2,0.8c0.6,0,1.1-0.2,1.5-0.5S448.4,503.7,448.6,503z M443.4,500.4h5.2c-0.1-0.8-0.3-1.4-0.6-1.8c-0.5-0.6-1.2-0.9-2-0.9
		c-0.7,0-1.3,0.2-1.8,0.7S443.5,499.6,443.4,500.4z"/>
	<path class="st3" d="M452.2,506v-9.3h1.4v1.4c0.4-0.7,0.7-1.1,1-1.3s0.6-0.3,1-0.3c0.5,0,1.1,0.2,1.6,0.5l-0.5,1.5
		c-0.4-0.2-0.8-0.3-1.2-0.3c-0.3,0-0.7,0.1-0.9,0.3s-0.5,0.5-0.6,0.9c-0.2,0.6-0.3,1.2-0.3,1.8v4.9H452.2z"/>
	<path class="st3" d="M461,506l4.9-12.9h1.8l5.3,12.9h-1.9l-1.5-3.9h-5.4l-1.4,3.9H461z M464.8,500.7h4.4l-1.3-3.6
		c-0.4-1.1-0.7-2-0.9-2.7c-0.2,0.8-0.4,1.6-0.7,2.5L464.8,500.7z"/>
	<path class="st3" d="M474.7,506v-12.9h1.7V506H474.7z"/>
	<path class="st3" d="M479.5,506v-12.9h8.7v1.5h-7v4h6v1.5h-6v5.9H479.5z"/>
	<path class="st3" d="M490.4,506v-12.9h2.6l3,9.1c0.3,0.8,0.5,1.5,0.6,1.9c0.1-0.5,0.4-1.2,0.7-2.1l3.1-9h2.3V506h-1.6v-10.8
		l-3.7,10.8h-1.5l-3.7-11v11H490.4z"/>
	<path class="st3" d="M504.6,502.1v-1.6h4.9v1.6H504.6z"/>
	<path class="st3" d="M511.5,506v-12.9h8.7v1.5h-7v4h6v1.5h-6v5.9H511.5z"/>
	<path class="st3" d="M521.6,501.3c0-1.7,0.5-3,1.4-3.8c0.8-0.7,1.8-1,2.9-1c1.3,0,2.3,0.4,3.1,1.3s1.2,2,1.2,3.5
		c0,1.2-0.2,2.1-0.5,2.8c-0.4,0.7-0.9,1.2-1.6,1.6s-1.4,0.6-2.3,0.6c-1.3,0-2.4-0.4-3.2-1.3S521.6,502.9,521.6,501.3z M523.3,501.3
		c0,1.2,0.3,2.1,0.8,2.7c0.5,0.6,1.2,0.9,2,0.9c0.8,0,1.4-0.3,2-0.9s0.8-1.5,0.8-2.7c0-1.2-0.3-2-0.8-2.6c-0.5-0.6-1.2-0.9-2-0.9
		c-0.8,0-1.4,0.3-2,0.9S523.3,500.1,523.3,501.3z"/>
	<path class="st3" d="M532.2,506v-9.3h1.4v1.3c0.7-1,1.7-1.5,3-1.5c0.6,0,1.1,0.1,1.6,0.3c0.5,0.2,0.8,0.5,1.1,0.8s0.4,0.7,0.5,1.2
		c0.1,0.3,0.1,0.8,0.1,1.5v5.7h-1.6v-5.7c0-0.6-0.1-1.1-0.2-1.4s-0.3-0.6-0.7-0.8c-0.3-0.2-0.7-0.3-1.1-0.3c-0.7,0-1.3,0.2-1.7,0.6
		s-0.7,1.2-0.7,2.4v5.1H532.2z"/>
	<path class="st3" d="M548.3,506v-1.2c-0.6,0.9-1.5,1.4-2.6,1.4c-0.7,0-1.4-0.2-2.1-0.6s-1.1-1-1.5-1.7c-0.3-0.7-0.5-1.6-0.5-2.5
		c0-0.9,0.2-1.8,0.5-2.5s0.8-1.3,1.4-1.7s1.3-0.6,2.1-0.6c0.6,0,1.1,0.1,1.5,0.4c0.4,0.2,0.8,0.5,1.1,0.9v-4.6h1.6V506H548.3z
		 M543.3,501.3c0,1.2,0.3,2.1,0.8,2.7s1.1,0.9,1.8,0.9c0.7,0,1.3-0.3,1.8-0.8s0.7-1.4,0.7-2.6c0-1.3-0.2-2.2-0.7-2.8
		s-1.1-0.9-1.8-0.9c-0.7,0-1.3,0.3-1.8,0.9S543.3,500.1,543.3,501.3z"/>
	<path class="st3" d="M551.6,503.2l1.6-0.2c0.1,0.6,0.3,1.1,0.7,1.4s1,0.5,1.7,0.5c0.7,0,1.3-0.1,1.6-0.4s0.5-0.6,0.5-1
		c0-0.4-0.2-0.6-0.5-0.8c-0.2-0.1-0.8-0.3-1.6-0.5c-1.2-0.3-2-0.5-2.4-0.8s-0.8-0.5-1-0.9c-0.2-0.4-0.3-0.8-0.3-1.3
		c0-0.4,0.1-0.8,0.3-1.2c0.2-0.4,0.5-0.6,0.8-0.9c0.2-0.2,0.6-0.3,1-0.5s0.9-0.2,1.4-0.2c0.7,0,1.4,0.1,1.9,0.3s1,0.5,1.2,0.9
		c0.3,0.4,0.4,0.8,0.5,1.4l-1.5,0.2c-0.1-0.5-0.3-0.9-0.6-1.1s-0.8-0.4-1.4-0.4c-0.7,0-1.2,0.1-1.6,0.4s-0.5,0.5-0.5,0.8
		c0,0.2,0.1,0.4,0.2,0.6c0.1,0.2,0.3,0.3,0.6,0.4c0.2,0.1,0.6,0.2,1.4,0.4c1.1,0.3,1.9,0.5,2.3,0.7s0.8,0.5,1,0.8s0.4,0.8,0.4,1.4
		c0,0.5-0.2,1-0.5,1.5c-0.3,0.5-0.8,0.8-1.3,1.1c-0.6,0.3-1.2,0.4-2,0.4c-1.2,0-2.1-0.3-2.8-0.8S551.8,504.2,551.6,503.2z"/>
	<path class="st3" d="M562.3,509.8h-1.1c1.8-2.8,2.6-5.6,2.6-8.4c0-1.1-0.1-2.2-0.4-3.3c-0.2-0.9-0.5-1.7-0.8-2.5
		c-0.2-0.5-0.7-1.4-1.4-2.6h1.1c1.1,1.5,1.9,2.9,2.4,4.4c0.5,1.3,0.7,2.6,0.7,4c0,1.6-0.3,3.1-0.9,4.6S563.2,508.7,562.3,509.8z"/>
</g>
<g class="st2">
	<path class="st3" d="M36.2,480.2v-12.9h1.7v5.3h6.7v-5.3h1.7v12.9h-1.7v-6.1h-6.7v6.1H36.2z"/>
	<path class="st3" d="M48.3,475.5c0-1.7,0.5-3,1.4-3.8c0.8-0.7,1.8-1,2.9-1c1.3,0,2.3,0.4,3.1,1.3s1.2,2,1.2,3.5
		c0,1.2-0.2,2.1-0.5,2.8c-0.4,0.7-0.9,1.2-1.6,1.6s-1.4,0.6-2.3,0.6c-1.3,0-2.4-0.4-3.2-1.3S48.3,477.1,48.3,475.5z M49.9,475.5
		c0,1.2,0.3,2.1,0.8,2.7c0.5,0.6,1.2,0.9,2,0.9c0.8,0,1.4-0.3,2-0.9s0.8-1.5,0.8-2.7c0-1.2-0.3-2-0.8-2.6c-0.5-0.6-1.2-0.9-2-0.9
		c-0.8,0-1.4,0.3-2,0.9S49.9,474.3,49.9,475.5z"/>
	<path class="st3" d="M65,476.7l1.6,0.2c-0.2,1.1-0.6,1.9-1.3,2.5c-0.7,0.6-1.6,0.9-2.6,0.9c-1.3,0-2.3-0.4-3.1-1.3
		c-0.8-0.8-1.2-2-1.2-3.6c0-1,0.2-1.9,0.5-2.6s0.8-1.3,1.5-1.7c0.7-0.4,1.4-0.6,2.2-0.6c1,0,1.8,0.3,2.5,0.8s1.1,1.2,1.2,2.2
		l-1.5,0.2c-0.1-0.6-0.4-1.1-0.8-1.4s-0.8-0.5-1.3-0.5c-0.8,0-1.4,0.3-1.9,0.9c-0.5,0.6-0.7,1.5-0.7,2.7c0,1.3,0.2,2.2,0.7,2.7
		s1.1,0.9,1.9,0.9c0.6,0,1.1-0.2,1.6-0.6S64.9,477.5,65,476.7z"/>
	<path class="st3" d="M67.9,480.2v-12.9h1.6v4.6c0.7-0.9,1.7-1.3,2.8-1.3c0.7,0,1.3,0.1,1.8,0.4c0.5,0.3,0.9,0.6,1.1,1.1
		s0.3,1.2,0.3,2.1v5.9h-1.6v-5.9c0-0.8-0.2-1.4-0.5-1.7c-0.3-0.4-0.8-0.5-1.5-0.5c-0.5,0-0.9,0.1-1.3,0.4c-0.4,0.2-0.7,0.6-0.9,1
		s-0.3,1-0.3,1.7v5.1H67.9z"/>
	<path class="st3" d="M79.6,480.2l-2.9-9.3h1.6l1.5,5.4l0.6,2c0-0.1,0.2-0.7,0.5-1.9l1.5-5.5h1.6l1.4,5.4l0.5,1.8l0.5-1.8l1.6-5.4
		h1.5l-2.9,9.3H85l-1.5-5.6l-0.4-1.6l-1.9,7.2H79.6z"/>
	<path class="st3" d="M97.3,477.1l1.6,0.2c-0.3,1-0.7,1.7-1.4,2.2s-1.6,0.8-2.7,0.8c-1.4,0-2.4-0.4-3.2-1.3c-0.8-0.8-1.2-2-1.2-3.5
		c0-1.6,0.4-2.8,1.2-3.7s1.9-1.3,3.1-1.3c1.2,0,2.3,0.4,3.1,1.3s1.2,2,1.2,3.6c0,0.1,0,0.2,0,0.4h-7c0.1,1,0.3,1.8,0.9,2.4
		s1.2,0.8,2,0.8c0.6,0,1.1-0.2,1.5-0.5S97.1,477.8,97.3,477.1z M92.1,474.6h5.2c-0.1-0.8-0.3-1.4-0.6-1.8c-0.5-0.6-1.2-0.9-2-0.9
		c-0.7,0-1.3,0.2-1.8,0.7S92.2,473.8,92.1,474.6z"/>
	<path class="st3" d="M100.9,480.2v-9.3h1.4v1.4c0.4-0.7,0.7-1.1,1-1.3s0.6-0.3,1-0.3c0.5,0,1.1,0.2,1.6,0.5l-0.5,1.5
		c-0.4-0.2-0.8-0.3-1.2-0.3c-0.3,0-0.7,0.1-0.9,0.3s-0.5,0.5-0.6,0.9c-0.2,0.6-0.3,1.2-0.3,1.8v4.9H100.9z"/>
	<path class="st3" d="M110.4,478.7l0.2,1.4c-0.4,0.1-0.8,0.1-1.2,0.1c-0.6,0-1-0.1-1.3-0.3s-0.5-0.4-0.7-0.7s-0.2-0.9-0.2-1.9V472
		h-1.2v-1.2h1.2v-2.3l1.6-0.9v3.3h1.6v1.2h-1.6v5.5c0,0.5,0,0.7,0.1,0.9s0.1,0.2,0.3,0.3s0.3,0.1,0.5,0.1
		C109.9,478.8,110.1,478.8,110.4,478.7z"/>
	<path class="st3" d="M111.9,469.1v-1.8h1.6v1.8H111.9z M111.9,480.2v-9.3h1.6v9.3H111.9z"/>
	<path class="st3" d="M115.6,480.9l1.5,0.2c0.1,0.5,0.2,0.8,0.5,1c0.4,0.3,0.9,0.4,1.6,0.4c0.7,0,1.3-0.1,1.7-0.4s0.7-0.7,0.8-1.2
		c0.1-0.3,0.1-1,0.1-2c-0.7,0.8-1.6,1.2-2.6,1.2c-1.3,0-2.3-0.5-3-1.4s-1.1-2-1.1-3.3c0-0.9,0.2-1.7,0.5-2.5
		c0.3-0.8,0.8-1.3,1.4-1.7s1.3-0.6,2.2-0.6c1.1,0,2,0.4,2.7,1.3v-1.1h1.5v8.1c0,1.5-0.1,2.5-0.4,3.1c-0.3,0.6-0.8,1.1-1.4,1.4
		s-1.4,0.5-2.4,0.5c-1.1,0-2-0.3-2.7-0.8C115.9,482.7,115.6,481.9,115.6,480.9z M116.9,475.3c0,1.2,0.2,2.1,0.7,2.7s1.1,0.8,1.8,0.8
		c0.7,0,1.3-0.3,1.8-0.8s0.7-1.4,0.7-2.6c0-1.1-0.3-2-0.8-2.6s-1.1-0.9-1.8-0.9c-0.7,0-1.3,0.3-1.8,0.9
		C117.2,473.3,116.9,474.2,116.9,475.3z"/>
	<path class="st3" d="M132.3,477.1l1.6,0.2c-0.3,1-0.7,1.7-1.4,2.2s-1.6,0.8-2.7,0.8c-1.4,0-2.4-0.4-3.2-1.3c-0.8-0.8-1.2-2-1.2-3.5
		c0-1.6,0.4-2.8,1.2-3.7s1.9-1.3,3.1-1.3c1.2,0,2.3,0.4,3.1,1.3s1.2,2,1.2,3.6c0,0.1,0,0.2,0,0.4h-7c0.1,1,0.3,1.8,0.9,2.4
		s1.2,0.8,2,0.8c0.6,0,1.1-0.2,1.5-0.5S132.1,477.8,132.3,477.1z M127.1,474.6h5.2c-0.1-0.8-0.3-1.4-0.6-1.8c-0.5-0.6-1.2-0.9-2-0.9
		c-0.7,0-1.3,0.2-1.8,0.7S127.2,473.8,127.1,474.6z"/>
</g>
<g class="st2">
	<path class="st3" d="M15.1,496.7v-1.5l5.5,0v4.8c-0.8,0.7-1.7,1.2-2.6,1.5c-0.9,0.3-1.8,0.5-2.7,0.5c-1.3,0-2.4-0.3-3.5-0.8
		c-1-0.5-1.8-1.3-2.3-2.4s-0.8-2.2-0.8-3.4c0-1.3,0.3-2.4,0.8-3.5c0.5-1.1,1.3-1.9,2.3-2.4s2.1-0.8,3.4-0.8c0.9,0,1.8,0.2,2.5,0.5
		c0.8,0.3,1.3,0.7,1.8,1.3s0.8,1.2,1,2.1l-1.5,0.4c-0.2-0.7-0.4-1.2-0.7-1.5s-0.7-0.7-1.2-0.9s-1.1-0.3-1.8-0.3
		c-0.8,0-1.5,0.1-2,0.4c-0.6,0.2-1,0.5-1.4,0.9s-0.6,0.8-0.8,1.3c-0.3,0.8-0.5,1.7-0.5,2.6c0,1.1,0.2,2.1,0.6,2.9s1,1.3,1.7,1.7
		s1.6,0.6,2.4,0.6c0.7,0,1.5-0.1,2.2-0.4s1.2-0.6,1.6-0.9v-2.4H15.1z"/>
	<path class="st3" d="M29.3,498.7l1.6,0.2c-0.3,1-0.7,1.7-1.4,2.2s-1.6,0.8-2.7,0.8c-1.4,0-2.4-0.4-3.2-1.3c-0.8-0.8-1.2-2-1.2-3.5
		c0-1.6,0.4-2.8,1.2-3.7s1.9-1.3,3.1-1.3c1.2,0,2.3,0.4,3.1,1.3s1.2,2,1.2,3.6c0,0.1,0,0.2,0,0.4h-7c0.1,1,0.3,1.8,0.9,2.4
		s1.2,0.8,2,0.8c0.6,0,1.1-0.2,1.5-0.5S29,499.4,29.3,498.7z M24.1,496.2h5.2c-0.1-0.8-0.3-1.4-0.6-1.8c-0.5-0.6-1.2-0.9-2-0.9
		c-0.7,0-1.3,0.2-1.8,0.7S24.1,495.4,24.1,496.2z"/>
	<path class="st3" d="M34.6,501.8l-2.9-9.3h1.6l1.5,5.4l0.6,2c0-0.1,0.2-0.7,0.5-1.9l1.5-5.5H39l1.4,5.4l0.5,1.8l0.5-1.8l1.6-5.4
		h1.5l-2.9,9.3H40l-1.5-5.6l-0.4-1.6l-1.9,7.2H34.6z"/>
	<path class="st3" d="M52.3,498.7l1.6,0.2c-0.3,1-0.7,1.7-1.4,2.2s-1.6,0.8-2.7,0.8c-1.4,0-2.4-0.4-3.2-1.3c-0.8-0.8-1.2-2-1.2-3.5
		c0-1.6,0.4-2.8,1.2-3.7s1.9-1.3,3.1-1.3c1.2,0,2.3,0.4,3.1,1.3s1.2,2,1.2,3.6c0,0.1,0,0.2,0,0.4h-7c0.1,1,0.3,1.8,0.9,2.4
		s1.2,0.8,2,0.8c0.6,0,1.1-0.2,1.5-0.5S52.1,499.4,52.3,498.7z M47.1,496.2h5.2c-0.1-0.8-0.3-1.4-0.6-1.8c-0.5-0.6-1.2-0.9-2-0.9
		c-0.7,0-1.3,0.2-1.8,0.7S47.2,495.4,47.1,496.2z"/>
	<path class="st3" d="M55.9,501.8v-9.3h1.4v1.4c0.4-0.7,0.7-1.1,1-1.3s0.6-0.3,1-0.3c0.5,0,1.1,0.2,1.6,0.5l-0.5,1.5
		c-0.4-0.2-0.8-0.3-1.2-0.3c-0.3,0-0.7,0.1-0.9,0.3s-0.5,0.5-0.6,0.9c-0.2,0.6-0.3,1.2-0.3,1.8v4.9H55.9z"/>
	<path class="st3" d="M63.4,501.8h-1.5v-12.9h1.6v4.6c0.7-0.8,1.5-1.3,2.6-1.3c0.6,0,1.1,0.1,1.6,0.3s0.9,0.6,1.3,1
		c0.3,0.4,0.6,0.9,0.8,1.5s0.3,1.2,0.3,1.9c0,1.6-0.4,2.8-1.2,3.7S67.1,502,66,502c-1.1,0-2-0.5-2.6-1.4V501.8z M63.4,497
		c0,1.1,0.2,1.9,0.5,2.4c0.5,0.8,1.2,1.2,2,1.2c0.7,0,1.3-0.3,1.8-0.9s0.8-1.5,0.8-2.7c0-1.2-0.2-2.1-0.7-2.7s-1.1-0.9-1.8-0.9
		c-0.7,0-1.3,0.3-1.8,0.9C63.6,495,63.4,495.9,63.4,497z"/>
	<path class="st3" d="M78.3,498.7l1.6,0.2c-0.3,1-0.7,1.7-1.4,2.2s-1.6,0.8-2.7,0.8c-1.4,0-2.4-0.4-3.2-1.3c-0.8-0.8-1.2-2-1.2-3.5
		c0-1.6,0.4-2.8,1.2-3.7s1.9-1.3,3.1-1.3c1.2,0,2.3,0.4,3.1,1.3s1.2,2,1.2,3.6c0,0.1,0,0.2,0,0.4h-7c0.1,1,0.3,1.8,0.9,2.4
		s1.2,0.8,2,0.8c0.6,0,1.1-0.2,1.5-0.5S78.1,499.4,78.3,498.7z M73.1,496.2h5.2c-0.1-0.8-0.3-1.4-0.6-1.8c-0.5-0.6-1.2-0.9-2-0.9
		c-0.7,0-1.3,0.2-1.8,0.7S73.2,495.4,73.1,496.2z"/>
	<path class="st3" d="M81.9,490.7v-1.8h1.6v1.8H81.9z M81.9,501.8v-9.3h1.6v9.3H81.9z"/>
	<path class="st3" d="M85.9,501.8v-9.3h1.4v1.3c0.3-0.5,0.7-0.8,1.2-1.1s1-0.4,1.7-0.4c0.7,0,1.3,0.1,1.7,0.4s0.8,0.7,0.9,1.2
		c0.7-1.1,1.7-1.6,2.9-1.6c0.9,0,1.6,0.3,2.1,0.8s0.7,1.3,0.7,2.4v6.4H97v-5.9c0-0.6-0.1-1.1-0.2-1.4s-0.3-0.5-0.6-0.7
		s-0.6-0.3-0.9-0.3c-0.7,0-1.2,0.2-1.6,0.7c-0.4,0.4-0.7,1.1-0.7,2.1v5.4h-1.6v-6.1c0-0.7-0.1-1.2-0.4-1.6s-0.7-0.5-1.3-0.5
		c-0.4,0-0.9,0.1-1.2,0.4s-0.7,0.6-0.8,1s-0.3,1.1-0.3,2v4.8H85.9z"/>
	<path class="st3" d="M100.9,501.8v-9.3h1.4v1.3c0.3-0.5,0.7-0.8,1.2-1.1s1-0.4,1.7-0.4c0.7,0,1.3,0.1,1.7,0.4s0.8,0.7,0.9,1.2
		c0.7-1.1,1.7-1.6,2.9-1.6c0.9,0,1.6,0.3,2.1,0.8s0.7,1.3,0.7,2.4v6.4H112v-5.9c0-0.6-0.1-1.1-0.2-1.4s-0.3-0.5-0.6-0.7
		s-0.6-0.3-0.9-0.3c-0.7,0-1.2,0.2-1.6,0.7c-0.4,0.4-0.7,1.1-0.7,2.1v5.4h-1.6v-6.1c0-0.7-0.1-1.2-0.4-1.6s-0.7-0.5-1.3-0.5
		c-0.4,0-0.9,0.1-1.2,0.4s-0.7,0.6-0.8,1s-0.3,1.1-0.3,2v4.8H100.9z"/>
	<path class="st3" d="M115.3,497.1c0-1.7,0.5-3,1.4-3.8c0.8-0.7,1.8-1,2.9-1c1.3,0,2.3,0.4,3.1,1.3s1.2,2,1.2,3.5
		c0,1.2-0.2,2.1-0.5,2.8c-0.4,0.7-0.9,1.2-1.6,1.6s-1.4,0.6-2.3,0.6c-1.3,0-2.4-0.4-3.2-1.3S115.3,498.7,115.3,497.1z M117,497.1
		c0,1.2,0.3,2.1,0.8,2.7c0.5,0.6,1.2,0.9,2,0.9c0.8,0,1.4-0.3,2-0.9s0.8-1.5,0.8-2.7c0-1.2-0.3-2-0.8-2.6c-0.5-0.6-1.2-0.9-2-0.9
		c-0.8,0-1.4,0.3-2,0.9S117,495.9,117,497.1z"/>
	<path class="st3" d="M127.4,501.8h-1.5v-12.9h1.6v4.6c0.7-0.8,1.5-1.3,2.6-1.3c0.6,0,1.1,0.1,1.6,0.3s0.9,0.6,1.3,1
		c0.3,0.4,0.6,0.9,0.8,1.5s0.3,1.2,0.3,1.9c0,1.6-0.4,2.8-1.2,3.7s-1.7,1.3-2.8,1.3c-1.1,0-2-0.5-2.6-1.4V501.8z M127.4,497
		c0,1.1,0.2,1.9,0.5,2.4c0.5,0.8,1.2,1.2,2,1.2c0.7,0,1.3-0.3,1.8-0.9s0.8-1.5,0.8-2.7c0-1.2-0.2-2.1-0.7-2.7s-1.1-0.9-1.8-0.9
		c-0.7,0-1.3,0.3-1.8,0.9C127.6,495,127.4,495.9,127.4,497z"/>
	<path class="st3" d="M136,490.7v-1.8h1.6v1.8H136z M136,501.8v-9.3h1.6v9.3H136z"/>
	<path class="st3" d="M139.9,501.8v-12.9h1.6v12.9H139.9z"/>
	<path class="st3" d="M144,490.7v-1.8h1.6v1.8H144z M144,501.8v-9.3h1.6v9.3H144z"/>
	<path class="st3" d="M154.3,498.7l1.6,0.2c-0.3,1-0.7,1.7-1.4,2.2s-1.6,0.8-2.7,0.8c-1.4,0-2.4-0.4-3.2-1.3c-0.8-0.8-1.2-2-1.2-3.5
		c0-1.6,0.4-2.8,1.2-3.7s1.9-1.3,3.1-1.3c1.2,0,2.3,0.4,3.1,1.3s1.2,2,1.2,3.6c0,0.1,0,0.2,0,0.4h-7c0.1,1,0.3,1.8,0.9,2.4
		s1.2,0.8,2,0.8c0.6,0,1.1-0.2,1.5-0.5S154.1,499.4,154.3,498.7z M149.1,496.2h5.2c-0.1-0.8-0.3-1.4-0.6-1.8c-0.5-0.6-1.2-0.9-2-0.9
		c-0.7,0-1.3,0.2-1.8,0.7S149.2,495.4,149.1,496.2z"/>
	<path class="st3" d="M158,501.8v-9.3h1.4v1.3c0.7-1,1.7-1.5,3-1.5c0.6,0,1.1,0.1,1.6,0.3c0.5,0.2,0.8,0.5,1.1,0.8s0.4,0.7,0.5,1.2
		c0.1,0.3,0.1,0.8,0.1,1.5v5.7H164v-5.7c0-0.6-0.1-1.1-0.2-1.4s-0.3-0.6-0.7-0.8c-0.3-0.2-0.7-0.3-1.1-0.3c-0.7,0-1.3,0.2-1.7,0.6
		s-0.7,1.2-0.7,2.4v5.1H158z"/>
</g>
<g class="st2">
	<path d="M399.7,96.3V82h1.9v5.9h7.4V82h1.9v14.3H409v-6.7h-7.4v6.7H399.7z"/>
	<path d="M413.2,91.1c0-1.9,0.5-3.3,1.6-4.3c0.9-0.8,2-1.2,3.3-1.2c1.4,0,2.6,0.5,3.5,1.4s1.4,2.2,1.4,3.9c0,1.3-0.2,2.4-0.6,3.1
		s-1,1.4-1.7,1.8s-1.6,0.6-2.5,0.6c-1.5,0-2.6-0.5-3.5-1.4S413.2,92.8,413.2,91.1z M415,91.1c0,1.3,0.3,2.3,0.9,3s1.3,1,2.2,1
		c0.9,0,1.6-0.3,2.2-1s0.9-1.7,0.9-3c0-1.3-0.3-2.3-0.9-2.9s-1.3-1-2.2-1c-0.9,0-1.6,0.3-2.2,1S415,89.8,415,91.1z"/>
	<path d="M431.8,96.3v-1.5c-0.8,1.2-1.9,1.8-3.3,1.8c-0.6,0-1.2-0.1-1.7-0.4s-0.9-0.5-1.2-0.9s-0.4-0.8-0.5-1.3
		c-0.1-0.3-0.1-0.9-0.1-1.6v-6.4h1.8v5.8c0,0.9,0,1.5,0.1,1.9c0.1,0.5,0.3,0.8,0.7,1.1s0.8,0.4,1.3,0.4s1-0.1,1.5-0.4s0.8-0.6,1-1.1
		s0.3-1.1,0.3-2v-5.6h1.8v10.4H431.8z"/>
	<path d="M435.4,93.2l1.7-0.3c0.1,0.7,0.4,1.2,0.8,1.6s1.1,0.6,1.9,0.6c0.8,0,1.4-0.2,1.8-0.5s0.6-0.7,0.6-1.2
		c0-0.4-0.2-0.7-0.5-0.9c-0.2-0.2-0.8-0.4-1.8-0.6c-1.3-0.3-2.2-0.6-2.7-0.8s-0.9-0.6-1.1-1s-0.4-0.9-0.4-1.4c0-0.5,0.1-0.9,0.3-1.3
		s0.5-0.7,0.9-1c0.3-0.2,0.6-0.4,1.1-0.5s1-0.2,1.5-0.2c0.8,0,1.5,0.1,2.1,0.4s1.1,0.6,1.4,1s0.5,0.9,0.6,1.6l-1.7,0.2
		c-0.1-0.5-0.3-1-0.7-1.3s-0.9-0.4-1.6-0.4c-0.8,0-1.4,0.1-1.7,0.4s-0.5,0.6-0.5,0.9c0,0.2,0.1,0.4,0.2,0.6c0.1,0.2,0.4,0.3,0.7,0.5
		c0.2,0.1,0.7,0.2,1.6,0.4c1.2,0.3,2.1,0.6,2.6,0.8s0.9,0.5,1.2,0.9s0.4,0.9,0.4,1.5c0,0.6-0.2,1.1-0.5,1.7s-0.8,0.9-1.5,1.2
		s-1.4,0.4-2.2,0.4c-1.3,0-2.4-0.3-3.1-0.8S435.6,94.3,435.4,93.2z"/>
	<path d="M453.2,92.9l1.8,0.2c-0.3,1.1-0.8,1.9-1.6,2.5s-1.8,0.9-3,0.9c-1.5,0-2.7-0.5-3.6-1.4s-1.3-2.2-1.3-3.9
		c0-1.7,0.4-3.1,1.3-4.1s2.1-1.4,3.5-1.4c1.4,0,2.5,0.5,3.4,1.4s1.3,2.3,1.3,4c0,0.1,0,0.3,0,0.5h-7.7c0.1,1.1,0.4,2,1,2.6
		s1.3,0.9,2.2,0.9c0.6,0,1.2-0.2,1.7-0.5S452.9,93.7,453.2,92.9z M447.4,90.1h5.8c-0.1-0.9-0.3-1.5-0.7-2c-0.6-0.7-1.3-1-2.2-1
		c-0.8,0-1.5,0.3-2,0.8S447.5,89.2,447.4,90.1z"/>
	<path d="M461.1,96.3V83.6h-4.7V82h11.3v1.7H463v12.6H461.1z"/>
	<path d="M466.6,91.1c0-1.9,0.5-3.3,1.6-4.3c0.9-0.8,2-1.2,3.3-1.2c1.4,0,2.6,0.5,3.5,1.4s1.4,2.2,1.4,3.9c0,1.3-0.2,2.4-0.6,3.1
		s-1,1.4-1.7,1.8s-1.6,0.6-2.5,0.6c-1.5,0-2.6-0.5-3.5-1.4S466.6,92.8,466.6,91.1z M468.4,91.1c0,1.3,0.3,2.3,0.9,3s1.3,1,2.2,1
		c0.9,0,1.6-0.3,2.2-1s0.9-1.7,0.9-3c0-1.3-0.3-2.3-0.9-2.9s-1.3-1-2.2-1c-0.9,0-1.6,0.3-2.2,1S468.4,89.8,468.4,91.1z"/>
	<path d="M478.4,96.3V82h1.8v8.2l4.2-4.2h2.3l-4,3.8l4.4,6.5h-2.2l-3.4-5.3l-1.2,1.2v4.1H478.4z"/>
	<path d="M495.5,92.9l1.8,0.2c-0.3,1.1-0.8,1.9-1.6,2.5s-1.8,0.9-3,0.9c-1.5,0-2.7-0.5-3.6-1.4s-1.3-2.2-1.3-3.9
		c0-1.7,0.4-3.1,1.3-4.1s2.1-1.4,3.5-1.4c1.4,0,2.5,0.5,3.4,1.4s1.3,2.3,1.3,4c0,0.1,0,0.3,0,0.5h-7.7c0.1,1.1,0.4,2,1,2.6
		s1.3,0.9,2.2,0.9c0.6,0,1.2-0.2,1.7-0.5S495.2,93.7,495.5,92.9z M489.7,90.1h5.8c-0.1-0.9-0.3-1.5-0.7-2c-0.6-0.7-1.3-1-2.2-1
		c-0.8,0-1.5,0.3-2,0.8S489.7,89.2,489.7,90.1z"/>
	<path d="M499.5,96.3V85.9h1.6v1.5c0.8-1.1,1.9-1.7,3.3-1.7c0.6,0,1.2,0.1,1.7,0.3s0.9,0.5,1.2,0.9s0.4,0.8,0.5,1.3
		c0.1,0.3,0.1,0.9,0.1,1.7v6.4h-1.8V90c0-0.7-0.1-1.3-0.2-1.6s-0.4-0.6-0.7-0.8s-0.8-0.3-1.2-0.3c-0.7,0-1.4,0.2-1.9,0.7
		s-0.8,1.4-0.8,2.7v5.7H499.5z"/>
	<path d="M523.1,90.7V89l6.1,0v5.3c-0.9,0.7-1.9,1.3-2.9,1.7s-2,0.6-3,0.6c-1.4,0-2.7-0.3-3.8-0.9s-2-1.5-2.6-2.6s-0.9-2.4-0.9-3.8
		c0-1.4,0.3-2.7,0.9-3.9s1.4-2.1,2.5-2.7s2.4-0.9,3.8-0.9c1,0,2,0.2,2.8,0.5s1.5,0.8,2,1.4s0.8,1.4,1.1,2.3l-1.7,0.5
		c-0.2-0.7-0.5-1.3-0.8-1.7s-0.8-0.8-1.4-1s-1.3-0.4-2-0.4c-0.9,0-1.6,0.1-2.2,0.4s-1.1,0.6-1.5,1s-0.7,0.9-0.9,1.4
		c-0.4,0.9-0.5,1.8-0.5,2.9c0,1.3,0.2,2.3,0.7,3.2s1.1,1.5,1.9,1.9s1.7,0.6,2.7,0.6c0.8,0,1.6-0.2,2.4-0.5s1.4-0.7,1.8-1v-2.7H523.1
		z"/>
	<path d="M531.7,96.3V85.9h1.6v1.5c0.3-0.5,0.8-0.9,1.3-1.2s1.2-0.5,1.8-0.5c0.8,0,1.4,0.2,1.9,0.5s0.8,0.8,1,1.3
		c0.8-1.2,1.9-1.8,3.2-1.8c1,0,1.8,0.3,2.4,0.9s0.8,1.4,0.8,2.6v7.1H544v-6.5c0-0.7-0.1-1.2-0.2-1.5s-0.3-0.6-0.6-0.7
		s-0.7-0.3-1.1-0.3c-0.7,0-1.3,0.2-1.8,0.7s-0.7,1.3-0.7,2.3v6h-1.8v-6.7c0-0.8-0.1-1.4-0.4-1.8s-0.8-0.6-1.4-0.6
		c-0.5,0-1,0.1-1.4,0.4s-0.7,0.6-0.9,1.1s-0.3,1.2-0.3,2.2v5.4H531.7z"/>
	<path d="M550,96.3h-1.6V82h1.8v5.1c0.7-0.9,1.7-1.4,2.8-1.4c0.6,0,1.2,0.1,1.8,0.4s1,0.6,1.4,1.1s0.7,1,0.9,1.7s0.3,1.4,0.3,2.1
		c0,1.8-0.4,3.2-1.3,4.1s-1.9,1.5-3.2,1.5c-1.2,0-2.2-0.5-2.9-1.5V96.3z M550,91c0,1.2,0.2,2.1,0.5,2.7c0.6,0.9,1.3,1.4,2.2,1.4
		c0.8,0,1.4-0.3,2-1s0.8-1.7,0.8-3c0-1.4-0.3-2.4-0.8-3s-1.2-1-1.9-1c-0.8,0-1.4,0.3-2,1S550,89.7,550,91z"/>
	<path d="M559.8,96.3V82h1.9v5.9h7.4V82h1.9v14.3h-1.9v-6.7h-7.4v6.7H559.8z"/>
</g>
<g class="st2">
	<path d="M415.6,124.5c-1-1.2-1.8-2.7-2.5-4.3s-1-3.3-1-5.1c0-1.5,0.3-3,0.8-4.5c0.6-1.6,1.5-3.3,2.7-4.9h1.3
		c-0.8,1.4-1.3,2.3-1.6,2.9c-0.4,0.9-0.7,1.8-0.9,2.8c-0.3,1.2-0.4,2.4-0.4,3.7c0,3.1,1,6.3,2.9,9.4H415.6z"/>
	<path d="M429.3,115.3l1.9,0.5c-0.4,1.6-1.1,2.7-2.1,3.6s-2.3,1.2-3.8,1.2c-1.5,0-2.8-0.3-3.8-0.9s-1.7-1.5-2.2-2.7
		s-0.8-2.5-0.8-3.8c0-1.5,0.3-2.8,0.9-3.9s1.4-2,2.4-2.5s2.2-0.9,3.5-0.9c1.4,0,2.6,0.4,3.6,1.1s1.7,1.8,2,3.1l-1.9,0.4
		c-0.3-1-0.8-1.8-1.4-2.3s-1.4-0.7-2.4-0.7c-1.1,0-2,0.3-2.8,0.8s-1.3,1.2-1.6,2.1s-0.4,1.8-0.4,2.7c0,1.2,0.2,2.3,0.5,3.2
		s0.9,1.6,1.7,2s1.6,0.7,2.4,0.7c1.1,0,2-0.3,2.7-0.9S429.1,116.5,429.3,115.3z"/>
	<path d="M440.1,119c-0.7,0.6-1.3,0.9-1.9,1.2s-1.2,0.3-1.9,0.3c-1.1,0-2-0.3-2.6-0.8s-0.9-1.3-0.9-2.1c0-0.5,0.1-1,0.3-1.4
		s0.5-0.8,0.9-1s0.8-0.4,1.3-0.6c0.3-0.1,0.9-0.2,1.6-0.3c1.4-0.2,2.5-0.4,3.1-0.6c0-0.2,0-0.4,0-0.5c0-0.7-0.2-1.2-0.5-1.5
		c-0.4-0.4-1.1-0.6-2-0.6c-0.8,0-1.4,0.1-1.8,0.4s-0.7,0.8-0.9,1.5l-1.7-0.2c0.2-0.7,0.4-1.3,0.8-1.8s0.9-0.8,1.6-1s1.5-0.4,2.4-0.4
		c0.9,0,1.6,0.1,2.2,0.3s1,0.5,1.2,0.8s0.4,0.7,0.5,1.2c0.1,0.3,0.1,0.8,0.1,1.6v2.3c0,1.6,0,2.7,0.1,3.1s0.2,0.8,0.4,1.2h-1.8
		C440.3,119.9,440.1,119.5,440.1,119z M439.9,115.1c-0.6,0.3-1.6,0.5-2.9,0.7c-0.7,0.1-1.2,0.2-1.5,0.4s-0.5,0.3-0.7,0.6
		s-0.2,0.5-0.2,0.8c0,0.5,0.2,0.9,0.5,1.2s0.9,0.5,1.6,0.5c0.7,0,1.3-0.1,1.8-0.4s0.9-0.7,1.2-1.2c0.2-0.4,0.3-1,0.3-1.8V115.1z"/>
	<path d="M444.4,124.3l-0.2-1.7c0.4,0.1,0.7,0.2,1,0.2c0.4,0,0.7-0.1,0.9-0.2s0.4-0.3,0.6-0.5c0.1-0.2,0.3-0.6,0.5-1.3
		c0-0.1,0.1-0.2,0.2-0.4l-3.9-10.4h1.9l2.2,6c0.3,0.8,0.5,1.6,0.8,2.4c0.2-0.8,0.4-1.6,0.7-2.4l2.2-6h1.8l-3.9,10.5
		c-0.4,1.1-0.8,1.9-1,2.4c-0.3,0.6-0.7,1-1.1,1.3s-0.9,0.4-1.4,0.4C445.2,124.5,444.8,124.4,444.4,124.3z"/>
	<path d="M454.5,120.3v-10.4h1.6v1.5c0.3-0.5,0.8-0.9,1.3-1.2s1.2-0.5,1.8-0.5c0.8,0,1.4,0.2,1.9,0.5s0.8,0.8,1,1.3
		c0.8-1.2,1.9-1.8,3.2-1.8c1,0,1.8,0.3,2.4,0.9s0.8,1.4,0.8,2.6v7.1h-1.7v-6.5c0-0.7-0.1-1.2-0.2-1.5s-0.3-0.6-0.6-0.7
		s-0.7-0.3-1.1-0.3c-0.7,0-1.3,0.2-1.8,0.7s-0.7,1.3-0.7,2.3v6h-1.8v-6.7c0-0.8-0.1-1.4-0.4-1.8s-0.8-0.6-1.4-0.6
		c-0.5,0-1,0.1-1.4,0.4s-0.7,0.6-0.9,1.1s-0.3,1.2-0.3,2.2v5.4H454.5z"/>
	<path d="M477.9,119c-0.7,0.6-1.3,0.9-1.9,1.2s-1.2,0.3-1.9,0.3c-1.1,0-2-0.3-2.6-0.8s-0.9-1.3-0.9-2.1c0-0.5,0.1-1,0.3-1.4
		s0.5-0.8,0.9-1s0.8-0.4,1.3-0.6c0.3-0.1,0.9-0.2,1.6-0.3c1.4-0.2,2.5-0.4,3.1-0.6c0-0.2,0-0.4,0-0.5c0-0.7-0.2-1.2-0.5-1.5
		c-0.4-0.4-1.1-0.6-2-0.6c-0.8,0-1.4,0.1-1.8,0.4s-0.7,0.8-0.9,1.5l-1.7-0.2c0.2-0.7,0.4-1.3,0.8-1.8s0.9-0.8,1.6-1s1.5-0.4,2.4-0.4
		c0.9,0,1.6,0.1,2.2,0.3s1,0.5,1.2,0.8s0.4,0.7,0.5,1.2c0.1,0.3,0.1,0.8,0.1,1.6v2.3c0,1.6,0,2.7,0.1,3.1s0.2,0.8,0.4,1.2h-1.8
		C478,119.9,477.9,119.5,477.9,119z M477.7,115.1c-0.6,0.3-1.6,0.5-2.9,0.7c-0.7,0.1-1.2,0.2-1.5,0.4s-0.5,0.3-0.7,0.6
		s-0.2,0.5-0.2,0.8c0,0.5,0.2,0.9,0.5,1.2s0.9,0.5,1.6,0.5c0.7,0,1.3-0.1,1.8-0.4s0.9-0.7,1.2-1.2c0.2-0.4,0.3-1,0.3-1.8V115.1z"/>
	<path d="M482.2,120.3v-10.4h1.6v1.5c0.8-1.1,1.9-1.7,3.3-1.7c0.6,0,1.2,0.1,1.7,0.3s0.9,0.5,1.2,0.9s0.4,0.8,0.5,1.3
		c0.1,0.3,0.1,0.9,0.1,1.7v6.4h-1.8V114c0-0.7-0.1-1.3-0.2-1.6s-0.4-0.6-0.7-0.8s-0.8-0.3-1.2-0.3c-0.7,0-1.4,0.2-1.9,0.7
		s-0.8,1.4-0.8,2.7v5.7H482.2z"/>
	<path d="M505.8,114.7V113l6.1,0v5.3c-0.9,0.7-1.9,1.3-2.9,1.7s-2,0.6-3,0.6c-1.4,0-2.7-0.3-3.8-0.9s-2-1.5-2.6-2.6
		s-0.9-2.4-0.9-3.8c0-1.4,0.3-2.7,0.9-3.9s1.4-2.1,2.5-2.7s2.4-0.9,3.8-0.9c1,0,2,0.2,2.8,0.5s1.5,0.8,2,1.4s0.8,1.4,1.1,2.3
		l-1.7,0.5c-0.2-0.7-0.5-1.3-0.8-1.7s-0.8-0.8-1.4-1s-1.3-0.4-2-0.4c-0.9,0-1.6,0.1-2.2,0.4s-1.1,0.6-1.5,1s-0.7,0.9-0.9,1.4
		c-0.4,0.9-0.5,1.8-0.5,2.9c0,1.3,0.2,2.3,0.7,3.2s1.1,1.5,1.9,1.9s1.7,0.6,2.7,0.6c0.8,0,1.6-0.2,2.4-0.5s1.4-0.7,1.8-1v-2.7H505.8
		z"/>
	<path d="M514.5,120.3v-10.4h1.6v1.5c0.3-0.5,0.8-0.9,1.3-1.2s1.2-0.5,1.8-0.5c0.8,0,1.4,0.2,1.9,0.5s0.8,0.8,1,1.3
		c0.8-1.2,1.9-1.8,3.2-1.8c1,0,1.8,0.3,2.4,0.9s0.8,1.4,0.8,2.6v7.1h-1.7v-6.5c0-0.7-0.1-1.2-0.2-1.5s-0.3-0.6-0.6-0.7
		s-0.7-0.3-1.1-0.3c-0.7,0-1.3,0.2-1.8,0.7s-0.7,1.3-0.7,2.3v6h-1.8v-6.7c0-0.8-0.1-1.4-0.4-1.8s-0.8-0.6-1.4-0.6
		c-0.5,0-1,0.1-1.4,0.4s-0.7,0.6-0.9,1.1s-0.3,1.2-0.3,2.2v5.4H514.5z"/>
	<path d="M532.8,120.3h-1.6V106h1.8v5.1c0.7-0.9,1.7-1.4,2.8-1.4c0.6,0,1.2,0.1,1.8,0.4s1,0.6,1.4,1.1s0.7,1,0.9,1.7
		s0.3,1.4,0.3,2.1c0,1.8-0.4,3.2-1.3,4.1s-1.9,1.5-3.2,1.5c-1.2,0-2.2-0.5-2.9-1.5V120.3z M532.7,115c0,1.2,0.2,2.1,0.5,2.7
		c0.6,0.9,1.3,1.4,2.2,1.4c0.8,0,1.4-0.3,2-1s0.8-1.7,0.8-3c0-1.4-0.3-2.4-0.8-3s-1.2-1-1.9-1c-0.8,0-1.4,0.3-2,1
		S532.7,113.7,532.7,115z"/>
	<path d="M542.5,120.3V106h1.9v5.9h7.4V106h1.9v14.3h-1.9v-6.7h-7.4v6.7H542.5z"/>
	<path d="M557.8,124.5h-1.3c1.9-3.1,2.9-6.3,2.9-9.4c0-1.2-0.1-2.4-0.4-3.6c-0.2-1-0.5-1.9-0.9-2.8c-0.3-0.6-0.8-1.6-1.6-2.9h1.3
		c1.2,1.6,2.1,3.3,2.7,4.9c0.5,1.4,0.8,2.9,0.8,4.5c0,1.8-0.3,3.5-1,5.1S558.8,123.3,557.8,124.5z"/>
</g>
</svg>
