<?xml version="1.0" encoding="utf-8"?>
<!-- Generator: Adobe Illustrator 23.0.0, SVG Export Plug-In . SVG Version: 6.00 Build 0)  -->
<svg version="1.1" id="运作原理" xmlns="http://www.w3.org/2000/svg" xmlns:xlink="http://www.w3.org/1999/xlink" x="0px"
	 y="0px" viewBox="0 0 705 383" style="enable-background:new 0 0 705 383;" xml:space="preserve">
<style type="text/css">
	.st0{fill:none;stroke:#90A7AB;}
	.st1{fill:none;stroke:#70DBCB;}
	.st2{fill:#9FE7DD;stroke:#34B9A1;stroke-width:2;}
	.st3{enable-background:new    ;}
	.st4{fill:#456E68;}
	.st5{fill:none;stroke:#456E68;stroke-width:1.5;stroke-miterlimit:10;}
	.st6{fill:#70DBCB;}
</style>
<path id="形状_1_拷贝_3" class="st0" d="M63.1,175.9l0.1,71.4l4.6-2"/>
<path id="形状_1_拷贝_5" class="st0" d="M622,153l-0.1-71l-4.6,2"/>
<path id="形状_1" class="st0" d="M108,89h90.5l42.5,42.5l-0.3-5.5"/>
<path id="形状_1_拷贝_2" class="st0" d="M240.7,162h-90.2l-42.4-42.9l0.3,5.6"/>
<path id="形状_1_拷贝" class="st0" d="M560,201h-88.4L430,242.3l0.3-5.4"/>
<path id="形状_1_拷贝_4" class="st0" d="M430.3,272h88.2l41.4-41.7l-0.3,5.4"/>
<circle id="椭圆_7-2" class="st1" cx="487.3" cy="167" r="19"/>
<circle id="椭圆_6" class="st2" cx="339" cy="187" r="94"/>
<g class="st3">
	<path class="st4" d="M646.4,186.4H638v8.4h8.4V186.4z M643.6,192h-2.8v-2.8h2.8V192z"/>
	<path class="st4" d="M657.6,186.4h-8.4v8.4h8.4V186.4z M654.8,192H652v-2.8h2.8V192z"/>
	<path class="st4" d="M646.4,197.6H638v8.4h8.4V197.6z M643.6,203.2h-2.8v-2.8h2.8V203.2z"/>
	<path class="st4" d="M657.6,197.6h-8.4v8.4h8.4V197.6z M654.8,203.2H652v-2.8h2.8V203.2z"/>
	<path class="st4" d="M646.4,217.2v-8.4H638v8.4H646.4z M640.8,211.6h2.8v2.8h-2.8V211.6z"/>
	<path class="st4" d="M657.6,208.8h-8.4v8.4h8.4V208.8z M654.8,214.4H652v-2.8h2.8V214.4z"/>
	<path class="st4" d="M666,183.6v-2.8h-2.8v-5.6h-2.8v-5.6h-25.2v5.6h-2.8v5.6h-2.8v2.8h2.8V220h-11.2v-16.8h2.8v-8.4h-2.8v-2.1
		l-19.6-13.6l-8.4,5.8v-4.3h-8.4v10.1l-2.8,1.9v2.1h-2.8v8.4h2.8v17.1c-1.6,0.6-2.8,2.1-2.8,3.9v2.8c0,2.3,1.9,4.2,4.2,4.2h27.3
		c-2.2,2.7-3.5,6.1-3.5,9.8c0,8.5,6.9,15.4,15.4,15.4S638,249.5,638,241c0-3.7-1.3-7.1-3.5-9.8h27.3c2.3,0,4.2-1.9,4.2-4.2v-2.8
		c0-1.8-1.2-3.4-2.8-3.9v-36.7H666z M638,172.4h19.6v2.8H638V172.4z M635.2,178h25.2v2.8h-25.2V178z M587.6,183.4h2.8v3.5l-2.8,1.9
		V183.4z M584.8,194.2l16.8-11.6l16.8,11.6v0.7h-33.6V194.2z M582,197.6h39.2v2.8H582V197.6z M618.4,203.2V220h-11.2v-14H596v14
		h-11.2v-16.8H618.4z M604.4,220h-5.6v-11.2h5.6V220z M622.6,253.6c-6.9,0-12.6-5.7-12.6-12.6c0-6.9,5.7-12.6,12.6-12.6
		s12.6,5.7,12.6,12.6C635.2,248,629.6,253.6,622.6,253.6z M663.2,227c0,0.8-0.6,1.4-1.4,1.4h-30.4c-2.5-1.8-5.5-2.8-8.8-2.8
		s-6.3,1-8.8,2.8h-30.4c-0.8,0-1.4-0.6-1.4-1.4v-2.8c0-0.8,0.6-1.4,1.4-1.4h78.4c0.8,0,1.4,0.6,1.4,1.4V227z M660.4,220h-25.2v-36.4
		h25.2V220z"/>
</g>
<g class="st3">
	<g>
		<g>
			<path class="st4" d="M96.5,278.4H86.4c1-0.8,1.6-1.9,1.6-3.2c0-2.3-1.8-4.1-4.1-4.1s-4.1,1.8-4.1,4.1c0,0.7,0.2,1.3,0.5,1.9
				l-1.5,1.3H58.9c-0.6-1.5-2.1-2.5-3.8-2.5s-3.2,1-3.8,2.5H29c-1.8,0-3.3,1.5-3.3,3.3v8c0,0.6,0.5,1.1,1.1,1.1s1.1-0.5,1.1-1.1v-8
				c0-0.6,0.5-1.1,1.1-1.1h22c0.1,0.4,0.2,0.8,0.3,1.2l-9.1,8.3c-0.6-0.4-1.4-0.7-2.2-0.7c-2.3,0-4.1,1.8-4.1,4.1s1.8,4.1,4.1,4.1
				s4.1-1.8,4.1-4.1c0-0.7-0.2-1.3-0.4-1.8l9.1-8.3c0.7,0.5,1.5,0.7,2.3,0.7c1.2,0,2.2-0.5,3-1.3l7.4,4.4c-0.1,0.3-0.1,0.5-0.1,0.8
				c0,2.3,1.8,4.1,4.1,4.1s4.1-1.8,4.1-4.1c0-0.6-0.1-1.2-0.4-1.7l6.4-5.8h16.9c0.6,0,1.1,0.5,1.1,1.1v26.8c0,0.6,0.5,1.1,1.1,1.1
				s1.1-0.5,1.1-1.1v-26.8C99.8,279.8,98.3,278.4,96.5,278.4z M40,295.4c-1.1,0-1.9-0.9-1.9-1.9c0-1.1,0.9-1.9,1.9-1.9
				s1.9,0.9,1.9,1.9S41.1,295.4,40,295.4z M55.1,281.9c-1.1,0-1.9-0.9-1.9-1.9c0-1.1,0.9-1.9,1.9-1.9S57,279,57,280
				S56.2,281.9,55.1,281.9z M69.5,290c-1.1,0-1.9-0.9-1.9-1.9c0-1.1,0.9-1.9,1.9-1.9s1.9,0.9,1.9,1.9C71.5,289.1,70.6,290,69.5,290z
				 M71.9,284.7c-0.7-0.5-1.5-0.8-2.4-0.8c-1.2,0-2.3,0.5-3.1,1.4l-7.3-4.4c0-0.1,0.1-0.3,0.1-0.4h17.2L71.9,284.7z M83.9,277.1
				c-1.1,0-1.9-0.9-1.9-1.9s0.9-1.9,1.9-1.9s1.9,0.9,1.9,1.9S85,277.1,83.9,277.1z"/>
		</g>
	</g>
	<g>
		<g>
			<path class="st4" d="M99.8,312.8c0-0.6-0.5-1.1-1.1-1.1s-1.1,0.5-1.1,1.1v8.2h-8v-25.7v-4.4v-4.5c0-0.6-0.5-1.1-1.1-1.1h-8.2
				c-0.6,0-1.1,0.5-1.1,1.1v4.5v4.4V321h-4.1v-5.5V311v-4.5c0-0.6-0.5-1.1-1.1-1.1h-8c-0.6,0-1.1,0.5-1.1,1.1v4.5v4.4v5.5h-4.1
				v-19.5V297v-4.5c0-0.6-0.5-1.1-1.1-1.1h-8.2c-0.6,0-1.1,0.5-1.1,1.1v4.5v4.4v6.1c0,0.6,0.5,1.1,1.1,1.1s1.1-0.5,1.1-1.1v-5h6
				v18.4h-6v-9.1c0-0.6-0.5-1.1-1.1-1.1s-1.1,0.5-1.1,1.1v9.1h-4.1v-5.5V311v-4.5c0-0.6-0.5-1.1-1.1-1.1H37c-0.6,0-1.1,0.5-1.1,1.1
				v4.5v4.4v5.5h-8.2v-27c0-0.6-0.5-1.1-1.1-1.1s-1.1,0.5-1.1,1.1v35.9c0,1.8,1.5,3.3,3.3,3.3h23.8l-0.6,5.4h-5
				c-0.6,0-1.1,0.5-1.1,1.1v3.8c0,0.6,0.5,1.1,1.1,1.1h31.5c0.6,0,1.1-0.5,1.1-1.1v-3.8c0-0.6-0.5-1.1-1.1-1.1h-5.2l-0.6-5.4h23.8
				c1.8,0,3.3-1.5,3.3-3.3V322l0,0V312.8L99.8,312.8z M81.5,287.4h6v2.3h-6V287.4z M81.5,291.9h6v2.3h-6V291.9z M81.5,296.3h6v24.6
				h-6V296.3z M67.1,307.6h6v2.3h-6V307.6z M67.1,312.1h6v2.3h-6V312.1z M67.1,316.5h6v4.4h-6V316.5z M52.7,295.9v-2.3h6v2.3H52.7z
				 M52.7,300.3V298h6v2.3H52.7z M38.3,307.6h6v2.3h-6V307.6z M38.3,312.1h6v2.3h-6V312.1z M38.3,316.5h6v4.4h-6V316.5z M77.5,340.7
				v1.6H48.1v-1.6H77.5z M54.3,338.5l0.6-5.4h15.6l0.6,5.4H54.3z M96.5,331H29c-0.6,0-1.1-0.5-1.1-1.1v-6.7h69.7v6.7l0,0
				C97.6,330.5,97.1,331,96.5,331z"/>
		</g>
	</g>
</g>
<g class="st3">
	<g>
		<g>
			<path class="st4" d="M601.9,25.6h-8.5c-0.6,0-1.1,0.5-1.1,1.1V31c0,0.6,0.5,1.1,1.1,1.1h8.5c0.6,0,1.1-0.5,1.1-1.1v-4.3
				C602.9,26.1,602.5,25.6,601.9,25.6z M596.5,29.9h-2.1v-2.1h2.1V29.9z M600.8,29.9h-2.1v-2.1h2.1V29.9z"/>
		</g>
	</g>
	<g>
		<g>
			<path class="st4" d="M601.9,34.1h-8.5c-0.6,0-1.1,0.5-1.1,1.1v4.3c0,0.6,0.5,1.1,1.1,1.1h8.5c0.6,0,1.1-0.5,1.1-1.1v-4.3
				C602.9,34.6,602.5,34.1,601.9,34.1z M596.5,38.4h-2.1v-2.1h2.1V38.4z M600.8,38.4h-2.1v-2.1h2.1V38.4z"/>
		</g>
	</g>
	<g>
		<g>
			<path class="st4" d="M601.9,42.7h-8.5c-0.6,0-1.1,0.5-1.1,1.1V48c0,0.6,0.5,1.1,1.1,1.1h8.5c0.6,0,1.1-0.5,1.1-1.1v-4.3
				C602.9,43.1,602.5,42.7,601.9,42.7z M596.5,46.9h-2.1v-2.1h2.1V46.9z M600.8,46.9h-2.1v-2.1h2.1V46.9z"/>
		</g>
	</g>
	<g>
		<g>
			<path class="st4" d="M640.3,25.6h-8.5c-0.6,0-1.1,0.5-1.1,1.1V31c0,0.6,0.5,1.1,1.1,1.1h8.5c0.6,0,1.1-0.5,1.1-1.1v-4.3
				C641.3,26.1,640.9,25.6,640.3,25.6z M634.9,29.9h-2.1v-2.1h2.1V29.9z M639.2,29.9h-2.1v-2.1h2.1V29.9z"/>
		</g>
	</g>
	<g>
		<g>
			<path class="st4" d="M640.3,17.1h-8.5c-0.6,0-1.1,0.5-1.1,1.1v4.3c0,0.6,0.5,1.1,1.1,1.1h8.5c0.6,0,1.1-0.5,1.1-1.1v-4.3
				C641.3,17.5,640.9,17.1,640.3,17.1z M634.9,21.3h-2.1v-2.1h2.1V21.3z M639.2,21.3h-2.1v-2.1h2.1V21.3z"/>
		</g>
	</g>
	<g>
		<g>
			<path class="st4" d="M614.7,29.9h-4.3c-0.6,0-1.1,0.5-1.1,1.1v4.3c0,0.6,0.5,1.1,1.1,1.1h4.3c0.6,0,1.1-0.5,1.1-1.1V31
				C615.7,30.3,615.3,29.9,614.7,29.9z M613.6,34.1h-2.1V32h2.1V34.1z"/>
		</g>
	</g>
	<g>
		<g>
			<path class="st4" d="M623.2,29.9h-4.3c-0.6,0-1.1,0.5-1.1,1.1v4.3c0,0.6,0.5,1.1,1.1,1.1h4.3c0.6,0,1.1-0.5,1.1-1.1V31
				C624.3,30.3,623.8,29.9,623.2,29.9z M622.1,34.1H620V32h2.1V34.1z"/>
		</g>
	</g>
	<g>
		<g>
			<path class="st4" d="M614.7,21.3h-4.3c-0.6,0-1.1,0.5-1.1,1.1v4.3c0,0.6,0.5,1.1,1.1,1.1h4.3c0.6,0,1.1-0.5,1.1-1.1v-4.3
				C615.7,21.8,615.3,21.3,614.7,21.3z M613.6,25.6h-2.1v-2.1h2.1V25.6z"/>
		</g>
	</g>
	<g>
		<g>
			<path class="st4" d="M623.2,21.3h-4.3c-0.6,0-1.1,0.5-1.1,1.1v4.3c0,0.6,0.5,1.1,1.1,1.1h4.3c0.6,0,1.1-0.5,1.1-1.1v-4.3
				C624.3,21.8,623.8,21.3,623.2,21.3z M622.1,25.6H620v-2.1h2.1V25.6z"/>
		</g>
	</g>
	<g>
		<g>
			<path class="st4" d="M614.7,12.8h-4.3c-0.6,0-1.1,0.5-1.1,1.1v4.3c0,0.6,0.5,1.1,1.1,1.1h4.3c0.6,0,1.1-0.5,1.1-1.1v-4.3
				C615.7,13.3,615.3,12.8,614.7,12.8z M613.6,17.1h-2.1V15h2.1V17.1z"/>
		</g>
	</g>
	<g>
		<g>
			<path class="st4" d="M623.2,12.8h-4.3c-0.6,0-1.1,0.5-1.1,1.1v4.3c0,0.6,0.5,1.1,1.1,1.1h4.3c0.6,0,1.1-0.5,1.1-1.1v-4.3
				C624.3,13.3,623.8,12.8,623.2,12.8z M622.1,17.1H620V15h2.1V17.1z"/>
		</g>
	</g>
	<g>
		<g>
			<path class="st4" d="M614.7,42.7h-4.3c-0.6,0-1.1,0.5-1.1,1.1V48c0,0.6,0.5,1.1,1.1,1.1h4.3c0.6,0,1.1-0.5,1.1-1.1v-4.3
				C615.7,43.1,615.3,42.7,614.7,42.7z M613.6,46.9h-2.1v-2.1h2.1V46.9z"/>
		</g>
	</g>
	<g>
		<g>
			<rect x="592.3" y="51.2" class="st4" width="2.1" height="2.1"/>
		</g>
	</g>
	<g>
		<g>
			<rect x="596.5" y="51.2" class="st4" width="2.1" height="2.1"/>
		</g>
	</g>
	<g>
		<g>
			<rect x="600.8" y="51.2" class="st4" width="2.1" height="2.1"/>
		</g>
	</g>
	<g>
		<g>
			<path class="st4" d="M650.9,38.4h-5.3V13.9c0-0.6-0.5-1.1-1.1-1.1H637v-1.7l1.1-1.1c0.9,0.7,2,1.1,3.1,1.1c1.4,0,2.7-0.5,3.7-1.5
				l0.2-0.2c0.4-0.4,0.4-1.1,0-1.5l-2.4-2.4l2.4-2.4l-1.5-1.5L641.2,4l-3.5-3.5c-0.2-0.2-0.5-0.3-0.8-0.3c-0.4,0-0.7,0.2-0.9,0.4
				c-1.1,1-1.7,2.3-1.7,3.7s0.5,2.9,1.6,3.9l0.5,0.5l-1.4,1.4c-0.2,0.2-0.3,0.5-0.3,0.8V13h-6.4V9.6c0-0.6-0.5-1.1-1.1-1.1h-3.7
				l-6.1-8.1c-0.4-0.5-1.3-0.5-1.7,0l-6.1,8.1h-3.7c-0.6,0-1.1,0.5-1.1,1.1v11.7h-6.4v-8.5h-2.1v8.5h-7.5c-0.6,0-1.1,0.5-1.1,1.1
				v40.5c0,0.6,0.5,1.1,1.1,1.1h17.1h7.5h8.5h1.1h6.4h17.1c2.9,0,5.3-2.4,5.3-5.3V39.5C652,38.9,651.5,38.4,650.9,38.4z M605.1,61.9
				h-14.9V23.5h14.9V61.9z M637.1,2.6l5.8,5.8c-1.2,0.7-2.8,0.6-3.9-0.5l-1.5-1.5c-0.6-0.6-1-1.4-0.9-2.3
				C636.7,3.6,636.8,3.1,637.1,2.6z M616.8,2.8l4.3,5.7h-8.5L616.8,2.8z M612.5,53.3v8.5h-5.3V22.4V10.7h19.2v3.2v19.2h2.1V14.9
				h14.9v23.5h-2.1v-1.1c0-1.8-1.4-3.2-3.2-3.2h-6.4c-1.8,0-3.2,1.4-3.2,3.2v1.1h-9.6c-0.6,0-1.1,0.5-1.1,1.1v11.7h-8.5v2.1H612.5z
				 M639.2,37.3v1.1h-8.5v-1.1c0-0.6,0.5-1.1,1.1-1.1h6.4C638.7,36.3,639.2,36.7,639.2,37.3z M614.7,61.9v-8.5h3.2v5.3
				c0,1.2,0.4,2.3,1.1,3.2H614.7z M649.9,58.7c0,1.8-1.4,3.2-3.2,3.2h-17.1h-6.4c-1.8,0-3.2-1.4-3.2-3.2V48c0.9,0.7,2,1.1,3.2,1.1
				h1.1v3.2c0,0.6,0.5,1.1,1.1,1.1h4.3c0.6,0,1.1-0.5,1.1-1.1v-3.2h1.1h6.4h1.1v3.2c0,0.6,0.5,1.1,1.1,1.1h4.3
				c0.6,0,1.1-0.5,1.1-1.1v-3.2h1.1c1.2,0,2.3-0.4,3.2-1.1v10.7H649.9z M626.4,51.2v-2.1h2.1v2.1H626.4z M632.8,46.9v-2.1h4.3v2.1
				H632.8z M641.3,51.2v-2.1h2.1v2.1H641.3z M649.9,43.7c0,1.8-1.4,3.2-3.2,3.2h-2.1h-4.3h-1.1v-3.2c0-0.6-0.5-1.1-1.1-1.1h-6.4
				c-0.6,0-1.1,0.5-1.1,1.1v3.2h-1.1h-4.3h-2.1c-1.8,0-3.2-1.4-3.2-3.2v-3.2h29.9L649.9,43.7L649.9,43.7z"/>
		</g>
	</g>
	<g>
		<g>
			<rect x="645.6" y="57.6" class="st4" width="2.1" height="2.1"/>
		</g>
	</g>
	<g>
		<g>
			<rect x="641.3" y="57.6" class="st4" width="2.1" height="2.1"/>
		</g>
	</g>
	<g>
		<g>
			<rect x="637.1" y="57.6" class="st4" width="2.1" height="2.1"/>
		</g>
	</g>
</g>
<g>
	<circle class="st5" cx="61.9" cy="57.5" r="16.8"/>
	<line class="st5" x1="48.4" y1="83.8" x2="61.9" y2="99.2"/>
	<line class="st5" x1="75" y1="83.8" x2="61.9" y2="99.2"/>
	<line class="st5" x1="61.9" y1="114.5" x2="61.9" y2="99.2"/>
	<path class="st5" d="M97.9,105.7v3.6c0,3.3-2.7,6-6,6H31.8c-3.3,0-6-2.7-6-6v-3.6"/>
	<path class="st5" d="M31.8,99.7"/>
	<path class="st5" d="M25.8,107.4c0-13.6,11.2-24,24.8-24h22.6c13.6,0,24.7,11.1,24.7,24.7l0,0"/>
</g>
<g id="椭圆_7_1_">
	<path class="st6" d="M487.1,186.5c-10.8,0-19.5-8.7-19.5-19.5s8.7-19.5,19.5-19.5s19.5,8.7,19.5,19.5S497.9,186.5,487.1,186.5z
		 M487.1,148.5c-10.2,0-18.5,8.3-18.5,18.5s8.3,18.5,18.5,18.5s18.5-8.3,18.5-18.5S497.3,148.5,487.1,148.5z"/>
</g>
<g>
	<g>
		<path class="st6" d="M481.4,176.6v-1.1c2.2-0.9,3.3-2.5,3.3-4.8v-2.8h-3v-1.2h3v-3.8c0-1.6,0.4-3,1.3-4s2-1.5,3.5-1.5
			c0.8,0,1.6,0.2,2.4,0.5v1.2c-0.8-0.4-1.6-0.6-2.4-0.6c-1.1,0-1.9,0.4-2.6,1.2c-0.6,0.8-0.9,1.9-0.9,3.4v3.6h4v1.2h-4v2.3
			c0,2.6-0.9,4.3-2.8,5.3h9.7v1.1L481.4,176.6L481.4,176.6z"/>
	</g>
</g>
<g id="椭圆_7-2_1_">
	<path class="st6" d="M195.3,209c-10.8,0-19.5-8.7-19.5-19.5s8.7-19.5,19.5-19.5s19.5,8.7,19.5,19.5S206,209,195.3,209z
		 M195.3,171.1c-10.2,0-18.5,8.3-18.5,18.5s8.3,18.5,18.5,18.5s18.5-8.3,18.5-18.5C213.8,179.3,205.5,171.1,195.3,171.1z"/>
</g>
<g>
	<g>
		<g>
			<path class="st6" d="M189.6,199.1V198c2.2-0.9,3.3-2.5,3.3-4.8v-2.8h-3v-1.2h3v-3.8c0-1.6,0.4-3,1.3-4c0.9-1,2-1.5,3.5-1.5
				c0.8,0,1.6,0.2,2.4,0.5v1.2c-0.8-0.4-1.6-0.6-2.4-0.6c-1.1,0-1.9,0.4-2.6,1.2c-0.6,0.8-0.9,1.9-0.9,3.4v3.6h4v1.2h-4v2.3
				c0,2.6-0.9,4.3-2.8,5.3h9.7v1.1L189.6,199.1L189.6,199.1z"/>
		</g>
	</g>
</g>
<g>
	<path class="st4" d="M617.2,248.8v-1.7c1.8-0.5,2.7-1.7,2.7-3.4v-2h-2.4V240h2.4v-2.8c0-1.4,0.4-2.5,1.3-3.4c0.9-0.9,2-1.4,3.3-1.4
		c0.9,0,1.8,0.1,2.5,0.5v1.9c-0.8-0.5-1.7-0.6-2.4-0.6c-1.8,0-2.7,1.1-2.7,3.3v2.5h3.6v1.7h-3.6v1.7c0,1.8-0.8,2.9-2.2,3.8h8.3v1.7
		h-10.8V248.8z"/>
</g>
<g class="st3">
	<path d="M288.6,177.6v-2.2h1.9v2.2H288.6z M288.6,191.1v-11.4h1.9v11.4H288.6z"/>
	<path d="M301.3,187.4l2,0.2c-0.3,1.2-0.9,2.1-1.8,2.7s-1.9,1-3.3,1c-1.7,0-3-0.5-4-1.5s-1.5-2.5-1.5-4.3c0-1.9,0.5-3.4,1.5-4.5
		s2.3-1.6,3.8-1.6s2.8,0.5,3.7,1.6s1.5,2.5,1.5,4.4c0,0.1,0,0.3,0,0.5h-8.5c0.1,1.3,0.4,2.2,1.1,2.9c0.6,0.7,1.4,1,2.4,1
		c0.7,0,1.3-0.2,1.8-0.6C300.6,188.8,301,188.2,301.3,187.4z M294.9,184.3h6.4c-0.1-1-0.3-1.7-0.7-2.2c-0.6-0.7-1.4-1.1-2.4-1.1
		c-0.9,0-1.6,0.3-2.2,0.9C295.3,182.5,295,183.3,294.9,184.3z"/>
	<path d="M307.5,191.1h-1.8v-15.7h1.9v5.6c0.8-1,1.9-1.5,3.1-1.5c0.7,0,1.4,0.1,2,0.4s1.1,0.7,1.5,1.2s0.7,1.1,1,1.9
		c0.2,0.7,0.3,1.5,0.3,2.3c0,2-0.5,3.5-1.5,4.5s-2.1,1.6-3.5,1.6c-1.3,0-2.4-0.6-3.2-1.7v1.4H307.5z M307.4,185.3
		c0,1.4,0.2,2.4,0.6,3c0.6,1,1.4,1.5,2.5,1.5c0.8,0,1.6-0.4,2.2-1.1s0.9-1.8,0.9-3.3s-0.3-2.6-0.9-3.3c-0.6-0.7-1.3-1.1-2.1-1.1
		c-0.8,0-1.6,0.4-2.2,1.1C307.7,182.9,307.4,183.9,307.4,185.3z"/>
	<path d="M317.1,187.7l1.9-0.3c0.1,0.8,0.4,1.4,0.9,1.8s1.2,0.6,2.1,0.6s1.5-0.2,2-0.5c0.4-0.4,0.6-0.8,0.6-1.3c0-0.4-0.2-0.8-0.6-1
		c-0.3-0.2-0.9-0.4-2-0.7c-1.4-0.4-2.4-0.7-2.9-0.9c-0.5-0.3-1-0.6-1.2-1.1c-0.3-0.5-0.4-1-0.4-1.5s0.1-1,0.3-1.4
		c0.2-0.4,0.5-0.8,1-1.1c0.3-0.2,0.7-0.4,1.2-0.6c0.5-0.2,1.1-0.2,1.7-0.2c0.9,0,1.7,0.1,2.4,0.4s1.2,0.6,1.5,1s0.5,1,0.7,1.8
		l-1.9,0.3c-0.1-0.6-0.3-1-0.7-1.4c-0.4-0.3-1-0.5-1.7-0.5c-0.9,0-1.5,0.1-1.9,0.4s-0.6,0.6-0.6,1c0,0.3,0.1,0.5,0.2,0.7
		c0.2,0.2,0.4,0.4,0.7,0.5c0.2,0.1,0.8,0.2,1.7,0.5c1.4,0.4,2.3,0.7,2.9,0.9c0.5,0.2,1,0.6,1.3,1s0.5,1,0.5,1.7
		c0,0.6-0.2,1.3-0.6,1.8c-0.4,0.6-0.9,1-1.6,1.3c-0.7,0.3-1.5,0.5-2.4,0.5c-1.5,0-2.6-0.3-3.4-0.9
		C317.9,189.8,317.4,188.9,317.1,187.7z"/>
	<path d="M328.9,195.5v-15.8h1.8v1.5c0.4-0.6,0.9-1,1.4-1.3c0.5-0.3,1.2-0.4,1.9-0.4c1,0,1.8,0.3,2.6,0.8c0.7,0.5,1.3,1.2,1.7,2.1
		c0.4,0.9,0.6,1.9,0.6,3c0,1.2-0.2,2.2-0.6,3.2c-0.4,0.9-1,1.7-1.8,2.1c-0.8,0.5-1.6,0.7-2.5,0.7c-0.6,0-1.2-0.1-1.7-0.4
		s-0.9-0.6-1.3-1v5.6h-2.1V195.5z M330.7,185.5c0,1.5,0.3,2.6,0.9,3.3c0.6,0.7,1.3,1.1,2.2,1.1c0.9,0,1.6-0.4,2.2-1.1
		c0.6-0.7,0.9-1.9,0.9-3.4s-0.3-2.5-0.9-3.3c-0.6-0.7-1.3-1.1-2.1-1.1c-0.8,0-1.6,0.4-2.2,1.2C331,182.9,330.7,184,330.7,185.5z"/>
	<path d="M341.1,191.1v-11.4h1.7v1.7c0.4-0.8,0.9-1.3,1.2-1.6c0.3-0.3,0.8-0.4,1.2-0.4c0.7,0,1.3,0.2,2,0.6l-0.7,1.8
		c-0.5-0.3-0.9-0.4-1.4-0.4c-0.4,0-0.8,0.1-1.1,0.4c-0.3,0.3-0.6,0.6-0.7,1.1c-0.2,0.7-0.3,1.4-0.3,2.3v6h-1.9V191.1z"/>
	<path d="M348.5,177.6v-2.2h1.9v2.2H348.5z M348.5,191.1v-11.4h1.9v11.4H348.5z"/>
	<path d="M353.4,191.1v-11.4h1.7v1.6c0.8-1.3,2-1.9,3.6-1.9c0.7,0,1.3,0.1,1.9,0.4c0.6,0.2,1,0.6,1.3,1s0.5,0.9,0.6,1.4
		c0.1,0.4,0.1,1,0.1,1.9v7h-1.9v-6.9c0-0.8-0.1-1.4-0.2-1.8c-0.2-0.4-0.4-0.7-0.8-0.9c-0.4-0.2-0.8-0.3-1.3-0.3
		c-0.8,0-1.5,0.3-2.1,0.8s-0.9,1.5-0.9,3v6.2h-2V191.1z"/>
	<path d="M364.6,191.1v-1.6l7.3-8.3c-0.8,0-1.6,0.1-2.2,0.1H365v-1.6h9.3v1.3l-6.2,7.2l-1.2,1.3c0.9-0.1,1.7-0.1,2.4-0.1h5.3v1.7
		H364.6L364.6,191.1z"/>
	<path d="M376.6,177.6v-2.2h1.9v2.2H376.6z M376.6,191.1v-11.4h1.9v11.4H376.6z"/>
	<path d="M381.5,195.5v-15.8h1.8v1.5c0.4-0.6,0.9-1,1.4-1.3c0.5-0.3,1.2-0.4,1.9-0.4c1,0,1.8,0.3,2.6,0.8s1.3,1.2,1.7,2.1
		c0.4,0.9,0.6,1.9,0.6,3c0,1.2-0.2,2.2-0.6,3.2c-0.4,0.9-1,1.7-1.8,2.1c-0.8,0.5-1.6,0.7-2.5,0.7c-0.6,0-1.2-0.1-1.7-0.4
		s-0.9-0.6-1.3-1v5.6h-2.1V195.5z M383.2,185.5c0,1.5,0.3,2.6,0.9,3.3c0.6,0.7,1.3,1.1,2.2,1.1c0.9,0,1.6-0.4,2.2-1.1
		c0.6-0.7,0.9-1.9,0.9-3.4s-0.3-2.5-0.9-3.3c-0.6-0.7-1.3-1.1-2.1-1.1c-0.8,0-1.6,0.4-2.2,1.2C383.6,182.9,383.2,184,383.2,185.5z"
		/>
</g>
<g class="st3">
	<path class="st4" d="M11.2,364.8v-1.3h4.9v4.3c-0.7,0.6-1.5,1-2.3,1.3s-1.6,0.4-2.4,0.4c-1.1,0-2.1-0.2-3.1-0.7
		c-0.9-0.5-1.6-1.2-2.1-2.1s-0.7-1.9-0.7-3.1c0-1.1,0.2-2.2,0.7-3.1c0.5-1,1.1-1.7,2-2.2s1.9-0.7,3-0.7c0.8,0,1.6,0.1,2.2,0.4
		c0.7,0.3,1.2,0.6,1.6,1.1c0.4,0.5,0.7,1.1,0.9,1.9l-1.4,0.4c-0.2-0.6-0.4-1-0.6-1.4c-0.3-0.3-0.6-0.6-1.1-0.8
		c-0.5-0.2-1-0.3-1.6-0.3c-0.7,0-1.3,0.1-1.8,0.3c-0.5,0.2-0.9,0.5-1.2,0.8c-0.3,0.3-0.6,0.7-0.7,1.1C7.2,362,7,362.8,7,363.6
		c0,1,0.2,1.9,0.5,2.6s0.9,1.2,1.5,1.5s1.4,0.5,2.1,0.5c0.7,0,1.3-0.1,1.9-0.4s1.1-0.5,1.4-0.8V365h-3.2V364.8z"/>
	<path class="st4" d="M18.1,369.3v-11.5h1.4v11.5H18.1z"/>
	<path class="st4" d="M21.2,365.3c0-1.5,0.4-2.7,1.3-3.4c0.7-0.6,1.6-0.9,2.6-0.9c1.1,0,2.1,0.4,2.8,1.1c0.7,0.7,1.1,1.8,1.1,3.1
		c0,1.1-0.2,1.9-0.5,2.5s-0.8,1.1-1.4,1.4s-1.3,0.5-2,0.5c-1.2,0-2.1-0.4-2.8-1.1C21.5,367.8,21.2,366.6,21.2,365.3z M22.6,365.3
		c0,1.1,0.2,1.9,0.7,2.4s1,0.8,1.8,0.8c0.7,0,1.3-0.3,1.7-0.8c0.5-0.5,0.7-1.3,0.7-2.4c0-1-0.2-1.8-0.7-2.3s-1-0.8-1.7-0.8
		s-1.3,0.3-1.8,0.8C22.8,363.3,22.6,364.1,22.6,365.3z"/>
	<path class="st4" d="M31.9,369.3h-1.3v-11.5H32v4.1c0.6-0.7,1.4-1.1,2.3-1.1c0.5,0,1,0.1,1.4,0.3c0.5,0.2,0.8,0.5,1.1,0.9
		s0.5,0.8,0.7,1.3s0.3,1.1,0.3,1.7c0,1.4-0.4,2.5-1.1,3.3s-1.5,1.2-2.5,1.2s-1.7-0.4-2.3-1.2C31.9,368.3,31.9,369.3,31.9,369.3z
		 M31.9,365.1c0,1,0.1,1.7,0.4,2.2c0.4,0.7,1,1.1,1.8,1.1c0.6,0,1.1-0.3,1.6-0.8c0.4-0.5,0.7-1.3,0.7-2.4s-0.2-1.9-0.6-2.4
		s-0.9-0.8-1.6-0.8c-0.6,0-1.1,0.3-1.6,0.8C32.1,363.3,31.9,364.1,31.9,365.1z"/>
	<path class="st4" d="M44.9,368.3c-0.5,0.4-1,0.8-1.5,0.9c-0.5,0.2-1,0.3-1.6,0.3c-0.9,0-1.6-0.2-2.1-0.7c-0.5-0.4-0.7-1-0.7-1.7
		c0-0.4,0.1-0.8,0.3-1.1c0.2-0.3,0.4-0.6,0.7-0.8c0.3-0.2,0.6-0.4,1-0.5c0.3-0.1,0.7-0.1,1.3-0.2c1.1-0.1,2-0.3,2.5-0.5
		c0-0.2,0-0.3,0-0.4c0-0.6-0.1-1-0.4-1.2c-0.4-0.3-0.9-0.5-1.6-0.5c-0.7,0-1.1,0.1-1.5,0.3c-0.3,0.2-0.5,0.6-0.7,1.2l-1.4-0.2
		c0.1-0.6,0.3-1.1,0.6-1.4c0.3-0.4,0.7-0.6,1.2-0.8c0.5-0.2,1.2-0.3,1.9-0.3s1.3,0.1,1.7,0.3c0.4,0.2,0.8,0.4,1,0.6
		c0.2,0.3,0.4,0.6,0.4,1c0,0.2,0.1,0.7,0.1,1.3v1.9c0,1.3,0,2.1,0.1,2.5c0.1,0.3,0.2,0.7,0.4,1h-1.5C45,369,44.9,368.8,44.9,368.3z
		 M44.8,365.3c-0.5,0.2-1.3,0.4-2.3,0.5c-0.6,0.1-1,0.2-1.2,0.3c-0.2,0.1-0.4,0.3-0.6,0.5c-0.1,0.2-0.2,0.4-0.2,0.7
		c0,0.4,0.1,0.7,0.4,0.9c0.3,0.3,0.7,0.4,1.2,0.4s1-0.1,1.4-0.4s0.7-0.6,0.9-1c0.2-0.3,0.2-0.8,0.2-1.4v-0.5H44.8z"/>
	<path class="st4" d="M48.3,369.3v-11.5h1.4v11.5H48.3z"/>
	<path class="st4" d="M57.6,366.8l1.5,0.2c-0.2,0.8-0.7,1.5-1.3,2s-1.4,0.7-2.4,0.7c-1.2,0-2.2-0.4-2.9-1.1s-1.1-1.8-1.1-3.1
		c0-1.4,0.4-2.5,1.1-3.3s1.7-1.2,2.8-1.2s2,0.4,2.7,1.1s1.1,1.8,1.1,3.2c0,0.1,0,0.2,0,0.4h-6.2c0.1,0.9,0.3,1.6,0.8,2.1
		s1,0.7,1.7,0.7c0.5,0,1-0.1,1.3-0.4C57.1,367.8,57.4,367.3,57.6,366.8z M53,364.4h4.6c-0.1-0.7-0.2-1.2-0.5-1.6
		c-0.4-0.5-1-0.8-1.7-0.8c-0.6,0-1.2,0.2-1.6,0.6C53.3,363.1,53,363.8,53,364.4z"/>
	<path class="st4" d="M65.5,369.3v-11.5H67v4.7h6v-4.7h1.5v11.5H73v-5.4h-6v5.4H65.5z"/>
	<path class="st4" d="M82.2,368.3c-0.5,0.4-1,0.8-1.5,0.9c-0.5,0.2-1,0.3-1.6,0.3c-0.9,0-1.6-0.2-2.1-0.7c-0.5-0.4-0.7-1-0.7-1.7
		c0-0.4,0.1-0.8,0.3-1.1c0.2-0.3,0.4-0.6,0.7-0.8c0.3-0.2,0.6-0.4,1-0.5c0.3-0.1,0.7-0.1,1.3-0.2c1.1-0.1,2-0.3,2.5-0.5
		c0-0.2,0-0.3,0-0.4c0-0.6-0.1-1-0.4-1.2c-0.4-0.3-0.9-0.5-1.6-0.5s-1.1,0.1-1.5,0.3c-0.3,0.2-0.5,0.6-0.7,1.2l-1.4-0.2
		c0.1-0.6,0.3-1.1,0.6-1.4c0.3-0.4,0.7-0.6,1.2-0.8c0.5-0.2,1.2-0.3,1.9-0.3c0.7,0,1.3,0.1,1.7,0.3c0.4,0.2,0.8,0.4,1,0.6
		c0.2,0.3,0.4,0.6,0.4,1c0,0.2,0.1,0.7,0.1,1.3v1.9c0,1.3,0,2.1,0.1,2.5c0.1,0.3,0.2,0.7,0.4,1h-1.5C82.4,369,82.3,368.8,82.2,368.3
		z M82.1,365.3c-0.5,0.2-1.3,0.4-2.3,0.5c-0.6,0.1-1,0.2-1.2,0.3c-0.2,0.1-0.4,0.3-0.6,0.5c-0.1,0.2-0.2,0.4-0.2,0.7
		c0,0.4,0.1,0.7,0.4,0.9c0.3,0.3,0.7,0.4,1.2,0.4s1-0.1,1.4-0.4s0.7-0.6,0.9-1c0.2-0.3,0.2-0.8,0.2-1.4v-0.5H82.1z"/>
	<path class="st4" d="M85.7,369.3V361H87v1.2c0.6-0.9,1.5-1.4,2.6-1.4c0.5,0,1,0.1,1.4,0.3c0.4,0.2,0.7,0.4,0.9,0.7
		c0.2,0.3,0.4,0.6,0.4,1c0.1,0.3,0.1,0.7,0.1,1.4v5.1H91v-5c0-0.6-0.1-1-0.2-1.3s-0.3-0.5-0.6-0.7c-0.3-0.2-0.6-0.3-1-0.3
		c-0.6,0-1.1,0.2-1.6,0.6c-0.4,0.4-0.7,1.1-0.7,2.2v4.5L85.7,369.3L85.7,369.3z"/>
	<path class="st4" d="M100,369.3v-1c-0.5,0.8-1.3,1.2-2.3,1.2c-0.7,0-1.3-0.2-1.8-0.5s-1-0.9-1.3-1.5s-0.5-1.4-0.5-2.3
		c0-0.8,0.1-1.6,0.4-2.3c0.3-0.7,0.7-1.2,1.2-1.6c0.6-0.4,1.2-0.5,1.9-0.5c0.5,0,0.9,0.1,1.3,0.3s0.7,0.5,1,0.8v-4.1h1.4v11.5H100z
		 M95.6,365.3c0,1.1,0.2,1.9,0.7,2.4c0.4,0.5,1,0.8,1.6,0.8s1.1-0.3,1.6-0.8s0.6-1.3,0.6-2.3c0-1.1-0.2-2-0.7-2.5s-1-0.8-1.6-0.8
		s-1.1,0.3-1.6,0.8C95.8,363.3,95.6,364.1,95.6,365.3z"/>
	<path class="st4" d="M109.2,366.8l1.5,0.2c-0.2,0.8-0.7,1.5-1.3,2c-0.6,0.5-1.4,0.7-2.4,0.7c-1.2,0-2.2-0.4-2.9-1.1
		s-1.1-1.8-1.1-3.1c0-1.4,0.4-2.5,1.1-3.3s1.7-1.2,2.8-1.2c1.1,0,2,0.4,2.7,1.1s1.1,1.8,1.1,3.2c0,0.1,0,0.2,0,0.4h-6.2
		c0.1,0.9,0.3,1.6,0.8,2.1s1,0.7,1.7,0.7c0.5,0,1-0.1,1.3-0.4C108.7,367.8,109,367.3,109.2,366.8z M104.6,364.4h4.6
		c-0.1-0.7-0.2-1.2-0.5-1.6c-0.4-0.5-1-0.8-1.7-0.8c-0.6,0-1.2,0.2-1.6,0.6C104.9,363.1,104.6,363.8,104.6,364.4z"/>
	<path class="st4" d="M112.4,369.3v-11.5h1.4v11.5H112.4z"/>
	<path class="st4" d="M115.4,366.9l1.4-0.2c0.1,0.6,0.3,1,0.7,1.3c0.4,0.3,0.9,0.4,1.5,0.4s1.1-0.1,1.4-0.4s0.5-0.6,0.5-0.9
		s-0.1-0.6-0.4-0.8c-0.2-0.1-0.7-0.3-1.4-0.5c-1-0.3-1.7-0.5-2.1-0.7s-0.7-0.5-0.9-0.8c-0.2-0.3-0.3-0.7-0.3-1.1s0.1-0.7,0.3-1
		c0.2-0.3,0.4-0.6,0.7-0.8c0.2-0.2,0.5-0.3,0.9-0.4s0.8-0.2,1.2-0.2c0.7,0,1.2,0.1,1.7,0.3s0.9,0.4,1.1,0.8s0.4,0.7,0.5,1.3
		l-1.4,0.2c-0.1-0.4-0.2-0.8-0.5-1s-0.7-0.4-1.3-0.4c-0.6,0-1.1,0.1-1.4,0.3c-0.3,0.2-0.4,0.5-0.4,0.8c0,0.2,0.1,0.3,0.2,0.5
		s0.3,0.3,0.5,0.4c0.1,0.1,0.6,0.2,1.2,0.4c1,0.3,1.7,0.5,2.1,0.7s0.7,0.4,0.9,0.7c0.2,0.3,0.3,0.7,0.3,1.2s-0.1,0.9-0.4,1.3
		s-0.7,0.7-1.2,1s-1.1,0.3-1.8,0.3c-1.1,0-1.9-0.2-2.5-0.7C115.9,368.4,115.6,367.8,115.4,366.9z"/>
	<path class="st4" d="M124,372.5V361h1.3v1.1c0.3-0.4,0.6-0.7,1-0.9c0.4-0.2,0.8-0.3,1.4-0.3c0.7,0,1.3,0.2,1.9,0.5
		c0.5,0.4,1,0.9,1.2,1.5c0.3,0.7,0.4,1.4,0.4,2.2c0,0.8-0.2,1.6-0.5,2.3s-0.7,1.2-1.3,1.6c-0.6,0.4-1.2,0.5-1.8,0.5
		c-0.5,0-0.9-0.1-1.3-0.3c-0.4-0.2-0.7-0.4-0.9-0.8v4L124,372.5L124,372.5z M125.3,365.3c0,1.1,0.2,1.9,0.6,2.4s1,0.8,1.6,0.8
		c0.6,0,1.2-0.3,1.6-0.8s0.7-1.3,0.7-2.5c0-1.1-0.2-1.8-0.7-2.4c-0.4-0.5-1-0.8-1.6-0.8s-1.1,0.3-1.6,0.8S125.3,364.3,125.3,365.3z"
		/>
	<path class="st4" d="M132.8,369.3v-11.5h1.4v11.5H132.8z"/>
	<path class="st4" d="M141.8,368.3c-0.5,0.4-1,0.8-1.5,0.9c-0.5,0.2-1,0.3-1.6,0.3c-0.9,0-1.6-0.2-2.1-0.7c-0.5-0.4-0.7-1-0.7-1.7
		c0-0.4,0.1-0.8,0.3-1.1c0.2-0.3,0.4-0.6,0.7-0.8c0.3-0.2,0.6-0.4,1-0.5c0.3-0.1,0.7-0.1,1.3-0.2c1.1-0.1,2-0.3,2.5-0.5
		c0-0.2,0-0.3,0-0.4c0-0.6-0.1-1-0.4-1.2c-0.4-0.3-0.9-0.5-1.6-0.5c-0.7,0-1.1,0.1-1.5,0.3c-0.3,0.2-0.5,0.6-0.7,1.2l-1.4-0.2
		c0.1-0.6,0.3-1.1,0.6-1.4c0.3-0.4,0.7-0.6,1.2-0.8c0.5-0.2,1.2-0.3,1.9-0.3s1.3,0.1,1.7,0.3c0.4,0.2,0.8,0.4,1,0.6
		c0.2,0.3,0.4,0.6,0.4,1c0,0.2,0.1,0.7,0.1,1.3v1.9c0,1.3,0,2.1,0.1,2.5c0.1,0.3,0.2,0.7,0.4,1H142C142,369,141.9,368.8,141.8,368.3
		z M141.7,365.3c-0.5,0.2-1.3,0.4-2.3,0.5c-0.6,0.1-1,0.2-1.2,0.3c-0.2,0.1-0.4,0.3-0.6,0.5c-0.1,0.2-0.2,0.4-0.2,0.7
		c0,0.4,0.1,0.7,0.4,0.9c0.3,0.3,0.7,0.4,1.2,0.4s1-0.1,1.4-0.4s0.7-0.6,0.9-1c0.2-0.3,0.2-0.8,0.2-1.4v-0.5H141.7z"/>
	<path class="st4" d="M148.4,368.1l0.2,1.2c-0.4,0.1-0.8,0.1-1.1,0.1c-0.5,0-0.9-0.1-1.2-0.2s-0.5-0.4-0.6-0.6
		c-0.1-0.3-0.2-0.8-0.2-1.7v-4.8h-1V361h1v-2l1.4-0.8v2.9h1.4v1.1H147v4.9c0,0.4,0,0.7,0.1,0.8c0,0.1,0.1,0.2,0.2,0.3
		c0.1,0.1,0.3,0.1,0.5,0.1C147.9,368.1,148.1,368.1,148.4,368.1z"/>
	<path class="st4" d="M152.8,368.1l0.2,1.2c-0.4,0.1-0.8,0.1-1.1,0.1c-0.5,0-0.9-0.1-1.2-0.2s-0.5-0.4-0.6-0.6
		c-0.1-0.3-0.2-0.8-0.2-1.7v-4.8h-1V361h1v-2l1.4-0.8v2.9h1.4v1.1h-1.4v4.9c0,0.4,0,0.7,0.1,0.8c0,0.1,0.1,0.2,0.2,0.3
		c0.1,0.1,0.3,0.1,0.5,0.1C152.4,368.1,152.6,368.1,152.8,368.1z"/>
	<path class="st4" d="M154.6,369.3v-7.2h-1.2V361h1.2v-0.9c0-0.6,0-1,0.1-1.2c0.1-0.4,0.4-0.7,0.7-0.9c0.3-0.2,0.8-0.3,1.4-0.3
		c0.4,0,0.8,0,1.3,0.1l-0.2,1.2c-0.3-0.1-0.6-0.1-0.8-0.1c-0.4,0-0.7,0.1-0.9,0.3c-0.2,0.2-0.3,0.5-0.3,1v0.8h1.6v1.1H156v7.2
		L154.6,369.3L154.6,369.3z"/>
	<path class="st4" d="M158.1,365.3c0-1.5,0.4-2.7,1.3-3.4c0.7-0.6,1.6-0.9,2.6-0.9c1.1,0,2.1,0.4,2.8,1.1s1.1,1.8,1.1,3.1
		c0,1.1-0.2,1.9-0.5,2.5s-0.8,1.1-1.4,1.4c-0.6,0.3-1.3,0.5-2,0.5c-1.2,0-2.1-0.4-2.8-1.1C158.5,367.8,158.1,366.6,158.1,365.3z
		 M159.6,365.3c0,1.1,0.2,1.9,0.7,2.4s1,0.8,1.8,0.8c0.7,0,1.3-0.3,1.7-0.8c0.5-0.5,0.7-1.3,0.7-2.4c0-1-0.2-1.8-0.7-2.3
		s-1-0.8-1.7-0.8s-1.3,0.3-1.8,0.8C159.8,363.3,159.6,364.1,159.6,365.3z"/>
	<path class="st4" d="M167.6,369.3V361h1.3v1.3c0.3-0.6,0.6-1,0.9-1.2s0.6-0.3,0.9-0.3c0.5,0,1,0.2,1.4,0.5l-0.5,1.3
		c-0.3-0.2-0.7-0.3-1-0.3s-0.6,0.1-0.8,0.3c-0.2,0.2-0.4,0.4-0.5,0.8c-0.2,0.5-0.2,1-0.2,1.6v4.3L167.6,369.3L167.6,369.3z"/>
	<path class="st4" d="M172.9,369.3V361h1.3v1.2c0.3-0.4,0.6-0.7,1-1c0.4-0.2,0.9-0.4,1.5-0.4s1.1,0.1,1.5,0.4s0.7,0.6,0.8,1.1
		c0.7-1,1.5-1.5,2.6-1.5c0.8,0,1.5,0.2,1.9,0.7s0.7,1.2,0.7,2.1v5.7h-1.4v-5.2c0-0.6,0-1-0.1-1.2s-0.3-0.4-0.5-0.6s-0.5-0.2-0.8-0.2
		c-0.6,0-1.1,0.2-1.5,0.6s-0.6,1-0.6,1.9v4.8h-1.4V364c0-0.6-0.1-1.1-0.3-1.4s-0.6-0.5-1.1-0.5c-0.4,0-0.8,0.1-1.1,0.3
		s-0.6,0.5-0.7,0.9c-0.2,0.4-0.2,1-0.2,1.7v4.3H172.9z"/>
</g>
<g class="st3">
	<path class="st4" d="M8.3,141.6v-11.5h1.5v5.7l5.7-5.7h2.1l-4.8,4.6l5,6.8h-2l-4.1-5.8l-1.9,1.8v4L8.3,141.6L8.3,141.6z"/>
	<path class="st4" d="M24.3,140.6c-0.5,0.4-1,0.8-1.5,0.9c-0.5,0.2-1,0.3-1.6,0.3c-0.9,0-1.6-0.2-2.1-0.7c-0.5-0.4-0.7-1-0.7-1.7
		c0-0.4,0.1-0.8,0.3-1.1s0.4-0.6,0.7-0.8c0.3-0.2,0.6-0.4,1-0.5c0.3-0.1,0.7-0.1,1.3-0.2c1.1-0.1,2-0.3,2.5-0.5c0-0.2,0-0.3,0-0.4
		c0-0.6-0.1-1-0.4-1.2c-0.4-0.3-0.9-0.5-1.6-0.5s-1.1,0.1-1.5,0.3c-0.3,0.2-0.5,0.6-0.7,1.2l-1.4-0.2c0.1-0.6,0.3-1.1,0.6-1.4
		c0.3-0.4,0.7-0.6,1.2-0.8s1.2-0.3,1.9-0.3c0.7,0,1.3,0.1,1.7,0.3s0.8,0.4,1,0.6c0.2,0.3,0.4,0.6,0.4,1c0,0.2,0.1,0.7,0.1,1.3v1.9
		c0,1.3,0,2.1,0.1,2.5c0.1,0.3,0.2,0.7,0.4,1h-1.5C24.4,141.3,24.3,141,24.3,140.6z M24.2,137.4c-0.5,0.2-1.3,0.4-2.3,0.5
		c-0.6,0.1-1,0.2-1.2,0.3s-0.4,0.3-0.6,0.5c-0.1,0.2-0.2,0.4-0.2,0.7c0,0.4,0.1,0.7,0.4,0.9c0.3,0.3,0.7,0.4,1.2,0.4s1-0.1,1.4-0.4
		c0.4-0.3,0.7-0.6,0.9-1c0.2-0.3,0.2-0.8,0.2-1.4v-0.5H24.2z"/>
	<path class="st4" d="M27.8,144.8v-11.5h1.3v1.1c0.3-0.4,0.6-0.7,1-0.9s0.8-0.3,1.4-0.3c0.7,0,1.3,0.2,1.9,0.5
		c0.5,0.4,1,0.9,1.2,1.5c0.3,0.7,0.4,1.4,0.4,2.2s-0.2,1.6-0.5,2.3s-0.7,1.2-1.3,1.6c-0.6,0.4-1.2,0.5-1.8,0.5
		c-0.5,0-0.9-0.1-1.3-0.3c-0.4-0.2-0.7-0.4-0.9-0.8v4L27.8,144.8L27.8,144.8z M29.1,137.5c0,1.1,0.2,1.9,0.6,2.4
		c0.4,0.5,1,0.8,1.6,0.8s1.2-0.3,1.6-0.8s0.7-1.3,0.7-2.5c0-1.1-0.2-1.8-0.7-2.4c-0.4-0.5-1-0.8-1.6-0.8s-1.1,0.3-1.6,0.8
		S29.1,136.4,29.1,137.5z"/>
	<path class="st4" d="M36.7,131.8v-1.6h1.4v1.6H36.7z M36.7,141.6v-8.3h1.4v8.3H36.7z"/>
	<path class="st4" d="M43.3,140.3l0.2,1.2c-0.4,0.1-0.8,0.1-1.1,0.1c-0.5,0-0.9-0.1-1.2-0.2s-0.5-0.4-0.6-0.6
		c-0.1-0.3-0.2-0.8-0.2-1.7v-4.8h-1v-1.1h1v-2l1.4-0.8v2.9h1.4v1.1h-1.4v4.9c0,0.4,0,0.7,0.1,0.8c0,0.1,0.1,0.2,0.2,0.3
		c0.1,0.1,0.3,0.1,0.5,0.1C42.8,140.4,43,140.4,43.3,140.3z"/>
	<path class="st4" d="M50.1,140.6c-0.5,0.4-1,0.8-1.5,0.9c-0.5,0.2-1,0.3-1.6,0.3c-0.9,0-1.6-0.2-2.1-0.7c-0.5-0.4-0.7-1-0.7-1.7
		c0-0.4,0.1-0.8,0.3-1.1s0.4-0.6,0.7-0.8s0.6-0.4,1-0.5c0.3-0.1,0.7-0.1,1.3-0.2c1.1-0.1,2-0.3,2.5-0.5c0-0.2,0-0.3,0-0.4
		c0-0.6-0.1-1-0.4-1.2c-0.4-0.3-0.9-0.5-1.6-0.5c-0.7,0-1.1,0.1-1.5,0.3c-0.3,0.2-0.5,0.6-0.7,1.2l-1.4-0.2c0.1-0.6,0.3-1.1,0.6-1.4
		c0.3-0.4,0.7-0.6,1.2-0.8s1.2-0.3,1.9-0.3s1.3,0.1,1.7,0.3s0.8,0.4,1,0.6c0.2,0.3,0.4,0.6,0.4,1c0,0.2,0.1,0.7,0.1,1.3v1.9
		c0,1.3,0,2.1,0.1,2.5c0.1,0.3,0.2,0.7,0.4,1h-1.4C50.2,141.3,50.1,141,50.1,140.6z M50,137.4c-0.5,0.2-1.3,0.4-2.3,0.5
		c-0.6,0.1-1,0.2-1.2,0.3s-0.4,0.3-0.6,0.5c-0.1,0.2-0.2,0.4-0.2,0.7c0,0.4,0.1,0.7,0.4,0.9c0.3,0.3,0.7,0.4,1.2,0.4s1-0.1,1.4-0.4
		s0.7-0.6,0.9-1c0.2-0.3,0.2-0.8,0.2-1.4v-0.5H50z"/>
	<path class="st4" d="M53.5,141.6v-11.5h1.4v11.5H53.5z"/>
	<path class="st4" d="M62.5,140.6c-0.5,0.4-1,0.8-1.5,0.9c-0.5,0.2-1,0.3-1.6,0.3c-0.9,0-1.6-0.2-2.1-0.7c-0.5-0.4-0.7-1-0.7-1.7
		c0-0.4,0.1-0.8,0.3-1.1s0.4-0.6,0.7-0.8s0.6-0.4,1-0.5c0.3-0.1,0.7-0.1,1.3-0.2c1.1-0.1,2-0.3,2.5-0.5c0-0.2,0-0.3,0-0.4
		c0-0.6-0.1-1-0.4-1.2c-0.4-0.3-0.9-0.5-1.6-0.5s-1.1,0.1-1.5,0.3c-0.3,0.2-0.5,0.6-0.7,1.2l-1.4-0.2c0.1-0.6,0.3-1.1,0.6-1.4
		c0.3-0.4,0.7-0.6,1.2-0.8s1.2-0.3,1.9-0.3c0.7,0,1.3,0.1,1.7,0.3c0.4,0.2,0.8,0.4,1,0.6c0.2,0.3,0.4,0.6,0.4,1
		c0,0.2,0.1,0.7,0.1,1.3v1.9c0,1.3,0,2.1,0.1,2.5c0.1,0.3,0.2,0.7,0.4,1h-1.5C62.7,141.3,62.6,141,62.5,140.6z M62.4,137.4
		c-0.5,0.2-1.3,0.4-2.3,0.5c-0.6,0.1-1,0.2-1.2,0.3s-0.4,0.3-0.6,0.5c-0.1,0.2-0.2,0.4-0.2,0.7c0,0.4,0.1,0.7,0.4,0.9
		c0.3,0.3,0.7,0.4,1.2,0.4s1-0.1,1.4-0.4s0.7-0.6,0.9-1c0.2-0.3,0.2-0.8,0.2-1.4v-0.5H62.4z"/>
	<path class="st4" d="M66,141.6v-8.3h1.3v1.2c0.6-0.9,1.5-1.4,2.6-1.4c0.5,0,1,0.1,1.4,0.3s0.7,0.4,0.9,0.7c0.2,0.3,0.4,0.6,0.4,1
		c0.1,0.3,0.1,0.7,0.1,1.4v5.1h-1.3v-5c0-0.6-0.1-1-0.2-1.3s-0.3-0.5-0.6-0.7c-0.3-0.2-0.6-0.3-1-0.3c-0.6,0-1.1,0.2-1.6,0.6
		c-0.4,0.4-0.7,1.1-0.7,2.2v4.5H66z"/>
	<path class="st4" d="M74.9,141.6v-11.5h1.4v11.5H74.9z"/>
	<path class="st4" d="M84.2,138.9l1.5,0.2c-0.2,0.8-0.7,1.5-1.3,2c-0.6,0.5-1.4,0.7-2.4,0.7c-1.2,0-2.2-0.4-2.9-1.1
		s-1.1-1.8-1.1-3.1c0-1.4,0.4-2.5,1.1-3.3s1.7-1.2,2.8-1.2c1.1,0,2,0.4,2.7,1.1s1.1,1.8,1.1,3.2c0,0.1,0,0.2,0,0.4h-6.2
		c0.1,0.9,0.3,1.6,0.8,2.1s1,0.7,1.7,0.7c0.5,0,1-0.1,1.3-0.4C83.7,140,83.9,139.5,84.2,138.9z M79.5,136.7h4.6
		c-0.1-0.7-0.2-1.2-0.5-1.6c-0.4-0.5-1-0.8-1.7-0.8c-0.6,0-1.2,0.2-1.6,0.6C79.8,135.4,79.6,135.9,79.5,136.7z"/>
	<path class="st4" d="M87.1,142.3l1.4,0.2c0.1,0.4,0.2,0.7,0.5,0.9c0.3,0.3,0.8,0.4,1.4,0.4c0.7,0,1.2-0.1,1.5-0.4
		c0.4-0.3,0.6-0.6,0.7-1.1c0.1-0.3,0.1-0.9,0.1-1.8c-0.6,0.7-1.4,1.1-2.3,1.1c-1.1,0-2-0.4-2.6-1.2s-0.9-1.8-0.9-3
		c0-0.8,0.1-1.5,0.4-2.2s0.7-1.2,1.2-1.6c0.5-0.4,1.2-0.5,1.9-0.5c1,0,1.8,0.4,2.4,1.2v-1h1.3v7.2c0,1.3-0.1,2.2-0.4,2.7
		s-0.7,1-1.3,1.3s-1.3,0.5-2.1,0.5c-1,0-1.8-0.2-2.4-0.7S87.1,143.2,87.1,142.3z M88.3,137.3c0,1.1,0.2,1.9,0.6,2.4s1,0.8,1.6,0.8
		s1.2-0.2,1.6-0.7s0.7-1.3,0.7-2.3s-0.2-1.8-0.7-2.3s-1-0.8-1.6-0.8s-1.2,0.3-1.6,0.8S88.3,136.3,88.3,137.3z"/>
	<path class="st4" d="M102,138.9l1.5,0.2c-0.2,0.8-0.7,1.5-1.3,2c-0.6,0.5-1.4,0.7-2.4,0.7c-1.2,0-2.2-0.4-2.9-1.1s-1.1-1.8-1.1-3.1
		c0-1.4,0.4-2.5,1.1-3.3s1.7-1.2,2.8-1.2c1.1,0,2,0.4,2.7,1.1s1.1,1.8,1.1,3.2c0,0.1,0,0.2,0,0.4h-6.2c0.1,0.9,0.3,1.6,0.8,2.1
		s1,0.7,1.7,0.7c0.5,0,1-0.1,1.3-0.4C101.5,140,101.7,139.5,102,138.9z M97.3,136.7h4.6c-0.1-0.7-0.2-1.2-0.5-1.6
		c-0.4-0.5-1-0.8-1.7-0.8c-0.6,0-1.2,0.2-1.6,0.6C97.6,135.4,97.4,135.9,97.3,136.7z"/>
	<path class="st4" d="M105.2,141.6v-8.3h1.3v1.3c0.3-0.6,0.6-1,0.9-1.2s0.6-0.3,0.9-0.3c0.5,0,1,0.2,1.4,0.5l-0.5,1.3
		c-0.3-0.2-0.7-0.3-1-0.3s-0.6,0.1-0.8,0.3c-0.2,0.2-0.4,0.4-0.5,0.8c-0.2,0.5-0.2,1-0.2,1.6v4.3L105.2,141.6L105.2,141.6z"/>
</g>
<g class="st3">
	<path class="st4" d="M110,78.4V66.9h2.3L115,75c0.3,0.8,0.4,1.3,0.5,1.7c0.1-0.4,0.3-1,0.6-1.8l2.7-8h2v11.5h-1.4v-9.6l-3.3,9.6
		h-1.4l-3.3-9.8v9.8C111.4,78.3,110,78.3,110,78.4z"/>
	<path class="st4" d="M122.6,74.3c0-1.5,0.4-2.7,1.3-3.4c0.7-0.6,1.6-0.9,2.6-0.9c1.1,0,2.1,0.4,2.8,1.1c0.7,0.7,1.1,1.8,1.1,3.1
		c0,1.1-0.2,1.9-0.5,2.5s-0.8,1.1-1.4,1.4c-0.6,0.3-1.3,0.5-2,0.5c-1.2,0-2.1-0.4-2.8-1.1C123,76.7,122.6,75.7,122.6,74.3z
		 M124.1,74.3c0,1.1,0.2,1.9,0.7,2.4s1,0.8,1.8,0.8c0.7,0,1.3-0.3,1.7-0.8c0.5-0.5,0.7-1.3,0.7-2.4c0-1-0.2-1.8-0.7-2.3
		s-1-0.8-1.7-0.8s-1.3,0.3-1.8,0.8C124.3,72.4,124.1,73.2,124.1,74.3z"/>
	<path class="st4" d="M132.1,78.4v-8.3h1.3v1.2c0.6-0.9,1.5-1.4,2.6-1.4c0.5,0,1,0.1,1.4,0.3c0.4,0.2,0.7,0.4,0.9,0.7
		c0.2,0.3,0.4,0.6,0.4,1c0.1,0.3,0.1,0.7,0.1,1.4v5.1h-1.4v-5c0-0.6-0.1-1-0.2-1.3s-0.3-0.5-0.6-0.7s-0.6-0.3-1-0.3
		c-0.6,0-1.1,0.2-1.6,0.6c-0.4,0.4-0.7,1.1-0.7,2.2v4.5C133.3,78.3,132.1,78.3,132.1,78.4z"/>
	<path class="st4" d="M146.4,77.4c-0.5,0.4-1,0.8-1.5,0.9c-0.5,0.2-1,0.3-1.6,0.3c-0.9,0-1.6-0.2-2.1-0.7c-0.5-0.4-0.7-1-0.7-1.7
		c0-0.4,0.1-0.8,0.3-1.1c0.2-0.3,0.4-0.6,0.7-0.8c0.3-0.2,0.6-0.4,1-0.5c0.3-0.1,0.7-0.1,1.3-0.2c1.1-0.1,2-0.3,2.5-0.5
		c0-0.2,0-0.3,0-0.4c0-0.6-0.1-1-0.4-1.2c-0.4-0.3-0.9-0.5-1.6-0.5c-0.7,0-1.1,0.1-1.5,0.3c-0.3,0.2-0.5,0.6-0.7,1.2l-1.4-0.2
		c0.1-0.6,0.3-1.1,0.6-1.4c0.3-0.4,0.7-0.6,1.2-0.8c0.5-0.2,1.2-0.3,1.9-0.3s1.3,0.1,1.7,0.3c0.4,0.2,0.8,0.4,1,0.6
		c0.2,0.3,0.4,0.6,0.4,1c0,0.2,0.1,0.7,0.1,1.3v1.9c0,1.3,0,2.1,0.1,2.5c0.1,0.3,0.2,0.7,0.4,1h-1.5
		C146.5,78.1,146.4,77.8,146.4,77.4z M146.3,74.2c-0.5,0.2-1.3,0.4-2.3,0.5c-0.6,0.1-1,0.2-1.2,0.3c-0.2,0.1-0.4,0.3-0.6,0.5
		c-0.1,0.2-0.2,0.4-0.2,0.7c0,0.4,0.1,0.7,0.4,0.9c0.3,0.3,0.7,0.4,1.2,0.4s1-0.1,1.4-0.4s0.7-0.6,0.9-1c0.2-0.3,0.2-0.8,0.2-1.4
		v-0.5H146.3z"/>
	<path class="st4" d="M152.9,77.1l0.2,1.2c-0.4,0.1-0.8,0.1-1.1,0.1c-0.5,0-0.9-0.1-1.2-0.2s-0.5-0.4-0.6-0.6
		c-0.1-0.3-0.2-0.8-0.2-1.7v-4.8h-1V70h1v-2.1l1.4-0.8V70h1.4v1.1h-1.4V76c0,0.4,0,0.7,0.1,0.8c0,0.1,0.1,0.2,0.2,0.3
		c0.1,0.1,0.3,0.1,0.5,0.1C152.5,77.2,152.7,77.2,152.9,77.1z"/>
	<path class="st4" d="M154.3,78.4V66.9h1.4v11.5H154.3z"/>
	<path class="st4" d="M157.9,68.6V67h1.4v1.6H157.9z M157.9,78.4v-8.3h1.4v8.3H157.9z"/>
	<path class="st4" d="M166.8,75.4l1.4,0.2c-0.2,1-0.5,1.7-1.2,2.2c-0.6,0.5-1.4,0.8-2.3,0.8c-1.1,0-2-0.4-2.7-1.1s-1-1.8-1-3.2
		c0-0.9,0.1-1.7,0.4-2.4s0.7-1.2,1.4-1.5c0.6-0.3,1.3-0.5,2-0.5c0.9,0,1.6,0.2,2.2,0.7c0.6,0.5,0.9,1.1,1.1,1.9l-1.4,0.2
		c-0.1-0.6-0.4-1-0.7-1.3s-0.7-0.4-1.2-0.4c-0.7,0-1.3,0.3-1.7,0.8s-0.7,1.3-0.7,2.4s0.2,1.9,0.6,2.4c0.4,0.5,1,0.8,1.7,0.8
		c0.6,0,1-0.2,1.4-0.5C166.5,76.6,166.7,76.1,166.8,75.4z"/>
	<path class="st4" d="M169.4,78.4V66.9h1.4V71c0.7-0.8,1.5-1.1,2.5-1.1c0.6,0,1.1,0.1,1.6,0.4s0.8,0.6,1,1s0.3,1,0.3,1.9v5.3h-1.4
		v-5.3c0-0.7-0.2-1.2-0.5-1.5s-0.7-0.5-1.3-0.5c-0.4,0-0.8,0.1-1.2,0.3s-0.6,0.5-0.8,0.9s-0.2,0.9-0.2,1.5v4.5
		C170.8,78.4,169.4,78.4,169.4,78.4z"/>
	<path class="st4" d="M184,75.7l1.5,0.2c-0.2,0.8-0.7,1.5-1.3,2s-1.4,0.7-2.4,0.7c-1.2,0-2.2-0.4-2.9-1.1s-1.1-1.8-1.1-3.1
		c0-1.4,0.4-2.5,1.1-3.3s1.7-1.2,2.8-1.2s2,0.4,2.7,1.1s1.1,1.8,1.1,3.2c0,0.1,0,0.2,0,0.4h-6.2c0.1,0.9,0.3,1.6,0.8,2.1
		s1,0.7,1.7,0.7c0.5,0,1-0.1,1.3-0.4C183.5,76.8,183.8,76.3,184,75.7z M179.4,73.5h4.6c-0.1-0.7-0.2-1.2-0.5-1.6
		c-0.4-0.5-1-0.8-1.7-0.8c-0.6,0-1.2,0.2-1.6,0.6C179.7,72.2,179.4,72.7,179.4,73.5z"/>
	<path class="st4" d="M191.8,78.4V66.9h3.9c0.9,0,1.6,0.1,2,0.2c0.7,0.2,1.2,0.4,1.7,0.8c0.6,0.5,1.1,1.2,1.4,2
		c0.3,0.8,0.4,1.7,0.4,2.7c0,0.9-0.1,1.6-0.3,2.3s-0.5,1.2-0.8,1.7c-0.3,0.4-0.7,0.8-1,1c-0.4,0.3-0.8,0.4-1.4,0.6
		c-0.5,0.1-1.1,0.2-1.8,0.2C195.9,78.3,191.8,78.3,191.8,78.4z M193.4,77h2.4c0.8,0,1.3-0.1,1.8-0.2s0.8-0.3,1-0.6
		c0.4-0.4,0.6-0.8,0.8-1.4s0.3-1.3,0.3-2.2c0-1.2-0.2-2.1-0.6-2.8c-0.4-0.6-0.9-1.1-1.4-1.3c-0.4-0.2-1.1-0.2-2-0.2h-2.3V77z"/>
	<path class="st4" d="M203.2,68.6V67h1.4v1.6H203.2z M203.2,78.4v-8.3h1.4v8.3H203.2z"/>
	<path class="st4" d="M209.1,78.4l-3.2-8.3h1.5l1.8,5c0.2,0.5,0.4,1.1,0.5,1.7c0.1-0.4,0.3-1,0.5-1.6l1.8-5.1h1.4l-3.1,8.3H209.1z"
		/>
	<path class="st4" d="M214.8,68.6V67h1.4v1.6H214.8z M214.8,78.4v-8.3h1.4v8.3H214.8z"/>
	<path class="st4" d="M223.7,78.4v-1c-0.5,0.8-1.3,1.2-2.3,1.2c-0.7,0-1.3-0.2-1.8-0.5s-1-0.9-1.3-1.5s-0.5-1.4-0.5-2.3
		c0-0.8,0.1-1.6,0.4-2.3c0.3-0.7,0.7-1.2,1.2-1.6c0.6-0.4,1.2-0.5,1.9-0.5c0.5,0,0.9,0.1,1.3,0.3s0.7,0.5,1,0.8v-4.1h1.4v11.5H223.7
		z M219.3,74.3c0,1.1,0.2,1.9,0.7,2.4c0.4,0.5,1,0.8,1.6,0.8s1.1-0.3,1.6-0.8s0.6-1.3,0.6-2.3c0-1.1-0.2-2-0.7-2.5s-1-0.8-1.6-0.8
		s-1.1,0.3-1.6,0.8C219.5,72.4,219.3,73.2,219.3,74.3z"/>
	<path class="st4" d="M232.9,75.7l1.5,0.2c-0.2,0.8-0.7,1.5-1.3,2s-1.4,0.7-2.4,0.7c-1.2,0-2.2-0.4-2.9-1.1s-1.1-1.8-1.1-3.1
		c0-1.4,0.4-2.5,1.1-3.3s1.7-1.2,2.8-1.2s2,0.4,2.7,1.1s1.1,1.8,1.1,3.2c0,0.1,0,0.2,0,0.4h-6.2c0.1,0.9,0.3,1.6,0.8,2.1
		s1,0.7,1.7,0.7c0.5,0,1-0.1,1.3-0.4C232.4,76.8,232.7,76.3,232.9,75.7z M228.3,73.5h4.6c-0.1-0.7-0.2-1.2-0.5-1.6
		c-0.4-0.5-1-0.8-1.7-0.8c-0.6,0-1.2,0.2-1.6,0.6C228.6,72.2,228.3,72.7,228.3,73.5z"/>
	<path class="st4" d="M236.1,78.4v-8.3h1.3v1.2c0.6-0.9,1.5-1.4,2.6-1.4c0.5,0,1,0.1,1.4,0.3c0.4,0.2,0.7,0.4,0.9,0.7
		c0.2,0.3,0.4,0.6,0.4,1c0.1,0.3,0.1,0.7,0.1,1.4v5.1h-1.4v-5c0-0.6-0.1-1-0.2-1.3s-0.3-0.5-0.6-0.7s-0.6-0.3-1-0.3
		c-0.6,0-1.1,0.2-1.6,0.6c-0.4,0.4-0.7,1.1-0.7,2.2v4.5C237.3,78.3,236.1,78.3,236.1,78.4z"/>
	<path class="st4" d="M250.4,78.4v-1c-0.5,0.8-1.3,1.2-2.3,1.2c-0.7,0-1.3-0.2-1.8-0.5s-1-0.9-1.3-1.5s-0.5-1.4-0.5-2.3
		c0-0.8,0.1-1.6,0.4-2.3c0.3-0.7,0.7-1.2,1.2-1.6c0.6-0.4,1.2-0.5,1.9-0.5c0.5,0,0.9,0.1,1.3,0.3s0.7,0.5,1,0.8v-4.1h1.4v11.5H250.4
		z M246,74.3c0,1.1,0.2,1.9,0.7,2.4c0.4,0.5,1,0.8,1.6,0.8s1.1-0.3,1.6-0.8s0.6-1.3,0.6-2.3c0-1.1-0.2-2-0.7-2.5s-1-0.8-1.6-0.8
		s-1.1,0.3-1.6,0.8C246.2,72.4,246,73.2,246,74.3z"/>
	<path class="st4" d="M259.6,75.7l1.5,0.2c-0.2,0.8-0.7,1.5-1.3,2s-1.4,0.7-2.4,0.7c-1.2,0-2.2-0.4-2.9-1.1s-1.1-1.8-1.1-3.1
		c0-1.4,0.4-2.5,1.1-3.3s1.7-1.2,2.8-1.2s2,0.4,2.7,1.1c0.7,0.7,1.1,1.8,1.1,3.2c0,0.1,0,0.2,0,0.4h-6.2c0.1,0.9,0.3,1.6,0.8,2.1
		s1,0.7,1.7,0.7c0.5,0,1-0.1,1.3-0.4C259.1,76.8,259.4,76.3,259.6,75.7z M255,73.5h4.6c-0.1-0.7-0.2-1.2-0.5-1.6
		c-0.4-0.5-1-0.8-1.7-0.8c-0.6,0-1.2,0.2-1.6,0.6C255.3,72.2,255,72.7,255,73.5z"/>
	<path class="st4" d="M262.8,78.4v-8.3h1.3v1.2c0.6-0.9,1.5-1.4,2.6-1.4c0.5,0,1,0.1,1.4,0.3c0.4,0.2,0.7,0.4,0.9,0.7
		c0.2,0.3,0.4,0.6,0.4,1c0.1,0.3,0.1,0.7,0.1,1.4v5.1h-1.4v-5c0-0.6-0.1-1-0.2-1.3s-0.3-0.5-0.6-0.7c-0.3-0.2-0.6-0.3-1-0.3
		c-0.6,0-1.1,0.2-1.6,0.6c-0.4,0.4-0.7,1.1-0.7,2.2v4.5C264,78.3,262.8,78.3,262.8,78.4z"/>
	<path class="st4" d="M271,78.4v-1.1l5.3-6.1c-0.6,0-1.1,0-1.6,0h-3.4v-1.1h6.8V71l-4.5,5.3l-0.9,1c0.6,0,1.2-0.1,1.8-0.1h3.8v1.2
		C278.3,78.4,271,78.4,271,78.4z"/>
	<path class="st4" d="M285.2,78.4v-1.2c-0.6,0.9-1.5,1.4-2.6,1.4c-0.5,0-0.9-0.1-1.4-0.3c-0.4-0.2-0.7-0.4-0.9-0.7
		c-0.2-0.3-0.4-0.6-0.4-1c-0.1-0.3-0.1-0.7-0.1-1.3v-5.1h1.4v4.6c0,0.7,0,1.2,0.1,1.5c0.1,0.4,0.3,0.7,0.6,0.9
		c0.3,0.2,0.6,0.3,1.1,0.3s0.8-0.1,1.2-0.3c0.4-0.2,0.6-0.5,0.8-0.9c0.2-0.4,0.2-0.9,0.2-1.6v-4.4h1.4v8.3h-1.4V78.4z"/>
	<path class="st4" d="M291.7,77.1l0.2,1.2c-0.4,0.1-0.8,0.1-1.1,0.1c-0.5,0-0.9-0.1-1.2-0.2s-0.5-0.4-0.6-0.6
		c-0.1-0.3-0.2-0.8-0.2-1.7v-4.8h-1V70h1v-2.1l1.4-0.8V70h1.4v1.1h-1.4V76c0,0.4,0,0.7,0.1,0.8c0,0.1,0.1,0.2,0.2,0.3
		c0.1,0.1,0.3,0.1,0.5,0.1C291.2,77.2,291.4,77.2,291.7,77.1z"/>
	<path class="st4" d="M298.7,75.7l1.5,0.2c-0.2,0.8-0.7,1.5-1.3,2c-0.6,0.5-1.4,0.7-2.4,0.7c-1.2,0-2.2-0.4-2.9-1.1
		s-1.1-1.8-1.1-3.1c0-1.4,0.4-2.5,1.1-3.3s1.7-1.2,2.8-1.2c1.1,0,2,0.4,2.7,1.1s1.1,1.8,1.1,3.2c0,0.1,0,0.2,0,0.4H294
		c0.1,0.9,0.3,1.6,0.8,2.1s1,0.7,1.7,0.7c0.5,0,1-0.1,1.3-0.4C298.2,76.8,298.5,76.3,298.7,75.7z M294.1,73.5h4.6
		c-0.1-0.7-0.2-1.2-0.5-1.6c-0.4-0.5-1-0.8-1.7-0.8c-0.6,0-1.2,0.2-1.6,0.6C294.4,72.2,294.2,72.7,294.1,73.5z"/>
	<path class="st4" d="M302,68.6V67h1.4v1.6H302z M302,78.4v-8.3h1.4v8.3H302z"/>
	<path class="st4" d="M305.5,78.4V66.9h1.4v11.5H305.5z"/>
	<path class="st4" d="M314.5,78.4v-1.2c-0.6,0.9-1.5,1.4-2.6,1.4c-0.5,0-0.9-0.1-1.4-0.3c-0.4-0.2-0.7-0.4-0.9-0.7
		c-0.2-0.3-0.4-0.6-0.4-1c-0.1-0.3-0.1-0.7-0.1-1.3v-5.1h1.4v4.6c0,0.7,0,1.2,0.1,1.5c0.1,0.4,0.3,0.7,0.6,0.9
		c0.3,0.2,0.6,0.3,1.1,0.3s0.8-0.1,1.2-0.3c0.4-0.2,0.6-0.5,0.8-0.9c0.2-0.4,0.2-0.9,0.2-1.6v-4.4h1.4v8.3h-1.4V78.4z"/>
	<path class="st4" d="M318,78.4v-8.3h1.3v1.2c0.6-0.9,1.5-1.4,2.6-1.4c0.5,0,1,0.1,1.4,0.3c0.4,0.2,0.7,0.4,0.9,0.7
		c0.2,0.3,0.4,0.6,0.4,1c0.1,0.3,0.1,0.7,0.1,1.4v5.1h-1.4v-5c0-0.6-0.1-1-0.2-1.3s-0.3-0.5-0.6-0.7c-0.3-0.2-0.6-0.3-1-0.3
		c-0.6,0-1.1,0.2-1.6,0.6c-0.4,0.4-0.7,1.1-0.7,2.2v4.5C319.2,78.3,318,78.3,318,78.4z"/>
	<path class="st4" d="M326.6,79.1l1.4,0.2c0.1,0.4,0.2,0.7,0.5,0.9c0.3,0.3,0.8,0.4,1.4,0.4c0.7,0,1.2-0.1,1.5-0.4
		c0.4-0.3,0.6-0.6,0.7-1.1c0.1-0.3,0.1-0.9,0.1-1.8c-0.6,0.7-1.4,1.1-2.3,1.1c-1.1,0-2-0.4-2.6-1.2s-0.9-1.8-0.9-3
		c0-0.8,0.1-1.5,0.4-2.2s0.7-1.2,1.2-1.6s1.2-0.5,1.9-0.5c1,0,1.8,0.4,2.4,1.2v-1h1.3v7.2c0,1.3-0.1,2.2-0.4,2.7s-0.7,1-1.3,1.3
		s-1.3,0.5-2.1,0.5c-1,0-1.8-0.2-2.4-0.7S326.6,80,326.6,79.1z M327.8,74.1c0,1.1,0.2,1.9,0.6,2.4s1,0.8,1.6,0.8s1.2-0.2,1.6-0.7
		s0.7-1.3,0.7-2.3s-0.2-1.8-0.7-2.3s-1-0.8-1.6-0.8s-1.2,0.3-1.6,0.8S327.8,73.1,327.8,74.1z"/>
</g>
<g class="st3">
	<path class="st4" d="M463.4,294.3v-11.5h2.3l2.7,8.1c0.3,0.8,0.4,1.3,0.5,1.7c0.1-0.4,0.3-1,0.6-1.8l2.7-8h2v11.5h-1.5v-9.6
		l-3.3,9.6H468l-3.3-9.8v9.8H463.4z"/>
	<path class="st4" d="M476.6,284.5v-1.6h1.4v1.6H476.6z M476.6,294.3V286h1.4v8.3H476.6z"/>
	<path class="st4" d="M483.3,293l0.2,1.2c-0.4,0.1-0.8,0.1-1.1,0.1c-0.5,0-0.9-0.1-1.2-0.2s-0.5-0.4-0.6-0.6s-0.2-0.8-0.2-1.7V287
		h-1v-1.1h1v-2.1l1.4-0.8v2.9h1.4v1.1h-1.4v4.9c0,0.4,0,0.7,0.1,0.8s0.1,0.2,0.2,0.3s0.3,0.1,0.5,0.1
		C482.9,293.1,483.1,293.1,483.3,293z"/>
	<path class="st4" d="M487.8,293l0.2,1.2c-0.4,0.1-0.8,0.1-1.1,0.1c-0.5,0-0.9-0.1-1.2-0.2s-0.5-0.4-0.6-0.6s-0.2-0.8-0.2-1.7V287
		h-1v-1.1h1v-2.1l1.4-0.8v2.9h1.4v1.1h-1.3v4.9c0,0.4,0,0.7,0.1,0.8s0.1,0.2,0.2,0.3s0.3,0.1,0.5,0.1
		C487.3,293.1,487.4,293.1,487.8,293z"/>
	<path class="st4" d="M494.8,291.6l1.5,0.2c-0.2,0.8-0.7,1.5-1.3,2s-1.4,0.7-2.4,0.7c-1.2,0-2.2-0.4-2.9-1.1s-1.1-1.8-1.1-3.1
		c0-1.4,0.4-2.5,1.1-3.3s1.7-1.2,2.8-1.2s2,0.4,2.7,1.1s1.1,1.8,1.1,3.2c0,0.1,0,0.2,0,0.4H490c0.1,0.9,0.3,1.6,0.8,2.1
		s1,0.7,1.7,0.7c0.5,0,1-0.1,1.3-0.4S494.6,292.2,494.8,291.6z M490.1,289.4h4.6c-0.1-0.7-0.2-1.2-0.5-1.6c-0.4-0.5-1-0.8-1.7-0.8
		c-0.6,0-1.2,0.2-1.6,0.6S490.3,288.6,490.1,289.4z"/>
	<path class="st4" d="M497.9,294.3v-11.5h1.4v11.5H497.9z"/>
</g>
<g class="st3">
	<path class="st4" d="M560.3,276.5v-1.3h4.9v4.3c-0.7,0.6-1.5,1-2.3,1.3c-0.8,0.3-1.6,0.4-2.4,0.4c-1.1,0-2.1-0.2-3.1-0.7
		c-0.9-0.5-1.6-1.2-2.1-2.1s-0.7-1.9-0.7-3.1c0-1.1,0.2-2.2,0.7-3.1c0.5-1,1.1-1.7,2-2.2s1.9-0.7,3-0.7c0.8,0,1.6,0.1,2.2,0.4
		c0.7,0.3,1.2,0.6,1.6,1.1s0.7,1.1,0.9,1.9l-1.4,0.4c-0.2-0.6-0.4-1-0.6-1.4c-0.3-0.3-0.6-0.6-1.1-0.8c-0.5-0.2-1-0.3-1.6-0.3
		c-0.7,0-1.3,0.1-1.8,0.3c-0.5,0.2-0.9,0.5-1.2,0.8c-0.3,0.3-0.6,0.7-0.7,1.1c-0.3,0.7-0.4,1.5-0.4,2.3c0,1,0.2,1.9,0.5,2.6
		c0.3,0.7,0.9,1.2,1.5,1.5s1.4,0.5,2.1,0.5c0.7,0,1.3-0.1,1.9-0.4c0.6-0.3,1.1-0.5,1.4-0.8v-2H560.3z"/>
	<path class="st4" d="M572.9,278.3l1.5,0.2c-0.2,0.8-0.7,1.5-1.3,2s-1.4,0.7-2.4,0.7c-1.2,0-2.2-0.4-2.9-1.1
		c-0.7-0.7-1.1-1.8-1.1-3.1c0-1.4,0.4-2.5,1.1-3.3s1.7-1.2,2.8-1.2s2,0.4,2.7,1.1c0.7,0.7,1.1,1.8,1.1,3.2c0,0.1,0,0.2,0,0.4h-6.2
		c0.1,0.9,0.3,1.6,0.8,2.1s1,0.7,1.7,0.7c0.5,0,1-0.1,1.3-0.4C572.4,279.4,572.7,278.9,572.9,278.3z M568.3,276.1h4.6
		c-0.1-0.7-0.2-1.2-0.5-1.6c-0.4-0.5-1-0.8-1.7-0.8c-0.6,0-1.2,0.2-1.6,0.6C568.5,274.8,568.3,275.3,568.3,276.1z"/>
	<path class="st4" d="M577.7,281l-2.5-8.3h1.5l1.3,4.8l0.5,1.8c0-0.1,0.2-0.7,0.4-1.7l1.3-4.9h1.4l1.2,4.8l0.4,1.6l0.5-1.6l1.4-4.8
		h1.4l-2.6,8.3h-1.5l-1.3-5l-0.3-1.4l-1.7,6.4L577.7,281L577.7,281z"/>
	<path class="st4" d="M593.3,278.3l1.5,0.2c-0.2,0.8-0.7,1.5-1.3,2s-1.4,0.7-2.4,0.7c-1.2,0-2.2-0.4-2.9-1.1
		c-0.7-0.7-1.1-1.8-1.1-3.1c0-1.4,0.4-2.5,1.1-3.3s1.7-1.2,2.8-1.2s2,0.4,2.7,1.1c0.7,0.7,1.1,1.8,1.1,3.2c0,0.1,0,0.2,0,0.4h-6.2
		c0.1,0.9,0.3,1.6,0.8,2.1s1,0.7,1.7,0.7c0.5,0,1-0.1,1.3-0.4C592.8,279.4,593.2,278.9,593.3,278.3z M588.8,276.1h4.6
		c-0.1-0.7-0.2-1.2-0.5-1.6c-0.4-0.5-1-0.8-1.7-0.8c-0.6,0-1.2,0.2-1.6,0.6C589,274.8,588.8,275.3,588.8,276.1z"/>
	<path class="st4" d="M596.5,281v-8.3h1.3v1.3c0.3-0.6,0.6-1,0.9-1.2s0.6-0.3,0.9-0.3c0.5,0,1,0.2,1.4,0.5l-0.5,1.3
		c-0.3-0.2-0.7-0.3-1-0.3c-0.3,0-0.6,0.1-0.8,0.3c-0.2,0.2-0.4,0.4-0.5,0.8c-0.2,0.5-0.2,1-0.2,1.6v4.3L596.5,281L596.5,281z"/>
	<path class="st4" d="M603.3,281h-1.3v-11.5h1.4v4.1c0.6-0.7,1.4-1.1,2.3-1.1c0.5,0,1,0.1,1.4,0.3c0.5,0.2,0.8,0.5,1.1,0.9
		c0.3,0.4,0.5,0.8,0.7,1.3c0.2,0.5,0.3,1.1,0.3,1.7c0,1.4-0.4,2.5-1.1,3.3s-1.5,1.2-2.5,1.2s-1.7-0.4-2.3-1.2V281L603.3,281z
		 M603.2,276.8c0,1,0.1,1.7,0.4,2.2c0.4,0.7,1,1.1,1.8,1.1c0.6,0,1.1-0.3,1.6-0.8c0.4-0.5,0.7-1.3,0.7-2.4s-0.2-1.9-0.6-2.4
		c-0.4-0.5-0.9-0.8-1.6-0.8c-0.6,0-1.1,0.3-1.6,0.8C603.4,275,603.2,275.8,603.2,276.8z"/>
	<path class="st4" d="M616.4,278.3l1.5,0.2c-0.2,0.8-0.7,1.5-1.3,2s-1.4,0.7-2.4,0.7c-1.2,0-2.2-0.4-2.9-1.1
		c-0.7-0.7-1.1-1.8-1.1-3.1c0-1.4,0.4-2.5,1.1-3.3s1.7-1.2,2.8-1.2s2,0.4,2.7,1.1c0.7,0.7,1.1,1.8,1.1,3.2c0,0.1,0,0.2,0,0.4h-6.2
		c0.1,0.9,0.3,1.6,0.8,2.1s1,0.7,1.7,0.7c0.5,0,1-0.1,1.3-0.4C615.9,279.4,616.3,278.9,616.4,278.3z M611.8,276.1h4.6
		c-0.1-0.7-0.2-1.2-0.5-1.6c-0.4-0.5-1-0.8-1.7-0.8c-0.6,0-1.2,0.2-1.6,0.6C612.2,274.8,611.9,275.3,611.8,276.1z"/>
	<path class="st4" d="M619.8,271.2v-1.7h1.4v1.6h-1.4V271.2z M619.8,281v-8.3h1.4v8.3H619.8z"/>
	<path class="st4" d="M623.3,281v-8.3h1.3v1.2c0.3-0.4,0.6-0.7,1-1c0.4-0.2,0.9-0.4,1.5-0.4s1.1,0.1,1.5,0.4s0.7,0.6,0.8,1.1
		c0.7-1,1.5-1.5,2.6-1.5c0.8,0,1.5,0.2,1.9,0.7s0.7,1.2,0.7,2.1v5.7h-1.4v-5.2c0-0.6,0-1-0.1-1.2s-0.3-0.4-0.5-0.6
		c-0.2-0.2-0.5-0.2-0.8-0.2c-0.6,0-1.1,0.2-1.5,0.6s-0.6,1-0.6,1.9v4.8h-1.4v-5.4c0-0.6-0.1-1.1-0.3-1.4c-0.2-0.3-0.6-0.5-1.1-0.5
		c-0.4,0-0.8,0.1-1.1,0.3c-0.3,0.2-0.6,0.5-0.7,0.9c-0.2,0.4-0.2,1-0.2,1.7v4.3H623.3z"/>
	<path class="st4" d="M636.5,281v-8.3h1.3v1.2c0.3-0.4,0.6-0.7,1-1c0.4-0.2,0.9-0.4,1.5-0.4s1.1,0.1,1.5,0.4s0.7,0.6,0.8,1.1
		c0.7-1,1.5-1.5,2.6-1.5c0.8,0,1.5,0.2,1.9,0.7s0.7,1.2,0.7,2.1v5.7h-1.4v-5.2c0-0.6,0-1-0.1-1.2s-0.3-0.4-0.5-0.6
		c-0.2-0.2-0.5-0.2-0.8-0.2c-0.6,0-1.1,0.2-1.5,0.6s-0.6,1-0.6,1.9v4.8h-1.4v-5.4c0-0.6-0.1-1.1-0.3-1.4c-0.2-0.3-0.6-0.5-1.1-0.5
		c-0.4,0-0.8,0.1-1.1,0.3c-0.3,0.2-0.6,0.5-0.7,0.9c-0.2,0.4-0.2,1-0.2,1.7v4.3H636.5z"/>
	<path class="st4" d="M649.3,276.9c0-1.5,0.4-2.7,1.3-3.4c0.7-0.6,1.6-0.9,2.6-0.9c1.1,0,2.1,0.4,2.8,1.1c0.7,0.7,1.1,1.8,1.1,3.1
		c0,1.1-0.2,1.9-0.5,2.5c-0.3,0.6-0.8,1.1-1.4,1.4s-1.3,0.5-2,0.5c-1.2,0-2.1-0.4-2.8-1.1C649.8,279.3,649.3,278.3,649.3,276.9z
		 M650.8,276.9c0,1.1,0.2,1.9,0.7,2.4s1,0.8,1.8,0.8c0.7,0,1.3-0.3,1.7-0.8c0.5-0.5,0.7-1.3,0.7-2.4c0-1-0.2-1.8-0.7-2.3
		s-1-0.8-1.7-0.8c-0.7,0-1.3,0.3-1.8,0.8C651,275,650.8,275.8,650.8,276.9z"/>
	<path class="st4" d="M660.2,281h-1.3v-11.5h1.4v4.1c0.6-0.7,1.4-1.1,2.3-1.1c0.5,0,1,0.1,1.4,0.3c0.5,0.2,0.8,0.5,1.1,0.9
		c0.3,0.4,0.5,0.8,0.7,1.3c0.2,0.5,0.3,1.1,0.3,1.7c0,1.4-0.4,2.5-1.1,3.3s-1.5,1.2-2.5,1.2s-1.7-0.4-2.3-1.2V281L660.2,281z
		 M660,276.8c0,1,0.1,1.7,0.4,2.2c0.4,0.7,1,1.1,1.8,1.1c0.6,0,1.1-0.3,1.6-0.8c0.4-0.5,0.7-1.3,0.7-2.4s-0.2-1.9-0.6-2.4
		c-0.4-0.5-0.9-0.8-1.6-0.8c-0.6,0-1.1,0.3-1.6,0.8C660.3,275,660,275.8,660,276.8z"/>
	<path class="st4" d="M667.8,271.2v-1.7h1.4v1.6h-1.4V271.2z M667.8,281v-8.3h1.4v8.3H667.8z"/>
	<path class="st4" d="M671.3,281v-11.5h1.4V281H671.3z"/>
	<path class="st4" d="M674.8,271.2v-1.7h1.4v1.6h-1.4V271.2z M674.8,281v-8.3h1.4v8.3H674.8z"/>
	<path class="st4" d="M684,278.3l1.5,0.2c-0.2,0.8-0.7,1.5-1.3,2s-1.4,0.7-2.4,0.7c-1.2,0-2.2-0.4-2.9-1.1c-0.7-0.7-1.1-1.8-1.1-3.1
		c0-1.4,0.4-2.5,1.1-3.3s1.7-1.2,2.8-1.2s2,0.4,2.7,1.1c0.7,0.7,1.1,1.8,1.1,3.2c0,0.1,0,0.2,0,0.4h-6.2c0.1,0.9,0.3,1.6,0.8,2.1
		s1,0.7,1.7,0.7c0.5,0,1-0.1,1.3-0.4C683.5,279.4,683.8,278.9,684,278.3z M679.4,276.1h4.6c-0.1-0.7-0.2-1.2-0.5-1.6
		c-0.4-0.5-1-0.8-1.7-0.8c-0.6,0-1.2,0.2-1.6,0.6C679.8,274.8,679.4,275.3,679.4,276.1z"/>
	<path class="st4" d="M687.3,281v-8.3h1.3v1.2c0.6-0.9,1.5-1.4,2.6-1.4c0.5,0,1,0.1,1.4,0.3c0.4,0.2,0.7,0.4,0.9,0.7
		c0.2,0.3,0.4,0.6,0.4,1c0.1,0.3,0.1,0.7,0.1,1.4v5.1h-1.4v-5c0-0.6-0.1-1-0.2-1.3c-0.1-0.3-0.3-0.5-0.6-0.7c-0.3-0.2-0.6-0.3-1-0.3
		c-0.6,0-1.1,0.2-1.6,0.6c-0.4,0.4-0.7,1.1-0.7,2.2v4.5L687.3,281L687.3,281z"/>
</g>
</svg>
