<?xml version="1.0" encoding="utf-8"?>
<!-- Generator: Adobe Illustrator 23.0.0, SVG Export Plug-In . SVG Version: 6.00 Build 0)  -->
<svg version="1.1" id="图层_1" xmlns="http://www.w3.org/2000/svg" xmlns:xlink="http://www.w3.org/1999/xlink" x="0px" y="0px"
	 viewBox="0 0 750 870" style="enable-background:new 0 0 750 870;" xml:space="preserve">
<style type="text/css">
	.st0{enable-background:new    ;}
	.st1{fill:#D6D6D6;}
	.st2{fill:#0E0E0E;}
	.st3{fill:#0EAFA0;}
	.st4{fill:#CDBB78;}
	.st5{fill:#EC632F;}
</style>
<g id="_2.0_" class="st0">
	<path d="M79.2,331.6c0-0.9-0.3-1.6-0.8-2.2c-0.6-0.5-1.4-0.8-2.4-0.8c-0.6,0-1.4,0.2-2,0.5c-0.8,0.3-1.4,0.8-2,1.6v-2
		c0.5-0.6,1.1-0.9,1.9-1.3c0.6-0.3,1.6-0.5,2.5-0.5c1.6,0,2.7,0.5,3.6,1.3s1.4,1.9,1.4,3.3c0,1.3-0.3,2.4-0.8,3.1
		c-0.6,0.9-1.6,1.9-3,2.8s-2.4,1.7-2.8,2c-0.5,0.5-0.8,0.8-0.9,1.3c-0.2,0.3-0.3,0.8-0.3,1.4h8.3v1.9H71.4v-0.8
		c0-0.9,0.2-1.7,0.5-2.5c0.3-0.6,0.6-1.3,1.3-2c0.6-0.6,1.6-1.4,2.8-2.4c1.3-0.9,2.2-1.7,2.7-2.4C79,333.3,79.2,332.5,79.2,331.6z"
		/>
	<path d="M84.4,342.9c0-0.3,0.2-0.8,0.5-0.9c0.3-0.3,0.6-0.5,0.9-0.5c0.5,0,0.8,0.2,0.9,0.5c0.3,0.3,0.5,0.6,0.5,0.9
		s-0.2,0.6-0.5,0.9s-0.6,0.5-0.9,0.5c-0.5,0-0.8-0.2-0.9-0.5C84.4,343.5,84.4,343.2,84.4,342.9z"/>
	<path d="M89.4,336c0-3,0.5-5.2,1.4-6.7c0.9-1.6,2.4-2.4,4.2-2.4c3.6,0,5.3,2.8,5.3,8.6c0,2.8-0.5,5-1.6,6.4
		c-0.9,1.6-2.4,2.2-4.2,2.2c-1.7,0-3-0.8-3.9-2.2C89.9,340.7,89.4,338.7,89.4,336z M91.4,335.8c0,4.4,1.1,6.7,3.4,6.7
		c2.2,0,3.3-2.2,3.3-6.7c0-4.7-1.1-7.1-3.3-7.1C92.7,328.8,91.4,331.1,91.4,335.8z"/>
	<path d="M102.3,331.4c0-1.4,0.3-2.5,1.1-3.3c0.8-0.8,1.7-1.3,3-1.3s2.2,0.3,2.8,1.1c0.6,0.8,0.9,1.7,0.9,3.1c0,1.3-0.3,2.4-1.1,3.1
		c-0.8,0.8-1.7,1.3-3,1.3c-1.1,0-2-0.3-2.8-1.1C102.6,333.8,102.3,332.7,102.3,331.4z M104,331.3c0,0.9,0.2,1.7,0.6,2.2
		c0.5,0.5,0.9,0.8,1.7,0.8s1.3-0.3,1.7-0.8c0.5-0.5,0.6-1.3,0.6-2.2s-0.2-1.7-0.6-2.2c-0.3-0.5-0.9-0.8-1.6-0.8
		c-0.8,0-1.3,0.3-1.7,0.8C104.1,329.7,104,330.3,104,331.3z M117.5,327.2l-10.8,16.9H105l10.8-16.9H117.5z M112.3,340.1
		c0-1.4,0.3-2.5,1.1-3.3s1.7-1.3,3-1.3s2,0.3,2.8,1.1c0.6,0.8,0.9,1.7,0.9,3.1c0,1.3-0.3,2.4-1.1,3.1c-0.8,0.8-1.7,1.3-3,1.3
		c-1.1,0-2-0.3-2.8-1.1C112.6,342.3,112.3,341.3,112.3,340.1z M114,339.9c0,0.9,0.2,1.6,0.6,2.2c0.5,0.5,0.9,0.8,1.7,0.8
		s1.3-0.3,1.7-0.8c0.5-0.5,0.6-1.3,0.6-2.2c0-0.9-0.2-1.7-0.6-2.2c-0.5-0.5-0.9-0.8-1.6-0.8c-0.8,0-1.3,0.3-1.7,0.8
		C114.2,338.3,114,339,114,339.9z"/>
</g>
<g id="_4.0_" class="st0">
	<path d="M80.1,283.9V295h2.5v1.7h-2.5v3.9h-2v-3.9h-7.8V295c1.4-1.6,2.8-3.3,4.2-5.3s2.5-3.9,3.4-5.8L80.1,283.9L80.1,283.9z
		 M72.6,295.1h5.5v-8c-0.8,1.4-1.6,2.7-2.4,3.9C74.8,292.2,73.7,293.5,72.6,295.1z"/>
	<path d="M84.4,299.6c0-0.3,0.2-0.8,0.5-0.9c0.3-0.3,0.6-0.5,0.9-0.5c0.5,0,0.8,0.2,0.9,0.5c0.3,0.3,0.5,0.6,0.5,0.9
		s-0.2,0.6-0.5,0.9s-0.6,0.5-0.9,0.5c-0.5,0-0.8-0.2-0.9-0.5C84.4,300.2,84.4,299.9,84.4,299.6z"/>
	<path d="M89.4,292.7c0-3,0.5-5.2,1.4-6.7c0.9-1.6,2.4-2.4,4.2-2.4c3.6,0,5.3,2.8,5.3,8.6c0,2.8-0.5,5-1.6,6.4
		c-0.9,1.6-2.4,2.2-4.2,2.2c-1.7,0-3-0.8-3.9-2.2C89.9,297.4,89.4,295.4,89.4,292.7z M91.4,292.6c0,4.4,1.1,6.7,3.4,6.7
		c2.2,0,3.3-2.2,3.3-6.7c0-4.7-1.1-7.1-3.3-7.1C92.7,285.5,91.4,287.9,91.4,292.6z"/>
	<path d="M102.3,288.2c0-1.4,0.3-2.5,1.1-3.3c0.8-0.8,1.7-1.3,3-1.3s2.2,0.3,2.8,1.1c0.6,0.8,0.9,1.7,0.9,3.1c0,1.3-0.3,2.4-1.1,3.1
		c-0.8,0.8-1.7,1.3-3,1.3c-1.1,0-2-0.3-2.8-1.1C102.6,290.5,102.3,289.4,102.3,288.2z M104,288c0,0.9,0.2,1.7,0.6,2.2
		c0.5,0.5,0.9,0.8,1.7,0.8s1.3-0.3,1.7-0.8c0.5-0.5,0.6-1.3,0.6-2.2c0-0.9-0.2-1.7-0.6-2.2c-0.3-0.5-0.9-0.8-1.6-0.8
		c-0.8,0-1.3,0.3-1.7,0.8C104.1,286.4,104,287.1,104,288z M117.5,283.9l-10.8,16.9H105l10.8-16.9H117.5z M112.3,296.8
		c0-1.4,0.3-2.5,1.1-3.3s1.7-1.3,3-1.3s2,0.3,2.8,1.1c0.6,0.8,0.9,1.7,0.9,3.1c0,1.3-0.3,2.4-1.1,3.1c-0.8,0.8-1.7,1.3-3,1.3
		c-1.1,0-2-0.3-2.8-1.1C112.6,299,112.3,298,112.3,296.8z M114,296.6c0,0.9,0.2,1.6,0.6,2.2c0.5,0.5,0.9,0.8,1.7,0.8
		s1.3-0.3,1.7-0.8c0.5-0.5,0.6-1.3,0.6-2.2c0-0.9-0.2-1.7-0.6-2.2c-0.5-0.5-0.9-0.8-1.6-0.8c-0.8,0-1.3,0.3-1.7,0.8
		C114.2,295.1,114,295.7,114,296.6z"/>
</g>
<g id="_6.0_" class="st0">
	<path d="M81.1,238.8c-0.9-0.5-1.7-0.6-2.7-0.6c-1.4,0-2.7,0.6-3.4,1.9c-0.9,1.3-1.3,3-1.4,5.2l0,0c0.8-1.6,2-2.4,3.8-2.4
		c1.4,0,2.7,0.5,3.4,1.4c0.8,0.9,1.3,2.2,1.3,3.8s-0.5,3-1.6,4.1c-0.9,1.1-2.2,1.6-3.8,1.6c-1.7,0-3-0.6-4.1-2
		c-0.9-1.3-1.4-3.3-1.4-5.6c0-3,0.6-5.3,1.9-7.1c1.3-1.7,3-2.7,5-2.7c1.3,0,2.2,0.2,2.8,0.5L81.1,238.8L81.1,238.8z M73.6,247.9
		c0,1.1,0.3,2,0.9,2.8s1.4,1.3,2.4,1.3s1.7-0.3,2.2-0.9c0.6-0.6,0.9-1.6,0.9-2.7s-0.3-2-0.8-2.7c-0.5-0.6-1.3-0.9-2.4-0.9
		c-0.9,0-1.7,0.3-2.4,0.9C73.9,246.3,73.6,247.1,73.6,247.9z"/>
	<path d="M84.4,252.3c0-0.3,0.2-0.8,0.5-0.9c0.3-0.3,0.6-0.5,0.9-0.5c0.5,0,0.8,0.2,0.9,0.5c0.3,0.3,0.5,0.6,0.5,0.9
		c0,0.3-0.2,0.6-0.5,0.9c-0.3,0.3-0.6,0.5-0.9,0.5c-0.5,0-0.8-0.2-0.9-0.5C84.4,252.9,84.4,252.6,84.4,252.3z"/>
	<path d="M89.4,245.4c0-3,0.5-5.2,1.4-6.7s2.4-2.4,4.2-2.4c3.6,0,5.3,2.8,5.3,8.6c0,2.8-0.5,5-1.6,6.4c-0.9,1.6-2.4,2.2-4.2,2.2
		c-1.7,0-3-0.8-3.9-2.2C89.9,250.1,89.4,248,89.4,245.4z M91.4,245.2c0,4.4,1.1,6.7,3.4,6.7c2.2,0,3.3-2.2,3.3-6.7
		c0-4.7-1.1-7.1-3.3-7.1C92.7,238.1,91.4,240.5,91.4,245.2z"/>
	<path d="M102.3,240.8c0-1.4,0.3-2.5,1.1-3.3s1.7-1.3,3-1.3s2.2,0.3,2.8,1.1c0.6,0.8,0.9,1.7,0.9,3.1c0,1.3-0.3,2.4-1.1,3.1
		c-0.8,0.8-1.7,1.3-3,1.3c-1.1,0-2-0.3-2.8-1.1C102.6,243.2,102.3,242.1,102.3,240.8z M104,240.8c0,0.9,0.2,1.7,0.6,2.2
		c0.5,0.5,0.9,0.8,1.7,0.8s1.3-0.3,1.7-0.8s0.6-1.3,0.6-2.2s-0.2-1.7-0.6-2.2c-0.3-0.5-0.9-0.8-1.6-0.8c-0.8,0-1.3,0.3-1.7,0.8
		C104.1,239.1,104,239.9,104,240.8z M117.5,236.6l-10.8,16.9H105l10.8-16.9H117.5z M112.3,249.4c0-1.4,0.3-2.5,1.1-3.3
		c0.8-0.8,1.7-1.3,3-1.3s2,0.3,2.8,1.1c0.6,0.8,0.9,1.7,0.9,3.1c0,1.3-0.3,2.4-1.1,3.1c-0.8,0.8-1.7,1.3-3,1.3c-1.1,0-2-0.3-2.8-1.1
		C112.6,251.6,112.3,250.7,112.3,249.4z M114,249.3c0,0.9,0.2,1.6,0.6,2.2c0.5,0.5,0.9,0.8,1.7,0.8s1.3-0.3,1.7-0.8
		c0.5-0.5,0.6-1.3,0.6-2.2s-0.2-1.7-0.6-2.2c-0.5-0.5-0.9-0.8-1.6-0.8c-0.8,0-1.3,0.3-1.7,0.8C114.2,247.7,114,248.3,114,249.3z"/>
</g>
<g id="_8.0_" class="st0">
	<path d="M71,197.4c0-0.9,0.3-1.9,0.9-2.7s1.3-1.4,2.2-1.7c-0.8-0.5-1.3-0.9-1.7-1.6c-0.5-0.6-0.6-1.4-0.6-2c0-0.8,0.2-1.6,0.6-2.2
		c0.5-0.6,0.9-1.1,1.7-1.6c0.8-0.3,1.6-0.6,2.4-0.6c0.9,0,1.7,0.2,2.4,0.6c0.8,0.3,1.3,0.9,1.7,1.6c0.5,0.6,0.6,1.4,0.6,2.2
		s-0.2,1.4-0.6,2c-0.5,0.6-0.9,1.3-1.7,1.6c0.9,0.3,1.7,0.9,2.2,1.7c0.6,0.8,0.8,1.7,0.8,2.7c0,0.9-0.2,1.9-0.6,2.5
		c-0.5,0.8-1.1,1.4-1.9,1.7c-0.8,0.5-1.7,0.6-2.8,0.6c-1.1,0-2-0.2-2.8-0.6s-1.4-0.9-1.9-1.7C71.4,199.1,71,198.3,71,197.4z
		 M73.2,197.2c0,0.9,0.3,1.7,0.9,2.4s1.4,0.9,2.5,0.9c0.9,0,1.9-0.3,2.5-0.9s0.9-1.4,0.9-2.4c0-0.9-0.3-1.7-0.9-2.4
		c-0.6-0.6-1.4-0.9-2.4-0.9s-1.7,0.3-2.4,0.9C73.6,195.5,73.2,196.3,73.2,197.2z M73.7,189.4c0,0.8,0.3,1.4,0.8,1.9s1.3,0.8,1.9,0.8
		c0.8,0,1.4-0.3,2-0.8s0.8-1.3,0.8-1.9c0-0.8-0.3-1.4-0.8-1.9s-1.3-0.8-2-0.8s-1.4,0.3-2,0.8C74,188,73.7,188.7,73.7,189.4z"/>
	<path d="M84.4,201c0-0.3,0.2-0.8,0.5-0.9c0.3-0.3,0.6-0.5,0.9-0.5c0.5,0,0.8,0.2,0.9,0.5c0.3,0.3,0.5,0.6,0.5,0.9
		c0,0.3-0.2,0.6-0.5,0.9c-0.3,0.3-0.6,0.5-0.9,0.5c-0.5,0-0.8-0.2-0.9-0.5C84.4,201.6,84.4,201.3,84.4,201z"/>
	<path d="M89.4,193.9c0-3,0.5-5.2,1.4-6.7s2.4-2.4,4.2-2.4c3.6,0,5.3,2.8,5.3,8.6c0,2.8-0.5,5-1.6,6.4c-0.9,1.6-2.4,2.2-4.2,2.2
		c-1.7,0-3-0.8-3.9-2.2C89.9,198.8,89.4,196.7,89.4,193.9z M91.4,193.9c0,4.4,1.1,6.7,3.4,6.7c2.2,0,3.3-2.2,3.3-6.7
		c0-4.7-1.1-7.1-3.3-7.1C92.7,186.7,91.4,189.1,91.4,193.9z"/>
	<path d="M102.3,189.5c0-1.4,0.3-2.5,1.1-3.3c0.8-0.8,1.7-1.3,3-1.3s2.2,0.3,2.8,1.1c0.6,0.8,0.9,1.7,0.9,3.1c0,1.3-0.3,2.4-1.1,3.1
		c-0.8,0.8-1.7,1.3-3,1.3c-1.1,0-2-0.3-2.8-1.1C102.6,191.7,102.3,190.8,102.3,189.5z M104,189.4c0,0.9,0.2,1.7,0.6,2.2
		c0.5,0.5,0.9,0.8,1.7,0.8s1.3-0.3,1.7-0.8s0.6-1.3,0.6-2.2s-0.2-1.7-0.6-2.2c-0.3-0.5-0.9-0.8-1.6-0.8c-0.8,0-1.3,0.3-1.7,0.8
		C104.1,187.6,104,188.4,104,189.4z M117.5,185.3l-10.8,16.8H105l10.8-16.9L117.5,185.3L117.5,185.3z M112.3,198.2
		c0-1.4,0.3-2.5,1.1-3.3s1.7-1.3,3-1.3s2,0.3,2.8,1.1c0.6,0.8,0.9,1.7,0.9,3.1c0,1.3-0.3,2.4-1.1,3.1c-0.8,0.8-1.7,1.3-3,1.3
		c-1.1,0-2-0.3-2.8-1.1C112.6,200.3,112.3,199.4,112.3,198.2z M114,198c0,0.9,0.2,1.6,0.6,2.2c0.5,0.5,0.9,0.8,1.7,0.8
		s1.3-0.3,1.7-0.8c0.5-0.5,0.6-1.3,0.6-2.2s-0.2-1.7-0.6-2.2c-0.5-0.5-0.9-0.8-1.6-0.8c-0.8,0-1.3,0.3-1.7,0.8
		C114.2,196.3,114,197.1,114,198z"/>
</g>
<g id="_10.0_" class="st0">
	<path d="M64.6,150.6v-14.3c-0.3,0.3-0.9,0.6-1.7,1.1s-1.6,0.6-2.2,0.9v-2.2c0.9-0.3,1.9-0.6,2.8-1.1s1.7-1.1,2.4-1.6h0.8v17.1h-2.1
		V150.6z"/>
	<path d="M72.5,142.6c0-3,0.5-5.2,1.4-6.7c0.9-1.6,2.4-2.4,4.2-2.4c3.6,0,5.3,2.8,5.3,8.6c0,2.8-0.5,5-1.6,6.4
		c-0.9,1.6-2.4,2.2-4.2,2.2c-1.7,0-3-0.8-3.9-2.2C72.9,147.3,72.5,145.3,72.5,142.6z M74.7,142.5c0,4.4,1.1,6.7,3.4,6.7
		c2.2,0,3.3-2.2,3.3-6.7c0-4.7-1.1-7.1-3.3-7.1C75.8,135.4,74.7,137.8,74.7,142.5z"/>
	<path d="M85.8,149.5c0-0.3,0.2-0.8,0.5-0.9c0.3-0.3,0.6-0.5,0.9-0.5c0.5,0,0.8,0.2,0.9,0.5c0.3,0.3,0.5,0.6,0.5,0.9
		c0,0.3-0.2,0.6-0.5,0.9c-0.3,0.3-0.6,0.5-0.9,0.5c-0.5,0-0.8-0.2-0.9-0.5C85.9,150.3,85.8,150,85.8,149.5z"/>
	<path d="M90.8,142.6c0-3,0.5-5.2,1.4-6.7s2.4-2.4,4.2-2.4c3.6,0,5.3,2.8,5.3,8.6c0,2.8-0.5,5-1.6,6.4c-0.9,1.6-2.4,2.2-4.2,2.2
		c-1.7,0-3-0.8-3.9-2.2C91.3,147.3,90.8,145.3,90.8,142.6z M93,142.5c0,4.4,1.1,6.7,3.4,6.7c2.2,0,3.3-2.2,3.3-6.7
		c0-4.7-1.1-7.1-3.3-7.1C94.1,135.4,93,137.8,93,142.5z"/>
	<path d="M103.8,138.1c0-1.4,0.3-2.5,1.1-3.3c0.8-0.8,1.7-1.3,3-1.3s2.2,0.3,2.8,1.1c0.6,0.8,0.9,1.7,0.9,3.1c0,1.3-0.3,2.4-1.1,3.1
		c-0.8,0.8-1.7,1.3-3,1.3c-1.1,0-2-0.3-2.8-1.1C104.1,140.4,103.8,139.3,103.8,138.1z M105.4,138.1c0,0.9,0.2,1.7,0.6,2.2
		c0.5,0.5,0.9,0.8,1.7,0.8s1.3-0.3,1.7-0.8c0.5-0.5,0.6-1.3,0.6-2.2s-0.2-1.7-0.6-2.2c-0.3-0.5-0.9-0.8-1.6-0.8
		c-0.8,0-1.3,0.3-1.7,0.8C105.7,136.4,105.4,137.2,105.4,138.1z M118.9,133.9l-10.8,16.9h-1.9l10.8-16.9H118.9z M113.9,146.7
		c0-1.4,0.3-2.5,1.1-3.3c0.8-0.8,1.7-1.3,3-1.3s2,0.3,2.8,1.1c0.6,0.8,0.9,1.7,0.9,3.1c0,1.3-0.3,2.4-1.1,3.1
		c-0.8,0.8-1.7,1.3-3,1.3c-1.1,0-2-0.3-2.8-1.1C114.2,149.1,113.9,148,113.9,146.7z M115.4,146.7c0,0.9,0.2,1.6,0.6,2.2
		c0.5,0.5,0.9,0.8,1.7,0.8s1.3-0.3,1.7-0.8s0.6-1.3,0.6-2.2s-0.2-1.7-0.6-2.2c-0.5-0.5-0.9-0.8-1.6-0.8c-0.8,0-1.3,0.3-1.7,0.8
		C115.6,145,115.4,145.8,115.4,146.7z"/>
</g>
<g id="_12.0_" class="st0">
	<path d="M64.6,102.3V88.1c-0.3,0.3-0.9,0.6-1.7,1.1s-1.6,0.6-2.2,0.9v-2c0.9-0.3,1.9-0.6,2.8-1.1s1.7-1.1,2.4-1.6h0.8v17.1
		L64.6,102.3L64.6,102.3z"/>
	<path d="M80.8,90c0-0.9-0.3-1.6-0.8-2.2c-0.6-0.5-1.4-0.8-2.4-0.8c-0.6,0-1.4,0.2-2,0.5c-0.8,0.3-1.4,0.8-2,1.6v-2
		c0.5-0.6,1.1-0.9,1.9-1.3c0.6-0.3,1.6-0.5,2.5-0.5c1.6,0,2.7,0.5,3.6,1.3s1.4,1.9,1.4,3.3c0,1.3-0.3,2.4-0.8,3.1
		c-0.6,0.9-1.6,1.9-3,2.8s-2.4,1.7-2.8,2c-0.5,0.5-0.8,0.8-0.9,1.3c-0.2,0.3-0.3,0.8-0.3,1.4h8.3v1.9H72.8v-0.8
		c0-0.9,0.2-1.7,0.5-2.5c0.3-0.6,0.6-1.3,1.3-2c0.6-0.6,1.6-1.4,2.8-2.4c1.3-0.9,2.2-1.7,2.7-2.4C80.5,91.7,80.8,90.9,80.8,90z"/>
	<path d="M85.8,101.2c0-0.3,0.2-0.8,0.5-0.9c0.3-0.3,0.6-0.5,0.9-0.5c0.5,0,0.8,0.2,0.9,0.5c0.3,0.3,0.5,0.6,0.5,0.9
		s-0.2,0.6-0.5,0.9s-0.6,0.5-0.9,0.5c-0.5,0-0.8-0.2-0.9-0.5C85.9,101.9,85.8,101.6,85.8,101.2z"/>
	<path d="M90.8,94.3c0-3,0.5-5.2,1.4-6.7s2.4-2.4,4.2-2.4c3.6,0,5.3,2.8,5.3,8.6c0,2.8-0.5,5-1.6,6.4c-0.9,1.6-2.4,2.2-4.2,2.2
		c-1.7,0-3-0.8-3.9-2.2C91.3,99,90.8,97,90.8,94.3z M93,94.2c0,4.4,1.1,6.7,3.4,6.7c2.2,0,3.3-2.2,3.3-6.7c0-4.7-1.1-7.1-3.3-7.1
		C94.1,87.1,93,89.5,93,94.2z"/>
	<path d="M103.8,89.8c0-1.4,0.3-2.5,1.1-3.3s1.7-1.3,3-1.3s2.2,0.3,2.8,1.1c0.6,0.8,0.9,1.7,0.9,3.1c0,1.3-0.3,2.4-1.1,3.1
		s-1.7,1.3-3,1.3c-1.1,0-2-0.3-2.8-1.1C104.1,92.1,103.8,91,103.8,89.8z M105.4,89.8c0,0.9,0.2,1.7,0.6,2.2c0.5,0.5,0.9,0.8,1.7,0.8
		s1.3-0.3,1.7-0.8s0.6-1.3,0.6-2.2c0-0.9-0.2-1.7-0.6-2.2c-0.3-0.5-0.9-0.8-1.6-0.8c-0.8,0-1.3,0.3-1.7,0.8
		C105.7,88.1,105.4,88.7,105.4,89.8z M118.9,85.6l-10.8,16.9h-1.9L117,85.6H118.9z M113.9,98.4c0-1.4,0.3-2.5,1.1-3.3s1.7-1.3,3-1.3
		s2,0.3,2.8,1.1c0.6,0.8,0.9,1.7,0.9,3.1c0,1.3-0.3,2.4-1.1,3.1s-1.7,1.3-3,1.3c-1.1,0-2-0.3-2.8-1.1
		C114.2,100.6,113.9,99.7,113.9,98.4z M115.4,98.3c0,0.9,0.2,1.6,0.6,2.2c0.5,0.5,0.9,0.8,1.7,0.8s1.3-0.3,1.7-0.8s0.6-1.3,0.6-2.2
		c0-0.9-0.2-1.7-0.6-2.2c-0.5-0.5-0.9-0.8-1.6-0.8c-0.8,0-1.3,0.3-1.7,0.8C115.6,96.7,115.4,97.3,115.4,98.3z"/>
</g>
<g id="线">
	<rect id="矩形_863_拷贝_2" x="132" y="342.9" class="st1" width="213.4" height="2"/>
	<rect id="矩形_863_拷贝_3" x="132" y="291.5" class="st1" width="213.4" height="2"/>
	<rect id="矩形_863_拷贝_4" x="132" y="240.2" class="st1" width="213.4" height="2"/>
	<rect id="矩形_863_拷贝_5" x="132" y="189.8" class="st1" width="213.4" height="2"/>
	<rect id="矩形_863_拷贝_5-2" x="132" y="138.6" class="st1" width="213.4" height="2"/>
	<rect id="矩形_863_拷贝_5-3" x="132" y="87.1" class="st1" width="213.4" height="2"/>
	<rect id="矩形_863" x="132" y="84.2" class="st2" width="2" height="314.1"/>
</g>
<rect id="矩形_864" x="163.3" y="138.6" class="st3" width="46.3" height="257.8"/>
<rect id="矩形_864_拷贝" x="209.5" y="240.2" class="st4" width="46.3" height="156"/>
<rect id="矩形_864_拷贝_2" x="255.8" y="326.7" class="st5" width="46.3" height="69.5"/>
<rect id="矩形_863_拷贝" x="132" y="396.2" class="st2" width="213.4" height="2"/>
<g id="_2">
	<g id="_2.0_2" class="st0">
		<path d="M389.7,332c0-0.9-0.3-1.6-0.8-2.2c-0.6-0.5-1.4-0.8-2.3-0.8c-0.6,0-1.4,0.2-2,0.5c-0.8,0.3-1.4,0.8-2,1.6v-2
			c0.5-0.6,1.1-0.9,1.9-1.3c0.6-0.3,1.6-0.5,2.5-0.5c1.6,0,2.7,0.5,3.6,1.3s1.4,1.9,1.4,3.3c0,1.3-0.3,2.3-0.8,3.1
			c-0.6,0.9-1.6,1.9-3,2.8s-2.3,1.7-2.8,2c-0.5,0.5-0.8,0.8-0.9,1.3c-0.2,0.3-0.3,0.8-0.3,1.4h8.3v1.9H382v-0.8
			c0-0.9,0.2-1.7,0.5-2.5c0.3-0.6,0.6-1.3,1.3-2c0.6-0.6,1.6-1.4,2.8-2.3c1.3-0.9,2.2-1.7,2.7-2.3
			C389.6,333.7,389.7,332.9,389.7,332z"/>
		<path d="M394.9,343.2c0-0.3,0.2-0.8,0.5-0.9c0.3-0.3,0.6-0.5,0.9-0.5c0.5,0,0.8,0.2,0.9,0.5c0.3,0.3,0.5,0.6,0.5,0.9
			s-0.2,0.6-0.5,0.9s-0.6,0.5-0.9,0.5c-0.5,0-0.8-0.2-0.9-0.5C395.1,343.9,394.9,343.5,394.9,343.2z"/>
		<path d="M399.9,336.3c0-3,0.5-5.2,1.4-6.7c0.9-1.6,2.3-2.3,4.2-2.3c3.6,0,5.3,2.8,5.3,8.6c0,2.8-0.5,5-1.6,6.4
			c-0.9,1.6-2.3,2.2-4.2,2.2c-1.7,0-3-0.8-3.9-2.2C400.4,341,399.9,339,399.9,336.3z M402,336.2c0,4.4,1.1,6.7,3.4,6.7
			c2.2,0,3.3-2.2,3.3-6.7c0-4.7-1.1-7-3.3-7C403.2,329.1,402,331.5,402,336.2z"/>
		<path d="M412.8,331.8c0-1.4,0.3-2.5,1.1-3.3c0.8-0.8,1.7-1.3,3-1.3s2.2,0.3,2.8,1.1s0.9,1.7,0.9,3.1c0,1.3-0.3,2.3-1.1,3.1
			c-0.8,0.8-1.7,1.3-3,1.3c-1.1,0-2-0.3-2.8-1.1C413.2,334.1,412.8,333,412.8,331.8z M414.5,331.6c0,0.9,0.2,1.7,0.6,2.2
			c0.5,0.5,0.9,0.8,1.7,0.8c0.8,0,1.3-0.3,1.7-0.8s0.6-1.3,0.6-2.2c0-0.9-0.2-1.7-0.6-2.2c-0.3-0.5-0.9-0.8-1.6-0.8
			c-0.8,0-1.3,0.3-1.7,0.8C414.6,330.1,414.5,330.7,414.5,331.6z M428,327.6l-10.8,16.9h-1.9l10.8-16.9H428z M422.8,340.4
			c0-1.4,0.3-2.5,1.1-3.3c0.8-0.8,1.7-1.3,3-1.3s2,0.3,2.8,1.1c0.6,0.8,0.9,1.7,0.9,3.1c0,1.3-0.3,2.3-1.1,3.1
			c-0.8,0.8-1.7,1.3-3,1.3c-1.1,0-2-0.3-2.8-1.1C423.3,342.6,422.8,341.7,422.8,340.4z M424.5,340.3c0,0.9,0.2,1.6,0.6,2.2
			c0.5,0.5,0.9,0.8,1.7,0.8c0.8,0,1.3-0.3,1.7-0.8s0.6-1.3,0.6-2.2c0-0.9-0.2-1.7-0.6-2.2c-0.5-0.5-0.9-0.8-1.6-0.8
			c-0.8,0-1.3,0.3-1.7,0.8C424.7,338.7,424.5,339.3,424.5,340.3z"/>
	</g>
	<g id="_4.0_2" class="st0">
		<path d="M390.7,284.3v11.1h2.5v1.7h-2.5v3.9h-2v-3.9h-7.8v-1.7c1.4-1.6,2.8-3.3,4.2-5.3c1.4-2,2.5-3.9,3.4-5.8L390.7,284.3
			L390.7,284.3z M383.2,295.5h5.5v-8c-0.8,1.4-1.6,2.7-2.3,3.9C385.4,292.6,384.3,293.9,383.2,295.5z"/>
		<path d="M394.9,300c0-0.3,0.2-0.8,0.5-0.9c0.3-0.3,0.6-0.5,0.9-0.5c0.5,0,0.8,0.2,0.9,0.5c0.3,0.3,0.5,0.6,0.5,0.9
			s-0.2,0.6-0.5,0.9s-0.6,0.5-0.9,0.5c-0.5,0-0.8-0.2-0.9-0.5C395.1,300.6,394.9,300.3,394.9,300z"/>
		<path d="M399.9,293.1c0-3,0.5-5.2,1.4-6.7c0.9-1.6,2.3-2.3,4.2-2.3c3.6,0,5.3,2.8,5.3,8.6c0,2.8-0.5,5-1.6,6.4
			c-0.9,1.6-2.3,2.2-4.2,2.2c-1.7,0-3-0.8-3.9-2.2C400.4,297.8,399.9,295.8,399.9,293.1z M402,293c0,4.4,1.1,6.7,3.4,6.7
			c2.2,0,3.3-2.2,3.3-6.7c0-4.7-1.1-7-3.3-7C403.2,285.9,402,288.3,402,293z"/>
		<path d="M412.8,288.6c0-1.4,0.3-2.5,1.1-3.3c0.8-0.8,1.7-1.3,3-1.3s2.2,0.3,2.8,1.1c0.6,0.8,0.9,1.7,0.9,3.1
			c0,1.3-0.3,2.3-1.1,3.1c-0.8,0.8-1.7,1.3-3,1.3c-1.1,0-2-0.3-2.8-1.1C413.2,290.9,412.8,289.8,412.8,288.6z M414.5,288.4
			c0,0.9,0.2,1.7,0.6,2.2c0.5,0.5,0.9,0.8,1.7,0.8c0.8,0,1.3-0.3,1.7-0.8s0.6-1.3,0.6-2.2c0-0.9-0.2-1.7-0.6-2.2
			c-0.3-0.5-0.9-0.8-1.6-0.8c-0.8,0-1.3,0.3-1.7,0.8C414.6,286.8,414.5,287.5,414.5,288.4z M428,284.3l-10.8,16.9h-1.9l10.8-16.9
			H428z M422.8,297.2c0-1.4,0.3-2.5,1.1-3.3c0.8-0.8,1.7-1.3,3-1.3s2,0.3,2.8,1.1c0.6,0.8,0.9,1.7,0.9,3.1c0,1.3-0.3,2.3-1.1,3.1
			c-0.8,0.8-1.7,1.3-3,1.3c-1.1,0-2-0.3-2.8-1.1C423.3,299.4,422.8,298.4,422.8,297.2z M424.5,297c0,0.9,0.2,1.6,0.6,2.2
			c0.5,0.5,0.9,0.8,1.7,0.8c0.8,0,1.3-0.3,1.7-0.8s0.6-1.3,0.6-2.2c0-0.9-0.2-1.7-0.6-2.2c-0.5-0.5-0.9-0.8-1.6-0.8
			c-0.8,0-1.3,0.3-1.7,0.8C424.7,295.5,424.5,296.1,424.5,297z"/>
	</g>
	<g id="_6.0_2" class="st0">
		<path d="M391.6,239.2c-0.9-0.5-1.7-0.6-2.7-0.6c-1.4,0-2.7,0.6-3.4,1.9c-0.9,1.3-1.3,3-1.4,5.2l0,0c0.8-1.6,2-2.3,3.8-2.3
			c1.4,0,2.7,0.5,3.4,1.4c0.8,0.9,1.3,2.2,1.3,3.8s-0.5,3-1.6,4.1c-0.9,1.1-2.2,1.6-3.8,1.6c-1.7,0-3-0.6-4.1-2
			c-0.9-1.3-1.4-3.3-1.4-5.6c0-3,0.6-5.3,1.9-7s3-2.7,5-2.7c1.3,0,2.2,0.2,2.8,0.5L391.6,239.2L391.6,239.2z M384.1,248.3
			c0,1.1,0.3,2,0.9,2.8s1.4,1.3,2.3,1.3s1.7-0.3,2.2-0.9c0.6-0.6,0.9-1.6,0.9-2.7s-0.3-2-0.8-2.7c-0.5-0.6-1.3-0.9-2.3-0.9
			c-0.9,0-1.7,0.3-2.3,0.9C384.4,246.8,384.1,247.5,384.1,248.3z"/>
		<path d="M394.9,252.7c0-0.3,0.2-0.8,0.5-0.9c0.3-0.3,0.6-0.5,0.9-0.5c0.5,0,0.8,0.2,0.9,0.5c0.3,0.3,0.5,0.6,0.5,0.9
			s-0.2,0.6-0.5,0.9c-0.3,0.3-0.6,0.5-0.9,0.5c-0.5,0-0.8-0.2-0.9-0.5C395.1,253.3,394.9,253,394.9,252.7z"/>
		<path d="M399.9,245.8c0-3,0.5-5.2,1.4-6.7c0.9-1.6,2.3-2.3,4.2-2.3c3.6,0,5.3,2.8,5.3,8.6c0,2.8-0.5,5-1.6,6.4
			c-0.9,1.6-2.3,2.2-4.2,2.2c-1.7,0-3-0.8-3.9-2.2C400.4,250.5,399.9,248.5,399.9,245.8z M402,245.7c0,4.4,1.1,6.7,3.4,6.7
			c2.2,0,3.3-2.2,3.3-6.7c0-4.7-1.1-7-3.3-7C403.2,238.6,402,241,402,245.7z"/>
		<path d="M412.8,241.3c0-1.4,0.3-2.5,1.1-3.3c0.8-0.8,1.7-1.3,3-1.3s2.2,0.3,2.8,1.1s0.9,1.7,0.9,3.1c0,1.3-0.3,2.3-1.1,3.1
			c-0.8,0.8-1.7,1.3-3,1.3c-1.1,0-2-0.3-2.8-1.1C413.2,243.6,412.8,242.5,412.8,241.3z M414.5,241.3c0,0.9,0.2,1.7,0.6,2.2
			c0.5,0.5,0.9,0.8,1.7,0.8c0.8,0,1.3-0.3,1.7-0.8c0.5-0.5,0.6-1.3,0.6-2.2s-0.2-1.7-0.6-2.2c-0.3-0.5-0.9-0.8-1.6-0.8
			c-0.8,0-1.3,0.3-1.7,0.8C414.6,239.5,414.5,240.3,414.5,241.3z M428,237l-10.8,17h-1.9l10.8-16.9h1.9V237z M422.8,249.9
			c0-1.4,0.3-2.5,1.1-3.3c0.8-0.8,1.7-1.3,3-1.3s2,0.3,2.8,1.1c0.6,0.8,0.9,1.7,0.9,3.1c0,1.3-0.3,2.3-1.1,3.1
			c-0.8,0.8-1.7,1.3-3,1.3c-1.1,0-2-0.3-2.8-1.1C423.3,252.1,422.8,251.1,422.8,249.9z M424.5,249.7c0,0.9,0.2,1.6,0.6,2.2
			c0.5,0.5,0.9,0.8,1.7,0.8c0.8,0,1.3-0.3,1.7-0.8c0.5-0.5,0.6-1.3,0.6-2.2s-0.2-1.7-0.6-2.2c-0.5-0.5-0.9-0.8-1.6-0.8
			c-0.8,0-1.3,0.3-1.7,0.8C424.7,248.2,424.5,248.8,424.5,249.7z"/>
	</g>
	<g id="_8.0_2" class="st0">
		<path d="M381.6,197.9c0-0.9,0.3-1.9,0.9-2.7s1.3-1.4,2.2-1.7c-0.8-0.5-1.3-0.9-1.7-1.6c-0.5-0.6-0.6-1.4-0.6-2
			c0-0.8,0.2-1.6,0.6-2.2c0.5-0.6,0.9-1.1,1.7-1.6c0.8-0.5,1.6-0.6,2.3-0.6c0.9,0,1.7,0.2,2.3,0.6c0.8,0.3,1.3,0.9,1.7,1.6
			s0.6,1.4,0.6,2.2s-0.2,1.4-0.6,2c-0.5,0.6-0.9,1.3-1.7,1.6c0.9,0.3,1.7,0.9,2.2,1.7c0.6,0.8,0.8,1.7,0.8,2.7
			c0,0.9-0.2,1.9-0.6,2.5c-0.5,0.8-1.1,1.4-1.9,1.7c-0.8,0.5-1.7,0.6-2.8,0.6s-2-0.2-2.8-0.6c-0.8-0.5-1.4-0.9-1.9-1.7
			S381.6,198.8,381.6,197.9z M383.8,197.7c0,0.9,0.3,1.7,0.9,2.3s1.4,0.9,2.5,0.9c0.9,0,1.9-0.3,2.5-0.9c0.6-0.6,0.9-1.4,0.9-2.3
			s-0.3-1.7-0.9-2.3s-1.4-0.9-2.3-0.9s-1.7,0.3-2.3,0.9C384.1,196,383.8,196.8,383.8,197.7z M384.4,189.9c0,0.8,0.3,1.4,0.8,1.9
			s1.3,0.8,1.9,0.8c0.8,0,1.4-0.3,2-0.8s0.8-1.3,0.8-1.9c0-0.8-0.3-1.4-0.8-1.9s-1.3-0.8-2-0.8c-0.8,0-1.4,0.3-2,0.8
			C384.6,188.5,384.4,189.3,384.4,189.9z"/>
		<path d="M394.9,201.5c0-0.3,0.2-0.8,0.5-0.9c0.3-0.3,0.6-0.5,0.9-0.5c0.5,0,0.8,0.2,0.9,0.5c0.3,0.3,0.5,0.6,0.5,0.9
			s-0.2,0.6-0.5,0.9c-0.3,0.3-0.6,0.5-0.9,0.5c-0.5,0-0.8-0.2-0.9-0.5C395.1,202.1,394.9,201.8,394.9,201.5z"/>
		<path d="M399.9,194.4c0-3,0.5-5.2,1.4-6.7c0.9-1.6,2.3-2.3,4.2-2.3c3.6,0,5.3,2.8,5.3,8.6c0,2.8-0.5,5-1.6,6.4
			c-0.9,1.6-2.3,2.2-4.2,2.2c-1.7,0-3-0.8-3.9-2.2C400.4,199.3,399.9,197.3,399.9,194.4z M402,194.4c0,4.4,1.1,6.7,3.4,6.7
			c2.2,0,3.3-2.2,3.3-6.7c0-4.7-1.1-7-3.3-7C403.2,187.2,402,189.6,402,194.4z"/>
		<path d="M412.8,190.1c0-1.4,0.3-2.5,1.1-3.3c0.8-0.8,1.7-1.3,3-1.3s2.2,0.3,2.8,1.1s0.9,1.7,0.9,3.1c0,1.3-0.3,2.3-1.1,3.1
			c-0.8,0.8-1.7,1.3-3,1.3c-1.1,0-2-0.3-2.8-1.1C412.9,192.3,412.8,191.3,412.8,190.1z M414.5,189.9c0,0.9,0.2,1.7,0.6,2.2
			c0.5,0.5,0.9,0.8,1.7,0.8c0.8,0,1.3-0.3,1.7-0.8s0.6-1.3,0.6-2.2s-0.2-1.7-0.6-2.2c-0.3-0.5-0.9-0.8-1.6-0.8
			c-0.8,0-1.3,0.3-1.7,0.8C414.6,188.2,414.5,189,414.5,189.9z M428,185.8l-10.8,16.9h-1.9l10.8-16.9H428z M422.8,198.7
			c0-1.4,0.3-2.5,1.1-3.3c0.8-0.8,1.7-1.3,3-1.3s2,0.3,2.8,1.1c0.6,0.8,0.9,1.7,0.9,3.1c0,1.3-0.3,2.3-1.1,3.1
			c-0.8,0.8-1.7,1.3-3,1.3c-1.1,0-2-0.3-2.8-1.1C423.3,200.9,422.8,199.9,422.8,198.7z M424.5,198.5c0,0.9,0.2,1.6,0.6,2.2
			c0.5,0.5,0.9,0.8,1.7,0.8c0.8,0,1.3-0.3,1.7-0.8s0.6-1.3,0.6-2.2s-0.2-1.7-0.6-2.2c-0.5-0.5-0.9-0.8-1.6-0.8
			c-0.8,0-1.3,0.3-1.7,0.8C424.7,196.8,424.5,197.6,424.5,198.5z"/>
	</g>
	<g id="_10.0_2" class="st0">
		<path d="M375.2,151.2V137c-0.3,0.3-0.9,0.6-1.7,1.1c-0.8,0.5-1.6,0.6-2.2,0.9v-2.2c0.9-0.3,1.9-0.6,2.8-1.1s1.7-1.1,2.3-1.6h0.8
			v17.1H375.2z"/>
		<path d="M383,143.2c0-3,0.5-5.2,1.4-6.7c0.9-1.6,2.3-2.3,4.2-2.3c3.6,0,5.3,2.8,5.3,8.6c0,2.8-0.5,5-1.6,6.4
			c-0.9,1.6-2.3,2.2-4.2,2.2c-1.7,0-3-0.8-3.9-2.2C383.5,147.9,383,145.9,383,143.2z M385.2,143.1c0,4.4,1.1,6.7,3.4,6.7
			c2.2,0,3.3-2.2,3.3-6.7c0-4.7-1.1-7-3.3-7C386.3,136,385.2,138.4,385.2,143.1z"/>
		<path d="M396.3,150.1c0-0.3,0.2-0.8,0.5-0.9c0.3-0.3,0.6-0.5,0.9-0.5c0.5,0,0.8,0.2,0.9,0.5c0.3,0.3,0.5,0.6,0.5,0.9
			s-0.2,0.6-0.5,0.9c-0.3,0.3-0.6,0.5-0.9,0.5c-0.5,0-0.8-0.2-0.9-0.5C396.5,150.9,396.3,150.6,396.3,150.1z"/>
		<path d="M401.3,143.2c0-3,0.5-5.2,1.4-6.7c0.9-1.6,2.3-2.3,4.2-2.3c3.6,0,5.3,2.8,5.3,8.6c0,2.8-0.5,5-1.6,6.4
			c-0.9,1.6-2.3,2.2-4.2,2.2c-1.7,0-3-0.8-3.9-2.2C401.7,147.8,401.3,145.9,401.3,143.2z M403.5,143.1c0,4.4,1.1,6.7,3.4,6.7
			c2.2,0,3.3-2.2,3.3-6.7c0-4.7-1.1-7-3.3-7C404.6,136,403.5,138.4,403.5,143.1z"/>
		<path d="M414.3,138.7c0-1.4,0.3-2.5,1.1-3.3c0.8-0.8,1.7-1.3,3-1.3s2.2,0.3,2.8,1.1s0.9,1.7,0.9,3.1c0,1.3-0.3,2.3-1.1,3.1
			s-1.7,1.3-3,1.3c-1.1,0-2-0.3-2.8-1.1C414.6,141,414.3,139.9,414.3,138.7z M415.9,138.7c0,0.9,0.2,1.7,0.6,2.2
			c0.5,0.5,0.9,0.8,1.7,0.8c0.8,0,1.3-0.3,1.7-0.8c0.5-0.5,0.6-1.3,0.6-2.2s-0.2-1.7-0.6-2.2c-0.3-0.5-0.9-0.8-1.6-0.8
			c-0.8,0-1.3,0.3-1.7,0.8C416.2,137,415.9,137.8,415.9,138.7z M429.4,134.5l-10.8,16.9h-1.7l10.8-16.9
			C427.6,134.5,429.4,134.5,429.4,134.5z M424.4,147.3c0-1.4,0.3-2.5,1.1-3.3c0.8-0.8,1.7-1.3,3-1.3s2,0.3,2.8,1.1
			c0.6,0.8,0.9,1.7,0.9,3.1c0,1.3-0.3,2.3-1.1,3.1c-0.8,0.8-1.7,1.3-3,1.3c-1.1,0-2-0.3-2.8-1.1
			C424.7,149.7,424.4,148.6,424.4,147.3z M425.9,147.3c0,0.9,0.2,1.6,0.6,2.2c0.5,0.5,0.9,0.8,1.7,0.8c0.8,0,1.3-0.3,1.7-0.8
			c0.5-0.5,0.6-1.3,0.6-2.2s-0.2-1.7-0.6-2.2c-0.5-0.5-0.9-0.8-1.6-0.8c-0.8,0-1.3,0.3-1.7,0.8C426.1,145.6,425.9,146.4,425.9,147.3
			z"/>
	</g>
	<g id="_12.0_2" class="st0">
		<path d="M375.2,103V88.7c-0.3,0.3-0.9,0.6-1.7,1.1c-0.8,0.5-1.6,0.6-2.2,0.9v-2c0.9-0.3,1.9-0.6,2.8-1.1s1.7-1.1,2.3-1.6h0.8v17.1
			L375.2,103L375.2,103z"/>
		<path d="M391.3,90.6c0-0.9-0.3-1.6-0.8-2.2c-0.6-0.5-1.4-0.8-2.3-0.8c-0.6,0-1.4,0.2-2,0.5c-0.8,0.3-1.4,0.8-2,1.6v-2
			c0.5-0.6,1.1-0.9,1.9-1.3c0.6-0.3,1.6-0.5,2.5-0.5c1.6,0,2.7,0.5,3.6,1.3s1.4,1.9,1.4,3.3c0,1.3-0.3,2.3-0.8,3.1
			c-0.6,0.9-1.6,1.9-3,2.8s-2.3,1.7-2.8,2s-0.8,0.8-0.9,1.3c-0.2,0.3-0.3,0.8-0.3,1.4h8.3v1.9h-10.5v-0.8c0-0.9,0.2-1.7,0.5-2.5
			c0.3-0.6,0.6-1.3,1.3-2c0.6-0.6,1.6-1.4,2.8-2.3c1.3-0.9,2.2-1.7,2.7-2.3C391,92.3,391.3,91.6,391.3,90.6z"/>
		<path d="M396.3,101.9c0-0.3,0.2-0.8,0.5-0.9c0.3-0.3,0.6-0.5,0.9-0.5c0.5,0,0.8,0.2,0.9,0.5c0.3,0.3,0.5,0.6,0.5,0.9
			s-0.2,0.6-0.5,0.9s-0.6,0.5-0.9,0.5c-0.5,0-0.8-0.2-0.9-0.5C396.5,102.5,396.3,102.2,396.3,101.9z"/>
		<path d="M401.3,95c0-3,0.5-5.2,1.4-6.7c0.9-1.6,2.3-2.3,4.2-2.3c3.6,0,5.3,2.8,5.3,8.6c0,2.8-0.5,5-1.6,6.4
			c-0.9,1.6-2.3,2.2-4.2,2.2c-1.7,0-3-0.8-3.9-2.2C401.7,99.5,401.3,97.7,401.3,95z M403.5,94.8c0,4.4,1.1,6.7,3.4,6.7
			c2.2,0,3.3-2.2,3.3-6.7c0-4.7-1.1-7-3.3-7C404.6,87.8,403.5,90.1,403.5,94.8z"/>
		<path d="M414.3,90.5c0-1.4,0.3-2.5,1.1-3.3c0.8-0.8,1.7-1.3,3-1.3s2.2,0.3,2.8,1.1s0.9,1.7,0.9,3.1c0,1.3-0.3,2.3-1.1,3.1
			s-1.7,1.3-3,1.3c-1.1,0-2-0.3-2.8-1.1C414.6,92.8,414.3,91.7,414.3,90.5z M415.9,90.5c0,0.9,0.2,1.7,0.6,2.2
			c0.5,0.5,0.9,0.8,1.7,0.8c0.8,0,1.3-0.3,1.7-0.8c0.5-0.5,0.6-1.3,0.6-2.2c0-0.9-0.2-1.7-0.6-2.2c-0.3-0.5-0.9-0.8-1.6-0.8
			c-0.8,0-1.3,0.3-1.7,0.8C416.2,88.7,415.9,89.4,415.9,90.5z M429.4,86.2l-10.8,16.9h-1.7l10.8-16.9H429.4z M424.4,99.1
			c0-1.4,0.3-2.5,1.1-3.3c0.8-0.8,1.7-1.3,3-1.3s2,0.3,2.8,1.1c0.6,0.8,0.9,1.7,0.9,3.1c0,1.3-0.3,2.3-1.1,3.1
			c-0.8,0.8-1.7,1.3-3,1.3c-1.1,0-2-0.3-2.8-1.1C424.7,101.3,424.4,100.3,424.4,99.1z M425.9,98.9c0,0.9,0.2,1.6,0.6,2.2
			c0.5,0.5,0.9,0.8,1.7,0.8c0.8,0,1.3-0.3,1.7-0.8c0.5-0.5,0.6-1.3,0.6-2.2c0-0.9-0.2-1.7-0.6-2.2c-0.5-0.5-0.9-0.8-1.6-0.8
			c-0.8,0-1.3,0.3-1.7,0.8C426.1,97.3,425.9,98,425.9,98.9z"/>
	</g>
</g>
<g id="线-2">
	<rect id="矩形_863_拷贝_2-2" x="442.5" y="343.2" class="st1" width="213.3" height="2"/>
	<rect id="矩形_863_拷贝_3-2" x="442.5" y="291.9" class="st1" width="213.3" height="2"/>
	<rect id="矩形_863_拷贝_4-2" x="442.5" y="240.6" class="st1" width="213.3" height="2"/>
	<rect id="矩形_863_拷贝_5-4" x="442.5" y="190.4" class="st1" width="213.3" height="2"/>
	<rect id="矩形_863_拷贝_5-5" x="442.5" y="139.2" class="st1" width="213.3" height="2"/>
	<rect id="矩形_863_拷贝_5-6" x="442.5" y="87.8" class="st1" width="213.3" height="2"/>
	<rect id="矩形_863-2" x="442.5" y="84.8" class="st2" width="2" height="313.7"/>
</g>
<rect id="矩形_864-2" x="473.8" y="253.6" class="st3" width="46.2" height="142.8"/>
<rect id="矩形_864_拷贝-2" x="520.2" y="261.8" class="st4" width="46.2" height="134.7"/>
<rect id="矩形_864_拷贝_2-2" x="566.4" y="305" class="st5" width="46.2" height="91.5"/>
<rect id="矩形_863_拷贝-2" x="442.5" y="396.5" class="st2" width="213.3" height="2"/>
<g id="_3">
	<g id="_2.0_3" class="st0">
		<path d="M97.6,747.2c0-0.9-0.3-1.6-0.8-2.2c-0.6-0.5-1.4-0.8-2.4-0.8c-0.6,0-1.4,0.2-2,0.5c-0.8,0.3-1.4,0.8-2,1.6v-2
			c0.5-0.6,1.1-0.9,1.9-1.3c0.6-0.3,1.6-0.5,2.5-0.5c1.6,0,2.7,0.5,3.6,1.3s1.4,1.9,1.4,3.3c0,1.3-0.3,2.4-0.8,3.1
			c-0.6,0.9-1.6,1.9-3,2.8s-2.4,1.7-2.8,2c-0.5,0.5-0.8,0.8-0.9,1.3c-0.2,0.3-0.3,0.8-0.3,1.4h8.3v1.9H89.8v-0.8
			c0-0.9,0.2-1.7,0.5-2.5c0.3-0.6,0.6-1.3,1.3-2c0.6-0.6,1.6-1.4,2.8-2.4c1.3-0.9,2.2-1.7,2.7-2.4C97.5,748.7,97.6,748,97.6,747.2z"
			/>
		<path d="M102.7,758.3c0-0.3,0.2-0.8,0.5-0.9c0.3-0.3,0.6-0.5,0.9-0.5c0.5,0,0.8,0.2,0.9,0.5c0.3,0.3,0.5,0.6,0.5,0.9
			c0,0.3-0.2,0.6-0.5,0.9c-0.3,0.3-0.6,0.5-0.9,0.5c-0.5,0-0.8-0.2-0.9-0.5C102.8,759.1,102.7,758.8,102.7,758.3z"/>
		<path d="M107.7,751.4c0-3,0.5-5.2,1.4-6.7c0.9-1.6,2.4-2.4,4.2-2.4c3.6,0,5.3,2.8,5.3,8.6c0,2.8-0.5,5-1.6,6.4
			c-0.9,1.6-2.4,2.2-4.2,2.2c-1.7,0-3-0.8-3.9-2.2C108.1,756.3,107.7,754.2,107.7,751.4z M109.9,751.4c0,4.4,1.1,6.7,3.4,6.7
			c2.2,0,3.3-2.2,3.3-6.7c0-4.7-1.1-7.1-3.3-7.1C111.1,744.2,109.9,746.5,109.9,751.4z"/>
		<path d="M120.7,747c0-1.4,0.3-2.5,1.1-3.3c0.8-0.8,1.7-1.3,3-1.3s2.2,0.3,2.8,1.1c0.6,0.8,0.9,1.7,0.9,3.1c0,1.3-0.3,2.4-1.1,3.1
			c-0.8,0.8-1.7,1.3-3,1.3c-1.1,0-2-0.3-2.8-1.1C121,749.2,120.7,748.3,120.7,747z M122.4,746.9c0,0.9,0.2,1.7,0.6,2.2
			c0.5,0.5,0.9,0.8,1.7,0.8c0.8,0,1.3-0.3,1.7-0.8c0.5-0.5,0.6-1.3,0.6-2.2s-0.2-1.7-0.6-2.2c-0.3-0.5-0.9-0.8-1.6-0.8
			c-0.8,0-1.3,0.3-1.7,0.8C122.6,745.1,122.4,745.9,122.4,746.9z M135.9,742.8l-10.8,16.9h-1.9l10.8-16.9H135.9z M130.7,755.6
			c0-1.4,0.3-2.5,1.1-3.3s1.7-1.3,3-1.3s2,0.3,2.8,1.1c0.6,0.8,0.9,1.7,0.9,3.1c0,1.3-0.3,2.4-1.1,3.1s-1.7,1.3-3,1.3
			c-1.1,0-2-0.3-2.8-1.1C131,757.8,130.7,756.7,130.7,755.6z M132.4,755.5c0,0.9,0.2,1.6,0.6,2.2c0.5,0.5,0.9,0.8,1.7,0.8
			s1.3-0.3,1.7-0.8c0.5-0.5,0.6-1.3,0.6-2.2s-0.2-1.7-0.6-2.2c-0.5-0.5-0.9-0.8-1.6-0.8c-0.8,0-1.3,0.3-1.7,0.8
			C132.6,753.8,132.4,754.5,132.4,755.5z"/>
	</g>
	<g id="_4.0_3" class="st0">
		<path d="M98.4,699.5v11.1h2.5v1.7h-2.5v3.9h-2v-3.9h-7.8v-1.7c1.4-1.6,2.8-3.3,4.2-5.3c1.4-2,2.5-3.9,3.4-5.8H98.4L98.4,699.5z
			 M91.1,710.5h5.5v-8c-0.8,1.4-1.6,2.7-2.4,3.9C93.2,707.7,92.1,709.1,91.1,710.5z"/>
		<path d="M102.7,715c0-0.3,0.2-0.8,0.5-0.9c0.3-0.3,0.6-0.5,0.9-0.5c0.5,0,0.8,0.2,0.9,0.5c0.3,0.3,0.5,0.6,0.5,0.9
			c0,0.3-0.2,0.6-0.5,0.9c-0.3,0.3-0.6,0.5-0.9,0.5c-0.5,0-0.8-0.2-0.9-0.5C102.8,715.8,102.7,715.5,102.7,715z"/>
		<path d="M107.7,708.1c0-3,0.5-5.2,1.4-6.7c0.9-1.6,2.4-2.4,4.2-2.4c3.6,0,5.3,2.8,5.3,8.6c0,2.8-0.5,5-1.6,6.4
			c-0.9,1.6-2.4,2.2-4.2,2.2c-1.7,0-3-0.8-3.9-2.2C108.1,713,107.7,711,107.7,708.1z M109.9,708.1c0,4.4,1.1,6.7,3.4,6.7
			c2.2,0,3.3-2.2,3.3-6.7c0-4.7-1.1-7.1-3.3-7.1C111.1,700.9,109.9,703.3,109.9,708.1z"/>
		<path d="M120.7,703.7c0-1.4,0.3-2.5,1.1-3.3c0.8-0.8,1.7-1.3,3-1.3s2.2,0.3,2.8,1.1c0.6,0.8,0.9,1.7,0.9,3.1
			c0,1.3-0.3,2.4-1.1,3.1c-0.8,0.8-1.7,1.3-3,1.3c-1.1,0-2-0.3-2.8-1.1C121,705.9,120.7,705,120.7,703.7z M122.4,703.6
			c0,0.9,0.2,1.7,0.6,2.2s0.9,0.8,1.7,0.8c0.8,0,1.3-0.3,1.7-0.8c0.5-0.5,0.6-1.3,0.6-2.2s-0.2-1.7-0.6-2.2
			c-0.3-0.5-0.9-0.8-1.6-0.8c-0.8,0-1.3,0.3-1.7,0.8C122.6,701.9,122.4,702.7,122.4,703.6z M135.9,699.5l-10.8,16.9h-1.9l10.8-16.9
			H135.9z M130.7,712.4c0-1.4,0.3-2.5,1.1-3.3s1.7-1.3,3-1.3s2,0.3,2.8,1.1c0.6,0.8,0.9,1.7,0.9,3.1c0,1.3-0.3,2.4-1.1,3.1
			s-1.7,1.3-3,1.3c-1.1,0-2-0.3-2.8-1.1C131,714.6,130.7,713.5,130.7,712.4z M132.4,712.2c0,0.9,0.2,1.6,0.6,2.2
			c0.5,0.5,0.9,0.8,1.7,0.8s1.3-0.3,1.7-0.8c0.5-0.5,0.6-1.3,0.6-2.2s-0.2-1.7-0.6-2.2c-0.5-0.5-0.9-0.8-1.6-0.8
			c-0.8,0-1.3,0.3-1.7,0.8C132.6,710.5,132.4,711.3,132.4,712.2z"/>
	</g>
	<g id="_6.0_3" class="st0">
		<path d="M99.5,654.4c-0.9-0.5-1.7-0.6-2.7-0.6c-1.4,0-2.7,0.6-3.4,1.9c-0.9,1.3-1.3,3-1.4,5.2l0,0c0.8-1.6,2-2.4,3.8-2.4
			c1.4,0,2.7,0.5,3.4,1.4c0.9,0.9,1.3,2.2,1.3,3.8s-0.5,3-1.6,4.1c-0.9,1.1-2.2,1.6-3.8,1.6c-1.7,0-3-0.6-4.1-2
			c-0.9-1.3-1.4-3.3-1.4-5.6c0-3,0.6-5.3,1.9-7.1c1.3-1.7,3-2.7,5-2.7c1.3,0,2.2,0.2,2.8,0.5v2h0.2
			C99.5,654.5,99.5,654.4,99.5,654.4z M92,663.5c0,1.1,0.3,2,0.9,2.8s1.4,1.3,2.4,1.3s1.7-0.3,2.2-0.9c0.6-0.6,0.9-1.6,0.9-2.7
			c0-1.1-0.3-2-0.8-2.7c-0.5-0.6-1.3-0.9-2.4-0.9c-0.9,0-1.7,0.3-2.4,0.9C92.3,661.9,92,662.5,92,663.5z"/>
		<path d="M102.7,667.8c0-0.3,0.2-0.8,0.5-0.9c0.3-0.3,0.6-0.5,0.9-0.5c0.5,0,0.8,0.2,0.9,0.5c0.3,0.3,0.5,0.6,0.5,0.9
			c0,0.3-0.2,0.6-0.5,0.9c-0.3,0.3-0.6,0.5-0.9,0.5c-0.5,0-0.8-0.2-0.9-0.5C102.8,668.5,102.7,668.2,102.7,667.8z"/>
		<path d="M107.7,660.9c0-3,0.5-5.2,1.4-6.7c0.9-1.6,2.4-2.4,4.2-2.4c3.6,0,5.3,2.8,5.3,8.6c0,2.8-0.5,5-1.6,6.4
			c-0.9,1.6-2.4,2.2-4.2,2.2c-1.7,0-3-0.8-3.9-2.2C108.1,665.7,107.7,663.6,107.7,660.9z M109.9,660.8c0,4.4,1.1,6.7,3.4,6.7
			c2.2,0,3.3-2.2,3.3-6.7c0-4.7-1.1-7.1-3.3-7.1S109.9,656.1,109.9,660.8z"/>
		<path d="M120.7,656.4c0-1.4,0.3-2.5,1.1-3.3c0.8-0.8,1.7-1.3,3-1.3s2.2,0.3,2.8,1.1c0.6,0.8,0.9,1.7,0.9,3.1
			c0,1.3-0.3,2.4-1.1,3.1s-1.7,1.3-3,1.3c-1.1,0-2-0.3-2.8-1.1C121,658.8,120.7,657.7,120.7,656.4z M122.4,656.2
			c0,0.9,0.2,1.7,0.6,2.2s0.9,0.8,1.7,0.8c0.8,0,1.3-0.3,1.7-0.8c0.5-0.5,0.6-1.3,0.6-2.2s-0.2-1.7-0.6-2.2
			c-0.3-0.5-0.9-0.8-1.6-0.8c-0.8,0-1.3,0.3-1.7,0.8C122.6,654.7,122.4,655.3,122.4,656.2z M135.9,652.2l-10.8,16.9h-1.9l10.8-16.9
			H135.9z M130.7,665c0-1.4,0.3-2.5,1.1-3.3s1.7-1.3,3-1.3s2,0.3,2.8,1.1c0.6,0.8,0.9,1.7,0.9,3.1c0,1.3-0.3,2.4-1.1,3.1
			s-1.7,1.3-3,1.3c-1.1,0-2-0.3-2.8-1.1C131,667.2,130.7,666.3,130.7,665z M132.4,664.9c0,0.9,0.2,1.6,0.6,2.2
			c0.5,0.5,0.9,0.8,1.7,0.8s1.3-0.3,1.7-0.8c0.5-0.5,0.6-1.3,0.6-2.2s-0.2-1.7-0.6-2.2c-0.5-0.5-0.9-0.8-1.6-0.8
			c-0.8,0-1.3,0.3-1.7,0.8C132.6,663.3,132.4,663.9,132.4,664.9z"/>
	</g>
	<g id="_8.0_3" class="st0">
		<path d="M89.5,613c0-0.9,0.3-1.9,0.9-2.7s1.3-1.4,2.2-1.7c-0.8-0.5-1.3-0.9-1.7-1.6c-0.5-0.6-0.6-1.4-0.6-2c0-0.8,0.2-1.6,0.6-2.2
			c0.5-0.6,0.9-1.1,1.7-1.6c0.8-0.5,1.6-0.6,2.4-0.6c0.9,0,1.7,0.2,2.4,0.6c0.8,0.3,1.3,0.9,1.7,1.6c0.5,0.6,0.6,1.4,0.6,2.2
			s-0.2,1.4-0.6,2c-0.5,0.6-0.9,1.3-1.7,1.6c0.9,0.3,1.7,0.9,2.2,1.7c0.6,0.8,0.8,1.7,0.8,2.7s-0.2,1.9-0.6,2.5
			c-0.5,0.8-1.1,1.4-1.9,1.7c-0.8,0.5-1.7,0.6-2.8,0.6c-1.1,0-2-0.2-2.8-0.6c-0.8-0.5-1.4-0.9-1.9-1.7
			C89.8,614.7,89.5,613.9,89.5,613z M91.5,612.8c0,0.9,0.3,1.7,0.9,2.4c0.6,0.6,1.4,0.9,2.5,0.9c0.9,0,1.9-0.3,2.5-0.9
			c0.6-0.6,0.9-1.4,0.9-2.4s-0.3-1.7-0.9-2.4c-0.6-0.6-1.4-0.9-2.4-0.9s-1.7,0.3-2.4,0.9C91.8,611.1,91.5,611.9,91.5,612.8z
			 M92.1,605c0,0.8,0.3,1.4,0.8,1.9s1.3,0.8,1.9,0.8c0.8,0,1.4-0.3,2-0.8s0.8-1.3,0.8-1.9c0-0.8-0.3-1.4-0.8-1.9s-1.3-0.8-2-0.8
			s-1.4,0.3-2,0.8C92.5,603.6,92.1,604.2,92.1,605z"/>
		<path d="M102.7,616.4c0-0.3,0.2-0.8,0.5-0.9c0.3-0.2,0.6-0.5,0.9-0.5c0.5,0,0.8,0.2,0.9,0.5c0.3,0.3,0.5,0.6,0.5,0.9
			s-0.2,0.6-0.5,0.9c-0.3,0.3-0.6,0.5-0.9,0.5c-0.5,0-0.8-0.2-0.9-0.5C102.8,617.2,102.7,616.9,102.7,616.4z"/>
		<path d="M107.7,609.5c0-3,0.5-5.2,1.4-6.7c0.9-1.6,2.4-2.4,4.2-2.4c3.6,0,5.3,2.8,5.3,8.6c0,2.8-0.5,5-1.6,6.4
			c-0.9,1.6-2.4,2.2-4.2,2.2c-1.7,0-3-0.8-3.9-2.2C108.1,614.4,107.7,612.2,107.7,609.5z M109.9,609.5c0,4.4,1.1,6.7,3.4,6.7
			c2.2,0,3.3-2.2,3.3-6.7c0-4.7-1.1-7.1-3.3-7.1C111.1,602.3,109.9,604.7,109.9,609.5z"/>
		<path d="M120.7,605.1c0-1.4,0.3-2.5,1.1-3.3c0.8-0.8,1.7-1.3,3-1.3s2.2,0.3,2.8,1.1c0.6,0.8,0.9,1.7,0.9,3.1
			c0,1.3-0.3,2.4-1.1,3.1s-1.7,1.3-3,1.3c-1.1,0-2-0.3-2.8-1.1C121,607.3,120.7,606.4,120.7,605.1z M122.4,605
			c0,0.9,0.2,1.7,0.6,2.2s0.9,0.8,1.7,0.8c0.8,0,1.3-0.3,1.7-0.8c0.5-0.5,0.6-1.3,0.6-2.2s-0.2-1.7-0.6-2.2
			c-0.3-0.5-0.9-0.8-1.6-0.8c-0.8,0-1.3,0.3-1.7,0.8C122.6,603.3,122.4,604,122.4,605z M135.9,600.9l-10.8,16.9h-1.9l10.8-16.9
			H135.9z M130.7,613.6c0-1.4,0.3-2.5,1.1-3.3s1.7-1.3,3-1.3s2,0.3,2.8,1.1c0.6,0.8,0.9,1.7,0.9,3.1c0,1.3-0.3,2.4-1.1,3.1
			s-1.7,1.3-3,1.3c-1.1,0-2-0.3-2.8-1.1C131,616,130.7,614.9,130.7,613.6z M132.4,613.6c0,0.9,0.2,1.6,0.6,2.2
			c0.5,0.5,0.9,0.8,1.7,0.8s1.3-0.3,1.7-0.8c0.5-0.5,0.6-1.3,0.6-2.2s-0.2-1.7-0.6-2.2c-0.5-0.5-0.9-0.8-1.6-0.8
			c-0.8,0-1.3,0.3-1.7,0.8C132.6,611.9,132.4,612.7,132.4,613.6z"/>
	</g>
	<g id="_10.0_3" class="st0">
		<path d="M83.1,566.3V552c-0.3,0.3-0.9,0.6-1.7,1.1c-0.8,0.5-1.6,0.6-2.2,0.9v-2.2c0.9-0.3,1.9-0.6,2.8-1.1s1.7-1.1,2.4-1.6h0.8
			v17.1L83.1,566.3L83.1,566.3z"/>
		<path d="M90.9,558.3c0-3,0.5-5.2,1.4-6.7c0.9-1.6,2.4-2.4,4.2-2.4c3.6,0,5.3,2.8,5.3,8.6c0,2.8-0.5,5-1.6,6.4
			c-0.9,1.6-2.4,2.2-4.2,2.2c-1.7,0-3-0.8-3.9-2.2C91.2,562.8,90.9,560.9,90.9,558.3z M93.1,558.1c0,4.4,1.1,6.7,3.4,6.7
			c2.2,0,3.3-2.2,3.3-6.7c0-4.7-1.1-7.1-3.3-7.1C94.2,551,93.1,553.4,93.1,558.1z"/>
		<path d="M104.2,565.2c0-0.3,0.2-0.8,0.5-0.9c0.3-0.3,0.6-0.5,0.9-0.5c0.5,0,0.8,0.2,0.9,0.5c0.3,0.3,0.5,0.6,0.5,0.9
			s-0.2,0.6-0.5,0.9c-0.3,0.3-0.6,0.5-0.9,0.5c-0.5,0-0.8-0.2-0.9-0.5C104.4,565.8,104.2,565.5,104.2,565.2z"/>
		<path d="M109.2,558.3c0-3,0.5-5.2,1.4-6.7c0.9-1.6,2.4-2.4,4.2-2.4c3.6,0,5.3,2.8,5.3,8.6c0,2.8-0.5,5-1.6,6.4
			c-0.9,1.6-2.4,2.2-4.2,2.2c-1.7,0-3-0.8-3.9-2.2C109.7,563,109.2,560.9,109.2,558.3z M111.3,558.1c0,4.4,1.1,6.7,3.4,6.7
			c2.2,0,3.3-2.2,3.3-6.7c0-4.7-1.1-7.1-3.3-7.1S111.3,553.4,111.3,558.1z"/>
		<path d="M122.1,553.7c0-1.4,0.3-2.5,1.1-3.3c0.8-0.8,1.7-1.3,3-1.3s2.2,0.3,2.8,1.1s0.9,1.7,0.9,3.1c0,1.3-0.3,2.4-1.1,3.1
			s-1.7,1.3-3,1.3c-1.1,0-2-0.3-2.8-1.1C122.2,555.9,122.1,555,122.1,553.7z M123.8,553.7c0,0.9,0.2,1.7,0.6,2.2s0.9,0.8,1.7,0.8
			c0.8,0,1.3-0.3,1.7-0.8c0.5-0.5,0.6-1.3,0.6-2.2s-0.2-1.7-0.6-2.2c-0.3-0.5-0.9-0.8-1.6-0.8c-0.8,0-1.3,0.3-1.7,0.8
			C124,552,123.8,552.8,123.8,553.7z M137.3,549.5l-10.8,16.9h-1.9l10.8-16.9H137.3z M132.1,562.3c0-1.4,0.3-2.5,1.1-3.3
			s1.7-1.3,3-1.3s2,0.3,2.8,1.1c0.6,0.8,0.9,1.7,0.9,3.1c0,1.3-0.3,2.4-1.1,3.1s-1.7,1.3-3,1.3c-1.1,0-2-0.3-2.8-1.1
			C132.4,564.5,132.1,563.6,132.1,562.3z M133.9,562.2c0,0.9,0.2,1.6,0.6,2.2c0.5,0.5,0.9,0.8,1.7,0.8s1.3-0.3,1.7-0.8
			c0.5-0.5,0.6-1.3,0.6-2.2s-0.2-1.7-0.6-2.2c-0.5-0.5-0.9-0.8-1.6-0.8c-0.8,0-1.3,0.3-1.7,0.8C134,560.6,133.9,561.2,133.9,562.2z"
			/>
	</g>
	<g id="_12.0_3" class="st0">
		<path d="M83.1,518v-14.3c-0.3,0.3-0.9,0.6-1.7,1.1c-0.8,0.5-1.6,0.6-2.2,0.9v-2c0.9-0.3,1.9-0.6,2.8-1.1s1.7-1.1,2.4-1.6h0.8v17.1
			L83.1,518L83.1,518z"/>
		<path d="M99,505.6c0-0.9-0.3-1.6-0.8-2.2c-0.6-0.5-1.4-0.8-2.4-0.8c-0.6,0-1.4,0.2-2,0.5c-0.8,0.3-1.4,0.8-2,1.6v-2
			c0.5-0.6,1.1-0.9,1.9-1.3c0.6-0.3,1.6-0.5,2.5-0.5c1.6,0,2.7,0.5,3.6,1.3s1.4,1.9,1.4,3.3c0,1.3-0.3,2.4-0.8,3.1
			c-0.6,0.9-1.6,1.9-3,2.8s-2.4,1.7-2.8,2c-0.5,0.5-0.8,0.8-0.9,1.3c-0.2,0.3-0.3,0.8-0.3,1.4h8.3v1.9H91.2v-0.8
			c0-0.9,0.2-1.7,0.5-2.5c0.3-0.6,0.6-1.3,1.3-2c0.6-0.6,1.6-1.4,2.8-2.4c1.3-0.9,2.2-1.7,2.7-2.4C98.9,507.3,99,506.5,99,505.6z"/>
		<path d="M104.2,516.9c0-0.3,0.2-0.8,0.5-0.9c0.3-0.3,0.6-0.5,0.9-0.5c0.5,0,0.8,0.2,0.9,0.5c0.3,0.3,0.5,0.6,0.5,0.9
			c0,0.3-0.2,0.6-0.5,0.9c-0.3,0.3-0.6,0.5-0.9,0.5c-0.5,0-0.8-0.2-0.9-0.5C104.4,517.5,104.2,517.2,104.2,516.9z"/>
		<path d="M109.2,510c0-3,0.5-5.2,1.4-6.7c0.9-1.6,2.4-2.4,4.2-2.4c3.6,0,5.3,2.8,5.3,8.6c0,2.8-0.5,5-1.6,6.4
			c-0.9,1.6-2.4,2.2-4.2,2.2c-1.7,0-3-0.8-3.9-2.2C109.7,514.7,109.2,512.6,109.2,510z M111.3,509.8c0,4.4,1.1,6.7,3.4,6.7
			c2.2,0,3.3-2.2,3.3-6.7c0-4.7-1.1-7.1-3.3-7.1C112.5,502.8,111.3,505.1,111.3,509.8z"/>
		<path d="M122.1,505.4c0-1.4,0.3-2.5,1.1-3.3c0.8-0.8,1.7-1.3,3-1.3s2.2,0.3,2.8,1.1c0.6,0.8,0.9,1.7,0.9,3.1
			c0,1.3-0.3,2.4-1.1,3.1c-0.8,0.8-1.7,1.3-3,1.3c-1.1,0-2-0.3-2.8-1.1C122.2,507.6,122.1,506.7,122.1,505.4z M123.8,505.3
			c0,0.9,0.2,1.7,0.6,2.2s0.9,0.8,1.7,0.8c0.8,0,1.3-0.3,1.7-0.8c0.5-0.5,0.6-1.3,0.6-2.2s-0.2-1.7-0.6-2.2
			c-0.3-0.5-0.9-0.8-1.6-0.8c-0.8,0-1.3,0.3-1.7,0.8C124,503.7,123.8,504.3,123.8,505.3z M137.3,501.2l-10.8,16.9h-1.9l10.8-16.9
			L137.3,501.2L137.3,501.2z M132.1,514c0-1.4,0.3-2.5,1.1-3.3s1.7-1.3,3-1.3s2,0.3,2.8,1.1c0.6,0.8,0.9,1.7,0.9,3.1
			c0,1.3-0.3,2.4-1.1,3.1c-0.8,0.8-1.7,1.3-3,1.3c-1.1,0-2-0.3-2.8-1.1C132.4,516.2,132.1,515.3,132.1,514z M133.9,513.9
			c0,0.9,0.2,1.6,0.6,2.2c0.5,0.5,0.9,0.8,1.7,0.8s1.3-0.3,1.7-0.8c0.5-0.5,0.6-1.3,0.6-2.2s-0.2-1.7-0.6-2.2
			c-0.5-0.5-0.9-0.8-1.6-0.8c-0.8,0-1.3,0.3-1.7,0.8C134,512.3,133.9,513,133.9,513.9z"/>
	</g>
</g>
<g id="线-3">
	<rect id="矩形_863_拷贝_2-3" x="150.5" y="758.3" class="st1" width="213.5" height="2"/>
	<rect id="矩形_863_拷贝_3-3" x="150.5" y="707" class="st1" width="213.5" height="2"/>
	<rect id="矩形_863_拷贝_4-3" x="150.5" y="655.8" class="st1" width="213.5" height="2"/>
	<rect id="矩形_863_拷贝_5-7" x="150.5" y="605.4" class="st1" width="213.5" height="2"/>
	<rect id="矩形_863_拷贝_5-8" x="150.5" y="554.2" class="st1" width="213.5" height="2"/>
	<rect id="矩形_863_拷贝_5-9" x="150.5" y="502.8" class="st1" width="213.5" height="2"/>
	<rect id="矩形_863-3" x="150.5" y="499.8" class="st2" width="2" height="314"/>
</g>
<rect id="矩形_864-3" x="181.8" y="579.3" class="st3" width="46.2" height="232.5"/>
<rect id="矩形_864_拷贝-3" x="228.1" y="626.6" class="st4" width="46.2" height="185.2"/>
<rect id="矩形_864_拷贝_2-3" x="274.5" y="677.9" class="st5" width="46.2" height="133.9"/>
<rect id="矩形_863_拷贝-3" x="150.5" y="811.8" class="st2" width="213.5" height="2"/>
<rect id="矩形_865" x="470" y="632" class="st3" width="36.5" height="35.9"/>
<rect id="矩形_865_拷贝" x="470" y="694.3" class="st4" width="36.5" height="35.9"/>
<rect id="矩形_865_拷贝_2" x="470" y="756.3" class="st5" width="36.5" height="35.9"/>
<g>
	<path d="M66.8,40.5c0,1.9-0.3,3.3-1.2,4.3c-0.9,1-1.9,1.6-3.3,1.6c-0.7,0-1.2,0-1.7-0.2v-2.1c0.5,0.3,1,0.5,1.7,0.5
		c1.7,0,2.4-1.4,2.4-4.1v-10h2.1V40.5z"/>
	<path d="M70.6,35.7c1-0.7,2.4-1,3.8-1c2.8,0,4,1.4,4,4.3v7.2h-1.7v-1.7l0,0c-0.9,1.2-2.1,1.9-3.5,1.9c-1,0-1.9-0.3-2.6-0.9
		c-0.7-0.5-1-1.4-1-2.4c0-2.1,1.2-3.3,3.6-3.6l3.3-0.5c0-1.9-0.7-2.8-2.2-2.8c-1.2,0.2-2.4,0.5-3.6,1.6V35.7z M71,31.7
		c0-0.3,0.2-0.5,0.3-0.9c0.2-0.3,0.5-0.3,0.9-0.3c0.3,0.2,0.5,0.3,0.9,0.5s0.3,0.5,0.3,0.9c0,0.3-0.2,0.5-0.3,0.7
		c-0.2,0.2-0.5,0.3-0.9,0.3s-0.5-0.2-0.9-0.3S71,32.1,71,31.7z M74.1,40.9c-1,0.2-1.6,0.3-1.9,0.7s-0.5,0.9-0.5,1.4s0.2,1,0.5,1.4
		s0.9,0.5,1.6,0.5c0.9,0,1.6-0.3,2.1-0.9c0.5-0.5,0.9-1.4,0.9-2.2v-1.2L74.1,40.9z M75.3,31.7c0-0.3,0.2-0.5,0.3-0.9
		c0.2-0.3,0.5-0.3,0.9-0.3s0.5,0.2,0.9,0.3s0.3,0.5,0.3,0.9c0,0.3-0.2,0.5-0.3,0.9c-0.2,0.3-0.5,0.3-0.9,0.3s-0.5-0.2-0.9-0.3
		S75.3,32.1,75.3,31.7z"/>
	<path d="M91.3,46.2h-1.9v-6.6c0-2.2-0.9-3.5-2.6-3.5c-0.9,0-1.6,0.3-2.1,1c-0.5,0.7-0.9,1.6-0.9,2.4v6.4H82V29.7h1.9v7.2l0,0
		c0.9-1.4,2.1-2.1,3.6-2.1c2.6,0,3.8,1.6,3.8,4.5V46.2z"/>
	<path d="M100.6,36.9c-0.3-0.2-0.9-0.3-1.4-0.3c-0.7,0-1.4,0.3-1.9,1s-0.7,1.7-0.7,2.8v5.7h-1.9V35h1.9v2.2l0,0
		c0.5-1.7,1.6-2.4,2.9-2.4c0.5,0,0.9,0,1,0.2C100.6,35,100.6,36.9,100.6,36.9z"/>
	<path d="M102.5,46.2V29.7h1.9v16.6C104.4,46.2,102.5,46.2,102.5,46.2z"/>
	<path d="M107.7,31c0-0.3,0.2-0.7,0.3-0.9c0.2-0.2,0.5-0.3,0.9-0.3s0.7,0.2,0.9,0.3c0.2,0.2,0.3,0.5,0.3,0.9s-0.2,0.7-0.3,0.9
		c-0.2,0.2-0.5,0.3-0.9,0.3s-0.7-0.2-0.9-0.3C107.9,31.7,107.7,31.4,107.7,31z M108,46.2V35h1.9v11.2H108z"/>
	<path d="M121.2,45.7c-0.9,0.5-1.9,0.7-3.1,0.7c-1.6,0-2.9-0.5-4-1.6c-1-1-1.6-2.4-1.6-4c0-1.9,0.5-3.3,1.6-4.5
		c1-1.2,2.4-1.7,4.3-1.7c1,0,1.9,0.2,2.6,0.5v1.9c-0.9-0.5-1.7-0.9-2.6-0.9c-1.2,0-2.1,0.3-2.8,1.2c-0.7,0.9-1,1.9-1,3.1
		s0.3,2.2,1,3.1s1.6,1,2.8,1c1,0,1.9-0.3,2.8-1V45.7z"/>
	<path d="M133.4,46.2h-1.9v-6.6c0-2.2-0.9-3.5-2.6-3.5c-0.9,0-1.6,0.3-2.1,1c-0.5,0.7-0.9,1.6-0.9,2.4v6.4h-1.9V29.7h1.9v7.2l0,0
		c0.9-1.4,2.1-2.1,3.6-2.1c2.6,0,3.8,1.6,3.8,4.5V46.2z"/>
	<path d="M145.8,41h-7.8c0,1.2,0.3,2.1,1,2.8c0.7,0.7,1.6,1,2.6,1c1.2,0,2.4-0.3,3.5-1.2v1.7c-1,0.7-2.2,1-4,1
		c-1.6,0-2.9-0.5-3.8-1.6c-0.9-1-1.4-2.4-1.4-4.3c0-1.7,0.5-3.1,1.6-4.3s2.2-1.7,3.6-1.7s2.6,0.5,3.5,1.4s1.2,2.2,1.2,4V41z
		 M143.8,39.5c0-1-0.2-1.7-0.7-2.4s-1.2-0.9-2.1-0.9c-0.9,0-1.6,0.3-2.1,0.9c-0.5,0.5-0.9,1.6-1,2.4H143.8z"/>
	<path d="M166.2,46.2h-2.4l-2.6-4.3c-0.5-0.9-1-1.4-1.4-1.7c-0.3-0.3-1-0.5-1.6-0.5h-1.4v6.6h-2.1V30.5h4.8c1.6,0,2.8,0.3,3.6,1
		c0.9,0.7,1.4,1.7,1.4,3.1c0,2.2-1.2,3.6-3.5,4.1l0,0c0.5,0.2,0.9,0.5,1,0.9s0.7,0.9,1.2,1.7L166.2,46.2z M156.9,32.3v5.5h2.4
		c0.9,0,1.7-0.3,2.2-0.9c0.5-0.5,0.7-1.2,0.7-2.1s-0.3-1.4-0.9-1.9c-0.5-0.5-1.2-0.7-2.2-0.7C159.1,32.3,156.9,32.3,156.9,32.3z"/>
	<path d="M176.5,41h-7.8c0,1.2,0.3,2.1,1,2.8c0.7,0.7,1.6,1,2.6,1c1.2,0,2.4-0.3,3.5-1.2v1.7c-1,0.7-2.2,1-4,1
		c-1.6,0-2.9-0.5-3.8-1.6c-0.9-1-1.4-2.4-1.4-4.3c0-1.7,0.5-3.1,1.6-4.3s2.2-1.7,3.6-1.7c1.4,0,2.6,0.5,3.5,1.4s1.2,2.2,1.2,4
		C176.5,39.8,176.5,41,176.5,41z M174.5,39.5c0-1-0.2-1.7-0.7-2.4s-1.2-0.9-2.1-0.9s-1.6,0.3-2.1,0.9s-0.9,1.6-1,2.4H174.5z"/>
	<path d="M188.6,46.2h-1.9v-6.4c0-2.2-0.9-3.5-2.6-3.5c-0.9,0-1.6,0.3-2.1,1s-0.9,1.4-0.9,2.4v6.4h-1.9V35h1.9v1.9l0,0
		c0.9-1.4,2.1-2.1,3.6-2.1c1.2,0,2.2,0.3,2.8,1.2c0.5,0.9,1,1.9,1,3.5C188.6,39.5,188.6,46.2,188.6,46.2z"/>
	<path d="M201.5,46.2h-1.9v-1.9l0,0c-0.9,1.4-2.1,2.1-3.8,2.1c-1.4,0-2.6-0.5-3.5-1.6c-0.9-1-1.2-2.4-1.2-4.1c0-1.9,0.5-3.3,1.4-4.5
		c0.9-1.2,2.2-1.7,3.6-1.7c1.4,0,2.6,0.5,3.3,1.7l0,0v-6.9h1.9v16.9H201.5z M199.7,39.5c0-0.9-0.3-1.7-0.9-2.2s-1.4-0.9-2.2-0.9
		c-1,0-1.9,0.3-2.4,1.2s-0.9,1.9-0.9,3.3c0,1.2,0.3,2.2,0.9,2.9c0.5,0.7,1.4,1,2.4,1s1.7-0.3,2.4-1c0.7-0.7,0.9-1.6,0.9-2.6v-1.7
		H199.7z"/>
	<path d="M204.8,31c0-0.3,0.2-0.7,0.3-0.9s0.5-0.3,0.9-0.3c0.3,0,0.7,0.2,0.9,0.3s0.3,0.5,0.3,0.9s-0.2,0.7-0.3,0.9
		c-0.2,0.2-0.5,0.3-0.9,0.3c-0.3,0-0.7-0.2-0.9-0.3C205,31.7,204.8,31.4,204.8,31z M205.2,46.2V35h1.9v11.2H205.2z"/>
	<path d="M216,46.1c-0.5,0.2-1,0.3-1.7,0.3c-2.1,0-2.9-1-2.9-3.3v-6.6h-1.9V35h1.9v-2.8l1.9-0.7v3.3h2.8v1.6h-2.8v6
		c0,0.7,0.2,1.2,0.3,1.6s0.7,0.5,1.2,0.5c0.5,0,0.9-0.2,1.2-0.3C216,44.2,216,46.1,216,46.1z"/>
	<path d="M227.3,41h-7.8c0,1.2,0.3,2.1,1,2.8c0.7,0.7,1.6,1,2.6,1c1.2,0,2.4-0.3,3.5-1.2v1.7c-1,0.7-2.4,1-4,1s-2.9-0.5-3.8-1.6
		c-0.9-1-1.4-2.4-1.4-4.1s0.5-3.1,1.6-4.3s2.2-1.7,3.6-1.7c1.4,0,2.6,0.5,3.5,1.4s1.2,2.2,1.2,4V41z M225.4,39.5
		c0-1-0.2-1.7-0.7-2.4s-1.2-0.7-2.1-0.7s-1.6,0.3-2.1,0.9c-0.5,0.5-0.9,1.4-1,2.2H225.4z"/>
	<path d="M241.7,31.4c-0.3-0.2-0.7-0.3-1.2-0.3c-1.2,0-1.9,0.7-1.9,2.2V35h2.6v1.6h-2.6v9.5h-1.9v-9.5h-1.9V35h1.9v-1.7
		c0-1.2,0.3-2.1,1-2.8s1.6-1,2.6-1c0.5,0,1,0,1.4,0.2C241.7,29.7,241.7,31.4,241.7,31.4z"/>
	<path d="M252.4,46.2h-2.1v-1.7l0,0c-0.7,1.4-1.9,2.1-3.5,2.1c-2.6,0-4-1.6-4-4.8V35h1.9v6.4c0,2.2,0.9,3.5,2.6,3.5
		c0.9,0,1.6-0.3,2.1-1c0.5-0.7,0.9-1.4,0.9-2.4V35h2.1C252.4,35,252.4,46.2,252.4,46.2z M244.5,31.7c0-0.3,0.2-0.5,0.3-0.9
		s0.5-0.3,0.9-0.3c0.3,0,0.5,0.2,0.9,0.3s0.3,0.5,0.3,0.9c0,0.3-0.2,0.7-0.5,0.9c-0.3,0.2-0.5,0.3-0.9,0.3s-0.5-0.2-0.7-0.3
		S244.5,32.1,244.5,31.7z M248.8,31.7c0-0.3,0.2-0.5,0.3-0.9c0.2-0.3,0.5-0.3,0.9-0.3s0.5,0.2,0.9,0.3s0.3,0.5,0.3,0.9
		c0,0.3-0.2,0.5-0.3,0.9s-0.5,0.3-0.9,0.3s-0.5-0.2-0.9-0.3C248.8,32.4,248.8,32.1,248.8,31.7z"/>
	<path d="M261.9,36.9c-0.3-0.2-0.9-0.3-1.4-0.3c-0.7,0-1.4,0.3-1.9,1c-0.5,0.7-0.7,1.7-0.7,2.8v5.7h-1.9V35h1.9v2.2l0,0
		c0.5-1.7,1.6-2.4,2.9-2.4c0.5,0,0.9,0,1,0.2C261.9,35,261.9,36.9,261.9,36.9z"/>
	<path d="M279,35l-4.5,11.2h-1.9L268.5,35h2.2l2.8,7.9c0.2,0.7,0.3,1.2,0.3,1.6l0,0c0-0.5,0.2-1,0.3-1.6l2.9-8.1h1.9V35z"/>
	<path d="M289.9,41h-7.8c0,1.2,0.3,2.1,1,2.8c0.7,0.7,1.6,1,2.6,1c1.2,0,2.4-0.3,3.5-1.2v1.7c-1,0.7-2.2,1-4,1
		c-1.6,0-2.9-0.5-3.8-1.6s-1.4-2.4-1.4-4.3c0-1.7,0.5-3.1,1.6-4.3c1-1.2,2.2-1.7,3.6-1.7c1.4,0,2.6,0.5,3.5,1.4s1.2,2.2,1.2,4V41z
		 M287.8,39.5c0-1-0.2-1.7-0.7-2.4c-0.5-0.7-1.2-0.9-2.1-0.9s-1.6,0.3-2.1,0.9c-0.5,0.5-0.9,1.4-1,2.2h5.9V39.5z"/>
	<path d="M298.5,36.9c-0.3-0.2-0.9-0.3-1.4-0.3c-0.7,0-1.4,0.3-1.9,1c-0.5,0.7-0.7,1.7-0.7,2.8v5.7h-1.9V35h1.9v2.2l0,0
		c0.5-1.7,1.6-2.4,2.9-2.4c0.5,0,0.9,0,1,0.2V36.9z"/>
	<path d="M299.9,43.8c1,0.7,2.1,1,3.3,1c1.6,0,2.2-0.5,2.2-1.6c0-0.5-0.2-0.9-0.5-1s-1-0.7-2.1-1c-1.2-0.5-2.1-1-2.4-1.6
		s-0.5-1-0.5-1.7c0-1,0.3-1.7,1.2-2.4c0.9-0.7,1.9-0.9,3.1-0.9c1,0,1.9,0.2,2.6,0.5v1.9c-0.9-0.5-1.7-0.9-2.8-0.9
		c-0.7,0-1.2,0.2-1.6,0.3s-0.5,0.9-0.5,1.2c0,0.5,0.2,0.9,0.3,1c0.2,0.2,0.9,0.5,1.9,1c1.2,0.5,2.1,0.9,2.6,1.4
		c0.5,0.5,0.7,1,0.7,1.9c0,1-0.3,1.9-1.2,2.4c-0.9,0.5-1.9,0.9-3.3,0.9c-1.2,0-2.2-0.2-3.1-0.7V43.8z"/>
	<path d="M317.8,45.7c-0.9,0.5-1.9,0.7-3.1,0.7c-1.6,0-2.9-0.5-4-1.6c-1-1-1.6-2.4-1.6-4c0-1.9,0.5-3.3,1.6-4.5s2.4-1.7,4.3-1.7
		c1,0,1.9,0.2,2.6,0.5v1.9c-0.9-0.5-1.7-0.9-2.6-0.9c-1.2,0-2.1,0.3-2.8,1.2s-1,1.9-1,3.1s0.3,2.2,1,3.1s1.6,1,2.8,1
		c1,0,1.9-0.3,2.8-1V45.7z"/>
	<path d="M329.9,46.2H328v-6.6c0-2.2-0.9-3.5-2.6-3.5c-0.9,0-1.6,0.3-2.1,1c-0.5,0.7-0.9,1.6-0.9,2.4v6.4h-1.9V29.7h1.9v7.2l0,0
		c0.9-1.4,2.1-2.1,3.6-2.1c2.6,0,3.8,1.6,3.8,4.5V46.2z"/>
	<path d="M333,31c0-0.3,0.2-0.7,0.3-0.9c0.2-0.2,0.5-0.3,0.9-0.3s0.7,0.2,0.9,0.3s0.3,0.5,0.3,0.9s-0.2,0.7-0.3,0.9
		c-0.2,0.2-0.5,0.3-0.9,0.3s-0.7-0.2-0.9-0.3C333.2,31.7,333,31.4,333,31z M333.4,46.2V35h1.9v11.2H333.4z"/>
	<path d="M347.8,41h-7.8c0,1.2,0.3,2.1,1,2.8c0.7,0.7,1.6,1,2.6,1c1.2,0,2.4-0.3,3.5-1.2v1.7c-1,0.7-2.2,1-4,1
		c-1.6,0-2.9-0.5-3.8-1.6s-1.4-2.4-1.4-4.3c0-1.7,0.5-3.1,1.6-4.3c1-1.2,2.2-1.7,3.6-1.7c1.4,0,2.6,0.5,3.5,1.4s1.2,2.2,1.2,4V41z
		 M345.9,39.5c0-1-0.2-1.7-0.7-2.4s-1.2-0.9-2.1-0.9c-0.9,0-1.6,0.3-2.1,0.9c-0.5,0.5-0.9,1.4-1,2.2h5.9V39.5z"/>
	<path d="M360.3,46.2h-1.9v-1.9l0,0c-0.9,1.4-2.1,2.1-3.8,2.1c-1.4,0-2.6-0.5-3.5-1.6c-0.9-1-1.2-2.4-1.2-4.1c0-1.9,0.5-3.3,1.4-4.5
		c0.9-1.2,2.2-1.7,3.6-1.7s2.6,0.5,3.3,1.7l0,0v-6.9h1.9v16.9H360.3z M358.2,39.5c0-0.9-0.3-1.7-0.9-2.2c-0.5-0.5-1.4-0.9-2.2-0.9
		c-1,0-1.9,0.3-2.4,1.2c-0.5,0.9-0.9,1.9-0.9,3.3c0,1.2,0.3,2.2,0.9,2.9c0.5,0.7,1.4,1,2.4,1s1.7-0.3,2.4-1c0.7-0.7,0.9-1.6,0.9-2.6
		v-1.7H358.2z"/>
	<path d="M372.9,41h-7.8c0,1.2,0.3,2.1,1,2.8c0.7,0.7,1.6,1,2.6,1c1.2,0,2.4-0.3,3.5-1.2v1.7c-1,0.7-2.2,1-4,1
		c-1.6,0-2.9-0.5-3.8-1.6s-1.4-2.4-1.4-4.3c0-1.7,0.5-3.1,1.6-4.3c1-1.2,2.2-1.7,3.6-1.7c1.4,0,2.6,0.5,3.5,1.4s1.2,2.2,1.2,4V41z
		 M371,39.5c0-1-0.2-1.7-0.7-2.4c-0.5-0.7-1.2-0.9-2.1-0.9c-0.9,0-1.6,0.3-2.1,0.9c-0.5,0.5-0.9,1.4-1,2.2h5.9V39.5z"/>
	<path d="M384.9,46.2H383v-6.4c0-2.2-0.9-3.5-2.6-3.5c-0.9,0-1.6,0.3-2.1,1c-0.5,0.7-0.9,1.4-0.9,2.4v6.4h-1.9V35h1.9v1.9l0,0
		c0.9-1.4,2.1-2.1,3.6-2.1c1.2,0,2.2,0.3,2.8,1.2c0.5,0.9,1,1.9,1,3.5L384.9,46.2L384.9,46.2z"/>
	<path d="M397.4,41h-7.8c0,1.2,0.3,2.1,1,2.8c0.7,0.7,1.6,1,2.6,1c1.2,0,2.4-0.3,3.5-1.2v1.7c-1,0.7-2.2,1-4,1
		c-1.6,0-2.9-0.5-3.8-1.6c-0.9-1-1.4-2.4-1.4-4.3c0-1.7,0.5-3.1,1.6-4.3s2.2-1.7,3.6-1.7s2.6,0.5,3.5,1.4c0.9,0.9,1.2,2.2,1.2,4V41z
		 M395.5,39.5c0-1-0.2-1.7-0.7-2.4s-1.2-0.9-2.1-0.9c-0.9,0-1.6,0.3-2.1,0.9c-0.5,0.5-0.9,1.4-1,2.2h5.9V39.5z"/>
	<path d="M418.8,46.2h-2.2l-1.6-4.3h-6.6l-1.6,4.3h-2.2l6-15.7h2.2L418.8,46.2z M414.3,40.2l-2.4-6.6c0-0.2-0.2-0.5-0.2-1l0,0
		c0,0.5-0.2,0.9-0.2,1l-2.6,6.6H414.3z"/>
	<path d="M430.1,46.2h-1.9v-6.4c0-2.2-0.9-3.5-2.6-3.5c-0.9,0-1.6,0.3-2.1,1c-0.5,0.7-0.9,1.4-0.9,2.4v6.4h-1.9V35h1.9v1.9l0,0
		c0.9-1.4,2.1-2.1,3.6-2.1c1.2,0,2.2,0.3,2.8,1.2c0.5,0.9,1,1.9,1,3.5V46.2L430.1,46.2z"/>
	<path d="M433.4,46.2V29.7h1.9v16.6C435.3,46.2,433.4,46.2,433.4,46.2z"/>
	<path d="M439.3,35.7c1-0.7,2.4-1,3.8-1c2.8,0,4,1.4,4,4.3v7.2h-1.9v-1.7l0,0c-0.7,1.4-1.9,2.1-3.5,2.1c-1,0-1.9-0.3-2.6-0.9
		s-1-1.4-1-2.4c0-2.1,1.2-3.3,3.8-3.6l3.3-0.5c0-1.9-0.7-2.8-2.2-2.8c-1.4,0-2.6,0.5-3.6,1.4L439.3,35.7L439.3,35.7z M442.6,40.9
		c-0.9,0.2-1.6,0.3-1.9,0.7c-0.3,0.3-0.5,0.9-0.5,1.4s0.2,1,0.5,1.4c0.3,0.3,0.9,0.5,1.6,0.5c0.9,0,1.6-0.3,2.1-0.9
		c0.5-0.5,0.9-1.4,0.9-2.2v-1.2L442.6,40.9z"/>
	<path d="M460.2,45.2c0,4.1-2.1,6.2-6,6.2c-1.4,0-2.6-0.3-3.6-0.9v-1.9c1.2,0.7,2.4,1,3.6,1c2.8,0,4.1-1.4,4.1-4.3v-1l0,0
		c-0.9,1.4-2.1,2.1-3.8,2.1c-1.4,0-2.6-0.5-3.5-1.6c-0.9-1-1.2-2.4-1.2-4c0-1.9,0.5-3.5,1.4-4.5c0.9-1,2.2-1.7,3.8-1.7
		s2.6,0.5,3.3,1.7l0,0V35h1.9V45.2z M458.1,39.5c0-0.9-0.3-1.6-0.9-2.2c-0.5-0.7-1.4-0.9-2.2-0.9c-1,0-1.9,0.3-2.6,1.2
		s-0.9,1.9-0.9,3.3c0,1.2,0.3,2.1,0.9,2.9c0.5,0.9,1.4,1,2.2,1c1,0,1.7-0.3,2.4-1c0.7-0.7,0.9-1.6,0.9-2.6v-1.7H458.1z"/>
	<path d="M472.7,41H465c0,1.2,0.3,2.1,1,2.8c0.7,0.7,1.6,1,2.6,1c1.2,0,2.4-0.3,3.5-1.2v1.7c-1,0.7-2.2,1-4,1
		c-1.6,0-2.9-0.5-3.8-1.6c-0.9-1-1.4-2.4-1.4-4.3c0-1.7,0.5-3.1,1.6-4.3s2.2-1.7,3.6-1.7s2.6,0.5,3.5,1.4c0.9,0.9,1.2,2.2,1.2,4V41z
		 M470.9,39.5c0-1-0.2-1.7-0.7-2.4s-1.2-0.9-2.1-0.9c-0.9,0-1.6,0.3-2.1,0.9c-0.5,0.5-0.9,1.4-1,2.2h5.9V39.5z"/>
	<path d="M485,46.2h-2.8l-4.8-5.3l0,0v5.3h-1.9V29.7h1.9v10.5l0,0l4.5-5.2h2.6l-5,5.3L485,46.2z"/>
	<path d="M486.7,46.2V29.7h1.9v16.6C488.6,46.2,486.7,46.2,486.7,46.2z"/>
	<path d="M492.4,35.7c1-0.7,2.4-1,3.8-1c2.8,0,4,1.4,4,4.3v7.2h-1.9v-1.7l0,0c-0.7,1.4-1.9,2.1-3.5,2.1c-1,0-1.9-0.3-2.6-0.9
		s-1-1.4-1-2.4c0-2.1,1.2-3.3,3.8-3.6l3.3-0.5c0-1.9-0.7-2.8-2.2-2.8c-1.4,0-2.6,0.5-3.6,1.4L492.4,35.7L492.4,35.7z M495.7,40.9
		c-0.9,0.2-1.6,0.3-1.9,0.7s-0.5,0.9-0.5,1.4s0.2,1,0.5,1.4s0.9,0.5,1.6,0.5c0.9,0,1.6-0.3,2.1-0.9c0.5-0.5,0.9-1.4,0.9-2.2v-1.2
		L495.7,40.9z"/>
	<path d="M502.9,43.8c1,0.7,2.1,1,3.3,1c1.6,0,2.2-0.5,2.2-1.6c0-0.5-0.2-0.9-0.5-1s-1-0.7-2.1-1c-1.2-0.5-2.1-1-2.4-1.6
		s-0.5-1-0.5-1.7c0-1,0.3-1.7,1.2-2.4s1.9-0.9,3.1-0.9c1,0,1.9,0.2,2.6,0.5v1.9c-0.9-0.5-1.7-0.9-2.8-0.9c-0.7,0-1.2,0.2-1.6,0.3
		c-0.3,0.2-0.5,0.7-0.5,1c0,0.5,0.2,0.9,0.3,1c0.2,0.2,0.9,0.5,1.9,1c1.2,0.5,2.1,0.9,2.6,1.4c0.5,0.5,0.7,1,0.7,1.9
		c0,1-0.3,1.9-1.2,2.4c-0.9,0.5-1.9,0.9-3.3,0.9c-1.2,0-2.2-0.2-3.1-0.7L502.9,43.8L502.9,43.8z"/>
	<path d="M512.6,43.8c1,0.7,2.1,1,3.3,1c1.6,0,2.2-0.5,2.2-1.6c0-0.5-0.2-0.9-0.5-1c-0.3-0.2-1-0.7-2.1-1c-1.2-0.5-2.1-1-2.4-1.6
		c-0.3-0.5-0.5-1-0.5-1.7c0-1,0.3-1.7,1.2-2.4c0.9-0.7,1.9-0.9,3.1-0.9c1,0,1.9,0.2,2.6,0.5v1.9c-0.9-0.5-1.7-0.9-2.8-0.9
		c-0.7,0-1.2,0.2-1.6,0.3c-0.3,0.2-0.5,0.7-0.5,1c0,0.5,0.2,0.9,0.3,1s0.9,0.5,1.9,1c1.2,0.5,2.1,0.9,2.6,1.4c0.5,0.5,0.7,1,0.7,1.9
		c0,1-0.3,1.9-1.2,2.4c-0.9,0.5-1.9,0.9-3.3,0.9c-1.2,0-2.2-0.2-3.1-0.7L512.6,43.8L512.6,43.8z"/>
	<path d="M531.9,41h-7.8c0,1.2,0.3,2.1,1,2.8c0.7,0.7,1.6,1,2.6,1c1.2,0,2.4-0.3,3.5-1.2v1.7c-1,0.7-2.2,1-4,1
		c-1.6,0-2.9-0.5-3.8-1.6c-0.9-1-1.4-2.4-1.4-4.3c0-1.7,0.5-3.1,1.6-4.3c1-1.2,2.2-1.7,3.6-1.7c1.4,0,2.6,0.5,3.5,1.4
		c0.9,0.9,1.2,2.2,1.2,4L531.9,41L531.9,41z M529.9,39.5c0-1-0.2-1.7-0.7-2.4c-0.5-0.7-1.2-0.9-2.1-0.9c-0.9,0-1.6,0.3-2.1,0.9
		c-0.5,0.5-0.9,1.4-1,2.2h5.9V39.5z"/>
	<path d="M544,46.2h-1.9v-6.4c0-2.2-0.9-3.5-2.6-3.5c-0.9,0-1.6,0.3-2.1,1s-0.9,1.4-0.9,2.4v6.4h-1.9V35h1.9v1.9l0,0
		c0.9-1.4,2.1-2.1,3.6-2.1c1.2,0,2.2,0.3,2.8,1.2c0.5,0.9,1,1.9,1,3.5L544,46.2L544,46.2z"/>
</g>
<g>
	<path d="M213.7,427.5c0,1.6-0.6,2.9-1.6,4c-1.2,1-2.6,1.5-4.4,1.5c-1.6,0-2.8-0.3-3.5-0.7V430c1.2,0.7,2.4,1.2,3.5,1.2
		s2.2-0.3,2.9-1c0.7-0.6,1-1.5,1-2.6c0-1-0.4-1.9-1.2-2.5s-1.8-0.9-3.2-0.9c-1,0-2.1,0-2.9,0.1l0.6-8.7h7.9v1.9h-6.2l-0.3,4.8h1.6
		c1.8,0,3.2,0.4,4.3,1.3C213.3,424.6,213.7,425.9,213.7,427.5z"/>
	<path d="M228.8,426.7c0,2.1-0.4,3.7-1.3,4.8c-0.9,1.2-2.1,1.8-3.5,1.8c-0.7,0-1.3-0.1-1.8-0.3v-2.2c0.4,0.3,1,0.4,1.8,0.4
		c1.8,0,2.6-1.5,2.6-4.6v-10.9h2.2V426.7z"/>
	<path d="M232.8,421.5c1.2-0.7,2.6-1.2,4.3-1.2c2.9,0,4.4,1.5,4.4,4.6v7.8h-2.2v-1.9l0,0c-0.9,1.5-2.1,2.2-3.7,2.2
		c-1.2,0-2.1-0.3-2.8-1c-0.7-0.6-1-1.5-1-2.6c0-2.2,1.3-3.7,4.1-4l3.7-0.4c0-2.1-0.9-2.9-2.5-2.9c-1.5,0-2.8,0.4-4,1.5v-1.9H232.8z
		 M236.5,427.1c-1,0.1-1.6,0.4-2.1,0.7c-0.4,0.4-0.6,0.9-0.6,1.5c0,0.6,0.1,1,0.6,1.5c0.4,0.4,0.9,0.6,1.6,0.6c0.9,0,1.8-0.3,2.4-1
		s0.9-1.5,0.9-2.5v-1.2L236.5,427.1z"/>
	<path d="M255.3,432.8h-2.2v-7.1c0-2.5-0.9-3.7-2.8-3.7c-0.9,0-1.8,0.3-2.4,1s-0.9,1.6-0.9,2.6v6.9h-2.2v-18.1h2.2v7.8l0,0
		c0.9-1.5,2.2-2.4,4-2.4c2.8,0,4.1,1.6,4.1,5v7.8H255.3z"/>
	<path d="M265.4,422.8c-0.3-0.3-0.9-0.4-1.5-0.4c-0.9,0-1.5,0.4-2.1,1.2s-0.9,1.8-0.9,3.1v6.2h-2.2v-12.2h2.2v2.5l0,0
		c0.6-1.8,1.6-2.6,3.2-2.6c0.4,0,0.9,0,1.2,0.1V422.8z"/>
	<path d="M277.2,427.3h-8.5c0,1.3,0.4,2.4,1,3.1c0.7,0.7,1.6,1,2.8,1c1.3,0,2.6-0.4,3.8-1.3v1.9c-1,0.7-2.5,1.2-4.3,1.2
		c-1.8,0-3.1-0.6-4.1-1.6c-1-1-1.5-2.6-1.5-4.7c0-1.9,0.6-3.4,1.6-4.6s2.5-1.8,4-1.8c1.6,0,2.8,0.4,3.7,1.5c0.9,1,1.3,2.5,1.3,4.3v1
		H277.2z M275,425.6c0-1.2-0.3-1.9-0.7-2.5c-0.4-0.6-1.2-0.9-2.2-0.9c-0.9,0-1.6,0.3-2.2,1c-0.6,0.7-1,1.5-1.2,2.5h6.3V425.6z"/>
</g>
<g>
	<path d="M511.7,432.8v-14.5c-0.3,0.3-0.9,0.7-1.8,1.2c-0.9,0.4-1.6,0.7-2.2,0.9v-2.1c0.9-0.3,1.9-0.6,2.9-1.2s1.8-1,2.4-1.6h0.9
		V433h-2.2V432.8z"/>
	<path d="M519.7,424.6c0-2.9,0.4-5.3,1.5-6.9c1-1.6,2.5-2.4,4.4-2.4c3.7,0,5.4,2.9,5.4,8.8c0,2.9-0.4,5.1-1.5,6.6
		c-1,1.5-2.5,2.4-4.3,2.4c-1.8,0-3.1-0.7-4-2.2C520.1,429.5,519.7,427.4,519.7,424.6z M521.9,424.6c0,4.6,1.2,6.8,3.4,6.8
		s3.4-2.4,3.4-6.9c0-4.7-1.2-7.2-3.4-7.2C523.1,417.3,521.9,419.8,521.9,424.6z"/>
	<path d="M545.4,426.7c0,2.1-0.4,3.7-1.3,4.8s-2.1,1.8-3.5,1.8c-0.7,0-1.3-0.1-1.8-0.3v-2.2c0.4,0.3,1,0.4,1.8,0.4
		c1.8,0,2.6-1.5,2.6-4.6v-10.9h2.2V426.7z"/>
	<path d="M549.4,421.5c1.2-0.7,2.6-1.2,4.3-1.2c2.9,0,4.4,1.5,4.4,4.6v7.8h-2.2v-1.9l0,0c-0.9,1.5-2.1,2.2-3.7,2.2
		c-1.2,0-2.1-0.3-2.8-1c-0.7-0.6-1-1.5-1-2.6c0-2.2,1.3-3.7,4.1-4l3.7-0.4c0-2.1-0.9-2.9-2.5-2.9c-1.5,0-2.8,0.4-4,1.5v-1.9H549.4z
		 M553,427.1c-1,0.1-1.6,0.4-2.1,0.7c-0.4,0.4-0.6,0.9-0.6,1.5c0,0.6,0.1,1,0.6,1.5s0.9,0.6,1.6,0.6c0.9,0,1.8-0.3,2.4-1
		c0.6-0.7,0.9-1.5,0.9-2.5v-1.2L553,427.1z"/>
	<path d="M571.8,432.8h-2.2v-7.1c0-2.5-0.9-3.7-2.8-3.7c-0.9,0-1.8,0.3-2.4,1s-0.9,1.6-0.9,2.6v6.9h-2.2v-18.1h2.2v7.8l0,0
		c0.9-1.5,2.2-2.4,4-2.4c2.8,0,4.1,1.6,4.1,5v7.8H571.8z"/>
	<path d="M582,422.8c-0.3-0.3-0.9-0.4-1.5-0.4c-0.9,0-1.5,0.4-2.1,1.2c-0.6,0.7-0.9,1.8-0.9,3.1v6.2h-2.2v-12.2h2.2v2.5l0,0
		c0.6-1.8,1.6-2.6,3.2-2.6c0.4,0,0.9,0,1.2,0.1V422.8z"/>
	<path d="M593.7,427.3h-8.5c0,1.3,0.4,2.4,1,3.1c0.7,0.7,1.6,1,2.8,1c1.3,0,2.6-0.4,3.8-1.3v1.9c-1,0.7-2.5,1.2-4.3,1.2
		c-1.8,0-3.1-0.6-4.1-1.6c-1-1-1.5-2.6-1.5-4.7c0-1.9,0.6-3.4,1.6-4.6c1-1.2,2.5-1.8,4-1.8c1.6,0,2.8,0.4,3.7,1.5
		c0.9,1,1.3,2.5,1.3,4.3v1H593.7z M591.5,425.6c0-1.2-0.3-1.9-0.7-2.5s-1.2-0.9-2.2-0.9c-0.9,0-1.6,0.3-2.2,1
		c-0.6,0.7-1,1.5-1.2,2.5h6.3V425.6z"/>
</g>
<g>
	<path d="M213.1,833c0-0.9-0.3-1.6-0.9-2.2c-0.6-0.6-1.3-0.7-2.4-0.7c-0.7,0-1.5,0.1-2.2,0.6c-0.7,0.4-1.3,0.9-2.1,1.5v-2.1
		c0.6-0.6,1.2-1,1.9-1.3s1.5-0.4,2.5-0.4c1.5,0,2.8,0.4,3.7,1.2c0.9,0.9,1.5,1.9,1.5,3.4c0,1.3-0.3,2.4-0.9,3.2
		c-0.6,0.9-1.6,1.9-2.9,2.8c-1.5,1-2.4,1.8-2.8,2.1c-0.4,0.4-0.9,0.9-1,1.2c-0.1,0.4-0.3,0.9-0.3,1.5h8.5v1.9H205v-0.7
		c0-1,0.1-1.8,0.4-2.5c0.3-0.7,0.7-1.3,1.3-2.1c0.6-0.7,1.6-1.5,2.9-2.4c1.3-0.9,2.2-1.8,2.8-2.5C212.8,834.8,213.1,834,213.1,833z"
		/>
	<path d="M217.9,837.4c0-2.9,0.4-5.3,1.5-6.9c1-1.6,2.5-2.4,4.4-2.4c3.7,0,5.4,2.9,5.4,8.8c0,2.9-0.4,5.1-1.5,6.6
		c-1,1.5-2.5,2.4-4.3,2.4c-1.8,0-3.1-0.7-4-2.2C218.4,842.2,217.9,840.2,217.9,837.4z M220.1,837.4c0,4.6,1.2,6.8,3.4,6.8
		s3.4-2.4,3.4-6.9c0-4.7-1.2-7.2-3.4-7.2C221.3,830.1,220.1,832.5,220.1,837.4z"/>
	<path d="M243.7,839.5c0,2.1-0.4,3.7-1.3,4.8c-0.9,1.2-2.1,1.8-3.5,1.8c-0.7,0-1.3-0.1-1.8-0.3v-2.2c0.4,0.3,1,0.4,1.8,0.4
		c1.8,0,2.6-1.5,2.6-4.6v-10.9h2.2V839.5z"/>
	<path d="M247.6,834.3c1.2-0.7,2.6-1.2,4.3-1.2c2.9,0,4.4,1.5,4.4,4.6v7.8h-2.2v-1.9l0,0c-0.9,1.5-2.1,2.2-3.7,2.2
		c-1.2,0-2.1-0.3-2.8-1c-0.7-0.6-1-1.5-1-2.6c0-2.2,1.3-3.7,4.1-4l3.7-0.4c0-2.1-0.9-2.9-2.5-2.9c-1.5,0-2.8,0.4-4,1.5v-1.9H247.6z
		 M251.3,839.9c-1,0.1-1.6,0.4-2.1,0.7s-0.6,0.9-0.6,1.5c0,0.6,0.1,1,0.6,1.5c0.4,0.4,0.9,0.6,1.6,0.6c0.9,0,1.8-0.3,2.4-1
		c0.6-0.7,0.9-1.5,0.9-2.5v-1.2L251.3,839.9z"/>
	<path d="M270.1,845.6h-2.2v-7.1c0-2.5-0.9-3.7-2.8-3.7c-0.9,0-1.8,0.3-2.4,1c-0.6,0.7-0.9,1.6-0.9,2.6v6.9h-2.2v-18.1h2.2v7.8l0,0
		c0.9-1.5,2.2-2.4,4-2.4c2.8,0,4.1,1.6,4.1,5v7.8H270.1z"/>
	<path d="M280.2,835.6c-0.3-0.3-0.9-0.4-1.5-0.4c-0.9,0-1.5,0.4-2.1,1.2c-0.6,0.7-0.9,1.8-0.9,3.1v6.2h-2.2v-12.2h2.2v2.5l0,0
		c0.6-1.8,1.6-2.6,3.2-2.6c0.4,0,0.9,0,1.2,0.1V835.6z"/>
	<path d="M292,840h-8.5c0,1.3,0.4,2.4,1,3.1c0.6,0.7,1.6,1,2.8,1c1.3,0,2.6-0.4,3.8-1.3v1.9c-1,0.7-2.5,1.2-4.3,1.2
		s-3.1-0.6-4.1-1.6c-1-1.2-1.5-2.6-1.5-4.7c0-1.9,0.6-3.4,1.6-4.6c1-1.2,2.5-1.8,4-1.8c1.6,0,2.8,0.4,3.7,1.5c0.9,1,1.3,2.5,1.3,4.3
		v1H292z M289.8,838.4c0-1.2-0.3-1.9-0.7-2.5c-0.4-0.6-1.2-0.9-2.2-0.9c-0.9,0-1.6,0.3-2.2,1c-0.6,0.6-1,1.5-1.2,2.5h6.3V838.4z"/>
</g>
<g>
	<path d="M535.1,639.3v18.9h-2.6v-18.9H535.1z"/>
	<path d="M559.1,658.2h-2.3v-7.7c0-1.4-0.3-2.6-0.6-3.1c-0.6-0.6-1.1-0.9-2.3-0.9c-0.9,0-1.7,0.3-2.3,1.1c-0.6,0.9-0.9,1.7-0.9,2.9
		v7.7h-2.3v-8c0-2.6-0.9-3.7-2.9-3.7c-0.9,0-1.7,0.3-2.3,1.1c-0.6,0.9-0.9,1.7-0.9,2.9v7.7h-2.3v-13.4h2.3v2l0,0
		c0.9-1.7,2.3-2.6,4.3-2.6c0.9,0,1.7,0.3,2.3,0.9s1.1,1.1,1.4,2c0.9-1.7,2.6-2.9,4.6-2.9c2.9,0,4.6,1.7,4.6,5.4v8.6H559.1z"/>
	<path d="M582.2,658.2h-2.3v-7.7c0-1.4-0.3-2.6-0.6-3.1c-0.6-0.6-1.1-0.9-2.3-0.9c-0.9,0-1.7,0.3-2.3,1.1s-0.9,1.7-0.9,2.9v7.7h-2.3
		v-8c0-2.6-0.9-3.7-2.9-3.7c-0.9,0-1.7,0.3-2.3,1.1c-0.6,0.9-0.9,1.7-0.9,2.9v7.7h-2.3v-13.4h2.3v2l0,0c0.9-1.7,2.3-2.6,4.3-2.6
		c0.9,0,1.7,0.3,2.3,0.9s1.1,1.1,1.4,2c0.9-1.7,2.6-2.9,4.6-2.9c2.9,0,4.6,1.7,4.6,5.4v8.6H582.2z"/>
	<path d="M585.3,651.6c0-2.3,0.6-4,2-5.1c1.4-1.1,2.9-2,5.1-2c2,0,3.7,0.6,4.9,1.7c1.1,1.1,1.7,2.9,1.7,5.1c0,2-0.6,3.7-1.7,5.1
		c-1.1,1.4-2.9,2-4.9,2c-2,0-3.7-0.6-4.9-2C585.9,655.3,585.3,653.6,585.3,651.6z M587.6,651.3c0,1.4,0.3,2.9,1.1,3.7
		c0.9,0.9,1.7,1.4,3.1,1.4c1.4,0,2.3-0.6,3.1-1.4c0.9-0.9,1.1-2,1.1-3.7s-0.3-2.9-1.1-3.7c-0.6-0.9-1.7-1.4-3.1-1.4
		c-1.4,0-2.3,0.6-3.1,1.4C588.2,648.5,587.6,649.9,587.6,651.3z"/>
	<path d="M604.5,656.2v2h-2.3v-20h2.3v8.9l0,0c1.1-1.7,2.6-2.6,4.6-2.6c1.7,0,3.1,0.6,4,1.7c0.9,1.1,1.4,2.9,1.4,4.9
		c0,2.3-0.6,4-1.7,5.4c-1.1,1.4-2.6,2-4.6,2C606.8,658.5,605.3,657.6,604.5,656.2L604.5,656.2z M604.5,652.5c0,1.1,0.3,2,1.1,2.9
		c0.6,0.9,1.7,1.1,2.6,1.1c1.1,0,2.3-0.6,2.9-1.4c0.9-0.9,1.1-2.3,1.1-4c0-1.4-0.3-2.6-0.9-3.4c-0.6-0.9-1.7-1.1-2.9-1.1
		s-2,0.3-2.9,1.1c-0.9,0.9-1.1,2-1.1,3.1L604.5,652.5L604.5,652.5z"/>
	<path d="M617.6,639.9c0-0.3,0.3-0.9,0.6-1.1c0.3-0.3,0.6-0.6,1.1-0.6s0.9,0,1.1,0.3c0.3,0.3,0.6,0.6,0.6,1.1c0,0.3-0.3,0.9-0.6,1.1
		c-0.3,0.3-0.6,0.3-1.1,0.3s-0.9,0-1.1-0.3C617.9,640.8,617.6,640.5,617.6,639.9z M617.9,658.2v-13.4h2.3v13.4H617.9z"/>
	<path d="M624.5,658.2v-20h2.3v20H624.5z"/>
	<path d="M630.8,639.9c0-0.3,0.3-0.9,0.6-1.1c0.3-0.3,0.6-0.6,1.1-0.6s0.9,0,1.1,0.3c0.3,0.3,0.6,0.6,0.6,1.1c0,0.3-0.3,0.9-0.6,1.1
		c-0.3,0.3-0.6,0.3-1.1,0.3s-0.9,0-1.1-0.3C631,640.8,630.8,640.5,630.8,639.9z M631,658.2v-13.4h2.3v13.4H631z"/>
	<path d="M648.8,651.9h-9.4c0,1.4,0.6,2.6,1.1,3.4c0.6,0.9,1.7,1.1,3.1,1.1s2.9-0.6,4-1.4v2c-1.1,0.9-2.9,1.1-4.6,1.1
		c-2,0-3.4-0.6-4.6-1.7c-1.1-1.1-1.7-2.9-1.7-5.1c0-2,0.6-3.7,1.7-5.1c1.1-1.4,2.6-2,4.6-2c1.7,0,3.1,0.6,4,1.7
		c0.9,1.1,1.4,2.6,1.4,4.9v1.1H648.8z M646.5,650.2c0-1.1-0.3-2.3-0.9-2.9c-0.6-0.6-1.4-0.9-2.3-0.9s-1.7,0.3-2.6,1.1
		c-0.6,0.6-1.1,1.7-1.4,2.9h7.1V650.2z"/>
	<path d="M663.3,658.2H661v-7.7c0-2.9-1.1-4-3.1-4c-1.1,0-2,0.3-2.6,1.1s-1.1,1.7-1.1,2.9v7.7h-2.3v-13.4h2.3v2.3l0,0
		c1.1-1.7,2.6-2.6,4.3-2.6c1.4,0,2.6,0.6,3.4,1.4c0.9,0.9,1.1,2.3,1.1,4v8.3H663.3z"/>
</g>
<g>
	<path d="M547.5,719h-2.6l-2-5.1h-7.7l-1.7,5.1h-2.6l7.1-18.9h2.6L547.5,719z M542.1,711.6l-2.9-7.7c0-0.3-0.3-0.6-0.3-1.4l0,0
		c0,0.6-0.3,1.1-0.3,1.4l-2.9,7.7H542.1z"/>
	<path d="M561.5,719h-3.1l-5.7-6.6l0,0v6.6h-2.3v-20h2.3v12.6l0,0l5.4-6.3h3.1l-6,6.6L561.5,719z"/>
	<path d="M569.8,718.7c-0.6,0.3-1.1,0.3-2,0.3c-2.3,0-3.7-1.4-3.7-4v-7.7h-2.3v-1.7h2.3v-3.1l2.3-0.9v4h3.4v2h-3.4v7.4
		c0,0.9,0.3,1.4,0.6,2c0.3,0.3,0.9,0.6,1.4,0.6s0.9-0.3,1.4-0.6V718.7z"/>
	<path d="M572.3,700.7c0-0.3,0.3-0.9,0.6-1.1c0.3-0.3,0.6-0.6,1.1-0.6s0.9,0,1.1,0.3c0.3,0.3,0.6,0.6,0.6,1.1c0,0.3-0.3,0.9-0.6,1.1
		c-0.3,0.3-0.6,0.3-1.1,0.3s-0.9,0-1.1-0.3C572.3,701.6,572.3,701.3,572.3,700.7z M572.6,719v-13.4h2.3V719H572.6z"/>
	<path d="M590.1,712.7h-9.4c0,1.4,0.6,2.6,1.1,3.4c0.6,0.9,1.7,1.1,3.1,1.1s2.9-0.6,4-1.4v2c-1.1,0.9-2.9,1.1-4.6,1.1
		c-2,0-3.4-0.6-4.6-1.7c-1.1-1.1-1.7-2.9-1.7-5.1c0-2,0.6-3.7,1.7-5.1c1.1-1.4,2.6-2,4.6-2c1.7,0,3.1,0.6,4,1.7
		c0.9,1.1,1.4,2.6,1.4,4.9v1.1H590.1z M587.8,711c0-1.1-0.3-2.3-0.9-2.9c-0.6-0.6-1.4-0.9-2.3-0.9c-0.9,0-1.7,0.3-2.6,1.1
		c-0.6,0.6-1.1,1.7-1.4,2.9h7.1V711z"/>
	<path d="M604.6,719h-2.3v-7.7c0-2.9-1.1-4-3.1-4c-1.1,0-2,0.3-2.6,1.1c-0.6,0.9-1.1,1.7-1.1,2.9v7.7h-2.3v-13.4h2.3v2.3l0,0
		c1.1-1.7,2.6-2.6,4.3-2.6c1.4,0,2.6,0.6,3.4,1.4c0.9,0.9,1.1,2.3,1.1,4v8.3H604.6z"/>
</g>
<g>
	<path d="M546.1,752.6l-10.9,16h10.6v2.3h-14.3V770l10.9-15.7h-10V752h13.4v0.6H546.1z"/>
	<path d="M559.8,764.6h-9.4c0,1.4,0.6,2.6,1.1,3.4c0.6,0.9,1.7,1.1,3.1,1.1s2.9-0.6,4-1.4v2c-1.1,0.9-2.9,1.1-4.6,1.1
		c-2,0-3.4-0.6-4.6-1.7c-1.1-1.1-1.7-2.9-1.7-5.1c0-2,0.6-3.7,1.7-5.1c1.1-1.4,2.6-2,4.6-2c1.7,0,3.1,0.6,4,1.7
		c0.9,1.1,1.4,2.6,1.4,4.9v1.1H559.8z M557.2,762.9c0-1.1-0.3-2.3-0.9-2.9c-0.6-0.6-1.4-0.9-2.3-0.9s-1.7,0.3-2.6,1.1
		c-0.6,0.6-1.1,1.7-1.4,2.9h7.1V762.9z"/>
	<path d="M574.3,770.9h-2.3v-7.7c0-2.6-1.1-4-3.1-4c-1.1,0-2,0.3-2.6,1.1s-1.1,1.7-1.1,2.9v7.7h-2.3v-20h2.3v8.6l0,0
		c1.1-1.7,2.6-2.6,4.3-2.6c3.1,0,4.6,1.7,4.6,5.4v8.6H574.3z"/>
	<path d="M589.5,770.9h-2.3v-7.7c0-2.9-1.1-4-3.1-4c-1.1,0-2,0.3-2.6,1.1s-1.1,1.7-1.1,2.9v7.7h-2.3v-13.4h2.3v2.3l0,0
		c1.1-1.7,2.6-2.6,4.3-2.6c1.4,0,2.6,0.6,3.4,1.4c0.9,0.9,1.1,2.3,1.1,4v8.3H589.5z"/>
	<path d="M595.8,770.3c0,2.3-0.6,4-1.4,5.1c-0.9,1.1-2.3,1.7-3.7,1.7c-0.6,0-1.1,0-1.7-0.3v-2.3c0.6,0.3,1.1,0.6,1.7,0.6
		c2,0,2.9-1.4,2.9-4.6v-13.1h2.3V770.3z M593.2,752.6c0-0.3,0-0.9,0.3-1.1c0.3-0.3,0.6-0.6,1.1-0.6s0.9,0,1.1,0.3
		c0.3,0.3,0.6,0.6,0.6,1.1c0,0.3-0.3,0.9-0.6,1.1c-0.3,0.3-0.6,0.3-1.1,0.3s-0.9-0.3-1.1-0.6C593.2,752.9,593.2,752.9,593.2,752.6z"
		/>
	<path d="M600.3,758.3c1.4-0.9,2.9-1.1,4.6-1.1c3.1,0,4.9,1.7,4.9,5.1v8.6h-2.3v-2l0,0c-0.9,1.7-2.3,2.3-4,2.3
		c-1.4,0-2.3-0.3-3.1-1.1c-0.9-0.6-1.1-1.7-1.1-2.9c0-2.6,1.4-4,4.6-4.3l4-0.6c0-2.3-0.9-3.4-2.9-3.4c-1.7,0-3.1,0.6-4.3,1.7v-2.3
		H600.3z M600.9,753.4c0-0.3,0-0.6,0.3-0.9c0.3-0.3,0.6-0.3,0.9-0.3s0.6,0,0.9,0.3c0.3,0.3,0.3,0.6,0.3,0.9s0,0.6-0.3,0.9
		c-0.3,0.3-0.6,0.3-0.9,0.3s-0.6,0-0.9-0.3C600.9,754.3,600.9,753.7,600.9,753.4z M604.3,764.6c-1.1,0.3-2,0.3-2.3,0.9
		c-0.3,0.3-0.6,0.9-0.6,1.7c0,0.6,0.3,1.1,0.6,1.4c0.6,0.3,1.1,0.6,1.7,0.6c1.1,0,2-0.3,2.6-1.1c0.6-0.9,1.1-1.7,1.1-2.9V764
		L604.3,764.6z M606,753.4c0-0.3,0-0.6,0.3-0.9c0.3-0.3,0.6-0.3,0.9-0.3c0.3,0,0.9,0,0.9,0.3s0.3,0.6,0.3,0.9s0,0.6-0.3,0.9
		s-0.6,0.3-0.9,0.3c-0.3,0-0.6,0-0.9-0.3C606,754.3,606,753.7,606,753.4z"/>
	<path d="M625.2,770.9h-2.3v-7.7c0-2.6-1.1-4-3.1-4c-1.1,0-2,0.3-2.6,1.1s-1.1,1.7-1.1,2.9v7.7h-2.3v-20h2.3v8.6l0,0
		c1.1-1.7,2.6-2.6,4.3-2.6c3.1,0,4.6,1.7,4.6,5.4v8.6H625.2z"/>
	<path d="M636.3,759.7c-0.3-0.3-0.9-0.3-1.7-0.3c-0.9,0-1.7,0.6-2.3,1.4c-0.6,0.9-0.9,2-0.9,3.4v6.9h-2.3v-13.4h2.3v2.9l0,0
		c0.6-2,1.7-2.9,3.4-2.9c0.6,0,0.9,0,1.1,0.3v1.7H636.3z"/>
	<path d="M638.3,752.6c0-0.3,0.3-0.9,0.6-1.1c0.3-0.3,0.6-0.6,1.1-0.6s0.9,0,1.1,0.3c0.3,0.3,0.6,0.6,0.6,1.1c0,0.3-0.3,0.9-0.6,1.1
		c-0.3,0.3-0.6,0.3-1.1,0.3s-0.9,0-1.1-0.3C638.6,753.4,638.3,753.2,638.3,752.6z M638.6,770.9v-13.4h2.3v13.4H638.6z"/>
	<path d="M656.9,769.7c0,4.9-2.3,7.4-7.1,7.4c-1.7,0-3.1-0.3-4.3-0.9V774c1.4,0.9,2.9,1.1,4.3,1.1c3.1,0,4.9-1.7,4.9-5.1v-1.4l0,0
		c-1.1,1.7-2.6,2.6-4.6,2.6c-1.7,0-3.1-0.6-4-1.7c-1.1-1.1-1.4-2.9-1.4-4.9c0-2.3,0.6-4,1.7-5.4c1.1-1.4,2.6-2,4.6-2
		c1.7,0,3.1,0.9,4,2l0,0v-1.7h2.3v12.3H656.9z M654.6,762.9c0-1.1-0.3-2-1.1-2.6c-0.6-0.9-1.4-1.1-2.6-1.1c-1.4,0-2.3,0.6-3.1,1.4
		c-0.9,0.9-1.1,2.3-1.1,4c0,1.4,0.3,2.6,1.1,3.4c0.6,0.9,1.7,1.4,2.9,1.4c1.1,0,2-0.3,2.9-1.1s1.1-2,1.1-3.1V762.9z"/>
	<path d="M672,764.6h-9.4c0,1.4,0.6,2.6,1.1,3.4c0.6,0.9,1.7,1.1,3.1,1.1c1.4,0,2.9-0.6,4-1.4v2c-1.1,0.9-2.9,1.1-4.6,1.1
		c-2,0-3.4-0.6-4.6-1.7c-1.1-1.1-1.7-2.9-1.7-5.1c0-2,0.6-3.7,1.7-5.1c1.1-1.4,2.6-2,4.6-2c1.7,0,3.1,0.6,4,1.7
		c0.9,1.1,1.4,2.6,1.4,4.9v1.1H672z M669.7,762.9c0-1.1-0.3-2.3-0.9-2.9c-0.6-0.6-1.4-0.9-2.3-0.9s-1.7,0.3-2.6,1.1
		c-0.6,0.6-1.1,1.7-1.4,2.9h7.1V762.9z"/>
	<path d="M532.6,797.1c0.6,0.6,1.4,0.9,2.3,1.1s2,0.6,2.9,0.6c2.6,0,4-0.9,4-2.9c0-0.6,0-1.1-0.3-1.4c-0.3-0.3-0.6-0.9-1.1-1.1
		c-0.6-0.3-1.4-0.9-2.9-1.4c-2-0.9-3.1-1.7-3.7-2.6s-0.9-1.7-0.9-2.9c0-1.4,0.6-2.9,2-3.7c1.4-0.9,2.9-1.4,4.9-1.4
		c2,0,3.1,0.3,4,0.6v2.6c-1.1-0.9-2.6-1.1-4.3-1.1c-1.1,0-2,0.3-2.9,0.9c-0.9,0.6-1.1,1.1-1.1,2c0,0.9,0.3,1.4,0.9,2
		c0.6,0.6,1.7,1.1,3.1,2c1.7,0.9,3.1,1.7,4,2.6c0.9,0.9,1.1,2,1.1,2.9c0,1.7-0.6,2.9-1.7,3.7c-1.1,0.9-2.9,1.4-4.9,1.4
		c-0.9,0-1.7,0-2.6-0.3c-0.9-0.3-1.7-0.6-2.3-0.9v-2.6H532.6z"/>
	<path d="M553.2,800.6c-0.6,0.3-1.1,0.3-2,0.3c-2.3,0-3.7-1.4-3.7-4v-7.7h-2.3v-2h2.3V784l2.3-0.9v4h3.4v2h-3.4v7.4
		c0,0.9,0.3,1.4,0.6,2c0.3,0.3,0.9,0.6,1.4,0.6s0.9-0.3,1.4-0.6V800.6z"/>
	<path d="M556.3,788c1.4-0.9,2.9-1.1,4.6-1.1c3.1,0,4.9,1.7,4.9,5.1v8.6h-2.3v-2l0,0c-0.9,1.7-2.3,2.3-4,2.3c-1.4,0-2.3-0.3-3.1-1.1
		c-0.9-0.6-1.1-1.7-1.1-2.9c0-2.6,1.4-4,4.6-4.3l4-0.6c0-2.3-0.9-3.4-2.9-3.4c-1.7,0-3.1,0.6-4.3,1.7V788H556.3z M560.3,794.3
		c-1.1,0.3-2,0.3-2.3,0.9c-0.3,0.3-0.6,0.9-0.6,1.7c0,0.6,0.3,1.1,0.6,1.4c0.6,0.3,1.1,0.6,1.7,0.6c1.1,0,2-0.3,2.6-1.1
		s1.1-1.7,1.1-2.9v-1.4L560.3,794.3z"/>
	<path d="M570.1,788c1.4-0.9,2.9-1.1,4.6-1.1c3.1,0,4.9,1.7,4.9,5.1v8.6h-2.3v-2l0,0c-0.9,1.7-2.3,2.3-4,2.3c-1.4,0-2.3-0.3-3.1-1.1
		c-0.9-0.6-1.1-1.7-1.1-2.9c0-2.6,1.4-4,4.6-4.3l4-0.6c0-2.3-0.9-3.4-2.9-3.4c-1.7,0-3.1,0.6-4.3,1.7V788H570.1z M574.1,794.3
		c-1.1,0.3-2,0.3-2.3,0.9c-0.3,0.3-0.6,0.9-0.6,1.7c0,0.6,0.3,1.1,0.6,1.4c0.6,0.3,1.1,0.6,1.7,0.6c1.1,0,2-0.3,2.6-1.1
		c0.6-0.9,1.1-1.7,1.1-2.9v-1.4L574.1,794.3z"/>
	<path d="M590.1,800.6c-0.6,0.3-1.1,0.3-2,0.3c-2.3,0-3.7-1.4-3.7-4v-7.7h-2.3v-2h2.3V784l2.3-0.9v4h3.4v2h-3.4v7.4
		c0,0.9,0.3,1.4,0.6,2c0.3,0.3,0.9,0.6,1.4,0.6s0.9-0.3,1.4-0.6V800.6z"/>
	<path d="M592.1,797.7c1.1,0.9,2.6,1.4,4,1.4c1.7,0,2.9-0.6,2.9-1.7c0-0.6-0.3-0.9-0.6-1.1c-0.3-0.3-1.1-0.9-2.6-1.1
		c-1.4-0.6-2.6-1.1-2.9-1.7c-0.6-0.6-0.6-1.4-0.6-2c0-1.1,0.6-2.3,1.4-2.9c1.1-0.9,2.3-1.1,3.7-1.1c1.1,0,2.3,0.3,3.1,0.6v2.3
		c-1.1-0.6-2.3-0.9-3.4-0.9c-0.9,0-1.4,0.3-2,0.6c-0.6,0.3-0.9,0.9-0.9,1.4c0,0.6,0.3,0.9,0.6,1.1c0.3,0.3,1.1,0.6,2.3,1.1
		c1.4,0.6,2.6,1.1,3.1,1.7c0.6,0.6,0.9,1.4,0.9,2.3c0,1.1-0.6,2.3-1.4,2.9c-1.1,0.6-2.3,1.1-4,1.1c-1.4,0-2.6-0.3-3.7-0.9
		L592.1,797.7L592.1,797.7z"/>
	<path d="M604.6,788c1.4-0.9,2.9-1.1,4.6-1.1c3.1,0,4.9,1.7,4.9,5.1v8.6h-2.3v-2l0,0c-0.9,1.7-2.3,2.3-4,2.3c-1.4,0-2.3-0.3-3.1-1.1
		c-0.9-0.6-1.1-1.7-1.1-2.9c0-2.6,1.4-4,4.6-4.3l4-0.6c0-2.3-0.9-3.4-2.9-3.4c-1.7,0-3.1,0.6-4.3,1.7V788H604.6z M608.6,794.3
		c-1.1,0.3-2,0.3-2.3,0.9c-0.3,0.3-0.6,0.9-0.6,1.7c0,0.6,0.3,1.1,0.6,1.4c0.6,0.3,1.1,0.6,1.7,0.6c1.1,0,2-0.3,2.6-1.1
		s1.1-1.7,1.1-2.9v-1.4L608.6,794.3z"/>
	<path d="M629.5,800.6h-2.3v-7.7c0-2.9-1.1-4-3.1-4c-1.1,0-2,0.3-2.6,1.1c-0.6,0.9-1.1,1.7-1.1,2.9v7.7H618v-13.4h2.3v2.3l0,0
		c1.1-1.7,2.6-2.6,4.3-2.6c1.4,0,2.6,0.6,3.4,1.4c0.9,0.9,1.1,2.3,1.1,4v8.3H629.5z"/>
	<path d="M633.5,800.6v-20h2.3v20H633.5z"/>
	<path d="M650.9,794.6h-9.4c0,1.4,0.6,2.6,1.1,3.4c0.6,0.9,1.7,1.1,3.1,1.1c1.4,0,2.9-0.6,4-1.4v2c-1.1,0.9-2.9,1.1-4.6,1.1
		c-2,0-3.4-0.6-4.6-1.7c-1.1-1.1-1.7-2.9-1.7-5.1c0-2,0.6-3.7,1.7-5.1c1.1-1.4,2.6-2,4.6-2c1.7,0,3.1,0.6,4,1.7
		c0.9,1.1,1.4,2.6,1.4,4.9v1.1H650.9z M648.6,792.6c0-1.1-0.3-2.3-0.9-2.9c-0.6-0.6-1.4-0.9-2.3-0.9s-1.7,0.3-2.6,1.1
		c-0.6,0.6-1.1,1.7-1.4,2.9h7.1V792.6z"/>
	<path d="M653.7,782.6c0-0.3,0.3-0.9,0.6-1.1c0.3-0.3,0.6-0.6,1.1-0.6s0.9,0,1.1,0.3c0.3,0.3,0.6,0.6,0.6,1.1c0,0.3-0.3,0.9-0.6,1.1
		c-0.3,0.3-0.6,0.3-1.1,0.3s-0.9,0-1.1-0.3C654,783.2,653.7,782.9,653.7,782.6z M654,800.6v-13.4h2.3v13.4H654z"/>
	<path d="M672,800.6h-2.3v-7.7c0-2.6-1.1-4-3.1-4c-1.1,0-2,0.3-2.6,1.1s-1.1,1.7-1.1,2.9v7.7h-2.3v-20h2.3v8.6l0,0
		c1.1-1.7,2.6-2.6,4.3-2.6c3.1,0,4.6,1.7,4.6,5.4v8.6H672z"/>
	<path d="M686.9,794.6h-9.4c0,1.4,0.6,2.6,1.1,3.4c0.6,0.9,1.7,1.1,3.1,1.1s2.9-0.6,4-1.4v2c-1.1,0.9-2.9,1.1-4.6,1.1
		c-2,0-3.4-0.6-4.6-1.7c-1.1-1.1-1.7-2.9-1.7-5.1c0-2,0.6-3.7,1.7-5.1c1.1-1.4,2.6-2,4.6-2c1.7,0,3.1,0.6,4,1.7
		c0.9,1.1,1.4,2.6,1.4,4.9v1.1H686.9z M684.6,792.6c0-1.1-0.3-2.3-0.9-2.9c-0.6-0.6-1.4-0.9-2.3-0.9c-0.9,0-1.7,0.3-2.6,1.1
		c-0.6,0.6-1.1,1.7-1.4,2.9h7.1V792.6z"/>
	<path d="M701.4,800.6h-2.3v-7.7c0-2.9-1.1-4-3.1-4c-1.1,0-2,0.3-2.6,1.1s-1.1,1.7-1.1,2.9v7.7H690v-13.4h2.3v2.3l0,0
		c1.1-1.7,2.6-2.6,4.3-2.6c1.4,0,2.6,0.6,3.4,1.4c0.9,0.9,1.1,2.3,1.1,4v8.3H701.4z"/>
</g>
</svg>
