<?xml version="1.0" encoding="utf-8"?>
<!-- Generator: Adobe Illustrator 23.0.0, SVG Export Plug-In . SVG Version: 6.00 Build 0)  -->
<svg version="1.1" id="图层_1" xmlns="http://www.w3.org/2000/svg" xmlns:xlink="http://www.w3.org/1999/xlink" x="0px" y="0px"
	 viewBox="0 0 750 870" style="enable-background:new 0 0 750 870;" xml:space="preserve">
<style type="text/css">
	.st0{enable-background:new    ;}
	.st1{fill:#D6D6D6;}
	.st2{fill:#0E0E0E;}
	.st3{fill:#0EAFA0;}
	.st4{fill:#CDBB78;}
	.st5{fill:#EC632F;}
</style>
<g id="_2.0_" class="st0">
	<path d="M79.2,331.6c0-0.9-0.3-1.6-0.8-2.2c-0.6-0.5-1.4-0.8-2.4-0.8c-0.6,0-1.4,0.2-2,0.5c-0.8,0.3-1.4,0.8-2,1.6v-2
		c0.5-0.6,1.1-0.9,1.9-1.3c0.6-0.3,1.6-0.5,2.5-0.5c1.6,0,2.7,0.5,3.6,1.3s1.4,1.9,1.4,3.3c0,1.3-0.3,2.4-0.8,3.1
		c-0.6,0.9-1.6,1.9-3,2.8s-2.4,1.7-2.8,2c-0.5,0.5-0.8,0.8-0.9,1.3c-0.2,0.3-0.3,0.8-0.3,1.4h8.3v1.9H71.4v-0.8
		c0-0.9,0.2-1.7,0.5-2.5c0.3-0.6,0.6-1.3,1.3-2c0.6-0.6,1.6-1.4,2.8-2.4c1.3-0.9,2.2-1.7,2.7-2.4C79,333.3,79.2,332.5,79.2,331.6z"
		/>
	<path d="M84.4,342.9c0-0.3,0.2-0.8,0.5-0.9c0.3-0.3,0.6-0.5,0.9-0.5c0.5,0,0.8,0.2,0.9,0.5c0.3,0.3,0.5,0.6,0.5,0.9
		s-0.2,0.6-0.5,0.9s-0.6,0.5-0.9,0.5c-0.5,0-0.8-0.2-0.9-0.5C84.4,343.5,84.4,343.2,84.4,342.9z"/>
	<path d="M89.4,336c0-3,0.5-5.2,1.4-6.7c0.9-1.6,2.4-2.4,4.2-2.4c3.6,0,5.3,2.8,5.3,8.6c0,2.8-0.5,5-1.6,6.4
		c-0.9,1.6-2.4,2.2-4.2,2.2c-1.7,0-3-0.8-3.9-2.2C89.9,340.7,89.4,338.7,89.4,336z M91.4,335.8c0,4.4,1.1,6.7,3.4,6.7
		c2.2,0,3.3-2.2,3.3-6.7c0-4.7-1.1-7.1-3.3-7.1C92.7,328.8,91.4,331.1,91.4,335.8z"/>
	<path d="M102.3,331.4c0-1.4,0.3-2.5,1.1-3.3c0.8-0.8,1.7-1.3,3-1.3s2.2,0.3,2.8,1.1c0.6,0.8,0.9,1.7,0.9,3.1c0,1.3-0.3,2.4-1.1,3.1
		c-0.8,0.8-1.7,1.3-3,1.3c-1.1,0-2-0.3-2.8-1.1C102.6,333.8,102.3,332.7,102.3,331.4z M104,331.3c0,0.9,0.2,1.7,0.6,2.2
		c0.5,0.5,0.9,0.8,1.7,0.8s1.3-0.3,1.7-0.8c0.5-0.5,0.6-1.3,0.6-2.2s-0.2-1.7-0.6-2.2c-0.3-0.5-0.9-0.8-1.6-0.8
		c-0.8,0-1.3,0.3-1.7,0.8C104.1,329.7,104,330.3,104,331.3z M117.5,327.2l-10.8,16.9H105l10.8-16.9H117.5z M112.3,340.1
		c0-1.4,0.3-2.5,1.1-3.3s1.7-1.3,3-1.3s2,0.3,2.8,1.1c0.6,0.8,0.9,1.7,0.9,3.1c0,1.3-0.3,2.4-1.1,3.1c-0.8,0.8-1.7,1.3-3,1.3
		c-1.1,0-2-0.3-2.8-1.1C112.6,342.3,112.3,341.3,112.3,340.1z M114,339.9c0,0.9,0.2,1.6,0.6,2.2c0.5,0.5,0.9,0.8,1.7,0.8
		s1.3-0.3,1.7-0.8c0.5-0.5,0.6-1.3,0.6-2.2c0-0.9-0.2-1.7-0.6-2.2c-0.5-0.5-0.9-0.8-1.6-0.8c-0.8,0-1.3,0.3-1.7,0.8
		C114.2,338.3,114,339,114,339.9z"/>
</g>
<g id="_4.0_" class="st0">
	<path d="M80.1,283.9V295h2.5v1.7h-2.5v3.9h-2v-3.9h-7.8V295c1.4-1.6,2.8-3.3,4.2-5.3s2.5-3.9,3.4-5.8L80.1,283.9L80.1,283.9z
		 M72.6,295.1h5.5v-8c-0.8,1.4-1.6,2.7-2.4,3.9C74.8,292.2,73.7,293.5,72.6,295.1z"/>
	<path d="M84.4,299.6c0-0.3,0.2-0.8,0.5-0.9c0.3-0.3,0.6-0.5,0.9-0.5c0.5,0,0.8,0.2,0.9,0.5c0.3,0.3,0.5,0.6,0.5,0.9
		s-0.2,0.6-0.5,0.9s-0.6,0.5-0.9,0.5c-0.5,0-0.8-0.2-0.9-0.5C84.4,300.2,84.4,299.9,84.4,299.6z"/>
	<path d="M89.4,292.7c0-3,0.5-5.2,1.4-6.7c0.9-1.6,2.4-2.4,4.2-2.4c3.6,0,5.3,2.8,5.3,8.6c0,2.8-0.5,5-1.6,6.4
		c-0.9,1.6-2.4,2.2-4.2,2.2c-1.7,0-3-0.8-3.9-2.2C89.9,297.4,89.4,295.4,89.4,292.7z M91.4,292.6c0,4.4,1.1,6.7,3.4,6.7
		c2.2,0,3.3-2.2,3.3-6.7c0-4.7-1.1-7.1-3.3-7.1C92.7,285.5,91.4,287.9,91.4,292.6z"/>
	<path d="M102.3,288.2c0-1.4,0.3-2.5,1.1-3.3c0.8-0.8,1.7-1.3,3-1.3s2.2,0.3,2.8,1.1c0.6,0.8,0.9,1.7,0.9,3.1c0,1.3-0.3,2.4-1.1,3.1
		c-0.8,0.8-1.7,1.3-3,1.3c-1.1,0-2-0.3-2.8-1.1C102.6,290.5,102.3,289.4,102.3,288.2z M104,288c0,0.9,0.2,1.7,0.6,2.2
		c0.5,0.5,0.9,0.8,1.7,0.8s1.3-0.3,1.7-0.8c0.5-0.5,0.6-1.3,0.6-2.2c0-0.9-0.2-1.7-0.6-2.2c-0.3-0.5-0.9-0.8-1.6-0.8
		c-0.8,0-1.3,0.3-1.7,0.8C104.1,286.4,104,287.1,104,288z M117.5,283.9l-10.8,16.9H105l10.8-16.9H117.5z M112.3,296.8
		c0-1.4,0.3-2.5,1.1-3.3s1.7-1.3,3-1.3s2,0.3,2.8,1.1c0.6,0.8,0.9,1.7,0.9,3.1c0,1.3-0.3,2.4-1.1,3.1c-0.8,0.8-1.7,1.3-3,1.3
		c-1.1,0-2-0.3-2.8-1.1C112.6,299,112.3,298,112.3,296.8z M114,296.6c0,0.9,0.2,1.6,0.6,2.2c0.5,0.5,0.9,0.8,1.7,0.8
		s1.3-0.3,1.7-0.8c0.5-0.5,0.6-1.3,0.6-2.2c0-0.9-0.2-1.7-0.6-2.2c-0.5-0.5-0.9-0.8-1.6-0.8c-0.8,0-1.3,0.3-1.7,0.8
		C114.2,295.1,114,295.7,114,296.6z"/>
</g>
<g id="_6.0_" class="st0">
	<path d="M81.1,238.8c-0.9-0.5-1.7-0.6-2.7-0.6c-1.4,0-2.7,0.6-3.4,1.9c-0.9,1.3-1.3,3-1.4,5.2l0,0c0.8-1.6,2-2.4,3.8-2.4
		c1.4,0,2.7,0.5,3.4,1.4c0.8,0.9,1.3,2.2,1.3,3.8s-0.5,3-1.6,4.1c-0.9,1.1-2.2,1.6-3.8,1.6c-1.7,0-3-0.6-4.1-2
		c-0.9-1.3-1.4-3.3-1.4-5.6c0-3,0.6-5.3,1.9-7.1c1.3-1.7,3-2.7,5-2.7c1.3,0,2.2,0.2,2.8,0.5L81.1,238.8L81.1,238.8z M73.6,247.9
		c0,1.1,0.3,2,0.9,2.8s1.4,1.3,2.4,1.3s1.7-0.3,2.2-0.9c0.6-0.6,0.9-1.6,0.9-2.7s-0.3-2-0.8-2.7c-0.5-0.6-1.3-0.9-2.4-0.9
		c-0.9,0-1.7,0.3-2.4,0.9C73.9,246.3,73.6,247.1,73.6,247.9z"/>
	<path d="M84.4,252.3c0-0.3,0.2-0.8,0.5-0.9c0.3-0.3,0.6-0.5,0.9-0.5c0.5,0,0.8,0.2,0.9,0.5c0.3,0.3,0.5,0.6,0.5,0.9
		c0,0.3-0.2,0.6-0.5,0.9c-0.3,0.3-0.6,0.5-0.9,0.5c-0.5,0-0.8-0.2-0.9-0.5C84.4,252.9,84.4,252.6,84.4,252.3z"/>
	<path d="M89.4,245.4c0-3,0.5-5.2,1.4-6.7s2.4-2.4,4.2-2.4c3.6,0,5.3,2.8,5.3,8.6c0,2.8-0.5,5-1.6,6.4c-0.9,1.6-2.4,2.2-4.2,2.2
		c-1.7,0-3-0.8-3.9-2.2C89.9,250.1,89.4,248,89.4,245.4z M91.4,245.2c0,4.4,1.1,6.7,3.4,6.7c2.2,0,3.3-2.2,3.3-6.7
		c0-4.7-1.1-7.1-3.3-7.1C92.7,238.1,91.4,240.5,91.4,245.2z"/>
	<path d="M102.3,240.8c0-1.4,0.3-2.5,1.1-3.3s1.7-1.3,3-1.3s2.2,0.3,2.8,1.1c0.6,0.8,0.9,1.7,0.9,3.1c0,1.3-0.3,2.4-1.1,3.1
		c-0.8,0.8-1.7,1.3-3,1.3c-1.1,0-2-0.3-2.8-1.1C102.6,243.2,102.3,242.1,102.3,240.8z M104,240.8c0,0.9,0.2,1.7,0.6,2.2
		c0.5,0.5,0.9,0.8,1.7,0.8s1.3-0.3,1.7-0.8s0.6-1.3,0.6-2.2s-0.2-1.7-0.6-2.2c-0.3-0.5-0.9-0.8-1.6-0.8c-0.8,0-1.3,0.3-1.7,0.8
		C104.1,239.1,104,239.9,104,240.8z M117.5,236.6l-10.8,16.9H105l10.8-16.9H117.5z M112.3,249.4c0-1.4,0.3-2.5,1.1-3.3
		c0.8-0.8,1.7-1.3,3-1.3s2,0.3,2.8,1.1c0.6,0.8,0.9,1.7,0.9,3.1c0,1.3-0.3,2.4-1.1,3.1c-0.8,0.8-1.7,1.3-3,1.3c-1.1,0-2-0.3-2.8-1.1
		C112.6,251.6,112.3,250.7,112.3,249.4z M114,249.3c0,0.9,0.2,1.6,0.6,2.2c0.5,0.5,0.9,0.8,1.7,0.8s1.3-0.3,1.7-0.8
		c0.5-0.5,0.6-1.3,0.6-2.2s-0.2-1.7-0.6-2.2c-0.5-0.5-0.9-0.8-1.6-0.8c-0.8,0-1.3,0.3-1.7,0.8C114.2,247.7,114,248.3,114,249.3z"/>
</g>
<g id="_8.0_" class="st0">
	<path d="M71,197.4c0-0.9,0.3-1.9,0.9-2.7s1.3-1.4,2.2-1.7c-0.8-0.5-1.3-0.9-1.7-1.6c-0.5-0.6-0.6-1.4-0.6-2c0-0.8,0.2-1.6,0.6-2.2
		c0.5-0.6,0.9-1.1,1.7-1.6c0.8-0.3,1.6-0.6,2.4-0.6c0.9,0,1.7,0.2,2.4,0.6c0.8,0.3,1.3,0.9,1.7,1.6c0.5,0.6,0.6,1.4,0.6,2.2
		s-0.2,1.4-0.6,2c-0.5,0.6-0.9,1.3-1.7,1.6c0.9,0.3,1.7,0.9,2.2,1.7c0.6,0.8,0.8,1.7,0.8,2.7c0,0.9-0.2,1.9-0.6,2.5
		c-0.5,0.8-1.1,1.4-1.9,1.7c-0.8,0.5-1.7,0.6-2.8,0.6c-1.1,0-2-0.2-2.8-0.6s-1.4-0.9-1.9-1.7C71.4,199.1,71,198.3,71,197.4z
		 M73.2,197.2c0,0.9,0.3,1.7,0.9,2.4s1.4,0.9,2.5,0.9c0.9,0,1.9-0.3,2.5-0.9s0.9-1.4,0.9-2.4c0-0.9-0.3-1.7-0.9-2.4
		c-0.6-0.6-1.4-0.9-2.4-0.9s-1.7,0.3-2.4,0.9C73.6,195.5,73.2,196.3,73.2,197.2z M73.7,189.4c0,0.8,0.3,1.4,0.8,1.9s1.3,0.8,1.9,0.8
		c0.8,0,1.4-0.3,2-0.8s0.8-1.3,0.8-1.9c0-0.8-0.3-1.4-0.8-1.9s-1.3-0.8-2-0.8s-1.4,0.3-2,0.8C74,188,73.7,188.7,73.7,189.4z"/>
	<path d="M84.4,201c0-0.3,0.2-0.8,0.5-0.9c0.3-0.3,0.6-0.5,0.9-0.5c0.5,0,0.8,0.2,0.9,0.5c0.3,0.3,0.5,0.6,0.5,0.9
		c0,0.3-0.2,0.6-0.5,0.9c-0.3,0.3-0.6,0.5-0.9,0.5c-0.5,0-0.8-0.2-0.9-0.5C84.4,201.6,84.4,201.3,84.4,201z"/>
	<path d="M89.4,193.9c0-3,0.5-5.2,1.4-6.7s2.4-2.4,4.2-2.4c3.6,0,5.3,2.8,5.3,8.6c0,2.8-0.5,5-1.6,6.4c-0.9,1.6-2.4,2.2-4.2,2.2
		c-1.7,0-3-0.8-3.9-2.2C89.9,198.8,89.4,196.7,89.4,193.9z M91.4,193.9c0,4.4,1.1,6.7,3.4,6.7c2.2,0,3.3-2.2,3.3-6.7
		c0-4.7-1.1-7.1-3.3-7.1C92.7,186.7,91.4,189.1,91.4,193.9z"/>
	<path d="M102.3,189.5c0-1.4,0.3-2.5,1.1-3.3c0.8-0.8,1.7-1.3,3-1.3s2.2,0.3,2.8,1.1c0.6,0.8,0.9,1.7,0.9,3.1c0,1.3-0.3,2.4-1.1,3.1
		c-0.8,0.8-1.7,1.3-3,1.3c-1.1,0-2-0.3-2.8-1.1C102.6,191.7,102.3,190.8,102.3,189.5z M104,189.4c0,0.9,0.2,1.7,0.6,2.2
		c0.5,0.5,0.9,0.8,1.7,0.8s1.3-0.3,1.7-0.8s0.6-1.3,0.6-2.2s-0.2-1.7-0.6-2.2c-0.3-0.5-0.9-0.8-1.6-0.8c-0.8,0-1.3,0.3-1.7,0.8
		C104.1,187.6,104,188.4,104,189.4z M117.5,185.3l-10.8,16.8H105l10.8-16.9L117.5,185.3L117.5,185.3z M112.3,198.2
		c0-1.4,0.3-2.5,1.1-3.3s1.7-1.3,3-1.3s2,0.3,2.8,1.1c0.6,0.8,0.9,1.7,0.9,3.1c0,1.3-0.3,2.4-1.1,3.1c-0.8,0.8-1.7,1.3-3,1.3
		c-1.1,0-2-0.3-2.8-1.1C112.6,200.3,112.3,199.4,112.3,198.2z M114,198c0,0.9,0.2,1.6,0.6,2.2c0.5,0.5,0.9,0.8,1.7,0.8
		s1.3-0.3,1.7-0.8c0.5-0.5,0.6-1.3,0.6-2.2s-0.2-1.7-0.6-2.2c-0.5-0.5-0.9-0.8-1.6-0.8c-0.8,0-1.3,0.3-1.7,0.8
		C114.2,196.3,114,197.1,114,198z"/>
</g>
<g id="_10.0_" class="st0">
	<path d="M64.6,150.6v-14.3c-0.3,0.3-0.9,0.6-1.7,1.1s-1.6,0.6-2.2,0.9v-2.2c0.9-0.3,1.9-0.6,2.8-1.1s1.7-1.1,2.4-1.6h0.8v17.1h-2.1
		V150.6z"/>
	<path d="M72.5,142.6c0-3,0.5-5.2,1.4-6.7c0.9-1.6,2.4-2.4,4.2-2.4c3.6,0,5.3,2.8,5.3,8.6c0,2.8-0.5,5-1.6,6.4
		c-0.9,1.6-2.4,2.2-4.2,2.2c-1.7,0-3-0.8-3.9-2.2C72.9,147.3,72.5,145.3,72.5,142.6z M74.7,142.5c0,4.4,1.1,6.7,3.4,6.7
		c2.2,0,3.3-2.2,3.3-6.7c0-4.7-1.1-7.1-3.3-7.1C75.8,135.4,74.7,137.8,74.7,142.5z"/>
	<path d="M85.8,149.5c0-0.3,0.2-0.8,0.5-0.9c0.3-0.3,0.6-0.5,0.9-0.5c0.5,0,0.8,0.2,0.9,0.5c0.3,0.3,0.5,0.6,0.5,0.9
		c0,0.3-0.2,0.6-0.5,0.9c-0.3,0.3-0.6,0.5-0.9,0.5c-0.5,0-0.8-0.2-0.9-0.5C85.9,150.3,85.8,150,85.8,149.5z"/>
	<path d="M90.8,142.6c0-3,0.5-5.2,1.4-6.7s2.4-2.4,4.2-2.4c3.6,0,5.3,2.8,5.3,8.6c0,2.8-0.5,5-1.6,6.4c-0.9,1.6-2.4,2.2-4.2,2.2
		c-1.7,0-3-0.8-3.9-2.2C91.3,147.3,90.8,145.3,90.8,142.6z M93,142.5c0,4.4,1.1,6.7,3.4,6.7c2.2,0,3.3-2.2,3.3-6.7
		c0-4.7-1.1-7.1-3.3-7.1C94.1,135.4,93,137.8,93,142.5z"/>
	<path d="M103.8,138.1c0-1.4,0.3-2.5,1.1-3.3c0.8-0.8,1.7-1.3,3-1.3s2.2,0.3,2.8,1.1c0.6,0.8,0.9,1.7,0.9,3.1c0,1.3-0.3,2.4-1.1,3.1
		c-0.8,0.8-1.7,1.3-3,1.3c-1.1,0-2-0.3-2.8-1.1C104.1,140.4,103.8,139.3,103.8,138.1z M105.4,138.1c0,0.9,0.2,1.7,0.6,2.2
		c0.5,0.5,0.9,0.8,1.7,0.8s1.3-0.3,1.7-0.8c0.5-0.5,0.6-1.3,0.6-2.2s-0.2-1.7-0.6-2.2c-0.3-0.5-0.9-0.8-1.6-0.8
		c-0.8,0-1.3,0.3-1.7,0.8C105.7,136.4,105.4,137.2,105.4,138.1z M118.9,133.9l-10.8,16.9h-1.9l10.8-16.9H118.9z M113.9,146.7
		c0-1.4,0.3-2.5,1.1-3.3c0.8-0.8,1.7-1.3,3-1.3s2,0.3,2.8,1.1c0.6,0.8,0.9,1.7,0.9,3.1c0,1.3-0.3,2.4-1.1,3.1
		c-0.8,0.8-1.7,1.3-3,1.3c-1.1,0-2-0.3-2.8-1.1C114.2,149.1,113.9,148,113.9,146.7z M115.4,146.7c0,0.9,0.2,1.6,0.6,2.2
		c0.5,0.5,0.9,0.8,1.7,0.8s1.3-0.3,1.7-0.8s0.6-1.3,0.6-2.2s-0.2-1.7-0.6-2.2c-0.5-0.5-0.9-0.8-1.6-0.8c-0.8,0-1.3,0.3-1.7,0.8
		C115.6,145,115.4,145.8,115.4,146.7z"/>
</g>
<g id="_12.0_" class="st0">
	<path d="M64.6,102.3V88.1c-0.3,0.3-0.9,0.6-1.7,1.1s-1.6,0.6-2.2,0.9v-2c0.9-0.3,1.9-0.6,2.8-1.1s1.7-1.1,2.4-1.6h0.8v17.1
		L64.6,102.3L64.6,102.3z"/>
	<path d="M80.8,90c0-0.9-0.3-1.6-0.8-2.2c-0.6-0.5-1.4-0.8-2.4-0.8c-0.6,0-1.4,0.2-2,0.5c-0.8,0.3-1.4,0.8-2,1.6v-2
		c0.5-0.6,1.1-0.9,1.9-1.3c0.6-0.3,1.6-0.5,2.5-0.5c1.6,0,2.7,0.5,3.6,1.3s1.4,1.9,1.4,3.3c0,1.3-0.3,2.4-0.8,3.1
		c-0.6,0.9-1.6,1.9-3,2.8s-2.4,1.7-2.8,2c-0.5,0.5-0.8,0.8-0.9,1.3c-0.2,0.3-0.3,0.8-0.3,1.4h8.3v1.9H72.8v-0.8
		c0-0.9,0.2-1.7,0.5-2.5c0.3-0.6,0.6-1.3,1.3-2c0.6-0.6,1.6-1.4,2.8-2.4c1.3-0.9,2.2-1.7,2.7-2.4C80.5,91.7,80.8,90.9,80.8,90z"/>
	<path d="M85.8,101.2c0-0.3,0.2-0.8,0.5-0.9c0.3-0.3,0.6-0.5,0.9-0.5c0.5,0,0.8,0.2,0.9,0.5c0.3,0.3,0.5,0.6,0.5,0.9
		s-0.2,0.6-0.5,0.9s-0.6,0.5-0.9,0.5c-0.5,0-0.8-0.2-0.9-0.5C85.9,101.9,85.8,101.6,85.8,101.2z"/>
	<path d="M90.8,94.3c0-3,0.5-5.2,1.4-6.7s2.4-2.4,4.2-2.4c3.6,0,5.3,2.8,5.3,8.6c0,2.8-0.5,5-1.6,6.4c-0.9,1.6-2.4,2.2-4.2,2.2
		c-1.7,0-3-0.8-3.9-2.2C91.3,99,90.8,97,90.8,94.3z M93,94.2c0,4.4,1.1,6.7,3.4,6.7c2.2,0,3.3-2.2,3.3-6.7c0-4.7-1.1-7.1-3.3-7.1
		C94.1,87.1,93,89.5,93,94.2z"/>
	<path d="M103.8,89.8c0-1.4,0.3-2.5,1.1-3.3s1.7-1.3,3-1.3s2.2,0.3,2.8,1.1c0.6,0.8,0.9,1.7,0.9,3.1c0,1.3-0.3,2.4-1.1,3.1
		s-1.7,1.3-3,1.3c-1.1,0-2-0.3-2.8-1.1C104.1,92.1,103.8,91,103.8,89.8z M105.4,89.8c0,0.9,0.2,1.7,0.6,2.2c0.5,0.5,0.9,0.8,1.7,0.8
		s1.3-0.3,1.7-0.8s0.6-1.3,0.6-2.2c0-0.9-0.2-1.7-0.6-2.2c-0.3-0.5-0.9-0.8-1.6-0.8c-0.8,0-1.3,0.3-1.7,0.8
		C105.7,88.1,105.4,88.7,105.4,89.8z M118.9,85.6l-10.8,16.9h-1.9L117,85.6H118.9z M113.9,98.4c0-1.4,0.3-2.5,1.1-3.3s1.7-1.3,3-1.3
		s2,0.3,2.8,1.1c0.6,0.8,0.9,1.7,0.9,3.1c0,1.3-0.3,2.4-1.1,3.1s-1.7,1.3-3,1.3c-1.1,0-2-0.3-2.8-1.1
		C114.2,100.6,113.9,99.7,113.9,98.4z M115.4,98.3c0,0.9,0.2,1.6,0.6,2.2c0.5,0.5,0.9,0.8,1.7,0.8s1.3-0.3,1.7-0.8s0.6-1.3,0.6-2.2
		c0-0.9-0.2-1.7-0.6-2.2c-0.5-0.5-0.9-0.8-1.6-0.8c-0.8,0-1.3,0.3-1.7,0.8C115.6,96.7,115.4,97.3,115.4,98.3z"/>
</g>
<g id="线">
	<rect id="矩形_863_拷贝_2" x="132" y="342.9" class="st1" width="213.4" height="2"/>
	<rect id="矩形_863_拷贝_3" x="132" y="291.5" class="st1" width="213.4" height="2"/>
	<rect id="矩形_863_拷贝_4" x="132" y="240.2" class="st1" width="213.4" height="2"/>
	<rect id="矩形_863_拷贝_5" x="132" y="189.8" class="st1" width="213.4" height="2"/>
	<rect id="矩形_863_拷贝_5-2" x="132" y="138.6" class="st1" width="213.4" height="2"/>
	<rect id="矩形_863_拷贝_5-3" x="132" y="87.1" class="st1" width="213.4" height="2"/>
	<rect id="矩形_863" x="132" y="84.2" class="st2" width="2" height="314.1"/>
</g>
<rect id="矩形_864" x="163.3" y="138.6" class="st3" width="46.3" height="257.8"/>
<rect id="矩形_864_拷贝" x="209.5" y="240.2" class="st4" width="46.3" height="156"/>
<rect id="矩形_864_拷贝_2" x="255.8" y="326.7" class="st5" width="46.3" height="69.5"/>
<rect id="矩形_863_拷贝" x="132" y="396.2" class="st2" width="213.4" height="2"/>
<g id="_2">
	<g id="_2.0_2" class="st0">
		<path d="M389.7,332c0-0.9-0.3-1.6-0.8-2.2c-0.6-0.5-1.4-0.8-2.3-0.8c-0.6,0-1.4,0.2-2,0.5c-0.8,0.3-1.4,0.8-2,1.6v-2
			c0.5-0.6,1.1-0.9,1.9-1.3c0.6-0.3,1.6-0.5,2.5-0.5c1.6,0,2.7,0.5,3.6,1.3s1.4,1.9,1.4,3.3c0,1.3-0.3,2.3-0.8,3.1
			c-0.6,0.9-1.6,1.9-3,2.8s-2.3,1.7-2.8,2c-0.5,0.5-0.8,0.8-0.9,1.3c-0.2,0.3-0.3,0.8-0.3,1.4h8.3v1.9H382v-0.8
			c0-0.9,0.2-1.7,0.5-2.5c0.3-0.6,0.6-1.3,1.3-2c0.6-0.6,1.6-1.4,2.8-2.3c1.3-0.9,2.2-1.7,2.7-2.3
			C389.6,333.7,389.7,332.9,389.7,332z"/>
		<path d="M394.9,343.2c0-0.3,0.2-0.8,0.5-0.9c0.3-0.3,0.6-0.5,0.9-0.5c0.5,0,0.8,0.2,0.9,0.5c0.3,0.3,0.5,0.6,0.5,0.9
			s-0.2,0.6-0.5,0.9s-0.6,0.5-0.9,0.5c-0.5,0-0.8-0.2-0.9-0.5C395.1,343.9,394.9,343.5,394.9,343.2z"/>
		<path d="M399.9,336.3c0-3,0.5-5.2,1.4-6.7c0.9-1.6,2.3-2.3,4.2-2.3c3.6,0,5.3,2.8,5.3,8.6c0,2.8-0.5,5-1.6,6.4
			c-0.9,1.6-2.3,2.2-4.2,2.2c-1.7,0-3-0.8-3.9-2.2C400.4,341,399.9,339,399.9,336.3z M402,336.2c0,4.4,1.1,6.7,3.4,6.7
			c2.2,0,3.3-2.2,3.3-6.7c0-4.7-1.1-7-3.3-7C403.2,329.1,402,331.5,402,336.2z"/>
		<path d="M412.8,331.8c0-1.4,0.3-2.5,1.1-3.3c0.8-0.8,1.7-1.3,3-1.3s2.2,0.3,2.8,1.1s0.9,1.7,0.9,3.1c0,1.3-0.3,2.3-1.1,3.1
			c-0.8,0.8-1.7,1.3-3,1.3c-1.1,0-2-0.3-2.8-1.1C413.2,334.1,412.8,333,412.8,331.8z M414.5,331.6c0,0.9,0.2,1.7,0.6,2.2
			c0.5,0.5,0.9,0.8,1.7,0.8c0.8,0,1.3-0.3,1.7-0.8s0.6-1.3,0.6-2.2c0-0.9-0.2-1.7-0.6-2.2c-0.3-0.5-0.9-0.8-1.6-0.8
			c-0.8,0-1.3,0.3-1.7,0.8C414.6,330.1,414.5,330.7,414.5,331.6z M428,327.6l-10.8,16.9h-1.9l10.8-16.9H428z M422.8,340.4
			c0-1.4,0.3-2.5,1.1-3.3c0.8-0.8,1.7-1.3,3-1.3s2,0.3,2.8,1.1c0.6,0.8,0.9,1.7,0.9,3.1c0,1.3-0.3,2.3-1.1,3.1
			c-0.8,0.8-1.7,1.3-3,1.3c-1.1,0-2-0.3-2.8-1.1C423.3,342.6,422.8,341.7,422.8,340.4z M424.5,340.3c0,0.9,0.2,1.6,0.6,2.2
			c0.5,0.5,0.9,0.8,1.7,0.8c0.8,0,1.3-0.3,1.7-0.8s0.6-1.3,0.6-2.2c0-0.9-0.2-1.7-0.6-2.2c-0.5-0.5-0.9-0.8-1.6-0.8
			c-0.8,0-1.3,0.3-1.7,0.8C424.7,338.7,424.5,339.3,424.5,340.3z"/>
	</g>
	<g id="_4.0_2" class="st0">
		<path d="M390.7,284.3v11.1h2.5v1.7h-2.5v3.9h-2v-3.9h-7.8v-1.7c1.4-1.6,2.8-3.3,4.2-5.3c1.4-2,2.5-3.9,3.4-5.8L390.7,284.3
			L390.7,284.3z M383.2,295.5h5.5v-8c-0.8,1.4-1.6,2.7-2.3,3.9C385.4,292.6,384.3,293.9,383.2,295.5z"/>
		<path d="M394.9,300c0-0.3,0.2-0.8,0.5-0.9c0.3-0.3,0.6-0.5,0.9-0.5c0.5,0,0.8,0.2,0.9,0.5c0.3,0.3,0.5,0.6,0.5,0.9
			s-0.2,0.6-0.5,0.9s-0.6,0.5-0.9,0.5c-0.5,0-0.8-0.2-0.9-0.5C395.1,300.6,394.9,300.3,394.9,300z"/>
		<path d="M399.9,293.1c0-3,0.5-5.2,1.4-6.7c0.9-1.6,2.3-2.3,4.2-2.3c3.6,0,5.3,2.8,5.3,8.6c0,2.8-0.5,5-1.6,6.4
			c-0.9,1.6-2.3,2.2-4.2,2.2c-1.7,0-3-0.8-3.9-2.2C400.4,297.8,399.9,295.8,399.9,293.1z M402,293c0,4.4,1.1,6.7,3.4,6.7
			c2.2,0,3.3-2.2,3.3-6.7c0-4.7-1.1-7-3.3-7C403.2,285.9,402,288.3,402,293z"/>
		<path d="M412.8,288.6c0-1.4,0.3-2.5,1.1-3.3c0.8-0.8,1.7-1.3,3-1.3s2.2,0.3,2.8,1.1c0.6,0.8,0.9,1.7,0.9,3.1
			c0,1.3-0.3,2.3-1.1,3.1c-0.8,0.8-1.7,1.3-3,1.3c-1.1,0-2-0.3-2.8-1.1C413.2,290.9,412.8,289.8,412.8,288.6z M414.5,288.4
			c0,0.9,0.2,1.7,0.6,2.2c0.5,0.5,0.9,0.8,1.7,0.8c0.8,0,1.3-0.3,1.7-0.8s0.6-1.3,0.6-2.2c0-0.9-0.2-1.7-0.6-2.2
			c-0.3-0.5-0.9-0.8-1.6-0.8c-0.8,0-1.3,0.3-1.7,0.8C414.6,286.8,414.5,287.5,414.5,288.4z M428,284.3l-10.8,16.9h-1.9l10.8-16.9
			H428z M422.8,297.2c0-1.4,0.3-2.5,1.1-3.3c0.8-0.8,1.7-1.3,3-1.3s2,0.3,2.8,1.1c0.6,0.8,0.9,1.7,0.9,3.1c0,1.3-0.3,2.3-1.1,3.1
			c-0.8,0.8-1.7,1.3-3,1.3c-1.1,0-2-0.3-2.8-1.1C423.3,299.4,422.8,298.4,422.8,297.2z M424.5,297c0,0.9,0.2,1.6,0.6,2.2
			c0.5,0.5,0.9,0.8,1.7,0.8c0.8,0,1.3-0.3,1.7-0.8s0.6-1.3,0.6-2.2c0-0.9-0.2-1.7-0.6-2.2c-0.5-0.5-0.9-0.8-1.6-0.8
			c-0.8,0-1.3,0.3-1.7,0.8C424.7,295.5,424.5,296.1,424.5,297z"/>
	</g>
	<g id="_6.0_2" class="st0">
		<path d="M391.6,239.2c-0.9-0.5-1.7-0.6-2.7-0.6c-1.4,0-2.7,0.6-3.4,1.9c-0.9,1.3-1.3,3-1.4,5.2l0,0c0.8-1.6,2-2.3,3.8-2.3
			c1.4,0,2.7,0.5,3.4,1.4c0.8,0.9,1.3,2.2,1.3,3.8s-0.5,3-1.6,4.1c-0.9,1.1-2.2,1.6-3.8,1.6c-1.7,0-3-0.6-4.1-2
			c-0.9-1.3-1.4-3.3-1.4-5.6c0-3,0.6-5.3,1.9-7s3-2.7,5-2.7c1.3,0,2.2,0.2,2.8,0.5L391.6,239.2L391.6,239.2z M384.1,248.3
			c0,1.1,0.3,2,0.9,2.8s1.4,1.3,2.3,1.3s1.7-0.3,2.2-0.9c0.6-0.6,0.9-1.6,0.9-2.7s-0.3-2-0.8-2.7c-0.5-0.6-1.3-0.9-2.3-0.9
			c-0.9,0-1.7,0.3-2.3,0.9C384.4,246.8,384.1,247.5,384.1,248.3z"/>
		<path d="M394.9,252.7c0-0.3,0.2-0.8,0.5-0.9c0.3-0.3,0.6-0.5,0.9-0.5c0.5,0,0.8,0.2,0.9,0.5c0.3,0.3,0.5,0.6,0.5,0.9
			s-0.2,0.6-0.5,0.9c-0.3,0.3-0.6,0.5-0.9,0.5c-0.5,0-0.8-0.2-0.9-0.5C395.1,253.3,394.9,253,394.9,252.7z"/>
		<path d="M399.9,245.8c0-3,0.5-5.2,1.4-6.7c0.9-1.6,2.3-2.3,4.2-2.3c3.6,0,5.3,2.8,5.3,8.6c0,2.8-0.5,5-1.6,6.4
			c-0.9,1.6-2.3,2.2-4.2,2.2c-1.7,0-3-0.8-3.9-2.2C400.4,250.5,399.9,248.5,399.9,245.8z M402,245.7c0,4.4,1.1,6.7,3.4,6.7
			c2.2,0,3.3-2.2,3.3-6.7c0-4.7-1.1-7-3.3-7C403.2,238.6,402,241,402,245.7z"/>
		<path d="M412.8,241.3c0-1.4,0.3-2.5,1.1-3.3c0.8-0.8,1.7-1.3,3-1.3s2.2,0.3,2.8,1.1s0.9,1.7,0.9,3.1c0,1.3-0.3,2.3-1.1,3.1
			c-0.8,0.8-1.7,1.3-3,1.3c-1.1,0-2-0.3-2.8-1.1C413.2,243.6,412.8,242.5,412.8,241.3z M414.5,241.3c0,0.9,0.2,1.7,0.6,2.2
			c0.5,0.5,0.9,0.8,1.7,0.8c0.8,0,1.3-0.3,1.7-0.8c0.5-0.5,0.6-1.3,0.6-2.2s-0.2-1.7-0.6-2.2c-0.3-0.5-0.9-0.8-1.6-0.8
			c-0.8,0-1.3,0.3-1.7,0.8C414.6,239.5,414.5,240.3,414.5,241.3z M428,237l-10.8,17h-1.9l10.8-16.9h1.9V237z M422.8,249.9
			c0-1.4,0.3-2.5,1.1-3.3c0.8-0.8,1.7-1.3,3-1.3s2,0.3,2.8,1.1c0.6,0.8,0.9,1.7,0.9,3.1c0,1.3-0.3,2.3-1.1,3.1
			c-0.8,0.8-1.7,1.3-3,1.3c-1.1,0-2-0.3-2.8-1.1C423.3,252.1,422.8,251.1,422.8,249.9z M424.5,249.7c0,0.9,0.2,1.6,0.6,2.2
			c0.5,0.5,0.9,0.8,1.7,0.8c0.8,0,1.3-0.3,1.7-0.8c0.5-0.5,0.6-1.3,0.6-2.2s-0.2-1.7-0.6-2.2c-0.5-0.5-0.9-0.8-1.6-0.8
			c-0.8,0-1.3,0.3-1.7,0.8C424.7,248.2,424.5,248.8,424.5,249.7z"/>
	</g>
	<g id="_8.0_2" class="st0">
		<path d="M381.6,197.9c0-0.9,0.3-1.9,0.9-2.7s1.3-1.4,2.2-1.7c-0.8-0.5-1.3-0.9-1.7-1.6c-0.5-0.6-0.6-1.4-0.6-2
			c0-0.8,0.2-1.6,0.6-2.2c0.5-0.6,0.9-1.1,1.7-1.6c0.8-0.5,1.6-0.6,2.3-0.6c0.9,0,1.7,0.2,2.3,0.6c0.8,0.3,1.3,0.9,1.7,1.6
			s0.6,1.4,0.6,2.2s-0.2,1.4-0.6,2c-0.5,0.6-0.9,1.3-1.7,1.6c0.9,0.3,1.7,0.9,2.2,1.7c0.6,0.8,0.8,1.7,0.8,2.7
			c0,0.9-0.2,1.9-0.6,2.5c-0.5,0.8-1.1,1.4-1.9,1.7c-0.8,0.5-1.7,0.6-2.8,0.6s-2-0.2-2.8-0.6c-0.8-0.5-1.4-0.9-1.9-1.7
			S381.6,198.8,381.6,197.9z M383.8,197.7c0,0.9,0.3,1.7,0.9,2.3s1.4,0.9,2.5,0.9c0.9,0,1.9-0.3,2.5-0.9c0.6-0.6,0.9-1.4,0.9-2.3
			s-0.3-1.7-0.9-2.3s-1.4-0.9-2.3-0.9s-1.7,0.3-2.3,0.9C384.1,196,383.8,196.8,383.8,197.7z M384.4,189.9c0,0.8,0.3,1.4,0.8,1.9
			s1.3,0.8,1.9,0.8c0.8,0,1.4-0.3,2-0.8s0.8-1.3,0.8-1.9c0-0.8-0.3-1.4-0.8-1.9s-1.3-0.8-2-0.8c-0.8,0-1.4,0.3-2,0.8
			C384.6,188.5,384.4,189.3,384.4,189.9z"/>
		<path d="M394.9,201.5c0-0.3,0.2-0.8,0.5-0.9c0.3-0.3,0.6-0.5,0.9-0.5c0.5,0,0.8,0.2,0.9,0.5c0.3,0.3,0.5,0.6,0.5,0.9
			s-0.2,0.6-0.5,0.9c-0.3,0.3-0.6,0.5-0.9,0.5c-0.5,0-0.8-0.2-0.9-0.5C395.1,202.1,394.9,201.8,394.9,201.5z"/>
		<path d="M399.9,194.4c0-3,0.5-5.2,1.4-6.7c0.9-1.6,2.3-2.3,4.2-2.3c3.6,0,5.3,2.8,5.3,8.6c0,2.8-0.5,5-1.6,6.4
			c-0.9,1.6-2.3,2.2-4.2,2.2c-1.7,0-3-0.8-3.9-2.2C400.4,199.3,399.9,197.3,399.9,194.4z M402,194.4c0,4.4,1.1,6.7,3.4,6.7
			c2.2,0,3.3-2.2,3.3-6.7c0-4.7-1.1-7-3.3-7C403.2,187.2,402,189.6,402,194.4z"/>
		<path d="M412.8,190.1c0-1.4,0.3-2.5,1.1-3.3c0.8-0.8,1.7-1.3,3-1.3s2.2,0.3,2.8,1.1s0.9,1.7,0.9,3.1c0,1.3-0.3,2.3-1.1,3.1
			c-0.8,0.8-1.7,1.3-3,1.3c-1.1,0-2-0.3-2.8-1.1C412.9,192.3,412.8,191.3,412.8,190.1z M414.5,189.9c0,0.9,0.2,1.7,0.6,2.2
			c0.5,0.5,0.9,0.8,1.7,0.8c0.8,0,1.3-0.3,1.7-0.8s0.6-1.3,0.6-2.2s-0.2-1.7-0.6-2.2c-0.3-0.5-0.9-0.8-1.6-0.8
			c-0.8,0-1.3,0.3-1.7,0.8C414.6,188.2,414.5,189,414.5,189.9z M428,185.8l-10.8,16.9h-1.9l10.8-16.9H428z M422.8,198.7
			c0-1.4,0.3-2.5,1.1-3.3c0.8-0.8,1.7-1.3,3-1.3s2,0.3,2.8,1.1c0.6,0.8,0.9,1.7,0.9,3.1c0,1.3-0.3,2.3-1.1,3.1
			c-0.8,0.8-1.7,1.3-3,1.3c-1.1,0-2-0.3-2.8-1.1C423.3,200.9,422.8,199.9,422.8,198.7z M424.5,198.5c0,0.9,0.2,1.6,0.6,2.2
			c0.5,0.5,0.9,0.8,1.7,0.8c0.8,0,1.3-0.3,1.7-0.8s0.6-1.3,0.6-2.2s-0.2-1.7-0.6-2.2c-0.5-0.5-0.9-0.8-1.6-0.8
			c-0.8,0-1.3,0.3-1.7,0.8C424.7,196.8,424.5,197.6,424.5,198.5z"/>
	</g>
	<g id="_10.0_2" class="st0">
		<path d="M375.2,151.2V137c-0.3,0.3-0.9,0.6-1.7,1.1c-0.8,0.5-1.6,0.6-2.2,0.9v-2.2c0.9-0.3,1.9-0.6,2.8-1.1s1.7-1.1,2.3-1.6h0.8
			v17.1H375.2z"/>
		<path d="M383,143.2c0-3,0.5-5.2,1.4-6.7c0.9-1.6,2.3-2.3,4.2-2.3c3.6,0,5.3,2.8,5.3,8.6c0,2.8-0.5,5-1.6,6.4
			c-0.9,1.6-2.3,2.2-4.2,2.2c-1.7,0-3-0.8-3.9-2.2C383.5,147.9,383,145.9,383,143.2z M385.2,143.1c0,4.4,1.1,6.7,3.4,6.7
			c2.2,0,3.3-2.2,3.3-6.7c0-4.7-1.1-7-3.3-7C386.3,136,385.2,138.4,385.2,143.1z"/>
		<path d="M396.3,150.1c0-0.3,0.2-0.8,0.5-0.9c0.3-0.3,0.6-0.5,0.9-0.5c0.5,0,0.8,0.2,0.9,0.5c0.3,0.3,0.5,0.6,0.5,0.9
			s-0.2,0.6-0.5,0.9c-0.3,0.3-0.6,0.5-0.9,0.5c-0.5,0-0.8-0.2-0.9-0.5C396.5,150.9,396.3,150.6,396.3,150.1z"/>
		<path d="M401.3,143.2c0-3,0.5-5.2,1.4-6.7c0.9-1.6,2.3-2.3,4.2-2.3c3.6,0,5.3,2.8,5.3,8.6c0,2.8-0.5,5-1.6,6.4
			c-0.9,1.6-2.3,2.2-4.2,2.2c-1.7,0-3-0.8-3.9-2.2C401.7,147.8,401.3,145.9,401.3,143.2z M403.5,143.1c0,4.4,1.1,6.7,3.4,6.7
			c2.2,0,3.3-2.2,3.3-6.7c0-4.7-1.1-7-3.3-7C404.6,136,403.5,138.4,403.5,143.1z"/>
		<path d="M414.3,138.7c0-1.4,0.3-2.5,1.1-3.3c0.8-0.8,1.7-1.3,3-1.3s2.2,0.3,2.8,1.1s0.9,1.7,0.9,3.1c0,1.3-0.3,2.3-1.1,3.1
			s-1.7,1.3-3,1.3c-1.1,0-2-0.3-2.8-1.1C414.6,141,414.3,139.9,414.3,138.7z M415.9,138.7c0,0.9,0.2,1.7,0.6,2.2
			c0.5,0.5,0.9,0.8,1.7,0.8c0.8,0,1.3-0.3,1.7-0.8c0.5-0.5,0.6-1.3,0.6-2.2s-0.2-1.7-0.6-2.2c-0.3-0.5-0.9-0.8-1.6-0.8
			c-0.8,0-1.3,0.3-1.7,0.8C416.2,137,415.9,137.8,415.9,138.7z M429.4,134.5l-10.8,16.9h-1.7l10.8-16.9
			C427.6,134.5,429.4,134.5,429.4,134.5z M424.4,147.3c0-1.4,0.3-2.5,1.1-3.3c0.8-0.8,1.7-1.3,3-1.3s2,0.3,2.8,1.1
			c0.6,0.8,0.9,1.7,0.9,3.1c0,1.3-0.3,2.3-1.1,3.1c-0.8,0.8-1.7,1.3-3,1.3c-1.1,0-2-0.3-2.8-1.1
			C424.7,149.7,424.4,148.6,424.4,147.3z M425.9,147.3c0,0.9,0.2,1.6,0.6,2.2c0.5,0.5,0.9,0.8,1.7,0.8c0.8,0,1.3-0.3,1.7-0.8
			c0.5-0.5,0.6-1.3,0.6-2.2s-0.2-1.7-0.6-2.2c-0.5-0.5-0.9-0.8-1.6-0.8c-0.8,0-1.3,0.3-1.7,0.8C426.1,145.6,425.9,146.4,425.9,147.3
			z"/>
	</g>
	<g id="_12.0_2" class="st0">
		<path d="M375.2,103V88.7c-0.3,0.3-0.9,0.6-1.7,1.1c-0.8,0.5-1.6,0.6-2.2,0.9v-2c0.9-0.3,1.9-0.6,2.8-1.1s1.7-1.1,2.3-1.6h0.8v17.1
			L375.2,103L375.2,103z"/>
		<path d="M391.3,90.6c0-0.9-0.3-1.6-0.8-2.2c-0.6-0.5-1.4-0.8-2.3-0.8c-0.6,0-1.4,0.2-2,0.5c-0.8,0.3-1.4,0.8-2,1.6v-2
			c0.5-0.6,1.1-0.9,1.9-1.3c0.6-0.3,1.6-0.5,2.5-0.5c1.6,0,2.7,0.5,3.6,1.3s1.4,1.9,1.4,3.3c0,1.3-0.3,2.3-0.8,3.1
			c-0.6,0.9-1.6,1.9-3,2.8s-2.3,1.7-2.8,2s-0.8,0.8-0.9,1.3c-0.2,0.3-0.3,0.8-0.3,1.4h8.3v1.9h-10.5v-0.8c0-0.9,0.2-1.7,0.5-2.5
			c0.3-0.6,0.6-1.3,1.3-2c0.6-0.6,1.6-1.4,2.8-2.3c1.3-0.9,2.2-1.7,2.7-2.3C391,92.3,391.3,91.6,391.3,90.6z"/>
		<path d="M396.3,101.9c0-0.3,0.2-0.8,0.5-0.9c0.3-0.3,0.6-0.5,0.9-0.5c0.5,0,0.8,0.2,0.9,0.5c0.3,0.3,0.5,0.6,0.5,0.9
			s-0.2,0.6-0.5,0.9s-0.6,0.5-0.9,0.5c-0.5,0-0.8-0.2-0.9-0.5C396.5,102.5,396.3,102.2,396.3,101.9z"/>
		<path d="M401.3,95c0-3,0.5-5.2,1.4-6.7c0.9-1.6,2.3-2.3,4.2-2.3c3.6,0,5.3,2.8,5.3,8.6c0,2.8-0.5,5-1.6,6.4
			c-0.9,1.6-2.3,2.2-4.2,2.2c-1.7,0-3-0.8-3.9-2.2C401.7,99.5,401.3,97.7,401.3,95z M403.5,94.8c0,4.4,1.1,6.7,3.4,6.7
			c2.2,0,3.3-2.2,3.3-6.7c0-4.7-1.1-7-3.3-7C404.6,87.8,403.5,90.1,403.5,94.8z"/>
		<path d="M414.3,90.5c0-1.4,0.3-2.5,1.1-3.3c0.8-0.8,1.7-1.3,3-1.3s2.2,0.3,2.8,1.1s0.9,1.7,0.9,3.1c0,1.3-0.3,2.3-1.1,3.1
			s-1.7,1.3-3,1.3c-1.1,0-2-0.3-2.8-1.1C414.6,92.8,414.3,91.7,414.3,90.5z M415.9,90.5c0,0.9,0.2,1.7,0.6,2.2
			c0.5,0.5,0.9,0.8,1.7,0.8c0.8,0,1.3-0.3,1.7-0.8c0.5-0.5,0.6-1.3,0.6-2.2c0-0.9-0.2-1.7-0.6-2.2c-0.3-0.5-0.9-0.8-1.6-0.8
			c-0.8,0-1.3,0.3-1.7,0.8C416.2,88.7,415.9,89.4,415.9,90.5z M429.4,86.2l-10.8,16.9h-1.7l10.8-16.9H429.4z M424.4,99.1
			c0-1.4,0.3-2.5,1.1-3.3c0.8-0.8,1.7-1.3,3-1.3s2,0.3,2.8,1.1c0.6,0.8,0.9,1.7,0.9,3.1c0,1.3-0.3,2.3-1.1,3.1
			c-0.8,0.8-1.7,1.3-3,1.3c-1.1,0-2-0.3-2.8-1.1C424.7,101.3,424.4,100.3,424.4,99.1z M425.9,98.9c0,0.9,0.2,1.6,0.6,2.2
			c0.5,0.5,0.9,0.8,1.7,0.8c0.8,0,1.3-0.3,1.7-0.8c0.5-0.5,0.6-1.3,0.6-2.2c0-0.9-0.2-1.7-0.6-2.2c-0.5-0.5-0.9-0.8-1.6-0.8
			c-0.8,0-1.3,0.3-1.7,0.8C426.1,97.3,425.9,98,425.9,98.9z"/>
	</g>
</g>
<g id="线-2">
	<rect id="矩形_863_拷贝_2-2" x="442.5" y="343.2" class="st1" width="213.3" height="2"/>
	<rect id="矩形_863_拷贝_3-2" x="442.5" y="291.9" class="st1" width="213.3" height="2"/>
	<rect id="矩形_863_拷贝_4-2" x="442.5" y="240.6" class="st1" width="213.3" height="2"/>
	<rect id="矩形_863_拷贝_5-4" x="442.5" y="190.4" class="st1" width="213.3" height="2"/>
	<rect id="矩形_863_拷贝_5-5" x="442.5" y="139.2" class="st1" width="213.3" height="2"/>
	<rect id="矩形_863_拷贝_5-6" x="442.5" y="87.8" class="st1" width="213.3" height="2"/>
	<rect id="矩形_863-2" x="442.5" y="84.8" class="st2" width="2" height="313.7"/>
</g>
<rect id="矩形_864-2" x="473.8" y="253.6" class="st3" width="46.2" height="142.8"/>
<rect id="矩形_864_拷贝-2" x="520.2" y="261.8" class="st4" width="46.2" height="134.7"/>
<rect id="矩形_864_拷贝_2-2" x="566.4" y="305" class="st5" width="46.2" height="91.5"/>
<rect id="矩形_863_拷贝-2" x="442.5" y="396.5" class="st2" width="213.3" height="2"/>
<g id="_3">
	<g id="_2.0_3" class="st0">
		<path d="M97.6,747.2c0-0.9-0.3-1.6-0.8-2.2c-0.6-0.5-1.4-0.8-2.4-0.8c-0.6,0-1.4,0.2-2,0.5c-0.8,0.3-1.4,0.8-2,1.6v-2
			c0.5-0.6,1.1-0.9,1.9-1.3c0.6-0.3,1.6-0.5,2.5-0.5c1.6,0,2.7,0.5,3.6,1.3s1.4,1.9,1.4,3.3c0,1.3-0.3,2.4-0.8,3.1
			c-0.6,0.9-1.6,1.9-3,2.8s-2.4,1.7-2.8,2c-0.5,0.5-0.8,0.8-0.9,1.3c-0.2,0.3-0.3,0.8-0.3,1.4h8.3v1.9H89.8v-0.8
			c0-0.9,0.2-1.7,0.5-2.5c0.3-0.6,0.6-1.3,1.3-2c0.6-0.6,1.6-1.4,2.8-2.4c1.3-0.9,2.2-1.7,2.7-2.4C97.5,748.7,97.6,748,97.6,747.2z"
			/>
		<path d="M102.7,758.3c0-0.3,0.2-0.8,0.5-0.9c0.3-0.3,0.6-0.5,0.9-0.5c0.5,0,0.8,0.2,0.9,0.5c0.3,0.3,0.5,0.6,0.5,0.9
			c0,0.3-0.2,0.6-0.5,0.9c-0.3,0.3-0.6,0.5-0.9,0.5c-0.5,0-0.8-0.2-0.9-0.5C102.8,759.1,102.7,758.8,102.7,758.3z"/>
		<path d="M107.7,751.4c0-3,0.5-5.2,1.4-6.7c0.9-1.6,2.4-2.4,4.2-2.4c3.6,0,5.3,2.8,5.3,8.6c0,2.8-0.5,5-1.6,6.4
			c-0.9,1.6-2.4,2.2-4.2,2.2c-1.7,0-3-0.8-3.9-2.2C108.1,756.3,107.7,754.2,107.7,751.4z M109.9,751.4c0,4.4,1.1,6.7,3.4,6.7
			c2.2,0,3.3-2.2,3.3-6.7c0-4.7-1.1-7.1-3.3-7.1C111.1,744.2,109.9,746.5,109.9,751.4z"/>
		<path d="M120.7,747c0-1.4,0.3-2.5,1.1-3.3c0.8-0.8,1.7-1.3,3-1.3s2.2,0.3,2.8,1.1c0.6,0.8,0.9,1.7,0.9,3.1c0,1.3-0.3,2.4-1.1,3.1
			c-0.8,0.8-1.7,1.3-3,1.3c-1.1,0-2-0.3-2.8-1.1C121,749.2,120.7,748.3,120.7,747z M122.4,746.9c0,0.9,0.2,1.7,0.6,2.2
			c0.5,0.5,0.9,0.8,1.7,0.8c0.8,0,1.3-0.3,1.7-0.8c0.5-0.5,0.6-1.3,0.6-2.2s-0.2-1.7-0.6-2.2c-0.3-0.5-0.9-0.8-1.6-0.8
			c-0.8,0-1.3,0.3-1.7,0.8C122.6,745.1,122.4,745.9,122.4,746.9z M135.9,742.8l-10.8,16.9h-1.9l10.8-16.9H135.9z M130.7,755.6
			c0-1.4,0.3-2.5,1.1-3.3s1.7-1.3,3-1.3s2,0.3,2.8,1.1c0.6,0.8,0.9,1.7,0.9,3.1c0,1.3-0.3,2.4-1.1,3.1s-1.7,1.3-3,1.3
			c-1.1,0-2-0.3-2.8-1.1C131,757.8,130.7,756.7,130.7,755.6z M132.4,755.5c0,0.9,0.2,1.6,0.6,2.2c0.5,0.5,0.9,0.8,1.7,0.8
			s1.3-0.3,1.7-0.8c0.5-0.5,0.6-1.3,0.6-2.2s-0.2-1.7-0.6-2.2c-0.5-0.5-0.9-0.8-1.6-0.8c-0.8,0-1.3,0.3-1.7,0.8
			C132.6,753.8,132.4,754.5,132.4,755.5z"/>
	</g>
	<g id="_4.0_3" class="st0">
		<path d="M98.4,699.5v11.1h2.5v1.7h-2.5v3.9h-2v-3.9h-7.8v-1.7c1.4-1.6,2.8-3.3,4.2-5.3c1.4-2,2.5-3.9,3.4-5.8H98.4L98.4,699.5z
			 M91.1,710.5h5.5v-8c-0.8,1.4-1.6,2.7-2.4,3.9C93.2,707.7,92.1,709.1,91.1,710.5z"/>
		<path d="M102.7,715c0-0.3,0.2-0.8,0.5-0.9c0.3-0.3,0.6-0.5,0.9-0.5c0.5,0,0.8,0.2,0.9,0.5c0.3,0.3,0.5,0.6,0.5,0.9
			c0,0.3-0.2,0.6-0.5,0.9c-0.3,0.3-0.6,0.5-0.9,0.5c-0.5,0-0.8-0.2-0.9-0.5C102.8,715.8,102.7,715.5,102.7,715z"/>
		<path d="M107.7,708.1c0-3,0.5-5.2,1.4-6.7c0.9-1.6,2.4-2.4,4.2-2.4c3.6,0,5.3,2.8,5.3,8.6c0,2.8-0.5,5-1.6,6.4
			c-0.9,1.6-2.4,2.2-4.2,2.2c-1.7,0-3-0.8-3.9-2.2C108.1,713,107.7,711,107.7,708.1z M109.9,708.1c0,4.4,1.1,6.7,3.4,6.7
			c2.2,0,3.3-2.2,3.3-6.7c0-4.7-1.1-7.1-3.3-7.1C111.1,700.9,109.9,703.3,109.9,708.1z"/>
		<path d="M120.7,703.7c0-1.4,0.3-2.5,1.1-3.3c0.8-0.8,1.7-1.3,3-1.3s2.2,0.3,2.8,1.1c0.6,0.8,0.9,1.7,0.9,3.1
			c0,1.3-0.3,2.4-1.1,3.1c-0.8,0.8-1.7,1.3-3,1.3c-1.1,0-2-0.3-2.8-1.1C121,705.9,120.7,705,120.7,703.7z M122.4,703.6
			c0,0.9,0.2,1.7,0.6,2.2s0.9,0.8,1.7,0.8c0.8,0,1.3-0.3,1.7-0.8c0.5-0.5,0.6-1.3,0.6-2.2s-0.2-1.7-0.6-2.2
			c-0.3-0.5-0.9-0.8-1.6-0.8c-0.8,0-1.3,0.3-1.7,0.8C122.6,701.9,122.4,702.7,122.4,703.6z M135.9,699.5l-10.8,16.9h-1.9l10.8-16.9
			H135.9z M130.7,712.4c0-1.4,0.3-2.5,1.1-3.3s1.7-1.3,3-1.3s2,0.3,2.8,1.1c0.6,0.8,0.9,1.7,0.9,3.1c0,1.3-0.3,2.4-1.1,3.1
			s-1.7,1.3-3,1.3c-1.1,0-2-0.3-2.8-1.1C131,714.6,130.7,713.5,130.7,712.4z M132.4,712.2c0,0.9,0.2,1.6,0.6,2.2
			c0.5,0.5,0.9,0.8,1.7,0.8s1.3-0.3,1.7-0.8c0.5-0.5,0.6-1.3,0.6-2.2s-0.2-1.7-0.6-2.2c-0.5-0.5-0.9-0.8-1.6-0.8
			c-0.8,0-1.3,0.3-1.7,0.8C132.6,710.5,132.4,711.3,132.4,712.2z"/>
	</g>
	<g id="_6.0_3" class="st0">
		<path d="M99.5,654.4c-0.9-0.5-1.7-0.6-2.7-0.6c-1.4,0-2.7,0.6-3.4,1.9c-0.9,1.3-1.3,3-1.4,5.2l0,0c0.8-1.6,2-2.4,3.8-2.4
			c1.4,0,2.7,0.5,3.4,1.4c0.9,0.9,1.3,2.2,1.3,3.8s-0.5,3-1.6,4.1c-0.9,1.1-2.2,1.6-3.8,1.6c-1.7,0-3-0.6-4.1-2
			c-0.9-1.3-1.4-3.3-1.4-5.6c0-3,0.6-5.3,1.9-7.1c1.3-1.7,3-2.7,5-2.7c1.3,0,2.2,0.2,2.8,0.5v2h0.2
			C99.5,654.5,99.5,654.4,99.5,654.4z M92,663.5c0,1.1,0.3,2,0.9,2.8s1.4,1.3,2.4,1.3s1.7-0.3,2.2-0.9c0.6-0.6,0.9-1.6,0.9-2.7
			c0-1.1-0.3-2-0.8-2.7c-0.5-0.6-1.3-0.9-2.4-0.9c-0.9,0-1.7,0.3-2.4,0.9C92.3,661.9,92,662.5,92,663.5z"/>
		<path d="M102.7,667.8c0-0.3,0.2-0.8,0.5-0.9c0.3-0.3,0.6-0.5,0.9-0.5c0.5,0,0.8,0.2,0.9,0.5c0.3,0.3,0.5,0.6,0.5,0.9
			c0,0.3-0.2,0.6-0.5,0.9c-0.3,0.3-0.6,0.5-0.9,0.5c-0.5,0-0.8-0.2-0.9-0.5C102.8,668.5,102.7,668.2,102.7,667.8z"/>
		<path d="M107.7,660.9c0-3,0.5-5.2,1.4-6.7c0.9-1.6,2.4-2.4,4.2-2.4c3.6,0,5.3,2.8,5.3,8.6c0,2.8-0.5,5-1.6,6.4
			c-0.9,1.6-2.4,2.2-4.2,2.2c-1.7,0-3-0.8-3.9-2.2C108.1,665.7,107.7,663.6,107.7,660.9z M109.9,660.8c0,4.4,1.1,6.7,3.4,6.7
			c2.2,0,3.3-2.2,3.3-6.7c0-4.7-1.1-7.1-3.3-7.1S109.9,656.1,109.9,660.8z"/>
		<path d="M120.7,656.4c0-1.4,0.3-2.5,1.1-3.3c0.8-0.8,1.7-1.3,3-1.3s2.2,0.3,2.8,1.1c0.6,0.8,0.9,1.7,0.9,3.1
			c0,1.3-0.3,2.4-1.1,3.1s-1.7,1.3-3,1.3c-1.1,0-2-0.3-2.8-1.1C121,658.8,120.7,657.7,120.7,656.4z M122.4,656.2
			c0,0.9,0.2,1.7,0.6,2.2s0.9,0.8,1.7,0.8c0.8,0,1.3-0.3,1.7-0.8c0.5-0.5,0.6-1.3,0.6-2.2s-0.2-1.7-0.6-2.2
			c-0.3-0.5-0.9-0.8-1.6-0.8c-0.8,0-1.3,0.3-1.7,0.8C122.6,654.7,122.4,655.3,122.4,656.2z M135.9,652.2l-10.8,16.9h-1.9l10.8-16.9
			H135.9z M130.7,665c0-1.4,0.3-2.5,1.1-3.3s1.7-1.3,3-1.3s2,0.3,2.8,1.1c0.6,0.8,0.9,1.7,0.9,3.1c0,1.3-0.3,2.4-1.1,3.1
			s-1.7,1.3-3,1.3c-1.1,0-2-0.3-2.8-1.1C131,667.2,130.7,666.3,130.7,665z M132.4,664.9c0,0.9,0.2,1.6,0.6,2.2
			c0.5,0.5,0.9,0.8,1.7,0.8s1.3-0.3,1.7-0.8c0.5-0.5,0.6-1.3,0.6-2.2s-0.2-1.7-0.6-2.2c-0.5-0.5-0.9-0.8-1.6-0.8
			c-0.8,0-1.3,0.3-1.7,0.8C132.6,663.3,132.4,663.9,132.4,664.9z"/>
	</g>
	<g id="_8.0_3" class="st0">
		<path d="M89.5,613c0-0.9,0.3-1.9,0.9-2.7s1.3-1.4,2.2-1.7c-0.8-0.5-1.3-0.9-1.7-1.6c-0.5-0.6-0.6-1.4-0.6-2c0-0.8,0.2-1.6,0.6-2.2
			c0.5-0.6,0.9-1.1,1.7-1.6c0.8-0.5,1.6-0.6,2.4-0.6c0.9,0,1.7,0.2,2.4,0.6c0.8,0.3,1.3,0.9,1.7,1.6c0.5,0.6,0.6,1.4,0.6,2.2
			s-0.2,1.4-0.6,2c-0.5,0.6-0.9,1.3-1.7,1.6c0.9,0.3,1.7,0.9,2.2,1.7c0.6,0.8,0.8,1.7,0.8,2.7s-0.2,1.9-0.6,2.5
			c-0.5,0.8-1.1,1.4-1.9,1.7c-0.8,0.5-1.7,0.6-2.8,0.6c-1.1,0-2-0.2-2.8-0.6c-0.8-0.5-1.4-0.9-1.9-1.7
			C89.8,614.7,89.5,613.9,89.5,613z M91.5,612.8c0,0.9,0.3,1.7,0.9,2.4c0.6,0.6,1.4,0.9,2.5,0.9c0.9,0,1.9-0.3,2.5-0.9
			c0.6-0.6,0.9-1.4,0.9-2.4s-0.3-1.7-0.9-2.4c-0.6-0.6-1.4-0.9-2.4-0.9s-1.7,0.3-2.4,0.9C91.8,611.1,91.5,611.9,91.5,612.8z
			 M92.1,605c0,0.8,0.3,1.4,0.8,1.9s1.3,0.8,1.9,0.8c0.8,0,1.4-0.3,2-0.8s0.8-1.3,0.8-1.9c0-0.8-0.3-1.4-0.8-1.9s-1.3-0.8-2-0.8
			s-1.4,0.3-2,0.8C92.5,603.6,92.1,604.2,92.1,605z"/>
		<path d="M102.7,616.4c0-0.3,0.2-0.8,0.5-0.9c0.3-0.2,0.6-0.5,0.9-0.5c0.5,0,0.8,0.2,0.9,0.5c0.3,0.3,0.5,0.6,0.5,0.9
			s-0.2,0.6-0.5,0.9c-0.3,0.3-0.6,0.5-0.9,0.5c-0.5,0-0.8-0.2-0.9-0.5C102.8,617.2,102.7,616.9,102.7,616.4z"/>
		<path d="M107.7,609.5c0-3,0.5-5.2,1.4-6.7c0.9-1.6,2.4-2.4,4.2-2.4c3.6,0,5.3,2.8,5.3,8.6c0,2.8-0.5,5-1.6,6.4
			c-0.9,1.6-2.4,2.2-4.2,2.2c-1.7,0-3-0.8-3.9-2.2C108.1,614.4,107.7,612.2,107.7,609.5z M109.9,609.5c0,4.4,1.1,6.7,3.4,6.7
			c2.2,0,3.3-2.2,3.3-6.7c0-4.7-1.1-7.1-3.3-7.1C111.1,602.3,109.9,604.7,109.9,609.5z"/>
		<path d="M120.7,605.1c0-1.4,0.3-2.5,1.1-3.3c0.8-0.8,1.7-1.3,3-1.3s2.2,0.3,2.8,1.1c0.6,0.8,0.9,1.7,0.9,3.1
			c0,1.3-0.3,2.4-1.1,3.1s-1.7,1.3-3,1.3c-1.1,0-2-0.3-2.8-1.1C121,607.3,120.7,606.4,120.7,605.1z M122.4,605
			c0,0.9,0.2,1.7,0.6,2.2s0.9,0.8,1.7,0.8c0.8,0,1.3-0.3,1.7-0.8c0.5-0.5,0.6-1.3,0.6-2.2s-0.2-1.7-0.6-2.2
			c-0.3-0.5-0.9-0.8-1.6-0.8c-0.8,0-1.3,0.3-1.7,0.8C122.6,603.3,122.4,604,122.4,605z M135.9,600.9l-10.8,16.9h-1.9l10.8-16.9
			H135.9z M130.7,613.6c0-1.4,0.3-2.5,1.1-3.3s1.7-1.3,3-1.3s2,0.3,2.8,1.1c0.6,0.8,0.9,1.7,0.9,3.1c0,1.3-0.3,2.4-1.1,3.1
			s-1.7,1.3-3,1.3c-1.1,0-2-0.3-2.8-1.1C131,616,130.7,614.9,130.7,613.6z M132.4,613.6c0,0.9,0.2,1.6,0.6,2.2
			c0.5,0.5,0.9,0.8,1.7,0.8s1.3-0.3,1.7-0.8c0.5-0.5,0.6-1.3,0.6-2.2s-0.2-1.7-0.6-2.2c-0.5-0.5-0.9-0.8-1.6-0.8
			c-0.8,0-1.3,0.3-1.7,0.8C132.6,611.9,132.4,612.7,132.4,613.6z"/>
	</g>
	<g id="_10.0_3" class="st0">
		<path d="M83.1,566.3V552c-0.3,0.3-0.9,0.6-1.7,1.1c-0.8,0.5-1.6,0.6-2.2,0.9v-2.2c0.9-0.3,1.9-0.6,2.8-1.1s1.7-1.1,2.4-1.6h0.8
			v17.1L83.1,566.3L83.1,566.3z"/>
		<path d="M90.9,558.3c0-3,0.5-5.2,1.4-6.7c0.9-1.6,2.4-2.4,4.2-2.4c3.6,0,5.3,2.8,5.3,8.6c0,2.8-0.5,5-1.6,6.4
			c-0.9,1.6-2.4,2.2-4.2,2.2c-1.7,0-3-0.8-3.9-2.2C91.2,562.8,90.9,560.9,90.9,558.3z M93.1,558.1c0,4.4,1.1,6.7,3.4,6.7
			c2.2,0,3.3-2.2,3.3-6.7c0-4.7-1.1-7.1-3.3-7.1C94.2,551,93.1,553.4,93.1,558.1z"/>
		<path d="M104.2,565.2c0-0.3,0.2-0.8,0.5-0.9c0.3-0.3,0.6-0.5,0.9-0.5c0.5,0,0.8,0.2,0.9,0.5c0.3,0.3,0.5,0.6,0.5,0.9
			s-0.2,0.6-0.5,0.9c-0.3,0.3-0.6,0.5-0.9,0.5c-0.5,0-0.8-0.2-0.9-0.5C104.4,565.8,104.2,565.5,104.2,565.2z"/>
		<path d="M109.2,558.3c0-3,0.5-5.2,1.4-6.7c0.9-1.6,2.4-2.4,4.2-2.4c3.6,0,5.3,2.8,5.3,8.6c0,2.8-0.5,5-1.6,6.4
			c-0.9,1.6-2.4,2.2-4.2,2.2c-1.7,0-3-0.8-3.9-2.2C109.7,563,109.2,560.9,109.2,558.3z M111.3,558.1c0,4.4,1.1,6.7,3.4,6.7
			c2.2,0,3.3-2.2,3.3-6.7c0-4.7-1.1-7.1-3.3-7.1S111.3,553.4,111.3,558.1z"/>
		<path d="M122.1,553.7c0-1.4,0.3-2.5,1.1-3.3c0.8-0.8,1.7-1.3,3-1.3s2.2,0.3,2.8,1.1s0.9,1.7,0.9,3.1c0,1.3-0.3,2.4-1.1,3.1
			s-1.7,1.3-3,1.3c-1.1,0-2-0.3-2.8-1.1C122.2,555.9,122.1,555,122.1,553.7z M123.8,553.7c0,0.9,0.2,1.7,0.6,2.2s0.9,0.8,1.7,0.8
			c0.8,0,1.3-0.3,1.7-0.8c0.5-0.5,0.6-1.3,0.6-2.2s-0.2-1.7-0.6-2.2c-0.3-0.5-0.9-0.8-1.6-0.8c-0.8,0-1.3,0.3-1.7,0.8
			C124,552,123.8,552.8,123.8,553.7z M137.3,549.5l-10.8,16.9h-1.9l10.8-16.9H137.3z M132.1,562.3c0-1.4,0.3-2.5,1.1-3.3
			s1.7-1.3,3-1.3s2,0.3,2.8,1.1c0.6,0.8,0.9,1.7,0.9,3.1c0,1.3-0.3,2.4-1.1,3.1s-1.7,1.3-3,1.3c-1.1,0-2-0.3-2.8-1.1
			C132.4,564.5,132.1,563.6,132.1,562.3z M133.9,562.2c0,0.9,0.2,1.6,0.6,2.2c0.5,0.5,0.9,0.8,1.7,0.8s1.3-0.3,1.7-0.8
			c0.5-0.5,0.6-1.3,0.6-2.2s-0.2-1.7-0.6-2.2c-0.5-0.5-0.9-0.8-1.6-0.8c-0.8,0-1.3,0.3-1.7,0.8C134,560.6,133.9,561.2,133.9,562.2z"
			/>
	</g>
	<g id="_12.0_3" class="st0">
		<path d="M83.1,518v-14.3c-0.3,0.3-0.9,0.6-1.7,1.1c-0.8,0.5-1.6,0.6-2.2,0.9v-2c0.9-0.3,1.9-0.6,2.8-1.1s1.7-1.1,2.4-1.6h0.8v17.1
			L83.1,518L83.1,518z"/>
		<path d="M99,505.6c0-0.9-0.3-1.6-0.8-2.2c-0.6-0.5-1.4-0.8-2.4-0.8c-0.6,0-1.4,0.2-2,0.5c-0.8,0.3-1.4,0.8-2,1.6v-2
			c0.5-0.6,1.1-0.9,1.9-1.3c0.6-0.3,1.6-0.5,2.5-0.5c1.6,0,2.7,0.5,3.6,1.3s1.4,1.9,1.4,3.3c0,1.3-0.3,2.4-0.8,3.1
			c-0.6,0.9-1.6,1.9-3,2.8s-2.4,1.7-2.8,2c-0.5,0.5-0.8,0.8-0.9,1.3c-0.2,0.3-0.3,0.8-0.3,1.4h8.3v1.9H91.2v-0.8
			c0-0.9,0.2-1.7,0.5-2.5c0.3-0.6,0.6-1.3,1.3-2c0.6-0.6,1.6-1.4,2.8-2.4c1.3-0.9,2.2-1.7,2.7-2.4C98.9,507.3,99,506.5,99,505.6z"/>
		<path d="M104.2,516.9c0-0.3,0.2-0.8,0.5-0.9c0.3-0.3,0.6-0.5,0.9-0.5c0.5,0,0.8,0.2,0.9,0.5c0.3,0.3,0.5,0.6,0.5,0.9
			c0,0.3-0.2,0.6-0.5,0.9c-0.3,0.3-0.6,0.5-0.9,0.5c-0.5,0-0.8-0.2-0.9-0.5C104.4,517.5,104.2,517.2,104.2,516.9z"/>
		<path d="M109.2,510c0-3,0.5-5.2,1.4-6.7c0.9-1.6,2.4-2.4,4.2-2.4c3.6,0,5.3,2.8,5.3,8.6c0,2.8-0.5,5-1.6,6.4
			c-0.9,1.6-2.4,2.2-4.2,2.2c-1.7,0-3-0.8-3.9-2.2C109.7,514.7,109.2,512.6,109.2,510z M111.3,509.8c0,4.4,1.1,6.7,3.4,6.7
			c2.2,0,3.3-2.2,3.3-6.7c0-4.7-1.1-7.1-3.3-7.1C112.5,502.8,111.3,505.1,111.3,509.8z"/>
		<path d="M122.1,505.4c0-1.4,0.3-2.5,1.1-3.3c0.8-0.8,1.7-1.3,3-1.3s2.2,0.3,2.8,1.1c0.6,0.8,0.9,1.7,0.9,3.1
			c0,1.3-0.3,2.4-1.1,3.1c-0.8,0.8-1.7,1.3-3,1.3c-1.1,0-2-0.3-2.8-1.1C122.2,507.6,122.1,506.7,122.1,505.4z M123.8,505.3
			c0,0.9,0.2,1.7,0.6,2.2s0.9,0.8,1.7,0.8c0.8,0,1.3-0.3,1.7-0.8c0.5-0.5,0.6-1.3,0.6-2.2s-0.2-1.7-0.6-2.2
			c-0.3-0.5-0.9-0.8-1.6-0.8c-0.8,0-1.3,0.3-1.7,0.8C124,503.7,123.8,504.3,123.8,505.3z M137.3,501.2l-10.8,16.9h-1.9l10.8-16.9
			L137.3,501.2L137.3,501.2z M132.1,514c0-1.4,0.3-2.5,1.1-3.3s1.7-1.3,3-1.3s2,0.3,2.8,1.1c0.6,0.8,0.9,1.7,0.9,3.1
			c0,1.3-0.3,2.4-1.1,3.1c-0.8,0.8-1.7,1.3-3,1.3c-1.1,0-2-0.3-2.8-1.1C132.4,516.2,132.1,515.3,132.1,514z M133.9,513.9
			c0,0.9,0.2,1.6,0.6,2.2c0.5,0.5,0.9,0.8,1.7,0.8s1.3-0.3,1.7-0.8c0.5-0.5,0.6-1.3,0.6-2.2s-0.2-1.7-0.6-2.2
			c-0.5-0.5-0.9-0.8-1.6-0.8c-0.8,0-1.3,0.3-1.7,0.8C134,512.3,133.9,513,133.9,513.9z"/>
	</g>
</g>
<g id="线-3">
	<rect id="矩形_863_拷贝_2-3" x="150.5" y="758.3" class="st1" width="213.5" height="2"/>
	<rect id="矩形_863_拷贝_3-3" x="150.5" y="707" class="st1" width="213.5" height="2"/>
	<rect id="矩形_863_拷贝_4-3" x="150.5" y="655.8" class="st1" width="213.5" height="2"/>
	<rect id="矩形_863_拷贝_5-7" x="150.5" y="605.4" class="st1" width="213.5" height="2"/>
	<rect id="矩形_863_拷贝_5-8" x="150.5" y="554.2" class="st1" width="213.5" height="2"/>
	<rect id="矩形_863_拷贝_5-9" x="150.5" y="502.8" class="st1" width="213.5" height="2"/>
	<rect id="矩形_863-3" x="150.5" y="499.8" class="st2" width="2" height="314"/>
</g>
<rect id="矩形_864-3" x="181.8" y="579.3" class="st3" width="46.2" height="232.5"/>
<rect id="矩形_864_拷贝-3" x="228.1" y="626.6" class="st4" width="46.2" height="185.2"/>
<rect id="矩形_864_拷贝_2-3" x="274.5" y="677.9" class="st5" width="46.2" height="133.9"/>
<rect id="矩形_863_拷贝-3" x="150.5" y="811.8" class="st2" width="213.5" height="2"/>
<rect id="矩形_865" x="470" y="632" class="st3" width="36.5" height="35.9"/>
<rect id="矩形_865_拷贝" x="470" y="694.3" class="st4" width="36.5" height="35.9"/>
<rect id="矩形_865_拷贝_2" x="470" y="756.3" class="st5" width="36.5" height="35.9"/>
<g>
	<path d="M58.6,46.1c3.7-3,7.7-7,10.5-13.7c0-0.2,0.2-0.5,0.2-0.7s-0.5-0.9-2.3-2.1c-0.7-0.5-0.9-0.7-0.9-0.7c0-0.2,0.2-0.5,0.7-0.5
		c0.2,0,0.7,0,1.2,0.2c1.4,0.5,4.2,1.6,4.2,2.6c0,0.2,0,0.5-0.2,0.7c-0.7,1.4-1.6,3.3-2.8,4.9c0.7,1.4,2.3,2.6,3.5,3.5
		c1.4,1.2,1.4,0.2,3.3,3.3c0.5,0.7,0.7,1.2,0.7,1.4c0,0.7-0.5,0.9-0.9,0.9c-0.2,0-0.7,0-0.9-0.5c-1.2-1.4-3.5-4.2-6-7.7
		c-4.9,6.3-10,9.1-10.5,9.1H58C58,46.6,58.2,46.4,58.6,46.1z M83.3,27.5c0-0.9-1.9-1.9-3.3-2.6c-0.5,0-1.2-0.2-1.2-0.5
		c0-0.2,0.2-0.2,0.9-0.5c1.4,0,4,0.7,4.6,0.9c0.9,0.5,1.2,0.7,1.2,0.9c0,0.2-0.2,0.9-0.2,1.4V51c0,4.9-0.9,6.3-1.4,6.3
		s-0.7-0.9-0.7-2.6v-17h-4.9c-0.9,0-0.9,0.5-1.4,0.5s-2.8-0.9-2.8-1.4c0,0,0.2-0.2,0.5-0.2c0.2,0,0.2,0,0.5,0c0.9,0,1.6,0,2.1,0
		c1.6,0,3,0,6,0V27.5z"/>
	<path d="M124.2,52.4c-2.8-0.2-6.7-0.5-11.2-0.5c-6.3,0-9.3,0.2-12.3,0.5c-1.2,0-1.4,0.5-2.3,0.5c-0.7,0-1.9-0.2-4-1.6
		c-0.5-0.2-0.7-0.5-0.7-0.7c0,0,0-0.2,0.5-0.2c0.2,0,0.5,0,0.7,0c1.9,0.5,4.4,0.5,7.2,0.5c2.1,0,4.2,0,6.7-0.2c0-0.7,0-1.9,0-8.1
		c-1.9,0-3.5,0-4.6,0c-1.4,0-2.8-0.7-2.8-2.1v-3.7c-0.2-0.7-1.4-0.9-2.6-1.4c-0.2,0-0.5-0.2-0.5-0.5c0-0.2,0.5-0.5,1.9-0.5
		s2.6,0.2,3.7,0.5c1.9,0,7-0.2,9.8-0.5c1.2,0,1.2-0.2,2.3-0.5c0.2-0.9,0.5-3.3,0.5-5.3c-3,0.2-7.9,0.5-12.3,0.7
		c-1.2,1.2-1.2,1.6-1.9,1.6c-0.5,0-3.7-1.4-3.7-1.9c0,0,0-0.2,0.5-0.2c0,0,0.2,0,0.5,0c1.6,0.2,3.3,0.2,5.1,0.2
		c3.3,0,6.7-0.2,10.2-0.5c0.9,0,0.9-0.5,2.3-0.5c1.6,0,2.6,0.2,2.6,0.5s-0.7,0.9-0.9,1.4c-0.2,1.4-1.2,3.5-1.4,4.6
		c0.9,0,1.4,0.5,1.4,0.7s-0.2,0.5-0.9,0.5c-4.9,0-9.5,0.5-13.5,0.7c-0.5,0.2-0.7,0-0.7,0.5l0,0c0,0.7,0,2.6,0,4.4
		c0,0.7,0.2,0.7,0.9,0.7c2.6,0,5.8-0.2,9.5-0.5c1.9-0.2,1.2-1.2,3.7-1.2c0.9,0,2.3,0,2.3,0.9c0,0.5-0.5,0.9-1.2,0.9
		c-3.3,0.2-5.6,0.5-7.9,0.5c0,5.1,0,6.5,0,8.1c1.6,0,4.4,0,7.7-0.2c1.4,0,1.2-0.7,2.8-0.7c0.9,0,4.2,0.2,4.2,1.4
		C125.8,52,125.4,52.4,124.2,52.4L124.2,52.4z"/>
	<path d="M152.8,27.1c0-0.7-1.9-1.4-3.5-2.1c-0.5-0.2-0.7-0.2-0.7-0.5c0-0.2,0.5-0.5,1.4-0.5c1.6,0.2,3,0.7,4.2,0.9
		c0.7,0.2,0.9,0.5,0.9,0.9c0,0.2,0,0.7,0,1.2v13h1.9c1.6-0.2,1.2-0.9,3.5-0.9c0.7,0,2.1,0,2.1,1.2c0,0.5-0.5,0.9-1.2,0.9h-6v10.2
		c0,2.3-0.2,3.7-0.9,5.3c-0.2,0.5-0.5,0.7-0.9,0.7c-0.2,0-0.5-0.5-0.5-1.6V42c-4.4,2.3-13.3,5.3-17.4,5.3c-0.7,0-1.6-1.4-1.6-2.8
		V33.1c-0.2-0.9-1.2-1.2-3-1.9c-0.2,0-0.5,0-0.5-0.2c0-0.2,0.2-0.5,1.2-0.5c1.9,0,4,0.5,5.1,0.7c2.1,0,4.2,0,5.3-0.2
		c1.9-0.2,1.4-1.2,3.7-1.2c0.9,0,2.6,0,2.6,0.9c0,0.5-0.5,0.7-1.2,0.9c-3.5,0.2-7.2,0.5-10.2,0.5c-0.5,0-0.7,0-0.7,0.5
		c0,1.6,0,7,0,10c0,2.8,0,3,0.9,3c1.2,0,10.5-1.6,16-4.2V27.1H152.8z"/>
	<path d="M190.2,41.7c1.4-0.2,1.4-0.7,3.3-0.7c0.9,0,3.7,0,3.7,1.4c0,0.5-0.5,0.9-1.2,0.9h-0.2c-2.1-0.2-4.6-0.2-7.2-0.2
		c-5.3,0-14.9,0.2-16,0.2c-1.4,0.2-1.6,0.7-2.3,0.7s-4.9-1.6-4.9-2.3c0-0.2,0.2-0.2,0.5-0.2c0.2,0,0.5,0,0.7,0
		c1.9,0.5,5.1,0.7,9.3,0.7c3.7,0,8.4-0.2,12.8-0.2L190.2,41.7z M172.8,48.7c0-0.7-0.9-0.9-2.6-1.6c-0.5,0-0.7-0.2-0.7-0.5
		c0-0.2,0.2-0.5,1.2-0.5c1.6,0,3,0.2,3.7,0.2c0.7,0.2,0.7,0.5,0.7,0.7s0,0.5-0.2,0.9c0,1.6,0,3.5,0,4.9c0,0.7,0.5,1.2,1.6,1.2h7.7
		c2.6-0.2,1.4-0.9,4.4-0.9c0.9,0,2.8,0,2.8,1.2c0,0.5-0.5,0.7-0.9,0.7h-13.9c-2.3,0-3.7-0.7-3.7-2.3L172.8,48.7z M172.6,33.4
		c0-0.5-0.9-0.7-2.1-1.2c-0.2,0-0.5-0.2-0.5-0.2c0-0.2,0.5-0.5,1.2-0.5c1.6,0,3,0.2,4,0.7c2.8,0,7-0.2,10-0.2c1.2,0,0.9-0.2,2.1-0.5
		c0-0.9,0.2-1.6,0.2-4c-4.2,0-8.8,0.2-11.9,0.5c-1.2,0.2-1.4,0.5-1.9,0.5c-0.7,0-3.7-1.4-3.7-1.9c0,0,0.2-0.2,0.5-0.2
		c0.2,0,0.2,0,0.5,0c1.2,0.2,3.3,0.5,5.6,0.5c3.3,0,6.7-0.2,9.1-0.2c1.6,0,0.7-0.5,3-0.5c1.4,0,1.9,0.2,1.9,0.5
		c0,0.2-0.7,0.7-0.9,1.2c-0.5,1.4-0.9,2.6-1.2,3.5c0.9,0.2,1.4,0.5,1.4,0.7c0,0.5-0.9,0.5-1.4,0.5c-4,0-9.8,0.2-13,0.5
		c-0.5,0.2-0.7,0-0.7,0.7s0,1.9,0,2.8s0.5,0.9,1.4,0.9c1.6,0,4.6,0,8.4-0.2c2.3-0.2,1.4-0.9,4.6-0.9h0.2c1.4,0,1.9,0.5,1.9,0.9
		s-0.5,0.7-0.9,0.7c-4.4,0.2-10.9,0.5-15.1,0.5c-1.9,0-2.8-0.7-2.8-1.9L172.6,33.4z"/>
	<path d="M225.6,31c0.7,0,0.5-0.2,1.4-0.2c1.9,0,2.3,0.2,2.3,0.5c0,0.2-0.5,0.7-0.7,1.4c-1.4,2.6-3.5,5.6-4.9,7
		c0.9,0.7,2.3,2.1,3,2.6c1.4,0.9,1.9,0.2,3.5,2.8c0.7,0.9,0.9,1.4,0.9,1.9c0,0.5-0.2,0.7-0.7,0.7c-0.2,0-0.7-0.2-1.2-0.5
		c-0.9-1.2-3-3.3-6.5-6.7c-4.2,4.6-10.9,9.1-11.9,9.1h-0.2c0-0.2,0.2-0.5,0.9-0.9c4.4-3,10.9-8.8,14.4-16.5c-1.9,0-6.5,0.5-7.7,0.5
		c-0.7,0.2-0.9,0.7-1.4,0.7c-0.7,0-3.7-1.4-3.7-1.9c0,0,0.2-0.2,0.5-0.2c0.2,0,0.5,0,0.7,0c1.2,0.2,2.3,0.2,3.7,0.2
		C220.7,31.3,224.6,31.3,225.6,31z M234.6,27.1c0-0.7-1.9-1.4-3.5-2.1c-0.5-0.2-0.7-0.2-0.7-0.5c0-0.2,0.5-0.5,1.4-0.5
		c1.6,0.2,3,0.7,4.2,0.9c0.7,0.2,0.9,0.5,0.9,0.9c0,0.2,0,0.7,0,1.2v13h1.9c1.6-0.2,1.2-0.9,3.5-0.9c0.7,0,2.1,0,2.1,1.2
		c0,0.5-0.5,0.9-1.2,0.9h-6v10.2c0,2.3-0.2,3.7-0.9,5.3c-0.2,0.5-0.5,0.7-0.9,0.7c-0.2,0-0.5-0.5-0.5-1.6V27.1H234.6z"/>
	<path d="M246.9,42.2c6.7-4.4,10.2-10.9,10.2-11.4s-0.5-1.2-1.9-2.3c-0.5-0.2-0.7-0.5-0.7-0.7c0-0.2,0.2-0.2,0.7-0.2
		c0.2,0,0.5,0,0.7,0c0.7,0.2,4.4,1.9,4.4,2.6c0,0.5-0.9,1.4-2.1,3.7c1.2,1.2,1.6,1.9,2.8,2.8c2.1,1.4,1.9,0,4.4,3.5
		c0.2,0.5,0.2,0.7,0.2,0.9c0,0.5-0.2,0.9-0.7,0.9c-0.2,0-0.5,0-0.7-0.2c-1.9-1.9-4.9-5.3-6.5-7c-3.3,3.5-6,5.8-10,7.7
		c-0.5,0.2-0.7,0.2-0.9,0.2c-0.2,0-0.2,0-0.2-0.2C246.2,42.7,246.5,42.4,246.9,42.2z M258.1,48.5c0-0.7-0.9-0.9-2.6-1.6
		c-0.5,0-0.7-0.2-0.7-0.5c0-0.2,0.2-0.5,1.2-0.5c1.6,0,3,0.2,3.7,0.2c0.7,0.2,0.7,0.5,0.7,0.7s0,0.5,0,0.9c0,1.6,0,3.7,0,4.9
		c0,0.9,0.5,1.2,1.9,1.2h6.5c2.6-0.2,1.4-0.9,4.6-0.9c1.2,0,2.6,0.2,2.6,1.2c0,0.5-0.5,0.7-0.9,0.7h-12.8c-2.3,0-3.7-0.7-4-2.3
		L258.1,48.5z M270.2,27.3c0-0.5-0.9-0.9-3-1.9c-0.5-0.2-0.9-0.5-0.9-0.5c0-0.2,0.5-0.5,1.4-0.5c0.2,0,5.1,0.7,5.1,1.9
		c0,0.2-0.2,0.5-0.2,0.9v11.2c0.5,0,1.2,0,1.6,0c1.6-0.2,0.9-0.9,3.7-0.9c0.7,0,2.1,0,2.1,0.9c0,0.5-0.5,0.9-0.9,0.9l-6.3,0.2
		c0,6.5-0.2,8.1-0.7,9.1c-0.2,0.7-0.7,1.2-0.9,1.2s-0.5-0.5-0.5-1.6V27.3H270.2z"/>
	<path d="M307.1,27.5c0-0.9-1.4-1.6-3-2.3c-0.7-0.2-1.2-0.5-1.2-0.7c0-0.2,0.5-0.5,1.2-0.5c0.2,0,5.3,0.7,5.3,1.9
		c0,0.2-0.2,0.5-0.2,0.9v22.1c0,4.9-0.5,8.6-1.4,8.6c-0.5,0-0.7-0.5-0.7-2.6v-9.3c-7,2.1-8.8,2.6-16.5,4c-0.9,0.2-1.2,0.7-1.9,0.7
		s-5.1-1.9-5.1-2.6c0-0.2,0.2-0.2,0.5-0.2c0.2,0,0.5,0,0.7,0c0.9,0.2,1.9,0.2,3.3,0.2c5.8,0,15.3-1.9,19.3-2.8V27.5H307.1z
		 M293.4,28.9c0.9,0,0.9-0.5,0.9-0.7c0-0.2,0-0.5-0.2-0.5c-0.2-0.2-0.5-0.5-0.5-0.7c0-0.2,0.2-0.2,0.5-0.2c1.2,0,2.1,0.7,2.1,1.2
		s-0.2,0.7-0.5,1.2c3.7,0.7,5.6,3.3,5.6,5.8c0,2.8-2.6,5.8-7,5.8c-4.6,0-7.2-3-7.2-6C287.4,32.2,289.2,29.6,293.4,28.9z M289.5,35
		c0,2.1,1.6,4.4,5.1,4.4c3.3,0,4.9-2.3,4.9-4.4c0-2.3-1.6-4.4-4.9-4.4C291.3,30.3,289.5,32.7,289.5,35z"/>
	<path d="M332.7,32.4c0-0.7-1.6-1.4-2.8-1.6c-0.5,0-0.7-0.2-0.7-0.5c0-0.2,0.2-0.5,0.9-0.5c4.2,0.2,4.6,0.7,4.6,1.2
		c0,0.2,0,0.5,0,0.5v9.1c0,0.5,0,0.7,0.7,0.7s6-1.4,10.2-3.5c0.2-0.2,0.5-0.2,0.7-0.2l0,0c0,0-0.2,0.5-0.7,0.7
		c-4.4,3-10.9,5.3-11.9,5.3s-1.4-1.4-1.4-2.3L332.7,32.4z M338.8,48.5c0-0.7-0.9-0.9-2.6-1.4c-0.5,0-1.2-0.2-1.2-0.5
		c0,0,0.2-0.2,0.5-0.5c0.5-0.2,0.9-0.2,1.6-0.2c0.7,0,1.9,0,2.8,0.2c1.2,0.2,1.4,0.2,1.4,0.7c0,0.2,0,0.5,0,1.2v5.3
		c0,1.2,0.5,1.4,1.2,1.4h9.5c2.3-0.2,1.4-0.9,4.2-0.9c2.1,0,2.6,0.5,2.6,1.2c0,0.5-0.5,0.9-1.2,0.9h-15.3c-2.6,0-3.3-1.4-3.3-2.8
		L338.8,48.5L338.8,48.5z M353.4,28c0-0.5-1.9-1.6-3-2.1c-0.5-0.2-0.9-0.5-0.9-0.5c0-0.2,0.2-0.2,1.2-0.5c4.4,0.7,5.3,1.2,5.3,1.9
		c0,0.2-0.2,0.7-0.2,1.2l-0.2,17.9c-0.2,2.3-0.9,3.5-1.4,3.5c-0.5,0-0.7-0.7-0.7-1.9v-6.3c-1.6,0-3,0.2-4.6,0.5
		c-0.7,0.2-0.7,0.5-1.2,0.5s-2.8-0.9-2.8-1.4c0,0,0.2-0.2,0.5-0.2s1.6,0,1.9,0c1.9,0,4.4-0.2,6.3-0.2v-7c-1.9,0.2-3.5,0.2-4.6,0.5
		c-0.7,0-0.7,0.5-1.2,0.5s-3-0.9-3-1.4c0,0,0.2-0.2,0.5-0.2c0.5,0,2.6,0.2,3,0.2c1.9,0,3.5-0.2,5.3-0.2L353.4,28L353.4,28z"/>
	<path d="M386.6,44.7c-3.5-0.5-5.6-2.6-5.6-4.9c0-2.1,1.6-4.2,5.6-4.9c0.2-0.2,0.2-0.5,0.2-0.7c0-0.5-0.2-0.9-0.9-1.4
		c-0.9,0-1.9,0.2-3.3,0.2c-0.9,0.2-0.9,0.5-1.4,0.5c-0.7,0-3.3-1.2-3.3-1.6c0-0.2,0.2-0.2,0.5-0.2s0.5,0,0.9,0
		c0.9,0,1.9,0.2,3.3,0.2c3.3,0,7-0.5,8.8-0.5c1.2-0.2,0.5-0.7,3.3-0.7c0.5,0,2.1,0,2.1,0.9c0,0.7-0.9,0.7-2.1,0.7c-2.1,0-4,0-7,0.2
		c0.2,0.5,0.5,0.5,0.9,1.2v0.2c0,0.5-0.2,0.5-0.2,0.7l0,0c4,0.5,5.8,2.6,5.8,4.6c0,2.3-1.9,4.4-5.3,4.9v2.8
		c2.1-0.2,7.4-1.2,10.7-1.9V27.3c0-0.5-1.4-1.4-3.3-2.1c-0.7-0.2-0.9-0.5-0.9-0.5c0-0.2,0.5-0.5,1.2-0.5c1.9,0,3.3,0.5,4.4,0.9
		c0.7,0.2,0.9,0.5,0.9,0.7c0,0.2-0.2,0.7-0.2,1.2v22.1c0,3,0,5.1-0.7,7.4c-0.2,0.7-0.7,1.2-0.9,1.2c-0.2,0-0.5-0.5-0.5-1.4V45.7
		c-4.9,1.9-11.6,3-17.7,4.2c-0.7,0.2-0.7,0.5-1.4,0.5s-5.1-1.9-5.1-2.6c0-0.2,0.2-0.2,0.5-0.2c0.2,0,0.5,0,0.7,0
		c0.9,0.2,2.1,0.2,3.3,0.2c2.1,0,4.4-0.2,7-0.7L386.6,44.7L386.6,44.7z M385.7,28.9c-0.7,0-3-1.6-3-2.1c0,0,0-0.2,0.2-0.2
		c0.2,0,0.5,0,0.9,0.2c1.6,0.2,2.1,0.2,6.5,0.2c0.9,0,1.6,0.5,1.6,0.9s-0.7,0.9-1.9,0.9H385.7z M383.2,39.6c0,1.9,1.4,3.5,4.4,3.5
		c3,0,4.4-1.6,4.4-3.5s-1.4-3.5-4.4-3.5C384.8,36.1,383.2,37.8,383.2,39.6z"/>
	<path d="M425.2,42.2c-2.6,0-6.5,0.2-8.4,0.5c-0.9,0.2-1.2,0.7-1.9,0.7c-0.9,0-4.9-1.6-4.9-2.3c0,0,0.2-0.2,0.5-0.2
		c0.2,0,0.5,0,0.7,0c2.3,0.2,5.1,0.5,8.1,0.5c5.3,0,11.2-0.2,15.8-0.5c1.9-0.2,1.4-0.7,3-0.7c0.9,0,3.7,0,3.7,1.2
		c0,0.5-0.5,0.9-1.2,0.9c-2.1,0-4.2,0-6.5,0c-1.9,0-4,0-6.7,0c0,8.4,0,11.9-0.7,13.9c-0.2,0.9-0.7,1.4-0.9,1.4s-0.5-0.7-0.5-2.1
		V42.2H425.2z M412.5,36.4c6.3-2.6,12.1-7.4,13-9.3c0-0.5-1.2-1.2-2.3-1.9c-1.2-0.5-0.5-0.9,0.5-0.9c0.5,0,5.1,1.4,5.1,2.3
		c0,0.5-2.1,2.6-2.3,3c0.9,0.5,4.6,1.6,6.3,1.6c0.7,0,1.2-0.2,1.6-0.2c0.9,0,5.1,1.4,5.1,2.6c0,0.5-0.5,0.7-0.9,0.7
		c-0.5,0-0.7,0-1.4-0.2c-3.7-1.2-9.5-2.8-11.4-3.7c-5.8,4.6-12.6,6.5-13.5,6.5c-0.2,0-0.5,0-0.5,0C411.5,36.6,411.8,36.4,412.5,36.4
		z"/>
	<path d="M454.3,51.3c0-0.5-0.7-0.7-1.9-0.9c-0.2,0-0.7-0.2-0.7-0.2c0-0.2,0.7-0.5,1.4-0.5c1.6,0,3.3,0.2,3.7,0.5
		c3.3,0,5.1,0,8.4-0.2c0.9,0,0.9-0.2,1.9-0.2c0-0.7,0.2-2.1,0.2-4c-2.3,0-7,0.2-10.5,0.5c-0.9,0.2-1.2,0.5-1.9,0.5
		c-0.7,0-3.5-1.2-3.5-1.6c0,0,0.2-0.2,0.5-0.2s3,0.2,3.7,0.2c-0.2-0.2-0.2-0.5-0.2-1.2v-4c-1.2,0-2.6,0.2-3.5,0.2
		c-1.2,0.2-1.2,0.7-1.9,0.7c-0.5,0-4.4-1.4-4.4-2.1c0-0.2,0.2-0.2,0.5-0.2c0.2,0,0.5,0,0.7,0c1.2,0.2,3.7,0.5,6.7,0.5
		c5.8,0,13.5-0.5,16.7-0.7c1.9-0.2,1.6-0.7,3.3-0.7c0.5,0,1.4,0,2.6,0.2c0.7,0,1.2,0.5,1.2,0.9c0,0.5-0.5,0.9-1.4,0.9l0,0
		c-3.7-0.2-5.1-0.2-7.9-0.2c0,2.1,0,4-1.2,5.1c0.2,0,0.2,0,0.5,0c0.2,0,0.5,0,0.9,0c1.2,0,1.4,0.2,1.4,0.5c0,0.2-0.2,0.7-0.5,0.9
		c-0.5,1.2-0.9,2.8-1.2,3.5c0.9,0.2,1.4,0.5,1.4,0.9c0,0.2-0.5,0.5-1.2,0.5c-2.8,0-7.9,0.2-11.6,0.2c-0.5,0.2-0.7,0.2-0.7,0.5v3
		c0,0.7,0.5,0.9,0.9,0.9c0.7,0,1.9,0,3,0c1.6,0,4,0,6,0c2.1-0.2,1.4-0.9,3.7-0.9c0.9,0,2.8,0,2.8,0.9c0,0.5-0.5,0.9-1.2,0.9h-13.9
		c-2.6,0-3.3-0.9-3.3-1.9L454.3,51.3L454.3,51.3z M462.7,25.9c4,0.7,5.8,3.3,5.8,5.6c0,2.6-2.6,5.3-6.7,5.3c-4.6,0-7.2-2.6-7.2-5.6
		c0-2.3,1.9-4.6,5.8-5.3h0.2c0.5,0,0.7-0.2,0.7-0.5c0-0.2,0-0.5-0.2-0.7c-0.2-0.2-0.5-0.5-0.5-0.5c0-0.2,0-0.2,0.5-0.2
		c0.5,0,2.1,0.5,2.1,0.9C462.9,25.2,462.7,25.5,462.7,25.9L462.7,25.9z M466.1,39.4c-2.3,0-5.6,0.2-8.4,0.2c0,2.1,0,3.3-0.7,4.4
		c-0.2,0.5-0.7,0.7-0.9,0.9c3,0,6.7,0,10-0.2c-0.2-0.2-0.2-0.7-0.2-1.2L466.1,39.4z M456.4,31.5c0,2.1,1.9,4.2,5.3,4.2
		c3.3,0,4.9-2.1,4.9-4.2s-1.6-4.2-4.9-4.2C458.2,27.3,456.4,29.4,456.4,31.5z"/>
</g>
<g class="st0">
	<path d="M215.1,432.7c0,2.1-0.7,3.7-2.1,4.9s-3.3,1.9-5.6,1.9c-2.1,0-3.5-0.2-4.4-0.9v-2.8c1.4,0.9,2.8,1.4,4.4,1.4
		c1.4,0,2.6-0.5,3.5-1.2s1.4-1.9,1.4-3.3c0-1.4-0.5-2.3-1.4-3.3c-0.9-0.9-2.3-1.2-4-1.2c-1.4,0-2.6,0-3.5,0.2l0.7-10.7h9.8v2.3h-7.7
		l-0.5,6h1.9c2.3,0,4,0.5,5.3,1.6C214.4,429,215.1,430.6,215.1,432.7z"/>
	<path d="M225.8,433.6h4.4v-7.9h9.5v-4.9h-7.9c-1.2,2.1-2.6,4.2-4.2,6c-0.5-0.5-0.9-0.9-1.6-1.6c2.6-3,4.4-6.3,5.8-9.8l2.3,0.7
		c-0.5,0.9-0.7,1.9-1.2,2.6h18.8v1.9h-9.5v4.9h9.1v1.9h-9.1v5.8H253v1.9h-10.7v7.4h-2.1V435h-13.9v-1.4H225.8z M232.3,433.6h7.4
		v-5.8h-7.4V433.6z"/>
</g>
<g class="st0">
	<path d="M515.4,443.2v-18.1c-0.5,0.5-1.2,0.9-2.1,1.4c-0.9,0.5-1.9,0.9-2.8,1.2v-2.6c1.2-0.2,2.3-0.7,3.5-1.4s2.3-1.4,3-1.9h0.9
		v21.6h-2.6V443.2z"/>
	<path d="M525.4,433c0-3.7,0.7-6.5,1.9-8.4s3-2.8,5.3-2.8c4.4,0,6.7,3.7,6.7,10.9c0,3.5-0.7,6.3-1.9,8.1s-3,2.8-5.3,2.8
		c-2.1,0-3.7-0.9-4.9-2.8S525.4,436.5,525.4,433z M528,433c0,5.6,1.4,8.4,4.2,8.4c2.8,0,4.2-2.8,4.2-8.6c0-5.8-1.4-8.8-4.2-8.8
		C529.6,424,528,427,528,433z"/>
	<path d="M549.2,437.7h4.4v-7.9h9.5v-4.9h-7.9c-1.2,2.1-2.6,4.2-4.2,6c-0.5-0.5-0.9-0.9-1.6-1.6c2.6-3,4.4-6.3,5.8-9.8l2.3,0.7
		c-0.5,0.9-0.7,1.9-1.2,2.6h18.8v1.9h-9.5v4.9h9.1v1.9h-9.1v5.8h10.7v1.9h-10.7v7.4h-2.1v-7.4h-13.9v-1.4H549.2z M555.9,437.7h7.4
		v-5.8h-7.4V437.7z"/>
</g>
<g class="st0">
	<path d="M227.8,835.9c0-1.2-0.5-2.1-1.2-2.8c-0.7-0.7-1.6-0.9-3-0.9c-0.9,0-1.9,0.2-2.6,0.7s-1.6,1.2-2.6,1.9v-2.6
		c0.7-0.7,1.4-1.2,2.3-1.6s1.9-0.5,3-0.5c1.9,0,3.5,0.5,4.6,1.6c1.2,1.2,1.9,2.3,1.9,4.2c0,1.6-0.5,2.8-1.2,4
		c-0.7,1.2-1.9,2.3-3.7,3.5c-1.9,1.2-3,2.1-3.5,2.6c-0.5,0.5-0.9,0.9-1.2,1.6c-0.2,0.7-0.5,1.2-0.5,1.9h10.5v2.3h-13.3v-1.2
		c0-1.2,0.2-2.3,0.5-3c0.2-0.7,0.9-1.6,1.6-2.6c0.7-0.9,1.9-1.9,3.5-2.8c1.6-1.2,2.8-2.1,3.5-3C227.4,838.2,227.8,837,227.8,835.9z"
		/>
	<path d="M233.9,841.2c0-3.7,0.7-6.5,1.9-8.4c1.2-1.9,3-2.8,5.3-2.8c4.4,0,6.7,3.7,6.7,10.9c0,3.5-0.7,6.3-1.9,8.1
		c-1.2,1.9-3,2.8-5.3,2.8c-2.1,0-3.7-0.9-4.9-2.8C234.6,847.2,233.9,844.7,233.9,841.2z M236.4,841.2c0,5.6,1.4,8.4,4.2,8.4
		c2.8,0,4.2-2.8,4.2-8.6c0-5.8-1.4-8.8-4.2-8.8C238.1,832.1,236.4,835.2,236.4,841.2z"/>
	<path d="M257.6,845.8h4.4v-7.9h9.5v-4.9h-7.9c-1.2,2.1-2.6,4.2-4.2,6c-0.5-0.5-0.9-0.9-1.6-1.6c2.6-3,4.4-6.3,5.8-9.8l2.3,0.7
		c-0.5,0.9-0.7,1.9-1.2,2.6h18.8v1.9h-9.5v4.9h9.1v1.9h-9.1v5.8h10.7v1.9h-10.7v7.4h-2.3v-7.4h-13.9v-1.4H257.6z M264.3,845.8h7.4
		V840h-7.4V845.8z"/>
</g>
<g>
	<path d="M543.2,650.3c-2.1,0-5.8,0.3-7.3,0.3c-0.9,0.3-0.9,0.6-1.5,0.6c-0.9,0-4.3-1.5-4.3-1.8c0,0,0,0,0.3,0c0.3,0,0.3,0,0.6,0
		c1.8,0.3,4.3,0.3,7,0.3c4.6,0,9.4-0.3,13.4-0.6c1.5-0.3,1.2-0.6,2.7-0.6c0.9,0,3.3,0,3.3,0.9c0,0.3-0.3,0.6-0.9,0.9
		c-1.8,0-3.6,0-5.8,0c-1.5,0-3.3,0-5.8,0c0,7.3,0,10-0.6,11.9c-0.3,0.6-0.6,1.2-0.9,1.2c-0.3,0-0.6-0.6-0.6-1.8v-11.2H543.2z
		 M538.9,646.3c-0.3,0.9-0.6,1.5-1.2,1.5c-0.3,0-0.3-0.6-0.6-1.2c0-0.6,0-6.7,0-7.9c0-0.6,0-0.9-2.1-1.2c-0.3,0-0.6-0.3-0.6-0.3
		s0.3-0.3,0.9-0.3c3,0.3,3.6,0.6,3.6,0.9v0.6v2.1l10-0.3v-2.4c0-0.3-0.6-0.6-1.8-1.2c-0.3,0-0.6-0.3-0.6-0.3c0-0.3,0.3-0.3,0.9-0.3
		c3,0.3,3.3,0.6,3.3,1.2c0,0.3,0,0.3,0,0.6c0,2.7,0,7.9-0.6,8.8c-0.3,0.6-0.6,0.9-0.9,0.9c-0.3,0-0.6-0.3-0.6-1.2L538.9,646.3z
		 M538.9,640.8v4.6l10-0.3v-4.6L538.9,640.8z"/>
	<path d="M566.9,638.4c0-0.6-0.9-0.9-2.1-1.5c-0.3,0-0.3,0-0.3-0.3s0.3-0.3,0.9-0.3c1.5,0,3,0.3,4,0.6c2.4,0,5.2,0,8.2,0
		c2.4-0.3,1.2-0.9,3.6-0.9c0.6,0,2.1,0,2.1,0.9c0,0.3-0.6,0.6-1.5,0.6c-3,0-9.4,0.3-12.5,0.3c-0.3,0.3-0.3,0-0.3,0.6
		c0,1.2,0,3.3,0,4.9c0,0.9,0.3,0.9,3.3,0.9c1.5,0,3.3,0,5.8-0.3c1.5-0.3,0.9-0.9,3.6-0.9c0.9,0,1.5,0.3,1.5,0.9
		c0,0.6-0.6,0.9-1.2,0.9c-1.2,0-4.6,0-6.4,0c0,1.8,0,3.3-0.3,4.6c2.4,0,4.9-0.3,6.7-0.6c1.5-0.3,1.2-0.6,2.4-0.6
		c0.6,0,1.2,0,2.4,0.3c0.9,0,1.2,0.6,1.2,0.9s-0.3,0.6-1.2,0.6l0,0c-1.5,0-3.6,0-6.1,0c-4.3,0-9.4,0-13.7,0.6
		c-1.2,0.3-1.5,0.6-2.1,0.6c-0.9,0-4-1.5-4-2.1c0,0,0-0.3,0.3-0.3c0,0,0.3,0,0.6,0c1.5,0.3,3.6,0.3,6.1,0.3c1.8,0,4,0,6.1-0.3
		c0-1.5,0-3.3,0-4.6l0,0h-3.6c-2.4,0-3-0.9-3-1.8L566.9,638.4z M574.2,652.7c0-0.3,0-0.6-0.3-0.9c-0.3,0-0.3-0.3-0.3-0.3
		s0-0.3,0.3-0.3c0.6,0,1.8,0.6,1.8,0.9s-0.3,0.6-0.3,0.9c3.3,0.6,4.9,2.7,4.9,4.9c0,2.4-2.1,4.9-6.1,4.9c-4,0-5.8-2.4-5.8-4.9
		c0-2.1,1.5-4.3,5.2-4.9C574.2,653,574.2,653,574.2,652.7z M570.2,657.8c0,1.8,1.5,3.6,4.3,3.6c2.7,0,4.3-1.8,4.3-3.6
		c0-1.8-1.5-3.6-4.3-3.6C571.7,654.2,570.2,656,570.2,657.8z"/>
	<path d="M591.5,650.3c5.8-3.6,8.8-9.1,8.8-9.7s-0.3-0.9-1.5-1.8c-0.6-0.3-0.6-0.3-0.6-0.6s0.3-0.3,0.6-0.3c0.3,0,0.3,0,0.6,0
		c0.6,0.3,3.6,1.5,3.6,2.4c0,0.6-0.6,1.2-1.8,3.3c0.9,0.9,1.5,1.5,2.4,2.4c1.8,1.2,1.5,0,3.6,3c0.3,0.3,0.3,0.6,0.3,0.9
		s-0.3,0.6-0.6,0.6c-0.3,0-0.3,0-0.6-0.3c-1.5-1.5-4.3-4.6-5.8-6.1c-2.7,3-5.2,4.9-8.5,6.7c-0.3,0.3-0.6,0.3-0.9,0.3h-0.3
		C590.9,650.9,590.9,650.6,591.5,650.3z M600.9,655.7c0-0.6-0.6-0.9-2.4-1.2c-0.3,0-0.6-0.3-0.6-0.3s0.3-0.3,0.9-0.3
		c1.5,0,2.7,0,3.3,0.3c0.6,0,0.6,0.3,0.6,0.6c0,0.3,0,0.3,0,0.9c0,1.2,0,3,0,4.3c0,0.6,0.3,0.9,1.5,0.9h5.5c2.1-0.3,1.2-0.9,4-0.9
		c0.9,0,2.1,0,2.1,0.9c0,0.3-0.3,0.6-0.9,0.6h-10.9c-2.1,0-3-0.6-3.3-2.1L600.9,655.7z M611.2,637.8c0-0.3-0.9-0.9-2.7-1.5
		c-0.3,0-0.6-0.3-0.6-0.3c0-0.3,0.3-0.3,1.2-0.3c0,0,4.3,0.6,4.3,1.5c0,0.3,0,0.3,0,0.9v9.4c0.3,0,0.9,0,1.5,0
		c1.5-0.3,0.6-0.9,3-0.9c0.6,0,1.8,0,1.8,0.9c0,0.3-0.3,0.6-0.9,0.6h-5.5c0,5.5-0.3,7-0.6,7.6c-0.3,0.6-0.6,0.9-0.9,0.9
		c-0.3,0-0.6-0.3-0.6-1.5V637.8z"/>
</g>
<g>
	<path d="M556.5,713.8c-1.5,0-3.6-0.3-5.5-0.3c-6.1,0-12.5,0.3-14.9,0.6c-0.9,0.3-0.9,0.6-1.5,0.6s-4-1.5-4-1.8c0,0,0-0.3,0.3-0.3
		c0,0,0.3,0,0.6,0c0.9,0.3,2.7,0.3,5.2,0.3c4.3,0,9.7-0.3,15.2-0.6c1.5,0,1.2-0.6,3-0.6c1.5,0,2.7,0.3,2.7,0.9
		C557.7,713.2,557.1,713.8,556.5,713.8L556.5,713.8z M547.1,700.1c1.5,0,0.9-0.3,3-0.3c1.2,0,1.5,0.3,1.5,0.3c0,0.3-0.6,0.6-0.9,0.9
		c-1.8,1.8-4,3.3-5.5,4.3c0.9,0.6,3,0.9,7,0.9c0.9,0,3.3,0.6,3.3,1.5c0,0.3-0.3,0.6-0.9,0.6c-0.3,0-8.5-1.5-10.9-2.1
		c-3,1.5-10.6,4.3-12.2,4.3c-0.3,0-0.3,0-0.3,0s0.3-0.3,0.9-0.3c4.9-1.5,12.2-4.6,15.5-8.5c-2.1,0-6.1,0.3-9.1,0.6
		c-0.6,0-0.6,0.3-1.2,0.3s-3-0.9-3-1.5c0,0,0,0,0.3,0c0,0,0.3,0,0.6,0c0.9,0,2.1,0.3,4,0.3C541.3,700.4,544.1,700.4,547.1,700.1
		L547.1,700.1z M543.8,716.5c0-0.3,0-0.6-0.3-0.9c-0.3,0-0.3-0.3-0.3-0.3s0-0.3,0.3-0.3c0.6,0,1.8,0.6,1.8,0.9s-0.3,0.6-0.3,0.9
		c3.3,0.6,4.9,2.7,4.9,4.9c0,2.4-2.1,4.9-6.1,4.9c-4,0-5.8-2.4-5.8-4.9c0-2.1,1.5-4.3,5.2-4.9C543.8,716.8,543.8,716.8,543.8,716.5z
		 M539.8,721.7c0,1.8,1.5,3.6,4.3,3.6c2.7,0,4.3-1.8,4.3-3.6c0-1.8-1.5-3.6-4.3-3.6C541.3,718,539.8,719.8,539.8,721.7z"/>
	<path d="M570.5,711.6c-0.6,0-2.4,0.3-3.3,0.6c-0.6,0-0.6,0.6-1.2,0.6s-4-1.2-4-1.8c0,0,0-0.3,0.3-0.3h0.3c0.9,0.3,1.8,0.3,2.7,0.3
		c2.7,0,6.7-0.6,9.1-0.9c0.3-1.2,0.6-3,0.6-5.2V704c-1.2,0-5.2,0.3-7,0.6c-0.9,0-0.9,0.3-1.2,0.3c-0.3,0-2.7-0.9-2.7-1.5
		c0,0,0.3-0.3,0.6-0.3h0.3c1.2,0,2.4,0,4,0c1.8,0,3.3,0,4.9-0.3c0.9,0,0.9-0.3,2.4-0.3c0.9,0,1.5,0.3,1.5,0.6c0,0.3-0.3,0.6-0.6,0.9
		c-0.3,1.5-0.9,4-1.5,5.5c1.2-0.3,2.4-0.6,3.3-0.9c0.3,0,0.3,0,0.6,0h0.3c0,0.3-3.6,1.5-7.3,2.4c0,2.1,0,3.6-0.3,4.3
		c-0.3,0.9-0.6,1.2-0.9,1.2c-0.3,0-0.6-0.3-0.6-1.2L570.5,711.6L570.5,711.6z M570.8,720.7c0-0.6-0.6-0.6-2.1-1.2
		c-0.3,0-0.9-0.3-0.9-0.3s0.3-0.3,1.2-0.6c0.6,0,1.8,0,2.7,0c0.9,0,0.9,0.3,0.9,0.6c0,0.3,0,0.3,0,0.9v3.6c0,0.9,0.3,1.2,0.9,1.2
		h6.7c2.1-0.3,0.9-0.9,3.6-0.9c0.9,0,2.1,0,2.1,0.9c0,0.3-0.3,0.6-0.9,0.6h-11.9c-2.4,0-2.7-0.9-2.7-2.1L570.8,720.7z M582.1,701.6
		c0-0.3-1.8-1.2-2.7-1.5c-0.3,0-0.9-0.3-0.9-0.6c0-0.3,1.2-0.3,1.2-0.3c0.9,0,4.3,0.6,4.3,1.2c0,0.3,0,0.6-0.3,1.2l-0.3,15.2
		c0,2.1-0.6,3.3-1.2,3.3c-0.3,0-0.6-0.6-0.6-1.5v-4.6c-0.9,0-2.7,0-3,0.3c-0.6,0-0.6,0.3-1.2,0.3s-2.4-0.9-2.4-1.2c0,0,0,0,0.3,0
		c0,0,0.3,0,0.6,0c0.6,0,0.9,0,1.5,0c1.5,0,2.7,0,4.3,0v-11.9L582.1,701.6L582.1,701.6z"/>
</g>
<g>
	<path d="M537.4,788.2v-19.8c-0.3,0.3-1.2,0.9-2.4,1.5c-1.2,0.6-2.1,0.9-3,1.2v-2.7c1.2-0.3,2.4-0.9,4-1.5c1.5-0.6,2.4-1.5,3-2.1
		h1.2v23.4H537.4z"/>
	<path d="M548,777c0-4,0.6-7,2.1-9.1c1.2-2.1,3.3-3,5.8-3c4.9,0,7.3,4,7.3,11.9c0,4-0.6,7-2.1,8.8c-1.5,2.1-3.3,3-5.8,3
		c-2.4,0-4.3-0.9-5.5-3C548.6,783.7,548,780.9,548,777z M551.1,777c0,6.1,1.5,9.1,4.6,9.1s4.6-3,4.6-9.4s-1.5-9.7-4.6-9.7
		C552.6,767.2,551.1,770.3,551.1,777z"/>
	<path d="M569.6,769.4c0-0.6-1.2-1.2-2.4-1.2c-0.3,0-0.6-0.3-0.6-0.3s0.3-0.3,0.9-0.6c3.6,0.3,4,0.6,4,0.9s0,0.3,0,0.6v7.9
		c0,0.3,0,0.6,0.6,0.6s5.2-1.2,8.8-3c0.3,0,0.6-0.3,0.6-0.3l0,0c0,0,0,0.3-0.6,0.6c-4,2.7-9.1,4.6-10,4.6c-0.9,0-1.2-1.2-1.2-2.1
		V769.4z M575.1,783.3c0-0.6-0.9-0.9-2.4-1.2c-0.3,0-0.9,0-0.9-0.3c0,0,0-0.3,0.3-0.3c0.3,0,0.9-0.3,1.2-0.3c0.6,0,1.5,0,2.4,0
		c0.9,0,1.2,0.3,1.2,0.6c0,0.3,0,0.6,0,0.9v4.6c0,0.9,0.3,1.2,0.9,1.2h8.2c2.1-0.3,1.2-0.9,3.3-0.9c1.8,0,2.1,0.6,2.1,0.9
		s-0.3,0.6-0.9,0.6h-12.8c-2.1,0-2.7-1.2-2.7-2.4V783.3z M587.5,765.7c0-0.6-1.5-1.2-2.4-1.8c-0.3,0-0.9-0.3-0.9-0.6
		c0,0,0.3-0.3,0.9-0.3c4,0.6,4.6,0.9,4.6,1.5c0,0.3,0,0.6-0.3,0.9l-0.3,15.2c-0.3,1.8-0.6,3-1.2,3c-0.3,0-0.6-0.6-0.6-1.5V777
		c-1.2,0-2.7,0.3-4,0.3c-0.6,0-0.6,0.3-0.9,0.3c-0.3,0-2.4-0.9-2.4-1.2c0,0,0,0,0.3,0c0.3,0,1.2,0,1.5,0c1.5,0,3.6,0,5.2-0.3v-5.8
		c-1.5,0-3,0.3-4,0.3c-0.6,0-0.6,0.3-0.9,0.3c-0.3,0-2.4-0.9-2.4-1.2c0,0,0-0.3,0.6-0.3c0.3,0,2.1,0,2.4,0c1.5,0,3,0,4.6-0.3
		L587.5,765.7L587.5,765.7z"/>
	<path d="M603.3,768.5c-1.2,0.3-1.2,0.6-1.8,0.6c-0.9,0-3-1.2-3-1.5c0,0,0-0.3,0.3-0.3c0.3,0,0.3,0,0.6,0c1.5,0.3,3.3,0.3,5.5,0.3
		c1.2,0,2.4,0,4,0c0.9,0,0.6-0.3,1.5-0.3c0.3,0,0.3,0,0.6,0c0.9,0,1.2,0.3,1.2,0.6c0,0.3-0.3,0.6-0.6,0.9c-2.7,7-6.7,11.5-13.4,16.1
		c-0.6,0.3-0.9,0.6-1.2,0.6l0,0c0,0,0.3-0.3,0.9-0.9c5.2-4,10.3-10.3,11.9-16.1H603.3z M617.6,765.1c0-0.6-0.9-1.2-2.7-2.1
		c-0.3,0-0.6-0.3-0.6-0.6s0.3-0.3,0.9-0.3c1.8,0.3,3,0.6,3.6,0.9s0.6,0.3,0.6,0.6c0,0.3,0,0.6,0,0.9v17.9c0,5.5-0.3,6.4-0.6,7.6
		c-0.3,0.3-0.3,0.6-0.6,0.6c-0.3,0-0.3-0.3-0.3-1.2L617.6,765.1L617.6,765.1z"/>
	<path d="M633.4,768.2c-0.9,0.3-1.2,0.6-1.5,0.6c-0.6,0-3-1.2-3-1.5c0,0,0,0,0.3,0c0.3,0,0.3,0,0.6,0c0.9,0,2.1,0,3.3,0
		c1.8,0,3.6,0,5.5,0c0.9,0,0.6-0.3,1.5-0.3c0.6,0,1.8,0,1.8,0.6c0,0.3-0.3,0.6-0.6,0.9c-2.7,5.5-7,9.7-13.1,13.1
		c-0.3,0.3-0.6,0.3-0.9,0.3l0,0c0,0,0.3-0.3,0.6-0.9c4.6-3,9.7-8.8,11.2-13.1L633.4,768.2z M635.2,783c0-0.6-0.9-0.9-2.1-1.2
		c-0.3,0-0.9,0-0.9-0.3s1.2-0.6,1.8-0.6c0.6,0,1.5,0,2.4,0.3c0.9,0,1.2,0.3,1.2,0.6c0,0.3,0,0.6,0,0.9v4.9c0,0.9,0.3,1.2,0.9,1.2
		h7.6c2.1-0.3,0.9-0.9,4-0.9c1.5,0,1.8,0.3,1.8,0.9c0,0.3-0.3,0.6-0.9,0.6h-12.8c-2.1,0-2.7-1.2-2.7-2.4L635.2,783L635.2,783z
		 M646.8,765.1c0-0.3-0.9-0.9-2.7-1.5c-0.3,0-0.6-0.3-0.6-0.3c0-0.3,0.3-0.3,1.2-0.3c0,0,4.3,0.6,4.3,1.5c0,0.3,0,0.3,0,0.9v9.4
		c0.3,0,0.9,0,1.5,0c1.5-0.3,0.6-0.9,3-0.9c0.6,0,1.8,0,1.8,0.9c0,0.3-0.3,0.6-0.9,0.6h-5.5c0,5.5-0.3,7-0.6,7.6
		c-0.3,0.6-0.6,0.9-0.9,0.9c-0.3,0-0.6-0.3-0.6-1.5V765.1z"/>
	<path d="M679.3,772.7c1.5-0.3,0.9-0.6,2.4-0.6c0.9,0,2.7,0,2.7,0.9c0,0.3-0.3,0.6-0.9,0.6l0,0c-2.1,0-4,0-5.8,0c-1.8,0-3.6,0-5.8,0
		c0,2.7,0,3.6-0.6,4.9c-0.3,0.6-0.6,0.9-0.9,0.9c-0.3,0-0.3-0.3-0.6-0.9v-4.6c-3.3,0-5.2,0.3-6.4,0.3c-0.9,0-1.2,0.6-1.8,0.6
		c-0.9,0-4-1.2-4-1.5h0.3c0,0,0.3,0,0.6,0c2.1,0.3,4.6,0.3,7,0.3c2.1,0,8.8,0,10.6-0.3c0.6-2.1,1.2-4.3,1.5-7.3
		c-3.3,0-7.3,0.3-11.5,0.3c-0.9,0.3-1.2,0.6-1.5,0.6c-0.9,0-3.3-1.2-3.3-1.5c0,0,0,0,0.3,0c0,0,0.3,0,0.6,0c1.5,0.3,3.3,0.3,5.5,0.3
		c2.1,0,7.6-0.3,9.4-0.3c0.9,0,0.9-0.3,1.8-0.3h0.6c1.2,0,1.5,0.3,1.5,0.6c0,0.3-0.6,0.6-0.6,0.9c-0.9,2.7-1.8,4.9-2.7,6.7
		L679.3,772.7z M676.6,780.9c-2.7,0-8.5,0.3-9.7,0.6c-1.2,0.3-1.5,0.6-2.1,0.6s-3.3-0.9-3.3-1.5c0,0,0-0.3,0.3-0.3h0.3
		c1.2,0.3,3,0.3,4.9,0.3c3,0,6.1-0.3,8.2-0.3c0.9,0,0.9-0.3,1.5-0.3c0.3,0,0.6,0,0.9,0c0.9,0,1.2,0.3,1.2,0.3c0,0.3-0.3,0.6-0.3,0.9
		l-0.3,6.1c0,2.1-0.9,3-1.2,3c-0.3,0-0.6-0.3-0.6-1.2v-8.2H676.6z"/>
	<path d="M694.5,773.3c-0.6,0-0.9,0.3-1.2,0.3c-0.6,0-2.7-0.9-2.7-1.5c0,0,0,0,0.3,0c0.3,0,0.3,0,0.6,0c1.2,0,2.4,0.3,3.3,0.3
		c1.2,0,2.1,0,2.4,0c1.2,0,0.9-0.3,2.1-0.3c0.3,0,1.5,0,1.5,0.3s-0.3,0.6-0.6,0.9c-0.6,0.9-1.8,2.7-3,4c0.6,0.9,2.1,1.2,3,2.4
		c0.6,0.9,0.6,1.5,0.6,2.1s-0.3,0.9-0.6,0.9c0,0-0.3,0-0.6-0.3c-0.9-0.9-1.8-3.3-3-4.6c-3,3.3-8.2,6.4-8.8,6.4l0,0
		c0,0,0.3-0.3,0.6-0.6c2.1-1.2,7.3-5.8,9.4-10.3C696.9,773,695.1,773,694.5,773.3z M695.4,769.1c-0.3,0-2.1-1.2-2.1-1.8
		c0,0,0,0,0.3,0c0.3,0,0.3,0,0.9,0c2.1,0.3,3.3,0.3,5.5,0.3c0.6,0,0.9,0.3,0.9,0.6c0,0.3-0.3,0.6-0.6,0.6c-2.7,0-3,0-3.6,0
		L695.4,769.1z M704.2,766.6c0-0.6-0.9-1.2-2.1-1.8c-0.3-0.3-0.6-0.3-0.6-0.6c0-0.3,0.3-0.3,0.9-0.3c3.3,0.6,3.6,0.9,3.6,1.5
		c0,0.3,0,0.3,0,0.6v10.3h4v-11.2c0-0.6-1.2-1.2-2.4-2.1c-0.3,0-0.6-0.3-0.6-0.6c0-0.3,0.3-0.3,1.2-0.3c3.3,0.9,4,1.2,4,1.8
		c0,0.3,0,0.6,0,0.9v22.8c-0.3,1.8-0.9,3-1.2,3c-0.3,0-0.6-0.6-0.6-1.5v-11.9h-4v8.8c0,1.5-0.6,2.4-0.9,2.4c-0.3,0-0.6-0.6-0.6-1.8
		v-20.1L704.2,766.6L704.2,766.6z"/>
</g>
</svg>
