<?xml version="1.0" encoding="utf-8"?>
<!-- Generator: Adobe Illustrator 23.0.0, SVG Export Plug-In . SVG Version: 6.00 Build 0)  -->
<svg version="1.1" id="运作原理" xmlns="http://www.w3.org/2000/svg" xmlns:xlink="http://www.w3.org/1999/xlink" x="0px"
	 y="0px" viewBox="0 0 705 383" style="enable-background:new 0 0 705 383;" xml:space="preserve">
<style type="text/css">
	.st0{fill:none;stroke:#90A7AB;}
	.st1{fill:none;stroke:#70DBCB;}
	.st2{fill:#9FE7DD;stroke:#34B9A1;stroke-width:2;}
	.st3{enable-background:new    ;}
	.st4{fill:#456E68;}
	.st5{fill:none;stroke:#456E68;stroke-width:1.5;stroke-miterlimit:10;}
	.st6{fill:#70DBCB;}
</style>
<path id="形状_1_拷贝_3" class="st0" d="M63.1,175.9l0.1,71.4l4.6-2"/>
<path id="形状_1_拷贝_5" class="st0" d="M622,153l-0.1-71l-4.6,2"/>
<path id="形状_1" class="st0" d="M108,89h90.5l42.5,42.5l-0.3-5.5"/>
<path id="形状_1_拷贝_2" class="st0" d="M240.7,162h-90.2l-42.4-42.9l0.3,5.6"/>
<path id="形状_1_拷贝" class="st0" d="M560,201h-88.4L430,242.3l0.3-5.4"/>
<path id="形状_1_拷贝_4" class="st0" d="M430.3,272h88.2l41.4-41.7l-0.3,5.4"/>
<circle id="椭圆_7-2" class="st1" cx="487.3" cy="167" r="19"/>
<circle id="椭圆_6" class="st2" cx="339" cy="187" r="94"/>
<g class="st3">
	<path class="st4" d="M646.4,186.4H638v8.4h8.4V186.4z M643.6,192h-2.8v-2.8h2.8V192z"/>
	<path class="st4" d="M657.6,186.4h-8.4v8.4h8.4V186.4z M654.8,192H652v-2.8h2.8V192z"/>
	<path class="st4" d="M646.4,197.6H638v8.4h8.4V197.6z M643.6,203.2h-2.8v-2.8h2.8V203.2z"/>
	<path class="st4" d="M657.6,197.6h-8.4v8.4h8.4V197.6z M654.8,203.2H652v-2.8h2.8V203.2z"/>
	<path class="st4" d="M646.4,217.2v-8.4H638v8.4H646.4z M640.8,211.6h2.8v2.8h-2.8V211.6z"/>
	<path class="st4" d="M657.6,208.8h-8.4v8.4h8.4V208.8z M654.8,214.4H652v-2.8h2.8V214.4z"/>
	<path class="st4" d="M666,183.6v-2.8h-2.8v-5.6h-2.8v-5.6h-25.2v5.6h-2.8v5.6h-2.8v2.8h2.8V220h-11.2v-16.8h2.8v-8.4h-2.8v-2.1
		l-19.6-13.6l-8.4,5.8v-4.3h-8.4v10.1l-2.8,1.9v2.1h-2.8v8.4h2.8v17.1c-1.6,0.6-2.8,2.1-2.8,3.9v2.8c0,2.3,1.9,4.2,4.2,4.2h27.3
		c-2.2,2.7-3.5,6.1-3.5,9.8c0,8.5,6.9,15.4,15.4,15.4S638,249.5,638,241c0-3.7-1.3-7.1-3.5-9.8h27.3c2.3,0,4.2-1.9,4.2-4.2v-2.8
		c0-1.8-1.2-3.4-2.8-3.9v-36.7H666z M638,172.4h19.6v2.8H638V172.4z M635.2,178h25.2v2.8h-25.2V178z M587.6,183.4h2.8v3.5l-2.8,1.9
		V183.4z M584.8,194.2l16.8-11.6l16.8,11.6v0.7h-33.6V194.2z M582,197.6h39.2v2.8H582V197.6z M618.4,203.2V220h-11.2v-14H596v14
		h-11.2v-16.8H618.4z M604.4,220h-5.6v-11.2h5.6V220z M622.6,253.6c-6.9,0-12.6-5.7-12.6-12.6c0-6.9,5.7-12.6,12.6-12.6
		s12.6,5.7,12.6,12.6C635.2,248,629.6,253.6,622.6,253.6z M663.2,227c0,0.8-0.6,1.4-1.4,1.4h-30.4c-2.5-1.8-5.5-2.8-8.8-2.8
		s-6.3,1-8.8,2.8h-30.4c-0.8,0-1.4-0.6-1.4-1.4v-2.8c0-0.8,0.6-1.4,1.4-1.4h78.4c0.8,0,1.4,0.6,1.4,1.4V227z M660.4,220h-25.2v-36.4
		h25.2V220z"/>
</g>
<g class="st3">
	<g>
		<g>
			<path class="st4" d="M96.5,278.4H86.4c1-0.8,1.6-1.9,1.6-3.2c0-2.3-1.8-4.1-4.1-4.1s-4.1,1.8-4.1,4.1c0,0.7,0.2,1.3,0.5,1.9
				l-1.5,1.3H58.9c-0.6-1.5-2.1-2.5-3.8-2.5s-3.2,1-3.8,2.5H29c-1.8,0-3.3,1.5-3.3,3.3v8c0,0.6,0.5,1.1,1.1,1.1s1.1-0.5,1.1-1.1v-8
				c0-0.6,0.5-1.1,1.1-1.1h22c0.1,0.4,0.2,0.8,0.3,1.2l-9.1,8.3c-0.6-0.4-1.4-0.7-2.2-0.7c-2.3,0-4.1,1.8-4.1,4.1s1.8,4.1,4.1,4.1
				s4.1-1.8,4.1-4.1c0-0.7-0.2-1.3-0.4-1.8l9.1-8.3c0.7,0.5,1.5,0.7,2.3,0.7c1.2,0,2.2-0.5,3-1.3l7.4,4.4c-0.1,0.3-0.1,0.5-0.1,0.8
				c0,2.3,1.8,4.1,4.1,4.1s4.1-1.8,4.1-4.1c0-0.6-0.1-1.2-0.4-1.7l6.4-5.8h16.9c0.6,0,1.1,0.5,1.1,1.1v26.8c0,0.6,0.5,1.1,1.1,1.1
				s1.1-0.5,1.1-1.1v-26.8C99.8,279.8,98.3,278.4,96.5,278.4z M40,295.4c-1.1,0-1.9-0.9-1.9-1.9c0-1.1,0.9-1.9,1.9-1.9
				s1.9,0.9,1.9,1.9S41.1,295.4,40,295.4z M55.1,281.9c-1.1,0-1.9-0.9-1.9-1.9c0-1.1,0.9-1.9,1.9-1.9S57,279,57,280
				S56.2,281.9,55.1,281.9z M69.5,290c-1.1,0-1.9-0.9-1.9-1.9c0-1.1,0.9-1.9,1.9-1.9s1.9,0.9,1.9,1.9C71.5,289.1,70.6,290,69.5,290z
				 M71.9,284.7c-0.7-0.5-1.5-0.8-2.4-0.8c-1.2,0-2.3,0.5-3.1,1.4l-7.3-4.4c0-0.1,0.1-0.3,0.1-0.4h17.2L71.9,284.7z M83.9,277.1
				c-1.1,0-1.9-0.9-1.9-1.9s0.9-1.9,1.9-1.9s1.9,0.9,1.9,1.9S85,277.1,83.9,277.1z"/>
		</g>
	</g>
	<g>
		<g>
			<path class="st4" d="M99.8,312.8c0-0.6-0.5-1.1-1.1-1.1s-1.1,0.5-1.1,1.1v8.2h-8v-25.7v-4.4v-4.5c0-0.6-0.5-1.1-1.1-1.1h-8.2
				c-0.6,0-1.1,0.5-1.1,1.1v4.5v4.4V321h-4.1v-5.5V311v-4.5c0-0.6-0.5-1.1-1.1-1.1h-8c-0.6,0-1.1,0.5-1.1,1.1v4.5v4.4v5.5h-4.1
				v-19.5V297v-4.5c0-0.6-0.5-1.1-1.1-1.1h-8.2c-0.6,0-1.1,0.5-1.1,1.1v4.5v4.4v6.1c0,0.6,0.5,1.1,1.1,1.1s1.1-0.5,1.1-1.1v-5h6
				v18.4h-6v-9.1c0-0.6-0.5-1.1-1.1-1.1s-1.1,0.5-1.1,1.1v9.1h-4.1v-5.5V311v-4.5c0-0.6-0.5-1.1-1.1-1.1H37c-0.6,0-1.1,0.5-1.1,1.1
				v4.5v4.4v5.5h-8.2v-27c0-0.6-0.5-1.1-1.1-1.1s-1.1,0.5-1.1,1.1v35.9c0,1.8,1.5,3.3,3.3,3.3h23.8l-0.6,5.4h-5
				c-0.6,0-1.1,0.5-1.1,1.1v3.8c0,0.6,0.5,1.1,1.1,1.1h31.5c0.6,0,1.1-0.5,1.1-1.1v-3.8c0-0.6-0.5-1.1-1.1-1.1h-5.2l-0.6-5.4h23.8
				c1.8,0,3.3-1.5,3.3-3.3V322l0,0V312.8L99.8,312.8z M81.5,287.4h6v2.3h-6V287.4z M81.5,291.9h6v2.3h-6V291.9z M81.5,296.3h6v24.6
				h-6V296.3z M67.1,307.6h6v2.3h-6V307.6z M67.1,312.1h6v2.3h-6V312.1z M67.1,316.5h6v4.4h-6V316.5z M52.7,295.9v-2.3h6v2.3H52.7z
				 M52.7,300.3V298h6v2.3H52.7z M38.3,307.6h6v2.3h-6V307.6z M38.3,312.1h6v2.3h-6V312.1z M38.3,316.5h6v4.4h-6V316.5z M77.5,340.7
				v1.6H48.1v-1.6H77.5z M54.3,338.5l0.6-5.4h15.6l0.6,5.4H54.3z M96.5,331H29c-0.6,0-1.1-0.5-1.1-1.1v-6.7h69.7v6.7l0,0
				C97.6,330.5,97.1,331,96.5,331z"/>
		</g>
	</g>
</g>
<g class="st3">
	<g>
		<g>
			<path class="st4" d="M601.9,25.6h-8.5c-0.6,0-1.1,0.5-1.1,1.1V31c0,0.6,0.5,1.1,1.1,1.1h8.5c0.6,0,1.1-0.5,1.1-1.1v-4.3
				C602.9,26.1,602.5,25.6,601.9,25.6z M596.5,29.9h-2.1v-2.1h2.1V29.9z M600.8,29.9h-2.1v-2.1h2.1V29.9z"/>
		</g>
	</g>
	<g>
		<g>
			<path class="st4" d="M601.9,34.1h-8.5c-0.6,0-1.1,0.5-1.1,1.1v4.3c0,0.6,0.5,1.1,1.1,1.1h8.5c0.6,0,1.1-0.5,1.1-1.1v-4.3
				C602.9,34.6,602.5,34.1,601.9,34.1z M596.5,38.4h-2.1v-2.1h2.1V38.4z M600.8,38.4h-2.1v-2.1h2.1V38.4z"/>
		</g>
	</g>
	<g>
		<g>
			<path class="st4" d="M601.9,42.7h-8.5c-0.6,0-1.1,0.5-1.1,1.1V48c0,0.6,0.5,1.1,1.1,1.1h8.5c0.6,0,1.1-0.5,1.1-1.1v-4.3
				C602.9,43.1,602.5,42.7,601.9,42.7z M596.5,46.9h-2.1v-2.1h2.1V46.9z M600.8,46.9h-2.1v-2.1h2.1V46.9z"/>
		</g>
	</g>
	<g>
		<g>
			<path class="st4" d="M640.3,25.6h-8.5c-0.6,0-1.1,0.5-1.1,1.1V31c0,0.6,0.5,1.1,1.1,1.1h8.5c0.6,0,1.1-0.5,1.1-1.1v-4.3
				C641.3,26.1,640.9,25.6,640.3,25.6z M634.9,29.9h-2.1v-2.1h2.1V29.9z M639.2,29.9h-2.1v-2.1h2.1V29.9z"/>
		</g>
	</g>
	<g>
		<g>
			<path class="st4" d="M640.3,17.1h-8.5c-0.6,0-1.1,0.5-1.1,1.1v4.3c0,0.6,0.5,1.1,1.1,1.1h8.5c0.6,0,1.1-0.5,1.1-1.1v-4.3
				C641.3,17.5,640.9,17.1,640.3,17.1z M634.9,21.3h-2.1v-2.1h2.1V21.3z M639.2,21.3h-2.1v-2.1h2.1V21.3z"/>
		</g>
	</g>
	<g>
		<g>
			<path class="st4" d="M614.7,29.9h-4.3c-0.6,0-1.1,0.5-1.1,1.1v4.3c0,0.6,0.5,1.1,1.1,1.1h4.3c0.6,0,1.1-0.5,1.1-1.1V31
				C615.7,30.3,615.3,29.9,614.7,29.9z M613.6,34.1h-2.1V32h2.1V34.1z"/>
		</g>
	</g>
	<g>
		<g>
			<path class="st4" d="M623.2,29.9h-4.3c-0.6,0-1.1,0.5-1.1,1.1v4.3c0,0.6,0.5,1.1,1.1,1.1h4.3c0.6,0,1.1-0.5,1.1-1.1V31
				C624.3,30.3,623.8,29.9,623.2,29.9z M622.1,34.1H620V32h2.1V34.1z"/>
		</g>
	</g>
	<g>
		<g>
			<path class="st4" d="M614.7,21.3h-4.3c-0.6,0-1.1,0.5-1.1,1.1v4.3c0,0.6,0.5,1.1,1.1,1.1h4.3c0.6,0,1.1-0.5,1.1-1.1v-4.3
				C615.7,21.8,615.3,21.3,614.7,21.3z M613.6,25.6h-2.1v-2.1h2.1V25.6z"/>
		</g>
	</g>
	<g>
		<g>
			<path class="st4" d="M623.2,21.3h-4.3c-0.6,0-1.1,0.5-1.1,1.1v4.3c0,0.6,0.5,1.1,1.1,1.1h4.3c0.6,0,1.1-0.5,1.1-1.1v-4.3
				C624.3,21.8,623.8,21.3,623.2,21.3z M622.1,25.6H620v-2.1h2.1V25.6z"/>
		</g>
	</g>
	<g>
		<g>
			<path class="st4" d="M614.7,12.8h-4.3c-0.6,0-1.1,0.5-1.1,1.1v4.3c0,0.6,0.5,1.1,1.1,1.1h4.3c0.6,0,1.1-0.5,1.1-1.1v-4.3
				C615.7,13.3,615.3,12.8,614.7,12.8z M613.6,17.1h-2.1V15h2.1V17.1z"/>
		</g>
	</g>
	<g>
		<g>
			<path class="st4" d="M623.2,12.8h-4.3c-0.6,0-1.1,0.5-1.1,1.1v4.3c0,0.6,0.5,1.1,1.1,1.1h4.3c0.6,0,1.1-0.5,1.1-1.1v-4.3
				C624.3,13.3,623.8,12.8,623.2,12.8z M622.1,17.1H620V15h2.1V17.1z"/>
		</g>
	</g>
	<g>
		<g>
			<path class="st4" d="M614.7,42.7h-4.3c-0.6,0-1.1,0.5-1.1,1.1V48c0,0.6,0.5,1.1,1.1,1.1h4.3c0.6,0,1.1-0.5,1.1-1.1v-4.3
				C615.7,43.1,615.3,42.7,614.7,42.7z M613.6,46.9h-2.1v-2.1h2.1V46.9z"/>
		</g>
	</g>
	<g>
		<g>
			<rect x="592.3" y="51.2" class="st4" width="2.1" height="2.1"/>
		</g>
	</g>
	<g>
		<g>
			<rect x="596.5" y="51.2" class="st4" width="2.1" height="2.1"/>
		</g>
	</g>
	<g>
		<g>
			<rect x="600.8" y="51.2" class="st4" width="2.1" height="2.1"/>
		</g>
	</g>
	<g>
		<g>
			<path class="st4" d="M650.9,38.4h-5.3V13.9c0-0.6-0.5-1.1-1.1-1.1H637v-1.7l1.1-1.1c0.9,0.7,2,1.1,3.1,1.1c1.4,0,2.7-0.5,3.7-1.5
				l0.2-0.2c0.4-0.4,0.4-1.1,0-1.5l-2.4-2.4l2.4-2.4l-1.5-1.5L641.2,4l-3.5-3.5c-0.2-0.2-0.5-0.3-0.8-0.3c-0.4,0-0.7,0.2-0.9,0.4
				c-1.1,1-1.7,2.3-1.7,3.7s0.5,2.9,1.6,3.9l0.5,0.5l-1.4,1.4c-0.2,0.2-0.3,0.5-0.3,0.8V13h-6.4V9.6c0-0.6-0.5-1.1-1.1-1.1h-3.7
				l-6.1-8.1c-0.4-0.5-1.3-0.5-1.7,0l-6.1,8.1h-3.7c-0.6,0-1.1,0.5-1.1,1.1v11.7h-6.4v-8.5h-2.1v8.5h-7.5c-0.6,0-1.1,0.5-1.1,1.1
				v40.5c0,0.6,0.5,1.1,1.1,1.1h17.1h7.5h8.5h1.1h6.4h17.1c2.9,0,5.3-2.4,5.3-5.3V39.5C652,38.9,651.5,38.4,650.9,38.4z M605.1,61.9
				h-14.9V23.5h14.9V61.9z M637.1,2.6l5.8,5.8c-1.2,0.7-2.8,0.6-3.9-0.5l-1.5-1.5c-0.6-0.6-1-1.4-0.9-2.3
				C636.7,3.6,636.8,3.1,637.1,2.6z M616.8,2.8l4.3,5.7h-8.5L616.8,2.8z M612.5,53.3v8.5h-5.3V22.4V10.7h19.2v3.2v19.2h2.1V14.9
				h14.9v23.5h-2.1v-1.1c0-1.8-1.4-3.2-3.2-3.2h-6.4c-1.8,0-3.2,1.4-3.2,3.2v1.1h-9.6c-0.6,0-1.1,0.5-1.1,1.1v11.7h-8.5v2.1H612.5z
				 M639.2,37.3v1.1h-8.5v-1.1c0-0.6,0.5-1.1,1.1-1.1h6.4C638.7,36.3,639.2,36.7,639.2,37.3z M614.7,61.9v-8.5h3.2v5.3
				c0,1.2,0.4,2.3,1.1,3.2H614.7z M649.9,58.7c0,1.8-1.4,3.2-3.2,3.2h-17.1h-6.4c-1.8,0-3.2-1.4-3.2-3.2V48c0.9,0.7,2,1.1,3.2,1.1
				h1.1v3.2c0,0.6,0.5,1.1,1.1,1.1h4.3c0.6,0,1.1-0.5,1.1-1.1v-3.2h1.1h6.4h1.1v3.2c0,0.6,0.5,1.1,1.1,1.1h4.3
				c0.6,0,1.1-0.5,1.1-1.1v-3.2h1.1c1.2,0,2.3-0.4,3.2-1.1v10.7H649.9z M626.4,51.2v-2.1h2.1v2.1H626.4z M632.8,46.9v-2.1h4.3v2.1
				H632.8z M641.3,51.2v-2.1h2.1v2.1H641.3z M649.9,43.7c0,1.8-1.4,3.2-3.2,3.2h-2.1h-4.3h-1.1v-3.2c0-0.6-0.5-1.1-1.1-1.1h-6.4
				c-0.6,0-1.1,0.5-1.1,1.1v3.2h-1.1h-4.3h-2.1c-1.8,0-3.2-1.4-3.2-3.2v-3.2h29.9L649.9,43.7L649.9,43.7z"/>
		</g>
	</g>
	<g>
		<g>
			<rect x="645.6" y="57.6" class="st4" width="2.1" height="2.1"/>
		</g>
	</g>
	<g>
		<g>
			<rect x="641.3" y="57.6" class="st4" width="2.1" height="2.1"/>
		</g>
	</g>
	<g>
		<g>
			<rect x="637.1" y="57.6" class="st4" width="2.1" height="2.1"/>
		</g>
	</g>
</g>
<g>
	<circle class="st5" cx="61.9" cy="57.5" r="16.8"/>
	<line class="st5" x1="48.4" y1="83.8" x2="61.9" y2="99.2"/>
	<line class="st5" x1="75" y1="83.8" x2="61.9" y2="99.2"/>
	<line class="st5" x1="61.9" y1="114.5" x2="61.9" y2="99.2"/>
	<path class="st5" d="M97.9,105.7v3.6c0,3.3-2.7,6-6,6H31.8c-3.3,0-6-2.7-6-6v-3.6"/>
	<path class="st5" d="M31.8,99.7"/>
	<path class="st5" d="M25.8,107.4c0-13.6,11.2-24,24.8-24h22.6c13.6,0,24.7,11.1,24.7,24.7l0,0"/>
</g>
<g id="椭圆_7_1_">
	<path class="st6" d="M487.1,186.5c-10.8,0-19.5-8.7-19.5-19.5s8.7-19.5,19.5-19.5s19.5,8.7,19.5,19.5S497.9,186.5,487.1,186.5z
		 M487.1,148.5c-10.2,0-18.5,8.3-18.5,18.5s8.3,18.5,18.5,18.5s18.5-8.3,18.5-18.5S497.3,148.5,487.1,148.5z"/>
</g>
<g>
	<g>
		<path class="st6" d="M481.4,176.6v-1.1c2.2-0.9,3.3-2.5,3.3-4.8v-2.8h-3v-1.2h3v-3.8c0-1.6,0.4-3,1.3-4s2-1.5,3.5-1.5
			c0.8,0,1.6,0.2,2.4,0.5v1.2c-0.8-0.4-1.6-0.6-2.4-0.6c-1.1,0-1.9,0.4-2.6,1.2c-0.6,0.8-0.9,1.9-0.9,3.4v3.6h4v1.2h-4v2.3
			c0,2.6-0.9,4.3-2.8,5.3h9.7v1.1L481.4,176.6L481.4,176.6z"/>
	</g>
</g>
<g id="椭圆_7-2_1_">
	<path class="st6" d="M195.3,209c-10.8,0-19.5-8.7-19.5-19.5s8.7-19.5,19.5-19.5s19.5,8.7,19.5,19.5S206,209,195.3,209z
		 M195.3,171.1c-10.2,0-18.5,8.3-18.5,18.5s8.3,18.5,18.5,18.5s18.5-8.3,18.5-18.5C213.8,179.3,205.5,171.1,195.3,171.1z"/>
</g>
<g>
	<g>
		<g>
			<path class="st6" d="M189.6,199.1V198c2.2-0.9,3.3-2.5,3.3-4.8v-2.8h-3v-1.2h3v-3.8c0-1.6,0.4-3,1.3-4c0.9-1,2-1.5,3.5-1.5
				c0.8,0,1.6,0.2,2.4,0.5v1.2c-0.8-0.4-1.6-0.6-2.4-0.6c-1.1,0-1.9,0.4-2.6,1.2c-0.6,0.8-0.9,1.9-0.9,3.4v3.6h4v1.2h-4v2.3
				c0,2.6-0.9,4.3-2.8,5.3h9.7v1.1L189.6,199.1L189.6,199.1z"/>
		</g>
	</g>
</g>
<g>
	<path class="st4" d="M617.2,248.8v-1.7c1.8-0.5,2.7-1.7,2.7-3.4v-2h-2.4V240h2.4v-2.8c0-1.4,0.4-2.5,1.3-3.4c0.9-0.9,2-1.4,3.3-1.4
		c0.9,0,1.8,0.1,2.5,0.5v1.9c-0.8-0.5-1.7-0.6-2.4-0.6c-1.8,0-2.7,1.1-2.7,3.3v2.5h3.6v1.7h-3.6v1.7c0,1.8-0.8,2.9-2.2,3.8h8.3v1.7
		h-10.8V248.8z"/>
</g>
<g class="st3">
	<path d="M305.1,171.9c4.4-3.6,6.2-8,6.2-8.6c0-0.3-0.9-1-1.6-1.3c-0.1-0.1-0.3-0.2-0.3-0.3s0.2-0.2,0.6-0.2c0.7,0,2.2,0.7,2.9,1.2
		c0.2,0.1,0.2,0.2,0.2,0.4c0,0.4-1.1,2.4-1.4,2.9c0.8,0.8,1.5,1.6,2.2,2.2c0.7,0.6,1.4,0.3,2.2,2.2c0.2,0.4,0.2,0.6,0.2,0.9
		c0,0.4-0.2,0.6-0.4,0.6c-0.3,0-0.7-0.2-1-0.8c-0.5-0.6-2.5-3.2-3.6-4.5c-2.2,3.1-6,6-6.6,6h-0.1
		C304.6,172.3,304.8,172.1,305.1,171.9z M319.7,160.4c0-0.4-0.7-0.9-2-1.5c-0.3-0.1-0.5-0.2-0.5-0.4c0-0.1,0.2-0.2,0.7-0.3
		c1.4,0.2,2.2,0.5,2.7,0.7c0.3,0.1,0.4,0.3,0.4,0.5s-0.1,0.4-0.1,0.6v13c0,4-0.1,4.6-0.5,5.4c-0.2,0.3-0.3,0.4-0.4,0.4
		c-0.2,0-0.3-0.3-0.3-0.9L319.7,160.4L319.7,160.4z"/>
	<path d="M341.7,174.9c0.9-0.1,0.8-0.5,2-0.5c0.5,0,2.3,0.1,2.3,0.8c0,0.3-0.3,0.5-0.7,0.5h-0.1c-1.8-0.1-4.2-0.2-6.2-0.2
		c-2.8,0-5.7,0.1-8.5,0.3c-0.8,0.2-0.9,0.5-1.3,0.5s-2.9-1-2.9-1.4c0-0.1,0.1-0.1,0.2-0.1s0.3,0,0.5,0.1c0.9,0.2,2.4,0.3,4.3,0.3
		c2.6,0,6-0.1,9.5-0.2L341.7,174.9z M334.3,160.6c-0.2-0.1-0.4-0.2-0.4-0.4c0-0.1,0.2-0.2,0.8-0.2c0.9,0.2,1.7,0.5,2.8,1.2
		c0.2,0.2,0.2,0.3,0.2,0.4c0,0.4-1.4,2.3-1.7,2.7c0.9,0.6,2.4,1.2,3.3,1.6c1.5,0.6,1-0.5,4.4,1.8c0.5,0.4,0.7,0.7,0.7,0.9
		s-0.2,0.4-0.5,0.4c-0.2,0-0.5-0.1-0.8-0.2c-1.6-0.8-5.3-2.6-7.6-4c-3.5,3.7-7.9,5.3-8.4,5.3c-0.1,0-0.2,0-0.2-0.1s0.2-0.2,0.6-0.4
		c3.2-1.4,6.9-4.9,8.2-7.6C335.8,161.7,335.2,161.2,334.3,160.6z"/>
	<path d="M351.3,162.7c0-0.3-0.5-0.6-1.3-0.9c-0.3-0.1-0.5-0.2-0.5-0.3s0.2-0.2,0.6-0.3c0.9,0,1.9,0.2,2.3,0.3c0.6,0,1.3,0,2,0
		c0.9-0.2,0.4-0.6,2-0.6c0.8,0,1.2,0.3,1.2,0.5s-0.3,0.5-0.8,0.5c-1,0-2.5,0.1-3.8,0.1c-0.2,0.2-0.3,0-0.3,0.4v2.8
		c0.4,0,0.8,0,1.5,0c0.8-0.1,0.2-0.5,1.6-0.5c0.7,0,1,0.3,1,0.5s-0.3,0.5-0.9,0.5c-0.8,0-2.3,0.1-3.2,0.2v2.3c0,0.5,0.1,0.8,0.5,0.8
		c1.2,0,3.6-0.6,5.5-1.4c0.2-0.1,0.4-0.1,0.5-0.1s0.1,0,0.1,0c0,0.6-5.7,2.8-6.9,2.8c-0.7,0-1-0.8-1.1-1.5L351.3,162.7z M356.7,178
		c-0.1-0.7-0.2-3.6-0.4-5.3c0-0.4-0.1-0.5-1.3-0.9c-0.2-0.1-0.5-0.2-0.5-0.3s0.2-0.2,0.7-0.3c0.9,0,1.9,0.2,2.5,0.3
		c1,0,4.8-0.1,5.9-0.2c0.5,0,0.2-0.2,1-0.2c0.1,0,1.4,0,1.4,0.3c0,0.2-0.3,0.4-0.4,0.8c-0.3,1.5-0.7,3.5-0.9,4.3
		c0.7,0.1,0.9,0.3,0.9,0.5s-0.2,0.3-0.6,0.3c-1.5,0-5.9,0.2-7.3,0.2c-0.2,0.9-0.5,1.3-0.7,1.3C356.9,178.9,356.7,178.6,356.7,178z
		 M360.9,161.5c0-0.5-1-0.9-1.5-1.1c-0.3-0.2-0.5-0.3-0.5-0.4c0-0.1,0.2-0.2,0.6-0.3c2.4,0.4,2.7,0.7,2.7,1.1c0,0.2-0.1,0.3-0.1,0.5
		v5.9c0,2.8-0.7,3.3-0.9,3.3c-0.2,0-0.4-0.3-0.4-1.2v-3.8c-0.5,0-1.1,0.1-1.3,0.1c-0.5,0.1-0.5,0.2-0.7,0.2s-1.3-0.5-1.3-0.7
		c0-0.1,0.1-0.1,0.3-0.1c0.1,0,0.2,0,0.3,0c0.8,0,1.8,0,2.8-0.1V161.5z M362.7,176.9c0.6-0.1,0.8-0.1,1.4-0.3c0-1,0.2-3.5,0.2-4.6
		c-1.2,0.1-4.7,0.2-6.3,0.2c-0.1,0.2-0.2,0.1-0.2,0.3l0.1,4.4L362.7,176.9z M364.4,160.3c0-0.3-0.9-0.9-1.8-1.3
		c-0.4-0.1-0.6-0.3-0.6-0.4c0-0.1,0.3-0.2,0.8-0.2c1.1,0.1,1.8,0.4,2.3,0.5c0.6,0.2,0.7,0.4,0.7,0.6c0,0.2-0.1,0.4-0.1,0.6v6.2
		c0,0.6-0.1,3.8-1,3.8c-0.2,0-0.4-0.3-0.4-1v-8.8H364.4z"/>
	<path d="M324.5,195.3c-1.6,0-3.6,0.1-4.9,0.2c-0.9,0.1-1.1,0.4-1.6,0.4c-0.7,0-2.9-0.9-2.9-1.2c0-0.1,0.1-0.1,0.3-0.1
		c0.1,0,0.2,0,0.4,0c0.5,0.1,1.7,0.1,3.3,0.1c3.1,0,7.8-0.1,12.2-0.3c1,0,0.7-0.4,2-0.4c0.6,0,1.8,0,1.8,0.7c0,0.3-0.3,0.6-0.7,0.6
		l0,0c-1.3-0.1-3.7-0.1-5.7-0.1c-1.1,0-2.1,0-2.7,0.1c0,3,0,4.2-0.4,5.1c-0.2,0.6-0.5,0.9-0.7,0.9s-0.4-0.3-0.4-1L324.5,195.3z
		 M320.1,200.2c0-0.4-0.5-0.6-1.7-1c-0.2-0.1-0.4-0.2-0.4-0.2c0-0.1,0.2-0.2,0.7-0.3c1,0,1.9,0.1,2.4,0.2c0.4,0.1,0.5,0.2,0.5,0.4
		c0,0.1,0,0.3-0.1,0.5c0,0.9,0,2.1,0,2.9c0,0.5,0.3,0.7,1,0.7h4.7c1.6-0.1,0.9-0.6,2.7-0.6c0.5,0,1.7,0,1.7,0.8
		c0,0.2-0.2,0.5-0.6,0.5h-8.7c-1.5,0-2.3-0.4-2.4-1.5L320.1,200.2z M324.2,185.9c0.1,0,0.4-0.1,0.4-0.4c0-0.1,0-0.2-0.1-0.4
		s-0.2-0.3-0.2-0.4c0-0.1,0.1-0.1,0.2-0.1c0.2,0,1.4,0.2,1.4,0.7c0,0.1-0.2,0.5-0.2,0.6c2.6,0.5,3.8,2.1,3.8,3.7
		c0,1.9-1.6,3.6-4.4,3.6c-2.9,0-4.6-1.8-4.6-3.7C320.5,188,321.7,186.4,324.2,185.9z M321.8,189.6c0,1.4,1.1,2.8,3.3,2.8
		c2.1,0,3.1-1.4,3.1-2.8c0-1.4-1-2.8-3.1-2.8C322.9,186.8,321.8,188.2,321.8,189.6z"/>
	<path d="M348,191.5c-0.2,2.1-1.8,3.7-4.7,3.7c-3,0-4.5-2-4.5-3.9c0-1.7,1.2-3.3,3.6-3.7h0.1c0.4,0,0.6-0.2,0.6-0.5
		c0-0.1,0-0.2-0.1-0.3c-0.2-0.1-0.3-0.3-0.3-0.4c0-0.1,0.1-0.1,0.3-0.1c0.6,0,1.3,0.4,1.3,0.7c0,0.2-0.3,0.4-0.3,0.7
		c2.6,0.4,3.8,1.9,3.9,3.3L348,191.5z M340.1,191.4c0,1.5,1.1,2.9,3.1,2.9c2.3,0,3.5-1.5,3.5-2.9c0-1.5-1.2-3-3.5-3
		C341.2,188.4,340.1,189.9,340.1,191.4z M349,197.4c0-0.2-0.1-0.4-0.3-0.6c-0.1-0.1-0.2-0.2-0.2-0.3s0.1-0.2,0.3-0.2
		c0.4,0,1.5,0.4,1.5,0.7c0,0.2-0.2,0.4-0.3,0.6c2.4,0.4,3.6,2,3.6,3.5c0,1.8-1.5,3.6-4.3,3.6s-4.2-1.8-4.2-3.5
		c0-1.6,1.2-3.2,3.7-3.6C348.9,197.7,349,197.6,349,197.4z M346.2,201.2c0,1.3,1,2.7,3.1,2.7s3.1-1.3,3.1-2.7s-1-2.7-3.1-2.7
		S346.2,199.8,346.2,201.2z M352.7,186.8c0-0.5-0.9-1-1.9-1.5c-0.2-0.1-0.6-0.2-0.6-0.3c0-0.2,0.6-0.3,0.7-0.3
		c0.6,0,2.1,0.3,2.6,0.5c0.6,0.2,0.7,0.4,0.7,0.6c0,0.2-0.1,0.4-0.1,0.7l-0.1,6.7c0,3-0.2,3.4-0.5,4c-0.2,0.3-0.3,0.5-0.5,0.5
		s-0.4-0.5-0.4-1.3v-2.7c-0.7,0.1-1.4,0.1-2.1,0.2c-0.4,0.1-0.5,0.3-0.7,0.3c-0.4,0-1.9-0.7-1.9-0.9c0-0.1,0.1-0.1,0.4-0.1
		c0.2,0,0.9,0,1.1,0c1.1,0,2.2,0,3.3-0.2v-3.3c-0.9,0-1.6,0.1-2,0.1c-0.5,0.1-0.5,0.3-0.8,0.3s-1.9-0.5-1.9-0.9
		c0-0.1,0.1-0.1,0.2-0.1s0.3,0,0.5,0c0.6,0,1,0,1.3,0c1,0,1.5,0,2.7-0.1L352.7,186.8L352.7,186.8z"/>
	<path d="M322.5,222c-0.5,0.1-2.9,0.4-3,0.4c-0.5,0.1-0.5,0.3-0.8,0.3c-0.4,0-2.8-1-2.8-1.4c0-0.1,0.1-0.1,0.2-0.1s0.3,0,0.6,0.1
		c0.4,0.1,1,0.1,1.8,0.1c2.8,0,7.4-0.6,10-1.1c0.3-0.1,0.6-0.1,0.7-0.1s0.1,0,0.1,0.1s-0.2,0.2-0.6,0.4c-1.8,0.5-3.2,0.8-4.7,1.1
		c0,1.4-0.1,1.9-0.4,2.6c-0.2,0.4-0.4,0.6-0.6,0.6s-0.4-0.3-0.4-1v-2H322.5z M322.8,213.5c0.3,0,0.6-0.2,0.6-0.5
		c0-0.1,0-0.2-0.1-0.3s-0.2-0.2-0.2-0.3s0.1-0.1,0.2-0.1c0.6,0,1.1,0.4,1.1,0.7c0,0.2-0.2,0.3-0.3,0.5c2.2,0.4,3.3,1.8,3.3,3.3
		c0,1.6-1.3,3.1-4,3.1s-4.2-1.6-4.2-3.2C319.4,215.3,320.5,213.9,322.8,213.5z M322.2,226.8c0-0.4-0.6-0.6-1.7-0.9
		c-0.3-0.1-0.5-0.2-0.5-0.3s0.2-0.2,0.6-0.3c1.1,0,2.1,0.1,2.5,0.2c0.4,0.1,0.5,0.2,0.5,0.4s0,0.3-0.1,0.6c0,1,0,1.7,0,2.7
		c0,0.5,0.3,0.7,1,0.7h5c1.6-0.1,0.9-0.6,2.8-0.6c0.4,0,1.6,0,1.6,0.7c0,0.2-0.2,0.5-0.6,0.5h-8.9c-1.5,0-2.3-0.4-2.4-1.5v-2.2
		H322.2z M320.6,216.7c0,1.2,0.9,2.4,2.9,2.4c1.9,0,2.8-1.2,2.8-2.4s-0.9-2.4-2.8-2.4S320.6,215.5,320.6,216.7z M330.6,213.1
		c0-0.4-0.8-0.8-1.9-1.3c-0.4-0.1-0.5-0.2-0.5-0.3s0.3-0.2,0.7-0.2c0.9,0,1.8,0.3,2.7,0.6c0.4,0.2,0.5,0.2,0.5,0.4
		c0,0.1-0.1,0.3-0.1,0.6V223c0,2,0,2.7-0.3,3.6c-0.2,0.5-0.5,0.8-0.7,0.8s-0.4-0.3-0.4-1v-2.7c-0.8,0-1.7,0.1-2.7,0.3
		c-0.4,0.1-0.3,0.3-0.6,0.3c-0.3,0-2-0.6-2-0.9c0-0.1,0.1-0.1,0.4-0.1c0.2,0,0.3,0,0.6,0c0.3,0,0.7,0,1.1,0c0.9,0,2,0,3.3-0.2
		L330.6,213.1z"/>
	<path d="M352.7,213.2c0-0.4-0.7-0.9-2-1.5c-0.3-0.1-0.5-0.2-0.5-0.4c0-0.1,0.2-0.2,0.7-0.3c1.4,0.2,2.2,0.5,2.7,0.7
		c0.3,0.1,0.4,0.3,0.4,0.5s-0.1,0.4-0.1,0.6v13c0,4-0.1,4.6-0.5,5.4c-0.2,0.3-0.3,0.4-0.4,0.4c-0.2,0-0.3-0.3-0.3-0.9v-7.1
		c-3.5,1.9-9.7,3.6-11.1,3.6c-0.5,0-1.1-0.9-1.1-1.7l-0.1-3.8c-0.1-0.7-0.8-0.9-1.6-1.2c-0.3-0.1-0.4-0.2-0.4-0.3
		c0-0.2,0.2-0.3,0.8-0.4c1.1,0,2.2,0.2,2.7,0.4c1.1,0,2.4-0.1,3.3-0.2c0.6-0.1,0.7-0.2,1.2-0.3c0.1-1.2,0.2-2.8,0.3-4.2
		c-1.5,0.1-3,0.2-4.4,0.4c-0.6,0.1-0.7,0.4-1,0.4c-0.4,0-2.3-0.8-2.3-1.1c0-0.1,0.1-0.1,0.3-0.1c0.1,0,0.2,0,0.3,0
		c0.8,0.1,1.7,0.2,2.7,0.2c1.1,0,2.2,0,3.6-0.2c0.8-0.1,0.3-0.3,1.7-0.3c0.7,0,1.1,0.1,1.1,0.3s-0.4,0.5-0.5,0.7
		c-0.2,0.9-0.7,3-0.9,3.9c0.7,0.1,1.1,0.3,1.1,0.6c0,0.2-0.2,0.3-0.6,0.4c-1.6,0-3.9,0.1-5.3,0.3c-0.4,0.2-0.6,0-0.6,0.5v0.1
		c0,1.6,0,2.4,0,3.9c0,0.3,0.2,0.5,0.6,0.5c0.1,0,0.2,0,0.2,0c2.6-0.3,6.7-1,10.1-2.7v-10.1H352.7z"/>
</g>
<g class="st3">
	<path class="st4" d="M18,363.8c-2.7,0-9.1,0.1-9.8,0.2c-0.4,0.1-0.6,0.3-0.8,0.3c-0.4,0-2.1-0.7-2.1-1c0,0,0.1-0.1,0.2-0.1
		c0.1,0,0.1,0,0.2,0c1.2,0.2,2.6,0.2,4.2,0.2c1.5,0,3.2,0,5-0.1c0.5-1.8,0.7-3,0.9-4.1c-2,0-4.9,0.1-6,0.2c-0.6,0.1-0.7,0.3-0.9,0.3
		c-0.3,0-1.7-0.6-1.7-0.9c0,0,0-0.1,0.1-0.1s0.2,0,0.3,0c0.7,0.1,1.7,0.2,2.8,0.2c1.4,0,3-0.1,4.6-0.1c0.4,0,0.4-0.2,0.9-0.2
		c0.1,0,0.3,0,0.5,0c0.5,0.1,0.6,0.2,0.6,0.3c0,0.1-0.2,0.3-0.3,0.5c-0.3,1.1-0.9,2.7-1.4,3.8c0.3,0,0.6,0,0.9,0
		c1.1,0,0.9-0.4,1.9-0.4c0.2,0,1.4,0,1.4,0.5c0,0.2-0.2,0.4-0.7,0.4H18V363.8z M9.8,366.6c-0.5,0-0.6,0.2-0.8,0.2
		c-0.4,0-1.5-0.5-1.5-0.7c0,0,0.1-0.1,0.2-0.1h0.1c0.7,0.1,1.7,0.1,2.8,0.1c1.4,0,2.9,0,4.1-0.1c0.4,0,0.3-0.1,0.7-0.1
		c0.4,0,1,0.1,1,0.3c0,0.1-0.2,0.3-0.3,0.4c-0.2,0.8-0.4,1.5-0.5,1.8c0.5,0.1,0.7,0.2,0.7,0.4s-0.2,0.2-0.5,0.2l-5.9,0.1
		c-0.1,0.1-0.2,0.1-0.2,0.2v1.5c0,0.3,0.1,0.4,0.5,0.4h4.2c1,0,0.7-0.4,1.7-0.4s1.3,0.3,1.3,0.5s-0.2,0.3-0.5,0.3h-6.8
		c-0.8,0-1.4-0.3-1.4-0.9v-1.4c-0.1-0.2-0.6-0.4-0.9-0.5c-0.2,0-0.3-0.1-0.3-0.2c0,0,0.1-0.1,0.4-0.1c1,0,1.8,0.2,2,0.3l4-0.1
		c0.5,0,0.7-0.1,1.1-0.2l0.1-2L9.8,366.6z"/>
	<path class="st4" d="M34.6,370.3c-1.2-0.1-3-0.2-5-0.2c-2.8,0-4.2,0.1-5.5,0.3c-0.5,0-0.7,0.2-1,0.2s-0.8-0.1-1.8-0.7
		c-0.2-0.1-0.3-0.2-0.3-0.3c0,0,0-0.1,0.2-0.1c0.1,0,0.2,0,0.4,0c0.8,0.2,2,0.2,3.3,0.2c0.9,0,1.9,0,3-0.1c0-0.3,0-0.9,0-3.6
		c-0.8,0-1.6,0-2.1,0c-0.7,0-1.2-0.3-1.2-1v-1.7c-0.1-0.3-0.6-0.4-1.2-0.6c-0.1,0-0.3-0.1-0.3-0.2s0.2-0.2,0.8-0.2
		c0.6,0,1.2,0.1,1.7,0.2c0.9,0,3.2-0.1,4.4-0.2c0.5,0,0.6-0.1,1.1-0.2c0.1-0.4,0.2-1.5,0.2-2.4c-1.4,0.1-3.6,0.2-5.5,0.4
		c-0.5,0.1-0.6,0.3-0.8,0.3c-0.3,0-1.7-0.6-1.7-0.8c0,0,0-0.1,0.2-0.1c0,0,0.1,0,0.2,0c0.7,0.1,1.5,0.1,2.3,0.1c1.4,0,3-0.1,4.6-0.2
		c0.4,0,0.4-0.2,1.1-0.2c0.7,0,1.1,0.1,1.1,0.3c0,0.2-0.3,0.4-0.4,0.6c-0.1,0.6-0.5,1.5-0.6,2c0.4,0,0.7,0.2,0.7,0.3
		c0,0.1-0.1,0.2-0.4,0.2c-2.2,0-4.3,0.2-6,0.3c-0.2,0.1-0.3,0-0.3,0.2l0,0c0,0.3,0,1.2,0,2c0,0.3,0.1,0.3,0.5,0.4
		c1.1,0,2.7-0.1,4.3-0.2c0.9-0.1,0.5-0.5,1.7-0.5c0.4,0,1,0,1,0.4c0,0.2-0.2,0.4-0.5,0.4c-1.4,0.1-2.5,0.2-3.5,0.2
		c0,2.3,0,2.9,0,3.6c0.7,0,2,0,3.4-0.1c0.6,0,0.5-0.3,1.3-0.3c0.4,0,1.9,0.1,1.9,0.7C35.3,370.1,35,370.3,34.6,370.3L34.6,370.3z"/>
	<path class="st4" d="M48.2,362.1c-0.8,0-1.3,0.1-1.7,0.1s-0.5,0.2-0.8,0.2c-0.2,0-0.4,0-0.8-0.2c0,1.3-0.1,2.4-0.2,2.7
		c-0.1,0.3-0.3,0.6-0.5,0.6c-0.1,0-0.2-0.2-0.3-0.7l-4,0.1c-0.2,0.6-0.4,1-0.6,1c-0.1,0-0.3-0.2-0.3-0.6c0-0.3,0-3.8,0-4.5
		c0-0.2,0-0.4-1.1-0.8c-0.2,0-0.3-0.1-0.3-0.2s0.1-0.2,0.5-0.2c1.6,0.1,1.9,0.2,1.9,0.4c0,0.1,0,0.2,0,0.3v1.3l4-0.1v-1.7
		c0-0.2-0.4-0.4-1-0.7c-0.2,0-0.4-0.1-0.4-0.2s0.2-0.2,0.6-0.2c1.6,0.2,1.8,0.3,1.8,0.6c0,0.1,0,0.2,0,0.4c0,0.6,0,1.3,0,2.1
		c0.2,0,0.4,0,0.6,0c0.8,0,2,0,2.7-0.1V359c0-0.4-0.8-0.8-1.4-1c-0.2-0.1-0.4-0.2-0.4-0.3s0.2-0.2,0.5-0.2c0.2,0,2.3,0.4,2.3,0.8
		c0,0.1,0,0.2,0,0.4v5.2c0,2.3-0.6,2.5-0.7,2.5c-0.2,0-0.3-0.3-0.3-1.1L48.2,362.1L48.2,362.1z M39.9,361.9v2.4l4-0.1v-2.4
		L39.9,361.9z M42.1,369.8c0-0.2-0.3-0.3-0.8-0.4c-0.2,0-0.3-0.1-0.3-0.2c0,0,0.2-0.2,0.7-0.2c0.7,0,1.4,0.1,1.6,0.2
		c1.5,0,2.4,0,3.9-0.1c0.4,0,0.5-0.1,0.8-0.1c0-0.3,0.1-1.1,0.1-1.9c-1,0-3.2,0.1-4.7,0.2c-0.5,0.1-0.5,0.3-0.8,0.3
		c-0.3,0-1.6-0.5-1.6-0.7c0,0,0.1-0.1,0.3-0.1c0.1,0,0.1,0,0.2,0c0.5,0,1.3,0.1,2.2,0.1c1.3,0,2.8-0.1,4.1-0.1
		c0.3,0,0.3-0.1,0.6-0.1c0.1,0,0.2,0,0.4,0c0.5,0,0.6,0.1,0.6,0.2s-0.2,0.3-0.2,0.4c-0.2,0.5-0.4,1.2-0.6,1.7
		c0.4,0.1,0.7,0.2,0.7,0.4s-0.2,0.2-0.5,0.2c-1.2,0-3.6,0.1-5.3,0.1c-0.2,0.1-0.3,0.1-0.3,0.3v1.4c0,0.3,0.2,0.4,0.4,0.4
		c0.3,0,0.8,0,1.4,0c0.8,0,1.8,0,2.8,0c1-0.1,0.7-0.4,1.6-0.4c0.4,0,1.2,0,1.2,0.5c0,0.2-0.2,0.4-0.5,0.4h-6.4
		c-1.2,0-1.4-0.4-1.4-0.9v-1.6H42.1z"/>
	<path class="st4" d="M61,360.7c-0.6,0.1-0.7,0.3-1,0.3c-0.4,0-1.7-0.7-1.7-0.9c0-0.1,0.1-0.1,0.2-0.1c0.1,0,0.2,0,0.4,0
		c0.8,0.1,1.8,0.2,2.9,0.2c0.6,0,1.3,0,2,0c0.4,0,0.4-0.2,0.8-0.2c0.1,0,0.2,0,0.3,0c0.5,0,0.7,0.1,0.7,0.3c0,0.1-0.2,0.3-0.3,0.5
		c-1.4,3.7-3.5,6.1-7.1,8.5c-0.3,0.2-0.5,0.2-0.6,0.2h-0.1c0-0.1,0.1-0.2,0.4-0.4c2.8-2.1,5.4-5.4,6.2-8.5L61,360.7z M68.6,359.2
		c0-0.4-0.8-0.8-1.4-1.1c-0.1,0-0.5-0.2-0.5-0.3c0-0.1,0.4-0.2,0.5-0.2c0.5,0,1.6,0.3,2,0.5s0.5,0.3,0.5,0.4s-0.1,0.4-0.1,0.7v10.4
		c0,2-0.4,2.9-0.6,2.9s-0.3-0.4-0.4-1.2v-6.9l-2.4,0.1c-0.4,0-0.4,0.2-0.6,0.2s-1.3-0.4-1.3-0.6c0-0.1,0.3-0.1,0.5-0.1
		c0.5,0,3.2,0,3.8,0V359.2z"/>
	<path class="st4" d="M82.2,359.8c0-0.3-0.5-0.6-1.2-0.9c-0.2-0.1-0.4-0.2-0.4-0.3c0-0.1,0.1-0.1,0.5-0.2c1.7,0.3,2,0.5,2,0.8
		c0,0.1,0,0.2,0,0.3v5.5h2v-5.9c0-0.3-0.6-0.7-1.3-1.1c-0.2-0.1-0.3-0.2-0.3-0.3s0.1-0.1,0.6-0.1c1.8,0.4,2.1,0.7,2.1,0.9
		c0,0.1,0,0.2,0,0.4L86.1,371c-0.1,1-0.4,1.5-0.6,1.5s-0.3-0.3-0.3-0.8v-6.2h-2l-0.1,4.7c-0.1,0.8-0.3,1.2-0.6,1.2
		c-0.2,0-0.3-0.3-0.3-0.9v-3.8c-1.6,1-4.4,2.1-5.6,2.1c-0.4,0-0.8-0.7-0.8-1.2v-2.8c0-0.3-0.3-0.4-0.9-0.6c-0.1,0-0.2-0.1-0.2-0.1
		c0-0.1,0.1-0.2,0.4-0.2c0.8,0,1.4,0.1,1.8,0.2c0.3,0,0.8,0,1.4-0.1c0.4,0,0.4-0.1,0.7-0.2c0.1-0.9,0.1-1.8,0.2-3
		c-0.9,0.1-1.7,0.1-2.1,0.2s-0.5,0.2-0.7,0.2c-0.3,0-1.4-0.5-1.4-0.7c0,0,0-0.1,0.2-0.1s1.1,0,1.4,0c0.8,0,1.6,0,2.1-0.1
		c0.5,0,0-0.2,1.3-0.2c0.6,0,0.7,0.1,0.7,0.2s-0.2,0.3-0.3,0.5c-0.3,1.4-0.4,2.2-0.6,2.9c0.4,0.1,0.5,0.2,0.5,0.3
		c0,0.3-0.4,0.3-0.6,0.3c-0.1,0-2.1,0.2-2.6,0.2c-0.1,0-0.1,0-0.1,0.2c0,0.4,0,1,0,1.6s0,1.1,0,1.4c0,0.2,0.1,0.2,0.4,0.2
		c1.7-0.2,3.5-0.8,5-1.6v-6.5H82.2z"/>
	<path class="st4" d="M107.6,365.2c-0.8-0.1-1.9-0.1-3-0.1c-1.2,0-2.5,0-3.3,0.1c-1,0-4,0.2-4.7,0.3c-0.5,0-0.5,0.3-0.8,0.3
		c-0.4,0-2-0.7-2-0.9c0,0,0.1-0.1,0.2-0.1s0.2,0,0.3,0c0.4,0.1,1.5,0.2,2.8,0.2c2.2,0,5.3-0.1,7.9-0.3c0.8,0,0.7-0.3,1.5-0.3
		s1.6,0.1,1.6,0.5C108.2,365,108,365.2,107.6,365.2L107.6,365.2z M102.7,358.1c0.9-0.1,0.6-0.4,1.7-0.4c0.2,0,1.4,0,1.4,0.5
		c0,0,0,0.4-0.7,0.4c-2.2,0-5.7,0.1-6.9,0.2c-0.4,0.1-0.5,0.2-0.7,0.2s-1.7-0.6-1.7-0.9c0,0,0-0.1,0.2-0.1c0.1,0,0.2,0,0.4,0
		c0.8,0.1,1.7,0.2,2.6,0.2C99.3,358.3,102.2,358.2,102.7,358.1z M100.5,362.9c-0.6,0-1.6,0.1-2.2,0.1c-0.4,0.1-0.5,0.3-0.7,0.3
		c-0.3,0-1.6-0.6-1.6-0.8c0,0,0.1-0.1,0.2-0.1s0.1,0,0.2,0c0.7,0.1,1.6,0.1,2.4,0.1c1,0,2,0,2.8-0.1c0.4-1.1,0.7-2.4,0.7-2.4
		c0-0.2-0.2-0.4-0.5-0.6c-0.1-0.1-0.2-0.1-0.2-0.2s0.1-0.1,0.5-0.1c0.1,0,1.5,0.4,1.5,0.7c0,0.1-0.1,0.2-0.2,0.4
		c-0.4,0.7-0.9,1.6-1.3,2.2c0.3,0,0.6,0,0.9-0.1c0.6-0.1,0.3-0.4,1.4-0.4c0.4,0,1.2,0,1.2,0.5c0,0.3-0.3,0.4-0.6,0.4
		c-1.1,0-2.5,0-3.5,0.1H100.5z M97.7,369.8c0-0.2-0.3-0.3-0.9-0.4c-0.1,0-0.3-0.1-0.3-0.1c0-0.1,0.3-0.2,0.6-0.2
		c0.7,0,1.5,0.1,1.7,0.2c1.5,0,2.3,0,3.8-0.1c0.4,0,0.5-0.1,0.9-0.1c0-0.3,0.1-1,0.1-1.8c-1.1,0-3.1,0.1-4.7,0.2
		c-0.5,0.1-0.5,0.3-0.8,0.3s-1.6-0.5-1.6-0.7c0,0,0.1-0.1,0.2-0.1s0.1,0,0.2,0c0.6,0.1,1.3,0.1,2.2,0.1c1.3,0,2.7,0,4-0.1
		c0.3-0.1,0.3-0.1,0.5-0.1c1,0,1,0.2,1,0.2c0,0.1-0.1,0.3-0.2,0.5c-0.2,0.5-0.4,1.2-0.5,1.5c0.4,0.1,0.7,0.2,0.7,0.4
		c0,0.1-0.2,0.2-0.6,0.2c-1.2,0-3.6,0.1-5.2,0.1c-0.2,0.1-0.3,0.1-0.3,0.2v1.4c0,0.3,0.2,0.4,0.4,0.4c0.3,0,0.8,0,1.3,0
		c0.8,0,1.7,0,2.7,0c1-0.1,0.6-0.4,1.6-0.4c0.4,0,1.2,0,1.2,0.5c0,0.2-0.2,0.4-0.6,0.4h-6c-1.2,0-1.4-0.4-1.4-0.9V369.8z
		 M99.6,361.6c-0.1,0.4-0.3,0.7-0.5,0.7c-0.1,0-0.3-0.1-0.3-0.3c-0.1-0.5-0.4-1.5-0.7-2c-0.1-0.2-0.2-0.4-0.2-0.4v-0.1
		c0.4,0,1.6,1.2,1.7,1.9V361.6z"/>
	<path class="st4" d="M118.7,359.8c0-0.4-0.5-0.6-1.1-0.9c-0.1-0.1-0.3-0.1-0.3-0.2s0.1-0.1,0.5-0.2c1.6,0.3,1.9,0.4,1.9,0.7
		c0,0.1,0,0.2,0,0.4v3.7l2-0.1v-4c-0.1-0.3-0.6-0.7-1.3-1c-0.2-0.1-0.3-0.2-0.3-0.3c0-0.1,0.2-0.2,0.6-0.2c1.8,0.4,2.1,0.6,2.1,0.9
		c0,0.1-0.1,0.3-0.1,0.4l-0.1,6.4c0,1-0.3,1.6-0.6,1.6c-0.2,0-0.3-0.3-0.3-0.8v-2.6l-2,0.1l-0.1,1.3c-0.1,0.8-0.4,1.2-0.6,1.2
		s-0.3-0.2-0.3-0.7v-1.4c-1.7,1-4.8,2.2-5.6,2.2c-0.5,0-0.7-0.7-0.7-1.2v-1.7c0-0.3-0.3-0.4-0.9-0.6c-0.1,0-0.2-0.1-0.2-0.1
		c0-0.1,0.1-0.1,0.5-0.2c0.8,0,1.4,0.1,1.8,0.2c0.3,0,0.7,0,1.4-0.1c0.4,0,0.4-0.1,0.7-0.2c0-0.7,0.1-1.5,0.1-2
		c-0.9,0-1.7,0.1-2.3,0.1c-0.4,0.1-0.4,0.2-0.7,0.2c-0.3,0-1.3-0.5-1.3-0.7c0,0,0.1-0.1,0.2-0.1s0.1,0,0.2,0c0.4,0,0.7,0,1.1,0
		c0.7,0,1.5,0,2.1,0c0.5,0,0-0.2,1.2-0.2c0.5,0,0.7,0.1,0.7,0.2s-0.2,0.3-0.3,0.5c-0.2,0.7-0.3,1.2-0.5,1.9c0.4,0,0.6,0.2,0.6,0.3
		s-0.3,0.3-0.7,0.3c-0.5,0-1.9,0.1-2.6,0.1c-0.1,0.1-0.2,0-0.2,0.2c0,0.5,0,1.2,0,1.9c0,0.1,0.1,0.2,0.4,0.2c0.2,0,2.7-0.4,4.9-1.6
		v-3.9H118.7z M118.3,367.3c0-0.3-0.4-0.6-0.8-0.8c-0.2-0.1-0.3-0.1-0.3-0.2s0.2-0.1,0.5-0.1c0.5,0,1.9,0.6,1.9,0.9
		c0,0.2-0.2,0.5-0.7,1.2c0.7,0.7,1.4,1.2,1.9,1.5c0.7,0.5,0.9,0,2.2,1.7c0.1,0.2,0.2,0.4,0.2,0.5c0,0.2-0.1,0.3-0.3,0.3
		c-0.1,0-0.3-0.1-0.4-0.2c-0.7-0.7-2.8-2.5-3.8-3.4c-1.4,1.9-3.1,3.2-5.3,3.9c-0.1,0-0.3,0.1-0.3,0.1H113c0,0,0.1-0.1,0.3-0.3
		c1.7-0.9,3.6-2.5,4.9-4.7C118.3,367.5,118.3,367.4,118.3,367.3z"/>
	<path class="st4" d="M130.3,363.1c-0.4,0.1-0.5,0.2-0.7,0.2c-0.3,0-1.6-0.6-1.6-0.8c0-0.1,0.1-0.1,0.2-0.1c0,0,0.1,0,0.2,0
		c0.7,0.1,1.6,0.1,2.5,0.1s1.9,0,2.7-0.1c0.5-1.5,0.8-2.4,0.8-2.4c0-0.2-0.2-0.4-0.5-0.6c-0.2-0.1-0.3-0.1-0.3-0.2s0.1-0.1,0.5-0.1
		c0,0,1.5,0.4,1.5,0.7c0,0.1-0.1,0.2-0.2,0.5c-0.5,0.7-1,1.5-1.3,2.1c0.3,0,0.6,0,0.9-0.1c0.6-0.1,0.3-0.4,1.5-0.4
		c0.3,0,1.2,0,1.2,0.5c0,0.2-0.2,0.4-0.6,0.4c-1.1,0-2.5,0-3.5,0c0,0.8,0,1.4-0.1,2c1.3,0,2.6,0,3.6-0.1c0.7-0.1,0.6-0.3,1.4-0.3
		c0.4,0,1.7,0,1.7,0.5c0,0.2-0.2,0.4-0.6,0.4h-0.1c-0.8,0-2.3-0.1-4-0.1c-2.2,0-4.7,0-6.4,0.2c-0.5,0.1-0.6,0.3-0.9,0.3
		c-0.3,0-2.1-0.6-2.1-0.9c0-0.1,0.1-0.1,0.2-0.1c0.1,0,0.1,0,0.2,0c0.9,0.2,2.1,0.2,3.4,0.2c0.9,0,1.9,0,2.8-0.1
		c0-0.6-0.1-1.3-0.1-2.1C131.5,363,130.8,363,130.3,363.1z M134.8,358.3c0.9-0.1,0.6-0.4,1.8-0.4c0.2,0,1.3,0,1.3,0.5
		c0,0,0,0.4-0.7,0.4c-2.2,0-5.7,0.1-6.9,0.2c-0.4,0.1-0.5,0.2-0.7,0.2s-1.7-0.6-1.7-0.9c0,0,0-0.1,0.1-0.1c0.1,0,0.2,0,0.4,0.1
		c0.8,0.1,1.7,0.2,2.6,0.2C132.1,358.4,134.4,358.3,134.8,358.3z M128.8,367.5c-0.2,0-0.3-0.1-0.3-0.2s0.1-0.1,0.5-0.2
		c0.6,0,1.4,0.1,1.8,0.2c0.7,0,3.6-0.1,4.4-0.1c0.5-0.1,0-0.2,1-0.2c0.6,0,0.8,0.1,0.8,0.2s-0.2,0.3-0.3,0.6
		c-0.2,1.1-0.5,2.5-0.6,3.1c0.5,0.1,0.7,0.2,0.7,0.4c0,0.1-0.2,0.2-0.5,0.2c-1.1,0-4.5,0.1-5.5,0.1c-0.1,0.5-0.3,0.8-0.5,0.8
		c-0.1,0-0.3-0.2-0.3-0.7c0-0.1-0.2-3.1-0.3-3.7C129.7,367.8,129.2,367.6,128.8,367.5z M131.6,361.4c0,0.7-0.4,0.9-0.5,0.9
		s-0.3-0.1-0.3-0.3c-0.1-0.4-0.5-1.4-0.8-2c-0.1-0.2-0.2-0.3-0.2-0.4c0,0,0-0.1,0.1-0.1C130.1,359.4,131.5,360.6,131.6,361.4z
		 M134.6,371.1c0.5-0.1,0.6-0.1,1-0.2c0-0.7,0.1-2.5,0.1-3.3c-0.8,0-3.6,0.1-4.8,0.2c-0.1,0.1-0.2,0.1-0.2,0.2l0.1,3.2L134.6,371.1z
		"/>
</g>
<g class="st3">
	<path class="st4" d="M43.3,141.4c-1.1,0-2.8,0.1-4,0.3c-0.4,0.1-0.5,0.3-0.8,0.3c-0.4,0-2.3-0.7-2.3-1c0,0,0.1-0.1,0.2-0.1
		c0.1,0,0.3,0,0.5,0.1c0.6,0,1.3,0.1,2.2,0.1c2.8,0,6.7-0.2,8.7-0.4c0.6-0.1,0.6-0.3,1.1-0.3c0.3,0,0.7,0,1.3,0.2
		c0.3,0.1,0.5,0.3,0.5,0.5s-0.2,0.4-0.5,0.4h-0.1c-1.1-0.1-2-0.1-3.4-0.1c-0.7,0-1.5,0-2.6,0c0,2.1,0,5.2-0.3,6.1
		c-0.1,0.4-0.3,0.6-0.4,0.6c-0.1,0-0.3-0.3-0.3-0.8v-5.9H43.3z M39.5,134.8c0-0.2-0.5-0.4-1.1-0.6c-0.2,0-0.4-0.1-0.4-0.2
		c0-0.1,0.2-0.2,0.6-0.2c1.2,0,1.7,0.2,2,0.3c0.4,0,0.8,0,1.2,0c1,0,1.9,0,3.3-0.1c0.7-0.1,0.6-0.4,1.5-0.4c0.4,0,1.2,0,1.2,0.4
		c0,0.2-0.2,0.3-0.5,0.4c-1.2,0-5.2,0.1-6.6,0.1c-0.2,0.1-0.3,0-0.3,0.2v1.7c1.2,0,3.3,0,4.4-0.1c0.9-0.1,0.6-0.3,1.6-0.3
		c0.5,0,1.1,0.1,1.1,0.4c0,0.2-0.2,0.3-0.5,0.3c-1.8,0-6.1,0.1-6.6,0v1.4c0,0.5,0.1,0.5,1.9,0.5c0.8,0,1.9,0,2.7-0.1
		s0.5-0.4,1.5-0.4c0.7,0,1.5,0.1,1.5,0.5c0,0.2-0.2,0.4-0.6,0.4h-7c-0.7,0-0.9-0.4-0.9-1.1L39.5,134.8z"/>
	<path class="st4" d="M58.9,136c0.3,0,0.3-0.1,0.7-0.1c0.9,0,1,0.1,1,0.2c0,0.1-0.3,0.4-0.4,0.6c-0.7,1.1-1.6,2.5-2.2,3.2
		c0.4,0.3,1.1,0.9,1.4,1.2c0.6,0.4,0.8,0.1,1.6,1.3c0.2,0.4,0.3,0.6,0.3,0.8s-0.1,0.4-0.3,0.4c-0.1,0-0.3-0.1-0.5-0.3
		c-0.5-0.5-1.3-1.5-2.9-3.1c-1.9,2.1-4.9,4.1-5.3,4.1h-0.1c0-0.1,0.1-0.2,0.4-0.4c2-1.3,4.9-4,6.5-7.4c-0.8,0-2.9,0.2-3.4,0.2
		c-0.4,0.1-0.5,0.3-0.7,0.3c-0.3,0-1.6-0.6-1.6-0.8c0,0,0.1-0.1,0.2-0.1c0.1,0,0.2,0,0.3,0c0.5,0.1,1.1,0.1,1.7,0.1
		C56.6,136.3,58.4,136.1,58.9,136z M62.9,134.3c0-0.3-0.9-0.7-1.6-1c-0.2-0.1-0.3-0.1-0.3-0.2c0-0.1,0.2-0.2,0.7-0.2
		c0.7,0.1,1.3,0.3,1.8,0.4c0.3,0.1,0.4,0.2,0.4,0.4c0,0.1,0,0.3,0,0.5v5.8h0.8c0.8-0.1,0.5-0.4,1.5-0.4c0.3,0,1,0,1,0.5
		c0,0.2-0.2,0.4-0.5,0.4h-2.8v4.6c0,1-0.1,1.7-0.4,2.4c-0.1,0.2-0.3,0.3-0.4,0.3s-0.2-0.2-0.2-0.7V134.3z"/>
	<path class="st4" d="M74.9,136c0.3,0,0.3-0.1,0.7-0.1c0.9,0,1,0.1,1,0.2c0,0.1-0.3,0.4-0.4,0.6c-0.7,1.1-1.6,2.5-2.2,3.2
		c0.4,0.3,1.1,0.9,1.4,1.2c0.6,0.4,0.8,0.1,1.6,1.3c0.2,0.4,0.3,0.6,0.3,0.8s-0.1,0.4-0.3,0.4c-0.1,0-0.3-0.1-0.5-0.3
		c-0.5-0.5-1.3-1.5-2.9-3.1c-1.9,2.1-4.9,4.1-5.3,4.1h-0.1c0-0.1,0.1-0.2,0.4-0.4c2-1.3,4.9-4,6.5-7.4c-0.8,0-2.9,0.2-3.4,0.2
		c-0.4,0.1-0.5,0.3-0.7,0.3c-0.3,0-1.6-0.6-1.6-0.8c0,0,0.1-0.1,0.2-0.1s0.2,0,0.3,0c0.5,0.1,1.1,0.1,1.7,0.1
		C72.6,136.3,74.4,136.1,74.9,136z M78.9,134.3c0-0.3-0.9-0.7-1.6-1c-0.2-0.1-0.3-0.1-0.3-0.2c0-0.1,0.2-0.2,0.7-0.2
		c0.7,0.1,1.3,0.3,1.8,0.4c0.3,0.1,0.4,0.2,0.4,0.4c0,0.1,0,0.3,0,0.5v5.8h0.8c0.8-0.1,0.5-0.4,1.5-0.4c0.3,0,1,0,1,0.5
		c0,0.2-0.2,0.4-0.5,0.4h-2.8v4.6c0,1-0.1,1.7-0.4,2.4c-0.1,0.2-0.3,0.3-0.4,0.3s-0.2-0.2-0.2-0.7V134.3z"/>
</g>
<g class="st3">
	<path class="st4" d="M126.4,66.4c0-0.3-0.2-0.4-0.9-0.7c-0.2,0-0.3-0.1-0.3-0.2c0-0.1,0.1-0.1,0.4-0.2c0.8,0,1.4,0.2,1.8,0.3
		c1.2,0,1.7,0,2.9-0.1c0.4,0,0.1-0.1,1.1-0.1c0.5,0,0.7,0.1,0.7,0.2c0,0.2-0.3,0.4-0.4,0.6c-0.2,1.2-0.5,3.1-0.7,4.2
		c0.5,0.1,0.7,0.3,0.7,0.4c0,0.2-0.4,0.2-1.2,0.2c-0.9,0-2.3,0.1-3.1,0.1c-0.1,0.7-0.3,0.9-0.5,0.9c-0.1,0-0.2-0.4-0.3-1.4
		L126.4,66.4z M127.7,65.9c-0.2,0.1-0.3,0-0.3,0.3l0.1,4.3c0.5,0,1.3,0,2,0c0.4-0.1,0.7-0.1,0.9-0.2c0.1-1.2,0.1-3.1,0.1-4.5
		L127.7,65.9z M133.3,63.9c0-0.3-0.5-0.6-1.2-0.9c-0.2-0.1-0.4-0.2-0.4-0.3c0-0.1,0.1-0.1,0.5-0.2c1.7,0.3,2,0.5,2,0.8
		c0,0.1,0,0.2,0,0.3v5.5h2v-5.9c0-0.3-0.6-0.7-1.3-1.1c-0.2-0.1-0.3-0.2-0.3-0.3s0.1-0.1,0.6-0.1c1.8,0.4,2.1,0.7,2.1,0.9
		c0,0.1,0,0.2,0,0.4l-0.1,12.1c-0.1,1-0.4,1.5-0.6,1.5c-0.2,0-0.3-0.3-0.3-0.8v-6.2h-2l-0.1,4.7c-0.1,0.8-0.3,1.2-0.6,1.2
		c-0.2,0-0.3-0.3-0.3-0.9L133.3,63.9L133.3,63.9z"/>
	<path class="st4" d="M151,62.9c0-0.2-0.4-0.5-1.4-0.9c-0.2-0.1-0.4-0.2-0.4-0.3c0-0.1,0.2-0.2,0.6-0.2c0.8,0.1,1.2,0.3,1.7,0.4
		c0.5,0.2,0.6,0.3,0.6,0.4s-0.1,0.2-0.1,0.4V67c0.2,0,0.4,0,0.6,0c0.7-0.1,0.4-0.4,1.6-0.4c0.4,0,1,0,1,0.4c0,0.2-0.2,0.4-0.4,0.4
		h-2.7c0,1.8-0.6,2.3-0.8,2.3c-0.1,0-0.2-0.2-0.2-0.6v-1.9c-2.3,1-5.8,2.2-7.8,2.3c-0.4,0-0.7-0.6-0.8-1.4v-3.2
		c0-0.3-0.5-0.4-1.3-0.7c-0.2,0-0.3-0.1-0.3-0.2c0-0.1,0.1-0.1,0.4-0.2c0.9,0,1.9,0.1,2.2,0.2c1.1,0,1.9-0.1,2.6-0.1
		c1-0.1,0.5-0.4,2-0.4c0.4,0,0.6,0.2,0.6,0.4c0,0.2-0.2,0.4-0.5,0.4c-1.7,0.1-3.2,0.2-4.3,0.2c-0.2,0.1-0.3,0-0.3,0.2
		c0,0.9,0,2,0,2.7c0,1.1,0,1.2,0.5,1.2c0.4,0,3.8-0.4,7.1-1.7v-4H151z M145.1,73.9c0-0.2-0.3-0.3-0.8-0.4c-0.2,0-0.3-0.1-0.3-0.2
		c0,0,0.2-0.2,0.7-0.2c0.7,0,1.4,0.1,1.6,0.2c1.5,0,2.1,0,3.7-0.1c0.4,0,0.5-0.1,0.8-0.1c0-0.3,0.1-1.1,0.1-1.9c-1,0-3,0.1-4.5,0.2
		c-0.5,0.1-0.5,0.3-0.8,0.3S144,71.2,144,71c0,0,0.1-0.1,0.2-0.1c0.1,0,0.1,0,0.2,0c0.5,0,1.3,0.1,2.1,0.1c1.2,0,2.7-0.1,4-0.1
		c0.3,0,0.3-0.1,0.6-0.1c0.1,0,0.2,0,0.4,0c0.5,0,0.6,0.1,0.6,0.2c0,0.1-0.2,0.3-0.2,0.4c-0.2,0.5-0.4,1.2-0.6,1.7
		c0.4,0.1,0.7,0.2,0.7,0.4c0,0.2-0.2,0.2-0.5,0.2c-1.2,0-3.4,0.1-5.1,0.1c-0.2,0.1-0.3,0.1-0.3,0.3v1.4c0,0.3,0.1,0.4,0.4,0.4
		c0.3,0,0.8,0,1.4,0c0.8,0,1.8,0,2.8,0c1-0.1,0.6-0.4,1.6-0.4c0.4,0,1.2,0,1.2,0.5c0,0.2-0.2,0.4-0.6,0.4h-6.4
		c-1.2,0-1.4-0.4-1.4-0.9L145.1,73.9L145.1,73.9z"/>
	<path class="st4" d="M163.9,71.4c-0.2,0.7-0.4,1.1-0.6,1.1c-0.1,0-0.2-0.2-0.3-0.6c0-0.4,0-4.4-0.1-5.7c0-0.3-0.1-0.4-1-0.7
		c-0.2,0-0.4-0.1-0.4-0.2c0-0.1,0.2-0.2,0.5-0.2c1.6,0.1,1.9,0.3,1.9,0.5c0,0,0,0.2,0,0.3v1.7h3.1v-2.1c0-0.2-0.4-0.5-1-0.8
		c-0.2,0-0.4-0.1-0.4-0.2c0-0.1,0.2-0.1,0.5-0.2c1.6,0.2,1.8,0.4,1.8,0.6c0,0.1,0,0.2,0,0.4v4.6c0,0.8,0,1.4-0.3,1.9
		c-0.1,0.2-0.3,0.4-0.4,0.4c-0.1,0-0.2-0.2-0.2-0.8L163.9,71.4z M163.9,67.9v3h3.1v-3.1L163.9,67.9z M169.8,63.9
		c0-0.3-0.5-0.6-1.2-0.9c-0.2-0.1-0.4-0.2-0.4-0.3c0-0.1,0.1-0.1,0.5-0.2c1.7,0.3,2,0.5,2,0.8c0,0.1,0,0.2,0,0.3v5.5h2v-5.9
		c0-0.3-0.6-0.7-1.3-1.1c-0.2-0.1-0.3-0.2-0.3-0.3s0.1-0.1,0.6-0.1c1.8,0.4,2.1,0.7,2.1,0.9c0,0.1,0,0.2,0,0.4l-0.2,12.1
		c-0.1,1-0.4,1.5-0.6,1.5c-0.2,0-0.3-0.3-0.3-0.8v-6.2h-2l-0.1,4.7c-0.1,0.8-0.3,1.2-0.6,1.2c-0.2,0-0.3-0.3-0.3-0.9V63.9H169.8z"/>
	<path class="st4" d="M187.5,63c0-0.1-0.4-0.5-1.4-0.9c-0.2-0.1-0.4-0.2-0.4-0.3c0-0.1,0.2-0.2,0.6-0.2c0.8,0.1,1.3,0.3,1.8,0.4
		c0.3,0.1,0.4,0.2,0.4,0.4c0,0.1-0.1,0.3-0.1,0.4v4.4c0.2,0,0.4,0,0.6,0c0.7-0.2,0.4-0.4,1.6-0.4c0.4,0,1,0,1,0.4
		c0,0.2-0.2,0.4-0.4,0.4l-2.7,0.1c0,1.3-0.1,2-0.3,2.5c-0.1,0.3-0.3,0.6-0.5,0.6c-0.1,0-0.2-0.2-0.2-0.7v-2.6
		c-2.3,1-6.6,2.2-7.7,2.2c-0.3,0-0.7-0.5-0.7-1.2v-3.3c0-0.4-0.6-0.5-1.2-0.7c-0.2,0-0.2-0.1-0.2-0.1s0.1-0.2,0.6-0.2
		c0.8,0,1.6,0.1,2,0.2c1,0,1.7-0.1,2.2-0.1c1-0.1,0.5-0.4,2-0.4c0.4,0,0.6,0.2,0.6,0.4c0,0.2-0.2,0.3-0.5,0.3
		c-1.7,0.1-3,0.2-4.1,0.2c-0.2,0.1-0.3,0-0.3,0.2c0,1.2-0.1,2.4-0.1,3.1c0,0.8,0,1,0.4,1c0.2,0,4.1-0.4,7.1-1.6V63H187.5z
		 M185.1,70.9c0-0.1-0.1-0.3-0.2-0.4c-0.1-0.1-0.1-0.1-0.1-0.2c0-0.1,0.1-0.1,0.2-0.1c0.3,0,1.1,0.3,1.1,0.5c0,0.1-0.2,0.3-0.2,0.5
		c1.8,0.3,2.6,1.5,2.6,2.6c0,1.2-1.1,2.6-3.2,2.6c-2,0-3.1-1.3-3.1-2.6c0-1.1,0.9-2.3,2.7-2.6C185,71.1,185.1,70.9,185.1,70.9z
		 M183,73.6c0,1,0.8,1.9,2.2,1.9s2.2-1,2.2-1.9c0-1-0.8-2-2.2-2S183,72.6,183,73.6z"/>
</g>
<g class="st3">
	<path class="st4" d="M463.3,287.6c0.3,0,0.3-0.1,0.7-0.1c0.9,0,1,0.1,1,0.2s-0.3,0.4-0.4,0.6c-0.7,1.1-1.6,2.5-2.2,3.2
		c0.4,0.3,1.1,0.9,1.4,1.2c0.6,0.4,0.8,0.1,1.6,1.3c0.2,0.4,0.3,0.6,0.3,0.8c0,0.2-0.1,0.4-0.3,0.4c-0.1,0-0.3-0.1-0.5-0.3
		c-0.5-0.5-1.3-1.5-2.9-3.1c-1.9,2.1-4.9,4.1-5.3,4.1h-0.1c0-0.1,0.1-0.2,0.4-0.4c2-1.3,4.9-4,6.5-7.4c-0.8,0-2.9,0.2-3.4,0.2
		c-0.4,0.1-0.5,0.3-0.7,0.3c-0.3,0-1.6-0.6-1.6-0.8c0,0,0.1-0.1,0.2-0.1c0.1,0,0.2,0,0.3,0c0.5,0.1,1.1,0.1,1.7,0.1
		C461,287.8,462.8,287.7,463.3,287.6z M467.3,285.9c0-0.3-0.9-0.7-1.6-1c-0.2-0.1-0.3-0.1-0.3-0.2s0.2-0.2,0.7-0.2
		c0.7,0.1,1.3,0.3,1.8,0.4c0.3,0.1,0.4,0.2,0.4,0.4c0,0.1,0,0.3,0,0.5v5.8h0.8c0.8-0.1,0.5-0.4,1.5-0.4c0.3,0,1,0,1,0.5
		c0,0.2-0.2,0.4-0.5,0.4h-2.8v4.6c0,1-0.1,1.7-0.4,2.4c-0.1,0.2-0.3,0.3-0.4,0.3c-0.1,0-0.2-0.2-0.2-0.7V285.9z"/>
	<path class="st4" d="M484,290.5c1.1,0,0.9-0.4,1.9-0.4c0.1,0,1.4,0,1.4,0.6c0,0.2-0.2,0.4-0.7,0.4c-0.2,0-1,0-1.2,0
		c-2.9,0-8.8,0.1-9.5,0.3c-0.4,0.1-0.6,0.2-0.8,0.2c-0.4,0-2.1-0.7-2.1-0.9c0-0.1,0.1-0.1,0.2-0.1c0.1,0,0.1,0,0.2,0
		c1.2,0.2,2.5,0.2,4.2,0.2c1.4,0,3,0,4.8-0.1c0.5-1.4,0.9-3.1,1.1-4.5c-2,0-4.8,0.2-6,0.2c-0.6,0.1-0.7,0.3-0.9,0.3
		c-0.3,0-1.7-0.6-1.7-0.8c0,0,0-0.1,0.2-0.1c0,0,0.1,0,0.2,0c0.6,0.1,1.5,0.1,2.4,0.1c1.5,0,3.3-0.1,5.1-0.2c0.4,0,0.5-0.1,1-0.1
		s1,0,1,0.2c0,0.1-0.2,0.4-0.4,0.6c-0.3,1-0.9,2.7-1.6,4.1C483.3,290.5,483.7,290.5,484,290.5z M476.9,294.9c0-0.3-0.3-0.5-1-0.7
		c-0.2,0-0.4-0.1-0.4-0.2s0.2-0.2,0.7-0.2c0.7,0,1.6,0.1,1.8,0.2l4.4-0.1c0.4,0,0.4-0.2,0.8-0.2c0.2,0,0.9,0,0.9,0.3
		c0,0.1-0.2,0.3-0.2,0.4c-0.3,1.3-0.6,2.5-0.8,3.1c0.6,0.1,0.8,0.3,0.8,0.4s-0.2,0.2-0.5,0.2l-5.5,0.1c-0.1,0.6-0.3,1-0.5,1
		s-0.3-0.3-0.4-0.9L476.9,294.9z M478.1,294.4c0,0.1-0.2,0.1-0.2,0.3l0.1,3.2l3.6-0.1c0.6,0,0.5-0.1,1-0.2l0.2-3.3L478.1,294.4z"/>
</g>
<g class="st3">
	<path class="st4" d="M578.6,280.5c2.8-1.9,4.6-4.9,4.6-5.1s-0.2-0.4-0.9-0.9c-0.2-0.2-0.3-0.3-0.3-0.4c0-0.1,0.1-0.1,0.3-0.1
		c0.1,0,0.2,0,0.3,0c0,0,1.8,0.8,1.8,1.2c0,0.3-0.4,0.7-1,1.6c0.6,0.6,0.9,0.9,1.4,1.2c0.8,0.6,0.7,0,1.7,1.6
		c0.1,0.1,0.1,0.3,0.1,0.4c0,0.2-0.1,0.4-0.4,0.4c-0.1,0-0.3-0.1-0.5-0.3c-0.6-0.7-1.9-2.1-2.6-3c-1.4,1.6-2.7,2.8-4.5,3.6
		c-0.2,0.1-0.4,0.2-0.4,0.2h-0.1C578.3,280.7,578.4,280.6,578.6,280.5z M586.6,281.9c0-0.1-0.1-0.3-0.2-0.4
		c-0.1-0.1-0.1-0.1-0.1-0.2c0-0.1,0.1-0.1,0.2-0.1c0.3,0,1.1,0.3,1.1,0.5c0,0.1-0.2,0.3-0.2,0.5c1.8,0.3,2.6,1.5,2.6,2.6
		c0,1.2-1.1,2.6-3.2,2.6c-2,0-3.1-1.3-3.1-2.6c0-1.1,0.9-2.3,2.7-2.6C586.6,282.1,586.6,282,586.6,281.9z M584.6,284.6
		c0,1,0.8,1.9,2.2,1.9c1.5,0,2.2-1,2.2-1.9c0-1-0.8-2-2.2-2C585.3,282.7,584.6,283.7,584.6,284.6z M589,274c0-0.1-0.4-0.5-1.4-0.9
		c-0.2-0.1-0.4-0.2-0.4-0.3s0.2-0.2,0.6-0.2c0.8,0.1,1.3,0.3,1.8,0.4c0.3,0.1,0.4,0.2,0.4,0.4c0,0.1-0.1,0.3-0.1,0.4v4.4
		c0.2,0,0.4,0,0.6,0c0.7-0.2,0.4-0.4,1.6-0.4c0.4,0,1,0,1,0.4c0,0.2-0.2,0.4-0.4,0.4l-2.7,0.1c0,1.3-0.1,2-0.3,2.5
		c-0.1,0.3-0.3,0.6-0.5,0.6c-0.1,0-0.2-0.2-0.2-0.7L589,274L589,274z"/>
	<path class="st4" d="M600.1,282.8c0-0.2-0.4-0.5-1-0.6c-0.2,0-0.3-0.1-0.3-0.2c0-0.1,0.4-0.2,0.6-0.2c0.4,0,0.8,0.1,1.1,0.1
		c0.5,0.1,0.6,0.2,0.6,0.3c0,0.1,0,0.2,0,0.4v1l4.7-0.1v-1.2c0-0.2-0.3-0.4-0.8-0.6c-0.2-0.1-0.3-0.1-0.3-0.2c0-0.1,0.5-0.1,0.6-0.1
		c0.3,0,0.6,0,0.8,0.1c-0.1-0.1-0.2-0.4-0.2-1v-3.2c-0.8,0-1.3,0.1-1.7,0.1s-0.5,0.2-0.8,0.2c-0.2,0-0.4-0.1-0.9-0.3l0,0
		c0,2.1-1.9,2.8-3.4,2.8c-2.1,0-3.3-1.4-3.3-2.8c0-1.2,0.8-2.4,2.6-2.7h0.1c0.3,0,0.4-0.2,0.4-0.4c0-0.1,0-0.2-0.1-0.2
		c-0.1-0.1-0.2-0.2-0.2-0.3c0,0,0-0.1,0.2-0.1c0.4,0,1,0.3,1,0.5s-0.2,0.3-0.3,0.5c1.6,0.2,2.6,1.1,2.8,2.2c0,0,0.6,0,0.8,0
		c0.8,0,2,0,2.8-0.1V274c0-0.4-0.8-0.8-1.4-1c-0.2-0.1-0.4-0.2-0.4-0.3s0.2-0.2,0.5-0.2c0.2,0,2.3,0.4,2.3,0.8c0,0.1,0,0.2,0,0.4
		v5.2c0,2.1-0.6,2.4-0.6,2.4s0,0,0.1,0c0.4,0.1,0.5,0.2,0.5,0.3s0,0.2,0,0.4v3.1c0,0.5,0,1.2-0.2,1.7c-0.1,0.3-0.2,0.5-0.4,0.5
		c-0.2,0-0.3-0.3-0.4-0.9l-4.7,0.1c-0.2,0.7-0.5,1.1-0.7,1.1c-0.1,0-0.2-0.2-0.2-0.7v-4.1H600.1z M596.6,277.3
		c0,1.1,0.8,2.1,2.3,2.1c1.7,0,2.5-1.1,2.5-2.1c0-1.1-0.8-2.1-2.5-2.1C597.3,275.2,596.6,276.3,596.6,277.3z M601,284v2h4.7v-2H601z
		"/>
	<path class="st4" d="M621.8,280.7c-1.1,0-3,0.1-3.8,0.2c-0.4,0.1-0.5,0.3-0.8,0.3c-0.4,0-2.2-0.8-2.2-1c0,0,0.1-0.1,0.2-0.1
		s0.2,0,0.4,0c1,0.1,2.3,0.2,3.7,0.2c2.4,0,5-0.1,7.1-0.3c0.8-0.1,0.6-0.4,1.4-0.4c0.4,0,1.7,0,1.7,0.5c0,0.2-0.2,0.4-0.5,0.4
		c-1,0-1.9,0-3,0c-0.8,0-1.8,0-3,0c0,3.8,0,5.3-0.3,6.3c-0.1,0.4-0.3,0.6-0.4,0.6s-0.2-0.3-0.3-0.9v-5.8H621.8z M619.4,278.5
		c-0.1,0.4-0.4,0.8-0.6,0.8c-0.2,0-0.2-0.2-0.3-0.6c0-0.3,0-3.6,0-4.1c0-0.3,0-0.4-1.1-0.7c-0.2,0-0.3-0.1-0.3-0.2
		c0-0.1,0.1-0.2,0.5-0.2c1.7,0.1,1.9,0.3,1.9,0.5c0,0,0,0.2,0,0.3v1.1l5.3-0.1V274c0-0.2-0.4-0.4-1-0.7c-0.2-0.1-0.3-0.2-0.3-0.2
		c0-0.1,0.1-0.1,0.5-0.2c1.6,0.2,1.8,0.4,1.8,0.6c0,0.1,0,0.2,0,0.3c0,1.4,0,4.2-0.2,4.7c-0.1,0.3-0.3,0.5-0.5,0.5
		c-0.1,0-0.2-0.2-0.3-0.6L619.4,278.5z M619.5,275.7v2.3l5.3-0.1v-2.3L619.5,275.7z"/>
	<path class="st4" d="M634.1,274.4c-0.1-0.4-0.5-0.5-1.2-0.7c-0.1,0-0.2-0.1-0.2-0.1c0-0.1,0.1-0.2,0.4-0.2c0.8,0,1.6,0.1,2,0.3
		c1.2,0,2.7,0,4.3-0.1c1.3-0.1,0.7-0.4,2-0.4c0.3,0,1.2,0,1.2,0.4c0,0.2-0.3,0.4-0.7,0.4c-1.7,0.1-4.9,0.1-6.5,0.1
		c-0.1,0.1-0.2,0-0.2,0.3c0,0.7,0,1.8,0,2.5c0,0.6,0.1,0.6,1.8,0.6c0.8,0,1.8,0,3.1-0.1c0.9-0.1,0.4-0.4,1.9-0.4
		c0.6,0,0.8,0.2,0.8,0.4c0,0.2-0.2,0.4-0.6,0.4c-0.6,0-2.5,0-3.4,0.1c0,0.9,0,1.8-0.1,2.4c1.3,0,2.6-0.2,3.6-0.2
		c0.8-0.1,0.7-0.3,1.3-0.3c0.3,0,0.6,0,1.2,0.1c0.5,0.1,0.7,0.3,0.7,0.5s-0.2,0.4-0.6,0.4h-0.1c-0.8,0-1.9-0.1-3.3-0.1
		c-2.2,0-5,0.1-7.2,0.4c-0.7,0.1-0.8,0.3-1.2,0.3s-2.1-0.7-2.1-1.1c0-0.1,0-0.1,0.2-0.1c0.1,0,0.2,0,0.3,0c0.8,0.1,2,0.2,3.2,0.2
		c1,0,2.1,0,3.1-0.1c0-0.8-0.1-1.8-0.1-2.4l0,0h-2c-1.2,0-1.6-0.4-1.6-1V274.4z M638.1,281.9c0-0.1-0.1-0.3-0.2-0.4
		c-0.1-0.1-0.2-0.1-0.2-0.2c0-0.1,0.1-0.1,0.2-0.1c0.3,0,1,0.3,1,0.5c0,0.1-0.2,0.3-0.2,0.5c1.8,0.3,2.6,1.4,2.6,2.5
		c0,1.3-1.1,2.6-3.1,2.6s-3.1-1.3-3.1-2.6c0-1.1,0.9-2.3,2.7-2.6C638,282.1,638.1,282,638.1,281.9z M636,284.6c0,1,0.8,1.9,2.2,1.9
		c1.5,0,2.2-1,2.2-1.9c0-1-0.8-2-2.2-2C636.8,282.7,636,283.7,636,284.6z"/>
	<path class="st4" d="M647.1,280.7c3-2,4.6-4.8,4.6-5.1c0-0.3-0.2-0.5-0.9-1c-0.2-0.1-0.3-0.2-0.3-0.3s0.1-0.1,0.3-0.1
		c0.1,0,0.2,0,0.3,0c0.4,0.1,2,0.8,2,1.2c0,0.3-0.4,0.7-1,1.7c0.5,0.5,0.8,0.8,1.3,1.2c0.9,0.6,0.8,0,1.9,1.6
		c0.1,0.2,0.1,0.3,0.1,0.5s-0.1,0.4-0.3,0.4c-0.1,0-0.2,0-0.3-0.1c-0.8-0.8-2.2-2.4-3-3.2c-1.4,1.6-2.7,2.6-4.5,3.5
		c-0.2,0.1-0.3,0.1-0.4,0.1s-0.1,0-0.1-0.1C646.8,281,646.9,280.8,647.1,280.7z M652.1,283.6c0-0.3-0.4-0.4-1.2-0.7
		c-0.2,0-0.3-0.1-0.3-0.2c0-0.1,0.1-0.2,0.5-0.2c0.7,0,1.4,0.1,1.7,0.1c0.3,0.1,0.4,0.2,0.4,0.3s0,0.2,0,0.4c0,0.7,0,1.6,0,2.2
		c0,0.4,0.2,0.5,0.8,0.5h2.9c1.2-0.1,0.6-0.5,2-0.5c0.5,0,1.2,0.1,1.2,0.5c0,0.2-0.2,0.4-0.4,0.4h-5.8c-1.1,0-1.7-0.3-1.7-1.1
		L652.1,283.6z M657.5,274.1c0-0.2-0.4-0.5-1.4-0.9c-0.2-0.1-0.4-0.2-0.4-0.2c0-0.1,0.2-0.2,0.6-0.2c0.1,0,2.3,0.3,2.3,0.8
		c0,0.1-0.1,0.2-0.1,0.4v5c0.2,0,0.5,0,0.7,0c0.7-0.1,0.4-0.4,1.6-0.4c0.3,0,0.9,0,0.9,0.4c0,0.2-0.2,0.4-0.5,0.4l-2.8,0.1
		c0,2.9-0.1,3.6-0.3,4.1c-0.1,0.3-0.3,0.5-0.5,0.5c-0.1,0-0.2-0.2-0.3-0.7v-9.3H657.5z"/>
</g>
</svg>
