<?xml version="1.0" encoding="utf-8"?>
<!-- Generator: Adobe Illustrator 23.0.0, SVG Export Plug-In . SVG Version: 6.00 Build 0)  -->
<svg version="1.1" id="租金分红" xmlns="http://www.w3.org/2000/svg" xmlns:xlink="http://www.w3.org/1999/xlink" x="0px"
	 y="0px" viewBox="0 0 608 523" style="enable-background:new 0 0 608 523;" xml:space="preserve">
<style type="text/css">
	.st0{fill:none;stroke:#90A7AB;}
	.st1{fill:#9FE7DD;stroke:#34B9A1;stroke-width:2;}
	.st2{enable-background:new    ;}
	.st3{fill:#456E68;}
	.st4{fill:none;stroke:#456E68;stroke-width:1.5;stroke-miterlimit:10;}
</style>
<g id="组_29">
	<path id="形状_1" class="st0" d="M127.8,82.9h212.5l-4.8-5.5"/>
	<path id="形状_1_拷贝_6" class="st0" d="M342.1,103.1H129.8l4.8,5.5"/>
</g>
<g id="组_29_拷贝">
	<path id="形状_1-2" class="st0" d="M497.4,213v116l5.6-4.9"/>
	<path id="形状_1_拷贝_6-2" class="st0" d="M476.6,328.7V213l-5.6,4.9"/>
</g>
<path id="形状_1_拷贝_7" class="st0" d="M381,411H168.2l4.9-5.4"/>
<circle id="椭圆_6" class="st1" cx="482" cy="97" r="96"/>
<g class="st2">
	<path class="st3" d="M510.7,379h-10v10h10V379z M507.4,385.6h-3.3v-3.3h3.3V385.6z"/>
	<path class="st3" d="M524,379h-10v10h10V379z M520.7,385.6h-3.3v-3.3h3.3V385.6z"/>
	<path class="st3" d="M510.7,392.2h-10v10h10V392.2z M507.4,398.9h-3.3v-3.3h3.3V398.9z"/>
	<path class="st3" d="M524,392.2h-10v10h10V392.2z M520.7,398.9h-3.3v-3.3h3.3V398.9z"/>
	<path class="st3" d="M510.7,415.5v-10h-10v10H510.7z M504.1,408.8h3.3v3.3h-3.3V408.8z"/>
	<path class="st3" d="M524,405.5h-10v10h10V405.5z M520.7,412.2h-3.3v-3.3h3.3V412.2z"/>
	<path class="st3" d="M534,375.6v-3.3h-3.3v-6.6h-3.3V359h-29.9v6.6h-3.3v6.6h-3.3v3.3h3.3v43.2h-13.3v-19.9h3.3v-10h-3.3v-2.5
		l-23.3-16.1l-10,6.9V372h-10v12l-3.3,2.3v2.5H431v10h3.3V419c-1.9,0.7-3.3,2.5-3.3,4.7v3.3c0,2.7,2.2,5,5,5h32.4
		c-2.6,3.2-4.2,7.2-4.2,11.6c0,10.1,8.2,18.3,18.3,18.3s18.3-8.2,18.3-18.3c0-4.4-1.6-8.5-4.2-11.6H529c2.7,0,5-2.2,5-5v-3.3
		c0-2.2-1.4-4-3.3-4.7v-43.5h3.3V375.6z M500.8,362.3H524v3.3h-23.3L500.8,362.3L500.8,362.3z M497.5,369h29.9v3.3h-29.9L497.5,369
		L497.5,369z M441,375.4h3.3v4.1l-3.3,2.3V375.4z M437.7,388.1l19.9-13.8l19.9,13.8v0.8h-39.9v-0.8H437.7z M434.3,392.2h46.5v3.3
		h-46.5V392.2z M477.5,398.9v19.9h-13.3v-16.6H451v16.6h-13.3v-19.9H477.5z M460.9,418.8h-6.6v-13.3h6.6V418.8z M482.5,458.7
		c-8.2,0-14.9-6.7-14.9-14.9s6.7-14.9,14.9-14.9s14.9,6.7,14.9,14.9S490.8,458.7,482.5,458.7z M530.7,427.1c0,0.9-0.7,1.7-1.7,1.7
		h-36c-3-2.1-6.6-3.3-10.5-3.3s-7.5,1.2-10.5,3.3h-36c-0.9,0-1.7-0.7-1.7-1.7v-3.3c0-0.9,0.7-1.7,1.7-1.7h93c0.9,0,1.7,0.7,1.7,1.7
		V427.1z M527.4,418.8h-29.9v-43.2h29.9V418.8z"/>
</g>
<g>
	<path class="st3" d="M476.6,452.5v-1.8c1.9-0.6,2.9-1.8,2.9-3.7v-2.2H477V443h2.6v-3c0-1.5,0.4-2.8,1.4-3.7c1-1,2.2-1.5,3.6-1.5
		c1,0,1.9,0.1,2.8,0.6v2.1c-0.8-0.6-1.8-0.7-2.6-0.7c-1.9,0-2.9,1.2-2.9,3.6v2.8h3.9v1.8h-4v1.8c0,1.9-0.8,3.2-2.3,4.1h8.9v1.8
		h-11.7L476.6,452.5L476.6,452.5z"/>
</g>
<g class="st2">
	<g>
		<g>
			<path class="st3" d="M54.6,391H41.9c-0.9,0-1.6,0.7-1.6,1.6v6.3c0,0.9,0.7,1.6,1.6,1.6h12.7c0.9,0,1.6-0.7,1.6-1.6v-6.3
				C56.2,391.7,55.5,391,54.6,391z M46.7,397.3h-3.2v-3.2h3.2V397.3z M53,397.3h-3.2v-3.2H53V397.3z"/>
		</g>
	</g>
	<g>
		<g>
			<path class="st3" d="M54.6,403.7H41.9c-0.9,0-1.6,0.7-1.6,1.6v6.3c0,0.9,0.7,1.6,1.6,1.6h12.7c0.9,0,1.6-0.7,1.6-1.6v-6.3
				C56.2,404.4,55.5,403.7,54.6,403.7z M46.7,410h-3.2v-3.2h3.2V410z M53,410h-3.2v-3.2H53V410z"/>
		</g>
	</g>
	<g>
		<g>
			<path class="st3" d="M54.6,416.3H41.9c-0.9,0-1.6,0.7-1.6,1.6v6.3c0,0.9,0.7,1.6,1.6,1.6h12.7c0.9,0,1.6-0.7,1.6-1.6v-6.3
				C56.2,417,55.5,416.3,54.6,416.3z M46.7,422.7h-3.2v-3.2h3.2V422.7z M53,422.7h-3.2v-3.2H53V422.7z"/>
		</g>
	</g>
	<g>
		<g>
			<path class="st3" d="M111.6,391H98.9c-0.9,0-1.6,0.7-1.6,1.6v6.3c0,0.9,0.7,1.6,1.6,1.6h12.7c0.9,0,1.6-0.7,1.6-1.6v-6.3
				C113.2,391.7,112.5,391,111.6,391z M103.7,397.3h-3.2v-3.2h3.2V397.3z M110,397.3h-3.2v-3.2h3.2V397.3z"/>
		</g>
	</g>
	<g>
		<g>
			<path class="st3" d="M111.6,378.3H98.9c-0.9,0-1.6,0.7-1.6,1.6v6.3c0,0.9,0.7,1.6,1.6,1.6h12.7c0.9,0,1.6-0.7,1.6-1.6v-6.3
				C113.2,379,112.5,378.3,111.6,378.3z M103.7,384.7h-3.2v-3.2h3.2V384.7z M110,384.7h-3.2v-3.2h3.2V384.7z"/>
		</g>
	</g>
	<g>
		<g>
			<path class="st3" d="M73.6,397.3h-6.3c-0.9,0-1.6,0.7-1.6,1.6v6.3c0,0.9,0.7,1.6,1.6,1.6h6.3c0.9,0,1.6-0.7,1.6-1.6v-6.3
				C75.2,398,74.5,397.3,73.6,397.3z M72,403.7h-3.2v-3.2H72V403.7z"/>
		</g>
	</g>
	<g>
		<g>
			<path class="st3" d="M86.3,397.3H80c-0.9,0-1.6,0.7-1.6,1.6v6.3c0,0.9,0.7,1.6,1.6,1.6h6.3c0.9,0,1.6-0.7,1.6-1.6v-6.3
				C87.8,398,87.1,397.3,86.3,397.3z M84.7,403.7h-3.2v-3.2h3.2V403.7z"/>
		</g>
	</g>
	<g>
		<g>
			<path class="st3" d="M73.6,384.7h-6.3c-0.9,0-1.6,0.7-1.6,1.6v6.3c0,0.9,0.7,1.6,1.6,1.6h6.3c0.9,0,1.6-0.7,1.6-1.6v-6.3
				C75.2,385.4,74.5,384.7,73.6,384.7z M72,391h-3.2v-3.2H72V391z"/>
		</g>
	</g>
	<g>
		<g>
			<path class="st3" d="M86.3,384.7H80c-0.9,0-1.6,0.7-1.6,1.6v6.3c0,0.9,0.7,1.6,1.6,1.6h6.3c0.9,0,1.6-0.7,1.6-1.6v-6.3
				C87.8,385.4,87.1,384.7,86.3,384.7z M84.7,391h-3.2v-3.2h3.2V391z"/>
		</g>
	</g>
	<g>
		<g>
			<path class="st3" d="M73.6,372h-6.3c-0.9,0-1.6,0.7-1.6,1.6v6.3c0,0.9,0.7,1.6,1.6,1.6h6.3c0.9,0,1.6-0.7,1.6-1.6v-6.3
				C75.2,372.7,74.5,372,73.6,372z M72,378.3h-3.2v-3.2H72V378.3z"/>
		</g>
	</g>
	<g>
		<g>
			<path class="st3" d="M86.3,372H80c-0.9,0-1.6,0.7-1.6,1.6v6.3c0,0.9,0.7,1.6,1.6,1.6h6.3c0.9,0,1.6-0.7,1.6-1.6v-6.3
				C87.8,372.7,87.1,372,86.3,372z M84.7,378.3h-3.2v-3.2h3.2V378.3z"/>
		</g>
	</g>
	<g>
		<g>
			<path class="st3" d="M73.6,416.3h-6.3c-0.9,0-1.6,0.7-1.6,1.6v6.3c0,0.9,0.7,1.6,1.6,1.6h6.3c0.9,0,1.6-0.7,1.6-1.6v-6.3
				C75.2,417,74.5,416.3,73.6,416.3z M72,422.7h-3.2v-3.2H72V422.7z"/>
		</g>
	</g>
	<g>
		<g>
			<rect x="40.3" y="429" class="st3" width="3.2" height="3.2"/>
		</g>
	</g>
	<g>
		<g>
			<rect x="46.7" y="429" class="st3" width="3.2" height="3.2"/>
		</g>
	</g>
	<g>
		<g>
			<rect x="53" y="429" class="st3" width="3.2" height="3.2"/>
		</g>
	</g>
	<g>
		<g>
			<path class="st3" d="M127.4,410h-7.9v-36.4c0-0.9-0.7-1.6-1.6-1.6h-11.1v-2.5l1.7-1.7c1.4,1,3,1.6,4.7,1.6c2,0,4-0.8,5.6-2.3
				l0.3-0.3c0.6-0.6,0.6-1.6,0-2.2l-3.6-3.6l3.6-3.6l-2.2-2.2l-3.6,3.6l-5.2-5.2c-0.3-0.3-0.7-0.5-1.1-0.5c-0.6,0-1,0.3-1.3,0.6
				c-1.6,1.4-2.5,3.4-2.5,5.5s0.8,4.2,2.3,5.7l0.8,0.8l-2,2c-0.3,0.3-0.5,0.7-0.5,1.1v3.2h-9.5v-4.8c0-0.9-0.7-1.6-1.6-1.6H87l-9-12
				c-0.6-0.8-1.9-0.8-2.5,0l-9,12H61c-0.9,0-1.6,0.7-1.6,1.6v17.4h-9.5V372h-3.2v12.7H35.6c-0.9,0-1.6,0.7-1.6,1.6v60.2
				c0,0.9,0.7,1.6,1.6,1.6h25.3H72h12.7h1.6h9.5h25.3c4.4,0,7.9-3.6,7.9-7.9v-28.5C129,410.7,128.3,410,127.4,410z M59.3,444.8H37.2
				v-57h22.2v57H59.3z M106.9,356.9l8.7,8.7c-1.8,1.1-4.2,0.8-5.7-0.7l-2.2-2.2c-0.9-0.9-1.4-2.1-1.4-3.4
				C106.3,358.4,106.5,357.6,106.9,356.9z M76.8,357.2l6.3,8.4H70.4L76.8,357.2z M70.4,432.2v12.7h-7.9v-58.6v-17.4H91v4.8v28.5h3.2
				v-26.9h22.2V410h-3.2v-1.6c0-2.6-2.1-4.8-4.8-4.8h-9.5c-2.6,0-4.8,2.1-4.8,4.8v1.6H79.9c-0.9,0-1.6,0.7-1.6,1.6V429H65.7v3.2
				H70.4z M110,408.4v1.6H97.3v-1.6c0-0.9,0.7-1.6,1.6-1.6h9.5C109.3,406.8,110,407.5,110,408.4z M73.6,444.8v-12.7h4.8v7.9
				c0,1.8,0.6,3.4,1.6,4.8L73.6,444.8L73.6,444.8z M125.8,440.1c0,2.6-2.1,4.8-4.8,4.8H95.8h-9.5c-2.6,0-4.8-2.1-4.8-4.8v-15.9
				c1.3,1,3,1.6,4.8,1.6h1.6v4.8c0,0.9,0.7,1.6,1.6,1.6h6.3c0.9,0,1.6-0.7,1.6-1.6v-4.8H99h9.5h1.6v4.8c0,0.9,0.7,1.6,1.6,1.6h6.3
				c0.9,0,1.6-0.7,1.6-1.6v-4.8h1.6c1.8,0,3.4-0.6,4.8-1.6v15.9H125.8z M91,429v-3.2h3.2v3.2H91z M100.5,422.7v-3.2h6.3v3.2H100.5z
				 M113.2,429v-3.2h3.2v3.2H113.2z M125.8,417.9c0,2.6-2.1,4.8-4.8,4.8h-3.2h-6.3H110v-4.8c0-0.9-0.7-1.6-1.6-1.6h-9.5
				c-0.9,0-1.6,0.7-1.6,1.6v4.8h-1.6h-6.3h-3.2c-2.6,0-4.8-2.1-4.8-4.8v-4.8h44.3v4.8H125.8z"/>
		</g>
	</g>
	<g>
		<g>
			<rect x="119.5" y="438.5" class="st3" width="3.2" height="3.2"/>
		</g>
	</g>
	<g>
		<g>
			<rect x="113.2" y="438.5" class="st3" width="3.2" height="3.2"/>
		</g>
	</g>
	<g>
		<g>
			<rect x="106.8" y="438.5" class="st3" width="3.2" height="3.2"/>
		</g>
	</g>
</g>
<g>
	<circle class="st4" cx="56.1" cy="58.7" r="15.8"/>
	<line class="st4" x1="43.4" y1="83.4" x2="56.1" y2="97.9"/>
	<line class="st4" x1="68.4" y1="83.4" x2="56.1" y2="97.9"/>
	<line class="st4" x1="56.1" y1="112.3" x2="56.1" y2="97.9"/>
	<path class="st4" d="M89.9,104v3.4c0,3.1-2.5,5.6-5.6,5.6H27.7c-3.1,0-5.6-2.5-5.6-5.6V104"/>
	<path class="st4" d="M27.7,98.4"/>
	<path class="st4" d="M22.1,105.6C22.1,92.8,32.7,83,45.4,83h21.2c12.8,0,23.2,10.5,23.2,23.2l0,0"/>
</g>
<g class="st2">
	<path class="st3" d="M10.2,141.1c-1.3,0.1-3.1,0.1-4.4,0.4c-0.5,0.1-0.5,0.3-0.8,0.3c-0.4,0-2.5-0.8-2.5-1.1c0-0.1,0.1-0.1,0.2-0.1
		c0.1,0,0.3,0,0.5,0.1c0.6,0.1,1.5,0.1,2.5,0.1c3.2,0,7.6-0.2,9.8-0.4c0.7-0.1,0.6-0.3,1.2-0.3c0.3,0,0.7,0.1,1.5,0.2
		c0.4,0.1,0.5,0.3,0.5,0.5s-0.2,0.4-0.5,0.4c-0.1,0-0.1,0-0.1,0c-1.3-0.1-2.3-0.1-3.8-0.1c-0.8,0-1.7,0-2.9,0.1c0,2.3,0,5.9-0.3,6.8
		c-0.2,0.5-0.3,0.7-0.5,0.7s-0.3-0.3-0.3-0.9v-6.7H10.2z M5.9,133.6c0-0.2-0.6-0.4-1.2-0.6c-0.2,0-0.4-0.1-0.4-0.2
		c0-0.1,0.2-0.2,0.7-0.2c1.4,0.1,2,0.2,2.3,0.3c0.5,0,0.9,0,1.4,0c1.1,0,2.1,0,3.7-0.1c0.8-0.1,0.6-0.4,1.7-0.4c0.4,0,1.3,0,1.3,0.5
		c0,0.2-0.2,0.4-0.6,0.4c-1.3,0.1-5.9,0.2-7.4,0.2c-0.2,0.1-0.3,0-0.3,0.2v1.9c1.4,0,3.7,0,4.9-0.1c1-0.1,0.6-0.4,1.8-0.4
		c0.5,0,1.2,0.1,1.2,0.5c0,0.2-0.2,0.4-0.6,0.4c-2,0.1-6.9,0.1-7.4,0.1v1.6c0,0.6,0.1,0.6,2.1,0.6c1,0,2.1,0,3.1-0.1
		c0.9-0.1,0.6-0.4,1.6-0.4c0.8,0,1.6,0.1,1.6,0.5c0,0.2-0.3,0.4-0.6,0.4H7c-0.7,0-1-0.5-1.1-1.2L5.9,133.6z"/>
	<path class="st3" d="M27.7,135c0.3-0.1,0.3-0.1,0.8-0.1c1,0,1.1,0.1,1.1,0.2s-0.3,0.4-0.5,0.7c-0.7,1.2-1.8,2.8-2.4,3.6
		c0.4,0.4,1.2,1,1.6,1.3c0.7,0.5,0.9,0.2,1.8,1.5c0.3,0.4,0.4,0.7,0.4,0.9c0,0.3-0.1,0.4-0.3,0.4s-0.3-0.1-0.5-0.3
		c-0.5-0.6-1.5-1.7-3.2-3.4c-2.2,2.4-5.5,4.6-6,4.6c-0.1,0-0.1,0-0.1,0c0-0.1,0.1-0.2,0.4-0.4c2.2-1.5,5.5-4.4,7.3-8.3
		c-1,0-3.3,0.2-3.8,0.2c-0.5,0.1-0.5,0.3-0.8,0.3c-0.4,0-1.8-0.7-1.8-0.9c0-0.1,0.1-0.1,0.2-0.1s0.2,0,0.3,0
		c0.5,0.1,1.2,0.1,1.9,0.1C25.2,135.2,27.2,135.1,27.7,135z M32.2,133c0-0.3-1-0.7-1.7-1.1c-0.2-0.1-0.3-0.2-0.3-0.2
		c0-0.1,0.2-0.2,0.8-0.2c0.8,0.1,1.5,0.3,2.1,0.5c0.4,0.1,0.5,0.3,0.5,0.5c0,0.1-0.1,0.3-0.1,0.6v6.6h0.9c0.8-0.1,0.6-0.5,1.7-0.5
		c0.3,0,1.1,0,1.1,0.6c0,0.3-0.2,0.5-0.6,0.5h-3.1v5.2c0,1.2-0.1,1.9-0.5,2.7c-0.1,0.2-0.3,0.3-0.4,0.3c-0.2,0-0.3-0.2-0.3-0.8V133
		H32.2z"/>
	<path class="st3" d="M45.7,135c0.3-0.1,0.3-0.1,0.8-0.1c1,0,1.1,0.1,1.1,0.2s-0.3,0.4-0.5,0.7c-0.7,1.2-1.8,2.8-2.4,3.6
		c0.4,0.4,1.2,1,1.6,1.3c0.7,0.5,0.9,0.2,1.8,1.5c0.3,0.4,0.4,0.7,0.4,0.9c0,0.3-0.1,0.4-0.3,0.4s-0.3-0.1-0.5-0.3
		c-0.5-0.6-1.5-1.7-3.2-3.4c-2.2,2.4-5.5,4.6-6,4.6c-0.1,0-0.1,0-0.1,0c0-0.1,0.1-0.2,0.4-0.4c2.2-1.5,5.5-4.4,7.3-8.3
		c-1,0-3.3,0.2-3.8,0.2c-0.5,0.1-0.5,0.3-0.8,0.3c-0.4,0-1.8-0.7-1.8-0.9c0-0.1,0.1-0.1,0.2-0.1c0.1,0,0.2,0,0.3,0
		c0.5,0.1,1.2,0.1,1.9,0.1C43.2,135.2,45.2,135.1,45.7,135z M50.2,133c0-0.3-1-0.7-1.7-1.1c-0.2-0.1-0.3-0.2-0.3-0.2
		c0-0.1,0.2-0.2,0.8-0.2c0.8,0.1,1.5,0.3,2.1,0.5c0.4,0.1,0.5,0.3,0.5,0.5c0,0.1-0.1,0.3-0.1,0.6v6.6h0.9c0.8-0.1,0.6-0.5,1.7-0.5
		c0.3,0,1.1,0,1.1,0.6c0,0.3-0.2,0.5-0.6,0.5h-3.1v5.2c0,1.2-0.1,1.9-0.5,2.7c-0.1,0.2-0.3,0.3-0.4,0.3c-0.2,0-0.3-0.2-0.3-0.8V133
		H50.2z"/>
	<path class="st3" d="M73.1,132.3c-2.1,1.7-3.4,4.4-3.4,7.7s1.4,5.9,3.4,7.7v0.3c-3.2-1.8-4.5-4.6-4.5-8c0-3.3,1.4-6.2,4.5-8V132.3z
		"/>
	<path class="st3" d="M89.7,145.9c-1.4-0.1-3.4-0.2-5.6-0.2c-3.1,0-4.7,0.1-6.2,0.3c-0.5,0.1-0.7,0.3-1.2,0.3c-0.4,0-0.9-0.2-2-0.8
		c-0.3-0.1-0.4-0.2-0.4-0.3s0.1-0.1,0.2-0.1s0.2,0,0.4,0.1c0.9,0.2,2.2,0.2,3.7,0.2c1,0,2.2,0,3.4-0.1c0-0.3,0-1-0.1-4
		c-0.7,0-1.5,0-2.5,0c-1.1,0-1.7-0.5-1.7-1.3l-0.1-5c0-0.4-0.6-0.6-1.3-0.9c-0.2,0-0.4-0.1-0.4-0.3s0.5-0.3,0.7-0.3
		c0.8,0,1.9,0.2,2.4,0.4c1.4,0,3.6-0.1,5.8-0.1c0.9-0.2,0.6-0.5,2-0.5c1.3,0,1.4,0.4,1.4,0.6c0,0.2-0.2,0.4-0.6,0.4
		c-3,0.1-6.8,0.2-8.4,0.3c-0.2,0.1-0.3,0-0.3,0.3v2.5c1.5,0,3.4-0.1,6-0.1c0.8-0.1,0.2-0.4,1.9-0.5c0.6,0,0.8,0.2,0.8,0.4
		s-0.3,0.4-0.6,0.5c-1.2,0.1-5.7,0.1-8,0.2v2.3c0,0.6,0.2,0.6,1.5,0.6c1.4,0,2.7,0,4.5-0.1c1.1-0.1,0.5-0.5,2.2-0.5
		c0.4,0,1.1,0,1.1,0.5c0,0.2-0.3,0.5-0.7,0.5c-1.3,0.1-2.6,0.1-4.4,0.1c0,2.5,0,3.2,0,4c0.8,0,2.3-0.1,3.9-0.1
		c0.7,0,0.6-0.3,1.4-0.3c0.4,0,2.1,0.1,2.1,0.7C90.5,145.7,90.2,145.9,89.7,145.9L89.7,145.9z"/>
	<path class="st3" d="M105.3,139.6c0.8-0.1,0.6-0.4,1.6-0.4c0.6,0,1.7,0,1.7,0.6c0,0.2-0.2,0.4-0.6,0.4s-2,0-2.4,0
		c-3.7,0-7.6,0.2-9.3,0.4c-0.8,0.1-0.9,0.4-1.3,0.4c-0.5,0-2.4-0.8-2.4-1.1c0-0.1,0.1-0.1,0.2-0.1s0.2,0,0.4,0.1
		c0.7,0.1,1.8,0.2,3.2,0.2c2,0,4.6-0.1,7.3-0.3c0.2-0.7,0.5-2.1,0.7-3.5c-2.3,0.4-4.5,0.8-6.7,1.1c-0.5,0.1-0.5,0.4-0.8,0.4
		c-0.4,0-2.6-0.8-2.6-1.1c0-0.1,0.1-0.1,0.2-0.1s0.2,0,0.4,0c0.4,0,1,0.1,1.5,0.1c3,0,7-0.5,8.1-0.7c0.1-0.5,0.2-1.6,0.2-2.2
		c-1.7,0.1-4.7,0.1-6.8,0.3c-0.5,0.1-0.5,0.3-0.8,0.3s-2.1-0.7-2.1-1c0-0.1,0.1-0.1,0.2-0.1s0.2,0,0.3,0c0.9,0.2,2.3,0.2,3.7,0.2
		c2.1,0,4.3-0.1,4.9-0.2c0.6-0.1,0.3-0.2,1-0.2c1.1,0,1.3,0.1,1.3,0.3c0,0.1-0.3,0.4-0.4,0.6c-0.6,2.2-1.1,4.1-1.8,5.9h0.3
		L105.3,139.6z M96.2,144c0-0.3-0.5-0.5-1.4-0.8c-0.2-0.1-0.3-0.1-0.3-0.2c0-0.1,0.2-0.2,0.6-0.3c0.8,0,1.6,0.1,1.9,0.1
		c0.3,0.1,0.4,0.2,0.4,0.3s-0.1,0.3-0.1,0.5c0,0.8,0,1.8,0,2.5c0,0.4,0.3,0.5,0.9,0.6h3.9c1.3-0.1,0.7-0.5,2.3-0.5
		c0.4,0,1.4,0,1.4,0.6c0,0.2-0.2,0.4-0.5,0.4h-7.1c-1.2,0-1.9-0.3-1.9-1.2L96.2,144z"/>
	<path class="st3" d="M123.1,142.2c0-0.2-0.3-0.4-1-0.6c-0.3-0.1-0.5-0.2-0.5-0.3s0.4-0.2,0.7-0.2c0.5,0,1.2,0.1,1.5,0.1
		c0.4,0.1,0.5,0.2,0.5,0.4s-0.1,0.3-0.1,0.5l-0.1,3.1c0.7,0,3.2,0,4.2-0.1c0.7-0.1,0.6-0.4,1.4-0.4c0.3,0,1.9,0,1.9,0.6
		c0,0.2-0.2,0.4-0.6,0.4h-0.1c-1.6,0-4.3-0.1-7.4-0.1c-1.2,0-4.2,0.2-5,0.2c-0.4,0.1-0.5,0.3-0.8,0.3s-0.7-0.2-1.8-0.7
		c-0.3-0.1-0.5-0.3-0.5-0.4c0-0.1,0.1-0.1,0.2-0.1s0.2,0,0.4,0c0.8,0.1,2.1,0.2,3.6,0.2c1.1,0,2.3,0,3.5-0.1L123.1,142.2z
		 M122,133.5c-0.1-0.1-0.3-0.2-0.3-0.3s0.2-0.2,0.6-0.2c0.8,0.2,1.4,0.4,2.3,1c0.1,0.1,0.2,0.2,0.2,0.3c0,0.3-1.2,1.9-1.4,2.2
		c0.8,0.5,1.9,1,2.7,1.3c1.3,0.5,0.8-0.4,3.6,1.5c0.4,0.3,0.6,0.6,0.6,0.8s-0.1,0.3-0.4,0.3c-0.2,0-0.4-0.1-0.6-0.2
		c-1.3-0.7-4.3-2.1-6.2-3.3c-2.8,3-6.5,4.3-6.9,4.3c-0.1,0-0.1,0-0.1-0.1s0.1-0.2,0.5-0.3c2.6-1.1,5.7-4,6.7-6.2
		C123.2,134.3,122.7,133.9,122,133.5z"/>
	<path class="st3" d="M138.3,140.7c-0.3,0-0.8,0.1-1.5,0.1c-0.6,0.1-0.7,0.3-1,0.3c-0.4,0-2.3-0.9-2.3-1.1c0-0.1,0.1-0.1,0.2-0.1
		c0.1,0,0.3,0,0.5,0.1c0.6,0.1,1.9,0.2,3.4,0.2c3,0,7-0.2,8.5-0.3c1-0.1,0.8-0.3,1.8-0.3c0.6,0,1.8,0,1.8,0.6c0,0.2-0.3,0.5-0.8,0.5
		l0,0c-0.9,0-2.1-0.1-3.7-0.1h-0.4c0,2.6,0,6-0.3,7.1c-0.1,0.5-0.3,0.8-0.5,0.8s-0.3-0.3-0.3-0.9v-6.8c-0.6,0-2.9,0.1-4.1,0.1
		c0,3.8,0,5-0.4,6.2c-0.2,0.4-0.4,0.6-0.5,0.6c-0.2,0-0.3-0.3-0.3-1L138.3,140.7z M140.8,132.5c0.2,0,0.4-0.1,0.4-0.3
		c0-0.1-0.1-0.2-0.2-0.3c-0.2-0.1-0.2-0.2-0.2-0.3s0.1-0.1,0.2-0.1c0.4,0,1.2,0.3,1.2,0.5c0,0.1-0.2,0.5-0.2,0.5
		c2.1,0.4,3.1,1.7,3.1,3.1c0,1.5-1.3,3-3.6,3c-2.4,0-3.8-1.5-3.8-3.1C137.6,134.2,138.6,132.9,140.8,132.5z M138.8,135.6
		c0,1.2,0.9,2.3,2.7,2.3c1.7,0,2.5-1.2,2.5-2.3c0-1.2-0.8-2.4-2.5-2.4C139.6,133.3,138.8,134.4,138.8,135.6z"/>
	<path class="st3" d="M158.6,135c0.3-0.1,0.3-0.1,0.8-0.1c1,0,1.1,0.1,1.1,0.2s-0.3,0.4-0.5,0.7c-0.7,1.2-1.8,2.8-2.4,3.6
		c0.4,0.4,1.2,1,1.6,1.3c0.7,0.5,0.9,0.2,1.8,1.5c0.3,0.4,0.4,0.7,0.4,0.9c0,0.3-0.1,0.4-0.3,0.4s-0.3-0.1-0.5-0.3
		c-0.5-0.6-1.5-1.7-3.2-3.4c-2.2,2.4-5.5,4.6-6,4.6c-0.1,0-0.1,0-0.1,0c0-0.1,0.1-0.2,0.4-0.4c2.2-1.5,5.5-4.4,7.3-8.3
		c-1,0-3.3,0.2-3.8,0.2c-0.5,0.1-0.5,0.3-0.8,0.3c-0.4,0-1.8-0.7-1.8-0.9c0-0.1,0.1-0.1,0.2-0.1c0.1,0,0.2,0,0.3,0
		c0.5,0.1,1.2,0.1,1.9,0.1C156.1,135.2,158.1,135.1,158.6,135z M163.1,133c0-0.3-1-0.7-1.7-1.1c-0.2-0.1-0.3-0.2-0.3-0.2
		c0-0.1,0.2-0.2,0.8-0.2c0.8,0.1,1.5,0.3,2.1,0.5c0.4,0.1,0.5,0.3,0.5,0.5c0,0.1-0.1,0.3-0.1,0.6v6.6h0.9c0.8-0.1,0.6-0.5,1.7-0.5
		c0.3,0,1.1,0,1.1,0.6c0,0.3-0.2,0.5-0.6,0.5h-3.1v5.2c0,1.2-0.1,1.9-0.5,2.7c-0.1,0.2-0.3,0.3-0.4,0.3c-0.2,0-0.3-0.2-0.3-0.8
		L163.1,133L163.1,133z"/>
	<path class="st3" d="M168.8,147.6c2.1-1.8,3.4-4.3,3.4-7.7c0-3.3-1.4-6-3.4-7.7v-0.3c3.2,1.8,4.5,4.6,4.5,8s-1.3,6.2-4.5,8V147.6z"
		/>
</g>
<g class="st2">
	<path class="st3" d="M344.7,487.5v-12.9h1.7v5.3h6.7v-5.3h1.7v12.9h-1.7v-6.1h-6.7v6.1H344.7z"/>
	<path class="st3" d="M356.9,482.8c0-1.7,0.5-3,1.4-3.8c0.8-0.7,1.8-1,2.9-1c1.3,0,2.3,0.4,3.1,1.3c0.8,0.9,1.2,2,1.2,3.5
		c0,1.2-0.2,2.1-0.5,2.8c-0.4,0.7-0.9,1.2-1.6,1.6s-1.4,0.6-2.3,0.6c-1.3,0-2.4-0.4-3.2-1.3C357.1,485.6,356.9,484.4,356.9,482.8z
		 M358.5,482.8c0,1.2,0.3,2.1,0.8,2.7c0.5,0.6,1.2,0.9,2,0.9s1.4-0.3,2-0.9s0.8-1.5,0.8-2.7c0-1.2-0.3-2-0.8-2.6
		c-0.5-0.6-1.2-0.9-2-0.9s-1.4,0.3-2,0.9C358.7,480.8,358.5,481.6,358.5,482.8z"/>
	<path class="st3" d="M373.6,487.5v-1.4c-0.7,1.1-1.7,1.6-3,1.6c-0.6,0-1.1-0.1-1.5-0.3s-0.8-0.5-1.1-0.8c-0.3-0.3-0.4-0.7-0.5-1.2
		c-0.1-0.3-0.1-0.8-0.1-1.5v-5.8h1.6v5.2c0,0.8,0,1.4,0.1,1.7c0.1,0.4,0.3,0.7,0.6,1c0.3,0.2,0.7,0.4,1.2,0.4s0.9-0.1,1.3-0.4
		s0.7-0.6,0.9-1c0.2-0.4,0.3-1,0.3-1.8v-5h1.6v9.3H373.6z"/>
	<path class="st3" d="M376.8,484.7l1.6-0.2c0.1,0.6,0.3,1.1,0.7,1.4s1,0.5,1.7,0.5s1.3-0.1,1.6-0.4s0.5-0.6,0.5-1
		c0-0.4-0.2-0.6-0.5-0.8c-0.2-0.1-0.8-0.3-1.6-0.5c-1.2-0.3-2-0.5-2.4-0.8c-0.4-0.3-0.8-0.5-1-0.9c-0.2-0.4-0.3-0.8-0.3-1.3
		c0-0.4,0.1-0.8,0.3-1.2c0.2-0.4,0.4-0.6,0.8-0.9c0.2-0.2,0.6-0.3,1-0.5c0.4-0.2,0.9-0.2,1.4-0.2c0.7,0,1.4,0.1,1.9,0.3
		c0.5,0.2,1,0.5,1.2,0.9c0.3,0.4,0.4,0.8,0.5,1.4l-1.5,0.2c-0.1-0.5-0.3-0.9-0.6-1.1s-0.8-0.4-1.4-0.4c-0.7,0-1.2,0.1-1.6,0.4
		s-0.5,0.5-0.5,0.8c0,0.2,0.1,0.4,0.2,0.6c0.1,0.2,0.3,0.3,0.6,0.4c0.2,0.1,0.6,0.2,1.4,0.4c1.1,0.3,1.9,0.5,2.3,0.7s0.8,0.5,1,0.8
		c0.2,0.3,0.4,0.8,0.4,1.4c0,0.5-0.2,1-0.5,1.5s-0.8,0.8-1.3,1.1c-0.6,0.3-1.2,0.4-2,0.4c-1.2,0-2.1-0.3-2.8-0.8
		S377,485.7,376.8,484.7z"/>
	<path class="st3" d="M392.9,484.5l1.6,0.2c-0.3,1-0.7,1.7-1.4,2.2s-1.6,0.8-2.7,0.8c-1.4,0-2.4-0.4-3.2-1.3c-0.8-0.8-1.2-2-1.2-3.5
		c0-1.6,0.4-2.8,1.2-3.7s1.9-1.3,3.1-1.3c1.2,0,2.3,0.4,3.1,1.3s1.2,2,1.2,3.6c0,0.1,0,0.2,0,0.4h-7c0.1,1,0.3,1.8,0.9,2.4
		s1.2,0.8,2,0.8c0.6,0,1.1-0.2,1.5-0.5C392.4,485.6,392.6,485.2,392.9,484.5z M387.7,481.9h5.2c-0.1-0.8-0.3-1.4-0.6-1.8
		c-0.5-0.6-1.2-0.9-2-0.9c-0.7,0-1.3,0.2-1.8,0.7S387.7,481.1,387.7,481.9z"/>
	<path class="st3" d="M400,487.5v-11.4h-4.2v-1.5H406v1.5h-4.3v11.4H400z"/>
	<path class="st3" d="M404.9,482.8c0-1.7,0.5-3,1.4-3.8c0.8-0.7,1.8-1,2.9-1c1.3,0,2.3,0.4,3.1,1.3c0.8,0.9,1.2,2,1.2,3.5
		c0,1.2-0.2,2.1-0.5,2.8c-0.4,0.7-0.9,1.2-1.6,1.6s-1.4,0.6-2.3,0.6c-1.3,0-2.4-0.4-3.2-1.3C405.1,485.6,404.9,484.4,404.9,482.8z
		 M406.5,482.8c0,1.2,0.3,2.1,0.8,2.7c0.5,0.6,1.2,0.9,2,0.9s1.4-0.3,2-0.9s0.8-1.5,0.8-2.7c0-1.2-0.3-2-0.8-2.6
		c-0.5-0.6-1.2-0.9-2-0.9s-1.4,0.3-2,0.9C406.7,480.8,406.5,481.6,406.5,482.8z"/>
	<path class="st3" d="M415.5,487.5v-12.9h1.6v7.3l3.7-3.8h2l-3.6,3.5l3.9,5.9h-2l-3.1-4.8l-1.1,1.1v3.7H415.5z"/>
	<path class="st3" d="M430.9,484.5l1.6,0.2c-0.3,1-0.7,1.7-1.4,2.2s-1.6,0.8-2.7,0.8c-1.4,0-2.4-0.4-3.2-1.3c-0.8-0.8-1.2-2-1.2-3.5
		c0-1.6,0.4-2.8,1.2-3.7s1.9-1.3,3.1-1.3c1.2,0,2.3,0.4,3.1,1.3s1.2,2,1.2,3.6c0,0.1,0,0.2,0,0.4h-7c0.1,1,0.3,1.8,0.9,2.4
		s1.2,0.8,2,0.8c0.6,0,1.1-0.2,1.5-0.5C430.4,485.6,430.6,485.2,430.9,484.5z M425.7,481.9h5.2c-0.1-0.8-0.3-1.4-0.6-1.8
		c-0.5-0.6-1.2-0.9-2-0.9c-0.7,0-1.3,0.2-1.8,0.7S425.7,481.1,425.7,481.9z"/>
	<path class="st3" d="M434.5,487.5v-9.3h1.4v1.3c0.7-1,1.7-1.5,3-1.5c0.6,0,1.1,0.1,1.6,0.3s0.8,0.5,1.1,0.8
		c0.3,0.3,0.4,0.7,0.5,1.2c0.1,0.3,0.1,0.8,0.1,1.5v5.7h-1.6v-5.7c0-0.6-0.1-1.1-0.2-1.4s-0.3-0.6-0.7-0.8c-0.3-0.2-0.7-0.3-1.1-0.3
		c-0.7,0-1.3,0.2-1.7,0.6s-0.7,1.2-0.7,2.4v5.1L434.5,487.5L434.5,487.5z"/>
	<path class="st3" d="M468.9,479.3c-3,0-10.2,0.2-11.1,0.3c-0.5,0.1-0.6,0.3-0.9,0.3c-0.4,0-2.4-0.8-2.4-1.1c0-0.1,0.1-0.1,0.2-0.1
		c0.1,0,0.2,0,0.3,0c1.3,0.2,2.9,0.2,4.7,0.2c1.7,0,3.5-0.1,5.7-0.1c0.6-2,0.8-3.4,1-4.6c-2.3,0-5.5,0.1-6.7,0.2
		c-0.6,0.1-0.7,0.3-1,0.3c-0.4,0-1.9-0.7-1.9-1c0-0.1,0.1-0.1,0.2-0.1c0.1,0,0.2,0,0.4,0.1c0.8,0.1,1.9,0.2,3.2,0.2
		c1.5,0,3.3-0.1,5.2-0.2c0.5,0,0.5-0.2,1-0.2c0.1,0,0.3,0,0.6,0.1c0.5,0.1,0.7,0.2,0.7,0.3c0,0.2-0.3,0.4-0.4,0.6
		c-0.3,1.3-1,3-1.5,4.3c0.3,0,0.6,0,1,0c1.3,0,1-0.5,2.1-0.5c0.2,0,1.5,0,1.5,0.6c0,0.2-0.3,0.4-0.8,0.4H468.9z M459.6,482.4
		c-0.6,0.1-0.7,0.2-1,0.2c-0.4,0-1.7-0.6-1.7-0.8c0-0.1,0.1-0.1,0.2-0.1h0.1c0.8,0.1,1.9,0.1,3.1,0.1c1.5,0,3.2-0.1,4.6-0.2
		c0.4,0,0.3-0.1,0.8-0.1s1.1,0.1,1.1,0.3c0,0.1-0.2,0.3-0.3,0.5c-0.3,1-0.5,1.7-0.6,2c0.5,0.1,0.8,0.3,0.8,0.4
		c0,0.1-0.2,0.3-0.6,0.3l-6.7,0.1c-0.2,0.1-0.3,0.1-0.3,0.3v1.7c0,0.3,0.2,0.4,0.6,0.4h4.7c1.1-0.1,0.7-0.5,1.9-0.5
		c1.1,0,1.4,0.4,1.4,0.6c0,0.2-0.2,0.4-0.6,0.4h-7.3c-0.9,0-1.5-0.3-1.5-1v-1.6c-0.1-0.2-0.7-0.5-1-0.6c-0.2-0.1-0.4-0.1-0.4-0.2
		c0-0.1,0.1-0.1,0.5-0.2c1.1,0,2,0.2,2.2,0.3l4.5-0.1c0.6,0,0.7-0.1,1.3-0.2l0.1-2.2L459.6,482.4z"/>
	<path class="st3" d="M487.5,486.6c-1.4-0.1-3.4-0.2-5.6-0.2c-3.1,0-4.7,0.1-6.2,0.3c-0.5,0.1-0.7,0.3-1.2,0.3c-0.4,0-0.9-0.2-2-0.8
		c-0.3-0.1-0.4-0.2-0.4-0.3c0-0.1,0.1-0.1,0.2-0.1c0.1,0,0.2,0,0.4,0.1c0.9,0.2,2.2,0.2,3.7,0.2c1,0,2.2,0,3.4-0.1
		c0-0.3,0-1-0.1-4.1c-1,0-1.7,0.1-2.4,0.1c-0.8,0-1.4-0.3-1.4-1.1V479c-0.1-0.3-0.7-0.5-1.3-0.7c-0.1,0-0.3-0.1-0.3-0.2
		s0.2-0.3,0.9-0.3s1.3,0.1,1.9,0.2c1,0,3.5-0.2,4.9-0.3c0.6,0,0.6-0.1,1.2-0.2c0.1-0.5,0.2-1.7,0.2-2.7c-1.5,0.1-4.1,0.3-6.2,0.4
		c-0.6,0.1-0.6,0.3-0.9,0.3c-0.3,0-1.9-0.7-1.9-0.9c0-0.1,0.1-0.1,0.2-0.1c0.1,0,0.1,0,0.2,0c0.8,0.1,1.7,0.1,2.6,0.1
		c1.6,0,3.4-0.1,5.2-0.3c0.5-0.1,0.5-0.2,1.2-0.2c0.8,0,1.2,0.1,1.2,0.3c0,0.2-0.4,0.5-0.5,0.7c-0.2,0.6-0.5,1.7-0.7,2.3
		c0.5,0,0.8,0.2,0.8,0.4c0,0.1-0.1,0.2-0.5,0.2c-2.5,0.1-4.9,0.2-6.8,0.3c-0.2,0.1-0.4-0.1-0.4,0.2v0.1c0,0.3,0,1.3,0,2.3
		c0,0.3,0.1,0.4,0.5,0.4c1.3,0,3-0.1,4.8-0.2c1-0.1,0.6-0.5,1.9-0.5c0.5,0,1.2,0,1.2,0.4c0,0.2-0.3,0.4-0.6,0.4
		c-1.6,0.1-2.8,0.2-4,0.2c0,2.6,0,3.3,0,4.1c0.8,0,2.3-0.1,3.9-0.1c0.7,0,0.6-0.3,1.4-0.3c0.4,0,2.1,0.1,2.1,0.7
		C488.3,486.4,488.1,486.6,487.5,486.6L487.5,486.6z"/>
	<path class="st3" d="M502.8,477.4c-0.9,0-1.5,0.1-2,0.1s-0.6,0.2-0.9,0.2c-0.2,0-0.5-0.1-0.9-0.3c0,1.4-0.1,2.7-0.2,3
		c-0.2,0.3-0.4,0.6-0.6,0.6c-0.1,0-0.3-0.2-0.3-0.8l-4.6,0.1c-0.2,0.7-0.5,1.1-0.7,1.1s-0.3-0.2-0.3-0.7c0-0.3,0-4.2-0.1-5.1
		c0-0.3,0-0.4-1.2-0.8c-0.2-0.1-0.3-0.1-0.3-0.2c0-0.1,0.2-0.2,0.6-0.3c1.8,0.1,2.1,0.3,2.1,0.5c0,0.1-0.1,0.2-0.1,0.4v1.4l4.5-0.1
		v-1.7c0-0.3-0.4-0.5-1.1-0.8c-0.2-0.1-0.4-0.2-0.4-0.3c0-0.1,0.2-0.2,0.6-0.2c1.7,0.2,2,0.4,2,0.6c0,0.1,0,0.3,0,0.4
		c0,0.7,0,1.5,0,2.3c0.2,0,0.4,0,0.7,0c0.9,0,2.2-0.1,3-0.1v-3c-0.1-0.4-0.9-0.8-1.6-1.1c-0.3-0.1-0.4-0.2-0.4-0.3s0.2-0.2,0.6-0.2
		c0.2,0,2.6,0.4,2.6,0.9c0,0.1-0.1,0.2-0.1,0.5v5.8c0,2.5-0.7,2.8-0.8,2.8c-0.2,0-0.3-0.3-0.3-1.2v-3.5H502.8z M493.5,477.1v2.8
		l4.5-0.1V477L493.5,477.1z M496,486c0-0.2-0.4-0.3-1-0.5c-0.2-0.1-0.3-0.1-0.3-0.2c0,0,0.2-0.2,0.8-0.2c0.8,0,1.6,0.1,1.8,0.2
		c1.7,0,2.7,0,4.4-0.1c0.4,0,0.6-0.1,1-0.2c0-0.3,0.1-1.3,0.2-2.2c-1.2,0-3.6,0.1-5.3,0.2c-0.5,0.1-0.6,0.3-0.9,0.3
		c-0.4,0-1.8-0.6-1.8-0.8c0-0.1,0.1-0.1,0.3-0.1c0.1,0,0.2,0,0.3,0c0.6,0.1,1.5,0.1,2.5,0.1c1.5,0,3.2-0.1,4.6-0.2
		c0.3-0.1,0.3-0.1,0.7-0.1c0.1,0,0.2,0,0.4,0c0.5,0,0.7,0.1,0.7,0.3c0,0.1-0.2,0.3-0.3,0.5c-0.2,0.5-0.5,1.3-0.6,1.9
		c0.5,0.1,0.7,0.3,0.7,0.4c0,0.1-0.2,0.3-0.6,0.3c-1.4,0-4.1,0.1-6,0.1c-0.2,0.1-0.3,0.1-0.3,0.3v1.6c0,0.3,0.2,0.4,0.5,0.4
		c0.4,0,0.9,0,1.5,0c0.9,0,2,0,3.1,0c1.1-0.1,0.7-0.5,1.9-0.5c0.5,0,1.4,0,1.4,0.5c0,0.2-0.2,0.4-0.6,0.4h-7.2c-1.3,0-1.6-0.5-1.6-1
		V486H496z"/>
	<path class="st3" d="M520.8,481.3c-1.3,0-3.3,0.1-4.3,0.2c-0.5,0.1-0.5,0.4-0.9,0.4c-0.5,0-2.5-0.9-2.5-1.2c0-0.1,0.1-0.1,0.2-0.1
		c0.1,0,0.2,0,0.4,0.1c1.2,0.1,2.6,0.2,4.1,0.2c2.7,0,5.7-0.1,8-0.3c1-0.1,0.7-0.4,1.5-0.4c0.5,0,1.9,0,1.9,0.6
		c0,0.2-0.2,0.4-0.6,0.5c-1.1,0-2.1-0.1-3.3-0.1c-1,0-2.1,0-3.4,0.1c0,4.3,0,5.9-0.4,7.1c-0.2,0.4-0.3,0.6-0.5,0.6s-0.3-0.3-0.3-1
		L520.8,481.3L520.8,481.3z M518.2,478.9c-0.1,0.5-0.4,0.9-0.7,0.9c-0.2,0-0.3-0.3-0.3-0.7s0-4.1-0.1-4.6c0-0.3-0.1-0.5-1.2-0.8
		c-0.2-0.1-0.4-0.1-0.4-0.2c0-0.1,0.2-0.2,0.6-0.3c1.9,0.1,2.1,0.3,2.1,0.6c0,0.1,0,0.3,0,0.3v1.2l5.9-0.1v-1.4
		c0-0.2-0.4-0.5-1.1-0.7c-0.2-0.1-0.4-0.2-0.4-0.3c0-0.1,0.2-0.2,0.6-0.2c1.8,0.2,2.1,0.4,2.1,0.7c0,0.1,0,0.2,0,0.4
		c0,1.6,0,4.7-0.3,5.3c-0.1,0.3-0.4,0.6-0.6,0.6c-0.1,0-0.3-0.2-0.3-0.7H518.2z M518.3,475.7v2.6l5.9-0.1v-2.6L518.3,475.7z"/>
	<path class="st3" d="M534.7,474.2c-0.1-0.4-0.6-0.6-1.3-0.8c-0.2,0-0.2-0.1-0.2-0.1c0-0.1,0.2-0.2,0.5-0.2c0.9,0,1.8,0.2,2.3,0.4
		c1.4,0,3.1,0,4.8-0.1c1.4-0.1,0.8-0.5,2.2-0.5c0.4,0,1.3,0,1.3,0.5c0,0.2-0.3,0.4-0.8,0.4c-1.9,0.1-5.5,0.1-7.3,0.1
		c-0.1,0.1-0.2,0-0.2,0.3c0,0.7,0,2,0,2.8c0.1,0.6,0.1,0.6,2,0.6c1,0,2,0,3.5-0.1c1-0.1,0.5-0.5,2.2-0.5c0.6,0,0.9,0.2,0.9,0.5
		c0,0.2-0.3,0.5-0.7,0.5c-0.6,0-2.8,0.1-3.8,0.1c0,1.1,0,2-0.2,2.7c1.4-0.1,2.9-0.2,4.1-0.3c0.8-0.1,0.7-0.3,1.4-0.3
		c0.3,0,0.7,0,1.4,0.1c0.5,0.1,0.7,0.3,0.7,0.5c0,0.2-0.2,0.4-0.6,0.4h-0.1c-0.8,0-2.2-0.1-3.7-0.1c-2.5,0-5.6,0.1-8.1,0.4
		c-0.8,0.1-0.9,0.4-1.3,0.4c-0.5,0-2.4-0.8-2.4-1.2c0-0.1,0.1-0.1,0.2-0.1c0.1,0,0.2,0,0.3,0c0.9,0.1,2.2,0.2,3.6,0.2
		c1.2,0,2.4-0.1,3.5-0.1c-0.1-0.8-0.1-2-0.1-2.7l0,0h-2.2c-1.4,0-1.8-0.4-1.8-1.2L534.7,474.2z M539.2,482.7c0-0.1-0.1-0.3-0.2-0.5
		c-0.1-0.1-0.2-0.2-0.2-0.2c0-0.1,0.1-0.1,0.2-0.1c0.4,0,1.2,0.4,1.2,0.6s-0.2,0.3-0.3,0.5c2,0.4,2.9,1.6,2.9,2.9
		c0,1.5-1.3,2.9-3.5,2.9s-3.5-1.4-3.5-2.9c0-1.3,1-2.6,3.1-2.9C539.1,482.9,539.2,482.8,539.2,482.7z M536.9,485.8
		c0,1.1,0.8,2.2,2.5,2.2s2.5-1.1,2.5-2.2c0-1.1-0.8-2.2-2.5-2.2C537.7,483.5,536.9,484.6,536.9,485.8z"/>
	<path class="st3" d="M549.4,481.3c3.4-2.2,5.2-5.4,5.2-5.7s-0.2-0.6-1-1.2c-0.3-0.1-0.4-0.3-0.4-0.3c0-0.1,0.2-0.1,0.4-0.1
		c0.1,0,0.2,0,0.3,0c0.4,0.1,2.2,0.9,2.2,1.4c0,0.3-0.4,0.8-1.1,1.9c0.5,0.6,0.9,0.9,1.4,1.4c1,0.7,0.9,0,2.2,1.8
		c0.1,0.2,0.1,0.4,0.1,0.5c0,0.3-0.2,0.4-0.4,0.4c-0.1,0-0.3-0.1-0.4-0.2c-0.9-1-2.5-2.6-3.3-3.5c-1.6,1.8-3,2.9-5.1,3.9
		c-0.2,0.1-0.4,0.1-0.5,0.1s-0.1,0-0.1-0.1C549,481.6,549.1,481.5,549.4,481.3z M554.9,484.6c0-0.3-0.4-0.5-1.4-0.8
		c-0.2-0.1-0.3-0.1-0.3-0.2s0.2-0.2,0.6-0.3c0.8,0,1.6,0.1,1.9,0.1c0.3,0.1,0.4,0.2,0.4,0.3s0,0.3-0.1,0.5c0,0.8,0,1.9,0,2.5
		c0,0.4,0.3,0.6,0.9,0.6h3.3c1.4-0.1,0.7-0.5,2.3-0.5c0.6,0,1.4,0.1,1.4,0.6c0,0.2-0.2,0.4-0.5,0.4h-6.5c-1.2,0-1.9-0.3-1.9-1.2
		L554.9,484.6z M561,473.9c0-0.2-0.5-0.5-1.5-1c-0.3-0.1-0.4-0.2-0.4-0.3s0.2-0.2,0.6-0.2c0.1,0,2.5,0.3,2.5,0.9
		c0,0.1-0.1,0.3-0.1,0.5v5.7c0.3,0,0.5,0,0.8,0c0.8-0.2,0.5-0.5,1.8-0.5c0.4,0,1,0,1,0.5c0,0.2-0.2,0.5-0.5,0.5l-3.2,0.1
		c0,3.3-0.1,4.1-0.3,4.6c-0.2,0.3-0.4,0.6-0.5,0.6s-0.3-0.2-0.3-0.8v-10.6H561z"/>
	<path class="st3" d="M584.8,478.1c-0.9,0.1-1.5,0.1-1.9,0.1c-0.4,0.1-0.5,0.3-0.7,0.3s-0.5-0.1-0.9-0.3c-0.3-0.1-0.4-0.2-0.5-0.3
		c-0.4,1.2-0.9,2.6-1.2,3.3c0.6-0.1,1.8-0.4,3-0.7c0.2-0.1,0.4-0.1,0.5-0.1s0.1,0,0.1,0.1c0,0.1-0.2,0.2-0.5,0.3
		c-2.2,0.9-5.4,1.6-6.6,1.8c-0.5,0.1-0.5,0.3-0.8,0.3s-2.5-0.8-2.5-1.2c0-0.1,0.1-0.1,0.2-0.1c0.1,0,0.2,0,0.4,0.1
		c0.4,0.1,0.9,0.1,1.5,0.1c1.2,0,2.7-0.2,4-0.4c0.2-0.8,0.5-2.1,0.7-3.9c0-0.4-0.3-0.6-0.8-0.9c-0.2-0.1-0.3-0.2-0.3-0.3
		s0.2-0.1,0.6-0.2c0.1,0,2,0.4,2,0.8l-0.3,0.7c0.1,0,1.4,0.1,1.5,0.1c0.8,0,1.8-0.1,2.5-0.1V474c0-0.4-0.9-0.8-1.5-1.1
		c-0.3-0.1-0.5-0.2-0.5-0.3s0.2-0.2,0.6-0.2c0.9,0.1,1.8,0.4,2.2,0.5c0.3,0.2,0.4,0.3,0.4,0.4c0,0.1-0.1,0.2-0.1,0.4v7
		c-0.1,2.4-0.1,3.4-0.5,4c-0.1,0.2-0.2,0.3-0.3,0.3c-0.2,0-0.3-0.3-0.3-1.2L584.8,478.1L584.8,478.1z M581.4,474.5
		c0.7,0,1,0.2,1,0.4c0,0.2-0.4,0.5-1.1,0.5c-2.1,0-3.6,0.1-5.1,0.3c-0.5,0.1-0.6,0.2-0.9,0.2c-0.4,0-1.7-0.6-1.7-0.8
		c0-0.1,0.1-0.1,0.2-0.1c0.1,0,0.2,0,0.3,0.1c0.8,0.1,1.4,0.1,2.1,0.1c1.4,0,2.2-0.1,3.3-0.2c1-0.1,0.6-0.4,1.6-0.4h0.3V474.5z
		 M577.1,480c-0.2,0.5-0.4,0.8-0.6,0.8c-0.2,0-0.4-0.2-0.4-0.6c-0.1-0.5-0.3-1.8-1-3c-0.1-0.1-0.1-0.3-0.1-0.4s0-0.1,0.1-0.1
		c0.3,0,2.1,1.9,2.1,2.9L577.1,480z M578,484.8c0-0.4-0.4-0.5-1.4-0.8c-0.2,0-0.3-0.1-0.3-0.2c0-0.1,0.1-0.2,0.6-0.3
		c0.8,0,1.6,0.1,1.9,0.1c0.3,0.1,0.4,0.2,0.4,0.3c0,0.1-0.1,0.3-0.1,0.5c0,0.8,0,1.8,0,2.4c0,0.4,0.2,0.6,0.9,0.6h3.8
		c1.4-0.1,0.7-0.5,2.3-0.5c0.6,0,1.3,0.1,1.3,0.6c0,0.2-0.2,0.4-0.5,0.4h-7c-1.2,0-1.9-0.3-1.9-1.2V484.8z"/>
	<path class="st3" d="M602.8,485.9c0.8-0.1,0.7-0.4,1.6-0.4c0.4,0,1.9,0.1,1.9,0.6c0,0.2-0.2,0.4-0.6,0.4h-0.1
		c-1.5-0.1-3.4-0.1-5-0.1c-2.3,0-4.6,0.1-7,0.2c-0.6,0.1-0.7,0.4-1,0.4s-2.4-0.8-2.4-1.2c0-0.1,0.1-0.1,0.2-0.1c0.1,0,0.2,0,0.4,0.1
		c0.7,0.2,2,0.3,3.5,0.3c2.2,0,4.9-0.1,7.7-0.2H602.8z M593.7,475.7c0-0.3-0.7-0.6-1.4-0.9c-0.2,0-0.3-0.1-0.3-0.2
		c0-0.1,0.2-0.2,0.6-0.2c1.1,0.1,2,0.3,2.4,0.5l5-0.1c2-0.1,0.9-0.6,2.9-0.6h0.2c0.5,0,0.8,0.3,0.8,0.5s-0.3,0.5-0.8,0.5
		c-2.8,0.1-6.1,0.1-7.8,0.1c-0.2,0.1-0.4,0-0.4,0.4v4c0,0.7,0,0.7,2.5,0.7c1.1,0,2.3,0,3.4-0.1c1.2,0,0.8-0.5,2.4-0.5
		c0.9,0,1.1,0.4,1.1,0.5c0,0.2-0.3,0.5-0.7,0.5c-0.8,0.1-3.9,0.1-6,0.1c-1.1,0-2,0-2.3,0c-0.6,0-1.4-0.4-1.4-1.3L593.7,475.7z"/>
	<path class="st3" d="M387.9,494.6c-2.1,1.7-3.4,4.4-3.4,7.7c0,3.3,1.3,5.9,3.4,7.7v0.3c-3.2-1.8-4.5-4.6-4.5-8c0-3.3,1.4-6.2,4.5-8
		V494.6z"/>
	<path class="st3" d="M402.2,501.6c0.7-0.1,0.6-0.3,1.4-0.3c1,0,1.8,0.1,1.8,0.5c0,0.2-0.3,0.5-0.7,0.5l0,0c-1,0-2.7-0.1-4.2-0.1
		c-1,0-1.8,0-2.3,0.1c0.1,1.1-0.5,2.5-0.8,2.5c-0.2,0-0.3-0.3-0.3-0.8v-1.7c-1.2,0-3,0.1-4,0.1c-0.8,0.1-0.8,0.4-1.2,0.4
		c-0.5,0-2.4-0.8-2.4-1.1c0-0.1,0.1-0.1,0.2-0.1c0.1,0,0.2,0,0.3,0.1c0.7,0.1,1.9,0.2,3.4,0.2c2.2,0,5.1-0.1,8.2-0.3L402.2,501.6z
		 M400.6,505.2c-1.1,0.1-4,0.2-6,0.3c-0.7,0-0.8,0.3-1.2,0.3c-0.5,0-1.9-0.7-1.9-0.9c0-0.1,0.1-0.1,0.3-0.1c0.1,0,0.1,0,0.3,0
		c0.7,0.1,1.6,0.1,2.7,0.1c1.7,0,3.6-0.1,5.1-0.2c0.5,0,0.4-0.2,1-0.2h0.2c0.7,0,0.9,0.1,0.9,0.3c0,0.1-0.2,0.3-0.2,0.6
		c0,2.3,0,3.4-0.3,4.5c-0.1,0.5-0.4,0.8-0.6,0.8c-0.2,0-0.3-0.2-0.3-0.6V505.2z M393.1,498.4c0-0.2-0.4-0.4-1.1-0.6
		c-0.2,0-0.3-0.1-0.3-0.1c0-0.1,0.2-0.2,0.6-0.3c0.8,0,1.5,0.1,2,0.2c1.4,0,3.4-0.1,4.9-0.2c0.5,0,0.5-0.1,1-0.2
		c0.1-0.4,0.1-0.7,0.1-1.9c-2.1,0-4.4,0.1-5.9,0.2c-0.5,0.1-0.6,0.3-0.9,0.3c-0.3,0-1.9-0.7-1.9-1c0-0.1,0.1-0.1,0.2-0.1
		c0.1,0,0.2,0,0.3,0c0.6,0.1,1.6,0.2,2.7,0.2c1.6,0,3.5-0.1,4.6-0.1c0.7-0.1,0.4-0.2,1.4-0.2c0.5,0,1.1,0.1,1.1,0.3
		s-0.3,0.4-0.5,0.6c-0.3,0.7-0.5,1.2-0.6,1.7c0.5,0.1,0.7,0.3,0.7,0.4c0,0.2-0.5,0.2-0.7,0.2c-2,0-4.8,0.1-6.5,0.2
		c-0.2,0.1-0.3,0-0.3,0.3c0,1.7,0.1,1.7,0.8,1.7c0.8,0,2.4-0.1,4.2-0.1c1.2-0.1,0.8-0.5,2.3-0.5l0,0c0.7,0,1,0.3,1,0.5
		c0,0.2-0.2,0.4-0.5,0.4c-2.3,0.1-5.5,0.2-7.6,0.2c-0.9,0-1.4-0.4-1.4-1L393.1,498.4z"/>
	<path class="st3" d="M408.2,503.8c3.2-2.7,4.5-5.8,4.5-6.1c0-0.2-0.3-0.5-0.9-0.9c-0.3-0.2-0.4-0.3-0.4-0.4c0-0.1,0.1-0.1,0.3-0.1
		c0.5,0,0.8,0.1,2.1,0.5c0.3,0.1,0.4,0.3,0.4,0.4c0,0.2-0.8,2-1.4,2.8c0.2,0.3,0.5,0.5,1,0.9s0.6-0.1,1.3,1.3
		c0.1,0.3,0.2,0.5,0.2,0.6c0,0.2-0.1,0.3-0.3,0.3c-0.1,0-0.3-0.1-0.4-0.2c-0.6-0.7-1.2-1.5-2.2-2.6c-1.7,2.1-4.2,3.7-4.5,3.7
		c0,0-0.1,0-0.1-0.1C407.9,504,408,503.9,408.2,503.8z M414.1,510c-0.1-0.6-0.1-3-0.3-4.3c0-0.3-0.1-0.4-1-0.7
		c-0.2-0.1-0.4-0.1-0.4-0.2s0.1-0.2,0.6-0.2c0.7,0,1.6,0.2,2,0.3c0.8,0,3.9-0.1,4.8-0.2c0.4,0,0.2-0.2,0.8-0.2c0.1,0,1.1,0,1.1,0.3
		c0,0.1-0.3,0.4-0.3,0.6c-0.2,1.2-0.6,2.8-0.7,3.5c0.5,0.1,0.8,0.3,0.8,0.4c0,0.1-0.2,0.3-0.5,0.3c-1.2,0-4.8,0.1-6,0.1
		c-0.1,0.7-0.4,1.1-0.6,1.1C414.3,510.7,414.1,510.5,414.1,510z M417.4,496.6c0-0.5-0.7-0.8-1.3-1.1c-0.2-0.1-0.4-0.2-0.4-0.3
		c0-0.1,0.2-0.2,0.6-0.2c0.4,0.1,1.2,0.3,1.6,0.4c0.4,0.2,0.5,0.3,0.5,0.5c0,0.1-0.1,0.2-0.1,0.4v4.8c0,1.9-0.4,2.7-0.7,2.7
		c-0.2,0-0.3-0.5-0.4-1.4v-2.2l-1.4,0.1c-0.4,0.1-0.5,0.3-0.6,0.3c-0.2,0-1.3-0.4-1.3-0.6c0-0.1,0-0.1,0.6-0.1c1.2,0,1.9,0,2.7-0.1
		v-3.2H417.4z M419,509.1c0.5-0.1,0.6-0.1,1.1-0.2c0-0.8,0.1-2.9,0.1-3.8c-1,0.1-3.8,0.1-5.2,0.2c-0.1,0.1-0.2,0.1-0.2,0.3l0.1,3.6
		L419,509.1z M420.4,495.5c0-0.3-0.7-0.8-1.4-1.2c-0.3-0.1-0.4-0.2-0.4-0.3c0-0.1,0.2-0.2,0.6-0.2c0.9,0.1,1.6,0.4,2,0.5
		c0.3,0.1,0.4,0.3,0.4,0.4c0,0.1-0.1,0.3-0.1,0.5v5.3c0,2.2-0.5,3-0.8,3c-0.2,0-0.3-0.2-0.3-1.1V495.5z"/>
	<path class="st3" d="M432.8,502.9c-1.3,0-3.3,0.1-4.3,0.2c-0.5,0.1-0.5,0.4-0.9,0.4c-0.5,0-2.5-0.9-2.5-1.2c0-0.1,0.1-0.1,0.2-0.1
		c0.1,0,0.2,0,0.4,0.1c1.2,0.1,2.6,0.2,4.1,0.2c2.7,0,5.7-0.1,8-0.3c1-0.1,0.7-0.4,1.5-0.4c0.5,0,1.9,0,1.9,0.6
		c0,0.2-0.2,0.4-0.6,0.5c-1.1,0-2.1-0.1-3.3-0.1c-1,0-2.1,0-3.4,0.1c0,4.3,0,5.9-0.4,7.1c-0.2,0.4-0.3,0.6-0.5,0.6s-0.3-0.3-0.3-1
		L432.8,502.9L432.8,502.9z M430.2,500.5c-0.1,0.5-0.4,0.9-0.7,0.9c-0.2,0-0.3-0.3-0.3-0.7s0-4.1-0.1-4.6c0-0.3-0.1-0.5-1.2-0.8
		c-0.2-0.1-0.4-0.1-0.4-0.2s0.2-0.2,0.6-0.3c1.9,0.1,2.1,0.3,2.1,0.6c0,0.1,0,0.3,0,0.3v1.2l5.9-0.1v-1.4c0-0.2-0.4-0.5-1.1-0.7
		c-0.2-0.1-0.4-0.2-0.4-0.3c0-0.1,0.2-0.2,0.6-0.2c1.8,0.2,2.1,0.4,2.1,0.7c0,0.1,0,0.2,0,0.4c0,1.6,0,4.7-0.3,5.3
		c-0.1,0.3-0.4,0.6-0.6,0.6c-0.1,0-0.3-0.2-0.3-0.7H430.2z M430.2,497.3v2.6l5.9-0.1v-2.6L430.2,497.3z"/>
	<path class="st3" d="M455.7,507.4c0.7,0,0.6-0.4,1.6-0.4c0.5,0,2,0.1,2,0.7c0,0.2-0.2,0.4-0.6,0.4h-0.1c-0.9-0.1-2-0.1-3-0.1
		c-0.6,0-3.3,0-4,0c-1.6,0-3.7,0.2-4.8,0.2c-0.7,0.1-0.8,0.4-1.1,0.4c-0.4,0-2.4-0.9-2.4-1.2c0-0.1,0.1-0.1,0.2-0.1
		c0.1,0,0.2,0,0.3,0c0.8,0.2,2.4,0.3,4.4,0.3s4.4-0.1,6.8-0.2L455.7,507.4z M446.9,500.5c-0.1-0.3-0.7-0.5-1.3-0.7
		c-0.1,0-0.3-0.1-0.3-0.2c0-0.1,0.2-0.3,0.9-0.3s1.3,0.1,1.9,0.2c1,0,3.5-0.2,4.9-0.3c0.6,0,0.6-0.1,1.2-0.2
		c0.1-0.5,0.2-1.7,0.2-2.7c-1.5,0.1-4.1,0.3-6.2,0.4c-0.6,0.1-0.6,0.3-0.9,0.3c-0.3,0-1.9-0.7-1.9-0.9c0-0.1,0.1-0.1,0.2-0.1
		c0.1,0,0.1,0,0.2,0c0.8,0.1,1.7,0.1,2.6,0.1c1.6,0,3.4-0.1,5.2-0.3c0.5-0.1,0.5-0.2,1.2-0.2c0.8,0,1.2,0.1,1.2,0.3
		s-0.4,0.5-0.5,0.7c-0.2,0.6-0.5,1.7-0.7,2.3c0.5,0,0.8,0.2,0.8,0.4c0,0.1-0.1,0.2-0.5,0.2c-2.5,0.1-4.9,0.2-6.8,0.3
		c-0.2,0.1-0.4-0.1-0.4,0.2v0.1c0,0.3,0,1.3,0,2.3c0,0.3,0.1,0.4,0.5,0.4c1.3,0,3-0.1,4.8-0.2c1-0.1,0.6-0.5,1.9-0.5
		c0.5,0,1.2,0,1.2,0.4c0,0.2-0.3,0.4-0.6,0.4c-1.6,0.1-2.8,0.2-4,0.2h-1.1c-1,0-1.8,0.1-2.4,0.1c-0.8,0-1.4-0.3-1.4-1.1L446.9,500.5
		z"/>
	<path class="st3" d="M473.8,507.5c0.8-0.1,0.7-0.4,1.6-0.4c0.4,0,1.9,0.1,1.9,0.6c0,0.2-0.2,0.4-0.6,0.4h-0.1
		c-1.5-0.1-3.4-0.1-5-0.1c-2.3,0-4.6,0.1-7,0.2c-0.6,0.1-0.7,0.4-1,0.4s-2.4-0.8-2.4-1.2c0-0.1,0.1-0.1,0.2-0.1c0.1,0,0.2,0,0.4,0.1
		c0.7,0.2,1.9,0.3,3.4,0.3c1.9,0,4.4-0.1,7-0.2c0.5-2.2,0.9-4.7,1-6.3c-2.3,0.7-4.8,1.3-7,1.7c-0.5,0.1-0.6,0.3-0.9,0.3
		c-0.4,0-2.6-0.8-2.6-1.1c0-0.1,0.1-0.1,0.2-0.1c0.1,0,0.2,0,0.4,0c0.3,0,0.6,0,1,0c3,0,7.8-0.8,8.9-1.3c0.1-1.1,0.3-3,0.3-3.7
		c-1.7,0.1-5,0.3-7.1,0.3c-0.5,0.1-0.5,0.3-0.7,0.3c-0.3,0-2.1-0.7-2.1-1c0-0.1,0.1-0.1,0.2-0.1c0.1,0,0.2,0,0.4,0.1
		c0.8,0.1,2,0.2,3.3,0.2c2.4,0,5-0.1,5.6-0.2c0.5-0.1,0.3-0.2,1-0.2c1.1,0,1.2,0.1,1.2,0.3s-0.2,0.4-0.4,0.6
		c-0.6,3.4-1.2,6.6-2.2,10.2h0.4H473.8z"/>
	<path class="st3" d="M478.3,509.1l4.9-12.9h1.8l5.3,12.9h-1.9l-1.5-3.9h-5.4l-1.4,3.9H478.3z M482,503.8h4.4l-1.3-3.6
		c-0.4-1.1-0.7-2-0.9-2.7c-0.2,0.8-0.4,1.6-0.7,2.5L482,503.8z"/>
	<path class="st3" d="M492,509.1v-12.9h1.7v12.9H492z"/>
	<path class="st3" d="M496.8,509.1v-12.9h8.7v1.5h-7v4h6v1.5h-6v5.9H496.8z"/>
	<path class="st3" d="M507.6,509.1v-12.9h2.6l3,9.1c0.3,0.8,0.5,1.5,0.6,1.9c0.1-0.5,0.4-1.2,0.7-2.1l3.1-9h2.3V509h-1.6v-10.8
		l-3.7,10.8h-1.5l-3.7-11v11h-1.8V509.1z"/>
	<path class="st3" d="M539.7,499.7c-0.9,0.1-1.5,0.1-1.9,0.1c-0.4,0.1-0.5,0.3-0.7,0.3s-0.5-0.1-0.9-0.3c-0.3-0.1-0.4-0.2-0.5-0.3
		c-0.4,1.2-0.9,2.6-1.2,3.3c0.6-0.1,1.8-0.4,3-0.7c0.2-0.1,0.4-0.1,0.5-0.1s0.1,0,0.1,0.1c0,0.1-0.2,0.2-0.5,0.3
		c-2.2,0.9-5.4,1.6-6.6,1.8c-0.5,0.1-0.5,0.3-0.8,0.3s-2.5-0.8-2.5-1.2c0-0.1,0.1-0.1,0.2-0.1c0.1,0,0.2,0,0.4,0.1
		c0.4,0.1,0.9,0.1,1.5,0.1c1.2,0,2.7-0.2,4-0.4c0.2-0.8,0.5-2.1,0.7-3.9c0-0.4-0.3-0.6-0.8-0.9c-0.2-0.1-0.3-0.2-0.3-0.3
		s0.2-0.1,0.6-0.2c0.1,0,2,0.4,2,0.8l-0.3,0.7c0.1,0,1.4,0.1,1.5,0.1c0.8,0,1.8-0.1,2.5-0.1v-3.6c0-0.4-0.9-0.8-1.5-1.1
		c-0.3-0.1-0.5-0.2-0.5-0.3s0.2-0.2,0.6-0.2c0.9,0.1,1.8,0.4,2.2,0.5c0.3,0.2,0.4,0.3,0.4,0.4c0,0.1-0.1,0.2-0.1,0.4v7
		c-0.1,2.4-0.1,3.4-0.5,4c-0.1,0.2-0.2,0.3-0.3,0.3c-0.2,0-0.3-0.3-0.3-1.2L539.7,499.7L539.7,499.7z M536.4,496.1
		c0.7,0,1,0.2,1,0.4s-0.4,0.5-1.1,0.5c-2.1,0-3.6,0.1-5.1,0.3c-0.5,0.1-0.6,0.2-0.9,0.2c-0.4,0-1.7-0.6-1.7-0.8
		c0-0.1,0.1-0.1,0.2-0.1c0.1,0,0.2,0,0.3,0.1c0.8,0.1,1.4,0.1,2.1,0.1c1.4,0,2.2-0.1,3.3-0.2c1-0.1,0.6-0.4,1.6-0.4h0.3V496.1z
		 M532,501.6c-0.2,0.5-0.4,0.8-0.6,0.8c-0.2,0-0.4-0.2-0.4-0.6c-0.1-0.5-0.3-1.8-1-3c-0.1-0.1-0.1-0.3-0.1-0.4c0-0.1,0-0.1,0.1-0.1
		c0.3,0,2.1,1.9,2.1,2.9L532,501.6z M533,506.4c0-0.4-0.4-0.5-1.4-0.8c-0.2,0-0.3-0.1-0.3-0.2c0-0.1,0.1-0.2,0.6-0.3
		c0.8,0,1.6,0.1,1.9,0.1c0.3,0.1,0.4,0.2,0.4,0.3c0,0.1-0.1,0.3-0.1,0.5c0,0.8,0,1.8,0,2.4c0,0.4,0.2,0.6,0.9,0.6h3.8
		c1.4-0.1,0.7-0.5,2.3-0.5c0.6,0,1.3,0.1,1.3,0.6c0,0.2-0.2,0.4-0.5,0.4h-7c-1.2,0-1.9-0.3-1.9-1.2V506.4z"/>
	<path class="st3" d="M557.8,507.5c0.8-0.1,0.7-0.4,1.6-0.4c0.4,0,1.9,0.1,1.9,0.6c0,0.2-0.2,0.4-0.6,0.4h-0.1
		c-1.5-0.1-3.4-0.1-5-0.1c-2.3,0-4.6,0.1-7,0.2c-0.6,0.1-0.7,0.4-1,0.4s-2.4-0.8-2.4-1.2c0-0.1,0.1-0.1,0.2-0.1c0.1,0,0.2,0,0.4,0.1
		c0.7,0.2,2,0.3,3.5,0.3c2.2,0,4.9-0.1,7.7-0.2H557.8z M548.7,497.3c0-0.3-0.7-0.6-1.4-0.9c-0.2,0-0.3-0.1-0.3-0.2
		c0-0.1,0.2-0.2,0.6-0.2c1.1,0.1,2,0.3,2.4,0.5l5-0.1c2-0.1,0.9-0.6,2.9-0.6h0.2c0.5,0,0.8,0.3,0.8,0.5c0,0.2-0.3,0.5-0.8,0.5
		c-2.8,0.1-6.1,0.1-7.8,0.1c-0.2,0.1-0.4,0-0.4,0.4v4c0,0.7,0,0.7,2.5,0.7c1.1,0,2.3,0,3.4-0.1c1.2,0,0.8-0.5,2.4-0.5
		c0.9,0,1.1,0.4,1.1,0.5c0,0.2-0.3,0.5-0.7,0.5c-0.8,0.1-3.9,0.1-6,0.1c-1.1,0-2,0-2.3,0c-0.6,0-1.4-0.4-1.4-1.3L548.7,497.3z"/>
	<path class="st3" d="M562.7,509.9c2.1-1.8,3.4-4.3,3.4-7.7c0-3.3-1.4-6-3.4-7.7v-0.3c3.2,1.8,4.5,4.6,4.5,8s-1.3,6.2-4.5,8V509.9z"
		/>
</g>
<g class="st2">
	<path class="st3" d="M16.8,471.2c0.5-0.1,0.5-0.4,0.5-0.4c0-0.1,0-0.2-0.1-0.3s-0.2-0.3-0.2-0.3c0-0.1,0.1-0.1,0.2-0.1
		c0.5,0,1.1,0.3,1.1,0.5c0,0.2-0.3,0.4-0.3,0.6c2.1,0.4,3,1.7,3,3c0,1.5-1.3,3.1-3.7,3.1c-2.3,0-3.7-1.4-3.7-3.1
		C13.6,472.9,14.6,471.5,16.8,471.2z M14.6,474.3c0,1.2,0.9,2.3,2.6,2.3s2.6-1.2,2.6-2.3c0-1.2-0.9-2.3-2.6-2.3
		S14.6,473.1,14.6,474.3z M21.8,479c0-0.1-0.1-0.3-0.2-0.5c-0.1-0.1-0.2-0.2-0.2-0.2c0-0.1,0.1-0.1,0.2-0.1c0.3,0,1.2,0.4,1.2,0.6
		c0,0.2-0.2,0.3-0.3,0.5c2,0.4,2.9,1.6,2.9,2.9c0,1.4-1.2,2.9-3.5,2.9c-2.2,0-3.5-1.4-3.5-2.9c0-1.3,1-2.6,3-2.9
		C21.8,479.3,21.8,479.1,21.8,479z M19.6,482.1c0,1.1,0.8,2.2,2.5,2.2s2.5-1.1,2.5-2.2c0-1.1-0.8-2.2-2.5-2.2S19.6,481,19.6,482.1z
		 M24.6,470.1c0-0.2-0.8-0.6-1.6-1c-0.3-0.1-0.4-0.2-0.4-0.3s0.2-0.2,0.6-0.2c0.6,0.1,1.3,0.3,2,0.5c0.5,0.2,0.6,0.3,0.6,0.5
		c0,0.1-0.1,0.3-0.1,0.6v3c0.2,0,0.5,0,0.9-0.1c0.6-0.1,0.4-0.4,1.5-0.4c0.3,0,1.1,0,1.1,0.5c0,0.2-0.2,0.4-0.6,0.4l-3,0.1v3.2
		c0.2,0,0.6,0,0.9,0c0.6-0.1,0.3-0.4,1.5-0.4c0.3,0,1.1,0,1.1,0.5c0,0.2-0.2,0.4-0.6,0.4h-3c-0.1,1.2-0.5,1.7-0.7,1.7
		s-0.3-0.3-0.3-1L24.6,470.1L24.6,470.1z"/>
	<path class="st3" d="M35.1,471.9c-0.5,0.1-0.5,0.2-0.8,0.2s-1.9-0.6-1.9-0.8c0-0.1,0.1-0.1,0.2-0.1c0.1,0,0.2,0,0.4,0.1
		c0.5,0.1,1,0.1,1.7,0.1c0.8,0,1.8-0.1,3.4-0.1c0.8,0,0.6-0.2,1.2-0.2c0.5,0,1.1,0,1.1,0.2c0,0.1-0.2,0.3-0.3,0.4
		c-0.8,1.2-1.2,1.8-2.2,2.9c1.3,1.2,2.1,0.8,2.7,1.5c0.7,0.7,0.9,1.1,0.9,1.4c0,0.2-0.1,0.3-0.3,0.3c-0.1,0-0.3-0.1-0.3-0.1
		c-1-0.8-2-1.6-3.3-2.8c-2.2,2.2-5.8,4-6.4,4h-0.1c0-0.1,0.1-0.1,0.3-0.3c2.2-1.3,5.9-4,7.2-6.9C37.8,471.7,35.8,471.9,35.1,471.9z
		 M36.4,482.3c0-0.2-0.4-0.3-1-0.5c-0.2-0.1-0.3-0.1-0.3-0.2c0,0,0.2-0.2,0.8-0.2c0.8,0,1.6,0.1,1.8,0.2c1.7,0,2.7,0,4.4-0.1
		c0.4,0,0.6-0.1,1-0.2c0-0.3,0.1-1.3,0.2-2.2c-1.2,0-3.6,0.1-5.3,0.2c-0.5,0.1-0.6,0.3-0.9,0.3c-0.4,0-1.8-0.6-1.8-0.8
		c0-0.1,0.1-0.1,0.3-0.1c0.1,0,0.2,0,0.3,0c0.6,0.1,1.5,0.1,2.5,0.1c1.5,0,3.2-0.1,4.6-0.2c0.3-0.1,0.3-0.1,0.7-0.1
		c0.1,0,0.2,0,0.4,0c0.5,0,0.7,0.1,0.7,0.3c0,0.1-0.2,0.3-0.3,0.5c-0.2,0.5-0.5,1.3-0.6,1.9c0.5,0.1,0.7,0.3,0.7,0.4
		c0,0.1-0.2,0.3-0.6,0.3c-1.4,0-4.1,0.1-6,0.1c-0.2,0.1-0.3,0.1-0.3,0.3v1.6c0,0.3,0.2,0.4,0.5,0.4c0.4,0,0.9,0,1.5,0
		c0.9,0,2,0,3.1,0c1.1-0.1,0.7-0.5,1.9-0.5c0.5,0,1.4,0,1.4,0.5c0,0.2-0.2,0.4-0.6,0.4h-7.2c-1.3,0-1.6-0.5-1.6-1v-1.4H36.4z
		 M43.3,470.3c0-0.3-0.6-0.7-1.6-1.1c-0.3-0.1-0.5-0.2-0.5-0.3s0.2-0.2,0.6-0.2c0.1,0,2.6,0.3,2.6,0.9c0,0.1-0.1,0.3-0.1,0.5v5.2
		c0,0.8-0.1,1.8-0.3,2.5c-0.2,0.4-0.4,0.6-0.5,0.6s-0.3-0.3-0.3-0.8L43.3,470.3z"/>
	<path class="st3" d="M61.3,470.3c0-0.5-0.8-0.9-1.6-1.2c-0.4-0.1-0.6-0.2-0.6-0.3c0-0.1,0.2-0.2,0.6-0.2c0.2,0,2.7,0.4,2.7,0.9
		c0,0.1-0.1,0.3-0.1,0.5v11.1c0,2.5-0.3,4.3-0.7,4.3c-0.2,0-0.3-0.2-0.4-1.3v-4.7c-3.6,1.1-4.4,1.3-8.4,1.9
		c-0.5,0.1-0.6,0.4-0.9,0.4c-0.4,0-2.6-0.9-2.6-1.3c0-0.1,0.1-0.1,0.2-0.1c0.1,0,0.2,0,0.4,0.1c0.4,0.1,1,0.1,1.6,0.1
		c2.9,0,7.8-0.9,9.7-1.5L61.3,470.3L61.3,470.3z M54.3,471c0.4,0,0.5-0.3,0.5-0.4c0-0.1,0-0.2-0.1-0.3s-0.2-0.3-0.2-0.3
		c0-0.1,0.1-0.1,0.2-0.1c0.6,0,1.1,0.4,1.1,0.6c0,0.2-0.1,0.3-0.2,0.5c1.9,0.4,2.8,1.6,2.8,2.9c0,1.4-1.3,3-3.5,3
		c-2.4,0-3.7-1.5-3.7-3C51.3,472.7,52.3,471.4,54.3,471z M52.3,474c0,1.1,0.8,2.3,2.5,2.3s2.5-1.1,2.5-2.3c0-1.1-0.8-2.3-2.5-2.3
		C53.3,471.8,52.3,472.9,52.3,474z"/>
	<path class="st3" d="M71.8,477.4c3.2-2.1,5.2-5.5,5.2-5.8c0-0.2-0.2-0.5-1-1c-0.2-0.2-0.3-0.3-0.3-0.4c0-0.1,0.1-0.1,0.3-0.1
		c0.1,0,0.2,0,0.4,0c0.1,0,2.1,0.8,2.1,1.4c0,0.3-0.5,0.7-1.1,1.7c0.7,0.7,1,1,1.5,1.4c0.8,0.6,0.8,0,1.9,1.8
		c0.1,0.2,0.2,0.3,0.2,0.5c0,0.3-0.2,0.4-0.4,0.4s-0.4-0.1-0.6-0.3c-0.7-0.8-2.1-2.4-3-3.4c-1.5,1.7-3,3.1-5.1,4.1
		c-0.3,0.1-0.4,0.2-0.5,0.2s-0.1,0-0.1-0.1C71.4,477.7,71.6,477.5,71.8,477.4z M80.8,479c0-0.1-0.1-0.3-0.2-0.5
		c-0.1-0.1-0.2-0.2-0.2-0.2c0-0.1,0.1-0.1,0.2-0.1c0.3,0,1.2,0.4,1.2,0.6c0,0.2-0.2,0.3-0.3,0.5c2,0.4,2.9,1.6,2.9,2.9
		c0,1.4-1.2,2.9-3.5,2.9c-2.2,0-3.5-1.4-3.5-2.9c0-1.3,1-2.6,3-2.9C80.8,479.3,80.8,479.1,80.8,479z M78.6,482.1
		c0,1.1,0.8,2.2,2.5,2.2s2.5-1.1,2.5-2.2c0-1.1-0.8-2.2-2.5-2.2S78.6,481,78.6,482.1z M83.6,470.2c0-0.2-0.5-0.5-1.5-1
		c-0.3-0.1-0.4-0.2-0.4-0.3s0.2-0.2,0.6-0.2c0.8,0.1,1.5,0.3,2.1,0.5c0.4,0.1,0.5,0.3,0.5,0.4s-0.1,0.3-0.1,0.5v5c0.3,0,0.4,0,0.7,0
		c0.8-0.2,0.5-0.5,1.7-0.5c0.4,0,1.1,0,1.1,0.5c0,0.2-0.2,0.4-0.5,0.5l-3.1,0.1c0,1.5-0.1,2.3-0.3,2.8c-0.2,0.4-0.4,0.6-0.5,0.6
		s-0.3-0.2-0.3-0.8V470.2z"/>
	<path class="st3" d="M95.9,480c0-0.3-0.5-0.5-1.1-0.7c-0.2-0.1-0.4-0.1-0.4-0.2s0.5-0.2,0.7-0.2c0.4,0,0.9,0.1,1.2,0.1
		c0.6,0.1,0.7,0.2,0.7,0.4c0,0.1,0,0.2,0,0.4v1.1l5.3-0.1v-1.4c0-0.2-0.3-0.5-0.9-0.6c-0.2-0.1-0.4-0.2-0.4-0.3s0.5-0.2,0.6-0.2
		c0.3,0,0.6,0.1,0.9,0.1c-0.1-0.1-0.2-0.5-0.2-1.2v-3.5c-0.9,0-1.5,0.1-2,0.1s-0.6,0.2-0.9,0.2c-0.2,0-0.5-0.1-1-0.3l0,0
		c0,2.4-2.1,3.2-3.8,3.2c-2.4,0-3.7-1.5-3.7-3.1c0-1.4,1-2.7,3-3.1H94c0.3,0,0.5-0.2,0.5-0.4c0-0.1,0-0.2-0.1-0.3
		c-0.1-0.1-0.2-0.2-0.2-0.3s0.1-0.1,0.2-0.1c0.5,0,1.1,0.3,1.1,0.6c0,0.2-0.2,0.4-0.3,0.5c1.8,0.2,2.9,1.2,3.1,2.5
		c0.1,0,0.7,0,0.8,0c0.9,0,2.3-0.1,3.1-0.1v-3c-0.1-0.4-0.9-0.8-1.6-1.1c-0.3-0.1-0.5-0.2-0.5-0.3s0.2-0.2,0.6-0.2
		c0.2,0,2.6,0.4,2.6,0.9c0,0.1-0.1,0.2-0.1,0.5v5.8c0,2.4-0.6,2.7-0.7,2.7h0.1c0.5,0.1,0.6,0.2,0.6,0.3s-0.1,0.2-0.1,0.4v3.5
		c0,0.6,0,1.3-0.2,1.9c-0.1,0.3-0.3,0.5-0.4,0.5c-0.2,0-0.3-0.3-0.4-1l-5.3,0.1c-0.2,0.7-0.5,1.3-0.8,1.3c-0.2,0-0.3-0.2-0.3-0.8
		V480H95.9z M92.1,473.9c0,1.2,0.8,2.4,2.6,2.4c1.9,0,2.8-1.2,2.8-2.4c0-1.2-0.9-2.4-2.8-2.4C92.8,471.5,92.1,472.7,92.1,473.9z
		 M97.1,481.3v2.3l5.3-0.1v-2.3L97.1,481.3z"/>
	<path class="st3" d="M120.3,477.7c-1.3,0-3.3,0.1-4.3,0.2c-0.5,0.1-0.5,0.4-0.9,0.4c-0.5,0-2.5-0.9-2.5-1.2c0-0.1,0.1-0.1,0.2-0.1
		c0.1,0,0.2,0,0.4,0.1c1.2,0.1,2.6,0.2,4.1,0.2c2.7,0,5.7-0.1,8-0.3c1-0.1,0.7-0.4,1.5-0.4c0.5,0,1.9,0,1.9,0.6
		c0,0.2-0.2,0.4-0.6,0.5c-1.1,0-2.1-0.1-3.3-0.1c-1,0-2.1,0-3.4,0.1c0,4.3,0,5.9-0.4,7.1c-0.2,0.4-0.3,0.6-0.5,0.6s-0.3-0.3-0.3-1
		v-6.7H120.3z M117.6,475.2c-0.1,0.5-0.4,0.9-0.7,0.9c-0.2,0-0.3-0.3-0.3-0.7s0-4.1-0.1-4.6c0-0.3-0.1-0.5-1.2-0.8
		c-0.2-0.1-0.4-0.1-0.4-0.2c0-0.1,0.2-0.2,0.6-0.3c1.9,0.1,2.1,0.3,2.1,0.6c0,0.1,0,0.3,0,0.3v1.2l5.9-0.1v-1.4
		c0-0.2-0.4-0.5-1.1-0.7c-0.2-0.1-0.4-0.2-0.4-0.3s0.2-0.2,0.6-0.2c1.8,0.2,2.1,0.4,2.1,0.7c0,0.1,0,0.2,0,0.4c0,1.6,0,4.7-0.3,5.3
		c-0.1,0.3-0.4,0.6-0.6,0.6c-0.1,0-0.3-0.2-0.3-0.7H117.6z M117.8,472.1v2.6l5.9-0.1v-2.7L117.8,472.1z"/>
	<path class="st3" d="M134.3,470.6c-0.1-0.4-0.6-0.6-1.4-0.8c-0.2,0-0.2-0.1-0.2-0.1c0-0.1,0.2-0.2,0.5-0.2c0.9,0,1.8,0.2,2.3,0.4
		c1.4,0,3.1,0,4.8-0.1c1.4-0.1,0.8-0.5,2.2-0.5c0.4,0,1.3,0,1.3,0.5c0,0.2-0.3,0.4-0.8,0.4c-1.9,0.1-5.5,0.1-7.3,0.1
		c-0.1,0.1-0.2,0-0.2,0.3c0,0.7,0,2,0,2.8c0.1,0.6,0.1,0.6,2,0.6c1,0,2,0,3.5-0.1c1-0.1,0.5-0.5,2.2-0.5c0.6,0,0.9,0.2,0.9,0.5
		c0,0.2-0.3,0.5-0.7,0.5c-0.6,0-2.8,0.1-3.8,0.1c0,1.1,0,2-0.2,2.7c1.4-0.1,2.9-0.2,4.1-0.3c0.8-0.1,0.7-0.3,1.4-0.3
		c0.3,0,0.7,0,1.4,0.1c0.5,0.1,0.7,0.3,0.7,0.5c0,0.2-0.2,0.4-0.6,0.4h-0.1c-0.8,0-2.2-0.1-3.7-0.1c-2.5,0-5.6,0.1-8.1,0.4
		c-0.8,0.1-0.9,0.4-1.3,0.4c-0.5,0-2.4-0.8-2.4-1.2c0-0.1,0.1-0.1,0.2-0.1s0.2,0,0.3,0c0.9,0.1,2.2,0.2,3.6,0.2
		c1.2,0,2.4-0.1,3.5-0.1c-0.1-0.8-0.1-2-0.1-2.7l0,0h-2.2c-1.4,0-1.8-0.4-1.8-1.2L134.3,470.6z M138.7,479c0-0.1-0.1-0.3-0.2-0.5
		c-0.1-0.1-0.2-0.2-0.2-0.2c0-0.1,0.1-0.1,0.2-0.1c0.4,0,1.2,0.4,1.2,0.6c0,0.2-0.2,0.3-0.3,0.5c2,0.4,2.9,1.6,2.9,2.9
		c0,1.5-1.3,2.9-3.5,2.9c-2.3,0-3.5-1.4-3.5-2.9c0-1.3,1-2.6,3.1-2.9C138.5,479.3,138.7,479.1,138.7,479z M136.3,482.1
		c0,1.1,0.8,2.2,2.5,2.2s2.5-1.1,2.5-2.2c0-1.1-0.8-2.2-2.5-2.2S136.3,481,136.3,482.1z"/>
	<path class="st3" d="M148.8,477.7c3.4-2.2,5.2-5.4,5.2-5.7s-0.2-0.6-1-1.2c-0.3-0.1-0.4-0.3-0.4-0.3c0-0.1,0.2-0.1,0.4-0.1
		c0.1,0,0.2,0,0.3,0c0.4,0.1,2.2,0.9,2.2,1.4c0,0.3-0.4,0.8-1.1,1.9c0.5,0.6,0.9,0.9,1.4,1.4c1,0.7,0.9,0,2.2,1.8
		c0.1,0.2,0.1,0.4,0.1,0.5c0,0.3-0.2,0.4-0.4,0.4c-0.1,0-0.3-0.1-0.4-0.2c-0.9-1-2.5-2.6-3.3-3.5c-1.6,1.8-3,2.9-5.1,3.9
		c-0.2,0.1-0.4,0.1-0.5,0.1s-0.1,0-0.1-0.1C148.4,477.9,148.7,477.8,148.8,477.7z M154.4,480.9c0-0.3-0.4-0.5-1.3-0.8
		c-0.2-0.1-0.3-0.1-0.3-0.2s0.2-0.2,0.6-0.3c0.8,0,1.6,0.1,1.9,0.1c0.3,0.1,0.4,0.2,0.4,0.3s0,0.3-0.1,0.5c0,0.8,0,1.9,0,2.5
		c0,0.4,0.3,0.6,0.9,0.6h3.3c1.4-0.1,0.7-0.5,2.3-0.5c0.6,0,1.4,0.1,1.4,0.6c0,0.2-0.2,0.4-0.5,0.4h-6.5c-1.2,0-1.9-0.3-1.9-1.2
		L154.4,480.9z M160.5,470.2c0-0.2-0.5-0.5-1.5-1c-0.3-0.1-0.4-0.2-0.4-0.3s0.2-0.2,0.6-0.2c0.1,0,2.5,0.3,2.5,0.9
		c0,0.1-0.1,0.3-0.1,0.5v5.7c0.3,0,0.5,0,0.8,0c0.8-0.2,0.5-0.5,1.8-0.5c0.4,0,1,0,1,0.5c0,0.2-0.2,0.5-0.5,0.5l-3.2,0.1
		c0,3.3-0.1,4.1-0.3,4.6c-0.2,0.3-0.4,0.6-0.5,0.6s-0.3-0.2-0.3-0.8L160.5,470.2L160.5,470.2z"/>
</g>
<g class="st2">
	<path d="M412.6,96.3V81.9h1.9v5.9h7.4v-5.9h1.9v14.3h-1.9v-6.7h-7.4v6.7H412.6z"/>
	<path d="M426.1,91c0-1.9,0.5-3.3,1.6-4.3c0.9-0.8,2-1.2,3.3-1.2c1.4,0,2.6,0.5,3.5,1.4c0.9,0.9,1.4,2.2,1.4,3.9
		c0,1.3-0.2,2.4-0.6,3.1c-0.4,0.7-1,1.4-1.7,1.8s-1.6,0.6-2.5,0.6c-1.5,0-2.6-0.5-3.5-1.4C426.7,94,426.1,92.8,426.1,91z M427.9,91
		c0,1.3,0.3,2.3,0.9,3c0.6,0.7,1.3,1,2.2,1c0.9,0,1.6-0.3,2.2-1c0.6-0.7,0.9-1.7,0.9-3s-0.3-2.3-0.9-2.9c-0.6-0.6-1.3-1-2.2-1
		s-1.6,0.3-2.2,1C428.2,88.8,427.9,89.8,427.9,91z"/>
	<path d="M444.7,96.3v-1.5c-0.8,1.2-1.9,1.8-3.3,1.8c-0.6,0-1.2-0.1-1.7-0.4s-0.9-0.5-1.2-0.9c-0.3-0.4-0.4-0.8-0.5-1.3
		c-0.1-0.3-0.1-0.9-0.1-1.6v-6.4h1.8v5.8c0,0.9,0,1.5,0.1,1.9c0.1,0.5,0.3,0.8,0.7,1.1s0.8,0.4,1.3,0.4s1-0.1,1.5-0.4s0.8-0.6,1-1.1
		s0.3-1.1,0.3-2v-5.6h1.8v10.4h-1.7V96.3z"/>
	<path d="M448.3,93.1l1.7-0.3c0.1,0.7,0.4,1.2,0.8,1.6c0.4,0.4,1.1,0.6,1.9,0.6s1.4-0.2,1.8-0.5c0.4-0.3,0.6-0.7,0.6-1.2
		c0-0.4-0.2-0.7-0.5-0.9c-0.2-0.2-0.8-0.4-1.8-0.6c-1.3-0.3-2.2-0.6-2.7-0.8s-0.9-0.6-1.1-1s-0.4-0.9-0.4-1.4s0.1-0.9,0.3-1.3
		c0.2-0.4,0.5-0.7,0.9-1c0.3-0.2,0.6-0.4,1.1-0.5s1-0.2,1.5-0.2c0.8,0,1.5,0.1,2.1,0.4c0.6,0.3,1.1,0.6,1.4,1s0.5,0.9,0.6,1.6
		l-1.7,0.2c-0.1-0.5-0.3-1-0.7-1.3s-0.9-0.4-1.6-0.4c-0.8,0-1.4,0.1-1.7,0.4c-0.3,0.3-0.5,0.6-0.5,0.9c0,0.2,0.1,0.4,0.2,0.6
		c0.1,0.2,0.4,0.3,0.7,0.5c0.2,0.1,0.7,0.2,1.6,0.4c1.2,0.3,2.1,0.6,2.6,0.8s0.9,0.5,1.2,0.9c0.3,0.4,0.4,0.9,0.4,1.5
		s-0.2,1.1-0.5,1.7s-0.8,0.9-1.5,1.2s-1.4,0.4-2.2,0.4c-1.3,0-2.4-0.3-3.1-0.8S448.5,94.3,448.3,93.1z"/>
	<path d="M466.1,92.9l1.8,0.2c-0.3,1.1-0.8,1.9-1.6,2.5c-0.8,0.6-1.8,0.9-3,0.9c-1.5,0-2.7-0.5-3.6-1.4c-0.9-0.9-1.3-2.2-1.3-3.9
		c0-1.7,0.4-3.1,1.3-4.1c0.9-1,2.1-1.4,3.5-1.4c1.4,0,2.5,0.5,3.4,1.4c0.9,0.9,1.3,2.3,1.3,4c0,0.1,0,0.3,0,0.5h-7.7
		c0.1,1.1,0.4,2,1,2.6c0.6,0.6,1.3,0.9,2.2,0.9c0.6,0,1.2-0.2,1.7-0.5S465.9,93.6,466.1,92.9z M460.3,90h5.8c-0.1-0.9-0.3-1.5-0.7-2
		c-0.6-0.7-1.3-1-2.2-1c-0.8,0-1.5,0.3-2,0.8S460.4,89.1,460.3,90z"/>
	<path d="M474,96.3V83.6h-4.7v-1.7h11.3v1.7h-4.7v12.6C475.9,96.2,474,96.2,474,96.3z"/>
	<path d="M479.5,91c0-1.9,0.5-3.3,1.6-4.3c0.9-0.8,2-1.2,3.3-1.2c1.4,0,2.6,0.5,3.5,1.4c0.9,0.9,1.4,2.2,1.4,3.9
		c0,1.3-0.2,2.4-0.6,3.1c-0.4,0.7-1,1.4-1.7,1.8s-1.6,0.6-2.5,0.6c-1.5,0-2.6-0.5-3.5-1.4C480.1,94,479.5,92.8,479.5,91z M481.3,91
		c0,1.3,0.3,2.3,0.9,3c0.6,0.7,1.3,1,2.2,1c0.9,0,1.6-0.3,2.2-1c0.6-0.7,0.9-1.7,0.9-3s-0.3-2.3-0.9-2.9c-0.6-0.6-1.3-1-2.2-1
		s-1.6,0.3-2.2,1C481.6,88.8,481.3,89.8,481.3,91z"/>
	<path d="M491.3,96.3V81.9h1.8v8.2l4.2-4.2h2.3l-4,3.8l4.4,6.5h-2.2l-3.4-5.3l-1.2,1.2v4.1C493.2,96.2,491.3,96.2,491.3,96.3z"/>
	<path d="M508.4,92.9l1.8,0.2c-0.3,1.1-0.8,1.9-1.6,2.5c-0.8,0.6-1.8,0.9-3,0.9c-1.5,0-2.7-0.5-3.6-1.4c-0.9-0.9-1.3-2.2-1.3-3.9
		c0-1.7,0.4-3.1,1.3-4.1c0.9-1,2.1-1.4,3.5-1.4c1.4,0,2.5,0.5,3.4,1.4c0.9,0.9,1.3,2.3,1.3,4c0,0.1,0,0.3,0,0.5h-7.7
		c0.1,1.1,0.4,2,1,2.6c0.6,0.6,1.3,0.9,2.2,0.9c0.6,0,1.2-0.2,1.7-0.5S508.1,93.6,508.4,92.9z M502.6,90h5.8c-0.1-0.9-0.3-1.5-0.7-2
		c-0.6-0.7-1.3-1-2.2-1c-0.8,0-1.5,0.3-2,0.8S502.7,89.1,502.6,90z"/>
	<path d="M512.4,96.3V85.8h1.6v1.5c0.8-1.1,1.9-1.7,3.3-1.7c0.6,0,1.2,0.1,1.7,0.3s0.9,0.5,1.2,0.9c0.3,0.4,0.4,0.8,0.5,1.3
		c0.1,0.3,0.1,0.9,0.1,1.7v6.4H519v-6.3c0-0.7-0.1-1.3-0.2-1.6c-0.1-0.3-0.4-0.6-0.7-0.8c-0.3-0.2-0.8-0.3-1.2-0.3
		c-0.7,0-1.4,0.2-1.9,0.7s-0.8,1.4-0.8,2.7v5.7L512.4,96.3L512.4,96.3z"/>
	<path d="M529.2,96.3V81.9h1.9v12.6h7.1v1.7C538.2,96.2,529.2,96.2,529.2,96.3z"/>
	<path d="M542.6,96.3V83.6h-4.7v-1.7h11.3v1.7h-4.7v12.6C544.5,96.2,542.6,96.2,542.6,96.3z"/>
	<path d="M551.1,96.3V81.9h4.9c1.1,0,2,0.1,2.5,0.2c0.8,0.2,1.5,0.5,2.1,1c0.8,0.6,1.3,1.5,1.7,2.4s0.6,2.1,0.6,3.4
		c0,1.1-0.1,2.1-0.4,2.9s-0.6,1.5-1,2.1c-0.4,0.6-0.8,1-1.3,1.3s-1,0.6-1.7,0.7s-1.4,0.2-2.3,0.2h-5.1V96.3z M553,94.5h3.1
		c0.9,0,1.7-0.1,2.2-0.3s1-0.4,1.3-0.7c0.4-0.4,0.8-1.1,1-1.8s0.4-1.7,0.4-2.8c0-1.5-0.2-2.6-0.7-3.5s-1.1-1.3-1.8-1.6
		c-0.5-0.2-1.3-0.3-2.5-0.3h-3V94.5z"/>
	<path d="M400.5,124.4c-1-1.2-1.8-2.7-2.5-4.3s-1-3.3-1-5.1c0-1.5,0.3-3,0.8-4.5c0.6-1.6,1.5-3.3,2.7-4.9h1.3
		c-0.8,1.4-1.3,2.3-1.6,2.9c-0.4,0.9-0.7,1.8-0.9,2.8c-0.3,1.2-0.4,2.4-0.4,3.7c0,3.1,1,6.3,2.9,9.4H400.5z"/>
	<path d="M420.2,112.6c-0.7,0.1-1.8,0.1-2.4,0.2c-0.4,0.1-0.5,0.1-0.6,0.1c-0.1,0-0.4-0.1-1-0.3c-2.3,4.1-5.6,6.3-6,6.3h-0.1
		c0-0.1,0.1-0.2,0.3-0.4c1.6-1.4,4.3-4.6,5.2-7.2c-0.9,0.3-1.8,0.5-2.9,0.8c-0.5,0.1-0.4,0.4-0.7,0.4s-2.2-0.8-2.2-1.1
		c0-0.1,0.1-0.1,0.2-0.1c0.1,0,0.2,0,0.3,0c0.3,0,0.6,0.1,0.9,0.1c1.4,0,3.3-0.3,4.6-0.5c0.2-0.4,0.8-2,0.9-2.9
		c-1,0.1-2.1,0.2-3.3,0.3c-0.4,0.1-0.5,0.3-0.7,0.3c-0.3,0-2-0.8-2-1.1c0-0.1,0.1-0.1,0.2-0.1c0.1,0,0.2,0,0.4,0.1
		c0.7,0.1,1.4,0.2,2.1,0.2c0.6,0,2.2,0,2.8-0.1c0.5,0,0.1-0.2,1.2-0.2c1,0,1.1,0.1,1.1,0.3c0,0.2-0.3,0.5-0.5,0.8
		c-0.4,1.4-0.9,2.6-1.6,3.8c0.2,0,0.6,0,0.9,0c0.8,0,1.9,0,2.8-0.1v-5.9c0-0.4-0.7-0.7-1.5-1c-0.3-0.1-0.4-0.2-0.4-0.3
		c0-0.1,0.2-0.2,0.6-0.2c2.2,0.4,2.5,0.6,2.5,0.9c0,0.1-0.1,0.3-0.1,0.4l-0.1,12.8c-0.1,1.3-0.5,2-0.8,2c-0.2,0-0.3-0.3-0.3-0.8
		v-7.5H420.2z M423.7,105.3c-0.1-0.5-0.8-0.8-1.6-1.3c-0.2-0.1-0.4-0.2-0.4-0.3c0-0.1,0.2-0.1,0.6-0.1h0.2c2.1,0.4,2.5,0.7,2.5,1.1
		c0,0.2-0.1,0.3-0.1,0.5l-0.1,14.6c-0.1,1.5-0.5,2.2-0.8,2.2c-0.2,0-0.3-0.3-0.4-0.9L423.7,105.3L423.7,105.3z"/>
	<path d="M438.8,111.8c-0.2,1.9-1.6,3.4-4.2,3.4c-3,0-4.6-1.8-4.6-3.8c0-1.7,1.2-3.4,3.8-3.7c0.4-0.1,0.7-0.2,0.7-0.5
		c0-0.1-0.1-0.3-0.1-0.4c-0.1-0.1-0.2-0.2-0.2-0.3c0-0.1,0.1-0.1,0.2-0.1c0.6,0,1.3,0.6,1.3,0.8c0,0.2-0.2,0.3-0.4,0.6
		c2.4,0.5,3.5,1.9,3.6,3.6L438.8,111.8z M431.2,111.3c0,1.5,1.1,3,3.3,3c2.1,0,3.1-1.5,3.1-3s-1.1-3-3.1-3
		C432.3,108.3,431.2,109.8,431.2,111.3z M443.1,105.3c0-0.4-0.6-0.9-1.8-1.4c-0.3-0.1-0.4-0.2-0.4-0.3c0-0.1,0.2-0.2,0.7-0.3
		c1.3,0.2,2,0.5,2.4,0.6c0.3,0.1,0.4,0.3,0.4,0.4c0,0.2-0.1,0.3-0.1,0.5v11.8c0,3.7-0.1,4.2-0.5,4.9c-0.1,0.2-0.3,0.4-0.4,0.4
		c-0.2,0-0.3-0.2-0.3-0.9L443.1,105.3L443.1,105.3z"/>
	<path d="M460.6,106.1c-0.1-0.4-0.6-0.8-1.4-1.2c-0.3-0.1-0.5-0.2-0.5-0.3c0-0.1,0.2-0.2,0.5-0.2c0.9,0.1,1.5,0.3,2.1,0.4
		c0.5,0.1,0.6,0.2,0.6,0.5c0,0.2-0.1,0.4-0.1,0.8v5c0,4-0.2,5.1-0.4,5.7c-0.2,0.4-0.4,0.7-0.5,0.7c-0.1,0-0.2-0.2-0.2-0.7v-6.3
		l-1,0.1c-0.6,0.1-0.7,0.2-1,0.2c-0.2,0-0.4-0.1-1-0.4c-0.1,0.9-0.3,1.8-0.4,2.4c0.5,0.1,0.8,0.3,0.8,0.5c0,0.1-0.3,0.2-0.8,0.3
		c-1,0-3.5,0.1-4.5,0.1c0,0.6-0.3,1.1-0.6,1.1c-0.2,0-0.2-0.5-0.4-1.7l-0.3-4.4c-0.2-0.4-0.5-0.6-1.3-0.9c-0.1,0-0.2-0.1-0.2-0.2
		s0.2-0.2,0.6-0.3c0.6,0,1.5,0.1,2.1,0.3c1.5,0,2.1-0.1,3.6-0.1c0.5,0,0.2-0.1,1.4-0.1c0.6,0,0.8,0.1,0.8,0.2c0,0.2-0.4,0.5-0.4,0.7
		c-0.1,0.5-0.2,1-0.3,1.6c0.4,0,0.8,0.1,1.2,0.1c0.5,0,1,0,1.6-0.1L460.6,106.1L460.6,106.1z M453.1,108.3c-0.2,0.1-0.3,0-0.3,0.4
		l0.1,4.6c0.6,0,2.9,0,3.7-0.3c0.1-1.1,0.1-3.1,0.1-4.8L453.1,108.3z M455.8,117.3c0-0.2-0.3-0.5-1.5-0.8c-0.4,0-0.5-0.1-0.5-0.2
		c0-0.3,0.7-0.4,1.1-0.4c0.2,0,1.2,0.1,1.4,0.1c0.7,0,0.8,0.2,0.8,0.5c0,0.1,0,0.3,0,0.5v2.3c0,0.7,0.1,0.9,0.9,0.9h2.5
		c4,0,2.4-0.7,4.2-0.7c0.7,0,1.6,0,1.6,0.6c0,0.3-0.3,0.6-0.8,0.6h-7.9c-0.8,0-1.8-0.3-1.8-1.3V117.3z M463.7,105.3
		c0-0.4-0.6-0.8-1.7-1.3c-0.3-0.1-0.5-0.2-0.5-0.3c0-0.1,0.2-0.2,0.8-0.2c1,0.1,1.5,0.3,2,0.5c0.6,0.2,0.7,0.3,0.7,0.5
		c0,0.1-0.1,0.3-0.1,0.5v8.9c0,1.7-0.1,2.9-0.3,3.6c-0.2,0.5-0.4,0.7-0.6,0.7s-0.3-0.3-0.3-0.9V105.3z"/>
	<path d="M480.1,113.4c-0.3,0-0.9,0.1-1.6,0.2s-0.8,0.4-1.1,0.4c-0.4,0-2.6-1-2.6-1.2c0-0.1,0.1-0.1,0.3-0.1c0.1,0,0.3,0,0.5,0.1
		c0.7,0.2,2.1,0.2,3.8,0.2c3.4,0,7.8-0.2,9.4-0.3c1.1-0.1,0.9-0.4,2-0.4c0.7,0,2,0,2,0.6c0,0.3-0.3,0.5-0.8,0.5l0,0
		c-1,0-2.3-0.1-4.2-0.1h-0.5c0,2.9,0,6.7-0.4,7.9c-0.1,0.5-0.4,0.8-0.5,0.8c-0.2,0-0.4-0.3-0.4-1v-7.6c-0.7,0-3.3,0.1-4.6,0.1
		c0,4.3,0,5.6-0.4,6.8c-0.2,0.5-0.4,0.7-0.6,0.7s-0.3-0.3-0.3-1.1V113.4z M482.8,104.4c0.2,0,0.5-0.1,0.5-0.4c0-0.1-0.1-0.3-0.2-0.4
		c-0.2-0.2-0.3-0.3-0.3-0.3s0.1-0.1,0.2-0.1c0.5,0,1.3,0.3,1.3,0.6c0,0.1-0.2,0.5-0.2,0.6c2.4,0.4,3.4,1.9,3.4,3.4
		c0,1.6-1.4,3.3-4,3.3c-2.7,0-4.2-1.7-4.2-3.4C479.4,106.3,480.5,104.8,482.8,104.4z M480.6,107.8c0,1.3,1,2.6,3,2.6
		c1.9,0,2.8-1.3,2.8-2.6c0-1.3-0.9-2.6-2.8-2.6C481.6,105.3,480.6,106.5,480.6,107.8z"/>
	<path d="M503.2,107.8c1.1-0.2,0.6-0.6,2.2-0.6c0.7,0,1,0.3,1,0.6c0,0.2-0.3,0.5-0.8,0.5c-1.7,0-3.3,0.1-4.4,0.2
		c0.3,0.4,0.4,0.6,0.4,0.7s-0.1,0.2-0.1,0.4c2.2,0.3,3.2,1.6,3.2,2.9c0,1.5-1.4,2.9-3.7,2.9c-2.5,0-3.8-1.5-3.8-2.9
		c0-1.3,1-2.6,3.3-2.9c0.1-0.1,0.2-0.3,0.2-0.4c0-0.2-0.1-0.4-0.3-0.6c-0.7,0-1.5,0.1-2.5,0.2c-0.4,0.1-0.5,0.2-0.7,0.2
		c-0.4,0-1.9-0.8-1.9-1.1c0-0.1,0.1-0.1,0.3-0.1c0.1,0,0.2,0,0.4,0c0.9,0.1,1.7,0.2,2.8,0.2C500.2,108,501.3,108,503.2,107.8z
		 M499.9,106.3c-0.4,0-1.7-0.9-1.7-1.1c0-0.1,0-0.1,0.2-0.1c0.1,0,0.3,0,0.5,0.1c0.9,0.1,1.1,0.1,3.6,0.1c0.5,0,0.8,0.3,0.8,0.5
		s-0.3,0.5-1.1,0.5H499.9z M498.5,112.3c0,1.1,0.9,2.2,2.6,2.2s2.6-1.1,2.6-2.2s-0.9-2.2-2.6-2.2
		C499.4,110.1,498.5,111.3,498.5,112.3z M500.5,117.8c0-0.4-0.5-0.6-1.4-0.9c-0.3-0.1-0.5-0.2-0.5-0.3c0-0.1,0.2-0.2,0.6-0.2
		c0.9,0,1.8,0.1,2.1,0.1c0.4,0.1,0.4,0.2,0.4,0.4c0,0.1-0.1,0.3-0.1,0.5v2.3c0,0.5,0.3,0.7,0.9,0.7h4.3c1.4,0,0.7-0.6,2.5-0.6
		c0.5,0,1.6,0,1.6,0.6c0,0.3-0.3,0.5-0.8,0.5h-7.6c-1.3,0-2.2-0.4-2.2-1.3v-1.8H500.5z M507.7,105.1c0-0.2-0.5-0.6-1.7-1.1
		c-0.3-0.1-0.5-0.2-0.5-0.3c0-0.1,0.2-0.2,0.7-0.2c0.1,0,2.8,0.3,2.8,1c0,0.1-0.1,0.3-0.1,0.5v6.3c0.3,0,0.6,0,0.9,0
		c0.9-0.2,0.5-0.6,2-0.6c0.4,0,1.1,0,1.1,0.5c0,0.3-0.2,0.5-0.6,0.5l-3.5,0.1c0,3.6-0.1,4.5-0.3,5.1c-0.2,0.4-0.4,0.7-0.6,0.7
		s-0.3-0.2-0.3-0.9v-11.6H507.7z"/>
	<path d="M527,114.8c-2-0.2-3.1-1.5-3.1-2.8c0-1.2,1-2.4,3.1-2.7c0.1-0.1,0.1-0.2,0.1-0.4c0-0.3-0.2-0.5-0.5-0.8
		c-0.5,0-1.1,0.1-1.8,0.1c-0.5,0.1-0.6,0.3-0.8,0.3c-0.4,0-1.9-0.6-1.9-0.9c0-0.1,0.1-0.1,0.3-0.1c0.1,0,0.3,0,0.5,0.1
		c0.5,0.1,1.1,0.1,1.8,0.1c1.8,0,3.9-0.2,5-0.3c0.7-0.1,0.2-0.4,1.8-0.4c0.2,0,1.2,0,1.2,0.5c0,0.4-0.6,0.4-1.2,0.4
		c-1.2,0-2.3,0.1-4,0.1c0.2,0.3,0.3,0.3,0.5,0.7v0.1c0,0.2-0.1,0.3-0.1,0.4v0.1c2.2,0.3,3.2,1.5,3.2,2.7c0,1.3-1.1,2.5-3,2.7v1.5
		c1.2-0.1,4.2-0.6,6-1.1V105c0-0.3-0.8-0.8-1.8-1.2c-0.4-0.1-0.5-0.2-0.5-0.3c0-0.1,0.2-0.2,0.7-0.3c1,0,1.8,0.3,2.5,0.5
		c0.4,0.1,0.5,0.2,0.5,0.4c0,0.1-0.1,0.3-0.1,0.6v12.4c0,1.7,0,2.9-0.3,4.1c-0.2,0.4-0.4,0.7-0.6,0.7s-0.3-0.2-0.3-0.8v-5.8
		c-2.7,1-6.5,1.8-9.9,2.3c-0.4,0.1-0.4,0.3-0.7,0.3c-0.4,0-2.9-1.1-2.9-1.4c0-0.1,0.1-0.1,0.3-0.1c0.1,0,0.2,0,0.3,0
		c0.5,0.1,1.1,0.2,1.8,0.2c1.2,0,2.5-0.2,3.9-0.3V114.8z M526.4,106c-0.4,0-1.7-0.9-1.7-1.1c0-0.1,0-0.1,0.2-0.1
		c0.1,0,0.3,0,0.5,0.1c0.9,0.1,1.1,0.1,3.7,0.1c0.6,0,0.9,0.3,0.9,0.5s-0.3,0.5-1.1,0.5H526.4z M525.1,111.9c0,1,0.8,2,2.4,2
		c1.7,0,2.5-1,2.5-2s-0.8-2-2.5-2C525.9,110,525.1,111,525.1,111.9z"/>
	<path d="M540,115.9c1.8-1.6,4.6-4.9,5.7-8.4c0-0.3,0.1-0.4-0.9-1.3c-0.5-0.3-0.4-0.5-0.1-0.5c0.2,0,0.5,0.1,0.8,0.2
		c1.5,0.7,1.9,1,1.9,1.3c0,0.2-0.2,0.6-1.5,3.1c0.4,0.8,1.2,1.4,2.1,2.2c0.8,0.7,1.1,0.4,1.7,1.8c0.2,0.4,0.3,0.7,0.3,1
		c0,0.4-0.2,0.6-0.4,0.6c-0.1,0-0.3-0.1-0.4-0.2c-0.7-0.8-2.1-2.8-3.7-4.9c-2.1,3.2-5.4,5.7-5.8,5.7c-0.1,0-0.1,0-0.1-0.1
		C539.6,116.3,539.7,116.1,540,115.9z M553.3,104.9c0-0.3-1.1-0.8-1.9-1.2c-0.2-0.1-0.4-0.2-0.4-0.3c0-0.1,0.2-0.2,0.8-0.2
		c0.9,0.1,1.7,0.3,2.3,0.5c0.4,0.2,0.5,0.3,0.5,0.5s-0.1,0.3-0.1,0.6v7.3h1c0.9-0.1,0.6-0.5,1.9-0.5c0.4,0,1.2,0,1.2,0.6
		c0,0.3-0.2,0.5-0.7,0.5h-3.3v5.8c0,1.3-0.2,2.1-0.5,3c-0.2,0.2-0.3,0.4-0.5,0.4s-0.3-0.3-0.3-0.9V104.9z"/>
	<path d="M559.6,121.1c2.3-2,3.8-4.8,3.8-8.5c0-3.6-1.5-6.7-3.8-8.5v-0.4c3.5,2,5,5.2,5,8.9c0,3.8-1.5,6.9-5,8.8V121.1z"/>
</g>
</svg>
