<?xml version="1.0" encoding="utf-8"?>
<!-- Generator: Adobe Illustrator 23.0.0, SVG Export Plug-In . SVG Version: 6.00 Build 0)  -->
<svg version="1.1" id="强大的法律保障" xmlns="http://www.w3.org/2000/svg" xmlns:xlink="http://www.w3.org/1999/xlink"
	 x="0px" y="0px" viewBox="0 0 421 888" style="enable-background:new 0 0 421 888;" xml:space="preserve">
<style type="text/css">
	.st0{fill:#010101;}
	.st1{fill:#70DBCB;}
	.st2{fill:none;stroke:#70DBCB;}
	.st3{fill:#58595B;}
	.st4{fill:#F5F5F5;}
	.st5{fill:#FCFCFC;}
	.st6{fill:#F2F2F2;}
	.st7{fill:#E6E7E8;}
	.st8{enable-background:new    ;}
	.st9{fill:#FFFFFF;}
</style>
<rect id="矩形_47" x="215" y="658" class="st0" width="1" height="70"/>
<rect id="矩形_47_拷贝" x="250" y="795.7" class="st0" width="89.9" height="1"/>
<g id="组_27">
	<rect id="矩形_48" x="215.2" y="426.8" class="st1" width="1.2" height="77.3"/>
	<path id="形状_2" class="st2" d="M221.3,504v-72.3l146-65.5"/>
	<path id="形状_2_拷贝_2" class="st2" d="M215.3,499v-72.3l146-65.5"/>
	<path id="形状_2_拷贝" class="st2" d="M209,504v-72.3L63,367.9"/>
	<path id="形状_2_拷贝_3" class="st2" d="M215,500v-72.3L69,363.9"/>
</g>
<ellipse id="椭圆_12" class="st3" cx="349.5" cy="796.2" rx="16.6" ry="16.6"/>
<path id="圆角矩形_1_拷贝" class="st4" d="M173.8,809.9l39-10c1.7-0.4,3.4-0.3,5,0.1l32.8,10.6c1.4,0.5,1.6,1.2,0.4,1.7
	l-34.2,12.5c-2,0.6-4.1,0.7-6.1,0.1L173,811.8C171.5,811.3,171.9,810.4,173.8,809.9z"/>
<path id="圆角矩形_1" class="st5" d="M174.6,789.1l39-10c1.7-0.4,3.4-0.3,5,0.1l32.8,10.6c1.4,0.5,1.6,1.2,0.4,1.7L217.7,804
	c-2,0.6-4.1,0.7-6.1,0.1L173.9,791C172.3,790.4,172.7,789.6,174.6,789.1z"/>
<ellipse id="椭圆_11" class="st6" cx="214.9" cy="788.9" rx="18.1" ry="3.6"/>
<path id="矩形_46" class="st7" d="M172.8,790.1l43.3,15.2v14.4l-43.3-15.2V790.1z"/>
<path id="矩形_46_拷贝" class="st7" d="M253.1,790.9l-37.7,14.4v14.4l37.7-14.4V790.9z"/>
<path id="圆角矩形_1_拷贝-2" class="st4" d="M174.5,602.3l39.1-10c1.7-0.4,3.4-0.3,5,0.1l32.8,10.6c1.4,0.5,1.6,1.2,0.4,1.7
	l-34.2,12.6c-2,0.6-4.1,0.7-6.1,0.1l-37.7-13.2C172.2,603.7,172.6,602.8,174.5,602.3z"/>
<path id="圆角矩形_1-2" class="st5" d="M175.3,581.4l39.1-10c1.7-0.4,3.4-0.3,5,0.1l32.8,10.6c1.4,0.5,1.6,1.2,0.4,1.7
	l-34.2,12.6c-2,0.6-4.1,0.7-6.1,0.1l-37.7-13.2C173,582.8,173.4,581.9,175.3,581.4z"/>
<path id="椭圆_11-2" class="st6" d="M215.7,577.6c10,0,18.1,1.6,18.1,3.6s-8.1,3.6-18.1,3.6s-18.1-1.6-18.1-3.6
	S205.7,577.6,215.7,577.6z"/>
<path id="矩形_46-2" class="st7" d="M173.5,582.5l43.4,15.3v14.5L173.5,597V582.5z"/>
<path id="矩形_46_拷贝-2" class="st7" d="M253.9,583.3l-37.8,14.5v14.5l37.8-14.5V583.3z"/>
<path id="圆角矩形_1_拷贝-3" class="st4" d="M317.7,312.5l39.1-10c1.7-0.4,3.4-0.3,5,0.1l32.8,10.6c1.4,0.5,1.6,1.2,0.4,1.7
	l-34.2,12.5c-2,0.6-4.1,0.7-6.1,0.1L317,314.4C315.4,313.8,315.8,313,317.7,312.5z"/>
<path id="圆角矩形_1-3" class="st5" d="M318.5,291.6l39.1-10c1.7-0.4,3.4-0.3,5,0.1l32.8,10.6c1.4,0.5,1.6,1.2,0.4,1.6
	l-34.2,12.5c-2,0.6-4.1,0.7-6.1,0.1l-37.7-13.1C316.2,293,316.6,292.1,318.5,291.6z"/>
<path id="椭圆_11-3" class="st6" d="M358.9,287.9c10,0,18.1,1.6,18.1,3.6s-8.1,3.6-18.1,3.6s-18.1-1.6-18.1-3.6
	S348.9,287.9,358.9,287.9z"/>
<path id="矩形_46-3" class="st7" d="M316.7,292.7l43.4,15.2v14.4l-43.4-15.2V292.7z"/>
<path id="矩形_46_拷贝-3" class="st7" d="M397.1,293.5l-37.8,14.4v14.4l37.8-14.4V293.5L397.1,293.5z"/>
<path id="圆角矩形_1_拷贝-4" class="st4" d="M19.7,313.3l39.1-10c1.7-0.4,3.4-0.3,5,0.1L96.7,314c1.4,0.5,1.6,1.2,0.4,1.7
	l-34.2,12.6c-2,0.6-4.1,0.7-6.1,0.1L19,315.1C17.4,314.6,17.8,313.8,19.7,313.3z"/>
<path id="圆角矩形_1-4" class="st5" d="M20.5,292.3l39.1-10c1.7-0.4,3.4-0.3,5,0.1L97.4,293c1.4,0.5,1.6,1.2,0.4,1.7l-34.2,12.6
	c-2,0.6-4.1,0.7-6.1,0.1l-37.7-13.2C18.2,293.7,18.6,292.8,20.5,292.3z"/>
<path id="椭圆_11-4" class="st6" d="M60.9,288.5c10,0,18.1,1.6,18.1,3.6s-8.1,3.6-18.1,3.6s-18.1-1.6-18.1-3.6
	S50.9,288.5,60.9,288.5z"/>
<path id="矩形_46-4" class="st7" d="M18.7,293.4l43.4,15.3v14.5l-43.4-15.3V293.4z"/>
<path id="矩形_46_拷贝-4" class="st7" d="M99.1,294.2l-37.8,14.5v14.5l37.8-14.5V294.2z"/>
<path id="圆角矩形_1_拷贝-5" class="st4" d="M310.7,86.7l39.1-10c1.7-0.4,3.4-0.3,5,0.1l32.9,10.6c1.4,0.5,1.6,1.2,0.4,1.7
	l-34.3,12.6c-2,0.6-4.1,0.7-6.1,0.1L310,88.6C308.4,88,308.8,87.2,310.7,86.7z"/>
<path id="圆角矩形_1-5" class="st5" d="M308.5,65.8l39.1-10c1.7-0.4,3.4-0.3,5,0.1l32.9,10.6c1.4,0.5,1.6,1.2,0.4,1.7
	l-34.3,12.6c-2,0.6-4.1,0.7-6.1,0.1l-37.7-13.2C306.2,67.1,306.6,66.3,308.5,65.8z"/>
<ellipse id="椭圆_11-5" class="st6" cx="348.9" cy="65.6" rx="18.1" ry="3.6"/>
<path id="矩形_46-5" class="st7" d="M306.7,66.8l43.4,15.3v14.5l-43.4-15.3V66.8z"/>
<path id="矩形_46_拷贝-5" class="st7" d="M387.1,67.6l-37.8,14.5v14.5l37.8-14.5V67.6z"/>
<path id="圆角矩形_1_拷贝-6" class="st4" d="M20.6,86.1l39.1-10c1.7-0.4,3.4-0.3,5,0.1l32.8,10.6c1.4,0.5,1.6,1.2,0.4,1.7
	l-34.2,12.6c-2,0.6-4.1,0.7-6.1,0.1L19.9,88C18.3,87.4,18.7,86.6,20.6,86.1z"/>
<path id="圆角矩形_1-6" class="st5" d="M21.4,65.2l39.1-10c1.7-0.4,3.4-0.3,5,0.1l32.8,10.6c1.4,0.5,1.6,1.2,0.4,1.7L64.5,80.2
	c-2,0.6-4.1,0.7-6.1,0.1L20.7,67.1C19.1,66.6,19.5,65.7,21.4,65.2z"/>
<ellipse id="椭圆_11-6" class="st6" cx="61.8" cy="65.1" rx="18.1" ry="3.6"/>
<path id="矩形_46-6" class="st7" d="M19.6,66.3L63,81.5V96L19.6,80.7V66.3z"/>
<path id="矩形_46_拷贝-6" class="st7" d="M99.9,67L62.2,81.5V96L100,81.5L99.9,67L99.9,67z"/>
<rect id="矩形_49" x="359" y="172" class="st0" width="1" height="60"/>
<rect id="矩形_49_拷贝" x="62" y="162" class="st0" width="1" height="70"/>
<g class="st8">
	<path class="st3" d="M40,55h22.5V10H40V55z M54.1,15.6h5.6v5.6h-5.6V15.6z M54.1,26.9h5.6v5.6h-5.6V26.9z M54.1,38.1h5.6v5.6h-5.6
		V38.1z M42.8,15.6h5.6v5.6h-5.6V15.6z M42.8,26.9h5.6v5.6h-5.6V26.9z M42.8,38.1h5.6v5.6h-5.6V38.1z M65.3,24.1H85v2.8H65.3V24.1z
		 M65.3,55h5.6V43.8h8.4V55H85V29.7H65.3V55z"/>
</g>
<g class="st8">
	<path class="st3" d="M345.7,45.4h7.6v9.5h-7.6V45.4z"/>
	<path class="st3" d="M344.8,28.4c0,2.6,2.1,4.7,4.7,4.7s4.7-2.1,4.7-4.7s-2.1-4.7-4.7-4.7C346.9,23.7,344.8,25.8,344.8,28.4z
		 M350.4,29.3h-3.8v-1.9h1.9v-2.8h1.9V29.3z"/>
	<path class="st3" d="M323,24.6v30.3h15.1V24.6H323z M329.6,44.5h-3.8v-1.9h3.8V44.5z M329.6,40.7h-3.8v-1.9h3.8V40.7z M329.6,36.9
		h-3.8V35h3.8V36.9z M329.6,33.1h-3.8v-1.9h3.8V33.1z M329.6,29.3h-3.8v-1.9h3.8V29.3z M335.3,44.5h-3.8v-1.9h3.8V44.5z M335.3,40.7
		h-3.8v-1.9h3.8V40.7z M335.3,36.9h-3.8V35h3.8V36.9z M335.3,33.1h-3.8v-1.9h3.8V33.1z M335.3,29.3h-3.8v-1.9h3.8V29.3z"/>
	<path class="st3" d="M376,54.9V24.6h-15.1v30.3H376z M369.4,27.4h3.8v1.9h-3.8V27.4z M369.4,31.2h3.8v1.9h-3.8V31.2z M369.4,35h3.8
		v1.9h-3.8V35z M369.4,38.8h3.8v1.9h-3.8V38.8z M369.4,42.6h3.8v1.9h-3.8V42.6z M363.7,27.4h3.8v1.9h-3.8V27.4z M363.7,31.2h3.8v1.9
		h-3.8V31.2z M363.7,35h3.8v1.9h-3.8V35z M363.7,38.8h3.8v1.9h-3.8V38.8z M363.7,42.6h3.8v1.9h-3.8V42.6z"/>
	<path class="st3" d="M340,20.4v34.5h3.8V44.5c0-0.5,0.4-0.9,0.9-0.9h9.5c0.5,0,0.9,0.4,0.9,0.9v10.4h3.8V20.4l-9.5-6.9L340,20.4z
		 M356.1,28.4c0,3.7-3,6.6-6.6,6.6s-6.6-3-6.6-6.6s3-6.6,6.6-6.6C353.2,21.8,356.1,24.7,356.1,28.4z"/>
	<path class="st3" d="M349.5,1.9h11.4v5.7h-11.4V1.9z"/>
	<path class="st3" d="M349.5,16.1c-0.5,0-0.9-0.4-0.9-0.9V0.9c0-0.5,0.4-0.9,0.9-0.9s0.9,0.4,0.9,0.9v14.2
		C350.4,15.7,350,16.1,349.5,16.1z"/>
</g>
<g class="st8">
	<path class="st3" d="M78.7,281.2c0.7,0,1.3-0.6,1.3-1.3v-21.6c0-0.7-0.6-1.3-1.3-1.3h-8.1v-0.9c0-0.5-0.3-0.9-0.7-1.2l-7.9-4v-2.5
		l5.6-1.9c0.5-0.2,0.9-0.7,0.9-1.2c0-0.6-0.4-1.1-0.9-1.2L61,242c-0.4-0.1-0.8-0.1-1.2,0.2c-0.3,0.2-0.5,0.6-0.5,1.1v7.8l-7.9,4
		c-0.4,0.2-0.7,0.7-0.7,1.2v0.9h-8.3c-0.7,0-1.3,0.6-1.3,1.3v21.6c0,0.7,0.6,1.3,1.3,1.3h36.3V281.2z M61.9,246.1v-1.4l2.9,0.7
		L61.9,246.1z M43.7,259.6h7v19h-7V259.6z M53.3,257l7.3-3.7l7.3,3.7v21.6H53.3V257z M77.3,278.6h-6.8v-19h6.8V278.6z"/>
	<path class="st3" d="M58.6,259.2h-2.2c-0.7,0-1.3,0.6-1.3,1.3c0,0.7,0.6,1.3,1.3,1.3h2.2c0.7,0,1.3-0.6,1.3-1.3
		C59.9,259.8,59.3,259.2,58.6,259.2z"/>
	<path class="st3" d="M46.3,264h2.2c0.7,0,1.3-0.6,1.3-1.3c0-0.7-0.6-1.3-1.3-1.3h-2.2c-0.7,0-1.3,0.6-1.3,1.3S45.6,264,46.3,264z"
		/>
	<path class="st3" d="M48.4,265.7h-2.2c-0.7,0-1.3,0.6-1.3,1.3c0,0.7,0.6,1.3,1.3,1.3h2.2c0.7,0,1.3-0.6,1.3-1.3
		C49.8,266.3,49.2,265.7,48.4,265.7z"/>
	<path class="st3" d="M48.4,270h-2.2c-0.7,0-1.3,0.6-1.3,1.3c0,0.7,0.6,1.3,1.3,1.3h2.2c0.7,0,1.3-0.6,1.3-1.3
		C49.8,270.6,49.2,270,48.4,270z"/>
	<path class="st3" d="M73,264h2.2c0.7,0,1.3-0.6,1.3-1.3c0-0.7-0.6-1.3-1.3-1.3H73c-0.7,0-1.3,0.6-1.3,1.3S72.3,264,73,264z"/>
	<path class="st3" d="M73,268.3h2.2c0.7,0,1.3-0.6,1.3-1.3c0-0.7-0.6-1.3-1.3-1.3H73c-0.7,0-1.3,0.6-1.3,1.3
		C71.7,267.7,72.3,268.3,73,268.3z"/>
	<path class="st3" d="M75.1,270H73c-0.7,0-1.3,0.6-1.3,1.3c0,0.7,0.6,1.3,1.3,1.3h2.2c0.7,0,1.3-0.6,1.3-1.3S75.9,270,75.1,270z"/>
	<path class="st3" d="M65,259.2h-2.2c-0.7,0-1.3,0.6-1.3,1.3c0,0.7,0.6,1.3,1.3,1.3H65c0.7,0,1.3-0.6,1.3-1.3
		C66.3,259.8,65.8,259.2,65,259.2z"/>
	<path class="st3" d="M58.6,263.5h-2.2c-0.7,0-1.3,0.6-1.3,1.3c0,0.7,0.6,1.3,1.3,1.3h2.2c0.7,0,1.3-0.6,1.3-1.3
		C59.9,264.1,59.3,263.5,58.6,263.5z"/>
	<path class="st3" d="M65,263.5h-2.2c-0.7,0-1.3,0.6-1.3,1.3c0,0.7,0.6,1.3,1.3,1.3H65c0.7,0,1.3-0.6,1.3-1.3S65.8,263.5,65,263.5z"
		/>
	<path class="st3" d="M58.6,267.8h-2.2c-0.7,0-1.3,0.6-1.3,1.3s0.6,1.3,1.3,1.3h2.2c0.7,0,1.3-0.6,1.3-1.3S59.3,267.8,58.6,267.8z"
		/>
	<path class="st3" d="M65,267.8h-2.2c-0.7,0-1.3,0.6-1.3,1.3s0.6,1.3,1.3,1.3H65c0.7,0,1.3-0.6,1.3-1.3S65.8,267.8,65,267.8z"/>
</g>
<g class="st8">
	<path class="st3" d="M232.2,573.7c0.7,0,1.3-0.6,1.3-1.3v-21.6c0-0.7-0.6-1.3-1.3-1.3h-8.1v-0.9c0-0.5-0.3-0.9-0.7-1.2l-7.9-4v-2.5
		l5.6-1.9c0.5-0.2,0.9-0.7,0.9-1.2c0-0.6-0.4-1.1-0.9-1.2l-6.5-2.2c-0.4-0.1-0.8-0.1-1.2,0.2c-0.3,0.2-0.5,0.6-0.5,1.1v7.8l-7.9,4
		c-0.4,0.2-0.7,0.7-0.7,1.2v0.9H196c-0.7,0-1.3,0.6-1.3,1.3v21.6c0,0.7,0.6,1.3,1.3,1.3L232.2,573.7L232.2,573.7z M215.4,538.5v-1.4
		l2.9,0.7L215.4,538.5z M197.2,552.1h7v19h-7V552.1z M206.8,549.4l7.3-3.7l7.3,3.7V571h-14.7L206.8,549.4L206.8,549.4z M230.9,571.1
		h-6.8v-19h6.8V571.1z"/>
	<path class="st3" d="M212.1,551.6h-2.2c-0.7,0-1.3,0.6-1.3,1.3s0.6,1.3,1.3,1.3h2.2c0.7,0,1.3-0.6,1.3-1.3
		C213.4,552.2,212.8,551.6,212.1,551.6z"/>
	<path class="st3" d="M199.8,556.4h2.2c0.7,0,1.3-0.6,1.3-1.3s-0.6-1.3-1.3-1.3h-2.2c-0.7,0-1.3,0.6-1.3,1.3
		C198.5,555.8,199.1,556.4,199.8,556.4z"/>
	<path class="st3" d="M202,558.1h-2.2c-0.7,0-1.3,0.6-1.3,1.3s0.6,1.3,1.3,1.3h2.2c0.7,0,1.3-0.6,1.3-1.3S202.7,558.1,202,558.1z"/>
	<path class="st3" d="M202,562.4h-2.2c-0.7,0-1.3,0.6-1.3,1.3s0.6,1.3,1.3,1.3h2.2c0.7,0,1.3-0.6,1.3-1.3S202.7,562.4,202,562.4z"/>
	<path class="st3" d="M226.5,556.4h2.2c0.7,0,1.3-0.6,1.3-1.3s-0.6-1.3-1.3-1.3h-2.2c-0.7,0-1.3,0.6-1.3,1.3
		C225.2,555.8,225.8,556.4,226.5,556.4z"/>
	<path class="st3" d="M226.5,560.7h2.2c0.7,0,1.3-0.6,1.3-1.3s-0.6-1.3-1.3-1.3h-2.2c-0.7,0-1.3,0.6-1.3,1.3
		S225.8,560.7,226.5,560.7z"/>
	<path class="st3" d="M228.7,562.4h-2.2c-0.7,0-1.3,0.6-1.3,1.3s0.6,1.3,1.3,1.3h2.2c0.7,0,1.3-0.6,1.3-1.3S229.4,562.4,228.7,562.4
		z"/>
	<path class="st3" d="M218.6,551.6h-2.2c-0.7,0-1.3,0.6-1.3,1.3s0.6,1.3,1.3,1.3h2.2c0.7,0,1.3-0.6,1.3-1.3
		C219.9,552.2,219.3,551.6,218.6,551.6z"/>
	<path class="st3" d="M212.1,555.9h-2.2c-0.7,0-1.3,0.6-1.3,1.3s0.6,1.3,1.3,1.3h2.2c0.7,0,1.3-0.6,1.3-1.3S212.8,555.9,212.1,555.9
		z"/>
	<path class="st3" d="M218.6,555.9h-2.2c-0.7,0-1.3,0.6-1.3,1.3s0.6,1.3,1.3,1.3h2.2c0.7,0,1.3-0.6,1.3-1.3S219.3,555.9,218.6,555.9
		z"/>
	<path class="st3" d="M212.1,560.3h-2.2c-0.7,0-1.3,0.6-1.3,1.3s0.6,1.3,1.3,1.3h2.2c0.7,0,1.3-0.6,1.3-1.3S212.8,560.3,212.1,560.3
		z"/>
	<path class="st3" d="M218.6,560.3h-2.2c-0.7,0-1.3,0.6-1.3,1.3s0.6,1.3,1.3,1.3h2.2c0.7,0,1.3-0.6,1.3-1.3S219.3,560.3,218.6,560.3
		z"/>
</g>
<g class="st8">
	<path class="st3" d="M377.1,281.2c0.7,0,1.3-0.6,1.3-1.3v-21.6c0-0.7-0.6-1.3-1.3-1.3H369v-0.9c0-0.5-0.3-0.9-0.7-1.2l-7.9-4v-2.5
		l5.6-1.9c0.5-0.2,0.9-0.7,0.9-1.2c0-0.6-0.4-1.1-0.9-1.2l-6.5-2.2c-0.4-0.1-0.8-0.1-1.2,0.2c-0.3,0.2-0.5,0.6-0.5,1.1v7.8l-7.9,4
		c-0.4,0.2-0.7,0.7-0.7,1.2v0.9h-8.3c-0.7,0-1.3,0.6-1.3,1.3V280c0,0.7,0.6,1.3,1.3,1.3L377.1,281.2L377.1,281.2z M360.3,246.1v-1.4
		l2.9,0.7L360.3,246.1z M342.1,259.6h7v19h-7V259.6z M351.7,257l7.3-3.7l7.3,3.7v21.6h-14.7V257H351.7z M375.8,278.6H369v-19h6.8
		V278.6z"/>
	<path class="st3" d="M357,259.2h-2.2c-0.7,0-1.3,0.6-1.3,1.3c0,0.7,0.6,1.3,1.3,1.3h2.2c0.7,0,1.3-0.6,1.3-1.3
		C358.3,259.8,357.7,259.2,357,259.2z"/>
	<path class="st3" d="M344.7,264h2.2c0.7,0,1.3-0.6,1.3-1.3c0-0.7-0.6-1.3-1.3-1.3h-2.2c-0.7,0-1.3,0.6-1.3,1.3
		C343.4,263.4,344,264,344.7,264z"/>
	<path class="st3" d="M346.9,265.7h-2.2c-0.7,0-1.3,0.6-1.3,1.3c0,0.7,0.6,1.3,1.3,1.3h2.2c0.7,0,1.3-0.6,1.3-1.3
		C348.2,266.3,347.6,265.7,346.9,265.7z"/>
	<path class="st3" d="M346.9,270h-2.2c-0.7,0-1.3,0.6-1.3,1.3c0,0.7,0.6,1.3,1.3,1.3h2.2c0.7,0,1.3-0.6,1.3-1.3
		C348.2,270.6,347.6,270,346.9,270z"/>
	<path class="st3" d="M371.4,264h2.2c0.7,0,1.3-0.6,1.3-1.3c0-0.7-0.6-1.3-1.3-1.3h-2.2c-0.7,0-1.3,0.6-1.3,1.3S370.7,264,371.4,264
		z"/>
	<path class="st3" d="M371.4,268.3h2.2c0.7,0,1.3-0.6,1.3-1.3c0-0.7-0.6-1.3-1.3-1.3h-2.2c-0.7,0-1.3,0.6-1.3,1.3
		C370.1,267.7,370.7,268.3,371.4,268.3z"/>
	<path class="st3" d="M373.6,270h-2.2c-0.7,0-1.3,0.6-1.3,1.3c0,0.7,0.6,1.3,1.3,1.3h2.2c0.7,0,1.3-0.6,1.3-1.3S374.3,270,373.6,270
		z"/>
	<path class="st3" d="M363.5,259.2h-2.2c-0.7,0-1.3,0.6-1.3,1.3c0,0.7,0.6,1.3,1.3,1.3h2.2c0.7,0,1.3-0.6,1.3-1.3
		C364.8,259.8,364.2,259.2,363.5,259.2z"/>
	<path class="st3" d="M357,263.5h-2.2c-0.7,0-1.3,0.6-1.3,1.3c0,0.7,0.6,1.3,1.3,1.3h2.2c0.7,0,1.3-0.6,1.3-1.3
		S357.7,263.5,357,263.5z"/>
	<path class="st3" d="M363.5,263.5h-2.2c-0.7,0-1.3,0.6-1.3,1.3c0,0.7,0.6,1.3,1.3,1.3h2.2c0.7,0,1.3-0.6,1.3-1.3
		S364.2,263.5,363.5,263.5z"/>
	<path class="st3" d="M357,267.8h-2.2c-0.7,0-1.3,0.6-1.3,1.3s0.6,1.3,1.3,1.3h2.2c0.7,0,1.3-0.6,1.3-1.3S357.7,267.8,357,267.8z"/>
	<path class="st3" d="M363.5,267.8h-2.2c-0.7,0-1.3,0.6-1.3,1.3s0.6,1.3,1.3,1.3h2.2c0.7,0,1.3-0.6,1.3-1.3S364.2,267.8,363.5,267.8
		z"/>
</g>
<polygon id="XMLID_63_" class="st9" points="350.7,792.3 352.2,792.3 352.2,790 356,790 356,802.3 352.2,802.3 352.2,798.9 
	354.7,798.9 354.7,793.6 344.4,793.6 344.4,798.9 346.8,798.9 346.8,802.3 343.1,802.3 343.1,790 346.9,790 346.9,792.3 
	348.4,792.3 348.4,788.4 341.5,788.4 341.5,803.9 348.4,803.9 348.4,797.3 346,797.3 346,795.2 353.1,795.2 353.1,797.3 
	350.7,797.3 350.7,803.9 357.6,803.9 357.6,788.4 350.7,788.4 "/>
<g>
	<g>
		<g>
			<path class="st3" d="M234,751.3c0.2-0.5,0.3-1,0.1-1.5s-0.5-0.9-1-1.2l-4.5-2.3c-0.1-0.1-0.2-0.2-0.3-0.4l-0.8-5
				c-0.2-1-1-1.7-2-1.7c-0.1,0-0.2,0-0.3,0l-5,0.8c-0.2,0-0.3,0-0.4-0.1l-3.6-3.6c-0.4-0.4-0.9-0.6-1.4-0.6s-1,0.2-1.4,0.6l-3.6,3.6
				c-0.1,0.1-0.3,0.2-0.4,0.1l-5-0.8c-0.1,0-0.2,0-0.3,0c-1,0-1.8,0.7-2,1.7l-0.8,5c0,0.2-0.1,0.3-0.3,0.4l-4.5,2.3
				c-0.5,0.2-0.8,0.7-1,1.2s-0.1,1.1,0.1,1.5l2.3,4.5c0.1,0.1,0.1,0.3,0,0.5l-2.3,4.5c-0.2,0.5-0.3,1-0.1,1.5s0.5,0.9,1,1.2l4.5,2.3
				c0.1,0.1,0.2,0.2,0.3,0.4l0.8,5c0.2,1,1,1.7,2,1.7c0.1,0,0.2,0,0.3,0l5-0.8c0.2,0,0.3,0,0.4,0.1l3.6,3.6c0.4,0.4,0.9,0.6,1.4,0.6
				s1-0.2,1.4-0.6l3.6-3.6c0.1-0.1,0.3-0.2,0.4-0.1l5,0.8c0.1,0,0.2,0,0.3,0c1,0,1.8-0.7,2-1.7l0.8-5c0-0.2,0.1-0.3,0.3-0.4l4.5-2.3
				c0.5-0.2,0.8-0.7,1-1.2s0.1-1.1-0.1-1.5l-2.3-4.5c-0.1-0.1-0.1-0.3,0-0.5L234,751.3z M230.4,756.9l2.3,4.5c0.1,0.1,0.1,0.3,0,0.4
				c0,0.1-0.1,0.2-0.3,0.3l-4.5,2.3c-0.6,0.3-1,0.8-1.1,1.5l-0.8,5c0,0.3-0.3,0.5-0.6,0.4l-5-0.8c-0.1,0-0.2,0-0.3,0
				c-0.5,0-1,0.2-1.4,0.6l-3.6,3.6c-0.2,0.2-0.5,0.2-0.7,0L211,771c-0.4-0.4-0.9-0.6-1.4-0.6c-0.1,0-0.2,0-0.3,0l-5,0.8
				c-0.3,0-0.5-0.2-0.6-0.4l-0.8-5c-0.1-0.6-0.5-1.2-1.1-1.5l-4.5-2.3c-0.1-0.1-0.2-0.2-0.3-0.3c0-0.1,0-0.3,0-0.4l2.3-4.5
				c0.3-0.6,0.3-1.3,0-1.8l-2.3-4.5c-0.1-0.1-0.1-0.3,0-0.4s0.1-0.2,0.3-0.3l4.5-2.3c0.6-0.3,1-0.8,1.1-1.5l0.8-5
				c0-0.3,0.3-0.5,0.6-0.4l5,0.8c0.1,0,0.2,0,0.3,0l0,0c0.5,0,1-0.2,1.4-0.6l3.6-3.6c0.2-0.2,0.5-0.2,0.7,0l3.6,3.6
				c0.4,0.5,1.1,0.7,1.7,0.6l5-0.8c0.3,0,0.5,0.2,0.6,0.4l0.8,5c0.1,0.6,0.5,1.2,1.1,1.5l4.5,2.3c0.1,0.1,0.2,0.2,0.3,0.3
				c0,0.1,0,0.3,0,0.4l-2.3,4.5C230.1,755.6,230.1,756.3,230.4,756.9z"/>
			<path class="st3" d="M220.8,747.5c0.1,0.1,0.3,0.1,0.4,0.1c0.2,0,0.5-0.1,0.6-0.3c0.2-0.3,0.1-0.8-0.2-1s-0.8-0.1-1,0.2
				C220.4,746.8,220.5,747.2,220.8,747.5z"/>
			<path class="st3" d="M223.2,749.4c0.2,0,0.4-0.1,0.5-0.2c0.3-0.3,0.3-0.7,0.1-1.1c-0.3-0.3-0.8-0.3-1.1-0.1
				c-0.3,0.3-0.3,0.7-0.1,1.1C222.8,749.3,223,749.4,223.2,749.4z"/>
			<path class="st3" d="M218.6,765.6c-0.4,0.1-0.6,0.6-0.4,1c0.1,0.3,0.4,0.5,0.7,0.5c0.1,0,0.2,0,0.3,0c0.4-0.1,0.6-0.6,0.4-1
				C219.4,765.7,219,765.5,218.6,765.6z"/>
			<path class="st3" d="M220.8,764.4c-0.3,0.2-0.4,0.7-0.2,1c0.1,0.2,0.4,0.3,0.6,0.3c0.1,0,0.3,0,0.4-0.1c0.3-0.2,0.4-0.7,0.2-1
				C221.6,764.3,221.2,764.2,220.8,764.4z"/>
			<path class="st3" d="M211.3,765.6c-0.4-0.1-0.8,0-1,0.4s0,0.8,0.4,1c0.1,0,0.2,0,0.3,0c0.3,0,0.6-0.2,0.7-0.5
				C211.9,766.2,211.7,765.8,211.3,765.6z"/>
			<path class="st3" d="M216.2,766.2c-0.4,0-0.7,0.4-0.7,0.8c0,0.4,0.4,0.7,0.7,0.7h0.1c0.4,0,0.7-0.4,0.7-0.8
				C217,766.4,216.6,766.1,216.2,766.2z"/>
			<path class="st3" d="M213.7,766.2L213.7,766.2c-0.4,0-0.8,0.2-0.8,0.7c0,0.4,0.2,0.8,0.7,0.8h0.1c0.4,0,0.7-0.3,0.7-0.7
				S214.1,766.3,213.7,766.2z"/>
			<path class="st3" d="M225,753.5L225,753.5c0.1,0.3,0.4,0.6,0.7,0.6c0.1,0,0.1,0,0.2,0c0.4-0.1,0.6-0.5,0.5-0.9s-0.5-0.6-0.9-0.5
				C225.1,752.7,224.9,753.1,225,753.5z"/>
			<path class="st3" d="M226,755.2c-0.4,0-0.8,0.3-0.8,0.8s0.3,0.8,0.8,0.7c0.4,0,0.8-0.3,0.7-0.8
				C226.8,755.5,226.4,755.2,226,755.2z"/>
			<path class="st3" d="M225.9,757.9c-0.4-0.1-0.8,0.1-0.9,0.5c-0.1,0.4,0.1,0.8,0.5,0.9c0.1,0,0.1,0,0.2,0c0.3,0,0.6-0.2,0.7-0.6
				C226.5,758.4,226.3,758,225.9,757.9z"/>
			<path class="st3" d="M224.7,751.6c0.1,0,0.2,0,0.3-0.1c0.4-0.2,0.5-0.6,0.3-1s-0.6-0.5-1-0.3s-0.5,0.6-0.3,1
				C224.2,751.4,224.5,751.6,224.7,751.6z"/>
			<path class="st3" d="M222.7,762.8c-0.3,0.3-0.2,0.8,0.1,1.1c0.1,0.1,0.3,0.2,0.5,0.2s0.4-0.1,0.6-0.3c0.3-0.3,0.2-0.8-0.1-1.1
				C223.4,762.4,222.9,762.5,222.7,762.8z"/>
			<path class="st3" d="M225.1,760.4c-0.4-0.2-0.8,0-1,0.3c-0.2,0.4,0,0.8,0.3,1c0.1,0.1,0.2,0.1,0.3,0.1c0.3,0,0.5-0.1,0.7-0.4
				C225.6,761.1,225.5,760.6,225.1,760.4z"/>
			<path class="st3" d="M206.7,749.4c0.2,0,0.4-0.1,0.6-0.2c0.3-0.3,0.2-0.8-0.1-1.1s-0.8-0.2-1.1,0.1s-0.2,0.8,0.1,1.1
				C206.3,749.3,206.5,749.4,206.7,749.4z"/>
			<path class="st3" d="M204.8,760.5c-0.4,0.2-0.5,0.6-0.3,1c0.1,0.3,0.4,0.4,0.7,0.4c0.1,0,0.2,0,0.3-0.1c0.4-0.2,0.5-0.6,0.3-1
				S205.2,760.3,204.8,760.5z"/>
			<path class="st3" d="M204.9,758.5c-0.1-0.4-0.5-0.6-0.9-0.5s-0.6,0.5-0.5,0.9c0.1,0.3,0.4,0.6,0.7,0.6c0.1,0,0.1,0,0.2,0
				C204.8,759.3,205,758.9,204.9,758.5z"/>
			<path class="st3" d="M204,754c0.1,0,0.1,0,0.2,0c0.3,0,0.6-0.2,0.7-0.6c0.1-0.4-0.1-0.8-0.5-0.9c-0.4-0.1-0.8,0.1-0.9,0.5
				C203.4,753.5,203.6,753.9,204,754z"/>
			<path class="st3" d="M203.9,756.7c0.4,0,0.7-0.3,0.7-0.8l0,0l0,0c0-0.4-0.3-0.8-0.8-0.8c-0.4,0-0.7,0.3-0.7,0.8l0,0l0,0
				C203.1,756.4,203.5,756.7,203.9,756.7L203.9,756.7z"/>
			<path class="st3" d="M204.8,751.5c0.1,0.1,0.2,0.1,0.3,0.1c0.3,0,0.5-0.1,0.7-0.4c0.2-0.4,0-0.8-0.3-1c-0.4-0.2-0.8,0-1,0.3
				C204.3,750.8,204.4,751.3,204.8,751.5z"/>
			<path class="st3" d="M206.2,762.8c-0.3,0.3-0.3,0.8-0.1,1.1c0.1,0.2,0.4,0.2,0.6,0.2c0.2,0,0.4-0.1,0.5-0.2
				c0.3-0.3,0.3-0.8,0.1-1.1C207,762.5,206.5,762.5,206.2,762.8z"/>
			<path class="st3" d="M213.6,745.7L213.6,745.7c0.5-0.1,0.8-0.4,0.7-0.8c0-0.4-0.4-0.7-0.8-0.7s-0.7,0.4-0.7,0.8
				C212.9,745.4,213.2,745.7,213.6,745.7z"/>
			<path class="st3" d="M216.2,745.7L216.2,745.7c0.5,0,0.8-0.3,0.8-0.7s-0.2-0.8-0.7-0.8c-0.4,0-0.8,0.2-0.8,0.7
				C215.5,745.3,215.8,745.7,216.2,745.7z"/>
			<path class="st3" d="M218.6,746.3c0.1,0,0.2,0,0.3,0c0.3,0,0.6-0.2,0.7-0.5c0.1-0.4,0-0.8-0.4-1c-0.4-0.1-0.8,0-1,0.4
				S218.2,746.2,218.6,746.3z"/>
			<path class="st3" d="M211,746.4c0.1,0,0.2,0,0.3,0c0.4-0.1,0.6-0.6,0.4-1c-0.1-0.4-0.6-0.6-1-0.4l0,0c-0.4,0.1-0.6,0.6-0.4,1
				C210.4,746.2,210.7,746.4,211,746.4z"/>
			<path class="st3" d="M209.1,764.5c-0.3-0.2-0.8-0.1-1,0.2s-0.1,0.8,0.2,1c0.1,0.1,0.3,0.1,0.4,0.1c0.2,0,0.5-0.1,0.6-0.3
				C209.5,765.2,209.4,764.7,209.1,764.5z"/>
			<path class="st3" d="M208.6,747.6c0.1,0,0.3,0,0.4-0.1c0.3-0.2,0.4-0.7,0.2-1s-0.7-0.4-1-0.2s-0.4,0.7-0.2,1
				C208.2,747.5,208.4,747.6,208.6,747.6z"/>
		</g>
	</g>
	<g>
		<path class="st3" d="M200.3,760h29.3c1.7,0,3.1-1.4,3.1-3.1c0-1.2-0.7-2.2-1.7-2.7v-3.4c0-0.4-0.2-0.8-0.6-0.9l-15-7.2
			c-0.3-0.1-0.6-0.1-0.9,0l-15,7.2c-0.4,0.2-0.6,0.5-0.6,0.9v3.4c-1,0.5-1.7,1.5-1.7,2.7C197.2,758.7,198.6,760,200.3,760z
			 M214.9,747.8c1.1,0,2,0.9,2,2s-0.9,2-2,2s-2-0.9-2-2S213.8,747.8,214.9,747.8z"/>
		<path class="st3" d="M229.4,771.6h-0.5l0.4-4c0.1-1.2,0.1-2.4,0-3.6l-0.2-1.9h-6.8l-0.2,1.9c-0.1,1.2-0.1,2.4,0,3.6l0.4,4H218
			l0.4-4c0.1-1.2,0.1-2.4,0-3.6l-0.2-1.9h-6.8l-0.2,1.9c-0.1,1.2-0.1,2.4,0,3.6l0.4,4h-4.5l0.4-4c0.1-1.2,0.1-2.4,0-3.6l-0.2-1.9
			h-6.8l-0.2,1.9c-0.1,1.2-0.1,2.4,0,3.6l0.4,4h-0.5c-1.8,0-3.2,1.5-3.2,3.2s1.5,3.2,3.2,3.2h29c1.8,0,3.2-1.5,3.2-3.2
			S231.2,771.6,229.4,771.6z"/>
	</g>
</g>
<g>
	<path d="M25.4,121.7c1,0,1.1-0.3,1.1-1.1v-4.9c0-0.9-0.1-1.1-1.1-1.1v-0.2h5.1c0,0.6,0.1,1.3,0.1,1.8h-0.2
		c-0.2-1.3-0.5-1.6-1.9-1.6h-1c-0.3,0-0.3,0-0.3,0.3v2.9h1.4c1.1,0,1.2-0.1,1.4-0.9h0.2v2.3H30c-0.2-0.9-0.3-1.1-1.4-1.1h-1.4v2.3
		c0,0.9,0.1,1.1,1.3,1.1v0.2h-3v0H25.4z"/>
	<path d="M39.1,119.7c-0.2,0.6-0.4,1.6-0.6,2c-0.4,0.1-1.5,0.3-2.4,0.3c-3.1,0-4.5-2-4.5-3.8c0-2.4,2-4,4.7-4c1.2,0,1.9,0.3,2.3,0.3
		c0.1,0.6,0.2,1.2,0.2,1.9h-0.2c-0.3-1.4-1.2-1.9-2.7-1.9c-2.4,0-3.4,1.6-3.4,3.4c0,2.3,1.4,3.8,3.5,3.8c1.7,0,2.4-0.9,2.9-2.1
		L39.1,119.7z"/>
	<path d="M44.7,121.7c0.7-0.1,0.9-0.2,0.9-0.5s-0.4-1.2-0.8-2.4H42c-0.1,0.2-0.7,1.8-0.7,2.2c0,0.4,0.3,0.5,1,0.6v0.2h-2.7v-0.2
		c0.8-0.2,1-0.3,1.4-1.4l2.6-6.1l0.1-0.1l0.8,2.2c0.6,1.5,1.1,3,1.5,4.1c0.4,0.9,0.5,1,1.3,1.2v0.2L44.7,121.7L44.7,121.7z
		 M43.5,115.3c-0.5,1.1-0.9,2.2-1.3,3.2h2.5L43.5,115.3L43.5,115.3z"/>
	<path d="M50.7,113.7c-0.4,0.1-0.5,0.2-0.7,0.2c-0.3,0-1.2-0.4-1.2-0.6c0,0,0-0.1,0.1-0.1s0.2,0,0.3,0c0.5,0,1.1,0.1,1.7,0.1
		c0.6,0,1.2,0,1.8,0c0.3,0,0.3-0.1,0.7-0.1c0.3,0,0.8,0.1,0.8,0.2s-0.2,0.2-0.3,0.4c-1.1,2-2.7,3.7-5.1,4.9
		c-0.2,0.1-0.3,0.2-0.4,0.2l0,0c0,0,0.1-0.2,0.3-0.3c1.7-1.1,3.7-3.4,4.3-4.8L50.7,113.7z M51.6,119.5c-0.1-0.3-0.3-0.4-0.7-0.5
		c-0.1,0-0.3-0.1-0.3-0.1s0.1-0.1,0.3-0.2c0.6,0,1.3,0.1,1.5,0.2l3.3-0.1c0.3,0,0.3-0.1,0.6-0.1c0.2,0,0.7,0,0.7,0.2
		c0,0.1-0.1,0.2-0.2,0.3c-0.2,0.9-0.5,2.1-0.6,2.5c0.4,0,0.6,0.2,0.6,0.3c0,0.1-0.1,0.2-0.4,0.2h-4.1c-0.1,0.5-0.3,0.8-0.4,0.8
		c-0.1,0-0.2-0.2-0.2-0.7L51.6,119.5z M52.3,119.9v2H55c0.4,0,0.4-0.1,0.7-0.2l0.1-2.6h-3.5c0,0-0.2,0.1-0.2,0.2v0.6H52.3z
		 M56.1,112.7c0-0.1-0.3-0.4-1-0.6c-0.2-0.1-0.3-0.1-0.3-0.2s0.1-0.1,0.4-0.1c0.6,0,0.9,0.2,1.3,0.3c0.3,0.1,0.4,0.2,0.4,0.3
		c0,0.1,0,0.2,0,0.3v3.2c0.2,0,0.3,0,0.5,0c0.6-0.1,0.3-0.3,1.2-0.3c0.2,0,0.7,0,0.7,0.3c0,0.1-0.1,0.3-0.3,0.3h-2.1
		c0,1.8-0.5,2-0.6,2s-0.2-0.1-0.2-0.5C56.1,117.7,56.1,112.7,56.1,112.7z"/>
	<path d="M62.5,113.1c0-0.3-0.4-0.4-0.9-0.6c-0.1,0-0.2-0.1-0.2-0.1c0-0.1,0.1-0.1,0.3-0.1c0.6,0,1.2,0.1,1.5,0.3c0.9,0,2,0,3.2-0.1
		c0.9-0.1,0.5-0.3,1.5-0.3c0.3,0,0.9,0,0.9,0.3c0,0.1-0.2,0.3-0.6,0.3c-1.3,0.1-3.7,0.1-4.9,0.1c-0.1,0.1-0.1,0-0.1,0.2
		c0,0.5,0,1.3,0,1.9c0,0.4,0.1,0.4,1.3,0.4c0.6,0,1.3,0,2.3-0.1c0.7-0.1,0.3-0.3,1.4-0.3c0.4,0,0.6,0.2,0.6,0.3
		c0,0.2-0.2,0.3-0.5,0.3c-0.1,0-2.2,0.1-2.5,0.1c0,0.6,0,1.1-0.1,1.6c1,0,1.9,0,2.7-0.1c0.5-0.1,0.5-0.2,1-0.2c0.3,0,1.3,0,1.3,0.4
		c0,0.2-0.2,0.3-0.5,0.3h-0.1c-0.6,0-1.7,0-3,0c-1.6,0-3.5,0-4.8,0.2c-0.4,0.1-0.5,0.2-0.7,0.2s-1.5-0.5-1.5-0.7c0,0,0-0.1,0.2-0.1
		c0,0,0.1,0,0.2,0c0.7,0.1,1.6,0.2,2.5,0.2c0.7,0,1.4,0,2.1-0.1c0-0.5-0.1-1-0.1-1.6h-1.3c-0.9,0-1.2-0.3-1.2-0.8V113.1z
		 M67.8,119.3c-0.7,0-2.7,0.1-4,0.2c-0.4,0-0.5,0.2-0.8,0.2s-1.2-0.5-1.2-0.6c0,0,0-0.1,0.2-0.1c0,0,0.1,0,0.2,0
		c0.4,0.1,1.1,0.1,1.8,0.1c1.1,0,2.4-0.1,3.4-0.1c0.3,0,0.3-0.1,0.6-0.1h0.2c0.5,0,0.6,0.1,0.6,0.2s-0.1,0.2-0.1,0.4
		c0,1.6,0,2.3-0.2,3c-0.1,0.3-0.3,0.5-0.4,0.5c-0.1,0-0.2-0.1-0.2-0.4L67.8,119.3L67.8,119.3z"/>
	<path d="M77.7,116.1c0-0.2-0.2-0.2-0.7-0.4c-0.1,0-0.2-0.1-0.2-0.2c0,0,0.1-0.1,0.3-0.1c1.2,0,1.4,0.1,1.4,0.3c0,0.1,0,0.1,0,0.2
		c0,1,0,1.5,0,2c0.9-0.1,3.4-0.5,4.2-0.7V113c0-0.3-0.6-0.5-1-0.7c-0.2-0.1-0.3-0.1-0.3-0.2s0.1-0.1,0.6-0.1
		c1.3,0.2,1.5,0.4,1.5,0.6c0,0.1,0,0.2,0,0.3v4.1H84c0.6-0.1,0.4-0.3,1.1-0.3c0.3,0,0.7,0,0.7,0.3c0,0.1-0.1,0.3-0.3,0.3h-2
		l-0.1,2.3c-0.1,0.6-0.3,1-0.5,1c-0.1,0-0.2-0.1-0.2-0.4v-2.7c-1.5,0.4-3.2,0.8-5.3,1.2c-0.3,0.1-0.4,0.2-0.6,0.2
		c-0.2,0-1.6-0.6-1.6-0.8c0,0,0.1-0.1,0.2-0.1h0.1c0.4,0.1,0.8,0.1,1.2,0.1s0.8,0,1.1-0.1L77.7,116.1L77.7,116.1z M79.8,113.5
		c0.2,0,0.6-0.1,0.8-0.1c0.6,0,0.7,0.1,0.7,0.2s-0.2,0.2-0.2,0.4c-0.2,0.7-0.4,2.1-1,2.7c-0.1,0.1-0.2,0.1-0.2,0.1s0,0,0-0.1
		s0-0.1,0.1-0.2c0.2-0.7,0.5-2.2,0.5-2.7c-0.9,0-2.4,0.2-2.9,0.2c-0.4,0.1-0.4,0.3-0.6,0.3s-1.2-0.4-1.2-0.6c0,0,0.1-0.1,0.2-0.1
		c0.1,0,0.1,0,0.2,0c0.4,0,0.9,0.1,1.3,0.1C78.1,113.7,79,113.6,79.8,113.5z M78.2,120.3c0-0.3-0.3-0.4-1-0.5
		c-0.1,0-0.1-0.1-0.1-0.1c0-0.1,0.1-0.1,0.4-0.2c1.3,0,1.5,0.1,1.5,0.3c0,0.1,0,0.2,0,0.3v1.6c0,0.3,0.1,0.3,0.5,0.3h2.7
		c1.1-0.1,0.6-0.3,1.7-0.3c0.3,0,0.8,0,0.8,0.3c0,0.2-0.1,0.3-0.4,0.3h-4.8c-0.7,0-1.1-0.2-1.1-0.7v-1.3H78.2z"/>
	<path d="M95.1,112.9c0-0.2-0.4-0.5-1.1-0.8c-0.2-0.1-0.3-0.1-0.3-0.2s0.1-0.1,0.4-0.2c0.8,0.1,1.2,0.3,1.5,0.4
		c0.2,0.1,0.2,0.2,0.2,0.3c0,0.1,0,0.2,0,0.3v7.1c0,2.2-0.1,2.5-0.3,3c-0.1,0.1-0.2,0.2-0.2,0.2c-0.1,0-0.2-0.1-0.2-0.5v-3.8
		c-1.9,1-5.3,2-6.1,2c-0.3,0-0.6-0.5-0.6-0.9v-2.1c0-0.4-0.5-0.5-0.9-0.6c-0.2,0-0.2-0.1-0.2-0.2s0.1-0.2,0.4-0.2
		c0.6,0,1.2,0.1,1.5,0.2c0.6,0,1.3-0.1,1.8-0.1c0.3,0,0.4-0.1,0.6-0.2c0-0.6,0.1-1.5,0.1-2.3c-0.8,0-1.7,0.1-2.4,0.2
		c-0.3,0.1-0.4,0.2-0.5,0.2c-0.2,0-1.2-0.5-1.2-0.6c0,0,0-0.1,0.2-0.1h0.1c0.5,0.1,0.9,0.1,1.5,0.1s1.2,0,2-0.1
		c0.4,0,0.2-0.2,0.9-0.2c0.4,0,0.6,0.1,0.6,0.2s-0.2,0.3-0.3,0.4c-0.1,0.5-0.4,1.6-0.5,2.1c0.4,0,0.6,0.2,0.6,0.3
		c0,0.1-0.1,0.2-0.3,0.2c-0.9,0-2.1,0.1-2.9,0.2c-0.2,0.1-0.3,0-0.3,0.3v0.1c0,0.9,0,1.3,0,2.1c0,0.2,0.1,0.3,0.3,0.3h0.1
		c1.4-0.1,3.6-0.5,5.5-1.5C95.1,118.5,95.1,112.9,95.1,112.9z"/>
	<path d="M39.7,128.1c0.2,0,0.3-0.1,0.3-0.2s0-0.1-0.1-0.2c-0.1-0.1-0.2-0.1-0.2-0.2c0,0,0-0.1,0.2-0.1c0.4,0,0.8,0.2,0.8,0.4
		c0,0.1-0.1,0.3-0.2,0.4c1.4,0.3,2,1.2,2,2.1c0,1.1-1,2.1-2.5,2.1c-1.7,0-2.6-1-2.6-2.1C37.4,129.3,38.2,128.3,39.7,128.1z
		 M38.2,130.2c0,0.8,0.6,1.6,1.8,1.6c1.2,0,1.8-0.8,1.8-1.6c0-0.8-0.6-1.6-1.8-1.6C38.8,128.6,38.2,129.4,38.2,130.2z M40.7,134.3
		c0-0.2-0.3-0.3-0.9-0.5c-0.1,0-0.2-0.1-0.2-0.1c0-0.1,0.1-0.1,0.4-0.2c0.6,0,1,0,1.3,0.1c0.2,0,0.3,0.1,0.3,0.2c0,0.1,0,0.2,0,0.3
		c0,0.5,0,1.2,0,1.7c0,0.3,0.2,0.4,0.6,0.4h2.2c0.9-0.1,0.5-0.3,1.5-0.3c0.4,0,0.9,0,0.9,0.4c0,0.1-0.1,0.3-0.3,0.3h-4.3
		c-0.8,0-1.2-0.2-1.3-0.8L40.7,134.3z M44.7,127.2c0-0.1-0.3-0.3-1-0.7c-0.2-0.1-0.3-0.1-0.3-0.2s0.1-0.1,0.4-0.1
		c0,0,1.7,0.2,1.7,0.6c0,0.1,0,0.2,0,0.3v3.8c0.2,0,0.4,0,0.5,0c0.6-0.1,0.3-0.3,1.2-0.3c0.2,0,0.7,0,0.7,0.3c0,0.2-0.1,0.3-0.3,0.3
		h-2.1c0,2.2-0.1,2.7-0.2,3c-0.1,0.2-0.2,0.4-0.3,0.4s-0.2-0.1-0.2-0.5v-6.9H44.7z"/>
	<path d="M54.7,129.9c-0.1,1.2-1,2-2.5,2c-1.6,0-2.4-1.1-2.4-2.1c0-0.9,0.6-1.8,2-2h0.1c0.2,0,0.3-0.1,0.3-0.3c0-0.1,0-0.1,0-0.2
		c-0.1-0.1-0.2-0.1-0.2-0.2c0,0,0-0.1,0.1-0.1c0.3,0,0.7,0.2,0.7,0.4c0,0.1-0.1,0.2-0.2,0.4c1.4,0.2,2.1,1,2.1,1.8L54.7,129.9z
		 M50.4,129.8c0,0.8,0.6,1.6,1.7,1.6c1.2,0,1.9-0.8,1.9-1.6s-0.6-1.6-1.9-1.6C51,128.2,50.4,129,50.4,129.8z M55.3,133.1
		c0-0.1-0.1-0.2-0.2-0.3c-0.1,0-0.1-0.1-0.1-0.2c0-0.1,0-0.1,0.1-0.1c0.2,0,0.8,0.2,0.8,0.4c0,0.1-0.1,0.2-0.2,0.3
		c1.3,0.2,2,1.1,2,1.9c0,1-0.8,1.9-2.4,1.9c-1.5,0-2.3-1-2.3-1.9s0.6-1.8,2-1.9C55.2,133.3,55.3,133.2,55.3,133.1z M53.7,135.1
		c0,0.7,0.6,1.5,1.7,1.5c1.1,0,1.7-0.7,1.7-1.5c0-0.7-0.6-1.5-1.7-1.5C54.3,133.7,53.7,134.4,53.7,135.1z M57.3,127.3
		c0-0.3-0.5-0.6-1-0.8c-0.1,0-0.3-0.1-0.3-0.2s0.3-0.1,0.4-0.1c0.3,0,1.2,0.2,1.4,0.3c0.3,0.1,0.4,0.2,0.4,0.3c0,0.1,0,0.2,0,0.4
		v3.7c0,1.6-0.1,1.8-0.3,2.2c-0.1,0.2-0.2,0.3-0.3,0.3s-0.2-0.3-0.2-0.7v-1.6c-0.4,0-0.8,0.1-1.2,0.1c-0.2,0-0.3,0.1-0.4,0.1
		c-0.2,0-1-0.4-1-0.5c0,0,0.1-0.1,0.2-0.1c0.1,0,0.5,0,0.6,0c0.6,0,1.2,0,1.8-0.1v-1.8c-0.5,0-0.9,0.1-1.1,0.1
		c-0.3,0-0.3,0.1-0.4,0.1c-0.2,0-1-0.3-1-0.5c0,0,0,0,0.1,0s0.1,0,0.3,0c0.3,0,0.5,0,0.7,0c0.6,0,0.8,0,1.5-0.1v-1.1H57.3z"/>
	<path d="M65.8,128.1c-0.4,0.1-0.5,0.2-0.7,0.2c-0.3,0-1.2-0.4-1.2-0.6c0,0,0-0.1,0.1-0.1c0.1,0,0.2,0,0.3,0c0.5,0,1.1,0.1,1.7,0.1
		c0.6,0,1.2,0,1.8,0c0.3,0,0.3-0.1,0.7-0.1c0.3,0,0.8,0.1,0.8,0.2s-0.2,0.2-0.3,0.4c-1.1,2-2.7,3.7-5.1,4.9
		c-0.2,0.1-0.3,0.2-0.4,0.2l0,0c0,0,0.1-0.2,0.3-0.3c1.7-1.1,3.7-3.4,4.3-4.8L65.8,128.1z M66.7,133.9c-0.1-0.3-0.3-0.4-0.7-0.5
		c-0.1,0-0.3-0.1-0.3-0.1s0.1-0.1,0.3-0.2c0.6,0,1.3,0.1,1.5,0.2l3.3-0.1c0.3,0,0.3-0.1,0.6-0.1c0.2,0,0.7,0,0.7,0.2
		c0,0.1-0.1,0.2-0.2,0.3c-0.2,0.9-0.5,2.1-0.6,2.5c0.4,0,0.6,0.2,0.6,0.3s-0.1,0.2-0.4,0.2h-4.1c-0.1,0.5-0.3,0.8-0.4,0.8
		s-0.2-0.2-0.2-0.7L66.7,133.9z M67.5,134.3v2h2.7c0.4,0,0.4-0.1,0.7-0.2l0.1-2.6h-3.5c0,0-0.2,0.1-0.2,0.2v0.6H67.5z M71.2,127.1
		c0-0.1-0.3-0.4-1-0.6c-0.2-0.1-0.3-0.1-0.3-0.2s0.1-0.1,0.4-0.1c0.6,0,0.9,0.2,1.3,0.3c0.3,0.1,0.4,0.2,0.4,0.3c0,0.1,0,0.2,0,0.3
		v3.2c0.2,0,0.3,0,0.5,0c0.6-0.1,0.3-0.3,1.2-0.3c0.2,0,0.7,0,0.7,0.3c0,0.1-0.1,0.3-0.3,0.3H72c0,1.8-0.5,2-0.6,2s-0.2-0.1-0.2-0.5
		C71.2,132.1,71.2,127.1,71.2,127.1z"/>
	<path d="M75.2,133.7c1.1-1,2.8-3,3.4-5c0-0.2,0-0.3-0.6-0.8c-0.3-0.2-0.3-0.3,0-0.3c0.1,0,0.3,0,0.5,0.1c0.9,0.4,1.2,0.6,1.2,0.8
		c0,0.1-0.1,0.4-0.9,1.8c0.3,0.5,0.7,0.9,1.3,1.3c0.5,0.4,0.6,0.3,1,1.1c0.1,0.2,0.2,0.4,0.2,0.6c0,0.2-0.1,0.4-0.2,0.4
		s-0.2,0-0.3-0.1c-0.4-0.5-1.2-1.7-2.2-2.9c-1.3,1.9-3.2,3.4-3.5,3.4l0,0C75,133.9,75.1,133.8,75.2,133.7z M83.2,127.1
		c0-0.2-0.7-0.5-1.2-0.7c-0.1,0-0.2-0.1-0.2-0.2s0.1-0.1,0.5-0.1c0.5,0.1,1,0.2,1.4,0.3c0.3,0.1,0.3,0.2,0.3,0.3c0,0.1,0,0.2,0,0.4
		v4.4h0.6c0.6-0.1,0.4-0.3,1.1-0.3c0.2,0,0.7,0,0.7,0.4c0,0.2-0.1,0.3-0.4,0.3h-2.1v3.5c0,0.8-0.1,1.3-0.3,1.8
		c-0.1,0.1-0.2,0.2-0.3,0.2c-0.1,0-0.2-0.2-0.2-0.6L83.2,127.1L83.2,127.1z"/>
</g>
<g>
	<path d="M177.4,847.9v-0.3c1,0,1.1-0.2,1.1-0.9v-6.4c0-0.5-0.2-0.8-1.1-0.8v-0.3h6.2l0.9,2l-0.2,0.1c-0.5-0.7-1.4-1.8-2.9-1.8h-1.3
		c-0.6,0-0.8,0.3-0.8,0.8v2.9h1.8c0.8,0,1.3-0.1,1.3-1.5h0.3v3.4h-0.3c0-1.2-0.6-1.6-1.4-1.6h-1.7v3.2c0,0.7,0.3,0.9,1.2,0.9v0.3
		H177.4L177.4,847.9z"/>
	<path d="M192.8,845.5c-0.6,1.4-1.5,2.5-3.4,2.5c-2.1,0-3.8-1.6-3.8-4.6c0-2.4,1.4-4.5,3.6-4.5c0.8,0,1.1,0.1,1.7,0.3l0.9-0.3
		l0.8,2.2l-0.2,0.1c-0.5-0.8-1.6-2-3.2-2c-1.7,0-2.8,1.8-2.8,4.2c0,2.3,1.3,4,3.3,4c1.2,0,2.1-0.6,2.9-2L192.8,845.5z"/>
	<path d="M198.3,839l3,7.7c0.2,0.7,0.6,0.9,1.2,0.9v0.3h-3v-0.3c0.8,0,1.2-0.1,1.2-0.5c0-0.1,0-0.2-0.1-0.4l-0.8-2h-3.7l-0.6,1.7
		c-0.1,0.2-0.1,0.4-0.1,0.6c0,0.4,0.3,0.6,1.1,0.6v0.3h-2.6v-0.3c0.7,0,0.9-0.2,1.3-1.2l2.5-7L198.3,839z M197.9,839.8l-1.6,4.5h3.4
		L197.9,839.8z"/>
	<path d="M206,839.7c-0.4,0.1-0.5,0.2-0.7,0.2c-0.3,0-1.2-0.4-1.2-0.6c0,0,0-0.1,0.1-0.1s0.2,0,0.3,0c0.5,0,1.1,0.1,1.7,0.1
		c0.6,0,1.2,0,1.8,0c0.3,0,0.3-0.1,0.7-0.1c0.3,0,0.8,0.1,0.8,0.2c0,0.1-0.2,0.2-0.3,0.4c-1.1,2-2.7,3.7-5.1,4.9
		c-0.2,0.1-0.3,0.2-0.4,0.2l0,0c0,0,0.1-0.2,0.3-0.3c1.7-1.1,3.7-3.4,4.3-4.8L206,839.7z M206.9,845.5c-0.1-0.3-0.3-0.4-0.7-0.5
		c-0.1,0-0.3-0.1-0.3-0.1s0.1-0.1,0.3-0.2c0.6,0,1.3,0.1,1.5,0.2l3.3-0.1c0.3,0,0.3-0.1,0.6-0.1c0.2,0,0.7,0,0.7,0.2
		c0,0.1-0.1,0.2-0.2,0.3c-0.2,0.9-0.5,2.1-0.6,2.5c0.4,0,0.6,0.2,0.6,0.3s-0.1,0.2-0.4,0.2h-4.1c-0.1,0.5-0.3,0.8-0.4,0.8
		c-0.1,0-0.2-0.2-0.2-0.7L206.9,845.5z M207.7,845.9v2h2.7c0.4,0,0.4-0.1,0.7-0.2l0.1-2.6h-3.5c0,0-0.2,0.1-0.2,0.2v0.6H207.7z
		 M211.4,838.7c0-0.1-0.3-0.4-1-0.6c-0.2-0.1-0.3-0.1-0.3-0.2c0-0.1,0.1-0.1,0.4-0.1c0.6,0,0.9,0.2,1.3,0.3c0.3,0.1,0.4,0.2,0.4,0.3
		c0,0.1,0,0.2,0,0.3v3.2c0.2,0,0.3,0,0.5,0c0.6-0.1,0.3-0.3,1.2-0.3c0.2,0,0.7,0,0.7,0.3c0,0.1-0.1,0.3-0.3,0.3h-2.1
		c0,1.8-0.5,2-0.6,2s-0.2-0.1-0.2-0.5L211.4,838.7L211.4,838.7z"/>
	<path d="M217.9,839c0-0.3-0.4-0.4-0.9-0.6c-0.1,0-0.2-0.1-0.2-0.1c0-0.1,0.1-0.1,0.3-0.1c0.6,0,1.2,0.1,1.5,0.3c0.9,0,2,0,3.2-0.1
		c0.9-0.1,0.5-0.3,1.5-0.3c0.3,0,0.9,0,0.9,0.3c0,0.1-0.2,0.3-0.6,0.3c-1.3,0.1-3.7,0.1-4.9,0.1c-0.1,0.1-0.1,0-0.1,0.2
		c0,0.5,0,1.3,0,1.9c0,0.4,0.1,0.4,1.3,0.4c0.6,0,1.3,0,2.3-0.1c0.7-0.1,0.3-0.3,1.4-0.3c0.4,0,0.6,0.2,0.6,0.3
		c0,0.1-0.2,0.3-0.5,0.3c-0.1,0-2.2,0.1-2.5,0.1c0,0.6,0,1.1-0.1,1.6c1,0,1.9,0,2.7-0.1c0.5-0.1,0.5-0.2,1-0.2c0.3,0,1.3,0,1.3,0.4
		c0,0.2-0.2,0.3-0.5,0.3h-0.1c-0.6,0-1.7,0-3,0c-1.6,0-3.5,0-4.8,0.2c-0.4,0.1-0.5,0.2-0.7,0.2s-1.5-0.5-1.5-0.7c0,0,0-0.1,0.2-0.1
		c0,0,0.1,0,0.2,0c0.7,0.1,1.6,0.2,2.5,0.2c0.7,0,1.4,0,2.1-0.1c0-0.5-0.1-1-0.1-1.6h-1.3c-0.9,0-1.2-0.3-1.2-0.8V839z M223.2,845.2
		c-0.7,0-2.7,0.1-4,0.2c-0.4,0-0.5,0.2-0.8,0.2s-1.2-0.5-1.2-0.6c0,0,0-0.1,0.2-0.1c0,0,0.1,0,0.2,0c0.4,0.1,1.1,0.1,1.8,0.1
		c1.1,0,2.4-0.1,3.4-0.1c0.3,0,0.3-0.1,0.6-0.1h0.2c0.5,0,0.6,0.1,0.6,0.2s-0.1,0.2-0.1,0.4c0,1.6,0,2.3-0.2,3
		c-0.1,0.3-0.3,0.5-0.4,0.5c-0.1,0-0.2-0.1-0.2-0.4L223.2,845.2L223.2,845.2z"/>
	<path d="M234.5,842.1c0-0.2-0.2-0.2-0.7-0.4c-0.1,0-0.2-0.1-0.2-0.2c0,0,0.1-0.1,0.3-0.1c1.2,0,1.4,0.1,1.4,0.3c0,0.1,0,0.1,0,0.2
		c0,1,0,1.5,0,2c0.9-0.1,3.4-0.5,4.2-0.7V839c0-0.3-0.6-0.5-1-0.7c-0.2-0.1-0.3-0.1-0.3-0.2s0.1-0.1,0.6-0.1
		c1.3,0.2,1.5,0.4,1.5,0.6c0,0.1,0,0.2,0,0.3v4.2h0.5c0.6-0.1,0.4-0.3,1.1-0.3c0.3,0,0.7,0,0.7,0.3c0,0.1-0.1,0.3-0.3,0.3h-2
		l-0.2,2.1c-0.1,0.6-0.3,1-0.5,1c-0.1,0-0.2-0.1-0.2-0.4v-2.7c-1.5,0.4-3.2,0.8-5.3,1.2c-0.3,0.1-0.4,0.2-0.6,0.2
		c-0.2,0-1.6-0.6-1.6-0.8c0,0,0.1-0.1,0.2-0.1h0.1c0.4,0.1,0.8,0.1,1.2,0.1s0.8,0,1.1-0.1V842.1z M236.7,839.5
		c0.2,0,0.6-0.1,0.8-0.1c0.6,0,0.7,0.1,0.7,0.2c0,0.1-0.2,0.2-0.2,0.4c-0.2,0.7-0.4,2.1-1,2.7c-0.1,0.1-0.2,0.1-0.2,0.1s0,0,0-0.1
		c0-0.1,0-0.1,0.1-0.2c0.2-0.7,0.5-2.2,0.5-2.7c-0.9,0-2.4,0.2-2.9,0.2c-0.4,0.1-0.4,0.3-0.6,0.3s-1.2-0.4-1.2-0.6
		c0,0,0.1-0.1,0.2-0.1c0.1,0,0.1,0,0.2,0c0.4,0,0.9,0.1,1.3,0.1C235,839.6,235.9,839.6,236.7,839.5z M235,846.2c0-0.3-0.3-0.4-1-0.5
		c-0.1,0-0.1-0.1-0.1-0.1c0-0.1,0.1-0.1,0.4-0.2c1.3,0,1.5,0.1,1.5,0.3c0,0.1,0,0.2,0,0.3v1.6c0,0.3,0.1,0.3,0.5,0.3h2.7
		c1.1-0.1,0.6-0.3,1.7-0.3c0.3,0,0.8,0,0.8,0.3c0,0.2-0.1,0.3-0.4,0.3h-5c-0.7,0-1.1-0.2-1.1-0.7V846.2z"/>
	<path d="M251.9,838.8c0-0.2-0.4-0.5-1.1-0.8c-0.2-0.1-0.3-0.1-0.3-0.2c0-0.1,0.1-0.1,0.4-0.2c0.8,0.1,1.2,0.3,1.5,0.4
		c0.2,0.1,0.2,0.2,0.2,0.3c0,0.1,0,0.2,0,0.3v7.1c0,2.2-0.1,2.5-0.3,3c-0.1,0.1-0.2,0.2-0.2,0.2c-0.1,0-0.2-0.1-0.2-0.5v-3.9
		c-1.9,1-5.3,2-6.1,2c-0.3,0-0.6-0.5-0.6-0.9v-2.1c0-0.4-0.5-0.5-0.9-0.6c-0.2,0-0.2-0.1-0.2-0.2c0-0.1,0.1-0.2,0.4-0.2
		c0.6,0,1.2,0.1,1.5,0.2c0.6,0,1.3-0.1,1.8-0.1c0.3,0,0.4-0.1,0.6-0.2c0-0.6,0.1-1.5,0.1-2.3c-0.8,0-1.7,0.1-2.4,0.2
		c-0.3,0.1-0.4,0.2-0.5,0.2c-0.2,0-1.2-0.5-1.2-0.6c0,0,0-0.1,0.2-0.1h0.1c0.5,0.1,0.9,0.1,1.5,0.1s1.2,0,2-0.1
		c0.4,0,0.2-0.2,0.9-0.2c0.4,0,0.6,0.1,0.6,0.2c0,0.1-0.2,0.3-0.3,0.4c-0.1,0.5-0.4,1.6-0.5,2.1c0.4,0,0.6,0.2,0.6,0.3
		c0,0.1-0.1,0.2-0.3,0.2c-0.9,0-2.1,0.1-2.9,0.2c-0.2,0.1-0.3,0-0.3,0.3v0.1c0,0.9,0,1.3,0,2.1c0,0.2,0.1,0.3,0.3,0.3h0.1
		c1.4-0.1,3.6-0.5,5.5-1.5L251.9,838.8L251.9,838.8z"/>
	<path d="M181.2,854.8c-0.1-0.3-0.6-0.4-0.9-0.5c-0.2,0-0.2-0.1-0.2-0.1c0-0.1,0.1-0.1,0.4-0.2c0.5,0,0.9,0.1,1.4,0.2
		c0.2,0.1,0.3,0.1,0.3,0.2s0,0.2,0,0.4v1.1l4-0.1v-1.6c0-0.2-0.3-0.4-0.8-0.6c-0.1,0-0.2-0.1-0.2-0.1c0-0.1,0.1-0.1,0.4-0.1
		c0.4,0,0.8,0.1,1.3,0.3c0.2,0.1,0.2,0.1,0.2,0.2c0,0.1,0,0.2-0.1,0.3v3.5c-0.1,0.6-0.1,1.1-0.3,1.4c-0.1,0.1-0.2,0.1-0.2,0.1
		c-0.1,0-0.2-0.1-0.2-0.4l-1.9,0.1c0.4,0.1,0.5,0.1,0.5,0.3c0,0.1,0,0.2,0,0.3v2c0.5,0,1.1,0,2.4-0.1c0.8-0.1,0.7-0.3,1.2-0.3
		s1.4,0.1,1.4,0.5c0,0.1-0.2,0.3-0.5,0.3h-0.1c-1-0.1-2.3-0.1-3.5-0.1c-1.4,0-2.9,0.1-4.2,0.1c-0.5,0.1-0.6,0.3-0.8,0.3
		c-0.3,0-1.6-0.6-1.6-0.8c0,0,0.1-0.1,0.2-0.1h0.1c0.9,0.1,1.8,0.2,3.1,0.2c0.5,0,1,0,1.6,0v-2c0-0.2-0.2-0.3-0.6-0.5
		c-0.1,0-0.2-0.1-0.2-0.1h-1c-0.2,0.5-0.3,0.7-0.4,0.7c-0.2,0-0.2-0.2-0.2-0.6L181.2,854.8z M182,856.2v2.3l4-0.1v-2.3L182,856.2z"
		/>
	<path d="M194.3,859.3c-1.2-0.1-1.9-0.9-1.9-1.7c0-0.7,0.6-1.5,1.8-1.7c0.1-0.1,0.1-0.2,0.1-0.3c0-0.1-0.1-0.3-0.2-0.4
		c-0.4,0-0.9,0-1.4,0.1c-0.3,0-0.3,0.2-0.5,0.2s-1.1-0.5-1.1-0.6c0,0,0-0.1,0.1-0.1c0,0,0.1,0,0.2,0c0.5,0.1,1.1,0.1,1.8,0.1
		s1.5,0,2.2-0.1h0.1c0.7-0.1,0.5-0.4,1.3-0.4c0.3,0,0.8,0,0.8,0.3c0,0.1-0.2,0.3-0.5,0.3c-0.5,0-1.7,0.1-2.6,0.1
		c0.1,0.2,0.3,0.3,0.3,0.4l0,0c0,0.2-0.1,0.2-0.1,0.3l0,0c1.2,0.2,1.8,0.9,1.8,1.7c0,0.8-0.6,1.5-1.7,1.6v1.1
		c0.7-0.1,2.5-0.3,3.5-0.7V853c0-0.2-0.5-0.5-1.1-0.7c-0.2-0.1-0.3-0.1-0.3-0.2c0-0.1,0.1-0.1,0.4-0.2c0.6,0,1.1,0.2,1.5,0.3
		c0.2,0.1,0.3,0.2,0.3,0.3s0,0.2,0,0.3v4.9c0.2,0,0.4,0,0.6,0c0.3-0.1,0.2-0.3,1.2-0.3c0.4,0,0.5,0.2,0.5,0.4c0,0.1-0.1,0.3-0.3,0.3
		c-0.5,0-1.7,0.1-2,0.1v2.2c0,1.1,0,1.8-0.2,2.5c-0.1,0.2-0.2,0.4-0.3,0.4s-0.2-0.1-0.2-0.5v-3.1c-1.5,0.6-3.8,1-5.4,1.4
		c-0.2,0.1-0.3,0.2-0.4,0.2c-0.3,0-1.7-0.6-1.7-0.9c0,0,0-0.1,0.1-0.1s0.1,0,0.2,0c0.3,0.1,0.6,0.1,0.9,0.1c0.7,0,1.5-0.1,2.1-0.2
		v-0.9H194.3z M193.9,854c-0.5,0-1-0.7-1-0.8c0,0,0-0.1,0.1-0.1c0,0,0.1,0,0.3,0c0.4,0.1,1.2,0.2,2.2,0.2c0.4,0,0.6,0.2,0.6,0.3
		c0,0.2-0.4,0.2-1,0.2h-1.2V854z M193.2,857.5c0,0.6,0.5,1.2,1.5,1.2c0.9,0,1.4-0.6,1.4-1.2s-0.5-1.2-1.4-1.2
		C193.6,856.3,193.2,856.9,193.2,857.5z"/>
	<path d="M208.4,855.8c-0.1,1.2-1,2-2.5,2c-1.6,0-2.4-1.1-2.4-2.1c0-0.9,0.6-1.8,2-2h0.1c0.2,0,0.3-0.1,0.3-0.3c0-0.1,0-0.1,0-0.2
		c-0.1-0.1-0.2-0.1-0.2-0.2c0,0,0-0.1,0.1-0.1c0.3,0,0.7,0.2,0.7,0.4c0,0.1-0.1,0.2-0.2,0.4c1.4,0.2,2.1,1,2.1,1.8L208.4,855.8z
		 M204.1,855.7c0,0.8,0.6,1.6,1.7,1.6c1.2,0,1.9-0.8,1.9-1.6s-0.6-1.6-1.9-1.6C204.7,854.1,204.1,854.9,204.1,855.7z M209,859
		c0-0.1-0.1-0.2-0.2-0.3c-0.1,0-0.1-0.1-0.1-0.2s0-0.1,0.1-0.1c0.2,0,0.8,0.2,0.8,0.4c0,0.1-0.1,0.2-0.2,0.3c1.3,0.2,2,1.1,2,1.9
		c0,1-0.8,1.9-2.4,1.9c-1.5,0-2.3-1-2.3-1.9s0.6-1.8,2-1.9C208.9,859.2,209,859.1,209,859z M207.4,861.1c0,0.7,0.6,1.5,1.7,1.5
		c1.1,0,1.7-0.7,1.7-1.5c0-0.7-0.6-1.5-1.7-1.5C208,859.6,207.4,860.3,207.4,861.1z M210.9,853.3c0-0.3-0.5-0.6-1-0.8
		c-0.1,0-0.3-0.1-0.3-0.2c0-0.1,0.3-0.1,0.4-0.1c0.3,0,1.2,0.2,1.4,0.3c0.3,0.1,0.4,0.2,0.4,0.3c0,0.1,0,0.2,0,0.4v3.7
		c0,1.6-0.1,1.8-0.3,2.2c-0.1,0.2-0.2,0.3-0.3,0.3s-0.2-0.3-0.2-0.7v-1.5c-0.4,0-0.8,0.1-1.2,0.1c-0.2,0-0.3,0.1-0.4,0.1
		c-0.2,0-1-0.4-1-0.5c0,0,0.1-0.1,0.2-0.1c0.1,0,0.5,0,0.6,0c0.6,0,1.2,0,1.8-0.1v-1.8c-0.5,0-0.9,0.1-1.1,0.1
		c-0.3,0-0.3,0.1-0.4,0.1c-0.2,0-1-0.3-1-0.5c0,0,0,0,0.1,0s0.1,0,0.3,0c0.3,0,0.5,0,0.7,0c0.6,0,0.8,0,1.5-0.1v-1.2H210.9z"/>
	<path d="M219.7,859.5c0-0.2-0.2-0.3-0.6-0.5c-0.1,0-0.2-0.1-0.2-0.1c0-0.1,0.1-0.1,0.3-0.1c1,0.1,1.2,0.2,1.2,0.3
		c0,0.1,0,0.2,0,0.3v2c0.5,0,1.1,0,2.4-0.1c0.8-0.1,0.7-0.3,1.2-0.3s1.4,0.1,1.4,0.5c0,0.1-0.2,0.3-0.5,0.3h-0.1
		c-1-0.1-2.3-0.1-3.5-0.1c-1.4,0-2.9,0.1-4.2,0.1c-0.5,0.1-0.6,0.3-0.8,0.3c-0.3,0-1.6-0.6-1.6-0.8c0,0,0.1-0.1,0.2-0.1h0.1
		c0.9,0.1,1.8,0.2,3.1,0.2c0.5,0,1,0,1.6,0L219.7,859.5L219.7,859.5z M216.9,854.4c0-0.2-0.5-0.4-1-0.6c-0.1,0-0.2-0.1-0.2-0.1
		c0-0.1,0.1-0.1,0.4-0.1c0.7,0,1.3,0.2,1.6,0.3h3.3c1.3-0.1,0.6-0.4,2-0.4h0.1c0.4,0,0.6,0.2,0.6,0.3c0,0.2-0.2,0.3-0.6,0.3
		c-1.9,0.1-4.1,0.1-5.2,0.1c-0.1,0.1-0.3,0-0.3,0.2v2.7c0,0.5,0,0.5,1.7,0.5c0.7,0,1.5,0,2.2,0c0.8,0,0.5-0.3,1.6-0.3
		c0.6,0,0.7,0.2,0.7,0.3c0,0.2-0.2,0.3-0.5,0.3c-0.6,0-2.6,0-4,0c-0.7,0-1.3,0-1.5,0c-0.4,0-0.9-0.3-0.9-0.9L216.9,854.4z"/>
	<path d="M233.1,854.1c-0.4,0.1-0.5,0.2-0.7,0.2c-0.3,0-1.2-0.4-1.2-0.6c0,0,0-0.1,0.1-0.1s0.2,0,0.3,0c0.5,0,1.1,0.1,1.7,0.1
		c0.6,0,1.2,0,1.8,0c0.3,0,0.3-0.1,0.7-0.1c0.3,0,0.8,0.1,0.8,0.2c0,0.1-0.2,0.2-0.3,0.4c-1.1,2-2.7,3.7-5.1,4.9
		c-0.2,0.1-0.3,0.2-0.4,0.2l0,0c0,0,0.1-0.2,0.3-0.3c1.7-1.1,3.7-3.4,4.3-4.8L233.1,854.1z M233.9,859.9c-0.1-0.3-0.3-0.4-0.7-0.5
		c-0.1,0-0.3-0.1-0.3-0.1s0.1-0.1,0.3-0.2c0.6,0,1.3,0.1,1.5,0.2l3.3-0.1c0.3,0,0.3-0.1,0.6-0.1c0.2,0,0.7,0,0.7,0.2
		c0,0.1-0.1,0.2-0.2,0.3c-0.2,0.9-0.5,2.1-0.6,2.5c0.4,0,0.6,0.2,0.6,0.3c0,0.1-0.1,0.2-0.4,0.2h-4.1c-0.1,0.5-0.3,0.8-0.4,0.8
		c-0.1,0-0.2-0.2-0.2-0.7L233.9,859.9z M234.7,860.3v2h2.7c0.4,0,0.4-0.1,0.7-0.2l0.1-2.6h-3.5c0,0-0.2,0.1-0.2,0.2v0.6H234.7z
		 M238.4,853.1c0-0.1-0.3-0.4-1-0.6c-0.2-0.1-0.3-0.1-0.3-0.2c0-0.1,0.1-0.1,0.4-0.1c0.6,0,0.9,0.2,1.3,0.3c0.3,0.1,0.4,0.2,0.4,0.3
		c0,0.1,0,0.2,0,0.3v3.2c0.2,0,0.3,0,0.5,0c0.6-0.1,0.3-0.3,1.2-0.3c0.2,0,0.7,0,0.7,0.3c0,0.1-0.1,0.3-0.3,0.3h-2.1
		c0,1.8-0.5,2-0.6,2s-0.2-0.1-0.2-0.5L238.4,853.1L238.4,853.1z"/>
	<path d="M242.4,859.7c1.1-1,2.8-3,3.4-5c0-0.2,0-0.3-0.6-0.8c-0.3-0.2-0.3-0.3,0-0.3c0.1,0,0.3,0,0.5,0.1c0.9,0.4,1.2,0.6,1.2,0.8
		c0,0.1-0.1,0.4-0.9,1.8c0.3,0.5,0.7,0.9,1.3,1.3c0.5,0.4,0.6,0.3,1,1.1c0.1,0.2,0.2,0.4,0.2,0.6c0,0.2-0.1,0.4-0.2,0.4
		c-0.1,0-0.2,0-0.3-0.1c-0.4-0.5-1.2-1.7-2.2-2.9c-1.3,1.9-3.2,3.4-3.5,3.4l0,0C242.2,859.9,242.3,859.8,242.4,859.7z M250.4,853.1
		c0-0.2-0.7-0.5-1.2-0.7c-0.1,0-0.2-0.1-0.2-0.2c0-0.1,0.1-0.1,0.5-0.1c0.5,0.1,1,0.2,1.4,0.3c0.3,0.1,0.3,0.2,0.3,0.3
		c0,0.1,0,0.2,0,0.4v4.4h0.6c0.6-0.1,0.4-0.3,1.1-0.3c0.2,0,0.7,0,0.7,0.4c0,0.2-0.1,0.3-0.4,0.3h-2.1v3.5c0,0.8-0.1,1.3-0.3,1.8
		c-0.1,0.1-0.2,0.2-0.3,0.2s-0.2-0.2-0.2-0.6v-9.7H250.4z"/>
</g>
<g>
	<path d="M175.9,625.6c0.2,0,0.2-0.1,0.5-0.1c0.6,0,0.8,0,0.8,0.2c0,0.1-0.2,0.3-0.3,0.4c-0.5,0.8-1.2,1.9-1.6,2.4
		c0.3,0.3,0.8,0.7,1,0.9c0.5,0.3,0.6,0.1,1.2,1c0.2,0.3,0.2,0.5,0.2,0.6c0,0.2-0.1,0.3-0.2,0.3c-0.1,0-0.2-0.1-0.4-0.2
		c-0.3-0.4-1-1.1-2.2-2.3c-1.4,1.6-3.6,3-4,3l0,0c0,0,0.1-0.1,0.3-0.3c1.5-1,3.7-3,4.8-5.5c-0.6,0-2.2,0.1-2.6,0.1
		c-0.3,0.1-0.4,0.2-0.5,0.2c-0.2,0-1.2-0.5-1.2-0.6c0,0,0-0.1,0.1-0.1s0.1,0,0.2,0c0.4,0,0.8,0.1,1.3,0.1
		C174.3,625.7,175.6,625.6,175.9,625.6z M178.9,624.2c0-0.2-0.7-0.5-1.2-0.7c-0.1,0-0.2-0.1-0.2-0.2c0-0.1,0.1-0.1,0.5-0.1
		c0.5,0.1,1,0.2,1.4,0.3c0.3,0.1,0.3,0.2,0.3,0.3c0,0.1,0,0.2,0,0.4v4.4h0.6c0.6-0.1,0.4-0.3,1.1-0.3c0.2,0,0.7,0,0.7,0.4
		c0,0.2-0.1,0.3-0.4,0.3h-2.1v3.5c0,0.8-0.1,1.3-0.3,1.8c-0.1,0.1-0.2,0.2-0.3,0.2s-0.2-0.2-0.2-0.6L178.9,624.2L178.9,624.2z"/>
	<path d="M183.2,629.3c2.2-1.5,3.4-3.6,3.4-3.8s-0.2-0.4-0.6-0.8c-0.2-0.1-0.3-0.2-0.3-0.2s0.1-0.1,0.2-0.1s0.1,0,0.2,0
		c0.3,0.1,1.5,0.6,1.5,0.9c0,0.2-0.3,0.5-0.7,1.3c0.4,0.4,0.6,0.6,0.9,0.9c0.7,0.5,0.6,0,1.5,1.2c0.1,0.1,0.1,0.3,0.1,0.3
		c0,0.2-0.1,0.3-0.3,0.3c-0.1,0-0.2,0-0.3-0.1c-0.6-0.6-1.7-1.8-2.2-2.4C185.5,628,184.6,628.7,183.2,629.3
		c-0.1,0.2-0.2,0.2-0.3,0.2h-0.1C182.9,629.5,183,629.4,183.2,629.3z M186.9,631.4c0-0.2-0.3-0.3-0.9-0.5c-0.1,0-0.2-0.1-0.2-0.1
		s0.1-0.1,0.4-0.2c0.6,0,1,0,1.3,0.1c0.2,0,0.3,0.1,0.3,0.2c0,0.1,0,0.2,0,0.3c0,0.5,0,1.2,0,1.7c0,0.3,0.2,0.4,0.6,0.4h2.2
		c0.9-0.1,0.5-0.3,1.5-0.3c0.4,0,0.9,0,0.9,0.4c0,0.1-0.1,0.3-0.3,0.3h-4.3c-0.8,0-1.2-0.2-1.3-0.8L186.9,631.4z M190.9,624.3
		c0-0.1-0.3-0.3-1-0.7c-0.2-0.1-0.3-0.1-0.3-0.2s0.1-0.1,0.4-0.1c0,0,1.7,0.2,1.7,0.6c0,0.1,0,0.2,0,0.3v3.8c0.2,0,0.4,0,0.5,0
		c0.6-0.1,0.3-0.3,1.2-0.3c0.2,0,0.7,0,0.7,0.3c0,0.2-0.1,0.3-0.3,0.3h-2.1c0,2.2-0.1,2.7-0.2,3c-0.1,0.2-0.2,0.4-0.3,0.4
		s-0.2-0.1-0.2-0.5v-6.9H190.9z"/>
	<path d="M200.6,627.6c0-0.2-0.2-0.2-0.7-0.4c-0.1,0-0.2-0.1-0.2-0.2c0,0,0.1-0.1,0.3-0.1c1.2,0,1.4,0.1,1.4,0.3c0,0.1,0,0.1,0,0.2
		c0,1,0,1.5,0,2c0.9-0.1,3.4-0.5,4.2-0.7v-4.3c0-0.3-0.6-0.5-1-0.7c-0.2-0.1-0.3-0.1-0.3-0.2c0-0.1,0.1-0.1,0.6-0.1
		c1.3,0.2,1.5,0.4,1.5,0.6c0,0.1,0,0.2,0,0.3v4.2h0.5c0.6-0.1,0.4-0.3,1.1-0.3c0.3,0,0.7,0,0.7,0.3c0,0.1-0.1,0.3-0.3,0.3h-2
		l-0.1,2.3c-0.1,0.6-0.3,1-0.5,1c-0.1,0-0.2-0.1-0.2-0.4V629c-1.5,0.4-3.2,0.8-5.3,1.2c-0.3,0.1-0.4,0.2-0.6,0.2s-1.6-0.6-1.6-0.8
		c0,0,0.1-0.1,0.2-0.1h0.1c0.4,0.1,0.8,0.1,1.2,0.1c0.4,0,0.8,0,1.1-0.1v-1.9H200.6z M202.7,625c0.2,0,0.6-0.1,0.8-0.1
		c0.6,0,0.7,0.1,0.7,0.2c0,0.1-0.2,0.2-0.2,0.4c-0.2,0.7-0.4,2.1-1,2.7c-0.1,0.1-0.2,0.1-0.2,0.1s0,0,0-0.1s0-0.1,0.1-0.2
		c0.2-0.7,0.5-2.2,0.5-2.7c-0.9,0-2.4,0.2-2.9,0.2c-0.4,0.1-0.4,0.3-0.6,0.3s-1.2-0.4-1.2-0.6c0,0,0.1-0.1,0.2-0.1s0.1,0,0.2,0
		c0.4,0,0.9,0.1,1.3,0.1C201,625.2,201.9,625.1,202.7,625z M201,631.8c0-0.3-0.3-0.4-1-0.5c-0.1,0-0.1-0.1-0.1-0.1
		c0-0.1,0.1-0.1,0.4-0.2c1.3,0,1.5,0.1,1.5,0.3c0,0.1,0,0.2,0,0.3v1.6c0,0.3,0.1,0.3,0.5,0.3h2.7c1.1-0.1,0.6-0.3,1.7-0.3
		c0.3,0,0.8,0,0.8,0.3c0,0.2-0.1,0.3-0.4,0.3h-4.8c-0.7,0-1.1-0.2-1.1-0.7v-1.3H201z"/>
	<path d="M218,624.4c0-0.2-0.4-0.5-1.1-0.8c-0.2-0.1-0.3-0.1-0.3-0.2c0-0.1,0.1-0.1,0.4-0.2c0.8,0.1,1.2,0.3,1.5,0.4
		c0.2,0.1,0.2,0.2,0.2,0.3s0,0.2,0,0.3v7.1c0,2.2-0.1,2.5-0.3,3c-0.1,0.1-0.2,0.2-0.2,0.2c-0.1,0-0.2-0.1-0.2-0.5v-3.8
		c-1.9,1-5.3,2-6.1,2c-0.3,0-0.6-0.5-0.6-0.9v-2.1c0-0.4-0.5-0.5-0.9-0.6c-0.2,0-0.2-0.1-0.2-0.2s0.1-0.2,0.4-0.2
		c0.6,0,1.2,0.1,1.5,0.2c0.6,0,1.3-0.1,1.8-0.1c0.3,0,0.4-0.1,0.6-0.2c0-0.6,0.1-1.5,0.1-2.3c-0.8,0-1.7,0.1-2.4,0.2
		c-0.3,0.1-0.4,0.2-0.5,0.2c-0.2,0-1.2-0.5-1.2-0.6c0,0,0-0.1,0.2-0.1h0.1c0.5,0.1,0.9,0.1,1.5,0.1s1.2,0,2-0.1
		c0.4,0,0.2-0.2,0.9-0.2c0.4,0,0.6,0.1,0.6,0.2c0,0.1-0.2,0.3-0.3,0.4c-0.1,0.5-0.4,1.6-0.5,2.1c0.4,0,0.6,0.2,0.6,0.3
		s-0.1,0.2-0.3,0.2c-0.9,0-2.1,0.1-2.9,0.2c-0.2,0.1-0.3,0-0.3,0.3v0.1c0,0.9,0,1.3,0,2.1c0,0.2,0.1,0.3,0.3,0.3h0.1
		c1.4-0.1,3.6-0.5,5.5-1.5L218,624.4L218,624.4z"/>
	<path d="M234.4,628.9c-0.6,0-1.4-0.1-2.2-0.1c-0.9,0-1.9,0-2.5,0c-0.8,0-3,0.2-3.5,0.2c-0.4,0-0.4,0.2-0.6,0.2
		c-0.3,0-1.5-0.5-1.5-0.7c0,0,0-0.1,0.2-0.1c0.1,0,0.1,0,0.2,0c0.3,0.1,1.1,0.1,2.1,0.1c1.7,0,4-0.1,5.9-0.2c0.6,0,0.5-0.2,1.2-0.2
		c0.6,0,1.2,0,1.2,0.4C234.8,628.8,234.6,628.9,234.4,628.9L234.4,628.9z M230.6,623.6c0.7-0.1,0.4-0.3,1.3-0.3c0.2,0,1,0,1,0.4
		c0,0,0,0.3-0.5,0.3c-1.7,0-4.3,0.1-5.1,0.1c-0.3,0.1-0.4,0.2-0.5,0.2s-1.3-0.4-1.3-0.7c0,0,0,0,0.1,0s0.2,0,0.3,0
		c0.6,0.1,1.3,0.1,2,0.1C228.1,623.8,230.3,623.7,230.6,623.6z M229,627.2c-0.4,0-1.2,0.1-1.6,0.1c-0.3,0.1-0.4,0.2-0.5,0.2
		c-0.2,0-1.2-0.5-1.2-0.6c0,0,0.1-0.1,0.2-0.1c0,0,0.1,0,0.2,0c0.5,0.1,1.2,0.1,1.8,0.1c0.7,0,1.5,0,2.1-0.1
		c0.3-0.8,0.5-1.8,0.5-1.8c0-0.2-0.1-0.3-0.3-0.4c-0.1,0-0.2-0.1-0.2-0.2c0-0.1,0.1-0.1,0.4-0.1c0,0,1.1,0.3,1.1,0.5
		c0,0.1-0.1,0.2-0.2,0.3c-0.3,0.5-0.7,1.2-1,1.6c0.2,0,0.4,0,0.6-0.1c0.5-0.1,0.2-0.3,1-0.3c0.3,0,0.9,0,0.9,0.4
		c0,0.2-0.2,0.3-0.5,0.3c-0.8,0-1.9,0-2.6,0L229,627.2z M226.9,632.4c0-0.1-0.3-0.2-0.6-0.3c-0.1,0-0.2-0.1-0.2-0.1
		c0-0.1,0.2-0.2,0.5-0.2c0.5,0,1.1,0.1,1.3,0.2c1.1,0,1.7,0,2.9-0.1c0.3,0,0.3-0.1,0.7-0.1c0-0.3,0-0.7,0.1-1.3
		c-0.8,0-2.4,0.1-3.5,0.1c-0.3,0.1-0.4,0.2-0.6,0.2s-1.2-0.4-1.2-0.5c0,0,0-0.1,0.2-0.1c0,0,0.1,0,0.2,0c0.4,0,1,0.1,1.7,0.1
		c0.9,0,2.1,0,3-0.1c0.2-0.1,0.2-0.1,0.4-0.1c0.8,0,0.8,0.1,0.8,0.2c0,0.1-0.1,0.2-0.2,0.3c-0.1,0.4-0.3,0.9-0.4,1.1
		c0.3,0.1,0.5,0.2,0.5,0.3c0,0.1-0.1,0.2-0.4,0.2c-0.9,0-2.7,0.1-3.9,0.1c-0.1,0.1-0.2,0-0.2,0.2v1c0,0.2,0.1,0.3,0.3,0.3
		c0.2,0,0.6,0,1,0c0.6,0,1.3,0,2,0c0.7-0.1,0.5-0.3,1.2-0.3c0.3,0,0.9,0,0.9,0.3c0,0.1-0.2,0.3-0.4,0.3h-4.7c-0.9,0-1.1-0.3-1.1-0.7
		v-1H226.9z M228.4,626.3c-0.1,0.3-0.2,0.5-0.4,0.5c-0.1,0-0.2-0.1-0.3-0.2c-0.1-0.4-0.3-1.1-0.5-1.5c-0.1-0.2-0.2-0.3-0.2-0.3l0,0
		c0.3,0,1.2,0.9,1.3,1.4v0.1H228.4z"/>
	<path d="M242.7,624.9c0-0.3-0.4-0.4-0.8-0.6c-0.1,0-0.2-0.1-0.2-0.2s0.1-0.1,0.4-0.1c1.2,0.2,1.4,0.3,1.4,0.5c0,0.1,0,0.2,0,0.3
		v2.7h1.5v-3c0-0.2-0.5-0.5-1-0.7c-0.1-0.1-0.3-0.1-0.3-0.2c0-0.1,0.1-0.1,0.4-0.1c1.3,0.3,1.5,0.5,1.5,0.6c0,0.1,0,0.2,0,0.3
		l-0.1,4.8c0,0.7-0.3,1.2-0.4,1.2s-0.2-0.2-0.2-0.6v-1.9h-1.5v1c-0.1,0.6-0.3,0.9-0.4,0.9s-0.2-0.2-0.2-0.5v-1
		c-1.3,0.8-3.6,1.6-4.2,1.6c-0.4,0-0.5-0.5-0.6-0.9v-1.3c0-0.2-0.2-0.3-0.7-0.5c-0.1,0-0.1-0.1-0.1-0.1s0.1-0.1,0.3-0.1
		c0.6,0,1,0.1,1.3,0.2c0.2,0,0.5,0,1.1-0.1c0.3,0,0.3-0.1,0.5-0.2c0-0.5,0.1-1.1,0.1-1.5c-0.7,0-1.3,0.1-1.7,0.1
		c-0.3,0-0.3,0.2-0.5,0.2s-1-0.3-1-0.5c0,0,0-0.1,0.2-0.1c0,0,0.1,0,0.2,0c0.3,0,0.5,0,0.8,0c0.5,0,1.1,0,1.6,0c0.3,0,0-0.1,0.9-0.1
		c0.4,0,0.5,0.1,0.5,0.1s-0.1,0.2-0.2,0.3c-0.1,0.5-0.2,0.9-0.3,1.4c0.3,0,0.4,0.1,0.4,0.2s-0.2,0.2-0.5,0.2c-0.4,0-1.4,0.1-1.9,0.1
		c-0.1,0.1-0.2,0-0.2,0.1c0,0.4,0,0.9,0,1.4c0,0.1,0.1,0.2,0.3,0.2c0.1,0,2-0.3,3.7-1.2L242.7,624.9L242.7,624.9z M242.4,630.6
		c0-0.2-0.3-0.4-0.6-0.6c-0.1-0.1-0.2-0.1-0.2-0.2s0.2-0.1,0.4-0.1c0.3,0,1.4,0.5,1.4,0.7c0,0.1-0.2,0.3-0.5,0.9
		c0.6,0.5,1.1,0.9,1.4,1.1c0.6,0.3,0.6,0,1.7,1.3c0.1,0.1,0.1,0.3,0.1,0.4s-0.1,0.2-0.2,0.2s-0.2,0-0.3-0.1
		c-0.6-0.5-2.1-1.9-2.9-2.5c-1.1,1.4-2.4,2.4-3.9,2.9c-0.1,0-0.2,0-0.2,0h-0.1c0,0,0.1-0.1,0.2-0.2c1.3-0.6,2.7-1.8,3.7-3.5
		C242.4,630.7,242.4,630.6,242.4,630.6z"/>
	<path d="M251.4,627.3c-0.3,0.1-0.4,0.2-0.5,0.2c-0.2,0-1.2-0.5-1.2-0.6c0,0,0.1-0.1,0.2-0.1h0.1c0.6,0.1,1.2,0.1,1.9,0.1
		c0.7,0,1.4,0,2-0.1c0.4-1.1,0.6-1.8,0.6-1.8c0-0.2-0.1-0.3-0.3-0.4c-0.1,0-0.2-0.1-0.2-0.2c0-0.1,0.1-0.1,0.4-0.1
		c0,0,1.1,0.3,1.1,0.5c0,0.1-0.1,0.2-0.2,0.3c-0.4,0.5-0.7,1.1-1,1.6c0.2,0,0.4,0,0.6-0.1c0.5-0.1,0.2-0.3,1.1-0.3
		c0.3,0,0.9,0,0.9,0.4c0,0.1-0.2,0.3-0.5,0.3c-0.8,0-1.9,0-2.6,0c0,0.6,0,1.1-0.1,1.5c1,0,1.9,0,2.7-0.1c0.5-0.1,0.5-0.2,1-0.2
		c0.3,0,1.3,0,1.3,0.4c0,0.2-0.2,0.3-0.5,0.3h-0.1c-0.6,0-1.7,0-3,0c-1.6,0-3.5,0-4.8,0.2c-0.4,0.1-0.5,0.2-0.7,0.2
		s-1.5-0.5-1.5-0.7c0,0,0-0.1,0.2-0.1c0,0,0.1,0,0.2,0c0.7,0.1,1.6,0.2,2.5,0.2c0.7,0,1.4,0,2.1-0.1c0-0.5-0.1-1-0.1-1.5
		C252.3,627.3,251.8,627.3,251.4,627.3z M254.8,623.8c0.7-0.1,0.4-0.3,1.3-0.3c0.1,0,1,0,1,0.4c0,0,0,0.3-0.5,0.3
		c-1.7,0-4.3,0.1-5.1,0.1c-0.3,0.1-0.4,0.2-0.5,0.2c-0.2,0-1.3-0.4-1.3-0.7c0,0,0-0.1,0.1-0.1s0.2,0,0.3,0c0.6,0.1,1.3,0.1,2,0.1
		C252.7,623.9,254.5,623.8,254.8,623.8z M250.3,630.7c-0.1,0-0.3-0.1-0.3-0.2c0-0.1,0.1-0.1,0.4-0.2c0.5,0,1,0.1,1.4,0.2
		c0.6,0,2.7-0.1,3.3-0.1c0.3-0.1,0-0.1,0.8-0.1c0.5,0,0.6,0.1,0.6,0.2c0,0.1-0.2,0.2-0.2,0.4c-0.2,0.8-0.4,1.9-0.5,2.3
		c0.4,0,0.5,0.2,0.5,0.3s-0.1,0.2-0.4,0.2c-0.8,0-3.3,0.1-4.1,0.1c-0.1,0.4-0.2,0.6-0.4,0.6c-0.1,0-0.2-0.1-0.2-0.5
		c0,0-0.2-2.4-0.2-2.8C250.9,630.9,250.5,630.8,250.3,630.7z M252.4,626.1c0,0.5-0.3,0.7-0.4,0.7s-0.2-0.1-0.3-0.3
		c-0.1-0.3-0.4-1.1-0.6-1.5c-0.1-0.1-0.1-0.3-0.1-0.3l0,0C251.2,624.6,252.3,625.5,252.4,626.1z M254.6,633.4c0.3,0,0.4-0.1,0.7-0.2
		c0-0.5,0.1-1.9,0.1-2.5c-0.6,0-2.7,0.1-3.6,0.1c-0.1,0.1-0.1,0.1-0.1,0.2l0.1,2.4H254.6z"/>
</g>
<g>
	<path d="M312.3,119.4c-0.4,0-1.1,0.1-1.4,0.1c-0.2,0-0.3,0.1-0.4,0.1s-0.2,0-0.6-0.2c-1.4,2.4-3.3,3.8-3.6,3.8l0,0
		c0,0,0.1-0.1,0.2-0.2c1-0.8,2.6-2.8,3.1-4.3c-0.6,0.2-1.1,0.3-1.8,0.5c-0.3,0.1-0.3,0.2-0.4,0.2c-0.2,0-1.3-0.5-1.3-0.7
		c0,0,0,0,0.1,0c0.1,0,0.1,0,0.2,0c0.2,0,0.3,0,0.5,0c0.8,0,2-0.2,2.8-0.3c0.1-0.2,0.5-1.2,0.5-1.8c-0.6,0-1.2,0.1-2,0.2
		c-0.2,0.1-0.2,0.2-0.4,0.2c-0.2,0-1.2-0.5-1.2-0.6c0,0,0-0.1,0.1-0.1c0.1,0,0.1,0,0.2,0c0.4,0.1,0.8,0.1,1.2,0.1
		c0.4,0,1.3,0,1.7-0.1c0.3,0,0-0.1,0.7-0.1c0.6,0,0.7,0.1,0.7,0.2s-0.2,0.3-0.3,0.5c-0.2,0.8-0.5,1.6-1,2.3c0.1,0,0.3,0,0.6,0
		c0.5,0,1.1,0,1.7-0.1v-3.5c0-0.3-0.4-0.4-0.9-0.6c-0.2,0-0.2-0.1-0.2-0.2c0,0,0.1-0.1,0.4-0.1c1.3,0.2,1.5,0.4,1.5,0.6
		c0,0.1,0,0.2,0,0.3v7.7c0,0.8-0.3,1.2-0.5,1.2c-0.1,0-0.2-0.2-0.2-0.5V119.4z M314.4,115c0-0.3-0.5-0.5-0.9-0.8
		c-0.1-0.1-0.2-0.1-0.2-0.2c0,0,0.1-0.1,0.3-0.1h0.1c1.3,0.3,1.5,0.4,1.5,0.6c0,0.1,0,0.2,0,0.3l-0.1,8.7c-0.1,0.9-0.3,1.3-0.5,1.3
		c-0.1,0-0.2-0.2-0.2-0.6C314.4,124.2,314.4,115,314.4,115z"/>
	<path d="M323.4,118.9c-0.1,1.2-1,2-2.5,2c-1.8,0-2.8-1.1-2.8-2.3c0-1,0.7-2,2.3-2.2c0.2,0,0.4-0.1,0.4-0.3c0-0.1,0-0.2-0.1-0.2
		c-0.1-0.1-0.1-0.1-0.1-0.2c0,0,0-0.1,0.1-0.1c0.3,0,0.8,0.3,0.8,0.5c0,0.1-0.1,0.2-0.2,0.3c1.5,0.3,2.1,1.1,2.2,2.2L323.4,118.9z
		 M318.9,118.7c0,0.9,0.7,1.8,2,1.8c1.2,0,1.9-0.9,1.9-1.8s-0.6-1.8-1.9-1.8C319.5,116.9,318.9,117.8,318.9,118.7z M326,115
		c0-0.2-0.4-0.5-1.1-0.8c-0.2-0.1-0.3-0.1-0.3-0.2s0.1-0.1,0.4-0.2c0.8,0.1,1.2,0.3,1.5,0.4c0.2,0.1,0.2,0.2,0.2,0.3
		c0,0.1,0,0.2,0,0.3v7.1c0,2.2-0.1,2.5-0.3,3c-0.1,0.1-0.2,0.2-0.2,0.2c-0.1,0-0.2-0.1-0.2-0.5V115z"/>
	<path d="M336.5,115.6c0-0.3-0.4-0.5-0.8-0.7c-0.2-0.1-0.3-0.1-0.3-0.2c0,0,0.1-0.1,0.3-0.1c0.5,0,0.9,0.2,1.2,0.3
		c0.3,0.1,0.4,0.1,0.4,0.3c0,0.1,0,0.3,0,0.5v3c0,2.4-0.1,3.1-0.3,3.4c-0.1,0.3-0.2,0.4-0.3,0.4c-0.1,0-0.1-0.1-0.1-0.4v-3.8
		l-0.6,0.1c-0.4,0-0.4,0.1-0.6,0.1c-0.1,0-0.3-0.1-0.6-0.2c-0.1,0.6-0.2,1.1-0.2,1.4c0.3,0.1,0.5,0.2,0.5,0.3c0,0.1-0.2,0.1-0.5,0.2
		c-0.6,0-2.1,0-2.7,0.1c0,0.4-0.2,0.6-0.3,0.6s-0.1-0.3-0.2-1l-0.2-2.7c-0.1-0.2-0.3-0.4-0.8-0.5c-0.1,0-0.1,0-0.1-0.1
		c0,0,0.1-0.1,0.4-0.2c0.4,0,0.9,0.1,1.3,0.2c0.9,0,1.2,0,2.2-0.1c0.3,0,0.1-0.1,0.8-0.1c0.4,0,0.5,0.1,0.5,0.1
		c0,0.1-0.2,0.3-0.3,0.4c0,0.3-0.1,0.6-0.2,1c0.3,0,0.5,0,0.7,0c0.3,0,0.6,0,1-0.1v-2.2H336.5z M332,116.8c-0.1,0-0.2,0-0.2,0.2
		l0.1,2.7c0.4,0,1.8,0,2.2-0.2c0-0.7,0.1-1.9,0.1-2.9L332,116.8z M333.6,122.2c0-0.1-0.2-0.3-0.9-0.5c-0.2,0-0.3-0.1-0.3-0.1
		c0-0.2,0.4-0.2,0.7-0.2c0.1,0,0.7,0,0.8,0c0.4,0,0.5,0.1,0.5,0.3c0,0.1,0,0.2,0,0.3v1.4c0,0.4,0.1,0.5,0.6,0.5h1.5
		c2.4,0,1.4-0.4,2.5-0.4c0.4,0,0.9,0,0.9,0.4c0,0.2-0.2,0.3-0.5,0.3h-4.7c-0.5,0-1.1-0.2-1.1-0.8V122.2z M338.4,115
		c0-0.2-0.4-0.5-1-0.8c-0.2-0.1-0.3-0.1-0.3-0.2s0.1-0.1,0.5-0.1c0.6,0.1,0.9,0.2,1.2,0.3c0.4,0.1,0.4,0.2,0.4,0.3
		c0,0.1,0,0.2,0,0.3v5.3c0,1,0,1.7-0.2,2.2c-0.1,0.3-0.2,0.4-0.3,0.4c-0.1,0-0.2-0.2-0.2-0.6V115H338.4z"/>
	<path d="M348.1,115.8c-0.4,0.1-0.5,0.2-0.7,0.2c-0.3,0-1.2-0.4-1.2-0.6c0,0,0-0.1,0.1-0.1s0.2,0,0.3,0c0.5,0,1.1,0.1,1.7,0.1
		s1.2,0,1.8,0c0.3,0,0.3-0.1,0.7-0.1c0.3,0,0.8,0.1,0.8,0.2s-0.2,0.2-0.3,0.4c-1.1,2-2.7,3.7-5.1,4.9c-0.2,0.1-0.3,0.2-0.4,0.2l0,0
		c0,0,0.1-0.2,0.3-0.3c1.7-1.1,3.7-3.4,4.3-4.8L348.1,115.8z M349,121.6c-0.1-0.3-0.3-0.4-0.7-0.5c-0.1,0-0.3-0.1-0.3-0.1
		s0.1-0.1,0.3-0.2c0.6,0,1.3,0.1,1.5,0.2l3.3-0.1c0.3,0,0.3-0.1,0.6-0.1c0.2,0,0.7,0,0.7,0.2c0,0.1-0.1,0.2-0.2,0.3
		c-0.2,0.9-0.5,2.1-0.6,2.5c0.4,0,0.6,0.2,0.6,0.3c0,0.1-0.1,0.2-0.4,0.2h-4.1c-0.1,0.5-0.3,0.8-0.4,0.8s-0.2-0.2-0.2-0.7L349,121.6
		z M349.7,122v2h2.7c0.4,0,0.4-0.1,0.7-0.2l0.1-2.6h-3.5c0,0-0.2,0.1-0.2,0.2v0.6H349.7z M353.5,114.8c0-0.1-0.3-0.4-1-0.6
		c-0.2-0.1-0.3-0.1-0.3-0.2s0.1-0.1,0.4-0.1c0.6,0,0.9,0.2,1.3,0.3c0.3,0.1,0.4,0.2,0.4,0.3c0,0.1,0,0.2,0,0.3v3.2
		c0.2,0,0.3,0,0.5,0c0.6-0.1,0.3-0.3,1.2-0.3c0.2,0,0.7,0,0.7,0.3c0,0.1-0.1,0.3-0.3,0.3h-2.1c0,1.8-0.5,2-0.6,2
		c-0.1,0-0.2-0.1-0.2-0.5C353.5,119.8,353.5,114.8,353.5,114.8z"/>
	<path d="M359.9,115.2c0-0.3-0.4-0.4-0.9-0.6c-0.1,0-0.2-0.1-0.2-0.1c0-0.1,0.1-0.1,0.3-0.1c0.6,0,1.2,0.1,1.5,0.3
		c0.9,0,2,0,3.2-0.1c0.9-0.1,0.5-0.3,1.5-0.3c0.3,0,0.9,0,0.9,0.3c0,0.1-0.2,0.3-0.6,0.3c-1.3,0.1-3.7,0.1-4.9,0.1
		c-0.1,0.1-0.1,0-0.1,0.2c0,0.5,0,1.3,0,1.9c0,0.4,0.1,0.4,1.3,0.4c0.6,0,1.3,0,2.3-0.1c0.7-0.1,0.3-0.3,1.4-0.3
		c0.4,0,0.6,0.2,0.6,0.3s-0.2,0.3-0.5,0.3c-0.1,0-2.2,0.1-2.5,0.1c0,0.6,0,1.1-0.1,1.6c1,0,1.9,0,2.7-0.1c0.5-0.1,0.5-0.2,1-0.2
		c0.3,0,1.3,0,1.3,0.4c0,0.2-0.2,0.3-0.5,0.3h-0.1c-0.6,0-1.7,0-3,0c-1.6,0-3.5,0-4.8,0.2c-0.4,0.1-0.5,0.2-0.7,0.2
		s-1.5-0.5-1.5-0.7c0,0,0-0.1,0.2-0.1c0,0,0.1,0,0.2,0c0.7,0.1,1.6,0.2,2.5,0.2c0.7,0,1.4,0,2.1-0.1c0-0.5-0.1-1-0.1-1.6h-1.5
		c-0.9,0-1.2-0.3-1.2-0.8L359.9,115.2z M365.2,121.4c-0.7,0-2.7,0.1-4,0.2c-0.4,0-0.5,0.2-0.8,0.2s-1.2-0.5-1.2-0.6
		c0,0,0-0.1,0.2-0.1c0,0,0.1,0,0.2,0c0.4,0.1,1.1,0.1,1.8,0.1c1.1,0,2.4-0.1,3.4-0.1c0.3,0,0.3-0.1,0.6-0.1h0.2
		c0.5,0,0.6,0.1,0.6,0.2s-0.1,0.2-0.1,0.4c0,1.6,0,2.3-0.2,3c-0.1,0.3-0.3,0.5-0.4,0.5c-0.1,0-0.2-0.1-0.2-0.4v-3.3H365.2z"/>
	<path d="M376.6,118.2c0-0.2-0.2-0.2-0.7-0.4c-0.1,0-0.2-0.1-0.2-0.2c0,0,0.1-0.1,0.3-0.1c1.2,0,1.4,0.1,1.4,0.3c0,0.1,0,0.1,0,0.2
		c0,1,0,1.5,0,2c0.9-0.1,3.4-0.5,4.2-0.7V115c0-0.3-0.6-0.5-1-0.7c-0.2-0.1-0.3-0.1-0.3-0.2s0.1-0.1,0.6-0.1
		c1.3,0.2,1.5,0.4,1.5,0.6c0,0.1,0,0.2,0,0.3v4.2h0.5c0.6-0.1,0.4-0.3,1.1-0.3c0.3,0,0.7,0,0.7,0.3c0,0.1-0.1,0.3-0.3,0.3h-2
		l-0.1,2.3c-0.1,0.6-0.3,1-0.5,1c-0.1,0-0.2-0.1-0.2-0.4v-2.7c-1.5,0.4-3.2,0.8-5.3,1.2c-0.3,0.1-0.4,0.2-0.6,0.2
		c-0.2,0-1.6-0.6-1.6-0.8c0,0,0.1-0.1,0.2-0.1h0.1c0.4,0.1,0.8,0.1,1.2,0.1c0.4,0,0.8,0,1.1-0.1L376.6,118.2L376.6,118.2z
		 M378.8,115.6c0.2,0,0.6-0.1,0.8-0.1c0.6,0,0.7,0.1,0.7,0.2s-0.2,0.2-0.2,0.4c-0.2,0.7-0.4,2.1-1,2.7c-0.1,0.1-0.2,0.1-0.2,0.1
		s0,0,0-0.1s0-0.1,0.1-0.2c0.2-0.7,0.5-2.2,0.5-2.7c-0.9,0-2.4,0.2-2.9,0.2c-0.4,0.1-0.4,0.3-0.6,0.3c-0.2,0-1.2-0.4-1.2-0.6
		c0,0,0.1-0.1,0.2-0.1s0.1,0,0.2,0c0.4,0,0.9,0.1,1.3,0.1C377,115.8,377.9,115.7,378.8,115.6z M377.1,122.4c0-0.3-0.3-0.4-1-0.5
		c-0.1,0-0.1-0.1-0.1-0.1c0-0.1,0.1-0.1,0.4-0.2c1.3,0,1.5,0.1,1.5,0.3c0,0.1,0,0.2,0,0.3v1.6c0,0.3,0.1,0.3,0.5,0.3h2.7
		c1.1-0.1,0.6-0.3,1.7-0.3c0.3,0,0.8,0,0.8,0.3c0,0.2-0.1,0.3-0.4,0.3h-4.8c-0.7,0-1.1-0.2-1.1-0.7v-1.3H377.1z"/>
	<path d="M394,115c0-0.2-0.4-0.5-1.1-0.8c-0.2-0.1-0.3-0.1-0.3-0.2s0.1-0.1,0.4-0.2c0.8,0.1,1.2,0.3,1.5,0.4
		c0.2,0.1,0.2,0.2,0.2,0.3c0,0.1,0,0.2,0,0.3v7.1c0,2.2-0.1,2.5-0.3,3c-0.1,0.1-0.2,0.2-0.2,0.2c-0.1,0-0.2-0.1-0.2-0.5v-3.8
		c-1.9,1-5.3,2-6.1,2c-0.3,0-0.6-0.5-0.6-0.9v-2.1c0-0.4-0.5-0.5-0.9-0.6c-0.2,0-0.2-0.1-0.2-0.2s0.1-0.2,0.4-0.2
		c0.6,0,1.2,0.1,1.5,0.2c0.6,0,1.3-0.1,1.8-0.1c0.3,0,0.4-0.1,0.6-0.2c0-0.6,0.1-1.5,0.1-2.3c-0.8,0-1.7,0.1-2.4,0.2
		c-0.3,0.1-0.4,0.2-0.5,0.2c-0.2,0-1.2-0.5-1.2-0.6c0,0,0-0.1,0.2-0.1h0.1c0.5,0.1,0.9,0.1,1.5,0.1c0.6,0,1.2,0,2-0.1
		c0.4,0,0.2-0.2,0.9-0.2c0.4,0,0.6,0.1,0.6,0.2s-0.2,0.3-0.3,0.4c-0.1,0.5-0.4,1.6-0.5,2.1c0.4,0,0.6,0.2,0.6,0.3
		c0,0.1-0.1,0.2-0.3,0.2c-0.9,0-2.1,0.1-2.9,0.2c-0.2,0.1-0.3,0-0.3,0.3v0.1c0,0.9,0,1.3,0,2.1c0,0.2,0.1,0.3,0.3,0.3h0.1
		c1.4-0.1,3.6-0.5,5.5-1.5C394,120.6,394,115,394,115z"/>
	<path d="M316.2,130.9c-0.1-0.3-0.6-0.4-0.9-0.5c-0.2,0-0.2-0.1-0.2-0.1c0-0.1,0.1-0.1,0.4-0.2c0.5,0,0.9,0.1,1.4,0.2
		c0.2,0.1,0.3,0.1,0.3,0.2s0,0.2,0,0.4v1.1l4-0.1v-1.6c0-0.2-0.3-0.4-0.8-0.6c-0.1,0-0.2-0.1-0.2-0.1c0-0.1,0.1-0.1,0.4-0.1
		c0.4,0,0.8,0.1,1.3,0.3c0.2,0.1,0.2,0.1,0.2,0.2s0,0.2-0.1,0.3v3.5c-0.1,0.6-0.1,1.1-0.3,1.4c-0.1,0.1-0.2,0.1-0.2,0.1
		c-0.1,0-0.2-0.1-0.2-0.4l-1.9,0.1c0.4,0.1,0.5,0.1,0.5,0.3c0,0.1,0,0.2,0,0.3v2c0.5,0,1.1,0,2.4-0.1c0.8-0.1,0.7-0.3,1.2-0.3
		s1.4,0.1,1.4,0.5c0,0.1-0.2,0.3-0.5,0.3h-0.1c-1-0.1-2.3-0.1-3.5-0.1c-1.4,0-2.9,0.1-4.2,0.1c-0.5,0.1-0.6,0.3-0.8,0.3
		c-0.3,0-1.6-0.6-1.6-0.8c0,0,0.1-0.1,0.2-0.1h0.1c0.9,0.1,1.8,0.2,3.1,0.2c0.5,0,1,0,1.6,0v-1.8c0-0.2-0.2-0.3-0.6-0.5
		c-0.1,0-0.2-0.1-0.2-0.1h-1c-0.2,0.5-0.3,0.7-0.4,0.7c-0.2,0-0.2-0.2-0.2-0.6L316.2,130.9z M317,132.3v2.3l4-0.1v-2.3L317,132.3z"
		/>
	<path d="M329.4,135.4c-1.2-0.1-1.9-0.9-1.9-1.7c0-0.7,0.6-1.5,1.8-1.7c0.1-0.1,0.1-0.2,0.1-0.3c0-0.1-0.1-0.3-0.2-0.4
		c-0.4,0-0.9,0-1.4,0.1c-0.3,0-0.3,0.2-0.5,0.2c-0.2,0-1.1-0.5-1.1-0.6c0,0,0-0.1,0.1-0.1c0,0,0.1,0,0.2,0c0.5,0.1,1.1,0.1,1.8,0.1
		c0.7,0,1.5,0,2.2-0.1h0.1c0.7-0.1,0.5-0.4,1.3-0.4c0.3,0,0.8,0,0.8,0.3c0,0.1-0.2,0.3-0.5,0.3c-0.5,0-1.7,0.1-2.6,0.1
		c0.1,0.2,0.3,0.3,0.3,0.4l0,0c0,0.2-0.1,0.2-0.1,0.3l0,0c1.2,0.2,1.8,0.9,1.8,1.7c0,0.8-0.6,1.5-1.7,1.6v1.1
		c0.7-0.1,2.5-0.3,3.5-0.7v-6.5c0-0.2-0.5-0.5-1.1-0.7c-0.2-0.1-0.3-0.1-0.3-0.2s0.1-0.1,0.4-0.2c0.6,0,1.1,0.2,1.5,0.3
		c0.2,0.1,0.3,0.2,0.3,0.3c0,0.1,0,0.2,0,0.3v4.9c0.2,0,0.4,0,0.6,0c0.3-0.1,0.2-0.3,1.2-0.3c0.4,0,0.5,0.2,0.5,0.4
		c0,0.1-0.1,0.3-0.3,0.3c-0.5,0-1.7,0.1-2,0.1v2.2c0,1.1,0,1.8-0.2,2.5c-0.1,0.2-0.2,0.4-0.3,0.4c-0.1,0-0.2-0.1-0.2-0.5V136
		c-1.5,0.6-3.8,1-5.4,1.4c-0.2,0.1-0.3,0.2-0.4,0.2c-0.3,0-1.7-0.6-1.7-0.9c0,0,0-0.1,0.1-0.1c0.1,0,0.1,0,0.2,0
		c0.3,0.1,0.6,0.1,0.9,0.1c0.7,0,1.5-0.1,2.1-0.2v-1.1H329.4z M329,130.1c-0.5,0-1-0.7-1-0.8c0,0,0-0.1,0.1-0.1c0,0,0.1,0,0.3,0
		c0.4,0.1,1.2,0.2,2.2,0.2c0.4,0,0.6,0.2,0.6,0.3c0,0.2-0.4,0.2-1,0.2H329V130.1z M328.2,133.7c0,0.6,0.5,1.2,1.5,1.2
		c0.9,0,1.4-0.6,1.4-1.2s-0.5-1.2-1.4-1.2C328.7,132.4,328.2,133.1,328.2,133.7z"/>
	<path d="M343.4,132c-0.1,1.2-1,2-2.5,2c-1.6,0-2.4-1.1-2.4-2.1c0-0.9,0.6-1.8,2-2h0.1c0.2,0,0.3-0.1,0.3-0.3c0-0.1,0-0.1,0-0.2
		c-0.1-0.1-0.2-0.1-0.2-0.2c0,0,0-0.1,0.1-0.1c0.3,0,0.7,0.2,0.7,0.4c0,0.1-0.1,0.2-0.2,0.4c1.4,0.2,2.1,1,2.1,1.8V132z
		 M339.2,131.9c0,0.8,0.6,1.6,1.7,1.6c1.2,0,1.9-0.8,1.9-1.6s-0.6-1.6-1.9-1.6C339.7,130.3,339.2,131.1,339.2,131.9z M344,135.2
		c0-0.1-0.1-0.2-0.2-0.3c-0.1,0-0.1-0.1-0.1-0.2s0-0.1,0.1-0.1c0.2,0,0.8,0.2,0.8,0.4c0,0.1-0.1,0.2-0.2,0.3c1.3,0.2,2,1.1,2,1.9
		c0,1-0.8,1.9-2.4,1.9c-1.5,0-2.3-1-2.3-1.9s0.6-1.8,2-1.9C344,135.4,344,135.3,344,135.2z M342.5,137.2c0,0.7,0.6,1.5,1.7,1.5
		c1.1,0,1.7-0.7,1.7-1.5c0-0.7-0.6-1.5-1.7-1.5C343,135.8,342.5,136.5,342.5,137.2z M346,129.4c0-0.3-0.5-0.6-1-0.8
		c-0.1,0-0.3-0.1-0.3-0.2s0.3-0.1,0.4-0.1c0.3,0,1.2,0.2,1.4,0.3c0.3,0.1,0.4,0.2,0.4,0.3c0,0.1,0,0.2,0,0.4v3.7
		c0,1.6-0.1,1.8-0.3,2.2c-0.1,0.2-0.2,0.3-0.3,0.3c-0.1,0-0.2-0.3-0.2-0.7v-1.5c-0.4,0-0.8,0.1-1.2,0.1c-0.2,0-0.3,0.1-0.4,0.1
		c-0.2,0-1-0.4-1-0.5c0,0,0.1-0.1,0.2-0.1c0.1,0,0.5,0,0.6,0c0.6,0,1.2,0,1.8-0.1V131c-0.5,0-0.9,0.1-1.1,0.1
		c-0.3,0-0.3,0.1-0.4,0.1c-0.2,0-1-0.3-1-0.5c0,0,0,0,0.1,0c0.1,0,0.1,0,0.3,0c0.3,0,0.5,0,0.7,0c0.6,0,0.8,0,1.5-0.1v-1.2H346z"/>
	<path d="M354.7,135.6c0-0.2-0.2-0.3-0.6-0.5c-0.1,0-0.2-0.1-0.2-0.1c0-0.1,0.1-0.1,0.3-0.1c1,0.1,1.2,0.2,1.2,0.3
		c0,0.1,0,0.2,0,0.3v2c0.5,0,1.1,0,2.4-0.1c0.8-0.1,0.7-0.3,1.2-0.3s1.4,0.1,1.4,0.5c0,0.1-0.2,0.3-0.5,0.3h-0.1
		c-1-0.1-2.3-0.1-3.5-0.1c-1.4,0-2.9,0.1-4.2,0.1c-0.5,0.1-0.6,0.3-0.8,0.3c-0.3,0-1.6-0.6-1.6-0.8c0,0,0.1-0.1,0.2-0.1h0.1
		c0.9,0.1,1.8,0.2,3.1,0.2c0.5,0,1,0,1.6,0C354.7,137.5,354.7,135.6,354.7,135.6z M351.9,130.6c0-0.2-0.5-0.4-1-0.6
		c-0.1,0-0.2-0.1-0.2-0.1c0-0.1,0.1-0.1,0.4-0.1c0.7,0,1.3,0.2,1.6,0.3h3.3c1.3-0.1,0.6-0.4,2-0.4h0.1c0.4,0,0.6,0.2,0.6,0.3
		c0,0.2-0.2,0.3-0.6,0.3c-1.9,0.1-4.1,0.1-5.2,0.1c-0.1,0.1-0.3,0-0.3,0.2v2.7c0,0.5,0,0.5,1.7,0.5c0.7,0,1.5,0,2.2,0
		c0.8,0,0.5-0.3,1.6-0.3c0.6,0,0.7,0.2,0.7,0.3c0,0.2-0.2,0.3-0.5,0.3c-0.6,0-2.6,0-4,0c-0.7,0-1.3,0-1.5,0c-0.4,0-0.9-0.3-0.9-0.9
		V130.6z"/>
	<path d="M368.1,130.2c-0.4,0.1-0.5,0.2-0.7,0.2c-0.3,0-1.2-0.4-1.2-0.6c0,0,0-0.1,0.1-0.1c0.1,0,0.2,0,0.3,0c0.5,0,1.1,0.1,1.7,0.1
		c0.6,0,1.2,0,1.8,0c0.3,0,0.3-0.1,0.7-0.1c0.3,0,0.8,0.1,0.8,0.2s-0.2,0.2-0.3,0.4c-1.1,2-2.7,3.7-5.1,4.9
		c-0.2,0.1-0.3,0.2-0.4,0.2l0,0c0,0,0.1-0.2,0.3-0.3c1.7-1.1,3.7-3.4,4.3-4.8L368.1,130.2z M369,136c-0.1-0.3-0.3-0.4-0.7-0.5
		c-0.1,0-0.3-0.1-0.3-0.1s0.1-0.1,0.3-0.2c0.6,0,1.3,0.1,1.5,0.2l3.3-0.1c0.3,0,0.3-0.1,0.6-0.1c0.2,0,0.7,0,0.7,0.2
		c0,0.1-0.1,0.2-0.2,0.3c-0.2,0.9-0.5,2.1-0.6,2.5c0.4,0,0.6,0.2,0.6,0.3c0,0.1-0.1,0.2-0.4,0.2h-4.1c-0.1,0.5-0.3,0.8-0.4,0.8
		c-0.1,0-0.2-0.2-0.2-0.7L369,136z M369.7,136.4v2h2.7c0.4,0,0.4-0.1,0.7-0.2l0.1-2.6h-3.5c0,0-0.2,0.1-0.2,0.2v0.6H369.7z
		 M373.5,129.2c0-0.1-0.3-0.4-1-0.6c-0.2-0.1-0.3-0.1-0.3-0.2s0.1-0.1,0.4-0.1c0.6,0,0.9,0.2,1.3,0.3c0.3,0.1,0.4,0.2,0.4,0.3
		c0,0.1,0,0.2,0,0.3v3.2c0.2,0,0.3,0,0.5,0c0.6-0.1,0.3-0.3,1.2-0.3c0.2,0,0.7,0,0.7,0.3c0,0.1-0.1,0.3-0.3,0.3h-2.1
		c0,1.8-0.5,2-0.6,2c-0.1,0-0.2-0.1-0.2-0.5V129.2z"/>
	<path d="M377.5,135.8c1.1-1,2.8-3,3.4-5c0-0.2,0-0.3-0.6-0.8c-0.3-0.2-0.3-0.3,0-0.3c0.1,0,0.3,0,0.5,0.1c0.9,0.4,1.2,0.6,1.2,0.8
		c0,0.1-0.1,0.4-0.9,1.8c0.3,0.5,0.7,0.9,1.3,1.3c0.5,0.4,0.6,0.3,1,1.1c0.1,0.2,0.2,0.4,0.2,0.6s-0.1,0.4-0.2,0.4s-0.2,0-0.3-0.1
		c-0.4-0.5-1.2-1.7-2.2-2.9c-1.3,1.9-3.2,3.4-3.5,3.4l0,0C377.3,136,377.3,135.9,377.5,135.8z M385.5,129.2c0-0.2-0.7-0.5-1.2-0.7
		c-0.1,0-0.2-0.1-0.2-0.2s0.1-0.1,0.5-0.1c0.5,0.1,1,0.2,1.4,0.3c0.3,0.1,0.3,0.2,0.3,0.3c0,0.1,0,0.2,0,0.4v4.4h0.6
		c0.6-0.1,0.4-0.3,1.1-0.3c0.2,0,0.7,0,0.7,0.4c0,0.2-0.1,0.3-0.4,0.3h-2.1v3.5c0,0.8-0.1,1.3-0.3,1.8c-0.1,0.1-0.2,0.2-0.3,0.2
		s-0.2-0.2-0.2-0.6v-9.7H385.5z"/>
</g>
</svg>
