<?xml version="1.0" encoding="utf-8"?>
<!-- Generator: Adobe Illustrator 22.1.0, SVG Export Plug-In . SVG Version: 6.00 Build 0)  -->
<svg version="1.1" id="强大的法律保障" xmlns="http://www.w3.org/2000/svg" xmlns:xlink="http://www.w3.org/1999/xlink"
	 x="0px" y="0px" viewBox="0 0 421 888" style="enable-background:new 0 0 421 888;" xml:space="preserve">
<style type="text/css">
	.st0{fill:#010101;}
	.st1{fill:#70DBCB;}
	.st2{fill:none;stroke:#70DBCB;}
	.st3{fill:#58595B;}
	.st4{fill:#F5F5F5;}
	.st5{fill:#FCFCFC;}
	.st6{enable-background:new    ;}
	.st7{fill:#17161F;}
	.st8{fill:#F2F2F2;}
	.st9{fill:#E6E7E8;}
	.st10{fill:#FFFFFF;}
</style>
<rect id="矩形_47" x="215" y="658" class="st0" width="1" height="70"/>
<rect id="矩形_47_拷贝" x="250" y="795.7" class="st0" width="89.9" height="1"/>
<g id="组_27">
	<rect id="矩形_48" x="215.2" y="426.8" class="st1" width="1.2" height="77.3"/>
	<path id="形状_2" class="st2" d="M221.3,504v-72.3l146-65.5"/>
	<path id="形状_2_拷贝_2" class="st2" d="M215.3,499v-72.3l146-65.5"/>
	<path id="形状_2_拷贝" class="st2" d="M209,504v-72.3L63,367.9"/>
	<path id="形状_2_拷贝_3" class="st2" d="M215,500v-72.3L69,363.9"/>
</g>
<ellipse id="椭圆_12" class="st3" cx="349.5" cy="796.2" rx="16.6" ry="16.6"/>
<path id="圆角矩形_1_拷贝" class="st4" d="M173.8,809.9l39-10c1.7-0.4,3.4-0.3,5,0.1l32.8,10.6c1.4,0.5,1.6,1.2,0.4,1.7
	l-34.2,12.5c-2,0.6-4.1,0.7-6.1,0.1L173,811.8C171.5,811.3,171.9,810.4,173.8,809.9z"/>
<path id="圆角矩形_1" class="st5" d="M174.6,789.1l39-10c1.7-0.4,3.4-0.3,5,0.1l32.8,10.6c1.4,0.5,1.6,1.2,0.4,1.7L217.7,804
	c-2,0.6-4.1,0.7-6.1,0.1L173.9,791C172.3,790.4,172.7,789.6,174.6,789.1z"/>
<g class="st6">
	<path class="st7" d="M176.4,840.9v6.2h5.6v1h-5.6v7h-1V840h7.1v1h-6.1V840.9z"/>
	<path class="st7" d="M195.5,854.5c-1.2,0.5-2.5,0.8-3.8,0.8c-2.1,0-3.8-0.7-5.1-2.1s-2-3.2-2-5.4c0-2.5,0.7-4.4,2.1-5.9
		c1.4-1.5,3.2-2.2,5.4-2.2c1.2,0,2.3,0.2,3.3,0.6v1.1c-1.1-0.5-2.2-0.7-3.4-0.7c-1.9,0-3.4,0.6-4.6,1.9c-1.2,1.3-1.8,3-1.8,5.1
		s0.6,3.7,1.7,4.9c1.1,1.2,2.6,1.8,4.3,1.8c1.4,0,2.6-0.3,3.7-0.8v0.9H195.5z"/>
	<path class="st7" d="M208.7,855l-1.7-4.7h-6.6l-1.7,4.7h-1.1l5.7-15.1h1l5.6,15.1H208.7z M204.1,842.4c-0.1-0.2-0.1-0.4-0.2-0.6
		c-0.1-0.2-0.1-0.4-0.2-0.5l0,0c-0.1,0.5-0.2,0.8-0.3,1.1l-2.6,7h5.8L204.1,842.4z"/>
	<path class="st7" d="M211.1,855.8h2.3v-6.3h14.1v6.3h2.3v1H211L211.1,855.8L211.1,855.8z M212.7,839.8h1v7.7h-1V839.8z
		 M214.5,850.4v5.3h3.4v-5.3H214.5z M218,838.7v9.7h-1v-9.7H218z M219.6,847.1c-0.3-0.2-0.5-0.5-0.8-0.7c1.8-2.2,3.2-4.9,4.3-7.9
		l1,0.3c-0.5,1.2-0.9,2.2-1.2,2.9h7v1h-7.5C221.5,844.3,220.6,845.8,219.6,847.1z M218.8,850.4v5.3h3.4v-5.3H218.8z M223.1,844.7
		l0.7-0.7c1.3,1,2.6,2,3.9,3.1l-0.8,0.8C225.6,846.8,224.4,845.7,223.1,844.7z M226.6,850.4h-3.4v5.3h3.4V850.4z"/>
	<path class="st7" d="M234.7,838.5l1,0.2c-0.3,0.7-0.6,1.2-0.9,1.6h5.9v0.9h-6.5c-0.7,0.9-1.5,1.7-2.4,2.5c-0.2-0.2-0.4-0.4-0.8-0.7
		C232.7,841.8,233.9,840.3,234.7,838.5z M239.7,843l0.9-0.4c0,0,0.1,0.1,0.1,0.2c0.3,0.6,0.5,1.1,0.7,1.5h7.8v2.7h-1v-1.8h-15.3v1.8
		h-1v-2.7h8.5C240.1,843.9,239.9,843.5,239.7,843z M234.1,847h12.7v3.8h-11.7v1.7h12.2v4.8h-1v-0.8h-11.1v0.8h-1L234.1,847
		L234.1,847z M235.1,847.9v2.1h10.7v-2.1H235.1z M246.3,853.5h-11.1v2.3h11.1V853.5z M237.1,843.7c-0.6-0.7-1.1-1.3-1.7-1.8l0.7-0.5
		c0.6,0.6,1.2,1.1,1.7,1.7L237.1,843.7z M243.4,838.5l1,0.2c-0.2,0.6-0.5,1.1-0.8,1.6h6.4v0.9h-6.9c-0.4,0.6-0.8,1.1-1.4,1.8
		c-0.3-0.2-0.5-0.4-0.8-0.6C242.1,841.2,242.9,839.9,243.4,838.5z M246.7,843.1l-0.7,0.6c-0.5-0.6-1.1-1.2-1.7-1.8l0.7-0.5
		C245.6,842,246.2,842.6,246.7,843.1z"/>
</g>
<g class="st6">
	<path class="st7" d="M157.4,869.6l0.8-0.6c0.8,0.8,1.4,1.4,1.9,2l-0.7,0.5h4.4c0.7-0.9,1.3-1.7,1.9-2.4l1,0.5
		c-0.6,0.8-1.1,1.4-1.6,1.8h5.6v0.9h-6v4.4h6.6v0.9h-18.7v-0.9h6.6v-4.4h-6v-0.9h5.8C158.5,870.8,157.9,870.1,157.4,869.6z
		 M154.5,873.7l0.8-0.6c0.9,0.8,1.6,1.5,2.1,2.2l-0.8,0.7C156,875.3,155.3,874.6,154.5,873.7z M155.3,879.7h13.2v8.3h-1.1v-0.9h-11
		v0.9h-1.1L155.3,879.7L155.3,879.7z M156.4,880.6v2.3h11v-2.3H156.4z M156.4,883.8v2.3h11v-2.3H156.4z M160.2,872.3v4.4h3.3v-4.4
		H160.2z M167.1,876l-0.8-0.7c0.8-0.8,1.6-1.5,2.2-2.2l0.8,0.6C168.6,874.5,167.9,875.2,167.1,876z"/>
	<path class="st7" d="M173.2,876.1c-0.1-0.2-0.3-0.5-0.6-0.9c2.2-1.4,4.1-3.5,5.9-6.1l1,0.5c-0.8,1.2-1.6,2.2-2.3,2.9v7.1h-1.1v-6
		C175.2,874.5,174.2,875.3,173.2,876.1z M181.4,879.5h1.1v2.6h8.7v1h-8.7v4.9h-1.1v-4.9h-8.7v-1h8.7V879.5z M178.9,876.9
		c-0.1-0.3-0.3-0.6-0.6-1c1.7-0.5,3.2-1.1,4.6-1.7v-4.8h1.1v4.4c1.8-0.9,3.6-2,5.4-3.2l0.7,0.8c-2,1.4-4,2.6-6.2,3.6v1.5
		c0,0.7,0.1,1.1,0.4,1.3c0.2,0.2,0.7,0.3,1.5,0.3h2c1.2,0.1,1.9-0.4,2-1.3c0.1-0.5,0.2-1.2,0.3-2c0.5,0.2,0.8,0.3,1,0.4
		c-0.1,0.9-0.2,1.7-0.4,2.2c-0.3,1.2-1.2,1.8-2.7,1.8h-2.4c-1.9,0.1-2.8-0.7-2.7-2.5v-1.2C181.5,875.9,180.2,876.4,178.9,876.9z"/>
	<path class="st7" d="M193.2,876.9h5.9v1.1c-1,3.4-2.9,6.2-5.8,8.3c-0.2-0.3-0.5-0.6-0.8-1c2.8-1.8,4.7-4.2,5.5-7.4h-4.7
		L193.2,876.9L193.2,876.9z M202.8,885.3c0.1,1.6-0.7,2.4-2.5,2.5c-0.3,0-0.6,0-1,0c-0.2,0-0.3,0-0.5,0s-0.4,0-0.8,0
		c0-0.3-0.1-0.7-0.2-1.1c0.7,0,1.5,0.1,2.3,0.1c0.6,0,1-0.1,1.2-0.3s0.4-0.6,0.4-1.2V874H195v-1h7.8v0.8c0.6,1.6,1.2,3.1,1.9,4.3
		c1.6-1.2,3.2-2.5,4.7-3.8l0.8,0.8c-1.6,1.3-3.3,2.6-4.9,3.9c1.4,2.2,3.4,4.2,6.2,6c-0.3,0.3-0.6,0.7-0.9,1c-4-2.8-6.6-6.1-7.7-9.9
		v9.2H202.8z M198.7,869.9l0.5-0.9c2,0.6,4,1.2,6,1.9l-0.5,1C202.7,871.2,200.7,870.5,198.7,869.9z"/>
	<path class="st7" d="M220.9,886.5c0.9,0,1.8,0,2.7,0s1.8,0,2.7,0c1.8,0,3.5,0,5.2-0.1c-0.1,0.3-0.3,0.7-0.3,1.1c-3,0-5.1,0-6.5,0
		c-1.6,0-2.9,0-3.8,0c-2.5,0.1-4.3-0.8-5.4-2.5c-0.7,0.7-1.4,1.6-2.2,2.7l-0.7-0.9c1-1.1,1.8-2.1,2.5-2.7v-6.9h-2.3v-1h3.3v8.1
		C216.9,885.7,218.6,886.5,220.9,886.5z M215.7,873.5c-0.8-1.2-1.6-2.3-2.4-3.3l0.8-0.5c0.9,1.1,1.7,2.2,2.5,3.2L215.7,873.5z
		 M219,874.6h4.1l0.5-2H218v-0.9h4.2c-0.6-0.7-1.2-1.4-1.7-2l0.8-0.6c0.4,0.4,1,1,1.7,1.9c0.1,0.1,0.1,0.2,0.2,0.2l-0.8,0.6h3.4
		l1.7-2.6l1,0.5l-1.7,2.1h4.4v0.9h-6.6l-0.6,2h5.7v9.7H219V874.6z M220,875.5v2h8.8v-2H220z M220,878.4v2h8.8v-2H220z M220,881.3
		v2.1h8.8v-2.1H220z"/>
	<path class="st7" d="M240.9,869.3l1-0.4c0.4,0.7,0.8,1.4,1.2,2l-0.9,0.4h8.6v3.2h-1v-2.3h-15.4v2.3h-1v-3.2h8.7
		C241.7,870.8,241.3,870.1,240.9,869.3z M241.5,873.3h1.1v2.1h6.5v9.2h-1v-0.9h-5.4v4.3h-1.1v-4.3h-5.4v0.9h-1v-9.2h6.5v-2.1H241.5z
		 M236.1,876.4v2.7h5.4v-2.7H236.1z M236.1,880v2.8h5.4V880H236.1z M247.9,876.4h-5.4v2.7h5.4V876.4z M242.5,880v2.8h5.4V880H242.5z
		"/>
	<path class="st7" d="M256.4,885.5c1.4-0.9,2.6-1.7,3.7-2.5c0.1,0.4,0.2,0.8,0.4,1.1c-1.2,0.7-2.6,1.6-4,2.6
		c-0.4,0.2-0.7,0.5-0.9,0.8l-0.8-0.8c0.2-0.2,0.4-0.5,0.5-0.7s0.1-0.5,0.1-0.9v-8.3h-2.8v-1h3.9v9.7H256.4z M257.4,873.3
		c-1.2-1.3-2.2-2.4-3.1-3.2l0.8-0.7c1.1,1,2.2,2.1,3.2,3.1L257.4,873.3z M264.6,869.1h1.1v6.7h5.8v1h-5.8V888h-1.1v-11.1h-5.8v-1
		h5.8V869.1z"/>
</g>
<ellipse id="椭圆_11" class="st8" cx="214.9" cy="788.9" rx="18.1" ry="3.6"/>
<path id="矩形_46" class="st9" d="M172.8,790.1l43.3,15.2v14.4l-43.3-15.2V790.1z"/>
<path id="矩形_46_拷贝" class="st9" d="M253.1,790.9l-37.7,14.4v14.4l37.7-14.4V790.9z"/>
<path id="圆角矩形_1_拷贝-2" class="st4" d="M174.5,602.3l39.1-10c1.7-0.4,3.4-0.3,5,0.1l32.8,10.6c1.4,0.5,1.6,1.2,0.4,1.7
	l-34.2,12.6c-2,0.6-4.1,0.7-6.1,0.1l-37.7-13.2C172.2,603.7,172.6,602.8,174.5,602.3z"/>
<path id="圆角矩形_1-2" class="st5" d="M175.3,581.4l39.1-10c1.7-0.4,3.4-0.3,5,0.1l32.8,10.6c1.4,0.5,1.6,1.2,0.4,1.7
	l-34.2,12.6c-2,0.6-4.1,0.7-6.1,0.1l-37.7-13.2C173,582.8,173.4,581.9,175.3,581.4z"/>
<g class="st6">
	<path class="st7" d="M156,639.2c1.6-1.1,3.2-2.3,4.7-3.5c0.1,0.2,0.2,0.5,0.5,1c-1.5,1.1-3,2.3-4.5,3.5L156,639.2z M165,642.8h1
		c0,0.7-0.1,1.4-0.2,2.1c0,0,0,0.1,0,0.2c0,0.2-0.1,0.4-0.1,0.5c2.6,1,5.4,2.1,8.3,3.3l-0.6,1c-3-1.4-5.8-2.5-8.2-3.4
		c-0.9,1.5-3.6,2.7-8.1,3.5c-0.2-0.4-0.3-0.7-0.6-1.1c5.2-0.6,7.9-2,8.3-4.1C165,644.3,165,643.6,165,642.8z M160,634.6
		c-1-0.8-2-1.6-3.1-2.3l0.7-0.8c0.9,0.7,2,1.4,3.1,2.3L160,634.6z M159,640.7h13v5.7h-1v-4.7h-11v4.7h-1V640.7z M162.1,640
		c-0.2-0.4-0.4-0.7-0.6-1c4-0.9,6.1-2.6,6.3-5.2h-3.1c-0.5,0.9-1.2,1.8-2,2.7c-0.3-0.3-0.6-0.5-0.8-0.7c1.4-1.4,2.4-2.9,3.1-4.7
		l1,0.3c-0.2,0.6-0.5,1.1-0.7,1.6h8.9v1l-1.2,2.4c-0.3-0.1-0.6-0.3-1-0.4l1.1-2.1h-4.2c0,0.2-0.1,0.4-0.1,0.6c1,2.6,3,4.1,6.1,4.7
		c-0.2,0.3-0.4,0.7-0.6,1c-3.1-0.9-5-2.4-5.9-4.5C167.7,637.5,165.6,638.9,162.1,640z"/>
	<path class="st7" d="M177.9,639h9.4c0.8-1.2,1.5-2.4,2.3-3.8l1,0.5c-0.7,1-1.4,2.1-2.2,3.2h5.7v1H179v1.5c0.1,3.5-0.7,6.3-2.3,8.4
		c-0.3-0.3-0.6-0.6-0.9-0.8c0.8-1,1.3-2,1.6-3.2c0.3-1.1,0.5-2.6,0.5-4.5L177.9,639L177.9,639z M184.9,631.5l1.1-0.3
		c0.3,0.9,0.6,1.6,0.8,2.3h8v1h-18.4v-1h9.2c-0.1-0.4-0.3-1-0.6-1.8C184.9,631.6,184.9,631.5,184.9,631.5z M180.7,635.8l0.9-0.6
		c0.6,0.7,1.3,1.7,2.2,2.9l-1,0.6C182.2,637.7,181.5,636.7,180.7,635.8z"/>
	<path class="st7" d="M199.6,631.1l1,0.2c-0.3,0.7-0.6,1.2-0.9,1.6h5.9v0.9h-6.5c-0.7,0.9-1.5,1.7-2.4,2.5c-0.2-0.2-0.4-0.4-0.8-0.7
		C197.6,634.3,198.8,632.8,199.6,631.1z M204.5,635.6l0.9-0.4c0,0,0.1,0.1,0.1,0.2c0.3,0.6,0.5,1.1,0.7,1.5h7.8v2.7h-1v-1.8h-15.3
		v1.8h-1v-2.7h8.5C205,636.5,204.8,636,204.5,635.6z M199,639.6h12.7v3.8H200v1.7h12.1v4.8h-1v-0.8H200v0.8h-1V639.6z M200,640.5
		v2.1h10.7v-2.1H200z M211.1,646H200v2.3h11.1V646z M201.9,636.3c-0.6-0.7-1.1-1.3-1.7-1.8l0.7-0.5c0.6,0.6,1.2,1.1,1.7,1.7
		L201.9,636.3z M208.3,631.1l1,0.2c-0.2,0.6-0.5,1.1-0.8,1.6h6.3v0.9H208c-0.4,0.6-0.8,1.1-1.4,1.8c-0.3-0.2-0.5-0.4-0.8-0.6
		C206.9,633.8,207.8,632.5,208.3,631.1z M211.5,635.7l-0.7,0.6c-0.5-0.6-1.1-1.2-1.7-1.8l0.7-0.5C210.4,634.6,211,635.1,211.5,635.7
		z"/>
	<path class="st7" d="M216.2,639.5h2.5v-5.6H216V633h6.3v0.9h-2.6v5.6h2.5v0.9h-2.5v5.9c0.8-0.2,1.7-0.4,2.6-0.6
		c0,0.4,0,0.8,0.1,1.1c-2.2,0.4-4.2,0.9-6.2,1.4l-0.2-1.1c1.1-0.2,2-0.4,2.8-0.6v-6.1h-2.5v-0.9H216.2z M223.1,644.2h5v-2.7h-4.5
		v-9.2h10.1v9.2h-4.5v2.7h5v0.9h-5v3.2h5.8v0.9h-13v-0.9h6.1v-3.2h-5V644.2z M224.5,633.2v3.2h3.5v-3.2H224.5z M224.5,637.3v3.2h3.5
		v-3.2H224.5z M232.6,633.2h-3.5v3.2h3.5V633.2z M229.1,637.3v3.2h3.5v-3.2H229.1z"/>
	<path class="st7" d="M237,632.1h16.8v1H246v8.6h8.8v1.1H246v7.2h-1.1v-7.2h-8.7v-1.1h8.7v-8.6H237V632.1z M238.1,635.5l0.9-0.6
		c1.2,1.4,2.3,3,3.5,4.6l-1,0.7C240.6,638.8,239.4,637.2,238.1,635.5z M248.9,640.3l-0.9-0.7c1.4-1.4,2.6-3,3.7-4.6l1,0.6
		C251.5,637.1,250.3,638.7,248.9,640.3z"/>
	<path class="st7" d="M273.9,640.2c-0.7-0.7-1.2-1.2-1.6-1.6c-5.8,0.1-10.2,0.3-13.4,0.5c-0.8,0-1.4,0.1-1.9,0.2l-0.5-1.2
		c0.5-0.2,1-0.5,1.5-0.9c2.3-1.9,4.3-4,6.1-6.2l1.1,0.6c-1.8,2-4,4.1-6.5,6.3c1.5,0,4-0.1,7.5-0.2c1.7-0.1,3.4-0.1,5.2-0.2
		c-0.7-0.7-1.7-1.7-3.1-3.1l0.9-0.6c1.7,1.6,3.7,3.5,5.7,5.6L273.9,640.2z M272.1,641.5v8.5H271v-1.3h-11.4v1.3h-1.1v-8.5H272.1z
		 M259.7,642.5v5.2h11.4v-5.2H259.7z"/>
</g>
<path id="椭圆_11-2" class="st8" d="M215.7,577.6c10,0,18.1,1.6,18.1,3.6s-8.1,3.6-18.1,3.6s-18.1-1.6-18.1-3.6
	S205.7,577.6,215.7,577.6z"/>
<path id="矩形_46-2" class="st9" d="M173.5,582.5l43.4,15.3v14.5L173.5,597V582.5z"/>
<path id="矩形_46_拷贝-2" class="st9" d="M253.9,583.3l-37.8,14.5v14.5l37.8-14.5V583.3z"/>
<path id="圆角矩形_1_拷贝-3" class="st4" d="M317.7,312.5l39.1-10c1.7-0.4,3.4-0.3,5,0.1l32.8,10.6c1.4,0.5,1.6,1.2,0.4,1.7
	l-34.2,12.5c-2,0.6-4.1,0.7-6.1,0.1L317,314.4C315.4,313.8,315.8,313,317.7,312.5z"/>
<path id="圆角矩形_1-3" class="st5" d="M318.5,291.6l39.1-10c1.7-0.4,3.4-0.3,5,0.1l32.8,10.6c1.4,0.5,1.6,1.2,0.4,1.6
	l-34.2,12.5c-2,0.6-4.1,0.7-6.1,0.1l-37.7-13.1C316.2,293,316.6,292.1,318.5,291.6z"/>
<g class="st6">
	<path class="st7" d="M300,341.2c1.6-1.1,3.2-2.3,4.7-3.5c0.1,0.2,0.2,0.5,0.5,1c-1.5,1.1-3,2.3-4.5,3.5L300,341.2z M309,344.9h1
		c0,0.7-0.1,1.4-0.2,2.1c0,0,0,0.1,0,0.2c0,0.2-0.1,0.4-0.1,0.5c2.6,1,5.3,2.1,8.3,3.3l-0.6,1c-3-1.4-5.8-2.5-8.2-3.4
		c-0.9,1.5-3.6,2.7-8.1,3.5c-0.2-0.4-0.3-0.7-0.6-1.1c5.2-0.6,7.9-2,8.3-4.1C309,346.3,309,345.6,309,344.9z M304,336.6
		c-1-0.8-2-1.6-3.1-2.3l0.7-0.8c0.9,0.6,2,1.4,3.1,2.3L304,336.6z M303,342.7h13v5.7h-1v-4.7h-11v4.7h-1V342.7z M306.1,342
		c-0.2-0.4-0.4-0.7-0.6-1c4-0.9,6.1-2.6,6.3-5.2h-3.1c-0.5,0.9-1.2,1.8-2,2.6c-0.3-0.3-0.6-0.5-0.8-0.7c1.4-1.4,2.4-2.9,3.1-4.7
		l1,0.3c-0.2,0.6-0.5,1.1-0.7,1.6h8.9v1l-1.2,2.4c-0.3-0.1-0.6-0.3-1-0.4l1.1-2.1h-4.2c0,0.2-0.1,0.4-0.1,0.6c1,2.5,3,4.1,6.1,4.7
		c-0.2,0.3-0.4,0.6-0.6,1c-3.1-0.9-5-2.4-5.9-4.5C311.7,339.5,309.6,341,306.1,342z"/>
	<path class="st7" d="M321.9,341.1h9.4c0.8-1.2,1.5-2.4,2.3-3.8l1,0.5c-0.7,1-1.4,2.1-2.2,3.2h5.7v1H323v1.5
		c0.1,3.5-0.7,6.3-2.3,8.4c-0.3-0.3-0.6-0.6-0.9-0.8c0.8-1,1.3-2,1.6-3.1c0.3-1.1,0.5-2.6,0.5-4.5L321.9,341.1L321.9,341.1z
		 M328.9,333.5l1.1-0.3c0.3,0.9,0.6,1.6,0.8,2.2h8v1h-18.4v-1h9.2c-0.1-0.4-0.3-1-0.6-1.8C328.9,333.6,328.9,333.6,328.9,333.5z
		 M324.7,337.8l0.9-0.6c0.6,0.7,1.3,1.7,2.2,2.9l-1,0.6C326.2,339.7,325.4,338.7,324.7,337.8z"/>
	<path class="st7" d="M343.6,333.2l1,0.2c-0.3,0.7-0.6,1.2-0.9,1.6h5.9v0.9h-6.5c-0.7,0.9-1.5,1.7-2.4,2.5c-0.2-0.2-0.4-0.4-0.8-0.7
		C341.6,336.4,342.8,334.9,343.6,333.2z M348.5,337.6l0.9-0.4c0,0,0.1,0.1,0.1,0.2c0.3,0.6,0.5,1.1,0.7,1.5h7.8v2.7h-1v-1.8h-15.3
		v1.8h-1v-2.7h8.5C349,338.5,348.8,338.1,348.5,337.6z M343,341.6h12.7v3.8H344v1.7h12.1v4.8h-1v-0.8H344v0.8h-1V341.6z M344,342.5
		v2.1h10.7v-2.1H344z M355.1,348H344v2.3h11.1V348z M345.9,338.3c-0.6-0.7-1.1-1.3-1.7-1.8l0.7-0.5c0.6,0.6,1.2,1.1,1.7,1.7
		L345.9,338.3z M352.3,333.2l1,0.2c-0.2,0.6-0.5,1.1-0.8,1.6h6.3v0.9H352c-0.4,0.6-0.8,1.1-1.4,1.8c-0.3-0.2-0.5-0.4-0.8-0.6
		C350.9,335.8,351.8,334.5,352.3,333.2z M355.5,337.7l-0.7,0.6c-0.5-0.6-1.1-1.2-1.7-1.8l0.7-0.5C354.4,336.6,355,337.2,355.5,337.7
		z"/>
	<path class="st7" d="M360.2,341.5h2.5v-5.6H360V335h6.3v0.9h-2.6v5.6h2.5v0.9h-2.5v5.8c0.8-0.2,1.7-0.4,2.6-0.6
		c0,0.4,0,0.8,0.1,1.1c-2.2,0.4-4.2,0.9-6.2,1.4L360,349c1.1-0.2,2-0.4,2.8-0.6v-6.1h-2.5L360.2,341.5L360.2,341.5z M367.1,346.2h5
		v-2.7h-4.5v-9.2h10.1v9.2h-4.5v2.7h5v0.9h-5v3.2h5.8v0.9h-13v-0.9h6.1v-3.2h-5V346.2z M368.5,335.2v3.2h3.5v-3.2H368.5z
		 M368.5,339.3v3.2h3.5v-3.2H368.5z M376.6,335.2h-3.5v3.2h3.5V335.2z M373.1,339.3v3.2h3.5v-3.2H373.1z"/>
	<path class="st7" d="M381,334.2h16.8v1H390v8.6h8.8v1.1H390v7.2h-1.1v-7.2h-8.7v-1.1h8.7v-8.6H381V334.2z M382.1,337.6l0.9-0.6
		c1.2,1.4,2.3,3,3.5,4.6l-1,0.7C384.6,340.8,383.4,339.3,382.1,337.6z M392.9,342.3l-0.9-0.7c1.4-1.4,2.6-3,3.7-4.6l1,0.6
		C395.5,339.2,394.3,340.7,392.9,342.3z"/>
	<path class="st7" d="M417.9,342.3c-0.7-0.7-1.2-1.2-1.6-1.6c-5.8,0.1-10.2,0.3-13.4,0.5c-0.8,0-1.4,0.1-1.9,0.2l-0.5-1.2
		c0.5-0.2,1-0.5,1.5-0.9c2.3-1.9,4.3-4,6.1-6.1l1.1,0.6c-1.8,2-4,4.1-6.5,6.3c1.5,0,4-0.1,7.5-0.2c1.7-0.1,3.4-0.1,5.2-0.2
		c-0.7-0.7-1.7-1.7-3.1-3.1l0.9-0.6c1.7,1.6,3.7,3.5,5.7,5.6L417.9,342.3z M416.1,343.5v8.5H415v-1.3h-11.4v1.3h-1.1v-8.5H416.1z
		 M403.7,344.6v5.1h11.4v-5.1H403.7z"/>
</g>
<path id="椭圆_11-3" class="st8" d="M358.9,287.9c10,0,18.1,1.6,18.1,3.6s-8.1,3.6-18.1,3.6s-18.1-1.6-18.1-3.6
	S348.9,287.9,358.9,287.9z"/>
<path id="矩形_46-3" class="st9" d="M316.7,292.7l43.4,15.2v14.4l-43.4-15.2V292.7z"/>
<path id="矩形_46_拷贝-3" class="st9" d="M397.1,293.5l-37.8,14.4v14.4l37.8-14.4V293.5L397.1,293.5z"/>
<path id="圆角矩形_1_拷贝-4" class="st4" d="M19.7,313.3l39.1-10c1.7-0.4,3.4-0.3,5,0.1L96.7,314c1.4,0.5,1.6,1.2,0.4,1.7
	l-34.2,12.6c-2,0.6-4.1,0.7-6.1,0.1L19,315.1C17.4,314.6,17.8,313.8,19.7,313.3z"/>
<path id="圆角矩形_1-4" class="st5" d="M20.5,292.3l39.1-10c1.7-0.4,3.4-0.3,5,0.1L97.4,293c1.4,0.5,1.6,1.2,0.4,1.7l-34.2,12.6
	c-2,0.6-4.1,0.7-6.1,0.1l-37.7-13.2C18.2,293.7,18.6,292.8,20.5,292.3z"/>
<g class="st6">
	<path class="st7" d="M2,341.1c1.6-1.1,3.2-2.3,4.7-3.5c0.1,0.2,0.2,0.5,0.5,1c-1.5,1.1-3,2.3-4.5,3.5L2,341.1z M11,344.8h1
		c0,0.7-0.1,1.4-0.2,2.1c0,0,0,0.1,0,0.2c0,0.2-0.1,0.4-0.1,0.5c2.6,1,5.4,2.1,8.3,3.3l-0.6,1c-3-1.4-5.8-2.5-8.2-3.4
		c-0.9,1.5-3.6,2.7-8.1,3.5c-0.2-0.4-0.3-0.7-0.6-1.1c5.2-0.6,7.9-2,8.3-4.1C11,346.2,11,345.6,11,344.8z M6,336.6
		c-1-0.8-2-1.6-3.1-2.3l0.7-0.8c0.9,0.7,2,1.4,3.1,2.3L6,336.6z M5,342.7h13v5.7h-1v-4.7H6v4.7H5V342.7z M8.1,342
		c-0.2-0.4-0.4-0.7-0.6-1c4-0.9,6.1-2.6,6.3-5.3h-3.1c-0.5,0.9-1.2,1.8-2,2.7c-0.3-0.3-0.6-0.5-0.8-0.7c1.4-1.4,2.4-2.9,3.1-4.7
		l1,0.3c-0.2,0.6-0.5,1.1-0.7,1.6H20v1l-1.2,2.4c-0.3-0.1-0.6-0.3-1-0.4l1.1-2.1h-4.2c0,0.2-0.1,0.4-0.1,0.6c1,2.6,3,4.1,6.1,4.7
		c-0.2,0.3-0.4,0.7-0.6,1c-3.1-0.9-5-2.4-5.9-4.5C13.7,339.4,11.6,340.9,8.1,342z"/>
	<path class="st7" d="M23.9,341h9.4c0.8-1.2,1.5-2.4,2.3-3.8l1,0.5c-0.7,1-1.4,2.1-2.2,3.2h5.7v1H25v1.5c0.1,3.5-0.7,6.3-2.3,8.4
		c-0.3-0.3-0.6-0.6-0.9-0.8c0.8-1,1.3-2,1.6-3.2c0.3-1.1,0.5-2.6,0.5-4.5C23.9,343.3,23.9,341,23.9,341z M30.9,333.4l1.1-0.3
		c0.3,0.9,0.6,1.6,0.8,2.3h8v1H22.4v-1h9.2c-0.1-0.4-0.3-1-0.6-1.8C30.9,333.5,30.9,333.5,30.9,333.4z M26.7,337.8l0.9-0.6
		c0.6,0.7,1.3,1.7,2.2,2.9l-1,0.6C28.2,339.7,27.5,338.7,26.7,337.8z"/>
	<path class="st7" d="M45.6,333.1l1,0.2c-0.3,0.7-0.6,1.2-0.9,1.6h5.9v0.9h-6.5c-0.7,0.9-1.5,1.7-2.4,2.5c-0.2-0.2-0.4-0.4-0.8-0.7
		C43.6,336.3,44.8,334.8,45.6,333.1z M50.5,337.5l0.9-0.4c0,0,0.1,0.1,0.1,0.2c0.3,0.6,0.5,1.1,0.7,1.5H60v2.7h-1v-1.8H43.8v1.8h-1
		v-2.7h8.5C51,338.4,50.8,338,50.5,337.5z M45,341.6h12.7v3.8H46v1.7h12.1v4.8h-1v-0.8H46v0.8h-1V341.6z M46,342.4v2.1h10.7v-2.1H46
		z M57.1,348H46v2.3h11.1V348z M48,338.3c-0.6-0.7-1.1-1.3-1.7-1.8L47,336c0.6,0.6,1.2,1.1,1.7,1.7L48,338.3z M54.3,333.1l1,0.2
		c-0.2,0.6-0.5,1.1-0.8,1.6h6.3v0.9H54c-0.4,0.6-0.8,1.1-1.4,1.8c-0.3-0.2-0.5-0.4-0.8-0.6C52.9,335.7,53.8,334.5,54.3,333.1z
		 M57.5,337.7l-0.7,0.6c-0.5-0.6-1.1-1.2-1.7-1.8l0.7-0.5C56.4,336.5,57,337.1,57.5,337.7z"/>
	<path class="st7" d="M62.2,341.5h2.5v-5.6H62V335h6.3v0.9h-2.6v5.6h2.5v0.9h-2.5v5.9c0.8-0.2,1.7-0.4,2.6-0.6c0,0.4,0,0.8,0.1,1.1
		c-2.2,0.4-4.2,0.9-6.2,1.4l-0.2-1.1c1.1-0.2,2-0.4,2.8-0.6v-6.1h-2.5v-0.9H62.2z M69.1,346.2h5v-2.8h-4.5v-9.2h10.1v9.2h-4.5v2.8h5
		v0.9h-5v3.3H81v0.9H68v-0.9h6.1v-3.3h-5V346.2z M70.5,335.1v3.2H74v-3.2H70.5z M70.5,339.3v3.2H74v-3.2H70.5z M78.6,335.1h-3.5v3.2
		h3.5V335.1z M75.1,339.3v3.2h3.5v-3.2H75.1z"/>
	<path class="st7" d="M83,334.1h16.8v1H92v8.6h8.8v1.1H92v7.2h-1.1v-7.2h-8.7v-1.1h8.7v-8.6H83V334.1z M84.1,337.5l0.9-0.6
		c1.2,1.4,2.3,3,3.5,4.6l-1,0.7C86.6,340.8,85.4,339.2,84.1,337.5z M94.9,342.3l-0.9-0.7c1.4-1.4,2.6-3,3.7-4.6l1,0.6
		C97.5,339.1,96.3,340.7,94.9,342.3z"/>
	<path class="st7" d="M119.9,342.2c-0.7-0.7-1.2-1.2-1.6-1.6c-5.8,0.1-10.2,0.3-13.4,0.5c-0.8,0-1.4,0.1-1.9,0.2l-0.5-1.2
		c0.5-0.2,1-0.5,1.5-0.9c2.3-1.9,4.3-4,6.1-6.2l1.1,0.6c-1.8,2-4,4.1-6.5,6.3c1.5,0,4-0.1,7.5-0.2c1.7-0.1,3.4-0.1,5.2-0.2
		c-0.7-0.7-1.7-1.7-3.1-3.1l0.9-0.6c1.7,1.6,3.7,3.5,5.7,5.6L119.9,342.2z M118.1,343.5v8.5H117v-1.3h-11.4v1.3h-1.1v-8.5H118.1z
		 M105.7,344.5v5.2h11.4v-5.2H105.7z"/>
</g>
<path id="椭圆_11-4" class="st8" d="M60.9,288.5c10,0,18.1,1.6,18.1,3.6s-8.1,3.6-18.1,3.6s-18.1-1.6-18.1-3.6
	S50.9,288.5,60.9,288.5z"/>
<path id="矩形_46-4" class="st9" d="M18.7,293.4l43.4,15.3v14.5l-43.4-15.3V293.4z"/>
<path id="矩形_46_拷贝-4" class="st9" d="M99.1,294.2l-37.8,14.5v14.5l37.8-14.5V294.2z"/>
<path id="圆角矩形_1_拷贝-5" class="st4" d="M310.7,86.7l39.1-10c1.7-0.4,3.4-0.3,5,0.1l32.9,10.6c1.4,0.5,1.6,1.2,0.4,1.7
	l-34.3,12.6c-2,0.6-4.1,0.7-6.1,0.1L310,88.6C308.4,88,308.8,87.2,310.7,86.7z"/>
<path id="圆角矩形_1-5" class="st5" d="M308.5,65.8l39.1-10c1.7-0.4,3.4-0.3,5,0.1l32.9,10.6c1.4,0.5,1.6,1.2,0.4,1.7
	l-34.3,12.6c-2,0.6-4.1,0.7-6.1,0.1l-37.7-13.2C306.2,67.1,306.6,66.3,308.5,65.8z"/>
<g class="st6">
	<path class="st7" d="M310.5,116h17.1v1.1h-4v6.1h4.8v1.1h-4.8v9h-1.1v-9h-6.6c0,0.2,0,0.5,0,0.7c0,3.9-1.7,6.7-5.1,8.4
		c-0.2-0.3-0.5-0.7-0.8-1c1.9-1.1,3.2-2.2,3.8-3.2c0.7-1.1,1-2.7,1-4.9h-5.1v-1.1h5.1v-6.1h-4.2L310.5,116L310.5,116z M315.9,117.1
		v6.1h6.6v-6.1H315.9z"/>
	<path class="st7" d="M347.7,133.4c-3.7-0.4-6.6-1-8.7-1.8c-2.3,0.8-5.2,1.4-8.9,1.9c-0.1-0.3-0.2-0.7-0.4-1
		c3.1-0.4,5.7-0.9,7.9-1.5c-1.7-0.7-3.2-1.6-4.6-2.8h-1.7v-0.8h14.2v1c-1.7,1.2-3.4,2.1-5,2.7c1.9,0.5,4.5,1,7.8,1.3
		C348.1,132.7,347.9,133,347.7,133.4z M330.5,122.1h16.7v3.8h-16.7V122.1z M331.5,122.9v2.2h4.2v-2.2H331.5z M332.3,115.4h13.1v5.4
		h-13.1V115.4z M333.4,116.2v1.5h11v-1.5H333.4z M333.4,118.5v1.5h11v-1.5H333.4z M344.1,128.2h-9.7c1.5,1.1,3.1,1.9,4.6,2.4
		C340.7,130,342.4,129.2,344.1,128.2z M336.7,122.9v2.2h4.2v-2.2H336.7z M346.2,122.9H342v2.2h4.3L346.2,122.9L346.2,122.9z"/>
	<path class="st7" d="M349.5,131.7h2.3v-6.3H366v6.3h2.3v1h-18.8V131.7z M351.1,115.7h1v7.7h-1V115.7z M352.9,126.3v5.3h3.4v-5.3
		H352.9z M356.5,114.6v9.7h-1v-9.7H356.5z M358,123c-0.3-0.2-0.5-0.5-0.8-0.7c1.8-2.2,3.2-4.9,4.3-7.9l1,0.3
		c-0.5,1.2-0.9,2.2-1.2,2.9h7v1h-7.5C359.9,120.2,359,121.7,358,123z M357.3,126.3v5.3h3.4v-5.3H357.3z M361.6,120.6l0.7-0.7
		c1.3,1,2.6,2,3.9,3.1l-0.8,0.8C364.1,122.7,362.8,121.6,361.6,120.6z M365,126.3h-3.4v5.3h3.4V126.3z"/>
	<path class="st7" d="M373.1,114.4l1,0.2c-0.3,0.7-0.6,1.2-0.9,1.6h5.9v0.9h-6.5c-0.7,0.9-1.5,1.7-2.4,2.5c-0.2-0.2-0.4-0.4-0.8-0.7
		C371.1,117.7,372.3,116.2,373.1,114.4z M378.1,118.9l0.9-0.4c0,0,0.1,0.1,0.1,0.2c0.3,0.6,0.5,1.1,0.7,1.5h7.8v2.7h-1v-1.8h-15.3
		v1.8h-1v-2.7h8.5C378.6,119.8,378.3,119.4,378.1,118.9z M372.5,122.9h12.7v3.8h-11.7v1.7h12.2v4.8h-1v-0.8h-11.1v0.8h-1v-10.3
		H372.5z M373.6,123.8v2.1h10.7v-2.1H373.6z M384.7,129.4h-11.1v2.3h11.1V129.4z M375.5,119.6c-0.6-0.7-1.1-1.3-1.7-1.8l0.7-0.5
		c0.6,0.6,1.2,1.1,1.7,1.7L375.5,119.6z M381.9,114.5l1,0.2c-0.2,0.6-0.5,1.1-0.8,1.6h6.4v0.9h-6.9c-0.4,0.6-0.8,1.1-1.4,1.8
		c-0.3-0.2-0.5-0.4-0.8-0.6C380.5,117.1,381.3,115.8,381.9,114.5z M385.1,119.1l-0.7,0.6c-0.5-0.6-1.1-1.2-1.7-1.8l0.7-0.5
		C384,117.9,384.6,118.5,385.1,119.1z"/>
</g>
<g class="st6">
	<path class="st7" d="M294.3,145.5l0.8-0.6c0.8,0.8,1.4,1.4,1.9,2l-0.7,0.5h4.4c0.7-0.9,1.3-1.7,1.9-2.4l1,0.5
		c-0.6,0.8-1.1,1.4-1.6,1.8h5.6v0.9h-6v4.4h6.6v0.9h-18.7v-0.9h6.6v-4.4h-6v-0.9h5.8C295.5,146.8,294.9,146.1,294.3,145.5z
		 M291.5,149.7l0.8-0.6c0.9,0.8,1.6,1.5,2.1,2.2l-0.8,0.7C293,151.3,292.3,150.6,291.5,149.7z M292.3,155.7h13.2v8.3h-1.1v-1h-11
		v0.9h-1.1V155.7z M293.4,156.6v2.3h11v-2.3H293.4z M293.4,159.8v2.3h11v-2.3H293.4z M297.2,148.3v4.4h3.3v-4.4H297.2z M304.1,152
		l-0.8-0.7c0.8-0.8,1.6-1.5,2.2-2.2l0.8,0.6C305.6,150.5,304.8,151.2,304.1,152z"/>
	<path class="st7" d="M310.2,152.1c-0.1-0.2-0.3-0.5-0.6-0.9c2.2-1.4,4.1-3.5,5.9-6.1l1,0.5c-0.8,1.2-1.6,2.2-2.3,2.9v7.1h-1.1v-6
		C312.1,150.5,311.2,151.3,310.2,152.1z M318.4,155.5h1.1v2.6h8.7v1h-8.7v4.9h-1.1v-4.9h-8.7v-1h8.7V155.5z M315.9,152.9
		c-0.1-0.3-0.3-0.6-0.6-1c1.7-0.5,3.2-1.1,4.6-1.7v-4.8h1.1v4.4c1.8-0.9,3.6-2,5.4-3.2l0.7,0.8c-2,1.4-4,2.6-6.2,3.6v1.5
		c0,0.7,0.1,1.1,0.4,1.3c0.2,0.2,0.7,0.3,1.5,0.3h2c1.2,0.1,1.9-0.4,2-1.3c0.1-0.5,0.2-1.2,0.3-2c0.5,0.2,0.8,0.3,1,0.4
		c-0.1,0.9-0.2,1.7-0.4,2.2c-0.3,1.2-1.2,1.8-2.7,1.8h-2.4c-1.9,0.1-2.8-0.7-2.7-2.5v-1.2C318.5,151.9,317.2,152.4,315.9,152.9z"/>
	<path class="st7" d="M330.2,152.9h5.9v1.1c-1,3.4-2.9,6.2-5.8,8.3c-0.2-0.3-0.5-0.6-0.8-1c2.8-1.8,4.7-4.2,5.5-7.4h-4.7v-1H330.2z
		 M339.7,161.3c0.1,1.6-0.7,2.4-2.5,2.5c-0.3,0-0.6,0-1,0c-0.2,0-0.3,0-0.5,0s-0.4,0-0.8,0c0-0.3-0.1-0.7-0.2-1.1
		c0.7,0,1.5,0.1,2.3,0.1c0.6,0,1-0.1,1.2-0.3s0.4-0.6,0.4-1.2V150H332v-1h7.8v0.8c0.6,1.6,1.2,3.1,1.9,4.3c1.6-1.2,3.2-2.5,4.7-3.8
		l0.8,0.8c-1.6,1.3-3.3,2.6-4.9,3.9c1.4,2.2,3.4,4.2,6.2,6c-0.3,0.3-0.6,0.7-0.9,1c-4-2.8-6.5-6.1-7.7-9.9v9.2H339.7z M335.6,145.9
		l0.5-0.9c2,0.6,4,1.2,6,1.9l-0.5,1C339.7,147.2,337.7,146.5,335.6,145.9z"/>
	<path class="st7" d="M357.8,162.4c0.9,0,1.8,0,2.7,0c0.9,0,1.8,0,2.7,0c1.8,0,3.5,0,5.2-0.1c-0.1,0.3-0.3,0.7-0.3,1.1
		c-3,0-5.1,0-6.5,0c-1.6,0-2.9,0-3.8,0c-2.5,0.1-4.3-0.8-5.4-2.5c-0.7,0.7-1.4,1.6-2.2,2.7l-0.7-0.9c1-1.1,1.8-2.1,2.5-2.7v-6.9
		h-2.3v-1h3.3v8.1C353.9,161.7,355.5,162.5,357.8,162.4z M352.6,149.5c-0.8-1.2-1.6-2.3-2.4-3.3l0.8-0.5c0.9,1.1,1.7,2.2,2.5,3.2
		L352.6,149.5z M356,150.6h4.1l0.5-2H355v-0.9h4.2c-0.6-0.7-1.2-1.4-1.7-2l0.8-0.6c0.4,0.4,1,1,1.7,1.9c0.1,0.1,0.1,0.2,0.2,0.2
		l-0.8,0.6h3.4l1.7-2.6l1,0.5l-1.7,2.1h4.4v0.9h-6.6l-0.6,2h5.7v9.7H356V150.6z M357,151.5v2h8.8v-2H357z M357,154.4v2h8.8v-2H357z
		 M357,157.3v2.1h8.8v-2.1H357z"/>
	<path class="st7" d="M377.9,145.3l1-0.4c0.5,0.7,0.8,1.4,1.2,2l-0.9,0.4h8.6v3.2h-1v-2.3h-15.4v2.3h-1v-3.2h8.7
		C378.6,146.8,378.3,146.1,377.9,145.3z M378.4,149.3h1.1v2.1h6.5v9.2h-1v-0.9h-5.4v4.3h-1.1v-4.3H373v0.9h-1v-9.2h6.5v-2.1H378.4z
		 M373,152.4v2.7h5.4v-2.7H373z M373,156v2.8h5.4V156H373z M384.9,152.4h-5.4v2.7h5.4V152.4z M379.5,156v2.8h5.4V156H379.5z"/>
	<path class="st7" d="M393.4,161.5c1.4-0.9,2.6-1.7,3.7-2.5c0.1,0.4,0.2,0.8,0.4,1.1c-1.2,0.7-2.6,1.6-4,2.6
		c-0.4,0.2-0.7,0.5-0.9,0.8l-0.8-0.8c0.2-0.2,0.4-0.5,0.5-0.7s0.1-0.5,0.1-0.9v-8.3h-2.8v-1h3.9v9.7H393.4z M394.3,149.3
		c-1.2-1.3-2.2-2.4-3.1-3.2l0.8-0.7c1.1,1,2.2,2.1,3.2,3.1L394.3,149.3z M401.5,145.1h1.1v6.7h5.8v1h-5.8v11.1h-1.1v-11.1h-5.8v-1
		h5.8V145.1z"/>
</g>
<ellipse id="椭圆_11-5" class="st8" cx="348.9" cy="65.6" rx="18.1" ry="3.6"/>
<path id="矩形_46-5" class="st9" d="M306.7,66.8l43.4,15.3v14.5l-43.4-15.3V66.8z"/>
<path id="矩形_46_拷贝-5" class="st9" d="M387.1,67.6l-37.8,14.5v14.5l37.8-14.5V67.6z"/>
<path id="圆角矩形_1_拷贝-6" class="st4" d="M20.6,86.1l39.1-10c1.7-0.4,3.4-0.3,5,0.1l32.8,10.6c1.4,0.5,1.6,1.2,0.4,1.7
	l-34.2,12.6c-2,0.6-4.1,0.7-6.1,0.1L19.9,88C18.3,87.4,18.7,86.6,20.6,86.1z"/>
<path id="圆角矩形_1-6" class="st5" d="M21.4,65.2l39.1-10c1.7-0.4,3.4-0.3,5,0.1l32.8,10.6c1.4,0.5,1.6,1.2,0.4,1.7L64.5,80.2
	c-2,0.6-4.1,0.7-6.1,0.1L20.7,67.1C19.1,66.6,19.5,65.7,21.4,65.2z"/>
<path class="st7" d="M24,117.2v6.2h5.6v1H24v7h-1v-15.1h7v1L24,117.2L24,117.2z"/>
<path class="st7" d="M54.9,131.3l-1.7-4.7h-6.6l-1.7,4.7h-1.1l5.7-15.1h1l5.6,15.1H54.9z M50.3,118.7c-0.1-0.2-0.1-0.4-0.2-0.6
	c-0.1-0.2-0.1-0.4-0.2-0.5l0,0c-0.1,0.5-0.2,0.8-0.3,1.1l-2.5,7h5.8L50.3,118.7z"/>
<path class="st7" d="M42,130.8c-1.2,0.5-2.5,0.8-3.8,0.8c-2.1,0-3.8-0.7-5.1-2.1c-1.3-1.4-2-3.2-2-5.4c0-2.5,0.7-4.4,2.1-5.9
	c1.4-1.5,3.2-2.2,5.4-2.2c1.2,0,2.3,0.2,3.3,0.6v1.1c-1.1-0.5-2.2-0.7-3.3-0.7c-1.9,0-3.4,0.6-4.6,1.9s-1.8,3-1.8,5.1
	s0.6,3.7,1.7,4.9c1.1,1.2,2.6,1.8,4.3,1.8c1.4,0,2.6-0.3,3.7-0.8L42,130.8L42,130.8z"/>
<path class="st7" d="M56.1,132h2.3v-6.3h14.1v6.3h2.3v1H56.1V132z M57.7,116.1h1v7.7h-1V116.1z M59.5,126.7v5.3h3.4v-5.3H59.5z
	 M63,115v9.7h-1V115H63z M64.5,123.4c-0.3-0.2-0.5-0.5-0.8-0.7c1.8-2.2,3.2-4.9,4.3-7.9l1,0.3c-0.5,1.2-0.9,2.2-1.2,2.9h7v1h-7.5
	C66.5,120.6,65.6,122.1,64.5,123.4z M63.8,126.7v5.3h3.4v-5.3H63.8z M68.1,121l0.7-0.7c1.3,1,2.6,2,3.9,3.1l-0.8,0.8
	C70.6,123.1,69.4,122,68.1,121z M71.5,126.7h-3.4v5.3h3.4V126.7z"/>
<path class="st7" d="M79.7,114.8l1,0.2c-0.3,0.7-0.6,1.2-0.9,1.6h5.9v0.9h-6.5c-0.7,0.9-1.5,1.7-2.4,2.5c-0.2-0.2-0.4-0.4-0.8-0.7
	C77.6,118.1,78.9,116.6,79.7,114.8z M84.6,119.3l0.9-0.4c0,0,0.1,0.1,0.1,0.2c0.3,0.6,0.5,1.1,0.7,1.5h7.8v2.7h-1v-1.8H77.8v1.8h-1
	v-2.7h8.5C85.1,120.2,84.9,119.8,84.6,119.3z M79.1,123.3h12.7v3.8H80.1v1.7h12.1v4.8h-1v-0.8H80.1v0.8h-1V123.3z M80.1,124.2v2.1
	h10.7v-2.1H80.1z M91.2,129.8H80.1v2.3h11.1V129.8z M82,120c-0.6-0.7-1.1-1.3-1.7-1.8l0.7-0.5c0.6,0.6,1.2,1.1,1.7,1.7L82,120z
	 M88.4,114.9l1,0.2c-0.2,0.6-0.5,1.1-0.8,1.6H95v0.9h-6.9c-0.4,0.6-0.8,1.1-1.4,1.8c-0.3-0.2-0.5-0.4-0.8-0.6
	C87,117.5,87.9,116.2,88.4,114.9z M91.6,119.4l-0.7,0.6c-0.5-0.6-1.1-1.2-1.7-1.8l0.7-0.5C90.5,118.3,91.1,118.9,91.6,119.4z"/>
<ellipse id="椭圆_11-6" class="st8" cx="61.8" cy="65.1" rx="18.1" ry="3.6"/>
<path id="矩形_46-6" class="st9" d="M19.6,66.3L63,81.5V96L19.6,80.7V66.3z"/>
<path id="矩形_46_拷贝-6" class="st9" d="M99.9,67L62.2,81.5V96L100,81.5L99.9,67L99.9,67z"/>
<rect id="矩形_49" x="359" y="172" class="st0" width="1" height="60"/>
<rect id="矩形_49_拷贝" x="62" y="142" class="st0" width="1" height="90"/>
<g class="st6">
	<path class="st3" d="M40,55h22.5V10H40V55z M54.1,15.6h5.6v5.6h-5.6V15.6z M54.1,26.9h5.6v5.6h-5.6V26.9z M54.1,38.1h5.6v5.6h-5.6
		V38.1z M42.8,15.6h5.6v5.6h-5.6V15.6z M42.8,26.9h5.6v5.6h-5.6V26.9z M42.8,38.1h5.6v5.6h-5.6V38.1z M65.3,24.1H85v2.8H65.3V24.1z
		 M65.3,55h5.6V43.8h8.4V55H85V29.7H65.3V55z"/>
</g>
<g class="st6">
	<path class="st3" d="M345.7,45.4h7.6v9.5h-7.6V45.4z"/>
	<path class="st3" d="M344.8,28.4c0,2.6,2.1,4.7,4.7,4.7s4.7-2.1,4.7-4.7s-2.1-4.7-4.7-4.7C346.9,23.7,344.8,25.8,344.8,28.4z
		 M350.4,29.3h-3.8v-1.9h1.9v-2.8h1.9V29.3z"/>
	<path class="st3" d="M323,24.6v30.3h15.1V24.6H323z M329.6,44.5h-3.8v-1.9h3.8V44.5z M329.6,40.7h-3.8v-1.9h3.8V40.7z M329.6,36.9
		h-3.8V35h3.8V36.9z M329.6,33.1h-3.8v-1.9h3.8V33.1z M329.6,29.3h-3.8v-1.9h3.8V29.3z M335.3,44.5h-3.8v-1.9h3.8V44.5z M335.3,40.7
		h-3.8v-1.9h3.8V40.7z M335.3,36.9h-3.8V35h3.8V36.9z M335.3,33.1h-3.8v-1.9h3.8V33.1z M335.3,29.3h-3.8v-1.9h3.8V29.3z"/>
	<path class="st3" d="M376,54.9V24.6h-15.1v30.3H376z M369.4,27.4h3.8v1.9h-3.8V27.4z M369.4,31.2h3.8v1.9h-3.8V31.2z M369.4,35h3.8
		v1.9h-3.8V35z M369.4,38.8h3.8v1.9h-3.8V38.8z M369.4,42.6h3.8v1.9h-3.8V42.6z M363.7,27.4h3.8v1.9h-3.8V27.4z M363.7,31.2h3.8v1.9
		h-3.8V31.2z M363.7,35h3.8v1.9h-3.8V35z M363.7,38.8h3.8v1.9h-3.8V38.8z M363.7,42.6h3.8v1.9h-3.8V42.6z"/>
	<path class="st3" d="M340,20.4v34.5h3.8V44.5c0-0.5,0.4-0.9,0.9-0.9h9.5c0.5,0,0.9,0.4,0.9,0.9v10.4h3.8V20.4l-9.5-6.9L340,20.4z
		 M356.1,28.4c0,3.7-3,6.6-6.6,6.6s-6.6-3-6.6-6.6s3-6.6,6.6-6.6C353.2,21.8,356.1,24.7,356.1,28.4z"/>
	<path class="st3" d="M349.5,1.9h11.4v5.7h-11.4V1.9z"/>
	<path class="st3" d="M349.5,16.1c-0.5,0-0.9-0.4-0.9-0.9V0.9c0-0.5,0.4-0.9,0.9-0.9s0.9,0.4,0.9,0.9v14.2
		C350.4,15.7,350,16.1,349.5,16.1z"/>
</g>
<g class="st6">
	<path class="st3" d="M78.7,281.2c0.7,0,1.3-0.6,1.3-1.3v-21.6c0-0.7-0.6-1.3-1.3-1.3h-8.1v-0.9c0-0.5-0.3-0.9-0.7-1.2l-7.9-4v-2.5
		l5.6-1.9c0.5-0.2,0.9-0.7,0.9-1.2c0-0.6-0.4-1.1-0.9-1.2L61,242c-0.4-0.1-0.8-0.1-1.2,0.2c-0.3,0.2-0.5,0.6-0.5,1.1v7.8l-7.9,4
		c-0.4,0.2-0.7,0.7-0.7,1.2v0.9h-8.3c-0.7,0-1.3,0.6-1.3,1.3v21.6c0,0.7,0.6,1.3,1.3,1.3h36.3V281.2z M61.9,246.1v-1.4l2.9,0.7
		L61.9,246.1z M43.7,259.6h7v19h-7V259.6z M53.3,257l7.3-3.7l7.3,3.7v21.6H53.3V257z M77.3,278.6h-6.8v-19h6.8V278.6z"/>
	<path class="st3" d="M58.6,259.2h-2.2c-0.7,0-1.3,0.6-1.3,1.3c0,0.7,0.6,1.3,1.3,1.3h2.2c0.7,0,1.3-0.6,1.3-1.3
		C59.9,259.8,59.3,259.2,58.6,259.2z"/>
	<path class="st3" d="M46.3,264h2.2c0.7,0,1.3-0.6,1.3-1.3c0-0.7-0.6-1.3-1.3-1.3h-2.2c-0.7,0-1.3,0.6-1.3,1.3S45.6,264,46.3,264z"
		/>
	<path class="st3" d="M48.4,265.7h-2.2c-0.7,0-1.3,0.6-1.3,1.3c0,0.7,0.6,1.3,1.3,1.3h2.2c0.7,0,1.3-0.6,1.3-1.3
		C49.8,266.3,49.2,265.7,48.4,265.7z"/>
	<path class="st3" d="M48.4,270h-2.2c-0.7,0-1.3,0.6-1.3,1.3c0,0.7,0.6,1.3,1.3,1.3h2.2c0.7,0,1.3-0.6,1.3-1.3
		C49.8,270.6,49.2,270,48.4,270z"/>
	<path class="st3" d="M73,264h2.2c0.7,0,1.3-0.6,1.3-1.3c0-0.7-0.6-1.3-1.3-1.3H73c-0.7,0-1.3,0.6-1.3,1.3S72.3,264,73,264z"/>
	<path class="st3" d="M73,268.3h2.2c0.7,0,1.3-0.6,1.3-1.3c0-0.7-0.6-1.3-1.3-1.3H73c-0.7,0-1.3,0.6-1.3,1.3
		C71.7,267.7,72.3,268.3,73,268.3z"/>
	<path class="st3" d="M75.1,270H73c-0.7,0-1.3,0.6-1.3,1.3c0,0.7,0.6,1.3,1.3,1.3h2.2c0.7,0,1.3-0.6,1.3-1.3S75.9,270,75.1,270z"/>
	<path class="st3" d="M65,259.2h-2.2c-0.7,0-1.3,0.6-1.3,1.3c0,0.7,0.6,1.3,1.3,1.3H65c0.7,0,1.3-0.6,1.3-1.3
		C66.3,259.8,65.8,259.2,65,259.2z"/>
	<path class="st3" d="M58.6,263.5h-2.2c-0.7,0-1.3,0.6-1.3,1.3c0,0.7,0.6,1.3,1.3,1.3h2.2c0.7,0,1.3-0.6,1.3-1.3
		C59.9,264.1,59.3,263.5,58.6,263.5z"/>
	<path class="st3" d="M65,263.5h-2.2c-0.7,0-1.3,0.6-1.3,1.3c0,0.7,0.6,1.3,1.3,1.3H65c0.7,0,1.3-0.6,1.3-1.3S65.8,263.5,65,263.5z"
		/>
	<path class="st3" d="M58.6,267.8h-2.2c-0.7,0-1.3,0.6-1.3,1.3s0.6,1.3,1.3,1.3h2.2c0.7,0,1.3-0.6,1.3-1.3S59.3,267.8,58.6,267.8z"
		/>
	<path class="st3" d="M65,267.8h-2.2c-0.7,0-1.3,0.6-1.3,1.3s0.6,1.3,1.3,1.3H65c0.7,0,1.3-0.6,1.3-1.3S65.8,267.8,65,267.8z"/>
</g>
<g class="st6">
	<path class="st3" d="M232.2,573.7c0.7,0,1.3-0.6,1.3-1.3v-21.6c0-0.7-0.6-1.3-1.3-1.3h-8.1v-0.9c0-0.5-0.3-0.9-0.7-1.2l-7.9-4v-2.5
		l5.6-1.9c0.5-0.2,0.9-0.7,0.9-1.2c0-0.6-0.4-1.1-0.9-1.2l-6.5-2.2c-0.4-0.1-0.8-0.1-1.2,0.2c-0.3,0.2-0.5,0.6-0.5,1.1v7.8l-7.9,4
		c-0.4,0.2-0.7,0.7-0.7,1.2v0.9H196c-0.7,0-1.3,0.6-1.3,1.3v21.6c0,0.7,0.6,1.3,1.3,1.3L232.2,573.7L232.2,573.7z M215.4,538.5v-1.4
		l2.9,0.7L215.4,538.5z M197.2,552.1h7v19h-7V552.1z M206.8,549.4l7.3-3.7l7.3,3.7V571h-14.7L206.8,549.4L206.8,549.4z M230.9,571.1
		h-6.8v-19h6.8V571.1z"/>
	<path class="st3" d="M212.1,551.6h-2.2c-0.7,0-1.3,0.6-1.3,1.3s0.6,1.3,1.3,1.3h2.2c0.7,0,1.3-0.6,1.3-1.3
		C213.4,552.2,212.8,551.6,212.1,551.6z"/>
	<path class="st3" d="M199.8,556.4h2.2c0.7,0,1.3-0.6,1.3-1.3s-0.6-1.3-1.3-1.3h-2.2c-0.7,0-1.3,0.6-1.3,1.3
		C198.5,555.8,199.1,556.4,199.8,556.4z"/>
	<path class="st3" d="M202,558.1h-2.2c-0.7,0-1.3,0.6-1.3,1.3s0.6,1.3,1.3,1.3h2.2c0.7,0,1.3-0.6,1.3-1.3S202.7,558.1,202,558.1z"/>
	<path class="st3" d="M202,562.4h-2.2c-0.7,0-1.3,0.6-1.3,1.3s0.6,1.3,1.3,1.3h2.2c0.7,0,1.3-0.6,1.3-1.3S202.7,562.4,202,562.4z"/>
	<path class="st3" d="M226.5,556.4h2.2c0.7,0,1.3-0.6,1.3-1.3s-0.6-1.3-1.3-1.3h-2.2c-0.7,0-1.3,0.6-1.3,1.3
		C225.2,555.8,225.8,556.4,226.5,556.4z"/>
	<path class="st3" d="M226.5,560.7h2.2c0.7,0,1.3-0.6,1.3-1.3s-0.6-1.3-1.3-1.3h-2.2c-0.7,0-1.3,0.6-1.3,1.3
		S225.8,560.7,226.5,560.7z"/>
	<path class="st3" d="M228.7,562.4h-2.2c-0.7,0-1.3,0.6-1.3,1.3s0.6,1.3,1.3,1.3h2.2c0.7,0,1.3-0.6,1.3-1.3S229.4,562.4,228.7,562.4
		z"/>
	<path class="st3" d="M218.6,551.6h-2.2c-0.7,0-1.3,0.6-1.3,1.3s0.6,1.3,1.3,1.3h2.2c0.7,0,1.3-0.6,1.3-1.3
		C219.9,552.2,219.3,551.6,218.6,551.6z"/>
	<path class="st3" d="M212.1,555.9h-2.2c-0.7,0-1.3,0.6-1.3,1.3s0.6,1.3,1.3,1.3h2.2c0.7,0,1.3-0.6,1.3-1.3S212.8,555.9,212.1,555.9
		z"/>
	<path class="st3" d="M218.6,555.9h-2.2c-0.7,0-1.3,0.6-1.3,1.3s0.6,1.3,1.3,1.3h2.2c0.7,0,1.3-0.6,1.3-1.3S219.3,555.9,218.6,555.9
		z"/>
	<path class="st3" d="M212.1,560.3h-2.2c-0.7,0-1.3,0.6-1.3,1.3s0.6,1.3,1.3,1.3h2.2c0.7,0,1.3-0.6,1.3-1.3S212.8,560.3,212.1,560.3
		z"/>
	<path class="st3" d="M218.6,560.3h-2.2c-0.7,0-1.3,0.6-1.3,1.3s0.6,1.3,1.3,1.3h2.2c0.7,0,1.3-0.6,1.3-1.3S219.3,560.3,218.6,560.3
		z"/>
</g>
<g class="st6">
	<path class="st3" d="M377.1,281.2c0.7,0,1.3-0.6,1.3-1.3v-21.6c0-0.7-0.6-1.3-1.3-1.3H369v-0.9c0-0.5-0.3-0.9-0.7-1.2l-7.9-4v-2.5
		l5.6-1.9c0.5-0.2,0.9-0.7,0.9-1.2c0-0.6-0.4-1.1-0.9-1.2l-6.5-2.2c-0.4-0.1-0.8-0.1-1.2,0.2c-0.3,0.2-0.5,0.6-0.5,1.1v7.8l-7.9,4
		c-0.4,0.2-0.7,0.7-0.7,1.2v0.9h-8.3c-0.7,0-1.3,0.6-1.3,1.3V280c0,0.7,0.6,1.3,1.3,1.3h36.2V281.2z M360.3,246.1v-1.4l2.9,0.7
		L360.3,246.1z M342.1,259.6h7v19h-7V259.6z M351.7,257l7.3-3.7l7.3,3.7v21.6h-14.7V257H351.7z M375.8,278.6H369v-19h6.8V278.6z"/>
	<path class="st3" d="M357,259.2h-2.2c-0.7,0-1.3,0.6-1.3,1.3c0,0.7,0.6,1.3,1.3,1.3h2.2c0.7,0,1.3-0.6,1.3-1.3
		C358.3,259.8,357.7,259.2,357,259.2z"/>
	<path class="st3" d="M344.7,264h2.2c0.7,0,1.3-0.6,1.3-1.3c0-0.7-0.6-1.3-1.3-1.3h-2.2c-0.7,0-1.3,0.6-1.3,1.3
		C343.4,263.4,344,264,344.7,264z"/>
	<path class="st3" d="M346.9,265.7h-2.2c-0.7,0-1.3,0.6-1.3,1.3c0,0.7,0.6,1.3,1.3,1.3h2.2c0.7,0,1.3-0.6,1.3-1.3
		C348.2,266.3,347.6,265.7,346.9,265.7z"/>
	<path class="st3" d="M346.9,270h-2.2c-0.7,0-1.3,0.6-1.3,1.3c0,0.7,0.6,1.3,1.3,1.3h2.2c0.7,0,1.3-0.6,1.3-1.3
		C348.2,270.6,347.6,270,346.9,270z"/>
	<path class="st3" d="M371.4,264h2.2c0.7,0,1.3-0.6,1.3-1.3c0-0.7-0.6-1.3-1.3-1.3h-2.2c-0.7,0-1.3,0.6-1.3,1.3S370.7,264,371.4,264
		z"/>
	<path class="st3" d="M371.4,268.3h2.2c0.7,0,1.3-0.6,1.3-1.3c0-0.7-0.6-1.3-1.3-1.3h-2.2c-0.7,0-1.3,0.6-1.3,1.3
		C370.1,267.7,370.7,268.3,371.4,268.3z"/>
	<path class="st3" d="M373.6,270h-2.2c-0.7,0-1.3,0.6-1.3,1.3c0,0.7,0.6,1.3,1.3,1.3h2.2c0.7,0,1.3-0.6,1.3-1.3S374.3,270,373.6,270
		z"/>
	<path class="st3" d="M363.5,259.2h-2.2c-0.7,0-1.3,0.6-1.3,1.3c0,0.7,0.6,1.3,1.3,1.3h2.2c0.7,0,1.3-0.6,1.3-1.3
		C364.8,259.8,364.2,259.2,363.5,259.2z"/>
	<path class="st3" d="M357,263.5h-2.2c-0.7,0-1.3,0.6-1.3,1.3c0,0.7,0.6,1.3,1.3,1.3h2.2c0.7,0,1.3-0.6,1.3-1.3
		S357.7,263.5,357,263.5z"/>
	<path class="st3" d="M363.5,263.5h-2.2c-0.7,0-1.3,0.6-1.3,1.3c0,0.7,0.6,1.3,1.3,1.3h2.2c0.7,0,1.3-0.6,1.3-1.3
		S364.2,263.5,363.5,263.5z"/>
	<path class="st3" d="M357,267.8h-2.2c-0.7,0-1.3,0.6-1.3,1.3s0.6,1.3,1.3,1.3h2.2c0.7,0,1.3-0.6,1.3-1.3S357.7,267.8,357,267.8z"/>
	<path class="st3" d="M363.5,267.8h-2.2c-0.7,0-1.3,0.6-1.3,1.3s0.6,1.3,1.3,1.3h2.2c0.7,0,1.3-0.6,1.3-1.3S364.2,267.8,363.5,267.8
		z"/>
</g>
<polygon id="XMLID_63_" class="st10" points="350.7,792.3 352.2,792.3 352.2,790 356,790 356,802.3 352.2,802.3 352.2,798.9 
	354.7,798.9 354.7,793.6 344.4,793.6 344.4,798.9 346.8,798.9 346.8,802.3 343.1,802.3 343.1,790 346.9,790 346.9,792.3 
	348.4,792.3 348.4,788.4 341.5,788.4 341.5,803.9 348.4,803.9 348.4,797.3 346,797.3 346,795.2 353.1,795.2 353.1,797.3 
	350.7,797.3 350.7,803.9 357.6,803.9 357.6,788.4 350.7,788.4 "/>
<g>
	<g>
		<g>
			<path class="st3" d="M234,751.3c0.2-0.5,0.3-1,0.1-1.5s-0.5-0.9-1-1.2l-4.5-2.3c-0.1-0.1-0.2-0.2-0.3-0.4l-0.8-5
				c-0.2-1-1-1.7-2-1.7c-0.1,0-0.2,0-0.3,0l-5,0.8c-0.2,0-0.3,0-0.4-0.1l-3.6-3.6c-0.4-0.4-0.9-0.6-1.4-0.6s-1,0.2-1.4,0.6l-3.6,3.6
				c-0.1,0.1-0.3,0.2-0.4,0.1l-5-0.8c-0.1,0-0.2,0-0.3,0c-1,0-1.8,0.7-2,1.7l-0.8,5c0,0.2-0.1,0.3-0.3,0.4l-4.5,2.3
				c-0.5,0.2-0.8,0.7-1,1.2s-0.1,1.1,0.1,1.5l2.3,4.5c0.1,0.1,0.1,0.3,0,0.5l-2.3,4.5c-0.2,0.5-0.3,1-0.1,1.5s0.5,0.9,1,1.2l4.5,2.3
				c0.1,0.1,0.2,0.2,0.3,0.4l0.8,5c0.2,1,1,1.7,2,1.7c0.1,0,0.2,0,0.3,0l5-0.8c0.2,0,0.3,0,0.4,0.1l3.6,3.6c0.4,0.4,0.9,0.6,1.4,0.6
				s1-0.2,1.4-0.6l3.6-3.6c0.1-0.1,0.3-0.2,0.4-0.1l5,0.8c0.1,0,0.2,0,0.3,0c1,0,1.8-0.7,2-1.7l0.8-5c0-0.2,0.1-0.3,0.3-0.4l4.5-2.3
				c0.5-0.2,0.8-0.7,1-1.2s0.1-1.1-0.1-1.5l-2.3-4.5c-0.1-0.1-0.1-0.3,0-0.5L234,751.3z M230.4,756.9l2.3,4.5c0.1,0.1,0.1,0.3,0,0.4
				c0,0.1-0.1,0.2-0.3,0.3l-4.5,2.3c-0.6,0.3-1,0.8-1.1,1.5l-0.8,5c0,0.3-0.3,0.5-0.6,0.4l-5-0.8c-0.1,0-0.2,0-0.3,0
				c-0.5,0-1,0.2-1.4,0.6l-3.6,3.6c-0.2,0.2-0.5,0.2-0.7,0L211,771c-0.4-0.4-0.9-0.6-1.4-0.6c-0.1,0-0.2,0-0.3,0l-5,0.8
				c-0.3,0-0.5-0.2-0.6-0.4l-0.8-5c-0.1-0.6-0.5-1.2-1.1-1.5l-4.5-2.3c-0.1-0.1-0.2-0.2-0.3-0.3c0-0.1,0-0.3,0-0.4l2.3-4.5
				c0.3-0.6,0.3-1.3,0-1.8l-2.3-4.5c-0.1-0.1-0.1-0.3,0-0.4s0.1-0.2,0.3-0.3l4.5-2.3c0.6-0.3,1-0.8,1.1-1.5l0.8-5
				c0-0.3,0.3-0.5,0.6-0.4l5,0.8c0.1,0,0.2,0,0.3,0l0,0c0.5,0,1-0.2,1.4-0.6l3.6-3.6c0.2-0.2,0.5-0.2,0.7,0l3.6,3.6
				c0.4,0.5,1.1,0.7,1.7,0.6l5-0.8c0.3,0,0.5,0.2,0.6,0.4l0.8,5c0.1,0.6,0.5,1.2,1.1,1.5l4.5,2.3c0.1,0.1,0.2,0.2,0.3,0.3
				c0,0.1,0,0.3,0,0.4l-2.3,4.5C230.1,755.6,230.1,756.3,230.4,756.9z"/>
			<path class="st3" d="M220.8,747.5c0.1,0.1,0.3,0.1,0.4,0.1c0.2,0,0.5-0.1,0.6-0.3c0.2-0.3,0.1-0.8-0.2-1s-0.8-0.1-1,0.2
				C220.4,746.8,220.5,747.2,220.8,747.5z"/>
			<path class="st3" d="M223.2,749.4c0.2,0,0.4-0.1,0.5-0.2c0.3-0.3,0.3-0.7,0.1-1.1c-0.3-0.3-0.8-0.3-1.1-0.1
				c-0.3,0.3-0.3,0.7-0.1,1.1C222.8,749.3,223,749.4,223.2,749.4z"/>
			<path class="st3" d="M218.6,765.6c-0.4,0.1-0.6,0.6-0.4,1c0.1,0.3,0.4,0.5,0.7,0.5c0.1,0,0.2,0,0.3,0c0.4-0.1,0.6-0.6,0.4-1
				C219.4,765.7,219,765.5,218.6,765.6z"/>
			<path class="st3" d="M220.8,764.4c-0.3,0.2-0.4,0.7-0.2,1c0.1,0.2,0.4,0.3,0.6,0.3c0.1,0,0.3,0,0.4-0.1c0.3-0.2,0.4-0.7,0.2-1
				C221.6,764.3,221.2,764.2,220.8,764.4z"/>
			<path class="st3" d="M211.3,765.6c-0.4-0.1-0.8,0-1,0.4s0,0.8,0.4,1c0.1,0,0.2,0,0.3,0c0.3,0,0.6-0.2,0.7-0.5
				C211.9,766.2,211.7,765.8,211.3,765.6z"/>
			<path class="st3" d="M216.2,766.2c-0.4,0-0.7,0.4-0.7,0.8c0,0.4,0.4,0.7,0.7,0.7h0.1c0.4,0,0.7-0.4,0.7-0.8
				C217,766.4,216.6,766.1,216.2,766.2z"/>
			<path class="st3" d="M213.7,766.2L213.7,766.2c-0.4,0-0.8,0.2-0.8,0.7c0,0.4,0.2,0.8,0.7,0.8h0.1c0.4,0,0.7-0.3,0.7-0.7
				S214.1,766.3,213.7,766.2z"/>
			<path class="st3" d="M225,753.5L225,753.5c0.1,0.3,0.4,0.6,0.7,0.6c0.1,0,0.1,0,0.2,0c0.4-0.1,0.6-0.5,0.5-0.9s-0.5-0.6-0.9-0.5
				C225.1,752.7,224.9,753.1,225,753.5z"/>
			<path class="st3" d="M226,755.2c-0.4,0-0.8,0.3-0.8,0.8s0.3,0.8,0.8,0.7c0.4,0,0.8-0.3,0.7-0.8
				C226.8,755.5,226.4,755.2,226,755.2z"/>
			<path class="st3" d="M225.9,757.9c-0.4-0.1-0.8,0.1-0.9,0.5c-0.1,0.4,0.1,0.8,0.5,0.9c0.1,0,0.1,0,0.2,0c0.3,0,0.6-0.2,0.7-0.6
				C226.5,758.4,226.3,758,225.9,757.9z"/>
			<path class="st3" d="M224.7,751.6c0.1,0,0.2,0,0.3-0.1c0.4-0.2,0.5-0.6,0.3-1s-0.6-0.5-1-0.3s-0.5,0.6-0.3,1
				C224.2,751.4,224.5,751.6,224.7,751.6z"/>
			<path class="st3" d="M222.7,762.8c-0.3,0.3-0.2,0.8,0.1,1.1c0.1,0.1,0.3,0.2,0.5,0.2s0.4-0.1,0.6-0.3c0.3-0.3,0.2-0.8-0.1-1.1
				C223.4,762.4,222.9,762.5,222.7,762.8z"/>
			<path class="st3" d="M225.1,760.4c-0.4-0.2-0.8,0-1,0.3c-0.2,0.4,0,0.8,0.3,1c0.1,0.1,0.2,0.1,0.3,0.1c0.3,0,0.5-0.1,0.7-0.4
				C225.6,761.1,225.5,760.6,225.1,760.4z"/>
			<path class="st3" d="M206.7,749.4c0.2,0,0.4-0.1,0.6-0.2c0.3-0.3,0.2-0.8-0.1-1.1s-0.8-0.2-1.1,0.1s-0.2,0.8,0.1,1.1
				C206.3,749.3,206.5,749.4,206.7,749.4z"/>
			<path class="st3" d="M204.8,760.5c-0.4,0.2-0.5,0.6-0.3,1c0.1,0.3,0.4,0.4,0.7,0.4c0.1,0,0.2,0,0.3-0.1c0.4-0.2,0.5-0.6,0.3-1
				S205.2,760.3,204.8,760.5z"/>
			<path class="st3" d="M204.9,758.5c-0.1-0.4-0.5-0.6-0.9-0.5s-0.6,0.5-0.5,0.9c0.1,0.3,0.4,0.6,0.7,0.6c0.1,0,0.1,0,0.2,0
				C204.8,759.3,205,758.9,204.9,758.5z"/>
			<path class="st3" d="M204,754c0.1,0,0.1,0,0.2,0c0.3,0,0.6-0.2,0.7-0.6c0.1-0.4-0.1-0.8-0.5-0.9c-0.4-0.1-0.8,0.1-0.9,0.5
				C203.4,753.5,203.6,753.9,204,754z"/>
			<path class="st3" d="M203.9,756.7c0.4,0,0.7-0.3,0.7-0.8l0,0l0,0c0-0.4-0.3-0.8-0.8-0.8c-0.4,0-0.7,0.3-0.7,0.8l0,0l0,0
				C203.1,756.4,203.5,756.7,203.9,756.7L203.9,756.7z"/>
			<path class="st3" d="M204.8,751.5c0.1,0.1,0.2,0.1,0.3,0.1c0.3,0,0.5-0.1,0.7-0.4c0.2-0.4,0-0.8-0.3-1c-0.4-0.2-0.8,0-1,0.3
				C204.3,750.8,204.4,751.3,204.8,751.5z"/>
			<path class="st3" d="M206.2,762.8c-0.3,0.3-0.3,0.8-0.1,1.1c0.1,0.2,0.4,0.2,0.6,0.2c0.2,0,0.4-0.1,0.5-0.2
				c0.3-0.3,0.3-0.8,0.1-1.1C207,762.5,206.5,762.5,206.2,762.8z"/>
			<path class="st3" d="M213.6,745.7L213.6,745.7c0.5-0.1,0.8-0.4,0.7-0.8c0-0.4-0.4-0.7-0.8-0.7s-0.7,0.4-0.7,0.8
				C212.9,745.4,213.2,745.7,213.6,745.7z"/>
			<path class="st3" d="M216.2,745.7L216.2,745.7c0.5,0,0.8-0.3,0.8-0.7s-0.2-0.8-0.7-0.8c-0.4,0-0.8,0.2-0.8,0.7
				C215.5,745.3,215.8,745.7,216.2,745.7z"/>
			<path class="st3" d="M218.6,746.3c0.1,0,0.2,0,0.3,0c0.3,0,0.6-0.2,0.7-0.5c0.1-0.4,0-0.8-0.4-1c-0.4-0.1-0.8,0-1,0.4
				S218.2,746.2,218.6,746.3z"/>
			<path class="st3" d="M211,746.4c0.1,0,0.2,0,0.3,0c0.4-0.1,0.6-0.6,0.4-1c-0.1-0.4-0.6-0.6-1-0.4l0,0c-0.4,0.1-0.6,0.6-0.4,1
				C210.4,746.2,210.7,746.4,211,746.4z"/>
			<path class="st3" d="M209.1,764.5c-0.3-0.2-0.8-0.1-1,0.2s-0.1,0.8,0.2,1c0.1,0.1,0.3,0.1,0.4,0.1c0.2,0,0.5-0.1,0.6-0.3
				C209.5,765.2,209.4,764.7,209.1,764.5z"/>
			<path class="st3" d="M208.6,747.6c0.1,0,0.3,0,0.4-0.1c0.3-0.2,0.4-0.7,0.2-1s-0.7-0.4-1-0.2s-0.4,0.7-0.2,1
				C208.2,747.5,208.4,747.6,208.6,747.6z"/>
		</g>
	</g>
	<g>
		<path class="st3" d="M200.3,760h29.3c1.7,0,3.1-1.4,3.1-3.1c0-1.2-0.7-2.2-1.7-2.7v-3.4c0-0.4-0.2-0.8-0.6-0.9l-15-7.2
			c-0.3-0.1-0.6-0.1-0.9,0l-15,7.2c-0.4,0.2-0.6,0.5-0.6,0.9v3.4c-1,0.5-1.7,1.5-1.7,2.7C197.2,758.7,198.6,760,200.3,760z
			 M214.9,747.8c1.1,0,2,0.9,2,2s-0.9,2-2,2s-2-0.9-2-2S213.8,747.8,214.9,747.8z"/>
		<path class="st3" d="M229.4,771.6h-0.5l0.4-4c0.1-1.2,0.1-2.4,0-3.6l-0.2-1.9h-6.8l-0.2,1.9c-0.1,1.2-0.1,2.4,0,3.6l0.4,4H218
			l0.4-4c0.1-1.2,0.1-2.4,0-3.6l-0.2-1.9h-6.8l-0.2,1.9c-0.1,1.2-0.1,2.4,0,3.6l0.4,4h-4.5l0.4-4c0.1-1.2,0.1-2.4,0-3.6l-0.2-1.9
			h-6.8l-0.2,1.9c-0.1,1.2-0.1,2.4,0,3.6l0.4,4h-0.5c-1.8,0-3.2,1.5-3.2,3.2s1.5,3.2,3.2,3.2h29c1.8,0,3.2-1.5,3.2-3.2
			S231.2,771.6,229.4,771.6z"/>
	</g>
</g>
</svg>
