<?xml version="1.0" encoding="utf-8"?>
<!-- Generator: Adobe Illustrator 22.1.0, SVG Export Plug-In . SVG Version: 6.00 Build 0)  -->
<svg version="1.1" id="租金分红" xmlns="http://www.w3.org/2000/svg" xmlns:xlink="http://www.w3.org/1999/xlink" x="0px"
	 y="0px" viewBox="0 0 1072 186" style="enable-background:new 0 0 1072 186;" xml:space="preserve">
<style type="text/css">
	.st0{fill:none;stroke:#90A7AB;}
	.st1{fill:#9FE7DD;stroke:#34B9A1;stroke-width:2;}
	.st2{fill:none;stroke:#456E68;stroke-width:1.5;stroke-miterlimit:10;}
	.st3{enable-background:new    ;}
	.st4{fill:#456E68;}
	.st5{fill:#456E68;stroke:#456E68;stroke-width:0.25;stroke-miterlimit:10;}
	.st6{fill:#17161F;}
	.st7{stroke:#000000;stroke-width:0.25;stroke-miterlimit:10;}
</style>
<g id="组_29">
	<path id="形状_1" class="st0" d="M122.8,82.9h132.5l-4.8-5.5"/>
	<path id="形状_1_拷贝_6" class="st0" d="M255.1,103.1H122.8l4.8,5.5"/>
</g>
<path id="形状_1_拷贝_7" class="st0" d="M786.9,88.4h132.5l-4.8-5.5"/>
<g id="组_29_拷贝">
	<path id="形状_1-2" class="st0" d="M489.3,81h132.5l-4.8-5.5"/>
	<path id="形状_1_拷贝_6-2" class="st0" d="M621.6,101.3H489.3l4.8,5.5"/>
</g>
<circle id="椭圆_6" class="st1" cx="377.3" cy="93" r="91.8"/>
<g>
	<circle class="st2" cx="56" cy="65.3" r="15.3"/>
	<line class="st2" x1="43.7" y1="89.3" x2="56" y2="103.3"/>
	<line class="st2" x1="68" y1="89.3" x2="56" y2="103.3"/>
	<line class="st2" x1="56" y1="117.3" x2="56" y2="103.3"/>
	<path class="st2" d="M88.9,109.3v3.3c0,3-2.5,5.5-5.5,5.5H28.6c-3,0-5.5-2.5-5.5-5.5v-3.3"/>
	<path class="st2" d="M28.6,103.8"/>
	<path class="st2" d="M23.1,110.8c0-12.4,10.2-21.9,22.6-21.9h20.6c12.4,0,22.5,10.1,22.5,22.5l0,0"/>
</g>
<g class="st3">
	<path class="st4" d="M740.7,50h-10v10h10V50z M737.4,56.6h-3.3v-3.3h3.3V56.6z"/>
	<path class="st4" d="M754,50h-10v10h10V50z M750.7,56.6h-3.3v-3.3h3.3V56.6z"/>
	<path class="st4" d="M740.7,63.3h-10v10h10V63.3z M737.4,69.9h-3.3v-3.3h3.3V69.9z"/>
	<path class="st4" d="M754,63.3h-10v10h10V63.3z M750.7,69.9h-3.3v-3.3h3.3V69.9z"/>
	<path class="st4" d="M740.7,86.5v-10h-10v10H740.7z M734.1,79.9h3.3v3.3h-3.3V79.9z"/>
	<path class="st4" d="M754,76.6h-10v10h10V76.6z M750.7,83.2h-3.3v-3.3h3.3V83.2z"/>
	<path class="st4" d="M764,46.7v-3.3h-3.3v-6.6h-3.3v-6.6h-29.9v6.6h-3.3v6.6h-3.3v3.3h3.3v43.2h-13.3v-20h3.3V60h-3.3v-2.5
		l-23.3-16.1l-10,6.9v-5.1h-10v12l-3.3,2.3V60H661v10h3.3v20.3c-1.9,0.7-3.3,2.5-3.3,4.6v3.3c0,2.7,2.3,5,5,5h32.4
		c-2.6,3.2-4.2,7.2-4.2,11.6c0,10.1,8.2,18.3,18.3,18.3s18.3-8.1,18.3-18.2c0-4.4-1.5-8.4-4.2-11.6H759c2.7,0,5-2.3,5-5V95
		c0-2.1-1.4-4-3.3-4.6V46.7H764z M730.8,33.4H754v3.3h-23.3L730.8,33.4L730.8,33.4z M727.5,40h29.9v3.3h-29.9V40z M671,46.4h3.3v4.2
		l-3.3,2.3V46.4z M667.6,59.3l19.9-13.8l19.9,13.8v0.8h-39.9L667.6,59.3L667.6,59.3z M664.3,63.3h46.5v3.3h-46.5V63.3z M707.5,69.9
		v19.9h-13.3V73.3h-13.3v16.6h-13.3v-20H707.5z M690.9,89.9h-6.6V76.6h6.6V89.9z M712.5,129.7c-8.2,0-15-6.8-15-15s6.8-15,15-15
		s15,6.8,15,15C727.5,123.1,720.8,129.7,712.5,129.7z M760.7,98.2c0,0.9-0.7,1.7-1.7,1.7h-36.1c-3-2.1-6.5-3.3-10.4-3.3
		s-7.5,1.2-10.4,3.3H666c-0.9,0-1.7-0.7-1.7-1.7v-3.3c0-0.9,0.7-1.7,1.7-1.7h93c0.9,0,1.7,0.7,1.7,1.7V98.2z M757.4,89.9h-29.9V46.7
		h29.9V89.9z"/>
</g>
<g class="st3">
	<g>
		<g>
			<path class="st4" d="M964,53h-12.6c-0.9,0-1.6,0.7-1.6,1.6V61c0,0.9,0.7,1.6,1.6,1.6H964c0.9,0,1.6-0.7,1.6-1.6v-6.4
				C965.4,53.7,964.9,53,964,53z M955.9,59.4h-3.1v-3.1h3.1V59.4z M962.3,59.4h-3.1v-3.1h3.1V59.4z"/>
		</g>
	</g>
	<g>
		<g>
			<path class="st4" d="M964,65.6h-12.6c-0.9,0-1.6,0.7-1.6,1.6v6.4c0,0.9,0.7,1.6,1.6,1.6H964c0.9,0,1.6-0.7,1.6-1.6v-6.4
				C965.4,66.3,964.9,65.6,964,65.6z M955.9,72h-3.1v-3.1h3.1V72z M962.3,72h-3.1v-3.1h3.1V72z"/>
		</g>
	</g>
	<g>
		<g>
			<path class="st4" d="M964,78.4h-12.6c-0.9,0-1.6,0.7-1.6,1.6v6.2c0,0.9,0.7,1.6,1.6,1.6H964c0.9,0,1.6-0.7,1.6-1.6v-6.4
				C965.4,79,964.9,78.4,964,78.4z M955.9,84.6h-3.1v-3.1h3.1V84.6z M962.3,84.6h-3.1v-3.1h3.1V84.6z"/>
		</g>
	</g>
	<g>
		<g>
			<path class="st4" d="M1021,53h-12.6c-0.9,0-1.6,0.7-1.6,1.6V61c0,0.9,0.7,1.6,1.6,1.6h12.6c0.9,0,1.6-0.7,1.6-1.6v-6.4
				C1022.5,53.7,1021.9,53,1021,53z M1013,59.4h-3.1v-3.1h3.1V59.4z M1019.3,59.4h-3.1v-3.1h3.1V59.4z"/>
		</g>
	</g>
	<g>
		<g>
			<path class="st4" d="M1021,40.4h-12.6c-0.9,0-1.6,0.7-1.6,1.6v6.4c0,0.9,0.7,1.6,1.6,1.6h12.6c0.9,0,1.6-0.7,1.6-1.6V42
				C1022.5,40.9,1021.9,40.4,1021,40.4z M1013,46.6h-3.1v-3.1h3.1V46.6z M1019.3,46.6h-3.1v-3.1h3.1V46.6z"/>
		</g>
	</g>
	<g>
		<g>
			<path class="st4" d="M983,59.4h-6.4c-0.9,0-1.6,0.7-1.6,1.6v6.4c0,0.9,0.7,1.6,1.6,1.6h6.4c0.9,0,1.6-0.7,1.6-1.6V61
				C984.5,60,983.9,59.4,983,59.4z M981.3,65.6h-3.1v-3.1h3.1V65.6z"/>
		</g>
	</g>
	<g>
		<g>
			<path class="st4" d="M995.6,59.4h-6.4c-0.9,0-1.6,0.7-1.6,1.6v6.4c0,0.9,0.7,1.6,1.6,1.6h6.4c0.9,0,1.6-0.7,1.6-1.6V61
				C997.2,60,996.5,59.4,995.6,59.4z M994,65.6h-3.1v-3.1h3.1V65.6z"/>
		</g>
	</g>
	<g>
		<g>
			<path class="st4" d="M983,46.6h-6.4c-0.9,0-1.6,0.7-1.6,1.6v6.4c0,0.9,0.7,1.6,1.6,1.6h6.4c0.9,0,1.6-0.7,1.6-1.6v-6.4
				C984.5,47.3,983.9,46.6,983,46.6z M981.3,53h-3.1v-3.1h3.1V53z"/>
		</g>
	</g>
	<g>
		<g>
			<path class="st4" d="M995.6,46.6h-6.4c-0.9,0-1.6,0.7-1.6,1.6v6.4c0,0.9,0.7,1.6,1.6,1.6h6.4c0.9,0,1.6-0.7,1.6-1.6v-6.4
				C997.2,47.3,996.5,46.6,995.6,46.6z M994,53h-3.1v-3.1h3.1V53z"/>
		</g>
	</g>
	<g>
		<g>
			<path class="st4" d="M983,34h-6.4c-0.9,0-1.6,0.7-1.6,1.6V42c0,0.9,0.7,1.6,1.6,1.6h6.4c0.9,0,1.6-0.7,1.6-1.6v-6.4
				C984.5,34.7,983.9,34,983,34z M981.3,40.4h-3.1v-3.1h3.1V40.4z"/>
		</g>
	</g>
	<g>
		<g>
			<path class="st4" d="M995.6,34h-6.4c-0.9,0-1.6,0.7-1.6,1.6V42c0,0.9,0.7,1.6,1.6,1.6h6.4c0.9,0,1.6-0.7,1.6-1.6v-6.4
				C997.2,34.7,996.5,34,995.6,34z M994,40.4h-3.1v-3.1h3.1V40.4z"/>
		</g>
	</g>
	<g>
		<g>
			<path class="st4" d="M983,78.4h-6.4c-0.9,0-1.6,0.7-1.6,1.6v6.2c0,0.9,0.7,1.6,1.6,1.6h6.4c0.9,0,1.6-0.7,1.6-1.6v-6.4
				C984.5,79,983.9,78.4,983,78.4z M981.3,84.6h-3.1v-3.1h3.1V84.6z"/>
		</g>
	</g>
	<g>
		<g>
			<rect x="949.7" y="91" class="st4" width="3.1" height="3.1"/>
		</g>
	</g>
	<g>
		<g>
			<rect x="955.9" y="91" class="st4" width="3.1" height="3.1"/>
		</g>
	</g>
	<g>
		<g>
			<rect x="962.3" y="91" class="st4" width="3.1" height="3.1"/>
		</g>
	</g>
	<g>
		<g>
			<path class="st4" d="M1036.7,72h-7.9V35.6c0-0.9-0.7-1.6-1.6-1.6h-11.1v-2.5l1.6-1.6c1.3,1,3,1.6,4.6,1.6c2.1,0,4-0.7,5.5-2.2
				l0.3-0.3c0.6-0.6,0.6-1.6,0-2.2l-3.6-3.6l3.6-3.6l-2.2-2.2l-3.6,3.6l-5.2-5.2c-0.3-0.3-0.7-0.4-1.2-0.4c-0.6,0-1,0.3-1.3,0.6
				c-1.6,1.5-2.5,3.4-2.5,5.5s0.7,4.3,2.4,5.8l0.7,0.7l-2.1,2.1c-0.3,0.3-0.4,0.7-0.4,1.2v3.1h-9.5v-5c0-0.9-0.7-1.6-1.6-1.6H996
				l-9.1-12c-0.6-0.7-1.9-0.7-2.5,0l-9.1,12h-5.5c-0.9,0-1.6,0.7-1.6,1.6v17.4h-9.5V34h-3.1v12.6h-11.1c-0.9,0-1.6,0.7-1.6,1.6v60.1
				c0,0.9,0.7,1.6,1.6,1.6h25.4H981h12.6h1.6h9.5h25.4c4.3,0,7.9-3.6,7.9-7.9V73.6C1038.4,72.7,1037.6,72,1036.7,72z M968.7,106.9
				h-22.1v-57h22.1V106.9z M1016.2,18.8l8.6,8.6c-1.8,1-4.2,0.9-5.8-0.7l-2.2-2.2c-0.9-0.9-1.5-2.1-1.3-3.4
				C1015.6,20.3,1015.8,19.6,1016.2,18.8z M986.1,19.1l6.4,8.5h-12.6L986.1,19.1z M979.7,94.1v12.6h-7.9V48.2V30.9h28.5v4.8v28.5
				h3.1v-27h22.1V72h-3.1v-1.6c0-2.7-2.1-4.8-4.8-4.8h-9.5c-2.7,0-4.8,2.1-4.8,4.8V72H989c-0.9,0-1.6,0.7-1.6,1.6V91h-12.6v3.1
				H979.7z M1019.3,70.4V72h-12.6v-1.6c0-0.9,0.7-1.6,1.6-1.6h9.5C1018.6,68.9,1019.3,69.5,1019.3,70.4z M983,106.9V94.3h4.8v7.9
				c0,1.8,0.6,3.4,1.6,4.8H983V106.9z M1035.2,102.1c0,2.7-2.1,4.8-4.8,4.8H1005h-9.5c-2.7,0-4.8-2.1-4.8-4.8V86.2
				c1.3,1,3,1.6,4.8,1.6h1.6v4.8c0,0.9,0.7,1.6,1.6,1.6h6.4c0.9,0,1.6-0.7,1.6-1.6v-4.8h1.6h9.5h1.6v4.8c0,0.9,0.7,1.6,1.6,1.6h6.4
				c0.9,0,1.6-0.7,1.6-1.6v-4.8h1.6c1.8,0,3.4-0.6,4.8-1.6v15.9H1035.2z M1000.3,91v-3.1h3.1V91H1000.3z M1009.8,84.6v-3.1h6.4v3.1
				H1009.8z M1022.5,91v-3.1h3.1V91H1022.5z M1035.2,79.9c0,2.7-2.1,4.8-4.8,4.8h-3.1h-6.4h-1.6v-4.8c0-0.9-0.7-1.6-1.6-1.6h-9.5
				c-0.9,0-1.6,0.7-1.6,1.6v4.8h-1.6h-6.4h-3.1c-2.7,0-4.8-2.1-4.8-4.8v-4.8h44.4L1035.2,79.9L1035.2,79.9z"/>
		</g>
	</g>
	<g>
		<g>
			<rect x="1028.9" y="100.5" class="st4" width="3.1" height="3.1"/>
		</g>
	</g>
	<g>
		<g>
			<rect x="1022.5" y="100.5" class="st4" width="3.1" height="3.1"/>
		</g>
	</g>
	<g>
		<g>
			<rect x="1016.2" y="100.5" class="st4" width="3.1" height="3.1"/>
		</g>
	</g>
</g>
<g>
	<path class="st4" d="M706.7,122.5v-1.8c1.9-0.6,2.9-1.8,2.9-3.7v-2.2H707V113h2.6v-3c0-1.5,0.4-2.8,1.4-3.7c1-1,2.2-1.5,3.6-1.5
		c1,0,1.9,0.1,2.8,0.6v2.1c-0.8-0.6-1.8-0.7-2.6-0.7c-1.9,0-2.9,1.2-2.9,3.6v2.8h3.9v1.8h-4v1.8c0,1.9-0.8,3.2-2.3,4.1h8.9v1.8
		h-11.7V122.5z"/>
</g>
<g>
	<path class="st5" d="M25.7,148.3v-13.6h0.9v13.6H25.7z"/>
	<path class="st5" d="M36.5,148.3v-5.7c0-2.3-0.8-3.5-2.5-3.5c-0.9,0-1.7,0.3-2.3,1s-0.9,1.5-0.9,2.5v5.6h-0.9v-9.7h0.9v1.8h0
		c0.7-1.3,1.8-2,3.3-2c1,0,1.9,0.4,2.4,1c0.6,0.7,0.8,1.7,0.8,3v5.9H36.5z"/>
	<path class="st5" d="M43.5,148.3h-0.8l-3.8-9.7h1l2.9,7.7c0.1,0.4,0.2,0.7,0.3,1h0c0.1-0.4,0.2-0.7,0.3-1l3-7.8h0.9L43.5,148.3z"/>
	<path class="st5" d="M49.4,143.4c0,1.3,0.3,2.4,0.9,3.1s1.5,1.1,2.5,1.1c1.1,0,2.2-0.4,3.2-1.2v0.9c-1,0.7-2.1,1.1-3.4,1.1
		c-1.3,0-2.3-0.4-3-1.3s-1.2-2.2-1.2-3.8c0-1.4,0.4-2.6,1.2-3.6s1.9-1.5,3.1-1.5c1.2,0,2.1,0.4,2.8,1.3s1,2,1,3.5v0.4H49.4z
		 M55.6,142.6c0-1.1-0.3-2-0.8-2.6s-1.2-0.9-2.1-0.9c-0.9,0-1.7,0.3-2.3,0.9s-1,1.5-1.1,2.6H55.6z"/>
	<path class="st5" d="M58.5,147.8v-1c0.3,0.3,0.7,0.5,1.2,0.7s0.9,0.2,1.2,0.2c1.5,0,2.3-0.6,2.3-1.9c0-0.4-0.2-0.8-0.5-1.1
		s-0.9-0.6-1.6-0.9c-0.9-0.4-1.6-0.8-2-1.3s-0.6-1-0.6-1.6c0-0.8,0.3-1.4,0.9-1.9s1.4-0.7,2.2-0.7c0.8,0,1.5,0.2,2.1,0.5v1
		c-0.7-0.5-1.5-0.7-2.2-0.7c-0.6,0-1.2,0.2-1.5,0.5c-0.4,0.3-0.6,0.8-0.6,1.3c0,0.5,0.1,0.8,0.4,1.1s0.8,0.6,1.6,1
		c1,0.5,1.7,0.9,2.1,1.3s0.6,0.9,0.6,1.6c0,0.8-0.3,1.4-0.9,1.9s-1.4,0.8-2.4,0.8C59.9,148.5,59.1,148.3,58.5,147.8z"/>
	<path class="st5" d="M70.4,148.1c-0.5,0.2-0.9,0.3-1.3,0.3c-1.4,0-2.2-0.9-2.2-2.6v-6.5h-1.7v-0.8h1.7V136c0.1-0.1,0.3-0.1,0.4-0.1
		s0.3-0.1,0.4-0.1v2.8h2.6v0.8h-2.6v6.4c0,0.7,0.1,1.2,0.3,1.5c0.2,0.3,0.6,0.5,1.1,0.5c0.4,0,0.7-0.1,1.2-0.4V148.1z"/>
	<path class="st5" d="M76.2,148.5c-1.4,0-2.5-0.5-3.4-1.4s-1.2-2.1-1.2-3.6c0-1.6,0.4-2.9,1.3-3.8c0.9-0.9,2-1.4,3.4-1.4
		c1.4,0,2.5,0.5,3.3,1.4c0.8,0.9,1.2,2.2,1.2,3.8c0,1.5-0.4,2.7-1.2,3.7S77.6,148.5,76.2,148.5z M76.3,139.1c-1.1,0-2.1,0.4-2.7,1.2
		s-1,1.8-1,3.2c0,1.3,0.3,2.3,1,3.1c0.7,0.8,1.6,1.2,2.7,1.2c1.2,0,2.1-0.4,2.7-1.1c0.6-0.8,0.9-1.8,0.9-3.2c0-1.4-0.3-2.4-0.9-3.2
		C78.3,139.5,77.4,139.1,76.3,139.1z"/>
	<path class="st5" d="M87.8,139.4c-0.3-0.2-0.6-0.3-1-0.3c-0.8,0-1.4,0.4-1.9,1.2s-0.8,1.9-0.8,3.4v4.6h-0.9v-9.7H84v2.2h0
		c0.2-0.7,0.6-1.3,1.1-1.7c0.5-0.4,1-0.6,1.7-0.6c0.4,0,0.7,0.1,1,0.2V139.4z"/>
	<path class="st5" d="M3.2,172.9c-1.9-2.2-2.9-5-2.9-8.3c0-3.4,1-6.2,2.9-8.4h0.9c-2,2.3-3,5.1-3,8.4c0,3.1,1,5.9,2.9,8.3H3.2z"/>
	<path class="st5" d="M9.8,169.7c-0.5,0.2-0.9,0.3-1.3,0.3c-1.4,0-2.2-0.9-2.2-2.6v-6.5H4.6v-0.8h1.7v-2.5c0.1-0.1,0.3-0.1,0.4-0.1
		s0.3-0.1,0.4-0.1v2.8h2.6v0.8H7.2v6.4c0,0.7,0.1,1.2,0.3,1.5c0.2,0.3,0.6,0.5,1.1,0.5c0.4,0,0.7-0.1,1.2-0.4V169.7z"/>
	<path class="st5" d="M15.6,170.1c-1.4,0-2.5-0.5-3.4-1.4s-1.2-2.1-1.2-3.6c0-1.6,0.4-2.9,1.3-3.8c0.9-0.9,2-1.4,3.4-1.4
		c1.4,0,2.5,0.5,3.3,1.4c0.8,0.9,1.2,2.2,1.2,3.8c0,1.5-0.4,2.7-1.2,3.7S17,170.1,15.6,170.1z M15.7,160.7c-1.1,0-2.1,0.4-2.7,1.2
		s-1,1.8-1,3.2c0,1.3,0.3,2.3,1,3.1c0.7,0.8,1.6,1.2,2.7,1.2c1.2,0,2.1-0.4,2.7-1.1c0.6-0.8,0.9-1.8,0.9-3.2c0-1.4-0.3-2.4-0.9-3.2
		C17.7,161.1,16.8,160.7,15.7,160.7z"/>
	<path class="st5" d="M28.2,169.8l-4.6-4.8h0v4.8h-0.9v-14.4h0.9v9.3h0l4.4-4.6h1.1l-4.6,4.7l5,5H28.2z"/>
	<path class="st5" d="M31.4,165c0,1.3,0.3,2.4,0.9,3.1s1.5,1.1,2.5,1.1c1.1,0,2.2-0.4,3.2-1.2v0.9c-1,0.7-2.1,1.1-3.4,1.1
		c-1.3,0-2.3-0.4-3-1.3s-1.2-2.2-1.2-3.8c0-1.4,0.4-2.6,1.2-3.6s1.9-1.5,3.1-1.5c1.2,0,2.1,0.4,2.8,1.3s1,2,1,3.5v0.4H31.4z
		 M37.7,164.2c0-1.1-0.3-2-0.8-2.6s-1.2-0.9-2.1-0.9c-0.9,0-1.7,0.3-2.3,0.9s-1,1.5-1.1,2.6H37.7z"/>
	<path class="st5" d="M47.7,169.8v-5.7c0-2.3-0.8-3.5-2.5-3.5c-0.9,0-1.7,0.3-2.3,1s-0.9,1.5-0.9,2.5v5.6H41v-9.7h0.9v1.8h0
		c0.7-1.3,1.8-2,3.3-2c1,0,1.9,0.4,2.4,1c0.6,0.7,0.8,1.7,0.8,3v5.9H47.7z"/>
	<path class="st5" d="M63.4,169.8V164c0-1.2-0.2-2-0.6-2.5s-1.1-0.8-2-0.8c-0.8,0-1.6,0.3-2.2,1s-0.9,1.6-0.9,2.8v5.4h-0.9v-14.4
		h0.9v6.4h0c0.8-1.3,1.9-2,3.3-2c1,0,1.8,0.3,2.4,1c0.6,0.7,0.8,1.6,0.8,2.9v6H63.4z"/>
	<path class="st5" d="M71.1,170.1c-1.4,0-2.5-0.5-3.4-1.4s-1.2-2.1-1.2-3.6c0-1.6,0.4-2.9,1.3-3.8c0.9-0.9,2-1.4,3.4-1.4
		c1.4,0,2.5,0.5,3.3,1.4c0.8,0.9,1.2,2.2,1.2,3.8c0,1.5-0.4,2.7-1.2,3.7S72.5,170.1,71.1,170.1z M71.2,160.7c-1.1,0-2.1,0.4-2.7,1.2
		s-1,1.8-1,3.2c0,1.3,0.3,2.3,1,3.1c0.7,0.8,1.6,1.2,2.7,1.2c1.2,0,2.1-0.4,2.7-1.1c0.6-0.8,0.9-1.8,0.9-3.2c0-1.4-0.3-2.4-0.9-3.2
		C73.2,161.1,72.3,160.7,71.2,160.7z"/>
	<path class="st5" d="M78.1,169.8v-14.4H79v14.4H78.1z"/>
	<path class="st5" d="M89,169.8v-1.8h0c-0.3,0.6-0.8,1.1-1.4,1.5c-0.6,0.4-1.3,0.5-2.1,0.5c-1.2,0-2.2-0.4-2.9-1.3s-1.1-2.1-1.1-3.6
		c0-1.6,0.4-2.8,1.2-3.8s1.9-1.5,3.2-1.5c1.5,0,2.5,0.6,3.1,1.8h0v-6.2h0.9v14.4H89z M89,163.9c0-0.9-0.3-1.7-0.9-2.3
		s-1.3-0.9-2.3-0.9c-1,0-1.9,0.4-2.5,1.2c-0.7,0.8-1,1.9-1,3.2c0,1.3,0.3,2.4,0.9,3.1c0.6,0.7,1.4,1.1,2.3,1.1c1.1,0,2-0.3,2.6-1
		s0.9-1.5,0.9-2.5V163.9z"/>
	<path class="st5" d="M93.2,165c0,1.3,0.3,2.4,0.9,3.1s1.5,1.1,2.5,1.1c1.1,0,2.2-0.4,3.2-1.2v0.9c-1,0.7-2.1,1.1-3.4,1.1
		c-1.3,0-2.3-0.4-3-1.3s-1.2-2.2-1.2-3.8c0-1.4,0.4-2.6,1.2-3.6s1.9-1.5,3.1-1.5c1.2,0,2.1,0.4,2.8,1.3s1,2,1,3.5v0.4H93.2z
		 M99.5,164.2c0-1.1-0.3-2-0.8-2.6s-1.2-0.9-2.1-0.9c-0.9,0-1.7,0.3-2.3,0.9s-1,1.5-1.1,2.6H99.5z"/>
	<path class="st5" d="M107.4,161c-0.3-0.2-0.6-0.3-1-0.3c-0.8,0-1.4,0.4-1.9,1.2s-0.8,1.9-0.8,3.4v4.6h-0.9v-9.7h0.9v2.2h0
		c0.2-0.7,0.6-1.3,1.1-1.7c0.5-0.4,1-0.6,1.7-0.6c0.4,0,0.7,0.1,1,0.2V161z"/>
	<path class="st5" d="M108.8,172.9h-0.9c2-2.4,2.9-5.1,2.9-8.3c0-3.3-1-6.1-3-8.4h0.9c1.9,2.2,2.9,5,2.9,8.4
		C111.7,168,110.7,170.7,108.8,172.9z"/>
</g>
<g class="st3">
	<path class="st6" d="M316.3,72.5h-1.8v-6.3h-7v6.3h-1.8v-14h1.8v6h7v-6h1.8V72.5z"/>
	<path class="st6" d="M319,67.6c0-1.6,0.5-2.9,1.4-3.9c0.9-0.9,2.2-1.4,3.7-1.4s2.7,0.5,3.5,1.4c0.8,0.9,1.3,2.2,1.3,3.8
		s-0.5,2.8-1.4,3.8c-0.9,1-2.1,1.4-3.6,1.4s-2.7-0.5-3.5-1.4C319.5,70.4,319,69.1,319,67.6z M320.8,67.5c0,1.1,0.3,2,0.9,2.7
		c0.6,0.7,1.4,1,2.3,1c1,0,1.8-0.3,2.3-1c0.5-0.6,0.8-1.6,0.8-2.8c0-1.2-0.3-2.1-0.8-2.8c-0.5-0.6-1.3-1-2.3-1s-1.8,0.3-2.3,1
		C321.1,65.4,320.8,66.4,320.8,67.5z"/>
	<path class="st6" d="M339.5,72.5h-1.8v-1.6l0,0c-0.7,1.2-1.7,1.8-3.1,1.8c-2.3,0-3.5-1.4-3.5-4.2v-5.9h1.7v5.6c0,2,0.8,3,2.3,3
		c0.8,0,1.4-0.3,1.9-0.8c0.5-0.6,0.7-1.3,0.7-2.1v-5.7h1.8V72.5z"/>
	<path class="st6" d="M342.1,70.3c0.9,0.6,1.8,1,2.9,1c1.4,0,2.1-0.4,2.1-1.3c0-0.4-0.1-0.7-0.4-0.9c-0.3-0.2-0.9-0.5-1.8-0.9
		c-1.1-0.4-1.8-0.9-2.1-1.3c-0.3-0.4-0.5-1-0.5-1.6c0-0.9,0.4-1.6,1.1-2.1s1.7-0.8,2.7-0.8c0.8,0,1.6,0.1,2.3,0.4v1.7
		c-0.7-0.5-1.6-0.7-2.5-0.7c-0.6,0-1,0.1-1.4,0.4c-0.4,0.3-0.5,0.6-0.5,1c0,0.4,0.1,0.7,0.4,0.9s0.8,0.5,1.7,0.9
		c1.1,0.4,1.9,0.8,2.2,1.3c0.4,0.4,0.6,1,0.6,1.6c0,0.9-0.4,1.6-1.1,2.2c-0.7,0.5-1.7,0.8-2.9,0.8c-1,0-1.9-0.2-2.7-0.6v-2H342.1z"
		/>
	<path class="st6" d="M359.3,67.9h-6.9c0,1.1,0.3,1.9,0.9,2.5c0.5,0.6,1.3,0.9,2.3,0.9c1.1,0,2.1-0.4,3.1-1.1v1.6
		c-0.9,0.6-2,0.9-3.5,0.9c-1.4,0-2.6-0.5-3.4-1.4c-0.8-0.9-1.2-2.2-1.2-3.8c0-1.5,0.4-2.8,1.3-3.8c0.9-1,2-1.5,3.3-1.5
		s2.3,0.4,3,1.3c0.7,0.8,1.1,2,1.1,3.5L359.3,67.9L359.3,67.9z M357.5,66.5c0-0.9-0.2-1.6-0.6-2.1c-0.4-0.5-1-0.7-1.8-0.7
		c-0.7,0-1.3,0.3-1.8,0.8s-0.8,1.2-1,2C352.3,66.5,357.5,66.5,357.5,66.5z"/>
	<path class="st6" d="M370.2,60.1h-4v12.3h-1.8V60.1h-4v-1.6h9.8V60.1z"/>
	<path class="st6" d="M369.4,67.6c0-1.6,0.5-2.9,1.4-3.9c0.9-0.9,2.2-1.4,3.7-1.4s2.7,0.5,3.5,1.4c0.8,0.9,1.3,2.2,1.3,3.8
		s-0.5,2.8-1.4,3.8c-0.9,1-2.1,1.4-3.6,1.4s-2.7-0.5-3.5-1.4C369.9,70.4,369.4,69.1,369.4,67.6z M371.2,67.5c0,1.1,0.3,2,0.9,2.7
		c0.6,0.7,1.4,1,2.3,1c1,0,1.8-0.3,2.3-1c0.5-0.6,0.8-1.6,0.8-2.8c0-1.2-0.3-2.1-0.8-2.8c-0.5-0.6-1.3-1-2.3-1s-1.8,0.3-2.3,1
		C371.5,65.4,371.2,66.4,371.2,67.5z"/>
	<path class="st6" d="M390.2,72.5h-2.4l-4.2-4.8l0,0v4.8h-1.8V57.8h1.8v9.3l0,0l4-4.6h2.3l-4.5,4.8L390.2,72.5z"/>
	<path class="st6" d="M399.4,67.9h-6.9c0,1.1,0.3,1.9,0.9,2.5c0.5,0.6,1.3,0.9,2.3,0.9c1.1,0,2.1-0.4,3.1-1.1v1.6
		c-0.9,0.6-2,0.9-3.5,0.9c-1.4,0-2.6-0.5-3.4-1.4c-0.8-0.9-1.2-2.2-1.2-3.8c0-1.5,0.4-2.8,1.3-3.8c0.9-1,2-1.5,3.3-1.5
		s2.3,0.4,3,1.3c0.7,0.8,1.1,2,1.1,3.5L399.4,67.9L399.4,67.9z M397.7,66.5c0-0.9-0.2-1.6-0.6-2.1c-0.4-0.5-1-0.7-1.8-0.7
		c-0.7,0-1.3,0.3-1.8,0.8s-0.8,1.2-1,2C392.5,66.5,397.7,66.5,397.7,66.5z"/>
	<path class="st6" d="M410.1,72.5h-1.7v-5.7c0-2-0.7-3.1-2.2-3.1c-0.8,0-1.4,0.3-1.9,0.9c-0.5,0.6-0.7,1.3-0.7,2.2v5.7h-1.8v-9.9
		h1.8v1.6l0,0c0.7-1.3,1.8-1.9,3.3-1.9c1.1,0,1.9,0.3,2.5,1c0.6,0.7,0.9,1.7,0.9,3.1v6.1C410.3,72.5,410.1,72.5,410.1,72.5z"/>
	<path class="st6" d="M426.1,72.5h-7.3v-14h1.8v12.3h5.5V72.5z"/>
	<path class="st6" d="M435.5,60.1h-4v12.3h-1.9V60.1h-4v-1.6h9.8L435.5,60.1L435.5,60.1z"/>
	<path class="st6" d="M437.6,72.5v-14h4c2.1,0,3.9,0.6,5.2,1.8c1.4,1.2,2.1,2.9,2.1,4.9c0,2.2-0.7,3.9-2.1,5.2
		c-1.4,1.3-3.2,1.9-5.4,1.9h-3.8V72.5z M439.4,60.1v10.7h2c1.8,0,3.1-0.5,4.1-1.4c1-0.9,1.5-2.3,1.5-4.1c0-1.7-0.5-3-1.5-3.9
		s-2.4-1.3-4-1.3C441.5,60.1,439.4,60.1,439.4,60.1z"/>
</g>
<g>
	<path class="st7" d="M319.8,103.7c-1.7-2-2.6-4.4-2.6-7.4c0-3,0.9-5.5,2.6-7.5h0.8c-1.8,2-2.6,4.5-2.6,7.5c0,2.8,0.9,5.3,2.6,7.4
		H319.8z"/>
	<path class="st7" d="M330.5,100.6c-1,0.4-2,0.6-3.1,0.6c-1.7,0-3-0.6-4-1.7c-1-1.1-1.6-2.6-1.6-4.3c0-2,0.6-3.5,1.7-4.7
		c1.1-1.2,2.6-1.8,4.3-1.8c0.9,0,1.8,0.2,2.7,0.5V90c-0.8-0.4-1.7-0.6-2.7-0.6c-1.5,0-2.8,0.5-3.7,1.5c-1,1-1.4,2.4-1.4,4.1
		c0,1.7,0.5,3,1.4,3.9c0.9,1,2.1,1.4,3.5,1.4c1.1,0,2.1-0.2,3-0.6V100.6z"/>
	<path class="st7" d="M338.1,101v-1.7h0c-0.3,0.6-0.7,1.1-1.2,1.4c-0.5,0.4-1.1,0.5-1.8,0.5c-0.8,0-1.5-0.2-2-0.7
		c-0.5-0.5-0.7-1-0.7-1.7c0-1.5,1-2.4,3-2.7l2.7-0.4c0-1.9-0.7-2.8-2.1-2.8c-0.9,0-1.9,0.4-2.8,1.1V93c0.3-0.3,0.8-0.5,1.3-0.7
		c0.5-0.2,1.1-0.3,1.6-0.3c0.9,0,1.6,0.3,2.1,0.8c0.5,0.6,0.7,1.4,0.7,2.4v5.6H338.1z M335.8,96.7c-0.9,0.1-1.5,0.3-1.9,0.6
		s-0.6,0.8-0.6,1.4c0,0.5,0.2,0.9,0.5,1.3c0.3,0.3,0.8,0.5,1.4,0.5c0.8,0,1.5-0.3,2.1-0.9c0.6-0.6,0.8-1.4,0.8-2.4v-0.8L335.8,96.7z
		"/>
	<path class="st7" d="M343.6,102.7c-0.3,0.8-0.7,1.4-1,1.7s-0.9,0.6-1.5,0.6c-0.3,0-0.5,0-0.7-0.1v-0.8c0.2,0.1,0.4,0.1,0.7,0.1
		c0.7,0,1.2-0.5,1.6-1.4l0.8-1.9l-3.3-8.6h0.9l2.6,7c0.1,0.2,0.1,0.3,0.1,0.3c0,0.1,0,0.2,0.1,0.3h0l0.2-0.6l2.8-7.1h0.8
		L343.6,102.7z"/>
	<path class="st7" d="M360.2,101v-5.2c0-1.1-0.2-1.9-0.5-2.3c-0.3-0.4-0.9-0.7-1.6-0.7c-0.7,0-1.3,0.3-1.8,0.9
		c-0.5,0.6-0.7,1.3-0.7,2.2v5.1h-0.8v-5.3c0-1.9-0.7-2.9-2.2-2.9c-0.7,0-1.3,0.3-1.8,0.9s-0.7,1.3-0.7,2.3v5h-0.8v-8.6h0.8v1.4h0
		c0.6-1.1,1.5-1.6,2.6-1.6c0.6,0,1.2,0.2,1.6,0.5c0.4,0.4,0.8,0.8,0.9,1.4c0.3-0.6,0.7-1.1,1.2-1.5c0.5-0.3,1-0.5,1.6-0.5
		c1.9,0,2.8,1.2,2.8,3.5v5.3H360.2z"/>
	<path class="st7" d="M368.7,101v-1.7h0c-0.3,0.6-0.7,1.1-1.2,1.4c-0.5,0.4-1.1,0.5-1.8,0.5c-0.8,0-1.5-0.2-2-0.7
		c-0.5-0.5-0.7-1-0.7-1.7c0-1.5,1-2.4,3-2.7l2.7-0.4c0-1.9-0.7-2.8-2.1-2.8c-0.9,0-1.9,0.4-2.8,1.1V93c0.3-0.3,0.8-0.5,1.3-0.7
		c0.5-0.2,1.1-0.3,1.6-0.3c0.9,0,1.6,0.3,2.1,0.8c0.5,0.6,0.7,1.4,0.7,2.4v5.6H368.7z M366.3,96.7c-0.9,0.1-1.5,0.3-1.9,0.6
		s-0.6,0.8-0.6,1.4c0,0.5,0.2,0.9,0.5,1.3c0.3,0.3,0.8,0.5,1.4,0.5c0.8,0,1.5-0.3,2.1-0.9c0.6-0.6,0.8-1.4,0.8-2.4v-0.8L366.3,96.7z
		"/>
	<path class="st7" d="M378,101v-5c0-2.1-0.7-3.1-2.2-3.1c-0.8,0-1.5,0.3-2.1,0.9c-0.5,0.6-0.8,1.4-0.8,2.3v5h-0.8v-8.6h0.8v1.6h0
		c0.6-1.2,1.6-1.8,3-1.8c0.9,0,1.6,0.3,2.1,0.9c0.5,0.6,0.7,1.5,0.7,2.7v5.3H378z"/>
	<path class="st7" d="M386.1,101V88.2h0.8V101H386.1z"/>
	<path class="st7" d="M390,90.1c-0.2,0-0.3-0.1-0.4-0.2c-0.1-0.1-0.2-0.3-0.2-0.5c0-0.2,0.1-0.3,0.2-0.4c0.1-0.1,0.3-0.2,0.4-0.2
		c0.2,0,0.3,0.1,0.5,0.2c0.1,0.1,0.2,0.3,0.2,0.5c0,0.2-0.1,0.3-0.2,0.5C390.3,90.1,390.2,90.1,390,90.1z M389.6,101v-8.6h0.8v8.6
		H389.6z"/>
	<path class="st7" d="M404,101v-5.2c0-1.1-0.2-1.9-0.5-2.3c-0.3-0.4-0.9-0.7-1.6-0.7c-0.7,0-1.3,0.3-1.8,0.9
		c-0.5,0.6-0.7,1.3-0.7,2.2v5.1h-0.8v-5.3c0-1.9-0.7-2.9-2.2-2.9c-0.7,0-1.3,0.3-1.8,0.9s-0.7,1.3-0.7,2.3v5h-0.8v-8.6h0.8v1.4h0
		c0.6-1.1,1.5-1.6,2.6-1.6c0.6,0,1.2,0.2,1.6,0.5c0.4,0.4,0.8,0.8,0.9,1.4c0.3-0.6,0.7-1.1,1.2-1.5c0.5-0.3,1-0.5,1.6-0.5
		c1.9,0,2.8,1.2,2.8,3.5v5.3H404z"/>
	<path class="st7" d="M407.8,90.1c-0.2,0-0.3-0.1-0.4-0.2c-0.1-0.1-0.2-0.3-0.2-0.5c0-0.2,0.1-0.3,0.2-0.4c0.1-0.1,0.3-0.2,0.4-0.2
		c0.2,0,0.3,0.1,0.5,0.2c0.1,0.1,0.2,0.3,0.2,0.5c0,0.2-0.1,0.3-0.2,0.5C408.1,90.1,407.9,90.1,407.8,90.1z M407.4,101v-8.6h0.8v8.6
		H407.4z"/>
	<path class="st7" d="M414.3,100.8c-0.4,0.2-0.8,0.3-1.1,0.3c-1.3,0-1.9-0.8-1.9-2.3V93h-1.6v-0.7h1.6v-2.2c0.1,0,0.2-0.1,0.4-0.1
		c0.1,0,0.3-0.1,0.4-0.1v2.5h2.3V93h-2.3v5.7c0,0.6,0.1,1,0.3,1.3c0.2,0.3,0.5,0.4,1,0.4c0.3,0,0.7-0.1,1-0.3V100.8z"/>
	<path class="st7" d="M416.2,96.7c0,1.2,0.3,2.1,0.8,2.8c0.5,0.7,1.3,1,2.3,1c1,0,1.9-0.4,2.8-1.1v0.8c-0.9,0.6-1.9,1-3,1
		c-1.1,0-2-0.4-2.7-1.2c-0.7-0.8-1-1.9-1-3.4c0-1.3,0.4-2.3,1.1-3.2c0.7-0.9,1.7-1.3,2.8-1.3c1.1,0,1.9,0.4,2.5,1.1
		c0.6,0.8,0.9,1.8,0.9,3.1v0.3H416.2z M421.8,96c0-1-0.3-1.8-0.7-2.3c-0.4-0.5-1.1-0.8-1.8-0.8c-0.8,0-1.5,0.3-2,0.8s-0.9,1.3-1,2.3
		H421.8z"/>
	<path class="st7" d="M430.9,101v-1.6h0c-0.3,0.5-0.7,1-1.3,1.3c-0.6,0.3-1.2,0.5-1.9,0.5c-1.1,0-1.9-0.4-2.6-1.2
		c-0.7-0.8-1-1.8-1-3.2c0-1.4,0.4-2.5,1.1-3.4c0.7-0.9,1.7-1.3,2.9-1.3c1.3,0,2.2,0.5,2.8,1.6h0v-5.5h0.8V101H430.9z M430.9,95.7
		c0-0.8-0.3-1.5-0.8-2c-0.5-0.6-1.2-0.8-2.1-0.8c-0.9,0-1.7,0.3-2.2,1c-0.6,0.7-0.9,1.6-0.9,2.9c0,1.2,0.3,2.1,0.8,2.8s1.2,1,2.1,1
		c1,0,1.7-0.3,2.3-0.9s0.8-1.4,0.8-2.2V95.7z"/>
	<path class="st7" d="M348,123.6c-0.6,0.4-1.4,0.6-2.3,0.6c-1.2,0-2.1-0.4-2.8-1.2c-0.7-0.8-1.1-1.9-1.1-3.2c0-1.4,0.4-2.5,1.2-3.4
		c0.8-0.9,1.9-1.3,3.1-1.3c0.7,0,1.3,0.1,1.9,0.4v0.9c-0.6-0.4-1.3-0.6-2-0.6c-1,0-1.8,0.4-2.5,1.1c-0.6,0.7-0.9,1.7-0.9,2.8
		c0,1.1,0.3,2,0.9,2.7c0.6,0.7,1.3,1,2.3,1c0.9,0,1.6-0.2,2.3-0.7V123.6z"/>
	<path class="st7" d="M353.6,124.2c-1.3,0-2.3-0.4-3-1.2c-0.7-0.8-1.1-1.9-1.1-3.2c0-1.4,0.4-2.6,1.2-3.4c0.8-0.8,1.8-1.2,3-1.2
		c1.2,0,2.2,0.4,2.9,1.2c0.7,0.8,1.1,1.9,1.1,3.3c0,1.3-0.4,2.4-1.1,3.3C355.8,123.8,354.8,124.2,353.6,124.2z M353.6,115.8
		c-1,0-1.8,0.3-2.4,1c-0.6,0.7-0.9,1.6-0.9,2.9c0,1.1,0.3,2,0.9,2.7c0.6,0.7,1.4,1,2.4,1c1,0,1.8-0.3,2.4-1c0.6-0.7,0.8-1.6,0.8-2.8
		c0-1.2-0.3-2.2-0.8-2.8C355.4,116.2,354.6,115.8,353.6,115.8z"/>
	<path class="st7" d="M370.6,124v-5.2c0-1.1-0.2-1.9-0.5-2.3c-0.3-0.4-0.9-0.7-1.6-0.7c-0.7,0-1.3,0.3-1.8,0.9
		c-0.5,0.6-0.7,1.3-0.7,2.2v5.1h-0.8v-5.3c0-1.9-0.7-2.9-2.2-2.9c-0.7,0-1.3,0.3-1.8,0.9c-0.5,0.6-0.7,1.3-0.7,2.3v5h-0.8v-8.6h0.8
		v1.4h0c0.6-1.1,1.5-1.6,2.6-1.6c0.6,0,1.2,0.2,1.6,0.5c0.4,0.4,0.8,0.8,0.9,1.4c0.3-0.6,0.7-1.1,1.2-1.5c0.5-0.3,1-0.5,1.6-0.5
		c1.9,0,2.8,1.2,2.8,3.5v5.3H370.6z"/>
	<path class="st7" d="M374.8,122.4L374.8,122.4l0,5.5H374v-12.6h0.8v1.8h0c0.3-0.6,0.8-1.1,1.3-1.5c0.6-0.3,1.2-0.5,1.9-0.5
		c1.1,0,2,0.4,2.6,1.1s0.9,1.8,0.9,3.1c0,1.4-0.4,2.6-1.1,3.5c-0.7,0.9-1.6,1.3-2.8,1.3C376.4,124.2,375.4,123.6,374.8,122.4z
		 M374.8,119.2v1.1c0,0.9,0.3,1.6,0.8,2.2c0.5,0.6,1.3,0.9,2.2,0.9c0.9,0,1.6-0.4,2.1-1.1c0.6-0.8,0.8-1.8,0.8-3
		c0-1.1-0.3-1.9-0.8-2.6c-0.5-0.6-1.2-1-2-1c-1,0-1.8,0.3-2.3,1C375,117.5,374.8,118.3,374.8,119.2z"/>
	<path class="st7" d="M388.8,124v-1.7h0c-0.3,0.6-0.7,1.1-1.2,1.4c-0.5,0.4-1.1,0.5-1.8,0.5c-0.8,0-1.5-0.2-2-0.7
		c-0.5-0.5-0.7-1-0.7-1.7c0-1.5,1-2.4,3-2.7l2.7-0.4c0-1.9-0.7-2.8-2.1-2.8c-0.9,0-1.9,0.4-2.8,1.1V116c0.3-0.3,0.8-0.5,1.3-0.7
		c0.5-0.2,1.1-0.3,1.6-0.3c0.9,0,1.6,0.3,2.1,0.8c0.5,0.6,0.7,1.4,0.7,2.4v5.6H388.8z M386.5,119.7c-0.9,0.1-1.5,0.3-1.9,0.6
		s-0.6,0.8-0.6,1.4c0,0.5,0.2,0.9,0.5,1.3c0.3,0.3,0.8,0.5,1.4,0.5c0.8,0,1.5-0.3,2.1-0.9c0.6-0.6,0.8-1.4,0.8-2.4v-0.8L386.5,119.7
		z"/>
	<path class="st7" d="M398.1,124v-5c0-2.1-0.7-3.1-2.2-3.1c-0.8,0-1.5,0.3-2.1,0.9c-0.5,0.6-0.8,1.4-0.8,2.3v5h-0.8v-8.6h0.8v1.6h0
		c0.6-1.2,1.6-1.8,3-1.8c0.9,0,1.6,0.3,2.1,0.9c0.5,0.6,0.7,1.5,0.7,2.7v5.3H398.1z"/>
	<path class="st7" d="M403.6,125.7c-0.3,0.8-0.7,1.4-1,1.7s-0.9,0.6-1.5,0.6c-0.3,0-0.5,0-0.7-0.1v-0.8c0.2,0.1,0.4,0.1,0.7,0.1
		c0.7,0,1.2-0.5,1.6-1.4l0.8-1.9l-3.3-8.6h0.9l2.6,7c0.1,0.2,0.1,0.3,0.1,0.3c0,0.1,0,0.2,0.1,0.3h0l0.2-0.6l2.8-7.1h0.8
		L403.6,125.7z"/>
	<path class="st7" d="M409,126.7h-0.8c1.7-2.1,2.6-4.6,2.6-7.4c0-3-0.9-5.5-2.6-7.5h0.8c1.7,2,2.6,4.5,2.6,7.5
		C411.5,122.3,410.7,124.7,409,126.7z"/>
</g>
<g>
	<path class="st5" d="M924.5,145.5v5.4h-0.9v-13.4h3.2c1.4,0,2.4,0.3,3.2,1c0.7,0.6,1.1,1.6,1.1,2.8c0,1.2-0.4,2.3-1.2,3.1
		s-1.9,1.2-3.4,1.2H924.5z M924.5,138.4v6.3h1.9c1.2,0,2.1-0.3,2.7-0.9c0.6-0.6,0.9-1.4,0.9-2.4c0-2-1.2-3-3.5-3H924.5z"/>
	<path class="st5" d="M938.3,142.2c-0.3-0.2-0.6-0.3-1-0.3c-0.8,0-1.4,0.4-1.9,1.2c-0.5,0.8-0.8,1.9-0.8,3.3v4.5h-0.8v-9.5h0.8v2.1
		h0c0.2-0.7,0.6-1.3,1-1.7c0.5-0.4,1-0.6,1.6-0.6c0.4,0,0.7,0.1,0.9,0.2V142.2z"/>
	<path class="st5" d="M940.5,138.9c-0.2,0-0.4-0.1-0.5-0.2c-0.1-0.1-0.2-0.3-0.2-0.5c0-0.2,0.1-0.4,0.2-0.5c0.1-0.1,0.3-0.2,0.5-0.2
		c0.2,0,0.4,0.1,0.5,0.2c0.1,0.1,0.2,0.3,0.2,0.5c0,0.2-0.1,0.4-0.2,0.5C940.9,138.8,940.7,138.9,940.5,138.9z M940.1,150.9v-9.5
		h0.9v9.5H940.1z"/>
	<path class="st5" d="M956,150.9v-5.7c0-1.2-0.2-2-0.6-2.5c-0.4-0.5-1-0.7-1.8-0.7c-0.8,0-1.4,0.3-1.9,1s-0.8,1.5-0.8,2.4v5.6H950
		v-5.8c0-2.1-0.8-3.2-2.4-3.2c-0.8,0-1.4,0.3-1.9,1s-0.8,1.5-0.8,2.5v5.5H944v-9.5h0.9v1.6h0c0.7-1.2,1.6-1.8,2.9-1.8
		c0.7,0,1.3,0.2,1.8,0.6c0.5,0.4,0.8,0.9,1,1.6c0.3-0.7,0.7-1.2,1.3-1.6c0.6-0.4,1.2-0.6,1.8-0.6c2.1,0,3.1,1.3,3.1,3.9v5.9H956z"/>
	<path class="st5" d="M959.9,146.1c0,1.3,0.3,2.3,0.9,3.1s1.4,1.1,2.5,1.1c1.1,0,2.1-0.4,3.1-1.2v0.9c-1,0.7-2.1,1.1-3.3,1.1
		c-1.2,0-2.2-0.4-3-1.3c-0.8-0.9-1.1-2.1-1.1-3.7c0-1.4,0.4-2.6,1.2-3.5c0.8-1,1.8-1.4,3.1-1.4c1.2,0,2.1,0.4,2.7,1.3
		c0.6,0.8,1,2,1,3.4v0.4H959.9z M966,145.3c0-1.1-0.3-2-0.8-2.6s-1.2-0.9-2-0.9c-0.9,0-1.6,0.3-2.2,0.9s-0.9,1.5-1.1,2.6H966z"/>
	<path class="st5" d="M981.5,150.9l-1.8-3.9c-0.4-0.8-0.7-1.3-1.1-1.6c-0.4-0.3-0.8-0.4-1.4-0.4h-1.7v5.9h-0.9v-13.4h3.7
		c1.2,0,2.1,0.3,2.8,1c0.7,0.6,1,1.5,1,2.5c0,1-0.3,1.8-0.8,2.4c-0.6,0.6-1.3,1.1-2.3,1.3v0c0.5,0.2,1,0.9,1.5,1.9l2,4.3H981.5z
		 M975.6,138.4v5.7h2.3c1,0,1.8-0.3,2.4-0.8c0.6-0.5,0.9-1.3,0.9-2.2c0-0.9-0.3-1.5-0.8-2s-1.3-0.7-2.3-0.7H975.6z"/>
	<path class="st5" d="M985.3,146.1c0,1.3,0.3,2.3,0.9,3.1s1.4,1.1,2.5,1.1c1.1,0,2.1-0.4,3.1-1.2v0.9c-1,0.7-2.1,1.1-3.3,1.1
		c-1.2,0-2.2-0.4-3-1.3c-0.8-0.9-1.1-2.1-1.1-3.7c0-1.4,0.4-2.6,1.2-3.5c0.8-1,1.8-1.4,3.1-1.4c1.2,0,2.1,0.4,2.7,1.3
		c0.6,0.8,1,2,1,3.4v0.4H985.3z M991.5,145.3c0-1.1-0.3-2-0.8-2.6s-1.2-0.9-2-0.9c-0.9,0-1.6,0.3-2.2,0.9s-0.9,1.5-1.1,2.6H991.5z"
		/>
	<path class="st5" d="M1000.4,150.9v-1.9h0c-0.3,0.6-0.7,1.2-1.3,1.6c-0.6,0.4-1.2,0.6-1.9,0.6c-0.9,0-1.6-0.3-2.2-0.8
		c-0.5-0.5-0.8-1.2-0.8-1.9c0-1.7,1.1-2.7,3.3-3l2.9-0.4c0-2-0.8-3.1-2.3-3.1c-1,0-2.1,0.4-3.1,1.3v-1c0.4-0.3,0.8-0.5,1.4-0.7
		s1.2-0.3,1.7-0.3c1,0,1.7,0.3,2.3,0.9c0.5,0.6,0.8,1.5,0.8,2.7v6.2H1000.4z M997.8,146.1c-1,0.1-1.7,0.4-2.1,0.7
		c-0.4,0.3-0.6,0.8-0.6,1.6c0,0.6,0.2,1,0.6,1.4c0.4,0.4,0.9,0.5,1.6,0.5c0.9,0,1.7-0.3,2.3-1c0.6-0.7,0.9-1.6,0.9-2.6v-0.9
		L997.8,146.1z"/>
	<path class="st5" d="M1004.2,150.9v-14.1h0.9v14.1H1004.2z"/>
	<path class="st5" d="M1013.5,150.9v-13.4h6.2v0.9h-5.3v5.4h4.9v0.8h-4.9v5.5h5.6v0.8H1013.5z"/>
	<path class="st5" d="M1022.4,150.4v-1c0.3,0.3,0.7,0.5,1.2,0.7s0.9,0.2,1.2,0.2c1.5,0,2.2-0.6,2.2-1.8c0-0.4-0.2-0.8-0.5-1.1
		c-0.3-0.3-0.9-0.6-1.6-0.9c-0.9-0.4-1.5-0.8-1.9-1.2c-0.4-0.4-0.6-0.9-0.6-1.6c0-0.8,0.3-1.4,0.9-1.9c0.6-0.5,1.3-0.7,2.2-0.7
		c0.8,0,1.5,0.2,2.1,0.5v1c-0.7-0.5-1.4-0.7-2.2-0.7c-0.6,0-1.1,0.2-1.5,0.5c-0.4,0.3-0.6,0.7-0.6,1.3c0,0.5,0.1,0.8,0.4,1.1
		c0.2,0.3,0.8,0.6,1.6,1c1,0.4,1.7,0.9,2,1.2s0.6,0.9,0.6,1.5c0,0.8-0.3,1.4-0.8,1.9c-0.6,0.5-1.3,0.7-2.3,0.7
		C1023.7,151.1,1023,150.9,1022.4,150.4z"/>
	<path class="st5" d="M1034,150.7c-0.4,0.2-0.9,0.3-1.3,0.3c-1.4,0-2.1-0.8-2.1-2.5v-6.4h-1.7v-0.8h1.7v-2.5
		c0.1-0.1,0.3-0.1,0.4-0.1s0.3-0.1,0.4-0.1v2.8h2.5v0.8h-2.5v6.3c0,0.7,0.1,1.1,0.3,1.4s0.6,0.4,1.1,0.4c0.4,0,0.7-0.1,1.1-0.3
		V150.7z"/>
	<path class="st5" d="M1041.6,150.9v-1.9h0c-0.3,0.6-0.7,1.2-1.3,1.6c-0.6,0.4-1.2,0.6-1.9,0.6c-0.9,0-1.6-0.3-2.2-0.8
		c-0.5-0.5-0.8-1.2-0.8-1.9c0-1.7,1.1-2.7,3.3-3l2.9-0.4c0-2-0.8-3.1-2.3-3.1c-1,0-2.1,0.4-3.1,1.3v-1c0.4-0.3,0.8-0.5,1.4-0.7
		s1.2-0.3,1.7-0.3c1,0,1.7,0.3,2.3,0.9c0.5,0.6,0.8,1.5,0.8,2.7v6.2H1041.6z M1039,146.1c-1,0.1-1.7,0.4-2.1,0.7
		c-0.4,0.3-0.6,0.8-0.6,1.6c0,0.6,0.2,1,0.6,1.4c0.4,0.4,0.9,0.5,1.6,0.5c0.9,0,1.7-0.3,2.3-1c0.6-0.7,0.9-1.6,0.9-2.6v-0.9
		L1039,146.1z"/>
	<path class="st5" d="M1049.1,150.7c-0.4,0.2-0.9,0.3-1.3,0.3c-1.4,0-2.1-0.8-2.1-2.5v-6.4h-1.7v-0.8h1.7v-2.5
		c0.1-0.1,0.3-0.1,0.4-0.1s0.3-0.1,0.4-0.1v2.8h2.5v0.8h-2.5v6.3c0,0.7,0.1,1.1,0.3,1.4s0.6,0.4,1.1,0.4c0.4,0,0.7-0.1,1.1-0.3
		V150.7z"/>
	<path class="st5" d="M1051.2,146.1c0,1.3,0.3,2.3,0.9,3.1s1.4,1.1,2.5,1.1c1.1,0,2.1-0.4,3.1-1.2v0.9c-1,0.7-2.1,1.1-3.3,1.1
		c-1.2,0-2.2-0.4-3-1.3c-0.8-0.9-1.1-2.1-1.1-3.7c0-1.4,0.4-2.6,1.2-3.5c0.8-1,1.8-1.4,3.1-1.4c1.2,0,2.1,0.4,2.7,1.3
		c0.6,0.8,1,2,1,3.4v0.4H1051.2z M1057.4,145.3c0-1.1-0.3-2-0.8-2.6s-1.2-0.9-2-0.9c-0.9,0-1.6,0.3-2.2,0.9s-0.9,1.5-1.1,2.6H1057.4
		z"/>
	<path class="st5" d="M979.9,176.2l-1.5-4.2h-5.8l-1.5,4.2h-1l5-13.4h0.9l5,13.4H979.9z M975.8,165.1c-0.1-0.2-0.1-0.4-0.2-0.6
		c0-0.2-0.1-0.3-0.1-0.5h0c-0.1,0.4-0.2,0.7-0.3,1l-2.3,6.2h5.2L975.8,165.1z"/>
	<path class="st5" d="M982.5,175.8v-1c0.3,0.3,0.7,0.5,1.2,0.7s0.9,0.2,1.2,0.2c1.5,0,2.2-0.6,2.2-1.8c0-0.4-0.2-0.8-0.5-1.1
		c-0.3-0.3-0.9-0.6-1.6-0.9c-0.9-0.4-1.5-0.8-1.9-1.2c-0.4-0.4-0.6-0.9-0.6-1.6c0-0.8,0.3-1.4,0.9-1.9c0.6-0.5,1.3-0.7,2.2-0.7
		c0.8,0,1.5,0.2,2.1,0.5v1c-0.7-0.5-1.4-0.7-2.2-0.7c-0.6,0-1.1,0.2-1.5,0.5c-0.4,0.3-0.6,0.7-0.6,1.3c0,0.5,0.1,0.8,0.4,1.1
		c0.2,0.3,0.8,0.6,1.6,1c1,0.4,1.7,0.9,2,1.2s0.6,0.9,0.6,1.5c0,0.8-0.3,1.4-0.8,1.9c-0.6,0.5-1.3,0.7-2.3,0.7
		C983.9,176.5,983.1,176.2,982.5,175.8z"/>
	<path class="st5" d="M989.9,175.8v-1c0.3,0.3,0.7,0.5,1.2,0.7s0.9,0.2,1.2,0.2c1.5,0,2.2-0.6,2.2-1.8c0-0.4-0.2-0.8-0.5-1.1
		c-0.3-0.3-0.9-0.6-1.6-0.9c-0.9-0.4-1.5-0.8-1.9-1.2c-0.4-0.4-0.6-0.9-0.6-1.6c0-0.8,0.3-1.4,0.9-1.9c0.6-0.5,1.3-0.7,2.2-0.7
		c0.8,0,1.5,0.2,2.1,0.5v1c-0.7-0.5-1.4-0.7-2.2-0.7c-0.6,0-1.1,0.2-1.5,0.5c-0.4,0.3-0.6,0.7-0.6,1.3c0,0.5,0.1,0.8,0.4,1.1
		c0.2,0.3,0.8,0.6,1.6,1c1,0.4,1.7,0.9,2,1.2s0.6,0.9,0.6,1.5c0,0.8-0.3,1.4-0.8,1.9c-0.6,0.5-1.3,0.7-2.3,0.7
		C991.3,176.5,990.5,176.2,989.9,175.8z"/>
	<path class="st5" d="M998,171.5c0,1.3,0.3,2.3,0.9,3.1s1.4,1.1,2.5,1.1c1.1,0,2.1-0.4,3.1-1.2v0.9c-1,0.7-2.1,1.1-3.3,1.1
		c-1.2,0-2.2-0.4-3-1.3c-0.8-0.9-1.1-2.1-1.1-3.7c0-1.4,0.4-2.6,1.2-3.5c0.8-1,1.8-1.4,3.1-1.4c1.2,0,2.1,0.4,2.7,1.3
		c0.6,0.8,1,2,1,3.4v0.4H998z M1004.2,170.7c0-1.1-0.3-2-0.8-2.6s-1.2-0.9-2-0.9c-0.9,0-1.6,0.3-2.2,0.9s-0.9,1.5-1.1,2.6H1004.2z"
		/>
	<path class="st5" d="M1011.2,176.1c-0.4,0.2-0.9,0.3-1.3,0.3c-1.4,0-2.1-0.8-2.1-2.5v-6.4h-1.7v-0.8h1.7v-2.5
		c0.1-0.1,0.3-0.1,0.4-0.1s0.3-0.1,0.4-0.1v2.8h2.5v0.8h-2.5v6.3c0,0.7,0.1,1.1,0.3,1.4s0.6,0.4,1.1,0.4c0.4,0,0.7-0.1,1.1-0.3
		V176.1z"/>
</g>
<g>
	<path class="st5" d="M601.4,157.9V152h-6.9v5.8h-0.8v-12.1h0.8v5.5h6.9v-5.5h0.8v12.1H601.4z"/>
	<path class="st5" d="M608.7,158.1c-1.3,0-2.3-0.4-3-1.2s-1.1-1.9-1.1-3.2c0-1.4,0.4-2.6,1.2-3.4s1.8-1.2,3-1.2
		c1.2,0,2.2,0.4,2.9,1.2s1.1,1.9,1.1,3.3c0,1.3-0.4,2.4-1.1,3.3S609.9,158.1,608.7,158.1z M608.7,149.7c-1,0-1.8,0.3-2.4,1
		s-0.9,1.6-0.9,2.9c0,1.1,0.3,2,0.9,2.7s1.4,1,2.4,1c1,0,1.8-0.3,2.4-1s0.8-1.6,0.8-2.8c0-1.2-0.3-2.2-0.8-2.8
		S609.8,149.7,608.7,149.7z"/>
	<path class="st5" d="M620.6,157.9v-1.6h0c-0.6,1.2-1.5,1.8-2.8,1.8c-2,0-3.1-1.3-3.1-3.9v-5h0.8v4.8c0,1.2,0.2,2,0.6,2.5
		s1,0.8,1.8,0.8c0.8,0,1.5-0.3,1.9-0.9s0.7-1.4,0.7-2.4v-4.9h0.8v8.6H620.6z"/>
	<path class="st5" d="M623.7,157.5v-0.9c0.3,0.3,0.6,0.4,1.1,0.6s0.8,0.2,1.1,0.2c1.4,0,2-0.6,2-1.7c0-0.4-0.1-0.7-0.4-1
		s-0.8-0.5-1.5-0.8c-0.8-0.4-1.4-0.7-1.7-1.1s-0.5-0.9-0.5-1.4c0-0.7,0.3-1.3,0.8-1.7s1.2-0.6,2-0.6c0.7,0,1.4,0.2,1.9,0.5v0.9
		c-0.6-0.4-1.3-0.6-2-0.6c-0.6,0-1,0.1-1.4,0.4s-0.5,0.7-0.5,1.2c0,0.4,0.1,0.7,0.3,1s0.7,0.5,1.5,0.9c0.9,0.4,1.5,0.8,1.9,1.1
		s0.5,0.8,0.5,1.4c0,0.7-0.3,1.2-0.8,1.7s-1.2,0.7-2.1,0.7C625,158.1,624.3,157.9,623.7,157.5z"/>
	<path class="st5" d="M631,153.6c0,1.2,0.3,2.1,0.8,2.8s1.3,1,2.3,1c1,0,1.9-0.4,2.8-1.1v0.8c-0.9,0.6-1.9,1-3,1
		c-1.1,0-2-0.4-2.7-1.2s-1-1.9-1-3.4c0-1.3,0.4-2.3,1.1-3.2s1.7-1.3,2.8-1.3c1.1,0,1.9,0.4,2.5,1.1s0.9,1.8,0.9,3.1v0.3H631z
		 M636.6,152.9c0-1-0.3-1.8-0.7-2.3s-1.1-0.8-1.8-0.8c-0.8,0-1.5,0.3-2,0.8s-0.9,1.3-1,2.3H636.6z"/>
	<path class="st5" d="M643,146.5v11.3h-0.8v-11.3h-3.5v-0.8h7.8v0.8H643z"/>
	<path class="st5" d="M649.2,158.1c-1.3,0-2.3-0.4-3-1.2s-1.1-1.9-1.1-3.2c0-1.4,0.4-2.6,1.2-3.4s1.8-1.2,3-1.2
		c1.2,0,2.2,0.4,2.9,1.2s1.1,1.9,1.1,3.3c0,1.3-0.4,2.4-1.1,3.3S650.4,158.1,649.2,158.1z M649.2,149.7c-1,0-1.8,0.3-2.4,1
		s-0.9,1.6-0.9,2.9c0,1.1,0.3,2,0.9,2.7s1.4,1,2.4,1c1,0,1.8-0.3,2.4-1s0.8-1.6,0.8-2.8c0-1.2-0.3-2.2-0.8-2.8
		S650.3,149.7,649.2,149.7z"/>
	<path class="st5" d="M660.3,157.9l-4.1-4.3h0v4.3h-0.8v-12.8h0.8v8.2h0l3.9-4.1h1l-4.1,4.2l4.4,4.5H660.3z"/>
	<path class="st5" d="M663.3,153.6c0,1.2,0.3,2.1,0.8,2.8s1.3,1,2.3,1c1,0,1.9-0.4,2.8-1.1v0.8c-0.9,0.6-1.9,1-3,1
		c-1.1,0-2-0.4-2.7-1.2s-1-1.9-1-3.4c0-1.3,0.4-2.3,1.1-3.2s1.7-1.3,2.8-1.3c1.1,0,1.9,0.4,2.5,1.1s0.9,1.8,0.9,3.1v0.3H663.3z
		 M668.8,152.9c0-1-0.3-1.8-0.7-2.3s-1.1-0.8-1.8-0.8c-0.8,0-1.5,0.3-2,0.8s-0.9,1.3-1,2.3H668.8z"/>
	<path class="st5" d="M677.7,157.9v-5c0-2.1-0.7-3.1-2.2-3.1c-0.8,0-1.5,0.3-2.1,0.9s-0.8,1.4-0.8,2.3v5h-0.8v-8.6h0.8v1.6h0
		c0.6-1.2,1.6-1.8,3-1.8c0.9,0,1.6,0.3,2.1,0.9s0.7,1.5,0.7,2.7v5.3H677.7z"/>
	<path class="st5" d="M694.7,157c-1.3,0.7-2.5,1.1-3.9,1.1c-1.6,0-3-0.6-4-1.7s-1.5-2.6-1.5-4.4c0-1.8,0.5-3.4,1.6-4.6
		s2.6-1.8,4.4-1.8c1.1,0,2.1,0.2,3.1,0.6v0.9c-1.1-0.5-2.2-0.8-3.2-0.8c-1.5,0-2.8,0.5-3.7,1.6s-1.4,2.4-1.4,4c0,1.7,0.4,3,1.3,4
		s2,1.4,3.5,1.4c1.1,0,2-0.2,2.9-0.7v-4H691v-0.8h3.7V157z"/>
	<path class="st5" d="M697.3,157.9v-12.8h0.8v12.8H697.3z"/>
	<path class="st5" d="M704.3,158.1c-1.3,0-2.3-0.4-3-1.2s-1.1-1.9-1.1-3.2c0-1.4,0.4-2.6,1.2-3.4s1.8-1.2,3-1.2
		c1.2,0,2.2,0.4,2.9,1.2s1.1,1.9,1.1,3.3c0,1.3-0.4,2.4-1.1,3.3S705.6,158.1,704.3,158.1z M704.4,149.7c-1,0-1.8,0.3-2.4,1
		s-0.9,1.6-0.9,2.9c0,1.1,0.3,2,0.9,2.7s1.4,1,2.4,1c1,0,1.8-0.3,2.4-1s0.8-1.6,0.8-2.8c0-1.2-0.3-2.2-0.8-2.8
		S705.4,149.7,704.4,149.7z"/>
	<path class="st5" d="M711.4,156.3L711.4,156.3l0,1.5h-0.8v-12.8h0.8v5.9h0c0.3-0.6,0.8-1.1,1.3-1.5s1.2-0.5,1.9-0.5
		c1.1,0,2,0.4,2.6,1.1s0.9,1.8,0.9,3.1c0,1.4-0.4,2.6-1.1,3.5s-1.6,1.3-2.8,1.3C713,158.1,712,157.5,711.4,156.3z M711.3,153.1v1.1
		c0,0.9,0.3,1.6,0.8,2.2s1.3,0.9,2.2,0.9c0.9,0,1.6-0.4,2.1-1.1s0.8-1.8,0.8-3c0-1.1-0.3-1.9-0.8-2.6s-1.2-1-2-1c-1,0-1.8,0.3-2.3,1
		S711.3,152.2,711.3,153.1z"/>
	<path class="st5" d="M725.4,157.9v-1.7h0c-0.3,0.6-0.7,1.1-1.2,1.4s-1.1,0.5-1.8,0.5c-0.8,0-1.5-0.2-2-0.7s-0.7-1-0.7-1.7
		c0-1.5,1-2.4,3-2.7l2.7-0.4c0-1.9-0.7-2.8-2.1-2.8c-0.9,0-1.9,0.4-2.8,1.1v-0.9c0.3-0.3,0.8-0.5,1.3-0.7s1.1-0.3,1.6-0.3
		c0.9,0,1.6,0.3,2.1,0.8s0.7,1.4,0.7,2.4v5.6H725.4z M723,153.5c-0.9,0.1-1.5,0.3-1.9,0.6s-0.6,0.8-0.6,1.4c0,0.5,0.2,0.9,0.5,1.3
		s0.8,0.5,1.4,0.5c0.8,0,1.5-0.3,2.1-0.9s0.8-1.4,0.8-2.4v-0.8L723,153.5z"/>
	<path class="st5" d="M728.8,157.9v-12.8h0.8v12.8H728.8z"/>
	<path class="st5" d="M733.3,153v4.9h-0.8v-12.1h2.9c1.2,0,2.2,0.3,2.9,0.9s1,1.4,1,2.5c0,1.1-0.4,2-1.1,2.8s-1.8,1.1-3.1,1.1H733.3
		z M733.3,146.5v5.7h1.7c1.1,0,1.9-0.3,2.5-0.8s0.9-1.3,0.9-2.2c0-1.8-1-2.7-3.1-2.7H733.3z"/>
	<path class="st5" d="M745.8,150c-0.3-0.2-0.6-0.3-0.9-0.3c-0.7,0-1.3,0.4-1.7,1.1s-0.7,1.7-0.7,3v4.1h-0.8v-8.6h0.8v1.9h0
		c0.2-0.7,0.5-1.2,0.9-1.5s0.9-0.6,1.5-0.6c0.3,0,0.6,0.1,0.9,0.2V150z"/>
	<path class="st5" d="M750.6,158.1c-1.3,0-2.3-0.4-3-1.2s-1.1-1.9-1.1-3.2c0-1.4,0.4-2.6,1.2-3.4s1.8-1.2,3-1.2
		c1.2,0,2.2,0.4,2.9,1.2s1.1,1.9,1.1,3.3c0,1.3-0.4,2.4-1.1,3.3S751.8,158.1,750.6,158.1z M750.6,149.7c-1,0-1.8,0.3-2.4,1
		s-0.9,1.6-0.9,2.9c0,1.1,0.3,2,0.9,2.7s1.4,1,2.4,1c1,0,1.8-0.3,2.4-1s0.8-1.6,0.8-2.8c0-1.2-0.3-2.2-0.8-2.8
		S751.6,149.7,750.6,149.7z"/>
	<path class="st5" d="M757.6,156.3L757.6,156.3l0,5.5h-0.8v-12.6h0.8v1.8h0c0.3-0.6,0.8-1.1,1.3-1.5s1.2-0.5,1.9-0.5
		c1.1,0,2,0.4,2.6,1.1s0.9,1.8,0.9,3.1c0,1.4-0.4,2.6-1.1,3.5s-1.6,1.3-2.8,1.3C759.2,158.1,758.2,157.5,757.6,156.3z M757.6,153.1
		v1.1c0,0.9,0.3,1.6,0.8,2.2s1.3,0.9,2.2,0.9c0.9,0,1.6-0.4,2.1-1.1s0.8-1.8,0.8-3c0-1.1-0.3-1.9-0.8-2.6s-1.2-1-2-1
		c-1,0-1.8,0.3-2.3,1S757.6,152.2,757.6,153.1z"/>
	<path class="st5" d="M766.7,153.6c0,1.2,0.3,2.1,0.8,2.8s1.3,1,2.3,1c1,0,1.9-0.4,2.8-1.1v0.8c-0.9,0.6-1.9,1-3,1
		c-1.1,0-2-0.4-2.7-1.2s-1-1.9-1-3.4c0-1.3,0.4-2.3,1.1-3.2s1.7-1.3,2.8-1.3c1.1,0,1.9,0.4,2.5,1.1s0.9,1.8,0.9,3.1v0.3H766.7z
		 M772.2,152.9c0-1-0.3-1.8-0.7-2.3s-1.1-0.8-1.8-0.8c-0.8,0-1.5,0.3-2,0.8s-0.9,1.3-1,2.3H772.2z"/>
	<path class="st5" d="M779.3,150c-0.3-0.2-0.6-0.3-0.9-0.3c-0.7,0-1.3,0.4-1.7,1.1s-0.7,1.7-0.7,3v4.1h-0.8v-8.6h0.8v1.9h0
		c0.2-0.7,0.5-1.2,0.9-1.5s0.9-0.6,1.5-0.6c0.3,0,0.6,0.1,0.9,0.2V150z"/>
	<path class="st5" d="M785.1,157.7c-0.4,0.2-0.8,0.3-1.1,0.3c-1.3,0-1.9-0.8-1.9-2.3v-5.8h-1.6v-0.7h1.6V147c0.1,0,0.2-0.1,0.4-0.1
		s0.3-0.1,0.4-0.1v2.5h2.3v0.7h-2.3v5.7c0,0.6,0.1,1,0.3,1.3s0.5,0.4,1,0.4c0.3,0,0.7-0.1,1-0.3V157.7z"/>
	<path class="st5" d="M788.9,159.6c-0.3,0.8-0.7,1.4-1,1.7s-0.9,0.6-1.5,0.6c-0.3,0-0.5,0-0.7-0.1V161c0.2,0.1,0.4,0.1,0.7,0.1
		c0.7,0,1.2-0.5,1.6-1.4l0.8-1.9l-3.3-8.6h0.9l2.6,7c0.1,0.2,0.1,0.3,0.1,0.3c0,0.1,0,0.2,0.1,0.3h0l0.2-0.6l2.8-7.1h0.8
		L788.9,159.6z"/>
	<path class="st5" d="M800.4,146.5v4.9h4.5v0.8h-4.5v5.6h-0.8v-12.1h5.6v0.8H800.4z"/>
	<path class="st5" d="M813.1,157.9v-1.6h0c-0.6,1.2-1.5,1.8-2.8,1.8c-2,0-3.1-1.3-3.1-3.9v-5h0.8v4.8c0,1.2,0.2,2,0.6,2.5
		s1,0.8,1.8,0.8c0.8,0,1.5-0.3,1.9-0.9s0.7-1.4,0.7-2.4v-4.9h0.8v8.6H813.1z"/>
	<path class="st5" d="M822.5,157.9v-5c0-2.1-0.7-3.1-2.2-3.1c-0.8,0-1.5,0.3-2.1,0.9s-0.8,1.4-0.8,2.3v5h-0.8v-8.6h0.8v1.6h0
		c0.6-1.2,1.6-1.8,3-1.8c0.9,0,1.6,0.3,2.1,0.9s0.7,1.5,0.7,2.7v5.3H822.5z"/>
	<path class="st5" d="M832,157.9v-1.6h0c-0.3,0.5-0.7,1-1.3,1.3s-1.2,0.5-1.9,0.5c-1.1,0-1.9-0.4-2.6-1.2s-1-1.8-1-3.2
		c0-1.4,0.4-2.5,1.1-3.4s1.7-1.3,2.9-1.3c1.3,0,2.2,0.5,2.8,1.6h0v-5.5h0.8v12.8H832z M832,152.6c0-0.8-0.3-1.5-0.8-2
		s-1.2-0.8-2.1-0.8c-0.9,0-1.7,0.3-2.2,1s-0.9,1.6-0.9,2.9c0,1.2,0.3,2.1,0.8,2.8s1.2,1,2.1,1c1,0,1.7-0.3,2.3-0.9s0.8-1.4,0.8-2.2
		V152.6z"/>
	<path class="st5" d="M645.6,183.6c-1.7-2-2.6-4.4-2.6-7.4c0-3,0.9-5.5,2.6-7.5h0.8c-1.8,2-2.6,4.5-2.6,7.5c0,2.8,0.9,5.3,2.6,7.4
		H645.6z"/>
	<path class="st5" d="M648.2,180.9v-12.1h0.8v11.3h4.9v0.8H648.2z"/>
	<path class="st5" d="M661.7,180.9v-1.6h0c-0.6,1.2-1.5,1.8-2.8,1.8c-2,0-3.1-1.3-3.1-3.9v-5h0.8v4.8c0,1.2,0.2,2,0.6,2.5
		s1,0.8,1.8,0.8c0.8,0,1.5-0.3,1.9-0.9s0.7-1.4,0.7-2.4v-4.9h0.8v8.6H661.7z"/>
	<path class="st5" d="M667.9,176.6l2.8,4.2h-1l-2.3-3.6h0l-0.3,0.5c0,0.1-0.1,0.1-0.1,0.2l-1.9,2.9h-0.9l2.9-4.2l-2.8-4.4h0.9
		l1.9,3.1c0.3,0.4,0.4,0.6,0.4,0.7h0l0.4-0.7l2-3.1h0.9L667.9,176.6z"/>
	<path class="st5" d="M672.7,176.6c0,1.2,0.3,2.1,0.8,2.8s1.3,1,2.3,1c1,0,1.9-0.4,2.8-1.1v0.8c-0.9,0.6-1.9,1-3,1
		c-1.1,0-2-0.4-2.7-1.2s-1-1.9-1-3.4c0-1.3,0.4-2.3,1.1-3.2s1.7-1.3,2.8-1.3c1.1,0,1.9,0.4,2.5,1.1s0.9,1.8,0.9,3.1v0.3H672.7z
		 M678.2,175.9c0-1-0.3-1.8-0.7-2.3s-1.1-0.8-1.8-0.8c-0.8,0-1.5,0.3-2,0.8s-0.9,1.3-1,2.3H678.2z"/>
	<path class="st5" d="M692,180.9v-5.2c0-1.1-0.2-1.9-0.5-2.3s-0.9-0.7-1.6-0.7c-0.7,0-1.3,0.3-1.8,0.9s-0.7,1.3-0.7,2.2v5.1h-0.8
		v-5.3c0-1.9-0.7-2.9-2.2-2.9c-0.7,0-1.3,0.3-1.8,0.9s-0.7,1.3-0.7,2.3v5h-0.8v-8.6h0.8v1.4h0c0.6-1.1,1.5-1.6,2.6-1.6
		c0.6,0,1.2,0.2,1.6,0.5s0.8,0.8,0.9,1.4c0.3-0.6,0.7-1.1,1.2-1.5s1-0.5,1.6-0.5c1.9,0,2.8,1.2,2.8,3.5v5.3H692z"/>
	<path class="st5" d="M696.2,179.3L696.2,179.3l0,1.5h-0.8v-12.8h0.8v5.9h0c0.3-0.6,0.8-1.1,1.3-1.5s1.2-0.5,1.9-0.5
		c1.1,0,2,0.4,2.6,1.1s0.9,1.8,0.9,3.1c0,1.4-0.4,2.6-1.1,3.5s-1.6,1.3-2.8,1.3C697.8,181.1,696.8,180.5,696.2,179.3z M696.2,176.1
		v1.1c0,0.9,0.3,1.6,0.8,2.2s1.3,0.9,2.2,0.9c0.9,0,1.6-0.4,2.1-1.1s0.8-1.8,0.8-3c0-1.1-0.3-1.9-0.8-2.6s-1.2-1-2-1
		c-1,0-1.8,0.3-2.3,1S696.2,175.2,696.2,176.1z"/>
	<path class="st5" d="M708.6,181.1c-1.3,0-2.3-0.4-3-1.2s-1.1-1.9-1.1-3.2c0-1.4,0.4-2.6,1.2-3.4s1.8-1.2,3-1.2
		c1.2,0,2.2,0.4,2.9,1.2s1.1,1.9,1.1,3.3c0,1.3-0.4,2.4-1.1,3.3S709.8,181.1,708.6,181.1z M708.6,172.7c-1,0-1.8,0.3-2.4,1
		s-0.9,1.6-0.9,2.9c0,1.1,0.3,2,0.9,2.7s1.4,1,2.4,1c1,0,1.8-0.3,2.4-1s0.8-1.6,0.8-2.8c0-1.2-0.3-2.2-0.8-2.8
		S709.6,172.7,708.6,172.7z"/>
	<path class="st5" d="M720.5,180.9v-1.6h0c-0.6,1.2-1.5,1.8-2.8,1.8c-2,0-3.1-1.3-3.1-3.9v-5h0.8v4.8c0,1.2,0.2,2,0.6,2.5
		s1,0.8,1.8,0.8c0.8,0,1.5-0.3,1.9-0.9s0.7-1.4,0.7-2.4v-4.9h0.8v8.6H720.5z"/>
	<path class="st5" d="M728.1,173c-0.3-0.2-0.6-0.3-0.9-0.3c-0.7,0-1.3,0.4-1.7,1.1s-0.7,1.7-0.7,3v4.1H724v-8.6h0.8v1.9h0
		c0.2-0.7,0.5-1.2,0.9-1.5s0.9-0.6,1.5-0.6c0.3,0,0.6,0.1,0.9,0.2V173z"/>
	<path class="st5" d="M736.3,180.2c0,1.6-0.4,2.8-1.1,3.6s-1.8,1.1-3.3,1.1c-0.8,0-1.7-0.2-2.6-0.7v-0.8c0.9,0.5,1.8,0.8,2.6,0.8
		c2.4,0,3.6-1.3,3.6-3.8v-1.1h0c-0.7,1.2-1.7,1.8-3.1,1.8c-1.1,0-1.9-0.4-2.6-1.2s-1-1.8-1-3.2c0-1.4,0.4-2.5,1.1-3.4
		s1.7-1.3,2.9-1.3c1.3,0,2.2,0.5,2.8,1.6h0v-1.4h0.8V180.2z M735.5,175.5c0-0.8-0.3-1.4-0.8-2s-1.2-0.8-2-0.8c-1,0-1.7,0.4-2.3,1.1
		s-0.9,1.7-0.9,2.8c0,1.2,0.3,2.1,0.8,2.8s1.2,1,2.1,1c0.9,0,1.7-0.3,2.2-0.9s0.8-1.3,0.8-2.2V175.5z"/>
	<path class="st5" d="M751.8,180.9l-1.4-3.8h-5.2l-1.4,3.8h-0.9l4.6-12.1h0.8l4.5,12.1H751.8z M748.1,170.7
		c-0.1-0.2-0.1-0.3-0.1-0.5c0-0.1-0.1-0.3-0.1-0.4h0c-0.1,0.4-0.2,0.7-0.3,0.9l-2,5.6h4.7L748.1,170.7z"/>
	<path class="st5" d="M754.8,180.9v-12.1h0.8v12.1H754.8z"/>
	<path class="st5" d="M759.6,169.5v4.9h4.5v0.8h-4.5v5.6h-0.8v-12.1h5.6v0.8H759.6z"/>
	<path class="st5" d="M777.3,180.9v-8.6c0-0.2,0-0.8,0.1-1.8h0c-0.2,0.5-0.3,0.8-0.4,1.1l-4.3,9.3h-0.3l-4.3-9.3
		c-0.1-0.3-0.3-0.7-0.4-1.1h0c0,0.5,0.1,1.1,0.1,1.6v8.8h-0.8v-12.1h0.8l4.5,9.8c0,0.1,0.1,0.1,0.1,0.2c0,0.1,0.1,0.2,0.1,0.3
		c0.1,0.1,0.1,0.3,0.2,0.5h0.1l0.1-0.3c0,0,0.1-0.3,0.3-0.8l4.4-9.7h0.7v12.1H777.3z"/>
	<path class="st5" d="M780.7,183.6h-0.8c1.7-2.1,2.6-4.6,2.6-7.4c0-3-0.9-5.5-2.6-7.5h0.8c1.7,2,2.6,4.5,2.6,7.5
		C783.3,179.2,782.4,181.6,780.7,183.6z"/>
</g>
</svg>
