<?xml version="1.0" encoding="utf-8"?>
<!-- Generator: Adobe Illustrator 22.1.0, SVG Export Plug-In . SVG Version: 6.00 Build 0)  -->
<svg version="1.1" id="强大的法律保障" xmlns="http://www.w3.org/2000/svg" xmlns:xlink="http://www.w3.org/1999/xlink"
	 x="0px" y="0px" viewBox="0 0 1017 345" style="enable-background:new 0 0 1017 345;" xml:space="preserve">
<style type="text/css">
	.st0{fill:#010101;}
	.st1{fill:#58595B;}
	.st2{fill:#70DBCB;}
	.st3{fill:none;stroke:#70DBCB;}
	.st4{fill:#F5F5F5;}
	.st5{fill:#F2F2F2;}
	.st6{fill:#E6E7E8;}
	.st7{enable-background:new    ;}
	.st8{fill:#FFFFFF;}
	.st9{fill:#FCFCFC;}
</style>
<rect id="矩形_47" x="686.9" y="160" class="st0" width="321.2" height="0.8"/>
<ellipse id="椭圆_12" class="st1" cx="1003" cy="159.6" rx="14" ry="14.1"/>
<g id="组_27">
	<path id="矩形_48" class="st2" d="M409.9,159.2h181.5v0.8H409.9V159.2z"/>
	<path id="形状_2" class="st3" d="M591.4,156H474.1l-38.5-87.6h-81.9"/>
	<path id="形状_2_拷贝" class="st3" d="M591.4,164H474.1l-38.5,87.7h-81.9"/>
</g>
<path id="圆角矩形_1_拷贝" class="st4" d="M608.4,165.4l39.1-10c1.6-0.4,3.4-0.3,5,0.1l32.8,10.6c1.4,0.5,1.6,1.2,0.4,1.7
	l-34.2,12.6c-2,0.6-4.1,0.7-6.2,0.1l-37.7-13.2C606.1,166.7,606.5,165.9,608.4,165.4z"/>
<path id="椭圆_11" class="st5" d="M649.6,140.7c10,0,18.1,1.6,18.1,3.6s-8.1,3.6-18.1,3.6s-18.1-1.6-18.1-3.6
	S639.6,140.7,649.6,140.7z"/>
<path id="矩形_46" class="st6" d="M607.4,145.5l43.4,15.3v14.5L607.4,160V145.5z"/>
<path id="矩形_46_拷贝" class="st6" d="M687.7,146.3L650,160.8v14.5l37.7-14.5V146.3z"/>
<path id="圆角矩形_1_拷贝-2" class="st4" d="M248.7,76.2l39.1-10.1c1.7-0.3,3.4-0.3,5,0.2l32.8,10.6c1.4,0.5,1.6,1.2,0.4,1.7
	l-34.2,12.5c-2,0.7-4.1,0.7-6.1,0.1L247.9,78C246.4,77.5,246.7,76.7,248.7,76.2z"/>
<ellipse id="椭圆_11-2" class="st5" cx="289.8" cy="55.1" rx="18.1" ry="3.6"/>
<path id="矩形_46-2" class="st6" d="M247.6,56.3L291,71.6V86l-43.4-15.2V56.3z"/>
<path id="矩形_46_拷贝-2" class="st6" d="M327.9,57.1l-37.7,14.5V86l37.7-14.4V57.1z"/>
<path id="圆角矩形_1_拷贝-3" class="st4" d="M248.7,265.9l39.1-10c1.7-0.4,3.4-0.3,5,0.1l32.8,10.6c1.4,0.5,1.6,1.2,0.4,1.7
	l-34.2,12.6c-2,0.6-4.1,0.6-6.1,0.1L248,267.8C246.4,267.2,246.7,266.4,248.7,265.9z"/>
<ellipse id="椭圆_11-3" class="st5" cx="289.8" cy="244.8" rx="18.1" ry="3.6"/>
<path id="矩形_46-3" class="st6" d="M247.6,246l43.4,15.3v14.5l-43.4-15.3V246z"/>
<path id="矩形_46_拷贝-3" class="st6" d="M327.9,246.8l-37.7,14.5v14.5l37.7-14.5V246.8z"/>
<path id="圆角矩形_1_拷贝-4" class="st4" d="M8.7,76.2l39.1-10.1c1.7-0.3,3.4-0.3,5,0.2l32.8,10.6c1.4,0.5,1.6,1.2,0.4,1.7
	L51.7,91.1c-2,0.7-4.1,0.7-6.1,0.1L7.9,78C6.4,77.5,6.7,76.7,8.7,76.2z"/>
<ellipse id="椭圆_11-4" class="st5" cx="49.8" cy="55.1" rx="18.1" ry="3.6"/>
<path id="矩形_46-4" class="st6" d="M7.6,56.3L51,71.6V86L7.6,70.8V56.3z"/>
<path id="矩形_46_拷贝-4" class="st6" d="M87.9,57.1L50.2,71.6V86l37.7-14.4V57.1z"/>
<path id="圆角矩形_1_拷贝-5" class="st4" d="M8.7,265.9l39.1-10c1.7-0.4,3.4-0.3,5,0.1l32.8,10.6c1.4,0.5,1.6,1.2,0.4,1.7
	l-34.2,12.6c-2,0.6-4.1,0.6-6.1,0.1L7.9,267.8C6.4,267.2,6.7,266.4,8.7,265.9z"/>
<ellipse id="椭圆_11-5" class="st5" cx="49.8" cy="244.8" rx="18.1" ry="3.6"/>
<path id="矩形_46-5" class="st6" d="M7.6,246L51,261.3v14.5L7.6,260.5V246z"/>
<path id="矩形_46_拷贝-5" class="st6" d="M87.9,246.8l-37.7,14.5v14.5l37.7-14.5V246.8z"/>
<path id="圆角矩形_1_拷贝-6" class="st4" d="M855.8,166.2l39.1-10c1.6-0.4,3.4-0.3,5,0.1l32.8,10.6c1.4,0.5,1.6,1.2,0.4,1.7
	l-34.2,12.6c-2,0.6-4.1,0.7-6.1,0.1L855,168.1C853.5,167.5,853.8,166.7,855.8,166.2z"/>
<path id="椭圆_11-6" class="st5" d="M896.9,141.5c10,0,18.1,1.6,18.1,3.6s-8.1,3.6-18.1,3.6s-18.1-1.6-18.1-3.6
	S887,141.5,896.9,141.5z"/>
<path id="矩形_46-6" class="st6" d="M854.8,146.3l43.4,15.3v14.5l-43.4-15.3V146.3z"/>
<path id="矩形_46_拷贝-6" class="st6" d="M935.1,147.1l-37.7,14.5v14.5l37.7-14.5V147.1z"/>
<rect id="矩形_49" x="87" y="70" class="st0" width="167" height="1"/>
<rect id="矩形_49_拷贝" x="87" y="260" class="st0" width="167" height="1"/>
<g class="st7">
	<path class="st1" d="M28,45h22.5V0H28V45z M42.1,5.6h5.6v5.6h-5.6V5.6z M42.1,16.9h5.6v5.6h-5.6V16.9z M42.1,28.1h5.6v5.6h-5.6
		V28.1z M30.8,5.6h5.6v5.6h-5.6C30.8,11.2,30.8,5.6,30.8,5.6z M30.8,16.9h5.6v5.6h-5.6C30.8,22.5,30.8,16.9,30.8,16.9z M30.8,28.1
		h5.6v5.6h-5.6C30.8,33.7,30.8,28.1,30.8,28.1z M53.3,14.1H73v2.8H53.3V14.1z M53.3,45h5.6V33.8h8.4V45H73V19.7H53.3V45z"/>
</g>
<g class="st7">
	<path class="st1" d="M46.7,224.9h7.6v9.5h-7.6V224.9z"/>
	<path class="st1" d="M45.8,207.9c0,2.6,2.1,4.7,4.7,4.7s4.7-2.1,4.7-4.7s-2.1-4.7-4.7-4.7S45.8,205.4,45.8,207.9z M51.4,208.9h-3.8
		V207h1.9v-2.8h1.9C51.4,204.2,51.4,208.9,51.4,208.9z"/>
	<path class="st1" d="M24,204.1v30.3h15.1v-30.3H24z M30.6,224.1h-3.8v-1.9h3.8V224.1z M30.6,220.3h-3.8v-1.9h3.8V220.3z
		 M30.6,216.4h-3.8v-1.9h3.8V216.4z M30.6,212.6h-3.8v-1.9h3.8V212.6z M30.6,208.9h-3.8V207h3.8V208.9z M36.3,224.1h-3.8v-1.9h3.8
		V224.1z M36.3,220.3h-3.8v-1.9h3.8V220.3z M36.3,216.4h-3.8v-1.9h3.8V216.4z M36.3,212.6h-3.8v-1.9h3.8V212.6z M36.3,208.9h-3.8
		V207h3.8V208.9z"/>
	<path class="st1" d="M77,234.4v-30.3H61.9v30.3H77z M70.4,206.9h3.8v1.9h-3.8V206.9z M70.4,210.8h3.8v1.9h-3.8V210.8z M70.4,214.6
		h3.8v1.9h-3.8V214.6z M70.4,218.4h3.8v1.9h-3.8V218.4z M70.4,222.1h3.8v1.9h-3.8V222.1z M64.7,206.9h3.8v1.9h-3.8V206.9z
		 M64.7,210.8h3.8v1.9h-3.8V210.8z M64.7,214.6h3.8v1.9h-3.8V214.6z M64.7,218.4h3.8v1.9h-3.8V218.4z M64.7,222.1h3.8v1.9h-3.8
		V222.1z"/>
	<path class="st1" d="M41,199.9v34.5h3.8V224c0-0.5,0.4-0.9,0.9-0.9h9.5c0.5,0,0.9,0.4,0.9,0.9v10.4h3.8v-34.5l-9.5-6.9L41,199.9z
		 M57.1,207.9c0,3.7-3,6.6-6.6,6.6s-6.6-3-6.6-6.6s3-6.6,6.6-6.6C54.2,201.4,57.1,204.3,57.1,207.9z"/>
	<path class="st1" d="M50.5,181.4h11.4v5.7H50.5V181.4z"/>
	<path class="st1" d="M50.5,195.6c-0.5,0-0.9-0.4-0.9-0.9v-14.3c0-0.5,0.4-0.9,0.9-0.9s0.9,0.4,0.9,0.9v14.2
		C51.4,195.3,51,195.6,50.5,195.6z"/>
</g>
<g class="st7">
	<path class="st1" d="M307.6,44.5c0.7,0,1.3-0.6,1.3-1.3V21.6c0-0.7-0.6-1.3-1.3-1.3h-8.1v-0.9c0-0.5-0.3-0.9-0.7-1.2l-7.9-4v-2.5
		l5.6-1.9c0.5-0.2,0.9-0.7,0.9-1.2c0-0.6-0.4-1.1-0.9-1.2L290,5.3c-0.4-0.1-0.8-0.1-1.2,0.2c-0.3,0.2-0.5,0.6-0.5,1.1v7.8l-7.9,4
		c-0.4,0.2-0.7,0.7-0.7,1.2v0.9h-8.3c-0.7,0-1.3,0.6-1.3,1.3v21.6c0,0.7,0.6,1.3,1.3,1.3h36.3L307.6,44.5L307.6,44.5z M290.9,9.4V8
		l2.9,0.7L290.9,9.4z M272.6,22.9h7v19h-7V22.9z M282.3,20.3l7.3-3.7l7.3,3.7v21.6h-14.6L282.3,20.3L282.3,20.3z M306.3,41.9h-6.8
		v-19h6.8V41.9z"/>
	<path class="st1" d="M287.5,22.5h-2.2c-0.7,0-1.3,0.6-1.3,1.3c0,0.7,0.6,1.3,1.3,1.3h2.2c0.7,0,1.3-0.6,1.3-1.3
		C288.9,23.1,288.3,22.5,287.5,22.5z"/>
	<path class="st1" d="M275.3,27.3h2.2c0.7,0,1.3-0.6,1.3-1.3c0-0.7-0.6-1.3-1.3-1.3h-2.2c-0.7,0-1.3,0.6-1.3,1.3
		S274.5,27.3,275.3,27.3z"/>
	<path class="st1" d="M277.4,29h-2.2c-0.7,0-1.3,0.6-1.3,1.3c0,0.7,0.6,1.3,1.3,1.3h2.2c0.7,0,1.3-0.6,1.3-1.3
		C278.8,29.6,278.1,29,277.4,29z"/>
	<path class="st1" d="M277.4,33.3h-2.2c-0.7,0-1.3,0.6-1.3,1.3s0.6,1.3,1.3,1.3h2.2c0.7,0,1.3-0.6,1.3-1.3
		C278.8,33.9,278.1,33.3,277.4,33.3z"/>
	<path class="st1" d="M302,27.3h2.2c0.7,0,1.3-0.6,1.3-1.3c0-0.7-0.6-1.3-1.3-1.3H302c-0.7,0-1.3,0.6-1.3,1.3S301.3,27.3,302,27.3z"
		/>
	<path class="st1" d="M302,31.6h2.2c0.7,0,1.3-0.6,1.3-1.3c0-0.7-0.6-1.3-1.3-1.3H302c-0.7,0-1.3,0.6-1.3,1.3
		C300.6,31,301.3,31.6,302,31.6z"/>
	<path class="st1" d="M304,33.3h-2c-0.7,0-1.3,0.6-1.3,1.3s0.6,1.3,1.3,1.3h2.2c0.7,0,1.3-0.6,1.3-1.3S304.9,33.3,304,33.3z"/>
	<path class="st1" d="M294,22.5h-2.2c-0.7,0-1.3,0.6-1.3,1.3c0,0.7,0.6,1.3,1.3,1.3h2.2c0.7,0,1.3-0.6,1.3-1.3S294.8,22.5,294,22.5z
		"/>
	<path class="st1" d="M287.5,26.8h-2.2c-0.7,0-1.3,0.6-1.3,1.3c0,0.7,0.6,1.3,1.3,1.3h2.2c0.7,0,1.3-0.6,1.3-1.3
		S288.3,26.8,287.5,26.8z"/>
	<path class="st1" d="M294,26.8h-2.2c-0.7,0-1.3,0.6-1.3,1.3c0,0.7,0.6,1.3,1.3,1.3h2.2c0.7,0,1.3-0.6,1.3-1.3S294.8,26.8,294,26.8z
		"/>
	<path class="st1" d="M287.5,31.1h-2.2c-0.7,0-1.3,0.6-1.3,1.3s0.6,1.3,1.3,1.3h2.2c0.7,0,1.3-0.6,1.3-1.3
		C288.9,31.7,288.3,31.1,287.5,31.1z"/>
	<path class="st1" d="M294,31.1h-2.2c-0.7,0-1.3,0.6-1.3,1.3s0.6,1.3,1.3,1.3h2.2c0.7,0,1.3-0.6,1.3-1.3S294.8,31.1,294,31.1z"/>
</g>
<g class="st7">
	<path class="st1" d="M308.6,233.5c0.7,0,1.3-0.6,1.3-1.3v-21.6c0-0.7-0.6-1.3-1.3-1.3h-8.1v-0.9c0-0.5-0.3-0.9-0.7-1.2l-7.9-4v-2.5
		l5.6-1.9c0.5-0.2,0.9-0.7,0.9-1.2c0-0.6-0.4-1.1-0.9-1.2l-6.6-2.1c-0.4-0.1-0.8-0.1-1.2,0.2c-0.3,0.2-0.5,0.6-0.5,1.1v7.8l-7.9,4
		c-0.4,0.2-0.7,0.7-0.7,1.2v0.9h-8.3c-0.7,0-1.3,0.6-1.3,1.3v21.6c0,0.7,0.6,1.3,1.3,1.3h36.3L308.6,233.5L308.6,233.5z
		 M291.9,198.4V197l2.9,0.7L291.9,198.4z M273.6,211.9h7v19h-7V211.9z M283.3,209.3l7.3-3.7l7.3,3.7v21.6h-14.6L283.3,209.3
		L283.3,209.3z M307.3,230.9h-6.8v-19h6.8V230.9z"/>
	<path class="st1" d="M288.5,211.5h-2.2c-0.7,0-1.3,0.6-1.3,1.3s0.6,1.3,1.3,1.3h2.2c0.7,0,1.3-0.6,1.3-1.3
		C289.9,212.1,289.3,211.5,288.5,211.5z"/>
	<path class="st1" d="M276.3,216.3h2.2c0.7,0,1.3-0.6,1.3-1.3s-0.6-1.3-1.3-1.3h-2.2c-0.7,0-1.3,0.6-1.3,1.3
		S275.5,216.3,276.3,216.3z"/>
	<path class="st1" d="M278.4,218h-2.2c-0.7,0-1.3,0.6-1.3,1.3s0.6,1.3,1.3,1.3h2.2c0.7,0,1.3-0.6,1.3-1.3
		C279.8,218.6,279.1,218,278.4,218z"/>
	<path class="st1" d="M278.4,222.3h-2.2c-0.7,0-1.3,0.6-1.3,1.3s0.6,1.3,1.3,1.3h2.2c0.7,0,1.3-0.6,1.3-1.3
		C279.8,222.9,279.1,222.3,278.4,222.3z"/>
	<path class="st1" d="M303,216.3h2.2c0.7,0,1.3-0.6,1.3-1.3s-0.6-1.3-1.3-1.3H303c-0.7,0-1.3,0.6-1.3,1.3S302.3,216.3,303,216.3z"/>
	<path class="st1" d="M303,220.6h2.2c0.7,0,1.3-0.6,1.3-1.3s-0.6-1.3-1.3-1.3H303c-0.7,0-1.3,0.6-1.3,1.3
		C301.6,220,302.3,220.6,303,220.6z"/>
	<path class="st1" d="M305,222.3h-2c-0.7,0-1.3,0.6-1.3,1.3s0.6,1.3,1.3,1.3h2.2c0.7,0,1.3-0.6,1.3-1.3S305.9,222.3,305,222.3z"/>
	<path class="st1" d="M295,211.5h-2.2c-0.7,0-1.3,0.6-1.3,1.3s0.6,1.3,1.3,1.3h2.2c0.7,0,1.3-0.6,1.3-1.3S295.8,211.5,295,211.5z"/>
	<path class="st1" d="M288.5,215.8h-2.2c-0.7,0-1.3,0.6-1.3,1.3s0.6,1.3,1.3,1.3h2.2c0.7,0,1.3-0.6,1.3-1.3S289.3,215.8,288.5,215.8
		z"/>
	<path class="st1" d="M295,215.8h-2.2c-0.7,0-1.3,0.6-1.3,1.3s0.6,1.3,1.3,1.3h2.2c0.7,0,1.3-0.6,1.3-1.3S295.8,215.8,295,215.8z"/>
	<path class="st1" d="M288.5,220.1h-2.2c-0.7,0-1.3,0.6-1.3,1.3s0.6,1.3,1.3,1.3h2.2c0.7,0,1.3-0.6,1.3-1.3S289.3,220.1,288.5,220.1
		z"/>
	<path class="st1" d="M295,220.1h-2.2c-0.7,0-1.3,0.6-1.3,1.3s0.6,1.3,1.3,1.3h2.2c0.7,0,1.3-0.6,1.3-1.3S295.8,220.1,295,220.1z"/>
</g>
<g class="st7">
	<path class="st1" d="M666.7,136.5c0.7,0,1.3-0.6,1.3-1.3v-21.6c0-0.7-0.6-1.3-1.3-1.3h-8.1v-0.9c0-0.5-0.3-0.9-0.7-1.2l-7.9-4v-2.5
		l5.6-1.9c0.5-0.2,0.9-0.7,0.9-1.2c0-0.6-0.4-1.1-0.9-1.2l-6.6-2.1c-0.4-0.1-0.8-0.1-1.2,0.2c-0.3,0.2-0.5,0.6-0.5,1.1v7.8l-7.9,4
		c-0.4,0.2-0.7,0.7-0.7,1.2v0.9h-8.3c-0.7,0-1.3,0.6-1.3,1.3v21.6c0,0.7,0.6,1.3,1.3,1.3h36.3L666.7,136.5L666.7,136.5z
		 M649.8,101.4V100l2.9,0.7L649.8,101.4z M631.7,114.9h7v19h-7V114.9z M641.3,112.3l7.3-3.7l7.3,3.7v21.6h-14.6V112.3z M665.3,133.9
		h-6.8v-19h6.8V133.9z"/>
	<path class="st1" d="M646.5,114.5h-2.2c-0.7,0-1.3,0.6-1.3,1.3c0,0.7,0.6,1.3,1.3,1.3h2.2c0.7,0,1.3-0.6,1.3-1.3
		S647.3,114.5,646.5,114.5z"/>
	<path class="st1" d="M634.3,119.3h2.2c0.7,0,1.3-0.6,1.3-1.3c0-0.7-0.6-1.3-1.3-1.3h-2.2c-0.7,0-1.3,0.6-1.3,1.3
		S633.5,119.3,634.3,119.3z"/>
	<path class="st1" d="M636.3,121h-2.2c-0.7,0-1.3,0.6-1.3,1.3c0,0.7,0.6,1.3,1.3,1.3h2.2c0.7,0,1.3-0.6,1.3-1.3
		C637.8,121.6,637.2,121,636.3,121z"/>
	<path class="st1" d="M636.3,125.3h-2.2c-0.7,0-1.3,0.6-1.3,1.3c0,0.7,0.6,1.3,1.3,1.3h2.2c0.7,0,1.3-0.6,1.3-1.3
		C637.8,125.9,637.2,125.3,636.3,125.3z"/>
	<path class="st1" d="M661,119.3h2.2c0.7,0,1.3-0.6,1.3-1.3c0-0.7-0.6-1.3-1.3-1.3H661c-0.7,0-1.3,0.6-1.3,1.3
		S660.3,119.3,661,119.3z"/>
	<path class="st1" d="M661,123.6h2.2c0.7,0,1.3-0.6,1.3-1.3c0-0.7-0.6-1.3-1.3-1.3H661c-0.7,0-1.3,0.6-1.3,1.3
		S660.3,123.6,661,123.6z"/>
	<path class="st1" d="M663,125.3h-2c-0.7,0-1.3,0.6-1.3,1.3c0,0.7,0.6,1.3,1.3,1.3h2.2c0.7,0,1.3-0.6,1.3-1.3S663.8,125.3,663,125.3
		z"/>
	<path class="st1" d="M653,114.5h-2.2c-0.7,0-1.3,0.6-1.3,1.3c0,0.7,0.6,1.3,1.3,1.3h2.2c0.7,0,1.3-0.6,1.3-1.3
		S653.8,114.5,653,114.5z"/>
	<path class="st1" d="M646.5,118.8h-2.2c-0.7,0-1.3,0.6-1.3,1.3c0,0.7,0.6,1.3,1.3,1.3h2.2c0.7,0,1.3-0.6,1.3-1.3
		S647.3,118.8,646.5,118.8z"/>
	<path class="st1" d="M653,118.8h-2.2c-0.7,0-1.3,0.6-1.3,1.3c0,0.7,0.6,1.3,1.3,1.3h2.2c0.7,0,1.3-0.6,1.3-1.3
		S653.8,118.8,653,118.8z"/>
	<path class="st1" d="M646.5,123.1h-2.2c-0.7,0-1.3,0.6-1.3,1.3s0.6,1.3,1.3,1.3h2.2c0.7,0,1.3-0.6,1.3-1.3S647.3,123.1,646.5,123.1
		z"/>
	<path class="st1" d="M653,123.1h-2.2c-0.7,0-1.3,0.6-1.3,1.3s0.6,1.3,1.3,1.3h2.2c0.7,0,1.3-0.6,1.3-1.3S653.8,123.1,653,123.1z"/>
</g>
<polygon id="XMLID_63_" class="st8" points="1003.7,155.6 1005.2,155.6 1005.2,153.3 1009,153.3 1009,165.6 1005.2,165.6 
	1005.2,162.3 1007.7,162.3 1007.7,156.9 997.3,156.9 997.3,162.3 999.8,162.3 999.8,165.6 996,165.6 996,153.3 999.8,153.3 
	999.8,155.6 1001.3,155.6 1001.3,151.8 994.5,151.8 994.5,167.3 1001.3,167.3 1001.3,160.6 999,160.6 999,158.5 1006,158.5 
	1006,160.6 1003.7,160.6 1003.7,167.3 1010.5,167.3 1010.5,151.8 1003.7,151.8 "/>
<g>
	<g>
		<g>
			<path class="st1" d="M916.2,110.4c0.2-0.5,0.3-1,0.1-1.5s-0.5-0.9-1-1.2l-4.5-2.3c-0.1-0.1-0.2-0.2-0.3-0.4l-0.8-5
				c-0.2-1-1-1.7-2-1.7c-0.1,0-0.2,0-0.3,0l-5,0.8c-0.2,0-0.3,0-0.4-0.1l-3.6-3.6c-0.4-0.4-0.9-0.6-1.4-0.6s-1,0.2-1.4,0.6L892,99
				c-0.1,0.1-0.3,0.2-0.4,0.1l-5-0.8c-0.1,0-0.2,0-0.3,0c-1,0-1.8,0.7-2,1.7l-0.8,5c0,0.2-0.1,0.3-0.3,0.4l-4.5,2.3
				c-0.5,0.2-0.8,0.7-1,1.2s-0.1,1.1,0.1,1.5l2.3,4.5c0.1,0.1,0.1,0.3,0,0.5l-2.3,4.5c-0.2,0.5-0.3,1-0.1,1.5s0.5,0.9,1,1.2l4.5,2.3
				c0.1,0.1,0.2,0.2,0.3,0.4l0.8,5c0.2,1,1,1.7,2,1.7c0.1,0,0.2,0,0.3,0l5-0.8c0.2,0,0.3,0,0.4,0.1l3.6,3.6c0.4,0.4,0.9,0.6,1.4,0.6
				s1-0.2,1.4-0.6l3.6-3.6c0.1-0.1,0.3-0.2,0.4-0.1l5,0.8c0.1,0,0.2,0,0.3,0c1,0,1.8-0.7,2-1.7l0.8-5c0-0.2,0.1-0.3,0.3-0.4l4.5-2.3
				c0.5-0.2,0.8-0.7,1-1.2s0.1-1.1-0.1-1.5l-2.3-4.5c-0.1-0.1-0.1-0.3,0-0.5L916.2,110.4z M912.6,116.1l2.3,4.5
				c0.1,0.1,0.1,0.3,0,0.4c0,0.1-0.1,0.2-0.3,0.3l-4.5,2.3c-0.6,0.3-1,0.8-1.1,1.5l-0.8,5c0,0.3-0.3,0.5-0.6,0.4l-5-0.8
				c-0.1,0-0.2,0-0.3,0c-0.5,0-1,0.2-1.4,0.6l-3.6,3.6c-0.2,0.2-0.5,0.2-0.7,0l-3.4-3.7c-0.4-0.4-0.9-0.6-1.4-0.6
				c-0.1,0-0.2,0-0.3,0l-5,0.8c-0.3,0-0.5-0.2-0.6-0.4l-0.8-5c-0.1-0.6-0.5-1.2-1.1-1.5l-4.5-2.3c-0.1-0.1-0.2-0.2-0.3-0.3
				c0-0.1,0-0.3,0-0.4l2.3-4.5c0.3-0.6,0.3-1.3,0-1.8l-2.3-4.5c-0.1-0.1-0.1-0.3,0-0.4s0.1-0.2,0.3-0.3l4.5-2.3
				c0.6-0.3,1-0.8,1.1-1.5l0.8-5c0-0.3,0.3-0.5,0.6-0.4l5,0.8c0.1,0,0.2,0,0.3,0l0,0c0.5,0,1-0.2,1.4-0.6l3.6-3.6
				c0.2-0.2,0.5-0.2,0.7,0l3.6,3.6c0.4,0.5,1.1,0.7,1.7,0.6l5-0.8c0.3,0,0.5,0.2,0.6,0.4l0.8,5c0.1,0.6,0.5,1.2,1.1,1.5l4.5,2.3
				c0.1,0.1,0.2,0.2,0.3,0.3c0,0.1,0,0.3,0,0.4l-2.3,4.5C912.3,114.7,912.3,115.4,912.6,116.1z"/>
			<path class="st1" d="M903,106.6c0.1,0.1,0.3,0.1,0.4,0.1c0.2,0,0.5-0.1,0.6-0.3c0.2-0.3,0.1-0.8-0.2-1s-0.8-0.1-1,0.2
				S902.7,106.4,903,106.6z"/>
			<path class="st1" d="M905.4,108.6c0.2,0,0.4-0.1,0.5-0.2c0.3-0.3,0.3-0.7,0.1-1.1c-0.3-0.3-0.8-0.3-1.1-0.1
				c-0.3,0.3-0.3,0.7-0.1,1.1C905,108.4,905.2,108.6,905.4,108.6z"/>
			<path class="st1" d="M900.8,124.7c-0.4,0.1-0.6,0.6-0.4,1c0.1,0.3,0.4,0.5,0.7,0.5c0.1,0,0.2,0,0.3,0c0.4-0.1,0.6-0.6,0.4-1
				C901.6,124.9,901.2,124.6,900.8,124.7z"/>
			<path class="st1" d="M903,123.6c-0.3,0.2-0.4,0.7-0.2,1c0.1,0.2,0.4,0.3,0.6,0.3c0.1,0,0.3,0,0.4-0.1c0.3-0.2,0.4-0.7,0.2-1
				C903.8,123.4,903.4,123.4,903,123.6z"/>
			<path class="st1" d="M893.5,124.7c-0.4-0.1-0.8,0-1,0.4s0,0.8,0.4,1c0.1,0,0.2,0,0.3,0c0.3,0,0.6-0.2,0.7-0.5
				C894.1,125.4,893.9,124.9,893.5,124.7z"/>
			<path class="st1" d="M898.4,125.4c-0.4,0-0.7,0.4-0.7,0.8s0.4,0.7,0.7,0.7h0.1c0.4,0,0.7-0.4,0.7-0.8
				C899.2,125.6,898.8,125.2,898.4,125.4z"/>
			<path class="st1" d="M895.9,125.4L895.9,125.4c-0.4,0-0.8,0.2-0.8,0.7c0,0.4,0.2,0.8,0.7,0.8h0.1c0.4,0,0.7-0.3,0.7-0.7
				S896.3,125.4,895.9,125.4z"/>
			<path class="st1" d="M907.2,112.6L907.2,112.6c0.1,0.3,0.4,0.6,0.7,0.6c0.1,0,0.1,0,0.2,0c0.4-0.1,0.6-0.5,0.5-0.9
				s-0.5-0.6-0.9-0.5C907.3,111.9,907.1,112.2,907.2,112.6z"/>
			<path class="st1" d="M908.2,114.4c-0.4,0-0.8,0.3-0.8,0.8s0.3,0.8,0.8,0.7c0.4,0,0.8-0.3,0.7-0.8
				C909,114.6,908.6,114.4,908.2,114.4z"/>
			<path class="st1" d="M908.1,117.1c-0.4-0.1-0.8,0.1-0.9,0.5c-0.1,0.4,0.1,0.8,0.5,0.9c0.1,0,0.1,0,0.2,0c0.3,0,0.6-0.2,0.7-0.6
				C908.7,117.6,908.5,117.1,908.1,117.1z"/>
			<path class="st1" d="M906.9,110.7c0.1,0,0.2,0,0.3-0.1c0.4-0.2,0.5-0.6,0.3-1s-0.6-0.5-1-0.3s-0.5,0.6-0.3,1
				C906.4,110.6,906.7,110.7,906.9,110.7z"/>
			<path class="st1" d="M904.9,121.9c-0.3,0.3-0.2,0.8,0.1,1.1c0.1,0.1,0.3,0.2,0.5,0.2s0.4-0.1,0.6-0.3c0.3-0.3,0.2-0.8-0.1-1.1
				C905.6,121.6,905.1,121.6,904.9,121.9z"/>
			<path class="st1" d="M907.3,119.6c-0.4-0.2-0.8,0-1,0.3c-0.2,0.4,0,0.8,0.3,1c0.1,0.1,0.2,0.1,0.3,0.1c0.3,0,0.5-0.1,0.7-0.4
				C907.8,120.2,907.7,119.7,907.3,119.6z"/>
			<path class="st1" d="M888.9,108.6c0.2,0,0.4-0.1,0.6-0.2c0.3-0.3,0.2-0.8-0.1-1.1c-0.3-0.3-0.8-0.2-1.1,0.1s-0.2,0.8,0.1,1.1
				C888.5,108.4,888.7,108.6,888.9,108.6z"/>
			<path class="st1" d="M887,119.6c-0.4,0.2-0.5,0.6-0.3,1c0.1,0.3,0.4,0.4,0.7,0.4c0.1,0,0.2,0,0.3-0.1c0.4-0.2,0.5-0.6,0.3-1
				S887.4,119.4,887,119.6z"/>
			<path class="st1" d="M887.1,117.6c-0.1-0.4-0.5-0.6-0.9-0.5s-0.6,0.5-0.5,0.9c0.1,0.3,0.4,0.6,0.7,0.6c0.1,0,0.1,0,0.2,0
				C887,118.4,887.2,118.1,887.1,117.6z"/>
			<path class="st1" d="M886.2,113.1c0.1,0,0.1,0,0.2,0c0.3,0,0.6-0.2,0.7-0.6c0.1-0.4-0.1-0.8-0.5-0.9s-0.8,0.1-0.9,0.5
				C885.6,112.6,885.8,113.1,886.2,113.1z"/>
			<path class="st1" d="M886.1,115.9c0.4,0,0.7-0.3,0.7-0.8l0,0l0,0c0-0.4-0.3-0.8-0.8-0.8c-0.4,0-0.7,0.3-0.7,0.8l0,0l0,0
				C885.3,115.6,885.7,115.9,886.1,115.9L886.1,115.9z"/>
			<path class="st1" d="M887,110.6c0.1,0.1,0.2,0.1,0.3,0.1c0.3,0,0.5-0.1,0.7-0.4c0.2-0.4,0-0.8-0.3-1c-0.4-0.2-0.8,0-1,0.3
				S886.6,110.4,887,110.6z"/>
			<path class="st1" d="M888.4,121.9c-0.3,0.3-0.3,0.8-0.1,1.1c0.1,0.2,0.4,0.2,0.6,0.2c0.2,0,0.4-0.1,0.5-0.2
				c0.3-0.3,0.3-0.8,0.1-1.1C889.2,121.6,888.7,121.6,888.4,121.9z"/>
			<path class="st1" d="M895.8,104.9L895.8,104.9c0.5-0.1,0.8-0.4,0.7-0.8c0-0.4-0.4-0.7-0.8-0.7s-0.7,0.4-0.7,0.8
				C895.1,104.6,895.4,104.9,895.8,104.9z"/>
			<path class="st1" d="M898.4,104.9L898.4,104.9c0.5,0,0.8-0.3,0.8-0.7s-0.2-0.8-0.7-0.8c-0.4,0-0.8,0.2-0.8,0.7
				C897.7,104.4,898,104.9,898.4,104.9z"/>
			<path class="st1" d="M900.8,105.4c0.1,0,0.2,0,0.3,0c0.3,0,0.6-0.2,0.7-0.5c0.1-0.4,0-0.8-0.4-1c-0.4-0.1-0.8,0-1,0.4
				S900.4,105.4,900.8,105.4z"/>
			<path class="st1" d="M893.2,105.6c0.1,0,0.2,0,0.3,0c0.4-0.1,0.6-0.6,0.4-1c-0.1-0.4-0.6-0.6-1-0.4l0,0c-0.4,0.1-0.6,0.6-0.4,1
				C892.6,105.4,892.9,105.6,893.2,105.6z"/>
			<path class="st1" d="M891.3,123.6c-0.3-0.2-0.8-0.1-1,0.2c-0.2,0.3-0.1,0.8,0.2,1c0.1,0.1,0.3,0.1,0.4,0.1c0.2,0,0.5-0.1,0.6-0.3
				C891.7,124.4,891.6,123.9,891.3,123.6z"/>
			<path class="st1" d="M890.8,106.7c0.1,0,0.3,0,0.4-0.1c0.3-0.2,0.4-0.7,0.2-1s-0.7-0.4-1-0.2c-0.3,0.2-0.4,0.7-0.2,1
				C890.4,106.6,890.6,106.7,890.8,106.7z"/>
		</g>
	</g>
	<g>
		<path class="st1" d="M882.5,119.1h29.3c1.7,0,3.1-1.4,3.1-3.1c0-1.2-0.7-2.2-1.7-2.7v-3.4c0-0.4-0.2-0.8-0.6-0.9l-15-7.2
			c-0.3-0.1-0.6-0.1-0.9,0l-15,7.2c-0.4,0.2-0.6,0.5-0.6,0.9v3.4c-1,0.5-1.7,1.5-1.7,2.7C879.4,117.9,880.8,119.1,882.5,119.1z
			 M897.1,106.9c1.1,0,2,0.9,2,2s-0.9,2-2,2s-2-0.9-2-2S896,106.9,897.1,106.9z"/>
		<path class="st1" d="M911.6,130.7h-0.5l0.4-4c0.1-1.2,0.1-2.4,0-3.6l-0.2-1.9h-6.8l-0.2,1.9c-0.1,1.2-0.1,2.4,0,3.6l0.4,4h-4.5
			l0.4-4c0.1-1.2,0.1-2.4,0-3.6l-0.2-1.9h-6.8l-0.2,1.9c-0.1,1.2-0.1,2.4,0,3.6l0.4,4h-4.5l0.4-4c0.1-1.2,0.1-2.4,0-3.6l-0.2-1.9
			h-6.8l-0.2,1.9c-0.1,1.2-0.1,2.4,0,3.6l0.4,4h-0.5c-1.8,0-3.2,1.5-3.2,3.2s1.5,3.2,3.2,3.2h29c1.8,0,3.2-1.5,3.2-3.2
			S913.4,130.7,911.6,130.7z"/>
	</g>
</g>
<g>
	<path d="M1.7,108v4.9h4.5v0.8H1.7v5.6H0.9v-12.1h5.6v0.8C6.5,108,1.7,108,1.7,108z"/>
	<path d="M16.9,118.9c-1,0.4-2,0.6-3.1,0.6c-1.7,0-3-0.6-4-1.7s-1.6-2.6-1.6-4.3c0-2,0.6-3.5,1.7-4.7s2.6-1.8,4.3-1.8
		c0.9,0,1.8,0.2,2.7,0.5v0.9c-0.8-0.4-1.7-0.6-2.7-0.6c-1.5,0-2.8,0.5-3.7,1.5c-1,1-1.4,2.4-1.4,4.1s0.5,3,1.4,3.9
		c0.9,1,2.1,1.4,3.5,1.4c1.1,0,2.1-0.2,3-0.6v0.8H16.9z"/>
	<path d="M27.5,119.3l-1.4-3.8h-5.2l-1.4,3.8h-0.9l4.6-12.1H24l4.5,12.1H27.5z M23.8,109.2c-0.1-0.2-0.1-0.3-0.1-0.5
		c0-0.1-0.1-0.3-0.1-0.4l0,0c-0.1,0.4-0.2,0.7-0.3,0.9l-2,5.6H26L23.8,109.2z"/>
	<path d="M39.2,111.5c-0.3-0.2-0.6-0.3-0.9-0.3c-0.7,0-1.3,0.4-1.7,1.1s-0.7,1.7-0.7,3v4.1h-0.8v-8.6h0.8v1.9l0,0
		c0.2-0.7,0.5-1.2,0.9-1.5s0.9-0.6,1.5-0.6c0.3,0,0.6,0.1,0.9,0.2V111.5z"/>
	<path d="M40.6,115c0,1.2,0.3,2.1,0.8,2.8c0.5,0.7,1.3,1,2.3,1s1.9-0.4,2.8-1.1v0.8c-0.9,0.6-1.9,1-3,1s-2-0.4-2.7-1.2
		c-0.7-0.8-1-1.9-1-3.4c0-1.3,0.4-2.3,1.1-3.2c0.7-0.9,1.7-1.3,2.8-1.3s1.9,0.4,2.5,1.1c0.6,0.8,0.9,1.8,0.9,3.1v0.3L40.6,115
		L40.6,115z M46.2,114.3c0-1-0.3-1.8-0.7-2.3s-1.1-0.8-1.8-0.8c-0.8,0-1.5,0.3-2,0.8s-0.9,1.3-1,2.3H46.2z"/>
	<path d="M56.1,118.7c0,1.6-0.4,2.8-1.1,3.6c-0.7,0.8-1.8,1.1-3.3,1.1c-0.8,0-1.7-0.2-2.6-0.7v-0.8c0.9,0.5,1.8,0.8,2.6,0.8
		c2.4,0,3.6-1.3,3.6-3.8v-1.1l0,0c-0.7,1.2-1.7,1.8-3.1,1.8c-1.1,0-1.9-0.4-2.6-1.2c-0.7-0.8-1-1.8-1-3.2c0-1.4,0.4-2.5,1.1-3.4
		c0.7-0.9,1.7-1.3,2.9-1.3c1.3,0,2.2,0.5,2.8,1.6l0,0v-1.4h0.8v8H56.1z M55.3,114c0-0.8-0.3-1.4-0.8-2s-1.2-0.8-2-0.8
		c-1,0-1.7,0.4-2.3,1.1s-0.9,1.7-0.9,2.8c0,1.2,0.3,2.1,0.8,2.8c0.5,0.7,1.2,1,2.1,1c0.9,0,1.7-0.3,2.2-0.9s0.8-1.3,0.8-2.2V114
		H55.3z"/>
	<path d="M64.5,119.3v-1.6l0,0c-0.6,1.2-1.5,1.8-2.8,1.8c-2,0-3.1-1.3-3.1-3.9v-5h0.8v4.8c0,1.2,0.2,2,0.6,2.5
		c0.4,0.5,1,0.8,1.8,0.8s1.5-0.3,1.9-0.9c0.5-0.6,0.7-1.4,0.7-2.4v-4.9h0.8v8.6h-0.7V119.3z"/>
	<path d="M68.1,119.3v-12.8h0.8v12.8H68.1z"/>
	<path d="M76.8,119.3v-1.7l0,0c-0.3,0.6-0.7,1.1-1.2,1.4c-0.5,0.4-1.1,0.5-1.8,0.5c-0.8,0-1.5-0.2-2-0.7s-0.7-1-0.7-1.7
		c0-1.5,1-2.4,3-2.7l2.7-0.4c0-1.9-0.7-2.8-2.1-2.8c-0.9,0-1.9,0.4-2.8,1.1v-0.9c0.3-0.3,0.8-0.5,1.3-0.7s1.1-0.3,1.6-0.3
		c0.9,0,1.6,0.3,2.1,0.8c0.5,0.6,0.7,1.4,0.7,2.4v5.6L76.8,119.3L76.8,119.3z M74.4,115c-0.9,0.1-1.5,0.3-1.9,0.6S72,116.4,72,117
		c0,0.5,0.2,0.9,0.5,1.3c0.3,0.3,0.8,0.5,1.4,0.5c0.8,0,1.5-0.3,2.1-0.9s0.8-1.4,0.8-2.4v-0.8L74.4,115z"/>
	<path d="M83.6,119.2c-0.4,0.2-0.8,0.3-1.1,0.3c-1.3,0-1.9-0.8-1.9-2.3v-5.8H79v-0.7h1.6v-2.2c0.1,0,0.2-0.1,0.4-0.1
		c0.1,0,0.3-0.1,0.4-0.1v2.5h2.3v0.7h-2.3v5.7c0,0.6,0.1,1,0.3,1.3c0.2,0.3,0.5,0.4,1,0.4c0.3,0,0.7-0.1,1-0.3v0.6H83.6z"/>
	<path d="M85.7,108.5c-0.2,0-0.3-0.1-0.4-0.2s-0.2-0.3-0.2-0.5s0.1-0.3,0.2-0.4s0.3-0.2,0.4-0.2c0.2,0,0.3,0.1,0.5,0.2
		c0.1,0.1,0.2,0.3,0.2,0.5s-0.1,0.3-0.2,0.5C86,108.4,85.9,108.5,85.7,108.5z M85.3,119.3v-8.6h0.8v8.6H85.3z"/>
	<path d="M92.3,119.5c-1.3,0-2.3-0.4-3-1.2c-0.7-0.8-1.1-1.9-1.1-3.2c0-1.4,0.4-2.6,1.2-3.4c0.8-0.8,1.8-1.2,3-1.2s2.2,0.4,2.9,1.2
		c0.7,0.8,1.1,1.9,1.1,3.3c0,1.3-0.4,2.4-1.1,3.3C94.6,119.1,93.6,119.5,92.3,119.5z M92.4,111.2c-1,0-1.8,0.3-2.4,1
		s-0.9,1.6-0.9,2.9c0,1.1,0.3,2,0.9,2.7s1.4,1,2.4,1s1.8-0.3,2.4-1s0.8-1.6,0.8-2.8c0-1.2-0.3-2.2-0.8-2.8
		C94.2,111.5,93.4,111.2,92.4,111.2z"/>
	<path d="M104.4,119.3v-5c0-2.1-0.7-3.1-2.2-3.1c-0.8,0-1.5,0.3-2.1,0.9c-0.5,0.6-0.8,1.4-0.8,2.3v5h-0.8v-8.6h0.8v1.6l0,0
		c0.6-1.2,1.6-1.8,3-1.8c0.9,0,1.6,0.3,2.1,0.9s0.7,1.5,0.7,2.7v5.3h-0.7V119.3z"/>
</g>
<g>
	<path d="M585.3,195.2v11.3h-0.8v-11.3H581v-0.8h7.8v0.8H585.3z"/>
	<path d="M592.5,198.7c-0.3-0.2-0.6-0.3-0.9-0.3c-0.7,0-1.3,0.4-1.7,1.1s-0.7,1.7-0.7,3v4.1h-0.8V198h0.8v1.9l0,0
		c0.2-0.7,0.5-1.2,0.9-1.5s0.9-0.6,1.5-0.6c0.3,0,0.6,0.1,0.9,0.2V198.7z"/>
	<path d="M599.3,206.5v-1.7l0,0c-0.3,0.6-0.7,1.1-1.2,1.4s-1.1,0.5-1.8,0.5c-0.8,0-1.5-0.2-2-0.7s-0.7-1-0.7-1.7c0-1.5,1-2.4,3-2.7
		l2.7-0.4c0-1.9-0.7-2.8-2.1-2.8c-0.9,0-1.9,0.4-2.8,1.1v-0.9c0.3-0.3,0.8-0.5,1.3-0.7s1.1-0.3,1.6-0.3c0.9,0,1.6,0.3,2.1,0.8
		s0.7,1.4,0.7,2.4v5.6L599.3,206.5L599.3,206.5z M596.9,202.2c-0.9,0.1-1.5,0.3-1.9,0.6s-0.6,0.8-0.6,1.4c0,0.5,0.2,0.9,0.5,1.3
		s0.8,0.5,1.4,0.5c0.8,0,1.5-0.3,2.1-0.9s0.8-1.4,0.8-2.4v-0.8L596.9,202.2z"/>
	<path d="M608.5,206.5v-5c0-2.1-0.7-3.1-2.2-3.1c-0.8,0-1.5,0.3-2.1,0.9s-0.8,1.4-0.8,2.3v5h-0.8V198h0.8v1.6l0,0
		c0.6-1.2,1.6-1.8,3-1.8c0.9,0,1.6,0.3,2.1,0.9s0.7,1.5,0.7,2.7v5.3h-0.7V206.5z"/>
	<path d="M611.5,206.2v-0.9c0.3,0.3,0.6,0.4,1.1,0.6s0.8,0.2,1.1,0.2c1.4,0,2-0.6,2-1.7c0-0.4-0.1-0.7-0.4-1s-0.8-0.5-1.5-0.8
		c-0.8-0.4-1.4-0.7-1.7-1.1s-0.5-0.9-0.5-1.4c0-0.7,0.3-1.3,0.8-1.7s1.2-0.6,2-0.6c0.7,0,1.4,0.2,1.9,0.5v0.9
		c-0.6-0.4-1.3-0.6-2-0.6c-0.6,0-1,0.1-1.4,0.4s-0.5,0.7-0.5,1.2c0,0.4,0.1,0.7,0.3,1s0.7,0.5,1.5,0.9c0.9,0.4,1.5,0.8,1.9,1.1
		s0.5,0.8,0.5,1.4c0,0.7-0.3,1.2-0.8,1.7s-1.2,0.7-2.1,0.7C612.7,206.8,612,206.6,611.5,206.2z"/>
	<path d="M623.8,206.5v-1.7l0,0c-0.3,0.6-0.7,1.1-1.2,1.4s-1.1,0.5-1.8,0.5c-0.8,0-1.5-0.2-2-0.7s-0.7-1-0.7-1.7c0-1.5,1-2.4,3-2.7
		l2.7-0.4c0-1.9-0.7-2.8-2.1-2.8c-0.9,0-1.9,0.4-2.8,1.1v-0.9c0.3-0.3,0.8-0.5,1.3-0.7s1.1-0.3,1.6-0.3c0.9,0,1.6,0.3,2.1,0.8
		s0.7,1.4,0.7,2.4v5.6L623.8,206.5L623.8,206.5z M621.4,202.2c-0.9,0.1-1.5,0.3-1.9,0.6s-0.6,0.8-0.6,1.4c0,0.5,0.2,0.9,0.5,1.3
		s0.8,0.5,1.4,0.5c0.8,0,1.5-0.3,2.1-0.9s0.8-1.4,0.8-2.4v-0.8L621.4,202.2z"/>
	<path d="M632.8,206.2c-0.6,0.4-1.4,0.6-2.3,0.6c-1.2,0-2.1-0.4-2.8-1.2s-1.1-1.9-1.1-3.2c0-1.4,0.4-2.5,1.2-3.4s1.9-1.3,3.1-1.3
		c0.7,0,1.3,0.1,1.9,0.4v0.9c-0.6-0.4-1.3-0.6-2-0.6c-1,0-1.8,0.4-2.5,1.1s-0.9,1.7-0.9,2.8s0.3,2,0.9,2.7s1.3,1,2.3,1
		c0.9,0,1.6-0.2,2.3-0.7v0.9H632.8z"/>
	<path d="M638.3,206.4c-0.4,0.2-0.8,0.3-1.1,0.3c-1.3,0-1.9-0.8-1.9-2.3v-5.8h-1.6v-0.7h1.6v-2.2c0.1,0,0.2-0.1,0.4-0.1
		s0.3-0.1,0.4-0.1v2.5h2.3v0.7H636v5.7c0,0.6,0.1,1,0.3,1.3s0.5,0.4,1,0.4c0.3,0,0.7-0.1,1-0.3V206.4z"/>
	<path d="M640.4,195.7c-0.2,0-0.3-0.1-0.4-0.2s-0.2-0.3-0.2-0.5s0.1-0.3,0.2-0.4s0.3-0.2,0.4-0.2c0.2,0,0.3,0.1,0.5,0.2
		s0.2,0.3,0.2,0.5s-0.1,0.3-0.2,0.5S640.5,195.7,640.4,195.7z M640,206.5v-8.6h0.8v8.6H640z"/>
	<path d="M647,206.8c-1.3,0-2.3-0.4-3-1.2s-1.1-1.9-1.1-3.2c0-1.4,0.4-2.6,1.2-3.4s1.8-1.2,3-1.2s2.2,0.4,2.9,1.2s1.1,1.9,1.1,3.3
		c0,1.3-0.4,2.4-1.1,3.3S648.3,206.8,647,206.8z M647.1,198.4c-1,0-1.8,0.3-2.4,1s-0.9,1.6-0.9,2.9c0,1.1,0.3,2,0.9,2.7s1.4,1,2.4,1
		s1.8-0.3,2.4-1s0.8-1.6,0.8-2.8s-0.3-2.2-0.8-2.8S648.1,198.4,647.1,198.4z"/>
	<path d="M659.1,206.5v-5c0-2.1-0.7-3.1-2.2-3.1c-0.8,0-1.5,0.3-2.1,0.9s-0.8,1.4-0.8,2.3v5h-0.8V198h0.8v1.6l0,0
		c0.6-1.2,1.6-1.8,3-1.8c0.9,0,1.6,0.3,2.1,0.9s0.7,1.5,0.7,2.7v5.3h-0.7V206.5z"/>
	<path d="M677.9,206.5V198c0-0.2,0-0.8,0.1-1.8l0,0c-0.2,0.5-0.3,0.8-0.4,1.1l-4.3,9.3H673l-4.3-9.3c-0.1-0.3-0.3-0.7-0.4-1.1l0,0
		c0,0.5,0.1,1.1,0.1,1.6v8.8h-0.8v-12.1h0.8l4.5,9.8c0,0.1,0.1,0.1,0.1,0.2c0,0.1,0.1,0.2,0.1,0.3c0.1,0.1,0.1,0.3,0.2,0.5h0.1
		l0.1-0.3c0,0,0.1-0.3,0.3-0.8l4.4-9.7h0.7v12.1h-1V206.5z"/>
	<path d="M685.1,206.8c-1.3,0-2.3-0.4-3-1.2s-1.1-1.9-1.1-3.2c0-1.4,0.4-2.6,1.2-3.4s1.8-1.2,3-1.2s2.2,0.4,2.9,1.2s1.1,1.9,1.1,3.3
		c0,1.3-0.4,2.4-1.1,3.3S686.3,206.8,685.1,206.8z M685.1,198.4c-1,0-1.8,0.3-2.4,1s-0.9,1.6-0.9,2.9c0,1.1,0.3,2,0.9,2.7
		s1.4,1,2.4,1s1.8-0.3,2.4-1s0.8-1.6,0.8-2.8s-0.3-2.2-0.8-2.8S686.1,198.4,685.1,198.4z"/>
	<path d="M697.4,206.5V205l0,0c-0.3,0.5-0.7,1-1.3,1.3s-1.2,0.5-1.9,0.5c-1.1,0-1.9-0.4-2.6-1.2s-1-1.8-1-3.2s0.4-2.5,1.1-3.4
		s1.7-1.3,2.9-1.3c1.3,0,2.2,0.5,2.8,1.6l0,0v-5.5h0.8v12.8h-0.8V206.5z M697.4,201.3c0-0.8-0.3-1.5-0.8-2s-1.2-0.8-2.1-0.8
		c-0.9,0-1.7,0.3-2.2,1s-0.9,1.6-0.9,2.9c0,1.2,0.3,2.1,0.8,2.8s1.2,1,2.1,1c1,0,1.7-0.3,2.3-0.9s0.8-1.4,0.8-2.2L697.4,201.3
		L697.4,201.3z"/>
	<path d="M706.7,206.5V205l0,0c-0.6,1.2-1.5,1.8-2.8,1.8c-2,0-3.1-1.3-3.1-3.9v-5h0.8v4.8c0,1.2,0.2,2,0.6,2.5s1,0.8,1.8,0.8
		s1.5-0.3,1.9-0.9s0.7-1.4,0.7-2.4v-4.9h0.8v8.6L706.7,206.5L706.7,206.5z"/>
	<path d="M710.2,206.5v-12.8h0.8v12.8H710.2z"/>
	<path d="M714,202.3c0,1.2,0.3,2.1,0.8,2.8s1.3,1,2.3,1s1.9-0.4,2.8-1.1v0.8c-0.9,0.6-1.9,1-3,1s-2-0.4-2.7-1.2s-1-1.9-1-3.4
		c0-1.3,0.4-2.3,1.1-3.2s1.7-1.3,2.8-1.3s1.9,0.4,2.5,1.1s0.9,1.8,0.9,3.1v0.3L714,202.3L714,202.3z M719.5,201.6
		c0-1-0.3-1.8-0.7-2.3s-1.1-0.8-1.8-0.8c-0.8,0-1.5,0.3-2,0.8s-0.9,1.3-1,2.3H719.5z"/>
</g>
<g>
	<path d="M842.6,195.2v4.9h4.5v0.8h-4.5v5.6h-0.8v-12.1h5.6v0.8H842.6z"/>
	<path d="M857.8,206.2c-1,0.4-2,0.6-3.1,0.6c-1.7,0-3-0.6-4-1.7s-1.6-2.6-1.6-4.3c0-2,0.6-3.5,1.7-4.7s2.6-1.8,4.3-1.8
		c0.9,0,1.8,0.2,2.7,0.5v0.9c-0.8-0.4-1.7-0.6-2.7-0.6c-1.5,0-2.8,0.5-3.7,1.5s-1.4,2.4-1.4,4.1c0,1.7,0.5,3,1.4,3.9
		s2.1,1.4,3.5,1.4c1.1,0,2.1-0.2,3-0.6v0.8H857.8z"/>
	<path d="M868.4,206.5l-1.4-3.8h-5.2l-1.4,3.8h-0.9l4.6-12.1h0.8l4.5,12.1H868.4z M864.7,196.4c-0.1-0.2-0.1-0.3-0.1-0.5
		c0-0.1-0.1-0.3-0.1-0.4l0,0c-0.1,0.4-0.2,0.7-0.3,0.9l-2,5.6h4.7L864.7,196.4z"/>
	<path d="M882.3,206.5l-1.6-3.5c-0.3-0.7-0.7-1.2-1-1.5s-0.7-0.4-1.2-0.4H877v5.4h-0.8v-12.1h3.4c1.1,0,1.9,0.3,2.5,0.9
		s0.9,1.3,0.9,2.3c0,0.9-0.3,1.6-0.8,2.2s-1.2,1-2.1,1.1l0,0c0.5,0.2,0.9,0.8,1.4,1.7l1.8,3.9L882.3,206.5L882.3,206.5z
		 M876.9,195.2v5.2h2.1c0.9,0,1.7-0.2,2.2-0.7s0.8-1.1,0.8-2c0-0.8-0.2-1.4-0.7-1.8s-1.2-0.7-2.1-0.7H876.9z"/>
	<path d="M885.7,202.3c0,1.2,0.3,2.1,0.8,2.8s1.3,1,2.3,1s1.9-0.4,2.8-1.1v0.8c-0.9,0.6-1.9,1-3,1s-2-0.4-2.7-1.2s-1-1.9-1-3.4
		c0-1.3,0.4-2.3,1.1-3.2s1.7-1.3,2.8-1.3s1.9,0.4,2.5,1.1s0.9,1.8,0.9,3.1v0.3L885.7,202.3L885.7,202.3z M891.3,201.6
		c0-1-0.3-1.8-0.7-2.3s-1.1-0.8-1.8-0.8c-0.8,0-1.5,0.3-2,0.8s-0.9,1.3-1,2.3H891.3z"/>
	<path d="M901.2,205.9c0,1.6-0.4,2.8-1.1,3.6c-0.7,0.8-1.8,1.1-3.3,1.1c-0.8,0-1.7-0.2-2.6-0.7v-0.8c0.9,0.5,1.8,0.8,2.6,0.8
		c2.4,0,3.6-1.3,3.6-3.8V205l0,0c-0.7,1.2-1.7,1.8-3.1,1.8c-1.1,0-1.9-0.4-2.6-1.2s-1-1.8-1-3.2s0.4-2.5,1.1-3.4s1.7-1.3,2.9-1.3
		c1.3,0,2.2,0.5,2.8,1.6l0,0v-1.4h0.8v8H901.2z M900.4,201.2c0-0.8-0.3-1.4-0.8-2s-1.2-0.8-2-0.8c-1,0-1.7,0.4-2.3,1.1
		s-0.9,1.7-0.9,2.8c0,1.2,0.3,2.1,0.8,2.8s1.2,1,2.1,1c0.9,0,1.7-0.3,2.2-0.9s0.8-1.3,0.8-2.2v-1.8H900.4z"/>
	<path d="M909.6,206.5V205l0,0c-0.6,1.2-1.5,1.8-2.8,1.8c-2,0-3.1-1.3-3.1-3.9v-5h0.8v4.8c0,1.2,0.2,2,0.6,2.5s1,0.8,1.8,0.8
		s1.5-0.3,1.9-0.9s0.7-1.4,0.7-2.4v-4.9h0.8v8.6L909.6,206.5L909.6,206.5z"/>
	<path d="M913.2,206.5v-12.8h0.8v12.8H913.2z"/>
	<path d="M921.9,206.5v-1.7l0,0c-0.3,0.6-0.7,1.1-1.2,1.4s-1.1,0.5-1.8,0.5c-0.8,0-1.5-0.2-2-0.7s-0.7-1-0.7-1.7c0-1.5,1-2.4,3-2.7
		l2.7-0.4c0-1.9-0.7-2.8-2.1-2.8c-0.9,0-1.9,0.4-2.8,1.1v-0.9c0.3-0.3,0.8-0.5,1.3-0.7s1.1-0.3,1.6-0.3c0.9,0,1.6,0.3,2.1,0.8
		s0.7,1.4,0.7,2.4v5.6L921.9,206.5L921.9,206.5z M919.5,202.2c-0.9,0.1-1.5,0.3-1.9,0.6s-0.6,0.8-0.6,1.4c0,0.5,0.2,0.9,0.5,1.3
		s0.8,0.5,1.4,0.5c0.8,0,1.5-0.3,2.1-0.9s0.8-1.4,0.8-2.4v-0.8L919.5,202.2z"/>
	<path d="M928.7,206.4c-0.4,0.2-0.8,0.3-1.1,0.3c-1.3,0-1.9-0.8-1.9-2.3v-5.8h-1.6v-0.7h1.6v-2.2c0.1,0,0.2-0.1,0.4-0.1
		s0.3-0.1,0.4-0.1v2.5h2.3v0.7h-2.3v5.7c0,0.6,0.1,1,0.3,1.3s0.5,0.4,1,0.4c0.3,0,0.7-0.1,1-0.3v0.6H928.7z"/>
	<path d="M930.8,195.7c-0.2,0-0.3-0.1-0.4-0.2s-0.2-0.3-0.2-0.5s0.1-0.3,0.2-0.4s0.3-0.2,0.4-0.2c0.2,0,0.3,0.1,0.5,0.2
		s0.2,0.3,0.2,0.5s-0.1,0.3-0.2,0.5S930.9,195.7,930.8,195.7z M930.4,206.5v-8.6h0.8v8.6H930.4z"/>
	<path d="M937.4,206.8c-1.3,0-2.3-0.4-3-1.2s-1.1-1.9-1.1-3.2c0-1.4,0.4-2.6,1.2-3.4s1.8-1.2,3-1.2s2.2,0.4,2.9,1.2s1.1,1.9,1.1,3.3
		c0,1.3-0.4,2.4-1.1,3.3S938.7,206.8,937.4,206.8z M937.5,198.4c-1,0-1.8,0.3-2.4,1s-0.9,1.6-0.9,2.9c0,1.1,0.3,2,0.9,2.7
		s1.4,1,2.4,1s1.8-0.3,2.4-1s0.8-1.6,0.8-2.8s-0.3-2.2-0.8-2.8S938.5,198.4,937.5,198.4z"/>
	<path d="M949.5,206.5v-5c0-2.1-0.7-3.1-2.2-3.1c-0.8,0-1.5,0.3-2.1,0.9s-0.8,1.4-0.8,2.3v5h-0.8V198h0.8v1.6l0,0
		c0.6-1.2,1.6-1.8,3-1.8c0.9,0,1.6,0.3,2.1,0.9s0.7,1.5,0.7,2.7v5.3h-0.7V206.5z"/>
	<path d="M860.9,223.7v4.9h-0.8v-12.1h2.9c1.2,0,2.2,0.3,2.9,0.9s1,1.4,1,2.5s-0.4,2-1.1,2.8s-1.8,1.1-3.1,1.1L860.9,223.7
		L860.9,223.7z M860.9,217.2v5.7h1.7c1.1,0,1.9-0.3,2.5-0.8s0.9-1.3,0.9-2.2c0-1.8-1-2.7-3.1-2.7H860.9z"/>
	<path d="M879.9,228.5h-0.7l-2.7-9.1c-0.1-0.5-0.2-0.8-0.2-1.1l0,0c0,0.2-0.1,0.6-0.3,1.1l-2.9,9.1h-0.7l-3.6-12.1h0.9l2.8,9.7
		c0.1,0.4,0.2,0.8,0.3,1.1l0,0c0-0.2,0.1-0.6,0.3-1.1l3-9.7h0.4l2.7,9.7c0.1,0.5,0.2,0.8,0.3,1.1l0,0c0-0.2,0.1-0.3,0.1-0.5
		l2.8-10.2h0.9L879.9,228.5z"/>
	<path d="M893.5,228.2c-1,0.4-2,0.6-3.1,0.6c-1.7,0-3-0.6-4-1.7s-1.6-2.6-1.6-4.3c0-2,0.6-3.5,1.7-4.7s2.6-1.8,4.3-1.8
		c0.9,0,1.8,0.2,2.7,0.5v0.9c-0.8-0.4-1.7-0.6-2.7-0.6c-1.5,0-2.8,0.5-3.7,1.5s-1.4,2.4-1.4,4.1c0,1.7,0.5,3,1.4,3.9
		s2.1,1.4,3.5,1.4c1.1,0,2.1-0.2,3-0.6v0.8H893.5z"/>
	<path d="M908.8,228.5l-1.4-3.8h-5.2l-1.4,3.8h-0.9l4.6-12.1h0.8l4.5,12.1H908.8z M905.1,218.4c-0.1-0.2-0.1-0.3-0.1-0.5
		c0-0.1-0.1-0.3-0.1-0.4l0,0c-0.1,0.4-0.2,0.7-0.3,0.9l-2,5.6h4.7L905.1,218.4z"/>
	<path d="M917.3,228.5V227l0,0c-0.6,1.2-1.5,1.8-2.8,1.8c-2,0-3.1-1.3-3.1-3.9v-5h0.8v4.8c0,1.2,0.2,2,0.6,2.5s1,0.8,1.8,0.8
		s1.5-0.3,1.9-0.9s0.7-1.4,0.7-2.4v-4.9h0.8v8.6L917.3,228.5L917.3,228.5z"/>
	<path d="M927,228.5V227l0,0c-0.3,0.5-0.7,1-1.3,1.3s-1.2,0.5-1.9,0.5c-1.1,0-1.9-0.4-2.6-1.2s-1-1.8-1-3.2s0.4-2.5,1.1-3.4
		s1.7-1.3,2.9-1.3c1.3,0,2.2,0.5,2.8,1.6l0,0v-5.5h0.8v12.8H927V228.5z M927,223.3c0-0.8-0.3-1.5-0.8-2s-1.2-0.8-2.1-0.8
		c-0.9,0-1.7,0.3-2.2,1s-0.9,1.6-0.9,2.9c0,1.2,0.3,2.1,0.8,2.8s1.2,1,2.1,1c1,0,1.7-0.3,2.3-0.9s0.8-1.4,0.8-2.2L927,223.3
		L927,223.3z"/>
	<path d="M930.9,217.7c-0.2,0-0.3-0.1-0.4-0.2s-0.2-0.3-0.2-0.5s0.1-0.3,0.2-0.4s0.3-0.2,0.4-0.2c0.2,0,0.3,0.1,0.5,0.2
		s0.2,0.3,0.2,0.5s-0.1,0.3-0.2,0.5S931.1,217.7,930.9,217.7z M930.6,228.5v-8.6h0.8v8.6H930.6z"/>
	<path d="M937.5,228.4c-0.4,0.2-0.8,0.3-1.1,0.3c-1.3,0-1.9-0.8-1.9-2.3v-5.8h-1.6v-0.7h1.6v-2.2c0.1,0,0.2-0.1,0.4-0.1
		s0.3-0.1,0.4-0.1v2.5h2.3v0.7h-2.3v5.7c0,0.6,0.1,1,0.3,1.3s0.5,0.4,1,0.4c0.3,0,0.7-0.1,1-0.3v0.6H937.5z"/>
</g>
<g>
	<path d="M9.1,307c-1,0.4-2,0.6-3.1,0.6c-1.7,0-3-0.6-4-1.7s-1.6-2.6-1.6-4.3c0-2,0.6-3.5,1.7-4.7s2.6-1.8,4.3-1.8
		c0.9,0,1.8,0.2,2.7,0.5v0.9c-0.8-0.4-1.7-0.6-2.7-0.6c-1.5,0-2.8,0.5-3.7,1.5c-1,1-1.4,2.4-1.4,4.1s0.5,3,1.4,3.9
		c0.9,1,2.1,1.4,3.5,1.4c1.1,0,2.1-0.2,3-0.6v0.8H9.1z"/>
	<path d="M16.8,307.4v-1.7l0,0c-0.3,0.6-0.7,1.1-1.2,1.4c-0.5,0.4-1.1,0.5-1.8,0.5c-0.8,0-1.5-0.2-2-0.7s-0.7-1-0.7-1.7
		c0-1.5,1-2.4,3-2.7l2.7-0.4c0-1.9-0.7-2.8-2.1-2.8c-0.9,0-1.9,0.4-2.8,1.1v-0.9c0.3-0.3,0.8-0.5,1.3-0.7s1.1-0.3,1.6-0.3
		c0.9,0,1.6,0.3,2.1,0.8s0.7,1.4,0.7,2.4v5.6h-0.8V307.4z M14.4,303.1c-0.9,0.1-1.5,0.3-1.9,0.6s-0.6,0.8-0.6,1.4
		c0,0.5,0.2,0.9,0.5,1.3c0.3,0.3,0.8,0.5,1.4,0.5c0.8,0,1.5-0.3,2.1-0.9s0.8-1.4,0.8-2.4v-0.8L14.4,303.1z"/>
	<path d="M22.3,309.2c-0.3,0.8-0.7,1.4-1,1.7s-0.9,0.6-1.5,0.6c-0.3,0-0.5,0-0.7-0.1v-0.8c0.2,0.1,0.4,0.1,0.7,0.1
		c0.7,0,1.2-0.5,1.6-1.4l0.8-1.9l-3.3-8.6h0.9l2.6,7c0.1,0.2,0.1,0.3,0.1,0.3c0,0.1,0,0.2,0.1,0.3l0,0l0.2-0.6l2.8-7.1h0.8
		L22.3,309.2z"/>
	<path d="M38.9,307.4v-5.2c0-1.1-0.2-1.9-0.5-2.3s-0.9-0.7-1.6-0.7c-0.7,0-1.3,0.3-1.8,0.9s-0.7,1.3-0.7,2.2v5.1h-0.8v-5.3
		c0-1.9-0.7-2.9-2.2-2.9c-0.7,0-1.3,0.3-1.8,0.9s-0.7,1.3-0.7,2.3v5H28v-8.6h0.8v1.4l0,0c0.6-1.1,1.5-1.6,2.6-1.6
		c0.6,0,1.2,0.2,1.6,0.5c0.4,0.4,0.8,0.8,0.9,1.4c0.3-0.6,0.7-1.1,1.2-1.5c0.5-0.3,1-0.5,1.6-0.5c1.9,0,2.8,1.2,2.8,3.5v5.3h-0.6
		V307.4z"/>
	<path d="M47.4,307.4v-1.7l0,0c-0.3,0.6-0.7,1.1-1.2,1.4c-0.5,0.4-1.1,0.5-1.8,0.5c-0.8,0-1.5-0.2-2-0.7s-0.7-1-0.7-1.7
		c0-1.5,1-2.4,3-2.7l2.7-0.4c0-1.9-0.7-2.8-2.1-2.8c-0.9,0-1.9,0.4-2.8,1.1v-0.9c0.3-0.3,0.8-0.5,1.3-0.7s1.1-0.3,1.6-0.3
		c0.9,0,1.6,0.3,2.1,0.8s0.7,1.4,0.7,2.4v5.6h-0.8V307.4z M45,303.1c-0.9,0.1-1.5,0.3-1.9,0.6s-0.6,0.8-0.6,1.4
		c0,0.5,0.2,0.9,0.5,1.3c0.3,0.3,0.8,0.5,1.4,0.5c0.8,0,1.5-0.3,2.1-0.9s0.8-1.4,0.8-2.4v-0.8L45,303.1z"/>
	<path d="M56.6,307.4v-5c0-2.1-0.7-3.1-2.2-3.1c-0.8,0-1.5,0.3-2.1,0.9c-0.5,0.6-0.8,1.4-0.8,2.3v5h-0.8v-8.6h0.8v1.6l0,0
		c0.6-1.2,1.6-1.8,3-1.8c0.9,0,1.6,0.3,2.1,0.9s0.7,1.5,0.7,2.7v5.3h-0.7V307.4z"/>
	<path d="M71.1,307.4l-1.6-3.5c-0.3-0.7-0.7-1.2-1-1.5s-0.7-0.4-1.2-0.4h-1.5v5.4H65v-12.1h3.4c1.1,0,1.9,0.3,2.5,0.9
		s0.9,1.3,0.9,2.3c0,0.9-0.3,1.6-0.8,2.2s-1.2,1-2.1,1.1l0,0c0.5,0.2,0.9,0.8,1.4,1.7l1.8,3.9H71.1z M65.8,296.1v5.2h2.1
		c0.9,0,1.7-0.2,2.2-0.7s0.8-1.1,0.8-2c0-0.8-0.2-1.4-0.7-1.8s-1.2-0.7-2.1-0.7H65.8z"/>
	<path d="M74.5,303.1c0,1.2,0.3,2.1,0.8,2.8s1.3,1,2.3,1s1.9-0.4,2.8-1.1v0.8c-0.9,0.6-1.9,1-3,1s-2-0.4-2.7-1.2s-1-1.9-1-3.4
		c0-1.3,0.4-2.3,1.1-3.2s1.7-1.3,2.8-1.3c1.1,0,1.9,0.4,2.5,1.1c0.6,0.8,0.9,1.8,0.9,3.1v0.3h-6.5V303.1z M80.1,302.4
		c0-1-0.3-1.8-0.7-2.3c-0.4-0.5-1.1-0.8-1.8-0.8c-0.8,0-1.5,0.3-2,0.8s-0.9,1.3-1,2.3H80.1z"/>
	<path d="M90,306.8c0,1.6-0.4,2.8-1.1,3.6s-1.8,1.1-3.3,1.1c-0.8,0-1.7-0.2-2.6-0.7V310c0.9,0.5,1.8,0.8,2.6,0.8
		c2.4,0,3.6-1.3,3.6-3.8v-1.1l0,0c-0.7,1.2-1.7,1.8-3.1,1.8c-1.1,0-1.9-0.4-2.6-1.2s-1-1.8-1-3.2c0-1.4,0.4-2.5,1.1-3.4
		s1.7-1.3,2.9-1.3c1.3,0,2.2,0.5,2.8,1.6l0,0v-1.4H90V306.8z M89.2,302.1c0-0.8-0.3-1.4-0.8-2s-1.2-0.8-2-0.8c-1,0-1.7,0.4-2.3,1.1
		s-0.9,1.7-0.9,2.8c0,1.2,0.3,2.1,0.8,2.8s1.2,1,2.1,1s1.7-0.3,2.2-0.9s0.8-1.3,0.8-2.2v-1.8H89.2z"/>
	<path d="M98.5,307.4v-1.6l0,0c-0.6,1.2-1.5,1.8-2.8,1.8c-2,0-3.1-1.3-3.1-3.9v-5h0.8v4.8c0,1.2,0.2,2,0.6,2.5s1,0.8,1.8,0.8
		s1.5-0.3,1.9-0.9c0.5-0.6,0.7-1.4,0.7-2.4v-4.9h0.8v8.6h-0.7V307.4z"/>
	<path d="M102,307.4v-12.8h0.8v12.8H102z"/>
	<path d="M110.7,307.4v-1.7l0,0c-0.3,0.6-0.7,1.1-1.2,1.4c-0.5,0.4-1.1,0.5-1.8,0.5c-0.8,0-1.5-0.2-2-0.7s-0.7-1-0.7-1.7
		c0-1.5,1-2.4,3-2.7l2.7-0.4c0-1.9-0.7-2.8-2.1-2.8c-0.9,0-1.9,0.4-2.8,1.1v-0.9c0.3-0.3,0.8-0.5,1.3-0.7s1.1-0.3,1.6-0.3
		c0.9,0,1.6,0.3,2.1,0.8s0.7,1.4,0.7,2.4v5.6h-0.8V307.4z M108.3,303.1c-0.9,0.1-1.5,0.3-1.9,0.6s-0.6,0.8-0.6,1.4
		c0,0.5,0.2,0.9,0.5,1.3c0.3,0.3,0.8,0.5,1.4,0.5c0.8,0,1.5-0.3,2.1-0.9s0.8-1.4,0.8-2.4v-0.8L108.3,303.1z"/>
	<path d="M117.5,307.3c-0.4,0.2-0.8,0.3-1.1,0.3c-1.3,0-1.9-0.8-1.9-2.3v-5.8h-1.6v-0.7h1.6v-2.2c0.1,0,0.2-0.1,0.4-0.1
		c0.1,0,0.3-0.1,0.4-0.1v2.5h2.3v0.7h-2.3v5.7c0,0.6,0.1,1,0.3,1.3s0.5,0.4,1,0.4c0.3,0,0.7-0.1,1-0.3v0.6H117.5z"/>
	<path d="M119.6,296.6c-0.2,0-0.3-0.1-0.4-0.2s-0.2-0.3-0.2-0.5s0.1-0.3,0.2-0.4s0.3-0.2,0.4-0.2c0.2,0,0.3,0.1,0.5,0.2
		s0.2,0.3,0.2,0.5s-0.1,0.3-0.2,0.5C119.9,296.5,119.8,296.6,119.6,296.6z M119.2,307.4v-8.6h0.8v8.6H119.2z"/>
	<path d="M126.2,307.6c-1.3,0-2.3-0.4-3-1.2s-1.1-1.9-1.1-3.2c0-1.4,0.4-2.6,1.2-3.4c0.8-0.8,1.8-1.2,3-1.2s2.2,0.4,2.9,1.2
		c0.7,0.8,1.1,1.9,1.1,3.3c0,1.3-0.4,2.4-1.1,3.3C128.5,307.2,127.5,307.6,126.2,307.6z M126.3,299.3c-1,0-1.8,0.3-2.4,1
		s-0.9,1.6-0.9,2.9c0,1.1,0.3,2,0.9,2.7s1.4,1,2.4,1s1.8-0.3,2.4-1s0.8-1.6,0.8-2.8c0-1.2-0.3-2.2-0.8-2.8
		C128.1,299.6,127.3,299.3,126.3,299.3z"/>
	<path d="M138.3,307.4v-5c0-2.1-0.7-3.1-2.2-3.1c-0.8,0-1.5,0.3-2.1,0.9c-0.5,0.6-0.8,1.4-0.8,2.3v5h-0.8v-8.6h0.8v1.6l0,0
		c0.6-1.2,1.6-1.8,3-1.8c0.9,0,1.6,0.3,2.1,0.9s0.7,1.5,0.7,2.7v5.3h-0.7V307.4z"/>
	<path d="M35,324.6v4.9h-0.8v-12.1h2.9c1.2,0,2.2,0.3,2.9,0.9s1,1.4,1,2.5s-0.4,2-1.1,2.8s-1.8,1.1-3.1,1.1L35,324.6L35,324.6z
		 M35,318.1v5.7h1.7c1.1,0,1.9-0.3,2.5-0.8s0.9-1.3,0.9-2.2c0-1.8-1-2.7-3.1-2.7H35z"/>
	<path d="M54,329.4h-0.7l-2.7-9.1c-0.1-0.5-0.2-0.8-0.2-1.1l0,0c0,0.2-0.1,0.6-0.3,1.1l-2.9,9.1h-0.7L43,317.3h0.9l2.8,9.7
		c0.1,0.4,0.2,0.8,0.3,1.1l0,0c0-0.2,0.1-0.6,0.3-1.1l3-9.7h0.4l2.7,9.7c0.1,0.5,0.2,0.8,0.3,1.1l0,0c0-0.2,0.1-0.3,0.1-0.5
		l2.8-10.2h0.9L54,329.4z"/>
	<path d="M67.6,329c-1,0.4-2,0.6-3.1,0.6c-1.7,0-3-0.6-4-1.7s-1.6-2.6-1.6-4.3c0-2,0.6-3.5,1.7-4.7c1.1-1.2,2.6-1.8,4.3-1.8
		c0.9,0,1.8,0.2,2.7,0.5v0.9c-0.8-0.4-1.7-0.6-2.7-0.6c-1.5,0-2.8,0.5-3.7,1.5c-1,1-1.4,2.4-1.4,4.1s0.5,3,1.4,3.9
		c0.9,1,2.1,1.4,3.5,1.4c1.1,0,2.1-0.2,3-0.6L67.6,329L67.6,329z"/>
	<path d="M82.9,329.4l-1.4-3.8h-5.2l-1.4,3.8H74l4.6-12.1h0.8l4.5,12.1H82.9z M79.2,319.3c-0.1-0.2-0.1-0.3-0.1-0.5
		c0-0.1-0.1-0.3-0.1-0.4l0,0c-0.1,0.4-0.2,0.7-0.3,0.9l-2,5.6h4.7L79.2,319.3z"/>
	<path d="M91.4,329.4v-1.6l0,0c-0.6,1.2-1.5,1.8-2.8,1.8c-2,0-3.1-1.3-3.1-3.9v-5h0.8v4.8c0,1.2,0.2,2,0.6,2.5s1,0.8,1.8,0.8
		s1.5-0.3,1.9-0.9c0.5-0.6,0.7-1.4,0.7-2.4v-4.9h0.8v8.6h-0.7V329.4z"/>
	<path d="M101.1,329.4v-1.6l0,0c-0.3,0.5-0.7,1-1.3,1.3c-0.6,0.3-1.2,0.5-1.9,0.5c-1.1,0-1.9-0.4-2.6-1.2s-1-1.8-1-3.2
		c0-1.4,0.4-2.5,1.1-3.4s1.7-1.3,2.9-1.3c1.3,0,2.2,0.5,2.8,1.6l0,0v-5.5h0.8v12.8L101.1,329.4L101.1,329.4z M101.1,324.1
		c0-0.8-0.3-1.5-0.8-2s-1.2-0.8-2.1-0.8s-1.7,0.3-2.2,1c-0.6,0.7-0.9,1.6-0.9,2.9c0,1.2,0.3,2.1,0.8,2.8s1.2,1,2.1,1
		c1,0,1.7-0.3,2.3-0.9s0.8-1.4,0.8-2.2C101.1,325.9,101.1,324.1,101.1,324.1z"/>
	<path d="M105,318.6c-0.2,0-0.3-0.1-0.4-0.2s-0.2-0.3-0.2-0.5s0.1-0.3,0.2-0.4s0.3-0.2,0.4-0.2c0.2,0,0.3,0.1,0.5,0.2
		s0.2,0.3,0.2,0.5s-0.1,0.3-0.2,0.5C105.4,318.5,105.2,318.6,105,318.6z M104.7,329.4v-8.6h0.8v8.6H104.7z"/>
	<path d="M111.6,329.3c-0.4,0.2-0.8,0.3-1.1,0.3c-1.3,0-1.9-0.8-1.9-2.3v-5.8H107v-0.7h1.6v-2.2c0.1,0,0.2-0.1,0.4-0.1
		c0.1,0,0.3-0.1,0.4-0.1v2.5h2.3v0.7h-2.3v5.7c0,0.6,0.1,1,0.3,1.3s0.5,0.4,1,0.4c0.3,0,0.7-0.1,1-0.3v0.6H111.6z"/>
</g>
<path id="圆角矩形_1-5" class="st9" d="M9.5,245l39.1-10c1.7-0.4,3.4-0.3,5,0.1l32.8,10.6c1.4,0.5,1.6,1.2,0.4,1.7L52.5,260
	c-2,0.6-4.1,0.6-6.1,0.1L8.7,246.9C7.2,246.3,7.5,245.5,9.5,245z"/>
<path id="圆角矩形_1-3" class="st9" d="M249.5,245l39.1-10c1.7-0.4,3.4-0.3,5,0.1l32.8,10.6c1.4,0.5,1.6,1.2,0.4,1.7L292.5,260
	c-2,0.6-4.1,0.6-6.1,0.1l-37.7-13.2C247.2,246.3,247.5,245.5,249.5,245z"/>
<path id="圆角矩形_1-2" class="st9" d="M249.5,55.3l39.1-10.1c1.7-0.3,3.4-0.3,5,0.2L326.3,56c1.4,0.5,1.6,1.2,0.4,1.7
	l-34.2,12.5c-2,0.7-4.1,0.7-6.1,0.1l-37.7-13.2C247.2,56.6,247.5,55.8,249.5,55.3z"/>
<path id="圆角矩形_1-4" class="st9" d="M9.5,55.3l39.1-10.1c1.7-0.3,3.4-0.3,5,0.2L86.3,56c1.4,0.5,1.6,1.2,0.4,1.7L52.5,70.2
	c-2,0.7-4.1,0.7-6.1,0.1L8.7,57.1C7.2,56.6,7.5,55.8,9.5,55.3z"/>
<path id="圆角矩形_1" class="st9" d="M609.2,144.5l39.1-10c1.6-0.4,3.4-0.3,5,0.1l32.8,10.6c1.4,0.5,1.6,1.2,0.4,1.7l-34.2,12.6
	c-2,0.6-4.1,0.7-6.1,0.1l-37.7-13.2C606.9,145.8,607.3,145,609.2,144.5z"/>
<path id="圆角矩形_1-6" class="st9" d="M856.6,145.3l39.1-10c1.7-0.4,3.4-0.3,5,0.1l32.8,10.6c1.4,0.5,1.6,1.2,0.4,1.7
	l-34.2,12.6c-2,0.6-4.1,0.7-6.1,0.1l-37.7-13.2C854.3,146.6,854.6,145.8,856.6,145.3z"/>
<g>
	<path d="M227,118.5l-1.4-3.8h-5.2l-1.4,3.8h-0.9l4.6-12.1h0.8l4.5,12.1H227z M223.3,108.4c-0.1-0.2-0.1-0.3-0.1-0.5
		c0-0.1-0.1-0.3-0.1-0.4h0c-0.1,0.4-0.2,0.7-0.3,0.9l-2,5.6h4.7L223.3,108.4z"/>
	<path d="M229.4,118.1v-0.9c0.3,0.3,0.6,0.4,1.1,0.6c0.4,0.1,0.8,0.2,1.1,0.2c1.4,0,2-0.6,2-1.7c0-0.4-0.1-0.7-0.4-1
		c-0.3-0.3-0.8-0.5-1.5-0.8c-0.8-0.4-1.4-0.7-1.7-1.1c-0.3-0.4-0.5-0.9-0.5-1.4c0-0.7,0.3-1.3,0.8-1.7c0.5-0.4,1.2-0.6,2-0.6
		c0.7,0,1.4,0.2,1.9,0.5v0.9c-0.6-0.4-1.3-0.6-2-0.6c-0.6,0-1,0.1-1.4,0.4c-0.3,0.3-0.5,0.7-0.5,1.2c0,0.4,0.1,0.7,0.3,1
		c0.2,0.3,0.7,0.5,1.5,0.9c0.9,0.4,1.5,0.8,1.9,1.1s0.5,0.8,0.5,1.4c0,0.7-0.3,1.2-0.8,1.7c-0.5,0.4-1.2,0.7-2.1,0.7
		C230.6,118.7,229.9,118.5,229.4,118.1z"/>
	<path d="M236.1,118.1v-0.9c0.3,0.3,0.6,0.4,1.1,0.6c0.4,0.1,0.8,0.2,1.1,0.2c1.4,0,2-0.6,2-1.7c0-0.4-0.1-0.7-0.4-1
		c-0.3-0.3-0.8-0.5-1.5-0.8c-0.8-0.4-1.4-0.7-1.7-1.1c-0.3-0.4-0.5-0.9-0.5-1.4c0-0.7,0.3-1.3,0.8-1.7c0.5-0.4,1.2-0.6,2-0.6
		c0.7,0,1.4,0.2,1.9,0.5v0.9c-0.6-0.4-1.3-0.6-2-0.6c-0.6,0-1,0.1-1.4,0.4c-0.3,0.3-0.5,0.7-0.5,1.2c0,0.4,0.1,0.7,0.3,1
		c0.2,0.3,0.7,0.5,1.5,0.9c0.9,0.4,1.5,0.8,1.9,1.1s0.5,0.8,0.5,1.4c0,0.7-0.3,1.2-0.8,1.7c-0.5,0.4-1.2,0.7-2.1,0.7
		C237.3,118.7,236.6,118.5,236.1,118.1z"/>
	<path d="M243.4,114.2c0,1.2,0.3,2.1,0.8,2.8c0.5,0.7,1.3,1,2.3,1c1,0,1.9-0.4,2.8-1.1v0.8c-0.9,0.6-1.9,1-3,1c-1.1,0-2-0.4-2.7-1.2
		c-0.7-0.8-1-1.9-1-3.4c0-1.3,0.4-2.3,1.1-3.2c0.7-0.9,1.7-1.3,2.8-1.3c1.1,0,1.9,0.4,2.5,1.1c0.6,0.8,0.9,1.8,0.9,3.1v0.3H243.4z
		 M249,113.5c0-1-0.3-1.8-0.7-2.3c-0.4-0.5-1.1-0.8-1.8-0.8c-0.8,0-1.5,0.3-2,0.8c-0.5,0.5-0.9,1.3-1,2.3H249z"/>
	<path d="M255.4,118.4c-0.4,0.2-0.8,0.3-1.1,0.3c-1.3,0-1.9-0.8-1.9-2.3v-5.8h-1.6v-0.7h1.6v-2.2c0.1,0,0.2-0.1,0.4-0.1
		c0.1,0,0.3-0.1,0.4-0.1v2.5h2.3v0.7h-2.3v5.7c0,0.6,0.1,1,0.3,1.3c0.2,0.3,0.5,0.4,1,0.4c0.3,0,0.7-0.1,1-0.3V118.4z"/>
	<path d="M272.7,118.5v-5.2c0-1.1-0.2-1.9-0.5-2.3c-0.3-0.4-0.9-0.7-1.6-0.7c-0.7,0-1.3,0.3-1.8,0.9c-0.5,0.6-0.7,1.3-0.7,2.2v5.1
		h-0.8v-5.3c0-1.9-0.7-2.9-2.2-2.9c-0.7,0-1.3,0.3-1.8,0.9c-0.5,0.6-0.7,1.3-0.7,2.3v5h-0.8v-8.6h0.8v1.4h0c0.6-1.1,1.5-1.6,2.6-1.6
		c0.6,0,1.2,0.2,1.6,0.5c0.4,0.4,0.8,0.8,0.9,1.4c0.3-0.6,0.7-1.1,1.2-1.5c0.5-0.3,1-0.5,1.6-0.5c1.9,0,2.8,1.2,2.8,3.5v5.3H272.7z"
		/>
	<path d="M281.2,118.5v-1.7h0c-0.3,0.6-0.7,1.1-1.2,1.4c-0.5,0.4-1.1,0.5-1.8,0.5c-0.8,0-1.5-0.2-2-0.7c-0.5-0.5-0.7-1-0.7-1.7
		c0-1.5,1-2.4,3-2.7l2.7-0.4c0-1.9-0.7-2.8-2.1-2.8c-0.9,0-1.9,0.4-2.8,1.1v-0.9c0.3-0.3,0.8-0.5,1.3-0.7c0.5-0.2,1.1-0.3,1.6-0.3
		c0.9,0,1.6,0.3,2.1,0.8c0.5,0.6,0.7,1.4,0.7,2.4v5.6H281.2z M278.8,114.2c-0.9,0.1-1.5,0.3-1.9,0.6s-0.6,0.8-0.6,1.4
		c0,0.5,0.2,0.9,0.5,1.3c0.3,0.3,0.8,0.5,1.4,0.5c0.8,0,1.5-0.3,2.1-0.9c0.6-0.6,0.8-1.4,0.8-2.4v-0.8L278.8,114.2z"/>
	<path d="M290.4,118.5v-5c0-2.1-0.7-3.1-2.2-3.1c-0.8,0-1.5,0.3-2.1,0.9c-0.5,0.6-0.8,1.4-0.8,2.3v5h-0.8v-8.6h0.8v1.6h0
		c0.6-1.2,1.6-1.8,3-1.8c0.9,0,1.6,0.3,2.1,0.9c0.5,0.6,0.7,1.5,0.7,2.7v5.3H290.4z"/>
	<path d="M299,118.5v-1.7h0c-0.3,0.6-0.7,1.1-1.2,1.4c-0.5,0.4-1.1,0.5-1.8,0.5c-0.8,0-1.5-0.2-2-0.7c-0.5-0.5-0.7-1-0.7-1.7
		c0-1.5,1-2.4,3-2.7l2.7-0.4c0-1.9-0.7-2.8-2.1-2.8c-0.9,0-1.9,0.4-2.8,1.1v-0.9c0.3-0.3,0.8-0.5,1.3-0.7c0.5-0.2,1.1-0.3,1.6-0.3
		c0.9,0,1.6,0.3,2.1,0.8c0.5,0.6,0.7,1.4,0.7,2.4v5.6H299z M296.6,114.2c-0.9,0.1-1.5,0.3-1.9,0.6s-0.6,0.8-0.6,1.4
		c0,0.5,0.2,0.9,0.5,1.3c0.3,0.3,0.8,0.5,1.4,0.5c0.8,0,1.5-0.3,2.1-0.9c0.6-0.6,0.8-1.4,0.8-2.4v-0.8L296.6,114.2z"/>
	<path d="M309.3,117.9c0,1.6-0.4,2.8-1.1,3.6c-0.7,0.8-1.8,1.1-3.3,1.1c-0.8,0-1.7-0.2-2.6-0.7v-0.8c0.9,0.5,1.8,0.8,2.6,0.8
		c2.4,0,3.6-1.3,3.6-3.8v-1.1h0c-0.7,1.2-1.7,1.8-3.1,1.8c-1.1,0-1.9-0.4-2.6-1.2c-0.7-0.8-1-1.8-1-3.2c0-1.4,0.4-2.5,1.1-3.4
		c0.7-0.9,1.7-1.3,2.9-1.3c1.3,0,2.2,0.5,2.8,1.6h0v-1.4h0.8V117.9z M308.5,113.2c0-0.8-0.3-1.4-0.8-2c-0.5-0.6-1.2-0.8-2-0.8
		c-1,0-1.7,0.4-2.3,1.1c-0.6,0.7-0.9,1.7-0.9,2.8c0,1.2,0.3,2.1,0.8,2.8c0.5,0.7,1.2,1,2.1,1c0.9,0,1.7-0.3,2.2-0.9
		c0.5-0.6,0.8-1.3,0.8-2.2V113.2z"/>
	<path d="M312.2,114.2c0,1.2,0.3,2.1,0.8,2.8c0.5,0.7,1.3,1,2.3,1c1,0,1.9-0.4,2.8-1.1v0.8c-0.9,0.6-1.9,1-3,1c-1.1,0-2-0.4-2.7-1.2
		c-0.7-0.8-1-1.9-1-3.4c0-1.3,0.4-2.3,1.1-3.2c0.7-0.9,1.7-1.3,2.8-1.3c1.1,0,1.9,0.4,2.5,1.1c0.6,0.8,0.9,1.8,0.9,3.1v0.3H312.2z
		 M317.8,113.5c0-1-0.3-1.8-0.7-2.3c-0.4-0.5-1.1-0.8-1.8-0.8c-0.8,0-1.5,0.3-2,0.8c-0.5,0.5-0.9,1.3-1,2.3H317.8z"/>
	<path d="M331.6,118.5v-5.2c0-1.1-0.2-1.9-0.5-2.3c-0.3-0.4-0.9-0.7-1.6-0.7c-0.7,0-1.3,0.3-1.8,0.9c-0.5,0.6-0.7,1.3-0.7,2.2v5.1
		h-0.8v-5.3c0-1.9-0.7-2.9-2.2-2.9c-0.7,0-1.3,0.3-1.8,0.9c-0.5,0.6-0.7,1.3-0.7,2.3v5h-0.8v-8.6h0.8v1.4h0c0.6-1.1,1.5-1.6,2.6-1.6
		c0.6,0,1.2,0.2,1.6,0.5c0.4,0.4,0.8,0.8,0.9,1.4c0.3-0.6,0.7-1.1,1.2-1.5c0.5-0.3,1-0.5,1.6-0.5c1.9,0,2.8,1.2,2.8,3.5v5.3H331.6z"
		/>
	<path d="M335.2,114.2c0,1.2,0.3,2.1,0.8,2.8c0.5,0.7,1.3,1,2.3,1c1,0,1.9-0.4,2.8-1.1v0.8c-0.9,0.6-1.9,1-3,1c-1.1,0-2-0.4-2.7-1.2
		c-0.7-0.8-1-1.9-1-3.4c0-1.3,0.4-2.3,1.1-3.2c0.7-0.9,1.7-1.3,2.8-1.3c1.1,0,1.9,0.4,2.5,1.1c0.6,0.8,0.9,1.8,0.9,3.1v0.3H335.2z
		 M340.7,113.5c0-1-0.3-1.8-0.7-2.3c-0.4-0.5-1.1-0.8-1.8-0.8c-0.8,0-1.5,0.3-2,0.8c-0.5,0.5-0.9,1.3-1,2.3H340.7z"/>
	<path d="M349.6,118.5v-5c0-2.1-0.7-3.1-2.2-3.1c-0.8,0-1.5,0.3-2.1,0.9c-0.5,0.6-0.8,1.4-0.8,2.3v5h-0.8v-8.6h0.8v1.6h0
		c0.6-1.2,1.6-1.8,3-1.8c0.9,0,1.6,0.3,2.1,0.9c0.5,0.6,0.7,1.5,0.7,2.7v5.3H349.6z"/>
	<path d="M356.4,118.4c-0.4,0.2-0.8,0.3-1.1,0.3c-1.3,0-1.9-0.8-1.9-2.3v-5.8h-1.6v-0.7h1.6v-2.2c0.1,0,0.2-0.1,0.4-0.1
		c0.1,0,0.3-0.1,0.4-0.1v2.5h2.3v0.7h-2.3v5.7c0,0.6,0.1,1,0.3,1.3c0.2,0.3,0.5,0.4,1,0.4c0.3,0,0.7-0.1,1-0.3V118.4z"/>
	<path d="M261.1,136.2L261.1,136.2l0,5.5h-0.8v-12.6h0.8v1.8h0c0.3-0.6,0.8-1.1,1.3-1.5c0.6-0.3,1.2-0.5,1.9-0.5
		c1.1,0,2,0.4,2.6,1.1s0.9,1.8,0.9,3.1c0,1.4-0.4,2.6-1.1,3.5c-0.7,0.9-1.6,1.3-2.8,1.3C262.7,137.9,261.7,137.3,261.1,136.2z
		 M261,133v1.1c0,0.9,0.3,1.6,0.8,2.2s1.3,0.9,2.2,0.9c0.9,0,1.6-0.4,2.1-1.1c0.6-0.8,0.8-1.8,0.8-3c0-1.1-0.3-1.9-0.8-2.6
		c-0.5-0.6-1.2-1-2-1c-1,0-1.8,0.3-2.3,1C261.3,131.2,261,132,261,133z"/>
	<path d="M270,137.7v-12.8h0.8v12.8H270z"/>
	<path d="M278.7,137.7V136h0c-0.3,0.6-0.7,1.1-1.2,1.4c-0.5,0.4-1.1,0.5-1.8,0.5c-0.8,0-1.5-0.2-2-0.7c-0.5-0.5-0.7-1-0.7-1.7
		c0-1.5,1-2.4,3-2.7l2.7-0.4c0-1.9-0.7-2.8-2.1-2.8c-0.9,0-1.9,0.4-2.8,1.1v-0.9c0.3-0.3,0.8-0.5,1.3-0.7c0.5-0.2,1.1-0.3,1.6-0.3
		c0.9,0,1.6,0.3,2.1,0.8c0.5,0.6,0.7,1.4,0.7,2.4v5.6H278.7z M276.3,133.4c-0.9,0.1-1.5,0.3-1.9,0.6s-0.6,0.8-0.6,1.4
		c0,0.5,0.2,0.9,0.5,1.3c0.3,0.3,0.8,0.5,1.4,0.5c0.8,0,1.5-0.3,2.1-0.9c0.6-0.6,0.8-1.4,0.8-2.4v-0.8L276.3,133.4z"/>
	<path d="M285.5,137.6c-0.4,0.2-0.8,0.3-1.1,0.3c-1.3,0-1.9-0.8-1.9-2.3v-5.8h-1.6v-0.7h1.6v-2.2c0.1,0,0.2-0.1,0.4-0.1
		c0.1,0,0.3-0.1,0.4-0.1v2.5h2.3v0.7h-2.3v5.7c0,0.6,0.1,1,0.3,1.3s0.5,0.4,1,0.4c0.3,0,0.7-0.1,1-0.3V137.6z"/>
	<path d="M291,125.7c-0.2-0.2-0.5-0.2-0.9-0.2c-1.1,0-1.6,0.7-1.6,2.1v1.4h2.3v0.7h-2.3v7.9h-0.8v-7.9h-1.6v-0.7h1.6v-1.5
		c0-0.9,0.2-1.6,0.7-2.1c0.5-0.5,1-0.7,1.7-0.7c0.4,0,0.7,0.1,0.9,0.2V125.7z"/>
	<path d="M295.4,137.9c-1.3,0-2.3-0.4-3-1.2s-1.1-1.9-1.1-3.2c0-1.4,0.4-2.6,1.2-3.4c0.8-0.8,1.8-1.2,3-1.2c1.2,0,2.2,0.4,2.9,1.2
		c0.7,0.8,1.1,1.9,1.1,3.3c0,1.3-0.4,2.4-1.1,3.3C297.7,137.5,296.7,137.9,295.4,137.9z M295.5,129.6c-1,0-1.8,0.3-2.4,1
		c-0.6,0.7-0.9,1.6-0.9,2.9c0,1.1,0.3,2,0.9,2.7c0.6,0.7,1.4,1,2.4,1c1,0,1.8-0.3,2.4-1s0.8-1.6,0.8-2.8c0-1.2-0.3-2.2-0.8-2.8
		C297.3,129.9,296.5,129.6,295.5,129.6z"/>
	<path d="M305.7,129.9c-0.3-0.2-0.6-0.3-0.9-0.3c-0.7,0-1.3,0.4-1.7,1.1s-0.7,1.7-0.7,3v4.1h-0.8v-8.6h0.8v1.9h0
		c0.2-0.7,0.5-1.2,0.9-1.5s0.9-0.6,1.5-0.6c0.3,0,0.6,0.1,0.9,0.2V129.9z"/>
	<path d="M318.1,137.7v-5.2c0-1.1-0.2-1.9-0.5-2.3c-0.3-0.4-0.9-0.7-1.6-0.7c-0.7,0-1.3,0.3-1.8,0.9c-0.5,0.6-0.7,1.3-0.7,2.2v5.1
		h-0.8v-5.3c0-1.9-0.7-2.9-2.2-2.9c-0.7,0-1.3,0.3-1.8,0.9c-0.5,0.6-0.7,1.3-0.7,2.3v5h-0.8v-8.6h0.8v1.4h0c0.6-1.1,1.5-1.6,2.6-1.6
		c0.6,0,1.2,0.2,1.6,0.5c0.4,0.4,0.8,0.8,0.9,1.4c0.3-0.6,0.7-1.1,1.2-1.5c0.5-0.3,1-0.5,1.6-0.5c1.9,0,2.8,1.2,2.8,3.5v5.3H318.1z"
		/>
</g>
<g>
	<path d="M226.8,308.4l-1.4-3.8h-5.2l-1.4,3.8h-0.9l4.6-12.1h0.8l4.5,12.1H226.8z M223.1,298.3c-0.1-0.2-0.1-0.3-0.1-0.5
		c0-0.1-0.1-0.3-0.1-0.4h0c-0.1,0.4-0.2,0.7-0.3,0.9l-2,5.6h4.7L223.1,298.3z"/>
	<path d="M229.2,308v-0.9c0.3,0.3,0.6,0.4,1.1,0.6c0.4,0.1,0.8,0.2,1.1,0.2c1.4,0,2-0.6,2-1.7c0-0.4-0.1-0.7-0.4-1s-0.8-0.5-1.5-0.8
		c-0.8-0.4-1.4-0.7-1.7-1.1s-0.5-0.9-0.5-1.4c0-0.7,0.3-1.3,0.8-1.7c0.5-0.4,1.2-0.6,2-0.6c0.7,0,1.4,0.2,1.9,0.5v0.9
		c-0.6-0.4-1.3-0.6-2-0.6c-0.6,0-1,0.1-1.4,0.4c-0.3,0.3-0.5,0.7-0.5,1.2c0,0.4,0.1,0.7,0.3,1s0.7,0.5,1.5,0.9
		c0.9,0.4,1.5,0.8,1.9,1.1s0.5,0.8,0.5,1.4c0,0.7-0.3,1.2-0.8,1.7c-0.5,0.4-1.2,0.7-2.1,0.7C230.4,308.6,229.7,308.4,229.2,308z"/>
	<path d="M235.9,308v-0.9c0.3,0.3,0.6,0.4,1.1,0.6c0.4,0.1,0.8,0.2,1.1,0.2c1.4,0,2-0.6,2-1.7c0-0.4-0.1-0.7-0.4-1s-0.8-0.5-1.5-0.8
		c-0.8-0.4-1.4-0.7-1.7-1.1s-0.5-0.9-0.5-1.4c0-0.7,0.3-1.3,0.8-1.7c0.5-0.4,1.2-0.6,2-0.6c0.7,0,1.4,0.2,1.9,0.5v0.9
		c-0.6-0.4-1.3-0.6-2-0.6c-0.6,0-1,0.1-1.4,0.4c-0.3,0.3-0.5,0.7-0.5,1.2c0,0.4,0.1,0.7,0.3,1s0.7,0.5,1.5,0.9
		c0.9,0.4,1.5,0.8,1.9,1.1s0.5,0.8,0.5,1.4c0,0.7-0.3,1.2-0.8,1.7c-0.5,0.4-1.2,0.7-2.1,0.7C237.1,308.6,236.4,308.4,235.9,308z"/>
	<path d="M243.2,304.1c0,1.2,0.3,2.1,0.8,2.8s1.3,1,2.3,1c1,0,1.9-0.4,2.8-1.1v0.8c-0.9,0.6-1.9,1-3,1c-1.1,0-2-0.4-2.7-1.2
		s-1-1.9-1-3.4c0-1.3,0.4-2.3,1.1-3.2s1.7-1.3,2.8-1.3c1.1,0,1.9,0.4,2.5,1.1c0.6,0.8,0.9,1.8,0.9,3.1v0.3H243.2z M248.8,303.4
		c0-1-0.3-1.8-0.7-2.3c-0.4-0.5-1.1-0.8-1.8-0.8c-0.8,0-1.5,0.3-2,0.8s-0.9,1.3-1,2.3H248.8z"/>
	<path d="M255.2,308.3c-0.4,0.2-0.8,0.3-1.1,0.3c-1.3,0-1.9-0.8-1.9-2.3v-5.8h-1.6v-0.7h1.6v-2.2c0.1,0,0.2-0.1,0.4-0.1
		c0.1,0,0.3-0.1,0.4-0.1v2.5h2.3v0.7h-2.3v5.7c0,0.6,0.1,1,0.3,1.3s0.5,0.4,1,0.4c0.3,0,0.7-0.1,1-0.3V308.3z"/>
	<path d="M272.5,308.4v-5.2c0-1.1-0.2-1.9-0.5-2.3c-0.3-0.4-0.9-0.7-1.6-0.7c-0.7,0-1.3,0.3-1.8,0.9c-0.5,0.6-0.7,1.3-0.7,2.2v5.1
		h-0.8v-5.3c0-1.9-0.7-2.9-2.2-2.9c-0.7,0-1.3,0.3-1.8,0.9s-0.7,1.3-0.7,2.3v5h-0.8v-8.6h0.8v1.4h0c0.6-1.1,1.5-1.6,2.6-1.6
		c0.6,0,1.2,0.2,1.6,0.5c0.4,0.4,0.8,0.8,0.9,1.4c0.3-0.6,0.7-1.1,1.2-1.5c0.5-0.3,1-0.5,1.6-0.5c1.9,0,2.8,1.2,2.8,3.5v5.3H272.5z"
		/>
	<path d="M281,308.4v-1.7h0c-0.3,0.6-0.7,1.1-1.2,1.4c-0.5,0.4-1.1,0.5-1.8,0.5c-0.8,0-1.5-0.2-2-0.7c-0.5-0.5-0.7-1-0.7-1.7
		c0-1.5,1-2.4,3-2.7l2.7-0.4c0-1.9-0.7-2.8-2.1-2.8c-0.9,0-1.9,0.4-2.8,1.1v-0.9c0.3-0.3,0.8-0.5,1.3-0.7c0.5-0.2,1.1-0.3,1.6-0.3
		c0.9,0,1.6,0.3,2.1,0.8s0.7,1.4,0.7,2.4v5.6H281z M278.6,304.1c-0.9,0.1-1.5,0.3-1.9,0.6s-0.6,0.8-0.6,1.4c0,0.5,0.2,0.9,0.5,1.3
		c0.3,0.3,0.8,0.5,1.4,0.5c0.8,0,1.5-0.3,2.1-0.9c0.6-0.6,0.8-1.4,0.8-2.4v-0.8L278.6,304.1z"/>
	<path d="M290.2,308.4v-5c0-2.1-0.7-3.1-2.2-3.1c-0.8,0-1.5,0.3-2.1,0.9c-0.5,0.6-0.8,1.4-0.8,2.3v5h-0.8v-8.6h0.8v1.6h0
		c0.6-1.2,1.6-1.8,3-1.8c0.9,0,1.6,0.3,2.1,0.9c0.5,0.6,0.7,1.5,0.7,2.7v5.3H290.2z"/>
	<path d="M298.8,308.4v-1.7h0c-0.3,0.6-0.7,1.1-1.2,1.4c-0.5,0.4-1.1,0.5-1.8,0.5c-0.8,0-1.5-0.2-2-0.7c-0.5-0.5-0.7-1-0.7-1.7
		c0-1.5,1-2.4,3-2.7l2.7-0.4c0-1.9-0.7-2.8-2.1-2.8c-0.9,0-1.9,0.4-2.8,1.1v-0.9c0.3-0.3,0.8-0.5,1.3-0.7c0.5-0.2,1.1-0.3,1.6-0.3
		c0.9,0,1.6,0.3,2.1,0.8s0.7,1.4,0.7,2.4v5.6H298.8z M296.4,304.1c-0.9,0.1-1.5,0.3-1.9,0.6s-0.6,0.8-0.6,1.4c0,0.5,0.2,0.9,0.5,1.3
		c0.3,0.3,0.8,0.5,1.4,0.5c0.8,0,1.5-0.3,2.1-0.9c0.6-0.6,0.8-1.4,0.8-2.4v-0.8L296.4,304.1z"/>
	<path d="M309.1,307.8c0,1.6-0.4,2.8-1.1,3.6c-0.7,0.8-1.8,1.1-3.3,1.1c-0.8,0-1.7-0.2-2.6-0.7V311c0.9,0.5,1.8,0.8,2.6,0.8
		c2.4,0,3.6-1.3,3.6-3.8v-1.1h0c-0.7,1.2-1.7,1.8-3.1,1.8c-1.1,0-1.9-0.4-2.6-1.2s-1-1.8-1-3.2c0-1.4,0.4-2.5,1.1-3.4
		s1.7-1.3,2.9-1.3c1.3,0,2.2,0.5,2.8,1.6h0v-1.4h0.8V307.8z M308.3,303.1c0-0.8-0.3-1.4-0.8-2c-0.5-0.6-1.2-0.8-2-0.8
		c-1,0-1.7,0.4-2.3,1.1s-0.9,1.7-0.9,2.8c0,1.2,0.3,2.1,0.8,2.8s1.2,1,2.1,1c0.9,0,1.7-0.3,2.2-0.9c0.5-0.6,0.8-1.3,0.8-2.2V303.1z"
		/>
	<path d="M312,304.1c0,1.2,0.3,2.1,0.8,2.8s1.3,1,2.3,1c1,0,1.9-0.4,2.8-1.1v0.8c-0.9,0.6-1.9,1-3,1c-1.1,0-2-0.4-2.7-1.2
		s-1-1.9-1-3.4c0-1.3,0.4-2.3,1.1-3.2s1.7-1.3,2.8-1.3c1.1,0,1.9,0.4,2.5,1.1c0.6,0.8,0.9,1.8,0.9,3.1v0.3H312z M317.6,303.4
		c0-1-0.3-1.8-0.7-2.3c-0.4-0.5-1.1-0.8-1.8-0.8c-0.8,0-1.5,0.3-2,0.8s-0.9,1.3-1,2.3H317.6z"/>
	<path d="M331.4,308.4v-5.2c0-1.1-0.2-1.9-0.5-2.3c-0.3-0.4-0.9-0.7-1.6-0.7c-0.7,0-1.3,0.3-1.8,0.9c-0.5,0.6-0.7,1.3-0.7,2.2v5.1
		H326v-5.3c0-1.9-0.7-2.9-2.2-2.9c-0.7,0-1.3,0.3-1.8,0.9s-0.7,1.3-0.7,2.3v5h-0.8v-8.6h0.8v1.4h0c0.6-1.1,1.5-1.6,2.6-1.6
		c0.6,0,1.2,0.2,1.6,0.5c0.4,0.4,0.8,0.8,0.9,1.4c0.3-0.6,0.7-1.1,1.2-1.5c0.5-0.3,1-0.5,1.6-0.5c1.9,0,2.8,1.2,2.8,3.5v5.3H331.4z"
		/>
	<path d="M335,304.1c0,1.2,0.3,2.1,0.8,2.8s1.3,1,2.3,1c1,0,1.9-0.4,2.8-1.1v0.8c-0.9,0.6-1.9,1-3,1c-1.1,0-2-0.4-2.7-1.2
		s-1-1.9-1-3.4c0-1.3,0.4-2.3,1.1-3.2s1.7-1.3,2.8-1.3c1.1,0,1.9,0.4,2.5,1.1c0.6,0.8,0.9,1.8,0.9,3.1v0.3H335z M340.5,303.4
		c0-1-0.3-1.8-0.7-2.3c-0.4-0.5-1.1-0.8-1.8-0.8c-0.8,0-1.5,0.3-2,0.8s-0.9,1.3-1,2.3H340.5z"/>
	<path d="M349.4,308.4v-5c0-2.1-0.7-3.1-2.2-3.1c-0.8,0-1.5,0.3-2.1,0.9c-0.5,0.6-0.8,1.4-0.8,2.3v5h-0.8v-8.6h0.8v1.6h0
		c0.6-1.2,1.6-1.8,3-1.8c0.9,0,1.6,0.3,2.1,0.9c0.5,0.6,0.7,1.5,0.7,2.7v5.3H349.4z"/>
	<path d="M356.2,308.3c-0.4,0.2-0.8,0.3-1.1,0.3c-1.3,0-1.9-0.8-1.9-2.3v-5.8h-1.6v-0.7h1.6v-2.2c0.1,0,0.2-0.1,0.4-0.1
		c0.1,0,0.3-0.1,0.4-0.1v2.5h2.3v0.7h-2.3v5.7c0,0.6,0.1,1,0.3,1.3s0.5,0.4,1,0.4c0.3,0,0.7-0.1,1-0.3V308.3z"/>
	<path d="M260.9,326.1L260.9,326.1l0,5.5h-0.8V319h0.8v1.8h0c0.3-0.6,0.8-1.1,1.3-1.5s1.2-0.5,1.9-0.5c1.1,0,2,0.4,2.6,1.1
		s0.9,1.8,0.9,3.1c0,1.4-0.4,2.6-1.1,3.5c-0.7,0.9-1.6,1.3-2.8,1.3C262.5,327.8,261.5,327.2,260.9,326.1z M260.8,322.9v1.1
		c0,0.9,0.3,1.6,0.8,2.2s1.3,0.9,2.2,0.9c0.9,0,1.6-0.4,2.1-1.1c0.6-0.8,0.8-1.8,0.8-3c0-1.1-0.3-1.9-0.8-2.6s-1.2-1-2-1
		c-1,0-1.8,0.3-2.3,1C261.1,321.1,260.8,321.9,260.8,322.9z"/>
	<path d="M269.8,327.6v-12.8h0.8v12.8H269.8z"/>
	<path d="M278.5,327.6v-1.7h0c-0.3,0.6-0.7,1.1-1.2,1.4c-0.5,0.4-1.1,0.5-1.8,0.5c-0.8,0-1.5-0.2-2-0.7c-0.5-0.5-0.7-1-0.7-1.7
		c0-1.5,1-2.4,3-2.7l2.7-0.4c0-1.9-0.7-2.8-2.1-2.8c-0.9,0-1.9,0.4-2.8,1.1v-0.9c0.3-0.3,0.8-0.5,1.3-0.7c0.5-0.2,1.1-0.3,1.6-0.3
		c0.9,0,1.6,0.3,2.1,0.8s0.7,1.4,0.7,2.4v5.6H278.5z M276.1,323.3c-0.9,0.1-1.5,0.3-1.9,0.6s-0.6,0.8-0.6,1.4c0,0.5,0.2,0.9,0.5,1.3
		c0.3,0.3,0.8,0.5,1.4,0.5c0.8,0,1.5-0.3,2.1-0.9c0.6-0.6,0.8-1.4,0.8-2.4V323L276.1,323.3z"/>
	<path d="M285.3,327.5c-0.4,0.2-0.8,0.3-1.1,0.3c-1.3,0-1.9-0.8-1.9-2.3v-5.8h-1.6V319h1.6v-2.2c0.1,0,0.2-0.1,0.4-0.1
		c0.1,0,0.3-0.1,0.4-0.1v2.5h2.3v0.7H283v5.7c0,0.6,0.1,1,0.3,1.3s0.5,0.4,1,0.4c0.3,0,0.7-0.1,1-0.3V327.5z"/>
	<path d="M290.8,315.6c-0.2-0.2-0.5-0.2-0.9-0.2c-1.1,0-1.6,0.7-1.6,2.1v1.4h2.3v0.7h-2.3v7.9h-0.8v-7.9h-1.6V319h1.6v-1.5
		c0-0.9,0.2-1.6,0.7-2.1c0.5-0.5,1-0.7,1.7-0.7c0.4,0,0.7,0.1,0.9,0.2V315.6z"/>
	<path d="M295.2,327.8c-1.3,0-2.3-0.4-3-1.2s-1.1-1.9-1.1-3.2c0-1.4,0.4-2.6,1.2-3.4c0.8-0.8,1.8-1.2,3-1.2c1.2,0,2.2,0.4,2.9,1.2
		c0.7,0.8,1.1,1.9,1.1,3.3c0,1.3-0.4,2.4-1.1,3.3C297.5,327.4,296.5,327.8,295.2,327.8z M295.3,319.5c-1,0-1.8,0.3-2.4,1
		c-0.6,0.7-0.9,1.6-0.9,2.9c0,1.1,0.3,2,0.9,2.7c0.6,0.7,1.4,1,2.4,1c1,0,1.8-0.3,2.4-1s0.8-1.6,0.8-2.8c0-1.2-0.3-2.2-0.8-2.8
		C297.1,319.8,296.3,319.5,295.3,319.5z"/>
	<path d="M305.5,319.8c-0.3-0.2-0.6-0.3-0.9-0.3c-0.7,0-1.3,0.4-1.7,1.1s-0.7,1.7-0.7,3v4.1h-0.8V319h0.8v1.9h0
		c0.2-0.7,0.5-1.2,0.9-1.5s0.9-0.6,1.5-0.6c0.3,0,0.6,0.1,0.9,0.2V319.8z"/>
	<path d="M317.9,327.6v-5.2c0-1.1-0.2-1.9-0.5-2.3c-0.3-0.4-0.9-0.7-1.6-0.7c-0.7,0-1.3,0.3-1.8,0.9c-0.5,0.6-0.7,1.3-0.7,2.2v5.1
		h-0.8v-5.3c0-1.9-0.7-2.9-2.2-2.9c-0.7,0-1.3,0.3-1.8,0.9s-0.7,1.3-0.7,2.3v5h-0.8V319h0.8v1.4h0c0.6-1.1,1.5-1.6,2.6-1.6
		c0.6,0,1.2,0.2,1.6,0.5c0.4,0.4,0.8,0.8,0.9,1.4c0.3-0.6,0.7-1.1,1.2-1.5c0.5-0.3,1-0.5,1.6-0.5c1.9,0,2.8,1.2,2.8,3.5v5.3H317.9z"
		/>
</g>
</svg>
