<?xml version="1.0" encoding="utf-8"?>
<!-- Generator: Adobe Illustrator 22.1.0, SVG Export Plug-In . SVG Version: 6.00 Build 0)  -->
<svg version="1.1" id="运作原理" xmlns="http://www.w3.org/2000/svg" xmlns:xlink="http://www.w3.org/1999/xlink" x="0px"
	 y="0px" viewBox="0 0 817 407" style="enable-background:new 0 0 817 407;" xml:space="preserve">
<style type="text/css">
	.st0{fill:none;stroke:#90A7AB;}
	.st1{fill:#70DBCB;}
	.st2{fill:#9FE7DD;stroke:#34B9A1;stroke-width:2;}
	.st3{enable-background:new    ;}
	.st4{fill:#17161F;}
	.st5{fill:none;stroke:#456E68;stroke-width:1.5;stroke-miterlimit:10;}
	.st6{fill:#456E68;}
</style>
<path id="形状_1_拷贝_3" class="st0" d="M63.1,200.2l0.1,71.6l4.6-2.1"/>
<path id="形状_1_拷贝_5" class="st0" d="M734.8,153.2l-0.1-71.1l-4.6,2"/>
<path id="形状_1" class="st0" d="M127.2,93.1h98.3l46.2,46.1l-0.3-6"/>
<path id="形状_1_拷贝_2" class="st0" d="M271.4,172.3h-98l-46.1-46.5l0.3,6.1"/>
<path id="形状_1_拷贝" class="st0" d="M653,207.3h-98.1l-46.1,46.1l0.3-6"/>
<path id="形状_1_拷贝_4" class="st0" d="M509.1,286.5H607l46-46.5l-0.3,6.1"/>
<g id="椭圆_7">
	<path class="st1" d="M225.4,219.8c-10.8,0-19.5-8.7-19.5-19.5s8.7-19.5,19.5-19.5s19.5,8.7,19.5,19.5S236.2,219.8,225.4,219.8z
		 M225.4,181.8c-10.2,0-18.5,8.3-18.5,18.5s8.3,18.5,18.5,18.5s18.5-8.3,18.5-18.5S235.6,181.8,225.4,181.8z"/>
</g>
<circle id="椭圆_6" class="st2" cx="389.6" cy="197.3" r="104.2"/>
<g class="st3">
	<path class="st4" d="M336.9,197.3h-2.3v-8.2h-9.2v8.2H323v-18.2h2.3v7.9h9.2v-7.9h2.3v18.2H336.9z"/>
	<path class="st4" d="M340.4,191c0-2.1,0.6-3.8,1.8-5.1c1.2-1.2,2.8-1.9,4.9-1.9c1.9,0,3.5,0.6,4.6,1.8s1.7,2.8,1.7,4.9
		c0,2.1-0.6,3.7-1.8,5c-1.2,1.3-2.8,1.9-4.8,1.9c-1.9,0-3.5-0.6-4.6-1.8C341,194.6,340.4,193,340.4,191z M342.7,190.9
		c0,1.5,0.4,2.7,1.1,3.5c0.8,0.9,1.8,1.3,3,1.3c1.3,0,2.3-0.4,3-1.3c0.7-0.8,1-2,1-3.6s-0.3-2.8-1-3.6s-1.7-1.3-3-1.3
		s-2.3,0.4-3.1,1.3C343.1,188.2,342.7,189.4,342.7,190.9z"/>
	<path class="st4" d="M367.3,197.3H365v-2l0,0c-0.9,1.6-2.2,2.3-4,2.3c-3.1,0-4.6-1.8-4.6-5.5v-7.8h2.3v7.4c0,2.6,1,4,3,4
		c1,0,1.8-0.4,2.4-1.1s0.9-1.7,0.9-2.8v-7.5h2.3L367.3,197.3L367.3,197.3z"/>
	<path class="st4" d="M370.6,194.5c1.2,0.8,2.4,1.3,3.7,1.3c1.8,0,2.7-0.6,2.7-1.8c0-0.5-0.2-0.9-0.6-1.2s-1.2-0.7-2.4-1.2
		c-1.4-0.6-2.4-1.2-2.8-1.7c-0.4-0.6-0.6-1.3-0.6-2.1c0-1.2,0.5-2.1,1.5-2.8s2.2-1,3.6-1c1.1,0,2.1,0.2,3.1,0.6v2.2
		c-1-0.6-2.1-0.9-3.3-0.9c-0.7,0-1.3,0.2-1.8,0.5s-0.7,0.7-0.7,1.3c0,0.5,0.2,0.9,0.5,1.2s1.1,0.7,2.2,1.1c1.4,0.5,2.4,1.1,2.9,1.7
		s0.8,1.3,0.8,2.1c0,1.2-0.5,2.1-1.5,2.8s-2.2,1-3.8,1c-1.3,0-2.5-0.3-3.5-0.8L370.6,194.5L370.6,194.5z"/>
	<path class="st4" d="M393.1,191.4H384c0,1.4,0.4,2.5,1.1,3.2c0.7,0.8,1.7,1.1,3,1.1c1.5,0,2.8-0.5,4-1.4v2.1
		c-1.1,0.8-2.7,1.2-4.5,1.2c-1.9,0-3.3-0.6-4.4-1.8s-1.6-2.8-1.6-5c0-2,0.6-3.6,1.7-4.9c1.2-1.3,2.6-1.9,4.3-1.9c1.7,0,3,0.5,4,1.6
		s1.4,2.6,1.4,4.6v1.2L393.1,191.4L393.1,191.4z M390.8,189.6c0-1.2-0.3-2.1-0.8-2.7c-0.5-0.6-1.3-1-2.3-1c-0.9,0-1.7,0.3-2.4,1
		c-0.7,0.7-1.1,1.6-1.3,2.7H390.8z"/>
	<path class="st4" d="M407.4,181.3h-5.2v16.1h-2.4v-16.1h-5.2v-2.1h12.8L407.4,181.3L407.4,181.3z"/>
	<path class="st4" d="M406.4,191c0-2.1,0.6-3.8,1.8-5.1c1.2-1.2,2.8-1.9,4.9-1.9c1.9,0,3.5,0.6,4.6,1.8s1.7,2.8,1.7,4.9
		c0,2.1-0.6,3.7-1.8,5s-2.8,1.9-4.8,1.9c-1.9,0-3.5-0.6-4.6-1.8S406.4,193,406.4,191z M408.7,190.9c0,1.5,0.4,2.7,1.1,3.5
		c0.8,0.9,1.8,1.3,3,1.3c1.3,0,2.3-0.4,3-1.3c0.7-0.8,1-2,1-3.6s-0.3-2.8-1-3.6s-1.7-1.3-3-1.3s-2.3,0.4-3.1,1.3
		C409.1,188.2,408.7,189.4,408.7,190.9z"/>
	<path class="st4" d="M433.5,197.3h-3.1l-5.6-6.3l0,0v6.3h-2.3v-19.2h2.3v12.2l0,0l5.3-6h3l-5.9,6.2L433.5,197.3z"/>
	<path class="st4" d="M445.7,191.4h-9.1c0,1.4,0.4,2.5,1.1,3.2c0.7,0.8,1.7,1.1,3,1.1c1.5,0,2.8-0.5,4-1.4v2.1
		c-1.1,0.8-2.7,1.2-4.5,1.2c-1.9,0-3.3-0.6-4.4-1.8s-1.6-2.8-1.6-5c0-2,0.6-3.6,1.7-4.9c1.2-1.3,2.6-1.9,4.3-1.9c1.7,0,3,0.5,4,1.6
		s1.4,2.6,1.4,4.6v1.2L445.7,191.4L445.7,191.4z M443.4,189.6c0-1.2-0.3-2.1-0.8-2.7c-0.5-0.6-1.3-1-2.3-1c-0.9,0-1.7,0.3-2.4,1
		s-1.1,1.6-1.3,2.7H443.4z"/>
	<path class="st4" d="M459.7,197.3h-2.3V190c0-2.7-1-4-2.9-4c-1,0-1.8,0.4-2.5,1.1s-1,1.7-1,2.9v7.4h-2.3v-13h2.3v2.1l0,0
		c1-1.6,2.4-2.5,4.3-2.5c1.4,0,2.5,0.5,3.3,1.4c0.7,0.9,1.1,2.2,1.1,4V197.3z"/>
</g>
<g class="st3">
	<path class="st4" d="M385,235.4h-9.6v-18.2h2.3v16.1h7.2v2.1L385,235.4L385,235.4z"/>
	<path class="st4" d="M397.3,219.3h-5.2v16.1h-2.4v-16.1h-5.2v-2.1h12.8L397.3,219.3L397.3,219.3z"/>
	<path class="st4" d="M400.1,235.4v-18.2h5.2c2.8,0,5,0.8,6.9,2.4c1.8,1.6,2.7,3.8,2.7,6.5c0,2.8-0.9,5.1-2.7,6.8
		c-1.8,1.7-4.2,2.5-7.1,2.5H400.1z M402.5,219.3v14h2.6c2.3,0,4.1-0.6,5.4-1.9c1.3-1.3,1.9-3,1.9-5.3s-0.7-4-2-5.1s-3.1-1.7-5.2-1.7
		H402.5z"/>
</g>
<g>
	<circle class="st5" cx="63.3" cy="72.4" r="17.1"/>
	<line class="st5" x1="49.5" y1="99.3" x2="63.3" y2="115"/>
	<line class="st5" x1="76.6" y1="99.3" x2="63.3" y2="115"/>
	<line class="st5" x1="63.3" y1="130.6" x2="63.3" y2="115"/>
	<path class="st5" d="M100,121.6v3.7c0,3.4-2.8,6.1-6.1,6.1H32.6c-3.4,0-6.1-2.8-6.1-6.1v-3.7"/>
	<path class="st5" d="M32.6,115.5"/>
	<path class="st5" d="M26.5,123.3c0-13.9,11.4-24.5,25.3-24.5h23c13.9,0,25.2,11.3,25.2,25.2l0,0"/>
</g>
<g class="st3">
	<g>
		<g>
			<path class="st6" d="M96.5,302.6H86.4c1-0.8,1.6-1.9,1.6-3.2c0-2.3-1.8-4.1-4.1-4.1s-4.1,1.8-4.1,4.1c0,0.7,0.2,1.3,0.5,1.9
				l-1.5,1.3h-20c-0.6-1.5-2.1-2.5-3.8-2.5s-3.2,1-3.8,2.5H28.9c-1.8,0-3.3,1.5-3.3,3.3v8c0,0.6,0.5,1.1,1.1,1.1s1.1-0.5,1.1-1.1v-8
				c0-0.6,0.5-1.1,1.1-1.1h22c0.1,0.4,0.2,0.8,0.3,1.2l-9.1,8.3c-0.6-0.4-1.4-0.7-2.2-0.7c-2.3,0-4.1,1.8-4.1,4.1s1.8,4.1,4.1,4.1
				s4.1-1.8,4.1-4.1c0-0.7-0.2-1.3-0.4-1.8l9.1-8.3c0.7,0.5,1.5,0.7,2.3,0.7c1.2,0,2.2-0.5,3-1.3l7.4,4.4c-0.1,0.3-0.1,0.5-0.1,0.8
				c0,2.3,1.8,4.1,4.1,4.1c2.3,0,4.1-1.8,4.1-4.1c0-0.6-0.1-1.2-0.4-1.7l6.4-5.8h16.9c0.6,0,1.1,0.5,1.1,1.1v26.8
				c0,0.6,0.5,1.1,1.1,1.1s1.1-0.5,1.1-1.1v-26.8C99.8,304,98.3,302.6,96.5,302.6z M39.9,319.6c-1.1,0-1.9-0.9-1.9-1.9
				c0-1.1,0.9-1.9,1.9-1.9s1.9,0.9,1.9,1.9S41,319.6,39.9,319.6z M55,306.1c-1.1,0-1.9-0.9-1.9-1.9c0-1.1,0.9-1.9,1.9-1.9
				s1.9,0.9,1.9,1.9S56.1,306.1,55,306.1z M69.5,314.2c-1.1,0-1.9-0.9-1.9-1.9c0-1.1,0.9-1.9,1.9-1.9s1.9,0.9,1.9,1.9
				C71.5,313.3,70.6,314.2,69.5,314.2z M71.9,308.9c-0.7-0.5-1.5-0.8-2.4-0.8c-1.2,0-2.3,0.5-3.1,1.4l-7.3-4.4
				c0-0.1,0.1-0.3,0.1-0.4h17.2L71.9,308.9z M83.9,301.3c-1.1,0-1.9-0.9-1.9-1.9s0.9-1.9,1.9-1.9s1.9,0.9,1.9,1.9
				S85,301.3,83.9,301.3z"/>
		</g>
	</g>
	<g>
		<g>
			<path class="st6" d="M99.8,337c0-0.6-0.5-1.1-1.1-1.1s-1.1,0.5-1.1,1.1v8.2h-8v-25.7v-4.4v-4.5c0-0.6-0.5-1.1-1.1-1.1h-8.2
				c-0.6,0-1.1,0.5-1.1,1.1v4.5v4.4v25.7h-4.1v-5.5v-4.5v-4.5c0-0.6-0.5-1.1-1.1-1.1h-8c-0.6,0-1.1,0.5-1.1,1.1v4.5v4.4v5.5h-4.1
				v-19.5v-4.4v-4.5c0-0.6-0.5-1.1-1.1-1.1h-8.2c-0.6,0-1.1,0.5-1.1,1.1v4.5v4.4v6.1c0,0.6,0.5,1.1,1.1,1.1s1.1-0.5,1.1-1.1v-5h6
				v18.4h-6V336c0-0.6-0.5-1.1-1.1-1.1s-1.1,0.5-1.1,1.1v9.1h-4.1v-5.5v-4.4v-4.5c0-0.6-0.5-1.1-1.1-1.1H37c-0.6,0-1.1,0.5-1.1,1.1
				v4.5v4.4v5.5h-8.2v-27c0-0.6-0.5-1.1-1.1-1.1s-1.1,0.5-1.1,1.1v36c0,1.8,1.5,3.3,3.3,3.3h23.8l-0.6,5.4h-5
				c-0.6,0-1.1,0.5-1.1,1.1v3.8c0,0.6,0.5,1.1,1.1,1.1h31.5c0.6,0,1.1-0.5,1.1-1.1v-3.8c0-0.6-0.5-1.1-1.1-1.1h-5.2l-0.6-5.4h23.8
				c1.8,0,3.3-1.5,3.3-3.3v-7.8l0,0V337L99.8,337z M81.5,311.6h6v2.3h-6V311.6z M81.5,316.1h6v2.3h-6V316.1z M81.5,320.5h6v24.6h-6
				V320.5z M67.1,331.8h6v2.3h-6V331.8z M67.1,336.3h6v2.3h-6V336.3z M67.1,340.7h6v4.4h-6V340.7z M52.6,320.1v-2.3h6v2.3H52.6z
				 M52.6,324.5v-2.3h6v2.3H52.6z M38.2,331.8h6v2.3h-6V331.8z M38.2,336.3h6v2.3h-6V336.3z M38.2,340.7h6v4.4h-6V340.7z M77.5,365
				v1.6H48V365H77.5z M54.2,362.8l0.6-5.4h15.6l0.6,5.4H54.2z M96.5,355.3H28.9c-0.6,0-1.1-0.5-1.1-1.1v-6.7h69.8v6.7l0,0
				C97.6,354.8,97.1,355.3,96.5,355.3z"/>
		</g>
	</g>
</g>
<path class="st6" d="M759.5,186.2h-8.4v8.4h8.4V186.2z M756.7,191.9h-2.8V189h2.8V191.9z"/>
<path class="st6" d="M770.7,186.2h-8.4v8.4h8.4V186.2z M767.9,191.9h-2.8V189h2.8V191.9z"/>
<path class="st6" d="M759.5,197.5h-8.4v8.4h8.4V197.5z M756.7,203.1h-2.8v-2.8h2.8V203.1z"/>
<path class="st6" d="M770.7,197.5h-8.4v8.4h8.4V197.5z M767.9,203.1h-2.8v-2.8h2.8V203.1z"/>
<path class="st6" d="M759.5,217.1v-8.4h-8.4v8.4H759.5z M753.9,211.5h2.8v2.8h-2.8V211.5z"/>
<path class="st6" d="M770.7,208.7h-8.4v8.4h8.4V208.7z M767.9,214.3h-2.8v-2.8h2.8V214.3z"/>
<path class="st6" d="M779.1,183.4v-2.8h-2.8V175h-2.8v-5.6h-25.2v5.6h-2.8v5.6h-2.8v2.8h2.8v36.5h-11.2v-16.8h2.8v-8.4h-2.8v-2.1
	L714.7,179l-8.4,5.8v-4.3h-8.4v10.1l-2.8,1.9v2.1h-2.8v8.4h2.8v17.1c-1.6,0.6-2.8,2.1-2.8,3.9v2.8c0,2.3,1.9,4.2,4.2,4.2h27.3
	c-2.2,2.7-3.5,6.1-3.5,9.8c0,8.5,6.9,15.4,15.4,15.4s15.4-6.8,15.4-15.3c0-3.7-1.3-7.1-3.5-9.8h27.3c2.3,0,4.2-1.9,4.2-4.2v-2.8
	c0-1.8-1.2-3.4-2.8-3.9v-36.8L779.1,183.4L779.1,183.4z M751.1,172.2h19.6v2.8h-19.6V172.2z M748.3,177.8h25.2v2.8h-25.2V177.8z
	 M700.6,183.2h2.8v3.5l-2.8,1.9V183.2z M697.8,194.1l16.8-11.6l16.8,11.6v0.7h-33.7v-0.7H697.8z M695,197.5h39.3v2.8H695V197.5z
	 M731.5,203.1v16.8h-11.2v-14H709v14h-11.2v-16.8H731.5z M717.4,219.9h-5.6v-11.2h5.6V219.9z M735.7,253.6
	c-6.9,0-12.6-5.7-12.6-12.6c0-6.9,5.7-12.6,12.6-12.6s12.6,5.7,12.6,12.6C748.3,247.9,742.7,253.6,735.7,253.6z M776.3,226.9
	c0,0.8-0.6,1.4-1.4,1.4h-30.4c-2.5-1.8-5.5-2.8-8.8-2.8s-6.3,1-8.8,2.8h-30.4c-0.8,0-1.4-0.6-1.4-1.4v-2.8c0-0.8,0.6-1.4,1.4-1.4
	H775c0.8,0,1.4,0.6,1.4,1.4L776.3,226.9L776.3,226.9z M773.5,219.9h-25.2v-36.5h25.2V219.9z"/>
<g class="st3">
	<g>
		<g>
			<path class="st6" d="M715.3,25.6h-8.5c-0.6,0-1.1,0.5-1.1,1.1V31c0,0.6,0.5,1.1,1.1,1.1h8.5c0.6,0,1.1-0.5,1.1-1.1v-4.3
				C716.3,26.1,715.9,25.6,715.3,25.6z M709.9,29.9h-2.1v-2.1h2.1V29.9z M714.2,29.9h-2.1v-2.1h2.1V29.9z"/>
		</g>
	</g>
	<g>
		<g>
			<path class="st6" d="M715.3,34.1h-8.5c-0.6,0-1.1,0.5-1.1,1.1v4.3c0,0.6,0.5,1.1,1.1,1.1h8.5c0.6,0,1.1-0.5,1.1-1.1v-4.3
				C716.3,34.6,715.9,34.1,715.3,34.1z M709.9,38.4h-2.1v-2.1h2.1V38.4z M714.2,38.4h-2.1v-2.1h2.1V38.4z"/>
		</g>
	</g>
	<g>
		<g>
			<path class="st6" d="M715.3,42.8h-8.5c-0.6,0-1.1,0.5-1.1,1.1v4.2c0,0.6,0.5,1.1,1.1,1.1h8.5c0.6,0,1.1-0.5,1.1-1.1v-4.3
				C716.3,43.2,715.9,42.8,715.3,42.8z M709.9,47h-2.1v-2.1h2.1V47z M714.2,47h-2.1v-2.1h2.1V47z"/>
		</g>
	</g>
	<g>
		<g>
			<path class="st6" d="M753.7,25.6h-8.5c-0.6,0-1.1,0.5-1.1,1.1V31c0,0.6,0.5,1.1,1.1,1.1h8.5c0.6,0,1.1-0.5,1.1-1.1v-4.3
				C754.7,26.1,754.3,25.6,753.7,25.6z M748.3,29.9h-2.1v-2.1h2.1V29.9z M752.6,29.9h-2.1v-2.1h2.1V29.9z"/>
		</g>
	</g>
	<g>
		<g>
			<path class="st6" d="M753.7,17.1h-8.5c-0.6,0-1.1,0.5-1.1,1.1v4.3c0,0.6,0.5,1.1,1.1,1.1h8.5c0.6,0,1.1-0.5,1.1-1.1v-4.3
				C754.7,17.5,754.3,17.1,753.7,17.1z M748.3,21.3h-2.1v-2.1h2.1V21.3z M752.6,21.3h-2.1v-2.1h2.1V21.3z"/>
		</g>
	</g>
	<g>
		<g>
			<path class="st6" d="M728.1,29.9h-4.3c-0.6,0-1.1,0.5-1.1,1.1v4.3c0,0.6,0.5,1.1,1.1,1.1h4.3c0.6,0,1.1-0.5,1.1-1.1V31
				C729.1,30.3,728.7,29.9,728.1,29.9z M727,34.1h-2.1V32h2.1V34.1z"/>
		</g>
	</g>
	<g>
		<g>
			<path class="st6" d="M736.6,29.9h-4.3c-0.6,0-1.1,0.5-1.1,1.1v4.3c0,0.6,0.5,1.1,1.1,1.1h4.3c0.6,0,1.1-0.5,1.1-1.1V31
				C737.7,30.3,737.2,29.9,736.6,29.9z M735.5,34.1h-2.1V32h2.1V34.1z"/>
		</g>
	</g>
	<g>
		<g>
			<path class="st6" d="M728.1,21.3h-4.3c-0.6,0-1.1,0.5-1.1,1.1v4.3c0,0.6,0.5,1.1,1.1,1.1h4.3c0.6,0,1.1-0.5,1.1-1.1v-4.3
				C729.1,21.8,728.7,21.3,728.1,21.3z M727,25.6h-2.1v-2.1h2.1V25.6z"/>
		</g>
	</g>
	<g>
		<g>
			<path class="st6" d="M736.6,21.3h-4.3c-0.6,0-1.1,0.5-1.1,1.1v4.3c0,0.6,0.5,1.1,1.1,1.1h4.3c0.6,0,1.1-0.5,1.1-1.1v-4.3
				C737.7,21.8,737.2,21.3,736.6,21.3z M735.5,25.6h-2.1v-2.1h2.1V25.6z"/>
		</g>
	</g>
	<g>
		<g>
			<path class="st6" d="M728.1,12.8h-4.3c-0.6,0-1.1,0.5-1.1,1.1v4.3c0,0.6,0.5,1.1,1.1,1.1h4.3c0.6,0,1.1-0.5,1.1-1.1v-4.3
				C729.1,13.3,728.7,12.8,728.1,12.8z M727,17.1h-2.1V15h2.1V17.1z"/>
		</g>
	</g>
	<g>
		<g>
			<path class="st6" d="M736.6,12.8h-4.3c-0.6,0-1.1,0.5-1.1,1.1v4.3c0,0.6,0.5,1.1,1.1,1.1h4.3c0.6,0,1.1-0.5,1.1-1.1v-4.3
				C737.7,13.3,737.2,12.8,736.6,12.8z M735.5,17.1h-2.1V15h2.1V17.1z"/>
		</g>
	</g>
	<g>
		<g>
			<path class="st6" d="M728.1,42.8h-4.3c-0.6,0-1.1,0.5-1.1,1.1v4.2c0,0.6,0.5,1.1,1.1,1.1h4.3c0.6,0,1.1-0.5,1.1-1.1v-4.3
				C729.1,43.2,728.7,42.8,728.1,42.8z M727,47h-2.1v-2.1h2.1V47z"/>
		</g>
	</g>
	<g>
		<g>
			<rect x="705.6" y="51.3" class="st6" width="2.1" height="2.1"/>
		</g>
	</g>
	<g>
		<g>
			<rect x="709.9" y="51.3" class="st6" width="2.1" height="2.1"/>
		</g>
	</g>
	<g>
		<g>
			<rect x="714.2" y="51.3" class="st6" width="2.1" height="2.1"/>
		</g>
	</g>
	<g>
		<g>
			<path class="st6" d="M764.3,38.4H759V13.9c0-0.6-0.5-1.1-1.1-1.1h-7.5v-1.7l1.1-1.1c0.9,0.7,2,1.1,3.1,1.1c1.4,0,2.7-0.5,3.7-1.5
				l0.2-0.2c0.4-0.4,0.4-1.1,0-1.5l-2.4-2.4l2.4-2.4L757,1.6L754.6,4l-3.5-3.5c-0.2-0.2-0.5-0.3-0.8-0.3c-0.4,0-0.7,0.2-0.9,0.4
				c-1.1,1-1.7,2.3-1.7,3.7s0.5,2.9,1.6,3.9l0.5,0.5l-1.4,1.4c-0.2,0.2-0.3,0.5-0.3,0.8V13h-6.4V9.6c0-0.6-0.5-1.1-1.1-1.1h-3.7
				l-6.1-8.1c-0.4-0.5-1.3-0.5-1.7,0L723,8.5h-3.7c-0.6,0-1.1,0.5-1.1,1.1v11.7h-6.4v-8.5h-2.1v8.5h-7.5c-0.6,0-1.1,0.5-1.1,1.1V63
				c0,0.6,0.5,1.1,1.1,1.1h17.1h7.5h8.5h1.1h6.4h17.1c2.9,0,5.3-2.4,5.3-5.3V39.6C765.4,38.9,764.9,38.4,764.3,38.4z M718.5,62
				h-14.9V23.5h14.9V62z M750.5,2.6l5.8,5.8c-1.2,0.7-2.8,0.6-3.9-0.5l-1.5-1.5c-0.6-0.6-1-1.4-0.9-2.3
				C750.1,3.6,750.2,3.1,750.5,2.6z M730.2,2.8l4.3,5.7H726L730.2,2.8z M725.9,53.4v8.5h-5.3V22.4V10.7h19.2v3.2v19.2h2.1V14.9h14.9
				v23.5h-2.1v-1.1c0-1.8-1.4-3.2-3.2-3.2h-6.4c-1.8,0-3.2,1.4-3.2,3.2v1.1h-9.6c-0.6,0-1.1,0.5-1.1,1.1v11.7h-8.5v2.1h3.2
				L725.9,53.4L725.9,53.4z M752.6,37.3v1.1h-8.5v-1.1c0-0.6,0.5-1.1,1.1-1.1h6.4C752.1,36.3,752.6,36.7,752.6,37.3z M728.1,62v-8.5
				h3.2v5.3c0,1.2,0.4,2.3,1.1,3.2H728.1z M763.3,58.8c0,1.8-1.4,3.2-3.2,3.2H743h-6.4c-1.8,0-3.2-1.4-3.2-3.2V48.1
				c0.9,0.7,2,1.1,3.2,1.1h1.1v3.2c0,0.6,0.5,1.1,1.1,1.1h4.3c0.6,0,1.1-0.5,1.1-1.1v-3.2h1.1h6.4h1.1v3.2c0,0.6,0.5,1.1,1.1,1.1
				h4.3c0.6,0,1.1-0.5,1.1-1.1v-3.2h1.1c1.2,0,2.3-0.4,3.2-1.1v10.7H763.3z M739.8,51.3v-2.1h2.1v2.1H739.8z M746.2,47v-2.1h4.3V47
				H746.2z M754.7,51.3v-2.1h2.1v2.1H754.7z M763.3,43.8c0,1.8-1.4,3.2-3.2,3.2H758h-4.3h-1.1v-3.2c0-0.6-0.5-1.1-1.1-1.1h-6.4
				c-0.6,0-1.1,0.5-1.1,1.1V47h-1.1h-4.3h-2.1c-1.8,0-3.2-1.4-3.2-3.2v-3.2h29.9L763.3,43.8L763.3,43.8z"/>
		</g>
	</g>
	<g>
		<g>
			<rect x="759" y="57.7" class="st6" width="2.1" height="2.1"/>
		</g>
	</g>
	<g>
		<g>
			<rect x="754.7" y="57.7" class="st6" width="2.1" height="2.1"/>
		</g>
	</g>
	<g>
		<g>
			<rect x="750.5" y="57.7" class="st6" width="2.1" height="2.1"/>
		</g>
	</g>
</g>
<g>
	<g>
		<path class="st1" d="M219.7,209.9v-1.1c2.2-0.9,3.3-2.5,3.3-4.8v-2.8h-3V200h3v-3.8c0-1.6,0.4-3,1.3-4c0.9-1,2-1.5,3.5-1.5
			c0.8,0,1.6,0.2,2.4,0.5v1.2c-0.8-0.4-1.6-0.6-2.4-0.6c-1.1,0-1.9,0.4-2.6,1.2c-0.6,0.8-0.9,1.9-0.9,3.4v3.6h4v1.2h-4v2.3
			c0,2.6-0.9,4.3-2.8,5.3h9.7v1.1H219.7z"/>
	</g>
</g>
<g>
	<g id="椭圆_7_1_">
		<path class="st1" d="M572.9,196.8c-10.8,0-19.5-8.7-19.5-19.5s8.7-19.5,19.5-19.5s19.5,8.7,19.5,19.5S583.7,196.8,572.9,196.8z
			 M572.9,158.8c-10.2,0-18.5,8.3-18.5,18.5s8.3,18.5,18.5,18.5s18.5-8.3,18.5-18.5S583.1,158.8,572.9,158.8z"/>
	</g>
	<g>
		<g>
			<path class="st1" d="M567.2,186.9v-1.1c2.2-0.9,3.3-2.5,3.3-4.8v-2.8h-3V177h3v-3.8c0-1.6,0.4-3,1.3-4c0.9-1,2-1.5,3.5-1.5
				c0.8,0,1.6,0.2,2.4,0.5v1.2c-0.8-0.4-1.6-0.6-2.4-0.6c-1.1,0-1.9,0.4-2.6,1.2c-0.6,0.8-0.9,1.9-0.9,3.4v3.6h4v1.2h-4v2.3
				c0,2.6-0.9,4.3-2.8,5.3h9.7v1.1H567.2z"/>
		</g>
	</g>
</g>
<g>
	<path class="st6" d="M729.9,249.1v-1.8c1.9-0.6,2.9-1.8,2.9-3.7v-2.2h-2.6v-1.8h2.6v-3c0-1.5,0.4-2.8,1.4-3.7c1-1,2.2-1.5,3.6-1.5
		c1,0,1.9,0.1,2.8,0.6v2.1c-0.8-0.6-1.8-0.7-2.6-0.7c-1.9,0-2.9,1.2-2.9,3.6v2.8h3.9v1.8h-4v1.8c0,1.9-0.8,3.2-2.3,4.1h8.9v1.8
		h-11.7L729.9,249.1L729.9,249.1z"/>
</g>
<g class="st3">
	<path class="st6" d="M35.6,149.6v12.1h-1.6v-12.1H35.6z"/>
	<path class="st6" d="M45.9,161.7h-1.5v-4.9c0-1.8-0.6-2.7-1.9-2.7c-0.7,0-1.2,0.3-1.7,0.8c-0.4,0.5-0.6,1.1-0.6,1.9v4.9h-1.5v-8.6
		h1.5v1.4h0c0.7-1.1,1.6-1.6,2.8-1.6c0.9,0,1.7,0.3,2.2,0.9c0.5,0.6,0.7,1.5,0.7,2.7V161.7z"/>
	<path class="st6" d="M55.4,153.1l-3.4,8.6h-1.5l-3.3-8.6h1.7l2.1,6.2c0.2,0.5,0.3,0.9,0.3,1.2h0c0.1-0.4,0.1-0.8,0.3-1.2l2.2-6.2
		H55.4z"/>
	<path class="st6" d="M63.8,157.8h-6c0,0.9,0.3,1.6,0.8,2.1c0.5,0.5,1.1,0.8,2,0.8c1,0,1.9-0.3,2.7-0.9v1.4c-0.8,0.5-1.8,0.8-3,0.8
		c-1.3,0-2.2-0.4-2.9-1.2c-0.7-0.8-1.1-1.9-1.1-3.3c0-1.3,0.4-2.4,1.2-3.3c0.8-0.9,1.7-1.3,2.9-1.3c1.1,0,2,0.4,2.6,1.1
		c0.6,0.7,1,1.7,1,3.1V157.8z M62.3,156.6c0-0.8-0.2-1.4-0.6-1.8c-0.4-0.4-0.9-0.6-1.5-0.6c-0.6,0-1.1,0.2-1.6,0.7s-0.7,1-0.8,1.8
		H62.3z"/>
	<path class="st6" d="M65.3,159.8c0.8,0.6,1.6,0.8,2.5,0.8c1.2,0,1.8-0.4,1.8-1.2c0-0.3-0.1-0.6-0.4-0.8c-0.3-0.2-0.8-0.5-1.6-0.8
		c-1-0.4-1.6-0.8-1.9-1.1c-0.3-0.4-0.4-0.8-0.4-1.4c0-0.8,0.3-1.4,1-1.8s1.4-0.7,2.4-0.7c0.7,0,1.4,0.1,2,0.4v1.5
		c-0.6-0.4-1.4-0.6-2.2-0.6c-0.5,0-0.9,0.1-1.2,0.3c-0.3,0.2-0.5,0.5-0.5,0.8c0,0.3,0.1,0.6,0.3,0.8c0.2,0.2,0.7,0.4,1.5,0.7
		c1,0.4,1.6,0.7,2,1.1c0.3,0.4,0.5,0.9,0.5,1.4c0,0.8-0.3,1.4-1,1.9s-1.5,0.7-2.5,0.7c-0.9,0-1.7-0.2-2.3-0.5V159.8z"/>
	<path class="st6" d="M77.4,161.6c-0.3,0.2-0.8,0.3-1.4,0.3c-1.5,0-2.3-0.9-2.3-2.6v-5h-1.5v-1.3h1.5V151l1.5-0.5v2.6h2.1v1.3h-2.1
		v4.7c0,0.6,0.1,1,0.3,1.2c0.2,0.2,0.5,0.4,1,0.4c0.3,0,0.6-0.1,0.9-0.3V161.6z"/>
	<path class="st6" d="M78.5,157.5c0-1.4,0.4-2.6,1.2-3.4s1.9-1.2,3.2-1.2c1.3,0,2.3,0.4,3.1,1.2c0.7,0.8,1.1,1.9,1.1,3.3
		c0,1.4-0.4,2.5-1.2,3.3c-0.8,0.8-1.8,1.3-3.2,1.3c-1.3,0-2.3-0.4-3.1-1.2C78.9,159.9,78.5,158.8,78.5,157.5z M80,157.4
		c0,1,0.3,1.8,0.8,2.4c0.5,0.6,1.2,0.9,2,0.9c0.9,0,1.5-0.3,2-0.8c0.5-0.6,0.7-1.4,0.7-2.4c0-1.1-0.2-1.9-0.7-2.4
		c-0.5-0.6-1.1-0.8-2-0.8c-0.9,0-1.5,0.3-2,0.9C80.3,155.6,80,156.4,80,157.4z"/>
	<path class="st6" d="M93.9,154.6c-0.3-0.2-0.6-0.3-1.1-0.3c-0.6,0-1.1,0.3-1.5,0.8c-0.4,0.6-0.6,1.3-0.6,2.2v4.4h-1.5v-8.6h1.5v1.8
		h0c0.4-1.3,1.2-1.9,2.3-1.9c0.3,0,0.6,0,0.8,0.1V154.6z"/>
</g>
<g class="st3">
	<path class="st6" d="M562.8,316.8c-0.9,0.5-2,0.7-3.4,0.7c-1.7,0-3.1-0.6-4.2-1.7c-1-1.1-1.6-2.6-1.6-4.4c0-1.9,0.6-3.5,1.8-4.7
		c1.2-1.2,2.6-1.8,4.4-1.8c1.2,0,2.1,0.2,2.9,0.5v1.6c-0.9-0.5-1.8-0.7-2.9-0.7c-1.3,0-2.4,0.4-3.3,1.3c-0.8,0.9-1.3,2.1-1.3,3.6
		c0,1.4,0.4,2.6,1.2,3.4c0.8,0.9,1.8,1.3,3.1,1.3c1.2,0,2.2-0.3,3.1-0.8V316.8z"/>
	<path class="st6" d="M565.2,309.3c0.9-0.5,1.9-0.8,3-0.8c2.1,0,3.1,1.1,3.1,3.3v5.6h-1.5V316h0c-0.6,1-1.5,1.5-2.6,1.5
		c-0.8,0-1.5-0.2-2-0.7c-0.5-0.5-0.7-1.1-0.7-1.8c0-1.6,1-2.6,2.9-2.8l2.6-0.4c0-1.4-0.6-2.1-1.8-2.1c-1,0-2,0.3-2.8,1V309.3z
		 M567.8,313.3c-0.7,0.1-1.2,0.3-1.5,0.5c-0.3,0.3-0.4,0.6-0.4,1.1c0,0.4,0.1,0.7,0.4,1c0.3,0.3,0.7,0.4,1.2,0.4
		c0.7,0,1.2-0.2,1.6-0.7c0.4-0.5,0.6-1.1,0.6-1.8V313L567.8,313.3z"/>
	<path class="st6" d="M575.4,316.1v5.2h-1.5v-12.6h1.5v1.5h0c0.7-1.1,1.7-1.7,3-1.7c1.1,0,2,0.4,2.6,1.2c0.6,0.8,0.9,1.8,0.9,3.1
		c0,1.4-0.4,2.6-1.1,3.5s-1.7,1.3-2.9,1.3C576.9,317.5,576,317,575.4,316.1L575.4,316.1z M575.4,313.8c0,0.7,0.2,1.3,0.7,1.8
		s1,0.7,1.7,0.7c0.8,0,1.4-0.3,1.9-0.9c0.5-0.6,0.7-1.5,0.7-2.6c0-0.9-0.2-1.7-0.6-2.2c-0.4-0.5-1-0.8-1.8-0.8
		c-0.8,0-1.4,0.3-1.9,0.8s-0.7,1.2-0.7,2.1V313.8z"/>
	<path class="st6" d="M583.9,305.6c0-0.3,0.1-0.5,0.3-0.7c0.2-0.2,0.4-0.3,0.7-0.3c0.3,0,0.5,0.1,0.7,0.3c0.2,0.2,0.3,0.4,0.3,0.7
		c0,0.3-0.1,0.5-0.3,0.7c-0.2,0.2-0.4,0.3-0.7,0.3c-0.3,0-0.5-0.1-0.7-0.3C584,306.1,583.9,305.9,583.9,305.6z M584,317.3v-8.6h1.5
		v8.6H584z"/>
	<path class="st6" d="M592.5,317.2c-0.3,0.2-0.8,0.3-1.4,0.3c-1.5,0-2.3-0.9-2.3-2.6v-5h-1.5v-1.3h1.5v-2.1l1.5-0.5v2.6h2.1v1.3
		h-2.1v4.7c0,0.6,0.1,1,0.3,1.2c0.2,0.2,0.5,0.4,1,0.4c0.3,0,0.6-0.1,0.9-0.3V317.2z"/>
	<path class="st6" d="M594.5,309.3c0.9-0.5,1.9-0.8,3-0.8c2.1,0,3.1,1.1,3.1,3.3v5.6h-1.5V316h0c-0.6,1-1.5,1.5-2.6,1.5
		c-0.8,0-1.5-0.2-2-0.7c-0.5-0.5-0.7-1.1-0.7-1.8c0-1.6,1-2.6,2.9-2.8l2.6-0.4c0-1.4-0.6-2.1-1.8-2.1c-1,0-2,0.3-2.8,1V309.3z
		 M597,313.3c-0.7,0.1-1.2,0.3-1.5,0.5c-0.3,0.3-0.4,0.6-0.4,1.1c0,0.4,0.1,0.7,0.4,1c0.3,0.3,0.7,0.4,1.2,0.4
		c0.7,0,1.2-0.2,1.6-0.7c0.4-0.5,0.6-1.1,0.6-1.8V313L597,313.3z"/>
	<path class="st6" d="M603.1,317.3v-12.8h1.5v12.8H603.1z"/>
</g>
<g class="st3">
	<path class="st6" d="M688.1,284.3h-6.4v-12.1h1.6v10.7h4.8V284.3z"/>
	<path class="st6" d="M696.9,284.3h-1.5V283h0c-0.6,1-1.5,1.6-2.7,1.6c-2,0-3.1-1.2-3.1-3.7v-5.2h1.5v4.9c0,1.8,0.7,2.6,2,2.6
		c0.7,0,1.2-0.2,1.6-0.7s0.6-1.1,0.6-1.9v-5h1.5V284.3z"/>
	<path class="st6" d="M706.1,275.7l-2.9,4.4l2.9,4.3h-1.8l-1.6-2.8c-0.1-0.1-0.2-0.4-0.4-0.7h0c0,0-0.1,0.3-0.4,0.7l-1.7,2.8h-1.8
		l2.9-4.2l-2.8-4.4h1.8l1.6,2.9c0.1,0.2,0.2,0.4,0.4,0.7h0l2.1-3.6H706.1z"/>
	<path class="st6" d="M712.6,276.3c0.9-0.5,1.9-0.8,3-0.8c2.1,0,3.1,1.1,3.1,3.3v5.6h-1.5V283h0c-0.6,1-1.5,1.5-2.6,1.5
		c-0.8,0-1.5-0.2-2-0.7s-0.7-1.1-0.7-1.8c0-1.6,1-2.6,2.9-2.8l2.6-0.4c0-1.4-0.6-2.1-1.8-2.1c-1,0-2,0.3-2.8,1V276.3z M715.2,280.3
		c-0.7,0.1-1.2,0.3-1.5,0.5s-0.4,0.6-0.4,1.1c0,0.4,0.1,0.7,0.4,1s0.7,0.4,1.2,0.4c0.7,0,1.2-0.2,1.6-0.7s0.6-1.1,0.6-1.8V280
		L715.2,280.3z"/>
	<path class="st6" d="M720.8,282.4c0.8,0.6,1.6,0.8,2.5,0.8c1.2,0,1.8-0.4,1.8-1.2c0-0.3-0.1-0.6-0.4-0.8s-0.8-0.5-1.6-0.8
		c-1-0.4-1.6-0.8-1.9-1.1s-0.4-0.8-0.4-1.4c0-0.8,0.3-1.4,1-1.8s1.4-0.7,2.4-0.7c0.7,0,1.4,0.1,2,0.4v1.5c-0.6-0.4-1.4-0.6-2.2-0.6
		c-0.5,0-0.9,0.1-1.2,0.3s-0.5,0.5-0.5,0.8c0,0.3,0.1,0.6,0.3,0.8s0.7,0.4,1.5,0.7c1,0.4,1.6,0.7,2,1.1s0.5,0.9,0.5,1.4
		c0,0.8-0.3,1.4-1,1.9s-1.5,0.7-2.5,0.7c-0.9,0-1.7-0.2-2.3-0.5V282.4z"/>
	<path class="st6" d="M728.2,282.4c0.8,0.6,1.6,0.8,2.5,0.8c1.2,0,1.8-0.4,1.8-1.2c0-0.3-0.1-0.6-0.4-0.8s-0.8-0.5-1.6-0.8
		c-1-0.4-1.6-0.8-1.9-1.1s-0.4-0.8-0.4-1.4c0-0.8,0.3-1.4,1-1.8s1.4-0.7,2.4-0.7c0.7,0,1.4,0.1,2,0.4v1.5c-0.6-0.4-1.4-0.6-2.2-0.6
		c-0.5,0-0.9,0.1-1.2,0.3s-0.5,0.5-0.5,0.8c0,0.3,0.1,0.6,0.3,0.8s0.7,0.4,1.5,0.7c1,0.4,1.6,0.7,2,1.1s0.5,0.9,0.5,1.4
		c0,0.8-0.3,1.4-1,1.9s-1.5,0.7-2.5,0.7c-0.9,0-1.7-0.2-2.3-0.5V282.4z"/>
	<path class="st6" d="M743.1,280.4h-6c0,0.9,0.3,1.6,0.8,2.1s1.1,0.8,2,0.8c1,0,1.9-0.3,2.7-0.9v1.4c-0.8,0.5-1.8,0.8-3,0.8
		c-1.3,0-2.2-0.4-2.9-1.2s-1.1-1.9-1.1-3.3c0-1.3,0.4-2.4,1.2-3.3s1.7-1.3,2.9-1.3c1.1,0,2,0.4,2.6,1.1s1,1.7,1,3.1V280.4z
		 M741.6,279.2c0-0.8-0.2-1.4-0.6-1.8s-0.9-0.6-1.5-0.6c-0.6,0-1.1,0.2-1.6,0.7s-0.7,1-0.8,1.8H741.6z"/>
	<path class="st6" d="M749.3,284.2c-0.3,0.2-0.8,0.3-1.4,0.3c-1.5,0-2.3-0.9-2.3-2.6v-5h-1.5v-1.3h1.5v-2.1l1.5-0.5v2.6h2.1v1.3
		h-2.1v4.7c0,0.6,0.1,1,0.3,1.2s0.5,0.4,1,0.4c0.3,0,0.6-0.1,0.9-0.3V284.2z"/>
	<path class="st6" d="M768.3,284.3h-1.5v-5c0-0.9-0.1-1.6-0.4-2s-0.8-0.6-1.4-0.6c-0.6,0-1,0.3-1.4,0.8s-0.6,1.1-0.6,1.9v4.9h-1.5
		v-5.1c0-1.6-0.6-2.5-1.9-2.5c-0.6,0-1.1,0.3-1.4,0.8s-0.6,1.1-0.6,1.9v4.9h-1.5v-8.6h1.5v1.4h0c0.6-1,1.5-1.6,2.7-1.6
		c0.6,0,1.1,0.2,1.5,0.5s0.8,0.7,0.9,1.3c0.6-1.2,1.6-1.8,2.9-1.8c1.9,0,2.9,1.2,2.9,3.5V284.3z"/>
	<path class="st6" d="M770.3,280.1c0-1.4,0.4-2.6,1.2-3.4s1.9-1.2,3.2-1.2c1.3,0,2.3,0.4,3.1,1.2s1.1,1.9,1.1,3.3
		c0,1.4-0.4,2.5-1.2,3.3s-1.8,1.3-3.2,1.3c-1.3,0-2.3-0.4-3.1-1.2S770.3,281.4,770.3,280.1z M771.8,280c0,1,0.3,1.8,0.8,2.4
		s1.2,0.9,2,0.9c0.9,0,1.5-0.3,2-0.8s0.7-1.4,0.7-2.4c0-1.1-0.2-1.9-0.7-2.4s-1.1-0.8-2-0.8c-0.9,0-1.5,0.3-2,0.9
		S771.8,279,771.8,280z"/>
	<path class="st6" d="M788.5,284.3H787v-1.4h0c-0.6,1.1-1.6,1.6-2.9,1.6c-1.1,0-2-0.4-2.6-1.2s-1-1.8-1-3.2c0-1.4,0.4-2.6,1.1-3.4
		s1.7-1.3,2.9-1.3s2,0.5,2.6,1.4h0v-5.3h1.5V284.3z M787,279.2c0-0.7-0.2-1.3-0.7-1.7s-1-0.7-1.7-0.7c-0.8,0-1.5,0.3-1.9,0.9
		s-0.7,1.4-0.7,2.5c0,1,0.2,1.7,0.7,2.3s1.1,0.8,1.8,0.8c0.7,0,1.3-0.3,1.8-0.8s0.7-1.2,0.7-2.1V279.2z"/>
	<path class="st6" d="M798.4,284.3h-1.5V283h0c-0.6,1-1.5,1.6-2.7,1.6c-2,0-3.1-1.2-3.1-3.7v-5.2h1.5v4.9c0,1.8,0.7,2.6,2,2.6
		c0.7,0,1.2-0.2,1.6-0.7s0.6-1.1,0.6-1.9v-5h1.5V284.3z"/>
	<path class="st6" d="M801.1,284.3v-12.8h1.5v12.8H801.1z"/>
	<path class="st6" d="M812.4,280.4h-6c0,0.9,0.3,1.6,0.8,2.1s1.1,0.8,2,0.8c1,0,1.9-0.3,2.7-0.9v1.4c-0.8,0.5-1.8,0.8-3,0.8
		c-1.3,0-2.2-0.4-2.9-1.2s-1.1-1.9-1.1-3.3c0-1.3,0.4-2.4,1.2-3.3s1.7-1.3,2.9-1.3c1.1,0,2,0.4,2.6,1.1s1,1.7,1,3.1V280.4z
		 M810.9,279.2c0-0.8-0.2-1.4-0.6-1.8s-0.9-0.6-1.5-0.6c-0.6,0-1.1,0.2-1.6,0.7s-0.7,1-0.8,1.8H810.9z"/>
</g>
<g class="st3">
	<path class="st6" d="M10.6,401.3c-1.2,0.7-2.6,1-4.1,1c-1.8,0-3.2-0.6-4.2-1.7s-1.6-2.6-1.6-4.4c0-1.9,0.6-3.4,1.8-4.6
		c1.2-1.2,2.7-1.8,4.5-1.8c1.3,0,2.4,0.2,3.3,0.6v1.7c-1-0.6-2.1-0.9-3.5-0.9c-1.3,0-2.4,0.5-3.3,1.4c-0.9,0.9-1.3,2.1-1.3,3.6
		c0,1.5,0.4,2.7,1.2,3.5c0.8,0.8,1.8,1.3,3.2,1.3c0.9,0,1.7-0.2,2.4-0.5v-3.3H6.4v-1.4h4.2V401.3z"/>
	<path class="st6" d="M13.2,402.2v-12.8h1.5v12.8H13.2z"/>
	<path class="st6" d="M16.8,397.9c0-1.4,0.4-2.6,1.2-3.4s1.9-1.2,3.2-1.2c1.3,0,2.3,0.4,3.1,1.2c0.7,0.8,1.1,1.9,1.1,3.3
		c0,1.4-0.4,2.5-1.2,3.3c-0.8,0.8-1.8,1.3-3.2,1.3c-1.3,0-2.3-0.4-3.1-1.2C17.2,400.3,16.8,399.3,16.8,397.9z M18.4,397.9
		c0,1,0.3,1.8,0.8,2.4c0.5,0.6,1.2,0.9,2,0.9c0.9,0,1.5-0.3,2-0.8c0.5-0.6,0.7-1.4,0.7-2.4c0-1.1-0.2-1.9-0.7-2.4
		c-0.5-0.6-1.1-0.8-2-0.8c-0.9,0-1.5,0.3-2,0.9C18.7,396.1,18.4,396.9,18.4,397.9z"/>
	<path class="st6" d="M29.1,400.9v1.2h-1.5v-12.8h1.5v5.6h0c0.7-1.1,1.7-1.7,3-1.7c1.1,0,1.9,0.4,2.6,1.1c0.6,0.8,1,1.8,1,3.1
		c0,1.5-0.4,2.6-1.1,3.5c-0.7,0.9-1.7,1.3-2.9,1.3C30.6,402.4,29.7,401.9,29.1,400.9L29.1,400.9z M29.1,398.6c0,0.7,0.2,1.3,0.7,1.8
		s1,0.7,1.7,0.7c0.8,0,1.4-0.3,1.9-0.9c0.5-0.6,0.7-1.5,0.7-2.6c0-0.9-0.2-1.6-0.6-2.2c-0.4-0.5-1-0.8-1.8-0.8
		c-0.8,0-1.4,0.3-1.9,0.8c-0.5,0.5-0.7,1.2-0.7,2V398.6z"/>
	<path class="st6" d="M37.8,394.1c0.9-0.5,1.9-0.8,3-0.8c2.1,0,3.1,1.1,3.1,3.3v5.6h-1.5v-1.3h0c-0.6,1-1.5,1.5-2.6,1.5
		c-0.8,0-1.5-0.2-2-0.7c-0.5-0.5-0.7-1.1-0.7-1.8c0-1.6,1-2.6,2.9-2.8l2.6-0.4c0-1.4-0.6-2.1-1.8-2.1c-1,0-2,0.3-2.8,1V394.1z
		 M40.4,398.1c-0.7,0.1-1.2,0.3-1.5,0.5c-0.3,0.3-0.4,0.6-0.4,1.1c0,0.4,0.1,0.7,0.4,1c0.3,0.3,0.7,0.4,1.2,0.4
		c0.7,0,1.2-0.2,1.6-0.7c0.4-0.5,0.6-1.1,0.6-1.8v-0.8L40.4,398.1z"/>
	<path class="st6" d="M46.4,402.2v-12.8H48v12.8H46.4z"/>
	<path class="st6" d="M62.5,398.2h-6c0,0.9,0.3,1.6,0.8,2.1c0.5,0.5,1.1,0.8,2,0.8c1,0,1.9-0.3,2.7-0.9v1.4c-0.8,0.5-1.8,0.8-3,0.8
		c-1.3,0-2.2-0.4-2.9-1.2c-0.7-0.8-1.1-1.9-1.1-3.3c0-1.3,0.4-2.4,1.2-3.3c0.8-0.9,1.7-1.3,2.9-1.3c1.1,0,2,0.4,2.6,1.1
		c0.6,0.7,1,1.7,1,3.1V398.2z M60.9,397c0-0.8-0.2-1.4-0.6-1.8c-0.4-0.4-0.9-0.6-1.5-0.6c-0.6,0-1.1,0.2-1.6,0.7s-0.7,1-0.8,1.8
		H60.9z"/>
	<path class="st6" d="M71,393.5l-2.9,4.4l2.9,4.3h-1.8l-1.6-2.8c-0.1-0.1-0.2-0.4-0.4-0.7h0c0,0-0.1,0.3-0.4,0.7l-1.7,2.8h-1.8
		l2.9-4.2l-2.8-4.4h1.8l1.6,2.9c0.1,0.2,0.2,0.4,0.4,0.7h0l2.1-3.6H71z"/>
	<path class="st6" d="M78.4,401.8c-0.7,0.4-1.5,0.6-2.4,0.6c-1.3,0-2.3-0.4-3-1.2c-0.8-0.8-1.1-1.8-1.1-3.1c0-1.4,0.4-2.6,1.2-3.4
		s1.9-1.3,3.3-1.3c0.8,0,1.5,0.1,2,0.4v1.5c-0.6-0.4-1.3-0.7-2-0.7c-0.9,0-1.6,0.3-2.1,0.9c-0.5,0.6-0.8,1.4-0.8,2.4
		c0,1,0.3,1.8,0.8,2.3c0.5,0.6,1.2,0.8,2.1,0.8c0.7,0,1.4-0.2,2.1-0.7V401.8z"/>
	<path class="st6" d="M87.8,402.2h-1.5v-5c0-1.7-0.6-2.6-1.9-2.6c-0.7,0-1.2,0.3-1.6,0.8s-0.7,1.1-0.7,1.9v4.9h-1.5v-12.8H82v5.6h0
		c0.7-1.1,1.6-1.6,2.8-1.6c1.9,0,2.9,1.2,2.9,3.5V402.2z"/>
	<path class="st6" d="M90.6,394.1c0.9-0.5,1.9-0.8,3-0.8c2.1,0,3.1,1.1,3.1,3.3v5.6h-1.5v-1.3h0c-0.6,1-1.5,1.5-2.6,1.5
		c-0.8,0-1.5-0.2-2-0.7c-0.5-0.5-0.7-1.1-0.7-1.8c0-1.6,1-2.6,2.9-2.8l2.6-0.4c0-1.4-0.6-2.1-1.8-2.1c-1,0-2,0.3-2.8,1V394.1z
		 M93.1,398.1c-0.7,0.1-1.2,0.3-1.5,0.5c-0.3,0.3-0.4,0.6-0.4,1.1c0,0.4,0.1,0.7,0.4,1c0.3,0.3,0.7,0.4,1.2,0.4
		c0.7,0,1.2-0.2,1.6-0.7c0.4-0.5,0.6-1.1,0.6-1.8v-0.8L93.1,398.1z"/>
	<path class="st6" d="M106.5,402.2H105v-4.9c0-1.8-0.6-2.7-1.9-2.7c-0.7,0-1.2,0.3-1.7,0.8c-0.4,0.5-0.6,1.1-0.6,1.9v4.9h-1.5v-8.6
		h1.5v1.4h0c0.7-1.1,1.6-1.6,2.8-1.6c0.9,0,1.7,0.3,2.2,0.9c0.5,0.6,0.7,1.5,0.7,2.7V402.2z"/>
	<path class="st6" d="M116.6,401.4c0,3.2-1.6,4.8-4.7,4.8c-1.1,0-2-0.2-2.8-0.6v-1.5c1,0.5,1.9,0.8,2.8,0.8c2.1,0,3.1-1.1,3.1-3.3
		v-0.9h0c-0.7,1.1-1.6,1.6-2.9,1.6c-1.1,0-2-0.4-2.6-1.2c-0.7-0.8-1-1.8-1-3.1c0-1.5,0.4-2.6,1.1-3.5s1.7-1.3,2.9-1.3
		c1.2,0,2,0.5,2.6,1.4h0v-1.2h1.5V401.4z M115,397c0-0.7-0.2-1.2-0.7-1.7s-1-0.7-1.7-0.7c-0.8,0-1.5,0.3-1.9,0.9
		c-0.5,0.6-0.7,1.5-0.7,2.5c0,0.9,0.2,1.7,0.7,2.2c0.4,0.6,1,0.9,1.8,0.9c0.7,0,1.4-0.3,1.8-0.8c0.5-0.5,0.7-1.2,0.7-2.1V397z"/>
	<path class="st6" d="M126.3,398.2h-6c0,0.9,0.3,1.6,0.8,2.1c0.5,0.5,1.1,0.8,2,0.8c1,0,1.9-0.3,2.7-0.9v1.4c-0.8,0.5-1.8,0.8-3,0.8
		c-1.3,0-2.2-0.4-2.9-1.2c-0.7-0.8-1.1-1.9-1.1-3.3c0-1.3,0.4-2.4,1.2-3.3c0.8-0.9,1.7-1.3,2.9-1.3c1.1,0,2,0.4,2.6,1.1
		c0.6,0.7,1,1.7,1,3.1V398.2z M124.8,397c0-0.8-0.2-1.4-0.6-1.8c-0.4-0.4-0.9-0.6-1.5-0.6c-0.6,0-1.1,0.2-1.6,0.7s-0.7,1-0.8,1.8
		H124.8z"/>
	<path class="st6" d="M127.9,400.3c0.8,0.6,1.6,0.8,2.5,0.8c1.2,0,1.8-0.4,1.8-1.2c0-0.3-0.1-0.6-0.4-0.8c-0.3-0.2-0.8-0.5-1.6-0.8
		c-1-0.4-1.6-0.8-1.9-1.1c-0.3-0.4-0.4-0.8-0.4-1.4c0-0.8,0.3-1.4,1-1.8s1.4-0.7,2.4-0.7c0.7,0,1.4,0.1,2,0.4v1.5
		c-0.6-0.4-1.4-0.6-2.2-0.6c-0.5,0-0.9,0.1-1.2,0.3c-0.3,0.2-0.5,0.5-0.5,0.8c0,0.3,0.1,0.6,0.3,0.8c0.2,0.2,0.7,0.4,1.5,0.7
		c1,0.4,1.6,0.7,2,1.1c0.3,0.4,0.5,0.9,0.5,1.4c0,0.8-0.3,1.4-1,1.9s-1.5,0.7-2.5,0.7c-0.9,0-1.7-0.2-2.3-0.5V400.3z"/>
</g>
<g class="st3">
	<path class="st6" d="M131.2,77v-8c0-0.7,0-1.5,0.1-2.4h0c-0.1,0.6-0.3,1-0.4,1.2l-4,9.2h-0.9l-4-9.1c-0.1-0.2-0.2-0.6-0.4-1.3h0
		c0.1,0.6,0.1,1.4,0.1,2.5V77h-1.5V64.9h2.1l3.6,8.3c0.3,0.6,0.5,1.1,0.5,1.5h0.1c0.3-0.7,0.5-1.3,0.6-1.5l3.6-8.3h2V77H131.2z"/>
	<path class="st6" d="M135.1,72.7c0-1.4,0.4-2.6,1.2-3.4s1.9-1.2,3.2-1.2c1.3,0,2.3,0.4,3.1,1.2c0.7,0.8,1.1,1.9,1.1,3.3
		c0,1.4-0.4,2.5-1.2,3.3c-0.8,0.8-1.8,1.3-3.2,1.3c-1.3,0-2.3-0.4-3.1-1.2C135.5,75.1,135.1,74.1,135.1,72.7z M136.7,72.7
		c0,1,0.3,1.8,0.8,2.4c0.5,0.6,1.2,0.9,2,0.9c0.9,0,1.5-0.3,2-0.8c0.5-0.6,0.7-1.4,0.7-2.4c0-1.1-0.2-1.9-0.7-2.4
		c-0.5-0.6-1.1-0.8-2-0.8c-0.9,0-1.5,0.3-2,0.9C136.9,70.9,136.7,71.7,136.7,72.7z"/>
	<path class="st6" d="M153.2,77h-1.5v-4.9c0-1.8-0.6-2.7-1.9-2.7c-0.7,0-1.2,0.3-1.7,0.8c-0.4,0.5-0.6,1.1-0.6,1.9V77h-1.5v-8.6h1.5
		v1.4h0c0.7-1.1,1.6-1.6,2.8-1.6c0.9,0,1.7,0.3,2.2,0.9c0.5,0.6,0.7,1.5,0.7,2.7V77z"/>
	<path class="st6" d="M159.9,76.9c-0.3,0.2-0.8,0.3-1.4,0.3c-1.5,0-2.3-0.9-2.3-2.6v-5h-1.5v-1.3h1.5v-2.1l1.5-0.5v2.6h2.1v1.3h-2.1
		v4.7c0,0.6,0.1,1,0.3,1.2c0.2,0.2,0.5,0.4,1,0.4c0.3,0,0.6-0.1,0.9-0.3V76.9z"/>
	<path class="st6" d="M169,77h-1.5v-5c0-1.7-0.6-2.6-1.9-2.6c-0.7,0-1.2,0.3-1.6,0.8s-0.7,1.1-0.7,1.9V77h-1.5V64.2h1.5v5.6h0
		c0.7-1.1,1.6-1.6,2.8-1.6c1.9,0,2.9,1.2,2.9,3.5V77z"/>
	<path class="st6" d="M171.5,77V64.2h1.5V77H171.5z"/>
	<path class="st6" d="M182.8,68.3l-3.9,9.9c-0.7,1.8-1.8,2.8-3.1,2.8c-0.4,0-0.7,0-1-0.1v-1.3c0.3,0.1,0.6,0.2,0.9,0.2
		c0.7,0,1.2-0.4,1.6-1.2l0.7-1.6l-3.4-8.6h1.7l2.3,6.5l0.2,0.7h0c0-0.2,0.1-0.4,0.2-0.7l2.4-6.5H182.8z"/>
	<path class="st6" d="M196.5,77H195v-1.4h0c-0.6,1.1-1.6,1.6-2.9,1.6c-1.1,0-2-0.4-2.6-1.2c-0.6-0.8-1-1.8-1-3.2
		c0-1.4,0.4-2.6,1.1-3.4c0.7-0.9,1.7-1.3,2.9-1.3c1.2,0,2,0.5,2.6,1.4h0v-5.3h1.5V77z M195,71.8c0-0.7-0.2-1.3-0.7-1.7
		c-0.5-0.5-1-0.7-1.7-0.7c-0.8,0-1.5,0.3-1.9,0.9s-0.7,1.4-0.7,2.5c0,1,0.2,1.7,0.7,2.3c0.5,0.6,1.1,0.8,1.8,0.8
		c0.7,0,1.3-0.3,1.8-0.8s0.7-1.2,0.7-2.1V71.8z"/>
	<path class="st6" d="M199.1,65.3c0-0.3,0.1-0.5,0.3-0.7c0.2-0.2,0.4-0.3,0.7-0.3c0.3,0,0.5,0.1,0.7,0.3c0.2,0.2,0.3,0.4,0.3,0.7
		c0,0.3-0.1,0.5-0.3,0.7c-0.2,0.2-0.4,0.3-0.7,0.3c-0.3,0-0.5-0.1-0.7-0.3C199.1,65.8,199.1,65.5,199.1,65.3z M199.2,77v-8.6h1.5V77
		H199.2z"/>
	<path class="st6" d="M210.5,68.3L207,77h-1.5l-3.3-8.6h1.7l2.1,6.2c0.2,0.5,0.3,0.9,0.3,1.2h0c0.1-0.4,0.1-0.8,0.3-1.2l2.2-6.2
		H210.5z"/>
	<path class="st6" d="M211.7,65.3c0-0.3,0.1-0.5,0.3-0.7c0.2-0.2,0.4-0.3,0.7-0.3c0.3,0,0.5,0.1,0.7,0.3c0.2,0.2,0.3,0.4,0.3,0.7
		c0,0.3-0.1,0.5-0.3,0.7c-0.2,0.2-0.4,0.3-0.7,0.3c-0.3,0-0.5-0.1-0.7-0.3C211.8,65.8,211.7,65.5,211.7,65.3z M211.9,77v-8.6h1.5V77
		H211.9z"/>
	<path class="st6" d="M223.7,77h-1.5v-1.4h0c-0.6,1.1-1.6,1.6-2.9,1.6c-1.1,0-2-0.4-2.6-1.2c-0.6-0.8-1-1.8-1-3.2
		c0-1.4,0.4-2.6,1.1-3.4c0.7-0.9,1.7-1.3,2.9-1.3c1.2,0,2,0.5,2.6,1.4h0v-5.3h1.5V77z M222.1,71.8c0-0.7-0.2-1.3-0.7-1.7
		c-0.5-0.5-1-0.7-1.7-0.7c-0.8,0-1.5,0.3-1.9,0.9s-0.7,1.4-0.7,2.5c0,1,0.2,1.7,0.7,2.3c0.5,0.6,1.1,0.8,1.8,0.8
		c0.7,0,1.3-0.3,1.8-0.8s0.7-1.2,0.7-2.1V71.8z"/>
	<path class="st6" d="M233.4,73h-6c0,0.9,0.3,1.6,0.8,2.1c0.5,0.5,1.1,0.8,2,0.8c1,0,1.9-0.3,2.7-0.9v1.4c-0.8,0.5-1.8,0.8-3,0.8
		c-1.3,0-2.2-0.4-2.9-1.2c-0.7-0.8-1.1-1.9-1.1-3.3c0-1.3,0.4-2.4,1.2-3.3c0.8-0.9,1.7-1.3,2.9-1.3c1.1,0,2,0.4,2.6,1.1
		c0.6,0.7,1,1.7,1,3.1V73z M231.9,71.8c0-0.8-0.2-1.4-0.6-1.8c-0.4-0.4-0.9-0.6-1.5-0.6c-0.6,0-1.1,0.2-1.6,0.7s-0.7,1-0.8,1.8
		H231.9z"/>
	<path class="st6" d="M242.8,77h-1.5v-4.9c0-1.8-0.6-2.7-1.9-2.7c-0.7,0-1.2,0.3-1.7,0.8c-0.4,0.5-0.6,1.1-0.6,1.9V77h-1.5v-8.6h1.5
		v1.4h0c0.7-1.1,1.6-1.6,2.8-1.6c0.9,0,1.7,0.3,2.2,0.9c0.5,0.6,0.7,1.5,0.7,2.7V77z"/>
	<path class="st6" d="M252.8,77h-1.5v-1.4h0c-0.6,1.1-1.6,1.6-2.9,1.6c-1.1,0-2-0.4-2.6-1.2c-0.6-0.8-1-1.8-1-3.2
		c0-1.4,0.4-2.6,1.1-3.4c0.7-0.9,1.7-1.3,2.9-1.3c1.2,0,2,0.5,2.6,1.4h0v-5.3h1.5V77z M251.3,71.8c0-0.7-0.2-1.3-0.7-1.7
		c-0.5-0.5-1-0.7-1.7-0.7c-0.8,0-1.5,0.3-1.9,0.9s-0.7,1.4-0.7,2.5c0,1,0.2,1.7,0.7,2.3c0.5,0.6,1.1,0.8,1.8,0.8
		c0.7,0,1.3-0.3,1.8-0.8s0.7-1.2,0.7-2.1V71.8z"/>
</g>
</svg>
