<?xml version="1.0" encoding="utf-8"?>
<!-- Generator: Adobe Illustrator 22.1.0, SVG Export Plug-In . SVG Version: 6.00 Build 0)  -->
<svg version="1.1" id="img" xmlns="http://www.w3.org/2000/svg" xmlns:xlink="http://www.w3.org/1999/xlink" x="0px" y="0px"
	 viewBox="0 0 358 764" style="enable-background:new 0 0 358 764;" xml:space="preserve">
<style type="text/css">
	.st0{fill:#57595B;}
	.st1{enable-background:new    ;}
	.st2{fill:#00AB9F;}
	.st3{fill:#100E19;}
	.st4{fill:#FCFCFC;}
	.st5{fill:#F5F5F5;}
	.st6{fill:#F2F2F2;}
	.st7{fill:#E6E8E9;}
	.st8{fill:#636363;}
</style>
<rect id="矩形_49" x="179" y="196" class="st0" width="1" height="80"/>
<rect id="矩形_49_拷贝_2" x="179" y="483" class="st0" width="1" height="80"/>
<g id="跨链-2" class="st1">
	<path class="st2" d="M157.1,135.2h1.2v8.9c0.3-0.1,0.6-0.1,1.1-0.2c0.4-0.1,0.7-0.1,0.9-0.2v-10.8h-3.2v-7.1h6.5v7.1h-2.1v3.9h2.5
		v1.1h-2.5v5.5c0.4-0.1,0.9-0.2,1.6-0.3c0.7-0.1,1.2-0.3,1.6-0.3c0,0.2,0,0.3,0,0.5c0,0.3,0,0.5,0,0.7c-2.4,0.4-5.3,1.1-8.7,1.8
		l-0.3-1.3c0.4-0.1,0.9-0.2,1.3-0.2V135.2z M158.3,126.9v4.9h4.2v-4.9H158.3z M165,127.4h4.7c0.4-0.9,0.8-1.9,1.2-3l1.2,0.3
		c-0.4,1-0.7,1.9-1.1,2.7h6.8v1.1h-4.7c1.3,2.1,3.1,3.6,5.4,4.7c-0.1,0.2-0.4,0.5-0.6,0.9c0,0.1-0.1,0.1-0.1,0.2
		c-2.8-1.4-4.7-3.4-5.9-5.8h-1.4c-1.1,2.2-3,4.2-5.7,6.1c-0.2-0.3-0.5-0.6-0.9-1c2.4-1.6,4.2-3.3,5.2-5.1H165V127.4z M164.6,136.2
		h13.5v1.1h-9.5l-0.7,2.7h8.5c-0.1,1.6-0.2,2.8-0.3,3.8c-0.1,1.9-1.2,2.8-3.2,2.8c-1,0-2.2,0-3.5,0c0-0.4-0.1-0.8-0.3-1.3
		c0.9,0,1.6,0.1,2.2,0.1c0.3,0,0.6,0,0.8,0c0.2,0,0.5,0,0.6,0c1.4,0,2.1-0.6,2.2-1.7c0.1-0.8,0.2-1.7,0.3-2.6h-8.8l1-3.8h-2.7V136.2
		z M167.8,132.7h7v1.1h-7V132.7z"/>
	<path class="st2" d="M179.7,132.3c1.4-2.1,2.5-4.7,3.3-7.8l1.2,0.3c-0.4,1.4-0.8,2.6-1.1,3.4h4v1.1h-4.5c-0.5,1.1-1.1,2.4-2,3.8
		C180.3,132.8,180,132.6,179.7,132.3z M179.8,137h3v-3.4h-1.5v-1.1h4.9v1.1H184v3.4h3.1v1.1H184v5.7l2.7-2.6l0.3,1.3
		c-1.1,1-2.1,2-3,2.8c-0.3,0.2-0.6,0.6-0.9,1l-0.9-1c0.2-0.3,0.4-0.6,0.5-0.9c0.1-0.3,0.1-0.7,0.1-1.2v-5.1h-3V137z M195.8,145.1
		c1.1,0,2.2,0,3.4,0c1.1,0,2.2,0,3.4,0c-0.2,0.4-0.3,0.9-0.4,1.3c-1.7,0-3.8,0-6.5-0.1c-2.5,0-4.4-0.9-5.7-2.7
		c-0.8,0.9-1.6,1.9-2.4,3.2l-1-0.9c0.5-0.7,1.4-1.7,2.5-3.1c0.1-0.2,0.3-0.3,0.3-0.4v-8.3h-1.9V133h3v9.5
		C191.7,144.3,193.5,145.1,195.8,145.1z M189.8,129.9c-0.4-1.3-0.9-2.9-1.6-4.7l1.1-0.3c0.8,1.9,1.4,3.5,1.8,4.7L189.8,129.9z
		 M192.1,139.3h5.2v-3.5h-4.4v-1.4c0.7-1.6,1.4-3.5,2-5.6h-2.4v-1.1h2.7c0.3-1.1,0.6-2.2,0.9-3.3l1.2,0.2c-0.3,1.2-0.6,2.2-0.9,3
		h5.6v1.1h-6c-0.7,2.1-1.4,4.1-2.1,5.9h3.2v-4.2h1.2v4.2h3.2v1.1h-3.2v3.5h3.9v1.1h-3.9v3.7h-1.2v-3.7h-5.2V139.3z"/>
</g>
<g id="资产跨链_信息跨链_" class="st1">
	<path class="st3" d="M96.8,169.9c1.6-1.1,3.2-2.3,4.7-3.5c0.1,0.2,0.2,0.5,0.5,1c-1.5,1.1-3,2.3-4.5,3.5L96.8,169.9z M105.8,173.6
		h1c0,0.7-0.1,1.4-0.2,2.1c0,0,0,0.1,0,0.2c0,0.2-0.1,0.4-0.1,0.5c2.6,1,5.4,2.1,8.3,3.3l-0.6,1c-3-1.4-5.8-2.5-8.2-3.4
		c-0.9,1.5-3.6,2.7-8.1,3.5c-0.2-0.4-0.3-0.7-0.6-1.1c5.2-0.6,7.9-2,8.3-4.1C105.8,175,105.8,174.3,105.8,173.6z M100.8,165.3
		c-1-0.8-2-1.6-3.1-2.3l0.7-0.8c0.9,0.7,2,1.4,3.1,2.3L100.8,165.3z M99.7,171.4h13v5.7h-1v-4.7h-11v4.7h-1V171.4z M102.8,170.7
		c-0.2-0.4-0.4-0.7-0.6-1c4-0.9,6.1-2.6,6.3-5.2h-3.1c-0.5,0.9-1.2,1.8-2,2.7c-0.3-0.3-0.6-0.5-0.8-0.7c1.4-1.4,2.4-2.9,3.1-4.7
		l1,0.3c-0.2,0.6-0.5,1.1-0.7,1.6h8.9v1l-1.2,2.4c-0.3-0.1-0.6-0.3-1-0.4l1.1-2.1h-4.2c0,0.2-0.1,0.4-0.1,0.6c1,2.6,3,4.1,6.1,4.7
		c-0.2,0.3-0.4,0.7-0.6,1c-3.1-0.9-5-2.4-5.9-4.5C108.5,168.2,106.4,169.7,102.8,170.7z"/>
	<path class="st3" d="M118.7,169.8h9.4c0.8-1.2,1.5-2.4,2.3-3.8l1,0.5c-0.7,1-1.4,2.1-2.2,3.2h5.7v1h-15.2v1.5
		c0.1,3.5-0.7,6.3-2.3,8.4c-0.3-0.3-0.6-0.6-0.9-0.8c0.8-1,1.3-2,1.6-3.2c0.3-1.1,0.5-2.6,0.5-4.5V169.8z M125.6,162.2l1.1-0.3
		c0.3,0.9,0.6,1.6,0.8,2.3h8v1h-18.4v-1h9.2c-0.1-0.4-0.3-1-0.6-1.8C125.7,162.3,125.7,162.2,125.6,162.2z M121.5,166.5l0.9-0.6
		c0.6,0.7,1.3,1.7,2.2,2.9l-1,0.6C123,168.4,122.2,167.4,121.5,166.5z"/>
	<path class="st3" d="M137.8,170.9h1v7.4c0.2,0,0.5-0.1,0.9-0.2c0.4-0.1,0.6-0.1,0.8-0.2v-9h-2.7V163h5.4v5.9h-1.8v3.3h2.1v0.9h-2.1
		v4.6c0.3-0.1,0.7-0.2,1.3-0.3c0.6-0.1,1-0.2,1.3-0.3c0,0.1,0,0.3,0,0.4c0,0.2,0,0.4,0,0.6c-2,0.4-4.4,0.9-7.2,1.5l-0.2-1.1
		c0.4-0.1,0.7-0.1,1.1-0.2V170.9z M138.8,163.9v4.1h3.5v-4.1H138.8z M144.4,164.4h3.9c0.4-0.7,0.7-1.5,1-2.5l1,0.2
		c-0.3,0.8-0.6,1.6-0.9,2.2h5.6v0.9h-3.9c1,1.7,2.5,3,4.5,3.9c-0.1,0.1-0.3,0.4-0.5,0.8c0,0.1-0.1,0.1-0.1,0.1
		c-2.3-1.2-3.9-2.8-4.9-4.8H149c-0.9,1.8-2.5,3.5-4.7,5.1c-0.2-0.2-0.4-0.5-0.7-0.8c2-1.3,3.5-2.7,4.3-4.2h-3.4V164.4z M144.1,171.7
		h11.2v0.9h-7.9l-0.6,2.2h7.1c-0.1,1.3-0.2,2.4-0.3,3.2c-0.1,1.6-1,2.3-2.7,2.3c-0.9,0-1.8,0-2.9,0c0-0.3-0.1-0.7-0.3-1.1
		c0.8,0,1.4,0.1,1.8,0.1c0.2,0,0.5,0,0.7,0c0.2,0,0.4,0,0.5,0c1.2,0,1.8-0.5,1.8-1.5c0.1-0.7,0.2-1.4,0.2-2.1h-7.3l0.9-3.1h-2.2
		V171.7z M146.8,168.8h5.9v0.9h-5.9V168.8z"/>
	<path class="st3" d="M156.6,168.4c1.2-1.8,2.1-3.9,2.7-6.5l1,0.2c-0.4,1.2-0.7,2.1-0.9,2.8h3.3v0.9H159c-0.4,0.9-0.9,2-1.6,3.2
		C157.2,168.9,156.9,168.6,156.6,168.4z M156.8,172.3h2.5v-2.8H158v-0.9h4.1v0.9h-1.9v2.8h2.6v0.9h-2.6v4.7l2.3-2.2l0.2,1.1
		c-0.9,0.9-1.8,1.6-2.5,2.3c-0.2,0.2-0.5,0.5-0.8,0.8l-0.7-0.8c0.2-0.3,0.3-0.5,0.4-0.8c0.1-0.2,0.1-0.6,0.1-1v-4.2h-2.5V172.3z
		 M170.1,179.1c0.9,0,1.9,0,2.8,0c0.9,0,1.9,0,2.8,0c-0.2,0.4-0.3,0.7-0.3,1.1c-1.4,0-3.2,0-5.4-0.1c-2.1,0-3.6-0.7-4.8-2.3
		c-0.7,0.7-1.3,1.6-2,2.7l-0.8-0.7c0.5-0.6,1.2-1.5,2.1-2.6c0.1-0.1,0.2-0.3,0.3-0.3V170h-1.6V169h2.5v7.9
		C166.7,178.4,168.1,179.1,170.1,179.1z M165.1,166.4c-0.3-1.1-0.8-2.4-1.4-3.9l0.9-0.3c0.6,1.6,1.1,2.9,1.5,3.9L165.1,166.4z
		 M167,174.3h4.3v-2.9h-3.7v-1.2c0.6-1.4,1.2-2.9,1.7-4.7h-2v-0.9h2.3c0.3-0.9,0.5-1.8,0.7-2.7l1,0.2c-0.3,1-0.5,1.8-0.7,2.5h4.7
		v0.9h-5c-0.6,1.8-1.1,3.4-1.7,4.9h2.7v-3.5h1v3.5h2.7v0.9h-2.7v2.9h3.2v0.9h-3.2v3.1h-1v-3.1H167V174.3z"/>
	<path class="st3" d="M177.5,180.9h-0.8l1.6-5h1.1L177.5,180.9z"/>
	<path class="st3" d="M182,172.3c-0.2-0.4-0.3-0.8-0.5-1.1c1.8-2.7,3.2-5.7,4.2-9.2l1,0.3c-0.5,1.6-1.1,3.1-1.7,4.5v13.9h-1V169
		C183.3,170.3,182.7,171.4,182,172.3z M192.6,162.3l1-0.4c0.4,0.7,0.8,1.5,1.1,2.3l-0.9,0.4h6.6v1h-13.3v-1h6.5
		C193.2,163.6,192.9,162.9,192.6,162.3z M188.2,167.7h11.1v1h-11.1V167.7z M188.2,170.9h11.1v1h-11.1V170.9z M188.4,174.1h10.7v6.7
		h-1v-1.2h-8.6v1.2h-1V174.1z M189.4,175v3.6h8.6V175H189.4z"/>
	<path class="st3" d="M203.1,175.1l1,0.4c-0.6,1.6-1.2,2.9-1.7,4l-1-0.5C202.1,177.8,202.6,176.5,203.1,175.1z M204.1,163.8h4.8
		c0.2-0.7,0.4-1.4,0.5-2l1.1,0.2c0,0,0,0.1-0.1,0.2c-0.2,0.7-0.4,1.2-0.5,1.6h7.8v9.6h-13.6V163.8z M205.2,164.8v2h11.5v-2H205.2z
		 M205.2,167.7v2h11.5v-2H205.2z M205.2,170.6v2h11.5v-2H205.2z M206.1,175h1.1v2.7c0,0.6,0.1,1,0.4,1.2c0.2,0.2,0.7,0.3,1.4,0.3
		h4.1c1.1,0,1.8-0.4,2-1.1c0.1-0.4,0.2-1.1,0.4-2c0.4,0.2,0.8,0.3,1.1,0.4c-0.1,0.8-0.3,1.4-0.4,1.8c-0.3,1.3-1.2,2-2.9,1.9h-4.5
		c-1.8,0.1-2.7-0.8-2.6-2.5V175z M209.6,174.8l0.7-0.6c0.8,0.8,1.6,1.5,2.3,2.3l-0.8,0.7C211,176.3,210.3,175.5,209.6,174.8z
		 M217.3,175.5l0.8-0.6c0.8,0.9,1.7,1.9,2.6,3l-0.9,0.7C218.9,177.4,218.1,176.4,217.3,175.5z"/>
	<path class="st3" d="M222.6,170.9h1v7.4c0.2,0,0.5-0.1,0.9-0.2c0.4-0.1,0.6-0.1,0.8-0.2v-9h-2.7V163h5.4v5.9h-1.8v3.3h2.1v0.9h-2.1
		v4.6c0.3-0.1,0.7-0.2,1.3-0.3c0.6-0.1,1-0.2,1.3-0.3c0,0.1,0,0.3,0,0.4c0,0.2,0,0.4,0,0.6c-2,0.4-4.4,0.9-7.2,1.5l-0.2-1.1
		c0.4-0.1,0.7-0.1,1.1-0.2V170.9z M223.6,163.9v4.1h3.5v-4.1H223.6z M229.2,164.4h3.9c0.4-0.7,0.7-1.5,1-2.5l1,0.2
		c-0.3,0.8-0.6,1.6-0.9,2.2h5.6v0.9h-3.9c1,1.7,2.5,3,4.5,3.9c-0.1,0.1-0.3,0.4-0.5,0.8c0,0.1-0.1,0.1-0.1,0.1
		c-2.3-1.2-3.9-2.8-4.9-4.8h-1.1c-0.9,1.8-2.5,3.5-4.7,5.1c-0.2-0.2-0.4-0.5-0.7-0.8c2-1.3,3.5-2.7,4.3-4.2h-3.4V164.4z
		 M228.9,171.7h11.2v0.9h-7.9l-0.6,2.2h7.1c-0.1,1.3-0.2,2.4-0.3,3.2c-0.1,1.6-1,2.3-2.7,2.3c-0.9,0-1.8,0-2.9,0
		c0-0.3-0.1-0.7-0.3-1.1c0.8,0,1.4,0.1,1.8,0.1c0.2,0,0.5,0,0.7,0c0.2,0,0.4,0,0.5,0c1.2,0,1.8-0.5,1.8-1.5c0.1-0.7,0.2-1.4,0.2-2.1
		h-7.3l0.9-3.1h-2.2V171.7z M231.5,168.8h5.9v0.9h-5.9V168.8z"/>
	<path class="st3" d="M241.4,168.4c1.2-1.8,2.1-3.9,2.7-6.5l1,0.2c-0.4,1.2-0.7,2.1-0.9,2.8h3.3v0.9h-3.7c-0.4,0.9-0.9,2-1.6,3.2
		C242,168.9,241.7,168.6,241.4,168.4z M241.5,172.3h2.5v-2.8h-1.2v-0.9h4.1v0.9h-1.9v2.8h2.6v0.9h-2.6v4.7l2.3-2.2l0.2,1.1
		c-0.9,0.9-1.8,1.6-2.5,2.3c-0.2,0.2-0.5,0.5-0.8,0.8l-0.7-0.8c0.2-0.3,0.3-0.5,0.4-0.8c0.1-0.2,0.1-0.6,0.1-1v-4.2h-2.5V172.3z
		 M254.8,179.1c0.9,0,1.9,0,2.8,0c0.9,0,1.9,0,2.8,0c-0.2,0.4-0.3,0.7-0.3,1.1c-1.4,0-3.2,0-5.4-0.1c-2.1,0-3.6-0.7-4.8-2.3
		c-0.7,0.7-1.3,1.6-2,2.7l-0.8-0.7c0.5-0.6,1.2-1.5,2.1-2.6c0.1-0.1,0.2-0.3,0.3-0.3V170h-1.6V169h2.5v7.9
		C251.5,178.4,252.9,179.1,254.8,179.1z M249.9,166.4c-0.3-1.1-0.8-2.4-1.4-3.9l0.9-0.3c0.6,1.6,1.1,2.9,1.5,3.9L249.9,166.4z
		 M251.8,174.3h4.3v-2.9h-3.7v-1.2c0.6-1.4,1.2-2.9,1.7-4.7h-2v-0.9h2.3c0.3-0.9,0.5-1.8,0.7-2.7l1,0.2c-0.3,1-0.5,1.8-0.7,2.5h4.7
		v0.9h-5c-0.6,1.8-1.1,3.4-1.7,4.9h2.7v-3.5h1v3.5h2.7v0.9H257v2.9h3.2v0.9H257v3.1h-1v-3.1h-4.3V174.3z"/>
</g>
<g id="组_38">
	<path id="圆角矩形_1" class="st4" d="M131.4,62.8L180,50.3c2.1-0.4,4.2-0.4,6.2,0.2l40.8,13.2c1.8,0.6,2,1.5,0.5,2.1
		l-42.5,15.7c-2.5,0.8-5.1,0.8-7.6,0.1l-46.8-16.4C128.6,64.4,129,63.4,131.4,62.8z"/>
	<path id="圆角矩形_1_拷贝" class="st5" d="M130.4,88.8L179,76.3c2.1-0.4,4.2-0.4,6.2,0.2l40.8,13.2c1.8,0.6,2,1.5,0.5,2.1
		l-42.5,15.7c-2.5,0.8-5.1,0.8-7.6,0.1l-46.8-16.4C127.6,90.5,128,89.4,130.4,88.8z"/>
	<ellipse id="椭圆_11" class="st6" cx="181.5" cy="62.6" rx="22.5" ry="4.5"/>
	<path id="矩形_46" class="st7" d="M129.2,64.1l53.9,19v18l-53.9-19V64.1z"/>
	<path id="矩形_46_拷贝" class="st7" d="M228.9,65.1l-46.9,18v18l46.9-18V65.1z"/>
</g>
<g id="联盟链_2" class="st1">
	<path class="st2" d="M143.8,414.1h9.3v1.1h-1.5v13.6c0.2,0,0.5-0.1,0.9-0.2c0.5-0.1,0.9-0.2,1.2-0.2c0,0.3,0,0.5,0,0.7
		c0,0.2,0,0.3,0,0.5c-0.3,0-0.8,0.1-1.3,0.2c-0.4,0.1-0.6,0.1-0.8,0.1v5h-1.2v-4.8c-1.8,0.3-3.9,0.7-6.6,1.3l-0.2-1.3
		c0.6-0.1,1.2-0.2,1.7-0.3v-14.7h-1.5V414.1z M146.6,415.2v3.9h3.9v-3.9H146.6z M146.6,420.2v3.9h3.9v-3.9H146.6z M146.6,429.7
		c0.2,0,0.5-0.1,1-0.2c1.2-0.2,2.2-0.4,2.9-0.5v-3.8h-3.9V429.7z M153.1,423.4h5.5c0-0.7,0.1-1.4,0.1-2.1v-2.7h-4.8v-1.1h6
		c1.2-1.8,2.2-3.5,2.9-4.9l1.2,0.6c-0.9,1.5-1.9,2.9-2.8,4.3h4.1v1.1H160v2.7c0,0.8,0,1.5-0.1,2.1h6.3v1.1H160
		c0.9,4.1,3.1,7.2,6.4,9.1c-0.1,0.1-0.1,0.2-0.3,0.3c-0.3,0.3-0.5,0.6-0.7,0.8c-3.3-2.3-5.3-5.2-6-8.8c-0.6,3.6-2.6,6.6-6.1,9
		c-0.3-0.3-0.6-0.7-0.9-1c3.7-2.4,5.8-5.5,6.1-9.3h-5.4V423.4z M154.7,413.2l1.1-0.6c0.6,0.9,1.5,2.1,2.5,3.6l-1.1,0.7
		C156.5,415.9,155.7,414.7,154.7,413.2z"/>
	<path class="st2" d="M167.9,432.9h2.3v-6.2h17.7v6.2h2.3v1.1h-22.2V432.9z M169.4,413.6h7.3v10.5h-7.3V413.6z M170.6,414.7v3.6h4.9
		v-3.6H170.6z M170.6,423.1h4.9v-3.7h-4.9V423.1z M171.4,427.8v5.2h4.3v-5.2H171.4z M176.9,427.8v5.2h4.2v-5.2H176.9z M185.8,424.1
		c1.2,0.1,1.7-0.4,1.6-1.3v-1h-6.8c-0.3,1.5-1.2,2.8-2.6,4.1c-0.4-0.4-0.7-0.7-1-0.9c1.2-1,1.9-1.9,2.2-2.9c0.4-0.9,0.6-2.4,0.6-4.4
		v-4.2h8.9v9.4c0.1,1.6-0.8,2.3-2.6,2.3c-0.6,0-1.6,0-3,0c0-0.4-0.1-0.8-0.2-1.2C183.3,424.1,184.3,424.1,185.8,424.1z M180.9,418.1
		c0,1.1-0.1,2-0.2,2.6h6.7v-2.6H180.9z M180.9,414.5v2.6h6.5v-2.6H180.9z M186.6,427.8h-4.3v5.2h4.3V427.8z"/>
	<path class="st2" d="M191.5,420.1c1.4-2.1,2.5-4.7,3.3-7.8l1.2,0.3c-0.4,1.4-0.8,2.6-1.1,3.4h4v1.1h-4.5c-0.5,1.1-1.1,2.4-2,3.8
		C192.2,420.7,191.9,420.4,191.5,420.1z M191.7,424.8h3v-3.4h-1.5v-1.1h4.9v1.1h-2.3v3.4h3.1v1.1h-3.1v5.7l2.7-2.6l0.3,1.3
		c-1.1,1-2.1,2-3,2.8c-0.3,0.2-0.6,0.6-0.9,1l-0.9-1c0.2-0.3,0.4-0.6,0.5-0.9c0.1-0.3,0.1-0.7,0.1-1.2V426h-3V424.8z M207.7,433
		c1.1,0,2.2,0,3.4,0c1.1,0,2.2,0,3.4,0c-0.2,0.4-0.3,0.9-0.4,1.3c-1.7,0-3.8,0-6.5-0.1c-2.5,0-4.4-0.9-5.7-2.7
		c-0.8,0.9-1.6,1.9-2.4,3.2l-1-0.9c0.5-0.7,1.4-1.7,2.5-3.1c0.1-0.2,0.3-0.3,0.3-0.4V422h-1.9v-1.1h3v9.5
		C203.6,432.1,205.3,433,207.7,433z M201.7,417.8c-0.4-1.3-0.9-2.9-1.6-4.7l1.1-0.3c0.8,1.9,1.4,3.5,1.8,4.7L201.7,417.8z
		 M204,427.2h5.2v-3.5h-4.4v-1.4c0.7-1.6,1.4-3.5,2-5.6h-2.4v-1.1h2.7c0.3-1.1,0.6-2.2,0.9-3.3l1.2,0.2c-0.3,1.2-0.6,2.2-0.9,3h5.6
		v1.1h-6c-0.7,2.1-1.4,4.1-2.1,5.9h3.2v-4.2h1.2v4.2h3.2v1.1h-3.2v3.5h3.9v1.1h-3.9v3.7h-1.2v-3.7H204V427.2z"/>
</g>
<g id="零知识证明_多链业务隔离非中心工作流" class="st1">
	<path class="st3" d="M25.1,462.7c-3.7-1.2-6.7-2.6-8.9-4.3c-2.3,1.8-5.2,3.3-8.9,4.6c-0.2-0.4-0.4-0.7-0.6-0.9
		c3.9-1.2,7-2.7,9.1-4.5h1.4c-0.1,0-0.1,0.1-0.3,0.2c-0.1,0.1-0.1,0.1-0.1,0.1c2.4,1.7,5.3,3,8.8,3.9
		C25.5,462,25.3,462.3,25.1,462.7z M7.7,453h8.1v-1.6H8.3v-0.8h15.5v0.8h-7.1v1.6h8.1v3.1h-1v-2.3h-7.1v2.8h-1v-2.8H8.7v2.3h-1V453z
		 M10,457.1h3.9v0.8H10V457.1z M10.2,455.1h3.6v0.8h-3.6V455.1z M11.6,465.9l0.5-0.8c0.2,0.1,0.6,0.2,1,0.3c1.4,0.4,2.4,0.8,3.2,1
		l4.5-2.7H10.3v-0.8H22v1l-4.7,3c0.4,0.1,0.9,0.3,1.7,0.6c0.3,0.1,0.6,0.2,0.8,0.3l-0.5,0.9C16.7,467.6,14.1,466.7,11.6,465.9z
		 M14.9,460.7l0.7-0.6c0.7,0.6,1.3,1.2,1.8,1.8l-0.8,0.6C16,461.9,15.5,461.3,14.9,460.7z M18.6,455.1h3.6v0.8h-3.6V455.1z
		 M18.6,457.1h3.9v0.8h-3.9V457.1z"/>
	<path class="st3" d="M27.7,456.5c-0.3-0.2-0.6-0.3-1-0.5c1-1.8,1.7-3.9,2.3-6.3l1,0.2c-0.2,0.8-0.5,1.7-0.8,2.5h6v1h-3.1
		c0,1.9-0.1,3.6-0.1,4.9h3.6v1H32c-0.1,0.9-0.2,1.8-0.4,2.6l0.7-0.5c1.3,1.5,2.5,2.8,3.6,4.1l-0.9,0.7c-1.3-1.7-2.4-3-3.4-4.1
		c-0.6,2.3-2,4.4-4.1,6.2c-0.3-0.3-0.6-0.6-0.9-0.8c2.7-2.2,4.2-5,4.4-8.2h-4.1v-1H31c0.1-1.3,0.1-2.9,0.1-4.9h-2.2
		C28.6,454.5,28.2,455.5,27.7,456.5z M37,451.8h7.9v15.8h-1.1v-1.9h-5.7v1.9H37V451.8z M38.1,452.8v11.9h5.7v-11.9H38.1z"/>
	<path class="st3" d="M50.2,464.9c0.8-0.6,1.8-1.4,3-2.3l0.2,1.2c-1.2,0.9-2.3,1.7-3.2,2.5c-0.3,0.3-0.6,0.5-0.7,0.7l-0.8-0.9
		c0.4-0.4,0.6-1,0.6-1.7v-7h-2.5v-1h3.5V464.9z M51.1,454.2c-0.9-1.1-1.9-2.2-2.9-3.2l0.8-0.7c1.4,1.5,2.4,2.5,2.9,3.2L51.1,454.2z
		 M56.5,462.2l1,0.6c-1.5,2.2-3,4.1-4.5,5.7l-0.9-0.7C53.7,466.1,55.2,464.3,56.5,462.2z M54.1,451.2h10.2v9.3H54.1V451.2z
		 M55.2,452.1v7.4h8v-7.4H55.2z M60.6,462.8l0.8-0.6c1.3,1.6,2.7,3.4,4.2,5.4l-1,0.7C63.6,466.7,62.2,464.9,60.6,462.8z"/>
	<path class="st3" d="M70.2,464.4c0.5-0.5,1.3-1.3,2.3-2.3c0.1,0.5,0.2,0.9,0.3,1.2c-1.2,1.2-2.3,2.3-3.3,3.4l-0.8-0.9
		c0.2-0.3,0.4-0.6,0.4-0.9c0.1-0.3,0.1-0.7,0.1-1.2v-6.5h-2.4v-1h3.4V464.4z M68.9,450.4c0.8,0.7,1.7,1.7,2.9,3l-0.9,0.7
		c-0.7-0.8-1.6-1.8-2.8-3.1L68.9,450.4z M72.7,451.9v-1h12.6v1h-5.3v6.2h4.6v1h-4.6v7.4h5.6v1h-14v-1h2.7v-10.8h1.1v10.8H79v-14.6
		H72.7z"/>
	<path class="st3" d="M87.9,451.3h5.8v12.9h-4.8v1.7h-1V451.3z M88.9,452.3v4.9h3.8v-4.9H88.9z M88.9,463.3h3.8v-5.1h-3.8V463.3z
		 M101.8,467.4c1.1,0,1.7-0.5,1.6-1.5v-4H97c-0.3,2.5-1.5,4.7-3.7,6.7c-0.3-0.3-0.6-0.6-0.9-0.8c1.6-1.4,2.6-2.8,3.1-4.2
		c0.5-1.3,0.8-3.4,0.7-6.3v-6.7h8.2V466c0,0.1,0,0.2,0,0.3c0,1.4-0.8,2.1-2.5,2.1c-0.4,0-0.9,0-1.3,0.1c-0.2,0-0.4,0-0.6,0
		c-0.2,0-0.4,0-0.7,0c0-0.3-0.1-0.7-0.2-1.1C99.8,467.4,100.7,467.4,101.8,467.4z M97.3,457.4c0,1.3-0.1,2.5-0.2,3.5h6.3v-4.2h-6.1
		V457.4z M97.3,451.7v4.1h6.1v-4.1H97.3z"/>
	<path class="st3" d="M107.5,468.8h-0.8l1.6-5h1.1L107.5,468.8z"/>
	<path class="st3" d="M121,449.5l1.1,0.3c-0.8,0.8-1.5,1.4-2.1,1.8h8.8v1c-3.8,3.5-9.2,6-16.3,7.8c-0.2-0.4-0.4-0.7-0.5-1
		c6.6-1.6,11.8-3.8,15.3-6.8h-8.6c0,0-0.1,0.1-0.1,0.1c-0.4,0.3-0.7,0.5-0.9,0.6c1.1,0.7,2.2,1.4,3.2,2.1l-0.8,0.8
		c-1.2-0.9-2.3-1.7-3.3-2.4c-1,0.6-2.1,1.2-3.2,1.7c-0.2-0.3-0.4-0.6-0.6-0.9C116.1,453.3,118.7,451.6,121,449.5z M123.2,457.1
		l0.9,0.6c0,0-0.1,0.1-0.2,0.1c-0.8,0.6-1.3,1.1-1.7,1.4h7.3v1.1c-3.8,4.3-9.4,7-16.9,8.3c-0.1-0.4-0.3-0.7-0.5-1
		c7-1.1,12.3-3.6,16-7.4h-7.3c-0.6,0.4-1.2,0.8-1.8,1.2c0.9,0.6,1.9,1.3,3.1,2.2l-0.8,0.8c-1.1-0.9-2.2-1.7-3.2-2.4
		c-1.4,0.7-2.8,1.4-4.3,2c-0.2-0.4-0.5-0.7-0.7-1C117.2,461.5,120.5,459.6,123.2,457.1z"/>
	<path class="st3" d="M131.4,456.3c1.2-1.8,2.1-3.9,2.7-6.5l1,0.2c-0.4,1.2-0.7,2.1-0.9,2.8h3.3v0.9h-3.7c-0.4,0.9-0.9,2-1.6,3.2
		C132,456.7,131.7,456.5,131.4,456.3z M131.5,460.2h2.5v-2.8h-1.2v-0.9h4.1v0.9h-1.9v2.8h2.6v0.9h-2.6v4.7l2.3-2.2l0.2,1.1
		c-0.9,0.9-1.8,1.6-2.5,2.3c-0.2,0.2-0.5,0.5-0.8,0.8l-0.7-0.8c0.2-0.3,0.3-0.5,0.4-0.8c0.1-0.2,0.1-0.6,0.1-1v-4.2h-2.5V460.2z
		 M144.8,467c0.9,0,1.9,0,2.8,0c0.9,0,1.9,0,2.8,0c-0.2,0.4-0.3,0.7-0.3,1.1c-1.4,0-3.2,0-5.4-0.1c-2.1,0-3.6-0.7-4.8-2.3
		c-0.7,0.7-1.3,1.6-2,2.7l-0.8-0.7c0.5-0.6,1.2-1.5,2.1-2.6c0.1-0.1,0.2-0.3,0.3-0.3v-6.9h-1.6v-0.9h2.5v7.9
		C141.5,466.2,142.9,467,144.8,467z M139.9,454.3c-0.3-1.1-0.8-2.4-1.4-3.9l0.9-0.3c0.6,1.6,1.1,2.9,1.5,3.9L139.9,454.3z
		 M141.8,462.1h4.3v-2.9h-3.7v-1.2c0.6-1.4,1.2-2.9,1.7-4.7h-2v-0.9h2.3c0.3-0.9,0.5-1.8,0.7-2.7l1,0.2c-0.3,1-0.5,1.8-0.7,2.5h4.7
		v0.9h-5c-0.6,1.8-1.1,3.4-1.7,4.9h2.7v-3.5h1v3.5h2.7v0.9H147v2.9h3.2v0.9H147v3.1h-1v-3.1h-4.3V462.1z"/>
	<path class="st3" d="M162.9,450.1h1.1v16.2h6.4v1h-18.9v-1h6.3v-16.2h1.1v16.2h3.9V450.1z M155.3,462c-0.8-2.3-1.7-4.8-2.9-7.6
		l1-0.3c1,2.3,1.9,4.8,3,7.6L155.3,462z M166.3,462l-1-0.5c1.1-2.1,2.1-4.7,3.2-7.6l1.1,0.4C168.5,457.2,167.4,459.8,166.3,462z"/>
	<path class="st3" d="M189.8,459.4c-3.7-0.4-6.6-1.1-8.7-2.1c-2.1,1-5.2,1.8-9.1,2.4c-0.1-0.2-0.3-0.6-0.6-1
		c3.5-0.5,6.4-1.2,8.5-2.1c-1.4-0.8-2.7-2-3.9-3.5c-1,1.1-2.2,2.1-3.4,3.1c-0.3-0.3-0.5-0.6-0.8-0.8c2.3-1.7,4.3-3.6,5.8-5.9l1,0.4
		c-0.2,0.3-0.5,0.7-0.9,1.2c-0.1,0.1-0.2,0.2-0.2,0.3h10.3v1.1c-1.9,1.8-3.7,3.2-5.5,4.1c1.9,0.8,4.6,1.4,8,1.7
		C190.2,458.6,190,459,189.8,459.4z M173,461h5.6c0.1-0.6,0.1-1.3,0.2-2.1h1.1c0,0.6-0.1,1.3-0.2,2.1h8.1c0,1-0.1,2.2-0.3,3.7
		c-0.1,1.3-0.4,2.3-0.9,2.7c-0.5,0.5-1.4,0.8-2.6,0.8c-0.7,0-1.7,0-2.9,0c0-0.3-0.1-0.7-0.2-1.2c0.5,0,1.3,0.1,2.4,0.1
		c0.2,0,0.4,0,0.6,0c0.9,0,1.5-0.2,1.9-0.5c0.4-0.3,0.6-1,0.7-2c0.1-1,0.1-1.9,0.2-2.7h-7.1c-0.3,3.1-2.7,5.4-7,6.8
		c-0.2-0.3-0.5-0.6-0.8-0.9c4.2-1.3,6.4-3.2,6.7-5.8H173V461z M186.5,452.5h-9.7c1.4,1.6,2.8,2.8,4.4,3.6
		C182.9,455.3,184.7,454.1,186.5,452.5z"/>
	<path class="st3" d="M197.5,462c0,1.6-0.6,2.4-1.7,2.5c-0.5,0.1-1,0.1-1.3,0.1c-0.1-0.3-0.2-0.7-0.3-1.1c0.4,0,0.8,0,1.2,0
		c0.8,0,1.2-0.5,1.2-1.6c0.1-1.5-0.5-3.1-1.7-4.5l1.7-5.7h-3v16.9h-1v-17.9h5v1.1l-1.7,5.4C197,458.5,197.5,460.1,197.5,462z
		 M198.5,450.8H210v0.9h-11.5V450.8z M199.7,468.7h-1v-9.7h11v7.4c0,1.3-0.6,2-1.9,2.1c-0.4,0-1,0-1.7,0c-0.1-0.5-0.2-0.9-0.3-1.1
		c0.4,0,1,0,1.8,0c0.8,0,1.2-0.3,1.1-1.2v-6.4h-8.9V468.7z M199.8,453.3h8.6v4h-8.6V453.3z M200.8,463.3h3.8c0.6-1.1,1.2-2.1,1.6-3
		l1,0.4c-0.6,1-1.1,1.8-1.5,2.6h2v0.9h-3v4.2h-1v-4.2h-2.8V463.3z M200.9,454.2v2.2h6.6v-2.2H200.9z M201.1,460.8l0.8-0.4
		c0.5,0.7,1,1.5,1.5,2.3l-0.9,0.5C202.2,462.5,201.8,461.7,201.1,460.8z"/>
	<path class="st3" d="M211.8,451.6h9c-0.2-0.7-0.3-1.3-0.5-1.7l1.1-0.2c0,0.1,0.1,0.3,0.1,0.6c0.1,0.6,0.3,1,0.3,1.3h8.2v0.9h-18.3
		V451.6z M213.8,453.7h1v4.5h12.3v-4.5h1v5.4h-6.6c-0.2,0.4-0.5,1-0.9,1.8c0,0.1-0.1,0.1-0.1,0.2h8.3v5.3c0,1.3-0.6,2-1.8,2
		c-0.7,0-1.4,0-2.2,0c-0.1-0.3-0.2-0.7-0.3-1.1c0.6,0,1.3,0.1,2,0.1c0.5,0,0.8-0.1,1-0.3c0.2-0.2,0.3-0.5,0.3-1V462h-7.8
		c-0.7,1.2-1.4,2.2-1.9,2.9c1.4,0,3.2-0.1,5.3-0.2c-0.4-0.5-0.9-1-1.3-1.5l0.8-0.6c1.1,1.2,2.1,2.3,3,3.4l-0.9,0.7
		c-0.1-0.2-0.3-0.4-0.5-0.6c-0.1-0.2-0.2-0.3-0.3-0.4c-1.4,0-3.4,0.1-6,0.3c-0.4,0-0.9,0.1-1.4,0.2l-0.5-1c0.4-0.2,0.8-0.6,1.2-1.1
		c0.4-0.6,0.8-1.2,1.2-1.9h-4.8v6.6h-1v-7.5h6.4c0.4-0.7,0.7-1.4,1-2h-6.6V453.7z M216.3,453.9l0.4-0.8c0.2,0.1,0.5,0.2,0.9,0.3
		c1.6,0.6,2.8,1,3.6,1.3c1.4-0.6,2.6-1.1,3.7-1.7l0.5,0.8c-0.8,0.4-1.8,0.9-3.1,1.4c0.4,0.2,1,0.4,1.8,0.7c0.7,0.3,1.1,0.4,1.5,0.6
		l-0.5,0.8c-1.4-0.6-2.8-1.1-4.1-1.6c-1.5,0.6-3,1.2-4.7,1.7c-0.1-0.3-0.3-0.6-0.5-0.9c1.3-0.4,2.7-0.8,4-1.3
		c-0.3-0.1-0.8-0.3-1.4-0.5C217.5,454.4,216.8,454.1,216.3,453.9z"/>
	<path class="st3" d="M232.1,452.9h6v-3h1.1v18.7h-1.1v-4.3h-6.4v-1h6.4V459h-5.7v-1h5.7v-4.1h-6V452.9z M242.8,449.9h1.1v3h6.1v1
		h-6.1v4.1h5.8v1h-5.8v4.2h6.5v1h-6.5v4.3h-1.1V449.9z"/>
	<path class="st3" d="M252.8,454h7.6v-4.3h1.1v4.3h7.6v8.5h-1.1v-1.1h-6.6v7.3h-1.1v-7.3h-6.5v1.1h-1.1V454z M253.9,455v5.4h6.5V455
		H253.9z M268.1,455h-6.6v5.4h6.6V455z"/>
	<path class="st3" d="M273.6,455.7l1.1,0.3c-0.6,2.6-1.3,5.1-2,7.7c-0.4-0.2-0.8-0.3-1.2-0.4C272.4,460.8,273.1,458.3,273.6,455.7z
		 M276.6,453.5h1.1v11.3c0,0.7,0.1,1.3,0.4,1.5c0.3,0.3,0.8,0.4,1.6,0.4h3.8c1.4,0,2.2-0.5,2.4-1.7c0.1-0.7,0.2-1.6,0.3-2.7
		c0.5,0.2,0.9,0.3,1.2,0.4c-0.1,1.2-0.3,2.1-0.5,2.9c-0.3,1.5-1.4,2.3-3.2,2.2h-4.3c-1.9,0-2.8-0.9-2.8-2.8V453.5z M282.7,455.6
		c-1-1.8-2-3.6-3.2-5.4l1-0.5c1.1,1.6,2.1,3.4,3.3,5.3L282.7,455.6z M289.4,462.5c-1-2.3-2-4.6-3.2-6.9l1.1-0.5
		c1.2,2.4,2.3,4.7,3.3,6.8L289.4,462.5z"/>
	<path class="st3" d="M291.8,466.1h8.6v-13.5h-7.5v-1.1h16.2v1.1h-7.5v13.5h8.7v1.1h-18.4V466.1z"/>
	<path class="st3" d="M312.1,460.4c-0.2-0.4-0.5-0.8-0.6-1c1.9-2.7,3.4-5.9,4.6-9.6l1.1,0.3c-0.6,1.6-1.2,3.1-1.8,4.5v14h-1.1v-11.9
		C313.6,458,312.9,459.2,312.1,460.4z M317.7,458.3c-0.3-0.2-0.6-0.5-0.9-0.7c1.8-2.2,3.3-4.8,4.2-7.9l1.1,0.3
		c-0.4,0.9-0.8,1.9-1.2,2.9h9.5v1h-7.1v3.8h6.1v1h-6.1v3.9h6.6v1h-6.6v5h-1.1v-14.7h-1.8C319.7,455.4,318.8,456.9,317.7,458.3z"/>
	<path class="st3" d="M334.5,458.5c-0.8-0.8-1.8-1.6-3-2.5l0.7-0.7c1.2,0.9,2.2,1.7,3,2.4L334.5,458.5z M332,467.9
		c0.7-1.9,1.4-4.3,2.2-7.1c0.3,0.2,0.6,0.3,1,0.4c-0.9,2.8-1.6,5.2-2.1,7.1L332,467.9z M335.1,453.5c-0.9-0.8-1.8-1.7-2.9-2.6
		l0.7-0.7c0.9,0.7,1.9,1.5,3,2.5L335.1,453.5z M338.5,459.9h1c0,2.5-0.2,4.4-0.7,5.5c-0.4,1.2-1.3,2.2-2.7,3.2
		c-0.2-0.3-0.5-0.6-0.8-0.8c1.3-0.9,2.1-1.8,2.5-2.9C338.3,463.9,338.5,462.2,338.5,459.9z M348.8,459.4c-0.1-0.1-0.2-0.3-0.4-0.5
		c-0.3-0.3-0.5-0.6-0.6-0.8c-2,0-4.6,0.1-7.6,0.2c-0.5,0-0.8,0-1.1,0c-0.6,0-1.1,0.1-1.6,0.1l-0.5-1c0.4-0.2,0.8-0.5,1.2-0.8
		c1-0.8,2.1-2,3.4-3.5h-5v-1h6.5c-0.4-0.8-0.8-1.6-1.2-2.2l1-0.4c0.4,0.7,0.8,1.5,1.2,2.3l-0.7,0.3h6.4v1h-7.8l0.7,0.3
		c-1.3,1.4-2.6,2.7-4,3.9c2.4,0,5.1-0.1,8.1-0.2c-0.6-0.7-1.3-1.4-2-2.1l0.8-0.6c1.3,1.3,2.6,2.7,3.9,4.2L348.8,459.4z M342.2,459.9
		h1v8.3h-1V459.9z M345.9,459.8h1v6.3c0,0.7,0.3,1,1,1h0.5c0.5,0,0.8-0.3,0.9-1s0.2-1.4,0.2-2.4c0.3,0.1,0.6,0.2,1,0.3
		c-0.1,1-0.2,1.8-0.3,2.4c-0.2,1.1-0.7,1.6-1.7,1.6h-0.9c-1.2,0-1.8-0.6-1.8-1.8V459.8z"/>
</g>
<g id="组_37">
	<path id="圆角矩形_1_拷贝-2" class="st5" d="M130.2,376.7l48.7-12.5c2.1-0.4,4.2-0.4,6.2,0.2l40.9,13.2
		c1.8,0.6,2,1.5,0.5,2.1l-42.6,15.7c-2.5,0.8-5.1,0.8-7.6,0.1l-47-16.4C127.3,378.4,127.7,377.3,130.2,376.7z"/>
	<path id="圆角矩形_1-2" class="st4" d="M132,350.8l48.5-12.5c2.1-0.4,4.2-0.4,6.2,0.2l40.7,13.2c1.8,0.6,2,1.5,0.5,2.1
		l-42.4,15.6c-2.5,0.8-5.1,0.8-7.6,0.1l-46.8-16.4C129.2,352.4,129.6,351.4,132,350.8z"/>
	<ellipse id="椭圆_11-2" class="st6" cx="181.4" cy="350.5" rx="22.5" ry="4.5"/>
	<path id="矩形_46-2" class="st7" d="M128.9,352l54,19v18l-54-19V352z"/>
	<path id="矩形_46_拷贝-2" class="st7" d="M228.9,353l-47,18v18l47-18V353z"/>
</g>
<g id="公有链-2" class="st1">
	<path class="st2" d="M143.9,718.4c-0.3-0.3-0.6-0.7-1.1-1.1c3.5-2.6,6.1-5.8,7.9-9.8l1.3,0.5C150,712.1,147.3,715.6,143.9,718.4z
		 M162.8,728.9c-0.5-0.7-1.1-1.4-1.7-2.1c-5.3,0.1-9.7,0.3-13.3,0.6c-0.9,0.1-1.7,0.1-2.3,0.3l-0.7-1.4c0.6-0.3,1.2-0.7,1.7-1.2
		c2.3-2.6,4.4-5.6,6.4-9l1.4,0.7c-2.1,3.3-4.4,6.5-6.9,9.4c0.3,0,0.9,0,1.5,0c4.4-0.2,8.1-0.3,11.1-0.4c-0.9-1.2-2.3-2.7-3.9-4.7
		l1.1-0.8c2.1,2.5,4.4,5.1,6.7,7.9L162.8,728.9z M156.3,707.6l1.3-0.5c1.5,4.1,4.2,7.3,7.9,9.6c-0.4,0.5-0.8,0.9-1.1,1.2
		C160.6,715.1,157.9,711.7,156.3,707.6z"/>
	<path class="st2" d="M172.8,728.9h-1.3v-12.6c-1.1,1.2-2.4,2.5-3.9,3.9c-0.3-0.3-0.6-0.7-0.9-1c3.1-2.6,5.7-5.4,7.6-8.5h-6.7v-1.1
		h7.3c0.6-1.1,1.2-2.1,1.7-3.2l1.3,0.3c-0.6,1.2-1.1,2.2-1.5,2.9h12.7v1.1h-13.4c-0.6,1.1-1.3,2.1-2.1,3.2h12.8v11.9
		c0.1,1.8-0.8,2.7-2.8,2.7c-0.9,0-2,0-3.3,0c-0.1-0.5-0.2-1-0.3-1.3c0.9,0,2,0,3.3,0c0.7,0,1.1-0.1,1.4-0.4c0.3-0.2,0.4-0.7,0.4-1.3
		v-2.1h-12.3V728.9z M172.8,715v3.1h12.3V715H172.8z M172.8,719.2v3.2h12.3v-3.2H172.8z"/>
	<path class="st2" d="M190.7,714.1c1.4-2.1,2.5-4.7,3.3-7.8l1.2,0.3c-0.4,1.4-0.8,2.6-1.1,3.4h4v1.1h-4.5c-0.5,1.1-1.1,2.4-2,3.8
		C191.3,714.7,191,714.4,190.7,714.1z M190.8,718.8h3v-3.4h-1.5v-1.1h4.9v1.1H195v3.4h3.1v1.1H195v5.7l2.7-2.6l0.3,1.3
		c-1.1,1-2.1,2-3,2.8c-0.3,0.2-0.6,0.6-0.9,1l-0.9-1c0.2-0.3,0.4-0.6,0.5-0.9c0.1-0.3,0.1-0.7,0.1-1.2V720h-3V718.8z M206.8,727
		c1.1,0,2.2,0,3.4,0c1.1,0,2.2,0,3.4,0c-0.2,0.4-0.3,0.9-0.4,1.3c-1.7,0-3.8,0-6.5-0.1c-2.5,0-4.4-0.9-5.7-2.7
		c-0.8,0.9-1.6,1.9-2.4,3.2l-1-0.9c0.5-0.7,1.4-1.7,2.5-3.1c0.1-0.2,0.3-0.3,0.3-0.4V716h-1.9v-1.1h3v9.5
		C202.7,726.1,204.5,727,206.8,727z M200.8,711.8c-0.4-1.3-0.9-2.9-1.6-4.7l1.1-0.3c0.8,1.9,1.4,3.5,1.8,4.7L200.8,711.8z
		 M203.1,721.2h5.2v-3.5h-4.4v-1.4c0.7-1.6,1.4-3.5,2-5.6h-2.4v-1.1h2.7c0.3-1.1,0.6-2.2,0.9-3.3l1.2,0.2c-0.3,1.2-0.6,2.2-0.9,3
		h5.6v1.1h-6c-0.7,2.1-1.4,4.1-2.1,5.9h3.2v-4.2h1.2v4.2h3.2v1.1h-3.2v3.5h3.9v1.1h-3.9v3.7h-1.2v-3.7h-5.2V721.2z"/>
</g>
<g id="Vortex共识_WASM智能合约侧链机制_" class="st1">
	<path class="st3" d="M23.9,759.2h-0.8L17.6,744h1.2l4.4,12.2c0.2,0.5,0.3,1,0.4,1.4h0c0.1-0.4,0.2-0.8,0.4-1.5l4.6-12.2h1.1
		L23.9,759.2z"/>
	<path class="st3" d="M34.2,759.4c-1.6,0-2.8-0.5-3.7-1.6s-1.4-2.4-1.4-4c0-1.8,0.5-3.2,1.4-4.2s2.2-1.5,3.8-1.5
		c1.5,0,2.8,0.5,3.6,1.5s1.3,2.4,1.3,4.2c0,1.7-0.5,3-1.4,4.1S35.8,759.4,34.2,759.4z M34.3,749c-1.3,0-2.3,0.4-3,1.3
		s-1.1,2-1.1,3.6c0,1.4,0.4,2.5,1.1,3.4s1.7,1.3,3,1.3c1.3,0,2.3-0.4,3-1.3s1.1-2,1.1-3.5c0-1.5-0.4-2.7-1-3.5S35.6,749,34.3,749z"
		/>
	<path class="st3" d="M47.1,749.4c-0.3-0.2-0.7-0.4-1.1-0.4c-0.9,0-1.6,0.4-2.1,1.3s-0.9,2.1-0.9,3.8v5.1H42v-10.8h0.9v2.4h0
		c0.2-0.8,0.6-1.5,1.2-1.9s1.2-0.7,1.9-0.7c0.4,0,0.8,0.1,1.1,0.2V749.4z"/>
	<path class="st3" d="M54.4,759c-0.5,0.2-1,0.4-1.4,0.4c-1.6,0-2.4-1-2.4-2.9v-7.3h-1.9v-0.9h1.9v-2.8c0.1-0.1,0.3-0.1,0.5-0.2
		s0.3-0.1,0.5-0.2v3.1h2.9v0.9h-2.9v7.1c0,0.7,0.1,1.3,0.4,1.6s0.6,0.5,1.2,0.5c0.4,0,0.8-0.1,1.3-0.4V759z"/>
	<path class="st3" d="M56.7,753.8c0,1.5,0.3,2.6,1,3.5s1.6,1.3,2.8,1.3c1.2,0,2.4-0.4,3.5-1.3v1c-1.1,0.8-2.4,1.2-3.7,1.2
		c-1.4,0-2.5-0.5-3.4-1.5s-1.3-2.4-1.3-4.2c0-1.6,0.4-2.9,1.3-4s2.1-1.6,3.5-1.6c1.3,0,2.4,0.5,3.1,1.4s1.1,2.2,1.1,3.9v0.4H56.7z
		 M63.7,752.9c0-1.3-0.3-2.2-0.9-2.9s-1.3-1-2.3-1c-1,0-1.9,0.3-2.5,1s-1.1,1.7-1.2,2.9H63.7z"/>
	<path class="st3" d="M70.7,753.9l3.5,5.3H73l-2.9-4.6h0l-0.4,0.6c-0.1,0.1-0.1,0.2-0.2,0.3l-2.4,3.7H66l3.6-5.3l-3.5-5.5h1.1
		l2.4,3.9c0.3,0.5,0.5,0.8,0.6,0.9h0l0.5-0.9l2.5-3.9h1.1L70.7,753.9z"/>
	<path class="st3" d="M88,743h1.1v3.9h4.3v1h-4.3v5.8h5.1v1H75.4v-1h5.1v-5.8h-4.3v-1h4.3V743h1.1v3.9H88V743z M82,756.3l0.8,0.8
		c-2.3,1.6-4.4,3-6.5,4.2c-0.2-0.3-0.5-0.7-0.7-0.9C77.9,759.1,80,757.7,82,756.3z M81.5,747.8v5.8H88v-5.8H81.5z M86.6,757.1
		l0.7-0.8c2.3,1.4,4.4,2.8,6.3,4.1l-0.7,0.9C90.6,759.7,88.5,758.3,86.6,757.1z"/>
	<path class="st3" d="M98.8,757.9c0.8-0.6,1.8-1.4,3-2.3l0.2,1.2c-1.2,0.9-2.3,1.7-3.2,2.5c-0.3,0.3-0.6,0.5-0.7,0.7l-0.8-0.9
		c0.4-0.4,0.6-1,0.6-1.7v-7h-2.5v-1h3.5V757.9z M99.7,747.2c-0.9-1.1-1.9-2.2-2.9-3.2l0.8-0.7c1.4,1.5,2.4,2.5,2.9,3.2L99.7,747.2z
		 M105.1,755.2l1,0.6c-1.5,2.2-3,4.1-4.5,5.7l-0.9-0.7C102.3,759.1,103.7,757.3,105.1,755.2z M102.6,744.2h10.2v9.3h-10.2V744.2z
		 M103.7,745.1v7.4h8v-7.4H103.7z M109.1,755.8l0.8-0.6c1.3,1.6,2.7,3.4,4.2,5.4l-1,0.7C112.1,759.7,110.8,757.9,109.1,755.8z"/>
	<path class="st3" d="M116.1,761.8h-0.8l1.6-5h1.1L116.1,761.8z"/>
	<path class="st3" d="M133.9,759.2h-0.9l-3.4-11.4c-0.2-0.6-0.3-1.1-0.3-1.4h0c0,0.3-0.1,0.8-0.3,1.4l-3.6,11.4h-0.9l-4.5-15.1h1.2
		l3.4,12.1c0.2,0.5,0.3,1,0.3,1.3h0c0-0.3,0.2-0.7,0.4-1.3l3.7-12.1h0.5l3.4,12.1c0.2,0.6,0.3,1,0.3,1.3h0c0-0.2,0.1-0.4,0.2-0.7
		l3.5-12.8h1.1L133.9,759.2z"/>
	<path class="st3" d="M149.5,759.2l-1.7-4.7h-6.6l-1.7,4.7h-1.1L144,744h1l5.6,15.1H149.5z M144.8,746.5c-0.1-0.2-0.1-0.4-0.2-0.6
		c-0.1-0.2-0.1-0.4-0.2-0.5h0c-0.1,0.5-0.2,0.8-0.3,1.1l-2.5,7h5.8L144.8,746.5z"/>
	<path class="st3" d="M152.8,758.6v-1.2c1.1,0.7,2.2,1,3.3,1c1.2,0,2.1-0.2,2.7-0.7s0.9-1.2,0.9-2.1c0-0.8-0.2-1.4-0.6-1.9
		s-1.3-1.1-2.7-1.9c-1.5-0.9-2.5-1.6-2.9-2.2s-0.6-1.3-0.6-2.1c0-1.1,0.4-2,1.2-2.7s1.9-1.1,3.3-1.1c0.9,0,1.8,0.2,2.7,0.5v1.1
		c-0.9-0.4-1.8-0.6-2.8-0.6c-1,0-1.8,0.3-2.4,0.8s-0.9,1.2-0.9,2c0,0.8,0.2,1.4,0.6,1.8s1.3,1.1,2.7,1.9c1.4,0.8,2.4,1.5,2.8,2.1
		s0.7,1.3,0.7,2.1c0,1.2-0.4,2.1-1.2,2.8s-1.9,1.1-3.4,1.1c-0.5,0-1.1-0.1-1.8-0.2S153.1,758.8,152.8,758.6z"/>
	<path class="st3" d="M177.1,759.2v-10.7c0-0.3,0-1,0.1-2.2h0c-0.2,0.6-0.4,1-0.5,1.3l-5.4,11.6h-0.3l-5.4-11.6
		c-0.2-0.4-0.3-0.8-0.5-1.4h0c0.1,0.7,0.1,1.4,0.1,2v11h-1V744h1l5.6,12.2c0,0.1,0.1,0.2,0.1,0.3c0,0.1,0.1,0.2,0.1,0.4
		c0.1,0.2,0.1,0.4,0.2,0.6h0.1l0.1-0.3c0,0,0.1-0.4,0.4-1l5.6-12.1h0.9v15.1H177.1z"/>
	<path class="st3" d="M189.5,752.4c-1.5-1.2-2.7-2.1-3.7-2.7c-0.6,1.4-2.1,2.7-4.5,3.7c-0.2-0.3-0.4-0.6-0.6-0.9
		c2.5-1,4-2.2,4.5-3.7h-4.3v-0.9h4.5c0.1-0.7,0.2-1.5,0.2-2.4H183c-0.4,0.5-0.8,1.1-1.5,1.7c-0.3-0.3-0.5-0.5-0.7-0.7
		c1.2-1.1,2.1-2.4,2.7-3.9l0.9,0.2c-0.3,0.7-0.6,1.2-0.8,1.7h6.1v0.9h-3c0,1-0.1,1.8-0.2,2.4h3.8v0.9h-4.1c0,0,0,0.1,0,0.1
		c1.5,1,2.9,1.9,4,2.7L189.5,752.4z M183.8,753.1h12.6v8.5h-1v-0.9h-10.6v0.9h-1V753.1z M184.8,754.1v2.4h10.6v-2.4H184.8z
		 M184.8,757.4v2.4h10.6v-2.4H184.8z M191.3,744.3h7v7.1h-7V744.3z M192.3,745.2v5.2h5v-5.2H192.3z"/>
	<path class="st3" d="M209.8,749.2c-0.1-0.2-0.4-0.4-0.6-0.8c-0.2-0.2-0.3-0.3-0.4-0.4c-2.1,0.1-4.2,0.2-6.4,0.3
		c-0.5,0-1,0.1-1.4,0.2l-0.5-1c0.4-0.2,0.8-0.5,1.2-0.9c1.2-1.2,2.2-2.6,3.2-4l1,0.5c-1.2,1.6-2.5,3-3.7,4.3c1.3,0,3.3-0.1,5.8-0.3
		c-0.6-0.7-1.2-1.3-1.7-1.8l0.8-0.6c1.1,1.1,2.3,2.4,3.6,3.8L209.8,749.2z M202.7,761.4h-1v-11.2h7.4v9.1c0.1,1.3-0.6,1.9-1.8,1.9
		c-0.6,0-1.2,0-1.8,0c0-0.3-0.1-0.7-0.2-1c0.5,0,1.1,0.1,1.8,0.1c0.7,0,1.1-0.3,1.1-0.9v-2.2h-5.3V761.4z M202.7,751.1v2.2h5.3v-2.2
		H202.7z M202.7,754.2v2.2h5.3v-2.2H202.7z M211.5,752.4h1v3.4c2.1-0.8,4.1-1.7,5.9-2.8l0.6,0.9c-2.2,1.2-4.4,2.1-6.5,2.9v1.8
		c0,1,0.5,1.4,1.5,1.4h2.3c1,0,1.6-0.4,1.7-1.1c0.1-0.5,0.2-1.2,0.2-2.1c0.4,0.1,0.7,0.3,1,0.3c-0.1,0.8-0.2,1.5-0.3,2
		c-0.2,1.3-1.1,1.9-2.5,1.9h-2.6c-1.6,0-2.3-0.7-2.3-2.2V752.4z M211.6,742.8h1v3.7c2-0.7,3.8-1.6,5.5-2.6l0.6,0.9
		c-2,1-4.1,2-6.1,2.8v1.2c-0.1,0.9,0.4,1.4,1.5,1.3h2.2c1,0,1.5-0.4,1.7-1.2c0.1-0.6,0.2-1.3,0.3-2.1c0.3,0.1,0.7,0.3,1,0.4
		c-0.1,0.8-0.2,1.5-0.4,2c-0.3,1.3-1.1,1.9-2.5,1.9h-2.5c-1.6,0-2.4-0.7-2.3-2.1V742.8z"/>
	<path class="st3" d="M238.7,750.9c-3.8-1.8-6.7-4-8.6-6.5c-2,2.5-4.9,4.7-8.7,6.8c-0.2-0.3-0.4-0.6-0.7-1c4.2-2,7.3-4.5,9.4-7.5
		l1.2,0.2c-0.1,0.1-0.2,0.2-0.3,0.4c-0.1,0.1-0.2,0.2-0.2,0.3c2.2,2.7,5.1,4.8,8.7,6.3C239.1,750.2,238.9,750.5,238.7,750.9z
		 M223.4,753.3h13.2v8.3h-1.1v-1.3h-11v1.3h-1.1V753.3z M224.4,754.3v5h11v-5H224.4z M224.5,749.5h11v1h-11V749.5z"/>
	<path class="st3" d="M240.7,760.1l-0.2-1c2.5-0.3,5-0.7,7.6-1.1c0,0.3-0.1,0.7-0.1,1.1C246.1,759.3,243.6,759.6,240.7,760.1z
		 M242.7,754.6c2-0.2,3.6-0.4,4.7-0.5c-0.1,0.3-0.1,0.6-0.1,1c-2.8,0.3-4.7,0.5-5.7,0.7l-0.5-1c0.4-0.3,0.8-0.7,1.4-1.4
		c0.5-0.7,1.2-1.6,2.1-2.9c-1.7,0.1-3,0.1-3.7,0.2l-0.3-1.1c0.4-0.3,0.8-0.8,1.2-1.4c1.2-1.8,2.2-3.6,3-5.3l1.1,0.4
		c-1.3,2.3-2.6,4.4-4,6.4c0.2,0,0.5,0,1,0c1.1,0,1.8-0.1,2.3-0.1c0.5-0.8,1-1.7,1.6-2.6l1.1,0.4
		C246.2,749.9,244.5,752.3,242.7,754.6z M248.8,750.7c-0.4-0.2-0.7-0.4-1-0.6c1.6-2.1,2.9-4.5,3.9-7.3l1.1,0.3
		c-0.4,1-0.8,1.9-1.2,2.8h7.2c-0.1,3.8-0.2,7.7-0.4,11.9c0,2.2-1.2,3.3-3.5,3.3c-0.5,0-1,0-1.5,0c-0.3,0-0.5,0-0.8,0
		c-0.2,0-0.6,0-1,0c-0.1-0.4-0.2-0.8-0.3-1.2c0.8,0,2,0.1,3.6,0.1c1.7,0.1,2.5-0.7,2.5-2.4c0.2-3.6,0.3-7.1,0.4-10.7H251
		C250.2,748.4,249.5,749.6,248.8,750.7z M250.3,751.2l0.9-0.5c1.3,1.8,2.4,3.2,3.1,4.3l-0.9,0.6
		C252.4,754.1,251.4,752.6,250.3,751.2z"/>
	<path class="st3" d="M260.9,753c-0.1-0.3-0.2-0.6-0.3-0.9c0-0.1-0.1-0.2-0.1-0.3c1.7-2.7,2.9-5.7,3.7-9l1,0.3
		c-0.4,1.6-1,3.1-1.6,4.6v13.9h-1v-11.7C262,751.1,261.4,752.2,260.9,753z M268.7,746.9h1v4c0,2.8-0.2,4.8-0.7,6.1l0.5-0.5
		c1.9,1.6,3.3,2.7,4.1,3.5l-0.8,0.8c-1.1-1-2.4-2.2-3.9-3.5c-0.5,1.4-1.7,2.8-3.8,4.3c-0.3-0.3-0.5-0.6-0.7-0.8
		c1.9-1.3,3.1-2.5,3.5-3.7c0.5-1.1,0.8-3.1,0.8-6.1V746.9z M265.7,743.9h6.9v11.9h-1v-11h-5v11h-1V743.9z M277.6,742.8h1v16.1
		c0.1,1.5-0.6,2.3-1.9,2.3c-0.3,0-0.6,0-0.9,0c-0.1,0-0.3,0-0.5,0c-0.1,0-0.4,0-0.6,0c0-0.4-0.1-0.8-0.2-1.1c0.5,0,1.1,0.1,1.7,0.1
		c0.6,0,0.9-0.1,1.1-0.3c0.2-0.2,0.3-0.6,0.3-1.3V742.8z M275.5,756.9h-1v-12.5h1V756.9z"/>
	<path class="st3" d="M280.4,749.3c1.2-1.8,2.1-3.9,2.7-6.5l1,0.2c-0.4,1.2-0.7,2.1-0.9,2.8h3.3v0.9h-3.7c-0.4,0.9-0.9,2-1.6,3.2
		C281,749.7,280.7,749.5,280.4,749.3z M280.6,753.2h2.5v-2.8h-1.2v-0.9h4.1v0.9h-1.9v2.8h2.6v0.9h-2.6v4.7l2.3-2.2l0.2,1.1
		c-0.9,0.9-1.8,1.6-2.5,2.3c-0.2,0.2-0.5,0.5-0.8,0.8l-0.7-0.8c0.2-0.3,0.3-0.5,0.4-0.8c0.1-0.2,0.1-0.6,0.1-1v-4.2h-2.5V753.2z
		 M293.9,760c0.9,0,1.9,0,2.8,0c0.9,0,1.9,0,2.8,0c-0.2,0.4-0.3,0.7-0.3,1.1c-1.4,0-3.2,0-5.4-0.1c-2.1,0-3.6-0.7-4.8-2.3
		c-0.7,0.7-1.3,1.6-2,2.7l-0.8-0.7c0.5-0.6,1.2-1.5,2.1-2.6c0.1-0.1,0.2-0.3,0.3-0.3v-6.9h-1.6v-0.9h2.5v7.9
		C290.5,759.2,291.9,760,293.9,760z M288.9,747.3c-0.3-1.1-0.8-2.4-1.4-3.9l0.9-0.3c0.6,1.6,1.1,2.9,1.5,3.9L288.9,747.3z
		 M290.8,755.1h4.3v-2.9h-3.7v-1.2c0.6-1.4,1.2-2.9,1.7-4.7h-2v-0.9h2.3c0.3-0.9,0.5-1.8,0.7-2.7l1,0.2c-0.3,1-0.5,1.8-0.7,2.5h4.7
		v0.9h-5c-0.6,1.8-1.1,3.4-1.7,4.9h2.7v-3.5h1v3.5h2.7v0.9H296v2.9h3.2v0.9H296v3.1h-1v-3.1h-4.3V755.1z"/>
	<path class="st3" d="M300.9,756.1c-0.1-0.4-0.3-0.7-0.5-1.1c1.4-2,2.5-4.5,3.2-7.5h-2.8v-0.9h2.8v-3.9h1v3.9h2.7v0.9h-2.7v3.2
		l0.6-0.6c1.2,1.1,2.1,1.9,2.5,2.4l-0.7,0.7c-0.6-0.7-1.4-1.5-2.4-2.3v10.5h-1v-11.9C303,752.4,302.1,754.6,300.9,756.1z
		 M310.3,745.1v5.5c0,3-0.2,5.2-0.7,6.5c-0.4,1.4-1.4,2.8-2.9,4.4c-0.4-0.4-0.7-0.6-0.9-0.8c1.5-1.4,2.4-2.8,2.8-4
		c0.4-1.2,0.6-3.2,0.6-6.2v-6.5h6.6v14.7c0,0.8,0.2,1.1,0.8,1.1h0.4c0.7,0,1.1-0.4,1.2-1.3c0.1-0.6,0.2-1.7,0.3-3.1
		c0.3,0.1,0.7,0.3,1,0.4c-0.1,1.3-0.2,2.3-0.3,3.1c-0.2,1.3-0.8,2-2,1.9h-0.7c-1.2,0-1.7-0.6-1.7-2v-13.8H310.3z"/>
	<path class="st3" d="M320.6,749.9h5.7v-3h-3.3c-0.3,0.7-0.7,1.4-1.1,2.1c-0.2-0.2-0.5-0.3-0.9-0.5c1-1.5,1.7-3.1,2.1-4.8l1,0.2
		c0,0,0,0.1,0,0.1c-0.2,0.9-0.4,1.5-0.6,1.9h2.9v-3h1v3h4.2v0.9h-4.2v3h5.1v1h-5.1v2.6h4.3v4.5c0.1,1.2-0.5,1.9-1.8,1.9
		c-0.2,0-0.4,0-0.6,0c-0.1,0-0.2,0-0.3,0c-0.1,0-0.3,0-0.5,0c0-0.3-0.1-0.7-0.2-1c0.5,0,0.9,0,1.4,0c0.4,0,0.7-0.1,0.8-0.2
		c0.1-0.1,0.2-0.4,0.2-0.8v-3.5h-3.3v7.3h-1v-7.3H323v5.8h-1v-6.7h4.2v-2.6h-5.7V749.9z M337.4,742.9h1v15.9c0,1.6-0.7,2.4-2.2,2.4
		c-0.4,0-0.7,0-1.1,0c-0.2,0-0.4,0-0.6,0c-0.2,0-0.4,0-0.8,0c-0.1-0.3-0.1-0.7-0.3-1.2c0.8,0.1,1.6,0.1,2.4,0.1
		c0.6,0,0.9-0.1,1.1-0.3c0.2-0.2,0.3-0.6,0.3-1.1V742.9z M334.6,756.4h-1v-11.6h1V756.4z"/>
</g>
<g id="组_39">
	<path id="圆角矩形_1_拷贝-3" class="st5" d="M130.3,670.7l48.6-12.5c2.1-0.4,4.2-0.4,6.2,0.2l40.8,13.2
		c1.8,0.6,2,1.5,0.5,2.1l-42.6,15.7c-2.5,0.8-5.1,0.8-7.6,0.1l-46.9-16.4C127.4,672.4,127.9,671.3,130.3,670.7z"/>
	<path id="圆角矩形_1-3" class="st4" d="M131.3,644.7l48.6-12.5c2.1-0.4,4.2-0.4,6.2,0.2l40.8,13.2c1.8,0.6,2,1.5,0.5,2.1
		l-42.6,15.7c-2.5,0.8-5.1,0.8-7.6,0.1l-46.9-16.4C128.4,646.4,128.9,645.3,131.3,644.7z"/>
	<ellipse id="椭圆_11-3" class="st6" cx="181.5" cy="644.5" rx="22.5" ry="4.5"/>
	<path id="矩形_46-3" class="st7" d="M129.1,646l54,19v18l-54-19V646z"/>
	<path id="矩形_46_拷贝-3" class="st7" d="M229,647l-47,18v18l47-18V647z"/>
</g>
<polygon id="XMLID_1_" class="st8" points="182,10.9 186.2,10.9 186.2,4.7 196.9,4.7 196.9,39.5 186.2,39.5 186.2,29.7 193.4,29.7 
	193.4,14.7 164.1,14.7 164.1,29.7 171,29.7 171,39.5 160.3,39.5 160.3,4.7 171,4.7 171,10.9 175.5,10.9 175.5,0 155.8,0 155.8,44 
	175.5,44 175.5,25.2 168.6,25.2 168.6,19.2 188.7,19.2 188.7,25.2 182,25.2 182,44 201.4,44 201.4,0 182,0 "/>
<polygon id="XMLID_2_" class="st2" points="182,301 186.2,301 186.2,294.8 196.9,294.8 196.9,329.6 186.2,329.6 186.2,319.8 
	193.4,319.8 193.4,304.8 164.1,304.8 164.1,319.8 171,319.8 171,329.6 160.3,329.6 160.3,294.8 171,294.8 171,301 175.5,301 
	175.5,290.1 155.8,290.1 155.8,334.1 175.5,334.1 175.5,315.3 168.6,315.3 168.6,309.3 188.7,309.3 188.7,315.3 182,315.3 
	182,334.1 201.4,334.1 201.4,290.1 182,290.1 "/>
<polygon id="XMLID_5_" class="st8" points="182,589.4 186.2,589.4 186.2,583.2 196.9,583.2 196.9,618 186.2,618 186.2,608.2 
	193.4,608.2 193.4,593.2 164.1,593.2 164.1,608.2 171,608.2 171,618 160.3,618 160.3,583.2 171,583.2 171,589.4 175.5,589.4 
	175.5,578.5 155.8,578.5 155.8,622.5 175.5,622.5 175.5,603.7 168.6,603.7 168.6,597.7 188.7,597.7 188.7,603.7 182,603.7 
	182,622.5 201.4,622.5 201.4,578.5 182,578.5 "/>
</svg>
