<?xml version="1.0" encoding="utf-8"?>
<!-- Generator: Adobe Illustrator 22.1.0, SVG Export Plug-In . SVG Version: 6.00 Build 0)  -->
<svg version="1.1" id="租金分红" xmlns="http://www.w3.org/2000/svg" xmlns:xlink="http://www.w3.org/1999/xlink" x="0px"
	 y="0px" viewBox="0 0 608 523" style="enable-background:new 0 0 608 523;" xml:space="preserve">
<style type="text/css">
	.st0{fill:none;stroke:#90A7AB;}
	.st1{enable-background:new    ;}
	.st2{fill:#456E68;}
	.st3{fill:#9FE7DD;stroke:#34B9A1;stroke-width:2;}
	.st4{fill:#17161F;}
	.st5{fill:none;stroke:#456E68;stroke-width:1.5;stroke-miterlimit:10;}
</style>
<g id="组_29">
	<path id="形状_1" class="st0" d="M127.8,82.9h212.5l-4.8-5.5"/>
	<path id="形状_1_拷贝_6" class="st0" d="M342.1,103.1H129.8l4.8,5.5"/>
</g>
<g id="组_29_拷贝">
	<path id="形状_1-2" class="st0" d="M497.4,213v116l5.6-4.9"/>
	<path id="形状_1_拷贝_6-2" class="st0" d="M476.6,328.7V213l-5.6,4.9"/>
</g>
<path id="形状_1_拷贝_7" class="st0" d="M381,411H168.2l4.9-5.4"/>
<g class="st1">
	<path class="st2" d="M369.8,492.2v-7.3h-8.6v7.3h-1V477h1v6.9h8.6V477h1v15.1h-1V492.2z"/>
	<path class="st2" d="M378.8,492.4c-1.6,0-2.8-0.5-3.7-1.6s-1.4-2.4-1.4-4c0-1.8,0.5-3.2,1.4-4.2s2.2-1.5,3.8-1.5
		c1.5,0,2.7,0.5,3.6,1.5s1.3,2.4,1.3,4.2c0,1.7-0.5,3-1.4,4.1C381.6,491.9,380.4,492.4,378.8,492.4z M378.9,482
		c-1.3,0-2.3,0.4-3,1.3c-0.8,0.9-1.1,2-1.1,3.6c0,1.4,0.4,2.5,1.1,3.4s1.7,1.3,3,1.3s2.3-0.4,3-1.3c0.7-0.8,1.1-2,1.1-3.5
		s-0.3-2.7-1-3.5C381.2,482.4,380.2,482,378.9,482z"/>
	<path class="st2" d="M393.7,492.2v-2l0,0c-0.8,1.5-1.9,2.2-3.5,2.2c-2.5,0-3.8-1.6-3.8-4.8v-6.2h1v6c0,1.5,0.2,2.5,0.7,3.2
		s1.2,1,2.3,1c1,0,1.8-0.4,2.4-1.1s0.9-1.7,0.9-3v-6.1h1v10.8H393.7z"/>
	<path class="st2" d="M397.5,491.7v-1.2c0.4,0.3,0.8,0.6,1.3,0.7c0.5,0.2,1,0.3,1.3,0.3c1.7,0,2.5-0.7,2.5-2.1
		c0-0.5-0.2-0.9-0.6-1.2c-0.4-0.3-1-0.7-1.8-1c-1-0.4-1.7-0.9-2.2-1.4c-0.4-0.5-0.6-1.1-0.6-1.8c0-0.9,0.3-1.6,1-2.1
		s1.5-0.8,2.5-0.8c0.9,0,1.7,0.2,2.4,0.6v1.1c-0.8-0.5-1.6-0.8-2.5-0.8c-0.7,0-1.3,0.2-1.7,0.6s-0.7,0.8-0.7,1.4
		c0,0.5,0.1,0.9,0.4,1.3c0.3,0.3,0.9,0.7,1.8,1.1c1.1,0.5,1.9,1,2.3,1.4s0.6,1,0.6,1.7c0,0.9-0.3,1.6-1,2.1
		c-0.6,0.6-1.5,0.8-2.7,0.8C399.1,492.4,398.2,492.2,397.5,491.7z"/>
	<path class="st2" d="M406.7,486.8c0,1.5,0.3,2.6,1,3.5c0.7,0.8,1.6,1.3,2.8,1.3c1.2,0,2.4-0.4,3.5-1.3v1c-1.1,0.8-2.4,1.2-3.7,1.2
		c-1.4,0-2.5-0.5-3.4-1.5s-1.3-2.4-1.3-4.2c0-1.6,0.4-2.9,1.3-4s2.1-1.6,3.5-1.6c1.3,0,2.4,0.5,3.1,1.4s1.1,2.2,1.1,3.9v0.4
		L406.7,486.8L406.7,486.8z M413.7,485.9c0-1.3-0.3-2.2-0.9-2.9c-0.6-0.7-1.3-1-2.3-1s-1.8,0.3-2.5,1s-1.1,1.7-1.2,2.9H413.7z"/>
	<path class="st2" d="M421.6,478v14.2h-1V478h-4.4v-1h9.7v1H421.6z"/>
	<path class="st2" d="M429.3,492.4c-1.6,0-2.8-0.5-3.7-1.6s-1.4-2.4-1.4-4c0-1.8,0.5-3.2,1.4-4.2s2.2-1.5,3.8-1.5
		c1.5,0,2.7,0.5,3.6,1.5s1.3,2.4,1.3,4.2c0,1.7-0.5,3-1.4,4.1C432.1,491.9,430.9,492.4,429.3,492.4z M429.4,482
		c-1.3,0-2.3,0.4-3,1.3c-0.8,0.9-1.1,2-1.1,3.6c0,1.4,0.4,2.5,1.1,3.4s1.7,1.3,3,1.3s2.3-0.4,3-1.3c0.7-0.8,1.1-2,1.1-3.5
		s-0.3-2.7-1-3.5C431.6,482.4,430.6,482,429.4,482z"/>
	<path class="st2" d="M443.2,492.2l-5.1-5.3l0,0v5.3h-1v-16h1v10.3l0,0l4.9-5.1h1.3l-5.1,5.2l5.5,5.6H443.2z"/>
	<path class="st2" d="M446.8,486.8c0,1.5,0.3,2.6,1,3.5c0.7,0.8,1.6,1.3,2.8,1.3c1.2,0,2.4-0.4,3.5-1.3v1c-1.1,0.8-2.4,1.2-3.7,1.2
		c-1.4,0-2.5-0.5-3.4-1.5s-1.3-2.4-1.3-4.2c0-1.6,0.4-2.9,1.3-4s2.1-1.6,3.5-1.6c1.3,0,2.4,0.5,3.1,1.4s1.1,2.2,1.1,3.9v0.4
		L446.8,486.8L446.8,486.8z M453.8,485.9c0-1.3-0.3-2.2-0.9-2.9c-0.6-0.7-1.3-1-2.3-1s-1.8,0.3-2.5,1s-1.1,1.7-1.2,2.9H453.8z"/>
	<path class="st2" d="M464.8,492.2v-6.3c0-2.6-0.9-3.9-2.8-3.9c-1,0-1.9,0.4-2.6,1.1c-0.7,0.8-1,1.7-1,2.8v6.2h-1v-10.8h1v2l0,0
		c0.8-1.5,2-2.2,3.7-2.2c1.2,0,2,0.4,2.7,1.2c0.6,0.8,0.9,1.9,0.9,3.3v6.6L464.8,492.2L464.8,492.2z"/>
	<path class="st2" d="M485.9,483.8c-3.9-1.9-6.8-4.1-8.6-6.7c-2.3,2.8-5.2,5.1-8.8,6.9c-0.3-0.4-0.6-0.7-0.8-0.9
		c4.3-2.2,7.4-4.7,9.3-7.5l1.2,0.2c0,0-0.1,0.1-0.1,0.2c-0.1,0.1-0.2,0.3-0.3,0.3c2.1,2.7,5,4.9,8.7,6.5
		C486.5,483,486.2,483.3,485.9,483.8z M471,483.2h12.4v1h-5.6v3.5h6.3v1h-6.3v3.8h8.1v1h-17.2v-1h8.1v-3.8h-6.4v-1h6.4v-3.5H471
		V483.2z"/>
	<path class="st2" d="M487.9,492.6l-0.2-1.1c0.8-0.1,1.7-0.2,2.7-0.4v-6H488v-0.9h2.4V479h-2.6v-1h6.2v0.9h-2.5v5.3h2.2v0.9h-2.2
		v5.8c0.9-0.2,1.8-0.3,2.7-0.5c0,0.1,0,0.5,0,1C491.8,491.9,489.7,492.3,487.9,492.6z M494.6,479.5h5v-3.6h1v3.6h5.7v1h-5.7v0.8
		c0.4,1.7,0.8,3.1,1.4,4.3c1.2-1.1,2.2-2.2,3.1-3.3l0.8,0.7c-0.9,1-2.1,2.2-3.5,3.4c0.9,1.7,2.3,3.3,4.2,4.9
		c-0.3,0.3-0.5,0.5-0.8,0.9c-2.7-2.4-4.5-5-5.3-7.9v7.6c0.1,1.5-0.7,2.3-2.5,2.3c-0.4,0-1,0-1.8,0c0-0.4-0.1-0.8-0.2-1.1
		c0.4,0,1.1,0.1,1.9,0.1c0.6,0,1-0.1,1.2-0.3c0.2-0.2,0.3-0.6,0.3-1.2v-3.9c-1.7,1.2-3.3,2.2-4.7,3.1l-0.7-1
		c2.1-1.2,3.9-2.3,5.4-3.3v-5.9h-5v-1.2H494.6z M494.8,482.9l0.9-0.5c0.8,1,1.5,2.1,2.3,3.3l-0.9,0.6
		C496.4,485.1,495.6,483.9,494.8,482.9z M501.7,477.3l0.6-0.7c0.9,0.6,1.8,1.2,2.6,1.8l-0.7,0.7C503.5,478.6,502.7,478,501.7,477.3z
		"/>
	<path class="st2" d="M516.6,476l1-0.3c0,0.1,0.1,0.1,0.1,0.3c0.4,0.9,0.7,1.6,0.9,2.1h6.5v4.3h-14.3v2.5c0,2.5-0.1,4.4-0.5,5.7
		c-0.3,1.3-1,2.6-1.9,4c-0.2-0.2-0.4-0.4-0.8-0.7c0.9-1.3,1.5-2.5,1.8-3.6s0.4-2.9,0.4-5.3v-7h7.7C517.2,477.4,517,476.7,516.6,476z
		 M510.8,493.8c1.8-1.1,3-2.2,3.5-3.2c0.6-1,0.8-2.7,0.8-5h-3.4v-0.9h6.9c-0.1-0.3-0.3-0.9-0.5-1.8l1-0.2c0.2,0.8,0.4,1.5,0.6,2h6.7
		v0.9h-10.2c0,0.9-0.1,1.6-0.1,2.3h8.2c0,1.2-0.1,2.3-0.2,3.4c-0.1,1.9-1.1,2.8-3.1,2.7c-0.4,0-1.3,0-2.6,0
		c-0.1-0.4-0.1-0.7-0.3-1.1c0.6,0,1.4,0.1,2.7,0.1c0.1,0,0.2,0,0.3,0c1.2,0,1.9-0.6,1.9-1.9c0.1-0.9,0.1-1.7,0.1-2.3h-7.2
		c-0.2,2.3-1.7,4.2-4.4,5.8C511.4,494.4,511.1,494.1,510.8,493.8z M510.8,479v2.4h13.3V479H510.8z"/>
	<path class="st2" d="M527.8,492.3l-0.3-1c0.7-0.2,1.6-0.5,2.8-0.8v-8.1H528v-1h2.3v-5.5h1.1v5.5h2.1v1h-2.1v7.8
		c0.2-0.1,0.5-0.2,0.9-0.3c0.7-0.2,1.3-0.4,1.7-0.6c0,0.1,0,0.4,0.1,1C531.3,491.1,529.2,491.8,527.8,492.3z M535.2,478.2h1.1v4.3
		l3.4-1.2v-5.5h1.1v5.2l4.7-1.7c-0.1,2.4-0.1,4.3-0.2,5.8c0,1.9-0.8,2.9-2.2,2.8c-0.3,0-0.7,0-1.3,0c0-0.3-0.1-0.6-0.2-1
		c0.2,0,0.4,0,0.6,0c0.1,0,0.2,0,0.3,0s0.3,0,0.5,0c0.9,0.1,1.3-0.5,1.3-1.7c0.1-1.6,0.2-3.1,0.2-4.5l-3.6,1.3v8.4h-1.1v-8.1
		l-3.4,1.2v7.4c0,0.8,0.1,1.3,0.4,1.6c0.3,0.3,0.8,0.4,1.7,0.4h4.2c1.6,0.1,2.4-0.5,2.5-1.6c0.2-0.9,0.3-1.8,0.4-2.7
		c0.4,0.2,0.7,0.3,1,0.3c-0.1,1.1-0.3,2-0.4,2.7c-0.2,0.8-0.5,1.4-1,1.7c-0.5,0.3-1.2,0.5-2.3,0.5H538c-2,0.1-2.9-0.8-2.8-2.6v-7.3
		l-1.7,0.6l-0.2-1l1.8-0.6v-4.7H535.2z"/>
	<path class="st2" d="M549.5,483.6h9.4c0.8-1.2,1.5-2.4,2.3-3.8l1,0.5c-0.7,1-1.4,2.1-2.2,3.2h5.7v1h-15.2v1.5
		c0.1,3.5-0.7,6.3-2.3,8.4c-0.3-0.3-0.6-0.6-0.9-0.8c0.8-1,1.3-2,1.6-3.2c0.3-1.1,0.5-2.6,0.5-4.5v-2.3H549.5z M556.4,476.1l1.1-0.3
		c0.3,0.9,0.6,1.6,0.8,2.3h8v1H548v-1h9.2c-0.1-0.4-0.3-1-0.6-1.8C556.4,476.1,556.4,476.1,556.4,476.1z M552.3,480.4l0.9-0.6
		c0.6,0.7,1.3,1.7,2.2,2.9l-1,0.6C553.7,482.3,553,481.3,552.3,480.4z"/>
	<path class="st2" d="M567.6,485.6h3.9v-6.9h-3.3v-0.9h3.3v-2.1h1v2.1h8.7v-2.1h1v2.1h3.3v0.9h-3.3v6.9h3.8v0.9h-6
		c1.4,1.5,3.4,2.7,6.1,3.7c-0.1,0.2-0.3,0.4-0.5,0.7c-0.1,0.1-0.1,0.2-0.1,0.2c-3.1-1.3-5.3-2.9-6.7-4.7h-4.3
		c-1.5,1.9-3.7,3.5-6.5,4.9c-0.2-0.3-0.4-0.6-0.7-0.9c2.5-1.1,4.5-2.4,5.9-4h-5.9v-0.8H567.6z M576.4,487.5h1v1.9h4.5v0.9h-4.5v2.3
		h7.6v0.9h-16.3v-0.9h7.7v-2.3h-4.6v-0.9h4.6V487.5z M572.6,478.7v1.7h8.7v-1.7H572.6z M572.6,481.3v1.7h8.7v-1.7H572.6z
		 M572.6,483.9v1.7h8.7v-1.7H572.6z"/>
	<path class="st2" d="M605.6,482.8c-3.7-1.4-6.6-3.3-8.7-5.8c-2.1,2.4-5.1,4.4-8.7,6c-0.1-0.2-0.4-0.5-0.7-0.9
		c4.3-1.9,7.4-4.1,9.3-6.6l1.2,0.2c0,0.1-0.1,0.1-0.2,0.2c-0.1,0.1-0.2,0.2-0.2,0.3c2.3,2.5,5.2,4.3,8.7,5.5
		C605.9,482.3,605.7,482.6,605.6,482.8z M590.7,482.2h12v1h-5.3v3.2h7v1h-7v5.5h8.3v1H588v-1h8.3v-5.5h-7v-1h7v-3.2h-5.6V482.2z
		 M590.3,489l0.8-0.6c0.9,0.9,1.8,1.8,2.6,2.7l-0.9,0.7C592.2,491,591.3,490,590.3,489z M600.5,491.8l-0.8-0.7
		c0.9-0.8,1.8-1.7,2.8-2.7l0.9,0.6C602.4,490,601.4,490.9,600.5,491.8z"/>
</g>
<g class="st1">
	<path class="st2" d="M406.2,522.6c-2.1-2.5-3.2-5.5-3.2-9.2c0-3.8,1.1-6.9,3.2-9.4h1c-2.2,2.5-3.3,5.7-3.3,9.4
		c0,3.5,1.1,6.6,3.3,9.2H406.2z"/>
	<path class="st2" d="M418.5,502.8h1.1v2h9v1h-9v2.8h7.4v7.6h-1.1v-1.3h-12.4c-0.1,2.5-0.9,4.7-2.5,6.7c-0.3-0.3-0.7-0.6-1-0.7
		c1-1.3,1.7-2.6,2-3.8s0.5-3,0.5-5.6v-3h6V502.8z M413.5,511.5c0,0.9,0,1.7-0.1,2.4h12.4v-4.3h-12.3V511.5z"/>
	<path class="st2" d="M434.3,510.6h1v2.4h3.2v0.9h-3.2v1.7l0.4-0.5c1,0.7,1.9,1.3,2.7,1.9l-0.6,0.8c-0.9-0.8-1.8-1.4-2.5-1.9v5.8h-1
		v-6.4c-0.8,1.7-2,3.2-3.7,4.6c-0.3-0.3-0.5-0.6-0.8-0.9c1.8-1.3,3.3-2.9,4.4-4.9h-3.7v-0.9h3.8L434.3,510.6L434.3,510.6z
		 M447.9,510.6c-3.5-0.8-6.1-2.1-8.1-3.9v4.3h-1v-4.3c-2,1.8-4.7,3.2-8,4.1c-0.2-0.4-0.4-0.7-0.6-1c3.2-0.7,6-1.9,8.2-3.7h-7.3v-0.9
		h7.7v-2.5h1v2.5h7.8v0.9h-7.4c2.3,1.8,5,2.9,8.3,3.5C448.3,509.9,448.1,510.2,447.9,510.6z M438.5,519.9c-0.3-0.3-0.5-0.6-0.8-0.8
		c1.9-1.2,3.6-3,5-5.3h-3.1v-0.9h3.1v-2.3h1v2.3h4.2v0.9h-4.1c1.3,2.1,2.9,3.8,5,4.9c-0.3,0.3-0.6,0.6-0.8,0.9
		c-2-1.3-3.4-2.9-4.3-4.6v6.5h-1V515C441.7,516.9,440.3,518.6,438.5,519.9z"/>
	<path class="st2" d="M450.4,510.6c-0.2-0.3-0.4-0.6-0.6-0.9c1.9-1.9,3.4-4.2,4.6-7l1,0.4c-0.6,1.4-1.3,2.6-1.9,3.6v8.2h-1v-6.7
		C451.8,509.1,451.1,509.9,450.4,510.6z M458.8,514.6h1v1.8h7.1v0.9h-7.1v2.4h8.8v0.9H450v-0.9h8.8v-2.4h-7.1v-0.9h7.1V514.6z
		 M454.7,513.8c2.6-0.8,4.4-1.8,5.6-3H455V510h6.1v-1.8h-4.4v-4.4h9.9v4.4h-4.5v1.8h6.1v0.9h-5.3c1.3,1.2,3.1,2.2,5.5,2.8
		c-0.3,0.4-0.5,0.7-0.6,0.9c-2.6-0.8-4.5-2-5.8-3.5v3.9h-1v-3.8c-1.4,1.6-3.4,2.8-5.8,3.6C455.1,514.5,454.9,514.2,454.7,513.8z
		 M457.7,504.6v2.7h7.8v-2.7H457.7z"/>
	<path class="st2" d="M481,519.2l-1.7-4.7h-6.5l-1.7,4.7H470l5.7-15.1h1l5.6,15.1H481z M476.4,506.5c-0.1-0.2-0.1-0.4-0.2-0.6
		s-0.1-0.4-0.2-0.5l0,0c-0.1,0.5-0.2,0.8-0.3,1.1l-2.5,7h5.8L476.4,506.5z"/>
	<path class="st2" d="M484.8,519.2V504h1v15.1h-1V519.2z"/>
	<path class="st2" d="M490.7,505v6.2h5.6v1h-5.6v7h-1V504h7v1H490.7z"/>
	<path class="st2" d="M512.7,519.2v-10.7c0-0.3,0-1,0.1-2.2l0,0c-0.2,0.6-0.4,1-0.5,1.3l-5.4,11.6h-0.3l-5.4-11.6
		c-0.2-0.4-0.3-0.8-0.5-1.4l0,0c0.1,0.7,0.1,1.4,0.1,2v11h-1V504h1l5.6,12.2c0,0.1,0.1,0.2,0.1,0.3s0.1,0.2,0.1,0.4
		c0.1,0.2,0.1,0.4,0.2,0.6h0.1l0.1-0.3c0,0,0.1-0.4,0.4-1l5.5-12.1h0.9v15.1H512.7z"/>
	<path class="st2" d="M516.3,512.6h3.9v-6.9H517v-0.9h3.3v-2.1h1v2.1h8.7v-2.1h1v2.1h3.3v0.9H531v6.9h3.8v0.9h-6
		c1.4,1.5,3.4,2.7,6.1,3.7c-0.1,0.2-0.3,0.4-0.5,0.7c-0.1,0.1-0.1,0.2-0.1,0.2c-3.1-1.3-5.3-2.9-6.7-4.7h-4.3
		c-1.5,1.9-3.7,3.5-6.5,4.9c-0.2-0.3-0.4-0.6-0.7-0.9c2.5-1.1,4.5-2.4,5.9-4h-5.9v-0.8H516.3z M525.1,514.5h1v1.9h4.5v0.9h-4.5v2.3
		h7.6v0.9h-16.3v-0.9h7.7v-2.3h-4.6v-0.9h4.6V514.5z M521.3,505.7v1.7h8.7v-1.7H521.3z M521.3,508.3v1.7h8.7v-1.7H521.3z
		 M521.3,510.9v1.7h8.7v-1.7L521.3,510.9L521.3,510.9z"/>
	<path class="st2" d="M554.3,509.8c-3.7-1.4-6.6-3.3-8.7-5.8c-2.1,2.4-5.1,4.4-8.7,6c-0.1-0.2-0.4-0.5-0.7-0.9
		c4.3-1.9,7.4-4.1,9.3-6.6l1.2,0.2c0,0.1-0.1,0.1-0.2,0.2c-0.1,0.1-0.2,0.2-0.2,0.3c2.3,2.5,5.2,4.3,8.7,5.5
		C554.6,509.3,554.4,509.6,554.3,509.8z M539.4,509.2h12v1h-5.3v3.2h7v1h-7v5.5h8.3v1h-17.6v-1h8.3v-5.5h-7v-1h7v-3.2h-5.6v-1H539.4
		z M539,516l0.8-0.6c0.9,0.9,1.8,1.8,2.6,2.7l-0.9,0.7C540.9,518,540.1,517,539,516z M549.2,518.8l-0.8-0.7c0.9-0.8,1.8-1.7,2.8-2.7
		l0.9,0.6C551.1,517,550.2,517.9,549.2,518.8z"/>
	<path class="st2" d="M558.8,522.6h-1c2.2-2.6,3.3-5.7,3.3-9.2c0-3.7-1.1-6.8-3.3-9.4h1c2.1,2.5,3.2,5.6,3.2,9.4
		C562,517.1,560.9,520.1,558.8,522.6z"/>
</g>
<g class="st1">
	<path class="st2" d="M5.8,476.2c-0.1-0.4-0.3-0.8-0.5-1.2c2.1-2.8,3.6-5.8,4.5-9l1.1,0.4c-0.6,1.6-1.2,3.2-1.9,4.7v13.6H7.9V473
		C7.3,474,6.6,475.1,5.8,476.2z M15.2,465.9h1.1c0,2,0,3.8-0.1,5.3h7.7v1h-5.4v9.4c-0.1,0.8,0.4,1.2,1.4,1.2h1.4
		c1,0,1.5-0.5,1.6-1.5c0.1-0.7,0.2-1.7,0.3-2.8c0.3,0.1,0.7,0.2,1.1,0.3c-0.1,1.2-0.2,2.2-0.4,3c-0.2,1.4-1.1,2-2.5,2h-1.6
		c-1.6,0-2.3-0.7-2.3-2.2v-9.4h-1.3c0,0.1,0,0.3,0,0.6c0,0.2,0,0.4,0,0.5c-0.2,4.3-2,8-5.2,11.2c-0.3-0.3-0.6-0.6-0.9-0.8
		c3.2-3,4.8-6.5,5-10.5c0-0.3,0-0.6,0.1-1h-4.3v-1h4.4C15.2,469.6,15.2,467.8,15.2,465.9z M21.4,469.7c-1-0.8-1.9-1.6-3-2.4l0.7-0.7
		c0.9,0.6,1.9,1.4,3.1,2.3L21.4,469.7z"/>
	<path class="st2" d="M25.9,470.2h8.3v-2.5c-2.3,0.1-4.7,0.1-7.2,0.2c0-0.2-0.1-0.6-0.2-0.9c5.5-0.1,10.7-0.2,15.5-0.5l0.2,0.9
		c-2.5,0.1-4.9,0.2-7.3,0.3v2.5h8.4v0.9h-7.3c1.9,1.7,4.5,3,7.7,3.8c-0.3,0.4-0.5,0.7-0.6,1c-3.7-1.1-6.4-2.6-8.2-4.7v3.8h-1.1v-3.7
		c-1.8,2-4.5,3.6-8.2,4.9c-0.2-0.3-0.4-0.7-0.6-1c3.2-1,5.8-2.4,7.8-4.1h-7.3L25.9,470.2L25.9,470.2z M25.9,483.7
		c3.7-1.3,5.5-3.6,5.4-6.9h-3.1v-0.9h11.1v1l-1.7,2H42c-0.1,1.2-0.2,2.2-0.3,3.1c-0.1,1.5-1,2.3-2.7,2.2c-0.3,0-0.6,0-1,0
		c-0.2,0-0.4,0-0.7,0c-0.2,0-0.6,0-1,0c-0.1-0.4-0.1-0.8-0.3-1.1c1.2,0,2.2,0.1,2.9,0.1c1.1,0.1,1.7-0.4,1.7-1.3
		c0.1-0.6,0.2-1.3,0.2-2h-4.4v-1L38,477h-5.8c0.1,3.7-1.8,6.3-5.8,7.8C26.5,484.4,26.2,484.1,25.9,483.7z"/>
	<path class="st2" d="M46.1,469h2c0.4-1.2,0.7-2.3,0.9-3.2l1.1,0.2c-0.1,0.2-0.2,0.6-0.4,1.2c-0.3,0.8-0.4,1.4-0.6,1.7h4v15.2h-1
		v-1.6h-5v1.7h-1V469z M47.2,470v5.3h5V470H47.2z M47.2,476.2v5.4h5v-5.4H47.2z M54.9,473.3c-0.2-0.2-0.5-0.4-0.9-0.6
		c1.2-1.9,2.2-4.2,3-6.9l1.1,0.3c-0.4,1-0.7,2-1.1,2.9h6.5c-0.1,4.6-0.2,8.5-0.4,11.9c0,2.2-1.1,3.3-3.3,3.3c-0.4,0-0.8,0-1.3,0
		c-0.2,0-0.5,0-0.8,0c-0.2,0-0.6,0-1,0c-0.1-0.4-0.1-0.7-0.3-1.1c1,0,2.1,0.1,3.2,0.1c1.6,0.1,2.5-0.7,2.5-2.4
		c0.1-2.1,0.2-5.7,0.3-10.8h-5.8C56,471.3,55.5,472.4,54.9,473.3z M55.8,474.2l0.8-0.6c0.9,1.1,2,2.5,3.2,4.1l-0.9,0.7
		C57.8,476.8,56.8,475.4,55.8,474.2z"/>
	<path class="st2" d="M73.9,466l1-0.3c0.3,0.9,0.6,1.6,0.8,2.3h8.4v0.9H65.4V468h9.2C74.4,467.2,74.1,466.5,73.9,466z M70,469.6
		l0.9-0.5c0.7,0.9,1.3,1.7,1.8,2.4l-0.9,0.6h4.7c0.7-0.9,1.3-1.9,2-3l1,0.5c-0.5,0.8-1.1,1.6-1.8,2.5h4.9v10.1
		c0.1,1.4-0.7,2.1-2.2,2.1c-0.3,0-0.7,0-1,0c-0.2,0-0.3,0-0.5,0s-0.4,0-0.8,0c0-0.4-0.1-0.7-0.2-1.1c0.5,0,0.9,0.1,1.2,0.1
		c0.3,0,0.7,0,1.1,0c0.5,0,0.9-0.1,1.1-0.3c0.2-0.2,0.3-0.5,0.3-1v-9H67.9v11.7h-1V472h4.8C71.3,471.4,70.8,470.6,70,469.6z
		 M72.8,473.5l0.8,0.7c-1.5,1.2-2.9,2.2-4.3,3c-0.1-0.2-0.4-0.5-0.7-0.8C70.3,475.4,71.7,474.4,72.8,473.5z M78.5,481.7h-7.4v-5h7.4
		V481.7z M72.1,477.6v3.2h5.4v-3.2H72.1z M76,474.2l0.6-0.7c1.3,0.8,2.7,1.7,4.3,2.8l-0.7,0.8C79,476.2,77.6,475.2,76,474.2z"/>
	<path class="st2" d="M96.8,466.1h1.1v16.2h6.5v1h-19v-1h6.4v-16.2h1.1v16.2h3.9V466.1z M89.2,478c-0.8-2.3-1.7-4.8-2.9-7.6l1-0.3
		c1,2.3,2,4.8,3,7.6L89.2,478z M100.2,478l-1-0.5c1.1-2.1,2.2-4.7,3.2-7.6l1.1,0.4C102.3,473.2,101.2,475.8,100.2,478z"/>
	<path class="st2" d="M114.4,466l1-0.3c0,0.1,0.1,0.1,0.1,0.3c0.4,0.9,0.7,1.6,0.9,2.1h6.5v4.3h-14.4v2.5c0,2.5-0.1,4.4-0.5,5.7
		c-0.3,1.3-1,2.6-2,4c-0.2-0.2-0.4-0.4-0.8-0.7c0.9-1.3,1.5-2.5,1.8-3.6s0.4-2.9,0.4-5.3v-7h7.8C115,467.4,114.7,466.7,114.4,466z
		 M108.5,483.8c1.8-1.1,3-2.2,3.5-3.2c0.6-1,0.8-2.7,0.9-5h-3.4v-0.9h6.9c-0.1-0.3-0.3-0.9-0.5-1.8l1-0.2c0.2,0.8,0.4,1.5,0.6,2h6.7
		v0.9h-10.3c0,0.9-0.1,1.6-0.1,2.3h8.3c0,1.2-0.1,2.3-0.2,3.4c-0.1,1.9-1.1,2.8-3.1,2.7c-0.4,0-1.3,0-2.6,0
		c-0.1-0.4-0.1-0.7-0.3-1.1c0.6,0,1.5,0.1,2.7,0.1c0.1,0,0.2,0,0.3,0c1.2,0,1.9-0.6,1.9-1.9c0.1-0.9,0.1-1.7,0.1-2.3h-7.2
		c-0.2,2.3-1.7,4.2-4.4,5.8C109.1,484.4,108.8,484.1,108.5,483.8z M108.5,469v2.4h13.3V469H108.5z"/>
	<path class="st2" d="M125.6,482.3l-0.3-1c0.7-0.2,1.6-0.5,2.8-0.8v-8.1h-2.3v-1h2.3v-5.5h1.1v5.5h2.1v1h-2.1v7.8
		c0.2-0.1,0.5-0.2,0.9-0.3c0.7-0.2,1.3-0.4,1.7-0.6c0,0.1,0,0.4,0.1,1C129.2,481.1,127,481.8,125.6,482.3z M133,468.2h1.1v4.3
		l3.4-1.2v-5.5h1.1v5.2l4.7-1.7c-0.1,2.4-0.1,4.3-0.2,5.8c0,1.9-0.8,2.9-2.2,2.8c-0.3,0-0.8,0-1.3,0c0-0.3-0.1-0.6-0.2-1
		c0.2,0,0.4,0,0.6,0c0.1,0,0.2,0,0.3,0s0.3,0,0.5,0c0.9,0.1,1.3-0.5,1.3-1.7c0.1-1.6,0.2-3.1,0.2-4.5l-3.7,1.3v8.4h-1.1v-8.1
		l-3.4,1.2v7.4c0,0.8,0.1,1.3,0.4,1.6c0.3,0.3,0.8,0.4,1.7,0.4h4.2c1.6,0.1,2.4-0.5,2.6-1.6c0.2-0.9,0.3-1.8,0.4-2.7
		c0.4,0.2,0.7,0.3,1,0.3c-0.1,1.1-0.3,2-0.4,2.7c-0.2,0.8-0.5,1.4-1,1.7c-0.5,0.3-1.2,0.5-2.3,0.5h-4.9c-2,0.1-2.9-0.8-2.8-2.6v-7.3
		l-1.7,0.6l-0.2-1l1.8-0.6L133,468.2L133,468.2z"/>
	<path class="st2" d="M147.4,473.6h9.5c0.8-1.2,1.5-2.4,2.3-3.8l1,0.5c-0.7,1-1.4,2.1-2.2,3.2h5.7v1h-15.2v1.5
		c0.1,3.5-0.7,6.3-2.3,8.4c-0.3-0.3-0.6-0.6-0.9-0.8c0.8-1,1.3-2,1.6-3.2c0.3-1.1,0.5-2.6,0.5-4.5L147.4,473.6L147.4,473.6z
		 M154.3,466.1l1.1-0.3c0.3,0.9,0.6,1.6,0.8,2.3h8v1h-18.4v-1h9.2c-0.1-0.4-0.3-1-0.6-1.8C154.4,466.1,154.3,466.1,154.3,466.1z
		 M150.2,470.4l0.9-0.6c0.6,0.7,1.3,1.7,2.2,2.9l-1,0.6C151.6,472.3,150.9,471.3,150.2,470.4z"/>
</g>
<circle id="椭圆_6" class="st3" cx="482" cy="97" r="96"/>
<g class="st1">
	<path class="st4" d="M416.2,86.3h-1.9v-6.8h-7.6v6.8h-1.9V71.1h1.9v6.6h7.6v-6.6h1.9V86.3z"/>
	<path class="st4" d="M419.1,81c0-1.8,0.5-3.2,1.5-4.2s2.3-1.5,4-1.5c1.6,0,2.9,0.5,3.8,1.5s1.4,2.4,1.4,4.1s-0.5,3.1-1.5,4.1
		s-2.3,1.6-3.9,1.6s-2.9-0.5-3.9-1.5C419.6,84,419.1,82.6,419.1,81z M421.1,80.9c0,1.2,0.3,2.2,0.9,2.9s1.5,1.1,2.5,1.1
		c1.1,0,1.9-0.4,2.5-1c0.6-0.7,0.9-1.7,0.9-3s-0.3-2.3-0.9-3s-1.4-1.1-2.5-1.1s-1.9,0.4-2.5,1.1S421.1,79.6,421.1,80.9z"/>
	<path class="st4" d="M441.5,86.3h-1.9v-1.7l0,0c-0.7,1.3-1.8,2-3.3,2c-2.6,0-3.8-1.5-3.8-4.6v-6.5h1.9v6.2c0,2.2,0.8,3.3,2.5,3.3
		c0.8,0,1.5-0.3,2-0.9s0.8-1.4,0.8-2.3v-6.2h1.9v10.7H441.5z"/>
	<path class="st4" d="M444.3,83.9c1,0.7,2,1,3.1,1c1.5,0,2.2-0.5,2.2-1.5c0-0.4-0.2-0.8-0.5-1s-1-0.6-2-1c-1.2-0.5-2-1-2.3-1.4
		c-0.4-0.5-0.5-1-0.5-1.7c0-1,0.4-1.7,1.2-2.3s1.8-0.9,3-0.9c0.9,0,1.8,0.2,2.6,0.5v1.8c-0.8-0.5-1.7-0.8-2.7-0.8
		c-0.6,0-1.1,0.1-1.5,0.4s-0.6,0.6-0.6,1.1c0,0.4,0.1,0.8,0.4,1s0.9,0.6,1.8,0.9c1.2,0.4,2,0.9,2.4,1.4s0.6,1.1,0.6,1.8
		c0,1-0.4,1.8-1.2,2.3s-1.9,0.9-3.1,0.9c-1.1,0-2.1-0.2-2.9-0.6V83.9z"/>
	<path class="st4" d="M462.9,81.4h-7.5c0,1.2,0.3,2,0.9,2.7s1.4,0.9,2.5,0.9c1.2,0,2.3-0.4,3.3-1.2v1.7c-0.9,0.7-2.2,1-3.8,1
		c-1.6,0-2.8-0.5-3.7-1.5s-1.3-2.4-1.3-4.1s0.5-3,1.4-4.1s2.1-1.6,3.6-1.6c1.4,0,2.5,0.5,3.3,1.4s1.2,2.2,1.2,3.8v1H462.9z
		 M461,79.8c0-1-0.2-1.7-0.7-2.3c-0.5-0.5-1.1-0.8-1.9-0.8s-1.4,0.3-2,0.8c-0.6,0.6-0.9,1.3-1,2.2h5.6V79.8z"/>
	<path class="st4" d="M474.8,72.9h-4.4v13.4h-2V72.9h-4.3v-1.7h10.7L474.8,72.9L474.8,72.9z"/>
	<path class="st4" d="M473.9,81c0-1.8,0.5-3.2,1.5-4.2s2.3-1.5,4-1.5c1.6,0,2.9,0.5,3.8,1.5s1.4,2.4,1.4,4.1s-0.5,3.1-1.5,4.1
		s-2.3,1.6-3.9,1.6s-2.9-0.5-3.9-1.5C474.4,84,473.9,82.6,473.9,81z M475.9,80.9c0,1.2,0.3,2.2,0.9,2.9s1.5,1.1,2.5,1.1
		c1.1,0,1.9-0.4,2.5-1c0.6-0.7,0.9-1.7,0.9-3s-0.3-2.3-0.9-3s-1.4-1.1-2.5-1.1s-1.9,0.4-2.5,1.1C476.2,78.6,475.9,79.6,475.9,80.9z"
		/>
	<path class="st4" d="M496.5,86.3h-2.6l-4.6-5.2l0,0v5.2h-1.9v-16h1.9v10.1l0,0l4.4-5h2.5l-4.9,5.2L496.5,86.3z"/>
	<path class="st4" d="M506.5,81.4H499c0,1.2,0.3,2,0.9,2.7s1.4,0.9,2.5,0.9c1.2,0,2.3-0.4,3.3-1.2v1.7c-0.9,0.7-2.2,1-3.8,1
		c-1.6,0-2.8-0.5-3.7-1.5s-1.3-2.4-1.3-4.1s0.5-3,1.4-4.1s2.1-1.6,3.6-1.6c1.4,0,2.5,0.5,3.3,1.4s1.2,2.2,1.2,3.8v1H506.5z
		 M504.6,79.8c0-1-0.2-1.7-0.7-2.3c-0.5-0.5-1.1-0.8-1.9-0.8s-1.4,0.3-2,0.8c-0.6,0.6-0.9,1.3-1,2.2h5.6V79.8z"/>
	<path class="st4" d="M518.2,86.3h-1.9v-6.1c0-2.2-0.8-3.3-2.4-3.3c-0.8,0-1.5,0.3-2.1,0.9s-0.8,1.4-0.8,2.4v6.2h-1.9V75.5h1.9v1.8
		l0,0c0.8-1.4,2-2,3.5-2c1.2,0,2.1,0.4,2.7,1.1c0.6,0.8,0.9,1.9,0.9,3.3L518.2,86.3L518.2,86.3z"/>
	<path class="st4" d="M535.5,86.3h-8V71.1h1.9v13.4h6L535.5,86.3L535.5,86.3z"/>
	<path class="st4" d="M545.7,72.9h-4.4v13.4h-2V72.9H535v-1.7h10.7V72.9z"/>
	<path class="st4" d="M548,86.3V71.1h4.3c2.3,0,4.2,0.7,5.7,2s2.3,3.1,2.3,5.4s-0.8,4.2-2.3,5.6s-3.5,2.1-5.9,2.1H548V86.3z
		 M550,72.9v11.7h2.2c1.9,0,3.4-0.5,4.5-1.6c1.1-1,1.6-2.5,1.6-4.4s-0.6-3.3-1.7-4.3c-1.1-1-2.6-1.4-4.4-1.4
		C552.2,72.9,550,72.9,550,72.9z"/>
</g>
<g class="st1">
	<path class="st4" d="M413.6,124.7c-2.2-2.5-3.3-5.6-3.3-9.2s1.1-6.8,3.3-9.4h1.7c-2.2,2.7-3.3,5.8-3.3,9.3s1.1,6.6,3.3,9.2
		L413.6,124.7L413.6,124.7z"/>
	<path class="st4" d="M415.9,113.2h5.1v-5.7h-4.2V106h17.5v1.5h-4v5.7h4.8v1.5h-4.8v8.9h-1.6v-8.9h-6.1c0,2.4-0.4,4.2-1,5.3
		c-0.6,1.3-2.1,2.6-4.4,3.8c-0.3-0.5-0.7-0.9-1.1-1.4c2-1,3.3-2.1,4-3.2c0.6-0.9,0.9-2.4,0.9-4.6h-5.1L415.9,113.2L415.9,113.2z
		 M422.6,113.2h6.1v-5.7h-6.1V113.2z"/>
	<path class="st4" d="M437.6,118.6v-1.1h14.6v1.1c-1.3,1.1-2.9,2-4.8,2.8c2.1,0.5,4.5,0.9,7.3,1.1c-0.3,0.4-0.5,0.9-0.8,1.4
		c-3.3-0.4-6.1-1-8.4-1.8c-2.5,0.8-5.4,1.5-8.7,1.9c-0.2-0.4-0.4-0.8-0.7-1.3c2.8-0.3,5.3-0.7,7.5-1.4c-1.8-0.8-3.2-1.7-4.2-2.8
		h-1.8V118.6z M436.8,112H454v4.7h-1.3v-0.5h-14.6v0.5h-1.3L436.8,112L436.8,112z M438.1,115.2h4v-2.1h-4V115.2z M438.6,105.3h13.5
		v6.2h-1.3V111H440v0.5h-1.3v-6.2H438.6z M450.8,106.4H440v1.2h10.9v-1.2H450.8z M440,109.8h10.9v-1.3H440V109.8z M450.1,118.6h-8.9
		c1.1,0.9,2.6,1.6,4.3,2.2C447.2,120.1,448.7,119.4,450.1,118.6z M443.4,115.2h4v-2.1h-4V115.2z M452.7,113.1h-4v2.1h4V113.1z"/>
	<path class="st4" d="M461.2,123.8h-1.5v-10.1c-0.9,1.1-2,2.2-3.1,3.2c-0.3-0.5-0.6-0.9-0.9-1.4c2.5-2.1,4.5-4.4,5.9-7h-5.3V107h6.1
		c0.4-0.8,0.7-1.6,1-2.5l1.6,0.4c-0.3,0.7-0.5,1.4-0.9,2.1h11v1.4h-11.7c-0.4,0.8-0.8,1.5-1.3,2.2h10.7V121c0,1.6-0.8,2.4-2.4,2.4
		c-0.7,0-1.7,0-3.1,0c-0.1-0.4-0.2-1-0.3-1.6c1.2,0.1,2.2,0.1,2.9,0.1c0.9,0,1.3-0.4,1.3-1.3v-1.4h-9.8v4.6H461.2z M471,112h-9.8
		v2.3h9.8V112z M461.2,118h9.8v-2.3h-9.8V118z"/>
	<path class="st4" d="M482.4,116.2c0.4,2.5-0.2,3.9-1.9,4.2c-0.6,0.1-1.2,0.1-2,0c-0.1-0.5-0.2-1.1-0.4-1.6c0.7,0.2,1.3,0.2,1.8,0.2
		c0.9-0.2,1.2-1.1,0.9-2.8c-0.2-1-0.8-2.2-1.8-3.5c0.5-1.4,1.1-3.3,1.8-5.7h-2.9v17h-1.5v-18.4h5.9v1.4c-0.6,1.8-1.2,3.6-1.8,5.4
		C481.7,113.8,482.3,115.1,482.4,116.2z M483.7,105.6h9.2v9.7h-1.4v-0.5h-3.3c0.4,1.2,1,2.2,1.7,3.2c1.2-0.7,2.4-1.7,3.7-2.8l1,1.2
		c-1.4,1-2.7,1.9-3.8,2.6c1.1,1.1,2.6,2.1,4.3,2.8c-0.5,0.5-0.9,0.9-1.2,1.4c-3.6-1.9-5.9-4.7-7-8.4h-1.7v6.6c0.9-0.4,2-1,3.4-1.7
		c0,0.6,0,1.1,0.1,1.5c-1.2,0.6-2.3,1.2-3.4,1.8c-0.3,0.1-0.6,0.4-1.1,0.8l-1.1-1.5c0.4-0.3,0.6-0.8,0.6-1.3L483.7,105.6
		L483.7,105.6z M491.5,107h-6.4v2.6h6.4V107z M491.5,113.5v-2.6h-6.4v2.6H491.5z"/>
	<path class="st4" d="M495.5,113.8c2.9-2.4,5.1-5.2,6.5-8.4l1.5,0.6c-1.8,3.7-4,6.7-6.8,9C496.5,114.7,496,114.2,495.5,113.8z
		 M508.2,116.3c1.9,2.4,3.4,4.6,4.7,6.6l-1.5,1c-0.4-0.6-0.8-1.2-1.2-1.9c-4.3,0.2-7.8,0.4-10.5,0.6c-0.5,0.1-1.1,0.2-1.8,0.3
		l-0.9-1.7c0.6-0.2,1.1-0.6,1.6-1.1c1.5-1.8,3.2-4.4,5-7.8l1.7,0.8c-1.6,2.8-3.3,5.4-5.2,7.8c2.7-0.1,5.7-0.2,9.1-0.4
		c-0.7-1.1-1.6-2.3-2.4-3.6L508.2,116.3z M506.6,105.7l1.4-0.6c1.3,3.4,3.6,6.1,7,8.1c-0.3,0.4-0.8,0.9-1.2,1.5
		C510.2,112.3,507.8,109.3,506.6,105.7z"/>
	<path class="st4" d="M515.8,109.5h14.9v1.4h-14.9V109.5z M516.9,107.1v-1.4h16.8v15.2c0,1.8-0.8,2.8-2.5,2.8c-0.9,0-2.2,0-3.8,0
		c0-0.4-0.1-1-0.3-1.7c1.6,0.1,2.8,0.1,3.7,0.1s1.3-0.5,1.3-1.6v-13.4H516.9z M517.8,113.2H528v6.9h-8.7v1.4h-1.5V113.2z
		 M526.5,118.7v-4.1h-7.2v4.1H526.5z"/>
	<path class="st4" d="M538.7,124.7H537c2.3-2.6,3.5-5.7,3.5-9.3c0-3.5-1.1-6.6-3.4-9.2h1.7c2.3,2.5,3.5,5.6,3.5,9.2
		C542.2,119,541,122.1,538.7,124.7z"/>
</g>
<g class="st1">
	<path class="st2" d="M26.7,144.6l-0.1-1.2c0.2-0.1,0.5-0.1,0.8-0.2c0.9-0.3,1.5-0.5,2-0.6v-4.7h-2.6v-1h2.6v-3.8h1v3.8h2.3v1h-2.3
		v4.4c0.7-0.2,1.4-0.5,2.2-0.7c0,0.5,0,0.8,0,1.1c0,0-0.1,0-0.2,0.1c-0.9,0.3-1.5,0.5-2,0.6v6c0.1,1.5-0.6,2.2-2,2.3
		c-0.6,0-1.1,0-1.4,0c0-0.1,0-0.1,0-0.2c0-0.4-0.1-0.7-0.2-0.9c0.6,0,1.1,0,1.4,0c0.8,0.1,1.2-0.4,1.2-1.2v-5.5
		c-0.2,0.1-0.4,0.1-0.8,0.3C28.3,144.1,27.6,144.3,26.7,144.6z M33.9,143v-1h9.6v1c-0.9,2.1-2.2,3.9-3.8,5.2c1.4,1,3.4,1.8,5.8,2.4
		c-0.2,0.3-0.4,0.6-0.5,1.1c-2.6-0.7-4.7-1.7-6.1-2.8c-1.6,1.2-3.7,2.1-6.2,2.9c-0.2-0.4-0.4-0.7-0.6-1c2.4-0.6,4.4-1.5,6-2.6
		c-1.4-1.3-2.5-3-3.2-5.2L33.9,143L33.9,143z M43.6,139.1h1.7c-0.1,0.3-0.1,0.6-0.2,1h-1.7c-1.5,0.1-2.2-0.6-2.1-2.1v-3.1h-4.8v0.9
		c0.1,2.3-0.8,4.1-2.7,5.3c-0.3-0.3-0.6-0.6-0.8-0.8c1-0.7,1.6-1.3,2-1.9c0.3-0.6,0.5-1.5,0.5-2.6v-1.9h6.8v3.9c0,0.5,0.1,0.8,0.3,1
		C42.8,139,43.1,139.1,43.6,139.1z M42.3,143h-6.5c0.7,1.9,1.7,3.4,3,4.6C40.4,146.3,41.5,144.8,42.3,143z"/>
	<path class="st2" d="M46.6,141c1.6-1.1,3.2-2.3,4.7-3.5c0.1,0.2,0.2,0.5,0.5,1c-1.5,1.1-3,2.3-4.5,3.5L46.6,141z M55.6,144.6h1
		c0,0.7-0.1,1.4-0.2,2.1c0,0,0,0.1,0,0.2c0,0.2-0.1,0.4-0.1,0.5c2.6,1,5.3,2.1,8.3,3.3l-0.6,1c-3-1.4-5.7-2.5-8.2-3.4
		c-0.9,1.5-3.6,2.7-8.1,3.5c-0.2-0.4-0.3-0.7-0.6-1.1c5.2-0.6,7.9-2,8.3-4.1C55.6,146,55.6,145.4,55.6,144.6z M50.6,136.4
		c-1-0.8-2-1.6-3.1-2.3l0.7-0.8c0.9,0.7,2,1.4,3.1,2.3L50.6,136.4z M49.5,142.5h13v5.7h-1v-4.7H50.6v4.7h-1L49.5,142.5L49.5,142.5z
		 M52.6,141.8c-0.2-0.4-0.4-0.7-0.6-1c3.9-0.9,6.1-2.6,6.3-5.2h-3.1c-0.5,0.9-1.2,1.8-2,2.7c-0.3-0.3-0.6-0.5-0.8-0.7
		c1.4-1.4,2.4-2.9,3.1-4.7l1,0.3c-0.2,0.6-0.5,1.1-0.7,1.6h8.8v1l-1.2,2.4c-0.3-0.1-0.6-0.3-1-0.4l1.1-2.1h-4.2
		c0,0.2-0.1,0.4-0.1,0.6c1,2.6,3,4.1,6,4.7c-0.2,0.3-0.4,0.7-0.6,1c-3.1-0.9-5-2.4-5.8-4.5C58.3,139.3,56.2,140.7,52.6,141.8z"/>
	<path class="st2" d="M84.5,151.3c-5-2.6-7.8-6.8-8.4-12.5c-0.7,5.6-3.5,9.8-8.5,12.7c-0.4-0.4-0.6-0.7-0.8-0.9
		c5-2.9,7.8-7.1,8.5-12.6c0.1-0.7,0.2-1.4,0.2-2.1c0-0.7,0.1-1.6,0.1-2.8h1.1c0,0.2,0,0.5,0,0.9c0,0.9-0.1,1.6-0.1,2.1
		c0.8,7.2,3.7,11.9,8.8,14.1C85,150.6,84.7,151,84.5,151.3z"/>
</g>
<g class="st1">
	<path class="st2" d="M4.8,179.8c-2.1-2.5-3.2-5.6-3.2-9.2c0-3.8,1.1-6.9,3.2-9.4h1c-2.2,2.5-3.3,5.7-3.3,9.4c0,3.5,1.1,6.6,3.3,9.2
		H4.8z"/>
	<path class="st2" d="M6.9,170.4c-0.1-0.3-0.3-0.7-0.5-1.2c2-2.6,3.6-5.6,4.8-9.1l1.1,0.3c-0.6,1.5-1.2,2.9-1.8,4.2v14.2H9.4v-12.1
		C8.6,168,7.8,169.3,6.9,170.4z M12.1,166.8l4.6-0.5c-0.1-1.7-0.2-3.8-0.2-6.2h1.1c0,2.4,0.1,4.5,0.2,6.1l7.2-0.8l0.1,1l-7.3,0.8
		c0.3,3.3,0.9,5.9,1.8,7.8c0.8,1.7,1.8,2.6,2.9,2.6c0.7,0,1.2-0.5,1.4-1.4c0.2-0.7,0.4-1.5,0.5-2.5c0.3,0.1,0.7,0.3,1,0.4
		c-0.1,0.8-0.3,1.6-0.5,2.4c-0.4,1.4-1.2,2.2-2.4,2.2c-1.5,0-2.8-1.1-3.9-3.2c-1-2-1.6-4.7-1.9-8.2l-4.5,0.5L12.1,166.8z
		 M19.7,161.7l0.7-0.7c1.1,0.9,2.2,1.8,3.3,2.8l-0.8,0.8C22.1,163.7,21,162.8,19.7,161.7z"/>
	<path class="st2" d="M44.6,162c-1.9,0.1-4.6,0.2-8.1,0.4v3.9h7.1v7.7c0.1,1.6-0.8,2.4-2.4,2.4c-0.3,0-0.6,0-1,0c-0.3,0-0.7,0-1.3,0
		c0-0.4-0.1-0.8-0.2-1.1c0.2,0,0.5,0,0.8,0c0.1,0,0.3,0,0.5,0s0.4,0,0.8,0c1.2,0,1.8-0.5,1.7-1.5v-6.6h-6v11.5h-1.1v-11.5h-5.8v9.3
		h-1.1v-10.3h6.9v-3.9c-3.5,0.1-6.1,0.2-7.7,0.2c-0.1-0.5-0.1-0.8-0.2-1c6.4-0.1,12.1-0.3,16.9-0.6L44.6,162z"/>
	<path class="st2" d="M46.5,170.4c0.1,0,0.3-0.1,0.6-0.1c1-0.2,1.7-0.4,2.3-0.5v-4.7h-2.7v-1h2.7V160h1v4.2h2.3v1h-2.3v4.4
		c0.2-0.1,0.5-0.1,0.9-0.2c0.6-0.2,1.1-0.3,1.4-0.4c0,0.1,0,0.3,0,0.5s0,0.4,0,0.6c-0.3,0.1-0.8,0.2-1.4,0.3c-0.4,0.1-0.7,0.2-1,0.2
		v6c0,1.3-0.6,2-1.8,2c-0.5,0-1.1,0-1.6,0c0-0.4-0.1-0.8-0.2-1.2c0.3,0,0.8,0,1.6,0c0.7,0,1.1-0.3,1-1v-5.5
		c-0.3,0.1-0.8,0.2-1.5,0.4c-0.5,0.1-1,0.3-1.3,0.3V170.4z M61.3,168.8h1.1v1.9h3.1v0.9h-3.1v4.7c0,1.5-0.8,2.2-2.5,2.2
		c-0.4,0-0.7,0-1.1,0c-0.2,0-0.4,0-0.6,0c-0.2,0-0.4,0-0.8,0c0-0.3-0.1-0.7-0.2-1.1c0.4,0,0.8,0,1.2,0.1c0.2,0,0.3,0,0.5,0
		s0.4,0,0.8,0c0.7,0,1.1-0.1,1.3-0.3s0.3-0.6,0.3-1.2v-4.3h-8.2v-0.9h8.2C61.3,170.8,61.3,168.8,61.3,168.8z M54,162.7h4.8V160h1.1
		v2.7h4.8v0.9h-4.8v3.2h5.7v0.9H53.1v-0.9h5.6v-3.2H54V162.7z M54.1,173.2l0.8-0.7c1.3,1.2,2.2,2.1,2.8,2.7l-0.8,0.7
		C56,175,55.1,174.1,54.1,173.2z"/>
	<path class="st2" d="M71.5,178.8h-1.1v-10.5c-0.9,1-2,2.1-3.3,3.2c-0.2-0.3-0.5-0.6-0.7-0.9c2.6-2.1,4.7-4.5,6.3-7.1h-5.5v-1h6.1
		c0.5-0.9,1-1.8,1.4-2.7l1.1,0.3c-0.5,1-0.9,1.8-1.2,2.4h10.6v1H73.9c-0.5,0.9-1.1,1.8-1.8,2.6h10.6v9.9c0.1,1.5-0.7,2.2-2.3,2.2
		c-0.7,0-1.6,0-2.8,0c-0.1-0.4-0.2-0.8-0.3-1.1c0.8,0,1.7,0,2.8,0c0.6,0,1-0.1,1.2-0.3s0.3-0.6,0.3-1.1V174H71.5V178.8z M71.5,167.2
		v2.6h10.2v-2.6H71.5z M71.5,170.7v2.6h10.2v-2.6H71.5z"/>
	<path class="st2" d="M104.4,178.3c-5-2.6-7.8-6.8-8.4-12.5c-0.7,5.6-3.5,9.8-8.5,12.7c-0.4-0.4-0.6-0.7-0.8-0.9
		c5-2.9,7.8-7.1,8.5-12.6c0.1-0.7,0.2-1.4,0.2-2.1c0-0.7,0.1-1.6,0.1-2.8h1.2c0,0.2,0,0.5,0,0.9c0,0.9-0.1,1.6-0.1,2.1
		c0.8,7.2,3.7,11.9,8.8,14.1C104.9,177.6,104.7,178,104.4,178.3z"/>
	<path class="st2" d="M107.2,179.8h-1c2.2-2.6,3.3-5.7,3.3-9.2c0-3.7-1.1-6.8-3.3-9.4h1c2.2,2.5,3.2,5.6,3.2,9.4
		C110.4,174.3,109.3,177.3,107.2,179.8z"/>
</g>
<g class="st1">
	<path class="st2" d="M510.7,379h-10v10h10V379z M507.4,385.6h-3.3v-3.3h3.3V385.6z"/>
	<path class="st2" d="M524,379h-10v10h10V379z M520.7,385.6h-3.3v-3.3h3.3V385.6z"/>
	<path class="st2" d="M510.7,392.2h-10v10h10V392.2z M507.4,398.9h-3.3v-3.3h3.3V398.9z"/>
	<path class="st2" d="M524,392.2h-10v10h10V392.2z M520.7,398.9h-3.3v-3.3h3.3V398.9z"/>
	<path class="st2" d="M510.7,415.5v-10h-10v10H510.7z M504.1,408.8h3.3v3.3h-3.3V408.8z"/>
	<path class="st2" d="M524,405.5h-10v10h10V405.5z M520.7,412.2h-3.3v-3.3h3.3V412.2z"/>
	<path class="st2" d="M534,375.6v-3.3h-3.3v-6.6h-3.3V359h-29.9v6.6h-3.3v6.6h-3.3v3.3h3.3v43.2h-13.3v-19.9h3.3v-10h-3.3v-2.5
		l-23.3-16.1l-10,6.9V372h-10v12l-3.3,2.3v2.5H431v10h3.3V419c-1.9,0.7-3.3,2.5-3.3,4.7v3.3c0,2.7,2.2,5,5,5h32.4
		c-2.6,3.2-4.2,7.2-4.2,11.6c0,10.1,8.2,18.3,18.3,18.3s18.3-8.2,18.3-18.3c0-4.4-1.6-8.5-4.2-11.6H529c2.7,0,5-2.2,5-5v-3.3
		c0-2.2-1.4-4-3.3-4.7v-43.5h3.3V375.6z M500.8,362.3H524v3.3h-23.3L500.8,362.3L500.8,362.3z M497.5,369h29.9v3.3h-29.9L497.5,369
		L497.5,369z M441,375.4h3.3v4.1l-3.3,2.3V375.4z M437.7,388.1l19.9-13.8l19.9,13.8v0.8h-39.9v-0.8H437.7z M434.3,392.2h46.5v3.3
		h-46.5V392.2z M477.5,398.9v19.9h-13.3v-16.6H451v16.6h-13.3v-19.9H477.5z M460.9,418.8h-6.6v-13.3h6.6V418.8z M482.5,458.7
		c-8.2,0-14.9-6.7-14.9-14.9s6.7-14.9,14.9-14.9s14.9,6.7,14.9,14.9S490.8,458.7,482.5,458.7z M530.7,427.1c0,0.9-0.7,1.7-1.7,1.7
		h-36c-3-2.1-6.6-3.3-10.5-3.3s-7.5,1.2-10.5,3.3h-36c-0.9,0-1.7-0.7-1.7-1.7v-3.3c0-0.9,0.7-1.7,1.7-1.7h93c0.9,0,1.7,0.7,1.7,1.7
		V427.1z M527.4,418.8h-29.9v-43.2h29.9V418.8z"/>
</g>
<g>
	<path class="st2" d="M476.6,452.5v-1.8c1.9-0.6,2.9-1.8,2.9-3.7v-2.2H477V443h2.6v-3c0-1.5,0.4-2.8,1.4-3.7c1-1,2.2-1.5,3.6-1.5
		c1,0,1.9,0.1,2.8,0.6v2.1c-0.8-0.6-1.8-0.7-2.6-0.7c-1.9,0-2.9,1.2-2.9,3.6v2.8h3.9v1.8h-4v1.8c0,1.9-0.8,3.2-2.3,4.1h8.9v1.8
		h-11.7V452.5z"/>
</g>
<g class="st1">
	<g>
		<g>
			<path class="st2" d="M54.6,391H41.9c-0.9,0-1.6,0.7-1.6,1.6v6.3c0,0.9,0.7,1.6,1.6,1.6h12.7c0.9,0,1.6-0.7,1.6-1.6v-6.3
				C56.2,391.7,55.5,391,54.6,391z M46.7,397.3h-3.2v-3.2h3.2V397.3z M53,397.3h-3.2v-3.2H53V397.3z"/>
		</g>
	</g>
	<g>
		<g>
			<path class="st2" d="M54.6,403.7H41.9c-0.9,0-1.6,0.7-1.6,1.6v6.3c0,0.9,0.7,1.6,1.6,1.6h12.7c0.9,0,1.6-0.7,1.6-1.6v-6.3
				C56.2,404.4,55.5,403.7,54.6,403.7z M46.7,410h-3.2v-3.2h3.2V410z M53,410h-3.2v-3.2H53V410z"/>
		</g>
	</g>
	<g>
		<g>
			<path class="st2" d="M54.6,416.3H41.9c-0.9,0-1.6,0.7-1.6,1.6v6.3c0,0.9,0.7,1.6,1.6,1.6h12.7c0.9,0,1.6-0.7,1.6-1.6v-6.3
				C56.2,417,55.5,416.3,54.6,416.3z M46.7,422.7h-3.2v-3.2h3.2V422.7z M53,422.7h-3.2v-3.2H53V422.7z"/>
		</g>
	</g>
	<g>
		<g>
			<path class="st2" d="M111.6,391H98.9c-0.9,0-1.6,0.7-1.6,1.6v6.3c0,0.9,0.7,1.6,1.6,1.6h12.7c0.9,0,1.6-0.7,1.6-1.6v-6.3
				C113.2,391.7,112.5,391,111.6,391z M103.7,397.3h-3.2v-3.2h3.2V397.3z M110,397.3h-3.2v-3.2h3.2V397.3z"/>
		</g>
	</g>
	<g>
		<g>
			<path class="st2" d="M111.6,378.3H98.9c-0.9,0-1.6,0.7-1.6,1.6v6.3c0,0.9,0.7,1.6,1.6,1.6h12.7c0.9,0,1.6-0.7,1.6-1.6v-6.3
				C113.2,379,112.5,378.3,111.6,378.3z M103.7,384.7h-3.2v-3.2h3.2V384.7z M110,384.7h-3.2v-3.2h3.2V384.7z"/>
		</g>
	</g>
	<g>
		<g>
			<path class="st2" d="M73.6,397.3h-6.3c-0.9,0-1.6,0.7-1.6,1.6v6.3c0,0.9,0.7,1.6,1.6,1.6h6.3c0.9,0,1.6-0.7,1.6-1.6v-6.3
				C75.2,398,74.5,397.3,73.6,397.3z M72,403.7h-3.2v-3.2H72V403.7z"/>
		</g>
	</g>
	<g>
		<g>
			<path class="st2" d="M86.3,397.3H80c-0.9,0-1.6,0.7-1.6,1.6v6.3c0,0.9,0.7,1.6,1.6,1.6h6.3c0.9,0,1.6-0.7,1.6-1.6v-6.3
				C87.8,398,87.1,397.3,86.3,397.3z M84.7,403.7h-3.2v-3.2h3.2V403.7z"/>
		</g>
	</g>
	<g>
		<g>
			<path class="st2" d="M73.6,384.7h-6.3c-0.9,0-1.6,0.7-1.6,1.6v6.3c0,0.9,0.7,1.6,1.6,1.6h6.3c0.9,0,1.6-0.7,1.6-1.6v-6.3
				C75.2,385.4,74.5,384.7,73.6,384.7z M72,391h-3.2v-3.2H72V391z"/>
		</g>
	</g>
	<g>
		<g>
			<path class="st2" d="M86.3,384.7H80c-0.9,0-1.6,0.7-1.6,1.6v6.3c0,0.9,0.7,1.6,1.6,1.6h6.3c0.9,0,1.6-0.7,1.6-1.6v-6.3
				C87.8,385.4,87.1,384.7,86.3,384.7z M84.7,391h-3.2v-3.2h3.2V391z"/>
		</g>
	</g>
	<g>
		<g>
			<path class="st2" d="M73.6,372h-6.3c-0.9,0-1.6,0.7-1.6,1.6v6.3c0,0.9,0.7,1.6,1.6,1.6h6.3c0.9,0,1.6-0.7,1.6-1.6v-6.3
				C75.2,372.7,74.5,372,73.6,372z M72,378.3h-3.2v-3.2H72V378.3z"/>
		</g>
	</g>
	<g>
		<g>
			<path class="st2" d="M86.3,372H80c-0.9,0-1.6,0.7-1.6,1.6v6.3c0,0.9,0.7,1.6,1.6,1.6h6.3c0.9,0,1.6-0.7,1.6-1.6v-6.3
				C87.8,372.7,87.1,372,86.3,372z M84.7,378.3h-3.2v-3.2h3.2V378.3z"/>
		</g>
	</g>
	<g>
		<g>
			<path class="st2" d="M73.6,416.3h-6.3c-0.9,0-1.6,0.7-1.6,1.6v6.3c0,0.9,0.7,1.6,1.6,1.6h6.3c0.9,0,1.6-0.7,1.6-1.6v-6.3
				C75.2,417,74.5,416.3,73.6,416.3z M72,422.7h-3.2v-3.2H72V422.7z"/>
		</g>
	</g>
	<g>
		<g>
			<rect x="40.3" y="429" class="st2" width="3.2" height="3.2"/>
		</g>
	</g>
	<g>
		<g>
			<rect x="46.7" y="429" class="st2" width="3.2" height="3.2"/>
		</g>
	</g>
	<g>
		<g>
			<rect x="53" y="429" class="st2" width="3.2" height="3.2"/>
		</g>
	</g>
	<g>
		<g>
			<path class="st2" d="M127.4,410h-7.9v-36.4c0-0.9-0.7-1.6-1.6-1.6h-11.1v-2.5l1.7-1.7c1.4,1,3,1.6,4.7,1.6c2,0,4-0.8,5.6-2.3
				l0.3-0.3c0.6-0.6,0.6-1.6,0-2.2l-3.6-3.6l3.6-3.6l-2.2-2.2l-3.6,3.6l-5.2-5.2c-0.3-0.3-0.7-0.5-1.1-0.5c-0.6,0-1,0.3-1.3,0.6
				c-1.6,1.4-2.5,3.4-2.5,5.5s0.8,4.2,2.3,5.7l0.8,0.8l-2,2c-0.3,0.3-0.5,0.7-0.5,1.1v3.2h-9.5v-4.8c0-0.9-0.7-1.6-1.6-1.6H87l-9-12
				c-0.6-0.8-1.9-0.8-2.5,0l-9,12H61c-0.9,0-1.6,0.7-1.6,1.6v17.4h-9.5V372h-3.2v12.7H35.6c-0.9,0-1.6,0.7-1.6,1.6v60.2
				c0,0.9,0.7,1.6,1.6,1.6h25.3H72h12.7h1.6h9.5h25.3c4.4,0,7.9-3.6,7.9-7.9v-28.5C129,410.7,128.3,410,127.4,410z M59.3,444.8H37.2
				v-57h22.2v57H59.3z M106.9,356.9l8.7,8.7c-1.8,1.1-4.2,0.8-5.7-0.7l-2.2-2.2c-0.9-0.9-1.4-2.1-1.4-3.4
				C106.3,358.4,106.5,357.6,106.9,356.9z M76.8,357.2l6.3,8.4H70.4L76.8,357.2z M70.4,432.2v12.7h-7.9v-58.6v-17.4H91v4.8v28.5h3.2
				v-26.9h22.2V410h-3.2v-1.6c0-2.6-2.1-4.8-4.8-4.8h-9.5c-2.6,0-4.8,2.1-4.8,4.8v1.6H79.9c-0.9,0-1.6,0.7-1.6,1.6V429H65.7v3.2
				H70.4z M110,408.4v1.6H97.3v-1.6c0-0.9,0.7-1.6,1.6-1.6h9.5C109.3,406.8,110,407.5,110,408.4z M73.6,444.8v-12.7h4.8v7.9
				c0,1.8,0.6,3.4,1.6,4.8L73.6,444.8L73.6,444.8z M125.8,440.1c0,2.6-2.1,4.8-4.8,4.8H95.8h-9.5c-2.6,0-4.8-2.1-4.8-4.8v-15.9
				c1.3,1,3,1.6,4.8,1.6h1.6v4.8c0,0.9,0.7,1.6,1.6,1.6h6.3c0.9,0,1.6-0.7,1.6-1.6v-4.8H99h9.5h1.6v4.8c0,0.9,0.7,1.6,1.6,1.6h6.3
				c0.9,0,1.6-0.7,1.6-1.6v-4.8h1.6c1.8,0,3.4-0.6,4.8-1.6v15.9H125.8z M91,429v-3.2h3.2v3.2H91z M100.5,422.7v-3.2h6.3v3.2H100.5z
				 M113.2,429v-3.2h3.2v3.2H113.2z M125.8,417.9c0,2.6-2.1,4.8-4.8,4.8h-3.2h-6.3H110v-4.8c0-0.9-0.7-1.6-1.6-1.6h-9.5
				c-0.9,0-1.6,0.7-1.6,1.6v4.8h-1.6h-6.3h-3.2c-2.6,0-4.8-2.1-4.8-4.8v-4.8h44.3v4.8H125.8z"/>
		</g>
	</g>
	<g>
		<g>
			<rect x="119.5" y="438.5" class="st2" width="3.2" height="3.2"/>
		</g>
	</g>
	<g>
		<g>
			<rect x="113.2" y="438.5" class="st2" width="3.2" height="3.2"/>
		</g>
	</g>
	<g>
		<g>
			<rect x="106.8" y="438.5" class="st2" width="3.2" height="3.2"/>
		</g>
	</g>
</g>
<g>
	<circle class="st5" cx="56.1" cy="58.7" r="15.8"/>
	<line class="st5" x1="43.4" y1="83.4" x2="56.1" y2="97.9"/>
	<line class="st5" x1="68.4" y1="83.4" x2="56.1" y2="97.9"/>
	<line class="st5" x1="56.1" y1="112.3" x2="56.1" y2="97.9"/>
	<path class="st5" d="M89.9,104v3.4c0,3.1-2.5,5.6-5.6,5.6H27.7c-3.1,0-5.6-2.5-5.6-5.6V104"/>
	<path class="st5" d="M27.7,98.4"/>
	<path class="st5" d="M22.1,105.6C22.1,92.8,32.7,83,45.4,83h21.2c12.8,0,23.2,10.5,23.2,23.2l0,0"/>
</g>
</svg>
