<?xml version="1.0" encoding="utf-8"?>
<!-- Generator: Adobe Illustrator 22.1.0, SVG Export Plug-In . SVG Version: 6.00 Build 0)  -->
<svg version="1.1" id="运作原理" xmlns="http://www.w3.org/2000/svg" xmlns:xlink="http://www.w3.org/1999/xlink" x="0px"
	 y="0px" viewBox="0 0 705 383" style="enable-background:new 0 0 705 383;" xml:space="preserve">
<style type="text/css">
	.st0{fill:none;stroke:#90A7AB;}
	.st1{fill:none;stroke:#70DBCB;}
	.st2{enable-background:new    ;}
	.st3{fill:#456E68;}
	.st4{fill:#9FE7DD;stroke:#34B9A1;stroke-width:2;}
	.st5{fill:#17161F;}
	.st6{font-family:'MicrosoftYaHeiUILight';}
	.st7{font-size:20px;}
	.st8{fill:none;stroke:#456E68;stroke-width:1.5;stroke-miterlimit:10;}
	.st9{fill:#70DBCB;}
</style>
<path id="形状_1_拷贝_3" class="st0" d="M63.1,175.9l0.1,71.4l4.6-2"/>
<path id="形状_1_拷贝_5" class="st0" d="M622,153l-0.1-71l-4.6,2"/>
<path id="形状_1" class="st0" d="M108,89h90.5l42.5,42.5l-0.3-5.5"/>
<path id="形状_1_拷贝_2" class="st0" d="M240.7,162h-90.2l-42.4-42.9l0.3,5.6"/>
<path id="形状_1_拷贝" class="st0" d="M560,201h-88.4L430,242.3l0.3-5.4"/>
<path id="形状_1_拷贝_4" class="st0" d="M430.3,272h88.2l41.4-41.7l-0.3,5.4"/>
<circle id="椭圆_7-2" class="st1" cx="487.3" cy="167" r="19"/>
<g class="st2">
	<path class="st3" d="M475.5,300c1.6-1.1,3.2-2.3,4.7-3.5c0.1,0.2,0.2,0.5,0.5,1c-1.5,1.1-3,2.3-4.5,3.5L475.5,300z M484.5,303.7h1
		c0,0.7-0.1,1.4-0.2,2.1c0,0,0,0.1,0,0.2c0,0.2-0.1,0.4-0.1,0.5c2.6,1,5.4,2.1,8.3,3.3l-0.6,1c-3-1.4-5.8-2.5-8.2-3.4
		c-0.9,1.5-3.6,2.7-8.1,3.5c-0.2-0.4-0.3-0.7-0.6-1.1c5.2-0.6,7.9-2,8.3-4.1C484.5,305.1,484.5,304.4,484.5,303.7z M479.4,295.4
		c-1-0.8-2-1.6-3.1-2.3l0.7-0.8c0.9,0.7,2,1.4,3.1,2.3L479.4,295.4z M478.4,301.5h13v5.7h-1v-4.7h-11v4.7h-1V301.5z M481.5,300.8
		c-0.2-0.4-0.4-0.7-0.6-1c4-0.9,6.1-2.6,6.3-5.2h-3.1c-0.5,0.9-1.2,1.8-2,2.7c-0.3-0.3-0.6-0.5-0.8-0.7c1.4-1.4,2.4-2.9,3.1-4.7
		l1,0.3c-0.2,0.6-0.5,1.1-0.7,1.6h8.9v1l-1.2,2.4c-0.3-0.1-0.6-0.3-1-0.4l1.1-2.1h-4.2c0,0.2-0.1,0.4-0.1,0.6c1,2.6,3,4.1,6.1,4.7
		c-0.2,0.3-0.4,0.7-0.6,1c-3.1-0.9-5-2.4-5.9-4.5C487.1,298.3,485.1,299.8,481.5,300.8z"/>
	<path class="st3" d="M513.7,299.1c-3.7-1.4-6.6-3.3-8.8-5.8c-2.2,2.4-5.1,4.4-8.8,6c-0.1-0.2-0.4-0.5-0.7-0.9
		c4.3-1.9,7.5-4.1,9.3-6.6l1.2,0.2c0,0.1-0.1,0.1-0.2,0.2s-0.2,0.2-0.2,0.3c2.3,2.5,5.2,4.3,8.7,5.5
		C514,298.5,513.8,298.8,513.7,299.1z M498.7,298.4h12v1h-5.3v3.2h7v1h-7v5.5h8.3v1H496v-1h8.3v-5.5h-7v-1h7v-3.2h-5.6L498.7,298.4
		L498.7,298.4z M498.3,305.2l0.8-0.6c0.9,0.9,1.8,1.8,2.6,2.7l-0.9,0.7C500.2,307.2,499.4,306.3,498.3,305.2z M508.6,308l-0.8-0.7
		c0.9-0.8,1.8-1.7,2.8-2.7l0.9,0.6C510.4,306.2,509.5,307.2,508.6,308z"/>
</g>
<g class="st2">
	<path class="st3" d="M569.9,269h1.1v2h9v1h-9v2.8h7.4v7.6h-1.1v-1.3h-12.5c-0.1,2.5-1,4.7-2.5,6.7c-0.3-0.3-0.7-0.6-1-0.7
		c1-1.3,1.7-2.6,2-3.8c0.3-1.2,0.5-3,0.5-5.6v-3h6.1V269z M565,277.7c0,0.9,0,1.7-0.1,2.4h12.4v-4.3H565V277.7z"/>
	<path class="st3" d="M585.9,276.8h1v2.4h3.2v0.9h-3.2v1.7l0.4-0.5c1,0.7,1.9,1.3,2.7,1.9l-0.6,0.8c-0.9-0.8-1.8-1.4-2.5-1.9v5.8h-1
		v-6.4c-0.8,1.7-2.1,3.2-3.7,4.6c-0.3-0.3-0.5-0.6-0.8-0.9c1.8-1.3,3.3-2.9,4.4-4.9h-3.7v-0.9h3.8L585.9,276.8L585.9,276.8z
		 M599.5,276.9c-3.5-0.8-6.2-2.1-8.1-3.9v4.3h-1V273c-2,1.8-4.7,3.2-8,4.1c-0.2-0.4-0.4-0.7-0.6-1c3.2-0.7,6-1.9,8.2-3.7h-7.3v-0.9
		h7.7V269h1v2.5h7.9v0.9h-7.5c2.3,1.8,5.1,2.9,8.3,3.5C599.9,276.2,599.7,276.5,599.5,276.9z M590,286.2c-0.3-0.3-0.5-0.6-0.8-0.8
		c1.9-1.2,3.6-3,5-5.3h-3.1v-0.9h3.2v-2.3h1v2.3h4.2v0.9h-4.1c1.3,2.1,2.9,3.8,5,4.9c-0.3,0.3-0.6,0.6-0.8,0.9
		c-2-1.3-3.4-2.9-4.3-4.6v6.5h-1v-6.5C593.3,283.2,591.9,284.8,590,286.2z"/>
	<path class="st3" d="M602,276.9c-0.2-0.3-0.4-0.6-0.6-0.9c1.9-1.9,3.4-4.2,4.6-7l1,0.4c-0.7,1.4-1.3,2.6-1.9,3.6v8.2h-1v-6.7
		C603.4,275.3,602.7,276.1,602,276.9z M610.4,280.8h1v1.8h7.1v0.9h-7.1v2.4h8.9v0.9h-18.8V286h8.9v-2.4h-7.1v-0.9h7.1L610.4,280.8
		L610.4,280.8z M606.3,280.1c2.6-0.8,4.5-1.8,5.6-3h-5.3v-0.9h6.2v-1.8h-4.4V270h9.9v4.4h-4.5v1.8h6.1v0.9h-5.3
		c1.3,1.2,3.1,2.2,5.5,2.8c-0.3,0.4-0.5,0.7-0.6,0.9c-2.6-0.8-4.6-2-5.8-3.5v3.9h-1v-3.8c-1.5,1.6-3.4,2.8-5.8,3.6
		C606.8,280.7,606.6,280.4,606.3,280.1z M609.3,270.9v2.7h7.9v-2.7H609.3z"/>
	<path class="st3" d="M621.6,277c1.6-1.1,3.2-2.3,4.7-3.5c0.1,0.2,0.2,0.5,0.5,1c-1.5,1.1-3,2.3-4.5,3.5L621.6,277z M630.6,280.7h1
		c0,0.7-0.1,1.4-0.2,2.1c0,0,0,0.1,0,0.2c0,0.2-0.1,0.4-0.1,0.5c2.6,1,5.4,2.1,8.3,3.3l-0.6,1c-3-1.4-5.8-2.5-8.2-3.4
		c-0.9,1.5-3.6,2.7-8.1,3.5c-0.2-0.4-0.3-0.7-0.6-1.1c5.2-0.6,7.9-2,8.3-4.1C630.5,282.1,630.6,281.4,630.6,280.7z M625.5,272.4
		c-1-0.8-2-1.6-3.1-2.3l0.7-0.8c0.9,0.7,2,1.4,3.1,2.3L625.5,272.4z M624.5,278.5h13v5.7h-1v-4.7h-11v4.7h-1V278.5z M627.6,277.8
		c-0.2-0.4-0.4-0.7-0.6-1c4-0.9,6.1-2.6,6.3-5.2h-3.1c-0.5,0.9-1.2,1.8-2,2.7c-0.3-0.3-0.6-0.5-0.8-0.7c1.4-1.4,2.4-2.9,3.1-4.7
		l1,0.3c-0.2,0.6-0.5,1.1-0.7,1.6h8.9v1l-1.2,2.4c-0.3-0.1-0.6-0.3-1-0.4l1.1-2.1h-4.2c0,0.2-0.1,0.4-0.1,0.6c1,2.6,3,4.1,6.1,4.7
		c-0.2,0.3-0.4,0.7-0.6,1c-3.1-0.9-5-2.4-5.9-4.5C633.2,275.3,631.1,276.8,627.6,277.8z"/>
	<path class="st3" d="M643.5,276.9h9.4c0.8-1.2,1.5-2.4,2.3-3.8l1,0.5c-0.7,1-1.4,2.1-2.2,3.2h5.7v1h-15.2v1.5
		c0.1,3.5-0.7,6.3-2.3,8.4c-0.3-0.3-0.6-0.6-0.9-0.8c0.8-1,1.3-2,1.6-3.2c0.3-1.1,0.5-2.6,0.5-4.5v-2.3L643.5,276.9L643.5,276.9z
		 M650.4,269.3l1.1-0.3c0.3,0.9,0.6,1.6,0.8,2.3h8v1h-18.4v-1h9.2c-0.1-0.4-0.3-1-0.6-1.8C650.4,269.4,650.4,269.3,650.4,269.3z
		 M646.3,273.6l0.9-0.6c0.6,0.7,1.3,1.7,2.2,2.9l-1,0.6C647.7,275.5,647,274.5,646.3,273.6z"/>
	<path class="st3" d="M661.8,282.3c-0.2-0.5-0.3-0.9-0.4-1.2c1.2-2,2.1-4.4,2.8-7.1v-0.1h-2.5V273h2.5v-3.9h1v3.9h2.1v0.9h-2.1v3.2
		l0.5-0.4c0.8,0.8,1.6,1.5,2.2,2.3l-0.8,0.7c-0.8-0.9-1.4-1.6-2-2.2v10.4h-1v-11.5C663.6,278.7,662.8,280.7,661.8,282.3z M667,282.6
		h5.8c0.1-0.6,0.2-1.2,0.2-2h-4.5v-6.4h10.2v6.4H674c0,0.7-0.1,1.3-0.2,2h6.2v0.9h-5.7c1,1.7,3,2.7,6,3.1c-0.2,0.2-0.3,0.6-0.5,1
		c-3.2-0.6-5.3-1.9-6.3-3.8c-0.7,1.8-2.8,3.2-6.3,4.1c-0.2-0.3-0.4-0.7-0.6-1c3.4-0.7,5.4-1.9,5.9-3.4H667V282.6z M667.3,270.9h3.4
		V269h1v1.9h3.7V269h1v1.9h3.5v0.9h-3.5v1.6h-1v-1.6h-3.7v1.6h-1v-1.6h-3.4V270.9z M669.6,275.1v1.9h8.1v-1.9H669.6z M669.6,277.9
		v1.9h8.1v-1.9H669.6z"/>
	<path class="st3" d="M681.8,284.6l-0.3-1.1c0.6-0.1,1.6-0.4,2.8-0.7V275h-2.6v-1h2.6v-4.8h1v4.8h2.5v1h-2.5v7.5
		c0.3-0.1,0.9-0.2,1.5-0.4c0.5-0.1,0.9-0.3,1.2-0.3c0,0.3,0,0.7,0.1,1.1C685.8,283.4,683.7,284,681.8,284.6z M687.6,278.7h4.5
		c0.1-0.9,0.2-2.6,0.2-5.2h-3.6v-1h3.6c0-0.4,0-0.8,0-1.3c0-0.2,0-0.5,0-0.8s0-0.7,0-1.2h1.1c0,0.9,0,1.6,0,2.1s0,1,0,1.4h4.9v6.2
		h1.9v1h-6.5c1.2,3.1,3.3,5.4,6.5,6.8c-0.3,0.3-0.5,0.7-0.7,1c-3.5-1.8-5.7-4.3-6.6-7.5c-0.5,2.8-2.4,5.4-5.8,7.8
		c-0.2-0.3-0.5-0.6-0.8-0.9c3.3-2.2,5.3-4.6,5.7-7.2h-4.4L687.6,278.7L687.6,278.7z M697.2,273.5h-3.8c0,2.2-0.1,3.9-0.2,5.2h4
		V273.5z"/>
</g>
<g class="st2">
	<path class="st3" d="M18.2,371.3c-3.9-1.9-6.8-4.1-8.7-6.7c-2.3,2.8-5.2,5.1-8.8,6.9c-0.3-0.4-0.6-0.7-0.8-0.9
		c4.3-2.2,7.4-4.7,9.4-7.5l1.2,0.2c0,0-0.1,0.1-0.1,0.2c-0.1,0.1-0.2,0.3-0.3,0.3c2.1,2.7,5,4.9,8.8,6.5
		C18.8,370.5,18.5,370.8,18.2,371.3z M3.3,370.7h12.4v1h-5.6v3.5h6.4v1h-6.4v3.8h8.1v1H0.9v-1H9v-3.8H2.6v-1H9v-3.5H3.3V370.7z"/>
	<path class="st3" d="M20.2,380.2l-0.2-1.1c0.8-0.1,1.7-0.2,2.7-0.4v-6h-2.4v-0.9h2.4v-5.3h-2.6v-0.9h6.2v0.9h-2.5v5.3H26v0.9h-2.2
		v5.8c0.9-0.2,1.8-0.3,2.7-0.5c0,0.1,0,0.5,0,1C24.1,379.5,22,379.8,20.2,380.2z M26.9,367.1h5v-3.6h1v3.6h5.7v1H33v0.8
		c0.4,1.7,0.8,3.1,1.4,4.3c1.2-1.1,2.2-2.2,3.1-3.3l0.8,0.7c-0.9,1-2.1,2.2-3.5,3.4c0.9,1.7,2.3,3.3,4.2,4.9
		c-0.3,0.3-0.5,0.5-0.8,0.9c-2.7-2.4-4.5-5-5.3-7.9v7.6c0.1,1.5-0.7,2.3-2.5,2.3c-0.4,0-1,0-1.8,0c0-0.4-0.1-0.8-0.2-1.1
		c0.4,0,1.1,0.1,1.9,0.1c0.6,0,1-0.1,1.2-0.3c0.2-0.2,0.3-0.6,0.3-1.2v-3.9c-1.7,1.2-3.3,2.2-4.7,3.1l-0.7-1
		c2.1-1.2,3.9-2.3,5.4-3.3v-5.9h-5L26.9,367.1L26.9,367.1z M27.2,370.4l0.9-0.5c0.8,1,1.5,2.1,2.3,3.3l-0.9,0.6
		C28.7,372.6,28,371.5,27.2,370.4z M34.1,364.8l0.6-0.7c0.9,0.6,1.8,1.2,2.6,1.8l-0.7,0.7C35.9,366.1,35.1,365.5,34.1,364.8z"/>
	<path class="st3" d="M46.2,371.9c1,2,2.1,3.6,3.4,4.8c1.2-1.1,2.3-2.7,3.3-5l1,0.4c-1,2.3-2.2,4-3.5,5.2c1.8,1.4,4.5,2.5,8.3,3.4
		c-0.2,0.3-0.4,0.6-0.6,1.1c-3.9-1-6.8-2.3-8.5-3.7c-1.7,1.4-4.5,2.7-8.6,3.9l-0.6-1.1c4-1.1,6.8-2.2,8.4-3.5
		c-1.2-1.2-2.4-2.8-3.5-5L46.2,371.9z M40.4,366.2h9.1c-0.3-0.8-0.8-1.6-1.4-2.5l1-0.5c0.6,0.9,1,1.7,1.4,2.5l-0.9,0.5h8.9v1H40.4
		V366.2z M46.4,368.4l0.9,0.9c-1.8,1.5-3.8,3-5.9,4.4c-0.2-0.3-0.4-0.6-0.7-1C42.7,371.5,44.6,370.1,46.4,368.4z M57.6,373.3
		c-1.7-1.3-3.7-2.7-5.8-4.1l0.7-0.8c1.8,1.2,3.8,2.5,5.9,3.9L57.6,373.3z"/>
	<path class="st3" d="M60.9,377c-0.1-0.2-0.4-0.5-0.7-0.8c2.1-1.2,3.7-2.8,5-4.6l1,0.4c-0.4,0.5-0.8,1-1.2,1.5h12.5
		c0,1.4-0.1,2.9-0.2,4.5c-0.1,2.7-1.4,4-3.8,3.9c-0.7,0-1.5,0-2.3,0c0-0.3-0.1-0.7-0.2-1.1c0.9,0.1,1.7,0.1,2.5,0.1
		c0.1,0,0.2,0,0.3,0c1.6,0,2.5-1,2.5-2.9c0.1-1.4,0.2-2.6,0.2-3.5h-3.2c-0.7,3.4-3,6-6.9,7.8c-0.3-0.3-0.5-0.6-0.7-0.9
		c3.7-1.7,5.9-4,6.5-7h-3.3c-1.2,2.9-3.9,5.1-8.1,6.7c-0.2-0.3-0.4-0.6-0.7-0.9c4-1.5,6.5-3.4,7.7-5.8h-3.6
		C63.3,375.3,62.2,376.2,60.9,377z M62.7,364.2h13.9v7.1H62.7V364.2z M63.8,365.1v2.1h11.9v-2.1H63.8z M63.8,368.1v2.2h11.9v-2.2
		H63.8z"/>
	<path class="st3" d="M81.1,364.3H98v1h-7.9v8.6h8.8v1.1h-8.8v7.2H89V375h-8.7v-1.1H89v-8.6h-7.8L81.1,364.3L81.1,364.3z
		 M82.2,367.7l0.9-0.6c1.2,1.4,2.3,3,3.5,4.6l-1,0.7C84.7,370.9,83.5,369.4,82.2,367.7z M93,372.4l-0.9-0.7c1.4-1.4,2.6-3,3.7-4.6
		l1,0.6C95.7,369.2,94.4,370.8,93,372.4z"/>
	<path class="st3" d="M118.1,372.3c-0.7-0.7-1.2-1.2-1.6-1.6c-5.8,0.1-10.2,0.3-13.4,0.5c-0.8,0-1.4,0.1-1.9,0.2l-0.5-1.2
		c0.5-0.2,1-0.5,1.5-0.9c2.3-1.9,4.3-4,6.1-6.2l1.1,0.6c-1.8,2-4,4.1-6.5,6.3c1.5,0,4-0.1,7.5-0.2c1.7-0.1,3.4-0.1,5.2-0.2
		c-0.7-0.7-1.7-1.7-3.1-3.1l0.9-0.6c1.7,1.6,3.7,3.5,5.7,5.6L118.1,372.3z M116.3,373.6v8.5h-1.1v-1.3h-11.4v1.3h-1.1v-8.5H116.3z
		 M103.8,374.6v5.2h11.4v-5.2H103.8z"/>
</g>
<circle id="椭圆_6" class="st4" cx="339" cy="187" r="94"/>
<g class="st2">
	<path class="st5" d="M286.1,187H284v-7.5h-8.4v7.5h-2.1v-16.6h2.1v7.2h8.4v-7.2h2.1V187z"/>
	<path class="st5" d="M289.4,181.2c0-2,0.5-3.5,1.6-4.6s2.6-1.7,4.5-1.7c1.8,0,3.2,0.5,4.2,1.6s1.5,2.6,1.5,4.5s-0.5,3.4-1.6,4.5
		s-2.5,1.7-4.4,1.7c-1.8,0-3.2-0.6-4.3-1.7C289.9,184.5,289.4,183,289.4,181.2z M291.5,181.1c0,1.4,0.3,2.4,1,3.2s1.6,1.2,2.8,1.2
		c1.2,0,2.1-0.4,2.8-1.2c0.6-0.8,0.9-1.9,0.9-3.3c0-1.4-0.3-2.6-0.9-3.3c-0.6-0.8-1.5-1.2-2.8-1.2c-1.2,0-2.1,0.4-2.8,1.2
		S291.5,179.7,291.5,181.1z"/>
	<path class="st5" d="M314,187h-2.1v-1.9l0,0c-0.8,1.4-2,2.1-3.7,2.1c-2.8,0-4.2-1.7-4.2-5v-7.1h2.1v6.8c0,2.4,0.9,3.6,2.8,3.6
		c0.9,0,1.7-0.3,2.2-1s0.8-1.5,0.8-2.6v-6.8h2.1L314,187L314,187z"/>
	<path class="st5" d="M317.1,184.4c1.1,0.8,2.2,1.1,3.4,1.1c1.6,0,2.5-0.5,2.5-1.6c0-0.5-0.2-0.8-0.5-1.1c-0.4-0.3-1.1-0.7-2.2-1.1
		c-1.3-0.5-2.2-1.1-2.6-1.6s-0.6-1.1-0.6-1.9c0-1.1,0.4-1.9,1.3-2.5s2-1,3.3-1c1,0,1.9,0.2,2.8,0.5v2c-0.9-0.6-1.9-0.9-3-0.9
		c-0.7,0-1.2,0.1-1.6,0.4c-0.4,0.3-0.6,0.7-0.6,1.2s0.2,0.8,0.5,1.1s1,0.6,2,1c1.3,0.5,2.2,1,2.7,1.5s0.7,1.2,0.7,2
		c0,1.1-0.4,1.9-1.3,2.6c-0.9,0.6-2,0.9-3.5,0.9c-1.2,0-2.3-0.2-3.2-0.7L317.1,184.4L317.1,184.4z"/>
	<path class="st5" d="M337.6,181.6h-8.3c0,1.3,0.4,2.2,1,2.9s1.6,1,2.8,1c1.3,0,2.6-0.4,3.7-1.3v1.9c-1,0.7-2.4,1.1-4.2,1.1
		c-1.7,0-3.1-0.5-4-1.6c-1-1.1-1.4-2.6-1.4-4.5c0-1.8,0.5-3.3,1.6-4.5s2.4-1.8,3.9-1.8c1.6,0,2.8,0.5,3.6,1.5c0.9,1,1.3,2.4,1.3,4.2
		V181.6z M335.5,179.9c0-1.1-0.3-1.9-0.8-2.5s-1.2-0.9-2.1-0.9c-0.8,0-1.6,0.3-2.2,0.9s-1,1.4-1.2,2.4h6.3L335.5,179.9L335.5,179.9z
		"/>
	<path class="st5" d="M350.7,172.3h-4.8V187h-2.2v-14.7H339v-1.9h11.7V172.3z"/>
	<path class="st5" d="M349.8,181.2c0-2,0.5-3.5,1.6-4.6s2.6-1.7,4.5-1.7c1.8,0,3.2,0.5,4.2,1.6s1.5,2.6,1.5,4.5s-0.5,3.4-1.6,4.5
		c-1.1,1.2-2.5,1.7-4.4,1.7c-1.8,0-3.2-0.6-4.3-1.7C350.3,184.5,349.8,183,349.8,181.2z M351.9,181.1c0,1.4,0.3,2.4,1,3.2
		s1.6,1.2,2.8,1.2c1.2,0,2.1-0.4,2.8-1.2c0.6-0.8,0.9-1.9,0.9-3.3c0-1.4-0.3-2.6-0.9-3.3s-1.5-1.2-2.8-1.2c-1.2,0-2.1,0.4-2.8,1.2
		C352.3,178.6,351.9,179.7,351.9,181.1z"/>
	<path class="st5" d="M374.6,187h-2.9l-5.1-5.7l0,0v5.7h-2.1v-17.6h2.1v11.2l0,0l4.8-5.4h2.7l-5.4,5.7L374.6,187z"/>
	<path class="st5" d="M385.7,181.6h-8.3c0,1.3,0.4,2.2,1,2.9s1.6,1,2.8,1c1.3,0,2.6-0.4,3.7-1.3v1.9c-1,0.7-2.4,1.1-4.2,1.1
		c-1.7,0-3.1-0.5-4-1.6s-1.4-2.6-1.4-4.5c0-1.8,0.5-3.3,1.6-4.5s2.4-1.8,3.9-1.8c1.6,0,2.8,0.5,3.6,1.5c0.9,1,1.3,2.4,1.3,4.2V181.6
		z M383.6,179.9c0-1.1-0.3-1.9-0.8-2.5s-1.2-0.9-2.1-0.9c-0.8,0-1.6,0.3-2.2,0.9s-1,1.4-1.2,2.4h6.3L383.6,179.9L383.6,179.9z"/>
	<path class="st5" d="M398.6,187h-2.1v-6.8c0-2.4-0.9-3.7-2.7-3.7c-0.9,0-1.7,0.3-2.3,1c-0.6,0.7-0.9,1.6-0.9,2.6v6.8h-2.1V175h2.1
		v2l0,0c0.9-1.5,2.2-2.2,3.9-2.2c1.3,0,2.3,0.4,3,1.3s1,2.1,1,3.6v7.3L398.6,187L398.6,187z"/>
</g>
<g class="st2">
	<path class="st5" d="M330.2,225h-8.8v-16.6h2.1v14.7h6.6L330.2,225L330.2,225z"/>
	<path class="st5" d="M341.5,210.3h-4.8V225h-2.2v-14.7h-4.8v-1.9h11.7L341.5,210.3L341.5,210.3z"/>
	<path class="st5" d="M344.1,225v-16.6h4.7c2.5,0,4.6,0.7,6.3,2.2c1.7,1.5,2.5,3.4,2.5,5.9c0,2.6-0.8,4.6-2.5,6.2
		c-1.7,1.6-3.8,2.3-6.5,2.3L344.1,225L344.1,225z M346.2,210.3v12.8h2.4c2.1,0,3.8-0.6,4.9-1.7c1.2-1.2,1.8-2.8,1.8-4.8
		s-0.6-3.6-1.8-4.7c-1.2-1-2.8-1.6-4.8-1.6H346.2z"/>
</g>
<g class="st2">
	<path class="st3" d="M108.5,63.9c-0.2-0.3-0.5-0.6-0.8-0.8c1.9-1.6,3.4-3.5,4.4-5.6l1.1,0.2c-0.1,0.3-0.4,0.7-0.7,1.2
		c-0.1,0.2-0.2,0.3-0.2,0.4h13.8v1h-14.4C110.8,61.5,109.7,62.7,108.5,63.9z M109.5,73.3l0.9-4.9h-2.7v-1h2.8l0.9-4.9h12.5
		c0,0.5-0.1,1.4-0.1,2.5s-0.1,1.9-0.1,2.5h2.9v1h-2.9c0,0.5-0.1,1.3-0.1,2.3c0,0.8-0.1,1.3-0.1,1.7h2.4v1h-2.5c-0.2,2-1.2,3-3.1,2.9
		c-0.4,0-0.9,0-1.3,0c-0.2,0-0.4,0-0.6,0s-0.4,0-0.8,0c0-0.4-0.1-0.8-0.2-1.2c0.7,0.1,1.5,0.1,2.6,0.1c0.1,0,0.2,0,0.3,0
		c1.2,0,1.9-0.6,2-1.9L109.5,73.3L109.5,73.3z M122.4,72.3c0-0.2,0-0.5,0-1c0.1-1.3,0.1-2.2,0.1-3h-11.1l-0.7,4H122.4z M112.4,63.4
		l-0.7,4h11c0-0.5,0.1-1.4,0.1-2.4c0-0.7,0-1.2,0.1-1.5L112.4,63.4L112.4,63.4z M115.3,69.7L116,69c1,0.7,1.8,1.4,2.5,1.9l-0.7,0.8
		C117,71,116.2,70.3,115.3,69.7z M115.5,64.7l0.7-0.7c0.8,0.6,1.7,1.3,2.5,1.9l-0.7,0.8C117.2,66.1,116.4,65.4,115.5,64.7z"/>
	<path class="st3" d="M140.8,75c1.2,0.1,1.8-0.5,1.8-1.7v-3.5H132c-0.3,2.5-1.2,4.7-2.9,6.7c-0.3-0.2-0.6-0.5-1-0.8
		c1.2-1.3,2-2.7,2.4-4.1s0.7-3.6,0.6-6.4v-6.8h12.6v14.9c0.1,1.8-0.8,2.7-2.6,2.7c-0.7,0-1.6,0-2.7,0c-0.1-0.4-0.2-0.8-0.3-1.2
		C139,75,139.9,75,140.8,75z M132.2,65.3c0,1.4,0,2.6-0.1,3.5h10.5v-4.2h-10.4V65.3z M132.2,59.5v4.2h10.4v-4.2H132.2z"/>
	<path class="st3" d="M148.4,62.7h2.6v-3h-3v-0.9h9.6v0.9h-3.1v3h2.7v13.5h-0.9V75h-6.9v1.3h-0.9V62.7H148.4z M149.4,63.5v7h6.9
		v-2.3h-1.1c-1.1,0-1.6-0.5-1.6-1.6v-3.1H152v0.8c0,1.4-0.1,2.3-0.3,2.9s-0.6,1.3-1.3,2.1c-0.3-0.2-0.6-0.4-0.8-0.6
		c0.6-0.7,1-1.3,1.2-1.8s0.3-1.4,0.3-2.6v-0.8C151.1,63.5,149.4,63.5,149.4,63.5z M149.4,71.4v2.7h6.9v-2.7H149.4z M152,59.7v3h1.6
		v-3H152z M156.3,63.5h-1.8v2.9c0,0.7,0.3,1.1,1,1h0.7v-3.9H156.3z M159,58.8h6.4v7.6h-5.1v6.8c0,0.7,0.1,1.1,0.4,1.3
		c0.2,0.2,0.7,0.3,1.4,0.3h1.2c1.2,0.1,1.9-0.5,2-1.6c0.1-0.8,0.3-1.7,0.3-2.6c0.3,0.1,0.7,0.3,1,0.3c-0.1,1-0.2,1.8-0.3,2.5
		c-0.2,0.9-0.4,1.5-0.9,1.8c-0.4,0.4-1.1,0.5-2,0.5h-1.5c-1.7,0.1-2.6-0.7-2.5-2.5v-7.9h5.1v-5.7H159V58.8z"/>
	<path class="st3" d="M169.1,58.6h5.5v15.5c0.1,1.4-0.6,2.1-2,2c-0.2,0-0.4,0-0.6,0c-0.1,0-0.2,0-0.3,0s-0.2,0-0.4,0
		c0-0.3-0.1-0.7-0.2-1c0.4,0,0.9,0.1,1.4,0.1s0.8-0.1,0.9-0.2c0.2-0.1,0.2-0.4,0.2-0.9v-4.6h-3.5c0,0.2,0,0.4,0,0.6
		c0,2.6-0.5,4.7-1.6,6.3c-0.3-0.2-0.6-0.4-0.9-0.6c0.6-1,1.1-1.9,1.2-2.8c0.2-0.9,0.3-2.1,0.3-3.9L169.1,58.6L169.1,58.6z
		 M170.1,59.5v4.1h3.5v-4.1H170.1z M170.1,64.5v4.1h3.5v-4.1H170.1z M176,67.7v-1h8.9v1c-1,2.2-2.2,4-3.4,5.1
		c1.1,0.9,2.8,1.6,5.1,2.3c-0.2,0.3-0.5,0.7-0.6,1c-2.3-0.9-4.1-1.7-5.2-2.7c-1.2,1-3,2-5.3,3c-0.2-0.3-0.4-0.6-0.7-1
		c2.3-1,4.1-1.9,5.2-2.8c-1.2-1.2-2.2-2.9-3-5.1h-1V67.7z M185.2,64.2c0.4,0,0.6,0,0.8,0s0.4,0,0.5,0c-0.1,0.3-0.1,0.7-0.2,1
		c-0.2,0-0.4,0-0.6,0c-0.1,0-0.2,0-0.4,0c-0.1,0-0.3,0-0.6,0c-1.4,0.1-2-0.7-2-2.2v-3.4h-4.2v0.6c0,1.6-0.2,2.8-0.6,3.5
		c-0.4,0.8-1.2,1.5-2.4,2.3c-0.2-0.2-0.4-0.5-0.7-0.8c1.1-0.7,1.8-1.3,2.1-1.9c0.3-0.6,0.5-1.6,0.5-3.1v-1.6h6.2v4.2
		c0,0.5,0.1,0.9,0.3,1C184.4,64.1,184.7,64.2,185.2,64.2z M183.8,67.7H178c0.8,2,1.7,3.5,2.7,4.5C181.8,71.1,182.9,69.6,183.8,67.7z
		"/>
	<path class="st3" d="M189.2,70.8l1,0.4c-0.6,1.6-1.2,2.9-1.7,4l-1-0.5C188.2,73.5,188.8,72.2,189.2,70.8z M190.2,59.5h4.8
		c0.2-0.7,0.4-1.4,0.5-2l1.1,0.2c0,0,0,0.1-0.1,0.2c-0.2,0.7-0.4,1.2-0.5,1.6h7.8v9.6h-13.6V59.5z M191.3,60.4v2h11.5v-2H191.3z
		 M191.3,63.3v2h11.5v-2C202.8,63.3,191.3,63.3,191.3,63.3z M191.3,66.2v2h11.5v-2H191.3z M192.2,70.7h1.1v2.7c0,0.6,0.1,1,0.4,1.2
		c0.2,0.2,0.7,0.3,1.4,0.3h4.1c1.1,0,1.8-0.4,2-1.1c0.1-0.4,0.2-1.1,0.4-2c0.4,0.2,0.8,0.3,1.1,0.4c-0.1,0.8-0.3,1.4-0.4,1.8
		c-0.3,1.3-1.2,2-2.9,1.9h-4.5c-1.8,0.1-2.7-0.8-2.6-2.5v-2.7C192.3,70.7,192.2,70.7,192.2,70.7z M195.8,70.5l0.7-0.6
		c0.8,0.8,1.6,1.5,2.3,2.3l-0.8,0.7C197.2,71.9,196.4,71.1,195.8,70.5z M203.4,71.2l0.8-0.6c0.8,0.9,1.7,1.9,2.6,3l-0.9,0.7
		C205.1,73.1,204.2,72.1,203.4,71.2z"/>
</g>
<text id="投资人" transform="matrix(1 0 0 1 31.819 150.266)" class="st3 st6 st7">投资人</text>
<g class="st2">
	<path class="st3" d="M646.4,186.4H638v8.4h8.4V186.4z M643.6,192h-2.8v-2.8h2.8V192z"/>
	<path class="st3" d="M657.6,186.4h-8.4v8.4h8.4V186.4z M654.8,192H652v-2.8h2.8V192z"/>
	<path class="st3" d="M646.4,197.6H638v8.4h8.4V197.6z M643.6,203.2h-2.8v-2.8h2.8V203.2z"/>
	<path class="st3" d="M657.6,197.6h-8.4v8.4h8.4V197.6z M654.8,203.2H652v-2.8h2.8V203.2z"/>
	<path class="st3" d="M646.4,217.2v-8.4H638v8.4H646.4z M640.8,211.6h2.8v2.8h-2.8V211.6z"/>
	<path class="st3" d="M657.6,208.8h-8.4v8.4h8.4V208.8z M654.8,214.4H652v-2.8h2.8V214.4z"/>
	<path class="st3" d="M666,183.6v-2.8h-2.8v-5.6h-2.8v-5.6h-25.2v5.6h-2.8v5.6h-2.8v2.8h2.8V220h-11.2v-16.8h2.8v-8.4h-2.8v-2.1
		l-19.6-13.6l-8.4,5.8v-4.3h-8.4v10.1l-2.8,1.9v2.1h-2.8v8.4h2.8v17.1c-1.6,0.6-2.8,2.1-2.8,3.9v2.8c0,2.3,1.9,4.2,4.2,4.2h27.3
		c-2.2,2.7-3.5,6.1-3.5,9.8c0,8.5,6.9,15.4,15.4,15.4S638,249.5,638,241c0-3.7-1.3-7.1-3.5-9.8h27.3c2.3,0,4.2-1.9,4.2-4.2v-2.8
		c0-1.8-1.2-3.4-2.8-3.9v-36.7H666z M638,172.4h19.6v2.8H638V172.4z M635.2,178h25.2v2.8h-25.2V178z M587.6,183.4h2.8v3.5l-2.8,1.9
		V183.4z M584.8,194.2l16.8-11.6l16.8,11.6v0.7h-33.6V194.2z M582,197.6h39.2v2.8H582V197.6z M618.4,203.2V220h-11.2v-14H596v14
		h-11.2v-16.8H618.4z M604.4,220h-5.6v-11.2h5.6V220z M622.6,253.6c-6.9,0-12.6-5.7-12.6-12.6c0-6.9,5.7-12.6,12.6-12.6
		s12.6,5.7,12.6,12.6C635.2,248,629.6,253.6,622.6,253.6z M663.2,227c0,0.8-0.6,1.4-1.4,1.4h-30.4c-2.5-1.8-5.5-2.8-8.8-2.8
		s-6.3,1-8.8,2.8h-30.4c-0.8,0-1.4-0.6-1.4-1.4v-2.8c0-0.8,0.6-1.4,1.4-1.4h78.4c0.8,0,1.4,0.6,1.4,1.4V227z M660.4,220h-25.2v-36.4
		h25.2V220z"/>
</g>
<g class="st2">
	<g>
		<g>
			<path class="st3" d="M96.5,278.4H86.4c1-0.8,1.6-1.9,1.6-3.2c0-2.3-1.8-4.1-4.1-4.1s-4.1,1.8-4.1,4.1c0,0.7,0.2,1.3,0.5,1.9
				l-1.5,1.3H58.9c-0.6-1.5-2.1-2.5-3.8-2.5s-3.2,1-3.8,2.5H29c-1.8,0-3.3,1.5-3.3,3.3v8c0,0.6,0.5,1.1,1.1,1.1s1.1-0.5,1.1-1.1v-8
				c0-0.6,0.5-1.1,1.1-1.1h22c0.1,0.4,0.2,0.8,0.3,1.2l-9.1,8.3c-0.6-0.4-1.4-0.7-2.2-0.7c-2.3,0-4.1,1.8-4.1,4.1s1.8,4.1,4.1,4.1
				s4.1-1.8,4.1-4.1c0-0.7-0.2-1.3-0.4-1.8l9.1-8.3c0.7,0.5,1.5,0.7,2.3,0.7c1.2,0,2.2-0.5,3-1.3l7.4,4.4c-0.1,0.3-0.1,0.5-0.1,0.8
				c0,2.3,1.8,4.1,4.1,4.1s4.1-1.8,4.1-4.1c0-0.6-0.1-1.2-0.4-1.7l6.4-5.8h16.9c0.6,0,1.1,0.5,1.1,1.1v26.8c0,0.6,0.5,1.1,1.1,1.1
				s1.1-0.5,1.1-1.1v-26.8C99.8,279.8,98.3,278.4,96.5,278.4z M40,295.4c-1.1,0-1.9-0.9-1.9-1.9c0-1.1,0.9-1.9,1.9-1.9
				s1.9,0.9,1.9,1.9S41.1,295.4,40,295.4z M55.1,281.9c-1.1,0-1.9-0.9-1.9-1.9c0-1.1,0.9-1.9,1.9-1.9S57,279,57,280
				S56.2,281.9,55.1,281.9z M69.5,290c-1.1,0-1.9-0.9-1.9-1.9c0-1.1,0.9-1.9,1.9-1.9s1.9,0.9,1.9,1.9C71.5,289.1,70.6,290,69.5,290z
				 M71.9,284.7c-0.7-0.5-1.5-0.8-2.4-0.8c-1.2,0-2.3,0.5-3.1,1.4l-7.3-4.4c0-0.1,0.1-0.3,0.1-0.4h17.2L71.9,284.7z M83.9,277.1
				c-1.1,0-1.9-0.9-1.9-1.9s0.9-1.9,1.9-1.9s1.9,0.9,1.9,1.9S85,277.1,83.9,277.1z"/>
		</g>
	</g>
	<g>
		<g>
			<path class="st3" d="M99.8,312.8c0-0.6-0.5-1.1-1.1-1.1s-1.1,0.5-1.1,1.1v8.2h-8v-25.7v-4.4v-4.5c0-0.6-0.5-1.1-1.1-1.1h-8.2
				c-0.6,0-1.1,0.5-1.1,1.1v4.5v4.4V321h-4.1v-5.5V311v-4.5c0-0.6-0.5-1.1-1.1-1.1h-8c-0.6,0-1.1,0.5-1.1,1.1v4.5v4.4v5.5h-4.1
				v-19.5V297v-4.5c0-0.6-0.5-1.1-1.1-1.1h-8.2c-0.6,0-1.1,0.5-1.1,1.1v4.5v4.4v6.1c0,0.6,0.5,1.1,1.1,1.1s1.1-0.5,1.1-1.1v-5h6
				v18.4h-6v-9.1c0-0.6-0.5-1.1-1.1-1.1s-1.1,0.5-1.1,1.1v9.1h-4.1v-5.5V311v-4.5c0-0.6-0.5-1.1-1.1-1.1H37c-0.6,0-1.1,0.5-1.1,1.1
				v4.5v4.4v5.5h-8.2v-27c0-0.6-0.5-1.1-1.1-1.1s-1.1,0.5-1.1,1.1v35.9c0,1.8,1.5,3.3,3.3,3.3h23.8l-0.6,5.4h-5
				c-0.6,0-1.1,0.5-1.1,1.1v3.8c0,0.6,0.5,1.1,1.1,1.1h31.5c0.6,0,1.1-0.5,1.1-1.1v-3.8c0-0.6-0.5-1.1-1.1-1.1h-5.2l-0.6-5.4h23.8
				c1.8,0,3.3-1.5,3.3-3.3V322l0,0V312.8L99.8,312.8z M81.5,287.4h6v2.3h-6V287.4z M81.5,291.9h6v2.3h-6V291.9z M81.5,296.3h6v24.6
				h-6V296.3z M67.1,307.6h6v2.3h-6V307.6z M67.1,312.1h6v2.3h-6V312.1z M67.1,316.5h6v4.4h-6V316.5z M52.7,295.9v-2.3h6v2.3H52.7z
				 M52.7,300.3V298h6v2.3H52.7z M38.3,307.6h6v2.3h-6V307.6z M38.3,312.1h6v2.3h-6V312.1z M38.3,316.5h6v4.4h-6V316.5z M77.5,340.7
				v1.6H48.1v-1.6H77.5z M54.3,338.5l0.6-5.4h15.6l0.6,5.4H54.3z M96.5,331H29c-0.6,0-1.1-0.5-1.1-1.1v-6.7h69.7v6.7l0,0
				C97.6,330.5,97.1,331,96.5,331z"/>
		</g>
	</g>
</g>
<g class="st2">
	<g>
		<g>
			<path class="st3" d="M601.9,25.6h-8.5c-0.6,0-1.1,0.5-1.1,1.1V31c0,0.6,0.5,1.1,1.1,1.1h8.5c0.6,0,1.1-0.5,1.1-1.1v-4.3
				C602.9,26.1,602.5,25.6,601.9,25.6z M596.5,29.9h-2.1v-2.1h2.1V29.9z M600.8,29.9h-2.1v-2.1h2.1V29.9z"/>
		</g>
	</g>
	<g>
		<g>
			<path class="st3" d="M601.9,34.1h-8.5c-0.6,0-1.1,0.5-1.1,1.1v4.3c0,0.6,0.5,1.1,1.1,1.1h8.5c0.6,0,1.1-0.5,1.1-1.1v-4.3
				C602.9,34.6,602.5,34.1,601.9,34.1z M596.5,38.4h-2.1v-2.1h2.1V38.4z M600.8,38.4h-2.1v-2.1h2.1V38.4z"/>
		</g>
	</g>
	<g>
		<g>
			<path class="st3" d="M601.9,42.7h-8.5c-0.6,0-1.1,0.5-1.1,1.1V48c0,0.6,0.5,1.1,1.1,1.1h8.5c0.6,0,1.1-0.5,1.1-1.1v-4.3
				C602.9,43.1,602.5,42.7,601.9,42.7z M596.5,46.9h-2.1v-2.1h2.1V46.9z M600.8,46.9h-2.1v-2.1h2.1V46.9z"/>
		</g>
	</g>
	<g>
		<g>
			<path class="st3" d="M640.3,25.6h-8.5c-0.6,0-1.1,0.5-1.1,1.1V31c0,0.6,0.5,1.1,1.1,1.1h8.5c0.6,0,1.1-0.5,1.1-1.1v-4.3
				C641.3,26.1,640.9,25.6,640.3,25.6z M634.9,29.9h-2.1v-2.1h2.1V29.9z M639.2,29.9h-2.1v-2.1h2.1V29.9z"/>
		</g>
	</g>
	<g>
		<g>
			<path class="st3" d="M640.3,17.1h-8.5c-0.6,0-1.1,0.5-1.1,1.1v4.3c0,0.6,0.5,1.1,1.1,1.1h8.5c0.6,0,1.1-0.5,1.1-1.1v-4.3
				C641.3,17.5,640.9,17.1,640.3,17.1z M634.9,21.3h-2.1v-2.1h2.1V21.3z M639.2,21.3h-2.1v-2.1h2.1V21.3z"/>
		</g>
	</g>
	<g>
		<g>
			<path class="st3" d="M614.7,29.9h-4.3c-0.6,0-1.1,0.5-1.1,1.1v4.3c0,0.6,0.5,1.1,1.1,1.1h4.3c0.6,0,1.1-0.5,1.1-1.1V31
				C615.7,30.3,615.3,29.9,614.7,29.9z M613.6,34.1h-2.1V32h2.1V34.1z"/>
		</g>
	</g>
	<g>
		<g>
			<path class="st3" d="M623.2,29.9h-4.3c-0.6,0-1.1,0.5-1.1,1.1v4.3c0,0.6,0.5,1.1,1.1,1.1h4.3c0.6,0,1.1-0.5,1.1-1.1V31
				C624.3,30.3,623.8,29.9,623.2,29.9z M622.1,34.1H620V32h2.1V34.1z"/>
		</g>
	</g>
	<g>
		<g>
			<path class="st3" d="M614.7,21.3h-4.3c-0.6,0-1.1,0.5-1.1,1.1v4.3c0,0.6,0.5,1.1,1.1,1.1h4.3c0.6,0,1.1-0.5,1.1-1.1v-4.3
				C615.7,21.8,615.3,21.3,614.7,21.3z M613.6,25.6h-2.1v-2.1h2.1V25.6z"/>
		</g>
	</g>
	<g>
		<g>
			<path class="st3" d="M623.2,21.3h-4.3c-0.6,0-1.1,0.5-1.1,1.1v4.3c0,0.6,0.5,1.1,1.1,1.1h4.3c0.6,0,1.1-0.5,1.1-1.1v-4.3
				C624.3,21.8,623.8,21.3,623.2,21.3z M622.1,25.6H620v-2.1h2.1V25.6z"/>
		</g>
	</g>
	<g>
		<g>
			<path class="st3" d="M614.7,12.8h-4.3c-0.6,0-1.1,0.5-1.1,1.1v4.3c0,0.6,0.5,1.1,1.1,1.1h4.3c0.6,0,1.1-0.5,1.1-1.1v-4.3
				C615.7,13.3,615.3,12.8,614.7,12.8z M613.6,17.1h-2.1V15h2.1V17.1z"/>
		</g>
	</g>
	<g>
		<g>
			<path class="st3" d="M623.2,12.8h-4.3c-0.6,0-1.1,0.5-1.1,1.1v4.3c0,0.6,0.5,1.1,1.1,1.1h4.3c0.6,0,1.1-0.5,1.1-1.1v-4.3
				C624.3,13.3,623.8,12.8,623.2,12.8z M622.1,17.1H620V15h2.1V17.1z"/>
		</g>
	</g>
	<g>
		<g>
			<path class="st3" d="M614.7,42.7h-4.3c-0.6,0-1.1,0.5-1.1,1.1V48c0,0.6,0.5,1.1,1.1,1.1h4.3c0.6,0,1.1-0.5,1.1-1.1v-4.3
				C615.7,43.1,615.3,42.7,614.7,42.7z M613.6,46.9h-2.1v-2.1h2.1V46.9z"/>
		</g>
	</g>
	<g>
		<g>
			<rect x="592.3" y="51.2" class="st3" width="2.1" height="2.1"/>
		</g>
	</g>
	<g>
		<g>
			<rect x="596.5" y="51.2" class="st3" width="2.1" height="2.1"/>
		</g>
	</g>
	<g>
		<g>
			<rect x="600.8" y="51.2" class="st3" width="2.1" height="2.1"/>
		</g>
	</g>
	<g>
		<g>
			<path class="st3" d="M650.9,38.4h-5.3V13.9c0-0.6-0.5-1.1-1.1-1.1H637v-1.7l1.1-1.1c0.9,0.7,2,1.1,3.1,1.1c1.4,0,2.7-0.5,3.7-1.5
				l0.2-0.2c0.4-0.4,0.4-1.1,0-1.5l-2.4-2.4l2.4-2.4l-1.5-1.5L641.2,4l-3.5-3.5c-0.2-0.2-0.5-0.3-0.8-0.3c-0.4,0-0.7,0.2-0.9,0.4
				c-1.1,1-1.7,2.3-1.7,3.7s0.5,2.9,1.6,3.9l0.5,0.5l-1.4,1.4c-0.2,0.2-0.3,0.5-0.3,0.8V13h-6.4V9.6c0-0.6-0.5-1.1-1.1-1.1h-3.7
				l-6.1-8.1c-0.4-0.5-1.3-0.5-1.7,0l-6.1,8.1h-3.7c-0.6,0-1.1,0.5-1.1,1.1v11.7h-6.4v-8.5h-2.1v8.5h-7.5c-0.6,0-1.1,0.5-1.1,1.1
				v40.5c0,0.6,0.5,1.1,1.1,1.1h17.1h7.5h8.5h1.1h6.4h17.1c2.9,0,5.3-2.4,5.3-5.3V39.5C652,38.9,651.5,38.4,650.9,38.4z M605.1,61.9
				h-14.9V23.5h14.9V61.9z M637.1,2.6l5.8,5.8c-1.2,0.7-2.8,0.6-3.9-0.5l-1.5-1.5c-0.6-0.6-1-1.4-0.9-2.3
				C636.7,3.6,636.8,3.1,637.1,2.6z M616.8,2.8l4.3,5.7h-8.5L616.8,2.8z M612.5,53.3v8.5h-5.3V22.4V10.7h19.2v3.2v19.2h2.1V14.9
				h14.9v23.5h-2.1v-1.1c0-1.8-1.4-3.2-3.2-3.2h-6.4c-1.8,0-3.2,1.4-3.2,3.2v1.1h-9.6c-0.6,0-1.1,0.5-1.1,1.1v11.7h-8.5v2.1H612.5z
				 M639.2,37.3v1.1h-8.5v-1.1c0-0.6,0.5-1.1,1.1-1.1h6.4C638.7,36.3,639.2,36.7,639.2,37.3z M614.7,61.9v-8.5h3.2v5.3
				c0,1.2,0.4,2.3,1.1,3.2H614.7z M649.9,58.7c0,1.8-1.4,3.2-3.2,3.2h-17.1h-6.4c-1.8,0-3.2-1.4-3.2-3.2V48c0.9,0.7,2,1.1,3.2,1.1
				h1.1v3.2c0,0.6,0.5,1.1,1.1,1.1h4.3c0.6,0,1.1-0.5,1.1-1.1v-3.2h1.1h6.4h1.1v3.2c0,0.6,0.5,1.1,1.1,1.1h4.3
				c0.6,0,1.1-0.5,1.1-1.1v-3.2h1.1c1.2,0,2.3-0.4,3.2-1.1v10.7H649.9z M626.4,51.2v-2.1h2.1v2.1H626.4z M632.8,46.9v-2.1h4.3v2.1
				H632.8z M641.3,51.2v-2.1h2.1v2.1H641.3z M649.9,43.7c0,1.8-1.4,3.2-3.2,3.2h-2.1h-4.3h-1.1v-3.2c0-0.6-0.5-1.1-1.1-1.1h-6.4
				c-0.6,0-1.1,0.5-1.1,1.1v3.2h-1.1h-4.3h-2.1c-1.8,0-3.2-1.4-3.2-3.2v-3.2h29.9L649.9,43.7L649.9,43.7z"/>
		</g>
	</g>
	<g>
		<g>
			<rect x="645.6" y="57.6" class="st3" width="2.1" height="2.1"/>
		</g>
	</g>
	<g>
		<g>
			<rect x="641.3" y="57.6" class="st3" width="2.1" height="2.1"/>
		</g>
	</g>
	<g>
		<g>
			<rect x="637.1" y="57.6" class="st3" width="2.1" height="2.1"/>
		</g>
	</g>
</g>
<g>
	<circle class="st8" cx="61.9" cy="57.5" r="16.8"/>
	<line class="st8" x1="48.4" y1="83.8" x2="61.9" y2="99.2"/>
	<line class="st8" x1="75" y1="83.8" x2="61.9" y2="99.2"/>
	<line class="st8" x1="61.9" y1="114.5" x2="61.9" y2="99.2"/>
	<path class="st8" d="M97.9,105.7v3.6c0,3.3-2.7,6-6,6H31.8c-3.3,0-6-2.7-6-6v-3.6"/>
	<path class="st8" d="M31.8,99.7"/>
	<path class="st8" d="M25.8,107.4c0-13.6,11.2-24,24.8-24h22.6c13.6,0,24.7,11.1,24.7,24.7l0,0"/>
</g>
<g id="椭圆_7_1_">
	<path class="st9" d="M487.1,186.5c-10.8,0-19.5-8.7-19.5-19.5s8.7-19.5,19.5-19.5s19.5,8.7,19.5,19.5S497.9,186.5,487.1,186.5z
		 M487.1,148.5c-10.2,0-18.5,8.3-18.5,18.5s8.3,18.5,18.5,18.5s18.5-8.3,18.5-18.5S497.3,148.5,487.1,148.5z"/>
</g>
<g>
	<g>
		<path class="st9" d="M481.4,176.6v-1.1c2.2-0.9,3.3-2.5,3.3-4.8v-2.8h-3v-1.2h3v-3.8c0-1.6,0.4-3,1.3-4s2-1.5,3.5-1.5
			c0.8,0,1.6,0.2,2.4,0.5v1.2c-0.8-0.4-1.6-0.6-2.4-0.6c-1.1,0-1.9,0.4-2.6,1.2c-0.6,0.8-0.9,1.9-0.9,3.4v3.6h4v1.2h-4v2.3
			c0,2.6-0.9,4.3-2.8,5.3h9.7v1.1L481.4,176.6L481.4,176.6z"/>
	</g>
</g>
<g id="椭圆_7-2_1_">
	<path class="st9" d="M195.3,209c-10.8,0-19.5-8.7-19.5-19.5s8.7-19.5,19.5-19.5s19.5,8.7,19.5,19.5S206,209,195.3,209z
		 M195.3,171.1c-10.2,0-18.5,8.3-18.5,18.5s8.3,18.5,18.5,18.5s18.5-8.3,18.5-18.5C213.8,179.3,205.5,171.1,195.3,171.1z"/>
</g>
<g>
	<g>
		<g>
			<path class="st9" d="M189.6,199.1V198c2.2-0.9,3.3-2.5,3.3-4.8v-2.8h-3v-1.2h3v-3.8c0-1.6,0.4-3,1.3-4c0.9-1,2-1.5,3.5-1.5
				c0.8,0,1.6,0.2,2.4,0.5v1.2c-0.8-0.4-1.6-0.6-2.4-0.6c-1.1,0-1.9,0.4-2.6,1.2c-0.6,0.8-0.9,1.9-0.9,3.4v3.6h4v1.2h-4v2.3
				c0,2.6-0.9,4.3-2.8,5.3h9.7v1.1L189.6,199.1L189.6,199.1z"/>
		</g>
	</g>
</g>
<g>
	<path class="st3" d="M617.2,248.8v-1.7c1.8-0.5,2.7-1.7,2.7-3.4v-2h-2.4v-1.7h2.4v-2.8c0-1.4,0.4-2.5,1.3-3.4
		c0.9-0.9,2-1.4,3.3-1.4c0.9,0,1.8,0.1,2.5,0.5v1.9c-0.8-0.5-1.7-0.6-2.4-0.6c-1.8,0-2.7,1.1-2.7,3.3v2.5h3.6v1.7h-3.6v1.7
		c0,1.8-0.8,2.9-2.2,3.8h8.3v1.7H617.2z"/>
</g>
</svg>
