<?xml version="1.0" encoding="utf-8"?>
<!-- Generator: Adobe Illustrator 22.1.0, SVG Export Plug-In . SVG Version: 6.00 Build 0)  -->
<svg version="1.1" id="平民化" xmlns="http://www.w3.org/2000/svg" xmlns:xlink="http://www.w3.org/1999/xlink" x="0px" y="0px"
	 viewBox="0 0 711 157" style="enable-background:new 0 0 711 157;" xml:space="preserve">
<style type="text/css">
	.st0{fill:#010101;}
	.st1{fill:#58595B;}
	.st2{fill:#70DBCB;}
	.st3{fill:none;stroke:#70DBCB;}
	.st4{fill:#FCFCFC;}
	.st5{fill:#F5F5F5;}
	.st6{enable-background:new    ;}
	.st7{fill:#17161F;}
	.st8{fill:#F2F2F2;}
	.st9{fill:#E6E7E8;}
	.st10{fill:#58595B;stroke:#58595B;stroke-miterlimit:10;}
	.st11{fill:#FFFFFF;}
</style>
<rect id="矩形_47" x="250.5" y="83" class="st0" width="210" height="1"/>
<circle id="椭圆_12" class="st1" cx="355.5" cy="85.1" r="22"/>
<g id="组_27_拷贝">
	<path id="矩形_48" class="st2" d="M564.2,81.8H672v1.1H564.2V81.8z"/>
	<path id="形状_2" class="st3" d="M564.2,78.8H628L654.4,19h56.1"/>
	<path id="形状_2_拷贝" class="st3" d="M564.2,85.2H628l26.4,59.8h56.1"/>
</g>
<g id="组_27_拷贝_2">
	<path id="矩形_48-2" class="st2" d="M146.8,81.8H38.9v1.1h107.8L146.8,81.8L146.8,81.8z"/>
	<path id="形状_2-2" class="st3" d="M146.8,78.8H83L56.6,19H0.5"/>
	<path id="形状_2_拷贝-2" class="st3" d="M146.8,86.3H83l-26.4,59.8H0.5"/>
</g>
<path id="圆角矩形_1" class="st4" d="M153.8,70.7l48.7-12.5c2.1-0.4,4.2-0.4,6.2,0.2l40.9,13.2c1.8,0.6,2,1.5,0.5,2.1
	l-42.6,15.7c-2.5,0.8-5.1,0.8-7.6,0.1L153,73.1C150.9,72.4,151.3,71.3,153.8,70.7z"/>
<path id="圆角矩形_1_拷贝" class="st5" d="M152.8,96.7l48.7-12.5c2.1-0.4,4.2-0.4,6.2,0.2l40.9,13.2c1.8,0.6,2,1.5,0.5,2.1
	l-42.6,15.7c-2.5,0.8-5.1,0.8-7.6,0.1L152,99.1C149.9,98.4,150.3,97.3,152.8,96.7z"/>
<g class="st6">
	<path class="st7" d="M136.1,142.2h14.8v4.2h-6.8v2.3h7.9c0,1.2-0.1,2.2-0.2,3.1c-0.1,1.5-1,2.3-2.7,2.3c-0.4,0-0.7,0-1.1,0
		c-0.2,0-0.3,0-0.5,0s-0.4,0-0.8,0c0-0.4-0.1-0.8-0.2-1.1c0.7,0.1,1.5,0.1,2.5,0.1c1.1,0.1,1.7-0.4,1.8-1.5c0.1-0.6,0.1-1.3,0.2-2
		h-6.8v6H143v-6c-1.9,2.5-4.7,4.3-8.4,5.5c-0.1-0.3-0.3-0.7-0.6-1c3.4-1,6.1-2.5,7.8-4.5h-6.3l0.8-4.1h6.6v-2.3H136L136.1,142.2
		L136.1,142.2z M138,136.4l1.1,0.2c-0.3,0.6-0.7,1.2-1,1.7h5.7v0.9h-6.3c-0.7,1-1.5,1.8-2.5,2.6c-0.2-0.2-0.5-0.5-0.8-0.7
		C135.8,139.8,137.1,138.3,138,136.4z M137.3,146.4l-0.4,2.3h6.2v-2.3H137.3z M141,141.1l-0.8,0.6c-0.6-0.7-1.1-1.3-1.6-1.9l0.7-0.6
		C139.8,139.8,140.3,140.4,141,141.1z M146.2,136.4l1.1,0.2c-0.3,0.6-0.6,1.2-0.9,1.7h6.4v0.9h-6.9c-0.5,0.8-1.1,1.6-1.8,2.3
		c-0.3-0.2-0.6-0.4-0.9-0.6C144.6,139.6,145.6,138.1,146.2,136.4z M149.9,143.1h-5.8v2.3h5.8V143.1z M149.9,141.1l-0.7,0.7
		c-0.7-0.7-1.3-1.3-1.9-1.9l0.7-0.6C148.5,139.8,149.2,140.4,149.9,141.1z"/>
	<path class="st7" d="M154.1,144.9h19v1.2h-19V144.9z"/>
	<path class="st7" d="M177.1,144.4c0,2.9-0.1,5-0.4,6.4c-0.3,1.4-0.8,2.9-1.7,4.4c-0.2-0.2-0.5-0.5-0.9-0.8c0.8-1.4,1.3-2.7,1.6-4
		c0.3-1.2,0.4-3.1,0.4-5.7v-5.6h8.6c-0.1-0.3-0.4-1-0.8-2.2c0-0.1-0.1-0.2-0.1-0.2l1-0.3c0.2,0.4,0.4,1,0.7,1.9
		c0.1,0.2,0.2,0.4,0.2,0.5l-0.9,0.3h8.1v0.9h-15.8L177.1,144.4L177.1,144.4z M177.3,153.6h7.3v-3.4h-6v-0.9h6v-8.2h1v8.2h6v0.9h-6
		v3.4h7.3v0.9h-15.7L177.3,153.6L177.3,153.6z M178.6,147.7c-0.3-0.3-0.6-0.5-0.8-0.7c1.4-1.4,2.5-3.1,3.1-5.2l1,0.2
		c-0.3,0.8-0.5,1.4-0.7,1.9c0.7,0.7,1.6,1.5,2.5,2.5c0.1,0.1,0.1,0.1,0.2,0.2l-0.8,0.7c-0.9-1.1-1.7-1.9-2.3-2.6
		C180.1,145.8,179.4,146.7,178.6,147.7z M187.1,147.3c0,0-0.1-0.1-0.2-0.2c-0.3-0.3-0.5-0.4-0.7-0.6c1.4-1.3,2.4-2.9,3-4.9l1,0.2
		c-0.2,0.7-0.5,1.3-0.7,1.8c0.8,0.7,1.8,1.6,3,2.9l-0.8,0.8c-0.9-1-1.7-1.9-2.6-2.8C188.6,145.6,187.9,146.5,187.1,147.3z"/>
	<path class="st7" d="M194.1,138.2h6.7v1h-2.5v13.3c0.1,1.4-0.6,2.1-2.2,2.1c-0.2,0-0.7,0-1.4,0c-0.1-0.4-0.1-0.8-0.3-1.2
		c0.4,0,1,0.1,1.6,0.1c0.8,0,1.2-0.4,1.2-1.2v-13.1h-3.1V138.2z M206.4,144.2h1.1v1.2c0,1.8-0.1,3.1-0.4,4.2
		c2.1,1.7,4.1,3.3,5.9,4.8l-0.8,0.9c-1.9-1.6-3.7-3.2-5.5-4.7c-0.6,2-2.7,3.6-6.2,5c-0.1-0.2-0.4-0.5-0.7-0.9
		c2.8-1.1,4.5-2.2,5.3-3.3c0.9-1.1,1.3-3,1.2-5.8L206.4,144.2L206.4,144.2z M201.9,141.5h3.6l0.7-2.9h-4.8v-1h11.4v1h-5.5l-0.7,2.9
		h5.2v9.6h-1.1v-8.6H203v8.8h-1.1V141.5z"/>
	<path class="st7" d="M216,147.6c1.5-0.2,2.9-0.3,4.1-0.4c-0.1,0.4-0.1,0.7-0.1,1c-2.2,0.2-3.9,0.3-5.1,0.5l-0.5-1
		c0.3-0.2,0.8-0.7,1.3-1.4c0.6-0.7,1.2-1.6,2-2.7c-1.4,0-2.4,0.1-3.2,0.2l-0.4-1c0.4-0.3,0.7-0.8,1.1-1.4c1-1.6,1.8-3.1,2.5-4.5
		l1.1,0.4c-1.1,1.9-2.2,3.8-3.4,5.5c0.1,0,0.1,0,0.3,0c1.2-0.1,2.1-0.1,2.6-0.1c0.5-0.7,1-1.5,1.6-2.6l1.1,0.5
		C219.6,142.7,218,145.1,216,147.6z M214.5,153.2l-0.3-1c1.5-0.3,3.5-0.7,5.8-1.2c0,0.2,0,0.6,0,1
		C218.2,152.4,216.3,152.8,214.5,153.2z M219,154.4c1.5-1.8,2.5-3.6,3-5.4c0.5-1.8,0.8-4.6,0.7-8.4v-1.8H221v-1h9.3v1.1l-2,4.4h3.5
		v1c-0.8,2.7-1.9,4.9-3.2,6.6c1.1,1.2,2.6,2.3,4.5,3.3c-0.3,0.3-0.5,0.7-0.7,1c-1.8-1.2-3.3-2.3-4.4-3.5c-1.3,1.4-2.8,2.7-4.7,3.8
		c-0.2-0.3-0.5-0.6-0.8-0.9c2.1-1.2,3.6-2.4,4.7-3.7c-1.5-1.8-2.7-4.1-3.5-6.9c0,4.6-1.3,8.3-3.7,11.2
		C219.7,154.9,219.4,154.7,219,154.4z M227.2,143.1l2-4.3h-5.5v1.8v1.1c1.1,3.7,2.5,6.5,4.1,8.4c1.1-1.5,2.1-3.4,2.8-5.8h-3.5
		L227.2,143.1L227.2,143.1z"/>
	<path class="st7" d="M234.2,144.6c1.6-1.1,3.2-2.3,4.7-3.5c0.1,0.2,0.2,0.5,0.5,1c-1.5,1.1-3,2.3-4.5,3.5L234.2,144.6z
		 M243.2,148.3h1c0,0.7-0.1,1.4-0.2,2.1c0,0,0,0.1,0,0.2c0,0.2-0.1,0.4-0.1,0.5c2.6,1,5.4,2.1,8.3,3.3l-0.6,1
		c-3-1.4-5.8-2.5-8.2-3.4c-0.9,1.5-3.6,2.7-8.1,3.5c-0.2-0.4-0.3-0.7-0.6-1.1c5.2-0.6,7.9-2,8.3-4.1
		C243.2,149.7,243.2,149,243.2,148.3z M238.2,140c-1-0.8-2-1.6-3.1-2.3l0.7-0.8c0.9,0.7,2,1.4,3.1,2.3L238.2,140z M237.2,146.1h13
		v5.7h-1v-4.7h-11v4.7h-1V146.1z M240.3,145.4c-0.2-0.4-0.4-0.7-0.6-1c4-0.9,6.1-2.6,6.3-5.2h-3.1c-0.5,0.9-1.2,1.8-2,2.7
		c-0.3-0.3-0.6-0.5-0.8-0.7c1.4-1.4,2.4-2.9,3.1-4.7l1,0.3c-0.2,0.6-0.5,1.1-0.7,1.6h8.9v1l-1.2,2.4c-0.3-0.1-0.6-0.3-1-0.4l1.1-2.1
		H247c0,0.2-0.1,0.4-0.1,0.6c1,2.6,3,4.1,6.1,4.7c-0.2,0.3-0.4,0.7-0.6,1c-3.1-0.9-5-2.4-5.9-4.5
		C245.9,142.9,243.8,144.4,240.3,145.4z"/>
	<path class="st7" d="M256.1,144.4h9.4c0.8-1.2,1.5-2.4,2.3-3.8l1,0.5c-0.7,1-1.4,2.1-2.2,3.2h5.7v1h-15.2v1.5
		c0.1,3.5-0.7,6.3-2.3,8.4c-0.3-0.3-0.6-0.6-0.9-0.8c0.8-1,1.3-2,1.6-3.2c0.3-1.1,0.5-2.6,0.5-4.5v-2.3H256.1z M263.1,136.9l1.1-0.3
		c0.3,0.9,0.6,1.6,0.8,2.3h8v1h-18.4v-1h9.2c-0.1-0.4-0.3-1-0.6-1.8C263.1,137,263.1,136.9,263.1,136.9z M258.9,141.2l0.9-0.6
		c0.6,0.7,1.3,1.7,2.2,2.9l-1,0.6C260.4,143.1,259.7,142.1,258.9,141.2z"/>
</g>
<ellipse id="椭圆_11" class="st8" cx="204" cy="70.5" rx="22.5" ry="4.5"/>
<path id="矩形_46" class="st9" d="M151.5,72l54,19v18l-54-19V72z"/>
<path id="矩形_46_拷贝" class="st9" d="M251.5,73l-47,18v18l47-18V73z"/>
<g class="st6">
	<path class="st1" d="M225.9,61.8c0.9,0,1.6-0.7,1.6-1.6v-27c0-0.9-0.7-1.6-1.6-1.6h-10.2v-1.1c0-0.6-0.3-1.2-0.9-1.5l-9.9-5v-3.2
		l7-2.3c0.7-0.2,1.1-0.8,1.1-1.6c0-0.7-0.5-1.3-1.1-1.6l-8.1-2.7c-0.5-0.2-1-0.1-1.5,0.2c-0.4,0.3-0.7,0.8-0.7,1.3v9.7l-9.9,5
		c-0.6,0.3-0.9,0.8-0.9,1.5v1.1h-10.4c-0.9,0-1.6,0.7-1.6,1.6v27c0,0.9,0.7,1.6,1.6,1.6h45.5V61.8z M204.9,17.7V16l3.6,0.9
		L204.9,17.7z M182.1,34.7h8.7v23.7h-8.7V34.7z M194.1,31.4l9.2-4.6l9.2,4.6v27.1h-18.3L194.1,31.4L194.1,31.4z M224.2,58.5h-8.5
		V34.7h8.5V58.5z"/>
	<path class="st1" d="M200.7,34.2H198c-0.9,0-1.6,0.7-1.6,1.6c0,0.9,0.7,1.6,1.6,1.6h2.7c0.9,0,1.6-0.7,1.6-1.6
		C202.4,34.9,201.6,34.2,200.7,34.2z"/>
	<path class="st1" d="M185.4,40.1h2.7c0.9,0,1.6-0.7,1.6-1.6c0-0.9-0.7-1.6-1.6-1.6h-2.7c-0.9,0-1.6,0.7-1.6,1.6
		C183.7,39.4,184.5,40.1,185.4,40.1z"/>
	<path class="st1" d="M188.1,42.3h-2.7c-0.9,0-1.6,0.7-1.6,1.6c0,0.9,0.7,1.6,1.6,1.6h2.7c0.9,0,1.6-0.7,1.6-1.6
		C189.7,43,189,42.3,188.1,42.3z"/>
	<path class="st1" d="M188.1,47.7h-2.7c-0.9,0-1.6,0.7-1.6,1.6c0,0.9,0.7,1.6,1.6,1.6h2.7c0.9,0,1.6-0.7,1.6-1.6
		C189.7,48.4,189,47.7,188.1,47.7z"/>
	<path class="st1" d="M218.8,40.1h2.7c0.9,0,1.6-0.7,1.6-1.6c0-0.9-0.7-1.6-1.6-1.6h-2.7c-0.9,0-1.6,0.7-1.6,1.6
		C217.1,39.4,217.9,40.1,218.8,40.1z"/>
	<path class="st1" d="M218.8,45.5h2.7c0.9,0,1.6-0.7,1.6-1.6c0-0.9-0.7-1.6-1.6-1.6h-2.7c-0.9,0-1.6,0.7-1.6,1.6
		C217.1,44.8,217.9,45.5,218.8,45.5z"/>
	<path class="st1" d="M221.5,47.7h-2.7c-0.9,0-1.6,0.7-1.6,1.6c0,0.9,0.7,1.6,1.6,1.6h2.7c0.9,0,1.6-0.7,1.6-1.6
		S222.4,47.7,221.5,47.7z"/>
	<path class="st1" d="M208.8,34.2h-2.7c-0.9,0-1.6,0.7-1.6,1.6c0,0.9,0.7,1.6,1.6,1.6h2.7c0.9,0,1.6-0.7,1.6-1.6
		C210.5,34.9,209.7,34.2,208.8,34.2z"/>
	<path class="st1" d="M200.7,39.6H198c-0.9,0-1.6,0.7-1.6,1.6c0,0.9,0.7,1.6,1.6,1.6h2.7c0.9,0,1.6-0.7,1.6-1.6
		C202.4,40.3,201.6,39.6,200.7,39.6z"/>
	<path class="st1" d="M208.8,39.6h-2.7c-0.9,0-1.6,0.7-1.6,1.6c0,0.9,0.7,1.6,1.6,1.6h2.7c0.9,0,1.6-0.7,1.6-1.6
		C210.5,40.3,209.7,39.6,208.8,39.6z"/>
	<path class="st1" d="M200.7,45H198c-0.9,0-1.6,0.7-1.6,1.6s0.7,1.6,1.6,1.6h2.7c0.9,0,1.6-0.7,1.6-1.6S201.6,45,200.7,45z"/>
	<path class="st1" d="M208.8,45h-2.7c-0.9,0-1.6,0.7-1.6,1.6s0.7,1.6,1.6,1.6h2.7c0.9,0,1.6-0.7,1.6-1.6S209.7,45,208.8,45z"/>
</g>
<path id="圆角矩形_1_1_" class="st4" d="M463.3,70.7L512,58.2c2.1-0.4,4.2-0.4,6.2,0.2L559,71.6c1.8,0.6,2,1.5,0.5,2.1
	l-42.6,15.7c-2.5,0.8-5.1,0.8-7.6,0.1l-46.9-16.4C460.4,72.4,460.9,71.3,463.3,70.7z"/>
<path id="圆角矩形_1_拷贝_1_" class="st5" d="M462.3,96.7L511,84.2c2.1-0.4,4.2-0.4,6.2,0.2L558,97.6c1.8,0.6,2,1.5,0.5,2.1
	l-42.6,15.7c-2.5,0.8-5.1,0.8-7.6,0.1l-46.9-16.4C459.4,98.4,459.9,97.3,462.3,96.7z"/>
<g class="st6">
	<path class="st7" d="M445.7,142.2h14.8v4.2h-6.8v2.3h7.9c0,1.2-0.1,2.2-0.2,3.1c-0.1,1.5-1,2.3-2.7,2.3c-0.4,0-0.7,0-1.1,0
		c-0.2,0-0.3,0-0.5,0s-0.4,0-0.8,0c0-0.4-0.1-0.8-0.2-1.1c0.7,0.1,1.5,0.1,2.5,0.1c1.1,0.1,1.7-0.4,1.8-1.5c0.1-0.6,0.1-1.3,0.2-2
		h-6.8v6h-1.1v-6c-1.9,2.5-4.7,4.3-8.4,5.5c-0.1-0.3-0.3-0.7-0.6-1c3.4-1,6.1-2.5,7.8-4.5h-6.3l0.8-4.1h6.6v-2.3h-6.9L445.7,142.2
		L445.7,142.2z M447.5,136.4l1.1,0.2c-0.3,0.6-0.7,1.2-1,1.7h5.7v0.9H447c-0.7,1-1.5,1.8-2.5,2.6c-0.2-0.2-0.5-0.5-0.8-0.7
		C445.3,139.8,446.6,138.3,447.5,136.4z M446.8,146.4l-0.4,2.3h6.2v-2.3H446.8z M450.5,141.1l-0.8,0.6c-0.6-0.7-1.1-1.3-1.6-1.9
		l0.7-0.6C449.3,139.8,449.9,140.4,450.5,141.1z M455.7,136.4l1.1,0.2c-0.3,0.6-0.6,1.2-0.9,1.7h6.4v0.9h-6.9
		c-0.5,0.8-1.1,1.6-1.8,2.3c-0.3-0.2-0.6-0.4-0.9-0.6C454.1,139.6,455.1,138.1,455.7,136.4z M459.4,143.1h-5.8v2.3h5.8V143.1z
		 M459.4,141.1l-0.7,0.7c-0.7-0.7-1.3-1.3-1.9-1.9l0.7-0.6C458.1,139.8,458.7,140.4,459.4,141.1z"/>
	<path class="st7" d="M463.7,144.9h19v1.2h-19V144.9z"/>
	<path class="st7" d="M486.6,144.4c0,2.9-0.1,5-0.4,6.4s-0.8,2.9-1.7,4.4c-0.2-0.2-0.5-0.5-0.9-0.8c0.8-1.4,1.3-2.7,1.6-4
		c0.3-1.2,0.4-3.1,0.4-5.7v-5.6h8.6c-0.1-0.3-0.4-1-0.8-2.2c0-0.1-0.1-0.2-0.1-0.2l1-0.3c0.2,0.4,0.4,1,0.7,1.9
		c0.1,0.2,0.2,0.4,0.2,0.5l-0.9,0.3h8.1v0.9h-15.8L486.6,144.4L486.6,144.4z M486.8,153.6h7.3v-3.4h-6v-0.9h6v-8.2h1v8.2h6v0.9h-6
		v3.4h7.3v0.9h-15.7v-0.9H486.8z M488.1,147.7c-0.3-0.3-0.6-0.5-0.8-0.7c1.4-1.4,2.5-3.1,3.1-5.2l1,0.2c-0.3,0.8-0.5,1.4-0.7,1.9
		c0.7,0.7,1.6,1.5,2.5,2.5c0.1,0.1,0.1,0.1,0.2,0.2l-0.8,0.7c-0.9-1.1-1.7-1.9-2.3-2.6C489.7,145.8,489,146.7,488.1,147.7z
		 M496.6,147.3c0,0-0.1-0.1-0.2-0.2c-0.3-0.3-0.5-0.4-0.7-0.6c1.4-1.3,2.4-2.9,3-4.9l1,0.2c-0.2,0.7-0.5,1.3-0.7,1.8
		c0.8,0.7,1.8,1.6,3,2.9l-0.8,0.8c-0.9-1-1.7-1.9-2.6-2.8C498.1,145.6,497.5,146.5,496.6,147.3z"/>
	<path class="st7" d="M503.7,138.2h6.7v1h-2.5v13.3c0.1,1.4-0.6,2.1-2.2,2.1c-0.2,0-0.7,0-1.4,0c-0.1-0.4-0.1-0.8-0.3-1.2
		c0.4,0,1,0.1,1.6,0.1c0.8,0,1.2-0.4,1.2-1.2v-13.1h-3.1L503.7,138.2L503.7,138.2z M515.9,144.2h1.1v1.2c0,1.8-0.1,3.1-0.4,4.2
		c2.1,1.7,4.1,3.3,5.9,4.8l-0.8,0.9c-1.9-1.6-3.7-3.2-5.5-4.7c-0.6,2-2.7,3.6-6.2,5c-0.2-0.2-0.4-0.5-0.7-0.9
		c2.8-1.1,4.5-2.2,5.3-3.3c0.9-1.1,1.3-3,1.2-5.8v-1.4H515.9z M511.4,141.5h3.6l0.7-2.9H511v-1h11.4v1h-5.5l-0.7,2.9h5.2v9.6h-1.1
		v-8.6h-7.8v8.8h-1.1L511.4,141.5L511.4,141.5z"/>
	<path class="st7" d="M525.6,147.6c1.5-0.2,2.9-0.3,4.1-0.4c-0.1,0.4-0.1,0.7-0.1,1c-2.2,0.2-3.9,0.3-5.1,0.5l-0.5-1
		c0.3-0.2,0.8-0.7,1.3-1.4c0.6-0.7,1.2-1.6,2-2.7c-1.4,0-2.4,0.1-3.2,0.2l-0.4-1c0.4-0.3,0.7-0.8,1.1-1.4c1-1.6,1.8-3.1,2.5-4.5
		l1.1,0.4c-1.1,1.9-2.2,3.8-3.4,5.5c0.1,0,0.1,0,0.3,0c1.2-0.1,2.1-0.1,2.6-0.1c0.5-0.7,1-1.5,1.6-2.6l1.1,0.5
		C529.1,142.7,527.5,145.1,525.6,147.6z M524,153.2l-0.3-1c1.5-0.3,3.5-0.7,5.8-1.2c0,0.2,0,0.6,0,1
		C527.7,152.4,525.8,152.8,524,153.2z M528.5,154.4c1.5-1.8,2.5-3.6,3-5.4c0.5-1.8,0.8-4.6,0.7-8.4v-1.8h-1.7v-1h9.3v1.1l-2,4.4h3.5
		v1c-0.8,2.7-1.9,4.9-3.2,6.6c1.1,1.2,2.6,2.3,4.5,3.3c-0.3,0.3-0.5,0.7-0.7,1c-1.8-1.2-3.3-2.3-4.4-3.5c-1.3,1.4-2.8,2.7-4.7,3.8
		c-0.2-0.3-0.5-0.6-0.8-0.9c2.1-1.2,3.6-2.4,4.7-3.7c-1.5-1.8-2.7-4.1-3.5-6.9c0,4.6-1.3,8.3-3.7,11.2
		C529.3,154.9,528.9,154.7,528.5,154.4z M536.8,143.1l2-4.3h-5.5v1.8v1.1c1.1,3.7,2.5,6.5,4.1,8.4c1.1-1.5,2.1-3.4,2.8-5.8h-3.5
		v-1.2H536.8z"/>
	<path class="st7" d="M543.8,144.6c1.6-1.1,3.2-2.3,4.7-3.5c0.1,0.2,0.2,0.5,0.5,1c-1.5,1.1-3,2.3-4.5,3.5L543.8,144.6z
		 M552.8,148.3h1c0,0.7-0.1,1.4-0.2,2.1c0,0,0,0.1,0,0.2c0,0.2-0.1,0.4-0.1,0.5c2.6,1,5.4,2.1,8.3,3.3l-0.6,1
		c-3-1.4-5.8-2.5-8.2-3.4c-0.9,1.5-3.6,2.7-8.1,3.5c-0.2-0.4-0.3-0.7-0.6-1.1c5.2-0.6,7.9-2,8.3-4.1
		C552.7,149.7,552.8,149,552.8,148.3z M547.7,140c-1-0.8-2-1.6-3.1-2.3l0.7-0.8c0.9,0.7,2,1.4,3.1,2.3L547.7,140z M546.7,146.1h13
		v5.7h-1v-4.7h-11v4.7h-1V146.1z M549.8,145.4c-0.2-0.4-0.4-0.7-0.6-1c4-0.9,6.1-2.6,6.3-5.2h-3.1c-0.5,0.9-1.2,1.8-2,2.7
		c-0.3-0.3-0.6-0.5-0.8-0.7c1.4-1.4,2.4-2.9,3.1-4.7l1,0.3c-0.2,0.6-0.5,1.1-0.7,1.6h8.9v1l-1.2,2.4c-0.3-0.1-0.6-0.3-1-0.4l1.1-2.1
		h-4.2c0,0.2-0.1,0.4-0.1,0.6c1,2.6,3,4.1,6.1,4.7c-0.2,0.3-0.4,0.7-0.6,1c-3.1-0.9-5-2.4-5.9-4.5
		C555.4,142.9,553.3,144.4,549.8,145.4z"/>
	<path class="st7" d="M565.7,144.4h9.4c0.8-1.2,1.5-2.4,2.3-3.8l1,0.5c-0.7,1-1.4,2.1-2.2,3.2h5.7v1h-15.2v1.5
		c0.1,3.5-0.7,6.3-2.3,8.4c-0.3-0.3-0.6-0.6-0.9-0.8c0.8-1,1.3-2,1.6-3.2c0.3-1.1,0.5-2.6,0.5-4.5v-2.3H565.7z M572.6,136.9l1.1-0.3
		c0.3,0.9,0.6,1.6,0.8,2.3h8v1h-18.4v-1h9.2c-0.1-0.4-0.3-1-0.6-1.8C572.6,137,572.6,136.9,572.6,136.9z M568.5,141.2l0.9-0.6
		c0.6,0.7,1.3,1.7,2.2,2.9l-1,0.6C569.9,143.1,569.2,142.1,568.5,141.2z"/>
</g>
<ellipse id="椭圆_11_1_" class="st8" cx="513.5" cy="70.5" rx="22.5" ry="4.5"/>
<path id="矩形_46_1_" class="st9" d="M461,72l54,19v18l-54-19V72z"/>
<path id="矩形_46_拷贝_1_" class="st9" d="M561,73l-47,18v18l47-18V73z"/>
<path class="st10" d="M494.5,24.8v8.7l-1.2,0.6c-0.3,0.1-0.5,0.4-0.5,0.7V44c0,0.3,0.2,0.6,0.5,0.7l9.5,4.7V58
	c0,0.3,0.2,0.6,0.5,0.7l9.9,5c0.2,0.1,0.5,0.1,0.7,0l9.9-5c0.3-0.1,0.5-0.4,0.5-0.7v-8.6l9.5-4.7c0.3-0.1,0.5-0.4,0.5-0.7v-9.1
	c0-0.3-0.2-0.6-0.5-0.7l-1.2-0.6v-8.7c1.4-0.4,2.5-1.7,2.5-3.2c0-1.8-1.5-3.3-3.3-3.3s-3.3,1.5-3.3,3.3c0,1.5,1.1,2.8,2.5,3.2v7.9
	l-4.1-2.1V19c1.4-0.4,2.5-1.7,2.5-3.2c0-1.8-1.5-3.3-3.3-3.3s-3.3,1.5-3.3,3.3c0,1.5,1.1,2.8,2.5,3.2v10.8l-1.3-0.6
	c-0.1-0.1-0.2-0.1-0.4-0.1c-0.1,0-0.3,0-0.4,0.1l-9.6,4.8l-9.6-4.8c-0.1-0.1-0.2-0.1-0.4-0.1c-0.1,0-0.3,0-0.4,0.1l-1.3,0.6V19
	c1.4-0.4,2.5-1.7,2.5-3.2c0-1.8-1.5-3.3-3.3-3.3s-3.3,1.5-3.3,3.3c0,1.5,1.1,2.8,2.5,3.2v11.6l-4.1,2.1v-7.9
	c1.4-0.4,2.5-1.7,2.5-3.2c0-1.8-1.5-3.3-3.3-3.3s-3.3,1.5-3.3,3.3C492,23.2,493.1,24.5,494.5,24.8z M530.1,21.6
	c0-0.9,0.7-1.7,1.7-1.7c0.9,0,1.7,0.7,1.7,1.7c0,0.9-0.7,1.7-1.7,1.7C530.8,23.3,530.1,22.5,530.1,21.6z M524.3,15.8
	c0-0.9,0.7-1.7,1.7-1.7c0.9,0,1.7,0.7,1.7,1.7c0,0.9-0.7,1.7-1.7,1.7S524.3,16.8,524.3,15.8z M499.5,15.8c0-0.9,0.7-1.7,1.7-1.7
	s1.7,0.7,1.7,1.7c0,0.9-0.7,1.7-1.7,1.7S499.5,16.8,499.5,15.8z M502.8,31.2v7.2l-8.3,4.1v-7.2L502.8,31.2z M503.6,39.9l8.1,4
	l-8.1,4l-8.1-4L503.6,39.9z M532.5,42.6l-8.3-4.1v-7.2l8.3,4.1V42.6z M522.6,38.5l-8.3,4.1v-7.2l8.3-4.1V38.5z M522.6,56.7l-8.3-4.1
	v-7.2l8.3,4.1V56.7z M504.4,49.4l8.3-4.1v7.2l-8.3,4.1L504.4,49.4L504.4,49.4z M513.5,62.1l-8.1-4l8.1-4l8.1,4L513.5,62.1z
	 M523.4,48l-8.1-4l8.1-4l8.1,4L523.4,48z M512.7,42.6l-8.3-4.1v-7.2l8.3,4.1V42.6z M495.3,20c0.9,0,1.7,0.7,1.7,1.7
	c0,0.9-0.7,1.7-1.7,1.7s-1.7-0.7-1.7-1.7C493.7,20.7,494.4,20,495.3,20z"/>
<polygon id="XMLID_63_" class="st11" points="357,80.1 358.9,80.1 358.9,77.3 363.7,77.3 363.7,92.9 358.9,92.9 358.9,88.5 
	362.1,88.5 362.1,81.8 349,81.8 349,88.5 352.1,88.5 352.1,92.9 347.3,92.9 347.3,77.3 352.1,77.3 352.1,80.1 354.1,80.1 
	354.1,75.2 345.3,75.2 345.3,94.9 354.1,94.9 354.1,86.5 351,86.5 351,83.8 360,83.8 360,86.5 357,86.5 357,94.9 365.7,94.9 
	365.7,75.2 357,75.2 "/>
</svg>
