<?xml version="1.0" encoding="utf-8"?>
<!-- Generator: Adobe Illustrator 22.1.0, SVG Export Plug-In . SVG Version: 6.00 Build 0)  -->
<svg version="1.1" id="组_2" xmlns="http://www.w3.org/2000/svg" xmlns:xlink="http://www.w3.org/1999/xlink" x="0px" y="0px"
	 viewBox="0 0 678 253" style="enable-background:new 0 0 678 253;" xml:space="preserve">
<style type="text/css">
	.st0{enable-background:new    ;}
	.st1{fill:#D6D6D6;}
	.st2{fill:#0E0E0E;}
	.st3{fill:#0EAFA0;}
	.st4{fill:#CDBB78;}
	.st5{fill:#EC632F;}
</style>
<g id="_2.0_" class="st0">
	<path d="M13.6,187.6c0-0.6-0.2-1-0.5-1.4c-0.4-0.3-0.9-0.5-1.5-0.5c-0.4,0-0.9,0.1-1.3,0.3c-0.5,0.2-0.9,0.5-1.3,1v-1.3
		c0.3-0.4,0.7-0.6,1.2-0.8c0.4-0.2,1-0.3,1.6-0.3c1,0,1.7,0.3,2.3,0.8s0.9,1.2,0.9,2.1c0,0.8-0.2,1.5-0.5,2c-0.4,0.6-1,1.2-1.9,1.8
		s-1.5,1.1-1.8,1.3c-0.3,0.3-0.5,0.5-0.6,0.8c-0.1,0.2-0.2,0.5-0.2,0.9h5.3v1.2H8.6V195c0-0.6,0.1-1.1,0.3-1.6
		c0.2-0.4,0.4-0.8,0.8-1.3c0.4-0.4,1-0.9,1.8-1.5s1.4-1.1,1.7-1.5C13.5,188.7,13.6,188.2,13.6,187.6z"/>
	<path d="M16.9,194.8c0-0.2,0.1-0.5,0.3-0.6c0.2-0.2,0.4-0.3,0.6-0.3c0.3,0,0.5,0.1,0.6,0.3c0.2,0.2,0.3,0.4,0.3,0.6
		c0,0.2-0.1,0.4-0.3,0.6c-0.2,0.2-0.4,0.3-0.6,0.3c-0.3,0-0.5-0.1-0.6-0.3C16.9,195.2,16.9,195,16.9,194.8z"/>
	<path d="M20.1,190.4c0-1.9,0.3-3.3,0.9-4.3s1.5-1.5,2.7-1.5c2.3,0,3.4,1.8,3.4,5.5c0,1.8-0.3,3.2-1,4.1c-0.6,1-1.5,1.4-2.7,1.4
		c-1.1,0-1.9-0.5-2.5-1.4C20.4,193.4,20.1,192.1,20.1,190.4z M21.4,190.3c0,2.8,0.7,4.3,2.2,4.3c1.4,0,2.1-1.4,2.1-4.3
		c0-3-0.7-4.5-2.1-4.5S21.4,187.3,21.4,190.3z"/>
	<path d="M28.3,187.5c0-0.9,0.2-1.6,0.7-2.1s1.1-0.8,1.9-0.8s1.4,0.2,1.8,0.7s0.6,1.1,0.6,2c0,0.8-0.2,1.5-0.7,2s-1.1,0.8-1.9,0.8
		c-0.7,0-1.3-0.2-1.8-0.7C28.5,189,28.3,188.3,28.3,187.5z M29.4,187.4c0,0.6,0.1,1.1,0.4,1.4c0.3,0.3,0.6,0.5,1.1,0.5
		s0.8-0.2,1.1-0.5c0.3-0.3,0.4-0.8,0.4-1.4c0-0.6-0.1-1.1-0.4-1.4c-0.2-0.3-0.6-0.5-1-0.5c-0.5,0-0.8,0.2-1.1,0.5
		C29.5,186.4,29.4,186.8,29.4,187.4z M38,184.8l-6.9,10.8H30l6.9-10.8H38z M34.7,193c0-0.9,0.2-1.6,0.7-2.1s1.1-0.8,1.9-0.8
		c0.8,0,1.3,0.2,1.8,0.7c0.4,0.5,0.6,1.1,0.6,2c0,0.8-0.2,1.5-0.7,2s-1.1,0.8-1.9,0.8c-0.7,0-1.3-0.2-1.8-0.7
		C34.9,194.4,34.7,193.8,34.7,193z M35.8,192.9c0,0.6,0.1,1,0.4,1.4c0.3,0.3,0.6,0.5,1.1,0.5s0.8-0.2,1.1-0.5s0.4-0.8,0.4-1.4
		c0-0.6-0.1-1.1-0.4-1.4c-0.3-0.3-0.6-0.5-1-0.5c-0.5,0-0.8,0.2-1.1,0.5C35.9,191.9,35.8,192.3,35.8,192.9z"/>
</g>
<g id="_4.0_" class="st0">
	<path d="M14.2,157.2v7.1h1.6v1.1h-1.6v2.5h-1.3v-2.5h-5v-1.1c0.9-1,1.8-2.1,2.7-3.4c0.9-1.3,1.6-2.5,2.2-3.7L14.2,157.2L14.2,157.2
		z M9.4,164.3h3.5v-5.1c-0.5,0.9-1,1.7-1.5,2.5C10.8,162.5,10.1,163.3,9.4,164.3z"/>
	<path d="M16.9,167.2c0-0.2,0.1-0.5,0.3-0.6c0.2-0.2,0.4-0.3,0.6-0.3c0.3,0,0.5,0.1,0.6,0.3c0.2,0.2,0.3,0.4,0.3,0.6
		c0,0.2-0.1,0.4-0.3,0.6c-0.2,0.2-0.4,0.3-0.6,0.3c-0.3,0-0.5-0.1-0.6-0.3C16.9,167.6,16.9,167.4,16.9,167.2z"/>
	<path d="M20.1,162.8c0-1.9,0.3-3.3,0.9-4.3s1.5-1.5,2.7-1.5c2.3,0,3.4,1.8,3.4,5.5c0,1.8-0.3,3.2-1,4.1c-0.6,1-1.5,1.4-2.7,1.4
		c-1.1,0-1.9-0.5-2.5-1.4C20.4,165.8,20.1,164.5,20.1,162.8z M21.4,162.7c0,2.8,0.7,4.3,2.2,4.3c1.4,0,2.1-1.4,2.1-4.3
		c0-3-0.7-4.5-2.1-4.5S21.4,159.7,21.4,162.7z"/>
	<path d="M28.3,159.9c0-0.9,0.2-1.6,0.7-2.1s1.1-0.8,1.9-0.8s1.4,0.2,1.8,0.7s0.6,1.1,0.6,2c0,0.8-0.2,1.5-0.7,2s-1.1,0.8-1.9,0.8
		c-0.7,0-1.3-0.2-1.8-0.7C28.5,161.4,28.3,160.7,28.3,159.9z M29.4,159.8c0,0.6,0.1,1.1,0.4,1.4c0.3,0.3,0.6,0.5,1.1,0.5
		s0.8-0.2,1.1-0.5c0.3-0.3,0.4-0.8,0.4-1.4c0-0.6-0.1-1.1-0.4-1.4c-0.2-0.3-0.6-0.5-1-0.5c-0.5,0-0.8,0.2-1.1,0.5
		C29.5,158.8,29.4,159.2,29.4,159.8z M38,157.2L31.1,168H30l6.9-10.8H38z M34.7,165.4c0-0.9,0.2-1.6,0.7-2.1s1.1-0.8,1.9-0.8
		c0.8,0,1.3,0.2,1.8,0.7c0.4,0.5,0.6,1.1,0.6,2c0,0.8-0.2,1.5-0.7,2s-1.1,0.8-1.9,0.8c-0.7,0-1.3-0.2-1.8-0.7
		C34.9,166.8,34.7,166.2,34.7,165.4z M35.8,165.3c0,0.6,0.1,1,0.4,1.4c0.3,0.3,0.6,0.5,1.1,0.5s0.8-0.2,1.1-0.5s0.4-0.8,0.4-1.4
		c0-0.6-0.1-1.1-0.4-1.4c-0.3-0.3-0.6-0.5-1-0.5c-0.5,0-0.8,0.2-1.1,0.5C35.9,164.3,35.8,164.7,35.8,165.3z"/>
</g>
<g id="_6.0_" class="st0">
	<path d="M14.8,128.4c-0.6-0.3-1.1-0.4-1.7-0.4c-0.9,0-1.7,0.4-2.2,1.2c-0.6,0.8-0.8,1.9-0.9,3.3l0,0c0.5-1,1.3-1.5,2.4-1.5
		c0.9,0,1.7,0.3,2.2,0.9s0.8,1.4,0.8,2.4s-0.3,1.9-1,2.6c-0.6,0.7-1.4,1-2.4,1c-1.1,0-1.9-0.4-2.6-1.3c-0.6-0.8-0.9-2.1-0.9-3.6
		c0-1.9,0.4-3.4,1.2-4.5c0.8-1.1,1.9-1.7,3.2-1.7c0.8,0,1.4,0.1,1.8,0.3L14.8,128.4L14.8,128.4z M10,134.2c0,0.7,0.2,1.3,0.6,1.8
		c0.4,0.5,0.9,0.8,1.5,0.8s1.1-0.2,1.4-0.6c0.4-0.4,0.6-1,0.6-1.7s-0.2-1.3-0.5-1.7s-0.8-0.6-1.5-0.6c-0.6,0-1.1,0.2-1.5,0.6
		C10.2,133.2,10,133.7,10,134.2z"/>
	<path d="M16.9,137c0-0.2,0.1-0.5,0.3-0.6c0.2-0.2,0.4-0.3,0.6-0.3c0.3,0,0.5,0.1,0.6,0.3c0.2,0.2,0.3,0.4,0.3,0.6
		c0,0.2-0.1,0.4-0.3,0.6c-0.2,0.2-0.4,0.3-0.6,0.3c-0.3,0-0.5-0.1-0.6-0.3C16.9,137.4,16.9,137.2,16.9,137z"/>
	<path d="M20.1,132.6c0-1.9,0.3-3.3,0.9-4.3s1.5-1.5,2.7-1.5c2.3,0,3.4,1.8,3.4,5.5c0,1.8-0.3,3.2-1,4.1c-0.6,1-1.5,1.4-2.7,1.4
		c-1.1,0-1.9-0.5-2.5-1.4C20.4,135.6,20.1,134.3,20.1,132.6z M21.4,132.5c0,2.8,0.7,4.3,2.2,4.3c1.4,0,2.1-1.4,2.1-4.3
		c0-3-0.7-4.5-2.1-4.5S21.4,129.5,21.4,132.5z"/>
	<path d="M28.3,129.7c0-0.9,0.2-1.6,0.7-2.1c0.5-0.5,1.1-0.8,1.9-0.8s1.4,0.2,1.8,0.7s0.6,1.1,0.6,2c0,0.8-0.2,1.5-0.7,2
		s-1.1,0.8-1.9,0.8c-0.7,0-1.3-0.2-1.8-0.7C28.5,131.2,28.3,130.5,28.3,129.7z M29.4,129.7c0,0.6,0.1,1.1,0.4,1.4
		c0.3,0.3,0.6,0.5,1.1,0.5s0.8-0.2,1.1-0.5c0.3-0.3,0.4-0.8,0.4-1.4c0-0.6-0.1-1.1-0.4-1.4c-0.2-0.3-0.6-0.5-1-0.5
		c-0.5,0-0.8,0.2-1.1,0.5C29.5,128.6,29.4,129.1,29.4,129.7z M38,127l-6.9,10.8H30l6.9-10.8H38z M34.7,135.2c0-0.9,0.2-1.6,0.7-2.1
		s1.1-0.8,1.9-0.8c0.8,0,1.3,0.2,1.8,0.7c0.4,0.5,0.6,1.1,0.6,2c0,0.8-0.2,1.5-0.7,2s-1.1,0.8-1.9,0.8c-0.7,0-1.3-0.2-1.8-0.7
		C34.9,136.6,34.7,136,34.7,135.2z M35.8,135.1c0,0.6,0.1,1,0.4,1.4c0.3,0.3,0.6,0.5,1.1,0.5s0.8-0.2,1.1-0.5s0.4-0.8,0.4-1.4
		c0-0.6-0.1-1.1-0.4-1.4c-0.3-0.3-0.6-0.5-1-0.5c-0.5,0-0.8,0.2-1.1,0.5C35.9,134.1,35.8,134.5,35.8,135.1z"/>
</g>
<g id="_8.0_" class="st0">
	<path d="M8.4,102c0-0.6,0.2-1.2,0.6-1.7c0.4-0.5,0.8-0.9,1.4-1.1c-0.5-0.3-0.8-0.6-1.1-1s-0.4-0.9-0.4-1.3c0-0.5,0.1-1,0.4-1.4
		c0.3-0.4,0.6-0.7,1.1-1c0.5-0.2,1-0.4,1.5-0.4c0.6,0,1.1,0.1,1.5,0.4c0.5,0.2,0.8,0.6,1.1,1s0.4,0.9,0.4,1.4s-0.1,0.9-0.4,1.3
		c-0.3,0.4-0.6,0.8-1.1,1c0.6,0.2,1.1,0.6,1.4,1.1c0.4,0.5,0.5,1.1,0.5,1.7s-0.1,1.2-0.4,1.6c-0.3,0.5-0.7,0.9-1.2,1.1
		c-0.5,0.3-1.1,0.4-1.8,0.4s-1.3-0.1-1.8-0.4s-0.9-0.6-1.2-1.1C8.6,103.1,8.4,102.6,8.4,102z M9.8,101.9c0,0.6,0.2,1.1,0.6,1.5
		c0.4,0.4,0.9,0.6,1.6,0.6c0.6,0,1.2-0.2,1.6-0.6c0.4-0.4,0.6-0.9,0.6-1.5s-0.2-1.1-0.6-1.5c-0.4-0.4-0.9-0.6-1.5-0.6
		s-1.1,0.2-1.5,0.6C10,100.8,9.8,101.3,9.8,101.9z M10.1,96.9c0,0.5,0.2,0.9,0.5,1.2c0.3,0.3,0.8,0.5,1.2,0.5c0.5,0,0.9-0.2,1.3-0.5
		s0.5-0.8,0.5-1.2c0-0.5-0.2-0.9-0.5-1.2s-0.8-0.5-1.3-0.5s-0.9,0.2-1.3,0.5C10.3,96,10.1,96.5,10.1,96.9z"/>
	<path d="M16.9,104.3c0-0.2,0.1-0.5,0.3-0.6c0.2-0.2,0.4-0.3,0.6-0.3c0.3,0,0.5,0.1,0.6,0.3c0.2,0.2,0.3,0.4,0.3,0.6
		s-0.1,0.4-0.3,0.6c-0.2,0.2-0.4,0.3-0.6,0.3c-0.3,0-0.5-0.1-0.6-0.3C16.9,104.7,16.9,104.5,16.9,104.3z"/>
	<path d="M20.1,99.8c0-1.9,0.3-3.3,0.9-4.3s1.5-1.5,2.7-1.5c2.3,0,3.4,1.8,3.4,5.5c0,1.8-0.3,3.2-1,4.1c-0.6,1-1.5,1.4-2.7,1.4
		c-1.1,0-1.9-0.5-2.5-1.4C20.4,102.9,20.1,101.6,20.1,99.8z M21.4,99.8c0,2.8,0.7,4.3,2.2,4.3c1.4,0,2.1-1.4,2.1-4.3
		c0-3-0.7-4.5-2.1-4.5C22.2,95.2,21.4,96.7,21.4,99.8z"/>
	<path d="M28.3,97c0-0.9,0.2-1.6,0.7-2.1s1.1-0.8,1.9-0.8s1.4,0.2,1.8,0.7s0.6,1.1,0.6,2c0,0.8-0.2,1.5-0.7,2s-1.1,0.8-1.9,0.8
		c-0.7,0-1.3-0.2-1.8-0.7C28.5,98.4,28.3,97.8,28.3,97z M29.4,96.9c0,0.6,0.1,1.1,0.4,1.4s0.6,0.5,1.1,0.5s0.8-0.2,1.1-0.5
		c0.3-0.3,0.4-0.8,0.4-1.4s-0.1-1.1-0.4-1.4c-0.2-0.3-0.6-0.5-1-0.5c-0.5,0-0.8,0.2-1.1,0.5C29.5,95.8,29.4,96.3,29.4,96.9z
		 M38,94.3L31.1,105H30l6.9-10.8H38V94.3z M34.7,102.5c0-0.9,0.2-1.6,0.7-2.1s1.1-0.8,1.9-0.8c0.8,0,1.3,0.2,1.8,0.7
		c0.4,0.5,0.6,1.1,0.6,2c0,0.8-0.2,1.5-0.7,2s-1.1,0.8-1.9,0.8c-0.7,0-1.3-0.2-1.8-0.7C34.9,103.9,34.7,103.3,34.7,102.5z
		 M35.8,102.4c0,0.6,0.1,1,0.4,1.4c0.3,0.3,0.6,0.5,1.1,0.5s0.8-0.2,1.1-0.5s0.4-0.8,0.4-1.4s-0.1-1.1-0.4-1.4
		c-0.3-0.3-0.6-0.5-1-0.5c-0.5,0-0.8,0.2-1.1,0.5C35.9,101.3,35.8,101.8,35.8,102.4z"/>
</g>
<g id="_10.0_" class="st0">
	<path d="M4.3,72.2v-9.1c-0.2,0.2-0.6,0.4-1.1,0.7s-1,0.4-1.4,0.6V63c0.6-0.2,1.2-0.4,1.8-0.7s1.1-0.7,1.5-1h0.5v10.9H4.3z"/>
	<path d="M9.3,67.1c0-1.9,0.3-3.3,0.9-4.3c0.6-1,1.5-1.5,2.7-1.5c2.3,0,3.4,1.8,3.4,5.5c0,1.8-0.3,3.2-1,4.1c-0.6,1-1.5,1.4-2.7,1.4
		c-1.1,0-1.9-0.5-2.5-1.4C9.6,70.1,9.3,68.8,9.3,67.1z M10.7,67c0,2.8,0.7,4.3,2.2,4.3c1.4,0,2.1-1.4,2.1-4.3c0-3-0.7-4.5-2.1-4.5
		C11.4,62.5,10.7,64,10.7,67z"/>
	<path d="M17.8,71.5c0-0.2,0.1-0.5,0.3-0.6c0.2-0.2,0.4-0.3,0.6-0.3c0.3,0,0.5,0.1,0.6,0.3c0.2,0.2,0.3,0.4,0.3,0.6
		s-0.1,0.4-0.3,0.6c-0.2,0.2-0.4,0.3-0.6,0.3c-0.3,0-0.5-0.1-0.6-0.3C17.9,72,17.8,71.8,17.8,71.5z"/>
	<path d="M21,67.1c0-1.9,0.3-3.3,0.9-4.3s1.5-1.5,2.7-1.5c2.3,0,3.4,1.8,3.4,5.5c0,1.8-0.3,3.2-1,4.1c-0.6,1-1.5,1.4-2.7,1.4
		c-1.1,0-1.9-0.5-2.5-1.4C21.3,70.1,21,68.8,21,67.1z M22.4,67c0,2.8,0.7,4.3,2.2,4.3c1.4,0,2.1-1.4,2.1-4.3c0-3-0.7-4.5-2.1-4.5
		C23.1,62.5,22.4,64,22.4,67z"/>
	<path d="M29.3,64.2c0-0.9,0.2-1.6,0.7-2.1s1.1-0.8,1.9-0.8c0.8,0,1.4,0.2,1.8,0.7s0.6,1.1,0.6,2c0,0.8-0.2,1.5-0.7,2
		s-1.1,0.8-1.9,0.8c-0.7,0-1.3-0.2-1.8-0.7C29.5,65.7,29.3,65,29.3,64.2z M30.3,64.2c0,0.6,0.1,1.1,0.4,1.4s0.6,0.5,1.1,0.5
		s0.8-0.2,1.1-0.5s0.4-0.8,0.4-1.4s-0.1-1.1-0.4-1.4c-0.2-0.3-0.6-0.5-1-0.5c-0.5,0-0.8,0.2-1.1,0.5C30.5,63.1,30.3,63.6,30.3,64.2z
		 M38.9,61.5L32,72.3h-1.2l6.9-10.8C37.7,61.5,38.9,61.5,38.9,61.5z M35.7,69.7c0-0.9,0.2-1.6,0.7-2.1s1.1-0.8,1.9-0.8
		c0.8,0,1.3,0.2,1.8,0.7c0.4,0.5,0.6,1.1,0.6,2c0,0.8-0.2,1.5-0.7,2s-1.1,0.8-1.9,0.8c-0.7,0-1.3-0.2-1.8-0.7
		C35.9,71.2,35.7,70.5,35.7,69.7z M36.7,69.7c0,0.6,0.1,1,0.4,1.4c0.3,0.3,0.6,0.5,1.1,0.5s0.8-0.2,1.1-0.5s0.4-0.8,0.4-1.4
		s-0.1-1.1-0.4-1.4c-0.3-0.3-0.6-0.5-1-0.5c-0.5,0-0.8,0.2-1.1,0.5C36.8,68.6,36.7,69.1,36.7,69.7z"/>
</g>
<g id="_12.0_" class="st0">
	<path d="M4.3,41.4v-9.1c-0.2,0.2-0.6,0.4-1.1,0.7s-1,0.4-1.4,0.6v-1.3c0.6-0.2,1.2-0.4,1.8-0.7c0.6-0.3,1.1-0.7,1.5-1h0.5v10.9
		L4.3,41.4L4.3,41.4z"/>
	<path d="M14.6,33.5c0-0.6-0.2-1-0.5-1.4c-0.4-0.3-0.9-0.5-1.5-0.5c-0.4,0-0.9,0.1-1.3,0.3c-0.5,0.2-0.9,0.5-1.3,1v-1.3
		c0.3-0.4,0.7-0.6,1.2-0.8c0.4-0.2,1-0.3,1.6-0.3c1,0,1.7,0.3,2.3,0.8s0.9,1.2,0.9,2.1c0,0.8-0.2,1.5-0.5,2c-0.4,0.6-1,1.2-1.9,1.8
		s-1.5,1.1-1.8,1.3c-0.3,0.3-0.5,0.5-0.6,0.8c-0.1,0.2-0.2,0.5-0.2,0.9h5.3v1.2H9.5v-0.5c0-0.6,0.1-1.1,0.3-1.6
		c0.2-0.4,0.4-0.8,0.8-1.3c0.4-0.4,1-0.9,1.8-1.5s1.4-1.1,1.7-1.5C14.4,34.6,14.6,34.1,14.6,33.5z"/>
	<path d="M17.8,40.7c0-0.2,0.1-0.5,0.3-0.6c0.2-0.2,0.4-0.3,0.6-0.3c0.3,0,0.5,0.1,0.6,0.3c0.2,0.2,0.3,0.4,0.3,0.6
		c0,0.2-0.1,0.4-0.3,0.6c-0.2,0.2-0.4,0.3-0.6,0.3c-0.3,0-0.5-0.1-0.6-0.3C17.9,41.1,17.8,40.9,17.8,40.7z"/>
	<path d="M21,36.3c0-1.9,0.3-3.3,0.9-4.3s1.5-1.5,2.7-1.5c2.3,0,3.4,1.8,3.4,5.5c0,1.8-0.3,3.2-1,4.1c-0.6,1-1.5,1.4-2.7,1.4
		c-1.1,0-1.9-0.5-2.5-1.4C21.3,39.3,21,38,21,36.3z M22.4,36.2c0,2.8,0.7,4.3,2.2,4.3c1.4,0,2.1-1.4,2.1-4.3c0-3-0.7-4.5-2.1-4.5
		C23.1,31.7,22.4,33.2,22.4,36.2z"/>
	<path d="M29.3,33.4c0-0.9,0.2-1.6,0.7-2.1s1.1-0.8,1.9-0.8c0.8,0,1.4,0.2,1.8,0.7s0.6,1.1,0.6,2c0,0.8-0.2,1.5-0.7,2
		S32.5,36,31.7,36c-0.7,0-1.3-0.2-1.8-0.7C29.5,34.9,29.3,34.2,29.3,33.4z M30.3,33.4c0,0.6,0.1,1.1,0.4,1.4
		c0.3,0.3,0.6,0.5,1.1,0.5s0.8-0.2,1.1-0.5s0.4-0.8,0.4-1.4c0-0.6-0.1-1.1-0.4-1.4c-0.2-0.3-0.6-0.5-1-0.5c-0.5,0-0.8,0.2-1.1,0.5
		C30.5,32.3,30.3,32.7,30.3,33.4z M38.9,30.7L32,41.5h-1.2l6.9-10.8H38.9z M35.7,38.9c0-0.9,0.2-1.6,0.7-2.1s1.1-0.8,1.9-0.8
		c0.8,0,1.3,0.2,1.8,0.7c0.4,0.5,0.6,1.1,0.6,2c0,0.8-0.2,1.5-0.7,2s-1.1,0.8-1.9,0.8c-0.7,0-1.3-0.2-1.8-0.7
		C35.9,40.3,35.7,39.7,35.7,38.9z M36.7,38.8c0,0.6,0.1,1,0.4,1.4c0.3,0.3,0.6,0.5,1.1,0.5s0.8-0.2,1.1-0.5s0.4-0.8,0.4-1.4
		c0-0.6-0.1-1.1-0.4-1.4c-0.3-0.3-0.6-0.5-1-0.5c-0.5,0-0.8,0.2-1.1,0.5C36.8,37.8,36.7,38.2,36.7,38.8z"/>
</g>
<g id="线">
	<rect id="矩形_863_拷贝_2" x="47.3" y="194.8" class="st1" width="136.1" height="1.3"/>
	<rect id="矩形_863_拷贝_3" x="47.3" y="162" class="st1" width="136.1" height="1.3"/>
	<rect id="矩形_863_拷贝_4" x="47.3" y="129.3" class="st1" width="136.1" height="1.3"/>
	<rect id="矩形_863_拷贝_5" x="47.3" y="97.2" class="st1" width="136.1" height="1.3"/>
	<rect id="矩形_863_拷贝_5-2" x="47.3" y="64.5" class="st1" width="136.1" height="1.3"/>
	<rect id="矩形_863_拷贝_5-3" x="47.3" y="31.7" class="st1" width="136.1" height="1.3"/>
	<rect id="矩形_863" x="47.3" y="29.8" class="st2" width="1.3" height="200.3"/>
</g>
<rect id="矩形_864" x="67.2" y="64.5" class="st3" width="29.5" height="164.4"/>
<rect id="矩形_864_拷贝" x="96.7" y="129.3" class="st4" width="29.5" height="99.5"/>
<rect id="矩形_864_拷贝_2" x="126.2" y="184.5" class="st5" width="29.5" height="44.3"/>
<rect id="矩形_863_拷贝" x="47.3" y="228.8" class="st2" width="136.1" height="1.3"/>
<g id="_2">
	<g id="_2.0_2" class="st0">
		<path d="M215.7,187.6c0-0.6-0.2-1-0.5-1.4c-0.4-0.3-0.9-0.5-1.5-0.5c-0.4,0-0.9,0.1-1.3,0.3c-0.5,0.2-0.9,0.5-1.3,1v-1.3
			c0.3-0.4,0.7-0.6,1.2-0.8c0.4-0.2,1-0.3,1.6-0.3c1,0,1.7,0.3,2.3,0.8s0.9,1.2,0.9,2.1c0,0.8-0.2,1.5-0.5,2c-0.4,0.6-1,1.2-1.9,1.8
			s-1.5,1.1-1.8,1.3c-0.3,0.3-0.5,0.5-0.6,0.8c-0.1,0.2-0.2,0.5-0.2,0.9h5.3v1.2h-6.7V195c0-0.6,0.1-1.1,0.3-1.6
			c0.2-0.4,0.4-0.8,0.8-1.3c0.4-0.4,1-0.9,1.8-1.5s1.4-1.1,1.7-1.5S215.7,188.2,215.7,187.6z"/>
		<path d="M219,194.8c0-0.2,0.1-0.5,0.3-0.6c0.2-0.2,0.4-0.3,0.6-0.3c0.3,0,0.5,0.1,0.6,0.3c0.2,0.2,0.3,0.4,0.3,0.6
			c0,0.2-0.1,0.4-0.3,0.6c-0.2,0.2-0.4,0.3-0.6,0.3c-0.3,0-0.5-0.1-0.6-0.3C219.1,195.2,219,195,219,194.8z"/>
		<path d="M222.2,190.4c0-1.9,0.3-3.3,0.9-4.3c0.6-1,1.5-1.5,2.7-1.5c2.3,0,3.4,1.8,3.4,5.5c0,1.8-0.3,3.2-1,4.1
			c-0.6,1-1.5,1.4-2.7,1.4c-1.1,0-1.9-0.5-2.5-1.4C222.5,193.4,222.2,192.1,222.2,190.4z M223.5,190.3c0,2.8,0.7,4.3,2.2,4.3
			c1.4,0,2.1-1.4,2.1-4.3c0-3-0.7-4.5-2.1-4.5C224.3,185.8,223.5,187.3,223.5,190.3z"/>
		<path d="M230.4,187.5c0-0.9,0.2-1.6,0.7-2.1s1.1-0.8,1.9-0.8c0.8,0,1.4,0.2,1.8,0.7c0.4,0.5,0.6,1.1,0.6,2c0,0.8-0.2,1.5-0.7,2
			s-1.1,0.8-1.9,0.8c-0.7,0-1.3-0.2-1.8-0.7C230.7,189,230.4,188.3,230.4,187.5z M231.5,187.4c0,0.6,0.1,1.1,0.4,1.4
			c0.3,0.3,0.6,0.5,1.1,0.5s0.8-0.2,1.1-0.5s0.4-0.8,0.4-1.4c0-0.6-0.1-1.1-0.4-1.4c-0.2-0.3-0.6-0.5-1-0.5c-0.5,0-0.8,0.2-1.1,0.5
			C231.6,186.4,231.5,186.8,231.5,187.4z M240.1,184.8l-6.9,10.8H232l6.9-10.8H240.1z M236.8,193c0-0.9,0.2-1.6,0.7-2.1
			s1.1-0.8,1.9-0.8c0.8,0,1.3,0.2,1.8,0.7c0.4,0.5,0.6,1.1,0.6,2c0,0.8-0.2,1.5-0.7,2s-1.1,0.8-1.9,0.8c-0.7,0-1.3-0.2-1.8-0.7
			C237.1,194.4,236.8,193.8,236.8,193z M237.9,192.9c0,0.6,0.1,1,0.4,1.4c0.3,0.3,0.6,0.5,1.1,0.5s0.8-0.2,1.1-0.5s0.4-0.8,0.4-1.4
			c0-0.6-0.1-1.1-0.4-1.4c-0.3-0.3-0.6-0.5-1-0.5c-0.5,0-0.8,0.2-1.1,0.5C238,191.9,237.9,192.3,237.9,192.9z"/>
	</g>
	<g id="_4.0_2" class="st0">
		<path d="M216.3,157.2v7.1h1.6v1.1h-1.6v2.5H215v-2.5h-5v-1.1c0.9-1,1.8-2.1,2.7-3.4c0.9-1.3,1.6-2.5,2.2-3.7L216.3,157.2
			L216.3,157.2z M211.5,164.3h3.5v-5.1c-0.5,0.9-1,1.7-1.5,2.5C212.9,162.5,212.2,163.3,211.5,164.3z"/>
		<path d="M219,167.2c0-0.2,0.1-0.5,0.3-0.6c0.2-0.2,0.4-0.3,0.6-0.3c0.3,0,0.5,0.1,0.6,0.3c0.2,0.2,0.3,0.4,0.3,0.6
			c0,0.2-0.1,0.4-0.3,0.6c-0.2,0.2-0.4,0.3-0.6,0.3c-0.3,0-0.5-0.1-0.6-0.3C219.1,167.6,219,167.4,219,167.2z"/>
		<path d="M222.2,162.8c0-1.9,0.3-3.3,0.9-4.3c0.6-1,1.5-1.5,2.7-1.5c2.3,0,3.4,1.8,3.4,5.5c0,1.8-0.3,3.2-1,4.1
			c-0.6,1-1.5,1.4-2.7,1.4c-1.1,0-1.9-0.5-2.5-1.4C222.5,165.8,222.2,164.5,222.2,162.8z M223.5,162.7c0,2.8,0.7,4.3,2.2,4.3
			c1.4,0,2.1-1.4,2.1-4.3c0-3-0.7-4.5-2.1-4.5C224.3,158.2,223.5,159.7,223.5,162.7z"/>
		<path d="M230.4,159.9c0-0.9,0.2-1.6,0.7-2.1s1.1-0.8,1.9-0.8c0.8,0,1.4,0.2,1.8,0.7c0.4,0.5,0.6,1.1,0.6,2c0,0.8-0.2,1.5-0.7,2
			s-1.1,0.8-1.9,0.8c-0.7,0-1.3-0.2-1.8-0.7C230.7,161.4,230.4,160.7,230.4,159.9z M231.5,159.8c0,0.6,0.1,1.1,0.4,1.4
			c0.3,0.3,0.6,0.5,1.1,0.5s0.8-0.2,1.1-0.5s0.4-0.8,0.4-1.4c0-0.6-0.1-1.1-0.4-1.4c-0.2-0.3-0.6-0.5-1-0.5c-0.5,0-0.8,0.2-1.1,0.5
			C231.6,158.8,231.5,159.2,231.5,159.8z M240.1,157.2l-6.9,10.8H232l6.9-10.8H240.1z M236.8,165.4c0-0.9,0.2-1.6,0.7-2.1
			s1.1-0.8,1.9-0.8c0.8,0,1.3,0.2,1.8,0.7c0.4,0.5,0.6,1.1,0.6,2c0,0.8-0.2,1.5-0.7,2s-1.1,0.8-1.9,0.8c-0.7,0-1.3-0.2-1.8-0.7
			C237.1,166.8,236.8,166.2,236.8,165.4z M237.9,165.3c0,0.6,0.1,1,0.4,1.4c0.3,0.3,0.6,0.5,1.1,0.5s0.8-0.2,1.1-0.5
			s0.4-0.8,0.4-1.4c0-0.6-0.1-1.1-0.4-1.4c-0.3-0.3-0.6-0.5-1-0.5c-0.5,0-0.8,0.2-1.1,0.5C238,164.3,237.9,164.7,237.9,165.3z"/>
	</g>
	<g id="_6.0_2" class="st0">
		<path d="M216.9,128.4c-0.6-0.3-1.1-0.4-1.7-0.4c-0.9,0-1.7,0.4-2.2,1.2c-0.6,0.8-0.8,1.9-0.9,3.3l0,0c0.5-1,1.3-1.5,2.4-1.5
			c0.9,0,1.7,0.3,2.2,0.9s0.8,1.4,0.8,2.4s-0.3,1.9-1,2.6c-0.6,0.7-1.4,1-2.4,1c-1.1,0-1.9-0.4-2.6-1.3c-0.6-0.8-0.9-2.1-0.9-3.6
			c0-1.9,0.4-3.4,1.2-4.5c0.8-1.1,1.9-1.7,3.2-1.7c0.8,0,1.4,0.1,1.8,0.3L216.9,128.4L216.9,128.4z M212.1,134.2
			c0,0.7,0.2,1.3,0.6,1.8c0.4,0.5,0.9,0.8,1.5,0.8s1.1-0.2,1.4-0.6c0.4-0.4,0.6-1,0.6-1.7s-0.2-1.3-0.5-1.7s-0.8-0.6-1.5-0.6
			c-0.6,0-1.1,0.2-1.5,0.6C212.3,133.2,212.1,133.7,212.1,134.2z"/>
		<path d="M219,137c0-0.2,0.1-0.5,0.3-0.6c0.2-0.2,0.4-0.3,0.6-0.3c0.3,0,0.5,0.1,0.6,0.3c0.2,0.2,0.3,0.4,0.3,0.6
			c0,0.2-0.1,0.4-0.3,0.6c-0.2,0.2-0.4,0.3-0.6,0.3c-0.3,0-0.5-0.1-0.6-0.3C219.1,137.4,219,137.2,219,137z"/>
		<path d="M222.2,132.6c0-1.9,0.3-3.3,0.9-4.3c0.6-1,1.5-1.5,2.7-1.5c2.3,0,3.4,1.8,3.4,5.5c0,1.8-0.3,3.2-1,4.1
			c-0.6,1-1.5,1.4-2.7,1.4c-1.1,0-1.9-0.5-2.5-1.4C222.5,135.6,222.2,134.3,222.2,132.6z M223.5,132.5c0,2.8,0.7,4.3,2.2,4.3
			c1.4,0,2.1-1.4,2.1-4.3c0-3-0.7-4.5-2.1-4.5C224.3,128,223.5,129.5,223.5,132.5z"/>
		<path d="M230.4,129.7c0-0.9,0.2-1.6,0.7-2.1c0.5-0.5,1.1-0.8,1.9-0.8c0.8,0,1.4,0.2,1.8,0.7c0.4,0.5,0.6,1.1,0.6,2
			c0,0.8-0.2,1.5-0.7,2s-1.1,0.8-1.9,0.8c-0.7,0-1.3-0.2-1.8-0.7C230.7,131.2,230.4,130.5,230.4,129.7z M231.5,129.7
			c0,0.6,0.1,1.1,0.4,1.4c0.3,0.3,0.6,0.5,1.1,0.5s0.8-0.2,1.1-0.5s0.4-0.8,0.4-1.4c0-0.6-0.1-1.1-0.4-1.4c-0.2-0.3-0.6-0.5-1-0.5
			c-0.5,0-0.8,0.2-1.1,0.5C231.6,128.6,231.5,129.1,231.5,129.7z M240.1,127l-6.9,10.8H232l6.9-10.8H240.1z M236.8,135.2
			c0-0.9,0.2-1.6,0.7-2.1s1.1-0.8,1.9-0.8c0.8,0,1.3,0.2,1.8,0.7c0.4,0.5,0.6,1.1,0.6,2c0,0.8-0.2,1.5-0.7,2s-1.1,0.8-1.9,0.8
			c-0.7,0-1.3-0.2-1.8-0.7C237.1,136.6,236.8,136,236.8,135.2z M237.9,135.1c0,0.6,0.1,1,0.4,1.4c0.3,0.3,0.6,0.5,1.1,0.5
			s0.8-0.2,1.1-0.5s0.4-0.8,0.4-1.4c0-0.6-0.1-1.1-0.4-1.4c-0.3-0.3-0.6-0.5-1-0.5c-0.5,0-0.8,0.2-1.1,0.5
			C238,134.1,237.9,134.5,237.9,135.1z"/>
	</g>
	<g id="_8.0_2" class="st0">
		<path d="M210.5,102c0-0.6,0.2-1.2,0.6-1.7c0.4-0.5,0.8-0.9,1.4-1.1c-0.5-0.3-0.8-0.6-1.1-1s-0.4-0.9-0.4-1.3c0-0.5,0.1-1,0.4-1.4
			c0.3-0.4,0.6-0.7,1.1-1s1-0.4,1.5-0.4c0.6,0,1.1,0.1,1.5,0.4c0.5,0.2,0.8,0.6,1.1,1s0.4,0.9,0.4,1.4s-0.1,0.9-0.4,1.3
			c-0.3,0.4-0.6,0.8-1.1,1c0.6,0.2,1.1,0.6,1.4,1.1c0.4,0.5,0.5,1.1,0.5,1.7s-0.1,1.2-0.4,1.6c-0.3,0.5-0.7,0.9-1.2,1.1
			c-0.5,0.3-1.1,0.4-1.8,0.4s-1.3-0.1-1.8-0.4s-0.9-0.6-1.2-1.1S210.5,102.6,210.5,102z M211.9,101.9c0,0.6,0.2,1.1,0.6,1.5
			c0.4,0.4,0.9,0.6,1.6,0.6c0.6,0,1.2-0.2,1.6-0.6c0.4-0.4,0.6-0.9,0.6-1.5s-0.2-1.1-0.6-1.5c-0.4-0.4-0.9-0.6-1.5-0.6
			s-1.1,0.2-1.5,0.6C212.1,100.8,211.9,101.3,211.9,101.9z M212.3,96.9c0,0.5,0.2,0.9,0.5,1.2c0.3,0.3,0.8,0.5,1.2,0.5
			c0.5,0,0.9-0.2,1.3-0.5s0.5-0.8,0.5-1.2c0-0.5-0.2-0.9-0.5-1.2s-0.8-0.5-1.3-0.5s-0.9,0.2-1.3,0.5C212.4,96,212.3,96.5,212.3,96.9
			z"/>
		<path d="M219,104.3c0-0.2,0.1-0.5,0.3-0.6c0.2-0.2,0.4-0.3,0.6-0.3c0.3,0,0.5,0.1,0.6,0.3c0.2,0.2,0.3,0.4,0.3,0.6
			s-0.1,0.4-0.3,0.6s-0.4,0.3-0.6,0.3c-0.3,0-0.5-0.1-0.6-0.3C219.1,104.7,219,104.5,219,104.3z"/>
		<path d="M222.2,99.8c0-1.9,0.3-3.3,0.9-4.3c0.6-1,1.5-1.5,2.7-1.5c2.3,0,3.4,1.8,3.4,5.5c0,1.8-0.3,3.2-1,4.1
			c-0.6,1-1.5,1.4-2.7,1.4c-1.1,0-1.9-0.5-2.5-1.4C222.5,102.9,222.2,101.6,222.2,99.8z M223.5,99.8c0,2.8,0.7,4.3,2.2,4.3
			c1.4,0,2.1-1.4,2.1-4.3c0-3-0.7-4.5-2.1-4.5C224.3,95.2,223.5,96.7,223.5,99.8z"/>
		<path d="M230.4,97c0-0.9,0.2-1.6,0.7-2.1s1.1-0.8,1.9-0.8c0.8,0,1.4,0.2,1.8,0.7c0.4,0.5,0.6,1.1,0.6,2c0,0.8-0.2,1.5-0.7,2
			s-1.1,0.8-1.9,0.8c-0.7,0-1.3-0.2-1.8-0.7S230.4,97.8,230.4,97z M231.5,96.9c0,0.6,0.1,1.1,0.4,1.4c0.3,0.3,0.6,0.5,1.1,0.5
			s0.8-0.2,1.1-0.5s0.4-0.8,0.4-1.4s-0.1-1.1-0.4-1.4c-0.2-0.3-0.6-0.5-1-0.5c-0.5,0-0.8,0.2-1.1,0.5
			C231.6,95.8,231.5,96.3,231.5,96.9z M240.1,94.3l-6.9,10.8H232l6.9-10.8H240.1z M236.8,102.5c0-0.9,0.2-1.6,0.7-2.1
			s1.1-0.8,1.9-0.8c0.8,0,1.3,0.2,1.8,0.7c0.4,0.5,0.6,1.1,0.6,2c0,0.8-0.2,1.5-0.7,2s-1.1,0.8-1.9,0.8c-0.7,0-1.3-0.2-1.8-0.7
			C237.1,103.9,236.8,103.3,236.8,102.5z M237.9,102.4c0,0.6,0.1,1,0.4,1.4c0.3,0.3,0.6,0.5,1.1,0.5s0.8-0.2,1.1-0.5
			s0.4-0.8,0.4-1.4s-0.1-1.1-0.4-1.4c-0.3-0.3-0.6-0.5-1-0.5c-0.5,0-0.8,0.2-1.1,0.5C238,101.3,237.9,101.8,237.9,102.4z"/>
	</g>
	<g id="_10.0_2" class="st0">
		<path d="M206.4,72.2v-9.1c-0.2,0.2-0.6,0.4-1.1,0.7s-1,0.4-1.4,0.6V63c0.6-0.2,1.2-0.4,1.8-0.7s1.1-0.7,1.5-1h0.5v10.9H206.4z"/>
		<path d="M211.4,67.1c0-1.9,0.3-3.3,0.9-4.3c0.6-1,1.5-1.5,2.7-1.5c2.3,0,3.4,1.8,3.4,5.5c0,1.8-0.3,3.2-1,4.1
			c-0.6,1-1.5,1.4-2.7,1.4c-1.1,0-1.9-0.5-2.5-1.4C211.7,70.1,211.4,68.8,211.4,67.1z M212.8,67c0,2.8,0.7,4.3,2.2,4.3
			c1.4,0,2.1-1.4,2.1-4.3c0-3-0.7-4.5-2.1-4.5C213.5,62.5,212.8,64,212.8,67z"/>
		<path d="M219.9,71.5c0-0.2,0.1-0.5,0.3-0.6c0.2-0.2,0.4-0.3,0.6-0.3c0.3,0,0.5,0.1,0.6,0.3c0.2,0.2,0.3,0.4,0.3,0.6
			s-0.1,0.4-0.3,0.6s-0.4,0.3-0.6,0.3c-0.3,0-0.5-0.1-0.6-0.3C220,72,219.9,71.8,219.9,71.5z"/>
		<path d="M223.1,67.1c0-1.9,0.3-3.3,0.9-4.3c0.6-1,1.5-1.5,2.7-1.5c2.3,0,3.4,1.8,3.4,5.5c0,1.8-0.3,3.2-1,4.1
			c-0.6,1-1.5,1.4-2.7,1.4c-1.1,0-1.9-0.5-2.5-1.4S223.1,68.8,223.1,67.1z M224.5,67c0,2.8,0.7,4.3,2.2,4.3c1.4,0,2.1-1.4,2.1-4.3
			c0-3-0.7-4.5-2.1-4.5C225.2,62.5,224.5,64,224.5,67z"/>
		<path d="M231.4,64.2c0-0.9,0.2-1.6,0.7-2.1s1.1-0.8,1.9-0.8c0.8,0,1.4,0.2,1.8,0.7c0.4,0.5,0.6,1.1,0.6,2c0,0.8-0.2,1.5-0.7,2
			s-1.1,0.8-1.9,0.8c-0.7,0-1.3-0.2-1.8-0.7C231.6,65.7,231.4,65,231.4,64.2z M232.4,64.2c0,0.6,0.1,1.1,0.4,1.4
			c0.3,0.3,0.6,0.5,1.1,0.5s0.8-0.2,1.1-0.5s0.4-0.8,0.4-1.4s-0.1-1.1-0.4-1.4c-0.2-0.3-0.6-0.5-1-0.5c-0.5,0-0.8,0.2-1.1,0.5
			C232.6,63.1,232.4,63.6,232.4,64.2z M241,61.5l-6.9,10.8H233l6.9-10.8C239.9,61.5,241,61.5,241,61.5z M237.8,69.7
			c0-0.9,0.2-1.6,0.7-2.1s1.1-0.8,1.9-0.8c0.8,0,1.3,0.2,1.8,0.7c0.4,0.5,0.6,1.1,0.6,2c0,0.8-0.2,1.5-0.7,2s-1.1,0.8-1.9,0.8
			c-0.7,0-1.3-0.2-1.8-0.7C238,71.2,237.8,70.5,237.8,69.7z M238.8,69.7c0,0.6,0.1,1,0.4,1.4c0.3,0.3,0.6,0.5,1.1,0.5
			s0.8-0.2,1.1-0.5s0.4-0.8,0.4-1.4s-0.1-1.1-0.4-1.4c-0.3-0.3-0.6-0.5-1-0.5c-0.5,0-0.8,0.2-1.1,0.5
			C238.9,68.6,238.8,69.1,238.8,69.7z"/>
	</g>
	<g id="_12.0_2" class="st0">
		<path d="M206.4,41.4v-9.1c-0.2,0.2-0.6,0.4-1.1,0.7s-1,0.4-1.4,0.6v-1.3c0.6-0.2,1.2-0.4,1.8-0.7c0.6-0.3,1.1-0.7,1.5-1h0.5v10.9
			L206.4,41.4L206.4,41.4z"/>
		<path d="M216.7,33.5c0-0.6-0.2-1-0.5-1.4c-0.4-0.3-0.9-0.5-1.5-0.5c-0.4,0-0.9,0.1-1.3,0.3c-0.5,0.2-0.9,0.5-1.3,1v-1.3
			c0.3-0.4,0.7-0.6,1.2-0.8c0.4-0.2,1-0.3,1.6-0.3c1,0,1.7,0.3,2.3,0.8s0.9,1.2,0.9,2.1c0,0.8-0.2,1.5-0.5,2c-0.4,0.6-1,1.2-1.9,1.8
			s-1.5,1.1-1.8,1.3s-0.5,0.5-0.6,0.8c-0.1,0.2-0.2,0.5-0.2,0.9h5.3v1.2h-6.7v-0.5c0-0.6,0.1-1.1,0.3-1.6c0.2-0.4,0.4-0.8,0.8-1.3
			c0.4-0.4,1-0.9,1.8-1.5s1.4-1.1,1.7-1.5C216.5,34.6,216.7,34.1,216.7,33.5z"/>
		<path d="M219.9,40.7c0-0.2,0.1-0.5,0.3-0.6c0.2-0.2,0.4-0.3,0.6-0.3c0.3,0,0.5,0.1,0.6,0.3c0.2,0.2,0.3,0.4,0.3,0.6
			c0,0.2-0.1,0.4-0.3,0.6c-0.2,0.2-0.4,0.3-0.6,0.3c-0.3,0-0.5-0.1-0.6-0.3C220,41.1,219.9,40.9,219.9,40.7z"/>
		<path d="M223.1,36.3c0-1.9,0.3-3.3,0.9-4.3c0.6-1,1.5-1.5,2.7-1.5c2.3,0,3.4,1.8,3.4,5.5c0,1.8-0.3,3.2-1,4.1
			c-0.6,1-1.5,1.4-2.7,1.4c-1.1,0-1.9-0.5-2.5-1.4S223.1,38,223.1,36.3z M224.5,36.2c0,2.8,0.7,4.3,2.2,4.3c1.4,0,2.1-1.4,2.1-4.3
			c0-3-0.7-4.5-2.1-4.5C225.2,31.7,224.5,33.2,224.5,36.2z"/>
		<path d="M231.4,33.4c0-0.9,0.2-1.6,0.7-2.1s1.1-0.8,1.9-0.8c0.8,0,1.4,0.2,1.8,0.7c0.4,0.5,0.6,1.1,0.6,2c0,0.8-0.2,1.5-0.7,2
			s-1.1,0.8-1.9,0.8c-0.7,0-1.3-0.2-1.8-0.7C231.6,34.9,231.4,34.2,231.4,33.4z M232.4,33.4c0,0.6,0.1,1.1,0.4,1.4
			c0.3,0.3,0.6,0.5,1.1,0.5s0.8-0.2,1.1-0.5s0.4-0.8,0.4-1.4c0-0.6-0.1-1.1-0.4-1.4c-0.2-0.3-0.6-0.5-1-0.5c-0.5,0-0.8,0.2-1.1,0.5
			C232.6,32.3,232.4,32.7,232.4,33.4z M241,30.7l-6.9,10.8H233l6.9-10.8H241z M237.8,38.9c0-0.9,0.2-1.6,0.7-2.1s1.1-0.8,1.9-0.8
			c0.8,0,1.3,0.2,1.8,0.7c0.4,0.5,0.6,1.1,0.6,2c0,0.8-0.2,1.5-0.7,2s-1.1,0.8-1.9,0.8c-0.7,0-1.3-0.2-1.8-0.7
			C238,40.3,237.8,39.7,237.8,38.9z M238.8,38.8c0,0.6,0.1,1,0.4,1.4c0.3,0.3,0.6,0.5,1.1,0.5s0.8-0.2,1.1-0.5s0.4-0.8,0.4-1.4
			c0-0.6-0.1-1.1-0.4-1.4c-0.3-0.3-0.6-0.5-1-0.5c-0.5,0-0.8,0.2-1.1,0.5C238.9,37.8,238.8,38.2,238.8,38.8z"/>
	</g>
</g>
<g id="线-2">
	<rect id="矩形_863_拷贝_2-2" x="249.4" y="194.8" class="st1" width="136.2" height="1.3"/>
	<rect id="矩形_863_拷贝_3-2" x="249.4" y="162" class="st1" width="136.2" height="1.3"/>
	<rect id="矩形_863_拷贝_4-2" x="249.4" y="129.3" class="st1" width="136.2" height="1.3"/>
	<rect id="矩形_863_拷贝_5-4" x="249.4" y="97.2" class="st1" width="136.2" height="1.3"/>
	<rect id="矩形_863_拷贝_5-5" x="249.4" y="64.5" class="st1" width="136.2" height="1.3"/>
	<rect id="矩形_863_拷贝_5-6" x="249.4" y="31.7" class="st1" width="136.2" height="1.3"/>
	<rect id="矩形_863-2" x="249.4" y="29.8" class="st2" width="1.3" height="200.3"/>
</g>
<rect id="矩形_864-2" x="269.4" y="137.6" class="st3" width="29.5" height="91.2"/>
<rect id="矩形_864_拷贝-2" x="299" y="142.8" class="st4" width="29.5" height="86"/>
<rect id="矩形_864_拷贝_2-2" x="328.5" y="170.4" class="st5" width="29.5" height="58.4"/>
<rect id="矩形_863_拷贝-2" x="249.4" y="228.8" class="st2" width="136.2" height="1.3"/>
<g id="_3">
	<g id="_2.0_3" class="st0">
		<path d="M419.9,187.6c0-0.6-0.2-1-0.5-1.4c-0.4-0.3-0.9-0.5-1.5-0.5c-0.4,0-0.9,0.1-1.3,0.3c-0.5,0.2-0.9,0.5-1.3,1v-1.3
			c0.3-0.4,0.7-0.6,1.2-0.8c0.4-0.2,1-0.3,1.6-0.3c1,0,1.7,0.3,2.3,0.8c0.6,0.5,0.9,1.2,0.9,2.1c0,0.8-0.2,1.5-0.5,2
			c-0.4,0.6-1,1.2-1.9,1.8s-1.5,1.1-1.8,1.3c-0.3,0.3-0.5,0.5-0.6,0.8c-0.1,0.2-0.2,0.5-0.2,0.9h5.3v1.2h-6.7V195
			c0-0.6,0.1-1.1,0.3-1.6c0.2-0.4,0.4-0.8,0.8-1.3c0.4-0.4,1-0.9,1.8-1.5s1.4-1.1,1.7-1.5C419.8,188.6,419.9,188.1,419.9,187.6z"/>
		<path d="M423.1,194.7c0-0.2,0.1-0.5,0.3-0.6c0.2-0.2,0.4-0.3,0.6-0.3c0.3,0,0.5,0.1,0.6,0.3c0.2,0.2,0.3,0.4,0.3,0.6
			c0,0.2-0.1,0.4-0.3,0.6c-0.2,0.2-0.4,0.3-0.6,0.3c-0.3,0-0.5-0.1-0.6-0.3C423.2,195.2,423.1,195,423.1,194.7z"/>
		<path d="M426.3,190.3c0-1.9,0.3-3.3,0.9-4.3s1.5-1.5,2.7-1.5c2.3,0,3.4,1.8,3.4,5.5c0,1.8-0.3,3.2-1,4.1c-0.6,1-1.5,1.4-2.7,1.4
			c-1.1,0-1.9-0.5-2.5-1.4C426.6,193.4,426.3,192.1,426.3,190.3z M427.7,190.3c0,2.8,0.7,4.3,2.2,4.3c1.4,0,2.1-1.4,2.1-4.3
			c0-3-0.7-4.5-2.1-4.5C428.5,185.7,427.7,187.2,427.7,190.3z"/>
		<path d="M434.6,187.5c0-0.9,0.2-1.6,0.7-2.1s1.1-0.8,1.9-0.8s1.4,0.2,1.8,0.7s0.6,1.1,0.6,2c0,0.8-0.2,1.5-0.7,2s-1.1,0.8-1.9,0.8
			c-0.7,0-1.3-0.2-1.8-0.7C434.8,188.9,434.6,188.3,434.6,187.5z M435.7,187.4c0,0.6,0.1,1.1,0.4,1.4c0.3,0.3,0.6,0.5,1.1,0.5
			s0.8-0.2,1.1-0.5c0.3-0.3,0.4-0.8,0.4-1.4c0-0.6-0.1-1.1-0.4-1.4c-0.2-0.3-0.6-0.5-1-0.5c-0.5,0-0.8,0.2-1.1,0.5
			C435.8,186.3,435.7,186.8,435.7,187.4z M444.3,184.8l-6.9,10.8h-1.2l6.9-10.8H444.3z M441,193c0-0.9,0.2-1.6,0.7-2.1
			s1.1-0.8,1.9-0.8s1.3,0.2,1.8,0.7c0.4,0.5,0.6,1.1,0.6,2c0,0.8-0.2,1.5-0.7,2s-1.1,0.8-1.9,0.8c-0.7,0-1.3-0.2-1.8-0.7
			C441.2,194.4,441,193.7,441,193z M442.1,192.9c0,0.6,0.1,1,0.4,1.4c0.3,0.3,0.6,0.5,1.1,0.5s0.8-0.2,1.1-0.5
			c0.3-0.3,0.4-0.8,0.4-1.4c0-0.6-0.1-1.1-0.4-1.4c-0.3-0.3-0.6-0.5-1-0.5c-0.5,0-0.8,0.2-1.1,0.5
			C442.2,191.8,442.1,192.3,442.1,192.9z"/>
	</g>
	<g id="_4.0_3" class="st0">
		<path d="M420.4,157.2v7.1h1.6v1.1h-1.6v2.5h-1.3v-2.5h-5v-1.1c0.9-1,1.8-2.1,2.7-3.4c0.9-1.3,1.6-2.5,2.2-3.7L420.4,157.2
			L420.4,157.2z M415.7,164.2h3.5v-5.1c-0.5,0.9-1,1.7-1.5,2.5C417.1,162.4,416.4,163.3,415.7,164.2z"/>
		<path d="M423.1,167.1c0-0.2,0.1-0.5,0.3-0.6c0.2-0.2,0.4-0.3,0.6-0.3c0.3,0,0.5,0.1,0.6,0.3c0.2,0.2,0.3,0.4,0.3,0.6
			c0,0.2-0.1,0.4-0.3,0.6c-0.2,0.2-0.4,0.3-0.6,0.3c-0.3,0-0.5-0.1-0.6-0.3C423.2,167.6,423.1,167.4,423.1,167.1z"/>
		<path d="M426.3,162.7c0-1.9,0.3-3.3,0.9-4.3s1.5-1.5,2.7-1.5c2.3,0,3.4,1.8,3.4,5.5c0,1.8-0.3,3.2-1,4.1c-0.6,1-1.5,1.4-2.7,1.4
			c-1.1,0-1.9-0.5-2.5-1.4C426.6,165.8,426.3,164.5,426.3,162.7z M427.7,162.7c0,2.8,0.7,4.3,2.2,4.3c1.4,0,2.1-1.4,2.1-4.3
			c0-3-0.7-4.5-2.1-4.5C428.5,158.1,427.7,159.6,427.7,162.7z"/>
		<path d="M434.6,159.9c0-0.9,0.2-1.6,0.7-2.1s1.1-0.8,1.9-0.8s1.4,0.2,1.8,0.7s0.6,1.1,0.6,2c0,0.8-0.2,1.5-0.7,2s-1.1,0.8-1.9,0.8
			c-0.7,0-1.3-0.2-1.8-0.7C434.8,161.3,434.6,160.7,434.6,159.9z M435.7,159.8c0,0.6,0.1,1.1,0.4,1.4c0.3,0.3,0.6,0.5,1.1,0.5
			s0.8-0.2,1.1-0.5c0.3-0.3,0.4-0.8,0.4-1.4c0-0.6-0.1-1.1-0.4-1.4c-0.2-0.3-0.6-0.5-1-0.5c-0.5,0-0.8,0.2-1.1,0.5
			C435.8,158.7,435.7,159.2,435.7,159.8z M444.3,157.2l-6.9,10.8h-1.2l6.9-10.8H444.3z M441,165.4c0-0.9,0.2-1.6,0.7-2.1
			s1.1-0.8,1.9-0.8s1.3,0.2,1.8,0.7c0.4,0.5,0.6,1.1,0.6,2c0,0.8-0.2,1.5-0.7,2s-1.1,0.8-1.9,0.8c-0.7,0-1.3-0.2-1.8-0.7
			C441.2,166.8,441,166.1,441,165.4z M442.1,165.3c0,0.6,0.1,1,0.4,1.4c0.3,0.3,0.6,0.5,1.1,0.5s0.8-0.2,1.1-0.5
			c0.3-0.3,0.4-0.8,0.4-1.4c0-0.6-0.1-1.1-0.4-1.4c-0.3-0.3-0.6-0.5-1-0.5c-0.5,0-0.8,0.2-1.1,0.5
			C442.2,164.2,442.1,164.7,442.1,165.3z"/>
	</g>
	<g id="_6.0_3" class="st0">
		<path d="M421.1,128.4c-0.6-0.3-1.1-0.4-1.7-0.4c-0.9,0-1.7,0.4-2.2,1.2c-0.6,0.8-0.8,1.9-0.9,3.3l0,0c0.5-1,1.3-1.5,2.4-1.5
			c0.9,0,1.7,0.3,2.2,0.9c0.6,0.6,0.8,1.4,0.8,2.4s-0.3,1.9-1,2.6c-0.6,0.7-1.4,1-2.4,1c-1.1,0-1.9-0.4-2.6-1.3
			c-0.6-0.8-0.9-2.1-0.9-3.6c0-1.9,0.4-3.4,1.2-4.5c0.8-1.1,1.9-1.7,3.2-1.7c0.8,0,1.4,0.1,1.8,0.3v1.3H421.1z M416.3,134.2
			c0,0.7,0.2,1.3,0.6,1.8s0.9,0.8,1.5,0.8s1.1-0.2,1.4-0.6c0.4-0.4,0.6-1,0.6-1.7s-0.2-1.3-0.5-1.7s-0.8-0.6-1.5-0.6
			c-0.6,0-1.1,0.2-1.5,0.6S416.3,133.6,416.3,134.2z"/>
		<path d="M423.1,137c0-0.2,0.1-0.5,0.3-0.6c0.2-0.2,0.4-0.3,0.6-0.3c0.3,0,0.5,0.1,0.6,0.3c0.2,0.2,0.3,0.4,0.3,0.6
			c0,0.2-0.1,0.4-0.3,0.6c-0.2,0.2-0.4,0.3-0.6,0.3c-0.3,0-0.5-0.1-0.6-0.3C423.2,137.4,423.1,137.2,423.1,137z"/>
		<path d="M426.3,132.6c0-1.9,0.3-3.3,0.9-4.3s1.5-1.5,2.7-1.5c2.3,0,3.4,1.8,3.4,5.5c0,1.8-0.3,3.2-1,4.1c-0.6,1-1.5,1.4-2.7,1.4
			c-1.1,0-1.9-0.5-2.5-1.4C426.6,135.6,426.3,134.3,426.3,132.6z M427.7,132.5c0,2.8,0.7,4.3,2.2,4.3c1.4,0,2.1-1.4,2.1-4.3
			c0-3-0.7-4.5-2.1-4.5C428.5,128,427.7,129.5,427.7,132.5z"/>
		<path d="M434.6,129.7c0-0.9,0.2-1.6,0.7-2.1c0.5-0.5,1.1-0.8,1.9-0.8s1.4,0.2,1.8,0.7s0.6,1.1,0.6,2c0,0.8-0.2,1.5-0.7,2
			s-1.1,0.8-1.9,0.8c-0.7,0-1.3-0.2-1.8-0.7C434.8,131.2,434.6,130.5,434.6,129.7z M435.7,129.6c0,0.6,0.1,1.1,0.4,1.4
			c0.3,0.3,0.6,0.5,1.1,0.5s0.8-0.2,1.1-0.5c0.3-0.3,0.4-0.8,0.4-1.4c0-0.6-0.1-1.1-0.4-1.4c-0.2-0.3-0.6-0.5-1-0.5
			c-0.5,0-0.8,0.2-1.1,0.5C435.8,128.6,435.7,129,435.7,129.6z M444.3,127l-6.9,10.8h-1.2l6.9-10.8H444.3z M441,135.2
			c0-0.9,0.2-1.6,0.7-2.1s1.1-0.8,1.9-0.8s1.3,0.2,1.8,0.7c0.4,0.5,0.6,1.1,0.6,2c0,0.8-0.2,1.5-0.7,2s-1.1,0.8-1.9,0.8
			c-0.7,0-1.3-0.2-1.8-0.7C441.2,136.6,441,136,441,135.2z M442.1,135.1c0,0.6,0.1,1,0.4,1.4c0.3,0.3,0.6,0.5,1.1,0.5
			s0.8-0.2,1.1-0.5c0.3-0.3,0.4-0.8,0.4-1.4c0-0.6-0.1-1.1-0.4-1.4c-0.3-0.3-0.6-0.5-1-0.5c-0.5,0-0.8,0.2-1.1,0.5
			C442.2,134.1,442.1,134.5,442.1,135.1z"/>
	</g>
	<g id="_8.0_3" class="st0">
		<path d="M414.7,102c0-0.6,0.2-1.2,0.6-1.7s0.8-0.9,1.4-1.1c-0.5-0.3-0.8-0.6-1.1-1c-0.3-0.4-0.4-0.9-0.4-1.3c0-0.5,0.1-1,0.4-1.4
			s0.6-0.7,1.1-1s1-0.4,1.5-0.4c0.6,0,1.1,0.1,1.5,0.4c0.5,0.2,0.8,0.6,1.1,1s0.4,0.9,0.4,1.4s-0.1,0.9-0.4,1.3s-0.6,0.8-1.1,1
			c0.6,0.2,1.1,0.6,1.4,1.1c0.4,0.5,0.5,1.1,0.5,1.7s-0.1,1.2-0.4,1.6c-0.3,0.5-0.7,0.9-1.2,1.1c-0.5,0.3-1.1,0.4-1.8,0.4
			c-0.7,0-1.3-0.1-1.8-0.4s-0.9-0.6-1.2-1.1S414.7,102.6,414.7,102z M416,101.9c0,0.6,0.2,1.1,0.6,1.5s0.9,0.6,1.6,0.6
			c0.6,0,1.2-0.2,1.6-0.6s0.6-0.9,0.6-1.5s-0.2-1.1-0.6-1.5s-0.9-0.6-1.5-0.6s-1.1,0.2-1.5,0.6C416.2,100.8,416,101.3,416,101.9z
			 M416.4,96.9c0,0.5,0.2,0.9,0.5,1.2c0.3,0.3,0.8,0.5,1.2,0.5c0.5,0,0.9-0.2,1.3-0.5s0.5-0.8,0.5-1.2c0-0.5-0.2-0.9-0.5-1.2
			s-0.8-0.5-1.3-0.5s-0.9,0.2-1.3,0.5C416.6,96,416.4,96.4,416.4,96.9z"/>
		<path d="M423.1,104.2c0-0.2,0.1-0.5,0.3-0.6s0.4-0.3,0.6-0.3c0.3,0,0.5,0.1,0.6,0.3c0.2,0.2,0.3,0.4,0.3,0.6s-0.1,0.4-0.3,0.6
			c-0.2,0.2-0.4,0.3-0.6,0.3c-0.3,0-0.5-0.1-0.6-0.3C423.2,104.7,423.1,104.5,423.1,104.2z"/>
		<path d="M426.3,99.8c0-1.9,0.3-3.3,0.9-4.3s1.5-1.5,2.7-1.5c2.3,0,3.4,1.8,3.4,5.5c0,1.8-0.3,3.2-1,4.1c-0.6,1-1.5,1.4-2.7,1.4
			c-1.1,0-1.9-0.5-2.5-1.4C426.6,102.9,426.3,101.5,426.3,99.8z M427.7,99.8c0,2.8,0.7,4.3,2.2,4.3c1.4,0,2.1-1.4,2.1-4.3
			c0-3-0.7-4.5-2.1-4.5C428.5,95.2,427.7,96.7,427.7,99.8z"/>
		<path d="M434.6,97c0-0.9,0.2-1.6,0.7-2.1s1.1-0.8,1.9-0.8s1.4,0.2,1.8,0.7s0.6,1.1,0.6,2c0,0.8-0.2,1.5-0.7,2s-1.1,0.8-1.9,0.8
			c-0.7,0-1.3-0.2-1.8-0.7C434.8,98.4,434.6,97.8,434.6,97z M435.7,96.9c0,0.6,0.1,1.1,0.4,1.4s0.6,0.5,1.1,0.5s0.8-0.2,1.1-0.5
			c0.3-0.3,0.4-0.8,0.4-1.4s-0.1-1.1-0.4-1.4c-0.2-0.3-0.6-0.5-1-0.5c-0.5,0-0.8,0.2-1.1,0.5C435.8,95.8,435.7,96.3,435.7,96.9z
			 M444.3,94.3l-6.9,10.8h-1.2l6.9-10.8H444.3z M441,102.4c0-0.9,0.2-1.6,0.7-2.1s1.1-0.8,1.9-0.8s1.3,0.2,1.8,0.7
			c0.4,0.5,0.6,1.1,0.6,2c0,0.8-0.2,1.5-0.7,2s-1.1,0.8-1.9,0.8c-0.7,0-1.3-0.2-1.8-0.7C441.2,103.9,441,103.2,441,102.4z
			 M442.1,102.4c0,0.6,0.1,1,0.4,1.4c0.3,0.3,0.6,0.5,1.1,0.5s0.8-0.2,1.1-0.5c0.3-0.3,0.4-0.8,0.4-1.4s-0.1-1.1-0.4-1.4
			s-0.6-0.5-1-0.5c-0.5,0-0.8,0.2-1.1,0.5C442.2,101.3,442.1,101.8,442.1,102.4z"/>
	</g>
	<g id="_10.0_3" class="st0">
		<path d="M410.6,72.2v-9.1c-0.2,0.2-0.6,0.4-1.1,0.7s-1,0.4-1.4,0.6V63c0.6-0.2,1.2-0.4,1.8-0.7c0.6-0.3,1.1-0.7,1.5-1h0.5v10.9
			H410.6z"/>
		<path d="M415.6,67.1c0-1.9,0.3-3.3,0.9-4.3s1.5-1.5,2.7-1.5c2.3,0,3.4,1.8,3.4,5.5c0,1.8-0.3,3.2-1,4.1c-0.6,1-1.5,1.4-2.7,1.4
			c-1.1,0-1.9-0.5-2.5-1.4S415.6,68.8,415.6,67.1z M417,67c0,2.8,0.7,4.3,2.2,4.3c1.4,0,2.1-1.4,2.1-4.3c0-3-0.7-4.5-2.1-4.5
			C417.7,62.5,417,64,417,67z"/>
		<path d="M424.1,71.5c0-0.2,0.1-0.5,0.3-0.6c0.2-0.2,0.4-0.3,0.6-0.3c0.3,0,0.5,0.1,0.6,0.3c0.2,0.2,0.3,0.4,0.3,0.6
			s-0.1,0.4-0.3,0.6c-0.2,0.2-0.4,0.3-0.6,0.3c-0.3,0-0.5-0.1-0.6-0.3C424.2,71.9,424.1,71.7,424.1,71.5z"/>
		<path d="M427.3,67.1c0-1.9,0.3-3.3,0.9-4.3s1.5-1.5,2.7-1.5c2.3,0,3.4,1.8,3.4,5.5c0,1.8-0.3,3.2-1,4.1c-0.6,1-1.5,1.4-2.7,1.4
			c-1.1,0-1.9-0.5-2.5-1.4C427.6,70.1,427.3,68.8,427.3,67.1z M428.6,67c0,2.8,0.7,4.3,2.2,4.3c1.4,0,2.1-1.4,2.1-4.3
			c0-3-0.7-4.5-2.1-4.5C429.4,62.5,428.6,64,428.6,67z"/>
		<path d="M435.5,64.2c0-0.9,0.2-1.6,0.7-2.1s1.1-0.8,1.9-0.8s1.4,0.2,1.8,0.7s0.6,1.1,0.6,2c0,0.8-0.2,1.5-0.7,2s-1.1,0.8-1.9,0.8
			c-0.7,0-1.3-0.2-1.8-0.7S435.5,65,435.5,64.2z M436.6,64.2c0,0.6,0.1,1.1,0.4,1.4s0.6,0.5,1.1,0.5s0.8-0.2,1.1-0.5
			c0.3-0.3,0.4-0.8,0.4-1.4s-0.1-1.1-0.4-1.4c-0.2-0.3-0.6-0.5-1-0.5c-0.5,0-0.8,0.2-1.1,0.5C436.7,63.1,436.6,63.6,436.6,64.2z
			 M445.2,61.5l-6.9,10.8h-1.2l6.9-10.8C444,61.5,445.2,61.5,445.2,61.5z M441.9,69.7c0-0.9,0.2-1.6,0.7-2.1s1.1-0.8,1.9-0.8
			s1.3,0.2,1.8,0.7c0.4,0.5,0.6,1.1,0.6,2c0,0.8-0.2,1.5-0.7,2s-1.1,0.8-1.9,0.8c-0.7,0-1.3-0.2-1.8-0.7
			C442.1,71.1,441.9,70.5,441.9,69.7z M443,69.6c0,0.6,0.1,1,0.4,1.4c0.3,0.3,0.6,0.5,1.1,0.5s0.8-0.2,1.1-0.5s0.4-0.8,0.4-1.4
			s-0.1-1.1-0.4-1.4s-0.6-0.5-1-0.5c-0.5,0-0.8,0.2-1.1,0.5C443.1,68.6,443,69,443,69.6z"/>
	</g>
	<g id="_12.0_3" class="st0">
		<path d="M410.6,41.4v-9.1c-0.2,0.2-0.6,0.4-1.1,0.7s-1,0.4-1.4,0.6v-1.3c0.6-0.2,1.2-0.4,1.8-0.7c0.6-0.3,1.1-0.7,1.5-1h0.5v10.9
			L410.6,41.4L410.6,41.4z"/>
		<path d="M420.8,33.5c0-0.6-0.2-1-0.5-1.4c-0.4-0.3-0.9-0.5-1.5-0.5c-0.4,0-0.9,0.1-1.3,0.3c-0.5,0.2-0.9,0.5-1.3,1v-1.3
			c0.3-0.4,0.7-0.6,1.2-0.8c0.4-0.2,1-0.3,1.6-0.3c1,0,1.7,0.3,2.3,0.8c0.6,0.5,0.9,1.2,0.9,2.1c0,0.8-0.2,1.5-0.5,2
			c-0.4,0.6-1,1.2-1.9,1.8s-1.5,1.1-1.8,1.3c-0.3,0.3-0.5,0.5-0.6,0.8c-0.1,0.2-0.2,0.5-0.2,0.9h5.3v1.2h-6.7v-0.5
			c0-0.6,0.1-1.1,0.3-1.6c0.2-0.4,0.4-0.8,0.8-1.3c0.4-0.4,1-0.9,1.8-1.5s1.4-1.1,1.7-1.5C420.7,34.6,420.8,34.1,420.8,33.5z"/>
		<path d="M424.1,40.7c0-0.2,0.1-0.5,0.3-0.6c0.2-0.2,0.4-0.3,0.6-0.3c0.3,0,0.5,0.1,0.6,0.3c0.2,0.2,0.3,0.4,0.3,0.6
			c0,0.2-0.1,0.4-0.3,0.6c-0.2,0.2-0.4,0.3-0.6,0.3c-0.3,0-0.5-0.1-0.6-0.3C424.2,41.1,424.1,40.9,424.1,40.7z"/>
		<path d="M427.3,36.3c0-1.9,0.3-3.3,0.9-4.3s1.5-1.5,2.7-1.5c2.3,0,3.4,1.8,3.4,5.5c0,1.8-0.3,3.2-1,4.1c-0.6,1-1.5,1.4-2.7,1.4
			c-1.1,0-1.9-0.5-2.5-1.4C427.6,39.3,427.3,38,427.3,36.3z M428.6,36.2c0,2.8,0.7,4.3,2.2,4.3c1.4,0,2.1-1.4,2.1-4.3
			c0-3-0.7-4.5-2.1-4.5C429.4,31.7,428.6,33.2,428.6,36.2z"/>
		<path d="M435.5,33.4c0-0.9,0.2-1.6,0.7-2.1s1.1-0.8,1.9-0.8s1.4,0.2,1.8,0.7s0.6,1.1,0.6,2c0,0.8-0.2,1.5-0.7,2s-1.1,0.8-1.9,0.8
			c-0.7,0-1.3-0.2-1.8-0.7S435.5,34.2,435.5,33.4z M436.6,33.3c0,0.6,0.1,1.1,0.4,1.4c0.3,0.3,0.6,0.5,1.1,0.5s0.8-0.2,1.1-0.5
			c0.3-0.3,0.4-0.8,0.4-1.4c0-0.6-0.1-1.1-0.4-1.4c-0.2-0.3-0.6-0.5-1-0.5c-0.5,0-0.8,0.2-1.1,0.5C436.7,32.3,436.6,32.7,436.6,33.3
			z M445.2,30.7l-6.9,10.8h-1.2l6.9-10.8H445.2z M441.9,38.9c0-0.9,0.2-1.6,0.7-2.1s1.1-0.8,1.9-0.8s1.3,0.2,1.8,0.7
			c0.4,0.5,0.6,1.1,0.6,2c0,0.8-0.2,1.5-0.7,2s-1.1,0.8-1.9,0.8c-0.7,0-1.3-0.2-1.8-0.7C442.1,40.3,441.9,39.7,441.9,38.9z
			 M443,38.8c0,0.6,0.1,1,0.4,1.4c0.3,0.3,0.6,0.5,1.1,0.5s0.8-0.2,1.1-0.5s0.4-0.8,0.4-1.4c0-0.6-0.1-1.1-0.4-1.4s-0.6-0.5-1-0.5
			c-0.5,0-0.8,0.2-1.1,0.5C443.1,37.8,443,38.2,443,38.8z"/>
	</g>
</g>
<g id="线-3">
	<rect id="矩形_863_拷贝_2-3" x="453.6" y="194.7" class="st1" width="127.9" height="1.3"/>
	<rect id="矩形_863_拷贝_3-3" x="453.6" y="162" class="st1" width="127.9" height="1.3"/>
	<rect id="矩形_863_拷贝_4-3" x="453.6" y="129.3" class="st1" width="127.9" height="1.3"/>
	<rect id="矩形_863_拷贝_5-7" x="453.6" y="97.2" class="st1" width="127.9" height="1.3"/>
	<rect id="矩形_863_拷贝_5-8" x="453.6" y="64.5" class="st1" width="127.9" height="1.3"/>
	<rect id="矩形_863_拷贝_5-9" x="453.6" y="31.7" class="st1" width="127.9" height="1.3"/>
	<rect id="矩形_863-3" x="453.6" y="29.8" class="st2" width="1.2" height="200.3"/>
</g>
<rect id="矩形_864-3" x="473.6" y="80.5" class="st3" width="29.5" height="148.3"/>
<rect id="矩形_864_拷贝-3" x="503.1" y="110.7" class="st4" width="29.5" height="118.1"/>
<rect id="矩形_864_拷贝_2-3" x="532.7" y="143.4" class="st5" width="29.5" height="85.4"/>
<rect id="矩形_863_拷贝-3" x="453.6" y="228.8" class="st2" width="127.9" height="1.3"/>
<rect id="矩形_865" x="593.1" y="178" class="st3" width="12.3" height="12.1"/>
<rect id="矩形_865_拷贝" x="593.1" y="199" class="st4" width="12.3" height="12.1"/>
<rect id="矩形_865_拷贝_2" x="593.1" y="219.9" class="st5" width="12.3" height="12.1"/>
<g>
	<path d="M7.6,9.9H6L2.6,5.8C2.5,5.6,2.4,5.5,2.4,5.4h0v4.5H1.2V0.8h1.2v4.3h0C2.4,5,2.5,4.9,2.6,4.7l3.3-3.9h1.4L3.5,5.2L7.6,9.9z"
		/>
	<path d="M8.2,6.7c0-1.1,0.3-1.9,0.9-2.5s1.4-0.9,2.4-0.9c1,0,1.7,0.3,2.3,0.9s0.8,1.4,0.8,2.5c0,1-0.3,1.8-0.9,2.5S12.4,10,11.4,10
		c-1,0-1.7-0.3-2.3-0.9S8.2,7.7,8.2,6.7z M9.4,6.7c0,0.7,0.2,1.3,0.6,1.8s0.9,0.6,1.5,0.6c0.7,0,1.2-0.2,1.5-0.6s0.5-1,0.5-1.8
		c0-0.8-0.2-1.4-0.5-1.8s-0.8-0.6-1.5-0.6c-0.6,0-1.2,0.2-1.5,0.7S9.4,5.9,9.4,6.7z"/>
	<path d="M15.8,8.6c0.5,0.4,1,0.5,1.7,0.5c0.6,0,1.1-0.2,1.4-0.5s0.6-0.9,0.6-1.5h-2.7V6.2h2.7c-0.1-0.6-0.3-1.1-0.6-1.5
		S18,4.2,17.4,4.2c-0.6,0-1.1,0.2-1.6,0.5V3.6c0.5-0.2,1-0.3,1.6-0.3c1,0,1.8,0.3,2.4,0.9s0.8,1.4,0.8,2.5c0,1-0.3,1.8-0.9,2.4
		S18.5,10,17.5,10c-0.7,0-1.2-0.1-1.7-0.4V8.6z"/>
	<path d="M26.3,10v2.9h-1V10H25c-0.9,0-1.7-0.3-2.3-0.9s-0.9-1.4-0.9-2.4c0-1.1,0.3-1.9,0.9-2.5s1.4-0.9,2.3-0.9h0.2V0.6h1v2.6h0.2
		c1,0,1.8,0.3,2.4,0.9s0.9,1.5,0.9,2.5c0,1-0.3,1.8-0.9,2.4S27.5,10,26.5,10H26.3z M25.2,9.1V4.2h-0.1c-0.6,0-1.1,0.2-1.5,0.7
		S23,5.9,23,6.7c0,0.7,0.2,1.3,0.6,1.8s0.9,0.7,1.5,0.7H25.2z M26.3,4.2v4.9h0.1c0.6,0,1.2-0.2,1.5-0.7s0.6-1,0.6-1.7
		c0-0.8-0.2-1.4-0.6-1.8s-0.9-0.7-1.5-0.7H26.3z"/>
	<path d="M35.3,10v2.9h-1V10h-0.2c-0.9,0-1.7-0.3-2.3-0.9s-0.9-1.4-0.9-2.4c0-1.1,0.3-1.9,0.9-2.5s1.4-0.9,2.3-0.9h0.2V0.6h1v2.6
		h0.2c1,0,1.8,0.3,2.4,0.9s0.9,1.5,0.9,2.5c0,1-0.3,1.8-0.9,2.4S36.5,10,35.6,10H35.3z M34.3,9.1V4.2h-0.1c-0.6,0-1.1,0.2-1.5,0.7
		s-0.6,1.1-0.6,1.8c0,0.7,0.2,1.3,0.6,1.8s0.9,0.7,1.5,0.7H34.3z M35.3,4.2v4.9h0.1c0.6,0,1.2-0.2,1.5-0.7s0.6-1,0.6-1.7
		c0-0.8-0.2-1.4-0.6-1.8s-0.9-0.7-1.5-0.7H35.3z"/>
	<path d="M45.9,9.9h-1V4.8c0,0.1-0.2,0.3-0.4,0.8l-2.9,4.3h-1.2V3.4h1v5c0.1-0.2,0.2-0.4,0.3-0.6l3-4.4h1.2V9.9z"/>
	<path d="M54.4,12.2h-1V9.9H48V3.4h1.1v5.5h3.2V3.4h1.1v5.5h1V12.2z"/>
	<path d="M61.3,9.9h-1V4.8c0,0.1-0.2,0.3-0.4,0.8L57,9.9h-1.2V3.4h1v5c0.1-0.2,0.2-0.4,0.3-0.6l3-4.4h1.2V9.9z"/>
	<path d="M68.7,6.9h-4.5c0,0.7,0.2,1.2,0.6,1.6s0.9,0.6,1.5,0.6c0.7,0,1.4-0.2,2-0.7v1C67.7,9.8,66.9,10,66,10
		c-0.9,0-1.7-0.3-2.2-0.9S63,7.7,63,6.7c0-1,0.3-1.8,0.9-2.5s1.3-1,2.1-1c0.8,0,1.5,0.3,2,0.8s0.7,1.3,0.7,2.3V6.9z M67.5,6
		c0-0.6-0.1-1-0.4-1.4S66.5,4.2,66,4.2c-0.5,0-0.9,0.2-1.2,0.5S64.2,5.5,64.1,6H67.5z"/>
	<path d="M75.7,9.9h-1.1V7h-3.2v2.9h-1.1V3.4h1.1V6h3.2V3.4h1.1V9.9z"/>
	<path d="M81.9,4.3H80v5.5h-1.1V4.3h-1.9v-1h5V4.3z"/>
	<path d="M90.4,4.3h-2.5v5.5h-1.1V3.4h3.7V4.3z"/>
	<path d="M91.2,6.7c0-1.1,0.3-1.9,0.9-2.5s1.4-0.9,2.4-0.9c1,0,1.7,0.3,2.3,0.9s0.8,1.4,0.8,2.5c0,1-0.3,1.8-0.9,2.5
		S95.4,10,94.4,10c-1,0-1.7-0.3-2.3-0.9S91.2,7.7,91.2,6.7z M92.4,6.7c0,0.7,0.2,1.3,0.6,1.8s0.9,0.6,1.5,0.6c0.7,0,1.2-0.2,1.5-0.6
		s0.5-1,0.5-1.8c0-0.8-0.2-1.4-0.5-1.8s-0.8-0.6-1.5-0.6c-0.6,0-1.2,0.2-1.5,0.7S92.4,5.9,92.4,6.7z"/>
	<path d="M105.1,12.2h-1V9.9h-4.8v2.4h-1V8.9H99c1.1-1.6,1.6-3.4,1.7-5.5h3.5v5.5h1V12.2z M103,8.9V4.3h-1.4
		c-0.1,1.7-0.6,3.2-1.4,4.6H103z"/>
	<path d="M106.1,6.7c0-1.1,0.3-1.9,0.9-2.5s1.4-0.9,2.4-0.9c1,0,1.7,0.3,2.3,0.9s0.8,1.4,0.8,2.5c0,1-0.3,1.8-0.9,2.5
		s-1.4,0.9-2.4,0.9c-1,0-1.7-0.3-2.3-0.9S106.1,7.7,106.1,6.7z M107.2,6.7c0,0.7,0.2,1.3,0.6,1.8s0.9,0.6,1.5,0.6
		c0.7,0,1.2-0.2,1.5-0.6s0.5-1,0.5-1.8c0-0.8-0.2-1.4-0.5-1.8s-0.8-0.6-1.5-0.6c-0.6,0-1.2,0.2-1.5,0.7S107.2,5.9,107.2,6.7z"/>
	<path d="M114.1,9.9V3.4h2.9c0.7,0,1.2,0.1,1.5,0.4s0.6,0.7,0.6,1.2c0,0.8-0.4,1.3-1.2,1.5c1,0.1,1.5,0.6,1.5,1.5
		c0,0.5-0.2,1-0.6,1.3s-0.9,0.5-1.5,0.5H114.1z M115.3,4.3v1.8h1.5c0.8,0,1.2-0.3,1.2-0.9c0-0.6-0.4-0.8-1.1-0.8H115.3z M115.3,7
		v1.9h1.7c0.8,0,1.2-0.3,1.2-1c0-0.6-0.5-0.9-1.4-0.9H115.3z"/>
	<path d="M120.6,6.7c0-1.1,0.3-1.9,0.9-2.5s1.4-0.9,2.4-0.9c1,0,1.7,0.3,2.3,0.9s0.8,1.4,0.8,2.5c0,1-0.3,1.8-0.9,2.5
		s-1.4,0.9-2.4,0.9c-1,0-1.7-0.3-2.3-0.9S120.6,7.7,120.6,6.7z M121.8,6.7c0,0.7,0.2,1.3,0.6,1.8s0.9,0.6,1.5,0.6
		c0.7,0,1.2-0.2,1.5-0.6s0.5-1,0.5-1.8c0-0.8-0.2-1.4-0.5-1.8s-0.8-0.6-1.5-0.6c-0.6,0-1.2,0.2-1.5,0.7S121.8,5.9,121.8,6.7z"/>
	<path d="M134.2,9.9h-1V4.8c0,0.1-0.2,0.3-0.4,0.8l-2.9,4.3h-1.2V3.4h1v5c0.1-0.2,0.2-0.4,0.3-0.6l3-4.4h1.2V9.9z M133.3,0.6
		c-0.1,0.5-0.2,0.9-0.6,1.2s-0.7,0.4-1.2,0.4c-0.5,0-0.9-0.2-1.2-0.5s-0.5-0.7-0.5-1.2h0.7c0.1,0.6,0.4,1,1.1,1
		c0.3,0,0.5-0.1,0.7-0.3s0.3-0.4,0.4-0.7H133.3z"/>
	<path d="M139.4,6.7c0-1.1,0.3-1.9,0.9-2.5s1.4-0.9,2.4-0.9c1,0,1.7,0.3,2.3,0.9s0.8,1.4,0.8,2.5c0,1-0.3,1.8-0.9,2.5
		s-1.4,0.9-2.4,0.9c-1,0-1.7-0.3-2.3-0.9S139.4,7.7,139.4,6.7z M140.6,6.7c0,0.7,0.2,1.3,0.6,1.8s0.9,0.6,1.5,0.6
		c0.7,0,1.2-0.2,1.5-0.6s0.5-1,0.5-1.8c0-0.8-0.2-1.4-0.5-1.8s-0.8-0.6-1.5-0.6c-0.6,0-1.2,0.2-1.5,0.7S140.6,5.9,140.6,6.7z"/>
	<path d="M151.6,4.3h-1.9v5.5h-1.1V4.3h-1.9v-1h5V4.3z"/>
	<path d="M158.3,9.9h-1.1V4.3H154v5.5h-1.1V3.4h5.5V9.9z"/>
	<path d="M165.3,9.9h-1.1V4.3h-1.5c-0.2,2-0.5,3.5-0.9,4.3s-1,1.3-1.7,1.3c-0.2,0-0.4,0-0.6-0.1V8.9c0.1,0.1,0.3,0.1,0.5,0.1
		c0.9,0,1.5-1.9,1.8-5.6h3.6V9.9z"/>
	<path d="M167.5,3.8c0.6-0.4,1.4-0.6,2.2-0.6c1.6,0,2.3,0.8,2.3,2.5v4.2h-1.1v-1h0c-0.4,0.8-1.1,1.2-2,1.2c-0.6,0-1.1-0.2-1.5-0.5
		s-0.6-0.8-0.6-1.4c0-1.2,0.7-1.9,2.2-2.1l1.9-0.3c0-1.1-0.4-1.6-1.3-1.6c-0.8,0-1.5,0.3-2.1,0.8V3.8z M169.4,6.8
		c-0.5,0.1-0.9,0.2-1.1,0.4S168,7.7,168,8c0,0.3,0.1,0.6,0.3,0.8s0.5,0.3,0.9,0.3c0.5,0,0.9-0.2,1.2-0.5s0.5-0.8,0.5-1.3V6.6
		L169.4,6.8z"/>
	<path d="M178.1,4.3h-1.9v5.5h-1.1V4.3h-1.9v-1h5V4.3z"/>
	<path d="M179.3,9.9V3.4h1.1v2.5h1.7c0.7,0,1.2,0.2,1.6,0.5s0.6,0.8,0.6,1.5c0,0.6-0.2,1.1-0.6,1.5s-0.9,0.5-1.5,0.5H179.3z
		 M180.5,6.8v2.2h1.5c0.8,0,1.3-0.4,1.3-1.1c0-0.7-0.4-1-1.3-1H180.5z M186.6,9.9h-1.1V3.4h1.1V9.9z"/>
	<path d="M193.4,9v3.9h-1.1V3.4h1.1v1.1h0c0.5-0.8,1.3-1.3,2.2-1.3c0.8,0,1.5,0.3,1.9,0.9s0.7,1.4,0.7,2.3c0,1.1-0.3,1.9-0.8,2.6
		s-1.3,1-2.2,1C194.5,10,193.9,9.7,193.4,9L193.4,9z M193.4,7.2c0,0.5,0.2,1,0.5,1.3s0.8,0.5,1.3,0.5c0.6,0,1.1-0.2,1.4-0.7
		s0.5-1.1,0.5-1.9c0-0.7-0.2-1.2-0.5-1.6s-0.8-0.6-1.3-0.6c-0.6,0-1,0.2-1.4,0.6s-0.5,0.9-0.5,1.5V7.2z"/>
	<path d="M200.1,3.8c0.6-0.4,1.4-0.6,2.2-0.6c1.6,0,2.3,0.8,2.3,2.5v4.2h-1.1v-1h0c-0.4,0.8-1.1,1.2-2,1.2c-0.6,0-1.1-0.2-1.5-0.5
		s-0.6-0.8-0.6-1.4c0-1.2,0.7-1.9,2.2-2.1l1.9-0.3c0-1.1-0.4-1.6-1.3-1.6c-0.8,0-1.5,0.3-2.1,0.8V3.8z M202,6.8
		c-0.5,0.1-0.9,0.2-1.1,0.4s-0.3,0.5-0.3,0.8c0,0.3,0.1,0.6,0.3,0.8s0.5,0.3,0.9,0.3c0.5,0,0.9-0.2,1.2-0.5s0.5-0.8,0.5-1.3V6.6
		L202,6.8z"/>
	<path d="M206,8.6c0.6,0.3,1.2,0.5,2,0.5c1.1,0,1.7-0.3,1.7-1c0-0.7-0.6-1-1.8-1h-0.7V6.1h0.6c1.1,0,1.6-0.3,1.6-1
		c0-0.3-0.1-0.5-0.4-0.7s-0.6-0.2-1-0.2c-0.6,0-1.2,0.2-1.9,0.5v-1c0.7-0.3,1.4-0.4,2-0.4c1.6,0,2.4,0.6,2.4,1.7
		c0,0.4-0.1,0.7-0.4,1s-0.6,0.4-1,0.5v0c0.5,0,0.9,0.2,1.2,0.5s0.4,0.6,0.4,1.1c0,0.6-0.2,1.1-0.7,1.4s-1.2,0.5-2,0.5
		c-0.9,0-1.6-0.1-2.1-0.3V8.6z"/>
	<path d="M217.8,9.9h-1.1V7h-3.2v2.9h-1.1V3.4h1.1V6h3.2V3.4h1.1V9.9z"/>
	<path d="M219.9,9.9V3.4h1.1v2.5h1.7c0.7,0,1.2,0.2,1.6,0.5s0.6,0.8,0.6,1.5c0,0.6-0.2,1.1-0.6,1.5s-0.9,0.5-1.5,0.5H219.9z
		 M221,6.8v2.2h1.5c0.8,0,1.3-0.4,1.3-1.1c0-0.7-0.4-1-1.3-1H221z M227.2,9.9h-1.1V3.4h1.1V9.9z"/>
	<path d="M234.2,3.4L232,6.7l2.1,3.2h-1.3l-1.2-2.1c-0.1-0.1-0.2-0.3-0.3-0.5h0c0,0-0.1,0.2-0.3,0.5l-1.3,2.1h-1.3l2.2-3.2l-2.1-3.3
		h1.3l1.2,2.2c0.1,0.1,0.2,0.3,0.3,0.5h0l1.6-2.7H234.2z"/>
	<path d="M244.4,9.9h-1.6l-2.8-3.1h0v3.1h-1.1V3.4h1.1v3h0l2.6-3h1.5l-2.9,3.1L244.4,9.9z"/>
	<path d="M245.6,3.8c0.6-0.4,1.4-0.6,2.2-0.6c1.6,0,2.3,0.8,2.3,2.5v4.2H249v-1h0c-0.4,0.8-1.1,1.2-2,1.2c-0.6,0-1.1-0.2-1.5-0.5
		s-0.6-0.8-0.6-1.4c0-1.2,0.7-1.9,2.2-2.1l1.9-0.3c0-1.1-0.4-1.6-1.3-1.6c-0.8,0-1.5,0.3-2.1,0.8V3.8z M247.5,6.8
		c-0.5,0.1-0.9,0.2-1.1,0.4s-0.3,0.5-0.3,0.8c0,0.3,0.1,0.6,0.3,0.8s0.5,0.3,0.9,0.3c0.5,0,0.9-0.2,1.2-0.5s0.5-0.8,0.5-1.3V6.6
		L247.5,6.8z"/>
	<path d="M257.5,9.9h-1.1V4.3h-3.2v5.5H252V3.4h5.5V9.9z"/>
	<path d="M265.1,9.9h-1V4.8c0,0.1-0.2,0.3-0.4,0.8l-2.9,4.3h-1.2V3.4h1v5c0.1-0.2,0.2-0.4,0.3-0.6l3-4.4h1.2V9.9z"/>
	<path d="M271.3,4.3h-1.9v5.5h-1.1V4.3h-1.9v-1h5V4.3z"/>
	<path d="M272.7,3.8c0.6-0.4,1.4-0.6,2.2-0.6c1.6,0,2.3,0.8,2.3,2.5v4.2h-1.1v-1h0c-0.4,0.8-1.1,1.2-2,1.2c-0.6,0-1.1-0.2-1.5-0.5
		s-0.6-0.8-0.6-1.4c0-1.2,0.7-1.9,2.2-2.1l1.9-0.3c0-1.1-0.4-1.6-1.3-1.6c-0.8,0-1.5,0.3-2.1,0.8V3.8z M274.6,6.8
		c-0.5,0.1-0.9,0.2-1.1,0.4s-0.3,0.5-0.3,0.8c0,0.3,0.1,0.6,0.3,0.8s0.5,0.3,0.9,0.3c0.5,0,0.9-0.2,1.2-0.5s0.5-0.8,0.5-1.3V6.6
		L274.6,6.8z"/>
	<path d="M284.1,9.9h-1.1V4.3h-1.5c-0.2,2-0.5,3.5-0.9,4.3s-1,1.3-1.7,1.3c-0.2,0-0.4,0-0.6-0.1V8.9c0.1,0.1,0.3,0.1,0.5,0.1
		c0.9,0,1.5-1.9,1.8-5.6h3.6V9.9z"/>
	<path d="M285.7,6.7c0-1.1,0.3-1.9,0.9-2.5s1.4-0.9,2.4-0.9c1,0,1.7,0.3,2.3,0.9s0.8,1.4,0.8,2.5c0,1-0.3,1.8-0.9,2.5
		s-1.4,0.9-2.4,0.9c-1,0-1.7-0.3-2.3-0.9S285.7,7.7,285.7,6.7z M286.9,6.7c0,0.7,0.2,1.3,0.6,1.8s0.9,0.6,1.5,0.6
		c0.7,0,1.2-0.2,1.5-0.6s0.5-1,0.5-1.8c0-0.8-0.2-1.4-0.5-1.8s-0.8-0.6-1.5-0.6c-0.6,0-1.2,0.2-1.5,0.7S286.9,5.9,286.9,6.7z"/>
	<path d="M293.8,9.9V3.4h2.9c0.7,0,1.2,0.1,1.5,0.4s0.6,0.7,0.6,1.2c0,0.8-0.4,1.3-1.2,1.5c1,0.1,1.5,0.6,1.5,1.5
		c0,0.5-0.2,1-0.6,1.3s-0.9,0.5-1.5,0.5H293.8z M294.9,4.3v1.8h1.5c0.8,0,1.2-0.3,1.2-0.9c0-0.6-0.4-0.8-1.1-0.8H294.9z M294.9,7
		v1.9h1.7c0.8,0,1.2-0.3,1.2-1c0-0.6-0.5-0.9-1.4-0.9H294.9z"/>
</g>
<g>
	<path d="M95.5,247c0,1.1-0.4,2-1.1,2.7c-0.8,0.7-1.8,1-3,1c-1.1,0-1.9-0.2-2.4-0.5v-1.5c0.8,0.5,1.6,0.8,2.4,0.8
		c0.8,0,1.5-0.2,2-0.7c0.5-0.4,0.7-1,0.7-1.8c0-0.7-0.3-1.3-0.8-1.7c-0.5-0.4-1.2-0.6-2.2-0.6c-0.7,0-1.4,0-2,0.1l0.4-5.9H95v1.3
		h-4.2l-0.2,3.3l1.1,0c1.2,0,2.2,0.3,2.9,0.9S95.5,245.9,95.5,247z"/>
	<path d="M108.8,250.6h-1.5v-7.1h-1.9c-0.2,2.6-0.6,4.5-1.1,5.6s-1.3,1.6-2.2,1.6c-0.3,0-0.5,0-0.7-0.1v-1.2
		c0.2,0.1,0.4,0.1,0.6,0.1c1.2,0,1.9-2.4,2.3-7.2h4.5V250.6z"/>
	<path d="M118.1,246.8h-5.8c0,0.9,0.3,1.6,0.7,2.1c0.5,0.5,1.1,0.7,1.9,0.7c0.9,0,1.8-0.3,2.6-0.9v1.3c-0.7,0.5-1.7,0.8-2.9,0.8
		c-1.2,0-2.1-0.4-2.8-1.1s-1-1.8-1-3.2c0-1.3,0.4-2.3,1.1-3.1c0.7-0.8,1.7-1.2,2.7-1.2c1.1,0,1.9,0.3,2.5,1s0.9,1.7,0.9,2.9V246.8z
		 M116.7,245.7c0-0.8-0.2-1.3-0.5-1.7c-0.3-0.4-0.8-0.6-1.5-0.6c-0.6,0-1.1,0.2-1.5,0.7s-0.7,1-0.8,1.7H116.7z"/>
	<path d="M125.4,243.5H123v7.1h-1.5v-7.1H119v-1.2h6.4V243.5z"/>
</g>
<g>
	<path d="M293.6,250.6v-9.9c-0.2,0.2-0.6,0.5-1.2,0.8s-1.1,0.5-1.5,0.6v-1.4c0.6-0.2,1.3-0.4,2-0.8c0.7-0.4,1.2-0.7,1.6-1.1h0.6
		v11.9H293.6z"/>
	<path d="M299,245c0-2,0.3-3.6,1-4.7c0.7-1.1,1.7-1.6,3-1.6c2.5,0,3.7,2,3.7,6c0,2-0.3,3.5-1,4.5c-0.7,1-1.7,1.6-2.9,1.6
		c-1.2,0-2.1-0.5-2.7-1.5C299.4,248.3,299,246.9,299,245z M300.5,245c0,3.1,0.8,4.6,2.3,4.6c1.5,0,2.3-1.6,2.3-4.7
		c0-3.2-0.8-4.9-2.3-4.9C301.3,240,300.5,241.7,300.5,245z"/>
	<path d="M319.5,250.6H318v-7.1h-1.9c-0.2,2.6-0.6,4.5-1.1,5.6s-1.3,1.6-2.2,1.6c-0.3,0-0.5,0-0.7-0.1v-1.2c0.2,0.1,0.4,0.1,0.6,0.1
		c1.2,0,1.9-2.4,2.3-7.2h4.5V250.6z"/>
	<path d="M328.8,246.8H323c0,0.9,0.3,1.6,0.7,2.1c0.5,0.5,1.1,0.7,1.9,0.7c0.9,0,1.8-0.3,2.6-0.9v1.3c-0.7,0.5-1.7,0.8-2.9,0.8
		c-1.2,0-2.1-0.4-2.8-1.1s-1-1.8-1-3.2c0-1.3,0.4-2.3,1.1-3.1c0.7-0.8,1.7-1.2,2.7-1.2c1.1,0,1.9,0.3,2.5,1s0.9,1.7,0.9,2.9V246.8z
		 M327.4,245.7c0-0.8-0.2-1.3-0.5-1.7c-0.3-0.4-0.8-0.6-1.5-0.6c-0.6,0-1.1,0.2-1.5,0.7s-0.7,1-0.8,1.7H327.4z"/>
	<path d="M336.1,243.5h-2.5v7.1h-1.5v-7.1h-2.5v-1.2h6.4V243.5z"/>
</g>
<g>
	<path d="M499.7,242c0-0.6-0.2-1.1-0.6-1.5c-0.4-0.4-0.9-0.5-1.6-0.5c-0.5,0-1,0.1-1.5,0.4c-0.5,0.2-0.9,0.6-1.4,1V240
		c0.4-0.4,0.8-0.7,1.3-0.9s1-0.3,1.7-0.3c1,0,1.9,0.3,2.5,0.8c0.6,0.6,1,1.3,1,2.3c0,0.9-0.2,1.6-0.6,2.2s-1.1,1.3-2,1.9
		c-1,0.7-1.6,1.2-1.9,1.4c-0.3,0.3-0.6,0.6-0.7,0.8c-0.1,0.3-0.2,0.6-0.2,1h5.8v1.3h-7.3V250c0-0.7,0.1-1.2,0.3-1.7
		c0.2-0.5,0.5-0.9,0.9-1.4s1.1-1,2-1.6c0.9-0.6,1.5-1.2,1.9-1.7C499.6,243.2,499.7,242.7,499.7,242z"/>
	<path d="M503,245c0-2,0.3-3.6,1-4.7c0.7-1.1,1.7-1.6,3-1.6c2.5,0,3.7,2,3.7,6c0,2-0.3,3.5-1,4.5c-0.7,1-1.7,1.6-2.9,1.6
		c-1.2,0-2.1-0.5-2.7-1.5C503.4,248.3,503,246.9,503,245z M504.5,245c0,3.1,0.8,4.6,2.3,4.6c1.5,0,2.3-1.6,2.3-4.7
		c0-3.2-0.8-4.9-2.3-4.9C505.3,240,504.5,241.7,504.5,245z"/>
	<path d="M523.5,250.6H522v-7.1h-1.9c-0.2,2.6-0.6,4.5-1.1,5.6s-1.3,1.6-2.2,1.6c-0.3,0-0.5,0-0.7-0.1v-1.2c0.2,0.1,0.4,0.1,0.6,0.1
		c1.2,0,1.9-2.4,2.3-7.2h4.5V250.6z"/>
	<path d="M532.8,246.8H527c0,0.9,0.3,1.6,0.7,2.1s1.1,0.7,1.9,0.7c0.9,0,1.8-0.3,2.6-0.9v1.3c-0.7,0.5-1.7,0.8-2.9,0.8
		c-1.2,0-2.1-0.4-2.8-1.1c-0.7-0.8-1-1.8-1-3.2c0-1.3,0.4-2.3,1.1-3.1c0.7-0.8,1.7-1.2,2.7-1.2c1.1,0,1.9,0.3,2.5,1
		c0.6,0.7,0.9,1.7,0.9,2.9V246.8z M531.4,245.7c0-0.8-0.2-1.3-0.5-1.7c-0.3-0.4-0.8-0.6-1.5-0.6c-0.6,0-1.1,0.2-1.5,0.7
		c-0.4,0.4-0.7,1-0.8,1.7H531.4z"/>
	<path d="M540.1,243.5h-2.5v7.1h-1.5v-7.1h-2.5v-1.2h6.4V243.5z"/>
</g>
<g>
	<path d="M614.5,186.3h-0.7v-2.6h-2.9v2.6h-0.7v-5.7h0.7v2.5h2.9v-2.5h0.7V186.3z"/>
	<path d="M619.2,184.5h-2.8c0,0.4,0.1,0.8,0.4,1c0.2,0.2,0.5,0.4,0.9,0.4c0.5,0,0.9-0.1,1.3-0.4v0.6c-0.4,0.3-0.8,0.4-1.4,0.4
		c-0.6,0-1-0.2-1.4-0.6c-0.3-0.4-0.5-0.9-0.5-1.6c0-0.6,0.2-1.1,0.5-1.5c0.4-0.4,0.8-0.6,1.3-0.6c0.5,0,0.9,0.2,1.2,0.5
		c0.3,0.3,0.4,0.8,0.4,1.4V184.5z M618.5,183.9c0-0.4-0.1-0.7-0.3-0.9c-0.2-0.2-0.4-0.3-0.7-0.3c-0.3,0-0.5,0.1-0.7,0.3
		c-0.2,0.2-0.3,0.5-0.4,0.8H618.5z"/>
	<path d="M623.8,187.8h-0.6v-1.5h-3v1.5h-0.6v-2.1h0.4c0.7-1,1-2.1,1-3.5h2.2v3.5h0.6V187.8z M622.5,185.7v-2.9h-0.9
		c-0.1,1.1-0.4,2-0.9,2.9H622.5z"/>
	<path d="M624.7,186.3v-4.1h1.8c0.4,0,0.7,0.1,1,0.3c0.2,0.2,0.3,0.4,0.3,0.7c0,0.5-0.3,0.8-0.8,1c0.6,0.1,0.9,0.4,0.9,0.9
		c0,0.3-0.1,0.6-0.4,0.8c-0.3,0.2-0.6,0.3-1,0.3H624.7z M625.4,182.8v1.1h0.9c0.5,0,0.8-0.2,0.8-0.6c0-0.3-0.2-0.5-0.7-0.5H625.4z
		 M625.4,184.5v1.2h1.1c0.5,0,0.8-0.2,0.8-0.6c0-0.4-0.3-0.6-0.9-0.6H625.4z"/>
	<path d="M632.5,186.3h-0.7v-3.2c0,0-0.1,0.2-0.3,0.5l-1.8,2.7H629v-4.1h0.7v3.1c0.1-0.1,0.1-0.3,0.2-0.4l1.9-2.7h0.7V186.3z"/>
	<path d="M639.3,186.3h-0.9l-1.8-2h0v2h-0.7v-2h0l-1.8,2h-0.9l2-2.1l-1.9-2h0.9l1.7,1.9h0v-1.9h0.7v1.9h0l1.7-1.9h0.9l-1.9,2
		L639.3,186.3z"/>
	<path d="M643.5,186.3h-0.7v-3.2c0,0-0.1,0.2-0.3,0.5l-1.8,2.7H640v-4.1h0.7v3.1c0.1-0.1,0.1-0.3,0.2-0.4l1.9-2.7h0.7V186.3z"/>
	<path d="M649.2,186.3h-0.7V183c-0.1,0.2-0.1,0.4-0.3,0.8l-1,2.6h-0.6l-1-2.6c-0.1-0.2-0.1-0.4-0.3-0.8v3.3h-0.6v-4.1h0.9l1,2.6
		c0,0.1,0.1,0.3,0.3,0.8c0,0,0.1-0.3,0.3-0.8l1-2.6h1V186.3z"/>
	<path d="M650.3,184.3c0-0.7,0.2-1.2,0.6-1.6c0.4-0.4,0.9-0.6,1.5-0.6c0.6,0,1.1,0.2,1.4,0.6c0.3,0.4,0.5,0.9,0.5,1.6
		c0,0.6-0.2,1.2-0.6,1.6c-0.4,0.4-0.9,0.6-1.5,0.6c-0.6,0-1.1-0.2-1.5-0.6S650.3,185,650.3,184.3z M651,184.3c0,0.5,0.1,0.8,0.4,1.1
		c0.2,0.3,0.6,0.4,1,0.4c0.4,0,0.7-0.1,0.9-0.4c0.2-0.3,0.3-0.6,0.3-1.1c0-0.5-0.1-0.9-0.3-1.1c-0.2-0.3-0.5-0.4-0.9-0.4
		c-0.4,0-0.7,0.1-1,0.4C651.1,183.4,651,183.8,651,184.3z"/>
	<path d="M658.1,186.1c-0.3,0.2-0.7,0.3-1.1,0.3c-0.6,0-1.1-0.2-1.4-0.6s-0.5-0.9-0.5-1.5c0-0.7,0.2-1.2,0.6-1.6
		c0.4-0.4,0.9-0.6,1.6-0.6c0.4,0,0.7,0.1,1,0.2v0.7c-0.3-0.2-0.6-0.3-1-0.3c-0.4,0-0.7,0.1-1,0.4c-0.3,0.3-0.4,0.7-0.4,1.1
		c0,0.5,0.1,0.8,0.4,1.1c0.2,0.3,0.6,0.4,1,0.4c0.4,0,0.7-0.1,1-0.3V186.1z"/>
	<path d="M661.7,182.8h-1.2v3.5h-0.7v-3.5h-1.2v-0.6h3.1V182.8z"/>
	<path d="M662.5,186.3v-4.1h0.7v1.5h1.1c0.4,0,0.8,0.1,1,0.3c0.2,0.2,0.4,0.5,0.4,0.9c0,0.4-0.1,0.7-0.4,0.9s-0.6,0.3-0.9,0.3H662.5
		z M663.2,184.4v1.4h0.9c0.5,0,0.8-0.2,0.8-0.7c0-0.4-0.3-0.7-0.8-0.7H663.2z"/>
</g>
<g>
	<path d="M614.6,207.3h-0.8l-0.6-1.6h-2.4l-0.5,1.6h-0.8l2.2-5.7h0.8L614.6,207.3z M613,205.1l-0.9-2.4c0-0.1-0.1-0.2-0.1-0.4h0
		c0,0.2-0.1,0.3-0.1,0.4l-0.9,2.4H613z"/>
	<path d="M618.8,207.3h-1l-1.7-2h0v2h-0.7v-4.1h0.7v1.9h0l1.7-1.9h0.9l-1.8,2L618.8,207.3z"/>
	<path d="M623.5,208.8h-0.6v-1.5h-3.4v-4.1h0.7v3.5h2v-3.5h0.7v3.5h0.6V208.8z"/>
	<path d="M627.9,207.3h-0.7v-3.2c0,0-0.1,0.2-0.3,0.5l-1.8,2.7h-0.7v-4.1h0.7v3.1c0.1-0.1,0.1-0.3,0.2-0.4l1.9-2.7h0.7V207.3z"/>
	<path d="M632.6,207.3H632v-3.2c0,0-0.1,0.2-0.3,0.5l-1.8,2.7h-0.7v-4.1h0.7v3.1c0.1-0.1,0.1-0.3,0.2-0.4l1.9-2.7h0.7V207.3z"/>
</g>
<g>
	<path d="M613.2,221.3h-2.3v5h-0.7v-5.7h3V221.3z"/>
	<path d="M613.7,224.4c0-0.7,0.2-1.2,0.6-1.6c0.4-0.4,0.9-0.6,1.5-0.6c0.6,0,1.1,0.2,1.4,0.6c0.3,0.4,0.5,0.9,0.5,1.6
		c0,0.6-0.2,1.2-0.6,1.6c-0.4,0.4-0.9,0.6-1.5,0.6c-0.6,0-1.1-0.2-1.5-0.6S613.7,225,613.7,224.4z M614.4,224.3
		c0,0.5,0.1,0.8,0.4,1.1c0.2,0.3,0.6,0.4,1,0.4c0.4,0,0.7-0.1,0.9-0.4c0.2-0.3,0.3-0.6,0.3-1.1c0-0.5-0.1-0.9-0.3-1.1
		c-0.2-0.3-0.5-0.4-0.9-0.4c-0.4,0-0.7,0.1-1,0.4C614.5,223.5,614.4,223.9,614.4,224.3z"/>
	<path d="M621.5,226.2c-0.3,0.2-0.7,0.3-1.1,0.3c-0.6,0-1.1-0.2-1.4-0.6s-0.5-0.9-0.5-1.5c0-0.7,0.2-1.2,0.6-1.6
		c0.4-0.4,0.9-0.6,1.6-0.6c0.4,0,0.7,0.1,1,0.2v0.7c-0.3-0.2-0.6-0.3-1-0.3c-0.4,0-0.7,0.1-1,0.4c-0.3,0.3-0.4,0.7-0.4,1.1
		c0,0.5,0.1,0.8,0.4,1.1c0.2,0.3,0.6,0.4,1,0.4c0.4,0,0.7-0.1,1-0.3V226.2z"/>
	<path d="M625.8,222.3L624,227c-0.3,0.9-0.8,1.3-1.5,1.3c-0.2,0-0.3,0-0.5-0.1v-0.6c0.1,0.1,0.3,0.1,0.4,0.1c0.3,0,0.6-0.2,0.7-0.6
		l0.3-0.7l-1.6-4.1h0.8l1.1,3.1l0.1,0.3h0c0-0.1,0-0.2,0.1-0.3l1.1-3.1H625.8z"/>
	<path d="M630.1,227.8h-0.6v-1.5h-3v1.5h-0.6v-2.1h0.4c0.7-1,1-2.1,1-3.5h2.2v3.5h0.6V227.8z M628.8,225.8v-2.9h-0.9
		c-0.1,1.1-0.4,2-0.9,2.9H628.8z"/>
	<path d="M631.1,222.6c0.4-0.3,0.9-0.4,1.4-0.4c1,0,1.5,0.5,1.5,1.5v2.6h-0.7v-0.6h0c-0.3,0.5-0.7,0.7-1.2,0.7
		c-0.4,0-0.7-0.1-0.9-0.3c-0.2-0.2-0.3-0.5-0.3-0.9c0-0.8,0.5-1.2,1.4-1.3l1.2-0.2c0-0.7-0.3-1-0.8-1c-0.5,0-0.9,0.2-1.3,0.5V222.6z
		 M632.3,224.4c-0.3,0-0.6,0.1-0.7,0.3c-0.1,0.1-0.2,0.3-0.2,0.5c0,0.2,0.1,0.4,0.2,0.5c0.1,0.1,0.3,0.2,0.5,0.2
		c0.3,0,0.6-0.1,0.8-0.3c0.2-0.2,0.3-0.5,0.3-0.8v-0.4L632.3,224.4z"/>
	<path d="M635.9,225.8v2.4h-0.7v-5.9h0.7v0.7h0c0.3-0.5,0.8-0.8,1.4-0.8c0.5,0,0.9,0.2,1.2,0.5s0.4,0.9,0.4,1.5
		c0,0.7-0.2,1.2-0.5,1.6s-0.8,0.6-1.4,0.6C636.6,226.5,636.2,226.2,635.9,225.8L635.9,225.8z M635.9,224.7c0,0.3,0.1,0.6,0.3,0.8
		c0.2,0.2,0.5,0.3,0.8,0.3c0.4,0,0.7-0.1,0.9-0.4c0.2-0.3,0.3-0.7,0.3-1.2c0-0.4-0.1-0.8-0.3-1s-0.5-0.4-0.8-0.4
		c-0.4,0-0.6,0.1-0.9,0.4c-0.2,0.3-0.3,0.6-0.3,1V224.7z"/>
	<path d="M642.8,226.2c-0.3,0.2-0.7,0.3-1.1,0.3c-0.6,0-1.1-0.2-1.4-0.6s-0.5-0.9-0.5-1.5c0-0.7,0.2-1.2,0.6-1.6
		c0.4-0.4,0.9-0.6,1.6-0.6c0.4,0,0.7,0.1,1,0.2v0.7c-0.3-0.2-0.6-0.3-1-0.3c-0.4,0-0.7,0.1-1,0.4c-0.3,0.3-0.4,0.7-0.4,1.1
		c0,0.5,0.1,0.8,0.4,1.1c0.2,0.3,0.6,0.4,1,0.4c0.4,0,0.7-0.1,1-0.3V226.2z"/>
	<path d="M646.4,222.9h-1.2v3.5h-0.7v-3.5h-1.2v-0.6h3.1V222.9z"/>
	<path d="M647.1,226.4v-4.1h1.8c0.4,0,0.7,0.1,1,0.3c0.2,0.2,0.3,0.4,0.3,0.7c0,0.5-0.3,0.8-0.8,1c0.6,0.1,0.9,0.4,0.9,0.9
		c0,0.3-0.1,0.6-0.4,0.8c-0.3,0.2-0.6,0.3-1,0.3H647.1z M647.9,222.9v1.1h0.9c0.5,0,0.8-0.2,0.8-0.6c0-0.3-0.2-0.5-0.7-0.5H647.9z
		 M647.9,224.6v1.2h1.1c0.5,0,0.8-0.2,0.8-0.6c0-0.4-0.3-0.6-0.9-0.6H647.9z"/>
	<path d="M654.8,224.5H652c0,0.4,0.1,0.8,0.4,1c0.2,0.2,0.5,0.4,0.9,0.4c0.5,0,0.9-0.1,1.3-0.4v0.6c-0.4,0.3-0.8,0.4-1.4,0.4
		c-0.6,0-1-0.2-1.4-0.6c-0.3-0.4-0.5-0.9-0.5-1.6c0-0.6,0.2-1.1,0.5-1.5c0.4-0.4,0.8-0.6,1.3-0.6c0.5,0,0.9,0.2,1.2,0.5
		c0.3,0.3,0.4,0.8,0.4,1.4V224.5z M654.1,223.9c0-0.4-0.1-0.7-0.3-0.9c-0.2-0.2-0.4-0.3-0.7-0.3c-0.3,0-0.5,0.1-0.7,0.3
		c-0.2,0.2-0.3,0.5-0.4,0.8H654.1z"/>
	<path d="M659.2,226.4h-0.7v-1.8h-2v1.8h-0.7v-4.1h0.7v1.7h2v-1.7h0.7V226.4z"/>
	<path d="M664,226.4h-0.7v-1.8h-2v1.8h-0.7v-4.1h0.7v1.7h2v-1.7h0.7V226.4z"/>
	<path d="M665.2,226.4v-4.1h0.7v1.5h1.1c0.4,0,0.8,0.1,1,0.3c0.2,0.2,0.4,0.5,0.4,0.9c0,0.4-0.1,0.7-0.4,0.9s-0.6,0.3-0.9,0.3H665.2
		z M666,224.4v1.4h0.9c0.5,0,0.8-0.2,0.8-0.7c0-0.4-0.3-0.7-0.8-0.7H666z M669.8,226.4h-0.7v-4.1h0.7V226.4z"/>
	<path d="M674.6,226.4h-0.7v-3.2c0,0-0.1,0.2-0.3,0.5l-1.8,2.7h-0.7v-4.1h0.7v3.1c0.1-0.1,0.1-0.3,0.2-0.4l1.9-2.7h0.7V226.4z
		 M674,220.5c0,0.3-0.2,0.6-0.4,0.7c-0.2,0.2-0.5,0.3-0.8,0.3c-0.3,0-0.6-0.1-0.8-0.3c-0.2-0.2-0.3-0.4-0.3-0.7h0.4
		c0,0.4,0.3,0.6,0.7,0.6c0.2,0,0.3-0.1,0.5-0.2c0.1-0.1,0.2-0.3,0.2-0.4H674z"/>
	<path d="M613.7,236.9h-0.6v-1.5h-3v1.5h-0.6v-2.1h0.4c0.7-1,1-2.1,1-3.5h2.2v3.5h0.6V236.9z M612.4,234.8v-2.9h-0.9
		c-0.1,1.1-0.4,2-0.9,2.9H612.4z"/>
	<path d="M614.3,233.4c0-0.7,0.2-1.2,0.6-1.6c0.4-0.4,0.9-0.6,1.5-0.6c0.6,0,1.1,0.2,1.4,0.6c0.3,0.4,0.5,0.9,0.5,1.6
		c0,0.6-0.2,1.2-0.6,1.6c-0.4,0.4-0.9,0.6-1.5,0.6c-0.6,0-1.1-0.2-1.5-0.6S614.3,234,614.3,233.4z M615,233.4c0,0.5,0.1,0.8,0.4,1.1
		c0.2,0.3,0.6,0.4,1,0.4c0.4,0,0.7-0.1,0.9-0.4c0.2-0.3,0.3-0.6,0.3-1.1c0-0.5-0.1-0.9-0.3-1.1c-0.2-0.3-0.5-0.4-0.9-0.4
		c-0.4,0-0.7,0.1-1,0.4C615.2,232.5,615,232.9,615,233.4z"/>
	<path d="M622.4,235.4h-0.7v-3.5h-0.9c-0.1,1.3-0.3,2.2-0.6,2.7s-0.6,0.8-1.1,0.8c-0.1,0-0.3,0-0.4-0.1v-0.6c0.1,0,0.2,0.1,0.3,0.1
		c0.6,0,0.9-1.2,1.1-3.5h2.2V235.4z"/>
	<path d="M626,231.9h-1.6v3.5h-0.7v-4.1h2.3V231.9z"/>
	<path d="M632.5,235.4h-0.7v-1.8h-2v1.8h-0.7v-4.1h0.7v1.7h2v-1.7h0.7V235.4z"/>
	<path d="M633.9,231.6c0.4-0.3,0.9-0.4,1.4-0.4c1,0,1.5,0.5,1.5,1.5v2.6h-0.7v-0.6h0c-0.3,0.5-0.7,0.7-1.2,0.7
		c-0.4,0-0.7-0.1-0.9-0.3c-0.2-0.2-0.3-0.5-0.3-0.9c0-0.8,0.5-1.2,1.4-1.3l1.2-0.2c0-0.7-0.3-1-0.8-1c-0.5,0-0.9,0.2-1.3,0.5V231.6z
		 M635.1,233.5c-0.3,0-0.6,0.1-0.7,0.3c-0.1,0.1-0.2,0.3-0.2,0.5c0,0.2,0.1,0.4,0.2,0.5c0.1,0.1,0.3,0.2,0.5,0.2
		c0.3,0,0.6-0.1,0.8-0.3c0.2-0.2,0.3-0.5,0.3-0.8v-0.4L635.1,233.5z"/>
	<path d="M643.9,236.9h-0.6v-1.5h-3v1.5h-0.6v-2.1h0.4c0.7-1,1-2.1,1-3.5h2.2v3.5h0.6V236.9z M642.5,234.8v-2.9h-0.9
		c-0.1,1.1-0.4,2-0.9,2.9H642.5z"/>
	<path d="M648.1,233.6h-2.8c0,0.4,0.1,0.8,0.4,1c0.2,0.2,0.5,0.4,0.9,0.4c0.5,0,0.9-0.1,1.3-0.4v0.6c-0.4,0.3-0.8,0.4-1.4,0.4
		c-0.6,0-1-0.2-1.4-0.6c-0.3-0.4-0.5-0.9-0.5-1.6c0-0.6,0.2-1.1,0.5-1.5c0.4-0.4,0.8-0.6,1.3-0.6c0.5,0,0.9,0.2,1.2,0.5
		c0.3,0.3,0.4,0.8,0.4,1.4V233.6z M647.3,233c0-0.4-0.1-0.7-0.3-0.9c-0.2-0.2-0.4-0.3-0.7-0.3c-0.3,0-0.5,0.1-0.7,0.3
		c-0.2,0.2-0.3,0.5-0.4,0.8H647.3z"/>
	<path d="M651.8,235.2c-0.3,0.2-0.7,0.3-1.1,0.3c-0.6,0-1.1-0.2-1.4-0.6s-0.5-0.9-0.5-1.5c0-0.7,0.2-1.2,0.6-1.6
		c0.4-0.4,0.9-0.6,1.6-0.6c0.4,0,0.7,0.1,1,0.2v0.7c-0.3-0.2-0.6-0.3-1-0.3c-0.4,0-0.7,0.1-1,0.4c-0.3,0.3-0.4,0.7-0.4,1.1
		c0,0.5,0.1,0.8,0.4,1.1c0.2,0.3,0.6,0.4,1,0.4c0.4,0,0.7-0.1,1-0.3V235.2z"/>
	<path d="M655.7,235.4H655v-1.7h-0.5c-0.3,0-0.5,0.2-0.7,0.6l-0.5,1h-0.8l0.7-1.2c0.2-0.3,0.4-0.5,0.6-0.6c-0.3,0-0.6-0.2-0.7-0.3
		c-0.2-0.2-0.3-0.4-0.3-0.7c0-0.4,0.1-0.7,0.4-0.9c0.3-0.2,0.6-0.3,1.1-0.3h1.5V235.4z M655,233.2v-1.3h-0.7c-0.5,0-0.8,0.2-0.8,0.6
		c0,0.4,0.3,0.6,0.8,0.6H655z"/>
	<path d="M659.6,231.9h-1.2v3.5h-0.7v-3.5h-1.2v-0.6h3.1V231.9z"/>
	<path d="M660.3,235.4v-4.1h0.7v1.5h1.1c0.4,0,0.8,0.1,1,0.3c0.2,0.2,0.4,0.5,0.4,0.9c0,0.4-0.1,0.7-0.4,0.9s-0.6,0.3-0.9,0.3H660.3
		z M661,233.5v1.4h0.9c0.5,0,0.8-0.2,0.8-0.7c0-0.4-0.3-0.7-0.8-0.7H661z"/>
	<path d="M669.8,235.4h-0.7v-3.5h-0.9c-0.1,1.3-0.3,2.2-0.6,2.7s-0.6,0.8-1.1,0.8c-0.1,0-0.3,0-0.4-0.1v-0.6c0.1,0,0.2,0.1,0.3,0.1
		c0.6,0,0.9-1.2,1.1-3.5h2.2V235.4z"/>
	<path d="M674.4,233.6h-2.8c0,0.4,0.1,0.8,0.4,1c0.2,0.2,0.5,0.4,0.9,0.4c0.5,0,0.9-0.1,1.3-0.4v0.6c-0.4,0.3-0.8,0.4-1.4,0.4
		c-0.6,0-1-0.2-1.4-0.6c-0.3-0.4-0.5-0.9-0.5-1.6c0-0.6,0.2-1.1,0.5-1.5c0.4-0.4,0.8-0.6,1.3-0.6c0.5,0,0.9,0.2,1.2,0.5
		c0.3,0.3,0.4,0.8,0.4,1.4V233.6z M673.7,233c0-0.4-0.1-0.7-0.3-0.9c-0.2-0.2-0.4-0.3-0.7-0.3c-0.3,0-0.5,0.1-0.7,0.3
		c-0.2,0.2-0.3,0.5-0.4,0.8H673.7z"/>
	<path d="M678,231.9h-1.2v3.5H676v-3.5h-1.2v-0.6h3.1V231.9z"/>
</g>
</svg>
