<?xml version="1.0" encoding="utf-8"?>
<!-- Generator: Adobe Illustrator 23.0.0, SVG Export Plug-In . SVG Version: 6.00 Build 0)  -->
<svg version="1.1" id="运作原理" xmlns="http://www.w3.org/2000/svg" xmlns:xlink="http://www.w3.org/1999/xlink" x="0px"
	 y="0px" viewBox="0 0 817 407" style="enable-background:new 0 0 817 407;" xml:space="preserve">
<style type="text/css">
	.st0{fill:none;stroke:#90A7AB;}
	.st1{fill:#70DBCB;}
	.st2{fill:#9FE7DD;stroke:#34B9A1;stroke-width:2;}
	.st3{fill:none;stroke:#456E68;stroke-width:1.5;stroke-miterlimit:10;}
	.st4{enable-background:new    ;}
	.st5{fill:#456E68;}
</style>
<path id="形状_1_拷贝_3" class="st0" d="M63.1,200.2l0.1,71.6l4.6-2.1"/>
<path id="形状_1_拷贝_5" class="st0" d="M734.8,153.2l-0.1-71.1l-4.6,2"/>
<path id="形状_1" class="st0" d="M127.2,93.1h98.3l46.2,46.1l-0.3-6"/>
<path id="形状_1_拷贝_2" class="st0" d="M271.4,172.3h-98l-46.1-46.5l0.3,6.1"/>
<path id="形状_1_拷贝" class="st0" d="M653,207.3h-98.1l-46.1,46.1l0.3-6"/>
<path id="形状_1_拷贝_4" class="st0" d="M509.1,286.5H607l46-46.5l-0.3,6.1"/>
<g id="椭圆_7">
	<path class="st1" d="M225.4,219.8c-10.8,0-19.5-8.7-19.5-19.5s8.7-19.5,19.5-19.5s19.5,8.7,19.5,19.5S236.2,219.8,225.4,219.8z
		 M225.4,181.8c-10.2,0-18.5,8.3-18.5,18.5s8.3,18.5,18.5,18.5s18.5-8.3,18.5-18.5S235.6,181.8,225.4,181.8z"/>
</g>
<circle id="椭圆_6" class="st2" cx="389.6" cy="197.3" r="104.2"/>
<g>
	<circle class="st3" cx="63.3" cy="72.4" r="17.1"/>
	<line class="st3" x1="49.5" y1="99.3" x2="63.3" y2="115"/>
	<line class="st3" x1="76.6" y1="99.3" x2="63.3" y2="115"/>
	<line class="st3" x1="63.3" y1="130.6" x2="63.3" y2="115"/>
	<path class="st3" d="M100,121.6v3.7c0,3.4-2.8,6.1-6.1,6.1H32.6c-3.4,0-6.1-2.8-6.1-6.1v-3.7"/>
	<path class="st3" d="M32.6,115.5"/>
	<path class="st3" d="M26.5,123.3c0-13.9,11.4-24.5,25.3-24.5h23c13.9,0,25.2,11.3,25.2,25.2l0,0"/>
</g>
<g class="st4">
	<g>
		<g>
			<path class="st5" d="M96.5,302.6H86.4c1-0.8,1.6-1.9,1.6-3.2c0-2.3-1.8-4.1-4.1-4.1s-4.1,1.8-4.1,4.1c0,0.7,0.2,1.3,0.5,1.9
				l-1.5,1.3h-20c-0.6-1.5-2.1-2.5-3.8-2.5s-3.2,1-3.8,2.5H28.9c-1.8,0-3.3,1.5-3.3,3.3v8c0,0.6,0.5,1.1,1.1,1.1s1.1-0.5,1.1-1.1v-8
				c0-0.6,0.5-1.1,1.1-1.1h22c0.1,0.4,0.2,0.8,0.3,1.2l-9.1,8.3c-0.6-0.4-1.4-0.7-2.2-0.7c-2.3,0-4.1,1.8-4.1,4.1s1.8,4.1,4.1,4.1
				s4.1-1.8,4.1-4.1c0-0.7-0.2-1.3-0.4-1.8l9.1-8.3c0.7,0.5,1.5,0.7,2.3,0.7c1.2,0,2.2-0.5,3-1.3l7.4,4.4c-0.1,0.3-0.1,0.5-0.1,0.8
				c0,2.3,1.8,4.1,4.1,4.1c2.3,0,4.1-1.8,4.1-4.1c0-0.6-0.1-1.2-0.4-1.7l6.4-5.8h16.9c0.6,0,1.1,0.5,1.1,1.1v26.8
				c0,0.6,0.5,1.1,1.1,1.1s1.1-0.5,1.1-1.1v-26.8C99.8,304,98.3,302.6,96.5,302.6z M39.9,319.6c-1.1,0-1.9-0.9-1.9-1.9
				c0-1.1,0.9-1.9,1.9-1.9s1.9,0.9,1.9,1.9S41,319.6,39.9,319.6z M55,306.1c-1.1,0-1.9-0.9-1.9-1.9c0-1.1,0.9-1.9,1.9-1.9
				s1.9,0.9,1.9,1.9S56.1,306.1,55,306.1z M69.5,314.2c-1.1,0-1.9-0.9-1.9-1.9c0-1.1,0.9-1.9,1.9-1.9s1.9,0.9,1.9,1.9
				C71.5,313.3,70.6,314.2,69.5,314.2z M71.9,308.9c-0.7-0.5-1.5-0.8-2.4-0.8c-1.2,0-2.3,0.5-3.1,1.4l-7.3-4.4
				c0-0.1,0.1-0.3,0.1-0.4h17.2L71.9,308.9z M83.9,301.3c-1.1,0-1.9-0.9-1.9-1.9s0.9-1.9,1.9-1.9s1.9,0.9,1.9,1.9
				S85,301.3,83.9,301.3z"/>
		</g>
	</g>
	<g>
		<g>
			<path class="st5" d="M99.8,337c0-0.6-0.5-1.1-1.1-1.1s-1.1,0.5-1.1,1.1v8.2h-8v-25.7v-4.4v-4.5c0-0.6-0.5-1.1-1.1-1.1h-8.2
				c-0.6,0-1.1,0.5-1.1,1.1v4.5v4.4v25.7h-4.1v-5.5v-4.5v-4.5c0-0.6-0.5-1.1-1.1-1.1h-8c-0.6,0-1.1,0.5-1.1,1.1v4.5v4.4v5.5h-4.1
				v-19.5v-4.4v-4.5c0-0.6-0.5-1.1-1.1-1.1h-8.2c-0.6,0-1.1,0.5-1.1,1.1v4.5v4.4v6.1c0,0.6,0.5,1.1,1.1,1.1s1.1-0.5,1.1-1.1v-5h6
				v18.4h-6V336c0-0.6-0.5-1.1-1.1-1.1s-1.1,0.5-1.1,1.1v9.1h-4.1v-5.5v-4.4v-4.5c0-0.6-0.5-1.1-1.1-1.1H37c-0.6,0-1.1,0.5-1.1,1.1
				v4.5v4.4v5.5h-8.2v-27c0-0.6-0.5-1.1-1.1-1.1s-1.1,0.5-1.1,1.1v36c0,1.8,1.5,3.3,3.3,3.3h23.8l-0.6,5.4h-5
				c-0.6,0-1.1,0.5-1.1,1.1v3.8c0,0.6,0.5,1.1,1.1,1.1h31.5c0.6,0,1.1-0.5,1.1-1.1v-3.8c0-0.6-0.5-1.1-1.1-1.1h-5.2l-0.6-5.4h23.8
				c1.8,0,3.3-1.5,3.3-3.3v-7.8l0,0V337L99.8,337z M81.5,311.6h6v2.3h-6V311.6z M81.5,316.1h6v2.3h-6V316.1z M81.5,320.5h6v24.6h-6
				V320.5z M67.1,331.8h6v2.3h-6V331.8z M67.1,336.3h6v2.3h-6V336.3z M67.1,340.7h6v4.4h-6V340.7z M52.6,320.1v-2.3h6v2.3H52.6z
				 M52.6,324.5v-2.3h6v2.3H52.6z M38.2,331.8h6v2.3h-6V331.8z M38.2,336.3h6v2.3h-6V336.3z M38.2,340.7h6v4.4h-6V340.7z M77.5,365
				v1.6H48V365H77.5z M54.2,362.8l0.6-5.4h15.6l0.6,5.4H54.2z M96.5,355.3H28.9c-0.6,0-1.1-0.5-1.1-1.1v-6.7h69.8v6.7l0,0
				C97.6,354.8,97.1,355.3,96.5,355.3z"/>
		</g>
	</g>
</g>
<path class="st5" d="M759.5,186.2h-8.4v8.4h8.4V186.2z M756.7,191.9h-2.8V189h2.8V191.9z"/>
<path class="st5" d="M770.7,186.2h-8.4v8.4h8.4V186.2z M767.9,191.9h-2.8V189h2.8V191.9z"/>
<path class="st5" d="M759.5,197.5h-8.4v8.4h8.4V197.5z M756.7,203.1h-2.8v-2.8h2.8V203.1z"/>
<path class="st5" d="M770.7,197.5h-8.4v8.4h8.4V197.5z M767.9,203.1h-2.8v-2.8h2.8V203.1z"/>
<path class="st5" d="M759.5,217.1v-8.4h-8.4v8.4H759.5z M753.9,211.5h2.8v2.8h-2.8V211.5z"/>
<path class="st5" d="M770.7,208.7h-8.4v8.4h8.4V208.7z M767.9,214.3h-2.8v-2.8h2.8V214.3z"/>
<path class="st5" d="M779.1,183.4v-2.8h-2.8V175h-2.8v-5.6h-25.2v5.6h-2.8v5.6h-2.8v2.8h2.8v36.5h-11.2v-16.8h2.8v-8.4h-2.8v-2.1
	L714.7,179l-8.4,5.8v-4.3h-8.4v10.1l-2.8,1.9v2.1h-2.8v8.4h2.8v17.1c-1.6,0.6-2.8,2.1-2.8,3.9v2.8c0,2.3,1.9,4.2,4.2,4.2h27.3
	c-2.2,2.7-3.5,6.1-3.5,9.8c0,8.5,6.9,15.4,15.4,15.4s15.4-6.8,15.4-15.3c0-3.7-1.3-7.1-3.5-9.8h27.3c2.3,0,4.2-1.9,4.2-4.2v-2.8
	c0-1.8-1.2-3.4-2.8-3.9v-36.8L779.1,183.4L779.1,183.4z M751.1,172.2h19.6v2.8h-19.6V172.2z M748.3,177.8h25.2v2.8h-25.2V177.8z
	 M700.6,183.2h2.8v3.5l-2.8,1.9V183.2z M697.8,194.1l16.8-11.6l16.8,11.6v0.7h-33.7v-0.7H697.8z M695,197.5h39.3v2.8H695V197.5z
	 M731.5,203.1v16.8h-11.2v-14H709v14h-11.2v-16.8H731.5z M717.4,219.9h-5.6v-11.2h5.6V219.9z M735.7,253.6
	c-6.9,0-12.6-5.7-12.6-12.6c0-6.9,5.7-12.6,12.6-12.6s12.6,5.7,12.6,12.6C748.3,247.9,742.7,253.6,735.7,253.6z M776.3,226.9
	c0,0.8-0.6,1.4-1.4,1.4h-30.4c-2.5-1.8-5.5-2.8-8.8-2.8s-6.3,1-8.8,2.8h-30.4c-0.8,0-1.4-0.6-1.4-1.4v-2.8c0-0.8,0.6-1.4,1.4-1.4
	H775c0.8,0,1.4,0.6,1.4,1.4L776.3,226.9L776.3,226.9z M773.5,219.9h-25.2v-36.5h25.2V219.9z"/>
<g class="st4">
	<g>
		<g>
			<path class="st5" d="M715.3,25.6h-8.5c-0.6,0-1.1,0.5-1.1,1.1V31c0,0.6,0.5,1.1,1.1,1.1h8.5c0.6,0,1.1-0.5,1.1-1.1v-4.3
				C716.3,26.1,715.9,25.6,715.3,25.6z M709.9,29.9h-2.1v-2.1h2.1V29.9z M714.2,29.9h-2.1v-2.1h2.1V29.9z"/>
		</g>
	</g>
	<g>
		<g>
			<path class="st5" d="M715.3,34.1h-8.5c-0.6,0-1.1,0.5-1.1,1.1v4.3c0,0.6,0.5,1.1,1.1,1.1h8.5c0.6,0,1.1-0.5,1.1-1.1v-4.3
				C716.3,34.6,715.9,34.1,715.3,34.1z M709.9,38.4h-2.1v-2.1h2.1V38.4z M714.2,38.4h-2.1v-2.1h2.1V38.4z"/>
		</g>
	</g>
	<g>
		<g>
			<path class="st5" d="M715.3,42.8h-8.5c-0.6,0-1.1,0.5-1.1,1.1v4.2c0,0.6,0.5,1.1,1.1,1.1h8.5c0.6,0,1.1-0.5,1.1-1.1v-4.3
				C716.3,43.2,715.9,42.8,715.3,42.8z M709.9,47h-2.1v-2.1h2.1V47z M714.2,47h-2.1v-2.1h2.1V47z"/>
		</g>
	</g>
	<g>
		<g>
			<path class="st5" d="M753.7,25.6h-8.5c-0.6,0-1.1,0.5-1.1,1.1V31c0,0.6,0.5,1.1,1.1,1.1h8.5c0.6,0,1.1-0.5,1.1-1.1v-4.3
				C754.7,26.1,754.3,25.6,753.7,25.6z M748.3,29.9h-2.1v-2.1h2.1V29.9z M752.6,29.9h-2.1v-2.1h2.1V29.9z"/>
		</g>
	</g>
	<g>
		<g>
			<path class="st5" d="M753.7,17.1h-8.5c-0.6,0-1.1,0.5-1.1,1.1v4.3c0,0.6,0.5,1.1,1.1,1.1h8.5c0.6,0,1.1-0.5,1.1-1.1v-4.3
				C754.7,17.5,754.3,17.1,753.7,17.1z M748.3,21.3h-2.1v-2.1h2.1V21.3z M752.6,21.3h-2.1v-2.1h2.1V21.3z"/>
		</g>
	</g>
	<g>
		<g>
			<path class="st5" d="M728.1,29.9h-4.3c-0.6,0-1.1,0.5-1.1,1.1v4.3c0,0.6,0.5,1.1,1.1,1.1h4.3c0.6,0,1.1-0.5,1.1-1.1V31
				C729.1,30.3,728.7,29.9,728.1,29.9z M727,34.1h-2.1V32h2.1V34.1z"/>
		</g>
	</g>
	<g>
		<g>
			<path class="st5" d="M736.6,29.9h-4.3c-0.6,0-1.1,0.5-1.1,1.1v4.3c0,0.6,0.5,1.1,1.1,1.1h4.3c0.6,0,1.1-0.5,1.1-1.1V31
				C737.7,30.3,737.2,29.9,736.6,29.9z M735.5,34.1h-2.1V32h2.1V34.1z"/>
		</g>
	</g>
	<g>
		<g>
			<path class="st5" d="M728.1,21.3h-4.3c-0.6,0-1.1,0.5-1.1,1.1v4.3c0,0.6,0.5,1.1,1.1,1.1h4.3c0.6,0,1.1-0.5,1.1-1.1v-4.3
				C729.1,21.8,728.7,21.3,728.1,21.3z M727,25.6h-2.1v-2.1h2.1V25.6z"/>
		</g>
	</g>
	<g>
		<g>
			<path class="st5" d="M736.6,21.3h-4.3c-0.6,0-1.1,0.5-1.1,1.1v4.3c0,0.6,0.5,1.1,1.1,1.1h4.3c0.6,0,1.1-0.5,1.1-1.1v-4.3
				C737.7,21.8,737.2,21.3,736.6,21.3z M735.5,25.6h-2.1v-2.1h2.1V25.6z"/>
		</g>
	</g>
	<g>
		<g>
			<path class="st5" d="M728.1,12.8h-4.3c-0.6,0-1.1,0.5-1.1,1.1v4.3c0,0.6,0.5,1.1,1.1,1.1h4.3c0.6,0,1.1-0.5,1.1-1.1v-4.3
				C729.1,13.3,728.7,12.8,728.1,12.8z M727,17.1h-2.1V15h2.1V17.1z"/>
		</g>
	</g>
	<g>
		<g>
			<path class="st5" d="M736.6,12.8h-4.3c-0.6,0-1.1,0.5-1.1,1.1v4.3c0,0.6,0.5,1.1,1.1,1.1h4.3c0.6,0,1.1-0.5,1.1-1.1v-4.3
				C737.7,13.3,737.2,12.8,736.6,12.8z M735.5,17.1h-2.1V15h2.1V17.1z"/>
		</g>
	</g>
	<g>
		<g>
			<path class="st5" d="M728.1,42.8h-4.3c-0.6,0-1.1,0.5-1.1,1.1v4.2c0,0.6,0.5,1.1,1.1,1.1h4.3c0.6,0,1.1-0.5,1.1-1.1v-4.3
				C729.1,43.2,728.7,42.8,728.1,42.8z M727,47h-2.1v-2.1h2.1V47z"/>
		</g>
	</g>
	<g>
		<g>
			<rect x="705.6" y="51.3" class="st5" width="2.1" height="2.1"/>
		</g>
	</g>
	<g>
		<g>
			<rect x="709.9" y="51.3" class="st5" width="2.1" height="2.1"/>
		</g>
	</g>
	<g>
		<g>
			<rect x="714.2" y="51.3" class="st5" width="2.1" height="2.1"/>
		</g>
	</g>
	<g>
		<g>
			<path class="st5" d="M764.3,38.4H759V13.9c0-0.6-0.5-1.1-1.1-1.1h-7.5v-1.7l1.1-1.1c0.9,0.7,2,1.1,3.1,1.1c1.4,0,2.7-0.5,3.7-1.5
				l0.2-0.2c0.4-0.4,0.4-1.1,0-1.5l-2.4-2.4l2.4-2.4L757,1.6L754.6,4l-3.5-3.5c-0.2-0.2-0.5-0.3-0.8-0.3c-0.4,0-0.7,0.2-0.9,0.4
				c-1.1,1-1.7,2.3-1.7,3.7s0.5,2.9,1.6,3.9l0.5,0.5l-1.4,1.4c-0.2,0.2-0.3,0.5-0.3,0.8V13h-6.4V9.6c0-0.6-0.5-1.1-1.1-1.1h-3.7
				l-6.1-8.1c-0.4-0.5-1.3-0.5-1.7,0L723,8.5h-3.7c-0.6,0-1.1,0.5-1.1,1.1v11.7h-6.4v-8.5h-2.1v8.5h-7.5c-0.6,0-1.1,0.5-1.1,1.1V63
				c0,0.6,0.5,1.1,1.1,1.1h17.1h7.5h8.5h1.1h6.4h17.1c2.9,0,5.3-2.4,5.3-5.3V39.6C765.4,38.9,764.9,38.4,764.3,38.4z M718.5,62
				h-14.9V23.5h14.9V62z M750.5,2.6l5.8,5.8c-1.2,0.7-2.8,0.6-3.9-0.5l-1.5-1.5c-0.6-0.6-1-1.4-0.9-2.3
				C750.1,3.6,750.2,3.1,750.5,2.6z M730.2,2.8l4.3,5.7H726L730.2,2.8z M725.9,53.4v8.5h-5.3V22.4V10.7h19.2v3.2v19.2h2.1V14.9h14.9
				v23.5h-2.1v-1.1c0-1.8-1.4-3.2-3.2-3.2h-6.4c-1.8,0-3.2,1.4-3.2,3.2v1.1h-9.6c-0.6,0-1.1,0.5-1.1,1.1v11.7h-8.5v2.1h3.2
				L725.9,53.4L725.9,53.4z M752.6,37.3v1.1h-8.5v-1.1c0-0.6,0.5-1.1,1.1-1.1h6.4C752.1,36.3,752.6,36.7,752.6,37.3z M728.1,62v-8.5
				h3.2v5.3c0,1.2,0.4,2.3,1.1,3.2H728.1z M763.3,58.8c0,1.8-1.4,3.2-3.2,3.2H743h-6.4c-1.8,0-3.2-1.4-3.2-3.2V48.1
				c0.9,0.7,2,1.1,3.2,1.1h1.1v3.2c0,0.6,0.5,1.1,1.1,1.1h4.3c0.6,0,1.1-0.5,1.1-1.1v-3.2h1.1h6.4h1.1v3.2c0,0.6,0.5,1.1,1.1,1.1
				h4.3c0.6,0,1.1-0.5,1.1-1.1v-3.2h1.1c1.2,0,2.3-0.4,3.2-1.1v10.7H763.3z M739.8,51.3v-2.1h2.1v2.1H739.8z M746.2,47v-2.1h4.3V47
				H746.2z M754.7,51.3v-2.1h2.1v2.1H754.7z M763.3,43.8c0,1.8-1.4,3.2-3.2,3.2H758h-4.3h-1.1v-3.2c0-0.6-0.5-1.1-1.1-1.1h-6.4
				c-0.6,0-1.1,0.5-1.1,1.1V47h-1.1h-4.3h-2.1c-1.8,0-3.2-1.4-3.2-3.2v-3.2h29.9L763.3,43.8L763.3,43.8z"/>
		</g>
	</g>
	<g>
		<g>
			<rect x="759" y="57.7" class="st5" width="2.1" height="2.1"/>
		</g>
	</g>
	<g>
		<g>
			<rect x="754.7" y="57.7" class="st5" width="2.1" height="2.1"/>
		</g>
	</g>
	<g>
		<g>
			<rect x="750.5" y="57.7" class="st5" width="2.1" height="2.1"/>
		</g>
	</g>
</g>
<g>
	<g>
		<path class="st1" d="M219.7,209.9v-1.1c2.2-0.9,3.3-2.5,3.3-4.8v-2.8h-3V200h3v-3.8c0-1.6,0.4-3,1.3-4c0.9-1,2-1.5,3.5-1.5
			c0.8,0,1.6,0.2,2.4,0.5v1.2c-0.8-0.4-1.6-0.6-2.4-0.6c-1.1,0-1.9,0.4-2.6,1.2c-0.6,0.8-0.9,1.9-0.9,3.4v3.6h4v1.2h-4v2.3
			c0,2.6-0.9,4.3-2.8,5.3h9.7v1.1H219.7z"/>
	</g>
</g>
<g>
	<g id="椭圆_7_1_">
		<path class="st1" d="M572.9,196.8c-10.8,0-19.5-8.7-19.5-19.5s8.7-19.5,19.5-19.5s19.5,8.7,19.5,19.5S583.7,196.8,572.9,196.8z
			 M572.9,158.8c-10.2,0-18.5,8.3-18.5,18.5s8.3,18.5,18.5,18.5s18.5-8.3,18.5-18.5S583.1,158.8,572.9,158.8z"/>
	</g>
	<g>
		<g>
			<path class="st1" d="M567.2,186.9v-1.1c2.2-0.9,3.3-2.5,3.3-4.8v-2.8h-3V177h3v-3.8c0-1.6,0.4-3,1.3-4c0.9-1,2-1.5,3.5-1.5
				c0.8,0,1.6,0.2,2.4,0.5v1.2c-0.8-0.4-1.6-0.6-2.4-0.6c-1.1,0-1.9,0.4-2.6,1.2c-0.6,0.8-0.9,1.9-0.9,3.4v3.6h4v1.2h-4v2.3
				c0,2.6-0.9,4.3-2.8,5.3h9.7v1.1H567.2z"/>
		</g>
	</g>
</g>
<g>
	<path class="st5" d="M729.9,249.1v-1.8c1.9-0.6,2.9-1.8,2.9-3.7v-2.2h-2.6v-1.8h2.6v-3c0-1.5,0.4-2.8,1.4-3.7c1-1,2.2-1.5,3.6-1.5
		c1,0,1.9,0.1,2.8,0.6v2.1c-0.8-0.6-1.8-0.7-2.6-0.7c-1.9,0-2.9,1.2-2.9,3.6v2.8h3.9v1.8h-4v1.8c0,1.9-0.8,3.2-2.3,4.1h8.9v1.8
		h-11.7L729.9,249.1L729.9,249.1z"/>
</g>
<g class="st4">
	<path d="M296.5,178.6h12.4v15.7h-2.1v-13.9h-8.2v13.9h-2.1V178.6z"/>
	<path d="M312,198.7v-15.8h1.8v1.5c0.4-0.6,0.9-1,1.4-1.3c0.5-0.3,1.2-0.4,1.9-0.4c1,0,1.8,0.3,2.6,0.8c0.7,0.5,1.3,1.2,1.7,2.1
		c0.4,0.9,0.6,1.9,0.6,3c0,1.2-0.2,2.2-0.6,3.2c-0.4,0.9-1,1.7-1.8,2.1c-0.8,0.5-1.6,0.7-2.5,0.7c-0.6,0-1.2-0.1-1.7-0.4
		c-0.5-0.3-0.9-0.6-1.3-1v5.6H312z M313.7,188.7c0,1.5,0.3,2.6,0.9,3.3c0.6,0.7,1.3,1.1,2.2,1.1c0.9,0,1.6-0.4,2.2-1.1
		c0.6-0.7,0.9-1.9,0.9-3.4c0-1.5-0.3-2.5-0.9-3.3c-0.6-0.7-1.3-1.1-2.1-1.1c-0.8,0-1.6,0.4-2.2,1.2
		C314.1,186.1,313.7,187.2,313.7,188.7z"/>
	<path d="M324.2,182.9h1.9v8.7l5.4-8.7h2.1v11.4h-1.9v-8.6l-5.4,8.6h-2.1V182.9z"/>
	<path d="M336.5,182.9h1.9v4.7h5.4v-4.7h1.9v11.4h-1.9v-5.1h-5.4v5.1h-1.9V182.9z"/>
	<path d="M348.7,182.9h1.9v9.8h5.3v-9.8h1.9v9.8h1.2v4.8h-1.6v-3.2h-8.9V182.9z"/>
	<path d="M361.3,182.9h1.9v8.7l5.4-8.7h2.1v11.4h-1.9v-8.6l-5.4,8.6h-2.1V182.9z"/>
	<path d="M373.6,182.9h9v11.4h-1.9v-9.8h-5.1v9.8h-1.9V182.9z"/>
	<path d="M393.1,182.9h7.9v9.8h1.2v4.8h-1.6v-3.2h-9v3.2h-1.6v-4.8h1C392.5,190.9,393.2,187.6,393.1,182.9z M394.7,184.5
		c-0.1,3.7-0.7,6.4-1.7,8.2h6.1v-8.2H394.7z"/>
	<path d="M412.2,190.6l2,0.2c-0.3,1.2-0.9,2.1-1.8,2.7s-1.9,1-3.3,1c-1.7,0-3-0.5-4-1.5c-1-1-1.5-2.5-1.5-4.3c0-1.9,0.5-3.4,1.5-4.5
		s2.3-1.6,3.8-1.6c1.5,0,2.8,0.5,3.7,1.6s1.5,2.5,1.5,4.4c0,0.1,0,0.3,0,0.5h-8.5c0.1,1.3,0.4,2.2,1.1,2.9c0.6,0.7,1.4,1,2.4,1
		c0.7,0,1.3-0.2,1.8-0.6S411.9,191.4,412.2,190.6z M405.9,187.5h6.4c-0.1-1-0.3-1.7-0.7-2.2c-0.6-0.7-1.4-1.1-2.4-1.1
		c-0.9,0-1.6,0.3-2.2,0.9C406.3,185.7,405.9,186.5,405.9,187.5z"/>
	<path d="M416.7,182.9h1.9v8.7l5.4-8.7h2.1v11.4h-1.9v-8.6l-5.4,8.6h-2.1V182.9z M423.4,178.6h1.3c-0.1,0.9-0.4,1.6-1,2.1
		s-1.3,0.7-2.2,0.7c-0.9,0-1.6-0.2-2.2-0.7c-0.5-0.5-0.9-1.2-1-2.1h1.3c0.1,0.5,0.3,0.9,0.6,1.1c0.3,0.2,0.7,0.4,1.2,0.4
		c0.6,0,1-0.1,1.3-0.3C423.1,179.4,423.3,179.1,423.4,178.6z"/>
	<path d="M436.4,190.1l1.9,0.2c-0.2,1.3-0.7,2.3-1.6,3.1c-0.9,0.7-1.9,1.1-3.2,1.1c-1.6,0-2.8-0.5-3.8-1.5c-0.9-1-1.4-2.5-1.4-4.4
		c0-1.2,0.2-2.3,0.6-3.2s1-1.6,1.9-2.1c0.8-0.5,1.7-0.7,2.7-0.7c1.2,0,2.3,0.3,3,0.9c0.8,0.6,1.3,1.5,1.5,2.7l-1.9,0.3
		c-0.2-0.8-0.5-1.3-1-1.7c-0.5-0.4-1-0.6-1.6-0.6c-1,0-1.8,0.3-2.4,1c-0.6,0.7-0.9,1.8-0.9,3.3c0,1.5,0.3,2.6,0.9,3.3s1.4,1,2.3,1
		c0.8,0,1.4-0.2,1.9-0.7S436.3,191.1,436.4,190.1z"/>
	<path d="M438.9,182.9h9.3v1.6h-3.7v9.8h-1.9v-9.8h-3.7V182.9z"/>
	<path d="M450,182.9h4.5c1.1,0,1.9,0.1,2.4,0.3c0.5,0.2,1,0.5,1.4,1c0.4,0.5,0.6,1.1,0.6,1.8c0,0.5-0.1,1-0.3,1.4
		c-0.2,0.4-0.6,0.7-1,1c0.5,0.2,1,0.5,1.3,1c0.4,0.5,0.5,1.1,0.5,1.7c-0.1,1.1-0.5,1.9-1.2,2.4s-1.7,0.8-3.1,0.8H450V182.9z
		 M452,187.7h2.1c0.8,0,1.4,0,1.7-0.1s0.6-0.3,0.8-0.5c0.2-0.3,0.4-0.6,0.4-0.9c0-0.6-0.2-1-0.6-1.3c-0.4-0.2-1.2-0.4-2.2-0.4H452
		V187.7z M452,192.7h2.5c1.1,0,1.8-0.1,2.3-0.4c0.4-0.3,0.6-0.7,0.6-1.3c0-0.4-0.1-0.7-0.4-1c-0.2-0.3-0.5-0.5-0.9-0.6
		c-0.4-0.1-1-0.1-1.8-0.1H452V192.7z"/>
	<path d="M461.7,182.9h1.9v8.7l5.4-8.7h2.1v11.4h-1.9v-8.6l-5.4,8.6h-2.1V182.9z"/>
	<path d="M483,182.9v11.4h-1.9v-4.4h-1.1c-0.7,0-1.2,0.1-1.5,0.3c-0.3,0.2-0.8,0.7-1.5,1.7l-1.7,2.5h-2.4l2.1-3.1
		c0.6-0.9,1.3-1.5,1.9-1.6c-1.1-0.2-1.9-0.5-2.5-1.2c-0.5-0.6-0.8-1.4-0.8-2.2c0-1,0.3-1.8,1-2.4s1.7-0.9,3-0.9H483z M481.1,184.5
		h-2.8c-1.2,0-1.9,0.2-2.2,0.5s-0.5,0.8-0.5,1.3c0,0.7,0.2,1.2,0.7,1.5c0.5,0.3,1.4,0.5,2.6,0.5h2.1V184.5z"/>
	<path d="M354.8,216.5l1.9,0.2c-0.2,1.3-0.7,2.3-1.6,3.1c-0.9,0.7-1.9,1.1-3.2,1.1c-1.6,0-2.8-0.5-3.8-1.5c-0.9-1-1.4-2.5-1.4-4.4
		c0-1.2,0.2-2.3,0.6-3.2s1-1.6,1.9-2.1c0.8-0.5,1.7-0.7,2.7-0.7c1.2,0,2.3,0.3,3,0.9c0.8,0.6,1.3,1.5,1.5,2.7l-1.9,0.3
		c-0.2-0.8-0.5-1.3-1-1.7c-0.5-0.4-1-0.6-1.6-0.6c-1,0-1.8,0.3-2.4,1c-0.6,0.7-0.9,1.8-0.9,3.3c0,1.5,0.3,2.6,0.9,3.3
		c0.6,0.7,1.4,1,2.3,1c0.8,0,1.4-0.2,1.9-0.7C354.4,218.2,354.7,217.5,354.8,216.5z"/>
	<path d="M358.4,209.3h1.9v8.7l5.4-8.7h2.1v11.4h-1.9v-8.6l-5.4,8.6h-2.1V209.3z"/>
	<path d="M378.1,216.5l1.9,0.2c-0.2,1.3-0.7,2.3-1.6,3.1c-0.9,0.7-1.9,1.1-3.2,1.1c-1.6,0-2.8-0.5-3.8-1.5c-0.9-1-1.4-2.5-1.4-4.4
		c0-1.2,0.2-2.3,0.6-3.2s1-1.6,1.9-2.1c0.8-0.5,1.7-0.7,2.7-0.7c1.2,0,2.3,0.3,3,0.9c0.8,0.6,1.3,1.5,1.5,2.7l-1.9,0.3
		c-0.2-0.8-0.5-1.3-1-1.7c-0.5-0.4-1-0.6-1.6-0.6c-1,0-1.8,0.3-2.4,1c-0.6,0.7-0.9,1.8-0.9,3.3c0,1.5,0.3,2.6,0.9,3.3
		c0.6,0.7,1.4,1,2.3,1c0.8,0,1.4-0.2,1.9-0.7C377.7,218.2,378,217.5,378.1,216.5z"/>
	<path d="M380.7,209.3h9.3v1.6h-3.7v9.8h-1.9v-9.8h-3.7V209.3z"/>
	<path d="M399.3,217l2,0.2c-0.3,1.2-0.9,2.1-1.8,2.7c-0.9,0.6-1.9,1-3.3,1c-1.7,0-3-0.5-4-1.5c-1-1-1.5-2.5-1.5-4.3
		c0-1.9,0.5-3.4,1.5-4.5s2.3-1.6,3.8-1.6c1.5,0,2.8,0.5,3.7,1.6s1.5,2.5,1.5,4.4c0,0.1,0,0.3,0,0.5h-8.5c0.1,1.3,0.4,2.2,1.1,2.9
		c0.6,0.7,1.4,1,2.4,1c0.7,0,1.3-0.2,1.8-0.6C398.6,218.4,399,217.8,399.3,217z M393,213.9h6.4c-0.1-1-0.3-1.7-0.7-2.2
		c-0.6-0.7-1.4-1.1-2.4-1.1c-0.9,0-1.6,0.3-2.2,0.9C393.4,212.1,393,212.9,393,213.9z"/>
	<path d="M403.8,209.3h3l3,9.1l3.3-9.1h2.8v11.4H414v-9.2l-3.4,9.2h-1.7l-3.2-9.6v9.6h-1.9V209.3z"/>
	<path d="M418.9,209.3h1.9v4.5h2.4c1.6,0,2.8,0.3,3.7,0.9c0.9,0.6,1.3,1.5,1.3,2.6c0,1-0.4,1.8-1.1,2.4c-0.7,0.7-1.9,1-3.5,1h-4.8
		V209.3z M420.9,219.1h2c1.2,0,2.1-0.2,2.6-0.5s0.8-0.8,0.8-1.4c0-0.5-0.2-0.9-0.6-1.3s-1.2-0.6-2.6-0.6h-2.3V219.1z M429.7,209.3
		h1.9v11.4h-1.9V209.3z"/>
</g>
<g class="st4">
	<path class="st5" d="M4.9,385.9h7.4v1.4H6.4v10.1H4.9V385.9z"/>
	<path class="st5" d="M13.1,389h6.5v8.3h-1.4v-7.1h-3.7v4.1c0,1,0,1.6-0.1,1.9s-0.2,0.6-0.5,0.8s-0.7,0.3-1.2,0.3
		c-0.3,0-0.7,0-1.1-0.1v-1.2h0.6c0.3,0,0.5,0,0.6-0.1s0.2-0.2,0.3-0.3c0-0.1,0.1-0.6,0.1-1.3V389z"/>
	<path class="st5" d="M21.4,393.2c0-1.5,0.4-2.7,1.3-3.4c0.7-0.6,1.6-0.9,2.6-0.9c1.1,0,2.1,0.4,2.8,1.1c0.7,0.7,1.1,1.8,1.1,3.1
		c0,1.1-0.2,1.9-0.5,2.5s-0.8,1.1-1.4,1.4c-0.6,0.3-1.3,0.5-2,0.5c-1.2,0-2.1-0.4-2.8-1.1C21.8,395.7,21.4,394.6,21.4,393.2z
		 M22.9,393.2c0,1.1,0.2,1.9,0.7,2.4c0.5,0.5,1,0.8,1.8,0.8c0.7,0,1.3-0.3,1.7-0.8c0.5-0.5,0.7-1.3,0.7-2.4c0-1-0.2-1.8-0.7-2.3
		c-0.5-0.5-1-0.8-1.7-0.8c-0.7,0-1.3,0.3-1.8,0.8C23.1,391.3,22.9,392.1,22.9,393.2z"/>
	<path class="st5" d="M36.9,385.6l1.2,0c-0.1,0.6-0.2,0.9-0.4,1.2c-0.2,0.2-0.4,0.4-0.7,0.4c-0.3,0.1-0.9,0.1-1.8,0.1
		c-1.2,0-2,0.1-2.4,0.3s-0.7,0.6-0.9,1.1c-0.2,0.5-0.3,1.1-0.3,1.9c0.4-0.5,0.8-0.9,1.2-1.2c0.5-0.3,1-0.4,1.6-0.4
		c1.1,0,2,0.4,2.7,1.1c0.7,0.7,1.1,1.8,1.1,3c0,1-0.2,1.8-0.5,2.4s-0.8,1.1-1.3,1.4s-1.2,0.5-2,0.5c-1,0-1.8-0.2-2.3-0.7
		s-1-1-1.3-1.7c-0.3-0.7-0.4-1.9-0.4-3.7c0-2.2,0.4-3.7,1.1-4.4s1.9-1.1,3.4-1.1c1,0,1.5,0,1.6,0C36.8,385.8,36.9,385.7,36.9,385.6z
		 M36.9,393.2c0-0.9-0.2-1.6-0.6-2.1c-0.4-0.6-1-0.8-1.7-0.8c-0.8,0-1.4,0.3-1.8,0.9s-0.6,1.4-0.6,2.3c0,1,0.2,1.7,0.7,2.2
		c0.5,0.5,1,0.8,1.7,0.8c0.7,0,1.3-0.3,1.7-0.9C36.7,394.9,36.9,394.1,36.9,393.2z"/>
	<path class="st5" d="M45.1,396.3c-0.5,0.4-1,0.8-1.5,0.9c-0.5,0.2-1,0.3-1.6,0.3c-0.9,0-1.6-0.2-2.1-0.7c-0.5-0.4-0.7-1-0.7-1.7
		c0-0.4,0.1-0.8,0.3-1.1c0.2-0.3,0.4-0.6,0.7-0.8c0.3-0.2,0.6-0.4,1-0.5c0.3-0.1,0.7-0.1,1.3-0.2c1.1-0.1,2-0.3,2.5-0.5
		c0-0.2,0-0.3,0-0.4c0-0.6-0.1-1-0.4-1.2c-0.4-0.3-0.9-0.5-1.6-0.5c-0.7,0-1.1,0.1-1.5,0.3c-0.3,0.2-0.5,0.6-0.7,1.2l-1.4-0.2
		c0.1-0.6,0.3-1.1,0.6-1.4c0.3-0.4,0.7-0.6,1.2-0.8c0.5-0.2,1.2-0.3,1.9-0.3c0.7,0,1.3,0.1,1.7,0.3c0.4,0.2,0.8,0.4,1,0.6
		c0.2,0.3,0.4,0.6,0.4,1c0,0.2,0.1,0.7,0.1,1.3v1.9c0,1.3,0,2.1,0.1,2.5c0.1,0.3,0.2,0.7,0.4,1h-1.5C45.2,397,45.1,396.7,45.1,396.3
		z M45,393.2c-0.5,0.2-1.3,0.4-2.3,0.5c-0.6,0.1-1,0.2-1.2,0.3c-0.2,0.1-0.4,0.3-0.6,0.5c-0.1,0.2-0.2,0.4-0.2,0.7
		c0,0.4,0.1,0.7,0.4,0.9c0.3,0.3,0.7,0.4,1.2,0.4c0.5,0,1-0.1,1.4-0.4s0.7-0.6,0.9-1c0.2-0.3,0.2-0.8,0.2-1.4V393.2z"/>
	<path class="st5" d="M49.2,389h6.5v8.3h-1.4v-7.1h-3.7v4.1c0,1,0,1.6-0.1,1.9s-0.2,0.6-0.5,0.8s-0.7,0.3-1.2,0.3
		c-0.3,0-0.7,0-1.1-0.1v-1.2h0.6c0.3,0,0.5,0,0.6-0.1s0.2-0.2,0.3-0.3c0-0.1,0.1-0.6,0.1-1.3V389z"/>
	<path class="st5" d="M57.9,389h1.4v3.2h1.8c1.2,0,2.1,0.2,2.7,0.7c0.6,0.5,0.9,1.1,0.9,1.9c0,0.7-0.3,1.3-0.8,1.8s-1.4,0.7-2.5,0.7
		h-3.5V389z M59.3,396.2h1.5c0.9,0,1.5-0.1,1.9-0.3c0.4-0.2,0.6-0.6,0.6-1c0-0.4-0.1-0.7-0.4-1s-0.9-0.4-1.9-0.4h-1.7V396.2z"/>
	<path class="st5" d="M66.2,389h1.4v3.5h3.9V389H73v8.3h-1.4v-3.7h-3.9v3.7h-1.4V389z"/>
	<path class="st5" d="M80.5,396.3c-0.5,0.4-1,0.8-1.5,0.9c-0.5,0.2-1,0.3-1.6,0.3c-0.9,0-1.6-0.2-2.1-0.7c-0.5-0.4-0.7-1-0.7-1.7
		c0-0.4,0.1-0.8,0.3-1.1c0.2-0.3,0.4-0.6,0.7-0.8c0.3-0.2,0.6-0.4,1-0.5c0.3-0.1,0.7-0.1,1.3-0.2c1.1-0.1,2-0.3,2.5-0.5
		c0-0.2,0-0.3,0-0.4c0-0.6-0.1-1-0.4-1.2c-0.4-0.3-0.9-0.5-1.6-0.5c-0.7,0-1.1,0.1-1.5,0.3c-0.3,0.2-0.5,0.6-0.7,1.2l-1.4-0.2
		c0.1-0.6,0.3-1.1,0.6-1.4c0.3-0.4,0.7-0.6,1.2-0.8c0.5-0.2,1.2-0.3,1.9-0.3c0.7,0,1.3,0.1,1.7,0.3c0.4,0.2,0.8,0.4,1,0.6
		c0.2,0.3,0.4,0.6,0.4,1c0,0.2,0.1,0.7,0.1,1.3v1.9c0,1.3,0,2.1,0.1,2.5c0.1,0.3,0.2,0.7,0.4,1h-1.5C80.6,397,80.5,396.7,80.5,396.3
		z M80.4,393.2c-0.5,0.2-1.3,0.4-2.3,0.5c-0.6,0.1-1,0.2-1.2,0.3c-0.2,0.1-0.4,0.3-0.6,0.5c-0.1,0.2-0.2,0.4-0.2,0.7
		c0,0.4,0.1,0.7,0.4,0.9c0.3,0.3,0.7,0.4,1.2,0.4c0.5,0,1-0.1,1.4-0.4s0.7-0.6,0.9-1c0.2-0.3,0.2-0.8,0.2-1.4V393.2z"/>
	<path class="st5" d="M90.5,389v8.3h-1.4v-3.2h-0.8c-0.5,0-0.9,0.1-1.1,0.2s-0.6,0.5-1.1,1.2l-1.2,1.8h-1.7l1.5-2.2
		c0.5-0.7,0.9-1.1,1.4-1.2c-0.8-0.1-1.4-0.4-1.8-0.9c-0.4-0.5-0.6-1-0.6-1.6c0-0.7,0.3-1.3,0.8-1.8s1.2-0.7,2.2-0.7H90.5z
		 M89.1,390.2h-2c-0.8,0-1.4,0.1-1.6,0.4s-0.4,0.6-0.4,0.9c0,0.5,0.2,0.9,0.5,1.1c0.4,0.2,1,0.3,1.9,0.3h1.6V390.2z"/>
	<path class="st5" d="M96.3,389h6.7v1.2h-2.7v7.1H99v-7.1h-2.7V389z"/>
	<path class="st5" d="M103.7,393.2c0-1.5,0.4-2.7,1.3-3.4c0.7-0.6,1.6-0.9,2.6-0.9c1.1,0,2.1,0.4,2.8,1.1c0.7,0.7,1.1,1.8,1.1,3.1
		c0,1.1-0.2,1.9-0.5,2.5s-0.8,1.1-1.4,1.4c-0.6,0.3-1.3,0.5-2,0.5c-1.2,0-2.1-0.4-2.8-1.1C104.1,395.7,103.7,394.6,103.7,393.2z
		 M105.1,393.2c0,1.1,0.2,1.9,0.7,2.4c0.5,0.5,1,0.8,1.8,0.8c0.7,0,1.3-0.3,1.7-0.8c0.5-0.5,0.7-1.3,0.7-2.4c0-1-0.2-1.8-0.7-2.3
		c-0.5-0.5-1-0.8-1.7-0.8c-0.7,0-1.3,0.3-1.8,0.8C105.4,391.3,105.1,392.1,105.1,393.2z"/>
	<path class="st5" d="M113.1,400.5V389h1.3v1.1c0.3-0.4,0.6-0.7,1-0.9c0.4-0.2,0.8-0.3,1.4-0.3c0.7,0,1.3,0.2,1.9,0.5
		c0.5,0.4,1,0.9,1.2,1.5c0.3,0.7,0.4,1.4,0.4,2.2c0,0.8-0.2,1.6-0.5,2.3s-0.7,1.2-1.3,1.6c-0.6,0.4-1.2,0.5-1.8,0.5
		c-0.5,0-0.9-0.1-1.3-0.3c-0.4-0.2-0.7-0.4-0.9-0.8v4H113.1z M114.4,393.2c0,1.1,0.2,1.9,0.6,2.4c0.4,0.5,1,0.8,1.6,0.8
		c0.6,0,1.2-0.3,1.6-0.8s0.7-1.3,0.7-2.5c0-1.1-0.2-1.8-0.7-2.4c-0.4-0.5-1-0.8-1.6-0.8c-0.6,0-1.1,0.3-1.6,0.8
		S114.4,392.2,114.4,393.2z"/>
	<path class="st5" d="M122,389h4.8v1.2h-3.4v7.1H122V389z"/>
	<path class="st5" d="M127,393.2c0-1.5,0.4-2.7,1.3-3.4c0.7-0.6,1.6-0.9,2.6-0.9c1.1,0,2.1,0.4,2.8,1.1c0.7,0.7,1.1,1.8,1.1,3.1
		c0,1.1-0.2,1.9-0.5,2.5s-0.8,1.1-1.4,1.4c-0.6,0.3-1.3,0.5-2,0.5c-1.2,0-2.1-0.4-2.8-1.1C127.3,395.7,127,394.6,127,393.2z
		 M128.4,393.2c0,1.1,0.2,1.9,0.7,2.4c0.5,0.5,1,0.8,1.8,0.8c0.7,0,1.3-0.3,1.7-0.8c0.5-0.5,0.7-1.3,0.7-2.4c0-1-0.2-1.8-0.7-2.3
		c-0.5-0.5-1-0.8-1.7-0.8c-0.7,0-1.3,0.3-1.8,0.8C128.7,391.3,128.4,392.1,128.4,393.2z"/>
	<path class="st5" d="M136.4,389h3.2c0.8,0,1.4,0.1,1.8,0.2c0.4,0.1,0.7,0.4,1,0.7c0.3,0.4,0.4,0.8,0.4,1.3c0,0.4-0.1,0.7-0.2,1
		s-0.4,0.5-0.7,0.7c0.4,0.1,0.7,0.4,1,0.7s0.4,0.8,0.4,1.3c-0.1,0.8-0.3,1.4-0.8,1.8c-0.5,0.4-1.3,0.6-2.2,0.6h-3.7V389z
		 M137.8,392.5h1.5c0.6,0,1,0,1.2-0.1c0.2-0.1,0.4-0.2,0.6-0.4c0.2-0.2,0.3-0.4,0.3-0.7c0-0.4-0.2-0.7-0.5-0.9
		c-0.3-0.2-0.8-0.3-1.6-0.3h-1.5V392.5z M137.8,396.2h1.9c0.8,0,1.3-0.1,1.6-0.3s0.5-0.5,0.5-1c0-0.3-0.1-0.5-0.3-0.7
		s-0.4-0.4-0.7-0.4c-0.3-0.1-0.7-0.1-1.3-0.1h-1.7V396.2z"/>
	<path class="st5" d="M150.1,396.3c-0.5,0.4-1,0.8-1.5,0.9c-0.5,0.2-1,0.3-1.6,0.3c-0.9,0-1.6-0.2-2.1-0.7c-0.5-0.4-0.7-1-0.7-1.7
		c0-0.4,0.1-0.8,0.3-1.1c0.2-0.3,0.4-0.6,0.7-0.8c0.3-0.2,0.6-0.4,1-0.5c0.3-0.1,0.7-0.1,1.3-0.2c1.1-0.1,2-0.3,2.5-0.5
		c0-0.2,0-0.3,0-0.4c0-0.6-0.1-1-0.4-1.2c-0.4-0.3-0.9-0.5-1.6-0.5c-0.7,0-1.1,0.1-1.5,0.3c-0.3,0.2-0.5,0.6-0.7,1.2l-1.4-0.2
		c0.1-0.6,0.3-1.1,0.6-1.4c0.3-0.4,0.7-0.6,1.2-0.8c0.5-0.2,1.2-0.3,1.9-0.3c0.7,0,1.3,0.1,1.7,0.3c0.4,0.2,0.8,0.4,1,0.6
		c0.2,0.3,0.4,0.6,0.4,1c0,0.2,0.1,0.7,0.1,1.3v1.9c0,1.3,0,2.1,0.1,2.5c0.1,0.3,0.2,0.7,0.4,1h-1.5
		C150.3,397,150.2,396.7,150.1,396.3z M150,393.2c-0.5,0.2-1.3,0.4-2.3,0.5c-0.6,0.1-1,0.2-1.2,0.3c-0.2,0.1-0.4,0.3-0.6,0.5
		c-0.1,0.2-0.2,0.4-0.2,0.7c0,0.4,0.1,0.7,0.4,0.9c0.3,0.3,0.7,0.4,1.2,0.4c0.5,0,1-0.1,1.4-0.4s0.7-0.6,0.9-1
		c0.2-0.3,0.2-0.8,0.2-1.4V393.2z"/>
	<path class="st5" d="M160.2,389v8.3h-1.4v-3.2h-0.8c-0.5,0-0.9,0.1-1.1,0.2s-0.6,0.5-1.1,1.2l-1.2,1.8h-1.7l1.5-2.2
		c0.5-0.7,0.9-1.1,1.4-1.2c-0.8-0.1-1.4-0.4-1.8-0.9c-0.4-0.5-0.6-1-0.6-1.6c0-0.7,0.3-1.3,0.8-1.8s1.2-0.7,2.2-0.7H160.2z
		 M158.8,390.2h-2c-0.8,0-1.4,0.1-1.6,0.4s-0.4,0.6-0.4,0.9c0,0.5,0.2,0.9,0.5,1.1c0.4,0.2,1,0.3,1.9,0.3h1.6V390.2z"/>
	<path class="st5" d="M166.7,389h6.5v8.3h-1.4v-7.1h-3.7v7.1h-1.4V389z"/>
	<path class="st5" d="M176.1,389h6.5v8.3h-1.4v-7.1h-3.7v4.1c0,1,0,1.6-0.1,1.9s-0.2,0.6-0.5,0.8s-0.7,0.3-1.2,0.3
		c-0.3,0-0.7,0-1.1-0.1v-1.2h0.6c0.3,0,0.5,0,0.6-0.1s0.2-0.2,0.3-0.3c0-0.1,0.1-0.6,0.1-1.3V389z"/>
	<path class="st5" d="M190.1,396.3c-0.5,0.4-1,0.8-1.5,0.9c-0.5,0.2-1,0.3-1.6,0.3c-0.9,0-1.6-0.2-2.1-0.7c-0.5-0.4-0.7-1-0.7-1.7
		c0-0.4,0.1-0.8,0.3-1.1c0.2-0.3,0.4-0.6,0.7-0.8c0.3-0.2,0.6-0.4,1-0.5c0.3-0.1,0.7-0.1,1.3-0.2c1.1-0.1,2-0.3,2.5-0.5
		c0-0.2,0-0.3,0-0.4c0-0.6-0.1-1-0.4-1.2c-0.4-0.3-0.9-0.5-1.6-0.5c-0.7,0-1.1,0.1-1.5,0.3c-0.3,0.2-0.5,0.6-0.7,1.2l-1.4-0.2
		c0.1-0.6,0.3-1.1,0.6-1.4c0.3-0.4,0.7-0.6,1.2-0.8c0.5-0.2,1.2-0.3,1.9-0.3c0.7,0,1.3,0.1,1.7,0.3c0.4,0.2,0.8,0.4,1,0.6
		c0.2,0.3,0.4,0.6,0.4,1c0,0.2,0.1,0.7,0.1,1.3v1.9c0,1.3,0,2.1,0.1,2.5c0.1,0.3,0.2,0.7,0.4,1h-1.5
		C190.3,397,190.2,396.7,190.1,396.3z M190,393.2c-0.5,0.2-1.3,0.4-2.3,0.5c-0.6,0.1-1,0.2-1.2,0.3c-0.2,0.1-0.4,0.3-0.6,0.5
		c-0.1,0.2-0.2,0.4-0.2,0.7c0,0.4,0.1,0.7,0.4,0.9c0.3,0.3,0.7,0.4,1.2,0.4c0.5,0,1-0.1,1.4-0.4s0.7-0.6,0.9-1
		c0.2-0.3,0.2-0.8,0.2-1.4V393.2z"/>
	<path class="st5" d="M192.5,389h6.7v1.2h-2.7v7.1h-1.4v-7.1h-2.7V389z"/>
	<path class="st5" d="M205.4,385.9h1.4v4c0.3-0.3,0.6-0.6,1-0.7c0.3-0.2,0.7-0.2,1.1-0.2c1,0,1.8,0.4,2.3,1.2
		c0.6,0.8,0.9,1.9,0.9,3.1c0,1.3-0.3,2.3-0.9,3.1c-0.6,0.8-1.4,1.2-2.3,1.2c-0.3,0-0.6,0-0.9-0.1s-0.7-0.3-1.1-0.8v3.9h-1.4v-3.9
		c-0.3,0.3-0.6,0.5-0.9,0.7c-0.3,0.2-0.7,0.2-1.1,0.2c-0.9,0-1.6-0.4-2.3-1.1c-0.7-0.8-1-1.9-1-3.3c0-1.2,0.3-2.2,0.9-3
		c0.6-0.8,1.4-1.2,2.4-1.2c0.4,0,0.8,0.1,1.1,0.2c0.3,0.2,0.6,0.4,0.9,0.7V385.9z M201.6,393.1c0,1.2,0.2,2,0.6,2.5
		c0.4,0.5,0.9,0.8,1.5,0.8c0.6,0,1.1-0.3,1.4-0.8c0.3-0.5,0.5-1.3,0.5-2.3c0-1.1-0.2-1.9-0.5-2.5c-0.3-0.5-0.8-0.8-1.4-0.8
		c-0.6,0-1,0.3-1.4,0.8C201.8,391.3,201.6,392.1,201.6,393.1z M206.8,393.2c0,1.3,0.2,2.1,0.5,2.5s0.8,0.6,1.3,0.6
		c0.6,0,1.1-0.3,1.5-0.8c0.4-0.5,0.6-1.4,0.6-2.5c0-1.1-0.2-1.8-0.6-2.4c-0.4-0.5-0.9-0.8-1.4-0.8c-0.6,0-1.1,0.3-1.4,0.8
		C207,391.3,206.8,392.1,206.8,393.2z"/>
	<path class="st5" d="M213.2,393.2c0-1.5,0.4-2.7,1.3-3.4c0.7-0.6,1.6-0.9,2.6-0.9c1.1,0,2.1,0.4,2.8,1.1c0.7,0.7,1.1,1.8,1.1,3.1
		c0,1.1-0.2,1.9-0.5,2.5s-0.8,1.1-1.4,1.4c-0.6,0.3-1.3,0.5-2,0.5c-1.2,0-2.1-0.4-2.8-1.1C213.6,395.7,213.2,394.6,213.2,393.2z
		 M214.7,393.2c0,1.1,0.2,1.9,0.7,2.4c0.5,0.5,1,0.8,1.8,0.8c0.7,0,1.3-0.3,1.7-0.8c0.5-0.5,0.7-1.3,0.7-2.4c0-1-0.2-1.8-0.7-2.3
		c-0.5-0.5-1-0.8-1.7-0.8c-0.7,0-1.3,0.3-1.8,0.8C214.9,391.3,214.7,392.1,214.7,393.2z"/>
	<path class="st5" d="M222.7,400.5V389h1.3v1.1c0.3-0.4,0.6-0.7,1-0.9c0.4-0.2,0.8-0.3,1.4-0.3c0.7,0,1.3,0.2,1.9,0.5
		c0.5,0.4,1,0.9,1.2,1.5c0.3,0.7,0.4,1.4,0.4,2.2c0,0.8-0.2,1.6-0.5,2.3s-0.7,1.2-1.3,1.6c-0.6,0.4-1.2,0.5-1.8,0.5
		c-0.5,0-0.9-0.1-1.3-0.3c-0.4-0.2-0.7-0.4-0.9-0.8v4H222.7z M223.9,393.2c0,1.1,0.2,1.9,0.6,2.4c0.4,0.5,1,0.8,1.6,0.8
		c0.6,0,1.2-0.3,1.6-0.8s0.7-1.3,0.7-2.5c0-1.1-0.2-1.8-0.7-2.4c-0.4-0.5-1-0.8-1.6-0.8c-0.6,0-1.1,0.3-1.6,0.8
		S223.9,392.2,223.9,393.2z"/>
	<path class="st5" d="M231.6,389h2.2l2.2,6.6l2.4-6.6h2v8.3H239v-6.7l-2.5,6.7h-1.3l-2.3-7v7h-1.4V389z"/>
	<path class="st5" d="M248,396.3c-0.5,0.4-1,0.8-1.5,0.9c-0.5,0.2-1,0.3-1.6,0.3c-0.9,0-1.6-0.2-2.1-0.7c-0.5-0.4-0.7-1-0.7-1.7
		c0-0.4,0.1-0.8,0.3-1.1c0.2-0.3,0.4-0.6,0.7-0.8c0.3-0.2,0.6-0.4,1-0.5c0.3-0.1,0.7-0.1,1.3-0.2c1.1-0.1,2-0.3,2.5-0.5
		c0-0.2,0-0.3,0-0.4c0-0.6-0.1-1-0.4-1.2c-0.4-0.3-0.9-0.5-1.6-0.5c-0.7,0-1.1,0.1-1.5,0.3c-0.3,0.2-0.5,0.6-0.7,1.2l-1.4-0.2
		c0.1-0.6,0.3-1.1,0.6-1.4c0.3-0.4,0.7-0.6,1.2-0.8c0.5-0.2,1.2-0.3,1.9-0.3c0.7,0,1.3,0.1,1.7,0.3c0.4,0.2,0.8,0.4,1,0.6
		c0.2,0.3,0.4,0.6,0.4,1c0,0.2,0.1,0.7,0.1,1.3v1.9c0,1.3,0,2.1,0.1,2.5c0.1,0.3,0.2,0.7,0.4,1h-1.5C248.1,397,248,396.7,248,396.3z
		 M247.9,393.2c-0.5,0.2-1.3,0.4-2.3,0.5c-0.6,0.1-1,0.2-1.2,0.3c-0.2,0.1-0.4,0.3-0.6,0.5c-0.1,0.2-0.2,0.4-0.2,0.7
		c0,0.4,0.1,0.7,0.4,0.9c0.3,0.3,0.7,0.4,1.2,0.4c0.5,0,1-0.1,1.4-0.4s0.7-0.6,0.9-1c0.2-0.3,0.2-0.8,0.2-1.4V393.2z"/>
</g>
<g class="st4">
	<path class="st5" d="M29.9,147.3h1.4v9.1l6.1-9.1h1.5v11.5h-1.4v-9l-6.1,9h-1.5V147.3z"/>
	<path class="st5" d="M41.2,150.5h1.4v3.5h3.9v-3.5h1.4v8.3h-1.4v-3.7h-3.9v3.7h-1.4V150.5z"/>
	<path class="st5" d="M50,150.5h3.2c0.8,0,1.4,0.1,1.8,0.2c0.4,0.1,0.7,0.4,1,0.7c0.3,0.4,0.4,0.8,0.4,1.3c0,0.4-0.1,0.7-0.2,1
		s-0.4,0.5-0.7,0.7c0.4,0.1,0.7,0.4,1,0.7s0.4,0.8,0.4,1.3c-0.1,0.8-0.3,1.4-0.8,1.8c-0.5,0.4-1.3,0.6-2.2,0.6H50V150.5z M51.4,154
		h1.5c0.6,0,1,0,1.2-0.1c0.2-0.1,0.4-0.2,0.6-0.4c0.2-0.2,0.3-0.4,0.3-0.7c0-0.4-0.2-0.7-0.5-0.9c-0.3-0.2-0.8-0.3-1.6-0.3h-1.5V154
		z M51.4,157.6h1.9c0.8,0,1.3-0.1,1.6-0.3s0.5-0.5,0.5-1c0-0.3-0.1-0.5-0.3-0.7s-0.4-0.4-0.7-0.4c-0.3-0.1-0.7-0.1-1.3-0.1h-1.7
		V157.6z"/>
	<path class="st5" d="M64,156.1l1.5,0.2c-0.2,0.8-0.7,1.5-1.3,2c-0.6,0.5-1.4,0.7-2.4,0.7c-1.2,0-2.2-0.4-2.9-1.1s-1.1-1.8-1.1-3.1
		c0-1.4,0.4-2.5,1.1-3.3s1.7-1.2,2.8-1.2c1.1,0,2,0.4,2.7,1.1s1.1,1.8,1.1,3.2c0,0.1,0,0.2,0,0.4h-6.2c0.1,0.9,0.3,1.6,0.8,2.1
		c0.5,0.5,1,0.7,1.7,0.7c0.5,0,1-0.1,1.3-0.4C63.5,157.2,63.8,156.7,64,156.1z M59.4,153.9H64c-0.1-0.7-0.2-1.2-0.5-1.6
		c-0.4-0.5-1-0.8-1.7-0.8c-0.6,0-1.2,0.2-1.6,0.6C59.7,152.6,59.4,153.1,59.4,153.9z"/>
	<path class="st5" d="M72.6,155.8l1.4,0.2c-0.2,1-0.5,1.7-1.2,2.2c-0.6,0.5-1.4,0.8-2.3,0.8c-1.1,0-2-0.4-2.7-1.1
		c-0.7-0.7-1-1.8-1-3.2c0-0.9,0.1-1.7,0.4-2.4s0.7-1.2,1.4-1.5c0.6-0.3,1.3-0.5,2-0.5c0.9,0,1.6,0.2,2.2,0.7
		c0.6,0.5,0.9,1.1,1.1,1.9l-1.4,0.2c-0.1-0.6-0.4-1-0.7-1.3c-0.3-0.3-0.7-0.4-1.2-0.4c-0.7,0-1.3,0.3-1.7,0.8
		c-0.4,0.5-0.7,1.3-0.7,2.4c0,1.1,0.2,1.9,0.6,2.4c0.4,0.5,1,0.8,1.7,0.8c0.6,0,1-0.2,1.4-0.5C72.3,157,72.5,156.5,72.6,155.8z"/>
	<path class="st5" d="M74.5,150.5h6.7v1.2h-2.7v7.1h-1.4v-7.1h-2.7V150.5z"/>
	<path class="st5" d="M81.8,154.7c0-1.5,0.4-2.7,1.3-3.4c0.7-0.6,1.6-0.9,2.6-0.9c1.1,0,2.1,0.4,2.8,1.1c0.7,0.7,1.1,1.8,1.1,3.1
		c0,1.1-0.2,1.9-0.5,2.5s-0.8,1.1-1.4,1.4c-0.6,0.3-1.3,0.5-2,0.5c-1.2,0-2.1-0.4-2.8-1.1C82.2,157.1,81.8,156.1,81.8,154.7z
		 M83.3,154.7c0,1.1,0.2,1.9,0.7,2.4c0.5,0.5,1,0.8,1.8,0.8c0.7,0,1.3-0.3,1.7-0.8c0.5-0.5,0.7-1.3,0.7-2.4c0-1-0.2-1.8-0.7-2.3
		c-0.5-0.5-1-0.8-1.7-0.8c-0.7,0-1.3,0.3-1.8,0.8C83.5,152.8,83.3,153.6,83.3,154.7z"/>
	<path class="st5" d="M91.3,162v-11.5h1.3v1.1c0.3-0.4,0.6-0.7,1-0.9c0.4-0.2,0.8-0.3,1.4-0.3c0.7,0,1.3,0.2,1.9,0.5
		c0.5,0.4,1,0.9,1.2,1.5c0.3,0.7,0.4,1.4,0.4,2.2c0,0.8-0.2,1.6-0.5,2.3s-0.7,1.2-1.3,1.6c-0.6,0.4-1.2,0.5-1.8,0.5
		c-0.5,0-0.9-0.1-1.3-0.3c-0.4-0.2-0.7-0.4-0.9-0.8v4H91.3z M92.5,154.7c0,1.1,0.2,1.9,0.6,2.4c0.4,0.5,1,0.8,1.6,0.8
		c0.6,0,1.2-0.3,1.6-0.8s0.7-1.3,0.7-2.5c0-1.1-0.2-1.8-0.7-2.4c-0.4-0.5-1-0.8-1.6-0.8c-0.6,0-1.1,0.3-1.6,0.8
		S92.5,153.6,92.5,154.7z"/>
</g>
<g class="st4">
	<path class="st5" d="M95.4,58.8V47.3h4.3c0.8,0,1.3,0,1.7,0.1c0.6,0.1,1,0.3,1.4,0.5c0.4,0.3,0.7,0.6,0.9,1.1
		c0.2,0.5,0.3,1,0.3,1.6c0,1-0.3,1.8-0.9,2.5c-0.6,0.7-1.7,1-3.4,1h-2.9v4.7H95.4z M96.9,52.7h3c1,0,1.7-0.2,2.1-0.5
		c0.4-0.4,0.6-0.9,0.6-1.5c0-0.5-0.1-0.9-0.4-1.2s-0.6-0.6-1-0.7c-0.3-0.1-0.7-0.1-1.4-0.1h-2.9V52.7z"/>
	<path class="st5" d="M110.7,57.7c-0.5,0.4-1,0.8-1.5,0.9c-0.5,0.2-1,0.3-1.6,0.3c-0.9,0-1.6-0.2-2.1-0.7c-0.5-0.4-0.7-1-0.7-1.7
		c0-0.4,0.1-0.8,0.3-1.1c0.2-0.3,0.4-0.6,0.7-0.8c0.3-0.2,0.6-0.4,1-0.5c0.3-0.1,0.7-0.1,1.3-0.2c1.1-0.1,2-0.3,2.5-0.5
		c0-0.2,0-0.3,0-0.4c0-0.6-0.1-1-0.4-1.2c-0.4-0.3-0.9-0.5-1.6-0.5c-0.7,0-1.1,0.1-1.5,0.3c-0.3,0.2-0.5,0.6-0.7,1.2l-1.4-0.2
		c0.1-0.6,0.3-1.1,0.6-1.4c0.3-0.4,0.7-0.6,1.2-0.8c0.5-0.2,1.2-0.3,1.9-0.3c0.7,0,1.3,0.1,1.7,0.3c0.4,0.2,0.8,0.4,1,0.6
		c0.2,0.3,0.4,0.6,0.4,1c0,0.2,0.1,0.7,0.1,1.3v1.9c0,1.3,0,2.1,0.1,2.5c0.1,0.3,0.2,0.7,0.4,1H111
		C110.9,58.5,110.8,58.1,110.7,57.7z M110.6,54.6c-0.5,0.2-1.3,0.4-2.3,0.5c-0.6,0.1-1,0.2-1.2,0.3c-0.2,0.1-0.4,0.3-0.6,0.5
		c-0.1,0.2-0.2,0.4-0.2,0.7c0,0.4,0.1,0.7,0.4,0.9c0.3,0.3,0.7,0.4,1.2,0.4c0.5,0,1-0.1,1.4-0.4s0.7-0.6,0.9-1
		c0.2-0.3,0.2-0.8,0.2-1.4V54.6z"/>
	<path class="st5" d="M119.6,55.7l1.4,0.2c-0.2,1-0.5,1.7-1.2,2.2c-0.6,0.5-1.4,0.8-2.3,0.8c-1.1,0-2-0.4-2.7-1.1
		c-0.7-0.7-1-1.8-1-3.2c0-0.9,0.1-1.7,0.4-2.4s0.7-1.2,1.4-1.5c0.6-0.3,1.3-0.5,2-0.5c0.9,0,1.6,0.2,2.2,0.7
		c0.6,0.5,0.9,1.1,1.1,1.9l-1.4,0.2c-0.1-0.6-0.4-1-0.7-1.3c-0.3-0.3-0.7-0.4-1.2-0.4c-0.7,0-1.3,0.3-1.7,0.8
		c-0.4,0.5-0.7,1.3-0.7,2.4c0,1.1,0.2,1.9,0.6,2.4c0.4,0.5,1,0.8,1.7,0.8c0.6,0,1-0.2,1.4-0.5C119.3,56.9,119.5,56.4,119.6,55.7z"/>
	<path class="st5" d="M122.2,50.5h6.5v8.3h-1.4v-7.1h-3.7v7.1h-1.4V50.5z"/>
	<path class="st5" d="M130.9,61.9V50.5h1.3v1.1c0.3-0.4,0.6-0.7,1-0.9c0.4-0.2,0.8-0.3,1.4-0.3c0.7,0,1.3,0.2,1.9,0.5
		c0.5,0.4,1,0.9,1.2,1.5c0.3,0.7,0.4,1.4,0.4,2.2c0,0.8-0.2,1.6-0.5,2.3s-0.7,1.2-1.3,1.6c-0.6,0.4-1.2,0.5-1.8,0.5
		c-0.5,0-0.9-0.1-1.3-0.3c-0.4-0.2-0.7-0.4-0.9-0.8v4H130.9z M132.2,54.6c0,1.1,0.2,1.9,0.6,2.4c0.4,0.5,1,0.8,1.6,0.8
		c0.6,0,1.2-0.3,1.6-0.8s0.7-1.3,0.7-2.5c0-1.1-0.2-1.8-0.7-2.4c-0.4-0.5-1-0.8-1.6-0.8c-0.6,0-1.1,0.3-1.6,0.8
		S132.2,53.6,132.2,54.6z"/>
	<path class="st5" d="M145.5,56.1l1.5,0.2c-0.2,0.8-0.7,1.5-1.3,2c-0.6,0.5-1.4,0.7-2.4,0.7c-1.2,0-2.2-0.4-2.9-1.1
		s-1.1-1.8-1.1-3.1c0-1.4,0.4-2.5,1.1-3.3s1.7-1.2,2.8-1.2c1.1,0,2,0.4,2.7,1.1s1.1,1.8,1.1,3.2c0,0.1,0,0.2,0,0.4h-6.2
		c0.1,0.9,0.3,1.6,0.8,2.1c0.5,0.5,1,0.7,1.7,0.7c0.5,0,1-0.1,1.3-0.4C145,57.1,145.3,56.7,145.5,56.1z M140.9,53.8h4.6
		c-0.1-0.7-0.2-1.2-0.5-1.6c-0.4-0.5-1-0.8-1.7-0.8c-0.6,0-1.2,0.2-1.6,0.6C141.1,52.5,140.9,53.1,140.9,53.8z"/>
	<path class="st5" d="M149.5,50.5h5.8v7.1h0.9v3.5H155v-2.4h-6.5v2.4h-1.2v-3.5h0.7C149,56.3,149.5,53.9,149.5,50.5z M150.6,51.6
		c-0.1,2.7-0.5,4.7-1.3,6h4.5v-6H150.6z"/>
	<path class="st5" d="M163.4,56.1l1.5,0.2c-0.2,0.8-0.7,1.5-1.3,2c-0.6,0.5-1.4,0.7-2.4,0.7c-1.2,0-2.2-0.4-2.9-1.1
		s-1.1-1.8-1.1-3.1c0-1.4,0.4-2.5,1.1-3.3s1.7-1.2,2.8-1.2c1.1,0,2,0.4,2.7,1.1s1.1,1.8,1.1,3.2c0,0.1,0,0.2,0,0.4h-6.2
		c0.1,0.9,0.3,1.6,0.8,2.1c0.5,0.5,1,0.7,1.7,0.7c0.5,0,1-0.1,1.3-0.4C162.9,57.1,163.1,56.7,163.4,56.1z M158.7,53.8h4.6
		c-0.1-0.7-0.2-1.2-0.5-1.6c-0.4-0.5-1-0.8-1.7-0.8c-0.6,0-1.2,0.2-1.6,0.6C159,52.5,158.8,53.1,158.7,53.8z"/>
	<path class="st5" d="M166.7,50.5h6.5v8.3h-1.4v-7.1h-3.7v4.1c0,1,0,1.6-0.1,1.9s-0.2,0.6-0.5,0.8s-0.7,0.3-1.2,0.3
		c-0.3,0-0.7,0-1.1-0.1v-1.2h0.6c0.3,0,0.5,0,0.6-0.1s0.2-0.2,0.3-0.3c0-0.1,0.1-0.6,0.1-1.3V50.5z"/>
	<path class="st5" d="M181.1,56.1l1.5,0.2c-0.2,0.8-0.7,1.5-1.3,2c-0.6,0.5-1.4,0.7-2.4,0.7c-1.2,0-2.2-0.4-2.9-1.1
		s-1.1-1.8-1.1-3.1c0-1.4,0.4-2.5,1.1-3.3s1.7-1.2,2.8-1.2c1.1,0,2,0.4,2.7,1.1s1.1,1.8,1.1,3.2c0,0.1,0,0.2,0,0.4h-6.2
		c0.1,0.9,0.3,1.6,0.8,2.1c0.5,0.5,1,0.7,1.7,0.7c0.5,0,1-0.1,1.3-0.4C180.6,57.1,180.8,56.7,181.1,56.1z M176.4,53.8h4.6
		c-0.1-0.7-0.2-1.2-0.5-1.6c-0.4-0.5-1-0.8-1.7-0.8c-0.6,0-1.2,0.2-1.6,0.6C176.7,52.5,176.5,53.1,176.4,53.8z"/>
	<path class="st5" d="M184.3,50.5h1.4v3.5h3.9v-3.5h1.4v8.3h-1.4v-3.7h-3.9v3.7h-1.4V50.5z"/>
	<path class="st5" d="M193.1,50.5h1.4v3.5h3.9v-3.5h1.4v8.3h-1.4v-3.7h-3.9v3.7h-1.4V50.5z"/>
	<path class="st5" d="M202,50.5h1.4v3.2h1.8c1.2,0,2.1,0.2,2.7,0.7c0.6,0.5,0.9,1.1,0.9,1.9c0,0.7-0.3,1.3-0.8,1.8s-1.4,0.7-2.5,0.7
		H202V50.5z M203.4,57.6h1.5c0.9,0,1.5-0.1,1.9-0.3c0.4-0.2,0.6-0.6,0.6-1c0-0.4-0.1-0.7-0.4-1s-0.9-0.4-1.9-0.4h-1.7V57.6z
		 M209.8,50.5h1.4v8.3h-1.4V50.5z"/>
	<path class="st5" d="M213.5,50.5h1.4v6.3l3.9-6.3h1.5v8.3h-1.4v-6.3l-3.9,6.3h-1.5V50.5z M218.3,47.3h1c-0.1,0.7-0.3,1.2-0.7,1.5
		s-0.9,0.5-1.6,0.5c-0.7,0-1.2-0.2-1.6-0.5s-0.6-0.8-0.7-1.5h1c0.1,0.4,0.2,0.6,0.4,0.8c0.2,0.2,0.5,0.3,0.9,0.3
		c0.4,0,0.7-0.1,1-0.3C218.1,47.9,218.3,47.7,218.3,47.3z"/>
	<path class="st5" d="M227.9,50.5h5.8v7.1h0.9v3.5h-1.2v-2.4h-6.5v2.4h-1.2v-3.5h0.7C227.5,56.3,228,53.9,227.9,50.5z M229.1,51.6
		c-0.1,2.7-0.5,4.7-1.3,6h4.5v-6H229.1z"/>
	<path class="st5" d="M236.2,50.5h1.4v6.3l3.9-6.3h1.5v8.3h-1.4v-6.3l-3.9,6.3h-1.5V50.5z"/>
	<path class="st5" d="M245.1,50.5h3.2c0.8,0,1.4,0.1,1.8,0.2c0.4,0.1,0.7,0.4,1,0.7c0.3,0.4,0.4,0.8,0.4,1.3c0,0.4-0.1,0.7-0.2,1
		s-0.4,0.5-0.7,0.7c0.4,0.1,0.7,0.4,1,0.7s0.4,0.8,0.4,1.3c-0.1,0.8-0.3,1.4-0.8,1.8c-0.5,0.4-1.3,0.6-2.2,0.6h-3.7V50.5z
		 M246.5,53.9h1.5c0.6,0,1,0,1.2-0.1c0.2-0.1,0.4-0.2,0.6-0.4c0.2-0.2,0.3-0.4,0.3-0.7c0-0.4-0.2-0.7-0.5-0.9
		c-0.3-0.2-0.8-0.3-1.6-0.3h-1.5V53.9z M246.5,57.6h1.9c0.8,0,1.3-0.1,1.6-0.3s0.5-0.5,0.5-1c0-0.3-0.1-0.5-0.3-0.7
		s-0.4-0.4-0.7-0.4c-0.3-0.1-0.7-0.1-1.3-0.1h-1.7V57.6z"/>
	<path class="st5" d="M253.6,50.5h1.4v6.3l3.9-6.3h1.5v8.3H259v-6.3l-3.9,6.3h-1.5V50.5z"/>
	<path class="st5" d="M263.7,50.5h5.8v7.1h0.9v3.5h-1.2v-2.4h-6.5v2.4h-1.2v-3.5h0.7C263.2,56.3,263.7,53.9,263.7,50.5z M264.8,51.6
		c-0.1,2.7-0.5,4.7-1.3,6h4.5v-6H264.8z"/>
	<path class="st5" d="M277.6,56.1l1.5,0.2c-0.2,0.8-0.7,1.5-1.3,2c-0.6,0.5-1.4,0.7-2.4,0.7c-1.2,0-2.2-0.4-2.9-1.1
		s-1.1-1.8-1.1-3.1c0-1.4,0.4-2.5,1.1-3.3s1.7-1.2,2.8-1.2c1.1,0,2,0.4,2.7,1.1s1.1,1.8,1.1,3.2c0,0.1,0,0.2,0,0.4h-6.2
		c0.1,0.9,0.3,1.6,0.8,2.1c0.5,0.5,1,0.7,1.7,0.7c0.5,0,1-0.1,1.3-0.4C277.1,57.1,277.3,56.7,277.6,56.1z M272.9,53.8h4.6
		c-0.1-0.7-0.2-1.2-0.5-1.6c-0.4-0.5-1-0.8-1.7-0.8c-0.6,0-1.2,0.2-1.6,0.6C273.2,52.5,273,53.1,272.9,53.8z"/>
	<path class="st5" d="M280.8,50.5h1.4v3.5h3.9v-3.5h1.4v8.3h-1.4v-3.7h-3.9v3.7h-1.4V50.5z"/>
	<path class="st5" d="M290.7,50.5h5.8v7.1h0.9v3.5h-1.2v-2.4h-6.5v2.4h-1.2v-3.5h0.7C290.3,56.3,290.8,53.9,290.7,50.5z M291.9,51.6
		c-0.1,2.7-0.5,4.7-1.3,6h4.5v-6H291.9z"/>
	<path class="st5" d="M137.7,69.7h1.4v3.6c0.4,0,0.8-0.1,0.9-0.3s0.4-0.7,0.8-1.5c0.3-0.7,0.5-1.1,0.7-1.3s0.4-0.3,0.6-0.4
		c0.2-0.1,0.6-0.1,1.1-0.1h0.3v1.2l-0.4,0c-0.4,0-0.6,0.1-0.7,0.2c-0.1,0.1-0.3,0.5-0.5,1c-0.2,0.5-0.4,0.9-0.6,1.1
		c-0.2,0.2-0.5,0.4-0.8,0.6c0.6,0.2,1.2,0.7,1.8,1.7l1.5,2.6h-1.5l-1.5-2.6c-0.3-0.5-0.6-0.9-0.8-1c-0.2-0.2-0.5-0.2-0.8-0.2V78
		h-1.4V69.7z"/>
	<path class="st5" d="M150.5,76.9c-0.5,0.4-1,0.8-1.5,0.9c-0.5,0.2-1,0.3-1.6,0.3c-0.9,0-1.6-0.2-2.1-0.7c-0.5-0.4-0.7-1-0.7-1.7
		c0-0.4,0.1-0.8,0.3-1.1c0.2-0.3,0.4-0.6,0.7-0.8c0.3-0.2,0.6-0.4,1-0.5c0.3-0.1,0.7-0.1,1.3-0.2c1.1-0.1,2-0.3,2.5-0.5
		c0-0.2,0-0.3,0-0.4c0-0.6-0.1-1-0.4-1.2c-0.4-0.3-0.9-0.5-1.6-0.5c-0.7,0-1.1,0.1-1.5,0.3c-0.3,0.2-0.5,0.6-0.7,1.2l-1.4-0.2
		c0.1-0.6,0.3-1.1,0.6-1.4c0.3-0.4,0.7-0.6,1.2-0.8c0.5-0.2,1.2-0.3,1.9-0.3c0.7,0,1.3,0.1,1.7,0.3c0.4,0.2,0.8,0.4,1,0.6
		c0.2,0.3,0.4,0.6,0.4,1c0,0.2,0.1,0.7,0.1,1.3v1.9c0,1.3,0,2.1,0.1,2.5c0.1,0.3,0.2,0.7,0.4,1h-1.5
		C150.7,77.7,150.6,77.3,150.5,76.9z M150.4,73.8c-0.5,0.2-1.3,0.4-2.3,0.5c-0.6,0.1-1,0.2-1.2,0.3c-0.2,0.1-0.4,0.3-0.6,0.5
		c-0.1,0.2-0.2,0.4-0.2,0.7c0,0.4,0.1,0.7,0.4,0.9c0.3,0.3,0.7,0.4,1.2,0.4c0.5,0,1-0.1,1.4-0.4s0.7-0.6,0.9-1
		c0.2-0.3,0.2-0.8,0.2-1.4V73.8z"/>
	<path class="st5" d="M159,69.7v3.6c0.4,0,0.8-0.1,0.9-0.3c0.2-0.2,0.4-0.7,0.8-1.5c0.3-0.8,0.6-1.3,0.9-1.5
		c0.3-0.2,0.7-0.3,1.2-0.3h0.5v1.2l-0.4,0c-0.4,0-0.6,0.1-0.7,0.2c-0.1,0.1-0.3,0.5-0.5,1c-0.2,0.5-0.4,0.9-0.6,1.1
		c-0.2,0.2-0.5,0.4-0.8,0.6c0.6,0.2,1.2,0.7,1.8,1.7l1.5,2.6h-1.5l-1.5-2.6c-0.3-0.5-0.6-0.9-0.8-1c-0.2-0.2-0.5-0.2-0.8-0.2V78
		h-1.4v-3.8c-0.3,0-0.6,0.1-0.8,0.2c-0.2,0.2-0.5,0.5-0.8,1l-1.5,2.6h-1.5l1.5-2.6c0.6-1,1.2-1.5,1.8-1.7c-0.4-0.2-0.7-0.4-0.9-0.6
		c-0.2-0.2-0.4-0.8-0.8-1.6c-0.1-0.3-0.2-0.5-0.4-0.5c-0.1-0.1-0.3-0.1-0.6-0.1c-0.1,0-0.2,0-0.4,0v-1.2h0.2c0.5,0,0.9,0,1.1,0.1
		c0.2,0.1,0.4,0.2,0.6,0.4c0.2,0.2,0.4,0.6,0.7,1.3c0.3,0.8,0.6,1.3,0.8,1.5s0.5,0.3,0.9,0.3v-3.6H159z"/>
	<path class="st5" d="M165.8,69.7h5.8v7.1h0.9v3.5h-1.2V78h-6.5v2.4h-1.2v-3.5h0.7C165.4,75.5,165.9,73.1,165.8,69.7z M167,70.8
		c-0.1,2.7-0.5,4.7-1.3,6h4.5v-6H167z"/>
	<path class="st5" d="M173.5,73.8c0-1.5,0.4-2.7,1.3-3.4c0.7-0.6,1.6-0.9,2.6-0.9c1.1,0,2.1,0.4,2.8,1.1c0.7,0.7,1.1,1.8,1.1,3.1
		c0,1.1-0.2,1.9-0.5,2.5s-0.8,1.1-1.4,1.4c-0.6,0.3-1.3,0.5-2,0.5c-1.2,0-2.1-0.4-2.8-1.1C173.9,76.3,173.5,75.2,173.5,73.8z
		 M175,73.8c0,1.1,0.2,1.9,0.7,2.4c0.5,0.5,1,0.8,1.8,0.8c0.7,0,1.3-0.3,1.7-0.8c0.5-0.5,0.7-1.3,0.7-2.4c0-1-0.2-1.8-0.7-2.3
		c-0.5-0.5-1-0.8-1.7-0.8c-0.7,0-1.3,0.3-1.8,0.8C175.2,71.9,175,72.7,175,73.8z"/>
	<path class="st5" d="M182.9,69.7h4.8v1.2h-3.4V78h-1.4V69.7z"/>
	<path class="st5" d="M187.9,73.8c0-1.5,0.4-2.7,1.3-3.4c0.7-0.6,1.6-0.9,2.6-0.9c1.1,0,2.1,0.4,2.8,1.1c0.7,0.7,1.1,1.8,1.1,3.1
		c0,1.1-0.2,1.9-0.5,2.5s-0.8,1.1-1.4,1.4c-0.6,0.3-1.3,0.5-2,0.5c-1.2,0-2.1-0.4-2.8-1.1C188.3,76.3,187.9,75.2,187.9,73.8z
		 M189.3,73.8c0,1.1,0.2,1.9,0.7,2.4c0.5,0.5,1,0.8,1.8,0.8c0.7,0,1.3-0.3,1.7-0.8c0.5-0.5,0.7-1.3,0.7-2.4c0-1-0.2-1.8-0.7-2.3
		c-0.5-0.5-1-0.8-1.7-0.8c-0.7,0-1.3,0.3-1.8,0.8C189.6,71.9,189.3,72.7,189.3,73.8z"/>
	<path class="st5" d="M201.8,69.7h2.2l2.2,6.6l2.4-6.6h2V78h-1.4v-6.7l-2.5,6.7h-1.3l-2.3-7v7h-1.4V69.7z"/>
	<path class="st5" d="M218.4,75.3l1.5,0.2c-0.2,0.8-0.7,1.5-1.3,2c-0.6,0.5-1.4,0.7-2.4,0.7c-1.2,0-2.2-0.4-2.9-1.1
		s-1.1-1.8-1.1-3.1c0-1.4,0.4-2.5,1.1-3.3s1.7-1.2,2.8-1.2c1.1,0,2,0.4,2.7,1.1s1.1,1.8,1.1,3.2c0,0.1,0,0.2,0,0.4h-6.2
		c0.1,0.9,0.3,1.6,0.8,2.1c0.5,0.5,1,0.7,1.7,0.7c0.5,0,1-0.1,1.3-0.4C217.9,76.3,218.2,75.9,218.4,75.3z M213.8,73h4.6
		c-0.1-0.7-0.2-1.2-0.5-1.6c-0.4-0.5-1-0.8-1.7-0.8c-0.6,0-1.2,0.2-1.6,0.6C214.1,71.7,213.9,72.3,213.8,73z"/>
	<path class="st5" d="M227.1,74.9l1.4,0.2c-0.2,1-0.5,1.7-1.2,2.2c-0.6,0.5-1.4,0.8-2.3,0.8c-1.1,0-2-0.4-2.7-1.1
		c-0.7-0.7-1-1.8-1-3.2c0-0.9,0.1-1.7,0.4-2.4s0.7-1.2,1.4-1.5c0.6-0.3,1.3-0.5,2-0.5c0.9,0,1.6,0.2,2.2,0.7
		c0.6,0.5,0.9,1.1,1.1,1.9l-1.4,0.2c-0.1-0.6-0.4-1-0.7-1.3c-0.3-0.3-0.7-0.4-1.2-0.4c-0.7,0-1.3,0.3-1.7,0.8
		c-0.4,0.5-0.7,1.3-0.7,2.4c0,1.1,0.2,1.9,0.6,2.4c0.4,0.5,1,0.8,1.7,0.8c0.6,0,1-0.2,1.4-0.5C226.7,76.1,227,75.6,227.1,74.9z"/>
	<path class="st5" d="M236.2,69.7V78h-1.4v-3.2H234c-0.5,0-0.9,0.1-1.1,0.2s-0.6,0.5-1.1,1.2l-1.2,1.8h-1.7l1.5-2.2
		c0.5-0.7,0.9-1.1,1.4-1.2c-0.8-0.1-1.4-0.4-1.8-0.9c-0.4-0.5-0.6-1-0.6-1.6c0-0.7,0.3-1.3,0.8-1.8s1.2-0.7,2.2-0.7H236.2z
		 M234.8,70.8h-2c-0.8,0-1.4,0.1-1.6,0.4s-0.4,0.6-0.4,0.9c0,0.5,0.2,0.9,0.5,1.1c0.4,0.2,1,0.3,1.9,0.3h1.6V70.8z"/>
	<path class="st5" d="M238.4,69.7h1.4v7.1h3.9v-7.1h1.4v7.1h0.9v3.5h-1.2V78h-6.5V69.7z"/>
	<path class="st5" d="M252.9,76.9c-0.5,0.4-1,0.8-1.5,0.9c-0.5,0.2-1,0.3-1.6,0.3c-0.9,0-1.6-0.2-2.1-0.7c-0.5-0.4-0.7-1-0.7-1.7
		c0-0.4,0.1-0.8,0.3-1.1c0.2-0.3,0.4-0.6,0.7-0.8c0.3-0.2,0.6-0.4,1-0.5c0.3-0.1,0.7-0.1,1.3-0.2c1.1-0.1,2-0.3,2.5-0.5
		c0-0.2,0-0.3,0-0.4c0-0.6-0.1-1-0.4-1.2c-0.4-0.3-0.9-0.5-1.6-0.5c-0.7,0-1.1,0.1-1.5,0.3c-0.3,0.2-0.5,0.6-0.7,1.2l-1.4-0.2
		c0.1-0.6,0.3-1.1,0.6-1.4c0.3-0.4,0.7-0.6,1.2-0.8c0.5-0.2,1.2-0.3,1.9-0.3c0.7,0,1.3,0.1,1.7,0.3c0.4,0.2,0.8,0.4,1,0.6
		c0.2,0.3,0.4,0.6,0.4,1c0,0.2,0.1,0.7,0.1,1.3v1.9c0,1.3,0,2.1,0.1,2.5c0.1,0.3,0.2,0.7,0.4,1h-1.5C253,77.7,252.9,77.3,252.9,76.9
		z M252.8,73.8c-0.5,0.2-1.3,0.4-2.3,0.5c-0.6,0.1-1,0.2-1.2,0.3c-0.2,0.1-0.4,0.3-0.6,0.5c-0.1,0.2-0.2,0.4-0.2,0.7
		c0,0.4,0.1,0.7,0.4,0.9c0.3,0.3,0.7,0.4,1.2,0.4c0.5,0,1-0.1,1.4-0.4s0.7-0.6,0.9-1c0.2-0.3,0.2-0.8,0.2-1.4V73.8z"/>
</g>
<g class="st4">
	<path class="st5" d="M540.2,298.1h1.5v5c0.7,0,1.2-0.1,1.5-0.4s0.6-0.9,1.1-1.9c0.3-0.8,0.6-1.3,0.8-1.6s0.5-0.6,0.9-0.8
		s0.8-0.3,1.3-0.3c0.6,0,0.9,0,0.9,0v1.3c-0.1,0-0.2,0-0.3,0c-0.2,0-0.3,0-0.3,0c-0.5,0-0.8,0.1-1.1,0.4c-0.2,0.2-0.5,0.7-0.8,1.5
		c-0.4,1-0.7,1.6-1,1.8s-0.6,0.5-1,0.6c0.7,0.2,1.5,0.9,2.2,2l2.4,3.8h-1.9l-1.9-3.1c-0.5-0.9-1-1.4-1.3-1.8s-0.8-0.5-1.4-0.5v5.4
		h-1.5V298.1z"/>
	<path class="st5" d="M554.7,308.6c-0.5,0.4-1,0.8-1.5,0.9s-1,0.3-1.6,0.3c-0.9,0-1.6-0.2-2.1-0.7s-0.7-1-0.7-1.7
		c0-0.4,0.1-0.8,0.3-1.1s0.4-0.6,0.7-0.8s0.6-0.4,1-0.5c0.3-0.1,0.7-0.1,1.3-0.2c1.1-0.1,2-0.3,2.5-0.5c0-0.2,0-0.3,0-0.4
		c0-0.6-0.1-1-0.4-1.2c-0.4-0.3-0.9-0.5-1.6-0.5c-0.7,0-1.1,0.1-1.5,0.3s-0.5,0.6-0.7,1.2l-1.4-0.2c0.1-0.6,0.3-1.1,0.6-1.4
		s0.7-0.6,1.2-0.8s1.2-0.3,1.9-0.3c0.7,0,1.3,0.1,1.7,0.3s0.8,0.4,1,0.6s0.4,0.6,0.4,1c0,0.2,0.1,0.7,0.1,1.3v1.9
		c0,1.3,0,2.1,0.1,2.5s0.2,0.7,0.4,1H555C554.9,309.3,554.8,309,554.7,308.6z M554.6,305.4c-0.5,0.2-1.3,0.4-2.3,0.5
		c-0.6,0.1-1,0.2-1.2,0.3s-0.4,0.3-0.6,0.5s-0.2,0.4-0.2,0.7c0,0.4,0.1,0.7,0.4,0.9s0.7,0.4,1.2,0.4c0.5,0,1-0.1,1.4-0.4
		s0.7-0.6,0.9-1c0.2-0.3,0.2-0.8,0.2-1.4V305.4z"/>
	<path class="st5" d="M558.2,301.3h6.5v8.3h-1.4v-7.1h-3.7v7.1h-1.4V301.3z"/>
	<path class="st5" d="M566.9,301.3h1.4v6.3l3.9-6.3h1.5v8.3h-1.4v-6.3l-3.9,6.3h-1.5V301.3z"/>
	<path class="st5" d="M575.1,301.3h6.7v1.2h-2.7v7.1h-1.4v-7.1h-2.7V301.3z"/>
	<path class="st5" d="M588.4,308.6c-0.5,0.4-1,0.8-1.5,0.9s-1,0.3-1.6,0.3c-0.9,0-1.6-0.2-2.1-0.7s-0.7-1-0.7-1.7
		c0-0.4,0.1-0.8,0.3-1.1s0.4-0.6,0.7-0.8s0.6-0.4,1-0.5c0.3-0.1,0.7-0.1,1.3-0.2c1.1-0.1,2-0.3,2.5-0.5c0-0.2,0-0.3,0-0.4
		c0-0.6-0.1-1-0.4-1.2c-0.4-0.3-0.9-0.5-1.6-0.5c-0.7,0-1.1,0.1-1.5,0.3s-0.5,0.6-0.7,1.2l-1.4-0.2c0.1-0.6,0.3-1.1,0.6-1.4
		s0.7-0.6,1.2-0.8s1.2-0.3,1.9-0.3c0.7,0,1.3,0.1,1.7,0.3s0.8,0.4,1,0.6s0.4,0.6,0.4,1c0,0.2,0.1,0.7,0.1,1.3v1.9
		c0,1.3,0,2.1,0.1,2.5s0.2,0.7,0.4,1h-1.5C588.5,309.3,588.4,309,588.4,308.6z M588.3,305.4c-0.5,0.2-1.3,0.4-2.3,0.5
		c-0.6,0.1-1,0.2-1.2,0.3s-0.4,0.3-0.6,0.5s-0.2,0.4-0.2,0.7c0,0.4,0.1,0.7,0.4,0.9s0.7,0.4,1.2,0.4c0.5,0,1-0.1,1.4-0.4
		s0.7-0.6,0.9-1c0.2-0.3,0.2-0.8,0.2-1.4V305.4z"/>
	<path class="st5" d="M592.5,301.3h6.5v8.3h-1.4v-7.1H594v4.1c0,1,0,1.6-0.1,1.9s-0.2,0.6-0.5,0.8s-0.7,0.3-1.2,0.3
		c-0.3,0-0.7,0-1.1-0.1v-1.2h0.6c0.3,0,0.5,0,0.6-0.1s0.2-0.2,0.3-0.3s0.1-0.6,0.1-1.3V301.3z"/>
</g>
<g class="st4">
	<path class="st5" d="M684.4,267.7h1.5v5c0.7,0,1.2-0.1,1.5-0.4s0.6-0.9,1.1-1.9c0.3-0.8,0.6-1.3,0.8-1.6s0.5-0.6,0.9-0.8
		s0.8-0.3,1.3-0.3c0.6,0,0.9,0,0.9,0v1.3c-0.1,0-0.2,0-0.3,0c-0.2,0-0.3,0-0.3,0c-0.5,0-0.8,0.1-1.1,0.4c-0.2,0.2-0.5,0.7-0.8,1.5
		c-0.4,1-0.7,1.6-1,1.8s-0.6,0.5-1,0.6c0.7,0.2,1.5,0.9,2.2,2l2.4,3.8h-1.9l-1.9-3.1c-0.5-0.9-1-1.4-1.3-1.8s-0.8-0.5-1.4-0.5v5.4
		h-1.5V267.7z"/>
	<path class="st5" d="M693,275c0-1.5,0.4-2.7,1.3-3.4c0.7-0.6,1.6-0.9,2.6-0.9c1.1,0,2.1,0.4,2.8,1.1s1.1,1.8,1.1,3.1
		c0,1.1-0.2,1.9-0.5,2.5s-0.8,1.1-1.4,1.4s-1.3,0.5-2,0.5c-1.2,0-2.1-0.4-2.8-1.1S693,276.4,693,275z M694.4,275
		c0,1.1,0.2,1.9,0.7,2.4s1,0.8,1.8,0.8c0.7,0,1.3-0.3,1.7-0.8s0.7-1.3,0.7-2.4c0-1-0.2-1.8-0.7-2.3s-1-0.8-1.7-0.8
		c-0.7,0-1.3,0.3-1.8,0.8S694.4,274,694.4,275z"/>
	<path class="st5" d="M702.5,270.9h2.2l2.2,6.6l2.4-6.6h2v8.3h-1.4v-6.7l-2.5,6.7h-1.3l-2.3-7v7h-1.4V270.9z"/>
	<path class="st5" d="M713.5,270.9h2.2l2.2,6.6l2.4-6.6h2v8.3h-1.4v-6.7l-2.5,6.7h-1.3l-2.3-7v7h-1.4V270.9z"/>
	<path class="st5" d="M730.1,276.5l1.5,0.2c-0.2,0.8-0.7,1.5-1.3,2s-1.4,0.7-2.4,0.7c-1.2,0-2.2-0.4-2.9-1.1s-1.1-1.8-1.1-3.1
		c0-1.4,0.4-2.5,1.1-3.3s1.7-1.2,2.8-1.2c1.1,0,2,0.4,2.7,1.1s1.1,1.8,1.1,3.2c0,0.1,0,0.2,0,0.4h-6.2c0.1,0.9,0.3,1.6,0.8,2.1
		s1,0.7,1.7,0.7c0.5,0,1-0.1,1.3-0.4S729.9,277.1,730.1,276.5z M725.5,274.2h4.6c-0.1-0.7-0.2-1.2-0.5-1.6c-0.4-0.5-1-0.8-1.7-0.8
		c-0.6,0-1.2,0.2-1.6,0.6S725.5,273.5,725.5,274.2z"/>
	<path class="st5" d="M733.3,282.3v-11.5h1.3v1.1c0.3-0.4,0.6-0.7,1-0.9s0.8-0.3,1.4-0.3c0.7,0,1.3,0.2,1.9,0.5s1,0.9,1.2,1.5
		s0.4,1.4,0.4,2.2c0,0.8-0.2,1.6-0.5,2.3s-0.7,1.2-1.3,1.6s-1.2,0.5-1.8,0.5c-0.5,0-0.9-0.1-1.3-0.3s-0.7-0.4-0.9-0.8v4H733.3z
		 M734.6,275.1c0,1.1,0.2,1.9,0.6,2.4s1,0.8,1.6,0.8c0.6,0,1.2-0.3,1.6-0.8s0.7-1.3,0.7-2.5c0-1.1-0.2-1.8-0.7-2.4s-1-0.8-1.6-0.8
		c-0.6,0-1.1,0.3-1.6,0.8S734.6,274,734.6,275.1z"/>
	<path class="st5" d="M741.3,270.9h1.4v1.6c0,0.7,0,1.2,0.1,1.5s0.3,0.6,0.6,0.8s0.7,0.3,1.2,0.3c0.5,0,1.2-0.1,2.1-0.4v-3.8h1.4
		v8.3h-1.4v-3.3c-0.9,0.3-1.7,0.4-2.4,0.4c-0.6,0-1.2-0.2-1.7-0.5s-0.8-0.7-1-1.2s-0.3-1-0.3-1.5V270.9z"/>
	<path class="st5" d="M755.9,276.5l1.5,0.2c-0.2,0.8-0.7,1.5-1.3,2s-1.4,0.7-2.4,0.7c-1.2,0-2.2-0.4-2.9-1.1s-1.1-1.8-1.1-3.1
		c0-1.4,0.4-2.5,1.1-3.3s1.7-1.2,2.8-1.2c1.1,0,2,0.4,2.7,1.1s1.1,1.8,1.1,3.2c0,0.1,0,0.2,0,0.4h-6.2c0.1,0.9,0.3,1.6,0.8,2.1
		s1,0.7,1.7,0.7c0.5,0,1-0.1,1.3-0.4S755.7,277.1,755.9,276.5z M751.3,274.2h4.6c-0.1-0.7-0.2-1.2-0.5-1.6c-0.4-0.5-1-0.8-1.7-0.8
		c-0.6,0-1.2,0.2-1.6,0.6S751.3,273.5,751.3,274.2z"/>
	<path class="st5" d="M764.5,276.1l1.4,0.2c-0.2,1-0.5,1.7-1.2,2.2s-1.4,0.8-2.3,0.8c-1.1,0-2-0.4-2.7-1.1s-1-1.8-1-3.2
		c0-0.9,0.1-1.7,0.4-2.4s0.7-1.2,1.4-1.5s1.3-0.5,2-0.5c0.9,0,1.6,0.2,2.2,0.7s0.9,1.1,1.1,1.9l-1.4,0.2c-0.1-0.6-0.4-1-0.7-1.3
		s-0.7-0.4-1.2-0.4c-0.7,0-1.3,0.3-1.7,0.8s-0.7,1.3-0.7,2.4c0,1.1,0.2,1.9,0.6,2.4s1,0.8,1.7,0.8c0.6,0,1-0.2,1.4-0.5
		S764.4,276.8,764.5,276.1z"/>
	<path class="st5" d="M767.1,270.9h1.4v3.6c0.4,0,0.8-0.1,0.9-0.3s0.4-0.7,0.8-1.5c0.3-0.7,0.5-1.1,0.7-1.3s0.4-0.3,0.6-0.4
		s0.6-0.1,1.1-0.1h0.3v1.2l-0.4,0c-0.4,0-0.6,0.1-0.7,0.2c-0.1,0.1-0.3,0.5-0.5,1c-0.2,0.5-0.4,0.9-0.6,1.1s-0.5,0.4-0.8,0.6
		c0.6,0.2,1.2,0.7,1.8,1.7l1.5,2.6h-1.5l-1.5-2.6c-0.3-0.5-0.6-0.9-0.8-1s-0.5-0.2-0.8-0.2v3.8h-1.4V270.9z"/>
	<path class="st5" d="M779.9,278.1c-0.5,0.4-1,0.8-1.5,0.9s-1,0.3-1.6,0.3c-0.9,0-1.6-0.2-2.1-0.7s-0.7-1-0.7-1.7
		c0-0.4,0.1-0.8,0.3-1.1s0.4-0.6,0.7-0.8s0.6-0.4,1-0.5c0.3-0.1,0.7-0.1,1.3-0.2c1.1-0.1,2-0.3,2.5-0.5c0-0.2,0-0.3,0-0.4
		c0-0.6-0.1-1-0.4-1.2c-0.4-0.3-0.9-0.5-1.6-0.5c-0.7,0-1.1,0.1-1.5,0.3s-0.5,0.6-0.7,1.2l-1.4-0.2c0.1-0.6,0.3-1.1,0.6-1.4
		s0.7-0.6,1.2-0.8s1.2-0.3,1.9-0.3c0.7,0,1.3,0.1,1.7,0.3s0.8,0.4,1,0.6s0.4,0.6,0.4,1c0,0.2,0.1,0.7,0.1,1.3v1.9
		c0,1.3,0,2.1,0.1,2.5s0.2,0.7,0.4,1h-1.5C780,278.9,779.9,278.5,779.9,278.1z M779.7,275c-0.5,0.2-1.3,0.4-2.3,0.5
		c-0.6,0.1-1,0.2-1.2,0.3s-0.4,0.3-0.6,0.5s-0.2,0.4-0.2,0.7c0,0.4,0.1,0.7,0.4,0.9s0.7,0.4,1.2,0.4c0.5,0,1-0.1,1.4-0.4
		s0.7-0.6,0.9-1c0.2-0.3,0.2-0.8,0.2-1.4V275z"/>
	<path class="st5" d="M789.9,270.9v8.3h-1.4v-3.2h-0.8c-0.5,0-0.9,0.1-1.1,0.2s-0.6,0.5-1.1,1.2l-1.2,1.8h-1.7l1.5-2.2
		c0.5-0.7,0.9-1.1,1.4-1.2c-0.8-0.1-1.4-0.4-1.8-0.9s-0.6-1-0.6-1.6c0-0.7,0.3-1.3,0.8-1.8s1.2-0.7,2.2-0.7H789.9z M788.5,272h-2
		c-0.8,0-1.4,0.1-1.6,0.4s-0.4,0.6-0.4,0.9c0,0.5,0.2,0.9,0.5,1.1s1,0.3,1.9,0.3h1.6V272z"/>
	<path class="st5" d="M684.2,290.1h1.4v3.5h3.9v-3.5h1.4v8.3h-1.4v-3.7h-3.9v3.7h-1.4V290.1z"/>
	<path class="st5" d="M698.7,295.7l1.5,0.2c-0.2,0.8-0.7,1.5-1.3,2s-1.4,0.7-2.4,0.7c-1.2,0-2.2-0.4-2.9-1.1s-1.1-1.8-1.1-3.1
		c0-1.4,0.4-2.5,1.1-3.3s1.7-1.2,2.8-1.2c1.1,0,2,0.4,2.7,1.1s1.1,1.8,1.1,3.2c0,0.1,0,0.2,0,0.4H694c0.1,0.9,0.3,1.6,0.8,2.1
		s1,0.7,1.7,0.7c0.5,0,1-0.1,1.3-0.4S698.5,296.3,698.7,295.7z M694.1,293.4h4.6c-0.1-0.7-0.2-1.2-0.5-1.6c-0.4-0.5-1-0.8-1.7-0.8
		c-0.6,0-1.2,0.2-1.6,0.6S694.1,292.7,694.1,293.4z"/>
	<path class="st5" d="M702.7,290.1h5.8v7.1h0.9v3.5h-1.2v-2.4h-6.5v2.4h-1.2v-3.5h0.7C702.3,295.9,702.7,293.5,702.7,290.1z
		 M703.9,291.2c-0.1,2.7-0.5,4.7-1.3,6h4.5v-6H703.9z"/>
	<path class="st5" d="M710.9,290.1h3.2c0.8,0,1.4,0.1,1.8,0.2s0.7,0.4,1,0.7s0.4,0.8,0.4,1.3c0,0.4-0.1,0.7-0.2,1s-0.4,0.5-0.7,0.7
		c0.4,0.1,0.7,0.4,1,0.7s0.4,0.8,0.4,1.3c-0.1,0.8-0.3,1.4-0.8,1.8s-1.3,0.6-2.2,0.6h-3.7V290.1z M712.3,293.6h1.5
		c0.6,0,1,0,1.2-0.1s0.4-0.2,0.6-0.4s0.3-0.4,0.3-0.7c0-0.4-0.2-0.7-0.5-0.9s-0.8-0.3-1.6-0.3h-1.5V293.6z M712.3,297.2h1.9
		c0.8,0,1.3-0.1,1.6-0.3s0.5-0.5,0.5-1c0-0.3-0.1-0.5-0.3-0.7s-0.4-0.4-0.7-0.4s-0.7-0.1-1.3-0.1h-1.7V297.2z"/>
	<path class="st5" d="M719.4,290.1h1.4v6.3l3.9-6.3h1.5v8.3h-1.4v-6.3l-3.9,6.3h-1.5V290.1z"/>
	<path class="st5" d="M733.4,290.1v3.6c0.4,0,0.8-0.1,0.9-0.3s0.4-0.7,0.8-1.5c0.3-0.8,0.6-1.3,0.9-1.5c0.3-0.2,0.7-0.3,1.2-0.3h0.5
		v1.2l-0.4,0c-0.4,0-0.6,0.1-0.7,0.2c-0.1,0.1-0.3,0.5-0.5,1c-0.2,0.5-0.4,0.9-0.6,1.1s-0.5,0.4-0.8,0.6c0.6,0.2,1.2,0.7,1.8,1.7
		l1.5,2.6h-1.5l-1.5-2.6c-0.3-0.5-0.6-0.9-0.8-1s-0.5-0.2-0.8-0.2v3.8h-1.4v-3.8c-0.3,0-0.6,0.1-0.8,0.2s-0.5,0.5-0.8,1l-1.5,2.6
		h-1.5l1.5-2.6c0.6-1,1.2-1.5,1.8-1.7c-0.4-0.2-0.7-0.4-0.9-0.6s-0.4-0.8-0.8-1.6c-0.1-0.3-0.2-0.5-0.4-0.5
		c-0.1-0.1-0.3-0.1-0.6-0.1c-0.1,0-0.2,0-0.4,0v-1.2h0.2c0.5,0,0.9,0,1.1,0.1s0.4,0.2,0.6,0.4s0.4,0.6,0.7,1.3
		c0.3,0.8,0.6,1.3,0.8,1.5s0.5,0.3,0.9,0.3v-3.6H733.4z"/>
	<path class="st5" d="M739.1,290.1h1.4v6.3l3.9-6.3h1.5v8.3h-1.4v-6.3l-3.9,6.3h-1.5V290.1z"/>
	<path class="st5" d="M748,290.1h2.2l2.2,6.6l2.4-6.6h2v8.3h-1.4v-6.7l-2.5,6.7h-1.3l-2.3-7v7H748V290.1z"/>
	<path class="st5" d="M758.5,294.2c0-1.5,0.4-2.7,1.3-3.4c0.7-0.6,1.6-0.9,2.6-0.9c1.1,0,2.1,0.4,2.8,1.1s1.1,1.8,1.1,3.1
		c0,1.1-0.2,1.9-0.5,2.5s-0.8,1.1-1.4,1.4s-1.3,0.5-2,0.5c-1.2,0-2.1-0.4-2.8-1.1S758.5,295.6,758.5,294.2z M759.9,294.2
		c0,1.1,0.2,1.9,0.7,2.4s1,0.8,1.8,0.8c0.7,0,1.3-0.3,1.7-0.8s0.7-1.3,0.7-2.4c0-1-0.2-1.8-0.7-2.3s-1-0.8-1.7-0.8
		c-0.7,0-1.3,0.3-1.8,0.8S759.9,293.2,759.9,294.2z"/>
	<path class="st5" d="M773.3,295.3l1.4,0.2c-0.2,1-0.5,1.7-1.2,2.2s-1.4,0.8-2.3,0.8c-1.1,0-2-0.4-2.7-1.1s-1-1.8-1-3.2
		c0-0.9,0.1-1.7,0.4-2.4s0.7-1.2,1.4-1.5s1.3-0.5,2-0.5c0.9,0,1.6,0.2,2.2,0.7s0.9,1.1,1.1,1.9l-1.4,0.2c-0.1-0.6-0.4-1-0.7-1.3
		s-0.7-0.4-1.2-0.4c-0.7,0-1.3,0.3-1.7,0.8s-0.7,1.3-0.7,2.4c0,1.1,0.2,1.9,0.6,2.4s1,0.8,1.7,0.8c0.6,0,1-0.2,1.4-0.5
		S773.2,296,773.3,295.3z"/>
	<path class="st5" d="M775.1,290.1h6.7v1.2h-2.7v7.1h-1.4v-7.1h-2.7V290.1z"/>
	<path class="st5" d="M783.2,290.1h1.4v3.2h1.8c1.2,0,2.1,0.2,2.7,0.7s0.9,1.1,0.9,1.9c0,0.7-0.3,1.3-0.8,1.8s-1.4,0.7-2.5,0.7h-3.5
		V290.1z M784.6,297.2h1.5c0.9,0,1.5-0.1,1.9-0.3s0.6-0.6,0.6-1c0-0.4-0.1-0.7-0.4-1s-0.9-0.4-1.9-0.4h-1.7V297.2z"/>
</g>
</svg>
