<?xml version="1.0" encoding="utf-8"?>
<!-- Generator: Adobe Illustrator 23.0.0, SVG Export Plug-In . SVG Version: 6.00 Build 0)  -->
<svg version="1.1" id="租金分红" xmlns="http://www.w3.org/2000/svg" xmlns:xlink="http://www.w3.org/1999/xlink" x="0px"
	 y="0px" viewBox="0 0 1072 186" style="enable-background:new 0 0 1072 186;" xml:space="preserve">
<style type="text/css">
	.st0{fill:none;stroke:#90A7AB;}
	.st1{fill:#9FE7DD;stroke:#34B9A1;stroke-width:2;}
	.st2{fill:none;stroke:#456E68;stroke-width:1.5;stroke-miterlimit:10;}
	.st3{enable-background:new    ;}
	.st4{fill:#456E68;}
</style>
<g id="组_29">
	<path id="形状_1" class="st0" d="M122.8,82.9h132.5l-4.8-5.5"/>
	<path id="形状_1_拷贝_6" class="st0" d="M255.1,103.1H122.8l4.8,5.5"/>
</g>
<path id="形状_1_拷贝_7" class="st0" d="M786.9,88.4h132.5l-4.8-5.5"/>
<g id="组_29_拷贝">
	<path id="形状_1-2" class="st0" d="M489.3,81h132.5l-4.8-5.5"/>
	<path id="形状_1_拷贝_6-2" class="st0" d="M621.6,101.3H489.3l4.8,5.5"/>
</g>
<circle id="椭圆_6" class="st1" cx="377.3" cy="93" r="91.8"/>
<g>
	<circle class="st2" cx="56" cy="65.3" r="15.3"/>
	<line class="st2" x1="43.7" y1="89.3" x2="56" y2="103.3"/>
	<line class="st2" x1="68" y1="89.3" x2="56" y2="103.3"/>
	<line class="st2" x1="56" y1="117.3" x2="56" y2="103.3"/>
	<path class="st2" d="M88.9,109.3v3.3c0,3-2.5,5.5-5.5,5.5H28.6c-3,0-5.5-2.5-5.5-5.5v-3.3"/>
	<path class="st2" d="M28.6,103.8"/>
	<path class="st2" d="M23.1,110.8c0-12.4,10.2-21.9,22.6-21.9h20.6c12.4,0,22.5,10.1,22.5,22.5l0,0"/>
</g>
<g class="st3">
	<path class="st4" d="M740.7,50h-10v10h10V50z M737.4,56.6h-3.3v-3.3h3.3V56.6z"/>
	<path class="st4" d="M754,50h-10v10h10V50z M750.7,56.6h-3.3v-3.3h3.3V56.6z"/>
	<path class="st4" d="M740.7,63.3h-10v10h10V63.3z M737.4,69.9h-3.3v-3.3h3.3V69.9z"/>
	<path class="st4" d="M754,63.3h-10v10h10V63.3z M750.7,69.9h-3.3v-3.3h3.3V69.9z"/>
	<path class="st4" d="M740.7,86.5v-10h-10v10H740.7z M734.1,79.9h3.3v3.3h-3.3V79.9z"/>
	<path class="st4" d="M754,76.6h-10v10h10V76.6z M750.7,83.2h-3.3v-3.3h3.3V83.2z"/>
	<path class="st4" d="M764,46.7v-3.3h-3.3v-6.6h-3.3v-6.6h-29.9v6.6h-3.3v6.6h-3.3v3.3h3.3v43.2h-13.3v-20h3.3V60h-3.3v-2.5
		l-23.3-16.1l-10,6.9v-5.1h-10v12l-3.3,2.3V60H661v10h3.3v20.3c-1.9,0.7-3.3,2.5-3.3,4.6v3.3c0,2.7,2.3,5,5,5h32.4
		c-2.6,3.2-4.2,7.2-4.2,11.6c0,10.1,8.2,18.3,18.3,18.3s18.3-8.1,18.3-18.2c0-4.4-1.5-8.4-4.2-11.6H759c2.7,0,5-2.3,5-5V95
		c0-2.1-1.4-4-3.3-4.6V46.7H764z M730.8,33.4H754v3.3h-23.3L730.8,33.4L730.8,33.4z M727.5,40h29.9v3.3h-29.9V40z M671,46.4h3.3v4.2
		l-3.3,2.3V46.4z M667.6,59.3l19.9-13.8l19.9,13.8v0.8h-39.9L667.6,59.3L667.6,59.3z M664.3,63.3h46.5v3.3h-46.5V63.3z M707.5,69.9
		v19.9h-13.3V73.3h-13.3v16.6h-13.3v-20H707.5z M690.9,89.9h-6.6V76.6h6.6V89.9z M712.5,129.7c-8.2,0-15-6.8-15-15s6.8-15,15-15
		s15,6.8,15,15C727.5,123.1,720.8,129.7,712.5,129.7z M760.7,98.2c0,0.9-0.7,1.7-1.7,1.7h-36.1c-3-2.1-6.5-3.3-10.4-3.3
		s-7.5,1.2-10.4,3.3H666c-0.9,0-1.7-0.7-1.7-1.7v-3.3c0-0.9,0.7-1.7,1.7-1.7h93c0.9,0,1.7,0.7,1.7,1.7V98.2z M757.4,89.9h-29.9V46.7
		h29.9V89.9z"/>
</g>
<g class="st3">
	<g>
		<g>
			<path class="st4" d="M964,53h-12.6c-0.9,0-1.6,0.7-1.6,1.6V61c0,0.9,0.7,1.6,1.6,1.6H964c0.9,0,1.6-0.7,1.6-1.6v-6.4
				C965.4,53.7,964.9,53,964,53z M955.9,59.4h-3.1v-3.1h3.1V59.4z M962.3,59.4h-3.1v-3.1h3.1V59.4z"/>
		</g>
	</g>
	<g>
		<g>
			<path class="st4" d="M964,65.6h-12.6c-0.9,0-1.6,0.7-1.6,1.6v6.4c0,0.9,0.7,1.6,1.6,1.6H964c0.9,0,1.6-0.7,1.6-1.6v-6.4
				C965.4,66.3,964.9,65.6,964,65.6z M955.9,72h-3.1v-3.1h3.1V72z M962.3,72h-3.1v-3.1h3.1V72z"/>
		</g>
	</g>
	<g>
		<g>
			<path class="st4" d="M964,78.4h-12.6c-0.9,0-1.6,0.7-1.6,1.6v6.2c0,0.9,0.7,1.6,1.6,1.6H964c0.9,0,1.6-0.7,1.6-1.6v-6.4
				C965.4,79,964.9,78.4,964,78.4z M955.9,84.6h-3.1v-3.1h3.1V84.6z M962.3,84.6h-3.1v-3.1h3.1V84.6z"/>
		</g>
	</g>
	<g>
		<g>
			<path class="st4" d="M1021,53h-12.6c-0.9,0-1.6,0.7-1.6,1.6V61c0,0.9,0.7,1.6,1.6,1.6h12.6c0.9,0,1.6-0.7,1.6-1.6v-6.4
				C1022.5,53.7,1021.9,53,1021,53z M1013,59.4h-3.1v-3.1h3.1V59.4z M1019.3,59.4h-3.1v-3.1h3.1V59.4z"/>
		</g>
	</g>
	<g>
		<g>
			<path class="st4" d="M1021,40.4h-12.6c-0.9,0-1.6,0.7-1.6,1.6v6.4c0,0.9,0.7,1.6,1.6,1.6h12.6c0.9,0,1.6-0.7,1.6-1.6V42
				C1022.5,40.9,1021.9,40.4,1021,40.4z M1013,46.6h-3.1v-3.1h3.1V46.6z M1019.3,46.6h-3.1v-3.1h3.1V46.6z"/>
		</g>
	</g>
	<g>
		<g>
			<path class="st4" d="M983,59.4h-6.4c-0.9,0-1.6,0.7-1.6,1.6v6.4c0,0.9,0.7,1.6,1.6,1.6h6.4c0.9,0,1.6-0.7,1.6-1.6V61
				C984.5,60,983.9,59.4,983,59.4z M981.3,65.6h-3.1v-3.1h3.1V65.6z"/>
		</g>
	</g>
	<g>
		<g>
			<path class="st4" d="M995.6,59.4h-6.4c-0.9,0-1.6,0.7-1.6,1.6v6.4c0,0.9,0.7,1.6,1.6,1.6h6.4c0.9,0,1.6-0.7,1.6-1.6V61
				C997.2,60,996.5,59.4,995.6,59.4z M994,65.6h-3.1v-3.1h3.1V65.6z"/>
		</g>
	</g>
	<g>
		<g>
			<path class="st4" d="M983,46.6h-6.4c-0.9,0-1.6,0.7-1.6,1.6v6.4c0,0.9,0.7,1.6,1.6,1.6h6.4c0.9,0,1.6-0.7,1.6-1.6v-6.4
				C984.5,47.3,983.9,46.6,983,46.6z M981.3,53h-3.1v-3.1h3.1V53z"/>
		</g>
	</g>
	<g>
		<g>
			<path class="st4" d="M995.6,46.6h-6.4c-0.9,0-1.6,0.7-1.6,1.6v6.4c0,0.9,0.7,1.6,1.6,1.6h6.4c0.9,0,1.6-0.7,1.6-1.6v-6.4
				C997.2,47.3,996.5,46.6,995.6,46.6z M994,53h-3.1v-3.1h3.1V53z"/>
		</g>
	</g>
	<g>
		<g>
			<path class="st4" d="M983,34h-6.4c-0.9,0-1.6,0.7-1.6,1.6V42c0,0.9,0.7,1.6,1.6,1.6h6.4c0.9,0,1.6-0.7,1.6-1.6v-6.4
				C984.5,34.7,983.9,34,983,34z M981.3,40.4h-3.1v-3.1h3.1V40.4z"/>
		</g>
	</g>
	<g>
		<g>
			<path class="st4" d="M995.6,34h-6.4c-0.9,0-1.6,0.7-1.6,1.6V42c0,0.9,0.7,1.6,1.6,1.6h6.4c0.9,0,1.6-0.7,1.6-1.6v-6.4
				C997.2,34.7,996.5,34,995.6,34z M994,40.4h-3.1v-3.1h3.1V40.4z"/>
		</g>
	</g>
	<g>
		<g>
			<path class="st4" d="M983,78.4h-6.4c-0.9,0-1.6,0.7-1.6,1.6v6.2c0,0.9,0.7,1.6,1.6,1.6h6.4c0.9,0,1.6-0.7,1.6-1.6v-6.4
				C984.5,79,983.9,78.4,983,78.4z M981.3,84.6h-3.1v-3.1h3.1V84.6z"/>
		</g>
	</g>
	<g>
		<g>
			<rect x="949.7" y="91" class="st4" width="3.1" height="3.1"/>
		</g>
	</g>
	<g>
		<g>
			<rect x="955.9" y="91" class="st4" width="3.1" height="3.1"/>
		</g>
	</g>
	<g>
		<g>
			<rect x="962.3" y="91" class="st4" width="3.1" height="3.1"/>
		</g>
	</g>
	<g>
		<g>
			<path class="st4" d="M1036.7,72h-7.9V35.6c0-0.9-0.7-1.6-1.6-1.6h-11.1v-2.5l1.6-1.6c1.3,1,3,1.6,4.6,1.6c2.1,0,4-0.7,5.5-2.2
				l0.3-0.3c0.6-0.6,0.6-1.6,0-2.2l-3.6-3.6l3.6-3.6l-2.2-2.2l-3.6,3.6l-5.2-5.2c-0.3-0.3-0.7-0.4-1.2-0.4c-0.6,0-1,0.3-1.3,0.6
				c-1.6,1.5-2.5,3.4-2.5,5.5s0.7,4.3,2.4,5.8l0.7,0.7l-2.1,2.1c-0.3,0.3-0.4,0.7-0.4,1.2v3.1h-9.5v-5c0-0.9-0.7-1.6-1.6-1.6H996
				l-9.1-12c-0.6-0.7-1.9-0.7-2.5,0l-9.1,12h-5.5c-0.9,0-1.6,0.7-1.6,1.6v17.4h-9.5V34h-3.1v12.6h-11.1c-0.9,0-1.6,0.7-1.6,1.6v60.1
				c0,0.9,0.7,1.6,1.6,1.6h25.4H981h12.6h1.6h9.5h25.4c4.3,0,7.9-3.6,7.9-7.9V73.6C1038.4,72.7,1037.6,72,1036.7,72z M968.7,106.9
				h-22.1v-57h22.1V106.9z M1016.2,18.8l8.6,8.6c-1.8,1-4.2,0.9-5.8-0.7l-2.2-2.2c-0.9-0.9-1.5-2.1-1.3-3.4
				C1015.6,20.3,1015.8,19.6,1016.2,18.8z M986.1,19.1l6.4,8.5h-12.6L986.1,19.1z M979.7,94.1v12.6h-7.9V48.2V30.9h28.5v4.8v28.5
				h3.1v-27h22.1V72h-3.1v-1.6c0-2.7-2.1-4.8-4.8-4.8h-9.5c-2.7,0-4.8,2.1-4.8,4.8V72H989c-0.9,0-1.6,0.7-1.6,1.6V91h-12.6v3.1
				H979.7z M1019.3,70.4V72h-12.6v-1.6c0-0.9,0.7-1.6,1.6-1.6h9.5C1018.6,68.9,1019.3,69.5,1019.3,70.4z M983,106.9V94.3h4.8v7.9
				c0,1.8,0.6,3.4,1.6,4.8H983V106.9z M1035.2,102.1c0,2.7-2.1,4.8-4.8,4.8H1005h-9.5c-2.7,0-4.8-2.1-4.8-4.8V86.2
				c1.3,1,3,1.6,4.8,1.6h1.6v4.8c0,0.9,0.7,1.6,1.6,1.6h6.4c0.9,0,1.6-0.7,1.6-1.6v-4.8h1.6h9.5h1.6v4.8c0,0.9,0.7,1.6,1.6,1.6h6.4
				c0.9,0,1.6-0.7,1.6-1.6v-4.8h1.6c1.8,0,3.4-0.6,4.8-1.6v15.9H1035.2z M1000.3,91v-3.1h3.1V91H1000.3z M1009.8,84.6v-3.1h6.4v3.1
				H1009.8z M1022.5,91v-3.1h3.1V91H1022.5z M1035.2,79.9c0,2.7-2.1,4.8-4.8,4.8h-3.1h-6.4h-1.6v-4.8c0-0.9-0.7-1.6-1.6-1.6h-9.5
				c-0.9,0-1.6,0.7-1.6,1.6v4.8h-1.6h-6.4h-3.1c-2.7,0-4.8-2.1-4.8-4.8v-4.8h44.4L1035.2,79.9L1035.2,79.9z"/>
		</g>
	</g>
	<g>
		<g>
			<rect x="1028.9" y="100.5" class="st4" width="3.1" height="3.1"/>
		</g>
	</g>
	<g>
		<g>
			<rect x="1022.5" y="100.5" class="st4" width="3.1" height="3.1"/>
		</g>
	</g>
	<g>
		<g>
			<rect x="1016.2" y="100.5" class="st4" width="3.1" height="3.1"/>
		</g>
	</g>
</g>
<g>
	<path class="st4" d="M706.7,122.5v-1.8c1.9-0.6,2.9-1.8,2.9-3.7v-2.2H707V113h2.6v-3c0-1.5,0.4-2.8,1.4-3.7c1-1,2.2-1.5,3.6-1.5
		c1,0,1.9,0.1,2.8,0.6v2.1c-0.8-0.6-1.8-0.7-2.6-0.7c-1.9,0-2.9,1.2-2.9,3.6v2.8h3.9v1.8h-4v1.8c0,1.9-0.8,3.2-2.3,4.1h8.9v1.8
		h-11.7V122.5z"/>
</g>
<g class="st3">
	<path class="st4" d="M17.4,132.9H19v10.2l6.9-10.2h1.7v12.9H26v-10.2l-6.9,10.2h-1.7V132.9z"/>
	<path class="st4" d="M30.1,136.5h1.6v3.9h4.4v-3.9h1.6v9.3h-1.6v-4.1h-4.4v4.1h-1.6V136.5z"/>
	<path class="st4" d="M40.1,136.5h3.6c0.9,0,1.6,0.1,2,0.2c0.4,0.1,0.8,0.4,1.1,0.8s0.5,0.9,0.5,1.4c0,0.4-0.1,0.8-0.3,1.2
		c-0.2,0.3-0.5,0.6-0.8,0.8c0.4,0.1,0.8,0.4,1.1,0.8c0.3,0.4,0.4,0.9,0.4,1.4c-0.1,0.9-0.4,1.5-0.9,2s-1.4,0.6-2.5,0.6h-4.2V136.5z
		 M41.7,140.4h1.7c0.7,0,1.1,0,1.4-0.1s0.5-0.2,0.7-0.4c0.2-0.2,0.3-0.5,0.3-0.8c0-0.5-0.2-0.8-0.5-1s-0.9-0.3-1.8-0.3h-1.7V140.4z
		 M41.7,144.5h2.1c0.9,0,1.5-0.1,1.8-0.3c0.3-0.2,0.5-0.6,0.5-1.1c0-0.3-0.1-0.6-0.3-0.8c-0.2-0.3-0.4-0.4-0.8-0.5
		c-0.3-0.1-0.8-0.1-1.5-0.1h-1.9V144.5z"/>
	<path class="st4" d="M55.8,142.8l1.6,0.2c-0.3,1-0.7,1.7-1.4,2.2s-1.6,0.8-2.7,0.8c-1.4,0-2.4-0.4-3.2-1.3c-0.8-0.8-1.2-2-1.2-3.5
		c0-1.6,0.4-2.8,1.2-3.7s1.9-1.3,3.1-1.3c1.2,0,2.3,0.4,3.1,1.3s1.2,2,1.2,3.6c0,0.1,0,0.2,0,0.4h-7c0.1,1,0.3,1.8,0.9,2.4
		s1.2,0.8,2,0.8c0.6,0,1.1-0.2,1.5-0.5S55.6,143.5,55.8,142.8z M50.6,140.3h5.2c-0.1-0.8-0.3-1.4-0.6-1.8c-0.5-0.6-1.2-0.9-2-0.9
		c-0.7,0-1.3,0.2-1.8,0.7S50.7,139.4,50.6,140.3z"/>
	<path class="st4" d="M65.5,142.4l1.6,0.2c-0.2,1.1-0.6,1.9-1.3,2.5c-0.7,0.6-1.6,0.9-2.6,0.9c-1.3,0-2.3-0.4-3.1-1.3
		c-0.8-0.8-1.2-2-1.2-3.6c0-1,0.2-1.9,0.5-2.6s0.8-1.3,1.5-1.7c0.7-0.4,1.4-0.6,2.2-0.6c1,0,1.8,0.3,2.5,0.8s1.1,1.2,1.2,2.2
		l-1.5,0.2c-0.1-0.6-0.4-1.1-0.8-1.4s-0.8-0.5-1.3-0.5c-0.8,0-1.4,0.3-1.9,0.9c-0.5,0.6-0.7,1.5-0.7,2.7c0,1.3,0.2,2.2,0.7,2.7
		s1.1,0.9,1.9,0.9c0.6,0,1.1-0.2,1.6-0.6S65.4,143.2,65.5,142.4z"/>
	<path class="st4" d="M67.6,136.5h7.6v1.3h-3v8h-1.6v-8h-3V136.5z"/>
	<path class="st4" d="M75.9,141.2c0-1.7,0.5-3,1.4-3.8c0.8-0.7,1.8-1,2.9-1c1.3,0,2.3,0.4,3.1,1.3s1.2,2,1.2,3.5
		c0,1.2-0.2,2.1-0.5,2.8c-0.4,0.7-0.9,1.2-1.6,1.6s-1.4,0.6-2.3,0.6c-1.3,0-2.4-0.4-3.2-1.3S75.9,142.7,75.9,141.2z M77.5,141.2
		c0,1.2,0.3,2.1,0.8,2.7c0.5,0.6,1.2,0.9,2,0.9c0.8,0,1.4-0.3,2-0.9s0.8-1.5,0.8-2.7c0-1.2-0.3-2-0.8-2.6c-0.5-0.6-1.2-0.9-2-0.9
		c-0.8,0-1.4,0.3-2,0.9S77.5,140,77.5,141.2z"/>
	<path class="st4" d="M86.5,149.4v-12.9h1.4v1.2c0.3-0.5,0.7-0.8,1.2-1.1c0.4-0.2,0.9-0.4,1.6-0.4c0.8,0,1.5,0.2,2.1,0.6
		s1.1,1,1.4,1.7c0.3,0.7,0.5,1.6,0.5,2.5c0,1-0.2,1.8-0.5,2.6c-0.3,0.8-0.8,1.4-1.5,1.8c-0.7,0.4-1.3,0.6-2.1,0.6
		c-0.5,0-1-0.1-1.4-0.3s-0.8-0.5-1-0.8v4.5H86.5z M87.9,141.2c0,1.2,0.2,2.1,0.7,2.7s1.1,0.9,1.8,0.9c0.7,0,1.3-0.3,1.8-0.9
		c0.5-0.6,0.8-1.5,0.8-2.8c0-1.2-0.2-2.1-0.7-2.7s-1.1-0.9-1.8-0.9c-0.7,0-1.3,0.3-1.8,0.9C88.2,139.1,87.9,140,87.9,141.2z"/>
	<path class="st4" d="M20.2,171.2c-0.9-1.1-1.6-2.4-2.2-3.9s-0.9-3-0.9-4.6c0-1.4,0.2-2.7,0.7-4c0.5-1.5,1.3-3,2.4-4.4h1.1
		c-0.7,1.2-1.2,2.1-1.4,2.6c-0.4,0.8-0.6,1.7-0.8,2.5c-0.3,1.1-0.4,2.2-0.4,3.3c0,2.8,0.9,5.6,2.6,8.4H20.2z"/>
	<path class="st4" d="M23.2,158.1h3.6c0.9,0,1.6,0.1,2,0.2c0.4,0.1,0.8,0.4,1.1,0.8s0.5,0.9,0.5,1.4c0,0.4-0.1,0.8-0.3,1.2
		c-0.2,0.3-0.5,0.6-0.8,0.8c0.4,0.1,0.8,0.4,1.1,0.8c0.3,0.4,0.4,0.9,0.4,1.4c-0.1,0.9-0.4,1.5-0.9,2s-1.4,0.6-2.5,0.6h-4.2V158.1z
		 M24.8,162h1.7c0.7,0,1.1,0,1.4-0.1s0.5-0.2,0.7-0.4c0.2-0.2,0.3-0.5,0.3-0.8c0-0.5-0.2-0.8-0.5-1s-0.9-0.3-1.8-0.3h-1.7V162z
		 M24.8,166.1h2.1c0.9,0,1.5-0.1,1.8-0.3c0.3-0.2,0.5-0.6,0.5-1.1c0-0.3-0.1-0.6-0.3-0.8c-0.2-0.3-0.4-0.4-0.8-0.5
		c-0.3-0.1-0.8-0.1-1.5-0.1h-1.9V166.1z"/>
	<path class="st4" d="M33.1,158.1h7.3v9.3h-1.6v-8h-4.2v4.6c0,1.1,0,1.8-0.1,2.1s-0.3,0.6-0.6,0.9s-0.8,0.4-1.4,0.4
		c-0.4,0-0.8,0-1.3-0.1v-1.3H32c0.3,0,0.6,0,0.7-0.1s0.2-0.2,0.3-0.3s0.1-0.6,0.1-1.4V158.1z"/>
	<path class="st4" d="M48.9,166.3c-0.6,0.5-1.1,0.8-1.7,1.1s-1.1,0.3-1.7,0.3c-1,0-1.8-0.3-2.4-0.8c-0.6-0.5-0.8-1.1-0.8-1.9
		c0-0.5,0.1-0.9,0.3-1.3c0.2-0.4,0.5-0.7,0.8-0.9s0.7-0.4,1.1-0.5c0.3-0.1,0.8-0.2,1.4-0.2c1.3-0.2,2.2-0.3,2.8-0.5
		c0-0.2,0-0.4,0-0.4c0-0.6-0.1-1.1-0.4-1.4c-0.4-0.4-1-0.5-1.8-0.5c-0.7,0-1.3,0.1-1.6,0.4s-0.6,0.7-0.8,1.4l-1.5-0.2
		c0.1-0.7,0.4-1.2,0.7-1.6c0.3-0.4,0.8-0.7,1.4-0.9c0.6-0.2,1.3-0.3,2.1-0.3c0.8,0,1.4,0.1,1.9,0.3s0.9,0.4,1.1,0.7
		c0.2,0.3,0.4,0.6,0.5,1.1c0.1,0.3,0.1,0.8,0.1,1.5v2.1c0,1.5,0,2.4,0.1,2.8c0.1,0.4,0.2,0.8,0.4,1.1h-1.7
		C49.1,167.1,49,166.7,48.9,166.3z M48.8,162.7c-0.6,0.2-1.4,0.4-2.6,0.6c-0.7,0.1-1.1,0.2-1.4,0.3s-0.5,0.3-0.6,0.5
		s-0.2,0.5-0.2,0.8c0,0.4,0.2,0.8,0.5,1.1s0.8,0.4,1.4,0.4c0.6,0,1.2-0.1,1.6-0.4s0.8-0.6,1-1.1c0.2-0.4,0.3-0.9,0.3-1.6V162.7z"/>
	<path class="st4" d="M54.1,158.1h6.5v8h1v3.9h-1.3v-2.6H53v2.6h-1.3v-3.9h0.8C53.6,164.6,54.1,161.9,54.1,158.1z M55.4,159.4
		c-0.1,3-0.6,5.3-1.4,6.7h5v-6.7H55.4z"/>
	<path class="st4" d="M69.7,164.4l1.6,0.2c-0.3,1-0.7,1.7-1.4,2.2s-1.6,0.8-2.7,0.8c-1.4,0-2.4-0.4-3.2-1.3c-0.8-0.8-1.2-2-1.2-3.5
		c0-1.6,0.4-2.8,1.2-3.7s1.9-1.3,3.1-1.3c1.2,0,2.3,0.4,3.1,1.3s1.2,2,1.2,3.6c0,0.1,0,0.2,0,0.4h-7c0.1,1,0.3,1.8,0.9,2.4
		s1.2,0.8,2,0.8c0.6,0,1.1-0.2,1.5-0.5S69.5,165.1,69.7,164.4z M64.5,161.9h5.2c-0.1-0.8-0.3-1.4-0.6-1.8c-0.5-0.6-1.2-0.9-2-0.9
		c-0.7,0-1.3,0.2-1.8,0.7S64.6,161,64.5,161.9z"/>
	<path class="st4" d="M73.5,158.1h7.3v9.3h-1.6v-8h-4.2v4.6c0,1.1,0,1.8-0.1,2.1s-0.3,0.6-0.6,0.9s-0.8,0.4-1.4,0.4
		c-0.4,0-0.8,0-1.3-0.1v-1.3h0.7c0.3,0,0.6,0,0.7-0.1s0.2-0.2,0.3-0.3s0.1-0.6,0.1-1.4V158.1z"/>
	<path class="st4" d="M89.7,164.4l1.6,0.2c-0.3,1-0.7,1.7-1.4,2.2s-1.6,0.8-2.7,0.8c-1.4,0-2.4-0.4-3.2-1.3c-0.8-0.8-1.2-2-1.2-3.5
		c0-1.6,0.4-2.8,1.2-3.7s1.9-1.3,3.1-1.3c1.2,0,2.3,0.4,3.1,1.3s1.2,2,1.2,3.6c0,0.1,0,0.2,0,0.4h-7c0.1,1,0.3,1.8,0.9,2.4
		s1.2,0.8,2,0.8c0.6,0,1.1-0.2,1.5-0.5S89.4,165.1,89.7,164.4z M84.5,161.9h5.2c-0.1-0.8-0.3-1.4-0.6-1.8c-0.5-0.6-1.2-0.9-2-0.9
		c-0.7,0-1.3,0.2-1.8,0.7S84.5,161,84.5,161.9z"/>
	<path class="st4" d="M93.3,158.1h1.6v8h4.4v-8h1.6v8h1v3.9h-1.3v-2.6h-7.3V158.1z"/>
	<path class="st4" d="M114.8,158.1h6.5v8h1v3.9H121v-2.6h-7.3v2.6h-1.3v-3.9h0.8C114.3,164.6,114.9,161.9,114.8,158.1z M116.2,159.4
		c-0.1,3-0.6,5.3-1.4,6.7h5v-6.7H116.2z"/>
	<path class="st4" d="M130.5,164.4l1.6,0.2c-0.3,1-0.7,1.7-1.4,2.2s-1.6,0.8-2.7,0.8c-1.4,0-2.4-0.4-3.2-1.3c-0.8-0.8-1.2-2-1.2-3.5
		c0-1.6,0.4-2.8,1.2-3.7s1.9-1.3,3.1-1.3c1.2,0,2.3,0.4,3.1,1.3s1.2,2,1.2,3.6c0,0.1,0,0.2,0,0.4h-7c0.1,1,0.3,1.8,0.9,2.4
		s1.2,0.8,2,0.8c0.6,0,1.1-0.2,1.5-0.5S130.2,165.1,130.5,164.4z M125.3,161.9h5.2c-0.1-0.8-0.3-1.4-0.6-1.8c-0.5-0.6-1.2-0.9-2-0.9
		c-0.7,0-1.3,0.2-1.8,0.7S125.3,161,125.3,161.9z"/>
	<path class="st4" d="M134.1,158.1h1.6v3.9h4.4v-3.9h1.6v9.3h-1.6v-4.1h-4.4v4.1h-1.6V158.1z"/>
	<path class="st4" d="M150.4,164.4l1.6,0.2c-0.3,1-0.7,1.7-1.4,2.2s-1.6,0.8-2.7,0.8c-1.4,0-2.4-0.4-3.2-1.3c-0.8-0.8-1.2-2-1.2-3.5
		c0-1.6,0.4-2.8,1.2-3.7s1.9-1.3,3.1-1.3c1.2,0,2.3,0.4,3.1,1.3s1.2,2,1.2,3.6c0,0.1,0,0.2,0,0.4h-7c0.1,1,0.3,1.8,0.9,2.4
		s1.2,0.8,2,0.8c0.6,0,1.1-0.2,1.5-0.5S150.2,165.1,150.4,164.4z M145.2,161.9h5.2c-0.1-0.8-0.3-1.4-0.6-1.8c-0.5-0.6-1.2-0.9-2-0.9
		c-0.7,0-1.3,0.2-1.8,0.7S145.3,161,145.2,161.9z"/>
	<path class="st4" d="M154.1,158.1h5.4v1.3h-3.8v8h-1.6V158.1z"/>
	<path class="st4" d="M161.7,171.2h-1.1c1.8-2.8,2.6-5.6,2.6-8.4c0-1.1-0.1-2.2-0.4-3.3c-0.2-0.9-0.5-1.7-0.8-2.5
		c-0.2-0.5-0.7-1.4-1.4-2.6h1.1c1.1,1.5,1.9,2.9,2.4,4.4c0.5,1.3,0.7,2.6,0.7,4c0,1.6-0.3,3.1-0.9,4.6S162.5,170.1,161.7,171.2z"/>
</g>
<g class="st3">
	<path class="st4" d="M517.4,152.6v-12.9h1.7v5.3h6.7v-5.3h1.7v12.9h-1.7v-6.1h-6.7v6.1H517.4z"/>
	<path class="st4" d="M529.6,147.9c0-1.7,0.5-3,1.4-3.8c0.8-0.7,1.8-1,2.9-1c1.3,0,2.3,0.4,3.1,1.3s1.2,2,1.2,3.5
		c0,1.2-0.2,2.1-0.5,2.8c-0.4,0.7-0.9,1.2-1.6,1.6s-1.4,0.6-2.3,0.6c-1.3,0-2.4-0.4-3.2-1.3S529.6,149.5,529.6,147.9z M531.2,147.9
		c0,1.2,0.3,2.1,0.8,2.7c0.5,0.6,1.2,0.9,2,0.9c0.8,0,1.4-0.3,2-0.9c0.5-0.6,0.8-1.5,0.8-2.7c0-1.2-0.3-2-0.8-2.6
		c-0.5-0.6-1.2-0.9-2-0.9c-0.8,0-1.4,0.3-2,0.9S531.2,146.7,531.2,147.9z"/>
	<path class="st4" d="M546.3,152.6v-1.4c-0.7,1.1-1.7,1.6-3,1.6c-0.6,0-1.1-0.1-1.5-0.3s-0.8-0.5-1.1-0.8s-0.4-0.7-0.5-1.2
		c-0.1-0.3-0.1-0.8-0.1-1.5v-5.8h1.6v5.2c0,0.8,0,1.4,0.1,1.7c0.1,0.4,0.3,0.7,0.6,1c0.3,0.2,0.7,0.4,1.2,0.4s0.9-0.1,1.3-0.4
		s0.7-0.6,0.9-1c0.2-0.4,0.3-1,0.3-1.8v-5h1.6v9.3H546.3z"/>
	<path class="st4" d="M549.6,149.8l1.6-0.2c0.1,0.6,0.3,1.1,0.7,1.4s1,0.5,1.7,0.5c0.7,0,1.3-0.1,1.6-0.4s0.5-0.6,0.5-1
		c0-0.4-0.2-0.6-0.5-0.8c-0.2-0.1-0.8-0.3-1.6-0.5c-1.2-0.3-2-0.5-2.4-0.8s-0.8-0.5-1-0.9c-0.2-0.4-0.3-0.8-0.3-1.3
		c0-0.4,0.1-0.8,0.3-1.2c0.2-0.4,0.5-0.6,0.8-0.9c0.2-0.2,0.6-0.3,1-0.5s0.9-0.2,1.4-0.2c0.7,0,1.4,0.1,1.9,0.3s1,0.5,1.2,0.9
		c0.3,0.4,0.4,0.8,0.5,1.4l-1.5,0.2c-0.1-0.5-0.3-0.9-0.6-1.1s-0.8-0.4-1.4-0.4c-0.7,0-1.2,0.1-1.6,0.4s-0.5,0.5-0.5,0.8
		c0,0.2,0.1,0.4,0.2,0.6c0.1,0.2,0.3,0.3,0.6,0.4c0.2,0.1,0.6,0.2,1.4,0.4c1.1,0.3,1.9,0.5,2.3,0.7s0.8,0.5,1,0.8s0.4,0.8,0.4,1.4
		c0,0.5-0.2,1-0.5,1.5c-0.3,0.5-0.8,0.8-1.3,1.1c-0.6,0.3-1.2,0.4-2,0.4c-1.2,0-2.1-0.3-2.8-0.8S549.8,150.8,549.6,149.8z"/>
	<path class="st4" d="M565.6,149.6l1.6,0.2c-0.3,1-0.7,1.7-1.4,2.2s-1.6,0.8-2.7,0.8c-1.4,0-2.4-0.4-3.2-1.3c-0.8-0.8-1.2-2-1.2-3.5
		c0-1.6,0.4-2.8,1.2-3.7s1.9-1.3,3.1-1.3c1.2,0,2.3,0.4,3.1,1.3s1.2,2,1.2,3.6c0,0.1,0,0.2,0,0.4h-7c0.1,1,0.3,1.8,0.9,2.4
		s1.2,0.8,2,0.8c0.6,0,1.1-0.2,1.5-0.5S565.4,150.3,565.6,149.6z M560.4,147h5.2c-0.1-0.8-0.3-1.4-0.6-1.8c-0.5-0.6-1.2-0.9-2-0.9
		c-0.7,0-1.3,0.2-1.8,0.7S560.5,146.2,560.4,147z"/>
	<path class="st4" d="M572.7,152.6v-11.4h-4.2v-1.5h10.2v1.5h-4.3v11.4H572.7z"/>
	<path class="st4" d="M577.6,147.9c0-1.7,0.5-3,1.4-3.8c0.8-0.7,1.8-1,2.9-1c1.3,0,2.3,0.4,3.1,1.3s1.2,2,1.2,3.5
		c0,1.2-0.2,2.1-0.5,2.8c-0.4,0.7-0.9,1.2-1.6,1.6s-1.4,0.6-2.3,0.6c-1.3,0-2.4-0.4-3.2-1.3S577.6,149.5,577.6,147.9z M579.3,147.9
		c0,1.2,0.3,2.1,0.8,2.7c0.5,0.6,1.2,0.9,2,0.9c0.8,0,1.4-0.3,2-0.9s0.8-1.5,0.8-2.7c0-1.2-0.3-2-0.8-2.6c-0.5-0.6-1.2-0.9-2-0.9
		c-0.8,0-1.4,0.3-2,0.9S579.3,146.7,579.3,147.9z"/>
	<path class="st4" d="M588.2,152.6v-12.9h1.6v7.3l3.7-3.8h2l-3.6,3.5l3.9,5.9h-2l-3.1-4.8l-1.1,1.1v3.7H588.2z"/>
	<path class="st4" d="M603.6,149.6l1.6,0.2c-0.3,1-0.7,1.7-1.4,2.2s-1.6,0.8-2.7,0.8c-1.4,0-2.4-0.4-3.2-1.3c-0.8-0.8-1.2-2-1.2-3.5
		c0-1.6,0.4-2.8,1.2-3.7s1.9-1.3,3.1-1.3c1.2,0,2.3,0.4,3.1,1.3s1.2,2,1.2,3.6c0,0.1,0,0.2,0,0.4h-7c0.1,1,0.3,1.8,0.9,2.4
		s1.2,0.8,2,0.8c0.6,0,1.1-0.2,1.5-0.5S603.4,150.3,603.6,149.6z M598.4,147h5.2c-0.1-0.8-0.3-1.4-0.6-1.8c-0.5-0.6-1.2-0.9-2-0.9
		c-0.7,0-1.3,0.2-1.8,0.7S598.5,146.2,598.4,147z"/>
	<path class="st4" d="M607.2,152.6v-9.3h1.4v1.3c0.7-1,1.7-1.5,3-1.5c0.6,0,1.1,0.1,1.6,0.3c0.5,0.2,0.8,0.5,1.1,0.8
		s0.4,0.7,0.5,1.2c0.1,0.3,0.1,0.8,0.1,1.5v5.7h-1.6v-5.7c0-0.6-0.1-1.1-0.2-1.4s-0.3-0.6-0.7-0.8c-0.3-0.2-0.7-0.3-1.1-0.3
		c-0.7,0-1.3,0.2-1.7,0.6s-0.7,1.2-0.7,2.4v5.1H607.2z"/>
	<path class="st4" d="M622.3,143.3h5.4v1.3h-3.8v8h-1.6V143.3z"/>
	<path class="st4" d="M629.2,143.3h7.3v9.3H635v-8h-4.2v4.6c0,1.1,0,1.8-0.1,2.1s-0.3,0.6-0.6,0.9s-0.8,0.4-1.4,0.4
		c-0.4,0-0.8,0-1.3-0.1v-1.3h0.7c0.3,0,0.6,0,0.7-0.1s0.2-0.2,0.3-0.3s0.1-0.6,0.1-1.4V143.3z"/>
	<path class="st4" d="M638.5,147.9c0-1.7,0.5-3,1.4-3.8c0.8-0.7,1.8-1,2.9-1c1.3,0,2.3,0.4,3.1,1.3s1.2,2,1.2,3.5
		c0,1.2-0.2,2.1-0.5,2.8c-0.4,0.7-0.9,1.2-1.6,1.6s-1.4,0.6-2.3,0.6c-1.3,0-2.4-0.4-3.2-1.3S638.5,149.5,638.5,147.9z M640.2,147.9
		c0,1.2,0.3,2.1,0.8,2.7c0.5,0.6,1.2,0.9,2,0.9c0.8,0,1.4-0.3,2-0.9s0.8-1.5,0.8-2.7c0-1.2-0.3-2-0.8-2.6c-0.5-0.6-1.2-0.9-2-0.9
		c-0.8,0-1.4,0.3-2,0.9S640.2,146.7,640.2,147.9z"/>
	<path class="st4" d="M656,139.4l1.4,0c-0.1,0.6-0.2,1.1-0.4,1.3s-0.5,0.4-0.8,0.5s-1,0.1-2,0.1c-1.3,0-2.2,0.1-2.7,0.4
		s-0.8,0.7-1,1.2c-0.2,0.6-0.3,1.3-0.3,2.1c0.4-0.6,0.9-1,1.4-1.3c0.5-0.3,1.1-0.4,1.8-0.4c1.2,0,2.2,0.4,3,1.3s1.2,2,1.2,3.4
		c0,1.1-0.2,2-0.6,2.7s-0.9,1.2-1.4,1.6s-1.3,0.6-2.3,0.6c-1.1,0-2-0.3-2.6-0.8s-1.1-1.2-1.4-1.9s-0.5-2.2-0.5-4.1
		c0-2.5,0.4-4.1,1.3-5s2.1-1.3,3.9-1.3c1.1,0,1.7,0,1.8-0.1S655.9,139.5,656,139.4z M655.9,147.9c0-1-0.2-1.8-0.7-2.4
		s-1.1-0.9-1.9-0.9c-0.9,0-1.5,0.3-2,1s-0.7,1.5-0.7,2.6c0,1.1,0.3,1.9,0.8,2.5s1.2,0.9,1.9,0.9c0.8,0,1.4-0.3,1.9-1
		S655.9,149,655.9,147.9z"/>
	<path class="st4" d="M665.1,151.4c-0.6,0.5-1.2,0.8-1.7,1.1s-1.1,0.3-1.7,0.3c-1,0-1.8-0.3-2.4-0.8c-0.6-0.5-0.8-1.1-0.8-1.9
		c0-0.5,0.1-0.9,0.3-1.3c0.2-0.4,0.5-0.7,0.8-0.9s0.7-0.4,1.1-0.5c0.3-0.1,0.8-0.2,1.4-0.2c1.3-0.2,2.2-0.3,2.8-0.5
		c0-0.2,0-0.4,0-0.4c0-0.6-0.1-1.1-0.4-1.4c-0.4-0.4-1-0.5-1.8-0.5c-0.7,0-1.3,0.1-1.6,0.4s-0.6,0.7-0.8,1.4l-1.5-0.2
		c0.1-0.7,0.4-1.2,0.7-1.6c0.3-0.4,0.8-0.7,1.4-0.9c0.6-0.2,1.3-0.3,2.1-0.3c0.8,0,1.4,0.1,1.9,0.3s0.9,0.4,1.1,0.7
		c0.2,0.3,0.4,0.6,0.5,1.1c0.1,0.3,0.1,0.8,0.1,1.5v2.1c0,1.5,0,2.4,0.1,2.8c0.1,0.4,0.2,0.8,0.4,1.1h-1.7
		C665.3,152.3,665.2,151.9,665.1,151.4z M665,147.9c-0.6,0.2-1.4,0.4-2.6,0.6c-0.7,0.1-1.1,0.2-1.4,0.3s-0.5,0.3-0.6,0.5
		s-0.2,0.5-0.2,0.8c0,0.4,0.2,0.8,0.5,1.1s0.8,0.4,1.4,0.4c0.6,0,1.2-0.1,1.6-0.4s0.8-0.6,1-1.1c0.2-0.4,0.3-0.9,0.3-1.6V147.9z"/>
	<path class="st4" d="M669.8,143.3h7.3v9.3h-1.6v-8h-4.2v4.6c0,1.1,0,1.8-0.1,2.1s-0.3,0.6-0.6,0.9s-0.8,0.4-1.4,0.4
		c-0.4,0-0.8,0-1.3-0.1v-1.3h0.7c0.3,0,0.6,0,0.7-0.1s0.2-0.2,0.3-0.3s0.1-0.6,0.1-1.4V143.3z"/>
	<path class="st4" d="M679.5,143.3h1.6v3.6h2c1.3,0,2.3,0.3,3,0.8s1.1,1.2,1.1,2.1c0,0.8-0.3,1.4-0.9,2c-0.6,0.6-1.5,0.8-2.8,0.8h-4
		V143.3z M681.1,151.3h1.7c1,0,1.7-0.1,2.1-0.4s0.6-0.6,0.6-1.2c0-0.4-0.2-0.8-0.5-1.1s-1-0.5-2.1-0.5h-1.9V151.3z"/>
	<path class="st4" d="M688.9,143.3h1.6v3.9h4.4v-3.9h1.6v9.3h-1.6v-4.1h-4.4v4.1h-1.6V143.3z"/>
	<path class="st4" d="M698.9,143.3h1.6v3.6h2c1.3,0,2.3,0.3,3,0.8s1.1,1.2,1.1,2.1c0,0.8-0.3,1.4-0.9,2c-0.6,0.6-1.5,0.8-2.8,0.8h-4
		V143.3z M700.5,151.3h1.7c1,0,1.7-0.1,2.1-0.4s0.6-0.6,0.6-1.2c0-0.4-0.2-0.8-0.5-1.1s-1-0.5-2.1-0.5h-1.9V151.3z M707.8,143.3h1.6
		v9.3h-1.6V143.3z"/>
	<path class="st4" d="M711.8,143.3h1.6v7.1l4.4-7.1h1.7v9.3h-1.6v-7.1l-4.4,7.1h-1.7V143.3z M717.3,139.7h1.1
		c-0.1,0.7-0.4,1.3-0.8,1.7s-1,0.6-1.8,0.6c-0.8,0-1.3-0.2-1.8-0.6c-0.4-0.4-0.7-1-0.8-1.7h1.1c0.1,0.4,0.2,0.7,0.5,0.9
		s0.6,0.3,1,0.3c0.5,0,0.8-0.1,1.1-0.3C717.1,140.4,717.2,140.1,717.3,139.7z"/>
	<path class="st4" d="M732.3,139.7h1.6v4.5c0.3-0.4,0.7-0.7,1.1-0.8c0.4-0.2,0.8-0.3,1.3-0.3c1.1,0,2,0.5,2.6,1.4
		c0.6,0.9,1,2.1,1,3.5c0,1.5-0.3,2.6-1,3.5c-0.7,0.9-1.6,1.3-2.6,1.3c-0.3,0-0.7-0.1-1-0.2s-0.8-0.4-1.3-0.9v4.4h-1.6v-4.4
		c-0.3,0.3-0.7,0.6-1.1,0.8s-0.8,0.3-1.2,0.3c-1,0-1.8-0.4-2.6-1.3s-1.1-2.1-1.1-3.7c0-1.4,0.3-2.5,1-3.4c0.7-0.9,1.6-1.4,2.7-1.4
		c0.5,0,0.9,0.1,1.3,0.3c0.4,0.2,0.7,0.5,1,0.8V139.7z M727.9,147.8c0,1.3,0.2,2.3,0.7,2.8s1,0.9,1.6,0.9c0.7,0,1.2-0.3,1.5-0.9
		s0.5-1.4,0.5-2.6c0-1.2-0.2-2.2-0.5-2.8s-0.9-0.9-1.6-0.9c-0.7,0-1.2,0.3-1.6,0.9C728.1,145.9,727.9,146.7,727.9,147.8z M733.9,148
		c0,1.4,0.2,2.4,0.6,2.8c0.4,0.5,0.9,0.7,1.5,0.7c0.6,0,1.2-0.3,1.6-0.9c0.5-0.6,0.7-1.5,0.7-2.8c0-1.2-0.2-2.1-0.6-2.6
		s-1-0.9-1.6-0.9c-0.7,0-1.2,0.3-1.6,0.9S733.9,146.8,733.9,148z"/>
	<path class="st4" d="M741.1,147.9c0-1.7,0.5-3,1.4-3.8c0.8-0.7,1.8-1,2.9-1c1.3,0,2.3,0.4,3.1,1.3s1.2,2,1.2,3.5
		c0,1.2-0.2,2.1-0.5,2.8c-0.4,0.7-0.9,1.2-1.6,1.6s-1.4,0.6-2.3,0.6c-1.3,0-2.4-0.4-3.2-1.3S741.1,149.5,741.1,147.9z M742.7,147.9
		c0,1.2,0.3,2.1,0.8,2.7c0.5,0.6,1.2,0.9,2,0.9c0.8,0,1.4-0.3,2-0.9s0.8-1.5,0.8-2.7c0-1.2-0.3-2-0.8-2.6c-0.5-0.6-1.2-0.9-2-0.9
		c-0.8,0-1.4,0.3-2,0.9S742.7,146.7,742.7,147.9z"/>
	<path class="st4" d="M751.7,143.3h1.6v3.9h4.4v-3.9h1.6v9.3h-1.6v-4.1h-4.4v4.1h-1.6V143.3z"/>
	<path class="st4" d="M762.9,143.3h6.5v8h1v3.9h-1.3v-2.6h-7.3v2.6h-1.3v-3.9h0.8C762.4,149.8,762.9,147.1,762.9,143.3z
		 M764.2,144.6c-0.1,3-0.6,5.3-1.4,6.7h5v-6.7H764.2z"/>
	<path class="st4" d="M777.1,143.3h1.6v3.9h4.4v-3.9h1.6v9.3h-1.6v-4.1h-4.4v4.1h-1.6V143.3z"/>
	<path class="st4" d="M793.5,149.6l1.6,0.2c-0.3,1-0.7,1.7-1.4,2.2s-1.6,0.8-2.7,0.8c-1.4,0-2.4-0.4-3.2-1.3c-0.8-0.8-1.2-2-1.2-3.5
		c0-1.6,0.4-2.8,1.2-3.7s1.9-1.3,3.1-1.3c1.2,0,2.3,0.4,3.1,1.3s1.2,2,1.2,3.6c0,0.1,0,0.2,0,0.4h-7c0.1,1,0.3,1.8,0.9,2.4
		s1.2,0.8,2,0.8c0.6,0,1.1-0.2,1.5-0.5S793.2,150.3,793.5,149.6z M788.3,147h5.2c-0.1-0.8-0.3-1.4-0.6-1.8c-0.5-0.6-1.2-0.9-2-0.9
		c-0.7,0-1.3,0.2-1.8,0.7S788.3,146.2,788.3,147z"/>
	<path class="st4" d="M797.9,143.3h6.5v8h1v3.9h-1.3v-2.6h-7.3v2.6h-1.3v-3.9h0.8C797.4,149.8,798,147.1,797.9,143.3z M799.2,144.6
		c-0.1,3-0.6,5.3-1.4,6.7h5v-6.7H799.2z"/>
	<path class="st4" d="M807.2,143.3h3.6c0.9,0,1.6,0.1,2,0.2c0.4,0.1,0.8,0.4,1.1,0.8s0.5,0.9,0.5,1.4c0,0.4-0.1,0.8-0.3,1.2
		c-0.2,0.3-0.5,0.6-0.8,0.8c0.4,0.1,0.8,0.4,1.1,0.8c0.3,0.4,0.4,0.9,0.4,1.4c-0.1,0.9-0.4,1.5-0.9,2s-1.4,0.6-2.5,0.6h-4.2V143.3z
		 M808.8,147.2h1.7c0.7,0,1.1,0,1.4-0.1s0.5-0.2,0.7-0.4c0.2-0.2,0.3-0.5,0.3-0.8c0-0.5-0.2-0.8-0.5-1s-0.9-0.3-1.8-0.3h-1.7V147.2z
		 M808.8,151.3h2.1c0.9,0,1.5-0.1,1.8-0.3c0.3-0.2,0.5-0.6,0.5-1.1c0-0.3-0.1-0.6-0.3-0.8c-0.2-0.3-0.4-0.4-0.8-0.5
		c-0.3-0.1-0.8-0.1-1.5-0.1h-1.9V151.3z"/>
	<path class="st4" d="M816.7,143.3h1.6v7.1l4.4-7.1h1.7v9.3h-1.6v-7.1l-4.4,7.1h-1.7V143.3z"/>
	<path class="st4" d="M832.4,143.3v4c0.5,0,0.9-0.1,1.1-0.3s0.5-0.8,0.9-1.7c0.4-0.9,0.7-1.5,1-1.7c0.3-0.2,0.7-0.4,1.4-0.4h0.6v1.3
		l-0.4,0c-0.4,0-0.7,0.1-0.8,0.2c-0.1,0.1-0.3,0.5-0.6,1.2c-0.2,0.6-0.5,1-0.7,1.3s-0.5,0.4-0.9,0.6c0.7,0.2,1.4,0.8,2,1.9l1.7,2.9
		H836l-1.7-2.9c-0.3-0.6-0.6-1-0.9-1.2s-0.6-0.3-0.9-0.3v4.3h-1.6v-4.3c-0.4,0-0.7,0.1-0.9,0.3s-0.6,0.6-0.9,1.2l-1.7,2.9h-1.7
		l1.7-2.9c0.7-1.1,1.3-1.7,2-1.9c-0.5-0.2-0.8-0.5-1-0.7c-0.2-0.3-0.5-0.9-0.8-1.8c-0.1-0.3-0.3-0.5-0.4-0.6
		c-0.2-0.1-0.4-0.1-0.7-0.1c-0.1,0-0.2,0-0.5,0v-1.3h0.2c0.6,0,1,0,1.3,0.1c0.2,0.1,0.5,0.2,0.7,0.5c0.2,0.2,0.5,0.7,0.8,1.5
		c0.4,0.9,0.7,1.5,0.9,1.7s0.6,0.3,1.1,0.3v-4H832.4z"/>
	<path class="st4" d="M838.8,143.3h1.6v7.1l4.4-7.1h1.7v9.3h-1.6v-7.1l-4.4,7.1h-1.7V143.3z"/>
	<path class="st4" d="M848.9,143.3h2.5l2.5,7.5l2.7-7.5h2.3v9.3h-1.6v-7.5l-2.8,7.5h-1.4l-2.6-7.9v7.9h-1.5V143.3z"/>
	<path class="st4" d="M860.7,147.9c0-1.7,0.5-3,1.4-3.8c0.8-0.7,1.8-1,2.9-1c1.3,0,2.3,0.4,3.1,1.3s1.2,2,1.2,3.5
		c0,1.2-0.2,2.1-0.5,2.8c-0.4,0.7-0.9,1.2-1.6,1.6s-1.4,0.6-2.3,0.6c-1.3,0-2.4-0.4-3.2-1.3S860.7,149.5,860.7,147.9z M862.3,147.9
		c0,1.2,0.3,2.1,0.8,2.7c0.5,0.6,1.2,0.9,2,0.9c0.8,0,1.4-0.3,2-0.9s0.8-1.5,0.8-2.7c0-1.2-0.3-2-0.8-2.6c-0.5-0.6-1.2-0.9-2-0.9
		c-0.8,0-1.4,0.3-2,0.9S862.3,146.7,862.3,147.9z"/>
	<path class="st4" d="M877.4,149.2l1.6,0.2c-0.2,1.1-0.6,1.9-1.3,2.5c-0.7,0.6-1.6,0.9-2.6,0.9c-1.3,0-2.3-0.4-3.1-1.3
		c-0.8-0.8-1.2-2-1.2-3.6c0-1,0.2-1.9,0.5-2.6s0.8-1.3,1.5-1.7c0.7-0.4,1.4-0.6,2.2-0.6c1,0,1.8,0.3,2.5,0.8s1.1,1.2,1.2,2.2
		l-1.5,0.2c-0.1-0.6-0.4-1.1-0.8-1.4s-0.8-0.5-1.3-0.5c-0.8,0-1.4,0.3-1.9,0.9c-0.5,0.6-0.7,1.5-0.7,2.7c0,1.3,0.2,2.2,0.7,2.7
		s1.1,0.9,1.9,0.9c0.6,0,1.1-0.2,1.6-0.6S877.3,150,877.4,149.2z"/>
	<path class="st4" d="M879.4,143.3h7.6v1.3h-3v8h-1.6v-8h-3V143.3z"/>
	<path class="st4" d="M888.5,143.3h1.6v7.1l4.4-7.1h1.7v9.3h-1.6v-7.1l-4.4,7.1h-1.7V143.3z"/>
	<path class="st4" d="M608.9,178c-0.9-1.1-1.6-2.4-2.2-3.9s-0.9-3-0.9-4.6c0-1.4,0.2-2.7,0.7-4c0.5-1.5,1.3-3,2.4-4.4h1.1
		c-0.7,1.2-1.2,2.1-1.4,2.6c-0.4,0.8-0.6,1.7-0.8,2.5c-0.3,1.1-0.4,2.2-0.4,3.3c0,2.8,0.9,5.6,2.6,8.4H608.9z"/>
	<path class="st4" d="M617.3,161.3h1.6v4.5c0.3-0.4,0.7-0.7,1.1-0.8c0.4-0.2,0.8-0.3,1.3-0.3c1.1,0,2,0.5,2.6,1.4
		c0.6,0.9,1,2.1,1,3.5c0,1.5-0.3,2.6-1,3.5c-0.7,0.9-1.6,1.3-2.6,1.3c-0.3,0-0.7-0.1-1-0.2s-0.8-0.4-1.3-0.9v4.4h-1.6v-4.4
		c-0.3,0.3-0.7,0.6-1.1,0.8s-0.8,0.3-1.2,0.3c-1,0-1.8-0.4-2.6-1.3s-1.1-2.1-1.1-3.7c0-1.4,0.3-2.5,1-3.4c0.7-0.9,1.6-1.4,2.7-1.4
		c0.5,0,0.9,0.1,1.3,0.3c0.4,0.2,0.7,0.5,1,0.8V161.3z M612.9,169.4c0,1.3,0.2,2.3,0.7,2.8s1,0.9,1.6,0.9c0.7,0,1.2-0.3,1.5-0.9
		s0.5-1.4,0.5-2.6c0-1.2-0.2-2.2-0.5-2.8s-0.9-0.9-1.6-0.9c-0.7,0-1.2,0.3-1.6,0.9C613.1,167.5,612.9,168.3,612.9,169.4z
		 M618.8,169.6c0,1.4,0.2,2.4,0.6,2.8c0.4,0.5,0.9,0.7,1.5,0.7c0.6,0,1.2-0.3,1.6-0.9c0.5-0.6,0.7-1.5,0.7-2.8
		c0-1.2-0.2-2.1-0.6-2.6s-1-0.9-1.6-0.9c-0.7,0-1.2,0.3-1.6,0.9S618.8,168.4,618.8,169.6z"/>
	<path class="st4" d="M626,169.5c0-1.7,0.5-3,1.4-3.8c0.8-0.7,1.8-1,2.9-1c1.3,0,2.3,0.4,3.1,1.3s1.2,2,1.2,3.5
		c0,1.2-0.2,2.1-0.5,2.8c-0.4,0.7-0.9,1.2-1.6,1.6s-1.4,0.6-2.3,0.6c-1.3,0-2.4-0.4-3.2-1.3S626,171.1,626,169.5z M627.7,169.5
		c0,1.2,0.3,2.1,0.8,2.7c0.5,0.6,1.2,0.9,2,0.9c0.8,0,1.4-0.3,2-0.9s0.8-1.5,0.8-2.7c0-1.2-0.3-2-0.8-2.6c-0.5-0.6-1.2-0.9-2-0.9
		c-0.8,0-1.4,0.3-2,0.9S627.7,168.3,627.7,169.5z"/>
	<path class="st4" d="M636.7,164.9h1.6v3.9h4.4v-3.9h1.6v9.3h-1.6v-4.1h-4.4v4.1h-1.6V164.9z"/>
	<path class="st4" d="M647.8,164.9h6.5v8h1v3.9H654v-2.6h-7.3v2.6h-1.3v-3.9h0.8C647.3,171.4,647.9,168.7,647.8,164.9z M649.1,166.2
		c-0.1,3-0.6,5.3-1.4,6.7h5v-6.7H649.1z"/>
	<path class="st4" d="M659.9,174.2l4.9-12.9h1.8l5.3,12.9H670l-1.5-3.9h-5.4l-1.4,3.9H659.9z M663.6,168.9h4.4l-1.3-3.6
		c-0.4-1.1-0.7-2-0.9-2.7c-0.2,0.8-0.4,1.6-0.7,2.5L663.6,168.9z"/>
	<path class="st4" d="M673.6,174.2v-12.9h1.7v12.9H673.6z"/>
	<path class="st4" d="M678.4,174.2v-12.9h8.7v1.5h-7v4h6v1.5h-6v5.9H678.4z"/>
	<path class="st4" d="M689.2,174.2v-12.9h2.6l3,9.1c0.3,0.8,0.5,1.5,0.6,1.9c0.1-0.5,0.4-1.2,0.7-2.1l3.1-9h2.3v12.9h-1.6v-10.8
		l-3.7,10.8h-1.5l-3.7-11v11H689.2z"/>
	<path class="st4" d="M710.2,161.3h8.1v12.9h-1.7v-11.4h-4.7v6.6c0,1.3-0.1,2.3-0.2,3s-0.4,1.1-0.8,1.5c-0.4,0.3-0.9,0.5-1.5,0.5
		c-0.4,0-0.8-0.1-1.4-0.2l0.3-1.5c0.3,0.1,0.5,0.2,0.7,0.2c0.4,0,0.7-0.1,0.9-0.4c0.2-0.3,0.3-1,0.3-2.1V161.3z"/>
	<path class="st4" d="M720.9,164.9h1.6v3.9h1.9c0.1-1.3,0.6-2.4,1.3-3.1s1.6-1.1,2.7-1.1c0.9,0,1.7,0.2,2.2,0.6s1,0.9,1.3,1.6
		s0.5,1.6,0.5,2.7c0,1.6-0.4,2.8-1.1,3.7s-1.7,1.2-3,1.2c-1.2,0-2.1-0.4-2.8-1.2s-1.1-1.8-1.2-3.2h-1.9v4.1h-1.6V164.9z M728.5,166
		c-0.8,0-1.4,0.3-1.8,0.9c-0.4,0.6-0.6,1.4-0.6,2.5c0,1.3,0.2,2.2,0.7,2.8s1,0.9,1.7,0.9c0.7,0,1.3-0.3,1.8-0.8
		c0.5-0.6,0.7-1.4,0.7-2.7c0-1.2-0.2-2.1-0.6-2.7S729.3,166,728.5,166z"/>
	<path class="st4" d="M734.4,164.9h1.6v4c0.5,0,0.9-0.1,1.1-0.3s0.5-0.8,0.9-1.7c0.3-0.7,0.6-1.2,0.8-1.5s0.4-0.4,0.7-0.5
		s0.7-0.1,1.2-0.1h0.3v1.3l-0.4,0c-0.4,0-0.7,0.1-0.8,0.2c-0.1,0.1-0.3,0.5-0.6,1.2c-0.2,0.6-0.5,1-0.7,1.3s-0.5,0.4-0.9,0.6
		c0.7,0.2,1.3,0.8,2,1.9l1.7,2.9h-1.7l-1.7-2.9c-0.3-0.6-0.6-1-0.9-1.1c-0.3-0.2-0.6-0.3-0.9-0.3v4.3h-1.6V164.9z"/>
	<path class="st4" d="M748.6,170.8l1.6,0.2c-0.2,1.1-0.6,1.9-1.3,2.5c-0.7,0.6-1.6,0.9-2.6,0.9c-1.3,0-2.3-0.4-3.1-1.3
		c-0.8-0.8-1.2-2-1.2-3.6c0-1,0.2-1.9,0.5-2.6s0.8-1.3,1.5-1.7c0.7-0.4,1.4-0.6,2.2-0.6c1,0,1.8,0.3,2.5,0.8s1.1,1.2,1.2,2.2
		l-1.5,0.2c-0.1-0.6-0.4-1.1-0.8-1.4s-0.8-0.5-1.3-0.5c-0.8,0-1.4,0.3-1.9,0.9c-0.5,0.6-0.7,1.5-0.7,2.7c0,1.3,0.2,2.2,0.7,2.7
		s1.1,0.9,1.9,0.9c0.6,0,1.1-0.2,1.6-0.6S748.5,171.6,748.6,170.8z"/>
	<path class="st4" d="M757.9,171.2l1.6,0.2c-0.3,1-0.7,1.7-1.4,2.2s-1.6,0.8-2.7,0.8c-1.4,0-2.4-0.4-3.2-1.3c-0.8-0.8-1.2-2-1.2-3.5
		c0-1.6,0.4-2.8,1.2-3.7s1.9-1.3,3.1-1.3c1.2,0,2.3,0.4,3.1,1.3s1.2,2,1.2,3.6c0,0.1,0,0.2,0,0.4h-7c0.1,1,0.3,1.8,0.9,2.4
		s1.2,0.8,2,0.8c0.6,0,1.1-0.2,1.5-0.5S757.6,171.9,757.9,171.2z M752.7,168.6h5.2c-0.1-0.8-0.3-1.4-0.6-1.8c-0.5-0.6-1.2-0.9-2-0.9
		c-0.7,0-1.3,0.2-1.8,0.7S752.7,167.8,752.7,168.6z"/>
	<path class="st4" d="M761.5,164.9h2.5l2.5,7.5l2.7-7.5h2.3v9.3h-1.6v-7.5l-2.8,7.5h-1.4l-2.6-7.9v7.9h-1.5V164.9z"/>
	<path class="st4" d="M780.5,161l1.4,0c-0.1,0.6-0.2,1.1-0.4,1.3s-0.5,0.4-0.8,0.5s-1,0.1-2,0.1c-1.3,0-2.2,0.1-2.7,0.4
		s-0.8,0.7-1,1.2c-0.2,0.6-0.3,1.3-0.3,2.1c0.4-0.6,0.9-1,1.4-1.3c0.5-0.3,1.1-0.4,1.8-0.4c1.2,0,2.2,0.4,3,1.3s1.2,2,1.2,3.4
		c0,1.1-0.2,2-0.6,2.7s-0.9,1.2-1.4,1.6s-1.3,0.6-2.3,0.6c-1.1,0-2-0.3-2.6-0.8s-1.1-1.2-1.4-1.9s-0.5-2.2-0.5-4.1
		c0-2.5,0.4-4.1,1.3-5s2.1-1.3,3.9-1.3c1.1,0,1.7,0,1.8-0.1S780.5,161.1,780.5,161z M780.4,169.5c0-1-0.2-1.8-0.7-2.4
		s-1.1-0.9-1.9-0.9c-0.9,0-1.5,0.3-2,1s-0.7,1.5-0.7,2.6c0,1.1,0.3,1.9,0.8,2.5s1.2,0.9,1.9,0.9c0.8,0,1.4-0.3,1.9-1
		S780.4,170.6,780.4,169.5z"/>
	<path class="st4" d="M783.5,177.8l-0.2-1.5c0.3,0.1,0.6,0.1,0.9,0.1c0.4,0,0.6-0.1,0.8-0.2s0.4-0.3,0.5-0.5
		c0.1-0.2,0.3-0.6,0.5-1.2c0-0.1,0.1-0.2,0.1-0.4l-3.5-9.4h1.7l1.9,5.4c0.3,0.7,0.5,1.4,0.7,2.2c0.2-0.7,0.4-1.4,0.7-2.1l2-5.4h1.6
		l-3.6,9.5c-0.4,1-0.7,1.7-0.9,2.1c-0.3,0.5-0.6,0.9-1,1.1c-0.4,0.2-0.8,0.4-1.3,0.4C784.2,178,783.9,177.9,783.5,177.8z"/>
	<path class="st4" d="M792.4,177.8v-12.9h1.4v1.2c0.3-0.5,0.7-0.8,1.2-1.1c0.4-0.2,0.9-0.4,1.6-0.4c0.8,0,1.5,0.2,2.1,0.6
		s1.1,1,1.4,1.7c0.3,0.7,0.5,1.6,0.5,2.5c0,1-0.2,1.8-0.5,2.6c-0.3,0.8-0.8,1.4-1.5,1.8c-0.7,0.4-1.3,0.6-2.1,0.6
		c-0.5,0-1-0.1-1.4-0.3s-0.8-0.5-1-0.8v4.5H792.4z M793.8,169.6c0,1.2,0.2,2.1,0.7,2.7s1.1,0.9,1.8,0.9c0.7,0,1.3-0.3,1.8-0.9
		c0.5-0.6,0.8-1.5,0.8-2.8c0-1.2-0.2-2.1-0.7-2.7s-1.1-0.9-1.8-0.9c-0.7,0-1.3,0.3-1.8,0.9C794.1,167.5,793.8,168.4,793.8,169.6z"/>
	<path class="st4" d="M802.4,164.9h5.4v1.3H804v8h-1.6V164.9z"/>
	<path class="st4" d="M810,178h-1.1c1.8-2.8,2.6-5.6,2.6-8.4c0-1.1-0.1-2.2-0.4-3.3c-0.2-0.9-0.5-1.7-0.8-2.5
		c-0.2-0.5-0.7-1.4-1.4-2.6h1.1c1.1,1.5,1.9,2.9,2.4,4.4c0.5,1.3,0.7,2.6,0.7,4c0,1.6-0.3,3.1-0.9,4.6S810.9,176.9,810,178z"/>
</g>
<g class="st3">
	<path class="st4" d="M928.6,122h1.7v5.6c0.8,0,1.3-0.2,1.6-0.5c0.3-0.3,0.7-1,1.2-2.2c0.4-0.8,0.7-1.4,0.9-1.8s0.6-0.6,1-0.9
		c0.4-0.2,0.9-0.4,1.4-0.4c0.7,0,1,0,1,0v1.5c-0.1,0-0.2,0-0.3,0c-0.2,0-0.3,0-0.3,0c-0.5,0-0.9,0.1-1.2,0.4
		c-0.3,0.3-0.6,0.8-0.9,1.7c-0.4,1.1-0.8,1.8-1.1,2.1c-0.3,0.3-0.7,0.5-1.1,0.7c0.8,0.2,1.7,1,2.5,2.3l2.7,4.3h-2.1l-2.2-3.5
		c-0.6-1-1.1-1.6-1.5-2c-0.4-0.4-0.9-0.5-1.5-0.5v6h-1.7V122z"/>
	<path class="st4" d="M945,133.8c-0.6,0.5-1.2,0.8-1.7,1.1s-1.1,0.3-1.7,0.3c-1,0-1.8-0.3-2.4-0.8c-0.6-0.5-0.8-1.1-0.8-1.9
		c0-0.5,0.1-0.9,0.3-1.3c0.2-0.4,0.5-0.7,0.8-0.9s0.7-0.4,1.1-0.5c0.3-0.1,0.8-0.2,1.4-0.2c1.3-0.2,2.2-0.3,2.8-0.5
		c0-0.2,0-0.4,0-0.4c0-0.6-0.1-1.1-0.4-1.4c-0.4-0.4-1-0.5-1.8-0.5c-0.7,0-1.3,0.1-1.6,0.4s-0.6,0.7-0.8,1.4l-1.5-0.2
		c0.1-0.7,0.4-1.2,0.7-1.6c0.3-0.4,0.8-0.7,1.4-0.9c0.6-0.2,1.3-0.3,2.1-0.3c0.8,0,1.4,0.1,1.9,0.3s0.9,0.4,1.1,0.7
		c0.2,0.3,0.4,0.6,0.5,1.1c0.1,0.3,0.1,0.8,0.1,1.5v2.1c0,1.5,0,2.4,0.1,2.8c0.1,0.4,0.2,0.8,0.4,1.1h-1.7
		C945.1,134.6,945,134.2,945,133.8z M944.9,130.2c-0.6,0.2-1.4,0.4-2.6,0.6c-0.7,0.1-1.1,0.2-1.4,0.3s-0.5,0.3-0.6,0.5
		s-0.2,0.5-0.2,0.8c0,0.4,0.2,0.8,0.5,1.1s0.8,0.4,1.4,0.4c0.6,0,1.2-0.1,1.6-0.4s0.8-0.6,1-1.1c0.2-0.4,0.3-0.9,0.3-1.6V130.2z"/>
	<path class="st4" d="M947.9,125.6h1.6v1.8c0,0.8,0,1.3,0.1,1.7c0.1,0.3,0.3,0.6,0.7,0.9c0.3,0.3,0.8,0.4,1.3,0.4
		c0.6,0,1.4-0.2,2.3-0.5v-4.2h1.6v9.3h-1.6v-3.8c-1,0.3-1.9,0.5-2.7,0.5c-0.7,0-1.3-0.2-1.9-0.5c-0.5-0.4-0.9-0.8-1.1-1.3
		s-0.3-1.1-0.3-1.7V125.6z"/>
	<path class="st4" d="M964.3,131.9l1.6,0.2c-0.3,1-0.7,1.7-1.4,2.2s-1.6,0.8-2.7,0.8c-1.4,0-2.4-0.4-3.2-1.3c-0.8-0.8-1.2-2-1.2-3.5
		c0-1.6,0.4-2.8,1.2-3.7s1.9-1.3,3.1-1.3c1.2,0,2.3,0.4,3.1,1.3s1.2,2,1.2,3.6c0,0.1,0,0.2,0,0.4h-7c0.1,1,0.3,1.8,0.9,2.4
		s1.2,0.8,2,0.8c0.6,0,1.1-0.2,1.5-0.5S964,132.6,964.3,131.9z M959.1,129.4h5.2c-0.1-0.8-0.3-1.4-0.6-1.8c-0.5-0.6-1.2-0.9-2-0.9
		c-0.7,0-1.3,0.2-1.8,0.7S959.1,128.6,959.1,129.4z"/>
	<path class="st4" d="M974,131.5l1.6,0.2c-0.2,1.1-0.6,1.9-1.3,2.5c-0.7,0.6-1.6,0.9-2.6,0.9c-1.3,0-2.3-0.4-3.1-1.3
		c-0.8-0.8-1.2-2-1.2-3.6c0-1,0.2-1.9,0.5-2.6s0.8-1.3,1.5-1.7c0.7-0.4,1.4-0.6,2.2-0.6c1,0,1.8,0.3,2.5,0.8s1.1,1.2,1.2,2.2
		l-1.5,0.2c-0.1-0.6-0.4-1.1-0.8-1.4s-0.8-0.5-1.3-0.5c-0.8,0-1.4,0.3-1.9,0.9c-0.5,0.6-0.7,1.5-0.7,2.7c0,1.3,0.2,2.2,0.7,2.7
		s1.1,0.9,1.9,0.9c0.6,0,1.1-0.2,1.6-0.6S973.9,132.3,974,131.5z"/>
	<path class="st4" d="M976.1,125.6h7.6v1.3h-3v8h-1.6v-8h-3V125.6z"/>
	<path class="st4" d="M985.2,125.6h3.6c0.9,0,1.6,0.1,2,0.2c0.4,0.1,0.8,0.4,1.1,0.8s0.5,0.9,0.5,1.4c0,0.4-0.1,0.8-0.3,1.2
		c-0.2,0.3-0.5,0.6-0.8,0.8c0.4,0.1,0.8,0.4,1.1,0.8c0.3,0.4,0.4,0.9,0.4,1.4c-0.1,0.9-0.4,1.5-0.9,2s-1.4,0.6-2.5,0.6h-4.2V125.6z
		 M986.7,129.5h1.7c0.7,0,1.1,0,1.4-0.1s0.5-0.2,0.7-0.4c0.2-0.2,0.3-0.5,0.3-0.8c0-0.5-0.2-0.8-0.5-1s-0.9-0.3-1.8-0.3h-1.7V129.5z
		 M986.7,133.6h2.1c0.9,0,1.5-0.1,1.8-0.3c0.3-0.2,0.5-0.6,0.5-1.1c0-0.3-0.1-0.6-0.3-0.8c-0.2-0.3-0.4-0.4-0.8-0.5
		c-0.3-0.1-0.8-0.1-1.5-0.1h-1.9V133.6z"/>
	<path class="st4" d="M1000.9,131.9l1.6,0.2c-0.3,1-0.7,1.7-1.4,2.2s-1.6,0.8-2.7,0.8c-1.4,0-2.4-0.4-3.2-1.3
		c-0.8-0.8-1.2-2-1.2-3.5c0-1.6,0.4-2.8,1.2-3.7s1.9-1.3,3.1-1.3c1.2,0,2.3,0.4,3.1,1.3s1.2,2,1.2,3.6c0,0.1,0,0.2,0,0.4h-7
		c0.1,1,0.3,1.8,0.9,2.4s1.2,0.8,2,0.8c0.6,0,1.1-0.2,1.5-0.5S1000.7,132.6,1000.9,131.9z M995.7,129.4h5.2
		c-0.1-0.8-0.3-1.4-0.6-1.8c-0.5-0.6-1.2-0.9-2-0.9c-0.7,0-1.3,0.2-1.8,0.7S995.8,128.6,995.7,129.4z"/>
	<path class="st4" d="M1004.5,125.6h1.6v3.9h4.4v-3.9h1.6v9.3h-1.6v-4.1h-4.4v4.1h-1.6V125.6z"/>
	<path class="st4" d="M1014.5,125.6h1.6v3.9h4.4v-3.9h1.6v9.3h-1.6v-4.1h-4.4v4.1h-1.6V125.6z"/>
	<path class="st4" d="M1030.5,133.8c-0.6,0.5-1.2,0.8-1.7,1.1s-1.1,0.3-1.7,0.3c-1,0-1.8-0.3-2.4-0.8c-0.6-0.5-0.8-1.1-0.8-1.9
		c0-0.5,0.1-0.9,0.3-1.3c0.2-0.4,0.5-0.7,0.8-0.9s0.7-0.4,1.1-0.5c0.3-0.1,0.8-0.2,1.4-0.2c1.3-0.2,2.2-0.3,2.8-0.5
		c0-0.2,0-0.4,0-0.4c0-0.6-0.1-1.1-0.4-1.4c-0.4-0.4-1-0.5-1.8-0.5c-0.7,0-1.3,0.1-1.6,0.4s-0.6,0.7-0.8,1.4l-1.5-0.2
		c0.1-0.7,0.4-1.2,0.7-1.6c0.3-0.4,0.8-0.7,1.4-0.9c0.6-0.2,1.3-0.3,2.1-0.3c0.8,0,1.4,0.1,1.9,0.3s0.9,0.4,1.1,0.7
		c0.2,0.3,0.4,0.6,0.5,1.1c0.1,0.3,0.1,0.8,0.1,1.5v2.1c0,1.5,0,2.4,0.1,2.8c0.1,0.4,0.2,0.8,0.4,1.1h-1.7
		C1030.6,134.6,1030.5,134.2,1030.5,133.8z M1030.4,130.2c-0.6,0.2-1.4,0.4-2.6,0.6c-0.7,0.1-1.1,0.2-1.4,0.3s-0.5,0.3-0.6,0.5
		s-0.2,0.5-0.2,0.8c0,0.4,0.2,0.8,0.5,1.1s0.8,0.4,1.4,0.4c0.6,0,1.2-0.1,1.6-0.4s0.8-0.6,1-1.1c0.2-0.4,0.3-0.9,0.3-1.6V130.2z"/>
	<path class="st4" d="M1041.8,125.6v9.3h-1.6v-3.6h-0.9c-0.6,0-1,0.1-1.2,0.2c-0.3,0.1-0.7,0.6-1.2,1.4l-1.4,2h-2l1.7-2.5
		c0.5-0.8,1-1.2,1.6-1.3c-0.9-0.1-1.6-0.4-2-1s-0.7-1.1-0.7-1.8c0-0.8,0.3-1.5,0.9-2s1.4-0.8,2.5-0.8H1041.8z M1040.2,126.9h-2.3
		c-0.9,0-1.6,0.1-1.8,0.4s-0.4,0.6-0.4,1c0,0.6,0.2,1,0.6,1.2s1.1,0.4,2.1,0.4h1.7V126.9z"/>
	<path class="st4" d="M929.3,147.2h1.6v4c0.5,0,0.9-0.1,1.1-0.3s0.5-0.8,0.9-1.7c0.3-0.7,0.6-1.2,0.8-1.5s0.4-0.4,0.7-0.5
		s0.7-0.1,1.2-0.1h0.3v1.3l-0.4,0c-0.4,0-0.7,0.1-0.8,0.2c-0.1,0.1-0.3,0.5-0.6,1.2c-0.2,0.6-0.5,1-0.7,1.3s-0.5,0.4-0.9,0.6
		c0.7,0.2,1.3,0.8,2,1.9l1.7,2.9h-1.7l-1.7-2.9c-0.3-0.6-0.6-1-0.9-1.1c-0.3-0.2-0.6-0.3-0.9-0.3v4.3h-1.6V147.2z"/>
	<path class="st4" d="M936.8,151.9c0-1.7,0.5-3,1.4-3.8c0.8-0.7,1.8-1,2.9-1c1.3,0,2.3,0.4,3.1,1.3s1.2,2,1.2,3.5
		c0,1.2-0.2,2.1-0.5,2.8c-0.4,0.7-0.9,1.2-1.6,1.6s-1.4,0.6-2.3,0.6c-1.3,0-2.4-0.4-3.2-1.3S936.8,153.4,936.8,151.9z M938.5,151.9
		c0,1.2,0.3,2.1,0.8,2.7c0.5,0.6,1.2,0.9,2,0.9c0.8,0,1.4-0.3,2-0.9s0.8-1.5,0.8-2.7c0-1.2-0.3-2-0.8-2.6c-0.5-0.6-1.2-0.9-2-0.9
		c-0.8,0-1.4,0.3-2,0.9S938.5,150.7,938.5,151.9z"/>
	<path class="st4" d="M947.5,147.2h2.5l2.5,7.5l2.7-7.5h2.3v9.3h-1.6V149l-2.8,7.5h-1.4l-2.6-7.9v7.9h-1.5V147.2z"/>
	<path class="st4" d="M959.9,147.2h2.5l2.5,7.5l2.7-7.5h2.3v9.3h-1.6V149l-2.8,7.5H964l-2.6-7.9v7.9h-1.5V147.2z"/>
	<path class="st4" d="M978.6,153.5l1.6,0.2c-0.3,1-0.7,1.7-1.4,2.2s-1.6,0.8-2.7,0.8c-1.4,0-2.4-0.4-3.2-1.3c-0.8-0.8-1.2-2-1.2-3.5
		c0-1.6,0.4-2.8,1.2-3.7s1.9-1.3,3.1-1.3c1.2,0,2.3,0.4,3.1,1.3s1.2,2,1.2,3.6c0,0.1,0,0.2,0,0.4h-7c0.1,1,0.3,1.8,0.9,2.4
		s1.2,0.8,2,0.8c0.6,0,1.1-0.2,1.5-0.5S978.3,154.2,978.6,153.5z M973.4,151h5.2c-0.1-0.8-0.3-1.4-0.6-1.8c-0.5-0.6-1.2-0.9-2-0.9
		c-0.7,0-1.3,0.2-1.8,0.7S973.4,150.2,973.4,151z"/>
	<path class="st4" d="M982.2,160.1v-12.9h1.4v1.2c0.3-0.5,0.7-0.8,1.2-1.1c0.4-0.2,0.9-0.4,1.6-0.4c0.8,0,1.5,0.2,2.1,0.6
		s1.1,1,1.4,1.7c0.3,0.7,0.5,1.6,0.5,2.5c0,1-0.2,1.8-0.5,2.6c-0.3,0.8-0.8,1.4-1.5,1.8c-0.7,0.4-1.3,0.6-2.1,0.6
		c-0.5,0-1-0.1-1.4-0.3s-0.8-0.5-1-0.8v4.5H982.2z M983.6,151.9c0,1.2,0.2,2.1,0.7,2.7s1.1,0.9,1.8,0.9c0.7,0,1.3-0.3,1.8-0.9
		c0.5-0.6,0.8-1.5,0.8-2.8c0-1.2-0.2-2.1-0.7-2.7s-1.1-0.9-1.8-0.9c-0.7,0-1.3,0.3-1.8,0.9C983.9,149.8,983.6,150.7,983.6,151.9z"/>
	<path class="st4" d="M991.2,147.2h1.6v1.8c0,0.8,0,1.3,0.1,1.7c0.1,0.3,0.3,0.6,0.7,0.9c0.3,0.3,0.8,0.4,1.3,0.4
		c0.6,0,1.4-0.2,2.3-0.5v-4.2h1.6v9.3h-1.6v-3.8c-1,0.3-1.9,0.5-2.7,0.5c-0.7,0-1.3-0.2-1.9-0.5c-0.5-0.4-0.9-0.8-1.1-1.3
		s-0.3-1.1-0.3-1.7V147.2z"/>
	<path class="st4" d="M1007.6,153.5l1.6,0.2c-0.3,1-0.7,1.7-1.4,2.2s-1.6,0.8-2.7,0.8c-1.4,0-2.4-0.4-3.2-1.3
		c-0.8-0.8-1.2-2-1.2-3.5c0-1.6,0.4-2.8,1.2-3.7s1.9-1.3,3.1-1.3c1.2,0,2.3,0.4,3.1,1.3s1.2,2,1.2,3.6c0,0.1,0,0.2,0,0.4h-7
		c0.1,1,0.3,1.8,0.9,2.4s1.2,0.8,2,0.8c0.6,0,1.1-0.2,1.5-0.5S1007.3,154.2,1007.6,153.5z M1002.4,151h5.2c-0.1-0.8-0.3-1.4-0.6-1.8
		c-0.5-0.6-1.2-0.9-2-0.9c-0.7,0-1.3,0.2-1.8,0.7S1002.4,150.2,1002.4,151z"/>
	<path class="st4" d="M1017.3,153.1l1.6,0.2c-0.2,1.1-0.6,1.9-1.3,2.5c-0.7,0.6-1.6,0.9-2.6,0.9c-1.3,0-2.3-0.4-3.1-1.3
		c-0.8-0.8-1.2-2-1.2-3.6c0-1,0.2-1.9,0.5-2.6s0.8-1.3,1.5-1.7c0.7-0.4,1.4-0.6,2.2-0.6c1,0,1.8,0.3,2.5,0.8s1.1,1.2,1.2,2.2
		l-1.5,0.2c-0.1-0.6-0.4-1.1-0.8-1.4s-0.8-0.5-1.3-0.5c-0.8,0-1.4,0.3-1.9,0.9c-0.5,0.6-0.7,1.5-0.7,2.7c0,1.3,0.2,2.2,0.7,2.7
		s1.1,0.9,1.9,0.9c0.6,0,1.1-0.2,1.6-0.6S1017.2,153.9,1017.3,153.1z"/>
	<path class="st4" d="M1020.2,147.2h1.6v4c0.5,0,0.9-0.1,1.1-0.3s0.5-0.8,0.9-1.7c0.3-0.7,0.6-1.2,0.8-1.5s0.4-0.4,0.7-0.5
		s0.7-0.1,1.2-0.1h0.3v1.3l-0.4,0c-0.4,0-0.7,0.1-0.8,0.2c-0.1,0.1-0.3,0.5-0.6,1.2c-0.2,0.6-0.5,1-0.7,1.3s-0.5,0.4-0.9,0.6
		c0.7,0.2,1.3,0.8,2,1.9l1.7,2.9h-1.7l-1.7-2.9c-0.3-0.6-0.6-1-0.9-1.1c-0.3-0.2-0.6-0.3-0.9-0.3v4.3h-1.6V147.2z"/>
	<path class="st4" d="M1034.6,155.4c-0.6,0.5-1.2,0.8-1.7,1.1s-1.1,0.3-1.7,0.3c-1,0-1.8-0.3-2.4-0.8c-0.6-0.5-0.8-1.1-0.8-1.9
		c0-0.5,0.1-0.9,0.3-1.3c0.2-0.4,0.5-0.7,0.8-0.9s0.7-0.4,1.1-0.5c0.3-0.1,0.8-0.2,1.4-0.2c1.3-0.2,2.2-0.3,2.8-0.5
		c0-0.2,0-0.4,0-0.4c0-0.6-0.1-1.1-0.4-1.4c-0.4-0.4-1-0.5-1.8-0.5c-0.7,0-1.3,0.1-1.6,0.4s-0.6,0.7-0.8,1.4l-1.5-0.2
		c0.1-0.7,0.4-1.2,0.7-1.6c0.3-0.4,0.8-0.7,1.4-0.9c0.6-0.2,1.3-0.3,2.1-0.3c0.8,0,1.4,0.1,1.9,0.3s0.9,0.4,1.1,0.7
		c0.2,0.3,0.4,0.6,0.5,1.1c0.1,0.3,0.1,0.8,0.1,1.5v2.1c0,1.5,0,2.4,0.1,2.8c0.1,0.4,0.2,0.8,0.4,1.1h-1.7
		C1034.7,156.2,1034.6,155.8,1034.6,155.4z M1034.4,151.8c-0.6,0.2-1.4,0.4-2.6,0.6c-0.7,0.1-1.1,0.2-1.4,0.3s-0.5,0.3-0.6,0.5
		s-0.2,0.5-0.2,0.8c0,0.4,0.2,0.8,0.5,1.1s0.8,0.4,1.4,0.4c0.6,0,1.2-0.1,1.6-0.4s0.8-0.6,1-1.1c0.2-0.4,0.3-0.9,0.3-1.6V151.8z"/>
	<path class="st4" d="M1045.8,147.2v9.3h-1.6v-3.6h-0.9c-0.6,0-1,0.1-1.2,0.2c-0.3,0.1-0.7,0.6-1.2,1.4l-1.4,2h-2l1.7-2.5
		c0.5-0.8,1-1.2,1.6-1.3c-0.9-0.1-1.6-0.4-2-1s-0.7-1.1-0.7-1.8c0-0.8,0.3-1.5,0.9-2s1.4-0.8,2.5-0.8H1045.8z M1044.3,148.5h-2.3
		c-0.9,0-1.6,0.1-1.8,0.4s-0.4,0.6-0.4,1c0,0.6,0.2,1,0.6,1.2s1.1,0.4,2.1,0.4h1.7V148.5z"/>
	<path class="st4" d="M928.4,168.8h1.6v3.9h4.4v-3.9h1.6v9.3h-1.6V174H930v4.1h-1.6V168.8z"/>
	<path class="st4" d="M944.7,175.1l1.6,0.2c-0.3,1-0.7,1.7-1.4,2.2s-1.6,0.8-2.7,0.8c-1.4,0-2.4-0.4-3.2-1.3c-0.8-0.8-1.2-2-1.2-3.5
		c0-1.6,0.4-2.8,1.2-3.7s1.9-1.3,3.1-1.3c1.2,0,2.3,0.4,3.1,1.3s1.2,2,1.2,3.6c0,0.1,0,0.2,0,0.4h-7c0.1,1,0.3,1.8,0.9,2.4
		s1.2,0.8,2,0.8c0.6,0,1.1-0.2,1.5-0.5S944.5,175.8,944.7,175.1z M939.5,172.6h5.2c-0.1-0.8-0.3-1.4-0.6-1.8c-0.5-0.6-1.2-0.9-2-0.9
		c-0.7,0-1.3,0.2-1.8,0.7S939.6,171.8,939.5,172.6z"/>
	<path class="st4" d="M949.2,168.8h6.5v8h1v3.9h-1.3v-2.6h-7.3v2.6h-1.3v-3.9h0.8C948.7,175.3,949.2,172.6,949.2,168.8z
		 M950.5,170.1c-0.1,3-0.6,5.3-1.4,6.7h5v-6.7H950.5z"/>
	<path class="st4" d="M958.5,168.8h3.6c0.9,0,1.6,0.1,2,0.2c0.4,0.1,0.8,0.4,1.1,0.8s0.5,0.9,0.5,1.4c0,0.4-0.1,0.8-0.3,1.2
		c-0.2,0.3-0.5,0.6-0.8,0.8c0.4,0.1,0.8,0.4,1.1,0.8c0.3,0.4,0.4,0.9,0.4,1.4c-0.1,0.9-0.4,1.5-0.9,2s-1.4,0.6-2.5,0.6h-4.2V168.8z
		 M960,172.7h1.7c0.7,0,1.1,0,1.4-0.1s0.5-0.2,0.7-0.4c0.2-0.2,0.3-0.5,0.3-0.8c0-0.5-0.2-0.8-0.5-1s-0.9-0.3-1.8-0.3H960V172.7z
		 M960,176.8h2.1c0.9,0,1.5-0.1,1.8-0.3c0.3-0.2,0.5-0.6,0.5-1.1c0-0.3-0.1-0.6-0.3-0.8c-0.2-0.3-0.4-0.4-0.8-0.5
		c-0.3-0.1-0.8-0.1-1.5-0.1H960V176.8z"/>
	<path class="st4" d="M968,168.8h1.6v7.1l4.4-7.1h1.7v9.3h-1.6v-7.1l-4.4,7.1H968V168.8z"/>
	<path class="st4" d="M983.7,168.8v4c0.5,0,0.9-0.1,1.1-0.3s0.5-0.8,0.9-1.7c0.4-0.9,0.7-1.5,1-1.7c0.3-0.2,0.7-0.4,1.4-0.4h0.6v1.3
		l-0.4,0c-0.4,0-0.7,0.1-0.8,0.2c-0.1,0.1-0.3,0.5-0.6,1.2c-0.2,0.6-0.5,1-0.7,1.3s-0.5,0.4-0.9,0.6c0.7,0.2,1.4,0.8,2,1.9l1.7,2.9
		h-1.7l-1.7-2.9c-0.3-0.6-0.6-1-0.9-1.2s-0.6-0.3-0.9-0.3v4.3h-1.6v-4.3c-0.4,0-0.7,0.1-0.9,0.3s-0.6,0.6-0.9,1.2l-1.7,2.9h-1.7
		l1.7-2.9c0.7-1.1,1.3-1.7,2-1.9c-0.5-0.2-0.8-0.5-1-0.7c-0.2-0.3-0.5-0.9-0.8-1.8c-0.1-0.3-0.3-0.5-0.4-0.6
		c-0.2-0.1-0.4-0.1-0.7-0.1c-0.1,0-0.2,0-0.5,0v-1.3h0.2c0.6,0,1,0,1.3,0.1c0.2,0.1,0.5,0.2,0.7,0.5c0.2,0.2,0.5,0.7,0.8,1.5
		c0.4,0.9,0.7,1.5,0.9,1.7s0.6,0.3,1.1,0.3v-4H983.7z"/>
	<path class="st4" d="M990.1,168.8h1.6v7.1l4.4-7.1h1.7v9.3h-1.6v-7.1l-4.4,7.1h-1.7V168.8z"/>
	<path class="st4" d="M1000.2,168.8h2.5l2.5,7.5l2.7-7.5h2.3v9.3h-1.6v-7.5l-2.8,7.5h-1.4l-2.6-7.9v7.9h-1.5V168.8z"/>
	<path class="st4" d="M1012,173.5c0-1.7,0.5-3,1.4-3.8c0.8-0.7,1.8-1,2.9-1c1.3,0,2.3,0.4,3.1,1.3s1.2,2,1.2,3.5
		c0,1.2-0.2,2.1-0.5,2.8c-0.4,0.7-0.9,1.2-1.6,1.6s-1.4,0.6-2.3,0.6c-1.3,0-2.4-0.4-3.2-1.3S1012,175,1012,173.5z M1013.6,173.5
		c0,1.2,0.3,2.1,0.8,2.7c0.5,0.6,1.2,0.9,2,0.9c0.8,0,1.4-0.3,2-0.9s0.8-1.5,0.8-2.7c0-1.2-0.3-2-0.8-2.6c-0.5-0.6-1.2-0.9-2-0.9
		c-0.8,0-1.4,0.3-2,0.9S1013.6,172.3,1013.6,173.5z"/>
	<path class="st4" d="M1028.6,174.7l1.6,0.2c-0.2,1.1-0.6,1.9-1.3,2.5c-0.7,0.6-1.6,0.9-2.6,0.9c-1.3,0-2.3-0.4-3.1-1.3
		c-0.8-0.8-1.2-2-1.2-3.6c0-1,0.2-1.9,0.5-2.6s0.8-1.3,1.5-1.7c0.7-0.4,1.4-0.6,2.2-0.6c1,0,1.8,0.3,2.5,0.8s1.1,1.2,1.2,2.2
		l-1.5,0.2c-0.1-0.6-0.4-1.1-0.8-1.4s-0.8-0.5-1.3-0.5c-0.8,0-1.4,0.3-1.9,0.9c-0.5,0.6-0.7,1.5-0.7,2.7c0,1.3,0.2,2.2,0.7,2.7
		s1.1,0.9,1.9,0.9c0.6,0,1.1-0.2,1.6-0.6S1028.5,175.5,1028.6,174.7z"/>
	<path class="st4" d="M1030.7,168.8h7.6v1.3h-3v8h-1.6v-8h-3V168.8z"/>
	<path class="st4" d="M1039.8,168.8h1.6v3.6h2c1.3,0,2.3,0.3,3,0.8s1.1,1.2,1.1,2.1c0,0.8-0.3,1.4-0.9,2c-0.6,0.6-1.5,0.8-2.8,0.8
		h-4V168.8z M1041.4,176.8h1.7c1,0,1.7-0.1,2.1-0.4s0.6-0.6,0.6-1.2c0-0.4-0.2-0.8-0.5-1.1s-1-0.5-2.1-0.5h-1.9V176.8z"/>
</g>
<g class="st3">
	<path d="M302.5,90.3V76h1.9v5.9h7.4V76h1.9v14.3h-1.9v-6.7h-7.4v6.7H302.5z"/>
	<path d="M316,85.1c0-1.9,0.5-3.3,1.6-4.3c0.9-0.8,2-1.2,3.3-1.2c1.4,0,2.6,0.5,3.5,1.4s1.4,2.2,1.4,3.9c0,1.3-0.2,2.4-0.6,3.1
		s-1,1.4-1.7,1.8s-1.6,0.6-2.5,0.6c-1.5,0-2.6-0.5-3.5-1.4S316,86.9,316,85.1z M317.8,85.1c0,1.3,0.3,2.3,0.9,3s1.3,1,2.2,1
		c0.9,0,1.6-0.3,2.2-1s0.9-1.7,0.9-3c0-1.3-0.3-2.3-0.9-2.9s-1.3-1-2.2-1c-0.9,0-1.6,0.3-2.2,1S317.8,83.8,317.8,85.1z"/>
	<path d="M334.6,90.3v-1.5c-0.8,1.2-1.9,1.8-3.3,1.8c-0.6,0-1.2-0.1-1.7-0.4s-0.9-0.5-1.2-0.9s-0.4-0.8-0.5-1.3
		c-0.1-0.3-0.1-0.9-0.1-1.6v-6.4h1.8v5.8c0,0.9,0,1.5,0.1,1.9c0.1,0.5,0.3,0.8,0.7,1.1s0.8,0.4,1.3,0.4s1-0.1,1.5-0.4s0.8-0.6,1-1.1
		s0.3-1.1,0.3-2v-5.6h1.8v10.4H334.6z"/>
	<path d="M338.2,87.2l1.7-0.3c0.1,0.7,0.4,1.2,0.8,1.6s1.1,0.6,1.9,0.6c0.8,0,1.4-0.2,1.8-0.5s0.6-0.7,0.6-1.2
		c0-0.4-0.2-0.7-0.5-0.9c-0.2-0.2-0.8-0.4-1.8-0.6c-1.3-0.3-2.2-0.6-2.7-0.8s-0.9-0.6-1.1-1s-0.4-0.9-0.4-1.4c0-0.5,0.1-0.9,0.3-1.3
		s0.5-0.7,0.9-1c0.3-0.2,0.6-0.4,1.1-0.5s1-0.2,1.5-0.2c0.8,0,1.5,0.1,2.1,0.4s1.1,0.6,1.4,1s0.5,0.9,0.6,1.6l-1.7,0.2
		c-0.1-0.5-0.3-1-0.7-1.3s-0.9-0.4-1.6-0.4c-0.8,0-1.4,0.1-1.7,0.4s-0.5,0.6-0.5,0.9c0,0.2,0.1,0.4,0.2,0.6c0.1,0.2,0.4,0.3,0.7,0.5
		c0.2,0.1,0.7,0.2,1.6,0.4c1.2,0.3,2.1,0.6,2.6,0.8s0.9,0.5,1.2,0.9s0.4,0.9,0.4,1.5c0,0.6-0.2,1.1-0.5,1.7s-0.8,0.9-1.5,1.2
		s-1.4,0.4-2.2,0.4c-1.3,0-2.4-0.3-3.1-0.8S338.4,88.3,338.2,87.2z"/>
	<path d="M356,87l1.8,0.2c-0.3,1.1-0.8,1.9-1.6,2.5s-1.8,0.9-3,0.9c-1.5,0-2.7-0.5-3.6-1.4s-1.3-2.2-1.3-3.9c0-1.7,0.4-3.1,1.3-4.1
		s2.1-1.4,3.5-1.4c1.4,0,2.5,0.5,3.4,1.4s1.3,2.3,1.3,4c0,0.1,0,0.3,0,0.5h-7.7c0.1,1.1,0.4,2,1,2.6s1.3,0.9,2.2,0.9
		c0.6,0,1.2-0.2,1.7-0.5S355.8,87.7,356,87z M350.3,84.1h5.8c-0.1-0.9-0.3-1.5-0.7-2c-0.6-0.7-1.3-1-2.2-1c-0.8,0-1.5,0.3-2,0.8
		S350.3,83.2,350.3,84.1z"/>
	<path d="M363.9,90.3V77.7h-4.7V76h11.3v1.7h-4.7v12.6H363.9z"/>
	<path d="M369.4,85.1c0-1.9,0.5-3.3,1.6-4.3c0.9-0.8,2-1.2,3.3-1.2c1.4,0,2.6,0.5,3.5,1.4s1.4,2.2,1.4,3.9c0,1.3-0.2,2.4-0.6,3.1
		s-1,1.4-1.7,1.8s-1.6,0.6-2.5,0.6c-1.5,0-2.6-0.5-3.5-1.4S369.4,86.9,369.4,85.1z M371.2,85.1c0,1.3,0.3,2.3,0.9,3s1.3,1,2.2,1
		c0.9,0,1.6-0.3,2.2-1s0.9-1.7,0.9-3c0-1.3-0.3-2.3-0.9-2.9s-1.3-1-2.2-1c-0.9,0-1.6,0.3-2.2,1S371.2,83.8,371.2,85.1z"/>
	<path d="M381.2,90.3V76h1.8v8.2l4.2-4.2h2.3l-4,3.8l4.4,6.5h-2.2l-3.4-5.3l-1.2,1.2v4.1H381.2z"/>
	<path d="M398.3,87l1.8,0.2c-0.3,1.1-0.8,1.9-1.6,2.5s-1.8,0.9-3,0.9c-1.5,0-2.7-0.5-3.6-1.4s-1.3-2.2-1.3-3.9
		c0-1.7,0.4-3.1,1.3-4.1s2.1-1.4,3.5-1.4c1.4,0,2.5,0.5,3.4,1.4s1.3,2.3,1.3,4c0,0.1,0,0.3,0,0.5h-7.7c0.1,1.1,0.4,2,1,2.6
		s1.3,0.9,2.2,0.9c0.6,0,1.2-0.2,1.7-0.5S398,87.7,398.3,87z M392.5,84.1h5.8c-0.1-0.9-0.3-1.5-0.7-2c-0.6-0.7-1.3-1-2.2-1
		c-0.8,0-1.5,0.3-2,0.8S392.6,83.2,392.5,84.1z"/>
	<path d="M402.3,90.3V79.9h1.6v1.5c0.8-1.1,1.9-1.7,3.3-1.7c0.6,0,1.2,0.1,1.7,0.3s0.9,0.5,1.2,0.9s0.4,0.8,0.5,1.3
		c0.1,0.3,0.1,0.9,0.1,1.7v6.4H409V84c0-0.7-0.1-1.3-0.2-1.6s-0.4-0.6-0.7-0.8s-0.8-0.3-1.2-0.3c-0.7,0-1.4,0.2-1.9,0.7
		s-0.8,1.4-0.8,2.7v5.7H402.3z"/>
	<path d="M419.1,90.3V76h1.9v12.6h7.1v1.7H419.1z"/>
	<path d="M432.5,90.3V77.7h-4.7V76h11.3v1.7h-4.7v12.6H432.5z"/>
	<path d="M441.1,90.3V76h4.9c1.1,0,2,0.1,2.5,0.2c0.8,0.2,1.5,0.5,2.1,1c0.8,0.6,1.3,1.5,1.7,2.4s0.6,2.1,0.6,3.4
		c0,1.1-0.1,2.1-0.4,2.9s-0.6,1.5-1,2.1s-0.8,1-1.3,1.3s-1,0.6-1.7,0.7s-1.4,0.2-2.3,0.2H441.1z M443,88.6h3.1
		c0.9,0,1.7-0.1,2.2-0.3s1-0.4,1.3-0.7c0.4-0.4,0.8-1.1,1-1.8s0.4-1.7,0.4-2.8c0-1.5-0.2-2.6-0.7-3.5s-1.1-1.3-1.8-1.6
		c-0.5-0.2-1.3-0.3-2.5-0.3h-3V88.6z"/>
	<path d="M305.6,118.5c-1-1.2-1.8-2.7-2.5-4.3s-1-3.3-1-5.1c0-1.5,0.3-3,0.8-4.5c0.6-1.6,1.5-3.3,2.7-4.9h1.3
		c-0.8,1.4-1.3,2.3-1.6,2.9c-0.4,0.9-0.7,1.8-0.9,2.8c-0.3,1.2-0.4,2.4-0.4,3.7c0,3.1,1,6.3,2.9,9.4H305.6z"/>
	<path d="M308.6,107.3c0-2.4,0.6-4.2,1.9-5.6s2.9-2,4.9-2c1.3,0,2.5,0.3,3.6,0.9s1.9,1.5,2.4,2.6s0.8,2.4,0.8,3.8
		c0,1.5-0.3,2.8-0.9,3.9s-1.4,2-2.5,2.6s-2.2,0.9-3.5,0.9c-1.3,0-2.6-0.3-3.6-1s-1.9-1.5-2.4-2.7S308.6,108.6,308.6,107.3z
		 M310.5,107.4c0,1.7,0.5,3.1,1.4,4.1s2.1,1.5,3.5,1.5c1.4,0,2.6-0.5,3.5-1.5s1.4-2.4,1.4-4.3c0-1.2-0.2-2.2-0.6-3.1s-1-1.5-1.7-2
		s-1.6-0.7-2.6-0.7c-1.3,0-2.5,0.5-3.5,1.4S310.5,105.2,310.5,107.4z"/>
	<path d="M324.1,107.3c0-2.4,0.6-4.2,1.9-5.6s2.9-2,4.9-2c1.3,0,2.5,0.3,3.6,0.9s1.9,1.5,2.4,2.6s0.8,2.4,0.8,3.8
		c0,1.5-0.3,2.8-0.9,3.9s-1.4,2-2.5,2.6s-2.2,0.9-3.5,0.9c-1.3,0-2.6-0.3-3.6-1s-1.9-1.5-2.4-2.7S324.1,108.6,324.1,107.3z
		 M326.1,107.4c0,1.7,0.5,3.1,1.4,4.1s2.1,1.5,3.5,1.5c1.4,0,2.6-0.5,3.5-1.5s1.4-2.4,1.4-4.3c0-1.2-0.2-2.2-0.6-3.1s-1-1.5-1.7-2
		s-1.6-0.7-2.6-0.7c-1.3,0-2.5,0.5-3.5,1.4S326.1,105.2,326.1,107.4z"/>
	<path d="M339.7,107.3c0-2.4,0.6-4.2,1.9-5.6s2.9-2,4.9-2c1.3,0,2.5,0.3,3.6,0.9s1.9,1.5,2.4,2.6s0.8,2.4,0.8,3.8
		c0,1.5-0.3,2.8-0.9,3.9s-1.4,2-2.5,2.6s-2.2,0.9-3.5,0.9c-1.3,0-2.6-0.3-3.6-1s-1.9-1.5-2.4-2.7S339.7,108.6,339.7,107.3z
		 M341.6,107.4c0,1.7,0.5,3.1,1.4,4.1s2.1,1.5,3.5,1.5c1.4,0,2.6-0.5,3.5-1.5s1.4-2.4,1.4-4.3c0-1.2-0.2-2.2-0.6-3.1s-1-1.5-1.7-2
		s-1.6-0.7-2.6-0.7c-1.3,0-2.5,0.5-3.5,1.4S341.6,105.2,341.6,107.4z"/>
	<path d="M361.4,100h1.9v6.3c0.9,0,1.5-0.2,1.8-0.5s0.8-1.1,1.3-2.4c0.4-0.9,0.7-1.6,1-2s0.6-0.7,1.1-1s1-0.4,1.6-0.4
		c0.7,0,1.1,0,1.2,0v1.6c-0.1,0-0.2,0-0.4,0c-0.2,0-0.3,0-0.4,0c-0.6,0-1.1,0.1-1.3,0.4c-0.3,0.3-0.6,0.9-1,1.9
		c-0.5,1.2-0.9,2-1.2,2.3s-0.7,0.6-1.2,0.8c0.9,0.3,1.8,1.1,2.7,2.6l2.9,4.8H369l-2.4-3.9c-0.7-1.1-1.2-1.8-1.7-2.2s-1-0.6-1.7-0.6
		v6.7h-1.9V100z"/>
	<path d="M379.6,113c-0.7,0.6-1.3,0.9-1.9,1.2s-1.2,0.3-1.9,0.3c-1.1,0-2-0.3-2.6-0.8s-0.9-1.3-0.9-2.1c0-0.5,0.1-1,0.3-1.4
		s0.5-0.8,0.9-1s0.8-0.4,1.3-0.6c0.3-0.1,0.9-0.2,1.6-0.3c1.4-0.2,2.5-0.4,3.1-0.6c0-0.2,0-0.4,0-0.5c0-0.7-0.2-1.2-0.5-1.5
		c-0.4-0.4-1.1-0.6-2-0.6c-0.8,0-1.4,0.1-1.8,0.4s-0.7,0.8-0.9,1.5l-1.7-0.2c0.2-0.7,0.4-1.3,0.8-1.8s0.9-0.8,1.6-1s1.5-0.4,2.4-0.4
		c0.9,0,1.6,0.1,2.2,0.3s1,0.5,1.2,0.8s0.4,0.7,0.5,1.2c0.1,0.3,0.1,0.8,0.1,1.6v2.3c0,1.6,0,2.7,0.1,3.1s0.2,0.8,0.4,1.2h-1.8
		C379.7,113.9,379.6,113.5,379.6,113z M379.4,109.1c-0.6,0.3-1.6,0.5-2.9,0.7c-0.7,0.1-1.2,0.2-1.5,0.4s-0.5,0.3-0.7,0.6
		s-0.2,0.5-0.2,0.8c0,0.5,0.2,0.9,0.5,1.2s0.9,0.5,1.6,0.5c0.7,0,1.3-0.1,1.8-0.4s0.9-0.7,1.2-1.2c0.2-0.4,0.3-1,0.3-1.8V109.1z"/>
	<path d="M383.9,103.9h1.8v7.9l4.9-7.9h1.9v10.4h-1.8v-7.9l-4.9,7.9h-1.9V103.9z M390,100h1.2c-0.1,0.8-0.4,1.4-0.9,1.9
		s-1.2,0.7-2,0.7c-0.8,0-1.5-0.2-2-0.6s-0.8-1.1-0.9-1.9h1.2c0.1,0.4,0.3,0.8,0.5,1s0.6,0.3,1.1,0.3c0.5,0,0.9-0.1,1.2-0.3
		S389.9,100.5,390,100z"/>
	<path d="M395.1,103.9h2.7l2.7,8.3l3-8.3h2.5v10.4h-1.8V106l-3.1,8.3h-1.6l-2.9-8.8v8.8h-1.7V103.9z"/>
	<path d="M415.6,113c-0.7,0.6-1.3,0.9-1.9,1.2s-1.2,0.3-1.9,0.3c-1.1,0-2-0.3-2.6-0.8s-0.9-1.3-0.9-2.1c0-0.5,0.1-1,0.3-1.4
		s0.5-0.8,0.9-1s0.8-0.4,1.3-0.6c0.3-0.1,0.9-0.2,1.6-0.3c1.4-0.2,2.5-0.4,3.1-0.6c0-0.2,0-0.4,0-0.5c0-0.7-0.2-1.2-0.5-1.5
		c-0.4-0.4-1.1-0.6-2-0.6c-0.8,0-1.4,0.1-1.8,0.4s-0.7,0.8-0.9,1.5l-1.7-0.2c0.2-0.7,0.4-1.3,0.8-1.8s0.9-0.8,1.6-1s1.5-0.4,2.4-0.4
		c0.9,0,1.6,0.1,2.2,0.3s1,0.5,1.2,0.8s0.4,0.7,0.5,1.2c0.1,0.3,0.1,0.8,0.1,1.6v2.3c0,1.6,0,2.7,0.1,3.1s0.2,0.8,0.4,1.2H416
		C415.8,113.9,415.7,113.5,415.6,113z M415.5,109.1c-0.6,0.3-1.6,0.5-2.9,0.7c-0.7,0.1-1.2,0.2-1.5,0.4s-0.5,0.3-0.7,0.6
		s-0.2,0.5-0.2,0.8c0,0.5,0.2,0.9,0.5,1.2s0.9,0.5,1.6,0.5c0.7,0,1.3-0.1,1.8-0.4s0.9-0.7,1.2-1.2c0.2-0.4,0.3-1,0.3-1.8V109.1z"/>
	<path d="M420,103.9h1.8v4.3h4.9v-4.3h1.8v10.4h-1.8v-4.6h-4.9v4.6H420V103.9z"/>
	<path d="M431,103.9h1.8v4.1h2.2c1.5,0,2.6,0.3,3.4,0.8s1.2,1.3,1.2,2.3c0,0.9-0.3,1.6-1,2.2s-1.7,0.9-3.1,0.9H431V103.9z
		 M432.7,112.9h1.8c1.1,0,1.9-0.1,2.4-0.4s0.7-0.7,0.7-1.3c0-0.4-0.2-0.8-0.5-1.2s-1.1-0.5-2.3-0.5h-2.1V112.9z"/>
	<path d="M442.4,117.2l-0.3-0.3c2.5-2.4,3.6-5.6,3.6-8.7c0-3.1-1.1-6.1-3.7-8.5l0.2-0.3c3.6,2.8,4.8,6,4.8,8.8
		C447.1,111.8,445.4,114.8,442.4,117.2z"/>
</g>
</svg>
