<?xml version="1.0" encoding="utf-8"?>
<!-- Generator: Adobe Illustrator 23.0.0, SVG Export Plug-In . SVG Version: 6.00 Build 0)  -->
<svg version="1.1" id="强大的法律保障" xmlns="http://www.w3.org/2000/svg" xmlns:xlink="http://www.w3.org/1999/xlink"
	 x="0px" y="0px" viewBox="0 0 1017 345" style="enable-background:new 0 0 1017 345;" xml:space="preserve">
<style type="text/css">
	.st0{fill:#010101;}
	.st1{fill:#58595B;}
	.st2{fill:#70DBCB;}
	.st3{fill:none;stroke:#70DBCB;}
	.st4{fill:#FCFCFC;}
	.st5{fill:#F5F5F5;}
	.st6{fill:#F2F2F2;}
	.st7{fill:#E6E7E8;}
	.st8{enable-background:new    ;}
	.st9{fill:#FFFFFF;}
</style>
<rect id="矩形_47" x="686.9" y="160" class="st0" width="321.2" height="0.8"/>
<ellipse id="椭圆_12" class="st1" cx="1003" cy="159.6" rx="14" ry="14.1"/>
<g id="组_27">
	<path id="矩形_48" class="st2" d="M409.9,159.2h181.5v0.8H409.9V159.2z"/>
	<path id="形状_2" class="st3" d="M591.4,156H474.1l-38.5-87.6h-81.9"/>
	<path id="形状_2_拷贝" class="st3" d="M591.4,164H474.1l-38.5,87.7h-81.9"/>
</g>
<path id="圆角矩形_1" class="st4" d="M609.2,144.5l39.1-10c1.6-0.4,3.4-0.3,5,0.1l32.8,10.6c1.4,0.5,1.6,1.2,0.4,1.7l-34.2,12.6
	c-2,0.6-4.1,0.7-6.1,0.1l-37.7-13.2C606.9,145.8,607.3,145,609.2,144.5z"/>
<path id="圆角矩形_1_拷贝" class="st5" d="M608.4,165.4l39.1-10c1.6-0.4,3.4-0.3,5,0.1l32.8,10.6c1.4,0.5,1.6,1.2,0.4,1.7
	l-34.2,12.6c-2,0.6-4.1,0.7-6.2,0.1l-37.7-13.2C606.1,166.7,606.5,165.9,608.4,165.4z"/>
<path id="椭圆_11" class="st6" d="M649.6,140.7c10,0,18.1,1.6,18.1,3.6s-8.1,3.6-18.1,3.6s-18.1-1.6-18.1-3.6
	S639.6,140.7,649.6,140.7z"/>
<path id="矩形_46" class="st7" d="M607.4,145.5l43.4,15.3v14.5L607.4,160V145.5z"/>
<path id="矩形_46_拷贝" class="st7" d="M687.7,146.3L650,160.8v14.5l37.7-14.5V146.3z"/>
<path id="圆角矩形_1-2" class="st4" d="M249.5,55.3l39.1-10.1c1.7-0.3,3.4-0.3,5,0.2L326.3,56c1.4,0.5,1.6,1.2,0.4,1.7
	l-34.2,12.5c-2,0.7-4.1,0.7-6.1,0.1l-37.7-13.2C247.2,56.6,247.5,55.8,249.5,55.3z"/>
<path id="圆角矩形_1_拷贝-2" class="st5" d="M248.7,76.2l39.1-10.1c1.7-0.3,3.4-0.3,5,0.2l32.8,10.6c1.4,0.5,1.6,1.2,0.4,1.7
	l-34.2,12.5c-2,0.7-4.1,0.7-6.1,0.1L247.9,78C246.4,77.5,246.7,76.7,248.7,76.2z"/>
<ellipse id="椭圆_11-2" class="st6" cx="289.8" cy="55.1" rx="18.1" ry="3.6"/>
<path id="矩形_46-2" class="st7" d="M247.6,56.3L291,71.6V86l-43.4-15.2V56.3z"/>
<path id="矩形_46_拷贝-2" class="st7" d="M327.9,57.1l-37.7,14.5V86l37.7-14.4V57.1z"/>
<path id="圆角矩形_1-3" class="st4" d="M249.5,245l39.1-10c1.7-0.4,3.4-0.3,5,0.1l32.8,10.6c1.4,0.5,1.6,1.2,0.4,1.7L292.5,260
	c-2,0.6-4.1,0.6-6.1,0.1l-37.7-13.2C247.2,246.3,247.5,245.5,249.5,245z"/>
<path id="圆角矩形_1_拷贝-3" class="st5" d="M248.7,265.9l39.1-10c1.7-0.4,3.4-0.3,5,0.1l32.8,10.6c1.4,0.5,1.6,1.2,0.4,1.7
	l-34.2,12.6c-2,0.6-4.1,0.6-6.1,0.1L248,267.8C246.4,267.2,246.7,266.4,248.7,265.9z"/>
<ellipse id="椭圆_11-3" class="st6" cx="289.8" cy="244.8" rx="18.1" ry="3.6"/>
<path id="矩形_46-3" class="st7" d="M247.6,246l43.4,15.3v14.5l-43.4-15.3V246z"/>
<path id="矩形_46_拷贝-3" class="st7" d="M327.9,246.8l-37.7,14.5v14.5l37.7-14.5V246.8z"/>
<path id="圆角矩形_1-4" class="st4" d="M9.5,55.3l39.1-10.1c1.7-0.3,3.4-0.3,5,0.2L86.3,56c1.4,0.5,1.6,1.2,0.4,1.7L52.5,70.2
	c-2,0.7-4.1,0.7-6.1,0.1L8.7,57.1C7.2,56.6,7.5,55.8,9.5,55.3z"/>
<path id="圆角矩形_1_拷贝-4" class="st5" d="M8.7,76.2l39.1-10.1c1.7-0.3,3.4-0.3,5,0.2l32.8,10.6c1.4,0.5,1.6,1.2,0.4,1.7
	L51.7,91.1c-2,0.7-4.1,0.7-6.1,0.1L7.9,78C6.4,77.5,6.7,76.7,8.7,76.2z"/>
<ellipse id="椭圆_11-4" class="st6" cx="49.8" cy="55.1" rx="18.1" ry="3.6"/>
<path id="矩形_46-4" class="st7" d="M7.6,56.3L51,71.6V86L7.6,70.8V56.3z"/>
<path id="矩形_46_拷贝-4" class="st7" d="M87.9,57.1L50.2,71.6V86l37.7-14.4V57.1z"/>
<path id="圆角矩形_1-5" class="st4" d="M9.5,245l39.1-10c1.7-0.4,3.4-0.3,5,0.1l32.8,10.6c1.4,0.5,1.6,1.2,0.4,1.7L52.5,260
	c-2,0.6-4.1,0.6-6.1,0.1L8.7,246.9C7.2,246.3,7.5,245.5,9.5,245z"/>
<path id="圆角矩形_1_拷贝-5" class="st5" d="M8.7,265.9l39.1-10c1.7-0.4,3.4-0.3,5,0.1l32.8,10.6c1.4,0.5,1.6,1.2,0.4,1.7
	l-34.2,12.6c-2,0.6-4.1,0.6-6.1,0.1L7.9,267.8C6.4,267.2,6.7,266.4,8.7,265.9z"/>
<ellipse id="椭圆_11-5" class="st6" cx="49.8" cy="244.8" rx="18.1" ry="3.6"/>
<path id="矩形_46-5" class="st7" d="M7.6,246L51,261.3v14.5L7.6,260.5V246z"/>
<path id="矩形_46_拷贝-5" class="st7" d="M87.9,246.8l-37.7,14.5v14.5l37.7-14.5V246.8z"/>
<path id="圆角矩形_1-6" class="st4" d="M856.6,145.3l39.1-10c1.7-0.4,3.4-0.3,5,0.1l32.8,10.6c1.4,0.5,1.6,1.2,0.4,1.7
	l-34.2,12.6c-2,0.6-4.1,0.7-6.1,0.1l-37.7-13.2C854.3,146.6,854.6,145.8,856.6,145.3z"/>
<path id="圆角矩形_1_拷贝-6" class="st5" d="M855.8,166.2l39.1-10c1.6-0.4,3.4-0.3,5,0.1l32.8,10.6c1.4,0.5,1.6,1.2,0.4,1.7
	l-34.2,12.6c-2,0.6-4.1,0.7-6.1,0.1L855,168.1C853.5,167.5,853.8,166.7,855.8,166.2z"/>
<path id="椭圆_11-6" class="st6" d="M896.9,141.5c10,0,18.1,1.6,18.1,3.6s-8.1,3.6-18.1,3.6s-18.1-1.6-18.1-3.6
	S887,141.5,896.9,141.5z"/>
<path id="矩形_46-6" class="st7" d="M854.8,146.3l43.4,15.3v14.5l-43.4-15.3V146.3z"/>
<path id="矩形_46_拷贝-6" class="st7" d="M935.1,147.1l-37.7,14.5v14.5l37.7-14.5V147.1z"/>
<rect id="矩形_49" x="87" y="70" class="st0" width="167" height="1"/>
<rect id="矩形_49_拷贝" x="87" y="260" class="st0" width="167" height="1"/>
<g class="st8">
	<path class="st1" d="M28,45h22.5V0H28V45z M42.1,5.6h5.6v5.6h-5.6V5.6z M42.1,16.9h5.6v5.6h-5.6V16.9z M42.1,28.1h5.6v5.6h-5.6
		V28.1z M30.8,5.6h5.6v5.6h-5.6C30.8,11.2,30.8,5.6,30.8,5.6z M30.8,16.9h5.6v5.6h-5.6C30.8,22.5,30.8,16.9,30.8,16.9z M30.8,28.1
		h5.6v5.6h-5.6C30.8,33.7,30.8,28.1,30.8,28.1z M53.3,14.1H73v2.8H53.3V14.1z M53.3,45h5.6V33.8h8.4V45H73V19.7H53.3V45z"/>
</g>
<g class="st8">
	<path class="st1" d="M46.7,224.9h7.6v9.5h-7.6V224.9z"/>
	<path class="st1" d="M45.8,207.9c0,2.6,2.1,4.7,4.7,4.7s4.7-2.1,4.7-4.7s-2.1-4.7-4.7-4.7S45.8,205.4,45.8,207.9z M51.4,208.9h-3.8
		V207h1.9v-2.8h1.9C51.4,204.2,51.4,208.9,51.4,208.9z"/>
	<path class="st1" d="M24,204.1v30.3h15.1v-30.3H24z M30.6,224.1h-3.8v-1.9h3.8V224.1z M30.6,220.3h-3.8v-1.9h3.8V220.3z
		 M30.6,216.4h-3.8v-1.9h3.8V216.4z M30.6,212.6h-3.8v-1.9h3.8V212.6z M30.6,208.9h-3.8V207h3.8V208.9z M36.3,224.1h-3.8v-1.9h3.8
		V224.1z M36.3,220.3h-3.8v-1.9h3.8V220.3z M36.3,216.4h-3.8v-1.9h3.8V216.4z M36.3,212.6h-3.8v-1.9h3.8V212.6z M36.3,208.9h-3.8
		V207h3.8V208.9z"/>
	<path class="st1" d="M77,234.4v-30.3H61.9v30.3H77z M70.4,206.9h3.8v1.9h-3.8V206.9z M70.4,210.8h3.8v1.9h-3.8V210.8z M70.4,214.6
		h3.8v1.9h-3.8V214.6z M70.4,218.4h3.8v1.9h-3.8V218.4z M70.4,222.1h3.8v1.9h-3.8V222.1z M64.7,206.9h3.8v1.9h-3.8V206.9z
		 M64.7,210.8h3.8v1.9h-3.8V210.8z M64.7,214.6h3.8v1.9h-3.8V214.6z M64.7,218.4h3.8v1.9h-3.8V218.4z M64.7,222.1h3.8v1.9h-3.8
		V222.1z"/>
	<path class="st1" d="M41,199.9v34.5h3.8V224c0-0.5,0.4-0.9,0.9-0.9h9.5c0.5,0,0.9,0.4,0.9,0.9v10.4h3.8v-34.5l-9.5-6.9L41,199.9z
		 M57.1,207.9c0,3.7-3,6.6-6.6,6.6s-6.6-3-6.6-6.6s3-6.6,6.6-6.6C54.2,201.4,57.1,204.3,57.1,207.9z"/>
	<path class="st1" d="M50.5,181.4h11.4v5.7H50.5V181.4z"/>
	<path class="st1" d="M50.5,195.6c-0.5,0-0.9-0.4-0.9-0.9v-14.3c0-0.5,0.4-0.9,0.9-0.9s0.9,0.4,0.9,0.9v14.2
		C51.4,195.3,51,195.6,50.5,195.6z"/>
</g>
<g class="st8">
	<path class="st1" d="M307.6,44.5c0.7,0,1.3-0.6,1.3-1.3V21.6c0-0.7-0.6-1.3-1.3-1.3h-8.1v-0.9c0-0.5-0.3-0.9-0.7-1.2l-7.9-4v-2.5
		l5.6-1.9c0.5-0.2,0.9-0.7,0.9-1.2c0-0.6-0.4-1.1-0.9-1.2L290,5.3c-0.4-0.1-0.8-0.1-1.2,0.2c-0.3,0.2-0.5,0.6-0.5,1.1v7.8l-7.9,4
		c-0.4,0.2-0.7,0.7-0.7,1.2v0.9h-8.3c-0.7,0-1.3,0.6-1.3,1.3v21.6c0,0.7,0.6,1.3,1.3,1.3h36.3L307.6,44.5L307.6,44.5z M290.9,9.4V8
		l2.9,0.7L290.9,9.4z M272.6,22.9h7v19h-7V22.9z M282.3,20.3l7.3-3.7l7.3,3.7v21.6h-14.6L282.3,20.3L282.3,20.3z M306.3,41.9h-6.8
		v-19h6.8V41.9z"/>
	<path class="st1" d="M287.5,22.5h-2.2c-0.7,0-1.3,0.6-1.3,1.3c0,0.7,0.6,1.3,1.3,1.3h2.2c0.7,0,1.3-0.6,1.3-1.3
		C288.9,23.1,288.3,22.5,287.5,22.5z"/>
	<path class="st1" d="M275.3,27.3h2.2c0.7,0,1.3-0.6,1.3-1.3c0-0.7-0.6-1.3-1.3-1.3h-2.2c-0.7,0-1.3,0.6-1.3,1.3
		S274.5,27.3,275.3,27.3z"/>
	<path class="st1" d="M277.4,29h-2.2c-0.7,0-1.3,0.6-1.3,1.3c0,0.7,0.6,1.3,1.3,1.3h2.2c0.7,0,1.3-0.6,1.3-1.3
		C278.8,29.6,278.1,29,277.4,29z"/>
	<path class="st1" d="M277.4,33.3h-2.2c-0.7,0-1.3,0.6-1.3,1.3s0.6,1.3,1.3,1.3h2.2c0.7,0,1.3-0.6,1.3-1.3
		C278.8,33.9,278.1,33.3,277.4,33.3z"/>
	<path class="st1" d="M302,27.3h2.2c0.7,0,1.3-0.6,1.3-1.3c0-0.7-0.6-1.3-1.3-1.3H302c-0.7,0-1.3,0.6-1.3,1.3S301.3,27.3,302,27.3z"
		/>
	<path class="st1" d="M302,31.6h2.2c0.7,0,1.3-0.6,1.3-1.3c0-0.7-0.6-1.3-1.3-1.3H302c-0.7,0-1.3,0.6-1.3,1.3
		C300.6,31,301.3,31.6,302,31.6z"/>
	<path class="st1" d="M304,33.3h-2c-0.7,0-1.3,0.6-1.3,1.3s0.6,1.3,1.3,1.3h2.2c0.7,0,1.3-0.6,1.3-1.3S304.9,33.3,304,33.3z"/>
	<path class="st1" d="M294,22.5h-2.2c-0.7,0-1.3,0.6-1.3,1.3c0,0.7,0.6,1.3,1.3,1.3h2.2c0.7,0,1.3-0.6,1.3-1.3S294.8,22.5,294,22.5z
		"/>
	<path class="st1" d="M287.5,26.8h-2.2c-0.7,0-1.3,0.6-1.3,1.3c0,0.7,0.6,1.3,1.3,1.3h2.2c0.7,0,1.3-0.6,1.3-1.3
		S288.3,26.8,287.5,26.8z"/>
	<path class="st1" d="M294,26.8h-2.2c-0.7,0-1.3,0.6-1.3,1.3c0,0.7,0.6,1.3,1.3,1.3h2.2c0.7,0,1.3-0.6,1.3-1.3S294.8,26.8,294,26.8z
		"/>
	<path class="st1" d="M287.5,31.1h-2.2c-0.7,0-1.3,0.6-1.3,1.3s0.6,1.3,1.3,1.3h2.2c0.7,0,1.3-0.6,1.3-1.3
		C288.9,31.7,288.3,31.1,287.5,31.1z"/>
	<path class="st1" d="M294,31.1h-2.2c-0.7,0-1.3,0.6-1.3,1.3s0.6,1.3,1.3,1.3h2.2c0.7,0,1.3-0.6,1.3-1.3S294.8,31.1,294,31.1z"/>
</g>
<g class="st8">
	<path class="st1" d="M308.6,233.5c0.7,0,1.3-0.6,1.3-1.3v-21.6c0-0.7-0.6-1.3-1.3-1.3h-8.1v-0.9c0-0.5-0.3-0.9-0.7-1.2l-7.9-4v-2.5
		l5.6-1.9c0.5-0.2,0.9-0.7,0.9-1.2c0-0.6-0.4-1.1-0.9-1.2l-6.6-2.1c-0.4-0.1-0.8-0.1-1.2,0.2c-0.3,0.2-0.5,0.6-0.5,1.1v7.8l-7.9,4
		c-0.4,0.2-0.7,0.7-0.7,1.2v0.9h-8.3c-0.7,0-1.3,0.6-1.3,1.3v21.6c0,0.7,0.6,1.3,1.3,1.3h36.3L308.6,233.5L308.6,233.5z
		 M291.9,198.4V197l2.9,0.7L291.9,198.4z M273.6,211.9h7v19h-7V211.9z M283.3,209.3l7.3-3.7l7.3,3.7v21.6h-14.6L283.3,209.3
		L283.3,209.3z M307.3,230.9h-6.8v-19h6.8V230.9z"/>
	<path class="st1" d="M288.5,211.5h-2.2c-0.7,0-1.3,0.6-1.3,1.3s0.6,1.3,1.3,1.3h2.2c0.7,0,1.3-0.6,1.3-1.3
		C289.9,212.1,289.3,211.5,288.5,211.5z"/>
	<path class="st1" d="M276.3,216.3h2.2c0.7,0,1.3-0.6,1.3-1.3s-0.6-1.3-1.3-1.3h-2.2c-0.7,0-1.3,0.6-1.3,1.3
		S275.5,216.3,276.3,216.3z"/>
	<path class="st1" d="M278.4,218h-2.2c-0.7,0-1.3,0.6-1.3,1.3s0.6,1.3,1.3,1.3h2.2c0.7,0,1.3-0.6,1.3-1.3
		C279.8,218.6,279.1,218,278.4,218z"/>
	<path class="st1" d="M278.4,222.3h-2.2c-0.7,0-1.3,0.6-1.3,1.3s0.6,1.3,1.3,1.3h2.2c0.7,0,1.3-0.6,1.3-1.3
		C279.8,222.9,279.1,222.3,278.4,222.3z"/>
	<path class="st1" d="M303,216.3h2.2c0.7,0,1.3-0.6,1.3-1.3s-0.6-1.3-1.3-1.3H303c-0.7,0-1.3,0.6-1.3,1.3S302.3,216.3,303,216.3z"/>
	<path class="st1" d="M303,220.6h2.2c0.7,0,1.3-0.6,1.3-1.3s-0.6-1.3-1.3-1.3H303c-0.7,0-1.3,0.6-1.3,1.3
		C301.6,220,302.3,220.6,303,220.6z"/>
	<path class="st1" d="M305,222.3h-2c-0.7,0-1.3,0.6-1.3,1.3s0.6,1.3,1.3,1.3h2.2c0.7,0,1.3-0.6,1.3-1.3S305.9,222.3,305,222.3z"/>
	<path class="st1" d="M295,211.5h-2.2c-0.7,0-1.3,0.6-1.3,1.3s0.6,1.3,1.3,1.3h2.2c0.7,0,1.3-0.6,1.3-1.3S295.8,211.5,295,211.5z"/>
	<path class="st1" d="M288.5,215.8h-2.2c-0.7,0-1.3,0.6-1.3,1.3s0.6,1.3,1.3,1.3h2.2c0.7,0,1.3-0.6,1.3-1.3S289.3,215.8,288.5,215.8
		z"/>
	<path class="st1" d="M295,215.8h-2.2c-0.7,0-1.3,0.6-1.3,1.3s0.6,1.3,1.3,1.3h2.2c0.7,0,1.3-0.6,1.3-1.3S295.8,215.8,295,215.8z"/>
	<path class="st1" d="M288.5,220.1h-2.2c-0.7,0-1.3,0.6-1.3,1.3s0.6,1.3,1.3,1.3h2.2c0.7,0,1.3-0.6,1.3-1.3S289.3,220.1,288.5,220.1
		z"/>
	<path class="st1" d="M295,220.1h-2.2c-0.7,0-1.3,0.6-1.3,1.3s0.6,1.3,1.3,1.3h2.2c0.7,0,1.3-0.6,1.3-1.3S295.8,220.1,295,220.1z"/>
</g>
<g class="st8">
	<path class="st1" d="M666.7,136.5c0.7,0,1.3-0.6,1.3-1.3v-21.6c0-0.7-0.6-1.3-1.3-1.3h-8.1v-0.9c0-0.5-0.3-0.9-0.7-1.2l-7.9-4v-2.5
		l5.6-1.9c0.5-0.2,0.9-0.7,0.9-1.2c0-0.6-0.4-1.1-0.9-1.2l-6.6-2.1c-0.4-0.1-0.8-0.1-1.2,0.2c-0.3,0.2-0.5,0.6-0.5,1.1v7.8l-7.9,4
		c-0.4,0.2-0.7,0.7-0.7,1.2v0.9h-8.3c-0.7,0-1.3,0.6-1.3,1.3v21.6c0,0.7,0.6,1.3,1.3,1.3h36.3L666.7,136.5L666.7,136.5z
		 M649.8,101.4V100l2.9,0.7L649.8,101.4z M631.7,114.9h7v19h-7V114.9z M641.3,112.3l7.3-3.7l7.3,3.7v21.6h-14.6V112.3z M665.3,133.9
		h-6.8v-19h6.8V133.9z"/>
	<path class="st1" d="M646.5,114.5h-2.2c-0.7,0-1.3,0.6-1.3,1.3c0,0.7,0.6,1.3,1.3,1.3h2.2c0.7,0,1.3-0.6,1.3-1.3
		S647.3,114.5,646.5,114.5z"/>
	<path class="st1" d="M634.3,119.3h2.2c0.7,0,1.3-0.6,1.3-1.3c0-0.7-0.6-1.3-1.3-1.3h-2.2c-0.7,0-1.3,0.6-1.3,1.3
		S633.5,119.3,634.3,119.3z"/>
	<path class="st1" d="M636.3,121h-2.2c-0.7,0-1.3,0.6-1.3,1.3c0,0.7,0.6,1.3,1.3,1.3h2.2c0.7,0,1.3-0.6,1.3-1.3
		C637.8,121.6,637.2,121,636.3,121z"/>
	<path class="st1" d="M636.3,125.3h-2.2c-0.7,0-1.3,0.6-1.3,1.3c0,0.7,0.6,1.3,1.3,1.3h2.2c0.7,0,1.3-0.6,1.3-1.3
		C637.8,125.9,637.2,125.3,636.3,125.3z"/>
	<path class="st1" d="M661,119.3h2.2c0.7,0,1.3-0.6,1.3-1.3c0-0.7-0.6-1.3-1.3-1.3H661c-0.7,0-1.3,0.6-1.3,1.3
		S660.3,119.3,661,119.3z"/>
	<path class="st1" d="M661,123.6h2.2c0.7,0,1.3-0.6,1.3-1.3c0-0.7-0.6-1.3-1.3-1.3H661c-0.7,0-1.3,0.6-1.3,1.3
		S660.3,123.6,661,123.6z"/>
	<path class="st1" d="M663,125.3h-2c-0.7,0-1.3,0.6-1.3,1.3c0,0.7,0.6,1.3,1.3,1.3h2.2c0.7,0,1.3-0.6,1.3-1.3S663.8,125.3,663,125.3
		z"/>
	<path class="st1" d="M653,114.5h-2.2c-0.7,0-1.3,0.6-1.3,1.3c0,0.7,0.6,1.3,1.3,1.3h2.2c0.7,0,1.3-0.6,1.3-1.3
		S653.8,114.5,653,114.5z"/>
	<path class="st1" d="M646.5,118.8h-2.2c-0.7,0-1.3,0.6-1.3,1.3c0,0.7,0.6,1.3,1.3,1.3h2.2c0.7,0,1.3-0.6,1.3-1.3
		S647.3,118.8,646.5,118.8z"/>
	<path class="st1" d="M653,118.8h-2.2c-0.7,0-1.3,0.6-1.3,1.3c0,0.7,0.6,1.3,1.3,1.3h2.2c0.7,0,1.3-0.6,1.3-1.3
		S653.8,118.8,653,118.8z"/>
	<path class="st1" d="M646.5,123.1h-2.2c-0.7,0-1.3,0.6-1.3,1.3s0.6,1.3,1.3,1.3h2.2c0.7,0,1.3-0.6,1.3-1.3S647.3,123.1,646.5,123.1
		z"/>
	<path class="st1" d="M653,123.1h-2.2c-0.7,0-1.3,0.6-1.3,1.3s0.6,1.3,1.3,1.3h2.2c0.7,0,1.3-0.6,1.3-1.3S653.8,123.1,653,123.1z"/>
</g>
<polygon id="XMLID_63_" class="st9" points="1003.7,155.6 1005.2,155.6 1005.2,153.3 1009,153.3 1009,165.6 1005.2,165.6 
	1005.2,162.3 1007.7,162.3 1007.7,156.9 997.3,156.9 997.3,162.3 999.8,162.3 999.8,165.6 996,165.6 996,153.3 999.8,153.3 
	999.8,155.6 1001.3,155.6 1001.3,151.8 994.5,151.8 994.5,167.3 1001.3,167.3 1001.3,160.6 999,160.6 999,158.5 1006,158.5 
	1006,160.6 1003.7,160.6 1003.7,167.3 1010.5,167.3 1010.5,151.8 1003.7,151.8 "/>
<g>
	<g>
		<g>
			<path class="st1" d="M916.2,110.4c0.2-0.5,0.3-1,0.1-1.5s-0.5-0.9-1-1.2l-4.5-2.3c-0.1-0.1-0.2-0.2-0.3-0.4l-0.8-5
				c-0.2-1-1-1.7-2-1.7c-0.1,0-0.2,0-0.3,0l-5,0.8c-0.2,0-0.3,0-0.4-0.1l-3.6-3.6c-0.4-0.4-0.9-0.6-1.4-0.6s-1,0.2-1.4,0.6L892,99
				c-0.1,0.1-0.3,0.2-0.4,0.1l-5-0.8c-0.1,0-0.2,0-0.3,0c-1,0-1.8,0.7-2,1.7l-0.8,5c0,0.2-0.1,0.3-0.3,0.4l-4.5,2.3
				c-0.5,0.2-0.8,0.7-1,1.2s-0.1,1.1,0.1,1.5l2.3,4.5c0.1,0.1,0.1,0.3,0,0.5l-2.3,4.5c-0.2,0.5-0.3,1-0.1,1.5s0.5,0.9,1,1.2l4.5,2.3
				c0.1,0.1,0.2,0.2,0.3,0.4l0.8,5c0.2,1,1,1.7,2,1.7c0.1,0,0.2,0,0.3,0l5-0.8c0.2,0,0.3,0,0.4,0.1l3.6,3.6c0.4,0.4,0.9,0.6,1.4,0.6
				s1-0.2,1.4-0.6l3.6-3.6c0.1-0.1,0.3-0.2,0.4-0.1l5,0.8c0.1,0,0.2,0,0.3,0c1,0,1.8-0.7,2-1.7l0.8-5c0-0.2,0.1-0.3,0.3-0.4l4.5-2.3
				c0.5-0.2,0.8-0.7,1-1.2s0.1-1.1-0.1-1.5l-2.3-4.5c-0.1-0.1-0.1-0.3,0-0.5L916.2,110.4z M912.6,116.1l2.3,4.5
				c0.1,0.1,0.1,0.3,0,0.4c0,0.1-0.1,0.2-0.3,0.3l-4.5,2.3c-0.6,0.3-1,0.8-1.1,1.5l-0.8,5c0,0.3-0.3,0.5-0.6,0.4l-5-0.8
				c-0.1,0-0.2,0-0.3,0c-0.5,0-1,0.2-1.4,0.6l-3.6,3.6c-0.2,0.2-0.5,0.2-0.7,0l-3.4-3.7c-0.4-0.4-0.9-0.6-1.4-0.6
				c-0.1,0-0.2,0-0.3,0l-5,0.8c-0.3,0-0.5-0.2-0.6-0.4l-0.8-5c-0.1-0.6-0.5-1.2-1.1-1.5l-4.5-2.3c-0.1-0.1-0.2-0.2-0.3-0.3
				c0-0.1,0-0.3,0-0.4l2.3-4.5c0.3-0.6,0.3-1.3,0-1.8l-2.3-4.5c-0.1-0.1-0.1-0.3,0-0.4s0.1-0.2,0.3-0.3l4.5-2.3
				c0.6-0.3,1-0.8,1.1-1.5l0.8-5c0-0.3,0.3-0.5,0.6-0.4l5,0.8c0.1,0,0.2,0,0.3,0l0,0c0.5,0,1-0.2,1.4-0.6l3.6-3.6
				c0.2-0.2,0.5-0.2,0.7,0l3.6,3.6c0.4,0.5,1.1,0.7,1.7,0.6l5-0.8c0.3,0,0.5,0.2,0.6,0.4l0.8,5c0.1,0.6,0.5,1.2,1.1,1.5l4.5,2.3
				c0.1,0.1,0.2,0.2,0.3,0.3c0,0.1,0,0.3,0,0.4l-2.3,4.5C912.3,114.7,912.3,115.4,912.6,116.1z"/>
			<path class="st1" d="M903,106.6c0.1,0.1,0.3,0.1,0.4,0.1c0.2,0,0.5-0.1,0.6-0.3c0.2-0.3,0.1-0.8-0.2-1s-0.8-0.1-1,0.2
				S902.7,106.4,903,106.6z"/>
			<path class="st1" d="M905.4,108.6c0.2,0,0.4-0.1,0.5-0.2c0.3-0.3,0.3-0.7,0.1-1.1c-0.3-0.3-0.8-0.3-1.1-0.1
				c-0.3,0.3-0.3,0.7-0.1,1.1C905,108.4,905.2,108.6,905.4,108.6z"/>
			<path class="st1" d="M900.8,124.7c-0.4,0.1-0.6,0.6-0.4,1c0.1,0.3,0.4,0.5,0.7,0.5c0.1,0,0.2,0,0.3,0c0.4-0.1,0.6-0.6,0.4-1
				C901.6,124.9,901.2,124.6,900.8,124.7z"/>
			<path class="st1" d="M903,123.6c-0.3,0.2-0.4,0.7-0.2,1c0.1,0.2,0.4,0.3,0.6,0.3c0.1,0,0.3,0,0.4-0.1c0.3-0.2,0.4-0.7,0.2-1
				C903.8,123.4,903.4,123.4,903,123.6z"/>
			<path class="st1" d="M893.5,124.7c-0.4-0.1-0.8,0-1,0.4s0,0.8,0.4,1c0.1,0,0.2,0,0.3,0c0.3,0,0.6-0.2,0.7-0.5
				C894.1,125.4,893.9,124.9,893.5,124.7z"/>
			<path class="st1" d="M898.4,125.4c-0.4,0-0.7,0.4-0.7,0.8s0.4,0.7,0.7,0.7h0.1c0.4,0,0.7-0.4,0.7-0.8
				C899.2,125.6,898.8,125.2,898.4,125.4z"/>
			<path class="st1" d="M895.9,125.4L895.9,125.4c-0.4,0-0.8,0.2-0.8,0.7c0,0.4,0.2,0.8,0.7,0.8h0.1c0.4,0,0.7-0.3,0.7-0.7
				S896.3,125.4,895.9,125.4z"/>
			<path class="st1" d="M907.2,112.6L907.2,112.6c0.1,0.3,0.4,0.6,0.7,0.6c0.1,0,0.1,0,0.2,0c0.4-0.1,0.6-0.5,0.5-0.9
				s-0.5-0.6-0.9-0.5C907.3,111.9,907.1,112.2,907.2,112.6z"/>
			<path class="st1" d="M908.2,114.4c-0.4,0-0.8,0.3-0.8,0.8s0.3,0.8,0.8,0.7c0.4,0,0.8-0.3,0.7-0.8
				C909,114.6,908.6,114.4,908.2,114.4z"/>
			<path class="st1" d="M908.1,117.1c-0.4-0.1-0.8,0.1-0.9,0.5c-0.1,0.4,0.1,0.8,0.5,0.9c0.1,0,0.1,0,0.2,0c0.3,0,0.6-0.2,0.7-0.6
				C908.7,117.6,908.5,117.1,908.1,117.1z"/>
			<path class="st1" d="M906.9,110.7c0.1,0,0.2,0,0.3-0.1c0.4-0.2,0.5-0.6,0.3-1s-0.6-0.5-1-0.3s-0.5,0.6-0.3,1
				C906.4,110.6,906.7,110.7,906.9,110.7z"/>
			<path class="st1" d="M904.9,121.9c-0.3,0.3-0.2,0.8,0.1,1.1c0.1,0.1,0.3,0.2,0.5,0.2s0.4-0.1,0.6-0.3c0.3-0.3,0.2-0.8-0.1-1.1
				C905.6,121.6,905.1,121.6,904.9,121.9z"/>
			<path class="st1" d="M907.3,119.6c-0.4-0.2-0.8,0-1,0.3c-0.2,0.4,0,0.8,0.3,1c0.1,0.1,0.2,0.1,0.3,0.1c0.3,0,0.5-0.1,0.7-0.4
				C907.8,120.2,907.7,119.7,907.3,119.6z"/>
			<path class="st1" d="M888.9,108.6c0.2,0,0.4-0.1,0.6-0.2c0.3-0.3,0.2-0.8-0.1-1.1c-0.3-0.3-0.8-0.2-1.1,0.1s-0.2,0.8,0.1,1.1
				C888.5,108.4,888.7,108.6,888.9,108.6z"/>
			<path class="st1" d="M887,119.6c-0.4,0.2-0.5,0.6-0.3,1c0.1,0.3,0.4,0.4,0.7,0.4c0.1,0,0.2,0,0.3-0.1c0.4-0.2,0.5-0.6,0.3-1
				S887.4,119.4,887,119.6z"/>
			<path class="st1" d="M887.1,117.6c-0.1-0.4-0.5-0.6-0.9-0.5s-0.6,0.5-0.5,0.9c0.1,0.3,0.4,0.6,0.7,0.6c0.1,0,0.1,0,0.2,0
				C887,118.4,887.2,118.1,887.1,117.6z"/>
			<path class="st1" d="M886.2,113.1c0.1,0,0.1,0,0.2,0c0.3,0,0.6-0.2,0.7-0.6c0.1-0.4-0.1-0.8-0.5-0.9s-0.8,0.1-0.9,0.5
				C885.6,112.6,885.8,113.1,886.2,113.1z"/>
			<path class="st1" d="M886.1,115.9c0.4,0,0.7-0.3,0.7-0.8l0,0l0,0c0-0.4-0.3-0.8-0.8-0.8c-0.4,0-0.7,0.3-0.7,0.8l0,0l0,0
				C885.3,115.6,885.7,115.9,886.1,115.9L886.1,115.9z"/>
			<path class="st1" d="M887,110.6c0.1,0.1,0.2,0.1,0.3,0.1c0.3,0,0.5-0.1,0.7-0.4c0.2-0.4,0-0.8-0.3-1c-0.4-0.2-0.8,0-1,0.3
				S886.6,110.4,887,110.6z"/>
			<path class="st1" d="M888.4,121.9c-0.3,0.3-0.3,0.8-0.1,1.1c0.1,0.2,0.4,0.2,0.6,0.2c0.2,0,0.4-0.1,0.5-0.2
				c0.3-0.3,0.3-0.8,0.1-1.1C889.2,121.6,888.7,121.6,888.4,121.9z"/>
			<path class="st1" d="M895.8,104.9L895.8,104.9c0.5-0.1,0.8-0.4,0.7-0.8c0-0.4-0.4-0.7-0.8-0.7s-0.7,0.4-0.7,0.8
				C895.1,104.6,895.4,104.9,895.8,104.9z"/>
			<path class="st1" d="M898.4,104.9L898.4,104.9c0.5,0,0.8-0.3,0.8-0.7s-0.2-0.8-0.7-0.8c-0.4,0-0.8,0.2-0.8,0.7
				C897.7,104.4,898,104.9,898.4,104.9z"/>
			<path class="st1" d="M900.8,105.4c0.1,0,0.2,0,0.3,0c0.3,0,0.6-0.2,0.7-0.5c0.1-0.4,0-0.8-0.4-1c-0.4-0.1-0.8,0-1,0.4
				S900.4,105.4,900.8,105.4z"/>
			<path class="st1" d="M893.2,105.6c0.1,0,0.2,0,0.3,0c0.4-0.1,0.6-0.6,0.4-1c-0.1-0.4-0.6-0.6-1-0.4l0,0c-0.4,0.1-0.6,0.6-0.4,1
				C892.6,105.4,892.9,105.6,893.2,105.6z"/>
			<path class="st1" d="M891.3,123.6c-0.3-0.2-0.8-0.1-1,0.2c-0.2,0.3-0.1,0.8,0.2,1c0.1,0.1,0.3,0.1,0.4,0.1c0.2,0,0.5-0.1,0.6-0.3
				C891.7,124.4,891.6,123.9,891.3,123.6z"/>
			<path class="st1" d="M890.8,106.7c0.1,0,0.3,0,0.4-0.1c0.3-0.2,0.4-0.7,0.2-1s-0.7-0.4-1-0.2c-0.3,0.2-0.4,0.7-0.2,1
				C890.4,106.6,890.6,106.7,890.8,106.7z"/>
		</g>
	</g>
	<g>
		<path class="st1" d="M882.5,119.1h29.3c1.7,0,3.1-1.4,3.1-3.1c0-1.2-0.7-2.2-1.7-2.7v-3.4c0-0.4-0.2-0.8-0.6-0.9l-15-7.2
			c-0.3-0.1-0.6-0.1-0.9,0l-15,7.2c-0.4,0.2-0.6,0.5-0.6,0.9v3.4c-1,0.5-1.7,1.5-1.7,2.7C879.4,117.9,880.8,119.1,882.5,119.1z
			 M897.1,106.9c1.1,0,2,0.9,2,2s-0.9,2-2,2s-2-0.9-2-2S896,106.9,897.1,106.9z"/>
		<path class="st1" d="M911.6,130.7h-0.5l0.4-4c0.1-1.2,0.1-2.4,0-3.6l-0.2-1.9h-6.8l-0.2,1.9c-0.1,1.2-0.1,2.4,0,3.6l0.4,4h-4.5
			l0.4-4c0.1-1.2,0.1-2.4,0-3.6l-0.2-1.9h-6.8l-0.2,1.9c-0.1,1.2-0.1,2.4,0,3.6l0.4,4h-4.5l0.4-4c0.1-1.2,0.1-2.4,0-3.6l-0.2-1.9
			h-6.8l-0.2,1.9c-0.1,1.2-0.1,2.4,0,3.6l0.4,4h-0.5c-1.8,0-3.2,1.5-3.2,3.2s1.5,3.2,3.2,3.2h29c1.8,0,3.2-1.5,3.2-3.2
			S913.4,130.7,911.6,130.7z"/>
	</g>
</g>
<g>
	<path d="M6.8,108.2h1.1v3.8c0.5,0,0.9-0.1,1.1-0.3s0.5-0.7,0.8-1.5c0.2-0.6,0.4-1,0.6-1.2s0.4-0.4,0.7-0.6s0.6-0.2,0.9-0.2
		c0.4,0,0.7,0,0.7,0v1c0,0-0.1,0-0.2,0c-0.1,0-0.2,0-0.2,0c-0.4,0-0.6,0.1-0.8,0.3c-0.2,0.2-0.4,0.6-0.6,1.1
		c-0.3,0.7-0.5,1.2-0.7,1.4s-0.4,0.3-0.7,0.5c0.6,0.2,1.1,0.7,1.6,1.5l1.8,2.9h-1.4l-1.4-2.3c-0.4-0.6-0.7-1.1-1-1.3s-0.6-0.4-1-0.4
		v4H6.8V108.2z"/>
	<path d="M13.3,113.7c0-1.2,0.3-2,1-2.6c0.5-0.5,1.2-0.7,2-0.7c0.9,0,1.6,0.3,2.1,0.8s0.8,1.3,0.8,2.3c0,0.8-0.1,1.4-0.4,1.9
		s-0.6,0.8-1,1.1s-1,0.4-1.5,0.4c-0.9,0-1.6-0.3-2.1-0.8S13.3,114.7,13.3,113.7z M14.3,113.7c0,0.8,0.2,1.4,0.5,1.8s0.8,0.6,1.3,0.6
		c0.5,0,1-0.2,1.3-0.6s0.5-1,0.5-1.8c0-0.8-0.2-1.4-0.5-1.7s-0.8-0.6-1.3-0.6c-0.5,0-1,0.2-1.3,0.6S14.3,112.9,14.3,113.7z"/>
	<path d="M20.3,110.6h1.1v2.6h2.9v-2.6h1.1v6.2h-1.1V114h-2.9v2.8h-1.1V110.6z"/>
	<path d="M26.4,110.6h5.1v0.9h-2v5.3h-1v-5.3h-2V110.6z"/>
	<path d="M32.4,119.2v-8.6h1v0.8c0.2-0.3,0.5-0.6,0.8-0.7s0.6-0.2,1-0.2c0.5,0,1,0.1,1.4,0.4s0.7,0.7,0.9,1.2s0.3,1,0.3,1.6
		c0,0.6-0.1,1.2-0.3,1.7s-0.6,0.9-1,1.2s-0.9,0.4-1.4,0.4c-0.4,0-0.7-0.1-0.9-0.2s-0.5-0.3-0.7-0.6v3H32.4z M33.4,113.7
		c0,0.8,0.2,1.4,0.5,1.8s0.7,0.6,1.2,0.6c0.5,0,0.9-0.2,1.2-0.6s0.5-1,0.5-1.8c0-0.8-0.2-1.4-0.5-1.8s-0.7-0.6-1.2-0.6
		c-0.4,0-0.8,0.2-1.2,0.6S33.4,112.9,33.4,113.7z"/>
	<path d="M38.7,113.7c0-1.2,0.3-2,1-2.6c0.5-0.5,1.2-0.7,2-0.7c0.9,0,1.6,0.3,2.1,0.8s0.8,1.3,0.8,2.3c0,0.8-0.1,1.4-0.4,1.9
		s-0.6,0.8-1,1.1s-1,0.4-1.5,0.4c-0.9,0-1.6-0.3-2.1-0.8S38.7,114.7,38.7,113.7z M39.8,113.7c0,0.8,0.2,1.4,0.5,1.8s0.8,0.6,1.3,0.6
		c0.5,0,1-0.2,1.3-0.6s0.5-1,0.5-1.8c0-0.8-0.2-1.4-0.5-1.7s-0.8-0.6-1.3-0.6c-0.5,0-1,0.2-1.3,0.6S39.8,112.9,39.8,113.7z"/>
	<path d="M46,110.6h4.9v6.2h-1v-5.3h-2.8v3.1c0,0.7,0,1.2-0.1,1.4s-0.2,0.4-0.4,0.6s-0.5,0.3-0.9,0.3c-0.2,0-0.5,0-0.8,0v-0.9h0.5
		c0.2,0,0.4,0,0.5-0.1s0.2-0.1,0.2-0.2s0-0.4,0-1V110.6z"/>
	<path d="M52.5,110.6h1.1v2.4h1.3c0.9,0,1.5,0.2,2,0.5s0.7,0.8,0.7,1.4c0,0.5-0.2,1-0.6,1.3s-1,0.6-1.9,0.6h-2.6V110.6z M53.6,115.9
		h1.1c0.7,0,1.1-0.1,1.4-0.2s0.4-0.4,0.4-0.8c0-0.3-0.1-0.5-0.3-0.7s-0.7-0.3-1.4-0.3h-1.2V115.9z"/>
	<path d="M58.8,110.6h1.1v2.6h2.9v-2.6h1.1v6.2h-1.1V114h-2.9v2.8h-1.1V110.6z"/>
	<path d="M69.5,116c-0.4,0.3-0.8,0.6-1.1,0.7s-0.7,0.2-1.2,0.2c-0.7,0-1.2-0.2-1.6-0.5s-0.6-0.8-0.6-1.3c0-0.3,0.1-0.6,0.2-0.8
		s0.3-0.5,0.5-0.6s0.5-0.3,0.8-0.3c0.2-0.1,0.5-0.1,0.9-0.2c0.9-0.1,1.5-0.2,1.9-0.4c0-0.1,0-0.2,0-0.3c0-0.4-0.1-0.7-0.3-0.9
		c-0.3-0.2-0.7-0.4-1.2-0.4c-0.5,0-0.9,0.1-1.1,0.3s-0.4,0.5-0.5,0.9l-1-0.1c0.1-0.4,0.2-0.8,0.5-1.1s0.5-0.5,0.9-0.6
		s0.9-0.2,1.4-0.2c0.5,0,1,0.1,1.3,0.2s0.6,0.3,0.7,0.5s0.3,0.4,0.3,0.7c0,0.2,0.1,0.5,0.1,1v1.4c0,1,0,1.6,0.1,1.9s0.1,0.5,0.3,0.7
		h-1.1C69.6,116.6,69.5,116.3,69.5,116z M69.4,113.7c-0.4,0.2-1,0.3-1.7,0.4c-0.4,0.1-0.7,0.1-0.9,0.2s-0.3,0.2-0.4,0.3
		s-0.1,0.3-0.1,0.5c0,0.3,0.1,0.5,0.3,0.7s0.5,0.3,0.9,0.3c0.4,0,0.8-0.1,1.1-0.3s0.5-0.4,0.7-0.7c0.1-0.2,0.2-0.6,0.2-1.1V113.7z"
		/>
	<path d="M77,110.6v6.2h-1v-2.4h-0.6c-0.4,0-0.6,0-0.8,0.1s-0.4,0.4-0.8,0.9l-0.9,1.4h-1.3l1.1-1.7c0.3-0.5,0.7-0.8,1-0.9
		c-0.6-0.1-1-0.3-1.3-0.7s-0.4-0.8-0.4-1.2c0-0.5,0.2-1,0.6-1.3s0.9-0.5,1.7-0.5H77z M75.9,111.5h-1.5c-0.6,0-1,0.1-1.2,0.3
		s-0.3,0.4-0.3,0.7c0,0.4,0.1,0.6,0.4,0.8s0.7,0.3,1.4,0.3h1.2V111.5z"/>
	<path d="M81.9,110.6H83v2.7c0.3,0,0.6-0.1,0.7-0.2s0.3-0.5,0.6-1.1c0.2-0.5,0.4-0.8,0.5-1s0.3-0.3,0.4-0.3s0.4-0.1,0.8-0.1h0.2v0.9
		l-0.3,0c-0.3,0-0.5,0-0.5,0.1c-0.1,0.1-0.2,0.3-0.4,0.8c-0.2,0.4-0.3,0.7-0.4,0.8s-0.3,0.3-0.6,0.4c0.5,0.1,0.9,0.5,1.3,1.3
		l1.2,1.9h-1.2l-1.1-1.9c-0.2-0.4-0.4-0.6-0.6-0.8s-0.4-0.2-0.6-0.2v2.9h-1.1V110.6z"/>
	<path d="M86.9,113.7c0-1.2,0.3-2,1-2.6c0.5-0.5,1.2-0.7,2-0.7c0.9,0,1.6,0.3,2.1,0.8s0.8,1.3,0.8,2.3c0,0.8-0.1,1.4-0.4,1.9
		s-0.6,0.8-1,1.1s-1,0.4-1.5,0.4c-0.9,0-1.6-0.3-2.1-0.8S86.9,114.7,86.9,113.7z M88,113.7c0,0.8,0.2,1.4,0.5,1.8s0.8,0.6,1.3,0.6
		c0.5,0,1-0.2,1.3-0.6s0.5-1,0.5-1.8c0-0.8-0.2-1.4-0.5-1.7s-0.8-0.6-1.3-0.6c-0.5,0-1,0.2-1.3,0.6S88,112.9,88,113.7z"/>
	<path d="M94,110.6h1.6l1.6,5l1.8-5h1.5v6.2h-1.1v-5l-1.8,5h-0.9l-1.7-5.3v5.3h-1V110.6z"/>
	<path d="M102.2,110.6h4.9v6.2h-1.1v-5.3h-2.8v5.3h-1.1V110.6z"/>
	<path d="M112.8,116c-0.4,0.3-0.8,0.6-1.1,0.7s-0.7,0.2-1.2,0.2c-0.7,0-1.2-0.2-1.6-0.5s-0.6-0.8-0.6-1.3c0-0.3,0.1-0.6,0.2-0.8
		s0.3-0.5,0.5-0.6s0.5-0.3,0.8-0.3c0.2-0.1,0.5-0.1,0.9-0.2c0.9-0.1,1.5-0.2,1.9-0.4c0-0.1,0-0.2,0-0.3c0-0.4-0.1-0.7-0.3-0.9
		c-0.3-0.2-0.7-0.4-1.2-0.4c-0.5,0-0.9,0.1-1.1,0.3s-0.4,0.5-0.5,0.9l-1-0.1c0.1-0.4,0.2-0.8,0.5-1.1s0.5-0.5,0.9-0.6
		s0.9-0.2,1.4-0.2c0.5,0,1,0.1,1.3,0.2s0.6,0.3,0.7,0.5s0.3,0.4,0.3,0.7c0,0.2,0.1,0.5,0.1,1v1.4c0,1,0,1.6,0.1,1.9s0.1,0.5,0.3,0.7
		H113C112.9,116.6,112.8,116.3,112.8,116z M112.7,113.7c-0.4,0.2-1,0.3-1.7,0.4c-0.4,0.1-0.7,0.1-0.9,0.2s-0.3,0.2-0.4,0.3
		s-0.1,0.3-0.1,0.5c0,0.3,0.1,0.5,0.3,0.7s0.5,0.3,0.9,0.3c0.4,0,0.8-0.1,1.1-0.3s0.5-0.4,0.7-0.7c0.1-0.2,0.2-0.6,0.2-1.1V113.7z"
		/>
	<path d="M115.4,110.6h1.1v2.6h2.9v-2.6h1.1v6.2h-1.1V114h-2.9v2.8h-1.1V110.6z"/>
	<path d="M122,110.6h1.1v4.7l2.9-4.7h1.1v6.2h-1.1v-4.7l-2.9,4.7H122V110.6z"/>
	<path d="M133.6,110.6v6.2h-1v-2.4H132c-0.4,0-0.6,0-0.8,0.1s-0.4,0.4-0.8,0.9l-0.9,1.4h-1.3l1.1-1.7c0.3-0.5,0.7-0.8,1-0.9
		c-0.6-0.1-1-0.3-1.3-0.7s-0.4-0.8-0.4-1.2c0-0.5,0.2-1,0.6-1.3s0.9-0.5,1.7-0.5H133.6z M132.6,111.5h-1.5c-0.6,0-1,0.1-1.2,0.3
		s-0.3,0.4-0.3,0.7c0,0.4,0.1,0.6,0.4,0.8s0.7,0.3,1.4,0.3h1.2V111.5z"/>
	<path d="M138.8,116.8v-8.6h5.8v1h-4.7v2.7h4v1h-4v3.9H138.8z"/>
	<path d="M152.2,113.8l1.1,0.3c-0.2,0.9-0.7,1.6-1.3,2.1s-1.4,0.7-2.3,0.7c-0.9,0-1.7-0.2-2.3-0.6s-1-0.9-1.3-1.6s-0.5-1.5-0.5-2.3
		c0-0.9,0.2-1.7,0.5-2.3s0.8-1.2,1.5-1.5s1.3-0.5,2.1-0.5c0.9,0,1.6,0.2,2.2,0.7s1,1.1,1.2,1.8l-1.1,0.3c-0.2-0.6-0.5-1.1-0.9-1.4
		s-0.9-0.4-1.4-0.4c-0.7,0-1.2,0.2-1.7,0.5s-0.8,0.7-0.9,1.3s-0.3,1.1-0.3,1.6c0,0.7,0.1,1.4,0.3,1.9s0.5,1,1,1.2s0.9,0.4,1.5,0.4
		c0.6,0,1.2-0.2,1.6-0.6S152,114.5,152.2,113.8z"/>
	<path d="M153.7,116.8l3.3-8.6h1.2l3.5,8.6h-1.3l-1-2.6h-3.6l-0.9,2.6H153.7z M156.2,113.3h2.9l-0.9-2.4c-0.3-0.7-0.5-1.3-0.6-1.8
		c-0.1,0.6-0.3,1.1-0.5,1.6L156.2,113.3z"/>
	<path d="M3,122.6h1.1v3.8c0.5,0,0.9-0.1,1.1-0.3s0.5-0.7,0.8-1.5c0.2-0.6,0.4-1,0.6-1.2s0.4-0.4,0.7-0.6s0.6-0.2,0.9-0.2
		c0.4,0,0.7,0,0.7,0v1c0,0-0.1,0-0.2,0c-0.1,0-0.2,0-0.2,0c-0.4,0-0.6,0.1-0.8,0.3C7.5,124,7.3,124.4,7,125
		c-0.3,0.7-0.5,1.2-0.7,1.4s-0.4,0.3-0.7,0.5c0.6,0.2,1.1,0.7,1.6,1.5l1.8,2.9H7.6l-1.4-2.3c-0.4-0.6-0.7-1.1-1-1.3s-0.6-0.4-1-0.4
		v4H3V122.6z"/>
	<path d="M9.4,128.1c0-1.2,0.3-2,1-2.6c0.5-0.5,1.2-0.7,2-0.7c0.9,0,1.6,0.3,2.1,0.8s0.8,1.3,0.8,2.3c0,0.8-0.1,1.4-0.4,1.9
		s-0.6,0.8-1,1.1s-1,0.4-1.5,0.4c-0.9,0-1.6-0.3-2.1-0.8S9.4,129.1,9.4,128.1z M10.5,128.1c0,0.8,0.2,1.4,0.5,1.8s0.8,0.6,1.3,0.6
		c0.5,0,1-0.2,1.3-0.6s0.5-1,0.5-1.8c0-0.8-0.2-1.4-0.5-1.7s-0.8-0.6-1.3-0.6c-0.5,0-1,0.2-1.3,0.6S10.5,127.3,10.5,128.1z"/>
	<path d="M16.5,125h1.6l1.6,5l1.8-5h1.5v6.2h-1.1v-5l-1.8,5h-0.9l-1.7-5.3v5.3h-1V125z"/>
	<path d="M24.8,125h4.9v6.2h-1.1v-5.3h-2.8v5.3h-1.1V125z"/>
	<path d="M35.3,130.4c-0.4,0.3-0.8,0.6-1.1,0.7s-0.7,0.2-1.2,0.2c-0.7,0-1.2-0.2-1.6-0.5s-0.6-0.8-0.6-1.3c0-0.3,0.1-0.6,0.2-0.8
		s0.3-0.5,0.5-0.6s0.5-0.3,0.8-0.3c0.2-0.1,0.5-0.1,0.9-0.2c0.9-0.1,1.5-0.2,1.9-0.4c0-0.1,0-0.2,0-0.3c0-0.4-0.1-0.7-0.3-0.9
		c-0.3-0.2-0.7-0.4-1.2-0.4c-0.5,0-0.9,0.1-1.1,0.3s-0.4,0.5-0.5,0.9l-1-0.1c0.1-0.4,0.2-0.8,0.5-1.1s0.5-0.5,0.9-0.6
		s0.9-0.2,1.4-0.2c0.5,0,1,0.1,1.3,0.2s0.6,0.3,0.7,0.5s0.3,0.4,0.3,0.7c0,0.2,0.1,0.5,0.1,1v1.4c0,1,0,1.6,0.1,1.9s0.1,0.5,0.3,0.7
		h-1.1C35.4,131,35.4,130.7,35.3,130.4z M35.2,128.1c-0.4,0.2-1,0.3-1.7,0.4c-0.4,0.1-0.7,0.1-0.9,0.2s-0.3,0.2-0.4,0.3
		s-0.1,0.3-0.1,0.5c0,0.3,0.1,0.5,0.3,0.7s0.5,0.3,0.9,0.3c0.4,0,0.8-0.1,1.1-0.3s0.5-0.4,0.7-0.7c0.1-0.2,0.2-0.6,0.2-1.1V128.1z"
		/>
	<path d="M37.9,125H39v2.6h2.9V125H43v6.2h-1.1v-2.8H39v2.8h-1.1V125z"/>
	<path d="M44.6,125h1.1v4.7l2.9-4.7h1.1v6.2h-1.1v-4.7l-2.9,4.7h-1.1V125z"/>
	<path d="M56.2,125v6.2h-1v-2.4h-0.6c-0.4,0-0.6,0-0.8,0.1s-0.4,0.4-0.8,0.9l-0.9,1.4h-1.3l1.1-1.7c0.3-0.5,0.7-0.8,1-0.9
		c-0.6-0.1-1-0.3-1.3-0.7s-0.4-0.8-0.4-1.2c0-0.5,0.2-1,0.6-1.3s0.9-0.5,1.7-0.5H56.2z M55.1,125.9h-1.5c-0.6,0-1,0.1-1.2,0.3
		s-0.3,0.4-0.3,0.7c0,0.4,0.1,0.6,0.4,0.8s0.7,0.3,1.4,0.3h1.2V125.9z"/>
	<path d="M60.7,128.1c0-1.2,0.3-2,1-2.6c0.5-0.5,1.2-0.7,2-0.7c0.9,0,1.6,0.3,2.1,0.8s0.8,1.3,0.8,2.3c0,0.8-0.1,1.4-0.4,1.9
		s-0.6,0.8-1,1.1s-1,0.4-1.5,0.4c-0.9,0-1.6-0.3-2.1-0.8S60.7,129.1,60.7,128.1z M61.8,128.1c0,0.8,0.2,1.4,0.5,1.8s0.8,0.6,1.3,0.6
		c0.5,0,1-0.2,1.3-0.6s0.5-1,0.5-1.8c0-0.8-0.2-1.4-0.5-1.7s-0.8-0.6-1.3-0.6c-0.5,0-1,0.2-1.3,0.6S61.8,127.3,61.8,128.1z"/>
	<path d="M66.9,125H72v0.9h-2v5.3h-1v-5.3h-2V125z"/>
	<path d="M72.6,125h1.1v1.2c0,0.5,0,0.9,0.1,1.1s0.2,0.4,0.4,0.6s0.5,0.3,0.9,0.3c0.4,0,0.9-0.1,1.5-0.3V125h1.1v6.2h-1.1v-2.5
		c-0.6,0.2-1.3,0.3-1.8,0.3c-0.5,0-0.9-0.1-1.3-0.4s-0.6-0.5-0.7-0.9s-0.2-0.7-0.2-1.1V125z"/>
	<path d="M83.5,129.2l1.1,0.1c-0.2,0.6-0.5,1.1-1,1.5s-1.1,0.5-1.8,0.5c-0.9,0-1.6-0.3-2.2-0.8s-0.8-1.3-0.8-2.4
		c0-1,0.3-1.9,0.8-2.4s1.2-0.9,2.1-0.9c0.8,0,1.5,0.3,2,0.8s0.8,1.4,0.8,2.4c0,0.1,0,0.2,0,0.3H80c0,0.7,0.2,1.2,0.6,1.6
		s0.8,0.5,1.3,0.5c0.4,0,0.7-0.1,1-0.3S83.4,129.6,83.5,129.2z M80.1,127.5h3.5c0-0.5-0.2-0.9-0.4-1.2c-0.3-0.4-0.8-0.6-1.3-0.6
		c-0.5,0-0.9,0.2-1.2,0.5S80.1,126.9,80.1,127.5z"/>
	<path d="M85,125H90v0.9h-2v5.3h-1v-5.3h-2V125z"/>
	<path d="M91,125h1.1v2.6H95V125h1.1v6.2H95v-2.8h-2.9v2.8H91V125z"/>
	<path d="M97.3,128.1c0-1.2,0.3-2,1-2.6c0.5-0.5,1.2-0.7,2-0.7c0.9,0,1.6,0.3,2.1,0.8s0.8,1.3,0.8,2.3c0,0.8-0.1,1.4-0.4,1.9
		s-0.6,0.8-1,1.1s-1,0.4-1.5,0.4c-0.9,0-1.6-0.3-2.1-0.8S97.3,129.1,97.3,128.1z M98.3,128.1c0,0.8,0.2,1.4,0.5,1.8s0.8,0.6,1.3,0.6
		c0.5,0,1-0.2,1.3-0.6s0.5-1,0.5-1.8c0-0.8-0.2-1.4-0.5-1.7s-0.8-0.6-1.3-0.6c-0.5,0-1,0.2-1.3,0.6S98.3,127.3,98.3,128.1z"/>
	<path d="M108.4,128.9l1,0.1c-0.1,0.7-0.4,1.3-0.9,1.7s-1,0.6-1.7,0.6c-0.9,0-1.5-0.3-2.1-0.8s-0.8-1.4-0.8-2.4
		c0-0.7,0.1-1.3,0.3-1.8s0.6-0.9,1-1.1s1-0.4,1.5-0.4c0.7,0,1.2,0.2,1.7,0.5s0.7,0.8,0.8,1.5l-1,0.2c-0.1-0.4-0.3-0.7-0.5-0.9
		s-0.5-0.3-0.9-0.3c-0.5,0-1,0.2-1.3,0.6s-0.5,1-0.5,1.8c0,0.8,0.2,1.4,0.5,1.8s0.7,0.6,1.3,0.6c0.4,0,0.8-0.1,1-0.4
		S108.3,129.4,108.4,128.9z"/>
	<path d="M109.8,125h5.1v0.9h-2v5.3h-1v-5.3h-2V125z"/>
	<path d="M115.8,125h1.1v4.7l2.9-4.7h1.1v6.2h-1.1v-4.7l-2.9,4.7h-1.1V125z"/>
	<path d="M125.1,131.2l3.3-8.6h1.2l3.5,8.6h-1.3l-1-2.6h-3.6l-0.9,2.6H125.1z M127.5,127.7h2.9l-0.9-2.4c-0.3-0.7-0.5-1.3-0.6-1.8
		c-0.1,0.6-0.3,1.1-0.5,1.6L127.5,127.7z"/>
	<path d="M133.9,125h1.1v2.6h2.9V125h1.1v6.2h-1.1v-2.8h-2.9v2.8h-1.1V125z"/>
	<path d="M140.5,125h1.1v2.4h1.3c0.9,0,1.5,0.2,2,0.5s0.7,0.8,0.7,1.4c0,0.5-0.2,1-0.6,1.3s-1,0.6-1.9,0.6h-2.6V125z M141.5,130.3
		h1.1c0.7,0,1.1-0.1,1.4-0.2s0.4-0.4,0.4-0.8c0-0.3-0.1-0.5-0.3-0.7s-0.7-0.3-1.4-0.3h-1.2V130.3z"/>
	<path d="M146.8,125h1.1v2.6h1.3c0.1-0.9,0.4-1.6,0.8-2s1.1-0.7,1.8-0.7c0.6,0,1.1,0.1,1.5,0.4s0.7,0.6,0.9,1s0.4,1,0.4,1.8
		c0,1.1-0.2,1.9-0.7,2.4s-1.2,0.8-2,0.8c-0.8,0-1.4-0.3-1.9-0.8s-0.7-1.2-0.8-2.1h-1.3v2.8h-1.1V125z M151.8,125.7
		c-0.5,0-0.9,0.2-1.2,0.6s-0.4,1-0.4,1.7c0,0.9,0.1,1.5,0.4,1.9s0.7,0.6,1.2,0.6c0.5,0,0.9-0.2,1.2-0.6s0.5-1,0.5-1.8
		c0-0.8-0.1-1.4-0.4-1.8S152.3,125.7,151.8,125.7z"/>
	<path d="M155.8,125h1.1v2.6h2.9V125h1.1v6.2h-1.1v-2.8h-2.9v2.8h-1.1V125z"/>
</g>
<g>
	<path d="M12.5,295.1h1.1v3.8c0.5,0,0.9-0.1,1.1-0.3s0.5-0.7,0.8-1.5c0.2-0.6,0.4-1,0.6-1.2s0.4-0.4,0.7-0.6s0.6-0.2,0.9-0.2
		c0.4,0,0.7,0,0.7,0v1c0,0-0.1,0-0.2,0c-0.1,0-0.2,0-0.2,0c-0.4,0-0.6,0.1-0.8,0.3c-0.2,0.2-0.4,0.6-0.6,1.1
		c-0.3,0.7-0.5,1.2-0.7,1.4s-0.4,0.3-0.7,0.5c0.6,0.2,1.1,0.7,1.6,1.5l1.8,2.9h-1.4l-1.4-2.3c-0.4-0.6-0.7-1.1-1-1.3s-0.6-0.4-1-0.4
		v4h-1.1V295.1z"/>
	<path d="M18.9,300.6c0-1.2,0.3-2,1-2.6c0.5-0.5,1.2-0.7,2-0.7c0.9,0,1.6,0.3,2.1,0.8s0.8,1.3,0.8,2.3c0,0.8-0.1,1.4-0.4,1.9
		s-0.6,0.8-1,1.1s-1,0.4-1.5,0.4c-0.9,0-1.6-0.3-2.1-0.8S18.9,301.6,18.9,300.6z M20,300.6c0,0.8,0.2,1.4,0.5,1.8s0.8,0.6,1.3,0.6
		c0.5,0,1-0.2,1.3-0.6s0.5-1,0.5-1.8c0-0.8-0.2-1.4-0.5-1.7s-0.8-0.6-1.3-0.6c-0.5,0-1,0.2-1.3,0.6S20,299.8,20,300.6z"/>
	<path d="M26,297.5h1.1v2.6H30v-2.6H31v6.2H30v-2.8h-2.9v2.8H26V297.5z"/>
	<path d="M32.1,297.5h5.1v0.9h-2v5.3h-1v-5.3h-2V297.5z"/>
	<path d="M38.1,306.1v-8.6h1v0.8c0.2-0.3,0.5-0.6,0.8-0.7s0.6-0.2,1-0.2c0.5,0,1,0.1,1.4,0.4s0.7,0.7,0.9,1.2s0.3,1,0.3,1.6
		c0,0.6-0.1,1.2-0.3,1.7s-0.6,0.9-1,1.2s-0.9,0.4-1.4,0.4c-0.4,0-0.7-0.1-0.9-0.2s-0.5-0.3-0.7-0.6v3H38.1z M39.1,300.6
		c0,0.8,0.2,1.4,0.5,1.8s0.7,0.6,1.2,0.6c0.5,0,0.9-0.2,1.2-0.6s0.5-1,0.5-1.8c0-0.8-0.2-1.4-0.5-1.8s-0.7-0.6-1.2-0.6
		c-0.4,0-0.8,0.2-1.2,0.6S39.1,299.8,39.1,300.6z"/>
	<path d="M44.4,300.6c0-1.2,0.3-2,1-2.6c0.5-0.5,1.2-0.7,2-0.7c0.9,0,1.6,0.3,2.1,0.8s0.8,1.3,0.8,2.3c0,0.8-0.1,1.4-0.4,1.9
		s-0.6,0.8-1,1.1s-1,0.4-1.5,0.4c-0.9,0-1.6-0.3-2.1-0.8S44.4,301.6,44.4,300.6z M45.5,300.6c0,0.8,0.2,1.4,0.5,1.8s0.8,0.6,1.3,0.6
		c0.5,0,1-0.2,1.3-0.6s0.5-1,0.5-1.8c0-0.8-0.2-1.4-0.5-1.7s-0.8-0.6-1.3-0.6c-0.5,0-1,0.2-1.3,0.6S45.5,299.8,45.5,300.6z"/>
	<path d="M51.7,297.5h4.9v6.2h-1v-5.3h-2.8v3.1c0,0.7,0,1.2-0.1,1.4s-0.2,0.4-0.4,0.6s-0.5,0.3-0.9,0.3c-0.2,0-0.5,0-0.8,0v-0.9H51
		c0.2,0,0.4,0,0.5-0.1s0.2-0.1,0.2-0.2s0-0.4,0-1V297.5z"/>
	<path d="M58.2,297.5h1.1v2.4h1.3c0.9,0,1.5,0.2,2,0.5s0.7,0.8,0.7,1.4c0,0.5-0.2,1-0.6,1.3s-1,0.6-1.9,0.6h-2.6V297.5z M59.2,302.8
		h1.1c0.7,0,1.1-0.1,1.4-0.2s0.4-0.4,0.4-0.8c0-0.3-0.1-0.5-0.3-0.7s-0.7-0.3-1.4-0.3h-1.2V302.8z"/>
	<path d="M64.5,297.5h1.1v2.6h2.9v-2.6h1.1v6.2h-1.1v-2.8h-2.9v2.8h-1.1V297.5z"/>
	<path d="M75.1,302.9c-0.4,0.3-0.8,0.6-1.1,0.7s-0.7,0.2-1.2,0.2c-0.7,0-1.2-0.2-1.6-0.5s-0.6-0.8-0.6-1.3c0-0.3,0.1-0.6,0.2-0.8
		s0.3-0.5,0.5-0.6s0.5-0.3,0.8-0.3c0.2-0.1,0.5-0.1,0.9-0.2c0.9-0.1,1.5-0.2,1.9-0.4c0-0.1,0-0.2,0-0.3c0-0.4-0.1-0.7-0.3-0.9
		c-0.3-0.2-0.7-0.4-1.2-0.4c-0.5,0-0.9,0.1-1.1,0.3s-0.4,0.5-0.5,0.9l-1-0.1c0.1-0.4,0.2-0.8,0.5-1.1s0.5-0.5,0.9-0.6
		s0.9-0.2,1.4-0.2c0.5,0,1,0.1,1.3,0.2s0.6,0.3,0.7,0.5s0.3,0.4,0.3,0.7c0,0.2,0.1,0.5,0.1,1v1.4c0,1,0,1.6,0.1,1.9s0.1,0.5,0.3,0.7
		h-1.1C75.2,303.5,75.2,303.2,75.1,302.9z M75.1,300.6c-0.4,0.2-1,0.3-1.7,0.4c-0.4,0.1-0.7,0.1-0.9,0.2s-0.3,0.2-0.4,0.3
		s-0.1,0.3-0.1,0.5c0,0.3,0.1,0.5,0.3,0.7s0.5,0.3,0.9,0.3c0.4,0,0.8-0.1,1.1-0.3s0.5-0.4,0.7-0.7c0.1-0.2,0.2-0.6,0.2-1.1V300.6z"
		/>
	<path d="M82.7,297.5v6.2h-1v-2.4H81c-0.4,0-0.6,0-0.8,0.1s-0.4,0.4-0.8,0.9l-0.9,1.4h-1.3l1.1-1.7c0.3-0.5,0.7-0.8,1-0.9
		c-0.6-0.1-1-0.3-1.3-0.7s-0.4-0.8-0.4-1.2c0-0.5,0.2-1,0.6-1.3s0.9-0.5,1.7-0.5H82.7z M81.6,298.3h-1.5c-0.6,0-1,0.1-1.2,0.3
		s-0.3,0.4-0.3,0.7c0,0.4,0.1,0.6,0.4,0.8s0.7,0.3,1.4,0.3h1.2V298.3z"/>
	<path d="M87.6,297.5h1.1v2.7c0.3,0,0.6-0.1,0.7-0.2s0.3-0.5,0.6-1.1c0.2-0.5,0.4-0.8,0.5-1s0.3-0.3,0.4-0.3s0.4-0.1,0.8-0.1h0.2
		v0.9l-0.3,0c-0.3,0-0.5,0-0.5,0.1c-0.1,0.1-0.2,0.3-0.4,0.8c-0.2,0.4-0.3,0.7-0.4,0.8s-0.3,0.3-0.6,0.4c0.5,0.1,0.9,0.5,1.3,1.3
		l1.2,1.9H91l-1.1-1.9c-0.2-0.4-0.4-0.6-0.6-0.8s-0.4-0.2-0.6-0.2v2.9h-1.1V297.5z"/>
	<path d="M92.6,300.6c0-1.2,0.3-2,1-2.6c0.5-0.5,1.2-0.7,2-0.7c0.9,0,1.6,0.3,2.1,0.8s0.8,1.3,0.8,2.3c0,0.8-0.1,1.4-0.4,1.9
		s-0.6,0.8-1,1.1s-1,0.4-1.5,0.4c-0.9,0-1.6-0.3-2.1-0.8S92.6,301.6,92.6,300.6z M93.7,300.6c0,0.8,0.2,1.4,0.5,1.8s0.8,0.6,1.3,0.6
		c0.5,0,1-0.2,1.3-0.6s0.5-1,0.5-1.8c0-0.8-0.2-1.4-0.5-1.7s-0.8-0.6-1.3-0.6c-0.5,0-1,0.2-1.3,0.6S93.7,299.8,93.7,300.6z"/>
	<path d="M99.7,297.5h1.6l1.6,5l1.8-5h1.5v6.2h-1.1v-5l-1.8,5h-0.9l-1.7-5.3v5.3h-1V297.5z"/>
	<path d="M107.9,297.5h4.9v6.2h-1.1v-5.3H109v5.3h-1.1V297.5z"/>
	<path d="M118.5,302.9c-0.4,0.3-0.8,0.6-1.1,0.7s-0.7,0.2-1.2,0.2c-0.7,0-1.2-0.2-1.6-0.5s-0.6-0.8-0.6-1.3c0-0.3,0.1-0.6,0.2-0.8
		s0.3-0.5,0.5-0.6s0.5-0.3,0.8-0.3c0.2-0.1,0.5-0.1,0.9-0.2c0.9-0.1,1.5-0.2,1.9-0.4c0-0.1,0-0.2,0-0.3c0-0.4-0.1-0.7-0.3-0.9
		c-0.3-0.2-0.7-0.4-1.2-0.4c-0.5,0-0.9,0.1-1.1,0.3s-0.4,0.5-0.5,0.9l-1-0.1c0.1-0.4,0.2-0.8,0.5-1.1s0.5-0.5,0.9-0.6
		s0.9-0.2,1.4-0.2c0.5,0,1,0.1,1.3,0.2s0.6,0.3,0.7,0.5s0.3,0.4,0.3,0.7c0,0.2,0.1,0.5,0.1,1v1.4c0,1,0,1.6,0.1,1.9s0.1,0.5,0.3,0.7
		h-1.1C118.6,303.5,118.5,303.2,118.5,302.9z M118.4,300.6c-0.4,0.2-1,0.3-1.7,0.4c-0.4,0.1-0.7,0.1-0.9,0.2s-0.3,0.2-0.4,0.3
		s-0.1,0.3-0.1,0.5c0,0.3,0.1,0.5,0.3,0.7s0.5,0.3,0.9,0.3c0.4,0,0.8-0.1,1.1-0.3s0.5-0.4,0.7-0.7c0.1-0.2,0.2-0.6,0.2-1.1V300.6z"
		/>
	<path d="M121.1,297.5h1.1v2.6h2.9v-2.6h1.1v6.2h-1.1v-2.8h-2.9v2.8h-1.1V297.5z"/>
	<path d="M127.7,297.5h1.1v4.7l2.9-4.7h1.1v6.2h-1.1V299l-2.9,4.7h-1.1V297.5z"/>
	<path d="M139.3,297.5v6.2h-1v-2.4h-0.6c-0.4,0-0.6,0-0.8,0.1s-0.4,0.4-0.8,0.9l-0.9,1.4h-1.3l1.1-1.7c0.3-0.5,0.7-0.8,1-0.9
		c-0.6-0.1-1-0.3-1.3-0.7s-0.4-0.8-0.4-1.2c0-0.5,0.2-1,0.6-1.3s0.9-0.5,1.7-0.5H139.3z M138.2,298.3h-1.5c-0.6,0-1,0.1-1.2,0.3
		s-0.3,0.4-0.3,0.7c0,0.4,0.1,0.6,0.4,0.8s0.7,0.3,1.4,0.3h1.2V298.3z"/>
	<path d="M55.8,309.5h1.1v3.8c0.5,0,0.9-0.1,1.1-0.3s0.5-0.7,0.8-1.5c0.2-0.6,0.4-1,0.6-1.2s0.4-0.4,0.7-0.6s0.6-0.2,0.9-0.2
		c0.4,0,0.7,0,0.7,0v1c0,0-0.1,0-0.2,0c-0.1,0-0.2,0-0.2,0c-0.4,0-0.6,0.1-0.8,0.3c-0.2,0.2-0.4,0.6-0.6,1.1
		c-0.3,0.7-0.5,1.2-0.7,1.4s-0.4,0.3-0.7,0.5c0.6,0.2,1.1,0.7,1.6,1.5l1.8,2.9h-1.4l-1.4-2.3c-0.4-0.6-0.7-1.1-1-1.3s-0.6-0.4-1-0.4
		v4h-1.1V309.5z"/>
	<path d="M66.7,317.3c-0.4,0.3-0.8,0.6-1.1,0.7s-0.7,0.2-1.2,0.2c-0.7,0-1.2-0.2-1.6-0.5s-0.6-0.8-0.6-1.3c0-0.3,0.1-0.6,0.2-0.8
		s0.3-0.5,0.5-0.6s0.5-0.3,0.8-0.3c0.2-0.1,0.5-0.1,0.9-0.2c0.9-0.1,1.5-0.2,1.9-0.4c0-0.1,0-0.2,0-0.3c0-0.4-0.1-0.7-0.3-0.9
		c-0.3-0.2-0.7-0.4-1.2-0.4c-0.5,0-0.9,0.1-1.1,0.3s-0.4,0.5-0.5,0.9l-1-0.1c0.1-0.4,0.2-0.8,0.5-1.1s0.5-0.5,0.9-0.6
		s0.9-0.2,1.4-0.2c0.5,0,1,0.1,1.3,0.2s0.6,0.3,0.7,0.5s0.3,0.4,0.3,0.7c0,0.2,0.1,0.5,0.1,1v1.4c0,1,0,1.6,0.1,1.9s0.1,0.5,0.3,0.7
		h-1.1C66.8,317.9,66.7,317.6,66.7,317.3z M66.6,315c-0.4,0.2-1,0.3-1.7,0.4c-0.4,0.1-0.7,0.1-0.9,0.2s-0.3,0.2-0.4,0.3
		s-0.1,0.3-0.1,0.5c0,0.3,0.1,0.5,0.3,0.7s0.5,0.3,0.9,0.3c0.4,0,0.8-0.1,1.1-0.3s0.5-0.4,0.7-0.7c0.1-0.2,0.2-0.6,0.2-1.1V315z"/>
	<path d="M69.3,311.9h1.1v4.7l2.9-4.7h1.1v6.2h-1.1v-4.7l-2.9,4.7h-1.1V311.9z M73,309.5h0.7c-0.1,0.5-0.2,0.9-0.5,1.1
		S72.5,311,72,311c-0.5,0-0.9-0.1-1.2-0.4s-0.5-0.6-0.5-1.1H71c0.1,0.3,0.2,0.5,0.3,0.6s0.4,0.2,0.7,0.2c0.3,0,0.6-0.1,0.7-0.2
		S72.9,309.8,73,309.5z"/>
	<path d="M76,311.9h1.6l1.6,5l1.8-5h1.5v6.2h-1.1v-5l-1.8,5h-0.9l-1.7-5.3v5.3h-1V311.9z"/>
	<path d="M88.3,317.3c-0.4,0.3-0.8,0.6-1.1,0.7s-0.7,0.2-1.2,0.2c-0.7,0-1.2-0.2-1.6-0.5s-0.6-0.8-0.6-1.3c0-0.3,0.1-0.6,0.2-0.8
		s0.3-0.5,0.5-0.6s0.5-0.3,0.8-0.3c0.2-0.1,0.5-0.1,0.9-0.2c0.9-0.1,1.5-0.2,1.9-0.4c0-0.1,0-0.2,0-0.3c0-0.4-0.1-0.7-0.3-0.9
		c-0.3-0.2-0.7-0.4-1.2-0.4c-0.5,0-0.9,0.1-1.1,0.3s-0.4,0.5-0.5,0.9l-1-0.1c0.1-0.4,0.2-0.8,0.5-1.1s0.5-0.5,0.9-0.6
		s0.9-0.2,1.4-0.2c0.5,0,1,0.1,1.3,0.2s0.6,0.3,0.7,0.5s0.3,0.4,0.3,0.7c0,0.2,0.1,0.5,0.1,1v1.4c0,1,0,1.6,0.1,1.9s0.1,0.5,0.3,0.7
		h-1.1C88.4,317.9,88.4,317.6,88.3,317.3z M88.2,315c-0.4,0.2-1,0.3-1.7,0.4c-0.4,0.1-0.7,0.1-0.9,0.2s-0.3,0.2-0.4,0.3
		s-0.1,0.3-0.1,0.5c0,0.3,0.1,0.5,0.3,0.7s0.5,0.3,0.9,0.3c0.4,0,0.8-0.1,1.1-0.3s0.5-0.4,0.7-0.7c0.1-0.2,0.2-0.6,0.2-1.1V315z"/>
	<path d="M90.9,311.9H92v2.6h2.9v-2.6H96v6.2h-1.1v-2.8H92v2.8h-1.1V311.9z"/>
	<path d="M2.6,323.9h1.1v3.8c0.5,0,0.9-0.1,1.1-0.3s0.5-0.7,0.8-1.5c0.2-0.6,0.4-1,0.6-1.2s0.4-0.4,0.7-0.6s0.6-0.2,0.9-0.2
		c0.4,0,0.7,0,0.7,0v1c0,0-0.1,0-0.2,0c-0.1,0-0.2,0-0.2,0c-0.4,0-0.6,0.1-0.8,0.3c-0.2,0.2-0.4,0.6-0.6,1.1
		c-0.3,0.7-0.5,1.2-0.7,1.4s-0.4,0.3-0.7,0.5c0.6,0.2,1.1,0.7,1.6,1.5l1.8,2.9H7.2l-1.4-2.3c-0.4-0.6-0.7-1.1-1-1.3s-0.6-0.4-1-0.4
		v4H2.6V323.9z"/>
	<path d="M9,329.4c0-1.2,0.3-2,1-2.6c0.5-0.5,1.2-0.7,2-0.7c0.9,0,1.6,0.3,2.1,0.8s0.8,1.3,0.8,2.3c0,0.8-0.1,1.4-0.4,1.9
		s-0.6,0.8-1,1.1s-1,0.4-1.5,0.4c-0.9,0-1.6-0.3-2.1-0.8S9,330.4,9,329.4z M10.1,329.4c0,0.8,0.2,1.4,0.5,1.8s0.8,0.6,1.3,0.6
		c0.5,0,1-0.2,1.3-0.6s0.5-1,0.5-1.8c0-0.8-0.2-1.4-0.5-1.7S12.5,327,12,327c-0.5,0-1,0.2-1.3,0.6S10.1,328.6,10.1,329.4z"/>
	<path d="M16.1,326.3h1.6l1.6,5l1.8-5h1.5v6.2h-1.1v-5l-1.8,5h-0.9l-1.7-5.3v5.3h-1V326.3z"/>
	<path d="M24.4,326.3h4.9v6.2h-1.1v-5.3h-2.8v5.3h-1.1V326.3z"/>
	<path d="M34.9,331.7c-0.4,0.3-0.8,0.6-1.1,0.7s-0.7,0.2-1.2,0.2c-0.7,0-1.2-0.2-1.6-0.5s-0.6-0.8-0.6-1.3c0-0.3,0.1-0.6,0.2-0.8
		s0.3-0.5,0.5-0.6s0.5-0.3,0.8-0.3c0.2-0.1,0.5-0.1,0.9-0.2c0.9-0.1,1.5-0.2,1.9-0.4c0-0.1,0-0.2,0-0.3c0-0.4-0.1-0.7-0.3-0.9
		c-0.3-0.2-0.7-0.4-1.2-0.4c-0.5,0-0.9,0.1-1.1,0.3s-0.4,0.5-0.5,0.9l-1-0.1c0.1-0.4,0.2-0.8,0.5-1.1s0.5-0.5,0.9-0.6
		s0.9-0.2,1.4-0.2c0.5,0,1,0.1,1.3,0.2s0.6,0.3,0.7,0.5s0.3,0.4,0.3,0.7c0,0.2,0.1,0.5,0.1,1v1.4c0,1,0,1.6,0.1,1.9s0.1,0.5,0.3,0.7
		h-1.1C35,332.3,34.9,332,34.9,331.7z M34.8,329.4c-0.4,0.2-1,0.3-1.7,0.4c-0.4,0.1-0.7,0.1-0.9,0.2s-0.3,0.2-0.4,0.3
		s-0.1,0.3-0.1,0.5c0,0.3,0.1,0.5,0.3,0.7s0.5,0.3,0.9,0.3c0.4,0,0.8-0.1,1.1-0.3s0.5-0.4,0.7-0.7c0.1-0.2,0.2-0.6,0.2-1.1V329.4z"
		/>
	<path d="M37.5,326.3h1.1v2.6h2.9v-2.6h1.1v6.2h-1.1v-2.8h-2.9v2.8h-1.1V326.3z"/>
	<path d="M44.2,326.3h1.1v4.7l2.9-4.7h1.1v6.2h-1.1v-4.7l-2.9,4.7h-1.1V326.3z"/>
	<path d="M55.8,326.3v6.2h-1v-2.4h-0.6c-0.4,0-0.6,0-0.8,0.1s-0.4,0.4-0.8,0.9l-0.9,1.4h-1.3l1.1-1.7c0.3-0.5,0.7-0.8,1-0.9
		c-0.6-0.1-1-0.3-1.3-0.7s-0.4-0.8-0.4-1.2c0-0.5,0.2-1,0.6-1.3s0.9-0.5,1.7-0.5H55.8z M54.7,327.1h-1.5c-0.6,0-1,0.1-1.2,0.3
		s-0.3,0.4-0.3,0.7c0,0.4,0.1,0.6,0.4,0.8s0.7,0.3,1.4,0.3h1.2V327.1z"/>
	<path d="M60.3,329.4c0-1.2,0.3-2,1-2.6c0.5-0.5,1.2-0.7,2-0.7c0.9,0,1.6,0.3,2.1,0.8s0.8,1.3,0.8,2.3c0,0.8-0.1,1.4-0.4,1.9
		s-0.6,0.8-1,1.1s-1,0.4-1.5,0.4c-0.9,0-1.6-0.3-2.1-0.8S60.3,330.4,60.3,329.4z M61.4,329.4c0,0.8,0.2,1.4,0.5,1.8s0.8,0.6,1.3,0.6
		c0.5,0,1-0.2,1.3-0.6s0.5-1,0.5-1.8c0-0.8-0.2-1.4-0.5-1.7s-0.8-0.6-1.3-0.6c-0.5,0-1,0.2-1.3,0.6S61.4,328.6,61.4,329.4z"/>
	<path d="M66.5,326.3h5.1v0.9h-2v5.3h-1v-5.3h-2V326.3z"/>
	<path d="M72.2,326.3h1.1v1.2c0,0.5,0,0.9,0.1,1.1s0.2,0.4,0.4,0.6s0.5,0.3,0.9,0.3c0.4,0,0.9-0.1,1.5-0.3v-2.8h1.1v6.2h-1.1V330
		c-0.6,0.2-1.3,0.3-1.8,0.3c-0.5,0-0.9-0.1-1.3-0.4s-0.6-0.5-0.7-0.9s-0.2-0.7-0.2-1.1V326.3z"/>
	<path d="M83.1,330.5l1.1,0.1c-0.2,0.6-0.5,1.1-1,1.5s-1.1,0.5-1.8,0.5c-0.9,0-1.6-0.3-2.2-0.8s-0.8-1.3-0.8-2.4
		c0-1,0.3-1.9,0.8-2.4s1.2-0.9,2.1-0.9c0.8,0,1.5,0.3,2,0.8s0.8,1.4,0.8,2.4c0,0.1,0,0.2,0,0.3h-4.6c0,0.7,0.2,1.2,0.6,1.6
		s0.8,0.5,1.3,0.5c0.4,0,0.7-0.1,1-0.3S82.9,330.9,83.1,330.5z M79.6,328.8h3.5c0-0.5-0.2-0.9-0.4-1.2c-0.3-0.4-0.8-0.6-1.3-0.6
		c-0.5,0-0.9,0.2-1.2,0.5S79.7,328.2,79.6,328.8z"/>
	<path d="M84.6,326.3h5.1v0.9h-2v5.3h-1v-5.3h-2V326.3z"/>
	<path d="M90.6,326.3h1.1v2.6h2.9v-2.6h1.1v6.2h-1.1v-2.8h-2.9v2.8h-1.1V326.3z"/>
	<path d="M96.9,329.4c0-1.2,0.3-2,1-2.6c0.5-0.5,1.2-0.7,2-0.7c0.9,0,1.6,0.3,2.1,0.8s0.8,1.3,0.8,2.3c0,0.8-0.1,1.4-0.4,1.9
		s-0.6,0.8-1,1.1s-1,0.4-1.5,0.4c-0.9,0-1.6-0.3-2.1-0.8S96.9,330.4,96.9,329.4z M97.9,329.4c0,0.8,0.2,1.4,0.5,1.8s0.8,0.6,1.3,0.6
		c0.5,0,1-0.2,1.3-0.6s0.5-1,0.5-1.8c0-0.8-0.2-1.4-0.5-1.7s-0.8-0.6-1.3-0.6c-0.5,0-1,0.2-1.3,0.6S97.9,328.6,97.9,329.4z"/>
	<path d="M108,330.2l1,0.1c-0.1,0.7-0.4,1.3-0.9,1.7s-1,0.6-1.7,0.6c-0.9,0-1.5-0.3-2.1-0.8s-0.8-1.4-0.8-2.4c0-0.7,0.1-1.3,0.3-1.8
		s0.6-0.9,1-1.1s1-0.4,1.5-0.4c0.7,0,1.2,0.2,1.7,0.5s0.7,0.8,0.8,1.5l-1,0.2c-0.1-0.4-0.3-0.7-0.5-0.9s-0.5-0.3-0.9-0.3
		c-0.5,0-1,0.2-1.3,0.6s-0.5,1-0.5,1.8c0,0.8,0.2,1.4,0.5,1.8s0.7,0.6,1.3,0.6c0.4,0,0.8-0.1,1-0.4S107.9,330.7,108,330.2z"/>
	<path d="M109.3,326.3h5.1v0.9h-2v5.3h-1v-5.3h-2V326.3z"/>
	<path d="M115.4,326.3h1.1v4.7l2.9-4.7h1.1v6.2h-1.1v-4.7l-2.9,4.7h-1.1V326.3z"/>
	<path d="M128.9,332.5v-8.6h3.2c0.6,0,1,0,1.3,0.1c0.4,0.1,0.8,0.2,1.1,0.4s0.5,0.5,0.7,0.8s0.3,0.7,0.3,1.2c0,0.7-0.2,1.3-0.7,1.9
		s-1.3,0.8-2.5,0.8h-2.2v3.5H128.9z M130.1,328h2.2c0.7,0,1.3-0.1,1.6-0.4s0.5-0.7,0.5-1.2c0-0.4-0.1-0.7-0.3-0.9s-0.4-0.4-0.7-0.5
		c-0.2-0.1-0.5-0.1-1.1-0.1h-2.2V328z"/>
	<path d="M137.9,332.5l-1.9-6.2h1.1l1,3.6l0.4,1.3c0-0.1,0.1-0.5,0.3-1.3l1-3.6h1.1l0.9,3.6l0.3,1.2l0.4-1.2l1.1-3.6h1l-1.9,6.2
		h-1.1l-1-3.7l-0.2-1.1l-1.3,4.8H137.9z"/>
	<path d="M151.7,329.5l1.1,0.3c-0.2,0.9-0.7,1.6-1.3,2.1s-1.4,0.7-2.3,0.7c-0.9,0-1.7-0.2-2.3-0.6s-1-0.9-1.3-1.6s-0.5-1.5-0.5-2.3
		c0-0.9,0.2-1.7,0.5-2.3s0.8-1.2,1.5-1.5s1.3-0.5,2.1-0.5c0.9,0,1.6,0.2,2.2,0.7s1,1.1,1.2,1.8l-1.1,0.3c-0.2-0.6-0.5-1.1-0.9-1.4
		s-0.9-0.4-1.4-0.4c-0.7,0-1.2,0.2-1.7,0.5s-0.8,0.7-0.9,1.3s-0.3,1.1-0.3,1.6c0,0.7,0.1,1.4,0.3,1.9s0.5,1,1,1.2s0.9,0.4,1.5,0.4
		c0.6,0,1.2-0.2,1.6-0.6S151.6,330.2,151.7,329.5z"/>
</g>
<g>
	<path d="M193.2,108.2h6.8v8.6h-1.1v-7.6h-4.5v7.6h-1.1V108.2z"/>
	<path d="M202.2,110.6h4.9v6.2h-1v-5.3h-2.8v3.1c0,0.7,0,1.2-0.1,1.4s-0.2,0.4-0.4,0.6s-0.5,0.3-0.9,0.3c-0.2,0-0.5,0-0.8,0v-0.9
		h0.5c0.2,0,0.4,0,0.5-0.1s0.2-0.1,0.2-0.2s0-0.4,0-1V110.6z"/>
	<path d="M212.7,116c-0.4,0.3-0.8,0.6-1.1,0.7s-0.7,0.2-1.2,0.2c-0.7,0-1.2-0.2-1.6-0.5s-0.6-0.8-0.6-1.3c0-0.3,0.1-0.6,0.2-0.8
		s0.3-0.5,0.5-0.6s0.5-0.3,0.8-0.3c0.2-0.1,0.5-0.1,0.9-0.2c0.9-0.1,1.5-0.2,1.9-0.4c0-0.1,0-0.2,0-0.3c0-0.4-0.1-0.7-0.3-0.9
		c-0.3-0.2-0.7-0.4-1.2-0.4c-0.5,0-0.9,0.1-1.1,0.3s-0.4,0.5-0.5,0.9l-1-0.1c0.1-0.4,0.2-0.8,0.5-1.1s0.5-0.5,0.9-0.6
		s0.9-0.2,1.4-0.2c0.5,0,1,0.1,1.3,0.2s0.6,0.3,0.7,0.5s0.3,0.4,0.3,0.7c0,0.2,0.1,0.5,0.1,1v1.4c0,1,0,1.6,0.1,1.9s0.1,0.5,0.3,0.7
		h-1.1C212.8,116.6,212.7,116.3,212.7,116z M212.6,113.7c-0.4,0.2-1,0.3-1.7,0.4c-0.4,0.1-0.7,0.1-0.9,0.2s-0.3,0.2-0.4,0.3
		s-0.1,0.3-0.1,0.5c0,0.3,0.1,0.5,0.3,0.7s0.5,0.3,0.9,0.3c0.4,0,0.8-0.1,1.1-0.3s0.5-0.4,0.7-0.7c0.1-0.2,0.2-0.6,0.2-1.1V113.7z"
		/>
	<path d="M214.5,110.6h5.1v0.9h-2v5.3h-1v-5.3h-2V110.6z"/>
	<path d="M224.2,108.2h1.1v3c0.2-0.3,0.5-0.4,0.7-0.6s0.5-0.2,0.8-0.2c0.7,0,1.3,0.3,1.8,0.9s0.6,1.4,0.6,2.3c0,1-0.2,1.8-0.7,2.4
		s-1,0.9-1.7,0.9c-0.2,0-0.5,0-0.7-0.1s-0.5-0.3-0.8-0.6v2.9h-1.1v-2.9c-0.2,0.2-0.4,0.4-0.7,0.5s-0.5,0.2-0.8,0.2
		c-0.7,0-1.2-0.3-1.7-0.9s-0.7-1.4-0.7-2.5c0-0.9,0.2-1.7,0.7-2.3s1-0.9,1.8-0.9c0.3,0,0.6,0.1,0.8,0.2s0.5,0.3,0.7,0.6V108.2z
		 M221.3,113.6c0,0.9,0.1,1.5,0.4,1.9s0.7,0.6,1.1,0.6c0.5,0,0.8-0.2,1-0.6s0.3-1,0.3-1.7c0-0.8-0.1-1.4-0.4-1.8s-0.6-0.6-1.1-0.6
		c-0.4,0-0.8,0.2-1.1,0.6S221.3,112.9,221.3,113.6z M225.2,113.7c0,0.9,0.1,1.6,0.4,1.9s0.6,0.5,1,0.5c0.4,0,0.8-0.2,1.1-0.6
		s0.5-1,0.5-1.8c0-0.8-0.1-1.4-0.4-1.8s-0.6-0.6-1.1-0.6c-0.5,0-0.8,0.2-1.1,0.6S225.2,112.9,225.2,113.7z"/>
	<path d="M230,113.7c0-1.2,0.3-2,1-2.6c0.5-0.5,1.2-0.7,2-0.7c0.9,0,1.6,0.3,2.1,0.8s0.8,1.3,0.8,2.3c0,0.8-0.1,1.4-0.4,1.9
		s-0.6,0.8-1,1.1s-1,0.4-1.5,0.4c-0.9,0-1.6-0.3-2.1-0.8S230,114.7,230,113.7z M231.1,113.7c0,0.8,0.2,1.4,0.5,1.8s0.8,0.6,1.3,0.6
		c0.5,0,1-0.2,1.3-0.6s0.5-1,0.5-1.8c0-0.8-0.2-1.4-0.5-1.7s-0.8-0.6-1.3-0.6c-0.5,0-1,0.2-1.3,0.6S231.1,112.9,231.1,113.7z"/>
	<path d="M237.1,119.2v-8.6h1v0.8c0.2-0.3,0.5-0.6,0.8-0.7s0.6-0.2,1-0.2c0.5,0,1,0.1,1.4,0.4s0.7,0.7,0.9,1.2s0.3,1,0.3,1.6
		c0,0.6-0.1,1.2-0.3,1.7s-0.6,0.9-1,1.2s-0.9,0.4-1.4,0.4c-0.4,0-0.7-0.1-0.9-0.2s-0.5-0.3-0.7-0.6v3H237.1z M238,113.7
		c0,0.8,0.2,1.4,0.5,1.8s0.7,0.6,1.2,0.6c0.5,0,0.9-0.2,1.2-0.6s0.5-1,0.5-1.8c0-0.8-0.2-1.4-0.5-1.8s-0.7-0.6-1.2-0.6
		c-0.4,0-0.8,0.2-1.2,0.6S238,112.9,238,113.7z"/>
	<path d="M243.8,110.6h1.6l1.6,5l1.8-5h1.5v6.2h-1.1v-5l-1.8,5h-0.9l-1.7-5.3v5.3h-1V110.6z"/>
	<path d="M256.1,116c-0.4,0.3-0.8,0.6-1.1,0.7s-0.7,0.2-1.2,0.2c-0.7,0-1.2-0.2-1.6-0.5s-0.6-0.8-0.6-1.3c0-0.3,0.1-0.6,0.2-0.8
		s0.3-0.5,0.5-0.6s0.5-0.3,0.8-0.3c0.2-0.1,0.5-0.1,0.9-0.2c0.9-0.1,1.5-0.2,1.9-0.4c0-0.1,0-0.2,0-0.3c0-0.4-0.1-0.7-0.3-0.9
		c-0.3-0.2-0.7-0.4-1.2-0.4c-0.5,0-0.9,0.1-1.1,0.3s-0.4,0.5-0.5,0.9l-1-0.1c0.1-0.4,0.2-0.8,0.5-1.1s0.5-0.5,0.9-0.6
		s0.9-0.2,1.4-0.2c0.5,0,1,0.1,1.3,0.2s0.6,0.3,0.7,0.5s0.3,0.4,0.3,0.7c0,0.2,0.1,0.5,0.1,1v1.4c0,1,0,1.6,0.1,1.9s0.1,0.5,0.3,0.7
		h-1.1C256.2,116.6,256.1,116.3,256.1,116z M256,113.7c-0.4,0.2-1,0.3-1.7,0.4c-0.4,0.1-0.7,0.1-0.9,0.2s-0.3,0.2-0.4,0.3
		s-0.1,0.3-0.1,0.5c0,0.3,0.1,0.5,0.3,0.7s0.5,0.3,0.9,0.3c0.4,0,0.8-0.1,1.1-0.3s0.5-0.4,0.7-0.7c0.1-0.2,0.2-0.6,0.2-1.1V113.7z"
		/>
	<path d="M262,119.2l-0.1-1c0.2,0.1,0.4,0.1,0.6,0.1c0.2,0,0.4,0,0.6-0.1s0.3-0.2,0.3-0.3c0.1-0.1,0.2-0.4,0.3-0.8
		c0-0.1,0.1-0.1,0.1-0.3l-2.4-6.2h1.1l1.3,3.6c0.2,0.5,0.3,0.9,0.5,1.4c0.1-0.5,0.3-1,0.4-1.4l1.3-3.6h1.1l-2.4,6.3
		c-0.3,0.7-0.5,1.2-0.6,1.4c-0.2,0.3-0.4,0.6-0.6,0.8s-0.5,0.2-0.9,0.2C262.5,119.3,262.2,119.3,262,119.2z"/>
	<path d="M268,110.6h4.9v6.2h-1.1v-5.3h-2.8v5.3H268V110.6z"/>
	<path d="M274.5,119.2v-8.6h1v0.8c0.2-0.3,0.5-0.6,0.8-0.7s0.6-0.2,1-0.2c0.5,0,1,0.1,1.4,0.4s0.7,0.7,0.9,1.2s0.3,1,0.3,1.6
		c0,0.6-0.1,1.2-0.3,1.7s-0.6,0.9-1,1.2s-0.9,0.4-1.4,0.4c-0.4,0-0.7-0.1-0.9-0.2s-0.5-0.3-0.7-0.6v3H274.5z M275.5,113.7
		c0,0.8,0.2,1.4,0.5,1.8s0.7,0.6,1.2,0.6c0.5,0,0.9-0.2,1.2-0.6s0.5-1,0.5-1.8c0-0.8-0.2-1.4-0.5-1.8s-0.7-0.6-1.2-0.6
		c-0.4,0-0.8,0.2-1.2,0.6S275.5,112.9,275.5,113.7z"/>
	<path d="M285.3,116c-0.4,0.3-0.8,0.6-1.1,0.7s-0.7,0.2-1.2,0.2c-0.7,0-1.2-0.2-1.6-0.5s-0.6-0.8-0.6-1.3c0-0.3,0.1-0.6,0.2-0.8
		s0.3-0.5,0.5-0.6s0.5-0.3,0.8-0.3c0.2-0.1,0.5-0.1,0.9-0.2c0.9-0.1,1.5-0.2,1.9-0.4c0-0.1,0-0.2,0-0.3c0-0.4-0.1-0.7-0.3-0.9
		c-0.3-0.2-0.7-0.4-1.2-0.4c-0.5,0-0.9,0.1-1.1,0.3s-0.4,0.5-0.5,0.9l-1-0.1c0.1-0.4,0.2-0.8,0.5-1.1s0.5-0.5,0.9-0.6
		s0.9-0.2,1.4-0.2c0.5,0,1,0.1,1.3,0.2s0.6,0.3,0.7,0.5s0.3,0.4,0.3,0.7c0,0.2,0.1,0.5,0.1,1v1.4c0,1,0,1.6,0.1,1.9s0.1,0.5,0.3,0.7
		h-1.1C285.4,116.6,285.3,116.3,285.3,116z M285.2,113.7c-0.4,0.2-1,0.3-1.7,0.4c-0.4,0.1-0.7,0.1-0.9,0.2s-0.3,0.2-0.4,0.3
		s-0.1,0.3-0.1,0.5c0,0.3,0.1,0.5,0.3,0.7s0.5,0.3,0.9,0.3c0.4,0,0.8-0.1,1.1-0.3s0.5-0.4,0.7-0.7c0.1-0.2,0.2-0.6,0.2-1.1V113.7z"
		/>
	<path d="M287.9,110.6h2.4c0.6,0,1,0,1.3,0.1s0.5,0.3,0.8,0.5s0.3,0.6,0.3,1c0,0.3-0.1,0.6-0.2,0.8s-0.3,0.4-0.6,0.6
		c0.3,0.1,0.5,0.3,0.7,0.5s0.3,0.6,0.3,1c0,0.6-0.3,1-0.6,1.3s-0.9,0.4-1.7,0.4h-2.8V110.6z M288.9,113.2h1.1c0.4,0,0.8,0,0.9-0.1
		s0.3-0.1,0.5-0.3s0.2-0.3,0.2-0.5c0-0.3-0.1-0.6-0.3-0.7s-0.6-0.2-1.2-0.2h-1.2V113.2z M288.9,115.9h1.4c0.6,0,1-0.1,1.2-0.2
		s0.3-0.4,0.4-0.7c0-0.2-0.1-0.4-0.2-0.6s-0.3-0.3-0.5-0.3s-0.5-0.1-1-0.1h-1.3V115.9z"/>
	<path d="M294.5,110.6h4.9v6.2h-1v-5.3h-2.8v3.1c0,0.7,0,1.2-0.1,1.4s-0.2,0.4-0.4,0.6s-0.5,0.3-0.9,0.3c-0.2,0-0.5,0-0.8,0v-0.9
		h0.5c0.2,0,0.4,0,0.5-0.1s0.2-0.1,0.2-0.2s0-0.4,0-1V110.6z"/>
	<path d="M305.2,114.8l1.1,0.1c-0.2,0.6-0.5,1.1-1,1.5s-1.1,0.5-1.8,0.5c-0.9,0-1.6-0.3-2.2-0.8s-0.8-1.3-0.8-2.4
		c0-1,0.3-1.9,0.8-2.4s1.2-0.9,2.1-0.9c0.8,0,1.5,0.3,2,0.8s0.8,1.4,0.8,2.4c0,0.1,0,0.2,0,0.3h-4.6c0,0.7,0.2,1.2,0.6,1.6
		s0.8,0.5,1.3,0.5c0.4,0,0.7-0.1,1-0.3S305.1,115.2,305.2,114.8z M301.8,113.1h3.5c0-0.5-0.2-0.9-0.4-1.2c-0.3-0.4-0.8-0.6-1.3-0.6
		c-0.5,0-0.9,0.2-1.2,0.5S301.8,112.5,301.8,113.1z"/>
	<path d="M307.7,110.6h1.1v2.6h2.9v-2.6h1.1v6.2h-1.1V114h-2.9v2.8h-1.1V110.6z"/>
	<path d="M314.3,110.6h1.1v4.7l2.9-4.7h1.1v6.2h-1.1v-4.7l-2.9,4.7h-1.1V110.6z"/>
	<path d="M325.9,110.6v6.2h-1v-2.4h-0.6c-0.4,0-0.6,0-0.8,0.1s-0.4,0.4-0.8,0.9l-0.9,1.4h-1.3l1.1-1.7c0.3-0.5,0.7-0.8,1-0.9
		c-0.6-0.1-1-0.3-1.3-0.7s-0.4-0.8-0.4-1.2c0-0.5,0.2-1,0.6-1.3s0.9-0.5,1.7-0.5H325.9z M324.8,111.5h-1.5c-0.6,0-1,0.1-1.2,0.3
		s-0.3,0.4-0.3,0.7c0,0.4,0.1,0.6,0.4,0.8s0.7,0.3,1.4,0.3h1.2V111.5z"/>
	<path d="M330.8,110.6h1.1v2.7c0.3,0,0.6-0.1,0.7-0.2s0.3-0.5,0.6-1.1c0.2-0.5,0.4-0.8,0.5-1s0.3-0.3,0.4-0.3s0.4-0.1,0.8-0.1h0.2
		v0.9l-0.3,0c-0.3,0-0.5,0-0.5,0.1c-0.1,0.1-0.2,0.3-0.4,0.8c-0.2,0.4-0.3,0.7-0.4,0.8s-0.3,0.3-0.6,0.4c0.5,0.1,0.9,0.5,1.3,1.3
		l1.2,1.9h-1.2l-1.1-1.9c-0.2-0.4-0.4-0.6-0.6-0.8s-0.4-0.2-0.6-0.2v2.9h-1.1V110.6z"/>
	<path d="M340.4,116c-0.4,0.3-0.8,0.6-1.1,0.7s-0.7,0.2-1.2,0.2c-0.7,0-1.2-0.2-1.6-0.5s-0.6-0.8-0.6-1.3c0-0.3,0.1-0.6,0.2-0.8
		s0.3-0.5,0.5-0.6s0.5-0.3,0.8-0.3c0.2-0.1,0.5-0.1,0.9-0.2c0.9-0.1,1.5-0.2,1.9-0.4c0-0.1,0-0.2,0-0.3c0-0.4-0.1-0.7-0.3-0.9
		c-0.3-0.2-0.7-0.4-1.2-0.4c-0.5,0-0.9,0.1-1.1,0.3s-0.4,0.5-0.5,0.9l-1-0.1c0.1-0.4,0.2-0.8,0.5-1.1s0.5-0.5,0.9-0.6
		s0.9-0.2,1.4-0.2c0.5,0,1,0.1,1.3,0.2s0.6,0.3,0.7,0.5s0.3,0.4,0.3,0.7c0,0.2,0.1,0.5,0.1,1v1.4c0,1,0,1.6,0.1,1.9s0.1,0.5,0.3,0.7
		h-1.1C340.5,116.6,340.4,116.3,340.4,116z M340.3,113.7c-0.4,0.2-1,0.3-1.7,0.4c-0.4,0.1-0.7,0.1-0.9,0.2s-0.3,0.2-0.4,0.3
		s-0.1,0.3-0.1,0.5c0,0.3,0.1,0.5,0.3,0.7s0.5,0.3,0.9,0.3c0.4,0,0.8-0.1,1.1-0.3s0.5-0.4,0.7-0.7c0.1-0.2,0.2-0.6,0.2-1.1V113.7z"
		/>
	<path d="M343,110.6h4.9v6.2h-1.1v-5.3h-2.8v5.3H343V110.6z"/>
	<path d="M349.5,110.6h1.1v4.7l2.9-4.7h1.1v6.2h-1.1v-4.7l-2.9,4.7h-1.1V110.6z"/>
	<path d="M355.6,110.6h5.1v0.9h-2v5.3h-1v-5.3h-2V110.6z"/>
	<path d="M365.6,116c-0.4,0.3-0.8,0.6-1.1,0.7s-0.7,0.2-1.2,0.2c-0.7,0-1.2-0.2-1.6-0.5s-0.6-0.8-0.6-1.3c0-0.3,0.1-0.6,0.2-0.8
		s0.3-0.5,0.5-0.6s0.5-0.3,0.8-0.3c0.2-0.1,0.5-0.1,0.9-0.2c0.9-0.1,1.5-0.2,1.9-0.4c0-0.1,0-0.2,0-0.3c0-0.4-0.1-0.7-0.3-0.9
		c-0.3-0.2-0.7-0.4-1.2-0.4c-0.5,0-0.9,0.1-1.1,0.3s-0.4,0.5-0.5,0.9l-1-0.1c0.1-0.4,0.2-0.8,0.5-1.1s0.5-0.5,0.9-0.6
		s0.9-0.2,1.4-0.2c0.5,0,1,0.1,1.3,0.2s0.6,0.3,0.7,0.5s0.3,0.4,0.3,0.7c0,0.2,0.1,0.5,0.1,1v1.4c0,1,0,1.6,0.1,1.9s0.1,0.5,0.3,0.7
		h-1.1C365.7,116.6,365.6,116.3,365.6,116z M365.5,113.7c-0.4,0.2-1,0.3-1.7,0.4c-0.4,0.1-0.7,0.1-0.9,0.2s-0.3,0.2-0.4,0.3
		s-0.1,0.3-0.1,0.5c0,0.3,0.1,0.5,0.3,0.7s0.5,0.3,0.9,0.3c0.4,0,0.8-0.1,1.1-0.3s0.5-0.4,0.7-0.7c0.1-0.2,0.2-0.6,0.2-1.1V113.7z"
		/>
	<path d="M368.7,110.6h4.9v6.2h-1v-5.3h-2.8v3.1c0,0.7,0,1.2-0.1,1.4s-0.2,0.4-0.4,0.6s-0.5,0.3-0.9,0.3c-0.2,0-0.5,0-0.8,0v-0.9
		h0.5c0.2,0,0.4,0,0.5-0.1s0.2-0.1,0.2-0.2s0-0.4,0-1V110.6z"/>
	<path d="M379.3,116c-0.4,0.3-0.8,0.6-1.1,0.7s-0.7,0.2-1.2,0.2c-0.7,0-1.2-0.2-1.6-0.5s-0.6-0.8-0.6-1.3c0-0.3,0.1-0.6,0.2-0.8
		s0.3-0.5,0.5-0.6s0.5-0.3,0.8-0.3c0.2-0.1,0.5-0.1,0.9-0.2c0.9-0.1,1.5-0.2,1.9-0.4c0-0.1,0-0.2,0-0.3c0-0.4-0.1-0.7-0.3-0.9
		c-0.3-0.2-0.7-0.4-1.2-0.4c-0.5,0-0.9,0.1-1.1,0.3s-0.4,0.5-0.5,0.9l-1-0.1c0.1-0.4,0.2-0.8,0.5-1.1s0.5-0.5,0.9-0.6
		s0.9-0.2,1.4-0.2c0.5,0,1,0.1,1.3,0.2s0.6,0.3,0.7,0.5s0.3,0.4,0.3,0.7c0,0.2,0.1,0.5,0.1,1v1.4c0,1,0,1.6,0.1,1.9s0.1,0.5,0.3,0.7
		h-1.1C379.4,116.6,379.3,116.3,379.3,116z M379.2,113.7c-0.4,0.2-1,0.3-1.7,0.4c-0.4,0.1-0.7,0.1-0.9,0.2s-0.3,0.2-0.4,0.3
		s-0.1,0.3-0.1,0.5c0,0.3,0.1,0.5,0.3,0.7s0.5,0.3,0.9,0.3c0.4,0,0.8-0.1,1.1-0.3s0.5-0.4,0.7-0.7c0.1-0.2,0.2-0.6,0.2-1.1V113.7z"
		/>
	<path d="M381.9,110.6h1.6l1.6,5l1.8-5h1.5v6.2h-1.1v-5l-1.8,5h-0.9l-1.7-5.3v5.3h-1V110.6z"/>
	<path d="M390.2,110.6h1.1v4.7l2.9-4.7h1.1v6.2h-1.1v-4.7l-2.9,4.7h-1.1V110.6z"/>
</g>
<g>
	<path d="M193.2,295.5h6.8v8.6h-1.1v-7.6h-4.5v7.6h-1.1V295.5z"/>
	<path d="M202.2,297.9h4.9v6.2h-1v-5.3h-2.8v3.1c0,0.7,0,1.2-0.1,1.4s-0.2,0.4-0.4,0.6s-0.5,0.3-0.9,0.3c-0.2,0-0.5,0-0.8,0v-0.9
		h0.5c0.2,0,0.4,0,0.5-0.1s0.2-0.1,0.2-0.2s0-0.4,0-1V297.9z"/>
	<path d="M212.7,303.3c-0.4,0.3-0.8,0.6-1.1,0.7s-0.7,0.2-1.2,0.2c-0.7,0-1.2-0.2-1.6-0.5s-0.6-0.8-0.6-1.3c0-0.3,0.1-0.6,0.2-0.8
		s0.3-0.5,0.5-0.6s0.5-0.3,0.8-0.3c0.2-0.1,0.5-0.1,0.9-0.2c0.9-0.1,1.5-0.2,1.9-0.4c0-0.1,0-0.2,0-0.3c0-0.4-0.1-0.7-0.3-0.9
		c-0.3-0.2-0.7-0.4-1.2-0.4c-0.5,0-0.9,0.1-1.1,0.3s-0.4,0.5-0.5,0.9l-1-0.1c0.1-0.4,0.2-0.8,0.5-1.1s0.5-0.5,0.9-0.6
		s0.9-0.2,1.4-0.2c0.5,0,1,0.1,1.3,0.2s0.6,0.3,0.7,0.5s0.3,0.4,0.3,0.7c0,0.2,0.1,0.5,0.1,1v1.4c0,1,0,1.6,0.1,1.9s0.1,0.5,0.3,0.7
		h-1.1C212.8,303.9,212.7,303.6,212.7,303.3z M212.6,301c-0.4,0.2-1,0.3-1.7,0.4c-0.4,0.1-0.7,0.1-0.9,0.2s-0.3,0.2-0.4,0.3
		s-0.1,0.3-0.1,0.5c0,0.3,0.1,0.5,0.3,0.7s0.5,0.3,0.9,0.3c0.4,0,0.8-0.1,1.1-0.3s0.5-0.4,0.7-0.7c0.1-0.2,0.2-0.6,0.2-1.1V301z"/>
	<path d="M214.5,297.9h5.1v0.9h-2v5.3h-1v-5.3h-2V297.9z"/>
	<path d="M224.2,295.5h1.1v3c0.2-0.3,0.5-0.4,0.7-0.6s0.5-0.2,0.8-0.2c0.7,0,1.3,0.3,1.8,0.9s0.6,1.4,0.6,2.3c0,1-0.2,1.8-0.7,2.4
		s-1,0.9-1.7,0.9c-0.2,0-0.5,0-0.7-0.1s-0.5-0.3-0.8-0.6v2.9h-1.1v-2.9c-0.2,0.2-0.4,0.4-0.7,0.5s-0.5,0.2-0.8,0.2
		c-0.7,0-1.2-0.3-1.7-0.9s-0.7-1.4-0.7-2.5c0-0.9,0.2-1.7,0.7-2.3s1-0.9,1.8-0.9c0.3,0,0.6,0.1,0.8,0.2s0.5,0.3,0.7,0.6V295.5z
		 M221.3,300.9c0,0.9,0.1,1.5,0.4,1.9s0.7,0.6,1.1,0.6c0.5,0,0.8-0.2,1-0.6s0.3-1,0.3-1.7c0-0.8-0.1-1.4-0.4-1.8s-0.6-0.6-1.1-0.6
		c-0.4,0-0.8,0.2-1.1,0.6S221.3,300.2,221.3,300.9z M225.2,301c0,0.9,0.1,1.6,0.4,1.9s0.6,0.5,1,0.5c0.4,0,0.8-0.2,1.1-0.6
		s0.5-1,0.5-1.8c0-0.8-0.1-1.4-0.4-1.8s-0.6-0.6-1.1-0.6c-0.5,0-0.8,0.2-1.1,0.6S225.2,300.2,225.2,301z"/>
	<path d="M230,301c0-1.2,0.3-2,1-2.6c0.5-0.5,1.2-0.7,2-0.7c0.9,0,1.6,0.3,2.1,0.8s0.8,1.3,0.8,2.3c0,0.8-0.1,1.4-0.4,1.9
		s-0.6,0.8-1,1.1s-1,0.4-1.5,0.4c-0.9,0-1.6-0.3-2.1-0.8S230,302,230,301z M231.1,301c0,0.8,0.2,1.4,0.5,1.8s0.8,0.6,1.3,0.6
		c0.5,0,1-0.2,1.3-0.6s0.5-1,0.5-1.8c0-0.8-0.2-1.4-0.5-1.7s-0.8-0.6-1.3-0.6c-0.5,0-1,0.2-1.3,0.6S231.1,300.2,231.1,301z"/>
	<path d="M237.1,306.5v-8.6h1v0.8c0.2-0.3,0.5-0.6,0.8-0.7s0.6-0.2,1-0.2c0.5,0,1,0.1,1.4,0.4s0.7,0.7,0.9,1.2s0.3,1,0.3,1.6
		c0,0.6-0.1,1.2-0.3,1.7s-0.6,0.9-1,1.2s-0.9,0.4-1.4,0.4c-0.4,0-0.7-0.1-0.9-0.2s-0.5-0.3-0.7-0.6v3H237.1z M238,301
		c0,0.8,0.2,1.4,0.5,1.8s0.7,0.6,1.2,0.6c0.5,0,0.9-0.2,1.2-0.6s0.5-1,0.5-1.8c0-0.8-0.2-1.4-0.5-1.8s-0.7-0.6-1.2-0.6
		c-0.4,0-0.8,0.2-1.2,0.6S238,300.2,238,301z"/>
	<path d="M243.8,297.9h1.6l1.6,5l1.8-5h1.5v6.2h-1.1v-5l-1.8,5h-0.9l-1.7-5.3v5.3h-1V297.9z"/>
	<path d="M256.1,303.3c-0.4,0.3-0.8,0.6-1.1,0.7s-0.7,0.2-1.2,0.2c-0.7,0-1.2-0.2-1.6-0.5s-0.6-0.8-0.6-1.3c0-0.3,0.1-0.6,0.2-0.8
		s0.3-0.5,0.5-0.6s0.5-0.3,0.8-0.3c0.2-0.1,0.5-0.1,0.9-0.2c0.9-0.1,1.5-0.2,1.9-0.4c0-0.1,0-0.2,0-0.3c0-0.4-0.1-0.7-0.3-0.9
		c-0.3-0.2-0.7-0.4-1.2-0.4c-0.5,0-0.9,0.1-1.1,0.3s-0.4,0.5-0.5,0.9l-1-0.1c0.1-0.4,0.2-0.8,0.5-1.1s0.5-0.5,0.9-0.6
		s0.9-0.2,1.4-0.2c0.5,0,1,0.1,1.3,0.2s0.6,0.3,0.7,0.5s0.3,0.4,0.3,0.7c0,0.2,0.1,0.5,0.1,1v1.4c0,1,0,1.6,0.1,1.9s0.1,0.5,0.3,0.7
		h-1.1C256.2,303.9,256.1,303.6,256.1,303.3z M256,301c-0.4,0.2-1,0.3-1.7,0.4c-0.4,0.1-0.7,0.1-0.9,0.2s-0.3,0.2-0.4,0.3
		s-0.1,0.3-0.1,0.5c0,0.3,0.1,0.5,0.3,0.7s0.5,0.3,0.9,0.3c0.4,0,0.8-0.1,1.1-0.3s0.5-0.4,0.7-0.7c0.1-0.2,0.2-0.6,0.2-1.1V301z"/>
	<path d="M262,306.5l-0.1-1c0.2,0.1,0.4,0.1,0.6,0.1c0.2,0,0.4,0,0.6-0.1s0.3-0.2,0.3-0.3c0.1-0.1,0.2-0.4,0.3-0.8
		c0-0.1,0.1-0.1,0.1-0.3l-2.4-6.2h1.1l1.3,3.6c0.2,0.5,0.3,0.9,0.5,1.4c0.1-0.5,0.3-1,0.4-1.4l1.3-3.6h1.1l-2.4,6.3
		c-0.3,0.7-0.5,1.2-0.6,1.4c-0.2,0.3-0.4,0.6-0.6,0.8s-0.5,0.2-0.9,0.2C262.5,306.6,262.2,306.6,262,306.5z"/>
	<path d="M268,297.9h4.9v6.2h-1.1v-5.3h-2.8v5.3H268V297.9z"/>
	<path d="M274.5,306.5v-8.6h1v0.8c0.2-0.3,0.5-0.6,0.8-0.7s0.6-0.2,1-0.2c0.5,0,1,0.1,1.4,0.4s0.7,0.7,0.9,1.2s0.3,1,0.3,1.6
		c0,0.6-0.1,1.2-0.3,1.7s-0.6,0.9-1,1.2s-0.9,0.4-1.4,0.4c-0.4,0-0.7-0.1-0.9-0.2s-0.5-0.3-0.7-0.6v3H274.5z M275.5,301
		c0,0.8,0.2,1.4,0.5,1.8s0.7,0.6,1.2,0.6c0.5,0,0.9-0.2,1.2-0.6s0.5-1,0.5-1.8c0-0.8-0.2-1.4-0.5-1.8s-0.7-0.6-1.2-0.6
		c-0.4,0-0.8,0.2-1.2,0.6S275.5,300.2,275.5,301z"/>
	<path d="M285.3,303.3c-0.4,0.3-0.8,0.6-1.1,0.7s-0.7,0.2-1.2,0.2c-0.7,0-1.2-0.2-1.6-0.5s-0.6-0.8-0.6-1.3c0-0.3,0.1-0.6,0.2-0.8
		s0.3-0.5,0.5-0.6s0.5-0.3,0.8-0.3c0.2-0.1,0.5-0.1,0.9-0.2c0.9-0.1,1.5-0.2,1.9-0.4c0-0.1,0-0.2,0-0.3c0-0.4-0.1-0.7-0.3-0.9
		c-0.3-0.2-0.7-0.4-1.2-0.4c-0.5,0-0.9,0.1-1.1,0.3s-0.4,0.5-0.5,0.9l-1-0.1c0.1-0.4,0.2-0.8,0.5-1.1s0.5-0.5,0.9-0.6
		s0.9-0.2,1.4-0.2c0.5,0,1,0.1,1.3,0.2s0.6,0.3,0.7,0.5s0.3,0.4,0.3,0.7c0,0.2,0.1,0.5,0.1,1v1.4c0,1,0,1.6,0.1,1.9s0.1,0.5,0.3,0.7
		h-1.1C285.4,303.9,285.3,303.6,285.3,303.3z M285.2,301c-0.4,0.2-1,0.3-1.7,0.4c-0.4,0.1-0.7,0.1-0.9,0.2s-0.3,0.2-0.4,0.3
		s-0.1,0.3-0.1,0.5c0,0.3,0.1,0.5,0.3,0.7s0.5,0.3,0.9,0.3c0.4,0,0.8-0.1,1.1-0.3s0.5-0.4,0.7-0.7c0.1-0.2,0.2-0.6,0.2-1.1V301z"/>
	<path d="M287.9,297.9h2.4c0.6,0,1,0,1.3,0.1s0.5,0.3,0.8,0.5s0.3,0.6,0.3,1c0,0.3-0.1,0.6-0.2,0.8s-0.3,0.4-0.6,0.6
		c0.3,0.1,0.5,0.3,0.7,0.5s0.3,0.6,0.3,1c0,0.6-0.3,1-0.6,1.3s-0.9,0.4-1.7,0.4h-2.8V297.9z M288.9,300.5h1.1c0.4,0,0.8,0,0.9-0.1
		s0.3-0.1,0.5-0.3s0.2-0.3,0.2-0.5c0-0.3-0.1-0.6-0.3-0.7s-0.6-0.2-1.2-0.2h-1.2V300.5z M288.9,303.2h1.4c0.6,0,1-0.1,1.2-0.2
		s0.3-0.4,0.4-0.7c0-0.2-0.1-0.4-0.2-0.6s-0.3-0.3-0.5-0.3s-0.5-0.1-1-0.1h-1.3V303.2z"/>
	<path d="M294.5,297.9h4.9v6.2h-1v-5.3h-2.8v3.1c0,0.7,0,1.2-0.1,1.4s-0.2,0.4-0.4,0.6s-0.5,0.3-0.9,0.3c-0.2,0-0.5,0-0.8,0v-0.9
		h0.5c0.2,0,0.4,0,0.5-0.1s0.2-0.1,0.2-0.2s0-0.4,0-1V297.9z"/>
	<path d="M305.2,302.1l1.1,0.1c-0.2,0.6-0.5,1.1-1,1.5s-1.1,0.5-1.8,0.5c-0.9,0-1.6-0.3-2.2-0.8s-0.8-1.3-0.8-2.4
		c0-1,0.3-1.9,0.8-2.4s1.2-0.9,2.1-0.9c0.8,0,1.5,0.3,2,0.8s0.8,1.4,0.8,2.4c0,0.1,0,0.2,0,0.3h-4.6c0,0.7,0.2,1.2,0.6,1.6
		s0.8,0.5,1.3,0.5c0.4,0,0.7-0.1,1-0.3S305.1,302.5,305.2,302.1z M301.8,300.4h3.5c0-0.5-0.2-0.9-0.4-1.2c-0.3-0.4-0.8-0.6-1.3-0.6
		c-0.5,0-0.9,0.2-1.2,0.5S301.8,299.8,301.8,300.4z"/>
	<path d="M307.7,297.9h1.1v2.6h2.9v-2.6h1.1v6.2h-1.1v-2.8h-2.9v2.8h-1.1V297.9z"/>
	<path d="M314.3,297.9h1.1v4.7l2.9-4.7h1.1v6.2h-1.1v-4.7l-2.9,4.7h-1.1V297.9z"/>
	<path d="M325.9,297.9v6.2h-1v-2.4h-0.6c-0.4,0-0.6,0-0.8,0.1s-0.4,0.4-0.8,0.9l-0.9,1.4h-1.3l1.1-1.7c0.3-0.5,0.7-0.8,1-0.9
		c-0.6-0.1-1-0.3-1.3-0.7s-0.4-0.8-0.4-1.2c0-0.5,0.2-1,0.6-1.3s0.9-0.5,1.7-0.5H325.9z M324.8,298.8h-1.5c-0.6,0-1,0.1-1.2,0.3
		s-0.3,0.4-0.3,0.7c0,0.4,0.1,0.6,0.4,0.8s0.7,0.3,1.4,0.3h1.2V298.8z"/>
	<path d="M330.8,297.9h1.1v2.7c0.3,0,0.6-0.1,0.7-0.2s0.3-0.5,0.6-1.1c0.2-0.5,0.4-0.8,0.5-1s0.3-0.3,0.4-0.3s0.4-0.1,0.8-0.1h0.2
		v0.9l-0.3,0c-0.3,0-0.5,0-0.5,0.1c-0.1,0.1-0.2,0.3-0.4,0.8c-0.2,0.4-0.3,0.7-0.4,0.8s-0.3,0.3-0.6,0.4c0.5,0.1,0.9,0.5,1.3,1.3
		l1.2,1.9h-1.2l-1.1-1.9c-0.2-0.4-0.4-0.6-0.6-0.8s-0.4-0.2-0.6-0.2v2.9h-1.1V297.9z"/>
	<path d="M340.4,303.3c-0.4,0.3-0.8,0.6-1.1,0.7s-0.7,0.2-1.2,0.2c-0.7,0-1.2-0.2-1.6-0.5s-0.6-0.8-0.6-1.3c0-0.3,0.1-0.6,0.2-0.8
		s0.3-0.5,0.5-0.6s0.5-0.3,0.8-0.3c0.2-0.1,0.5-0.1,0.9-0.2c0.9-0.1,1.5-0.2,1.9-0.4c0-0.1,0-0.2,0-0.3c0-0.4-0.1-0.7-0.3-0.9
		c-0.3-0.2-0.7-0.4-1.2-0.4c-0.5,0-0.9,0.1-1.1,0.3s-0.4,0.5-0.5,0.9l-1-0.1c0.1-0.4,0.2-0.8,0.5-1.1s0.5-0.5,0.9-0.6
		s0.9-0.2,1.4-0.2c0.5,0,1,0.1,1.3,0.2s0.6,0.3,0.7,0.5s0.3,0.4,0.3,0.7c0,0.2,0.1,0.5,0.1,1v1.4c0,1,0,1.6,0.1,1.9s0.1,0.5,0.3,0.7
		h-1.1C340.5,303.9,340.4,303.6,340.4,303.3z M340.3,301c-0.4,0.2-1,0.3-1.7,0.4c-0.4,0.1-0.7,0.1-0.9,0.2s-0.3,0.2-0.4,0.3
		s-0.1,0.3-0.1,0.5c0,0.3,0.1,0.5,0.3,0.7s0.5,0.3,0.9,0.3c0.4,0,0.8-0.1,1.1-0.3s0.5-0.4,0.7-0.7c0.1-0.2,0.2-0.6,0.2-1.1V301z"/>
	<path d="M343,297.9h4.9v6.2h-1.1v-5.3h-2.8v5.3H343V297.9z"/>
	<path d="M349.5,297.9h1.1v4.7l2.9-4.7h1.1v6.2h-1.1v-4.7l-2.9,4.7h-1.1V297.9z"/>
	<path d="M355.6,297.9h5.1v0.9h-2v5.3h-1v-5.3h-2V297.9z"/>
	<path d="M365.6,303.3c-0.4,0.3-0.8,0.6-1.1,0.7s-0.7,0.2-1.2,0.2c-0.7,0-1.2-0.2-1.6-0.5s-0.6-0.8-0.6-1.3c0-0.3,0.1-0.6,0.2-0.8
		s0.3-0.5,0.5-0.6s0.5-0.3,0.8-0.3c0.2-0.1,0.5-0.1,0.9-0.2c0.9-0.1,1.5-0.2,1.9-0.4c0-0.1,0-0.2,0-0.3c0-0.4-0.1-0.7-0.3-0.9
		c-0.3-0.2-0.7-0.4-1.2-0.4c-0.5,0-0.9,0.1-1.1,0.3s-0.4,0.5-0.5,0.9l-1-0.1c0.1-0.4,0.2-0.8,0.5-1.1s0.5-0.5,0.9-0.6
		s0.9-0.2,1.4-0.2c0.5,0,1,0.1,1.3,0.2s0.6,0.3,0.7,0.5s0.3,0.4,0.3,0.7c0,0.2,0.1,0.5,0.1,1v1.4c0,1,0,1.6,0.1,1.9s0.1,0.5,0.3,0.7
		h-1.1C365.7,303.9,365.6,303.6,365.6,303.3z M365.5,301c-0.4,0.2-1,0.3-1.7,0.4c-0.4,0.1-0.7,0.1-0.9,0.2s-0.3,0.2-0.4,0.3
		s-0.1,0.3-0.1,0.5c0,0.3,0.1,0.5,0.3,0.7s0.5,0.3,0.9,0.3c0.4,0,0.8-0.1,1.1-0.3s0.5-0.4,0.7-0.7c0.1-0.2,0.2-0.6,0.2-1.1V301z"/>
	<path d="M368.7,297.9h4.9v6.2h-1v-5.3h-2.8v3.1c0,0.7,0,1.2-0.1,1.4s-0.2,0.4-0.4,0.6s-0.5,0.3-0.9,0.3c-0.2,0-0.5,0-0.8,0v-0.9
		h0.5c0.2,0,0.4,0,0.5-0.1s0.2-0.1,0.2-0.2s0-0.4,0-1V297.9z"/>
	<path d="M379.3,303.3c-0.4,0.3-0.8,0.6-1.1,0.7s-0.7,0.2-1.2,0.2c-0.7,0-1.2-0.2-1.6-0.5s-0.6-0.8-0.6-1.3c0-0.3,0.1-0.6,0.2-0.8
		s0.3-0.5,0.5-0.6s0.5-0.3,0.8-0.3c0.2-0.1,0.5-0.1,0.9-0.2c0.9-0.1,1.5-0.2,1.9-0.4c0-0.1,0-0.2,0-0.3c0-0.4-0.1-0.7-0.3-0.9
		c-0.3-0.2-0.7-0.4-1.2-0.4c-0.5,0-0.9,0.1-1.1,0.3s-0.4,0.5-0.5,0.9l-1-0.1c0.1-0.4,0.2-0.8,0.5-1.1s0.5-0.5,0.9-0.6
		s0.9-0.2,1.4-0.2c0.5,0,1,0.1,1.3,0.2s0.6,0.3,0.7,0.5s0.3,0.4,0.3,0.7c0,0.2,0.1,0.5,0.1,1v1.4c0,1,0,1.6,0.1,1.9s0.1,0.5,0.3,0.7
		h-1.1C379.4,303.9,379.3,303.6,379.3,303.3z M379.2,301c-0.4,0.2-1,0.3-1.7,0.4c-0.4,0.1-0.7,0.1-0.9,0.2s-0.3,0.2-0.4,0.3
		s-0.1,0.3-0.1,0.5c0,0.3,0.1,0.5,0.3,0.7s0.5,0.3,0.9,0.3c0.4,0,0.8-0.1,1.1-0.3s0.5-0.4,0.7-0.7c0.1-0.2,0.2-0.6,0.2-1.1V301z"/>
	<path d="M381.9,297.9h1.6l1.6,5l1.8-5h1.5v6.2h-1.1v-5l-1.8,5h-0.9l-1.7-5.3v5.3h-1V297.9z"/>
	<path d="M390.2,297.9h1.1v4.7l2.9-4.7h1.1v6.2h-1.1v-4.7l-2.9,4.7h-1.1V297.9z"/>
</g>
<g>
	<path d="M551.4,192.4h6.8v8.6H557v-7.6h-4.5v7.6h-1.1V192.4z"/>
	<path d="M560.4,194.8h4.9v6.2h-1v-5.3h-2.8v3.1c0,0.7,0,1.2-0.1,1.4s-0.2,0.4-0.4,0.6s-0.5,0.3-0.9,0.3c-0.2,0-0.5,0-0.8,0v-0.9
		h0.5c0.2,0,0.4,0,0.5-0.1s0.2-0.1,0.2-0.2s0-0.4,0-1V194.8z"/>
	<path d="M570.9,200.2c-0.4,0.3-0.8,0.6-1.1,0.7s-0.7,0.2-1.2,0.2c-0.7,0-1.2-0.2-1.6-0.5s-0.6-0.8-0.6-1.3c0-0.3,0.1-0.6,0.2-0.8
		s0.3-0.5,0.5-0.6s0.5-0.3,0.8-0.3c0.2-0.1,0.5-0.1,0.9-0.2c0.9-0.1,1.5-0.2,1.9-0.4c0-0.1,0-0.2,0-0.3c0-0.4-0.1-0.7-0.3-0.9
		c-0.3-0.2-0.7-0.4-1.2-0.4c-0.5,0-0.9,0.1-1.1,0.3s-0.4,0.5-0.5,0.9l-1-0.1c0.1-0.4,0.2-0.8,0.5-1.1s0.5-0.5,0.9-0.6
		s0.9-0.2,1.4-0.2c0.5,0,1,0.1,1.3,0.2s0.6,0.3,0.7,0.5s0.3,0.4,0.3,0.7c0,0.2,0.1,0.5,0.1,1v1.4c0,1,0,1.6,0.1,1.9s0.1,0.5,0.3,0.7
		h-1.1C571,200.8,571,200.5,570.9,200.2z M570.8,197.9c-0.4,0.2-1,0.3-1.7,0.4c-0.4,0.1-0.7,0.1-0.9,0.2s-0.3,0.2-0.4,0.3
		s-0.1,0.3-0.1,0.5c0,0.3,0.1,0.5,0.3,0.7s0.5,0.3,0.9,0.3c0.4,0,0.8-0.1,1.1-0.3s0.5-0.4,0.7-0.7c0.1-0.2,0.2-0.6,0.2-1.1V197.9z"
		/>
	<path d="M572.7,194.8h5.1v0.9h-2v5.3h-1v-5.3h-2V194.8z"/>
	<path d="M582.4,192.4h1.1v3c0.2-0.3,0.5-0.4,0.7-0.6s0.5-0.2,0.8-0.2c0.7,0,1.3,0.3,1.8,0.9s0.6,1.4,0.6,2.3c0,1-0.2,1.8-0.7,2.4
		s-1,0.9-1.7,0.9c-0.2,0-0.5,0-0.7-0.1s-0.5-0.3-0.8-0.6v2.9h-1.1v-2.9c-0.2,0.2-0.4,0.4-0.7,0.5s-0.5,0.2-0.8,0.2
		c-0.7,0-1.2-0.3-1.7-0.9s-0.7-1.4-0.7-2.5c0-0.9,0.2-1.7,0.7-2.3s1-0.9,1.8-0.9c0.3,0,0.6,0.1,0.8,0.2s0.5,0.3,0.7,0.6V192.4z
		 M579.5,197.8c0,0.9,0.1,1.5,0.4,1.9s0.7,0.6,1.1,0.6c0.5,0,0.8-0.2,1-0.6s0.3-1,0.3-1.7c0-0.8-0.1-1.4-0.4-1.8s-0.6-0.6-1.1-0.6
		c-0.4,0-0.8,0.2-1.1,0.6S579.5,197.1,579.5,197.8z M583.4,197.9c0,0.9,0.1,1.6,0.4,1.9s0.6,0.5,1,0.5c0.4,0,0.8-0.2,1.1-0.6
		s0.5-1,0.5-1.8c0-0.8-0.1-1.4-0.4-1.8s-0.6-0.6-1.1-0.6c-0.5,0-0.8,0.2-1.1,0.6S583.4,197.1,583.4,197.9z"/>
	<path d="M588.2,197.9c0-1.2,0.3-2,1-2.6c0.5-0.5,1.2-0.7,2-0.7c0.9,0,1.6,0.3,2.1,0.8s0.8,1.3,0.8,2.3c0,0.8-0.1,1.4-0.4,1.9
		s-0.6,0.8-1,1.1s-1,0.4-1.5,0.4c-0.9,0-1.6-0.3-2.1-0.8S588.2,198.9,588.2,197.9z M589.3,197.9c0,0.8,0.2,1.4,0.5,1.8
		s0.8,0.6,1.3,0.6c0.5,0,1-0.2,1.3-0.6s0.5-1,0.5-1.8c0-0.8-0.2-1.4-0.5-1.7s-0.8-0.6-1.3-0.6c-0.5,0-1,0.2-1.3,0.6
		S589.3,197.1,589.3,197.9z"/>
	<path d="M595.3,203.4v-8.6h1v0.8c0.2-0.3,0.5-0.6,0.8-0.7s0.6-0.2,1-0.2c0.5,0,1,0.1,1.4,0.4s0.7,0.7,0.9,1.2s0.3,1,0.3,1.6
		c0,0.6-0.1,1.2-0.3,1.7s-0.6,0.9-1,1.2s-0.9,0.4-1.4,0.4c-0.4,0-0.7-0.1-0.9-0.2s-0.5-0.3-0.7-0.6v3H595.3z M596.3,197.9
		c0,0.8,0.2,1.4,0.5,1.8s0.7,0.6,1.2,0.6c0.5,0,0.9-0.2,1.2-0.6s0.5-1,0.5-1.8c0-0.8-0.2-1.4-0.5-1.8s-0.7-0.6-1.2-0.6
		c-0.4,0-0.8,0.2-1.2,0.6S596.3,197.1,596.3,197.9z"/>
	<path d="M602,194.8h1.6l1.6,5l1.8-5h1.5v6.2h-1.1v-5l-1.8,5h-0.9l-1.7-5.3v5.3h-1V194.8z"/>
	<path d="M614.3,200.2c-0.4,0.3-0.8,0.6-1.1,0.7s-0.7,0.2-1.2,0.2c-0.7,0-1.2-0.2-1.6-0.5s-0.6-0.8-0.6-1.3c0-0.3,0.1-0.6,0.2-0.8
		s0.3-0.5,0.5-0.6s0.5-0.3,0.8-0.3c0.2-0.1,0.5-0.1,0.9-0.2c0.9-0.1,1.5-0.2,1.9-0.4c0-0.1,0-0.2,0-0.3c0-0.4-0.1-0.7-0.3-0.9
		c-0.3-0.2-0.7-0.4-1.2-0.4c-0.5,0-0.9,0.1-1.1,0.3s-0.4,0.5-0.5,0.9l-1-0.1c0.1-0.4,0.2-0.8,0.5-1.1s0.5-0.5,0.9-0.6
		s0.9-0.2,1.4-0.2c0.5,0,1,0.1,1.3,0.2s0.6,0.3,0.7,0.5s0.3,0.4,0.3,0.7c0,0.2,0.1,0.5,0.1,1v1.4c0,1,0,1.6,0.1,1.9s0.1,0.5,0.3,0.7
		h-1.1C614.4,200.8,614.3,200.5,614.3,200.2z M614.2,197.9c-0.4,0.2-1,0.3-1.7,0.4c-0.4,0.1-0.7,0.1-0.9,0.2s-0.3,0.2-0.4,0.3
		s-0.1,0.3-0.1,0.5c0,0.3,0.1,0.5,0.3,0.7s0.5,0.3,0.9,0.3c0.4,0,0.8-0.1,1.1-0.3s0.5-0.4,0.7-0.7c0.1-0.2,0.2-0.6,0.2-1.1V197.9z"
		/>
	<path d="M620.2,203.4l-0.1-1c0.2,0.1,0.4,0.1,0.6,0.1c0.2,0,0.4,0,0.6-0.1s0.3-0.2,0.3-0.3c0.1-0.1,0.2-0.4,0.3-0.8
		c0-0.1,0.1-0.1,0.1-0.3l-2.4-6.2h1.1l1.3,3.6c0.2,0.5,0.3,0.9,0.5,1.4c0.1-0.5,0.3-1,0.4-1.4l1.3-3.6h1.1l-2.4,6.3
		c-0.3,0.7-0.5,1.2-0.6,1.4c-0.2,0.3-0.4,0.6-0.6,0.8s-0.5,0.2-0.9,0.2C620.7,203.5,620.5,203.5,620.2,203.4z"/>
	<path d="M626.3,194.8h4.9v6.2h-1.1v-5.3h-2.8v5.3h-1.1V194.8z"/>
	<path d="M632.7,203.4v-8.6h1v0.8c0.2-0.3,0.5-0.6,0.8-0.7s0.6-0.2,1-0.2c0.5,0,1,0.1,1.4,0.4s0.7,0.7,0.9,1.2s0.3,1,0.3,1.6
		c0,0.6-0.1,1.2-0.3,1.7s-0.6,0.9-1,1.2s-0.9,0.4-1.4,0.4c-0.4,0-0.7-0.1-0.9-0.2s-0.5-0.3-0.7-0.6v3H632.7z M633.7,197.9
		c0,0.8,0.2,1.4,0.5,1.8s0.7,0.6,1.2,0.6c0.5,0,0.9-0.2,1.2-0.6s0.5-1,0.5-1.8c0-0.8-0.2-1.4-0.5-1.8s-0.7-0.6-1.2-0.6
		c-0.4,0-0.8,0.2-1.2,0.6S633.7,197.1,633.7,197.9z"/>
	<path d="M643.5,200.2c-0.4,0.3-0.8,0.6-1.1,0.7s-0.7,0.2-1.2,0.2c-0.7,0-1.2-0.2-1.6-0.5s-0.6-0.8-0.6-1.3c0-0.3,0.1-0.6,0.2-0.8
		s0.3-0.5,0.5-0.6s0.5-0.3,0.8-0.3c0.2-0.1,0.5-0.1,0.9-0.2c0.9-0.1,1.5-0.2,1.9-0.4c0-0.1,0-0.2,0-0.3c0-0.4-0.1-0.7-0.3-0.9
		c-0.3-0.2-0.7-0.4-1.2-0.4c-0.5,0-0.9,0.1-1.1,0.3s-0.4,0.5-0.5,0.9l-1-0.1c0.1-0.4,0.2-0.8,0.5-1.1s0.5-0.5,0.9-0.6
		s0.9-0.2,1.4-0.2c0.5,0,1,0.1,1.3,0.2s0.6,0.3,0.7,0.5s0.3,0.4,0.3,0.7c0,0.2,0.1,0.5,0.1,1v1.4c0,1,0,1.6,0.1,1.9s0.1,0.5,0.3,0.7
		h-1.1C643.6,200.8,643.5,200.5,643.5,200.2z M643.4,197.9c-0.4,0.2-1,0.3-1.7,0.4c-0.4,0.1-0.7,0.1-0.9,0.2s-0.3,0.2-0.4,0.3
		s-0.1,0.3-0.1,0.5c0,0.3,0.1,0.5,0.3,0.7s0.5,0.3,0.9,0.3c0.4,0,0.8-0.1,1.1-0.3s0.5-0.4,0.7-0.7c0.1-0.2,0.2-0.6,0.2-1.1V197.9z"
		/>
	<path d="M646.1,194.8h2.4c0.6,0,1,0,1.3,0.1s0.5,0.3,0.8,0.5s0.3,0.6,0.3,1c0,0.3-0.1,0.6-0.2,0.8s-0.3,0.4-0.6,0.6
		c0.3,0.1,0.5,0.3,0.7,0.5s0.3,0.6,0.3,1c0,0.6-0.3,1-0.6,1.3s-0.9,0.4-1.7,0.4h-2.8V194.8z M647.2,197.4h1.1c0.4,0,0.8,0,0.9-0.1
		s0.3-0.1,0.5-0.3s0.2-0.3,0.2-0.5c0-0.3-0.1-0.6-0.3-0.7s-0.6-0.2-1.2-0.2h-1.2V197.4z M647.2,200.1h1.4c0.6,0,1-0.1,1.2-0.2
		s0.3-0.4,0.4-0.7c0-0.2-0.1-0.4-0.2-0.6s-0.3-0.3-0.5-0.3s-0.5-0.1-1-0.1h-1.3V200.1z"/>
	<path d="M652.7,194.8h4.9v6.2h-1v-5.3h-2.8v3.1c0,0.7,0,1.2-0.1,1.4s-0.2,0.4-0.4,0.6s-0.5,0.3-0.9,0.3c-0.2,0-0.5,0-0.8,0v-0.9
		h0.5c0.2,0,0.4,0,0.5-0.1s0.2-0.1,0.2-0.2s0-0.4,0-1V194.8z"/>
	<path d="M663.5,199l1.1,0.1c-0.2,0.6-0.5,1.1-1,1.5s-1.1,0.5-1.8,0.5c-0.9,0-1.6-0.3-2.2-0.8s-0.8-1.3-0.8-2.4c0-1,0.3-1.9,0.8-2.4
		s1.2-0.9,2.1-0.9c0.8,0,1.5,0.3,2,0.8s0.8,1.4,0.8,2.4c0,0.1,0,0.2,0,0.3h-4.6c0,0.7,0.2,1.2,0.6,1.6s0.8,0.5,1.3,0.5
		c0.4,0,0.7-0.1,1-0.3S663.3,199.4,663.5,199z M660,197.3h3.5c0-0.5-0.2-0.9-0.4-1.2c-0.3-0.4-0.8-0.6-1.3-0.6
		c-0.5,0-0.9,0.2-1.2,0.5S660,196.7,660,197.3z"/>
	<path d="M665.9,194.8h1.1v2.6h2.9v-2.6h1.1v6.2h-1.1v-2.8h-2.9v2.8h-1.1V194.8z"/>
	<path d="M672.5,194.8h1.1v4.7l2.9-4.7h1.1v6.2h-1.1v-4.7l-2.9,4.7h-1.1V194.8z"/>
	<path d="M684.1,194.8v6.2h-1v-2.4h-0.6c-0.4,0-0.6,0-0.8,0.1s-0.4,0.4-0.8,0.9l-0.9,1.4h-1.3l1.1-1.7c0.3-0.5,0.7-0.8,1-0.9
		c-0.6-0.1-1-0.3-1.3-0.7s-0.4-0.8-0.4-1.2c0-0.5,0.2-1,0.6-1.3s0.9-0.5,1.7-0.5H684.1z M683,195.6h-1.5c-0.6,0-1,0.1-1.2,0.3
		s-0.3,0.4-0.3,0.7c0,0.4,0.1,0.6,0.4,0.8s0.7,0.3,1.4,0.3h1.2V195.6z"/>
	<path d="M689,194.8h1.1v2.7c0.3,0,0.6-0.1,0.7-0.2s0.3-0.5,0.6-1.1c0.2-0.5,0.4-0.8,0.5-1s0.3-0.3,0.4-0.3s0.4-0.1,0.8-0.1h0.2v0.9
		l-0.3,0c-0.3,0-0.5,0-0.5,0.1c-0.1,0.1-0.2,0.3-0.4,0.8c-0.2,0.4-0.3,0.7-0.4,0.8s-0.3,0.3-0.6,0.4c0.5,0.1,0.9,0.5,1.3,1.3
		l1.2,1.9h-1.2l-1.1-1.9c-0.2-0.4-0.4-0.6-0.6-0.8s-0.4-0.2-0.6-0.2v2.9H689V194.8z"/>
	<path d="M698.6,200.2c-0.4,0.3-0.8,0.6-1.1,0.7s-0.7,0.2-1.2,0.2c-0.7,0-1.2-0.2-1.6-0.5s-0.6-0.8-0.6-1.3c0-0.3,0.1-0.6,0.2-0.8
		s0.3-0.5,0.5-0.6s0.5-0.3,0.8-0.3c0.2-0.1,0.5-0.1,0.9-0.2c0.9-0.1,1.5-0.2,1.9-0.4c0-0.1,0-0.2,0-0.3c0-0.4-0.1-0.7-0.3-0.9
		c-0.3-0.2-0.7-0.4-1.2-0.4c-0.5,0-0.9,0.1-1.1,0.3s-0.4,0.5-0.5,0.9l-1-0.1c0.1-0.4,0.2-0.8,0.5-1.1s0.5-0.5,0.9-0.6
		s0.9-0.2,1.4-0.2c0.5,0,1,0.1,1.3,0.2s0.6,0.3,0.7,0.5s0.3,0.4,0.3,0.7c0,0.2,0.1,0.5,0.1,1v1.4c0,1,0,1.6,0.1,1.9s0.1,0.5,0.3,0.7
		h-1.1C698.7,200.8,698.6,200.5,698.6,200.2z M698.5,197.9c-0.4,0.2-1,0.3-1.7,0.4c-0.4,0.1-0.7,0.1-0.9,0.2s-0.3,0.2-0.4,0.3
		s-0.1,0.3-0.1,0.5c0,0.3,0.1,0.5,0.3,0.7s0.5,0.3,0.9,0.3c0.4,0,0.8-0.1,1.1-0.3s0.5-0.4,0.7-0.7c0.1-0.2,0.2-0.6,0.2-1.1V197.9z"
		/>
	<path d="M701.2,194.8h4.9v6.2h-1.1v-5.3h-2.8v5.3h-1.1V194.8z"/>
	<path d="M707.7,194.8h1.1v4.7l2.9-4.7h1.1v6.2h-1.1v-4.7l-2.9,4.7h-1.1V194.8z"/>
	<path d="M713.9,194.8h5.1v0.9h-2v5.3h-1v-5.3h-2V194.8z"/>
	<path d="M723.8,200.2c-0.4,0.3-0.8,0.6-1.1,0.7s-0.7,0.2-1.2,0.2c-0.7,0-1.2-0.2-1.6-0.5s-0.6-0.8-0.6-1.3c0-0.3,0.1-0.6,0.2-0.8
		s0.3-0.5,0.5-0.6s0.5-0.3,0.8-0.3c0.2-0.1,0.5-0.1,0.9-0.2c0.9-0.1,1.5-0.2,1.9-0.4c0-0.1,0-0.2,0-0.3c0-0.4-0.1-0.7-0.3-0.9
		c-0.3-0.2-0.7-0.4-1.2-0.4c-0.5,0-0.9,0.1-1.1,0.3s-0.4,0.5-0.5,0.9l-1-0.1c0.1-0.4,0.2-0.8,0.5-1.1s0.5-0.5,0.9-0.6
		s0.9-0.2,1.4-0.2c0.5,0,1,0.1,1.3,0.2s0.6,0.3,0.7,0.5s0.3,0.4,0.3,0.7c0,0.2,0.1,0.5,0.1,1v1.4c0,1,0,1.6,0.1,1.9s0.1,0.5,0.3,0.7
		h-1.1C723.9,200.8,723.9,200.5,723.8,200.2z M723.8,197.9c-0.4,0.2-1,0.3-1.7,0.4c-0.4,0.1-0.7,0.1-0.9,0.2s-0.3,0.2-0.4,0.3
		s-0.1,0.3-0.1,0.5c0,0.3,0.1,0.5,0.3,0.7s0.5,0.3,0.9,0.3c0.4,0,0.8-0.1,1.1-0.3s0.5-0.4,0.7-0.7c0.1-0.2,0.2-0.6,0.2-1.1V197.9z"
		/>
	<path d="M727,194.8h4.9v6.2h-1v-5.3H728v3.1c0,0.7,0,1.2-0.1,1.4s-0.2,0.4-0.4,0.6s-0.5,0.3-0.9,0.3c-0.2,0-0.5,0-0.8,0v-0.9h0.5
		c0.2,0,0.4,0,0.5-0.1s0.2-0.1,0.2-0.2s0-0.4,0-1V194.8z"/>
	<path d="M737.5,200.2c-0.4,0.3-0.8,0.6-1.1,0.7s-0.7,0.2-1.2,0.2c-0.7,0-1.2-0.2-1.6-0.5s-0.6-0.8-0.6-1.3c0-0.3,0.1-0.6,0.2-0.8
		s0.3-0.5,0.5-0.6s0.5-0.3,0.8-0.3c0.2-0.1,0.5-0.1,0.9-0.2c0.9-0.1,1.5-0.2,1.9-0.4c0-0.1,0-0.2,0-0.3c0-0.4-0.1-0.7-0.3-0.9
		c-0.3-0.2-0.7-0.4-1.2-0.4c-0.5,0-0.9,0.1-1.1,0.3s-0.4,0.5-0.5,0.9l-1-0.1c0.1-0.4,0.2-0.8,0.5-1.1s0.5-0.5,0.9-0.6
		s0.9-0.2,1.4-0.2c0.5,0,1,0.1,1.3,0.2s0.6,0.3,0.7,0.5s0.3,0.4,0.3,0.7c0,0.2,0.1,0.5,0.1,1v1.4c0,1,0,1.6,0.1,1.9s0.1,0.5,0.3,0.7
		h-1.1C737.6,200.8,737.5,200.5,737.5,200.2z M737.4,197.9c-0.4,0.2-1,0.3-1.7,0.4c-0.4,0.1-0.7,0.1-0.9,0.2s-0.3,0.2-0.4,0.3
		s-0.1,0.3-0.1,0.5c0,0.3,0.1,0.5,0.3,0.7s0.5,0.3,0.9,0.3c0.4,0,0.8-0.1,1.1-0.3s0.5-0.4,0.7-0.7c0.1-0.2,0.2-0.6,0.2-1.1V197.9z"
		/>
	<path d="M740.2,194.8h1.6l1.6,5l1.8-5h1.5v6.2h-1.1v-5l-1.8,5h-0.9l-1.7-5.3v5.3h-1V194.8z"/>
	<path d="M748.4,194.8h1.1v4.7l2.9-4.7h1.1v6.2h-1.1v-4.7l-2.9,4.7h-1.1V194.8z"/>
</g>
<g>
	<path d="M807.5,192.4h1.1v3.8c0.5,0,0.9-0.1,1.1-0.3s0.5-0.7,0.8-1.5c0.2-0.6,0.4-1,0.6-1.2s0.4-0.4,0.7-0.6s0.6-0.2,0.9-0.2
		c0.4,0,0.7,0,0.7,0v1c0,0-0.1,0-0.2,0c-0.1,0-0.2,0-0.2,0c-0.4,0-0.6,0.1-0.8,0.3c-0.2,0.2-0.4,0.6-0.6,1.1
		c-0.3,0.7-0.5,1.2-0.7,1.4s-0.4,0.3-0.7,0.5c0.6,0.2,1.1,0.7,1.6,1.5l1.8,2.9h-1.4l-1.4-2.3c-0.4-0.6-0.7-1.1-1-1.3s-0.6-0.4-1-0.4
		v4h-1.1V192.4z"/>
	<path d="M813.9,197.9c0-1.2,0.3-2,1-2.6c0.5-0.5,1.2-0.7,2-0.7c0.9,0,1.6,0.3,2.1,0.8s0.8,1.3,0.8,2.3c0,0.8-0.1,1.4-0.4,1.9
		s-0.6,0.8-1,1.1s-1,0.4-1.5,0.4c-0.9,0-1.6-0.3-2.1-0.8S813.9,198.9,813.9,197.9z M815,197.9c0,0.8,0.2,1.4,0.5,1.8
		s0.8,0.6,1.3,0.6c0.5,0,1-0.2,1.3-0.6s0.5-1,0.5-1.8c0-0.8-0.2-1.4-0.5-1.7s-0.8-0.6-1.3-0.6c-0.5,0-1,0.2-1.3,0.6
		S815,197.1,815,197.9z"/>
	<path d="M821,194.8h1.1v2.6h2.9v-2.6h1.1v6.2H825v-2.8H822v2.8H821V194.8z"/>
	<path d="M827,194.8h5.1v0.9h-2v5.3h-1v-5.3h-2V194.8z"/>
	<path d="M833.1,203.4v-8.6h1v0.8c0.2-0.3,0.5-0.6,0.8-0.7s0.6-0.2,1-0.2c0.5,0,1,0.1,1.4,0.4s0.7,0.7,0.9,1.2s0.3,1,0.3,1.6
		c0,0.6-0.1,1.2-0.3,1.7s-0.6,0.9-1,1.2s-0.9,0.4-1.4,0.4c-0.4,0-0.7-0.1-0.9-0.2s-0.5-0.3-0.7-0.6v3H833.1z M834.1,197.9
		c0,0.8,0.2,1.4,0.5,1.8s0.7,0.6,1.2,0.6c0.5,0,0.9-0.2,1.2-0.6s0.5-1,0.5-1.8c0-0.8-0.2-1.4-0.5-1.8s-0.7-0.6-1.2-0.6
		c-0.4,0-0.8,0.2-1.2,0.6S834.1,197.1,834.1,197.9z"/>
	<path d="M839.4,197.9c0-1.2,0.3-2,1-2.6c0.5-0.5,1.2-0.7,2-0.7c0.9,0,1.6,0.3,2.1,0.8s0.8,1.3,0.8,2.3c0,0.8-0.1,1.4-0.4,1.9
		s-0.6,0.8-1,1.1s-1,0.4-1.5,0.4c-0.9,0-1.6-0.3-2.1-0.8S839.4,198.9,839.4,197.9z M840.5,197.9c0,0.8,0.2,1.4,0.5,1.8
		s0.8,0.6,1.3,0.6c0.5,0,1-0.2,1.3-0.6s0.5-1,0.5-1.8c0-0.8-0.2-1.4-0.5-1.7s-0.8-0.6-1.3-0.6c-0.5,0-1,0.2-1.3,0.6
		S840.5,197.1,840.5,197.9z"/>
	<path d="M846.7,194.8h4.9v6.2h-1v-5.3h-2.8v3.1c0,0.7,0,1.2-0.1,1.4s-0.2,0.4-0.4,0.6s-0.5,0.3-0.9,0.3c-0.2,0-0.5,0-0.8,0v-0.9
		h0.5c0.2,0,0.4,0,0.5-0.1s0.2-0.1,0.2-0.2s0-0.4,0-1V194.8z"/>
	<path d="M853.2,194.8h1.1v2.4h1.3c0.9,0,1.5,0.2,2,0.5s0.7,0.8,0.7,1.4c0,0.5-0.2,1-0.6,1.3s-1,0.6-1.9,0.6h-2.6V194.8z
		 M854.2,200.1h1.1c0.7,0,1.1-0.1,1.4-0.2s0.4-0.4,0.4-0.8c0-0.3-0.1-0.5-0.3-0.7s-0.7-0.3-1.4-0.3h-1.2V200.1z"/>
	<path d="M859.4,194.8h1.1v2.6h2.9v-2.6h1.1v6.2h-1.1v-2.8h-2.9v2.8h-1.1V194.8z"/>
	<path d="M870.1,200.2c-0.4,0.3-0.8,0.6-1.1,0.7s-0.7,0.2-1.2,0.2c-0.7,0-1.2-0.2-1.6-0.5s-0.6-0.8-0.6-1.3c0-0.3,0.1-0.6,0.2-0.8
		s0.3-0.5,0.5-0.6s0.5-0.3,0.8-0.3c0.2-0.1,0.5-0.1,0.9-0.2c0.9-0.1,1.5-0.2,1.9-0.4c0-0.1,0-0.2,0-0.3c0-0.4-0.1-0.7-0.3-0.9
		c-0.3-0.2-0.7-0.4-1.2-0.4c-0.5,0-0.9,0.1-1.1,0.3s-0.4,0.5-0.5,0.9l-1-0.1c0.1-0.4,0.2-0.8,0.5-1.1s0.5-0.5,0.9-0.6
		s0.9-0.2,1.4-0.2c0.5,0,1,0.1,1.3,0.2s0.6,0.3,0.7,0.5s0.3,0.4,0.3,0.7c0,0.2,0.1,0.5,0.1,1v1.4c0,1,0,1.6,0.1,1.9s0.1,0.5,0.3,0.7
		h-1.1C870.2,200.8,870.2,200.5,870.1,200.2z M870,197.9c-0.4,0.2-1,0.3-1.7,0.4c-0.4,0.1-0.7,0.1-0.9,0.2s-0.3,0.2-0.4,0.3
		s-0.1,0.3-0.1,0.5c0,0.3,0.1,0.5,0.3,0.7s0.5,0.3,0.9,0.3c0.4,0,0.8-0.1,1.1-0.3s0.5-0.4,0.7-0.7c0.1-0.2,0.2-0.6,0.2-1.1V197.9z"
		/>
	<path d="M877.6,194.8v6.2h-1v-2.4H876c-0.4,0-0.6,0-0.8,0.1s-0.4,0.4-0.8,0.9l-0.9,1.4h-1.3l1.1-1.7c0.3-0.5,0.7-0.8,1-0.9
		c-0.6-0.1-1-0.3-1.3-0.7s-0.4-0.8-0.4-1.2c0-0.5,0.2-1,0.6-1.3s0.9-0.5,1.7-0.5H877.6z M876.6,195.6h-1.5c-0.6,0-1,0.1-1.2,0.3
		s-0.3,0.4-0.3,0.7c0,0.4,0.1,0.6,0.4,0.8s0.7,0.3,1.4,0.3h1.2V195.6z"/>
	<path d="M882.6,194.8h1.1v2.7c0.3,0,0.6-0.1,0.7-0.2s0.3-0.5,0.6-1.1c0.2-0.5,0.4-0.8,0.5-1s0.3-0.3,0.4-0.3s0.4-0.1,0.8-0.1h0.2
		v0.9l-0.3,0c-0.3,0-0.5,0-0.5,0.1c-0.1,0.1-0.2,0.3-0.4,0.8c-0.2,0.4-0.3,0.7-0.4,0.8s-0.3,0.3-0.6,0.4c0.5,0.1,0.9,0.5,1.3,1.3
		l1.2,1.9H886l-1.1-1.9c-0.2-0.4-0.4-0.6-0.6-0.8s-0.4-0.2-0.6-0.2v2.9h-1.1V194.8z"/>
	<path d="M887.6,197.9c0-1.2,0.3-2,1-2.6c0.5-0.5,1.2-0.7,2-0.7c0.9,0,1.6,0.3,2.1,0.8s0.8,1.3,0.8,2.3c0,0.8-0.1,1.4-0.4,1.9
		s-0.6,0.8-1,1.1s-1,0.4-1.5,0.4c-0.9,0-1.6-0.3-2.1-0.8S887.6,198.9,887.6,197.9z M888.6,197.9c0,0.8,0.2,1.4,0.5,1.8
		s0.8,0.6,1.3,0.6c0.5,0,1-0.2,1.3-0.6s0.5-1,0.5-1.8c0-0.8-0.2-1.4-0.5-1.7s-0.8-0.6-1.3-0.6c-0.5,0-1,0.2-1.3,0.6
		S888.6,197.1,888.6,197.9z"/>
	<path d="M894.7,194.8h1.6l1.6,5l1.8-5h1.5v6.2h-1.1v-5l-1.8,5h-0.9l-1.7-5.3v5.3h-1V194.8z"/>
	<path d="M902.9,194.8h4.9v6.2h-1.1v-5.3h-2.8v5.3h-1.1V194.8z"/>
	<path d="M913.4,200.2c-0.4,0.3-0.8,0.6-1.1,0.7s-0.7,0.2-1.2,0.2c-0.7,0-1.2-0.2-1.6-0.5s-0.6-0.8-0.6-1.3c0-0.3,0.1-0.6,0.2-0.8
		s0.3-0.5,0.5-0.6s0.5-0.3,0.8-0.3c0.2-0.1,0.5-0.1,0.9-0.2c0.9-0.1,1.5-0.2,1.9-0.4c0-0.1,0-0.2,0-0.3c0-0.4-0.1-0.7-0.3-0.9
		c-0.3-0.2-0.7-0.4-1.2-0.4c-0.5,0-0.9,0.1-1.1,0.3s-0.4,0.5-0.5,0.9l-1-0.1c0.1-0.4,0.2-0.8,0.5-1.1s0.5-0.5,0.9-0.6
		s0.9-0.2,1.4-0.2c0.5,0,1,0.1,1.3,0.2s0.6,0.3,0.7,0.5s0.3,0.4,0.3,0.7c0,0.2,0.1,0.5,0.1,1v1.4c0,1,0,1.6,0.1,1.9s0.1,0.5,0.3,0.7
		h-1.1C913.5,200.8,913.5,200.5,913.4,200.2z M913.4,197.9c-0.4,0.2-1,0.3-1.7,0.4c-0.4,0.1-0.7,0.1-0.9,0.2s-0.3,0.2-0.4,0.3
		s-0.1,0.3-0.1,0.5c0,0.3,0.1,0.5,0.3,0.7s0.5,0.3,0.9,0.3c0.4,0,0.8-0.1,1.1-0.3s0.5-0.4,0.7-0.7c0.1-0.2,0.2-0.6,0.2-1.1V197.9z"
		/>
	<path d="M916.1,194.8h1.1v2.6h2.9v-2.6h1.1v6.2H920v-2.8h-2.9v2.8h-1.1V194.8z"/>
	<path d="M922.7,194.8h1.1v4.7l2.9-4.7h1.1v6.2h-1.1v-4.7l-2.9,4.7h-1.1V194.8z"/>
	<path d="M934.3,194.8v6.2h-1v-2.4h-0.6c-0.4,0-0.6,0-0.8,0.1s-0.4,0.4-0.8,0.9l-0.9,1.4h-1.3l1.1-1.7c0.3-0.5,0.7-0.8,1-0.9
		c-0.6-0.1-1-0.3-1.3-0.7s-0.4-0.8-0.4-1.2c0-0.5,0.2-1,0.6-1.3s0.9-0.5,1.7-0.5H934.3z M933.2,195.6h-1.5c-0.6,0-1,0.1-1.2,0.3
		s-0.3,0.4-0.3,0.7c0,0.4,0.1,0.6,0.4,0.8s0.7,0.3,1.4,0.3h1.2V195.6z"/>
	<path d="M939.4,192.4h1.1v3.8c0.5,0,0.9-0.1,1.1-0.3s0.5-0.7,0.8-1.5c0.2-0.6,0.4-1,0.6-1.2s0.4-0.4,0.7-0.6s0.6-0.2,0.9-0.2
		c0.4,0,0.7,0,0.7,0v1c0,0-0.1,0-0.2,0c-0.1,0-0.2,0-0.2,0c-0.4,0-0.6,0.1-0.8,0.3c-0.2,0.2-0.4,0.6-0.6,1.1
		c-0.3,0.7-0.5,1.2-0.7,1.4s-0.4,0.3-0.7,0.5c0.6,0.2,1.1,0.7,1.6,1.5l1.8,2.9H944l-1.4-2.3c-0.4-0.6-0.7-1.1-1-1.3s-0.6-0.4-1-0.4
		v4h-1.1V192.4z"/>
	<path d="M950.3,200.2c-0.4,0.3-0.8,0.6-1.1,0.7s-0.7,0.2-1.2,0.2c-0.7,0-1.2-0.2-1.6-0.5s-0.6-0.8-0.6-1.3c0-0.3,0.1-0.6,0.2-0.8
		s0.3-0.5,0.5-0.6s0.5-0.3,0.8-0.3c0.2-0.1,0.5-0.1,0.9-0.2c0.9-0.1,1.5-0.2,1.9-0.4c0-0.1,0-0.2,0-0.3c0-0.4-0.1-0.7-0.3-0.9
		c-0.3-0.2-0.7-0.4-1.2-0.4c-0.5,0-0.9,0.1-1.1,0.3s-0.4,0.5-0.5,0.9l-1-0.1c0.1-0.4,0.2-0.8,0.5-1.1s0.5-0.5,0.9-0.6
		s0.9-0.2,1.4-0.2c0.5,0,1,0.1,1.3,0.2s0.6,0.3,0.7,0.5s0.3,0.4,0.3,0.7c0,0.2,0.1,0.5,0.1,1v1.4c0,1,0,1.6,0.1,1.9s0.1,0.5,0.3,0.7
		h-1.1C950.4,200.8,950.3,200.5,950.3,200.2z M950.2,197.9c-0.4,0.2-1,0.3-1.7,0.4c-0.4,0.1-0.7,0.1-0.9,0.2s-0.3,0.2-0.4,0.3
		s-0.1,0.3-0.1,0.5c0,0.3,0.1,0.5,0.3,0.7s0.5,0.3,0.9,0.3c0.4,0,0.8-0.1,1.1-0.3s0.5-0.4,0.7-0.7c0.1-0.2,0.2-0.6,0.2-1.1V197.9z"
		/>
	<path d="M952.9,194.8h1.1v4.7l2.9-4.7h1.1v6.2h-1.1v-4.7L954,201h-1.1V194.8z M956.5,192.4h0.7c-0.1,0.5-0.2,0.9-0.5,1.1
		s-0.7,0.4-1.2,0.4c-0.5,0-0.9-0.1-1.2-0.4s-0.5-0.6-0.5-1.1h0.7c0.1,0.3,0.2,0.5,0.3,0.6s0.4,0.2,0.7,0.2c0.3,0,0.6-0.1,0.7-0.2
		S956.5,192.7,956.5,192.4z"/>
	<path d="M959.6,194.8h1.6l1.6,5l1.8-5h1.5v6.2h-1.1v-5l-1.8,5h-0.9l-1.7-5.3v5.3h-1V194.8z"/>
	<path d="M971.9,200.2c-0.4,0.3-0.8,0.6-1.1,0.7s-0.7,0.2-1.2,0.2c-0.7,0-1.2-0.2-1.6-0.5s-0.6-0.8-0.6-1.3c0-0.3,0.1-0.6,0.2-0.8
		s0.3-0.5,0.5-0.6s0.5-0.3,0.8-0.3c0.2-0.1,0.5-0.1,0.9-0.2c0.9-0.1,1.5-0.2,1.9-0.4c0-0.1,0-0.2,0-0.3c0-0.4-0.1-0.7-0.3-0.9
		c-0.3-0.2-0.7-0.4-1.2-0.4c-0.5,0-0.9,0.1-1.1,0.3s-0.4,0.5-0.5,0.9l-1-0.1c0.1-0.4,0.2-0.8,0.5-1.1s0.5-0.5,0.9-0.6
		s0.9-0.2,1.4-0.2c0.5,0,1,0.1,1.3,0.2s0.6,0.3,0.7,0.5s0.3,0.4,0.3,0.7c0,0.2,0.1,0.5,0.1,1v1.4c0,1,0,1.6,0.1,1.9s0.1,0.5,0.3,0.7
		h-1.1C972,200.8,971.9,200.5,971.9,200.2z M971.8,197.9c-0.4,0.2-1,0.3-1.7,0.4c-0.4,0.1-0.7,0.1-0.9,0.2s-0.3,0.2-0.4,0.3
		s-0.1,0.3-0.1,0.5c0,0.3,0.1,0.5,0.3,0.7s0.5,0.3,0.9,0.3c0.4,0,0.8-0.1,1.1-0.3s0.5-0.4,0.7-0.7c0.1-0.2,0.2-0.6,0.2-1.1V197.9z"
		/>
	<path d="M974.5,194.8h1.1v2.6h2.9v-2.6h1.1v6.2h-1.1v-2.8h-2.9v2.8h-1.1V194.8z"/>
	<path d="M820.2,206.8h1.1v3.8c0.5,0,0.9-0.1,1.1-0.3s0.5-0.7,0.8-1.5c0.2-0.6,0.4-1,0.6-1.2s0.4-0.4,0.7-0.6s0.6-0.2,0.9-0.2
		c0.4,0,0.7,0,0.7,0v1c0,0-0.1,0-0.2,0c-0.1,0-0.2,0-0.2,0c-0.4,0-0.6,0.1-0.8,0.3c-0.2,0.2-0.4,0.6-0.6,1.1
		c-0.3,0.7-0.5,1.2-0.7,1.4s-0.4,0.3-0.7,0.5c0.6,0.2,1.1,0.7,1.6,1.5l1.8,2.9h-1.4l-1.4-2.3c-0.4-0.6-0.7-1.1-1-1.3s-0.6-0.4-1-0.4
		v4h-1.1V206.8z"/>
	<path d="M826.6,212.3c0-1.2,0.3-2,1-2.6c0.5-0.5,1.2-0.7,2-0.7c0.9,0,1.6,0.3,2.1,0.8s0.8,1.3,0.8,2.3c0,0.8-0.1,1.4-0.4,1.9
		s-0.6,0.8-1,1.1s-1,0.4-1.5,0.4c-0.9,0-1.6-0.3-2.1-0.8S826.6,213.3,826.6,212.3z M827.7,212.3c0,0.8,0.2,1.4,0.5,1.8
		s0.8,0.6,1.3,0.6c0.5,0,1-0.2,1.3-0.6s0.5-1,0.5-1.8c0-0.8-0.2-1.4-0.5-1.7s-0.8-0.6-1.3-0.6c-0.5,0-1,0.2-1.3,0.6
		S827.7,211.5,827.7,212.3z"/>
	<path d="M833.7,209.2h1.6l1.6,5l1.8-5h1.5v6.2h-1.1v-5l-1.8,5h-0.9l-1.7-5.3v5.3h-1V209.2z"/>
	<path d="M842,209.2h4.9v6.2h-1.1V210H843v5.3H842V209.2z"/>
	<path d="M852.5,214.6c-0.4,0.3-0.8,0.6-1.1,0.7s-0.7,0.2-1.2,0.2c-0.7,0-1.2-0.2-1.6-0.5s-0.6-0.8-0.6-1.3c0-0.3,0.1-0.6,0.2-0.8
		s0.3-0.5,0.5-0.6s0.5-0.3,0.8-0.3c0.2-0.1,0.5-0.1,0.9-0.2c0.9-0.1,1.5-0.2,1.9-0.4c0-0.1,0-0.2,0-0.3c0-0.4-0.1-0.7-0.3-0.9
		c-0.3-0.2-0.7-0.4-1.2-0.4c-0.5,0-0.9,0.1-1.1,0.3s-0.4,0.5-0.5,0.9l-1-0.1c0.1-0.4,0.2-0.8,0.5-1.1s0.5-0.5,0.9-0.6
		s0.9-0.2,1.4-0.2c0.5,0,1,0.1,1.3,0.2s0.6,0.3,0.7,0.5s0.3,0.4,0.3,0.7c0,0.2,0.1,0.5,0.1,1v1.4c0,1,0,1.6,0.1,1.9s0.1,0.5,0.3,0.7
		h-1.1C852.6,215.2,852.6,214.9,852.5,214.6z M852.4,212.3c-0.4,0.2-1,0.3-1.7,0.4c-0.4,0.1-0.7,0.1-0.9,0.2s-0.3,0.2-0.4,0.3
		s-0.1,0.3-0.1,0.5c0,0.3,0.1,0.5,0.3,0.7s0.5,0.3,0.9,0.3c0.4,0,0.8-0.1,1.1-0.3s0.5-0.4,0.7-0.7c0.1-0.2,0.2-0.6,0.2-1.1V212.3z"
		/>
	<path d="M855.1,209.2h1.1v2.6h2.9v-2.6h1.1v6.2h-1.1v-2.8h-2.9v2.8h-1.1V209.2z"/>
	<path d="M861.8,209.2h1.1v4.7l2.9-4.7h1.1v6.2h-1.1v-4.7l-2.9,4.7h-1.1V209.2z"/>
	<path d="M873.4,209.2v6.2h-1V213h-0.6c-0.4,0-0.6,0-0.8,0.1s-0.4,0.4-0.8,0.9l-0.9,1.4h-1.3l1.1-1.7c0.3-0.5,0.7-0.8,1-0.9
		c-0.6-0.1-1-0.3-1.3-0.7s-0.4-0.8-0.4-1.2c0-0.5,0.2-1,0.6-1.3s0.9-0.5,1.7-0.5H873.4z M872.3,210h-1.5c-0.6,0-1,0.1-1.2,0.3
		s-0.3,0.4-0.3,0.7c0,0.4,0.1,0.6,0.4,0.8s0.7,0.3,1.4,0.3h1.2V210z"/>
	<path d="M877.9,212.3c0-1.2,0.3-2,1-2.6c0.5-0.5,1.2-0.7,2-0.7c0.9,0,1.6,0.3,2.1,0.8s0.8,1.3,0.8,2.3c0,0.8-0.1,1.4-0.4,1.9
		s-0.6,0.8-1,1.1s-1,0.4-1.5,0.4c-0.9,0-1.6-0.3-2.1-0.8S877.9,213.3,877.9,212.3z M879,212.3c0,0.8,0.2,1.4,0.5,1.8
		s0.8,0.6,1.3,0.6c0.5,0,1-0.2,1.3-0.6s0.5-1,0.5-1.8c0-0.8-0.2-1.4-0.5-1.7s-0.8-0.6-1.3-0.6c-0.5,0-1,0.2-1.3,0.6
		S879,211.5,879,212.3z"/>
	<path d="M884.1,209.2h5.1v0.9h-2v5.3h-1V210h-2V209.2z"/>
	<path d="M889.8,209.2h1.1v1.2c0,0.5,0,0.9,0.1,1.1s0.2,0.4,0.4,0.6s0.5,0.3,0.9,0.3c0.4,0,0.9-0.1,1.5-0.3v-2.8h1.1v6.2h-1.1v-2.5
		c-0.6,0.2-1.3,0.3-1.8,0.3c-0.5,0-0.9-0.1-1.3-0.4s-0.6-0.5-0.7-0.9s-0.2-0.7-0.2-1.1V209.2z"/>
	<path d="M900.7,213.4l1.1,0.1c-0.2,0.6-0.5,1.1-1,1.5s-1.1,0.5-1.8,0.5c-0.9,0-1.6-0.3-2.2-0.8s-0.8-1.3-0.8-2.4
		c0-1,0.3-1.9,0.8-2.4s1.2-0.9,2.1-0.9c0.8,0,1.5,0.3,2,0.8s0.8,1.4,0.8,2.4c0,0.1,0,0.2,0,0.3h-4.6c0,0.7,0.2,1.2,0.6,1.6
		s0.8,0.5,1.3,0.5c0.4,0,0.7-0.1,1-0.3S900.6,213.8,900.7,213.4z M897.3,211.7h3.5c0-0.5-0.2-0.9-0.4-1.2c-0.3-0.4-0.8-0.6-1.3-0.6
		c-0.5,0-0.9,0.2-1.2,0.5S897.3,211.1,897.3,211.7z"/>
	<path d="M902.2,209.2h5.1v0.9h-2v5.3h-1V210h-2V209.2z"/>
	<path d="M908.2,209.2h1.1v2.6h2.9v-2.6h1.1v6.2h-1.1v-2.8h-2.9v2.8h-1.1V209.2z"/>
	<path d="M914.5,212.3c0-1.2,0.3-2,1-2.6c0.5-0.5,1.2-0.7,2-0.7c0.9,0,1.6,0.3,2.1,0.8s0.8,1.3,0.8,2.3c0,0.8-0.1,1.4-0.4,1.9
		s-0.6,0.8-1,1.1s-1,0.4-1.5,0.4c-0.9,0-1.6-0.3-2.1-0.8S914.5,213.3,914.5,212.3z M915.5,212.3c0,0.8,0.2,1.4,0.5,1.8
		s0.8,0.6,1.3,0.6c0.5,0,1-0.2,1.3-0.6s0.5-1,0.5-1.8c0-0.8-0.2-1.4-0.5-1.7s-0.8-0.6-1.3-0.6c-0.5,0-1,0.2-1.3,0.6
		S915.5,211.5,915.5,212.3z"/>
	<path d="M925.6,213.1l1,0.1c-0.1,0.7-0.4,1.3-0.9,1.7s-1,0.6-1.7,0.6c-0.9,0-1.5-0.3-2.1-0.8s-0.8-1.4-0.8-2.4
		c0-0.7,0.1-1.3,0.3-1.8s0.6-0.9,1-1.1s1-0.4,1.5-0.4c0.7,0,1.2,0.2,1.7,0.5s0.7,0.8,0.8,1.5l-1,0.2c-0.1-0.4-0.3-0.7-0.5-0.9
		s-0.5-0.3-0.9-0.3c-0.5,0-1,0.2-1.3,0.6s-0.5,1-0.5,1.8c0,0.8,0.2,1.4,0.5,1.8s0.7,0.6,1.3,0.6c0.4,0,0.8-0.1,1-0.4
		S925.5,213.6,925.6,213.1z"/>
	<path d="M927,209.2h5.1v0.9h-2v5.3h-1V210h-2V209.2z"/>
	<path d="M933,209.2h1.1v4.7l2.9-4.7h1.1v6.2h-1.1v-4.7l-2.9,4.7H933V209.2z"/>
	<path d="M946.5,215.4v-8.6h3.2c0.6,0,1,0,1.3,0.1c0.4,0.1,0.8,0.2,1.1,0.4s0.5,0.5,0.7,0.8s0.3,0.7,0.3,1.2c0,0.7-0.2,1.3-0.7,1.9
		s-1.3,0.8-2.5,0.8h-2.2v3.5H946.5z M947.7,210.9h2.2c0.7,0,1.3-0.1,1.6-0.4s0.5-0.7,0.5-1.2c0-0.4-0.1-0.7-0.3-0.9
		s-0.4-0.4-0.7-0.5c-0.2-0.1-0.5-0.1-1.1-0.1h-2.2V210.9z"/>
	<path d="M955.5,215.4l-1.9-6.2h1.1l1,3.6l0.4,1.3c0-0.1,0.1-0.5,0.3-1.3l1-3.6h1.1l0.9,3.6l0.3,1.2l0.4-1.2l1.1-3.6h1l-1.9,6.2
		h-1.1l-1-3.7l-0.2-1.1l-1.3,4.8H955.5z"/>
	<path d="M969.3,212.4l1.1,0.3c-0.2,0.9-0.7,1.6-1.3,2.1s-1.4,0.7-2.3,0.7c-0.9,0-1.7-0.2-2.3-0.6s-1-0.9-1.3-1.6s-0.5-1.5-0.5-2.3
		c0-0.9,0.2-1.7,0.5-2.3s0.8-1.2,1.5-1.5s1.3-0.5,2.1-0.5c0.9,0,1.6,0.2,2.2,0.7s1,1.1,1.2,1.8l-1.1,0.3c-0.2-0.6-0.5-1.1-0.9-1.4
		s-0.9-0.4-1.4-0.4c-0.7,0-1.2,0.2-1.7,0.5s-0.8,0.7-0.9,1.3s-0.3,1.1-0.3,1.6c0,0.7,0.1,1.4,0.3,1.9s0.5,1,1,1.2s0.9,0.4,1.5,0.4
		c0.6,0,1.2-0.2,1.6-0.6S969.2,213.1,969.3,212.4z"/>
</g>
</svg>
