<?xml version="1.0" encoding="utf-8"?>
<!-- Generator: Adobe Illustrator 22.0.0, SVG Export Plug-In . SVG Version: 6.00 Build 0)  -->
<svg version="1.1" id="组_8" xmlns="http://www.w3.org/2000/svg" xmlns:xlink="http://www.w3.org/1999/xlink" x="0px" y="0px"
	 viewBox="0 0 640 381" style="enable-background:new 0 0 640 381;" xml:space="preserve">
<style type="text/css">
	.st0{fill:#E6E6E6;}
	.st1{enable-background:new    ;}
	.st2{fill:#3C3C3C;}
	.st3{fill:#00A99E;}
</style>
<g id="矩形_2_拷贝_10">
	<rect class="st0" width="2" height="350"/>
</g>
<g id="矩形_2_拷贝_11">
	<rect y="349" class="st0" width="640" height="2"/>
</g>
<g id="_1636" class="st1">
	<path class="st2" d="M4.7,363.8V380h-1v-14.6c-0.5,0.5-1.1,0.9-1.7,1.3c-0.7,0.4-1.4,0.7-2.1,0.9v-0.9c0.5-0.2,0.9-0.3,1.3-0.5
		s0.8-0.4,1.1-0.7c0.4-0.2,0.7-0.5,1.1-0.8c0.3-0.3,0.7-0.6,1.1-0.9H4.7z"/>
	<path class="st2" d="M16.8,364.3v1.1c-0.8-0.4-1.5-0.5-2.3-0.5s-1.5,0.2-2.1,0.6s-1.2,0.9-1.6,1.6s-0.8,1.5-1,2.5s-0.4,2-0.4,3.2
		h0.1c0.8-1.8,2.1-2.7,4-2.7c0.6,0,1.2,0.1,1.8,0.4s1,0.6,1.4,1s0.7,1,0.9,1.6c0.2,0.6,0.3,1.2,0.3,1.9c0,0.8-0.1,1.5-0.3,2.1
		s-0.6,1.2-1,1.7s-0.9,0.8-1.5,1.1s-1.2,0.4-1.9,0.4c-0.7,0-1.4-0.2-2-0.5s-1.1-0.8-1.5-1.4S9,377,8.8,376.1
		c-0.2-0.9-0.3-1.9-0.3-3.1c0-1.4,0.1-2.6,0.4-3.8c0.3-1.1,0.7-2.1,1.2-2.9s1.2-1.4,1.9-1.9c0.8-0.4,1.6-0.7,2.6-0.7
		C15.3,363.9,16.1,364,16.8,364.3z M13.1,371c-0.5,0-1,0.1-1.5,0.3c-0.4,0.2-0.8,0.5-1.2,0.9s-0.6,0.8-0.8,1.2
		c-0.2,0.5-0.3,0.9-0.3,1.4c0,0.6,0.1,1.2,0.3,1.7c0.2,0.6,0.4,1,0.7,1.4c0.3,0.4,0.7,0.7,1.1,1s0.9,0.4,1.5,0.4
		c0.5,0,1-0.1,1.4-0.3c0.4-0.2,0.8-0.5,1.1-0.9c0.3-0.4,0.6-0.8,0.7-1.3c0.2-0.5,0.3-1.1,0.3-1.7s-0.1-1.2-0.2-1.7
		c-0.2-0.5-0.4-1-0.7-1.3c-0.3-0.4-0.7-0.6-1.1-0.9C14.2,371.1,13.7,371,13.1,371z"/>
	<path class="st2" d="M19.9,379.5v-1.2c1.2,0.7,2.4,1.1,3.4,1.1c1.3,0,2.3-0.3,3-1s1.1-1.5,1.1-2.6c0-1.2-0.4-2.1-1.2-2.7
		s-2-0.9-3.5-0.9h-1.2v-0.9h1.1c1.4,0,2.5-0.3,3.2-0.9s1.1-1.5,1.1-2.6c0-1-0.3-1.7-0.8-2.2s-1.3-0.8-2.4-0.8c-1,0-2,0.3-3.1,1v-1.1
		c1.2-0.6,2.3-0.9,3.3-0.9c1.3,0,2.2,0.3,3,1c0.7,0.7,1.1,1.6,1.1,2.7c0,2.2-1,3.5-3.1,4.1l0,0c1.1,0.1,2,0.5,2.7,1.2s1,1.6,1,2.7
		c0,1.4-0.5,2.5-1.4,3.4c-1,0.8-2.2,1.3-3.7,1.3C22.1,380.3,21,380,19.9,379.5z"/>
	<path class="st2" d="M40.1,364.3v1.1c-0.8-0.4-1.5-0.5-2.3-0.5s-1.5,0.2-2.1,0.6s-1.2,0.9-1.6,1.6s-0.8,1.5-1,2.5s-0.4,2-0.4,3.2
		h0.1c0.8-1.8,2.1-2.7,4-2.7c0.6,0,1.2,0.1,1.8,0.4s1,0.6,1.4,1s0.7,1,0.9,1.6s0.3,1.2,0.3,1.9c0,0.8-0.1,1.5-0.3,2.1
		s-0.6,1.2-1,1.7s-0.9,0.8-1.5,1.1s-1.2,0.4-1.9,0.4s-1.4-0.2-2-0.5s-1.1-0.8-1.5-1.4s-0.7-1.4-0.9-2.3s-0.3-1.9-0.3-3.1
		c0-1.4,0.1-2.6,0.4-3.8c0.3-1.1,0.7-2.1,1.2-2.9s1.2-1.4,1.9-1.9c0.8-0.4,1.6-0.7,2.6-0.7C38.7,363.9,39.5,364,40.1,364.3z
		 M36.5,371c-0.5,0-1,0.1-1.5,0.3c-0.4,0.2-0.8,0.5-1.2,0.9s-0.6,0.8-0.8,1.2c-0.2,0.5-0.3,0.9-0.3,1.4c0,0.6,0.1,1.2,0.3,1.7
		c0.2,0.6,0.4,1,0.7,1.4s0.7,0.7,1.1,1s0.9,0.4,1.5,0.4c0.5,0,1-0.1,1.4-0.3c0.4-0.2,0.8-0.5,1.1-0.9s0.6-0.8,0.7-1.3
		c0.2-0.5,0.3-1.1,0.3-1.7s-0.1-1.2-0.2-1.7c-0.2-0.5-0.4-1-0.7-1.3c-0.3-0.4-0.7-0.6-1.1-0.9C37.5,371.1,37,371,36.5,371z"/>
</g>
<g id="_2018" class="st1">
	<path class="st2" d="M230.9,380v-0.7c0-0.5,0-0.9,0.1-1.3s0.2-0.8,0.4-1.1c0.2-0.3,0.4-0.6,0.6-0.9s0.5-0.6,0.9-0.9
		c0.3-0.3,0.7-0.6,1.1-0.9c0.4-0.3,0.9-0.6,1.4-1c0.5-0.3,0.9-0.7,1.3-1c0.4-0.3,0.8-0.7,1.1-1.1s0.6-0.8,0.7-1.3
		c0.2-0.5,0.3-1,0.3-1.6c0-1-0.3-1.9-0.9-2.4c-0.6-0.6-1.4-0.9-2.4-0.9c-0.7,0-1.4,0.2-2.1,0.5c-0.7,0.3-1.3,0.7-1.9,1.3v-1.2
		c0.6-0.5,1.3-0.8,2-1.1c0.7-0.3,1.4-0.4,2.2-0.4c0.6,0,1.2,0.1,1.7,0.3c0.5,0.2,1,0.5,1.3,0.8c0.4,0.4,0.6,0.8,0.8,1.3
		s0.3,1.1,0.3,1.7c0,0.7-0.1,1.4-0.3,1.9c-0.2,0.6-0.5,1.1-0.9,1.5c-0.4,0.5-0.8,0.9-1.3,1.3s-1,0.8-1.5,1.2c-0.7,0.5-1.3,1-1.8,1.4
		s-0.9,0.8-1.2,1.2c-0.3,0.4-0.5,0.8-0.7,1.2s-0.2,0.9-0.2,1.4v0.2h7.9v0.9h-8.9V380z"/>
	<path class="st2" d="M247.3,380.3c-1.5,0-2.6-0.7-3.4-2c-0.8-1.3-1.2-3.3-1.2-5.9c0-2.8,0.4-5,1.3-6.4s2.1-2.2,3.7-2.2
		c3.1,0,4.6,2.7,4.6,8.1c0,2.7-0.4,4.8-1.3,6.2C250,379.6,248.8,380.3,247.3,380.3z M247.5,364.8c-1.2,0-2.2,0.6-2.8,1.9
		c-0.7,1.2-1,3.1-1,5.6c0,2.3,0.3,4,1,5.2c0.6,1.2,1.6,1.8,2.8,1.8s2.1-0.6,2.7-1.9c0.7-1.2,1-3,1-5.3
		C251.1,367.3,249.9,364.8,247.5,364.8z"/>
	<path class="st2" d="M259,363.8V380h-1v-14.6c-0.5,0.5-1.1,0.9-1.7,1.3c-0.7,0.4-1.4,0.7-2.1,0.9v-0.9c0.5-0.2,0.9-0.3,1.3-0.5
		c0.4-0.2,0.8-0.4,1.1-0.7c0.4-0.2,0.7-0.5,1.1-0.8c0.3-0.3,0.7-0.6,1.1-0.9H259z"/>
	<path class="st2" d="M262.5,375.6c0-0.4,0.1-0.8,0.2-1.2c0.1-0.4,0.3-0.8,0.6-1.2c0.2-0.4,0.6-0.7,0.9-1c0.4-0.3,0.8-0.5,1.3-0.7
		c-0.4-0.2-0.7-0.4-1-0.6s-0.6-0.5-0.8-0.8c-0.2-0.3-0.4-0.6-0.5-1s-0.2-0.7-0.2-1.1c0-0.6,0.1-1.1,0.3-1.6s0.5-0.9,0.9-1.3
		s0.8-0.6,1.3-0.9s1.1-0.3,1.6-0.3c0.6,0,1.2,0.1,1.7,0.3c0.5,0.2,0.9,0.5,1.3,0.9s0.7,0.8,0.9,1.3s0.3,1,0.3,1.6
		c0,0.4-0.1,0.8-0.2,1.1c-0.1,0.4-0.3,0.7-0.5,1s-0.5,0.6-0.8,0.8c-0.3,0.3-0.6,0.5-1,0.6c0.5,0.2,0.9,0.4,1.3,0.7
		c0.4,0.3,0.7,0.6,0.9,1c0.2,0.4,0.4,0.7,0.5,1.2c0.1,0.4,0.2,0.8,0.2,1.2c0,0.7-0.1,1.4-0.3,2c-0.2,0.6-0.5,1.1-1,1.5
		c-0.4,0.4-0.9,0.7-1.5,0.9c-0.6,0.2-1.2,0.3-1.9,0.3c-0.7,0-1.3-0.1-1.9-0.3s-1.1-0.5-1.5-0.9s-0.7-0.9-1-1.5
		S262.5,376.3,262.5,375.6z M263.5,375.7c0,0.6,0.1,1.1,0.3,1.5s0.4,0.8,0.7,1.2s0.7,0.6,1.1,0.7s0.9,0.3,1.5,0.3
		c0.5,0,1-0.1,1.5-0.3c0.4-0.2,0.8-0.4,1.1-0.7s0.6-0.7,0.7-1.2s0.3-1,0.3-1.5s-0.1-1-0.3-1.4c-0.2-0.4-0.4-0.8-0.7-1.2
		c-0.3-0.3-0.7-0.6-1.1-0.8c-0.4-0.2-0.9-0.3-1.5-0.3c-0.5,0-1,0.1-1.4,0.3c-0.4,0.2-0.8,0.4-1.1,0.8s-0.6,0.7-0.8,1.2
		S263.5,375.2,263.5,375.7z M264.1,368c0,0.4,0.1,0.9,0.2,1.2c0.2,0.4,0.4,0.7,0.7,1c0.3,0.3,0.6,0.5,1,0.7s0.8,0.2,1.2,0.2
		c0.4,0,0.8-0.1,1.2-0.2s0.7-0.4,1-0.7c0.3-0.3,0.5-0.6,0.7-1s0.2-0.8,0.2-1.2c0-0.5-0.1-0.9-0.2-1.3s-0.4-0.7-0.7-1
		c-0.3-0.3-0.6-0.5-1-0.7s-0.8-0.2-1.2-0.2c-0.5,0-0.9,0.1-1.2,0.3c-0.4,0.2-0.7,0.4-1,0.7c-0.3,0.3-0.5,0.6-0.6,1
		C264.2,367.1,264.1,367.5,264.1,368z"/>
</g>
<g id="_2019" class="st1">
	<path class="st2" d="M359.9,380v-0.7c0-0.5,0-0.9,0.1-1.3s0.2-0.8,0.4-1.1c0.2-0.3,0.4-0.6,0.6-0.9s0.5-0.6,0.9-0.9
		c0.3-0.3,0.7-0.6,1.1-0.9s0.9-0.6,1.4-1c0.5-0.3,0.9-0.7,1.3-1s0.8-0.7,1.1-1.1c0.3-0.4,0.6-0.8,0.7-1.3c0.2-0.5,0.3-1,0.3-1.6
		c0-1-0.3-1.9-0.9-2.4c-0.6-0.6-1.4-0.9-2.4-0.9c-0.7,0-1.4,0.2-2.1,0.5s-1.3,0.7-1.9,1.3v-1.2c0.6-0.5,1.3-0.8,2-1.1
		c0.7-0.3,1.4-0.4,2.2-0.4c0.6,0,1.2,0.1,1.7,0.3c0.5,0.2,1,0.5,1.3,0.8c0.4,0.4,0.6,0.8,0.8,1.3c0.2,0.5,0.3,1.1,0.3,1.7
		c0,0.7-0.1,1.4-0.3,1.9c-0.2,0.6-0.5,1.1-0.9,1.5c-0.4,0.5-0.8,0.9-1.3,1.3s-1,0.8-1.5,1.2c-0.7,0.5-1.3,1-1.8,1.4
		s-0.9,0.8-1.2,1.2c-0.3,0.4-0.5,0.8-0.7,1.2s-0.2,0.9-0.2,1.4v0.2h7.9v0.9h-8.9V380z"/>
	<path class="st2" d="M376.3,380.3c-1.5,0-2.6-0.7-3.4-2s-1.2-3.3-1.2-5.9c0-2.8,0.4-5,1.3-6.4s2.1-2.2,3.7-2.2
		c3.1,0,4.6,2.7,4.6,8.1c0,2.7-0.4,4.8-1.3,6.2C379,379.6,377.8,380.3,376.3,380.3z M376.5,364.8c-1.2,0-2.2,0.6-2.8,1.9
		c-0.7,1.2-1,3.1-1,5.6c0,2.3,0.3,4,1,5.2c0.6,1.2,1.6,1.8,2.8,1.8c1.2,0,2.1-0.6,2.7-1.9c0.7-1.2,1-3,1-5.3
		C380.1,367.3,378.9,364.8,376.5,364.8z"/>
	<path class="st2" d="M388,363.8V380h-1v-14.6c-0.5,0.5-1.1,0.9-1.7,1.3c-0.7,0.4-1.4,0.7-2.1,0.9v-0.9c0.5-0.2,0.9-0.3,1.3-0.5
		s0.8-0.4,1.1-0.7c0.4-0.2,0.7-0.5,1.1-0.8c0.3-0.3,0.7-0.6,1.1-0.9H388z"/>
	<path class="st2" d="M392.3,379.9v-1.1c0.8,0.4,1.6,0.6,2.3,0.6c1.7,0,3-0.7,3.8-2c0.9-1.3,1.3-3.3,1.3-5.9l0,0
		c-0.7,1.7-2,2.6-3.9,2.6c-0.7,0-1.3-0.1-1.8-0.4c-0.5-0.2-1-0.6-1.4-1s-0.7-0.9-0.9-1.5c-0.2-0.6-0.3-1.2-0.3-2s0.1-1.5,0.4-2.1
		s0.6-1.2,1-1.7s0.9-0.8,1.5-1.1c0.6-0.3,1.2-0.4,1.9-0.4c0.7,0,1.3,0.2,1.9,0.5s1.1,0.8,1.5,1.4s0.7,1.4,0.9,2.2
		c0.2,0.9,0.3,1.9,0.3,3.1c0,1.5-0.1,2.8-0.4,3.9s-0.7,2.1-1.2,2.9s-1.2,1.4-1.9,1.8c-0.8,0.4-1.7,0.6-2.7,0.6
		C393.8,380.3,393,380.2,392.3,379.9z M396.1,364.8c-0.5,0-1,0.1-1.4,0.3c-0.4,0.2-0.8,0.5-1.1,0.9c-0.3,0.4-0.6,0.8-0.7,1.3
		c-0.2,0.5-0.3,1-0.3,1.6s0.1,1.2,0.3,1.7c0.2,0.5,0.4,0.9,0.7,1.3c0.3,0.4,0.7,0.6,1.1,0.8c0.4,0.2,0.9,0.3,1.5,0.3
		c0.5,0,0.9-0.1,1.4-0.3c0.4-0.2,0.8-0.5,1.1-0.8s0.6-0.7,0.8-1.1c0.2-0.4,0.3-0.9,0.3-1.4c0-0.7-0.1-1.3-0.3-1.9s-0.4-1.1-0.7-1.5
		s-0.7-0.7-1.1-1C397.1,364.9,396.6,364.8,396.1,364.8z"/>
</g>
<g id="_2020_" class="st1">
	<path class="st2" d="M487.9,380v-0.7c0-0.5,0-0.9,0.1-1.3s0.2-0.8,0.4-1.1c0.2-0.3,0.4-0.6,0.6-0.9s0.5-0.6,0.9-0.9
		c0.3-0.3,0.7-0.6,1.1-0.9s0.9-0.6,1.4-1c0.5-0.3,0.9-0.7,1.3-1s0.8-0.7,1.1-1.1c0.3-0.4,0.6-0.8,0.7-1.3c0.2-0.5,0.3-1,0.3-1.6
		c0-1-0.3-1.9-0.9-2.4c-0.6-0.6-1.4-0.9-2.4-0.9c-0.7,0-1.4,0.2-2.1,0.5s-1.3,0.7-1.9,1.3v-1.2c0.6-0.5,1.3-0.8,2-1.1
		c0.7-0.3,1.4-0.4,2.2-0.4c0.6,0,1.2,0.1,1.7,0.3c0.5,0.2,1,0.5,1.3,0.8c0.4,0.4,0.6,0.8,0.8,1.3c0.2,0.5,0.3,1.1,0.3,1.7
		c0,0.7-0.1,1.4-0.3,1.9c-0.2,0.6-0.5,1.1-0.9,1.5c-0.4,0.5-0.8,0.9-1.3,1.3s-1,0.8-1.5,1.2c-0.7,0.5-1.3,1-1.8,1.4
		s-0.9,0.8-1.2,1.2c-0.3,0.4-0.5,0.8-0.7,1.2s-0.2,0.9-0.2,1.4v0.2h7.9v0.9h-8.9V380z"/>
	<path class="st2" d="M504.3,380.3c-1.5,0-2.6-0.7-3.4-2s-1.2-3.3-1.2-5.9c0-2.8,0.4-5,1.3-6.4s2.1-2.2,3.7-2.2
		c3.1,0,4.6,2.7,4.6,8.1c0,2.7-0.4,4.8-1.3,6.2C507,379.6,505.8,380.3,504.3,380.3z M504.5,364.8c-1.2,0-2.2,0.6-2.8,1.9
		c-0.7,1.2-1,3.1-1,5.6c0,2.3,0.3,4,1,5.2c0.6,1.2,1.6,1.8,2.8,1.8c1.2,0,2.1-0.6,2.7-1.9c0.7-1.2,1-3,1-5.3
		C508.1,367.3,506.9,364.8,504.5,364.8z"/>
	<path class="st2" d="M511.3,380v-0.7c0-0.5,0-0.9,0.1-1.3s0.2-0.8,0.4-1.1c0.2-0.3,0.4-0.6,0.6-0.9s0.5-0.6,0.9-0.9
		c0.3-0.3,0.7-0.6,1.1-0.9c0.4-0.3,0.9-0.6,1.4-1c0.5-0.3,0.9-0.7,1.3-1c0.4-0.3,0.8-0.7,1.1-1.1s0.6-0.8,0.7-1.3
		c0.2-0.5,0.3-1,0.3-1.6c0-1-0.3-1.9-0.9-2.4c-0.6-0.6-1.4-0.9-2.4-0.9c-0.7,0-1.4,0.2-2.1,0.5c-0.7,0.3-1.3,0.7-1.9,1.3v-1.2
		c0.6-0.5,1.3-0.8,2-1.1c0.7-0.3,1.4-0.4,2.2-0.4c0.6,0,1.2,0.1,1.7,0.3c0.5,0.2,1,0.5,1.3,0.8c0.4,0.4,0.6,0.8,0.8,1.3
		s0.3,1.1,0.3,1.7c0,0.7-0.1,1.4-0.3,1.9c-0.2,0.6-0.5,1.1-0.9,1.5c-0.4,0.5-0.8,0.9-1.3,1.3s-1,0.8-1.5,1.2c-0.7,0.5-1.3,1-1.8,1.4
		s-0.9,0.8-1.2,1.2c-0.3,0.4-0.5,0.8-0.7,1.2s-0.2,0.9-0.2,1.4v0.2h7.9v0.9h-8.9V380z"/>
	<path class="st2" d="M527.6,380.3c-1.5,0-2.6-0.7-3.4-2c-0.8-1.3-1.2-3.3-1.2-5.9c0-2.8,0.4-5,1.3-6.4c0.9-1.4,2.1-2.2,3.7-2.2
		c3.1,0,4.6,2.7,4.6,8.1c0,2.7-0.4,4.8-1.3,6.2C530.4,379.6,529.2,380.3,527.6,380.3z M527.9,364.8c-1.2,0-2.2,0.6-2.8,1.9
		c-0.7,1.2-1,3.1-1,5.6c0,2.3,0.3,4,1,5.2c0.6,1.2,1.6,1.8,2.8,1.8s2.1-0.6,2.7-1.9c0.7-1.2,1-3,1-5.3
		C531.5,367.3,530.3,364.8,527.9,364.8z"/>
</g>
<g id="形状_1_拷贝">
	<polygon class="st3" points="1.7,349.3 0.9,347.5 69.3,313.9 127.8,288 191.9,288 255.3,269.2 315.4,169 387.7,169 443.7,133 
		511.8,133 576.6,108.1 577.4,109.9 512.2,135 444.3,135 388.3,171 316.6,171 256.7,270.8 256.3,271 192.1,290 128.2,290 
		70.1,315.7 	"/>
</g>
</svg>
