<?xml version="1.0" encoding="utf-8"?>
<!-- Generator: Adobe Illustrator 22.1.0, SVG Export Plug-In . SVG Version: 6.00 Build 0)  -->
<svg version="1.1" id="图层_1" xmlns="http://www.w3.org/2000/svg" xmlns:xlink="http://www.w3.org/1999/xlink" x="0px" y="0px"
	 viewBox="0 0 165 147" style="enable-background:new 0 0 165 147;" xml:space="preserve">
<style type="text/css">
	.st0{fill:#F2F2F2;}
	.st1{fill:#D2D1CF;}
	.st2{fill:#ECEDED;}
	.st3{fill:none;stroke:#000000;stroke-width:2;stroke-miterlimit:10;}
	.st4{fill:#E0E0E0;}
	.st5{fill:#F4F4F4;}
	.st6{fill:#00A99E;}
</style>
<g>
	<ellipse class="st0" cx="81.3" cy="139.3" rx="44.4" ry="7.9"/>
	<g>
		<path class="st1" d="M164.9,71h-25.2c-14.7-4.8-34.7-7.7-56.8-7.7s-42,2.9-56.8,7.7H0.9l0,19.8c0,0.1,0,0.1,0,0.2
			c0,0.1,0,0.1,0,0.2v0.2l0,0c0.6,15.1,37,27.4,82,27.4c45.3,0,82-12.4,82-27.7c0-1.6,0.2-3.4,0-5.5l0,0V71z"/>
		<ellipse class="st2" cx="82.9" cy="71" rx="82" ry="27.7"/>
		<ellipse class="st3" cx="82.9" cy="71.3" rx="59.3" ry="19.1"/>
	</g>
</g>
<ellipse class="st4" cx="83" cy="70.9" rx="35.6" ry="2.8"/>
<g>
	<rect x="52.5" y="2.9" class="st5" width="55.2" height="32.3"/>
	<g>
		<path class="st6" d="M91,44.1h-1.3c-4.1-0.9-3.5-5.2-3.5-5.2H74.1c0.3,5-3.8,5.2-3.8,5.2h-1.5c-0.6,0-1,0.5-1,1v0.2
			c0,0.6,0.5,1,1,1H91c0.6,0,1-0.5,1-1v-0.2C92,44.5,91.6,44.1,91,44.1z"/>
	</g>
	<path class="st6" d="M89.9,34.2H53.3V3.8h53.2v15.1c1,0.8,2.3,1.4,3.6,1.9V3c0-1.5-1.2-2.7-2.7-2.7h-55c-1.5,0-2.7,1.2-2.7,2.7v32
		c0,1.5,1.2,2.7,2.7,2.7h37.8C90,36.5,89.9,35.3,89.9,34.2z"/>
	<path class="st6" d="M114.2,24.1c-4.3,0-8.1-1.7-9.9-4.1c-1.8,2.4-5.5,4.1-9.9,4.1c-0.7,0-1.3,0-2-0.1v6.8c0,0-0.3,8.2,1.9,11.1
		c2.2,2.9,3.5,4.2,9.8,6.4v0c0,0,0,0,0,0c0,0,0,0,0,0v0c2.9-0.5,7.5-3,9.7-6c2.2-2.9,2.3-11.6,2.3-11.6V24
		C115.6,24.1,114.9,24.1,114.2,24.1z"/>
	<path class="st2" d="M110,42.6c-3.4,2.1-5.6,2.7-5.6,2.7V34.6h-9.1l-0.2-7.8c4.6,0.3,9.3-3,9.3-3v10.8h9.1
		C113.4,34.6,113.4,40.6,110,42.6z"/>
	<g>
		<rect x="60.9" y="24.7" class="st6" width="2.7" height="5.9"/>
	</g>
	<g>
		<rect x="65.8" y="23" class="st6" width="2.7" height="7.6"/>
	</g>
	<g>
		<rect x="71.1" y="24.2" class="st6" width="2.7" height="6.4"/>
	</g>
	<g>
		<rect x="76.5" y="20.7" class="st6" width="2.7" height="9.9"/>
	</g>
	<g>
		<rect x="81.4" y="22.6" class="st6" width="2.7" height="8"/>
	</g>
	<g>
		<rect x="86.6" y="20.1" class="st6" width="3" height="10.5"/>
	</g>
	<g>
		<path class="st6" d="M61.6,20.7c-0.5,0-0.9-0.2-1.2-0.5c-0.3-0.5-0.1-1.1,0.5-1.4l16.7-7.5c0.1,0,0.2,0,0.3,0l5,4
			c0.1,0.1,0.2,0.1,0.3,0l14.2-6.7c0.6-0.3,1.3-0.1,1.6,0.4c0.3,0.5,0.1,1.1-0.5,1.4l-15.8,7.4c-0.1,0-0.2,0-0.3,0l-5-4.1
			c-0.1-0.1-0.2-0.1-0.3,0l-15.2,6.8C62,20.6,61.8,20.7,61.6,20.7z"/>
	</g>
	<g>
		<g>
			<path class="st6" d="M96.8,16.3l-0.3-0.1c-0.3-0.1-0.5-0.4-0.4-0.7l1.7-5.2c0.2-0.5-0.1-1-0.6-1.1L92,7.8
				c-0.3-0.1-0.5-0.4-0.4-0.7l0.1-0.3c0.1-0.3,0.4-0.5,0.7-0.4l6.8,1.7c0.5,0.1,0.8,0.6,0.6,1.1l-2.2,6.7
				C97.4,16.2,97.1,16.4,96.8,16.3z"/>
			<path class="st6" d="M97,16.7c-0.1,0-0.2,0-0.4,0l0,0l-0.3-0.1c-0.2-0.1-0.4-0.2-0.5-0.5c-0.1-0.2-0.1-0.5,0-0.7l1.8-5.5
				c0-0.1,0-0.1,0-0.1c0,0,0-0.1-0.1-0.1l-5.6-1.4c-0.2-0.1-0.4-0.2-0.6-0.4c-0.1-0.2-0.2-0.5-0.1-0.7v0C91.4,6.4,92,6,92.7,6.2
				l6.8,1.7c0.3,0.1,0.5,0.2,0.6,0.5c0.1,0.2,0.1,0.5,0.1,0.7l-2.3,7C97.7,16.4,97.4,16.7,97,16.7z M96.9,15.9c0.1,0,0.2,0,0.2-0.1
				l2.3-7c0-0.1,0-0.1,0-0.1c0,0,0-0.1-0.1-0.1l-7.1-1.8c-0.1,0-0.2,0-0.2,0.1l-0.1,0.3c0,0.1,0,0.1,0,0.1c0,0,0,0.1,0.1,0.1
				l5.6,1.4c0.3,0.1,0.5,0.2,0.6,0.5c0.1,0.2,0.1,0.5,0.1,0.7l-1.8,5.5c0,0.1,0,0.1,0,0.1c0,0,0,0.1,0.1,0.1L96.9,15.9z"/>
		</g>
	</g>
	<path class="st6" d="M94.5,22.9c0.4,0,0.8,0,1.2,0v-3.4h-3v3.3C93.3,22.8,93.9,22.9,94.5,22.9z"/>
</g>
</svg>
