<?xml version="1.0" encoding="utf-8"?>
<!-- Generator: Adobe Illustrator 22.1.0, SVG Export Plug-In . SVG Version: 6.00 Build 0)  -->
<svg version="1.1" id="图层_1" xmlns="http://www.w3.org/2000/svg" xmlns:xlink="http://www.w3.org/1999/xlink" x="0px" y="0px"
	 viewBox="0 0 165 147" style="enable-background:new 0 0 165 147;" xml:space="preserve">
<style type="text/css">
	.st0{fill:#F2F2F2;}
	.st1{fill:#D2D1CF;}
	.st2{fill:#ECEDED;}
	.st3{fill:none;stroke:#000000;stroke-width:2;stroke-miterlimit:10;}
	.st4{fill:#00A99E;}
	.st5{fill:#E0E0E0;}
</style>
<g>
	<ellipse class="st0" cx="80.8" cy="139.1" rx="44.4" ry="7.9"/>
	<g>
		<path class="st1" d="M164.4,70.8h-25.2c-14.7-4.8-34.7-7.7-56.8-7.7s-42,2.9-56.8,7.7H0.5l0,19.8c0,0.1,0,0.1,0,0.2
			c0,0.1,0,0.1,0,0.2v0.2l0,0c0.6,15.1,37,27.4,82,27.4c45.3,0,82-12.4,82-27.7c0-1.6,0.2-3.4,0-5.5l0,0V70.8z"/>
		<ellipse class="st2" cx="82.4" cy="70.8" rx="82" ry="27.7"/>
		<ellipse class="st3" cx="82.4" cy="71.1" rx="59.3" ry="19.1"/>
	</g>
</g>
<g>
	<path class="st4" d="M72.8,26.7c1.3-1.6,1.2-3.9-0.3-5.4c-1.6-1.6-4.2-1.6-5.8,0c-1.5,1.5-1.6,3.8-0.3,5.4H60v19.4h19.4V40
		c-1.6,1.1-3.8,0.9-5.2-0.5c-1.6-1.6-1.6-4.2,0-5.8c1.4-1.4,3.6-1.6,5.2-0.5v-6.6H72.8z"/>
	<path class="st4" d="M79.4,13.1c1.6,1.3,3.9,1.2,5.4-0.3c1.6-1.6,1.6-4.2,0-5.8c-1.5-1.5-3.8-1.6-5.4-0.3V0.3H60v19.4h6.1
		c-1.1-1.6-0.9-3.8,0.5-5.2c1.6-1.6,4.2-1.6,5.8,0c1.4,1.4,1.6,3.6,0.5,5.2h6.6V13.1z"/>
	<path class="st4" d="M92.2,19.7c-1.3,1.6-1.2,3.9,0.3,5.4c1.6,1.6,4.2,1.6,5.8,0c1.5-1.5,1.6-3.8,0.3-5.4h6.3V0.3H85.6v6.1
		c1.6-1.1,3.8-0.9,5.2,0.5c1.6,1.6,1.6,4.2,0,5.8c-1.4,1.4-3.6,1.6-5.2,0.5v6.6H92.2z"/>
	<path class="st4" d="M85.6,33.3c-1.6-1.3-3.9-1.2-5.4,0.3c-1.6,1.6-1.6,4.2,0,5.8c1.5,1.5,3.8,1.6,5.4,0.3v6.3H105V26.6h-6.1
		c1.1,1.6,0.9,3.8-0.5,5.2c-1.6,1.6-4.2,1.6-5.8,0c-1.4-1.4-1.6-3.6-0.5-5.2h-6.6V33.3z"/>
</g>
<ellipse class="st5" cx="82.4" cy="70.6" rx="29.8" ry="2.8"/>
</svg>
