<?xml version="1.0" encoding="utf-8"?>
<!-- Generator: Adobe Illustrator 22.1.0, SVG Export Plug-In . SVG Version: 6.00 Build 0)  -->
<svg version="1.1" id="图层_1" xmlns="http://www.w3.org/2000/svg" xmlns:xlink="http://www.w3.org/1999/xlink" x="0px" y="0px"
	 viewBox="0 0 165 147" style="enable-background:new 0 0 165 147;" xml:space="preserve">
<style type="text/css">
	.st0{fill:#F2F2F2;}
	.st1{fill:#D2D1CF;}
	.st2{fill:#ECEDED;}
	.st3{fill:none;stroke:#000000;stroke-width:2;stroke-miterlimit:10;}
	.st4{fill:#00A99E;}
	.st5{fill:#E0E0E0;}
	.st6{fill:#00A99E;stroke:#00A99E;stroke-miterlimit:10;}
</style>
<g>
	<ellipse class="st0" cx="80.6" cy="139.2" rx="44.4" ry="7.9"/>
	<g>
		<path class="st1" d="M164.2,70.9H139c-14.7-4.8-34.7-7.7-56.8-7.7s-42,2.9-56.8,7.7H0.2v19.8c0,0.1,0,0.1,0,0.2s0,0.1,0,0.2v0.2
			l0,0c0.6,15.1,37,27.4,82,27.4c45.3,0,82-12.4,82-27.7c0-1.6,0.2-3.4,0-5.5l0,0V70.9z"/>
		<ellipse class="st2" cx="82.2" cy="70.9" rx="82" ry="27.7"/>
		<ellipse class="st3" cx="82.2" cy="71.1" rx="59.3" ry="19.1"/>
	</g>
</g>
<g>
	<g>
		<g>
			<path class="st4" d="M103.8,40.3c-1.7,0-3.3-0.8-4.2-2.2l-2.5-3.6c-2.9,5.3-8.5,8.7-14.8,8.7c-8.8,0-16.1-6.7-16.9-15.3H67
				c0.6,0,1.2-0.3,1.5-0.9s0.3-1.2-0.1-1.8l-2.5-3.6L62.2,16c-0.3-0.5-0.8-0.7-1.4-0.7c-0.1,0-0.1,0-0.2,0c-0.1,0-0.1,0-0.2,0
				c-0.2,0-0.3,0.1-0.5,0.2c-0.2,0.1-0.4,0.3-0.5,0.5l-6.2,9.1c-0.4,0.5-0.4,1.2-0.1,1.8s0.9,0.9,1.5,0.9h1.8
				c0.4,6.3,3.1,12.2,7.6,16.7c4.9,4.9,11.5,7.6,18.4,7.6c7,0,13.5-2.7,18.4-7.6c1.3-1.3,2.5-2.7,3.5-4.3
				C104.1,40.2,104,40.3,103.8,40.3z"/>
		</g>
	</g>
	<g>
		<g>
			<path class="st4" d="M111.6,25.3c-0.3-0.6-0.9-0.9-1.5-0.9h-1.8c-0.4-6.3-3.1-12.2-7.6-16.7C95.8,2.7,89.3,0,82.3,0
				S68.8,2.7,63.9,7.6c-1.3,1.3-2.5,2.7-3.5,4.3c0.1,0,0.2,0,0.4,0c1.7,0,3.3,0.8,4.2,2.2l2.5,3.6C70.4,12.4,76,9,82.3,9
				c8.8,0,16.1,6.7,16.9,15.3h-1.6c-0.6,0-1.2,0.3-1.5,0.9s-0.3,1.2,0.1,1.8l2.5,3.6l3.8,5.5c0.1,0.1,0.2,0.2,0.3,0.3
				c0.3,0.3,0.7,0.4,1.1,0.4c0.6,0,1.1-0.3,1.4-0.7l2.3-3.3l4-5.8C111.8,26.5,111.9,25.8,111.6,25.3z"/>
		</g>
	</g>
</g>
<ellipse class="st5" cx="82.2" cy="70.8" rx="29.8" ry="2.8"/>
<g>
	<path class="st6" d="M75.4,36.1V33c1.9-0.5,2.8-1.7,2.8-3.6v-1.7h-2.6v-2.9h2.6v-2.6c0-1.8,0.6-3.3,1.7-4.4s2.7-1.7,4.6-1.7
		c1,0,2.1,0.2,3.1,0.6c0.1,0.1,0.2,0.2,0.2,0.3v2.7c0,0.3-0.3,0.4-0.5,0.3c-0.8-0.4-1.6-0.6-2.5-0.6c-1.8,0-2.8,1.1-2.8,3.2v2.3h3.9
		v2.9h-3.9v1.2c0,1.7-0.7,3-2,3.9h9.1v3.2H75.4z"/>
</g>
</svg>
