<?xml version="1.0" encoding="utf-8"?>
<!-- Generator: Adobe Illustrator 22.0.0, SVG Export Plug-In . SVG Version: 6.00 Build 0)  -->
<svg version="1.1" id="图层_1" xmlns="http://www.w3.org/2000/svg" xmlns:xlink="http://www.w3.org/1999/xlink" x="0px" y="0px"
	 viewBox="0 0 519.9 376.2" style="enable-background:new 0 0 519.9 376.2;" xml:space="preserve">
<style type="text/css">
	.st0{fill:#0EAFA0;}
	.st1{fill:#FFFFFF;}
	.st2{fill:#CDBB78;}
	.st3{fill:none;stroke:#000000;stroke-width:0.707;stroke-miterlimit:10;}
	.st4{fill:#878787;}
	.st5{fill:#21B3A8;}
	.st6{font-family:'MicrosoftYaHei';}
	.st7{font-size:9.9px;}
	.st8{font-size:9px;}
	.st9{font-size:8px;}
	.st10{fill:none;stroke:#000000;stroke-width:0.5;}
	.st11{font-family:'STSongti-TC-Bold';}
	.st12{font-size:42.9853px;}
	.st13{fill:none;stroke:#21B3A8;stroke-width:2;}
</style>
<g>
	<path class="st0" d="M242.3,24.8c0-12.7,10.3-23,23-23c12.7,0,23,10.3,23,23c0,6.8-3,13-7.7,17.2c-0.3-0.2-0.5-0.3-0.8-0.5
		l-7.6-3.8c-0.7-0.3-1.1-1-1.1-1.8v-2.7c0.2-0.2,0.4-0.5,0.6-0.7c1-1.4,1.8-3,2.4-4.6c1.1-0.5,1.9-1.7,1.9-3v-3.2
		c0-0.8-0.3-1.5-0.8-2.1v-4.2c0-0.5,0.2-3.1-1.7-5.3c-1.7-1.9-4.4-2.9-8-2.9c-3.6,0-6.3,1-8,2.9c-1.9,2.2-1.7,4.8-1.7,5.3v4.2
		c-0.5,0.6-0.8,1.4-0.8,2.1v3.2c0,1,0.4,1.9,1.2,2.5c0.7,2.9,2.2,5,2.8,5.8v2.6c0,0.7-0.4,1.4-1,1.8l-7.1,3.9
		c-0.2,0.1-0.5,0.3-0.7,0.4C245.2,37.7,242.3,31.6,242.3,24.8 M290.1,24.8C290.1,11.1,279,0,265.3,0c-13.7,0-24.8,11.1-24.8,24.8
		c0,7.2,3.1,13.7,8.1,18.3l0,0l0.8,0.7c0.1,0,0.1,0.1,0.2,0.1c0.4,0.4,0.9,0.7,1.3,1c0.1,0.1,0.3,0.2,0.4,0.3c0.5,0.3,1,0.6,1.5,0.9
		c0.1,0.1,0.2,0.1,0.3,0.2c0.6,0.3,1.1,0.6,1.7,0.9c0,0,0.1,0,0.1,0.1c1.9,0.9,3.9,1.5,6,1.9c0.1,0,0.1,0,0.2,0
		c0.7,0.1,1.3,0.2,2,0.3c0.1,0,0.2,0,0.2,0c0.7,0.1,1.3,0.1,2,0.1c0.7,0,1.3,0,2-0.1c0.1,0,0.2,0,0.3,0c0.7-0.1,1.3-0.1,2-0.3
		c0.1,0,0.1,0,0.2,0c2.1-0.4,4.1-1,5.9-1.9c0.1,0,0.1-0.1,0.2-0.1c0.6-0.3,1.1-0.5,1.6-0.8c0.1-0.1,0.3-0.1,0.4-0.2
		c0.5-0.3,1-0.6,1.4-0.9c0.2-0.1,0.3-0.2,0.5-0.4c0.4-0.3,0.8-0.6,1.2-0.9c0.1-0.1,0.2-0.1,0.3-0.2l0.8-0.7l0,0
		C287,38.6,290.1,32.1,290.1,24.8"/>
	<path class="st1" d="M255.7,39.9c-0.2,5.6-4.9,9.9-10.4,9.7c-5.6-0.2-9.9-4.9-9.7-10.4c0.2-5.6,4.9-9.9,10.4-9.7
		C251.5,29.6,255.9,34.3,255.7,39.9"/>
	<path class="st2" d="M253.2,31.9c-2-2-4.7-3.1-7.6-3.1c-2.9,0-5.6,1.1-7.6,3.1c-2,2-3.1,4.7-3.1,7.6c0,2.9,1.1,5.6,3.1,7.6
		c2,2,4.7,3.1,7.6,3.1c2.9,0,5.6-1.1,7.6-3.1c2-2,3.1-4.7,3.1-7.6C256.3,36.7,255.2,34,253.2,31.9 M245.6,49c-5.2,0-9.5-4.2-9.5-9.5
		c0-5.2,4.2-9.5,9.5-9.5c5.2,0,9.5,4.2,9.5,9.5C255.1,44.7,250.8,49,245.6,49"/>
	<path class="st2" d="M246.3,38.9H245c-0.8,0-1.4-0.6-1.4-1.4c0-0.8,0.6-1.4,1.4-1.4h2.7c0.3,0,0.6-0.3,0.6-0.6
		c0-0.3-0.3-0.6-0.6-0.6h-1.4v-1.4c0-0.3-0.3-0.6-0.6-0.6c-0.3,0-0.6,0.3-0.6,0.6v1.4h0c-1.5,0-2.6,1.2-2.6,2.6
		c0,1.5,1.2,2.6,2.6,2.6h1.3c0.8,0,1.4,0.6,1.4,1.4s-0.6,1.4-1.4,1.4h-2.7c-0.3,0-0.6,0.3-0.6,0.6c0,0.3,0.3,0.6,0.6,0.6h1.4v1.4
		c0,0.3,0.3,0.6,0.6,0.6c0.3,0,0.6-0.3,0.6-0.6v-1.4h0c1.5,0,2.6-1.2,2.6-2.6C248.9,40.1,247.8,38.9,246.3,38.9"/>
</g>
<rect x="188.2" y="111.7" class="st0" width="155.2" height="50.2"/>
<path class="st3" d="M252.5,196l-3.9-3.9 M252.5,196l3.9-3.9 M252.5,196v-28.2 M278.2,167.8l3.9,3.9 M278.3,167.8l-3.9,3.9
	 M278.3,167.8V196 M224.7,75.5l3.9,3.9 M224.8,75.5l-3.9,3.9 M304.7,75.9l3.9,3.9 M304.7,75.9l-3.9,3.9 M304.7,75.9v28.2
	 M224.8,104.1l-3.9-3.9 M224.8,104.1l3.9-3.9"/>
<polygon class="st2" points="253.4,251.3 252.1,251.3 252.1,205.5 236.6,219.7 236.6,251.3 235.3,251.3 235.3,219.1 253.4,202.5 "/>
<polygon class="st2" points="235.5,221.8 252.8,206.8 236.4,222.8 "/>
<polygon class="st2" points="235.5,224.3 252.8,211 236.3,225.3 "/>
<polygon class="st2" points="235.5,226.8 252.8,215 236.3,227.9 "/>
<polygon class="st2" points="235.5,229.4 252.8,218.7 236.3,230.4 "/>
<polygon class="st2" points="235.6,231.9 252.8,223 236.2,233 "/>
<polygon class="st2" points="235.6,234.4 252.8,226.7 236.2,235.6 "/>
<polygon class="st2" points="235.7,236.9 252.8,230.4 236.2,238.1 "/>
<polygon class="st2" points="235.7,239.4 252.8,234.4 236.1,240.7 "/>
<polygon class="st2" points="235.8,242 252.8,238.5 236.1,243.2 "/>
<polygon class="st2" points="235.8,244.5 252.8,242 236,245.8 "/>
<polygon class="st2" points="235.8,247 252.8,246 236,248.3 "/>
<polygon class="st2" points="235.9,249.6 252.8,249.1 236,250.9 "/>
<polygon class="st2" points="267.8,251.3 266.5,251.3 266.5,225.1 253.8,213.5 253.8,251.3 252.5,251.3 252.5,210.5 267.8,224.5 "/>
<polygon class="st2" points="266.7,227.7 253.2,214.3 267.6,226.7 "/>
<polygon class="st2" points="266.7,229.8 253.2,217.9 267.6,228.8 "/>
<polygon class="st2" points="266.8,232 253.2,221.2 267.6,230.9 "/>
<polygon class="st2" points="266.8,234.1 253.2,224.3 267.5,233 "/>
<polygon class="st2" points="266.8,236.2 253.2,227.8 267.5,235.1 "/>
<polygon class="st2" points="266.9,238.3 253.2,230.9 267.5,237.2 "/>
<polygon class="st2" points="266.9,240.5 253.2,234 267.4,239.3 "/>
<polygon class="st2" points="267,242.6 253.2,237.3 267.4,241.4 "/>
<polygon class="st2" points="267,244.7 253.2,240.6 267.3,243.4 "/>
<polygon class="st2" points="267,246.8 253.2,243.6 267.3,245.5 "/>
<polygon class="st2" points="267.1,248.9 253.2,246.9 267.2,247.6 "/>
<polygon class="st2" points="267.1,251.1 253.2,249.1 267.2,249.8 "/>
<rect x="230.6" y="250.3" class="st2" width="41.8" height="1.3"/>
<g>
	<path class="st1" d="M300.9,230.1c0,12.1-9.8,21.9-21.9,21.9c-12.1,0-21.9-9.8-21.9-21.9c0-12.1,9.8-21.9,21.9-21.9
		C291.1,208.2,300.9,218,300.9,230.1"/>
	<path class="st2" d="M258.3,230.3c0-11.6,9.4-21,21-21c11.6,0,21,9.4,21,21c0,6.2-2.7,11.9-7.1,15.7c-0.2-0.2-0.5-0.3-0.7-0.4
		l-7-3.5c-0.6-0.3-1-0.9-1-1.6V238c0.2-0.2,0.3-0.4,0.5-0.7c0.9-1.3,1.6-2.7,2.2-4.2c1-0.5,1.7-1.5,1.7-2.7v-2.9
		c0-0.7-0.3-1.4-0.7-2v-3.8c0-0.4,0.2-2.8-1.6-4.8c-1.5-1.7-4-2.6-7.3-2.6c-3.3,0-5.8,0.9-7.3,2.6c-1.7,2-1.6,4.4-1.6,4.8v3.8
		c-0.5,0.5-0.7,1.2-0.7,2v2.9c0,0.9,0.4,1.8,1.1,2.3c0.7,2.6,2,4.6,2.5,5.3v2.4c0,0.7-0.4,1.3-1,1.6l-6.5,3.6
		c-0.2,0.1-0.4,0.2-0.6,0.4C260.9,242.1,258.3,236.5,258.3,230.3 M301.9,230.3c0-12.5-10.2-22.6-22.6-22.6
		c-12.5,0-22.6,10.2-22.6,22.6c0,6.6,2.8,12.5,7.4,16.7l0,0l0.7,0.6c0,0,0.1,0.1,0.1,0.1c0.4,0.3,0.8,0.6,1.2,0.9
		c0.1,0.1,0.3,0.2,0.4,0.3c0.4,0.3,0.9,0.6,1.4,0.9c0.1,0.1,0.2,0.1,0.3,0.2c0.5,0.3,1,0.6,1.5,0.8c0,0,0.1,0,0.1,0.1
		c1.7,0.8,3.6,1.4,5.5,1.7c0.1,0,0.1,0,0.2,0c0.6,0.1,1.2,0.2,1.8,0.2c0.1,0,0.2,0,0.2,0c0.6,0,1.2,0.1,1.8,0.1c0.6,0,1.2,0,1.8-0.1
		c0.1,0,0.2,0,0.2,0c0.6-0.1,1.2-0.1,1.8-0.2c0.1,0,0.1,0,0.2,0c1.9-0.3,3.7-0.9,5.4-1.7c0.1,0,0.1-0.1,0.2-0.1
		c0.5-0.2,1-0.5,1.5-0.8c0.1-0.1,0.2-0.1,0.4-0.2c0.4-0.3,0.9-0.5,1.3-0.8c0.2-0.1,0.3-0.2,0.5-0.3c0.4-0.3,0.7-0.5,1.1-0.8
		c0.1-0.1,0.2-0.1,0.2-0.2l0.8-0.6l0,0C299,242.9,301.9,236.9,301.9,230.3"/>
</g>
<path class="st3" d="M255.1,312.1l-3.9-3.9 M255,312.1l3.9-3.9 M255,312.1v-28.2 M278.1,283.9l3.9,3.9 M278.1,283.9l-3.9,3.9
	 M278.1,283.9v28.2"/>
<path class="st4" d="M243.8,374.8h7.9V331l-7.9,4.8V374.8z M252.4,376.2h-9.4l-0.7-0.7v-40.1l0.4-0.6l9.4-5.7l1.1,0.6v45.7
	L252.4,376.2z"/>
<polygon class="st4" points="245.1,349.6 250.4,347.6 250.4,349.3 245.1,351.3 "/>
<polygon class="st4" points="245.1,345.1 250.4,342.7 250.4,344.4 245.1,346.8 "/>
<polygon class="st4" points="245.1,340.6 250.4,337.8 250.4,339.5 245.1,342.3 "/>
<polygon class="st4" points="245.1,336.1 250.4,332.9 250.4,334.6 245.1,337.8 "/>
<path class="st4" d="M253.2,374.8h4.5v-43.4l-4.5-0.8V374.8z M258.3,376.2h-5.9l-0.7-0.7v-45.7l0.9-0.7l5.9,1l0.6,0.7v44.7
	L258.3,376.2z"/>
<path class="st4" d="M283.6,374.8h7.9v-38.9l-7.9-4.8V374.8z M292.2,376.2h-9.4l-0.7-0.7v-45.7l1.1-0.6l9.4,5.7l0.4,0.6v40.1
	L292.2,376.2z"/>
<polygon class="st4" points="290.1,349.6 284.8,347.6 284.8,349.3 290.1,351.3 "/>
<polygon class="st4" points="290.1,345.1 284.8,342.7 284.8,344.4 290.1,346.8 "/>
<polygon class="st4" points="290.1,340.6 284.8,337.8 284.8,339.5 290.1,342.3 "/>
<polygon class="st4" points="290.1,336.1 284.8,332.9 284.8,334.6 290.1,337.8 "/>
<path class="st4" d="M277.6,374.8h4.4v-44.1l-4.4,0.8V374.8z M282.8,376.2h-5.9l-0.7-0.7v-44.7l0.6-0.7l5.9-1l0.9,0.7v45.7
	L282.8,376.2z"/>
<path class="st4" d="M259.1,374.8h17V322l-8.5-4.5l-8.5,4.5V374.8z M276.8,376.2h-18.4l-0.7-0.7v-54l0.4-0.6l9.2-4.9h0.7l9.2,4.9
	l0.4,0.6v54L276.8,376.2z"/>
<rect x="258.1" y="321.4" transform="matrix(0.8813 -0.4726 0.4726 0.8813 -121.0216 162.6128)" class="st4" width="10" height="1.5"/>
<polygon class="st4" points="259,328.7 258.4,327.4 267.2,323 267.9,324.3 "/>
<polygon class="st4" points="259,332.2 258.4,330.8 267.3,326.8 267.9,328.1 "/>
<polygon class="st4" points="258.9,335.7 258.4,334.3 267.3,330.6 267.9,332 "/>
<polygon class="st4" points="258.9,339.2 258.4,337.8 267.4,334.4 267.9,335.8 "/>
<polygon class="st4" points="258.8,342.7 258.4,341.3 267.4,338.3 267.9,339.6 "/>
<polygon class="st4" points="258.8,346.2 258.4,344.8 267.5,342.1 267.9,343.5 "/>
<polygon class="st4" points="258.7,349.7 258.4,348.3 267.6,345.9 267.9,347.3 "/>
<polygon class="st4" points="258.6,353.2 258.4,351.8 267.6,349.7 267.9,351.1 "/>
<rect x="266.9" y="316.1" class="st4" width="1.5" height="60.1"/>
<text transform="matrix(1 0 0 1 220.1475 63.0843)" class="st5 st6 st7">投资人 (代币持有人)</text>
<text transform="matrix(1 0 0 1 228.3145 134.302)" class="st1 st6 st8">HouseToken LTD </text>
<text transform="matrix(1 0 0 1 234.9312 145.1028)" class="st1 st6 st8">(开曼有限公司)</text>
<text transform="matrix(1 0 0 1 208.5655 263.9368)" class="st5 st6 st8">HouseToken全球房地产基金</text>
<text transform="matrix(1 0 0 1 228.9185 274.7366)" class="st5 st6 st8">(卢森堡 AIFM基金)</text>
<text transform="matrix(1 0 0 1 59.1104 46.72)" class="st6 st9">投资者通过HouseToken </text>
<text transform="matrix(1 0 0 1 59.1104 56.3206)" class="st6 st9">LTD</text>
<text transform="matrix(1 0 0 1 73.8941 56.3206)" class="st6 st9">（</text>
<text transform="matrix(1 0 0 1 81.8941 56.3206)" class="st6 st9">开曼有限公司</text>
<text transform="matrix(1 0 0 1 129.8946 56.3206)" class="st6 st9">）</text>
<text transform="matrix(1 0 0 1 137.8946 56.3206)" class="st6 st9">使用法定</text>
<text transform="matrix(1 0 0 1 59.1104 66.512)" class="st6 st9">货币认购HoT，并收到HoT作为</text>
<text transform="matrix(1 0 0 1 59.1104 76.4085)" class="st6 st9">回报。</text>
<text transform="matrix(1 0 0 1 59.1104 150.3196)" class="st6 st9">HouseToken LTD（</text>
<text transform="matrix(1 0 0 1 132.2042 150.3196)" class="st6 st9">开曼有限</text>
<text transform="matrix(1 0 0 1 59.1104 161.7747)" class="st6 st9">公司</text>
<text transform="matrix(1 0 0 1 75.1104 161.7747)" class="st6 st9">）认购Ho useToken全球房</text>
<text transform="matrix(1 0 0 1 59.1104 174.052)" class="st6 st9">地产基金（卢森堡AIFM基</text>
<text transform="matrix(1 0 0 1 59.1104 185.5071)" class="st6 st9">金），由伦敦和牛津集团</text>
<text transform="matrix(1 0 0 1 59.1104 196.9622)" class="st6 st9">（FCA）管理。</text>
<text transform="matrix(1 0 0 1 59.1104 262.968)" class="st6 st9">AIFM基金投资于优质的商业房</text>
<text transform="matrix(1 0 0 1 59.1104 272.8645)" class="st6 st9">地产，其目标是击败基准回报。</text>
<text transform="matrix(1 0 0 1 379.834 39.4563)" class="st6 st9">100％的净收入按月分配</text>
<text transform="matrix(1 0 0 1 377.9678 49.3528)" class="st6 st9">给HouseToken持有人作</text>
<text transform="matrix(1 0 0 1 433.9083 59.2483)" class="st6 st9">为股息。 </text>
<text transform="matrix(1 0 0 1 388.0655 147.0999)" class="st6 st9">收益的100％进一步从</text>
<text transform="matrix(1 0 0 1 406.0928 158.1595)" class="st6 st9">AIFM基金分配给 </text>
<text transform="matrix(1 0 0 1 393.045 169.218)" class="st6 st9">HouseToken LTD。</text>
<text transform="matrix(1 0 0 1 361.9073 259.8245)" class="st6 st9">由实物资产产生的净租金收入</text>
<text transform="matrix(1 0 0 1 367.7862 269.72)" class="st6 st9">将100％转移到AIFM基金。</text>
<line class="st10" x1="224.7" y1="75.8" x2="224.8" y2="104.2"/>
<text transform="matrix(1 0 0 1 15.7969 69.4182)" class="st5 st11 st12">1</text>
<text transform="matrix(1 0 0 1 484.5948 277.6389)" class="st5 st11 st12">4</text>
<text transform="matrix(1 0 0 1 483.9073 171.4661)" class="st5 st11 st12">5</text>
<text transform="matrix(1 0 0 1 483.3917 62.2405)" class="st5 st11 st12">6</text>
<text transform="matrix(1 0 0 1 12.3155 181.094)" class="st5 st11 st12">2</text>
<text transform="matrix(1 0 0 1 13.7339 278.1555)" class="st5 st11 st12">3</text>
<g>
	<circle class="st13" cx="26.4" cy="54.6" r="22.2"/>
	<circle class="st13" cx="23.2" cy="165.8" r="22.2"/>
	<circle class="st13" cx="25" cy="262.6" r="22.2"/>
	
		<ellipse transform="matrix(0.9848 -0.1735 0.1735 0.9848 -37.9722 90.1659)" class="st13" cx="496.8" cy="262.3" rx="22.2" ry="22.2"/>
	
		<ellipse transform="matrix(0.9848 -0.1735 0.1735 0.9848 -19.4347 88.2603)" class="st13" cx="495.1" cy="155.3" rx="22.2" ry="22.2"/>
	
		<ellipse transform="matrix(0.982 -0.1891 0.1891 0.982 1.885030e-02 94.4818)" class="st13" cx="495.1" cy="47.1" rx="22.2" ry="22.2"/>
</g>
</svg>
