<?xml version="1.0" encoding="utf-8"?>
<!-- Generator: Adobe Illustrator 23.0.0, SVG Export Plug-In . SVG Version: 6.00 Build 0)  -->
<svg version="1.1" id="图层_1" xmlns="http://www.w3.org/2000/svg" xmlns:xlink="http://www.w3.org/1999/xlink" x="0px" y="0px"
	 viewBox="0 0 30 20" style="enable-background:new 0 0 30 20;" xml:space="preserve">
<style type="text/css">
	.st0{fill:#353636;}
	.st1{fill:#009945;}
	.st2{fill:#FFFFFF;}
</style>
<path class="st0" d="M0.13,20.13h29.73V-0.13H0.13V20.13z M29.92,20.21v-0.08V20.21z M0.01,20.26V-0.26h29.98v20.52H0.01L0.01,20.26
	z"/>
<path class="st1" d="M0.07-0.2h29.85v20.4H0.07V-0.2z"/>
<path class="st2" d="M11.85,6.23H11.8l-0.15,0.2l-0.07,0.28l0.12,0.18l0.2-0.05l0.15-0.28L11.9,6.68l-0.15,0.03L11.7,6.56
	L11.85,6.23L11.85,6.23z M8.09,5.12v0.3L8.04,5.55C8.11,5.42,8.19,5.3,8.21,5.17L8.16,4.92L8.02,4.97L7.94,5.12L8.09,5.12L8.09,5.12
	z M11.93,5.32L12,5.22l-0.02,0.2h-0.02L11.93,5.32L11.93,5.32z M12,5.73C11.83,6,11.56,6.18,11.29,6.33l-0.25,0.08V6.36l0.2-0.15
	c0.22-0.18,0.44-0.35,0.61-0.61c-0.12-0.1-0.12-0.28-0.07-0.4L11.95,5l0.22,0.03l0.05,0.25l-0.07,0.25l0.02,0.13L12,5.73L12,5.73z
	 M9.44,5.32l0.17-0.08l0.07,0.08h0.1L9.86,5.2L9.81,5.07l-0.1,0.15L9.64,5H9.61L9.49,5.2H9.42L9.39,5.02L9.37,4.97H9.34l-0.02,0.2
	L9.44,5.32L9.44,5.32z M7.92,7.11l-0.2-0.15c-0.15-0.28-0.2-0.61-0.2-0.91c0-0.15,0.02-0.28,0.07-0.43h0.05v0.4
	c0.02,0.2,0.05,0.38,0.1,0.55l0.12,0.15l0.1-0.08c0.1-0.23,0.07-0.45,0.12-0.68c0.05-0.15,0.1-0.28,0.2-0.4l0.17-0.15l0.12,0.1
	L8.56,5.75L8.48,6.08l0.02,0.28l0.02,0.1l0.15,0.25l0.15,0.05C8.8,6.58,8.8,6.43,8.78,6.28c-0.02-0.15-0.02-0.3-0.02-0.45
	c-0.02-0.15-0.07-0.28-0.07-0.4V5.2L8.8,5l0.12,0.15C9,5.27,9.07,5.42,9.07,5.58l-0.1,0.1l0.07,0.76l0.02,0.15v0.13l0.2-0.35
	C9.25,6.18,9.2,5.98,9.17,5.8C9.12,5.65,9.15,5.5,9.2,5.37l0.05-0.03c0.15,0.13,0.22,0.33,0.17,0.5c-0.02,0.2,0.02,0.38,0.07,0.58
	l0.12,0.2l0.27,0.05l0.07-0.13c-0.02-0.23-0.1-0.48-0.17-0.71L9.71,5.6l0.07-0.13l0.12-0.13l0.17,0.18l0.1,0.15V5.8l-0.12,0.03
	c0.05,0.2,0.1,0.38,0.12,0.58c0,0.15,0.02,0.33-0.07,0.45l-0.3,0.2l-0.34-0.1l-0.1-0.25H9.34L9.27,6.86l-0.15,0.2
	c0,0.18,0.02,0.35,0.02,0.53c0,0.25,0.05,0.5,0.02,0.78l-0.1,0.25H9.05L9.02,8.27L9,8C8.97,7.74,8.93,7.47,8.9,7.19
	c-0.15,0-0.3-0.05-0.39-0.18c-0.12-0.18-0.15-0.4-0.15-0.63l0.02-0.3V5.9H8.36l-0.12,0.4L8.21,6.48C8.19,6.66,8.16,6.81,8.07,6.96
	L7.92,7.11L7.92,7.11z M22.4,6.96c-0.05-0.43-0.12-0.83-0.1-1.26l0.12,0.05L22.4,5.6l-0.22-0.53l-0.07-0.13L22.03,5l-0.15,0.2
	l0.02,0.23c0.02,0.18,0.05,0.38,0.07,0.55l0.02,0.23l0.02,0.3c0.07,0.55,0.12,1.13,0.17,1.71c0.02,0.28,0.02,0.58-0.07,0.83
	c-0.07,0.23-0.25,0.43-0.42,0.58c-0.15,0.13-0.3,0.23-0.44,0.33l-0.12,0.13l0.34-0.05c0.25-0.05,0.49-0.2,0.64-0.4
	c0.15-0.2,0.25-0.43,0.3-0.68c0.05-0.23,0.05-0.48,0.05-0.71C22.48,7.84,22.45,7.39,22.4,6.96L22.4,6.96z M20.56,9.89l0.07-0.23
	V9.61l-0.27-0.03l-0.05,0.13l0.12,0.1l-0.17,0.25l0.12,0.05l0.32-0.15v-0.1L20.56,9.89L20.56,9.89z M20.12,14.85
	c-0.15,0.03-0.32,0-0.47,0l-0.12-0.08l-0.1,0.05v0.05c-0.15,0.03-0.32,0-0.47,0.03l-0.07-0.13v-0.13c0.42,0,0.84-0.03,1.25-0.03
	L20.12,14.85L20.12,14.85z M20.51,14.32l-0.32-0.1c-0.44,0-0.86,0.03-1.3,0.03V14.1l0.07-0.18l-0.12-0.18h-0.07l-0.1,0.18l0.1,0.2
	v0.1c-1.6,0.03-3.2,0.03-4.77,0.03h-0.91c-0.81,0-1.62-0.03-2.43-0.03c-0.42,0-0.81-0.03-1.21,0c0.1,0.18,0.27,0.28,0.44,0.35
	c0.3,0.1,0.61,0.13,0.91,0.15c0.32,0.03,0.66,0,1.01,0.03h3.17c0.96,0,1.94-0.03,2.9-0.05c0.3,0,0.61-0.03,0.91-0.03v0.1l-0.1,0.15
	l0.15,0.25h0.02l0.1-0.15c0.15,0,0.32-0.03,0.47,0l0.12,0.1l0.12-0.1h0.52l0.12,0.1l0.22-0.05l0.1-0.38L20.51,14.32L20.51,14.32z
	 M7.97,9.74l-0.12-0.1c-0.05-0.18,0-0.35,0.05-0.53l0.02-0.38H7.89l-0.1,0.33c-0.05,0.15-0.07,0.3-0.07,0.48l0.02,0.35l0.2,0.15
	l0.22-0.2V9.56C8.16,9.56,7.97,9.74,7.97,9.74z M8.46,7.74l0.25-0.1v-0.2H8.63C8.46,7.49,8.29,7.57,8.14,7.67
	c-0.2,0.13-0.39,0.3-0.52,0.5l0.22-0.15C8.04,7.95,8.26,7.84,8.46,7.74z M9.74,7.92l0.27-0.05L9.88,7.72L9.76,7.67L9.74,7.69
	C9.74,7.69,9.74,7.92,9.74,7.92z M10.38,9.66c-0.15,0.15-0.34,0.23-0.54,0.3c-0.27,0.1-0.54,0.18-0.81,0.18
	c-0.17,0-0.34-0.03-0.47-0.13l-0.15-0.2C8.29,9.56,8.26,9.28,8.29,9c0.02-0.23,0.05-0.48,0.17-0.68v0.71c0.02,0.2,0.05,0.4,0.2,0.55
	c0.1,0.13,0.27,0.18,0.44,0.18c0.15,0,0.3-0.03,0.44-0.08c0.25-0.08,0.49-0.2,0.69-0.38c0.12-0.1,0.22-0.23,0.27-0.38l0.02-0.38
	V8.02l-0.15,0.1c0,0.15,0.02,0.33-0.02,0.48c-0.1,0.3-0.34,0.53-0.59,0.68c-0.2,0.1-0.42,0.23-0.66,0.18
	C8.9,9.43,8.75,9.28,8.68,9.11c-0.1-0.15-0.1-0.3-0.1-0.45s0.02-0.28,0.05-0.43l0.1-0.15V8.3C8.7,8.53,8.75,8.78,8.9,8.98l0.32,0.1
	c0.17-0.03,0.32-0.1,0.44-0.2l0.37-0.33l0.07-0.13l0.02-0.23L9.81,8.27l-0.3-0.05l-0.05-0.1V7.77l0.12-0.33l0.2-0.18l0.22,0.1
	l0.27,0.35l0.2-0.13c0-0.38-0.07-0.78-0.1-1.16l-0.05-0.38V5.93L10.3,5.55v-0.1l-0.05-0.18l0.12-0.15l0.12-0.1l0.1,0.25
	c0.05,0.15,0.1,0.3,0.17,0.45l0.02,0.2l-0.07,0.05l-0.1-0.05c0.02,0.28,0.05,0.58,0.05,0.86c0.02,0.23,0.02,0.48,0.05,0.71l0.2-0.18
	l0.07,0.08l0.02,0.33l0.15,0.1l0.22-0.15l0.15-0.35h0.02l0.07,0.35l0.15,0.1l0.1-0.15l-0.02-0.2V7.34L12,7.24l0.05,0.25l-0.02,0.38
	L11.88,8l-0.27-0.05l-0.1-0.1h-0.05l-0.12,0.13l-0.32,0.08l-0.25-0.18h-0.02V8.3c0.02,0.28,0.02,0.55-0.05,0.83
	C10.65,9.33,10.52,9.53,10.38,9.66L10.38,9.66z M20.68,7.42c0.02,0.4,0.05,0.81,0.05,1.21c0,0.23-0.02,0.45-0.15,0.63
	c-0.05,0.13-0.2,0.23-0.34,0.23c-0.17,0-0.34-0.08-0.47-0.2l-0.15-0.2l-0.1,0.05l-0.2,0.35c-0.1,0.2-0.2,0.4-0.32,0.58l-0.12,0.08
	l-0.22-0.08c-0.1-0.1-0.25-0.18-0.3-0.33c-0.07-0.23-0.02-0.45,0.02-0.68l0.1-0.33h0.02l0.02,0.38l0.05,0.33l0.05-0.23
	c0.05-0.35-0.05-0.71-0.07-1.06c-0.02-0.25-0.07-0.5-0.1-0.76c-0.05-0.38-0.1-0.78-0.15-1.16c-0.02-0.15-0.02-0.3-0.07-0.45
	c-0.05-0.15-0.07-0.33-0.05-0.5l0.17-0.35l0.17-0.08l0.12,0.1l0.1,0.28c0.05,0.18,0.12,0.33,0.22,0.48l0.02,0.25l-0.2,0.1
	c0,0.2,0.05,0.43,0.05,0.63c0.02,0.28,0.07,0.55,0.1,0.83c0.02,0.18,0.05,0.35,0.05,0.53c0.05,0.28,0.12,0.55,0.07,0.83
	c-0.02,0.2-0.07,0.38-0.17,0.55l-0.17,0.13l-0.12-0.05l0.12,0.2h0.15l0.12-0.18c0.1-0.23,0.22-0.45,0.34-0.66l0.17-0.25h0.15
	l0.27,0.33l0.22,0.1l0.17-0.1l0.1-0.28c0.02-0.48-0.02-0.98-0.05-1.46c0-0.13-0.02-0.28-0.02-0.4l-0.02-0.28
	C20.12,6.26,19.92,6,19.72,5.73l-0.15-0.3v-0.4l0.15,0.08c0.1,0.15,0.25,0.25,0.37,0.38l0.05,0.08V5.6h-0.07l0.22,0.33
	c0-0.13-0.02-0.28-0.05-0.4l-0.05-0.25L20.34,5l0.07,0.08c0.07,0.2,0.15,0.43,0.22,0.63v0.1l-0.1-0.05c0,0.23,0.02,0.45,0.05,0.66
	c0.15,0.2,0.3,0.43,0.44,0.63c-0.02-0.2-0.07-0.4-0.1-0.61c-0.05-0.33-0.07-0.68-0.1-1.01L20.8,5.25L20.93,5L21,4.95l0.1,0.25
	c0.05,0.18,0.07,0.33,0.12,0.5v0.15l-0.05,0.03l-0.05-0.03v0.23c0,0,0.05,0.55,0.07,0.81c0.02,0.18,0.02,0.38,0.05,0.55
	c0.1,0.15,0.2,0.3,0.3,0.48c0.15,0.23,0.34,0.45,0.42,0.73l0.02,0.38h-0.02l-0.15-0.25c-0.17-0.25-0.34-0.5-0.52-0.73
	c0.02,0.15,0,0.33,0.02,0.48l-0.02,0.3l-0.07,0.25l-0.05-0.1c0-0.2,0.02-0.4,0-0.61c-0.02-0.18-0.05-0.33-0.07-0.5l0.05-0.15
	c-0.17-0.25-0.34-0.48-0.49-0.71C20.66,7.14,20.68,7.26,20.68,7.42L20.68,7.42z M19.94,7.37c-0.17,0.18-0.39,0.3-0.57,0.48
	l-0.05,0.13l0.17-0.1c0.15-0.13,0.3-0.2,0.44-0.3l0.2-0.1v-0.2L19.94,7.37L19.94,7.37z M17.68,5.58c0.02,0.25,0.07,0.48,0.1,0.73
	c0.05,0.38,0.07,0.76,0.1,1.13c0.02,0.38,0.02,0.76,0.05,1.11c0.02,0.15,0.02,0.3,0,0.43c-0.02,0.2-0.12,0.4-0.25,0.55
	c-0.17,0.2-0.37,0.38-0.59,0.5l-0.37,0.15v0.05l0.27,0.03c0.15-0.03,0.32-0.03,0.47-0.1c0.17-0.1,0.3-0.28,0.42-0.43
	c0.17-0.2,0.25-0.45,0.27-0.71c0.02-0.25,0.02-0.5,0.02-0.76c0-0.4-0.02-0.81-0.07-1.21C18.05,6.63,18,6.23,18.02,5.8l0.12,0.03V5.7
	l-0.1-0.35l-0.02-0.1l-0.07-0.2l-0.07,0.03l-0.17,0.2l-0.02,0.2L17.68,5.58L17.68,5.58z M11.41,8.98l0.05-0.03l0.1-0.25V8.42
	l-0.22-0.05v0.2l0.15,0.03v0.23L11.41,8.98L11.41,8.98z M17.26,6.13l0.02,0.03l0.07,0.18l0.1-0.2l0.02-0.05h0.02l0.02,0.3
	l-0.02,0.05l-0.1,0.03l-0.12-0.08l-0.17,0.08l-0.02-0.28h0.02l0.05,0.15l0.05-0.03L17.26,6.13L17.26,6.13z M19.25,6.74h0.07
	l0.05-0.05l0.2,0.33l0.07,0.13l0.05-0.1V6.56l0.05-0.1l0.15,0.03v-0.1l-0.07-0.15l-0.05-0.03L19.6,6.38l0.02,0.33L19.6,6.86
	l-0.1-0.2l-0.15-0.28l-0.07,0.03l-0.02,0.1V6.74L19.25,6.74z M20.02,8.42l0.12-0.15c0.05-0.15-0.02-0.33-0.12-0.45l-0.1-0.03
	l-0.1,0.18l0.2,0.2V8.42L20.02,8.42z M21.64,6c-0.02-0.15-0.07-0.3-0.15-0.45l-0.02-0.13l0.12-0.13c0.12,0.18,0.15,0.4,0.17,0.61
	l-0.05,0.33h-0.02L21.64,6z M14.51,7.44h-0.05l-0.07-0.15l-0.07-0.08l-0.02,0.2l-0.02,0.1h-0.05l-0.1-0.25l-0.02-0.05l0.02,0.38
	l0.12,0.05l0.1-0.13h0.02l0.1,0.08l0.15-0.13l-0.07-0.33l-0.02,0.23C14.51,7.37,14.51,7.44,14.51,7.44z M15.22,7.44l0.27,0.13
	l0.07,0.08l-0.34,0.08L15.2,7.47L15.22,7.44z M12.44,7.69c0.05,0.15,0.15,0.28,0.2,0.43l0.05,0.28l-0.17,0.28
	c-0.15,0.13-0.32,0.28-0.47,0.4V8.6h-0.02c-0.1,0.15-0.15,0.3-0.2,0.48l-0.05,0.2l-0.02,0.03c-0.3,0.2-0.59,0.38-0.89,0.55
	l-0.39,0.2v0.05h0.1c0.42-0.13,0.81-0.25,1.18-0.43c0.02,0.15,0.05,0.3,0.15,0.4c0.12,0.13,0.3,0.15,0.47,0.13
	c0.27-0.05,0.49-0.2,0.69-0.4c0.2-0.18,0.34-0.4,0.49-0.61c0.07,0.23,0.2,0.43,0.37,0.58c0.27,0.25,0.64,0.35,0.98,0.4l0.2-0.05
	l0.05-0.28l-0.22-0.1l-0.27-0.2v-0.2l0.3-0.18c0.32-0.13,0.64-0.23,0.98-0.3l0.27-0.08l0.12-0.23l0.02-0.15h-0.27
	c-0.37,0.03-0.76,0.03-1.13,0.03h-0.47c0.25-0.13,0.52-0.23,0.79-0.33l0.17,0.03V8.07c0.15-0.05,0.3-0.1,0.39-0.23l0.15-0.33
	l-0.27-0.33c-0.12-0.1-0.27-0.18-0.44-0.18l-0.22,0.13l-0.17,0.35l0.07,0.3l-0.66,0.23l-0.3,0.15l-0.15,0.28l-0.05,0.23l0.15,0.05
	c0.15,0,0.3,0,0.44,0.03c0.15,0,0.3,0.03,0.39,0.13l0.05,0.05c-0.2,0.08-0.37,0.2-0.44,0.4v0.33c-0.2-0.05-0.42-0.18-0.54-0.38
	c-0.12-0.23-0.15-0.5-0.2-0.76c-0.02-0.18-0.07-0.33-0.1-0.5v0.03c-0.05-0.33-0.17-0.63-0.3-0.93l-0.1-0.18l-0.12,0.2l-0.02,0.28
	c0.1,0.25,0.17,0.5,0.25,0.76l0.1,0.33l0.07,0.25c-0.15,0.28-0.32,0.5-0.52,0.73c-0.17,0.15-0.34,0.28-0.57,0.33l-0.3-0.05
	l-0.07-0.25c0.22-0.13,0.42-0.28,0.59-0.48c0.15-0.15,0.27-0.3,0.32-0.5c0.02-0.15,0.02-0.33,0-0.48l-0.02-0.08l-0.1-0.28l0.1-0.03
	l-0.1-0.23l-0.2-0.23h-0.1l-0.1,0.18l-0.05,0.2L12.44,7.69L12.44,7.69z M15.61,10.04l0.02-0.3l-0.2,0.05l0.12-0.1l0.25-0.1
	l-0.05,0.33l0.02,0.05c0.15-0.03,0.27-0.13,0.42-0.18h0.1l-0.1,0.1c-0.12,0.1-0.25,0.23-0.42,0.2L15.61,10.04L15.61,10.04z
	 M12.79,6.86l-0.25-0.18c-0.17-0.23-0.25-0.53-0.22-0.81c0.02-0.18,0.05-0.35,0.15-0.5h0.02l-0.05,0.28c0,0.15,0,0.33,0.02,0.48
	l0.02,0.13l0.2,0.25l0.15-0.13c0.07-0.23,0.17-0.43,0.27-0.66c0.07-0.15,0.15-0.3,0.25-0.43l0.12-0.05l0.07,0.1l-0.02,0.23
	c-0.05,0.25-0.02,0.5-0.02,0.76l0.12,0.28h0.27l0.27-0.23l0.1-0.35c0-0.25-0.05-0.48-0.1-0.73l-0.02-0.23l0.12-0.25h0.05
	c0.07,0.13,0.1,0.28,0.12,0.4c0.02,0.18,0.05,0.38,0.05,0.58c0.02,0.2,0.07,0.4,0.2,0.55l0.2,0.15l0.15-0.1V6
	C15,5.83,14.95,5.68,14.9,5.5l-0.1-0.28l0.1-0.18l0.07-0.15l0.15,0.08l0.22,0.38l0.02,0.15h-0.1l-0.12-0.08l0.07,0.2
	c0.05,0.15,0.05,0.28,0.07,0.43c0.02,0.2-0.02,0.43-0.12,0.61l-0.34,0.18c-0.2-0.05-0.32-0.2-0.42-0.33
	c-0.1,0.2-0.27,0.35-0.47,0.43l-0.39,0.03l-0.2-0.33c-0.05-0.18-0.05-0.38-0.02-0.58V5.93H13.3l-0.1,0.2
	c-0.07,0.2-0.12,0.38-0.2,0.58L12.79,6.86L12.79,6.86z M17.04,5.3l-0.07-0.08l0.07-0.2l0.15,0.13c0.1,0.18,0.15,0.4,0.05,0.61
	l-0.1,0.13V5.5C17.14,5.5,17.04,5.3,17.04,5.3z M15.47,5.45V5l0.02-0.05l0.12,0.03c0.17,0.15,0.34,0.3,0.49,0.45l0.1,0.18h-0.2
	c0.1,0.18,0.22,0.33,0.34,0.5l0.02,0.03c-0.02-0.2-0.07-0.4-0.05-0.63l-0.07-0.18l0.07-0.2l0.1-0.1l0.1,0.1
	c0.07,0.2,0.17,0.38,0.22,0.58l0.05,0.23l-0.02,0.05l-0.15-0.03c0,0.18,0,0.33,0.02,0.5l0.02,0.23c0.17,0.28,0.34,0.53,0.49,0.81
	c0.17,0.3,0.34,0.61,0.47,0.93c0.07,0.2,0.15,0.4,0.15,0.61h-0.05l-0.17-0.35c-0.25-0.53-0.57-1.06-0.89-1.56
	c0,0.15,0.02,0.33,0.02,0.48c0.02,0.33,0.07,0.63,0.07,0.96c0,0.33-0.02,0.68-0.15,1.01l-0.1,0.1l0.02-0.23
	C16.62,9.23,16.6,9,16.6,8.78c-0.02-0.5-0.1-1.01-0.17-1.49L16.4,7.06c-0.02-0.15-0.02-0.3-0.05-0.43
	c-0.22-0.35-0.47-0.68-0.71-1.03L15.47,5.45L15.47,5.45z M13.89,5.55v0.33h0.02l0.05-0.18c0-0.18,0.02-0.35-0.02-0.53l-0.1-0.15
	l-0.1,0.1l0.02,0.13L13.89,5.55z"/>
</svg>
