<?xml version="1.0" encoding="utf-8"?>
<!-- Generator: Adobe Illustrator 22.0.0, SVG Export Plug-In . SVG Version: 6.00 Build 0)  -->
<svg version="1.1" id="图层_1" xmlns="http://www.w3.org/2000/svg" xmlns:xlink="http://www.w3.org/1999/xlink" x="0px" y="0px"
	 viewBox="0 0 30 20" style="enable-background:new 0 0 30 20;" xml:space="preserve">
<style type="text/css">
	.st0{fill:#EC171E;}
	.st1{fill:#FFDE00;}
</style>
<g>
	<rect class="st0" width="35" height="20.4"/>
	<g>
		<polygon class="st1" points="3.5,7.7 4.1,5.7 2.5,4.5 4.5,4.5 5.3,2.5 5.8,4.5 8,4.5 6.3,5.7 7,7.7 5.3,6.6 		"/>
		<polygon class="st1" points="9.5,8.9 10.2,9.2 10.6,8.6 10.6,9.3 11.4,9.6 10.6,9.8 10.5,10.6 10.1,9.9 9.3,10.1 9.9,9.5 		"/>
		<polygon class="st1" points="13.4,5 12.5,4.8 12.2,5.5 12.1,4.7 11.4,4.7 12.1,4.2 12,3.5 12.5,4.1 13.1,3.6 12.8,4.4 		"/>
		<polygon class="st1" points="11.7,8.5 12,7.7 11.4,7.3 12.1,7.3 12.4,6.6 12.5,7.3 13.4,7.3 12.7,7.7 13,8.5 12.4,8 		"/>
		<polygon class="st1" points="9.5,1.8 10.2,2 10.8,1.5 10.6,2.2 11.4,2.5 10.6,2.6 10.5,3.5 10.1,2.8 9.3,2.9 9.9,2.3 		"/>
	</g>
</g>
</svg>
