<?xml version="1.0" encoding="utf-8"?>
<!-- Generator: Adobe Illustrator 22.0.0, SVG Export Plug-In . SVG Version: 6.00 Build 0)  -->
<svg version="1.1" id="图层_1" xmlns="http://www.w3.org/2000/svg" xmlns:xlink="http://www.w3.org/1999/xlink" x="0px" y="0px"
	 viewBox="0 0 24 14" style="enable-background:new 0 0 24 14;" xml:space="preserve">
<style type="text/css">
	.st0{fill:#41479B;}
	.st1{fill:#F5F5F5;}
	.st2{fill:#FF4B55;}
</style>
<path class="st0" d="M23.6,14.9H0.4c-0.2,0-0.4-0.2-0.4-0.4V-0.4c0-0.2,0.2-0.4,0.4-0.4h23.2c0.2,0,0.4,0.2,0.4,0.4v14.9
	C24,14.7,23.8,14.9,23.6,14.9z"/>
<path class="st1" d="M24-0.4c0-0.2-0.2-0.4-0.4-0.4h-1.9l-7.7,5v-5H9.9v5l-7.7-5H0.4C0.2-0.9,0-0.7,0-0.4v1.1l6.6,4.3H0v4.1h6.6
	L0,13.4v1.1c0,0.2,0.2,0.4,0.4,0.4h1.9l7.7-5v5h4.1v-5l7.7,5h1.9c0.2,0,0.4-0.2,0.4-0.4v-1.1l-6.6-4.3H24V4.9h-6.6L24,0.6V-0.4z"/>
<g>
	<polygon class="st2" points="24,5.8 13.2,5.8 13.2,-0.9 10.8,-0.9 10.8,5.8 0,5.8 0,8.2 10.8,8.2 10.8,14.9 13.2,14.9 13.2,8.2 
		24,8.2 	"/>
	<path class="st2" d="M8.4,9.1L0,14.5c0,0.2,0.2,0.4,0.4,0.4H1l8.9-5.8L8.4,9.1L8.4,9.1z"/>
	<path class="st2" d="M16.2,9.1h-1.5l8.9,5.8c0.2,0,0.4-0.2,0.4-0.4v-0.3L16.2,9.1z"/>
	<path class="st2" d="M0,0l7.6,4.9h1.5L0.2-0.8C0.1-0.8,0-0.6,0-0.4V0z"/>
	<path class="st2" d="M15.6,4.9L24-0.5c0-0.2-0.2-0.3-0.4-0.3H23l-8.9,5.8H15.6z"/>
</g>
</svg>
