<?xml version="1.0" encoding="utf-8"?>
<!-- Generator: Adobe Illustrator 23.0.0, SVG Export Plug-In . SVG Version: 6.00 Build 0)  -->
<svg version="1.1" id="图层_1" xmlns="http://www.w3.org/2000/svg" xmlns:xlink="http://www.w3.org/1999/xlink" x="0px" y="0px"
	 viewBox="0 0 30 20" style="enable-background:new 0 0 30 20;" xml:space="preserve">
<style type="text/css">
	.st0{fill:#C40B1E;}
	.st1{fill:#FDC200;}
	.st2{display:none;fill:#C40B1E;}
	.st3{fill:#AA1619;}
	.st4{fill:#DADADA;}
	.st5{fill:#9F8604;}
	.st6{fill:#AB2C17;}
	.st7{fill:#AB1719;}
	.st8{fill:#AA1819;}
	.st9{fill:#A9231A;}
	.st10{fill:#B9A303;}
	.st11{fill:#A31518;}
	.st12{fill:#CECECB;}
	.st13{fill:#A8920A;}
	.st14{fill:#B8A100;}
	.st15{fill:#6D5703;}
	.st16{fill:#D9D8D8;}
	.st17{fill:#A38F09;}
	.st18{fill:#C1A900;}
	.st19{fill:#C1AB01;}
	.st20{fill:#A48F08;}
	.st21{fill:#B7B2AB;}
	.st22{fill:#BDA600;}
	.st23{fill:#BEB7B1;}
	.st24{fill:#C3C3C0;}
	.st25{fill:#1C5DA4;}
	.st26{fill:#685303;}
	.st27{fill:#27639F;}
	.st28{fill:#2C6498;}
	.st29{fill:#7E2F0E;}
	.st30{fill:#986C02;}
	.st31{fill:#AFB2B6;}
	.st32{fill:#A4B2C1;}
	.st33{fill:#B79401;}
	.st34{fill:#1F5E9B;}
	.st35{fill:#ABB4BE;}
	.st36{fill:#A8B7C6;}
	.st37{fill:#B7610D;}
	.st38{fill:#CFCBC8;}
	.st39{fill:#945409;}
	.st40{fill:#9E2D11;}
	.st41{fill:#9D400E;}
	.st42{fill:#7C7F43;}
	.st43{fill:#C29C04;}
	.st44{fill:#0359B7;}
	.st45{fill:#6D5F03;}
	.st46{fill:#C2AB00;}
	.st47{fill:#BBA501;}
	.st48{fill:#B57E96;}
	.st49{fill:#E173A5;}
	.st50{fill:#E56FA5;}
	.st51{fill:#AA7489;}
	.st52{fill:#A96571;}
	.st53{fill:#A67C8D;}
	.st54{fill:#AC6986;}
	.st55{fill:#DB6D9F;}
	.st56{fill:#DD6DA0;}
	.st57{fill:#8B5765;}
	.st58{fill:#A91718;}
	.st59{fill:#AA1719;}
	.st60{fill:#931B14;}
	.st61{fill:#FAC100;}
	.st62{fill:#F9BF00;}
	.st63{fill:#B0AA83;}
	.st64{fill:#A71817;}
	.st65{fill:#218957;}
	.st66{fill:#B87875;}
	.st67{fill:#B6827C;}
	.st68{fill:#A36F6F;}
	.st69{fill:#C19405;}
	.st70{fill:#C08E05;}
	.st71{fill:#BF8207;}
	.st72{fill:#C08D06;}
	.st73{fill:#C08A06;}
	.st74{fill:#C2C0BE;}
	.st75{fill:#D9D9D9;}
	.st76{fill:#D8D6D6;}
	.st77{fill:#ADACAC;}
	.st78{fill:#1A895C;}
	.st79{fill:#B8710E;}
	.st80{fill:#BD7C09;}
	.st81{fill:#AB1519;}
	.st82{fill:#9E1717;}
	.st83{fill:#9F2115;}
	.st84{fill:#C4AD00;}
	.st85{fill:#133DC3;}
	.st86{fill:#C3B000;}
	.st87{fill:#2A6355;}
	.st88{fill:#1F63A5;}
	.st89{fill:#A68503;}
	.st90{fill:#AD1E17;}
	.st91{fill:#AD1D17;}
	.st92{fill:#AD1F17;}
	.st93{fill:#AE2117;}
	.st94{fill:#AD2017;}
	.st95{fill:#AE2217;}
	.st96{fill:#368F53;}
	.st97{fill:#183B9F;}
	.st98{fill:#0C34AB;}
	.st99{fill:#9F8D00;}
	.st100{fill:#A18F00;}
	.st101{fill:#AD9900;}
	.st102{fill:#918D1A;}
	.st103{fill:#898314;}
	.st104{fill:#657234;}
	.st105{fill:#D6B37C;}
	.st106{fill:#822C24;}
	.st107{fill:#D7D4D5;}
	.st108{fill:#B08D03;}
</style>
<g>
	<g>
		<rect y="15.1" class="st0" width="30" height="4.9"/>
		<path class="st0" d="M6.86,4.54H30V0H0v4.54C2.97,4.53,6.81,4.54,6.86,4.54z"/>
		<path class="st1" d="M6.86,4.54c-0.06,0-3.9-0.01-6.86,0V15.1h30V4.54H6.86z"/>
	</g>
	<path class="st2" d="M23.46,15.11c0.04,0,0.09,0,0.13,0c-0.01,0.14-0.11,0.23-0.18,0.34c-0.91,1.4-2.1,2.51-3.57,3.32
		c-1.02,0.57-2.11,0.94-3.27,1.12c-1.31,0.2-2.61,0.15-3.9-0.15c-1.31-0.31-2.51-0.88-3.6-1.69c-0.98-0.72-1.79-1.6-2.46-2.62
		c-0.07-0.1-0.15-0.19-0.16-0.32L23.46,15.11z M6.67,4.5C7.2,3.68,7.85,2.96,8.6,2.33c0.75-0.63,1.58-1.14,2.48-1.53
		c0.78-0.33,1.59-0.57,2.44-0.69c0.8-0.12,1.6-0.14,2.4-0.07C17.08,0.14,30-1,30-1s0.71,5.05,1,5.53c-0.07,0.05-7.77,0.03-7.84,0.03
		c-4.69,0-9.38,0-14.08,0c-0.75,0-1.5,0-2.25,0C6.77,4.55,6.7,4.59,6.67,4.5L6.67,4.5z"/>
	<path class="st3" d="M14.69,11.46c-0.03-0.22,0.01-0.43,0.02-0.64c0-0.02,0-0.03,0.01-0.05c0.04-0.08,0.11-0.14,0.17-0.22
		c0.15-0.11,0.3-0.2,0.5-0.19c0.03,0,0.06-0.02,0.09-0.03c0.32,0.09,0.51,0.29,0.57,0.62c0.01,0.06,0.02,0.13,0.09,0.15
		c0.33,0.03,0.67,0.01,1,0.01c0.37,0,0.31,0.03,0.31,0.31c0,0.27-0.01,0.54,0,0.81c0.02,0.37-0.04,0.71-0.26,1.01
		c-0.01,0.01-0.02,0.01-0.02,0.01c-0.15,0.09-0.3,0.19-0.47,0.24l0,0c-0.14,0.07-0.28,0.03-0.43,0.04c-0.06,0-0.12,0-0.17,0
		c-0.19,0.01-0.31-0.11-0.45-0.21c-0.02-0.01-0.03-0.03-0.05-0.04c-0.05-0.07-0.1-0.13-0.15-0.19c-0.06-0.09-0.41,0.23-0.47,0.14
		c-0.04-0.19-0.02-0.5-0.04-0.7c0-0.06-0.02-0.76-0.03-0.81"/>
	<path class="st4" d="M16.08,11.13c-0.06-0.03-0.04-0.09-0.06-0.13c-0.06-0.26-0.15-0.49-0.44-0.57c-0.04-0.01-0.05-0.09-0.11-0.05
		c-0.1,0-0.15-0.04-0.15-0.15c0-0.42,0-0.85,0-1.27c0-0.02,0.01-0.05,0.02-0.07c0.05-0.08,0.13-0.1,0.21-0.1
		c0.58-0.02,1.17,0.02,1.75,0.01c0.13,0,0.15,0.07,0.15,0.18c0.02,0.39,0.01,0.77,0.02,1.16c0.05,0.18,0.04,0.36-0.02,0.54v0
		c0.04,0.13-0.01,0.26,0,0.39c0,0.06-0.04,0.08-0.09,0.08C16.93,11.13,16.5,11.15,16.08,11.13L16.08,11.13z"/>
	<path class="st5" d="M16.65,8.48c-0.05,0.04,0.07,0.13,0.08,0.18c0.05,0.17-0.22,0.09-0.3,0.13c-0.02,0.01,0.51-0.02,0.48,0
		c0.27,0,0.07-0.02,0.34-0.02c0.22,0,0.22,0,0.22,0.23l0.01,1.13c-0.01,0.01-0.02,0.01-0.03,0c-0.01-0.39-0.02-0.77-0.02-1.16
		c0-0.12-0.04-0.15-0.15-0.15c-0.58,0-2.97,0-3.35,0c-0.28-0.11,0.04-0.43-0.04-0.35H16.65L16.65,8.48z"/>
	<path class="st5" d="M15.17,6.53c0.03-0.01,0.06-0.01,0.1-0.01c0.09-0.01,0.18,0.04,0.27,0.06c0.11-0.04,0.22-0.07,0.34-0.08
		c0.23-0.03,0.39,0.12,0.57,0.21c0.02,0.01,0.02,0.05,0.07,0.04c0.25-0.06,0.48-0.03,0.71,0.09c0.22,0.11,0.35,0.34,0.33,0.54
		c0,0.25-0.48,0.9-0.89,1.11h-2.76c-0.21-0.02-1.12-1.16-0.86-1.54"/>
	<path class="st5" d="M13.01,6.97c0.21-0.45,1.01-0.25,1.07-0.24c0.09,0.01,0.16-0.12,0.22-0.19c0,0,0.22-0.15,0.36-0.06
		c0.16,0.07,0.35,0.13,0.51,0.05"/>
	<path class="st6" d="M18.14,10.55c-0.03-0.01-0.05-0.07-0.1-0.05c-0.15,0.06-0.3,0.04-0.46,0.07c-0.07,0.01-0.11,0.05-0.14,0.11
		c-0.02-0.18-0.02-0.36,0-0.54h0.03c0.2-0.01,0.4-0.02,0.6-0.04c0.02-0.01,0.04-0.02,0.07-0.03c0.07-0.01,0.13,0,0.19,0.01
		c0.15,0.05,0.31-0.01,0.46,0.06c0.11,0.11,0.26,0.13,0.38,0.21c0.1,0.07,0.14,0.14,0.09,0.25c-0.02,0.04-0.03,0.08-0.04,0.12
		c-0.06,0.2-0.18,0.32-0.4,0.32"/>
	<path class="st7" d="M18.82,11.41c0.04,0.02,0.08,0.03,0.12,0.04c0.35,0.15,0.31,0.24,0.23,0.55c-0.02,0.1-0.15,0.11-0.18,0.22
		c0,0.01-0.04-0.01-0.05-0.03c-0.03-0.06-0.06-0.13-0.02-0.19c0.07-0.1,0.02-0.15-0.08-0.19c-0.01,0.01-0.03,0.01-0.04,0.01
		c-0.09-0.03-0.17-0.06-0.26-0.09c-0.11-0.05-0.23-0.1-0.34-0.14c-0.08-0.01-0.09-0.1-0.15-0.13c-0.03-0.02-0.06-0.03-0.09-0.05
		c-0.17-0.13-0.22-0.35-0.11-0.53c0.03-0.04,0.08-0.09,0.14-0.09c0.05,0,0.09-0.02,0.13-0.05"/>
	<path class="st8" d="M12.76,11.35c-0.09,0.04-0.49,0.32-0.58,0.35c-0.08,0.04-0.17,0.06-0.26,0.1c-0.03,0.02-0.07,0.01-0.1,0
		c-0.09,0.04-0.08,0.11-0.05,0.19c0.02,0.07,0.04,0.14-0.03,0.18c-0.08,0.05-0.23-0.26-0.28-0.3c-0.16-0.12,0.13-0.43,0.31-0.52
		c0.24-0.17,0.74-0.58,0.8-0.62"/>
	<path class="st8" d="M12.55,10.7c0.1,0.02,0.28,0.12,0.29,0.24c0.02,0.15,0.09,0.31-0.11,0.42"/>
	<path class="st9" d="M13.24,10.48c-0.66-0.21-1.2,0.57-1.35,0.57c-0.21-0.03-0.6-0.33-0.56-0.53c0.02-0.11,0.43-0.3,0.53-0.35
		c0.04-0.05,1.26-0.13,1.39-0.04"/>
	<path class="st10" d="M12.77,13.19c-0.03,0.03-0.06,0.04-0.1,0.04c-0.3,0.01-0.6,0.01-0.9,0c-0.04,0-0.08-0.01-0.1-0.04
		c0.02-0.18,0.13-0.32,0.18-0.49c0.02-0.02,0.04-0.03,0.06-0.03c0.22,0.04,0.44,0,0.67,0c0.04,0.03,0.06,0.12,0.06,0.12"/>
	<path class="st11" d="M13.47,13.19c0.04-0.04,0.02-0.1,0.02-0.15c0-0.54,0-1.08,0-1.62c0-0.04,0-0.08,0-0.12
		c0.01-0.06,0.02-0.12,0.08-0.14c0.08-0.02,0.04,0.07,0.08,0.09c0.01,0.01,0.03,0.01,0.04,0.01c0.04,0.04,0.04,0.1,0.04,0.15
		c0,0.59,0,1.17,0,1.76c0,0.07,0.03,0.2-0.13,0.16L13.47,13.19L13.47,13.19z"/>
	<path class="st12" d="M15.65,13.27c0.14,0.06,0.22,0.23,0.4,0.21c0.1,0.04,0.21,0.02,0.31,0.05c0.05,0.01,0.12,0.03,0.03,0.09
		c-0.16,0.01-0.31,0.09-0.47,0.11c-0.48,0.1-0.96,0.07-1.44-0.06h0c-0.04-0.03-0.09-0.02-0.13-0.04c-0.05-0.02-0.09-0.05-0.07-0.11
		c0.02-0.02,0.22-0.01,0.25-0.01c0.06,0,0.27-0.09,0.33-0.11c0.03-0.01,0.41-0.28,0.5-0.51"/>
	<path class="st13" d="M18.81,11.8l0.04,0c0,0.33-0.04,0.66,0.02,0.98c0.01,0.06,0.03,0.1,0.06,0.14C18.92,13.01,18.85,13,18.8,13
		c-0.22,0.01-0.44,0.01-0.67,0c-0.06,0-0.15,0.01-0.13-0.1c0.1-0.08,0.07-0.2,0.08-0.29c0.02-0.36,0.01-0.72,0.01-1.07
		c0-0.03-0.02-0.05-0.03-0.08c0.07,0,0.08,0.08,0.14,0.1c-0.01,0.3-0.01,0.6-0.01,0.9c0,0.16,0.01,0.17,0.17,0.18
		c0.07,0,0.14,0,0.22,0c0.19-0.01,0.19-0.01,0.19-0.2c0-0.15,0-0.31,0-0.46C18.77,11.91,18.77,11.85,18.81,11.8L18.81,11.8z"/>
	<path class="st14" d="M13.3,11.16c0.14-0.03,0.17,0.03,0.17,0.17c-0.01,0.5,0,1,0,1.5c0,0.11,0,0.21-0.05,0.31
		c-0.09-0.05-0.11-0.15-0.14-0.24c0.01-0.02,0.02-0.03,0.02-0.05c-0.09-0.52-0.01-1.04-0.04-1.57
		C13.25,11.23,13.26,11.19,13.3,11.16z"/>
	<path class="st15" d="M11.9,8.83c0.01-0.13-0.14-0.15-0.16-0.26c0.07-0.04,0.15,0.01,0.22-0.05c0.19,0.02,0.17-0.13,0.2-0.24v0
		c0.05-0.03,0.08,0,0.1,0.04c0.06,0.15,0.06,0.15,0.17,0.04l0.14,0.02c-0.03,0.08-0.05,0.16,0.07,0.18c0.02,0,0.03,0.02,0.02,0.04
		l-0.09,0.12c-0.09,0.15,0.06,0.11,0.11,0.15l0,0.05c-0.02,0.03-0.04,0.04-0.07,0.04c-0.21-0.04-0.42-0.01-0.64-0.02
		c-0.06,0-0.12,0-0.17-0.05C11.83,8.83,11.88,8.86,11.9,8.83z"/>
	<path class="st16" d="M18.44,11.24c-0.27-0.1-0.27-0.1-0.29-0.37c0-0.05-0.01-0.09-0.01-0.14c0-0.06,0-0.12,0-0.18
		c0.03-0.04,0.07-0.08,0.12-0.03c0.06,0.03,0.12,0.05,0.19,0.04c0.1,0,0.15,0.05,0.16,0.14c0.01,0.15,0.01,0.3,0,0.45
		C18.61,11.28,18.53,11.28,18.44,11.24L18.44,11.24z"/>
	<path class="st17" d="M18.15,10.1l-0.07,0c0.01-0.2,0.04-0.41,0.03-0.61c0-0.12,0-0.26-0.08-0.36c0.01-0.07,0.07-0.07,0.12-0.07
		c0.2-0.01,0.4-0.01,0.61,0c0.05,0,0.14,0,0.11,0.1c-0.06,0.04-0.01,0.09-0.01,0.13c0,0.05-0.01,0.11-0.05,0.16
		c-0.15-0.02-0.29-0.02-0.44-0.02c-0.17,0.01-0.18,0.02-0.19,0.2c0,0.11,0,0.22,0,0.33C18.19,10,18.19,10.06,18.15,10.1L18.15,10.1z
		"/>
	<path class="st18" d="M18.87,9.15c0-0.04-0.02-0.06-0.07-0.06c-0.24,0-0.49,0-0.73,0c-0.02,0-0.03,0.02-0.05,0.03
		c-0.09-0.04-0.1-0.12-0.08-0.2c0.03-0.1,0.12-0.09,0.2-0.09c0.09-0.04,0.17,0.01,0.27,0c0.14-0.01,0.27-0.02,0.39-0.09
		c0.01,0.03,0,0.07,0.04,0.09C19,8.91,19.01,9.03,18.87,9.15L18.87,9.15z"/>
	<path class="st19" d="M18,12.9c0,0.04,0.03,0.06,0.07,0.06c0.27,0,0.54,0,0.82,0c0.02,0,0.03-0.02,0.05-0.03
		c0.05,0.08,0.01,0.19,0.09,0.26c-0.03,0.03-0.07,0.04-0.11,0.04c-0.29,0.01-0.58,0.01-0.87,0c-0.04,0-0.08-0.01-0.1-0.04
		C17.97,13.09,17.89,12.97,18,12.9L18,12.9z"/>
	<path class="st20" d="M12.64,9.04c-0.04,0.11-0.02,0.35-0.07,0.46c-0.11-0.08-0.23-0.08-0.35-0.08c-0.11,0-0.23,0.03-0.34-0.03
		c-0.09-0.06-0.02-0.27-0.07-0.34"/>
	<path class="st21" d="M11.86,10.17l0.01-0.78c0.2,0,0.39,0,0.59-0.01c0.1,0,0.07,0.08,0.11,0.13c0,0.07,0,0.13,0,0.2
		c-0.02,0.09-0.01,0.18,0,0.27c0,0.05,0.02,0.09-0.02,0.14L11.86,10.17z"/>
	<path class="st22" d="M12.63,9.15c-0.01-0.05-0.04-0.06-0.08-0.06h-0.65c-0.04,0-0.08,0.01-0.08,0.06
		c-0.09-0.05-0.14-0.13-0.11-0.24c0.03-0.09,0.12-0.08,0.19-0.09l-0.06,0.05c0.29,0.03,0.57-0.02,0.85,0.04
		C12.73,9.01,12.7,9.08,12.63,9.15z"/>
	<path class="st23" d="M18.44,11.24c0.11,0.02,0.16-0.02,0.15-0.14c-0.01-0.12,0-0.24,0-0.36c0-0.11-0.04-0.17-0.16-0.17
		c-0.06,0-0.12,0-0.16-0.05l0.41,0.04c0.02-0.01,0.04,0,0.05,0.01c0.15,0.13,0.07,0.32,0.12,0.47c-0.03,0.12-0.02,0.24-0.02,0.36
		C18.68,11.38,18.57,11.29,18.44,11.24L18.44,11.24z"/>
	<path class="st24" d="M18.38,9.39c0.11,0,0.22,0,0.33,0c0.05,0,0.09,0.01,0.11,0.06l-0.01,0.69c-0.15,0.02-0.31,0.01-0.46-0.02
		c0.19-0.05,0.22-0.19,0.2-0.35c0-0.04,0-0.09,0-0.13c0.01-0.09-0.01-0.17-0.12-0.19C18.4,9.43,18.38,9.41,18.38,9.39L18.38,9.39z"
		/>
	<path class="st25" d="M17.85,13.55c-0.07-0.12-0.05-0.15,0.06-0.2c0.14-0.06,0.28-0.06,0.42-0.02c0.11,0.03,0.22,0.03,0.33-0.01
		c0.15-0.06,0.36,0,0.44,0.11c0.02,0.03,0.02,0.07,0.01,0.1"/>
	<path class="st26" d="M18.81,8.74c-0.2,0.21-0.43,0.14-0.66,0.09c0-0.07-0.04-0.13-0.1-0.17c0.2-0.13,0.43-0.12,0.65-0.09
		c0.05,0.01,0.11,0.04,0.14,0.09L18.81,8.74z"/>
	<path class="st27" d="M19.1,13.6c0.01,0.1,0.01,0.17-0.13,0.11c-0.12-0.05-0.26-0.04-0.38,0c-0.08,0.02-0.15,0.04-0.22,0.01
		c-0.15-0.06-0.29-0.06-0.44-0.01c-0.06,0.02-0.11,0.03-0.12-0.05c0-0.03-0.01-0.07,0.03-0.09c0.17-0.06,0.34-0.08,0.51-0.02
		c0.1,0.03,0.2,0.02,0.3-0.01C18.81,13.49,18.96,13.53,19.1,13.6L19.1,13.6z"/>
	<path class="st28" d="M12.82,13.21c0.07,0.15,0.06,0.33,0.04,0.52c-0.13-0.05-0.39-0.08-0.53-0.02c-0.08,0.03-0.16,0.02-0.24,0
		c-0.14-0.04-0.32-0.05-0.46,0c-0.15,0.02-0.04-0.47-0.05-0.52"/>
	<path class="st29" d="M18.34,8.6c-0.1,0-0.18,0.09-0.29,0.06C18.03,8.65,18.01,8.62,18,8.6C18,8.48,18.06,8.39,18.18,8.4
		c0.2,0.02,0.4-0.01,0.59,0.02c0.06,0.01,0.13,0.02,0.16,0.09c0.03,0.08-0.05,0.11-0.09,0.15l0,0L18.34,8.6L18.34,8.6z"/>
	<path class="st30" d="M18.85,8.66c0.1-0.15,0.08-0.2-0.1-0.2c-0.08,0-0.18-0.06-0.25,0.03c-0.07-0.07-0.17-0.02-0.25-0.04
		C18.12,8.41,18.03,8.48,18,8.6c-0.05-0.13-0.01-0.2,0.1-0.24c0.11-0.04,0.24-0.02,0.33-0.13c0.02-0.02,0.05-0.02,0.08,0
		c0.08,0.09,0.19,0.12,0.3,0.13c0.08,0.01,0.13,0.03,0.14,0.11C18.96,8.56,18.97,8.65,18.85,8.66L18.85,8.66z"/>
	<path class="st31" d="M17.83,13.6l-0.02,0.07c-0.01-0.15-0.02-0.29,0-0.43c0.01,0,0.02,0.01,0.03,0.01
		c0.28-0.08,0.57,0.08,0.86-0.01c0.14-0.04,0.28,0,0.4,0.08c0.01,0.04,0.01,0.09-0.01,0.13c-0.16-0.05-0.3-0.16-0.48-0.05
		c-0.09,0.05-0.21,0.04-0.31-0.01c-0.16-0.09-0.3,0-0.44,0.04c-0.06,0.02-0.04,0.09,0,0.13C17.87,13.57,17.84,13.58,17.83,13.6
		L17.83,13.6z"/>
	<path class="st32" d="M12.87,13.59c-0.06,0.01-0.11,0-0.17-0.02c-0.12-0.03-0.25-0.04-0.36,0.02c-0.05,0.02-0.11,0.03-0.17,0.02
		c-0.16-0.05-0.33-0.07-0.49-0.01c-0.03,0.01-0.07,0-0.1,0v-0.06c0.19-0.08,0.37-0.12,0.57-0.01c0.04,0.02,0.1,0.02,0.14,0
		c0.17-0.11,0.35-0.08,0.52-0.01c0.03,0.01,0.04-0.01,0.06-0.02C12.87,13.53,12.87,13.56,12.87,13.59z"/>
	<path class="st33" d="M15.63,6.54c-0.02,0-0.08,0.04-0.1,0.04c-0.04,0-0.06-0.04-0.1-0.04c-0.01,0-0.08,0-0.09,0
		c-0.03-0.01-0.19,0-0.22-0.02c-0.01-0.01,0.02-0.15,0.02-0.16c0.01-0.06,0.11-0.1,0.07-0.14c0.04-0.05,0.01-0.09-0.01-0.13
		c-0.04-0.09-0.02-0.16,0.06-0.21c0.06-0.03,0.11-0.05,0.15,0.02c0.04,0.07,0.14,0.13,0.02,0.21c-0.04,0.03-0.01,0.07,0.01,0.1
		c0,0.04-0.04,0.09,0,0.12c0.03,0.02,0.05-0.01,0.08-0.02C15.57,6.39,15.52,6.48,15.63,6.54L15.63,6.54z"/>
	<path class="st34" d="M19.1,13.31c-0.06-0.01-0.11,0-0.17-0.03c-0.09-0.04-0.17-0.04-0.26,0c-0.11,0.05-0.24,0.05-0.35,0.01
		c-0.13-0.05-0.26-0.06-0.39,0.01c-0.08,0.05-0.11,0.02-0.11-0.07c0.03-0.04,0.08-0.04,0.13-0.05l1.08,0
		C19.1,13.2,19.13,13.23,19.1,13.31L19.1,13.31z"/>
	<path class="st35" d="M11.58,13.3c0.19-0.04,0.37-0.08,0.57,0c0.08,0.03,0.18,0.01,0.27-0.02c0.07-0.02,0.15-0.05,0.23-0.02
		c0.05,0.02,0.14,0.04,0.12,0.1c-0.03,0.08-0.09,0-0.13-0.01c-0.05-0.02-0.11-0.03-0.16-0.01c-0.17,0.08-0.33,0.07-0.5,0
		c-0.07-0.03-0.16-0.03-0.24,0.02c-0.05,0.04-0.11,0.04-0.17,0.03L11.58,13.3L11.58,13.3z"/>
	<path class="st36" d="M17.83,13.6c0.01-0.02,0.02-0.04,0.02-0.06c0.13-0.07,0.27-0.08,0.42-0.04c0.11,0.03,0.21,0.06,0.32,0.01
		c0.17-0.08,0.34,0,0.51,0.02l0,0.07C18.68,13.56,18.26,13.56,17.83,13.6L17.83,13.6z"/>
	<path class="st37" d="M12.71,10.33c-0.15-0.08-0.04-0.13,0.02-0.18c0.01-0.01,0.02-0.03,0.03-0.05l0.09,0
		c-0.03,0.11,0.02,0.22,0,0.33"/>
	<path class="st38" d="M12.54,10.55c0.02,0.06,0,0.13,0.03,0.19v0c-0.01,0.1-0.04,0.21-0.01,0.31c0.02,0.06-0.03,0.07-0.07,0.08
		c-0.07,0-0.09-0.05-0.1-0.1c-0.01-0.13-0.02-0.26,0-0.39C12.4,10.56,12.44,10.5,12.54,10.55L12.54,10.55z"/>
	<path class="st39" d="M12.16,8.28c0,0.02,0,0.05,0,0.07c0.03,0.17-0.02,0.22-0.2,0.19c-0.05-0.04-0.09-0.1-0.13-0.15
		C11.92,8.29,12.06,8.35,12.16,8.28z M12.43,8.36C12.4,8.42,12.4,8.51,12.31,8.5c-0.07-0.01-0.1-0.08-0.08-0.16
		c0.02-0.06-0.03-0.06-0.07-0.07c0-0.04-0.01-0.09,0.05-0.1c0.04-0.01,0.06,0.03,0.07,0.07C12.29,8.32,12.4,8.29,12.43,8.36z"/>
	<path class="st40" d="M11.74,8.57c-0.03-0.09,0.01-0.15,0.09-0.18c0.09,0.01,0.11,0.08,0.13,0.15C11.96,8.54,11.74,8.57,11.74,8.57
		z"/>
	<path class="st41" d="M12.66,8.6c-0.02-0.01-0.03-0.02-0.05-0.03c-0.05-0.01-0.11,0-0.12-0.07c-0.02-0.07,0.04-0.1,0.08-0.13
		C12.66,8.42,12.74,8.48,12.66,8.6z"/>
	<path class="st42" d="M15.53,6.3c0,0.04,0,0.08-0.05,0.08c-0.04,0-0.08-0.02-0.09-0.06c-0.01-0.05-0.01-0.11,0.06-0.12
		C15.47,6.24,15.5,6.27,15.53,6.3L15.53,6.3z M15.21,6.21c0.13,0.01,0.1,0.08,0.06,0.15c-0.06,0.04-0.11,0.03-0.15-0.03
		C15.12,6.26,15.17,6.24,15.21,6.21z"/>
	<path class="st22" d="M12.68,8.86c-0.06,0-0.11-0.01-0.17-0.01c0-0.06,0.02-0.11,0.06-0.14C12.53,8.82,12.64,8.82,12.68,8.86z"/>
	<path class="st43" d="M16.26,12.17c-0.07-0.08-0.13-0.16-0.24-0.19c-0.13-0.04-0.12-0.19-0.16-0.29c-0.01-0.03,0.04-0.06,0.07-0.04
		c0.1,0.08,0.28,0.08,0.28,0.27c0,0.06,0.06,0.13,0.11,0.11c0.06-0.02,0.04-0.11,0.01-0.15c-0.06-0.09-0.09-0.16-0.02-0.26
		c0.03-0.04-0.02-0.09-0.05-0.12c-0.04-0.04-0.07,0-0.1,0.02c-0.05,0.05-0.13,0.06-0.17,0.02c-0.04-0.05,0-0.13,0.03-0.17
		c0.04-0.06,0.1,0,0.15,0c0.15-0.01,0.3,0.02,0.46,0c0.03,0,0.05-0.03,0.08-0.03c0.13,0,0.26,0.09,0.41,0.01
		c0.07-0.03,0.13,0.08,0.07,0.17c-0.06,0.09-0.06,0.17,0.01,0.25c0.02,0.03,0.03,0.07,0.02,0.1c-0.07,0.22,0,0.43-0.02,0.65
		c-0.01,0.16-0.09,0.33-0.17,0.46c-0.04,0.07-0.17,0.11-0.2,0.21c0,0.01-0.01,0.02-0.02,0.02c-0.17,0.02-0.34,0.13-0.52,0.08
		c0,0-0.01-0.01-0.01-0.01c-0.24,0.03-0.36-0.17-0.53-0.28c-0.02-0.01-0.06-0.04-0.06-0.06c0.02-0.18-0.09-0.33-0.09-0.51
		c0-0.15,0.04-0.31,0-0.46c-0.02-0.07-0.02-0.1,0.04-0.1c0.07,0,0.09-0.14,0.16-0.07c0.06,0.06-0.04,0.11-0.06,0.17
		c-0.02,0.06-0.03,0.13,0.02,0.18c0.03,0.04,0.09,0.05,0.12,0.03L16.26,12.17L16.26,12.17z"/>
	<path class="st44" d="M15.13,11.6c-0.2-0.12-0.29-0.31-0.28-0.53c0.01-0.22,0.09-0.4,0.3-0.5c0.2-0.1,0.47,0,0.59,0.22
		c0.15,0.3,0.05,0.67-0.22,0.81C15.38,11.65,15.26,11.67,15.13,11.6z"/>
	<path class="st45" d="M14.6,10.92c-0.38,0-1,0.02-0.99-0.09c0.01-0.09,0.05-1.5,0.2-1.71c0.08-0.12,0.9-0.1,1.01,0.02
		c0.06,0.07,0.34,1.03,0.02,1.37"/>
	<path class="st46" d="M14.91,13.34c-0.04,0.07-0.13,0.07-0.2,0.11c-0.07-0.01-0.05-0.07-0.05-0.11v-1.78c0-0.05-0.01-0.1,0.06-0.11
		c0.18,0.24,0.15,0.52,0.15,0.79c0,0.33,0,0.66,0,0.98C14.87,13.27,14.86,13.32,14.91,13.34z"/>
	<path class="st47" d="M15.18,13.04c-0.04-0.06-0.06-0.12-0.06-0.19c0-0.28-0.01-0.56-0.01-0.84c0-0.05-0.03-0.13,0.08-0.13
		c0.09,0,0.13,0.04,0.13,0.13c-0.01,0.22,0.02,0.43-0.01,0.65c-0.01,0.05,0,0.09,0.01,0.14c0.03,0.11-0.03,0.18-0.1,0.25
		C15.21,13.06,15.19,13.06,15.18,13.04L15.18,13.04z"/>
	<path class="st48" d="M16.69,9.71c-0.02-0.02-0.02-0.04-0.03-0.06c0-0.13-0.04-0.25,0.01-0.37c0.05-0.04,0.12-0.07,0.17-0.12
		c0.04,0.07,0.08,0.09,0.16,0.04c0.04-0.03,0.12-0.07,0.16-0.02c0.05,0.05,0.03,0.13-0.02,0.18C16.96,9.54,17,9.74,17.08,9.96
		c0.04,0.11-0.01,0.2-0.12,0.26c-0.17,0.09-0.17,0.09-0.06,0.25c0.05,0.07,0.02,0.12-0.03,0.17c-0.07-0.07-0.1-0.16-0.15-0.24
		c-0.06-0.1,0.04-0.15,0.1-0.21c-0.11-0.03-0.11-0.03-0.12-0.12"/>
	<path class="st49" d="M16.7,10.08c0.04,0.11,0.15,0.03,0.22,0.09c-0.04,0.03-0.09,0.05-0.13,0.09c-0.05,0.05-0.07,0.09-0.01,0.15
		c0.05,0.06,0.09,0.13,0.09,0.22l-0.01,0.2c-0.1,0.03-0.15-0.07-0.23-0.08c-0.04-0.11,0.07-0.09,0.11-0.15
		c-0.05-0.06-0.21,0.06-0.19-0.11c-0.03-0.04-0.02-0.09-0.01-0.14c0.03-0.2,0.03-0.2-0.17-0.22l-0.03-0.08
		c-0.04-0.06-0.09-0.11-0.02-0.18c0.08-0.08,0.17-0.07,0.27-0.05C16.67,9.89,16.7,9.98,16.7,10.08L16.7,10.08z"/>
	<path class="st50" d="M16.69,9.27v0.37c-0.12,0.17-0.19,0.19-0.38,0.07c-0.04-0.03-0.09-0.05-0.14-0.07
		c-0.05-0.02-0.08-0.06-0.03-0.11c0.05-0.01,0.11,0.01,0.14-0.06c0.03-0.08,0.09-0.14,0.12-0.22c0.02-0.06,0.15-0.05,0.23-0.07
		C16.68,9.2,16.71,9.22,16.69,9.27L16.69,9.27z"/>
	<path class="st51" d="M15.97,9.7L15.97,9.7c-0.09,0.01-0.14-0.03-0.18-0.1c-0.01-0.02-0.02-0.06-0.04-0.06
		c-0.12-0.01-0.14-0.04-0.11-0.18c0.02-0.09-0.01-0.14,0.11-0.11c0.03,0.01,0.04-0.01,0.06-0.03c0.03-0.03,0.05-0.07,0.09-0.03
		c0.03,0.02,0.04,0.06,0.02,0.09c-0.05,0.08,0.02,0.12,0.04,0.18"/>
	<path class="st49" d="M16.52,10.37c-0.04,0.01-0.05,0.04-0.05,0.08c-0.03,0.22-0.03,0.22-0.23,0.16c-0.05-0.01-0.1-0.03-0.12-0.07
		c-0.03-0.05-0.05-0.12,0.06-0.1c0.1,0.05,0.12-0.01,0.11-0.09c-0.01-0.06-0.04-0.12,0.02-0.15c0.07-0.03,0.14-0.04,0.21-0.01
		C16.63,10.23,16.53,10.3,16.52,10.37L16.52,10.37z"/>
	<path class="st52" d="M16.63,9.21c-0.07,0-0.11,0.09-0.19,0.04c-0.01-0.01-0.03,0.01-0.02,0.02c0.04,0.13-0.07,0.15-0.14,0.2
		c-0.03-0.07-0.1-0.07-0.15-0.11c-0.03-0.02-0.06-0.05-0.05-0.09c0.01-0.04,0.05-0.03,0.08-0.04c0.15-0.03,0.31-0.06,0.35-0.25
		C16.56,9.06,16.6,9.13,16.63,9.21L16.63,9.21z"/>
	<path class="st53" d="M15.94,10.02c-0.01,0.03-0.02,0.07-0.03,0.1c-0.02,0.06-0.04,0.07-0.1,0.03c-0.12-0.07-0.11-0.17-0.11-0.28
		c0-0.06,0.05-0.05,0.09-0.05c0.06,0,0.12,0.02,0.19,0.02c0.02,0.04-0.01,0.06-0.04,0.08C15.87,9.96,15.91,9.99,15.94,10.02z"/>
	<path class="st54" d="M16.17,10.43c-0.08,0.02-0.07,0.07-0.02,0.11c0.03,0.02,0.07,0.02,0.07,0.07c-0.08,0.14-0.06,0.12-0.18,0.03
		c-0.13-0.09-0.02-0.17-0.03-0.25c0-0.03,0.04-0.03,0.07-0.04C16.15,10.34,16.18,10.36,16.17,10.43L16.17,10.43z"/>
	<path class="st55" d="M15.94,10.02c-0.04-0.01-0.1,0.02-0.11-0.04c-0.01-0.05,0.04-0.07,0.08-0.08c0.03-0.01,0.05-0.03,0.06-0.06
		l0.02-0.02c0.07,0.04,0.14-0.07,0.22-0.01c0.02,0.02,0.06,0,0.06,0.04c0,0.03-0.03,0.04-0.06,0.05c-0.09,0.02-0.18,0.04-0.24,0.11
		L15.94,10.02L15.94,10.02z"/>
	<path class="st56" d="M15.97,9.7c-0.08-0.06-0.08-0.18-0.17-0.23c-0.02-0.01-0.04-0.03-0.02-0.06c0.02-0.03,0.04-0.01,0.06,0
		c0.04,0.04,0.08,0.06,0.13,0.05c0.02,0.03,0.08-0.01,0.09,0.05c0,0.02,0,0.05,0,0.07c0.02,0.04,0.07,0.06,0.04,0.11
		C16.06,9.75,16.01,9.7,15.97,9.7L15.97,9.7z"/>
	<path class="st57" d="M16.63,10.75c0.11-0.05,0.15,0.07,0.23,0.08c0,0.04-0.01,0.11-0.06,0.08C16.73,10.88,16.59,10.9,16.63,10.75
		L16.63,10.75z"/>
	<path class="st58" d="M14.91,7.87c-0.01-0.01-0.02-0.04-0.04-0.03c-0.01,0-0.01,0.02-0.01,0.04c-0.08,0.16-0.22,0.19-0.38,0.08
		c-0.05-0.11,0.03-0.13,0.11-0.16c0.04-0.02,0.08-0.05,0.09-0.11c-0.02-0.07-0.07-0.06-0.12-0.06c-0.03,0-0.08,0.01-0.08-0.05
		c-0.01-0.09-0.12-0.13-0.09-0.24c0.02-0.07,0.04-0.14,0.09-0.19c0.18-0.13,0.39-0.13,0.59-0.15c0.11,0.01,0.09,0.08,0.07,0.14
		s-0.03,0.12,0.05,0.15c0.12,0.06-0.05,0.13,0,0.2c0,0.08-0.08,0.05-0.12,0.07c-0.06,0.03-0.14,0.04-0.09,0.13
		c0.07,0.06,0.16,0.05,0.24,0.05c0.06,0.04,0.04,0.1,0.04,0.15l-0.03,0.03L14.91,7.87L14.91,7.87z"/>
	<path class="st8" d="M15.56,7.58c-0.13-0.06-0.15-0.16-0.06-0.28c0.03-0.04,0.04-0.09,0.03-0.14c-0.01-0.11,0.04-0.15,0.14-0.14
		c0.16-0.02,0.32-0.01,0.44,0.11c0.02,0.05,0.09,0.01,0.11,0.06c0.07,0.29,0.07,0.29-0.2,0.44c-0.08,0.04-0.1,0.09,0,0.14
		c0.01,0,0.03,0.01,0.04,0.02c0.07,0.03,0.19-0.01,0.14,0.13c-0.06,0.12-0.17,0.09-0.26,0.08c-0.08,0-0.1-0.07-0.11-0.14
		c-0.01-0.02,0-0.04-0.02-0.04c-0.02,0-0.02,0.03-0.03,0.04c-0.01,0.07-0.07,0.09-0.09,0.15l0,0c-0.12,0.02-0.21-0.04-0.26-0.14
		c-0.02-0.05-0.02-0.09,0.03-0.11c0.02-0.01,0.04-0.01,0.06-0.01c0.06-0.01,0.13,0,0.15-0.06C15.68,7.63,15.58,7.63,15.56,7.58z"/>
	<path class="st59" d="M13.38,7.55c-0.01-0.07,0.01-0.15,0.08-0.2c0.06-0.1,0.15-0.12,0.26-0.1c0.06,0.01,0.11,0,0.17-0.01
		c0.14-0.03,0.26-0.02,0.33,0.13c0.01,0.01,0.03,0.02,0.03,0.03c-0.04,0.11-0.02,0.23-0.11,0.32c-0.07,0.08-0.04,0.12,0.06,0.13
		c0.03,0,0.07-0.01,0.1,0c0.07,0.05,0.07,0.11,0.01,0.17c-0.11,0.12-0.14,0.12-0.35-0.02c-0.04,0.05,0,0.14-0.09,0.16
		c-0.06,0.01-0.1-0.01-0.14-0.05l-0.02-0.06c-0.2-0.03-0.24-0.11-0.3-0.28L13.38,7.55L13.38,7.55z"/>
	<path class="st58" d="M16.67,8.04c-0.15,0.09-0.22,0.09-0.33-0.03c-0.02-0.16-0.02-0.16,0.12-0.12c0.05,0.01,0.07-0.02,0.1-0.03
		c0.01-0.01,0.02-0.01,0.03-0.02c0.07-0.04,0.02-0.09-0.01-0.1c-0.13-0.05-0.15-0.17-0.2-0.28c0-0.01,0-0.03,0-0.04
		c0-0.02,0.02-0.03,0.04-0.04c0.06-0.14,0.17-0.17,0.3-0.14c0.06,0.01,0.11,0.02,0.17,0.01c0.13-0.02,0.24,0,0.31,0.13
		c0.09,0.07,0.05,0.19,0.09,0.28c0.01,0.02-0.2,0.17-0.24,0.16c-0.03,0-0.07-0.01-0.1-0.01c-0.05,0-0.1,0.01-0.12,0.07
		c-0.01,0.05,0.04,0.07,0.06,0.11c0.02,0.04,0.11,0.02,0.09,0.07c-0.02,0.05-0.07,0.1-0.15,0.1c-0.05,0-0.11,0.02-0.13-0.05
		c-0.01-0.02-0.02-0.04-0.03-0.07c0-0.01,0-0.02-0.01-0.02C16.67,8.02,16.67,8.03,16.67,8.04L16.67,8.04z"/>
	<path class="st60" d="M16.2,8.53c0.16,0.01,0.19,0.09-0.03,0.13c-0.17,0-0.82,0.04-0.82,0.04c-0.34,0-0.9-0.04-0.94-0.05
		c-0.19-0.05-0.22-0.11,0.11-0.17c0.15-0.01,0.47-0.05,0.83-0.05L16.2,8.53L16.2,8.53z"/>
	<path class="st61" d="M14.31,7.01c-0.01-0.11,0.07-0.26,0.19-0.3c0.18-0.06,0.36-0.06,0.54-0.02c0.07,0.02,0.11,0.06,0.12,0.12
		c0.01,0.08,0,0.14-0.08,0.17L14.31,7.01z"/>
	<path class="st62" d="M16.12,7.14c-0.14-0.06-0.29-0.08-0.44-0.11C15.66,6.96,15.54,7,15.53,6.91c-0.01-0.12-0.03-0.2,0.14-0.23
		c0.22-0.04,0.42-0.03,0.59,0.13c0.07,0.07,0.12,0.16,0.08,0.26C16.3,7.17,16.2,7.14,16.12,7.14L16.12,7.14z M17.21,7.38
		c-0.09-0.07-0.2-0.1-0.31-0.13c-0.07-0.04-0.14-0.05-0.22-0.05c-0.12,0.01-0.15-0.09-0.12-0.16c0.03-0.07,0.01-0.22,0.17-0.18
		c0.13,0.03,0.26,0.05,0.39,0.1c0.13,0.05,0.19,0.15,0.22,0.26C17.35,7.31,17.32,7.38,17.21,7.38L17.21,7.38z M13.73,7.25
		c-0.09,0.04-0.18,0.04-0.26,0.1c-0.04,0-0.1,0.05-0.13-0.01c-0.02-0.07-0.03-0.14,0.02-0.21c0.1-0.12,0.2-0.22,0.37-0.22
		c0.04,0,0.09-0.02,0.13-0.02c0.22-0.04,0.28,0.02,0.23,0.25c-0.01,0.07-0.06,0.06-0.11,0.07C13.89,7.2,13.8,7.19,13.73,7.25
		L13.73,7.25z"/>
	<path class="st63" d="M15.41,7.17c-0.01,0.05,0,0.12-0.09,0.12c-0.07,0-0.08-0.04-0.07-0.09c0.01-0.06,0.02-0.13,0.1-0.13
		C15.41,7.06,15.41,7.12,15.41,7.17L15.41,7.17z"/>
	<path class="st64" d="M15.51,8.25c-0.02,0.13-0.33,0.13-0.35,0C15.21,8.06,15.48,8.12,15.51,8.25z"/>
	<path class="st65" d="M15.91,8.36c-0.04-0.09-0.06-0.07,0-0.12c0.09-0.02,0.21-0.03,0.26,0.07l-0.03,0.04
		C16.06,8.4,15.99,8.41,15.91,8.36z"/>
	<path class="st66" d="M14.86,7.88c-0.03-0.02-0.07-0.04-0.04-0.09c0.01-0.01,0.03-0.02,0.05-0.02c0.06,0.02,0.05,0.06,0.04,0.1
		L14.86,7.88z"/>
	<path class="st67" d="M15.77,7.87c-0.01-0.04-0.02-0.09,0.02-0.12c0.01,0,0.03,0,0.04,0.01c0.04,0.04,0.03,0.08,0,0.11L15.77,7.87z
		"/>
	<path class="st63" d="M15.34,7.02c-0.04,0-0.05-0.03-0.05-0.06c0-0.01,0-0.02,0.01-0.03c0.01-0.01,0.02-0.01,0.03-0.01
		c0.03,0,0.06,0,0.06,0.04C15.38,6.99,15.36,7.01,15.34,7.02L15.34,7.02z"/>
	<path class="st68" d="M16.67,8.04c-0.03-0.04-0.04-0.08,0.01-0.11c0.01-0.01,0.04,0,0.05,0.01c0.03,0.05-0.02,0.06-0.04,0.09
		C16.68,8.04,16.68,8.04,16.67,8.04z"/>
	<path class="st4" d="M18.38,9.39c0.2,0,0.23,0.13,0.2,0.29c-0.01,0.06,0,0.13,0,0.19c0,0.22-0.02,0.24-0.24,0.24l-0.2-0.01
		c0-0.17,0-0.34,0-0.51C18.15,9.36,18.15,9.36,18.38,9.39L18.38,9.39z"/>
	<path class="st69" d="M18.72,10.57l-0.05-0.01c-0.01-0.03-0.02-0.07-0.06-0.07c-0.15-0.02-0.07-0.11-0.06-0.18
		c0.02-0.1,0.09-0.07,0.16-0.05c0.05,0.02,0.09,0.04,0.06,0.12C18.74,10.44,18.74,10.5,18.72,10.57L18.72,10.57z"/>
	<path class="st70" d="M19.08,10.51c0,0.04,0,0.08-0.01,0.11c-0.01,0.02-0.02,0.04-0.04,0.05c-0.01,0.01-0.05-0.01-0.05-0.02
		c0-0.1-0.15-0.1-0.13-0.18c0.02-0.07,0.1-0.11,0.17-0.1C19.09,10.39,19.11,10.45,19.08,10.51L19.08,10.51z"/>
	<path class="st71" d="M17.82,10.45c-0.1-0.04-0.15-0.12-0.19-0.21c-0.01-0.02,0-0.04,0.02-0.04c0.03-0.01,0.07-0.01,0.09,0.02
		c0.04,0.06,0.08,0.11,0.14,0.02c0.01-0.02,0.04-0.01,0.04,0.01c0.01,0.05-0.02,0.09-0.03,0.13C17.89,10.42,17.86,10.45,17.82,10.45
		L17.82,10.45z"/>
	<path class="st72" d="M18.48,10.21c-0.03,0.06-0.08,0.09-0.07,0.15c0,0.03,0,0.06-0.04,0.06c-0.03,0-0.04-0.03-0.05-0.07
		C18.29,10.23,18.33,10.19,18.48,10.21L18.48,10.21z"/>
	<path class="st73" d="M18.06,10.2c0.06,0.07,0.07,0.13,0.03,0.2c0,0.01-0.03,0.01-0.04,0C18.01,10.34,18.02,10.28,18.06,10.2z"/>
	<path class="st4" d="M18.58,12.66c-0.11,0-0.22,0.01-0.33,0.01c-0.06,0-0.1-0.02-0.1-0.09c0-0.32,0-0.64,0-0.96
		c0-0.04,0.02-0.06,0.05-0.08c0.13,0.04,0.25,0.08,0.36,0.15"/>
	<path class="st74" d="M18.81,12.45c0,0.23,0,0.23-0.23,0.21c-0.01-0.32,0.03-0.64-0.02-0.96c0.09,0.02,0.18,0.04,0.25,0.1
		L18.81,12.45z"/>
	<path class="st75" d="M12.34,12.66c-0.43,0.02-0.43,0.02-0.44-0.41c0-0.15,0-0.31,0-0.46c0.07-0.08,0.19-0.06,0.27-0.12
		c0.19-0.03,0.22-0.01,0.22,0.17c0,0.22,0,0.44,0,0.65C12.38,12.56,12.38,12.62,12.34,12.66L12.34,12.66z"/>
	<path class="st76" d="M12.1,11.32c-0.21,0.05-0.21,0.05-0.21-0.17c0-0.12,0-0.25,0-0.37c0-0.12,0.04-0.2,0.18-0.21
		c0.31-0.04,0.31-0.03,0.3,0.27c0,0.12,0.04,0.25-0.04,0.37C12.26,11.25,12.18,11.29,12.1,11.32L12.1,11.32z"/>
	<path class="st77" d="M12.34,12.66c0-0.27-0.01-0.55,0.01-0.82c0.01-0.14-0.04-0.19-0.18-0.17c0.09-0.04,0.18-0.1,0.29-0.12
		c0.04,0.04,0.04,0.09,0.04,0.15v0.81c0,0.05,0,0.11-0.04,0.15C12.41,12.66,12.37,12.66,12.34,12.66L12.34,12.66z"/>
	<path class="st78" d="M14.72,8.37c-0.07,0-0.13,0.02-0.22-0.05c0.06-0.11,0.17-0.11,0.25-0.08C14.78,8.27,14.74,8.35,14.72,8.37z"
		/>
	<path class="st75" d="M12.05,10.14c-0.09,0-0.12-0.04-0.12-0.12c0-0.17,0-0.34,0-0.5c0-0.07,0.03-0.1,0.1-0.1
		c0.31-0.02,0.31-0.02,0.31,0.28c0,0.05-0.01,0.11,0,0.16c0.02,0.13-0.02,0.21-0.15,0.26C12.15,10.14,12.1,10.14,12.05,10.14
		L12.05,10.14z"/>
	<path class="st72" d="M11.85,10.27c0.04,0,0.08,0.01,0.1,0.05c0.03,0.04,0,0.07-0.03,0.1c-0.01,0.01-0.03,0.02-0.04,0.04
		c-0.02,0.04,0.02,0.14-0.07,0.11c-0.08-0.03-0.1-0.13-0.1-0.21C11.71,10.28,11.79,10.29,11.85,10.27L11.85,10.27z"/>
	<path class="st79" d="M12.56,10.16c0.04,0.1-0.03,0.17-0.07,0.25c-0.02,0.04-0.07,0.06-0.11,0.02c-0.04-0.05-0.11-0.12-0.08-0.19
		c0.03-0.07,0.07-0.01,0.11,0.01C12.51,10.31,12.49,10.16,12.56,10.16z"/>
	<path class="st80" d="M12.23,10.48c-0.05,0.02-0.09,0.02-0.13,0c-0.09-0.04-0.08-0.12-0.08-0.2c0-0.03,0-0.07,0.03-0.07
		c0.08,0,0.06,0.09,0.09,0.13C12.18,10.37,12.2,10.43,12.23,10.48L12.23,10.48z"/>
	<path class="st81" d="M13.27,8.92c0.01-0.07,0.07-0.06,0.11-0.06c0.6,0,1.2,0,1.8,0c0.1,0,0.12,0.03,0.12,0.13
		c0,0.41,0,0.82,0,1.24c0,0.07-0.01,0.11-0.09,0.13c-0.12,0.03-0.23,0.09-0.35,0.14c-0.07,0-0.12-0.01-0.11-0.1
		c0.01-0.19,0-0.37,0.05-0.56c0.03-0.1,0.06-0.21-0.07-0.29c-0.06-0.04,0.06-0.11,0.03-0.18c-0.04-0.06-0.1-0.04-0.16-0.05
		c-0.07-0.01-0.13-0.02-0.12-0.12c0.01-0.12-0.09-0.13-0.18-0.13c-0.09,0-0.15,0.03-0.13,0.14c0.01,0.03-0.01,0.07-0.04,0.09
		c-0.08,0.04-0.19-0.02-0.26,0.05c0,0.05-0.01,0.1,0.01,0.14c0.02,0.05,0,0.07-0.04,0.1c-0.09,0.06-0.12,0.17-0.05,0.25
		c0.09,0.11,0.08,0.22,0.08,0.34c0,0.11,0,0.22,0,0.33c-0.2-0.03-0.13,0.12-0.14,0.22c-0.02,0.11,0.04,0.14,0.14,0.13
		c0.1-0.01,0.19,0,0.29,0c0.13,0.06,0.26,0.01,0.4,0.03c0.05,0.01,0.12-0.02,0.13,0.07c0.01,0.08-0.03,0.13-0.1,0.15
		c-0.08,0.02-0.16,0.04-0.24,0.04c-0.3,0-0.59,0-0.89,0c-0.13,0-0.17-0.04-0.17-0.17c0.01-0.26,0-0.51,0-0.77
		C13.27,9.77,13.27,9.34,13.27,8.92L13.27,8.92z"/>
	<path class="st82" d="M13.95,12.79l-0.01-1.62c0.2,0.02,0.2,0.03,0.2,0.22v2.03c0,0.05-0.02,0.07-0.07,0.07
		c-0.06,0-0.08-0.03-0.08-0.08c0-0.16,0-0.33,0-0.49C13.99,12.86,14.02,12.8,13.95,12.79L13.95,12.79z"/>
	<path class="st83" d="M14.63,13.48l-0.06,0.03c-0.16,0.02-0.16,0.02-0.16-0.13v-2.06c0-0.06,0-0.12,0.04-0.16
		c0.11-0.02,0.15,0.02,0.15,0.14c0,0.65,0,1.3,0,1.96C14.6,13.33,14.61,13.41,14.63,13.48z"/>
	<path class="st84" d="M13.85,13.42c-0.06-0.03-0.09-0.08-0.09-0.16c0-0.64,0-1.28,0-1.93c0-0.02,0-0.05,0-0.07
		c0-0.04,0.02-0.08,0.07-0.07c0.04,0,0.04,0.04,0.04,0.08c0,0.12-0.01,0.23,0,0.35c0.02,0.33,0,0.65,0,0.98c0,0.07,0,0.13,0.06,0.19
		c0,0.18,0,0.37,0,0.55C13.93,13.39,13.93,13.44,13.85,13.42L13.85,13.42z"/>
	<path class="st85" d="M14.15,10.81c0-0.03,0-0.07,0.01-0.1c0.01-0.07-0.04-0.17,0.08-0.18c0.14-0.01,0.19,0.04,0.19,0.2
		c0,0.03,0,0.06,0.01,0.09C14.35,10.85,14.25,10.85,14.15,10.81z"/>
	<path class="st86" d="M14.2,13.51c0-0.73,0-1.47,0-2.2c0-0.07-0.01-0.13,0.09-0.12c0.09,0,0.08,0.06,0.08,0.12
		c0,0.74,0,1.49,0,2.23l-0.08,0.01L14.2,13.51z"/>
	<path class="st87" d="M15.42,13.47c0.05,0.13,0.11,0.02,0.17,0.01c0.07,0,0.14,0,0.2,0.01c0.07,0.01,0.08,0.06,0.02,0.1
		c-0.04,0.03-0.09,0.06-0.15,0.06c-0.11,0-0.23-0.05-0.31,0.08c-0.01,0.02-0.05-0.08-0.06-0.1c-0.01-0.02-0.12,0.06-0.27,0.06
		c-0.07-0.02-0.13-0.14-0.01-0.19c0.06,0,0.32,0.04,0.31-0.02C15.36,13.46,15.39,13.45,15.42,13.47z"/>
	<path class="st88" d="M15.24,6.53c-0.04-0.12,0.06-0.09,0.11-0.11c0.01,0,0.02,0,0.03,0c0.06,0.07,0.07,0.12-0.04,0.12
		C15.31,6.54,15.27,6.53,15.24,6.53L15.24,6.53z"/>
	<path class="st89" d="M13.71,7.72c0.01,0,0.03,0,0.04,0c0.05,0,0.14-0.02,0.14,0.05c0,0.06-0.02,0.15-0.13,0.15
		c-0.06,0-0.12-0.02-0.14-0.08C13.61,7.77,13.69,7.76,13.71,7.72z"/>
	<path class="st90" d="M16.35,12.52c0,0.04,0,0.09-0.03,0.13c-0.06,0.08-0.06,0.16,0,0.24c0.03,0.04,0.03,0.08,0.03,0.13
		c0,0.04,0,0.09-0.05,0.11c-0.04,0.02-0.09,0.01-0.12-0.03c-0.04-0.05-0.1-0.07-0.16-0.09c-0.05-0.02-0.11-0.02-0.11-0.09
		c0-0.08,0.02-0.16,0.09-0.19c0.12-0.04,0.21-0.1,0.23-0.24c0-0.03,0.04-0.09,0.09-0.07C16.37,12.43,16.34,12.49,16.35,12.52
		L16.35,12.52z"/>
	<path class="st91" d="M16.49,12.42c0.1,0.04,0.03,0.18,0.11,0.23c0.08,0.04,0.18,0.05,0.24,0.12c0.07,0.08,0.04,0.2-0.07,0.23
		c-0.07,0.02-0.13,0.04-0.18,0.08c-0.1,0.07-0.19,0.03-0.15-0.07c0.08-0.2,0.01-0.39,0.03-0.59C16.47,12.43,16.48,12.42,16.49,12.42
		L16.49,12.42z"/>
	<path class="st92" d="M16.51,12.15c0.05-0.07,0.1-0.13,0.18-0.15c0.09-0.03,0.15-0.08,0.15-0.19c0-0.05,0.04-0.08,0.07-0.11
		c0.03-0.03,0.05-0.1,0.11-0.07c0.05,0.03-0.01,0.07-0.02,0.11c-0.01,0.08-0.03,0.16,0.04,0.23c0.04,0.04,0.02,0.09,0,0.13
		c-0.03,0.04-0.08,0.09-0.11,0.07c-0.14-0.11-0.26-0.01-0.4,0l-0.01-0.01V12.15L16.51,12.15z"/>
	<path class="st93" d="M16.92,11.52c-0.04,0.1-0.09,0.19-0.2,0.22c-0.09,0.03-0.15,0.08-0.15,0.18c0,0.05-0.04,0.11-0.1,0.09
		c-0.05-0.02-0.05-0.09-0.02-0.13c0.06-0.09,0.04-0.17,0.02-0.26c-0.03-0.09,0.04-0.15,0.12-0.11C16.7,11.59,16.8,11.56,16.92,11.52
		L16.92,11.52z"/>
	<path class="st94" d="M15.89,12.29c0.12,0.03,0.25,0.03,0.37,0l0,0c-0.03,0.06-0.07,0.11-0.13,0.13c-0.11,0.05-0.2,0.11-0.21,0.24
		c0,0.04-0.06,0.1-0.12,0.08c-0.06-0.02-0.04-0.08-0.03-0.13c0.02-0.06,0.04-0.11,0-0.16L15.89,12.29L15.89,12.29z"/>
	<path class="st95" d="M17.04,12.39c-0.07,0.09-0.07,0.2-0.04,0.32c0.01,0.02-0.02,0.04-0.05,0.04c-0.06,0-0.11-0.03-0.11-0.08
		c0-0.16-0.09-0.23-0.22-0.27c-0.03-0.01-0.08-0.04-0.06-0.08c0.02-0.05,0.07-0.01,0.1,0c0.08,0.01,0.15-0.01,0.23-0.02
		C16.96,12.28,17.03,12.28,17.04,12.39L17.04,12.39z"/>
	<path class="st96" d="M16.51,12.15c0,0.01,0,0.01,0.01,0.02c-0.02,0.19-0.08,0.21-0.26,0.11l0,0v-0.12l0,0
		C16.34,12.1,16.42,12.05,16.51,12.15L16.51,12.15z"/>
	<path class="st97" d="M14.08,9.97c0.03,0.06,0.07,0.11,0.07,0.18c0,0.1-0.03,0.14-0.13,0.14c-0.15-0.03-0.08-0.15-0.08-0.23
		C13.93,9.96,14.01,9.96,14.08,9.97z"/>
	<path class="st98" d="M14.57,10.29l-0.11-0.01c0-0.06-0.01-0.11-0.01-0.17c0-0.06,0.01-0.12,0.09-0.12c0.07,0,0.12,0.04,0.12,0.09
		C14.67,10.16,14.69,10.26,14.57,10.29z"/>
	<path class="st99" d="M14.6,9.76c-0.06,0-0.08-0.04-0.08-0.09c0-0.04,0-0.11,0.05-0.12c0.06-0.01,0.09,0.04,0.1,0.1
		C14.69,9.71,14.65,9.74,14.6,9.76z"/>
	<path class="st100" d="M13.96,9.54c0.05,0.02,0.08,0.04,0.09,0.09c0.01,0.04,0.01,0.09-0.05,0.1c-0.05,0.01-0.06-0.03-0.06-0.07
		C13.93,9.62,13.93,9.57,13.96,9.54z"/>
	<path class="st101" d="M14.28,9.61c0.03,0,0.06,0.01,0.06,0.05c0,0.04-0.01,0.08-0.06,0.08c-0.04,0-0.05-0.04-0.05-0.07
		C14.22,9.63,14.24,9.61,14.28,9.61z"/>
	<path class="st102" d="M15.57,10.78c0.02,0.02,0.04,0.03,0.06,0.05c0.03,0.06,0.1,0.15,0.08,0.19c-0.03,0.06-0.08,0.11-0.09,0.18
		c0,0.01-0.04,0.02-0.06,0.02c-0.11-0.02-0.11-0.15-0.12-0.22C15.41,10.93,15.5,10.84,15.57,10.78L15.57,10.78z"/>
	<path class="st103" d="M15.36,11.15c0.06,0.04,0.07,0.12,0.1,0.18c0.05,0.09-0.05,0.17-0.09,0.24c-0.02,0.04-0.1,0.01-0.11-0.03
		c-0.02-0.08-0.13-0.17-0.01-0.25c0.04-0.02,0.04-0.05,0.04-0.09C15.3,11.18,15.31,11.16,15.36,11.15L15.36,11.15z"/>
	<path class="st104" d="M15.27,10.7c0,0.17,0,0.4-0.13,0.39c-0.06,0-0.05-0.08-0.08-0.1C14.9,10.86,15.19,10.58,15.27,10.7"/>
	<path class="st105" d="M15.57,13.41c-0.04,0.06-0.24,0.05-0.37,0.03c-0.07-0.01-0.09-0.17-0.02-0.19c0.17-0.06,0.17-0.06,0.37-0.03
		C15.58,13.29,15.61,13.33,15.57,13.41L15.57,13.41z"/>
	<path class="st106" d="M15.31,13.43c-0.02-0.08-0.02-0.16,0.02-0.24c0.05-0.01,0.06,0.03,0.08,0.06c0.06,0.07,0.02,0.15,0.01,0.23
		l-0.09,0L15.31,13.43L15.31,13.43z"/>
	<path class="st107" d="M16.61,9.85c0.05-0.04,0.05-0.1,0.09-0.15c0.1-0.03,0.1-0.11,0.08-0.18c-0.02-0.05-0.03-0.1,0-0.15
		c0.02-0.05,0.07-0.08,0.12-0.06c0.06,0.02,0.04,0.07,0.03,0.11c-0.03,0.14-0.02,0.28,0.01,0.43c0.04,0.25,0.01,0.28-0.23,0.24
		C16.66,10,16.62,9.93,16.61,9.85z"/>
	<path class="st108" d="M16.36,7.79c-0.01,0-0.03,0-0.04,0c-0.07,0-0.14-0.01-0.13-0.11c0.01-0.06,0.06-0.09,0.11-0.06
		c0.06,0.03,0.16,0.06,0.09,0.17C16.38,7.79,16.37,7.79,16.36,7.79z"/>
	<path class="st58" d="M15.24,7.69c0-0.02,0-0.04,0-0.05c0.04,0,0.08-0.05,0.12,0c0.02,0.02,0.02,0.04,0,0.06
		C15.32,7.74,15.28,7.72,15.24,7.69L15.24,7.69z"/>
</g>
</svg>
