<?xml version="1.0" encoding="utf-8"?>
<!-- Generator: Adobe Illustrator 22.1.0, SVG Export Plug-In . SVG Version: 6.00 Build 0)  -->
<svg version="1.1" id="图层_1" xmlns="http://www.w3.org/2000/svg" xmlns:xlink="http://www.w3.org/1999/xlink" x="0px" y="0px"
	 viewBox="0 0 50 50" style="enable-background:new 0 0 50 50;" xml:space="preserve">
<style type="text/css">
	.st0{fill:#38508E;}
	.st1{fill:#FFFFFF;}
</style>
<path class="st0" d="M46.5,50h-43c-2,0-3.5-1.5-3.5-3.5v-43C0,1.5,1.5,0,3.5,0h43.2C48.5,0,50,1.5,50,3.5v43.2
	C50,48.5,48.5,50,46.5,50z"/>
<path class="st1" d="M32.9,50V31.4h6.3l0.9-7.3h-7.2v-4.8c0-2.4,1.2-3.5,3.7-3.5h3.8V9.3C39,9.1,37.2,9,34.7,9c-2.8,0-5,0.9-6.8,2.5
	c-1.7,1.7-2.5,4.1-2.5,7.1V24h-6.3v7.3h6.3V50H32.9z"/>
</svg>
