<?xml version="1.0" encoding="utf-8"?>
<!-- Generator: Adobe Illustrator 22.1.0, SVG Export Plug-In . SVG Version: 6.00 Build 0)  -->
<svg version="1.1" id="图层_1" xmlns="http://www.w3.org/2000/svg" xmlns:xlink="http://www.w3.org/1999/xlink" x="0px" y="0px"
	 viewBox="0 0 50 50" style="enable-background:new 0 0 50 50;" xml:space="preserve">
<style type="text/css">
	.st0{fill:#0073B0;}
	.st1{fill:#FFFFFF;}
</style>
<path class="st0" d="M46.8,50H3.2C1.4,50,0,48.6,0,46.8V3.2C0,1.4,1.4,0,3.2,0h43.7C48.6,0,50,1.4,50,3.2v43.7
	C50,48.6,48.6,50,46.8,50z"/>
<path class="st1" d="M16.8,20v19.4h-6.4V20H16.8z M17.2,14c0,1-0.3,1.7-1,2.4c-0.7,0.6-1.6,1-2.6,1h0c-1.1,0-1.9-0.3-2.6-1
	c-0.7-0.6-1-1.4-1-2.4c0-1,0.3-1.8,1-2.4c0.7-0.6,1.5-0.9,2.6-0.9s1.9,0.3,2.6,0.9C16.9,12.2,17.2,13,17.2,14L17.2,14z M40,28.2
	v11.1h-6.4V29c0-1.4-0.3-2.4-0.8-3.2c-0.5-0.8-1.4-1.2-2.5-1.2c-0.8,0-1.5,0.2-2.1,0.7c-0.6,0.4-1,1-1.2,1.7
	c-0.1,0.4-0.2,0.9-0.2,1.6v10.8h-6.4c0-5.2,0-9.4,0-12.6s0-5.2,0-5.8l0-0.9h6.4v2.8h0c0.3-0.4,0.5-0.8,0.8-1.1
	c0.3-0.3,0.6-0.7,1.1-1c0.5-0.4,1-0.6,1.7-0.8c0.7-0.2,1.4-0.3,2.2-0.3c2.2,0,4,0.7,5.4,2.2C39.3,23.2,40,25.4,40,28.2L40,28.2z"/>
</svg>
