<?xml version="1.0" encoding="utf-8"?>
<!-- Generator: Adobe Illustrator 22.1.0, SVG Export Plug-In . SVG Version: 6.00 Build 0)  -->
<svg version="1.1" xmlns="http://www.w3.org/2000/svg" xmlns:xlink="http://www.w3.org/1999/xlink" x="0px" y="0px"
	 viewBox="0 0 544.8 544.8" style="enable-background:new 0 0 544.8 544.8;" xml:space="preserve">
<style type="text/css">
	.st0{display:none;fill:url(#SVGID_1_);}
	.st1{fill:#38508E;}
	.st2{fill:url(#SVGID_2_);}
	.st3{fill-rule:evenodd;clip-rule:evenodd;fill:#FFFFFF;}
</style>
<g id="_x31_3">
	<g>
		<linearGradient id="SVGID_1_" gradientUnits="userSpaceOnUse" x1="468.6705" y1="450.2077" x2="67.6829" y2="86.9394">
			<stop  offset="0" style="stop-color:#FEC053"/>
			<stop  offset="0.3273" style="stop-color:#F2203E"/>
			<stop  offset="0.6485" style="stop-color:#B729A8"/>
			<stop  offset="1" style="stop-color:#5342D6"/>
		</linearGradient>
		<path class="st0" d="M467.7-20.6H77.1c-53.7,0-97.7,44-97.7,97.7v390.6c0,53.7,44,97.7,97.7,97.7h390.6c53.7,0,97.7-44,97.7-97.7
			V77.1C565.4,23.4,521.4-20.6,467.7-20.6z M544.4,508.5c0,19.6-16.3,35.9-38.1,35.9H38.5c-21.8,0-38.1-16.3-38.1-38.1V38.5
			c0-21.8,16.3-38.1,38.1-38.1h470c19.6,0,35.9,16.3,35.9,38.1V508.5z"/>
		<path class="st1" d="M508.5,0.4h-470C16.7,0.4,0.4,16.7,0.4,38.5v467.8c0,21.8,16.3,38.1,38.1,38.1h467.8
			c21.8,0,38.1-16.3,38.1-35.9v-470C544.4,16.7,528.1,0.4,508.5,0.4z"/>
		<linearGradient id="SVGID_2_" gradientUnits="userSpaceOnUse" x1="468.747" y1="450.1233" x2="67.7594" y2="86.855">
			<stop  offset="0" style="stop-color:#FEC053"/>
			<stop  offset="0.3273" style="stop-color:#F2203E"/>
			<stop  offset="0.6485" style="stop-color:#B729A8"/>
			<stop  offset="1" style="stop-color:#5342D6"/>
		</linearGradient>
		<path class="st2" d="M508.5,0.4h-470C16.7,0.4,0.4,16.7,0.4,38.5v467.8c0,21.8,16.3,38.1,38.1,38.1h467.8
			c21.8,0,38.1-16.3,38.1-35.9v-470C544.4,16.7,528.1,0.4,508.5,0.4z"/>
	</g>
	<g>
		<g>
			<path class="st3" d="M399.2,272.4c0-70-56.7-126.8-126.8-126.8c-70,0-126.8,56.7-126.8,126.8c0,70,56.7,126.8,126.8,126.8
				C342.4,399.2,399.2,342.4,399.2,272.4L399.2,272.4z M396.8,128.4c-11.3,0-20.4,9.2-20.4,20.4c0,11.3,9.1,20.4,20.4,20.4
				c11.2,0,20.4-9.1,20.4-20.4C417.2,137.6,408,128.4,396.8,128.4L396.8,128.4z M168.8,99.1H376c38.4,0,69.7,31.4,69.7,69.7V376
				c0,38.4-31.3,69.7-69.7,69.7H168.8c-38.3,0-69.7-31.3-69.7-69.7V168.8C99.1,130.5,130.5,99.1,168.8,99.1L168.8,99.1z M376,75.9
				H168.8c-51.1,0-92.9,41.8-92.9,92.9V376c0,51.2,41.8,92.9,92.9,92.9H376c51.2,0,92.9-41.7,92.9-92.9V168.8
				C468.9,117.7,427.2,75.9,376,75.9L376,75.9z M171.9,272.4c0-55.5,45-100.5,100.5-100.5s100.5,45,100.5,100.5
				c0,55.5-45,100.4-100.5,100.4S171.9,327.9,171.9,272.4L171.9,272.4z"/>
		</g>
	</g>
</g>
<g id="Layer_1">
</g>
</svg>
