<?xml version="1.0" encoding="utf-8"?>
<!-- Generator: Adobe Illustrator 23.0.0, SVG Export Plug-In . SVG Version: 6.00 Build 0)  -->
<svg version="1.1" id="图层_1" xmlns="http://www.w3.org/2000/svg" xmlns:xlink="http://www.w3.org/1999/xlink" x="0px" y="0px"
	 viewBox="0 0 30 20" style="enable-background:new 0 0 30 20;" xml:space="preserve">
<style type="text/css">
	.st0{fill:#353636;}
	.st1{fill:#FFFFFF;}
	.st2{fill:#CC303C;}
	.st3{fill:#005C9E;}
	.st4{fill:#231815;}
</style>
<g>
	<path class="st0" d="M-0.87,20.57h31.74v-21.1H-0.87V20.57z M-1,20.7V-0.7h32v21.36H-1V20.7z"/>
	<path class="st1" d="M-0.92-0.62h31.87v21.24H-0.92L-0.92-0.62z"/>
	<path class="st2" d="M20.21,9.51c0.26,2.88-1.87,5.44-4.75,5.7s-5.44-1.87-5.7-4.75c-0.26-2.88,1.87-5.43,4.75-5.7
		C17.4,4.5,19.95,6.63,20.21,9.51C20.21,9.51,20.21,9.51,20.21,9.51z"/>
	<path class="st3" d="M10.52,7.28c-0.75,1.24-0.35,2.85,0.9,3.6s2.85,0.35,3.6-0.9c0.82-1.19,2.45-1.5,3.64-0.68
		c1.1,0.75,1.46,2.21,0.84,3.38c-1.5,2.47-4.73,3.26-7.2,1.76c-2.46-1.46-3.28-4.64-1.81-7.11C10.5,7.32,10.51,7.3,10.52,7.28
		L10.52,7.28z"/>
	<path class="st4" d="M3.87,5.78L6.8,1.43l0.68,0.45L4.54,6.23L3.87,5.78z M4.92,6.49l2.94-4.35l0.68,0.46L5.59,6.94L4.92,6.49z
		 M5.96,7.2l0.68,0.45l2.94-4.36L8.89,2.81L5.96,7.2z M21.99,14.35l1.37-2.02l0.67,0.45l-1.37,2.02L21.99,14.35z M20.42,16.73
		l1.36-2.02l0.68,0.45l-1.36,2.02L20.42,16.73z M23.03,15.08l1.37-2.02l0.68,0.46l-1.37,2.02L23.03,15.08z M21.47,17.42l0.68,0.45
		l1.36-2.02l-0.68-0.45L21.47,17.42z M24.08,15.79l1.36-2.02l0.67,0.45l-1.36,2.02L24.08,15.79z M22.5,18.12l1.36-2.03l0.68,0.45
		l-1.36,2.02L22.5,18.12z M24.41,6.94L25.1,6.5l-2.94-4.36l-0.68,0.45L24.41,6.94z M22.51,1.87l0.67-0.45l1.37,2.02L23.87,3.9
		L22.51,1.87z M24.1,4.23l0.68-0.45l1.37,2.02l-0.67,0.46L24.1,4.23z M20.42,3.29l0.67-0.46l1.36,2.03l-0.68,0.45L20.42,3.29z
		 M21.99,5.63l0.68-0.45l1.36,2.02l-0.67,0.46L21.99,5.63z M5.94,12.8l0.67-0.45l2.94,4.35l-0.68,0.46L5.94,12.8z M3.86,14.2
		l0.68-0.45l2.93,4.35l-0.68,0.45L3.86,14.2z M4.9,13.52l0.68-0.45l1.36,2.02l-0.68,0.45L4.9,13.52z M7.84,17.86l0.68-0.45
		l-1.36-2.02l-0.68,0.45L7.84,17.86z"/>
</g>
</svg>
