<?xml version="1.0" encoding="utf-8"?>
<!-- Generator: Adobe Illustrator 22.1.0, SVG Export Plug-In . SVG Version: 6.00 Build 0)  -->
<svg version="1.1" id="图层_1" xmlns="http://www.w3.org/2000/svg" xmlns:xlink="http://www.w3.org/1999/xlink" x="0px" y="0px"
	 viewBox="0 0 242 51" style="enable-background:new 0 0 242 51;" xml:space="preserve">
<style type="text/css">
	.st0{fill:#00A99D;}
	.st1{fill:#000101;}
	.st2{enable-background:new    ;}
	.st3{fill:#B3B3B3;}
	.st4{fill:#C0C0C0;}
</style>
<g>
	<polygon id="XMLID_63_" class="st0" points="23.3,15.2 25.7,15.2 25.7,11.6 31.8,11.6 31.8,31.2 25.7,31.2 25.7,25.7 29.7,25.7 
		29.7,17.3 13.2,17.3 13.2,25.7 17.1,25.7 17.1,31.2 11.1,31.2 11.1,11.6 17.2,11.6 17.2,15.2 19.6,15.2 19.6,9 8.6,9 8.6,33.8 
		19.6,33.8 19.6,23.2 15.8,23.2 15.8,19.8 27.1,19.8 27.1,23.2 23.3,23.2 23.3,33.7 34.3,33.7 34.3,9 23.3,9 	"/>
	<path id="XMLID_60_" class="st0" d="M21.6,43.3C9.7,43.3,0,33.6,0,21.6S9.7,0,21.6,0s21.6,9.7,21.6,21.6S33.6,43.3,21.6,43.3
		 M21.6,1.8c-11,0-19.8,8.9-19.8,19.8s8.9,19.8,19.8,19.8s19.8-8.9,19.8-19.8S32.6,1.8,21.6,1.8"/>
	<polygon id="XMLID_59_" class="st0" points="17.8,35.3 17.8,38.4 17.4,38.4 17.4,35.9 17.1,36.2 16.8,35.9 17.4,35.3 	"/>
	<path id="XMLID_56_" class="st0" d="M19.8,36.3c0.1,0,0.3,0,0.5,0.1c0.1,0,0.3,0.1,0.4,0.3c0.1,0.1,0.2,0.2,0.2,0.4s0.1,0.3,0,0.5
		c0,0.1,0,0.3-0.1,0.4c0,0.1-0.1,0.2-0.2,0.4c-0.1,0.1-0.2,0.2-0.4,0.2c-0.2,0-0.3,0.1-0.4,0.1h-0.1c-0.1,0-0.3,0-0.4-0.1
		c-0.1,0-0.2-0.1-0.4-0.3l0,0l0,0c-0.1-0.1-0.2-0.2-0.2-0.4c0-0.1,0-0.3,0-0.5l0,0c0,0,0-0.2,0-0.3c0-0.1,0.1-0.3,0.1-0.5
		c0.1-0.2,0.2-0.4,0.4-0.6c0.2-0.2,0.4-0.5,0.7-0.8l0.3,0.3c-0.2,0.1-0.3,0.3-0.4,0.4c-0.1,0.1-0.2,0.2-0.3,0.4
		C19.6,36.3,19.7,36.2,19.8,36.3 M20.4,37.4c0-0.1,0-0.2,0-0.3s-0.1-0.2-0.1-0.2c0,0-0.1-0.1-0.2-0.2c-0.1,0-0.2,0-0.3-0.1h0
		c-0.1,0-0.2,0-0.3,0c-0.1,0-0.1,0.1-0.2,0.1c-0.1,0-0.1,0.1-0.1,0.2s0,0.2,0,0.3c0,0.1,0,0.2,0,0.3c0,0.1,0.1,0.2,0.1,0.2
		c0.1,0.1,0.3,0.2,0.5,0.2c0.1,0,0.2,0,0.3,0c0.1,0,0.2-0.1,0.2-0.1c0,0,0.1-0.1,0.1-0.2C20.4,37.6,20.4,37.6,20.4,37.4"/>
	<path id="XMLID_55_" class="st0" d="M23.1,36.8c0.1,0,0.2,0.1,0.3,0.2c0.1,0.1,0.1,0.2,0.2,0.3c0,0.1,0,0.2,0,0.3
		c0,0.1,0,0.3-0.1,0.4c0,0.1-0.1,0.2-0.2,0.3c-0.1,0.1-0.2,0.1-0.4,0.2c-0.1,0-0.3,0.1-0.5,0.1c-0.1,0-0.3,0-0.4,0
		c-0.1,0-0.2-0.1-0.3-0.1c-0.1,0-0.2-0.1-0.3-0.2c-0.1-0.1-0.1-0.1-0.2-0.2l0.4-0.2c0,0.1,0.1,0.2,0.3,0.3c0.1,0.1,0.3,0.1,0.5,0.1
		c0.1,0,0.2,0,0.3,0c0.1,0,0.2,0,0.2-0.1c0,0,0.1-0.1,0.1-0.2c0,0,0-0.1,0-0.2c0-0.1,0-0.1,0-0.2c0,0-0.1-0.1-0.1-0.2
		c0,0-0.1-0.1-0.2-0.1c-0.1,0-0.2,0-0.3,0h-0.1h-0.2L22.1,37l0.1-0.1L23,36h-1.4v-0.5h1.8h0.2V36l-0.8,1
		C22.9,36.7,23,36.7,23.1,36.8"/>
	<path id="XMLID_52_" class="st0" d="M25.3,36.3c0.1,0,0.3,0,0.5,0.1c0.1,0,0.3,0.1,0.4,0.3c0.1,0.1,0.2,0.2,0.2,0.4s0.1,0.3,0,0.5
		c0,0.1,0,0.3-0.1,0.4c0,0.1-0.1,0.2-0.2,0.4c-0.1,0.1-0.2,0.2-0.4,0.2c-0.1,0-0.3,0.1-0.4,0.1h-0.1c-0.1,0-0.3,0-0.4-0.1
		c-0.1,0-0.2-0.1-0.4-0.3l0,0l0,0c-0.1-0.1-0.2-0.2-0.2-0.4c0-0.1,0-0.3,0-0.5l0,0c0,0,0-0.2,0-0.3c0-0.1,0.1-0.3,0.1-0.5
		c0.1-0.2,0.2-0.4,0.4-0.6c0.2-0.2,0.4-0.5,0.7-0.8l0.3,0.3c-0.2,0.1-0.3,0.3-0.4,0.4c-0.1,0.1-0.2,0.2-0.3,0.4
		C25.1,36.3,25.2,36.2,25.3,36.3 M26,37.4c0-0.1,0-0.2,0-0.3s-0.1-0.2-0.1-0.2c0,0-0.1-0.1-0.2-0.2c-0.1,0-0.2,0-0.3-0.1h0
		c-0.1,0-0.2,0-0.3,0c-0.1,0-0.1,0.1-0.2,0.1c0,0-0.1,0.1-0.1,0.2s0,0.2,0,0.3c0,0.1,0,0.2,0,0.3c0,0.1,0.1,0.2,0.1,0.2
		c0.1,0.1,0.3,0.2,0.5,0.2c0.1,0,0.2,0,0.3,0c0.1,0,0.2-0.1,0.2-0.1c0,0,0.1-0.1,0.1-0.2S26,37.6,26,37.4"/>
</g>
<g>
	<polygon id="XMLID_32_" class="st1" points="66.3,9 66.3,19.7 54,19.7 54,9 50.7,9 50.7,33.7 54,33.7 54,22.9 66.3,22.9 66.3,33.7 
		69.6,33.7 69.6,9 	"/>
	<path id="XMLID_29_" class="st1" d="M83.6,34.3c-1.3,0-2.4-0.2-3.6-0.8c-1.1-0.5-2.1-1.1-2.9-1.9c-0.8-0.8-1.5-1.8-1.9-2.9
		c-0.5-1.1-0.8-2.3-0.8-3.6s0.2-2.4,0.8-3.6c0.5-1.1,1.1-2.1,1.9-2.9c0.8-0.8,1.8-1.5,2.9-1.9c1.1-0.5,2.3-0.8,3.6-0.8
		s2.4,0.2,3.6,0.8c1.1,0.5,2.1,1.1,2.9,1.9c0.8,0.8,1.5,1.8,1.9,2.9c0.5,1.1,0.8,2.3,0.8,3.6s-0.2,2.4-0.8,3.6
		c-0.5,1.1-1.1,2.1-1.9,2.9c-0.8,0.8-1.8,1.5-2.9,1.9C86,34,84.8,34.3,83.6,34.3 M83.6,19c-0.8,0-1.6,0.2-2.3,0.5
		c-0.8,0.3-1.4,0.8-1.9,1.3c-0.5,0.6-1,1.3-1.3,2c-0.3,0.8-0.5,1.5-0.5,2.3s0.2,1.6,0.5,2.3c0.3,0.8,0.8,1.4,1.3,1.9
		c0.5,0.5,1.2,1,1.9,1.3c0.8,0.3,1.5,0.5,2.3,0.5c0.8,0,1.6-0.2,2.3-0.5c0.8-0.3,1.4-0.8,1.9-1.3c0.5-0.5,1-1.2,1.3-1.9
		c0.3-0.8,0.5-1.5,0.5-2.3c0-0.8-0.2-1.6-0.5-2.3c-0.3-0.8-0.8-1.4-1.3-2c-0.5-0.6-1.2-1-1.9-1.3C85.2,19.2,84.4,19,83.6,19"/>
	<path id="XMLID_28_" class="st1" d="M96.7,28.6c-0.1-0.5-0.2-0.9-0.2-1.3v-0.5v-10h3v10c0,0.4,0.1,0.9,0.2,1.4
		c0.1,0.5,0.3,1,0.5,1.5c0.3,0.5,0.7,0.9,1.3,1.3c0.5,0.4,1.3,0.5,2.2,0.5c1.1,0,2-0.2,2.7-0.5c0.7-0.4,1.2-0.8,1.5-1.3
		c0.4-0.5,0.6-1,0.8-1.5s0.2-0.9,0.2-1.2V16.7h3v16.9h-3.1v-1.5c-0.5,0.5-0.9,0.8-1.3,1.1c-0.5,0.2-1,0.5-1.6,0.8
		c-0.7,0.2-1.4,0.4-2.3,0.4c-1.3,0-2.3-0.2-3.2-0.6c-0.8-0.4-1.5-0.9-2.1-1.5c-0.5-0.6-0.9-1.2-1.2-1.8
		C96.9,29.7,96.8,29.1,96.7,28.6"/>
	<path id="XMLID_27_" class="st1" d="M124,23.3c0.7,0.2,1.3,0.3,2.2,0.5c0.8,0.2,1.6,0.5,2.3,1c0.8,0.5,1.3,1,1.8,1.6
		c0.5,0.7,0.8,1.5,0.8,2.6c0,1.6-0.7,3-2,3.9c-1.3,1-3.2,1.4-5.5,1.4c-0.8,0-1.6-0.1-2.3-0.3c-0.8-0.2-1.4-0.5-2.1-0.8
		c-0.6-0.3-1.2-0.8-1.6-1.1c-0.5-0.5-0.8-0.9-1-1.5l2.7-1c0.3,0.5,0.9,0.8,1.7,1.2c0.8,0.3,1.7,0.5,2.7,0.5c0.4,0,0.8,0,1.3-0.1
		c0.5-0.1,1-0.2,1.4-0.3c0.5-0.2,0.8-0.4,1.2-0.8c0.3-0.3,0.5-0.8,0.5-1.3c0-0.2,0-0.5-0.1-0.8c-0.1-0.2-0.2-0.5-0.5-0.8
		c-0.3-0.2-0.8-0.5-1.4-0.8c-0.6-0.2-1.5-0.5-2.6-0.8c-0.8-0.2-1.5-0.4-2.3-0.5c-0.8-0.2-1.5-0.5-2.1-0.9c-0.6-0.4-1.1-0.8-1.5-1.4
		c-0.4-0.6-0.6-1.3-0.6-2.2c0-1.5,0.6-2.7,1.8-3.7c1.2-1,2.8-1.4,4.9-1.4c0.8,0,1.5,0.1,2.3,0.2c0.8,0.2,1.4,0.4,2,0.8
		c0.6,0.3,1.1,0.7,1.6,1.1c0.5,0.5,0.8,0.9,1,1.5l-2.7,1c-0.3-0.5-0.8-0.8-1.5-1.1c-0.8-0.3-1.5-0.5-2.4-0.5c-1.2,0-2.1,0.2-2.8,0.6
		c-0.7,0.4-1,0.9-1,1.5c0,0.2,0,0.4,0.1,0.6c0.1,0.2,0.2,0.4,0.5,0.5c0.2,0.2,0.7,0.4,1.2,0.5C122.3,22.9,123,23.2,124,23.3"/>
	<path id="XMLID_24_" class="st1" d="M137.6,26c0.1,0.8,0.3,1.5,0.6,2.1c0.3,0.7,0.8,1.2,1.2,1.7c0.5,0.5,1,0.8,1.6,1.1
		c0.6,0.3,1.3,0.5,2,0.5c1.1,0,2.1-0.2,3-0.8c0.9-0.5,1.5-1.2,2.1-2.1l2.4,1.5c-0.8,1.3-1.8,2.3-3.2,3c-1.3,0.7-2.7,1.1-4.4,1.1
		c-1.1,0-2.1-0.2-3.1-0.7c-1-0.5-1.8-1-2.6-1.8c-0.8-0.7-1.3-1.6-1.8-2.6c-0.5-1-0.8-2.1-0.9-3.3c0-0.2,0-0.2,0-0.4s0-0.3,0-0.5
		c0-0.8,0.1-1.5,0.2-2.1c0.2-1,0.6-1.9,1.1-2.7c0.5-0.9,1.1-1.6,1.8-2.2c0.8-0.6,1.5-1.1,2.4-1.5c0.9-0.4,1.8-0.5,2.8-0.5
		s1.9,0.2,2.8,0.5c0.9,0.3,1.7,0.8,2.4,1.5c0.8,0.6,1.3,1.3,1.8,2.2s0.9,1.8,1.1,2.7c0.2,0.7,0.2,1.3,0.2,2.1v0.5c0,0.2,0,0.3,0,0.4
		C151.5,26,137.6,26,137.6,26z M148.3,23.1c-0.4-1.2-1-2.1-2-3c-1-0.8-2-1.1-3.2-1.1c-1.2,0-2.3,0.4-3.2,1.1c-1,0.8-1.6,1.7-2,3
		H148.3z"/>
	<polygon id="XMLID_23_" class="st1" points="168.8,9 168.8,12.1 161.5,12.1 161.5,33.7 158.2,33.7 158.2,12.1 150.9,12.1 150.9,9 	
		"/>
	<path id="XMLID_20_" class="st1" d="M176.9,34.3c-1.3,0-2.4-0.2-3.6-0.8c-1.1-0.5-2.1-1.1-2.9-1.9c-0.8-0.8-1.5-1.8-1.9-2.9
		c-0.5-1.1-0.8-2.3-0.8-3.6s0.2-2.4,0.8-3.6c0.5-1.1,1.1-2.1,1.9-2.9c0.8-0.8,1.8-1.5,2.9-1.9c1.1-0.5,2.3-0.8,3.6-0.8
		s2.4,0.2,3.6,0.8c1.1,0.5,2.1,1.1,2.9,1.9c0.8,0.8,1.5,1.8,1.9,2.9c0.5,1.1,0.8,2.3,0.8,3.6s-0.2,2.4-0.8,3.6
		c-0.5,1.1-1.1,2.1-1.9,2.9c-0.8,0.8-1.8,1.5-2.9,1.9C179.2,34,178.1,34.3,176.9,34.3 M176.9,19c-0.8,0-1.6,0.2-2.3,0.5
		c-0.8,0.3-1.4,0.8-1.9,1.3c-0.5,0.6-1,1.3-1.3,2c-0.3,0.8-0.5,1.5-0.5,2.3s0.2,1.6,0.5,2.3c0.3,0.7,0.8,1.4,1.3,1.9
		c0.5,0.5,1.2,1,1.9,1.3c0.8,0.3,1.5,0.5,2.3,0.5s1.6-0.2,2.3-0.5c0.8-0.3,1.4-0.8,1.9-1.3c0.5-0.5,1-1.2,1.3-1.9
		c0.3-0.8,0.5-1.5,0.5-2.3c0-0.8-0.2-1.6-0.5-2.3c-0.3-0.7-0.8-1.4-1.3-2c-0.5-0.6-1.2-1-1.9-1.3C178.5,19.2,177.7,19,176.9,19"/>
	<polygon id="XMLID_19_" class="st1" points="206,33.7 202.1,33.7 195.6,25.9 193.5,28.1 193.5,33.7 190.5,33.7 190.5,31.2 
		190.5,26.8 190.5,9 193.5,9 193.5,23.7 201.4,15.5 203.6,17.5 197.8,23.7 	"/>
	<path id="XMLID_16_" class="st1" d="M208.6,26c0.1,0.8,0.3,1.5,0.6,2.1c0.3,0.7,0.8,1.2,1.2,1.7c0.5,0.5,1,0.8,1.6,1.1
		c0.6,0.3,1.3,0.5,2,0.5c1.1,0,2.1-0.2,3-0.8s1.5-1.2,2.1-2.1l2.4,1.5c-0.8,1.3-1.8,2.3-3.2,3c-1.3,0.8-2.7,1.1-4.4,1.1
		c-1.1,0-2.1-0.2-3.1-0.7c-1-0.5-1.8-1-2.6-1.8c-0.8-0.8-1.3-1.6-1.8-2.6c-0.5-1-0.8-2.1-0.9-3.3c0-0.2,0-0.2,0-0.4s0-0.3,0-0.5
		c0-0.8,0.1-1.5,0.2-2.1c0.2-1,0.6-1.9,1.1-2.7c0.5-0.9,1.1-1.6,1.8-2.2c0.8-0.6,1.5-1.1,2.4-1.5C212,16.2,213,16,214,16
		s1.9,0.2,2.8,0.5c0.9,0.3,1.7,0.8,2.4,1.5c0.8,0.6,1.3,1.3,1.8,2.2s0.9,1.8,1.1,2.7c0.2,0.7,0.2,1.3,0.2,2.1v0.5c0,0.2,0,0.3,0,0.4
		C222.4,26,208.6,26,208.6,26z M219.2,23.1c-0.4-1.2-1-2.1-2-3c-1-0.8-2-1.1-3.2-1.1s-2.3,0.4-3.2,1.1c-1,0.8-1.5,1.7-2,3H219.2z"/>
	<path id="XMLID_15_" class="st1" d="M241.9,21.8c0.1,0.3,0.1,0.5,0.1,0.7c0,0.2,0,0.4,0,0.5v0.5v10.1h-3v-9.9
		c0-0.4-0.1-0.8-0.2-1.4c-0.1-0.5-0.3-1-0.5-1.5c-0.3-0.5-0.8-0.9-1.3-1.3c-0.6-0.4-1.3-0.5-2.2-0.5c-1.1,0-2,0.2-2.7,0.5
		c-0.7,0.4-1.2,0.8-1.5,1.3c-0.4,0.5-0.6,1-0.8,1.5c-0.2,0.5-0.2,0.9-0.2,1.1v10.3h-3V16.8h3v1.5c0,0,0.2-0.2,0.4-0.4s0.5-0.5,1-0.8
		c0.5-0.2,1-0.5,1.6-0.8c0.7-0.2,1.4-0.4,2.2-0.4c1.3,0,2.3,0.2,3.3,0.6c0.9,0.4,1.5,0.9,2.1,1.5c0.5,0.6,0.9,1.2,1.2,1.8
		C241.7,20.6,241.9,21.2,241.9,21.8"/>
</g>
<g id="全球最大的数字商业地产发行商" class="st2">
	<path class="st3" d="M82.2,44.3c-2.4-1.1-4.2-2.5-5.3-4.1c-1.4,1.7-3.2,3.1-5.4,4.2c-0.2-0.2-0.3-0.4-0.5-0.6
		c2.6-1.4,4.5-2.9,5.7-4.6l0.7,0.1c0,0,0,0.1-0.1,0.1c-0.1,0.1-0.1,0.2-0.2,0.2c1.3,1.7,3.1,3,5.4,4C82.6,43.8,82.4,44,82.2,44.3z
		 M73.1,44h7.6v0.6h-3.5v2.2h3.9v0.6h-3.9v2.3h5v0.6H71.6v-0.6h5v-2.3h-3.9v-0.6h3.9v-2.2h-3.5V44z"/>
	<path class="st3" d="M83.5,49.7l-0.1-0.7c0.5-0.1,1-0.1,1.7-0.2v-3.7h-1.5v-0.6H85v-3.2h-1.6v-0.6h3.8v0.6h-1.5v3.2H87v0.6h-1.4
		v3.6c0.6-0.1,1.1-0.2,1.6-0.3c0,0.1,0,0.3,0,0.6C85.8,49.3,84.6,49.5,83.5,49.7z M87.6,41.7h3.1v-2.2h0.6v2.2h3.5v0.6h-3.5v0.5
		c0.2,1,0.5,1.9,0.9,2.6c0.7-0.7,1.4-1.4,1.9-2l0.5,0.4c-0.6,0.6-1.3,1.3-2.2,2.1c0.6,1,1.4,2,2.6,3c-0.2,0.2-0.3,0.3-0.5,0.5
		c-1.7-1.5-2.7-3.1-3.2-4.8v4.6c0.1,0.9-0.5,1.4-1.5,1.4c-0.3,0-0.6,0-1.1,0c0-0.2-0.1-0.5-0.1-0.7c0.3,0,0.6,0,1.2,0
		c0.4,0,0.6-0.1,0.7-0.2c0.1-0.1,0.2-0.4,0.2-0.8v-2.4c-1.1,0.7-2,1.4-2.9,1.9L87.4,48c1.3-0.7,2.4-1.4,3.3-2v-3.6h-3.1V41.7z
		 M87.7,43.8l0.5-0.3c0.5,0.6,0.9,1.3,1.4,2l-0.6,0.3C88.7,45.1,88.2,44.4,87.7,43.8z M91.9,40.3l0.4-0.4c0.6,0.4,1.1,0.7,1.6,1.1
		l-0.4,0.5C93.1,41.1,92.6,40.8,91.9,40.3z"/>
	<path class="st3" d="M95.8,50.2l-0.1-0.6c0.1,0,0.3,0,0.5,0c0.3,0,0.6-0.1,0.7-0.1v-4.7h-1.3v-0.5h11.6v0.5h-6.2V49
		c0.1,0,0.3,0,0.5-0.1c0.3,0,0.4-0.1,0.6-0.1c0,0.2,0,0.4,0,0.6c-0.4,0-0.8,0.1-1.1,0.1v1.4h-0.6v-1.3
		C99.4,49.8,97.9,49.9,95.8,50.2z M97.4,39.9h8.1v3.4h-8.1V39.9z M97.5,44.8v1.1h2.9v-1.1H97.5z M97.5,46.4v1.1h2.9v-1.1H97.5z
		 M97.5,49.5c1-0.1,1.9-0.2,2.9-0.3v-1.1h-2.9V49.5z M98.1,40.4v0.9h6.8v-0.9H98.1z M98.1,41.9v0.9h6.8v-0.9H98.1z M101.8,46.2v-0.5
		h4.5v0.5c-0.4,1.1-0.9,2-1.6,2.7c0.6,0.5,1.4,0.9,2.4,1.2c-0.1,0.2-0.3,0.4-0.3,0.6c-1-0.4-1.9-0.9-2.5-1.4c-0.6,0.5-1.4,1-2.4,1.5
		c-0.1-0.2-0.2-0.3-0.4-0.5c1-0.4,1.8-0.9,2.4-1.4c-0.7-0.7-1.2-1.6-1.5-2.8H101.8z M105.7,46.2h-2.8c0.3,1,0.8,1.8,1.4,2.4
		C104.9,48,105.4,47.2,105.7,46.2z"/>
	<path class="st3" d="M108.5,50.9c-0.2-0.3-0.4-0.5-0.5-0.6c3.3-1.6,5-3.9,5.2-6.9h-5.2v-0.7h5.3c0-0.4,0.1-0.9,0.1-1.4
		c0-0.2,0-0.5,0-0.8c0-0.3,0-0.6,0-1.1h0.7c0,0.9,0,2-0.1,3.3h5.3v0.7H114c0.5,3.1,2.3,5.3,5.4,6.7c-0.3,0.3-0.4,0.5-0.5,0.7
		c-3-1.4-4.8-3.5-5.3-6.2C113.3,47.2,111.6,49.3,108.5,50.9z"/>
	<path class="st3" d="M120.6,41.4h1.3c0.2-0.7,0.4-1.4,0.6-2l0.7,0.1c0,0.1-0.1,0.4-0.2,0.8c-0.2,0.5-0.3,0.8-0.3,1.1h2.4v9.3h-0.6
		v-1h-3.1v1.1h-0.6V41.4z M121.3,42v3.2h3.1V42H121.3z M121.3,45.8v3.3h3.1v-3.3H121.3z M126,44c-0.1-0.1-0.3-0.2-0.6-0.4
		c0.7-1.2,1.3-2.6,1.8-4.2l0.7,0.2c-0.2,0.6-0.4,1.2-0.7,1.8h4c0,2.8-0.1,5.2-0.2,7.3c0,1.3-0.7,2-2,2c-0.2,0-0.5,0-0.8,0
		c-0.1,0-0.3,0-0.5,0c-0.2,0-0.4,0-0.6,0c0-0.2-0.1-0.5-0.2-0.7c0.6,0,1.3,0,2,0c1,0.1,1.5-0.4,1.5-1.5c0.1-1.3,0.1-3.5,0.2-6.6H127
		C126.7,42.8,126.4,43.4,126,44z M126.5,44.5l0.5-0.3c0.6,0.7,1.2,1.5,1.9,2.5l-0.5,0.4C127.8,46.2,127.2,45.3,126.5,44.5z"/>
	<path class="st3" d="M132.5,46.3h1.9c0.1-0.2,0.3-0.5,0.5-0.9c0,0,0,0,0-0.1l0.6,0.2c-0.1,0.2-0.3,0.5-0.4,0.7h2.9
		c-0.2,1.1-0.6,2-1.3,2.7c0.5,0.2,0.9,0.4,1.3,0.6l-0.4,0.5c-0.5-0.2-0.9-0.5-1.4-0.7c-0.9,0.6-2,1.1-3.5,1.5
		c-0.1-0.2-0.2-0.4-0.3-0.6c1.4-0.3,2.4-0.8,3.2-1.3c-0.6-0.3-1.4-0.7-2.4-1.1c0.3-0.4,0.6-0.8,0.8-1.2h-1.6V46.3z M135.5,39.5h0.6
		v2.7h2.4v0.5h-2.4v1l0.3-0.3c0.6,0.4,1.2,0.8,1.9,1.2l-0.4,0.5c-0.3-0.2-0.9-0.7-1.8-1.3v1.2h-0.6v-1.8c-0.6,0.8-1.5,1.5-2.6,2.1
		c-0.1-0.2-0.2-0.3-0.4-0.6c1.1-0.5,2.1-1.2,2.9-2.1h-2.7v-0.5h2.8V39.5z M133,40.4l0.4-0.4c0.7,0.6,1.1,1.1,1.4,1.4l-0.5,0.4
		C134.1,41.5,133.7,41.1,133,40.4z M134.1,47.8c0.8,0.3,1.4,0.6,2.1,0.9c0.6-0.5,1-1.1,1.2-1.9h-2.6
		C134.7,47.1,134.4,47.4,134.1,47.8z M138.5,40.3c-0.5,0.6-1,1-1.4,1.4l-0.4-0.4c0.4-0.4,0.9-0.8,1.4-1.4L138.5,40.3z M137.9,50.5
		c1.3-1,2.2-1.8,2.7-2.6c-0.6-1.1-1-2.5-1.3-4.2c0,0-0.1,0.1-0.1,0.2c-0.2,0.4-0.4,0.7-0.5,0.9c-0.2-0.2-0.3-0.3-0.5-0.4
		c0.9-1.4,1.6-3,2.1-5l0.6,0.1c-0.2,0.7-0.4,1.4-0.7,2.1h3.6v0.6h-1c-0.2,2.6-0.8,4.5-1.5,5.7c0.5,0.8,1.4,1.6,2.6,2.5
		c-0.2,0.2-0.3,0.4-0.4,0.5c-1.1-0.9-2-1.7-2.5-2.4c-0.6,0.8-1.4,1.7-2.6,2.6C138.3,50.8,138.1,50.6,137.9,50.5z M139.8,42.7
		c0.2,2,0.6,3.5,1.2,4.5c0.6-1.1,1-2.8,1.3-5.1h-2.2C140,42.3,139.9,42.4,139.8,42.7z"/>
	<path class="st3" d="M150.3,45.6L153,44h-6.1v-0.6h7v0.7l-2.9,1.8v0.6h5.3v0.6h-5.3v2.2c0.1,1-0.4,1.5-1.4,1.5c-0.7,0-1.2,0-1.6,0
		c0-0.2-0.1-0.4-0.1-0.7c0.2,0,0.4,0,0.6,0c0.1,0,0.2,0,0.4,0c0.1,0,0.3,0,0.5,0c0.4,0,0.6-0.1,0.7-0.2c0.1-0.1,0.2-0.4,0.2-0.7
		v-2.1h-5.6v-0.6h5.6V45.6z M145.1,41.2h10.7v2.2h-0.7v-1.6h-9.4v1.6h-0.7V41.2z M149.9,39.5l0.6-0.2c0.2,0.4,0.4,0.9,0.7,1.6
		l-0.6,0.2C150.4,40.6,150.1,40,149.9,39.5z"/>
	<path class="st3" d="M162.2,39.6l0.6-0.2c0.2,0.5,0.4,1,0.5,1.4h5.2v0.6H157v-0.6h5.6C162.5,40.3,162.3,39.9,162.2,39.6z
		 M159.8,41.7l0.5-0.3c0.4,0.5,0.8,1,1.1,1.5l-0.6,0.3h2.9c0.4-0.6,0.8-1.2,1.2-1.8l0.6,0.3c-0.3,0.5-0.7,1-1.1,1.5h3v6.2
		c0,0.9-0.4,1.3-1.3,1.3c-0.2,0-0.4,0-0.6,0c-0.1,0-0.2,0-0.3,0c-0.1,0-0.3,0-0.5,0c0-0.2-0.1-0.4-0.1-0.7c0.3,0,0.5,0,0.7,0
		c0.2,0,0.4,0,0.7,0c0.3,0,0.6-0.1,0.7-0.2c0.1-0.1,0.2-0.3,0.2-0.6v-5.5h-8.4v7.1h-0.6v-7.7h2.9C160.6,42.8,160.3,42.3,159.8,41.7z
		 M161.5,44.1l0.5,0.4c-0.9,0.7-1.8,1.3-2.6,1.9c-0.1-0.1-0.2-0.3-0.4-0.5C160,45.3,160.8,44.7,161.5,44.1z M165,49.2h-4.6v-3.1h4.6
		V49.2z M161.1,46.6v2h3.3v-2H161.1z M163.5,44.6l0.4-0.4c0.8,0.5,1.7,1,2.6,1.7l-0.4,0.5C165.3,45.8,164.5,45.2,163.5,44.6z"/>
	<path class="st3" d="M176.2,39.6h0.7v9.9h4v0.6h-11.6v-0.6h3.9v-9.9h0.7v9.9h2.4V39.6z M171.5,46.9c-0.5-1.4-1-2.9-1.7-4.7l0.6-0.2
		c0.6,1.4,1.2,3,1.8,4.7L171.5,46.9z M178.3,46.9l-0.6-0.3c0.7-1.3,1.3-2.9,2-4.6l0.7,0.2C179.6,44,178.9,45.5,178.3,46.9z"/>
	<path class="st3" d="M181.6,49.5l-0.2-0.6c0.4-0.1,1-0.3,1.7-0.5v-5h-1.4v-0.6h1.4v-3.4h0.6v3.4h1.3v0.6h-1.3v4.8
		c0.1,0,0.3-0.1,0.6-0.2c0.5-0.1,0.8-0.3,1.1-0.3c0,0.1,0,0.3,0.1,0.6C183.8,48.8,182.5,49.2,181.6,49.5z M186.1,40.9h0.6v2.6
		l2.1-0.7v-3.4h0.7v3.2l2.9-1c0,1.5-0.1,2.7-0.1,3.5c0,1.2-0.5,1.8-1.4,1.7c-0.2,0-0.5,0-0.8,0c0-0.2-0.1-0.4-0.1-0.6
		c0.1,0,0.2,0,0.4,0c0.1,0,0.1,0,0.2,0c0.1,0,0.2,0,0.3,0c0.5,0.1,0.8-0.3,0.8-1c0.1-1,0.1-1.9,0.1-2.7l-2.2,0.8v5.2h-0.7v-4.9
		l-2.1,0.7v4.5c0,0.5,0.1,0.8,0.3,1c0.2,0.2,0.5,0.2,1,0.2h2.6c1,0,1.5-0.3,1.6-1c0.1-0.5,0.2-1.1,0.3-1.6c0.2,0.1,0.4,0.2,0.6,0.2
		c-0.1,0.6-0.2,1.2-0.3,1.7c-0.1,0.5-0.3,0.9-0.6,1c-0.3,0.2-0.8,0.3-1.4,0.3h-3c-1.2,0-1.8-0.5-1.7-1.6v-4.5l-1,0.4l-0.1-0.6
		l1.1-0.4V40.9z"/>
	<path class="st3" d="M194.9,44.2h5.8c0.5-0.7,0.9-1.5,1.4-2.3l0.6,0.3c-0.4,0.6-0.9,1.3-1.3,2h3.5v0.6h-9.3v0.9
		c0.1,2.1-0.4,3.9-1.4,5.1c-0.2-0.2-0.4-0.4-0.5-0.5c0.5-0.6,0.8-1.2,1-1.9c0.2-0.7,0.3-1.6,0.3-2.7V44.2z M199.2,39.6l0.6-0.2
		c0.2,0.5,0.4,1,0.5,1.4h4.9v0.6H194v-0.6h5.6C199.5,40.5,199.4,40.2,199.2,39.6C199.2,39.6,199.2,39.6,199.2,39.6z M196.7,42.2
		l0.6-0.4c0.4,0.4,0.8,1,1.4,1.8L198,44C197.5,43.4,197.1,42.8,196.7,42.2z"/>
	<path class="st3" d="M207.2,42.1h2.9c0.2-1,0.4-1.9,0.5-2.7l0.7,0.1c-0.2,1.1-0.4,2-0.5,2.6h6.7v0.6h-6.8c-0.2,0.6-0.3,1.2-0.6,1.8
		h6v0.6c-0.6,1.5-1.4,2.7-2.6,3.6c0.9,0.6,2.2,1.1,3.9,1.5c-0.1,0.2-0.3,0.4-0.4,0.7c-1.7-0.5-3.1-1.1-4.1-1.8
		c-1,0.6-2.5,1.3-4.4,1.9c-0.1-0.2-0.2-0.4-0.4-0.7c1.9-0.5,3.3-1,4.3-1.7c-1.1-0.9-1.9-2.1-2.4-3.5h-0.1c-0.8,2-1.9,3.7-3.4,5.3
		c-0.2-0.2-0.4-0.4-0.5-0.5c2-2,3.3-4.4,4.1-7.1h-3.4V42c0.3-0.6,0.6-1.3,0.9-2.1l0.7,0.2C207.8,40.8,207.5,41.5,207.2,42.1z
		 M215.4,45.1h-4.8c0.5,1.3,1.3,2.4,2.3,3.2C214.1,47.4,214.9,46.3,215.4,45.1z M213.5,40l0.4-0.5c0.7,0.4,1.3,0.9,2,1.4l-0.4,0.5
		C214.8,41,214.2,40.5,213.5,40z"/>
	<path class="st3" d="M218.2,46.6c1.2-1,2.3-2.3,3.3-4.1l0.6,0.3c-0.4,0.7-0.9,1.4-1.3,1.9v6.2h-0.7v-5.4c-0.5,0.6-1.1,1.1-1.6,1.6
		C218.4,47,218.3,46.8,218.2,46.6z M218.9,43.2c-0.1-0.3-0.3-0.5-0.4-0.6c1.2-0.9,2.2-2,3-3.2l0.6,0.4
		C221.1,41.1,220.1,42.2,218.9,43.2z M222.6,43.9h7.3v0.7h-2.4v4.5c0.1,1.1-0.5,1.6-1.6,1.6c-0.3,0-0.5,0-0.7,0c-0.1,0-0.2,0-0.4,0
		c-0.1,0-0.3,0-0.5,0c0-0.2-0.1-0.5-0.1-0.7c0.5,0,1,0,1.6,0c0.4,0,0.7-0.1,0.8-0.2c0.2-0.1,0.2-0.4,0.2-0.7v-4.5h-4.3V43.9z
		 M223.3,40.3h5.9v0.6h-5.9V40.3z"/>
	<path class="st3" d="M235.8,39.6l0.6-0.2c0.2,0.5,0.4,1,0.5,1.4h5.2v0.6h-11.5v-0.6h5.6C236,40.3,235.9,39.9,235.8,39.6z
		 M233.4,41.7l0.5-0.3c0.4,0.5,0.8,1,1.1,1.5l-0.6,0.3h2.9c0.4-0.6,0.8-1.2,1.2-1.8l0.6,0.3c-0.3,0.5-0.7,1-1.1,1.5h3v6.2
		c0,0.9-0.4,1.3-1.3,1.3c-0.2,0-0.4,0-0.6,0c-0.1,0-0.2,0-0.3,0c-0.1,0-0.3,0-0.5,0c0-0.2-0.1-0.4-0.1-0.7c0.3,0,0.5,0,0.7,0
		c0.2,0,0.4,0,0.7,0c0.3,0,0.6-0.1,0.7-0.2c0.1-0.1,0.2-0.3,0.2-0.6v-5.5h-8.4v7.1h-0.6v-7.7h2.9C234.2,42.8,233.8,42.3,233.4,41.7z
		 M235.1,44.1l0.5,0.4c-0.9,0.7-1.8,1.3-2.6,1.9c-0.1-0.1-0.2-0.3-0.4-0.5C233.5,45.3,234.4,44.7,235.1,44.1z M238.6,49.2H234v-3.1
		h4.6V49.2z M234.6,46.6v2h3.3v-2H234.6z M237,44.6l0.4-0.4c0.8,0.5,1.7,1,2.6,1.7l-0.4,0.5C238.9,45.8,238,45.2,237,44.6z"/>
</g>
<g id="矩形_57">
	<rect x="50.7" y="44.9" class="st4" width="14" height="1"/>
</g>
</svg>
