<?xml version="1.0" encoding="utf-8"?>
<!-- Generator: Adobe Illustrator 22.1.0, SVG Export Plug-In . SVG Version: 6.00 Build 0)  -->
<svg version="1.1" id="图层_1" xmlns="http://www.w3.org/2000/svg" xmlns:xlink="http://www.w3.org/1999/xlink" x="0px" y="0px"
	 viewBox="0 0 242 51" style="enable-background:new 0 0 242 51;" xml:space="preserve">
<style type="text/css">
	.st0{fill:#00A99D;}
	.st1{fill:#000101;}
	.st2{fill:#BABABA;}
</style>
<g>
	<polygon id="XMLID_63_" class="st0" points="23.3,15.2 25.7,15.2 25.7,11.6 31.8,11.6 31.8,31.2 25.7,31.2 25.7,25.7 29.7,25.7 
		29.7,17.3 13.2,17.3 13.2,25.7 17.1,25.7 17.1,31.2 11.1,31.2 11.1,11.6 17.2,11.6 17.2,15.2 19.6,15.2 19.6,9 8.6,9 8.6,33.8 
		19.6,33.8 19.6,23.2 15.8,23.2 15.8,19.8 27.1,19.8 27.1,23.2 23.3,23.2 23.3,33.7 34.3,33.7 34.3,9 23.3,9 	"/>
	<path id="XMLID_60_" class="st0" d="M21.6,43.3C9.7,43.3,0,33.6,0,21.6S9.7,0,21.6,0s21.6,9.7,21.6,21.6S33.6,43.3,21.6,43.3
		 M21.6,1.8c-11,0-19.8,8.9-19.8,19.8s8.9,19.8,19.8,19.8s19.8-8.9,19.8-19.8S32.6,1.8,21.6,1.8"/>
	<polygon id="XMLID_59_" class="st0" points="17.8,35.3 17.8,38.4 17.4,38.4 17.4,35.9 17.1,36.2 16.8,35.9 17.4,35.3 	"/>
	<path id="XMLID_56_" class="st0" d="M19.8,36.3c0.1,0,0.3,0,0.5,0.1c0.1,0,0.3,0.1,0.4,0.3c0.1,0.1,0.2,0.2,0.2,0.4s0.1,0.3,0,0.5
		c0,0.1,0,0.3-0.1,0.4c0,0.1-0.1,0.2-0.2,0.4c-0.1,0.1-0.2,0.2-0.4,0.2c-0.2,0-0.3,0.1-0.4,0.1h-0.1c-0.1,0-0.3,0-0.4-0.1
		c-0.1,0-0.2-0.1-0.4-0.3l0,0l0,0c-0.1-0.1-0.2-0.2-0.2-0.4c0-0.1,0-0.3,0-0.5l0,0c0,0,0-0.2,0-0.3s0.1-0.3,0.1-0.5
		c0.1-0.2,0.2-0.4,0.4-0.6c0.2-0.2,0.4-0.5,0.7-0.8l0.3,0.3c-0.2,0.1-0.3,0.3-0.4,0.4c-0.1,0.1-0.2,0.2-0.3,0.4
		C19.6,36.3,19.7,36.2,19.8,36.3 M20.4,37.4c0-0.1,0-0.2,0-0.3s-0.1-0.2-0.1-0.2s-0.1-0.1-0.2-0.2c-0.1,0-0.2,0-0.3-0.1l0,0
		c-0.1,0-0.2,0-0.3,0c-0.1,0-0.1,0.1-0.2,0.1s-0.1,0.1-0.1,0.2s0,0.2,0,0.3s0,0.2,0,0.3s0.1,0.2,0.1,0.2c0.1,0.1,0.3,0.2,0.5,0.2
		c0.1,0,0.2,0,0.3,0c0.1,0,0.2-0.1,0.2-0.1s0.1-0.1,0.1-0.2C20.4,37.6,20.4,37.6,20.4,37.4"/>
	<path id="XMLID_55_" class="st0" d="M23.1,36.8c0.1,0,0.2,0.1,0.3,0.2c0.1,0.1,0.1,0.2,0.2,0.3c0,0.1,0,0.2,0,0.3s0,0.3-0.1,0.4
		c0,0.1-0.1,0.2-0.2,0.3s-0.2,0.1-0.4,0.2c-0.1,0-0.3,0.1-0.5,0.1c-0.1,0-0.3,0-0.4,0s-0.2-0.1-0.3-0.1c-0.1,0-0.2-0.1-0.3-0.2
		c-0.1-0.1-0.1-0.1-0.2-0.2l0.4-0.2c0,0.1,0.1,0.2,0.3,0.3c0.1,0.1,0.3,0.1,0.5,0.1c0.1,0,0.2,0,0.3,0c0.1,0,0.2,0,0.2-0.1
		c0,0,0.1-0.1,0.1-0.2c0,0,0-0.1,0-0.2c0-0.1,0-0.1,0-0.2c0,0-0.1-0.1-0.1-0.2c0,0-0.1-0.1-0.2-0.1s-0.2,0-0.3,0h-0.1h-0.2l0-0.3
		l0.1-0.1L23,36h-1.4v-0.5h1.8h0.2V36l-0.8,1C22.9,36.7,23,36.7,23.1,36.8"/>
	<path id="XMLID_52_" class="st0" d="M25.3,36.3c0.1,0,0.3,0,0.5,0.1c0.1,0,0.3,0.1,0.4,0.3c0.1,0.1,0.2,0.2,0.2,0.4s0.1,0.3,0,0.5
		c0,0.1,0,0.3-0.1,0.4c0,0.1-0.1,0.2-0.2,0.4c-0.1,0.1-0.2,0.2-0.4,0.2c-0.1,0-0.3,0.1-0.4,0.1h-0.1c-0.1,0-0.3,0-0.4-0.1
		c-0.1,0-0.2-0.1-0.4-0.3l0,0l0,0c-0.1-0.1-0.2-0.2-0.2-0.4c0-0.1,0-0.3,0-0.5l0,0c0,0,0-0.2,0-0.3s0.1-0.3,0.1-0.5
		c0.1-0.2,0.2-0.4,0.4-0.6c0.2-0.2,0.4-0.5,0.7-0.8l0.3,0.3c-0.2,0.1-0.3,0.3-0.4,0.4c-0.1,0.1-0.2,0.2-0.3,0.4
		C25.1,36.3,25.2,36.2,25.3,36.3 M26,37.4c0-0.1,0-0.2,0-0.3s-0.1-0.2-0.1-0.2s-0.1-0.1-0.2-0.2c-0.1,0-0.2,0-0.3-0.1l0,0
		c-0.1,0-0.2,0-0.3,0c-0.1,0-0.1,0.1-0.2,0.1c0,0-0.1,0.1-0.1,0.2s0,0.2,0,0.3s0,0.2,0,0.3s0.1,0.2,0.1,0.2c0.1,0.1,0.3,0.2,0.5,0.2
		c0.1,0,0.2,0,0.3,0c0.1,0,0.2-0.1,0.2-0.1s0.1-0.1,0.1-0.2S26,37.6,26,37.4"/>
</g>
<g>
	<polygon id="XMLID_32_" class="st1" points="66.3,9 66.3,19.7 54,19.7 54,9 50.7,9 50.7,33.7 54,33.7 54,22.9 66.3,22.9 66.3,33.7 
		69.6,33.7 69.6,9 	"/>
	<path id="XMLID_29_" class="st1" d="M83.6,34.3c-1.3,0-2.4-0.2-3.6-0.8c-1.1-0.5-2.1-1.1-2.9-1.9c-0.8-0.8-1.5-1.8-1.9-2.9
		c-0.5-1.1-0.8-2.3-0.8-3.6s0.2-2.4,0.8-3.6c0.5-1.1,1.1-2.1,1.9-2.9s1.8-1.5,2.9-1.9c1.1-0.5,2.3-0.8,3.6-0.8s2.4,0.2,3.6,0.8
		c1.1,0.5,2.1,1.1,2.9,1.9s1.5,1.8,1.9,2.9c0.5,1.1,0.8,2.3,0.8,3.6s-0.2,2.4-0.8,3.6c-0.5,1.1-1.1,2.1-1.9,2.9
		c-0.8,0.8-1.8,1.5-2.9,1.9C86,34,84.8,34.3,83.6,34.3 M83.6,19c-0.8,0-1.6,0.2-2.3,0.5c-0.8,0.3-1.4,0.8-1.9,1.3
		c-0.5,0.6-1,1.3-1.3,2c-0.3,0.8-0.5,1.5-0.5,2.3s0.2,1.6,0.5,2.3c0.3,0.8,0.8,1.4,1.3,1.9s1.2,1,1.9,1.3c0.8,0.3,1.5,0.5,2.3,0.5
		s1.6-0.2,2.3-0.5c0.8-0.3,1.4-0.8,1.9-1.3s1-1.2,1.3-1.9c0.3-0.8,0.5-1.5,0.5-2.3s-0.2-1.6-0.5-2.3c-0.3-0.8-0.8-1.4-1.3-2
		s-1.2-1-1.9-1.3S84.4,19,83.6,19"/>
	<path id="XMLID_28_" class="st1" d="M96.7,28.6c-0.1-0.5-0.2-0.9-0.2-1.3v-0.5v-10h3v10c0,0.4,0.1,0.9,0.2,1.4s0.3,1,0.5,1.5
		c0.3,0.5,0.7,0.9,1.3,1.3c0.5,0.4,1.3,0.5,2.2,0.5c1.1,0,2-0.2,2.7-0.5c0.7-0.4,1.2-0.8,1.5-1.3c0.4-0.5,0.6-1,0.8-1.5
		s0.2-0.9,0.2-1.2V16.7h3v16.9h-3.1v-1.5c-0.5,0.5-0.9,0.8-1.3,1.1c-0.5,0.2-1,0.5-1.6,0.8c-0.7,0.2-1.4,0.4-2.3,0.4
		c-1.3,0-2.3-0.2-3.2-0.6c-0.8-0.4-1.5-0.9-2.1-1.5c-0.5-0.6-0.9-1.2-1.2-1.8C96.9,29.7,96.8,29.1,96.7,28.6"/>
	<path id="XMLID_27_" class="st1" d="M124,23.3c0.7,0.2,1.3,0.3,2.2,0.5c0.8,0.2,1.6,0.5,2.3,1c0.8,0.5,1.3,1,1.8,1.6
		c0.5,0.7,0.8,1.5,0.8,2.6c0,1.6-0.7,3-2,3.9c-1.3,1-3.2,1.4-5.5,1.4c-0.8,0-1.6-0.1-2.3-0.3c-0.8-0.2-1.4-0.5-2.1-0.8
		c-0.6-0.3-1.2-0.8-1.6-1.1c-0.5-0.5-0.8-0.9-1-1.5l2.7-1c0.3,0.5,0.9,0.8,1.7,1.2c0.8,0.3,1.7,0.5,2.7,0.5c0.4,0,0.8,0,1.3-0.1
		s1-0.2,1.4-0.3c0.5-0.2,0.8-0.4,1.2-0.8c0.3-0.3,0.5-0.8,0.5-1.3c0-0.2,0-0.5-0.1-0.8c-0.1-0.2-0.2-0.5-0.5-0.8
		c-0.3-0.2-0.8-0.5-1.4-0.8c-0.6-0.2-1.5-0.5-2.6-0.8c-0.8-0.2-1.5-0.4-2.3-0.5c-0.8-0.2-1.5-0.5-2.1-0.9s-1.1-0.8-1.5-1.4
		s-0.6-1.3-0.6-2.2c0-1.5,0.6-2.7,1.8-3.7c1.2-1,2.8-1.4,4.9-1.4c0.8,0,1.5,0.1,2.3,0.2c0.8,0.2,1.4,0.4,2,0.8
		c0.6,0.3,1.1,0.7,1.6,1.1c0.5,0.5,0.8,0.9,1,1.5l-2.7,1c-0.3-0.5-0.8-0.8-1.5-1.1c-0.8-0.3-1.5-0.5-2.4-0.5c-1.2,0-2.1,0.2-2.8,0.6
		c-0.7,0.4-1,0.9-1,1.5c0,0.2,0,0.4,0.1,0.6s0.2,0.4,0.5,0.5c0.2,0.2,0.7,0.4,1.2,0.5C122.3,22.9,123,23.2,124,23.3"/>
	<path id="XMLID_24_" class="st1" d="M137.6,26c0.1,0.8,0.3,1.5,0.6,2.1c0.3,0.7,0.8,1.2,1.2,1.7c0.5,0.5,1,0.8,1.6,1.1
		c0.6,0.3,1.3,0.5,2,0.5c1.1,0,2.1-0.2,3-0.8c0.9-0.5,1.5-1.2,2.1-2.1l2.4,1.5c-0.8,1.3-1.8,2.3-3.2,3c-1.3,0.7-2.7,1.1-4.4,1.1
		c-1.1,0-2.1-0.2-3.1-0.7s-1.8-1-2.6-1.8c-0.8-0.7-1.3-1.6-1.8-2.6s-0.8-2.1-0.9-3.3c0-0.2,0-0.2,0-0.4s0-0.3,0-0.5
		c0-0.8,0.1-1.5,0.2-2.1c0.2-1,0.6-1.9,1.1-2.7c0.5-0.9,1.1-1.6,1.8-2.2c0.8-0.6,1.5-1.1,2.4-1.5s1.8-0.5,2.8-0.5s1.9,0.2,2.8,0.5
		c0.9,0.3,1.7,0.8,2.4,1.5c0.8,0.6,1.3,1.3,1.8,2.2s0.9,1.8,1.1,2.7c0.2,0.7,0.2,1.3,0.2,2.1v0.5c0,0.2,0,0.3,0,0.4
		C151.5,26,137.6,26,137.6,26z M148.3,23.1c-0.4-1.2-1-2.1-2-3c-1-0.8-2-1.1-3.2-1.1s-2.3,0.4-3.2,1.1c-1,0.8-1.6,1.7-2,3H148.3z"/>
	<polygon id="XMLID_23_" class="st1" points="168.8,9 168.8,12.1 161.5,12.1 161.5,33.7 158.2,33.7 158.2,12.1 150.9,12.1 150.9,9 	
		"/>
	<path id="XMLID_20_" class="st1" d="M176.9,34.3c-1.3,0-2.4-0.2-3.6-0.8c-1.1-0.5-2.1-1.1-2.9-1.9c-0.8-0.8-1.5-1.8-1.9-2.9
		c-0.5-1.1-0.8-2.3-0.8-3.6s0.2-2.4,0.8-3.6c0.5-1.1,1.1-2.1,1.9-2.9c0.8-0.8,1.8-1.5,2.9-1.9c1.1-0.5,2.3-0.8,3.6-0.8
		s2.4,0.2,3.6,0.8c1.1,0.5,2.1,1.1,2.9,1.9c0.8,0.8,1.5,1.8,1.9,2.9c0.5,1.1,0.8,2.3,0.8,3.6s-0.2,2.4-0.8,3.6
		c-0.5,1.1-1.1,2.1-1.9,2.9c-0.8,0.8-1.8,1.5-2.9,1.9C179.2,34,178.1,34.3,176.9,34.3 M176.9,19c-0.8,0-1.6,0.2-2.3,0.5
		c-0.8,0.3-1.4,0.8-1.9,1.3c-0.5,0.6-1,1.3-1.3,2c-0.3,0.8-0.5,1.5-0.5,2.3s0.2,1.6,0.5,2.3c0.3,0.7,0.8,1.4,1.3,1.9s1.2,1,1.9,1.3
		c0.8,0.3,1.5,0.5,2.3,0.5s1.6-0.2,2.3-0.5c0.8-0.3,1.4-0.8,1.9-1.3s1-1.2,1.3-1.9c0.3-0.8,0.5-1.5,0.5-2.3s-0.2-1.6-0.5-2.3
		c-0.3-0.7-0.8-1.4-1.3-2s-1.2-1-1.9-1.3S177.7,19,176.9,19"/>
	<polygon id="XMLID_19_" class="st1" points="206,33.7 202.1,33.7 195.6,25.9 193.5,28.1 193.5,33.7 190.5,33.7 190.5,31.2 
		190.5,26.8 190.5,9 193.5,9 193.5,23.7 201.4,15.5 203.6,17.5 197.8,23.7 	"/>
	<path id="XMLID_16_" class="st1" d="M208.6,26c0.1,0.8,0.3,1.5,0.6,2.1c0.3,0.7,0.8,1.2,1.2,1.7c0.5,0.5,1,0.8,1.6,1.1
		c0.6,0.3,1.3,0.5,2,0.5c1.1,0,2.1-0.2,3-0.8s1.5-1.2,2.1-2.1l2.4,1.5c-0.8,1.3-1.8,2.3-3.2,3c-1.3,0.8-2.7,1.1-4.4,1.1
		c-1.1,0-2.1-0.2-3.1-0.7s-1.8-1-2.6-1.8s-1.3-1.6-1.8-2.6s-0.8-2.1-0.9-3.3c0-0.2,0-0.2,0-0.4s0-0.3,0-0.5c0-0.8,0.1-1.5,0.2-2.1
		c0.2-1,0.6-1.9,1.1-2.7c0.5-0.9,1.1-1.6,1.8-2.2c0.8-0.6,1.5-1.1,2.4-1.5c1-0.1,2-0.3,3-0.3s1.9,0.2,2.8,0.5
		c0.9,0.3,1.7,0.8,2.4,1.5c0.8,0.6,1.3,1.3,1.8,2.2s0.9,1.8,1.1,2.7c0.2,0.7,0.2,1.3,0.2,2.1v0.5c0,0.2,0,0.3,0,0.4
		C222.4,26,208.6,26,208.6,26z M219.2,23.1c-0.4-1.2-1-2.1-2-3c-1-0.8-2-1.1-3.2-1.1s-2.3,0.4-3.2,1.1c-1,0.8-1.5,1.7-2,3H219.2z"/>
	<path id="XMLID_15_" class="st1" d="M241.9,21.8c0.1,0.3,0.1,0.5,0.1,0.7s0,0.4,0,0.5v0.5v10.1h-3v-9.9c0-0.4-0.1-0.8-0.2-1.4
		c-0.1-0.5-0.3-1-0.5-1.5c-0.3-0.5-0.8-0.9-1.3-1.3c-0.6-0.4-1.3-0.5-2.2-0.5c-1.1,0-2,0.2-2.7,0.5c-0.7,0.4-1.2,0.8-1.5,1.3
		c-0.4,0.5-0.6,1-0.8,1.5s-0.2,0.9-0.2,1.1v10.3h-3V16.8h3v1.5c0,0,0.2-0.2,0.4-0.4s0.5-0.5,1-0.8c0.5-0.2,1-0.5,1.6-0.8
		c0.7-0.2,1.4-0.4,2.2-0.4c1.3,0,2.3,0.2,3.3,0.6c0.9,0.4,1.5,0.9,2.1,1.5c0.5,0.6,0.9,1.2,1.2,1.8
		C241.7,20.6,241.9,21.2,241.9,21.8"/>
</g>
<g>
	<path class="st2" d="M52.3,43h-2.2l0.1-0.2h0.6l1.4-5.6c-1,0-1.5,0.6-1.8,1.4h-0.3l0.5-1.7h4.2l-0.4,1.8h-0.2c0-0.2,0-0.4,0-0.6
		c0-1-0.4-1-1.2-1l-1.4,5.6h0.7L52.3,43z"/>
	<path class="st2" d="M55.1,37l0.1-0.2h0.3c0.6,0,0.8,0,1,0l-0.8,3.4l0,0c0.3-0.5,0.9-0.8,1.3-0.8c0.4,0,0.8,0.2,0.8,0.7
		c0,0.3-0.6,2.5-0.6,2.5c0,0.1,0.1,0.2,0.2,0.2c0.4,0,0.7-0.8,0.8-1.1l0.2,0.1c-0.2,0.6-0.6,1.3-1.2,1.3c-0.3,0-0.5-0.2-0.5-0.5
		c0-0.5,0.6-2.3,0.6-2.6c0-0.3-0.2-0.3-0.4-0.3c-0.7,0-1.2,0.9-1.4,1.9L55,43h-0.6l1.4-6l0,0H55.1z"/>
	<path class="st2" d="M61.4,42.1c-0.3,0.6-0.7,1-1.4,1c-0.8,0-1.3-0.7-1.3-1.4c0-1.1,1.1-2.3,2.1-2.3c0.5,0,0.8,0.3,0.8,0.7
		c0,0.6-0.5,1.2-2.1,1.2c-0.1,0.3-0.1,0.5-0.1,0.8c0,0.5,0.2,0.8,0.7,0.8c0.6,0,0.9-0.4,1.2-0.9L61.4,42.1z M61.1,40
		c0-0.2-0.2-0.4-0.4-0.4c-0.6,0-1,1-1.1,1.5C60.6,41.1,61.1,40.6,61.1,40z"/>
	<path class="st2" d="M64.2,40.6c0.2-0.5,0.6-1.3,1.2-1.3c0.3,0,0.5,0.2,0.5,0.5c0,0.3-0.7,2.8-0.7,2.8c0,0.1,0.1,0.2,0.2,0.2
		c0.3,0,0.5-0.3,0.7-0.6c0.5-0.8,0.9-1.8,1.2-2.8h0.6c-0.2,0.8-0.6,2-0.6,2.8c0,0.3,0,0.6,0.4,0.6c0.7,0,1.3-2.2,1.3-2.6
		c0-0.3-0.4-0.1-0.4-0.6c0-0.2,0.2-0.3,0.3-0.3s0.3,0.3,0.3,0.5c0,1.1-0.7,3.2-1.8,3.2c-0.6,0-0.7-0.5-0.7-0.9c0-0.1,0-0.5,0.1-0.7
		l0,0c-0.6,1.3-1.1,1.6-1.6,1.6c-0.3,0-0.5-0.2-0.5-0.5c0-0.1,0.7-2.6,0.7-2.9c0,0-0.1-0.1-0.1-0.1c-0.3,0-0.7,0.7-0.8,1H64.2z"/>
	<path class="st2" d="M70.9,43.1c-0.9,0-1.4-0.7-1.4-1.3c0-1.2,1-2.4,2.1-2.4c0.7,0,1.3,0.7,1.3,1.4C73,41.8,72,43.1,70.9,43.1z
		 M70.2,42.2c0,0.4,0.3,0.7,0.7,0.7c0.6,0,0.8-0.5,1-1c0.2-0.5,0.3-1.1,0.3-1.7c0-0.5-0.2-0.7-0.6-0.7c-0.5,0-0.9,0.5-1,1
		C70.5,40.8,70.2,41.8,70.2,42.2z"/>
	<path class="st2" d="M74.3,39.6h-0.7l0.1-0.2h0.2c0.2,0,0.8-0.1,1.2-0.1l-0.2,0.9l0,0c0.2-0.4,0.6-0.9,1.1-0.9
		c0.2,0,0.4,0.1,0.4,0.4c0,0.2-0.2,0.4-0.3,0.4c-0.2,0-0.3-0.2-0.5-0.2c-0.2,0-0.7,0.6-0.9,1.5L74.1,43h-0.6L74.3,39.6z"/>
	<path class="st2" d="M77,37l0.1-0.2h0.3c0.6,0,0.8,0,1,0L77,42.3c0,0.1-0.1,0.2-0.1,0.3c0,0.1,0.1,0.2,0.2,0.2
		c0.4,0,0.7-0.6,0.9-1.2l0.2,0.1c-0.3,0.9-0.8,1.4-1.4,1.4c-0.3,0-0.5-0.1-0.5-0.5c0-0.1,0.1-0.4,0.1-0.5l1.3-5.1H77z"/>
	<path class="st2" d="M82.7,41.7c-0.2,0.6-0.6,1.4-1.3,1.4c-0.3,0-0.5-0.3-0.5-0.5h0c-0.2,0.3-0.6,0.5-1,0.5c-0.7,0-1.1-0.7-1.1-1.3
		c0-1.1,1-2.5,2-2.5c0.3,0,0.6,0.1,0.8,0.4l0.7-2.7h-0.7l0.1-0.2h0.3c0.6,0,0.8,0,1,0l-1.4,5.7c0,0.1,0,0.1,0,0.1
		c0,0.1,0.1,0.2,0.2,0.2c0.4,0,0.7-0.9,0.8-1.2L82.7,41.7z M79.4,42.2c0,0.4,0.2,0.7,0.6,0.7c0.4,0,0.7-0.3,1.1-1.4
		c0.1-0.3,0.3-1,0.3-1.4c0-0.4-0.2-0.6-0.5-0.6c-0.7,0-1,0.9-1.2,1.5C79.6,41.4,79.4,41.9,79.4,42.2z"/>
	<path class="st2" d="M83.8,39c0.4-0.3,1.1-0.7,1.1-1.3c0-0.2-0.1-0.2-0.1-0.2c-0.1,0-0.1,0.4-0.5,0.4c-0.2,0-0.4-0.2-0.4-0.4
		c0-0.3,0.3-0.5,0.6-0.5c0.3,0,0.6,0.3,0.6,0.7c0,0.7-0.5,1.1-1.2,1.5L83.8,39z"/>
	<path class="st2" d="M84.2,42.4c0-0.2,0.1-0.4,0.3-0.4c0.2,0,0.3,0.1,0.3,0.3c0,0.2-0.1,0.3-0.1,0.4c0,0.2,0.3,0.2,0.4,0.2
		c0.6,0,0.8-0.2,0.8-0.6c0-0.6-1.1-1.1-1.1-2c0-0.7,0.6-1,1.1-1c0.2,0,0.7,0.1,0.7,0.6c0,0.2-0.1,0.3-0.3,0.3
		c-0.2,0-0.3-0.1-0.3-0.3c0-0.1,0.1-0.2,0.1-0.3c0-0.2-0.2-0.2-0.3-0.2c-0.3,0-0.5,0.2-0.5,0.5c0,0.4,0.5,0.7,1,1.3
		c0.1,0.2,0.2,0.4,0.2,0.6c0,0.2-0.2,1.1-1.3,1.1C84.3,43.1,84.2,42.6,84.2,42.4z"/>
	<path class="st2" d="M90.1,37l0.1-0.2h0.3c0.6,0,0.8,0,1,0l-1.4,5.5c0,0.1-0.1,0.2-0.1,0.3c0,0.1,0.1,0.2,0.2,0.2
		c0.4,0,0.7-0.6,0.9-1.2l0.2,0.1c-0.3,0.9-0.8,1.4-1.4,1.4c-0.3,0-0.5-0.1-0.5-0.5c0-0.1,0.1-0.4,0.1-0.5l1.3-5.1H90.1z"/>
	<path class="st2" d="M95.4,39.4l-0.8,3.1c-0.1,0.2,0.1,0.3,0.2,0.3c0.3,0,0.8-0.8,0.8-1.1l0.2,0.1c-0.3,1-0.8,1.3-1.2,1.3
		c-0.3,0-0.6-0.2-0.6-0.6h0c-0.2,0.4-0.6,0.6-1,0.6c-0.7,0-1.1-0.6-1.1-1.4c0-1,1.1-2.4,2.1-2.4c0.3,0,0.6,0.2,0.7,0.5h0l0.1-0.5
		H95.4z M92.5,42.2c0,0.4,0.2,0.7,0.6,0.7c0.2,0,0.7-0.2,1-1.1c0.2-0.5,0.4-1.2,0.4-1.7c0-0.4-0.2-0.6-0.6-0.6
		c-0.5,0-0.7,0.4-0.9,0.8C92.8,40.8,92.5,41.7,92.5,42.2z"/>
	<path class="st2" d="M97,39.6h-0.7l0.1-0.2h0.2c0.2,0,0.8-0.1,1.2-0.1l-0.2,0.9l0,0c0.2-0.4,0.6-0.9,1.1-0.9c0.2,0,0.4,0.1,0.4,0.4
		c0,0.2-0.2,0.4-0.3,0.4c-0.2,0-0.3-0.2-0.5-0.2c-0.2,0-0.7,0.6-0.9,1.5L96.8,43h-0.6L97,39.6z"/>
	<path class="st2" d="M102.9,39.6c0,0.2-0.1,0.3-0.3,0.3c-0.1,0-0.2-0.1-0.3-0.2c-0.1,0,0,0.1-0.4,1.1c-0.2,0.6-0.7,1-1.5,1
		c-0.2,0-0.5-0.1-0.7-0.2c-0.2,0-0.5,0.2-0.5,0.4c0,0.3,0.6,0.4,1.3,0.4c0.9,0.1,1.3,0.2,1.3,0.9c0,1.2-1.2,1.6-2.2,1.6
		c-0.6,0-1.3-0.2-1.3-1c0-0.5,0.5-0.8,0.8-1v0c-0.3-0.1-0.4-0.2-0.4-0.6c0-0.4,0.3-0.7,0.8-1c-0.1-0.2-0.3-0.5-0.3-0.7
		c0-0.9,0.8-1.5,1.5-1.5c0.5,0,0.8,0.3,1,0.7h0c0.1-0.3,0.2-0.8,0.6-0.8C102.8,39.3,102.9,39.4,102.9,39.6z M99.5,43.1
		c-0.4,0.2-0.6,0.5-0.6,1c0,0.1,0.1,0.7,1,0.7c0.6,0,1.7-0.2,1.7-1c0-0.4-0.4-0.5-0.7-0.5C100.5,43.2,99.8,43.2,99.5,43.1z
		 M101.4,40.1c0-0.5-0.4-0.5-0.5-0.5c-0.8,0-0.9,1.5-0.9,1.7c0,0.3,0.3,0.5,0.5,0.5C101.1,41.7,101.4,40.6,101.4,40.1z"/>
	<path class="st2" d="M105.7,42.1c-0.3,0.6-0.7,1-1.4,1c-0.8,0-1.3-0.7-1.3-1.4c0-1.1,1.1-2.3,2.1-2.3c0.5,0,0.8,0.3,0.8,0.7
		c0,0.6-0.5,1.2-2.1,1.2c-0.1,0.3-0.1,0.5-0.1,0.8c0,0.5,0.2,0.8,0.7,0.8c0.6,0,0.9-0.4,1.2-0.9L105.7,42.1z M105.4,40
		c0-0.2-0.2-0.4-0.4-0.4c-0.6,0-1,1-1.1,1.5C104.9,41.1,105.4,40.6,105.4,40z"/>
	<path class="st2" d="M106.2,42.4c0-0.2,0.1-0.4,0.3-0.4c0.2,0,0.3,0.1,0.3,0.3c0,0.2-0.1,0.3-0.1,0.4c0,0.2,0.3,0.2,0.4,0.2
		c0.6,0,0.8-0.2,0.8-0.6c0-0.6-1.1-1.1-1.1-2c0-0.7,0.6-1,1.1-1c0.2,0,0.7,0.1,0.7,0.6c0,0.2-0.1,0.3-0.3,0.3
		c-0.2,0-0.3-0.1-0.3-0.3c0-0.1,0.1-0.2,0.1-0.3c0-0.2-0.2-0.2-0.3-0.2c-0.3,0-0.5,0.2-0.5,0.5c0,0.4,0.5,0.7,1,1.3
		c0.1,0.2,0.2,0.4,0.2,0.6c0,0.2-0.2,1.1-1.3,1.1C106.4,43.1,106.2,42.6,106.2,42.4z"/>
	<path class="st2" d="M110.7,39.6l-0.6,2.6c-0.1,0.2-0.1,0.3-0.1,0.4c0,0.1,0.1,0.2,0.2,0.2c0.4,0,0.8-0.6,0.9-1.2l0.2,0.1
		c-0.2,0.7-0.6,1.4-1.3,1.4c-0.2,0-0.6-0.1-0.6-0.5c0-0.1,0.1-0.3,0.1-0.6l0.6-2.4h-0.6l0.1-0.2h0.6l0.3-1h0.6l-0.3,1h0.7l-0.1,0.2
		H110.7z"/>
	<path class="st2" d="M115.9,41.8c-0.2,0.8-0.6,1.3-1.3,1.3c-0.3,0-0.5-0.1-0.5-0.5c0-0.1,0.1-0.4,0.1-0.5l0.6-2.5h-0.7l0.1-0.2h0.2
		c0.2,0,0.8-0.1,1.2-0.1l-0.8,2.9c0,0.1-0.1,0.2-0.1,0.3c0,0.1,0.1,0.2,0.2,0.2c0.4,0,0.7-0.6,0.9-1.1L115.9,41.8z M115.1,37.5
		c0-0.2,0.2-0.4,0.4-0.4c0.2,0,0.4,0.2,0.4,0.4c0,0.3-0.2,0.4-0.4,0.4C115.3,38,115.1,37.8,115.1,37.5z"/>
	<path class="st2" d="M116.1,42.4c0-0.2,0.1-0.4,0.3-0.4c0.2,0,0.3,0.1,0.3,0.3c0,0.2-0.1,0.3-0.1,0.4c0,0.2,0.3,0.2,0.4,0.2
		c0.6,0,0.8-0.2,0.8-0.6c0-0.6-1.1-1.1-1.1-2c0-0.7,0.6-1,1.1-1c0.2,0,0.7,0.1,0.7,0.6c0,0.2-0.1,0.3-0.3,0.3
		c-0.2,0-0.3-0.1-0.3-0.3c0-0.1,0.1-0.2,0.1-0.3c0-0.2-0.2-0.2-0.3-0.2c-0.3,0-0.5,0.2-0.5,0.5c0,0.4,0.5,0.7,1,1.3
		c0.1,0.2,0.2,0.4,0.2,0.6c0,0.2-0.2,1.1-1.3,1.1C116.2,43.1,116.1,42.6,116.1,42.4z"/>
	<path class="st2" d="M119,42.4c0-0.2,0.1-0.4,0.3-0.4c0.2,0,0.3,0.1,0.3,0.3c0,0.2-0.1,0.3-0.1,0.4c0,0.2,0.3,0.2,0.4,0.2
		c0.6,0,0.8-0.2,0.8-0.6c0-0.6-1.1-1.1-1.1-2c0-0.7,0.6-1,1.1-1c0.2,0,0.7,0.1,0.7,0.6c0,0.2-0.1,0.3-0.3,0.3
		c-0.2,0-0.3-0.1-0.3-0.3c0-0.1,0.1-0.2,0.1-0.3c0-0.2-0.2-0.2-0.3-0.2c-0.3,0-0.5,0.2-0.5,0.5c0,0.4,0.5,0.7,1,1.3
		c0.1,0.2,0.2,0.4,0.2,0.6c0,0.2-0.2,1.1-1.3,1.1C119.1,43.1,119,42.6,119,42.4z"/>
	<path class="st2" d="M122.2,39.6l0.1-0.2h0.2c0.2,0,0.8-0.1,1.2-0.1L123,42c0,0.1-0.1,0.3-0.1,0.5c0,0.3,0.2,0.3,0.3,0.3
		c0.5,0,1.1-0.6,1.3-1.4l0.5-2h0.6l-0.4,1.5c-0.1,0.4-0.4,1.4-0.4,1.5c0,0.2,0.1,0.3,0.2,0.3c0.4,0,0.7-0.7,0.8-1.1l0.2,0.1
		c-0.2,0.6-0.5,1.3-1.2,1.3c-0.5,0-0.6-0.4-0.6-0.8l0,0c-0.3,0.4-0.8,0.8-1.3,0.8c-0.4,0-0.7-0.1-0.7-0.6c0-0.1,0.1-0.4,0.2-0.7
		l0.5-2.1H122.2z"/>
	<path class="st2" d="M129,42.1c-0.3,0.6-0.7,1-1.4,1c-0.8,0-1.3-0.7-1.3-1.4c0-1.1,1.1-2.3,2.1-2.3c0.5,0,0.8,0.3,0.8,0.7
		c0,0.6-0.5,1.2-2.1,1.2c-0.1,0.3-0.1,0.5-0.1,0.8c0,0.5,0.2,0.8,0.7,0.8c0.6,0,0.9-0.4,1.2-0.9L129,42.1z M128.7,40
		c0-0.2-0.2-0.4-0.4-0.4c-0.6,0-1,1-1.1,1.5C128.2,41.1,128.7,40.6,128.7,40z"/>
	<path class="st2" d="M130.6,39.6h-0.7l0.1-0.2h0.2c0.2,0,0.8-0.1,1.2-0.1l-0.2,0.9l0,0c0.2-0.4,0.6-0.9,1.1-0.9
		c0.2,0,0.4,0.1,0.4,0.4c0,0.2-0.2,0.4-0.3,0.4c-0.2,0-0.3-0.2-0.5-0.2c-0.2,0-0.7,0.6-0.9,1.5l-0.4,1.7h-0.6L130.6,39.6z"/>
	<path class="st2" d="M136.2,43.1c-0.9,0-1.4-0.7-1.4-1.3c0-1.2,1-2.4,2.1-2.4c0.7,0,1.3,0.7,1.3,1.4
		C138.2,41.8,137.2,43.1,136.2,43.1z M135.5,42.2c0,0.4,0.3,0.7,0.7,0.7c0.6,0,0.8-0.5,1-1c0.2-0.5,0.3-1.1,0.3-1.7
		c0-0.5-0.2-0.7-0.6-0.7c-0.5,0-0.9,0.5-1,1C135.7,40.8,135.5,41.8,135.5,42.2z"/>
	<path class="st2" d="M140.1,39.6l-0.3,1.6c-0.8,3.5-1.6,3.8-2.2,3.8c-0.3,0-0.7-0.1-0.7-0.5c0-0.2,0.1-0.4,0.4-0.4
		c0.1,0,0.3,0.1,0.3,0.4c0,0-0.1,0.2-0.1,0.2c0,0.1,0.1,0.1,0.2,0.1c0.3,0,0.5-0.2,0.7-0.5c0.1-0.2,0.3-0.9,0.4-1.4l0.7-3.3h-0.7
		l0.1-0.2h0.7c0.2-1,1-2.7,2-2.7c0.3,0,0.7,0.2,0.7,0.6c0,0.2-0.2,0.3-0.3,0.3c-0.2,0-0.3-0.1-0.3-0.3c0-0.2,0.1-0.2,0.1-0.3
		c0-0.1-0.1-0.1-0.2-0.1c-0.4,0-1,0.9-1.3,2.5h0.9l-0.1,0.2H140.1z"/>
	<path class="st2" d="M147.2,41.7c-0.2,0.6-0.6,1.4-1.3,1.4c-0.3,0-0.5-0.3-0.5-0.5h0c-0.2,0.3-0.6,0.5-1,0.5
		c-0.7,0-1.1-0.7-1.1-1.3c0-1.1,1-2.5,2-2.5c0.3,0,0.6,0.1,0.8,0.4l0.7-2.7H146l0.1-0.2h0.3c0.6,0,0.8,0,1,0l-1.4,5.7
		c0,0.1,0,0.1,0,0.1c0,0.1,0.1,0.2,0.2,0.2c0.4,0,0.7-0.9,0.8-1.2L147.2,41.7z M143.9,42.2c0,0.4,0.2,0.7,0.6,0.7
		c0.4,0,0.7-0.3,1.1-1.4c0.1-0.3,0.3-1,0.3-1.4c0-0.4-0.2-0.6-0.5-0.6c-0.7,0-1,0.9-1.2,1.5C144.1,41.4,143.9,41.9,143.9,42.2z"/>
	<path class="st2" d="M149.6,41.8c-0.2,0.8-0.6,1.3-1.3,1.3c-0.3,0-0.5-0.1-0.5-0.5c0-0.1,0.1-0.4,0.1-0.5l0.6-2.5h-0.7l0.1-0.2h0.2
		c0.2,0,0.8-0.1,1.2-0.1l-0.8,2.9c0,0.1-0.1,0.2-0.1,0.3c0,0.1,0.1,0.2,0.2,0.2c0.4,0,0.7-0.6,0.9-1.1L149.6,41.8z M148.8,37.5
		c0-0.2,0.2-0.4,0.4-0.4s0.4,0.2,0.4,0.4c0,0.3-0.2,0.4-0.4,0.4S148.8,37.8,148.8,37.5z"/>
	<path class="st2" d="M154.1,39.6c0,0.2-0.1,0.3-0.3,0.3c-0.1,0-0.2-0.1-0.3-0.2c-0.1,0,0,0.1-0.4,1.1c-0.2,0.6-0.7,1-1.5,1
		c-0.2,0-0.5-0.1-0.7-0.2c-0.2,0-0.5,0.2-0.5,0.4c0,0.3,0.6,0.4,1.3,0.4c0.9,0.1,1.3,0.2,1.3,0.9c0,1.2-1.2,1.6-2.2,1.6
		c-0.6,0-1.3-0.2-1.3-1c0-0.5,0.5-0.8,0.8-1v0c-0.3-0.1-0.4-0.2-0.4-0.6c0-0.4,0.3-0.7,0.8-1c-0.1-0.2-0.3-0.5-0.3-0.7
		c0-0.9,0.8-1.5,1.5-1.5c0.5,0,0.8,0.3,1,0.7h0c0.1-0.3,0.2-0.8,0.6-0.8C154,39.3,154.1,39.4,154.1,39.6z M150.7,43.1
		c-0.4,0.2-0.6,0.5-0.6,1c0,0.1,0.1,0.7,1,0.7c0.6,0,1.7-0.2,1.7-1c0-0.4-0.4-0.5-0.7-0.5C151.8,43.2,151.1,43.2,150.7,43.1z
		 M152.6,40.1c0-0.5-0.4-0.5-0.5-0.5c-0.8,0-0.9,1.5-0.9,1.7c0,0.3,0.3,0.5,0.5,0.5C152.4,41.7,152.6,40.6,152.6,40.1z"/>
	<path class="st2" d="M156.3,41.8c-0.2,0.8-0.7,1.3-1.3,1.3c-0.3,0-0.5-0.1-0.5-0.5c0-0.1,0.1-0.4,0.1-0.5l0.6-2.5h-0.7l0.1-0.2h0.2
		c0.2,0,0.8-0.1,1.2-0.1l-0.8,2.9c0,0.1-0.1,0.2-0.1,0.3c0,0.1,0.1,0.2,0.2,0.2c0.4,0,0.7-0.6,0.9-1.1L156.3,41.8z M155.5,37.5
		c0-0.2,0.2-0.4,0.4-0.4s0.4,0.2,0.4,0.4c0,0.3-0.2,0.4-0.4,0.4S155.5,37.8,155.5,37.5z"/>
	<path class="st2" d="M158.1,39.6l-0.6,2.6c-0.1,0.2-0.1,0.3-0.1,0.4c0,0.1,0.1,0.2,0.2,0.2c0.4,0,0.8-0.6,0.9-1.2l0.2,0.1
		c-0.2,0.7-0.6,1.4-1.3,1.4c-0.2,0-0.6-0.1-0.6-0.5c0-0.1,0.1-0.3,0.1-0.6l0.6-2.4h-0.6l0.1-0.2h0.6l0.3-1h0.6l-0.3,1h0.7l-0.1,0.2
		H158.1z"/>
	<path class="st2" d="M162.7,39.4l-0.8,3.1c-0.1,0.2,0.1,0.3,0.2,0.3c0.3,0,0.8-0.8,0.8-1.1l0.2,0.1c-0.3,1-0.8,1.3-1.2,1.3
		c-0.3,0-0.6-0.2-0.6-0.6h0c-0.2,0.4-0.6,0.6-1,0.6c-0.7,0-1.1-0.6-1.1-1.4c0-1,1.1-2.4,2.1-2.4c0.3,0,0.6,0.2,0.7,0.5h0l0.1-0.5
		H162.7z M159.8,42.2c0,0.4,0.2,0.7,0.6,0.7c0.2,0,0.7-0.2,1-1.1c0.2-0.5,0.4-1.2,0.4-1.7c0-0.4-0.2-0.6-0.6-0.6
		c-0.5,0-0.7,0.4-0.9,0.8C160.1,40.8,159.8,41.7,159.8,42.2z"/>
	<path class="st2" d="M164.2,37l0.1-0.2h0.3c0.6,0,0.8,0,1,0l-1.4,5.5c0,0.1-0.1,0.2-0.1,0.3c0,0.1,0.1,0.2,0.2,0.2
		c0.4,0,0.7-0.6,0.9-1.2l0.2,0.1c-0.3,0.9-0.8,1.4-1.4,1.4c-0.3,0-0.5-0.1-0.5-0.5c0-0.1,0.1-0.4,0.1-0.5l1.3-5.1H164.2z"/>
	<path class="st2" d="M170.7,42.1c-0.3,0.5-0.8,1-1.4,1c-1,0-1.4-0.9-1.4-1.3c0-1.2,1-2.4,2.1-2.4c0.4,0,0.9,0.3,0.9,0.8
		c0,0.2-0.1,0.4-0.3,0.4c-0.2,0-0.3-0.1-0.3-0.3c0-0.3,0.3-0.4,0.3-0.5c0-0.2-0.3-0.2-0.4-0.2c-0.7,0-0.9,0.6-1.1,1
		c-0.2,0.7-0.4,1.1-0.4,1.6s0.3,0.7,0.7,0.7c0.6,0,0.9-0.4,1.2-0.8L170.7,42.1z"/>
	<path class="st2" d="M172.7,43.1c-0.9,0-1.4-0.7-1.4-1.3c0-1.2,1-2.4,2.1-2.4c0.7,0,1.3,0.7,1.3,1.4
		C174.8,41.8,173.8,43.1,172.7,43.1z M172,42.2c0,0.4,0.3,0.7,0.7,0.7c0.6,0,0.8-0.5,1-1c0.2-0.5,0.3-1.1,0.3-1.7
		c0-0.5-0.2-0.7-0.6-0.7c-0.5,0-0.9,0.5-1,1C172.3,40.8,172,41.8,172,42.2z"/>
	<path class="st2" d="M175.4,39.6l0.1-0.2h0.2c0.2,0,0.8,0,1.2-0.1l-0.2,0.7l0,0c0.3-0.4,0.7-0.8,1.2-0.8c0.3,0,0.7,0.2,0.7,0.8h0h0
		c0.3-0.4,0.7-0.8,1.2-0.8c0.4,0,0.8,0.2,0.8,0.7c0,0.3-0.6,2.5-0.6,2.5c0,0.1,0.1,0.2,0.2,0.2c0.4,0,0.7-0.8,0.8-1.1l0.2,0.1
		c-0.2,0.6-0.6,1.3-1.2,1.3c-0.3,0-0.5-0.2-0.5-0.5c0-0.5,0.6-2.3,0.6-2.6c0-0.3-0.2-0.3-0.4-0.3c-0.1,0-0.9,0.2-1.3,1.5l-0.5,1.8
		h-0.6l0.5-2.2c0.1-0.3,0.2-0.7,0.2-0.9c0-0.2-0.2-0.3-0.3-0.3c-0.1,0-0.9,0.2-1.3,1.5l-0.5,1.8h-0.6l0.8-3.4H175.4z"/>
	<path class="st2" d="M181.7,39.6l0.1-0.2h0.2c0.2,0,0.8,0,1.2-0.1l-0.2,0.7l0,0c0.3-0.4,0.7-0.8,1.2-0.8c0.3,0,0.7,0.2,0.7,0.8h0h0
		c0.3-0.4,0.7-0.8,1.2-0.8c0.4,0,0.8,0.2,0.8,0.7c0,0.3-0.6,2.5-0.6,2.5c0,0.1,0.1,0.2,0.2,0.2c0.4,0,0.7-0.8,0.8-1.1l0.2,0.1
		c-0.2,0.6-0.6,1.3-1.2,1.3c-0.3,0-0.5-0.2-0.5-0.5c0-0.5,0.6-2.3,0.6-2.6c0-0.3-0.2-0.3-0.4-0.3c-0.1,0-0.9,0.2-1.3,1.5l-0.5,1.8
		h-0.6l0.5-2.2c0.1-0.3,0.2-0.7,0.2-0.9c0-0.2-0.2-0.3-0.3-0.3c-0.1,0-0.9,0.2-1.3,1.5l-0.5,1.8h-0.6l0.8-3.4H181.7z"/>
	<path class="st2" d="M190.4,42.1c-0.3,0.6-0.7,1-1.4,1c-0.8,0-1.3-0.7-1.3-1.4c0-1.1,1.1-2.3,2.1-2.3c0.5,0,0.8,0.3,0.8,0.7
		c0,0.6-0.5,1.2-2.1,1.2c-0.1,0.3-0.1,0.5-0.1,0.8c0,0.5,0.2,0.8,0.7,0.8c0.6,0,0.9-0.4,1.2-0.9L190.4,42.1z M190.1,40
		c0-0.2-0.2-0.4-0.4-0.4c-0.6,0-1,1-1.1,1.5C189.6,41.1,190.1,40.6,190.1,40z"/>
	<path class="st2" d="M191.9,39.6h-0.7l0.1-0.2h0.2c0.2,0,0.8-0.1,1.2-0.1l-0.2,0.9l0,0c0.2-0.4,0.6-0.9,1.1-0.9
		c0.2,0,0.4,0.1,0.4,0.4c0,0.2-0.2,0.4-0.3,0.4c-0.2,0-0.3-0.2-0.5-0.2c-0.2,0-0.7,0.6-0.9,1.5l-0.4,1.7h-0.6L191.9,39.6z"/>
	<path class="st2" d="M196.6,42.1c-0.3,0.5-0.8,1-1.4,1c-1,0-1.4-0.9-1.4-1.3c0-1.2,1-2.4,2.1-2.4c0.4,0,0.9,0.3,0.9,0.8
		c0,0.2-0.1,0.4-0.3,0.4c-0.2,0-0.3-0.1-0.3-0.3c0-0.3,0.3-0.4,0.3-0.5c0-0.2-0.3-0.2-0.4-0.2c-0.7,0-0.9,0.6-1.1,1
		c-0.2,0.7-0.4,1.1-0.4,1.6s0.3,0.7,0.7,0.7c0.6,0,0.9-0.4,1.2-0.8L196.6,42.1z"/>
	<path class="st2" d="M199.3,41.8c-0.2,0.8-0.6,1.3-1.3,1.3c-0.3,0-0.5-0.1-0.5-0.5c0-0.1,0.1-0.4,0.1-0.5l0.6-2.5h-0.7l0.1-0.2h0.2
		c0.2,0,0.8-0.1,1.2-0.1l-0.8,2.9c0,0.1-0.1,0.2-0.1,0.3c0,0.1,0.1,0.2,0.2,0.2c0.4,0,0.7-0.6,0.9-1.1L199.3,41.8z M198.5,37.5
		c0-0.2,0.2-0.4,0.4-0.4s0.4,0.2,0.4,0.4c0,0.3-0.2,0.4-0.4,0.4S198.5,37.8,198.5,37.5z"/>
	<path class="st2" d="M203.3,39.4l-0.8,3.1c-0.1,0.2,0.1,0.3,0.2,0.3c0.3,0,0.8-0.8,0.8-1.1l0.2,0.1c-0.3,1-0.8,1.3-1.2,1.3
		c-0.3,0-0.6-0.2-0.6-0.6h0c-0.2,0.4-0.6,0.6-1,0.6c-0.7,0-1.1-0.6-1.1-1.4c0-1,1.1-2.4,2.1-2.4c0.3,0,0.6,0.2,0.7,0.5h0l0.1-0.5
		H203.3z M200.4,42.2c0,0.4,0.2,0.7,0.6,0.7c0.2,0,0.7-0.2,1-1.1c0.2-0.5,0.4-1.2,0.4-1.7c0-0.4-0.2-0.6-0.6-0.6
		c-0.5,0-0.7,0.4-0.9,0.8C200.7,40.8,200.4,41.7,200.4,42.2z"/>
	<path class="st2" d="M204.8,37l0.1-0.2h0.3c0.6,0,0.8,0,1,0l-1.4,5.5c0,0.1-0.1,0.2-0.1,0.3c0,0.1,0.1,0.2,0.2,0.2
		c0.4,0,0.7-0.6,0.9-1.2l0.2,0.1c-0.3,0.9-0.8,1.4-1.4,1.4c-0.3,0-0.5-0.1-0.5-0.5c0-0.1,0.1-0.4,0.1-0.5l1.3-5.1H204.8z"/>
	<path class="st2" d="M209.4,39.6h-0.7l0.1-0.2h0.2c0.2,0,0.8-0.1,1.2-0.1l-0.2,0.9l0,0c0.2-0.4,0.6-0.9,1.1-0.9
		c0.2,0,0.4,0.1,0.4,0.4c0,0.2-0.2,0.4-0.3,0.4c-0.2,0-0.3-0.2-0.5-0.2c-0.2,0-0.7,0.6-0.9,1.5l-0.4,1.7h-0.6L209.4,39.6z"/>
	<path class="st2" d="M214,42.1c-0.3,0.6-0.7,1-1.4,1c-0.8,0-1.3-0.7-1.3-1.4c0-1.1,1.1-2.3,2.1-2.3c0.5,0,0.8,0.3,0.8,0.7
		c0,0.6-0.5,1.2-2.1,1.2c-0.1,0.3-0.1,0.5-0.1,0.8c0,0.5,0.2,0.8,0.7,0.8c0.6,0,0.9-0.4,1.2-0.9L214,42.1z M213.7,40
		c0-0.2-0.2-0.4-0.4-0.4c-0.6,0-1,1-1.1,1.5C213.2,41.1,213.7,40.6,213.7,40z"/>
	<path class="st2" d="M218.4,39.4l-0.8,3.1c-0.1,0.2,0.1,0.3,0.2,0.3c0.3,0,0.8-0.8,0.8-1.1l0.2,0.1c-0.3,1-0.8,1.3-1.2,1.3
		c-0.3,0-0.6-0.2-0.6-0.6h0c-0.2,0.4-0.6,0.6-1,0.6c-0.7,0-1.1-0.6-1.1-1.4c0-1,1.1-2.4,2.1-2.4c0.3,0,0.6,0.2,0.7,0.5h0l0.1-0.5
		H218.4z M215.5,42.2c0,0.4,0.2,0.7,0.6,0.7c0.2,0,0.7-0.2,1-1.1c0.2-0.5,0.4-1.2,0.4-1.7c0-0.4-0.2-0.6-0.6-0.6
		c-0.5,0-0.7,0.4-0.9,0.8C215.7,40.8,215.5,41.7,215.5,42.2z"/>
	<path class="st2" d="M219.8,37l0.1-0.2h0.3c0.6,0,0.8,0,1,0l-1.4,5.5c0,0.1-0.1,0.2-0.1,0.3c0,0.1,0.1,0.2,0.2,0.2
		c0.4,0,0.7-0.6,0.9-1.2l0.2,0.1c-0.3,0.9-0.8,1.4-1.4,1.4c-0.3,0-0.5-0.1-0.5-0.5c0-0.1,0.1-0.4,0.1-0.5l1.3-5.1H219.8z"/>
	<path class="st2" d="M226.3,42.1c-0.3,0.6-0.7,1-1.4,1c-0.8,0-1.3-0.7-1.3-1.4c0-1.1,1.1-2.3,2.1-2.3c0.5,0,0.8,0.3,0.8,0.7
		c0,0.6-0.5,1.2-2.1,1.2c-0.1,0.3-0.1,0.5-0.1,0.8c0,0.5,0.2,0.8,0.7,0.8c0.6,0,0.9-0.4,1.2-0.9L226.3,42.1z M226,40
		c0-0.2-0.2-0.4-0.4-0.4c-0.6,0-1,1-1.1,1.5C225.5,41.1,226,40.6,226,40z"/>
	<path class="st2" d="M226.9,42.4c0-0.2,0.1-0.4,0.3-0.4c0.2,0,0.3,0.1,0.3,0.3c0,0.2-0.1,0.3-0.1,0.4c0,0.2,0.3,0.2,0.4,0.2
		c0.6,0,0.8-0.2,0.8-0.6c0-0.6-1.1-1.1-1.1-2c0-0.7,0.6-1,1.1-1c0.2,0,0.7,0.1,0.7,0.6c0,0.2-0.1,0.3-0.3,0.3
		c-0.2,0-0.3-0.1-0.3-0.3c0-0.1,0.1-0.2,0.1-0.3c0-0.2-0.2-0.2-0.3-0.2c-0.3,0-0.5,0.2-0.5,0.5c0,0.4,0.5,0.7,1,1.3
		c0.1,0.2,0.2,0.4,0.2,0.6c0,0.2-0.2,1.1-1.3,1.1C227,43.1,226.9,42.6,226.9,42.4z"/>
	<path class="st2" d="M231.3,39.6l-0.6,2.6c-0.1,0.2-0.1,0.3-0.1,0.4c0,0.1,0.1,0.2,0.2,0.2c0.4,0,0.8-0.6,0.9-1.2l0.2,0.1
		c-0.2,0.7-0.6,1.4-1.3,1.4c-0.2,0-0.6-0.1-0.6-0.5c0-0.1,0.1-0.3,0.1-0.6l0.6-2.4h-0.6l0.1-0.2h0.6l0.3-1h0.6l-0.3,1h0.7l-0.1,0.2
		H231.3z"/>
	<path class="st2" d="M235.9,39.4l-0.8,3.1c-0.1,0.2,0.1,0.3,0.2,0.3c0.3,0,0.8-0.8,0.8-1.1l0.2,0.1c-0.3,1-0.8,1.3-1.2,1.3
		c-0.3,0-0.6-0.2-0.6-0.6h0c-0.2,0.4-0.6,0.6-1,0.6c-0.7,0-1.1-0.6-1.1-1.4c0-1,1.1-2.4,2.1-2.4c0.3,0,0.6,0.2,0.7,0.5h0l0.1-0.5
		H235.9z M233,42.2c0,0.4,0.2,0.7,0.6,0.7c0.2,0,0.7-0.2,1-1.1c0.2-0.5,0.4-1.2,0.4-1.7c0-0.4-0.2-0.6-0.6-0.6
		c-0.5,0-0.7,0.4-0.9,0.8C233.3,40.8,233,41.7,233,42.2z"/>
	<path class="st2" d="M238,39.6l-0.6,2.6c-0.1,0.2-0.1,0.3-0.1,0.4c0,0.1,0.1,0.2,0.2,0.2c0.4,0,0.8-0.6,0.9-1.2l0.2,0.1
		c-0.2,0.7-0.6,1.4-1.3,1.4c-0.2,0-0.6-0.1-0.6-0.5c0-0.1,0.1-0.3,0.1-0.6l0.6-2.4h-0.6l0.1-0.2h0.6l0.3-1h0.6l-0.3,1h0.7l-0.1,0.2
		H238z"/>
	<path class="st2" d="M241.7,42.1c-0.3,0.6-0.7,1-1.4,1c-0.8,0-1.3-0.7-1.3-1.4c0-1.1,1.1-2.3,2.1-2.3c0.5,0,0.8,0.3,0.8,0.7
		c0,0.6-0.5,1.2-2.1,1.2c-0.1,0.3-0.1,0.5-0.1,0.8c0,0.5,0.2,0.8,0.7,0.8c0.6,0,0.9-0.4,1.2-0.9L241.7,42.1z M241.4,40
		c0-0.2-0.2-0.4-0.4-0.4c-0.6,0-1,1-1.1,1.5C240.9,41.1,241.4,40.6,241.4,40z"/>
</g>
</svg>
