<?xml version="1.0" encoding="utf-8"?>
<!-- Generator: Adobe Illustrator 22.0.0, SVG Export Plug-In . SVG Version: 6.00 Build 0)  -->
<svg version="1.1" id="图层_1" xmlns="http://www.w3.org/2000/svg" xmlns:xlink="http://www.w3.org/1999/xlink" x="0px" y="0px"
	 viewBox="0 0 200 200" style="enable-background:new 0 0 200 200;" xml:space="preserve">
<style type="text/css">
	.st0{fill:#FFFFFF;}
</style>
<path class="st0" d="M105.5,13.9c-48,0-87.1,39.1-87.1,87.1s39.1,87.1,87.1,87.1s87.1-39.1,87.1-87.1S153.5,13.9,105.5,13.9z
	 M105.5,175.6c-41.1,0-74.6-33.5-74.6-74.6s33.5-74.6,74.6-74.6s74.6,33.5,74.6,74.6S146.6,175.6,105.5,175.6z"/>
<path class="st0" d="M81.5,125.8c0,6.9,4.9,9.7,10.8,6.2l42.9-24.8c6-3.4,6-9.1,0-12.5L92.3,70c-6-3.4-10.8-0.6-10.8,6.3V125.8z"/>
</svg>
