<?xml version="1.0" encoding="utf-8"?>
<!-- Generator: Adobe Illustrator 22.1.0, SVG Export Plug-In . SVG Version: 6.00 Build 0)  -->
<svg version="1.1" id="图层_1" xmlns="http://www.w3.org/2000/svg" xmlns:xlink="http://www.w3.org/1999/xlink" x="0px" y="0px"
	 viewBox="0 0 50 50" style="enable-background:new 0 0 50 50;" xml:space="preserve">
<style type="text/css">
	.st0{fill:#1DA1F3;}
	.st1{fill:#FFFFFF;}
</style>
<path class="st0" d="M46.5,50h-43c-2,0-3.5-1.5-3.5-3.5v-43C0,1.5,1.5,0,3.5,0h43.2C48.5,0,50,1.5,50,3.5v43.2
	C50,48.5,48.5,50,46.5,50z"/>
<path class="st1" d="M43.8,13.3c-1.4,0.6-2.9,1-4.4,1.2c1.6-1,2.8-2.5,3.4-4.3c-1.5,0.9-3.1,1.5-4.9,1.9c-1.4-1.5-3.4-2.4-5.6-2.4
	c-4.3,0-7.7,3.5-7.7,7.7c0,0.6,0.1,1.2,0.2,1.8c-6.4-0.3-12.1-3.4-15.9-8.1c-0.7,1.1-1,2.5-1,3.9c0,2.7,1.4,5,3.4,6.4
	c-1.3,0-2.5-0.4-3.5-1v0.1c0,3.7,2.7,6.9,6.2,7.6c-0.6,0.2-1.3,0.3-2,0.3c-0.5,0-1,0-1.5-0.1c1,3.1,3.8,5.3,7.2,5.4
	c-2.6,2.1-6,3.3-9.6,3.3c-0.6,0-1.2,0-1.8-0.1c3.4,2.2,7.5,3.5,11.8,3.5c14.2,0,22-11.8,22-22c0-0.3,0-0.7,0-1
	C41.5,16.2,42.8,14.8,43.8,13.3"/>
</svg>
