<?xml version="1.0" encoding="utf-8"?>
<!-- Generator: Adobe Illustrator 22.1.0, SVG Export Plug-In . SVG Version: 6.00 Build 0)  -->
<svg version="1.1" id="强大的法律保障" xmlns="http://www.w3.org/2000/svg" xmlns:xlink="http://www.w3.org/1999/xlink"
	 x="0px" y="0px" viewBox="0 0 421 888" style="enable-background:new 0 0 421 888;" xml:space="preserve">
<style type="text/css">
	.st0{fill:#010101;}
	.st1{fill:#70DBCB;}
	.st2{fill:none;stroke:#70DBCB;}
	.st3{fill:#58595B;}
	.st4{fill:#F5F5F5;}
	.st5{fill:#FCFCFC;}
	.st6{fill:#F2F2F2;}
	.st7{fill:#E6E7E8;}
	.st8{enable-background:new    ;}
	.st9{fill:#FFFFFF;}
</style>
<rect id="矩形_47" x="215" y="658" class="st0" width="1" height="70"/>
<rect id="矩形_47_拷贝" x="250" y="795.7" class="st0" width="89.9" height="1"/>
<g id="组_27">
	<rect id="矩形_48" x="215.2" y="437.8" class="st1" width="1.2" height="77.3"/>
	<path id="形状_2" class="st2" d="M221.3,515v-72.3l146-65.5"/>
	<path id="形状_2_拷贝_2" class="st2" d="M215.3,510v-72.3l146-65.5"/>
	<path id="形状_2_拷贝" class="st2" d="M209,515v-72.3L63,378.9"/>
	<path id="形状_2_拷贝_3" class="st2" d="M215,511v-72.3L69,374.9"/>
</g>
<ellipse id="椭圆_12" class="st3" cx="349.5" cy="796.2" rx="16.6" ry="16.6"/>
<path id="圆角矩形_1_拷贝" class="st4" d="M173.8,809.9l39-10c1.7-0.4,3.4-0.3,5,0.1l32.8,10.6c1.4,0.5,1.6,1.2,0.4,1.7
	l-34.2,12.5c-2,0.6-4.1,0.7-6.1,0.1L173,811.8C171.5,811.3,171.9,810.4,173.8,809.9z"/>
<path id="圆角矩形_1" class="st5" d="M174.6,789.1l39-10c1.7-0.4,3.4-0.3,5,0.1l32.8,10.6c1.4,0.5,1.6,1.2,0.4,1.7L217.7,804
	c-2,0.6-4.1,0.7-6.1,0.1L173.9,791C172.3,790.4,172.7,789.6,174.6,789.1z"/>
<ellipse id="椭圆_11" class="st6" cx="214.9" cy="788.9" rx="18.1" ry="3.6"/>
<path id="矩形_46" class="st7" d="M172.8,790.1l43.3,15.2v14.4l-43.3-15.2V790.1z"/>
<path id="矩形_46_拷贝" class="st7" d="M253.1,790.9l-37.7,14.4v14.4l37.7-14.4V790.9z"/>
<path id="圆角矩形_1_拷贝-2" class="st4" d="M174.5,602.3l39.1-10c1.7-0.4,3.4-0.3,5,0.1l32.8,10.6c1.4,0.5,1.6,1.2,0.4,1.7
	l-34.2,12.6c-2,0.6-4.1,0.7-6.1,0.1l-37.7-13.2C172.2,603.7,172.6,602.8,174.5,602.3z"/>
<path id="圆角矩形_1-2" class="st5" d="M175.3,581.4l39.1-10c1.7-0.4,3.4-0.3,5,0.1l32.8,10.6c1.4,0.5,1.6,1.2,0.4,1.7
	l-34.2,12.6c-2,0.6-4.1,0.7-6.1,0.1l-37.7-13.2C173,582.8,173.4,581.9,175.3,581.4z"/>
<path id="椭圆_11-2" class="st6" d="M215.7,577.6c10,0,18.1,1.6,18.1,3.6s-8.1,3.6-18.1,3.6s-18.1-1.6-18.1-3.6
	S205.7,577.6,215.7,577.6z"/>
<path id="矩形_46-2" class="st7" d="M173.5,582.5l43.4,15.3v14.5L173.5,597V582.5z"/>
<path id="矩形_46_拷贝-2" class="st7" d="M253.9,583.3l-37.8,14.5v14.5l37.8-14.5V583.3z"/>
<path id="圆角矩形_1_拷贝-3" class="st4" d="M317.7,312.5l39.1-10c1.7-0.4,3.4-0.3,5,0.1l32.8,10.6c1.4,0.5,1.6,1.2,0.4,1.7
	l-34.2,12.5c-2,0.6-4.1,0.7-6.1,0.1L317,314.4C315.4,313.8,315.8,313,317.7,312.5z"/>
<path id="圆角矩形_1-3" class="st5" d="M318.5,291.6l39.1-10c1.7-0.4,3.4-0.3,5,0.1l32.8,10.6c1.4,0.5,1.6,1.2,0.4,1.6
	l-34.2,12.5c-2,0.6-4.1,0.7-6.1,0.1l-37.7-13.1C316.2,293,316.6,292.1,318.5,291.6z"/>
<path id="椭圆_11-3" class="st6" d="M358.9,287.9c10,0,18.1,1.6,18.1,3.6s-8.1,3.6-18.1,3.6s-18.1-1.6-18.1-3.6
	S348.9,287.9,358.9,287.9z"/>
<path id="矩形_46-3" class="st7" d="M316.7,292.7l43.4,15.2v14.4l-43.4-15.2V292.7z"/>
<path id="矩形_46_拷贝-3" class="st7" d="M397.1,293.5l-37.8,14.4v14.4l37.8-14.4V293.5L397.1,293.5z"/>
<path id="圆角矩形_1_拷贝-4" class="st4" d="M19.7,313.3l39.1-10c1.7-0.4,3.4-0.3,5,0.1L96.7,314c1.4,0.5,1.6,1.2,0.4,1.7
	l-34.2,12.6c-2,0.6-4.1,0.7-6.1,0.1L19,315.1C17.4,314.6,17.8,313.8,19.7,313.3z"/>
<path id="圆角矩形_1-4" class="st5" d="M20.5,292.3l39.1-10c1.7-0.4,3.4-0.3,5,0.1L97.4,293c1.4,0.5,1.6,1.2,0.4,1.7l-34.2,12.6
	c-2,0.6-4.1,0.7-6.1,0.1l-37.7-13.2C18.2,293.7,18.6,292.8,20.5,292.3z"/>
<path id="椭圆_11-4" class="st6" d="M60.9,288.5c10,0,18.1,1.6,18.1,3.6s-8.1,3.6-18.1,3.6s-18.1-1.6-18.1-3.6
	S50.9,288.5,60.9,288.5z"/>
<path id="矩形_46-4" class="st7" d="M18.7,293.4l43.4,15.3v14.5l-43.4-15.3V293.4z"/>
<path id="矩形_46_拷贝-4" class="st7" d="M99.1,294.2l-37.8,14.5v14.5l37.8-14.5V294.2z"/>
<path id="圆角矩形_1_拷贝-5" class="st4" d="M310.7,86.7l39.1-10c1.7-0.4,3.4-0.3,5,0.1l32.9,10.6c1.4,0.5,1.6,1.2,0.4,1.7
	l-34.3,12.6c-2,0.6-4.1,0.7-6.1,0.1L310,88.6C308.4,88,308.8,87.2,310.7,86.7z"/>
<path id="圆角矩形_1-5" class="st5" d="M308.5,65.8l39.1-10c1.7-0.4,3.4-0.3,5,0.1l32.9,10.6c1.4,0.5,1.6,1.2,0.4,1.7
	l-34.3,12.6c-2,0.6-4.1,0.7-6.1,0.1l-37.7-13.2C306.2,67.1,306.6,66.3,308.5,65.8z"/>
<ellipse id="椭圆_11-5" class="st6" cx="348.9" cy="65.6" rx="18.1" ry="3.6"/>
<path id="矩形_46-5" class="st7" d="M306.7,66.8l43.4,15.3v14.5l-43.4-15.3V66.8z"/>
<path id="矩形_46_拷贝-5" class="st7" d="M387.1,67.6l-37.8,14.5v14.5l37.8-14.5V67.6z"/>
<path id="圆角矩形_1_拷贝-6" class="st4" d="M20.6,86.1l39.1-10c1.7-0.4,3.4-0.3,5,0.1l32.8,10.6c1.4,0.5,1.6,1.2,0.4,1.7
	l-34.2,12.6c-2,0.6-4.1,0.7-6.1,0.1L19.9,88C18.3,87.4,18.7,86.6,20.6,86.1z"/>
<path id="圆角矩形_1-6" class="st5" d="M21.4,65.2l39.1-10c1.7-0.4,3.4-0.3,5,0.1l32.8,10.6c1.4,0.5,1.6,1.2,0.4,1.7L64.5,80.2
	c-2,0.6-4.1,0.7-6.1,0.1L20.7,67.1C19.1,66.6,19.5,65.7,21.4,65.2z"/>
<ellipse id="椭圆_11-6" class="st6" cx="61.8" cy="65.1" rx="18.1" ry="3.6"/>
<path id="矩形_46-6" class="st7" d="M19.6,66.3L63,81.5V96L19.6,80.7V66.3z"/>
<path id="矩形_46_拷贝-6" class="st7" d="M99.9,67L62.2,81.5V96L100,81.5L99.9,67L99.9,67z"/>
<rect id="矩形_49" x="359" y="172" class="st0" width="1" height="60"/>
<rect id="矩形_49_拷贝" x="62" y="142" class="st0" width="1" height="90"/>
<g class="st8">
	<path class="st3" d="M40,55h22.5V10H40V55z M54.1,15.6h5.6v5.6h-5.6V15.6z M54.1,26.9h5.6v5.6h-5.6V26.9z M54.1,38.1h5.6v5.6h-5.6
		V38.1z M42.8,15.6h5.6v5.6h-5.6V15.6z M42.8,26.9h5.6v5.6h-5.6V26.9z M42.8,38.1h5.6v5.6h-5.6V38.1z M65.3,24.1H85v2.8H65.3V24.1z
		 M65.3,55h5.6V43.8h8.4V55H85V29.7H65.3V55z"/>
</g>
<g class="st8">
	<path class="st3" d="M345.7,45.4h7.6v9.5h-7.6V45.4z"/>
	<path class="st3" d="M344.8,28.4c0,2.6,2.1,4.7,4.7,4.7s4.7-2.1,4.7-4.7s-2.1-4.7-4.7-4.7C346.9,23.7,344.8,25.8,344.8,28.4z
		 M350.4,29.3h-3.8v-1.9h1.9v-2.8h1.9V29.3z"/>
	<path class="st3" d="M323,24.6v30.3h15.1V24.6H323z M329.6,44.5h-3.8v-1.9h3.8V44.5z M329.6,40.7h-3.8v-1.9h3.8V40.7z M329.6,36.9
		h-3.8V35h3.8V36.9z M329.6,33.1h-3.8v-1.9h3.8V33.1z M329.6,29.3h-3.8v-1.9h3.8V29.3z M335.3,44.5h-3.8v-1.9h3.8V44.5z M335.3,40.7
		h-3.8v-1.9h3.8V40.7z M335.3,36.9h-3.8V35h3.8V36.9z M335.3,33.1h-3.8v-1.9h3.8V33.1z M335.3,29.3h-3.8v-1.9h3.8V29.3z"/>
	<path class="st3" d="M376,54.9V24.6h-15.1v30.3H376z M369.4,27.4h3.8v1.9h-3.8V27.4z M369.4,31.2h3.8v1.9h-3.8V31.2z M369.4,35h3.8
		v1.9h-3.8V35z M369.4,38.8h3.8v1.9h-3.8V38.8z M369.4,42.6h3.8v1.9h-3.8V42.6z M363.7,27.4h3.8v1.9h-3.8V27.4z M363.7,31.2h3.8v1.9
		h-3.8V31.2z M363.7,35h3.8v1.9h-3.8V35z M363.7,38.8h3.8v1.9h-3.8V38.8z M363.7,42.6h3.8v1.9h-3.8V42.6z"/>
	<path class="st3" d="M340,20.4v34.5h3.8V44.5c0-0.5,0.4-0.9,0.9-0.9h9.5c0.5,0,0.9,0.4,0.9,0.9v10.4h3.8V20.4l-9.5-6.9L340,20.4z
		 M356.1,28.4c0,3.7-3,6.6-6.6,6.6s-6.6-3-6.6-6.6s3-6.6,6.6-6.6C353.2,21.8,356.1,24.7,356.1,28.4z"/>
	<path class="st3" d="M349.5,1.9h11.4v5.7h-11.4V1.9z"/>
	<path class="st3" d="M349.5,16.1c-0.5,0-0.9-0.4-0.9-0.9V0.9c0-0.5,0.4-0.9,0.9-0.9s0.9,0.4,0.9,0.9v14.2
		C350.4,15.7,350,16.1,349.5,16.1z"/>
</g>
<g class="st8">
	<path class="st3" d="M78.7,281.2c0.7,0,1.3-0.6,1.3-1.3v-21.6c0-0.7-0.6-1.3-1.3-1.3h-8.1v-0.9c0-0.5-0.3-0.9-0.7-1.2l-7.9-4v-2.5
		l5.6-1.9c0.5-0.2,0.9-0.7,0.9-1.2c0-0.6-0.4-1.1-0.9-1.2L61,242c-0.4-0.1-0.8-0.1-1.2,0.2c-0.3,0.2-0.5,0.6-0.5,1.1v7.8l-7.9,4
		c-0.4,0.2-0.7,0.7-0.7,1.2v0.9h-8.3c-0.7,0-1.3,0.6-1.3,1.3v21.6c0,0.7,0.6,1.3,1.3,1.3h36.3V281.2z M61.9,246.1v-1.4l2.9,0.7
		L61.9,246.1z M43.7,259.6h7v19h-7V259.6z M53.3,257l7.3-3.7l7.3,3.7v21.6H53.3V257z M77.3,278.6h-6.8v-19h6.8V278.6z"/>
	<path class="st3" d="M58.6,259.2h-2.2c-0.7,0-1.3,0.6-1.3,1.3c0,0.7,0.6,1.3,1.3,1.3h2.2c0.7,0,1.3-0.6,1.3-1.3
		C59.9,259.8,59.3,259.2,58.6,259.2z"/>
	<path class="st3" d="M46.3,264h2.2c0.7,0,1.3-0.6,1.3-1.3c0-0.7-0.6-1.3-1.3-1.3h-2.2c-0.7,0-1.3,0.6-1.3,1.3S45.6,264,46.3,264z"
		/>
	<path class="st3" d="M48.4,265.7h-2.2c-0.7,0-1.3,0.6-1.3,1.3c0,0.7,0.6,1.3,1.3,1.3h2.2c0.7,0,1.3-0.6,1.3-1.3
		C49.8,266.3,49.2,265.7,48.4,265.7z"/>
	<path class="st3" d="M48.4,270h-2.2c-0.7,0-1.3,0.6-1.3,1.3c0,0.7,0.6,1.3,1.3,1.3h2.2c0.7,0,1.3-0.6,1.3-1.3
		C49.8,270.6,49.2,270,48.4,270z"/>
	<path class="st3" d="M73,264h2.2c0.7,0,1.3-0.6,1.3-1.3c0-0.7-0.6-1.3-1.3-1.3H73c-0.7,0-1.3,0.6-1.3,1.3S72.3,264,73,264z"/>
	<path class="st3" d="M73,268.3h2.2c0.7,0,1.3-0.6,1.3-1.3c0-0.7-0.6-1.3-1.3-1.3H73c-0.7,0-1.3,0.6-1.3,1.3
		C71.7,267.7,72.3,268.3,73,268.3z"/>
	<path class="st3" d="M75.1,270H73c-0.7,0-1.3,0.6-1.3,1.3c0,0.7,0.6,1.3,1.3,1.3h2.2c0.7,0,1.3-0.6,1.3-1.3S75.9,270,75.1,270z"/>
	<path class="st3" d="M65,259.2h-2.2c-0.7,0-1.3,0.6-1.3,1.3c0,0.7,0.6,1.3,1.3,1.3H65c0.7,0,1.3-0.6,1.3-1.3
		C66.3,259.8,65.8,259.2,65,259.2z"/>
	<path class="st3" d="M58.6,263.5h-2.2c-0.7,0-1.3,0.6-1.3,1.3c0,0.7,0.6,1.3,1.3,1.3h2.2c0.7,0,1.3-0.6,1.3-1.3
		C59.9,264.1,59.3,263.5,58.6,263.5z"/>
	<path class="st3" d="M65,263.5h-2.2c-0.7,0-1.3,0.6-1.3,1.3c0,0.7,0.6,1.3,1.3,1.3H65c0.7,0,1.3-0.6,1.3-1.3S65.8,263.5,65,263.5z"
		/>
	<path class="st3" d="M58.6,267.8h-2.2c-0.7,0-1.3,0.6-1.3,1.3s0.6,1.3,1.3,1.3h2.2c0.7,0,1.3-0.6,1.3-1.3S59.3,267.8,58.6,267.8z"
		/>
	<path class="st3" d="M65,267.8h-2.2c-0.7,0-1.3,0.6-1.3,1.3s0.6,1.3,1.3,1.3H65c0.7,0,1.3-0.6,1.3-1.3S65.8,267.8,65,267.8z"/>
</g>
<g class="st8">
	<path class="st3" d="M232.2,573.7c0.7,0,1.3-0.6,1.3-1.3v-21.6c0-0.7-0.6-1.3-1.3-1.3h-8.1v-0.9c0-0.5-0.3-0.9-0.7-1.2l-7.9-4v-2.5
		l5.6-1.9c0.5-0.2,0.9-0.7,0.9-1.2c0-0.6-0.4-1.1-0.9-1.2l-6.5-2.2c-0.4-0.1-0.8-0.1-1.2,0.2c-0.3,0.2-0.5,0.6-0.5,1.1v7.8l-7.9,4
		c-0.4,0.2-0.7,0.7-0.7,1.2v0.9H196c-0.7,0-1.3,0.6-1.3,1.3v21.6c0,0.7,0.6,1.3,1.3,1.3L232.2,573.7L232.2,573.7z M215.4,538.5v-1.4
		l2.9,0.7L215.4,538.5z M197.2,552.1h7v19h-7V552.1z M206.8,549.4l7.3-3.7l7.3,3.7V571h-14.7L206.8,549.4L206.8,549.4z M230.9,571.1
		h-6.8v-19h6.8V571.1z"/>
	<path class="st3" d="M212.1,551.6h-2.2c-0.7,0-1.3,0.6-1.3,1.3s0.6,1.3,1.3,1.3h2.2c0.7,0,1.3-0.6,1.3-1.3
		C213.4,552.2,212.8,551.6,212.1,551.6z"/>
	<path class="st3" d="M199.8,556.4h2.2c0.7,0,1.3-0.6,1.3-1.3s-0.6-1.3-1.3-1.3h-2.2c-0.7,0-1.3,0.6-1.3,1.3
		C198.5,555.8,199.1,556.4,199.8,556.4z"/>
	<path class="st3" d="M202,558.1h-2.2c-0.7,0-1.3,0.6-1.3,1.3s0.6,1.3,1.3,1.3h2.2c0.7,0,1.3-0.6,1.3-1.3S202.7,558.1,202,558.1z"/>
	<path class="st3" d="M202,562.4h-2.2c-0.7,0-1.3,0.6-1.3,1.3s0.6,1.3,1.3,1.3h2.2c0.7,0,1.3-0.6,1.3-1.3S202.7,562.4,202,562.4z"/>
	<path class="st3" d="M226.5,556.4h2.2c0.7,0,1.3-0.6,1.3-1.3s-0.6-1.3-1.3-1.3h-2.2c-0.7,0-1.3,0.6-1.3,1.3
		C225.2,555.8,225.8,556.4,226.5,556.4z"/>
	<path class="st3" d="M226.5,560.7h2.2c0.7,0,1.3-0.6,1.3-1.3s-0.6-1.3-1.3-1.3h-2.2c-0.7,0-1.3,0.6-1.3,1.3
		S225.8,560.7,226.5,560.7z"/>
	<path class="st3" d="M228.7,562.4h-2.2c-0.7,0-1.3,0.6-1.3,1.3s0.6,1.3,1.3,1.3h2.2c0.7,0,1.3-0.6,1.3-1.3S229.4,562.4,228.7,562.4
		z"/>
	<path class="st3" d="M218.6,551.6h-2.2c-0.7,0-1.3,0.6-1.3,1.3s0.6,1.3,1.3,1.3h2.2c0.7,0,1.3-0.6,1.3-1.3
		C219.9,552.2,219.3,551.6,218.6,551.6z"/>
	<path class="st3" d="M212.1,555.9h-2.2c-0.7,0-1.3,0.6-1.3,1.3s0.6,1.3,1.3,1.3h2.2c0.7,0,1.3-0.6,1.3-1.3S212.8,555.9,212.1,555.9
		z"/>
	<path class="st3" d="M218.6,555.9h-2.2c-0.7,0-1.3,0.6-1.3,1.3s0.6,1.3,1.3,1.3h2.2c0.7,0,1.3-0.6,1.3-1.3S219.3,555.9,218.6,555.9
		z"/>
	<path class="st3" d="M212.1,560.3h-2.2c-0.7,0-1.3,0.6-1.3,1.3s0.6,1.3,1.3,1.3h2.2c0.7,0,1.3-0.6,1.3-1.3S212.8,560.3,212.1,560.3
		z"/>
	<path class="st3" d="M218.6,560.3h-2.2c-0.7,0-1.3,0.6-1.3,1.3s0.6,1.3,1.3,1.3h2.2c0.7,0,1.3-0.6,1.3-1.3S219.3,560.3,218.6,560.3
		z"/>
</g>
<g class="st8">
	<path class="st3" d="M377.1,281.2c0.7,0,1.3-0.6,1.3-1.3v-21.6c0-0.7-0.6-1.3-1.3-1.3H369v-0.9c0-0.5-0.3-0.9-0.7-1.2l-7.9-4v-2.5
		l5.6-1.9c0.5-0.2,0.9-0.7,0.9-1.2c0-0.6-0.4-1.1-0.9-1.2l-6.5-2.2c-0.4-0.1-0.8-0.1-1.2,0.2c-0.3,0.2-0.5,0.6-0.5,1.1v7.8l-7.9,4
		c-0.4,0.2-0.7,0.7-0.7,1.2v0.9h-8.3c-0.7,0-1.3,0.6-1.3,1.3V280c0,0.7,0.6,1.3,1.3,1.3L377.1,281.2L377.1,281.2z M360.3,246.1v-1.4
		l2.9,0.7L360.3,246.1z M342.1,259.6h7v19h-7V259.6z M351.7,257l7.3-3.7l7.3,3.7v21.6h-14.7V257H351.7z M375.8,278.6H369v-19h6.8
		V278.6z"/>
	<path class="st3" d="M357,259.2h-2.2c-0.7,0-1.3,0.6-1.3,1.3c0,0.7,0.6,1.3,1.3,1.3h2.2c0.7,0,1.3-0.6,1.3-1.3
		C358.3,259.8,357.7,259.2,357,259.2z"/>
	<path class="st3" d="M344.7,264h2.2c0.7,0,1.3-0.6,1.3-1.3c0-0.7-0.6-1.3-1.3-1.3h-2.2c-0.7,0-1.3,0.6-1.3,1.3
		C343.4,263.4,344,264,344.7,264z"/>
	<path class="st3" d="M346.9,265.7h-2.2c-0.7,0-1.3,0.6-1.3,1.3c0,0.7,0.6,1.3,1.3,1.3h2.2c0.7,0,1.3-0.6,1.3-1.3
		C348.2,266.3,347.6,265.7,346.9,265.7z"/>
	<path class="st3" d="M346.9,270h-2.2c-0.7,0-1.3,0.6-1.3,1.3c0,0.7,0.6,1.3,1.3,1.3h2.2c0.7,0,1.3-0.6,1.3-1.3
		C348.2,270.6,347.6,270,346.9,270z"/>
	<path class="st3" d="M371.4,264h2.2c0.7,0,1.3-0.6,1.3-1.3c0-0.7-0.6-1.3-1.3-1.3h-2.2c-0.7,0-1.3,0.6-1.3,1.3S370.7,264,371.4,264
		z"/>
	<path class="st3" d="M371.4,268.3h2.2c0.7,0,1.3-0.6,1.3-1.3c0-0.7-0.6-1.3-1.3-1.3h-2.2c-0.7,0-1.3,0.6-1.3,1.3
		C370.1,267.7,370.7,268.3,371.4,268.3z"/>
	<path class="st3" d="M373.6,270h-2.2c-0.7,0-1.3,0.6-1.3,1.3c0,0.7,0.6,1.3,1.3,1.3h2.2c0.7,0,1.3-0.6,1.3-1.3S374.3,270,373.6,270
		z"/>
	<path class="st3" d="M363.5,259.2h-2.2c-0.7,0-1.3,0.6-1.3,1.3c0,0.7,0.6,1.3,1.3,1.3h2.2c0.7,0,1.3-0.6,1.3-1.3
		C364.8,259.8,364.2,259.2,363.5,259.2z"/>
	<path class="st3" d="M357,263.5h-2.2c-0.7,0-1.3,0.6-1.3,1.3c0,0.7,0.6,1.3,1.3,1.3h2.2c0.7,0,1.3-0.6,1.3-1.3
		S357.7,263.5,357,263.5z"/>
	<path class="st3" d="M363.5,263.5h-2.2c-0.7,0-1.3,0.6-1.3,1.3c0,0.7,0.6,1.3,1.3,1.3h2.2c0.7,0,1.3-0.6,1.3-1.3
		S364.2,263.5,363.5,263.5z"/>
	<path class="st3" d="M357,267.8h-2.2c-0.7,0-1.3,0.6-1.3,1.3s0.6,1.3,1.3,1.3h2.2c0.7,0,1.3-0.6,1.3-1.3S357.7,267.8,357,267.8z"/>
	<path class="st3" d="M363.5,267.8h-2.2c-0.7,0-1.3,0.6-1.3,1.3s0.6,1.3,1.3,1.3h2.2c0.7,0,1.3-0.6,1.3-1.3S364.2,267.8,363.5,267.8
		z"/>
</g>
<polygon id="XMLID_63_" class="st9" points="350.7,792.3 352.2,792.3 352.2,790 356,790 356,802.3 352.2,802.3 352.2,798.9 
	354.7,798.9 354.7,793.6 344.4,793.6 344.4,798.9 346.8,798.9 346.8,802.3 343.1,802.3 343.1,790 346.9,790 346.9,792.3 
	348.4,792.3 348.4,788.4 341.5,788.4 341.5,803.9 348.4,803.9 348.4,797.3 346,797.3 346,795.2 353.1,795.2 353.1,797.3 
	350.7,797.3 350.7,803.9 357.6,803.9 357.6,788.4 350.7,788.4 "/>
<g>
	<g>
		<g>
			<path class="st3" d="M234,751.3c0.2-0.5,0.3-1,0.1-1.5s-0.5-0.9-1-1.2l-4.5-2.3c-0.1-0.1-0.2-0.2-0.3-0.4l-0.8-5
				c-0.2-1-1-1.7-2-1.7c-0.1,0-0.2,0-0.3,0l-5,0.8c-0.2,0-0.3,0-0.4-0.1l-3.6-3.6c-0.4-0.4-0.9-0.6-1.4-0.6s-1,0.2-1.4,0.6l-3.6,3.6
				c-0.1,0.1-0.3,0.2-0.4,0.1l-5-0.8c-0.1,0-0.2,0-0.3,0c-1,0-1.8,0.7-2,1.7l-0.8,5c0,0.2-0.1,0.3-0.3,0.4l-4.5,2.3
				c-0.5,0.2-0.8,0.7-1,1.2s-0.1,1.1,0.1,1.5l2.3,4.5c0.1,0.1,0.1,0.3,0,0.5l-2.3,4.5c-0.2,0.5-0.3,1-0.1,1.5s0.5,0.9,1,1.2l4.5,2.3
				c0.1,0.1,0.2,0.2,0.3,0.4l0.8,5c0.2,1,1,1.7,2,1.7c0.1,0,0.2,0,0.3,0l5-0.8c0.2,0,0.3,0,0.4,0.1l3.6,3.6c0.4,0.4,0.9,0.6,1.4,0.6
				s1-0.2,1.4-0.6l3.6-3.6c0.1-0.1,0.3-0.2,0.4-0.1l5,0.8c0.1,0,0.2,0,0.3,0c1,0,1.8-0.7,2-1.7l0.8-5c0-0.2,0.1-0.3,0.3-0.4l4.5-2.3
				c0.5-0.2,0.8-0.7,1-1.2s0.1-1.1-0.1-1.5l-2.3-4.5c-0.1-0.1-0.1-0.3,0-0.5L234,751.3z M230.4,756.9l2.3,4.5c0.1,0.1,0.1,0.3,0,0.4
				c0,0.1-0.1,0.2-0.3,0.3l-4.5,2.3c-0.6,0.3-1,0.8-1.1,1.5l-0.8,5c0,0.3-0.3,0.5-0.6,0.4l-5-0.8c-0.1,0-0.2,0-0.3,0
				c-0.5,0-1,0.2-1.4,0.6l-3.6,3.6c-0.2,0.2-0.5,0.2-0.7,0L211,771c-0.4-0.4-0.9-0.6-1.4-0.6c-0.1,0-0.2,0-0.3,0l-5,0.8
				c-0.3,0-0.5-0.2-0.6-0.4l-0.8-5c-0.1-0.6-0.5-1.2-1.1-1.5l-4.5-2.3c-0.1-0.1-0.2-0.2-0.3-0.3c0-0.1,0-0.3,0-0.4l2.3-4.5
				c0.3-0.6,0.3-1.3,0-1.8l-2.3-4.5c-0.1-0.1-0.1-0.3,0-0.4s0.1-0.2,0.3-0.3l4.5-2.3c0.6-0.3,1-0.8,1.1-1.5l0.8-5
				c0-0.3,0.3-0.5,0.6-0.4l5,0.8c0.1,0,0.2,0,0.3,0l0,0c0.5,0,1-0.2,1.4-0.6l3.6-3.6c0.2-0.2,0.5-0.2,0.7,0l3.6,3.6
				c0.4,0.5,1.1,0.7,1.7,0.6l5-0.8c0.3,0,0.5,0.2,0.6,0.4l0.8,5c0.1,0.6,0.5,1.2,1.1,1.5l4.5,2.3c0.1,0.1,0.2,0.2,0.3,0.3
				c0,0.1,0,0.3,0,0.4l-2.3,4.5C230.1,755.6,230.1,756.3,230.4,756.9z"/>
			<path class="st3" d="M220.8,747.5c0.1,0.1,0.3,0.1,0.4,0.1c0.2,0,0.5-0.1,0.6-0.3c0.2-0.3,0.1-0.8-0.2-1s-0.8-0.1-1,0.2
				C220.4,746.8,220.5,747.2,220.8,747.5z"/>
			<path class="st3" d="M223.2,749.4c0.2,0,0.4-0.1,0.5-0.2c0.3-0.3,0.3-0.7,0.1-1.1c-0.3-0.3-0.8-0.3-1.1-0.1
				c-0.3,0.3-0.3,0.7-0.1,1.1C222.8,749.3,223,749.4,223.2,749.4z"/>
			<path class="st3" d="M218.6,765.6c-0.4,0.1-0.6,0.6-0.4,1c0.1,0.3,0.4,0.5,0.7,0.5c0.1,0,0.2,0,0.3,0c0.4-0.1,0.6-0.6,0.4-1
				C219.4,765.7,219,765.5,218.6,765.6z"/>
			<path class="st3" d="M220.8,764.4c-0.3,0.2-0.4,0.7-0.2,1c0.1,0.2,0.4,0.3,0.6,0.3c0.1,0,0.3,0,0.4-0.1c0.3-0.2,0.4-0.7,0.2-1
				C221.6,764.3,221.2,764.2,220.8,764.4z"/>
			<path class="st3" d="M211.3,765.6c-0.4-0.1-0.8,0-1,0.4s0,0.8,0.4,1c0.1,0,0.2,0,0.3,0c0.3,0,0.6-0.2,0.7-0.5
				C211.9,766.2,211.7,765.8,211.3,765.6z"/>
			<path class="st3" d="M216.2,766.2c-0.4,0-0.7,0.4-0.7,0.8c0,0.4,0.4,0.7,0.7,0.7h0.1c0.4,0,0.7-0.4,0.7-0.8
				C217,766.4,216.6,766.1,216.2,766.2z"/>
			<path class="st3" d="M213.7,766.2L213.7,766.2c-0.4,0-0.8,0.2-0.8,0.7c0,0.4,0.2,0.8,0.7,0.8h0.1c0.4,0,0.7-0.3,0.7-0.7
				S214.1,766.3,213.7,766.2z"/>
			<path class="st3" d="M225,753.5L225,753.5c0.1,0.3,0.4,0.6,0.7,0.6c0.1,0,0.1,0,0.2,0c0.4-0.1,0.6-0.5,0.5-0.9s-0.5-0.6-0.9-0.5
				C225.1,752.7,224.9,753.1,225,753.5z"/>
			<path class="st3" d="M226,755.2c-0.4,0-0.8,0.3-0.8,0.8s0.3,0.8,0.8,0.7c0.4,0,0.8-0.3,0.7-0.8
				C226.8,755.5,226.4,755.2,226,755.2z"/>
			<path class="st3" d="M225.9,757.9c-0.4-0.1-0.8,0.1-0.9,0.5c-0.1,0.4,0.1,0.8,0.5,0.9c0.1,0,0.1,0,0.2,0c0.3,0,0.6-0.2,0.7-0.6
				C226.5,758.4,226.3,758,225.9,757.9z"/>
			<path class="st3" d="M224.7,751.6c0.1,0,0.2,0,0.3-0.1c0.4-0.2,0.5-0.6,0.3-1s-0.6-0.5-1-0.3s-0.5,0.6-0.3,1
				C224.2,751.4,224.5,751.6,224.7,751.6z"/>
			<path class="st3" d="M222.7,762.8c-0.3,0.3-0.2,0.8,0.1,1.1c0.1,0.1,0.3,0.2,0.5,0.2s0.4-0.1,0.6-0.3c0.3-0.3,0.2-0.8-0.1-1.1
				C223.4,762.4,222.9,762.5,222.7,762.8z"/>
			<path class="st3" d="M225.1,760.4c-0.4-0.2-0.8,0-1,0.3c-0.2,0.4,0,0.8,0.3,1c0.1,0.1,0.2,0.1,0.3,0.1c0.3,0,0.5-0.1,0.7-0.4
				C225.6,761.1,225.5,760.6,225.1,760.4z"/>
			<path class="st3" d="M206.7,749.4c0.2,0,0.4-0.1,0.6-0.2c0.3-0.3,0.2-0.8-0.1-1.1s-0.8-0.2-1.1,0.1s-0.2,0.8,0.1,1.1
				C206.3,749.3,206.5,749.4,206.7,749.4z"/>
			<path class="st3" d="M204.8,760.5c-0.4,0.2-0.5,0.6-0.3,1c0.1,0.3,0.4,0.4,0.7,0.4c0.1,0,0.2,0,0.3-0.1c0.4-0.2,0.5-0.6,0.3-1
				S205.2,760.3,204.8,760.5z"/>
			<path class="st3" d="M204.9,758.5c-0.1-0.4-0.5-0.6-0.9-0.5s-0.6,0.5-0.5,0.9c0.1,0.3,0.4,0.6,0.7,0.6c0.1,0,0.1,0,0.2,0
				C204.8,759.3,205,758.9,204.9,758.5z"/>
			<path class="st3" d="M204,754c0.1,0,0.1,0,0.2,0c0.3,0,0.6-0.2,0.7-0.6c0.1-0.4-0.1-0.8-0.5-0.9c-0.4-0.1-0.8,0.1-0.9,0.5
				C203.4,753.5,203.6,753.9,204,754z"/>
			<path class="st3" d="M203.9,756.7c0.4,0,0.7-0.3,0.7-0.8l0,0l0,0c0-0.4-0.3-0.8-0.8-0.8c-0.4,0-0.7,0.3-0.7,0.8l0,0l0,0
				C203.1,756.4,203.5,756.7,203.9,756.7L203.9,756.7z"/>
			<path class="st3" d="M204.8,751.5c0.1,0.1,0.2,0.1,0.3,0.1c0.3,0,0.5-0.1,0.7-0.4c0.2-0.4,0-0.8-0.3-1c-0.4-0.2-0.8,0-1,0.3
				C204.3,750.8,204.4,751.3,204.8,751.5z"/>
			<path class="st3" d="M206.2,762.8c-0.3,0.3-0.3,0.8-0.1,1.1c0.1,0.2,0.4,0.2,0.6,0.2c0.2,0,0.4-0.1,0.5-0.2
				c0.3-0.3,0.3-0.8,0.1-1.1C207,762.5,206.5,762.5,206.2,762.8z"/>
			<path class="st3" d="M213.6,745.7L213.6,745.7c0.5-0.1,0.8-0.4,0.7-0.8c0-0.4-0.4-0.7-0.8-0.7s-0.7,0.4-0.7,0.8
				C212.9,745.4,213.2,745.7,213.6,745.7z"/>
			<path class="st3" d="M216.2,745.7L216.2,745.7c0.5,0,0.8-0.3,0.8-0.7s-0.2-0.8-0.7-0.8c-0.4,0-0.8,0.2-0.8,0.7
				C215.5,745.3,215.8,745.7,216.2,745.7z"/>
			<path class="st3" d="M218.6,746.3c0.1,0,0.2,0,0.3,0c0.3,0,0.6-0.2,0.7-0.5c0.1-0.4,0-0.8-0.4-1c-0.4-0.1-0.8,0-1,0.4
				S218.2,746.2,218.6,746.3z"/>
			<path class="st3" d="M211,746.4c0.1,0,0.2,0,0.3,0c0.4-0.1,0.6-0.6,0.4-1c-0.1-0.4-0.6-0.6-1-0.4l0,0c-0.4,0.1-0.6,0.6-0.4,1
				C210.4,746.2,210.7,746.4,211,746.4z"/>
			<path class="st3" d="M209.1,764.5c-0.3-0.2-0.8-0.1-1,0.2s-0.1,0.8,0.2,1c0.1,0.1,0.3,0.1,0.4,0.1c0.2,0,0.5-0.1,0.6-0.3
				C209.5,765.2,209.4,764.7,209.1,764.5z"/>
			<path class="st3" d="M208.6,747.6c0.1,0,0.3,0,0.4-0.1c0.3-0.2,0.4-0.7,0.2-1s-0.7-0.4-1-0.2s-0.4,0.7-0.2,1
				C208.2,747.5,208.4,747.6,208.6,747.6z"/>
		</g>
	</g>
	<g>
		<path class="st3" d="M200.3,760h29.3c1.7,0,3.1-1.4,3.1-3.1c0-1.2-0.7-2.2-1.7-2.7v-3.4c0-0.4-0.2-0.8-0.6-0.9l-15-7.2
			c-0.3-0.1-0.6-0.1-0.9,0l-15,7.2c-0.4,0.2-0.6,0.5-0.6,0.9v3.4c-1,0.5-1.7,1.5-1.7,2.7C197.2,758.7,198.6,760,200.3,760z
			 M214.9,747.8c1.1,0,2,0.9,2,2s-0.9,2-2,2s-2-0.9-2-2S213.8,747.8,214.9,747.8z"/>
		<path class="st3" d="M229.4,771.6h-0.5l0.4-4c0.1-1.2,0.1-2.4,0-3.6l-0.2-1.9h-6.8l-0.2,1.9c-0.1,1.2-0.1,2.4,0,3.6l0.4,4H218
			l0.4-4c0.1-1.2,0.1-2.4,0-3.6l-0.2-1.9h-6.8l-0.2,1.9c-0.1,1.2-0.1,2.4,0,3.6l0.4,4h-4.5l0.4-4c0.1-1.2,0.1-2.4,0-3.6l-0.2-1.9
			h-6.8l-0.2,1.9c-0.1,1.2-0.1,2.4,0,3.6l0.4,4h-0.5c-1.8,0-3.2,1.5-3.2,3.2s1.5,3.2,3.2,3.2h29c1.8,0,3.2-1.5,3.2-3.2
			S231.2,771.6,229.4,771.6z"/>
	</g>
</g>
<g>
	<path d="M1.1,114.9v5.5h5.1v0.9H1.1v6.3H0.2V114h6.3v0.9H1.1z"/>
	<path d="M18.2,127.2c-1.1,0.4-2.2,0.7-3.5,0.7c-1.9,0-3.4-0.7-4.5-1.9s-1.8-2.9-1.8-4.8c0-2.2,0.7-3.9,1.9-5.3c1.2-1.3,2.9-2,4.8-2
		c1,0,2,0.2,3,0.6v1c-0.9-0.4-1.9-0.7-3-0.7c-1.7,0-3.1,0.6-4.2,1.7s-1.6,2.7-1.6,4.6s0.6,3.4,1.6,4.4c1,1.1,2.4,1.6,3.9,1.6
		c1.2,0,2.4-0.2,3.4-0.7V127.2L18.2,127.2L18.2,127.2z"/>
	<path d="M30.1,127.6l-1.6-4.3h-5.8l-1.6,4.3h-1l5.2-13.6h0.9l5.1,13.6H30.1z M25.9,116.3c-0.1-0.2-0.1-0.3-0.1-0.6
		c0-0.1-0.1-0.3-0.1-0.4l0,0c-0.1,0.4-0.2,0.8-0.3,1l-2.2,6.3h5.3L25.9,116.3z"/>
	<path d="M43.3,118.8c-0.3-0.2-0.7-0.3-1-0.3c-0.8,0-1.5,0.4-1.9,1.2c-0.4,0.8-0.8,1.9-0.8,3.4v4.6h-0.9V118h0.9v2.1l0,0
		c0.2-0.8,0.6-1.3,1-1.7c0.4-0.3,1-0.7,1.7-0.7c0.3,0,0.7,0.1,1,0.2V118.8z"/>
	<path d="M44.8,122.8c0,1.3,0.3,2.4,0.9,3.1c0.6,0.8,1.5,1.1,2.6,1.1s2.1-0.4,3.1-1.2v0.9c-1,0.7-2.1,1.1-3.4,1.1s-2.2-0.4-3-1.3
		s-1.1-2.1-1.1-3.8c0-1.5,0.4-2.6,1.2-3.6s1.9-1.5,3.1-1.5s2.1,0.4,2.8,1.2c0.7,0.9,1,2,1,3.5v0.3h-7.3v0.2H44.8z M51.1,122
		c0-1.1-0.3-2-0.8-2.6c-0.4-0.6-1.2-0.9-2-0.9c-0.9,0-1.7,0.3-2.2,0.9c-0.6,0.6-1,1.5-1.1,2.6H51.1z"/>
	<path d="M62.3,126.9c0,1.8-0.4,3.1-1.2,4s-2,1.2-3.7,1.2c-0.9,0-1.9-0.2-2.9-0.8v-0.9c1,0.6,2,0.9,2.9,0.9c2.7,0,4-1.5,4-4.3v-1.2
		l0,0c-0.8,1.3-1.9,2-3.5,2c-1.2,0-2.1-0.4-2.9-1.3c-0.8-0.9-1.1-2-1.1-3.6s0.4-2.8,1.2-3.8s1.9-1.5,3.3-1.5c1.5,0,2.5,0.6,3.1,1.8
		l0,0v-1.6h0.9v9h-0.1V126.9z M61.4,121.7c0-0.9-0.3-1.6-0.9-2.2c-0.6-0.7-1.3-0.9-2.2-0.9c-1.1,0-1.9,0.4-2.6,1.2
		c-0.7,0.8-1,1.9-1,3.1c0,1.3,0.3,2.4,0.9,3.1c0.6,0.8,1.3,1.1,2.4,1.1c1,0,1.9-0.3,2.5-1s0.9-1.5,0.9-2.5v-2h0V121.7z"/>
	<path d="M71.7,127.6v-1.8l0,0c-0.7,1.3-1.7,2-3.1,2c-2.2,0-3.5-1.5-3.5-4.4v-5.6H66v5.4c0,1.3,0.2,2.2,0.7,2.8
		c0.4,0.6,1.1,0.9,2,0.9s1.7-0.3,2.1-1c0.6-0.7,0.8-1.6,0.8-2.7v-5.5h0.9v9.7h-0.8V127.6z"/>
	<path d="M75.8,127.6v-14.4h0.9v14.4H75.8z"/>
	<path d="M85.6,127.6v-1.9l0,0c-0.3,0.7-0.8,1.2-1.3,1.6c-0.6,0.4-1.2,0.6-2,0.6c-0.9,0-1.7-0.2-2.2-0.8s-0.8-1.1-0.8-1.9
		c0-1.7,1.1-2.7,3.4-3l3-0.4c0-2.1-0.8-3.1-2.4-3.1c-1,0-2.1,0.4-3.1,1.2v-1c0.3-0.3,0.9-0.6,1.5-0.8c0.6-0.2,1.2-0.3,1.8-0.3
		c1,0,1.8,0.3,2.4,0.9c0.6,0.7,0.8,1.6,0.8,2.7v6.3h-0.9v-0.1H85.6z M82.9,122.8c-1,0.1-1.7,0.3-2.1,0.7c-0.4,0.3-0.6,0.9-0.6,1.6
		c0,0.6,0.2,1,0.6,1.5c0.3,0.3,0.9,0.6,1.6,0.6c0.9,0,1.7-0.3,2.4-1s0.9-1.6,0.9-2.7v-0.9L82.9,122.8z"/>
	<path d="M93.2,127.5c-0.4,0.2-0.9,0.3-1.2,0.3c-1.5,0-2.1-0.9-2.1-2.6v-6.5H88v-0.8h1.8v-2.5c0.1,0,0.2-0.1,0.4-0.1
		c0.1,0,0.3-0.1,0.4-0.1v2.8h2.6v0.8h-2.6v6.4c0,0.7,0.1,1.1,0.3,1.5c0.2,0.3,0.6,0.4,1.1,0.4c0.3,0,0.8-0.1,1.1-0.3L93.2,127.5
		C93.1,127.5,93.2,127.5,93.2,127.5z"/>
	<path d="M95.6,115.5c-0.2,0-0.3-0.1-0.4-0.2S95,115,95,114.7s0.1-0.3,0.2-0.4s0.3-0.2,0.4-0.2c0.2,0,0.3,0.1,0.6,0.2
		c0.1,0.1,0.2,0.3,0.2,0.6s-0.1,0.3-0.2,0.6C95.9,115.4,95.8,115.5,95.6,115.5z M95.1,127.6v-9.7H96v9.7H95.1z"/>
	<path d="M103,127.8c-1.5,0-2.6-0.4-3.4-1.3s-1.2-2.1-1.2-3.6c0-1.6,0.4-2.9,1.3-3.8s2-1.3,3.4-1.3c1.3,0,2.5,0.4,3.3,1.3
		s1.2,2.1,1.2,3.7c0,1.5-0.4,2.7-1.2,3.7C105.6,127.4,104.5,127.8,103,127.8z M103.1,118.5c-1.1,0-2,0.3-2.7,1.1
		c-0.7,0.8-1,1.8-1,3.3c0,1.2,0.3,2.2,1,3s1.6,1.1,2.7,1.1s2-0.3,2.7-1.1s0.9-1.8,0.9-3.1s-0.3-2.5-0.9-3.1
		C105.1,118.8,104.2,118.5,103.1,118.5z"/>
	<path d="M116.6,127.6V122c0-2.4-0.8-3.5-2.5-3.5c-0.9,0-1.7,0.3-2.4,1c-0.6,0.7-0.9,1.6-0.9,2.6v5.6H110V118h0.9v1.8l0,0
		c0.7-1.3,1.8-2,3.4-2c1,0,1.8,0.3,2.4,1s0.8,1.7,0.8,3v6h-0.8v-0.2H116.6z"/>
</g>
<g>
	<path d="M285.9,126.1c-1,0.4-2.1,0.6-3.2,0.6c-1.8,0-3.1-0.6-4.2-1.8c-1-1.1-1.7-2.7-1.7-4.5c0-2.1,0.6-3.6,1.8-4.9
		s2.7-1.9,4.5-1.9c0.9,0,1.9,0.2,2.8,0.5v0.9c-0.8-0.4-1.8-0.6-2.8-0.6c-1.6,0-2.9,0.5-3.8,1.6c-1,1-1.5,2.5-1.5,4.3
		s0.5,3.1,1.5,4.1c0.9,1,2.2,1.5,3.6,1.5c1.1,0,2.2-0.2,3.1-0.6L285.9,126.1L285.9,126.1z"/>
	<path d="M293.9,126.5v-1.8l0,0c-0.3,0.6-0.7,1.1-1.2,1.5s-1.1,0.5-1.9,0.5s-1.6-0.2-2.1-0.7s-0.7-1-0.7-1.8c0-1.6,1-2.5,3.1-2.8
		l2.8-0.4c0-2-0.7-2.9-2.2-2.9c-0.9,0-2,0.4-2.9,1.1v-0.9c0.3-0.3,0.8-0.5,1.4-0.7c0.5-0.2,1.1-0.3,1.7-0.3c0.9,0,1.7,0.3,2.2,0.8
		s0.7,1.5,0.7,2.5v5.8H294v0.1H293.9z M291.4,122.1c-0.9,0.1-1.6,0.3-2,0.6c-0.4,0.3-0.6,0.8-0.6,1.5c0,0.5,0.2,0.9,0.5,1.4
		c0.3,0.3,0.8,0.5,1.5,0.5c0.8,0,1.6-0.3,2.2-0.9s0.8-1.5,0.8-2.5v-0.8L291.4,122.1z"/>
	<path d="M299.7,128.4c-0.3,0.8-0.7,1.5-1,1.8s-0.9,0.6-1.6,0.6c-0.3,0-0.5,0-0.7-0.1v-0.8c0.2,0.1,0.4,0.1,0.7,0.1
		c0.7,0,1.2-0.5,1.7-1.5l0.8-2l-3.4-8.9h0.9l2.7,7.3c0.1,0.2,0.1,0.3,0.1,0.3c0,0.1,0,0.2,0.1,0.3l0,0l0.2-0.6l2.9-7.4h0.8
		L299.7,128.4z"/>
	<path d="M316.9,126.5v-5.4c0-1.1-0.2-2-0.5-2.4s-0.9-0.7-1.7-0.7c-0.7,0-1.4,0.3-1.9,0.9s-0.7,1.4-0.7,2.3v5.3h-0.8V121
		c0-2-0.7-3-2.3-3c-0.7,0-1.4,0.3-1.9,0.9s-0.7,1.4-0.7,2.4v5.2h-0.8v-8.9h0.8v1.5l0,0c0.6-1.1,1.6-1.7,2.7-1.7
		c0.6,0,1.2,0.2,1.7,0.5c0.4,0.4,0.8,0.8,0.9,1.5c0.3-0.6,0.7-1.1,1.2-1.6c0.5-0.3,1-0.5,1.7-0.5c2,0,2.9,1.2,2.9,3.6v5.5
		L316.9,126.5L316.9,126.5L316.9,126.5z"/>
	<path d="M325.8,126.5v-1.8l0,0c-0.3,0.6-0.7,1.1-1.2,1.5s-1.1,0.5-1.9,0.5s-1.6-0.2-2.1-0.7s-0.7-1-0.7-1.8c0-1.6,1-2.5,3.1-2.8
		l2.8-0.4c0-2-0.7-2.9-2.2-2.9c-0.9,0-2,0.4-2.9,1.1v-0.9c0.3-0.3,0.8-0.5,1.4-0.7c0.5-0.2,1.1-0.3,1.7-0.3c0.9,0,1.7,0.3,2.2,0.8
		s0.7,1.5,0.7,2.5v5.8h-0.8v0.1H325.8z M323.3,122.1c-0.9,0.1-1.6,0.3-2,0.6c-0.4,0.3-0.6,0.8-0.6,1.5c0,0.5,0.2,0.9,0.5,1.4
		c0.3,0.3,0.8,0.5,1.5,0.5c0.8,0,1.6-0.3,2.2-0.9s0.8-1.5,0.8-2.5v-0.8L323.3,122.1z"/>
	<path d="M335.3,126.5v-5.2c0-2.2-0.7-3.2-2.3-3.2c-0.8,0-1.6,0.3-2.2,0.9c-0.5,0.6-0.8,1.5-0.8,2.4v5.2h-0.8v-8.9h0.8v1.7l0,0
		c0.6-1.2,1.7-1.9,3.1-1.9c0.9,0,1.7,0.3,2.2,0.9s0.7,1.6,0.7,2.8v5.5h-0.7L335.3,126.5L335.3,126.5z"/>
	<path d="M350.4,126.5l-1.7-3.6c-0.3-0.7-0.7-1.2-1-1.6c-0.3-0.3-0.7-0.4-1.2-0.4h-1.6v5.6h-0.8V114h3.5c1.1,0,2,0.3,2.6,0.9
		s0.9,1.4,0.9,2.4c0,0.9-0.3,1.7-0.8,2.3s-1.2,1-2.2,1.1l0,0c0.5,0.2,0.9,0.8,1.5,1.8l1.9,4.1h-1.1V126.5z M344.9,114.8v5.4h2.2
		c0.9,0,1.8-0.2,2.3-0.7s0.8-1.1,0.8-2.1c0-0.8-0.2-1.5-0.7-1.9s-1.2-0.7-2.2-0.7C347.3,114.8,344.9,114.8,344.9,114.8z"/>
	<path d="M353.9,122.1c0,1.2,0.3,2.2,0.8,2.9s1.4,1,2.4,1s2-0.4,2.9-1.1v0.8c-0.9,0.6-2,1-3.1,1s-2.1-0.4-2.8-1.2
		c-0.7-0.8-1-2-1-3.5c0-1.4,0.4-2.4,1.1-3.3s1.8-1.4,2.9-1.4s2,0.4,2.6,1.1c0.6,0.8,0.9,1.9,0.9,3.2v0.3h-6.8v0.2H353.9z
		 M359.8,121.3c0-1-0.3-1.9-0.7-2.4c-0.4-0.5-1.1-0.8-1.9-0.8s-1.6,0.3-2.1,0.8s-0.9,1.4-1,2.4H359.8z"/>
	<path d="M370.1,125.9c0,1.7-0.4,2.9-1.1,3.7s-1.9,1.1-3.4,1.1c-0.8,0-1.8-0.2-2.7-0.7v-0.8c0.9,0.5,1.9,0.8,2.7,0.8
		c2.5,0,3.7-1.4,3.7-4v-1l0,0c-0.7,1.2-1.8,1.9-3.2,1.9c-1.1,0-2-0.4-2.7-1.2s-1-1.9-1-3.3c0-1.5,0.4-2.6,1.1-3.5s1.8-1.4,3-1.4
		c1.4,0,2.3,0.5,2.9,1.7l0,0v-1.5h0.7V125.9z M369.2,121c0-0.8-0.3-1.5-0.8-2.1s-1.2-0.8-2.1-0.8c-1,0-1.8,0.4-2.4,1.1
		s-0.9,1.8-0.9,2.9c0,1.2,0.3,2.2,0.8,2.9c0.5,0.7,1.2,1,2.2,1s1.8-0.3,2.3-0.9s0.8-1.4,0.8-2.3V121H369.2z"/>
	<path d="M378.9,126.5v-1.7l0,0c-0.6,1.2-1.6,1.9-2.9,1.9c-2.1,0-3.2-1.4-3.2-4.1v-5.2h0.8v5c0,1.2,0.2,2.1,0.6,2.6s1,0.8,1.9,0.8
		s1.6-0.3,2-0.9c0.5-0.6,0.7-1.5,0.7-2.5v-5.1h0.8v8.9h-0.7L378.9,126.5L378.9,126.5z"/>
	<path d="M382.5,126.5v-13.3h0.8v13.3H382.5z"/>
	<path d="M391.6,126.5v-1.8l0,0c-0.3,0.6-0.7,1.1-1.2,1.5s-1.1,0.5-1.9,0.5s-1.6-0.2-2.1-0.7s-0.7-1-0.7-1.8c0-1.6,1-2.5,3.1-2.8
		l2.8-0.4c0-2-0.7-2.9-2.2-2.9c-0.9,0-2,0.4-2.9,1.1v-0.9c0.3-0.3,0.8-0.5,1.4-0.7c0.5-0.2,1.1-0.3,1.7-0.3c0.9,0,1.7,0.3,2.2,0.8
		s0.7,1.5,0.7,2.5v5.8h-0.8v0.1H391.6z M389.1,122.1c-0.9,0.1-1.6,0.3-2,0.6c-0.4,0.3-0.6,0.8-0.6,1.5c0,0.5,0.2,0.9,0.5,1.4
		c0.3,0.3,0.8,0.5,1.5,0.5c0.8,0,1.6-0.3,2.2-0.9s0.8-1.5,0.8-2.5v-0.8L389.1,122.1z"/>
	<path d="M398.6,126.4c-0.4,0.2-0.8,0.3-1.1,0.3c-1.4,0-2-0.8-2-2.4v-6h-1.7v-0.7h1.7v-2.3c0.1,0,0.2-0.1,0.4-0.1
		c0.1,0,0.3-0.1,0.4-0.1v2.6h2.4v0.7h-2.4v5.9c0,0.6,0.1,1,0.3,1.4c0.2,0.3,0.5,0.4,1,0.4c0.3,0,0.7-0.1,1-0.3L398.6,126.4
		L398.6,126.4z"/>
	<path d="M400.8,115.3c-0.2,0-0.3-0.1-0.4-0.2s-0.2-0.3-0.2-0.5s0.1-0.3,0.2-0.4s0.3-0.2,0.4-0.2c0.2,0,0.3,0.1,0.5,0.2
		s0.2,0.3,0.2,0.5s-0.1,0.3-0.2,0.5C401.1,115.2,401,115.3,400.8,115.3z M400.4,126.5v-8.9h0.8v8.9H400.4z"/>
	<path d="M407.7,126.7c-1.4,0-2.4-0.4-3.1-1.2c-0.7-0.8-1.1-2-1.1-3.3c0-1.5,0.4-2.7,1.2-3.5c0.8-0.8,1.9-1.2,3.1-1.2s2.3,0.4,3,1.2
		c0.7,0.8,1.1,2,1.1,3.4s-0.4,2.5-1.1,3.4C410.1,126.3,409,126.7,407.7,126.7z M407.8,118.1c-1,0-1.9,0.3-2.5,1s-0.9,1.7-0.9,3
		c0,1.1,0.3,2.1,0.9,2.8c0.6,0.7,1.5,1,2.5,1s1.9-0.3,2.5-1s0.8-1.7,0.8-2.9c0-1.2-0.3-2.3-0.8-2.9
		C409.7,118.4,408.8,118.1,407.8,118.1z"/>
	<path d="M420.3,126.5v-5.2c0-2.2-0.7-3.2-2.3-3.2c-0.8,0-1.6,0.3-2.2,0.9c-0.5,0.6-0.8,1.5-0.8,2.4v5.2h-0.8v-8.9h0.8v1.7l0,0
		c0.6-1.2,1.7-1.9,3.1-1.9c0.9,0,1.7,0.3,2.2,0.9s0.7,1.6,0.7,2.8v5.5h-0.7L420.3,126.5L420.3,126.5z"/>
	<path d="M312.9,144.4v5.1H312v-12.6h3c1.2,0,2.3,0.3,3,0.9s1,1.5,1,2.6s-0.4,2.1-1.1,2.9c-0.7,0.8-1.9,1.1-3.2,1.1h-1.9l0,0H312.9z
		 M312.9,137.7v5.9h1.8c1.1,0,2-0.3,2.6-0.8s0.9-1.4,0.9-2.3c0-1.9-1-2.8-3.2-2.8L312.9,137.7L312.9,137.7z"/>
	<path d="M332.6,149.4h-0.7l-2.8-9.5c-0.1-0.5-0.2-0.8-0.2-1.1l0,0c0,0.2-0.1,0.6-0.3,1.1l-3,9.5h-0.7l-3.6-12.6h0.9l2.9,10.1
		c0.1,0.4,0.2,0.8,0.3,1.1l0,0c0-0.2,0.1-0.6,0.3-1.1l3.1-10.1h0.4l2.8,10.1c0.1,0.5,0.2,0.8,0.3,1.1l0,0c0-0.2,0.1-0.3,0.1-0.5
		l2.9-10.6h0.9L332.6,149.4z"/>
	<path d="M346.8,149c-1,0.4-2.1,0.6-3.2,0.6c-1.8,0-3.1-0.6-4.2-1.8s-1.7-2.7-1.7-4.5c0-2.1,0.6-3.6,1.8-4.9
		c1.1-1.2,2.7-1.9,4.5-1.9c0.9,0,1.9,0.2,2.8,0.5v0.9c-0.8-0.4-1.8-0.6-2.8-0.6c-1.6,0-2.9,0.5-3.8,1.6c-1,1-1.5,2.5-1.5,4.3
		s0.5,3.1,1.5,4.1c0.9,1,2.2,1.5,3.6,1.5c1.1,0,2.2-0.2,3.1-0.6L346.8,149L346.8,149L346.8,149z"/>
	<path d="M362.7,149.4l-1.5-4h-5.4l-1.5,4h-0.9l4.8-12.6h0.8l4.7,12.6H362.7z M358.8,138.9c-0.1-0.2-0.1-0.3-0.1-0.5
		c0-0.1-0.1-0.3-0.1-0.4l0,0c-0.1,0.4-0.2,0.7-0.3,0.9l-2.1,5.8h4.9L358.8,138.9z"/>
	<path d="M371.5,149.4v-1.7l0,0c-0.6,1.2-1.6,1.9-2.9,1.9c-2.1,0-3.2-1.4-3.2-4.1v-5.2h0.8v5c0,1.2,0.2,2.1,0.6,2.6s1,0.8,1.9,0.8
		s1.6-0.3,2-0.9c0.5-0.6,0.7-1.5,0.7-2.5v-5.1h0.8v8.9h-0.7L371.5,149.4L371.5,149.4z"/>
	<path d="M381.6,149.4v-1.7l0,0c-0.3,0.5-0.7,1-1.4,1.4c-0.6,0.3-1.2,0.5-2,0.5c-1.1,0-2-0.4-2.7-1.2s-1-1.9-1-3.3
		c0-1.5,0.4-2.6,1.1-3.5s1.8-1.4,3-1.4c1.4,0,2.3,0.5,2.9,1.7l0,0v-5.7h0.8v13.3L381.6,149.4L381.6,149.4z M381.6,143.9
		c0-0.8-0.3-1.6-0.8-2.1s-1.2-0.8-2.2-0.8s-1.8,0.3-2.3,1c-0.6,0.7-0.9,1.7-0.9,3c0,1.2,0.3,2.2,0.8,2.9s1.2,1,2.2,1
		s1.8-0.3,2.4-0.9c0.6-0.6,0.8-1.5,0.8-2.3C381.6,145.8,381.6,143.9,381.6,143.9z"/>
	<path d="M385.6,138.2c-0.2,0-0.3-0.1-0.4-0.2c-0.1-0.1-0.2-0.3-0.2-0.5s0.1-0.3,0.2-0.4c0.1-0.1,0.3-0.2,0.4-0.2
		c0.2,0,0.3,0.1,0.5,0.2c0.2,0.1,0.2,0.3,0.2,0.5s-0.1,0.3-0.2,0.5C386.1,138.1,385.9,138.2,385.6,138.2z M385.3,149.4v-8.9h0.8v8.9
		H385.3z"/>
	<path d="M392.5,149.3c-0.4,0.2-0.8,0.3-1.1,0.3c-1.4,0-2-0.8-2-2.4v-6h-1.7v-0.7h1.7v-2.3c0.1,0,0.2-0.1,0.4-0.1
		c0.1,0,0.3-0.1,0.4-0.1v2.6h2.4v0.7h-2.4v5.9c0,0.6,0.1,1,0.3,1.4c0.2,0.3,0.5,0.4,1,0.4c0.3,0,0.7-0.1,1-0.3L392.5,149.3
		L392.5,149.3L392.5,149.3z"/>
</g>
<g>
	<path d="M138.4,632v12.7h-0.9V632h-3.9v-0.9h8.8v0.9H138.4z"/>
	<path d="M146.5,636c-0.3-0.2-0.7-0.3-1-0.3c-0.8,0-1.5,0.4-1.9,1.2s-0.8,1.9-0.8,3.4v4.6h-0.9v-9.7h0.9v2.1l0,0
		c0.2-0.8,0.6-1.3,1-1.7s1-0.7,1.7-0.7c0.3,0,0.7,0.1,1,0.2V636z"/>
	<path d="M154.2,644.7v-1.9l0,0c-0.3,0.7-0.8,1.2-1.3,1.6s-1.2,0.6-2,0.6c-0.9,0-1.7-0.2-2.2-0.8s-0.8-1.1-0.8-1.9
		c0-1.7,1.1-2.7,3.4-3l3-0.4c0-2.1-0.8-3.1-2.4-3.1c-1,0-2.1,0.4-3.1,1.2v-1c0.3-0.3,0.9-0.6,1.5-0.8s1.2-0.3,1.8-0.3
		c1,0,1.8,0.3,2.4,0.9c0.6,0.6,0.8,1.6,0.8,2.7v6.3h-0.9v-0.1H154.2z M151.5,639.9c-1,0.1-1.7,0.3-2.1,0.7c-0.4,0.3-0.7,0.9-0.7,1.6
		c0,0.6,0.2,1,0.6,1.5s0.9,0.6,1.6,0.6c0.9,0,1.7-0.3,2.4-1s0.9-1.6,0.9-2.7v-0.9L151.5,639.9z"/>
	<path d="M164.5,644.7v-5.6c0-2.4-0.8-3.5-2.5-3.5c-0.9,0-1.7,0.3-2.4,1s-0.9,1.6-0.9,2.6v5.6h-0.9v-9.7h0.9v1.8l0,0
		c0.7-1.3,1.8-2,3.4-2c1,0,1.8,0.3,2.4,1c0.6,0.7,0.8,1.7,0.8,3v6h-0.8V644.7z"/>
	<path d="M167.9,644.4v-1c0.3,0.3,0.7,0.4,1.2,0.7c0.6,0.2,0.9,0.2,1.2,0.2c1.6,0,2.2-0.7,2.2-1.9c0-0.4-0.1-0.8-0.4-1.1
		c-0.3-0.3-0.9-0.6-1.7-0.9c-0.9-0.4-1.6-0.8-1.9-1.2c-0.3-0.4-0.6-1-0.6-1.6c0-0.8,0.3-1.5,0.9-1.9s1.3-0.7,2.2-0.7
		c0.8,0,1.6,0.2,2.1,0.6v1c-0.7-0.4-1.5-0.7-2.2-0.7s-1.1,0.1-1.6,0.4s-0.6,0.8-0.6,1.3c0,0.4,0.1,0.8,0.3,1.1s0.8,0.6,1.7,1
		c1,0.4,1.7,0.9,2.1,1.2c0.4,0.3,0.6,0.9,0.6,1.6c0,0.8-0.3,1.3-0.9,1.9c-0.6,0.6-1.3,0.8-2.4,0.8
		C169.3,645.1,168.5,644.9,167.9,644.4z"/>
	<path d="M181.7,644.7v-1.9l0,0c-0.3,0.7-0.8,1.2-1.3,1.6s-1.2,0.6-2,0.6c-0.9,0-1.7-0.2-2.2-0.8c-0.6-0.6-0.8-1.1-0.8-1.9
		c0-1.7,1.1-2.7,3.4-3l3-0.4c0-2.1-0.8-3.1-2.4-3.1c-1,0-2.1,0.4-3.1,1.2v-1c0.3-0.3,0.9-0.6,1.5-0.8s1.2-0.3,1.8-0.3
		c1,0,1.8,0.3,2.4,0.9c0.6,0.6,0.8,1.6,0.8,2.7v6.3h-0.9v-0.1H181.7z M179,639.9c-1,0.1-1.7,0.3-2.1,0.7c-0.4,0.3-0.7,0.9-0.7,1.6
		c0,0.6,0.2,1,0.6,1.5c0.3,0.4,0.9,0.6,1.6,0.6c0.9,0,1.7-0.3,2.4-1s0.9-1.6,0.9-2.7v-0.9L179,639.9z"/>
	<path d="M191.9,644.4c-0.7,0.4-1.6,0.7-2.6,0.7c-1.3,0-2.4-0.4-3.1-1.3s-1.2-2.1-1.2-3.6c0-1.6,0.4-2.8,1.3-3.8
		c0.9-1,2.1-1.5,3.5-1.5c0.8,0,1.5,0.1,2.1,0.4v1c-0.7-0.4-1.5-0.7-2.2-0.7c-1.1,0-2,0.4-2.8,1.2s-1,1.9-1,3.1c0,1.2,0.3,2.2,1,3
		s1.5,1.1,2.6,1.1c1,0,1.8-0.2,2.6-0.8v1h-0.2V644.4z"/>
	<path d="M198,644.6c-0.4,0.2-0.9,0.3-1.2,0.3c-1.5,0-2.1-0.9-2.1-2.6v-6.5h-1.8V635h1.8v-2.5c0.1,0,0.2-0.1,0.4-0.1
		s0.3-0.1,0.4-0.1v2.8h2.6v0.8h-2.7v6.4c0,0.7,0.1,1.1,0.3,1.5c0.2,0.3,0.6,0.4,1.1,0.4c0.3,0,0.8-0.1,1.1-0.3L198,644.6L198,644.6z
		"/>
	<path d="M200.4,632.6c-0.2,0-0.3-0.1-0.4-0.2s-0.2-0.3-0.2-0.6c0-0.2,0.1-0.3,0.2-0.4c0.1-0.1,0.3-0.2,0.4-0.2
		c0.2,0,0.3,0.1,0.6,0.2c0.2,0.1,0.2,0.3,0.2,0.6s-0.1,0.3-0.2,0.6C200.9,632.7,200.5,632.6,200.4,632.6z M200,644.7V635h0.9v9.7
		H200z"/>
	<path d="M207.8,645.1c-1.5,0-2.6-0.4-3.4-1.3c-0.8-0.9-1.2-2.1-1.2-3.6c0-1.6,0.4-2.9,1.3-3.8c0.9-0.9,2-1.3,3.4-1.3
		c1.3,0,2.5,0.4,3.3,1.3s1.2,2.1,1.2,3.7c0,1.5-0.4,2.7-1.2,3.7S209.3,645.1,207.8,645.1z M207.9,635.6c-1.1,0-2,0.3-2.7,1.1
		s-1,1.8-1,3.3c0,1.2,0.3,2.2,1,3s1.6,1.1,2.7,1.1c1.1,0,2-0.3,2.7-1.1s0.9-1.8,0.9-3.1s-0.3-2.5-0.9-3.1
		C210.1,636.1,209.1,635.6,207.9,635.6z"/>
	<path d="M221.4,644.7v-5.6c0-2.4-0.8-3.5-2.5-3.5c-0.9,0-1.7,0.3-2.4,1s-0.9,1.6-0.9,2.6v5.6h-0.9v-9.7h0.9v1.8l0,0
		c0.7-1.3,1.8-2,3.4-2c1,0,1.8,0.3,2.4,1s0.8,1.7,0.8,3v6h-0.8V644.7z"/>
	<path d="M242.6,644.7v-9.6c0-0.2,0-0.9,0.1-2l0,0c-0.2,0.6-0.3,0.9-0.4,1.2l-4.8,10.5h-0.3l-4.8-10.5c-0.1-0.3-0.3-0.8-0.4-1.2l0,0
		c0,0.6,0.1,1.2,0.1,1.8v9.9H231v-13.6h0.9l5.1,11c0,0.1,0.1,0.1,0.1,0.2c0,0.1,0.1,0.2,0.1,0.3c0.1,0.1,0.1,0.3,0.2,0.6h0.1
		l0.1-0.3c0,0,0.1-0.3,0.3-0.9l4.9-10.9h0.8v13.6L242.6,644.7L242.6,644.7L242.6,644.7z"/>
	<path d="M250.7,645.1c-1.5,0-2.6-0.4-3.4-1.3s-1.2-2.1-1.2-3.6c0-1.6,0.4-2.9,1.3-3.8s2-1.3,3.4-1.3c1.3,0,2.5,0.4,3.3,1.3
		c0.8,0.9,1.2,2.1,1.2,3.7c0,1.5-0.4,2.7-1.2,3.7C253.3,644.7,252,645.1,250.7,645.1z M250.7,635.6c-1.1,0-2,0.3-2.7,1.1
		s-1,1.8-1,3.3c0,1.2,0.3,2.2,1,3s1.6,1.1,2.7,1.1c1.1,0,2-0.3,2.7-1.1s0.9-1.8,0.9-3.1s-0.3-2.5-0.9-3.1
		C252.8,636.1,251.8,635.6,250.7,635.6z"/>
	<path d="M264.5,644.7V643l0,0c-0.3,0.6-0.8,1.1-1.5,1.5c-0.7,0.3-1.3,0.6-2.1,0.6c-1.2,0-2.1-0.4-2.9-1.3c-0.8-0.9-1.1-2-1.1-3.6
		s0.4-2.8,1.2-3.8s1.9-1.5,3.3-1.5c1.5,0,2.5,0.6,3.1,1.8l0,0v-6.2h0.9v14.4h-0.9V644.7z M264.5,638.9c0-0.9-0.3-1.7-0.9-2.2
		c-0.6-0.6-1.3-0.9-2.4-0.9c-1,0-1.9,0.3-2.5,1.1s-1,1.8-1,3.3c0,1.3,0.3,2.4,0.9,3.1c0.6,0.8,1.3,1.1,2.4,1.1s1.9-0.3,2.6-1
		s0.9-1.6,0.9-2.5V638.9L264.5,638.9z"/>
	<path d="M275,644.7V643l0,0c-0.7,1.3-1.7,2-3.1,2c-2.2,0-3.5-1.5-3.5-4.4V635h0.9v5.4c0,1.3,0.2,2.2,0.7,2.8s1.1,0.9,2,0.9
		s1.7-0.3,2.1-1s0.8-1.6,0.8-2.7V635h0.9v9.7H275L275,644.7z"/>
	<path d="M278.9,644.7v-14.4h0.9v14.4H278.9z"/>
	<path d="M283.2,640c0,1.3,0.3,2.4,0.9,3.1s1.5,1.1,2.6,1.1s2.1-0.4,3.1-1.2v0.9c-1,0.7-2.1,1.1-3.4,1.1s-2.2-0.4-3-1.3
		c-0.8-0.9-1.1-2.1-1.1-3.8c0-1.5,0.4-2.6,1.2-3.6s1.9-1.5,3.1-1.5s2.1,0.4,2.8,1.2c0.7,0.8,1,2,1,3.5v0.3h-7.3L283.2,640L283.2,640
		z M289.4,639.2c0-1.1-0.3-2-0.8-2.6s-1.2-0.9-2-0.9c-0.9,0-1.7,0.3-2.2,0.9c-0.6,0.6-1,1.5-1.1,2.6H289.4z"/>
</g>
<g>
	<path d="M142.2,842.1v6.4h5.9v1h-5.9v7.3h-1V841h7.3v1L142.2,842.1L142.2,842.1z"/>
	<path d="M162,856.5c-1.3,0.5-2.6,0.8-4,0.8c-2.2,0-3.9-0.8-5.2-2.2s-2.1-3.4-2.1-5.6c0-2.6,0.8-4.6,2.2-6.1
		c1.4-1.6,3.4-2.4,5.6-2.4c1.2,0,2.4,0.3,3.5,0.7v1.2c-1-0.5-2.2-0.8-3.5-0.8c-2,0-3.7,0.7-4.8,2s-1.8,3.1-1.8,5.4
		c0,2.2,0.7,3.9,1.8,5.1s2.7,1.8,4.6,1.8c1.4,0,2.7-0.3,3.9-0.8v1H162V856.5z"/>
	<path d="M175.9,856.9l-1.8-5h-6.8l-1.8,5h-1.2l6-15.8h1l5.9,15.8H175.9z M171.1,843.7c-0.1-0.3-0.1-0.4-0.1-0.7
		c0-0.1-0.1-0.4-0.1-0.5l0,0c-0.1,0.5-0.3,0.9-0.4,1.2l-2.6,7.3h6.1L171.1,843.7z"/>
	<path d="M194,856.9l-2.1-4.6c-0.4-0.9-0.9-1.6-1.3-2c-0.4-0.4-0.9-0.5-1.6-0.5h-2v7.1h-1v-15.8h4.4c1.4,0,2.5,0.4,3.3,1.2
		s1.2,1.7,1.2,3c0,1.2-0.4,2.1-1,2.9c-0.7,0.8-1.6,1.3-2.7,1.4l0,0c0.7,0.3,1.2,1,1.8,2.2l2.4,5.1L194,856.9L194,856.9z M187,842.1
		v6.8h2.7c1.2,0,2.2-0.3,2.9-0.9s1-1.4,1-2.6c0-1-0.3-1.8-0.9-2.4s-1.6-0.9-2.7-0.9L187,842.1L187,842.1z"/>
	<path d="M198.5,851.4c0,1.6,0.4,2.7,1,3.7c0.7,0.9,1.7,1.3,3,1.3s2.5-0.5,3.7-1.4v1c-1.2,0.8-2.5,1.3-3.9,1.3s-2.6-0.5-3.5-1.6
		c-0.9-1-1.3-2.5-1.3-4.4c0-1.7,0.5-3,1.4-4.2s2.2-1.7,3.7-1.7c1.4,0,2.5,0.5,3.3,1.4s1.2,2.4,1.2,4v0.4h-8.5L198.5,851.4
		L198.5,851.4z M205.8,850.5c0-1.3-0.4-2.4-0.9-3c-0.5-0.7-1.4-1-2.4-1s-2,0.4-2.6,1c-0.7,0.7-1.2,1.7-1.3,3H205.8z"/>
	<path d="M218.7,856.1c0,2.1-0.5,3.7-1.4,4.7s-2.4,1.4-4.3,1.4c-1,0-2.2-0.3-3.4-0.9v-1c1.2,0.7,2.4,1,3.4,1c3.1,0,4.7-1.7,4.7-5
		v-1.4l0,0c-0.9,1.6-2.2,2.4-4,2.4c-1.4,0-2.5-0.5-3.4-1.6c-0.9-1-1.3-2.4-1.3-4.2s0.5-3.3,1.4-4.4c0.9-1.2,2.2-1.7,3.8-1.7
		c1.7,0,2.9,0.7,3.7,2.1l0,0v-1.8h1v10.5L218.7,856.1L218.7,856.1z M217.7,849.9c0-1-0.4-1.8-1-2.6c-0.7-0.8-1.6-1-2.6-1
		c-1.3,0-2.2,0.5-3,1.4s-1.2,2.2-1.2,3.7c0,1.6,0.4,2.7,1,3.7c0.7,0.9,1.6,1.3,2.7,1.3c1.2,0,2.2-0.4,2.9-1.2s1-1.7,1-2.9v-2.4
		H217.7z"/>
	<path d="M229.7,856.9v-2l0,0c-0.8,1.6-2,2.4-3.7,2.4c-2.6,0-4-1.7-4-5.1v-6.5h1v6.3c0,1.6,0.3,2.6,0.8,3.3s1.3,1,2.4,1
		s2-0.4,2.5-1.2s0.9-1.8,0.9-3.1v-6.4h1v11.2L229.7,856.9L229.7,856.9z"/>
	<path d="M234.4,856.9v-16.7h1v16.7H234.4z"/>
	<path d="M245.8,856.9v-2.2l0,0c-0.4,0.8-0.9,1.4-1.6,1.8c-0.7,0.4-1.4,0.7-2.4,0.7s-2-0.3-2.6-0.9s-0.9-1.3-0.9-2.2
		c0-2,1.3-3.1,3.9-3.5l3.5-0.5c0-2.5-0.9-3.7-2.7-3.7c-1.2,0-2.5,0.5-3.7,1.4v-1.2c0.4-0.4,1-0.7,1.7-0.9c0.7-0.3,1.4-0.4,2.1-0.4
		c1.2,0,2.1,0.4,2.7,1c0.7,0.7,0.9,1.8,0.9,3.1v7.3h-1v0.2H245.8z M242.6,851.3c-1.2,0.1-2,0.4-2.5,0.8c-0.5,0.4-0.8,1-0.8,1.8
		c0,0.7,0.3,1.2,0.7,1.7s1,0.7,1.8,0.7c1,0,2-0.4,2.7-1.2c0.8-0.8,1-1.8,1-3.1v-1L242.6,851.3z"/>
	<path d="M254.7,856.7c-0.5,0.3-1,0.4-1.4,0.4c-1.7,0-2.5-1-2.5-3v-7.6h-2.1v-0.9h2.1v-2.9c0.1,0,0.3-0.1,0.5-0.1s0.4-0.1,0.5-0.1
		v3.3h3v0.9h-3v7.4c0,0.8,0.1,1.3,0.4,1.7c0.3,0.4,0.7,0.5,1.3,0.5c0.4,0,0.9-0.1,1.3-0.4v0.8L254.7,856.7L254.7,856.7z"/>
	<path d="M257.4,842.8c-0.3,0-0.4-0.1-0.5-0.3s-0.3-0.4-0.3-0.7s0.1-0.4,0.3-0.5s0.4-0.3,0.5-0.3c0.3,0,0.4,0.1,0.7,0.3
		c0.3,0.1,0.3,0.4,0.3,0.7s-0.1,0.4-0.3,0.7C257.9,842.9,257.5,842.8,257.4,842.8z M256.9,856.9v-11.2h1v11.2H256.9z"/>
	<path d="M266,857.3c-1.7,0-3-0.5-3.9-1.6c-0.9-1-1.4-2.5-1.4-4.2c0-1.8,0.5-3.4,1.6-4.4c1-1,2.4-1.6,3.9-1.6s2.9,0.5,3.8,1.6
		c0.9,1,1.4,2.5,1.4,4.3c0,1.7-0.5,3.1-1.4,4.3C269,856.9,267.7,857.3,266,857.3z M266.1,846.3c-1.3,0-2.4,0.4-3.1,1.3
		c-0.8,0.9-1.2,2.1-1.2,3.8c0,1.4,0.4,2.6,1.2,3.5c0.8,0.9,1.8,1.3,3.1,1.3s2.4-0.4,3.1-1.3c0.8-0.9,1-2.1,1-3.7s-0.4-2.9-1-3.7
		C268.6,846.8,267.5,846.3,266.1,846.3z"/>
	<path d="M281.8,856.9v-6.5c0-2.7-0.9-4-2.9-4c-1,0-2,0.4-2.7,1.2c-0.8,0.8-1,1.8-1,3v6.5h-1v-11.2h1v2.1l0,0
		c0.8-1.6,2.1-2.4,3.9-2.4c1.2,0,2.1,0.4,2.7,1.2s0.9,2,0.9,3.5v6.9h-0.9V856.9z"/>
	<path d="M166.1,879.3v6.4h-1v-15.8h3.8c1.6,0,2.9,0.4,3.8,1.2c0.9,0.8,1.3,1.8,1.3,3.3s-0.5,2.6-1.4,3.7c-0.9,1-2.4,1.4-4,1.4h-2.4
		v-0.2H166.1z M166.1,870.8v7.4h2.2c1.4,0,2.5-0.4,3.3-1c0.8-0.7,1.2-1.7,1.2-2.9c0-2.4-1.3-3.5-4-3.5H166.1z"/>
	<path d="M190.9,885.6H190l-3.5-11.9c-0.1-0.7-0.3-1-0.3-1.4l0,0c0,0.3-0.1,0.8-0.4,1.4l-3.8,11.9h-0.9l-4.7-15.8h1.2l3.7,12.7
		c0.1,0.5,0.3,1,0.4,1.4l0,0c0-0.3,0.1-0.8,0.4-1.4l3.9-12.7h0.5l3.5,12.7c0.1,0.7,0.3,1,0.4,1.4l0,0c0-0.3,0.1-0.4,0.1-0.7
		l3.7-13.3h1.2L190.9,885.6z"/>
	<path d="M208.7,885.2c-1.3,0.5-2.6,0.8-4,0.8c-2.2,0-3.9-0.8-5.2-2.2s-2.1-3.4-2.1-5.6c0-2.6,0.8-4.6,2.2-6.1
		c1.4-1.6,3.4-2.4,5.6-2.4c1.2,0,2.4,0.3,3.5,0.7v1.2c-1-0.5-2.2-0.8-3.5-0.8c-2,0-3.7,0.7-4.8,2s-1.8,3.1-1.8,5.4
		c0,2.2,0.7,3.9,1.8,5.1c1.2,1.2,2.7,1.8,4.6,1.8c1.4,0,2.7-0.3,3.9-0.8v1h-0.2V885.2z"/>
	<path d="M228.7,885.6l-1.8-5H220l-1.8,5H217l6-15.8h1l5.9,15.8H228.7z M223.8,872.4c-0.1-0.3-0.1-0.4-0.1-0.7
		c0-0.1-0.1-0.4-0.1-0.5l0,0c-0.1,0.5-0.3,0.9-0.4,1.2l-2.6,7.3h6.1L223.8,872.4z"/>
	<path d="M239.8,885.6v-2l0,0c-0.8,1.6-2,2.4-3.7,2.4c-2.6,0-4-1.7-4-5.1v-6.5h1v6.3c0,1.6,0.3,2.6,0.8,3.3s1.3,1,2.4,1
		s2-0.4,2.5-1.2s0.9-1.8,0.9-3.1v-6.4h1v11.2L239.8,885.6L239.8,885.6z"/>
	<path d="M252.4,885.6v-2l0,0c-0.4,0.7-0.9,1.3-1.7,1.7s-1.6,0.7-2.5,0.7c-1.4,0-2.5-0.5-3.4-1.6c-0.9-1-1.3-2.4-1.3-4.2
		s0.5-3.3,1.4-4.4s2.2-1.7,3.8-1.7c1.7,0,2.9,0.7,3.7,2.1l0,0V869h1v16.7h-1V885.6z M252.4,878.8c0-1-0.4-2-1-2.6s-1.6-1-2.7-1
		c-1.2,0-2.2,0.4-2.9,1.3c-0.7,0.9-1.2,2.1-1.2,3.8c0,1.6,0.4,2.7,1,3.7c0.7,0.9,1.6,1.3,2.7,1.3c1.3,0,2.2-0.4,3-1.2s1-1.8,1-2.9
		L252.4,878.8L252.4,878.8z"/>
	<path d="M257.5,871.5c-0.3,0-0.4-0.1-0.5-0.3s-0.3-0.4-0.3-0.7s0.1-0.4,0.3-0.5s0.4-0.3,0.5-0.3c0.3,0,0.4,0.1,0.7,0.3
		c0.3,0.1,0.3,0.4,0.3,0.7s-0.1,0.4-0.3,0.7S257.8,871.5,257.5,871.5z M257.1,885.6v-11.2h1v11.2H257.1z"/>
	<path d="M266.1,885.5c-0.5,0.3-1,0.4-1.4,0.4c-1.7,0-2.5-1-2.5-3v-7.6h-2.1v-0.9h2.1v-2.9c0.1,0,0.3-0.1,0.5-0.1
		c0.3,0,0.4-0.1,0.5-0.1v3.3h3v0.9h-3v7.4c0,0.8,0.1,1.3,0.4,1.7s0.7,0.5,1.3,0.5c0.4,0,0.9-0.1,1.3-0.4L266.1,885.5L266.1,885.5
		L266.1,885.5z"/>
</g>
<g>
	<path d="M9.6,346.8L8.2,343H3l-1.4,3.8H0.6l4.6-12.1H6l4.5,12.1H9.6z M5.9,336.6c-0.1-0.2-0.1-0.3-0.1-0.5c0-0.1-0.1-0.3-0.1-0.4h0
		c-0.1,0.4-0.2,0.7-0.3,0.9l-2,5.6h4.7L5.9,336.6z"/>
	<path d="M12,346.4v-0.9c0.3,0.3,0.6,0.4,1.1,0.6c0.4,0.1,0.8,0.2,1.1,0.2c1.4,0,2-0.6,2-1.7c0-0.4-0.1-0.7-0.4-1
		c-0.3-0.3-0.8-0.5-1.5-0.8c-0.8-0.4-1.4-0.7-1.7-1.1c-0.3-0.4-0.5-0.9-0.5-1.4c0-0.7,0.3-1.3,0.8-1.7c0.5-0.4,1.2-0.6,2-0.6
		c0.7,0,1.4,0.2,1.9,0.5v0.9c-0.6-0.4-1.3-0.6-2-0.6c-0.6,0-1,0.1-1.4,0.4c-0.3,0.3-0.5,0.7-0.5,1.2c0,0.4,0.1,0.7,0.3,1
		c0.2,0.3,0.7,0.5,1.5,0.9c0.9,0.4,1.5,0.8,1.9,1.1s0.5,0.8,0.5,1.4c0,0.7-0.3,1.2-0.8,1.7c-0.5,0.4-1.2,0.7-2.1,0.7
		C13.2,347,12.5,346.8,12,346.4z"/>
	<path d="M18.7,346.4v-0.9c0.3,0.3,0.6,0.4,1.1,0.6c0.4,0.1,0.8,0.2,1.1,0.2c1.4,0,2-0.6,2-1.7c0-0.4-0.1-0.7-0.4-1
		c-0.3-0.3-0.8-0.5-1.5-0.8c-0.8-0.4-1.4-0.7-1.7-1.1c-0.3-0.4-0.5-0.9-0.5-1.4c0-0.7,0.3-1.3,0.8-1.7c0.5-0.4,1.2-0.6,2-0.6
		c0.7,0,1.4,0.2,1.9,0.5v0.9c-0.6-0.4-1.3-0.6-2-0.6c-0.6,0-1,0.1-1.4,0.4c-0.3,0.3-0.5,0.7-0.5,1.2c0,0.4,0.1,0.7,0.3,1
		c0.2,0.3,0.7,0.5,1.5,0.9c0.9,0.4,1.5,0.8,1.9,1.1s0.5,0.8,0.5,1.4c0,0.7-0.3,1.2-0.8,1.7c-0.5,0.4-1.2,0.7-2.1,0.7
		C19.9,347,19.2,346.8,18.7,346.4z"/>
	<path d="M26,342.5c0,1.2,0.3,2.1,0.8,2.8c0.5,0.7,1.3,1,2.3,1c1,0,1.9-0.4,2.8-1.1v0.8c-0.9,0.6-1.9,1-3,1c-1.1,0-2-0.4-2.7-1.2
		c-0.7-0.8-1-1.9-1-3.4c0-1.3,0.4-2.3,1.1-3.2c0.7-0.9,1.7-1.3,2.8-1.3c1.1,0,1.9,0.4,2.5,1.1c0.6,0.8,0.9,1.8,0.9,3.1v0.3H26z
		 M31.6,341.8c0-1-0.3-1.8-0.7-2.3c-0.4-0.5-1.1-0.8-1.8-0.8c-0.8,0-1.5,0.3-2,0.8c-0.5,0.5-0.9,1.3-1,2.3H31.6z"/>
	<path d="M38,346.6c-0.4,0.2-0.8,0.3-1.1,0.3c-1.3,0-1.9-0.8-1.9-2.3v-5.8h-1.6v-0.7h1.6v-2.2c0.1,0,0.2-0.1,0.4-0.1
		c0.1,0,0.3-0.1,0.4-0.1v2.5H38v0.7h-2.3v5.7c0,0.6,0.1,1,0.3,1.3c0.2,0.3,0.5,0.4,1,0.4c0.3,0,0.7-0.1,1-0.3V346.6z"/>
	<path d="M55.2,346.8v-5.2c0-1.1-0.2-1.9-0.5-2.3c-0.3-0.4-0.9-0.7-1.6-0.7c-0.7,0-1.3,0.3-1.8,0.9c-0.5,0.6-0.7,1.3-0.7,2.2v5.1
		h-0.8v-5.3c0-1.9-0.7-2.9-2.2-2.9c-0.7,0-1.3,0.3-1.8,0.9c-0.5,0.6-0.7,1.3-0.7,2.3v5h-0.8v-8.6h0.8v1.4h0c0.6-1.1,1.5-1.6,2.6-1.6
		c0.6,0,1.2,0.2,1.6,0.5c0.4,0.4,0.8,0.8,0.9,1.4c0.3-0.6,0.7-1.1,1.2-1.5c0.5-0.3,1-0.5,1.6-0.5c1.9,0,2.8,1.2,2.8,3.5v5.3H55.2z"
		/>
	<path d="M63.8,346.8V345h0c-0.3,0.6-0.7,1.1-1.2,1.4c-0.5,0.4-1.1,0.5-1.8,0.5c-0.8,0-1.5-0.2-2-0.7c-0.5-0.5-0.7-1-0.7-1.7
		c0-1.5,1-2.4,3-2.7l2.7-0.4c0-1.9-0.7-2.8-2.1-2.8c-0.9,0-1.9,0.4-2.8,1.1v-0.9c0.3-0.3,0.8-0.5,1.3-0.7c0.5-0.2,1.1-0.3,1.6-0.3
		c0.9,0,1.6,0.3,2.1,0.8c0.5,0.6,0.7,1.4,0.7,2.4v5.6H63.8z M61.4,342.5c-0.9,0.1-1.5,0.3-1.9,0.6s-0.6,0.8-0.6,1.4
		c0,0.5,0.2,0.9,0.5,1.3c0.3,0.3,0.8,0.5,1.4,0.5c0.8,0,1.5-0.3,2.1-0.9c0.6-0.6,0.8-1.4,0.8-2.4v-0.8L61.4,342.5z"/>
	<path d="M73,346.8v-5c0-2.1-0.7-3.1-2.2-3.1c-0.8,0-1.5,0.3-2.1,0.9c-0.5,0.6-0.8,1.4-0.8,2.3v5h-0.8v-8.6h0.8v1.6h0
		c0.6-1.2,1.6-1.8,3-1.8c0.9,0,1.6,0.3,2.1,0.9c0.5,0.6,0.7,1.5,0.7,2.7v5.3H73z"/>
	<path d="M81.6,346.8V345h0c-0.3,0.6-0.7,1.1-1.2,1.4c-0.5,0.4-1.1,0.5-1.8,0.5c-0.8,0-1.5-0.2-2-0.7c-0.5-0.5-0.7-1-0.7-1.7
		c0-1.5,1-2.4,3-2.7l2.7-0.4c0-1.9-0.7-2.8-2.1-2.8c-0.9,0-1.9,0.4-2.8,1.1v-0.9c0.3-0.3,0.8-0.5,1.3-0.7c0.5-0.2,1.1-0.3,1.6-0.3
		c0.9,0,1.6,0.3,2.1,0.8c0.5,0.6,0.7,1.4,0.7,2.4v5.6H81.6z M79.2,342.5c-0.9,0.1-1.5,0.3-1.9,0.6s-0.6,0.8-0.6,1.4
		c0,0.5,0.2,0.9,0.5,1.3c0.3,0.3,0.8,0.5,1.4,0.5c0.8,0,1.5-0.3,2.1-0.9c0.6-0.6,0.8-1.4,0.8-2.4v-0.8L79.2,342.5z"/>
	<path d="M91.9,346.1c0,1.6-0.4,2.8-1.1,3.6c-0.7,0.8-1.8,1.1-3.3,1.1c-0.8,0-1.7-0.2-2.6-0.7v-0.8c0.9,0.5,1.8,0.8,2.6,0.8
		c2.4,0,3.6-1.3,3.6-3.8v-1.1h0c-0.7,1.2-1.7,1.8-3.1,1.8c-1.1,0-1.9-0.4-2.6-1.2c-0.7-0.8-1-1.8-1-3.2c0-1.4,0.4-2.5,1.1-3.4
		c0.7-0.9,1.7-1.3,2.9-1.3c1.3,0,2.2,0.5,2.8,1.6h0v-1.4h0.8V346.1z M91.1,341.4c0-0.8-0.3-1.4-0.8-2c-0.5-0.6-1.2-0.8-2-0.8
		c-1,0-1.7,0.4-2.3,1.1c-0.6,0.7-0.9,1.7-0.9,2.8c0,1.2,0.3,2.1,0.8,2.8c0.5,0.7,1.2,1,2.1,1c0.9,0,1.7-0.3,2.2-0.9
		c0.5-0.6,0.8-1.3,0.8-2.2V341.4z"/>
	<path d="M94.8,342.5c0,1.2,0.3,2.1,0.8,2.8c0.5,0.7,1.3,1,2.3,1c1,0,1.9-0.4,2.8-1.1v0.8c-0.9,0.6-1.9,1-3,1c-1.1,0-2-0.4-2.7-1.2
		c-0.7-0.8-1-1.9-1-3.4c0-1.3,0.4-2.3,1.1-3.2c0.7-0.9,1.7-1.3,2.8-1.3c1.1,0,1.9,0.4,2.5,1.1c0.6,0.8,0.9,1.8,0.9,3.1v0.3H94.8z
		 M100.4,341.8c0-1-0.3-1.8-0.7-2.3c-0.4-0.5-1.1-0.8-1.8-0.8c-0.8,0-1.5,0.3-2,0.8c-0.5,0.5-0.9,1.3-1,2.3H100.4z"/>
	<path d="M114.2,346.8v-5.2c0-1.1-0.2-1.9-0.5-2.3c-0.3-0.4-0.9-0.7-1.6-0.7c-0.7,0-1.3,0.3-1.8,0.9c-0.5,0.6-0.7,1.3-0.7,2.2v5.1
		h-0.8v-5.3c0-1.9-0.7-2.9-2.2-2.9c-0.7,0-1.3,0.3-1.8,0.9c-0.5,0.6-0.7,1.3-0.7,2.3v5h-0.8v-8.6h0.8v1.4h0c0.6-1.1,1.5-1.6,2.6-1.6
		c0.6,0,1.2,0.2,1.6,0.5c0.4,0.4,0.8,0.8,0.9,1.4c0.3-0.6,0.7-1.1,1.2-1.5c0.5-0.3,1-0.5,1.6-0.5c1.9,0,2.8,1.2,2.8,3.5v5.3H114.2z"
		/>
	<path d="M117.7,342.5c0,1.2,0.3,2.1,0.8,2.8c0.5,0.7,1.3,1,2.3,1c1,0,1.9-0.4,2.8-1.1v0.8c-0.9,0.6-1.9,1-3,1c-1.1,0-2-0.4-2.7-1.2
		c-0.7-0.8-1-1.9-1-3.4c0-1.3,0.4-2.3,1.1-3.2c0.7-0.9,1.7-1.3,2.8-1.3c1.1,0,1.9,0.4,2.5,1.1c0.6,0.8,0.9,1.8,0.9,3.1v0.3H117.7z
		 M123.3,341.8c0-1-0.3-1.8-0.7-2.3c-0.4-0.5-1.1-0.8-1.8-0.8c-0.8,0-1.5,0.3-2,0.8c-0.5,0.5-0.9,1.3-1,2.3H123.3z"/>
	<path d="M132.2,346.8v-5c0-2.1-0.7-3.1-2.2-3.1c-0.8,0-1.5,0.3-2.1,0.9c-0.5,0.6-0.8,1.4-0.8,2.3v5h-0.8v-8.6h0.8v1.6h0
		c0.6-1.2,1.6-1.8,3-1.8c0.9,0,1.6,0.3,2.1,0.9c0.5,0.6,0.7,1.5,0.7,2.7v5.3H132.2z"/>
	<path d="M139,346.6c-0.4,0.2-0.8,0.3-1.1,0.3c-1.3,0-1.9-0.8-1.9-2.3v-5.8h-1.6v-0.7h1.6v-2.2c0.1,0,0.2-0.1,0.4-0.1
		c0.1,0,0.3-0.1,0.4-0.1v2.5h2.3v0.7h-2.3v5.7c0,0.6,0.1,1,0.3,1.3c0.2,0.3,0.5,0.4,1,0.4c0.3,0,0.7-0.1,1-0.3V346.6z"/>
	<path d="M43.7,364.4L43.7,364.4l0,5.5h-0.8v-12.6h0.8v1.8h0c0.3-0.6,0.8-1.1,1.3-1.5c0.6-0.3,1.2-0.5,1.9-0.5c1.1,0,2,0.4,2.6,1.1
		s0.9,1.8,0.9,3.1c0,1.4-0.4,2.6-1.1,3.5c-0.7,0.9-1.6,1.3-2.8,1.3C45.2,366.2,44.3,365.6,43.7,364.4z M43.6,361.2v1.1
		c0,0.9,0.3,1.6,0.8,2.2s1.3,0.9,2.2,0.9c0.9,0,1.6-0.4,2.1-1.1c0.6-0.8,0.8-1.8,0.8-3c0-1.1-0.3-1.9-0.8-2.6c-0.5-0.6-1.2-1-2-1
		c-1,0-1.8,0.3-2.3,1C43.9,359.5,43.6,360.3,43.6,361.2z"/>
	<path d="M52.5,366v-12.8h0.8V366H52.5z"/>
	<path d="M61.2,366v-1.7h0c-0.3,0.6-0.7,1.1-1.2,1.4c-0.5,0.4-1.1,0.5-1.8,0.5c-0.8,0-1.5-0.2-2-0.7c-0.5-0.5-0.7-1-0.7-1.7
		c0-1.5,1-2.4,3-2.7l2.7-0.4c0-1.9-0.7-2.8-2.1-2.8c-0.9,0-1.9,0.4-2.8,1.1V358c0.3-0.3,0.8-0.5,1.3-0.7c0.5-0.2,1.1-0.3,1.6-0.3
		c0.9,0,1.6,0.3,2.1,0.8c0.5,0.6,0.7,1.4,0.7,2.4v5.6H61.2z M58.9,361.7c-0.9,0.1-1.5,0.3-1.9,0.6s-0.6,0.8-0.6,1.4
		c0,0.5,0.2,0.9,0.5,1.3c0.3,0.3,0.8,0.5,1.4,0.5c0.8,0,1.5-0.3,2.1-0.9c0.6-0.6,0.8-1.4,0.8-2.4v-0.8L58.9,361.7z"/>
	<path d="M68,365.8c-0.4,0.2-0.8,0.3-1.1,0.3c-1.3,0-1.9-0.8-1.9-2.3V358h-1.6v-0.7H65v-2.2c0.1,0,0.2-0.1,0.4-0.1
		c0.1,0,0.3-0.1,0.4-0.1v2.5H68v0.7h-2.3v5.7c0,0.6,0.1,1,0.3,1.3s0.5,0.4,1,0.4c0.3,0,0.7-0.1,1-0.3V365.8z"/>
	<path d="M73.5,354c-0.2-0.2-0.5-0.2-0.9-0.2c-1.1,0-1.6,0.7-1.6,2.1v1.4h2.3v0.7H71v7.9h-0.8V358h-1.6v-0.7h1.6v-1.5
		c0-0.9,0.2-1.6,0.7-2.1c0.5-0.5,1-0.7,1.7-0.7c0.4,0,0.7,0.1,0.9,0.2V354z"/>
	<path d="M78,366.2c-1.3,0-2.3-0.4-3-1.2s-1.1-1.9-1.1-3.2c0-1.4,0.4-2.6,1.2-3.4c0.8-0.8,1.8-1.2,3-1.2c1.2,0,2.2,0.4,2.9,1.2
		c0.7,0.8,1.1,1.9,1.1,3.3c0,1.3-0.4,2.4-1.1,3.3C80.3,365.8,79.3,366.2,78,366.2z M78.1,357.8c-1,0-1.8,0.3-2.4,1
		c-0.6,0.7-0.9,1.6-0.9,2.9c0,1.1,0.3,2,0.9,2.7c0.6,0.7,1.4,1,2.4,1c1,0,1.8-0.3,2.4-1s0.8-1.6,0.8-2.8c0-1.2-0.3-2.2-0.8-2.8
		C79.9,358.2,79.1,357.8,78.1,357.8z"/>
	<path d="M88.3,358.1c-0.3-0.2-0.6-0.3-0.9-0.3c-0.7,0-1.3,0.4-1.7,1.1s-0.7,1.7-0.7,3v4.1h-0.8v-8.6H85v1.9h0
		c0.2-0.7,0.5-1.2,0.9-1.5s0.9-0.6,1.5-0.6c0.3,0,0.6,0.1,0.9,0.2V358.1z"/>
	<path d="M100.7,366v-5.2c0-1.1-0.2-1.9-0.5-2.3c-0.3-0.4-0.9-0.7-1.6-0.7c-0.7,0-1.3,0.3-1.8,0.9c-0.5,0.6-0.7,1.3-0.7,2.2v5.1
		h-0.8v-5.3c0-1.9-0.7-2.9-2.2-2.9c-0.7,0-1.3,0.3-1.8,0.9c-0.5,0.6-0.7,1.3-0.7,2.3v5h-0.8v-8.6h0.8v1.4h0c0.6-1.1,1.5-1.6,2.6-1.6
		c0.6,0,1.2,0.2,1.6,0.5c0.4,0.4,0.8,0.8,0.9,1.4c0.3-0.6,0.7-1.1,1.2-1.5c0.5-0.3,1-0.5,1.6-0.5c1.9,0,2.8,1.2,2.8,3.5v5.3H100.7z"
		/>
</g>
<g>
	<path d="M291.3,345.3l-1.4-3.8h-5.2l-1.4,3.8h-0.9l4.6-12.1h0.8l4.5,12.1H291.3z M287.6,335.2c-0.1-0.2-0.1-0.3-0.1-0.5
		c0-0.1-0.1-0.3-0.1-0.4h0c-0.1,0.4-0.2,0.7-0.3,0.9l-2,5.6h4.7L287.6,335.2z"/>
	<path d="M293.7,344.9V344c0.3,0.3,0.6,0.4,1.1,0.6c0.4,0.1,0.8,0.2,1.1,0.2c1.4,0,2-0.6,2-1.7c0-0.4-0.1-0.7-0.4-1
		c-0.3-0.3-0.8-0.5-1.5-0.8c-0.8-0.4-1.4-0.7-1.7-1.1c-0.3-0.4-0.5-0.9-0.5-1.4c0-0.7,0.3-1.3,0.8-1.7c0.5-0.4,1.2-0.6,2-0.6
		c0.7,0,1.4,0.2,1.9,0.5v0.9c-0.6-0.4-1.3-0.6-2-0.6c-0.6,0-1,0.1-1.4,0.4c-0.3,0.3-0.5,0.7-0.5,1.2c0,0.4,0.1,0.7,0.3,1
		c0.2,0.3,0.7,0.5,1.5,0.9c0.9,0.4,1.5,0.8,1.9,1.1s0.5,0.8,0.5,1.4c0,0.7-0.3,1.2-0.8,1.7c-0.5,0.4-1.2,0.7-2.1,0.7
		C295,345.5,294.3,345.3,293.7,344.9z"/>
	<path d="M300.4,344.9V344c0.3,0.3,0.6,0.4,1.1,0.6c0.4,0.1,0.8,0.2,1.1,0.2c1.4,0,2-0.6,2-1.7c0-0.4-0.1-0.7-0.4-1
		c-0.3-0.3-0.8-0.5-1.5-0.8c-0.8-0.4-1.4-0.7-1.7-1.1c-0.3-0.4-0.5-0.9-0.5-1.4c0-0.7,0.3-1.3,0.8-1.7c0.5-0.4,1.2-0.6,2-0.6
		c0.7,0,1.4,0.2,1.9,0.5v0.9c-0.6-0.4-1.3-0.6-2-0.6c-0.6,0-1,0.1-1.4,0.4c-0.3,0.3-0.5,0.7-0.5,1.2c0,0.4,0.1,0.7,0.3,1
		c0.2,0.3,0.7,0.5,1.5,0.9c0.9,0.4,1.5,0.8,1.9,1.1s0.5,0.8,0.5,1.4c0,0.7-0.3,1.2-0.8,1.7c-0.5,0.4-1.2,0.7-2.1,0.7
		C301.7,345.5,301,345.3,300.4,344.9z"/>
	<path d="M307.8,341c0,1.2,0.3,2.1,0.8,2.8c0.5,0.7,1.3,1,2.3,1c1,0,1.9-0.4,2.8-1.1v0.8c-0.9,0.6-1.9,1-3,1c-1.1,0-2-0.4-2.7-1.2
		c-0.7-0.8-1-1.9-1-3.4c0-1.3,0.4-2.3,1.1-3.2c0.7-0.9,1.7-1.3,2.8-1.3c1.1,0,1.9,0.4,2.5,1.1c0.6,0.8,0.9,1.8,0.9,3.1v0.3H307.8z
		 M313.3,340.3c0-1-0.3-1.8-0.7-2.3c-0.4-0.5-1.1-0.8-1.8-0.8c-0.8,0-1.5,0.3-2,0.8c-0.5,0.5-0.9,1.3-1,2.3H313.3z"/>
	<path d="M319.7,345.2c-0.4,0.2-0.8,0.3-1.1,0.3c-1.3,0-1.9-0.8-1.9-2.3v-5.8h-1.6v-0.7h1.6v-2.2c0.1,0,0.2-0.1,0.4-0.1
		c0.1,0,0.3-0.1,0.4-0.1v2.5h2.3v0.7h-2.3v5.7c0,0.6,0.1,1,0.3,1.3c0.2,0.3,0.5,0.4,1,0.4c0.3,0,0.7-0.1,1-0.3V345.2z"/>
	<path d="M337,345.3v-5.2c0-1.1-0.2-1.9-0.5-2.3c-0.3-0.4-0.9-0.7-1.6-0.7c-0.7,0-1.3,0.3-1.8,0.9c-0.5,0.6-0.7,1.3-0.7,2.2v5.1
		h-0.8V340c0-1.9-0.7-2.9-2.2-2.9c-0.7,0-1.3,0.3-1.8,0.9c-0.5,0.6-0.7,1.3-0.7,2.3v5h-0.8v-8.6h0.8v1.4h0c0.6-1.1,1.5-1.6,2.6-1.6
		c0.6,0,1.2,0.2,1.6,0.5c0.4,0.4,0.8,0.8,0.9,1.4c0.3-0.6,0.7-1.1,1.2-1.5c0.5-0.3,1-0.5,1.6-0.5c1.9,0,2.8,1.2,2.8,3.5v5.3H337z"/>
	<path d="M345.5,345.3v-1.7h0c-0.3,0.6-0.7,1.1-1.2,1.4c-0.5,0.4-1.1,0.5-1.8,0.5c-0.8,0-1.5-0.2-2-0.7c-0.5-0.5-0.7-1-0.7-1.7
		c0-1.5,1-2.4,3-2.7l2.7-0.4c0-1.9-0.7-2.8-2.1-2.8c-0.9,0-1.9,0.4-2.8,1.1v-0.9c0.3-0.3,0.8-0.5,1.3-0.7c0.5-0.2,1.1-0.3,1.6-0.3
		c0.9,0,1.6,0.3,2.1,0.8c0.5,0.6,0.7,1.4,0.7,2.4v5.6H345.5z M343.2,341c-0.9,0.1-1.5,0.3-1.9,0.6s-0.6,0.8-0.6,1.4
		c0,0.5,0.2,0.9,0.5,1.3c0.3,0.3,0.8,0.5,1.4,0.5c0.8,0,1.5-0.3,2.1-0.9c0.6-0.6,0.8-1.4,0.8-2.4v-0.8L343.2,341z"/>
	<path d="M354.8,345.3v-5c0-2.1-0.7-3.1-2.2-3.1c-0.8,0-1.5,0.3-2.1,0.9c-0.5,0.6-0.8,1.4-0.8,2.3v5h-0.8v-8.6h0.8v1.6h0
		c0.6-1.2,1.6-1.8,3-1.8c0.9,0,1.6,0.3,2.1,0.9c0.5,0.6,0.7,1.5,0.7,2.7v5.3H354.8z"/>
	<path d="M363.3,345.3v-1.7h0c-0.3,0.6-0.7,1.1-1.2,1.4c-0.5,0.4-1.1,0.5-1.8,0.5c-0.8,0-1.5-0.2-2-0.7c-0.5-0.5-0.7-1-0.7-1.7
		c0-1.5,1-2.4,3-2.7l2.7-0.4c0-1.9-0.7-2.8-2.1-2.8c-0.9,0-1.9,0.4-2.8,1.1v-0.9c0.3-0.3,0.8-0.5,1.3-0.7c0.5-0.2,1.1-0.3,1.6-0.3
		c0.9,0,1.6,0.3,2.1,0.8c0.5,0.6,0.7,1.4,0.7,2.4v5.6H363.3z M360.9,341c-0.9,0.1-1.5,0.3-1.9,0.6s-0.6,0.8-0.6,1.4
		c0,0.5,0.2,0.9,0.5,1.3c0.3,0.3,0.8,0.5,1.4,0.5c0.8,0,1.5-0.3,2.1-0.9c0.6-0.6,0.8-1.4,0.8-2.4v-0.8L360.9,341z"/>
	<path d="M373.6,344.6c0,1.6-0.4,2.8-1.1,3.6c-0.7,0.8-1.8,1.1-3.3,1.1c-0.8,0-1.7-0.2-2.6-0.7v-0.8c0.9,0.5,1.8,0.8,2.6,0.8
		c2.4,0,3.6-1.3,3.6-3.8v-1.1h0c-0.7,1.2-1.7,1.8-3.1,1.8c-1.1,0-1.9-0.4-2.6-1.2c-0.7-0.8-1-1.8-1-3.2c0-1.4,0.4-2.5,1.1-3.4
		c0.7-0.9,1.7-1.3,2.9-1.3c1.3,0,2.2,0.5,2.8,1.6h0v-1.4h0.8V344.6z M372.8,340c0-0.8-0.3-1.4-0.8-2c-0.5-0.6-1.2-0.8-2-0.8
		c-1,0-1.7,0.4-2.3,1.1c-0.6,0.7-0.9,1.7-0.9,2.8c0,1.2,0.3,2.1,0.8,2.8c0.5,0.7,1.2,1,2.1,1c0.9,0,1.7-0.3,2.2-0.9
		c0.5-0.6,0.8-1.3,0.8-2.2V340z"/>
	<path d="M376.6,341c0,1.2,0.3,2.1,0.8,2.8c0.5,0.7,1.3,1,2.3,1c1,0,1.9-0.4,2.8-1.1v0.8c-0.9,0.6-1.9,1-3,1c-1.1,0-2-0.4-2.7-1.2
		c-0.7-0.8-1-1.9-1-3.4c0-1.3,0.4-2.3,1.1-3.2c0.7-0.9,1.7-1.3,2.8-1.3c1.1,0,1.9,0.4,2.5,1.1c0.6,0.8,0.9,1.8,0.9,3.1v0.3H376.6z
		 M382.1,340.3c0-1-0.3-1.8-0.7-2.3c-0.4-0.5-1.1-0.8-1.8-0.8c-0.8,0-1.5,0.3-2,0.8c-0.5,0.5-0.9,1.3-1,2.3H382.1z"/>
	<path d="M395.9,345.3v-5.2c0-1.1-0.2-1.9-0.5-2.3c-0.3-0.4-0.9-0.7-1.6-0.7c-0.7,0-1.3,0.3-1.8,0.9c-0.5,0.6-0.7,1.3-0.7,2.2v5.1
		h-0.8V340c0-1.9-0.7-2.9-2.2-2.9c-0.7,0-1.3,0.3-1.8,0.9c-0.5,0.6-0.7,1.3-0.7,2.3v5h-0.8v-8.6h0.8v1.4h0c0.6-1.1,1.5-1.6,2.6-1.6
		c0.6,0,1.2,0.2,1.6,0.5c0.4,0.4,0.8,0.8,0.9,1.4c0.3-0.6,0.7-1.1,1.2-1.5c0.5-0.3,1-0.5,1.6-0.5c1.9,0,2.8,1.2,2.8,3.5v5.3H395.9z"
		/>
	<path d="M399.5,341c0,1.2,0.3,2.1,0.8,2.8c0.5,0.7,1.3,1,2.3,1c1,0,1.9-0.4,2.8-1.1v0.8c-0.9,0.6-1.9,1-3,1c-1.1,0-2-0.4-2.7-1.2
		c-0.7-0.8-1-1.9-1-3.4c0-1.3,0.4-2.3,1.1-3.2c0.7-0.9,1.7-1.3,2.8-1.3c1.1,0,1.9,0.4,2.5,1.1c0.6,0.8,0.9,1.8,0.9,3.1v0.3H399.5z
		 M405.1,340.3c0-1-0.3-1.8-0.7-2.3c-0.4-0.5-1.1-0.8-1.8-0.8c-0.8,0-1.5,0.3-2,0.8c-0.5,0.5-0.9,1.3-1,2.3H405.1z"/>
	<path d="M413.9,345.3v-5c0-2.1-0.7-3.1-2.2-3.1c-0.8,0-1.5,0.3-2.1,0.9c-0.5,0.6-0.8,1.4-0.8,2.3v5H408v-8.6h0.8v1.6h0
		c0.6-1.2,1.6-1.8,3-1.8c0.9,0,1.6,0.3,2.1,0.9c0.5,0.6,0.7,1.5,0.7,2.7v5.3H413.9z"/>
	<path d="M420.7,345.2c-0.4,0.2-0.8,0.3-1.1,0.3c-1.3,0-1.9-0.8-1.9-2.3v-5.8h-1.6v-0.7h1.6v-2.2c0.1,0,0.2-0.1,0.4-0.1
		c0.1,0,0.3-0.1,0.4-0.1v2.5h2.3v0.7h-2.3v5.7c0,0.6,0.1,1,0.3,1.3c0.2,0.3,0.5,0.4,1,0.4c0.3,0,0.7-0.1,1-0.3V345.2z"/>
	<path d="M325.4,362.9L325.4,362.9l0,5.5h-0.8v-12.6h0.8v1.8h0c0.3-0.6,0.8-1.1,1.3-1.5c0.6-0.3,1.2-0.5,1.9-0.5
		c1.1,0,2,0.4,2.6,1.1s0.9,1.8,0.9,3.1c0,1.4-0.4,2.6-1.1,3.5c-0.7,0.9-1.6,1.3-2.8,1.3C327,364.7,326,364.1,325.4,362.9z
		 M325.4,359.7v1.1c0,0.9,0.3,1.6,0.8,2.2s1.3,0.9,2.2,0.9c0.9,0,1.6-0.4,2.1-1.1c0.6-0.8,0.8-1.8,0.8-3c0-1.1-0.3-1.9-0.8-2.6
		c-0.5-0.6-1.2-1-2-1c-1,0-1.8,0.3-2.3,1C325.7,358,325.4,358.8,325.4,359.7z"/>
	<path d="M334.3,364.5v-12.8h0.8v12.8H334.3z"/>
	<path d="M343,364.5v-1.7h0c-0.3,0.6-0.7,1.1-1.2,1.4c-0.5,0.4-1.1,0.5-1.8,0.5c-0.8,0-1.5-0.2-2-0.7c-0.5-0.5-0.7-1-0.7-1.7
		c0-1.5,1-2.4,3-2.7l2.7-0.4c0-1.9-0.7-2.8-2.1-2.8c-0.9,0-1.9,0.4-2.8,1.1v-0.9c0.3-0.3,0.8-0.5,1.3-0.7c0.5-0.2,1.1-0.3,1.6-0.3
		c0.9,0,1.6,0.3,2.1,0.8c0.5,0.6,0.7,1.4,0.7,2.4v5.6H343z M340.6,360.2c-0.9,0.1-1.5,0.3-1.9,0.6s-0.6,0.8-0.6,1.4
		c0,0.5,0.2,0.9,0.5,1.3c0.3,0.3,0.8,0.5,1.4,0.5c0.8,0,1.5-0.3,2.1-0.9c0.6-0.6,0.8-1.4,0.8-2.4v-0.8L340.6,360.2z"/>
	<path d="M349.8,364.4c-0.4,0.2-0.8,0.3-1.1,0.3c-1.3,0-1.9-0.8-1.9-2.3v-5.8h-1.6v-0.7h1.6v-2.2c0.1,0,0.2-0.1,0.4-0.1
		c0.1,0,0.3-0.1,0.4-0.1v2.5h2.3v0.7h-2.3v5.7c0,0.6,0.1,1,0.3,1.3s0.5,0.4,1,0.4c0.3,0,0.7-0.1,1-0.3V364.4z"/>
	<path d="M355.3,352.5c-0.2-0.2-0.5-0.2-0.9-0.2c-1.1,0-1.6,0.7-1.6,2.1v1.4h2.3v0.7h-2.3v7.9H352v-7.9h-1.6v-0.7h1.6v-1.5
		c0-0.9,0.2-1.6,0.7-2.1c0.5-0.5,1-0.7,1.7-0.7c0.4,0,0.7,0.1,0.9,0.2V352.5z"/>
	<path d="M359.7,364.7c-1.3,0-2.3-0.4-3-1.2s-1.1-1.9-1.1-3.2c0-1.4,0.4-2.6,1.2-3.4c0.8-0.8,1.8-1.2,3-1.2c1.2,0,2.2,0.4,2.9,1.2
		c0.7,0.8,1.1,1.9,1.1,3.3c0,1.3-0.4,2.4-1.1,3.3C362,364.3,361,364.7,359.7,364.7z M359.8,356.3c-1,0-1.8,0.3-2.4,1
		c-0.6,0.7-0.9,1.6-0.9,2.9c0,1.1,0.3,2,0.9,2.7c0.6,0.7,1.4,1,2.4,1c1,0,1.8-0.3,2.4-1s0.8-1.6,0.8-2.8c0-1.2-0.3-2.2-0.8-2.8
		C361.6,356.7,360.8,356.3,359.8,356.3z"/>
	<path d="M370,356.7c-0.3-0.2-0.6-0.3-0.9-0.3c-0.7,0-1.3,0.4-1.7,1.1s-0.7,1.7-0.7,3v4.1H366v-8.6h0.8v1.9h0
		c0.2-0.7,0.5-1.2,0.9-1.5s0.9-0.6,1.5-0.6c0.3,0,0.6,0.1,0.9,0.2V356.7z"/>
	<path d="M382.5,364.5v-5.2c0-1.1-0.2-1.9-0.5-2.3c-0.3-0.4-0.9-0.7-1.6-0.7c-0.7,0-1.3,0.3-1.8,0.9c-0.5,0.6-0.7,1.3-0.7,2.2v5.1
		H377v-5.3c0-1.9-0.7-2.9-2.2-2.9c-0.7,0-1.3,0.3-1.8,0.9c-0.5,0.6-0.7,1.3-0.7,2.3v5h-0.8v-8.6h0.8v1.4h0c0.6-1.1,1.5-1.6,2.6-1.6
		c0.6,0,1.2,0.2,1.6,0.5c0.4,0.4,0.8,0.8,0.9,1.4c0.3-0.6,0.7-1.1,1.2-1.5c0.5-0.3,1-0.5,1.6-0.5c1.9,0,2.8,1.2,2.8,3.5v5.3H382.5z"
		/>
</g>
</svg>
