<?xml version="1.0" encoding="utf-8"?>
<!-- Generator: Adobe Illustrator 22.1.0, SVG Export Plug-In . SVG Version: 6.00 Build 0)  -->
<svg version="1.1" id="租金分红" xmlns="http://www.w3.org/2000/svg" xmlns:xlink="http://www.w3.org/1999/xlink" x="0px"
	 y="0px" viewBox="0 0 608 523" style="enable-background:new 0 0 608 523;" xml:space="preserve">
<style type="text/css">
	.st0{fill:none;stroke:#90A7AB;}
	.st1{fill:#9FE7DD;stroke:#34B9A1;stroke-width:2;}
	.st2{enable-background:new    ;}
	.st3{fill:#456E68;}
	.st4{fill:none;stroke:#456E68;stroke-width:1.5;stroke-miterlimit:10;}
	.st5{fill:#456E68;stroke:#456E68;stroke-width:0.25;stroke-miterlimit:10;}
	.st6{fill:#17161F;}
	.st7{stroke:#000000;stroke-width:0.25;stroke-miterlimit:10;}
</style>
<g id="组_29">
	<path id="形状_1" class="st0" d="M127.8,82.9h212.5l-4.8-5.5"/>
	<path id="形状_1_拷贝_6" class="st0" d="M342.1,103.1H129.8l4.8,5.5"/>
</g>
<g id="组_29_拷贝">
	<path id="形状_1-2" class="st0" d="M497.4,213v116l5.6-4.9"/>
	<path id="形状_1_拷贝_6-2" class="st0" d="M476.6,328.7V213l-5.6,4.9"/>
</g>
<path id="形状_1_拷贝_7" class="st0" d="M381,411H168.2l4.9-5.4"/>
<circle id="椭圆_6" class="st1" cx="482" cy="97" r="96"/>
<g class="st2">
	<path class="st3" d="M510.7,379h-10v10h10V379z M507.4,385.6h-3.3v-3.3h3.3V385.6z"/>
	<path class="st3" d="M524,379h-10v10h10V379z M520.7,385.6h-3.3v-3.3h3.3V385.6z"/>
	<path class="st3" d="M510.7,392.2h-10v10h10V392.2z M507.4,398.9h-3.3v-3.3h3.3V398.9z"/>
	<path class="st3" d="M524,392.2h-10v10h10V392.2z M520.7,398.9h-3.3v-3.3h3.3V398.9z"/>
	<path class="st3" d="M510.7,415.5v-10h-10v10H510.7z M504.1,408.8h3.3v3.3h-3.3V408.8z"/>
	<path class="st3" d="M524,405.5h-10v10h10V405.5z M520.7,412.2h-3.3v-3.3h3.3V412.2z"/>
	<path class="st3" d="M534,375.6v-3.3h-3.3v-6.6h-3.3V359h-29.9v6.6h-3.3v6.6h-3.3v3.3h3.3v43.2h-13.3v-19.9h3.3v-10h-3.3v-2.5
		l-23.3-16.1l-10,6.9V372h-10v12l-3.3,2.3v2.5H431v10h3.3V419c-1.9,0.7-3.3,2.5-3.3,4.7v3.3c0,2.7,2.2,5,5,5h32.4
		c-2.6,3.2-4.2,7.2-4.2,11.6c0,10.1,8.2,18.3,18.3,18.3s18.3-8.2,18.3-18.3c0-4.4-1.6-8.5-4.2-11.6H529c2.7,0,5-2.2,5-5v-3.3
		c0-2.2-1.4-4-3.3-4.7v-43.5h3.3V375.6z M500.8,362.3H524v3.3h-23.3L500.8,362.3L500.8,362.3z M497.5,369h29.9v3.3h-29.9L497.5,369
		L497.5,369z M441,375.4h3.3v4.1l-3.3,2.3V375.4z M437.7,388.1l19.9-13.8l19.9,13.8v0.8h-39.9v-0.8H437.7z M434.3,392.2h46.5v3.3
		h-46.5V392.2z M477.5,398.9v19.9h-13.3v-16.6H451v16.6h-13.3v-19.9H477.5z M460.9,418.8h-6.6v-13.3h6.6V418.8z M482.5,458.7
		c-8.2,0-14.9-6.7-14.9-14.9s6.7-14.9,14.9-14.9s14.9,6.7,14.9,14.9S490.8,458.7,482.5,458.7z M530.7,427.1c0,0.9-0.7,1.7-1.7,1.7
		h-36c-3-2.1-6.6-3.3-10.5-3.3s-7.5,1.2-10.5,3.3h-36c-0.9,0-1.7-0.7-1.7-1.7v-3.3c0-0.9,0.7-1.7,1.7-1.7h93c0.9,0,1.7,0.7,1.7,1.7
		V427.1z M527.4,418.8h-29.9v-43.2h29.9V418.8z"/>
</g>
<g>
	<path class="st3" d="M476.6,452.5v-1.8c1.9-0.6,2.9-1.8,2.9-3.7v-2.2H477V443h2.6v-3c0-1.5,0.4-2.8,1.4-3.7c1-1,2.2-1.5,3.6-1.5
		c1,0,1.9,0.1,2.8,0.6v2.1c-0.8-0.6-1.8-0.7-2.6-0.7c-1.9,0-2.9,1.2-2.9,3.6v2.8h3.9v1.8h-4v1.8c0,1.9-0.8,3.2-2.3,4.1h8.9v1.8
		h-11.7L476.6,452.5L476.6,452.5z"/>
</g>
<g class="st2">
	<g>
		<g>
			<path class="st3" d="M54.6,391H41.9c-0.9,0-1.6,0.7-1.6,1.6v6.3c0,0.9,0.7,1.6,1.6,1.6h12.7c0.9,0,1.6-0.7,1.6-1.6v-6.3
				C56.2,391.7,55.5,391,54.6,391z M46.7,397.3h-3.2v-3.2h3.2V397.3z M53,397.3h-3.2v-3.2H53V397.3z"/>
		</g>
	</g>
	<g>
		<g>
			<path class="st3" d="M54.6,403.7H41.9c-0.9,0-1.6,0.7-1.6,1.6v6.3c0,0.9,0.7,1.6,1.6,1.6h12.7c0.9,0,1.6-0.7,1.6-1.6v-6.3
				C56.2,404.4,55.5,403.7,54.6,403.7z M46.7,410h-3.2v-3.2h3.2V410z M53,410h-3.2v-3.2H53V410z"/>
		</g>
	</g>
	<g>
		<g>
			<path class="st3" d="M54.6,416.3H41.9c-0.9,0-1.6,0.7-1.6,1.6v6.3c0,0.9,0.7,1.6,1.6,1.6h12.7c0.9,0,1.6-0.7,1.6-1.6v-6.3
				C56.2,417,55.5,416.3,54.6,416.3z M46.7,422.7h-3.2v-3.2h3.2V422.7z M53,422.7h-3.2v-3.2H53V422.7z"/>
		</g>
	</g>
	<g>
		<g>
			<path class="st3" d="M111.6,391H98.9c-0.9,0-1.6,0.7-1.6,1.6v6.3c0,0.9,0.7,1.6,1.6,1.6h12.7c0.9,0,1.6-0.7,1.6-1.6v-6.3
				C113.2,391.7,112.5,391,111.6,391z M103.7,397.3h-3.2v-3.2h3.2V397.3z M110,397.3h-3.2v-3.2h3.2V397.3z"/>
		</g>
	</g>
	<g>
		<g>
			<path class="st3" d="M111.6,378.3H98.9c-0.9,0-1.6,0.7-1.6,1.6v6.3c0,0.9,0.7,1.6,1.6,1.6h12.7c0.9,0,1.6-0.7,1.6-1.6v-6.3
				C113.2,379,112.5,378.3,111.6,378.3z M103.7,384.7h-3.2v-3.2h3.2V384.7z M110,384.7h-3.2v-3.2h3.2V384.7z"/>
		</g>
	</g>
	<g>
		<g>
			<path class="st3" d="M73.6,397.3h-6.3c-0.9,0-1.6,0.7-1.6,1.6v6.3c0,0.9,0.7,1.6,1.6,1.6h6.3c0.9,0,1.6-0.7,1.6-1.6v-6.3
				C75.2,398,74.5,397.3,73.6,397.3z M72,403.7h-3.2v-3.2H72V403.7z"/>
		</g>
	</g>
	<g>
		<g>
			<path class="st3" d="M86.3,397.3H80c-0.9,0-1.6,0.7-1.6,1.6v6.3c0,0.9,0.7,1.6,1.6,1.6h6.3c0.9,0,1.6-0.7,1.6-1.6v-6.3
				C87.8,398,87.1,397.3,86.3,397.3z M84.7,403.7h-3.2v-3.2h3.2V403.7z"/>
		</g>
	</g>
	<g>
		<g>
			<path class="st3" d="M73.6,384.7h-6.3c-0.9,0-1.6,0.7-1.6,1.6v6.3c0,0.9,0.7,1.6,1.6,1.6h6.3c0.9,0,1.6-0.7,1.6-1.6v-6.3
				C75.2,385.4,74.5,384.7,73.6,384.7z M72,391h-3.2v-3.2H72V391z"/>
		</g>
	</g>
	<g>
		<g>
			<path class="st3" d="M86.3,384.7H80c-0.9,0-1.6,0.7-1.6,1.6v6.3c0,0.9,0.7,1.6,1.6,1.6h6.3c0.9,0,1.6-0.7,1.6-1.6v-6.3
				C87.8,385.4,87.1,384.7,86.3,384.7z M84.7,391h-3.2v-3.2h3.2V391z"/>
		</g>
	</g>
	<g>
		<g>
			<path class="st3" d="M73.6,372h-6.3c-0.9,0-1.6,0.7-1.6,1.6v6.3c0,0.9,0.7,1.6,1.6,1.6h6.3c0.9,0,1.6-0.7,1.6-1.6v-6.3
				C75.2,372.7,74.5,372,73.6,372z M72,378.3h-3.2v-3.2H72V378.3z"/>
		</g>
	</g>
	<g>
		<g>
			<path class="st3" d="M86.3,372H80c-0.9,0-1.6,0.7-1.6,1.6v6.3c0,0.9,0.7,1.6,1.6,1.6h6.3c0.9,0,1.6-0.7,1.6-1.6v-6.3
				C87.8,372.7,87.1,372,86.3,372z M84.7,378.3h-3.2v-3.2h3.2V378.3z"/>
		</g>
	</g>
	<g>
		<g>
			<path class="st3" d="M73.6,416.3h-6.3c-0.9,0-1.6,0.7-1.6,1.6v6.3c0,0.9,0.7,1.6,1.6,1.6h6.3c0.9,0,1.6-0.7,1.6-1.6v-6.3
				C75.2,417,74.5,416.3,73.6,416.3z M72,422.7h-3.2v-3.2H72V422.7z"/>
		</g>
	</g>
	<g>
		<g>
			<rect x="40.3" y="429" class="st3" width="3.2" height="3.2"/>
		</g>
	</g>
	<g>
		<g>
			<rect x="46.7" y="429" class="st3" width="3.2" height="3.2"/>
		</g>
	</g>
	<g>
		<g>
			<rect x="53" y="429" class="st3" width="3.2" height="3.2"/>
		</g>
	</g>
	<g>
		<g>
			<path class="st3" d="M127.4,410h-7.9v-36.4c0-0.9-0.7-1.6-1.6-1.6h-11.1v-2.5l1.7-1.7c1.4,1,3,1.6,4.7,1.6c2,0,4-0.8,5.6-2.3
				l0.3-0.3c0.6-0.6,0.6-1.6,0-2.2l-3.6-3.6l3.6-3.6l-2.2-2.2l-3.6,3.6l-5.2-5.2c-0.3-0.3-0.7-0.5-1.1-0.5c-0.6,0-1,0.3-1.3,0.6
				c-1.6,1.4-2.5,3.4-2.5,5.5s0.8,4.2,2.3,5.7l0.8,0.8l-2,2c-0.3,0.3-0.5,0.7-0.5,1.1v3.2h-9.5v-4.8c0-0.9-0.7-1.6-1.6-1.6H87l-9-12
				c-0.6-0.8-1.9-0.8-2.5,0l-9,12H61c-0.9,0-1.6,0.7-1.6,1.6v17.4h-9.5V372h-3.2v12.7H35.6c-0.9,0-1.6,0.7-1.6,1.6v60.2
				c0,0.9,0.7,1.6,1.6,1.6h25.3H72h12.7h1.6h9.5h25.3c4.4,0,7.9-3.6,7.9-7.9v-28.5C129,410.7,128.3,410,127.4,410z M59.3,444.8H37.2
				v-57h22.2v57H59.3z M106.9,356.9l8.7,8.7c-1.8,1.1-4.2,0.8-5.7-0.7l-2.2-2.2c-0.9-0.9-1.4-2.1-1.4-3.4
				C106.3,358.4,106.5,357.6,106.9,356.9z M76.8,357.2l6.3,8.4H70.4L76.8,357.2z M70.4,432.2v12.7h-7.9v-58.6v-17.4H91v4.8v28.5h3.2
				v-26.9h22.2V410h-3.2v-1.6c0-2.6-2.1-4.8-4.8-4.8h-9.5c-2.6,0-4.8,2.1-4.8,4.8v1.6H79.9c-0.9,0-1.6,0.7-1.6,1.6V429H65.7v3.2
				H70.4z M110,408.4v1.6H97.3v-1.6c0-0.9,0.7-1.6,1.6-1.6h9.5C109.3,406.8,110,407.5,110,408.4z M73.6,444.8v-12.7h4.8v7.9
				c0,1.8,0.6,3.4,1.6,4.8L73.6,444.8L73.6,444.8z M125.8,440.1c0,2.6-2.1,4.8-4.8,4.8H95.8h-9.5c-2.6,0-4.8-2.1-4.8-4.8v-15.9
				c1.3,1,3,1.6,4.8,1.6h1.6v4.8c0,0.9,0.7,1.6,1.6,1.6h6.3c0.9,0,1.6-0.7,1.6-1.6v-4.8H99h9.5h1.6v4.8c0,0.9,0.7,1.6,1.6,1.6h6.3
				c0.9,0,1.6-0.7,1.6-1.6v-4.8h1.6c1.8,0,3.4-0.6,4.8-1.6v15.9H125.8z M91,429v-3.2h3.2v3.2H91z M100.5,422.7v-3.2h6.3v3.2H100.5z
				 M113.2,429v-3.2h3.2v3.2H113.2z M125.8,417.9c0,2.6-2.1,4.8-4.8,4.8h-3.2h-6.3H110v-4.8c0-0.9-0.7-1.6-1.6-1.6h-9.5
				c-0.9,0-1.6,0.7-1.6,1.6v4.8h-1.6h-6.3h-3.2c-2.6,0-4.8-2.1-4.8-4.8v-4.8h44.3v4.8H125.8z"/>
		</g>
	</g>
	<g>
		<g>
			<rect x="119.5" y="438.5" class="st3" width="3.2" height="3.2"/>
		</g>
	</g>
	<g>
		<g>
			<rect x="113.2" y="438.5" class="st3" width="3.2" height="3.2"/>
		</g>
	</g>
	<g>
		<g>
			<rect x="106.8" y="438.5" class="st3" width="3.2" height="3.2"/>
		</g>
	</g>
</g>
<g>
	<circle class="st4" cx="63.1" cy="58.7" r="15.8"/>
	<line class="st4" x1="50.4" y1="83.4" x2="63.1" y2="97.9"/>
	<line class="st4" x1="75.4" y1="83.4" x2="63.1" y2="97.9"/>
	<line class="st4" x1="63.1" y1="112.3" x2="63.1" y2="97.9"/>
	<path class="st4" d="M96.9,104v3.4c0,3.1-2.5,5.6-5.6,5.6H34.7c-3.1,0-5.6-2.5-5.6-5.6V104"/>
	<path class="st4" d="M34.7,98.4"/>
	<path class="st4" d="M29.1,105.6C29.1,92.8,39.7,83,52.4,83h21.2c12.8,0,23.2,10.5,23.2,23.2l0,0"/>
</g>
<g>
	<path class="st5" d="M28.4,139.2v-15.1h1v15.1H28.4z"/>
	<path class="st5" d="M40.4,139.2v-6.3c0-2.5-0.9-3.9-2.8-3.9c-1,0-1.9,0.3-2.5,1.1s-1,1.7-1,2.8v6.2h-1v-10.7h1v2l0,0
		c0.8-1.4,2-2.2,3.7-2.2c1.1,0,2.1,0.4,2.7,1.1c0.7,0.8,0.9,1.9,0.9,3.3v6.5h-0.9V139.2z"/>
	<path class="st5" d="M48.1,139.2h-0.9L43,128.4h1.1l3.2,8.5c0.1,0.4,0.2,0.8,0.3,1.1l0,0c0.1-0.4,0.2-0.8,0.3-1.1l3.3-8.6h1
		L48.1,139.2z"/>
	<path class="st5" d="M54.6,133.7c0,1.4,0.3,2.7,1,3.4s1.7,1.2,2.8,1.2c1.2,0,2.4-0.4,3.5-1.3v1c-1.1,0.8-2.3,1.2-3.8,1.2
		c-1.4,0-2.5-0.4-3.3-1.4c-0.8-1-1.3-2.4-1.3-4.2c0-1.5,0.4-2.9,1.3-4c0.9-1.1,2.1-1.7,3.4-1.7c1.3,0,2.3,0.4,3.1,1.4
		c0.8,1,1.1,2.2,1.1,3.9v0.4H54.6z M61.5,132.8c0-1.2-0.3-2.2-0.9-2.9c-0.6-0.7-1.3-1-2.3-1c-1,0-1.9,0.3-2.5,1
		c-0.7,0.7-1.1,1.7-1.2,2.9H61.5z"/>
	<path class="st5" d="M64.7,138.6v-1.1c0.3,0.3,0.8,0.6,1.3,0.8c0.6,0.2,1,0.2,1.3,0.2c1.7,0,2.5-0.7,2.5-2.1c0-0.4-0.2-0.9-0.6-1.2
		c-0.3-0.3-1-0.7-1.8-1c-1-0.4-1.8-0.9-2.2-1.4s-0.7-1.1-0.7-1.8c0-0.9,0.3-1.5,1-2.1c0.7-0.6,1.5-0.8,2.4-0.8
		c0.9,0,1.7,0.2,2.3,0.6v1.1c-0.8-0.6-1.7-0.8-2.4-0.8c-0.7,0-1.3,0.2-1.7,0.6c-0.4,0.3-0.7,0.9-0.7,1.4s0.1,0.9,0.4,1.2
		c0.3,0.3,0.9,0.7,1.8,1.1c1.1,0.6,1.9,1,2.3,1.4c0.4,0.4,0.7,1,0.7,1.8c0,0.9-0.3,1.5-1,2.1c-0.7,0.6-1.5,0.9-2.7,0.9
		C66.3,139.4,65.4,139.2,64.7,138.6z"/>
	<path class="st5" d="M77.9,138.9c-0.6,0.2-1,0.3-1.4,0.3c-1.5,0-2.4-1-2.4-2.9v-7.2h-1.9v-0.9H74v-2.8c0.1-0.1,0.3-0.1,0.4-0.1
		c0.1,0,0.3-0.1,0.4-0.1v3.1h2.9v0.9h-2.9v7.1c0,0.8,0.1,1.3,0.3,1.7c0.2,0.3,0.7,0.6,1.2,0.6c0.4,0,0.8-0.1,1.3-0.4v0.8H77.9z"/>
	<path class="st5" d="M84.3,139.4c-1.5,0-2.8-0.6-3.8-1.5c-1-1-1.3-2.3-1.3-4c0-1.8,0.4-3.2,1.4-4.2s2.2-1.5,3.8-1.5
		s2.8,0.6,3.7,1.5c0.9,1,1.3,2.4,1.3,4.2c0,1.7-0.4,3-1.3,4.1C87.2,139,85.9,139.4,84.3,139.4z M84.4,129c-1.2,0-2.3,0.4-3,1.3
		s-1.1,2-1.1,3.5c0,1.4,0.3,2.5,1.1,3.4c0.8,0.9,1.8,1.3,3,1.3c1.3,0,2.3-0.4,3-1.2c0.7-0.9,1-2,1-3.5c0-1.5-0.3-2.7-1-3.5
		C86.6,129.4,85.6,129,84.4,129z"/>
	<path class="st5" d="M97.1,129.3c-0.3-0.2-0.7-0.3-1.1-0.3c-0.9,0-1.5,0.4-2.1,1.3c-0.6,0.9-0.9,2.1-0.9,3.8v5.1h-1v-10.7h0.9v2.4
		l0,0c0.2-0.8,0.7-1.4,1.2-1.9c0.6-0.4,1.1-0.7,1.9-0.7c0.4,0,0.8,0.1,1.1,0.2C97.1,128.5,97.1,129.3,97.1,129.3z"/>
	<path class="st5" d="M3.5,166.4c-2.1-2.4-3.2-5.5-3.2-9.2c0-3.8,1.1-6.9,3.2-9.3h1c-2.2,2.5-3.3,5.6-3.3,9.3c0,3.4,1.1,6.5,3.2,9.2
		H3.5z"/>
	<path class="st5" d="M10.8,162.8c-0.6,0.2-1,0.3-1.4,0.3c-1.5,0-2.4-1-2.4-2.9v-7.2H5.1v-0.9h1.9v-2.8c0.1-0.1,0.3-0.1,0.4-0.1
		s0.3-0.1,0.4-0.1v3.1h2.9v0.9H7.9v7.1c0,0.8,0.1,1.3,0.3,1.7c0.2,0.3,0.7,0.6,1.2,0.6c0.4,0,0.8-0.1,1.3-0.4V162.8z"/>
	<path class="st5" d="M17.2,163.3c-1.5,0-2.8-0.6-3.8-1.5c-1-1-1.3-2.3-1.3-4c0-1.8,0.4-3.2,1.4-4.2c1-1,2.2-1.5,3.8-1.5
		c1.5,0,2.8,0.6,3.7,1.5c0.9,1,1.3,2.4,1.3,4.2c0,1.7-0.4,3-1.3,4.1C20.1,163,18.8,163.3,17.2,163.3z M17.3,152.9
		c-1.2,0-2.3,0.4-3,1.3s-1.1,2-1.1,3.5c0,1.4,0.3,2.5,1.1,3.4s1.8,1.3,3,1.3c1.3,0,2.3-0.4,3-1.2c0.7-0.9,1-2,1-3.5
		c0-1.5-0.3-2.7-1-3.5C19.6,153.3,18.6,152.9,17.3,152.9z"/>
	<path class="st5" d="M31.2,163l-5.1-5.3l0,0v5.3h-1V147h1v10.3l0,0l4.9-5.1h1.2l-5.1,5.2l5.5,5.5H31.2z"/>
	<path class="st5" d="M34.7,157.6c0,1.4,0.3,2.7,1,3.4c0.7,0.8,1.7,1.2,2.8,1.2c1.2,0,2.4-0.4,3.5-1.3v1c-1.1,0.8-2.3,1.2-3.8,1.2
		c-1.4,0-2.5-0.4-3.3-1.4c-0.8-1-1.3-2.4-1.3-4.2c0-1.5,0.4-2.9,1.3-4c0.9-1.1,2.1-1.7,3.4-1.7c1.3,0,2.3,0.4,3.1,1.4
		s1.1,2.2,1.1,3.9v0.4H34.7z M41.7,156.8c0-1.2-0.3-2.2-0.9-2.9c-0.6-0.7-1.3-1-2.3-1c-1,0-1.9,0.3-2.5,1c-0.7,0.7-1.1,1.7-1.2,2.9
		H41.7z"/>
	<path class="st5" d="M52.8,163v-6.3c0-2.5-0.9-3.9-2.8-3.9c-1,0-1.9,0.3-2.5,1.1s-1,1.7-1,2.8v6.2h-1.1v-10.7h1v2l0,0
		c0.8-1.4,2-2.2,3.7-2.2c1.1,0,2.1,0.4,2.7,1.1c0.7,0.8,0.9,1.9,0.9,3.3v6.5h-0.8V163z"/>
	<path class="st5" d="M70.1,163v-6.4c0-1.3-0.2-2.2-0.7-2.8c-0.4-0.6-1.2-0.9-2.2-0.9c-0.9,0-1.8,0.3-2.4,1.1c-0.7,0.8-1,1.8-1,3.1
		v6h-1v-15.9h1v7.1l0,0c0.9-1.4,2.1-2.2,3.7-2.2c1.1,0,2,0.3,2.7,1.1c0.7,0.8,0.9,1.8,0.9,3.2v6.6L70.1,163L70.1,163z"/>
	<path class="st5" d="M78.7,163.3c-1.5,0-2.8-0.6-3.8-1.5c-1-1-1.3-2.3-1.3-4c0-1.8,0.4-3.2,1.4-4.2c1-1,2.2-1.5,3.8-1.5
		c1.5,0,2.8,0.6,3.7,1.5c0.9,1,1.3,2.4,1.3,4.2c0,1.7-0.4,3-1.3,4.1C81.5,163,80.2,163.3,78.7,163.3z M78.8,152.9
		c-1.2,0-2.3,0.4-3,1.3s-1.1,2-1.1,3.5c0,1.4,0.3,2.5,1.1,3.4c0.8,0.9,1.8,1.3,3,1.3c1.3,0,2.3-0.4,3-1.2c0.7-0.9,1-2,1-3.5
		c0-1.5-0.3-2.7-1-3.5C81,153.3,80,152.9,78.8,152.9z"/>
	<path class="st5" d="M86.4,163V147h1V163H86.4z"/>
	<path class="st5" d="M98.5,163v-2l0,0c-0.3,0.7-0.9,1.2-1.5,1.7c-0.7,0.4-1.4,0.6-2.3,0.6c-1.3,0-2.4-0.4-3.2-1.4
		c-0.8-1-1.2-2.3-1.2-4c0-1.8,0.4-3.1,1.3-4.2c0.9-1.1,2.1-1.7,3.5-1.7c1.7,0,2.8,0.7,3.4,2l0,0V147h1V163L98.5,163L98.5,163z
		 M98.5,156.4c0-1-0.3-1.9-1-2.5c-0.7-0.7-1.4-1-2.5-1s-2.1,0.4-2.8,1.3c-0.8,0.9-1.1,2.1-1.1,3.5s0.3,2.7,1,3.4
		c0.7,0.8,1.5,1.2,2.5,1.2c1.2,0,2.2-0.3,2.9-1.1s1-1.7,1-2.8V156.4z"/>
	<path class="st5" d="M103.1,157.6c0,1.4,0.3,2.7,1,3.4s1.7,1.2,2.8,1.2c1.2,0,2.4-0.4,3.5-1.3v1c-1.1,0.8-2.3,1.2-3.8,1.2
		s-2.5-0.4-3.3-1.4c-0.8-1-1.3-2.4-1.3-4.2c0-1.5,0.4-2.9,1.3-4c0.9-1.1,2.1-1.7,3.4-1.7c1.3,0,2.3,0.4,3.1,1.4
		c0.8,1,1.1,2.2,1.1,3.9v0.4H103.1z M110.1,156.8c0-1.2-0.3-2.2-0.9-2.9c-0.6-0.7-1.3-1-2.3-1c-1,0-1.9,0.3-2.5,1
		c-0.7,0.7-1.1,1.7-1.2,2.9H110.1z"/>
	<path class="st5" d="M118.8,153.2c-0.3-0.2-0.7-0.3-1.1-0.3c-0.9,0-1.5,0.4-2.1,1.3c-0.6,0.9-0.9,2.1-0.9,3.8v5.1h-1v-10.7h1v2.4
		l0,0c0.2-0.8,0.7-1.4,1.2-1.9c0.6-0.4,1.1-0.7,1.9-0.7c0.4,0,0.8,0.1,1.1,0.2v0.8H118.8z"/>
	<path class="st5" d="M120.4,166.4h-1c2.2-2.7,3.2-5.6,3.2-9.2c0-3.7-1.1-6.8-3.3-9.3h1c2.1,2.4,3.2,5.5,3.2,9.3
		C123.6,161,122.5,163.9,120.4,166.4z"/>
</g>
<g>
	<g class="st2">
		<path class="st6" d="M413.4,80.1h-2V73h-7.9v7.1h-2V64.3h2v6.8h7.9v-6.8h2V80.1z"/>
		<path class="st6" d="M416.4,74.5c0-1.8,0.6-3.3,1.6-4.4c1-1,2.5-1.6,4.2-1.6s3,0.6,3.9,1.6s1.5,2.5,1.5,4.3c0,1.8-0.6,3.2-1.6,4.3
			c-1,1.1-2.4,1.6-4.1,1.6s-3-0.6-3.9-1.6C417,77.7,416.4,76.2,416.4,74.5z M418.4,74.4c0,1.2,0.3,2.3,1,3c0.7,0.8,1.6,1.1,2.6,1.1
			c1.1,0,2-0.3,2.6-1.1c0.6-0.7,0.9-1.8,0.9-3.2s-0.3-2.4-0.9-3.2c-0.6-0.7-1.5-1.1-2.6-1.1s-2,0.3-2.6,1.1
			C418.8,72.1,418.4,73.2,418.4,74.4z"/>
		<path class="st6" d="M439.5,80.1h-2v-1.8l0,0c-0.8,1.3-1.9,2-3.5,2c-2.6,0-3.9-1.6-3.9-4.7v-6.6h1.9v6.3c0,2.3,0.9,3.4,2.6,3.4
			c0.9,0,1.6-0.3,2.1-0.9c0.6-0.7,0.8-1.5,0.8-2.4v-6.4h2V80.1z"/>
		<path class="st6" d="M442.4,77.6c1,0.7,2,1.1,3.3,1.1c1.6,0,2.4-0.4,2.4-1.5c0-0.5-0.1-0.8-0.4-1c-0.3-0.2-1-0.6-2-1
			c-1.2-0.5-2-1-2.4-1.5c-0.3-0.5-0.6-1.1-0.6-1.8c0-1,0.5-1.8,1.2-2.4s1.9-0.9,3-0.9c0.9,0,1.8,0.1,2.6,0.5v1.9
			c-0.8-0.6-1.8-0.8-2.8-0.8c-0.7,0-1.1,0.1-1.6,0.4c-0.5,0.3-0.6,0.7-0.6,1.1s0.1,0.8,0.4,1c0.3,0.2,0.9,0.6,1.9,1
			c1.2,0.5,2.1,0.9,2.5,1.5c0.5,0.5,0.7,1.1,0.7,1.8c0,1-0.4,1.8-1.2,2.5c-0.8,0.6-1.9,0.9-3.3,0.9c-1.1,0-2.1-0.2-3-0.7v-2.3H442.4
			z"/>
		<path class="st6" d="M461.7,74.9H454c0,1.2,0.3,2.1,1,2.8c0.6,0.7,1.5,1,2.6,1c1.2,0,2.4-0.4,3.5-1.2v1.8c-1,0.7-2.3,1-3.9,1
			c-1.6,0-2.9-0.6-3.8-1.6c-0.9-1-1.4-2.5-1.4-4.3c0-1.7,0.4-3.2,1.5-4.3c1-1.1,2.3-1.7,3.7-1.7c1.5,0,2.6,0.4,3.4,1.5
			c0.8,0.9,1.2,2.3,1.2,3.9L461.7,74.9L461.7,74.9z M459.7,73.3c0-1-0.2-1.8-0.7-2.4c-0.5-0.6-1.1-0.8-2-0.8c-0.8,0-1.5,0.3-2,0.9
			s-0.9,1.3-1.1,2.3C453.9,73.3,459.7,73.3,459.7,73.3z"/>
		<path class="st6" d="M474,66.1h-4.5v13.8h-2V66.1H463v-1.8h11V66.1z"/>
		<path class="st6" d="M473.1,74.5c0-1.8,0.6-3.3,1.6-4.4c1-1,2.5-1.6,4.2-1.6s3,0.6,3.9,1.6s1.5,2.5,1.5,4.3c0,1.8-0.6,3.2-1.6,4.3
			c-1,1.1-2.4,1.6-4,1.6s-3-0.6-3.9-1.6C473.7,77.7,473.1,76.2,473.1,74.5z M475.1,74.4c0,1.2,0.3,2.3,1,3c0.7,0.8,1.6,1.1,2.6,1.1
			c1.1,0,2-0.3,2.6-1.1c0.6-0.7,0.9-1.8,0.9-3.2s-0.3-2.4-0.9-3.2c-0.6-0.7-1.5-1.1-2.6-1.1s-2,0.3-2.6,1.1
			C475.5,72.1,475.1,73.2,475.1,74.4z"/>
		<path class="st6" d="M496.5,80.1h-2.7l-4.7-5.4l0,0v5.4h-2V63.5h2V74l0,0l4.5-5.2h2.6l-5.1,5.4L496.5,80.1z"/>
		<path class="st6" d="M506.9,74.9h-7.8c0,1.2,0.3,2.1,1,2.8c0.6,0.7,1.5,1,2.6,1c1.2,0,2.4-0.4,3.5-1.2v1.8c-1,0.7-2.3,1-3.9,1
			c-1.6,0-2.9-0.6-3.8-1.6c-0.9-1-1.4-2.5-1.4-4.3c0-1.7,0.5-3.2,1.5-4.3c1-1.1,2.3-1.7,3.7-1.7c1.5,0,2.6,0.4,3.4,1.5
			c0.8,0.9,1.2,2.3,1.2,3.9L506.9,74.9L506.9,74.9z M504.9,73.3c0-1-0.2-1.8-0.7-2.4c-0.5-0.6-1.1-0.8-2-0.8c-0.8,0-1.5,0.3-2,0.9
			s-0.9,1.3-1.1,2.3C499.1,73.3,504.9,73.3,504.9,73.3z"/>
		<path class="st6" d="M518.9,80.1H517v-6.4c0-2.3-0.8-3.5-2.5-3.5c-0.9,0-1.6,0.3-2.1,1c-0.6,0.7-0.8,1.5-0.8,2.5v6.4h-2V68.9h2
			v1.8l0,0c0.8-1.5,2-2.1,3.7-2.1c1.2,0,2.1,0.3,2.8,1.1c0.7,0.8,1,1.9,1,3.5v6.9C519.1,80.1,518.9,80.1,518.9,80.1z"/>
		<path class="st6" d="M536.9,80.1h-8.2V64.3h2v13.8h6.2V80.1z"/>
		<path class="st6" d="M547.5,66.1H543v13.8h-2.1V66.1h-4.5v-1.8h11L547.5,66.1L547.5,66.1z"/>
		<path class="st6" d="M549.8,80.1V64.3h4.5c2.4,0,4.4,0.7,5.9,2c1.6,1.3,2.4,3.3,2.4,5.5c0,2.5-0.8,4.4-2.4,5.8
			c-1.6,1.5-3.6,2.1-6.1,2.1h-4.3L549.8,80.1L549.8,80.1z M551.9,66.1v12h2.3c2,0,3.5-0.6,4.6-1.6c1.1-1,1.7-2.6,1.7-4.6
			c0-1.9-0.6-3.4-1.7-4.4c-1.1-1-2.7-1.5-4.5-1.5C554.2,66.1,551.9,66.1,551.9,66.1z"/>
	</g>
	<g>
		<path class="st7" d="M417.3,115.2c-1.9-2.3-2.9-5-2.9-8.3s1-6.2,2.9-8.4h0.9c-2,2.3-2.9,5.1-2.9,8.4c0,3.2,1,6,2.9,8.3H417.3z"/>
		<path class="st7" d="M429.4,111.7c-1.1,0.5-2.3,0.7-3.5,0.7c-1.9,0-3.4-0.7-4.5-1.9s-1.8-2.9-1.8-4.8c0-2.3,0.7-3.9,1.9-5.3
			c1.2-1.3,2.9-2,4.8-2c1,0,2,0.2,3,0.6v0.9c-0.9-0.4-1.9-0.7-3-0.7c-1.7,0-3.1,0.6-4.2,1.7c-1.1,1.1-1.6,2.7-1.6,4.6
			s0.6,3.4,1.6,4.4c1,1.1,2.4,1.6,3.9,1.6c1.2,0,2.4-0.2,3.4-0.7v1H429.4z"/>
		<path class="st7" d="M437.9,112.1v-1.9l0,0c-0.3,0.7-0.8,1.2-1.4,1.6c-0.6,0.4-1.2,0.6-2,0.6c-0.9,0-1.7-0.2-2.3-0.8
			s-0.8-1.1-0.8-1.9c0-1.7,1.1-2.7,3.4-3l3-0.5c0-2.1-0.8-3.2-2.4-3.2c-1,0-2.1,0.5-3.1,1.2v-1.1c0.3-0.3,0.9-0.6,1.5-0.8
			c0.6-0.2,1.2-0.3,1.8-0.3c1,0,1.8,0.3,2.4,0.9c0.6,0.7,0.8,1.6,0.8,2.7v6.3h-0.9V112.1z M435.3,107.3c-1,0.1-1.7,0.3-2.1,0.7
			s-0.7,0.9-0.7,1.6c0,0.6,0.2,1,0.6,1.5c0.3,0.3,0.9,0.6,1.6,0.6c0.9,0,1.7-0.3,2.4-1c0.7-0.7,0.9-1.6,0.9-2.7v-0.9L435.3,107.3z"
			/>
		<path class="st7" d="M444.1,114c-0.3,0.9-0.8,1.6-1.1,1.9s-1,0.7-1.7,0.7c-0.3,0-0.6,0-0.8-0.1v-0.9c0.2,0.1,0.4,0.1,0.8,0.1
			c0.8,0,1.4-0.6,1.8-1.6l0.9-2.1l-3.7-9.7h1l2.9,7.9c0.1,0.2,0.1,0.3,0.1,0.3c0,0.1,0,0.2,0.1,0.3l0,0l0.2-0.7l3.1-8h0.9L444.1,114
			z"/>
		<path class="st7" d="M462.8,112.1v-5.8c0-1.2-0.2-2.1-0.6-2.6c-0.3-0.4-1-0.8-1.8-0.8s-1.5,0.3-2,1s-0.8,1.5-0.8,2.5v5.7h-0.9v-6
			c0-2.1-0.8-3.3-2.5-3.3c-0.8,0-1.5,0.3-2,1s-0.8,1.5-0.8,2.6v5.6h-0.9v-9.7h0.9v1.6l0,0c0.7-1.2,1.7-1.8,2.9-1.8
			c0.7,0,1.4,0.2,1.8,0.6c0.5,0.5,0.9,0.9,1,1.6c0.3-0.7,0.8-1.2,1.4-1.7c0.6-0.3,1.1-0.6,1.8-0.6c2.1,0,3.1,1.3,3.1,3.9v6h-0.7
			V112.1z"/>
		<path class="st7" d="M472.3,112.1v-1.9l0,0c-0.3,0.7-0.8,1.2-1.4,1.6c-0.6,0.4-1.2,0.6-2,0.6c-0.9,0-1.7-0.2-2.3-0.8
			s-0.8-1.1-0.8-1.9c0-1.7,1.1-2.7,3.4-3l3-0.5c0-2.1-0.8-3.2-2.4-3.2c-1,0-2.1,0.5-3.1,1.2v-1.1c0.3-0.3,0.9-0.6,1.5-0.8
			c0.6-0.2,1.2-0.3,1.8-0.3c1,0,1.8,0.3,2.4,0.9c0.6,0.7,0.8,1.6,0.8,2.7v6.3h-0.9V112.1z M469.6,107.3c-1,0.1-1.7,0.3-2.1,0.7
			c-0.5,0.3-0.7,0.9-0.7,1.6c0,0.6,0.2,1,0.6,1.5c0.3,0.3,0.9,0.6,1.6,0.6c0.9,0,1.7-0.3,2.4-1c0.7-0.7,0.9-1.6,0.9-2.7v-0.9
			L469.6,107.3z"/>
		<path class="st7" d="M482.8,112.1v-5.6c0-2.4-0.8-3.5-2.5-3.5c-0.9,0-1.7,0.3-2.4,1c-0.6,0.7-0.9,1.6-0.9,2.6v5.6h-0.9v-9.7h0.9
			v1.8l0,0c0.7-1.3,1.8-2,3.4-2c1,0,1.8,0.3,2.4,1s0.8,1.7,0.8,3v6h-0.8V112.1z"/>
		<path class="st7" d="M491.9,112.1V97.7h0.9v14.4H491.9z"/>
		<path class="st7" d="M496.3,99.9c-0.2,0-0.3-0.1-0.4-0.2c-0.1-0.1-0.2-0.3-0.2-0.6s0.1-0.3,0.2-0.5c0.1-0.1,0.3-0.2,0.4-0.2
			c0.2,0,0.3,0.1,0.6,0.2c0.1,0.1,0.2,0.3,0.2,0.6c0,0.2-0.1,0.3-0.2,0.6C496.6,99.9,496.5,99.9,496.3,99.9z M495.8,112.1v-9.7h0.9
			v9.7H495.8z"/>
		<path class="st7" d="M512,112.1v-5.8c0-1.2-0.2-2.1-0.6-2.6c-0.3-0.4-1-0.8-1.8-0.8c-0.8,0-1.5,0.3-2,1s-0.8,1.5-0.8,2.5v5.7H506
			v-6c0-2.1-0.8-3.3-2.5-3.3c-0.8,0-1.5,0.3-2,1s-0.8,1.5-0.8,2.6v5.6h-0.9v-9.7h0.9v1.6l0,0c0.7-1.2,1.7-1.8,2.9-1.8
			c0.7,0,1.4,0.2,1.8,0.6c0.4,0.5,0.9,0.9,1,1.6c0.3-0.7,0.8-1.2,1.4-1.7c0.6-0.3,1.1-0.6,1.8-0.6c2.1,0,3.1,1.3,3.1,3.9v6H512
			V112.1z"/>
		<path class="st7" d="M516.3,99.9c-0.2,0-0.3-0.1-0.4-0.2c-0.1-0.1-0.2-0.3-0.2-0.6s0.1-0.3,0.2-0.5c0.1-0.1,0.3-0.2,0.4-0.2
			c0.2,0,0.3,0.1,0.6,0.2c0.1,0.1,0.2,0.3,0.2,0.6c0,0.2-0.1,0.3-0.2,0.6C516.6,99.9,516.4,99.9,516.3,99.9z M515.9,112.1v-9.7h0.9
			v9.7H515.9z"/>
		<path class="st7" d="M523.6,111.9c-0.4,0.2-0.9,0.3-1.2,0.3c-1.5,0-2.1-0.9-2.1-2.6v-6.5h-1.8v-0.8h1.8v-2.5
			c0.1,0,0.2-0.1,0.5-0.1c0.1,0,0.3-0.1,0.5-0.1v2.8h2.6v0.7h-2.6v6.4c0,0.7,0.1,1.1,0.3,1.5c0.2,0.3,0.6,0.5,1.1,0.5
			c0.3,0,0.8-0.1,1.1-0.3v0.8H523.6z"/>
		<path class="st7" d="M525.8,107.3c0,1.3,0.3,2.4,0.9,3.2c0.6,0.8,1.5,1.1,2.6,1.1s2.1-0.5,3.2-1.2v0.9c-1,0.7-2.1,1.1-3.4,1.1
			c-1.2,0-2.3-0.5-3-1.3c-0.8-0.9-1.1-2.1-1.1-3.8c0-1.5,0.5-2.6,1.2-3.6c0.8-1,1.9-1.5,3.2-1.5s2.1,0.4,2.8,1.2c0.7,0.9,1,2,1,3.5
			v0.3h-7.3V107.3z M532.1,106.5c0-1.1-0.3-2-0.8-2.6s-1.2-0.9-2-0.9c-0.9,0-1.7,0.3-2.3,0.9s-1,1.5-1.1,2.6H532.1z"/>
		<path class="st7" d="M542.3,112.1v-1.8l0,0c-0.3,0.6-0.8,1.1-1.5,1.5s-1.3,0.6-2.1,0.6c-1.2,0-2.1-0.5-2.9-1.3
			c-0.8-0.9-1.1-2-1.1-3.6s0.5-2.8,1.2-3.8c0.8-1,1.9-1.5,3.3-1.5c1.5,0,2.5,0.6,3.2,1.8l0,0v-6.2h0.9v14.4H542.3z M542.3,106.2
			c0-0.9-0.3-1.7-0.9-2.3c-0.6-0.7-1.3-0.9-2.4-0.9s-1.9,0.3-2.5,1.1c-0.7,0.8-1,1.8-1,3.3c0,1.3,0.3,2.4,0.9,3.2
			c0.6,0.8,1.4,1.1,2.4,1.1c1.1,0,1.9-0.3,2.6-1c0.7-0.7,0.9-1.6,0.9-2.5L542.3,106.2L542.3,106.2z"/>
		<path class="st7" d="M449,137.5c-0.7,0.5-1.6,0.7-2.6,0.7c-1.4,0-2.4-0.4-3.1-1.3c-0.8-0.9-1.2-2.1-1.2-3.6c0-1.6,0.5-2.8,1.4-3.8
			c0.9-1,2.1-1.5,3.5-1.5c0.8,0,1.5,0.1,2.1,0.5v1c-0.7-0.4-1.5-0.7-2.3-0.7c-1.1,0-2,0.5-2.8,1.2c-0.7,0.8-1,1.9-1,3.2
			c0,1.2,0.3,2.3,1,3c0.7,0.8,1.5,1.1,2.6,1.1c1,0,1.8-0.2,2.6-0.8v1H449z"/>
		<path class="st7" d="M455.3,138.2c-1.5,0-2.6-0.4-3.4-1.3c-0.8-0.9-1.2-2.1-1.2-3.6c0-1.6,0.5-2.9,1.4-3.8c0.9-0.9,2-1.3,3.4-1.3
			c1.4,0,2.5,0.4,3.3,1.3c0.8,0.9,1.2,2.1,1.2,3.7c0,1.5-0.5,2.7-1.2,3.7C457.8,137.8,456.7,138.2,455.3,138.2z M455.3,128.8
			c-1.1,0-2,0.3-2.7,1.1c-0.7,0.8-1,1.8-1,3.3c0,1.2,0.3,2.3,1,3c0.7,0.8,1.6,1.1,2.7,1.1s2-0.3,2.7-1.1c0.7-0.8,0.9-1.8,0.9-3.2
			c0-1.3-0.3-2.5-0.9-3.1C457.4,129.2,456.5,128.8,455.3,128.8z"/>
		<path class="st7" d="M474.5,138v-5.9c0-1.2-0.2-2.1-0.6-2.6c-0.3-0.5-1-0.8-1.8-0.8s-1.5,0.3-2,1c-0.6,0.7-0.8,1.5-0.8,2.5v5.7
			h-0.9v-6c0-2.1-0.8-3.3-2.5-3.3c-0.8,0-1.5,0.3-2,1s-0.8,1.5-0.8,2.6v5.6h-0.9v-9.7h0.9v1.6l0,0c0.7-1.2,1.7-1.8,2.9-1.8
			c0.7,0,1.4,0.2,1.8,0.6c0.5,0.4,0.9,0.9,1,1.6c0.3-0.7,0.8-1.2,1.4-1.7c0.6-0.3,1.1-0.6,1.8-0.6c2.1,0,3.1,1.3,3.1,3.9v6h-0.7V138
			z"/>
		<path class="st7" d="M479.2,136.2L479.2,136.2v6.2h-0.9v-14.2h0.9v2l0,0c0.3-0.7,0.9-1.2,1.5-1.7c0.7-0.3,1.4-0.6,2.1-0.6
			c1.2,0,2.3,0.4,2.9,1.2c0.7,0.8,1,2,1,3.5c0,1.6-0.4,2.9-1.2,3.9c-0.8,1-1.8,1.5-3.1,1.5C481,138.2,479.9,137.5,479.2,136.2z
			 M479.2,132.6v1.2c0,1,0.3,1.8,0.9,2.5s1.5,1,2.5,1c1,0,1.8-0.4,2.4-1.2c0.7-0.9,0.9-2,0.9-3.4c0-1.2-0.3-2.1-0.9-2.9
			c-0.6-0.7-1.4-1.1-2.3-1.1c-1.1,0-2,0.3-2.6,1.1C479.4,130.7,479.2,131.6,479.2,132.6z"/>
		<path class="st7" d="M494.9,138v-1.9l0,0c-0.3,0.7-0.8,1.2-1.4,1.6c-0.6,0.4-1.2,0.6-2,0.6c-0.9,0-1.7-0.2-2.3-0.8
			s-0.8-1.1-0.8-1.9c0-1.7,1.1-2.7,3.4-3l3-0.4c0-2.1-0.8-3.1-2.4-3.1c-1,0-2.1,0.4-3.1,1.2V129c0.3-0.3,0.9-0.6,1.5-0.8
			c0.6-0.2,1.2-0.3,1.8-0.3c1,0,1.8,0.3,2.4,0.9c0.6,0.7,0.8,1.6,0.8,2.7v6.3h-0.9V138z M492.3,133.1c-1,0.1-1.7,0.3-2.1,0.7
			c-0.5,0.3-0.7,0.9-0.7,1.6c0,0.6,0.2,1,0.6,1.5c0.3,0.3,0.9,0.6,1.6,0.6c0.9,0,1.7-0.3,2.4-1c0.7-0.7,0.9-1.6,0.9-2.7v-0.9
			L492.3,133.1z"/>
		<path class="st7" d="M505.4,138v-5.6c0-2.4-0.8-3.5-2.5-3.5c-0.9,0-1.7,0.3-2.4,1c-0.6,0.7-0.9,1.6-0.9,2.6v5.6h-0.9v-9.7h0.9v1.8
			l0,0c0.7-1.3,1.8-2,3.4-2c1,0,1.8,0.3,2.4,1c0.6,0.7,0.8,1.7,0.8,3v6h-0.8V138z"/>
		<path class="st7" d="M511.6,139.9c-0.3,0.9-0.8,1.6-1.1,1.9c-0.3,0.3-1,0.7-1.7,0.7c-0.3,0-0.6,0-0.8-0.1v-0.9
			c0.2,0.1,0.5,0.1,0.8,0.1c0.8,0,1.4-0.6,1.8-1.6l0.9-2.1l-3.7-9.7h1l2.9,7.9c0.1,0.2,0.1,0.3,0.1,0.3c0,0.1,0,0.2,0.1,0.3l0,0
			l0.2-0.7l3.1-8h0.9L511.6,139.9z"/>
		<path class="st7" d="M517.7,141h-0.9c1.9-2.4,2.9-5.2,2.9-8.3c0-3.4-1-6.2-2.9-8.4h0.9c1.9,2.3,2.9,5.1,2.9,8.4
			C520.5,136.1,519.6,138.8,517.7,141z"/>
	</g>
</g>
<g>
	<path class="st5" d="M1.3,479.8v6.3H0.2v-15.7H4c1.6,0,2.8,0.4,3.7,1.2c0.8,0.7,1.3,1.9,1.3,3.3c0,1.4-0.5,2.7-1.4,3.6
		s-2.2,1.4-4,1.4H1.3V479.8z M1.3,471.5v7.4h2.2c1.4,0,2.5-0.4,3.2-1.1c0.7-0.7,1.1-1.6,1.1-2.8c0-2.3-1.4-3.5-4.1-3.5H1.3
		L1.3,471.5z"/>
	<path class="st5" d="M17.4,475.9c-0.4-0.2-0.7-0.4-1.2-0.4c-0.9,0-1.6,0.5-2.2,1.4c-0.6,0.9-0.9,2.2-0.9,3.9v5.3h-0.9V475h0.9v2.5
		l0,0c0.2-0.8,0.7-1.5,1.2-2c0.6-0.5,1.2-0.7,1.9-0.7c0.5,0,0.8,0.1,1.1,0.2v0.9H17.4z"/>
	<path class="st5" d="M20,472.1c-0.2,0-0.5-0.1-0.6-0.2c-0.1-0.1-0.2-0.4-0.2-0.6s0.1-0.5,0.2-0.6c0.1-0.1,0.4-0.2,0.6-0.2
		c0.2,0,0.5,0.1,0.6,0.2c0.1,0.1,0.2,0.4,0.2,0.6s-0.1,0.5-0.2,0.6C20.4,471.9,20.2,472.1,20,472.1z M19.5,486.1V475h1.1v11.1H19.5z
		"/>
	<path class="st5" d="M38.1,486.1v-6.7c0-1.4-0.2-2.3-0.7-2.9c-0.5-0.6-1.2-0.8-2.1-0.8c-0.9,0-1.6,0.4-2.2,1.2s-0.9,1.8-0.9,2.8
		v6.5h-1.1v-6.8c0-2.5-0.9-3.7-2.8-3.7c-0.9,0-1.6,0.4-2.2,1.2s-0.9,1.8-0.9,2.9v6.4h-1.1v-11.1h1.1v1.9l0,0
		c0.8-1.4,1.9-2.1,3.4-2.1c0.8,0,1.5,0.2,2.1,0.7c0.6,0.5,0.9,1.1,1.2,1.9c0.4-0.8,0.8-1.4,1.5-1.9c0.7-0.5,1.4-0.7,2.1-0.7
		c2.5,0,3.6,1.5,3.6,4.6v6.9h-0.9V486.1z"/>
	<path class="st5" d="M42.6,480.5c0,1.5,0.4,2.7,1.1,3.6c0.7,0.9,1.6,1.3,2.9,1.3c1.3,0,2.5-0.5,3.6-1.4v1.1
		c-1.2,0.8-2.5,1.3-3.9,1.3s-2.6-0.5-3.5-1.5c-0.9-1.1-1.3-2.5-1.3-4.3c0-1.6,0.5-3,1.4-4.1c0.9-1.2,2.1-1.6,3.6-1.6
		c1.4,0,2.5,0.5,3.2,1.5c0.7,0.9,1.2,2.3,1.2,4v0.5h-8.3V480.5z M49.8,479.5c0-1.3-0.4-2.3-0.9-3c-0.6-0.7-1.4-1.1-2.3-1.1
		c-1.1,0-1.9,0.4-2.6,1.1c-0.7,0.7-1.1,1.8-1.3,3H49.8z"/>
	<path class="st5" d="M67.9,486.1l-2.1-4.6c-0.5-0.9-0.8-1.5-1.3-1.9c-0.5-0.4-0.9-0.5-1.6-0.5h-2v6.9h-1.1v-15.7h4.3
		c1.4,0,2.5,0.4,3.3,1.2c0.8,0.7,1.2,1.8,1.2,2.9s-0.4,2.1-0.9,2.8c-0.7,0.7-1.5,1.3-2.7,1.5l0,0c0.6,0.2,1.2,1.1,1.8,2.2l2.3,5
		H67.9z M61,471.5v6.7h2.7c1.2,0,2.1-0.4,2.8-0.9c0.7-0.6,1.1-1.5,1.1-2.6c0-1.1-0.4-1.8-0.9-2.3s-1.5-0.8-2.7-0.8H61z"/>
	<path class="st5" d="M72.3,480.5c0,1.5,0.4,2.7,1.1,3.6c0.7,0.9,1.6,1.3,2.9,1.3c1.3,0,2.5-0.5,3.6-1.4v1.1
		c-1.2,0.8-2.5,1.3-3.9,1.3s-2.6-0.5-3.5-1.5c-0.9-1.1-1.3-2.5-1.3-4.3c0-1.6,0.5-3,1.4-4.1c0.9-1.2,2.1-1.6,3.6-1.6
		c1.4,0,2.5,0.5,3.2,1.5c0.7,0.9,1.2,2.3,1.2,4v0.5h-8.3V480.5z M79.5,479.5c0-1.3-0.4-2.3-0.9-3c-0.6-0.7-1.4-1.1-2.3-1.1
		c-1.1,0-1.9,0.4-2.6,1.1c-0.7,0.7-1.1,1.8-1.3,3H79.5z"/>
	<path class="st5" d="M89.9,486.1v-2.2l0,0c-0.4,0.7-0.8,1.4-1.5,1.9c-0.7,0.5-1.4,0.7-2.2,0.7c-1.1,0-1.9-0.4-2.6-0.9
		c-0.6-0.6-0.9-1.4-0.9-2.2c0-2,1.3-3.2,3.9-3.5l3.4-0.5c0-2.3-0.9-3.6-2.7-3.6c-1.2,0-2.5,0.5-3.6,1.5V476c0.5-0.4,0.9-0.6,1.6-0.8
		c0.7-0.2,1.4-0.4,2-0.4c1.2,0,2,0.4,2.7,1.1c0.6,0.7,0.9,1.8,0.9,3.2v7.2h-0.9V486.1z M86.9,480.5c-1.2,0.1-2,0.5-2.5,0.8
		c-0.5,0.4-0.7,0.9-0.7,1.9c0,0.7,0.2,1.2,0.7,1.6c0.5,0.5,1.1,0.6,1.9,0.6c1.1,0,2-0.4,2.7-1.2c0.7-0.8,1.1-1.9,1.1-3v-1.1
		L86.9,480.5z"/>
	<path class="st5" d="M94.4,486.1v-16.5h1.1v16.5H94.4z"/>
	<path class="st5" d="M105.2,486.1v-15.7h7.2v1.1h-6.2v6.3h5.7v0.9h-5.7v6.4h6.5v0.9H105.2z"/>
	<path class="st5" d="M115.6,485.5v-1.2c0.4,0.4,0.8,0.6,1.4,0.8c0.6,0.2,1.1,0.2,1.4,0.2c1.8,0,2.6-0.7,2.6-2.1
		c0-0.5-0.2-0.9-0.6-1.3c-0.4-0.4-1.1-0.7-1.9-1.1c-1.1-0.5-1.8-0.9-2.2-1.4c-0.5-0.5-0.7-1.1-0.7-1.9c0-0.9,0.4-1.6,1.1-2.2
		c0.7-0.6,1.5-0.8,2.6-0.8c0.9,0,1.8,0.2,2.5,0.6v1.2c-0.8-0.6-1.6-0.8-2.6-0.8c-0.7,0-1.3,0.2-1.8,0.6c-0.5,0.4-0.7,0.8-0.7,1.5
		c0,0.6,0.1,0.9,0.5,1.3c0.2,0.4,0.9,0.7,1.9,1.2c1.2,0.5,2,1.1,2.3,1.4s0.7,1.1,0.7,1.8c0,0.9-0.4,1.6-0.9,2.2
		c-0.7,0.6-1.5,0.8-2.7,0.8C117.1,486.3,116.3,486.1,115.6,485.5z"/>
	<path class="st5" d="M129.2,485.8c-0.5,0.2-1.1,0.4-1.5,0.4c-1.6,0-2.5-0.9-2.5-2.9v-7.5h-2v-0.9h2v-2.9c0.1-0.1,0.4-0.1,0.5-0.1
		s0.4-0.1,0.5-0.1v3.3h2.9v0.9h-2.9v7.4c0,0.8,0.1,1.3,0.4,1.6c0.2,0.4,0.7,0.5,1.3,0.5c0.5,0,0.8-0.1,1.3-0.4v0.8H129.2z"/>
	<path class="st5" d="M138.1,486.1v-2.2l0,0c-0.4,0.7-0.8,1.4-1.5,1.9c-0.7,0.5-1.4,0.7-2.2,0.7c-1.1,0-1.9-0.4-2.6-0.9
		c-0.6-0.6-0.9-1.4-0.9-2.2c0-2,1.3-3.2,3.9-3.5l3.4-0.5c0-2.3-0.9-3.6-2.7-3.6c-1.2,0-2.5,0.5-3.6,1.5V476c0.5-0.4,0.9-0.6,1.6-0.8
		c0.7-0.2,1.4-0.4,2-0.4c1.2,0,2,0.4,2.7,1.1c0.6,0.7,0.9,1.8,0.9,3.2v7.2h-0.9V486.1z M135,480.5c-1.2,0.1-2,0.5-2.5,0.8
		c-0.5,0.4-0.7,0.9-0.7,1.9c0,0.7,0.2,1.2,0.7,1.6c0.5,0.5,1.1,0.6,1.9,0.6c1.1,0,2-0.4,2.7-1.2c0.7-0.8,1.1-1.9,1.1-3v-1.1
		L135,480.5z"/>
	<path class="st5" d="M146.8,485.8c-0.5,0.2-1.1,0.4-1.5,0.4c-1.6,0-2.5-0.9-2.5-2.9v-7.5h-2v-0.9h2v-2.9c0.1-0.1,0.4-0.1,0.5-0.1
		s0.4-0.1,0.5-0.1v3.3h2.9v0.9h-2.9v7.4c0,0.8,0.1,1.3,0.4,1.6c0.2,0.4,0.7,0.5,1.3,0.5c0.5,0,0.8-0.1,1.3-0.4v0.8H146.8z"/>
	<path class="st5" d="M149.3,480.5c0,1.5,0.4,2.7,1.1,3.6c0.7,0.9,1.6,1.3,2.9,1.3s2.5-0.5,3.6-1.4v1.1c-1.2,0.8-2.5,1.3-3.9,1.3
		c-1.4,0-2.6-0.5-3.5-1.5c-0.9-1.1-1.3-2.5-1.3-4.3c0-1.6,0.5-3,1.4-4.1c0.9-1.2,2.1-1.6,3.6-1.6c1.4,0,2.5,0.5,3.2,1.5
		c0.7,0.9,1.2,2.3,1.2,4v0.5h-8.3V480.5z M156.5,479.5c0-1.3-0.4-2.3-0.9-3c-0.6-0.7-1.4-1.1-2.3-1.1c-1.1,0-1.9,0.4-2.6,1.1
		s-1.1,1.8-1.3,3H156.5z"/>
	<path class="st5" d="M66,515.6l-1.8-4.9h-6.8l-1.8,4.9h-1.2l5.8-15.7h1.1l5.8,15.7H66z M61.2,502.7c-0.1-0.2-0.1-0.5-0.2-0.7
		c0-0.2-0.1-0.4-0.1-0.6l0,0c-0.1,0.5-0.2,0.8-0.4,1.2l-2.7,7.2h6.1L61.2,502.7z"/>
	<path class="st5" d="M69,515.2V514c0.4,0.4,0.8,0.6,1.4,0.8c0.6,0.2,1.1,0.2,1.4,0.2c1.8,0,2.6-0.7,2.6-2.1c0-0.5-0.2-0.9-0.6-1.3
		s-1.1-0.7-1.9-1.1c-1.1-0.5-1.8-0.9-2.2-1.4c-0.5-0.5-0.7-1.1-0.7-1.9c0-0.9,0.4-1.6,1.1-2.2c0.7-0.6,1.5-0.8,2.6-0.8
		c0.9,0,1.8,0.2,2.5,0.6v1.2c-0.8-0.6-1.6-0.8-2.6-0.8c-0.7,0-1.3,0.2-1.8,0.6s-0.7,0.8-0.7,1.5c0,0.6,0.1,0.9,0.5,1.3
		c0.2,0.4,0.9,0.7,1.9,1.2c1.2,0.5,2,1.1,2.3,1.4c0.4,0.4,0.7,1.1,0.7,1.8c0,0.9-0.4,1.6-0.9,2.2c-0.7,0.6-1.5,0.8-2.7,0.8
		C70.7,516,69.7,515.6,69,515.2z"/>
	<path class="st5" d="M77.7,515.2V514c0.4,0.4,0.8,0.6,1.4,0.8c0.6,0.2,1.1,0.2,1.4,0.2c1.8,0,2.6-0.7,2.6-2.1
		c0-0.5-0.2-0.9-0.6-1.3s-1.1-0.7-1.9-1.1c-1.1-0.5-1.8-0.9-2.2-1.4c-0.5-0.5-0.7-1.1-0.7-1.9c0-0.9,0.4-1.6,1.1-2.2
		c0.7-0.6,1.5-0.8,2.6-0.8c0.9,0,1.8,0.2,2.5,0.6v1.2c-0.8-0.6-1.6-0.8-2.6-0.8c-0.7,0-1.3,0.2-1.8,0.6s-0.7,0.8-0.7,1.5
		c0,0.6,0.1,0.9,0.5,1.3c0.2,0.4,0.9,0.7,1.9,1.2c1.2,0.5,2,1.1,2.3,1.4c0.4,0.4,0.7,1.1,0.7,1.8c0,0.9-0.4,1.6-0.9,2.2
		c-0.7,0.6-1.5,0.8-2.7,0.8C79.3,516,78.4,515.6,77.7,515.2z"/>
	<path class="st5" d="M87.1,510.1c0,1.5,0.4,2.7,1.1,3.6s1.6,1.3,2.9,1.3c1.3,0,2.5-0.5,3.6-1.4v1.1c-1.2,0.8-2.5,1.3-3.9,1.3
		s-2.6-0.5-3.5-1.5c-0.9-1.1-1.3-2.5-1.3-4.3c0-1.6,0.5-3,1.4-4.1c0.9-1.2,2.1-1.6,3.6-1.6c1.4,0,2.5,0.5,3.2,1.5
		c0.7,0.9,1.2,2.3,1.2,4v0.5h-8.3V510.1z M94.4,509.2c0-1.3-0.4-2.3-0.9-3c-0.6-0.7-1.4-1.1-2.3-1.1c-1.1,0-1.9,0.4-2.6,1.1
		s-1.1,1.8-1.3,3H94.4z"/>
	<path class="st5" d="M102.5,515.5c-0.5,0.2-1.1,0.4-1.5,0.4c-1.6,0-2.5-0.9-2.5-2.9v-7.5h-2v-0.9h2v-2.9c0.1-0.1,0.4-0.1,0.5-0.1
		c0.1,0,0.4-0.1,0.5-0.1v3.3h2.9v0.9h-2.9v7.4c0,0.8,0.1,1.3,0.4,1.6s0.7,0.5,1.3,0.5c0.5,0,0.8-0.1,1.3-0.4v0.8H102.5z"/>
</g>
<g>
	<path class="st5" d="M368.2,490.2v-6.1h-7.1v6h-0.8v-12.5h0.8v5.7h7.1v-5.7h0.8v12.5h-0.8V490.2z"/>
	<path class="st5" d="M375.8,490.4c-1.3,0-2.4-0.4-3.1-1.2c-0.7-0.8-1.1-2-1.1-3.3c0-1.5,0.4-2.7,1.2-3.5c0.8-0.8,1.9-1.2,3.1-1.2
		c1.2,0,2.3,0.4,3,1.2c0.7,0.8,1.1,2,1.1,3.4c0,1.3-0.4,2.5-1.1,3.4C378.2,490.1,377,490.4,375.8,490.4z M375.8,481.7
		c-1,0-1.9,0.3-2.5,1c-0.6,0.7-0.9,1.7-0.9,3c0,1.1,0.3,2.1,0.9,2.8c0.6,0.7,1.5,1,2.5,1c1,0,1.9-0.3,2.5-1s0.8-1.7,0.8-2.9
		s-0.3-2.3-0.8-2.9C377.8,482.1,376.9,481.7,375.8,481.7z"/>
	<path class="st5" d="M388.1,490.2v-1.7l0,0c-0.6,1.2-1.6,1.9-2.9,1.9c-2.1,0-3.2-1.3-3.2-4v-5.2h0.8v5c0,1.2,0.2,2.1,0.6,2.6
		s1,0.8,1.9,0.8s1.6-0.3,2-0.9c0.4-0.6,0.7-1.5,0.7-2.5v-5.1h0.8v8.9h-0.7V490.2z"/>
	<path class="st5" d="M391.3,489.8v-0.9c0.3,0.3,0.6,0.4,1.1,0.6s0.8,0.2,1.1,0.2c1.5,0,2.1-0.6,2.1-1.8c0-0.4-0.1-0.7-0.4-1
		c-0.3-0.3-0.8-0.5-1.6-0.8c-0.8-0.4-1.5-0.7-1.8-1.1c-0.3-0.4-0.5-0.9-0.5-1.5c0-0.7,0.3-1.3,0.8-1.8c0.5-0.4,1.2-0.6,2.1-0.6
		c0.7,0,1.5,0.2,2,0.5v0.9c-0.6-0.4-1.3-0.6-2.1-0.6c-0.6,0-1,0.1-1.5,0.4c-0.4,0.3-0.5,0.7-0.5,1.2c0,0.4,0.1,0.7,0.3,1
		s0.7,0.5,1.6,0.9c0.9,0.4,1.6,0.8,2,1.1s0.5,0.8,0.5,1.5c0,0.7-0.3,1.2-0.8,1.8c-0.5,0.5-1.2,0.7-2.2,0.7
		C392.7,490.4,392,490.2,391.3,489.8z"/>
	<path class="st5" d="M398.9,485.8c0,1.2,0.3,2.2,0.8,2.9s1.3,1,2.4,1c1,0,2-0.4,2.9-1.1v0.8c-0.9,0.6-2,1-3.1,1s-2.1-0.4-2.8-1.2
		s-1-2-1-3.5c0-1.3,0.4-2.4,1.1-3.3c0.7-0.9,1.8-1.3,2.9-1.3s2,0.4,2.6,1.1s0.9,1.9,0.9,3.2v0.3h-6.7V485.8z M404.7,485
		c0-1-0.3-1.9-0.7-2.4c-0.4-0.5-1.1-0.8-1.9-0.8c-0.8,0-1.6,0.3-2.1,0.8c-0.5,0.5-0.9,1.3-1,2.4H404.7z"/>
	<path class="st5" d="M411.3,478.4v11.7h-0.8v-11.7h-3.6v-0.8h8.1v0.8H411.3z"/>
	<path class="st5" d="M417.8,490.4c-1.3,0-2.4-0.4-3.1-1.2s-1.1-2-1.1-3.3c0-1.5,0.4-2.7,1.2-3.5c0.8-0.8,1.9-1.2,3.1-1.2
		c1.2,0,2.3,0.4,3,1.2c0.7,0.8,1.1,2,1.1,3.4c0,1.3-0.4,2.5-1.1,3.4C420.1,490.1,419,490.4,417.8,490.4z M417.8,481.7
		c-1,0-1.9,0.3-2.5,1s-0.9,1.7-0.9,3c0,1.1,0.3,2.1,0.9,2.8s1.5,1,2.5,1c1,0,1.9-0.3,2.5-1c0.6-0.7,0.8-1.7,0.8-2.9
		s-0.3-2.3-0.8-2.9C419.7,482.1,418.9,481.7,417.8,481.7z"/>
	<path class="st5" d="M429.3,490.2l-4.2-4.5l0,0v4.5h-0.8V477h0.8v8.5l0,0l4-4.2h1l-4.2,4.4l4.6,4.7L429.3,490.2L429.3,490.2z"/>
	<path class="st5" d="M432.4,485.8c0,1.2,0.3,2.2,0.8,2.9c0.5,0.7,1.3,1,2.4,1c1,0,2-0.4,2.9-1.1v0.8c-0.9,0.6-2,1-3.1,1
		s-2.1-0.4-2.8-1.2s-1-2-1-3.5c0-1.3,0.4-2.4,1.1-3.3c0.7-0.9,1.8-1.3,2.9-1.3s2,0.4,2.6,1.1c0.6,0.7,0.9,1.9,0.9,3.2v0.3h-6.7
		V485.8z M438.1,485c0-1-0.3-1.9-0.7-2.4c-0.4-0.5-1.1-0.8-1.9-0.8c-0.8,0-1.6,0.3-2.1,0.8c-0.5,0.5-0.9,1.3-1,2.4H438.1z"/>
	<path class="st5" d="M447.3,490.2V485c0-2.2-0.7-3.2-2.3-3.2c-0.8,0-1.6,0.3-2.2,0.9c-0.6,0.6-0.8,1.5-0.8,2.4v5.2h-0.8v-8.9h0.8
		v1.7l0,0c0.6-1.2,1.7-1.9,3.1-1.9c0.9,0,1.7,0.3,2.2,0.9s0.7,1.6,0.7,2.8v5.5h-0.7V490.2z"/>
	<path class="st5" d="M464.9,489.3c-1.3,0.7-2.6,1.1-4,1.1c-1.7,0-3.1-0.6-4.1-1.8c-1-1.1-1.6-2.7-1.6-4.6s0.5-3.5,1.7-4.8
		c1.1-1.2,2.7-1.9,4.6-1.9c1.1,0,2.2,0.2,3.2,0.6v0.9c-1.1-0.5-2.3-0.8-3.3-0.8c-1.6,0-2.9,0.5-3.8,1.7s-1.5,2.5-1.5,4.1
		c0,1.8,0.4,3.1,1.3,4.1c0.9,1,2.1,1.5,3.6,1.5c1.1,0,2.1-0.2,3-0.7v-4.1h-2.9v-0.8h3.8V489.3z"/>
	<path class="st5" d="M467.6,490.2V477h0.8v13.3H467.6z"/>
	<path class="st5" d="M474.9,490.4c-1.3,0-2.4-0.4-3.1-1.2s-1.1-2-1.1-3.3c0-1.5,0.4-2.7,1.2-3.5c0.8-0.8,1.9-1.2,3.1-1.2
		c1.2,0,2.3,0.4,3,1.2c0.7,0.8,1.1,2,1.1,3.4c0,1.3-0.4,2.5-1.1,3.4C477.2,490.1,476.2,490.4,474.9,490.4z M475,481.7
		c-1,0-1.9,0.3-2.5,1c-0.6,0.7-0.9,1.7-0.9,3c0,1.1,0.3,2.1,0.9,2.8c0.6,0.7,1.5,1,2.5,1c1,0,1.9-0.3,2.5-1s0.8-1.7,0.8-2.9
		s-0.3-2.3-0.8-2.9C476.9,482.1,476,481.7,475,481.7z"/>
	<path class="st5" d="M482.2,488.6L482.2,488.6v1.6h-0.8v-13.3h0.8v6.1l0,0c0.3-0.6,0.8-1.1,1.3-1.6s1.2-0.5,2-0.5
		c1.1,0,2.1,0.4,2.7,1.1c0.6,0.7,0.9,1.9,0.9,3.2c0,1.5-0.4,2.7-1.1,3.6c-0.7,0.9-1.7,1.3-2.9,1.3
		C483.9,490.4,482.8,489.8,482.2,488.6z M482.1,485.2v1.1c0,0.9,0.3,1.7,0.8,2.3c0.5,0.6,1.3,0.9,2.3,0.9s1.7-0.4,2.2-1.1
		s0.8-1.9,0.8-3.1c0-1.1-0.3-2-0.8-2.7c-0.5-0.7-1.2-1-2.1-1c-1,0-1.9,0.3-2.4,1C482.4,483.4,482.1,484.3,482.1,485.2z"/>
	<path class="st5" d="M496.7,490.2v-1.8l0,0c-0.3,0.6-0.7,1.1-1.2,1.5c-0.5,0.3-1.1,0.5-1.9,0.5c-0.8,0-1.6-0.2-2.1-0.7
		s-0.7-1-0.7-1.8c0-1.6,1-2.5,3.1-2.8l2.8-0.4c0-2-0.7-2.9-2.2-2.9c-0.9,0-2,0.4-2.9,1.1V482c0.3-0.3,0.8-0.5,1.3-0.7
		c0.5-0.2,1.1-0.3,1.7-0.3c0.9,0,1.7,0.3,2.2,0.8c0.5,0.5,0.7,1.5,0.7,2.5v5.8h-0.8V490.2z M494.2,485.7c-0.9,0.1-1.6,0.3-2,0.6
		s-0.6,0.8-0.6,1.5c0,0.5,0.2,0.9,0.5,1.3c0.3,0.4,0.8,0.5,1.5,0.5c0.8,0,1.6-0.3,2.2-0.9c0.6-0.6,0.8-1.5,0.8-2.5v-0.8L494.2,485.7
		z"/>
	<path class="st5" d="M500.2,490.2V477h0.8v13.3H500.2z"/>
	<path class="st5" d="M504.9,485.1v5.1h-0.8v-12.5h3c1.2,0,2.3,0.3,3,0.9c0.7,0.6,1,1.5,1,2.6s-0.4,2.1-1.1,2.9
		c-0.7,0.8-1.9,1.1-3.2,1.1h-1.9V485.1z M504.9,478.4v5.9h1.8c1.1,0,2-0.3,2.6-0.8c0.6-0.5,0.9-1.3,0.9-2.3c0-1.9-1-2.8-3.2-2.8
		H504.9z"/>
	<path class="st5" d="M517.9,482c-0.3-0.2-0.6-0.3-0.9-0.3c-0.7,0-1.3,0.4-1.8,1.1c-0.4,0.7-0.7,1.8-0.7,3.1v4.2h-0.8v-8.9h0.8v2
		l0,0c0.2-0.7,0.5-1.2,0.9-1.6c0.4-0.3,0.9-0.6,1.6-0.6c0.3,0,0.6,0.1,0.9,0.2V482z"/>
	<path class="st5" d="M522.8,490.4c-1.3,0-2.4-0.4-3.1-1.2s-1.1-2-1.1-3.3c0-1.5,0.4-2.7,1.2-3.5c0.8-0.8,1.9-1.2,3.1-1.2
		s2.3,0.4,3,1.2s1.1,2,1.1,3.4c0,1.3-0.4,2.5-1.1,3.4C525.2,490.1,524.1,490.4,522.8,490.4z M522.8,481.7c-1,0-1.9,0.3-2.5,1
		s-0.9,1.7-0.9,3c0,1.1,0.3,2.1,0.9,2.8s1.5,1,2.5,1c1,0,1.9-0.3,2.5-1s0.8-1.7,0.8-2.9s-0.3-2.3-0.8-2.9
		C524.8,482.1,523.9,481.7,522.8,481.7z"/>
	<path class="st5" d="M530.1,488.6L530.1,488.6v5.7h-0.8v-13.1h0.8v1.9l0,0c0.3-0.6,0.8-1.1,1.3-1.6c0.5-0.4,1.2-0.5,2-0.5
		c1.1,0,2.1,0.4,2.7,1.1c0.6,0.7,0.9,1.9,0.9,3.2c0,1.5-0.4,2.7-1.1,3.6s-1.7,1.3-2.9,1.3C531.7,490.4,530.7,489.8,530.1,488.6z
		 M530.1,485.2v1.1c0,0.9,0.3,1.7,0.8,2.3c0.5,0.6,1.3,0.9,2.3,0.9c0.9,0,1.7-0.4,2.2-1.1c0.5-0.7,0.8-1.9,0.8-3.1
		c0-1.1-0.3-2-0.8-2.7c-0.5-0.7-1.2-1-2.1-1c-1,0-1.9,0.3-2.4,1C530.4,483.4,530.1,484.3,530.1,485.2z"/>
	<path class="st5" d="M539.5,485.8c0,1.2,0.3,2.2,0.8,2.9c0.5,0.7,1.3,1,2.4,1s2-0.4,2.9-1.1v0.8c-0.9,0.6-2,1-3.1,1
		s-2.1-0.4-2.8-1.2s-1-2-1-3.5c0-1.3,0.4-2.4,1.1-3.3s1.8-1.3,2.9-1.3s2,0.4,2.6,1.1c0.6,0.7,0.9,1.9,0.9,3.2v0.3h-6.7V485.8z
		 M545.2,485c0-1-0.3-1.9-0.7-2.4c-0.4-0.5-1.1-0.8-1.9-0.8c-0.8,0-1.6,0.3-2.1,0.8c-0.5,0.5-0.9,1.3-1,2.4H545.2z"/>
	<path class="st5" d="M552.6,482c-0.3-0.2-0.6-0.3-0.9-0.3c-0.7,0-1.3,0.4-1.8,1.1c-0.4,0.7-0.7,1.8-0.7,3.1v4.2h-0.8v-8.9h0.8v2
		l0,0c0.2-0.7,0.5-1.2,0.9-1.6c0.4-0.3,0.9-0.6,1.6-0.6c0.3,0,0.6,0.1,0.9,0.2V482z"/>
	<path class="st5" d="M558.6,490c-0.4,0.2-0.8,0.3-1.1,0.3c-1.3,0-2-0.8-2-2.4v-6h-1.7v-0.7h1.7v-2.3c0.1,0,0.2-0.1,0.4-0.1
		c0.2,0,0.3-0.1,0.4-0.1v2.6h2.4v0.7h-2.4v5.9c0,0.6,0.1,1,0.3,1.3c0.2,0.3,0.5,0.4,1,0.4c0.3,0,0.7-0.1,1-0.3v0.6H558.6z"/>
	<path class="st5" d="M562.5,492c-0.3,0.8-0.7,1.5-1,1.8c-0.3,0.3-0.9,0.6-1.6,0.6c-0.3,0-0.5,0-0.7-0.1v-0.8
		c0.2,0.1,0.4,0.1,0.7,0.1c0.7,0,1.2-0.5,1.7-1.5l0.8-2l-3.4-8.9h0.9l2.7,7.3c0.1,0.2,0.1,0.3,0.1,0.3c0,0.1,0,0.2,0.1,0.3l0,0
		l0.2-0.6l2.9-7.4h0.8L562.5,492z"/>
	<path class="st5" d="M574.4,478.4v5.1h4.7v0.8h-4.7v5.8h-0.8v-12.5h5.8v0.8H574.4z"/>
	<path class="st5" d="M587.6,490.2v-1.7l0,0c-0.6,1.2-1.6,1.9-2.9,1.9c-2.1,0-3.2-1.3-3.2-4v-5.2h0.8v5c0,1.2,0.2,2.1,0.6,2.6
		s1,0.8,1.9,0.8s1.6-0.3,2-0.9s0.7-1.5,0.7-2.5v-5.1h0.8v8.9h-0.7V490.2z"/>
	<path class="st5" d="M597.3,490.2V485c0-2.2-0.7-3.2-2.3-3.2c-0.8,0-1.6,0.3-2.2,0.9c-0.6,0.6-0.8,1.5-0.8,2.4v5.2h-0.8v-8.9h0.8
		v1.7l0,0c0.6-1.2,1.7-1.9,3.1-1.9c0.9,0,1.7,0.3,2.2,0.9s0.7,1.6,0.7,2.8v5.5h-0.7V490.2z"/>
	<path class="st5" d="M607.2,490.2v-1.7l0,0c-0.3,0.5-0.7,1-1.3,1.3c-0.6,0.3-1.2,0.5-2,0.5c-1.1,0-2-0.4-2.7-1.2s-1-1.9-1-3.3
		c0-1.5,0.4-2.6,1.1-3.5s1.8-1.3,3-1.3c1.3,0,2.3,0.5,2.9,1.7l0,0V477h0.8v13.3H607.2L607.2,490.2z M607.2,484.7
		c0-0.8-0.3-1.6-0.8-2.1c-0.5-0.5-1.2-0.8-2.2-0.8c-0.9,0-1.8,0.3-2.3,1c-0.5,0.7-0.9,1.7-0.9,3c0,1.2,0.3,2.2,0.8,2.9
		c0.5,0.7,1.2,1,2.2,1c1,0,1.8-0.3,2.4-0.9c0.6-0.6,0.8-1.5,0.8-2.3L607.2,484.7L607.2,484.7z"/>
	<path class="st5" d="M414,516.9c-1.8-2.1-2.7-4.6-2.7-7.7c0-3.1,0.9-5.7,2.7-7.8h0.8c-1.9,2.1-2.7,4.7-2.7,7.8
		c0,2.9,0.9,5.5,2.7,7.7H414z"/>
	<path class="st5" d="M416.7,514.1v-12.5h0.8v11.7h5.1v0.8H416.7z"/>
	<path class="st5" d="M430.7,514.1v-1.7l0,0c-0.6,1.2-1.6,1.9-2.9,1.9c-2.1,0-3.2-1.3-3.2-4V505h0.8v5c0,1.2,0.2,2.1,0.6,2.6
		s1,0.8,1.9,0.8c0.8,0,1.6-0.3,2-0.9c0.4-0.6,0.7-1.5,0.7-2.5v-5.1h0.8v8.9h-0.7V514.1z"/>
	<path class="st5" d="M437.1,509.6l2.9,4.4h-1l-2.4-3.7l0,0l-0.3,0.5c0,0.1-0.1,0.1-0.1,0.2l-2,3h-0.9l3-4.4l-2.9-4.6h0.9l2,3.2
		c0.3,0.4,0.4,0.6,0.4,0.7l0,0l0.4-0.7l2.1-3.2h0.9L437.1,509.6z"/>
	<path class="st5" d="M442.1,509.6c0,1.2,0.3,2.2,0.8,2.9c0.5,0.7,1.3,1,2.4,1c1,0,2-0.4,2.9-1.1v0.8c-0.9,0.6-2,1-3.1,1
		s-2.1-0.4-2.8-1.2c-0.7-0.8-1-2-1-3.5c0-1.3,0.4-2.4,1.1-3.3s1.8-1.3,2.9-1.3s2,0.4,2.6,1.1s0.9,1.9,0.9,3.2v0.3h-6.7V509.6z
		 M447.8,508.9c0-1-0.3-1.9-0.7-2.4s-1.1-0.8-1.9-0.8c-0.8,0-1.6,0.3-2.1,0.8s-0.9,1.3-1,2.4H447.8z"/>
	<path class="st5" d="M462.1,514.1v-5.4c0-1.1-0.2-2-0.5-2.4c-0.3-0.4-0.9-0.7-1.7-0.7c-0.7,0-1.3,0.3-1.9,0.9
		c-0.5,0.6-0.7,1.3-0.7,2.3v5.3h-0.8v-5.5c0-2-0.7-3-2.3-3c-0.7,0-1.3,0.3-1.9,0.9c-0.5,0.6-0.7,1.3-0.7,2.4v5.2h-0.8v-8.9h0.8v1.5
		l0,0c0.6-1.1,1.6-1.7,2.7-1.7c0.6,0,1.2,0.2,1.7,0.5s0.8,0.8,0.9,1.5c0.3-0.6,0.7-1.1,1.2-1.6c0.5-0.4,1-0.5,1.7-0.5
		c2,0,2.9,1.2,2.9,3.6v5.5h-0.6V514.1z"/>
	<path class="st5" d="M466.5,512.4L466.5,512.4v1.6h-0.8v-13.3h0.8v6.1l0,0c0.3-0.6,0.8-1.1,1.3-1.6s1.2-0.5,2-0.5
		c1.1,0,2.1,0.4,2.7,1.1c0.6,0.7,0.9,1.9,0.9,3.2c0,1.5-0.4,2.7-1.1,3.6c-0.7,0.9-1.7,1.3-2.9,1.3
		C468.1,514.3,467.1,513.6,466.5,512.4z M466.5,509.1v1.1c0,0.9,0.3,1.7,0.8,2.3c0.5,0.6,1.3,0.9,2.3,0.9s1.7-0.4,2.2-1.1
		c0.5-0.7,0.8-1.9,0.8-3.1c0-1.1-0.3-2-0.8-2.7c-0.5-0.7-1.2-1-2.1-1c-1,0-1.9,0.3-2.4,1C466.8,507.2,466.5,508.1,466.5,509.1z"/>
	<path class="st5" d="M479.3,514.3c-1.3,0-2.4-0.4-3.1-1.2c-0.7-0.8-1.1-2-1.1-3.3c0-1.5,0.4-2.7,1.2-3.5c0.8-0.8,1.9-1.2,3.1-1.2
		c1.2,0,2.3,0.4,3,1.2s1.1,2,1.1,3.4c0,1.3-0.4,2.5-1.1,3.4S480.6,514.3,479.3,514.3z M479.3,505.6c-1,0-1.9,0.3-2.5,1
		c-0.6,0.7-0.9,1.7-0.9,3c0,1.1,0.3,2.1,0.9,2.8c0.6,0.7,1.5,1,2.5,1c1,0,1.9-0.3,2.5-1c0.6-0.7,0.8-1.7,0.8-2.9s-0.3-2.3-0.8-2.9
		C481.3,506,480.3,505.6,479.3,505.6z"/>
	<path class="st5" d="M491.6,514.1v-1.7l0,0c-0.6,1.2-1.6,1.9-2.9,1.9c-2.1,0-3.2-1.3-3.2-4V505h0.8v5c0,1.2,0.2,2.1,0.6,2.6
		s1,0.8,1.9,0.8c0.8,0,1.6-0.3,2-0.9c0.4-0.6,0.7-1.5,0.7-2.5v-5.1h0.8v8.9h-0.7V514.1z"/>
	<path class="st5" d="M499.5,505.9c-0.3-0.2-0.6-0.3-0.9-0.3c-0.7,0-1.3,0.4-1.8,1.1s-0.7,1.8-0.7,3.1v4.2h-0.8v-8.9h0.8v2l0,0
		c0.2-0.7,0.5-1.2,0.9-1.6s0.9-0.6,1.6-0.6c0.3,0,0.6,0.1,0.9,0.2L499.5,505.9L499.5,505.9z"/>
	<path class="st5" d="M508,513.3c0,1.7-0.4,2.9-1.1,3.7c-0.7,0.8-1.9,1.1-3.4,1.1c-0.8,0-1.8-0.2-2.7-0.7v-0.8
		c0.9,0.5,1.9,0.8,2.7,0.8c2.5,0,3.7-1.3,3.7-3.9v-1.1l0,0c-0.7,1.2-1.8,1.9-3.2,1.9c-1.1,0-2-0.4-2.7-1.2c-0.7-0.8-1-1.9-1-3.3
		c0-1.5,0.4-2.6,1.1-3.5s1.8-1.3,3-1.3c1.3,0,2.3,0.5,2.9,1.7l0,0V505h0.8v8.3H508z M507.2,508.5c0-0.8-0.3-1.5-0.8-2.1
		s-1.2-0.8-2.1-0.8c-1,0-1.8,0.4-2.4,1.1c-0.6,0.7-0.9,1.8-0.9,2.9c0,1.2,0.3,2.2,0.8,2.9c0.5,0.7,1.2,1,2.2,1
		c0.9,0,1.8-0.3,2.3-0.9c0.5-0.6,0.8-1.3,0.8-2.3v-1.9H507.2z"/>
	<path class="st5" d="M524.1,514.1l-1.5-3.9h-5.4l-1.5,3.9h-0.9l4.8-12.5h0.8l4.7,12.5H524.1z M520.2,503.5
		c-0.1-0.2-0.1-0.3-0.1-0.5c0-0.1-0.1-0.3-0.1-0.4l0,0c-0.1,0.4-0.2,0.7-0.3,0.9l-2.1,5.8h4.9L520.2,503.5z"/>
	<path class="st5" d="M527.2,514.1v-12.5h0.8v12.5H527.2z"/>
	<path class="st5" d="M532.2,502.2v5.1h4.7v0.8h-4.7v5.8h-0.8v-12.5h5.8v0.8H532.2z"/>
	<path class="st5" d="M550.5,514.1v-8.9c0-0.2,0-0.8,0.1-1.9l0,0c-0.2,0.5-0.3,0.8-0.4,1.1l-4.5,9.6h-0.3l-4.5-9.6
		c-0.1-0.3-0.3-0.7-0.4-1.1l0,0c0,0.5,0.1,1.1,0.1,1.7v9.1h-0.8v-12.5h0.8l4.7,10.2c0,0.1,0.1,0.1,0.1,0.2s0.1,0.2,0.1,0.3
		c0.1,0.1,0.1,0.3,0.2,0.5h0.1l0.1-0.3c0,0,0.1-0.3,0.3-0.8l4.6-10.1h0.7v12.5H550.5z"/>
	<path class="st5" d="M554,516.9h-0.8c1.8-2.2,2.7-4.8,2.7-7.7c0-3.1-0.9-5.7-2.7-7.8h0.8c1.8,2.1,2.7,4.7,2.7,7.8
		C556.7,512.3,555.8,514.8,554,516.9z"/>
</g>
</svg>
