<?xml version="1.0" encoding="utf-8"?>
<!-- Generator: Adobe Illustrator 23.0.0, SVG Export Plug-In . SVG Version: 6.00 Build 0)  -->
<svg version="1.1" id="运作原理" xmlns="http://www.w3.org/2000/svg" xmlns:xlink="http://www.w3.org/1999/xlink" x="0px"
	 y="0px" viewBox="0 0 705 383" style="enable-background:new 0 0 705 383;" xml:space="preserve">
<style type="text/css">
	.st0{fill:none;stroke:#90A7AB;}
	.st1{fill:none;stroke:#70DBCB;}
	.st2{fill:#9FE7DD;stroke:#34B9A1;stroke-width:2;}
	.st3{enable-background:new    ;}
	.st4{fill:#456E68;}
	.st5{fill:none;stroke:#456E68;stroke-width:1.5;stroke-miterlimit:10;}
	.st6{fill:#70DBCB;}
</style>
<path id="形状_1_拷贝_3" class="st0" d="M63.1,175.9l0.1,71.4l4.6-2"/>
<path id="形状_1_拷贝_5" class="st0" d="M622,153l-0.1-71l-4.6,2"/>
<path id="形状_1" class="st0" d="M108,89h90.5l42.5,42.5l-0.3-5.5"/>
<path id="形状_1_拷贝_2" class="st0" d="M240.7,162h-90.2l-42.4-42.9l0.3,5.6"/>
<path id="形状_1_拷贝" class="st0" d="M560,201h-88.4L430,242.3l0.3-5.4"/>
<path id="形状_1_拷贝_4" class="st0" d="M430.3,272h88.2l41.4-41.7l-0.3,5.4"/>
<circle id="椭圆_7-2" class="st1" cx="487.3" cy="167" r="19"/>
<circle id="椭圆_6" class="st2" cx="339" cy="187" r="94"/>
<g class="st3">
	<path class="st4" d="M646.4,186.4H638v8.4h8.4V186.4z M643.6,192h-2.8v-2.8h2.8V192z"/>
	<path class="st4" d="M657.6,186.4h-8.4v8.4h8.4V186.4z M654.8,192H652v-2.8h2.8V192z"/>
	<path class="st4" d="M646.4,197.6H638v8.4h8.4V197.6z M643.6,203.2h-2.8v-2.8h2.8V203.2z"/>
	<path class="st4" d="M657.6,197.6h-8.4v8.4h8.4V197.6z M654.8,203.2H652v-2.8h2.8V203.2z"/>
	<path class="st4" d="M646.4,217.2v-8.4H638v8.4H646.4z M640.8,211.6h2.8v2.8h-2.8V211.6z"/>
	<path class="st4" d="M657.6,208.8h-8.4v8.4h8.4V208.8z M654.8,214.4H652v-2.8h2.8V214.4z"/>
	<path class="st4" d="M666,183.6v-2.8h-2.8v-5.6h-2.8v-5.6h-25.2v5.6h-2.8v5.6h-2.8v2.8h2.8V220h-11.2v-16.8h2.8v-8.4h-2.8v-2.1
		l-19.6-13.6l-8.4,5.8v-4.3h-8.4v10.1l-2.8,1.9v2.1h-2.8v8.4h2.8v17.1c-1.6,0.6-2.8,2.1-2.8,3.9v2.8c0,2.3,1.9,4.2,4.2,4.2h27.3
		c-2.2,2.7-3.5,6.1-3.5,9.8c0,8.5,6.9,15.4,15.4,15.4S638,249.5,638,241c0-3.7-1.3-7.1-3.5-9.8h27.3c2.3,0,4.2-1.9,4.2-4.2v-2.8
		c0-1.8-1.2-3.4-2.8-3.9v-36.7H666z M638,172.4h19.6v2.8H638V172.4z M635.2,178h25.2v2.8h-25.2V178z M587.6,183.4h2.8v3.5l-2.8,1.9
		V183.4z M584.8,194.2l16.8-11.6l16.8,11.6v0.7h-33.6V194.2z M582,197.6h39.2v2.8H582V197.6z M618.4,203.2V220h-11.2v-14H596v14
		h-11.2v-16.8H618.4z M604.4,220h-5.6v-11.2h5.6V220z M622.6,253.6c-6.9,0-12.6-5.7-12.6-12.6c0-6.9,5.7-12.6,12.6-12.6
		s12.6,5.7,12.6,12.6C635.2,248,629.6,253.6,622.6,253.6z M663.2,227c0,0.8-0.6,1.4-1.4,1.4h-30.4c-2.5-1.8-5.5-2.8-8.8-2.8
		s-6.3,1-8.8,2.8h-30.4c-0.8,0-1.4-0.6-1.4-1.4v-2.8c0-0.8,0.6-1.4,1.4-1.4h78.4c0.8,0,1.4,0.6,1.4,1.4V227z M660.4,220h-25.2v-36.4
		h25.2V220z"/>
</g>
<g class="st3">
	<g>
		<g>
			<path class="st4" d="M96.5,278.4H86.4c1-0.8,1.6-1.9,1.6-3.2c0-2.3-1.8-4.1-4.1-4.1s-4.1,1.8-4.1,4.1c0,0.7,0.2,1.3,0.5,1.9
				l-1.5,1.3H58.9c-0.6-1.5-2.1-2.5-3.8-2.5s-3.2,1-3.8,2.5H29c-1.8,0-3.3,1.5-3.3,3.3v8c0,0.6,0.5,1.1,1.1,1.1s1.1-0.5,1.1-1.1v-8
				c0-0.6,0.5-1.1,1.1-1.1h22c0.1,0.4,0.2,0.8,0.3,1.2l-9.1,8.3c-0.6-0.4-1.4-0.7-2.2-0.7c-2.3,0-4.1,1.8-4.1,4.1s1.8,4.1,4.1,4.1
				s4.1-1.8,4.1-4.1c0-0.7-0.2-1.3-0.4-1.8l9.1-8.3c0.7,0.5,1.5,0.7,2.3,0.7c1.2,0,2.2-0.5,3-1.3l7.4,4.4c-0.1,0.3-0.1,0.5-0.1,0.8
				c0,2.3,1.8,4.1,4.1,4.1s4.1-1.8,4.1-4.1c0-0.6-0.1-1.2-0.4-1.7l6.4-5.8h16.9c0.6,0,1.1,0.5,1.1,1.1v26.8c0,0.6,0.5,1.1,1.1,1.1
				s1.1-0.5,1.1-1.1v-26.8C99.8,279.8,98.3,278.4,96.5,278.4z M40,295.4c-1.1,0-1.9-0.9-1.9-1.9c0-1.1,0.9-1.9,1.9-1.9
				s1.9,0.9,1.9,1.9S41.1,295.4,40,295.4z M55.1,281.9c-1.1,0-1.9-0.9-1.9-1.9c0-1.1,0.9-1.9,1.9-1.9S57,279,57,280
				S56.2,281.9,55.1,281.9z M69.5,290c-1.1,0-1.9-0.9-1.9-1.9c0-1.1,0.9-1.9,1.9-1.9s1.9,0.9,1.9,1.9C71.5,289.1,70.6,290,69.5,290z
				 M71.9,284.7c-0.7-0.5-1.5-0.8-2.4-0.8c-1.2,0-2.3,0.5-3.1,1.4l-7.3-4.4c0-0.1,0.1-0.3,0.1-0.4h17.2L71.9,284.7z M83.9,277.1
				c-1.1,0-1.9-0.9-1.9-1.9s0.9-1.9,1.9-1.9s1.9,0.9,1.9,1.9S85,277.1,83.9,277.1z"/>
		</g>
	</g>
	<g>
		<g>
			<path class="st4" d="M99.8,312.8c0-0.6-0.5-1.1-1.1-1.1s-1.1,0.5-1.1,1.1v8.2h-8v-25.7v-4.4v-4.5c0-0.6-0.5-1.1-1.1-1.1h-8.2
				c-0.6,0-1.1,0.5-1.1,1.1v4.5v4.4V321h-4.1v-5.5V311v-4.5c0-0.6-0.5-1.1-1.1-1.1h-8c-0.6,0-1.1,0.5-1.1,1.1v4.5v4.4v5.5h-4.1
				v-19.5V297v-4.5c0-0.6-0.5-1.1-1.1-1.1h-8.2c-0.6,0-1.1,0.5-1.1,1.1v4.5v4.4v6.1c0,0.6,0.5,1.1,1.1,1.1s1.1-0.5,1.1-1.1v-5h6
				v18.4h-6v-9.1c0-0.6-0.5-1.1-1.1-1.1s-1.1,0.5-1.1,1.1v9.1h-4.1v-5.5V311v-4.5c0-0.6-0.5-1.1-1.1-1.1H37c-0.6,0-1.1,0.5-1.1,1.1
				v4.5v4.4v5.5h-8.2v-27c0-0.6-0.5-1.1-1.1-1.1s-1.1,0.5-1.1,1.1v35.9c0,1.8,1.5,3.3,3.3,3.3h23.8l-0.6,5.4h-5
				c-0.6,0-1.1,0.5-1.1,1.1v3.8c0,0.6,0.5,1.1,1.1,1.1h31.5c0.6,0,1.1-0.5,1.1-1.1v-3.8c0-0.6-0.5-1.1-1.1-1.1h-5.2l-0.6-5.4h23.8
				c1.8,0,3.3-1.5,3.3-3.3V322l0,0V312.8L99.8,312.8z M81.5,287.4h6v2.3h-6V287.4z M81.5,291.9h6v2.3h-6V291.9z M81.5,296.3h6v24.6
				h-6V296.3z M67.1,307.6h6v2.3h-6V307.6z M67.1,312.1h6v2.3h-6V312.1z M67.1,316.5h6v4.4h-6V316.5z M52.7,295.9v-2.3h6v2.3H52.7z
				 M52.7,300.3V298h6v2.3H52.7z M38.3,307.6h6v2.3h-6V307.6z M38.3,312.1h6v2.3h-6V312.1z M38.3,316.5h6v4.4h-6V316.5z M77.5,340.7
				v1.6H48.1v-1.6H77.5z M54.3,338.5l0.6-5.4h15.6l0.6,5.4H54.3z M96.5,331H29c-0.6,0-1.1-0.5-1.1-1.1v-6.7h69.7v6.7l0,0
				C97.6,330.5,97.1,331,96.5,331z"/>
		</g>
	</g>
</g>
<g class="st3">
	<g>
		<g>
			<path class="st4" d="M601.9,25.6h-8.5c-0.6,0-1.1,0.5-1.1,1.1V31c0,0.6,0.5,1.1,1.1,1.1h8.5c0.6,0,1.1-0.5,1.1-1.1v-4.3
				C602.9,26.1,602.5,25.6,601.9,25.6z M596.5,29.9h-2.1v-2.1h2.1V29.9z M600.8,29.9h-2.1v-2.1h2.1V29.9z"/>
		</g>
	</g>
	<g>
		<g>
			<path class="st4" d="M601.9,34.1h-8.5c-0.6,0-1.1,0.5-1.1,1.1v4.3c0,0.6,0.5,1.1,1.1,1.1h8.5c0.6,0,1.1-0.5,1.1-1.1v-4.3
				C602.9,34.6,602.5,34.1,601.9,34.1z M596.5,38.4h-2.1v-2.1h2.1V38.4z M600.8,38.4h-2.1v-2.1h2.1V38.4z"/>
		</g>
	</g>
	<g>
		<g>
			<path class="st4" d="M601.9,42.7h-8.5c-0.6,0-1.1,0.5-1.1,1.1V48c0,0.6,0.5,1.1,1.1,1.1h8.5c0.6,0,1.1-0.5,1.1-1.1v-4.3
				C602.9,43.1,602.5,42.7,601.9,42.7z M596.5,46.9h-2.1v-2.1h2.1V46.9z M600.8,46.9h-2.1v-2.1h2.1V46.9z"/>
		</g>
	</g>
	<g>
		<g>
			<path class="st4" d="M640.3,25.6h-8.5c-0.6,0-1.1,0.5-1.1,1.1V31c0,0.6,0.5,1.1,1.1,1.1h8.5c0.6,0,1.1-0.5,1.1-1.1v-4.3
				C641.3,26.1,640.9,25.6,640.3,25.6z M634.9,29.9h-2.1v-2.1h2.1V29.9z M639.2,29.9h-2.1v-2.1h2.1V29.9z"/>
		</g>
	</g>
	<g>
		<g>
			<path class="st4" d="M640.3,17.1h-8.5c-0.6,0-1.1,0.5-1.1,1.1v4.3c0,0.6,0.5,1.1,1.1,1.1h8.5c0.6,0,1.1-0.5,1.1-1.1v-4.3
				C641.3,17.5,640.9,17.1,640.3,17.1z M634.9,21.3h-2.1v-2.1h2.1V21.3z M639.2,21.3h-2.1v-2.1h2.1V21.3z"/>
		</g>
	</g>
	<g>
		<g>
			<path class="st4" d="M614.7,29.9h-4.3c-0.6,0-1.1,0.5-1.1,1.1v4.3c0,0.6,0.5,1.1,1.1,1.1h4.3c0.6,0,1.1-0.5,1.1-1.1V31
				C615.7,30.3,615.3,29.9,614.7,29.9z M613.6,34.1h-2.1V32h2.1V34.1z"/>
		</g>
	</g>
	<g>
		<g>
			<path class="st4" d="M623.2,29.9h-4.3c-0.6,0-1.1,0.5-1.1,1.1v4.3c0,0.6,0.5,1.1,1.1,1.1h4.3c0.6,0,1.1-0.5,1.1-1.1V31
				C624.3,30.3,623.8,29.9,623.2,29.9z M622.1,34.1H620V32h2.1V34.1z"/>
		</g>
	</g>
	<g>
		<g>
			<path class="st4" d="M614.7,21.3h-4.3c-0.6,0-1.1,0.5-1.1,1.1v4.3c0,0.6,0.5,1.1,1.1,1.1h4.3c0.6,0,1.1-0.5,1.1-1.1v-4.3
				C615.7,21.8,615.3,21.3,614.7,21.3z M613.6,25.6h-2.1v-2.1h2.1V25.6z"/>
		</g>
	</g>
	<g>
		<g>
			<path class="st4" d="M623.2,21.3h-4.3c-0.6,0-1.1,0.5-1.1,1.1v4.3c0,0.6,0.5,1.1,1.1,1.1h4.3c0.6,0,1.1-0.5,1.1-1.1v-4.3
				C624.3,21.8,623.8,21.3,623.2,21.3z M622.1,25.6H620v-2.1h2.1V25.6z"/>
		</g>
	</g>
	<g>
		<g>
			<path class="st4" d="M614.7,12.8h-4.3c-0.6,0-1.1,0.5-1.1,1.1v4.3c0,0.6,0.5,1.1,1.1,1.1h4.3c0.6,0,1.1-0.5,1.1-1.1v-4.3
				C615.7,13.3,615.3,12.8,614.7,12.8z M613.6,17.1h-2.1V15h2.1V17.1z"/>
		</g>
	</g>
	<g>
		<g>
			<path class="st4" d="M623.2,12.8h-4.3c-0.6,0-1.1,0.5-1.1,1.1v4.3c0,0.6,0.5,1.1,1.1,1.1h4.3c0.6,0,1.1-0.5,1.1-1.1v-4.3
				C624.3,13.3,623.8,12.8,623.2,12.8z M622.1,17.1H620V15h2.1V17.1z"/>
		</g>
	</g>
	<g>
		<g>
			<path class="st4" d="M614.7,42.7h-4.3c-0.6,0-1.1,0.5-1.1,1.1V48c0,0.6,0.5,1.1,1.1,1.1h4.3c0.6,0,1.1-0.5,1.1-1.1v-4.3
				C615.7,43.1,615.3,42.7,614.7,42.7z M613.6,46.9h-2.1v-2.1h2.1V46.9z"/>
		</g>
	</g>
	<g>
		<g>
			<rect x="592.3" y="51.2" class="st4" width="2.1" height="2.1"/>
		</g>
	</g>
	<g>
		<g>
			<rect x="596.5" y="51.2" class="st4" width="2.1" height="2.1"/>
		</g>
	</g>
	<g>
		<g>
			<rect x="600.8" y="51.2" class="st4" width="2.1" height="2.1"/>
		</g>
	</g>
	<g>
		<g>
			<path class="st4" d="M650.9,38.4h-5.3V13.9c0-0.6-0.5-1.1-1.1-1.1H637v-1.7l1.1-1.1c0.9,0.7,2,1.1,3.1,1.1c1.4,0,2.7-0.5,3.7-1.5
				l0.2-0.2c0.4-0.4,0.4-1.1,0-1.5l-2.4-2.4l2.4-2.4l-1.5-1.5L641.2,4l-3.5-3.5c-0.2-0.2-0.5-0.3-0.8-0.3c-0.4,0-0.7,0.2-0.9,0.4
				c-1.1,1-1.7,2.3-1.7,3.7s0.5,2.9,1.6,3.9l0.5,0.5l-1.4,1.4c-0.2,0.2-0.3,0.5-0.3,0.8V13h-6.4V9.6c0-0.6-0.5-1.1-1.1-1.1h-3.7
				l-6.1-8.1c-0.4-0.5-1.3-0.5-1.7,0l-6.1,8.1h-3.7c-0.6,0-1.1,0.5-1.1,1.1v11.7h-6.4v-8.5h-2.1v8.5h-7.5c-0.6,0-1.1,0.5-1.1,1.1
				v40.5c0,0.6,0.5,1.1,1.1,1.1h17.1h7.5h8.5h1.1h6.4h17.1c2.9,0,5.3-2.4,5.3-5.3V39.5C652,38.9,651.5,38.4,650.9,38.4z M605.1,61.9
				h-14.9V23.5h14.9V61.9z M637.1,2.6l5.8,5.8c-1.2,0.7-2.8,0.6-3.9-0.5l-1.5-1.5c-0.6-0.6-1-1.4-0.9-2.3
				C636.7,3.6,636.8,3.1,637.1,2.6z M616.8,2.8l4.3,5.7h-8.5L616.8,2.8z M612.5,53.3v8.5h-5.3V22.4V10.7h19.2v3.2v19.2h2.1V14.9
				h14.9v23.5h-2.1v-1.1c0-1.8-1.4-3.2-3.2-3.2h-6.4c-1.8,0-3.2,1.4-3.2,3.2v1.1h-9.6c-0.6,0-1.1,0.5-1.1,1.1v11.7h-8.5v2.1H612.5z
				 M639.2,37.3v1.1h-8.5v-1.1c0-0.6,0.5-1.1,1.1-1.1h6.4C638.7,36.3,639.2,36.7,639.2,37.3z M614.7,61.9v-8.5h3.2v5.3
				c0,1.2,0.4,2.3,1.1,3.2H614.7z M649.9,58.7c0,1.8-1.4,3.2-3.2,3.2h-17.1h-6.4c-1.8,0-3.2-1.4-3.2-3.2V48c0.9,0.7,2,1.1,3.2,1.1
				h1.1v3.2c0,0.6,0.5,1.1,1.1,1.1h4.3c0.6,0,1.1-0.5,1.1-1.1v-3.2h1.1h6.4h1.1v3.2c0,0.6,0.5,1.1,1.1,1.1h4.3
				c0.6,0,1.1-0.5,1.1-1.1v-3.2h1.1c1.2,0,2.3-0.4,3.2-1.1v10.7H649.9z M626.4,51.2v-2.1h2.1v2.1H626.4z M632.8,46.9v-2.1h4.3v2.1
				H632.8z M641.3,51.2v-2.1h2.1v2.1H641.3z M649.9,43.7c0,1.8-1.4,3.2-3.2,3.2h-2.1h-4.3h-1.1v-3.2c0-0.6-0.5-1.1-1.1-1.1h-6.4
				c-0.6,0-1.1,0.5-1.1,1.1v3.2h-1.1h-4.3h-2.1c-1.8,0-3.2-1.4-3.2-3.2v-3.2h29.9L649.9,43.7L649.9,43.7z"/>
		</g>
	</g>
	<g>
		<g>
			<rect x="645.6" y="57.6" class="st4" width="2.1" height="2.1"/>
		</g>
	</g>
	<g>
		<g>
			<rect x="641.3" y="57.6" class="st4" width="2.1" height="2.1"/>
		</g>
	</g>
	<g>
		<g>
			<rect x="637.1" y="57.6" class="st4" width="2.1" height="2.1"/>
		</g>
	</g>
</g>
<g>
	<circle class="st5" cx="61.9" cy="57.5" r="16.8"/>
	<line class="st5" x1="48.4" y1="83.8" x2="61.9" y2="99.2"/>
	<line class="st5" x1="75" y1="83.8" x2="61.9" y2="99.2"/>
	<line class="st5" x1="61.9" y1="114.5" x2="61.9" y2="99.2"/>
	<path class="st5" d="M97.9,105.7v3.6c0,3.3-2.7,6-6,6H31.8c-3.3,0-6-2.7-6-6v-3.6"/>
	<path class="st5" d="M31.8,99.7"/>
	<path class="st5" d="M25.8,107.4c0-13.6,11.2-24,24.8-24h22.6c13.6,0,24.7,11.1,24.7,24.7l0,0"/>
</g>
<g id="椭圆_7_1_">
	<path class="st6" d="M487.1,186.5c-10.8,0-19.5-8.7-19.5-19.5s8.7-19.5,19.5-19.5s19.5,8.7,19.5,19.5S497.9,186.5,487.1,186.5z
		 M487.1,148.5c-10.2,0-18.5,8.3-18.5,18.5s8.3,18.5,18.5,18.5s18.5-8.3,18.5-18.5S497.3,148.5,487.1,148.5z"/>
</g>
<g>
	<g>
		<path class="st6" d="M481.4,176.6v-1.1c2.2-0.9,3.3-2.5,3.3-4.8v-2.8h-3v-1.2h3v-3.8c0-1.6,0.4-3,1.3-4s2-1.5,3.5-1.5
			c0.8,0,1.6,0.2,2.4,0.5v1.2c-0.8-0.4-1.6-0.6-2.4-0.6c-1.1,0-1.9,0.4-2.6,1.2c-0.6,0.8-0.9,1.9-0.9,3.4v3.6h4v1.2h-4v2.3
			c0,2.6-0.9,4.3-2.8,5.3h9.7v1.1L481.4,176.6L481.4,176.6z"/>
	</g>
</g>
<g id="椭圆_7-2_1_">
	<path class="st6" d="M195.3,209c-10.8,0-19.5-8.7-19.5-19.5s8.7-19.5,19.5-19.5s19.5,8.7,19.5,19.5S206,209,195.3,209z
		 M195.3,171.1c-10.2,0-18.5,8.3-18.5,18.5s8.3,18.5,18.5,18.5s18.5-8.3,18.5-18.5C213.8,179.3,205.5,171.1,195.3,171.1z"/>
</g>
<g>
	<g>
		<g>
			<path class="st6" d="M189.6,199.1V198c2.2-0.9,3.3-2.5,3.3-4.8v-2.8h-3v-1.2h3v-3.8c0-1.6,0.4-3,1.3-4c0.9-1,2-1.5,3.5-1.5
				c0.8,0,1.6,0.2,2.4,0.5v1.2c-0.8-0.4-1.6-0.6-2.4-0.6c-1.1,0-1.9,0.4-2.6,1.2c-0.6,0.8-0.9,1.9-0.9,3.4v3.6h4v1.2h-4v2.3
				c0,2.6-0.9,4.3-2.8,5.3h9.7v1.1L189.6,199.1L189.6,199.1z"/>
		</g>
	</g>
</g>
<g>
	<path class="st4" d="M617.2,248.8v-1.7c1.8-0.5,2.7-1.7,2.7-3.4v-2h-2.4V240h2.4v-2.8c0-1.4,0.4-2.5,1.3-3.4c0.9-0.9,2-1.4,3.3-1.4
		c0.9,0,1.8,0.1,2.5,0.5v1.9c-0.8-0.5-1.7-0.6-2.4-0.6c-1.8,0-2.7,1.1-2.7,3.3v2.5h3.6v1.7h-3.6v1.7c0,1.8-0.8,2.9-2.2,3.8h8.3v1.7
		h-10.8V248.8z"/>
</g>
<g>
	<path class="st4" d="M9.9,368.1H9c-0.9,0-1.6,0.1-2.3,0.2c-0.8,0.2-1.2,0.5-1.2,0.9c0,0.3,0.1,0.7,0.2,1.1s0.2,0.8,0.4,1.2
		c0.1,0.4,0.2,0.8,0.2,1.1c0,0.2,0,0.4,0,0.5c0,0.2-0.1,0.4-0.2,0.6c-0.1-0.4-0.3-0.9-0.4-1.3c-0.3-0.8-0.4-1.4-0.6-1.9
		c-0.2-0.7-0.3-1.1-0.3-1.2c0-0.7,0.1-1.2,0.4-1.5c0.3-0.4,0.7-0.6,1.3-0.8c0.5-0.1,1.1-0.3,2.1-0.3c-0.3-0.3-0.5-0.5-0.6-0.6
		c-0.3-0.2-0.5-0.3-0.8-0.3c-0.2,0-0.3,0.1-0.5,0.2c-0.1,0.1-0.3,0.2-0.5,0.4l-0.4-0.2c0.2-0.4,0.3-0.7,0.5-0.9
		c0.3-0.4,0.7-0.6,1.2-0.6c0.3,0,0.6,0.1,1,0.4c0.3,0.2,0.5,0.5,0.8,0.8c0.1,0.2,0.3,0.5,0.6,0.9V368.1z"/>
	<path class="st4" d="M18.3,368.1c0,1.2-0.3,2-1,2.6s-1.9,0.9-3.6,0.9c-1,0-1.8-0.2-2.4-0.5c-0.6-0.4-0.9-1-0.9-1.8
		c0-0.4,0.1-0.9,0.2-1.4s0.3-0.9,0.4-1.4c0.1-0.3,0.3-0.7,0.6-1.3l0.3,0.1c-0.4,0.8-0.6,1.3-0.7,1.8s-0.2,0.8-0.2,1.2
		c0,0.6,0.2,1.1,0.7,1.5s1.1,0.5,2,0.5c1,0,1.9-0.2,2.6-0.5c0.9-0.4,1.4-1,1.4-1.8c0-0.5-0.1-1-0.2-1.5c-0.1-0.4-0.3-0.8-0.6-1.1
		l0.6-1.6c0.3,0.4,0.5,0.9,0.6,1.3c0.1,0.4,0.2,1,0.2,1.7V368.1z M15.5,362.1l-0.6,1.1l-1.3-0.7l0.6-1.1L15.5,362.1z"/>
	<path class="st4" d="M35.9,368.1h-9.3c-0.2,1.1-0.5,1.9-1.1,2.4c-0.7,0.7-1.9,1-3.4,1c-1,0-1.8-0.2-2.4-0.5c-0.6-0.4-0.9-1-0.9-1.8
		c0-0.4,0.1-0.9,0.2-1.4c0.1-0.5,0.3-0.9,0.4-1.4c0.1-0.3,0.3-0.7,0.6-1.3l0.3,0.1c-0.4,0.8-0.6,1.3-0.7,1.8
		c-0.1,0.5-0.2,0.8-0.2,1.2c0,0.6,0.2,1.1,0.7,1.5s1.1,0.5,2,0.5c1,0,1.9-0.2,2.7-0.5c1-0.4,1.5-1,1.5-1.8c0-0.5-0.1-1-0.3-1.5
		c-0.2-0.4-0.4-0.7-0.6-1.1l0.6-1.6c0.3,0.4,0.4,0.8,0.5,1.1c0.1,0.5,0.2,1.1,0.2,1.9h0.1c0.6,0,1.2-0.1,1.7-0.3
		c0.5-0.2,0.9-0.4,1.4-0.8c0.8-0.5,1.2-0.9,1.4-1c0.4-0.3,0.8-0.5,1.1-0.6c0.4-0.1,0.8-0.2,1.3-0.2c0.7,0,1.2,0.2,1.6,0.6
		c0.3,0.4,0.5,0.9,0.5,1.6L35.9,368.1L35.9,368.1z M34.6,366.2c0-0.3-0.2-0.5-0.5-0.6s-0.7-0.2-1.1-0.2c-0.4,0-0.8,0.1-1.3,0.3
		c-0.3,0.1-0.7,0.3-1.3,0.6c-0.4,0.2-0.8,0.4-1.1,0.6h3.6c0.5,0,0.9-0.1,1.2-0.2S34.6,366.3,34.6,366.2z"/>
	<path class="st4" d="M37.8,361.5l-0.6,1.1l-1.3-0.7l0.6-1.1L37.8,361.5z M40.3,365.8c0,0.7-0.1,1.3-0.4,1.7c-0.4,0.6-1,0.9-2,0.9
		c-0.4,0-0.7-0.1-0.9-0.2c-0.3-0.2-0.4-0.4-0.4-0.7c0-0.4,0.1-0.8,0.3-1.3c0.2-0.4,0.3-0.8,0.5-1.2h-0.1l0.5-1.3
		c0.9,0.5,1.5,0.8,1.7,0.9C39.9,364.9,40.3,365.3,40.3,365.8z M39.6,366.4c0-0.2-0.3-0.5-0.9-0.8c-0.2-0.1-0.5-0.3-0.8-0.4
		c-0.2,0.3-0.4,0.4-0.4,0.5c-0.1,0.2-0.2,0.4-0.2,0.6c0,0.3,0.1,0.5,0.2,0.6s0.3,0.2,0.6,0.2s0.6-0.1,1-0.2S39.6,366.6,39.6,366.4z
		 M39.6,360.8l-0.6,1.1l-1.3-0.7l0.6-1.1L39.6,360.8z"/>
	<path class="st4" d="M47.5,366.1c0,0.4-0.1,0.8-0.2,1.2c-0.1,0.2-0.2,0.5-0.5,1l-0.1-0.1c0-0.2,0-0.3,0-0.5s0-0.3,0-0.4
		c0-0.5,0-1.3-0.1-2.3s-0.2-2-0.3-3c-0.1-0.6-0.2-1.3-0.2-2c0.1-0.2,0.2-0.5,0.4-0.7s0.3-0.5,0.4-0.8c0.1,0.6,0.2,1.4,0.3,2.4
		s0.2,2,0.3,2.8C47.5,364.8,47.5,365.6,47.5,366.1z"/>
	<path class="st4" d="M56.3,367.1c0,0.8-0.2,1.5-0.6,2c-0.3,0.4-0.9,0.7-1.5,0.9c-0.6,0.2-1.3,0.2-2.2,0.2c-1,0-1.8-0.2-2.3-0.6
		c-0.6-0.4-0.9-1-0.9-1.8c0-0.4,0.1-0.9,0.2-1.4c0.1-0.4,0.3-0.9,0.5-1.4c0.2-0.4,0.4-0.8,0.7-1.3l0.3,0.1c-0.2,0.3-0.4,0.7-0.5,0.9
		c-0.2,0.4-0.3,0.7-0.4,1c-0.1,0.4-0.1,0.7-0.1,1c0,0.6,0.2,1.1,0.7,1.5c0.5,0.3,1.1,0.5,1.9,0.5c0.9,0,1.7-0.2,2.4-0.5
		c0.8-0.3,1.2-0.7,1.2-1.2s-0.1-1.4-0.2-2.6c-0.1-0.9-0.3-2-0.5-3.1l-0.3-1.5l-0.4-0.2c0-0.7,0.1-1.3,0.4-1.9h0.1
		c0,0.2,0.1,0.3,0.1,0.4c0.1,0.1,0.1,0.2,0.3,0.2c0.2,0.1,0.3,0.1,0.5,0.2c0.1,0.1,0.3,0.1,0.4,0.2c0,0.4,0,0.6,0,0.8
		c0,0.2-0.1,0.4-0.2,0.7l-0.4-0.1c0,0.1,0.1,0.6,0.2,1.6c0.2,1.1,0.3,2,0.4,2.6C56.2,365.7,56.3,366.6,56.3,367.1z"/>
	<path class="st4" d="M73.9,368.1h-9.3c-0.2,1.1-0.5,1.9-1.1,2.4c-0.7,0.7-1.9,1-3.4,1c-1,0-1.8-0.2-2.4-0.5c-0.6-0.4-0.9-1-0.9-1.8
		c0-0.4,0.1-0.9,0.2-1.4s0.3-0.9,0.4-1.4c0.1-0.3,0.3-0.7,0.6-1.3l0.3,0.1c-0.4,0.8-0.6,1.3-0.7,1.8s-0.2,0.8-0.2,1.2
		c0,0.6,0.2,1.1,0.7,1.5s1.1,0.5,2,0.5c1,0,1.9-0.2,2.7-0.5c1-0.4,1.5-1,1.5-1.8c0-0.5-0.1-1-0.3-1.5c-0.2-0.4-0.4-0.7-0.6-1.1
		l0.6-1.6c0.3,0.4,0.4,0.8,0.5,1.1c0.1,0.5,0.2,1.1,0.2,1.9h0.1c0.6,0,1.2-0.1,1.7-0.3c0.5-0.2,0.9-0.4,1.4-0.8
		c0.8-0.5,1.2-0.9,1.4-1c0.4-0.3,0.8-0.5,1.1-0.6c0.4-0.1,0.8-0.2,1.3-0.2c0.7,0,1.2,0.2,1.6,0.6c0.3,0.4,0.5,0.9,0.5,1.6v2.1
		L73.9,368.1L73.9,368.1z M72.6,366.2c0-0.3-0.2-0.5-0.5-0.6s-0.7-0.2-1.1-0.2s-0.8,0.1-1.3,0.3c-0.3,0.1-0.7,0.3-1.3,0.6
		c-0.4,0.2-0.8,0.4-1.1,0.6h3.6c0.5,0,0.9-0.1,1.2-0.2S72.6,366.3,72.6,366.2z"/>
	<path class="st4" d="M86.5,368.1h-7.2c-1.1,0-2-0.1-2.7-0.2c-0.8-0.2-1.4-0.4-1.8-0.8s-0.7-1-0.7-1.7c0-0.5,0.1-1,0.4-1.6
		c0.2-0.4,0.3-0.7,0.4-0.9l0.3,0.2c-0.2,0.5-0.4,0.8-0.4,1c-0.1,0.2-0.1,0.5-0.1,0.6c0,0.7,0.4,1.2,1.1,1.5s1.9,0.5,3.6,0.5h5.8
		c-0.6-0.2-1.1-0.4-1.3-0.6c-0.3-0.3-0.5-0.6-0.5-0.9c0-0.5,0.2-1,0.5-1.6c0.4-0.6,0.8-0.9,1.2-0.9c0.5,0,0.9,0.3,1.1,0.9
		c0.2,0.5,0.3,1.2,0.3,2.2C86.5,365.8,86.5,368.1,86.5,368.1z M84.9,360.2l-0.6,1.1l-1.3-0.7l0.6-1.1L84.9,360.2z M85.7,365.7
		c0-0.5,0-0.8-0.1-1c-0.1-0.3-0.3-0.4-0.5-0.4s-0.3,0.1-0.4,0.2s-0.1,0.3-0.1,0.4c0,0.3,0.1,0.4,0.3,0.6
		C84.9,365.5,85.2,365.6,85.7,365.7z"/>
	<path class="st4" d="M95.8,368.5c0,1-0.5,1.8-1.5,2.4c-0.9,0.5-2.1,0.7-3.5,0.7c-1.2,0-2.1-0.2-2.7-0.6c-0.7-0.5-1-1.1-1-2
		c0-0.6,0.1-1.3,0.3-1.9c0.2-0.6,0.4-1.3,0.8-1.9l0.3,0.1c-0.2,0.4-0.3,0.7-0.4,1c-0.1,0.4-0.2,0.7-0.3,1c-0.1,0.3-0.1,0.7-0.1,1
		c0,0.7,0.3,1.2,0.9,1.5c0.5,0.3,1.3,0.4,2.4,0.4s2.1-0.2,2.9-0.5c1-0.4,1.4-1,1.4-1.7c0-0.3,0-0.5,0-0.6s-0.1-0.2-0.1-0.4
		c-0.2,0.1-0.4,0.2-0.6,0.2c-0.2,0.1-0.4,0.1-0.6,0.1c-0.5,0-0.8-0.1-1.1-0.3c-0.3-0.3-0.5-0.6-0.5-1.1c0-0.6,0.2-1.2,0.5-1.7
		c0.3-0.6,0.7-0.9,1.2-0.9c0.6,0,1.1,0.4,1.4,1.3c0.3,0.7,0.5,1.5,0.5,2.5v1.4H95.8z M93.1,360.9l-0.6,1.1l-1.3-0.7l0.6-1.1
		L93.1,360.9z M94.5,365.6c-0.1-0.3-0.2-0.5-0.3-0.6c-0.1-0.2-0.3-0.3-0.5-0.3c-0.3,0-0.4,0.1-0.6,0.2s-0.2,0.3-0.2,0.5
		s0.1,0.3,0.2,0.4c0.2,0.1,0.3,0.1,0.5,0.1c0.1,0,0.3,0,0.4-0.1S94.4,365.7,94.5,365.6z M94.9,360.1l-0.6,1.1l-1.3-0.7l0.6-1.1
		L94.9,360.1z"/>
	<path class="st4" d="M97.6,361.5l-0.6,1.1l-1.3-0.7l0.6-1.1L97.6,361.5z M100.1,365.8c0,0.7-0.1,1.3-0.4,1.7c-0.4,0.6-1,0.9-2,0.9
		c-0.4,0-0.7-0.1-0.9-0.2c-0.3-0.2-0.4-0.4-0.4-0.7c0-0.4,0.1-0.8,0.3-1.3c0.2-0.4,0.3-0.8,0.5-1.2h-0.1l0.5-1.3
		c0.9,0.5,1.5,0.8,1.7,0.9C99.8,364.9,100.1,365.3,100.1,365.8z M99.4,366.4c0-0.2-0.3-0.5-0.9-0.8c-0.2-0.1-0.5-0.3-0.8-0.4
		c-0.2,0.3-0.4,0.4-0.4,0.5c-0.1,0.2-0.2,0.4-0.2,0.6c0,0.3,0.1,0.5,0.2,0.6s0.3,0.2,0.6,0.2c0.3,0,0.6-0.1,1-0.2
		S99.4,366.6,99.4,366.4z M99.4,360.8l-0.6,1.1l-1.3-0.7l0.6-1.1L99.4,360.8z"/>
	<path class="st4" d="M107.4,366.1c0,0.4-0.1,0.8-0.2,1.2c-0.1,0.2-0.2,0.5-0.5,1l-0.1-0.1c0-0.2,0-0.3,0-0.5s0-0.3,0-0.4
		c0-0.5,0-1.3-0.1-2.3s-0.2-2-0.3-3c-0.1-0.6-0.2-1.3-0.2-2c0.1-0.2,0.2-0.5,0.4-0.7s0.3-0.5,0.4-0.8c0.1,0.6,0.2,1.4,0.3,2.4
		c0.1,1,0.2,2,0.3,2.8C107.3,364.8,107.4,365.6,107.4,366.1z"/>
	<path class="st4" d="M116.2,367.1c0,0.8-0.2,1.5-0.6,2c-0.3,0.4-0.9,0.7-1.5,0.9c-0.6,0.2-1.3,0.2-2.2,0.2c-1,0-1.8-0.2-2.3-0.6
		c-0.6-0.4-0.9-1-0.9-1.8c0-0.4,0.1-0.9,0.2-1.4c0.1-0.4,0.3-0.9,0.5-1.4c0.2-0.4,0.4-0.8,0.7-1.3l0.3,0.1c-0.2,0.3-0.4,0.7-0.5,0.9
		c-0.2,0.4-0.3,0.7-0.4,1c-0.1,0.4-0.1,0.7-0.1,1c0,0.6,0.2,1.1,0.7,1.5c0.5,0.3,1.1,0.5,1.9,0.5c0.9,0,1.7-0.2,2.4-0.5
		c0.8-0.3,1.2-0.7,1.2-1.2s-0.1-1.4-0.2-2.6c-0.1-0.9-0.3-2-0.5-3.1l-0.3-1.5l-0.4-0.2c0-0.7,0.1-1.3,0.4-1.9h0.1
		c0,0.2,0.1,0.3,0.1,0.4c0.1,0.1,0.1,0.2,0.3,0.2c0.2,0.1,0.3,0.1,0.5,0.2c0.1,0.1,0.3,0.1,0.4,0.2c0,0.4,0,0.6,0,0.8
		c0,0.2-0.1,0.4-0.2,0.7l-0.4-0.1c0,0.1,0.1,0.6,0.2,1.6c0.2,1.1,0.3,2,0.4,2.6C116.1,365.7,116.2,366.6,116.2,367.1z"/>
	<path class="st4" d="M124.4,372.5l-2,1.3c-1.1,0-1.9,0-2.5-0.1c-1-0.2-1.8-0.5-2.4-0.9c-0.7-0.6-1.1-1.4-1.1-2.4
		c0-0.6,0.1-1.2,0.3-1.7c0.2-0.4,0.4-0.8,0.7-1.2c0.1-0.2,0.4-0.4,0.8-0.8c-0.5-0.3-0.8-0.5-1-0.6c-0.4-0.4-0.6-0.9-0.6-1.5
		s0.2-1.1,0.7-1.6c0.5-0.6,1.2-0.9,1.9-0.9c0.3,0,0.7,0.1,1.1,0.3c0.3,0.1,0.6,0.3,1,0.6c-0.5,0-1,0-1.6,0.1
		c-0.7,0.1-1.3,0.2-1.7,0.4c-0.5,0.2-0.8,0.5-0.8,0.8s0.3,0.6,0.9,0.9c0.5,0.2,1.1,0.4,1.7,0.5c0.5-0.3,1-0.5,1.5-0.7
		c0.6-0.2,1.1-0.4,1.7-0.5l-0.3,1.2c-1.1,0.4-1.9,0.7-2.3,1c-1,0.5-1.7,0.9-2.2,1.4c-0.7,0.6-1,1.3-1,2s0.3,1.3,0.8,1.7
		c0.5,0.4,1.2,0.6,2.1,0.8c0.7,0.1,1.7,0.2,2.8,0.2c0.2,0,0.5,0,0.7,0C123.9,372.4,124.2,372.4,124.4,372.5L124.4,372.5z"/>
	<path class="st4" d="M127.5,366.1c0,0.4-0.1,0.8-0.2,1.2c-0.1,0.2-0.2,0.5-0.5,1l-0.1-0.1c0-0.2,0-0.3,0-0.5s0-0.3,0-0.4
		c0-0.5,0-1.3-0.1-2.3s-0.2-2-0.3-3c-0.1-0.6-0.2-1.3-0.2-2c0.1-0.2,0.2-0.5,0.4-0.7s0.3-0.5,0.4-0.8c0.1,0.6,0.2,1.4,0.3,2.4
		s0.2,2,0.3,2.8C127.5,364.8,127.5,365.6,127.5,366.1z"/>
	<path class="st4" d="M136.3,367.1c0,0.8-0.2,1.5-0.6,2c-0.3,0.4-0.9,0.7-1.5,0.9c-0.6,0.2-1.3,0.2-2.2,0.2c-1,0-1.8-0.2-2.3-0.6
		c-0.6-0.4-0.9-1-0.9-1.8c0-0.4,0.1-0.9,0.2-1.4c0.1-0.4,0.3-0.9,0.5-1.4c0.2-0.4,0.4-0.8,0.7-1.3l0.3,0.1c-0.2,0.3-0.4,0.7-0.5,0.9
		c-0.2,0.4-0.3,0.7-0.4,1c-0.1,0.4-0.1,0.7-0.1,1c0,0.6,0.2,1.1,0.7,1.5c0.5,0.3,1.1,0.5,1.9,0.5c0.9,0,1.7-0.2,2.4-0.5
		c0.8-0.3,1.2-0.7,1.2-1.2s-0.1-1.4-0.2-2.6c-0.1-0.9-0.3-2-0.5-3.1l-0.3-1.5l-0.4-0.2c0-0.7,0.1-1.3,0.4-1.9h0.1
		c0,0.2,0.1,0.3,0.1,0.4c0.1,0.1,0.1,0.2,0.3,0.2c0.2,0.1,0.3,0.1,0.5,0.2c0.1,0.1,0.3,0.1,0.4,0.2c0,0.4,0,0.6,0,0.8
		c0,0.2-0.1,0.4-0.2,0.7l-0.4-0.1c0,0.1,0.1,0.6,0.2,1.6c0.2,1.1,0.3,2,0.4,2.6C136.2,365.7,136.3,366.6,136.3,367.1z"/>
	<path class="st4" d="M141.7,368.1h-0.9c-0.9,0-1.6,0.1-2.3,0.2c-0.8,0.2-1.2,0.5-1.2,0.9c0,0.3,0.1,0.7,0.2,1.1s0.2,0.8,0.4,1.2
		c0.1,0.4,0.2,0.8,0.2,1.1c0,0.2,0,0.4,0,0.5c0,0.2-0.1,0.4-0.2,0.6c-0.1-0.4-0.3-0.9-0.4-1.3c-0.3-0.8-0.4-1.4-0.6-1.9
		c-0.2-0.7-0.3-1.1-0.3-1.2c0-0.7,0.1-1.2,0.4-1.5c0.3-0.4,0.7-0.6,1.3-0.8c0.5-0.1,1.1-0.3,2.1-0.3c-0.3-0.3-0.5-0.5-0.6-0.6
		c-0.3-0.2-0.5-0.3-0.8-0.3c-0.2,0-0.3,0.1-0.5,0.2c-0.1,0.1-0.3,0.2-0.5,0.4l-0.4-0.2c0.2-0.4,0.3-0.7,0.5-0.9
		c0.3-0.4,0.7-0.6,1.2-0.6c0.3,0,0.6,0.1,1,0.4c0.3,0.2,0.5,0.5,0.8,0.8c0.1,0.2,0.3,0.5,0.6,0.9V368.1z"/>
	<path class="st4" d="M151.4,364.2c0,0.2,0,0.3,0,0.5s-0.1,0.3-0.1,0.4c-0.2-0.2-0.4-0.4-0.7-0.6c-0.3-0.1-0.5-0.2-0.8-0.2
		c-0.5,0-0.9,0.3-1.4,0.8s-0.7,0.9-0.7,1.2c0,0.1,0.1,0.2,0.2,0.2c0.1,0,0.3,0.1,0.6,0.1h0.6c0.4,0,0.7,0,0.8,0s0.4,0,0.6,0.1
		s0.4,0.2,0.4,0.6c0,1.3-0.6,2.3-1.7,3c-1,0.6-2.5,0.9-4.3,0.9c-0.9,0-1.6-0.2-2.1-0.5c-0.5-0.4-0.8-1-0.8-1.8
		c0-0.5,0.1-1.1,0.3-1.7c0.1-0.5,0.3-0.9,0.6-1.4c0,0,0.2-0.3,0.5-0.9l0.3,0.1c-0.3,0.6-0.6,1.1-0.8,1.6s-0.3,1-0.3,1.3
		c0,0.6,0.2,1.1,0.7,1.4c0.4,0.3,1.1,0.5,1.9,0.5c0.6,0,1.4-0.1,2.2-0.4c0.7-0.2,1.3-0.5,1.9-0.8c0.6-0.3,0.9-0.5,0.9-0.7
		c0-0.1,0-0.2-0.1-0.2s-0.2,0-0.3,0h-1.8c-0.2,0-0.4-0.1-0.6-0.2s-0.3-0.4-0.3-0.6c0-0.3,0.1-0.8,0.4-1.4c0.3-0.7,0.7-1.2,1.1-1.6
		c0.5-0.5,1.1-0.8,1.6-0.8c0.3,0,0.6,0.1,0.8,0.3C151.3,363.5,151.4,363.8,151.4,364.2z M146.6,372.6l-0.6,1.1l-1.3-0.7l0.6-1.1
		L146.6,372.6z M148.4,371.9l-0.6,1.1l-1.3-0.7l0.6-1.1L148.4,371.9z"/>
	<path class="st4" d="M153.7,361.5l-0.6,1.1l-1.3-0.7l0.6-1.1L153.7,361.5z M156.2,365.8c0,0.7-0.1,1.3-0.4,1.7
		c-0.4,0.6-1,0.9-2,0.9c-0.4,0-0.7-0.1-0.9-0.2c-0.3-0.2-0.4-0.4-0.4-0.7c0-0.4,0.1-0.8,0.3-1.3c0.2-0.4,0.3-0.8,0.5-1.2h-0.1
		l0.5-1.3c0.9,0.5,1.5,0.8,1.7,0.9C155.9,364.9,156.2,365.3,156.2,365.8z M155.6,366.4c0-0.2-0.3-0.5-0.9-0.8
		c-0.2-0.1-0.5-0.3-0.8-0.4c-0.2,0.3-0.4,0.4-0.4,0.5c-0.1,0.2-0.2,0.4-0.2,0.6c0,0.3,0.1,0.5,0.2,0.6s0.3,0.2,0.6,0.2
		s0.6-0.1,1-0.2S155.6,366.6,155.6,366.4z M155.5,360.8l-0.6,1.1l-1.3-0.7l0.6-1.1L155.5,360.8z"/>
</g>
<g>
	<path class="st4" d="M30.9,140.9c0,0.4-0.1,0.8-0.2,1.2c-0.1,0.2-0.2,0.5-0.5,1l-0.1-0.1c0-0.2,0-0.3,0-0.5s0-0.3,0-0.4
		c0-0.5,0-1.3-0.1-2.3s-0.2-2-0.3-3c-0.1-0.6-0.2-1.3-0.2-2c0.1-0.2,0.2-0.5,0.4-0.7s0.3-0.5,0.4-0.8c0.1,0.6,0.2,1.4,0.3,2.4
		s0.2,2,0.3,2.8C30.8,139.6,30.9,140.4,30.9,140.9z"/>
	<path class="st4" d="M39.6,141.9c0,0.8-0.2,1.5-0.6,2c-0.3,0.4-0.9,0.7-1.5,0.9s-1.3,0.2-2.2,0.2c-1,0-1.8-0.2-2.3-0.6
		c-0.6-0.4-0.9-1-0.9-1.8c0-0.4,0.1-0.9,0.2-1.4c0.1-0.4,0.3-0.9,0.5-1.4c0.2-0.4,0.4-0.8,0.7-1.3l0.3,0.1c-0.2,0.3-0.4,0.7-0.5,0.9
		c-0.2,0.4-0.3,0.7-0.4,1c-0.1,0.4-0.1,0.7-0.1,1c0,0.6,0.2,1.1,0.7,1.5c0.5,0.3,1.1,0.5,1.9,0.5c0.9,0,1.7-0.2,2.4-0.5
		c0.8-0.3,1.2-0.7,1.2-1.2s-0.1-1.4-0.2-2.6c-0.1-0.9-0.3-2-0.5-3.1l-0.3-1.5l-0.4-0.2c0-0.7,0.1-1.3,0.4-1.9h0.1
		c0,0.2,0.1,0.3,0.1,0.4c0.1,0.1,0.1,0.2,0.3,0.2c0.2,0.1,0.3,0.1,0.5,0.2c0.1,0.1,0.3,0.1,0.4,0.2c0,0.4,0,0.6,0,0.8
		s-0.1,0.4-0.2,0.7l-0.4-0.1c0,0.1,0.1,0.6,0.2,1.6c0.2,1.1,0.3,2,0.4,2.6C39.6,140.5,39.6,141.4,39.6,141.9z"/>
	<path class="st4" d="M45,142.9h-0.9c-0.9,0-1.6,0.1-2.3,0.2c-0.8,0.2-1.2,0.5-1.2,0.9c0,0.3,0.1,0.7,0.2,1.1
		c0.1,0.4,0.2,0.8,0.4,1.2c0.1,0.4,0.2,0.8,0.2,1.1c0,0.2,0,0.4,0,0.5c0,0.2-0.1,0.4-0.2,0.6c-0.1-0.4-0.3-0.9-0.4-1.3
		c-0.3-0.8-0.4-1.4-0.6-1.9c-0.2-0.7-0.3-1.1-0.3-1.2c0-0.7,0.1-1.2,0.4-1.5c0.3-0.4,0.7-0.6,1.3-0.8c0.5-0.1,1.1-0.3,2.1-0.3
		c-0.3-0.3-0.5-0.5-0.6-0.6c-0.3-0.2-0.5-0.3-0.8-0.3c-0.2,0-0.3,0.1-0.5,0.2c-0.1,0.1-0.3,0.2-0.5,0.4l-0.4-0.2
		c0.2-0.4,0.3-0.7,0.5-0.9c0.3-0.4,0.7-0.6,1.2-0.6c0.3,0,0.6,0.1,1,0.4c0.3,0.2,0.5,0.5,0.8,0.8c0.1,0.2,0.3,0.5,0.6,0.9V142.9z"/>
	<path class="st4" d="M58.2,142.9h-0.6c-0.3,0-0.6,0-0.8-0.1s-0.5-0.2-0.7-0.4c-0.2,0.2-0.4,0.3-0.6,0.4c-0.2,0.1-0.6,0.1-1.1,0.1
		h-1c0,0.5-0.1,0.9-0.3,1.4c-0.3,0.6-0.8,1.1-1.4,1.4c-0.8,0.4-1.7,0.6-2.9,0.6c-1,0-1.8-0.2-2.4-0.5c-0.6-0.4-0.9-1-0.9-1.8
		c0-0.4,0.1-0.9,0.2-1.4s0.3-0.9,0.4-1.4c0.1-0.3,0.3-0.7,0.6-1.3l0.3,0.1c-0.4,0.8-0.6,1.3-0.7,1.8c-0.1,0.4-0.2,0.8-0.2,1.2
		c0,0.6,0.2,1.1,0.7,1.5s1.1,0.5,2,0.5c1,0,1.9-0.2,2.7-0.5c1-0.4,1.5-1,1.5-1.8c0-0.5-0.1-1-0.3-1.5c-0.2-0.4-0.4-0.7-0.6-1.1
		l0.6-1.6c0.3,0.4,0.4,0.8,0.5,1.1c0.1,0.5,0.2,1.1,0.2,1.9h1c0.5,0,0.8-0.1,1.1-0.2c0.2-0.1,0.3-0.3,0.3-0.6c0-0.2,0-0.3,0-0.5
		s0-0.3-0.1-0.5l0.3-0.5l0.1,0.8c0.1,0.5,0.3,0.9,0.5,1.1c0.2,0.3,0.5,0.4,0.9,0.4c0.1,0,0.2,0,0.3-0.1c0.1-0.1,0.1-0.2,0.1-0.3
		c0-0.3-0.1-0.5-0.2-0.8c-0.1-0.2-0.3-0.4-0.5-0.7l0.5-0.9c0.2,0.4,0.4,0.7,0.4,0.8c0.1,0.3,0.2,0.8,0.2,1.4L58.2,142.9L58.2,142.9z
		"/>
	<path class="st4" d="M69.6,142.9h-7.5c-1,0-1.8-0.2-2.4-0.5c-0.7-0.4-1.1-1.1-1.1-2.1c0-0.5,0.1-1,0.3-1.5c0.1-0.2,0.3-0.5,0.6-1
		l0.2,0.1c-0.1,0.2-0.2,0.5-0.3,0.7c-0.2,0.4-0.2,0.7-0.2,1c0,0.6,0.3,1.1,1,1.4c0.6,0.3,1.3,0.5,2.2,0.5H69v-0.2
		c0-0.6-0.1-1.1-0.2-1.4s-0.4-0.7-0.7-0.9l0.6-1.3c0.2,0.3,0.4,0.5,0.4,0.5c0.4,0.6,0.5,1.4,0.5,2.5V142.9z M64.1,136.5l-0.6,1.1
		l-1.3-0.7l0.6-1.1L64.1,136.5z M65.9,135.8l-0.6,1.1l-1.3-0.7l0.6-1.1L65.9,135.8z"/>
	<path class="st4" d="M81,142.9h-7.5c-1,0-1.8-0.2-2.4-0.5c-0.7-0.4-1.1-1.1-1.1-2.1c0-0.5,0.1-1,0.3-1.5c0.1-0.2,0.3-0.5,0.6-1
		l0.2,0.1c-0.1,0.2-0.2,0.5-0.3,0.7c-0.2,0.4-0.2,0.7-0.2,1c0,0.6,0.3,1.1,1,1.4c0.6,0.3,1.3,0.5,2.2,0.5h6.6v-0.2
		c0-0.6-0.1-1.1-0.2-1.4s-0.4-0.7-0.7-0.9l0.6-1.3c0.2,0.3,0.4,0.5,0.4,0.5c0.4,0.6,0.5,1.4,0.5,2.5V142.9z M75.5,136.5l-0.6,1.1
		l-1.3-0.7l0.6-1.1L75.5,136.5z M75.8,134.4l-0.6,1.1l-1.3-0.7l0.6-1.1L75.8,134.4z M77.3,135.8l-0.6,1.1l-1.3-0.7l0.6-1.1
		L77.3,135.8z"/>
	<path class="st4" d="M86.4,142.9h-0.9c-0.9,0-1.6,0.1-2.3,0.2c-0.8,0.2-1.2,0.5-1.2,0.9c0,0.3,0.1,0.7,0.2,1.1s0.2,0.8,0.4,1.2
		c0.1,0.4,0.2,0.8,0.2,1.1c0,0.2,0,0.4,0,0.5c0,0.2-0.1,0.4-0.2,0.6c-0.1-0.4-0.3-0.9-0.4-1.3c-0.3-0.8-0.4-1.4-0.6-1.9
		c-0.2-0.7-0.3-1.1-0.3-1.2c0-0.7,0.1-1.2,0.4-1.5c0.3-0.4,0.7-0.6,1.3-0.8c0.5-0.1,1.1-0.3,2.1-0.3c-0.3-0.3-0.5-0.5-0.6-0.6
		c-0.3-0.2-0.5-0.3-0.8-0.3c-0.2,0-0.3,0.1-0.5,0.2c-0.1,0.1-0.3,0.2-0.5,0.4l-0.4-0.2c0.2-0.4,0.3-0.7,0.5-0.9
		c0.3-0.4,0.7-0.6,1.2-0.6c0.3,0,0.6,0.1,1,0.4c0.3,0.2,0.5,0.5,0.8,0.8c0.1,0.2,0.3,0.5,0.6,0.9C86.4,141.6,86.4,142.9,86.4,142.9z
		"/>
	<path class="st4" d="M94.2,142.9c0,0.6-0.2,1.2-0.7,1.8c-0.4,0.5-1,1-1.6,1.4s-1.1,0.6-1.5,0.6s-0.7-0.1-1.2-0.2
		c-0.3-0.1-0.7-0.2-1.1-0.4c-0.4-0.1-0.7-0.3-1.1-0.4l0.1-0.3c0.3,0.1,0.7,0.1,1.1,0.2c0.4,0.1,0.7,0.1,1,0.1c0.7,0,1.4-0.2,2.1-0.6
		c0.7-0.4,1.2-0.9,1.7-1.5s0.7-1.1,0.7-1.6c0-0.4-0.1-0.8-0.4-1.3c-0.2-0.4-0.5-0.7-0.8-1.1l0.4-1.2c0.4,0.4,0.7,0.8,0.9,1.2
		c0.2,0.4,0.3,0.9,0.3,1.5L94.2,142.9L94.2,142.9z"/>
</g>
<g>
	<path class="st4" d="M122.4,67h-7.5c-1,0-1.8-0.2-2.4-0.5c-0.7-0.4-1.1-1.1-1.1-2.1c0-0.5,0.1-1,0.3-1.5c0.1-0.2,0.3-0.5,0.6-1
		l0.2,0.1c-0.1,0.2-0.2,0.5-0.3,0.7c-0.2,0.4-0.2,0.7-0.2,1c0,0.6,0.3,1.1,1,1.4c0.6,0.3,1.3,0.5,2.2,0.5h6.6v-0.2
		c0-0.6-0.1-1.1-0.2-1.4c-0.1-0.3-0.4-0.7-0.7-0.9l0.6-1.3c0.2,0.3,0.4,0.5,0.4,0.5c0.4,0.6,0.5,1.4,0.5,2.5V67z M116.9,60.6
		l-0.6,1.1L115,61l0.6-1.1L116.9,60.6z M118.7,59.9l-0.6,1.1l-1.3-0.7l0.6-1.1L118.7,59.9z"/>
	<path class="st4" d="M129.3,66.5c0,0.9-0.3,1.7-1,2.6c-0.7,0.9-1.5,1.4-2.5,1.4c-0.3,0-0.7,0-1.1-0.1c-0.3-0.1-0.6-0.2-1-0.3
		c-0.3-0.1-0.7-0.2-1-0.4l0.1-0.3c0.3,0.1,0.6,0.1,0.9,0.2c0.3,0.1,0.6,0.1,0.9,0.1c0.6,0,1.2-0.2,1.8-0.5c0.4-0.3,0.9-0.6,1.3-1.1
		c0.2-0.2,0.5-0.6,1-1.2c-0.7,0-1.2-0.1-1.6-0.3c-0.4-0.3-0.6-0.7-0.6-1.3c0-0.5,0.1-1,0.4-1.5c0.3-0.5,0.7-0.8,1.1-0.8
		c0.5,0,0.8,0.3,1,0.8c0.2,0.4,0.2,1,0.2,1.7v1L129.3,66.5L129.3,66.5z M128.8,65.7c-0.1-0.5-0.3-0.8-0.4-1
		c-0.1-0.2-0.3-0.3-0.5-0.3c-0.1,0-0.3,0-0.4,0.1c-0.1,0.1-0.2,0.2-0.2,0.4c0,0.3,0.1,0.4,0.3,0.6C127.9,65.6,128.3,65.7,128.8,65.7
		z"/>
	<path class="st4" d="M137.1,67c0,0.6-0.2,1.2-0.7,1.8c-0.4,0.5-1,1-1.6,1.4c-0.6,0.4-1.1,0.6-1.5,0.6s-0.7-0.1-1.2-0.2
		c-0.3-0.1-0.7-0.2-1.1-0.4c-0.4-0.1-0.7-0.3-1.1-0.4l0.1-0.3c0.3,0.1,0.7,0.1,1.1,0.2c0.4,0.1,0.7,0.1,1,0.1c0.7,0,1.4-0.2,2.1-0.6
		c0.7-0.4,1.2-0.9,1.7-1.5c0.5-0.6,0.7-1.1,0.7-1.6c0-0.4-0.1-0.8-0.4-1.3c-0.2-0.4-0.5-0.7-0.8-1.1l0.4-1.2
		c0.4,0.4,0.7,0.8,0.9,1.2c0.2,0.4,0.3,0.9,0.3,1.5V67H137.1z M136,59.7l-0.6,1.1l-1.3-0.7l0.6-1.1L136,59.7z"/>
	<path class="st4" d="M144.9,67c0,0.6-0.2,1.2-0.7,1.8c-0.4,0.5-1,1-1.6,1.4c-0.6,0.4-1.1,0.6-1.5,0.6s-0.7-0.1-1.2-0.2
		c-0.3-0.1-0.7-0.2-1.1-0.4c-0.4-0.1-0.7-0.3-1.1-0.4l0.1-0.3c0.3,0.1,0.7,0.1,1.1,0.2c0.4,0.1,0.7,0.1,1,0.1c0.7,0,1.4-0.2,2.1-0.6
		c0.7-0.4,1.2-0.9,1.7-1.5c0.5-0.6,0.7-1.1,0.7-1.6c0-0.4-0.1-0.8-0.4-1.3c-0.2-0.4-0.5-0.7-0.8-1.1l0.4-1.2
		c0.4,0.4,0.7,0.8,0.9,1.2c0.2,0.4,0.3,0.9,0.3,1.5V67H144.9z"/>
	<path class="st4" d="M153.2,71.4l-2,1.3c-1.1,0-1.9,0-2.5-0.1c-1-0.2-1.8-0.5-2.4-0.9c-0.7-0.6-1.1-1.4-1.1-2.4
		c0-0.6,0.1-1.2,0.3-1.7c0.2-0.4,0.4-0.8,0.7-1.2c0.1-0.2,0.4-0.4,0.8-0.8c-0.5-0.3-0.8-0.5-1-0.6c-0.4-0.4-0.6-0.9-0.6-1.5
		c0-0.6,0.2-1.1,0.7-1.6c0.5-0.6,1.2-0.9,1.9-0.9c0.3,0,0.7,0.1,1.1,0.3c0.3,0.1,0.6,0.3,1,0.6c-0.5,0-1,0-1.6,0.1
		c-0.7,0.1-1.3,0.2-1.7,0.4c-0.5,0.2-0.8,0.5-0.8,0.8s0.3,0.6,0.9,0.9c0.5,0.2,1.1,0.4,1.7,0.5c0.5-0.3,1-0.5,1.5-0.7
		c0.6-0.2,1.1-0.4,1.7-0.5l-0.3,1.2c-1.1,0.4-1.9,0.7-2.3,1c-1,0.5-1.7,0.9-2.2,1.4c-0.7,0.6-1,1.3-1,2s0.3,1.3,0.8,1.7
		s1.2,0.6,2.1,0.8c0.7,0.1,1.7,0.2,2.8,0.2c0.2,0,0.5,0,0.7,0C152.7,71.3,152.9,71.3,153.2,71.4L153.2,71.4z"/>
	<path class="st4" d="M160.7,65c0,0.4-0.1,0.8-0.2,1.2c-0.1,0.2-0.2,0.5-0.5,1l-0.1-0.1c0-0.2,0-0.3,0-0.5s0-0.3,0-0.4
		c0-0.5,0-1.3-0.1-2.3c-0.1-1-0.2-2-0.3-3c-0.1-0.6-0.2-1.3-0.2-2c0.1-0.2,0.2-0.5,0.4-0.7s0.3-0.5,0.4-0.8c0.1,0.6,0.2,1.4,0.3,2.4
		s0.2,2,0.3,2.8C160.7,63.7,160.7,64.5,160.7,65z"/>
	<path class="st4" d="M169.5,66c0,0.8-0.2,1.5-0.6,2c-0.3,0.4-0.9,0.7-1.5,0.9s-1.3,0.2-2.2,0.2c-1,0-1.8-0.2-2.3-0.6
		c-0.6-0.4-0.9-1-0.9-1.8c0-0.4,0.1-0.9,0.2-1.4c0.1-0.4,0.3-0.9,0.5-1.4c0.2-0.4,0.4-0.8,0.7-1.3l0.3,0.1c-0.2,0.3-0.4,0.7-0.5,0.9
		c-0.2,0.4-0.3,0.7-0.4,1c-0.1,0.4-0.1,0.7-0.1,1c0,0.6,0.2,1.1,0.7,1.5c0.5,0.3,1.1,0.5,1.9,0.5c0.9,0,1.7-0.2,2.4-0.5
		c0.8-0.3,1.2-0.7,1.2-1.2s-0.1-1.4-0.2-2.6c-0.1-0.9-0.3-2-0.5-3.1l-0.3-1.5l-0.4-0.2c0-0.7,0.1-1.3,0.4-1.9h0.1
		c0,0.2,0.1,0.3,0.1,0.4c0.1,0.1,0.1,0.2,0.3,0.2c0.2,0.1,0.3,0.1,0.5,0.2c0.1,0.1,0.3,0.1,0.4,0.2c0,0.4,0,0.6,0,0.8
		s-0.1,0.4-0.2,0.7l-0.4-0.1c0,0.1,0.1,0.6,0.2,1.6c0.2,1.1,0.3,2,0.4,2.6C169.4,64.6,169.5,65.5,169.5,66z"/>
	<path class="st4" d="M172.4,56.5c0,0.1-0.1,0.2-0.2,0.4c-0.1,0.1-0.3,0.1-0.5,0.2l-1.5,0.5c0-0.2,0.3-0.5,0.8-0.6
		c-0.2-0.1-0.3-0.2-0.4-0.2c-0.1-0.1-0.2-0.2-0.2-0.3c0-0.2,0.1-0.4,0.4-0.7c0.3-0.3,0.6-0.5,0.8-0.5c0.1,0,0.2,0,0.3,0.1
		s0.1,0.2,0.1,0.3s0,0.1,0,0.2c0,0.1-0.1,0.2-0.1,0.3c-0.2-0.1-0.3-0.2-0.5-0.2c-0.1,0-0.2,0-0.3,0.1c-0.1,0-0.2,0.1-0.2,0.2
		c0,0.1,0.1,0.2,0.4,0.3c0.2,0.1,0.4,0.2,0.6,0.2c0.1,0,0.2,0,0.2,0C172.1,56.6,172.2,56.6,172.4,56.5z M172.1,65
		c0,0.4-0.1,0.8-0.2,1.2c-0.1,0.2-0.2,0.5-0.5,1l-0.1-0.1c0-0.2,0-0.3,0-0.5s0-0.3,0-0.4c0-0.5,0-1.3-0.1-2.3c-0.1-1-0.2-2-0.3-3
		c-0.1-0.6-0.2-1.3-0.2-2c0.1-0.2,0.2-0.5,0.4-0.7s0.3-0.5,0.4-0.8c0.1,0.6,0.2,1.4,0.3,2.4s0.2,2,0.3,2.8
		C172.1,63.7,172.1,64.5,172.1,65z"/>
	<path class="st4" d="M180.6,67c0,0.6-0.2,1.2-0.7,1.8c-0.4,0.5-1,1-1.6,1.4c-0.6,0.4-1.1,0.6-1.5,0.6s-0.7-0.1-1.2-0.2
		c-0.3-0.1-0.7-0.2-1.1-0.4c-0.4-0.1-0.7-0.3-1.1-0.4l0.1-0.3c0.3,0.1,0.7,0.1,1.1,0.2c0.4,0.1,0.7,0.1,1,0.1c0.7,0,1.4-0.2,2.1-0.6
		c0.7-0.4,1.2-0.9,1.7-1.5c0.5-0.6,0.7-1.1,0.7-1.6c0-0.4-0.1-0.8-0.4-1.3c-0.2-0.4-0.5-0.7-0.8-1.1l0.4-1.2
		c0.4,0.4,0.7,0.8,0.9,1.2c0.2,0.4,0.3,0.9,0.3,1.5V67H180.6z"/>
	<path class="st4" d="M192,67h-7.5c-1,0-1.8-0.2-2.4-0.5c-0.7-0.4-1.1-1.1-1.1-2.1c0-0.5,0.1-1,0.3-1.5c0.1-0.2,0.3-0.5,0.6-1
		l0.2,0.1c-0.1,0.2-0.2,0.5-0.3,0.7c-0.2,0.4-0.2,0.7-0.2,1c0,0.6,0.3,1.1,1,1.4c0.6,0.3,1.3,0.5,2.2,0.5h6.6v-0.2
		c0-0.6-0.1-1.1-0.2-1.4c-0.1-0.3-0.4-0.7-0.7-0.9l0.6-1.3c0.2,0.3,0.4,0.5,0.4,0.5c0.4,0.6,0.5,1.4,0.5,2.5L192,67L192,67z
		 M187.6,68.9L187,70l-1.3-0.7l0.6-1.1L187.6,68.9z"/>
	<path class="st4" d="M194.7,65c0,0.4-0.1,0.8-0.2,1.2c-0.1,0.2-0.2,0.5-0.5,1l-0.1-0.1c0-0.2,0-0.3,0-0.5s0-0.3,0-0.4
		c0-0.5,0-1.3-0.1-2.3c-0.1-1-0.2-2-0.3-3c-0.1-0.6-0.2-1.3-0.2-2c0.1-0.2,0.2-0.5,0.4-0.7s0.3-0.5,0.4-0.8c0.1,0.6,0.2,1.4,0.3,2.4
		s0.2,2,0.3,2.8C194.6,63.7,194.7,64.5,194.7,65z"/>
	<path class="st4" d="M199.1,63.9c-0.1,0-0.3,0-0.5,0s-0.3,0-0.4,0c-0.3,0-0.7,0-1.1,0.1c-0.3,0-0.6,0.1-1.1,0.2
		c0.2-0.6,0.4-1,0.6-1.1c0.4-0.4,1-0.6,2-0.6c0.3,0,1,0.1,2.1,0.2c0.5,0.1,0.9,0.1,1.3,0.1c0.2,0,0.4,0,0.7-0.1
		c0.3,0,0.5-0.1,0.7-0.1l-0.4,1.3c-1.1,0.2-2,0.4-2.8,0.6c-1.1,0.4-2,0.8-2.7,1.3c-0.8,0.6-1.2,1.4-1.2,2.3c0,1.1,0.6,2,1.8,2.5
		c1,0.5,2.4,0.7,4.1,0.7h1.4v0.1l-1.8,1.2h-0.5c-1.1,0-2.1-0.1-2.8-0.3c-0.9-0.3-1.6-0.7-2-1.2c-0.5-0.6-0.8-1.5-0.8-2.5
		c0-0.9,0.2-1.7,0.6-2.4c0.3-0.5,0.8-1,1.4-1.5C197.9,64.7,198.4,64.3,199.1,63.9z"/>
	<path class="st4" d="M211.5,65c0,0.4-0.1,0.8-0.2,1.2c-0.1,0.2-0.2,0.5-0.5,1l-0.1-0.1c0-0.2,0-0.3,0-0.5s0-0.3,0-0.4
		c0-0.5,0-1.3-0.1-2.3c-0.1-1-0.2-2-0.3-3c-0.1-0.6-0.2-1.3-0.2-2c0.1-0.2,0.2-0.5,0.4-0.7s0.3-0.5,0.4-0.8c0.1,0.6,0.2,1.4,0.3,2.4
		s0.2,2,0.3,2.8C211.4,63.7,211.5,64.5,211.5,65z"/>
	<path class="st4" d="M220.2,66c0,0.8-0.2,1.5-0.6,2c-0.3,0.4-0.9,0.7-1.5,0.9s-1.3,0.2-2.2,0.2c-1,0-1.8-0.2-2.3-0.6
		c-0.6-0.4-0.9-1-0.9-1.8c0-0.4,0.1-0.9,0.2-1.4c0.1-0.4,0.3-0.9,0.5-1.4c0.2-0.4,0.4-0.8,0.7-1.3l0.3,0.1c-0.2,0.3-0.4,0.7-0.5,0.9
		c-0.2,0.4-0.3,0.7-0.4,1c-0.1,0.4-0.1,0.7-0.1,1c0,0.6,0.2,1.1,0.7,1.5c0.5,0.3,1.1,0.5,1.9,0.5c0.9,0,1.7-0.2,2.4-0.5
		c0.8-0.3,1.2-0.7,1.2-1.2s-0.1-1.4-0.2-2.6c-0.1-0.9-0.3-2-0.5-3.1l-0.3-1.5l-0.4-0.2c0-0.7,0.1-1.3,0.4-1.9h0.1
		c0,0.2,0.1,0.3,0.1,0.4c0.1,0.1,0.1,0.2,0.3,0.2c0.2,0.1,0.3,0.1,0.5,0.2c0.1,0.1,0.3,0.1,0.4,0.2c0,0.4,0,0.6,0,0.8
		s-0.1,0.4-0.2,0.7l-0.4-0.1c0,0.1,0.1,0.6,0.2,1.6c0.2,1.1,0.3,2,0.4,2.6C220.2,64.6,220.2,65.5,220.2,66z"/>
	<path class="st4" d="M231.6,67h-7.5c-1,0-1.8-0.2-2.4-0.5c-0.7-0.4-1.1-1.1-1.1-2.1c0-0.5,0.1-1,0.3-1.5c0.1-0.2,0.3-0.5,0.6-1
		l0.2,0.1c-0.1,0.2-0.2,0.5-0.3,0.7c-0.2,0.4-0.2,0.7-0.2,1c0,0.6,0.3,1.1,1,1.4c0.6,0.3,1.3,0.5,2.2,0.5h6.6v-0.2
		c0-0.6-0.1-1.1-0.2-1.4c-0.1-0.3-0.4-0.7-0.7-0.9l0.6-1.3c0.2,0.3,0.4,0.5,0.4,0.5c0.4,0.6,0.5,1.4,0.5,2.5L231.6,67L231.6,67z
		 M226.2,60.6l-0.6,1.1l-1.3-0.7l0.6-1.1L226.2,60.6z M228,59.9l-0.6,1.1l-1.3-0.7l0.6-1.1L228,59.9z"/>
	<path class="st4" d="M244.8,67h-0.6c-0.3,0-0.6,0-0.8-0.1c-0.2-0.1-0.5-0.2-0.7-0.4c-0.2,0.2-0.4,0.3-0.6,0.4
		c-0.2,0.1-0.6,0.1-1.1,0.1h-1c0,0.5-0.1,0.9-0.3,1.4c-0.3,0.6-0.8,1.1-1.4,1.4c-0.8,0.4-1.7,0.6-2.9,0.6c-1,0-1.8-0.2-2.4-0.5
		c-0.6-0.4-0.9-1-0.9-1.8c0-0.4,0.1-0.9,0.2-1.4c0.1-0.5,0.3-0.9,0.4-1.4c0.1-0.3,0.3-0.7,0.6-1.3l0.3,0.1c-0.4,0.8-0.6,1.3-0.7,1.8
		c-0.1,0.4-0.2,0.8-0.2,1.2c0,0.6,0.2,1.1,0.7,1.5c0.5,0.4,1.1,0.5,2,0.5c1,0,1.9-0.2,2.7-0.5c1-0.4,1.5-1,1.5-1.8
		c0-0.5-0.1-1-0.3-1.5c-0.2-0.4-0.4-0.7-0.6-1.1l0.6-1.6c0.3,0.4,0.4,0.8,0.5,1.1c0.1,0.5,0.2,1.1,0.2,1.9h1c0.5,0,0.8-0.1,1.1-0.2
		c0.2-0.1,0.3-0.3,0.3-0.6c0-0.2,0-0.3,0-0.5s0-0.3-0.1-0.5l0.3-0.5l0.1,0.8c0.1,0.5,0.3,0.9,0.5,1.1c0.2,0.3,0.5,0.4,0.9,0.4
		c0.1,0,0.2,0,0.3-0.1c0.1-0.1,0.1-0.2,0.1-0.3c0-0.3-0.1-0.5-0.2-0.8c-0.1-0.2-0.3-0.4-0.5-0.7l0.5-0.9c0.2,0.4,0.4,0.7,0.4,0.8
		c0.1,0.3,0.2,0.8,0.2,1.4v2H244.8z"/>
	<path class="st4" d="M247.4,65c0,0.4-0.1,0.8-0.2,1.2c-0.1,0.2-0.2,0.5-0.5,1l-0.1-0.1c0-0.2,0-0.3,0-0.5s0-0.3,0-0.4
		c0-0.5,0-1.3-0.1-2.3c-0.1-1-0.2-2-0.3-3c-0.1-0.6-0.2-1.3-0.2-2c0.1-0.2,0.2-0.5,0.4-0.7s0.3-0.5,0.4-0.8c0.1,0.6,0.2,1.4,0.3,2.4
		s0.2,2,0.3,2.8C247.4,63.7,247.4,64.5,247.4,65z"/>
	<path class="st4" d="M252.3,64.7c0,0.7-0.1,1.3-0.4,1.7c-0.4,0.6-1,0.9-2,0.9c-0.4,0-0.7-0.1-0.9-0.2c-0.3-0.2-0.4-0.4-0.4-0.7
		c0-0.4,0.1-0.8,0.3-1.3c0.2-0.4,0.3-0.8,0.5-1.2h-0.1l0.5-1.3c0.9,0.5,1.5,0.8,1.7,0.9C252,63.8,252.3,64.2,252.3,64.7z
		 M251.6,65.3c0-0.2-0.3-0.5-0.9-0.8c-0.2-0.1-0.5-0.3-0.8-0.4c-0.2,0.3-0.4,0.4-0.4,0.5c-0.1,0.2-0.2,0.4-0.2,0.6
		c0,0.3,0.1,0.5,0.2,0.6c0.1,0.1,0.3,0.2,0.6,0.2s0.6-0.1,1-0.2C251.5,65.7,251.6,65.5,251.6,65.3z"/>
	<path class="st4" d="M258,67h-0.9c-0.9,0-1.6,0.1-2.3,0.2c-0.8,0.2-1.2,0.5-1.2,0.9c0,0.3,0.1,0.7,0.2,1.1c0.1,0.4,0.2,0.8,0.4,1.2
		c0.1,0.4,0.2,0.8,0.2,1.1c0,0.2,0,0.4,0,0.5c0,0.2-0.1,0.4-0.2,0.6c-0.1-0.4-0.3-0.9-0.4-1.3c-0.3-0.8-0.4-1.4-0.6-1.9
		c-0.2-0.7-0.3-1.1-0.3-1.2c0-0.7,0.1-1.2,0.4-1.5c0.3-0.4,0.7-0.6,1.3-0.8c0.5-0.1,1.1-0.3,2.1-0.3c-0.3-0.3-0.5-0.5-0.6-0.6
		c-0.3-0.2-0.5-0.3-0.8-0.3c-0.2,0-0.3,0.1-0.5,0.2c-0.1,0.1-0.3,0.2-0.5,0.4l-0.4-0.2c0.2-0.4,0.3-0.7,0.5-0.9
		c0.3-0.4,0.7-0.6,1.2-0.6c0.3,0,0.6,0.1,1,0.4c0.3,0.2,0.5,0.5,0.8,0.8c0.1,0.2,0.3,0.5,0.6,0.9L258,67L258,67z"/>
	<path class="st4" d="M270.6,66c0,0.8-0.2,1.5-0.6,2c-0.3,0.4-0.9,0.7-1.5,0.9s-1.3,0.2-2.2,0.2c-1,0-1.8-0.2-2.3-0.6
		c-0.6-0.4-0.9-1-0.9-1.8c0-0.4,0.1-0.9,0.2-1.4c0.1-0.4,0.3-0.9,0.5-1.4c0.2-0.4,0.4-0.8,0.7-1.3l0.3,0.1c-0.2,0.3-0.4,0.7-0.5,0.9
		c-0.2,0.4-0.3,0.7-0.4,1c-0.1,0.4-0.1,0.7-0.1,1c0,0.6,0.2,1.1,0.7,1.5c0.5,0.3,1.1,0.5,1.9,0.5c0.9,0,1.7-0.2,2.4-0.5
		c0.8-0.3,1.2-0.7,1.2-1.2s-0.1-1.4-0.2-2.6c-0.1-0.9-0.3-2-0.5-3.1l-0.3-1.5l-0.4-0.2c0-0.7,0.1-1.3,0.4-1.9h0.1
		c0,0.2,0.1,0.3,0.1,0.4c0.1,0.1,0.1,0.2,0.3,0.2c0.2,0.1,0.3,0.1,0.5,0.2c0.1,0.1,0.3,0.1,0.4,0.2c0,0.4,0,0.6,0,0.8
		s-0.1,0.4-0.2,0.7l-0.4-0.1c0,0.1,0.1,0.6,0.2,1.6c0.2,1.1,0.3,2,0.4,2.6C270.5,64.6,270.6,65.5,270.6,66z"/>
	<path class="st4" d="M280.2,67h-5.8c-1.2,0-2.1-0.1-2.7-0.4s-0.8-0.9-0.8-1.6c0-0.5,0.1-1,0.4-1.6c0.1-0.2,0.2-0.5,0.4-0.9l0.3,0.2
		c-0.2,0.4-0.3,0.7-0.3,0.9s-0.1,0.4-0.1,0.6c0,0.6,0.3,1,0.9,1.2c0.4,0.2,1.1,0.3,2,0.3h5l-1-6.6l-0.4-0.2c0-0.4,0-0.7,0.1-1
		s0.2-0.6,0.3-0.9l0.1,0.1c0,0.3,0.2,0.5,0.6,0.7l0.8,0.3c0,0.2,0,0.5-0.1,0.8s-0.1,0.5-0.2,0.7l-0.4-0.1l0.9,6.1L280.2,67L280.2,67
		z M277.3,62.2c0,0.6-0.2,1-0.6,1.3s-0.9,0.5-1.6,0.5c-0.3,0-0.7,0-1.1-0.1c-0.2-0.1-0.6-0.1-1-0.3l0.1-0.2c0.1,0,0.3,0,0.5,0
		c0.4,0,0.7,0.1,0.8,0.1c0.6,0,1.1-0.1,1.5-0.3c0.4-0.2,0.6-0.4,0.6-0.6c0-0.1,0-0.2-0.1-0.3c-0.1-0.1-0.2-0.1-0.3-0.1
		c-0.1,0-0.2,0-0.3,0h-0.5c-0.1,0-0.2,0-0.3-0.1c-0.1-0.1-0.1-0.2-0.1-0.3c0-0.4,0.2-1,0.7-1.6s0.9-1,1.4-1.2l-0.1,1
		c-0.4,0.1-0.6,0.2-0.8,0.3c-0.3,0.2-0.5,0.4-0.5,0.7c0,0.1,0,0.2,0.1,0.2s0.2,0.1,0.3,0.1c0.1,0,0.2,0,0.3,0l0.4-0.1
		c0.3,0,0.5,0.1,0.6,0.2S277.3,61.9,277.3,62.2z"/>
	<path class="st4" d="M288.3,66c0,0.8-0.2,1.5-0.6,2c-0.3,0.4-0.9,0.7-1.5,0.9s-1.3,0.2-2.2,0.2c-1,0-1.8-0.2-2.3-0.6
		c-0.6-0.4-0.9-1-0.9-1.8c0-0.4,0.1-0.9,0.2-1.4c0.1-0.4,0.3-0.9,0.5-1.4c0.2-0.4,0.4-0.8,0.7-1.3l0.3,0.1c-0.2,0.3-0.4,0.7-0.5,0.9
		c-0.2,0.4-0.3,0.7-0.4,1c-0.1,0.4-0.1,0.7-0.1,1c0,0.6,0.2,1.1,0.7,1.5c0.5,0.3,1.1,0.5,1.9,0.5c0.9,0,1.7-0.2,2.4-0.5
		c0.8-0.3,1.2-0.7,1.2-1.2s-0.1-1.4-0.2-2.6c-0.1-0.9-0.3-2-0.5-3.1l-0.3-1.5l-0.4-0.2c0-0.7,0.1-1.3,0.4-1.9h0.1
		c0,0.2,0.1,0.3,0.1,0.4c0.1,0.1,0.1,0.2,0.3,0.2c0.2,0.1,0.3,0.1,0.5,0.2c0.1,0.1,0.3,0.1,0.4,0.2c0,0.4,0,0.6,0,0.8
		s-0.1,0.4-0.2,0.7l-0.4-0.1c0,0.1,0.1,0.6,0.2,1.6c0.2,1.1,0.3,2,0.4,2.6C288.2,64.6,288.3,65.5,288.3,66z"/>
	<path class="st4" d="M305.9,67h-0.6c-0.3,0-0.6,0-0.8-0.1c-0.2-0.1-0.5-0.2-0.7-0.4c-0.2,0.2-0.4,0.3-0.6,0.4
		c-0.2,0.1-0.6,0.1-1.1,0.1h-1c0,0.5-0.1,0.9-0.3,1.4c-0.3,0.6-0.8,1.1-1.4,1.4c-0.8,0.4-1.7,0.6-2.9,0.6c-1,0-1.8-0.2-2.4-0.5
		c-0.6-0.4-0.9-1-0.9-1.8c0-0.4,0.1-0.9,0.2-1.4s0.3-0.9,0.4-1.4c0.1-0.3,0.3-0.7,0.6-1.3l0.3,0.1c-0.4,0.8-0.6,1.3-0.7,1.8
		c-0.1,0.4-0.2,0.8-0.2,1.2c0,0.6,0.2,1.1,0.7,1.5c0.5,0.4,1.1,0.5,2,0.5c1,0,1.9-0.2,2.7-0.5c1-0.4,1.5-1,1.5-1.8
		c0-0.5-0.1-1-0.3-1.5c-0.2-0.4-0.4-0.7-0.6-1.1l0.6-1.6c0.3,0.4,0.4,0.8,0.5,1.1c0.1,0.5,0.2,1.1,0.2,1.9h1c0.5,0,0.8-0.1,1.1-0.2
		c0.2-0.1,0.3-0.3,0.3-0.6c0-0.2,0-0.3,0-0.5s0-0.3-0.1-0.5l0.3-0.5l0.1,0.8c0.1,0.5,0.3,0.9,0.5,1.1c0.2,0.3,0.5,0.4,0.9,0.4
		c0.1,0,0.2,0,0.3-0.1c0.1-0.1,0.1-0.2,0.1-0.3c0-0.3-0.1-0.5-0.2-0.8c-0.1-0.2-0.3-0.4-0.5-0.7l0.5-0.9c0.2,0.4,0.4,0.7,0.4,0.8
		c0.1,0.3,0.2,0.8,0.2,1.4v2H305.9z M303.5,60.6l-0.6,1.1l-1.3-0.7l0.6-1.1L303.5,60.6z M303.7,58.5l-0.6,1.1l-1.3-0.7l0.6-1.1
		L303.7,58.5z M305.2,59.9l-0.6,1.1l-1.3-0.7l0.6-1.1L305.2,59.9z"/>
	<path class="st4" d="M310.1,64.7c0,0.7-0.1,1.3-0.4,1.7c-0.4,0.6-1,0.9-2,0.9c-0.4,0-0.7-0.1-0.9-0.2c-0.3-0.2-0.4-0.4-0.4-0.7
		c0-0.4,0.1-0.8,0.3-1.3c0.2-0.4,0.3-0.8,0.5-1.2h-0.1l0.5-1.3c0.9,0.5,1.5,0.8,1.7,0.9C309.7,63.8,310.1,64.2,310.1,64.7z
		 M309.4,65.3c0-0.2-0.3-0.5-0.9-0.8c-0.2-0.1-0.5-0.3-0.8-0.4c-0.2,0.3-0.4,0.4-0.4,0.5c-0.1,0.2-0.2,0.4-0.2,0.6
		c0,0.3,0.1,0.5,0.2,0.6c0.1,0.1,0.3,0.2,0.6,0.2c0.3,0,0.6-0.1,1-0.2C309.3,65.7,309.4,65.5,309.4,65.3z"/>
	<path class="st4" d="M318.2,67c0,0.6-0.2,1.2-0.7,1.8c-0.4,0.5-1,1-1.6,1.4c-0.6,0.4-1.1,0.6-1.5,0.6s-0.7-0.1-1.2-0.2
		c-0.3-0.1-0.7-0.2-1.1-0.4c-0.4-0.1-0.7-0.3-1.1-0.4l0.1-0.3c0.3,0.1,0.7,0.1,1.1,0.2c0.4,0.1,0.7,0.1,1,0.1c0.7,0,1.4-0.2,2.1-0.6
		c0.7-0.4,1.2-0.9,1.7-1.5c0.5-0.6,0.7-1.1,0.7-1.6c0-0.4-0.1-0.8-0.4-1.3c-0.2-0.4-0.5-0.7-0.8-1.1l0.4-1.2
		c0.4,0.4,0.7,0.8,0.9,1.2c0.2,0.4,0.3,0.9,0.3,1.5V67H318.2z"/>
</g>
<g>
	<path class="st4" d="M447.6,294.9c0,0.6-0.2,1.2-0.7,1.8c-0.4,0.5-1,1-1.6,1.4s-1.1,0.6-1.5,0.6s-0.7-0.1-1.2-0.2
		c-0.3-0.1-0.7-0.2-1.1-0.4c-0.4-0.1-0.7-0.3-1.1-0.4l0.1-0.3c0.3,0.1,0.7,0.1,1.1,0.2s0.7,0.1,1,0.1c0.7,0,1.4-0.2,2.1-0.6
		c0.7-0.4,1.2-0.9,1.7-1.5s0.7-1.1,0.7-1.6c0-0.4-0.1-0.8-0.4-1.3c-0.2-0.4-0.5-0.7-0.8-1.1l0.4-1.2c0.4,0.4,0.7,0.8,0.9,1.2
		c0.2,0.4,0.3,0.9,0.3,1.5L447.6,294.9L447.6,294.9z"/>
	<path class="st4" d="M450.4,284.4c0,0.1-0.1,0.2-0.2,0.4c-0.1,0.1-0.3,0.1-0.5,0.2l-1.5,0.5c0-0.2,0.3-0.5,0.8-0.6
		c-0.2-0.1-0.3-0.2-0.4-0.2c-0.1-0.1-0.2-0.2-0.2-0.3c0-0.2,0.1-0.4,0.4-0.7c0.3-0.3,0.6-0.5,0.8-0.5c0.1,0,0.2,0,0.3,0.1
		s0.1,0.2,0.1,0.3c0,0.1,0,0.1,0,0.2s-0.1,0.2-0.1,0.3c-0.2-0.1-0.3-0.2-0.5-0.2c-0.1,0-0.2,0-0.3,0.1s-0.2,0.1-0.2,0.2
		s0.1,0.2,0.4,0.3s0.4,0.2,0.6,0.2c0.1,0,0.2,0,0.2,0S450.3,284.5,450.4,284.4z M450.2,292.9c0,0.4-0.1,0.8-0.2,1.2
		c-0.1,0.2-0.2,0.5-0.5,1l-0.1-0.1c0-0.2,0-0.3,0-0.5s0-0.3,0-0.4c0-0.5,0-1.3-0.1-2.3s-0.2-2-0.3-3c-0.1-0.6-0.2-1.3-0.2-2
		c0.1-0.2,0.2-0.5,0.4-0.7s0.3-0.5,0.4-0.8c0.1,0.6,0.2,1.4,0.3,2.4s0.2,2,0.3,2.8C450.1,291.6,450.2,292.4,450.2,292.9z"/>
	<path class="st4" d="M464,294.9h-0.6c-0.3,0-0.6,0-0.8-0.1s-0.5-0.2-0.7-0.4c-0.2,0.2-0.4,0.3-0.6,0.4c-0.2,0.1-0.6,0.1-1.1,0.1h-1
		c0,0.5-0.1,0.9-0.3,1.4c-0.3,0.6-0.8,1.1-1.4,1.4c-0.8,0.4-1.7,0.6-2.9,0.6c-1,0-1.8-0.2-2.4-0.5c-0.6-0.4-0.9-1-0.9-1.8
		c0-0.4,0.1-0.9,0.2-1.4s0.3-0.9,0.4-1.4c0.1-0.3,0.3-0.7,0.6-1.3l0.3,0.1c-0.4,0.8-0.6,1.3-0.7,1.8s-0.2,0.8-0.2,1.2
		c0,0.6,0.2,1.1,0.7,1.5s1.1,0.5,2,0.5c1,0,1.9-0.2,2.7-0.5c1-0.4,1.5-1,1.5-1.8c0-0.5-0.1-1-0.3-1.5c-0.2-0.4-0.4-0.7-0.6-1.1
		l0.6-1.6c0.3,0.4,0.4,0.8,0.5,1.1c0.1,0.5,0.2,1.1,0.2,1.9h1c0.5,0,0.8-0.1,1.1-0.2c0.2-0.1,0.3-0.3,0.3-0.6c0-0.2,0-0.3,0-0.5
		s0-0.3-0.1-0.5l0.3-0.5l0.1,0.8c0.1,0.5,0.3,0.9,0.5,1.1c0.2,0.3,0.5,0.4,0.9,0.4c0.1,0,0.2,0,0.3-0.1s0.1-0.2,0.1-0.3
		c0-0.3-0.1-0.5-0.2-0.8c-0.1-0.2-0.3-0.4-0.5-0.7l0.5-0.9c0.2,0.4,0.4,0.7,0.4,0.8c0.1,0.3,0.2,0.8,0.2,1.4L464,294.9L464,294.9z"
		/>
	<path class="st4" d="M471.1,292.9c0,0.4-0.1,0.8-0.2,1.2c-0.1,0.2-0.2,0.5-0.5,1l-0.1-0.1c0-0.2,0-0.3,0-0.5s0-0.3,0-0.4
		c0-0.5,0-1.3-0.1-2.3s-0.2-2-0.3-3c-0.1-0.6-0.2-1.3-0.2-2c0.1-0.2,0.2-0.5,0.4-0.7s0.3-0.5,0.4-0.8c0.1,0.6,0.2,1.4,0.3,2.4
		s0.2,2,0.3,2.8C471,291.6,471.1,292.4,471.1,292.9z"/>
	<path class="st4" d="M479.9,293.9c0,0.8-0.2,1.5-0.6,2c-0.3,0.4-0.9,0.7-1.5,0.9c-0.6,0.2-1.3,0.2-2.2,0.2c-1,0-1.8-0.2-2.3-0.6
		c-0.6-0.4-0.9-1-0.9-1.8c0-0.4,0.1-0.9,0.2-1.4c0.1-0.4,0.3-0.9,0.5-1.4c0.2-0.4,0.4-0.8,0.7-1.3l0.3,0.1c-0.2,0.3-0.4,0.7-0.5,0.9
		c-0.2,0.4-0.3,0.7-0.4,1c-0.1,0.4-0.1,0.7-0.1,1c0,0.6,0.2,1.1,0.7,1.5s1.1,0.5,1.9,0.5c0.9,0,1.7-0.2,2.4-0.5
		c0.8-0.3,1.2-0.7,1.2-1.2s-0.1-1.4-0.2-2.6c-0.1-0.9-0.3-2-0.5-3.1l-0.3-1.5l-0.4-0.2c0-0.7,0.1-1.3,0.4-1.9h0.1
		c0,0.2,0.1,0.3,0.1,0.4s0.1,0.2,0.3,0.2c0.2,0.1,0.3,0.1,0.5,0.2c0.1,0.1,0.3,0.1,0.4,0.2c0,0.4,0,0.6,0,0.8s-0.1,0.4-0.2,0.7
		l-0.4-0.1c0,0.1,0.1,0.6,0.2,1.6c0.2,1.1,0.3,2,0.4,2.6C479.8,292.5,479.9,293.4,479.9,293.9z"/>
	<path class="st4" d="M485.3,294.9h-0.9c-0.9,0-1.6,0.1-2.3,0.2c-0.8,0.2-1.2,0.5-1.2,0.9c0,0.3,0.1,0.7,0.2,1.1s0.2,0.8,0.4,1.2
		c0.1,0.4,0.2,0.8,0.2,1.1c0,0.2,0,0.4,0,0.5c0,0.2-0.1,0.4-0.2,0.6c-0.1-0.4-0.3-0.9-0.4-1.3c-0.3-0.8-0.4-1.4-0.6-1.9
		c-0.2-0.7-0.3-1.1-0.3-1.2c0-0.7,0.1-1.2,0.4-1.5s0.7-0.6,1.3-0.8c0.5-0.1,1.1-0.3,2.1-0.3c-0.3-0.3-0.5-0.5-0.6-0.6
		c-0.3-0.2-0.5-0.3-0.8-0.3c-0.2,0-0.3,0.1-0.5,0.2c-0.1,0.1-0.3,0.2-0.5,0.4l-0.4-0.2c0.2-0.4,0.3-0.7,0.5-0.9
		c0.3-0.4,0.7-0.6,1.2-0.6c0.3,0,0.6,0.1,1,0.4c0.3,0.2,0.5,0.5,0.8,0.8c0.1,0.2,0.3,0.5,0.6,0.9V294.9z"/>
	<path class="st4" d="M487.9,292.9c0,0.4-0.1,0.8-0.2,1.2c-0.1,0.2-0.2,0.5-0.5,1l-0.1-0.1c0-0.2,0-0.3,0-0.5s0-0.3,0-0.4
		c0-0.5,0-1.3-0.1-2.3s-0.2-2-0.3-3c-0.1-0.6-0.2-1.3-0.2-2c0.1-0.2,0.2-0.5,0.4-0.7s0.3-0.5,0.4-0.8c0.1,0.6,0.2,1.4,0.3,2.4
		s0.2,2,0.3,2.8C487.9,291.6,487.9,292.4,487.9,292.9z"/>
	<path class="st4" d="M496.7,293.9c0,0.8-0.2,1.5-0.6,2c-0.3,0.4-0.9,0.7-1.5,0.9c-0.6,0.2-1.3,0.2-2.2,0.2c-1,0-1.8-0.2-2.3-0.6
		c-0.6-0.4-0.9-1-0.9-1.8c0-0.4,0.1-0.9,0.2-1.4c0.1-0.4,0.3-0.9,0.5-1.4c0.2-0.4,0.4-0.8,0.7-1.3l0.3,0.1c-0.2,0.3-0.4,0.7-0.5,0.9
		c-0.2,0.4-0.3,0.7-0.4,1c-0.1,0.4-0.1,0.7-0.1,1c0,0.6,0.2,1.1,0.7,1.5s1.1,0.5,1.9,0.5c0.9,0,1.7-0.2,2.4-0.5
		c0.8-0.3,1.2-0.7,1.2-1.2s-0.1-1.4-0.2-2.6c-0.1-0.9-0.3-2-0.5-3.1l-0.3-1.5l-0.4-0.2c0-0.7,0.1-1.3,0.4-1.9h0.1
		c0,0.2,0.1,0.3,0.1,0.4s0.1,0.2,0.3,0.2c0.2,0.1,0.3,0.1,0.5,0.2c0.1,0.1,0.3,0.1,0.4,0.2c0,0.4,0,0.6,0,0.8s-0.1,0.4-0.2,0.7
		l-0.4-0.1c0,0.1,0.1,0.6,0.2,1.6c0.2,1.1,0.3,2,0.4,2.6C496.6,292.5,496.7,293.4,496.7,293.9z"/>
</g>
<g>
	<path class="st4" d="M569.8,282.3c0,0.4-0.1,0.8-0.2,1.2c-0.1,0.2-0.2,0.5-0.5,1l-0.1-0.1c0-0.2,0-0.3,0-0.5s0-0.3,0-0.4
		c0-0.5,0-1.3-0.1-2.3s-0.2-2-0.3-3c-0.1-0.6-0.2-1.3-0.2-2c0.1-0.2,0.2-0.5,0.4-0.7c0.2-0.2,0.3-0.5,0.4-0.8
		c0.1,0.6,0.2,1.4,0.3,2.4s0.2,2,0.3,2.8C569.7,281,569.8,281.8,569.8,282.3z"/>
	<path class="st4" d="M578.6,283.3c0,0.8-0.2,1.5-0.6,2c-0.3,0.4-0.9,0.7-1.5,0.9c-0.6,0.2-1.3,0.2-2.2,0.2c-1,0-1.8-0.2-2.3-0.6
		c-0.6-0.4-0.9-1-0.9-1.8c0-0.4,0.1-0.9,0.2-1.4c0.1-0.4,0.3-0.9,0.5-1.4c0.2-0.4,0.4-0.8,0.7-1.3l0.3,0.1c-0.2,0.3-0.4,0.7-0.5,0.9
		c-0.2,0.4-0.3,0.7-0.4,1c-0.1,0.4-0.1,0.7-0.1,1c0,0.6,0.2,1.1,0.7,1.5c0.5,0.3,1.1,0.5,1.9,0.5c0.9,0,1.7-0.2,2.4-0.5
		c0.8-0.3,1.2-0.7,1.2-1.2s-0.1-1.4-0.2-2.6c-0.1-0.9-0.3-2-0.5-3.1L577,276l-0.4-0.2c0-0.7,0.1-1.3,0.4-1.9h0.1
		c0,0.2,0.1,0.3,0.1,0.4c0.1,0.1,0.1,0.2,0.3,0.2c0.2,0.1,0.3,0.1,0.5,0.2c0.1,0.1,0.3,0.1,0.4,0.2c0,0.4,0,0.6,0,0.8
		s-0.1,0.4-0.2,0.7l-0.4-0.1c0,0.1,0.1,0.6,0.2,1.6c0.2,1.1,0.3,2,0.4,2.6C578.5,281.8,578.6,282.8,578.6,283.3z"/>
	<path class="st4" d="M586.8,288.7l-2,1.3c-1.1,0-1.9,0-2.5-0.1c-1-0.2-1.8-0.5-2.4-0.9c-0.7-0.6-1.1-1.4-1.1-2.4
		c0-0.6,0.1-1.2,0.3-1.7c0.2-0.4,0.4-0.8,0.7-1.2c0.1-0.2,0.4-0.4,0.8-0.8c-0.5-0.3-0.8-0.5-1-0.6c-0.4-0.4-0.6-0.9-0.6-1.5
		c0-0.6,0.2-1.1,0.7-1.6c0.5-0.6,1.2-0.9,1.9-0.9c0.3,0,0.7,0.1,1.1,0.3c0.3,0.1,0.6,0.3,1,0.6c-0.5,0-1,0-1.6,0.1
		c-0.7,0.1-1.3,0.2-1.7,0.4c-0.5,0.2-0.8,0.5-0.8,0.8s0.3,0.6,0.9,0.9c0.5,0.2,1.1,0.4,1.7,0.5c0.5-0.3,1-0.5,1.5-0.7
		c0.6-0.2,1.1-0.4,1.7-0.5l-0.3,1.2c-1.1,0.4-1.9,0.7-2.3,1c-1,0.5-1.7,0.9-2.2,1.4c-0.7,0.6-1,1.3-1,2s0.3,1.3,0.8,1.7
		s1.2,0.6,2.1,0.8c0.7,0.1,1.7,0.2,2.8,0.2c0.2,0,0.5,0,0.7,0C586.3,288.5,586.6,288.5,586.8,288.7L586.8,288.7z"/>
	<path class="st4" d="M596.6,284.7c0,1-0.5,1.8-1.5,2.4c-0.9,0.5-2.1,0.7-3.5,0.7c-1.2,0-2.1-0.2-2.7-0.6c-0.7-0.5-1-1.1-1-2
		c0-0.6,0.1-1.3,0.3-1.9c0.2-0.6,0.4-1.3,0.8-1.9l0.3,0.1c-0.2,0.4-0.3,0.7-0.4,1c-0.1,0.4-0.2,0.7-0.3,1s-0.1,0.7-0.1,1
		c0,0.7,0.3,1.2,0.9,1.5c0.5,0.3,1.3,0.4,2.4,0.4c1.1,0,2.1-0.2,2.9-0.5c1-0.4,1.4-1,1.4-1.7c0-0.3,0-0.5,0-0.6
		c0-0.1-0.1-0.2-0.1-0.4c-0.2,0.1-0.4,0.2-0.6,0.2c-0.2,0.1-0.4,0.1-0.6,0.1c-0.5,0-0.8-0.1-1.1-0.3c-0.3-0.3-0.5-0.6-0.5-1.1
		c0-0.6,0.2-1.2,0.5-1.7c0.3-0.6,0.7-0.9,1.2-0.9c0.6,0,1.1,0.4,1.4,1.3c0.3,0.7,0.5,1.5,0.5,2.5v1.4H596.6z M593.9,277l-0.6,1.1
		l-1.3-0.7l0.6-1.1L593.9,277z M595.3,281.8c-0.1-0.3-0.2-0.5-0.3-0.6c-0.1-0.2-0.3-0.3-0.5-0.3c-0.3,0-0.4,0.1-0.6,0.2
		c-0.2,0.1-0.2,0.3-0.2,0.5s0.1,0.3,0.2,0.4c0.2,0.1,0.3,0.1,0.5,0.1c0.1,0,0.3,0,0.4-0.1C594.9,281.8,595.1,281.8,595.3,281.8z
		 M595.6,276.3l-0.6,1.1l-1.3-0.7l0.6-1.1L595.6,276.3z"/>
	<path class="st4" d="M599.2,282.3c0,0.4-0.1,0.8-0.2,1.2c-0.1,0.2-0.2,0.5-0.5,1l-0.1-0.1c0-0.2,0-0.3,0-0.5s0-0.3,0-0.4
		c0-0.5,0-1.3-0.1-2.3s-0.2-2-0.3-3c-0.1-0.6-0.2-1.3-0.2-2c0.1-0.2,0.2-0.5,0.4-0.7c0.2-0.2,0.3-0.5,0.4-0.8
		c0.1,0.6,0.2,1.4,0.3,2.4s0.2,2,0.3,2.8C599.2,281,599.2,281.8,599.2,282.3z"/>
	<path class="st4" d="M607.7,284.3c0,0.6-0.2,1.2-0.7,1.8c-0.4,0.5-1,1-1.6,1.4c-0.6,0.4-1.1,0.6-1.5,0.6s-0.7-0.1-1.2-0.2
		c-0.3-0.1-0.7-0.2-1.1-0.4c-0.4-0.1-0.7-0.3-1.1-0.4l0.1-0.3c0.3,0.1,0.7,0.1,1.1,0.2c0.4,0.1,0.7,0.1,1,0.1c0.7,0,1.4-0.2,2.1-0.6
		c0.7-0.4,1.2-0.9,1.7-1.5c0.5-0.6,0.7-1.1,0.7-1.6c0-0.4-0.1-0.8-0.4-1.3c-0.2-0.4-0.5-0.7-0.8-1.1l0.4-1.2
		c0.4,0.4,0.7,0.8,0.9,1.2c0.2,0.4,0.3,0.9,0.3,1.5L607.7,284.3L607.7,284.3z"/>
	<path class="st4" d="M610.3,282.3c0,0.4-0.1,0.8-0.2,1.2c-0.1,0.2-0.2,0.5-0.5,1l-0.1-0.1c0-0.2,0-0.3,0-0.5s0-0.3,0-0.4
		c0-0.5,0-1.3-0.1-2.3s-0.2-2-0.3-3c-0.1-0.6-0.2-1.3-0.2-2c0.1-0.2,0.2-0.5,0.4-0.7c0.2-0.2,0.3-0.5,0.4-0.8
		c0.1,0.6,0.2,1.4,0.3,2.4s0.2,2,0.3,2.8C610.3,281,610.3,281.8,610.3,282.3z"/>
	<path class="st4" d="M622.4,284.3h-7.5c-1,0-1.8-0.2-2.4-0.5c-0.7-0.4-1.1-1.1-1.1-2.1c0-0.5,0.1-1,0.3-1.5c0.1-0.2,0.3-0.5,0.6-1
		l0.2,0.1c-0.1,0.2-0.2,0.5-0.3,0.7c-0.2,0.4-0.2,0.7-0.2,1c0,0.6,0.3,1.1,1,1.4c0.6,0.3,1.3,0.5,2.2,0.5h6.6v-0.2
		c0-0.6-0.1-1.1-0.2-1.4c-0.1-0.3-0.4-0.7-0.7-0.9l0.6-1.3c0.2,0.3,0.4,0.5,0.4,0.5c0.4,0.6,0.5,1.4,0.5,2.5L622.4,284.3
		L622.4,284.3z M617,277.8l-0.6,1.1l-1.3-0.7l0.6-1.1L617,277.8z M618.7,277.2l-0.6,1.1l-1.3-0.7l0.6-1.1L618.7,277.2z"/>
	<path class="st4" d="M629.5,282.3c0,0.4-0.1,0.8-0.2,1.2c-0.1,0.2-0.2,0.5-0.5,1l-0.1-0.1c0-0.2,0-0.3,0-0.5s0-0.3,0-0.4
		c0-0.5,0-1.3-0.1-2.3s-0.2-2-0.3-3c-0.1-0.6-0.2-1.3-0.2-2c0.1-0.2,0.2-0.5,0.4-0.7c0.2-0.2,0.3-0.5,0.4-0.8
		c0.1,0.6,0.2,1.4,0.3,2.4s0.2,2,0.3,2.8C629.5,281,629.5,281.8,629.5,282.3z"/>
	<path class="st4" d="M638.3,283.3c0,0.8-0.2,1.5-0.6,2c-0.3,0.4-0.9,0.7-1.5,0.9c-0.6,0.2-1.3,0.2-2.2,0.2c-1,0-1.8-0.2-2.3-0.6
		c-0.6-0.4-0.9-1-0.9-1.8c0-0.4,0.1-0.9,0.2-1.4c0.1-0.4,0.3-0.9,0.5-1.4c0.2-0.4,0.4-0.8,0.7-1.3l0.3,0.1c-0.2,0.3-0.4,0.7-0.5,0.9
		c-0.2,0.4-0.3,0.7-0.4,1c-0.1,0.4-0.1,0.7-0.1,1c0,0.6,0.2,1.1,0.7,1.5c0.5,0.3,1.1,0.5,1.9,0.5c0.9,0,1.7-0.2,2.4-0.5
		c0.8-0.3,1.2-0.7,1.2-1.2s-0.1-1.4-0.2-2.6c-0.1-0.9-0.3-2-0.5-3.1l-0.3-1.5l-0.4-0.2c0-0.7,0.1-1.3,0.4-1.9h0.1
		c0,0.2,0.1,0.3,0.1,0.4c0.1,0.1,0.1,0.2,0.3,0.2c0.2,0.1,0.3,0.1,0.5,0.2c0.1,0.1,0.3,0.1,0.4,0.2c0,0.4,0,0.6,0,0.8
		s-0.1,0.4-0.2,0.7l-0.4-0.1c0,0.1,0.1,0.6,0.2,1.6c0.2,1.1,0.3,2,0.4,2.6C638.2,281.8,638.3,282.8,638.3,283.3z"/>
	<path class="st4" d="M649.7,284.3h-7.5c-1,0-1.8-0.2-2.4-0.5c-0.7-0.4-1.1-1.1-1.1-2.1c0-0.5,0.1-1,0.3-1.5c0.1-0.2,0.3-0.5,0.6-1
		l0.2,0.1c-0.1,0.2-0.2,0.5-0.3,0.7c-0.2,0.4-0.2,0.7-0.2,1c0,0.6,0.3,1.1,1,1.4c0.6,0.3,1.3,0.5,2.2,0.5h6.6v-0.2
		c0-0.6-0.1-1.1-0.2-1.4c-0.1-0.3-0.4-0.7-0.7-0.9l0.6-1.3c0.2,0.3,0.4,0.5,0.4,0.5c0.4,0.6,0.5,1.4,0.5,2.5L649.7,284.3
		L649.7,284.3z M644.2,277.8l-0.6,1.1l-1.3-0.7l0.6-1.1L644.2,277.8z M646,277.2l-0.6,1.1l-1.3-0.7l0.6-1.1L646,277.2z"/>
	<path class="st4" d="M653.5,281.2c-0.1,0-0.3,0-0.5,0c-0.2,0-0.3,0-0.4,0c-0.3,0-0.7,0-1.1,0.1c-0.3,0-0.6,0.1-1.1,0.2
		c0.2-0.6,0.4-1,0.6-1.1c0.4-0.4,1-0.6,2-0.6c0.3,0,1,0.1,2.1,0.2c0.5,0.1,0.9,0.1,1.3,0.1c0.2,0,0.4,0,0.7-0.1
		c0.3,0,0.5-0.1,0.7-0.1l-0.3,1.3c-1.1,0.2-2,0.4-2.8,0.6c-1.1,0.4-2,0.8-2.7,1.3c-0.8,0.6-1.2,1.4-1.2,2.3c0,1.1,0.6,2,1.8,2.5
		c1,0.5,2.4,0.7,4.1,0.7h1.4v0.1l-1.8,1.2h-0.5c-1.1,0-2.1-0.1-2.8-0.3c-0.9-0.3-1.6-0.7-2-1.2c-0.5-0.6-0.8-1.5-0.8-2.5
		c0-0.9,0.2-1.7,0.6-2.4c0.3-0.5,0.8-1,1.4-1.5C652.3,282,652.7,281.5,653.5,281.2z M655.7,284.5l-0.6,1.1l-1.3-0.7l0.6-1.1
		L655.7,284.5z"/>
	<path class="st4" d="M661.3,282.3c0,0.4-0.1,0.8-0.2,1.2c-0.1,0.2-0.2,0.5-0.5,1l-0.1-0.1c0-0.2,0-0.3,0-0.5s0-0.3,0-0.4
		c0-0.5,0-1.3-0.1-2.3s-0.2-2-0.3-3c-0.1-0.6-0.2-1.3-0.2-2c0.1-0.2,0.2-0.5,0.4-0.7c0.2-0.2,0.3-0.5,0.4-0.8
		c0.1,0.6,0.2,1.4,0.3,2.4s0.2,2,0.3,2.8C661.3,281,661.3,281.8,661.3,282.3z"/>
	<path class="st4" d="M669.8,284.3c0,0.6-0.2,1.2-0.7,1.8c-0.4,0.5-1,1-1.6,1.4c-0.6,0.4-1.1,0.6-1.5,0.6s-0.7-0.1-1.2-0.2
		c-0.3-0.1-0.7-0.2-1.1-0.4c-0.4-0.1-0.7-0.3-1.1-0.4l0.1-0.3c0.3,0.1,0.7,0.1,1.1,0.2c0.4,0.1,0.7,0.1,1,0.1c0.7,0,1.4-0.2,2.1-0.6
		c0.7-0.4,1.2-0.9,1.7-1.5c0.5-0.6,0.7-1.1,0.7-1.6c0-0.4-0.1-0.8-0.4-1.3c-0.2-0.4-0.5-0.7-0.8-1.1l0.4-1.2
		c0.4,0.4,0.7,0.8,0.9,1.2c0.2,0.4,0.3,0.9,0.3,1.5L669.8,284.3L669.8,284.3z"/>
	<path class="st4" d="M679.5,280.3c0,0.2,0,0.3,0,0.5s-0.1,0.3-0.1,0.4c-0.2-0.2-0.4-0.4-0.7-0.6c-0.3-0.1-0.5-0.2-0.8-0.2
		c-0.5,0-0.9,0.3-1.4,0.8s-0.7,0.9-0.7,1.2c0,0.1,0.1,0.2,0.2,0.2s0.3,0.1,0.6,0.1h0.6c0.4,0,0.7,0,0.8,0s0.4,0,0.6,0.1
		c0.2,0.1,0.4,0.2,0.4,0.6c0,1.3-0.6,2.3-1.7,3c-1,0.6-2.5,0.9-4.3,0.9c-0.9,0-1.6-0.2-2.1-0.5c-0.5-0.4-0.8-1-0.8-1.8
		c0-0.5,0.1-1.1,0.3-1.7c0.1-0.5,0.3-0.9,0.6-1.4c0,0,0.2-0.3,0.5-0.9l0.3,0.1c-0.3,0.6-0.6,1.1-0.8,1.6c-0.2,0.5-0.3,1-0.3,1.3
		c0,0.6,0.2,1.1,0.7,1.4c0.4,0.3,1.1,0.5,1.9,0.5c0.6,0,1.4-0.1,2.2-0.4c0.7-0.2,1.3-0.5,1.9-0.8s0.9-0.5,0.9-0.7
		c0-0.1,0-0.2-0.1-0.2s-0.2,0-0.3,0h-1.8c-0.2,0-0.4-0.1-0.6-0.2c-0.2-0.1-0.3-0.4-0.3-0.6c0-0.3,0.1-0.8,0.4-1.4
		c0.3-0.7,0.7-1.2,1.1-1.6c0.5-0.5,1.1-0.8,1.6-0.8c0.3,0,0.6,0.1,0.8,0.3C679.4,279.7,679.5,280,679.5,280.3z M674.8,288.8
		l-0.6,1.1l-1.3-0.7l0.6-1.1L674.8,288.8z M676.6,288l-0.6,1.1l-1.3-0.7l0.6-1.1L676.6,288z"/>
	<path class="st4" d="M681.9,277.7l-0.6,1.1L680,278l0.6-1.1L681.9,277.7z M684.4,282c0,0.7-0.1,1.3-0.4,1.7c-0.4,0.6-1,0.9-2,0.9
		c-0.4,0-0.7-0.1-0.9-0.2c-0.3-0.2-0.4-0.4-0.4-0.7c0-0.4,0.1-0.8,0.3-1.3c0.2-0.4,0.3-0.8,0.5-1.2h-0.1l0.5-1.3
		c0.9,0.5,1.5,0.8,1.7,0.9C684.1,281,684.4,281.5,684.4,282z M683.7,282.5c0-0.2-0.3-0.5-0.9-0.8c-0.2-0.1-0.5-0.3-0.8-0.4
		c-0.2,0.3-0.4,0.4-0.4,0.5c-0.1,0.2-0.2,0.4-0.2,0.6c0,0.3,0.1,0.5,0.2,0.6c0.1,0.1,0.3,0.2,0.6,0.2c0.3,0,0.6-0.1,1-0.2
		C683.6,283,683.7,282.8,683.7,282.5z M683.7,277l-0.6,1.1l-1.3-0.7l0.6-1.1L683.7,277z"/>
</g>
<g>
	<path d="M273.2,182.5h-1.7c-1.6,0-3,0.2-4.2,0.5c-1.5,0.4-2.3,0.9-2.3,1.6c0,0.6,0.1,1.3,0.3,2.1s0.4,1.5,0.7,2.2s0.3,1.4,0.3,2.1
		c0,0.4,0,0.7-0.1,1s-0.1,0.7-0.3,1.2c-0.3-0.8-0.5-1.6-0.7-2.4c-0.5-1.5-0.8-2.7-1-3.5c-0.4-1.3-0.5-2-0.5-2.3
		c0-1.3,0.3-2.2,0.8-2.9s1.3-1.2,2.4-1.5c0.9-0.3,2.2-0.5,3.9-0.6c-0.6-0.6-1-1-1.1-1.1c-0.5-0.4-1-0.6-1.5-0.6
		c-0.3,0-0.6,0.1-0.9,0.3c-0.2,0.2-0.5,0.4-0.8,0.8l-0.7-0.4c0.3-0.7,0.6-1.3,1-1.8c0.6-0.7,1.3-1.1,2.2-1.1c0.6,0,1.2,0.2,1.8,0.7
		c0.5,0.4,1,0.9,1.5,1.6c0.3,0.3,0.6,0.9,1.1,1.6v2.5H273.2z"/>
	<path d="M294.6,182.5h-14c-1.9,0-3.4-0.3-4.5-1c-1.4-0.8-2.1-2.1-2.1-3.9c0-0.9,0.2-1.8,0.6-2.8c0.1-0.3,0.5-1,1.1-1.9l0.4,0.3
		c-0.2,0.4-0.4,0.9-0.6,1.3c-0.3,0.7-0.4,1.3-0.4,1.9c0,1.2,0.6,2,1.8,2.7c1.1,0.6,2.5,0.8,4.1,0.8h12.4v-0.4c0-1.1-0.1-2-0.4-2.7
		s-0.7-1.3-1.3-1.8l1.1-2.4c0.4,0.5,0.7,0.9,0.8,1c0.7,1.1,1,2.7,1,4.8V182.5z M286.2,186.1l-1.1,2.1l-2.4-1.2l1.1-2.1L286.2,186.1z
		"/>
	<path d="M304.7,182.5h-6.6c-0.6,0-1.1-0.2-1.5-0.5s-0.7-0.7-0.7-1.1c0-0.4,0-0.7,0.1-1s0.1-0.6,0.2-1h0.3c0.1,0.4,0.3,0.7,0.6,0.9
		c0.2,0.1,0.6,0.2,1,0.2h5.7c0-1.7-0.2-3.2-0.7-4.2c-0.6-1.3-1.6-2.2-3-2.7l0.2-2.8c1.7,0.8,2.9,2.2,3.6,4c0.6,1.5,0.8,3.4,0.8,5.7
		V182.5z"/>
	<path d="M310.1,162.8c0,0.2-0.2,0.5-0.5,0.7c-0.2,0.1-0.5,0.3-0.9,0.4l-2.7,0.9c0-0.4,0.5-0.8,1.5-1.2c-0.3-0.2-0.5-0.3-0.7-0.5
		s-0.3-0.4-0.3-0.6c0-0.3,0.3-0.7,0.8-1.3c0.6-0.6,1.1-0.9,1.5-0.9c0.2,0,0.4,0.1,0.5,0.2c0.1,0.1,0.2,0.3,0.2,0.5
		c0,0.1,0,0.3-0.1,0.4c-0.1,0.1-0.1,0.3-0.2,0.5c-0.3-0.3-0.6-0.4-1-0.4c-0.2,0-0.4,0-0.6,0.1s-0.3,0.2-0.3,0.3s0.2,0.3,0.7,0.6
		s0.8,0.4,1.2,0.4c0.2,0,0.4,0,0.5,0C309.6,163,309.8,162.9,310.1,162.8z M309.7,178.8c0,0.8-0.1,1.5-0.4,2.3c-0.1,0.4-0.5,1-1,1.9
		l-0.3-0.1c0-0.3,0.1-0.6,0.1-1s0-0.6,0-0.7c0-1-0.1-2.4-0.2-4.3c-0.2-1.8-0.4-3.7-0.6-5.7c-0.1-1.2-0.3-2.4-0.5-3.7
		c0.2-0.4,0.4-0.9,0.7-1.4s0.5-1,0.7-1.4c0.2,1.1,0.4,2.6,0.6,4.6s0.4,3.7,0.6,5.2C309.6,176.3,309.7,177.8,309.7,178.8z"/>
	<path d="M340.7,182.5h-14c-1.9,0-3.4-0.3-4.5-1c-1.4-0.8-2.1-2.1-2.1-3.9c0-0.9,0.2-1.8,0.6-2.8c0.1-0.3,0.5-1,1.1-1.9l0.4,0.3
		c-0.2,0.4-0.4,0.9-0.6,1.3c-0.3,0.7-0.4,1.3-0.4,1.9c0,1.2,0.6,2,1.8,2.7c1.1,0.6,2.5,0.8,4.1,0.8h12.4v-0.4c0-1.1-0.1-2-0.4-2.7
		s-0.7-1.3-1.3-1.8l1.1-2.4c0.4,0.5,0.7,0.9,0.8,1c0.7,1.1,1,2.7,1,4.8V182.5z M330.5,170.6l-1.1,2.1l-2.4-1.2l1.1-2.1L330.5,170.6z
		 M333.8,169.2l-1.1,2.1l-2.4-1.2l1.1-2.1L333.8,169.2z"/>
	<path d="M365.3,182.5h-1.2c-0.6,0-1.1-0.1-1.5-0.2c-0.4-0.2-0.9-0.4-1.4-0.8c-0.4,0.4-0.8,0.6-1.1,0.7c-0.5,0.2-1.1,0.3-2,0.3h-1.8
		c0,0.9-0.2,1.8-0.6,2.6c-0.6,1.1-1.4,2-2.5,2.6c-1.4,0.8-3.2,1.2-5.4,1.2c-2,0-3.4-0.3-4.5-1c-1.1-0.8-1.7-1.9-1.7-3.5
		c0-0.8,0.1-1.7,0.3-2.5s0.5-1.7,0.8-2.6c0.2-0.5,0.6-1.3,1.1-2.4l0.6,0.3c-0.7,1.4-1.1,2.5-1.4,3.3s-0.3,1.6-0.3,2.2
		c0,1.2,0.4,2.1,1.3,2.8c0.9,0.6,2.1,0.9,3.7,0.9c1.9,0,3.5-0.3,5-1c1.8-0.8,2.8-1.9,2.8-3.4c0-1-0.2-1.9-0.5-2.8
		c-0.3-0.7-0.7-1.4-1.2-2l1.2-3c0.5,0.8,0.8,1.5,1,2.1c0.2,0.9,0.4,2.1,0.4,3.6h1.8c0.9,0,1.6-0.1,2-0.4c0.3-0.2,0.5-0.6,0.5-1.1
		c0-0.3,0-0.6-0.1-0.9s-0.1-0.6-0.2-0.9l0.6-0.9l0.2,1.4c0.2,1,0.5,1.6,0.9,2.1s1,0.7,1.7,0.7c0.2,0,0.4-0.1,0.5-0.2
		c0.1-0.1,0.2-0.3,0.2-0.5c0-0.5-0.2-1-0.5-1.6c-0.2-0.4-0.5-0.8-0.9-1.2l1-1.6c0.5,0.8,0.7,1.3,0.8,1.5c0.2,0.6,0.3,1.5,0.3,2.7
		v3.5H365.3z M360.8,170.5l-1.1,2.1l-2.4-1.2l1.1-2.1L360.8,170.5z M361.3,166.6l-1.1,2.1l-2.4-1.2l1.1-2.1L361.3,166.6z
		 M364.2,169.2l-1.1,2.1l-2.4-1.3l1.1-2.1L364.2,169.2z"/>
	<path d="M380.8,190.7l-3.7,2.4c-2,0-3.6-0.1-4.7-0.2c-1.9-0.3-3.4-0.8-4.5-1.7c-1.3-1.1-2-2.6-2-4.6c0-1.2,0.2-2.3,0.6-3.3
		c0.3-0.8,0.7-1.5,1.3-2.2c0.3-0.3,0.8-0.8,1.4-1.5c-0.9-0.5-1.6-0.9-1.9-1.2c-0.8-0.8-1.2-1.7-1.2-2.9c0-1,0.4-2.1,1.3-3
		c1-1.1,2.2-1.7,3.6-1.7c0.6,0,1.3,0.2,2,0.6c0.5,0.2,1.1,0.6,1.8,1.2c-1,0-1.9,0.1-2.9,0.2c-1.3,0.2-2.3,0.4-3.1,0.7
		c-1,0.4-1.5,0.8-1.5,1.4c0,0.6,0.6,1.2,1.7,1.7c0.9,0.4,2,0.8,3.2,1c1-0.5,1.9-1,2.9-1.3c1-0.4,2.1-0.8,3.2-1l-0.6,2.3
		c-2,0.8-3.5,1.4-4.4,1.8c-1.8,0.9-3.2,1.7-4.2,2.6c-1.2,1.2-1.9,2.4-1.9,3.7c0,1.4,0.5,2.5,1.6,3.3c0.9,0.7,2.2,1.2,4,1.5
		c1.4,0.2,3.2,0.3,5.3,0.3c0.5,0,0.9,0,1.4,0s0.9,0,1.4,0L380.8,190.7L380.8,190.7z M372.6,166l-1.1,2.1l-2.4-1.2l1.1-2.1L372.6,166
		z"/>
	<path d="M399.8,175.1c0,0.3,0,0.6-0.1,1c-0.1,0.3-0.1,0.6-0.1,0.7c-0.3-0.4-0.8-0.8-1.2-1s-1-0.4-1.4-0.4c-0.8,0-1.7,0.5-2.7,1.5
		c-0.9,0.9-1.3,1.6-1.3,2.2c0,0.2,0.1,0.3,0.3,0.4c0.2,0.1,0.6,0.1,1.1,0.1h1.2c0.7,0,1.2,0,1.6,0c0.3,0,0.7,0.1,1.2,0.1
		s0.7,0.4,0.7,1.1c0,2.5-1.1,4.3-3.2,5.6c-2,1.2-4.6,1.8-8,1.8c-1.7,0-3.1-0.3-4-1c-1-0.7-1.5-1.8-1.5-3.3c0-1,0.2-2.1,0.5-3.2
		c0.3-0.8,0.6-1.7,1.1-2.7c0-0.1,0.3-0.6,0.9-1.7l0.6,0.2c-0.6,1.1-1.1,2.1-1.4,3.1s-0.5,1.8-0.5,2.5c0,1.2,0.4,2.1,1.2,2.7
		s2,0.9,3.5,0.9c1.2,0,2.5-0.2,4.1-0.7c1.3-0.4,2.5-0.9,3.6-1.4s1.6-1,1.6-1.2s-0.1-0.3-0.2-0.4s-0.3-0.1-0.6-0.1h-3.4
		c-0.4,0-0.8-0.2-1.1-0.5s-0.5-0.7-0.5-1.2c0-0.7,0.3-1.5,0.8-2.7c0.6-1.2,1.3-2.2,2.1-3.1c1-1,2-1.5,3-1.5c0.6,0,1.2,0.2,1.5,0.6
		S399.8,174.4,399.8,175.1z M390.9,190.9l-1.1,2.1l-2.4-1.2l1.1-2.1L390.9,190.9z M394.3,189.6l-1.1,2.1l-2.4-1.2l1.1-2.1
		L394.3,189.6z"/>
	<path d="M416,180.7c0,1.6-0.4,2.8-1.1,3.7c-0.7,0.8-1.6,1.4-2.9,1.7c-1.1,0.3-2.4,0.4-4.1,0.4c-1.9,0-3.3-0.3-4.4-1
		c-1.1-0.8-1.7-1.9-1.7-3.4c0-0.8,0.1-1.7,0.4-2.6c0.2-0.8,0.5-1.6,0.9-2.5c0.3-0.7,0.7-1.5,1.2-2.4l0.5,0.3
		c-0.4,0.7-0.7,1.2-0.9,1.8c-0.3,0.7-0.6,1.3-0.7,1.9c-0.2,0.7-0.3,1.3-0.3,1.9c0,1.2,0.4,2.1,1.3,2.7s2.1,0.9,3.6,0.9
		c1.7,0,3.2-0.3,4.6-0.8c1.5-0.6,2.3-1.4,2.3-2.2c0-0.9-0.2-2.6-0.5-4.8c-0.2-1.7-0.5-3.7-0.9-5.8l-0.5-2.8l-0.7-0.4
		c0-1.3,0.3-2.5,0.8-3.6h0.2c0,0.4,0.1,0.6,0.2,0.8s0.3,0.3,0.5,0.4c0.3,0.1,0.6,0.3,1,0.5c0.3,0.1,0.5,0.2,0.7,0.3
		c0,0.7,0,1.2-0.1,1.5s-0.1,0.8-0.3,1.3l-0.8-0.3c0,0.2,0.2,1.2,0.4,2.9c0.3,2,0.5,3.7,0.7,5C415.9,178.1,416,179.6,416,180.7z"/>
	<path d="M313.2,214.8c0,0.8-0.1,1.5-0.4,2.3c-0.1,0.4-0.5,1-1,1.9l-0.3-0.1c0-0.3,0.1-0.6,0.1-1s0-0.6,0-0.7c0-1-0.1-2.4-0.2-4.3
		c-0.2-1.8-0.4-3.7-0.6-5.7c-0.1-1.2-0.3-2.4-0.5-3.7c0.2-0.4,0.4-0.9,0.7-1.4s0.5-1,0.7-1.4c0.2,1.1,0.4,2.6,0.6,4.6
		s0.4,3.7,0.6,5.2C313.1,212.3,313.2,213.8,313.2,214.8z"/>
	<path d="M329.6,216.7c0,1.6-0.4,2.8-1.1,3.7c-0.7,0.8-1.6,1.4-2.9,1.7c-1.1,0.3-2.4,0.4-4.1,0.4c-1.9,0-3.3-0.3-4.4-1
		c-1.1-0.8-1.7-1.9-1.7-3.4c0-0.8,0.1-1.7,0.4-2.6c0.2-0.8,0.5-1.6,0.9-2.5c0.3-0.7,0.7-1.5,1.2-2.4l0.5,0.3
		c-0.4,0.7-0.7,1.2-0.9,1.8c-0.3,0.7-0.6,1.3-0.7,1.9c-0.2,0.7-0.3,1.3-0.3,1.9c0,1.2,0.4,2.1,1.3,2.7s2.1,0.9,3.6,0.9
		c1.7,0,3.2-0.3,4.6-0.8c1.5-0.6,2.3-1.4,2.3-2.2c0-0.9-0.2-2.6-0.5-4.8c-0.2-1.7-0.5-3.7-0.9-5.8l-0.5-2.8l-0.7-0.4
		c0-1.3,0.3-2.5,0.8-3.6h0.2c0,0.4,0.1,0.6,0.2,0.8s0.3,0.3,0.5,0.4c0.3,0.1,0.6,0.3,1,0.5c0.3,0.1,0.5,0.2,0.7,0.3
		c0,0.7,0,1.2-0.1,1.5s-0.1,0.8-0.3,1.3l-0.8-0.3c0,0.2,0.2,1.2,0.4,2.9c0.3,2,0.5,3.7,0.7,5C329.5,214.1,329.6,215.6,329.6,216.7z"
		/>
	<path d="M345.4,218.5c0,2.2-0.6,3.8-1.9,4.8c-1.4,1.1-3.6,1.7-6.7,1.7c-2,0-3.4-0.3-4.5-1c-1.1-0.8-1.7-1.9-1.7-3.5
		c0-0.8,0.1-1.7,0.3-2.5s0.5-1.7,0.8-2.6c0.2-0.5,0.6-1.3,1.1-2.4l0.6,0.3c-0.7,1.4-1.1,2.5-1.4,3.3s-0.3,1.6-0.3,2.2
		c0,1.2,0.4,2.1,1.3,2.8c0.9,0.6,2.1,0.9,3.7,0.9c1.8,0,3.5-0.3,4.9-1c1.8-0.8,2.7-1.9,2.7-3.4c0-1-0.1-1.9-0.4-2.8
		c-0.3-0.8-0.6-1.4-1.1-2l1.2-3c0.5,0.8,0.9,1.6,1.1,2.4s0.3,1.9,0.3,3.3V218.5z M340,207.3l-1.1,2.1l-2.4-1.2l1.1-2.1L340,207.3z"
		/>
	<path d="M362.8,218.5h-18.5V216h2.2c0.7,0,1.3-0.1,1.9-0.3c0.7-0.2,1.4-0.6,2.3-1.1c0.2-0.4,0.3-0.9,0.4-1.4s0.2-1,0.2-1.4
		c0-1-0.1-2.2-0.3-3.5c-0.1-0.9-0.4-2-0.7-3.2c-0.2-0.6-0.4-1.4-0.6-2.4l-0.9-0.5c0.1-0.6,0.2-1.2,0.3-1.7s0.3-1.1,0.5-1.6
		c0.2,0.5,0.5,0.8,1.1,1.1c0.5,0.2,1,0.3,1.8,0.4c-0.1,1-0.2,1.6-0.2,1.9s-0.1,0.6-0.3,1c-0.1,0-0.2-0.1-0.5-0.1l-0.2-0.1
		c0.3,1.1,0.6,2.3,0.8,3.5s0.3,2.2,0.3,3c0,0.7-0.1,1.5-0.2,2.3c0,0.3-0.1,0.8-0.3,1.4c1.7-1,2.8-1.6,3.3-1.8c1.4-0.7,2.7-1,3.7-1
		c1.3,0,2.3,0.4,3,1.2c0.6,0.7,0.9,1.7,0.9,3L362.8,218.5L362.8,218.5z M360.5,214.8c0-0.5-0.3-0.9-0.8-1.1s-1.2-0.4-2.2-0.4
		c-0.7,0-1.5,0.2-2.5,0.5c-0.8,0.3-1.6,0.6-2.4,1.1c-0.6,0.3-1.3,0.7-2,1.1h6.4C359.4,216,360.5,215.6,360.5,214.8z M358.9,204.9
		l-1.1,2.1l-2.4-1.2l1.1-2.1L358.9,204.9z"/>
	<path d="M367.8,214.8c0,0.8-0.1,1.5-0.4,2.3c-0.1,0.4-0.5,1-1,1.9l-0.3-0.1c0-0.3,0.1-0.6,0.1-1s0-0.6,0-0.7c0-1-0.1-2.4-0.2-4.3
		c-0.2-1.8-0.4-3.7-0.6-5.7c-0.1-1.2-0.3-2.4-0.5-3.7c0.2-0.4,0.4-0.9,0.7-1.4s0.5-1,0.7-1.4c0.2,1.1,0.4,2.6,0.6,4.6
		s0.4,3.7,0.6,5.2C367.7,212.3,367.8,213.8,367.8,214.8z"/>
	<path d="M379.2,218.5h-1.7c-1.6,0-3,0.2-4.2,0.5c-1.5,0.4-2.3,0.9-2.3,1.6c0,0.6,0.1,1.3,0.3,2.1s0.4,1.5,0.7,2.2s0.3,1.4,0.3,2.1
		c0,0.4,0,0.7-0.1,1s-0.1,0.7-0.3,1.2c-0.3-0.8-0.5-1.6-0.7-2.4c-0.5-1.5-0.8-2.7-1-3.5c-0.4-1.3-0.5-2-0.5-2.3
		c0-1.3,0.3-2.2,0.8-2.9s1.3-1.2,2.4-1.5c0.9-0.3,2.2-0.5,3.9-0.6c-0.6-0.6-1-1-1.1-1.1c-0.5-0.4-1-0.6-1.5-0.6
		c-0.3,0-0.6,0.1-0.9,0.3c-0.2,0.2-0.5,0.4-0.8,0.8l-0.7-0.4c0.3-0.7,0.6-1.3,1-1.8c0.6-0.7,1.3-1.1,2.2-1.1c0.6,0,1.2,0.2,1.8,0.7
		c0.5,0.4,1,0.9,1.5,1.6c0.3,0.3,0.6,0.9,1.1,1.6v2.5H379.2z"/>
</g>
</svg>
