<?xml version="1.0" encoding="utf-8"?>
<!-- Generator: Adobe Illustrator 23.0.0, SVG Export Plug-In . SVG Version: 6.00 Build 0)  -->
<svg version="1.1" id="租金分红" xmlns="http://www.w3.org/2000/svg" xmlns:xlink="http://www.w3.org/1999/xlink" x="0px"
	 y="0px" viewBox="0 0 608 523" style="enable-background:new 0 0 608 523;" xml:space="preserve">
<style type="text/css">
	.st0{fill:none;stroke:#90A7AB;}
	.st1{fill:#9FE7DD;stroke:#34B9A1;stroke-width:2;}
	.st2{enable-background:new    ;}
	.st3{fill:#456E68;}
	.st4{fill:none;stroke:#456E68;stroke-width:1.5;stroke-miterlimit:10;}
</style>
<g id="组_29">
	<path id="形状_1" class="st0" d="M127.8,82.9h212.5l-4.8-5.5"/>
	<path id="形状_1_拷贝_6" class="st0" d="M342.1,103.1H129.8l4.8,5.5"/>
</g>
<g id="组_29_拷贝">
	<path id="形状_1-2" class="st0" d="M497.4,213v116l5.6-4.9"/>
	<path id="形状_1_拷贝_6-2" class="st0" d="M476.6,328.7V213l-5.6,4.9"/>
</g>
<path id="形状_1_拷贝_7" class="st0" d="M381,411H168.2l4.9-5.4"/>
<circle id="椭圆_6" class="st1" cx="482" cy="97" r="96"/>
<g class="st2">
	<path class="st3" d="M510.7,379h-10v10h10V379z M507.4,385.6h-3.3v-3.3h3.3V385.6z"/>
	<path class="st3" d="M524,379h-10v10h10V379z M520.7,385.6h-3.3v-3.3h3.3V385.6z"/>
	<path class="st3" d="M510.7,392.2h-10v10h10V392.2z M507.4,398.9h-3.3v-3.3h3.3V398.9z"/>
	<path class="st3" d="M524,392.2h-10v10h10V392.2z M520.7,398.9h-3.3v-3.3h3.3V398.9z"/>
	<path class="st3" d="M510.7,415.5v-10h-10v10H510.7z M504.1,408.8h3.3v3.3h-3.3V408.8z"/>
	<path class="st3" d="M524,405.5h-10v10h10V405.5z M520.7,412.2h-3.3v-3.3h3.3V412.2z"/>
	<path class="st3" d="M534,375.6v-3.3h-3.3v-6.6h-3.3V359h-29.9v6.6h-3.3v6.6h-3.3v3.3h3.3v43.2h-13.3v-19.9h3.3v-10h-3.3v-2.5
		l-23.3-16.1l-10,6.9V372h-10v12l-3.3,2.3v2.5H431v10h3.3V419c-1.9,0.7-3.3,2.5-3.3,4.7v3.3c0,2.7,2.2,5,5,5h32.4
		c-2.6,3.2-4.2,7.2-4.2,11.6c0,10.1,8.2,18.3,18.3,18.3s18.3-8.2,18.3-18.3c0-4.4-1.6-8.5-4.2-11.6H529c2.7,0,5-2.2,5-5v-3.3
		c0-2.2-1.4-4-3.3-4.7v-43.5h3.3V375.6z M500.8,362.3H524v3.3h-23.3L500.8,362.3L500.8,362.3z M497.5,369h29.9v3.3h-29.9L497.5,369
		L497.5,369z M441,375.4h3.3v4.1l-3.3,2.3V375.4z M437.7,388.1l19.9-13.8l19.9,13.8v0.8h-39.9v-0.8H437.7z M434.3,392.2h46.5v3.3
		h-46.5V392.2z M477.5,398.9v19.9h-13.3v-16.6H451v16.6h-13.3v-19.9H477.5z M460.9,418.8h-6.6v-13.3h6.6V418.8z M482.5,458.7
		c-8.2,0-14.9-6.7-14.9-14.9s6.7-14.9,14.9-14.9s14.9,6.7,14.9,14.9S490.8,458.7,482.5,458.7z M530.7,427.1c0,0.9-0.7,1.7-1.7,1.7
		h-36c-3-2.1-6.6-3.3-10.5-3.3s-7.5,1.2-10.5,3.3h-36c-0.9,0-1.7-0.7-1.7-1.7v-3.3c0-0.9,0.7-1.7,1.7-1.7h93c0.9,0,1.7,0.7,1.7,1.7
		V427.1z M527.4,418.8h-29.9v-43.2h29.9V418.8z"/>
</g>
<g>
	<path class="st3" d="M476.6,452.5v-1.8c1.9-0.6,2.9-1.8,2.9-3.7v-2.2H477V443h2.6v-3c0-1.5,0.4-2.8,1.4-3.7c1-1,2.2-1.5,3.6-1.5
		c1,0,1.9,0.1,2.8,0.6v2.1c-0.8-0.6-1.8-0.7-2.6-0.7c-1.9,0-2.9,1.2-2.9,3.6v2.8h3.9v1.8h-4v1.8c0,1.9-0.8,3.2-2.3,4.1h8.9v1.8
		h-11.7L476.6,452.5L476.6,452.5z"/>
</g>
<g class="st2">
	<g>
		<g>
			<path class="st3" d="M54.6,391H41.9c-0.9,0-1.6,0.7-1.6,1.6v6.3c0,0.9,0.7,1.6,1.6,1.6h12.7c0.9,0,1.6-0.7,1.6-1.6v-6.3
				C56.2,391.7,55.5,391,54.6,391z M46.7,397.3h-3.2v-3.2h3.2V397.3z M53,397.3h-3.2v-3.2H53V397.3z"/>
		</g>
	</g>
	<g>
		<g>
			<path class="st3" d="M54.6,403.7H41.9c-0.9,0-1.6,0.7-1.6,1.6v6.3c0,0.9,0.7,1.6,1.6,1.6h12.7c0.9,0,1.6-0.7,1.6-1.6v-6.3
				C56.2,404.4,55.5,403.7,54.6,403.7z M46.7,410h-3.2v-3.2h3.2V410z M53,410h-3.2v-3.2H53V410z"/>
		</g>
	</g>
	<g>
		<g>
			<path class="st3" d="M54.6,416.3H41.9c-0.9,0-1.6,0.7-1.6,1.6v6.3c0,0.9,0.7,1.6,1.6,1.6h12.7c0.9,0,1.6-0.7,1.6-1.6v-6.3
				C56.2,417,55.5,416.3,54.6,416.3z M46.7,422.7h-3.2v-3.2h3.2V422.7z M53,422.7h-3.2v-3.2H53V422.7z"/>
		</g>
	</g>
	<g>
		<g>
			<path class="st3" d="M111.6,391H98.9c-0.9,0-1.6,0.7-1.6,1.6v6.3c0,0.9,0.7,1.6,1.6,1.6h12.7c0.9,0,1.6-0.7,1.6-1.6v-6.3
				C113.2,391.7,112.5,391,111.6,391z M103.7,397.3h-3.2v-3.2h3.2V397.3z M110,397.3h-3.2v-3.2h3.2V397.3z"/>
		</g>
	</g>
	<g>
		<g>
			<path class="st3" d="M111.6,378.3H98.9c-0.9,0-1.6,0.7-1.6,1.6v6.3c0,0.9,0.7,1.6,1.6,1.6h12.7c0.9,0,1.6-0.7,1.6-1.6v-6.3
				C113.2,379,112.5,378.3,111.6,378.3z M103.7,384.7h-3.2v-3.2h3.2V384.7z M110,384.7h-3.2v-3.2h3.2V384.7z"/>
		</g>
	</g>
	<g>
		<g>
			<path class="st3" d="M73.6,397.3h-6.3c-0.9,0-1.6,0.7-1.6,1.6v6.3c0,0.9,0.7,1.6,1.6,1.6h6.3c0.9,0,1.6-0.7,1.6-1.6v-6.3
				C75.2,398,74.5,397.3,73.6,397.3z M72,403.7h-3.2v-3.2H72V403.7z"/>
		</g>
	</g>
	<g>
		<g>
			<path class="st3" d="M86.3,397.3H80c-0.9,0-1.6,0.7-1.6,1.6v6.3c0,0.9,0.7,1.6,1.6,1.6h6.3c0.9,0,1.6-0.7,1.6-1.6v-6.3
				C87.8,398,87.1,397.3,86.3,397.3z M84.7,403.7h-3.2v-3.2h3.2V403.7z"/>
		</g>
	</g>
	<g>
		<g>
			<path class="st3" d="M73.6,384.7h-6.3c-0.9,0-1.6,0.7-1.6,1.6v6.3c0,0.9,0.7,1.6,1.6,1.6h6.3c0.9,0,1.6-0.7,1.6-1.6v-6.3
				C75.2,385.4,74.5,384.7,73.6,384.7z M72,391h-3.2v-3.2H72V391z"/>
		</g>
	</g>
	<g>
		<g>
			<path class="st3" d="M86.3,384.7H80c-0.9,0-1.6,0.7-1.6,1.6v6.3c0,0.9,0.7,1.6,1.6,1.6h6.3c0.9,0,1.6-0.7,1.6-1.6v-6.3
				C87.8,385.4,87.1,384.7,86.3,384.7z M84.7,391h-3.2v-3.2h3.2V391z"/>
		</g>
	</g>
	<g>
		<g>
			<path class="st3" d="M73.6,372h-6.3c-0.9,0-1.6,0.7-1.6,1.6v6.3c0,0.9,0.7,1.6,1.6,1.6h6.3c0.9,0,1.6-0.7,1.6-1.6v-6.3
				C75.2,372.7,74.5,372,73.6,372z M72,378.3h-3.2v-3.2H72V378.3z"/>
		</g>
	</g>
	<g>
		<g>
			<path class="st3" d="M86.3,372H80c-0.9,0-1.6,0.7-1.6,1.6v6.3c0,0.9,0.7,1.6,1.6,1.6h6.3c0.9,0,1.6-0.7,1.6-1.6v-6.3
				C87.8,372.7,87.1,372,86.3,372z M84.7,378.3h-3.2v-3.2h3.2V378.3z"/>
		</g>
	</g>
	<g>
		<g>
			<path class="st3" d="M73.6,416.3h-6.3c-0.9,0-1.6,0.7-1.6,1.6v6.3c0,0.9,0.7,1.6,1.6,1.6h6.3c0.9,0,1.6-0.7,1.6-1.6v-6.3
				C75.2,417,74.5,416.3,73.6,416.3z M72,422.7h-3.2v-3.2H72V422.7z"/>
		</g>
	</g>
	<g>
		<g>
			<rect x="40.3" y="429" class="st3" width="3.2" height="3.2"/>
		</g>
	</g>
	<g>
		<g>
			<rect x="46.7" y="429" class="st3" width="3.2" height="3.2"/>
		</g>
	</g>
	<g>
		<g>
			<rect x="53" y="429" class="st3" width="3.2" height="3.2"/>
		</g>
	</g>
	<g>
		<g>
			<path class="st3" d="M127.4,410h-7.9v-36.4c0-0.9-0.7-1.6-1.6-1.6h-11.1v-2.5l1.7-1.7c1.4,1,3,1.6,4.7,1.6c2,0,4-0.8,5.6-2.3
				l0.3-0.3c0.6-0.6,0.6-1.6,0-2.2l-3.6-3.6l3.6-3.6l-2.2-2.2l-3.6,3.6l-5.2-5.2c-0.3-0.3-0.7-0.5-1.1-0.5c-0.6,0-1,0.3-1.3,0.6
				c-1.6,1.4-2.5,3.4-2.5,5.5s0.8,4.2,2.3,5.7l0.8,0.8l-2,2c-0.3,0.3-0.5,0.7-0.5,1.1v3.2h-9.5v-4.8c0-0.9-0.7-1.6-1.6-1.6H87l-9-12
				c-0.6-0.8-1.9-0.8-2.5,0l-9,12H61c-0.9,0-1.6,0.7-1.6,1.6v17.4h-9.5V372h-3.2v12.7H35.6c-0.9,0-1.6,0.7-1.6,1.6v60.2
				c0,0.9,0.7,1.6,1.6,1.6h25.3H72h12.7h1.6h9.5h25.3c4.4,0,7.9-3.6,7.9-7.9v-28.5C129,410.7,128.3,410,127.4,410z M59.3,444.8H37.2
				v-57h22.2v57H59.3z M106.9,356.9l8.7,8.7c-1.8,1.1-4.2,0.8-5.7-0.7l-2.2-2.2c-0.9-0.9-1.4-2.1-1.4-3.4
				C106.3,358.4,106.5,357.6,106.9,356.9z M76.8,357.2l6.3,8.4H70.4L76.8,357.2z M70.4,432.2v12.7h-7.9v-58.6v-17.4H91v4.8v28.5h3.2
				v-26.9h22.2V410h-3.2v-1.6c0-2.6-2.1-4.8-4.8-4.8h-9.5c-2.6,0-4.8,2.1-4.8,4.8v1.6H79.9c-0.9,0-1.6,0.7-1.6,1.6V429H65.7v3.2
				H70.4z M110,408.4v1.6H97.3v-1.6c0-0.9,0.7-1.6,1.6-1.6h9.5C109.3,406.8,110,407.5,110,408.4z M73.6,444.8v-12.7h4.8v7.9
				c0,1.8,0.6,3.4,1.6,4.8L73.6,444.8L73.6,444.8z M125.8,440.1c0,2.6-2.1,4.8-4.8,4.8H95.8h-9.5c-2.6,0-4.8-2.1-4.8-4.8v-15.9
				c1.3,1,3,1.6,4.8,1.6h1.6v4.8c0,0.9,0.7,1.6,1.6,1.6h6.3c0.9,0,1.6-0.7,1.6-1.6v-4.8H99h9.5h1.6v4.8c0,0.9,0.7,1.6,1.6,1.6h6.3
				c0.9,0,1.6-0.7,1.6-1.6v-4.8h1.6c1.8,0,3.4-0.6,4.8-1.6v15.9H125.8z M91,429v-3.2h3.2v3.2H91z M100.5,422.7v-3.2h6.3v3.2H100.5z
				 M113.2,429v-3.2h3.2v3.2H113.2z M125.8,417.9c0,2.6-2.1,4.8-4.8,4.8h-3.2h-6.3H110v-4.8c0-0.9-0.7-1.6-1.6-1.6h-9.5
				c-0.9,0-1.6,0.7-1.6,1.6v4.8h-1.6h-6.3h-3.2c-2.6,0-4.8-2.1-4.8-4.8v-4.8h44.3v4.8H125.8z"/>
		</g>
	</g>
	<g>
		<g>
			<rect x="119.5" y="438.5" class="st3" width="3.2" height="3.2"/>
		</g>
	</g>
	<g>
		<g>
			<rect x="113.2" y="438.5" class="st3" width="3.2" height="3.2"/>
		</g>
	</g>
	<g>
		<g>
			<rect x="106.8" y="438.5" class="st3" width="3.2" height="3.2"/>
		</g>
	</g>
</g>
<g>
	<circle class="st4" cx="56.1" cy="58.7" r="15.8"/>
	<line class="st4" x1="43.4" y1="83.4" x2="56.1" y2="97.9"/>
	<line class="st4" x1="68.4" y1="83.4" x2="56.1" y2="97.9"/>
	<line class="st4" x1="56.1" y1="112.3" x2="56.1" y2="97.9"/>
	<path class="st4" d="M89.9,104v3.4c0,3.1-2.5,5.6-5.6,5.6H27.7c-3.1,0-5.6-2.5-5.6-5.6V104"/>
	<path class="st4" d="M27.7,98.4"/>
	<path class="st4" d="M22.1,105.6C22.1,92.8,32.7,83,45.4,83h21.2c12.8,0,23.2,10.5,23.2,23.2l0,0"/>
</g>
<g>
	<path class="st3" d="M11.5,146c0,0.5-0.1,0.9-0.3,1.4c-0.1,0.2-0.3,0.6-0.6,1.1l-0.2-0.1c0-0.2,0-0.4,0-0.6s0-0.4,0-0.4
		c0-0.6,0-1.5-0.1-2.6s-0.2-2.2-0.3-3.4c-0.1-0.7-0.2-1.5-0.3-2.2c0.1-0.3,0.3-0.5,0.4-0.8c0.1-0.3,0.3-0.6,0.4-0.8
		c0.1,0.7,0.2,1.6,0.4,2.7c0.2,1.1,0.3,2.2,0.3,3.1C11.5,144.5,11.5,145.4,11.5,146z"/>
	<path class="st3" d="M21.4,147.1c0,0.9-0.2,1.7-0.7,2.2c-0.4,0.5-1,0.8-1.7,1c-0.6,0.2-1.5,0.3-2.5,0.3c-1.1,0-2-0.2-2.6-0.6
		c-0.7-0.5-1-1.1-1-2c0-0.5,0.1-1,0.2-1.6c0.1-0.5,0.3-1,0.6-1.5c0.2-0.4,0.4-0.9,0.7-1.4l0.3,0.2c-0.2,0.4-0.4,0.7-0.5,1.1
		c-0.2,0.4-0.3,0.8-0.4,1.1c-0.1,0.4-0.2,0.8-0.2,1.2c0,0.7,0.3,1.3,0.8,1.6s1.3,0.6,2.2,0.6c1,0,1.9-0.2,2.8-0.5
		c0.9-0.4,1.4-0.8,1.4-1.3c0-0.6-0.1-1.5-0.3-2.9c-0.1-1-0.3-2.2-0.5-3.5l-0.3-1.7l-0.4-0.2c0-0.8,0.2-1.5,0.5-2.1h0.1
		c0,0.2,0.1,0.4,0.1,0.5s0.2,0.2,0.3,0.2c0.2,0.1,0.4,0.2,0.6,0.3s0.3,0.1,0.4,0.2c0,0.4,0,0.7,0,0.9s-0.1,0.5-0.2,0.8l-0.5-0.2
		c0,0.1,0.1,0.7,0.3,1.8c0.2,1.2,0.3,2.2,0.4,3C21.3,145.6,21.4,146.5,21.4,147.1z"/>
	<path class="st3" d="M27.5,148.2h-1c-1,0-1.8,0.1-2.5,0.3c-0.9,0.2-1.4,0.6-1.4,1s0.1,0.8,0.2,1.2s0.3,0.9,0.4,1.3s0.2,0.9,0.2,1.2
		c0,0.2,0,0.4,0,0.6s-0.1,0.4-0.2,0.7c-0.2-0.5-0.3-1-0.4-1.5c-0.3-0.9-0.5-1.6-0.6-2.1c-0.2-0.8-0.3-1.2-0.3-1.4
		c0-0.8,0.2-1.3,0.5-1.7s0.8-0.7,1.4-0.9c0.5-0.2,1.3-0.3,2.3-0.4c-0.4-0.4-0.6-0.6-0.7-0.7c-0.3-0.2-0.6-0.4-0.9-0.4
		c-0.2,0-0.4,0.1-0.6,0.2c-0.1,0.1-0.3,0.3-0.5,0.5l-0.4-0.3c0.2-0.4,0.4-0.8,0.6-1.1c0.4-0.4,0.8-0.7,1.3-0.7
		c0.4,0,0.7,0.1,1.1,0.4c0.3,0.2,0.6,0.5,0.9,0.9c0.2,0.2,0.4,0.5,0.7,1v1.9H27.5z"/>
	<path class="st3" d="M42.3,148.2h-0.7c-0.4,0-0.7,0-0.9-0.1c-0.3-0.1-0.5-0.3-0.8-0.5c-0.2,0.2-0.5,0.4-0.7,0.4
		c-0.3,0.1-0.7,0.2-1.2,0.2h-1.1c0,0.5-0.1,1.1-0.4,1.6c-0.3,0.7-0.8,1.2-1.5,1.6c-0.9,0.5-1.9,0.7-3.2,0.7c-1.2,0-2.1-0.2-2.7-0.6
		c-0.7-0.5-1-1.1-1-2.1c0-0.5,0.1-1,0.2-1.5s0.3-1,0.5-1.6c0.1-0.3,0.4-0.8,0.7-1.5l0.4,0.2c-0.4,0.8-0.7,1.5-0.8,2
		s-0.2,0.9-0.2,1.3c0,0.7,0.3,1.3,0.8,1.7s1.3,0.6,2.2,0.6c1.1,0,2.1-0.2,3-0.6c1.1-0.5,1.7-1.2,1.7-2c0-0.6-0.1-1.1-0.3-1.7
		c-0.2-0.4-0.4-0.8-0.7-1.2l0.7-1.8c0.3,0.5,0.5,0.9,0.6,1.3c0.1,0.5,0.2,1.2,0.2,2.1h1.1c0.6,0,1-0.1,1.2-0.3
		c0.2-0.1,0.3-0.4,0.3-0.7c0-0.2,0-0.3,0-0.5s-0.1-0.4-0.1-0.6l0.4-0.5l0.1,0.9c0.1,0.6,0.3,1,0.5,1.2c0.2,0.3,0.6,0.4,1,0.4
		c0.1,0,0.2,0,0.3-0.1s0.1-0.2,0.1-0.3c0-0.3-0.1-0.6-0.3-0.9c-0.1-0.2-0.3-0.5-0.5-0.7l0.6-1c0.3,0.5,0.4,0.8,0.5,0.9
		c0.1,0.4,0.2,0.9,0.2,1.6v2.1H42.3z"/>
	<path class="st3" d="M55.1,148.2h-8.4c-1.1,0-2-0.2-2.7-0.6c-0.8-0.5-1.3-1.3-1.3-2.3c0-0.5,0.1-1.1,0.4-1.7
		c0.1-0.2,0.3-0.6,0.6-1.2l0.3,0.2c-0.1,0.3-0.3,0.5-0.4,0.8c-0.2,0.4-0.3,0.8-0.3,1.1c0,0.7,0.4,1.2,1.1,1.6
		c0.7,0.3,1.5,0.5,2.5,0.5h7.4v-0.2c0-0.7-0.1-1.2-0.2-1.6c-0.2-0.4-0.4-0.8-0.8-1.1l0.7-1.4c0.3,0.3,0.4,0.5,0.5,0.6
		c0.4,0.7,0.6,1.6,0.6,2.9C55.1,145.8,55.1,148.2,55.1,148.2z M48.9,141.1l-0.7,1.3l-1.5-0.7l0.7-1.3L48.9,141.1z M51,140.2
		l-0.7,1.3l-1.4-0.7l0.7-1.3L51,140.2z"/>
	<path class="st3" d="M67.9,148.2h-8.4c-1.1,0-2-0.2-2.7-0.6c-0.8-0.5-1.3-1.3-1.3-2.3c0-0.5,0.1-1.1,0.4-1.7
		c0.1-0.2,0.3-0.6,0.6-1.2l0.3,0.2c-0.1,0.3-0.3,0.5-0.4,0.8c-0.2,0.4-0.3,0.8-0.3,1.1c0,0.7,0.4,1.2,1.1,1.6
		c0.7,0.3,1.5,0.5,2.5,0.5h7.5v-0.2c0-0.7-0.1-1.2-0.2-1.6c-0.2-0.4-0.4-0.8-0.8-1.1l0.7-1.4c0.3,0.3,0.4,0.5,0.5,0.6
		c0.4,0.7,0.6,1.6,0.6,2.9L67.9,148.2L67.9,148.2z M61.8,141l-0.7,1.3l-1.4-0.7l0.7-1.3L61.8,141z M62.1,138.7l-0.7,1.3l-1.4-0.8
		l0.7-1.3L62.1,138.7z M63.8,140.2l-0.7,1.3l-1.4-0.8l0.7-1.3L63.8,140.2z"/>
	<path class="st3" d="M74,148.2h-1c-1,0-1.8,0.1-2.5,0.3c-0.9,0.2-1.4,0.6-1.4,1s0.1,0.8,0.2,1.2s0.3,0.9,0.4,1.3s0.2,0.9,0.2,1.2
		c0,0.2,0,0.4,0,0.6s-0.1,0.4-0.2,0.7c-0.2-0.5-0.3-1-0.4-1.5c-0.3-0.9-0.5-1.6-0.6-2.1c-0.2-0.8-0.3-1.2-0.3-1.4
		c0-0.8,0.2-1.3,0.5-1.7s0.8-0.7,1.4-0.9c0.5-0.2,1.3-0.3,2.3-0.4c-0.4-0.4-0.6-0.6-0.7-0.7c-0.3-0.2-0.6-0.4-0.9-0.4
		c-0.2,0-0.4,0.1-0.6,0.2c-0.1,0.1-0.3,0.3-0.5,0.5l-0.4-0.3c0.2-0.4,0.4-0.8,0.6-1.1c0.4-0.4,0.8-0.7,1.3-0.7
		c0.4,0,0.7,0.1,1.1,0.4c0.3,0.2,0.6,0.5,0.9,0.9c0.2,0.2,0.4,0.5,0.7,1L74,148.2L74,148.2z"/>
	<path class="st3" d="M82.8,148.2c0,0.6-0.3,1.3-0.8,2c-0.5,0.6-1.1,1.1-1.8,1.6c-0.7,0.4-1.2,0.6-1.7,0.6c-0.4,0-0.8-0.1-1.3-0.2
		c-0.4-0.1-0.8-0.2-1.3-0.4c-0.4-0.2-0.8-0.3-1.3-0.5l0.1-0.4c0.4,0.1,0.8,0.2,1.2,0.2c0.4,0.1,0.8,0.1,1.1,0.1
		c0.8,0,1.5-0.2,2.3-0.7c0.7-0.4,1.4-1,1.9-1.7s0.8-1.3,0.8-1.8s-0.1-0.9-0.4-1.5c-0.2-0.4-0.5-0.8-0.9-1.3l0.5-1.4
		c0.5,0.4,0.8,0.9,1.1,1.3c0.3,0.5,0.4,1.1,0.4,1.7v2.4H82.8z"/>
	<path class="st3" d="M87,154.6c-0.9-1.1-1.6-2.4-2.2-3.9s-0.9-3-0.9-4.6c0-1.4,0.2-2.7,0.7-4c0.5-1.5,1.3-3,2.4-4.4h1.2
		c-0.7,1.2-1.2,2.1-1.4,2.6c-0.4,0.8-0.6,1.7-0.8,2.5c-0.3,1.1-0.4,2.2-0.4,3.3c0,2.8,0.9,5.6,2.6,8.4L87,154.6L87,154.6z"/>
	<path class="st3" d="M93.1,144.7c-0.1,0-0.3,0-0.5,0s-0.4,0-0.5,0c-0.4,0-0.8,0-1.3,0.1c-0.3,0-0.7,0.1-1.2,0.2
		c0.2-0.7,0.5-1.1,0.7-1.3c0.4-0.4,1.2-0.7,2.2-0.7c0.4,0,1.2,0.1,2.4,0.2c0.6,0.1,1,0.1,1.4,0.1c0.2,0,0.4,0,0.7-0.1
		s0.6-0.1,0.7-0.1l-0.3,1.5c-1.2,0.2-2.3,0.5-3.2,0.7c-1.3,0.4-2.3,0.9-3,1.5c-0.9,0.7-1.3,1.6-1.3,2.5c0,1.3,0.7,2.2,2,2.8
		c1.1,0.6,2.7,0.8,4.6,0.8H98l0.1,0.1l-2,1.4h-0.5c-1.3,0-2.3-0.1-3.2-0.4c-1-0.3-1.8-0.7-2.3-1.4c-0.6-0.7-0.9-1.6-0.9-2.8
		c0-1,0.2-1.9,0.7-2.7c0.4-0.6,0.9-1.2,1.5-1.7C91.7,145.6,92.2,145.2,93.1,144.7z"/>
	<path class="st3" d="M101.9,146c0,0.5-0.1,0.9-0.3,1.4c-0.1,0.2-0.3,0.6-0.6,1.1l-0.2-0.1c0-0.2,0-0.4,0-0.6s0-0.4,0-0.4
		c0-0.6,0-1.5-0.1-2.6s-0.2-2.2-0.3-3.4c-0.1-0.7-0.2-1.5-0.3-2.2c0.1-0.3,0.3-0.5,0.4-0.8s0.3-0.6,0.4-0.8c0.1,0.7,0.2,1.6,0.4,2.7
		s0.3,2.2,0.3,3.1C101.9,144.5,101.9,145.4,101.9,146z"/>
	<path class="st3" d="M108.7,148.2h-1c-1,0-1.8,0.1-2.5,0.3c-0.9,0.2-1.4,0.6-1.4,1s0.1,0.8,0.2,1.2s0.3,0.9,0.4,1.3
		s0.2,0.9,0.2,1.2c0,0.2,0,0.4,0,0.6s-0.1,0.4-0.2,0.7c-0.2-0.5-0.3-1-0.4-1.5c-0.3-0.9-0.5-1.6-0.6-2.1c-0.2-0.8-0.3-1.2-0.3-1.4
		c0-0.8,0.2-1.3,0.5-1.7s0.8-0.7,1.4-0.9c0.5-0.2,1.3-0.3,2.3-0.4c-0.4-0.4-0.6-0.6-0.7-0.7c-0.3-0.2-0.6-0.4-0.9-0.4
		c-0.2,0-0.4,0.1-0.6,0.2c-0.1,0.1-0.3,0.3-0.5,0.5l-0.4-0.3c0.2-0.4,0.4-0.8,0.6-1.1c0.4-0.4,0.8-0.7,1.3-0.7
		c0.4,0,0.7,0.1,1.1,0.4c0.3,0.2,0.6,0.5,0.9,0.9c0.2,0.2,0.4,0.5,0.7,1L108.7,148.2L108.7,148.2z"/>
	<path class="st3" d="M117.9,147.1c0,0.9-0.2,1.7-0.7,2.2c-0.4,0.5-1,0.8-1.7,1c-0.6,0.2-1.5,0.3-2.5,0.3c-1.1,0-2-0.2-2.6-0.6
		c-0.7-0.5-1-1.1-1-2c0-0.5,0.1-1,0.2-1.6c0.1-0.5,0.3-1,0.6-1.5c0.2-0.4,0.4-0.9,0.7-1.4l0.3,0.2c-0.2,0.4-0.4,0.7-0.5,1.1
		c-0.2,0.4-0.3,0.8-0.4,1.1c-0.1,0.4-0.2,0.8-0.2,1.2c0,0.7,0.3,1.3,0.8,1.6s1.3,0.6,2.2,0.6c1,0,1.9-0.2,2.8-0.5
		c0.9-0.4,1.4-0.8,1.4-1.3c0-0.6-0.1-1.5-0.3-2.9c-0.1-1-0.3-2.2-0.5-3.5l-0.3-1.7l-0.4-0.2c0-0.8,0.2-1.5,0.5-2.1h0.1
		c0,0.2,0.1,0.4,0.1,0.5s0.2,0.2,0.3,0.2c0.2,0.1,0.4,0.2,0.6,0.3s0.3,0.1,0.4,0.2c0,0.4,0,0.7,0,0.9s-0.1,0.5-0.2,0.8l-0.5-0.2
		c0,0.1,0.1,0.7,0.3,1.8c0.2,1.2,0.3,2.2,0.4,3C117.8,145.6,117.9,146.5,117.9,147.1z"/>
	<path class="st3" d="M125.8,146c0,0.5-0.1,0.9-0.3,1.4c-0.1,0.2-0.3,0.6-0.6,1.1l-0.2-0.1c0-0.2,0-0.4,0-0.6s0-0.4,0-0.4
		c0-0.6,0-1.5-0.1-2.6s-0.2-2.2-0.3-3.4c-0.1-0.7-0.2-1.5-0.3-2.2c0.1-0.3,0.3-0.5,0.4-0.8s0.3-0.6,0.4-0.8c0.1,0.7,0.2,1.6,0.4,2.7
		s0.3,2.2,0.3,3.1C125.8,144.5,125.8,145.4,125.8,146z"/>
	<path class="st3" d="M135.7,147.1c0,0.9-0.2,1.7-0.7,2.2c-0.4,0.5-1,0.8-1.7,1c-0.6,0.2-1.5,0.3-2.5,0.3c-1.1,0-2-0.2-2.6-0.6
		c-0.7-0.5-1-1.1-1-2c0-0.5,0.1-1,0.2-1.6c0.1-0.5,0.3-1,0.6-1.5c0.2-0.4,0.4-0.9,0.7-1.4l0.3,0.2c-0.2,0.4-0.4,0.7-0.5,1.1
		c-0.2,0.4-0.3,0.8-0.4,1.1c-0.1,0.4-0.2,0.8-0.2,1.2c0,0.7,0.3,1.3,0.8,1.6c0.5,0.3,1.3,0.6,2.2,0.6c1,0,1.9-0.2,2.8-0.5
		c0.9-0.4,1.4-0.8,1.4-1.3c0-0.6-0.1-1.5-0.3-2.9c-0.1-1-0.3-2.2-0.5-3.5l-0.3-1.7l-0.4-0.2c0-0.8,0.2-1.5,0.5-2.1h0.1
		c0,0.2,0.1,0.4,0.1,0.5s0.2,0.2,0.3,0.2c0.2,0.1,0.4,0.2,0.6,0.3c0.2,0.1,0.3,0.1,0.4,0.2c0,0.4,0,0.7,0,0.9s-0.1,0.5-0.2,0.8
		l-0.5-0.2c0,0.1,0.1,0.7,0.3,1.8c0.2,1.2,0.3,2.2,0.4,3C135.6,145.6,135.7,146.5,135.7,147.1z"/>
	<path class="st3" d="M145,153.1l-2.2,1.5c-1.2,0-2.2,0-2.8-0.1c-1.2-0.2-2-0.5-2.7-1c-0.8-0.6-1.2-1.6-1.2-2.8c0-0.7,0.1-1.4,0.3-2
		c0.2-0.5,0.4-0.9,0.8-1.3c0.2-0.2,0.5-0.5,0.9-0.9c-0.6-0.3-1-0.5-1.2-0.7c-0.5-0.5-0.7-1-0.7-1.7c0-0.6,0.3-1.2,0.8-1.8
		c0.6-0.7,1.3-1,2.2-1c0.4,0,0.8,0.1,1.2,0.3c0.3,0.1,0.6,0.4,1.1,0.7c-0.6,0-1.2,0-1.8,0.1c-0.8,0.1-1.4,0.2-1.9,0.4
		c-0.6,0.2-0.9,0.5-0.9,0.8c0,0.4,0.3,0.7,1,1c0.6,0.3,1.2,0.5,1.9,0.6c0.6-0.3,1.2-0.6,1.7-0.8c0.6-0.2,1.3-0.5,1.9-0.6l-0.4,1.4
		c-1.2,0.5-2.1,0.8-2.6,1.1c-1.1,0.5-1.9,1-2.5,1.6c-0.7,0.7-1.1,1.4-1.1,2.2s0.3,1.5,0.9,2c0.5,0.4,1.3,0.7,2.4,0.9
		c0.8,0.1,1.9,0.2,3.2,0.2c0.3,0,0.6,0,0.8,0S144.7,153.1,145,153.1L145,153.1z"/>
	<path class="st3" d="M151.6,148.2h-1c-1,0-1.8,0.1-2.5,0.3c-0.9,0.2-1.4,0.6-1.4,1s0.1,0.8,0.2,1.2s0.3,0.9,0.4,1.3
		s0.2,0.9,0.2,1.2c0,0.2,0,0.4,0,0.6s-0.1,0.4-0.2,0.7c-0.2-0.5-0.3-1-0.4-1.5c-0.3-0.9-0.5-1.6-0.6-2.1c-0.2-0.8-0.3-1.2-0.3-1.4
		c0-0.8,0.2-1.3,0.5-1.7s0.8-0.7,1.4-0.9c0.5-0.2,1.3-0.3,2.3-0.4c-0.4-0.4-0.6-0.6-0.7-0.7c-0.3-0.2-0.6-0.4-0.9-0.4
		c-0.2,0-0.4,0.1-0.6,0.2c-0.1,0.1-0.3,0.3-0.5,0.5l-0.4-0.3c0.2-0.4,0.4-0.8,0.6-1.1c0.4-0.4,0.8-0.7,1.3-0.7
		c0.4,0,0.7,0.1,1.1,0.4c0.3,0.2,0.6,0.5,0.9,0.9c0.2,0.2,0.4,0.5,0.7,1v1.9H151.6z"/>
	<path class="st3" d="M160.7,147.1c0,0.9-0.2,1.7-0.7,2.2c-0.4,0.5-1,0.8-1.7,1c-0.6,0.2-1.5,0.3-2.5,0.3c-1.1,0-2-0.2-2.6-0.6
		c-0.7-0.5-1-1.1-1-2c0-0.5,0.1-1,0.2-1.6c0.1-0.5,0.3-1,0.6-1.5c0.2-0.4,0.4-0.9,0.7-1.4l0.3,0.2c-0.2,0.4-0.4,0.7-0.5,1.1
		c-0.2,0.4-0.3,0.8-0.4,1.1c-0.1,0.4-0.2,0.8-0.2,1.2c0,0.7,0.3,1.3,0.8,1.6s1.3,0.6,2.2,0.6c1,0,1.9-0.2,2.8-0.5
		c0.9-0.4,1.4-0.8,1.4-1.3c0-0.6-0.1-1.5-0.3-2.9c-0.1-1-0.3-2.2-0.5-3.5l-0.3-1.7l-0.4-0.2c0-0.8,0.2-1.5,0.5-2.1h0.1
		c0,0.2,0.1,0.4,0.1,0.5s0.2,0.2,0.3,0.2c0.2,0.1,0.4,0.2,0.6,0.3c0.2,0.1,0.3,0.1,0.4,0.2c0,0.4,0,0.7,0,0.9s-0.1,0.5-0.2,0.8
		l-0.5-0.2c0,0.1,0.1,0.7,0.3,1.8c0.2,1.2,0.3,2.2,0.4,3C160.6,145.6,160.7,146.5,160.7,147.1z"/>
	<path class="st3" d="M162.8,140.8l-0.7,1.3l-1.5-0.7l0.7-1.3L162.8,140.8z M165.6,145.6c0,0.8-0.1,1.4-0.4,1.9
		c-0.4,0.6-1.2,1-2.3,1c-0.4,0-0.8-0.1-1.1-0.3s-0.5-0.5-0.5-0.8c0-0.4,0.1-0.9,0.3-1.4s0.4-0.9,0.6-1.4h-0.1l0.5-1.5
		c1.1,0.6,1.7,0.9,1.9,1.1C165.2,144.6,165.6,145.1,165.6,145.6z M164.8,146.3c0-0.2-0.3-0.5-1-0.9c-0.3-0.2-0.6-0.3-0.9-0.5
		c-0.3,0.3-0.4,0.5-0.5,0.5c-0.2,0.2-0.2,0.4-0.2,0.7s0.1,0.5,0.3,0.7s0.4,0.3,0.7,0.3s0.7-0.1,1.1-0.3
		C164.6,146.6,164.8,146.5,164.8,146.3z M164.8,140l-0.7,1.3l-1.4-0.7l0.7-1.3L164.8,140z"/>
	<path class="st3" d="M173.7,146c0,0.5-0.1,0.9-0.3,1.4c-0.1,0.2-0.3,0.6-0.6,1.1l-0.2-0.1c0-0.2,0-0.4,0-0.6s0-0.4,0-0.4
		c0-0.6,0-1.5-0.1-2.6s-0.2-2.2-0.3-3.4c-0.1-0.7-0.2-1.5-0.3-2.2c0.1-0.3,0.3-0.5,0.4-0.8s0.3-0.6,0.4-0.8c0.1,0.7,0.2,1.6,0.4,2.7
		s0.3,2.2,0.3,3.1C173.7,144.5,173.7,145.4,173.7,146z"/>
	<path class="st3" d="M183.6,147.1c0,0.9-0.2,1.7-0.7,2.2c-0.4,0.5-1,0.8-1.7,1c-0.6,0.2-1.5,0.3-2.5,0.3c-1.1,0-2-0.2-2.6-0.6
		c-0.7-0.5-1-1.1-1-2c0-0.5,0.1-1,0.2-1.6c0.1-0.5,0.3-1,0.6-1.5c0.2-0.4,0.4-0.9,0.7-1.4l0.3,0.2c-0.2,0.4-0.4,0.7-0.5,1.1
		c-0.2,0.4-0.3,0.8-0.4,1.1c-0.1,0.4-0.2,0.8-0.2,1.2c0,0.7,0.3,1.3,0.8,1.6s1.3,0.6,2.2,0.6c1,0,1.9-0.2,2.8-0.5
		c0.9-0.4,1.4-0.8,1.4-1.3c0-0.6-0.1-1.5-0.3-2.9c-0.1-1-0.3-2.2-0.5-3.5l-0.3-1.7l-0.4-0.2c0-0.8,0.2-1.5,0.5-2.1h0.1
		c0,0.2,0.1,0.4,0.1,0.5s0.2,0.2,0.3,0.2c0.2,0.1,0.4,0.2,0.6,0.3c0.2,0.1,0.3,0.1,0.4,0.2c0,0.4,0,0.7,0,0.9s-0.1,0.5-0.2,0.8
		l-0.5-0.2c0,0.1,0.1,0.7,0.3,1.8c0.2,1.2,0.3,2.2,0.4,3C183.5,145.6,183.6,146.5,183.6,147.1z"/>
	<path class="st3" d="M192.4,148.2c0,0.6-0.3,1.3-0.8,2c-0.5,0.6-1.1,1.1-1.8,1.6c-0.7,0.4-1.2,0.6-1.7,0.6c-0.4,0-0.8-0.1-1.3-0.2
		c-0.4-0.1-0.8-0.2-1.3-0.4c-0.4-0.2-0.8-0.3-1.3-0.5l0.1-0.4c0.4,0.1,0.8,0.2,1.2,0.2c0.4,0.1,0.8,0.1,1.1,0.1
		c0.8,0,1.5-0.2,2.3-0.7c0.7-0.4,1.4-1,1.9-1.7s0.8-1.3,0.8-1.8s-0.1-0.9-0.4-1.5c-0.2-0.4-0.5-0.8-0.9-1.3l0.5-1.4
		c0.5,0.4,0.8,0.9,1.1,1.3c0.3,0.5,0.4,1.1,0.4,1.7L192.4,148.2L192.4,148.2z"/>
	<path class="st3" d="M198.5,148.2h-1c-1,0-1.8,0.1-2.5,0.3c-0.9,0.2-1.4,0.6-1.4,1s0.1,0.8,0.2,1.2s0.3,0.9,0.4,1.3
		s0.2,0.9,0.2,1.2c0,0.2,0,0.4,0,0.6s-0.1,0.4-0.2,0.7c-0.2-0.5-0.3-1-0.4-1.5c-0.3-0.9-0.5-1.6-0.6-2.1c-0.2-0.8-0.3-1.2-0.3-1.4
		c0-0.8,0.2-1.3,0.5-1.7s0.8-0.7,1.4-0.9c0.5-0.2,1.3-0.3,2.3-0.4c-0.4-0.4-0.6-0.6-0.7-0.7c-0.3-0.2-0.6-0.4-0.9-0.4
		c-0.2,0-0.4,0.1-0.6,0.2c-0.1,0.1-0.3,0.3-0.5,0.5l-0.4-0.3c0.2-0.4,0.4-0.8,0.6-1.1c0.4-0.4,0.8-0.7,1.3-0.7
		c0.4,0,0.7,0.1,1.1,0.4c0.3,0.2,0.6,0.5,0.9,0.9c0.2,0.2,0.4,0.5,0.7,1v1.9H198.5z"/>
	<path class="st3" d="M207.3,148.2c0,0.6-0.3,1.3-0.8,2c-0.5,0.6-1.1,1.1-1.8,1.6c-0.7,0.4-1.2,0.6-1.7,0.6c-0.4,0-0.8-0.1-1.3-0.2
		c-0.4-0.1-0.8-0.2-1.3-0.4c-0.4-0.2-0.8-0.3-1.3-0.5l0.1-0.4c0.4,0.1,0.8,0.2,1.2,0.2c0.4,0.1,0.8,0.1,1.1,0.1
		c0.8,0,1.5-0.2,2.3-0.7c0.7-0.4,1.4-1,1.9-1.7s0.8-1.3,0.8-1.8s-0.1-0.9-0.4-1.5c-0.2-0.4-0.5-0.8-0.9-1.3l0.5-1.4
		c0.5,0.4,0.8,0.9,1.1,1.3c0.3,0.5,0.4,1.1,0.4,1.7L207.3,148.2L207.3,148.2z M206,140l-0.7,1.3l-1.4-0.7l0.7-1.3L206,140z"/>
	<path class="st3" d="M218.2,143.8c0,0.2,0,0.4-0.1,0.6s-0.1,0.3-0.1,0.4c-0.2-0.3-0.4-0.5-0.7-0.6s-0.6-0.2-0.9-0.2
		c-0.5,0-1,0.3-1.6,0.9c-0.5,0.5-0.8,1-0.8,1.3c0,0.1,0.1,0.2,0.2,0.3s0.3,0.1,0.7,0.1h0.7c0.4,0,0.7,0,0.9,0s0.4,0,0.7,0.1
		s0.4,0.3,0.4,0.6c0,1.5-0.6,2.6-1.9,3.4c-1.2,0.7-2.8,1.1-4.8,1.1c-1,0-1.8-0.2-2.4-0.6c-0.6-0.4-0.9-1.1-0.9-2
		c0-0.6,0.1-1.2,0.3-1.9c0.2-0.5,0.4-1,0.6-1.6c0,0,0.2-0.4,0.6-1l0.4,0.1c-0.4,0.7-0.7,1.3-0.8,1.8c-0.2,0.6-0.3,1.1-0.3,1.5
		c0,0.7,0.2,1.3,0.7,1.6s1.2,0.5,2.1,0.5c0.7,0,1.5-0.1,2.5-0.4c0.8-0.2,1.5-0.5,2.2-0.9s1-0.6,1-0.7c0-0.1,0-0.2-0.1-0.2
		s-0.2-0.1-0.4-0.1h-2.1c-0.3,0-0.5-0.1-0.7-0.3s-0.3-0.4-0.3-0.7c0-0.4,0.2-0.9,0.5-1.6c0.4-0.7,0.8-1.3,1.3-1.8
		c0.6-0.6,1.2-0.9,1.8-0.9c0.4,0,0.7,0.1,0.9,0.4S218.2,143.4,218.2,143.8z M212.9,153.3l-0.7,1.3l-1.5-0.7l0.7-1.3L212.9,153.3z
		 M214.9,152.5l-0.7,1.3l-1.4-0.7l0.7-1.3L214.9,152.5z"/>
	<path class="st3" d="M220.9,140.8l-0.7,1.3l-1.5-0.7l0.7-1.3L220.9,140.8z M223.7,145.6c0,0.8-0.1,1.4-0.4,1.9
		c-0.4,0.6-1.2,1-2.3,1c-0.4,0-0.8-0.1-1.1-0.3s-0.5-0.5-0.5-0.8c0-0.4,0.1-0.9,0.3-1.4s0.4-0.9,0.6-1.4h-0.1l0.5-1.5
		c1.1,0.6,1.7,0.9,1.9,1.1C223.3,144.6,223.7,145.1,223.7,145.6z M222.9,146.3c0-0.2-0.3-0.5-1-0.9c-0.3-0.2-0.6-0.3-0.9-0.5
		c-0.3,0.3-0.4,0.5-0.5,0.5c-0.2,0.2-0.2,0.4-0.2,0.7s0.1,0.5,0.3,0.7s0.4,0.3,0.7,0.3s0.7-0.1,1.1-0.3
		C222.7,146.6,222.9,146.5,222.9,146.3z M222.9,140l-0.7,1.3l-1.4-0.7l0.7-1.3L222.9,140z"/>
	<path class="st3" d="M226.1,154.6h-1.1c1.8-2.8,2.6-5.6,2.6-8.4c0-1.1-0.1-2.2-0.4-3.3c-0.2-0.9-0.5-1.7-0.8-2.5
		c-0.2-0.5-0.7-1.4-1.4-2.6h1.1c1.1,1.5,1.9,2.9,2.4,4.4c0.5,1.3,0.7,2.6,0.7,4c0,1.6-0.3,3.1-0.9,4.6S227,153.5,226.1,154.6z"/>
</g>
<g>
	<path d="M420.4,92.2V79.3h1.7v5.3h6.7v-5.3h1.7v12.9h-1.7v-6.1h-6.7v6.1H420.4z"/>
	<path d="M432.5,87.5c0-1.7,0.5-3,1.4-3.8c0.8-0.7,1.8-1,2.9-1c1.3,0,2.3,0.4,3.1,1.3s1.2,2,1.2,3.5c0,1.2-0.2,2.1-0.5,2.8
		c-0.4,0.7-0.9,1.2-1.6,1.6s-1.4,0.6-2.3,0.6c-1.3,0-2.4-0.4-3.2-1.3S432.5,89.1,432.5,87.5z M434.2,87.5c0,1.2,0.3,2.1,0.8,2.7
		s1.2,0.9,2,0.9s1.4-0.3,2-0.9s0.8-1.5,0.8-2.7s-0.3-2-0.8-2.6s-1.2-0.9-2-0.9s-1.4,0.3-2,0.9S434.2,86.3,434.2,87.5z"/>
	<path d="M449.2,92.2v-1.4c-0.7,1.1-1.7,1.6-3,1.6c-0.6,0-1.1-0.1-1.5-0.3s-0.8-0.5-1.1-0.8s-0.4-0.7-0.5-1.2
		c-0.1-0.3-0.1-0.8-0.1-1.5v-5.8h1.6v5.2c0,0.8,0,1.4,0.1,1.7c0.1,0.4,0.3,0.7,0.6,1c0.3,0.2,0.7,0.4,1.2,0.4s0.9-0.1,1.3-0.4
		s0.7-0.6,0.9-1c0.2-0.4,0.3-1,0.3-1.8v-5h1.6v9.3H449.2z"/>
	<path d="M452.5,89.3l1.6-0.2c0.1,0.6,0.3,1.1,0.7,1.4s1,0.5,1.7,0.5s1.3-0.1,1.6-0.4s0.5-0.6,0.5-1s-0.2-0.6-0.5-0.8
		c-0.2-0.1-0.8-0.3-1.6-0.5c-1.2-0.3-2-0.5-2.4-0.8s-0.8-0.5-1-0.9s-0.3-0.8-0.3-1.3c0-0.4,0.1-0.8,0.3-1.2c0.2-0.4,0.4-0.6,0.8-0.9
		c0.2-0.2,0.6-0.3,1-0.5s0.9-0.2,1.4-0.2c0.7,0,1.4,0.1,1.9,0.3s1,0.5,1.2,0.9c0.3,0.4,0.4,0.8,0.5,1.4l-1.5,0.2
		c-0.1-0.5-0.3-0.9-0.6-1.1s-0.8-0.4-1.4-0.4c-0.7,0-1.2,0.1-1.6,0.4s-0.5,0.5-0.5,0.8c0,0.2,0.1,0.4,0.2,0.6s0.3,0.3,0.6,0.4
		c0.2,0.1,0.6,0.2,1.4,0.4c1.1,0.3,1.9,0.5,2.3,0.7s0.8,0.5,1,0.8s0.4,0.8,0.4,1.4c0,0.5-0.2,1-0.5,1.5s-0.8,0.8-1.3,1.1
		c-0.6,0.3-1.2,0.4-2,0.4c-1.2,0-2.1-0.3-2.8-0.8S452.7,90.3,452.5,89.3z"/>
	<path d="M468.5,89.2l1.6,0.2c-0.3,1-0.7,1.7-1.4,2.2s-1.6,0.8-2.7,0.8c-1.4,0-2.4-0.4-3.2-1.3c-0.8-0.8-1.2-2-1.2-3.5
		c0-1.6,0.4-2.8,1.2-3.7s1.9-1.3,3.1-1.3s2.3,0.4,3.1,1.3s1.2,2,1.2,3.6c0,0.1,0,0.2,0,0.4h-7c0.1,1,0.3,1.8,0.9,2.4s1.2,0.8,2,0.8
		c0.6,0,1.1-0.2,1.5-0.5S468.3,89.8,468.5,89.2z M463.3,86.6h5.2c-0.1-0.8-0.3-1.4-0.6-1.8c-0.5-0.6-1.2-0.9-2-0.9
		c-0.7,0-1.3,0.2-1.8,0.7S463.4,85.8,463.3,86.6z"/>
	<path d="M475.6,92.2V80.8h-4.2v-1.5h10.2v1.5h-4.3v11.4H475.6z"/>
	<path d="M480.6,87.5c0-1.7,0.5-3,1.4-3.8c0.8-0.7,1.8-1,2.9-1c1.3,0,2.3,0.4,3.1,1.3s1.2,2,1.2,3.5c0,1.2-0.2,2.1-0.5,2.8
		c-0.4,0.7-0.9,1.2-1.6,1.6s-1.4,0.6-2.3,0.6c-1.3,0-2.4-0.4-3.2-1.3S480.6,89.1,480.6,87.5z M482.2,87.5c0,1.2,0.3,2.1,0.8,2.7
		s1.2,0.9,2,0.9s1.4-0.3,2-0.9s0.8-1.5,0.8-2.7s-0.3-2-0.8-2.6s-1.2-0.9-2-0.9s-1.4,0.3-2,0.9S482.2,86.3,482.2,87.5z"/>
	<path d="M491.2,92.2V79.3h1.6v7.3l3.7-3.8h2l-3.6,3.5l3.9,5.9h-2l-3.1-4.8l-1.1,1.1v3.7H491.2z"/>
	<path d="M506.6,89.2l1.6,0.2c-0.3,1-0.7,1.7-1.4,2.2s-1.6,0.8-2.7,0.8c-1.4,0-2.4-0.4-3.2-1.3c-0.8-0.8-1.2-2-1.2-3.5
		c0-1.6,0.4-2.8,1.2-3.7s1.9-1.3,3.1-1.3s2.3,0.4,3.1,1.3s1.2,2,1.2,3.6c0,0.1,0,0.2,0,0.4h-7c0.1,1,0.3,1.8,0.9,2.4s1.2,0.8,2,0.8
		c0.6,0,1.1-0.2,1.5-0.5S506.3,89.8,506.6,89.2z M501.4,86.6h5.2c-0.1-0.8-0.3-1.4-0.6-1.8c-0.5-0.6-1.2-0.9-2-0.9
		c-0.7,0-1.3,0.2-1.8,0.7S501.4,85.8,501.4,86.6z"/>
	<path d="M510.2,92.2v-9.3h1.4v1.3c0.7-1,1.7-1.5,3-1.5c0.6,0,1.1,0.1,1.6,0.3c0.5,0.2,0.8,0.5,1.1,0.8c0.3,0.3,0.4,0.7,0.5,1.2
		c0.1,0.3,0.1,0.8,0.1,1.5v5.7h-1.6v-5.7c0-0.6-0.1-1.1-0.2-1.4c-0.1-0.3-0.3-0.6-0.7-0.8c-0.3-0.2-0.7-0.3-1.1-0.3
		c-0.7,0-1.3,0.2-1.7,0.6s-0.7,1.2-0.7,2.4v5.2H510.2z"/>
	<path d="M525.3,92.2V79.3h1.7v11.4h6.3v1.5H525.3z"/>
	<path d="M537.3,92.2V80.8h-4.2v-1.5h10.2v1.5H539v11.4H537.3z"/>
	<path d="M545.1,92.2V79.3h4.4c1,0,1.8,0.1,2.3,0.2c0.7,0.2,1.4,0.5,1.9,0.9c0.7,0.6,1.2,1.3,1.5,2.2c0.3,0.9,0.5,1.9,0.5,3.1
		c0,1-0.1,1.8-0.3,2.6c-0.2,0.8-0.5,1.4-0.9,1.9s-0.7,0.9-1.2,1.2s-0.9,0.5-1.5,0.6s-1.3,0.2-2.1,0.2H545.1z M546.8,90.7h2.8
		c0.8,0,1.5-0.1,2-0.2s0.9-0.4,1.2-0.7c0.4-0.4,0.7-0.9,0.9-1.6c0.2-0.7,0.3-1.5,0.3-2.5c0-1.3-0.2-2.4-0.7-3.1
		c-0.4-0.7-1-1.2-1.6-1.5c-0.5-0.2-1.2-0.3-2.2-0.3h-2.7L546.8,90.7L546.8,90.7z"/>
	<path d="M403.1,117.6c-0.9-1.1-1.6-2.4-2.2-3.9s-0.9-3-0.9-4.6c0-1.4,0.2-2.7,0.7-4c0.5-1.5,1.3-3,2.4-4.4h1.1
		c-0.7,1.2-1.2,2.1-1.4,2.6c-0.4,0.8-0.6,1.7-0.8,2.5c-0.3,1.1-0.4,2.2-0.4,3.3c0,2.8,0.9,5.6,2.6,8.4L403.1,117.6L403.1,117.6z"/>
	<path d="M419.7,111.2H419c-0.4,0-0.7,0-0.9-0.1c-0.3-0.1-0.5-0.3-0.8-0.5c-0.2,0.2-0.5,0.4-0.7,0.4c-0.3,0.1-0.7,0.2-1.2,0.2h-1.1
		c0,0.5-0.1,1.1-0.4,1.6c-0.3,0.7-0.8,1.2-1.5,1.6c-0.9,0.5-1.9,0.7-3.2,0.7c-1.2,0-2.1-0.2-2.7-0.6c-0.7-0.5-1-1.1-1-2.1
		c0-0.5,0.1-1,0.2-1.5s0.3-1,0.5-1.6c0.1-0.3,0.4-0.8,0.7-1.5l0.4,0.2c-0.4,0.8-0.7,1.5-0.8,2s-0.2,0.9-0.2,1.3
		c0,0.7,0.3,1.3,0.8,1.7c0.5,0.4,1.3,0.6,2.2,0.6c1.1,0,2.1-0.2,3-0.6c1.1-0.5,1.7-1.2,1.7-2c0-0.6-0.1-1.1-0.3-1.7
		c-0.2-0.4-0.4-0.8-0.7-1.2l0.7-1.8c0.3,0.5,0.5,0.9,0.6,1.3c0.1,0.5,0.2,1.2,0.2,2.1h1.1c0.6,0,1-0.1,1.2-0.3
		c0.2-0.1,0.3-0.4,0.3-0.7c0-0.2,0-0.3,0-0.5s-0.1-0.4-0.1-0.6l0.4-0.5l0.1,0.9c0.1,0.6,0.3,1,0.5,1.2c0.2,0.3,0.6,0.4,1,0.4
		c0.1,0,0.2,0,0.3-0.1s0.1-0.2,0.1-0.3c0-0.3-0.1-0.6-0.3-0.9c-0.1-0.2-0.3-0.5-0.5-0.7l0.6-1c0.3,0.5,0.4,0.8,0.5,0.9
		c0.1,0.4,0.2,0.9,0.2,1.6v2.1H419.7z M416.9,104l-0.7,1.3l-1.4-0.7l0.7-1.3L416.9,104z M417.2,101.7l-0.7,1.3l-1.4-0.8l0.7-1.3
		L417.2,101.7z M419,103.2l-0.7,1.3l-1.4-0.8l0.7-1.3L419,103.2z"/>
	<path d="M428.5,111.2c0,0.6-0.3,1.3-0.8,2c-0.5,0.6-1.1,1.1-1.8,1.6c-0.7,0.4-1.2,0.6-1.7,0.6c-0.4,0-0.8-0.1-1.3-0.2
		c-0.4-0.1-0.8-0.2-1.3-0.4c-0.4-0.2-0.8-0.3-1.3-0.5l0.1-0.4c0.4,0.1,0.8,0.2,1.2,0.2c0.4,0.1,0.8,0.1,1.1,0.1
		c0.8,0,1.5-0.2,2.3-0.7c0.7-0.4,1.4-1,1.9-1.7s0.8-1.3,0.8-1.8s-0.1-0.9-0.4-1.5c-0.2-0.4-0.5-0.8-0.9-1.3l0.5-1.4
		c0.5,0.4,0.8,0.9,1.1,1.3c0.3,0.5,0.4,1.1,0.4,1.7L428.5,111.2L428.5,111.2z"/>
	<path d="M439.3,111.2h-6.5c-1.4,0-2.4-0.2-3-0.5c-0.6-0.4-0.9-1-0.9-1.8c0-0.5,0.1-1.1,0.4-1.8c0.1-0.2,0.2-0.5,0.5-1l0.3,0.2
		c-0.2,0.5-0.3,0.8-0.4,1.1s-0.1,0.5-0.1,0.7c0,0.6,0.3,1.1,1,1.3c0.5,0.2,1.2,0.3,2.2,0.3h5.6l-1.1-7.5l-0.5-0.2
		c0-0.4,0-0.8,0.1-1.1c0.1-0.4,0.2-0.7,0.3-1l0.1,0.1c0,0.3,0.2,0.6,0.6,0.8l0.9,0.4c0,0.3,0,0.6-0.1,0.9s-0.1,0.6-0.2,0.8l-0.4-0.1
		l1,6.9v1.5H439.3z M436.1,105.8c0,0.6-0.2,1.1-0.6,1.5s-1,0.5-1.8,0.5c-0.4,0-0.8,0-1.2-0.1c-0.3-0.1-0.7-0.2-1.2-0.3l0.1-0.2
		c0.1,0,0.3,0,0.5,0c0.5,0,0.8,0.1,0.9,0.1c0.7,0,1.3-0.1,1.7-0.3c0.5-0.2,0.7-0.4,0.7-0.7c0-0.1,0-0.2-0.1-0.3s-0.2-0.1-0.4-0.1
		c-0.2,0-0.3,0-0.4,0h-0.6c-0.1,0-0.3,0-0.4-0.1s-0.2-0.2-0.2-0.4c0-0.5,0.3-1.1,0.8-1.8s1.1-1.1,1.6-1.3l-0.2,1.2
		c-0.4,0.1-0.7,0.2-0.9,0.4c-0.4,0.2-0.5,0.5-0.5,0.7c0,0.1,0,0.2,0.1,0.2s0.2,0.1,0.3,0.1c0.1,0,0.2,0,0.3,0l0.5-0.1
		c0.3,0,0.5,0.1,0.6,0.2S436.1,105.5,436.1,105.8z"/>
	<path d="M441.4,103.8l-0.7,1.3l-1.5-0.7l0.7-1.3L441.4,103.8z M444.2,108.6c0,0.8-0.1,1.4-0.4,1.9c-0.4,0.6-1.2,1-2.3,1
		c-0.4,0-0.8-0.1-1.1-0.3c-0.3-0.2-0.5-0.5-0.5-0.8c0-0.4,0.1-0.9,0.3-1.4c0.2-0.5,0.4-0.9,0.6-1.4h-0.1l0.5-1.5
		c1.1,0.6,1.7,0.9,1.9,1.1C443.8,107.6,444.2,108.1,444.2,108.6z M443.4,109.3c0-0.2-0.3-0.5-1-0.9c-0.3-0.2-0.6-0.3-0.9-0.5
		c-0.3,0.3-0.4,0.5-0.5,0.5c-0.2,0.2-0.2,0.4-0.2,0.7c0,0.3,0.1,0.5,0.3,0.7c0.2,0.2,0.4,0.3,0.7,0.3c0.3,0,0.7-0.1,1.1-0.3
		C443.2,109.6,443.4,109.5,443.4,109.3z M443.4,103l-0.7,1.3l-1.4-0.7l0.7-1.3L443.4,103z"/>
	<path d="M460.2,111.2h-6.5c-1.4,0-2.4-0.2-3-0.5c-0.6-0.4-0.9-1-0.9-1.8c0-0.5,0.1-1.1,0.4-1.8c0.1-0.2,0.2-0.5,0.5-1l0.3,0.2
		c-0.2,0.5-0.3,0.8-0.4,1.1s-0.1,0.5-0.1,0.7c0,0.6,0.3,1.1,1,1.3c0.5,0.2,1.2,0.3,2.2,0.3h5.6l-1.1-7.5l-0.5-0.2
		c0-0.4,0-0.8,0.1-1.1c0.1-0.4,0.2-0.7,0.3-1l0.1,0.1c0,0.3,0.2,0.6,0.6,0.8l0.9,0.4c0,0.3,0,0.6-0.1,0.9s-0.1,0.6-0.2,0.8l-0.4-0.1
		l1,6.9v1.5H460.2z M457,105.8c0,0.6-0.2,1.1-0.6,1.5s-1,0.5-1.8,0.5c-0.4,0-0.8,0-1.2-0.1c-0.3-0.1-0.7-0.2-1.2-0.3l0.1-0.2
		c0.1,0,0.3,0,0.5,0c0.5,0,0.8,0.1,0.9,0.1c0.7,0,1.3-0.1,1.7-0.3c0.5-0.2,0.7-0.4,0.7-0.7c0-0.1,0-0.2-0.1-0.3s-0.2-0.1-0.4-0.1
		c-0.2,0-0.3,0-0.4,0h-0.6c-0.1,0-0.3,0-0.4-0.1s-0.2-0.2-0.2-0.4c0-0.5,0.3-1.1,0.8-1.8s1.1-1.1,1.6-1.3l-0.2,1.2
		c-0.4,0.1-0.7,0.2-0.9,0.4c-0.4,0.2-0.5,0.5-0.5,0.7c0,0.1,0,0.2,0.1,0.2s0.2,0.1,0.3,0.1c0.1,0,0.2,0,0.3,0l0.5-0.1
		c0.3,0,0.5,0.1,0.6,0.2S457,105.5,457,105.8z"/>
	<path d="M463.1,109c0,0.5-0.1,0.9-0.3,1.4c-0.1,0.2-0.3,0.6-0.6,1.1l-0.2-0.1c0-0.2,0-0.4,0-0.6s0-0.4,0-0.4c0-0.6,0-1.5-0.1-2.6
		s-0.2-2.2-0.3-3.4c-0.1-0.7-0.2-1.5-0.3-2.2c0.1-0.3,0.3-0.5,0.4-0.8s0.3-0.6,0.4-0.8c0.1,0.7,0.2,1.6,0.4,2.7s0.3,2.2,0.3,3.1
		C463.1,107.5,463.1,108.3,463.1,109z"/>
	<path d="M474.8,106.8c0,0.2,0,0.4-0.1,0.6s-0.1,0.3-0.1,0.4c-0.2-0.3-0.4-0.5-0.7-0.6s-0.6-0.2-0.9-0.2c-0.5,0-1,0.3-1.6,0.9
		c-0.5,0.5-0.8,1-0.8,1.3c0,0.1,0.1,0.2,0.2,0.3s0.3,0.1,0.7,0.1h0.7c0.4,0,0.7,0,0.9,0c0.2,0,0.4,0,0.7,0.1s0.4,0.3,0.4,0.6
		c0,1.5-0.6,2.6-1.9,3.4c-1.2,0.7-2.8,1.1-4.8,1.1c-1,0-1.8-0.2-2.4-0.6s-0.9-1.1-0.9-2c0-0.6,0.1-1.2,0.3-1.9
		c0.2-0.5,0.4-1,0.6-1.6c0,0,0.2-0.4,0.6-1l0.4,0.1c-0.4,0.7-0.7,1.3-0.8,1.8c-0.2,0.6-0.3,1.1-0.3,1.5c0,0.7,0.2,1.3,0.7,1.6
		s1.2,0.5,2.1,0.5c0.7,0,1.5-0.1,2.5-0.4c0.8-0.2,1.5-0.5,2.2-0.9s1-0.6,1-0.7s0-0.2-0.1-0.2s-0.2-0.1-0.4-0.1h-2.1
		c-0.3,0-0.5-0.1-0.7-0.3s-0.3-0.4-0.3-0.7c0-0.4,0.2-0.9,0.5-1.6c0.4-0.7,0.8-1.3,1.3-1.8c0.6-0.6,1.2-0.9,1.8-0.9
		c0.4,0,0.7,0.1,0.9,0.4S474.8,106.3,474.8,106.8z M469.5,116.3l-0.7,1.3l-1.5-0.7l0.7-1.3L469.5,116.3z M471.5,115.5l-0.7,1.3
		l-1.4-0.7l0.7-1.3L471.5,115.5z"/>
	<path d="M486.5,111.2h-1c-1,0-1.8,0.1-2.5,0.3c-0.9,0.2-1.4,0.6-1.4,1s0.1,0.8,0.2,1.2s0.3,0.9,0.4,1.3s0.2,0.9,0.2,1.2
		c0,0.2,0,0.4,0,0.6s-0.1,0.4-0.2,0.7c-0.2-0.5-0.3-1-0.4-1.5c-0.3-0.9-0.5-1.6-0.6-2.1c-0.2-0.8-0.3-1.2-0.3-1.4
		c0-0.8,0.2-1.3,0.5-1.7c0.3-0.4,0.8-0.7,1.4-0.9c0.5-0.2,1.3-0.3,2.3-0.4c-0.4-0.4-0.6-0.6-0.7-0.7c-0.3-0.2-0.6-0.4-0.9-0.4
		c-0.2,0-0.4,0.1-0.6,0.2c-0.1,0.1-0.3,0.3-0.5,0.5l-0.4-0.3c0.2-0.4,0.4-0.8,0.6-1.1c0.4-0.4,0.8-0.7,1.3-0.7
		c0.4,0,0.7,0.1,1.1,0.4c0.3,0.2,0.6,0.5,0.9,0.9c0.2,0.2,0.4,0.5,0.7,1v1.9H486.5z"/>
	<path d="M489.4,109c0,0.5-0.1,0.9-0.3,1.4c-0.1,0.2-0.3,0.6-0.6,1.1l-0.2-0.1c0-0.2,0-0.4,0-0.6s0-0.4,0-0.4c0-0.6,0-1.5-0.1-2.6
		s-0.2-2.2-0.3-3.4c-0.1-0.7-0.2-1.5-0.3-2.2c0.1-0.3,0.3-0.5,0.4-0.8s0.3-0.6,0.4-0.8c0.1,0.7,0.2,1.6,0.4,2.7s0.3,2.2,0.3,3.1
		C489.4,107.5,489.4,108.3,489.4,109z"/>
	<path d="M499.7,111.2c0,1.3-0.4,2.3-1.2,2.9c-0.8,0.7-2.2,1-4,1c-1.2,0-2.1-0.2-2.7-0.6c-0.7-0.5-1-1.1-1-2.1c0-0.5,0.1-1,0.2-1.5
		s0.3-1,0.5-1.6c0.1-0.3,0.4-0.8,0.7-1.5l0.4,0.2c-0.4,0.8-0.7,1.5-0.8,2s-0.2,0.9-0.2,1.3c0,0.7,0.3,1.3,0.8,1.7
		c0.5,0.4,1.3,0.6,2.2,0.6c1.1,0,2.1-0.2,2.9-0.6c1.1-0.5,1.6-1.2,1.6-2c0-0.6-0.1-1.2-0.3-1.7c-0.2-0.5-0.4-0.9-0.7-1.2l0.7-1.8
		c0.3,0.5,0.5,1,0.6,1.5s0.2,1.1,0.2,2L499.7,111.2L499.7,111.2z M496.4,104.5l-0.7,1.3l-1.4-0.7l0.7-1.3L496.4,104.5z"/>
	<path d="M507.6,109c0,0.5-0.1,0.9-0.3,1.4c-0.1,0.2-0.3,0.6-0.6,1.1l-0.2-0.1c0-0.2,0-0.4,0-0.6s0-0.4,0-0.4c0-0.6,0-1.5-0.1-2.6
		s-0.2-2.2-0.3-3.4c-0.1-0.7-0.2-1.5-0.3-2.2c0.1-0.3,0.3-0.5,0.4-0.8s0.3-0.6,0.4-0.8c0.1,0.7,0.2,1.6,0.4,2.7s0.3,2.2,0.3,3.1
		C507.6,107.5,507.6,108.3,507.6,109z"/>
	<path d="M517.5,110.1c0,0.9-0.2,1.7-0.7,2.2c-0.4,0.5-1,0.8-1.7,1c-0.6,0.2-1.5,0.3-2.5,0.3c-1.1,0-2-0.2-2.6-0.6
		c-0.7-0.5-1-1.1-1-2c0-0.5,0.1-1,0.2-1.6c0.1-0.5,0.3-1,0.6-1.5c0.2-0.4,0.4-0.9,0.7-1.4l0.3,0.2c-0.2,0.4-0.4,0.7-0.5,1.1
		c-0.2,0.4-0.3,0.8-0.4,1.1c-0.1,0.4-0.2,0.8-0.2,1.2c0,0.7,0.3,1.3,0.8,1.6s1.3,0.6,2.2,0.6c1,0,1.9-0.2,2.8-0.5
		c0.9-0.4,1.4-0.8,1.4-1.3c0-0.6-0.1-1.5-0.3-2.9c-0.1-1-0.3-2.2-0.5-3.5l-0.3-1.7l-0.4-0.2c0-0.8,0.2-1.5,0.5-2.1h0.1
		c0,0.2,0.1,0.4,0.1,0.5s0.2,0.2,0.3,0.2c0.2,0.1,0.4,0.2,0.6,0.3c0.2,0.1,0.3,0.1,0.4,0.2c0,0.4,0,0.7,0,0.9s-0.1,0.5-0.2,0.8
		l-0.5-0.2c0,0.1,0.1,0.7,0.3,1.8c0.2,1.2,0.3,2.2,0.4,3C517.4,108.6,517.5,109.5,517.5,110.1z"/>
	<path d="M523.6,111.2h-1c-1,0-1.8,0.1-2.5,0.3c-0.9,0.2-1.4,0.6-1.4,1s0.1,0.8,0.2,1.2s0.3,0.9,0.4,1.3c0.1,0.4,0.2,0.9,0.2,1.2
		c0,0.2,0,0.4,0,0.6s-0.1,0.4-0.2,0.7c-0.2-0.5-0.3-1-0.4-1.5c-0.3-0.9-0.5-1.6-0.6-2.1c-0.2-0.8-0.3-1.2-0.3-1.4
		c0-0.8,0.2-1.3,0.5-1.7c0.3-0.4,0.8-0.7,1.4-0.9c0.5-0.2,1.3-0.3,2.3-0.4c-0.4-0.4-0.6-0.6-0.7-0.7c-0.3-0.2-0.6-0.4-0.9-0.4
		c-0.2,0-0.4,0.1-0.6,0.2c-0.1,0.1-0.3,0.3-0.5,0.5l-0.4-0.3c0.2-0.4,0.4-0.8,0.6-1.1c0.4-0.4,0.8-0.7,1.3-0.7
		c0.4,0,0.7,0.1,1.1,0.4c0.3,0.2,0.6,0.5,0.9,0.9c0.2,0.2,0.4,0.5,0.7,1v1.9H523.6z"/>
	<path d="M527.8,107.7c-0.1,0-0.3,0-0.5,0s-0.4,0-0.5,0c-0.4,0-0.8,0-1.3,0.1c-0.3,0-0.7,0.1-1.2,0.2c0.2-0.7,0.5-1.1,0.7-1.3
		c0.4-0.4,1.2-0.7,2.2-0.7c0.4,0,1.2,0.1,2.4,0.2c0.6,0.1,1,0.1,1.4,0.1c0.2,0,0.4,0,0.7-0.1s0.6-0.1,0.7-0.1l-0.3,1.5
		c-1.2,0.2-2.3,0.5-3.2,0.7c-1.3,0.4-2.3,0.9-3,1.5c-0.9,0.7-1.3,1.6-1.3,2.5c0,1.3,0.7,2.2,2,2.8c1.1,0.6,2.7,0.8,4.6,0.8h1.6
		l0.1,0.1l-2,1.4h-0.5c-1.3,0-2.3-0.1-3.2-0.4c-1-0.3-1.8-0.7-2.3-1.4c-0.6-0.7-0.9-1.6-0.9-2.8c0-1,0.2-1.9,0.7-2.7
		c0.4-0.6,0.9-1.2,1.5-1.7C526.5,108.6,527,108.2,527.8,107.7z"/>
	<path d="M539.8,111.2h-3.9c-0.3,0-0.6-0.1-0.9-0.3s-0.4-0.4-0.4-0.7c0-0.2,0-0.4,0-0.6s0.1-0.4,0.1-0.6h0.2
		c0.1,0.2,0.2,0.4,0.4,0.5c0.1,0.1,0.3,0.1,0.6,0.1h3.4c0-1-0.1-1.9-0.4-2.5c-0.4-0.8-1-1.3-1.8-1.6l0.1-1.7c1,0.5,1.7,1.3,2.2,2.4
		c0.3,0.9,0.5,2,0.5,3.4v1.6H539.8z"/>
	<path d="M547.6,110.7c0,1-0.4,1.9-1.1,2.9c-0.8,1.1-1.7,1.6-2.8,1.6c-0.4,0-0.8,0-1.2-0.1c-0.3-0.1-0.7-0.2-1.2-0.3
		c-0.4-0.1-0.8-0.3-1.1-0.4l0.1-0.3c0.3,0.1,0.7,0.2,1,0.2c0.4,0.1,0.7,0.1,1,0.1c0.7,0,1.4-0.2,2-0.5c0.5-0.3,1-0.7,1.5-1.2
		c0.3-0.3,0.6-0.7,1.1-1.3c-0.8,0-1.4-0.1-1.8-0.4c-0.4-0.3-0.7-0.8-0.7-1.4s0.1-1.2,0.4-1.7c0.3-0.6,0.7-0.9,1.2-0.9
		s0.9,0.3,1.1,0.9c0.2,0.5,0.3,1.1,0.3,1.9v0.9H547.6z M547,109.7c-0.1-0.6-0.3-1-0.5-1.2s-0.4-0.3-0.6-0.3c-0.2,0-0.3,0.1-0.4,0.2
		s-0.2,0.2-0.2,0.4c0,0.3,0.1,0.5,0.4,0.7C546,109.7,546.4,109.7,547,109.7z"/>
	<path d="M553.6,111.2h-3.9c-0.3,0-0.6-0.1-0.9-0.3c-0.3-0.2-0.4-0.4-0.4-0.7c0-0.2,0-0.4,0-0.6s0.1-0.4,0.1-0.6h0.2
		c0.1,0.2,0.2,0.4,0.4,0.5c0.1,0.1,0.3,0.1,0.6,0.1h3.4c0-1-0.1-1.9-0.4-2.5c-0.4-0.8-1-1.3-1.8-1.6l0.1-1.7c1,0.5,1.7,1.3,2.2,2.4
		c0.3,0.9,0.5,2,0.5,3.4v1.6H553.6z"/>
	<path d="M555.7,103.8l-0.7,1.3l-1.5-0.7l0.7-1.3L555.7,103.8z M558.5,108.6c0,0.8-0.1,1.4-0.4,1.9c-0.4,0.6-1.2,1-2.3,1
		c-0.4,0-0.8-0.1-1.1-0.3c-0.3-0.2-0.5-0.5-0.5-0.8c0-0.4,0.1-0.9,0.3-1.4c0.2-0.5,0.4-0.9,0.6-1.4H555l0.5-1.5
		c1.1,0.6,1.7,0.9,1.9,1.1C558.2,107.6,558.5,108.1,558.5,108.6z M557.8,109.3c0-0.2-0.3-0.5-1-0.9c-0.3-0.2-0.6-0.3-0.9-0.5
		c-0.3,0.3-0.4,0.5-0.5,0.5c-0.2,0.2-0.2,0.4-0.2,0.7c0,0.3,0.1,0.5,0.3,0.7c0.2,0.2,0.4,0.3,0.7,0.3c0.3,0,0.7-0.1,1.1-0.3
		C557.6,109.6,557.8,109.5,557.8,109.3z M557.7,103l-0.7,1.3l-1.4-0.7l0.7-1.3L557.7,103z"/>
	<path d="M560.8,116.3l-0.3-0.2c2.3-2.1,3.3-5,3.3-7.9c0-2.8-1-5.5-3.3-7.7l0.2-0.3c3.2,2.5,4.3,5.4,4.3,7.9
		C565,111.5,563.5,114.2,560.8,116.3z"/>
</g>
<g>
	<path class="st3" d="M321.3,483.9V471h1.7v5.3h6.7V471h1.7v12.9h-1.7v-6.1H323v6.1H321.3z"/>
	<path class="st3" d="M333.4,479.2c0-1.7,0.5-3,1.4-3.8c0.8-0.7,1.8-1,2.9-1c1.3,0,2.3,0.4,3.1,1.3s1.2,2,1.2,3.5
		c0,1.2-0.2,2.1-0.5,2.8c-0.4,0.7-0.9,1.2-1.6,1.6c-0.7,0.4-1.4,0.6-2.3,0.6c-1.3,0-2.4-0.4-3.2-1.3S333.4,480.8,333.4,479.2z
		 M335,479.2c0,1.2,0.3,2.1,0.8,2.7c0.5,0.6,1.2,0.9,2,0.9s1.4-0.3,2-0.9c0.6-0.6,0.8-1.5,0.8-2.7s-0.3-2-0.8-2.6s-1.2-0.9-2-0.9
		s-1.4,0.3-2,0.9S335,478,335,479.2z"/>
	<path class="st3" d="M350.1,483.9v-1.4c-0.7,1.1-1.7,1.6-3,1.6c-0.6,0-1.1-0.1-1.5-0.3s-0.8-0.5-1.1-0.8c-0.3-0.3-0.4-0.7-0.5-1.2
		c-0.1-0.3-0.1-0.8-0.1-1.5v-5.8h1.6v5.2c0,0.8,0,1.4,0.1,1.7c0.1,0.4,0.3,0.7,0.6,1c0.3,0.2,0.7,0.4,1.2,0.4s0.9-0.1,1.3-0.4
		s0.7-0.6,0.9-1c0.2-0.4,0.3-1,0.3-1.8v-5h1.6v9.3H350.1z"/>
	<path class="st3" d="M353.4,481.1l1.6-0.2c0.1,0.6,0.3,1.1,0.7,1.4s1,0.5,1.7,0.5s1.3-0.1,1.6-0.4s0.5-0.6,0.5-1
		c0-0.4-0.2-0.6-0.5-0.8c-0.2-0.1-0.8-0.3-1.6-0.5c-1.2-0.3-2-0.5-2.4-0.8c-0.4-0.3-0.8-0.5-1-0.9c-0.2-0.4-0.3-0.8-0.3-1.3
		c0-0.4,0.1-0.8,0.3-1.2c0.2-0.4,0.5-0.6,0.8-0.9c0.2-0.2,0.6-0.3,1-0.5c0.4-0.2,0.9-0.2,1.4-0.2c0.7,0,1.4,0.1,1.9,0.3
		c0.5,0.2,1,0.5,1.2,0.9c0.3,0.4,0.4,0.8,0.5,1.4l-1.5,0.2c-0.1-0.5-0.3-0.9-0.6-1.1s-0.8-0.4-1.4-0.4c-0.7,0-1.2,0.1-1.6,0.4
		s-0.5,0.5-0.5,0.8c0,0.2,0.1,0.4,0.2,0.6c0.1,0.2,0.3,0.3,0.6,0.4c0.2,0.1,0.6,0.2,1.4,0.4c1.1,0.3,1.9,0.5,2.3,0.7s0.8,0.5,1,0.8
		c0.2,0.3,0.4,0.8,0.4,1.4c0,0.5-0.2,1-0.5,1.5s-0.8,0.8-1.3,1.1c-0.6,0.3-1.2,0.4-2,0.4c-1.2,0-2.1-0.3-2.8-0.8
		S353.6,482.1,353.4,481.1z"/>
	<path class="st3" d="M369.4,480.8l1.6,0.2c-0.3,1-0.7,1.7-1.4,2.2s-1.6,0.8-2.7,0.8c-1.4,0-2.4-0.4-3.2-1.3c-0.8-0.8-1.2-2-1.2-3.5
		c0-1.6,0.4-2.8,1.2-3.7c0.8-0.9,1.9-1.3,3.1-1.3c1.2,0,2.3,0.4,3.1,1.3c0.8,0.9,1.2,2,1.2,3.6c0,0.1,0,0.2,0,0.4h-7
		c0.1,1,0.3,1.8,0.9,2.4c0.6,0.6,1.2,0.8,2,0.8c0.6,0,1.1-0.2,1.5-0.5S369.2,481.5,369.4,480.8z M364.2,478.3h5.2
		c-0.1-0.8-0.3-1.4-0.6-1.8c-0.5-0.6-1.2-0.9-2-0.9c-0.7,0-1.3,0.2-1.8,0.7S364.3,477.5,364.2,478.3z"/>
	<path class="st3" d="M376.5,483.9v-11.4h-4.2V471h10.2v1.5h-4.3v11.4H376.5z"/>
	<path class="st3" d="M381.5,479.2c0-1.7,0.5-3,1.4-3.8c0.8-0.7,1.8-1,2.9-1c1.3,0,2.3,0.4,3.1,1.3s1.2,2,1.2,3.5
		c0,1.2-0.2,2.1-0.5,2.8c-0.4,0.7-0.9,1.2-1.6,1.6c-0.7,0.4-1.4,0.6-2.3,0.6c-1.3,0-2.4-0.4-3.2-1.3S381.5,480.8,381.5,479.2z
		 M383.1,479.2c0,1.2,0.3,2.1,0.8,2.7c0.5,0.6,1.2,0.9,2,0.9s1.4-0.3,2-0.9c0.6-0.6,0.8-1.5,0.8-2.7s-0.3-2-0.8-2.6s-1.2-0.9-2-0.9
		s-1.4,0.3-2,0.9S383.1,478,383.1,479.2z"/>
	<path class="st3" d="M392.1,483.9V471h1.6v7.3l3.7-3.8h2l-3.6,3.5l3.9,5.9h-2l-3.1-4.8l-1.1,1.1v3.7H392.1z"/>
	<path class="st3" d="M407.4,480.8l1.6,0.2c-0.3,1-0.7,1.7-1.4,2.2s-1.6,0.8-2.7,0.8c-1.4,0-2.4-0.4-3.2-1.3c-0.8-0.8-1.2-2-1.2-3.5
		c0-1.6,0.4-2.8,1.2-3.7c0.8-0.9,1.9-1.3,3.1-1.3c1.2,0,2.3,0.4,3.1,1.3c0.8,0.9,1.2,2,1.2,3.6c0,0.1,0,0.2,0,0.4h-7
		c0.1,1,0.3,1.8,0.9,2.4c0.6,0.6,1.2,0.8,2,0.8c0.6,0,1.1-0.2,1.5-0.5S407.2,481.5,407.4,480.8z M402.2,478.3h5.2
		c-0.1-0.8-0.3-1.4-0.6-1.8c-0.5-0.6-1.2-0.9-2-0.9c-0.7,0-1.3,0.2-1.8,0.7S402.3,477.5,402.2,478.3z"/>
	<path class="st3" d="M411.1,483.9v-9.3h1.4v1.3c0.7-1,1.7-1.5,3-1.5c0.6,0,1.1,0.1,1.6,0.3s0.8,0.5,1.1,0.8
		c0.3,0.3,0.4,0.7,0.5,1.2c0.1,0.3,0.1,0.8,0.1,1.5v5.7h-1.6v-5.7c0-0.6-0.1-1.1-0.2-1.4s-0.3-0.6-0.7-0.8c-0.3-0.2-0.7-0.3-1.1-0.3
		c-0.7,0-1.3,0.2-1.7,0.6s-0.7,1.2-0.7,2.4v5.1L411.1,483.9L411.1,483.9z"/>
	<path class="st3" d="M444.7,481.3h-10.4c-0.2,1.2-0.6,2.1-1.3,2.7c-0.8,0.8-2.1,1.1-3.8,1.1c-1.2,0-2.1-0.2-2.7-0.6
		c-0.7-0.5-1-1.1-1-2.1c0-0.5,0.1-1,0.2-1.5s0.3-1,0.5-1.6c0.1-0.3,0.4-0.8,0.7-1.5l0.4,0.2c-0.4,0.8-0.7,1.5-0.8,2
		s-0.2,0.9-0.2,1.3c0,0.7,0.3,1.3,0.8,1.7s1.3,0.6,2.2,0.6c1.1,0,2.1-0.2,3-0.6c1.1-0.5,1.7-1.2,1.7-2c0-0.6-0.1-1.1-0.3-1.7
		c-0.2-0.4-0.4-0.8-0.7-1.2l0.7-1.8c0.3,0.5,0.5,0.9,0.6,1.3c0.1,0.5,0.2,1.2,0.2,2.1h0.2c0.7,0,1.3-0.1,1.9-0.3
		c0.5-0.2,1.1-0.5,1.6-0.9c0.9-0.6,1.4-1,1.6-1.1c0.5-0.3,0.9-0.5,1.3-0.7c0.4-0.1,0.9-0.2,1.4-0.2c0.8,0,1.4,0.2,1.8,0.7
		c0.4,0.4,0.6,1,0.6,1.8v2.3H444.7z M443.2,479.1c0-0.3-0.2-0.5-0.5-0.7c-0.3-0.2-0.8-0.2-1.3-0.2c-0.4,0-0.9,0.1-1.4,0.3
		c-0.4,0.1-0.8,0.3-1.4,0.6c-0.4,0.2-0.9,0.4-1.3,0.7h4.1c0.6,0,1-0.1,1.3-0.2C443.1,479.5,443.2,479.3,443.2,479.1z"/>
	<path class="st3" d="M454.1,481.3c0,1.3-0.4,2.3-1.2,2.9c-0.8,0.7-2.2,1-4,1c-1.2,0-2.1-0.2-2.7-0.6c-0.7-0.5-1-1.1-1-2.1
		c0-0.5,0.1-1,0.2-1.5s0.3-1,0.5-1.6c0.1-0.3,0.4-0.8,0.7-1.5l0.4,0.2c-0.4,0.8-0.7,1.5-0.8,2s-0.2,0.9-0.2,1.3
		c0,0.7,0.3,1.3,0.8,1.7c0.5,0.4,1.3,0.6,2.2,0.6c1.1,0,2.1-0.2,2.9-0.6c1.1-0.5,1.6-1.2,1.6-2c0-0.6-0.1-1.2-0.3-1.7
		s-0.4-0.9-0.7-1.2l0.7-1.8c0.3,0.5,0.5,1,0.6,1.5s0.2,1.1,0.2,2L454.1,481.3L454.1,481.3z M450.9,474.5l-0.7,1.3l-1.4-0.7l0.7-1.3
		L450.9,474.5z"/>
	<path class="st3" d="M460.2,481.3h-3.9c-0.3,0-0.6-0.1-0.9-0.3c-0.3-0.2-0.4-0.4-0.4-0.7c0-0.2,0-0.4,0-0.6s0.1-0.4,0.1-0.6h0.2
		c0.1,0.2,0.2,0.4,0.4,0.5c0.1,0.1,0.3,0.1,0.6,0.1h3.4c0-1-0.1-1.9-0.4-2.5c-0.4-0.8-1-1.3-1.8-1.6l0.1-1.7c1,0.5,1.7,1.3,2.2,2.4
		c0.3,0.9,0.5,2,0.5,3.4L460.2,481.3L460.2,481.3z"/>
	<path class="st3" d="M468,480.7c0,1-0.4,1.9-1.1,2.9c-0.8,1.1-1.7,1.6-2.8,1.6c-0.4,0-0.8,0-1.2-0.1c-0.3-0.1-0.7-0.2-1.2-0.3
		c-0.4-0.1-0.8-0.3-1.1-0.4l0.1-0.3c0.3,0.1,0.7,0.2,1,0.2c0.4,0.1,0.7,0.1,1,0.1c0.7,0,1.4-0.2,2-0.5c0.5-0.3,1-0.7,1.5-1.2
		c0.3-0.3,0.6-0.7,1.1-1.3c-0.8,0-1.4-0.1-1.8-0.4c-0.4-0.3-0.7-0.8-0.7-1.4c0-0.6,0.1-1.2,0.4-1.7c0.3-0.6,0.7-0.9,1.2-0.9
		s0.9,0.3,1.1,0.9c0.2,0.5,0.3,1.1,0.3,1.9v0.9H468z M467.4,479.8c-0.1-0.6-0.3-1-0.5-1.2c-0.2-0.2-0.4-0.3-0.6-0.3
		c-0.2,0-0.3,0.1-0.4,0.2c-0.1,0.1-0.2,0.2-0.2,0.4c0,0.3,0.1,0.5,0.4,0.7C466.4,479.7,466.8,479.8,467.4,479.8z"/>
	<path class="st3" d="M478.4,481.7c0,1.2-0.6,2-1.7,2.7c-1,0.5-2.3,0.8-4,0.8c-1.3,0-2.3-0.2-3-0.7c-0.8-0.5-1.2-1.3-1.2-2.3
		c0-0.7,0.1-1.4,0.3-2.2c0.2-0.7,0.5-1.4,0.9-2.1l0.4,0.2c-0.2,0.4-0.3,0.8-0.4,1.1c-0.2,0.4-0.3,0.8-0.3,1.1
		c-0.1,0.4-0.1,0.8-0.1,1.1c0,0.8,0.3,1.3,1,1.7c0.6,0.3,1.5,0.5,2.6,0.5c1.2,0,2.3-0.2,3.3-0.6c1.1-0.5,1.6-1.1,1.6-1.9
		c0-0.3,0-0.5,0-0.6c0-0.1-0.1-0.3-0.1-0.4c-0.2,0.1-0.4,0.2-0.7,0.3c-0.2,0.1-0.5,0.1-0.7,0.1c-0.5,0-0.9-0.1-1.3-0.4
		c-0.4-0.3-0.6-0.7-0.6-1.3c0-0.7,0.2-1.3,0.5-1.9c0.4-0.7,0.8-1,1.4-1c0.7,0,1.2,0.5,1.6,1.4c0.3,0.8,0.5,1.7,0.5,2.8V481.7z
		 M475.4,473.1l-0.7,1.3l-1.5-0.7l0.7-1.3L475.4,473.1z M477,478.5c-0.2-0.4-0.3-0.6-0.3-0.7c-0.2-0.2-0.4-0.4-0.6-0.4
		c-0.3,0-0.5,0.1-0.6,0.2c-0.1,0.1-0.2,0.3-0.2,0.5c0,0.2,0.1,0.3,0.3,0.4c0.2,0.1,0.4,0.2,0.6,0.2c0.2,0,0.3,0,0.4-0.1
		C476.7,478.6,476.8,478.6,477,478.5z M477.4,472.3l-0.7,1.3l-1.4-0.7l0.7-1.3L477.4,472.3z"/>
	<path class="st3" d="M486.4,479c0,0.5-0.1,0.9-0.3,1.4c-0.1,0.2-0.3,0.6-0.6,1.1l-0.2-0.1c0-0.2,0-0.4,0-0.6s0-0.4,0-0.4
		c0-0.6,0-1.5-0.1-2.6c-0.1-1.1-0.2-2.2-0.3-3.4c-0.1-0.7-0.2-1.5-0.3-2.2c0.1-0.3,0.3-0.5,0.4-0.8c0.1-0.3,0.3-0.6,0.4-0.8
		c0.1,0.7,0.2,1.6,0.4,2.7c0.2,1.1,0.3,2.2,0.3,3.1C486.4,477.6,486.4,478.4,486.4,479z"/>
	<path class="st3" d="M496.3,480.2c0,0.9-0.2,1.7-0.7,2.2c-0.4,0.5-1,0.8-1.7,1c-0.6,0.2-1.5,0.3-2.5,0.3c-1.1,0-2-0.2-2.6-0.6
		c-0.7-0.5-1-1.1-1-2c0-0.5,0.1-1,0.2-1.6c0.1-0.5,0.3-1,0.6-1.5c0.2-0.4,0.4-0.9,0.7-1.4l0.3,0.2c-0.2,0.4-0.4,0.7-0.5,1.1
		c-0.2,0.4-0.3,0.8-0.4,1.1c-0.1,0.4-0.2,0.8-0.2,1.2c0,0.7,0.3,1.3,0.8,1.6s1.3,0.6,2.2,0.6c1,0,1.9-0.2,2.8-0.5
		c0.9-0.4,1.4-0.8,1.4-1.3c0-0.6-0.1-1.5-0.3-2.9c-0.1-1-0.3-2.2-0.5-3.5l-0.3-1.7l-0.4-0.2c0-0.8,0.2-1.5,0.5-2.1h0.1
		c0,0.2,0.1,0.4,0.1,0.5c0,0.1,0.2,0.2,0.3,0.2c0.2,0.1,0.4,0.2,0.6,0.3c0.2,0.1,0.3,0.1,0.4,0.2c0,0.4,0,0.7,0,0.9
		s-0.1,0.5-0.2,0.8l-0.5-0.2c0,0.1,0.1,0.7,0.3,1.8c0.2,1.2,0.3,2.2,0.4,3C496.2,478.6,496.3,479.5,496.3,480.2z"/>
	<path class="st3" d="M505.6,486.2l-2.2,1.5c-1.2,0-2.2,0-2.8-0.1c-1.2-0.2-2-0.5-2.7-1c-0.8-0.6-1.2-1.6-1.2-2.8
		c0-0.7,0.1-1.4,0.3-2c0.2-0.5,0.4-0.9,0.8-1.3c0.2-0.2,0.5-0.5,0.9-0.9c-0.6-0.3-1-0.5-1.2-0.7c-0.5-0.5-0.7-1-0.7-1.7
		c0-0.6,0.3-1.2,0.8-1.8c0.6-0.7,1.3-1,2.2-1c0.4,0,0.8,0.1,1.2,0.3c0.3,0.1,0.6,0.4,1.1,0.7c-0.6,0-1.2,0-1.8,0.1
		c-0.8,0.1-1.4,0.2-1.9,0.4c-0.6,0.2-0.9,0.5-0.9,0.8c0,0.4,0.3,0.7,1,1c0.6,0.3,1.2,0.5,1.9,0.6c0.6-0.3,1.2-0.6,1.7-0.8
		c0.6-0.2,1.3-0.5,1.9-0.6l-0.4,1.4c-1.2,0.5-2.1,0.8-2.6,1.1c-1.1,0.5-1.9,1-2.5,1.6c-0.7,0.7-1.1,1.4-1.1,2.2s0.3,1.5,0.9,2
		c0.5,0.4,1.3,0.7,2.4,0.9c0.8,0.1,1.9,0.2,3.2,0.2c0.3,0,0.6,0,0.8,0S505.3,486.1,505.6,486.2L505.6,486.2z"/>
	<path class="st3" d="M516.5,481.7c0,1.2-0.6,2-1.7,2.7c-1,0.5-2.3,0.8-4,0.8c-1.3,0-2.3-0.2-3-0.7c-0.8-0.5-1.2-1.3-1.2-2.3
		c0-0.7,0.1-1.4,0.3-2.2c0.2-0.7,0.5-1.4,0.9-2.1l0.4,0.2c-0.2,0.4-0.3,0.8-0.4,1.1c-0.2,0.4-0.3,0.8-0.3,1.1
		c-0.1,0.4-0.1,0.8-0.1,1.1c0,0.8,0.3,1.3,1,1.7c0.6,0.3,1.5,0.5,2.6,0.5c1.2,0,2.3-0.2,3.3-0.6c1.1-0.5,1.6-1.1,1.6-1.9
		c0-0.3,0-0.5,0-0.6c0-0.1-0.1-0.3-0.1-0.4c-0.2,0.1-0.4,0.2-0.7,0.3c-0.2,0.1-0.5,0.1-0.7,0.1c-0.5,0-0.9-0.1-1.3-0.4
		c-0.4-0.3-0.6-0.7-0.6-1.3c0-0.7,0.2-1.3,0.5-1.9c0.4-0.7,0.8-1,1.4-1c0.7,0,1.2,0.5,1.6,1.4c0.3,0.8,0.5,1.7,0.5,2.8V481.7z
		 M513.5,473.1l-0.7,1.3l-1.5-0.7l0.7-1.3L513.5,473.1z M515.1,478.5c-0.2-0.4-0.3-0.6-0.3-0.7c-0.2-0.2-0.4-0.4-0.6-0.4
		c-0.3,0-0.5,0.1-0.6,0.2c-0.1,0.1-0.2,0.3-0.2,0.5c0,0.2,0.1,0.3,0.3,0.4c0.2,0.1,0.4,0.2,0.6,0.2c0.2,0,0.3,0,0.4-0.1
		C514.8,478.6,514.9,478.6,515.1,478.5z M515.5,472.3l-0.7,1.3l-1.4-0.7l0.7-1.3L515.5,472.3z"/>
	<path class="st3" d="M519.5,479c0,0.5-0.1,0.9-0.3,1.4c-0.1,0.2-0.3,0.6-0.6,1.1l-0.2-0.1c0-0.2,0-0.4,0-0.6s0-0.4,0-0.4
		c0-0.6,0-1.5-0.1-2.6c-0.1-1.1-0.2-2.2-0.3-3.4c-0.1-0.7-0.2-1.5-0.3-2.2c0.1-0.3,0.3-0.5,0.4-0.8c0.1-0.3,0.3-0.6,0.4-0.8
		c0.1,0.7,0.2,1.6,0.4,2.7c0.2,1.1,0.3,2.2,0.3,3.1C519.5,477.6,519.5,478.4,519.5,479z"/>
	<path class="st3" d="M529.1,481.3c0,0.6-0.3,1.3-0.8,2c-0.5,0.6-1.1,1.1-1.8,1.6c-0.7,0.4-1.2,0.6-1.7,0.6c-0.4,0-0.8-0.1-1.3-0.2
		c-0.4-0.1-0.8-0.2-1.3-0.4c-0.4-0.2-0.8-0.3-1.3-0.5l0.1-0.4c0.4,0.1,0.8,0.2,1.2,0.2c0.4,0.1,0.8,0.1,1.1,0.1
		c0.8,0,1.5-0.2,2.3-0.7c0.7-0.4,1.4-1,1.9-1.7s0.8-1.3,0.8-1.8s-0.1-0.9-0.4-1.5c-0.2-0.4-0.5-0.8-0.9-1.3l0.5-1.4
		c0.5,0.4,0.8,0.9,1.1,1.3c0.3,0.5,0.4,1.1,0.4,1.7v2.4H529.1z"/>
	<path class="st3" d="M532,479c0,0.5-0.1,0.9-0.3,1.4c-0.1,0.2-0.3,0.6-0.6,1.1l-0.2-0.1c0-0.2,0-0.4,0-0.6s0-0.4,0-0.4
		c0-0.6,0-1.5-0.1-2.6c-0.1-1.1-0.2-2.2-0.3-3.4c-0.1-0.7-0.2-1.5-0.3-2.2c0.1-0.3,0.3-0.5,0.4-0.8c0.1-0.3,0.3-0.6,0.4-0.8
		c0.1,0.7,0.2,1.6,0.4,2.7c0.2,1.1,0.3,2.2,0.3,3.1C532,477.6,532,478.4,532,479z"/>
	<path class="st3" d="M545.6,481.3h-8.4c-1.1,0-2-0.2-2.7-0.6c-0.8-0.5-1.3-1.3-1.3-2.3c0-0.5,0.1-1.1,0.4-1.7
		c0.1-0.2,0.3-0.6,0.6-1.2l0.3,0.2c-0.1,0.3-0.3,0.5-0.4,0.8c-0.2,0.4-0.3,0.8-0.3,1.1c0,0.7,0.4,1.2,1.1,1.6
		c0.7,0.3,1.5,0.5,2.5,0.5h7.4v-0.2c0-0.7-0.1-1.2-0.2-1.6c-0.2-0.4-0.4-0.8-0.8-1.1l0.7-1.4c0.3,0.3,0.4,0.5,0.5,0.6
		c0.4,0.7,0.6,1.6,0.6,2.9L545.6,481.3L545.6,481.3z M539.5,474.1l-0.7,1.3l-1.5-0.7l0.7-1.3L539.5,474.1z M541.5,473.3l-0.7,1.3
		l-1.4-0.7l0.7-1.3L541.5,473.3z"/>
	<path class="st3" d="M553.6,479c0,0.5-0.1,0.9-0.3,1.4c-0.1,0.2-0.3,0.6-0.6,1.1l-0.2-0.1c0-0.2,0-0.4,0-0.6s0-0.4,0-0.4
		c0-0.6,0-1.5-0.1-2.6c-0.1-1.1-0.2-2.2-0.3-3.4c-0.1-0.7-0.2-1.5-0.3-2.2c0.1-0.3,0.3-0.5,0.4-0.8c0.1-0.3,0.3-0.6,0.4-0.8
		c0.1,0.7,0.2,1.6,0.4,2.7c0.2,1.1,0.3,2.2,0.3,3.1C553.6,477.6,553.6,478.4,553.6,479z"/>
	<path class="st3" d="M563.5,480.2c0,0.9-0.2,1.7-0.7,2.2c-0.4,0.5-1,0.8-1.7,1c-0.6,0.2-1.5,0.3-2.5,0.3c-1.1,0-2-0.2-2.6-0.6
		c-0.7-0.5-1-1.1-1-2c0-0.5,0.1-1,0.2-1.6c0.1-0.5,0.3-1,0.6-1.5c0.2-0.4,0.4-0.9,0.7-1.4l0.3,0.2c-0.2,0.4-0.4,0.7-0.5,1.1
		c-0.2,0.4-0.3,0.8-0.4,1.1c-0.1,0.4-0.2,0.8-0.2,1.2c0,0.7,0.3,1.3,0.8,1.6s1.3,0.6,2.2,0.6c1,0,1.9-0.2,2.8-0.5
		c0.9-0.4,1.4-0.8,1.4-1.3c0-0.6-0.1-1.5-0.3-2.9c-0.1-1-0.3-2.2-0.5-3.5l-0.3-1.7l-0.4-0.2c0-0.8,0.2-1.5,0.5-2.1h0.1
		c0,0.2,0.1,0.4,0.1,0.5c0,0.1,0.2,0.2,0.3,0.2c0.2,0.1,0.4,0.2,0.6,0.3c0.2,0.1,0.3,0.1,0.4,0.2c0,0.4,0,0.7,0,0.9
		s-0.1,0.5-0.2,0.8l-0.5-0.2c0,0.1,0.1,0.7,0.3,1.8c0.2,1.2,0.3,2.2,0.4,3C563.4,478.6,563.5,479.5,563.5,480.2z"/>
	<path class="st3" d="M572.8,486.2l-2.2,1.5c-1.2,0-2.2,0-2.8-0.1c-1.2-0.2-2-0.5-2.7-1c-0.8-0.6-1.2-1.6-1.2-2.8
		c0-0.7,0.1-1.4,0.3-2c0.2-0.5,0.4-0.9,0.8-1.3c0.2-0.2,0.5-0.5,0.9-0.9c-0.6-0.3-1-0.5-1.2-0.7c-0.5-0.5-0.7-1-0.7-1.7
		c0-0.6,0.3-1.2,0.8-1.8c0.6-0.7,1.3-1,2.2-1c0.4,0,0.8,0.1,1.2,0.3c0.3,0.1,0.6,0.4,1.1,0.7c-0.6,0-1.2,0-1.8,0.1
		c-0.8,0.1-1.4,0.2-1.9,0.4c-0.6,0.2-0.9,0.5-0.9,0.8c0,0.4,0.3,0.7,1,1c0.6,0.3,1.2,0.5,1.9,0.6c0.6-0.3,1.2-0.6,1.7-0.8
		c0.6-0.2,1.3-0.5,1.9-0.6l-0.4,1.4c-1.2,0.5-2.1,0.8-2.6,1.1c-1.1,0.5-1.9,1-2.5,1.6c-0.7,0.7-1.1,1.4-1.1,2.2s0.3,1.5,0.9,2
		c0.5,0.4,1.3,0.7,2.4,0.9c0.8,0.1,1.9,0.2,3.2,0.2c0.3,0,0.6,0,0.8,0S572.5,486.1,572.8,486.2L572.8,486.2z"/>
	<path class="st3" d="M576.2,479c0,0.5-0.1,0.9-0.3,1.4c-0.1,0.2-0.3,0.6-0.6,1.1l-0.2-0.1c0-0.2,0-0.4,0-0.6s0-0.4,0-0.4
		c0-0.6,0-1.5-0.1-2.6c-0.1-1.1-0.2-2.2-0.3-3.4c-0.1-0.7-0.2-1.5-0.3-2.2c0.1-0.3,0.3-0.5,0.4-0.8c0.1-0.3,0.3-0.6,0.4-0.8
		c0.1,0.7,0.2,1.6,0.4,2.7c0.2,1.1,0.3,2.2,0.3,3.1C576.2,477.6,576.2,478.4,576.2,479z"/>
	<path class="st3" d="M586.1,480.2c0,0.9-0.2,1.7-0.7,2.2c-0.4,0.5-1,0.8-1.7,1c-0.6,0.2-1.5,0.3-2.5,0.3c-1.1,0-2-0.2-2.6-0.6
		c-0.7-0.5-1-1.1-1-2c0-0.5,0.1-1,0.2-1.6c0.1-0.5,0.3-1,0.6-1.5c0.2-0.4,0.4-0.9,0.7-1.4l0.3,0.2c-0.2,0.4-0.4,0.7-0.5,1.1
		c-0.2,0.4-0.3,0.8-0.4,1.1c-0.1,0.4-0.2,0.8-0.2,1.2c0,0.7,0.3,1.3,0.8,1.6s1.3,0.6,2.2,0.6c1,0,1.9-0.2,2.8-0.5
		c0.9-0.4,1.4-0.8,1.4-1.3c0-0.6-0.1-1.5-0.3-2.9c-0.1-1-0.3-2.2-0.5-3.5l-0.3-1.7l-0.4-0.2c0-0.8,0.2-1.5,0.5-2.1h0.1
		c0,0.2,0.1,0.4,0.1,0.5c0,0.1,0.2,0.2,0.3,0.2c0.2,0.1,0.4,0.2,0.6,0.3c0.2,0.1,0.3,0.1,0.4,0.2c0,0.4,0,0.7,0,0.9
		s-0.1,0.5-0.2,0.8l-0.5-0.2c0,0.1,0.1,0.7,0.3,1.8c0.2,1.2,0.3,2.2,0.4,3C586,478.6,586.1,479.5,586.1,480.2z"/>
	<path class="st3" d="M592.2,481.3h-1c-1,0-1.8,0.1-2.5,0.3c-0.9,0.2-1.4,0.6-1.4,1c0,0.4,0.1,0.8,0.2,1.2s0.3,0.9,0.4,1.3
		c0.1,0.4,0.2,0.9,0.2,1.2c0,0.2,0,0.4,0,0.6s-0.1,0.4-0.2,0.7c-0.2-0.5-0.3-1-0.4-1.5c-0.3-0.9-0.5-1.6-0.6-2.1
		c-0.2-0.8-0.3-1.2-0.3-1.4c0-0.8,0.2-1.3,0.5-1.7s0.8-0.7,1.4-0.9c0.5-0.2,1.3-0.3,2.3-0.4c-0.4-0.4-0.6-0.6-0.7-0.7
		c-0.3-0.2-0.6-0.4-0.9-0.4c-0.2,0-0.4,0.1-0.6,0.2c-0.1,0.1-0.3,0.3-0.5,0.5l-0.4-0.3c0.2-0.4,0.4-0.8,0.6-1.1
		c0.4-0.4,0.8-0.7,1.3-0.7c0.4,0,0.7,0.1,1.1,0.4c0.3,0.2,0.6,0.5,0.9,0.9c0.2,0.2,0.4,0.5,0.7,1L592.2,481.3L592.2,481.3z"/>
	<path class="st3" d="M603.1,476.8c0,0.2,0,0.4-0.1,0.6s-0.1,0.3-0.1,0.4c-0.2-0.3-0.5-0.5-0.7-0.6s-0.6-0.2-0.9-0.2
		c-0.5,0-1,0.3-1.6,0.9c-0.5,0.5-0.8,1-0.8,1.3c0,0.1,0.1,0.2,0.2,0.3c0.1,0.1,0.3,0.1,0.7,0.1h0.7c0.4,0,0.7,0,0.9,0s0.4,0,0.7,0.1
		c0.3,0.1,0.4,0.3,0.4,0.6c0,1.5-0.6,2.6-1.9,3.4c-1.2,0.7-2.8,1.1-4.8,1.1c-1,0-1.8-0.2-2.4-0.6c-0.6-0.4-0.9-1.1-0.9-2
		c0-0.6,0.1-1.2,0.3-1.9c0.2-0.5,0.4-1,0.6-1.6c0,0,0.2-0.4,0.6-1l0.4,0.1c-0.4,0.7-0.7,1.3-0.8,1.8c-0.2,0.6-0.3,1.1-0.3,1.5
		c0,0.7,0.2,1.3,0.7,1.6s1.2,0.5,2.1,0.5c0.7,0,1.5-0.1,2.5-0.4c0.8-0.2,1.5-0.5,2.2-0.9s1-0.6,1-0.7c0-0.1,0-0.2-0.1-0.2
		s-0.2-0.1-0.4-0.1h-2.1c-0.3,0-0.5-0.1-0.7-0.3c-0.2-0.2-0.3-0.4-0.3-0.7c0-0.4,0.2-0.9,0.5-1.6c0.4-0.7,0.8-1.3,1.3-1.8
		c0.6-0.6,1.2-0.9,1.8-0.9c0.4,0,0.7,0.1,0.9,0.4S603.1,476.4,603.1,476.8z M597.8,486.3l-0.7,1.3l-1.5-0.7l0.7-1.3L597.8,486.3z
		 M599.8,485.5l-0.7,1.3l-1.4-0.7l0.7-1.3L599.8,485.5z"/>
	<path class="st3" d="M374.6,509.2c-0.9-1.1-1.6-2.4-2.2-3.9s-0.9-3-0.9-4.6c0-1.4,0.2-2.7,0.7-4c0.5-1.5,1.3-3,2.4-4.4h1.1
		c-0.7,1.2-1.2,2.1-1.4,2.6c-0.4,0.8-0.6,1.7-0.8,2.5c-0.3,1.1-0.4,2.2-0.4,3.3c0,2.8,0.9,5.6,2.6,8.4h-1.1V509.2z"/>
	<path class="st3" d="M396.1,502.9h-10.4c-0.2,1.2-0.6,2.1-1.3,2.7c-0.8,0.8-2.1,1.1-3.8,1.1c-1.2,0-2.1-0.2-2.7-0.6
		c-0.7-0.5-1-1.1-1-2.1c0-0.5,0.1-1,0.2-1.5s0.3-1,0.5-1.6c0.1-0.3,0.4-0.8,0.7-1.5l0.4,0.2c-0.4,0.8-0.7,1.5-0.8,2
		s-0.2,0.9-0.2,1.3c0,0.7,0.3,1.3,0.8,1.7c0.5,0.4,1.3,0.6,2.2,0.6c1.1,0,2.1-0.2,3-0.6c1.1-0.5,1.7-1.2,1.7-2
		c0-0.6-0.1-1.1-0.3-1.7c-0.2-0.4-0.4-0.8-0.7-1.2l0.7-1.8c0.3,0.5,0.5,0.9,0.6,1.3c0.1,0.5,0.2,1.2,0.2,2.1h0.2
		c0.7,0,1.3-0.1,1.9-0.3c0.5-0.2,1.1-0.5,1.6-0.9c0.9-0.6,1.4-1,1.6-1.1c0.5-0.3,0.9-0.5,1.3-0.7c0.4-0.1,0.9-0.2,1.4-0.2
		c0.8,0,1.4,0.2,1.8,0.7c0.4,0.4,0.6,1,0.6,1.8v2.3H396.1z M394.7,500.7c0-0.3-0.2-0.5-0.5-0.7c-0.3-0.2-0.8-0.2-1.3-0.2
		c-0.4,0-0.9,0.1-1.4,0.3c-0.4,0.1-0.8,0.3-1.4,0.6c-0.4,0.2-0.9,0.4-1.3,0.7h4.1c0.6,0,1-0.1,1.3-0.2
		C394.5,501.1,394.7,500.9,394.7,500.7z"/>
	<path class="st3" d="M405.6,502.9c0,1.3-0.4,2.3-1.2,2.9c-0.8,0.7-2.2,1-4,1c-1.2,0-2.1-0.2-2.7-0.6c-0.7-0.5-1-1.1-1-2.1
		c0-0.5,0.1-1,0.2-1.5s0.3-1,0.5-1.6c0.1-0.3,0.4-0.8,0.7-1.5l0.4,0.2c-0.4,0.8-0.7,1.5-0.8,2s-0.2,0.9-0.2,1.3
		c0,0.7,0.3,1.3,0.8,1.7s1.3,0.6,2.2,0.6c1.1,0,2.1-0.2,2.9-0.6c1.1-0.5,1.6-1.2,1.6-2c0-0.6-0.1-1.2-0.3-1.7s-0.4-0.9-0.7-1.2
		l0.7-1.8c0.3,0.5,0.5,1,0.6,1.5s0.2,1.1,0.2,2L405.6,502.9L405.6,502.9z M402.4,496.1l-0.7,1.3l-1.4-0.7l0.7-1.3L402.4,496.1z"/>
	<path class="st3" d="M411.7,502.9h-4c-0.3,0-0.6-0.1-0.9-0.3s-0.4-0.4-0.4-0.7c0-0.2,0-0.4,0-0.6s0.1-0.4,0.1-0.6h0.2
		c0.1,0.2,0.2,0.4,0.4,0.5c0.1,0.1,0.3,0.1,0.6,0.1h3.4c0-1-0.1-1.9-0.4-2.5c-0.4-0.8-1-1.3-1.8-1.6l0.1-1.7c1,0.5,1.7,1.3,2.2,2.4
		c0.3,0.9,0.5,2,0.5,3.4L411.7,502.9L411.7,502.9z"/>
	<path class="st3" d="M419.4,502.3c0,1-0.4,1.9-1.1,2.9c-0.8,1.1-1.7,1.6-2.8,1.6c-0.4,0-0.8,0-1.2-0.1c-0.3-0.1-0.7-0.2-1.2-0.3
		c-0.4-0.1-0.8-0.3-1.1-0.4l0.1-0.3c0.3,0.1,0.7,0.2,1,0.2c0.4,0.1,0.7,0.1,1,0.1c0.7,0,1.4-0.2,2-0.5c0.5-0.3,1-0.7,1.5-1.2
		c0.3-0.3,0.6-0.7,1.1-1.3c-0.8,0-1.4-0.1-1.8-0.4c-0.4-0.3-0.7-0.8-0.7-1.4c0-0.6,0.1-1.2,0.4-1.7c0.3-0.6,0.7-0.9,1.2-0.9
		s0.9,0.3,1.1,0.9c0.2,0.5,0.3,1.1,0.3,1.9v0.9H419.4z M418.9,501.4c-0.1-0.6-0.3-1-0.5-1.2s-0.4-0.3-0.6-0.3
		c-0.2,0-0.3,0.1-0.4,0.2s-0.2,0.2-0.2,0.4c0,0.3,0.1,0.5,0.4,0.7C417.9,501.3,418.3,501.4,418.9,501.4z"/>
	<path class="st3" d="M429.9,503.3c0,1.2-0.6,2-1.7,2.7c-1,0.5-2.3,0.8-4,0.8c-1.3,0-2.3-0.2-3-0.7c-0.8-0.5-1.2-1.3-1.2-2.3
		c0-0.7,0.1-1.4,0.3-2.2c0.2-0.7,0.5-1.4,0.9-2.1l0.4,0.2c-0.2,0.4-0.3,0.8-0.4,1.1c-0.2,0.4-0.3,0.8-0.3,1.1
		c-0.1,0.4-0.1,0.8-0.1,1.1c0,0.8,0.3,1.3,1,1.7c0.6,0.3,1.5,0.5,2.6,0.5c1.2,0,2.3-0.2,3.3-0.6c1.1-0.5,1.6-1.1,1.6-1.9
		c0-0.3,0-0.5,0-0.6c0-0.1-0.1-0.3-0.1-0.4c-0.2,0.1-0.4,0.2-0.7,0.3c-0.2,0.1-0.5,0.1-0.7,0.1c-0.5,0-0.9-0.1-1.3-0.4
		c-0.4-0.3-0.6-0.7-0.6-1.3c0-0.7,0.2-1.3,0.5-1.9c0.4-0.7,0.8-1,1.4-1c0.7,0,1.2,0.5,1.6,1.4c0.3,0.8,0.5,1.7,0.5,2.8V503.3z
		 M426.9,494.7l-0.7,1.3l-1.5-0.7l0.7-1.3L426.9,494.7z M428.5,500.1c-0.2-0.4-0.3-0.6-0.3-0.7c-0.2-0.2-0.4-0.4-0.6-0.4
		c-0.3,0-0.5,0.1-0.6,0.2s-0.2,0.3-0.2,0.5s0.1,0.3,0.3,0.4s0.4,0.2,0.6,0.2c0.2,0,0.3,0,0.4-0.1
		C428.1,500.2,428.3,500.2,428.5,500.1z M428.9,493.9l-0.7,1.3l-1.4-0.7l0.7-1.3L428.9,493.9z"/>
	<path class="st3" d="M444,501.8c0,0.9-0.2,1.7-0.7,2.2c-0.4,0.5-1,0.8-1.7,1c-0.6,0.2-1.5,0.3-2.5,0.3c-1.1,0-2-0.2-2.6-0.6
		c-0.7-0.5-1-1.1-1-2c0-0.5,0.1-1,0.2-1.6c0.1-0.5,0.3-1,0.6-1.5c0.2-0.4,0.4-0.9,0.7-1.4l0.3,0.2c-0.2,0.4-0.4,0.7-0.5,1.1
		c-0.2,0.4-0.3,0.8-0.4,1.1c-0.1,0.4-0.2,0.8-0.2,1.2c0,0.7,0.3,1.3,0.8,1.6s1.3,0.6,2.2,0.6c1,0,1.9-0.2,2.8-0.5
		c0.9-0.4,1.4-0.8,1.4-1.3c0-0.6-0.1-1.5-0.3-2.9c-0.1-1-0.3-2.2-0.5-3.5l-0.3-1.7l-0.4-0.2c0-0.8,0.2-1.5,0.5-2.1h0.1
		c0,0.2,0.1,0.4,0.1,0.5c0,0.1,0.2,0.2,0.3,0.2c0.2,0.1,0.4,0.2,0.6,0.3c0.2,0.1,0.3,0.1,0.4,0.2c0,0.4,0,0.7,0,0.9
		s-0.1,0.5-0.2,0.8l-0.5-0.2c0,0.1,0.1,0.7,0.3,1.8c0.2,1.2,0.3,2.2,0.4,3C444,500.2,444,501.1,444,501.8z"/>
	<path class="st3" d="M454.8,502.9h-6.5c-1.4,0-2.4-0.2-3-0.5c-0.6-0.4-0.9-1-0.9-1.8c0-0.5,0.1-1.1,0.4-1.8c0.1-0.2,0.2-0.5,0.5-1
		l0.3,0.2c-0.2,0.5-0.3,0.8-0.4,1.1s-0.1,0.5-0.1,0.7c0,0.6,0.3,1.1,1,1.3c0.5,0.2,1.2,0.3,2.2,0.3h5.6l-1.1-7.5l-0.5-0.2
		c0-0.4,0-0.8,0.1-1.1c0.1-0.4,0.2-0.7,0.3-1l0.1,0.1c0,0.3,0.2,0.6,0.6,0.8l0.9,0.4c0,0.3,0,0.6-0.1,0.9s-0.1,0.6-0.2,0.8l-0.4-0.1
		l1,6.9v1.5H454.8z M451.6,497.5c0,0.6-0.2,1.1-0.6,1.5c-0.4,0.4-1,0.5-1.8,0.5c-0.4,0-0.8,0-1.2-0.1c-0.3-0.1-0.7-0.2-1.2-0.3
		l0.1-0.2c0.1,0,0.3,0,0.5,0c0.5,0,0.8,0.1,0.9,0.1c0.7,0,1.3-0.1,1.7-0.3c0.5-0.2,0.7-0.4,0.7-0.7c0-0.1,0-0.2-0.1-0.3
		s-0.2-0.1-0.4-0.1s-0.3,0-0.4,0h-0.6c-0.1,0-0.3,0-0.4-0.1s-0.2-0.2-0.2-0.4c0-0.5,0.3-1.1,0.8-1.8c0.5-0.7,1.1-1.1,1.6-1.3
		l-0.2,1.2c-0.4,0.1-0.7,0.2-0.9,0.4c-0.4,0.2-0.5,0.5-0.5,0.7c0,0.1,0,0.2,0.1,0.2s0.2,0.1,0.3,0.1s0.2,0,0.3,0l0.5-0.1
		c0.3,0,0.5,0.1,0.6,0.2S451.6,497.1,451.6,497.5z"/>
	<path class="st3" d="M469.6,502.9h-0.7c-0.4,0-0.7,0-0.9-0.1c-0.3-0.1-0.5-0.3-0.8-0.5c-0.2,0.2-0.5,0.4-0.7,0.4
		c-0.3,0.1-0.7,0.2-1.2,0.2h-1.1c0,0.5-0.1,1.1-0.4,1.6c-0.3,0.7-0.8,1.2-1.5,1.6c-0.9,0.5-1.9,0.7-3.2,0.7c-1.2,0-2.1-0.2-2.7-0.6
		c-0.7-0.5-1-1.1-1-2.1c0-0.5,0.1-1,0.2-1.5s0.3-1,0.5-1.6c0.1-0.3,0.4-0.8,0.7-1.5l0.4,0.2c-0.4,0.8-0.7,1.5-0.8,2
		s-0.2,0.9-0.2,1.3c0,0.7,0.3,1.3,0.8,1.7s1.3,0.6,2.2,0.6c1.1,0,2.1-0.2,3-0.6c1.1-0.5,1.7-1.2,1.7-2c0-0.6-0.1-1.1-0.3-1.7
		c-0.2-0.4-0.4-0.8-0.7-1.2l0.7-1.8c0.3,0.5,0.5,0.9,0.6,1.3c0.1,0.5,0.2,1.2,0.2,2.1h1.1c0.6,0,1-0.1,1.2-0.3
		c0.2-0.1,0.3-0.4,0.3-0.7c0-0.2,0-0.3,0-0.5s-0.1-0.4-0.1-0.6l0.4-0.5l0.1,0.9c0.1,0.6,0.3,1,0.5,1.2c0.2,0.3,0.6,0.4,1,0.4
		c0.1,0,0.2,0,0.3-0.1c0.1-0.1,0.1-0.2,0.1-0.3c0-0.3-0.1-0.6-0.3-0.9c-0.1-0.2-0.3-0.5-0.5-0.7l0.6-1c0.3,0.5,0.4,0.8,0.5,0.9
		c0.1,0.4,0.2,0.9,0.2,1.6v2.1H469.6z"/>
	<path class="st3" d="M475.7,502.9h-1c-1,0-1.8,0.1-2.5,0.3c-0.9,0.2-1.4,0.6-1.4,1s0.1,0.8,0.2,1.2c0.1,0.4,0.3,0.9,0.4,1.3
		s0.2,0.9,0.2,1.2c0,0.2,0,0.4,0,0.6s-0.1,0.4-0.2,0.7c-0.2-0.5-0.3-1-0.4-1.5c-0.3-0.9-0.5-1.6-0.6-2.1c-0.2-0.8-0.3-1.2-0.3-1.4
		c0-0.8,0.2-1.3,0.5-1.7c0.3-0.4,0.8-0.7,1.4-0.9c0.5-0.2,1.3-0.3,2.3-0.4c-0.4-0.4-0.6-0.6-0.7-0.7c-0.3-0.2-0.6-0.4-0.9-0.4
		c-0.2,0-0.4,0.1-0.6,0.2c-0.1,0.1-0.3,0.3-0.5,0.5l-0.4-0.3c0.2-0.4,0.4-0.8,0.6-1.1c0.4-0.4,0.8-0.7,1.3-0.7
		c0.4,0,0.7,0.1,1.1,0.4c0.3,0.2,0.6,0.5,0.9,0.9c0.2,0.2,0.4,0.5,0.7,1L475.7,502.9L475.7,502.9z"/>
	<path class="st3" d="M488.5,502.9h-8.4c-1.1,0-2-0.2-2.7-0.6c-0.8-0.5-1.3-1.3-1.3-2.3c0-0.5,0.1-1.1,0.4-1.7
		c0.1-0.2,0.3-0.6,0.6-1.2l0.3,0.2c-0.1,0.3-0.3,0.5-0.4,0.8c-0.2,0.4-0.3,0.8-0.3,1.1c0,0.7,0.4,1.2,1.1,1.6
		c0.7,0.3,1.5,0.5,2.5,0.5h7.4v-0.2c0-0.7-0.1-1.2-0.2-1.6c-0.2-0.4-0.4-0.8-0.8-1.1l0.7-1.4c0.3,0.3,0.4,0.5,0.5,0.6
		c0.4,0.7,0.6,1.6,0.6,2.9L488.5,502.9L488.5,502.9z M483.5,505l-0.7,1.3l-1.4-0.7l0.7-1.3L483.5,505z"/>
	<path class="st3" d="M497.3,502.9c0,0.6-0.3,1.3-0.8,2c-0.5,0.6-1.1,1.1-1.8,1.6c-0.7,0.4-1.2,0.6-1.7,0.6c-0.4,0-0.8-0.1-1.3-0.2
		c-0.4-0.1-0.8-0.2-1.3-0.4c-0.4-0.2-0.8-0.3-1.3-0.5l0.1-0.4c0.4,0.1,0.8,0.2,1.2,0.2c0.4,0.1,0.8,0.1,1.1,0.1
		c0.8,0,1.5-0.2,2.3-0.7c0.7-0.4,1.4-1,1.9-1.7c0.5-0.7,0.8-1.3,0.8-1.8s-0.1-0.9-0.4-1.5c-0.2-0.4-0.5-0.8-0.9-1.3l0.5-1.4
		c0.5,0.4,0.8,0.9,1.1,1.3c0.3,0.5,0.4,1.1,0.4,1.7v2.4H497.3z"/>
	<path class="st3" d="M506.6,507.8l-2.2,1.5c-1.2,0-2.2,0-2.8-0.1c-1.2-0.2-2-0.5-2.7-1c-0.8-0.6-1.2-1.6-1.2-2.8
		c0-0.7,0.1-1.4,0.3-2c0.2-0.5,0.4-0.9,0.8-1.3c0.2-0.2,0.5-0.5,0.9-0.9c-0.6-0.3-1-0.5-1.2-0.7c-0.5-0.5-0.7-1-0.7-1.7
		c0-0.6,0.3-1.2,0.8-1.8c0.6-0.7,1.3-1,2.2-1c0.4,0,0.8,0.1,1.2,0.3c0.3,0.1,0.6,0.4,1.1,0.7c-0.6,0-1.2,0-1.8,0.1
		c-0.8,0.1-1.4,0.2-1.9,0.4c-0.6,0.2-0.9,0.5-0.9,0.8c0,0.4,0.3,0.7,1,1c0.6,0.3,1.2,0.5,1.9,0.6c0.6-0.3,1.2-0.6,1.7-0.8
		c0.6-0.2,1.3-0.5,1.9-0.6l-0.4,1.4c-1.2,0.5-2.1,0.8-2.6,1.1c-1.1,0.5-1.9,1-2.5,1.6c-0.7,0.7-1.1,1.4-1.1,2.2s0.3,1.5,0.9,2
		c0.5,0.4,1.3,0.7,2.4,0.9c0.8,0.1,1.9,0.2,3.2,0.2c0.3,0,0.6,0,0.8,0S506.4,507.7,506.6,507.8L506.6,507.8z M501.7,492.9l-0.7,1.3
		l-1.4-0.7l0.7-1.3L501.7,492.9z"/>
	<path class="st3" d="M511.1,505.5l4.9-12.9h1.8l5.3,12.9h-1.9l-1.5-3.9h-5.4l-1.4,3.9H511.1z M514.8,500.2h4.4l-1.3-3.6
		c-0.4-1.1-0.7-2-0.9-2.7c-0.2,0.8-0.4,1.6-0.7,2.5L514.8,500.2z"/>
	<path class="st3" d="M524.8,505.5v-12.9h1.7v12.9H524.8z"/>
	<path class="st3" d="M529.6,505.5v-12.9h8.7v1.5h-7v4h6v1.5h-6v5.9H529.6z"/>
	<path class="st3" d="M549.7,500.9l1.7,0.4c-0.4,1.4-1,2.5-1.9,3.2s-2.1,1.1-3.4,1.1c-1.4,0-2.5-0.3-3.4-0.8c-0.9-0.6-1.5-1.4-2-2.5
		c-0.5-1.1-0.7-2.2-0.7-3.5c0-1.3,0.3-2.5,0.8-3.5s1.2-1.8,2.2-2.3c0.9-0.5,2-0.8,3.1-0.8c1.3,0,2.4,0.3,3.3,1
		c0.9,0.7,1.5,1.6,1.8,2.8l-1.7,0.4c-0.3-0.9-0.7-1.6-1.3-2s-1.3-0.6-2.1-0.6c-1,0-1.8,0.2-2.5,0.7s-1.1,1.1-1.4,1.9
		c-0.3,0.8-0.4,1.6-0.4,2.5c0,1.1,0.2,2.1,0.5,2.9c0.3,0.8,0.8,1.4,1.5,1.8s1.4,0.6,2.2,0.6c1,0,1.8-0.3,2.4-0.8
		S549.5,502,549.7,500.9z"/>
	<path class="st3" d="M554.4,509.2h-1.1c1.8-2.8,2.6-5.6,2.6-8.4c0-1.1-0.1-2.2-0.4-3.3c-0.2-0.9-0.5-1.7-0.8-2.5
		c-0.2-0.5-0.7-1.4-1.4-2.6h1.1c1.1,1.5,1.9,2.9,2.4,4.4c0.5,1.3,0.7,2.6,0.7,4c0,1.6-0.3,3.1-0.9,4.6S555.2,508.1,554.4,509.2z"/>
</g>
<g>
	<path class="st3" d="M9.9,479.3c0,0.5-0.1,0.9-0.3,1.4c-0.1,0.2-0.3,0.6-0.6,1.1l-0.2-0.1c0-0.2,0-0.4,0-0.6s0-0.4,0-0.4
		c0-0.6,0-1.5-0.1-2.6s-0.2-2.2-0.3-3.4c-0.1-0.7-0.2-1.5-0.3-2.2c0.1-0.3,0.3-0.5,0.4-0.8c0.1-0.3,0.3-0.6,0.4-0.8
		c0.1,0.7,0.2,1.6,0.4,2.7c0.2,1.1,0.3,2.2,0.3,3.1C9.8,477.9,9.9,478.7,9.9,479.3z"/>
	<path class="st3" d="M19.8,480.5c0,0.9-0.2,1.7-0.7,2.2c-0.4,0.5-1,0.8-1.7,1c-0.6,0.2-1.5,0.3-2.5,0.3c-1.1,0-2-0.2-2.6-0.6
		c-0.7-0.5-1-1.1-1-2c0-0.5,0.1-1,0.2-1.6c0.1-0.5,0.3-1,0.6-1.5c0.2-0.4,0.4-0.9,0.7-1.4l0.3,0.2c-0.2,0.4-0.4,0.7-0.5,1.1
		c-0.2,0.4-0.3,0.8-0.4,1.1c-0.1,0.4-0.2,0.8-0.2,1.2c0,0.7,0.3,1.3,0.8,1.6c0.5,0.3,1.3,0.6,2.2,0.6c1,0,1.9-0.2,2.8-0.5
		c0.9-0.4,1.4-0.8,1.4-1.3c0-0.6-0.1-1.5-0.3-2.9c-0.1-1-0.3-2.2-0.5-3.5l-0.3-1.7l-0.4-0.2c0-0.8,0.2-1.5,0.5-2.1h0.1
		c0,0.2,0.1,0.4,0.1,0.5s0.2,0.2,0.3,0.2c0.2,0.1,0.4,0.2,0.6,0.3c0.2,0.1,0.3,0.1,0.4,0.2c0,0.4,0,0.7,0,0.9c0,0.2-0.1,0.5-0.2,0.8
		l-0.5-0.2c0,0.1,0.1,0.7,0.3,1.8c0.2,1.2,0.3,2.2,0.4,3C19.7,478.9,19.8,479.8,19.8,480.5z"/>
	<path class="st3" d="M29,486.5l-2.2,1.5c-1.2,0-2.2,0-2.8-0.1c-1.2-0.2-2-0.5-2.7-1c-0.8-0.6-1.2-1.6-1.2-2.8c0-0.7,0.1-1.4,0.3-2
		c0.2-0.5,0.4-0.9,0.8-1.3c0.2-0.2,0.5-0.5,0.9-0.9c-0.6-0.3-1-0.5-1.2-0.7c-0.5-0.5-0.7-1-0.7-1.7c0-0.6,0.3-1.2,0.8-1.8
		c0.6-0.7,1.3-1,2.2-1c0.4,0,0.8,0.1,1.2,0.3c0.3,0.1,0.6,0.4,1.1,0.7c-0.6,0-1.2,0-1.8,0.1c-0.8,0.1-1.4,0.2-1.9,0.4
		c-0.6,0.2-0.9,0.5-0.9,0.8c0,0.4,0.3,0.7,1,1c0.6,0.3,1.2,0.5,1.9,0.6c0.6-0.3,1.2-0.6,1.7-0.8c0.6-0.2,1.3-0.5,1.9-0.6l-0.4,1.4
		c-1.2,0.5-2.1,0.8-2.6,1.1c-1.1,0.5-1.9,1-2.5,1.6c-0.7,0.7-1.1,1.4-1.1,2.2c0,0.8,0.3,1.5,0.9,2c0.5,0.4,1.3,0.7,2.4,0.9
		c0.8,0.1,1.9,0.2,3.2,0.2c0.3,0,0.6,0,0.8,0S28.8,486.4,29,486.5L29,486.5z"/>
	<path class="st3" d="M40,482c0,1.2-0.6,2-1.7,2.7c-1,0.5-2.3,0.8-4,0.8c-1.3,0-2.3-0.2-3-0.7c-0.8-0.5-1.2-1.3-1.2-2.3
		c0-0.7,0.1-1.4,0.3-2.2c0.2-0.7,0.5-1.4,0.9-2.1l0.4,0.2c-0.2,0.4-0.3,0.8-0.4,1.1c-0.2,0.4-0.3,0.8-0.3,1.1
		c-0.1,0.4-0.1,0.8-0.1,1.1c0,0.8,0.3,1.3,1,1.7c0.6,0.3,1.5,0.5,2.6,0.5c1.2,0,2.3-0.2,3.3-0.6c1.1-0.5,1.6-1.1,1.6-1.9
		c0-0.3,0-0.5,0-0.6s-0.1-0.3-0.1-0.4c-0.2,0.1-0.4,0.2-0.7,0.3c-0.2,0.1-0.5,0.1-0.7,0.1c-0.5,0-0.9-0.1-1.3-0.4
		c-0.4-0.3-0.6-0.7-0.6-1.3c0-0.7,0.2-1.3,0.5-1.9c0.4-0.7,0.8-1,1.4-1c0.7,0,1.2,0.5,1.6,1.4c0.3,0.8,0.5,1.7,0.5,2.8V482z
		 M37,473.4l-0.7,1.3l-1.5-0.7l0.7-1.3L37,473.4z M38.6,478.8c-0.2-0.4-0.3-0.6-0.3-0.7c-0.2-0.2-0.4-0.4-0.6-0.4
		c-0.3,0-0.5,0.1-0.6,0.2c-0.1,0.1-0.2,0.3-0.2,0.5c0,0.2,0.1,0.3,0.3,0.4c0.2,0.1,0.4,0.2,0.6,0.2c0.2,0,0.3,0,0.4-0.1
		C38.3,478.9,38.4,478.9,38.6,478.8z M39,472.6l-0.7,1.3l-1.4-0.7l0.7-1.3L39,472.6z"/>
	<path class="st3" d="M43,479.3c0,0.5-0.1,0.9-0.3,1.4c-0.1,0.2-0.3,0.6-0.6,1.1l-0.2-0.1c0-0.2,0-0.4,0-0.6s0-0.4,0-0.4
		c0-0.6,0-1.5-0.1-2.6s-0.2-2.2-0.3-3.4c-0.1-0.7-0.2-1.5-0.3-2.2c0.1-0.3,0.3-0.5,0.4-0.8c0.1-0.3,0.3-0.6,0.4-0.8
		c0.1,0.7,0.2,1.6,0.4,2.7c0.2,1.1,0.3,2.2,0.3,3.1C42.9,477.9,43,478.7,43,479.3z"/>
	<path class="st3" d="M52.5,481.6c0,0.6-0.3,1.3-0.8,2c-0.5,0.6-1.1,1.1-1.8,1.6c-0.7,0.4-1.2,0.6-1.7,0.6c-0.4,0-0.8-0.1-1.3-0.2
		c-0.4-0.1-0.8-0.2-1.3-0.4c-0.4-0.2-0.8-0.3-1.3-0.5l0.1-0.4c0.4,0.1,0.8,0.2,1.2,0.2c0.4,0.1,0.8,0.1,1.1,0.1
		c0.8,0,1.5-0.2,2.3-0.7c0.7-0.4,1.4-1,1.9-1.7c0.5-0.7,0.8-1.3,0.8-1.8s-0.1-0.9-0.4-1.5c-0.2-0.4-0.5-0.8-0.9-1.3l0.5-1.4
		c0.5,0.4,0.8,0.9,1.1,1.3c0.3,0.5,0.4,1.1,0.4,1.7v2.4H52.5z"/>
	<path class="st3" d="M55.5,479.3c0,0.5-0.1,0.9-0.3,1.4c-0.1,0.2-0.3,0.6-0.6,1.1l-0.2-0.1c0-0.2,0-0.4,0-0.6s0-0.4,0-0.4
		c0-0.6,0-1.5-0.1-2.6s-0.2-2.2-0.3-3.4c-0.1-0.7-0.2-1.5-0.3-2.2c0.1-0.3,0.3-0.5,0.4-0.8c0.1-0.3,0.3-0.6,0.4-0.8
		c0.1,0.7,0.2,1.6,0.4,2.7c0.2,1.1,0.3,2.2,0.3,3.1C55.5,477.9,55.5,478.7,55.5,479.3z"/>
	<path class="st3" d="M69.1,481.6h-8.4c-1.1,0-2-0.2-2.7-0.6c-0.8-0.5-1.3-1.3-1.3-2.3c0-0.5,0.1-1.1,0.4-1.7
		c0.1-0.2,0.3-0.6,0.6-1.2L58,476c-0.1,0.3-0.3,0.5-0.4,0.8c-0.2,0.4-0.3,0.8-0.3,1.1c0,0.7,0.4,1.2,1.1,1.6
		c0.7,0.3,1.5,0.5,2.5,0.5h7.4v-0.2c0-0.7-0.1-1.2-0.2-1.6c-0.2-0.4-0.4-0.8-0.8-1.1l0.7-1.4c0.3,0.3,0.4,0.5,0.5,0.6
		c0.4,0.7,0.6,1.6,0.6,2.9L69.1,481.6L69.1,481.6z M63,474.4l-0.7,1.3l-1.5-0.7l0.7-1.3L63,474.4z M65,473.6l-0.7,1.3l-1.4-0.7
		l0.7-1.3L65,473.6z"/>
	<path class="st3" d="M77.1,479.3c0,0.5-0.1,0.9-0.3,1.4c-0.1,0.2-0.3,0.6-0.6,1.1l-0.2-0.1c0-0.2,0-0.4,0-0.6s0-0.4,0-0.4
		c0-0.6,0-1.5-0.1-2.6s-0.2-2.2-0.3-3.4c-0.1-0.7-0.2-1.5-0.3-2.2c0.1-0.3,0.3-0.5,0.4-0.8c0.1-0.3,0.3-0.6,0.4-0.8
		c0.1,0.7,0.2,1.6,0.4,2.7c0.2,1.1,0.3,2.2,0.3,3.1C77,477.9,77.1,478.7,77.1,479.3z"/>
	<path class="st3" d="M87,480.5c0,0.9-0.2,1.7-0.7,2.2c-0.4,0.5-1,0.8-1.7,1c-0.6,0.2-1.5,0.3-2.5,0.3c-1.1,0-2-0.2-2.6-0.6
		c-0.7-0.5-1-1.1-1-2c0-0.5,0.1-1,0.2-1.6c0.1-0.5,0.3-1,0.6-1.5c0.2-0.4,0.4-0.9,0.7-1.4l0.3,0.2c-0.2,0.4-0.4,0.7-0.5,1.1
		c-0.2,0.4-0.3,0.8-0.4,1.1c-0.1,0.4-0.2,0.8-0.2,1.2c0,0.7,0.3,1.3,0.8,1.6c0.5,0.3,1.3,0.6,2.2,0.6c1,0,1.9-0.2,2.8-0.5
		c0.9-0.4,1.4-0.8,1.4-1.3c0-0.6-0.1-1.5-0.3-2.9c-0.1-1-0.3-2.2-0.5-3.5l-0.3-1.7l-0.4-0.2c0-0.8,0.2-1.5,0.5-2.1h0.1
		c0,0.2,0.1,0.4,0.1,0.5s0.2,0.2,0.3,0.2c0.2,0.1,0.4,0.2,0.6,0.3c0.2,0.1,0.3,0.1,0.4,0.2c0,0.4,0,0.7,0,0.9c0,0.2-0.1,0.5-0.2,0.8
		l-0.5-0.2c0,0.1,0.1,0.7,0.3,1.8c0.2,1.2,0.3,2.2,0.4,3C86.9,478.9,87,479.8,87,480.5z"/>
	<path class="st3" d="M99.8,481.6h-8.4c-1.1,0-2-0.2-2.7-0.6c-0.8-0.5-1.3-1.3-1.3-2.3c0-0.5,0.1-1.1,0.4-1.7
		c0.1-0.2,0.3-0.6,0.6-1.2l0.3,0.2c-0.1,0.3-0.3,0.5-0.4,0.8c-0.2,0.4-0.3,0.8-0.3,1.1c0,0.7,0.4,1.2,1.1,1.6
		c0.7,0.3,1.5,0.5,2.5,0.5H99v-0.2c0-0.7-0.1-1.2-0.2-1.6c-0.2-0.4-0.4-0.8-0.8-1.1l0.7-1.4c0.3,0.3,0.4,0.5,0.5,0.6
		c0.4,0.7,0.6,1.6,0.6,2.9L99.8,481.6L99.8,481.6z M93.7,474.4l-0.7,1.3l-1.5-0.7l0.7-1.3L93.7,474.4z M95.7,473.6l-0.7,1.3
		l-1.4-0.7l0.7-1.3L95.7,473.6z"/>
	<path class="st3" d="M104.1,478c-0.1,0-0.3,0-0.5,0s-0.4,0-0.5,0c-0.4,0-0.8,0-1.3,0.1c-0.3,0-0.7,0.1-1.2,0.2
		c0.2-0.7,0.5-1.1,0.7-1.3c0.4-0.4,1.2-0.7,2.2-0.7c0.4,0,1.2,0.1,2.4,0.2c0.6,0.1,1,0.1,1.4,0.1c0.2,0,0.4,0,0.7-0.1
		s0.6-0.1,0.7-0.1l-0.3,1.5c-1.2,0.2-2.3,0.5-3.2,0.7c-1.3,0.4-2.3,0.9-3,1.5c-0.9,0.7-1.3,1.6-1.3,2.5c0,1.3,0.7,2.2,2,2.8
		c1.1,0.6,2.7,0.8,4.6,0.8h1.6l0.1,0.1l-2,1.4h-0.5c-1.3,0-2.3-0.1-3.2-0.4c-1-0.3-1.8-0.7-2.3-1.4c-0.6-0.7-0.9-1.6-0.9-2.8
		c0-1,0.2-1.9,0.7-2.7c0.4-0.6,0.9-1.2,1.5-1.7C102.7,478.9,103.2,478.6,104.1,478z M106.6,481.9l-0.7,1.3l-1.4-0.7l0.7-1.3
		L106.6,481.9z"/>
	<path class="st3" d="M112.9,479.3c0,0.5-0.1,0.9-0.3,1.4c-0.1,0.2-0.3,0.6-0.6,1.1l-0.2-0.1c0-0.2,0-0.4,0-0.6s0-0.4,0-0.4
		c0-0.6,0-1.5-0.1-2.6s-0.2-2.2-0.3-3.4c-0.1-0.7-0.2-1.5-0.3-2.2c0.1-0.3,0.3-0.5,0.4-0.8c0.1-0.3,0.3-0.6,0.4-0.8
		c0.1,0.7,0.2,1.6,0.4,2.7c0.2,1.1,0.3,2.2,0.3,3.1C112.9,477.9,112.9,478.7,112.9,479.3z"/>
	<path class="st3" d="M122.5,481.6c0,0.6-0.3,1.3-0.8,2c-0.5,0.6-1.1,1.1-1.8,1.6c-0.7,0.4-1.2,0.6-1.7,0.6c-0.4,0-0.8-0.1-1.3-0.2
		c-0.4-0.1-0.8-0.2-1.3-0.4c-0.4-0.2-0.8-0.3-1.3-0.5l0.1-0.4c0.4,0.1,0.8,0.2,1.2,0.2c0.4,0.1,0.8,0.1,1.1,0.1
		c0.8,0,1.5-0.2,2.3-0.7c0.7-0.4,1.4-1,1.9-1.7c0.5-0.7,0.8-1.3,0.8-1.8s-0.1-0.9-0.4-1.5c-0.2-0.4-0.5-0.8-0.9-1.3l0.5-1.4
		c0.5,0.4,0.8,0.9,1.1,1.3c0.3,0.5,0.4,1.1,0.4,1.7v2.4H122.5z"/>
	<path class="st3" d="M133.4,477.1c0,0.2,0,0.4-0.1,0.6s-0.1,0.3-0.1,0.4c-0.2-0.3-0.4-0.5-0.7-0.6s-0.6-0.2-0.9-0.2
		c-0.5,0-1,0.3-1.6,0.9c-0.5,0.5-0.8,1-0.8,1.3c0,0.1,0.1,0.2,0.2,0.3s0.3,0.1,0.7,0.1h0.7c0.4,0,0.7,0,0.9,0s0.4,0,0.7,0.1
		s0.4,0.3,0.4,0.6c0,1.5-0.6,2.6-1.9,3.4c-1.2,0.7-2.8,1.1-4.8,1.1c-1,0-1.8-0.2-2.4-0.6c-0.6-0.4-0.9-1.1-0.9-2
		c0-0.6,0.1-1.2,0.3-1.9c0.2-0.5,0.4-1,0.6-1.6c0,0,0.2-0.4,0.6-1l0.4,0.1c-0.4,0.7-0.7,1.3-0.8,1.8c-0.2,0.6-0.3,1.1-0.3,1.5
		c0,0.7,0.2,1.3,0.7,1.6c0.5,0.3,1.2,0.5,2.1,0.5c0.7,0,1.5-0.1,2.5-0.4c0.8-0.2,1.5-0.5,2.2-0.9s1-0.6,1-0.7s0-0.2-0.1-0.2
		s-0.2-0.1-0.4-0.1h-2.1c-0.3,0-0.5-0.1-0.7-0.3c-0.2-0.2-0.3-0.4-0.3-0.7c0-0.4,0.2-0.9,0.5-1.6c0.4-0.7,0.8-1.3,1.3-1.8
		c0.6-0.6,1.2-0.9,1.8-0.9c0.4,0,0.7,0.1,0.9,0.4S133.4,476.7,133.4,477.1z M128,486.6l-0.7,1.3l-1.5-0.7l0.7-1.3L128,486.6z
		 M130,485.8l-0.7,1.3l-1.4-0.7l0.7-1.3L130,485.8z"/>
	<path class="st3" d="M136,474.2l-0.7,1.3l-1.5-0.7l0.7-1.3L136,474.2z M138.8,479c0,0.8-0.1,1.4-0.4,1.9c-0.4,0.6-1.2,1-2.3,1
		c-0.4,0-0.8-0.1-1.1-0.3c-0.3-0.2-0.5-0.5-0.5-0.8c0-0.4,0.1-0.9,0.3-1.4s0.4-0.9,0.6-1.4h-0.1l0.5-1.5c1.1,0.6,1.7,0.9,1.9,1.1
		C138.5,478,138.8,478.5,138.8,479z M138.1,479.7c0-0.2-0.3-0.5-1-0.9c-0.3-0.2-0.6-0.3-0.9-0.5c-0.3,0.3-0.4,0.5-0.5,0.5
		c-0.2,0.2-0.2,0.4-0.2,0.7c0,0.3,0.1,0.5,0.3,0.7c0.2,0.2,0.4,0.3,0.7,0.3s0.7-0.1,1.1-0.3C137.9,480,138.1,479.8,138.1,479.7z
		 M138,473.4l-0.7,1.3l-1.4-0.7l0.7-1.3L138,473.4z"/>
	<path class="st3" d="M147,479.3c0,0.5-0.1,0.9-0.3,1.4c-0.1,0.2-0.3,0.6-0.6,1.1l-0.2-0.1c0-0.2,0-0.4,0-0.6s0-0.4,0-0.4
		c0-0.6,0-1.5-0.1-2.6s-0.2-2.2-0.3-3.4c-0.1-0.7-0.2-1.5-0.3-2.2c0.1-0.3,0.3-0.5,0.4-0.8c0.1-0.3,0.3-0.6,0.4-0.8
		c0.1,0.7,0.2,1.6,0.4,2.7c0.2,1.1,0.3,2.2,0.3,3.1C146.9,477.9,147,478.7,147,479.3z"/>
	<path class="st3" d="M156.9,480.5c0,0.9-0.2,1.7-0.7,2.2c-0.4,0.5-1,0.8-1.7,1c-0.6,0.2-1.5,0.3-2.5,0.3c-1.1,0-2-0.2-2.6-0.6
		c-0.7-0.5-1-1.1-1-2c0-0.5,0.1-1,0.2-1.6c0.1-0.5,0.3-1,0.6-1.5c0.2-0.4,0.4-0.9,0.7-1.4l0.3,0.2c-0.2,0.4-0.4,0.7-0.5,1.1
		c-0.2,0.4-0.3,0.8-0.4,1.1c-0.1,0.4-0.2,0.8-0.2,1.2c0,0.7,0.3,1.3,0.8,1.6c0.5,0.3,1.3,0.6,2.2,0.6c1,0,1.9-0.2,2.8-0.5
		c0.9-0.4,1.4-0.8,1.4-1.3c0-0.6-0.1-1.5-0.3-2.9c-0.1-1-0.3-2.2-0.5-3.5l-0.3-1.7l-0.4-0.2c0-0.8,0.2-1.5,0.5-2.1h0.1
		c0,0.2,0.1,0.4,0.1,0.5s0.2,0.2,0.3,0.2c0.2,0.1,0.4,0.2,0.6,0.3s0.3,0.1,0.4,0.2c0,0.4,0,0.7,0,0.9c0,0.2-0.1,0.5-0.2,0.8
		l-0.5-0.2c0,0.1,0.1,0.7,0.3,1.8c0.2,1.2,0.3,2.2,0.4,3C156.8,478.9,156.9,479.8,156.9,480.5z"/>
	<path class="st3" d="M162.9,481.6h-1c-1,0-1.8,0.1-2.5,0.3c-0.9,0.2-1.4,0.6-1.4,1s0.1,0.8,0.2,1.2s0.3,0.9,0.4,1.3
		c0.1,0.4,0.2,0.9,0.2,1.2c0,0.2,0,0.4,0,0.6s-0.1,0.4-0.2,0.7c-0.2-0.5-0.3-1-0.4-1.5c-0.3-0.9-0.5-1.6-0.6-2.1
		c-0.2-0.8-0.3-1.2-0.3-1.4c0-0.8,0.2-1.3,0.5-1.7s0.8-0.7,1.4-0.9c0.5-0.2,1.3-0.3,2.3-0.4c-0.4-0.4-0.6-0.6-0.7-0.7
		c-0.3-0.2-0.6-0.4-0.9-0.4c-0.2,0-0.4,0.1-0.6,0.2c-0.1,0.1-0.3,0.3-0.5,0.5l-0.4-0.3c0.2-0.4,0.4-0.8,0.6-1.1
		c0.4-0.4,0.8-0.7,1.3-0.7c0.4,0,0.7,0.1,1.1,0.4c0.3,0.2,0.6,0.5,0.9,0.9c0.2,0.2,0.4,0.5,0.7,1L162.9,481.6L162.9,481.6z"/>
	<path class="st3" d="M169,481.6h-1c-1,0-1.8,0.1-2.5,0.3c-0.9,0.2-1.4,0.6-1.4,1s0.1,0.8,0.2,1.2s0.3,0.9,0.4,1.3
		c0.1,0.4,0.2,0.9,0.2,1.2c0,0.2,0,0.4,0,0.6s-0.1,0.4-0.2,0.7c-0.2-0.5-0.3-1-0.4-1.5c-0.3-0.9-0.5-1.6-0.6-2.1
		c-0.2-0.8-0.3-1.2-0.3-1.4c0-0.8,0.2-1.3,0.5-1.7s0.8-0.7,1.4-0.9c0.5-0.2,1.3-0.3,2.3-0.4c-0.4-0.4-0.6-0.6-0.7-0.7
		c-0.3-0.2-0.6-0.4-0.9-0.4c-0.2,0-0.4,0.1-0.6,0.2c-0.1,0.1-0.3,0.3-0.5,0.5l-0.4-0.3c0.2-0.4,0.4-0.8,0.6-1.1
		c0.4-0.4,0.8-0.7,1.3-0.7c0.4,0,0.7,0.1,1.1,0.4c0.3,0.2,0.6,0.5,0.9,0.9c0.2,0.2,0.4,0.5,0.7,1L169,481.6L169,481.6z"/>
	<path class="st3" d="M181.9,481.6h-8.4c-1.1,0-2-0.2-2.7-0.6c-0.8-0.5-1.3-1.3-1.3-2.3c0-0.5,0.1-1.1,0.4-1.7
		c0.1-0.2,0.3-0.6,0.6-1.2l0.3,0.2c-0.1,0.3-0.3,0.5-0.4,0.8c-0.2,0.4-0.3,0.8-0.3,1.1c0,0.7,0.4,1.2,1.1,1.6
		c0.7,0.3,1.5,0.5,2.5,0.5h7.4v-0.2c0-0.7-0.1-1.2-0.2-1.6c-0.2-0.4-0.4-0.8-0.8-1.1l0.7-1.4c0.3,0.3,0.4,0.5,0.5,0.6
		c0.4,0.7,0.6,1.6,0.6,2.9L181.9,481.6L181.9,481.6z M175.7,474.4l-0.7,1.3l-1.5-0.7l0.7-1.3L175.7,474.4z M177.7,473.6l-0.7,1.3
		l-1.4-0.7l0.7-1.3L177.7,473.6z"/>
	<path class="st3" d="M184.8,479.3c0,0.5-0.1,0.9-0.3,1.4c-0.1,0.2-0.3,0.6-0.6,1.1l-0.2-0.1c0-0.2,0-0.4,0-0.6s0-0.4,0-0.4
		c0-0.6,0-1.5-0.1-2.6s-0.2-2.2-0.3-3.4c-0.1-0.7-0.2-1.5-0.3-2.2c0.1-0.3,0.3-0.5,0.4-0.8c0.1-0.3,0.3-0.6,0.4-0.8
		c0.1,0.7,0.2,1.6,0.4,2.7c0.2,1.1,0.3,2.2,0.3,3.1C184.8,477.9,184.8,478.7,184.8,479.3z"/>
	<path class="st3" d="M194.4,481.6c0,0.6-0.3,1.3-0.8,2c-0.5,0.6-1.1,1.1-1.8,1.6c-0.7,0.4-1.2,0.6-1.7,0.6c-0.4,0-0.8-0.1-1.3-0.2
		c-0.4-0.1-0.8-0.2-1.3-0.4c-0.4-0.2-0.8-0.3-1.3-0.5l0.1-0.4c0.4,0.1,0.8,0.2,1.2,0.2c0.4,0.1,0.8,0.1,1.1,0.1
		c0.8,0,1.5-0.2,2.3-0.7c0.7-0.4,1.4-1,1.9-1.7c0.5-0.7,0.8-1.3,0.8-1.8s-0.1-0.9-0.4-1.5c-0.2-0.4-0.5-0.8-0.9-1.3l0.5-1.4
		c0.5,0.4,0.8,0.9,1.1,1.3c0.3,0.5,0.4,1.1,0.4,1.7v2.4H194.4z M193.1,473.4l-0.7,1.3L191,474l0.7-1.3L193.1,473.4z"/>
	<path class="st3" d="M196.5,474.2l-0.7,1.3l-1.5-0.7l0.7-1.3L196.5,474.2z M199.3,479c0,0.8-0.1,1.4-0.4,1.9c-0.4,0.6-1.2,1-2.3,1
		c-0.4,0-0.8-0.1-1.1-0.3c-0.3-0.2-0.5-0.5-0.5-0.8c0-0.4,0.1-0.9,0.3-1.4c0.2-0.5,0.4-0.9,0.6-1.4h-0.1l0.5-1.5
		c1.1,0.6,1.7,0.9,1.9,1.1C198.9,478,199.3,478.5,199.3,479z M198.5,479.7c0-0.2-0.3-0.5-1-0.9c-0.3-0.2-0.6-0.3-0.9-0.5
		c-0.3,0.3-0.4,0.5-0.5,0.5c-0.2,0.2-0.2,0.4-0.2,0.7c0,0.3,0.1,0.5,0.3,0.7c0.2,0.2,0.4,0.3,0.7,0.3c0.3,0,0.7-0.1,1.1-0.3
		C198.3,480,198.5,479.8,198.5,479.7z M198.5,473.4l-0.7,1.3l-1.4-0.7l0.7-1.3L198.5,473.4z"/>
</g>
</svg>
