<?xml version="1.0" encoding="utf-8"?>
<!-- Generator: Adobe Illustrator 23.0.0, SVG Export Plug-In . SVG Version: 6.00 Build 0)  -->
<svg version="1.1" id="运作原理" xmlns="http://www.w3.org/2000/svg" xmlns:xlink="http://www.w3.org/1999/xlink" x="0px"
	 y="0px" viewBox="0 0 817 407" style="enable-background:new 0 0 817 407;" xml:space="preserve">
<style type="text/css">
	.st0{fill:none;stroke:#90A7AB;}
	.st1{fill:#70DBCB;}
	.st2{fill:#9FE7DD;stroke:#34B9A1;stroke-width:2;}
	.st3{fill:none;stroke:#456E68;stroke-width:1.5;stroke-miterlimit:10;}
	.st4{enable-background:new    ;}
	.st5{fill:#456E68;}
</style>
<path id="形状_1_拷贝_3" class="st0" d="M63.1,200.2l0.1,71.6l4.6-2.1"/>
<path id="形状_1_拷贝_5" class="st0" d="M734.8,153.2l-0.1-71.1l-4.6,2"/>
<path id="形状_1" class="st0" d="M127.2,93.1h98.3l46.2,46.1l-0.3-6"/>
<path id="形状_1_拷贝_2" class="st0" d="M271.4,172.3h-98l-46.1-46.5l0.3,6.1"/>
<path id="形状_1_拷贝" class="st0" d="M653,207.3h-98.1l-46.1,46.1l0.3-6"/>
<path id="形状_1_拷贝_4" class="st0" d="M509.1,286.5H607l46-46.5l-0.3,6.1"/>
<g id="椭圆_7">
	<path class="st1" d="M225.4,219.8c-10.8,0-19.5-8.7-19.5-19.5s8.7-19.5,19.5-19.5s19.5,8.7,19.5,19.5S236.2,219.8,225.4,219.8z
		 M225.4,181.8c-10.2,0-18.5,8.3-18.5,18.5s8.3,18.5,18.5,18.5s18.5-8.3,18.5-18.5S235.6,181.8,225.4,181.8z"/>
</g>
<circle id="椭圆_6" class="st2" cx="389.6" cy="197.3" r="104.2"/>
<g>
	<circle class="st3" cx="63.3" cy="72.4" r="17.1"/>
	<line class="st3" x1="49.5" y1="99.3" x2="63.3" y2="115"/>
	<line class="st3" x1="76.6" y1="99.3" x2="63.3" y2="115"/>
	<line class="st3" x1="63.3" y1="130.6" x2="63.3" y2="115"/>
	<path class="st3" d="M100,121.6v3.7c0,3.4-2.8,6.1-6.1,6.1H32.6c-3.4,0-6.1-2.8-6.1-6.1v-3.7"/>
	<path class="st3" d="M32.6,115.5"/>
	<path class="st3" d="M26.5,123.3c0-13.9,11.4-24.5,25.3-24.5h23c13.9,0,25.2,11.3,25.2,25.2l0,0"/>
</g>
<g class="st4">
	<g>
		<g>
			<path class="st5" d="M96.5,302.6H86.4c1-0.8,1.6-1.9,1.6-3.2c0-2.3-1.8-4.1-4.1-4.1s-4.1,1.8-4.1,4.1c0,0.7,0.2,1.3,0.5,1.9
				l-1.5,1.3h-20c-0.6-1.5-2.1-2.5-3.8-2.5s-3.2,1-3.8,2.5H28.9c-1.8,0-3.3,1.5-3.3,3.3v8c0,0.6,0.5,1.1,1.1,1.1s1.1-0.5,1.1-1.1v-8
				c0-0.6,0.5-1.1,1.1-1.1h22c0.1,0.4,0.2,0.8,0.3,1.2l-9.1,8.3c-0.6-0.4-1.4-0.7-2.2-0.7c-2.3,0-4.1,1.8-4.1,4.1s1.8,4.1,4.1,4.1
				s4.1-1.8,4.1-4.1c0-0.7-0.2-1.3-0.4-1.8l9.1-8.3c0.7,0.5,1.5,0.7,2.3,0.7c1.2,0,2.2-0.5,3-1.3l7.4,4.4c-0.1,0.3-0.1,0.5-0.1,0.8
				c0,2.3,1.8,4.1,4.1,4.1c2.3,0,4.1-1.8,4.1-4.1c0-0.6-0.1-1.2-0.4-1.7l6.4-5.8h16.9c0.6,0,1.1,0.5,1.1,1.1v26.8
				c0,0.6,0.5,1.1,1.1,1.1s1.1-0.5,1.1-1.1v-26.8C99.8,304,98.3,302.6,96.5,302.6z M39.9,319.6c-1.1,0-1.9-0.9-1.9-1.9
				c0-1.1,0.9-1.9,1.9-1.9s1.9,0.9,1.9,1.9S41,319.6,39.9,319.6z M55,306.1c-1.1,0-1.9-0.9-1.9-1.9c0-1.1,0.9-1.9,1.9-1.9
				s1.9,0.9,1.9,1.9S56.1,306.1,55,306.1z M69.5,314.2c-1.1,0-1.9-0.9-1.9-1.9c0-1.1,0.9-1.9,1.9-1.9s1.9,0.9,1.9,1.9
				C71.5,313.3,70.6,314.2,69.5,314.2z M71.9,308.9c-0.7-0.5-1.5-0.8-2.4-0.8c-1.2,0-2.3,0.5-3.1,1.4l-7.3-4.4
				c0-0.1,0.1-0.3,0.1-0.4h17.2L71.9,308.9z M83.9,301.3c-1.1,0-1.9-0.9-1.9-1.9s0.9-1.9,1.9-1.9s1.9,0.9,1.9,1.9
				S85,301.3,83.9,301.3z"/>
		</g>
	</g>
	<g>
		<g>
			<path class="st5" d="M99.8,337c0-0.6-0.5-1.1-1.1-1.1s-1.1,0.5-1.1,1.1v8.2h-8v-25.7v-4.4v-4.5c0-0.6-0.5-1.1-1.1-1.1h-8.2
				c-0.6,0-1.1,0.5-1.1,1.1v4.5v4.4v25.7h-4.1v-5.5v-4.5v-4.5c0-0.6-0.5-1.1-1.1-1.1h-8c-0.6,0-1.1,0.5-1.1,1.1v4.5v4.4v5.5h-4.1
				v-19.5v-4.4v-4.5c0-0.6-0.5-1.1-1.1-1.1h-8.2c-0.6,0-1.1,0.5-1.1,1.1v4.5v4.4v6.1c0,0.6,0.5,1.1,1.1,1.1s1.1-0.5,1.1-1.1v-5h6
				v18.4h-6V336c0-0.6-0.5-1.1-1.1-1.1s-1.1,0.5-1.1,1.1v9.1h-4.1v-5.5v-4.4v-4.5c0-0.6-0.5-1.1-1.1-1.1H37c-0.6,0-1.1,0.5-1.1,1.1
				v4.5v4.4v5.5h-8.2v-27c0-0.6-0.5-1.1-1.1-1.1s-1.1,0.5-1.1,1.1v36c0,1.8,1.5,3.3,3.3,3.3h23.8l-0.6,5.4h-5
				c-0.6,0-1.1,0.5-1.1,1.1v3.8c0,0.6,0.5,1.1,1.1,1.1h31.5c0.6,0,1.1-0.5,1.1-1.1v-3.8c0-0.6-0.5-1.1-1.1-1.1h-5.2l-0.6-5.4h23.8
				c1.8,0,3.3-1.5,3.3-3.3v-7.8l0,0V337L99.8,337z M81.5,311.6h6v2.3h-6V311.6z M81.5,316.1h6v2.3h-6V316.1z M81.5,320.5h6v24.6h-6
				V320.5z M67.1,331.8h6v2.3h-6V331.8z M67.1,336.3h6v2.3h-6V336.3z M67.1,340.7h6v4.4h-6V340.7z M52.6,320.1v-2.3h6v2.3H52.6z
				 M52.6,324.5v-2.3h6v2.3H52.6z M38.2,331.8h6v2.3h-6V331.8z M38.2,336.3h6v2.3h-6V336.3z M38.2,340.7h6v4.4h-6V340.7z M77.5,365
				v1.6H48V365H77.5z M54.2,362.8l0.6-5.4h15.6l0.6,5.4H54.2z M96.5,355.3H28.9c-0.6,0-1.1-0.5-1.1-1.1v-6.7h69.8v6.7l0,0
				C97.6,354.8,97.1,355.3,96.5,355.3z"/>
		</g>
	</g>
</g>
<path class="st5" d="M759.5,186.2h-8.4v8.4h8.4V186.2z M756.7,191.9h-2.8V189h2.8V191.9z"/>
<path class="st5" d="M770.7,186.2h-8.4v8.4h8.4V186.2z M767.9,191.9h-2.8V189h2.8V191.9z"/>
<path class="st5" d="M759.5,197.5h-8.4v8.4h8.4V197.5z M756.7,203.1h-2.8v-2.8h2.8V203.1z"/>
<path class="st5" d="M770.7,197.5h-8.4v8.4h8.4V197.5z M767.9,203.1h-2.8v-2.8h2.8V203.1z"/>
<path class="st5" d="M759.5,217.1v-8.4h-8.4v8.4H759.5z M753.9,211.5h2.8v2.8h-2.8V211.5z"/>
<path class="st5" d="M770.7,208.7h-8.4v8.4h8.4V208.7z M767.9,214.3h-2.8v-2.8h2.8V214.3z"/>
<path class="st5" d="M779.1,183.4v-2.8h-2.8V175h-2.8v-5.6h-25.2v5.6h-2.8v5.6h-2.8v2.8h2.8v36.5h-11.2v-16.8h2.8v-8.4h-2.8v-2.1
	L714.7,179l-8.4,5.8v-4.3h-8.4v10.1l-2.8,1.9v2.1h-2.8v8.4h2.8v17.1c-1.6,0.6-2.8,2.1-2.8,3.9v2.8c0,2.3,1.9,4.2,4.2,4.2h27.3
	c-2.2,2.7-3.5,6.1-3.5,9.8c0,8.5,6.9,15.4,15.4,15.4s15.4-6.8,15.4-15.3c0-3.7-1.3-7.1-3.5-9.8h27.3c2.3,0,4.2-1.9,4.2-4.2v-2.8
	c0-1.8-1.2-3.4-2.8-3.9v-36.8L779.1,183.4L779.1,183.4z M751.1,172.2h19.6v2.8h-19.6V172.2z M748.3,177.8h25.2v2.8h-25.2V177.8z
	 M700.6,183.2h2.8v3.5l-2.8,1.9V183.2z M697.8,194.1l16.8-11.6l16.8,11.6v0.7h-33.7v-0.7H697.8z M695,197.5h39.3v2.8H695V197.5z
	 M731.5,203.1v16.8h-11.2v-14H709v14h-11.2v-16.8H731.5z M717.4,219.9h-5.6v-11.2h5.6V219.9z M735.7,253.6
	c-6.9,0-12.6-5.7-12.6-12.6c0-6.9,5.7-12.6,12.6-12.6s12.6,5.7,12.6,12.6C748.3,247.9,742.7,253.6,735.7,253.6z M776.3,226.9
	c0,0.8-0.6,1.4-1.4,1.4h-30.4c-2.5-1.8-5.5-2.8-8.8-2.8s-6.3,1-8.8,2.8h-30.4c-0.8,0-1.4-0.6-1.4-1.4v-2.8c0-0.8,0.6-1.4,1.4-1.4
	H775c0.8,0,1.4,0.6,1.4,1.4L776.3,226.9L776.3,226.9z M773.5,219.9h-25.2v-36.5h25.2V219.9z"/>
<g class="st4">
	<g>
		<g>
			<path class="st5" d="M715.3,25.6h-8.5c-0.6,0-1.1,0.5-1.1,1.1V31c0,0.6,0.5,1.1,1.1,1.1h8.5c0.6,0,1.1-0.5,1.1-1.1v-4.3
				C716.3,26.1,715.9,25.6,715.3,25.6z M709.9,29.9h-2.1v-2.1h2.1V29.9z M714.2,29.9h-2.1v-2.1h2.1V29.9z"/>
		</g>
	</g>
	<g>
		<g>
			<path class="st5" d="M715.3,34.1h-8.5c-0.6,0-1.1,0.5-1.1,1.1v4.3c0,0.6,0.5,1.1,1.1,1.1h8.5c0.6,0,1.1-0.5,1.1-1.1v-4.3
				C716.3,34.6,715.9,34.1,715.3,34.1z M709.9,38.4h-2.1v-2.1h2.1V38.4z M714.2,38.4h-2.1v-2.1h2.1V38.4z"/>
		</g>
	</g>
	<g>
		<g>
			<path class="st5" d="M715.3,42.8h-8.5c-0.6,0-1.1,0.5-1.1,1.1v4.2c0,0.6,0.5,1.1,1.1,1.1h8.5c0.6,0,1.1-0.5,1.1-1.1v-4.3
				C716.3,43.2,715.9,42.8,715.3,42.8z M709.9,47h-2.1v-2.1h2.1V47z M714.2,47h-2.1v-2.1h2.1V47z"/>
		</g>
	</g>
	<g>
		<g>
			<path class="st5" d="M753.7,25.6h-8.5c-0.6,0-1.1,0.5-1.1,1.1V31c0,0.6,0.5,1.1,1.1,1.1h8.5c0.6,0,1.1-0.5,1.1-1.1v-4.3
				C754.7,26.1,754.3,25.6,753.7,25.6z M748.3,29.9h-2.1v-2.1h2.1V29.9z M752.6,29.9h-2.1v-2.1h2.1V29.9z"/>
		</g>
	</g>
	<g>
		<g>
			<path class="st5" d="M753.7,17.1h-8.5c-0.6,0-1.1,0.5-1.1,1.1v4.3c0,0.6,0.5,1.1,1.1,1.1h8.5c0.6,0,1.1-0.5,1.1-1.1v-4.3
				C754.7,17.5,754.3,17.1,753.7,17.1z M748.3,21.3h-2.1v-2.1h2.1V21.3z M752.6,21.3h-2.1v-2.1h2.1V21.3z"/>
		</g>
	</g>
	<g>
		<g>
			<path class="st5" d="M728.1,29.9h-4.3c-0.6,0-1.1,0.5-1.1,1.1v4.3c0,0.6,0.5,1.1,1.1,1.1h4.3c0.6,0,1.1-0.5,1.1-1.1V31
				C729.1,30.3,728.7,29.9,728.1,29.9z M727,34.1h-2.1V32h2.1V34.1z"/>
		</g>
	</g>
	<g>
		<g>
			<path class="st5" d="M736.6,29.9h-4.3c-0.6,0-1.1,0.5-1.1,1.1v4.3c0,0.6,0.5,1.1,1.1,1.1h4.3c0.6,0,1.1-0.5,1.1-1.1V31
				C737.7,30.3,737.2,29.9,736.6,29.9z M735.5,34.1h-2.1V32h2.1V34.1z"/>
		</g>
	</g>
	<g>
		<g>
			<path class="st5" d="M728.1,21.3h-4.3c-0.6,0-1.1,0.5-1.1,1.1v4.3c0,0.6,0.5,1.1,1.1,1.1h4.3c0.6,0,1.1-0.5,1.1-1.1v-4.3
				C729.1,21.8,728.7,21.3,728.1,21.3z M727,25.6h-2.1v-2.1h2.1V25.6z"/>
		</g>
	</g>
	<g>
		<g>
			<path class="st5" d="M736.6,21.3h-4.3c-0.6,0-1.1,0.5-1.1,1.1v4.3c0,0.6,0.5,1.1,1.1,1.1h4.3c0.6,0,1.1-0.5,1.1-1.1v-4.3
				C737.7,21.8,737.2,21.3,736.6,21.3z M735.5,25.6h-2.1v-2.1h2.1V25.6z"/>
		</g>
	</g>
	<g>
		<g>
			<path class="st5" d="M728.1,12.8h-4.3c-0.6,0-1.1,0.5-1.1,1.1v4.3c0,0.6,0.5,1.1,1.1,1.1h4.3c0.6,0,1.1-0.5,1.1-1.1v-4.3
				C729.1,13.3,728.7,12.8,728.1,12.8z M727,17.1h-2.1V15h2.1V17.1z"/>
		</g>
	</g>
	<g>
		<g>
			<path class="st5" d="M736.6,12.8h-4.3c-0.6,0-1.1,0.5-1.1,1.1v4.3c0,0.6,0.5,1.1,1.1,1.1h4.3c0.6,0,1.1-0.5,1.1-1.1v-4.3
				C737.7,13.3,737.2,12.8,736.6,12.8z M735.5,17.1h-2.1V15h2.1V17.1z"/>
		</g>
	</g>
	<g>
		<g>
			<path class="st5" d="M728.1,42.8h-4.3c-0.6,0-1.1,0.5-1.1,1.1v4.2c0,0.6,0.5,1.1,1.1,1.1h4.3c0.6,0,1.1-0.5,1.1-1.1v-4.3
				C729.1,43.2,728.7,42.8,728.1,42.8z M727,47h-2.1v-2.1h2.1V47z"/>
		</g>
	</g>
	<g>
		<g>
			<rect x="705.6" y="51.3" class="st5" width="2.1" height="2.1"/>
		</g>
	</g>
	<g>
		<g>
			<rect x="709.9" y="51.3" class="st5" width="2.1" height="2.1"/>
		</g>
	</g>
	<g>
		<g>
			<rect x="714.2" y="51.3" class="st5" width="2.1" height="2.1"/>
		</g>
	</g>
	<g>
		<g>
			<path class="st5" d="M764.3,38.4H759V13.9c0-0.6-0.5-1.1-1.1-1.1h-7.5v-1.7l1.1-1.1c0.9,0.7,2,1.1,3.1,1.1c1.4,0,2.7-0.5,3.7-1.5
				l0.2-0.2c0.4-0.4,0.4-1.1,0-1.5l-2.4-2.4l2.4-2.4L757,1.6L754.6,4l-3.5-3.5c-0.2-0.2-0.5-0.3-0.8-0.3c-0.4,0-0.7,0.2-0.9,0.4
				c-1.1,1-1.7,2.3-1.7,3.7s0.5,2.9,1.6,3.9l0.5,0.5l-1.4,1.4c-0.2,0.2-0.3,0.5-0.3,0.8V13h-6.4V9.6c0-0.6-0.5-1.1-1.1-1.1h-3.7
				l-6.1-8.1c-0.4-0.5-1.3-0.5-1.7,0L723,8.5h-3.7c-0.6,0-1.1,0.5-1.1,1.1v11.7h-6.4v-8.5h-2.1v8.5h-7.5c-0.6,0-1.1,0.5-1.1,1.1V63
				c0,0.6,0.5,1.1,1.1,1.1h17.1h7.5h8.5h1.1h6.4h17.1c2.9,0,5.3-2.4,5.3-5.3V39.6C765.4,38.9,764.9,38.4,764.3,38.4z M718.5,62
				h-14.9V23.5h14.9V62z M750.5,2.6l5.8,5.8c-1.2,0.7-2.8,0.6-3.9-0.5l-1.5-1.5c-0.6-0.6-1-1.4-0.9-2.3
				C750.1,3.6,750.2,3.1,750.5,2.6z M730.2,2.8l4.3,5.7H726L730.2,2.8z M725.9,53.4v8.5h-5.3V22.4V10.7h19.2v3.2v19.2h2.1V14.9h14.9
				v23.5h-2.1v-1.1c0-1.8-1.4-3.2-3.2-3.2h-6.4c-1.8,0-3.2,1.4-3.2,3.2v1.1h-9.6c-0.6,0-1.1,0.5-1.1,1.1v11.7h-8.5v2.1h3.2
				L725.9,53.4L725.9,53.4z M752.6,37.3v1.1h-8.5v-1.1c0-0.6,0.5-1.1,1.1-1.1h6.4C752.1,36.3,752.6,36.7,752.6,37.3z M728.1,62v-8.5
				h3.2v5.3c0,1.2,0.4,2.3,1.1,3.2H728.1z M763.3,58.8c0,1.8-1.4,3.2-3.2,3.2H743h-6.4c-1.8,0-3.2-1.4-3.2-3.2V48.1
				c0.9,0.7,2,1.1,3.2,1.1h1.1v3.2c0,0.6,0.5,1.1,1.1,1.1h4.3c0.6,0,1.1-0.5,1.1-1.1v-3.2h1.1h6.4h1.1v3.2c0,0.6,0.5,1.1,1.1,1.1
				h4.3c0.6,0,1.1-0.5,1.1-1.1v-3.2h1.1c1.2,0,2.3-0.4,3.2-1.1v10.7H763.3z M739.8,51.3v-2.1h2.1v2.1H739.8z M746.2,47v-2.1h4.3V47
				H746.2z M754.7,51.3v-2.1h2.1v2.1H754.7z M763.3,43.8c0,1.8-1.4,3.2-3.2,3.2H758h-4.3h-1.1v-3.2c0-0.6-0.5-1.1-1.1-1.1h-6.4
				c-0.6,0-1.1,0.5-1.1,1.1V47h-1.1h-4.3h-2.1c-1.8,0-3.2-1.4-3.2-3.2v-3.2h29.9L763.3,43.8L763.3,43.8z"/>
		</g>
	</g>
	<g>
		<g>
			<rect x="759" y="57.7" class="st5" width="2.1" height="2.1"/>
		</g>
	</g>
	<g>
		<g>
			<rect x="754.7" y="57.7" class="st5" width="2.1" height="2.1"/>
		</g>
	</g>
	<g>
		<g>
			<rect x="750.5" y="57.7" class="st5" width="2.1" height="2.1"/>
		</g>
	</g>
</g>
<g>
	<g>
		<path class="st1" d="M219.7,209.9v-1.1c2.2-0.9,3.3-2.5,3.3-4.8v-2.8h-3V200h3v-3.8c0-1.6,0.4-3,1.3-4c0.9-1,2-1.5,3.5-1.5
			c0.8,0,1.6,0.2,2.4,0.5v1.2c-0.8-0.4-1.6-0.6-2.4-0.6c-1.1,0-1.9,0.4-2.6,1.2c-0.6,0.8-0.9,1.9-0.9,3.4v3.6h4v1.2h-4v2.3
			c0,2.6-0.9,4.3-2.8,5.3h9.7v1.1H219.7z"/>
	</g>
</g>
<g>
	<g id="椭圆_7_1_">
		<path class="st1" d="M572.9,196.8c-10.8,0-19.5-8.7-19.5-19.5s8.7-19.5,19.5-19.5s19.5,8.7,19.5,19.5S583.7,196.8,572.9,196.8z
			 M572.9,158.8c-10.2,0-18.5,8.3-18.5,18.5s8.3,18.5,18.5,18.5s18.5-8.3,18.5-18.5S583.1,158.8,572.9,158.8z"/>
	</g>
	<g>
		<g>
			<path class="st1" d="M567.2,186.9v-1.1c2.2-0.9,3.3-2.5,3.3-4.8v-2.8h-3V177h3v-3.8c0-1.6,0.4-3,1.3-4c0.9-1,2-1.5,3.5-1.5
				c0.8,0,1.6,0.2,2.4,0.5v1.2c-0.8-0.4-1.6-0.6-2.4-0.6c-1.1,0-1.9,0.4-2.6,1.2c-0.6,0.8-0.9,1.9-0.9,3.4v3.6h4v1.2h-4v2.3
				c0,2.6-0.9,4.3-2.8,5.3h9.7v1.1H567.2z"/>
		</g>
	</g>
</g>
<g>
	<path class="st5" d="M729.9,249.1v-1.8c1.9-0.6,2.9-1.8,2.9-3.7v-2.2h-2.6v-1.8h2.6v-3c0-1.5,0.4-2.8,1.4-3.7c1-1,2.2-1.5,3.6-1.5
		c1,0,1.9,0.1,2.8,0.6v2.1c-0.8-0.6-1.8-0.7-2.6-0.7c-1.9,0-2.9,1.2-2.9,3.6v2.8h3.9v1.8h-4v1.8c0,1.9-0.8,3.2-2.3,4.1h8.9v1.8
		h-11.7L729.9,249.1L729.9,249.1z"/>
</g>
<g>
	<path class="st5" d="M11.6,393.6h-0.9c-0.9,0-1.6,0.1-2.3,0.2c-0.8,0.2-1.2,0.5-1.2,0.9c0,0.3,0.1,0.7,0.2,1.1s0.2,0.8,0.4,1.2
		c0.1,0.4,0.2,0.8,0.2,1.1c0,0.2,0,0.4,0,0.5c0,0.2-0.1,0.4-0.2,0.6c-0.1-0.4-0.3-0.9-0.4-1.3c-0.3-0.8-0.4-1.4-0.6-1.9
		c-0.2-0.7-0.3-1.1-0.3-1.2c0-0.7,0.1-1.2,0.4-1.5c0.3-0.4,0.7-0.6,1.3-0.8c0.5-0.1,1.1-0.3,2.1-0.3c-0.3-0.3-0.5-0.5-0.6-0.6
		c-0.3-0.2-0.5-0.3-0.8-0.3c-0.2,0-0.3,0.1-0.5,0.2c-0.1,0.1-0.3,0.2-0.5,0.4l-0.4-0.2c0.2-0.4,0.3-0.7,0.5-0.9
		c0.3-0.4,0.7-0.6,1.2-0.6c0.3,0,0.6,0.1,1,0.4c0.3,0.2,0.5,0.5,0.8,0.8c0.1,0.2,0.3,0.5,0.6,0.9V393.6z"/>
	<path class="st5" d="M20,393.6c0,1.2-0.3,2-1,2.6s-1.9,0.9-3.6,0.9c-1,0-1.8-0.2-2.4-0.5c-0.6-0.4-0.9-1-0.9-1.8
		c0-0.4,0.1-0.9,0.2-1.4s0.3-0.9,0.4-1.4c0.1-0.3,0.3-0.7,0.6-1.3l0.3,0.1c-0.4,0.8-0.6,1.3-0.7,1.8s-0.2,0.8-0.2,1.2
		c0,0.6,0.2,1.1,0.7,1.5s1.1,0.5,2,0.5c1,0,1.9-0.2,2.6-0.5c0.9-0.4,1.4-1,1.4-1.8c0-0.5-0.1-1-0.2-1.5c-0.1-0.4-0.3-0.8-0.6-1.1
		l0.6-1.6c0.3,0.4,0.5,0.9,0.6,1.3s0.2,1,0.2,1.7V393.6z M17.2,387.6l-0.6,1.1l-1.3-0.7l0.6-1.1L17.2,387.6z"/>
	<path class="st5" d="M37.6,393.6h-9.3c-0.2,1.1-0.5,1.9-1.1,2.4c-0.7,0.7-1.9,1-3.4,1c-1,0-1.8-0.2-2.4-0.5c-0.6-0.4-0.9-1-0.9-1.8
		c0-0.4,0.1-0.9,0.2-1.4s0.3-0.9,0.4-1.4c0.1-0.3,0.3-0.7,0.6-1.3l0.3,0.1c-0.4,0.8-0.6,1.3-0.7,1.8s-0.2,0.8-0.2,1.2
		c0,0.6,0.2,1.1,0.7,1.5s1.1,0.5,2,0.5c1,0,1.9-0.2,2.7-0.5c1-0.4,1.5-1,1.5-1.8c0-0.5-0.1-1-0.3-1.5c-0.2-0.4-0.4-0.7-0.6-1.1
		l0.6-1.6c0.3,0.4,0.4,0.8,0.5,1.1c0.1,0.5,0.2,1.1,0.2,1.9h0.1c0.6,0,1.2-0.1,1.7-0.3c0.5-0.2,0.9-0.4,1.4-0.8
		c0.8-0.5,1.2-0.9,1.4-1c0.4-0.3,0.8-0.5,1.1-0.6c0.4-0.1,0.8-0.2,1.3-0.2c0.7,0,1.2,0.2,1.6,0.6c0.3,0.4,0.5,0.9,0.5,1.6
		L37.6,393.6L37.6,393.6z M36.3,391.7c0-0.3-0.2-0.5-0.5-0.6s-0.7-0.2-1.1-0.2c-0.4,0-0.8,0.1-1.3,0.3c-0.3,0.1-0.7,0.3-1.3,0.6
		c-0.4,0.2-0.8,0.4-1.1,0.6h3.6c0.5,0,0.9-0.1,1.2-0.2S36.3,391.8,36.3,391.7z"/>
	<path class="st5" d="M39.5,387l-0.6,1.1l-1.3-0.7l0.6-1.1L39.5,387z M42,391.3c0,0.7-0.1,1.3-0.4,1.7c-0.4,0.6-1,0.9-2,0.9
		c-0.4,0-0.7-0.1-0.9-0.2c-0.3-0.2-0.4-0.4-0.4-0.7c0-0.4,0.1-0.8,0.3-1.3c0.2-0.4,0.3-0.8,0.5-1.2H39l0.5-1.3
		c0.9,0.5,1.5,0.8,1.7,0.9C41.6,390.4,42,390.8,42,391.3z M41.3,391.9c0-0.2-0.3-0.5-0.9-0.8c-0.2-0.1-0.5-0.3-0.8-0.4
		c-0.2,0.3-0.4,0.4-0.4,0.5c-0.1,0.2-0.2,0.4-0.2,0.6c0,0.3,0.1,0.5,0.2,0.6s0.3,0.2,0.6,0.2s0.6-0.1,1-0.2S41.3,392.1,41.3,391.9z
		 M41.3,386.3l-0.6,1.1l-1.3-0.7l0.6-1.1L41.3,386.3z"/>
	<path class="st5" d="M49.2,391.6c0,0.4-0.1,0.8-0.2,1.2c-0.1,0.2-0.2,0.5-0.5,1l-0.1-0.1c0-0.2,0-0.3,0-0.5s0-0.3,0-0.4
		c0-0.5,0-1.3-0.1-2.3s-0.2-2-0.3-3c-0.1-0.6-0.2-1.3-0.2-2c0.1-0.2,0.2-0.5,0.4-0.7s0.3-0.5,0.4-0.8c0.1,0.6,0.2,1.4,0.3,2.4
		s0.2,2,0.3,2.8C49.2,390.3,49.2,391.1,49.2,391.6z"/>
	<path class="st5" d="M58,392.6c0,0.8-0.2,1.5-0.6,2c-0.3,0.4-0.9,0.7-1.5,0.9c-0.6,0.2-1.3,0.2-2.2,0.2c-1,0-1.8-0.2-2.3-0.6
		c-0.6-0.4-0.9-1-0.9-1.8c0-0.4,0.1-0.9,0.2-1.4c0.1-0.4,0.3-0.9,0.5-1.4c0.2-0.4,0.4-0.8,0.7-1.3l0.3,0.1c-0.2,0.3-0.4,0.7-0.5,0.9
		c-0.2,0.4-0.3,0.7-0.4,1c-0.1,0.4-0.1,0.7-0.1,1c0,0.6,0.2,1.1,0.7,1.5c0.5,0.3,1.1,0.5,1.9,0.5c0.9,0,1.7-0.2,2.4-0.5
		c0.8-0.3,1.2-0.7,1.2-1.2s-0.1-1.4-0.2-2.6c-0.1-0.9-0.3-2-0.5-3.1l-0.3-1.5l-0.4-0.2c0-0.7,0.1-1.3,0.4-1.9h0.1
		c0,0.2,0.1,0.3,0.1,0.4c0.1,0.1,0.1,0.2,0.3,0.2c0.2,0.1,0.3,0.1,0.5,0.2c0.1,0.1,0.3,0.1,0.4,0.2c0,0.4,0,0.6,0,0.8
		c0,0.2-0.1,0.4-0.2,0.7l-0.4-0.1c0,0.1,0.1,0.6,0.2,1.6c0.2,1.1,0.3,2,0.4,2.6C57.9,391.2,58,392.1,58,392.6z"/>
	<path class="st5" d="M75.6,393.6h-9.3c-0.2,1.1-0.5,1.9-1.1,2.4c-0.7,0.7-1.9,1-3.4,1c-1,0-1.8-0.2-2.4-0.5c-0.6-0.4-0.9-1-0.9-1.8
		c0-0.4,0.1-0.9,0.2-1.4s0.3-0.9,0.4-1.4c0.1-0.3,0.3-0.7,0.6-1.3l0.3,0.1c-0.4,0.8-0.6,1.3-0.7,1.8s-0.2,0.8-0.2,1.2
		c0,0.6,0.2,1.1,0.7,1.5s1.1,0.5,2,0.5c1,0,1.9-0.2,2.7-0.5c1-0.4,1.5-1,1.5-1.8c0-0.5-0.1-1-0.3-1.5c-0.2-0.4-0.4-0.7-0.6-1.1
		l0.6-1.6c0.3,0.4,0.4,0.8,0.5,1.1c0.1,0.5,0.2,1.1,0.2,1.9h0.1c0.6,0,1.2-0.1,1.7-0.3c0.5-0.2,0.9-0.4,1.4-0.8
		c0.8-0.5,1.2-0.9,1.4-1c0.4-0.3,0.8-0.5,1.1-0.6c0.4-0.1,0.8-0.2,1.3-0.2c0.7,0,1.2,0.2,1.6,0.6c0.3,0.4,0.5,0.9,0.5,1.6v2.1H75.6z
		 M74.3,391.7c0-0.3-0.2-0.5-0.5-0.6s-0.7-0.2-1.1-0.2s-0.8,0.1-1.3,0.3c-0.3,0.1-0.7,0.3-1.3,0.6c-0.4,0.2-0.8,0.4-1.1,0.6h3.6
		c0.5,0,0.9-0.1,1.2-0.2S74.3,391.8,74.3,391.7z"/>
	<path class="st5" d="M88.2,393.6H81c-1.1,0-2-0.1-2.7-0.2c-0.8-0.2-1.4-0.4-1.8-0.8s-0.7-1-0.7-1.7c0-0.5,0.1-1,0.4-1.6
		c0.2-0.4,0.3-0.7,0.4-0.9l0.3,0.2c-0.2,0.5-0.4,0.8-0.4,1c-0.1,0.2-0.1,0.5-0.1,0.6c0,0.7,0.4,1.2,1.1,1.5s1.9,0.5,3.6,0.5h5.8
		c-0.6-0.2-1.1-0.4-1.3-0.6c-0.3-0.3-0.5-0.6-0.5-0.9c0-0.5,0.2-1,0.5-1.6c0.4-0.6,0.8-0.9,1.2-0.9c0.5,0,0.9,0.3,1.1,0.9
		c0.2,0.5,0.3,1.2,0.3,2.2C88.2,391.3,88.2,393.6,88.2,393.6z M86.6,385.7l-0.6,1.1l-1.3-0.7l0.6-1.1L86.6,385.7z M87.4,391.2
		c0-0.5,0-0.8-0.1-1c-0.1-0.3-0.3-0.4-0.5-0.4s-0.3,0.1-0.4,0.2s-0.1,0.3-0.1,0.4c0,0.3,0.1,0.4,0.3,0.6
		C86.6,391,86.9,391.1,87.4,391.2z"/>
	<path class="st5" d="M97.5,394c0,1-0.5,1.8-1.5,2.4c-0.9,0.5-2.1,0.7-3.5,0.7c-1.2,0-2.1-0.2-2.7-0.6c-0.7-0.5-1-1.1-1-2
		c0-0.6,0.1-1.3,0.3-1.9c0.2-0.6,0.4-1.3,0.8-1.9l0.3,0.1c-0.2,0.4-0.3,0.7-0.4,1c-0.1,0.4-0.2,0.7-0.3,1c-0.1,0.3-0.1,0.7-0.1,1
		c0,0.7,0.3,1.2,0.9,1.5c0.5,0.3,1.3,0.4,2.4,0.4s2.1-0.2,2.9-0.5c1-0.4,1.4-1,1.4-1.7c0-0.3,0-0.5,0-0.6s-0.1-0.2-0.1-0.4
		c-0.2,0.1-0.4,0.2-0.6,0.2c-0.2,0.1-0.4,0.1-0.6,0.1c-0.5,0-0.8-0.1-1.1-0.3c-0.3-0.3-0.5-0.6-0.5-1.1c0-0.6,0.2-1.2,0.5-1.7
		c0.3-0.6,0.7-0.9,1.2-0.9c0.6,0,1.1,0.4,1.4,1.3c0.3,0.7,0.5,1.5,0.5,2.5v1.4H97.5z M94.8,386.4l-0.6,1.1l-1.3-0.7l0.6-1.1
		L94.8,386.4z M96.2,391.1c-0.1-0.3-0.2-0.5-0.3-0.6c-0.1-0.2-0.3-0.3-0.5-0.3c-0.3,0-0.4,0.1-0.6,0.2s-0.2,0.3-0.2,0.5
		s0.1,0.3,0.2,0.4c0.2,0.1,0.3,0.1,0.5,0.1c0.1,0,0.3,0,0.4-0.1S96.1,391.2,96.2,391.1z M96.6,385.6l-0.6,1.1l-1.3-0.7l0.6-1.1
		L96.6,385.6z"/>
	<path class="st5" d="M99.3,387l-0.6,1.1l-1.3-0.7l0.6-1.1L99.3,387z M101.8,391.3c0,0.7-0.1,1.3-0.4,1.7c-0.4,0.6-1,0.9-2,0.9
		c-0.4,0-0.7-0.1-0.9-0.2c-0.3-0.2-0.4-0.4-0.4-0.7c0-0.4,0.1-0.8,0.3-1.3c0.2-0.4,0.3-0.8,0.5-1.2h-0.1l0.5-1.3
		c0.9,0.5,1.5,0.8,1.7,0.9C101.5,390.4,101.8,390.8,101.8,391.3z M101.1,391.9c0-0.2-0.3-0.5-0.9-0.8c-0.2-0.1-0.5-0.3-0.8-0.4
		c-0.2,0.3-0.4,0.4-0.4,0.5c-0.1,0.2-0.2,0.4-0.2,0.6c0,0.3,0.1,0.5,0.2,0.6s0.3,0.2,0.6,0.2c0.3,0,0.6-0.1,1-0.2
		S101.1,392.1,101.1,391.9z M101.1,386.3l-0.6,1.1l-1.3-0.7l0.6-1.1L101.1,386.3z"/>
	<path class="st5" d="M109.1,391.6c0,0.4-0.1,0.8-0.2,1.2c-0.1,0.2-0.2,0.5-0.5,1l-0.1-0.1c0-0.2,0-0.3,0-0.5s0-0.3,0-0.4
		c0-0.5,0-1.3-0.1-2.3s-0.2-2-0.3-3c-0.1-0.6-0.2-1.3-0.2-2c0.1-0.2,0.2-0.5,0.4-0.7s0.3-0.5,0.4-0.8c0.1,0.6,0.2,1.4,0.3,2.4
		c0.1,1,0.2,2,0.3,2.8C109,390.3,109.1,391.1,109.1,391.6z"/>
	<path class="st5" d="M117.9,392.6c0,0.8-0.2,1.5-0.6,2c-0.3,0.4-0.9,0.7-1.5,0.9c-0.6,0.2-1.3,0.2-2.2,0.2c-1,0-1.8-0.2-2.3-0.6
		c-0.6-0.4-0.9-1-0.9-1.8c0-0.4,0.1-0.9,0.2-1.4c0.1-0.4,0.3-0.9,0.5-1.4c0.2-0.4,0.4-0.8,0.7-1.3l0.3,0.1c-0.2,0.3-0.4,0.7-0.5,0.9
		c-0.2,0.4-0.3,0.7-0.4,1c-0.1,0.4-0.1,0.7-0.1,1c0,0.6,0.2,1.1,0.7,1.5c0.5,0.3,1.1,0.5,1.9,0.5c0.9,0,1.7-0.2,2.4-0.5
		c0.8-0.3,1.2-0.7,1.2-1.2s-0.1-1.4-0.2-2.6c-0.1-0.9-0.3-2-0.5-3.1l-0.3-1.5l-0.4-0.2c0-0.7,0.1-1.3,0.4-1.9h0.1
		c0,0.2,0.1,0.3,0.1,0.4c0.1,0.1,0.1,0.2,0.3,0.2c0.2,0.1,0.3,0.1,0.5,0.2c0.1,0.1,0.3,0.1,0.4,0.2c0,0.4,0,0.6,0,0.8
		c0,0.2-0.1,0.4-0.2,0.7l-0.4-0.1c0,0.1,0.1,0.6,0.2,1.6c0.2,1.1,0.3,2,0.4,2.6C117.8,391.2,117.9,392.1,117.9,392.6z"/>
	<path class="st5" d="M126.1,398l-2,1.3c-1.1,0-1.9,0-2.5-0.1c-1-0.2-1.8-0.5-2.4-0.9c-0.7-0.6-1.1-1.4-1.1-2.4
		c0-0.6,0.1-1.2,0.3-1.7c0.2-0.4,0.4-0.8,0.7-1.2c0.1-0.2,0.4-0.4,0.8-0.8c-0.5-0.3-0.8-0.5-1-0.6c-0.4-0.4-0.6-0.9-0.6-1.5
		s0.2-1.1,0.7-1.6c0.5-0.6,1.2-0.9,1.9-0.9c0.3,0,0.7,0.1,1.1,0.3c0.3,0.1,0.6,0.3,1,0.6c-0.5,0-1,0-1.6,0.1
		c-0.7,0.1-1.3,0.2-1.7,0.4c-0.5,0.2-0.8,0.5-0.8,0.8s0.3,0.6,0.9,0.9c0.5,0.2,1.1,0.4,1.7,0.5c0.5-0.3,1-0.5,1.5-0.7
		c0.6-0.2,1.1-0.4,1.7-0.5l-0.3,1.2c-1.1,0.4-1.9,0.7-2.3,1c-1,0.5-1.7,0.9-2.2,1.4c-0.7,0.6-1,1.3-1,2s0.3,1.3,0.8,1.7
		c0.5,0.4,1.2,0.6,2.1,0.8c0.7,0.1,1.7,0.2,2.8,0.2c0.2,0,0.5,0,0.7,0C125.6,397.9,125.9,397.9,126.1,398L126.1,398z"/>
	<path class="st5" d="M129.2,391.6c0,0.4-0.1,0.8-0.2,1.2c-0.1,0.2-0.2,0.5-0.5,1l-0.1-0.1c0-0.2,0-0.3,0-0.5s0-0.3,0-0.4
		c0-0.5,0-1.3-0.1-2.3s-0.2-2-0.3-3c-0.1-0.6-0.2-1.3-0.2-2c0.1-0.2,0.2-0.5,0.4-0.7s0.3-0.5,0.4-0.8c0.1,0.6,0.2,1.4,0.3,2.4
		s0.2,2,0.3,2.8C129.2,390.3,129.2,391.1,129.2,391.6z"/>
	<path class="st5" d="M138,392.6c0,0.8-0.2,1.5-0.6,2c-0.3,0.4-0.9,0.7-1.5,0.9c-0.6,0.2-1.3,0.2-2.2,0.2c-1,0-1.8-0.2-2.3-0.6
		c-0.6-0.4-0.9-1-0.9-1.8c0-0.4,0.1-0.9,0.2-1.4c0.1-0.4,0.3-0.9,0.5-1.4c0.2-0.4,0.4-0.8,0.7-1.3l0.3,0.1c-0.2,0.3-0.4,0.7-0.5,0.9
		c-0.2,0.4-0.3,0.7-0.4,1c-0.1,0.4-0.1,0.7-0.1,1c0,0.6,0.2,1.1,0.7,1.5c0.5,0.3,1.1,0.5,1.9,0.5c0.9,0,1.7-0.2,2.4-0.5
		c0.8-0.3,1.2-0.7,1.2-1.2s-0.1-1.4-0.2-2.6c-0.1-0.9-0.3-2-0.5-3.1l-0.3-1.5l-0.4-0.2c0-0.7,0.1-1.3,0.4-1.9h0.1
		c0,0.2,0.1,0.3,0.1,0.4c0.1,0.1,0.1,0.2,0.3,0.2c0.2,0.1,0.3,0.1,0.5,0.2c0.1,0.1,0.3,0.1,0.4,0.2c0,0.4,0,0.6,0,0.8
		c0,0.2-0.1,0.4-0.2,0.7l-0.4-0.1c0,0.1,0.1,0.6,0.2,1.6c0.2,1.1,0.3,2,0.4,2.6C137.9,391.2,138,392.1,138,392.6z"/>
	<path class="st5" d="M143.4,393.6h-0.9c-0.9,0-1.6,0.1-2.3,0.2c-0.8,0.2-1.2,0.5-1.2,0.9c0,0.3,0.1,0.7,0.2,1.1s0.2,0.8,0.4,1.2
		c0.1,0.4,0.2,0.8,0.2,1.1c0,0.2,0,0.4,0,0.5c0,0.2-0.1,0.4-0.2,0.6c-0.1-0.4-0.3-0.9-0.4-1.3c-0.3-0.8-0.4-1.4-0.6-1.9
		c-0.2-0.7-0.3-1.1-0.3-1.2c0-0.7,0.1-1.2,0.4-1.5c0.3-0.4,0.7-0.6,1.3-0.8c0.5-0.1,1.1-0.3,2.1-0.3c-0.3-0.3-0.5-0.5-0.6-0.6
		c-0.3-0.2-0.5-0.3-0.8-0.3c-0.2,0-0.3,0.1-0.5,0.2c-0.1,0.1-0.3,0.2-0.5,0.4l-0.4-0.2c0.2-0.4,0.3-0.7,0.5-0.9
		c0.3-0.4,0.7-0.6,1.2-0.6c0.3,0,0.6,0.1,1,0.4c0.3,0.2,0.5,0.5,0.8,0.8c0.1,0.2,0.3,0.5,0.6,0.9V393.6z"/>
	<path class="st5" d="M153.1,389.7c0,0.2,0,0.3,0,0.5s-0.1,0.3-0.1,0.4c-0.2-0.2-0.4-0.4-0.7-0.6c-0.3-0.1-0.5-0.2-0.8-0.2
		c-0.5,0-0.9,0.3-1.4,0.8s-0.7,0.9-0.7,1.2c0,0.1,0.1,0.2,0.2,0.2c0.1,0,0.3,0.1,0.6,0.1h0.6c0.4,0,0.7,0,0.8,0s0.4,0,0.6,0.1
		s0.4,0.2,0.4,0.6c0,1.3-0.6,2.3-1.7,3c-1,0.6-2.5,0.9-4.3,0.9c-0.9,0-1.6-0.2-2.1-0.5c-0.5-0.4-0.8-1-0.8-1.8
		c0-0.5,0.1-1.1,0.3-1.7c0.1-0.5,0.3-0.9,0.6-1.4c0,0,0.2-0.3,0.5-0.9l0.3,0.1c-0.3,0.6-0.6,1.1-0.8,1.6s-0.3,1-0.3,1.3
		c0,0.6,0.2,1.1,0.7,1.4c0.4,0.3,1.1,0.5,1.9,0.5c0.6,0,1.4-0.1,2.2-0.4c0.7-0.2,1.3-0.5,1.9-0.8c0.6-0.3,0.9-0.5,0.9-0.7
		c0-0.1,0-0.2-0.1-0.2s-0.2,0-0.3,0h-1.8c-0.2,0-0.4-0.1-0.6-0.2s-0.3-0.4-0.3-0.6c0-0.3,0.1-0.8,0.4-1.4c0.3-0.7,0.7-1.2,1.1-1.6
		c0.5-0.5,1.1-0.8,1.6-0.8c0.3,0,0.6,0.1,0.8,0.3C153,389,153.1,389.3,153.1,389.7z M148.3,398.1l-0.6,1.1l-1.3-0.7l0.6-1.1
		L148.3,398.1z M150.1,397.4l-0.6,1.1l-1.3-0.7l0.6-1.1L150.1,397.4z"/>
	<path class="st5" d="M155.4,387l-0.6,1.1l-1.3-0.7l0.6-1.1L155.4,387z M157.9,391.3c0,0.7-0.1,1.3-0.4,1.7c-0.4,0.6-1,0.9-2,0.9
		c-0.4,0-0.7-0.1-0.9-0.2c-0.3-0.2-0.4-0.4-0.4-0.7c0-0.4,0.1-0.8,0.3-1.3c0.2-0.4,0.3-0.8,0.5-1.2h-0.1l0.5-1.3
		c0.9,0.5,1.5,0.8,1.7,0.9C157.6,390.4,157.9,390.8,157.9,391.3z M157.3,391.9c0-0.2-0.3-0.5-0.9-0.8c-0.2-0.1-0.5-0.3-0.8-0.4
		c-0.2,0.3-0.4,0.4-0.4,0.5c-0.1,0.2-0.2,0.4-0.2,0.6c0,0.3,0.1,0.5,0.2,0.6s0.3,0.2,0.6,0.2s0.6-0.1,1-0.2S157.3,392.1,157.3,391.9
		z M157.2,386.3l-0.6,1.1l-1.3-0.7l0.6-1.1L157.2,386.3z"/>
</g>
<g>
	<path class="st5" d="M38.3,154.6c0,0.4-0.1,0.8-0.2,1.2c-0.1,0.2-0.2,0.5-0.5,1l-0.1-0.1c0-0.2,0-0.3,0-0.5s0-0.3,0-0.4
		c0-0.5,0-1.3-0.1-2.3s-0.2-2-0.3-3c-0.1-0.6-0.2-1.3-0.2-2c0.1-0.2,0.2-0.5,0.4-0.7s0.3-0.5,0.4-0.8c0.1,0.6,0.2,1.4,0.3,2.4
		s0.2,2,0.3,2.8C38.2,153.3,38.3,154.1,38.3,154.6z"/>
	<path class="st5" d="M47,155.6c0,0.8-0.2,1.5-0.6,2c-0.3,0.4-0.9,0.7-1.5,0.9s-1.3,0.2-2.2,0.2c-1,0-1.8-0.2-2.3-0.6
		c-0.6-0.4-0.9-1-0.9-1.8c0-0.4,0.1-0.9,0.2-1.4c0.1-0.4,0.3-0.9,0.5-1.4c0.2-0.4,0.4-0.8,0.7-1.3l0.3,0.1c-0.2,0.3-0.4,0.7-0.5,0.9
		c-0.2,0.4-0.3,0.7-0.4,1c-0.1,0.4-0.1,0.7-0.1,1c0,0.6,0.2,1.1,0.7,1.5c0.5,0.3,1.1,0.5,1.9,0.5c0.9,0,1.7-0.2,2.4-0.5
		c0.8-0.3,1.2-0.7,1.2-1.2s-0.1-1.4-0.2-2.6c-0.1-0.9-0.3-2-0.5-3.1l-0.3-1.5l-0.4-0.2c0-0.7,0.1-1.3,0.4-1.9h0.1
		c0,0.2,0.1,0.3,0.1,0.4c0.1,0.1,0.1,0.2,0.3,0.2c0.2,0.1,0.3,0.1,0.5,0.2c0.1,0.1,0.3,0.1,0.4,0.2c0,0.4,0,0.6,0,0.8
		s-0.1,0.4-0.2,0.7l-0.4-0.1c0,0.1,0.1,0.6,0.2,1.6c0.2,1.1,0.3,2,0.4,2.6C47,154.2,47,155.1,47,155.6z"/>
	<path class="st5" d="M52.4,156.6h-0.9c-0.9,0-1.6,0.1-2.3,0.2c-0.8,0.2-1.2,0.5-1.2,0.9c0,0.3,0.1,0.7,0.2,1.1s0.2,0.8,0.4,1.2
		c0.1,0.4,0.2,0.8,0.2,1.1c0,0.2,0,0.4,0,0.5c0,0.2-0.1,0.4-0.2,0.6c-0.1-0.4-0.3-0.9-0.4-1.3c-0.3-0.8-0.4-1.4-0.6-1.9
		c-0.2-0.7-0.3-1.1-0.3-1.2c0-0.7,0.1-1.2,0.4-1.5c0.3-0.4,0.7-0.6,1.3-0.8c0.5-0.1,1.1-0.3,2.1-0.3c-0.3-0.3-0.5-0.5-0.6-0.6
		c-0.3-0.2-0.5-0.3-0.8-0.3c-0.2,0-0.3,0.1-0.5,0.2c-0.1,0.1-0.3,0.2-0.5,0.4l-0.4-0.2c0.2-0.4,0.3-0.7,0.5-0.9
		c0.3-0.4,0.7-0.6,1.2-0.6c0.3,0,0.6,0.1,1,0.4c0.3,0.2,0.5,0.5,0.8,0.8c0.1,0.2,0.3,0.5,0.6,0.9V156.6z"/>
	<path class="st5" d="M65.6,156.6H65c-0.3,0-0.6,0-0.8-0.1c-0.2-0.1-0.5-0.2-0.7-0.4c-0.2,0.2-0.4,0.3-0.6,0.4
		c-0.2,0.1-0.6,0.1-1.1,0.1h-1c0,0.5-0.1,0.9-0.3,1.4c-0.3,0.6-0.8,1.1-1.4,1.4c-0.8,0.4-1.7,0.6-2.9,0.6c-1,0-1.8-0.2-2.4-0.5
		c-0.6-0.4-0.9-1-0.9-1.8c0-0.4,0.1-0.9,0.2-1.4c0.1-0.5,0.3-0.9,0.4-1.4c0.1-0.3,0.3-0.7,0.6-1.3l0.3,0.1c-0.4,0.8-0.6,1.3-0.7,1.8
		c-0.1,0.4-0.2,0.8-0.2,1.2c0,0.6,0.2,1.1,0.7,1.5s1.1,0.5,2,0.5c1,0,1.9-0.2,2.7-0.5c1-0.4,1.5-1,1.5-1.8c0-0.5-0.1-1-0.3-1.5
		c-0.2-0.4-0.4-0.7-0.6-1.1l0.6-1.6c0.3,0.4,0.4,0.8,0.5,1.1c0.1,0.5,0.2,1.1,0.2,1.9h1c0.5,0,0.8-0.1,1.1-0.2
		c0.2-0.1,0.3-0.3,0.3-0.6c0-0.2,0-0.3,0-0.5s0-0.3-0.1-0.5l0.3-0.5l0.1,0.8c0.1,0.5,0.3,0.9,0.5,1.1c0.2,0.3,0.5,0.4,0.9,0.4
		c0.1,0,0.2,0,0.3-0.1c0.1-0.1,0.1-0.2,0.1-0.3c0-0.3-0.1-0.5-0.2-0.8c-0.1-0.2-0.3-0.4-0.5-0.7l0.5-0.9c0.2,0.4,0.4,0.7,0.4,0.8
		c0.1,0.3,0.2,0.8,0.2,1.4L65.6,156.6L65.6,156.6z"/>
	<path class="st5" d="M77,156.6h-7.5c-1,0-1.8-0.2-2.4-0.5c-0.7-0.4-1.1-1.1-1.1-2.1c0-0.5,0.1-1,0.3-1.5c0.1-0.2,0.3-0.5,0.6-1
		l0.2,0.1c-0.1,0.2-0.2,0.5-0.3,0.7c-0.2,0.4-0.2,0.7-0.2,1c0,0.6,0.3,1.1,1,1.4c0.6,0.3,1.3,0.5,2.2,0.5h6.6V155
		c0-0.6-0.1-1.1-0.2-1.4s-0.4-0.7-0.7-0.9l0.6-1.3c0.2,0.3,0.4,0.5,0.4,0.5c0.4,0.6,0.5,1.4,0.5,2.5V156.6z M71.5,150.2l-0.6,1.1
		l-1.3-0.7l0.6-1.1L71.5,150.2z M73.3,149.5l-0.6,1.1l-1.3-0.7l0.6-1.1L73.3,149.5z"/>
	<path class="st5" d="M88.4,156.6h-7.5c-1,0-1.8-0.2-2.4-0.5c-0.7-0.4-1.1-1.1-1.1-2.1c0-0.5,0.1-1,0.3-1.5c0.1-0.2,0.3-0.5,0.6-1
		l0.2,0.1c-0.1,0.2-0.2,0.5-0.3,0.7c-0.2,0.4-0.2,0.7-0.2,1c0,0.6,0.3,1.1,1,1.4c0.6,0.3,1.3,0.5,2.2,0.5h6.6V155
		c0-0.6-0.1-1.1-0.2-1.4s-0.4-0.7-0.7-0.9l0.6-1.3c0.2,0.3,0.4,0.5,0.4,0.5c0.4,0.6,0.5,1.4,0.5,2.5V156.6z M82.9,150.2l-0.6,1.1
		l-1.3-0.7l0.6-1.1L82.9,150.2z M83.2,148.1l-0.6,1.1l-1.3-0.7l0.6-1.1L83.2,148.1z M84.7,149.5l-0.6,1.1l-1.3-0.7l0.6-1.1
		L84.7,149.5z"/>
	<path class="st5" d="M93.8,156.6h-0.9c-0.9,0-1.6,0.1-2.3,0.2c-0.8,0.2-1.2,0.5-1.2,0.9c0,0.3,0.1,0.7,0.2,1.1s0.2,0.8,0.4,1.2
		c0.1,0.4,0.2,0.8,0.2,1.1c0,0.2,0,0.4,0,0.5c0,0.2-0.1,0.4-0.2,0.6c-0.1-0.4-0.3-0.9-0.4-1.3c-0.3-0.8-0.4-1.4-0.6-1.9
		c-0.2-0.7-0.3-1.1-0.3-1.2c0-0.7,0.1-1.2,0.4-1.5c0.3-0.4,0.7-0.6,1.3-0.8c0.5-0.1,1.1-0.3,2.1-0.3c-0.3-0.3-0.5-0.5-0.6-0.6
		c-0.3-0.2-0.5-0.3-0.8-0.3c-0.2,0-0.3,0.1-0.5,0.2c-0.1,0.1-0.3,0.2-0.5,0.4l-0.4-0.2c0.2-0.4,0.3-0.7,0.5-0.9
		c0.3-0.4,0.7-0.6,1.2-0.6c0.3,0,0.6,0.1,1,0.4c0.3,0.2,0.5,0.5,0.8,0.8c0.1,0.2,0.3,0.5,0.6,0.9C93.8,155.3,93.8,156.6,93.8,156.6z
		"/>
	<path class="st5" d="M101.6,156.6c0,0.6-0.2,1.2-0.7,1.8c-0.4,0.5-1,1-1.6,1.4s-1.1,0.6-1.5,0.6s-0.7-0.1-1.2-0.2
		c-0.3-0.1-0.7-0.2-1.1-0.4c-0.4-0.1-0.7-0.3-1.1-0.4l0.1-0.3c0.3,0.1,0.7,0.1,1.1,0.2c0.4,0.1,0.7,0.1,1,0.1c0.7,0,1.4-0.2,2.1-0.6
		c0.7-0.4,1.2-0.9,1.7-1.5s0.7-1.1,0.7-1.6c0-0.4-0.1-0.8-0.4-1.3c-0.2-0.4-0.5-0.7-0.8-1.1l0.4-1.2c0.4,0.4,0.7,0.8,0.9,1.2
		c0.2,0.4,0.3,0.9,0.3,1.5L101.6,156.6L101.6,156.6z"/>
</g>
<g>
	<path class="st5" d="M125.4,70.1h-7.5c-1,0-1.8-0.2-2.4-0.5c-0.7-0.4-1.1-1.1-1.1-2.1c0-0.5,0.1-1,0.3-1.5c0.1-0.2,0.3-0.5,0.6-1
		l0.2,0.1c-0.1,0.2-0.2,0.5-0.3,0.7c-0.2,0.4-0.2,0.7-0.2,1c0,0.6,0.3,1.1,1,1.4c0.6,0.3,1.3,0.5,2.2,0.5h6.6v-0.2
		c0-0.6-0.1-1.1-0.2-1.4s-0.4-0.7-0.7-0.9l0.6-1.3c0.2,0.3,0.4,0.5,0.4,0.5c0.4,0.6,0.5,1.4,0.5,2.5V70.1z M119.9,63.7l-0.6,1.1
		l-1.3-0.7l0.6-1.1L119.9,63.7z M121.7,63l-0.6,1.1l-1.3-0.7l0.6-1.1L121.7,63z"/>
	<path class="st5" d="M132.3,69.6c0,0.9-0.3,1.7-1,2.6s-1.5,1.4-2.5,1.4c-0.3,0-0.7,0-1.1-0.1c-0.3-0.1-0.6-0.2-1-0.3
		c-0.3-0.1-0.7-0.2-1-0.4l0.1-0.3c0.3,0.1,0.6,0.1,0.9,0.2s0.6,0.1,0.9,0.1c0.6,0,1.2-0.2,1.8-0.5c0.4-0.3,0.9-0.6,1.3-1.1
		c0.2-0.2,0.5-0.6,1-1.2c-0.7,0-1.2-0.1-1.6-0.3c-0.4-0.3-0.6-0.7-0.6-1.3c0-0.5,0.1-1,0.4-1.5c0.3-0.5,0.7-0.8,1.1-0.8
		c0.5,0,0.8,0.3,1,0.8c0.2,0.4,0.2,1,0.2,1.7v1H132.3z M131.8,68.8c-0.1-0.5-0.3-0.8-0.4-1c-0.1-0.2-0.3-0.3-0.5-0.3
		c-0.1,0-0.3,0-0.4,0.1c-0.1,0.1-0.2,0.2-0.2,0.4c0,0.3,0.1,0.4,0.3,0.6C130.9,68.7,131.3,68.8,131.8,68.8z"/>
	<path class="st5" d="M140.1,70.1c0,0.6-0.2,1.2-0.7,1.8c-0.4,0.5-1,1-1.6,1.4s-1.1,0.6-1.5,0.6s-0.7-0.1-1.2-0.2
		c-0.3-0.1-0.7-0.2-1.1-0.4c-0.4-0.1-0.7-0.3-1.1-0.4l0.1-0.3c0.3,0.1,0.7,0.1,1.1,0.2c0.4,0.1,0.7,0.1,1,0.1c0.7,0,1.4-0.2,2.1-0.6
		c0.7-0.4,1.2-0.9,1.7-1.5s0.7-1.1,0.7-1.6c0-0.4-0.1-0.8-0.4-1.3c-0.2-0.4-0.5-0.7-0.8-1.1l0.4-1.2c0.4,0.4,0.7,0.8,0.9,1.2
		c0.2,0.4,0.3,0.9,0.3,1.5v1.8H140.1z M139,62.8l-0.6,1.1l-1.3-0.7l0.6-1.1L139,62.8z"/>
	<path class="st5" d="M147.9,70.1c0,0.6-0.2,1.2-0.7,1.8c-0.4,0.5-1,1-1.6,1.4s-1.1,0.6-1.5,0.6s-0.7-0.1-1.2-0.2
		c-0.3-0.1-0.7-0.2-1.1-0.4c-0.4-0.1-0.7-0.3-1.1-0.4l0.1-0.3c0.3,0.1,0.7,0.1,1.1,0.2c0.4,0.1,0.7,0.1,1,0.1c0.7,0,1.4-0.2,2.1-0.6
		c0.7-0.4,1.2-0.9,1.7-1.5s0.7-1.1,0.7-1.6c0-0.4-0.1-0.8-0.4-1.3c-0.2-0.4-0.5-0.7-0.8-1.1l0.4-1.2c0.4,0.4,0.7,0.8,0.9,1.2
		c0.2,0.4,0.3,0.9,0.3,1.5v1.8H147.9z"/>
	<path class="st5" d="M156.2,74.5l-2,1.3c-1.1,0-1.9,0-2.5-0.1c-1-0.2-1.8-0.5-2.4-0.9c-0.7-0.6-1.1-1.4-1.1-2.4
		c0-0.6,0.1-1.2,0.3-1.7c0.2-0.4,0.4-0.8,0.7-1.2c0.1-0.2,0.4-0.4,0.8-0.8c-0.5-0.3-0.8-0.5-1-0.6c-0.4-0.4-0.6-0.9-0.6-1.5
		s0.2-1.1,0.7-1.6c0.5-0.6,1.2-0.9,1.9-0.9c0.3,0,0.7,0.1,1.1,0.3c0.3,0.1,0.6,0.3,1,0.6c-0.5,0-1,0-1.6,0.1
		c-0.7,0.1-1.3,0.2-1.7,0.4c-0.5,0.2-0.8,0.5-0.8,0.8s0.3,0.6,0.9,0.9c0.5,0.2,1.1,0.4,1.7,0.5c0.5-0.3,1-0.5,1.5-0.7
		c0.6-0.2,1.1-0.4,1.7-0.5l-0.3,1.2c-1.1,0.4-1.9,0.7-2.3,1c-1,0.5-1.7,0.9-2.2,1.4c-0.7,0.6-1,1.3-1,2s0.3,1.3,0.8,1.7
		c0.5,0.4,1.2,0.6,2.1,0.8c0.7,0.1,1.7,0.2,2.8,0.2c0.2,0,0.5,0,0.7,0C155.7,74.4,155.9,74.4,156.2,74.5L156.2,74.5z"/>
	<path class="st5" d="M163.7,68.1c0,0.4-0.1,0.8-0.2,1.2c-0.1,0.2-0.2,0.5-0.5,1l-0.1-0.1c0-0.2,0-0.3,0-0.5s0-0.3,0-0.4
		c0-0.5,0-1.3-0.1-2.3s-0.2-2-0.3-3c-0.1-0.6-0.2-1.3-0.2-2c0.1-0.2,0.2-0.5,0.4-0.7s0.3-0.5,0.4-0.8c0.1,0.6,0.2,1.4,0.3,2.4
		s0.2,2,0.3,2.8C163.7,66.8,163.7,67.6,163.7,68.1z"/>
	<path class="st5" d="M172.5,69.1c0,0.8-0.2,1.5-0.6,2c-0.3,0.4-0.9,0.7-1.5,0.9c-0.6,0.2-1.3,0.2-2.2,0.2c-1,0-1.8-0.2-2.3-0.6
		c-0.6-0.4-0.9-1-0.9-1.8c0-0.4,0.1-0.9,0.2-1.4c0.1-0.4,0.3-0.9,0.5-1.4c0.2-0.4,0.4-0.8,0.7-1.3l0.3,0.1c-0.2,0.3-0.4,0.7-0.5,0.9
		c-0.2,0.4-0.3,0.7-0.4,1c-0.1,0.4-0.1,0.7-0.1,1c0,0.6,0.2,1.1,0.7,1.5c0.5,0.3,1.1,0.5,1.9,0.5c0.9,0,1.7-0.2,2.4-0.5
		c0.8-0.3,1.2-0.7,1.2-1.2s-0.1-1.4-0.2-2.6c-0.1-0.9-0.3-2-0.5-3.1l-0.3-1.5l-0.4-0.2c0-0.7,0.1-1.3,0.4-1.9h0.1
		c0,0.2,0.1,0.3,0.1,0.4c0.1,0.1,0.1,0.2,0.3,0.2c0.2,0.1,0.3,0.1,0.5,0.2c0.1,0.1,0.3,0.1,0.4,0.2c0,0.4,0,0.6,0,0.8
		s-0.1,0.4-0.2,0.7l-0.4-0.1c0,0.1,0.1,0.6,0.2,1.6c0.2,1.1,0.3,2,0.4,2.6C172.4,67.7,172.5,68.6,172.5,69.1z"/>
	<path class="st5" d="M175.4,59.6c0,0.1-0.1,0.2-0.2,0.4c-0.1,0.1-0.3,0.1-0.5,0.2l-1.5,0.5c0-0.2,0.3-0.5,0.8-0.6
		c-0.2-0.1-0.3-0.2-0.4-0.2c-0.1-0.1-0.2-0.2-0.2-0.3c0-0.2,0.1-0.4,0.4-0.7c0.3-0.3,0.6-0.5,0.8-0.5c0.1,0,0.2,0,0.3,0.1
		s0.1,0.2,0.1,0.3s0,0.1,0,0.2c0,0.1-0.1,0.2-0.1,0.3c-0.2-0.1-0.3-0.2-0.5-0.2c-0.1,0-0.2,0-0.3,0.1c-0.1,0-0.2,0.1-0.2,0.2
		c0,0.1,0.1,0.2,0.4,0.3c0.2,0.1,0.4,0.2,0.6,0.2c0.1,0,0.2,0,0.2,0C175.1,59.7,175.2,59.7,175.4,59.6z M175.1,68.1
		c0,0.4-0.1,0.8-0.2,1.2c-0.1,0.2-0.2,0.5-0.5,1l-0.1-0.1c0-0.2,0-0.3,0-0.5s0-0.3,0-0.4c0-0.5,0-1.3-0.1-2.3s-0.2-2-0.3-3
		c-0.1-0.6-0.2-1.3-0.2-2c0.1-0.2,0.2-0.5,0.4-0.7s0.3-0.5,0.4-0.8c0.1,0.6,0.2,1.4,0.3,2.4s0.2,2,0.3,2.8
		C175.1,66.8,175.1,67.6,175.1,68.1z"/>
	<path class="st5" d="M183.6,70.1c0,0.6-0.2,1.2-0.7,1.8c-0.4,0.5-1,1-1.6,1.4s-1.1,0.6-1.5,0.6s-0.7-0.1-1.2-0.2
		c-0.3-0.1-0.7-0.2-1.1-0.4c-0.4-0.1-0.7-0.3-1.1-0.4l0.1-0.3c0.3,0.1,0.7,0.1,1.1,0.2c0.4,0.1,0.7,0.1,1,0.1c0.7,0,1.4-0.2,2.1-0.6
		c0.7-0.4,1.2-0.9,1.7-1.5s0.7-1.1,0.7-1.6c0-0.4-0.1-0.8-0.4-1.3c-0.2-0.4-0.5-0.7-0.8-1.1l0.4-1.2c0.4,0.4,0.7,0.8,0.9,1.2
		c0.2,0.4,0.3,0.9,0.3,1.5v1.8H183.6z"/>
	<path class="st5" d="M195,70.1h-7.5c-1,0-1.8-0.2-2.4-0.5c-0.7-0.4-1.1-1.1-1.1-2.1c0-0.5,0.1-1,0.3-1.5c0.1-0.2,0.3-0.5,0.6-1
		l0.2,0.1c-0.1,0.2-0.2,0.5-0.3,0.7c-0.2,0.4-0.2,0.7-0.2,1c0,0.6,0.3,1.1,1,1.4c0.6,0.3,1.3,0.5,2.2,0.5h6.6v-0.2
		c0-0.6-0.1-1.1-0.2-1.4s-0.4-0.7-0.7-0.9l0.6-1.3c0.2,0.3,0.4,0.5,0.4,0.5c0.4,0.6,0.5,1.4,0.5,2.5L195,70.1L195,70.1z M190.6,72
		l-0.6,1.1l-1.3-0.7l0.6-1.1L190.6,72z"/>
	<path class="st5" d="M197.7,68.1c0,0.4-0.1,0.8-0.2,1.2c-0.1,0.2-0.2,0.5-0.5,1l-0.1-0.1c0-0.2,0-0.3,0-0.5s0-0.3,0-0.4
		c0-0.5,0-1.3-0.1-2.3s-0.2-2-0.3-3c-0.1-0.6-0.2-1.3-0.2-2c0.1-0.2,0.2-0.5,0.4-0.7s0.3-0.5,0.4-0.8c0.1,0.6,0.2,1.4,0.3,2.4
		s0.2,2,0.3,2.8C197.6,66.8,197.7,67.6,197.7,68.1z"/>
	<path class="st5" d="M202.1,67c-0.1,0-0.3,0-0.5,0s-0.3,0-0.4,0c-0.3,0-0.7,0-1.1,0.1c-0.3,0-0.6,0.1-1.1,0.2
		c0.2-0.6,0.4-1,0.6-1.1c0.4-0.4,1-0.6,2-0.6c0.3,0,1,0.1,2.1,0.2c0.5,0.1,0.9,0.1,1.3,0.1c0.2,0,0.4,0,0.7-0.1
		c0.3,0,0.5-0.1,0.7-0.1L206,67c-1.1,0.2-2,0.4-2.8,0.6c-1.1,0.4-2,0.8-2.7,1.3c-0.8,0.6-1.2,1.4-1.2,2.3c0,1.1,0.6,2,1.8,2.5
		c1,0.5,2.4,0.7,4.1,0.7h1.4v0.1l-1.8,1.2h-0.5c-1.1,0-2.1-0.1-2.8-0.3c-0.9-0.3-1.6-0.7-2-1.2c-0.5-0.6-0.8-1.5-0.8-2.5
		c0-0.9,0.2-1.7,0.6-2.4c0.3-0.5,0.8-1,1.4-1.5C200.9,67.8,201.4,67.4,202.1,67z"/>
	<path class="st5" d="M214.5,68.1c0,0.4-0.1,0.8-0.2,1.2c-0.1,0.2-0.2,0.5-0.5,1l-0.1-0.1c0-0.2,0-0.3,0-0.5s0-0.3,0-0.4
		c0-0.5,0-1.3-0.1-2.3s-0.2-2-0.3-3c-0.1-0.6-0.2-1.3-0.2-2c0.1-0.2,0.2-0.5,0.4-0.7s0.3-0.5,0.4-0.8c0.1,0.6,0.2,1.4,0.3,2.4
		s0.2,2,0.3,2.8C214.4,66.8,214.5,67.6,214.5,68.1z"/>
	<path class="st5" d="M223.2,69.1c0,0.8-0.2,1.5-0.6,2c-0.3,0.4-0.9,0.7-1.5,0.9c-0.6,0.2-1.3,0.2-2.2,0.2c-1,0-1.8-0.2-2.3-0.6
		c-0.6-0.4-0.9-1-0.9-1.8c0-0.4,0.1-0.9,0.2-1.4c0.1-0.4,0.3-0.9,0.5-1.4c0.2-0.4,0.4-0.8,0.7-1.3l0.3,0.1c-0.2,0.3-0.4,0.7-0.5,0.9
		c-0.2,0.4-0.3,0.7-0.4,1c-0.1,0.4-0.1,0.7-0.1,1c0,0.6,0.2,1.1,0.7,1.5c0.5,0.3,1.1,0.5,1.9,0.5c0.9,0,1.7-0.2,2.4-0.5
		c0.8-0.3,1.2-0.7,1.2-1.2s-0.1-1.4-0.2-2.6c-0.1-0.9-0.3-2-0.5-3.1l-0.3-1.5l-0.4-0.2c0-0.7,0.1-1.3,0.4-1.9h0.1
		c0,0.2,0.1,0.3,0.1,0.4c0.1,0.1,0.1,0.2,0.3,0.2c0.2,0.1,0.3,0.1,0.5,0.2c0.1,0.1,0.3,0.1,0.4,0.2c0,0.4,0,0.6,0,0.8
		s-0.1,0.4-0.2,0.7l-0.4-0.1c0,0.1,0.1,0.6,0.2,1.6c0.2,1.1,0.3,2,0.4,2.6C223.2,67.7,223.2,68.6,223.2,69.1z"/>
	<path class="st5" d="M234.6,70.1h-7.5c-1,0-1.8-0.2-2.4-0.5c-0.7-0.4-1.1-1.1-1.1-2.1c0-0.5,0.1-1,0.3-1.5c0.1-0.2,0.3-0.5,0.6-1
		l0.2,0.1c-0.1,0.2-0.2,0.5-0.3,0.7c-0.2,0.4-0.2,0.7-0.2,1c0,0.6,0.3,1.1,1,1.4c0.6,0.3,1.3,0.5,2.2,0.5h6.6v-0.2
		c0-0.6-0.1-1.1-0.2-1.4s-0.4-0.7-0.7-0.9l0.6-1.3c0.2,0.3,0.4,0.5,0.4,0.5c0.4,0.6,0.5,1.4,0.5,2.5L234.6,70.1L234.6,70.1z
		 M229.2,63.7l-0.6,1.1l-1.3-0.7l0.6-1.1L229.2,63.7z M231,63l-0.6,1.1l-1.3-0.7l0.6-1.1L231,63z"/>
	<path class="st5" d="M247.8,70.1h-0.6c-0.3,0-0.6,0-0.8-0.1s-0.5-0.2-0.7-0.4c-0.2,0.2-0.4,0.3-0.6,0.4c-0.2,0.1-0.6,0.1-1.1,0.1
		h-1c0,0.5-0.1,0.9-0.3,1.4c-0.3,0.6-0.8,1.1-1.4,1.4c-0.8,0.4-1.7,0.6-2.9,0.6c-1,0-1.8-0.2-2.4-0.5c-0.6-0.4-0.9-1-0.9-1.8
		c0-0.4,0.1-0.9,0.2-1.4c0.1-0.5,0.3-0.9,0.4-1.4c0.1-0.3,0.3-0.7,0.6-1.3l0.3,0.1c-0.4,0.8-0.6,1.3-0.7,1.8
		c-0.1,0.4-0.2,0.8-0.2,1.2c0,0.6,0.2,1.1,0.7,1.5s1.1,0.5,2,0.5c1,0,1.9-0.2,2.7-0.5c1-0.4,1.5-1,1.5-1.8c0-0.5-0.1-1-0.3-1.5
		c-0.2-0.4-0.4-0.7-0.6-1.1l0.6-1.6c0.3,0.4,0.4,0.8,0.5,1.1c0.1,0.5,0.2,1.1,0.2,1.9h1c0.5,0,0.8-0.1,1.1-0.2
		c0.2-0.1,0.3-0.3,0.3-0.6c0-0.2,0-0.3,0-0.5s0-0.3-0.1-0.5l0.3-0.5l0.1,0.8c0.1,0.5,0.3,0.9,0.5,1.1c0.2,0.3,0.5,0.4,0.9,0.4
		c0.1,0,0.2,0,0.3-0.1s0.1-0.2,0.1-0.3c0-0.3-0.1-0.5-0.2-0.8c-0.1-0.2-0.3-0.4-0.5-0.7l0.5-0.9c0.2,0.4,0.4,0.7,0.4,0.8
		c0.1,0.3,0.2,0.8,0.2,1.4v2H247.8z"/>
	<path class="st5" d="M250.4,68.1c0,0.4-0.1,0.8-0.2,1.2c-0.1,0.2-0.2,0.5-0.5,1l-0.1-0.1c0-0.2,0-0.3,0-0.5s0-0.3,0-0.4
		c0-0.5,0-1.3-0.1-2.3s-0.2-2-0.3-3c-0.1-0.6-0.2-1.3-0.2-2c0.1-0.2,0.2-0.5,0.4-0.7s0.3-0.5,0.4-0.8c0.1,0.6,0.2,1.4,0.3,2.4
		s0.2,2,0.3,2.8C250.4,66.8,250.4,67.6,250.4,68.1z"/>
	<path class="st5" d="M255.3,67.8c0,0.7-0.1,1.3-0.4,1.7c-0.4,0.6-1,0.9-2,0.9c-0.4,0-0.7-0.1-0.9-0.2c-0.3-0.2-0.4-0.4-0.4-0.7
		c0-0.4,0.1-0.8,0.3-1.3c0.2-0.4,0.3-0.8,0.5-1.2h-0.1l0.5-1.3c0.9,0.5,1.5,0.8,1.7,0.9C255,66.9,255.3,67.3,255.3,67.8z
		 M254.6,68.4c0-0.2-0.3-0.5-0.9-0.8c-0.2-0.1-0.5-0.3-0.8-0.4c-0.2,0.3-0.4,0.4-0.4,0.5c-0.1,0.2-0.2,0.4-0.2,0.6
		c0,0.3,0.1,0.5,0.2,0.6s0.3,0.2,0.6,0.2s0.6-0.1,1-0.2S254.6,68.6,254.6,68.4z"/>
	<path class="st5" d="M261,70.1h-0.9c-0.9,0-1.6,0.1-2.3,0.2c-0.8,0.2-1.2,0.5-1.2,0.9c0,0.3,0.1,0.7,0.2,1.1s0.2,0.8,0.4,1.2
		c0.1,0.4,0.2,0.8,0.2,1.1c0,0.2,0,0.4,0,0.5c0,0.2-0.1,0.4-0.2,0.6c-0.1-0.4-0.3-0.9-0.4-1.3c-0.3-0.8-0.4-1.4-0.6-1.9
		c-0.2-0.7-0.3-1.1-0.3-1.2c0-0.7,0.1-1.2,0.4-1.5c0.3-0.4,0.7-0.6,1.3-0.8c0.5-0.1,1.1-0.3,2.1-0.3c-0.3-0.3-0.5-0.5-0.6-0.6
		c-0.3-0.2-0.5-0.3-0.8-0.3c-0.2,0-0.3,0.1-0.5,0.2c-0.1,0.1-0.3,0.2-0.5,0.4l-0.4-0.2c0.2-0.4,0.3-0.7,0.5-0.9
		c0.3-0.4,0.7-0.6,1.2-0.6c0.3,0,0.6,0.1,1,0.4c0.3,0.2,0.5,0.5,0.8,0.8c0.1,0.2,0.3,0.5,0.6,0.9L261,70.1L261,70.1z"/>
	<path class="st5" d="M273.6,69.1c0,0.8-0.2,1.5-0.6,2c-0.3,0.4-0.9,0.7-1.5,0.9c-0.6,0.2-1.3,0.2-2.2,0.2c-1,0-1.8-0.2-2.3-0.6
		c-0.6-0.4-0.9-1-0.9-1.8c0-0.4,0.1-0.9,0.2-1.4c0.1-0.4,0.3-0.9,0.5-1.4c0.2-0.4,0.4-0.8,0.7-1.3l0.3,0.1c-0.2,0.3-0.4,0.7-0.5,0.9
		c-0.2,0.4-0.3,0.7-0.4,1c-0.1,0.4-0.1,0.7-0.1,1c0,0.6,0.2,1.1,0.7,1.5c0.5,0.3,1.1,0.5,1.9,0.5c0.9,0,1.7-0.2,2.4-0.5
		c0.8-0.3,1.2-0.7,1.2-1.2s-0.1-1.4-0.2-2.6c-0.1-0.9-0.3-2-0.5-3.1l-0.3-1.5l-0.4-0.2c0-0.7,0.1-1.3,0.4-1.9h0.1
		c0,0.2,0.1,0.3,0.1,0.4c0.1,0.1,0.1,0.2,0.3,0.2c0.2,0.1,0.3,0.1,0.5,0.2c0.1,0.1,0.3,0.1,0.4,0.2c0,0.4,0,0.6,0,0.8
		s-0.1,0.4-0.2,0.7l-0.4-0.1c0,0.1,0.1,0.6,0.2,1.6c0.2,1.1,0.3,2,0.4,2.6C273.5,67.7,273.6,68.6,273.6,69.1z"/>
	<path class="st5" d="M283.2,70.1h-5.8c-1.2,0-2.1-0.1-2.7-0.4s-0.8-0.9-0.8-1.6c0-0.5,0.1-1,0.4-1.6c0.1-0.2,0.2-0.5,0.4-0.9
		l0.3,0.2c-0.2,0.4-0.3,0.7-0.3,0.9s-0.1,0.4-0.1,0.6c0,0.6,0.3,1,0.9,1.2c0.4,0.2,1.1,0.3,2,0.3h5l-1-6.6l-0.4-0.2
		c0-0.4,0-0.7,0.1-1s0.2-0.6,0.3-0.9l0.1,0.1c0,0.3,0.2,0.5,0.6,0.7l0.8,0.3c0,0.2,0,0.5-0.1,0.8s-0.1,0.5-0.2,0.7l-0.4-0.1l0.9,6.1
		L283.2,70.1L283.2,70.1z M280.3,65.3c0,0.6-0.2,1-0.6,1.3s-0.9,0.5-1.6,0.5c-0.3,0-0.7,0-1.1-0.1c-0.2-0.1-0.6-0.1-1-0.3l0.1-0.2
		c0.1,0,0.3,0,0.5,0c0.4,0,0.7,0.1,0.8,0.1c0.6,0,1.1-0.1,1.5-0.3c0.4-0.2,0.6-0.4,0.6-0.6c0-0.1,0-0.2-0.1-0.3
		c-0.1-0.1-0.2-0.1-0.3-0.1c-0.1,0-0.2,0-0.3,0h-0.5c-0.1,0-0.2,0-0.3-0.1c-0.1-0.1-0.1-0.2-0.1-0.3c0-0.4,0.2-1,0.7-1.6
		s0.9-1,1.4-1.2l-0.1,1c-0.4,0.1-0.6,0.2-0.8,0.3c-0.3,0.2-0.5,0.4-0.5,0.7c0,0.1,0,0.2,0.1,0.2s0.2,0.1,0.3,0.1c0.1,0,0.2,0,0.3,0
		l0.4-0.1c0.3,0,0.5,0.1,0.6,0.2S280.3,65,280.3,65.3z"/>
	<path class="st5" d="M291.3,69.1c0,0.8-0.2,1.5-0.6,2c-0.3,0.4-0.9,0.7-1.5,0.9c-0.6,0.2-1.3,0.2-2.2,0.2c-1,0-1.8-0.2-2.3-0.6
		c-0.6-0.4-0.9-1-0.9-1.8c0-0.4,0.1-0.9,0.2-1.4c0.1-0.4,0.3-0.9,0.5-1.4c0.2-0.4,0.4-0.8,0.7-1.3l0.3,0.1c-0.2,0.3-0.4,0.7-0.5,0.9
		c-0.2,0.4-0.3,0.7-0.4,1c-0.1,0.4-0.1,0.7-0.1,1c0,0.6,0.2,1.1,0.7,1.5c0.5,0.3,1.1,0.5,1.9,0.5c0.9,0,1.7-0.2,2.4-0.5
		c0.8-0.3,1.2-0.7,1.2-1.2s-0.1-1.4-0.2-2.6c-0.1-0.9-0.3-2-0.5-3.1l-0.3-1.5l-0.4-0.2c0-0.7,0.1-1.3,0.4-1.9h0.1
		c0,0.2,0.1,0.3,0.1,0.4c0.1,0.1,0.1,0.2,0.3,0.2c0.2,0.1,0.3,0.1,0.5,0.2c0.1,0.1,0.3,0.1,0.4,0.2c0,0.4,0,0.6,0,0.8
		s-0.1,0.4-0.2,0.7l-0.4-0.1c0,0.1,0.1,0.6,0.2,1.6c0.2,1.1,0.3,2,0.4,2.6C291.2,67.7,291.3,68.6,291.3,69.1z"/>
	<path class="st5" d="M308.9,70.1h-0.6c-0.3,0-0.6,0-0.8-0.1c-0.2-0.1-0.5-0.2-0.7-0.4c-0.2,0.2-0.4,0.3-0.6,0.4s-0.6,0.1-1.1,0.1
		h-1c0,0.5-0.1,0.9-0.3,1.4c-0.3,0.6-0.8,1.1-1.4,1.4c-0.8,0.4-1.7,0.6-2.9,0.6c-1,0-1.8-0.2-2.4-0.5c-0.6-0.4-0.9-1-0.9-1.8
		c0-0.4,0.1-0.9,0.2-1.4s0.3-0.9,0.4-1.4c0.1-0.3,0.3-0.7,0.6-1.3l0.3,0.1c-0.4,0.8-0.6,1.3-0.7,1.8c-0.1,0.4-0.2,0.8-0.2,1.2
		c0,0.6,0.2,1.1,0.7,1.5s1.1,0.5,2,0.5c1,0,1.9-0.2,2.7-0.5c1-0.4,1.5-1,1.5-1.8c0-0.5-0.1-1-0.3-1.5c-0.2-0.4-0.4-0.7-0.6-1.1
		l0.6-1.6c0.3,0.4,0.4,0.8,0.5,1.1c0.1,0.5,0.2,1.1,0.2,1.9h1c0.5,0,0.8-0.1,1.1-0.2c0.2-0.1,0.3-0.3,0.3-0.6c0-0.2,0-0.3,0-0.5
		s0-0.3-0.1-0.5l0.3-0.5l0.1,0.8c0.1,0.5,0.3,0.9,0.5,1.1c0.2,0.3,0.5,0.4,0.9,0.4c0.1,0,0.2,0,0.3-0.1c0.1-0.1,0.1-0.2,0.1-0.3
		c0-0.3-0.1-0.5-0.2-0.8c-0.1-0.2-0.3-0.4-0.5-0.7l0.5-0.9c0.2,0.4,0.4,0.7,0.4,0.8c0.1,0.3,0.2,0.8,0.2,1.4v2H308.9z M306.5,63.7
		l-0.6,1.1l-1.3-0.7l0.6-1.1L306.5,63.7z M306.7,61.6l-0.6,1.1l-1.3-0.7l0.6-1.1L306.7,61.6z M308.2,63l-0.6,1.1l-1.3-0.7l0.6-1.1
		L308.2,63z"/>
	<path class="st5" d="M313.1,67.8c0,0.7-0.1,1.3-0.4,1.7c-0.4,0.6-1,0.9-2,0.9c-0.4,0-0.7-0.1-0.9-0.2c-0.3-0.2-0.4-0.4-0.4-0.7
		c0-0.4,0.1-0.8,0.3-1.3c0.2-0.4,0.3-0.8,0.5-1.2h-0.1l0.5-1.3c0.9,0.5,1.5,0.8,1.7,0.9C312.7,66.9,313.1,67.3,313.1,67.8z
		 M312.4,68.4c0-0.2-0.3-0.5-0.9-0.8c-0.2-0.1-0.5-0.3-0.8-0.4c-0.2,0.3-0.4,0.4-0.4,0.5c-0.1,0.2-0.2,0.4-0.2,0.6
		c0,0.3,0.1,0.5,0.2,0.6s0.3,0.2,0.6,0.2c0.3,0,0.6-0.1,1-0.2S312.4,68.6,312.4,68.4z"/>
	<path class="st5" d="M321.2,70.1c0,0.6-0.2,1.2-0.7,1.8c-0.4,0.5-1,1-1.6,1.4s-1.1,0.6-1.5,0.6s-0.7-0.1-1.2-0.2
		c-0.3-0.1-0.7-0.2-1.1-0.4c-0.4-0.1-0.7-0.3-1.1-0.4l0.1-0.3c0.3,0.1,0.7,0.1,1.1,0.2s0.7,0.1,1,0.1c0.7,0,1.4-0.2,2.1-0.6
		s1.2-0.9,1.7-1.5s0.7-1.1,0.7-1.6c0-0.4-0.1-0.8-0.4-1.3c-0.2-0.4-0.5-0.7-0.8-1.1l0.4-1.2c0.4,0.4,0.7,0.8,0.9,1.2
		c0.2,0.4,0.3,0.9,0.3,1.5v1.8H321.2z"/>
</g>
<g>
	<path class="st5" d="M549.4,314c0,0.6-0.2,1.2-0.7,1.8c-0.4,0.5-1,1-1.6,1.4s-1.1,0.6-1.5,0.6s-0.7-0.1-1.2-0.2
		c-0.3-0.1-0.7-0.2-1.1-0.4c-0.4-0.1-0.7-0.3-1.1-0.4l0.1-0.3c0.3,0.1,0.7,0.1,1.1,0.2s0.7,0.1,1,0.1c0.7,0,1.4-0.2,2.1-0.6
		c0.7-0.4,1.2-0.9,1.7-1.5s0.7-1.1,0.7-1.6c0-0.4-0.1-0.8-0.4-1.3c-0.2-0.4-0.5-0.7-0.8-1.1l0.4-1.2c0.4,0.4,0.7,0.8,0.9,1.2
		c0.2,0.4,0.3,0.9,0.3,1.5L549.4,314L549.4,314z"/>
	<path class="st5" d="M552.2,303.5c0,0.1-0.1,0.2-0.2,0.4c-0.1,0.1-0.3,0.1-0.5,0.2l-1.5,0.5c0-0.2,0.3-0.5,0.8-0.6
		c-0.2-0.1-0.3-0.2-0.4-0.2c-0.1-0.1-0.2-0.2-0.2-0.3c0-0.2,0.1-0.4,0.4-0.7c0.3-0.3,0.6-0.5,0.8-0.5c0.1,0,0.2,0,0.3,0.1
		s0.1,0.2,0.1,0.3c0,0.1,0,0.1,0,0.2s-0.1,0.2-0.1,0.3c-0.2-0.1-0.3-0.2-0.5-0.2c-0.1,0-0.2,0-0.3,0.1s-0.2,0.1-0.2,0.2
		s0.1,0.2,0.4,0.3s0.4,0.2,0.6,0.2c0.1,0,0.2,0,0.2,0S552.1,303.6,552.2,303.5z M552,312c0,0.4-0.1,0.8-0.2,1.2
		c-0.1,0.2-0.2,0.5-0.5,1l-0.1-0.1c0-0.2,0-0.3,0-0.5s0-0.3,0-0.4c0-0.5,0-1.3-0.1-2.3s-0.2-2-0.3-3c-0.1-0.6-0.2-1.3-0.2-2
		c0.1-0.2,0.2-0.5,0.4-0.7s0.3-0.5,0.4-0.8c0.1,0.6,0.2,1.4,0.3,2.4s0.2,2,0.3,2.8C551.9,310.7,552,311.5,552,312z"/>
	<path class="st5" d="M565.8,314h-0.6c-0.3,0-0.6,0-0.8-0.1s-0.5-0.2-0.7-0.4c-0.2,0.2-0.4,0.3-0.6,0.4c-0.2,0.1-0.6,0.1-1.1,0.1h-1
		c0,0.5-0.1,0.9-0.3,1.4c-0.3,0.6-0.8,1.1-1.4,1.4c-0.8,0.4-1.7,0.6-2.9,0.6c-1,0-1.8-0.2-2.4-0.5c-0.6-0.4-0.9-1-0.9-1.8
		c0-0.4,0.1-0.9,0.2-1.4s0.3-0.9,0.4-1.4c0.1-0.3,0.3-0.7,0.6-1.3l0.3,0.1c-0.4,0.8-0.6,1.3-0.7,1.8s-0.2,0.8-0.2,1.2
		c0,0.6,0.2,1.1,0.7,1.5s1.1,0.5,2,0.5c1,0,1.9-0.2,2.7-0.5c1-0.4,1.5-1,1.5-1.8c0-0.5-0.1-1-0.3-1.5c-0.2-0.4-0.4-0.7-0.6-1.1
		l0.6-1.6c0.3,0.4,0.4,0.8,0.5,1.1c0.1,0.5,0.2,1.1,0.2,1.9h1c0.5,0,0.8-0.1,1.1-0.2c0.2-0.1,0.3-0.3,0.3-0.6c0-0.2,0-0.3,0-0.5
		s0-0.3-0.1-0.5l0.3-0.5l0.1,0.8c0.1,0.5,0.3,0.9,0.5,1.1c0.2,0.3,0.5,0.4,0.9,0.4c0.1,0,0.2,0,0.3-0.1s0.1-0.2,0.1-0.3
		c0-0.3-0.1-0.5-0.2-0.8c-0.1-0.2-0.3-0.4-0.5-0.7l0.5-0.9c0.2,0.4,0.4,0.7,0.4,0.8c0.1,0.3,0.2,0.8,0.2,1.4L565.8,314L565.8,314z"
		/>
	<path class="st5" d="M572.9,312c0,0.4-0.1,0.8-0.2,1.2c-0.1,0.2-0.2,0.5-0.5,1l-0.1-0.1c0-0.2,0-0.3,0-0.5s0-0.3,0-0.4
		c0-0.5,0-1.3-0.1-2.3s-0.2-2-0.3-3c-0.1-0.6-0.2-1.3-0.2-2c0.1-0.2,0.2-0.5,0.4-0.7s0.3-0.5,0.4-0.8c0.1,0.6,0.2,1.4,0.3,2.4
		s0.2,2,0.3,2.8C572.8,310.7,572.9,311.5,572.9,312z"/>
	<path class="st5" d="M581.7,313c0,0.8-0.2,1.5-0.6,2c-0.3,0.4-0.9,0.7-1.5,0.9c-0.6,0.2-1.3,0.2-2.2,0.2c-1,0-1.8-0.2-2.3-0.6
		c-0.6-0.4-0.9-1-0.9-1.8c0-0.4,0.1-0.9,0.2-1.4c0.1-0.4,0.3-0.9,0.5-1.4c0.2-0.4,0.4-0.8,0.7-1.3l0.3,0.1c-0.2,0.3-0.4,0.7-0.5,0.9
		c-0.2,0.4-0.3,0.7-0.4,1c-0.1,0.4-0.1,0.7-0.1,1c0,0.6,0.2,1.1,0.7,1.5s1.1,0.5,1.9,0.5c0.9,0,1.7-0.2,2.4-0.5
		c0.8-0.3,1.2-0.7,1.2-1.2s-0.1-1.4-0.2-2.6c-0.1-0.9-0.3-2-0.5-3.1l-0.3-1.5l-0.4-0.2c0-0.7,0.1-1.3,0.4-1.9h0.1
		c0,0.2,0.1,0.3,0.1,0.4s0.1,0.2,0.3,0.2c0.2,0.1,0.3,0.1,0.5,0.2c0.1,0.1,0.3,0.1,0.4,0.2c0,0.4,0,0.6,0,0.8s-0.1,0.4-0.2,0.7
		l-0.4-0.1c0,0.1,0.1,0.6,0.2,1.6c0.2,1.1,0.3,2,0.4,2.6C581.6,311.6,581.7,312.5,581.7,313z"/>
	<path class="st5" d="M587.1,314h-0.9c-0.9,0-1.6,0.1-2.3,0.2c-0.8,0.2-1.2,0.5-1.2,0.9c0,0.3,0.1,0.7,0.2,1.1s0.2,0.8,0.4,1.2
		c0.1,0.4,0.2,0.8,0.2,1.1c0,0.2,0,0.4,0,0.5c0,0.2-0.1,0.4-0.2,0.6c-0.1-0.4-0.3-0.9-0.4-1.3c-0.3-0.8-0.4-1.4-0.6-1.9
		c-0.2-0.7-0.3-1.1-0.3-1.2c0-0.7,0.1-1.2,0.4-1.5s0.7-0.6,1.3-0.8c0.5-0.1,1.1-0.3,2.1-0.3c-0.3-0.3-0.5-0.5-0.6-0.6
		c-0.3-0.2-0.5-0.3-0.8-0.3c-0.2,0-0.3,0.1-0.5,0.2c-0.1,0.1-0.3,0.2-0.5,0.4l-0.4-0.2c0.2-0.4,0.3-0.7,0.5-0.9
		c0.3-0.4,0.7-0.6,1.2-0.6c0.3,0,0.6,0.1,1,0.4c0.3,0.2,0.5,0.5,0.8,0.8c0.1,0.2,0.3,0.5,0.6,0.9V314z"/>
	<path class="st5" d="M589.7,312c0,0.4-0.1,0.8-0.2,1.2c-0.1,0.2-0.2,0.5-0.5,1l-0.1-0.1c0-0.2,0-0.3,0-0.5s0-0.3,0-0.4
		c0-0.5,0-1.3-0.1-2.3s-0.2-2-0.3-3c-0.1-0.6-0.2-1.3-0.2-2c0.1-0.2,0.2-0.5,0.4-0.7s0.3-0.5,0.4-0.8c0.1,0.6,0.2,1.4,0.3,2.4
		s0.2,2,0.3,2.8C589.7,310.7,589.7,311.5,589.7,312z"/>
	<path class="st5" d="M598.5,313c0,0.8-0.2,1.5-0.6,2c-0.3,0.4-0.9,0.7-1.5,0.9c-0.6,0.2-1.3,0.2-2.2,0.2c-1,0-1.8-0.2-2.3-0.6
		c-0.6-0.4-0.9-1-0.9-1.8c0-0.4,0.1-0.9,0.2-1.4c0.1-0.4,0.3-0.9,0.5-1.4c0.2-0.4,0.4-0.8,0.7-1.3l0.3,0.1c-0.2,0.3-0.4,0.7-0.5,0.9
		c-0.2,0.4-0.3,0.7-0.4,1c-0.1,0.4-0.1,0.7-0.1,1c0,0.6,0.2,1.1,0.7,1.5s1.1,0.5,1.9,0.5c0.9,0,1.7-0.2,2.4-0.5
		c0.8-0.3,1.2-0.7,1.2-1.2s-0.1-1.4-0.2-2.6c-0.1-0.9-0.3-2-0.5-3.1l-0.3-1.5l-0.4-0.2c0-0.7,0.1-1.3,0.4-1.9h0.1
		c0,0.2,0.1,0.3,0.1,0.4s0.1,0.2,0.3,0.2c0.2,0.1,0.3,0.1,0.5,0.2c0.1,0.1,0.3,0.1,0.4,0.2c0,0.4,0,0.6,0,0.8s-0.1,0.4-0.2,0.7
		l-0.4-0.1c0,0.1,0.1,0.6,0.2,1.6c0.2,1.1,0.3,2,0.4,2.6C598.4,311.6,598.5,312.5,598.5,313z"/>
</g>
<g>
	<path class="st5" d="M681.5,277.3c0,0.4-0.1,0.8-0.2,1.2c-0.1,0.2-0.2,0.5-0.5,1l-0.1-0.1c0-0.2,0-0.3,0-0.5s0-0.3,0-0.4
		c0-0.5,0-1.3-0.1-2.3s-0.2-2-0.3-3c-0.1-0.6-0.2-1.3-0.2-2c0.1-0.2,0.2-0.5,0.4-0.7s0.3-0.5,0.4-0.8c0.1,0.6,0.2,1.4,0.3,2.4
		s0.2,2,0.3,2.8C681.4,276,681.5,276.8,681.5,277.3z"/>
	<path class="st5" d="M690.3,278.3c0,0.8-0.2,1.5-0.6,2c-0.3,0.4-0.9,0.7-1.5,0.9c-0.6,0.2-1.3,0.2-2.2,0.2c-1,0-1.8-0.2-2.3-0.6
		c-0.6-0.4-0.9-1-0.9-1.8c0-0.4,0.1-0.9,0.2-1.4c0.1-0.4,0.3-0.9,0.5-1.4c0.2-0.4,0.4-0.8,0.7-1.3l0.3,0.1c-0.2,0.3-0.4,0.7-0.5,0.9
		c-0.2,0.4-0.3,0.7-0.4,1c-0.1,0.4-0.1,0.7-0.1,1c0,0.6,0.2,1.1,0.7,1.5c0.5,0.3,1.1,0.5,1.9,0.5c0.9,0,1.7-0.2,2.4-0.5
		c0.8-0.3,1.2-0.7,1.2-1.2s-0.1-1.4-0.2-2.6c-0.1-0.9-0.3-2-0.5-3.1l-0.3-1.5l-0.4-0.2c0-0.7,0.1-1.3,0.4-1.9h0.1
		c0,0.2,0.1,0.3,0.1,0.4c0.1,0.1,0.1,0.2,0.3,0.2c0.2,0.1,0.3,0.1,0.5,0.2c0.1,0.1,0.3,0.1,0.4,0.2c0,0.4,0,0.6,0,0.8
		c0,0.2-0.1,0.4-0.2,0.7l-0.4-0.1c0,0.1,0.1,0.6,0.2,1.6c0.2,1.1,0.3,2,0.4,2.6C690.2,276.9,690.3,277.8,690.3,278.3z"/>
	<path class="st5" d="M698.5,283.7l-2,1.3c-1.1,0-1.9,0-2.5-0.1c-1-0.2-1.8-0.5-2.4-0.9c-0.7-0.6-1.1-1.4-1.1-2.4
		c0-0.6,0.1-1.2,0.3-1.7c0.2-0.4,0.4-0.8,0.7-1.2c0.1-0.2,0.4-0.4,0.8-0.8c-0.5-0.3-0.8-0.5-1-0.6c-0.4-0.4-0.6-0.9-0.6-1.5
		s0.2-1.1,0.7-1.6c0.5-0.6,1.2-0.9,1.9-0.9c0.3,0,0.7,0.1,1.1,0.3c0.3,0.1,0.6,0.3,1,0.6c-0.5,0-1,0-1.6,0.1
		c-0.7,0.1-1.3,0.2-1.7,0.4c-0.5,0.2-0.8,0.5-0.8,0.8s0.3,0.6,0.9,0.9c0.5,0.2,1.1,0.4,1.7,0.5c0.5-0.3,1-0.5,1.5-0.7
		c0.6-0.2,1.1-0.4,1.7-0.5l-0.3,1.2c-1.1,0.4-1.9,0.7-2.3,1c-1,0.5-1.7,0.9-2.2,1.4c-0.7,0.6-1,1.3-1,2s0.3,1.3,0.8,1.7
		c0.5,0.4,1.2,0.6,2.1,0.8c0.7,0.1,1.7,0.2,2.8,0.2c0.2,0,0.5,0,0.7,0C698,283.6,698.3,283.6,698.5,283.7L698.5,283.7z"/>
	<path class="st5" d="M708.3,279.7c0,1-0.5,1.8-1.5,2.4c-0.9,0.5-2.1,0.7-3.5,0.7c-1.2,0-2.1-0.2-2.7-0.6c-0.7-0.5-1-1.1-1-2
		c0-0.6,0.1-1.3,0.3-1.9s0.4-1.3,0.8-1.9l0.3,0.1c-0.2,0.4-0.3,0.7-0.4,1c-0.1,0.4-0.2,0.7-0.3,1s-0.1,0.7-0.1,1
		c0,0.7,0.3,1.2,0.9,1.5c0.5,0.3,1.3,0.4,2.4,0.4c1.1,0,2.1-0.2,2.9-0.5c1-0.4,1.4-1,1.4-1.7c0-0.3,0-0.5,0-0.6s-0.1-0.2-0.1-0.4
		c-0.2,0.1-0.4,0.2-0.6,0.2c-0.2,0.1-0.4,0.1-0.6,0.1c-0.5,0-0.8-0.1-1.1-0.3c-0.3-0.3-0.5-0.6-0.5-1.1c0-0.6,0.2-1.2,0.5-1.7
		c0.3-0.6,0.7-0.9,1.2-0.9c0.6,0,1.1,0.4,1.4,1.3c0.3,0.7,0.5,1.5,0.5,2.5v1.4H708.3z M705.6,272.1l-0.6,1.1l-1.3-0.7l0.6-1.1
		L705.6,272.1z M707,276.8c-0.1-0.3-0.2-0.5-0.3-0.6c-0.1-0.2-0.3-0.3-0.5-0.3c-0.3,0-0.4,0.1-0.6,0.2s-0.2,0.3-0.2,0.5
		s0.1,0.3,0.2,0.4c0.2,0.1,0.3,0.1,0.5,0.1c0.1,0,0.3,0,0.4-0.1S706.8,276.9,707,276.8z M707.3,271.3l-0.6,1.1l-1.3-0.7l0.6-1.1
		L707.3,271.3z"/>
	<path class="st5" d="M710.9,277.3c0,0.4-0.1,0.8-0.2,1.2c-0.1,0.2-0.2,0.5-0.5,1l-0.1-0.1c0-0.2,0-0.3,0-0.5s0-0.3,0-0.4
		c0-0.5,0-1.3-0.1-2.3s-0.2-2-0.3-3c-0.1-0.6-0.2-1.3-0.2-2c0.1-0.2,0.2-0.5,0.4-0.7s0.3-0.5,0.4-0.8c0.1,0.6,0.2,1.4,0.3,2.4
		s0.2,2,0.3,2.8C710.9,276,710.9,276.8,710.9,277.3z"/>
	<path class="st5" d="M719.4,279.3c0,0.6-0.2,1.2-0.7,1.8c-0.4,0.5-1,1-1.6,1.4s-1.1,0.6-1.5,0.6s-0.7-0.1-1.2-0.2
		c-0.3-0.1-0.7-0.2-1.1-0.4c-0.4-0.1-0.7-0.3-1.1-0.4l0.1-0.3c0.3,0.1,0.7,0.1,1.1,0.2c0.4,0.1,0.7,0.1,1,0.1c0.7,0,1.4-0.2,2.1-0.6
		c0.7-0.4,1.2-0.9,1.7-1.5s0.7-1.1,0.7-1.6c0-0.4-0.1-0.8-0.4-1.3c-0.2-0.4-0.5-0.7-0.8-1.1l0.4-1.2c0.4,0.4,0.7,0.8,0.9,1.2
		c0.2,0.4,0.3,0.9,0.3,1.5L719.4,279.3L719.4,279.3z"/>
	<path class="st5" d="M722,277.3c0,0.4-0.1,0.8-0.2,1.2c-0.1,0.2-0.2,0.5-0.5,1l-0.1-0.1c0-0.2,0-0.3,0-0.5s0-0.3,0-0.4
		c0-0.5,0-1.3-0.1-2.3s-0.2-2-0.3-3c-0.1-0.6-0.2-1.3-0.2-2c0.1-0.2,0.2-0.5,0.4-0.7s0.3-0.5,0.4-0.8c0.1,0.6,0.2,1.4,0.3,2.4
		s0.2,2,0.3,2.8C722,276,722,276.8,722,277.3z"/>
	<path class="st5" d="M734.1,279.3h-7.5c-1,0-1.8-0.2-2.4-0.5c-0.7-0.4-1.1-1.1-1.1-2.1c0-0.5,0.1-1,0.3-1.5c0.1-0.2,0.3-0.5,0.6-1
		l0.2,0.1c-0.1,0.2-0.2,0.5-0.3,0.7c-0.2,0.4-0.2,0.7-0.2,1c0,0.6,0.3,1.1,1,1.4c0.6,0.3,1.3,0.5,2.2,0.5h6.6v-0.2
		c0-0.6-0.1-1.1-0.2-1.4s-0.4-0.7-0.7-0.9l0.6-1.3c0.2,0.3,0.4,0.5,0.4,0.5c0.4,0.6,0.5,1.4,0.5,2.5L734.1,279.3L734.1,279.3z
		 M728.7,272.9l-0.6,1.1l-1.3-0.7l0.6-1.1L728.7,272.9z M730.4,272.2l-0.6,1.1l-1.3-0.7l0.6-1.1L730.4,272.2z"/>
	<path class="st5" d="M741.2,277.3c0,0.4-0.1,0.8-0.2,1.2c-0.1,0.2-0.2,0.5-0.5,1l-0.1-0.1c0-0.2,0-0.3,0-0.5s0-0.3,0-0.4
		c0-0.5,0-1.3-0.1-2.3s-0.2-2-0.3-3c-0.1-0.6-0.2-1.3-0.2-2c0.1-0.2,0.2-0.5,0.4-0.7s0.3-0.5,0.4-0.8c0.1,0.6,0.2,1.4,0.3,2.4
		s0.2,2,0.3,2.8C741.2,276,741.2,276.8,741.2,277.3z"/>
	<path class="st5" d="M750,278.3c0,0.8-0.2,1.5-0.6,2c-0.3,0.4-0.9,0.7-1.5,0.9c-0.6,0.2-1.3,0.2-2.2,0.2c-1,0-1.8-0.2-2.3-0.6
		c-0.6-0.4-0.9-1-0.9-1.8c0-0.4,0.1-0.9,0.2-1.4c0.1-0.4,0.3-0.9,0.5-1.4c0.2-0.4,0.4-0.8,0.7-1.3l0.3,0.1c-0.2,0.3-0.4,0.7-0.5,0.9
		c-0.2,0.4-0.3,0.7-0.4,1c-0.1,0.4-0.1,0.7-0.1,1c0,0.6,0.2,1.1,0.7,1.5c0.5,0.3,1.1,0.5,1.9,0.5c0.9,0,1.7-0.2,2.4-0.5
		c0.8-0.3,1.2-0.7,1.2-1.2s-0.1-1.4-0.2-2.6c-0.1-0.9-0.3-2-0.5-3.1l-0.3-1.5l-0.4-0.2c0-0.7,0.1-1.3,0.4-1.9h0.1
		c0,0.2,0.1,0.3,0.1,0.4c0.1,0.1,0.1,0.2,0.3,0.2c0.2,0.1,0.3,0.1,0.5,0.2c0.1,0.1,0.3,0.1,0.4,0.2c0,0.4,0,0.6,0,0.8
		c0,0.2-0.1,0.4-0.2,0.7l-0.4-0.1c0,0.1,0.1,0.6,0.2,1.6c0.2,1.1,0.3,2,0.4,2.6C749.9,276.9,750,277.8,750,278.3z"/>
	<path class="st5" d="M761.4,279.3h-7.5c-1,0-1.8-0.2-2.4-0.5c-0.7-0.4-1.1-1.1-1.1-2.1c0-0.5,0.1-1,0.3-1.5c0.1-0.2,0.3-0.5,0.6-1
		l0.2,0.1c-0.1,0.2-0.2,0.5-0.3,0.7c-0.2,0.4-0.2,0.7-0.2,1c0,0.6,0.3,1.1,1,1.4c0.6,0.3,1.3,0.5,2.2,0.5h6.6v-0.2
		c0-0.6-0.1-1.1-0.2-1.4s-0.4-0.7-0.7-0.9l0.6-1.3c0.2,0.3,0.4,0.5,0.4,0.5c0.4,0.6,0.5,1.4,0.5,2.5L761.4,279.3L761.4,279.3z
		 M755.9,272.9l-0.6,1.1l-1.3-0.7l0.6-1.1L755.9,272.9z M757.7,272.2l-0.6,1.1l-1.3-0.7l0.6-1.1L757.7,272.2z"/>
	<path class="st5" d="M765.2,276.2c-0.1,0-0.3,0-0.5,0s-0.3,0-0.4,0c-0.3,0-0.7,0-1.1,0.1c-0.3,0-0.6,0.1-1.1,0.2
		c0.2-0.6,0.4-1,0.6-1.1c0.4-0.4,1-0.6,2-0.6c0.3,0,1,0.1,2.1,0.2c0.5,0.1,0.9,0.1,1.3,0.1c0.2,0,0.4,0,0.7-0.1
		c0.3,0,0.5-0.1,0.7-0.1l-0.3,1.3c-1.1,0.2-2,0.4-2.8,0.6c-1.1,0.4-2,0.8-2.7,1.3c-0.8,0.6-1.2,1.4-1.2,2.3c0,1.1,0.6,2,1.8,2.5
		c1,0.5,2.4,0.7,4.1,0.7h1.4v0.1l-1.8,1.2h-0.5c-1.1,0-2.1-0.1-2.8-0.3c-0.9-0.3-1.6-0.7-2-1.2c-0.5-0.6-0.8-1.5-0.8-2.5
		c0-0.9,0.2-1.7,0.6-2.4c0.3-0.5,0.8-1,1.4-1.5C764,277,764.4,276.6,765.2,276.2z M767.4,279.6l-0.6,1.1l-1.3-0.7l0.6-1.1
		L767.4,279.6z"/>
	<path class="st5" d="M773,277.3c0,0.4-0.1,0.8-0.2,1.2c-0.1,0.2-0.2,0.5-0.5,1l-0.1-0.1c0-0.2,0-0.3,0-0.5s0-0.3,0-0.4
		c0-0.5,0-1.3-0.1-2.3s-0.2-2-0.3-3c-0.1-0.6-0.2-1.3-0.2-2c0.1-0.2,0.2-0.5,0.4-0.7s0.3-0.5,0.4-0.8c0.1,0.6,0.2,1.4,0.3,2.4
		s0.2,2,0.3,2.8C773,276,773,276.8,773,277.3z"/>
	<path class="st5" d="M781.5,279.3c0,0.6-0.2,1.2-0.7,1.8c-0.4,0.5-1,1-1.6,1.4s-1.1,0.6-1.5,0.6s-0.7-0.1-1.2-0.2
		c-0.3-0.1-0.7-0.2-1.1-0.4c-0.4-0.1-0.7-0.3-1.1-0.4l0.1-0.3c0.3,0.1,0.7,0.1,1.1,0.2c0.4,0.1,0.7,0.1,1,0.1c0.7,0,1.4-0.2,2.1-0.6
		c0.7-0.4,1.2-0.9,1.7-1.5s0.7-1.1,0.7-1.6c0-0.4-0.1-0.8-0.4-1.3c-0.2-0.4-0.5-0.7-0.8-1.1l0.4-1.2c0.4,0.4,0.7,0.8,0.9,1.2
		c0.2,0.4,0.3,0.9,0.3,1.5L781.5,279.3L781.5,279.3z"/>
	<path class="st5" d="M791.2,275.3c0,0.2,0,0.3,0,0.5s-0.1,0.3-0.1,0.4c-0.2-0.2-0.4-0.4-0.7-0.6c-0.3-0.1-0.5-0.2-0.8-0.2
		c-0.5,0-0.9,0.3-1.4,0.8s-0.7,0.9-0.7,1.2c0,0.1,0.1,0.2,0.2,0.2c0.1,0,0.3,0.1,0.6,0.1h0.6c0.4,0,0.7,0,0.8,0s0.4,0,0.6,0.1
		s0.4,0.2,0.4,0.6c0,1.3-0.6,2.3-1.7,3c-1,0.6-2.5,0.9-4.3,0.9c-0.9,0-1.6-0.2-2.1-0.5c-0.5-0.4-0.8-1-0.8-1.8
		c0-0.5,0.1-1.1,0.3-1.7c0.1-0.5,0.3-0.9,0.6-1.4c0,0,0.2-0.3,0.5-0.9l0.3,0.1c-0.3,0.6-0.6,1.1-0.8,1.6s-0.3,1-0.3,1.3
		c0,0.6,0.2,1.1,0.7,1.4c0.4,0.3,1.1,0.5,1.9,0.5c0.6,0,1.4-0.1,2.2-0.4c0.7-0.2,1.3-0.5,1.9-0.8c0.6-0.3,0.9-0.5,0.9-0.7
		c0-0.1,0-0.2-0.1-0.2s-0.2,0-0.3,0h-1.8c-0.2,0-0.4-0.1-0.6-0.2s-0.3-0.4-0.3-0.6c0-0.3,0.1-0.8,0.4-1.4c0.3-0.7,0.7-1.2,1.1-1.6
		c0.5-0.5,1.1-0.8,1.6-0.8c0.3,0,0.6,0.1,0.8,0.3C791.1,274.7,791.2,275,791.2,275.3z M786.5,283.8l-0.6,1.1l-1.3-0.7l0.6-1.1
		L786.5,283.8z M788.3,283.1l-0.6,1.1l-1.3-0.7l0.6-1.1L788.3,283.1z"/>
	<path class="st5" d="M793.6,272.7l-0.6,1.1l-1.3-0.7l0.6-1.1L793.6,272.7z M796.1,277c0,0.7-0.1,1.3-0.4,1.7c-0.4,0.6-1,0.9-2,0.9
		c-0.4,0-0.7-0.1-0.9-0.2c-0.3-0.2-0.4-0.4-0.4-0.7c0-0.4,0.1-0.8,0.3-1.3c0.2-0.4,0.3-0.8,0.5-1.2h-0.1l0.5-1.3
		c0.9,0.5,1.5,0.8,1.7,0.9C795.8,276.1,796.1,276.5,796.1,277z M795.4,277.6c0-0.2-0.3-0.5-0.9-0.8c-0.2-0.1-0.5-0.3-0.8-0.4
		c-0.2,0.3-0.4,0.4-0.4,0.5c-0.1,0.2-0.2,0.4-0.2,0.6c0,0.3,0.1,0.5,0.2,0.6s0.3,0.2,0.6,0.2s0.6-0.1,1-0.2S795.4,277.8,795.4,277.6
		z M795.4,272l-0.6,1.1l-1.3-0.7l0.6-1.1L795.4,272z"/>
</g>
<g>
	<path d="M322.4,192h-1.7c-1.6,0-3,0.2-4.2,0.5c-1.5,0.4-2.3,0.9-2.3,1.6c0,0.6,0.1,1.3,0.3,2.1s0.4,1.5,0.7,2.2s0.3,1.4,0.3,2.1
		c0,0.4,0,0.7-0.1,1s-0.1,0.7-0.3,1.2c-0.3-0.8-0.5-1.6-0.7-2.4c-0.5-1.5-0.8-2.7-1-3.5c-0.4-1.3-0.5-2-0.5-2.3
		c0-1.3,0.3-2.2,0.8-2.9s1.3-1.2,2.4-1.5c0.9-0.3,2.2-0.5,3.9-0.6c-0.6-0.6-1-1-1.1-1.1c-0.5-0.4-1-0.6-1.5-0.6
		c-0.3,0-0.6,0.1-0.9,0.3c-0.2,0.2-0.5,0.4-0.8,0.8l-0.7-0.4c0.3-0.7,0.6-1.3,1-1.8c0.6-0.7,1.3-1.1,2.2-1.1c0.6,0,1.2,0.2,1.8,0.7
		c0.5,0.4,1,0.9,1.5,1.6c0.3,0.3,0.6,0.9,1.1,1.6V192z"/>
	<path d="M343.8,192h-14c-1.9,0-3.4-0.3-4.5-1c-1.4-0.8-2.1-2.1-2.1-3.9c0-0.9,0.2-1.8,0.6-2.8c0.1-0.3,0.5-1,1.1-1.9l0.4,0.3
		c-0.2,0.4-0.4,0.9-0.6,1.3c-0.3,0.7-0.4,1.3-0.4,1.9c0,1.2,0.6,2,1.8,2.7c1.1,0.6,2.5,0.8,4.1,0.8h12.4v-0.4c0-1.1-0.1-2-0.4-2.7
		c-0.3-0.7-0.7-1.3-1.3-1.8l1.1-2.4c0.4,0.5,0.7,0.9,0.8,1c0.7,1.1,1,2.7,1,4.8V192z M335.4,195.6l-1.1,2.1l-2.4-1.2l1.1-2.1
		L335.4,195.6z"/>
	<path d="M353.9,192h-6.6c-0.6,0-1.1-0.2-1.5-0.5s-0.7-0.7-0.7-1.1c0-0.4,0-0.7,0.1-1s0.1-0.6,0.2-1h0.3c0.1,0.4,0.3,0.7,0.6,0.9
		c0.2,0.1,0.6,0.2,1,0.2h5.7c0-1.7-0.2-3.2-0.7-4.2c-0.6-1.3-1.6-2.2-3-2.7l0.2-2.8c1.7,0.8,2.9,2.2,3.6,4c0.6,1.5,0.8,3.4,0.8,5.7
		V192z"/>
	<path d="M359.3,172.3c0,0.2-0.2,0.5-0.5,0.7c-0.2,0.1-0.5,0.3-0.9,0.4l-2.7,0.9c0-0.4,0.5-0.8,1.5-1.2c-0.3-0.2-0.5-0.3-0.7-0.5
		c-0.2-0.2-0.3-0.4-0.3-0.6c0-0.3,0.3-0.7,0.8-1.3c0.6-0.6,1.1-0.9,1.5-0.9c0.2,0,0.4,0.1,0.5,0.2c0.1,0.1,0.2,0.3,0.2,0.5
		c0,0.1,0,0.3-0.1,0.4c-0.1,0.1-0.1,0.3-0.2,0.5c-0.3-0.3-0.6-0.4-1-0.4c-0.2,0-0.4,0-0.6,0.1s-0.3,0.2-0.3,0.3
		c0,0.1,0.2,0.3,0.7,0.6s0.8,0.4,1.2,0.4c0.2,0,0.4,0,0.5,0C358.8,172.5,359,172.4,359.3,172.3z M358.9,188.3c0,0.8-0.1,1.5-0.4,2.3
		c-0.1,0.4-0.5,1-1,1.9l-0.3-0.1c0-0.3,0.1-0.6,0.1-1s0-0.6,0-0.7c0-1-0.1-2.4-0.2-4.3c-0.2-1.8-0.4-3.7-0.6-5.7
		c-0.1-1.2-0.3-2.4-0.5-3.7c0.2-0.4,0.4-0.9,0.7-1.4s0.5-1,0.7-1.4c0.2,1.1,0.4,2.6,0.6,4.6s0.4,3.7,0.6,5.2
		C358.8,185.8,358.9,187.3,358.9,188.3z"/>
	<path d="M389.9,192h-14c-1.9,0-3.4-0.3-4.5-1c-1.4-0.8-2.1-2.1-2.1-3.9c0-0.9,0.2-1.8,0.6-2.8c0.1-0.3,0.5-1,1.1-1.9l0.4,0.3
		c-0.2,0.4-0.4,0.9-0.6,1.3c-0.3,0.7-0.4,1.3-0.4,1.9c0,1.2,0.6,2,1.8,2.7c1.1,0.6,2.5,0.8,4.1,0.8h12.4v-0.4c0-1.1-0.1-2-0.4-2.7
		c-0.3-0.7-0.7-1.3-1.3-1.8l1.1-2.4c0.4,0.5,0.7,0.9,0.8,1c0.7,1.1,1,2.7,1,4.8V192z M379.7,180.1l-1.1,2.1l-2.4-1.2l1.1-2.1
		L379.7,180.1z M383,178.7l-1.1,2.1l-2.4-1.2l1.1-2.1L383,178.7z"/>
	<path d="M414.5,192h-1.2c-0.6,0-1.1-0.1-1.5-0.2c-0.4-0.2-0.9-0.4-1.4-0.8c-0.4,0.4-0.8,0.6-1.1,0.7c-0.5,0.2-1.1,0.3-2,0.3h-1.8
		c0,0.9-0.2,1.8-0.6,2.6c-0.6,1.1-1.4,2-2.5,2.6c-1.4,0.8-3.2,1.2-5.4,1.2c-2,0-3.4-0.3-4.5-1c-1.1-0.8-1.7-1.9-1.7-3.5
		c0-0.8,0.1-1.7,0.3-2.5s0.5-1.7,0.8-2.6c0.2-0.5,0.6-1.3,1.1-2.4l0.6,0.3c-0.7,1.4-1.1,2.5-1.4,3.3s-0.3,1.6-0.3,2.2
		c0,1.2,0.4,2.1,1.3,2.8c0.9,0.6,2.1,0.9,3.7,0.9c1.9,0,3.5-0.3,5-1c1.8-0.8,2.8-1.9,2.8-3.4c0-1-0.2-1.9-0.5-2.8
		c-0.3-0.7-0.7-1.4-1.2-2l1.2-3c0.5,0.8,0.8,1.5,1,2.1c0.2,0.9,0.4,2.1,0.4,3.6h1.8c0.9,0,1.6-0.1,2-0.4c0.3-0.2,0.5-0.6,0.5-1.1
		c0-0.3,0-0.6-0.1-0.9s-0.1-0.6-0.2-0.9l0.6-0.9l0.2,1.4c0.2,1,0.5,1.6,0.9,2.1c0.4,0.5,1,0.7,1.7,0.7c0.2,0,0.4-0.1,0.5-0.2
		c0.1-0.1,0.2-0.3,0.2-0.5c0-0.5-0.2-1-0.5-1.6c-0.2-0.4-0.5-0.8-0.9-1.2l1-1.6c0.5,0.8,0.7,1.3,0.8,1.5c0.2,0.6,0.3,1.5,0.3,2.7
		V192z M410,180l-1.1,2.1l-2.4-1.2l1.1-2.1L410,180z M410.5,176.1l-1.1,2.1L407,177l1.1-2.1L410.5,176.1z M413.4,178.7l-1.1,2.1
		l-2.4-1.3l1.1-2.1L413.4,178.7z"/>
	<path d="M430,200.2l-3.7,2.4c-2,0-3.6-0.1-4.7-0.2c-1.9-0.3-3.4-0.8-4.5-1.7c-1.3-1.1-2-2.6-2-4.6c0-1.2,0.2-2.3,0.6-3.3
		c0.3-0.8,0.7-1.5,1.3-2.2c0.3-0.3,0.8-0.8,1.4-1.5c-0.9-0.5-1.6-0.9-1.9-1.2c-0.8-0.8-1.2-1.7-1.2-2.9c0-1,0.4-2.1,1.3-3
		c1-1.1,2.2-1.7,3.6-1.7c0.6,0,1.3,0.2,2,0.6c0.5,0.2,1.1,0.6,1.8,1.2c-1,0-1.9,0.1-2.9,0.2c-1.3,0.2-2.3,0.4-3.1,0.7
		c-1,0.4-1.5,0.8-1.5,1.4c0,0.6,0.6,1.2,1.7,1.7c0.9,0.4,2,0.8,3.2,1c1-0.5,1.9-1,2.9-1.3c1-0.4,2.1-0.8,3.2-1l-0.6,2.3
		c-2,0.8-3.5,1.4-4.4,1.8c-1.8,0.9-3.2,1.7-4.2,2.6c-1.2,1.2-1.9,2.4-1.9,3.7c0,1.4,0.5,2.5,1.6,3.3c0.9,0.7,2.2,1.2,4,1.5
		c1.4,0.2,3.2,0.3,5.3,0.3c0.5,0,0.9,0,1.4,0s0.9,0,1.4,0V200.2z M421.8,175.5l-1.1,2.1l-2.4-1.2l1.1-2.1L421.8,175.5z"/>
	<path d="M449,184.6c0,0.3,0,0.6-0.1,1c-0.1,0.3-0.1,0.6-0.1,0.7c-0.3-0.4-0.8-0.8-1.2-1s-1-0.4-1.4-0.4c-0.8,0-1.7,0.5-2.7,1.5
		c-0.9,0.9-1.3,1.6-1.3,2.2c0,0.2,0.1,0.3,0.3,0.4c0.2,0.1,0.6,0.1,1.1,0.1h1.2c0.7,0,1.2,0,1.6,0c0.3,0,0.7,0.1,1.2,0.1
		s0.7,0.4,0.7,1.1c0,2.5-1.1,4.3-3.2,5.6c-2,1.2-4.6,1.8-8,1.8c-1.7,0-3.1-0.3-4-1c-1-0.7-1.5-1.8-1.5-3.3c0-1,0.2-2.1,0.5-3.2
		c0.3-0.8,0.6-1.7,1.1-2.7c0-0.1,0.3-0.6,0.9-1.7l0.6,0.2c-0.6,1.1-1.1,2.1-1.4,3.1c-0.3,1-0.5,1.8-0.5,2.5c0,1.2,0.4,2.1,1.2,2.7
		s2,0.9,3.5,0.9c1.2,0,2.5-0.2,4.1-0.7c1.3-0.4,2.5-0.9,3.6-1.4s1.6-1,1.6-1.2c0-0.2-0.1-0.3-0.2-0.4s-0.3-0.1-0.6-0.1h-3.4
		c-0.4,0-0.8-0.2-1.1-0.5s-0.5-0.7-0.5-1.2c0-0.7,0.3-1.5,0.8-2.7c0.6-1.2,1.3-2.2,2.1-3.1c1-1,2-1.5,3-1.5c0.6,0,1.2,0.2,1.5,0.6
		S449,183.9,449,184.6z M440.1,200.4l-1.1,2.1l-2.4-1.2l1.1-2.1L440.1,200.4z M443.5,199.1l-1.1,2.1L440,200l1.1-2.1L443.5,199.1z"
		/>
	<path d="M465.2,190.2c0,1.6-0.4,2.8-1.1,3.7c-0.7,0.8-1.6,1.4-2.9,1.7c-1.1,0.3-2.4,0.4-4.1,0.4c-1.9,0-3.3-0.3-4.4-1
		c-1.1-0.8-1.7-1.9-1.7-3.4c0-0.8,0.1-1.7,0.4-2.6c0.2-0.8,0.5-1.6,0.9-2.5c0.3-0.7,0.7-1.5,1.2-2.4l0.5,0.3
		c-0.4,0.7-0.7,1.2-0.9,1.8c-0.3,0.7-0.6,1.3-0.7,1.9c-0.2,0.7-0.3,1.3-0.3,1.9c0,1.2,0.4,2.1,1.3,2.7s2.1,0.9,3.6,0.9
		c1.7,0,3.2-0.3,4.6-0.8c1.5-0.6,2.3-1.4,2.3-2.2c0-0.9-0.2-2.6-0.5-4.8c-0.2-1.7-0.5-3.7-0.9-5.8l-0.5-2.8l-0.7-0.4
		c0-1.3,0.3-2.5,0.8-3.6h0.2c0,0.4,0.1,0.6,0.2,0.8c0.1,0.2,0.3,0.3,0.5,0.4c0.3,0.1,0.6,0.3,1,0.5c0.3,0.1,0.5,0.2,0.7,0.3
		c0,0.7,0,1.2-0.1,1.5s-0.1,0.8-0.3,1.3l-0.8-0.3c0,0.2,0.2,1.2,0.4,2.9c0.3,2,0.5,3.7,0.7,5C465.1,187.6,465.2,189.1,465.2,190.2z"
		/>
	<path d="M362.4,224.3c0,0.8-0.1,1.5-0.4,2.3c-0.1,0.4-0.5,1-1,1.9l-0.3-0.1c0-0.3,0.1-0.6,0.1-1s0-0.6,0-0.7c0-1-0.1-2.4-0.2-4.3
		c-0.2-1.8-0.4-3.7-0.6-5.7c-0.1-1.2-0.3-2.4-0.5-3.7c0.2-0.4,0.4-0.9,0.7-1.4s0.5-1,0.7-1.4c0.2,1.1,0.4,2.6,0.6,4.6
		s0.4,3.7,0.6,5.2C362.3,221.8,362.4,223.3,362.4,224.3z"/>
	<path d="M378.8,226.2c0,1.6-0.4,2.8-1.1,3.7c-0.7,0.8-1.6,1.4-2.9,1.7c-1.1,0.3-2.4,0.4-4.1,0.4c-1.9,0-3.3-0.3-4.4-1
		c-1.1-0.8-1.7-1.9-1.7-3.4c0-0.8,0.1-1.7,0.4-2.6c0.2-0.8,0.5-1.6,0.9-2.5c0.3-0.7,0.7-1.5,1.2-2.4l0.5,0.3
		c-0.4,0.7-0.7,1.2-0.9,1.8c-0.3,0.7-0.6,1.3-0.7,1.9c-0.2,0.7-0.3,1.3-0.3,1.9c0,1.2,0.4,2.1,1.3,2.7s2.1,0.9,3.6,0.9
		c1.7,0,3.2-0.3,4.6-0.8c1.5-0.6,2.3-1.4,2.3-2.2c0-0.9-0.2-2.6-0.5-4.8c-0.2-1.7-0.5-3.7-0.9-5.8l-0.5-2.8l-0.7-0.4
		c0-1.3,0.3-2.5,0.8-3.6h0.2c0,0.4,0.1,0.6,0.2,0.8c0.1,0.2,0.3,0.3,0.5,0.4c0.3,0.1,0.6,0.3,1,0.5c0.3,0.1,0.5,0.2,0.7,0.3
		c0,0.7,0,1.2-0.1,1.5s-0.1,0.8-0.3,1.3l-0.8-0.3c0,0.2,0.2,1.2,0.4,2.9c0.3,2,0.5,3.7,0.7,5C378.7,223.6,378.8,225.1,378.8,226.2z"
		/>
	<path d="M394.6,228c0,2.2-0.6,3.8-1.9,4.8c-1.4,1.1-3.6,1.7-6.7,1.7c-2,0-3.4-0.3-4.5-1c-1.1-0.8-1.7-1.9-1.7-3.5
		c0-0.8,0.1-1.7,0.3-2.5s0.5-1.7,0.8-2.6c0.2-0.5,0.6-1.3,1.1-2.4l0.6,0.3c-0.7,1.4-1.1,2.5-1.4,3.3s-0.3,1.6-0.3,2.2
		c0,1.2,0.4,2.1,1.3,2.8c0.9,0.6,2.1,0.9,3.7,0.9c1.8,0,3.5-0.3,4.9-1c1.8-0.8,2.7-1.9,2.7-3.4c0-1-0.1-1.9-0.4-2.8
		c-0.3-0.8-0.6-1.4-1.1-2l1.2-3c0.5,0.8,0.9,1.6,1.1,2.4s0.3,1.9,0.3,3.3V228z M389.2,216.8l-1.1,2.1l-2.4-1.2l1.1-2.1L389.2,216.8z
		"/>
	<path d="M412,228h-18.5v-2.5l2.2,0c0.7,0,1.3-0.1,1.9-0.3c0.7-0.2,1.4-0.6,2.3-1.1c0.2-0.4,0.3-0.9,0.4-1.4c0.1-0.5,0.2-1,0.2-1.4
		c0-1-0.1-2.2-0.3-3.5c-0.1-0.9-0.4-2-0.7-3.2c-0.2-0.6-0.4-1.4-0.6-2.4l-0.9-0.5c0.1-0.6,0.2-1.2,0.3-1.7s0.3-1.1,0.5-1.6
		c0.2,0.5,0.5,0.8,1.1,1.1c0.5,0.2,1,0.3,1.8,0.4c-0.1,1-0.2,1.6-0.2,1.9s-0.1,0.6-0.3,1c-0.1,0-0.2-0.1-0.5-0.1l-0.2-0.1
		c0.3,1.1,0.6,2.3,0.8,3.5s0.3,2.2,0.3,3c0,0.7-0.1,1.5-0.2,2.3c0,0.3-0.1,0.8-0.3,1.4c1.7-1,2.8-1.6,3.3-1.8c1.4-0.7,2.7-1,3.7-1
		c1.3,0,2.3,0.4,3,1.2c0.6,0.7,0.9,1.7,0.9,3V228z M409.7,224.3c0-0.5-0.3-0.9-0.8-1.1s-1.2-0.4-2.2-0.4c-0.7,0-1.5,0.2-2.5,0.5
		c-0.8,0.3-1.6,0.6-2.4,1.1c-0.6,0.3-1.3,0.7-2,1.1h6.4C408.6,225.5,409.7,225.1,409.7,224.3z M408.1,214.4l-1.1,2.1l-2.4-1.2
		l1.1-2.1L408.1,214.4z"/>
	<path d="M417,224.3c0,0.8-0.1,1.5-0.4,2.3c-0.1,0.4-0.5,1-1,1.9l-0.3-0.1c0-0.3,0.1-0.6,0.1-1s0-0.6,0-0.7c0-1-0.1-2.4-0.2-4.3
		c-0.2-1.8-0.4-3.7-0.6-5.7c-0.1-1.2-0.3-2.4-0.5-3.7c0.2-0.4,0.4-0.9,0.7-1.4s0.5-1,0.7-1.4c0.2,1.1,0.4,2.6,0.6,4.6
		s0.4,3.7,0.6,5.2C416.9,221.8,417,223.3,417,224.3z"/>
	<path d="M428.4,228h-1.7c-1.6,0-3,0.2-4.2,0.5c-1.5,0.4-2.3,0.9-2.3,1.6c0,0.6,0.1,1.3,0.3,2.1s0.4,1.5,0.7,2.2s0.3,1.4,0.3,2.1
		c0,0.4,0,0.7-0.1,1s-0.1,0.7-0.3,1.2c-0.3-0.8-0.5-1.6-0.7-2.4c-0.5-1.5-0.8-2.7-1-3.5c-0.4-1.3-0.5-2-0.5-2.3
		c0-1.3,0.3-2.2,0.8-2.9s1.3-1.2,2.4-1.5c0.9-0.3,2.2-0.5,3.9-0.6c-0.6-0.6-1-1-1.1-1.1c-0.5-0.4-1-0.6-1.5-0.6
		c-0.3,0-0.6,0.1-0.9,0.3c-0.2,0.2-0.5,0.4-0.8,0.8l-0.7-0.4c0.3-0.7,0.6-1.3,1-1.8c0.6-0.7,1.3-1.1,2.2-1.1c0.6,0,1.2,0.2,1.8,0.7
		c0.5,0.4,1,0.9,1.5,1.6c0.3,0.3,0.6,0.9,1.1,1.6V228z"/>
</g>
</svg>
