<?xml version="1.0" encoding="utf-8"?>
<!-- Generator: Adobe Illustrator 23.0.0, SVG Export Plug-In . SVG Version: 6.00 Build 0)  -->
<svg version="1.1" id="组_2" xmlns="http://www.w3.org/2000/svg" xmlns:xlink="http://www.w3.org/1999/xlink" x="0px" y="0px"
	 viewBox="0 0 678 253" style="enable-background:new 0 0 678 253;" xml:space="preserve">
<style type="text/css">
	.st0{enable-background:new    ;}
	.st1{fill:#D6D6D6;}
	.st2{fill:#0E0E0E;}
	.st3{fill:#0EAFA0;}
	.st4{fill:#CDBB78;}
	.st5{fill:#EC632F;}
	.st6{font-family:'TimesNewRomanPSMT';}
	.st7{font-size:12px;}
</style>
<g id="_2.0_" class="st0">
	<path d="M13.6,187.6c0-0.6-0.2-1-0.5-1.4c-0.4-0.3-0.9-0.5-1.5-0.5c-0.4,0-0.9,0.1-1.3,0.3c-0.5,0.2-0.9,0.5-1.3,1v-1.3
		c0.3-0.4,0.7-0.6,1.2-0.8c0.4-0.2,1-0.3,1.6-0.3c1,0,1.7,0.3,2.3,0.8s0.9,1.2,0.9,2.1c0,0.8-0.2,1.5-0.5,2c-0.4,0.6-1,1.2-1.9,1.8
		s-1.5,1.1-1.8,1.3c-0.3,0.3-0.5,0.5-0.6,0.8c-0.1,0.2-0.2,0.5-0.2,0.9h5.3v1.2H8.6V195c0-0.6,0.1-1.1,0.3-1.6
		c0.2-0.4,0.4-0.8,0.8-1.3c0.4-0.4,1-0.9,1.8-1.5s1.4-1.1,1.7-1.5C13.5,188.7,13.6,188.2,13.6,187.6z"/>
	<path d="M16.9,194.8c0-0.2,0.1-0.5,0.3-0.6c0.2-0.2,0.4-0.3,0.6-0.3c0.3,0,0.5,0.1,0.6,0.3c0.2,0.2,0.3,0.4,0.3,0.6
		c0,0.2-0.1,0.4-0.3,0.6c-0.2,0.2-0.4,0.3-0.6,0.3c-0.3,0-0.5-0.1-0.6-0.3C16.9,195.2,16.9,195,16.9,194.8z"/>
	<path d="M20.1,190.4c0-1.9,0.3-3.3,0.9-4.3s1.5-1.5,2.7-1.5c2.3,0,3.4,1.8,3.4,5.5c0,1.8-0.3,3.2-1,4.1c-0.6,1-1.5,1.4-2.7,1.4
		c-1.1,0-1.9-0.5-2.5-1.4C20.4,193.4,20.1,192.1,20.1,190.4z M21.4,190.3c0,2.8,0.7,4.3,2.2,4.3c1.4,0,2.1-1.4,2.1-4.3
		c0-3-0.7-4.5-2.1-4.5S21.4,187.3,21.4,190.3z"/>
	<path d="M28.3,187.5c0-0.9,0.2-1.6,0.7-2.1s1.1-0.8,1.9-0.8s1.4,0.2,1.8,0.7s0.6,1.1,0.6,2c0,0.8-0.2,1.5-0.7,2s-1.1,0.8-1.9,0.8
		c-0.7,0-1.3-0.2-1.8-0.7C28.5,189,28.3,188.3,28.3,187.5z M29.4,187.4c0,0.6,0.1,1.1,0.4,1.4c0.3,0.3,0.6,0.5,1.1,0.5
		s0.8-0.2,1.1-0.5c0.3-0.3,0.4-0.8,0.4-1.4c0-0.6-0.1-1.1-0.4-1.4c-0.2-0.3-0.6-0.5-1-0.5c-0.5,0-0.8,0.2-1.1,0.5
		C29.5,186.4,29.4,186.8,29.4,187.4z M38,184.8l-6.9,10.8H30l6.9-10.8H38z M34.7,193c0-0.9,0.2-1.6,0.7-2.1s1.1-0.8,1.9-0.8
		c0.8,0,1.3,0.2,1.8,0.7c0.4,0.5,0.6,1.1,0.6,2c0,0.8-0.2,1.5-0.7,2s-1.1,0.8-1.9,0.8c-0.7,0-1.3-0.2-1.8-0.7
		C34.9,194.4,34.7,193.8,34.7,193z M35.8,192.9c0,0.6,0.1,1,0.4,1.4c0.3,0.3,0.6,0.5,1.1,0.5s0.8-0.2,1.1-0.5s0.4-0.8,0.4-1.4
		c0-0.6-0.1-1.1-0.4-1.4c-0.3-0.3-0.6-0.5-1-0.5c-0.5,0-0.8,0.2-1.1,0.5C35.9,191.9,35.8,192.3,35.8,192.9z"/>
</g>
<g id="_4.0_" class="st0">
	<path d="M14.2,157.2v7.1h1.6v1.1h-1.6v2.5h-1.3v-2.5h-5v-1.1c0.9-1,1.8-2.1,2.7-3.4c0.9-1.3,1.6-2.5,2.2-3.7L14.2,157.2L14.2,157.2
		z M9.4,164.3h3.5v-5.1c-0.5,0.9-1,1.7-1.5,2.5C10.8,162.5,10.1,163.3,9.4,164.3z"/>
	<path d="M16.9,167.2c0-0.2,0.1-0.5,0.3-0.6c0.2-0.2,0.4-0.3,0.6-0.3c0.3,0,0.5,0.1,0.6,0.3c0.2,0.2,0.3,0.4,0.3,0.6
		c0,0.2-0.1,0.4-0.3,0.6c-0.2,0.2-0.4,0.3-0.6,0.3c-0.3,0-0.5-0.1-0.6-0.3C16.9,167.6,16.9,167.4,16.9,167.2z"/>
	<path d="M20.1,162.8c0-1.9,0.3-3.3,0.9-4.3s1.5-1.5,2.7-1.5c2.3,0,3.4,1.8,3.4,5.5c0,1.8-0.3,3.2-1,4.1c-0.6,1-1.5,1.4-2.7,1.4
		c-1.1,0-1.9-0.5-2.5-1.4C20.4,165.8,20.1,164.5,20.1,162.8z M21.4,162.7c0,2.8,0.7,4.3,2.2,4.3c1.4,0,2.1-1.4,2.1-4.3
		c0-3-0.7-4.5-2.1-4.5S21.4,159.7,21.4,162.7z"/>
	<path d="M28.3,159.9c0-0.9,0.2-1.6,0.7-2.1s1.1-0.8,1.9-0.8s1.4,0.2,1.8,0.7s0.6,1.1,0.6,2c0,0.8-0.2,1.5-0.7,2s-1.1,0.8-1.9,0.8
		c-0.7,0-1.3-0.2-1.8-0.7C28.5,161.4,28.3,160.7,28.3,159.9z M29.4,159.8c0,0.6,0.1,1.1,0.4,1.4c0.3,0.3,0.6,0.5,1.1,0.5
		s0.8-0.2,1.1-0.5c0.3-0.3,0.4-0.8,0.4-1.4c0-0.6-0.1-1.1-0.4-1.4c-0.2-0.3-0.6-0.5-1-0.5c-0.5,0-0.8,0.2-1.1,0.5
		C29.5,158.8,29.4,159.2,29.4,159.8z M38,157.2L31.1,168H30l6.9-10.8H38z M34.7,165.4c0-0.9,0.2-1.6,0.7-2.1s1.1-0.8,1.9-0.8
		c0.8,0,1.3,0.2,1.8,0.7c0.4,0.5,0.6,1.1,0.6,2c0,0.8-0.2,1.5-0.7,2s-1.1,0.8-1.9,0.8c-0.7,0-1.3-0.2-1.8-0.7
		C34.9,166.8,34.7,166.2,34.7,165.4z M35.8,165.3c0,0.6,0.1,1,0.4,1.4c0.3,0.3,0.6,0.5,1.1,0.5s0.8-0.2,1.1-0.5s0.4-0.8,0.4-1.4
		c0-0.6-0.1-1.1-0.4-1.4c-0.3-0.3-0.6-0.5-1-0.5c-0.5,0-0.8,0.2-1.1,0.5C35.9,164.3,35.8,164.7,35.8,165.3z"/>
</g>
<g id="_6.0_" class="st0">
	<path d="M14.8,128.4c-0.6-0.3-1.1-0.4-1.7-0.4c-0.9,0-1.7,0.4-2.2,1.2c-0.6,0.8-0.8,1.9-0.9,3.3l0,0c0.5-1,1.3-1.5,2.4-1.5
		c0.9,0,1.7,0.3,2.2,0.9s0.8,1.4,0.8,2.4s-0.3,1.9-1,2.6c-0.6,0.7-1.4,1-2.4,1c-1.1,0-1.9-0.4-2.6-1.3c-0.6-0.8-0.9-2.1-0.9-3.6
		c0-1.9,0.4-3.4,1.2-4.5c0.8-1.1,1.9-1.7,3.2-1.7c0.8,0,1.4,0.1,1.8,0.3L14.8,128.4L14.8,128.4z M10,134.2c0,0.7,0.2,1.3,0.6,1.8
		c0.4,0.5,0.9,0.8,1.5,0.8s1.1-0.2,1.4-0.6c0.4-0.4,0.6-1,0.6-1.7s-0.2-1.3-0.5-1.7s-0.8-0.6-1.5-0.6c-0.6,0-1.1,0.2-1.5,0.6
		C10.2,133.2,10,133.7,10,134.2z"/>
	<path d="M16.9,137c0-0.2,0.1-0.5,0.3-0.6c0.2-0.2,0.4-0.3,0.6-0.3c0.3,0,0.5,0.1,0.6,0.3c0.2,0.2,0.3,0.4,0.3,0.6
		c0,0.2-0.1,0.4-0.3,0.6c-0.2,0.2-0.4,0.3-0.6,0.3c-0.3,0-0.5-0.1-0.6-0.3C16.9,137.4,16.9,137.2,16.9,137z"/>
	<path d="M20.1,132.6c0-1.9,0.3-3.3,0.9-4.3s1.5-1.5,2.7-1.5c2.3,0,3.4,1.8,3.4,5.5c0,1.8-0.3,3.2-1,4.1c-0.6,1-1.5,1.4-2.7,1.4
		c-1.1,0-1.9-0.5-2.5-1.4C20.4,135.6,20.1,134.3,20.1,132.6z M21.4,132.5c0,2.8,0.7,4.3,2.2,4.3c1.4,0,2.1-1.4,2.1-4.3
		c0-3-0.7-4.5-2.1-4.5S21.4,129.5,21.4,132.5z"/>
	<path d="M28.3,129.7c0-0.9,0.2-1.6,0.7-2.1c0.5-0.5,1.1-0.8,1.9-0.8s1.4,0.2,1.8,0.7s0.6,1.1,0.6,2c0,0.8-0.2,1.5-0.7,2
		s-1.1,0.8-1.9,0.8c-0.7,0-1.3-0.2-1.8-0.7C28.5,131.2,28.3,130.5,28.3,129.7z M29.4,129.7c0,0.6,0.1,1.1,0.4,1.4
		c0.3,0.3,0.6,0.5,1.1,0.5s0.8-0.2,1.1-0.5c0.3-0.3,0.4-0.8,0.4-1.4c0-0.6-0.1-1.1-0.4-1.4c-0.2-0.3-0.6-0.5-1-0.5
		c-0.5,0-0.8,0.2-1.1,0.5C29.5,128.6,29.4,129.1,29.4,129.7z M38,127l-6.9,10.8H30l6.9-10.8H38z M34.7,135.2c0-0.9,0.2-1.6,0.7-2.1
		s1.1-0.8,1.9-0.8c0.8,0,1.3,0.2,1.8,0.7c0.4,0.5,0.6,1.1,0.6,2c0,0.8-0.2,1.5-0.7,2s-1.1,0.8-1.9,0.8c-0.7,0-1.3-0.2-1.8-0.7
		C34.9,136.6,34.7,136,34.7,135.2z M35.8,135.1c0,0.6,0.1,1,0.4,1.4c0.3,0.3,0.6,0.5,1.1,0.5s0.8-0.2,1.1-0.5s0.4-0.8,0.4-1.4
		c0-0.6-0.1-1.1-0.4-1.4c-0.3-0.3-0.6-0.5-1-0.5c-0.5,0-0.8,0.2-1.1,0.5C35.9,134.1,35.8,134.5,35.8,135.1z"/>
</g>
<g id="_8.0_" class="st0">
	<path d="M8.4,102c0-0.6,0.2-1.2,0.6-1.7c0.4-0.5,0.8-0.9,1.4-1.1c-0.5-0.3-0.8-0.6-1.1-1s-0.4-0.9-0.4-1.3c0-0.5,0.1-1,0.4-1.4
		c0.3-0.4,0.6-0.7,1.1-1c0.5-0.2,1-0.4,1.5-0.4c0.6,0,1.1,0.1,1.5,0.4c0.5,0.2,0.8,0.6,1.1,1s0.4,0.9,0.4,1.4s-0.1,0.9-0.4,1.3
		c-0.3,0.4-0.6,0.8-1.1,1c0.6,0.2,1.1,0.6,1.4,1.1c0.4,0.5,0.5,1.1,0.5,1.7s-0.1,1.2-0.4,1.6c-0.3,0.5-0.7,0.9-1.2,1.1
		c-0.5,0.3-1.1,0.4-1.8,0.4s-1.3-0.1-1.8-0.4s-0.9-0.6-1.2-1.1C8.6,103.1,8.4,102.6,8.4,102z M9.8,101.9c0,0.6,0.2,1.1,0.6,1.5
		c0.4,0.4,0.9,0.6,1.6,0.6c0.6,0,1.2-0.2,1.6-0.6c0.4-0.4,0.6-0.9,0.6-1.5s-0.2-1.1-0.6-1.5c-0.4-0.4-0.9-0.6-1.5-0.6
		s-1.1,0.2-1.5,0.6C10,100.8,9.8,101.3,9.8,101.9z M10.1,96.9c0,0.5,0.2,0.9,0.5,1.2c0.3,0.3,0.8,0.5,1.2,0.5c0.5,0,0.9-0.2,1.3-0.5
		s0.5-0.8,0.5-1.2c0-0.5-0.2-0.9-0.5-1.2s-0.8-0.5-1.3-0.5s-0.9,0.2-1.3,0.5C10.3,96,10.1,96.5,10.1,96.9z"/>
	<path d="M16.9,104.3c0-0.2,0.1-0.5,0.3-0.6c0.2-0.2,0.4-0.3,0.6-0.3c0.3,0,0.5,0.1,0.6,0.3c0.2,0.2,0.3,0.4,0.3,0.6
		s-0.1,0.4-0.3,0.6c-0.2,0.2-0.4,0.3-0.6,0.3c-0.3,0-0.5-0.1-0.6-0.3C16.9,104.7,16.9,104.5,16.9,104.3z"/>
	<path d="M20.1,99.8c0-1.9,0.3-3.3,0.9-4.3s1.5-1.5,2.7-1.5c2.3,0,3.4,1.8,3.4,5.5c0,1.8-0.3,3.2-1,4.1c-0.6,1-1.5,1.4-2.7,1.4
		c-1.1,0-1.9-0.5-2.5-1.4C20.4,102.9,20.1,101.6,20.1,99.8z M21.4,99.8c0,2.8,0.7,4.3,2.2,4.3c1.4,0,2.1-1.4,2.1-4.3
		c0-3-0.7-4.5-2.1-4.5C22.2,95.2,21.4,96.7,21.4,99.8z"/>
	<path d="M28.3,97c0-0.9,0.2-1.6,0.7-2.1s1.1-0.8,1.9-0.8s1.4,0.2,1.8,0.7s0.6,1.1,0.6,2c0,0.8-0.2,1.5-0.7,2s-1.1,0.8-1.9,0.8
		c-0.7,0-1.3-0.2-1.8-0.7C28.5,98.4,28.3,97.8,28.3,97z M29.4,96.9c0,0.6,0.1,1.1,0.4,1.4s0.6,0.5,1.1,0.5s0.8-0.2,1.1-0.5
		c0.3-0.3,0.4-0.8,0.4-1.4s-0.1-1.1-0.4-1.4c-0.2-0.3-0.6-0.5-1-0.5c-0.5,0-0.8,0.2-1.1,0.5C29.5,95.8,29.4,96.3,29.4,96.9z
		 M38,94.3L31.1,105H30l6.9-10.8H38V94.3z M34.7,102.5c0-0.9,0.2-1.6,0.7-2.1s1.1-0.8,1.9-0.8c0.8,0,1.3,0.2,1.8,0.7
		c0.4,0.5,0.6,1.1,0.6,2c0,0.8-0.2,1.5-0.7,2s-1.1,0.8-1.9,0.8c-0.7,0-1.3-0.2-1.8-0.7C34.9,103.9,34.7,103.3,34.7,102.5z
		 M35.8,102.4c0,0.6,0.1,1,0.4,1.4c0.3,0.3,0.6,0.5,1.1,0.5s0.8-0.2,1.1-0.5s0.4-0.8,0.4-1.4s-0.1-1.1-0.4-1.4
		c-0.3-0.3-0.6-0.5-1-0.5c-0.5,0-0.8,0.2-1.1,0.5C35.9,101.3,35.8,101.8,35.8,102.4z"/>
</g>
<g id="_10.0_" class="st0">
	<path d="M4.3,72.2v-9.1c-0.2,0.2-0.6,0.4-1.1,0.7s-1,0.4-1.4,0.6V63c0.6-0.2,1.2-0.4,1.8-0.7s1.1-0.7,1.5-1h0.5v10.9H4.3z"/>
	<path d="M9.3,67.1c0-1.9,0.3-3.3,0.9-4.3c0.6-1,1.5-1.5,2.7-1.5c2.3,0,3.4,1.8,3.4,5.5c0,1.8-0.3,3.2-1,4.1c-0.6,1-1.5,1.4-2.7,1.4
		c-1.1,0-1.9-0.5-2.5-1.4C9.6,70.1,9.3,68.8,9.3,67.1z M10.7,67c0,2.8,0.7,4.3,2.2,4.3c1.4,0,2.1-1.4,2.1-4.3c0-3-0.7-4.5-2.1-4.5
		C11.4,62.5,10.7,64,10.7,67z"/>
	<path d="M17.8,71.5c0-0.2,0.1-0.5,0.3-0.6c0.2-0.2,0.4-0.3,0.6-0.3c0.3,0,0.5,0.1,0.6,0.3c0.2,0.2,0.3,0.4,0.3,0.6
		s-0.1,0.4-0.3,0.6c-0.2,0.2-0.4,0.3-0.6,0.3c-0.3,0-0.5-0.1-0.6-0.3C17.9,72,17.8,71.8,17.8,71.5z"/>
	<path d="M21,67.1c0-1.9,0.3-3.3,0.9-4.3s1.5-1.5,2.7-1.5c2.3,0,3.4,1.8,3.4,5.5c0,1.8-0.3,3.2-1,4.1c-0.6,1-1.5,1.4-2.7,1.4
		c-1.1,0-1.9-0.5-2.5-1.4C21.3,70.1,21,68.8,21,67.1z M22.4,67c0,2.8,0.7,4.3,2.2,4.3c1.4,0,2.1-1.4,2.1-4.3c0-3-0.7-4.5-2.1-4.5
		C23.1,62.5,22.4,64,22.4,67z"/>
	<path d="M29.3,64.2c0-0.9,0.2-1.6,0.7-2.1s1.1-0.8,1.9-0.8c0.8,0,1.4,0.2,1.8,0.7s0.6,1.1,0.6,2c0,0.8-0.2,1.5-0.7,2
		s-1.1,0.8-1.9,0.8c-0.7,0-1.3-0.2-1.8-0.7C29.5,65.7,29.3,65,29.3,64.2z M30.3,64.2c0,0.6,0.1,1.1,0.4,1.4s0.6,0.5,1.1,0.5
		s0.8-0.2,1.1-0.5s0.4-0.8,0.4-1.4s-0.1-1.1-0.4-1.4c-0.2-0.3-0.6-0.5-1-0.5c-0.5,0-0.8,0.2-1.1,0.5C30.5,63.1,30.3,63.6,30.3,64.2z
		 M38.9,61.5L32,72.3h-1.2l6.9-10.8C37.7,61.5,38.9,61.5,38.9,61.5z M35.7,69.7c0-0.9,0.2-1.6,0.7-2.1s1.1-0.8,1.9-0.8
		c0.8,0,1.3,0.2,1.8,0.7c0.4,0.5,0.6,1.1,0.6,2c0,0.8-0.2,1.5-0.7,2s-1.1,0.8-1.9,0.8c-0.7,0-1.3-0.2-1.8-0.7
		C35.9,71.2,35.7,70.5,35.7,69.7z M36.7,69.7c0,0.6,0.1,1,0.4,1.4c0.3,0.3,0.6,0.5,1.1,0.5s0.8-0.2,1.1-0.5s0.4-0.8,0.4-1.4
		s-0.1-1.1-0.4-1.4c-0.3-0.3-0.6-0.5-1-0.5c-0.5,0-0.8,0.2-1.1,0.5C36.8,68.6,36.7,69.1,36.7,69.7z"/>
</g>
<g id="_12.0_" class="st0">
	<path d="M4.3,41.4v-9.1c-0.2,0.2-0.6,0.4-1.1,0.7s-1,0.4-1.4,0.6v-1.3c0.6-0.2,1.2-0.4,1.8-0.7c0.6-0.3,1.1-0.7,1.5-1h0.5v10.9
		L4.3,41.4L4.3,41.4z"/>
	<path d="M14.6,33.5c0-0.6-0.2-1-0.5-1.4c-0.4-0.3-0.9-0.5-1.5-0.5c-0.4,0-0.9,0.1-1.3,0.3c-0.5,0.2-0.9,0.5-1.3,1v-1.3
		c0.3-0.4,0.7-0.6,1.2-0.8c0.4-0.2,1-0.3,1.6-0.3c1,0,1.7,0.3,2.3,0.8s0.9,1.2,0.9,2.1c0,0.8-0.2,1.5-0.5,2c-0.4,0.6-1,1.2-1.9,1.8
		s-1.5,1.1-1.8,1.3c-0.3,0.3-0.5,0.5-0.6,0.8c-0.1,0.2-0.2,0.5-0.2,0.9h5.3v1.2H9.5v-0.5c0-0.6,0.1-1.1,0.3-1.6
		c0.2-0.4,0.4-0.8,0.8-1.3c0.4-0.4,1-0.9,1.8-1.5s1.4-1.1,1.7-1.5C14.4,34.6,14.6,34.1,14.6,33.5z"/>
	<path d="M17.8,40.7c0-0.2,0.1-0.5,0.3-0.6c0.2-0.2,0.4-0.3,0.6-0.3c0.3,0,0.5,0.1,0.6,0.3c0.2,0.2,0.3,0.4,0.3,0.6
		c0,0.2-0.1,0.4-0.3,0.6c-0.2,0.2-0.4,0.3-0.6,0.3c-0.3,0-0.5-0.1-0.6-0.3C17.9,41.1,17.8,40.9,17.8,40.7z"/>
	<path d="M21,36.3c0-1.9,0.3-3.3,0.9-4.3s1.5-1.5,2.7-1.5c2.3,0,3.4,1.8,3.4,5.5c0,1.8-0.3,3.2-1,4.1c-0.6,1-1.5,1.4-2.7,1.4
		c-1.1,0-1.9-0.5-2.5-1.4C21.3,39.3,21,38,21,36.3z M22.4,36.2c0,2.8,0.7,4.3,2.2,4.3c1.4,0,2.1-1.4,2.1-4.3c0-3-0.7-4.5-2.1-4.5
		C23.1,31.7,22.4,33.2,22.4,36.2z"/>
	<path d="M29.3,33.4c0-0.9,0.2-1.6,0.7-2.1s1.1-0.8,1.9-0.8c0.8,0,1.4,0.2,1.8,0.7s0.6,1.1,0.6,2c0,0.8-0.2,1.5-0.7,2
		S32.5,36,31.7,36c-0.7,0-1.3-0.2-1.8-0.7C29.5,34.9,29.3,34.2,29.3,33.4z M30.3,33.4c0,0.6,0.1,1.1,0.4,1.4
		c0.3,0.3,0.6,0.5,1.1,0.5s0.8-0.2,1.1-0.5s0.4-0.8,0.4-1.4c0-0.6-0.1-1.1-0.4-1.4c-0.2-0.3-0.6-0.5-1-0.5c-0.5,0-0.8,0.2-1.1,0.5
		C30.5,32.3,30.3,32.7,30.3,33.4z M38.9,30.7L32,41.5h-1.2l6.9-10.8H38.9z M35.7,38.9c0-0.9,0.2-1.6,0.7-2.1s1.1-0.8,1.9-0.8
		c0.8,0,1.3,0.2,1.8,0.7c0.4,0.5,0.6,1.1,0.6,2c0,0.8-0.2,1.5-0.7,2s-1.1,0.8-1.9,0.8c-0.7,0-1.3-0.2-1.8-0.7
		C35.9,40.3,35.7,39.7,35.7,38.9z M36.7,38.8c0,0.6,0.1,1,0.4,1.4c0.3,0.3,0.6,0.5,1.1,0.5s0.8-0.2,1.1-0.5s0.4-0.8,0.4-1.4
		c0-0.6-0.1-1.1-0.4-1.4c-0.3-0.3-0.6-0.5-1-0.5c-0.5,0-0.8,0.2-1.1,0.5C36.8,37.8,36.7,38.2,36.7,38.8z"/>
</g>
<g id="线">
	<rect id="矩形_863_拷贝_2" x="47.3" y="194.8" class="st1" width="136.1" height="1.3"/>
	<rect id="矩形_863_拷贝_3" x="47.3" y="162" class="st1" width="136.1" height="1.3"/>
	<rect id="矩形_863_拷贝_4" x="47.3" y="129.3" class="st1" width="136.1" height="1.3"/>
	<rect id="矩形_863_拷贝_5" x="47.3" y="97.2" class="st1" width="136.1" height="1.3"/>
	<rect id="矩形_863_拷贝_5-2" x="47.3" y="64.5" class="st1" width="136.1" height="1.3"/>
	<rect id="矩形_863_拷贝_5-3" x="47.3" y="31.7" class="st1" width="136.1" height="1.3"/>
	<rect id="矩形_863" x="47.3" y="29.8" class="st2" width="1.3" height="200.3"/>
</g>
<rect id="矩形_864" x="67.2" y="64.5" class="st3" width="29.5" height="164.4"/>
<rect id="矩形_864_拷贝" x="96.7" y="129.3" class="st4" width="29.5" height="99.5"/>
<rect id="矩形_864_拷贝_2" x="126.2" y="184.5" class="st5" width="29.5" height="44.3"/>
<rect id="矩形_863_拷贝" x="47.3" y="228.8" class="st2" width="136.1" height="1.3"/>
<g id="_2">
	<g id="_2.0_2" class="st0">
		<path d="M215.7,187.6c0-0.6-0.2-1-0.5-1.4c-0.4-0.3-0.9-0.5-1.5-0.5c-0.4,0-0.9,0.1-1.3,0.3c-0.5,0.2-0.9,0.5-1.3,1v-1.3
			c0.3-0.4,0.7-0.6,1.2-0.8c0.4-0.2,1-0.3,1.6-0.3c1,0,1.7,0.3,2.3,0.8s0.9,1.2,0.9,2.1c0,0.8-0.2,1.5-0.5,2c-0.4,0.6-1,1.2-1.9,1.8
			s-1.5,1.1-1.8,1.3c-0.3,0.3-0.5,0.5-0.6,0.8c-0.1,0.2-0.2,0.5-0.2,0.9h5.3v1.2h-6.7V195c0-0.6,0.1-1.1,0.3-1.6
			c0.2-0.4,0.4-0.8,0.8-1.3c0.4-0.4,1-0.9,1.8-1.5s1.4-1.1,1.7-1.5S215.7,188.2,215.7,187.6z"/>
		<path d="M219,194.8c0-0.2,0.1-0.5,0.3-0.6c0.2-0.2,0.4-0.3,0.6-0.3c0.3,0,0.5,0.1,0.6,0.3c0.2,0.2,0.3,0.4,0.3,0.6
			c0,0.2-0.1,0.4-0.3,0.6c-0.2,0.2-0.4,0.3-0.6,0.3c-0.3,0-0.5-0.1-0.6-0.3C219.1,195.2,219,195,219,194.8z"/>
		<path d="M222.2,190.4c0-1.9,0.3-3.3,0.9-4.3c0.6-1,1.5-1.5,2.7-1.5c2.3,0,3.4,1.8,3.4,5.5c0,1.8-0.3,3.2-1,4.1
			c-0.6,1-1.5,1.4-2.7,1.4c-1.1,0-1.9-0.5-2.5-1.4C222.5,193.4,222.2,192.1,222.2,190.4z M223.5,190.3c0,2.8,0.7,4.3,2.2,4.3
			c1.4,0,2.1-1.4,2.1-4.3c0-3-0.7-4.5-2.1-4.5C224.3,185.8,223.5,187.3,223.5,190.3z"/>
		<path d="M230.4,187.5c0-0.9,0.2-1.6,0.7-2.1s1.1-0.8,1.9-0.8c0.8,0,1.4,0.2,1.8,0.7c0.4,0.5,0.6,1.1,0.6,2c0,0.8-0.2,1.5-0.7,2
			s-1.1,0.8-1.9,0.8c-0.7,0-1.3-0.2-1.8-0.7C230.7,189,230.4,188.3,230.4,187.5z M231.5,187.4c0,0.6,0.1,1.1,0.4,1.4
			c0.3,0.3,0.6,0.5,1.1,0.5s0.8-0.2,1.1-0.5s0.4-0.8,0.4-1.4c0-0.6-0.1-1.1-0.4-1.4c-0.2-0.3-0.6-0.5-1-0.5c-0.5,0-0.8,0.2-1.1,0.5
			C231.6,186.4,231.5,186.8,231.5,187.4z M240.1,184.8l-6.9,10.8H232l6.9-10.8H240.1z M236.8,193c0-0.9,0.2-1.6,0.7-2.1
			s1.1-0.8,1.9-0.8c0.8,0,1.3,0.2,1.8,0.7c0.4,0.5,0.6,1.1,0.6,2c0,0.8-0.2,1.5-0.7,2s-1.1,0.8-1.9,0.8c-0.7,0-1.3-0.2-1.8-0.7
			C237.1,194.4,236.8,193.8,236.8,193z M237.9,192.9c0,0.6,0.1,1,0.4,1.4c0.3,0.3,0.6,0.5,1.1,0.5s0.8-0.2,1.1-0.5s0.4-0.8,0.4-1.4
			c0-0.6-0.1-1.1-0.4-1.4c-0.3-0.3-0.6-0.5-1-0.5c-0.5,0-0.8,0.2-1.1,0.5C238,191.9,237.9,192.3,237.9,192.9z"/>
	</g>
	<g id="_4.0_2" class="st0">
		<path d="M216.3,157.2v7.1h1.6v1.1h-1.6v2.5H215v-2.5h-5v-1.1c0.9-1,1.8-2.1,2.7-3.4c0.9-1.3,1.6-2.5,2.2-3.7L216.3,157.2
			L216.3,157.2z M211.5,164.3h3.5v-5.1c-0.5,0.9-1,1.7-1.5,2.5C212.9,162.5,212.2,163.3,211.5,164.3z"/>
		<path d="M219,167.2c0-0.2,0.1-0.5,0.3-0.6c0.2-0.2,0.4-0.3,0.6-0.3c0.3,0,0.5,0.1,0.6,0.3c0.2,0.2,0.3,0.4,0.3,0.6
			c0,0.2-0.1,0.4-0.3,0.6c-0.2,0.2-0.4,0.3-0.6,0.3c-0.3,0-0.5-0.1-0.6-0.3C219.1,167.6,219,167.4,219,167.2z"/>
		<path d="M222.2,162.8c0-1.9,0.3-3.3,0.9-4.3c0.6-1,1.5-1.5,2.7-1.5c2.3,0,3.4,1.8,3.4,5.5c0,1.8-0.3,3.2-1,4.1
			c-0.6,1-1.5,1.4-2.7,1.4c-1.1,0-1.9-0.5-2.5-1.4C222.5,165.8,222.2,164.5,222.2,162.8z M223.5,162.7c0,2.8,0.7,4.3,2.2,4.3
			c1.4,0,2.1-1.4,2.1-4.3c0-3-0.7-4.5-2.1-4.5C224.3,158.2,223.5,159.7,223.5,162.7z"/>
		<path d="M230.4,159.9c0-0.9,0.2-1.6,0.7-2.1s1.1-0.8,1.9-0.8c0.8,0,1.4,0.2,1.8,0.7c0.4,0.5,0.6,1.1,0.6,2c0,0.8-0.2,1.5-0.7,2
			s-1.1,0.8-1.9,0.8c-0.7,0-1.3-0.2-1.8-0.7C230.7,161.4,230.4,160.7,230.4,159.9z M231.5,159.8c0,0.6,0.1,1.1,0.4,1.4
			c0.3,0.3,0.6,0.5,1.1,0.5s0.8-0.2,1.1-0.5s0.4-0.8,0.4-1.4c0-0.6-0.1-1.1-0.4-1.4c-0.2-0.3-0.6-0.5-1-0.5c-0.5,0-0.8,0.2-1.1,0.5
			C231.6,158.8,231.5,159.2,231.5,159.8z M240.1,157.2l-6.9,10.8H232l6.9-10.8H240.1z M236.8,165.4c0-0.9,0.2-1.6,0.7-2.1
			s1.1-0.8,1.9-0.8c0.8,0,1.3,0.2,1.8,0.7c0.4,0.5,0.6,1.1,0.6,2c0,0.8-0.2,1.5-0.7,2s-1.1,0.8-1.9,0.8c-0.7,0-1.3-0.2-1.8-0.7
			C237.1,166.8,236.8,166.2,236.8,165.4z M237.9,165.3c0,0.6,0.1,1,0.4,1.4c0.3,0.3,0.6,0.5,1.1,0.5s0.8-0.2,1.1-0.5
			s0.4-0.8,0.4-1.4c0-0.6-0.1-1.1-0.4-1.4c-0.3-0.3-0.6-0.5-1-0.5c-0.5,0-0.8,0.2-1.1,0.5C238,164.3,237.9,164.7,237.9,165.3z"/>
	</g>
	<g id="_6.0_2" class="st0">
		<path d="M216.9,128.4c-0.6-0.3-1.1-0.4-1.7-0.4c-0.9,0-1.7,0.4-2.2,1.2c-0.6,0.8-0.8,1.9-0.9,3.3l0,0c0.5-1,1.3-1.5,2.4-1.5
			c0.9,0,1.7,0.3,2.2,0.9s0.8,1.4,0.8,2.4s-0.3,1.9-1,2.6c-0.6,0.7-1.4,1-2.4,1c-1.1,0-1.9-0.4-2.6-1.3c-0.6-0.8-0.9-2.1-0.9-3.6
			c0-1.9,0.4-3.4,1.2-4.5c0.8-1.1,1.9-1.7,3.2-1.7c0.8,0,1.4,0.1,1.8,0.3L216.9,128.4L216.9,128.4z M212.1,134.2
			c0,0.7,0.2,1.3,0.6,1.8c0.4,0.5,0.9,0.8,1.5,0.8s1.1-0.2,1.4-0.6c0.4-0.4,0.6-1,0.6-1.7s-0.2-1.3-0.5-1.7s-0.8-0.6-1.5-0.6
			c-0.6,0-1.1,0.2-1.5,0.6C212.3,133.2,212.1,133.7,212.1,134.2z"/>
		<path d="M219,137c0-0.2,0.1-0.5,0.3-0.6c0.2-0.2,0.4-0.3,0.6-0.3c0.3,0,0.5,0.1,0.6,0.3c0.2,0.2,0.3,0.4,0.3,0.6
			c0,0.2-0.1,0.4-0.3,0.6c-0.2,0.2-0.4,0.3-0.6,0.3c-0.3,0-0.5-0.1-0.6-0.3C219.1,137.4,219,137.2,219,137z"/>
		<path d="M222.2,132.6c0-1.9,0.3-3.3,0.9-4.3c0.6-1,1.5-1.5,2.7-1.5c2.3,0,3.4,1.8,3.4,5.5c0,1.8-0.3,3.2-1,4.1
			c-0.6,1-1.5,1.4-2.7,1.4c-1.1,0-1.9-0.5-2.5-1.4C222.5,135.6,222.2,134.3,222.2,132.6z M223.5,132.5c0,2.8,0.7,4.3,2.2,4.3
			c1.4,0,2.1-1.4,2.1-4.3c0-3-0.7-4.5-2.1-4.5C224.3,128,223.5,129.5,223.5,132.5z"/>
		<path d="M230.4,129.7c0-0.9,0.2-1.6,0.7-2.1c0.5-0.5,1.1-0.8,1.9-0.8c0.8,0,1.4,0.2,1.8,0.7c0.4,0.5,0.6,1.1,0.6,2
			c0,0.8-0.2,1.5-0.7,2s-1.1,0.8-1.9,0.8c-0.7,0-1.3-0.2-1.8-0.7C230.7,131.2,230.4,130.5,230.4,129.7z M231.5,129.7
			c0,0.6,0.1,1.1,0.4,1.4c0.3,0.3,0.6,0.5,1.1,0.5s0.8-0.2,1.1-0.5s0.4-0.8,0.4-1.4c0-0.6-0.1-1.1-0.4-1.4c-0.2-0.3-0.6-0.5-1-0.5
			c-0.5,0-0.8,0.2-1.1,0.5C231.6,128.6,231.5,129.1,231.5,129.7z M240.1,127l-6.9,10.8H232l6.9-10.8H240.1z M236.8,135.2
			c0-0.9,0.2-1.6,0.7-2.1s1.1-0.8,1.9-0.8c0.8,0,1.3,0.2,1.8,0.7c0.4,0.5,0.6,1.1,0.6,2c0,0.8-0.2,1.5-0.7,2s-1.1,0.8-1.9,0.8
			c-0.7,0-1.3-0.2-1.8-0.7C237.1,136.6,236.8,136,236.8,135.2z M237.9,135.1c0,0.6,0.1,1,0.4,1.4c0.3,0.3,0.6,0.5,1.1,0.5
			s0.8-0.2,1.1-0.5s0.4-0.8,0.4-1.4c0-0.6-0.1-1.1-0.4-1.4c-0.3-0.3-0.6-0.5-1-0.5c-0.5,0-0.8,0.2-1.1,0.5
			C238,134.1,237.9,134.5,237.9,135.1z"/>
	</g>
	<g id="_8.0_2" class="st0">
		<path d="M210.5,102c0-0.6,0.2-1.2,0.6-1.7c0.4-0.5,0.8-0.9,1.4-1.1c-0.5-0.3-0.8-0.6-1.1-1s-0.4-0.9-0.4-1.3c0-0.5,0.1-1,0.4-1.4
			c0.3-0.4,0.6-0.7,1.1-1s1-0.4,1.5-0.4c0.6,0,1.1,0.1,1.5,0.4c0.5,0.2,0.8,0.6,1.1,1s0.4,0.9,0.4,1.4s-0.1,0.9-0.4,1.3
			c-0.3,0.4-0.6,0.8-1.1,1c0.6,0.2,1.1,0.6,1.4,1.1c0.4,0.5,0.5,1.1,0.5,1.7s-0.1,1.2-0.4,1.6c-0.3,0.5-0.7,0.9-1.2,1.1
			c-0.5,0.3-1.1,0.4-1.8,0.4s-1.3-0.1-1.8-0.4s-0.9-0.6-1.2-1.1S210.5,102.6,210.5,102z M211.9,101.9c0,0.6,0.2,1.1,0.6,1.5
			c0.4,0.4,0.9,0.6,1.6,0.6c0.6,0,1.2-0.2,1.6-0.6c0.4-0.4,0.6-0.9,0.6-1.5s-0.2-1.1-0.6-1.5c-0.4-0.4-0.9-0.6-1.5-0.6
			s-1.1,0.2-1.5,0.6C212.1,100.8,211.9,101.3,211.9,101.9z M212.3,96.9c0,0.5,0.2,0.9,0.5,1.2c0.3,0.3,0.8,0.5,1.2,0.5
			c0.5,0,0.9-0.2,1.3-0.5s0.5-0.8,0.5-1.2c0-0.5-0.2-0.9-0.5-1.2s-0.8-0.5-1.3-0.5s-0.9,0.2-1.3,0.5C212.4,96,212.3,96.5,212.3,96.9
			z"/>
		<path d="M219,104.3c0-0.2,0.1-0.5,0.3-0.6c0.2-0.2,0.4-0.3,0.6-0.3c0.3,0,0.5,0.1,0.6,0.3c0.2,0.2,0.3,0.4,0.3,0.6
			s-0.1,0.4-0.3,0.6s-0.4,0.3-0.6,0.3c-0.3,0-0.5-0.1-0.6-0.3C219.1,104.7,219,104.5,219,104.3z"/>
		<path d="M222.2,99.8c0-1.9,0.3-3.3,0.9-4.3c0.6-1,1.5-1.5,2.7-1.5c2.3,0,3.4,1.8,3.4,5.5c0,1.8-0.3,3.2-1,4.1
			c-0.6,1-1.5,1.4-2.7,1.4c-1.1,0-1.9-0.5-2.5-1.4C222.5,102.9,222.2,101.6,222.2,99.8z M223.5,99.8c0,2.8,0.7,4.3,2.2,4.3
			c1.4,0,2.1-1.4,2.1-4.3c0-3-0.7-4.5-2.1-4.5C224.3,95.2,223.5,96.7,223.5,99.8z"/>
		<path d="M230.4,97c0-0.9,0.2-1.6,0.7-2.1s1.1-0.8,1.9-0.8c0.8,0,1.4,0.2,1.8,0.7c0.4,0.5,0.6,1.1,0.6,2c0,0.8-0.2,1.5-0.7,2
			s-1.1,0.8-1.9,0.8c-0.7,0-1.3-0.2-1.8-0.7S230.4,97.8,230.4,97z M231.5,96.9c0,0.6,0.1,1.1,0.4,1.4c0.3,0.3,0.6,0.5,1.1,0.5
			s0.8-0.2,1.1-0.5s0.4-0.8,0.4-1.4s-0.1-1.1-0.4-1.4c-0.2-0.3-0.6-0.5-1-0.5c-0.5,0-0.8,0.2-1.1,0.5
			C231.6,95.8,231.5,96.3,231.5,96.9z M240.1,94.3l-6.9,10.8H232l6.9-10.8H240.1z M236.8,102.5c0-0.9,0.2-1.6,0.7-2.1
			s1.1-0.8,1.9-0.8c0.8,0,1.3,0.2,1.8,0.7c0.4,0.5,0.6,1.1,0.6,2c0,0.8-0.2,1.5-0.7,2s-1.1,0.8-1.9,0.8c-0.7,0-1.3-0.2-1.8-0.7
			C237.1,103.9,236.8,103.3,236.8,102.5z M237.9,102.4c0,0.6,0.1,1,0.4,1.4c0.3,0.3,0.6,0.5,1.1,0.5s0.8-0.2,1.1-0.5
			s0.4-0.8,0.4-1.4s-0.1-1.1-0.4-1.4c-0.3-0.3-0.6-0.5-1-0.5c-0.5,0-0.8,0.2-1.1,0.5C238,101.3,237.9,101.8,237.9,102.4z"/>
	</g>
	<g id="_10.0_2" class="st0">
		<path d="M206.4,72.2v-9.1c-0.2,0.2-0.6,0.4-1.1,0.7s-1,0.4-1.4,0.6V63c0.6-0.2,1.2-0.4,1.8-0.7s1.1-0.7,1.5-1h0.5v10.9H206.4z"/>
		<path d="M211.4,67.1c0-1.9,0.3-3.3,0.9-4.3c0.6-1,1.5-1.5,2.7-1.5c2.3,0,3.4,1.8,3.4,5.5c0,1.8-0.3,3.2-1,4.1
			c-0.6,1-1.5,1.4-2.7,1.4c-1.1,0-1.9-0.5-2.5-1.4C211.7,70.1,211.4,68.8,211.4,67.1z M212.8,67c0,2.8,0.7,4.3,2.2,4.3
			c1.4,0,2.1-1.4,2.1-4.3c0-3-0.7-4.5-2.1-4.5C213.5,62.5,212.8,64,212.8,67z"/>
		<path d="M219.9,71.5c0-0.2,0.1-0.5,0.3-0.6c0.2-0.2,0.4-0.3,0.6-0.3c0.3,0,0.5,0.1,0.6,0.3c0.2,0.2,0.3,0.4,0.3,0.6
			s-0.1,0.4-0.3,0.6s-0.4,0.3-0.6,0.3c-0.3,0-0.5-0.1-0.6-0.3C220,72,219.9,71.8,219.9,71.5z"/>
		<path d="M223.1,67.1c0-1.9,0.3-3.3,0.9-4.3c0.6-1,1.5-1.5,2.7-1.5c2.3,0,3.4,1.8,3.4,5.5c0,1.8-0.3,3.2-1,4.1
			c-0.6,1-1.5,1.4-2.7,1.4c-1.1,0-1.9-0.5-2.5-1.4S223.1,68.8,223.1,67.1z M224.5,67c0,2.8,0.7,4.3,2.2,4.3c1.4,0,2.1-1.4,2.1-4.3
			c0-3-0.7-4.5-2.1-4.5C225.2,62.5,224.5,64,224.5,67z"/>
		<path d="M231.4,64.2c0-0.9,0.2-1.6,0.7-2.1s1.1-0.8,1.9-0.8c0.8,0,1.4,0.2,1.8,0.7c0.4,0.5,0.6,1.1,0.6,2c0,0.8-0.2,1.5-0.7,2
			s-1.1,0.8-1.9,0.8c-0.7,0-1.3-0.2-1.8-0.7C231.6,65.7,231.4,65,231.4,64.2z M232.4,64.2c0,0.6,0.1,1.1,0.4,1.4
			c0.3,0.3,0.6,0.5,1.1,0.5s0.8-0.2,1.1-0.5s0.4-0.8,0.4-1.4s-0.1-1.1-0.4-1.4c-0.2-0.3-0.6-0.5-1-0.5c-0.5,0-0.8,0.2-1.1,0.5
			C232.6,63.1,232.4,63.6,232.4,64.2z M241,61.5l-6.9,10.8H233l6.9-10.8C239.9,61.5,241,61.5,241,61.5z M237.8,69.7
			c0-0.9,0.2-1.6,0.7-2.1s1.1-0.8,1.9-0.8c0.8,0,1.3,0.2,1.8,0.7c0.4,0.5,0.6,1.1,0.6,2c0,0.8-0.2,1.5-0.7,2s-1.1,0.8-1.9,0.8
			c-0.7,0-1.3-0.2-1.8-0.7C238,71.2,237.8,70.5,237.8,69.7z M238.8,69.7c0,0.6,0.1,1,0.4,1.4c0.3,0.3,0.6,0.5,1.1,0.5
			s0.8-0.2,1.1-0.5s0.4-0.8,0.4-1.4s-0.1-1.1-0.4-1.4c-0.3-0.3-0.6-0.5-1-0.5c-0.5,0-0.8,0.2-1.1,0.5
			C238.9,68.6,238.8,69.1,238.8,69.7z"/>
	</g>
	<g id="_12.0_2" class="st0">
		<path d="M206.4,41.4v-9.1c-0.2,0.2-0.6,0.4-1.1,0.7s-1,0.4-1.4,0.6v-1.3c0.6-0.2,1.2-0.4,1.8-0.7c0.6-0.3,1.1-0.7,1.5-1h0.5v10.9
			L206.4,41.4L206.4,41.4z"/>
		<path d="M216.7,33.5c0-0.6-0.2-1-0.5-1.4c-0.4-0.3-0.9-0.5-1.5-0.5c-0.4,0-0.9,0.1-1.3,0.3c-0.5,0.2-0.9,0.5-1.3,1v-1.3
			c0.3-0.4,0.7-0.6,1.2-0.8c0.4-0.2,1-0.3,1.6-0.3c1,0,1.7,0.3,2.3,0.8s0.9,1.2,0.9,2.1c0,0.8-0.2,1.5-0.5,2c-0.4,0.6-1,1.2-1.9,1.8
			s-1.5,1.1-1.8,1.3s-0.5,0.5-0.6,0.8c-0.1,0.2-0.2,0.5-0.2,0.9h5.3v1.2h-6.7v-0.5c0-0.6,0.1-1.1,0.3-1.6c0.2-0.4,0.4-0.8,0.8-1.3
			c0.4-0.4,1-0.9,1.8-1.5s1.4-1.1,1.7-1.5C216.5,34.6,216.7,34.1,216.7,33.5z"/>
		<path d="M219.9,40.7c0-0.2,0.1-0.5,0.3-0.6c0.2-0.2,0.4-0.3,0.6-0.3c0.3,0,0.5,0.1,0.6,0.3c0.2,0.2,0.3,0.4,0.3,0.6
			c0,0.2-0.1,0.4-0.3,0.6c-0.2,0.2-0.4,0.3-0.6,0.3c-0.3,0-0.5-0.1-0.6-0.3C220,41.1,219.9,40.9,219.9,40.7z"/>
		<path d="M223.1,36.3c0-1.9,0.3-3.3,0.9-4.3c0.6-1,1.5-1.5,2.7-1.5c2.3,0,3.4,1.8,3.4,5.5c0,1.8-0.3,3.2-1,4.1
			c-0.6,1-1.5,1.4-2.7,1.4c-1.1,0-1.9-0.5-2.5-1.4S223.1,38,223.1,36.3z M224.5,36.2c0,2.8,0.7,4.3,2.2,4.3c1.4,0,2.1-1.4,2.1-4.3
			c0-3-0.7-4.5-2.1-4.5C225.2,31.7,224.5,33.2,224.5,36.2z"/>
		<path d="M231.4,33.4c0-0.9,0.2-1.6,0.7-2.1s1.1-0.8,1.9-0.8c0.8,0,1.4,0.2,1.8,0.7c0.4,0.5,0.6,1.1,0.6,2c0,0.8-0.2,1.5-0.7,2
			s-1.1,0.8-1.9,0.8c-0.7,0-1.3-0.2-1.8-0.7C231.6,34.9,231.4,34.2,231.4,33.4z M232.4,33.4c0,0.6,0.1,1.1,0.4,1.4
			c0.3,0.3,0.6,0.5,1.1,0.5s0.8-0.2,1.1-0.5s0.4-0.8,0.4-1.4c0-0.6-0.1-1.1-0.4-1.4c-0.2-0.3-0.6-0.5-1-0.5c-0.5,0-0.8,0.2-1.1,0.5
			C232.6,32.3,232.4,32.7,232.4,33.4z M241,30.7l-6.9,10.8H233l6.9-10.8H241z M237.8,38.9c0-0.9,0.2-1.6,0.7-2.1s1.1-0.8,1.9-0.8
			c0.8,0,1.3,0.2,1.8,0.7c0.4,0.5,0.6,1.1,0.6,2c0,0.8-0.2,1.5-0.7,2s-1.1,0.8-1.9,0.8c-0.7,0-1.3-0.2-1.8-0.7
			C238,40.3,237.8,39.7,237.8,38.9z M238.8,38.8c0,0.6,0.1,1,0.4,1.4c0.3,0.3,0.6,0.5,1.1,0.5s0.8-0.2,1.1-0.5s0.4-0.8,0.4-1.4
			c0-0.6-0.1-1.1-0.4-1.4c-0.3-0.3-0.6-0.5-1-0.5c-0.5,0-0.8,0.2-1.1,0.5C238.9,37.8,238.8,38.2,238.8,38.8z"/>
	</g>
</g>
<g id="线-2">
	<rect id="矩形_863_拷贝_2-2" x="249.4" y="194.8" class="st1" width="136.2" height="1.3"/>
	<rect id="矩形_863_拷贝_3-2" x="249.4" y="162" class="st1" width="136.2" height="1.3"/>
	<rect id="矩形_863_拷贝_4-2" x="249.4" y="129.3" class="st1" width="136.2" height="1.3"/>
	<rect id="矩形_863_拷贝_5-4" x="249.4" y="97.2" class="st1" width="136.2" height="1.3"/>
	<rect id="矩形_863_拷贝_5-5" x="249.4" y="64.5" class="st1" width="136.2" height="1.3"/>
	<rect id="矩形_863_拷贝_5-6" x="249.4" y="31.7" class="st1" width="136.2" height="1.3"/>
	<rect id="矩形_863-2" x="249.4" y="29.8" class="st2" width="1.3" height="200.3"/>
</g>
<rect id="矩形_864-2" x="269.4" y="137.6" class="st3" width="29.5" height="91.2"/>
<rect id="矩形_864_拷贝-2" x="299" y="142.8" class="st4" width="29.5" height="86"/>
<rect id="矩形_864_拷贝_2-2" x="328.5" y="170.4" class="st5" width="29.5" height="58.4"/>
<rect id="矩形_863_拷贝-2" x="249.4" y="228.8" class="st2" width="136.2" height="1.3"/>
<g id="_3">
	<g id="_2.0_3" class="st0">
		<path d="M419.9,187.6c0-0.6-0.2-1-0.5-1.4c-0.4-0.3-0.9-0.5-1.5-0.5c-0.4,0-0.9,0.1-1.3,0.3c-0.5,0.2-0.9,0.5-1.3,1v-1.3
			c0.3-0.4,0.7-0.6,1.2-0.8c0.4-0.2,1-0.3,1.6-0.3c1,0,1.7,0.3,2.3,0.8c0.6,0.5,0.9,1.2,0.9,2.1c0,0.8-0.2,1.5-0.5,2
			c-0.4,0.6-1,1.2-1.9,1.8s-1.5,1.1-1.8,1.3c-0.3,0.3-0.5,0.5-0.6,0.8c-0.1,0.2-0.2,0.5-0.2,0.9h5.3v1.2h-6.7V195
			c0-0.6,0.1-1.1,0.3-1.6c0.2-0.4,0.4-0.8,0.8-1.3c0.4-0.4,1-0.9,1.8-1.5s1.4-1.1,1.7-1.5C419.8,188.6,419.9,188.1,419.9,187.6z"/>
		<path d="M423.1,194.7c0-0.2,0.1-0.5,0.3-0.6c0.2-0.2,0.4-0.3,0.6-0.3c0.3,0,0.5,0.1,0.6,0.3c0.2,0.2,0.3,0.4,0.3,0.6
			c0,0.2-0.1,0.4-0.3,0.6c-0.2,0.2-0.4,0.3-0.6,0.3c-0.3,0-0.5-0.1-0.6-0.3C423.2,195.2,423.1,195,423.1,194.7z"/>
		<path d="M426.3,190.3c0-1.9,0.3-3.3,0.9-4.3s1.5-1.5,2.7-1.5c2.3,0,3.4,1.8,3.4,5.5c0,1.8-0.3,3.2-1,4.1c-0.6,1-1.5,1.4-2.7,1.4
			c-1.1,0-1.9-0.5-2.5-1.4C426.6,193.4,426.3,192.1,426.3,190.3z M427.7,190.3c0,2.8,0.7,4.3,2.2,4.3c1.4,0,2.1-1.4,2.1-4.3
			c0-3-0.7-4.5-2.1-4.5C428.5,185.7,427.7,187.2,427.7,190.3z"/>
		<path d="M434.6,187.5c0-0.9,0.2-1.6,0.7-2.1s1.1-0.8,1.9-0.8s1.4,0.2,1.8,0.7s0.6,1.1,0.6,2c0,0.8-0.2,1.5-0.7,2s-1.1,0.8-1.9,0.8
			c-0.7,0-1.3-0.2-1.8-0.7C434.8,188.9,434.6,188.3,434.6,187.5z M435.7,187.4c0,0.6,0.1,1.1,0.4,1.4c0.3,0.3,0.6,0.5,1.1,0.5
			s0.8-0.2,1.1-0.5c0.3-0.3,0.4-0.8,0.4-1.4c0-0.6-0.1-1.1-0.4-1.4c-0.2-0.3-0.6-0.5-1-0.5c-0.5,0-0.8,0.2-1.1,0.5
			C435.8,186.3,435.7,186.8,435.7,187.4z M444.3,184.8l-6.9,10.8h-1.2l6.9-10.8H444.3z M441,193c0-0.9,0.2-1.6,0.7-2.1
			s1.1-0.8,1.9-0.8s1.3,0.2,1.8,0.7c0.4,0.5,0.6,1.1,0.6,2c0,0.8-0.2,1.5-0.7,2s-1.1,0.8-1.9,0.8c-0.7,0-1.3-0.2-1.8-0.7
			C441.2,194.4,441,193.7,441,193z M442.1,192.9c0,0.6,0.1,1,0.4,1.4c0.3,0.3,0.6,0.5,1.1,0.5s0.8-0.2,1.1-0.5
			c0.3-0.3,0.4-0.8,0.4-1.4c0-0.6-0.1-1.1-0.4-1.4c-0.3-0.3-0.6-0.5-1-0.5c-0.5,0-0.8,0.2-1.1,0.5
			C442.2,191.8,442.1,192.3,442.1,192.9z"/>
	</g>
	<g id="_4.0_3" class="st0">
		<path d="M420.4,157.2v7.1h1.6v1.1h-1.6v2.5h-1.3v-2.5h-5v-1.1c0.9-1,1.8-2.1,2.7-3.4c0.9-1.3,1.6-2.5,2.2-3.7L420.4,157.2
			L420.4,157.2z M415.7,164.2h3.5v-5.1c-0.5,0.9-1,1.7-1.5,2.5C417.1,162.4,416.4,163.3,415.7,164.2z"/>
		<path d="M423.1,167.1c0-0.2,0.1-0.5,0.3-0.6c0.2-0.2,0.4-0.3,0.6-0.3c0.3,0,0.5,0.1,0.6,0.3c0.2,0.2,0.3,0.4,0.3,0.6
			c0,0.2-0.1,0.4-0.3,0.6c-0.2,0.2-0.4,0.3-0.6,0.3c-0.3,0-0.5-0.1-0.6-0.3C423.2,167.6,423.1,167.4,423.1,167.1z"/>
		<path d="M426.3,162.7c0-1.9,0.3-3.3,0.9-4.3s1.5-1.5,2.7-1.5c2.3,0,3.4,1.8,3.4,5.5c0,1.8-0.3,3.2-1,4.1c-0.6,1-1.5,1.4-2.7,1.4
			c-1.1,0-1.9-0.5-2.5-1.4C426.6,165.8,426.3,164.5,426.3,162.7z M427.7,162.7c0,2.8,0.7,4.3,2.2,4.3c1.4,0,2.1-1.4,2.1-4.3
			c0-3-0.7-4.5-2.1-4.5C428.5,158.1,427.7,159.6,427.7,162.7z"/>
		<path d="M434.6,159.9c0-0.9,0.2-1.6,0.7-2.1s1.1-0.8,1.9-0.8s1.4,0.2,1.8,0.7s0.6,1.1,0.6,2c0,0.8-0.2,1.5-0.7,2s-1.1,0.8-1.9,0.8
			c-0.7,0-1.3-0.2-1.8-0.7C434.8,161.3,434.6,160.7,434.6,159.9z M435.7,159.8c0,0.6,0.1,1.1,0.4,1.4c0.3,0.3,0.6,0.5,1.1,0.5
			s0.8-0.2,1.1-0.5c0.3-0.3,0.4-0.8,0.4-1.4c0-0.6-0.1-1.1-0.4-1.4c-0.2-0.3-0.6-0.5-1-0.5c-0.5,0-0.8,0.2-1.1,0.5
			C435.8,158.7,435.7,159.2,435.7,159.8z M444.3,157.2l-6.9,10.8h-1.2l6.9-10.8H444.3z M441,165.4c0-0.9,0.2-1.6,0.7-2.1
			s1.1-0.8,1.9-0.8s1.3,0.2,1.8,0.7c0.4,0.5,0.6,1.1,0.6,2c0,0.8-0.2,1.5-0.7,2s-1.1,0.8-1.9,0.8c-0.7,0-1.3-0.2-1.8-0.7
			C441.2,166.8,441,166.1,441,165.4z M442.1,165.3c0,0.6,0.1,1,0.4,1.4c0.3,0.3,0.6,0.5,1.1,0.5s0.8-0.2,1.1-0.5
			c0.3-0.3,0.4-0.8,0.4-1.4c0-0.6-0.1-1.1-0.4-1.4c-0.3-0.3-0.6-0.5-1-0.5c-0.5,0-0.8,0.2-1.1,0.5
			C442.2,164.2,442.1,164.7,442.1,165.3z"/>
	</g>
	<g id="_6.0_3" class="st0">
		<path d="M421.1,128.4c-0.6-0.3-1.1-0.4-1.7-0.4c-0.9,0-1.7,0.4-2.2,1.2c-0.6,0.8-0.8,1.9-0.9,3.3l0,0c0.5-1,1.3-1.5,2.4-1.5
			c0.9,0,1.7,0.3,2.2,0.9c0.6,0.6,0.8,1.4,0.8,2.4s-0.3,1.9-1,2.6c-0.6,0.7-1.4,1-2.4,1c-1.1,0-1.9-0.4-2.6-1.3
			c-0.6-0.8-0.9-2.1-0.9-3.6c0-1.9,0.4-3.4,1.2-4.5c0.8-1.1,1.9-1.7,3.2-1.7c0.8,0,1.4,0.1,1.8,0.3v1.3H421.1z M416.3,134.2
			c0,0.7,0.2,1.3,0.6,1.8s0.9,0.8,1.5,0.8s1.1-0.2,1.4-0.6c0.4-0.4,0.6-1,0.6-1.7s-0.2-1.3-0.5-1.7s-0.8-0.6-1.5-0.6
			c-0.6,0-1.1,0.2-1.5,0.6S416.3,133.6,416.3,134.2z"/>
		<path d="M423.1,137c0-0.2,0.1-0.5,0.3-0.6c0.2-0.2,0.4-0.3,0.6-0.3c0.3,0,0.5,0.1,0.6,0.3c0.2,0.2,0.3,0.4,0.3,0.6
			c0,0.2-0.1,0.4-0.3,0.6c-0.2,0.2-0.4,0.3-0.6,0.3c-0.3,0-0.5-0.1-0.6-0.3C423.2,137.4,423.1,137.2,423.1,137z"/>
		<path d="M426.3,132.6c0-1.9,0.3-3.3,0.9-4.3s1.5-1.5,2.7-1.5c2.3,0,3.4,1.8,3.4,5.5c0,1.8-0.3,3.2-1,4.1c-0.6,1-1.5,1.4-2.7,1.4
			c-1.1,0-1.9-0.5-2.5-1.4C426.6,135.6,426.3,134.3,426.3,132.6z M427.7,132.5c0,2.8,0.7,4.3,2.2,4.3c1.4,0,2.1-1.4,2.1-4.3
			c0-3-0.7-4.5-2.1-4.5C428.5,128,427.7,129.5,427.7,132.5z"/>
		<path d="M434.6,129.7c0-0.9,0.2-1.6,0.7-2.1c0.5-0.5,1.1-0.8,1.9-0.8s1.4,0.2,1.8,0.7s0.6,1.1,0.6,2c0,0.8-0.2,1.5-0.7,2
			s-1.1,0.8-1.9,0.8c-0.7,0-1.3-0.2-1.8-0.7C434.8,131.2,434.6,130.5,434.6,129.7z M435.7,129.6c0,0.6,0.1,1.1,0.4,1.4
			c0.3,0.3,0.6,0.5,1.1,0.5s0.8-0.2,1.1-0.5c0.3-0.3,0.4-0.8,0.4-1.4c0-0.6-0.1-1.1-0.4-1.4c-0.2-0.3-0.6-0.5-1-0.5
			c-0.5,0-0.8,0.2-1.1,0.5C435.8,128.6,435.7,129,435.7,129.6z M444.3,127l-6.9,10.8h-1.2l6.9-10.8H444.3z M441,135.2
			c0-0.9,0.2-1.6,0.7-2.1s1.1-0.8,1.9-0.8s1.3,0.2,1.8,0.7c0.4,0.5,0.6,1.1,0.6,2c0,0.8-0.2,1.5-0.7,2s-1.1,0.8-1.9,0.8
			c-0.7,0-1.3-0.2-1.8-0.7C441.2,136.6,441,136,441,135.2z M442.1,135.1c0,0.6,0.1,1,0.4,1.4c0.3,0.3,0.6,0.5,1.1,0.5
			s0.8-0.2,1.1-0.5c0.3-0.3,0.4-0.8,0.4-1.4c0-0.6-0.1-1.1-0.4-1.4c-0.3-0.3-0.6-0.5-1-0.5c-0.5,0-0.8,0.2-1.1,0.5
			C442.2,134.1,442.1,134.5,442.1,135.1z"/>
	</g>
	<g id="_8.0_3" class="st0">
		<path d="M414.7,102c0-0.6,0.2-1.2,0.6-1.7s0.8-0.9,1.4-1.1c-0.5-0.3-0.8-0.6-1.1-1c-0.3-0.4-0.4-0.9-0.4-1.3c0-0.5,0.1-1,0.4-1.4
			s0.6-0.7,1.1-1s1-0.4,1.5-0.4c0.6,0,1.1,0.1,1.5,0.4c0.5,0.2,0.8,0.6,1.1,1s0.4,0.9,0.4,1.4s-0.1,0.9-0.4,1.3s-0.6,0.8-1.1,1
			c0.6,0.2,1.1,0.6,1.4,1.1c0.4,0.5,0.5,1.1,0.5,1.7s-0.1,1.2-0.4,1.6c-0.3,0.5-0.7,0.9-1.2,1.1c-0.5,0.3-1.1,0.4-1.8,0.4
			c-0.7,0-1.3-0.1-1.8-0.4s-0.9-0.6-1.2-1.1S414.7,102.6,414.7,102z M416,101.9c0,0.6,0.2,1.1,0.6,1.5s0.9,0.6,1.6,0.6
			c0.6,0,1.2-0.2,1.6-0.6s0.6-0.9,0.6-1.5s-0.2-1.1-0.6-1.5s-0.9-0.6-1.5-0.6s-1.1,0.2-1.5,0.6C416.2,100.8,416,101.3,416,101.9z
			 M416.4,96.9c0,0.5,0.2,0.9,0.5,1.2c0.3,0.3,0.8,0.5,1.2,0.5c0.5,0,0.9-0.2,1.3-0.5s0.5-0.8,0.5-1.2c0-0.5-0.2-0.9-0.5-1.2
			s-0.8-0.5-1.3-0.5s-0.9,0.2-1.3,0.5C416.6,96,416.4,96.4,416.4,96.9z"/>
		<path d="M423.1,104.2c0-0.2,0.1-0.5,0.3-0.6s0.4-0.3,0.6-0.3c0.3,0,0.5,0.1,0.6,0.3c0.2,0.2,0.3,0.4,0.3,0.6s-0.1,0.4-0.3,0.6
			c-0.2,0.2-0.4,0.3-0.6,0.3c-0.3,0-0.5-0.1-0.6-0.3C423.2,104.7,423.1,104.5,423.1,104.2z"/>
		<path d="M426.3,99.8c0-1.9,0.3-3.3,0.9-4.3s1.5-1.5,2.7-1.5c2.3,0,3.4,1.8,3.4,5.5c0,1.8-0.3,3.2-1,4.1c-0.6,1-1.5,1.4-2.7,1.4
			c-1.1,0-1.9-0.5-2.5-1.4C426.6,102.9,426.3,101.5,426.3,99.8z M427.7,99.8c0,2.8,0.7,4.3,2.2,4.3c1.4,0,2.1-1.4,2.1-4.3
			c0-3-0.7-4.5-2.1-4.5C428.5,95.2,427.7,96.7,427.7,99.8z"/>
		<path d="M434.6,97c0-0.9,0.2-1.6,0.7-2.1s1.1-0.8,1.9-0.8s1.4,0.2,1.8,0.7s0.6,1.1,0.6,2c0,0.8-0.2,1.5-0.7,2s-1.1,0.8-1.9,0.8
			c-0.7,0-1.3-0.2-1.8-0.7C434.8,98.4,434.6,97.8,434.6,97z M435.7,96.9c0,0.6,0.1,1.1,0.4,1.4s0.6,0.5,1.1,0.5s0.8-0.2,1.1-0.5
			c0.3-0.3,0.4-0.8,0.4-1.4s-0.1-1.1-0.4-1.4c-0.2-0.3-0.6-0.5-1-0.5c-0.5,0-0.8,0.2-1.1,0.5C435.8,95.8,435.7,96.3,435.7,96.9z
			 M444.3,94.3l-6.9,10.8h-1.2l6.9-10.8H444.3z M441,102.4c0-0.9,0.2-1.6,0.7-2.1s1.1-0.8,1.9-0.8s1.3,0.2,1.8,0.7
			c0.4,0.5,0.6,1.1,0.6,2c0,0.8-0.2,1.5-0.7,2s-1.1,0.8-1.9,0.8c-0.7,0-1.3-0.2-1.8-0.7C441.2,103.9,441,103.2,441,102.4z
			 M442.1,102.4c0,0.6,0.1,1,0.4,1.4c0.3,0.3,0.6,0.5,1.1,0.5s0.8-0.2,1.1-0.5c0.3-0.3,0.4-0.8,0.4-1.4s-0.1-1.1-0.4-1.4
			s-0.6-0.5-1-0.5c-0.5,0-0.8,0.2-1.1,0.5C442.2,101.3,442.1,101.8,442.1,102.4z"/>
	</g>
	<g id="_10.0_3" class="st0">
		<path d="M410.6,72.2v-9.1c-0.2,0.2-0.6,0.4-1.1,0.7s-1,0.4-1.4,0.6V63c0.6-0.2,1.2-0.4,1.8-0.7c0.6-0.3,1.1-0.7,1.5-1h0.5v10.9
			H410.6z"/>
		<path d="M415.6,67.1c0-1.9,0.3-3.3,0.9-4.3s1.5-1.5,2.7-1.5c2.3,0,3.4,1.8,3.4,5.5c0,1.8-0.3,3.2-1,4.1c-0.6,1-1.5,1.4-2.7,1.4
			c-1.1,0-1.9-0.5-2.5-1.4S415.6,68.8,415.6,67.1z M417,67c0,2.8,0.7,4.3,2.2,4.3c1.4,0,2.1-1.4,2.1-4.3c0-3-0.7-4.5-2.1-4.5
			C417.7,62.5,417,64,417,67z"/>
		<path d="M424.1,71.5c0-0.2,0.1-0.5,0.3-0.6c0.2-0.2,0.4-0.3,0.6-0.3c0.3,0,0.5,0.1,0.6,0.3c0.2,0.2,0.3,0.4,0.3,0.6
			s-0.1,0.4-0.3,0.6c-0.2,0.2-0.4,0.3-0.6,0.3c-0.3,0-0.5-0.1-0.6-0.3C424.2,71.9,424.1,71.7,424.1,71.5z"/>
		<path d="M427.3,67.1c0-1.9,0.3-3.3,0.9-4.3s1.5-1.5,2.7-1.5c2.3,0,3.4,1.8,3.4,5.5c0,1.8-0.3,3.2-1,4.1c-0.6,1-1.5,1.4-2.7,1.4
			c-1.1,0-1.9-0.5-2.5-1.4C427.6,70.1,427.3,68.8,427.3,67.1z M428.6,67c0,2.8,0.7,4.3,2.2,4.3c1.4,0,2.1-1.4,2.1-4.3
			c0-3-0.7-4.5-2.1-4.5C429.4,62.5,428.6,64,428.6,67z"/>
		<path d="M435.5,64.2c0-0.9,0.2-1.6,0.7-2.1s1.1-0.8,1.9-0.8s1.4,0.2,1.8,0.7s0.6,1.1,0.6,2c0,0.8-0.2,1.5-0.7,2s-1.1,0.8-1.9,0.8
			c-0.7,0-1.3-0.2-1.8-0.7S435.5,65,435.5,64.2z M436.6,64.2c0,0.6,0.1,1.1,0.4,1.4s0.6,0.5,1.1,0.5s0.8-0.2,1.1-0.5
			c0.3-0.3,0.4-0.8,0.4-1.4s-0.1-1.1-0.4-1.4c-0.2-0.3-0.6-0.5-1-0.5c-0.5,0-0.8,0.2-1.1,0.5C436.7,63.1,436.6,63.6,436.6,64.2z
			 M445.2,61.5l-6.9,10.8h-1.2l6.9-10.8C444,61.5,445.2,61.5,445.2,61.5z M441.9,69.7c0-0.9,0.2-1.6,0.7-2.1s1.1-0.8,1.9-0.8
			s1.3,0.2,1.8,0.7c0.4,0.5,0.6,1.1,0.6,2c0,0.8-0.2,1.5-0.7,2s-1.1,0.8-1.9,0.8c-0.7,0-1.3-0.2-1.8-0.7
			C442.1,71.1,441.9,70.5,441.9,69.7z M443,69.6c0,0.6,0.1,1,0.4,1.4c0.3,0.3,0.6,0.5,1.1,0.5s0.8-0.2,1.1-0.5s0.4-0.8,0.4-1.4
			s-0.1-1.1-0.4-1.4s-0.6-0.5-1-0.5c-0.5,0-0.8,0.2-1.1,0.5C443.1,68.6,443,69,443,69.6z"/>
	</g>
	<g id="_12.0_3" class="st0">
		<path d="M410.6,41.4v-9.1c-0.2,0.2-0.6,0.4-1.1,0.7s-1,0.4-1.4,0.6v-1.3c0.6-0.2,1.2-0.4,1.8-0.7c0.6-0.3,1.1-0.7,1.5-1h0.5v10.9
			L410.6,41.4L410.6,41.4z"/>
		<path d="M420.8,33.5c0-0.6-0.2-1-0.5-1.4c-0.4-0.3-0.9-0.5-1.5-0.5c-0.4,0-0.9,0.1-1.3,0.3c-0.5,0.2-0.9,0.5-1.3,1v-1.3
			c0.3-0.4,0.7-0.6,1.2-0.8c0.4-0.2,1-0.3,1.6-0.3c1,0,1.7,0.3,2.3,0.8c0.6,0.5,0.9,1.2,0.9,2.1c0,0.8-0.2,1.5-0.5,2
			c-0.4,0.6-1,1.2-1.9,1.8s-1.5,1.1-1.8,1.3c-0.3,0.3-0.5,0.5-0.6,0.8c-0.1,0.2-0.2,0.5-0.2,0.9h5.3v1.2h-6.7v-0.5
			c0-0.6,0.1-1.1,0.3-1.6c0.2-0.4,0.4-0.8,0.8-1.3c0.4-0.4,1-0.9,1.8-1.5s1.4-1.1,1.7-1.5C420.7,34.6,420.8,34.1,420.8,33.5z"/>
		<path d="M424.1,40.7c0-0.2,0.1-0.5,0.3-0.6c0.2-0.2,0.4-0.3,0.6-0.3c0.3,0,0.5,0.1,0.6,0.3c0.2,0.2,0.3,0.4,0.3,0.6
			c0,0.2-0.1,0.4-0.3,0.6c-0.2,0.2-0.4,0.3-0.6,0.3c-0.3,0-0.5-0.1-0.6-0.3C424.2,41.1,424.1,40.9,424.1,40.7z"/>
		<path d="M427.3,36.3c0-1.9,0.3-3.3,0.9-4.3s1.5-1.5,2.7-1.5c2.3,0,3.4,1.8,3.4,5.5c0,1.8-0.3,3.2-1,4.1c-0.6,1-1.5,1.4-2.7,1.4
			c-1.1,0-1.9-0.5-2.5-1.4C427.6,39.3,427.3,38,427.3,36.3z M428.6,36.2c0,2.8,0.7,4.3,2.2,4.3c1.4,0,2.1-1.4,2.1-4.3
			c0-3-0.7-4.5-2.1-4.5C429.4,31.7,428.6,33.2,428.6,36.2z"/>
		<path d="M435.5,33.4c0-0.9,0.2-1.6,0.7-2.1s1.1-0.8,1.9-0.8s1.4,0.2,1.8,0.7s0.6,1.1,0.6,2c0,0.8-0.2,1.5-0.7,2s-1.1,0.8-1.9,0.8
			c-0.7,0-1.3-0.2-1.8-0.7S435.5,34.2,435.5,33.4z M436.6,33.3c0,0.6,0.1,1.1,0.4,1.4c0.3,0.3,0.6,0.5,1.1,0.5s0.8-0.2,1.1-0.5
			c0.3-0.3,0.4-0.8,0.4-1.4c0-0.6-0.1-1.1-0.4-1.4c-0.2-0.3-0.6-0.5-1-0.5c-0.5,0-0.8,0.2-1.1,0.5C436.7,32.3,436.6,32.7,436.6,33.3
			z M445.2,30.7l-6.9,10.8h-1.2l6.9-10.8H445.2z M441.9,38.9c0-0.9,0.2-1.6,0.7-2.1s1.1-0.8,1.9-0.8s1.3,0.2,1.8,0.7
			c0.4,0.5,0.6,1.1,0.6,2c0,0.8-0.2,1.5-0.7,2s-1.1,0.8-1.9,0.8c-0.7,0-1.3-0.2-1.8-0.7C442.1,40.3,441.9,39.7,441.9,38.9z
			 M443,38.8c0,0.6,0.1,1,0.4,1.4c0.3,0.3,0.6,0.5,1.1,0.5s0.8-0.2,1.1-0.5s0.4-0.8,0.4-1.4c0-0.6-0.1-1.1-0.4-1.4s-0.6-0.5-1-0.5
			c-0.5,0-0.8,0.2-1.1,0.5C443.1,37.8,443,38.2,443,38.8z"/>
	</g>
</g>
<g id="线-3">
	<rect id="矩形_863_拷贝_2-3" x="453.6" y="194.7" class="st1" width="127.9" height="1.3"/>
	<rect id="矩形_863_拷贝_3-3" x="453.6" y="162" class="st1" width="127.9" height="1.3"/>
	<rect id="矩形_863_拷贝_4-3" x="453.6" y="129.3" class="st1" width="127.9" height="1.3"/>
	<rect id="矩形_863_拷贝_5-7" x="453.6" y="97.2" class="st1" width="127.9" height="1.3"/>
	<rect id="矩形_863_拷贝_5-8" x="453.6" y="64.5" class="st1" width="127.9" height="1.3"/>
	<rect id="矩形_863_拷贝_5-9" x="453.6" y="31.7" class="st1" width="127.9" height="1.3"/>
	<rect id="矩形_863-3" x="453.6" y="29.8" class="st2" width="1.2" height="200.3"/>
</g>
<rect id="矩形_864-3" x="473.6" y="80.5" class="st3" width="29.5" height="148.3"/>
<rect id="矩形_864_拷贝-3" x="503.1" y="110.7" class="st4" width="29.5" height="118.1"/>
<rect id="矩形_864_拷贝_2-3" x="532.7" y="143.4" class="st5" width="29.5" height="85.4"/>
<rect id="矩形_863_拷贝-3" x="453.6" y="228.8" class="st2" width="127.9" height="1.3"/>
<rect id="矩形_865" x="593.1" y="178" class="st3" width="12.3" height="12.1"/>
<rect id="矩形_865_拷贝" x="593.1" y="199" class="st4" width="12.3" height="12.1"/>
<rect id="矩形_865_拷贝_2" x="593.1" y="219.9" class="st5" width="12.3" height="12.1"/>
<g>
	<path d="M7.6,11.8c0,0.3-0.1,0.6-0.2,0.9c-0.1,0.2-0.2,0.4-0.4,0.7l-0.1-0.1c0-0.1,0-0.2,0-0.4s0-0.2,0-0.3c0-0.4,0-1-0.1-1.7
		S6.7,9.5,6.6,8.7c-0.1-0.5-0.1-1-0.2-1.5C6.5,7,6.6,6.8,6.7,6.6S6.9,6.3,7,6.1c0.1,0.4,0.1,1.1,0.2,1.8S7.4,9.4,7.5,10
		C7.5,10.8,7.6,11.4,7.6,11.8z"/>
	<path d="M14.2,12.6c0,0.6-0.1,1.1-0.4,1.5c-0.3,0.3-0.6,0.6-1.2,0.7c-0.4,0.1-1,0.2-1.6,0.2c-0.8,0-1.3-0.1-1.8-0.4
		c-0.5-0.3-0.7-0.8-0.7-1.4c0-0.3,0-0.7,0.1-1s0.2-0.6,0.4-1c0.1-0.3,0.3-0.6,0.5-1l0.2,0.1c-0.1,0.3-0.3,0.5-0.4,0.7
		c-0.1,0.3-0.2,0.5-0.3,0.7c-0.1,0.3-0.1,0.5-0.1,0.8c0,0.5,0.2,0.8,0.5,1.1s0.8,0.4,1.5,0.4s1.3-0.1,1.8-0.3
		c0.6-0.3,0.9-0.5,0.9-0.9s-0.1-1-0.2-1.9c-0.1-0.7-0.2-1.5-0.3-2.3L13,7.3l-0.3-0.1c0-0.5,0.1-1,0.3-1.4h0.1c0,0.1,0,0.3,0.1,0.3
		s0.1,0.1,0.2,0.2c0.1,0.1,0.3,0.1,0.4,0.2c0.1,0.1,0.2,0.1,0.3,0.1c0,0.3,0,0.5,0,0.6S14,7.4,13.9,7.6l-0.3-0.1
		c0,0.1,0.1,0.5,0.2,1.2c0.1,0.8,0.2,1.5,0.3,2C14.1,11.5,14.2,12.1,14.2,12.6z"/>
	<path d="M20.3,16.6l-1.5,1c-0.8,0-1.4,0-1.9-0.1c-0.8-0.1-1.4-0.3-1.8-0.7c-0.5-0.4-0.8-1-0.8-1.8c0-0.5,0.1-0.9,0.2-1.3
		c0.1-0.3,0.3-0.6,0.5-0.9c0.1-0.1,0.3-0.3,0.6-0.6c-0.4-0.2-0.6-0.3-0.8-0.5c-0.3-0.3-0.5-0.7-0.5-1.1c0-0.4,0.2-0.8,0.5-1.2
		c0.4-0.5,0.9-0.7,1.4-0.7c0.3,0,0.5,0.1,0.8,0.2c0.2,0.1,0.4,0.3,0.7,0.5c-0.4,0-0.8,0-1.2,0.1c-0.5,0.1-0.9,0.2-1.3,0.3
		c-0.4,0.2-0.6,0.3-0.6,0.6c0,0.2,0.2,0.5,0.7,0.7c0.4,0.2,0.8,0.3,1.3,0.4c0.4-0.2,0.8-0.4,1.1-0.5c0.4-0.2,0.8-0.3,1.3-0.4
		l-0.2,0.9c-0.8,0.3-1.4,0.6-1.8,0.7c-0.7,0.3-1.3,0.7-1.7,1.1c-0.5,0.5-0.7,1-0.7,1.5c0,0.6,0.2,1,0.6,1.3c0.4,0.3,0.9,0.5,1.6,0.6
		c0.6,0.1,1.3,0.1,2.1,0.1c0.2,0,0.4,0,0.6,0S20.2,16.5,20.3,16.6L20.3,16.6z"/>
	<path d="M22.7,11.8c0,0.3-0.1,0.6-0.2,0.9c-0.1,0.2-0.2,0.4-0.4,0.7H22c0-0.1,0-0.2,0-0.4s0-0.2,0-0.3c0-0.4,0-1-0.1-1.7
		s-0.1-1.5-0.2-2.3c-0.1-0.5-0.1-1-0.2-1.5c0.1-0.2,0.2-0.4,0.3-0.6S22,6.2,22.1,6c0.1,0.4,0.1,1.1,0.2,1.8s0.2,1.5,0.2,2.1
		C22.6,10.8,22.7,11.4,22.7,11.8z"/>
	<path d="M30.4,10.3c0,0.1,0,0.3,0,0.4s0,0.2,0,0.3c-0.1-0.2-0.3-0.3-0.5-0.4s-0.4-0.2-0.6-0.2c-0.3,0-0.7,0.2-1.1,0.6
		c-0.3,0.4-0.5,0.7-0.5,0.9c0,0.1,0,0.1,0.1,0.2s0.2,0.1,0.4,0.1h0.5c0.3,0,0.5,0,0.6,0s0.3,0,0.5,0.1s0.3,0.2,0.3,0.4
		c0,1-0.4,1.7-1.3,2.2c-0.8,0.5-1.8,0.7-3.2,0.7c-0.7,0-1.2-0.1-1.6-0.4c-0.4-0.3-0.6-0.7-0.6-1.3c0-0.4,0.1-0.8,0.2-1.3
		c0.1-0.3,0.2-0.7,0.4-1.1c0,0,0.1-0.3,0.4-0.7l0.2,0.1c-0.2,0.4-0.4,0.8-0.6,1.2s-0.2,0.7-0.2,1c0,0.5,0.2,0.8,0.5,1.1
		s0.8,0.4,1.4,0.4c0.5,0,1-0.1,1.6-0.3c0.5-0.2,1-0.4,1.4-0.6s0.6-0.4,0.6-0.5s0-0.1-0.1-0.1s-0.1,0-0.2,0h-1.4
		c-0.2,0-0.3-0.1-0.4-0.2S27,12.6,27,12.4c0-0.3,0.1-0.6,0.3-1.1c0.2-0.5,0.5-0.9,0.8-1.2c0.4-0.4,0.8-0.6,1.2-0.6
		c0.3,0,0.5,0.1,0.6,0.2S30.4,10.1,30.4,10.3z M25.3,9.3c0,0.1-0.1,0.2-0.2,0.3s-0.2,0.1-0.4,0.2l-1.1,0.4c0-0.2,0.2-0.3,0.6-0.5
		C24.1,9.6,24,9.5,24,9.4c-0.1-0.1-0.1-0.2-0.1-0.2c0-0.1,0.1-0.3,0.3-0.5c0.2-0.2,0.4-0.4,0.6-0.4c0.1,0,0.1,0,0.2,0.1
		s0.1,0.1,0.1,0.2c0,0.1,0,0.1,0,0.2S25,8.9,24.9,9c-0.1-0.1-0.3-0.2-0.4-0.2s-0.2,0-0.3,0.1s-0.1,0-0.1,0.1s0.1,0.1,0.3,0.2
		s0.3,0.2,0.5,0.2c0.1,0,0.1,0,0.2,0S25.2,9.3,25.3,9.3z"/>
	<path d="M34.9,13.3h-2.6c-0.2,0-0.4-0.1-0.6-0.2s-0.3-0.3-0.3-0.5c0-0.1,0-0.3,0-0.4s0-0.3,0.1-0.4h0.1c0,0.2,0.1,0.3,0.2,0.3
		c0.1,0.1,0.2,0.1,0.4,0.1h2.3c0-0.7-0.1-1.3-0.3-1.7C34,10,33.6,9.7,33,9.5l0.1-1.1c0.7,0.3,1.2,0.9,1.4,1.6
		c0.2,0.6,0.3,1.4,0.3,2.3v1H34.9z"/>
	<path d="M36.9,11.8c0,0.3-0.1,0.6-0.2,0.9c-0.1,0.2-0.2,0.4-0.4,0.7l-0.1-0.1c0-0.1,0-0.2,0-0.4s0-0.2,0-0.3c0-0.4,0-1-0.1-1.7
		S36,9.5,35.9,8.7c-0.1-0.5-0.1-1-0.2-1.5C35.8,7,35.9,6.8,36,6.6s0.2-0.4,0.3-0.6c0.1,0.4,0.1,1.1,0.2,1.8s0.2,1.5,0.2,2.1
		C36.8,10.8,36.9,11.4,36.9,11.8z"/>
	<path d="M45.9,13.3h-5.6c-0.8,0-1.3-0.1-1.8-0.4c-0.6-0.3-0.8-0.8-0.8-1.5c0-0.4,0.1-0.7,0.2-1.1c0.1-0.1,0.2-0.4,0.4-0.8l0.2,0.1
		c-0.1,0.2-0.2,0.4-0.3,0.5c-0.1,0.3-0.2,0.5-0.2,0.7c0,0.5,0.2,0.8,0.7,1.1c0.4,0.2,1,0.3,1.6,0.3h5V12c0-0.4-0.1-0.8-0.2-1.1
		s-0.3-0.5-0.5-0.7l0.5-1c0.2,0.2,0.3,0.3,0.3,0.4c0.3,0.4,0.4,1.1,0.4,1.9L45.9,13.3L45.9,13.3z M41.8,8.5l-0.4,0.8l-1-0.5L40.9,8
		L41.8,8.5z M43.2,8l-0.4,0.8l-1-0.5l0.4-0.8L43.2,8z"/>
	<path d="M51.2,11.8c0,0.3-0.1,0.6-0.2,0.9c-0.1,0.2-0.2,0.4-0.4,0.7l-0.1-0.1c0-0.1,0-0.2,0-0.4s0-0.2,0-0.3c0-0.4,0-1-0.1-1.7
		s-0.1-1.5-0.2-2.3c-0.1-0.5-0.1-1-0.2-1.5c0.1-0.2,0.2-0.4,0.3-0.6s0.2-0.4,0.3-0.6c0.1,0.4,0.1,1.1,0.2,1.8S51,9.2,51,9.8
		C51.2,10.8,51.2,11.4,51.2,11.8z"/>
	<path d="M57.8,12.6c0,0.6-0.1,1.1-0.4,1.5c-0.3,0.3-0.6,0.6-1.2,0.7c-0.4,0.1-1,0.2-1.6,0.2c-0.8,0-1.3-0.1-1.8-0.4
		c-0.5-0.3-0.7-0.8-0.7-1.4c0-0.3,0-0.7,0.1-1s0.2-0.6,0.4-1c0.1-0.3,0.3-0.6,0.5-1l0.2,0.1c-0.1,0.3-0.3,0.5-0.4,0.7
		c-0.1,0.3-0.2,0.5-0.3,0.7c-0.1,0.3-0.1,0.5-0.1,0.8c0,0.5,0.2,0.8,0.5,1.1s0.8,0.4,1.5,0.4s1.3-0.1,1.8-0.3
		c0.6-0.3,0.9-0.5,0.9-0.9s-0.1-1-0.2-1.9c-0.1-0.7-0.2-1.5-0.3-2.3l-0.2-1.1l-0.3-0.1c0-0.5,0.1-1,0.3-1.4h0.1c0,0.1,0,0.3,0.1,0.3
		S57,6.2,57,6.2c0.1,0.1,0.3,0.1,0.4,0.2c0.1,0.1,0.2,0.1,0.3,0.1c0,0.3,0,0.5,0,0.6s-0.1,0.3-0.1,0.5l-0.3-0.1
		c0,0.1,0.1,0.5,0.2,1.2c0.1,0.8,0.2,1.5,0.3,2C57.8,11.5,57.8,12.1,57.8,12.6z"/>
	<path d="M67.7,13.3h-0.5c-0.2,0-0.4,0-0.6-0.1s-0.4-0.2-0.5-0.3c-0.2,0.1-0.3,0.2-0.4,0.3c-0.2,0.1-0.5,0.1-0.8,0.1h-0.7
		c0,0.4-0.1,0.7-0.3,1c-0.2,0.4-0.6,0.8-1,1c-0.6,0.3-1.3,0.5-2.2,0.5c-0.8,0-1.4-0.1-1.8-0.4c-0.5-0.3-0.7-0.8-0.7-1.4
		c0-0.3,0-0.7,0.1-1s0.2-0.7,0.3-1c0.1-0.2,0.2-0.5,0.4-1l0.2,0.1c-0.3,0.6-0.5,1-0.5,1.3s-0.1,0.6-0.1,0.9c0,0.5,0.2,0.9,0.5,1.1
		s0.8,0.4,1.5,0.4c0.8,0,1.4-0.1,2-0.4c0.7-0.3,1.1-0.8,1.1-1.4c0-0.4-0.1-0.8-0.2-1.1c-0.1-0.3-0.3-0.5-0.5-0.8l0.5-1.2
		c0.2,0.3,0.3,0.6,0.4,0.8C64,11,64,11.5,64,12.1h0.7c0.4,0,0.6-0.1,0.8-0.2c0.1-0.1,0.2-0.2,0.2-0.5c0-0.1,0-0.2,0-0.3
		s0-0.2-0.1-0.4l0.2-0.4l0.1,0.6c0.1,0.4,0.2,0.7,0.3,0.8c0.2,0.2,0.4,0.3,0.7,0.3c0.1,0,0.2,0,0.2-0.1s0.1-0.1,0.1-0.2
		c0-0.2-0.1-0.4-0.2-0.6c-0.1-0.2-0.2-0.3-0.4-0.5L67,10c0.2,0.3,0.3,0.5,0.3,0.6c0.1,0.2,0.1,0.6,0.1,1.1v1.6
		C67.4,13.3,67.7,13.3,67.7,13.3z"/>
	<path d="M74,13.3c0,0.9-0.3,1.5-0.8,1.9c-0.6,0.4-1.4,0.7-2.7,0.7c-0.8,0-1.4-0.1-1.8-0.4c-0.5-0.3-0.7-0.8-0.7-1.4
		c0-0.3,0-0.7,0.1-1s0.2-0.7,0.3-1c0.1-0.2,0.2-0.5,0.4-1l0.2,0.1c-0.3,0.6-0.5,1-0.5,1.3s-0.1,0.6-0.1,0.9c0,0.5,0.2,0.9,0.5,1.1
		s0.8,0.4,1.5,0.4s1.4-0.1,2-0.4c0.7-0.3,1.1-0.8,1.1-1.4c0-0.4-0.1-0.8-0.2-1.1s-0.2-0.6-0.4-0.8l0.5-1.2c0.2,0.3,0.3,0.6,0.4,1
		s0.1,0.8,0.1,1.3L74,13.3L74,13.3z M71.8,8.8l-0.5,0.8l-0.9-0.5l0.4-0.9L71.8,8.8z"/>
	<path d="M79.2,12.9c0,0.6-0.2,1.3-0.7,1.9c-0.5,0.7-1.1,1.1-1.8,1.1c-0.3,0-0.5,0-0.8-0.1c-0.2,0-0.5-0.1-0.8-0.2
		c-0.3-0.1-0.5-0.2-0.8-0.3l0.1-0.2c0.2,0.1,0.4,0.1,0.7,0.2s0.5,0.1,0.6,0.1c0.5,0,0.9-0.1,1.4-0.4c0.3-0.2,0.7-0.5,1-0.8
		c0.2-0.2,0.4-0.5,0.7-0.9c-0.5,0-0.9-0.1-1.2-0.3c-0.3-0.2-0.4-0.5-0.4-0.9s0.1-0.8,0.3-1.1c0.2-0.4,0.5-0.6,0.8-0.6
		s0.6,0.2,0.7,0.6c0.1,0.3,0.2,0.7,0.2,1.3L79.2,12.9L79.2,12.9z M78.8,12.3c-0.1-0.4-0.2-0.6-0.3-0.8c-0.1-0.1-0.2-0.2-0.4-0.2
		c-0.1,0-0.2,0-0.3,0.1s-0.1,0.2-0.1,0.3c0,0.2,0.1,0.3,0.3,0.4S78.4,12.3,78.8,12.3z"/>
	<path d="M86.4,10.3c0,0.1,0,0.3,0,0.4s0,0.2,0,0.3c-0.1-0.2-0.3-0.3-0.5-0.4s-0.4-0.2-0.6-0.2c-0.3,0-0.7,0.2-1.1,0.6
		c-0.3,0.4-0.5,0.7-0.5,0.9c0,0.1,0,0.1,0.1,0.2s0.2,0.1,0.4,0.1h0.5c0.3,0,0.5,0,0.6,0s0.3,0,0.5,0.1s0.3,0.2,0.3,0.4
		c0,1-0.4,1.7-1.3,2.2c-0.8,0.5-1.8,0.7-3.2,0.7c-0.7,0-1.2-0.1-1.6-0.4c-0.4-0.3-0.6-0.7-0.6-1.3c0-0.4,0.1-0.8,0.2-1.3
		c0.1-0.3,0.2-0.7,0.4-1.1c0,0,0.1-0.3,0.4-0.7l0.2,0.1c-0.2,0.4-0.4,0.8-0.6,1.2s-0.2,0.7-0.2,1c0,0.5,0.2,0.8,0.5,1.1
		s0.8,0.4,1.4,0.4c0.5,0,1-0.1,1.6-0.3c0.5-0.2,1-0.4,1.4-0.6s0.6-0.4,0.6-0.5s0-0.1-0.1-0.1s-0.1,0-0.2,0h-1.4
		c-0.2,0-0.3-0.1-0.4-0.2S83,12.6,83,12.4c0-0.3,0.1-0.6,0.3-1.1c0.2-0.5,0.5-0.9,0.8-1.2c0.4-0.4,0.8-0.6,1.2-0.6
		c0.3,0,0.5,0.1,0.6,0.2S86.4,10.1,86.4,10.3z M82.9,16.7l-0.4,0.8l-1-0.5l0.5-0.8L82.9,16.7z M84.2,16.1L83.8,17l-1-0.5l0.4-0.8
		L84.2,16.1z"/>
	<path d="M88.2,8.3l-0.4,0.8l-1-0.5l0.5-0.8L88.2,8.3z M90.1,11.6c0,0.6-0.1,1-0.3,1.2c-0.3,0.4-0.8,0.6-1.5,0.6
		c-0.3,0-0.5-0.1-0.7-0.2c-0.2-0.1-0.3-0.3-0.3-0.6s0.1-0.6,0.2-0.9c0.1-0.3,0.3-0.6,0.4-0.9h-0.1l0.4-1c0.7,0.4,1.1,0.6,1.3,0.7
		C89.9,10.9,90.1,11.2,90.1,11.6z M89.6,12c0-0.1-0.2-0.3-0.6-0.6c-0.2-0.1-0.4-0.2-0.6-0.3c-0.2,0.2-0.3,0.3-0.3,0.4
		c-0.1,0.2-0.2,0.3-0.2,0.4c0,0.2,0.1,0.4,0.2,0.5s0.3,0.2,0.4,0.2c0.2,0,0.5-0.1,0.7-0.2S89.6,12.1,89.6,12z M89.6,7.8l-0.4,0.8
		l-1-0.5l0.4-0.8L89.6,7.8z"/>
	<path d="M99.6,12.6c0,0.6-0.1,1.1-0.4,1.5c-0.3,0.3-0.6,0.6-1.2,0.7c-0.4,0.1-1,0.2-1.6,0.2c-0.8,0-1.3-0.1-1.8-0.4
		c-0.5-0.3-0.7-0.8-0.7-1.4c0-0.3,0-0.7,0.1-1s0.2-0.6,0.4-1c0.1-0.3,0.3-0.6,0.5-1l0.2,0.1c-0.1,0.3-0.3,0.5-0.4,0.7
		c-0.1,0.3-0.2,0.5-0.3,0.7c-0.1,0.3-0.1,0.5-0.1,0.8c0,0.5,0.2,0.8,0.5,1.1s0.8,0.4,1.5,0.4s1.3-0.1,1.8-0.3
		c0.6-0.3,0.9-0.5,0.9-0.9s-0.1-1-0.2-1.9c-0.1-0.7-0.2-1.5-0.3-2.3l-0.2-1.1L98,7.4c0-0.5,0.1-1,0.3-1.4h0.1c0,0.1,0,0.3,0.1,0.3
		s0.1,0.1,0.2,0.2s0.3,0.1,0.4,0.2s0.2,0.1,0.3,0.1c0,0.3,0,0.5,0,0.6s-0.1,0.3-0.1,0.5L99,7.5c0,0.1,0.1,0.5,0.2,1.2
		c0.1,0.8,0.2,1.5,0.3,2C99.6,11.5,99.6,12.1,99.6,12.6z"/>
	<path d="M105.7,12.6c0,0.6-0.1,1.1-0.4,1.5c-0.3,0.3-0.6,0.6-1.2,0.7c-0.4,0.1-1,0.2-1.6,0.2c-0.8,0-1.3-0.1-1.8-0.4
		c-0.5-0.3-0.7-0.8-0.7-1.4c0-0.3,0-0.7,0.1-1s0.2-0.6,0.4-1c0.1-0.3,0.3-0.6,0.5-1l0.2,0.1c-0.1,0.3-0.3,0.5-0.4,0.7
		c-0.1,0.3-0.2,0.5-0.3,0.7c-0.1,0.3-0.1,0.5-0.1,0.8c0,0.5,0.2,0.8,0.5,1.1s0.8,0.4,1.5,0.4s1.3-0.1,1.8-0.3
		c0.6-0.3,0.9-0.5,0.9-0.9s-0.1-1-0.2-1.9c-0.1-0.7-0.2-1.5-0.3-2.3l-0.2-1.1l-0.3-0.1c0-0.5,0.1-1,0.3-1.4h0.1c0,0.1,0,0.3,0.1,0.3
		s0.1,0.1,0.2,0.2s0.3,0.1,0.4,0.2s0.2,0.1,0.3,0.1c0,0.3,0,0.5,0,0.6s-0.1,0.3-0.1,0.5l-0.3-0.1c0,0.1,0.1,0.5,0.2,1.2
		c0.1,0.8,0.2,1.5,0.3,2C105.7,11.5,105.7,12.1,105.7,12.6z"/>
	<path d="M107.8,5.4c0,0.1-0.1,0.2-0.2,0.3c-0.1,0.1-0.2,0.1-0.4,0.2l-1.1,0.4c0-0.2,0.2-0.3,0.6-0.5c-0.1-0.1-0.2-0.1-0.3-0.2
		c-0.1-0.1-0.1-0.2-0.1-0.2c0-0.1,0.1-0.3,0.3-0.5c0.2-0.2,0.4-0.4,0.6-0.4c0.1,0,0.1,0,0.2,0.1s0.1,0.1,0.1,0.2s0,0.1,0,0.2
		s-0.1,0.1-0.1,0.2C107.3,5.1,107.1,5,107,5s-0.2,0-0.3,0.1s-0.1,0.1-0.1,0.1c0,0.1,0.1,0.1,0.3,0.2s0.3,0.2,0.5,0.2
		c0.1,0,0.1,0,0.2,0S107.7,5.4,107.8,5.4z M107.7,11.8c0,0.3-0.1,0.6-0.2,0.9c-0.1,0.2-0.2,0.4-0.4,0.7l-0.1-0.1c0-0.1,0-0.2,0-0.4
		s0-0.2,0-0.3c0-0.4,0-1-0.1-1.7s-0.1-1.5-0.2-2.3c-0.1-0.5-0.1-1-0.2-1.5c0.1-0.2,0.2-0.4,0.3-0.6s0.2-0.4,0.3-0.6
		c0.1,0.4,0.1,1.1,0.2,1.8s0.2,1.5,0.2,2.1C107.6,10.8,107.7,11.4,107.7,11.8z"/>
	<path d="M121.4,13.3h-7c-0.1,0.8-0.4,1.4-0.8,1.8c-0.6,0.5-1.4,0.8-2.5,0.8c-0.8,0-1.4-0.1-1.8-0.4c-0.5-0.3-0.7-0.8-0.7-1.4
		c0-0.3,0-0.7,0.1-1s0.2-0.7,0.3-1c0.1-0.2,0.2-0.5,0.4-1l0.2,0.1c-0.3,0.6-0.5,1-0.5,1.3s-0.1,0.6-0.1,0.9c0,0.5,0.2,0.9,0.5,1.1
		s0.8,0.4,1.5,0.4c0.8,0,1.4-0.1,2-0.4c0.7-0.3,1.1-0.8,1.1-1.4c0-0.4-0.1-0.8-0.2-1.1s-0.3-0.5-0.5-0.8l0.5-1.2
		c0.2,0.3,0.3,0.6,0.4,0.8c0.1,0.3,0.1,0.8,0.1,1.4h0.1c0.5,0,0.9-0.1,1.3-0.2c0.3-0.1,0.7-0.3,1.1-0.6c0.6-0.4,0.9-0.6,1-0.7
		c0.3-0.2,0.6-0.3,0.9-0.4c0.3-0.1,0.6-0.1,1-0.1c0.5,0,0.9,0.2,1.2,0.5c0.2,0.3,0.4,0.7,0.4,1.2V13.3z M120.4,11.8
		c0-0.2-0.1-0.3-0.4-0.4s-0.5-0.2-0.8-0.2s-0.6,0.1-0.9,0.2c-0.2,0.1-0.6,0.2-0.9,0.4c-0.3,0.1-0.6,0.3-0.8,0.4h2.7
		c0.4,0,0.7,0,0.9-0.1S120.4,12,120.4,11.8z"/>
	<path d="M126.5,12.9c0,0.6-0.2,1.3-0.7,1.9c-0.5,0.7-1.1,1.1-1.8,1.1c-0.3,0-0.5,0-0.8-0.1c-0.2,0-0.5-0.1-0.8-0.2
		c-0.3-0.1-0.5-0.2-0.8-0.3l0.1-0.2c0.2,0.1,0.4,0.1,0.7,0.2s0.5,0.1,0.6,0.1c0.5,0,0.9-0.1,1.4-0.4c0.3-0.2,0.7-0.5,1-0.8
		c0.2-0.2,0.4-0.5,0.7-0.9c-0.5,0-0.9-0.1-1.2-0.3c-0.3-0.2-0.4-0.5-0.4-0.9s0.1-0.8,0.3-1.1c0.2-0.4,0.5-0.6,0.8-0.6
		s0.6,0.2,0.7,0.6c0.1,0.3,0.2,0.7,0.2,1.3L126.5,12.9L126.5,12.9z M126.2,12.3c-0.1-0.4-0.2-0.6-0.3-0.8c-0.1-0.1-0.2-0.2-0.4-0.2
		c-0.1,0-0.2,0-0.3,0.1s-0.1,0.2-0.1,0.3c0,0.2,0.1,0.3,0.3,0.4S125.8,12.3,126.2,12.3z"/>
	<path d="M132.6,12.6c0,0.6-0.1,1.1-0.4,1.5c-0.3,0.3-0.6,0.6-1.2,0.7c-0.4,0.1-1,0.2-1.6,0.2c-0.8,0-1.3-0.1-1.8-0.4
		c-0.5-0.3-0.7-0.8-0.7-1.4c0-0.3,0-0.7,0.1-1s0.2-0.6,0.4-1c0.1-0.3,0.3-0.6,0.5-1l0.2,0.1c-0.1,0.3-0.3,0.5-0.4,0.7
		c-0.1,0.3-0.2,0.5-0.3,0.7c-0.1,0.3-0.1,0.5-0.1,0.8c0,0.5,0.2,0.8,0.5,1.1s0.8,0.4,1.5,0.4s1.3-0.1,1.8-0.3
		c0.6-0.3,0.9-0.5,0.9-0.9s-0.1-1-0.2-1.9c-0.1-0.7-0.2-1.5-0.3-2.3l-0.2-1.1L131,7.4c0-0.5,0.1-1,0.3-1.4h0.1c0,0.1,0,0.3,0.1,0.3
		s0.1,0.1,0.2,0.2c0.1,0.1,0.3,0.1,0.4,0.2c0.1,0.1,0.2,0.1,0.3,0.1c0,0.3,0,0.5,0,0.6s-0.1,0.3-0.1,0.5L132,7.5
		c0,0.1,0.1,0.5,0.2,1.2c0.1,0.8,0.2,1.5,0.3,2C132.6,11.5,132.6,12.1,132.6,12.6z"/>
	<path d="M141.8,13.3c0,0.4-0.2,0.9-0.6,1.3c-0.3,0.4-0.7,0.8-1.2,1c-0.5,0.3-0.8,0.4-1.1,0.4s-0.6,0-0.9-0.1
		c-0.2-0.1-0.5-0.2-0.9-0.3c-0.3-0.1-0.6-0.2-0.8-0.3l0.1-0.2c0.3,0.1,0.5,0.1,0.8,0.2s0.5,0.1,0.8,0.1c0.5,0,1-0.2,1.6-0.5
		c0.5-0.3,0.9-0.7,1.3-1.1s0.5-0.9,0.5-1.2s-0.1-0.6-0.3-1c-0.1-0.3-0.3-0.6-0.6-0.8l0.3-0.9c0.3,0.3,0.6,0.6,0.7,0.9
		c0.2,0.3,0.3,0.7,0.3,1.1L141.8,13.3L141.8,13.3z"/>
	<path d="M144,5.4c0,0.1-0.1,0.2-0.2,0.3c-0.1,0.1-0.2,0.1-0.4,0.2l-1.1,0.4c0-0.2,0.2-0.3,0.6-0.5c-0.1-0.1-0.2-0.1-0.3-0.2
		s-0.1-0.2-0.1-0.2c0-0.1,0.1-0.3,0.3-0.5s0.4-0.4,0.6-0.4c0.1,0,0.1,0,0.2,0.1s0.1,0.1,0.1,0.2s0,0.1,0,0.2s-0.1,0.1-0.1,0.2
		c-0.1-0.1-0.3-0.2-0.4-0.2c-0.1,0-0.2,0-0.3,0.1s-0.1,0.1-0.1,0.1c0,0.1,0.1,0.1,0.3,0.2s0.3,0.2,0.5,0.2c0.1,0,0.1,0,0.2,0
		S143.9,5.4,144,5.4z M143.8,11.8c0,0.3-0.1,0.6-0.2,0.9c-0.1,0.2-0.2,0.4-0.4,0.7l-0.1-0.1c0-0.1,0-0.2,0-0.4s0-0.2,0-0.3
		c0-0.4,0-1-0.1-1.7s-0.1-1.5-0.2-2.3c-0.1-0.5-0.1-1-0.2-1.5c0.1-0.2,0.2-0.4,0.3-0.6s0.2-0.4,0.3-0.6c0.1,0.4,0.1,1.1,0.2,1.8
		s0.2,1.5,0.2,2.1C143.8,10.8,143.8,11.4,143.8,11.8z"/>
	<path d="M154.2,13.3h-0.5c-0.2,0-0.4,0-0.6-0.1s-0.4-0.2-0.5-0.3c-0.2,0.1-0.3,0.2-0.4,0.3c-0.2,0.1-0.5,0.1-0.8,0.1h-0.7
		c0,0.4-0.1,0.7-0.3,1c-0.2,0.4-0.6,0.8-1,1c-0.6,0.3-1.3,0.5-2.2,0.5c-0.8,0-1.4-0.1-1.8-0.4c-0.5-0.3-0.7-0.8-0.7-1.4
		c0-0.3,0-0.7,0.1-1s0.2-0.7,0.3-1c0.1-0.2,0.2-0.5,0.4-1l0.2,0.1c-0.3,0.6-0.5,1-0.5,1.3s-0.1,0.6-0.1,0.9c0,0.5,0.2,0.9,0.5,1.1
		s0.8,0.4,1.5,0.4c0.8,0,1.4-0.1,2-0.4c0.7-0.3,1.1-0.8,1.1-1.4c0-0.4-0.1-0.8-0.2-1.1c-0.1-0.3-0.3-0.5-0.5-0.8L150,10
		c0.2,0.3,0.3,0.6,0.4,0.8c0.1,0.3,0.1,0.8,0.1,1.4h0.7c0.4,0,0.6-0.1,0.8-0.2c0.1-0.1,0.2-0.2,0.2-0.5c0-0.1,0-0.2,0-0.3
		s0-0.2-0.1-0.4l0.2-0.4l0.1,0.6c0.1,0.4,0.2,0.7,0.3,0.8c0.2,0.2,0.4,0.3,0.7,0.3c0.1,0,0.2,0,0.2-0.1s0.1-0.1,0.1-0.2
		c0-0.2-0.1-0.4-0.2-0.6c-0.1-0.2-0.2-0.3-0.4-0.5l0.4-0.6c0.2,0.3,0.3,0.5,0.3,0.6c0.1,0.2,0.1,0.6,0.1,1.1v1.5
		C153.9,13.3,154.2,13.3,154.2,13.3z"/>
	<path d="M159.5,11.8c0,0.3-0.1,0.6-0.2,0.9c-0.1,0.2-0.2,0.4-0.4,0.7l-0.1-0.1c0-0.1,0-0.2,0-0.4s0-0.2,0-0.3c0-0.4,0-1-0.1-1.7
		s-0.1-1.5-0.2-2.3c-0.1-0.5-0.1-1-0.2-1.5c0.1-0.2,0.2-0.4,0.3-0.6s0.2-0.4,0.3-0.6c0.1,0.4,0.1,1.1,0.2,1.8s0.2,1.5,0.2,2.1
		C159.4,10.8,159.5,11.4,159.5,11.8z"/>
	<path d="M166.1,12.6c0,0.6-0.1,1.1-0.4,1.5c-0.3,0.3-0.6,0.6-1.2,0.7c-0.4,0.1-1,0.2-1.6,0.2c-0.8,0-1.3-0.1-1.8-0.4
		c-0.5-0.3-0.7-0.8-0.7-1.4c0-0.3,0-0.7,0.1-1s0.2-0.6,0.4-1c0.1-0.3,0.3-0.6,0.5-1l0.2,0.1c-0.1,0.3-0.3,0.5-0.4,0.7
		c-0.1,0.3-0.2,0.5-0.3,0.7c-0.1,0.3-0.1,0.5-0.1,0.8c0,0.5,0.2,0.8,0.5,1.1s0.8,0.4,1.5,0.4s1.3-0.1,1.8-0.3
		c0.6-0.3,0.9-0.5,0.9-0.9s-0.1-1-0.2-1.9c-0.1-0.7-0.2-1.5-0.3-2.3l-0.2-1.1l-0.3-0.1c0-0.5,0.1-1,0.3-1.4h0.1c0,0.1,0,0.3,0.1,0.3
		s0.1,0.1,0.2,0.2c0.1,0.1,0.3,0.1,0.4,0.2c0.1,0.1,0.2,0.1,0.3,0.1c0,0.3,0,0.5,0,0.6s-0.1,0.3-0.1,0.5l-0.3-0.1
		c0,0.1,0.1,0.5,0.2,1.2c0.1,0.8,0.2,1.5,0.3,2C166,11.5,166.1,12.1,166.1,12.6z"/>
	<path d="M170.1,13.3h-0.7c-0.6,0-1.2,0.1-1.7,0.2c-0.6,0.2-0.9,0.4-0.9,0.7s0,0.5,0.1,0.8s0.2,0.6,0.3,0.9s0.1,0.6,0.1,0.8
		c0,0.1,0,0.3,0,0.4s-0.1,0.3-0.1,0.5c-0.1-0.3-0.2-0.6-0.3-1c-0.2-0.6-0.3-1.1-0.4-1.4c-0.1-0.5-0.2-0.8-0.2-0.9
		c0-0.5,0.1-0.9,0.3-1.2s0.5-0.5,1-0.6c0.3-0.1,0.9-0.2,1.6-0.3c-0.2-0.3-0.4-0.4-0.5-0.4c-0.2-0.2-0.4-0.2-0.6-0.2
		c-0.1,0-0.3,0-0.4,0.1c-0.1,0.1-0.2,0.2-0.3,0.3l-0.3-0.2c0.1-0.3,0.3-0.5,0.4-0.7c0.2-0.3,0.5-0.4,0.9-0.4c0.2,0,0.5,0.1,0.7,0.3
		c0.2,0.1,0.4,0.4,0.6,0.6c0.1,0.1,0.3,0.3,0.5,0.7v1C170.2,13.3,170.1,13.3,170.1,13.3z"/>
	<path d="M172.1,11.8c0,0.3-0.1,0.6-0.2,0.9c-0.1,0.2-0.2,0.4-0.4,0.7l-0.1-0.1c0-0.1,0-0.2,0-0.4s0-0.2,0-0.3c0-0.4,0-1-0.1-1.7
		s-0.1-1.5-0.2-2.3c-0.1-0.5-0.1-1-0.2-1.5c0.1-0.2,0.2-0.4,0.3-0.6s0.2-0.4,0.3-0.6c0.1,0.4,0.1,1.1,0.2,1.8s0.2,1.5,0.2,2.1
		C172.1,10.8,172.1,11.4,172.1,11.8z"/>
	<path d="M178.7,12.6c0,0.6-0.1,1.1-0.4,1.5c-0.3,0.3-0.6,0.6-1.2,0.7c-0.4,0.1-1,0.2-1.6,0.2c-0.8,0-1.3-0.1-1.8-0.4
		c-0.5-0.3-0.7-0.8-0.7-1.4c0-0.3,0-0.7,0.1-1s0.2-0.6,0.4-1c0.1-0.3,0.3-0.6,0.5-1l0.2,0.1c-0.1,0.3-0.3,0.5-0.4,0.7
		c-0.1,0.3-0.2,0.5-0.3,0.7c-0.1,0.3-0.1,0.5-0.1,0.8c0,0.5,0.2,0.8,0.5,1.1s0.8,0.4,1.5,0.4s1.3-0.1,1.8-0.3
		c0.6-0.3,0.9-0.5,0.9-0.9s-0.1-1-0.2-1.9c-0.1-0.7-0.2-1.5-0.3-2.3l-0.2-1.1l-0.3-0.1c0-0.5,0.1-1,0.3-1.4h0.1c0,0.1,0,0.3,0.1,0.3
		s0.1,0.1,0.2,0.2c0.1,0.1,0.3,0.1,0.4,0.2c0.1,0.1,0.2,0.1,0.3,0.1c0,0.3,0,0.5,0,0.6s-0.1,0.3-0.1,0.5l-0.3-0.1
		c0,0.1,0.1,0.5,0.2,1.2c0.1,0.8,0.2,1.5,0.3,2C178.6,11.5,178.7,12.1,178.7,12.6z"/>
	<path d="M184,11.8c0,0.3-0.1,0.6-0.2,0.9c-0.1,0.2-0.2,0.4-0.4,0.7l-0.1-0.1c0-0.1,0-0.2,0-0.4s0-0.2,0-0.3c0-0.4,0-1-0.1-1.7
		s-0.1-1.5-0.2-2.3c-0.1-0.5-0.1-1-0.2-1.5c0.1-0.2,0.2-0.4,0.3-0.6s0.2-0.4,0.3-0.6c0.1,0.4,0.1,1.1,0.2,1.8s0.2,1.5,0.2,2.1
		C184,10.8,184,11.4,184,11.8z"/>
	<path d="M190.6,12.6c0,0.6-0.1,1.1-0.4,1.5c-0.3,0.3-0.6,0.6-1.2,0.7c-0.4,0.1-1,0.2-1.6,0.2c-0.8,0-1.3-0.1-1.8-0.4
		c-0.5-0.3-0.7-0.8-0.7-1.4c0-0.3,0-0.7,0.1-1s0.2-0.6,0.4-1c0.1-0.3,0.3-0.6,0.5-1l0.2,0.1c-0.1,0.3-0.3,0.5-0.4,0.7
		c-0.1,0.3-0.2,0.5-0.3,0.7c-0.1,0.3-0.1,0.5-0.1,0.8c0,0.5,0.2,0.8,0.5,1.1s0.8,0.4,1.5,0.4s1.3-0.1,1.8-0.3
		c0.6-0.3,0.9-0.5,0.9-0.9s-0.1-1-0.2-1.9c-0.1-0.7-0.2-1.5-0.3-2.3l-0.2-1.1L189,7.4c0-0.5,0.1-1,0.3-1.4h0.1c0,0.1,0,0.3,0.1,0.3
		s0.1,0.1,0.2,0.2c0.1,0.1,0.3,0.1,0.4,0.2c0.1,0.1,0.2,0.1,0.3,0.1c0,0.3,0,0.5,0,0.6s-0.1,0.3-0.1,0.5L190,7.5
		c0,0.1,0.1,0.5,0.2,1.2c0.1,0.8,0.2,1.5,0.3,2C190.5,11.5,190.6,12.1,190.6,12.6z"/>
	<path d="M194.6,13.3h-0.7c-0.6,0-1.2,0.1-1.7,0.2c-0.6,0.2-0.9,0.4-0.9,0.7s0,0.5,0.1,0.8s0.2,0.6,0.3,0.9s0.1,0.6,0.1,0.8
		c0,0.1,0,0.3,0,0.4s-0.1,0.3-0.1,0.5c-0.1-0.3-0.2-0.6-0.3-1c-0.2-0.6-0.3-1.1-0.4-1.4c-0.1-0.5-0.2-0.8-0.2-0.9
		c0-0.5,0.1-0.9,0.3-1.2s0.5-0.5,1-0.6c0.3-0.1,0.9-0.2,1.6-0.3c-0.2-0.3-0.4-0.4-0.5-0.4c-0.2-0.2-0.4-0.2-0.6-0.2
		c-0.1,0-0.3,0-0.4,0.1c-0.1,0.1-0.2,0.2-0.3,0.3l-0.3-0.2c0.1-0.3,0.3-0.5,0.4-0.7c0.2-0.3,0.5-0.4,0.9-0.4c0.2,0,0.5,0.1,0.7,0.3
		c0.2,0.1,0.4,0.4,0.6,0.6c0.1,0.1,0.3,0.3,0.5,0.7v1C194.7,13.3,194.6,13.3,194.6,13.3z"/>
	<path d="M197.5,10.9c-0.1,0-0.2,0-0.3,0s-0.3,0-0.3,0c-0.3,0-0.5,0-0.8,0.1c-0.2,0-0.5,0.1-0.8,0.2c0.2-0.4,0.3-0.7,0.4-0.9
		c0.3-0.3,0.8-0.4,1.5-0.4c0.3,0,0.8,0.1,1.6,0.2c0.4,0.1,0.7,0.1,1,0.1c0.1,0,0.3,0,0.5,0s0.4,0,0.5,0l-0.2,1
		c-0.8,0.1-1.5,0.3-2.1,0.5c-0.9,0.3-1.5,0.6-2,1c-0.6,0.5-0.9,1-0.9,1.7c0,0.8,0.4,1.5,1.3,1.9c0.8,0.4,1.8,0.6,3.1,0.6h1.1V17
		l-1.3,0.9h-0.3c-0.8,0-1.5-0.1-2.1-0.2c-0.7-0.2-1.2-0.5-1.5-0.9c-0.4-0.5-0.6-1.1-0.6-1.9c0-0.7,0.2-1.2,0.5-1.8
		c0.2-0.4,0.6-0.8,1-1.1C196.6,11.5,196.9,11.3,197.5,10.9z M198.6,7.8l-0.5,0.8l-0.9-0.5l0.4-0.9L198.6,7.8z"/>
	<path d="M209.9,13.3h-5.6c-0.8,0-1.3-0.1-1.8-0.4c-0.6-0.3-0.8-0.8-0.8-1.5c0-0.4,0.1-0.7,0.2-1.1c0.1-0.1,0.2-0.4,0.4-0.8l0.2,0.1
		c-0.1,0.2-0.2,0.4-0.3,0.5c-0.1,0.3-0.2,0.5-0.2,0.7c0,0.5,0.2,0.8,0.7,1.1c0.4,0.2,1,0.3,1.6,0.3h5V12c0-0.4-0.1-0.8-0.2-1.1
		s-0.3-0.5-0.5-0.7l0.5-1c0.2,0.2,0.3,0.3,0.3,0.4c0.3,0.4,0.4,1.1,0.4,1.9v1.8C209.8,13.3,209.9,13.3,209.9,13.3z M205.8,8.5
		l-0.4,0.8l-1-0.5l0.5-0.8L205.8,8.5z M207.2,8l-0.4,0.8l-1-0.5l0.4-0.8L207.2,8z"/>
	<path d="M216,12.6c0,0.6-0.1,1.1-0.4,1.5c-0.3,0.3-0.6,0.6-1.2,0.7c-0.4,0.1-1,0.2-1.6,0.2c-0.8,0-1.3-0.1-1.8-0.4
		c-0.5-0.3-0.7-0.8-0.7-1.4c0-0.3,0-0.7,0.1-1s0.2-0.6,0.4-1c0.1-0.3,0.3-0.6,0.5-1l0.2,0.1c-0.1,0.3-0.3,0.5-0.4,0.7
		c-0.1,0.3-0.2,0.5-0.3,0.7c-0.1,0.3-0.1,0.5-0.1,0.8c0,0.5,0.2,0.8,0.5,1.1s0.8,0.4,1.5,0.4s1.3-0.1,1.8-0.3
		c0.6-0.3,0.9-0.5,0.9-0.9s-0.1-1-0.2-1.9c-0.1-0.7-0.2-1.5-0.3-2.3l-0.2-1.1l-0.3-0.1c0-0.5,0.1-1,0.3-1.4h0.1c0,0.1,0,0.3,0.1,0.3
		s0.1,0.1,0.2,0.2c0.1,0.1,0.3,0.1,0.4,0.2c0.1,0.1,0.2,0.1,0.3,0.1c0,0.3,0,0.5,0,0.6s-0.1,0.3-0.1,0.5l-0.3-0.1
		c0,0.1,0.1,0.5,0.2,1.2c0.1,0.8,0.2,1.5,0.3,2C216,11.5,216,12.1,216,12.6z"/>
	<path d="M225.5,13.3h-5.4c-0.8,0-1.5-0.1-2-0.2c-0.6-0.1-1.1-0.3-1.4-0.6c-0.3-0.3-0.5-0.7-0.5-1.2c0-0.3,0.1-0.8,0.3-1.2
		c0.1-0.3,0.3-0.6,0.3-0.7l0.2,0.1c-0.2,0.3-0.3,0.6-0.3,0.8s-0.1,0.3-0.1,0.5c0,0.5,0.3,0.9,0.8,1.1s1.5,0.4,2.7,0.4h4.3
		c-0.5-0.1-0.8-0.3-1-0.4c-0.2-0.2-0.4-0.4-0.4-0.7c0-0.4,0.1-0.8,0.4-1.2c0.3-0.5,0.6-0.7,0.9-0.7c0.4,0,0.7,0.2,0.8,0.7
		c0.1,0.4,0.2,0.9,0.2,1.6v1.7C225.3,13.3,225.5,13.3,225.5,13.3z M224.3,7.3l-0.5,0.8l-0.9-0.5l0.4-0.9L224.3,7.3z M224.9,11.5
		c0-0.3,0-0.6-0.1-0.8s-0.2-0.3-0.4-0.3c-0.1,0-0.2,0-0.3,0.1s-0.1,0.2-0.1,0.3c0,0.2,0.1,0.3,0.2,0.4
		C224.3,11.4,224.5,11.4,224.9,11.5z"/>
	<path d="M226.9,8.3l-0.4,0.8l-1-0.5l0.5-0.8L226.9,8.3z M228.7,11.6c0,0.6-0.1,1-0.3,1.2c-0.3,0.4-0.8,0.6-1.5,0.6
		c-0.3,0-0.5-0.1-0.7-0.2c-0.2-0.1-0.3-0.3-0.3-0.6s0.1-0.6,0.2-0.9c0.1-0.3,0.3-0.6,0.4-0.9h-0.1l0.4-1c0.7,0.4,1.1,0.6,1.3,0.7
		C228.5,10.9,228.7,11.2,228.7,11.6z M228.2,12c0-0.1-0.2-0.3-0.6-0.6c-0.2-0.1-0.4-0.2-0.6-0.3c-0.2,0.2-0.3,0.3-0.3,0.4
		c-0.1,0.2-0.2,0.3-0.2,0.4c0,0.2,0.1,0.4,0.2,0.5s0.3,0.2,0.4,0.2c0.2,0,0.5-0.1,0.7-0.2S228.2,12.1,228.2,12z M228.2,7.8l-0.4,0.8
		l-1-0.5l0.4-0.8L228.2,7.8z"/>
</g>
<g>
	<path d="M612.3,183.7c0,0.2,0,0.4-0.1,0.6c0,0.1-0.1,0.3-0.3,0.5h-0.1c0-0.1,0-0.2,0-0.3s0-0.2,0-0.2c0-0.3,0-0.6-0.1-1.1
		s-0.1-1-0.2-1.5c0-0.3-0.1-0.6-0.1-1c0.1-0.1,0.1-0.2,0.2-0.4s0.1-0.3,0.2-0.4c0,0.3,0.1,0.7,0.2,1.2s0.1,1,0.2,1.4
		C612.3,183,612.3,183.4,612.3,183.7z"/>
	<path d="M616.7,184.2c0,0.4-0.1,0.7-0.3,1c-0.2,0.2-0.4,0.4-0.8,0.5c-0.3,0.1-0.6,0.1-1.1,0.1s-0.9-0.1-1.2-0.3s-0.5-0.5-0.5-0.9
		c0-0.2,0-0.5,0.1-0.7s0.1-0.4,0.3-0.7c0.1-0.2,0.2-0.4,0.3-0.6l0.1,0.1c-0.1,0.2-0.2,0.3-0.2,0.5c-0.1,0.2-0.1,0.4-0.2,0.5
		c0,0.2-0.1,0.3-0.1,0.5c0,0.3,0.1,0.6,0.3,0.7s0.6,0.2,1,0.2s0.8-0.1,1.2-0.2c0.4-0.2,0.6-0.4,0.6-0.6c0-0.3,0-0.7-0.1-1.3
		c-0.1-0.5-0.1-1-0.2-1.6l-0.1-0.8l-0.2-0.1c0-0.3,0.1-0.7,0.2-1h0.1c0,0.1,0,0.2,0.1,0.2s0.1,0.1,0.1,0.1c0.1,0,0.2,0.1,0.3,0.1
		s0.1,0.1,0.2,0.1c0,0.2,0,0.3,0,0.4s0,0.2-0.1,0.4l-0.2-0.1c0,0.1,0,0.3,0.1,0.8s0.1,1,0.2,1.3
		C616.7,183.5,616.7,183.9,616.7,184.2z"/>
	<path d="M620.8,186.8l-1,0.7c-0.5,0-1,0-1.3-0.1c-0.5-0.1-0.9-0.2-1.2-0.5c-0.4-0.3-0.5-0.7-0.5-1.2c0-0.3,0-0.6,0.1-0.9
		c0.1-0.2,0.2-0.4,0.3-0.6c0.1-0.1,0.2-0.2,0.4-0.4c-0.3-0.1-0.4-0.2-0.5-0.3c-0.2-0.2-0.3-0.5-0.3-0.8s0.1-0.5,0.3-0.8
		c0.3-0.3,0.6-0.5,1-0.5c0.2,0,0.3,0,0.5,0.1c0.1,0.1,0.3,0.2,0.5,0.3c-0.3,0-0.5,0-0.8,0.1c-0.3,0-0.6,0.1-0.8,0.2
		c-0.3,0.1-0.4,0.2-0.4,0.4s0.1,0.3,0.4,0.5c0.3,0.1,0.5,0.2,0.9,0.3c0.3-0.1,0.5-0.3,0.8-0.4c0.3-0.1,0.6-0.2,0.9-0.3l-0.2,0.6
		c-0.5,0.2-0.9,0.4-1.2,0.5c-0.5,0.2-0.9,0.5-1.1,0.7c-0.3,0.3-0.5,0.6-0.5,1s0.1,0.7,0.4,0.9c0.2,0.2,0.6,0.3,1.1,0.4
		c0.4,0.1,0.8,0.1,1.4,0.1c0.1,0,0.2,0,0.4,0S620.7,186.8,620.8,186.8L620.8,186.8z"/>
	<path d="M625.7,184.9c0,0.5-0.2,0.9-0.7,1.2c-0.4,0.2-1,0.4-1.8,0.4c-0.6,0-1-0.1-1.3-0.3s-0.5-0.6-0.5-1c0-0.3,0-0.6,0.1-1
		c0.1-0.3,0.2-0.6,0.4-0.9l0.2,0.1c-0.1,0.2-0.1,0.3-0.2,0.5c-0.1,0.2-0.1,0.4-0.2,0.5c0,0.2-0.1,0.3-0.1,0.5c0,0.3,0.1,0.6,0.4,0.8
		c0.3,0.1,0.7,0.2,1.2,0.2c0.6,0,1-0.1,1.5-0.3s0.7-0.5,0.7-0.9c0-0.1,0-0.2,0-0.3s0-0.1,0-0.2c-0.1,0-0.2,0.1-0.3,0.1s-0.2,0-0.3,0
		c-0.2,0-0.4-0.1-0.6-0.2c-0.2-0.1-0.3-0.3-0.3-0.6s0.1-0.6,0.2-0.8c0.2-0.3,0.4-0.5,0.6-0.5c0.3,0,0.5,0.2,0.7,0.6
		c0.2,0.4,0.2,0.8,0.2,1.2L625.7,184.9L625.7,184.9z M624.4,181l-0.3,0.6l-0.6-0.3l0.3-0.6L624.4,181z M625.1,183.4
		c-0.1-0.2-0.1-0.3-0.1-0.3c-0.1-0.1-0.2-0.2-0.3-0.2s-0.2,0-0.3,0.1s-0.1,0.1-0.1,0.2c0,0.1,0,0.1,0.1,0.2s0.2,0.1,0.3,0.1
		s0.1,0,0.2,0S625,183.4,625.1,183.4z M625.3,180.7l-0.3,0.6l-0.6-0.3l0.3-0.6L625.3,180.7z"/>
	<path d="M627,183.7c0,0.2,0,0.4-0.1,0.6c0,0.1-0.1,0.3-0.3,0.5h-0.1c0-0.1,0-0.2,0-0.3s0-0.2,0-0.2c0-0.3,0-0.6-0.1-1.1
		s-0.1-1-0.2-1.5c0-0.3-0.1-0.6-0.1-1c0.1-0.1,0.1-0.2,0.2-0.4s0.1-0.3,0.2-0.4c0,0.3,0.1,0.7,0.2,1.2s0.1,1,0.2,1.4
		C627,183,627,183.4,627,183.7z"/>
	<path d="M631.3,184.7c0,0.3-0.1,0.6-0.4,0.9c-0.2,0.3-0.5,0.5-0.8,0.7s-0.6,0.3-0.7,0.3c-0.2,0-0.4,0-0.6-0.1
		c-0.2,0-0.3-0.1-0.6-0.2c-0.2-0.1-0.4-0.1-0.6-0.2l0.1-0.2c0.2,0,0.4,0.1,0.5,0.1s0.4,0.1,0.5,0.1c0.3,0,0.7-0.1,1-0.3
		s0.6-0.4,0.8-0.7s0.3-0.6,0.3-0.8s-0.1-0.4-0.2-0.6c-0.1-0.2-0.2-0.4-0.4-0.6l0.2-0.6c0.2,0.2,0.4,0.4,0.5,0.6
		c0.1,0.2,0.2,0.5,0.2,0.8v0.8H631.3z"/>
	<path d="M632.6,183.7c0,0.2,0,0.4-0.1,0.6c0,0.1-0.1,0.3-0.3,0.5h-0.1c0-0.1,0-0.2,0-0.3s0-0.2,0-0.2c0-0.3,0-0.6-0.1-1.1
		s-0.1-1-0.2-1.5c0-0.3-0.1-0.6-0.1-1c0.1-0.1,0.1-0.2,0.2-0.4s0.1-0.3,0.2-0.4c0,0.3,0.1,0.7,0.2,1.2s0.1,1,0.2,1.4
		C632.6,183,632.6,183.4,632.6,183.7z"/>
	<path d="M638.6,184.7h-3.7c-0.5,0-0.9-0.1-1.2-0.3c-0.4-0.2-0.6-0.6-0.6-1c0-0.2,0.1-0.5,0.2-0.7c0-0.1,0.1-0.3,0.3-0.5l0.1,0.1
		c-0.1,0.1-0.1,0.2-0.2,0.4c-0.1,0.2-0.1,0.4-0.1,0.5c0,0.3,0.2,0.5,0.5,0.7s0.7,0.2,1.1,0.2h3.3V184c0-0.3,0-0.5-0.1-0.7
		s-0.2-0.3-0.4-0.5l0.3-0.6c0.1,0.1,0.2,0.2,0.2,0.3c0.2,0.3,0.3,0.7,0.3,1.3L638.6,184.7L638.6,184.7z M635.9,181.5l-0.3,0.6
		l-0.6-0.3l0.3-0.6L635.9,181.5z M636.8,181.1l-0.3,0.6l-0.6-0.3l0.3-0.6L636.8,181.1z"/>
</g>
<g>
	<path d="M612.5,205.8c0,0.2,0,0.4-0.1,0.6c0,0.1-0.1,0.3-0.3,0.5H612c0-0.1,0-0.2,0-0.3s0-0.2,0-0.2c0-0.3,0-0.6-0.1-1.1
		s-0.1-1-0.2-1.5c0-0.3-0.1-0.6-0.1-1c0.1-0.1,0.1-0.2,0.2-0.4s0.1-0.3,0.2-0.4c0,0.3,0.1,0.7,0.2,1.2s0.1,1,0.2,1.4
		C612.5,205.2,612.5,205.6,612.5,205.8z"/>
	<path d="M616.9,206.3c0,0.4-0.1,0.7-0.3,1c-0.2,0.2-0.4,0.4-0.8,0.5c-0.3,0.1-0.6,0.1-1.1,0.1s-0.9-0.1-1.2-0.3s-0.5-0.5-0.5-0.9
		c0-0.2,0-0.5,0.1-0.7s0.1-0.4,0.3-0.7c0.1-0.2,0.2-0.4,0.3-0.6l0.1,0.1c-0.1,0.2-0.2,0.3-0.2,0.5c-0.1,0.2-0.1,0.4-0.2,0.5
		c0,0.2-0.1,0.3-0.1,0.5c0,0.3,0.1,0.6,0.3,0.7s0.6,0.2,1,0.2s0.8-0.1,1.2-0.2c0.4-0.2,0.6-0.4,0.6-0.6c0-0.3,0-0.7-0.1-1.3
		c-0.1-0.5-0.1-1-0.2-1.6l-0.1-0.8l-0.2-0.1c0-0.3,0.1-0.7,0.2-1h0.1c0,0.1,0,0.2,0.1,0.2s0.1,0.1,0.1,0.1c0.1,0,0.2,0.1,0.3,0.1
		s0.1,0.1,0.2,0.1c0,0.2,0,0.3,0,0.4s0,0.2-0.1,0.4l-0.2-0.1c0,0.1,0,0.3,0.1,0.8s0.1,1,0.2,1.3
		C616.9,205.6,616.9,206.1,616.9,206.3z"/>
	<path d="M618.4,201.6c0,0.1,0,0.1-0.1,0.2c-0.1,0-0.1,0.1-0.2,0.1l-0.7,0.3c0-0.1,0.1-0.2,0.4-0.3c-0.1,0-0.1-0.1-0.2-0.1
		c-0.1,0-0.1-0.1-0.1-0.2c0-0.1,0.1-0.2,0.2-0.3c0.2-0.2,0.3-0.2,0.4-0.2c0.1,0,0.1,0,0.1,0.1s0.1,0.1,0.1,0.1v0.1
		c0,0,0,0.1-0.1,0.1c-0.1-0.1-0.2-0.1-0.3-0.1s-0.1,0-0.2,0s-0.1,0.1-0.1,0.1s0.1,0.1,0.2,0.2s0.2,0.1,0.3,0.1s0.1,0,0.1,0
		S618.3,201.6,618.4,201.6z M618.3,205.8c0,0.2,0,0.4-0.1,0.6c0,0.1-0.1,0.3-0.3,0.5h-0.1c0-0.1,0-0.2,0-0.3s0-0.2,0-0.2
		c0-0.3,0-0.6-0.1-1.1s-0.1-1-0.2-1.5c0-0.3-0.1-0.6-0.1-1c0.1-0.1,0.1-0.2,0.2-0.4s0.1-0.3,0.2-0.4c0,0.3,0.1,0.7,0.2,1.2
		s0.1,1,0.2,1.4C618.2,205.2,618.3,205.6,618.3,205.8z"/>
	<path d="M622,206.6c0,0.4-0.2,0.9-0.5,1.3c-0.4,0.5-0.8,0.7-1.2,0.7c-0.2,0-0.3,0-0.5-0.1c-0.1,0-0.3-0.1-0.5-0.1
		c-0.2-0.1-0.3-0.1-0.5-0.2l0.1-0.1c0.1,0,0.3,0.1,0.5,0.1s0.3,0.1,0.4,0.1c0.3,0,0.6-0.1,0.9-0.2c0.2-0.1,0.4-0.3,0.7-0.6
		c0.1-0.1,0.3-0.3,0.5-0.6c-0.4,0-0.6-0.1-0.8-0.2c-0.2-0.1-0.3-0.3-0.3-0.6s0.1-0.5,0.2-0.7c0.1-0.3,0.3-0.4,0.6-0.4
		c0.2,0,0.4,0.1,0.5,0.4c0.1,0.2,0.1,0.5,0.1,0.9v0.3L622,206.6L622,206.6z M621.8,206.2c-0.1-0.3-0.1-0.4-0.2-0.5
		c-0.1-0.1-0.2-0.1-0.3-0.1s-0.1,0-0.2,0.1s-0.1,0.1-0.1,0.2c0,0.1,0.1,0.2,0.2,0.3S621.5,206.2,621.8,206.2z"/>
	<path d="M626,206.8c0,0.3-0.1,0.6-0.4,0.9c-0.2,0.3-0.5,0.5-0.8,0.7s-0.6,0.3-0.7,0.3c-0.2,0-0.4,0-0.6-0.1c-0.2,0-0.3-0.1-0.6-0.2
		c-0.2-0.1-0.4-0.1-0.6-0.2l0.1-0.2c0.2,0,0.4,0.1,0.5,0.1s0.4,0.1,0.5,0.1c0.3,0,0.7-0.1,1-0.3s0.6-0.4,0.8-0.7s0.3-0.6,0.3-0.8
		s-0.1-0.4-0.2-0.6c-0.1-0.2-0.2-0.4-0.4-0.6l0.2-0.6c0.2,0.2,0.4,0.4,0.5,0.6c0.1,0.2,0.2,0.5,0.2,0.8v0.8H626z"/>
	<path d="M627.3,205.8c0,0.2,0,0.4-0.1,0.6c0,0.1-0.1,0.3-0.3,0.5h-0.1c0-0.1,0-0.2,0-0.3s0-0.2,0-0.2c0-0.3,0-0.6-0.1-1.1
		s-0.1-1-0.2-1.5c0-0.3-0.1-0.6-0.1-1c0.1-0.1,0.1-0.2,0.2-0.4s0.1-0.3,0.2-0.4c0,0.3,0.1,0.7,0.2,1.2s0.1,1,0.2,1.4
		C627.3,205.2,627.3,205.6,627.3,205.8z"/>
	<path d="M632.3,207c0,0.5-0.2,0.9-0.7,1.2c-0.4,0.2-1,0.4-1.8,0.4c-0.6,0-1-0.1-1.3-0.3s-0.5-0.6-0.5-1c0-0.3,0-0.6,0.1-1
		c0.1-0.3,0.2-0.6,0.4-0.9l0.2,0.1c-0.1,0.2-0.1,0.3-0.2,0.5c-0.1,0.2-0.1,0.4-0.2,0.5c0,0.2-0.1,0.3-0.1,0.5c0,0.3,0.1,0.6,0.4,0.8
		c0.3,0.1,0.7,0.2,1.2,0.2c0.6,0,1-0.1,1.5-0.3s0.7-0.5,0.7-0.9c0-0.1,0-0.2,0-0.3s0-0.1,0-0.2c-0.1,0-0.2,0.1-0.3,0.1s-0.2,0-0.3,0
		c-0.2,0-0.4-0.1-0.6-0.2c-0.2-0.1-0.3-0.3-0.3-0.6s0.1-0.6,0.2-0.8c0.2-0.3,0.4-0.5,0.6-0.5c0.3,0,0.5,0.2,0.7,0.6
		c0.2,0.4,0.2,0.8,0.2,1.2L632.3,207L632.3,207z M630.9,203.2l-0.3,0.6l-0.6-0.3l0.3-0.6L630.9,203.2z M631.6,205.6
		c-0.1-0.2-0.1-0.3-0.1-0.3c-0.1-0.1-0.2-0.2-0.3-0.2s-0.2,0-0.3,0.1s-0.1,0.1-0.1,0.2c0,0.1,0,0.1,0.1,0.2s0.2,0.1,0.3,0.1
		s0.1,0,0.2,0S631.6,205.6,631.6,205.6z M631.8,202.8l-0.3,0.6l-0.6-0.3l0.3-0.6L631.8,202.8z"/>
	<path d="M635.8,205.8c0,0.2,0,0.4-0.1,0.6c0,0.1-0.1,0.3-0.3,0.5h-0.1c0-0.1,0-0.2,0-0.3s0-0.2,0-0.2c0-0.3,0-0.6-0.1-1.1
		s-0.1-1-0.2-1.5c0-0.3-0.1-0.6-0.1-1c0.1-0.1,0.1-0.2,0.2-0.4s0.1-0.3,0.2-0.4c0,0.3,0.1,0.7,0.2,1.2s0.1,1,0.2,1.4
		C635.8,205.2,635.8,205.6,635.8,205.8z"/>
	<path d="M640.2,206.3c0,0.4-0.1,0.7-0.3,1c-0.2,0.2-0.4,0.4-0.8,0.5c-0.3,0.1-0.6,0.1-1.1,0.1s-0.9-0.1-1.2-0.3s-0.5-0.5-0.5-0.9
		c0-0.2,0-0.5,0.1-0.7s0.1-0.4,0.3-0.7c0.1-0.2,0.2-0.4,0.3-0.6l0.1,0.1c-0.1,0.2-0.2,0.3-0.2,0.5c-0.1,0.2-0.1,0.4-0.2,0.5
		c0,0.2-0.1,0.3-0.1,0.5c0,0.3,0.1,0.6,0.3,0.7s0.6,0.2,1,0.2s0.8-0.1,1.2-0.2c0.4-0.2,0.6-0.4,0.6-0.6c0-0.3,0-0.7-0.1-1.3
		c-0.1-0.5-0.1-1-0.2-1.6l-0.1-0.8l-0.2-0.1c0-0.3,0.1-0.7,0.2-1h0.1c0,0.1,0,0.2,0.1,0.2s0.1,0.1,0.1,0.1c0.1,0,0.2,0.1,0.3,0.1
		s0.1,0.1,0.2,0.1c0,0.2,0,0.3,0,0.4s0,0.2-0.1,0.4l-0.2-0.1c0,0.1,0,0.3,0.1,0.8s0.1,1,0.2,1.3
		C640.2,205.6,640.2,206.1,640.2,206.3z"/>
	<path d="M642.9,206.8h-0.5c-0.4,0-0.8,0-1.1,0.1c-0.4,0.1-0.6,0.2-0.6,0.4s0,0.4,0.1,0.6s0.1,0.4,0.2,0.6s0.1,0.4,0.1,0.6
		c0,0.1,0,0.2,0,0.3s0,0.2-0.1,0.3c-0.1-0.2-0.1-0.4-0.2-0.6c-0.1-0.4-0.2-0.7-0.3-0.9c-0.1-0.3-0.1-0.5-0.1-0.6
		c0-0.3,0.1-0.6,0.2-0.8s0.4-0.3,0.6-0.4c0.2-0.1,0.6-0.1,1-0.2c-0.2-0.2-0.3-0.3-0.3-0.3c-0.1-0.1-0.3-0.2-0.4-0.2
		c-0.1,0-0.2,0-0.2,0.1c-0.1,0-0.1,0.1-0.2,0.2l-0.2-0.1c0.1-0.2,0.2-0.4,0.3-0.5c0.2-0.2,0.4-0.3,0.6-0.3c0.2,0,0.3,0.1,0.5,0.2
		c0.1,0.1,0.3,0.2,0.4,0.4c0.1,0.1,0.2,0.2,0.3,0.4L642.9,206.8L642.9,206.8z"/>
	<path d="M644.2,205.8c0,0.2,0,0.4-0.1,0.6c0,0.1-0.1,0.3-0.3,0.5h-0.1c0-0.1,0-0.2,0-0.3s0-0.2,0-0.2c0-0.3,0-0.6-0.1-1.1
		s-0.1-1-0.2-1.5c0-0.3-0.1-0.6-0.1-1c0.1-0.1,0.1-0.2,0.2-0.4s0.1-0.3,0.2-0.4c0,0.3,0.1,0.7,0.2,1.2s0.1,1,0.2,1.4
		C644.2,205.2,644.2,205.6,644.2,205.8z"/>
	<path d="M648.6,206.3c0,0.4-0.1,0.7-0.3,1c-0.2,0.2-0.4,0.4-0.8,0.5c-0.3,0.1-0.6,0.1-1.1,0.1s-0.9-0.1-1.2-0.3s-0.5-0.5-0.5-0.9
		c0-0.2,0-0.5,0.1-0.7s0.1-0.4,0.3-0.7c0.1-0.2,0.2-0.4,0.3-0.6l0.1,0.1c-0.1,0.2-0.2,0.3-0.2,0.5c-0.1,0.2-0.1,0.4-0.2,0.5
		c0,0.2-0.1,0.3-0.1,0.5c0,0.3,0.1,0.6,0.3,0.7s0.6,0.2,1,0.2s0.8-0.1,1.2-0.2c0.4-0.2,0.6-0.4,0.6-0.6c0-0.3,0-0.7-0.1-1.3
		c-0.1-0.5-0.1-1-0.2-1.6l-0.1-0.8l-0.2-0.1c0-0.3,0.1-0.7,0.2-1h0.1c0,0.1,0,0.2,0.1,0.2s0.1,0.1,0.1,0.1c0.1,0,0.2,0.1,0.3,0.1
		s0.1,0.1,0.2,0.1c0,0.2,0,0.3,0,0.4s0,0.2-0.1,0.4l-0.2-0.1c0,0.1,0,0.3,0.1,0.8s0.1,1,0.2,1.3
		C648.6,205.6,648.6,206.1,648.6,206.3z"/>
	<path d="M653.4,204.8c0,0.1,0,0.2,0,0.3s0,0.1,0,0.2c-0.1-0.1-0.2-0.2-0.3-0.3s-0.3-0.1-0.4-0.1c-0.2,0-0.5,0.1-0.7,0.4
		c-0.2,0.2-0.3,0.4-0.3,0.6c0,0,0,0.1,0.1,0.1s0.2,0,0.3,0h0.3c0.2,0,0.3,0,0.4,0s0.2,0,0.3,0s0.2,0.1,0.2,0.3
		c0,0.7-0.3,1.2-0.9,1.5c-0.5,0.3-1.2,0.5-2.1,0.5c-0.5,0-0.8-0.1-1.1-0.3s-0.4-0.5-0.4-0.9c0-0.3,0-0.6,0.1-0.9
		c0.1-0.2,0.2-0.5,0.3-0.7c0,0,0.1-0.2,0.2-0.5l0.2,0.1c-0.2,0.3-0.3,0.6-0.4,0.8s-0.1,0.5-0.1,0.7c0,0.3,0.1,0.6,0.3,0.7
		s0.5,0.2,0.9,0.2c0.3,0,0.7-0.1,1.1-0.2c0.4-0.1,0.7-0.2,1-0.4s0.4-0.3,0.4-0.3v-0.1c0,0-0.1,0-0.2,0h-0.9c-0.1,0-0.2,0-0.3-0.1
		s-0.1-0.2-0.1-0.3c0-0.2,0.1-0.4,0.2-0.7c0.2-0.3,0.3-0.6,0.6-0.8c0.3-0.3,0.5-0.4,0.8-0.4c0.2,0,0.3,0.1,0.4,0.2
		S653.4,204.7,653.4,204.8z M651.1,209.1l-0.3,0.6l-0.6-0.3l0.3-0.6L651.1,209.1z M652,208.7l-0.3,0.6l-0.6-0.3l0.3-0.6L652,208.7z"
		/>
	<path d="M654.6,203.5l-0.3,0.6l-0.6-0.3l0.3-0.6L654.6,203.5z M655.9,205.7c0,0.4-0.1,0.6-0.2,0.8c-0.2,0.3-0.5,0.4-1,0.4
		c-0.2,0-0.3,0-0.5-0.1c-0.1-0.1-0.2-0.2-0.2-0.4s0-0.4,0.1-0.6c0.1-0.2,0.2-0.4,0.3-0.6h-0.1l0.2-0.7c0.5,0.2,0.8,0.4,0.8,0.5
		C655.7,205.2,655.9,205.4,655.9,205.7z M655.5,206c0-0.1-0.1-0.2-0.4-0.4c-0.1-0.1-0.3-0.1-0.4-0.2c-0.1,0.1-0.2,0.2-0.2,0.2
		c-0.1,0.1-0.1,0.2-0.1,0.3s0,0.2,0.1,0.3s0.2,0.1,0.3,0.1s0.3,0,0.5-0.1S655.5,206,655.5,206z M655.5,203.2l-0.3,0.6l-0.6-0.3
		l0.3-0.6L655.5,203.2z"/>
</g>
<g>
	<path d="M612.5,224.8c0,0.2,0,0.4-0.1,0.6c0,0.1-0.1,0.3-0.3,0.5H612c0-0.1,0-0.2,0-0.3s0-0.2,0-0.2c0-0.3,0-0.6-0.1-1.1
		s-0.1-1-0.2-1.5c0-0.3-0.1-0.6-0.1-1c0.1-0.1,0.1-0.2,0.2-0.4s0.1-0.3,0.2-0.4c0,0.3,0.1,0.7,0.2,1.2s0.1,1,0.2,1.4
		C612.5,224.2,612.5,224.5,612.5,224.8z"/>
	<path d="M616.9,225.3c0,0.4-0.1,0.7-0.3,1c-0.2,0.2-0.4,0.4-0.8,0.5c-0.3,0.1-0.6,0.1-1.1,0.1s-0.9-0.1-1.2-0.3s-0.5-0.5-0.5-0.9
		c0-0.2,0-0.5,0.1-0.7s0.1-0.4,0.3-0.7c0.1-0.2,0.2-0.4,0.3-0.6l0.1,0.1c-0.1,0.2-0.2,0.3-0.2,0.5c-0.1,0.2-0.1,0.4-0.2,0.5
		c0,0.2-0.1,0.3-0.1,0.5c0,0.3,0.1,0.6,0.3,0.7s0.6,0.2,1,0.2s0.8-0.1,1.2-0.2c0.4-0.2,0.6-0.4,0.6-0.6c0-0.3,0-0.7-0.1-1.3
		c-0.1-0.5-0.1-1-0.2-1.6l-0.1-0.8l-0.2-0.1c0-0.3,0.1-0.7,0.2-1h0.1c0,0.1,0,0.2,0.1,0.2s0.1,0.1,0.1,0.1c0.1,0,0.2,0.1,0.3,0.1
		s0.1,0.1,0.2,0.1c0,0.2,0,0.3,0,0.4s0,0.2-0.1,0.4l-0.2-0.1c0,0.1,0,0.3,0.1,0.8s0.1,1,0.2,1.3C616.9,224.6,616.9,225,616.9,225.3z
		"/>
	<path d="M619.6,225.8h-1.8c-0.1,0-0.3,0-0.4-0.1s-0.2-0.2-0.2-0.3s0-0.2,0-0.3s0-0.2,0.1-0.3h0.1c0,0.1,0.1,0.2,0.2,0.2
		c0.1,0,0.1,0.1,0.3,0.1h1.5c0-0.5-0.1-0.8-0.2-1.1c-0.2-0.4-0.4-0.6-0.8-0.7l0.1-0.8c0.5,0.2,0.8,0.6,1,1.1
		c0.2,0.4,0.2,0.9,0.2,1.5L619.6,225.8L619.6,225.8z"/>
	<path d="M624.5,223.8c0,0.1,0,0.2,0,0.3s0,0.1,0,0.2c-0.1-0.1-0.2-0.2-0.3-0.3s-0.3-0.1-0.4-0.1c-0.2,0-0.5,0.1-0.7,0.4
		c-0.2,0.2-0.3,0.4-0.3,0.6c0,0,0,0.1,0.1,0.1s0.2,0,0.3,0h0.3c0.2,0,0.3,0,0.4,0s0.2,0,0.3,0s0.2,0.1,0.2,0.3
		c0,0.7-0.3,1.2-0.9,1.5c-0.5,0.3-1.2,0.5-2.1,0.5c-0.5,0-0.8-0.1-1.1-0.3s-0.4-0.5-0.4-0.9c0-0.3,0-0.6,0.1-0.9
		c0.1-0.2,0.2-0.5,0.3-0.7c0,0,0.1-0.2,0.2-0.5l0.2,0.1c-0.2,0.3-0.3,0.6-0.4,0.8s-0.1,0.5-0.1,0.7c0,0.3,0.1,0.6,0.3,0.7
		s0.5,0.2,0.9,0.2c0.3,0,0.7-0.1,1.1-0.2c0.4-0.1,0.7-0.2,1-0.4s0.4-0.3,0.4-0.3v-0.1c0,0-0.1,0-0.2,0h-0.9c-0.1,0-0.2,0-0.3-0.1
		s-0.1-0.2-0.1-0.3c0-0.2,0.1-0.4,0.2-0.7c0.2-0.3,0.3-0.6,0.6-0.8c0.3-0.3,0.5-0.4,0.8-0.4c0.2,0,0.3,0.1,0.4,0.2
		S624.5,223.7,624.5,223.8z M622.1,228.1l-0.3,0.6l-0.6-0.3l0.3-0.6L622.1,228.1z M623,227.7l-0.3,0.6l-0.6-0.3l0.3-0.6L623,227.7z"
		/>
	<path d="M628.2,225.6c0,0.4-0.2,0.9-0.5,1.3c-0.4,0.5-0.8,0.7-1.2,0.7c-0.2,0-0.3,0-0.5-0.1c-0.1,0-0.3-0.1-0.5-0.1
		c-0.2-0.1-0.3-0.1-0.5-0.2l0.1-0.1c0.1,0,0.3,0.1,0.5,0.1s0.3,0.1,0.4,0.1c0.3,0,0.6-0.1,0.9-0.2c0.2-0.1,0.4-0.3,0.7-0.6
		c0.1-0.1,0.3-0.3,0.5-0.6c-0.4,0-0.6-0.1-0.8-0.2c-0.2-0.1-0.3-0.3-0.3-0.6s0.1-0.5,0.2-0.7c0.1-0.3,0.3-0.4,0.6-0.4
		c0.2,0,0.4,0.1,0.5,0.4c0.1,0.2,0.1,0.5,0.1,0.9v0.3L628.2,225.6L628.2,225.6z M627.9,225.1c-0.1-0.3-0.1-0.4-0.2-0.5
		c-0.1-0.1-0.2-0.1-0.3-0.1s-0.1,0-0.2,0.1s-0.1,0.1-0.1,0.2c0,0.1,0.1,0.2,0.2,0.3S627.7,225.1,627.9,225.1z"/>
	<path d="M632.4,225.8c0,0.6-0.2,1-0.5,1.3c-0.4,0.3-1,0.4-1.8,0.4c-0.5,0-0.9-0.1-1.2-0.3s-0.5-0.5-0.5-0.9c0-0.2,0-0.5,0.1-0.7
		s0.1-0.5,0.2-0.7c0.1-0.1,0.2-0.4,0.3-0.6l0.2,0.1c-0.2,0.4-0.3,0.7-0.4,0.9s-0.1,0.4-0.1,0.6c0,0.3,0.1,0.6,0.3,0.7s0.6,0.3,1,0.3
		c0.5,0,0.9-0.1,1.3-0.3c0.5-0.2,0.7-0.5,0.7-0.9c0-0.3,0-0.5-0.1-0.7s-0.2-0.4-0.3-0.5l0.3-0.8c0.1,0.2,0.2,0.4,0.3,0.6
		s0.1,0.5,0.1,0.9v0.6L632.4,225.8L632.4,225.8z M631,222.8l-0.3,0.6l-0.6-0.3l0.3-0.6L631,222.8z"/>
	<path d="M635.9,224.8c0,0.2,0,0.4-0.1,0.6c0,0.1-0.1,0.3-0.3,0.5h-0.1c0-0.1,0-0.2,0-0.3s0-0.2,0-0.2c0-0.3,0-0.6-0.1-1.1
		s-0.1-1-0.2-1.5c0-0.3-0.1-0.6-0.1-1c0.1-0.1,0.1-0.2,0.2-0.4s0.1-0.3,0.2-0.4c0,0.3,0.1,0.7,0.2,1.2s0.1,1,0.2,1.4
		C635.9,224.2,635.9,224.5,635.9,224.8z"/>
	<path d="M640.3,225.3c0,0.4-0.1,0.7-0.3,1c-0.2,0.2-0.4,0.4-0.8,0.5c-0.3,0.1-0.6,0.1-1.1,0.1s-0.9-0.1-1.2-0.3s-0.5-0.5-0.5-0.9
		c0-0.2,0-0.5,0.1-0.7s0.1-0.4,0.3-0.7c0.1-0.2,0.2-0.4,0.3-0.6l0.1,0.1c-0.1,0.2-0.2,0.3-0.2,0.5c-0.1,0.2-0.1,0.4-0.2,0.5
		c0,0.2-0.1,0.3-0.1,0.5c0,0.3,0.1,0.6,0.3,0.7s0.6,0.2,1,0.2s0.8-0.1,1.2-0.2c0.4-0.2,0.6-0.4,0.6-0.6c0-0.3,0-0.7-0.1-1.3
		c-0.1-0.5-0.1-1-0.2-1.6l-0.1-0.8l-0.2-0.1c0-0.3,0.1-0.7,0.2-1h0.1c0,0.1,0,0.2,0.1,0.2s0.1,0.1,0.1,0.1c0.1,0,0.2,0.1,0.3,0.1
		s0.1,0.1,0.2,0.1c0,0.2,0,0.3,0,0.4s0,0.2-0.1,0.4l-0.2-0.1c0,0.1,0,0.3,0.1,0.8s0.1,1,0.2,1.3C640.3,224.6,640.3,225,640.3,225.3z
		"/>
	<path d="M643.8,225.6c0,0.4-0.2,0.9-0.5,1.3c-0.4,0.5-0.8,0.7-1.2,0.7c-0.2,0-0.3,0-0.5-0.1c-0.1,0-0.3-0.1-0.5-0.1
		c-0.2-0.1-0.3-0.1-0.5-0.2l0.1-0.1c0.1,0,0.3,0.1,0.5,0.1s0.3,0.1,0.4,0.1c0.3,0,0.6-0.1,0.9-0.2c0.2-0.1,0.4-0.3,0.7-0.6
		c0.1-0.1,0.3-0.3,0.5-0.6c-0.4,0-0.6-0.1-0.8-0.2c-0.2-0.1-0.3-0.3-0.3-0.6s0.1-0.5,0.2-0.7c0.1-0.3,0.3-0.4,0.6-0.4
		c0.2,0,0.4,0.1,0.5,0.4c0.1,0.2,0.1,0.5,0.1,0.9v0.3L643.8,225.6L643.8,225.6z M643.5,225.1c-0.1-0.3-0.1-0.4-0.2-0.5
		c-0.1-0.1-0.2-0.1-0.3-0.1s-0.1,0-0.2,0.1s-0.1,0.1-0.1,0.2c0,0.1,0.1,0.2,0.2,0.3S643.3,225.1,643.5,225.1z"/>
	<path d="M648.4,225.8h-4.9v-0.7h0.6c0.2,0,0.3,0,0.5-0.1s0.4-0.2,0.6-0.3c0-0.1,0.1-0.2,0.1-0.4s0-0.3,0-0.4c0-0.3,0-0.6-0.1-0.9
		c0-0.2-0.1-0.5-0.2-0.9c0-0.2-0.1-0.4-0.2-0.6l-0.2-0.1c0-0.2,0-0.3,0.1-0.5s0.1-0.3,0.1-0.4c0,0.1,0.1,0.2,0.3,0.3
		c0.1,0.1,0.3,0.1,0.5,0.1c0,0.3,0,0.4-0.1,0.5s0,0.2-0.1,0.3h-0.1h-0.1c0.1,0.3,0.2,0.6,0.2,0.9s0.1,0.6,0.1,0.8s0,0.4-0.1,0.6
		c0,0.1,0,0.2-0.1,0.4c0.5-0.3,0.7-0.4,0.9-0.5c0.4-0.2,0.7-0.3,1-0.3c0.4,0,0.6,0.1,0.8,0.3s0.2,0.5,0.2,0.8v1.1L648.4,225.8
		L648.4,225.8z M647.8,224.8c0-0.1-0.1-0.2-0.2-0.3s-0.3-0.1-0.6-0.1c-0.2,0-0.4,0-0.7,0.1c-0.2,0.1-0.4,0.2-0.6,0.3
		c-0.2,0.1-0.3,0.2-0.5,0.3h1.7C647.5,225.1,647.8,225,647.8,224.8z"/>
	<path d="M652.6,225.8c0,0.6-0.2,1-0.5,1.3c-0.4,0.3-1,0.4-1.8,0.4c-0.5,0-0.9-0.1-1.2-0.3s-0.5-0.5-0.5-0.9c0-0.2,0-0.5,0.1-0.7
		s0.1-0.5,0.2-0.7c0.1-0.1,0.2-0.4,0.3-0.6l0.2,0.1c-0.2,0.4-0.3,0.7-0.4,0.9s-0.1,0.4-0.1,0.6c0,0.3,0.1,0.6,0.3,0.7s0.6,0.3,1,0.3
		c0.5,0,0.9-0.1,1.3-0.3c0.5-0.2,0.7-0.5,0.7-0.9c0-0.3,0-0.5-0.1-0.7s-0.2-0.4-0.3-0.5l0.3-0.8c0.1,0.2,0.2,0.4,0.3,0.6
		s0.1,0.5,0.1,0.9v0.6L652.6,225.8L652.6,225.8z M651.2,222.8l-0.3,0.6l-0.6-0.3l0.3-0.6L651.2,222.8z"/>
	<path d="M657.5,223.8c0,0.1,0,0.2,0,0.3s0,0.1,0,0.2c-0.1-0.1-0.2-0.2-0.3-0.3s-0.3-0.1-0.4-0.1c-0.2,0-0.5,0.1-0.7,0.4
		c-0.2,0.2-0.3,0.4-0.3,0.6c0,0,0,0.1,0.1,0.1s0.2,0,0.3,0h0.3c0.2,0,0.3,0,0.4,0s0.2,0,0.3,0s0.2,0.1,0.2,0.3
		c0,0.7-0.3,1.2-0.9,1.5c-0.5,0.3-1.2,0.5-2.1,0.5c-0.5,0-0.8-0.1-1.1-0.3s-0.4-0.5-0.4-0.9c0-0.3,0-0.6,0.1-0.9
		c0.1-0.2,0.2-0.5,0.3-0.7c0,0,0.1-0.2,0.2-0.5l0.2,0.1c-0.2,0.3-0.3,0.6-0.4,0.8s-0.1,0.5-0.1,0.7c0,0.3,0.1,0.6,0.3,0.7
		s0.5,0.2,0.9,0.2c0.3,0,0.7-0.1,1.1-0.2c0.4-0.1,0.7-0.2,1-0.4s0.4-0.3,0.4-0.3v-0.1c0,0-0.1,0-0.2,0h-0.9c-0.1,0-0.2,0-0.3-0.1
		s-0.1-0.2-0.1-0.3c0-0.2,0.1-0.4,0.2-0.7c0.2-0.3,0.3-0.6,0.6-0.8c0.3-0.3,0.5-0.4,0.8-0.4c0.2,0,0.3,0.1,0.4,0.2
		S657.5,223.7,657.5,223.8z M655.1,228.1l-0.3,0.6l-0.6-0.3l0.3-0.6L655.1,228.1z M656,227.7l-0.3,0.6l-0.6-0.3l0.3-0.6L656,227.7z"
		/>
	<path d="M658.7,222.5l-0.3,0.6l-0.6-0.3l0.3-0.6L658.7,222.5z M659.9,224.7c0,0.4-0.1,0.6-0.2,0.8c-0.2,0.3-0.5,0.4-1,0.4
		c-0.2,0-0.3,0-0.5-0.1c-0.1-0.1-0.2-0.2-0.2-0.4s0-0.4,0.1-0.6c0.1-0.2,0.2-0.4,0.3-0.6h-0.1l0.2-0.7c0.5,0.2,0.8,0.4,0.8,0.5
		C659.8,224.2,659.9,224.4,659.9,224.7z M659.6,225c0-0.1-0.1-0.2-0.4-0.4c-0.1-0.1-0.3-0.1-0.4-0.2c-0.1,0.1-0.2,0.2-0.2,0.2
		c-0.1,0.1-0.1,0.2-0.1,0.3s0,0.2,0.1,0.3s0.2,0.1,0.3,0.1s0.3,0,0.5-0.1S659.6,225,659.6,225z M659.6,222.2l-0.3,0.6l-0.6-0.3
		l0.3-0.6L659.6,222.2z"/>
	<path d="M666.3,225.3c0,0.4-0.1,0.7-0.3,1c-0.2,0.2-0.4,0.4-0.8,0.5c-0.3,0.1-0.6,0.1-1.1,0.1s-0.9-0.1-1.2-0.3s-0.5-0.5-0.5-0.9
		c0-0.2,0-0.5,0.1-0.7s0.1-0.4,0.3-0.7c0.1-0.2,0.2-0.4,0.3-0.6l0.1,0.1c-0.1,0.2-0.2,0.3-0.2,0.5c-0.1,0.2-0.1,0.4-0.2,0.5
		c0,0.2-0.1,0.3-0.1,0.5c0,0.3,0.1,0.6,0.3,0.7s0.6,0.2,1,0.2s0.8-0.1,1.2-0.2c0.4-0.2,0.6-0.4,0.6-0.6c0-0.3,0-0.7-0.1-1.3
		c-0.1-0.5-0.1-1-0.2-1.6l-0.1-0.8l-0.2-0.1c0-0.3,0.1-0.7,0.2-1h0.1c0,0.1,0,0.2,0.1,0.2s0.1,0.1,0.1,0.1c0.1,0,0.2,0.1,0.3,0.1
		s0.1,0.1,0.2,0.1c0,0.2,0,0.3,0,0.4s0,0.2-0.1,0.4l-0.2-0.1c0,0.1,0,0.3,0.1,0.8s0.1,1,0.2,1.3C666.3,224.6,666.3,225,666.3,225.3z
		"/>
	<path d="M669,225.8h-0.5c-0.4,0-0.8,0-1.1,0.1c-0.4,0.1-0.6,0.2-0.6,0.4s0,0.4,0.1,0.6s0.1,0.4,0.2,0.6s0.1,0.4,0.1,0.6
		c0,0.1,0,0.2,0,0.3s0,0.2-0.1,0.3c-0.1-0.2-0.1-0.4-0.2-0.6c-0.1-0.4-0.2-0.7-0.3-0.9c-0.1-0.3-0.1-0.5-0.1-0.6
		c0-0.3,0.1-0.6,0.2-0.8s0.4-0.3,0.6-0.4c0.2-0.1,0.6-0.1,1-0.2c-0.2-0.2-0.3-0.3-0.3-0.3c-0.1-0.1-0.3-0.2-0.4-0.2
		c-0.1,0-0.2,0-0.2,0.1c-0.1,0-0.1,0.1-0.2,0.2l-0.2-0.1c0.1-0.2,0.2-0.4,0.3-0.5c0.2-0.2,0.4-0.3,0.6-0.3c0.2,0,0.3,0.1,0.5,0.2
		c0.1,0.1,0.3,0.2,0.4,0.4c0.1,0.1,0.2,0.2,0.3,0.4L669,225.8L669,225.8z"/>
	<path d="M671.7,225.8h-1.8c-0.1,0-0.3,0-0.4-0.1s-0.2-0.2-0.2-0.3s0-0.2,0-0.3s0-0.2,0.1-0.3h0.1c0,0.1,0.1,0.2,0.2,0.2
		c0.1,0,0.1,0.1,0.3,0.1h1.5c0-0.5-0.1-0.8-0.2-1.1c-0.2-0.4-0.4-0.6-0.8-0.7l0.1-0.8c0.5,0.2,0.8,0.6,1,1.1
		c0.2,0.4,0.2,0.9,0.2,1.5L671.7,225.8L671.7,225.8z"/>
	<path d="M672.6,222.5l-0.3,0.6l-0.6-0.3l0.3-0.6L672.6,222.5z M673.9,224.7c0,0.4-0.1,0.6-0.2,0.8c-0.2,0.3-0.5,0.4-1,0.4
		c-0.2,0-0.3,0-0.5-0.1c-0.1-0.1-0.2-0.2-0.2-0.4s0-0.4,0.1-0.6c0.1-0.2,0.2-0.4,0.3-0.6h-0.1l0.2-0.7c0.5,0.2,0.8,0.4,0.8,0.5
		C673.7,224.2,673.9,224.4,673.9,224.7z M673.5,225c0-0.1-0.1-0.2-0.4-0.4c-0.1-0.1-0.3-0.1-0.4-0.2c-0.1,0.1-0.2,0.2-0.2,0.2
		c-0.1,0.1-0.1,0.2-0.1,0.3s0,0.2,0.1,0.3s0.2,0.1,0.3,0.1s0.3,0,0.5-0.1S673.5,225,673.5,225z M673.5,222.2l-0.3,0.6l-0.6-0.3
		l0.3-0.6L673.5,222.2z"/>
	<path d="M615.3,237.6l-1,0.7c-0.5,0-1,0-1.3-0.1c-0.5-0.1-0.9-0.2-1.2-0.5c-0.4-0.3-0.5-0.7-0.5-1.2c0-0.3,0-0.6,0.1-0.9
		c0.1-0.2,0.2-0.4,0.3-0.6c0.1-0.1,0.2-0.2,0.4-0.4c-0.3-0.1-0.4-0.2-0.5-0.3c-0.2-0.2-0.3-0.5-0.3-0.8s0.1-0.5,0.3-0.8
		c0.3-0.3,0.6-0.5,1-0.5c0.2,0,0.3,0,0.5,0.1c0.1,0.1,0.3,0.2,0.5,0.3c-0.3,0-0.5,0-0.8,0.1c-0.3,0-0.6,0.1-0.8,0.2
		c-0.3,0.1-0.4,0.2-0.4,0.4s0.1,0.3,0.4,0.5c0.3,0.1,0.5,0.2,0.9,0.3c0.3-0.1,0.5-0.3,0.8-0.4c0.3-0.1,0.6-0.2,0.9-0.3l-0.2,0.6
		c-0.5,0.2-0.9,0.4-1.2,0.5c-0.5,0.2-0.9,0.5-1.1,0.7c-0.3,0.3-0.5,0.6-0.5,1s0.1,0.7,0.4,0.9c0.2,0.2,0.6,0.3,1.1,0.4
		c0.4,0.1,0.8,0.1,1.4,0.1c0.1,0,0.2,0,0.4,0S615.2,237.6,615.3,237.6L615.3,237.6z"/>
	<path d="M622.1,235.4h-0.3c-0.2,0-0.3,0-0.4-0.1s-0.2-0.1-0.4-0.2c-0.1,0.1-0.2,0.2-0.3,0.2s-0.3,0.1-0.5,0.1h-0.5
		c0,0.2-0.1,0.5-0.2,0.7c-0.1,0.3-0.4,0.5-0.7,0.7c-0.4,0.2-0.9,0.3-1.4,0.3s-0.9-0.1-1.2-0.3s-0.5-0.5-0.5-0.9c0-0.2,0-0.5,0.1-0.7
		s0.1-0.5,0.2-0.7c0.1-0.1,0.2-0.4,0.3-0.6l0.2,0.1c-0.2,0.4-0.3,0.7-0.4,0.9s-0.1,0.4-0.1,0.6c0,0.3,0.1,0.6,0.3,0.7s0.6,0.3,1,0.3
		c0.5,0,0.9-0.1,1.3-0.3c0.5-0.2,0.7-0.5,0.7-0.9c0-0.3,0-0.5-0.1-0.7s-0.2-0.4-0.3-0.5l0.3-0.8c0.1,0.2,0.2,0.4,0.3,0.6
		c0.1,0.2,0.1,0.5,0.1,0.9h0.5c0.2,0,0.4,0,0.5-0.1s0.1-0.2,0.1-0.3s0-0.2,0-0.2s0-0.2,0-0.3l0.2-0.2l0.1,0.4
		c0.1,0.3,0.1,0.4,0.2,0.6c0.1,0.1,0.3,0.2,0.5,0.2c0.1,0,0.1,0,0.1-0.1s0-0.1,0-0.1c0-0.1,0-0.3-0.1-0.4c-0.1-0.1-0.1-0.2-0.2-0.3
		l0.3-0.4c0.1,0.2,0.2,0.3,0.2,0.4c0.1,0.2,0.1,0.4,0.1,0.7L622.1,235.4L622.1,235.4z M620.9,232.2l-0.3,0.6l-0.6-0.3l0.3-0.6
		L620.9,232.2z M621.1,231.2l-0.3,0.6l-0.6-0.3l0.3-0.6L621.1,231.2z M621.8,231.9l-0.3,0.6l-0.6-0.3l0.3-0.6L621.8,231.9z"/>
	<path d="M626.1,235.4c0,0.3-0.1,0.6-0.4,0.9c-0.2,0.3-0.5,0.5-0.8,0.7s-0.6,0.3-0.7,0.3c-0.2,0-0.4,0-0.6-0.1
		c-0.2,0-0.3-0.1-0.6-0.2c-0.2-0.1-0.4-0.1-0.6-0.2l0.1-0.2c0.2,0,0.4,0.1,0.5,0.1s0.4,0.1,0.5,0.1c0.3,0,0.7-0.1,1-0.3
		s0.6-0.4,0.8-0.7s0.3-0.6,0.3-0.8s-0.1-0.4-0.2-0.6c-0.1-0.2-0.2-0.4-0.4-0.6l0.2-0.6c0.2,0.2,0.4,0.4,0.5,0.6
		c0.1,0.2,0.2,0.5,0.2,0.8v0.8H626.1z"/>
	<path d="M634.8,235.4h-0.3c-0.2,0-0.3,0-0.4-0.1s-0.2-0.1-0.4-0.2c-0.1,0.1-0.2,0.2-0.3,0.2s-0.3,0.1-0.5,0.1h-0.5
		c0,0.2-0.1,0.5-0.2,0.7c-0.1,0.3-0.4,0.5-0.7,0.7c-0.4,0.2-0.9,0.3-1.4,0.3s-0.9-0.1-1.2-0.3s-0.5-0.5-0.5-0.9c0-0.2,0-0.5,0.1-0.7
		s0.1-0.5,0.2-0.7c0.1-0.1,0.2-0.4,0.3-0.6l0.2,0.1c-0.2,0.4-0.3,0.7-0.4,0.9s-0.1,0.4-0.1,0.6c0,0.3,0.1,0.6,0.3,0.7s0.6,0.3,1,0.3
		c0.5,0,0.9-0.1,1.3-0.3c0.5-0.2,0.7-0.5,0.7-0.9c0-0.3,0-0.5-0.1-0.7s-0.2-0.4-0.3-0.5l0.3-0.8c0.1,0.2,0.2,0.4,0.3,0.6
		c0.1,0.2,0.1,0.5,0.1,0.9h0.5c0.2,0,0.4,0,0.5-0.1s0.1-0.2,0.1-0.3s0-0.2,0-0.2s0-0.2,0-0.3l0.2-0.2l0.1,0.4
		c0.1,0.3,0.1,0.4,0.2,0.6c0.1,0.1,0.3,0.2,0.5,0.2c0.1,0,0.1,0,0.1-0.1s0-0.1,0-0.1c0-0.1,0-0.3-0.1-0.4c-0.1-0.1-0.1-0.2-0.2-0.3
		l0.3-0.4c0.1,0.2,0.2,0.3,0.2,0.4c0.1,0.2,0.1,0.4,0.1,0.7L634.8,235.4L634.8,235.4z"/>
	<path d="M639.1,235.4c0,0.6-0.2,1-0.5,1.3c-0.4,0.3-1,0.4-1.8,0.4c-0.5,0-0.9-0.1-1.2-0.3s-0.5-0.5-0.5-0.9c0-0.2,0-0.5,0.1-0.7
		s0.1-0.5,0.2-0.7c0.1-0.1,0.2-0.4,0.3-0.6l0.2,0.1c-0.2,0.4-0.3,0.7-0.4,0.9s-0.1,0.4-0.1,0.6c0,0.3,0.1,0.6,0.3,0.7s0.6,0.3,1,0.3
		c0.5,0,0.9-0.1,1.3-0.3c0.5-0.2,0.7-0.5,0.7-0.9c0-0.3,0-0.5-0.1-0.7s-0.2-0.4-0.3-0.5l0.3-0.8c0.1,0.2,0.2,0.4,0.3,0.6
		s0.1,0.5,0.1,0.9v0.6L639.1,235.4L639.1,235.4z M637.6,232.4l-0.3,0.6l-0.6-0.3l0.3-0.6L637.6,232.4z"/>
	<path d="M642.5,235.2c0,0.4-0.2,0.9-0.5,1.3c-0.4,0.5-0.8,0.7-1.2,0.7c-0.2,0-0.3,0-0.5-0.1c-0.1,0-0.3-0.1-0.5-0.1
		c-0.2-0.1-0.3-0.1-0.5-0.2l0.1-0.1c0.1,0,0.3,0.1,0.5,0.1s0.3,0.1,0.4,0.1c0.3,0,0.6-0.1,0.9-0.2c0.2-0.1,0.4-0.3,0.7-0.6
		c0.1-0.1,0.3-0.3,0.5-0.6c-0.4,0-0.6-0.1-0.8-0.2c-0.2-0.1-0.3-0.3-0.3-0.6s0.1-0.5,0.2-0.7c0.1-0.3,0.3-0.4,0.6-0.4
		c0.2,0,0.4,0.1,0.5,0.4c0.1,0.2,0.1,0.5,0.1,0.9v0.3L642.5,235.2L642.5,235.2z M642.3,234.7c-0.1-0.3-0.1-0.4-0.2-0.5
		c-0.1-0.1-0.2-0.1-0.3-0.1s-0.1,0-0.2,0.1s-0.1,0.1-0.1,0.2c0,0.1,0.1,0.2,0.2,0.3S642,234.7,642.3,234.7z"/>
	<path d="M643.8,234.4c0,0.2,0,0.4-0.1,0.6c0,0.1-0.1,0.3-0.3,0.5h-0.1c0-0.1,0-0.2,0-0.3s0-0.2,0-0.2c0-0.3,0-0.6-0.1-1.1
		s-0.1-1-0.2-1.5c0-0.3-0.1-0.6-0.1-1c0.1-0.1,0.1-0.2,0.2-0.4s0.1-0.3,0.2-0.4c0,0.3,0.1,0.7,0.2,1.2s0.1,1,0.2,1.4
		C643.8,233.8,643.8,234.1,643.8,234.4z"/>
	<path d="M649.9,235.4h-3.7c-0.5,0-0.9-0.1-1.2-0.3c-0.4-0.2-0.6-0.6-0.6-1c0-0.2,0.1-0.5,0.2-0.7c0-0.1,0.1-0.3,0.3-0.5l0.1,0.1
		c-0.1,0.1-0.1,0.2-0.2,0.4c-0.1,0.2-0.1,0.4-0.1,0.5c0,0.3,0.2,0.5,0.5,0.7s0.7,0.2,1.1,0.2h3.3v-0.1c0-0.3,0-0.5-0.1-0.7
		s-0.2-0.3-0.4-0.5l0.3-0.6c0.1,0.1,0.2,0.2,0.2,0.3c0.2,0.3,0.3,0.7,0.3,1.3L649.9,235.4L649.9,235.4z M647.1,232.2l-0.3,0.6
		l-0.6-0.3l0.3-0.6L647.1,232.2z M648,231.9l-0.3,0.6l-0.6-0.3l0.3-0.6L648,231.9z"/>
</g>
<text transform="matrix(1 0 0 1 335.541 244.8)" class="st6 st7"> </text>
<g class="st0">
	<path d="M292.3,237.6l1.9-0.9h0.2v6.7c0,0.4,0,0.7,0.1,0.8s0.1,0.2,0.2,0.3c0.1,0.1,0.4,0.1,0.7,0.1v0.2h-3v-0.2
		c0.4,0,0.6,0,0.7-0.1c0.1-0.1,0.2-0.1,0.2-0.2s0.1-0.4,0.1-0.9v-4.3c0-0.6,0-0.9-0.1-1.1c0-0.1-0.1-0.2-0.1-0.3s-0.2-0.1-0.3-0.1
		s-0.3,0.1-0.6,0.2V237.6z"/>
	<path d="M297.3,240.9c0-0.9,0.1-1.7,0.4-2.3c0.3-0.6,0.6-1.1,1.1-1.5c0.4-0.3,0.7-0.4,1.1-0.4c0.6,0,1.2,0.3,1.6,0.9
		c0.6,0.8,0.9,1.8,0.9,3.1c0,0.9-0.1,1.7-0.4,2.3s-0.6,1.1-1,1.4s-0.8,0.4-1.2,0.4c-0.8,0-1.4-0.4-1.9-1.3
		C297.5,242.8,297.3,241.9,297.3,240.9z M298.4,241c0,1.1,0.1,2,0.4,2.7c0.2,0.6,0.6,0.9,1,0.9c0.2,0,0.4-0.1,0.7-0.3s0.4-0.5,0.5-1
		c0.2-0.7,0.3-1.6,0.3-2.8c0-0.9-0.1-1.7-0.3-2.3c-0.1-0.4-0.3-0.8-0.5-1c-0.2-0.1-0.4-0.2-0.6-0.2c-0.3,0-0.5,0.1-0.7,0.4
		c-0.3,0.3-0.5,0.8-0.6,1.5S298.4,240.3,298.4,241z"/>
	<path d="M312.7,243.1h-0.5c-0.2,0-0.4,0-0.6-0.1c-0.2-0.1-0.4-0.2-0.5-0.3c-0.2,0.1-0.3,0.2-0.4,0.3c-0.2,0.1-0.5,0.1-0.8,0.1h-0.7
		c0,0.4-0.1,0.7-0.3,1c-0.2,0.4-0.6,0.8-1,1c-0.6,0.3-1.3,0.5-2.2,0.5c-0.8,0-1.4-0.1-1.8-0.4c-0.5-0.3-0.7-0.8-0.7-1.4
		c0-0.3,0-0.7,0.1-1c0.1-0.3,0.2-0.7,0.3-1c0.1-0.2,0.2-0.5,0.4-1l0.2,0.1c-0.3,0.6-0.5,1-0.5,1.3s-0.1,0.6-0.1,0.9
		c0,0.5,0.2,0.9,0.5,1.1c0.3,0.2,0.8,0.4,1.5,0.4c0.8,0,1.4-0.1,2-0.4c0.7-0.3,1.1-0.8,1.1-1.4c0-0.4-0.1-0.8-0.2-1.1
		s-0.3-0.5-0.5-0.8l0.5-1.2c0.2,0.3,0.3,0.6,0.4,0.8c0.1,0.3,0.1,0.8,0.1,1.4h0.7c0.4,0,0.6-0.1,0.8-0.2c0.1-0.1,0.2-0.2,0.2-0.5
		c0-0.1,0-0.2,0-0.3s0-0.2-0.1-0.4l0.2-0.4l0.1,0.6c0.1,0.4,0.2,0.7,0.3,0.8c0.2,0.2,0.4,0.3,0.7,0.3c0.1,0,0.2,0,0.2-0.1
		s0.1-0.1,0.1-0.2c0-0.2-0.1-0.4-0.2-0.6c-0.1-0.2-0.2-0.3-0.4-0.5l0.4-0.6c0.2,0.3,0.3,0.5,0.3,0.6c0.1,0.2,0.1,0.6,0.1,1.1v1.6
		L312.7,243.1L312.7,243.1z"/>
	<path d="M319,243.1c0,0.9-0.3,1.5-0.8,1.9c-0.6,0.4-1.4,0.7-2.7,0.7c-0.8,0-1.4-0.1-1.8-0.4c-0.5-0.3-0.7-0.8-0.7-1.4
		c0-0.3,0-0.7,0.1-1s0.2-0.7,0.3-1c0.1-0.2,0.2-0.5,0.4-1l0.2,0.1c-0.3,0.6-0.5,1-0.5,1.3s-0.1,0.6-0.1,0.9c0,0.5,0.2,0.9,0.5,1.1
		c0.3,0.2,0.8,0.4,1.5,0.4c0.7,0,1.4-0.1,2-0.4c0.7-0.3,1.1-0.8,1.1-1.4c0-0.4-0.1-0.8-0.2-1.1c-0.1-0.3-0.2-0.6-0.4-0.8l0.5-1.2
		c0.2,0.3,0.3,0.6,0.4,1c0.1,0.4,0.1,0.8,0.1,1.3v1L319,243.1L319,243.1z M316.8,238.6l-0.4,0.8l-0.9-0.5l0.4-0.8L316.8,238.6z"/>
	<path d="M324.2,242.7c0,0.6-0.2,1.3-0.7,1.9c-0.5,0.7-1.1,1.1-1.8,1.1c-0.3,0-0.5,0-0.8-0.1c-0.2,0-0.5-0.1-0.8-0.2
		c-0.3-0.1-0.5-0.2-0.8-0.3l0.1-0.2c0.2,0.1,0.4,0.1,0.7,0.2s0.5,0.1,0.6,0.1c0.5,0,0.9-0.1,1.4-0.4c0.3-0.2,0.7-0.5,1-0.8
		c0.2-0.2,0.4-0.5,0.7-0.9c-0.5,0-0.9-0.1-1.2-0.3s-0.4-0.5-0.4-0.9s0.1-0.8,0.3-1.1c0.2-0.4,0.5-0.6,0.8-0.6s0.6,0.2,0.7,0.6
		c0.1,0.3,0.2,0.7,0.2,1.3L324.2,242.7L324.2,242.7z M323.8,242.1c-0.1-0.4-0.2-0.6-0.3-0.8c-0.1-0.1-0.2-0.2-0.4-0.2
		c-0.1,0-0.2,0-0.3,0.1s-0.1,0.2-0.1,0.3c0,0.2,0.1,0.3,0.3,0.4S323.4,242.1,323.8,242.1z"/>
	<path d="M326.2,241.6c0,0.3-0.1,0.6-0.2,0.9c-0.1,0.2-0.2,0.4-0.4,0.7l-0.1-0.1c0-0.1,0-0.2,0-0.4s0-0.2,0-0.3c0-0.4,0-1-0.1-1.7
		s-0.1-1.5-0.2-2.3c-0.1-0.5-0.1-1-0.2-1.5c0.1-0.2,0.2-0.4,0.3-0.6s0.2-0.4,0.3-0.6c0.1,0.4,0.1,1.1,0.2,1.8s0.2,1.5,0.2,2.1
		C326.1,240.6,326.2,241.2,326.2,241.6z"/>
	<path d="M335.2,243.1h-5.6c-0.8,0-1.3-0.1-1.8-0.4c-0.6-0.3-0.8-0.8-0.8-1.5c0-0.4,0.1-0.7,0.2-1.1c0.1-0.1,0.2-0.4,0.4-0.8
		l0.2,0.1c-0.1,0.2-0.2,0.4-0.3,0.5c-0.1,0.3-0.2,0.5-0.2,0.7c0,0.5,0.2,0.8,0.7,1.1c0.4,0.2,1,0.3,1.6,0.3h5v-0.2
		c0-0.4-0.1-0.8-0.2-1.1c-0.1-0.3-0.3-0.5-0.5-0.7l0.5-1c0.2,0.2,0.3,0.3,0.3,0.4c0.3,0.4,0.4,1.1,0.4,1.9L335.2,243.1L335.2,243.1z
		 M331.1,238.3l-0.4,0.8l-0.9-0.5l0.4-0.8L331.1,238.3z M332.5,237.8l-0.5,0.8l-0.9-0.5l0.4-0.8L332.5,237.8z"/>
</g>
<g class="st0">
	<path d="M502,242.4c0,0.6-0.1,1.1-0.4,1.5c-0.3,0.3-0.6,0.6-1.2,0.7c-0.4,0.1-1,0.2-1.6,0.2c-0.8,0-1.3-0.1-1.8-0.4
		c-0.5-0.3-0.7-0.8-0.7-1.4c0-0.3,0-0.7,0.1-1s0.2-0.6,0.4-1c0.1-0.3,0.3-0.6,0.5-1l0.2,0.1c-0.1,0.3-0.3,0.5-0.4,0.7
		c-0.1,0.3-0.2,0.5-0.3,0.7c-0.1,0.3-0.1,0.5-0.1,0.8c0,0.5,0.2,0.8,0.5,1.1s0.8,0.4,1.5,0.4s1.3-0.1,1.8-0.3
		c0.6-0.3,0.9-0.5,0.9-0.9s-0.1-1-0.2-1.9c-0.1-0.7-0.2-1.5-0.3-2.3l-0.2-1.1l-0.3-0.1c0-0.5,0.1-1,0.3-1.4h0.1c0,0.1,0,0.3,0.1,0.3
		s0.1,0.1,0.2,0.2c0.1,0.1,0.3,0.1,0.4,0.2c0.1,0.1,0.2,0.1,0.3,0.1c0,0.3,0,0.5,0,0.6s-0.1,0.3-0.1,0.5l-0.3-0.1
		c0,0.1,0.1,0.5,0.2,1.2c0.1,0.8,0.2,1.5,0.3,2C502,241.3,502,241.9,502,242.4z"/>
	<path d="M506.1,243.1h-0.7c-0.6,0-1.2,0.1-1.7,0.2c-0.6,0.2-0.9,0.4-0.9,0.7s0,0.5,0.1,0.8s0.2,0.6,0.3,0.9s0.1,0.6,0.1,0.8
		c0,0.1,0,0.3,0,0.4s-0.1,0.3-0.1,0.5c-0.1-0.3-0.2-0.6-0.3-1c-0.2-0.6-0.3-1.1-0.4-1.4c-0.1-0.5-0.2-0.8-0.2-0.9
		c0-0.5,0.1-0.9,0.3-1.2s0.5-0.5,1-0.6c0.3-0.1,0.9-0.2,1.6-0.3c-0.2-0.3-0.4-0.4-0.5-0.4c-0.2-0.2-0.4-0.2-0.6-0.2
		c-0.1,0-0.3,0-0.4,0.1s-0.2,0.2-0.3,0.3l-0.3-0.2c0.1-0.3,0.3-0.5,0.4-0.7c0.2-0.3,0.5-0.4,0.9-0.4c0.2,0,0.5,0.1,0.7,0.3
		c0.2,0.1,0.4,0.4,0.6,0.6c0.1,0.1,0.3,0.3,0.5,0.7v1L506.1,243.1L506.1,243.1z"/>
	<path d="M510.1,243.1h-2.6c-0.2,0-0.4-0.1-0.6-0.2s-0.3-0.3-0.3-0.5c0-0.1,0-0.3,0-0.4s0-0.3,0.1-0.4h0.1c0,0.2,0.1,0.3,0.2,0.3
		c0.1,0.1,0.2,0.1,0.4,0.1h2.3c0-0.7-0.1-1.3-0.3-1.7c-0.2-0.5-0.6-0.9-1.2-1.1l0.1-1.1c0.7,0.3,1.2,0.9,1.4,1.6
		c0.2,0.6,0.3,1.4,0.3,2.3v1.1L510.1,243.1L510.1,243.1z"/>
	<path d="M511.5,238.1l-0.4,0.8l-0.9-0.5l0.4-0.8L511.5,238.1z M513.4,241.4c0,0.6-0.1,1-0.3,1.2c-0.3,0.4-0.8,0.6-1.5,0.6
		c-0.3,0-0.5-0.1-0.7-0.2c-0.2-0.1-0.3-0.3-0.3-0.6s0.1-0.6,0.2-0.9c0.1-0.3,0.3-0.6,0.4-0.9h-0.1l0.4-1c0.7,0.4,1.1,0.6,1.3,0.7
		C513.1,240.7,513.4,241,513.4,241.4z M512.9,241.8c0-0.1-0.2-0.3-0.6-0.6c-0.2-0.1-0.4-0.2-0.6-0.3c-0.2,0.2-0.3,0.3-0.3,0.4
		c-0.1,0.2-0.2,0.3-0.2,0.4c0,0.2,0.1,0.4,0.2,0.5s0.3,0.2,0.4,0.2c0.2,0,0.5-0.1,0.7-0.2S512.9,241.9,512.9,241.8z M512.9,237.6
		l-0.5,0.8l-0.9-0.5l0.4-0.8L512.9,237.6z"/>
	<path d="M522,243.3l-0.6,1.5h-4.7v-0.2c1.4-1.3,2.3-2.3,2.9-3.1s0.8-1.5,0.8-2.2c0-0.5-0.2-0.9-0.5-1.2s-0.7-0.5-1.1-0.5
		c-0.4,0-0.7,0.1-1.1,0.3s-0.5,0.6-0.7,1l0,0c0.1-0.7,0.3-1.3,0.8-1.7s0.9-0.6,1.5-0.6s1.2,0.2,1.6,0.6s0.6,0.9,0.6,1.5
		c0,0.4-0.1,0.8-0.3,1.2c-0.3,0.6-0.8,1.3-1.4,2c-1,1.1-1.6,1.7-1.8,1.9h2.1c0.4,0,0.7,0,0.9,0s0.3-0.1,0.5-0.2
		S521.8,243.4,522,243.3L522,243.3L522,243.3z"/>
	<path d="M522.9,240.9c0-0.9,0.1-1.7,0.4-2.3s0.6-1.1,1.1-1.5c0.4-0.3,0.7-0.4,1.1-0.4c0.6,0,1.2,0.3,1.6,0.9
		c0.6,0.8,0.9,1.8,0.9,3.1c0,0.9-0.1,1.7-0.4,2.3s-0.6,1.1-1,1.4s-0.8,0.4-1.2,0.4c-0.8,0-1.4-0.4-1.9-1.3
		C523.1,242.8,522.9,241.9,522.9,240.9z M524.1,241c0,1.1,0.1,2,0.4,2.7c0.2,0.6,0.6,0.9,1,0.9c0.2,0,0.4-0.1,0.7-0.3s0.4-0.5,0.5-1
		c0.2-0.7,0.3-1.6,0.3-2.8c0-0.9-0.1-1.7-0.3-2.3c-0.1-0.4-0.3-0.8-0.5-1c-0.2-0.1-0.4-0.2-0.6-0.2c-0.3,0-0.5,0.1-0.7,0.4
		c-0.3,0.3-0.5,0.8-0.6,1.5S524.1,240.3,524.1,241z"/>
	<path d="M534.7,246.4l-1.5,1c-0.8,0-1.4,0-1.9-0.1c-0.8-0.1-1.4-0.3-1.8-0.7c-0.5-0.4-0.8-1-0.8-1.8c0-0.5,0.1-0.9,0.2-1.3
		c0.1-0.3,0.3-0.6,0.5-0.9c0.1-0.1,0.3-0.3,0.6-0.6c-0.4-0.2-0.6-0.3-0.8-0.5c-0.3-0.3-0.5-0.7-0.5-1.1c0-0.4,0.2-0.8,0.5-1.2
		c0.4-0.5,0.9-0.7,1.4-0.7c0.3,0,0.5,0.1,0.8,0.2c0.2,0.1,0.4,0.3,0.7,0.5c-0.4,0-0.8,0-1.2,0.1c-0.5,0.1-0.9,0.2-1.3,0.3
		c-0.4,0.2-0.6,0.3-0.6,0.6c0,0.2,0.2,0.5,0.7,0.7c0.4,0.2,0.8,0.3,1.3,0.4c0.4-0.2,0.8-0.4,1.1-0.5c0.4-0.2,0.8-0.3,1.3-0.4
		l-0.2,0.9c-0.8,0.3-1.4,0.6-1.8,0.7c-0.7,0.3-1.3,0.7-1.7,1.1c-0.5,0.5-0.7,1-0.7,1.5c0,0.6,0.2,1,0.6,1.3c0.4,0.3,0.9,0.5,1.6,0.6
		c0.6,0.1,1.3,0.1,2.1,0.1c0.2,0,0.4,0,0.6,0S534.5,246.3,534.7,246.4L534.7,246.4z"/>
	<path d="M537,241.6c0,0.3-0.1,0.6-0.2,0.9c-0.1,0.2-0.2,0.4-0.4,0.7l-0.1-0.1c0-0.1,0-0.2,0-0.4s0-0.2,0-0.3c0-0.4,0-1-0.1-1.7
		s-0.1-1.5-0.2-2.3c-0.1-0.5-0.1-1-0.2-1.5c0.1-0.2,0.2-0.4,0.3-0.6s0.2-0.4,0.3-0.6c0.1,0.4,0.1,1.1,0.2,1.8s0.2,1.5,0.2,2.1
		C537,240.6,537,241.2,537,241.6z"/>
	<path d="M541.6,243.1h-0.7c-0.6,0-1.2,0.1-1.7,0.2c-0.6,0.2-0.9,0.4-0.9,0.7s0,0.5,0.1,0.8s0.2,0.6,0.3,0.9s0.1,0.6,0.1,0.8
		c0,0.1,0,0.3,0,0.4s-0.1,0.3-0.1,0.5c-0.1-0.3-0.2-0.6-0.3-1c-0.2-0.6-0.3-1.1-0.4-1.4c-0.1-0.5-0.2-0.8-0.2-0.9
		c0-0.5,0.1-0.9,0.3-1.2s0.5-0.5,1-0.6c0.3-0.1,0.9-0.2,1.6-0.3c-0.2-0.3-0.4-0.4-0.5-0.4c-0.2-0.2-0.4-0.2-0.6-0.2
		c-0.1,0-0.3,0-0.4,0.1c-0.1,0.1-0.2,0.2-0.3,0.3l-0.3-0.2c0.1-0.3,0.3-0.5,0.4-0.7c0.2-0.3,0.5-0.4,0.9-0.4c0.2,0,0.5,0.1,0.7,0.3
		c0.2,0.1,0.4,0.4,0.6,0.6c0.1,0.1,0.3,0.3,0.5,0.7L541.6,243.1L541.6,243.1z"/>
</g>
<text transform="matrix(1 0 0 1 126.2964 244.8)" class="st6 st7"> </text>
<g class="st0">
	<path d="M94.3,236.9l-0.5,1h-2.4l-0.5,1.1c1,0.2,1.9,0.5,2.5,1.2c0.5,0.5,0.8,1.2,0.8,1.9c0,0.4-0.1,0.8-0.3,1.2
		c-0.2,0.4-0.4,0.7-0.6,0.9s-0.5,0.5-0.9,0.6c-0.4,0.2-0.9,0.3-1.4,0.3s-0.8-0.1-1-0.2s-0.3-0.3-0.3-0.5c0-0.1,0-0.2,0.1-0.3
		s0.2-0.1,0.3-0.1s0.2,0,0.3,0s0.2,0.1,0.4,0.2c0.3,0.2,0.6,0.3,0.9,0.3c0.5,0,0.9-0.2,1.2-0.5c0.3-0.3,0.5-0.8,0.5-1.3
		s-0.2-0.9-0.5-1.3c-0.3-0.4-0.7-0.7-1.3-1c-0.4-0.2-1-0.3-1.7-0.3l1.5-3.1L94.3,236.9L94.3,236.9z"/>
	<path d="M105,243.1h-0.5c-0.2,0-0.4,0-0.6-0.1s-0.4-0.2-0.5-0.3c-0.2,0.1-0.3,0.2-0.4,0.3c-0.2,0.1-0.5,0.1-0.8,0.1h-0.7
		c0,0.4-0.1,0.7-0.3,1c-0.2,0.4-0.6,0.8-1,1c-0.6,0.3-1.3,0.5-2.2,0.5c-0.8,0-1.4-0.1-1.8-0.4c-0.5-0.3-0.7-0.8-0.7-1.4
		c0-0.3,0-0.7,0.1-1s0.2-0.7,0.3-1c0.1-0.2,0.2-0.5,0.4-1l0.2,0.1c-0.3,0.6-0.5,1-0.5,1.3s-0.1,0.6-0.1,0.9c0,0.5,0.2,0.9,0.5,1.1
		c0.3,0.2,0.8,0.4,1.5,0.4c0.8,0,1.4-0.1,2-0.4c0.7-0.3,1.1-0.8,1.1-1.4c0-0.4-0.1-0.8-0.2-1.1s-0.3-0.5-0.5-0.8l0.5-1.2
		c0.2,0.3,0.3,0.6,0.4,0.8c0.1,0.3,0.1,0.8,0.1,1.4h0.7c0.4,0,0.6-0.1,0.8-0.2c0.1-0.1,0.2-0.2,0.2-0.5c0-0.1,0-0.2,0-0.3
		s0-0.2-0.1-0.4l0.2-0.4l0.1,0.6c0.1,0.4,0.2,0.7,0.3,0.8c0.2,0.2,0.4,0.3,0.7,0.3c0.1,0,0.2,0,0.2-0.1s0.1-0.1,0.1-0.2
		c0-0.2-0.1-0.4-0.2-0.6c-0.1-0.2-0.2-0.3-0.4-0.5l0.4-0.6c0.2,0.3,0.3,0.5,0.3,0.6c0.1,0.2,0.1,0.6,0.1,1.1v1.6L105,243.1
		L105,243.1z"/>
	<path d="M111.3,243.1c0,0.9-0.3,1.5-0.8,1.9c-0.6,0.4-1.4,0.7-2.7,0.7c-0.8,0-1.4-0.1-1.8-0.4c-0.5-0.3-0.7-0.8-0.7-1.4
		c0-0.3,0-0.7,0.1-1s0.2-0.7,0.3-1c0.1-0.2,0.2-0.5,0.4-1l0.2,0.1c-0.3,0.6-0.5,1-0.5,1.3s-0.1,0.6-0.1,0.9c0,0.5,0.2,0.9,0.5,1.1
		c0.3,0.2,0.8,0.4,1.5,0.4s1.4-0.1,2-0.4c0.7-0.3,1.1-0.8,1.1-1.4c0-0.4-0.1-0.8-0.2-1.1s-0.2-0.6-0.4-0.8l0.5-1.2
		c0.2,0.3,0.3,0.6,0.4,1s0.1,0.8,0.1,1.3L111.3,243.1L111.3,243.1z M109.1,238.6l-0.4,0.8l-0.9-0.5l0.4-0.8L109.1,238.6z"/>
	<path d="M116.5,242.7c0,0.6-0.2,1.3-0.7,1.9c-0.5,0.7-1.1,1.1-1.8,1.1c-0.3,0-0.5,0-0.8-0.1c-0.2,0-0.5-0.1-0.8-0.2
		c-0.3-0.1-0.5-0.2-0.8-0.3l0.1-0.2c0.2,0.1,0.4,0.1,0.7,0.2c0.3,0.1,0.5,0.1,0.6,0.1c0.5,0,0.9-0.1,1.4-0.4c0.3-0.2,0.7-0.5,1-0.8
		c0.2-0.2,0.4-0.5,0.7-0.9c-0.5,0-0.9-0.1-1.2-0.3c-0.3-0.2-0.4-0.5-0.4-0.9s0.1-0.8,0.3-1.1c0.2-0.4,0.5-0.6,0.8-0.6
		s0.6,0.2,0.7,0.6c0.1,0.3,0.2,0.7,0.2,1.3L116.5,242.7L116.5,242.7z M116.1,242.1c-0.1-0.4-0.2-0.6-0.3-0.8
		c-0.1-0.1-0.2-0.2-0.4-0.2c-0.1,0-0.2,0-0.3,0.1s-0.1,0.2-0.1,0.3c0,0.2,0.1,0.3,0.3,0.4S115.7,242.1,116.1,242.1z"/>
	<path d="M118.4,241.6c0,0.3-0.1,0.6-0.2,0.9c-0.1,0.2-0.2,0.4-0.4,0.7l-0.1-0.1c0-0.1,0-0.2,0-0.4s0-0.2,0-0.3c0-0.4,0-1-0.1-1.7
		s-0.1-1.5-0.2-2.3c-0.1-0.5-0.1-1-0.2-1.5c0.1-0.2,0.2-0.4,0.3-0.6c0.1-0.2,0.2-0.4,0.3-0.6c0.1,0.4,0.1,1.1,0.2,1.8
		s0.2,1.5,0.2,2.1C118.4,240.6,118.4,241.2,118.4,241.6z"/>
	<path d="M127.5,243.1h-5.6c-0.8,0-1.3-0.1-1.8-0.4c-0.6-0.3-0.8-0.8-0.8-1.5c0-0.4,0.1-0.7,0.2-1.1c0.1-0.1,0.2-0.4,0.4-0.8
		l0.2,0.1c-0.1,0.2-0.2,0.4-0.3,0.5c-0.1,0.3-0.2,0.5-0.2,0.7c0,0.5,0.2,0.8,0.7,1.1c0.4,0.2,1,0.3,1.6,0.3h5v-0.2
		c0-0.4-0.1-0.8-0.2-1.1s-0.3-0.5-0.5-0.7l0.5-1c0.2,0.2,0.3,0.3,0.3,0.4c0.3,0.4,0.4,1.1,0.4,1.9L127.5,243.1L127.5,243.1z
		 M123.4,238.3l-0.4,0.8l-0.9-0.5l0.4-0.8L123.4,238.3z M124.8,237.8l-0.5,0.8l-0.9-0.5l0.4-0.8L124.8,237.8z"/>
</g>
</svg>
