<?xml version="1.0" encoding="utf-8"?>
<!-- Generator: Adobe Illustrator 23.0.0, SVG Export Plug-In . SVG Version: 6.00 Build 0)  -->
<svg version="1.1" id="租金分红" xmlns="http://www.w3.org/2000/svg" xmlns:xlink="http://www.w3.org/1999/xlink" x="0px"
	 y="0px" viewBox="0 0 1072 186" style="enable-background:new 0 0 1072 186;" xml:space="preserve">
<style type="text/css">
	.st0{fill:none;stroke:#90A7AB;}
	.st1{fill:#9FE7DD;stroke:#34B9A1;stroke-width:2;}
	.st2{fill:none;stroke:#456E68;stroke-width:1.5;stroke-miterlimit:10;}
	.st3{enable-background:new    ;}
	.st4{fill:#456E68;}
</style>
<g id="组_29">
	<path id="形状_1" class="st0" d="M122.8,82.9h132.5l-4.8-5.5"/>
	<path id="形状_1_拷贝_6" class="st0" d="M255.1,103.1H122.8l4.8,5.5"/>
</g>
<path id="形状_1_拷贝_7" class="st0" d="M786.9,88.4h132.5l-4.8-5.5"/>
<g id="组_29_拷贝">
	<path id="形状_1-2" class="st0" d="M489.3,81h132.5l-4.8-5.5"/>
	<path id="形状_1_拷贝_6-2" class="st0" d="M621.6,101.3H489.3l4.8,5.5"/>
</g>
<circle id="椭圆_6" class="st1" cx="377.3" cy="93" r="91.8"/>
<g>
	<circle class="st2" cx="56" cy="65.3" r="15.3"/>
	<line class="st2" x1="43.7" y1="89.3" x2="56" y2="103.3"/>
	<line class="st2" x1="68" y1="89.3" x2="56" y2="103.3"/>
	<line class="st2" x1="56" y1="117.3" x2="56" y2="103.3"/>
	<path class="st2" d="M88.9,109.3v3.3c0,3-2.5,5.5-5.5,5.5H28.6c-3,0-5.5-2.5-5.5-5.5v-3.3"/>
	<path class="st2" d="M28.6,103.8"/>
	<path class="st2" d="M23.1,110.8c0-12.4,10.2-21.9,22.6-21.9h20.6c12.4,0,22.5,10.1,22.5,22.5l0,0"/>
</g>
<g class="st3">
	<path class="st4" d="M740.7,50h-10v10h10V50z M737.4,56.6h-3.3v-3.3h3.3V56.6z"/>
	<path class="st4" d="M754,50h-10v10h10V50z M750.7,56.6h-3.3v-3.3h3.3V56.6z"/>
	<path class="st4" d="M740.7,63.3h-10v10h10V63.3z M737.4,69.9h-3.3v-3.3h3.3V69.9z"/>
	<path class="st4" d="M754,63.3h-10v10h10V63.3z M750.7,69.9h-3.3v-3.3h3.3V69.9z"/>
	<path class="st4" d="M740.7,86.5v-10h-10v10H740.7z M734.1,79.9h3.3v3.3h-3.3V79.9z"/>
	<path class="st4" d="M754,76.6h-10v10h10V76.6z M750.7,83.2h-3.3v-3.3h3.3V83.2z"/>
	<path class="st4" d="M764,46.7v-3.3h-3.3v-6.6h-3.3v-6.6h-29.9v6.6h-3.3v6.6h-3.3v3.3h3.3v43.2h-13.3v-20h3.3V60h-3.3v-2.5
		l-23.3-16.1l-10,6.9v-5.1h-10v12l-3.3,2.3V60H661v10h3.3v20.3c-1.9,0.7-3.3,2.5-3.3,4.6v3.3c0,2.7,2.3,5,5,5h32.4
		c-2.6,3.2-4.2,7.2-4.2,11.6c0,10.1,8.2,18.3,18.3,18.3s18.3-8.1,18.3-18.2c0-4.4-1.5-8.4-4.2-11.6H759c2.7,0,5-2.3,5-5V95
		c0-2.1-1.4-4-3.3-4.6V46.7H764z M730.8,33.4H754v3.3h-23.3L730.8,33.4L730.8,33.4z M727.5,40h29.9v3.3h-29.9V40z M671,46.4h3.3v4.2
		l-3.3,2.3V46.4z M667.6,59.3l19.9-13.8l19.9,13.8v0.8h-39.9L667.6,59.3L667.6,59.3z M664.3,63.3h46.5v3.3h-46.5V63.3z M707.5,69.9
		v19.9h-13.3V73.3h-13.3v16.6h-13.3v-20H707.5z M690.9,89.9h-6.6V76.6h6.6V89.9z M712.5,129.7c-8.2,0-15-6.8-15-15s6.8-15,15-15
		s15,6.8,15,15C727.5,123.1,720.8,129.7,712.5,129.7z M760.7,98.2c0,0.9-0.7,1.7-1.7,1.7h-36.1c-3-2.1-6.5-3.3-10.4-3.3
		s-7.5,1.2-10.4,3.3H666c-0.9,0-1.7-0.7-1.7-1.7v-3.3c0-0.9,0.7-1.7,1.7-1.7h93c0.9,0,1.7,0.7,1.7,1.7V98.2z M757.4,89.9h-29.9V46.7
		h29.9V89.9z"/>
</g>
<g class="st3">
	<g>
		<g>
			<path class="st4" d="M964,53h-12.6c-0.9,0-1.6,0.7-1.6,1.6V61c0,0.9,0.7,1.6,1.6,1.6H964c0.9,0,1.6-0.7,1.6-1.6v-6.4
				C965.4,53.7,964.9,53,964,53z M955.9,59.4h-3.1v-3.1h3.1V59.4z M962.3,59.4h-3.1v-3.1h3.1V59.4z"/>
		</g>
	</g>
	<g>
		<g>
			<path class="st4" d="M964,65.6h-12.6c-0.9,0-1.6,0.7-1.6,1.6v6.4c0,0.9,0.7,1.6,1.6,1.6H964c0.9,0,1.6-0.7,1.6-1.6v-6.4
				C965.4,66.3,964.9,65.6,964,65.6z M955.9,72h-3.1v-3.1h3.1V72z M962.3,72h-3.1v-3.1h3.1V72z"/>
		</g>
	</g>
	<g>
		<g>
			<path class="st4" d="M964,78.4h-12.6c-0.9,0-1.6,0.7-1.6,1.6v6.2c0,0.9,0.7,1.6,1.6,1.6H964c0.9,0,1.6-0.7,1.6-1.6v-6.4
				C965.4,79,964.9,78.4,964,78.4z M955.9,84.6h-3.1v-3.1h3.1V84.6z M962.3,84.6h-3.1v-3.1h3.1V84.6z"/>
		</g>
	</g>
	<g>
		<g>
			<path class="st4" d="M1021,53h-12.6c-0.9,0-1.6,0.7-1.6,1.6V61c0,0.9,0.7,1.6,1.6,1.6h12.6c0.9,0,1.6-0.7,1.6-1.6v-6.4
				C1022.5,53.7,1021.9,53,1021,53z M1013,59.4h-3.1v-3.1h3.1V59.4z M1019.3,59.4h-3.1v-3.1h3.1V59.4z"/>
		</g>
	</g>
	<g>
		<g>
			<path class="st4" d="M1021,40.4h-12.6c-0.9,0-1.6,0.7-1.6,1.6v6.4c0,0.9,0.7,1.6,1.6,1.6h12.6c0.9,0,1.6-0.7,1.6-1.6V42
				C1022.5,40.9,1021.9,40.4,1021,40.4z M1013,46.6h-3.1v-3.1h3.1V46.6z M1019.3,46.6h-3.1v-3.1h3.1V46.6z"/>
		</g>
	</g>
	<g>
		<g>
			<path class="st4" d="M983,59.4h-6.4c-0.9,0-1.6,0.7-1.6,1.6v6.4c0,0.9,0.7,1.6,1.6,1.6h6.4c0.9,0,1.6-0.7,1.6-1.6V61
				C984.5,60,983.9,59.4,983,59.4z M981.3,65.6h-3.1v-3.1h3.1V65.6z"/>
		</g>
	</g>
	<g>
		<g>
			<path class="st4" d="M995.6,59.4h-6.4c-0.9,0-1.6,0.7-1.6,1.6v6.4c0,0.9,0.7,1.6,1.6,1.6h6.4c0.9,0,1.6-0.7,1.6-1.6V61
				C997.2,60,996.5,59.4,995.6,59.4z M994,65.6h-3.1v-3.1h3.1V65.6z"/>
		</g>
	</g>
	<g>
		<g>
			<path class="st4" d="M983,46.6h-6.4c-0.9,0-1.6,0.7-1.6,1.6v6.4c0,0.9,0.7,1.6,1.6,1.6h6.4c0.9,0,1.6-0.7,1.6-1.6v-6.4
				C984.5,47.3,983.9,46.6,983,46.6z M981.3,53h-3.1v-3.1h3.1V53z"/>
		</g>
	</g>
	<g>
		<g>
			<path class="st4" d="M995.6,46.6h-6.4c-0.9,0-1.6,0.7-1.6,1.6v6.4c0,0.9,0.7,1.6,1.6,1.6h6.4c0.9,0,1.6-0.7,1.6-1.6v-6.4
				C997.2,47.3,996.5,46.6,995.6,46.6z M994,53h-3.1v-3.1h3.1V53z"/>
		</g>
	</g>
	<g>
		<g>
			<path class="st4" d="M983,34h-6.4c-0.9,0-1.6,0.7-1.6,1.6V42c0,0.9,0.7,1.6,1.6,1.6h6.4c0.9,0,1.6-0.7,1.6-1.6v-6.4
				C984.5,34.7,983.9,34,983,34z M981.3,40.4h-3.1v-3.1h3.1V40.4z"/>
		</g>
	</g>
	<g>
		<g>
			<path class="st4" d="M995.6,34h-6.4c-0.9,0-1.6,0.7-1.6,1.6V42c0,0.9,0.7,1.6,1.6,1.6h6.4c0.9,0,1.6-0.7,1.6-1.6v-6.4
				C997.2,34.7,996.5,34,995.6,34z M994,40.4h-3.1v-3.1h3.1V40.4z"/>
		</g>
	</g>
	<g>
		<g>
			<path class="st4" d="M983,78.4h-6.4c-0.9,0-1.6,0.7-1.6,1.6v6.2c0,0.9,0.7,1.6,1.6,1.6h6.4c0.9,0,1.6-0.7,1.6-1.6v-6.4
				C984.5,79,983.9,78.4,983,78.4z M981.3,84.6h-3.1v-3.1h3.1V84.6z"/>
		</g>
	</g>
	<g>
		<g>
			<rect x="949.7" y="91" class="st4" width="3.1" height="3.1"/>
		</g>
	</g>
	<g>
		<g>
			<rect x="955.9" y="91" class="st4" width="3.1" height="3.1"/>
		</g>
	</g>
	<g>
		<g>
			<rect x="962.3" y="91" class="st4" width="3.1" height="3.1"/>
		</g>
	</g>
	<g>
		<g>
			<path class="st4" d="M1036.7,72h-7.9V35.6c0-0.9-0.7-1.6-1.6-1.6h-11.1v-2.5l1.6-1.6c1.3,1,3,1.6,4.6,1.6c2.1,0,4-0.7,5.5-2.2
				l0.3-0.3c0.6-0.6,0.6-1.6,0-2.2l-3.6-3.6l3.6-3.6l-2.2-2.2l-3.6,3.6l-5.2-5.2c-0.3-0.3-0.7-0.4-1.2-0.4c-0.6,0-1,0.3-1.3,0.6
				c-1.6,1.5-2.5,3.4-2.5,5.5s0.7,4.3,2.4,5.8l0.7,0.7l-2.1,2.1c-0.3,0.3-0.4,0.7-0.4,1.2v3.1h-9.5v-5c0-0.9-0.7-1.6-1.6-1.6H996
				l-9.1-12c-0.6-0.7-1.9-0.7-2.5,0l-9.1,12h-5.5c-0.9,0-1.6,0.7-1.6,1.6v17.4h-9.5V34h-3.1v12.6h-11.1c-0.9,0-1.6,0.7-1.6,1.6v60.1
				c0,0.9,0.7,1.6,1.6,1.6h25.4H981h12.6h1.6h9.5h25.4c4.3,0,7.9-3.6,7.9-7.9V73.6C1038.4,72.7,1037.6,72,1036.7,72z M968.7,106.9
				h-22.1v-57h22.1V106.9z M1016.2,18.8l8.6,8.6c-1.8,1-4.2,0.9-5.8-0.7l-2.2-2.2c-0.9-0.9-1.5-2.1-1.3-3.4
				C1015.6,20.3,1015.8,19.6,1016.2,18.8z M986.1,19.1l6.4,8.5h-12.6L986.1,19.1z M979.7,94.1v12.6h-7.9V48.2V30.9h28.5v4.8v28.5
				h3.1v-27h22.1V72h-3.1v-1.6c0-2.7-2.1-4.8-4.8-4.8h-9.5c-2.7,0-4.8,2.1-4.8,4.8V72H989c-0.9,0-1.6,0.7-1.6,1.6V91h-12.6v3.1
				H979.7z M1019.3,70.4V72h-12.6v-1.6c0-0.9,0.7-1.6,1.6-1.6h9.5C1018.6,68.9,1019.3,69.5,1019.3,70.4z M983,106.9V94.3h4.8v7.9
				c0,1.8,0.6,3.4,1.6,4.8H983V106.9z M1035.2,102.1c0,2.7-2.1,4.8-4.8,4.8H1005h-9.5c-2.7,0-4.8-2.1-4.8-4.8V86.2
				c1.3,1,3,1.6,4.8,1.6h1.6v4.8c0,0.9,0.7,1.6,1.6,1.6h6.4c0.9,0,1.6-0.7,1.6-1.6v-4.8h1.6h9.5h1.6v4.8c0,0.9,0.7,1.6,1.6,1.6h6.4
				c0.9,0,1.6-0.7,1.6-1.6v-4.8h1.6c1.8,0,3.4-0.6,4.8-1.6v15.9H1035.2z M1000.3,91v-3.1h3.1V91H1000.3z M1009.8,84.6v-3.1h6.4v3.1
				H1009.8z M1022.5,91v-3.1h3.1V91H1022.5z M1035.2,79.9c0,2.7-2.1,4.8-4.8,4.8h-3.1h-6.4h-1.6v-4.8c0-0.9-0.7-1.6-1.6-1.6h-9.5
				c-0.9,0-1.6,0.7-1.6,1.6v4.8h-1.6h-6.4h-3.1c-2.7,0-4.8-2.1-4.8-4.8v-4.8h44.4L1035.2,79.9L1035.2,79.9z"/>
		</g>
	</g>
	<g>
		<g>
			<rect x="1028.9" y="100.5" class="st4" width="3.1" height="3.1"/>
		</g>
	</g>
	<g>
		<g>
			<rect x="1022.5" y="100.5" class="st4" width="3.1" height="3.1"/>
		</g>
	</g>
	<g>
		<g>
			<rect x="1016.2" y="100.5" class="st4" width="3.1" height="3.1"/>
		</g>
	</g>
</g>
<g>
	<path class="st4" d="M706.7,122.5v-1.8c1.9-0.6,2.9-1.8,2.9-3.7v-2.2H707V113h2.6v-3c0-1.5,0.4-2.8,1.4-3.7c1-1,2.2-1.5,3.6-1.5
		c1,0,1.9,0.1,2.8,0.6v2.1c-0.8-0.6-1.8-0.7-2.6-0.7c-1.9,0-2.9,1.2-2.9,3.6v2.8h3.9v1.8h-4v1.8c0,1.9-0.8,3.2-2.3,4.1h8.9v1.8
		h-11.7V122.5z"/>
</g>
<g>
	<path class="st4" d="M10.3,147.8c0,0.5-0.1,0.9-0.3,1.4c-0.1,0.2-0.3,0.6-0.6,1.1l-0.2-0.1c0-0.2,0-0.4,0-0.6s0-0.4,0-0.4
		c0-0.6,0-1.5-0.1-2.6s-0.2-2.2-0.3-3.4c-0.1-0.7-0.2-1.5-0.3-2.2c0.1-0.3,0.3-0.5,0.4-0.8s0.3-0.6,0.4-0.8c0.1,0.7,0.2,1.6,0.4,2.7
		s0.3,2.2,0.3,3.1C10.3,146.3,10.3,147.2,10.3,147.8z"/>
	<path class="st4" d="M20.2,148.9c0,0.9-0.2,1.7-0.7,2.2c-0.4,0.5-1,0.8-1.7,1c-0.6,0.2-1.5,0.3-2.5,0.3c-1.1,0-2-0.2-2.6-0.6
		c-0.7-0.5-1-1.1-1-2c0-0.5,0.1-1,0.2-1.6c0.1-0.5,0.3-1,0.6-1.5c0.2-0.4,0.4-0.9,0.7-1.4l0.3,0.2c-0.2,0.4-0.4,0.7-0.5,1.1
		c-0.2,0.4-0.3,0.8-0.4,1.1c-0.1,0.4-0.2,0.8-0.2,1.2c0,0.7,0.3,1.3,0.8,1.6s1.3,0.6,2.2,0.6c1,0,1.9-0.2,2.8-0.5
		c0.9-0.4,1.4-0.8,1.4-1.3c0-0.6-0.1-1.5-0.3-2.9c-0.1-1-0.3-2.2-0.5-3.5l-0.3-1.7l-0.4-0.2c0-0.8,0.2-1.5,0.5-2.1h0.1
		c0,0.2,0.1,0.4,0.1,0.5s0.2,0.2,0.3,0.2c0.2,0.1,0.4,0.2,0.6,0.3c0.2,0.1,0.3,0.1,0.4,0.2c0,0.4,0,0.7,0,0.9s-0.1,0.5-0.2,0.8
		l-0.5-0.2c0,0.1,0.1,0.7,0.3,1.8c0.2,1.2,0.3,2.2,0.4,3C20.1,147.4,20.2,148.3,20.2,148.9z"/>
	<path class="st4" d="M26.3,150h-1c-1,0-1.8,0.1-2.5,0.3c-0.9,0.2-1.4,0.6-1.4,1c0,0.4,0.1,0.8,0.2,1.2s0.3,0.9,0.4,1.3
		s0.2,0.9,0.2,1.2c0,0.2,0,0.4,0,0.6s-0.1,0.4-0.2,0.7c-0.2-0.5-0.3-1-0.4-1.5c-0.3-0.9-0.5-1.6-0.6-2.1c-0.2-0.8-0.3-1.2-0.3-1.4
		c0-0.8,0.2-1.3,0.5-1.7c0.3-0.4,0.8-0.7,1.4-0.9c0.5-0.2,1.3-0.3,2.3-0.4c-0.4-0.4-0.6-0.6-0.7-0.7c-0.3-0.2-0.6-0.4-0.9-0.4
		c-0.2,0-0.4,0.1-0.6,0.2c-0.1,0.1-0.3,0.3-0.5,0.5l-0.4-0.3c0.2-0.4,0.4-0.8,0.6-1.1c0.4-0.4,0.8-0.7,1.3-0.7
		c0.4,0,0.7,0.1,1.1,0.4c0.3,0.2,0.6,0.5,0.9,0.9c0.2,0.2,0.4,0.5,0.7,1V150z"/>
	<path class="st4" d="M41.1,150h-0.7c-0.4,0-0.7,0-0.9-0.1c-0.3-0.1-0.5-0.3-0.8-0.5c-0.2,0.2-0.5,0.4-0.7,0.4
		c-0.3,0.1-0.7,0.2-1.2,0.2h-1.1c0,0.5-0.1,1.1-0.4,1.6c-0.3,0.7-0.8,1.2-1.5,1.6c-0.9,0.5-1.9,0.7-3.2,0.7c-1.2,0-2.1-0.2-2.7-0.6
		c-0.7-0.5-1-1.1-1-2.1c0-0.5,0.1-1,0.2-1.5s0.3-1,0.5-1.6c0.1-0.3,0.4-0.8,0.7-1.5l0.4,0.2c-0.4,0.8-0.7,1.5-0.8,2
		s-0.2,0.9-0.2,1.3c0,0.7,0.3,1.3,0.8,1.7c0.5,0.4,1.3,0.6,2.2,0.6c1.1,0,2.1-0.2,3-0.6c1.1-0.5,1.7-1.2,1.7-2
		c0-0.6-0.1-1.1-0.3-1.7c-0.2-0.4-0.4-0.8-0.7-1.2l0.7-1.8c0.3,0.5,0.5,0.9,0.6,1.3c0.1,0.5,0.2,1.2,0.2,2.1h1.1
		c0.6,0,1-0.1,1.2-0.3c0.2-0.1,0.3-0.4,0.3-0.7c0-0.2,0-0.3,0-0.5c0-0.2-0.1-0.4-0.1-0.6l0.4-0.5l0.1,0.9c0.1,0.6,0.3,1,0.5,1.2
		c0.2,0.3,0.6,0.4,1,0.4c0.1,0,0.2,0,0.3-0.1s0.1-0.2,0.1-0.3c0-0.3-0.1-0.6-0.3-0.9c-0.1-0.2-0.3-0.5-0.5-0.7l0.6-1
		c0.3,0.5,0.4,0.8,0.5,0.9c0.1,0.4,0.2,0.9,0.2,1.6V150z"/>
	<path class="st4" d="M53.9,150h-8.4c-1.1,0-2-0.2-2.7-0.6c-0.8-0.5-1.3-1.3-1.3-2.3c0-0.5,0.1-1.1,0.4-1.7c0.1-0.2,0.3-0.6,0.6-1.2
		l0.3,0.2c-0.1,0.3-0.3,0.5-0.4,0.8c-0.2,0.4-0.3,0.8-0.3,1.1c0,0.7,0.4,1.2,1.1,1.6c0.7,0.3,1.5,0.5,2.5,0.5h7.4v-0.2
		c0-0.7-0.1-1.2-0.2-1.6c-0.2-0.4-0.4-0.8-0.8-1.1l0.7-1.4c0.3,0.3,0.4,0.5,0.5,0.6c0.4,0.7,0.6,1.6,0.6,2.9V150z M47.7,142.9
		l-0.7,1.3l-1.5-0.7l0.7-1.3L47.7,142.9z M49.8,142l-0.7,1.3l-1.4-0.7l0.7-1.3L49.8,142z"/>
	<path class="st4" d="M66.7,150h-8.4c-1.1,0-2-0.2-2.7-0.6c-0.8-0.5-1.3-1.3-1.3-2.3c0-0.5,0.1-1.1,0.4-1.7c0.1-0.2,0.3-0.6,0.6-1.2
		l0.3,0.2c-0.1,0.3-0.3,0.5-0.4,0.8c-0.2,0.4-0.3,0.8-0.3,1.1c0,0.7,0.4,1.2,1.1,1.6c0.7,0.3,1.5,0.5,2.5,0.5H66v-0.2
		c0-0.7-0.1-1.2-0.2-1.6c-0.2-0.4-0.4-0.8-0.8-1.1l0.7-1.4c0.3,0.3,0.4,0.5,0.5,0.6c0.4,0.7,0.6,1.6,0.6,2.9V150z M60.6,142.8
		l-0.7,1.3l-1.4-0.7l0.7-1.3L60.6,142.8z M60.9,140.5l-0.7,1.3l-1.4-0.8l0.7-1.3L60.9,140.5z M62.6,142l-0.7,1.3l-1.4-0.8l0.7-1.3
		L62.6,142z"/>
	<path class="st4" d="M72.8,150h-1c-1,0-1.8,0.1-2.5,0.3c-0.9,0.2-1.4,0.6-1.4,1c0,0.4,0.1,0.8,0.2,1.2s0.3,0.9,0.4,1.3
		s0.2,0.9,0.2,1.2c0,0.2,0,0.4,0,0.6s-0.1,0.4-0.2,0.7c-0.2-0.5-0.3-1-0.4-1.5c-0.3-0.9-0.5-1.6-0.6-2.1c-0.2-0.8-0.3-1.2-0.3-1.4
		c0-0.8,0.2-1.3,0.5-1.7c0.3-0.4,0.8-0.7,1.4-0.9c0.5-0.2,1.3-0.3,2.3-0.4c-0.4-0.4-0.6-0.6-0.7-0.7c-0.3-0.2-0.6-0.4-0.9-0.4
		c-0.2,0-0.4,0.1-0.6,0.2c-0.1,0.1-0.3,0.3-0.5,0.5l-0.4-0.3c0.2-0.4,0.4-0.8,0.6-1.1c0.4-0.4,0.8-0.7,1.3-0.7
		c0.4,0,0.7,0.1,1.1,0.4c0.3,0.2,0.6,0.5,0.9,0.9c0.2,0.2,0.4,0.5,0.7,1V150z"/>
	<path class="st4" d="M81.6,150c0,0.6-0.3,1.3-0.8,2c-0.5,0.6-1.1,1.1-1.8,1.6c-0.7,0.4-1.2,0.6-1.7,0.6c-0.4,0-0.8-0.1-1.3-0.2
		c-0.4-0.1-0.8-0.2-1.3-0.4c-0.4-0.2-0.8-0.3-1.3-0.5l0.1-0.4c0.4,0.1,0.8,0.2,1.2,0.2c0.4,0.1,0.8,0.1,1.1,0.1
		c0.8,0,1.5-0.2,2.3-0.7c0.7-0.4,1.4-1,1.9-1.7s0.8-1.3,0.8-1.8c0-0.5-0.1-0.9-0.4-1.5c-0.2-0.4-0.5-0.8-0.9-1.3l0.5-1.4
		c0.5,0.4,0.8,0.9,1.1,1.3c0.3,0.5,0.4,1.1,0.4,1.7V150z"/>
	<path class="st4" d="M85.8,156.4c-0.9-1.1-1.6-2.4-2.2-3.9s-0.9-3-0.9-4.6c0-1.4,0.2-2.7,0.7-4c0.5-1.5,1.3-3,2.4-4.4H87
		c-0.7,1.2-1.2,2.1-1.4,2.6c-0.4,0.8-0.6,1.7-0.8,2.5c-0.3,1.1-0.4,2.2-0.4,3.3c0,2.8,0.9,5.6,2.6,8.4H85.8z"/>
	<path class="st4" d="M91.9,146.5c-0.1,0-0.3,0-0.5,0s-0.4,0-0.5,0c-0.4,0-0.8,0-1.3,0.1c-0.3,0-0.7,0.1-1.2,0.2
		c0.2-0.7,0.5-1.1,0.7-1.3c0.4-0.4,1.2-0.7,2.2-0.7c0.4,0,1.2,0.1,2.4,0.2c0.6,0.1,1,0.1,1.4,0.1c0.2,0,0.4,0,0.7-0.1
		s0.6-0.1,0.7-0.1l-0.3,1.5c-1.2,0.2-2.3,0.5-3.2,0.7c-1.3,0.4-2.3,0.9-3,1.5c-0.9,0.7-1.3,1.6-1.3,2.5c0,1.3,0.7,2.2,2,2.8
		c1.1,0.6,2.7,0.8,4.6,0.8h1.6l0.1,0.1l-2,1.4h-0.5c-1.3,0-2.3-0.1-3.2-0.4c-1-0.3-1.8-0.7-2.3-1.4c-0.6-0.7-0.9-1.6-0.9-2.8
		c0-1,0.2-1.9,0.7-2.7c0.4-0.6,0.9-1.2,1.5-1.7C90.5,147.4,91,147,91.9,146.5z"/>
	<path class="st4" d="M100.7,147.8c0,0.5-0.1,0.9-0.3,1.4c-0.1,0.2-0.3,0.6-0.6,1.1l-0.2-0.1c0-0.2,0-0.4,0-0.6s0-0.4,0-0.4
		c0-0.6,0-1.5-0.1-2.6s-0.2-2.2-0.3-3.4c-0.1-0.7-0.2-1.5-0.3-2.2c0.1-0.3,0.3-0.5,0.4-0.8s0.3-0.6,0.4-0.8c0.1,0.7,0.2,1.6,0.4,2.7
		s0.3,2.2,0.3,3.1C100.7,146.3,100.7,147.2,100.7,147.8z"/>
	<path class="st4" d="M107.5,150h-1c-1,0-1.8,0.1-2.5,0.3c-0.9,0.2-1.4,0.6-1.4,1c0,0.4,0.1,0.8,0.2,1.2s0.3,0.9,0.4,1.3
		s0.2,0.9,0.2,1.2c0,0.2,0,0.4,0,0.6s-0.1,0.4-0.2,0.7c-0.2-0.5-0.3-1-0.4-1.5c-0.3-0.9-0.5-1.6-0.6-2.1c-0.2-0.8-0.3-1.2-0.3-1.4
		c0-0.8,0.2-1.3,0.5-1.7c0.3-0.4,0.8-0.7,1.4-0.9c0.5-0.2,1.3-0.3,2.3-0.4c-0.4-0.4-0.6-0.6-0.7-0.7c-0.3-0.2-0.6-0.4-0.9-0.4
		c-0.2,0-0.4,0.1-0.6,0.2c-0.1,0.1-0.3,0.3-0.5,0.5l-0.4-0.3c0.2-0.4,0.4-0.8,0.6-1.1c0.4-0.4,0.8-0.7,1.3-0.7
		c0.4,0,0.7,0.1,1.1,0.4c0.3,0.2,0.6,0.5,0.9,0.9c0.2,0.2,0.4,0.5,0.7,1V150z"/>
	<path class="st4" d="M116.7,148.9c0,0.9-0.2,1.7-0.7,2.2c-0.4,0.5-1,0.8-1.7,1c-0.6,0.2-1.5,0.3-2.5,0.3c-1.1,0-2-0.2-2.6-0.6
		c-0.7-0.5-1-1.1-1-2c0-0.5,0.1-1,0.2-1.6c0.1-0.5,0.3-1,0.6-1.5c0.2-0.4,0.4-0.9,0.7-1.4l0.3,0.2c-0.2,0.4-0.4,0.7-0.5,1.1
		c-0.2,0.4-0.3,0.8-0.4,1.1c-0.1,0.4-0.2,0.8-0.2,1.2c0,0.7,0.3,1.3,0.8,1.6s1.3,0.6,2.2,0.6c1,0,1.9-0.2,2.8-0.5
		c0.9-0.4,1.4-0.8,1.4-1.3c0-0.6-0.1-1.5-0.3-2.9c-0.1-1-0.3-2.2-0.5-3.5l-0.3-1.7l-0.4-0.2c0-0.8,0.2-1.5,0.5-2.1h0.1
		c0,0.2,0.1,0.4,0.1,0.5s0.2,0.2,0.3,0.2c0.2,0.1,0.4,0.2,0.6,0.3c0.2,0.1,0.3,0.1,0.4,0.2c0,0.4,0,0.7,0,0.9s-0.1,0.5-0.2,0.8
		l-0.5-0.2c0,0.1,0.1,0.7,0.3,1.8c0.2,1.2,0.3,2.2,0.4,3C116.6,147.4,116.7,148.3,116.7,148.9z"/>
	<path class="st4" d="M124.6,147.8c0,0.5-0.1,0.9-0.3,1.4c-0.1,0.2-0.3,0.6-0.6,1.1l-0.2-0.1c0-0.2,0-0.4,0-0.6s0-0.4,0-0.4
		c0-0.6,0-1.5-0.1-2.6s-0.2-2.2-0.3-3.4c-0.1-0.7-0.2-1.5-0.3-2.2c0.1-0.3,0.3-0.5,0.4-0.8s0.3-0.6,0.4-0.8c0.1,0.7,0.2,1.6,0.4,2.7
		s0.3,2.2,0.3,3.1C124.6,146.3,124.6,147.2,124.6,147.8z"/>
	<path class="st4" d="M134.5,148.9c0,0.9-0.2,1.7-0.7,2.2c-0.4,0.5-1,0.8-1.7,1c-0.6,0.2-1.5,0.3-2.5,0.3c-1.1,0-2-0.2-2.6-0.6
		c-0.7-0.5-1-1.1-1-2c0-0.5,0.1-1,0.2-1.6c0.1-0.5,0.3-1,0.6-1.5c0.2-0.4,0.4-0.9,0.7-1.4l0.3,0.2c-0.2,0.4-0.4,0.7-0.5,1.1
		c-0.2,0.4-0.3,0.8-0.4,1.1c-0.1,0.4-0.2,0.8-0.2,1.2c0,0.7,0.3,1.3,0.8,1.6s1.3,0.6,2.2,0.6c1,0,1.9-0.2,2.8-0.5
		c0.9-0.4,1.4-0.8,1.4-1.3c0-0.6-0.1-1.5-0.3-2.9c-0.1-1-0.3-2.2-0.5-3.5l-0.3-1.7l-0.4-0.2c0-0.8,0.2-1.5,0.5-2.1h0.1
		c0,0.2,0.1,0.4,0.1,0.5s0.2,0.2,0.3,0.2c0.2,0.1,0.4,0.2,0.6,0.3c0.2,0.1,0.3,0.1,0.4,0.2c0,0.4,0,0.7,0,0.9s-0.1,0.5-0.2,0.8
		l-0.5-0.2c0,0.1,0.1,0.7,0.3,1.8c0.2,1.2,0.3,2.2,0.4,3C134.4,147.4,134.5,148.3,134.5,148.9z"/>
	<path class="st4" d="M143.8,154.9l-2.2,1.5c-1.2,0-2.2,0-2.8-0.1c-1.2-0.2-2-0.5-2.7-1c-0.8-0.6-1.2-1.6-1.2-2.8
		c0-0.7,0.1-1.4,0.3-2c0.2-0.5,0.4-0.9,0.8-1.3c0.2-0.2,0.5-0.5,0.9-0.9c-0.6-0.3-1-0.5-1.2-0.7c-0.5-0.5-0.7-1-0.7-1.7
		c0-0.6,0.3-1.2,0.8-1.8c0.6-0.7,1.3-1,2.2-1c0.4,0,0.8,0.1,1.2,0.3c0.3,0.1,0.6,0.4,1.1,0.7c-0.6,0-1.2,0-1.8,0.1
		c-0.8,0.1-1.4,0.2-1.9,0.4c-0.6,0.2-0.9,0.5-0.9,0.8c0,0.4,0.3,0.7,1,1c0.6,0.3,1.2,0.5,1.9,0.6c0.6-0.3,1.2-0.6,1.7-0.8
		c0.6-0.2,1.3-0.5,1.9-0.6l-0.4,1.4c-1.2,0.5-2.1,0.8-2.6,1.1c-1.1,0.5-1.9,1-2.5,1.6c-0.7,0.7-1.1,1.4-1.1,2.2c0,0.8,0.3,1.5,0.9,2
		c0.5,0.4,1.3,0.7,2.4,0.9c0.8,0.1,1.9,0.2,3.2,0.2c0.3,0,0.6,0,0.8,0S143.5,154.9,143.8,154.9L143.8,154.9z"/>
	<path class="st4" d="M150.4,150h-1c-1,0-1.8,0.1-2.5,0.3c-0.9,0.2-1.4,0.6-1.4,1c0,0.4,0.1,0.8,0.2,1.2s0.3,0.9,0.4,1.3
		s0.2,0.9,0.2,1.2c0,0.2,0,0.4,0,0.6s-0.1,0.4-0.2,0.7c-0.2-0.5-0.3-1-0.4-1.5c-0.3-0.9-0.5-1.6-0.6-2.1c-0.2-0.8-0.3-1.2-0.3-1.4
		c0-0.8,0.2-1.3,0.5-1.7c0.3-0.4,0.8-0.7,1.4-0.9c0.5-0.2,1.3-0.3,2.3-0.4c-0.4-0.4-0.6-0.6-0.7-0.7c-0.3-0.2-0.6-0.4-0.9-0.4
		c-0.2,0-0.4,0.1-0.6,0.2c-0.1,0.1-0.3,0.3-0.5,0.5l-0.4-0.3c0.2-0.4,0.4-0.8,0.6-1.1c0.4-0.4,0.8-0.7,1.3-0.7
		c0.4,0,0.7,0.1,1.1,0.4c0.3,0.2,0.6,0.5,0.9,0.9c0.2,0.2,0.4,0.5,0.7,1V150z"/>
	<path class="st4" d="M159.5,148.9c0,0.9-0.2,1.7-0.7,2.2c-0.4,0.5-1,0.8-1.7,1c-0.6,0.2-1.5,0.3-2.5,0.3c-1.1,0-2-0.2-2.6-0.6
		c-0.7-0.5-1-1.1-1-2c0-0.5,0.1-1,0.2-1.6c0.1-0.5,0.3-1,0.6-1.5c0.2-0.4,0.4-0.9,0.7-1.4l0.3,0.2c-0.2,0.4-0.4,0.7-0.5,1.1
		c-0.2,0.4-0.3,0.8-0.4,1.1c-0.1,0.4-0.2,0.8-0.2,1.2c0,0.7,0.3,1.3,0.8,1.6s1.3,0.6,2.2,0.6c1,0,1.9-0.2,2.8-0.5
		c0.9-0.4,1.4-0.8,1.4-1.3c0-0.6-0.1-1.5-0.3-2.9c-0.1-1-0.3-2.2-0.5-3.5l-0.3-1.7l-0.4-0.2c0-0.8,0.2-1.5,0.5-2.1h0.1
		c0,0.2,0.1,0.4,0.1,0.5s0.2,0.2,0.3,0.2c0.2,0.1,0.4,0.2,0.6,0.3c0.2,0.1,0.3,0.1,0.4,0.2c0,0.4,0,0.7,0,0.9s-0.1,0.5-0.2,0.8
		l-0.5-0.2c0,0.1,0.1,0.7,0.3,1.8c0.2,1.2,0.3,2.2,0.4,3C159.4,147.4,159.5,148.3,159.5,148.9z"/>
	<path class="st4" d="M161.6,142.6l-0.7,1.3l-1.5-0.7l0.7-1.3L161.6,142.6z M164.4,147.4c0,0.8-0.1,1.4-0.4,1.9
		c-0.4,0.6-1.2,1-2.3,1c-0.4,0-0.8-0.1-1.1-0.3c-0.3-0.2-0.5-0.5-0.5-0.8c0-0.4,0.1-0.9,0.3-1.4c0.2-0.5,0.4-0.9,0.6-1.4l-0.1,0
		l0.5-1.5c1.1,0.6,1.7,0.9,1.9,1.1C164,146.4,164.4,146.9,164.4,147.4z M163.6,148.1c0-0.2-0.3-0.5-1-0.9c-0.3-0.2-0.6-0.3-0.9-0.5
		c-0.3,0.3-0.4,0.5-0.5,0.5c-0.2,0.2-0.2,0.4-0.2,0.7c0,0.3,0.1,0.5,0.3,0.7c0.2,0.2,0.4,0.3,0.7,0.3c0.3,0,0.7-0.1,1.1-0.3
		C163.4,148.4,163.6,148.3,163.6,148.1z M163.6,141.8l-0.7,1.3l-1.4-0.7l0.7-1.3L163.6,141.8z"/>
	<path class="st4" d="M172.5,147.8c0,0.5-0.1,0.9-0.3,1.4c-0.1,0.2-0.3,0.6-0.6,1.1l-0.2-0.1c0-0.2,0-0.4,0-0.6s0-0.4,0-0.4
		c0-0.6,0-1.5-0.1-2.6s-0.2-2.2-0.3-3.4c-0.1-0.7-0.2-1.5-0.3-2.2c0.1-0.3,0.3-0.5,0.4-0.8s0.3-0.6,0.4-0.8c0.1,0.7,0.2,1.6,0.4,2.7
		s0.3,2.2,0.3,3.1C172.5,146.3,172.5,147.2,172.5,147.8z"/>
	<path class="st4" d="M182.4,148.9c0,0.9-0.2,1.7-0.7,2.2c-0.4,0.5-1,0.8-1.7,1c-0.6,0.2-1.5,0.3-2.5,0.3c-1.1,0-2-0.2-2.6-0.6
		c-0.7-0.5-1-1.1-1-2c0-0.5,0.1-1,0.2-1.6c0.1-0.5,0.3-1,0.6-1.5c0.2-0.4,0.4-0.9,0.7-1.4l0.3,0.2c-0.2,0.4-0.4,0.7-0.5,1.1
		c-0.2,0.4-0.3,0.8-0.4,1.1c-0.1,0.4-0.2,0.8-0.2,1.2c0,0.7,0.3,1.3,0.8,1.6s1.3,0.6,2.2,0.6c1,0,1.9-0.2,2.8-0.5
		c0.9-0.4,1.4-0.8,1.4-1.3c0-0.6-0.1-1.5-0.3-2.9c-0.1-1-0.3-2.2-0.5-3.5l-0.3-1.7l-0.4-0.2c0-0.8,0.2-1.5,0.5-2.1h0.1
		c0,0.2,0.1,0.4,0.1,0.5s0.2,0.2,0.3,0.2c0.2,0.1,0.4,0.2,0.6,0.3c0.2,0.1,0.3,0.1,0.4,0.2c0,0.4,0,0.7,0,0.9s-0.1,0.5-0.2,0.8
		l-0.5-0.2c0,0.1,0.1,0.7,0.3,1.8c0.2,1.2,0.3,2.2,0.4,3C182.3,147.4,182.4,148.3,182.4,148.9z"/>
	<path class="st4" d="M191.2,150c0,0.6-0.3,1.3-0.8,2c-0.5,0.6-1.1,1.1-1.8,1.6c-0.7,0.4-1.2,0.6-1.7,0.6c-0.4,0-0.8-0.1-1.3-0.2
		c-0.4-0.1-0.8-0.2-1.3-0.4c-0.4-0.2-0.8-0.3-1.3-0.5l0.1-0.4c0.4,0.1,0.8,0.2,1.2,0.2c0.4,0.1,0.8,0.1,1.1,0.1
		c0.8,0,1.5-0.2,2.3-0.7c0.7-0.4,1.4-1,1.9-1.7s0.8-1.3,0.8-1.8c0-0.5-0.1-0.9-0.4-1.5c-0.2-0.4-0.5-0.8-0.9-1.3l0.5-1.4
		c0.5,0.4,0.8,0.9,1.1,1.3c0.3,0.5,0.4,1.1,0.4,1.7V150z"/>
	<path class="st4" d="M197.3,150h-1c-1,0-1.8,0.1-2.5,0.3c-0.9,0.2-1.4,0.6-1.4,1c0,0.4,0.1,0.8,0.2,1.2s0.3,0.9,0.4,1.3
		s0.2,0.9,0.2,1.2c0,0.2,0,0.4,0,0.6s-0.1,0.4-0.2,0.7c-0.2-0.5-0.3-1-0.4-1.5c-0.3-0.9-0.5-1.6-0.6-2.1c-0.2-0.8-0.3-1.2-0.3-1.4
		c0-0.8,0.2-1.3,0.5-1.7c0.3-0.4,0.8-0.7,1.4-0.9c0.5-0.2,1.3-0.3,2.3-0.4c-0.4-0.4-0.6-0.6-0.7-0.7c-0.3-0.2-0.6-0.4-0.9-0.4
		c-0.2,0-0.4,0.1-0.6,0.2c-0.1,0.1-0.3,0.3-0.5,0.5l-0.4-0.3c0.2-0.4,0.4-0.8,0.6-1.1c0.4-0.4,0.8-0.7,1.3-0.7
		c0.4,0,0.7,0.1,1.1,0.4c0.3,0.2,0.6,0.5,0.9,0.9c0.2,0.2,0.4,0.5,0.7,1V150z"/>
	<path class="st4" d="M206.1,150c0,0.6-0.3,1.3-0.8,2c-0.5,0.6-1.1,1.1-1.8,1.6c-0.7,0.4-1.2,0.6-1.7,0.6c-0.4,0-0.8-0.1-1.3-0.2
		c-0.4-0.1-0.8-0.2-1.3-0.4c-0.4-0.2-0.8-0.3-1.3-0.5l0.1-0.4c0.4,0.1,0.8,0.2,1.2,0.2c0.4,0.1,0.8,0.1,1.1,0.1
		c0.8,0,1.5-0.2,2.3-0.7c0.7-0.4,1.4-1,1.9-1.7s0.8-1.3,0.8-1.8c0-0.5-0.1-0.9-0.4-1.5c-0.2-0.4-0.5-0.8-0.9-1.3l0.5-1.4
		c0.5,0.4,0.8,0.9,1.1,1.3c0.3,0.5,0.4,1.1,0.4,1.7V150z M204.8,141.8l-0.7,1.3l-1.4-0.7l0.7-1.3L204.8,141.8z"/>
	<path class="st4" d="M217,145.6c0,0.2,0,0.4-0.1,0.6s-0.1,0.3-0.1,0.4c-0.2-0.3-0.4-0.5-0.7-0.6s-0.6-0.2-0.9-0.2
		c-0.5,0-1,0.3-1.6,0.9c-0.5,0.5-0.8,1-0.8,1.3c0,0.1,0.1,0.2,0.2,0.3s0.3,0.1,0.7,0.1h0.7c0.4,0,0.7,0,0.9,0c0.2,0,0.4,0,0.7,0.1
		s0.4,0.3,0.4,0.6c0,1.5-0.6,2.6-1.9,3.4c-1.2,0.7-2.8,1.1-4.8,1.1c-1,0-1.8-0.2-2.4-0.6c-0.6-0.4-0.9-1.1-0.9-2
		c0-0.6,0.1-1.2,0.3-1.9c0.2-0.5,0.4-1,0.6-1.6c0,0,0.2-0.4,0.6-1l0.4,0.1c-0.4,0.7-0.7,1.3-0.8,1.8c-0.2,0.6-0.3,1.1-0.3,1.5
		c0,0.7,0.2,1.3,0.7,1.6s1.2,0.5,2.1,0.5c0.7,0,1.5-0.1,2.5-0.4c0.8-0.2,1.5-0.5,2.2-0.9s1-0.6,1-0.7c0-0.1,0-0.2-0.1-0.2
		s-0.2-0.1-0.4-0.1h-2.1c-0.3,0-0.5-0.1-0.7-0.3s-0.3-0.4-0.3-0.7c0-0.4,0.2-0.9,0.5-1.6c0.4-0.7,0.8-1.3,1.3-1.8
		c0.6-0.6,1.2-0.9,1.8-0.9c0.4,0,0.7,0.1,0.9,0.4S217,145.2,217,145.6z M211.7,155.1l-0.7,1.3l-1.5-0.7l0.7-1.3L211.7,155.1z
		 M213.7,154.3l-0.7,1.3l-1.4-0.7l0.7-1.3L213.7,154.3z"/>
	<path class="st4" d="M219.7,142.6l-0.7,1.3l-1.5-0.7l0.7-1.3L219.7,142.6z M222.5,147.4c0,0.8-0.1,1.4-0.4,1.9
		c-0.4,0.6-1.2,1-2.3,1c-0.4,0-0.8-0.1-1.1-0.3c-0.3-0.2-0.5-0.5-0.5-0.8c0-0.4,0.1-0.9,0.3-1.4c0.2-0.5,0.4-0.9,0.6-1.4l-0.1,0
		l0.5-1.5c1.1,0.6,1.7,0.9,1.9,1.1C222.1,146.4,222.5,146.9,222.5,147.4z M221.7,148.1c0-0.2-0.3-0.5-1-0.9
		c-0.3-0.2-0.6-0.3-0.9-0.5c-0.3,0.3-0.4,0.5-0.5,0.5c-0.2,0.2-0.2,0.4-0.2,0.7c0,0.3,0.1,0.5,0.3,0.7c0.2,0.2,0.4,0.3,0.7,0.3
		c0.3,0,0.7-0.1,1.1-0.3C221.5,148.4,221.7,148.3,221.7,148.1z M221.7,141.8l-0.7,1.3l-1.4-0.7l0.7-1.3L221.7,141.8z"/>
	<path class="st4" d="M224.9,156.4h-1.1c1.8-2.8,2.6-5.6,2.6-8.4c0-1.1-0.1-2.2-0.4-3.3c-0.2-0.9-0.5-1.7-0.8-2.5
		c-0.2-0.5-0.7-1.4-1.4-2.6h1.1c1.1,1.5,1.9,2.9,2.4,4.4c0.5,1.3,0.7,2.6,0.7,4c0,1.6-0.3,3.1-0.9,4.6S225.8,155.3,224.9,156.4z"/>
</g>
<g>
	<path d="M316.9,87V74.1h1.7v5.3h6.7v-5.3h1.7V87h-1.7v-6.1h-6.7V87H316.9z"/>
	<path d="M329,82.3c0-1.7,0.5-3,1.4-3.8c0.8-0.7,1.8-1,2.9-1c1.3,0,2.3,0.4,3.1,1.3s1.2,2,1.2,3.5c0,1.2-0.2,2.1-0.5,2.8
		c-0.4,0.7-0.9,1.2-1.6,1.6s-1.4,0.6-2.3,0.6c-1.3,0-2.4-0.4-3.2-1.3S329,83.9,329,82.3z M330.7,82.3c0,1.2,0.3,2.1,0.8,2.7
		c0.5,0.6,1.2,0.9,2,0.9c0.8,0,1.4-0.3,2-0.9s0.8-1.5,0.8-2.7c0-1.2-0.3-2-0.8-2.6c-0.5-0.6-1.2-0.9-2-0.9c-0.8,0-1.4,0.3-2,0.9
		S330.7,81.1,330.7,82.3z"/>
	<path d="M345.7,87v-1.4c-0.7,1.1-1.7,1.6-3,1.6c-0.6,0-1.1-0.1-1.5-0.3s-0.8-0.5-1.1-0.8s-0.4-0.7-0.5-1.2
		c-0.1-0.3-0.1-0.8-0.1-1.5v-5.8h1.6v5.2c0,0.8,0,1.4,0.1,1.7c0.1,0.4,0.3,0.7,0.6,1c0.3,0.2,0.7,0.4,1.2,0.4s0.9-0.1,1.3-0.4
		s0.7-0.6,0.9-1c0.2-0.4,0.3-1,0.3-1.8v-5h1.6V87H345.7z"/>
	<path d="M349,84.2l1.6-0.2c0.1,0.6,0.3,1.1,0.7,1.4s1,0.5,1.7,0.5c0.7,0,1.3-0.1,1.6-0.4s0.5-0.6,0.5-1c0-0.4-0.2-0.6-0.5-0.8
		c-0.2-0.1-0.8-0.3-1.6-0.5c-1.2-0.3-2-0.5-2.4-0.8s-0.8-0.5-1-0.9c-0.2-0.4-0.3-0.8-0.3-1.3c0-0.4,0.1-0.8,0.3-1.2
		c0.2-0.4,0.4-0.6,0.8-0.9c0.2-0.2,0.6-0.3,1-0.5s0.9-0.2,1.4-0.2c0.7,0,1.4,0.1,1.9,0.3s1,0.5,1.2,0.9c0.3,0.4,0.4,0.8,0.5,1.4
		l-1.5,0.2c-0.1-0.5-0.3-0.9-0.6-1.1s-0.8-0.4-1.4-0.4c-0.7,0-1.2,0.1-1.6,0.4s-0.5,0.5-0.5,0.8c0,0.2,0.1,0.4,0.2,0.6
		c0.1,0.2,0.3,0.3,0.6,0.4c0.2,0.1,0.6,0.2,1.4,0.4c1.1,0.3,1.9,0.5,2.3,0.7s0.8,0.5,1,0.8s0.4,0.8,0.4,1.4c0,0.5-0.2,1-0.5,1.5
		c-0.3,0.5-0.8,0.8-1.3,1.1c-0.6,0.3-1.2,0.4-2,0.4c-1.2,0-2.1-0.3-2.8-0.8S349.2,85.2,349,84.2z"/>
	<path d="M365,84l1.6,0.2c-0.3,1-0.7,1.7-1.4,2.2s-1.6,0.8-2.7,0.8c-1.4,0-2.4-0.4-3.2-1.3c-0.8-0.8-1.2-2-1.2-3.5
		c0-1.6,0.4-2.8,1.2-3.7s1.9-1.3,3.1-1.3c1.2,0,2.3,0.4,3.1,1.3s1.2,2,1.2,3.6c0,0.1,0,0.2,0,0.4h-7c0.1,1,0.3,1.8,0.9,2.4
		s1.2,0.8,2,0.8c0.6,0,1.1-0.2,1.5-0.5S364.8,84.7,365,84z M359.8,81.4h5.2c-0.1-0.8-0.3-1.4-0.6-1.8c-0.5-0.6-1.2-0.9-2-0.9
		c-0.7,0-1.3,0.2-1.8,0.7S359.9,80.6,359.8,81.4z"/>
	<path d="M372.1,87V75.6h-4.2v-1.5h10.2v1.5h-4.3V87H372.1z"/>
	<path d="M377.1,82.3c0-1.7,0.5-3,1.4-3.8c0.8-0.7,1.8-1,2.9-1c1.3,0,2.3,0.4,3.1,1.3s1.2,2,1.2,3.5c0,1.2-0.2,2.1-0.5,2.8
		c-0.4,0.7-0.9,1.2-1.6,1.6s-1.4,0.6-2.3,0.6c-1.3,0-2.4-0.4-3.2-1.3S377.1,83.9,377.1,82.3z M378.7,82.3c0,1.2,0.3,2.1,0.8,2.7
		c0.5,0.6,1.2,0.9,2,0.9c0.8,0,1.4-0.3,2-0.9s0.8-1.5,0.8-2.7c0-1.2-0.3-2-0.8-2.6c-0.5-0.6-1.2-0.9-2-0.9c-0.8,0-1.4,0.3-2,0.9
		S378.7,81.1,378.7,82.3z"/>
	<path d="M387.7,87V74.1h1.6v7.3l3.7-3.8h2l-3.6,3.5l3.9,5.9h-2l-3.1-4.8l-1.1,1.1V87H387.7z"/>
	<path d="M403.1,84l1.6,0.2c-0.3,1-0.7,1.7-1.4,2.2s-1.6,0.8-2.7,0.8c-1.4,0-2.4-0.4-3.2-1.3c-0.8-0.8-1.2-2-1.2-3.5
		c0-1.6,0.4-2.8,1.2-3.7s1.9-1.3,3.1-1.3c1.2,0,2.3,0.4,3.1,1.3s1.2,2,1.2,3.6c0,0.1,0,0.2,0,0.4h-7c0.1,1,0.3,1.8,0.9,2.4
		s1.2,0.8,2,0.8c0.6,0,1.1-0.2,1.5-0.5S402.8,84.7,403.1,84z M397.9,81.4h5.2c-0.1-0.8-0.3-1.4-0.6-1.8c-0.5-0.6-1.2-0.9-2-0.9
		c-0.7,0-1.3,0.2-1.8,0.7S397.9,80.6,397.9,81.4z"/>
	<path d="M406.7,87v-9.3h1.4V79c0.7-1,1.7-1.5,3-1.5c0.6,0,1.1,0.1,1.6,0.3c0.5,0.2,0.8,0.5,1.1,0.8s0.4,0.7,0.5,1.2
		c0.1,0.3,0.1,0.8,0.1,1.5V87h-1.6v-5.7c0-0.6-0.1-1.1-0.2-1.4s-0.3-0.6-0.7-0.8c-0.3-0.2-0.7-0.3-1.1-0.3c-0.7,0-1.3,0.2-1.7,0.6
		s-0.7,1.2-0.7,2.4V87H406.7z"/>
	<path d="M421.8,87V74.1h1.7v11.4h6.3V87H421.8z"/>
	<path d="M433.8,87V75.6h-4.2v-1.5h10.2v1.5h-4.3V87H433.8z"/>
	<path d="M441.6,87V74.1h4.4c1,0,1.8,0.1,2.3,0.2c0.7,0.2,1.4,0.5,1.9,0.9c0.7,0.6,1.2,1.3,1.5,2.2c0.3,0.9,0.5,1.9,0.5,3.1
		c0,1-0.1,1.8-0.3,2.6s-0.5,1.4-0.9,1.9c-0.4,0.5-0.7,0.9-1.2,1.2s-0.9,0.5-1.5,0.6S447,87,446.2,87H441.6z M443.3,85.5h2.8
		c0.8,0,1.5-0.1,2-0.2s0.9-0.4,1.2-0.7c0.4-0.4,0.7-0.9,0.9-1.6c0.2-0.7,0.3-1.5,0.3-2.5c0-1.3-0.2-2.4-0.7-3.1
		c-0.4-0.7-1-1.2-1.6-1.5c-0.5-0.2-1.2-0.3-2.2-0.3h-2.7V85.5z"/>
	<path d="M299.6,112.4c-0.9-1.1-1.6-2.4-2.2-3.9s-0.9-3-0.9-4.6c0-1.4,0.2-2.7,0.7-4c0.5-1.5,1.3-3,2.4-4.4h1.1
		c-0.7,1.2-1.2,2.1-1.4,2.6c-0.4,0.8-0.6,1.7-0.8,2.5c-0.3,1.1-0.4,2.2-0.4,3.3c0,2.8,0.9,5.6,2.6,8.4H299.6z"/>
	<path d="M316.2,106h-0.7c-0.4,0-0.7,0-0.9-0.1c-0.3-0.1-0.5-0.3-0.8-0.5c-0.2,0.2-0.5,0.4-0.7,0.4c-0.3,0.1-0.7,0.2-1.2,0.2h-1.1
		c0,0.5-0.1,1.1-0.4,1.6c-0.3,0.7-0.8,1.2-1.5,1.6c-0.9,0.5-1.9,0.7-3.2,0.7c-1.2,0-2.1-0.2-2.7-0.6c-0.7-0.5-1-1.1-1-2.1
		c0-0.5,0.1-1,0.2-1.5s0.3-1,0.5-1.6c0.1-0.3,0.4-0.8,0.7-1.5l0.4,0.2c-0.4,0.8-0.7,1.5-0.8,2s-0.2,0.9-0.2,1.3
		c0,0.7,0.3,1.3,0.8,1.7c0.5,0.4,1.3,0.6,2.2,0.6c1.1,0,2.1-0.2,3-0.6c1.1-0.5,1.7-1.2,1.7-2c0-0.6-0.1-1.1-0.3-1.7
		c-0.2-0.4-0.4-0.8-0.7-1.2l0.7-1.8c0.3,0.5,0.5,0.9,0.6,1.3c0.1,0.5,0.2,1.2,0.2,2.1h1.1c0.6,0,1-0.1,1.2-0.3
		c0.2-0.1,0.3-0.4,0.3-0.7c0-0.2,0-0.3,0-0.5c0-0.2-0.1-0.4-0.1-0.6l0.4-0.5l0.1,0.9c0.1,0.6,0.3,1,0.5,1.2c0.2,0.3,0.6,0.4,1,0.4
		c0.1,0,0.2,0,0.3-0.1s0.1-0.2,0.1-0.3c0-0.3-0.1-0.6-0.3-0.9c-0.1-0.2-0.3-0.5-0.5-0.7l0.6-1c0.3,0.5,0.4,0.8,0.5,0.9
		c0.1,0.4,0.2,0.9,0.2,1.6V106z M313.4,98.8l-0.7,1.3l-1.4-0.7l0.7-1.3L313.4,98.8z M313.7,96.5l-0.7,1.3l-1.4-0.8l0.7-1.3
		L313.7,96.5z M315.5,98l-0.7,1.3l-1.4-0.8l0.7-1.3L315.5,98z"/>
	<path d="M325,106c0,0.6-0.3,1.3-0.8,2c-0.5,0.6-1.1,1.1-1.8,1.6c-0.7,0.4-1.2,0.6-1.7,0.6c-0.4,0-0.8-0.1-1.3-0.2
		c-0.4-0.1-0.8-0.2-1.3-0.4c-0.4-0.2-0.8-0.3-1.3-0.5l0.1-0.4c0.4,0.1,0.8,0.2,1.2,0.2c0.4,0.1,0.8,0.1,1.1,0.1
		c0.8,0,1.5-0.2,2.3-0.7c0.7-0.4,1.4-1,1.9-1.7s0.8-1.3,0.8-1.8c0-0.5-0.1-0.9-0.4-1.5c-0.2-0.4-0.5-0.8-0.9-1.3l0.5-1.4
		c0.5,0.4,0.8,0.9,1.1,1.3c0.3,0.5,0.4,1.1,0.4,1.7V106z"/>
	<path d="M335.8,106h-6.5c-1.4,0-2.4-0.2-3-0.5c-0.6-0.4-0.9-1-0.9-1.8c0-0.5,0.1-1.1,0.4-1.8c0.1-0.2,0.2-0.5,0.5-1l0.3,0.2
		c-0.2,0.5-0.3,0.8-0.4,1.1s-0.1,0.5-0.1,0.7c0,0.6,0.3,1.1,1,1.3c0.5,0.2,1.2,0.3,2.2,0.3h5.6l-1.1-7.5l-0.5-0.2
		c0-0.4,0-0.8,0.1-1.1c0.1-0.4,0.2-0.7,0.3-1l0.1,0.1c0,0.3,0.2,0.6,0.6,0.8l0.9,0.4c0,0.3,0,0.6-0.1,0.9s-0.1,0.6-0.2,0.8l-0.4-0.1
		l1,6.9V106z M332.6,100.7c0,0.6-0.2,1.1-0.6,1.5s-1,0.5-1.8,0.5c-0.4,0-0.8,0-1.2-0.1c-0.3-0.1-0.7-0.2-1.2-0.3l0.1-0.2
		c0.1,0,0.3,0,0.5,0c0.5,0,0.8,0.1,0.9,0.1c0.7,0,1.3-0.1,1.7-0.3c0.5-0.2,0.7-0.4,0.7-0.7c0-0.1,0-0.2-0.1-0.3s-0.2-0.1-0.4-0.1
		c-0.2,0-0.3,0-0.4,0l-0.6,0c-0.1,0-0.3,0-0.4-0.1s-0.2-0.2-0.2-0.4c0-0.5,0.3-1.1,0.8-1.8s1.1-1.1,1.6-1.3l-0.2,1.2
		c-0.4,0.1-0.7,0.2-0.9,0.4c-0.4,0.2-0.5,0.5-0.5,0.7c0,0.1,0,0.2,0.1,0.2c0.1,0,0.2,0.1,0.3,0.1c0.1,0,0.2,0,0.3,0l0.5-0.1
		c0.3,0,0.5,0.1,0.6,0.2S332.6,100.3,332.6,100.7z"/>
	<path d="M337.9,98.6l-0.7,1.3l-1.5-0.7l0.7-1.3L337.9,98.6z M340.7,103.4c0,0.8-0.1,1.4-0.4,1.9c-0.4,0.6-1.2,1-2.3,1
		c-0.4,0-0.8-0.1-1.1-0.3c-0.3-0.2-0.5-0.5-0.5-0.8c0-0.4,0.1-0.9,0.3-1.4c0.2-0.5,0.4-0.9,0.6-1.4l-0.1,0l0.5-1.5
		c1.1,0.6,1.7,0.9,1.9,1.1C340.3,102.4,340.7,102.9,340.7,103.4z M339.9,104.1c0-0.2-0.3-0.5-1-0.9c-0.3-0.2-0.6-0.3-0.9-0.5
		c-0.3,0.3-0.4,0.5-0.5,0.5c-0.2,0.2-0.2,0.4-0.2,0.7c0,0.3,0.1,0.5,0.3,0.7c0.2,0.2,0.4,0.3,0.7,0.3c0.3,0,0.7-0.1,1.1-0.3
		C339.7,104.4,339.9,104.3,339.9,104.1z M339.9,97.8l-0.7,1.3l-1.4-0.7l0.7-1.3L339.9,97.8z"/>
	<path d="M356.7,106h-6.5c-1.4,0-2.4-0.2-3-0.5c-0.6-0.4-0.9-1-0.9-1.8c0-0.5,0.1-1.1,0.4-1.8c0.1-0.2,0.2-0.5,0.5-1l0.3,0.2
		c-0.2,0.5-0.3,0.8-0.4,1.1s-0.1,0.5-0.1,0.7c0,0.6,0.3,1.1,1,1.3c0.5,0.2,1.2,0.3,2.2,0.3h5.6l-1.1-7.5l-0.5-0.2
		c0-0.4,0-0.8,0.1-1.1c0.1-0.4,0.2-0.7,0.3-1l0.1,0.1c0,0.3,0.2,0.6,0.6,0.8l0.9,0.4c0,0.3,0,0.6-0.1,0.9s-0.1,0.6-0.2,0.8l-0.4-0.1
		l1,6.9V106z M353.5,100.7c0,0.6-0.2,1.1-0.6,1.5s-1,0.5-1.8,0.5c-0.4,0-0.8,0-1.2-0.1c-0.3-0.1-0.7-0.2-1.2-0.3l0.1-0.2
		c0.1,0,0.3,0,0.5,0c0.5,0,0.8,0.1,0.9,0.1c0.7,0,1.3-0.1,1.7-0.3c0.5-0.2,0.7-0.4,0.7-0.7c0-0.1,0-0.2-0.1-0.3s-0.2-0.1-0.4-0.1
		c-0.2,0-0.3,0-0.4,0l-0.6,0c-0.1,0-0.3,0-0.4-0.1s-0.2-0.2-0.2-0.4c0-0.5,0.3-1.1,0.8-1.8s1.1-1.1,1.6-1.3l-0.2,1.2
		c-0.4,0.1-0.7,0.2-0.9,0.4c-0.4,0.2-0.5,0.5-0.5,0.7c0,0.1,0,0.2,0.1,0.2c0.1,0,0.2,0.1,0.3,0.1c0.1,0,0.2,0,0.3,0l0.5-0.1
		c0.3,0,0.5,0.1,0.6,0.2S353.5,100.3,353.5,100.7z"/>
	<path d="M359.6,103.8c0,0.5-0.1,0.9-0.3,1.4c-0.1,0.2-0.3,0.6-0.6,1.1l-0.2-0.1c0-0.2,0-0.4,0-0.6s0-0.4,0-0.4c0-0.6,0-1.5-0.1-2.6
		s-0.2-2.2-0.3-3.4c-0.1-0.7-0.2-1.5-0.3-2.2c0.1-0.3,0.3-0.5,0.4-0.8s0.3-0.6,0.4-0.8c0.1,0.7,0.2,1.6,0.4,2.7s0.3,2.2,0.3,3.1
		C359.6,102.3,359.6,103.2,359.6,103.8z"/>
	<path d="M371.3,101.6c0,0.2,0,0.4-0.1,0.6s-0.1,0.3-0.1,0.4c-0.2-0.3-0.4-0.5-0.7-0.6s-0.6-0.2-0.9-0.2c-0.5,0-1,0.3-1.6,0.9
		c-0.5,0.5-0.8,1-0.8,1.3c0,0.1,0.1,0.2,0.2,0.3s0.3,0.1,0.7,0.1h0.7c0.4,0,0.7,0,0.9,0c0.2,0,0.4,0,0.7,0.1s0.4,0.3,0.4,0.6
		c0,1.5-0.6,2.6-1.9,3.4c-1.2,0.7-2.8,1.1-4.8,1.1c-1,0-1.8-0.2-2.4-0.6c-0.6-0.4-0.9-1.1-0.9-2c0-0.6,0.1-1.2,0.3-1.9
		c0.2-0.5,0.4-1,0.6-1.6c0,0,0.2-0.4,0.6-1l0.4,0.1c-0.4,0.7-0.7,1.3-0.8,1.8c-0.2,0.6-0.3,1.1-0.3,1.5c0,0.7,0.2,1.3,0.7,1.6
		s1.2,0.5,2.1,0.5c0.7,0,1.5-0.1,2.5-0.4c0.8-0.2,1.5-0.5,2.2-0.9s1-0.6,1-0.7c0-0.1,0-0.2-0.1-0.2s-0.2-0.1-0.4-0.1h-2.1
		c-0.3,0-0.5-0.1-0.7-0.3s-0.3-0.4-0.3-0.7c0-0.4,0.2-0.9,0.5-1.6c0.4-0.7,0.8-1.3,1.3-1.8c0.6-0.6,1.2-0.9,1.8-0.9
		c0.4,0,0.7,0.1,0.9,0.4S371.3,101.2,371.3,101.6z M366,111.1l-0.7,1.3l-1.5-0.7l0.7-1.3L366,111.1z M368,110.3l-0.7,1.3l-1.4-0.7
		l0.7-1.3L368,110.3z"/>
	<path d="M383,106h-1c-1,0-1.8,0.1-2.5,0.3c-0.9,0.2-1.4,0.6-1.4,1c0,0.4,0.1,0.8,0.2,1.2s0.3,0.9,0.4,1.3s0.2,0.9,0.2,1.2
		c0,0.2,0,0.4,0,0.6s-0.1,0.4-0.2,0.7c-0.2-0.5-0.3-1-0.4-1.5c-0.3-0.9-0.5-1.6-0.6-2.1c-0.2-0.8-0.3-1.2-0.3-1.4
		c0-0.8,0.2-1.3,0.5-1.7c0.3-0.4,0.8-0.7,1.4-0.9c0.5-0.2,1.3-0.3,2.3-0.4c-0.4-0.4-0.6-0.6-0.7-0.7c-0.3-0.2-0.6-0.4-0.9-0.4
		c-0.2,0-0.4,0.1-0.6,0.2c-0.1,0.1-0.3,0.3-0.5,0.5l-0.4-0.3c0.2-0.4,0.4-0.8,0.6-1.1c0.4-0.4,0.8-0.7,1.3-0.7
		c0.4,0,0.7,0.1,1.1,0.4c0.3,0.2,0.6,0.5,0.9,0.9c0.2,0.2,0.4,0.5,0.7,1V106z"/>
	<path d="M385.9,103.8c0,0.5-0.1,0.9-0.3,1.4c-0.1,0.2-0.3,0.6-0.6,1.1l-0.2-0.1c0-0.2,0-0.4,0-0.6s0-0.4,0-0.4c0-0.6,0-1.5-0.1-2.6
		s-0.2-2.2-0.3-3.4c-0.1-0.7-0.2-1.5-0.3-2.2c0.1-0.3,0.3-0.5,0.4-0.8s0.3-0.6,0.4-0.8c0.1,0.7,0.2,1.6,0.4,2.7s0.3,2.2,0.3,3.1
		C385.9,102.3,385.9,103.2,385.9,103.8z"/>
	<path d="M396.2,106c0,1.3-0.4,2.3-1.2,2.9c-0.8,0.7-2.2,1-4,1c-1.2,0-2.1-0.2-2.7-0.6c-0.7-0.5-1-1.1-1-2.1c0-0.5,0.1-1,0.2-1.5
		s0.3-1,0.5-1.6c0.1-0.3,0.4-0.8,0.7-1.5l0.4,0.2c-0.4,0.8-0.7,1.5-0.8,2s-0.2,0.9-0.2,1.3c0,0.7,0.3,1.3,0.8,1.7
		c0.5,0.4,1.3,0.6,2.2,0.6c1.1,0,2.1-0.2,2.9-0.6c1.1-0.5,1.6-1.2,1.6-2c0-0.6-0.1-1.2-0.3-1.7c-0.2-0.5-0.4-0.9-0.7-1.2l0.7-1.8
		c0.3,0.5,0.5,1,0.6,1.5s0.2,1.1,0.2,2V106z M392.9,99.3l-0.7,1.3l-1.4-0.7l0.7-1.3L392.9,99.3z"/>
	<path d="M404.1,103.8c0,0.5-0.1,0.9-0.3,1.4c-0.1,0.2-0.3,0.6-0.6,1.1l-0.2-0.1c0-0.2,0-0.4,0-0.6s0-0.4,0-0.4c0-0.6,0-1.5-0.1-2.6
		s-0.2-2.2-0.3-3.4c-0.1-0.7-0.2-1.5-0.3-2.2c0.1-0.3,0.3-0.5,0.4-0.8s0.3-0.6,0.4-0.8c0.1,0.7,0.2,1.6,0.4,2.7s0.3,2.2,0.3,3.1
		C404.1,102.3,404.1,103.2,404.1,103.8z"/>
	<path d="M414,104.9c0,0.9-0.2,1.7-0.7,2.2c-0.4,0.5-1,0.8-1.7,1c-0.6,0.2-1.5,0.3-2.5,0.3c-1.1,0-2-0.2-2.6-0.6c-0.7-0.5-1-1.1-1-2
		c0-0.5,0.1-1,0.2-1.6c0.1-0.5,0.3-1,0.6-1.5c0.2-0.4,0.4-0.9,0.7-1.4l0.3,0.2c-0.2,0.4-0.4,0.7-0.5,1.1c-0.2,0.4-0.3,0.8-0.4,1.1
		c-0.1,0.4-0.2,0.8-0.2,1.2c0,0.7,0.3,1.3,0.8,1.6s1.3,0.6,2.2,0.6c1,0,1.9-0.2,2.8-0.5c0.9-0.4,1.4-0.8,1.4-1.3
		c0-0.6-0.1-1.5-0.3-2.9c-0.1-1-0.3-2.2-0.5-3.5l-0.3-1.7l-0.4-0.2c0-0.8,0.2-1.5,0.5-2.1h0.1c0,0.2,0.1,0.4,0.1,0.5
		s0.2,0.2,0.3,0.2c0.2,0.1,0.4,0.2,0.6,0.3c0.2,0.1,0.3,0.1,0.4,0.2c0,0.4,0,0.7,0,0.9s-0.1,0.5-0.2,0.8l-0.5-0.2
		c0,0.1,0.1,0.7,0.3,1.8c0.2,1.2,0.3,2.2,0.4,3C413.9,103.4,414,104.3,414,104.9z"/>
	<path d="M420.1,106h-1c-1,0-1.8,0.1-2.5,0.3c-0.9,0.2-1.4,0.6-1.4,1c0,0.4,0.1,0.8,0.2,1.2s0.3,0.9,0.4,1.3s0.2,0.9,0.2,1.2
		c0,0.2,0,0.4,0,0.6s-0.1,0.4-0.2,0.7c-0.2-0.5-0.3-1-0.4-1.5c-0.3-0.9-0.5-1.6-0.6-2.1c-0.2-0.8-0.3-1.2-0.3-1.4
		c0-0.8,0.2-1.3,0.5-1.7c0.3-0.4,0.8-0.7,1.4-0.9c0.5-0.2,1.3-0.3,2.3-0.4c-0.4-0.4-0.6-0.6-0.7-0.7c-0.3-0.2-0.6-0.4-0.9-0.4
		c-0.2,0-0.4,0.1-0.6,0.2c-0.1,0.1-0.3,0.3-0.5,0.5l-0.4-0.3c0.2-0.4,0.4-0.8,0.6-1.1c0.4-0.4,0.8-0.7,1.3-0.7
		c0.4,0,0.7,0.1,1.1,0.4c0.3,0.2,0.6,0.5,0.9,0.9c0.2,0.2,0.4,0.5,0.7,1V106z"/>
	<path d="M424.3,102.5c-0.1,0-0.3,0-0.5,0s-0.4,0-0.5,0c-0.4,0-0.8,0-1.3,0.1c-0.3,0-0.7,0.1-1.2,0.2c0.2-0.7,0.5-1.1,0.7-1.3
		c0.4-0.4,1.2-0.7,2.2-0.7c0.4,0,1.2,0.1,2.4,0.2c0.6,0.1,1,0.1,1.4,0.1c0.2,0,0.4,0,0.7-0.1s0.6-0.1,0.7-0.1l-0.3,1.5
		c-1.2,0.2-2.3,0.5-3.2,0.7c-1.3,0.4-2.3,0.9-3,1.5c-0.9,0.7-1.3,1.6-1.3,2.5c0,1.3,0.7,2.2,2,2.8c1.1,0.6,2.7,0.8,4.6,0.8h1.6
		l0.1,0.1l-2,1.4h-0.5c-1.3,0-2.3-0.1-3.2-0.4c-1-0.3-1.8-0.7-2.3-1.4c-0.6-0.7-0.9-1.6-0.9-2.8c0-1,0.2-1.9,0.7-2.7
		c0.4-0.6,0.9-1.2,1.5-1.7C423,103.4,423.5,103,424.3,102.5z"/>
	<path d="M436.3,106h-3.9c-0.3,0-0.6-0.1-0.9-0.3s-0.4-0.4-0.4-0.7c0-0.2,0-0.4,0-0.6s0.1-0.4,0.1-0.6h0.2c0.1,0.2,0.2,0.4,0.4,0.5
		c0.1,0.1,0.3,0.1,0.6,0.1h3.4c0-1-0.1-1.9-0.4-2.5c-0.4-0.8-1-1.3-1.8-1.6l0.1-1.7c1,0.5,1.7,1.3,2.2,2.4c0.3,0.9,0.5,2,0.5,3.4
		V106z"/>
	<path d="M444.1,105.5c0,1-0.4,1.9-1.1,2.9c-0.8,1.1-1.7,1.6-2.8,1.6c-0.4,0-0.8,0-1.2-0.1c-0.3-0.1-0.7-0.2-1.2-0.3
		c-0.4-0.1-0.8-0.3-1.1-0.4l0.1-0.3c0.3,0.1,0.7,0.2,1,0.2c0.4,0.1,0.7,0.1,1,0.1c0.7,0,1.4-0.2,2-0.5c0.5-0.3,1-0.7,1.5-1.2
		c0.3-0.3,0.6-0.7,1.1-1.3c-0.8,0-1.4-0.1-1.8-0.4c-0.4-0.3-0.7-0.8-0.7-1.4c0-0.6,0.1-1.2,0.4-1.7c0.3-0.6,0.7-0.9,1.2-0.9
		c0.5,0,0.9,0.3,1.1,0.9c0.2,0.5,0.3,1.1,0.3,1.9V105.5z M443.5,104.5c-0.1-0.6-0.3-1-0.5-1.2c-0.2-0.2-0.4-0.3-0.6-0.3
		c-0.2,0-0.3,0.1-0.4,0.2s-0.2,0.2-0.2,0.4c0,0.3,0.1,0.5,0.4,0.7C442.5,104.5,442.9,104.5,443.5,104.5z"/>
	<path d="M450.1,106h-3.9c-0.3,0-0.6-0.1-0.9-0.3s-0.4-0.4-0.4-0.7c0-0.2,0-0.4,0-0.6s0.1-0.4,0.1-0.6h0.2c0.1,0.2,0.2,0.4,0.4,0.5
		c0.1,0.1,0.3,0.1,0.6,0.1h3.4c0-1-0.1-1.9-0.4-2.5c-0.4-0.8-1-1.3-1.8-1.6l0.1-1.7c1,0.5,1.7,1.3,2.2,2.4c0.3,0.9,0.5,2,0.5,3.4
		V106z"/>
	<path d="M452.2,98.6l-0.7,1.3l-1.5-0.7l0.7-1.3L452.2,98.6z M455,103.4c0,0.8-0.1,1.4-0.4,1.9c-0.4,0.6-1.2,1-2.3,1
		c-0.4,0-0.8-0.1-1.1-0.3c-0.3-0.2-0.5-0.5-0.5-0.8c0-0.4,0.1-0.9,0.3-1.4c0.2-0.5,0.4-0.9,0.6-1.4l-0.1,0l0.5-1.5
		c1.1,0.6,1.7,0.9,1.9,1.1C454.7,102.4,455,102.9,455,103.4z M454.3,104.1c0-0.2-0.3-0.5-1-0.9c-0.3-0.2-0.6-0.3-0.9-0.5
		c-0.3,0.3-0.4,0.5-0.5,0.5c-0.2,0.2-0.2,0.4-0.2,0.7c0,0.3,0.1,0.5,0.3,0.7c0.2,0.2,0.4,0.3,0.7,0.3c0.3,0,0.7-0.1,1.1-0.3
		C454.1,104.4,454.3,104.3,454.3,104.1z M454.2,97.8l-0.7,1.3l-1.4-0.7l0.7-1.3L454.2,97.8z"/>
	<path d="M457.3,111.2L457,111c2.3-2.1,3.3-5,3.3-7.9c0-2.8-1-5.5-3.3-7.7l0.2-0.3c3.2,2.5,4.3,5.4,4.3,7.9
		C461.5,106.3,460,109,457.3,111.2z"/>
</g>
<g>
	<path class="st4" d="M567.6,152.2v-12.9h1.7v5.3h6.7v-5.3h1.7v12.9H576v-6.1h-6.7v6.1H567.6z"/>
	<path class="st4" d="M579.7,147.5c0-1.7,0.5-3,1.4-3.8c0.8-0.7,1.8-1,2.9-1c1.3,0,2.3,0.4,3.1,1.3s1.2,2,1.2,3.5
		c0,1.2-0.2,2.1-0.5,2.8c-0.4,0.7-0.9,1.2-1.6,1.6s-1.4,0.6-2.3,0.6c-1.3,0-2.4-0.4-3.2-1.3S579.7,149.1,579.7,147.5z M581.3,147.5
		c0,1.2,0.3,2.1,0.8,2.7c0.5,0.6,1.2,0.9,2,0.9c0.8,0,1.4-0.3,2-0.9s0.8-1.5,0.8-2.7c0-1.2-0.3-2-0.8-2.6c-0.5-0.6-1.2-0.9-2-0.9
		c-0.8,0-1.4,0.3-2,0.9S581.3,146.3,581.3,147.5z"/>
	<path class="st4" d="M596.4,152.2v-1.4c-0.7,1.1-1.7,1.6-3,1.6c-0.6,0-1.1-0.1-1.5-0.3s-0.8-0.5-1.1-0.8s-0.4-0.7-0.5-1.2
		c-0.1-0.3-0.1-0.8-0.1-1.5v-5.8h1.6v5.2c0,0.8,0,1.4,0.1,1.7c0.1,0.4,0.3,0.7,0.6,1c0.3,0.2,0.7,0.4,1.2,0.4s0.9-0.1,1.3-0.4
		s0.7-0.6,0.9-1c0.2-0.4,0.3-1,0.3-1.8v-5h1.6v9.3H596.4z"/>
	<path class="st4" d="M599.7,149.4l1.6-0.2c0.1,0.6,0.3,1.1,0.7,1.4s1,0.5,1.7,0.5c0.7,0,1.3-0.1,1.6-0.4s0.5-0.6,0.5-1
		c0-0.4-0.2-0.6-0.5-0.8c-0.2-0.1-0.8-0.3-1.6-0.5c-1.2-0.3-2-0.5-2.4-0.8s-0.8-0.5-1-0.9c-0.2-0.4-0.3-0.8-0.3-1.3
		c0-0.4,0.1-0.8,0.3-1.2c0.2-0.4,0.5-0.6,0.8-0.9c0.2-0.2,0.6-0.3,1-0.5s0.9-0.2,1.4-0.2c0.7,0,1.4,0.1,1.9,0.3s1,0.5,1.2,0.9
		c0.3,0.4,0.4,0.8,0.5,1.4l-1.5,0.2c-0.1-0.5-0.3-0.9-0.6-1.1s-0.8-0.4-1.4-0.4c-0.7,0-1.2,0.1-1.6,0.4s-0.5,0.5-0.5,0.8
		c0,0.2,0.1,0.4,0.2,0.6c0.1,0.2,0.3,0.3,0.6,0.4c0.2,0.1,0.6,0.2,1.4,0.4c1.1,0.3,1.9,0.5,2.3,0.7s0.8,0.5,1,0.8s0.4,0.8,0.4,1.4
		c0,0.5-0.2,1-0.5,1.5c-0.3,0.5-0.8,0.8-1.3,1.1c-0.6,0.3-1.2,0.4-2,0.4c-1.2,0-2.1-0.3-2.8-0.8S599.9,150.4,599.7,149.4z"/>
	<path class="st4" d="M615.7,149.1l1.6,0.2c-0.3,1-0.7,1.7-1.4,2.2s-1.6,0.8-2.7,0.8c-1.4,0-2.4-0.4-3.2-1.3c-0.8-0.8-1.2-2-1.2-3.5
		c0-1.6,0.4-2.8,1.2-3.7s1.9-1.3,3.1-1.3c1.2,0,2.3,0.4,3.1,1.3s1.2,2,1.2,3.6c0,0.1,0,0.2,0,0.4h-7c0.1,1,0.3,1.8,0.9,2.4
		s1.2,0.8,2,0.8c0.6,0,1.1-0.2,1.5-0.5S615.5,149.8,615.7,149.1z M610.5,146.6h5.2c-0.1-0.8-0.3-1.4-0.6-1.8c-0.5-0.6-1.2-0.9-2-0.9
		c-0.7,0-1.3,0.2-1.8,0.7S610.6,145.8,610.5,146.6z"/>
	<path class="st4" d="M622.8,152.2v-11.4h-4.2v-1.5h10.2v1.5h-4.3v11.4H622.8z"/>
	<path class="st4" d="M627.8,147.5c0-1.7,0.5-3,1.4-3.8c0.8-0.7,1.8-1,2.9-1c1.3,0,2.3,0.4,3.1,1.3s1.2,2,1.2,3.5
		c0,1.2-0.2,2.1-0.5,2.8c-0.4,0.7-0.9,1.2-1.6,1.6s-1.4,0.6-2.3,0.6c-1.3,0-2.4-0.4-3.2-1.3S627.8,149.1,627.8,147.5z M629.4,147.5
		c0,1.2,0.3,2.1,0.8,2.7c0.5,0.6,1.2,0.9,2,0.9c0.8,0,1.4-0.3,2-0.9s0.8-1.5,0.8-2.7c0-1.2-0.3-2-0.8-2.6c-0.5-0.6-1.2-0.9-2-0.9
		c-0.8,0-1.4,0.3-2,0.9S629.4,146.3,629.4,147.5z"/>
	<path class="st4" d="M638.4,152.2v-12.9h1.6v7.3l3.7-3.8h2l-3.6,3.5l3.9,5.9h-2l-3.1-4.8l-1.1,1.1v3.7H638.4z"/>
	<path class="st4" d="M653.7,149.1l1.6,0.2c-0.3,1-0.7,1.7-1.4,2.2s-1.6,0.8-2.7,0.8c-1.4,0-2.4-0.4-3.2-1.3c-0.8-0.8-1.2-2-1.2-3.5
		c0-1.6,0.4-2.8,1.2-3.7s1.9-1.3,3.1-1.3c1.2,0,2.3,0.4,3.1,1.3s1.2,2,1.2,3.6c0,0.1,0,0.2,0,0.4h-7c0.1,1,0.3,1.8,0.9,2.4
		s1.2,0.8,2,0.8c0.6,0,1.1-0.2,1.5-0.5S653.5,149.8,653.7,149.1z M648.5,146.6h5.2c-0.1-0.8-0.3-1.4-0.6-1.8c-0.5-0.6-1.2-0.9-2-0.9
		c-0.7,0-1.3,0.2-1.8,0.7S648.6,145.8,648.5,146.6z"/>
	<path class="st4" d="M657.4,152.2v-9.3h1.4v1.3c0.7-1,1.7-1.5,3-1.5c0.6,0,1.1,0.1,1.6,0.3c0.5,0.2,0.8,0.5,1.1,0.8
		s0.4,0.7,0.5,1.2c0.1,0.3,0.1,0.8,0.1,1.5v5.7h-1.6v-5.7c0-0.6-0.1-1.1-0.2-1.4s-0.3-0.6-0.7-0.8c-0.3-0.2-0.7-0.3-1.1-0.3
		c-0.7,0-1.3,0.2-1.7,0.6s-0.7,1.2-0.7,2.4v5.1H657.4z"/>
	<path class="st4" d="M691,149.6h-10.4c-0.2,1.2-0.6,2.1-1.3,2.7c-0.8,0.8-2.1,1.1-3.8,1.1c-1.2,0-2.1-0.2-2.7-0.6
		c-0.7-0.5-1-1.1-1-2.1c0-0.5,0.1-1,0.2-1.5s0.3-1,0.5-1.6c0.1-0.3,0.4-0.8,0.7-1.5l0.4,0.2c-0.4,0.8-0.7,1.5-0.8,2
		s-0.2,0.9-0.2,1.3c0,0.7,0.3,1.3,0.8,1.7c0.5,0.4,1.3,0.6,2.2,0.6c1.1,0,2.1-0.2,3-0.6c1.1-0.5,1.7-1.2,1.7-2
		c0-0.6-0.1-1.1-0.3-1.7c-0.2-0.4-0.4-0.8-0.7-1.2l0.7-1.8c0.3,0.5,0.5,0.9,0.6,1.3c0.1,0.5,0.2,1.2,0.2,2.1h0.2
		c0.7,0,1.3-0.1,1.9-0.3c0.5-0.2,1.1-0.5,1.6-0.9c0.9-0.6,1.4-1,1.6-1.1c0.5-0.3,0.9-0.5,1.3-0.7c0.4-0.1,0.9-0.2,1.4-0.2
		c0.8,0,1.4,0.2,1.8,0.7c0.4,0.4,0.6,1,0.6,1.8V149.6z M689.5,147.4c0-0.3-0.2-0.5-0.5-0.7s-0.8-0.2-1.3-0.2c-0.4,0-0.9,0.1-1.4,0.3
		c-0.4,0.1-0.8,0.3-1.4,0.6c-0.4,0.2-0.9,0.4-1.3,0.7h4.1c0.6,0,1-0.1,1.3-0.2C689.4,147.8,689.5,147.6,689.5,147.4z"/>
	<path class="st4" d="M700.4,149.6c0,1.3-0.4,2.3-1.2,2.9c-0.8,0.7-2.2,1-4,1c-1.2,0-2.1-0.2-2.7-0.6c-0.7-0.5-1-1.1-1-2.1
		c0-0.5,0.1-1,0.2-1.5s0.3-1,0.5-1.6c0.1-0.3,0.4-0.8,0.7-1.5l0.4,0.2c-0.4,0.8-0.7,1.5-0.8,2s-0.2,0.9-0.2,1.3
		c0,0.7,0.3,1.3,0.8,1.7c0.5,0.4,1.3,0.6,2.2,0.6c1.1,0,2.1-0.2,2.9-0.6c1.1-0.5,1.6-1.2,1.6-2c0-0.6-0.1-1.2-0.3-1.7
		c-0.2-0.5-0.4-0.9-0.7-1.2l0.7-1.8c0.3,0.5,0.5,1,0.6,1.5s0.2,1.1,0.2,2V149.6z M697.2,142.8l-0.7,1.3l-1.4-0.7l0.7-1.3
		L697.2,142.8z"/>
	<path class="st4" d="M706.5,149.6h-3.9c-0.3,0-0.6-0.1-0.9-0.3s-0.4-0.4-0.4-0.7c0-0.2,0-0.4,0-0.6s0.1-0.4,0.1-0.6h0.2
		c0.1,0.2,0.2,0.4,0.4,0.5c0.1,0.1,0.3,0.1,0.6,0.1h3.4c0-1-0.1-1.9-0.4-2.5c-0.4-0.8-1-1.3-1.8-1.6l0.1-1.7c1,0.5,1.7,1.3,2.2,2.4
		c0.3,0.9,0.5,2,0.5,3.4V149.6z"/>
	<path class="st4" d="M714.3,149c0,1-0.4,1.9-1.1,2.9c-0.8,1.1-1.7,1.6-2.8,1.6c-0.4,0-0.8,0-1.2-0.1c-0.3-0.1-0.7-0.2-1.2-0.3
		c-0.4-0.1-0.8-0.3-1.1-0.4l0.1-0.3c0.3,0.1,0.7,0.2,1,0.2c0.4,0.1,0.7,0.1,1,0.1c0.7,0,1.4-0.2,2-0.5c0.5-0.3,1-0.7,1.5-1.2
		c0.3-0.3,0.6-0.7,1.1-1.3c-0.8,0-1.4-0.1-1.8-0.4c-0.4-0.3-0.7-0.8-0.7-1.4c0-0.6,0.1-1.2,0.4-1.7c0.3-0.6,0.7-0.9,1.2-0.9
		c0.5,0,0.9,0.3,1.1,0.9c0.2,0.5,0.3,1.1,0.3,1.9V149z M713.7,148.1c-0.1-0.6-0.3-1-0.5-1.2c-0.2-0.2-0.4-0.3-0.6-0.3
		c-0.2,0-0.3,0.1-0.4,0.2s-0.2,0.2-0.2,0.4c0,0.3,0.1,0.5,0.4,0.7C712.7,148,713.1,148.1,713.7,148.1z"/>
	<path class="st4" d="M724.7,150c0,1.2-0.6,2-1.7,2.7c-1,0.5-2.3,0.8-4,0.8c-1.3,0-2.3-0.2-3-0.7c-0.8-0.5-1.2-1.3-1.2-2.3
		c0-0.7,0.1-1.4,0.3-2.2c0.2-0.7,0.5-1.4,0.9-2.1l0.4,0.2c-0.2,0.4-0.3,0.8-0.4,1.1c-0.2,0.4-0.3,0.8-0.3,1.1
		c-0.1,0.4-0.1,0.8-0.1,1.1c0,0.8,0.3,1.3,1,1.7c0.6,0.3,1.5,0.5,2.6,0.5c1.2,0,2.3-0.2,3.3-0.6c1.1-0.5,1.6-1.1,1.6-1.9
		c0-0.3,0-0.5,0-0.6c0-0.1-0.1-0.3-0.1-0.4c-0.2,0.1-0.4,0.2-0.7,0.3c-0.2,0.1-0.5,0.1-0.7,0.1c-0.5,0-0.9-0.1-1.3-0.4
		c-0.4-0.3-0.6-0.7-0.6-1.3c0-0.7,0.2-1.3,0.5-1.9c0.4-0.7,0.8-1,1.4-1c0.7,0,1.2,0.5,1.6,1.4c0.3,0.8,0.5,1.7,0.5,2.8V150z
		 M721.7,141.4l-0.7,1.3l-1.5-0.7l0.7-1.3L721.7,141.4z M723.3,146.8c-0.2-0.4-0.3-0.6-0.3-0.7c-0.2-0.2-0.4-0.4-0.6-0.4
		c-0.3,0-0.5,0.1-0.6,0.2s-0.2,0.3-0.2,0.5c0,0.2,0.1,0.3,0.3,0.4s0.4,0.2,0.6,0.2c0.2,0,0.3,0,0.4-0.1
		C723,146.9,723.1,146.9,723.3,146.8z M723.7,140.6l-0.7,1.3l-1.4-0.7l0.7-1.3L723.7,140.6z"/>
	<path class="st4" d="M732.7,147.3c0,0.5-0.1,0.9-0.3,1.4c-0.1,0.2-0.3,0.6-0.6,1.1l-0.2-0.1c0-0.2,0-0.4,0-0.6s0-0.4,0-0.4
		c0-0.6,0-1.5-0.1-2.6s-0.2-2.2-0.3-3.4c-0.1-0.7-0.2-1.5-0.3-2.2c0.1-0.3,0.3-0.5,0.4-0.8s0.3-0.6,0.4-0.8c0.1,0.7,0.2,1.6,0.4,2.7
		s0.3,2.2,0.3,3.1C732.7,145.9,732.7,146.7,732.7,147.3z"/>
	<path class="st4" d="M742.6,148.5c0,0.9-0.2,1.7-0.7,2.2c-0.4,0.5-1,0.8-1.7,1c-0.6,0.2-1.5,0.3-2.5,0.3c-1.1,0-2-0.2-2.6-0.6
		c-0.7-0.5-1-1.1-1-2c0-0.5,0.1-1,0.2-1.6c0.1-0.5,0.3-1,0.6-1.5c0.2-0.4,0.4-0.9,0.7-1.4l0.3,0.2c-0.2,0.4-0.4,0.7-0.5,1.1
		c-0.2,0.4-0.3,0.8-0.4,1.1c-0.1,0.4-0.2,0.8-0.2,1.2c0,0.7,0.3,1.3,0.8,1.6s1.3,0.6,2.2,0.6c1,0,1.9-0.2,2.8-0.5
		c0.9-0.4,1.4-0.8,1.4-1.3c0-0.6-0.1-1.5-0.3-2.9c-0.1-1-0.3-2.2-0.5-3.5l-0.3-1.7l-0.4-0.2c0-0.8,0.2-1.5,0.5-2.1h0.1
		c0,0.2,0.1,0.4,0.1,0.5s0.2,0.2,0.3,0.2c0.2,0.1,0.4,0.2,0.6,0.3c0.2,0.1,0.3,0.1,0.4,0.2c0,0.4,0,0.7,0,0.9s-0.1,0.5-0.2,0.8
		l-0.5-0.2c0,0.1,0.1,0.7,0.3,1.8c0.2,1.2,0.3,2.2,0.4,3C742.5,146.9,742.6,147.8,742.6,148.5z"/>
	<path class="st4" d="M751.9,154.5l-2.2,1.5c-1.2,0-2.2,0-2.8-0.1c-1.2-0.2-2-0.5-2.7-1c-0.8-0.6-1.2-1.6-1.2-2.8
		c0-0.7,0.1-1.4,0.3-2c0.2-0.5,0.4-0.9,0.8-1.3c0.2-0.2,0.5-0.5,0.9-0.9c-0.6-0.3-1-0.5-1.2-0.7c-0.5-0.5-0.7-1-0.7-1.7
		c0-0.6,0.3-1.2,0.8-1.8c0.6-0.7,1.3-1,2.2-1c0.4,0,0.8,0.1,1.2,0.3c0.3,0.1,0.6,0.4,1.1,0.7c-0.6,0-1.2,0-1.8,0.1
		c-0.8,0.1-1.4,0.2-1.9,0.4c-0.6,0.2-0.9,0.5-0.9,0.8c0,0.4,0.3,0.7,1,1c0.6,0.3,1.2,0.5,1.9,0.6c0.6-0.3,1.2-0.6,1.7-0.8
		c0.6-0.2,1.3-0.5,1.9-0.6l-0.4,1.4c-1.2,0.5-2.1,0.8-2.6,1.1c-1.1,0.5-1.9,1-2.5,1.6c-0.7,0.7-1.1,1.4-1.1,2.2c0,0.8,0.3,1.5,0.9,2
		c0.5,0.4,1.3,0.7,2.4,0.9c0.8,0.1,1.9,0.2,3.2,0.2c0.3,0,0.6,0,0.8,0S751.6,154.4,751.9,154.5L751.9,154.5z"/>
	<path class="st4" d="M762.8,150c0,1.2-0.6,2-1.7,2.7c-1,0.5-2.3,0.8-4,0.8c-1.3,0-2.3-0.2-3-0.7c-0.8-0.5-1.2-1.3-1.2-2.3
		c0-0.7,0.1-1.4,0.3-2.2c0.2-0.7,0.5-1.4,0.9-2.1l0.4,0.2c-0.2,0.4-0.3,0.8-0.4,1.1c-0.2,0.4-0.3,0.8-0.3,1.1
		c-0.1,0.4-0.1,0.8-0.1,1.1c0,0.8,0.3,1.3,1,1.7c0.6,0.3,1.5,0.5,2.6,0.5c1.2,0,2.3-0.2,3.3-0.6c1.1-0.5,1.6-1.1,1.6-1.9
		c0-0.3,0-0.5,0-0.6c0-0.1-0.1-0.3-0.1-0.4c-0.2,0.1-0.4,0.2-0.7,0.3c-0.2,0.1-0.5,0.1-0.7,0.1c-0.5,0-0.9-0.1-1.3-0.4
		c-0.4-0.3-0.6-0.7-0.6-1.3c0-0.7,0.2-1.3,0.5-1.9c0.4-0.7,0.8-1,1.4-1c0.7,0,1.2,0.5,1.6,1.4c0.3,0.8,0.5,1.7,0.5,2.8V150z
		 M759.8,141.4l-0.7,1.3l-1.5-0.7l0.7-1.3L759.8,141.4z M761.4,146.8c-0.2-0.4-0.3-0.6-0.3-0.7c-0.2-0.2-0.4-0.4-0.6-0.4
		c-0.3,0-0.5,0.1-0.6,0.2s-0.2,0.3-0.2,0.5c0,0.2,0.1,0.3,0.3,0.4s0.4,0.2,0.6,0.2c0.2,0,0.3,0,0.4-0.1
		C761.1,146.9,761.2,146.9,761.4,146.8z M761.8,140.6l-0.7,1.3l-1.4-0.7l0.7-1.3L761.8,140.6z"/>
	<path class="st4" d="M765.8,147.3c0,0.5-0.1,0.9-0.3,1.4c-0.1,0.2-0.3,0.6-0.6,1.1l-0.2-0.1c0-0.2,0-0.4,0-0.6s0-0.4,0-0.4
		c0-0.6,0-1.5-0.1-2.6s-0.2-2.2-0.3-3.4c-0.1-0.7-0.2-1.5-0.3-2.2c0.1-0.3,0.3-0.5,0.4-0.8s0.3-0.6,0.4-0.8c0.1,0.7,0.2,1.6,0.4,2.7
		s0.3,2.2,0.3,3.1C765.8,145.9,765.8,146.7,765.8,147.3z"/>
	<path class="st4" d="M775.4,149.6c0,0.6-0.3,1.3-0.8,2c-0.5,0.6-1.1,1.1-1.8,1.6c-0.7,0.4-1.2,0.6-1.7,0.6c-0.4,0-0.8-0.1-1.3-0.2
		c-0.4-0.1-0.8-0.2-1.3-0.4c-0.4-0.2-0.8-0.3-1.3-0.5l0.1-0.4c0.4,0.1,0.8,0.2,1.2,0.2c0.4,0.1,0.8,0.1,1.1,0.1
		c0.8,0,1.5-0.2,2.3-0.7c0.7-0.4,1.4-1,1.9-1.7s0.8-1.3,0.8-1.8c0-0.5-0.1-0.9-0.4-1.5c-0.2-0.4-0.5-0.8-0.9-1.3l0.5-1.4
		c0.5,0.4,0.8,0.9,1.1,1.3c0.3,0.5,0.4,1.1,0.4,1.7V149.6z"/>
	<path class="st4" d="M778.3,147.3c0,0.5-0.1,0.9-0.3,1.4c-0.1,0.2-0.3,0.6-0.6,1.1l-0.2-0.1c0-0.2,0-0.4,0-0.6s0-0.4,0-0.4
		c0-0.6,0-1.5-0.1-2.6s-0.2-2.2-0.3-3.4c-0.1-0.7-0.2-1.5-0.3-2.2c0.1-0.3,0.3-0.5,0.4-0.8s0.3-0.6,0.4-0.8c0.1,0.7,0.2,1.6,0.4,2.7
		s0.3,2.2,0.3,3.1C778.3,145.9,778.3,146.7,778.3,147.3z"/>
	<path class="st4" d="M791.9,149.6h-8.4c-1.1,0-2-0.2-2.7-0.6c-0.8-0.5-1.3-1.3-1.3-2.3c0-0.5,0.1-1.1,0.4-1.7
		c0.1-0.2,0.3-0.6,0.6-1.2l0.3,0.2c-0.1,0.3-0.3,0.5-0.4,0.8c-0.2,0.4-0.3,0.8-0.3,1.1c0,0.7,0.4,1.2,1.1,1.6
		c0.7,0.3,1.5,0.5,2.5,0.5h7.4v-0.2c0-0.7-0.1-1.2-0.2-1.6c-0.2-0.4-0.4-0.8-0.8-1.1l0.7-1.4c0.3,0.3,0.4,0.5,0.5,0.6
		c0.4,0.7,0.6,1.6,0.6,2.9V149.6z M785.8,142.4l-0.7,1.3l-1.5-0.7l0.7-1.3L785.8,142.4z M787.8,141.6l-0.7,1.3l-1.4-0.7l0.7-1.3
		L787.8,141.6z"/>
	<path class="st4" d="M799.9,147.3c0,0.5-0.1,0.9-0.3,1.4c-0.1,0.2-0.3,0.6-0.6,1.1l-0.2-0.1c0-0.2,0-0.4,0-0.6s0-0.4,0-0.4
		c0-0.6,0-1.5-0.1-2.6s-0.2-2.2-0.3-3.4c-0.1-0.7-0.2-1.5-0.3-2.2c0.1-0.3,0.3-0.5,0.4-0.8s0.3-0.6,0.4-0.8c0.1,0.7,0.2,1.6,0.4,2.7
		s0.3,2.2,0.3,3.1C799.9,145.9,799.9,146.7,799.9,147.3z"/>
	<path class="st4" d="M809.8,148.5c0,0.9-0.2,1.7-0.7,2.2c-0.4,0.5-1,0.8-1.7,1c-0.6,0.2-1.5,0.3-2.5,0.3c-1.1,0-2-0.2-2.6-0.6
		c-0.7-0.5-1-1.1-1-2c0-0.5,0.1-1,0.2-1.6c0.1-0.5,0.3-1,0.6-1.5c0.2-0.4,0.4-0.9,0.7-1.4l0.3,0.2c-0.2,0.4-0.4,0.7-0.5,1.1
		c-0.2,0.4-0.3,0.8-0.4,1.1c-0.1,0.4-0.2,0.8-0.2,1.2c0,0.7,0.3,1.3,0.8,1.6s1.3,0.6,2.2,0.6c1,0,1.9-0.2,2.8-0.5
		c0.9-0.4,1.4-0.8,1.4-1.3c0-0.6-0.1-1.5-0.3-2.9c-0.1-1-0.3-2.2-0.5-3.5l-0.3-1.7l-0.4-0.2c0-0.8,0.2-1.5,0.5-2.1h0.1
		c0,0.2,0.1,0.4,0.1,0.5s0.2,0.2,0.3,0.2c0.2,0.1,0.4,0.2,0.6,0.3c0.2,0.1,0.3,0.1,0.4,0.2c0,0.4,0,0.7,0,0.9s-0.1,0.5-0.2,0.8
		l-0.5-0.2c0,0.1,0.1,0.7,0.3,1.8c0.2,1.2,0.3,2.2,0.4,3C809.7,146.9,809.8,147.8,809.8,148.5z"/>
	<path class="st4" d="M819.1,154.5l-2.2,1.5c-1.2,0-2.2,0-2.8-0.1c-1.2-0.2-2-0.5-2.7-1c-0.8-0.6-1.2-1.6-1.2-2.8
		c0-0.7,0.1-1.4,0.3-2c0.2-0.5,0.4-0.9,0.8-1.3c0.2-0.2,0.5-0.5,0.9-0.9c-0.6-0.3-1-0.5-1.2-0.7c-0.5-0.5-0.7-1-0.7-1.7
		c0-0.6,0.3-1.2,0.8-1.8c0.6-0.7,1.3-1,2.2-1c0.4,0,0.8,0.1,1.2,0.3c0.3,0.1,0.6,0.4,1.1,0.7c-0.6,0-1.2,0-1.8,0.1
		c-0.8,0.1-1.4,0.2-1.9,0.4c-0.6,0.2-0.9,0.5-0.9,0.8c0,0.4,0.3,0.7,1,1c0.6,0.3,1.2,0.5,1.9,0.6c0.6-0.3,1.2-0.6,1.7-0.8
		c0.6-0.2,1.3-0.5,1.9-0.6l-0.4,1.4c-1.2,0.5-2.1,0.8-2.6,1.1c-1.1,0.5-1.9,1-2.5,1.6c-0.7,0.7-1.1,1.4-1.1,2.2c0,0.8,0.3,1.5,0.9,2
		c0.5,0.4,1.3,0.7,2.4,0.9c0.8,0.1,1.9,0.2,3.2,0.2c0.3,0,0.6,0,0.8,0S818.8,154.4,819.1,154.5L819.1,154.5z"/>
	<path class="st4" d="M822.5,147.3c0,0.5-0.1,0.9-0.3,1.4c-0.1,0.2-0.3,0.6-0.6,1.1l-0.2-0.1c0-0.2,0-0.4,0-0.6s0-0.4,0-0.4
		c0-0.6,0-1.5-0.1-2.6s-0.2-2.2-0.3-3.4c-0.1-0.7-0.2-1.5-0.3-2.2c0.1-0.3,0.3-0.5,0.4-0.8s0.3-0.6,0.4-0.8c0.1,0.7,0.2,1.6,0.4,2.7
		s0.3,2.2,0.3,3.1C822.5,145.9,822.5,146.7,822.5,147.3z"/>
	<path class="st4" d="M832.4,148.5c0,0.9-0.2,1.7-0.7,2.2c-0.4,0.5-1,0.8-1.7,1c-0.6,0.2-1.5,0.3-2.5,0.3c-1.1,0-2-0.2-2.6-0.6
		c-0.7-0.5-1-1.1-1-2c0-0.5,0.1-1,0.2-1.6c0.1-0.5,0.3-1,0.6-1.5c0.2-0.4,0.4-0.9,0.7-1.4l0.3,0.2c-0.2,0.4-0.4,0.7-0.5,1.1
		c-0.2,0.4-0.3,0.8-0.4,1.1c-0.1,0.4-0.2,0.8-0.2,1.2c0,0.7,0.3,1.3,0.8,1.6s1.3,0.6,2.2,0.6c1,0,1.9-0.2,2.8-0.5
		c0.9-0.4,1.4-0.8,1.4-1.3c0-0.6-0.1-1.5-0.3-2.9c-0.1-1-0.3-2.2-0.5-3.5l-0.3-1.7l-0.4-0.2c0-0.8,0.2-1.5,0.5-2.1h0.1
		c0,0.2,0.1,0.4,0.1,0.5s0.2,0.2,0.3,0.2c0.2,0.1,0.4,0.2,0.6,0.3c0.2,0.1,0.3,0.1,0.4,0.2c0,0.4,0,0.7,0,0.9s-0.1,0.5-0.2,0.8
		l-0.5-0.2c0,0.1,0.1,0.7,0.3,1.8c0.2,1.2,0.3,2.2,0.4,3C832.3,146.9,832.4,147.8,832.4,148.5z"/>
	<path class="st4" d="M838.5,149.6h-1c-1,0-1.8,0.1-2.5,0.3c-0.9,0.2-1.4,0.6-1.4,1c0,0.4,0.1,0.8,0.2,1.2s0.3,0.9,0.4,1.3
		s0.2,0.9,0.2,1.2c0,0.2,0,0.4,0,0.6s-0.1,0.4-0.2,0.7c-0.2-0.5-0.3-1-0.4-1.5c-0.3-0.9-0.5-1.6-0.6-2.1c-0.2-0.8-0.3-1.2-0.3-1.4
		c0-0.8,0.2-1.3,0.5-1.7c0.3-0.4,0.8-0.7,1.4-0.9c0.5-0.2,1.3-0.3,2.3-0.4c-0.4-0.4-0.6-0.6-0.7-0.7c-0.3-0.2-0.6-0.4-0.9-0.4
		c-0.2,0-0.4,0.1-0.6,0.2c-0.1,0.1-0.3,0.3-0.5,0.5l-0.4-0.3c0.2-0.4,0.4-0.8,0.6-1.1c0.4-0.4,0.8-0.7,1.3-0.7
		c0.4,0,0.7,0.1,1.1,0.4c0.3,0.2,0.6,0.5,0.9,0.9c0.2,0.2,0.4,0.5,0.7,1V149.6z"/>
	<path class="st4" d="M849.4,145.1c0,0.2,0,0.4-0.1,0.6s-0.1,0.3-0.1,0.4c-0.2-0.3-0.5-0.5-0.7-0.6s-0.6-0.2-0.9-0.2
		c-0.5,0-1,0.3-1.6,0.9c-0.5,0.5-0.8,1-0.8,1.3c0,0.1,0.1,0.2,0.2,0.3s0.3,0.1,0.7,0.1h0.7c0.4,0,0.7,0,0.9,0c0.2,0,0.4,0,0.7,0.1
		s0.4,0.3,0.4,0.6c0,1.5-0.6,2.6-1.9,3.4c-1.2,0.7-2.8,1.1-4.8,1.1c-1,0-1.8-0.2-2.4-0.6c-0.6-0.4-0.9-1.1-0.9-2
		c0-0.6,0.1-1.2,0.3-1.9c0.2-0.5,0.4-1,0.6-1.6c0,0,0.2-0.4,0.6-1l0.4,0.1c-0.4,0.7-0.7,1.3-0.8,1.8c-0.2,0.6-0.3,1.1-0.3,1.5
		c0,0.7,0.2,1.3,0.7,1.6s1.2,0.5,2.1,0.5c0.7,0,1.5-0.1,2.5-0.4c0.8-0.2,1.5-0.5,2.2-0.9s1-0.6,1-0.7c0-0.1,0-0.2-0.1-0.2
		s-0.2-0.1-0.4-0.1h-2.1c-0.3,0-0.5-0.1-0.7-0.3s-0.3-0.4-0.3-0.7c0-0.4,0.2-0.9,0.5-1.6c0.4-0.7,0.8-1.3,1.3-1.8
		c0.6-0.6,1.2-0.9,1.8-0.9c0.4,0,0.7,0.1,0.9,0.4S849.4,144.7,849.4,145.1z M844.1,154.6l-0.7,1.3l-1.5-0.7l0.7-1.3L844.1,154.6z
		 M846.1,153.8l-0.7,1.3l-1.4-0.7l0.7-1.3L846.1,153.8z"/>
	<path class="st4" d="M620.9,177.5c-0.9-1.1-1.6-2.4-2.2-3.9s-0.9-3-0.9-4.6c0-1.4,0.2-2.7,0.7-4c0.5-1.5,1.3-3,2.4-4.4h1.1
		c-0.7,1.2-1.2,2.1-1.4,2.6c-0.4,0.8-0.6,1.7-0.8,2.5c-0.3,1.1-0.4,2.2-0.4,3.3c0,2.8,0.9,5.6,2.6,8.4H620.9z"/>
	<path class="st4" d="M642.4,171.2H632c-0.2,1.2-0.6,2.1-1.3,2.7c-0.8,0.8-2.1,1.1-3.8,1.1c-1.2,0-2.1-0.2-2.7-0.6
		c-0.7-0.5-1-1.1-1-2.1c0-0.5,0.1-1,0.2-1.5s0.3-1,0.5-1.6c0.1-0.3,0.4-0.8,0.7-1.5l0.4,0.2c-0.4,0.8-0.7,1.5-0.8,2
		s-0.2,0.9-0.2,1.3c0,0.7,0.3,1.3,0.8,1.7c0.5,0.4,1.3,0.6,2.2,0.6c1.1,0,2.1-0.2,3-0.6c1.1-0.5,1.7-1.2,1.7-2
		c0-0.6-0.1-1.1-0.3-1.7c-0.2-0.4-0.4-0.8-0.7-1.2l0.7-1.8c0.3,0.5,0.5,0.9,0.6,1.3c0.1,0.5,0.2,1.2,0.2,2.1h0.2
		c0.7,0,1.3-0.1,1.9-0.3c0.5-0.2,1.1-0.5,1.6-0.9c0.9-0.6,1.4-1,1.6-1.1c0.5-0.3,0.9-0.5,1.3-0.7c0.4-0.1,0.9-0.2,1.4-0.2
		c0.8,0,1.4,0.2,1.8,0.7c0.4,0.4,0.6,1,0.6,1.8V171.2z M641,169c0-0.3-0.2-0.5-0.5-0.7s-0.8-0.2-1.3-0.2c-0.4,0-0.9,0.1-1.4,0.3
		c-0.4,0.1-0.8,0.3-1.4,0.6c-0.4,0.2-0.9,0.4-1.3,0.7h4.1c0.6,0,1-0.1,1.3-0.2C640.8,169.4,641,169.2,641,169z"/>
	<path class="st4" d="M651.9,171.2c0,1.3-0.4,2.3-1.2,2.9c-0.8,0.7-2.2,1-4,1c-1.2,0-2.1-0.2-2.7-0.6c-0.7-0.5-1-1.1-1-2.1
		c0-0.5,0.1-1,0.2-1.5s0.3-1,0.5-1.6c0.1-0.3,0.4-0.8,0.7-1.5l0.4,0.2c-0.4,0.8-0.7,1.5-0.8,2s-0.2,0.9-0.2,1.3
		c0,0.7,0.3,1.3,0.8,1.7c0.5,0.4,1.3,0.6,2.2,0.6c1.1,0,2.1-0.2,2.9-0.6c1.1-0.5,1.6-1.2,1.6-2c0-0.6-0.1-1.2-0.3-1.7
		c-0.2-0.5-0.4-0.9-0.7-1.2l0.7-1.8c0.3,0.5,0.5,1,0.6,1.5s0.2,1.1,0.2,2V171.2z M648.7,164.4l-0.7,1.3l-1.4-0.7l0.7-1.3
		L648.7,164.4z"/>
	<path class="st4" d="M658,171.2H654c-0.3,0-0.6-0.1-0.9-0.3s-0.4-0.4-0.4-0.7c0-0.2,0-0.4,0-0.6s0.1-0.4,0.1-0.6h0.2
		c0.1,0.2,0.2,0.4,0.4,0.5c0.1,0.1,0.3,0.1,0.6,0.1h3.4c0-1-0.1-1.9-0.4-2.5c-0.4-0.8-1-1.3-1.8-1.6l0.1-1.7c1,0.5,1.7,1.3,2.2,2.4
		c0.3,0.9,0.5,2,0.5,3.4V171.2z"/>
	<path class="st4" d="M665.7,170.6c0,1-0.4,1.9-1.1,2.9c-0.8,1.1-1.7,1.6-2.8,1.6c-0.4,0-0.8,0-1.2-0.1c-0.3-0.1-0.7-0.2-1.2-0.3
		c-0.4-0.1-0.8-0.3-1.1-0.4l0.1-0.3c0.3,0.1,0.7,0.2,1,0.2c0.4,0.1,0.7,0.1,1,0.1c0.7,0,1.4-0.2,2-0.5c0.5-0.3,1-0.7,1.5-1.2
		c0.3-0.3,0.6-0.7,1.1-1.3c-0.8,0-1.4-0.1-1.8-0.4c-0.4-0.3-0.7-0.8-0.7-1.4c0-0.6,0.1-1.2,0.4-1.7c0.3-0.6,0.7-0.9,1.2-0.9
		c0.5,0,0.9,0.3,1.1,0.9c0.2,0.5,0.3,1.1,0.3,1.9V170.6z M665.2,169.7c-0.1-0.6-0.3-1-0.5-1.2c-0.2-0.2-0.4-0.3-0.6-0.3
		c-0.2,0-0.3,0.1-0.4,0.2s-0.2,0.2-0.2,0.4c0,0.3,0.1,0.5,0.4,0.7C664.2,169.6,664.6,169.7,665.2,169.7z"/>
	<path class="st4" d="M676.2,171.6c0,1.2-0.6,2-1.7,2.7c-1,0.5-2.3,0.8-4,0.8c-1.3,0-2.3-0.2-3-0.7c-0.8-0.5-1.2-1.3-1.2-2.3
		c0-0.7,0.1-1.4,0.3-2.2c0.2-0.7,0.5-1.4,0.9-2.1l0.4,0.2c-0.2,0.4-0.3,0.8-0.4,1.1c-0.2,0.4-0.3,0.8-0.3,1.1
		c-0.1,0.4-0.1,0.8-0.1,1.1c0,0.8,0.3,1.3,1,1.7c0.6,0.3,1.5,0.5,2.6,0.5c1.2,0,2.3-0.2,3.3-0.6c1.1-0.5,1.6-1.1,1.6-1.9
		c0-0.3,0-0.5,0-0.6c0-0.1-0.1-0.3-0.1-0.4c-0.2,0.1-0.4,0.2-0.7,0.3c-0.2,0.1-0.5,0.1-0.7,0.1c-0.5,0-0.9-0.1-1.3-0.4
		c-0.4-0.3-0.6-0.7-0.6-1.3c0-0.7,0.2-1.3,0.5-1.9c0.4-0.7,0.8-1,1.4-1c0.7,0,1.2,0.5,1.6,1.4c0.3,0.8,0.5,1.7,0.5,2.8V171.6z
		 M673.2,163l-0.7,1.3l-1.5-0.7l0.7-1.3L673.2,163z M674.8,168.4c-0.2-0.4-0.3-0.6-0.3-0.7c-0.2-0.2-0.4-0.4-0.6-0.4
		c-0.3,0-0.5,0.1-0.6,0.2s-0.2,0.3-0.2,0.5c0,0.2,0.1,0.3,0.3,0.4s0.4,0.2,0.6,0.2c0.2,0,0.3,0,0.4-0.1
		C674.4,168.5,674.6,168.5,674.8,168.4z M675.2,162.2l-0.7,1.3l-1.4-0.7l0.7-1.3L675.2,162.2z"/>
	<path class="st4" d="M690.3,170.1c0,0.9-0.2,1.7-0.7,2.2c-0.4,0.5-1,0.8-1.7,1c-0.6,0.2-1.5,0.3-2.5,0.3c-1.1,0-2-0.2-2.6-0.6
		c-0.7-0.5-1-1.1-1-2c0-0.5,0.1-1,0.2-1.6c0.1-0.5,0.3-1,0.6-1.5c0.2-0.4,0.4-0.9,0.7-1.4l0.3,0.2c-0.2,0.4-0.4,0.7-0.5,1.1
		c-0.2,0.4-0.3,0.8-0.4,1.1c-0.1,0.4-0.2,0.8-0.2,1.2c0,0.7,0.3,1.3,0.8,1.6s1.3,0.6,2.2,0.6c1,0,1.9-0.2,2.8-0.5
		c0.9-0.4,1.4-0.8,1.4-1.3c0-0.6-0.1-1.5-0.3-2.9c-0.1-1-0.3-2.2-0.5-3.5l-0.3-1.7l-0.4-0.2c0-0.8,0.2-1.5,0.5-2.1h0.1
		c0,0.2,0.1,0.4,0.1,0.5s0.2,0.2,0.3,0.2c0.2,0.1,0.4,0.2,0.6,0.3c0.2,0.1,0.3,0.1,0.4,0.2c0,0.4,0,0.7,0,0.9s-0.1,0.5-0.2,0.8
		l-0.5-0.2c0,0.1,0.1,0.7,0.3,1.8c0.2,1.2,0.3,2.2,0.4,3C690.3,168.5,690.3,169.4,690.3,170.1z"/>
	<path class="st4" d="M701.1,171.2h-6.5c-1.4,0-2.4-0.2-3-0.5c-0.6-0.4-0.9-1-0.9-1.8c0-0.5,0.1-1.1,0.4-1.8c0.1-0.2,0.2-0.5,0.5-1
		l0.3,0.2c-0.2,0.5-0.3,0.8-0.4,1.1s-0.1,0.5-0.1,0.7c0,0.6,0.3,1.1,1,1.3c0.5,0.2,1.2,0.3,2.2,0.3h5.6l-1.1-7.5l-0.5-0.2
		c0-0.4,0-0.8,0.1-1.1c0.1-0.4,0.2-0.7,0.3-1l0.1,0.1c0,0.3,0.2,0.6,0.6,0.8l0.9,0.4c0,0.3,0,0.6-0.1,0.9s-0.1,0.6-0.2,0.8l-0.4-0.1
		l1,6.9V171.2z M697.9,165.8c0,0.6-0.2,1.1-0.6,1.5s-1,0.5-1.8,0.5c-0.4,0-0.8,0-1.2-0.1c-0.3-0.1-0.7-0.2-1.2-0.3l0.1-0.2
		c0.1,0,0.3,0,0.5,0c0.5,0,0.8,0.1,0.9,0.1c0.7,0,1.3-0.1,1.7-0.3c0.5-0.2,0.7-0.4,0.7-0.7c0-0.1,0-0.2-0.1-0.3s-0.2-0.1-0.4-0.1
		c-0.2,0-0.3,0-0.4,0l-0.6,0c-0.1,0-0.3,0-0.4-0.1s-0.2-0.2-0.2-0.4c0-0.5,0.3-1.1,0.8-1.8s1.1-1.1,1.6-1.3l-0.2,1.2
		c-0.4,0.1-0.7,0.2-0.9,0.4c-0.4,0.2-0.5,0.5-0.5,0.7c0,0.1,0,0.2,0.1,0.2c0.1,0,0.2,0.1,0.3,0.1c0.1,0,0.2,0,0.3,0l0.5-0.1
		c0.3,0,0.5,0.1,0.6,0.2S697.9,165.4,697.9,165.8z"/>
	<path class="st4" d="M715.9,171.2h-0.7c-0.4,0-0.7,0-0.9-0.1c-0.3-0.1-0.5-0.3-0.8-0.5c-0.2,0.2-0.5,0.4-0.7,0.4
		c-0.3,0.1-0.7,0.2-1.2,0.2h-1.1c0,0.5-0.1,1.1-0.4,1.6c-0.3,0.7-0.8,1.2-1.5,1.6c-0.9,0.5-1.9,0.7-3.2,0.7c-1.2,0-2.1-0.2-2.7-0.6
		c-0.7-0.5-1-1.1-1-2.1c0-0.5,0.1-1,0.2-1.5s0.3-1,0.5-1.6c0.1-0.3,0.4-0.8,0.7-1.5l0.4,0.2c-0.4,0.8-0.7,1.5-0.8,2
		s-0.2,0.9-0.2,1.3c0,0.7,0.3,1.3,0.8,1.7c0.5,0.4,1.3,0.6,2.2,0.6c1.1,0,2.1-0.2,3-0.6c1.1-0.5,1.7-1.2,1.7-2
		c0-0.6-0.1-1.1-0.3-1.7c-0.2-0.4-0.4-0.8-0.7-1.2l0.7-1.8c0.3,0.5,0.5,0.9,0.6,1.3c0.1,0.5,0.2,1.2,0.2,2.1h1.1
		c0.6,0,1-0.1,1.2-0.3c0.2-0.1,0.3-0.4,0.3-0.7c0-0.2,0-0.3,0-0.5c0-0.2-0.1-0.4-0.1-0.6l0.4-0.5l0.1,0.9c0.1,0.6,0.3,1,0.5,1.2
		c0.2,0.3,0.6,0.4,1,0.4c0.1,0,0.2,0,0.3-0.1s0.1-0.2,0.1-0.3c0-0.3-0.1-0.6-0.3-0.9c-0.1-0.2-0.3-0.5-0.5-0.7l0.6-1
		c0.3,0.5,0.4,0.8,0.5,0.9c0.1,0.4,0.2,0.9,0.2,1.6V171.2z"/>
	<path class="st4" d="M722,171.2h-1c-1,0-1.8,0.1-2.5,0.3c-0.9,0.2-1.4,0.6-1.4,1c0,0.4,0.1,0.8,0.2,1.2s0.3,0.9,0.4,1.3
		s0.2,0.9,0.2,1.2c0,0.2,0,0.4,0,0.6s-0.1,0.4-0.2,0.7c-0.2-0.5-0.3-1-0.4-1.5c-0.3-0.9-0.5-1.6-0.6-2.1c-0.2-0.8-0.3-1.2-0.3-1.4
		c0-0.8,0.2-1.3,0.5-1.7c0.3-0.4,0.8-0.7,1.4-0.9c0.5-0.2,1.3-0.3,2.3-0.4c-0.4-0.4-0.6-0.6-0.7-0.7c-0.3-0.2-0.6-0.4-0.9-0.4
		c-0.2,0-0.4,0.1-0.6,0.2c-0.1,0.1-0.3,0.3-0.5,0.5l-0.4-0.3c0.2-0.4,0.4-0.8,0.6-1.1c0.4-0.4,0.8-0.7,1.3-0.7
		c0.4,0,0.7,0.1,1.1,0.4c0.3,0.2,0.6,0.5,0.9,0.9c0.2,0.2,0.4,0.5,0.7,1V171.2z"/>
	<path class="st4" d="M734.8,171.2h-8.4c-1.1,0-2-0.2-2.7-0.6c-0.8-0.5-1.3-1.3-1.3-2.3c0-0.5,0.1-1.1,0.4-1.7
		c0.1-0.2,0.3-0.6,0.6-1.2l0.3,0.2c-0.1,0.3-0.3,0.5-0.4,0.8c-0.2,0.4-0.3,0.8-0.3,1.1c0,0.7,0.4,1.2,1.1,1.6
		c0.7,0.3,1.5,0.5,2.5,0.5h7.4v-0.2c0-0.7-0.1-1.2-0.2-1.6c-0.2-0.4-0.4-0.8-0.8-1.1l0.7-1.4c0.3,0.3,0.4,0.5,0.5,0.6
		c0.4,0.7,0.6,1.6,0.6,2.9V171.2z M729.8,173.3l-0.7,1.3l-1.4-0.7l0.7-1.3L729.8,173.3z"/>
	<path class="st4" d="M743.6,171.2c0,0.6-0.3,1.3-0.8,2c-0.5,0.6-1.1,1.1-1.8,1.6c-0.7,0.4-1.2,0.6-1.7,0.6c-0.4,0-0.8-0.1-1.3-0.2
		c-0.4-0.1-0.8-0.2-1.3-0.4c-0.4-0.2-0.8-0.3-1.3-0.5l0.1-0.4c0.4,0.1,0.8,0.2,1.2,0.2c0.4,0.1,0.8,0.1,1.1,0.1
		c0.8,0,1.5-0.2,2.3-0.7c0.7-0.4,1.4-1,1.9-1.7s0.8-1.3,0.8-1.8c0-0.5-0.1-0.9-0.4-1.5c-0.2-0.4-0.5-0.8-0.9-1.3l0.5-1.4
		c0.5,0.4,0.8,0.9,1.1,1.3c0.3,0.5,0.4,1.1,0.4,1.7V171.2z"/>
	<path class="st4" d="M752.9,176.1l-2.2,1.5c-1.2,0-2.2,0-2.8-0.1c-1.2-0.2-2-0.5-2.7-1c-0.8-0.6-1.2-1.6-1.2-2.8
		c0-0.7,0.1-1.4,0.3-2c0.2-0.5,0.4-0.9,0.8-1.3c0.2-0.2,0.5-0.5,0.9-0.9c-0.6-0.3-1-0.5-1.2-0.7c-0.5-0.5-0.7-1-0.7-1.7
		c0-0.6,0.3-1.2,0.8-1.8c0.6-0.7,1.3-1,2.2-1c0.4,0,0.8,0.1,1.2,0.3c0.3,0.1,0.6,0.4,1.1,0.7c-0.6,0-1.2,0-1.8,0.1
		c-0.8,0.1-1.4,0.2-1.9,0.4c-0.6,0.2-0.9,0.5-0.9,0.8c0,0.4,0.3,0.7,1,1c0.6,0.3,1.2,0.5,1.9,0.6c0.6-0.3,1.2-0.6,1.7-0.8
		c0.6-0.2,1.3-0.5,1.9-0.6l-0.4,1.4c-1.2,0.5-2.1,0.8-2.6,1.1c-1.1,0.5-1.9,1-2.5,1.6c-0.7,0.7-1.1,1.4-1.1,2.2c0,0.8,0.3,1.5,0.9,2
		c0.5,0.4,1.3,0.7,2.4,0.9c0.8,0.1,1.9,0.2,3.2,0.2c0.3,0,0.6,0,0.8,0S752.7,176,752.9,176.1L752.9,176.1z M748,161.2l-0.7,1.3
		l-1.4-0.7l0.7-1.3L748,161.2z"/>
	<path class="st4" d="M757.4,173.8l4.9-12.9h1.8l5.3,12.9h-1.9l-1.5-3.9h-5.4l-1.4,3.9H757.4z M761.1,168.5h4.4l-1.3-3.6
		c-0.4-1.1-0.7-2-0.9-2.7c-0.2,0.8-0.4,1.6-0.7,2.5L761.1,168.5z"/>
	<path class="st4" d="M771.1,173.8v-12.9h1.7v12.9H771.1z"/>
	<path class="st4" d="M775.9,173.8v-12.9h8.7v1.5h-7v4h6v1.5h-6v5.9H775.9z"/>
	<path class="st4" d="M796,169.2l1.7,0.4c-0.4,1.4-1,2.5-1.9,3.2s-2.1,1.1-3.4,1.1c-1.4,0-2.5-0.3-3.4-0.8c-0.9-0.6-1.5-1.4-2-2.5
		s-0.7-2.2-0.7-3.5c0-1.3,0.3-2.5,0.8-3.5c0.5-1,1.2-1.8,2.2-2.3c0.9-0.5,2-0.8,3.1-0.8c1.3,0,2.4,0.3,3.3,1s1.5,1.6,1.8,2.8
		l-1.7,0.4c-0.3-0.9-0.7-1.6-1.3-2s-1.3-0.6-2.1-0.6c-1,0-1.8,0.2-2.5,0.7s-1.1,1.1-1.4,1.9c-0.3,0.8-0.4,1.6-0.4,2.5
		c0,1.1,0.2,2.1,0.5,2.9c0.3,0.8,0.8,1.4,1.5,1.8s1.4,0.6,2.2,0.6c1,0,1.8-0.3,2.4-0.8S795.8,170.3,796,169.2z"/>
	<path class="st4" d="M800.7,177.5h-1.1c1.8-2.8,2.6-5.6,2.6-8.4c0-1.1-0.1-2.2-0.4-3.3c-0.2-0.9-0.5-1.7-0.8-2.5
		c-0.2-0.5-0.7-1.4-1.4-2.6h1.1c1.1,1.5,1.9,2.9,2.4,4.4c0.5,1.3,0.7,2.6,0.7,4c0,1.6-0.3,3.1-0.9,4.6S801.5,176.4,800.7,177.5z"/>
</g>
<g>
	<path class="st4" d="M880.7,145.3c0,0.5-0.1,0.9-0.3,1.4c-0.1,0.2-0.3,0.6-0.6,1.1l-0.2-0.1c0-0.2,0-0.4,0-0.6s0-0.4,0-0.4
		c0-0.6,0-1.5-0.1-2.6s-0.2-2.2-0.3-3.4c-0.1-0.7-0.2-1.5-0.3-2.2c0.1-0.3,0.3-0.5,0.4-0.8s0.3-0.6,0.4-0.8c0.1,0.7,0.2,1.6,0.4,2.7
		s0.3,2.2,0.3,3.1C880.6,143.9,880.7,144.7,880.7,145.3z"/>
	<path class="st4" d="M890.6,146.5c0,0.9-0.2,1.7-0.7,2.2c-0.4,0.5-1,0.8-1.7,1c-0.6,0.2-1.5,0.3-2.5,0.3c-1.1,0-2-0.2-2.6-0.6
		c-0.7-0.5-1-1.1-1-2c0-0.5,0.1-1,0.2-1.6c0.1-0.5,0.3-1,0.6-1.5c0.2-0.4,0.4-0.9,0.7-1.4l0.3,0.2c-0.2,0.4-0.4,0.7-0.5,1.1
		c-0.2,0.4-0.3,0.8-0.4,1.1c-0.1,0.4-0.2,0.8-0.2,1.2c0,0.7,0.3,1.3,0.8,1.6s1.3,0.6,2.2,0.6c1,0,1.9-0.2,2.8-0.5
		c0.9-0.4,1.4-0.8,1.4-1.3c0-0.6-0.1-1.5-0.3-2.9c-0.1-1-0.3-2.2-0.5-3.5l-0.3-1.7l-0.4-0.2c0-0.8,0.2-1.5,0.5-2.1h0.1
		c0,0.2,0.1,0.4,0.1,0.5s0.2,0.2,0.3,0.2c0.2,0.1,0.4,0.2,0.6,0.3c0.2,0.1,0.3,0.1,0.4,0.2c0,0.4,0,0.7,0,0.9s-0.1,0.5-0.2,0.8
		l-0.5-0.2c0,0.1,0.1,0.7,0.3,1.8c0.2,1.2,0.3,2.2,0.4,3C890.5,144.9,890.6,145.8,890.6,146.5z"/>
	<path class="st4" d="M899.8,152.5l-2.2,1.5c-1.2,0-2.2,0-2.8-0.1c-1.2-0.2-2-0.5-2.7-1c-0.8-0.6-1.2-1.6-1.2-2.8
		c0-0.7,0.1-1.4,0.3-2c0.2-0.5,0.4-0.9,0.8-1.3c0.2-0.2,0.5-0.5,0.9-0.9c-0.6-0.3-1-0.5-1.2-0.7c-0.5-0.5-0.7-1-0.7-1.7
		c0-0.6,0.3-1.2,0.8-1.8c0.6-0.7,1.3-1,2.2-1c0.4,0,0.8,0.1,1.2,0.3c0.3,0.1,0.6,0.4,1.1,0.7c-0.6,0-1.2,0-1.8,0.1
		c-0.8,0.1-1.4,0.2-1.9,0.4c-0.6,0.2-0.9,0.5-0.9,0.8c0,0.4,0.3,0.7,1,1c0.6,0.3,1.2,0.5,1.9,0.6c0.6-0.3,1.2-0.6,1.7-0.8
		c0.6-0.2,1.3-0.5,1.9-0.6l-0.4,1.4c-1.2,0.5-2.1,0.8-2.6,1.1c-1.1,0.5-1.9,1-2.5,1.6c-0.7,0.7-1.1,1.4-1.1,2.2c0,0.8,0.3,1.5,0.9,2
		c0.5,0.4,1.3,0.7,2.4,0.9c0.8,0.1,1.9,0.2,3.2,0.2c0.3,0,0.6,0,0.8,0S899.6,152.4,899.8,152.5L899.8,152.5z"/>
	<path class="st4" d="M910.8,148c0,1.2-0.6,2-1.7,2.7c-1,0.5-2.3,0.8-4,0.8c-1.3,0-2.3-0.2-3-0.7c-0.8-0.5-1.2-1.3-1.2-2.3
		c0-0.7,0.1-1.4,0.3-2.2c0.2-0.7,0.5-1.4,0.9-2.1l0.4,0.2c-0.2,0.4-0.3,0.8-0.4,1.1c-0.2,0.4-0.3,0.8-0.3,1.1
		c-0.1,0.4-0.1,0.8-0.1,1.1c0,0.8,0.3,1.3,1,1.7c0.6,0.3,1.5,0.5,2.6,0.5c1.2,0,2.3-0.2,3.3-0.6c1.1-0.5,1.6-1.1,1.6-1.9
		c0-0.3,0-0.5,0-0.6c0-0.1-0.1-0.3-0.1-0.4c-0.2,0.1-0.4,0.2-0.7,0.3c-0.2,0.1-0.5,0.1-0.7,0.1c-0.5,0-0.9-0.1-1.3-0.4
		c-0.4-0.3-0.6-0.7-0.6-1.3c0-0.7,0.2-1.3,0.5-1.9c0.4-0.7,0.8-1,1.4-1c0.7,0,1.2,0.5,1.6,1.4c0.3,0.8,0.5,1.7,0.5,2.8V148z
		 M907.8,139.4l-0.7,1.3l-1.5-0.7l0.7-1.3L907.8,139.4z M909.4,144.8c-0.2-0.4-0.3-0.6-0.3-0.7c-0.2-0.2-0.4-0.4-0.6-0.4
		c-0.3,0-0.5,0.1-0.6,0.2s-0.2,0.3-0.2,0.5c0,0.2,0.1,0.3,0.3,0.4s0.4,0.2,0.6,0.2c0.2,0,0.3,0,0.4-0.1
		C909.1,144.9,909.2,144.9,909.4,144.8z M909.8,138.6l-0.7,1.3l-1.4-0.7l0.7-1.3L909.8,138.6z"/>
	<path class="st4" d="M913.8,145.3c0,0.5-0.1,0.9-0.3,1.4c-0.1,0.2-0.3,0.6-0.6,1.1l-0.2-0.1c0-0.2,0-0.4,0-0.6s0-0.4,0-0.4
		c0-0.6,0-1.5-0.1-2.6s-0.2-2.2-0.3-3.4c-0.1-0.7-0.2-1.5-0.3-2.2c0.1-0.3,0.3-0.5,0.4-0.8s0.3-0.6,0.4-0.8c0.1,0.7,0.2,1.6,0.4,2.7
		s0.3,2.2,0.3,3.1C913.7,143.9,913.8,144.7,913.8,145.3z"/>
	<path class="st4" d="M923.3,147.6c0,0.6-0.3,1.3-0.8,2c-0.5,0.6-1.1,1.1-1.8,1.6c-0.7,0.4-1.2,0.6-1.7,0.6c-0.4,0-0.8-0.1-1.3-0.2
		c-0.4-0.1-0.8-0.2-1.3-0.4c-0.4-0.2-0.8-0.3-1.3-0.5l0.1-0.4c0.4,0.1,0.8,0.2,1.2,0.2c0.4,0.1,0.8,0.1,1.1,0.1
		c0.8,0,1.5-0.2,2.3-0.7c0.7-0.4,1.4-1,1.9-1.7s0.8-1.3,0.8-1.8c0-0.5-0.1-0.9-0.4-1.5c-0.2-0.4-0.5-0.8-0.9-1.3l0.5-1.4
		c0.5,0.4,0.8,0.9,1.1,1.3c0.3,0.5,0.4,1.1,0.4,1.7V147.6z"/>
	<path class="st4" d="M926.3,145.3c0,0.5-0.1,0.9-0.3,1.4c-0.1,0.2-0.3,0.6-0.6,1.1l-0.2-0.1c0-0.2,0-0.4,0-0.6s0-0.4,0-0.4
		c0-0.6,0-1.5-0.1-2.6s-0.2-2.2-0.3-3.4c-0.1-0.7-0.2-1.5-0.3-2.2c0.1-0.3,0.3-0.5,0.4-0.8s0.3-0.6,0.4-0.8c0.1,0.7,0.2,1.6,0.4,2.7
		s0.3,2.2,0.3,3.1C926.3,143.9,926.3,144.7,926.3,145.3z"/>
	<path class="st4" d="M939.9,147.6h-8.4c-1.1,0-2-0.2-2.7-0.6c-0.8-0.5-1.3-1.3-1.3-2.3c0-0.5,0.1-1.1,0.4-1.7
		c0.1-0.2,0.3-0.6,0.6-1.2l0.3,0.2c-0.1,0.3-0.3,0.5-0.4,0.8c-0.2,0.4-0.3,0.8-0.3,1.1c0,0.7,0.4,1.2,1.1,1.6
		c0.7,0.3,1.5,0.5,2.5,0.5h7.4v-0.2c0-0.7-0.1-1.2-0.2-1.6c-0.2-0.4-0.4-0.8-0.8-1.1l0.7-1.4c0.3,0.3,0.4,0.5,0.5,0.6
		c0.4,0.7,0.6,1.6,0.6,2.9V147.6z M933.8,140.4l-0.7,1.3l-1.5-0.7l0.7-1.3L933.8,140.4z M935.8,139.6l-0.7,1.3l-1.4-0.7l0.7-1.3
		L935.8,139.6z"/>
	<path class="st4" d="M947.9,145.3c0,0.5-0.1,0.9-0.3,1.4c-0.1,0.2-0.3,0.6-0.6,1.1l-0.2-0.1c0-0.2,0-0.4,0-0.6s0-0.4,0-0.4
		c0-0.6,0-1.5-0.1-2.6s-0.2-2.2-0.3-3.4c-0.1-0.7-0.2-1.5-0.3-2.2c0.1-0.3,0.3-0.5,0.4-0.8s0.3-0.6,0.4-0.8c0.1,0.7,0.2,1.6,0.4,2.7
		s0.3,2.2,0.3,3.1C947.8,143.9,947.9,144.7,947.9,145.3z"/>
	<path class="st4" d="M957.8,146.5c0,0.9-0.2,1.7-0.7,2.2c-0.4,0.5-1,0.8-1.7,1c-0.6,0.2-1.5,0.3-2.5,0.3c-1.1,0-2-0.2-2.6-0.6
		c-0.7-0.5-1-1.1-1-2c0-0.5,0.1-1,0.2-1.6c0.1-0.5,0.3-1,0.6-1.5c0.2-0.4,0.4-0.9,0.7-1.4l0.3,0.2c-0.2,0.4-0.4,0.7-0.5,1.1
		c-0.2,0.4-0.3,0.8-0.4,1.1c-0.1,0.4-0.2,0.8-0.2,1.2c0,0.7,0.3,1.3,0.8,1.6s1.3,0.6,2.2,0.6c1,0,1.9-0.2,2.8-0.5
		c0.9-0.4,1.4-0.8,1.4-1.3c0-0.6-0.1-1.5-0.3-2.9c-0.1-1-0.3-2.2-0.5-3.5l-0.3-1.7l-0.4-0.2c0-0.8,0.2-1.5,0.5-2.1h0.1
		c0,0.2,0.1,0.4,0.1,0.5s0.2,0.2,0.3,0.2c0.2,0.1,0.4,0.2,0.6,0.3c0.2,0.1,0.3,0.1,0.4,0.2c0,0.4,0,0.7,0,0.9s-0.1,0.5-0.2,0.8
		l-0.5-0.2c0,0.1,0.1,0.7,0.3,1.8c0.2,1.2,0.3,2.2,0.4,3C957.7,144.9,957.8,145.8,957.8,146.5z"/>
	<path class="st4" d="M970.6,147.6h-8.4c-1.1,0-2-0.2-2.7-0.6c-0.8-0.5-1.3-1.3-1.3-2.3c0-0.5,0.1-1.1,0.4-1.7
		c0.1-0.2,0.3-0.6,0.6-1.2l0.3,0.2c-0.1,0.3-0.3,0.5-0.4,0.8c-0.2,0.4-0.3,0.8-0.3,1.1c0,0.7,0.4,1.2,1.1,1.6
		c0.7,0.3,1.5,0.5,2.5,0.5h7.4v-0.2c0-0.7-0.1-1.2-0.2-1.6c-0.2-0.4-0.4-0.8-0.8-1.1l0.7-1.4c0.3,0.3,0.4,0.5,0.5,0.6
		c0.4,0.7,0.6,1.6,0.6,2.9V147.6z M964.5,140.4l-0.7,1.3l-1.5-0.7l0.7-1.3L964.5,140.4z M966.5,139.6l-0.7,1.3l-1.4-0.7l0.7-1.3
		L966.5,139.6z"/>
	<path class="st4" d="M974.9,144c-0.1,0-0.3,0-0.5,0s-0.4,0-0.5,0c-0.4,0-0.8,0-1.3,0.1c-0.3,0-0.7,0.1-1.2,0.2
		c0.2-0.7,0.5-1.1,0.7-1.3c0.4-0.4,1.2-0.7,2.2-0.7c0.4,0,1.2,0.1,2.4,0.2c0.6,0.1,1,0.1,1.4,0.1c0.2,0,0.4,0,0.7-0.1
		s0.6-0.1,0.7-0.1l-0.3,1.5c-1.2,0.2-2.3,0.5-3.2,0.7c-1.3,0.4-2.3,0.9-3,1.5c-0.9,0.7-1.3,1.6-1.3,2.5c0,1.3,0.7,2.2,2,2.8
		c1.1,0.6,2.7,0.8,4.6,0.8h1.6l0.1,0.1l-2,1.4h-0.5c-1.3,0-2.3-0.1-3.2-0.4c-1-0.3-1.8-0.7-2.3-1.4c-0.6-0.7-0.9-1.6-0.9-2.8
		c0-1,0.2-1.9,0.7-2.7c0.4-0.6,0.9-1.2,1.5-1.7C973.5,144.9,974,144.6,974.9,144z M977.4,147.9l-0.7,1.3l-1.4-0.7l0.7-1.3
		L977.4,147.9z"/>
	<path class="st4" d="M983.7,145.3c0,0.5-0.1,0.9-0.3,1.4c-0.1,0.2-0.3,0.6-0.6,1.1l-0.2-0.1c0-0.2,0-0.4,0-0.6s0-0.4,0-0.4
		c0-0.6,0-1.5-0.1-2.6s-0.2-2.2-0.3-3.4c-0.1-0.7-0.2-1.5-0.3-2.2c0.1-0.3,0.3-0.5,0.4-0.8s0.3-0.6,0.4-0.8c0.1,0.7,0.2,1.6,0.4,2.7
		s0.3,2.2,0.3,3.1C983.7,143.9,983.7,144.7,983.7,145.3z"/>
	<path class="st4" d="M993.3,147.6c0,0.6-0.3,1.3-0.8,2c-0.5,0.6-1.1,1.1-1.8,1.6c-0.7,0.4-1.2,0.6-1.7,0.6c-0.4,0-0.8-0.1-1.3-0.2
		c-0.4-0.1-0.8-0.2-1.3-0.4c-0.4-0.2-0.8-0.3-1.3-0.5l0.1-0.4c0.4,0.1,0.8,0.2,1.2,0.2c0.4,0.1,0.8,0.1,1.1,0.1
		c0.8,0,1.5-0.2,2.3-0.7c0.7-0.4,1.4-1,1.9-1.7s0.8-1.3,0.8-1.8c0-0.5-0.1-0.9-0.4-1.5c-0.2-0.4-0.5-0.8-0.9-1.3l0.5-1.4
		c0.5,0.4,0.8,0.9,1.1,1.3c0.3,0.5,0.4,1.1,0.4,1.7V147.6z"/>
	<path class="st4" d="M1004.2,143.1c0,0.2,0,0.4-0.1,0.6s-0.1,0.3-0.1,0.4c-0.2-0.3-0.4-0.5-0.7-0.6s-0.6-0.2-0.9-0.2
		c-0.5,0-1,0.3-1.6,0.9c-0.5,0.5-0.8,1-0.8,1.3c0,0.1,0.1,0.2,0.2,0.3s0.3,0.1,0.7,0.1h0.7c0.4,0,0.7,0,0.9,0c0.2,0,0.4,0,0.7,0.1
		s0.4,0.3,0.4,0.6c0,1.5-0.6,2.6-1.9,3.4c-1.2,0.7-2.8,1.1-4.8,1.1c-1,0-1.8-0.2-2.4-0.6c-0.6-0.4-0.9-1.1-0.9-2
		c0-0.6,0.1-1.2,0.3-1.9c0.2-0.5,0.4-1,0.6-1.6c0,0,0.2-0.4,0.6-1l0.4,0.1c-0.4,0.7-0.7,1.3-0.8,1.8c-0.2,0.6-0.3,1.1-0.3,1.5
		c0,0.7,0.2,1.3,0.7,1.6s1.2,0.5,2.1,0.5c0.7,0,1.5-0.1,2.5-0.4c0.8-0.2,1.5-0.5,2.2-0.9s1-0.6,1-0.7c0-0.1,0-0.2-0.1-0.2
		s-0.2-0.1-0.4-0.1h-2.1c-0.3,0-0.5-0.1-0.7-0.3s-0.3-0.4-0.3-0.7c0-0.4,0.2-0.9,0.5-1.6c0.4-0.7,0.8-1.3,1.3-1.8
		c0.6-0.6,1.2-0.9,1.8-0.9c0.4,0,0.7,0.1,0.9,0.4S1004.2,142.7,1004.2,143.1z M998.8,152.6l-0.7,1.3l-1.5-0.7l0.7-1.3L998.8,152.6z
		 M1000.8,151.8l-0.7,1.3l-1.4-0.7l0.7-1.3L1000.8,151.8z"/>
	<path class="st4" d="M1006.8,140.2l-0.7,1.3l-1.5-0.7l0.7-1.3L1006.8,140.2z M1009.6,145c0,0.8-0.1,1.4-0.4,1.9
		c-0.4,0.6-1.2,1-2.3,1c-0.4,0-0.8-0.1-1.1-0.3c-0.3-0.2-0.5-0.5-0.5-0.8c0-0.4,0.1-0.9,0.3-1.4c0.2-0.5,0.4-0.9,0.6-1.4l-0.1,0
		l0.5-1.5c1.1,0.6,1.7,0.9,1.9,1.1C1009.3,144,1009.6,144.5,1009.6,145z M1008.9,145.7c0-0.2-0.3-0.5-1-0.9
		c-0.3-0.2-0.6-0.3-0.9-0.5c-0.3,0.3-0.4,0.5-0.5,0.5c-0.2,0.2-0.2,0.4-0.2,0.7c0,0.3,0.1,0.5,0.3,0.7c0.2,0.2,0.4,0.3,0.7,0.3
		c0.3,0,0.7-0.1,1.1-0.3C1008.7,146,1008.9,145.8,1008.9,145.7z M1008.8,139.4l-0.7,1.3l-1.4-0.7l0.7-1.3L1008.8,139.4z"/>
	<path class="st4" d="M1017.8,145.3c0,0.5-0.1,0.9-0.3,1.4c-0.1,0.2-0.3,0.6-0.6,1.1l-0.2-0.1c0-0.2,0-0.4,0-0.6s0-0.4,0-0.4
		c0-0.6,0-1.5-0.1-2.6s-0.2-2.2-0.3-3.4c-0.1-0.7-0.2-1.5-0.3-2.2c0.1-0.3,0.3-0.5,0.4-0.8s0.3-0.6,0.4-0.8c0.1,0.7,0.2,1.6,0.4,2.7
		s0.3,2.2,0.3,3.1C1017.7,143.9,1017.8,144.7,1017.8,145.3z"/>
	<path class="st4" d="M1027.7,146.5c0,0.9-0.2,1.7-0.7,2.2c-0.4,0.5-1,0.8-1.7,1c-0.6,0.2-1.5,0.3-2.5,0.3c-1.1,0-2-0.2-2.6-0.6
		c-0.7-0.5-1-1.1-1-2c0-0.5,0.1-1,0.2-1.6c0.1-0.5,0.3-1,0.6-1.5c0.2-0.4,0.4-0.9,0.7-1.4l0.3,0.2c-0.2,0.4-0.4,0.7-0.5,1.1
		c-0.2,0.4-0.3,0.8-0.4,1.1c-0.1,0.4-0.2,0.8-0.2,1.2c0,0.7,0.3,1.3,0.8,1.6s1.3,0.6,2.2,0.6c1,0,1.9-0.2,2.8-0.5
		c0.9-0.4,1.4-0.8,1.4-1.3c0-0.6-0.1-1.5-0.3-2.9c-0.1-1-0.3-2.2-0.5-3.5l-0.3-1.7l-0.4-0.2c0-0.8,0.2-1.5,0.5-2.1h0.1
		c0,0.2,0.1,0.4,0.1,0.5s0.2,0.2,0.3,0.2c0.2,0.1,0.4,0.2,0.6,0.3c0.2,0.1,0.3,0.1,0.4,0.2c0,0.4,0,0.7,0,0.9s-0.1,0.5-0.2,0.8
		l-0.5-0.2c0,0.1,0.1,0.7,0.3,1.8c0.2,1.2,0.3,2.2,0.4,3C1027.6,144.9,1027.7,145.8,1027.7,146.5z"/>
	<path class="st4" d="M1033.7,147.6h-1c-1,0-1.8,0.1-2.5,0.3c-0.9,0.2-1.4,0.6-1.4,1c0,0.4,0.1,0.8,0.2,1.2s0.3,0.9,0.4,1.3
		s0.2,0.9,0.2,1.2c0,0.2,0,0.4,0,0.6s-0.1,0.4-0.2,0.7c-0.2-0.5-0.3-1-0.4-1.5c-0.3-0.9-0.5-1.6-0.6-2.1c-0.2-0.8-0.3-1.2-0.3-1.4
		c0-0.8,0.2-1.3,0.5-1.7c0.3-0.4,0.8-0.7,1.4-0.9c0.5-0.2,1.3-0.3,2.3-0.4c-0.4-0.4-0.6-0.6-0.7-0.7c-0.3-0.2-0.6-0.4-0.9-0.4
		c-0.2,0-0.4,0.1-0.6,0.2c-0.1,0.1-0.3,0.3-0.5,0.5l-0.4-0.3c0.2-0.4,0.4-0.8,0.6-1.1c0.4-0.4,0.8-0.7,1.3-0.7
		c0.4,0,0.7,0.1,1.1,0.4c0.3,0.2,0.6,0.5,0.9,0.9c0.2,0.2,0.4,0.5,0.7,1V147.6z"/>
	<path class="st4" d="M1039.8,147.6h-1c-1,0-1.8,0.1-2.5,0.3c-0.9,0.2-1.4,0.6-1.4,1c0,0.4,0.1,0.8,0.2,1.2s0.3,0.9,0.4,1.3
		s0.2,0.9,0.2,1.2c0,0.2,0,0.4,0,0.6s-0.1,0.4-0.2,0.7c-0.2-0.5-0.3-1-0.4-1.5c-0.3-0.9-0.5-1.6-0.6-2.1c-0.2-0.8-0.3-1.2-0.3-1.4
		c0-0.8,0.2-1.3,0.5-1.7c0.3-0.4,0.8-0.7,1.4-0.9c0.5-0.2,1.3-0.3,2.3-0.4c-0.4-0.4-0.6-0.6-0.7-0.7c-0.3-0.2-0.6-0.4-0.9-0.4
		c-0.2,0-0.4,0.1-0.6,0.2c-0.1,0.1-0.3,0.3-0.5,0.5l-0.4-0.3c0.2-0.4,0.4-0.8,0.6-1.1c0.4-0.4,0.8-0.7,1.3-0.7
		c0.4,0,0.7,0.1,1.1,0.4c0.3,0.2,0.6,0.5,0.9,0.9c0.2,0.2,0.4,0.5,0.7,1V147.6z"/>
	<path class="st4" d="M1052.7,147.6h-8.4c-1.1,0-2-0.2-2.7-0.6c-0.8-0.5-1.3-1.3-1.3-2.3c0-0.5,0.1-1.1,0.4-1.7
		c0.1-0.2,0.3-0.6,0.6-1.2l0.3,0.2c-0.1,0.3-0.3,0.5-0.4,0.8c-0.2,0.4-0.3,0.8-0.3,1.1c0,0.7,0.4,1.2,1.1,1.6
		c0.7,0.3,1.5,0.5,2.5,0.5h7.4v-0.2c0-0.7-0.1-1.2-0.2-1.6c-0.2-0.4-0.4-0.8-0.8-1.1l0.7-1.4c0.3,0.3,0.4,0.5,0.5,0.6
		c0.4,0.7,0.6,1.6,0.6,2.9V147.6z M1046.5,140.4l-0.7,1.3l-1.5-0.7l0.7-1.3L1046.5,140.4z M1048.5,139.6l-0.7,1.3l-1.4-0.7l0.7-1.3
		L1048.5,139.6z"/>
	<path class="st4" d="M1055.6,145.3c0,0.5-0.1,0.9-0.3,1.4c-0.1,0.2-0.3,0.6-0.6,1.1l-0.2-0.1c0-0.2,0-0.4,0-0.6s0-0.4,0-0.4
		c0-0.6,0-1.5-0.1-2.6s-0.2-2.2-0.3-3.4c-0.1-0.7-0.2-1.5-0.3-2.2c0.1-0.3,0.3-0.5,0.4-0.8s0.3-0.6,0.4-0.8c0.1,0.7,0.2,1.6,0.4,2.7
		s0.3,2.2,0.3,3.1C1055.6,143.9,1055.6,144.7,1055.6,145.3z"/>
	<path class="st4" d="M1065.2,147.6c0,0.6-0.3,1.3-0.8,2c-0.5,0.6-1.1,1.1-1.8,1.6c-0.7,0.4-1.2,0.6-1.7,0.6c-0.4,0-0.8-0.1-1.3-0.2
		c-0.4-0.1-0.8-0.2-1.3-0.4c-0.4-0.2-0.8-0.3-1.3-0.5l0.1-0.4c0.4,0.1,0.8,0.2,1.2,0.2c0.4,0.1,0.8,0.1,1.1,0.1
		c0.8,0,1.5-0.2,2.3-0.7c0.7-0.4,1.4-1,1.9-1.7s0.8-1.3,0.8-1.8c0-0.5-0.1-0.9-0.4-1.5c-0.2-0.4-0.5-0.8-0.9-1.3l0.5-1.4
		c0.5,0.4,0.8,0.9,1.1,1.3c0.3,0.5,0.4,1.1,0.4,1.7V147.6z M1063.9,139.4l-0.7,1.3l-1.4-0.7l0.7-1.3L1063.9,139.4z"/>
	<path class="st4" d="M1067.3,140.2l-0.7,1.3l-1.5-0.7l0.7-1.3L1067.3,140.2z M1070.1,145c0,0.8-0.1,1.4-0.4,1.9
		c-0.4,0.6-1.2,1-2.3,1c-0.4,0-0.8-0.1-1.1-0.3c-0.3-0.2-0.5-0.5-0.5-0.8c0-0.4,0.1-0.9,0.3-1.4c0.2-0.5,0.4-0.9,0.6-1.4l-0.1,0
		l0.5-1.5c1.1,0.6,1.7,0.9,1.9,1.1C1069.7,144,1070.1,144.5,1070.1,145z M1069.3,145.7c0-0.2-0.3-0.5-1-0.9
		c-0.3-0.2-0.6-0.3-0.9-0.5c-0.3,0.3-0.4,0.5-0.5,0.5c-0.2,0.2-0.2,0.4-0.2,0.7c0,0.3,0.1,0.5,0.3,0.7c0.2,0.2,0.4,0.3,0.7,0.3
		c0.3,0,0.7-0.1,1.1-0.3C1069.1,146,1069.3,145.8,1069.3,145.7z M1069.3,139.4l-0.7,1.3l-1.4-0.7l0.7-1.3L1069.3,139.4z"/>
</g>
</svg>
