<?xml version="1.0" encoding="utf-8"?>
<!-- Generator: Adobe Illustrator 23.0.0, SVG Export Plug-In . SVG Version: 6.00 Build 0)  -->
<svg version="1.1" id="运作原理" xmlns="http://www.w3.org/2000/svg" xmlns:xlink="http://www.w3.org/1999/xlink" x="0px"
	 y="0px" viewBox="0 0 817 407" style="enable-background:new 0 0 817 407;" xml:space="preserve">
<style type="text/css">
	.st0{fill:none;stroke:#90A7AB;}
	.st1{fill:#70DBCB;}
	.st2{fill:#9FE7DD;stroke:#34B9A1;stroke-width:2;}
	.st3{fill:none;stroke:#456E68;stroke-width:1.5;stroke-miterlimit:10;}
	.st4{enable-background:new    ;}
	.st5{fill:#456E68;}
</style>
<path id="形状_1_拷贝_3" class="st0" d="M63.1,200.2l0.1,71.6l4.6-2.1"/>
<path id="形状_1_拷贝_5" class="st0" d="M734.8,153.2l-0.1-71.1l-4.6,2"/>
<path id="形状_1" class="st0" d="M127.2,93.1h98.3l46.2,46.1l-0.3-6"/>
<path id="形状_1_拷贝_2" class="st0" d="M271.4,172.3h-98l-46.1-46.5l0.3,6.1"/>
<path id="形状_1_拷贝" class="st0" d="M653,207.3h-98.1l-46.1,46.1l0.3-6"/>
<path id="形状_1_拷贝_4" class="st0" d="M509.1,286.5H607l46-46.5l-0.3,6.1"/>
<g id="椭圆_7">
	<path class="st1" d="M225.4,219.8c-10.8,0-19.5-8.7-19.5-19.5s8.7-19.5,19.5-19.5s19.5,8.7,19.5,19.5S236.2,219.8,225.4,219.8z
		 M225.4,181.8c-10.2,0-18.5,8.3-18.5,18.5s8.3,18.5,18.5,18.5s18.5-8.3,18.5-18.5S235.6,181.8,225.4,181.8z"/>
</g>
<circle id="椭圆_6" class="st2" cx="389.6" cy="197.3" r="104.2"/>
<g>
	<circle class="st3" cx="63.3" cy="72.4" r="17.1"/>
	<line class="st3" x1="49.5" y1="99.3" x2="63.3" y2="115"/>
	<line class="st3" x1="76.6" y1="99.3" x2="63.3" y2="115"/>
	<line class="st3" x1="63.3" y1="130.6" x2="63.3" y2="115"/>
	<path class="st3" d="M100,121.6v3.7c0,3.4-2.8,6.1-6.1,6.1H32.6c-3.4,0-6.1-2.8-6.1-6.1v-3.7"/>
	<path class="st3" d="M32.6,115.5"/>
	<path class="st3" d="M26.5,123.3c0-13.9,11.4-24.5,25.3-24.5h23c13.9,0,25.2,11.3,25.2,25.2l0,0"/>
</g>
<g class="st4">
	<g>
		<g>
			<path class="st5" d="M96.5,302.6H86.4c1-0.8,1.6-1.9,1.6-3.2c0-2.3-1.8-4.1-4.1-4.1s-4.1,1.8-4.1,4.1c0,0.7,0.2,1.3,0.5,1.9
				l-1.5,1.3h-20c-0.6-1.5-2.1-2.5-3.8-2.5s-3.2,1-3.8,2.5H28.9c-1.8,0-3.3,1.5-3.3,3.3v8c0,0.6,0.5,1.1,1.1,1.1s1.1-0.5,1.1-1.1v-8
				c0-0.6,0.5-1.1,1.1-1.1h22c0.1,0.4,0.2,0.8,0.3,1.2l-9.1,8.3c-0.6-0.4-1.4-0.7-2.2-0.7c-2.3,0-4.1,1.8-4.1,4.1s1.8,4.1,4.1,4.1
				s4.1-1.8,4.1-4.1c0-0.7-0.2-1.3-0.4-1.8l9.1-8.3c0.7,0.5,1.5,0.7,2.3,0.7c1.2,0,2.2-0.5,3-1.3l7.4,4.4c-0.1,0.3-0.1,0.5-0.1,0.8
				c0,2.3,1.8,4.1,4.1,4.1c2.3,0,4.1-1.8,4.1-4.1c0-0.6-0.1-1.2-0.4-1.7l6.4-5.8h16.9c0.6,0,1.1,0.5,1.1,1.1v26.8
				c0,0.6,0.5,1.1,1.1,1.1s1.1-0.5,1.1-1.1v-26.8C99.8,304,98.3,302.6,96.5,302.6z M39.9,319.6c-1.1,0-1.9-0.9-1.9-1.9
				c0-1.1,0.9-1.9,1.9-1.9s1.9,0.9,1.9,1.9S41,319.6,39.9,319.6z M55,306.1c-1.1,0-1.9-0.9-1.9-1.9c0-1.1,0.9-1.9,1.9-1.9
				s1.9,0.9,1.9,1.9S56.1,306.1,55,306.1z M69.5,314.2c-1.1,0-1.9-0.9-1.9-1.9c0-1.1,0.9-1.9,1.9-1.9s1.9,0.9,1.9,1.9
				C71.5,313.3,70.6,314.2,69.5,314.2z M71.9,308.9c-0.7-0.5-1.5-0.8-2.4-0.8c-1.2,0-2.3,0.5-3.1,1.4l-7.3-4.4
				c0-0.1,0.1-0.3,0.1-0.4h17.2L71.9,308.9z M83.9,301.3c-1.1,0-1.9-0.9-1.9-1.9s0.9-1.9,1.9-1.9s1.9,0.9,1.9,1.9
				S85,301.3,83.9,301.3z"/>
		</g>
	</g>
	<g>
		<g>
			<path class="st5" d="M99.8,337c0-0.6-0.5-1.1-1.1-1.1s-1.1,0.5-1.1,1.1v8.2h-8v-25.7v-4.4v-4.5c0-0.6-0.5-1.1-1.1-1.1h-8.2
				c-0.6,0-1.1,0.5-1.1,1.1v4.5v4.4v25.7h-4.1v-5.5v-4.5v-4.5c0-0.6-0.5-1.1-1.1-1.1h-8c-0.6,0-1.1,0.5-1.1,1.1v4.5v4.4v5.5h-4.1
				v-19.5v-4.4v-4.5c0-0.6-0.5-1.1-1.1-1.1h-8.2c-0.6,0-1.1,0.5-1.1,1.1v4.5v4.4v6.1c0,0.6,0.5,1.1,1.1,1.1s1.1-0.5,1.1-1.1v-5h6
				v18.4h-6V336c0-0.6-0.5-1.1-1.1-1.1s-1.1,0.5-1.1,1.1v9.1h-4.1v-5.5v-4.4v-4.5c0-0.6-0.5-1.1-1.1-1.1H37c-0.6,0-1.1,0.5-1.1,1.1
				v4.5v4.4v5.5h-8.2v-27c0-0.6-0.5-1.1-1.1-1.1s-1.1,0.5-1.1,1.1v36c0,1.8,1.5,3.3,3.3,3.3h23.8l-0.6,5.4h-5
				c-0.6,0-1.1,0.5-1.1,1.1v3.8c0,0.6,0.5,1.1,1.1,1.1h31.5c0.6,0,1.1-0.5,1.1-1.1v-3.8c0-0.6-0.5-1.1-1.1-1.1h-5.2l-0.6-5.4h23.8
				c1.8,0,3.3-1.5,3.3-3.3v-7.8l0,0V337L99.8,337z M81.5,311.6h6v2.3h-6V311.6z M81.5,316.1h6v2.3h-6V316.1z M81.5,320.5h6v24.6h-6
				V320.5z M67.1,331.8h6v2.3h-6V331.8z M67.1,336.3h6v2.3h-6V336.3z M67.1,340.7h6v4.4h-6V340.7z M52.6,320.1v-2.3h6v2.3H52.6z
				 M52.6,324.5v-2.3h6v2.3H52.6z M38.2,331.8h6v2.3h-6V331.8z M38.2,336.3h6v2.3h-6V336.3z M38.2,340.7h6v4.4h-6V340.7z M77.5,365
				v1.6H48V365H77.5z M54.2,362.8l0.6-5.4h15.6l0.6,5.4H54.2z M96.5,355.3H28.9c-0.6,0-1.1-0.5-1.1-1.1v-6.7h69.8v6.7l0,0
				C97.6,354.8,97.1,355.3,96.5,355.3z"/>
		</g>
	</g>
</g>
<path class="st5" d="M759.5,186.2h-8.4v8.4h8.4V186.2z M756.7,191.9h-2.8V189h2.8V191.9z"/>
<path class="st5" d="M770.7,186.2h-8.4v8.4h8.4V186.2z M767.9,191.9h-2.8V189h2.8V191.9z"/>
<path class="st5" d="M759.5,197.5h-8.4v8.4h8.4V197.5z M756.7,203.1h-2.8v-2.8h2.8V203.1z"/>
<path class="st5" d="M770.7,197.5h-8.4v8.4h8.4V197.5z M767.9,203.1h-2.8v-2.8h2.8V203.1z"/>
<path class="st5" d="M759.5,217.1v-8.4h-8.4v8.4H759.5z M753.9,211.5h2.8v2.8h-2.8V211.5z"/>
<path class="st5" d="M770.7,208.7h-8.4v8.4h8.4V208.7z M767.9,214.3h-2.8v-2.8h2.8V214.3z"/>
<path class="st5" d="M779.1,183.4v-2.8h-2.8V175h-2.8v-5.6h-25.2v5.6h-2.8v5.6h-2.8v2.8h2.8v36.5h-11.2v-16.8h2.8v-8.4h-2.8v-2.1
	L714.7,179l-8.4,5.8v-4.3h-8.4v10.1l-2.8,1.9v2.1h-2.8v8.4h2.8v17.1c-1.6,0.6-2.8,2.1-2.8,3.9v2.8c0,2.3,1.9,4.2,4.2,4.2h27.3
	c-2.2,2.7-3.5,6.1-3.5,9.8c0,8.5,6.9,15.4,15.4,15.4s15.4-6.8,15.4-15.3c0-3.7-1.3-7.1-3.5-9.8h27.3c2.3,0,4.2-1.9,4.2-4.2v-2.8
	c0-1.8-1.2-3.4-2.8-3.9v-36.8L779.1,183.4L779.1,183.4z M751.1,172.2h19.6v2.8h-19.6V172.2z M748.3,177.8h25.2v2.8h-25.2V177.8z
	 M700.6,183.2h2.8v3.5l-2.8,1.9V183.2z M697.8,194.1l16.8-11.6l16.8,11.6v0.7h-33.7v-0.7H697.8z M695,197.5h39.3v2.8H695V197.5z
	 M731.5,203.1v16.8h-11.2v-14H709v14h-11.2v-16.8H731.5z M717.4,219.9h-5.6v-11.2h5.6V219.9z M735.7,253.6
	c-6.9,0-12.6-5.7-12.6-12.6c0-6.9,5.7-12.6,12.6-12.6s12.6,5.7,12.6,12.6C748.3,247.9,742.7,253.6,735.7,253.6z M776.3,226.9
	c0,0.8-0.6,1.4-1.4,1.4h-30.4c-2.5-1.8-5.5-2.8-8.8-2.8s-6.3,1-8.8,2.8h-30.4c-0.8,0-1.4-0.6-1.4-1.4v-2.8c0-0.8,0.6-1.4,1.4-1.4
	H775c0.8,0,1.4,0.6,1.4,1.4L776.3,226.9L776.3,226.9z M773.5,219.9h-25.2v-36.5h25.2V219.9z"/>
<g class="st4">
	<g>
		<g>
			<path class="st5" d="M715.3,25.6h-8.5c-0.6,0-1.1,0.5-1.1,1.1V31c0,0.6,0.5,1.1,1.1,1.1h8.5c0.6,0,1.1-0.5,1.1-1.1v-4.3
				C716.3,26.1,715.9,25.6,715.3,25.6z M709.9,29.9h-2.1v-2.1h2.1V29.9z M714.2,29.9h-2.1v-2.1h2.1V29.9z"/>
		</g>
	</g>
	<g>
		<g>
			<path class="st5" d="M715.3,34.1h-8.5c-0.6,0-1.1,0.5-1.1,1.1v4.3c0,0.6,0.5,1.1,1.1,1.1h8.5c0.6,0,1.1-0.5,1.1-1.1v-4.3
				C716.3,34.6,715.9,34.1,715.3,34.1z M709.9,38.4h-2.1v-2.1h2.1V38.4z M714.2,38.4h-2.1v-2.1h2.1V38.4z"/>
		</g>
	</g>
	<g>
		<g>
			<path class="st5" d="M715.3,42.8h-8.5c-0.6,0-1.1,0.5-1.1,1.1v4.2c0,0.6,0.5,1.1,1.1,1.1h8.5c0.6,0,1.1-0.5,1.1-1.1v-4.3
				C716.3,43.2,715.9,42.8,715.3,42.8z M709.9,47h-2.1v-2.1h2.1V47z M714.2,47h-2.1v-2.1h2.1V47z"/>
		</g>
	</g>
	<g>
		<g>
			<path class="st5" d="M753.7,25.6h-8.5c-0.6,0-1.1,0.5-1.1,1.1V31c0,0.6,0.5,1.1,1.1,1.1h8.5c0.6,0,1.1-0.5,1.1-1.1v-4.3
				C754.7,26.1,754.3,25.6,753.7,25.6z M748.3,29.9h-2.1v-2.1h2.1V29.9z M752.6,29.9h-2.1v-2.1h2.1V29.9z"/>
		</g>
	</g>
	<g>
		<g>
			<path class="st5" d="M753.7,17.1h-8.5c-0.6,0-1.1,0.5-1.1,1.1v4.3c0,0.6,0.5,1.1,1.1,1.1h8.5c0.6,0,1.1-0.5,1.1-1.1v-4.3
				C754.7,17.5,754.3,17.1,753.7,17.1z M748.3,21.3h-2.1v-2.1h2.1V21.3z M752.6,21.3h-2.1v-2.1h2.1V21.3z"/>
		</g>
	</g>
	<g>
		<g>
			<path class="st5" d="M728.1,29.9h-4.3c-0.6,0-1.1,0.5-1.1,1.1v4.3c0,0.6,0.5,1.1,1.1,1.1h4.3c0.6,0,1.1-0.5,1.1-1.1V31
				C729.1,30.3,728.7,29.9,728.1,29.9z M727,34.1h-2.1V32h2.1V34.1z"/>
		</g>
	</g>
	<g>
		<g>
			<path class="st5" d="M736.6,29.9h-4.3c-0.6,0-1.1,0.5-1.1,1.1v4.3c0,0.6,0.5,1.1,1.1,1.1h4.3c0.6,0,1.1-0.5,1.1-1.1V31
				C737.7,30.3,737.2,29.9,736.6,29.9z M735.5,34.1h-2.1V32h2.1V34.1z"/>
		</g>
	</g>
	<g>
		<g>
			<path class="st5" d="M728.1,21.3h-4.3c-0.6,0-1.1,0.5-1.1,1.1v4.3c0,0.6,0.5,1.1,1.1,1.1h4.3c0.6,0,1.1-0.5,1.1-1.1v-4.3
				C729.1,21.8,728.7,21.3,728.1,21.3z M727,25.6h-2.1v-2.1h2.1V25.6z"/>
		</g>
	</g>
	<g>
		<g>
			<path class="st5" d="M736.6,21.3h-4.3c-0.6,0-1.1,0.5-1.1,1.1v4.3c0,0.6,0.5,1.1,1.1,1.1h4.3c0.6,0,1.1-0.5,1.1-1.1v-4.3
				C737.7,21.8,737.2,21.3,736.6,21.3z M735.5,25.6h-2.1v-2.1h2.1V25.6z"/>
		</g>
	</g>
	<g>
		<g>
			<path class="st5" d="M728.1,12.8h-4.3c-0.6,0-1.1,0.5-1.1,1.1v4.3c0,0.6,0.5,1.1,1.1,1.1h4.3c0.6,0,1.1-0.5,1.1-1.1v-4.3
				C729.1,13.3,728.7,12.8,728.1,12.8z M727,17.1h-2.1V15h2.1V17.1z"/>
		</g>
	</g>
	<g>
		<g>
			<path class="st5" d="M736.6,12.8h-4.3c-0.6,0-1.1,0.5-1.1,1.1v4.3c0,0.6,0.5,1.1,1.1,1.1h4.3c0.6,0,1.1-0.5,1.1-1.1v-4.3
				C737.7,13.3,737.2,12.8,736.6,12.8z M735.5,17.1h-2.1V15h2.1V17.1z"/>
		</g>
	</g>
	<g>
		<g>
			<path class="st5" d="M728.1,42.8h-4.3c-0.6,0-1.1,0.5-1.1,1.1v4.2c0,0.6,0.5,1.1,1.1,1.1h4.3c0.6,0,1.1-0.5,1.1-1.1v-4.3
				C729.1,43.2,728.7,42.8,728.1,42.8z M727,47h-2.1v-2.1h2.1V47z"/>
		</g>
	</g>
	<g>
		<g>
			<rect x="705.6" y="51.3" class="st5" width="2.1" height="2.1"/>
		</g>
	</g>
	<g>
		<g>
			<rect x="709.9" y="51.3" class="st5" width="2.1" height="2.1"/>
		</g>
	</g>
	<g>
		<g>
			<rect x="714.2" y="51.3" class="st5" width="2.1" height="2.1"/>
		</g>
	</g>
	<g>
		<g>
			<path class="st5" d="M764.3,38.4H759V13.9c0-0.6-0.5-1.1-1.1-1.1h-7.5v-1.7l1.1-1.1c0.9,0.7,2,1.1,3.1,1.1c1.4,0,2.7-0.5,3.7-1.5
				l0.2-0.2c0.4-0.4,0.4-1.1,0-1.5l-2.4-2.4l2.4-2.4L757,1.6L754.6,4l-3.5-3.5c-0.2-0.2-0.5-0.3-0.8-0.3c-0.4,0-0.7,0.2-0.9,0.4
				c-1.1,1-1.7,2.3-1.7,3.7s0.5,2.9,1.6,3.9l0.5,0.5l-1.4,1.4c-0.2,0.2-0.3,0.5-0.3,0.8V13h-6.4V9.6c0-0.6-0.5-1.1-1.1-1.1h-3.7
				l-6.1-8.1c-0.4-0.5-1.3-0.5-1.7,0L723,8.5h-3.7c-0.6,0-1.1,0.5-1.1,1.1v11.7h-6.4v-8.5h-2.1v8.5h-7.5c-0.6,0-1.1,0.5-1.1,1.1V63
				c0,0.6,0.5,1.1,1.1,1.1h17.1h7.5h8.5h1.1h6.4h17.1c2.9,0,5.3-2.4,5.3-5.3V39.6C765.4,38.9,764.9,38.4,764.3,38.4z M718.5,62
				h-14.9V23.5h14.9V62z M750.5,2.6l5.8,5.8c-1.2,0.7-2.8,0.6-3.9-0.5l-1.5-1.5c-0.6-0.6-1-1.4-0.9-2.3
				C750.1,3.6,750.2,3.1,750.5,2.6z M730.2,2.8l4.3,5.7H726L730.2,2.8z M725.9,53.4v8.5h-5.3V22.4V10.7h19.2v3.2v19.2h2.1V14.9h14.9
				v23.5h-2.1v-1.1c0-1.8-1.4-3.2-3.2-3.2h-6.4c-1.8,0-3.2,1.4-3.2,3.2v1.1h-9.6c-0.6,0-1.1,0.5-1.1,1.1v11.7h-8.5v2.1h3.2
				L725.9,53.4L725.9,53.4z M752.6,37.3v1.1h-8.5v-1.1c0-0.6,0.5-1.1,1.1-1.1h6.4C752.1,36.3,752.6,36.7,752.6,37.3z M728.1,62v-8.5
				h3.2v5.3c0,1.2,0.4,2.3,1.1,3.2H728.1z M763.3,58.8c0,1.8-1.4,3.2-3.2,3.2H743h-6.4c-1.8,0-3.2-1.4-3.2-3.2V48.1
				c0.9,0.7,2,1.1,3.2,1.1h1.1v3.2c0,0.6,0.5,1.1,1.1,1.1h4.3c0.6,0,1.1-0.5,1.1-1.1v-3.2h1.1h6.4h1.1v3.2c0,0.6,0.5,1.1,1.1,1.1
				h4.3c0.6,0,1.1-0.5,1.1-1.1v-3.2h1.1c1.2,0,2.3-0.4,3.2-1.1v10.7H763.3z M739.8,51.3v-2.1h2.1v2.1H739.8z M746.2,47v-2.1h4.3V47
				H746.2z M754.7,51.3v-2.1h2.1v2.1H754.7z M763.3,43.8c0,1.8-1.4,3.2-3.2,3.2H758h-4.3h-1.1v-3.2c0-0.6-0.5-1.1-1.1-1.1h-6.4
				c-0.6,0-1.1,0.5-1.1,1.1V47h-1.1h-4.3h-2.1c-1.8,0-3.2-1.4-3.2-3.2v-3.2h29.9L763.3,43.8L763.3,43.8z"/>
		</g>
	</g>
	<g>
		<g>
			<rect x="759" y="57.7" class="st5" width="2.1" height="2.1"/>
		</g>
	</g>
	<g>
		<g>
			<rect x="754.7" y="57.7" class="st5" width="2.1" height="2.1"/>
		</g>
	</g>
	<g>
		<g>
			<rect x="750.5" y="57.7" class="st5" width="2.1" height="2.1"/>
		</g>
	</g>
</g>
<g>
	<g>
		<path class="st1" d="M219.7,209.9v-1.1c2.2-0.9,3.3-2.5,3.3-4.8v-2.8h-3V200h3v-3.8c0-1.6,0.4-3,1.3-4c0.9-1,2-1.5,3.5-1.5
			c0.8,0,1.6,0.2,2.4,0.5v1.2c-0.8-0.4-1.6-0.6-2.4-0.6c-1.1,0-1.9,0.4-2.6,1.2c-0.6,0.8-0.9,1.9-0.9,3.4v3.6h4v1.2h-4v2.3
			c0,2.6-0.9,4.3-2.8,5.3h9.7v1.1H219.7z"/>
	</g>
</g>
<g>
	<g id="椭圆_7_1_">
		<path class="st1" d="M572.9,196.8c-10.8,0-19.5-8.7-19.5-19.5s8.7-19.5,19.5-19.5s19.5,8.7,19.5,19.5S583.7,196.8,572.9,196.8z
			 M572.9,158.8c-10.2,0-18.5,8.3-18.5,18.5s8.3,18.5,18.5,18.5s18.5-8.3,18.5-18.5S583.1,158.8,572.9,158.8z"/>
	</g>
	<g>
		<g>
			<path class="st1" d="M567.2,186.9v-1.1c2.2-0.9,3.3-2.5,3.3-4.8v-2.8h-3V177h3v-3.8c0-1.6,0.4-3,1.3-4c0.9-1,2-1.5,3.5-1.5
				c0.8,0,1.6,0.2,2.4,0.5v1.2c-0.8-0.4-1.6-0.6-2.4-0.6c-1.1,0-1.9,0.4-2.6,1.2c-0.6,0.8-0.9,1.9-0.9,3.4v3.6h4v1.2h-4v2.3
				c0,2.6-0.9,4.3-2.8,5.3h9.7v1.1H567.2z"/>
		</g>
	</g>
</g>
<g>
	<path class="st5" d="M729.9,249.1v-1.8c1.9-0.6,2.9-1.8,2.9-3.7v-2.2h-2.6v-1.8h2.6v-3c0-1.5,0.4-2.8,1.4-3.7c1-1,2.2-1.5,3.6-1.5
		c1,0,1.9,0.1,2.8,0.6v2.1c-0.8-0.6-1.8-0.7-2.6-0.7c-1.9,0-2.9,1.2-2.9,3.6v2.8h3.9v1.8h-4v1.8c0,1.9-0.8,3.2-2.3,4.1h8.9v1.8
		h-11.7L729.9,249.1L729.9,249.1z"/>
</g>
<g class="st4">
	<path d="M307,195.9c2,0.4,4.4,1.3,5.9,2l-0.7,1.4c-1.5-0.7-4-1.6-5.9-2L307,195.9z M308.3,206.6c7.2-2.4,12-6.2,15-12.8
		c0.3,0.3,1,0.7,1.3,1c-2.9,6.5-8.1,10.6-14.8,13c0,0.2-0.1,0.5-0.3,0.5L308.3,206.6z M309.4,190.4c2,0.5,4.4,1.4,5.9,2.2l-0.7,1.3
		c-1.6-0.8-3.9-1.7-5.8-2.2L309.4,190.4z"/>
	<path d="M341,191.8c0,0.1-0.2,0.2-0.3,0.2c-1.2,2.8-2.6,5.2-4.4,7.6c2.4,1.9,6,5.2,8.1,7.5l-1.3,1.2c-1.9-2.2-5.5-5.6-7.7-7.4
		c-1.9,2.4-5.3,5.6-8.5,7.4c-0.2-0.3-0.8-0.9-1.1-1.2c6.1-3.3,10.9-9.6,12.9-14.4h-10.8v-1.5h11.7l0.3-0.1L341,191.8z"/>
	<path d="M364.8,198.2h-7.4l0.4,0.1c0,0.1-0.2,0.2-0.4,0.3c-0.6,4.1-2.1,7.7-6.8,10.1c-0.3-0.3-0.8-0.8-1.2-1.1
		c4.6-2.2,5.9-5.3,6.4-9.3h-8.6v-1.5h17.7V198.2z M362.6,192h-13.5v-1.5h13.5V192z"/>
	<path d="M384.3,208.1c-0.3-0.7-0.7-1.5-1.2-2.3c-4.6,0.5-12.1,0.9-15.5,1.1c-0.1,0.2-0.2,0.4-0.4,0.4l-0.6-2c0.7,0,1.5,0,2.3-0.1
		c1.5-4.2,3.5-10.8,4.8-15.2l2.1,0.6c-0.1,0.2-0.3,0.3-0.6,0.3c-1.2,4-3.1,9.9-4.6,14.3c3.7-0.2,8.9-0.5,11.8-0.8
		c-1.1-1.9-2.6-3.9-3.9-5.4l1.3-0.7c2.3,2.5,5,6.7,6.1,9.1L384.3,208.1z"/>
	<path d="M392,197.7v7.2c1.7,2.6,4.9,2.6,9.1,2.6c2.4,0,5.2,0,7-0.2c-0.2,0.3-0.4,1-0.5,1.5c-1.5,0-3.9,0.1-6.1,0.1
		c-4.8,0-7.9,0-10.1-2.7c-1,1-2,2-2.9,2.7c0,0.2,0,0.3-0.2,0.4l-0.9-1.6c0.9-0.7,2.1-1.7,3.1-2.6v-6h-2.9v-1.4H392z M389,189.5
		c1.4,1,2.9,2.6,3.6,3.7l-1.2,0.9c-0.6-1.1-2.2-2.7-3.6-3.8L389,189.5z M399.6,207v-2.3H393v-1.2h6.5V202h-4.9v-6.3h4.9v-1.5h-5.7
		v-1.1h5.7v-1.7l1.9,0.1c0,0.2-0.2,0.3-0.4,0.3v1.3h5.7v1.1H401v1.5h4.9v6.3H401v1.5h6.6v1.2H401v2.3H399.6z M394.8,190.8v1.7h-1.3
		v-2.9h13.7v2.9h-1.4v-1.7H394.8z M396,196.7v1.6h3.5v-1.6H396z M396,200.9h3.5v-1.6H396V200.9z M404.6,196.7H401v1.6h3.6V196.7z
		 M404.6,200.9v-1.6H401v1.6H404.6z"/>
	<path d="M416.3,189.7c0,0.1-0.2,0.2-0.5,0.2c-1.3,1.6-3.6,3.7-5.5,5.1c-0.2-0.3-0.6-0.9-0.9-1.2c1.8-1.2,4-3.2,5.1-4.8L416.3,189.7
		z M412.9,209.4v-9.7c-0.8,0.9-1.7,1.8-2.5,2.5c-0.2-0.3-0.7-0.9-0.9-1.1c2.1-1.7,4.5-4.6,6-7.4l1.7,0.7c-0.1,0.1-0.2,0.2-0.5,0.2
		c-0.7,1.1-1.4,2.2-2.3,3.3l0.4,0.1c0,0.1-0.2,0.2-0.4,0.3v11.1H412.9z M429.9,196.7v1.4h-3.5v9.3c0,1.8-0.7,1.9-5.1,1.9
		c-0.1-0.4-0.3-1-0.5-1.5c1,0,1.9,0,2.6,0c1.4,0,1.6,0,1.6-0.5v-9.3h-7.7v-1.4H429.9z M429.1,190.3v1.4h-11v-1.4H429.1z"/>
	<path d="M449.4,201.9h-5.3v5.8c0,1.7-0.7,1.7-4.3,1.7c-0.1-0.4-0.3-0.9-0.5-1.3c0.8,0,1.5,0,2.1,0c1.1,0,1.2,0,1.2-0.4v-5.8h-5.2
		v-7.8h4.3c0.2-0.7,0.5-1.7,0.6-2.5H435v5c0,3.7-0.3,9-2.4,12.7c-0.3-0.3-0.9-0.6-1.3-0.8c2-3.5,2.2-8.4,2.2-11.9v-6.4h18v1.4h-7.5
		c-0.2,0.7-0.5,1.7-0.8,2.5h6.1V201.9z M440.6,203.6c-0.1,0.2-0.2,0.2-0.5,0.2c-1.1,1.7-2.9,3.4-4.4,4.6c-0.3-0.2-0.8-0.6-1.1-0.8
		c1.6-1,3.3-2.8,4.4-4.5L440.6,203.6z M438.9,195.2v2.1h9v-2.1H438.9z M438.9,198.5v2.2h9v-2.2H438.9z M450.7,208.3
		c-0.9-1.3-2.8-3.3-4.6-4.6l1.1-0.7c1.7,1.3,3.7,3.2,4.6,4.5L450.7,208.3z"/>
	<path d="M458,198.1v5.5l3-0.9c0,0.1,0,0.3,0.2,1.3c-2.6,0.8-5.3,1.7-7,2.2c0,0.2-0.2,0.3-0.3,0.3l-0.6-1.6c0.9-0.2,2-0.5,3.2-0.9
		v-5.9h-2.7v-1.4h2.7v-5h-2.9v-1.4h7.3v1.4H458v5h2.7v1.4H458z M468,207.3h6.2v1.4H460v-1.4h6.6v-3.4h-5.1v-1.3h5.1V200h-5v-9.8
		h11.6v9.8H468v2.6h5.5v1.3H468V207.3z M463,191.5v2.9h3.7v-2.9H463z M463,198.7h3.7v-3H463V198.7z M471.8,194.5v-2.9H468v2.9H471.8
		z M471.8,198.7v-3H468v3H471.8z"/>
</g>
<g class="st4">
	<path class="st5" d="M12.6,383.8c0,0.1-0.2,0.2-0.3,0.2c1.6,2.1,4.4,4.5,6.9,5.8c-0.3,0.3-0.5,0.6-0.7,0.9c-2.5-1.5-5.4-3.9-6.9-6
		c-1.3,2-4,4.4-6.7,6.1c-0.1-0.2-0.4-0.6-0.7-0.8c2.8-1.6,5.6-4.2,6.8-6.3L12.6,383.8z M12.1,394.4v2.8h6.5v1H4.8v-1H11v-2.8H6.1v-1
		H11v-2.7H6.8v-1h9.7v1h-4.4v2.7h5v1H12.1z"/>
	<path class="st5" d="M32.5,394.3h-1.1v-0.7h-3.2v0.8h-1.1V389h-3.2v7.5h10.6v1H23.9v1.2h-1.1V389h-2.5v-1h2.5v-3.7l1.4,0.1
		c0,0.1-0.1,0.2-0.3,0.2v3.4h3.2v-4l1.4,0.1c0,0.1-0.1,0.2-0.3,0.2v3.7h3.2v-3.8l1.4,0.1c0,0.1-0.1,0.2-0.3,0.2v3.5H35v1h-2.5V394.3
		z M28.1,392.5h3.2V389h-3.2V392.5z"/>
	<path class="st5" d="M49.2,391.1h-2.9c1.1,1.3,3,2.4,4.8,3c-0.3,0.2-0.6,0.6-0.7,0.9c-1.3-0.4-2.6-1.2-3.6-2.1c0,0-0.1,0.1-0.2,0.1
		v5.7h-1.1v-6l1.1,0.1c-0.6-0.5-1.1-1-1.5-1.6h-2.8c-0.4,0.5-0.9,1.1-1.5,1.6l1.2,0.1c0,0.1-0.1,0.2-0.3,0.2v0.7
		c0,1.6-0.4,3.7-3.5,5.1c-0.1-0.3-0.5-0.6-0.7-0.8c2.9-1.2,3.2-3,3.2-4.4v-0.8c-1.1,1-2.5,1.7-3.7,2.2c-0.2-0.3-0.5-0.6-0.7-0.9
		c1.8-0.6,3.7-1.7,4.8-3.1h-2.9v-6.7h11.1V391.1z M39.2,385.3v2h3.9v-2H39.2z M39.2,388.2v2h3.9v-2H39.2z M48.1,387.3v-2h-4v2H48.1z
		 M48.1,390.2v-2h-4v2H48.1z"/>
	<path class="st5" d="M60.4,385.6h-1.5v13.1h-1v-3.3c-1.9,0.3-3.8,0.7-5.1,0.9c0,0.1-0.1,0.2-0.2,0.2l-0.4-1.2
		c0.4,0,0.9-0.1,1.4-0.2v-9.4h-1.4v-1h8.2V385.6z M57.9,388v-2.3h-3.3v2.3H57.9z M57.9,391.3v-2.4h-3.3v2.4H57.9z M54.6,392.3v2.6
		c1-0.1,2.2-0.3,3.3-0.5v-2.2H54.6z M65.9,386.1l0.7,0.2c0,0.1-0.1,0.2-0.1,0.2c-0.4,3.2-1.3,5.9-2.6,7.9c0.9,1.4,2,2.6,3.3,3.3
		c-0.3,0.2-0.6,0.6-0.8,0.9c-1.3-0.8-2.4-1.9-3.2-3.2c-1,1.3-2.1,2.4-3.3,3.2c-0.2-0.3-0.5-0.7-0.7-0.9c1.3-0.7,2.4-1.9,3.4-3.4
		c-1-1.9-1.7-4.3-2.2-6.9l1-0.2c0.4,2.2,1,4.3,1.9,6c0.9-1.7,1.6-3.8,2-6.2h-5.4v-1.1h5.8L65.9,386.1z"/>
	<path class="st5" d="M74.8,391.6l0.2,0l0.6,0.1c0,0.1,0,0.2,0,0.3c-0.3,4-0.6,5.6-1.2,6.1c-0.4,0.4-0.9,0.5-2,0.5
		c-0.6,0-1.3,0-2.1-0.1c0-0.3-0.2-0.8-0.4-1.1c1.2,0.1,2.4,0.1,2.8,0.1c0.4,0,0.6,0,0.8-0.2c0.4-0.4,0.7-1.7,0.9-4.8h-4.3
		c-0.1,0.3-0.1,0.6-0.2,0.8l-1.1-0.2c0.3-1.3,0.7-3.4,0.9-5h4.7v-2.8h-5.6v-1h6.7v5.3h-1.1v-0.5h-3.8c-0.1,0.8-0.3,1.6-0.4,2.3H74.8
		z M80.2,384l1.4,0.1c0,0.1-0.1,0.2-0.3,0.2v14.4h-1.1V384z"/>
	<path class="st5" d="M84.9,386.2H95l0.1,0l1.1,0.8c0,0.1-0.1,0.1-0.2,0.1c-1.3,6-4.1,9.2-9,11c-0.2-0.3-0.5-0.7-0.7-0.9
		c4.7-1.7,7.3-4.7,8.4-9.9h-9.9V386.2z M97.1,383.3c1,0,1.7,0.8,1.7,1.8c0,1-0.8,1.7-1.7,1.7c-1,0-1.8-0.8-1.8-1.7
		C95.3,384.1,96.1,383.3,97.1,383.3z M98.3,385.1c0-0.7-0.5-1.2-1.2-1.2c-0.7,0-1.2,0.5-1.2,1.2c0,0.7,0.6,1.2,1.2,1.2
		C97.8,386.3,98.3,385.7,98.3,385.1z"/>
	<path class="st5" d="M112,389.5c0,0.1-0.1,0.1-0.2,0.2c-1.3,4.8-4,7.2-8.8,8.5c-0.1-0.3-0.4-0.7-0.7-0.9c4.4-1.1,7.1-3.3,8.1-7
		H99.8v-1.1h11.1l0.2-0.1L112,389.5z M110.5,386h-9.1V385h9.1V386z"/>
	<path class="st5" d="M115.6,388.6c0.5,1,1,2.5,1.2,3.4l-0.9,0.2c-0.2-0.9-0.7-2.4-1.2-3.4L115.6,388.6z M125.1,388.7
		c0,0.1-0.2,0.2-0.3,0.2c-1.2,4.7-3.6,7.5-7.5,9.1c-0.1-0.2-0.4-0.6-0.6-0.7c3.8-1.5,6-4.1,7.2-8.9L125.1,388.7z M119.5,387.8
		c0.3,1.1,0.6,2.6,0.8,3.6l-0.9,0.2c-0.1-1-0.4-2.5-0.8-3.6L119.5,387.8z"/>
	<path class="st5" d="M136.8,392.8c-1.6-0.9-3.9-1.9-5.6-2.6v8H130v-13.9l1.6,0.1c0,0.2-0.1,0.3-0.4,0.3v4.7l0.2-0.3
		c1.9,0.7,4.4,1.8,6,2.7L136.8,392.8z"/>
	<path class="st5" d="M152.5,386.3c0,0.1-0.1,0.1-0.2,0.2c-1.3,6.1-4.4,9.7-9.6,11.5c-0.2-0.3-0.5-0.7-0.7-0.9c5-1.6,8-5.2,9-10
		h-10.5V386h10.9l0.2-0.1L152.5,386.3z"/>
	<path class="st5" d="M165.2,390.9h-3.8l0.1,5.9c0,1.4-1.2,1.4-3,1.4c0-0.2-0.1-0.6-0.2-0.9c0.8,0,1.5,0,1.8,0
		c0.3,0,0.5-0.3,0.5-0.5l0-5.1c-1.2,1.8-3.4,3.6-5.4,4.7c-0.2-0.2-0.4-0.5-0.6-0.7c2-1,4.3-3,5.5-4.8h-5v-0.9h5.5l0-2.8l1.3,0.1
		c0,0.1-0.1,0.2-0.3,0.2l0,2.5h3.8V390.9z"/>
	<path class="st5" d="M167.6,390.4h13.4v1.1h-12.8c-0.1,0.2-0.3,0.3-0.5,0.3L167.6,390.4z"/>
	<path class="st5" d="M195.8,397.8c-0.2-0.5-0.5-1.1-0.8-1.7c-3.3,0.4-8.8,0.7-11.3,0.8c0,0.2-0.2,0.3-0.3,0.3l-0.4-1.4
		c0.5,0,1.1,0,1.7-0.1c1.1-3.1,2.6-7.9,3.5-11.1l1.6,0.4c-0.1,0.1-0.2,0.2-0.5,0.2c-0.9,2.9-2.3,7.2-3.4,10.4
		c2.7-0.1,6.5-0.4,8.6-0.6c-0.8-1.4-1.9-2.8-2.8-3.9l1-0.5c1.7,1.8,3.6,4.9,4.4,6.6L195.8,397.8z"/>
</g>
<g class="st4">
	<path class="st5" d="M47.9,150.6c0.1,0.1,0.1,0.1,0.1,0.2c0,0-0.1,0-0.2,0h-2.5v2.6l1.9-1.1l0.1,0.2l-2,1.5v5.7
		c0,1.1-0.1,1.2-1.1,1.7c0,0-0.1,0-0.1,0c0,0-0.1,0-0.1-0.1c-0.1-0.5-0.4-0.8-1.7-1.1l0.1-0.3c0.9,0.2,1.5,0.3,1.8,0.3
		c0.4,0,0.4-0.1,0.4-0.4v-5.2c-1.6,1.2-1.8,1.3-1.9,1.6c0,0.1-0.1,0.1-0.1,0.1c0,0-0.1,0-0.1-0.1l-0.7-0.7l2.8-1.6v-3h-1.1
		c-0.3,0-0.8,0.1-1.1,0.2l-0.4-0.6c0.4,0,0.8,0.1,1.2,0.1h1.5V149c0-0.7,0-1.7-0.1-2.3l1.3,0.6c0.1,0,0.1,0.1,0.1,0.1s0,0.1-0.1,0.1
		l-0.5,0.3v2.6h1l0.6-0.8L47.9,150.6z M56.8,160.6c-0.8,0-1.3,0.2-1.6,0.5c0,0,0,0-0.1,0c0,0-2.1-0.9-3.6-2.4
		c-1.4,1.3-3.5,2.2-5.7,2.8l-0.1-0.3c2.1-0.8,4-1.7,5.3-3.1c-1-1.2-1.7-2.8-2-4.2c-0.1,0-0.3,0.1-0.4,0.1l-0.4-0.6
		c0.4,0,0.8,0.1,1.2,0.1h3.9l0.4-0.6l1.1,0.7c0.1,0.1,0.2,0.1,0.2,0.2c0,0-0.1,0.1-0.2,0.1c-0.4,0.1-0.6,0.3-0.8,0.8
		c-0.5,1.4-1.2,2.6-2,3.5c1.3,1.1,3.3,1.8,4.8,2V160.6z M53.7,151.3c0,0.6,0.1,0.8,0.8,0.8c0.5,0,0.8-0.1,1.2-0.3
		c0.3,0.2,0.8,0.6,0.8,0.7c0,0.2-1.4,0.2-1.9,0.2c-1.3,0-1.6-0.3-1.6-1.2v-3.1h-2.9c-0.3,3.5-0.5,4.2-2.8,5.7l-0.1-0.1
		c1.8-1.6,2.1-2.3,2.1-5.3c0-0.4,0-0.9,0-1.4l1,0.8h2.4l0.5-0.7l1.1,0.8c0.1,0,0.1,0.1,0.1,0.1c0,0,0,0-0.1,0.1l-0.6,0.4V151.3z
		 M49.3,154c0.4,1.4,1.2,2.8,2.1,3.9c0.9-1.1,1.6-2.5,1.9-3.9H49.3z"/>
	<path class="st5" d="M62.7,148.1l-2,2.9c-0.4,0.5-0.5,0.8-0.5,1.2c0,0.2,0.2,0.9,0.2,1.1c0,0.4-0.2,0.5-0.5,0.5
		c-0.3,0-0.4-0.1-0.4-0.5c0-0.1,0.1-0.7,0.1-0.9c0-0.4-0.2-0.6-0.6-0.7c-0.5-0.2-0.8-0.2-1.2-0.3l0-0.2c0.4,0,0.8,0.1,1.1,0.1
		c0.6,0,0.8-0.1,1.2-0.6l2.4-2.8L62.7,148.1z M64.3,160C64.3,160,64.3,160.1,64.3,160C64.3,160.1,64.3,160.1,64.3,160
		c-0.2,0.1-0.8,0.2-1.2,0.4c-1.1,0.5-3.5,1.2-4.7,1.4l-0.1-0.2c1.9-0.6,3.8-1.5,5-2.3L64.3,160z M58.6,147.5c1,0.1,1.9,0.5,2.1,0.9
		c0.1,0.1,0.1,0.3,0.1,0.4c0,0.4-0.3,0.7-0.4,0.7c-0.1,0-0.2,0-0.3-0.4c-0.1-0.4-0.5-0.9-1.5-1.4L58.6,147.5z M70.4,153.8
		c0.1,0,0.1,0.1,0.1,0.1c0,0,0,0.1-0.1,0.1l-0.5,0.3v2.8c0,1,0,1.6,0.1,1.9v0.1c0,0.2-0.1,0.2-0.4,0.4c-0.1,0.1-0.2,0.1-0.3,0.1
		c-0.1,0-0.1,0-0.1-0.6h-8v0.3c0,0.1,0,0.2-0.4,0.4c-0.1,0-0.2,0.1-0.3,0.1c-0.1,0-0.1-0.1-0.1-0.2v-0.1c0-0.6,0-1.2,0-1.8v-2.4
		c0-0.6,0-1.4,0-1.9l0.9,0.5h7.5l0.5-0.6L70.4,153.8z M69.3,155.4v-1.2h-8v1.2H69.3z M69.3,157.1v-1.3h-8v1.3H69.3z M69.3,158.7
		v-1.3h-8v1.3H69.3z M72.8,152.8c-0.8,0.1-1.2,0.3-1.4,0.7c0,0,0,0-0.1,0c0,0,0,0-0.1,0c-2.1-0.7-3.4-1.6-4.4-3.2
		c-1.2,1.9-2.4,2.8-5.1,3.2l-0.1-0.2c2.8-0.8,4.1-1.9,4.8-4l1,0.4c0,0,0.1,0,0.1,0.1c0,0-0.4,0.2-0.4,0.3c1.4,2,3.6,2.6,5.8,2.6
		V152.8z M71.8,149.1C71.8,149.2,71.9,149.2,71.8,149.1c0.1,0.1,0,0.1,0,0.1c-0.7,0.1-1.3,0.4-2.5,1.6l-0.2-0.1l1.1-1.5h-5.9
		c-0.6,0.8-1.2,1.5-2,2.3l-0.1-0.1c1.2-1.6,2-2.9,2.7-4.7l1.2,0.6c0,0,0.1,0,0.1,0c0,0,0,0-0.1,0.1c-0.3,0.1-0.6,0.2-0.7,0.4
		c-0.2,0.4-0.4,0.8-0.7,1.1h5.6l0.5-0.6L71.8,149.1z M66.4,159.6c3.3,0.3,5.2,0.6,5.2,1.6c0,0.2-0.1,0.4-0.3,0.4
		c-0.2,0-0.4-0.1-1-0.5c-0.5-0.3-2-0.9-4-1.3L66.4,159.6z"/>
	<path class="st5" d="M88.6,152.3c0.1,0.1,0.1,0.1,0.1,0.2c0,0-0.1,0.1-0.2,0.1h-6.4c-1,0.8-2,1.6-3,2.4h5.2l0.5-0.7l1,0.8
		c0.1,0,0.1,0.1,0.1,0.1c0,0,0,0.1-0.1,0.1l-0.4,0.3v3.8c0,0.3,0.1,1.8,0.1,1.8c0,0.2-0.1,0.3-0.4,0.4c-0.2,0.1-0.3,0.1-0.3,0.1
		c-0.1,0-0.1-0.1-0.1-0.2v-1.1h-6.2v0.9c0,0.2,0,0.3-0.3,0.4c-0.1,0.1-0.3,0.1-0.3,0.1c-0.1,0-0.1-0.1-0.1-0.4c0-0.3,0-2,0-2.1v-3.4
		c-1.3,0.8-2.6,1.6-3.8,2.2l-0.1-0.2c1.5-0.9,2.8-1.8,4-2.6l0-1l0.7,0.5c1.1-0.8,2-1.5,2.8-2.2h-6.1c-0.3,0-0.8,0.1-1.1,0.2
		l-0.4-0.6c0.4,0,0.8,0.1,1.2,0.1h5.2v-2.6h-2.9c-0.3,0-0.8,0.1-1,0.2l-0.4-0.6c0.4,0,0.8,0.1,1.1,0.1h3.2v-1c0-0.6,0-1,0-1.6
		l1.1,0.4c0.1,0,0.1,0.1,0.1,0.1c0,0,0,0.1-0.1,0.1l-0.4,0.3v1.6h1.5l0.6-0.8l0.9,1c0,0,0.1,0.1,0.1,0.1c0,0,0,0.1-0.1,0.1h-2.9v2.6
		h0.9c1.8-1.6,3.2-3,4.2-4.4l0.9,0.7c0.1,0,0.1,0.1,0.1,0.1s0,0-0.1,0.1c-0.5,0.1-0.5,0.2-0.7,0.4c-1.1,1.1-2.3,2.2-3.5,3.2h4.3
		l0.7-1L88.6,152.3z M84.6,157.3v-2.1h-6c-0.1,0.1-0.1,0.1-0.2,0.2v2H84.6z M84.6,159.9v-2.3h-6.2v2.3H84.6z"/>
</g>
<g class="st4">
	<path class="st5" d="M157.8,67.5c0.1,0.1,0.2,0.1,0.2,0.1c0,0,0,0.1-0.1,0.2l-0.5,0.4v11.5c0,0.8-0.2,1-1.2,1.5c-0.1,0-0.1,0-0.2,0
		c0,0-0.1,0-0.1-0.1c-0.1-0.7-0.4-0.9-2-1.4l0-0.2c1,0.2,1.6,0.2,2,0.2c0.6,0,0.7-0.2,0.7-0.6v-4.1h-6.1c-0.2,2.7-1,4.4-4,6.4
		l-0.1-0.2c3-2.7,3.5-4,3.5-9.2v-3.2c0-1,0-1.6,0-2.1l1,0.8h5.5l0.5-0.8L157.8,67.5z M156.6,74.7v-3.2h-6l0,1c0,0.9,0,1.6-0.1,2.2
		H156.6z M156.6,71.2v-3.3h-5.9l-0.1,3.3H156.6z"/>
	<path class="st5" d="M169.9,67.6c0.1,0.1,0.1,0.1,0.1,0.1c0,0,0,0.1-0.1,0.1h-2.5v2.3h0.9l0.4-0.7l1,0.7c0,0,0.1,0.1,0.1,0.1
		c0,0,0,0.1-0.1,0.1l-0.4,0.3v6.7c0,1.2,0,1.9,0.1,2.5c0,0.1,0,0.1,0,0.1c0,0.2-0.1,0.3-0.4,0.4c-0.2,0.1-0.3,0.1-0.3,0.1
		c-0.1,0-0.1-0.1-0.1-0.2v-1.2h-4.6v1.3c0,0.3-0.5,0.4-0.6,0.4c-0.1,0-0.1-0.1-0.1-0.3v-0.1c0-0.8,0-1.7,0-2.5v-6.5
		c0-0.6,0-1.6-0.1-2.1l1.1,0.8h0.9c0-0.7,0-1.4,0-2.3h-1.5c-0.3,0-0.8,0.1-1.1,0.2l-0.4-0.6c0.4,0,0.8,0.1,1.2,0.1h5.1l0.5-0.8
		L169.9,67.6z M168.5,76.3v-1.6c-0.3,0-0.6,0-0.8,0c-0.9,0-1-0.3-1-1v-3.3h-1c-0.1,2.9-0.5,3.9-1.5,5l-0.1-0.1
		c0.7-1.2,1-2.4,1.1-4.9h-1.2v5.8H168.5z M168.5,78.9v-2.2h-4.6v2.2H168.5z M166.7,70.1v-2.3h-1c0,0.9,0,1.6-0.1,2.3H166.7z
		 M167.4,73.7c0,0.3,0.1,0.5,0.5,0.5c0.2,0,0.4,0,0.6-0.1v-3.6h-1.1V73.7z M176.1,77.1c0,1.8,0.2,2.2,0.5,2.3c0.1,0,0.1,0.1,0.1,0.1
		c0,0,0,0.1,0,0.1c-0.3,0.8-0.6,1-1.6,1c-0.9,0-1.8,0-2.7,0c-1.5,0-1.6-0.2-1.6-1.6v-5.3c0-0.5,0-1.4,0-1.9l0.9,0.7h3.3v-4.4h-3
		c-0.3,0-0.8,0.1-1.1,0.2l-0.4-0.6c0.4,0,0.8,0.1,1.2,0.1h3.2l0.4-0.7l1,0.7c0.1,0,0.1,0.1,0.1,0.1c0,0,0,0.1-0.1,0.1l-0.5,0.3v3.1
		c0,0.6,0,1.2,0.1,1.5c0,0.1,0,0.1,0,0.2c0,0.2-0.1,0.3-0.4,0.4c-0.2,0.1-0.3,0.1-0.3,0.1c-0.1,0-0.1-0.1-0.1-0.2v-0.6h-3.5v6.2
		c0,0.8,0.1,0.9,0.9,0.9c0.4,0,0.8,0,1.2,0c0.4,0,0.9,0,1.3,0c0.7,0,0.9-0.4,0.9-2.9H176.1z"/>
	<path class="st5" d="M191.4,72.9c0.1,0,0.1,0.1,0.1,0.1c0,0,0,0.1-0.1,0.1l-0.6,0.4v4.3c0,1.1,0,2.2,0.1,2.9v0.1
		c0,0.2-0.1,0.3-0.4,0.4c-0.2,0.1-0.3,0.1-0.3,0.1c-0.1,0-0.1-0.1-0.1-0.2v-0.9h-9.4c-0.3,0-0.8,0.1-1.1,0.2l-0.4-0.6
		c0.4,0,0.8,0.1,1.2,0.1h9.8v-3.4H182c-0.3,0-0.8,0.1-1.1,0.2l-0.4-0.6c0.4,0,0.8,0.1,1.2,0.1h8.4v-3h-9.4c-0.3,0-0.8,0.1-1.1,0.2
		l-0.4-0.6c0.4,0,0.8,0.1,1.2,0.1h4.7v-4.1c0-0.7,0-1.7-0.1-2.3l1.3,0.7c0.1,0,0.1,0.1,0.1,0.1c0,0,0,0.1-0.1,0.1l-0.6,0.4v5.1h4
		l0.5-0.7L191.4,72.9z M180,68c1.8,0.9,3.3,2.2,3.3,2.9c0,0.4-0.2,0.8-0.5,0.8c-0.2,0-0.3-0.1-0.4-0.6c-0.3-0.8-0.9-1.9-2.5-3
		L180,68z M190.8,68.6C190.9,68.6,190.9,68.7,190.8,68.6c0.1,0.1,0,0.1,0,0.2c-0.3,0-0.6,0.2-0.8,0.4l-2.8,3.3l-0.2-0.1
		c0.8-1.2,2-3,2.8-4.6L190.8,68.6z"/>
	<path class="st5" d="M202.1,67.2c0.1,0,0.1,0.1,0.1,0.1c0,0-0.1,0.1-0.1,0.1c-0.2,0-0.3,0-0.4,0.1c1.8,2.5,4.2,3.8,7.3,4.2l0,0.2
		c-0.8,0-1.3,0.3-1.5,0.7c0,0,0,0.1-0.1,0.1c0,0-0.1,0-0.1,0c-2.9-1.3-4.7-2.7-5.8-4.9c0,0-0.1,0.1-0.1,0.2
		c-1.9,2.4-4.4,4.8-7.4,6.1l-0.1-0.2c2.8-1.8,5.7-4.5,7.2-7.2L202.1,67.2z M208.1,80.3c0.1,0.1,0.1,0.1,0.1,0.2s-0.1,0.1-0.2,0.1
		h-12.3c-0.3,0-0.8,0.1-1.1,0.2l-0.4-0.6c0.4,0,0.8,0.1,1.2,0.1h5.6v-4.6h-4c-0.3,0-0.8,0.1-1.1,0.2l-0.4-0.6c0.4,0,0.8,0.1,1.2,0.1
		h4.4v-2.4h-2.4c-0.3,0-0.8,0.1-1.1,0.2l-0.4-0.6c0.4,0,0.8,0.1,1.2,0.1h5.6l0.6-0.8l1,0.9c0.1,0.1,0.1,0.1,0.1,0.1
		c0,0-0.1,0.1-0.2,0.1h-3.6v2.4h3.6l0.6-0.9l1.1,1c0.1,0.1,0.1,0.1,0.1,0.2c0,0.1-0.1,0.1-0.2,0.1h-5.2v4.6h1.2
		c0.7-1.3,1.4-2.5,2-3.6l1,0.7c0.1,0,0.1,0.1,0.1,0.1s0,0-0.1,0.1c-0.3,0-0.5,0.1-0.7,0.4c-0.3,0.4-1.2,1.5-2,2.4h3.2l0.7-0.8
		L208.1,80.3z M197.1,76.6c1.2,0.7,2,1.4,2.1,2c0,0.1,0,0.2,0,0.4c0,0.5-0.2,0.7-0.4,0.7c-0.2,0-0.4-0.1-0.4-0.4
		c-0.2-1-0.6-1.7-1.4-2.4L197.1,76.6z"/>
</g>
<g class="st4">
	<path class="st5" d="M558.5,299.3l-2,2.9c-0.4,0.5-0.5,0.8-0.5,1.2c0,0.2,0.2,0.9,0.2,1.1c0,0.4-0.2,0.5-0.5,0.5
		c-0.3,0-0.4-0.1-0.4-0.5c0-0.1,0.1-0.7,0.1-0.9c0-0.4-0.2-0.6-0.6-0.7c-0.5-0.2-0.8-0.2-1.2-0.3l0-0.2c0.4,0,0.8,0.1,1.1,0.1
		c0.6,0,0.8-0.1,1.2-0.6l2.4-2.8L558.5,299.3z M560,311.2C560,311.2,560.1,311.3,560,311.2C560.1,311.3,560,311.3,560,311.2
		c-0.2,0.1-0.8,0.2-1.2,0.4c-1.1,0.5-3.5,1.2-4.7,1.4l-0.1-0.2c1.9-0.6,3.8-1.5,5-2.3L560,311.2z M554.4,298.7
		c1,0.1,1.9,0.5,2.1,0.9c0.1,0.1,0.1,0.3,0.1,0.4c0,0.4-0.3,0.7-0.4,0.7c-0.1,0-0.2,0-0.3-0.4c-0.1-0.4-0.5-0.9-1.5-1.4L554.4,298.7
		z M566.2,305c0.1,0,0.1,0.1,0.1,0.1c0,0,0,0.1-0.1,0.1l-0.5,0.3v2.8c0,1,0,1.6,0.1,1.9v0.1c0,0.2-0.1,0.2-0.4,0.4
		c-0.1,0.1-0.2,0.1-0.3,0.1c-0.1,0-0.1,0-0.1-0.6h-8v0.3c0,0.1,0,0.2-0.4,0.4c-0.1,0-0.2,0.1-0.3,0.1c-0.1,0-0.1-0.1-0.1-0.2v-0.1
		c0-0.6,0-1.2,0-1.8v-2.4c0-0.6,0-1.4,0-1.9l0.9,0.5h7.5l0.5-0.6L566.2,305z M565,306.6v-1.2h-8v1.2H565z M565,308.3v-1.3h-8v1.3
		H565z M565,309.9v-1.3h-8v1.3H565z M568.5,304c-0.8,0.1-1.2,0.3-1.4,0.7c0,0,0,0-0.1,0c0,0,0,0-0.1,0c-2.1-0.7-3.4-1.6-4.4-3.2
		c-1.2,1.9-2.4,2.8-5.1,3.2l-0.1-0.2c2.8-0.8,4.1-1.9,4.8-4l1,0.4c0,0,0.1,0,0.1,0.1c0,0-0.4,0.2-0.4,0.3c1.4,2,3.6,2.6,5.8,2.6V304
		z M567.5,300.3C567.6,300.4,567.6,300.4,567.5,300.3c0.1,0.1,0,0.1,0,0.1c-0.7,0.1-1.3,0.4-2.5,1.6l-0.2-0.1l1.1-1.5H560
		c-0.6,0.8-1.2,1.5-2,2.3l-0.1-0.1c1.2-1.6,2-2.9,2.7-4.7l1.2,0.6c0,0,0.1,0,0.1,0c0,0,0,0-0.1,0.1c-0.3,0.1-0.6,0.2-0.7,0.4
		c-0.2,0.4-0.4,0.8-0.7,1.1h5.6l0.5-0.6L567.5,300.3z M562.1,310.8c3.3,0.3,5.2,0.6,5.2,1.6c0,0.2-0.1,0.4-0.3,0.4
		c-0.2,0-0.4-0.1-1-0.5c-0.5-0.3-2-0.9-4-1.3L562.1,310.8z"/>
	<path class="st5" d="M577.6,298.7c0.1,0,0.1,0.1,0.1,0.1c0,0-0.1,0.1-0.1,0.1c-0.2,0-0.3,0-0.4,0.1c1.8,2.5,4.2,3.8,7.3,4.2l0,0.2
		c-0.8,0-1.3,0.3-1.5,0.7c0,0,0,0.1-0.1,0.1s-0.1,0-0.1,0c-2.9-1.3-4.7-2.7-5.8-4.9c0,0-0.1,0.1-0.1,0.2c-1.9,2.4-4.4,4.8-7.4,6.1
		l-0.1-0.2c2.8-1.8,5.7-4.5,7.2-7.2L577.6,298.7z M583.6,311.8c0.1,0.1,0.1,0.1,0.1,0.2s-0.1,0.1-0.2,0.1h-12.3
		c-0.3,0-0.8,0.1-1.1,0.2l-0.4-0.6c0.4,0,0.8,0.1,1.2,0.1h5.6v-4.6h-4c-0.3,0-0.8,0.1-1.1,0.2l-0.4-0.6c0.4,0,0.8,0.1,1.2,0.1h4.4
		v-2.4H574c-0.3,0-0.8,0.1-1.1,0.2l-0.4-0.6c0.4,0,0.8,0.1,1.2,0.1h5.6l0.6-0.8l1,0.9c0.1,0.1,0.1,0.1,0.1,0.1c0,0-0.1,0.1-0.2,0.1
		h-3.6v2.4h3.6l0.6-0.9l1.1,1c0.1,0.1,0.1,0.1,0.1,0.2c0,0.1-0.1,0.1-0.2,0.1h-5.2v4.6h1.2c0.7-1.3,1.4-2.5,2-3.6l1,0.7
		c0.1,0,0.1,0.1,0.1,0.1s0,0-0.1,0.1c-0.3,0-0.5,0.1-0.7,0.4c-0.3,0.4-1.2,1.5-2,2.4h3.2l0.7-0.8L583.6,311.8z M572.6,308.1
		c1.2,0.7,2,1.4,2.1,2c0,0.1,0,0.2,0,0.4c0,0.5-0.2,0.7-0.4,0.7c-0.2,0-0.4-0.1-0.4-0.4c-0.2-1-0.6-1.7-1.4-2.4L572.6,308.1z"/>
</g>
<g class="st4">
	<path class="st5" d="M703.6,273c0.1,0.1,0.2,0.2,0.2,0.3c0,0.1-0.1,0.1-0.2,0.1h-13.1c-0.3,0-0.8,0.1-1.1,0.2l-0.4-0.6
		c0.4,0,0.8,0.1,1.2,0.1h12l0.7-0.9L703.6,273z M702.5,275.8c0.1,0.1,0.1,0.1,0.1,0.2c0,0,0,0.1-0.1,0.2l-0.5,0.3v7.7
		c0,0.9-0.2,1.2-1,1.6c-0.1,0-0.1,0-0.2,0c-0.1,0-0.1,0-0.1-0.1c-0.1-0.5-0.4-0.8-1.9-1.1l0-0.3c0.9,0.1,1.5,0.2,1.8,0.2
		c0.5,0,0.5-0.2,0.5-0.5v-7.8h-9.6v6.3c0,1.6,0,2.2,0.1,2.8v0.1c0,0.2,0,0.3-0.4,0.4c-0.1,0.1-0.3,0.1-0.3,0.1
		c-0.1,0-0.2-0.1-0.2-0.3v-0.1c0-0.8,0-2.1,0-3v-5.3c0-0.6,0-1.6-0.1-2.1l1,0.8h5.7c0.6-1,0.9-1.7,1.2-2.4l0.9,0.5
		c0.1,0.1,0.2,0.1,0.2,0.2c0,0.1-0.1,0.1-0.2,0.1c-0.2,0-0.3,0.1-0.4,0.3l-1.2,1.3h3.1l0.5-0.7L702.5,275.8z M695.7,277.3
		c0.1,0.1,0.2,0.1,0.2,0.2s-0.1,0.1-0.2,0.1c-0.3,0-0.5,0.1-0.6,0.3c-0.8,0.7-1.6,1.5-2.9,2.4l-0.1-0.2c1-0.7,2.1-2,2.9-3.4
		L695.7,277.3z M693.2,273.7c1.5,0.4,2,0.8,2,1.4c0,0.4-0.3,0.7-0.5,0.7c-0.2,0-0.3-0.1-0.4-0.4c-0.2-0.6-0.5-1-1.2-1.5L693.2,273.7
		z M699.2,279.8c0.1,0,0.1,0.1,0.1,0.1c0,0,0,0.1-0.1,0.1l-0.4,0.3v1.4c0,0.5,0,0.9,0.1,1.6v0.1c0,0.2,0,0.3-0.4,0.4
		c-0.1,0-0.2,0.1-0.3,0.1c-0.1,0-0.1-0.1-0.1-0.2v-0.5h-3.4v0.5c0,0.2,0,0.3-0.3,0.4c-0.1,0-0.3,0.1-0.3,0.1c-0.1,0-0.1-0.1-0.1-0.3
		c0-0.3,0-1.8,0-2v-1.2c0-0.4,0-1,0-1.5l0.9,0.6h2.9l0.4-0.6L699.2,279.8z M698.2,282.8v-2.7h-3.4v2.7H698.2z M695.3,270.9
		c1.3,0.4,1.9,0.8,1.9,1.4c0,0.4-0.3,0.7-0.5,0.7c-0.2,0-0.3-0.1-0.3-0.4c-0.1-0.4-0.4-1-1.1-1.6L695.3,270.9z M697.5,277
		c1.8,0.6,2.9,1.1,2.9,2c0,0.4-0.2,0.6-0.4,0.6c-0.1,0-0.2-0.1-0.4-0.4c-0.1-0.2-1-1.3-2.3-2L697.5,277z"/>
	<path class="st5" d="M719.7,284.4c-1,0.1-1.3,0.4-1.5,0.7c0,0.1-0.1,0.1-0.1,0.1c0,0-0.1,0-0.1,0c-2.1-0.8-3.8-1.7-4.9-3.6h-0.4
		v0.9c0,1.2,0,2,0.1,2.7v0.1c0,0.2,0,0.3-0.4,0.4c-0.1,0.1-0.3,0.1-0.3,0.1c-0.1,0-0.2-0.1-0.2-0.3v-0.2c0-0.9,0.1-1.9,0.1-2.9v-0.8
		h-0.2c-1.8,1.8-4.3,3.4-6.8,4.1l-0.1-0.3c2.2-0.8,4.5-2.3,5.8-3.8h-4c-0.3,0-0.8,0.1-1.1,0.2l-0.4-0.6c0.4,0,0.8,0.1,1.2,0.1h5.7
		v-1.5h-3.8c-0.3,0-0.8,0.1-1.1,0.2l-0.4-0.6c0.4,0,0.8,0.1,1.2,0.1h4.1v-1.6h-4.7c-0.3,0-0.8,0.1-1.1,0.2l-0.4-0.6
		c0.4,0,0.8,0.1,1.2,0.1h6.1c0.7-1.1,1.2-2,1.5-2.4l1,0.7c0.1,0,0.1,0.1,0.1,0.1c0,0,0,0-0.1,0.1c-0.5,0-0.7,0.1-2,1.6h3.4l0.7-0.8
		l0.9,0.9c0.1,0.1,0.1,0.2,0.1,0.2s-0.1,0.1-0.2,0.1h-5.5v1.6h3.6l0.7-0.8l0.8,0.8c0.1,0.1,0.1,0.2,0.1,0.2c0,0.1-0.1,0.1-0.2,0.1
		h-4.9v1.5h4.9l0.7-0.9l0.9,0.9c0.1,0.1,0.1,0.2,0.1,0.2c0,0.1-0.1,0.1-0.2,0.1h-5.7c1.3,1.6,3.7,2.5,5.8,2.5c0.2,0,0.3,0,0.5,0
		V284.4z M719.4,274.7c0.1,0.1,0.1,0.2,0.1,0.2c0,0.1-0.1,0.1-0.2,0.1h-12.7c-0.3,0-0.8,0.1-1.1,0.2l-0.4-0.6c0.4,0,0.8,0.1,1.2,0.1
		h4.3v-2c0-0.7,0-1.2,0-1.8l1.2,0.5c0.1,0,0.1,0.1,0.1,0.1c0,0,0,0.1-0.1,0.1l-0.4,0.2v2.9h2.1v-2c0-0.7,0-1.2,0-1.8l1.3,0.6
		c0.1,0,0.1,0.1,0.1,0.1c0,0,0,0.1-0.1,0.1l-0.5,0.2v2.8h3.7l0.8-0.9L719.4,274.7z M707.1,271.7c1.6,0.7,2.3,1.4,2.3,1.9
		c0,0.6-0.4,0.8-0.6,0.8c-0.2,0-0.3-0.1-0.4-0.6c-0.1-0.4-0.7-1.4-1.5-1.9L707.1,271.7z M709.1,275.1c1,0.4,1.9,0.8,1.9,1.5
		c0,0.3-0.3,0.7-0.5,0.7c-0.2,0-0.3-0.2-0.4-0.5c-0.1-0.5-0.6-1.2-1.1-1.6L709.1,275.1z M717.6,272.3
		C717.6,272.4,717.6,272.4,717.6,272.3c0.1,0.1,0,0.1,0,0.1c-0.5,0-0.9,0.3-2.8,2l-0.2-0.2c0.6-0.7,1.8-2.2,2-2.6L717.6,272.3z"/>
	<path class="st5" d="M734.4,271.9c0,0,0.1,0.1,0.1,0.1c0,0,0,0.1-0.1,0.1l-0.5,0.4v11.6c0,0.6-0.2,0.9-1,1.4c0,0-0.1,0-0.1,0
		c-0.1,0-0.1,0-0.1-0.2c-0.1-0.5-0.4-0.7-1.9-1l0-0.3c0.7,0.1,1.2,0.2,1.6,0.2c0.6,0,0.8-0.2,0.8-0.8v-3.9h-4.3v1.7
		c0,1.5,0,2.4,0,3.1v0.1c0,0.2,0,0.3-0.4,0.4c-0.1,0.1-0.3,0.1-0.3,0.1c-0.1,0-0.1-0.1-0.1-0.4v-0.1c0-1,0-2.1,0-3.2v-1.6h-4.1
		c0,2.8-1.2,4.8-2.9,6.2l-0.2-0.2c2-2.4,2.4-3.7,2.4-8.5V273c0-0.6,0-1.3,0-1.9l1,0.8h8.6l0.5-0.7L734.4,271.9z M728.2,279.3V276h-4
		c0,1,0,2,0,3.3H728.2z M728.2,275.6v-3.4h-4v3.4H728.2z M733.2,275.6v-3.4h-4.3v3.4H733.2z M733.2,279.3V276h-4.3v3.3H733.2z"/>
	<path class="st5" d="M751.5,272.7c0.1,0.1,0.1,0.2,0.1,0.2s-0.1,0.1-0.2,0.1h-5.9c-0.3,0.7-0.8,1.6-1.2,2.3l0.9,0.4
		c0.1,0,0.1,0.1,0.1,0.1c0,0,0,0.1-0.1,0.1l-0.4,0.3v5.9c0,1.2,0,2.2,0.1,2.9v0.1c0,0.2-0.1,0.3-0.4,0.4c-0.2,0.1-0.3,0.1-0.4,0.1
		c-0.1,0-0.1-0.1-0.1-0.3v-0.2c0-0.7,0.1-2,0.1-3v-6.7c-2.1,3.3-4.5,5.8-7.2,7.5l-0.1-0.2c3.2-2.5,6.2-6.1,7.8-10h-6
		c-0.3,0-0.8,0.1-1.1,0.2l-0.4-0.6c0.4,0,0.8,0.1,1.2,0.1h11.5l0.7-1L751.5,272.7z M746.1,277c3.3,1.8,4.3,2.6,4.8,3.3
		c0.1,0.1,0.2,0.4,0.2,0.7c0,0.4-0.2,0.9-0.4,0.9c-0.2,0-0.4-0.2-0.5-0.6c-0.3-0.8-1.9-2.5-4-4L746.1,277z"/>
	<path class="st5" d="M762,274c0.1,0.1,0.2,0.2,0.2,0.2c0,0.1-0.1,0.1-0.2,0.1h-4v1.4h1.9l0.4-0.6l0.9,0.6c0.1,0.1,0.1,0.1,0.1,0.2
		c0,0,0,0.1-0.1,0.1l-0.4,0.3v1.8c0,0.6,0,1.2,0.1,1.5c0,0,0,0.1,0,0.1c0,0.3-0.7,0.5-0.7,0.5c-0.1,0-0.1,0-0.1-0.5H758v1.7h1.7
		l0.8-0.8l0.8,0.8c0.1,0.1,0.2,0.2,0.2,0.2c0,0.1-0.1,0.1-0.2,0.1H758v1.5l3.2-0.5l0,0.2l-5.5,1.1c-1.1,0.2-1.4,0.3-1.9,0.6
		c0,0-0.1,0-0.1,0c0,0-0.1,0-0.1-0.1l-0.4-0.7l4-0.6v-1.6h-2.1c-0.3,0-0.8,0.1-1.1,0.2l-0.4-0.6c0.4,0,0.8,0.1,1.1,0.1h2.5v-1.7
		h-2.2v0.4c0,0.2-0.1,0.3-0.3,0.4c-0.1,0.1-0.2,0.1-0.3,0.1c-0.1,0-0.1-0.1-0.1-0.2c0-0.1,0-0.2,0-0.3c0-0.3,0-0.9,0-1.7v-1.9
		c0-0.4,0-1.1,0-1.6l0.9,0.7h2v-1.4h-3.2c-0.3,0-0.8,0.1-1,0.2l-0.4-0.6c0.4,0,0.8,0.1,1.1,0.1h3.5v-1.7c-1.3,0.2-2.9,0.4-3.6,0.4
		v-0.2c2-0.3,5.2-1,6.7-1.5l0.8,0.9c0,0,0,0.1,0,0.1c0,0,0,0.1-0.1,0.1c-0.2,0-0.5,0-0.7,0c-0.3,0-0.5,0-0.7,0
		c-0.3,0.1-0.9,0.1-1.7,0.2v1.8h2.4l0.8-0.8L762,274z M757.3,277.5v-1.4h-2.2v1.4H757.3z M757.3,279.5v-1.6h-2.2v1.6H757.3z
		 M760.1,277.5v-1.4H758v1.4H760.1z M760.1,279.5v-1.6H758v1.6H760.1z M767.3,275.2C767.4,275.3,767.4,275.3,767.3,275.2
		c0.1,0.1,0,0.2,0,0.2l-0.6,0.4c0,1.9-0.2,7-0.4,7.5c-0.2,1.3-0.5,1.6-1.7,2c0,0-0.1,0-0.1,0c0,0-0.1,0-0.1-0.1
		c-0.1-0.5-0.6-0.9-2-1.4l0.1-0.2c0.9,0.2,1.5,0.3,1.9,0.3c0.8,0,1.1-0.4,1.2-1.5c0.1-1.4,0.3-4.9,0.3-7h-2.2
		c-0.5,6.4-1.4,8.6-4.9,10.3l-0.1-0.2c3.2-2,4-4.2,4.3-10.1h-0.7c-0.3,0-0.8,0.1-1,0.2L761,275c0.4,0,0.8,0.1,1.1,0.1h1
		c0-1.4,0.1-3,0.1-4.4l1.4,0.6c0.1,0,0.1,0.1,0.1,0.1s0,0.1-0.1,0.1l-0.5,0.4c0,0.9-0.1,2.4-0.2,3.2h1.9l0.5-0.7L767.3,275.2z"/>
	<path class="st5" d="M783.3,276.3c0.1,0.1,0.1,0.1,0.1,0.1c0,0,0,0.1-0.2,0.1h-11.8c-0.1,5.9-0.3,7.2-2.6,9.1l-0.1-0.1
		c1.6-2,1.8-3.2,1.9-5.4c0-1.5,0-3.5,0-4.8l0.9,0.9h5.8c0.6-1,1.3-2.3,1.5-2.7l1,0.7c0.1,0,0.1,0.1,0.1,0.1s0,0-0.1,0.1
		c-0.3,0-0.6,0.3-1.1,0.7l-1,1.1h3.8l0.8-0.8L783.3,276.3z M783.1,273c0,0,0.1,0.1,0.1,0.1s0,0-0.1,0h-12.2c-0.3,0-0.8,0.1-1.1,0.2
		l-0.4-0.6c0.4,0,0.8,0.1,1.2,0.1h10.6l0.8-0.9L783.1,273z M783.2,284.7c0.1,0.1,0.1,0.1,0.1,0.1s0,0-0.1,0h-10.6
		c-0.3,0-0.8,0.1-1.1,0.2l-0.4-0.6c0.4,0,0.8,0.1,1.2,0.1h4.4V282h-2.5c-0.3,0-0.8,0.1-1.1,0.2l-0.4-0.6c0.4,0,0.8,0.1,1.2,0.1h2.8
		v-2.2h-2.9c-0.6,1-1.3,1.9-2,2.7l-0.2-0.1c1-1.2,2.1-3.8,2.4-4.9l1,0.7c0.1,0,0.1,0.1,0.1,0.1s0,0.1-0.1,0.1
		c-0.4,0.1-0.5,0.2-1,1.2h2.7c0-1.2,0-1.9,0-2.5l1.3,0.5c0,0,0.1,0,0.1,0.1c0,0,0,0.1-0.1,0.1l-0.5,0.4v1.4h3.2l0.6-0.8l1,1
		c0,0,0.1,0.1,0.1,0.1c0,0,0,0-0.1,0h-4.9v2.2h2.9l0.7-0.8l1,1c0.1,0.1,0.1,0.1,0.1,0.1c0,0,0,0-0.1,0h-4.6v2.5h4l0.8-0.9
		L783.2,284.7z M773.2,273.6c1.4,0.5,2,1,2.2,1.6c0,0,0,0.1,0,0.1c0,0.4-0.4,0.7-0.6,0.7c-0.2,0-0.3-0.2-0.4-0.5
		c-0.1-0.5-0.6-1.3-1.4-1.7L773.2,273.6z M775,270.7c1,0.1,2,0.6,2.2,1c0,0.1,0.1,0.3,0.1,0.4c0,0.4-0.3,0.7-0.6,0.7
		c-0.2,0-0.2-0.1-0.3-0.5c-0.2-0.6-0.6-1.1-1.3-1.5L775,270.7z"/>
</g>
</svg>
