<?xml version="1.0" encoding="utf-8"?>
<!-- Generator: Adobe Illustrator 23.0.0, SVG Export Plug-In . SVG Version: 6.00 Build 0)  -->
<svg version="1.1" id="强大的法律保障" xmlns="http://www.w3.org/2000/svg" xmlns:xlink="http://www.w3.org/1999/xlink"
	 x="0px" y="0px" viewBox="0 0 1017 345" style="enable-background:new 0 0 1017 345;" xml:space="preserve">
<style type="text/css">
	.st0{fill:#010101;}
	.st1{fill:#58595B;}
	.st2{fill:#70DBCB;}
	.st3{fill:none;stroke:#70DBCB;}
	.st4{fill:#FCFCFC;}
	.st5{fill:#F5F5F5;}
	.st6{fill:#F2F2F2;}
	.st7{fill:#E6E7E8;}
	.st8{enable-background:new    ;}
	.st9{fill:#FFFFFF;}
</style>
<rect id="矩形_47" x="686.9" y="160" class="st0" width="321.2" height="0.8"/>
<ellipse id="椭圆_12" class="st1" cx="1003" cy="159.6" rx="14" ry="14.1"/>
<g id="组_27">
	<path id="矩形_48" class="st2" d="M409.9,159.2h181.5v0.8H409.9V159.2z"/>
	<path id="形状_2" class="st3" d="M591.4,156H474.1l-38.5-87.6h-81.9"/>
	<path id="形状_2_拷贝" class="st3" d="M591.4,164H474.1l-38.5,87.7h-81.9"/>
</g>
<path id="圆角矩形_1" class="st4" d="M609.2,144.5l39.1-10c1.6-0.4,3.4-0.3,5,0.1l32.8,10.6c1.4,0.5,1.6,1.2,0.4,1.7l-34.2,12.6
	c-2,0.6-4.1,0.7-6.1,0.1l-37.7-13.2C606.9,145.8,607.3,145,609.2,144.5z"/>
<path id="圆角矩形_1_拷贝" class="st5" d="M608.4,165.4l39.1-10c1.6-0.4,3.4-0.3,5,0.1l32.8,10.6c1.4,0.5,1.6,1.2,0.4,1.7
	l-34.2,12.6c-2,0.6-4.1,0.7-6.2,0.1l-37.7-13.2C606.1,166.7,606.5,165.9,608.4,165.4z"/>
<path id="椭圆_11" class="st6" d="M649.6,140.7c10,0,18.1,1.6,18.1,3.6s-8.1,3.6-18.1,3.6s-18.1-1.6-18.1-3.6
	S639.6,140.7,649.6,140.7z"/>
<path id="矩形_46" class="st7" d="M607.4,145.5l43.4,15.3v14.5L607.4,160V145.5z"/>
<path id="矩形_46_拷贝" class="st7" d="M687.7,146.3L650,160.8v14.5l37.7-14.5V146.3z"/>
<path id="圆角矩形_1-2" class="st4" d="M249.5,55.3l39.1-10.1c1.7-0.3,3.4-0.3,5,0.2L326.3,56c1.4,0.5,1.6,1.2,0.4,1.7
	l-34.2,12.5c-2,0.7-4.1,0.7-6.1,0.1l-37.7-13.2C247.2,56.6,247.5,55.8,249.5,55.3z"/>
<path id="圆角矩形_1_拷贝-2" class="st5" d="M248.7,76.2l39.1-10.1c1.7-0.3,3.4-0.3,5,0.2l32.8,10.6c1.4,0.5,1.6,1.2,0.4,1.7
	l-34.2,12.5c-2,0.7-4.1,0.7-6.1,0.1L247.9,78C246.4,77.5,246.7,76.7,248.7,76.2z"/>
<ellipse id="椭圆_11-2" class="st6" cx="289.8" cy="55.1" rx="18.1" ry="3.6"/>
<path id="矩形_46-2" class="st7" d="M247.6,56.3L291,71.6V86l-43.4-15.2V56.3z"/>
<path id="矩形_46_拷贝-2" class="st7" d="M327.9,57.1l-37.7,14.5V86l37.7-14.4V57.1z"/>
<path id="圆角矩形_1-3" class="st4" d="M249.5,245l39.1-10c1.7-0.4,3.4-0.3,5,0.1l32.8,10.6c1.4,0.5,1.6,1.2,0.4,1.7L292.5,260
	c-2,0.6-4.1,0.6-6.1,0.1l-37.7-13.2C247.2,246.3,247.5,245.5,249.5,245z"/>
<path id="圆角矩形_1_拷贝-3" class="st5" d="M248.7,265.9l39.1-10c1.7-0.4,3.4-0.3,5,0.1l32.8,10.6c1.4,0.5,1.6,1.2,0.4,1.7
	l-34.2,12.6c-2,0.6-4.1,0.6-6.1,0.1L248,267.8C246.4,267.2,246.7,266.4,248.7,265.9z"/>
<ellipse id="椭圆_11-3" class="st6" cx="289.8" cy="244.8" rx="18.1" ry="3.6"/>
<path id="矩形_46-3" class="st7" d="M247.6,246l43.4,15.3v14.5l-43.4-15.3V246z"/>
<path id="矩形_46_拷贝-3" class="st7" d="M327.9,246.8l-37.7,14.5v14.5l37.7-14.5V246.8z"/>
<path id="圆角矩形_1-4" class="st4" d="M9.5,55.3l39.1-10.1c1.7-0.3,3.4-0.3,5,0.2L86.3,56c1.4,0.5,1.6,1.2,0.4,1.7L52.5,70.2
	c-2,0.7-4.1,0.7-6.1,0.1L8.7,57.1C7.2,56.6,7.5,55.8,9.5,55.3z"/>
<path id="圆角矩形_1_拷贝-4" class="st5" d="M8.7,76.2l39.1-10.1c1.7-0.3,3.4-0.3,5,0.2l32.8,10.6c1.4,0.5,1.6,1.2,0.4,1.7
	L51.7,91.1c-2,0.7-4.1,0.7-6.1,0.1L7.9,78C6.4,77.5,6.7,76.7,8.7,76.2z"/>
<ellipse id="椭圆_11-4" class="st6" cx="49.8" cy="55.1" rx="18.1" ry="3.6"/>
<path id="矩形_46-4" class="st7" d="M7.6,56.3L51,71.6V86L7.6,70.8V56.3z"/>
<path id="矩形_46_拷贝-4" class="st7" d="M87.9,57.1L50.2,71.6V86l37.7-14.4V57.1z"/>
<path id="圆角矩形_1-5" class="st4" d="M9.5,245l39.1-10c1.7-0.4,3.4-0.3,5,0.1l32.8,10.6c1.4,0.5,1.6,1.2,0.4,1.7L52.5,260
	c-2,0.6-4.1,0.6-6.1,0.1L8.7,246.9C7.2,246.3,7.5,245.5,9.5,245z"/>
<path id="圆角矩形_1_拷贝-5" class="st5" d="M8.7,265.9l39.1-10c1.7-0.4,3.4-0.3,5,0.1l32.8,10.6c1.4,0.5,1.6,1.2,0.4,1.7
	l-34.2,12.6c-2,0.6-4.1,0.6-6.1,0.1L7.9,267.8C6.4,267.2,6.7,266.4,8.7,265.9z"/>
<ellipse id="椭圆_11-5" class="st6" cx="49.8" cy="244.8" rx="18.1" ry="3.6"/>
<path id="矩形_46-5" class="st7" d="M7.6,246L51,261.3v14.5L7.6,260.5V246z"/>
<path id="矩形_46_拷贝-5" class="st7" d="M87.9,246.8l-37.7,14.5v14.5l37.7-14.5V246.8z"/>
<path id="圆角矩形_1-6" class="st4" d="M856.6,145.3l39.1-10c1.7-0.4,3.4-0.3,5,0.1l32.8,10.6c1.4,0.5,1.6,1.2,0.4,1.7
	l-34.2,12.6c-2,0.6-4.1,0.7-6.1,0.1l-37.7-13.2C854.3,146.6,854.6,145.8,856.6,145.3z"/>
<path id="圆角矩形_1_拷贝-6" class="st5" d="M855.8,166.2l39.1-10c1.6-0.4,3.4-0.3,5,0.1l32.8,10.6c1.4,0.5,1.6,1.2,0.4,1.7
	l-34.2,12.6c-2,0.6-4.1,0.7-6.1,0.1L855,168.1C853.5,167.5,853.8,166.7,855.8,166.2z"/>
<path id="椭圆_11-6" class="st6" d="M896.9,141.5c10,0,18.1,1.6,18.1,3.6s-8.1,3.6-18.1,3.6s-18.1-1.6-18.1-3.6
	S887,141.5,896.9,141.5z"/>
<path id="矩形_46-6" class="st7" d="M854.8,146.3l43.4,15.3v14.5l-43.4-15.3V146.3z"/>
<path id="矩形_46_拷贝-6" class="st7" d="M935.1,147.1l-37.7,14.5v14.5l37.7-14.5V147.1z"/>
<rect id="矩形_49" x="87" y="70" class="st0" width="167" height="1"/>
<rect id="矩形_49_拷贝" x="87" y="260" class="st0" width="167" height="1"/>
<g class="st8">
	<path class="st1" d="M28,45h22.5V0H28V45z M42.1,5.6h5.6v5.6h-5.6V5.6z M42.1,16.9h5.6v5.6h-5.6V16.9z M42.1,28.1h5.6v5.6h-5.6
		V28.1z M30.8,5.6h5.6v5.6h-5.6C30.8,11.2,30.8,5.6,30.8,5.6z M30.8,16.9h5.6v5.6h-5.6C30.8,22.5,30.8,16.9,30.8,16.9z M30.8,28.1
		h5.6v5.6h-5.6C30.8,33.7,30.8,28.1,30.8,28.1z M53.3,14.1H73v2.8H53.3V14.1z M53.3,45h5.6V33.8h8.4V45H73V19.7H53.3V45z"/>
</g>
<g class="st8">
	<path class="st1" d="M46.7,224.9h7.6v9.5h-7.6V224.9z"/>
	<path class="st1" d="M45.8,207.9c0,2.6,2.1,4.7,4.7,4.7s4.7-2.1,4.7-4.7s-2.1-4.7-4.7-4.7S45.8,205.4,45.8,207.9z M51.4,208.9h-3.8
		V207h1.9v-2.8h1.9C51.4,204.2,51.4,208.9,51.4,208.9z"/>
	<path class="st1" d="M24,204.1v30.3h15.1v-30.3H24z M30.6,224.1h-3.8v-1.9h3.8V224.1z M30.6,220.3h-3.8v-1.9h3.8V220.3z
		 M30.6,216.4h-3.8v-1.9h3.8V216.4z M30.6,212.6h-3.8v-1.9h3.8V212.6z M30.6,208.9h-3.8V207h3.8V208.9z M36.3,224.1h-3.8v-1.9h3.8
		V224.1z M36.3,220.3h-3.8v-1.9h3.8V220.3z M36.3,216.4h-3.8v-1.9h3.8V216.4z M36.3,212.6h-3.8v-1.9h3.8V212.6z M36.3,208.9h-3.8
		V207h3.8V208.9z"/>
	<path class="st1" d="M77,234.4v-30.3H61.9v30.3H77z M70.4,206.9h3.8v1.9h-3.8V206.9z M70.4,210.8h3.8v1.9h-3.8V210.8z M70.4,214.6
		h3.8v1.9h-3.8V214.6z M70.4,218.4h3.8v1.9h-3.8V218.4z M70.4,222.1h3.8v1.9h-3.8V222.1z M64.7,206.9h3.8v1.9h-3.8V206.9z
		 M64.7,210.8h3.8v1.9h-3.8V210.8z M64.7,214.6h3.8v1.9h-3.8V214.6z M64.7,218.4h3.8v1.9h-3.8V218.4z M64.7,222.1h3.8v1.9h-3.8
		V222.1z"/>
	<path class="st1" d="M41,199.9v34.5h3.8V224c0-0.5,0.4-0.9,0.9-0.9h9.5c0.5,0,0.9,0.4,0.9,0.9v10.4h3.8v-34.5l-9.5-6.9L41,199.9z
		 M57.1,207.9c0,3.7-3,6.6-6.6,6.6s-6.6-3-6.6-6.6s3-6.6,6.6-6.6C54.2,201.4,57.1,204.3,57.1,207.9z"/>
	<path class="st1" d="M50.5,181.4h11.4v5.7H50.5V181.4z"/>
	<path class="st1" d="M50.5,195.6c-0.5,0-0.9-0.4-0.9-0.9v-14.3c0-0.5,0.4-0.9,0.9-0.9s0.9,0.4,0.9,0.9v14.2
		C51.4,195.3,51,195.6,50.5,195.6z"/>
</g>
<g class="st8">
	<path class="st1" d="M307.6,44.5c0.7,0,1.3-0.6,1.3-1.3V21.6c0-0.7-0.6-1.3-1.3-1.3h-8.1v-0.9c0-0.5-0.3-0.9-0.7-1.2l-7.9-4v-2.5
		l5.6-1.9c0.5-0.2,0.9-0.7,0.9-1.2c0-0.6-0.4-1.1-0.9-1.2L290,5.3c-0.4-0.1-0.8-0.1-1.2,0.2c-0.3,0.2-0.5,0.6-0.5,1.1v7.8l-7.9,4
		c-0.4,0.2-0.7,0.7-0.7,1.2v0.9h-8.3c-0.7,0-1.3,0.6-1.3,1.3v21.6c0,0.7,0.6,1.3,1.3,1.3h36.3L307.6,44.5L307.6,44.5z M290.9,9.4V8
		l2.9,0.7L290.9,9.4z M272.6,22.9h7v19h-7V22.9z M282.3,20.3l7.3-3.7l7.3,3.7v21.6h-14.6L282.3,20.3L282.3,20.3z M306.3,41.9h-6.8
		v-19h6.8V41.9z"/>
	<path class="st1" d="M287.5,22.5h-2.2c-0.7,0-1.3,0.6-1.3,1.3c0,0.7,0.6,1.3,1.3,1.3h2.2c0.7,0,1.3-0.6,1.3-1.3
		C288.9,23.1,288.3,22.5,287.5,22.5z"/>
	<path class="st1" d="M275.3,27.3h2.2c0.7,0,1.3-0.6,1.3-1.3c0-0.7-0.6-1.3-1.3-1.3h-2.2c-0.7,0-1.3,0.6-1.3,1.3
		S274.5,27.3,275.3,27.3z"/>
	<path class="st1" d="M277.4,29h-2.2c-0.7,0-1.3,0.6-1.3,1.3c0,0.7,0.6,1.3,1.3,1.3h2.2c0.7,0,1.3-0.6,1.3-1.3
		C278.8,29.6,278.1,29,277.4,29z"/>
	<path class="st1" d="M277.4,33.3h-2.2c-0.7,0-1.3,0.6-1.3,1.3s0.6,1.3,1.3,1.3h2.2c0.7,0,1.3-0.6,1.3-1.3
		C278.8,33.9,278.1,33.3,277.4,33.3z"/>
	<path class="st1" d="M302,27.3h2.2c0.7,0,1.3-0.6,1.3-1.3c0-0.7-0.6-1.3-1.3-1.3H302c-0.7,0-1.3,0.6-1.3,1.3S301.3,27.3,302,27.3z"
		/>
	<path class="st1" d="M302,31.6h2.2c0.7,0,1.3-0.6,1.3-1.3c0-0.7-0.6-1.3-1.3-1.3H302c-0.7,0-1.3,0.6-1.3,1.3
		C300.6,31,301.3,31.6,302,31.6z"/>
	<path class="st1" d="M304,33.3h-2c-0.7,0-1.3,0.6-1.3,1.3s0.6,1.3,1.3,1.3h2.2c0.7,0,1.3-0.6,1.3-1.3S304.9,33.3,304,33.3z"/>
	<path class="st1" d="M294,22.5h-2.2c-0.7,0-1.3,0.6-1.3,1.3c0,0.7,0.6,1.3,1.3,1.3h2.2c0.7,0,1.3-0.6,1.3-1.3S294.8,22.5,294,22.5z
		"/>
	<path class="st1" d="M287.5,26.8h-2.2c-0.7,0-1.3,0.6-1.3,1.3c0,0.7,0.6,1.3,1.3,1.3h2.2c0.7,0,1.3-0.6,1.3-1.3
		S288.3,26.8,287.5,26.8z"/>
	<path class="st1" d="M294,26.8h-2.2c-0.7,0-1.3,0.6-1.3,1.3c0,0.7,0.6,1.3,1.3,1.3h2.2c0.7,0,1.3-0.6,1.3-1.3S294.8,26.8,294,26.8z
		"/>
	<path class="st1" d="M287.5,31.1h-2.2c-0.7,0-1.3,0.6-1.3,1.3s0.6,1.3,1.3,1.3h2.2c0.7,0,1.3-0.6,1.3-1.3
		C288.9,31.7,288.3,31.1,287.5,31.1z"/>
	<path class="st1" d="M294,31.1h-2.2c-0.7,0-1.3,0.6-1.3,1.3s0.6,1.3,1.3,1.3h2.2c0.7,0,1.3-0.6,1.3-1.3S294.8,31.1,294,31.1z"/>
</g>
<g class="st8">
	<path class="st1" d="M308.6,233.5c0.7,0,1.3-0.6,1.3-1.3v-21.6c0-0.7-0.6-1.3-1.3-1.3h-8.1v-0.9c0-0.5-0.3-0.9-0.7-1.2l-7.9-4v-2.5
		l5.6-1.9c0.5-0.2,0.9-0.7,0.9-1.2c0-0.6-0.4-1.1-0.9-1.2l-6.6-2.1c-0.4-0.1-0.8-0.1-1.2,0.2c-0.3,0.2-0.5,0.6-0.5,1.1v7.8l-7.9,4
		c-0.4,0.2-0.7,0.7-0.7,1.2v0.9h-8.3c-0.7,0-1.3,0.6-1.3,1.3v21.6c0,0.7,0.6,1.3,1.3,1.3h36.3L308.6,233.5L308.6,233.5z
		 M291.9,198.4V197l2.9,0.7L291.9,198.4z M273.6,211.9h7v19h-7V211.9z M283.3,209.3l7.3-3.7l7.3,3.7v21.6h-14.6L283.3,209.3
		L283.3,209.3z M307.3,230.9h-6.8v-19h6.8V230.9z"/>
	<path class="st1" d="M288.5,211.5h-2.2c-0.7,0-1.3,0.6-1.3,1.3s0.6,1.3,1.3,1.3h2.2c0.7,0,1.3-0.6,1.3-1.3
		C289.9,212.1,289.3,211.5,288.5,211.5z"/>
	<path class="st1" d="M276.3,216.3h2.2c0.7,0,1.3-0.6,1.3-1.3s-0.6-1.3-1.3-1.3h-2.2c-0.7,0-1.3,0.6-1.3,1.3
		S275.5,216.3,276.3,216.3z"/>
	<path class="st1" d="M278.4,218h-2.2c-0.7,0-1.3,0.6-1.3,1.3s0.6,1.3,1.3,1.3h2.2c0.7,0,1.3-0.6,1.3-1.3
		C279.8,218.6,279.1,218,278.4,218z"/>
	<path class="st1" d="M278.4,222.3h-2.2c-0.7,0-1.3,0.6-1.3,1.3s0.6,1.3,1.3,1.3h2.2c0.7,0,1.3-0.6,1.3-1.3
		C279.8,222.9,279.1,222.3,278.4,222.3z"/>
	<path class="st1" d="M303,216.3h2.2c0.7,0,1.3-0.6,1.3-1.3s-0.6-1.3-1.3-1.3H303c-0.7,0-1.3,0.6-1.3,1.3S302.3,216.3,303,216.3z"/>
	<path class="st1" d="M303,220.6h2.2c0.7,0,1.3-0.6,1.3-1.3s-0.6-1.3-1.3-1.3H303c-0.7,0-1.3,0.6-1.3,1.3
		C301.6,220,302.3,220.6,303,220.6z"/>
	<path class="st1" d="M305,222.3h-2c-0.7,0-1.3,0.6-1.3,1.3s0.6,1.3,1.3,1.3h2.2c0.7,0,1.3-0.6,1.3-1.3S305.9,222.3,305,222.3z"/>
	<path class="st1" d="M295,211.5h-2.2c-0.7,0-1.3,0.6-1.3,1.3s0.6,1.3,1.3,1.3h2.2c0.7,0,1.3-0.6,1.3-1.3S295.8,211.5,295,211.5z"/>
	<path class="st1" d="M288.5,215.8h-2.2c-0.7,0-1.3,0.6-1.3,1.3s0.6,1.3,1.3,1.3h2.2c0.7,0,1.3-0.6,1.3-1.3S289.3,215.8,288.5,215.8
		z"/>
	<path class="st1" d="M295,215.8h-2.2c-0.7,0-1.3,0.6-1.3,1.3s0.6,1.3,1.3,1.3h2.2c0.7,0,1.3-0.6,1.3-1.3S295.8,215.8,295,215.8z"/>
	<path class="st1" d="M288.5,220.1h-2.2c-0.7,0-1.3,0.6-1.3,1.3s0.6,1.3,1.3,1.3h2.2c0.7,0,1.3-0.6,1.3-1.3S289.3,220.1,288.5,220.1
		z"/>
	<path class="st1" d="M295,220.1h-2.2c-0.7,0-1.3,0.6-1.3,1.3s0.6,1.3,1.3,1.3h2.2c0.7,0,1.3-0.6,1.3-1.3S295.8,220.1,295,220.1z"/>
</g>
<g class="st8">
	<path class="st1" d="M666.7,136.5c0.7,0,1.3-0.6,1.3-1.3v-21.6c0-0.7-0.6-1.3-1.3-1.3h-8.1v-0.9c0-0.5-0.3-0.9-0.7-1.2l-7.9-4v-2.5
		l5.6-1.9c0.5-0.2,0.9-0.7,0.9-1.2c0-0.6-0.4-1.1-0.9-1.2l-6.6-2.1c-0.4-0.1-0.8-0.1-1.2,0.2c-0.3,0.2-0.5,0.6-0.5,1.1v7.8l-7.9,4
		c-0.4,0.2-0.7,0.7-0.7,1.2v0.9h-8.3c-0.7,0-1.3,0.6-1.3,1.3v21.6c0,0.7,0.6,1.3,1.3,1.3h36.3L666.7,136.5L666.7,136.5z
		 M649.8,101.4V100l2.9,0.7L649.8,101.4z M631.7,114.9h7v19h-7V114.9z M641.3,112.3l7.3-3.7l7.3,3.7v21.6h-14.6V112.3z M665.3,133.9
		h-6.8v-19h6.8V133.9z"/>
	<path class="st1" d="M646.5,114.5h-2.2c-0.7,0-1.3,0.6-1.3,1.3c0,0.7,0.6,1.3,1.3,1.3h2.2c0.7,0,1.3-0.6,1.3-1.3
		S647.3,114.5,646.5,114.5z"/>
	<path class="st1" d="M634.3,119.3h2.2c0.7,0,1.3-0.6,1.3-1.3c0-0.7-0.6-1.3-1.3-1.3h-2.2c-0.7,0-1.3,0.6-1.3,1.3
		S633.5,119.3,634.3,119.3z"/>
	<path class="st1" d="M636.3,121h-2.2c-0.7,0-1.3,0.6-1.3,1.3c0,0.7,0.6,1.3,1.3,1.3h2.2c0.7,0,1.3-0.6,1.3-1.3
		C637.8,121.6,637.2,121,636.3,121z"/>
	<path class="st1" d="M636.3,125.3h-2.2c-0.7,0-1.3,0.6-1.3,1.3c0,0.7,0.6,1.3,1.3,1.3h2.2c0.7,0,1.3-0.6,1.3-1.3
		C637.8,125.9,637.2,125.3,636.3,125.3z"/>
	<path class="st1" d="M661,119.3h2.2c0.7,0,1.3-0.6,1.3-1.3c0-0.7-0.6-1.3-1.3-1.3H661c-0.7,0-1.3,0.6-1.3,1.3
		S660.3,119.3,661,119.3z"/>
	<path class="st1" d="M661,123.6h2.2c0.7,0,1.3-0.6,1.3-1.3c0-0.7-0.6-1.3-1.3-1.3H661c-0.7,0-1.3,0.6-1.3,1.3
		S660.3,123.6,661,123.6z"/>
	<path class="st1" d="M663,125.3h-2c-0.7,0-1.3,0.6-1.3,1.3c0,0.7,0.6,1.3,1.3,1.3h2.2c0.7,0,1.3-0.6,1.3-1.3S663.8,125.3,663,125.3
		z"/>
	<path class="st1" d="M653,114.5h-2.2c-0.7,0-1.3,0.6-1.3,1.3c0,0.7,0.6,1.3,1.3,1.3h2.2c0.7,0,1.3-0.6,1.3-1.3
		S653.8,114.5,653,114.5z"/>
	<path class="st1" d="M646.5,118.8h-2.2c-0.7,0-1.3,0.6-1.3,1.3c0,0.7,0.6,1.3,1.3,1.3h2.2c0.7,0,1.3-0.6,1.3-1.3
		S647.3,118.8,646.5,118.8z"/>
	<path class="st1" d="M653,118.8h-2.2c-0.7,0-1.3,0.6-1.3,1.3c0,0.7,0.6,1.3,1.3,1.3h2.2c0.7,0,1.3-0.6,1.3-1.3
		S653.8,118.8,653,118.8z"/>
	<path class="st1" d="M646.5,123.1h-2.2c-0.7,0-1.3,0.6-1.3,1.3s0.6,1.3,1.3,1.3h2.2c0.7,0,1.3-0.6,1.3-1.3S647.3,123.1,646.5,123.1
		z"/>
	<path class="st1" d="M653,123.1h-2.2c-0.7,0-1.3,0.6-1.3,1.3s0.6,1.3,1.3,1.3h2.2c0.7,0,1.3-0.6,1.3-1.3S653.8,123.1,653,123.1z"/>
</g>
<polygon id="XMLID_63_" class="st9" points="1003.7,155.6 1005.2,155.6 1005.2,153.3 1009,153.3 1009,165.6 1005.2,165.6 
	1005.2,162.3 1007.7,162.3 1007.7,156.9 997.3,156.9 997.3,162.3 999.8,162.3 999.8,165.6 996,165.6 996,153.3 999.8,153.3 
	999.8,155.6 1001.3,155.6 1001.3,151.8 994.5,151.8 994.5,167.3 1001.3,167.3 1001.3,160.6 999,160.6 999,158.5 1006,158.5 
	1006,160.6 1003.7,160.6 1003.7,167.3 1010.5,167.3 1010.5,151.8 1003.7,151.8 "/>
<g>
	<g>
		<g>
			<path class="st1" d="M916.2,110.4c0.2-0.5,0.3-1,0.1-1.5s-0.5-0.9-1-1.2l-4.5-2.3c-0.1-0.1-0.2-0.2-0.3-0.4l-0.8-5
				c-0.2-1-1-1.7-2-1.7c-0.1,0-0.2,0-0.3,0l-5,0.8c-0.2,0-0.3,0-0.4-0.1l-3.6-3.6c-0.4-0.4-0.9-0.6-1.4-0.6s-1,0.2-1.4,0.6L892,99
				c-0.1,0.1-0.3,0.2-0.4,0.1l-5-0.8c-0.1,0-0.2,0-0.3,0c-1,0-1.8,0.7-2,1.7l-0.8,5c0,0.2-0.1,0.3-0.3,0.4l-4.5,2.3
				c-0.5,0.2-0.8,0.7-1,1.2s-0.1,1.1,0.1,1.5l2.3,4.5c0.1,0.1,0.1,0.3,0,0.5l-2.3,4.5c-0.2,0.5-0.3,1-0.1,1.5s0.5,0.9,1,1.2l4.5,2.3
				c0.1,0.1,0.2,0.2,0.3,0.4l0.8,5c0.2,1,1,1.7,2,1.7c0.1,0,0.2,0,0.3,0l5-0.8c0.2,0,0.3,0,0.4,0.1l3.6,3.6c0.4,0.4,0.9,0.6,1.4,0.6
				s1-0.2,1.4-0.6l3.6-3.6c0.1-0.1,0.3-0.2,0.4-0.1l5,0.8c0.1,0,0.2,0,0.3,0c1,0,1.8-0.7,2-1.7l0.8-5c0-0.2,0.1-0.3,0.3-0.4l4.5-2.3
				c0.5-0.2,0.8-0.7,1-1.2s0.1-1.1-0.1-1.5l-2.3-4.5c-0.1-0.1-0.1-0.3,0-0.5L916.2,110.4z M912.6,116.1l2.3,4.5
				c0.1,0.1,0.1,0.3,0,0.4c0,0.1-0.1,0.2-0.3,0.3l-4.5,2.3c-0.6,0.3-1,0.8-1.1,1.5l-0.8,5c0,0.3-0.3,0.5-0.6,0.4l-5-0.8
				c-0.1,0-0.2,0-0.3,0c-0.5,0-1,0.2-1.4,0.6l-3.6,3.6c-0.2,0.2-0.5,0.2-0.7,0l-3.4-3.7c-0.4-0.4-0.9-0.6-1.4-0.6
				c-0.1,0-0.2,0-0.3,0l-5,0.8c-0.3,0-0.5-0.2-0.6-0.4l-0.8-5c-0.1-0.6-0.5-1.2-1.1-1.5l-4.5-2.3c-0.1-0.1-0.2-0.2-0.3-0.3
				c0-0.1,0-0.3,0-0.4l2.3-4.5c0.3-0.6,0.3-1.3,0-1.8l-2.3-4.5c-0.1-0.1-0.1-0.3,0-0.4s0.1-0.2,0.3-0.3l4.5-2.3
				c0.6-0.3,1-0.8,1.1-1.5l0.8-5c0-0.3,0.3-0.5,0.6-0.4l5,0.8c0.1,0,0.2,0,0.3,0l0,0c0.5,0,1-0.2,1.4-0.6l3.6-3.6
				c0.2-0.2,0.5-0.2,0.7,0l3.6,3.6c0.4,0.5,1.1,0.7,1.7,0.6l5-0.8c0.3,0,0.5,0.2,0.6,0.4l0.8,5c0.1,0.6,0.5,1.2,1.1,1.5l4.5,2.3
				c0.1,0.1,0.2,0.2,0.3,0.3c0,0.1,0,0.3,0,0.4l-2.3,4.5C912.3,114.7,912.3,115.4,912.6,116.1z"/>
			<path class="st1" d="M903,106.6c0.1,0.1,0.3,0.1,0.4,0.1c0.2,0,0.5-0.1,0.6-0.3c0.2-0.3,0.1-0.8-0.2-1s-0.8-0.1-1,0.2
				S902.7,106.4,903,106.6z"/>
			<path class="st1" d="M905.4,108.6c0.2,0,0.4-0.1,0.5-0.2c0.3-0.3,0.3-0.7,0.1-1.1c-0.3-0.3-0.8-0.3-1.1-0.1
				c-0.3,0.3-0.3,0.7-0.1,1.1C905,108.4,905.2,108.6,905.4,108.6z"/>
			<path class="st1" d="M900.8,124.7c-0.4,0.1-0.6,0.6-0.4,1c0.1,0.3,0.4,0.5,0.7,0.5c0.1,0,0.2,0,0.3,0c0.4-0.1,0.6-0.6,0.4-1
				C901.6,124.9,901.2,124.6,900.8,124.7z"/>
			<path class="st1" d="M903,123.6c-0.3,0.2-0.4,0.7-0.2,1c0.1,0.2,0.4,0.3,0.6,0.3c0.1,0,0.3,0,0.4-0.1c0.3-0.2,0.4-0.7,0.2-1
				C903.8,123.4,903.4,123.4,903,123.6z"/>
			<path class="st1" d="M893.5,124.7c-0.4-0.1-0.8,0-1,0.4s0,0.8,0.4,1c0.1,0,0.2,0,0.3,0c0.3,0,0.6-0.2,0.7-0.5
				C894.1,125.4,893.9,124.9,893.5,124.7z"/>
			<path class="st1" d="M898.4,125.4c-0.4,0-0.7,0.4-0.7,0.8s0.4,0.7,0.7,0.7h0.1c0.4,0,0.7-0.4,0.7-0.8
				C899.2,125.6,898.8,125.2,898.4,125.4z"/>
			<path class="st1" d="M895.9,125.4L895.9,125.4c-0.4,0-0.8,0.2-0.8,0.7c0,0.4,0.2,0.8,0.7,0.8h0.1c0.4,0,0.7-0.3,0.7-0.7
				S896.3,125.4,895.9,125.4z"/>
			<path class="st1" d="M907.2,112.6L907.2,112.6c0.1,0.3,0.4,0.6,0.7,0.6c0.1,0,0.1,0,0.2,0c0.4-0.1,0.6-0.5,0.5-0.9
				s-0.5-0.6-0.9-0.5C907.3,111.9,907.1,112.2,907.2,112.6z"/>
			<path class="st1" d="M908.2,114.4c-0.4,0-0.8,0.3-0.8,0.8s0.3,0.8,0.8,0.7c0.4,0,0.8-0.3,0.7-0.8
				C909,114.6,908.6,114.4,908.2,114.4z"/>
			<path class="st1" d="M908.1,117.1c-0.4-0.1-0.8,0.1-0.9,0.5c-0.1,0.4,0.1,0.8,0.5,0.9c0.1,0,0.1,0,0.2,0c0.3,0,0.6-0.2,0.7-0.6
				C908.7,117.6,908.5,117.1,908.1,117.1z"/>
			<path class="st1" d="M906.9,110.7c0.1,0,0.2,0,0.3-0.1c0.4-0.2,0.5-0.6,0.3-1s-0.6-0.5-1-0.3s-0.5,0.6-0.3,1
				C906.4,110.6,906.7,110.7,906.9,110.7z"/>
			<path class="st1" d="M904.9,121.9c-0.3,0.3-0.2,0.8,0.1,1.1c0.1,0.1,0.3,0.2,0.5,0.2s0.4-0.1,0.6-0.3c0.3-0.3,0.2-0.8-0.1-1.1
				C905.6,121.6,905.1,121.6,904.9,121.9z"/>
			<path class="st1" d="M907.3,119.6c-0.4-0.2-0.8,0-1,0.3c-0.2,0.4,0,0.8,0.3,1c0.1,0.1,0.2,0.1,0.3,0.1c0.3,0,0.5-0.1,0.7-0.4
				C907.8,120.2,907.7,119.7,907.3,119.6z"/>
			<path class="st1" d="M888.9,108.6c0.2,0,0.4-0.1,0.6-0.2c0.3-0.3,0.2-0.8-0.1-1.1c-0.3-0.3-0.8-0.2-1.1,0.1s-0.2,0.8,0.1,1.1
				C888.5,108.4,888.7,108.6,888.9,108.6z"/>
			<path class="st1" d="M887,119.6c-0.4,0.2-0.5,0.6-0.3,1c0.1,0.3,0.4,0.4,0.7,0.4c0.1,0,0.2,0,0.3-0.1c0.4-0.2,0.5-0.6,0.3-1
				S887.4,119.4,887,119.6z"/>
			<path class="st1" d="M887.1,117.6c-0.1-0.4-0.5-0.6-0.9-0.5s-0.6,0.5-0.5,0.9c0.1,0.3,0.4,0.6,0.7,0.6c0.1,0,0.1,0,0.2,0
				C887,118.4,887.2,118.1,887.1,117.6z"/>
			<path class="st1" d="M886.2,113.1c0.1,0,0.1,0,0.2,0c0.3,0,0.6-0.2,0.7-0.6c0.1-0.4-0.1-0.8-0.5-0.9s-0.8,0.1-0.9,0.5
				C885.6,112.6,885.8,113.1,886.2,113.1z"/>
			<path class="st1" d="M886.1,115.9c0.4,0,0.7-0.3,0.7-0.8l0,0l0,0c0-0.4-0.3-0.8-0.8-0.8c-0.4,0-0.7,0.3-0.7,0.8l0,0l0,0
				C885.3,115.6,885.7,115.9,886.1,115.9L886.1,115.9z"/>
			<path class="st1" d="M887,110.6c0.1,0.1,0.2,0.1,0.3,0.1c0.3,0,0.5-0.1,0.7-0.4c0.2-0.4,0-0.8-0.3-1c-0.4-0.2-0.8,0-1,0.3
				S886.6,110.4,887,110.6z"/>
			<path class="st1" d="M888.4,121.9c-0.3,0.3-0.3,0.8-0.1,1.1c0.1,0.2,0.4,0.2,0.6,0.2c0.2,0,0.4-0.1,0.5-0.2
				c0.3-0.3,0.3-0.8,0.1-1.1C889.2,121.6,888.7,121.6,888.4,121.9z"/>
			<path class="st1" d="M895.8,104.9L895.8,104.9c0.5-0.1,0.8-0.4,0.7-0.8c0-0.4-0.4-0.7-0.8-0.7s-0.7,0.4-0.7,0.8
				C895.1,104.6,895.4,104.9,895.8,104.9z"/>
			<path class="st1" d="M898.4,104.9L898.4,104.9c0.5,0,0.8-0.3,0.8-0.7s-0.2-0.8-0.7-0.8c-0.4,0-0.8,0.2-0.8,0.7
				C897.7,104.4,898,104.9,898.4,104.9z"/>
			<path class="st1" d="M900.8,105.4c0.1,0,0.2,0,0.3,0c0.3,0,0.6-0.2,0.7-0.5c0.1-0.4,0-0.8-0.4-1c-0.4-0.1-0.8,0-1,0.4
				S900.4,105.4,900.8,105.4z"/>
			<path class="st1" d="M893.2,105.6c0.1,0,0.2,0,0.3,0c0.4-0.1,0.6-0.6,0.4-1c-0.1-0.4-0.6-0.6-1-0.4l0,0c-0.4,0.1-0.6,0.6-0.4,1
				C892.6,105.4,892.9,105.6,893.2,105.6z"/>
			<path class="st1" d="M891.3,123.6c-0.3-0.2-0.8-0.1-1,0.2c-0.2,0.3-0.1,0.8,0.2,1c0.1,0.1,0.3,0.1,0.4,0.1c0.2,0,0.5-0.1,0.6-0.3
				C891.7,124.4,891.6,123.9,891.3,123.6z"/>
			<path class="st1" d="M890.8,106.7c0.1,0,0.3,0,0.4-0.1c0.3-0.2,0.4-0.7,0.2-1s-0.7-0.4-1-0.2c-0.3,0.2-0.4,0.7-0.2,1
				C890.4,106.6,890.6,106.7,890.8,106.7z"/>
		</g>
	</g>
	<g>
		<path class="st1" d="M882.5,119.1h29.3c1.7,0,3.1-1.4,3.1-3.1c0-1.2-0.7-2.2-1.7-2.7v-3.4c0-0.4-0.2-0.8-0.6-0.9l-15-7.2
			c-0.3-0.1-0.6-0.1-0.9,0l-15,7.2c-0.4,0.2-0.6,0.5-0.6,0.9v3.4c-1,0.5-1.7,1.5-1.7,2.7C879.4,117.9,880.8,119.1,882.5,119.1z
			 M897.1,106.9c1.1,0,2,0.9,2,2s-0.9,2-2,2s-2-0.9-2-2S896,106.9,897.1,106.9z"/>
		<path class="st1" d="M911.6,130.7h-0.5l0.4-4c0.1-1.2,0.1-2.4,0-3.6l-0.2-1.9h-6.8l-0.2,1.9c-0.1,1.2-0.1,2.4,0,3.6l0.4,4h-4.5
			l0.4-4c0.1-1.2,0.1-2.4,0-3.6l-0.2-1.9h-6.8l-0.2,1.9c-0.1,1.2-0.1,2.4,0,3.6l0.4,4h-4.5l0.4-4c0.1-1.2,0.1-2.4,0-3.6l-0.2-1.9
			h-6.8l-0.2,1.9c-0.1,1.2-0.1,2.4,0,3.6l0.4,4h-0.5c-1.8,0-3.2,1.5-3.2,3.2s1.5,3.2,3.2,3.2h29c1.8,0,3.2-1.5,3.2-3.2
			S913.4,130.7,911.6,130.7z"/>
	</g>
</g>
<g>
	<path d="M33.1,112.8c1,0,1.1-0.3,1.1-1.1v-4.9c0-0.9-0.1-1.1-1.1-1.1v-0.2h5.1c0,0.6,0.1,1.3,0.1,1.8l-0.2,0
		c-0.2-1.3-0.5-1.6-1.9-1.6h-1c-0.3,0-0.3,0-0.3,0.3v2.9h1.4c1.1,0,1.2-0.1,1.4-0.9h0.2v2.3h-0.2c-0.2-0.9-0.3-1.1-1.4-1.1h-1.4v2.3
		c0,0.9,0.1,1.1,1.3,1.1v0.2h-3V112.8z"/>
	<path d="M46.8,110.8c-0.2,0.6-0.4,1.6-0.6,2c-0.4,0.1-1.5,0.3-2.4,0.3c-3.1,0-4.5-2-4.5-3.8c0-2.4,2-4,4.7-4c1.2,0,1.9,0.3,2.3,0.3
		c0.1,0.6,0.2,1.2,0.2,1.9l-0.2,0c-0.3-1.4-1.2-1.9-2.7-1.9c-2.4,0-3.4,1.6-3.4,3.4c0,2.3,1.4,3.8,3.5,3.8c1.7,0,2.4-0.9,2.9-2.1
		L46.8,110.8z"/>
	<path d="M52.3,112.8c0.7-0.1,0.9-0.2,0.9-0.5c0-0.3-0.4-1.2-0.8-2.4h-2.8c-0.1,0.2-0.7,1.8-0.7,2.2c0,0.4,0.3,0.5,1,0.6v0.2h-2.7
		v-0.2c0.8-0.2,1-0.3,1.4-1.4l2.6-6.1l0.1-0.1l0.8,2.2c0.6,1.5,1.1,3,1.5,4.1c0.4,0.9,0.5,1,1.3,1.2v0.2h-2.7V112.8z M51.1,106.4
		c-0.5,1.1-0.9,2.2-1.3,3.2h2.5L51.1,106.4L51.1,106.4z"/>
	<path d="M66.7,112.9c0.1,0.1,0.1,0.2,0.1,0.2c0,0-0.1,0-0.2,0h-9.8c-0.3,0-0.6,0-0.8,0.1l-0.3-0.4c0.3,0,0.6,0,0.9,0h1.2v-2.1
		c0-0.3,0-0.9,0-1.2l0.7,0.5h5.9l0.3-0.4l0.7,0.6c0.1,0,0.1,0.1,0.1,0.1s0,0-0.1,0.1l-0.4,0.2v2.2h0.7l0.5-0.6L66.7,112.9z
		 M62.2,108.9c0.1,0.1,0.1,0.1,0.1,0.2c0,0,0,0-0.1,0h-4.4l-0.2,0.3c0,0.1-0.1,0.1-0.1,0.1c0,0-0.1,0-0.1,0l-0.7-0.5l0.5-0.3v-3.8
		c0-0.9,0-1.6,0-2.1l0.7,0.6h3.2l0.4-0.5l0.6,0.6c0.1,0.1,0.1,0.1,0.1,0.2c0,0-0.1,0-0.2,0h-2.3v1.5h1.2l0.3-0.4l0.6,0.5
		c0.1,0.1,0.1,0.1,0.1,0.1c0,0,0,0.1-0.1,0.1l-0.3,0.2v0.6c0,0.2,0,0.9,0,1.1c0,0.2-0.5,0.3-0.5,0.3c-0.1,0-0.1-0.1-0.1-0.2v-0.4
		h-1.3v1.6h1.5l0.4-0.6L62.2,108.9z M59.1,105.3v-1.5h-1.5v1.5H59.1z M60.9,107v-1.4h-3.3v1.4H60.9z M59.1,108.9v-1.6h-1.5v1.6H59.1
		z M59.9,112.9v-2.5h-1.7v2.5H59.9z M62.1,112.9v-2.5h-1.7v2.5H62.1z M66.8,105.1c0.1,0.1,0.1,0.1,0.1,0.2c0,0-0.1,0-0.2,0h-3.5
		c-0.6,1.2-1.2,2.2-1.5,2.6l-0.2-0.1c0.9-1.6,1.7-4.1,1.9-5l0.8,0.6c0.1,0,0.1,0.1,0.1,0.1c0,0-0.1,0.1-0.2,0.1
		c-0.2,0.1-0.3,0.1-0.3,0.3c-0.2,0.4-0.3,0.8-0.5,1.2h2.3l0.5-0.6L66.8,105.1z M64.4,112.9v-2.5h-1.8v2.5H64.4z M63.5,106.4
		c0.8,0.5,1.6,1.4,1.6,2c0,0.4-0.3,0.6-0.4,0.6c-0.2,0-0.3-0.1-0.3-0.6c-0.1-0.5-0.3-1.2-1-1.9L63.5,106.4z"/>
	<path d="M67.6,109c2.3-1.5,3.7-2.8,4.6-4.2h-2.9c-0.3,0-0.6,0-0.8,0.1l-0.3-0.4c0.3,0,0.6,0,0.9,0h3.8v-0.5c0-0.7,0-1,0-1.4
		l0.9,0.4c0.1,0,0.1,0.1,0.1,0.1c0,0,0,0.1-0.4,0.3v1.1h3.3l0.5-0.7l0.8,0.8c0.1,0,0.1,0.1,0.1,0.1c0,0,0,0-0.2,0h-4
		c1.6,2,3,2.7,4.8,2.8l0,0.2c-0.6,0.1-0.8,0.2-0.9,0.5c0,0,0,0-0.1,0c0,0-0.1,0-0.1,0c-1.9-0.9-3.1-2-4-3.6h-0.2v1.6
		c0,0.6,0,0.9,0,1.3c0,0,0,0.1,0,0.1c0,0.2-0.1,0.2-0.3,0.3c-0.1,0-0.2,0.1-0.2,0.1c-0.1,0-0.1-0.1-0.1-0.2v0c0-0.4,0-0.9,0-1.4V105
		c-0.8,1.1-1.8,2-3,2.9l0.7,0.5h5.4l0.4-0.4l0.6,0.5c0.1,0,0.1,0.1,0.1,0.1c0,0,0,0.1-0.3,0.3v4.2h0.6l0.6-0.7l0.8,0.8
		c0.1,0.1,0.1,0.1,0.1,0.1c0,0-0.1,0.1-0.2,0.1h-9.8c-0.3,0-0.6,0-0.8,0.1l-0.3-0.4c0.3,0,0.6,0,0.9,0h1.3v-4c0-0.4,0-0.7,0-1.1
		c-0.6,0.4-1.3,0.8-2.1,1.3L67.6,109z M76.1,109.9v-1.3h-5.7v1.3H76.1z M76.1,111.4v-1.2h-5.7v1.2H76.1z M76.1,113v-1.3h-5.7v1.3
		H76.1z"/>
	<path d="M9.2,121.7c1.2-1.1,2-2.6,2-2.6c0,0,0-0.1-0.1-0.1c-1.5,0.1-4.5,0.3-5.2,0.4c-0.5,0.1-0.9,0.1-1.1,0.2
		c-0.3,0.1-0.3,0.2-0.6,0.2c-0.4,0-1-0.7-1-1c0-0.3,0.1-0.4,0.3-0.6l0,0c0,0.5,0.4,0.8,1,0.8c1.2,0,5.2-0.3,6.1-0.3
		c0.2,0,0.3,0,0.4-0.1c0.2-0.1,0.3-0.3,0.4-0.3c0.2,0,1,0.7,1,1c0,0.1-0.2,0.2-0.4,0.3c-0.2,0-0.4,0.1-0.6,0.4
		c-0.5,0.6-1.2,1.5-2.1,2.1L9.2,121.7z M6.8,121c0-0.2,0.3-0.3,0.6-0.3c0.5,0,1.2,0.3,1.2,0.6c0,0.1-0.1,0.1-0.1,0.2
		c-0.1,0.1-0.1,0.3-0.2,0.6c-0.6,2.2-1.6,4.2-4.1,5.8l-0.2-0.3c3.3-2.3,3.7-5.9,3.7-6.1c0-0.4-0.4-0.4-0.6-0.4
		C6.9,121,6.9,121,6.8,121L6.8,121z"/>
	<path d="M24.5,122.6c0,0.1-0.1,0.1-0.3,0.1c-0.1,0-0.1,0-0.2,0c-0.2,0-0.6-0.1-1.2-0.1c-0.8,0-1.8,0-3.3,0.1
		c-1.4,0.1-2.1,0.2-2.7,0.4c-0.2,0-0.3,0.1-0.5,0.1c-0.4,0-0.9-0.6-0.9-0.7c0-0.1,0-0.1,0.1-0.1c0.1,0,0.1,0,0.2,0
		c0.2,0.1,0.3,0.1,0.7,0.1c0.5,0,1.3-0.1,2.9-0.2c3.1-0.3,3.2-0.3,3.5-0.4c0.2,0,0.3-0.1,0.5-0.1c0.2,0,0.4,0.1,0.7,0.3
		C24.4,122.3,24.5,122.5,24.5,122.6z"/>
	<path d="M27.8,118.8c1.5,0.2,3.3,1.1,3.3,2c0,0.2-0.1,0.4-0.4,0.4c-0.2,0-0.4-0.3-0.6-0.5c-0.4-0.5-1.3-1.3-2.5-1.7L27.8,118.8z
		 M37.2,119.8c-1.5,3.3-4.4,5.7-7.3,7.1c-0.6,0.3-0.6,0.6-0.8,0.6c-0.4,0-1.2-0.6-1.2-1.2c0-0.1,0.2-0.3,0.3-0.4
		c0.1,0.4,0.4,0.7,0.7,0.7c0.8,0,5.7-2.4,8-6.9L37.2,119.8z"/>
	<path d="M39,127.3c2.8-1.6,5.9-5.2,6.9-7.8c0,0,0-0.1,0-0.1c0,0,0-0.1-0.1-0.1c-0.2,0-2.5,0.2-3.6,0.4c-0.3,0.1-0.4,0.1-0.5,0.2
		c-0.1,0.1-0.1,0.1-0.3,0.1c-0.4,0-1-0.6-1-1c0-0.3,0.2-0.4,0.3-0.4c0.1,0.6,0.6,0.6,1.1,0.6c0.3,0,3.2-0.2,4-0.3
		c0.2,0,0.3-0.1,0.3-0.2c0.1-0.1,0.2-0.2,0.3-0.2c0.2,0,0.9,0.5,0.9,0.7c0,0.2-0.2,0.2-0.3,0.3c-0.2,0.1-0.3,0.2-0.3,0.3
		c-0.4,0.8-1.4,2.3-2.1,3.2c1.1,0.7,2.5,1.6,3.3,2.3c0.6,0.6,1,1.2,1,1.5c0,0.3-0.1,0.5-0.4,0.5c-0.2,0-0.5-0.4-0.9-1.1
		c-0.6-0.9-2.2-2.3-3.3-2.9c-1,1.3-2.9,3.1-4.9,4.1L39,127.3z"/>
	<path d="M53.5,118.1c0.1-0.2,0.3-0.3,0.5-0.3c0.5,0,1.4,0.3,1.4,0.7c0,0.1-0.1,0.2-0.2,0.3c0,0.1-0.1,0.2-0.1,0.3
		c0,0.5,0,1.4-0.1,2.5c1.5,0.2,2.8,0.6,3.5,0.9c0.7,0.4,1,0.6,1,1c0,0.2-0.1,0.3-0.3,0.3c-0.3,0-0.6-0.3-0.9-0.6
		c-0.5-0.5-1.8-1-3.3-1.4c0,0.9,0,1.8,0,2.5c0,0.4,0,2.4,0,2.8c0,0.5-0.2,0.6-0.4,0.6c-0.4,0-0.6-1.2-0.6-1.4
		c0.1-0.1,0.2-0.3,0.2-0.5c0.1-0.8,0.1-1.5,0.1-4.1c0-1.1,0-2.3,0-2.8C54.4,118.7,54.3,118.1,53.5,118.1L53.5,118.1z"/>
	<path d="M68.7,125.9c-1,1.2-1.7,1.7-2.5,1.7c-1.5,0-2.3-1.2-2.3-2.1c0-1,0.6-1.8,2.2-2.6c-0.7-0.8-0.8-1.1-0.8-1.8
		c0-1,0.7-1.9,1.6-1.9c0.9,0,1.7,0.7,1.7,1.8c0,0.9-0.4,1.5-1.5,1.9c0.5,0.5,1.4,1.6,1.8,2c0.4-0.5,1.2-1.7,1.4-2.1
		c0.2-0.3,0-0.4-0.9-0.4V122h2.7v0.4c-0.6,0-0.9,0-1.2,0.4c-0.6,0.9-1.1,1.5-1.7,2.4c1.4,1.9,1.8,2.1,2.7,0.9l0.3,0.2
		C71.1,128.1,70.2,128.1,68.7,125.9z M66.5,123.2c-0.9,0.3-1.7,1.4-1.7,2c0,0.9,0.6,1.5,1.3,1.6c0.8,0.1,1.4-0.1,2.3-1.3
		C67.8,124.7,67.3,124.1,66.5,123.2z M67,119.6c-0.6,0-1,0.6-1,1.2c0,0.7,0.2,1,0.9,1.7c1.1-0.5,1.3-1,1.3-1.6
		C68.1,120.1,67.7,119.6,67,119.6z"/>
	<path d="M81.2,121.7c1.2-1.1,2-2.6,2-2.6c0,0,0-0.1-0.1-0.1c-1.5,0.1-4.5,0.3-5.2,0.4c-0.5,0.1-0.9,0.1-1.1,0.2
		c-0.3,0.1-0.3,0.2-0.6,0.2c-0.4,0-1-0.7-1-1c0-0.3,0.1-0.4,0.3-0.6l0,0c0,0.5,0.4,0.8,1,0.8c1.2,0,5.2-0.3,6.1-0.3
		c0.2,0,0.3,0,0.4-0.1c0.2-0.1,0.3-0.3,0.4-0.3c0.2,0,1,0.7,1,1c0,0.1-0.2,0.2-0.4,0.3c-0.2,0-0.4,0.1-0.6,0.4
		c-0.5,0.6-1.2,1.5-2.1,2.1L81.2,121.7z M78.8,121c0-0.2,0.3-0.3,0.6-0.3c0.5,0,1.2,0.3,1.2,0.6c0,0.1-0.1,0.1-0.1,0.2
		c-0.1,0.1-0.1,0.3-0.2,0.6c-0.6,2.2-1.6,4.2-4.1,5.8l-0.2-0.3c3.3-2.3,3.7-5.9,3.7-6.1c0-0.4-0.4-0.4-0.6-0.4
		C78.9,121,78.9,121,78.8,121L78.8,121z"/>
	<path d="M87.8,118.8c1.5,0.2,3.3,1.1,3.3,2c0,0.2-0.1,0.4-0.4,0.4c-0.2,0-0.4-0.3-0.6-0.5c-0.4-0.5-1.3-1.3-2.5-1.7L87.8,118.8z
		 M97.2,119.8c-1.5,3.3-4.4,5.7-7.3,7.1c-0.6,0.3-0.6,0.6-0.8,0.6c-0.4,0-1.2-0.6-1.2-1.2c0-0.1,0.2-0.3,0.3-0.4
		c0.1,0.4,0.4,0.7,0.7,0.7c0.8,0,5.7-2.4,8-6.9L97.2,119.8z"/>
	<path d="M99.5,123.4c2.3-1.8,3.4-4.4,3.4-5c0-0.2-0.3-0.4-0.6-0.4c0.1-0.2,0.2-0.3,0.6-0.3c0.4,0,1.2,0.4,1.2,0.7
		c0,0.1-0.2,0.2-0.3,0.3c-0.1,0.1-0.1,0.1-0.2,0.3c-0.2,0.4-0.4,0.9-0.7,1.3c0.7,0,3.1-0.3,3.4-0.3c0.3,0,0.3-0.1,0.4-0.2
		s0.1-0.2,0.2-0.2c0.2,0,0.9,0.5,0.9,0.7c0,0.1-0.2,0.2-0.3,0.2c-0.1,0-0.3,0.2-0.3,0.4c-1,2.8-2.8,5.5-6.5,7l-0.2-0.3
		c3.2-1.6,5.2-4.2,6.1-7.1c0-0.1,0-0.1,0-0.2c0-0.1,0-0.1-0.1-0.1c-0.4,0-2.8,0.5-3.1,0.5c-0.4,0-0.6-0.1-0.8-0.2
		c-0.7,1.1-1.6,2.2-2.9,3L99.5,123.4z M106.6,117.4c0.9,0.4,1.6,1.1,1.6,1.6c0,0.3-0.2,0.4-0.3,0.4c-0.2,0-0.2-0.1-0.3-0.3
		c-0.1-0.4-0.5-1-1.2-1.4L106.6,117.4z M108.1,117c0.9,0.4,1.6,1.1,1.6,1.6c0,0.3-0.2,0.4-0.3,0.4c-0.2,0-0.2-0.1-0.3-0.3
		c-0.1-0.4-0.5-1-1.2-1.4L108.1,117z"/>
</g>
<g>
	<path d="M32,290.6c0.1-0.2,0.3-0.3,0.6-0.3c0.4,0,1.1,0.4,1.1,0.6c0,0.1,0,0.2-0.1,0.3c0,0-0.1,0.1-0.2,0.4
		c-0.1,0.5-0.2,1.2-0.4,1.7c1-0.1,2.2-0.2,2.9-0.2c0.2,0,0.2-0.1,0.3-0.2c0.1-0.1,0.2-0.2,0.3-0.2c0.1,0,0.8,0.5,0.8,0.7
		c0,0.1-0.2,0.2-0.3,0.3c-0.1,0.1-0.1,0.2-0.1,0.5c-0.1,1.6-0.5,6-2,6c-0.1,0-0.2-0.1-0.3-0.2c-0.1-0.1-0.2-0.3-0.4-0.5
		c-0.3-0.2-1.1-0.6-1.8-1l0.1-0.2c0.6,0.3,2,0.9,2.4,0.9c0.8,0,1.4-3.1,1.4-5.5c0-0.3,0-0.3-0.2-0.3c-0.1,0-1.5,0.1-3.3,0.3
		c-0.6,2.3-1.8,4.7-4.4,6.4l-0.2-0.3c2.6-2,3.6-4.3,4-6.1c-0.8,0.1-2,0.2-2.4,0.4c-0.1,0.1-0.2,0.1-0.3,0.1c-0.3,0-0.9-0.5-0.9-0.9
		c0-0.2,0.1-0.3,0.2-0.4l0.1,0c0.1,0.5,0.4,0.6,0.9,0.6c0.5,0,1.6-0.1,2.4-0.2c0.1-0.6,0.3-1.8,0.3-2.1
		C32.8,290.8,32.6,290.7,32,290.6L32,290.6z"/>
	<path d="M47.5,290.5c0.1-0.1,0.3-0.3,0.5-0.3c0.6,0,1.4,0.5,1.4,0.9c0,0.1-0.1,0.1-0.3,0.2c-0.2,0.1-0.3,0.1-0.4,0.3
		c-0.9,0.8-2.2,1.9-3.1,2.5c0.2,0.1,0.4,0.4,0.4,0.6c0,0.1-0.1,0.2-0.1,0.4c0,0.5,0,1.8,0,2.2c0,0.6,0,1.1,0,1.4c0,0.4,0,0.8,0,1
		c0,0.5-0.1,0.7-0.4,0.7c-0.2,0-0.4-0.5-0.5-1.1c0.2-0.3,0.2-0.5,0.2-0.9c0-0.5,0.1-1.6,0.1-2.4c0-0.8,0-1.4-0.2-1.6
		c-1.1,0.8-3,1.9-5.2,2.9l-0.1-0.3c5.1-2.6,8.3-5.6,8.3-6.1C48.2,290.7,47.8,290.5,47.5,290.5L47.5,290.5z"/>
	<path d="M54.5,294.7c1,0.5,2,1.1,2.6,1.6c1.9-1.4,3.6-3.3,3.6-3.5c0-0.1-0.1-0.1-0.1-0.2c-1.3,0-5,0.3-6.4,0.5
		c-0.5,0.1-0.6,0.1-0.7,0.2c-0.1,0-0.3,0.2-0.4,0.2c-0.4,0-1-0.8-1-1.2c0-0.2,0.2-0.4,0.3-0.4c0.1,0.6,0.6,0.8,1.2,0.8
		c0.9,0,5.3-0.2,6.9-0.3c0.3,0,0.5-0.4,0.7-0.4c0.2,0,1.1,0.7,1.1,0.9c0,0.1-0.2,0.2-0.4,0.3c-0.1,0-0.3,0.1-0.4,0.2
		c-0.8,0.9-2.4,2.3-4,3.3c0.8,0.6,1.6,1.8,1.6,2.4c0,0.3-0.1,0.5-0.3,0.5c-0.3,0-0.5-0.6-0.7-1c-0.8-1.4-1.9-2.3-3.6-3.4L54.5,294.7
		z"/>
	<path d="M65.1,291.3c1.5,0.2,3.3,1.1,3.3,2c0,0.2-0.1,0.4-0.4,0.4c-0.2,0-0.4-0.3-0.6-0.5c-0.4-0.5-1.3-1.3-2.5-1.7L65.1,291.3z
		 M74.4,292.3c-1.5,3.3-4.4,5.7-7.3,7.1c-0.6,0.3-0.6,0.6-0.8,0.6c-0.4,0-1.2-0.6-1.2-1.2c0-0.1,0.2-0.3,0.3-0.4
		c0.1,0.4,0.4,0.7,0.7,0.7c0.8,0,5.7-2.4,8-6.9L74.4,292.3z"/>
	<path d="M86.6,299.8c0.1,0.1,0.1,0.2,0.1,0.2s-0.1,0-0.2,0h-9.8c-0.3,0-0.6,0-0.8,0.1l-0.3-0.4c0.3,0,0.6,0,0.9,0h1.2v-2.1
		c0-0.3,0-0.9,0-1.2l0.7,0.5h5.9l0.3-0.4l0.7,0.6c0.1,0,0.1,0.1,0.1,0.1c0,0,0,0-0.1,0.1l-0.4,0.2v2.2h0.7l0.5-0.6L86.6,299.8z
		 M82.1,295.8c0.1,0.1,0.1,0.1,0.1,0.2s0,0-0.1,0h-4.4l-0.2,0.3c0,0.1-0.1,0.1-0.1,0.1c0,0-0.1,0-0.1,0l-0.7-0.5l0.5-0.3v-3.8
		c0-0.9,0-1.6,0-2.1l0.7,0.6h3.2l0.4-0.5l0.6,0.6c0.1,0.1,0.1,0.1,0.1,0.2c0,0-0.1,0-0.2,0h-2.3v1.5h1.2l0.3-0.4l0.6,0.5
		c0.1,0.1,0.1,0.1,0.1,0.1c0,0,0,0.1-0.1,0.1l-0.3,0.2v0.6c0,0.2,0,0.9,0,1.1c0,0.2-0.5,0.3-0.5,0.3c-0.1,0-0.1-0.1-0.1-0.2v-0.4
		h-1.3v1.6H81l0.4-0.6L82.1,295.8z M79,292.2v-1.5h-1.5v1.5H79z M80.8,293.9v-1.4h-3.3v1.4H80.8z M79,295.7v-1.6h-1.5v1.6H79z
		 M79.8,299.8v-2.5h-1.7v2.5H79.8z M82,299.8v-2.5h-1.7v2.5H82z M86.7,292c0.1,0.1,0.1,0.1,0.1,0.2s-0.1,0-0.2,0h-3.5
		c-0.6,1.2-1.2,2.2-1.5,2.6l-0.2-0.1c0.9-1.6,1.7-4.1,1.9-5l0.8,0.6c0.1,0,0.1,0.1,0.1,0.1c0,0-0.1,0.1-0.2,0.1
		c-0.2,0.1-0.3,0.1-0.3,0.3c-0.2,0.4-0.3,0.8-0.5,1.2h2.3l0.5-0.6L86.7,292z M84.3,299.8v-2.5h-1.8v2.5H84.3z M83.4,293.3
		c0.8,0.5,1.6,1.4,1.6,2c0,0.4-0.3,0.6-0.4,0.6c-0.2,0-0.3-0.1-0.3-0.6c-0.1-0.5-0.3-1.2-1-1.9L83.4,293.3z"/>
	<path d="M87.5,295.9c2.3-1.5,3.7-2.8,4.6-4.2h-2.9c-0.3,0-0.6,0-0.8,0.1l-0.3-0.4c0.3,0,0.6,0,0.9,0h3.8V291c0-0.7,0-1,0-1.4
		l0.9,0.4c0.1,0,0.1,0.1,0.1,0.1c0,0,0,0.1-0.4,0.3v1.1h3.3l0.5-0.7l0.8,0.8c0.1,0,0.1,0.1,0.1,0.1c0,0,0,0-0.2,0h-4
		c1.6,2,3,2.7,4.8,2.8l0,0.2c-0.6,0.1-0.8,0.2-0.9,0.5c0,0,0,0-0.1,0c0,0-0.1,0-0.1,0c-1.9-0.9-3.1-2-4-3.6h-0.2v1.6
		c0,0.6,0,0.9,0,1.3c0,0,0,0.1,0,0.1c0,0.2-0.1,0.2-0.3,0.3c-0.1,0-0.2,0.1-0.2,0.1c-0.1,0-0.1-0.1-0.1-0.2v0c0-0.4,0-0.9,0-1.4
		v-1.6c-0.8,1.1-1.8,2-3,2.9l0.7,0.5h5.4l0.4-0.4l0.6,0.5c0.1,0,0.1,0.1,0.1,0.1c0,0,0,0.1-0.3,0.3v4.2h0.6l0.6-0.7l0.8,0.8
		c0.1,0.1,0.1,0.1,0.1,0.1c0,0-0.1,0.1-0.2,0.1h-9.8c-0.3,0-0.6,0-0.8,0.1l-0.3-0.4c0.3,0,0.6,0,0.9,0h1.3v-4c0-0.4,0-0.7,0-1.1
		c-0.6,0.4-1.3,0.8-2.1,1.3L87.5,295.9z M96,296.8v-1.3h-5.7v1.3H96z M96,298.3V297h-5.7v1.2H96z M96,299.9v-1.3h-5.7v1.3H96z"/>
	<path d="M5.7,314.4c4-1.8,5.5-5,6-7.8c0,0,0,0,0-0.1c0-0.1,0-0.1-0.2-0.1c-0.3,0-5,0.3-5.6,0.6c-0.2,0.1-0.3,0.2-0.5,0.2
		c-0.4,0-0.9-0.7-0.9-1.2c0-0.2,0.2-0.3,0.3-0.4l0,0c0.1,0.7,0.7,0.7,1.2,0.7c0.6,0,4.4-0.2,5-0.2c0.2,0,0.3-0.3,0.5-0.3
		c0.3,0,1,0.7,1,0.9c0,0.1-0.2,0.2-0.3,0.3c-0.1,0.1-0.1,0.1-0.2,0.3c-0.6,2.5-2.2,5.8-6.4,7.4L5.7,314.4z M13.8,303.8
		c0.7,0,1.3,0.6,1.3,1.3c0,0.7-0.6,1.3-1.3,1.3c-0.7,0-1.3-0.6-1.3-1.3C12.5,304.3,13.1,303.8,13.8,303.8z M14.7,305.1
		c0-0.5-0.4-0.9-0.9-0.9c-0.5,0-1,0.4-1,0.9c0,0.5,0.4,1,1,1C14.3,306,14.7,305.6,14.7,305.1z"/>
	<path d="M18.1,314.5c3.2-1.1,5.3-2.8,6.2-5.7c0-0.1,0.1-0.2,0.1-0.3c0-0.1,0-0.1-0.1-0.1c-0.1,0-5.3,0.4-6.2,0.7
		c-0.1,0-0.2,0.2-0.4,0.2c-0.4,0-1.1-0.7-1.1-1.1c0-0.2,0.1-0.4,0.2-0.6h0.1c0,0.7,0.7,0.7,1.2,0.7c0.6,0,4.6-0.3,6-0.4
		c0.2,0,0.4-0.4,0.6-0.4c0.2,0,0.9,0.6,0.9,0.8c0,0.1-0.2,0.2-0.3,0.2c-0.1,0-0.3,0.1-0.3,0.2c-1.2,3.2-3.3,4.9-6.8,5.9L18.1,314.5z
		 M18.1,305.1c0.1,0.3,0.6,0.5,1.3,0.5c0.5,0,2.2-0.1,2.9-0.3c0.4-0.1,0.6-0.2,0.8-0.4c0.6,0.1,1.2,0.2,1.2,0.5
		c0,0.2-0.3,0.3-0.8,0.3c-0.7,0-2,0.1-3,0.2c-0.6,0-1,0.1-1.3,0.1c-0.9,0-1.3-0.4-1.3-0.7C17.9,305.2,18,305.1,18.1,305.1z"/>
	<path d="M35.5,304.9c0.1-0.1,0.3-0.3,0.5-0.3c0.6,0,1.4,0.5,1.4,0.9c0,0.1-0.1,0.1-0.3,0.2c-0.2,0.1-0.3,0.1-0.4,0.3
		c-0.9,0.8-2.2,1.9-3.1,2.5c0.2,0.1,0.4,0.4,0.4,0.6c0,0.1-0.1,0.2-0.1,0.4c0,0.5,0,1.8,0,2.2c0,0.6,0,1.1,0,1.4c0,0.4,0,0.8,0,1
		c0,0.5-0.1,0.7-0.4,0.7c-0.2,0-0.4-0.5-0.5-1.1c0.2-0.3,0.2-0.5,0.2-0.9c0-0.5,0.1-1.6,0.1-2.4c0-0.8,0-1.4-0.2-1.6
		c-1.1,0.8-3,1.9-5.2,2.9l-0.1-0.3c5.1-2.6,8.3-5.6,8.3-6.1C36.2,305.1,35.8,304.9,35.5,304.9L35.5,304.9z"/>
	<path d="M40.2,314.1c2.8-1.6,5.9-5.2,6.9-7.8c0,0,0-0.1,0-0.1c0,0,0-0.1-0.1-0.1c-0.2,0-2.5,0.2-3.6,0.4c-0.3,0.1-0.4,0.1-0.5,0.2
		c-0.1,0.1-0.1,0.1-0.3,0.1c-0.4,0-1-0.6-1-1c0-0.3,0.2-0.4,0.3-0.4c0.1,0.6,0.6,0.6,1.1,0.6c0.3,0,3.2-0.2,4-0.3
		c0.2,0,0.3-0.1,0.3-0.2c0.1-0.1,0.2-0.2,0.3-0.2c0.2,0,0.9,0.5,0.9,0.7c0,0.2-0.2,0.2-0.3,0.3c-0.2,0.1-0.3,0.2-0.3,0.3
		c-0.4,0.8-1.4,2.3-2.1,3.2c1.1,0.7,2.5,1.6,3.3,2.3c0.6,0.6,1,1.2,1,1.5c0,0.3-0.1,0.5-0.4,0.5c-0.2,0-0.5-0.4-0.9-1.1
		c-0.6-0.9-2.2-2.3-3.3-2.9c-1,1.3-2.9,3.1-4.9,4.1L40.2,314.1z"/>
	<path d="M55.9,304.8c0.1-0.2,0.3-0.3,0.6-0.3c0.4,0,1.2,0.3,1.2,0.6c0,0.1-0.1,0.2-0.2,0.3c0,0.1-0.1,0.2-0.1,0.4
		c0,0.3,0,1.1,0,1.4c0.9,0,1.7-0.1,2.2-0.1c0.4,0,0.7-0.1,0.8-0.2c0.1-0.1,0.2-0.3,0.3-0.3c0.2,0,1,0.7,1,0.8s-0.2,0.2-0.3,0.3
		c-0.1,0-0.2,0.1-0.3,0.3c-0.6,3-2.1,5.6-6.1,6.9l-0.1-0.3c3.6-1.4,5-4,5.6-7.1c0,0,0-0.1,0-0.1c0-0.1-0.1-0.1-0.2-0.1
		c-0.5,0-4.3,0.3-4.7,0.3c-0.5,0.1-0.7,0.1-1.1,0.1c-0.2,0-0.4,0-0.5-0.1c0,0.8,0.1,2.2,0.2,2.6c0,0.1,0,0.1,0,0.2
		c0,0.2-0.1,0.4-0.3,0.4c-0.3,0-0.4-0.3-0.5-1c0.1-0.1,0.1-0.2,0.1-0.5c0-0.5-0.1-1.4-0.2-1.7c-0.1-0.4-0.3-0.7-0.7-0.8l0-0.1
		c0.1-0.1,0.3-0.1,0.5-0.1c0.3,0,0.7,0.3,0.8,0.6c0.1,0,0.4,0,0.4,0c0.4,0,1.5,0,2.4-0.1c0-0.4,0-1.4,0-1.6c0-0.3-0.1-0.7-0.7-0.7
		C56.1,304.9,56,304.9,55.9,304.8L55.9,304.8z"/>
	<path d="M65.4,308.5c0.1,0.4,0.5,0.5,0.9,0.5c0.5,0,2.1-0.1,3.2-0.2c0-1.6,0-1.8-0.3-2.1c-0.1-0.1-0.3-0.1-0.6-0.1
		c0-0.2,0.2-0.4,0.4-0.4c0.6,0,1.2,0.4,1.2,0.7c0,0.3-0.2,0.1-0.2,0.8v1c0.5,0,1.7-0.1,2-0.4c0.6,0.1,1,0.3,1,0.6
		c0,0.1-0.1,0.2-0.2,0.2h-0.1c-0.3,0-0.7-0.1-1.2-0.1c-0.4,0-1.1,0-1.5,0.1l0.1,3.3c0,0.3,0,0.6,0,0.9c0,0.1,0.1,0.3,0.1,0.5
		c0,0.4-0.3,1-0.7,1c-0.1,0-0.2-0.1-0.2-0.3c0-0.1-0.1-0.2-0.3-0.3c-0.2-0.1-1.1-0.7-1.4-0.9l0.1-0.2c0.3,0.2,1.5,0.7,1.8,0.7
		c0.1,0,0.1-0.1,0.1-0.3v-0.8c0-0.5,0-1.8,0-3c-1.2,1.6-2.8,2.9-4.6,3.8l-0.2-0.3c1.5-0.8,3.5-2.6,4.4-4.1c-0.7,0.1-1.7,0.2-2.5,0.3
		c-0.4,0.1-0.5,0.2-0.6,0.2c-0.3,0-0.9-0.6-0.9-0.9C65.2,308.7,65.2,308.6,65.4,308.5L65.4,308.5z"/>
	<path d="M85.7,309.5c0,0.1-0.1,0.1-0.3,0.1c-0.1,0-0.1,0-0.2,0c-0.2,0-0.6-0.1-1.2-0.1c-0.8,0-1.8,0-3.3,0.1
		c-1.4,0.1-2.1,0.2-2.7,0.4c-0.2,0-0.3,0.1-0.5,0.1c-0.4,0-0.9-0.6-0.9-0.7c0-0.1,0-0.1,0.1-0.1c0.1,0,0.1,0,0.2,0
		c0.2,0.1,0.3,0.1,0.7,0.1c0.5,0,1.3-0.1,2.9-0.2c3.1-0.3,3.2-0.3,3.5-0.4c0.2,0,0.3-0.1,0.5-0.1c0.2,0,0.4,0.1,0.7,0.3
		C85.6,309.2,85.7,309.4,85.7,309.5z"/>
	<path d="M88.8,310.1c1.5-1.2,3.1-3.1,3.5-4.4c0.1-0.2,0.1-0.4,0.1-0.5c0-0.3-0.6-0.4-0.7-0.4c0-0.2,0.2-0.3,0.5-0.3
		c0.5,0,1.3,0.4,1.3,0.7c0,0.1-0.1,0.2-0.2,0.3c-0.1,0.1-0.2,0.2-0.3,0.5c-0.1,0.2-0.2,0.4-0.3,0.6c0.1,0,0.3,0,0.4,0
		c0.4,0,2.1-0.1,2.8-0.2c0.3,0,0.3,0,0.4-0.1c0.1-0.1,0.2-0.2,0.3-0.2c0.2,0,0.9,0.6,0.9,0.8c0,0.1-0.1,0.2-0.3,0.2
		c-0.1,0-0.3,0.1-0.4,0.3c-0.4,0.9-1.1,2.3-1.6,3c0.5,0.3,1.3,0.9,1.3,1.4c0,0.2-0.2,0.3-0.3,0.3c-0.2,0-0.4-0.2-0.5-0.4
		c-0.2-0.3-0.6-0.6-0.9-0.8c-1.2,1.5-3,2.9-5.2,3.8l-0.2-0.3c2-1,3.8-2.5,4.9-3.9c-0.6-0.4-1.5-0.9-2.7-1.2l0.1-0.3
		c1.2,0.2,2.3,0.7,2.9,1c1.1-1.7,1.6-3.1,1.6-3.2c0-0.1,0-0.1-0.2-0.1c-0.5,0-2.8,0.4-3.1,0.4c-0.2,0-0.4-0.1-0.5-0.2
		c-0.8,1.2-1.8,2.3-3.3,3.4L88.8,310.1z"/>
	<path d="M109.7,309.5c0,0.1-0.1,0.1-0.3,0.1c-0.1,0-0.1,0-0.2,0c-0.2,0-0.6-0.1-1.2-0.1c-0.8,0-1.8,0-3.3,0.1
		c-1.4,0.1-2.1,0.2-2.7,0.4c-0.2,0-0.3,0.1-0.5,0.1c-0.4,0-0.9-0.6-0.9-0.7c0-0.1,0-0.1,0.1-0.1c0.1,0,0.1,0,0.2,0
		c0.2,0.1,0.3,0.1,0.7,0.1c0.5,0,1.3-0.1,2.9-0.2c3.1-0.3,3.2-0.3,3.5-0.4c0.2,0,0.3-0.1,0.5-0.1c0.2,0,0.4,0.1,0.7,0.3
		C109.6,309.2,109.7,309.4,109.7,309.5z"/>
	<path d="M114,307.1c0.1-0.3,0.3-0.3,0.5-0.3c0.5,0,1.3,0.5,1.3,0.8c0,0.3-0.2,0.1-0.4,0.8c-0.6,1.7-1.7,3.6-3.3,4.9l-0.3-0.3
		c2-2,3-4.8,3-5.3C114.7,307.3,114.4,307.1,114,307.1L114,307.1z M118.5,307.1c2.1,1.4,4,4,4,5.3c0,0.3,0,0.6-0.3,0.6
		c-0.2,0-0.3-0.2-0.5-0.5c-0.5-1.6-1.5-3.6-3.4-5.1L118.5,307.1z"/>
	<path d="M25.9,319.2c0.1-0.2,0.3-0.3,0.6-0.3c0.4,0,1.2,0.3,1.2,0.6c0,0.1-0.1,0.2-0.2,0.3c0,0.1-0.1,0.2-0.1,0.4
		c0,0.3,0,1.1,0,1.4c0.9,0,1.7-0.1,2.2-0.1c0.4,0,0.7-0.1,0.8-0.2c0.1-0.1,0.2-0.3,0.3-0.3c0.2,0,1,0.7,1,0.8c0,0.1-0.2,0.2-0.3,0.3
		c-0.1,0-0.2,0.1-0.3,0.3c-0.6,3-2.1,5.6-6.1,6.9l-0.1-0.3c3.6-1.4,5-4,5.6-7.1c0,0,0-0.1,0-0.1c0-0.1-0.1-0.1-0.2-0.1
		c-0.5,0-4.3,0.3-4.7,0.3c-0.5,0.1-0.7,0.1-1.1,0.1c-0.2,0-0.4,0-0.5-0.1c0,0.8,0.1,2.2,0.2,2.6c0,0.1,0,0.1,0,0.2
		c0,0.2-0.1,0.4-0.3,0.4c-0.3,0-0.4-0.3-0.5-1c0.1-0.1,0.1-0.2,0.1-0.5c0-0.5-0.1-1.4-0.2-1.7c-0.1-0.4-0.3-0.7-0.7-0.8l0-0.1
		c0.1-0.1,0.3-0.1,0.5-0.1c0.3,0,0.7,0.3,0.8,0.6c0.1,0,0.4,0,0.4,0c0.4,0,1.5,0,2.4-0.1c0-0.4,0-1.4,0-1.6c0-0.3-0.1-0.7-0.7-0.7
		C26.1,319.3,26,319.3,25.9,319.2L25.9,319.2z"/>
	<path d="M34.2,328.5c2.8-1.6,5.9-5.2,6.9-7.8c0,0,0-0.1,0-0.1c0,0,0-0.1-0.1-0.1c-0.2,0-2.5,0.2-3.6,0.4c-0.3,0.1-0.4,0.1-0.5,0.2
		c-0.1,0.1-0.1,0.1-0.3,0.1c-0.4,0-1-0.6-1-1c0-0.3,0.2-0.4,0.3-0.4c0.1,0.6,0.6,0.6,1.1,0.6c0.3,0,3.2-0.2,4-0.3
		c0.2,0,0.3-0.1,0.3-0.2c0.1-0.1,0.2-0.2,0.3-0.2c0.2,0,0.9,0.5,0.9,0.7c0,0.2-0.2,0.2-0.3,0.3c-0.2,0.1-0.3,0.2-0.3,0.3
		c-0.4,0.8-1.4,2.3-2.1,3.2c1.1,0.7,2.5,1.6,3.3,2.3c0.6,0.6,1,1.2,1,1.5c0,0.3-0.1,0.5-0.4,0.5c-0.2,0-0.5-0.4-0.9-1.1
		c-0.6-0.9-2.2-2.3-3.3-2.9c-1,1.3-2.9,3.1-4.9,4.1L34.2,328.5z"/>
	<path d="M47,324.6c2.3-1.8,3.4-4.4,3.4-5c0-0.2-0.3-0.4-0.6-0.4c0.1-0.2,0.2-0.3,0.6-0.3c0.4,0,1.2,0.4,1.2,0.7
		c0,0.1-0.2,0.2-0.3,0.3c-0.1,0.1-0.1,0.1-0.2,0.3c-0.2,0.4-0.4,0.9-0.7,1.3c0.7,0,3.1-0.3,3.4-0.3c0.3,0,0.3-0.1,0.4-0.2
		s0.1-0.2,0.2-0.2c0.2,0,0.9,0.5,0.9,0.7c0,0.1-0.2,0.2-0.3,0.2c-0.1,0-0.3,0.2-0.3,0.4c-1,2.8-2.8,5.5-6.5,7L48,329
		c3.2-1.6,5.2-4.2,6.1-7.1c0-0.1,0-0.1,0-0.2c0-0.1,0-0.1-0.1-0.1c-0.4,0-2.8,0.5-3.1,0.5c-0.4,0-0.6-0.1-0.8-0.2
		c-0.7,1.1-1.6,2.2-2.9,3L47,324.6z"/>
	<path d="M67.7,323.9c0,0.1-0.1,0.1-0.3,0.1c-0.1,0-0.1,0-0.2,0c-0.2,0-0.6-0.1-1.2-0.1c-0.8,0-1.8,0-3.3,0.1
		c-1.4,0.1-2.1,0.2-2.7,0.4c-0.2,0-0.3,0.1-0.5,0.1c-0.4,0-0.9-0.6-0.9-0.7c0-0.1,0-0.1,0.1-0.1c0.1,0,0.1,0,0.2,0
		c0.2,0.1,0.3,0.1,0.7,0.1c0.5,0,1.3-0.1,2.9-0.2c3.1-0.3,3.2-0.3,3.5-0.4c0.2,0,0.3-0.1,0.5-0.1c0.2,0,0.4,0.1,0.7,0.3
		C67.6,323.6,67.7,323.8,67.7,323.9z"/>
	<path d="M72,321.6c0.1-0.3,0.3-0.3,0.5-0.3c0.5,0,1.3,0.5,1.3,0.8c0,0.3-0.2,0.1-0.4,0.8c-0.6,1.7-1.7,3.6-3.3,4.9l-0.3-0.3
		c2-2,3-4.8,3-5.3C72.7,321.9,72.4,321.6,72,321.6L72,321.6z M76.5,321.6c2.1,1.4,4,4,4,5.3c0,0.3,0,0.6-0.3,0.6
		c-0.2,0-0.3-0.2-0.5-0.5c-0.5-1.6-1.5-3.6-3.4-5.1L76.5,321.6z M78.9,319c0.7,0,1.4,0.6,1.4,1.4c0,0.8-0.6,1.4-1.4,1.4
		c-0.8,0-1.4-0.6-1.4-1.4C77.5,319.6,78.1,319,78.9,319z M79.8,320.3c0-0.5-0.4-1-1-1c-0.5,0-1,0.4-1,1c0,0.5,0.4,1,1,1
		C79.4,321.3,79.8,320.8,79.8,320.3z"/>
	<path d="M91.7,323.9c0,0.1-0.1,0.1-0.3,0.1c-0.1,0-0.1,0-0.2,0c-0.2,0-0.6-0.1-1.2-0.1c-0.8,0-1.8,0-3.3,0.1
		c-1.4,0.1-2.1,0.2-2.7,0.4c-0.2,0-0.3,0.1-0.5,0.1c-0.4,0-0.9-0.6-0.9-0.7c0-0.1,0-0.1,0.1-0.1c0.1,0,0.1,0,0.2,0
		c0.2,0.1,0.3,0.1,0.7,0.1c0.5,0,1.3-0.1,2.9-0.2c3.1-0.3,3.2-0.3,3.5-0.4c0.2,0,0.3-0.1,0.5-0.1c0.2,0,0.4,0.1,0.7,0.3
		C91.6,323.6,91.7,323.8,91.7,323.9z"/>
	<path d="M94.2,328.5c2.8-1.6,5.9-5.2,6.9-7.8c0,0,0-0.1,0-0.1c0,0,0-0.1-0.1-0.1c-0.2,0-2.5,0.2-3.6,0.4c-0.3,0.1-0.4,0.1-0.5,0.2
		c-0.1,0.1-0.1,0.1-0.3,0.1c-0.4,0-1-0.6-1-1c0-0.3,0.2-0.4,0.3-0.4c0.1,0.6,0.6,0.6,1.1,0.6c0.3,0,3.2-0.2,4-0.3
		c0.2,0,0.3-0.1,0.3-0.2c0.1-0.1,0.2-0.2,0.3-0.2c0.2,0,0.9,0.5,0.9,0.7c0,0.2-0.2,0.2-0.3,0.3c-0.2,0.1-0.3,0.2-0.3,0.3
		c-0.4,0.8-1.4,2.3-2.1,3.2c1.1,0.7,2.5,1.6,3.3,2.3c0.6,0.6,1,1.2,1,1.5c0,0.3-0.1,0.5-0.4,0.5c-0.2,0-0.5-0.4-0.9-1.1
		c-0.6-0.9-2.2-2.3-3.3-2.9c-1,1.3-2.9,3.1-4.9,4.1L94.2,328.5z"/>
</g>
<g>
	<path d="M224.4,106.8l-1.5,2.2c-0.3,0.4-0.4,0.6-0.4,0.9c0,0.1,0.1,0.7,0.1,0.9c0,0.3-0.1,0.4-0.4,0.4c-0.2,0-0.3-0.1-0.3-0.4
		c0-0.1,0.1-0.6,0.1-0.6c0-0.3-0.1-0.4-0.4-0.5c-0.4-0.1-0.6-0.2-0.9-0.2l0-0.2c0.3,0,0.6,0.1,0.8,0.1c0.4,0,0.6-0.1,0.9-0.4
		l1.8-2.1L224.4,106.8z M225.6,115.7C225.6,115.7,225.6,115.7,225.6,115.7C225.6,115.8,225.6,115.8,225.6,115.7
		c-0.2,0.1-0.6,0.2-0.9,0.3c-0.9,0.3-2.6,0.9-3.5,1.1l-0.1-0.1c1.4-0.5,2.9-1.1,3.7-1.7L225.6,115.7z M221.4,106.3
		c0.8,0.1,1.5,0.4,1.6,0.7c0,0.1,0.1,0.2,0.1,0.3c0,0.3-0.2,0.5-0.3,0.5c-0.1,0-0.1,0-0.3-0.3c-0.1-0.3-0.4-0.7-1.1-1L221.4,106.3z
		 M230.2,111C230.3,111.1,230.3,111.1,230.2,111c0.1,0.1,0.1,0.1,0,0.2l-0.4,0.3v2.1c0,0.7,0,1.2,0,1.5v0.1c0,0.1,0,0.2-0.3,0.3
		c-0.1,0-0.2,0.1-0.2,0.1c-0.1,0-0.1,0-0.1-0.4h-6v0.2c0,0.1,0,0.1-0.3,0.3c-0.1,0-0.2,0.1-0.2,0.1c-0.1,0-0.1,0-0.1-0.2v-0.1
		c0-0.4,0-0.9,0-1.4v-1.8c0-0.4,0-1,0-1.4l0.6,0.4h5.6l0.4-0.5L230.2,111z M229.3,112.3v-0.9h-6v0.9H229.3z M229.3,113.5v-1h-6v1
		H229.3z M229.3,114.7v-1h-6v1H229.3z M232,110.3c-0.6,0.1-0.9,0.2-1,0.5c0,0,0,0-0.1,0c0,0,0,0-0.1,0c-1.5-0.5-2.6-1.2-3.3-2.4
		c-0.9,1.5-1.8,2.1-3.9,2.4l-0.1-0.2c2.1-0.6,3.1-1.4,3.6-3l0.8,0.3c0,0,0.1,0,0.1,0c0,0-0.3,0.2-0.3,0.2c1.1,1.5,2.7,2,4.3,2V110.3
		z M231.2,107.6C231.3,107.6,231.3,107.6,231.2,107.6C231.3,107.6,231.3,107.6,231.2,107.6c-0.5,0.2-1,0.4-1.9,1.3l-0.1-0.1l0.8-1.1
		h-4.4c-0.4,0.6-0.9,1.1-1.5,1.7l-0.1-0.1c0.9-1.2,1.5-2.2,2-3.5l0.9,0.4c0,0,0,0,0,0c0,0,0,0-0.1,0c-0.2,0-0.5,0.2-0.5,0.3
		c-0.2,0.3-0.3,0.6-0.5,0.8h4.2l0.4-0.4L231.2,107.6z M227.2,115.4c2.5,0.2,3.9,0.5,3.9,1.2c0,0.2-0.1,0.3-0.2,0.3
		c-0.1,0-0.3-0.1-0.7-0.4c-0.4-0.3-1.5-0.6-3-1L227.2,115.4z"/>
	<path d="M243.5,109.9C243.6,109.9,243.6,110,243.5,109.9c0.1,0.1,0,0.1,0,0.1h-8.9c-0.1,4.4-0.2,5.4-1.9,6.8l-0.1-0.1
		c1.2-1.5,1.4-2.4,1.4-4.1c0-1.1,0-2.6,0-3.6l0.7,0.7h4.3c0.5-0.8,1-1.7,1.1-2l0.7,0.5c0.1,0,0.1,0.1,0.1,0.1s0,0-0.1,0
		c-0.2,0-0.5,0.2-0.8,0.5l-0.8,0.8h2.9l0.6-0.6L243.5,109.9z M243.4,107.4C243.4,107.4,243.4,107.5,243.4,107.4c0.1,0.1,0,0.1,0,0.1
		h-9.1c-0.3,0-0.6,0-0.8,0.1l-0.3-0.4c0.3,0,0.6,0,0.9,0h8l0.6-0.7L243.4,107.4z M243.5,116.1C243.5,116.2,243.5,116.2,243.5,116.1
		c0.1,0.1,0,0.1,0,0.1h-7.9c-0.3,0-0.6,0-0.8,0.1l-0.3-0.4c0.3,0,0.6,0,0.9,0h3.3v-1.9h-1.8c-0.3,0-0.6,0-0.8,0.1l-0.3-0.4
		c0.3,0,0.6,0,0.9,0h2.1v-1.6h-2.1c-0.5,0.8-1,1.4-1.5,2l-0.1-0.1c0.7-0.9,1.6-2.8,1.8-3.7l0.8,0.5c0,0,0.1,0.1,0.1,0.1s0,0-0.1,0.1
		c-0.3,0.1-0.4,0.1-0.8,0.9h2c0-0.9,0-1.5,0-1.8l1,0.4c0,0,0.1,0,0.1,0.1c0,0,0,0-0.1,0.1l-0.4,0.3v1.1h2.4l0.5-0.6l0.8,0.7
		c0,0,0.1,0.1,0.1,0.1c0,0,0,0-0.1,0h-3.7v1.6h2.2l0.5-0.6l0.8,0.7c0,0,0.1,0.1,0.1,0.1s0,0-0.1,0h-3.4v1.9h3l0.6-0.7L243.5,116.1z
		 M235.9,107.8c1.1,0.4,1.5,0.7,1.7,1.2c0,0,0,0.1,0,0.1c0,0.3-0.3,0.5-0.5,0.5c-0.1,0-0.2-0.1-0.3-0.4c-0.1-0.4-0.5-1-1-1.3
		L235.9,107.8z M237.3,105.7c0.7,0.1,1.5,0.5,1.6,0.8c0,0.1,0,0.2,0,0.3c0,0.3-0.2,0.5-0.5,0.5c-0.1,0-0.2-0.1-0.3-0.3
		c-0.1-0.5-0.5-0.8-1-1.1L237.3,105.7z"/>
	<path d="M250.3,107.2c0,0,0.1,0.1,0.1,0.1c0,0.1,0,0.1-0.1,0.1H248c0.6,0.5,0.8,0.8,0.8,1.1c0,0.3-0.2,0.5-0.4,0.5
		c-0.1,0-0.2-0.1-0.2-0.3c0-0.3-0.2-0.9-0.4-1.3h-0.7c-0.8,1-1.4,1.7-2,2.2l-0.1-0.1c1-1.3,1.9-2.5,2.5-3.7l0.7,0.4
		c0.1,0,0.1,0.1,0.1,0.1c0,0,0,0-0.1,0.1c-0.3,0.1-0.3,0.1-0.8,0.7h2l0.4-0.6L250.3,107.2z M255.5,109.7c0.1,0.1,0.1,0.1,0.1,0.1
		c0,0,0,0.1-0.1,0.1c-0.4,0-0.9,0.3-1.5,1.1l-0.2-0.1l0.6-1.1h-8.1c-0.1,1.1-0.5,1.4-0.9,1.4c-0.2,0-0.3-0.1-0.3-0.2
		c0-0.1,0.1-0.3,0.3-0.5c0.3-0.3,0.6-0.7,0.7-1.6h0.2c0,0.2,0,0.4,0,0.6h8l0.4-0.5L255.5,109.7z M253.6,114.1
		C253.6,114.1,253.7,114.2,253.6,114.1c0.1,0.1,0,0.1,0,0.2l-0.3,0.2v1.2c0,0.3,0,0.5,0,0.8v0c0,0.2-0.4,0.3-0.5,0.3s-0.1,0-0.1-0.1
		v-0.6h-4.7v0.5c0,0.2-0.5,0.4-0.5,0.4c-0.1,0-0.1-0.1-0.1-0.2v-0.1c0-0.5,0-0.9,0-1.6v-3.7c0-0.4,0-0.9,0-1.2l0.7,0.6h3.9l0.3-0.5
		l0.7,0.6c0,0,0.1,0.1,0.1,0.1c0,0,0,0.1-0.1,0.1l-0.3,0.2v0.6c0,0.3,0,0.6,0,0.9v0c0,0.2-0.5,0.3-0.5,0.3c-0.1,0-0.1,0-0.1-0.4
		h-4.2v1.3h4.5l0.3-0.4L253.6,114.1z M252.3,112.4v-1.3h-4.2v1.3H252.3z M252.8,115.9v-1.7h-4.7v1.7H252.8z M249.4,108
		c0.7,0.3,1.2,0.6,1.2,1.1c0,0.2-0.2,0.4-0.3,0.4c-0.1,0-0.2-0.1-0.3-0.3c-0.1-0.3-0.4-0.8-0.7-1.1L249.4,108z M255.4,107.1
		c0.1,0.1,0.1,0.1,0.1,0.2c0,0,0,0.1-0.2,0.1h-3c0.7,0.5,0.9,0.9,0.9,1.2c0,0.3-0.3,0.5-0.4,0.5c-0.1,0-0.2-0.1-0.2-0.3
		c0-0.5-0.2-0.9-0.5-1.4h-0.8c-0.3,0.3-0.6,0.7-0.8,1l-0.1-0.1c0.7-1,1.1-1.6,1.4-2.4l0.6,0.3c0,0,0.1,0,0.1,0.1s0,0-0.1,0.1
		c-0.2,0.1-0.3,0.2-0.5,0.3c-0.1,0.2-0.3,0.3-0.4,0.5h2.7l0.5-0.6L255.4,107.1z"/>
	<path d="M261.4,113.3l-3,1.4c-0.4,0.2-0.8,0.4-0.9,0.6c0,0-0.1,0.1-0.1,0.1c0,0-0.1,0-0.1-0.1l-0.4-0.6l1.9-0.7v-3.1H258
		c-0.2,0-0.6,0-0.8,0.1l-0.3-0.4c0.3,0,0.6,0,0.8,0h0.9v-3H258c-0.3,0-0.6,0-0.8,0.1l-0.3-0.4c0.3,0,0.6,0,0.9,0h2.3l0.4-0.6
		l0.7,0.6c0.1,0.1,0.1,0.1,0.1,0.2c0,0,0,0.1-0.1,0.1h-1.9v3h0.7l0.4-0.6l0.6,0.6c0.1,0.1,0.1,0.1,0.1,0.1c0,0,0,0.1-0.1,0.1h-1.7v3
		l2.1-0.7L261.4,113.3z M267.7,116.1c0.1,0.1,0.1,0.1,0.1,0.1c0,0,0,0.1-0.1,0.1h-6.5c-0.3,0-0.6,0-0.8,0.1L260,116
		c0.3,0,0.6,0,0.9,0h3v-2.1h-1.4c-0.3,0-0.6,0-0.8,0.1l-0.3-0.4c0.3,0,0.6,0,0.9,0h1.6v-1.9h-1.7c0,0.3,0,0.3-0.3,0.5
		c-0.1,0.1-0.2,0.1-0.2,0.1c-0.1,0-0.1-0.1-0.1-0.2v-0.1c0-0.5,0-1,0-1.6v-2.8c0-0.5,0-0.9,0-1.3l0.7,0.5h3.7l0.4-0.6l0.7,0.5
		c0.1,0,0.1,0.1,0.1,0.1s0,0.1-0.1,0.1l-0.3,0.2v3c0,0.5,0,1,0.1,1.4c0,0,0,0.1,0,0.1c0,0.3-0.5,0.5-0.5,0.5c-0.1,0-0.1,0-0.1-0.5
		h-1.8v1.9h1.6l0.5-0.7l0.8,0.7c0.1,0.1,0.1,0.1,0.1,0.2c0,0.1-0.1,0.1-0.2,0.1h-2.7v2.1h2l0.5-0.7L267.7,116.1z M263.9,109.4v-2.2
		h-1.7v2.2H263.9z M263.9,111.5v-1.9h-1.7v1.9H263.9z M266.2,109.4v-2.2h-1.8v2.2H266.2z M266.2,111.5v-1.9h-1.8v1.9H266.2z"/>
	<path d="M270.8,116.1c4-1.8,5.5-5,6-7.8c0,0,0,0,0-0.1c0-0.1,0-0.1-0.2-0.1c-0.3,0-5,0.3-5.6,0.6c-0.2,0.1-0.3,0.2-0.5,0.2
		c-0.4,0-0.9-0.7-0.9-1.2c0-0.2,0.2-0.3,0.3-0.4l0,0c0.1,0.7,0.7,0.7,1.2,0.7c0.6,0,4.4-0.2,5-0.2c0.2,0,0.3-0.3,0.5-0.3
		c0.3,0,1,0.7,1,0.9c0,0.1-0.2,0.2-0.3,0.3c-0.1,0.1-0.1,0.1-0.2,0.3c-0.6,2.5-2.2,5.8-6.4,7.4L270.8,116.1z M278.9,105.5
		c0.7,0,1.3,0.6,1.3,1.3c0,0.7-0.6,1.3-1.3,1.3c-0.7,0-1.3-0.6-1.3-1.3C277.6,106,278.2,105.5,278.9,105.5z M279.9,106.8
		c0-0.5-0.4-0.9-0.9-0.9c-0.5,0-1,0.4-1,0.9c0,0.5,0.4,1,1,1C279.5,107.8,279.9,107.3,279.9,106.8z"/>
	<path d="M283.2,116.2c3.2-1.1,5.3-2.8,6.2-5.7c0-0.1,0.1-0.2,0.1-0.3c0-0.1,0-0.1-0.1-0.1c-0.1,0-5.3,0.4-6.2,0.7
		c-0.1,0-0.2,0.2-0.4,0.2c-0.4,0-1.1-0.7-1.1-1.1c0-0.2,0.1-0.4,0.2-0.6h0.1c0,0.7,0.7,0.7,1.2,0.7c0.6,0,4.6-0.3,6-0.4
		c0.2,0,0.4-0.4,0.6-0.4c0.2,0,0.9,0.6,0.9,0.8c0,0.1-0.2,0.2-0.3,0.2c-0.1,0-0.3,0.1-0.3,0.2c-1.2,3.2-3.3,4.9-6.8,5.9L283.2,116.2
		z M283.2,106.8c0.1,0.3,0.6,0.5,1.3,0.5c0.5,0,2.2-0.1,2.9-0.3c0.4-0.1,0.6-0.2,0.8-0.4c0.6,0.1,1.2,0.2,1.2,0.5
		c0,0.2-0.3,0.3-0.8,0.3c-0.7,0-2,0.1-3,0.2c-0.6,0-1,0.1-1.3,0.1c-0.9,0-1.3-0.4-1.3-0.7C283.1,106.9,283.2,106.8,283.2,106.8z"/>
	<path d="M294.5,109.8c0.7,0.5,1.4,1.4,1.4,2c0,0.3-0.1,0.5-0.3,0.5c-0.2,0-0.3-0.1-0.3-0.3c0-0.7-0.5-1.4-0.9-2L294.5,109.8z
		 M296.2,116.3c3.7-1.8,5-5.7,5-6.3c0-0.1,0-0.2-0.1-0.3c-0.1-0.1-0.4-0.2-0.6-0.2c0,0,0.1-0.3,0.4-0.3c0.5,0,1.2,0.5,1.2,0.8
		c0,0.1-0.1,0.2-0.2,0.3c0,0-0.1,0.1-0.1,0.2c-0.8,2.6-2.6,4.9-5.4,6.1L296.2,116.3z M297.4,109.2c0.9,0.7,1.2,1.5,1.2,2.1
		c0,0.4-0.1,0.7-0.3,0.7c-0.2,0-0.4-0.1-0.4-0.4c0-0.6-0.1-1.4-0.7-2.2L297.4,109.2z"/>
	<path d="M307.9,106.7c0.1-0.2,0.3-0.3,0.5-0.3c0.5,0,1.4,0.3,1.4,0.7c0,0.1-0.1,0.2-0.2,0.3c0,0.1-0.1,0.2-0.1,0.3
		c0,0.5,0,1.4-0.1,2.5c1.5,0.2,2.8,0.6,3.5,0.9c0.7,0.4,1,0.6,1,1c0,0.2-0.1,0.3-0.3,0.3c-0.3,0-0.6-0.3-0.9-0.6
		c-0.5-0.5-1.8-1-3.3-1.4c0,0.9,0,1.8,0,2.5c0,0.4,0,2.4,0,2.8c0,0.5-0.2,0.6-0.4,0.6c-0.4,0-0.6-1.2-0.6-1.4
		c0.1-0.1,0.2-0.3,0.2-0.5c0.1-0.8,0.1-1.5,0.1-4.1c0-1.1,0-2.3,0-2.8C308.8,107.3,308.7,106.7,307.9,106.7L307.9,106.7z"/>
	<path d="M318.9,116.1c4.2-1.6,6.1-5.2,6.7-8c0,0,0-0.1,0-0.1c0,0,0,0,0,0c-0.6,0-5.8,0.3-6.3,0.6c-0.3,0.1-0.3,0.1-0.5,0.1
		c-0.4,0-0.9-0.6-0.9-1.1c0-0.2,0.1-0.3,0.3-0.4l0,0c0.1,0.6,0.8,0.6,1.3,0.6c1,0,5.1-0.2,5.7-0.3c0.3,0,0.4-0.3,0.6-0.3
		c0.3,0,1,0.6,1,0.8c0,0.1-0.2,0.2-0.3,0.2c-0.2,0.1-0.3,0.1-0.3,0.3c-0.8,2.8-2.6,6.3-7.2,7.8L318.9,116.1z"/>
	<path d="M330.6,110.3c0.1,0.4,0.5,0.5,0.9,0.5c0.5,0,2.1-0.1,3.2-0.2c0-1.6,0-1.8-0.3-2.1c-0.1-0.1-0.3-0.1-0.6-0.1
		c0-0.2,0.2-0.4,0.4-0.4c0.6,0,1.2,0.4,1.2,0.7c0,0.3-0.2,0.1-0.2,0.8v1c0.5,0,1.7-0.1,2-0.4c0.6,0.1,1,0.3,1,0.6
		c0,0.1-0.1,0.2-0.2,0.2h-0.1c-0.3,0-0.7-0.1-1.2-0.1c-0.4,0-1.1,0-1.5,0.1l0.1,3.3c0,0.3,0,0.6,0,0.9c0,0.1,0.1,0.3,0.1,0.5
		c0,0.4-0.3,1-0.7,1c-0.1,0-0.2-0.1-0.2-0.3c0-0.1-0.1-0.2-0.3-0.3c-0.2-0.1-1.1-0.7-1.4-0.9l0.1-0.2c0.3,0.2,1.5,0.7,1.8,0.7
		c0.1,0,0.1-0.1,0.1-0.3v-0.8c0-0.5,0-1.8,0-3c-1.2,1.6-2.8,2.9-4.6,3.8l-0.2-0.3c1.5-0.8,3.5-2.6,4.4-4.1c-0.7,0.1-1.7,0.2-2.5,0.3
		c-0.4,0.1-0.5,0.2-0.6,0.2c-0.3,0-0.9-0.6-0.9-0.9C330.4,110.4,330.4,110.3,330.6,110.3L330.6,110.3z"/>
	<path d="M350.9,111.2c0,0.1-0.1,0.1-0.3,0.1c-0.1,0-0.1,0-0.2,0c-0.2,0-0.6-0.1-1.2-0.1c-0.8,0-1.8,0-3.3,0.1
		c-1.4,0.1-2.1,0.2-2.7,0.4c-0.2,0-0.3,0.1-0.5,0.1c-0.4,0-0.9-0.6-0.9-0.7c0-0.1,0-0.1,0.1-0.1c0.1,0,0.1,0,0.2,0
		c0.2,0.1,0.3,0.1,0.7,0.1c0.5,0,1.3-0.1,2.9-0.2c3.1-0.3,3.2-0.3,3.5-0.4c0.2,0,0.3-0.1,0.5-0.1c0.2,0,0.4,0.1,0.7,0.3
		C350.8,110.9,350.9,111.1,350.9,111.2z"/>
	<path d="M359.7,111.5c1.7,1.1,3.4,3.1,3.4,4c0,0.4,0,0.6-0.3,0.6c-0.3,0-0.4-0.4-0.6-0.9c0-0.1-0.1-0.2-0.1-0.4
		c-2,0.3-5.2,0.6-6.8,0.8c-0.4,0-0.5,0.3-0.8,0.3c-0.4,0-1-0.7-1-1.1c0-0.2,0.1-0.4,0.2-0.4c0.1,0.2,0.2,0.6,0.7,0.6
		c0.1,0,0.3,0,0.6,0c1.2-2.7,2.4-7.2,2.4-7.6c0-0.4-0.6-0.5-0.8-0.5c0-0.2,0.3-0.4,0.6-0.4c0.5,0,1.3,0.4,1.3,0.8
		c0,0.1-0.1,0.2-0.2,0.3s-0.2,0.2-0.2,0.4c-0.7,2.2-1.6,4.8-2.7,7c1.4-0.1,4.7-0.3,6.5-0.5c-0.5-0.9-1.5-2.1-2.4-2.7L359.7,111.5z"
		/>
</g>
<g>
	<path d="M224.4,290.7l-1.5,2.2c-0.3,0.4-0.4,0.6-0.4,0.9c0,0.1,0.1,0.7,0.1,0.9c0,0.3-0.1,0.4-0.4,0.4c-0.2,0-0.3-0.1-0.3-0.4
		c0-0.1,0.1-0.6,0.1-0.6c0-0.3-0.1-0.4-0.4-0.5c-0.4-0.1-0.6-0.2-0.9-0.2l0-0.2c0.3,0,0.6,0.1,0.8,0.1c0.4,0,0.6-0.1,0.9-0.4
		l1.8-2.1L224.4,290.7z M225.6,299.6C225.6,299.6,225.6,299.6,225.6,299.6C225.6,299.7,225.6,299.7,225.6,299.6
		c-0.2,0.1-0.6,0.2-0.9,0.3c-0.9,0.3-2.6,0.9-3.5,1.1l-0.1-0.1c1.4-0.5,2.9-1.1,3.7-1.7L225.6,299.6z M221.4,290.2
		c0.8,0.1,1.5,0.4,1.6,0.7c0,0.1,0.1,0.2,0.1,0.3c0,0.3-0.2,0.5-0.3,0.5c-0.1,0-0.1,0-0.3-0.3c-0.1-0.3-0.4-0.7-1.1-1L221.4,290.2z
		 M230.2,294.9C230.3,295,230.3,295,230.2,294.9c0.1,0.1,0.1,0.1,0,0.2l-0.4,0.3v2.1c0,0.7,0,1.2,0,1.5v0.1c0,0.1,0,0.2-0.3,0.3
		c-0.1,0-0.2,0.1-0.2,0.1c-0.1,0-0.1,0-0.1-0.4h-6v0.2c0,0.1,0,0.1-0.3,0.3c-0.1,0-0.2,0.1-0.2,0.1c-0.1,0-0.1,0-0.1-0.2v-0.1
		c0-0.4,0-0.9,0-1.4V296c0-0.4,0-1,0-1.4l0.6,0.4h5.6l0.4-0.5L230.2,294.9z M229.3,296.1v-0.9h-6v0.9H229.3z M229.3,297.4v-1h-6v1
		H229.3z M229.3,298.6v-1h-6v1H229.3z M232,294.2c-0.6,0.1-0.9,0.2-1,0.5c0,0,0,0-0.1,0c0,0,0,0-0.1,0c-1.5-0.5-2.6-1.2-3.3-2.4
		c-0.9,1.5-1.8,2.1-3.9,2.4l-0.1-0.2c2.1-0.6,3.1-1.4,3.6-3l0.8,0.3c0,0,0.1,0,0.1,0c0,0-0.3,0.2-0.3,0.2c1.1,1.5,2.7,2,4.3,2V294.2
		z M231.2,291.4C231.3,291.5,231.3,291.5,231.2,291.4C231.3,291.5,231.3,291.5,231.2,291.4c-0.5,0.2-1,0.4-1.9,1.3l-0.1-0.1l0.8-1.1
		h-4.4c-0.4,0.6-0.9,1.1-1.5,1.7l-0.1-0.1c0.9-1.2,1.5-2.2,2-3.5l0.9,0.4c0,0,0,0,0,0c0,0,0,0-0.1,0c-0.2,0-0.5,0.2-0.5,0.3
		c-0.2,0.3-0.3,0.6-0.5,0.8h4.2l0.4-0.4L231.2,291.4z M227.2,299.3c2.5,0.2,3.9,0.5,3.9,1.2c0,0.2-0.1,0.3-0.2,0.3
		c-0.1,0-0.3-0.1-0.7-0.4c-0.4-0.3-1.5-0.6-3-1L227.2,299.3z"/>
	<path d="M243.5,293.8C243.6,293.8,243.6,293.8,243.5,293.8c0.1,0.1,0,0.1,0,0.1h-8.9c-0.1,4.4-0.2,5.4-1.9,6.8l-0.1-0.1
		c1.2-1.5,1.4-2.4,1.4-4.1c0-1.1,0-2.6,0-3.6l0.7,0.7h4.3c0.5-0.8,1-1.7,1.1-2l0.7,0.5c0.1,0,0.1,0.1,0.1,0.1c0,0,0,0-0.1,0
		c-0.2,0-0.5,0.2-0.8,0.5l-0.8,0.8h2.9l0.6-0.6L243.5,293.8z M243.4,291.3C243.4,291.3,243.4,291.4,243.4,291.3c0.1,0.1,0,0.1,0,0.1
		h-9.1c-0.3,0-0.6,0-0.8,0.1l-0.3-0.4c0.3,0,0.6,0,0.9,0h8l0.6-0.7L243.4,291.3z M243.5,300C243.5,300.1,243.5,300.1,243.5,300
		c0.1,0.1,0,0.1,0,0.1h-7.9c-0.3,0-0.6,0-0.8,0.1l-0.3-0.4c0.3,0,0.6,0,0.9,0h3.3V298h-1.8c-0.3,0-0.6,0-0.8,0.1l-0.3-0.4
		c0.3,0,0.6,0,0.9,0h2.1v-1.6h-2.1c-0.5,0.8-1,1.4-1.5,2l-0.1-0.1c0.7-0.9,1.6-2.8,1.8-3.7l0.8,0.5c0,0,0.1,0.1,0.1,0.1
		c0,0,0,0-0.1,0.1c-0.3,0.1-0.4,0.1-0.8,0.9h2c0-0.9,0-1.5,0-1.8l1,0.4c0,0,0.1,0,0.1,0.1c0,0,0,0-0.1,0.1l-0.4,0.3v1.1h2.4l0.5-0.6
		l0.8,0.7c0,0,0.1,0.1,0.1,0.1c0,0,0,0-0.1,0h-3.7v1.6h2.2l0.5-0.6l0.8,0.7c0,0,0.1,0.1,0.1,0.1c0,0,0,0-0.1,0h-3.4v1.9h3l0.6-0.7
		L243.5,300z M235.9,291.7c1.1,0.4,1.5,0.7,1.7,1.2c0,0,0,0.1,0,0.1c0,0.3-0.3,0.5-0.5,0.5c-0.1,0-0.2-0.1-0.3-0.4
		c-0.1-0.4-0.5-1-1-1.3L235.9,291.7z M237.3,289.6c0.7,0.1,1.5,0.5,1.6,0.8c0,0.1,0,0.2,0,0.3c0,0.3-0.2,0.5-0.5,0.5
		c-0.1,0-0.2-0.1-0.3-0.3c-0.1-0.5-0.5-0.8-1-1.1L237.3,289.6z"/>
	<path d="M250.3,291c0,0,0.1,0.1,0.1,0.1c0,0.1,0,0.1-0.1,0.1H248c0.6,0.5,0.8,0.8,0.8,1.1s-0.2,0.5-0.4,0.5c-0.1,0-0.2-0.1-0.2-0.3
		c0-0.3-0.2-0.9-0.4-1.3h-0.7c-0.8,1-1.4,1.7-2,2.2l-0.1-0.1c1-1.3,1.9-2.5,2.5-3.7l0.7,0.4c0.1,0,0.1,0.1,0.1,0.1s0,0-0.1,0.1
		c-0.3,0.1-0.3,0.1-0.8,0.7h2l0.4-0.6L250.3,291z M255.5,293.6c0.1,0.1,0.1,0.1,0.1,0.1c0,0,0,0.1-0.1,0.1c-0.4,0-0.9,0.3-1.5,1.1
		l-0.2-0.1l0.6-1.1h-8.1c-0.1,1.1-0.5,1.4-0.9,1.4c-0.2,0-0.3-0.1-0.3-0.2c0-0.1,0.1-0.3,0.3-0.5c0.3-0.3,0.6-0.7,0.7-1.6h0.2
		c0,0.2,0,0.4,0,0.6h8l0.4-0.5L255.5,293.6z M253.6,298C253.6,298,253.7,298.1,253.6,298c0.1,0.1,0,0.1,0,0.2l-0.3,0.2v1.2
		c0,0.3,0,0.5,0,0.8v0c0,0.2-0.4,0.3-0.5,0.3s-0.1,0-0.1-0.1v-0.6h-4.7v0.5c0,0.2-0.5,0.4-0.5,0.4c-0.1,0-0.1-0.1-0.1-0.2v-0.1
		c0-0.5,0-0.9,0-1.6v-3.7c0-0.4,0-0.9,0-1.2l0.7,0.6h3.9l0.3-0.5l0.7,0.6c0,0,0.1,0.1,0.1,0.1c0,0,0,0.1-0.1,0.1l-0.3,0.2v0.6
		c0,0.3,0,0.6,0,0.9v0c0,0.2-0.5,0.3-0.5,0.3c-0.1,0-0.1,0-0.1-0.4h-4.2v1.3h4.5l0.3-0.4L253.6,298z M252.3,296.3V295h-4.2v1.3
		H252.3z M252.8,299.8v-1.7h-4.7v1.7H252.8z M249.4,291.9c0.7,0.3,1.2,0.6,1.2,1.1c0,0.2-0.2,0.4-0.3,0.4c-0.1,0-0.2-0.1-0.3-0.3
		c-0.1-0.3-0.4-0.8-0.7-1.1L249.4,291.9z M255.4,291c0.1,0.1,0.1,0.1,0.1,0.2c0,0,0,0.1-0.2,0.1h-3c0.7,0.5,0.9,0.9,0.9,1.2
		c0,0.3-0.3,0.5-0.4,0.5c-0.1,0-0.2-0.1-0.2-0.3c0-0.5-0.2-0.9-0.5-1.4h-0.8c-0.3,0.3-0.6,0.7-0.8,1l-0.1-0.1c0.7-1,1.1-1.6,1.4-2.4
		l0.6,0.3c0,0,0.1,0,0.1,0.1c0,0,0,0-0.1,0.1c-0.2,0.1-0.3,0.2-0.5,0.3c-0.1,0.2-0.3,0.3-0.4,0.5h2.7l0.5-0.6L255.4,291z"/>
	<path d="M261.4,297.2l-3,1.4c-0.4,0.2-0.8,0.4-0.9,0.6c0,0-0.1,0.1-0.1,0.1c0,0-0.1,0-0.1-0.1l-0.4-0.6l1.9-0.7v-3.1H258
		c-0.2,0-0.6,0-0.8,0.1l-0.3-0.4c0.3,0,0.6,0,0.8,0h0.9v-3H258c-0.3,0-0.6,0-0.8,0.1l-0.3-0.4c0.3,0,0.6,0,0.9,0h2.3l0.4-0.6
		l0.7,0.6c0.1,0.1,0.1,0.1,0.1,0.2c0,0,0,0.1-0.1,0.1h-1.9v3h0.7l0.4-0.6l0.6,0.6c0.1,0.1,0.1,0.1,0.1,0.1c0,0,0,0.1-0.1,0.1h-1.7v3
		l2.1-0.7L261.4,297.2z M267.7,300c0.1,0.1,0.1,0.1,0.1,0.1c0,0,0,0.1-0.1,0.1h-6.5c-0.3,0-0.6,0-0.8,0.1l-0.3-0.4
		c0.3,0,0.6,0,0.9,0h3v-2.1h-1.4c-0.3,0-0.6,0-0.8,0.1l-0.3-0.4c0.3,0,0.6,0,0.9,0h1.6v-1.9h-1.7c0,0.3,0,0.3-0.3,0.5
		c-0.1,0.1-0.2,0.1-0.2,0.1c-0.1,0-0.1-0.1-0.1-0.2V296c0-0.5,0-1,0-1.6v-2.8c0-0.5,0-0.9,0-1.3l0.7,0.5h3.7l0.4-0.6l0.7,0.5
		c0.1,0,0.1,0.1,0.1,0.1s0,0.1-0.1,0.1l-0.3,0.2v3c0,0.5,0,1,0.1,1.4c0,0,0,0.1,0,0.1c0,0.3-0.5,0.5-0.5,0.5c-0.1,0-0.1,0-0.1-0.5
		h-1.8v1.9h1.6l0.5-0.7l0.8,0.7c0.1,0.1,0.1,0.1,0.1,0.2c0,0.1-0.1,0.1-0.2,0.1h-2.7v2.1h2l0.5-0.7L267.7,300z M263.9,293.3v-2.2
		h-1.7v2.2H263.9z M263.9,295.4v-1.9h-1.7v1.9H263.9z M266.2,293.3v-2.2h-1.8v2.2H266.2z M266.2,295.4v-1.9h-1.8v1.9H266.2z"/>
	<path d="M270.8,300c4-1.8,5.5-5,6-7.8c0,0,0,0,0-0.1c0-0.1,0-0.1-0.2-0.1c-0.3,0-5,0.3-5.6,0.6c-0.2,0.1-0.3,0.2-0.5,0.2
		c-0.4,0-0.9-0.7-0.9-1.2c0-0.2,0.2-0.3,0.3-0.4l0,0c0.1,0.7,0.7,0.7,1.2,0.7c0.6,0,4.4-0.2,5-0.2c0.2,0,0.3-0.3,0.5-0.3
		c0.3,0,1,0.7,1,0.9c0,0.1-0.2,0.2-0.3,0.3s-0.1,0.1-0.2,0.3c-0.6,2.5-2.2,5.8-6.4,7.4L270.8,300z M278.9,289.4
		c0.7,0,1.3,0.6,1.3,1.3c0,0.7-0.6,1.3-1.3,1.3c-0.7,0-1.3-0.6-1.3-1.3C277.6,289.9,278.2,289.4,278.9,289.4z M279.9,290.7
		c0-0.5-0.4-0.9-0.9-0.9c-0.5,0-1,0.4-1,0.9c0,0.5,0.4,1,1,1C279.5,291.6,279.9,291.2,279.9,290.7z"/>
	<path d="M283.2,300.1c3.2-1.1,5.3-2.8,6.2-5.7c0-0.1,0.1-0.2,0.1-0.3c0-0.1,0-0.1-0.1-0.1c-0.1,0-5.3,0.4-6.2,0.7
		c-0.1,0-0.2,0.2-0.4,0.2c-0.4,0-1.1-0.7-1.1-1.1c0-0.2,0.1-0.4,0.2-0.6h0.1c0,0.7,0.7,0.7,1.2,0.7c0.6,0,4.6-0.3,6-0.4
		c0.2,0,0.4-0.4,0.6-0.4c0.2,0,0.9,0.6,0.9,0.8c0,0.1-0.2,0.2-0.3,0.2s-0.3,0.1-0.3,0.2c-1.2,3.2-3.3,4.9-6.8,5.9L283.2,300.1z
		 M283.2,290.7c0.1,0.3,0.6,0.5,1.3,0.5c0.5,0,2.2-0.1,2.9-0.3c0.4-0.1,0.6-0.2,0.8-0.4c0.6,0.1,1.2,0.2,1.2,0.5
		c0,0.2-0.3,0.3-0.8,0.3c-0.7,0-2,0.1-3,0.2c-0.6,0-1,0.1-1.3,0.1c-0.9,0-1.3-0.4-1.3-0.7C283.1,290.8,283.2,290.7,283.2,290.7z"/>
	<path d="M294.5,293.7c0.7,0.5,1.4,1.4,1.4,2c0,0.3-0.1,0.5-0.3,0.5c-0.2,0-0.3-0.1-0.3-0.3c0-0.7-0.5-1.4-0.9-2L294.5,293.7z
		 M296.2,300.2c3.7-1.8,5-5.7,5-6.3c0-0.1,0-0.2-0.1-0.3c-0.1-0.1-0.4-0.2-0.6-0.2c0,0,0.1-0.3,0.4-0.3c0.5,0,1.2,0.5,1.2,0.8
		c0,0.1-0.1,0.2-0.2,0.3c0,0-0.1,0.1-0.1,0.2c-0.8,2.6-2.6,4.9-5.4,6.1L296.2,300.2z M297.4,293.1c0.9,0.7,1.2,1.5,1.2,2.1
		c0,0.4-0.1,0.7-0.3,0.7c-0.2,0-0.4-0.1-0.4-0.4c0-0.6-0.1-1.4-0.7-2.2L297.4,293.1z"/>
	<path d="M307.9,290.6c0.1-0.2,0.3-0.3,0.5-0.3c0.5,0,1.4,0.3,1.4,0.7c0,0.1-0.1,0.2-0.2,0.3c0,0.1-0.1,0.2-0.1,0.3
		c0,0.5,0,1.4-0.1,2.5c1.5,0.2,2.8,0.6,3.5,0.9c0.7,0.4,1,0.6,1,1c0,0.2-0.1,0.3-0.3,0.3c-0.3,0-0.6-0.3-0.9-0.6
		c-0.5-0.5-1.8-1-3.3-1.4c0,0.9,0,1.8,0,2.5c0,0.4,0,2.4,0,2.8c0,0.5-0.2,0.6-0.4,0.6c-0.4,0-0.6-1.2-0.6-1.4
		c0.1-0.1,0.2-0.3,0.2-0.5c0.1-0.8,0.1-1.5,0.1-4.1c0-1.1,0-2.3,0-2.8C308.8,291.2,308.7,290.6,307.9,290.6L307.9,290.6z"/>
	<path d="M318.9,300c4.2-1.6,6.1-5.2,6.7-8c0,0,0-0.1,0-0.1c0,0,0,0,0,0c-0.6,0-5.8,0.3-6.3,0.6c-0.3,0.1-0.3,0.1-0.5,0.1
		c-0.4,0-0.9-0.6-0.9-1.1c0-0.2,0.1-0.3,0.3-0.4l0,0c0.1,0.6,0.8,0.6,1.3,0.6c1,0,5.1-0.2,5.7-0.3c0.3,0,0.4-0.3,0.6-0.3
		c0.3,0,1,0.6,1,0.8c0,0.1-0.2,0.2-0.3,0.2c-0.2,0.1-0.3,0.1-0.3,0.3c-0.8,2.8-2.6,6.3-7.2,7.8L318.9,300z"/>
	<path d="M330.6,294.1c0.1,0.4,0.5,0.5,0.9,0.5c0.5,0,2.1-0.1,3.2-0.2c0-1.6,0-1.8-0.3-2.1c-0.1-0.1-0.3-0.1-0.6-0.1
		c0-0.2,0.2-0.4,0.4-0.4c0.6,0,1.2,0.4,1.2,0.7c0,0.3-0.2,0.1-0.2,0.8v1c0.5,0,1.7-0.1,2-0.4c0.6,0.1,1,0.3,1,0.6
		c0,0.1-0.1,0.2-0.2,0.2h-0.1c-0.3,0-0.7-0.1-1.2-0.1c-0.4,0-1.1,0-1.5,0.1l0.1,3.3c0,0.3,0,0.6,0,0.9c0,0.1,0.1,0.3,0.1,0.5
		c0,0.4-0.3,1-0.7,1c-0.1,0-0.2-0.1-0.2-0.3c0-0.1-0.1-0.2-0.3-0.3c-0.2-0.1-1.1-0.7-1.4-0.9l0.1-0.2c0.3,0.2,1.5,0.7,1.8,0.7
		c0.1,0,0.1-0.1,0.1-0.3v-0.8c0-0.5,0-1.8,0-3c-1.2,1.6-2.8,2.9-4.6,3.8l-0.2-0.3c1.5-0.8,3.5-2.6,4.4-4.1c-0.7,0.1-1.7,0.2-2.5,0.3
		c-0.4,0.1-0.5,0.2-0.6,0.2c-0.3,0-0.9-0.6-0.9-0.9C330.4,294.3,330.4,294.2,330.6,294.1L330.6,294.1z"/>
	<path d="M350.9,295.1c0,0.1-0.1,0.1-0.3,0.1c-0.1,0-0.1,0-0.2,0c-0.2,0-0.6-0.1-1.2-0.1c-0.8,0-1.8,0-3.3,0.1
		c-1.4,0.1-2.1,0.2-2.7,0.4c-0.2,0-0.3,0.1-0.5,0.1c-0.4,0-0.9-0.6-0.9-0.7c0-0.1,0-0.1,0.1-0.1c0.1,0,0.1,0,0.2,0
		c0.2,0.1,0.3,0.1,0.7,0.1c0.5,0,1.3-0.1,2.9-0.2c3.1-0.3,3.2-0.3,3.5-0.4c0.2,0,0.3-0.1,0.5-0.1c0.2,0,0.4,0.1,0.7,0.3
		C350.8,294.8,350.9,295,350.9,295.1z"/>
	<path d="M359.7,295.4c1.7,1.1,3.4,3.1,3.4,4c0,0.4,0,0.6-0.3,0.6c-0.3,0-0.4-0.4-0.6-0.9c0-0.1-0.1-0.2-0.1-0.4
		c-2,0.3-5.2,0.6-6.8,0.8c-0.4,0-0.5,0.3-0.8,0.3c-0.4,0-1-0.7-1-1.1c0-0.2,0.1-0.4,0.2-0.4c0.1,0.2,0.2,0.6,0.7,0.6
		c0.1,0,0.3,0,0.6,0c1.2-2.7,2.4-7.2,2.4-7.6c0-0.4-0.6-0.5-0.8-0.5c0-0.2,0.3-0.4,0.6-0.4c0.5,0,1.3,0.4,1.3,0.8
		c0,0.1-0.1,0.2-0.2,0.3c-0.1,0.1-0.2,0.2-0.2,0.4c-0.7,2.2-1.6,4.8-2.7,7c1.4-0.1,4.7-0.3,6.5-0.5c-0.5-0.9-1.5-2.1-2.4-2.7
		L359.7,295.4z"/>
</g>
<g>
	<path d="M584.3,188l-1.5,2.2c-0.3,0.4-0.4,0.6-0.4,0.9c0,0.1,0.1,0.7,0.1,0.9c0,0.3-0.1,0.4-0.4,0.4c-0.2,0-0.3-0.1-0.3-0.4
		c0-0.1,0.1-0.6,0.1-0.6c0-0.3-0.1-0.4-0.4-0.5c-0.4-0.1-0.6-0.2-0.9-0.2l0-0.2c0.3,0,0.6,0.1,0.8,0.1c0.4,0,0.6-0.1,0.9-0.4
		l1.8-2.1L584.3,188z M585.5,197C585.5,197,585.5,197,585.5,197C585.5,197,585.5,197,585.5,197c-0.2,0.1-0.6,0.2-0.9,0.3
		c-0.9,0.3-2.6,0.9-3.5,1.1l-0.1-0.1c1.4-0.5,2.9-1.1,3.7-1.7L585.5,197z M581.3,187.6c0.8,0.1,1.5,0.4,1.6,0.7
		c0,0.1,0.1,0.2,0.1,0.3c0,0.3-0.2,0.5-0.3,0.5c-0.1,0-0.1,0-0.3-0.3c-0.1-0.3-0.4-0.7-1.1-1L581.3,187.6z M590.1,192.3
		C590.2,192.3,590.2,192.3,590.1,192.3c0.1,0.1,0.1,0.1,0,0.2l-0.4,0.3v2.1c0,0.7,0,1.2,0,1.5v0.1c0,0.1,0,0.2-0.3,0.3
		c-0.1,0-0.2,0.1-0.2,0.1c-0.1,0-0.1,0-0.1-0.4h-6v0.2c0,0.1,0,0.1-0.3,0.3c-0.1,0-0.2,0.1-0.2,0.1c-0.1,0-0.1,0-0.1-0.2v-0.1
		c0-0.4,0-0.9,0-1.4v-1.8c0-0.4,0-1,0-1.4l0.6,0.4h5.6l0.4-0.5L590.1,192.3z M589.2,193.5v-0.9h-6v0.9H589.2z M589.2,194.7v-1h-6v1
		H589.2z M589.2,196v-1h-6v1H589.2z M591.9,191.6c-0.6,0.1-0.9,0.2-1,0.5c0,0,0,0-0.1,0c0,0,0,0-0.1,0c-1.5-0.5-2.6-1.2-3.3-2.4
		c-0.9,1.5-1.8,2.1-3.9,2.4l-0.1-0.2c2.1-0.6,3.1-1.4,3.6-3l0.8,0.3c0,0,0.1,0,0.1,0c0,0-0.3,0.2-0.3,0.2c1.1,1.5,2.7,2,4.3,2V191.6
		z M591.1,188.8C591.2,188.8,591.2,188.8,591.1,188.8C591.2,188.9,591.2,188.9,591.1,188.8c-0.5,0.2-1,0.4-1.9,1.3l-0.1-0.1l0.8-1.1
		h-4.4c-0.4,0.6-0.9,1.1-1.5,1.7l-0.1-0.1c0.9-1.2,1.5-2.2,2-3.5l0.9,0.4c0,0,0,0,0,0c0,0,0,0-0.1,0c-0.2,0-0.5,0.2-0.5,0.3
		c-0.2,0.3-0.3,0.6-0.5,0.8h4.2l0.4-0.4L591.1,188.8z M587.1,196.7c2.5,0.2,3.9,0.5,3.9,1.2c0,0.2-0.1,0.3-0.2,0.3
		c-0.1,0-0.3-0.1-0.7-0.4c-0.4-0.3-1.5-0.6-3-1L587.1,196.7z"/>
	<path d="M603.4,191.1C603.5,191.2,603.5,191.2,603.4,191.1c0.1,0.1,0,0.1,0,0.1h-8.9c-0.1,4.4-0.2,5.4-1.9,6.8l-0.1-0.1
		c1.2-1.5,1.4-2.4,1.4-4.1c0-1.1,0-2.6,0-3.6l0.7,0.7h4.3c0.5-0.8,1-1.7,1.1-2l0.7,0.5c0.1,0,0.1,0.1,0.1,0.1c0,0,0,0-0.1,0
		c-0.2,0-0.5,0.2-0.8,0.5l-0.8,0.8h2.9l0.6-0.6L603.4,191.1z M603.3,188.6C603.3,188.7,603.3,188.7,603.3,188.6c0.1,0.1,0,0.1,0,0.1
		h-9.1c-0.3,0-0.6,0-0.8,0.1l-0.3-0.4c0.3,0,0.6,0,0.9,0h8l0.6-0.7L603.3,188.6z M603.3,197.4C603.4,197.4,603.4,197.5,603.3,197.4
		c0.1,0.1,0,0.1,0,0.1h-7.9c-0.3,0-0.6,0-0.8,0.1l-0.3-0.4c0.3,0,0.6,0,0.9,0h3.3v-1.9h-1.8c-0.3,0-0.6,0-0.8,0.1l-0.3-0.4
		c0.3,0,0.6,0,0.9,0h2.1v-1.6h-2.1c-0.5,0.8-1,1.4-1.5,2l-0.1-0.1c0.7-0.9,1.6-2.8,1.8-3.7l0.8,0.5c0,0,0.1,0.1,0.1,0.1
		c0,0,0,0-0.1,0.1c-0.3,0.1-0.4,0.1-0.8,0.9h2c0-0.9,0-1.5,0-1.8l1,0.4c0,0,0.1,0,0.1,0.1c0,0,0,0-0.1,0.1l-0.4,0.3v1.1h2.4l0.5-0.6
		l0.8,0.7c0,0,0.1,0.1,0.1,0.1c0,0,0,0-0.1,0H599v1.6h2.2l0.5-0.6l0.8,0.7c0,0,0.1,0.1,0.1,0.1c0,0,0,0-0.1,0H599v1.9h3l0.6-0.7
		L603.3,197.4z M595.8,189.1c1.1,0.4,1.5,0.7,1.7,1.2c0,0,0,0.1,0,0.1c0,0.3-0.3,0.5-0.5,0.5c-0.1,0-0.2-0.1-0.3-0.4
		c-0.1-0.4-0.5-1-1-1.3L595.8,189.1z M597.2,186.9c0.7,0.1,1.5,0.5,1.6,0.8c0,0.1,0,0.2,0,0.3c0,0.3-0.2,0.5-0.5,0.5
		c-0.1,0-0.2-0.1-0.3-0.3c-0.1-0.5-0.5-0.8-1-1.1L597.2,186.9z"/>
	<path d="M610.2,188.4c0,0,0.1,0.1,0.1,0.1c0,0.1,0,0.1-0.1,0.1h-2.2c0.6,0.5,0.8,0.8,0.8,1.1s-0.2,0.5-0.4,0.5
		c-0.1,0-0.2-0.1-0.2-0.3c0-0.3-0.2-0.9-0.4-1.3H607c-0.8,1-1.4,1.7-2,2.2l-0.1-0.1c1-1.3,1.9-2.5,2.5-3.7l0.7,0.4
		c0.1,0,0.1,0.1,0.1,0.1s0,0-0.1,0.1c-0.3,0.1-0.3,0.1-0.8,0.7h2l0.4-0.6L610.2,188.4z M615.4,190.9c0.1,0.1,0.1,0.1,0.1,0.1
		c0,0,0,0.1-0.1,0.1c-0.4,0-0.9,0.3-1.5,1.1l-0.2-0.1l0.6-1.1h-8.1c-0.1,1.1-0.5,1.4-0.9,1.4c-0.2,0-0.3-0.1-0.3-0.2
		c0-0.1,0.1-0.3,0.3-0.5c0.3-0.3,0.6-0.7,0.7-1.6h0.2c0,0.2,0,0.4,0,0.6h8l0.4-0.5L615.4,190.9z M613.5,195.3
		C613.5,195.4,613.6,195.4,613.5,195.3c0.1,0.1,0,0.1,0,0.2l-0.3,0.2v1.2c0,0.3,0,0.5,0,0.8v0c0,0.2-0.4,0.3-0.5,0.3
		c-0.1,0-0.1,0-0.1-0.1v-0.6H608v0.5c0,0.2-0.5,0.4-0.5,0.4c-0.1,0-0.1-0.1-0.1-0.2V198c0-0.5,0-0.9,0-1.6v-3.7c0-0.4,0-0.9,0-1.2
		l0.7,0.6h3.9l0.3-0.5l0.7,0.6c0,0,0.1,0.1,0.1,0.1c0,0,0,0.1-0.1,0.1l-0.3,0.2v0.6c0,0.3,0,0.6,0,0.9v0c0,0.2-0.5,0.3-0.5,0.3
		c-0.1,0-0.1,0-0.1-0.4H608v1.3h4.5l0.3-0.4L613.5,195.3z M612.2,193.7v-1.3H608v1.3H612.2z M612.7,197.1v-1.7H608v1.7H612.7z
		 M609.3,189.2c0.7,0.3,1.2,0.6,1.2,1.1c0,0.2-0.2,0.4-0.3,0.4c-0.1,0-0.2-0.1-0.3-0.3c-0.1-0.3-0.4-0.8-0.7-1.1L609.3,189.2z
		 M615.3,188.3c0.1,0.1,0.1,0.1,0.1,0.2c0,0,0,0.1-0.2,0.1h-3c0.7,0.5,0.9,0.9,0.9,1.2c0,0.3-0.3,0.5-0.4,0.5
		c-0.1,0-0.2-0.1-0.2-0.3c0-0.5-0.2-0.9-0.5-1.4h-0.8c-0.3,0.3-0.6,0.7-0.8,1l-0.1-0.1c0.7-1,1.1-1.6,1.4-2.4l0.6,0.3
		c0,0,0.1,0,0.1,0.1c0,0,0,0-0.1,0.1c-0.2,0.1-0.3,0.2-0.5,0.3c-0.1,0.2-0.3,0.3-0.4,0.5h2.7l0.5-0.6L615.3,188.3z"/>
	<path d="M621.3,194.6l-3,1.4c-0.4,0.2-0.8,0.4-0.9,0.6c0,0-0.1,0.1-0.1,0.1c0,0-0.1,0-0.1-0.1l-0.4-0.6l1.9-0.7v-3.1h-0.7
		c-0.2,0-0.6,0-0.8,0.1l-0.3-0.4c0.3,0,0.6,0,0.8,0h0.9v-3h-0.7c-0.3,0-0.6,0-0.8,0.1l-0.3-0.4c0.3,0,0.6,0,0.9,0h2.3l0.4-0.6
		l0.7,0.6c0.1,0.1,0.1,0.1,0.1,0.2c0,0,0,0.1-0.1,0.1h-1.9v3h0.7l0.4-0.6l0.6,0.6c0.1,0.1,0.1,0.1,0.1,0.1c0,0,0,0.1-0.1,0.1h-1.7v3
		l2.1-0.7L621.3,194.6z M627.6,197.3c0.1,0.1,0.1,0.1,0.1,0.1c0,0,0,0.1-0.1,0.1h-6.5c-0.3,0-0.6,0-0.8,0.1l-0.3-0.4
		c0.3,0,0.6,0,0.9,0h3v-2.1h-1.4c-0.3,0-0.6,0-0.8,0.1l-0.3-0.4c0.3,0,0.6,0,0.9,0h1.6V193h-1.7c0,0.3,0,0.3-0.3,0.5
		c-0.1,0.1-0.2,0.1-0.2,0.1c-0.1,0-0.1-0.1-0.1-0.2v-0.1c0-0.5,0-1,0-1.6V189c0-0.5,0-0.9,0-1.3l0.7,0.5h3.7l0.4-0.6l0.7,0.5
		c0.1,0,0.1,0.1,0.1,0.1s0,0.1-0.1,0.1l-0.3,0.2v3c0,0.5,0,1,0.1,1.4c0,0,0,0.1,0,0.1c0,0.3-0.5,0.5-0.5,0.5c-0.1,0-0.1,0-0.1-0.5
		h-1.8v1.9h1.6l0.5-0.7l0.8,0.7c0.1,0.1,0.1,0.1,0.1,0.2c0,0.1-0.1,0.1-0.2,0.1h-2.7v2.1h2l0.5-0.7L627.6,197.3z M623.8,190.6v-2.2
		h-1.7v2.2H623.8z M623.8,192.8v-1.9h-1.7v1.9H623.8z M626.1,190.6v-2.2h-1.8v2.2H626.1z M626.1,192.8v-1.9h-1.8v1.9H626.1z"/>
	<path d="M630.7,197.4c4-1.8,5.5-5,6-7.8c0,0,0,0,0-0.1c0-0.1,0-0.1-0.2-0.1c-0.3,0-5,0.3-5.6,0.6c-0.2,0.1-0.3,0.2-0.5,0.2
		c-0.4,0-0.9-0.7-0.9-1.2c0-0.2,0.2-0.3,0.3-0.4l0,0c0.1,0.7,0.7,0.7,1.2,0.7c0.6,0,4.4-0.2,5-0.2c0.2,0,0.3-0.3,0.5-0.3
		c0.3,0,1,0.7,1,0.9c0,0.1-0.2,0.2-0.3,0.3s-0.1,0.1-0.2,0.3c-0.6,2.5-2.2,5.8-6.4,7.4L630.7,197.4z M638.8,186.7
		c0.7,0,1.3,0.6,1.3,1.3c0,0.7-0.6,1.3-1.3,1.3c-0.7,0-1.3-0.6-1.3-1.3C637.5,187.3,638.1,186.7,638.8,186.7z M639.8,188
		c0-0.5-0.4-0.9-0.9-0.9c-0.5,0-1,0.4-1,0.9c0,0.5,0.4,1,1,1C639.4,189,639.8,188.5,639.8,188z"/>
	<path d="M643.1,197.4c3.2-1.1,5.3-2.8,6.2-5.7c0-0.1,0.1-0.2,0.1-0.3c0-0.1,0-0.1-0.1-0.1c-0.1,0-5.3,0.4-6.2,0.7
		c-0.1,0-0.2,0.2-0.4,0.2c-0.4,0-1.1-0.7-1.1-1.1c0-0.2,0.1-0.4,0.2-0.6h0.1c0,0.7,0.7,0.7,1.2,0.7c0.6,0,4.6-0.3,6-0.4
		c0.2,0,0.4-0.4,0.6-0.4c0.2,0,0.9,0.6,0.9,0.8c0,0.1-0.2,0.2-0.3,0.2c-0.1,0-0.3,0.1-0.3,0.2c-1.2,3.2-3.3,4.9-6.8,5.9L643.1,197.4
		z M643.1,188c0.1,0.3,0.6,0.5,1.3,0.5c0.5,0,2.2-0.1,2.9-0.3c0.4-0.1,0.6-0.2,0.8-0.4c0.6,0.1,1.2,0.2,1.2,0.5
		c0,0.2-0.3,0.3-0.8,0.3c-0.7,0-2,0.1-3,0.2c-0.6,0-1,0.1-1.3,0.1c-0.9,0-1.3-0.4-1.3-0.7C643,188.2,643,188,643.1,188z"/>
	<path d="M654.4,191c0.7,0.5,1.4,1.4,1.4,2c0,0.3-0.1,0.5-0.3,0.5c-0.2,0-0.3-0.1-0.3-0.3c0-0.7-0.5-1.4-0.9-2L654.4,191z
		 M656.1,197.6c3.7-1.8,5-5.7,5-6.3c0-0.1,0-0.2-0.1-0.3c-0.1-0.1-0.4-0.2-0.6-0.2c0,0,0.1-0.3,0.4-0.3c0.5,0,1.2,0.5,1.2,0.8
		c0,0.1-0.1,0.2-0.2,0.3c0,0-0.1,0.1-0.1,0.2c-0.8,2.6-2.6,4.9-5.4,6.1L656.1,197.6z M657.2,190.5c0.9,0.7,1.2,1.5,1.2,2.1
		c0,0.4-0.1,0.7-0.3,0.7c-0.2,0-0.4-0.1-0.4-0.4c0-0.6-0.1-1.4-0.7-2.2L657.2,190.5z"/>
	<path d="M667.8,188c0.1-0.2,0.3-0.3,0.5-0.3c0.5,0,1.4,0.3,1.4,0.7c0,0.1-0.1,0.2-0.2,0.3c0,0.1-0.1,0.2-0.1,0.3
		c0,0.5,0,1.4-0.1,2.5c1.5,0.2,2.8,0.6,3.5,0.9c0.7,0.4,1,0.6,1,1c0,0.2-0.1,0.3-0.3,0.3c-0.3,0-0.6-0.3-0.9-0.6
		c-0.5-0.5-1.8-1-3.3-1.4c0,0.9,0,1.8,0,2.5c0,0.4,0,2.4,0,2.8c0,0.5-0.2,0.6-0.4,0.6c-0.4,0-0.6-1.2-0.6-1.4
		c0.1-0.1,0.2-0.3,0.2-0.5c0.1-0.8,0.1-1.5,0.1-4.1c0-1.1,0-2.3,0-2.8C668.7,188.6,668.6,188,667.8,188L667.8,188z"/>
	<path d="M678.8,197.4c4.2-1.6,6.1-5.2,6.7-8c0,0,0-0.1,0-0.1c0,0,0,0,0,0c-0.6,0-5.8,0.3-6.3,0.6c-0.3,0.1-0.3,0.1-0.5,0.1
		c-0.4,0-0.9-0.6-0.9-1.1c0-0.2,0.1-0.3,0.3-0.4l0,0c0.1,0.6,0.8,0.6,1.3,0.6c1,0,5.1-0.2,5.7-0.3c0.3,0,0.4-0.3,0.6-0.3
		c0.3,0,1,0.6,1,0.8c0,0.1-0.2,0.2-0.3,0.2c-0.2,0.1-0.3,0.1-0.3,0.3c-0.8,2.8-2.6,6.3-7.2,7.8L678.8,197.4z"/>
	<path d="M690.5,191.5c0.1,0.4,0.5,0.5,0.9,0.5c0.5,0,2.1-0.1,3.2-0.2c0-1.6,0-1.8-0.3-2.1c-0.1-0.1-0.3-0.1-0.6-0.1
		c0-0.2,0.2-0.4,0.4-0.4c0.6,0,1.2,0.4,1.2,0.7c0,0.3-0.2,0.1-0.2,0.8v1c0.5,0,1.7-0.1,2-0.4c0.6,0.1,1,0.3,1,0.6
		c0,0.1-0.1,0.2-0.2,0.2h-0.1c-0.3,0-0.7-0.1-1.2-0.1c-0.4,0-1.1,0-1.5,0.1l0.1,3.3c0,0.3,0,0.6,0,0.9c0,0.1,0.1,0.3,0.1,0.5
		c0,0.4-0.3,1-0.7,1c-0.1,0-0.2-0.1-0.2-0.3c0-0.1-0.1-0.2-0.3-0.3c-0.2-0.1-1.1-0.7-1.4-0.9l0.1-0.2c0.3,0.2,1.5,0.7,1.8,0.7
		c0.1,0,0.1-0.1,0.1-0.3v-0.8c0-0.5,0-1.8,0-3c-1.2,1.6-2.8,2.9-4.6,3.8l-0.2-0.3c1.5-0.8,3.5-2.6,4.4-4.1c-0.7,0.1-1.7,0.2-2.5,0.3
		c-0.4,0.1-0.5,0.2-0.6,0.2c-0.3,0-0.9-0.6-0.9-0.9C690.3,191.7,690.3,191.6,690.5,191.5L690.5,191.5z"/>
	<path d="M710.8,192.4c0,0.1-0.1,0.1-0.3,0.1c-0.1,0-0.1,0-0.2,0c-0.2,0-0.6-0.1-1.2-0.1c-0.8,0-1.8,0-3.3,0.1
		c-1.4,0.1-2.1,0.2-2.7,0.4c-0.2,0-0.3,0.1-0.5,0.1c-0.4,0-0.9-0.6-0.9-0.7c0-0.1,0-0.1,0.1-0.1c0.1,0,0.1,0,0.2,0
		c0.2,0.1,0.3,0.1,0.7,0.1c0.5,0,1.3-0.1,2.9-0.2c3.1-0.3,3.2-0.3,3.5-0.4c0.2,0,0.3-0.1,0.5-0.1c0.2,0,0.4,0.1,0.7,0.3
		C710.6,192.2,710.8,192.3,710.8,192.4z"/>
	<path d="M719.6,192.8c1.7,1.1,3.4,3.1,3.4,4c0,0.4,0,0.6-0.3,0.6c-0.3,0-0.4-0.4-0.6-0.9c0-0.1-0.1-0.2-0.1-0.4
		c-2,0.3-5.2,0.6-6.8,0.8c-0.4,0-0.5,0.3-0.8,0.3c-0.4,0-1-0.7-1-1.1c0-0.2,0.1-0.4,0.2-0.4c0.1,0.2,0.2,0.6,0.7,0.6
		c0.1,0,0.3,0,0.6,0c1.2-2.7,2.4-7.2,2.4-7.6c0-0.4-0.6-0.5-0.8-0.5c0-0.2,0.3-0.4,0.6-0.4c0.5,0,1.3,0.4,1.3,0.8
		c0,0.1-0.1,0.2-0.2,0.3c-0.1,0.1-0.2,0.2-0.2,0.4c-0.7,2.2-1.6,4.8-2.7,7c1.4-0.1,4.7-0.3,6.5-0.5c-0.5-0.9-1.5-2.1-2.4-2.7
		L719.6,192.8z"/>
</g>
<g>
	<path d="M873,197.1c1,0,1.1-0.3,1.1-1.1V191c0-0.9-0.1-1.1-1.1-1.1v-0.2h5.1c0,0.6,0.1,1.3,0.1,1.8l-0.2,0
		c-0.2-1.3-0.5-1.6-1.9-1.6h-1c-0.3,0-0.3,0-0.3,0.3v2.9h1.4c1.1,0,1.2-0.1,1.4-0.9h0.2v2.3h-0.2c-0.2-0.9-0.3-1.1-1.4-1.1h-1.4v2.3
		c0,0.9,0.1,1.1,1.3,1.1v0.2h-3V197.1z"/>
	<path d="M886.7,195.1c-0.2,0.6-0.4,1.6-0.6,2c-0.4,0.1-1.5,0.3-2.4,0.3c-3.1,0-4.5-2-4.5-3.8c0-2.4,2-4,4.7-4
		c1.2,0,1.9,0.3,2.3,0.3c0.1,0.6,0.2,1.2,0.2,1.9l-0.2,0c-0.3-1.4-1.2-1.9-2.7-1.9c-2.4,0-3.4,1.6-3.4,3.4c0,2.3,1.4,3.8,3.5,3.8
		c1.7,0,2.4-0.9,2.9-2.1L886.7,195.1z"/>
	<path d="M892.3,197.1c0.7-0.1,0.9-0.2,0.9-0.5c0-0.3-0.4-1.2-0.8-2.4h-2.8c-0.1,0.2-0.7,1.8-0.7,2.2c0,0.4,0.3,0.5,1,0.6v0.2h-2.7
		v-0.2c0.8-0.2,1-0.3,1.4-1.4l2.6-6.1l0.1-0.1l0.8,2.2c0.6,1.5,1.1,3,1.5,4.1c0.4,0.9,0.5,1,1.3,1.2v0.2h-2.7V197.1z M891.1,190.7
		c-0.5,1.1-0.9,2.2-1.3,3.2h2.5L891.1,190.7L891.1,190.7z"/>
	<path d="M906.6,197.2c0.1,0.1,0.1,0.2,0.1,0.2s-0.1,0-0.2,0h-9.8c-0.3,0-0.6,0-0.8,0.1l-0.3-0.4c0.3,0,0.6,0,0.9,0h1.2v-2.1
		c0-0.3,0-0.9,0-1.2l0.7,0.5h5.9l0.3-0.4l0.7,0.6c0.1,0,0.1,0.1,0.1,0.1c0,0,0,0-0.1,0.1l-0.4,0.2v2.2h0.7l0.5-0.6L906.6,197.2z
		 M902.1,193.1c0.1,0.1,0.1,0.1,0.1,0.2s0,0-0.1,0h-4.4l-0.2,0.3c0,0.1-0.1,0.1-0.1,0.1c0,0-0.1,0-0.1,0l-0.7-0.5l0.5-0.3v-3.8
		c0-0.9,0-1.6,0-2.1l0.7,0.6h3.2l0.4-0.5l0.6,0.6c0.1,0.1,0.1,0.1,0.1,0.2c0,0-0.1,0-0.2,0h-2.3v1.5h1.2l0.3-0.4l0.6,0.5
		c0.1,0.1,0.1,0.1,0.1,0.1c0,0,0,0.1-0.1,0.1l-0.3,0.2v0.6c0,0.2,0,0.9,0,1.1c0,0.2-0.5,0.3-0.5,0.3c-0.1,0-0.1-0.1-0.1-0.2v-0.4
		h-1.3v1.6h1.5l0.4-0.6L902.1,193.1z M899,189.5V188h-1.5v1.5H899z M900.8,191.2v-1.4h-3.3v1.4H900.8z M899,193.1v-1.6h-1.5v1.6H899
		z M899.8,197.1v-2.5h-1.7v2.5H899.8z M902.1,197.1v-2.5h-1.7v2.5H902.1z M906.7,189.4c0.1,0.1,0.1,0.1,0.1,0.2s-0.1,0-0.2,0h-3.5
		c-0.6,1.2-1.2,2.2-1.5,2.6l-0.2-0.1c0.9-1.6,1.7-4.1,1.9-5l0.8,0.6c0.1,0,0.1,0.1,0.1,0.1c0,0-0.1,0.1-0.2,0.1
		c-0.2,0.1-0.3,0.1-0.3,0.3c-0.2,0.4-0.3,0.8-0.5,1.2h2.3l0.5-0.6L906.7,189.4z M904.3,197.1v-2.5h-1.8v2.5H904.3z M903.5,190.6
		c0.8,0.5,1.6,1.4,1.6,2c0,0.4-0.3,0.6-0.4,0.6c-0.2,0-0.3-0.1-0.3-0.6c-0.1-0.5-0.3-1.2-1-1.9L903.5,190.6z"/>
	<path d="M907.5,193.2c2.3-1.5,3.7-2.8,4.6-4.2h-2.9c-0.3,0-0.6,0-0.8,0.1l-0.3-0.4c0.3,0,0.6,0,0.9,0h3.8v-0.5c0-0.7,0-1,0-1.4
		l0.9,0.4c0.1,0,0.1,0.1,0.1,0.1c0,0,0,0.1-0.4,0.3v1.1h3.3l0.5-0.7l0.8,0.8c0.1,0,0.1,0.1,0.1,0.1c0,0,0,0-0.2,0h-4
		c1.6,2,3,2.7,4.8,2.8l0,0.2c-0.6,0.1-0.8,0.2-0.9,0.5c0,0,0,0-0.1,0c0,0-0.1,0-0.1,0c-1.9-0.9-3.1-2-4-3.6h-0.2v1.6
		c0,0.6,0,0.9,0,1.3c0,0,0,0.1,0,0.1c0,0.2-0.1,0.2-0.3,0.3c-0.1,0-0.2,0.1-0.2,0.1c-0.1,0-0.1-0.1-0.1-0.2v0c0-0.4,0-0.9,0-1.4
		v-1.6c-0.8,1.1-1.8,2-3,2.9l0.7,0.5h5.4l0.4-0.4l0.6,0.5c0.1,0,0.1,0.1,0.1,0.1c0,0,0,0.1-0.3,0.3v4.2h0.6l0.6-0.7l0.8,0.8
		c0.1,0.1,0.1,0.1,0.1,0.1c0,0-0.1,0.1-0.2,0.1h-9.8c-0.3,0-0.6,0-0.8,0.1l-0.3-0.4c0.3,0,0.6,0,0.9,0h1.3v-4c0-0.4,0-0.7,0-1.1
		c-0.6,0.4-1.3,0.8-2.1,1.3L907.5,193.2z M916.1,194.1v-1.3h-5.7v1.3H916.1z M916.1,195.6v-1.2h-5.7v1.2H916.1z M916.1,197.2v-1.3
		h-5.7v1.3H916.1z"/>
	<path d="M844.4,211.8c4-1.8,5.5-5,6-7.8c0,0,0,0,0-0.1c0-0.1,0-0.1-0.2-0.1c-0.3,0-5,0.3-5.6,0.6c-0.2,0.1-0.3,0.2-0.5,0.2
		c-0.4,0-0.9-0.7-0.9-1.2c0-0.2,0.2-0.3,0.3-0.4l0,0c0.1,0.7,0.7,0.7,1.2,0.7c0.6,0,4.4-0.2,5-0.2c0.2,0,0.3-0.3,0.5-0.3
		c0.3,0,1,0.7,1,0.9c0,0.1-0.2,0.2-0.3,0.3c-0.1,0.1-0.1,0.1-0.2,0.3c-0.6,2.5-2.2,5.8-6.4,7.4L844.4,211.8z M852.5,201.1
		c0.7,0,1.3,0.6,1.3,1.3c0,0.7-0.6,1.3-1.3,1.3c-0.7,0-1.3-0.6-1.3-1.3C851.2,201.7,851.8,201.1,852.5,201.1z M853.4,202.4
		c0-0.5-0.4-0.9-0.9-0.9c-0.5,0-1,0.4-1,0.9c0,0.5,0.4,1,1,1C853,203.4,853.4,202.9,853.4,202.4z"/>
	<path d="M856.8,211.8c3.2-1.1,5.3-2.8,6.2-5.7c0-0.1,0.1-0.2,0.1-0.3c0-0.1,0-0.1-0.1-0.1c-0.1,0-5.3,0.4-6.2,0.7
		c-0.1,0-0.2,0.2-0.4,0.2c-0.4,0-1.1-0.7-1.1-1.1c0-0.2,0.1-0.4,0.2-0.6h0.1c0,0.7,0.7,0.7,1.2,0.7c0.6,0,4.6-0.3,6-0.4
		c0.2,0,0.4-0.4,0.6-0.4c0.2,0,0.9,0.6,0.9,0.8c0,0.1-0.2,0.2-0.3,0.2c-0.1,0-0.3,0.1-0.3,0.2c-1.2,3.2-3.3,4.9-6.8,5.9L856.8,211.8
		z M856.8,202.4c0.1,0.3,0.6,0.5,1.3,0.5c0.5,0,2.2-0.1,2.9-0.3c0.4-0.1,0.6-0.2,0.8-0.4c0.6,0.1,1.2,0.2,1.2,0.5
		c0,0.2-0.3,0.3-0.8,0.3c-0.7,0-2,0.1-3,0.2c-0.6,0-1,0.1-1.3,0.1c-0.9,0-1.3-0.4-1.3-0.7C856.6,202.6,856.7,202.4,856.8,202.4z"/>
	<path d="M874.2,202.2c0.1-0.1,0.3-0.3,0.5-0.3c0.6,0,1.4,0.5,1.4,0.9c0,0.1-0.1,0.1-0.3,0.2c-0.2,0.1-0.3,0.1-0.4,0.3
		c-0.9,0.8-2.2,1.9-3.1,2.5c0.2,0.1,0.4,0.4,0.4,0.6c0,0.1-0.1,0.2-0.1,0.4c0,0.5,0,1.8,0,2.2c0,0.6,0,1.1,0,1.4c0,0.4,0,0.8,0,1
		c0,0.5-0.1,0.7-0.4,0.7c-0.2,0-0.4-0.5-0.5-1.1c0.2-0.3,0.2-0.5,0.2-0.9c0-0.5,0.1-1.6,0.1-2.4c0-0.8,0-1.4-0.2-1.6
		c-1.1,0.8-3,1.9-5.2,2.9l-0.1-0.3c5.1-2.6,8.3-5.6,8.3-6.1C874.9,202.5,874.5,202.3,874.2,202.2L874.2,202.2z"/>
	<path d="M878.9,211.5c2.8-1.6,5.9-5.2,6.9-7.8c0,0,0-0.1,0-0.1c0,0,0-0.1-0.1-0.1c-0.2,0-2.5,0.2-3.6,0.4c-0.3,0.1-0.4,0.1-0.5,0.2
		c-0.1,0.1-0.1,0.1-0.3,0.1c-0.4,0-1-0.6-1-1c0-0.3,0.2-0.4,0.3-0.4c0.1,0.6,0.6,0.6,1.1,0.6c0.3,0,3.2-0.2,4-0.3
		c0.2,0,0.3-0.1,0.3-0.2c0.1-0.1,0.2-0.2,0.3-0.2c0.2,0,0.9,0.5,0.9,0.7c0,0.2-0.2,0.2-0.3,0.3c-0.2,0.1-0.3,0.2-0.3,0.3
		c-0.4,0.8-1.4,2.3-2.1,3.2c1.1,0.7,2.5,1.6,3.3,2.3c0.6,0.6,1,1.2,1,1.5c0,0.3-0.1,0.5-0.4,0.5c-0.2,0-0.5-0.4-0.9-1.1
		c-0.6-0.9-2.2-2.3-3.3-2.9c-1,1.3-2.9,3.1-4.9,4.1L878.9,211.5z"/>
	<path d="M894.6,202.2c0.1-0.2,0.3-0.3,0.6-0.3c0.4,0,1.2,0.3,1.2,0.6c0,0.1-0.1,0.2-0.2,0.3c0,0.1-0.1,0.2-0.1,0.4
		c0,0.3,0,1.1,0,1.4c0.9,0,1.7-0.1,2.2-0.1c0.4,0,0.7-0.1,0.8-0.2c0.1-0.1,0.2-0.3,0.3-0.3c0.2,0,1,0.7,1,0.8s-0.2,0.2-0.3,0.3
		c-0.1,0-0.2,0.1-0.3,0.3c-0.6,3-2.1,5.6-6.1,6.9l-0.1-0.3c3.6-1.4,5-4,5.6-7.1c0,0,0-0.1,0-0.1c0-0.1-0.1-0.1-0.2-0.1
		c-0.5,0-4.3,0.3-4.7,0.3c-0.5,0.1-0.7,0.1-1.1,0.1c-0.2,0-0.4,0-0.5-0.1c0,0.8,0.1,2.2,0.2,2.6c0,0.1,0,0.1,0,0.2
		c0,0.2-0.1,0.4-0.3,0.4c-0.3,0-0.4-0.3-0.5-1c0.1-0.1,0.1-0.2,0.1-0.5c0-0.5-0.1-1.4-0.2-1.7c-0.1-0.4-0.3-0.7-0.7-0.8l0-0.1
		c0.1-0.1,0.3-0.1,0.5-0.1c0.3,0,0.7,0.3,0.8,0.6c0.1,0,0.4,0,0.4,0c0.4,0,1.5,0,2.4-0.1c0-0.4,0-1.4,0-1.6c0-0.3-0.1-0.7-0.7-0.7
		C894.8,202.2,894.7,202.2,894.6,202.2L894.6,202.2z"/>
	<path d="M904.1,205.9c0.1,0.4,0.5,0.5,0.9,0.5c0.5,0,2.1-0.1,3.2-0.2c0-1.6,0-1.8-0.3-2.1c-0.1-0.1-0.3-0.1-0.6-0.1
		c0-0.2,0.2-0.4,0.4-0.4c0.6,0,1.2,0.4,1.2,0.7c0,0.3-0.2,0.1-0.2,0.8v1c0.5,0,1.7-0.1,2-0.4c0.6,0.1,1,0.3,1,0.6
		c0,0.1-0.1,0.2-0.2,0.2h-0.1c-0.3,0-0.7-0.1-1.2-0.1c-0.4,0-1.1,0-1.5,0.1l0.1,3.3c0,0.3,0,0.6,0,0.9c0,0.1,0.1,0.3,0.1,0.5
		c0,0.4-0.3,1-0.7,1c-0.1,0-0.2-0.1-0.2-0.3c0-0.1-0.1-0.2-0.3-0.3c-0.2-0.1-1.1-0.7-1.4-0.9l0.1-0.2c0.3,0.2,1.5,0.7,1.8,0.7
		c0.1,0,0.1-0.1,0.1-0.3v-0.8c0-0.5,0-1.8,0-3c-1.2,1.6-2.8,2.9-4.6,3.8l-0.2-0.3c1.5-0.8,3.5-2.6,4.4-4.1c-0.7,0.1-1.7,0.2-2.5,0.3
		c-0.4,0.1-0.5,0.2-0.6,0.2c-0.3,0-0.9-0.6-0.9-0.9C903.9,206.1,903.9,206,904.1,205.9L904.1,205.9z"/>
	<path d="M924.4,206.8c0,0.1-0.1,0.1-0.3,0.1c-0.1,0-0.1,0-0.2,0c-0.2,0-0.6-0.1-1.2-0.1c-0.8,0-1.8,0-3.3,0.1
		c-1.4,0.1-2.1,0.2-2.7,0.4c-0.2,0-0.3,0.1-0.5,0.1c-0.4,0-0.9-0.6-0.9-0.7c0-0.1,0-0.1,0.1-0.1c0.1,0,0.1,0,0.2,0
		c0.2,0.1,0.3,0.1,0.7,0.1c0.5,0,1.3-0.1,2.9-0.2c3.1-0.3,3.2-0.3,3.5-0.4c0.2,0,0.3-0.1,0.5-0.1c0.2,0,0.4,0.1,0.7,0.3
		C924.3,206.6,924.4,206.7,924.4,206.8z"/>
	<path d="M927.5,207.5c1.5-1.2,3.1-3.1,3.5-4.4c0.1-0.2,0.1-0.4,0.1-0.5c0-0.3-0.6-0.4-0.7-0.4c0-0.2,0.2-0.3,0.5-0.3
		c0.5,0,1.3,0.4,1.3,0.7c0,0.1-0.1,0.2-0.2,0.3c-0.1,0.1-0.2,0.2-0.3,0.5c-0.1,0.2-0.2,0.4-0.3,0.6c0.1,0,0.3,0,0.4,0
		c0.4,0,2.1-0.1,2.8-0.2c0.3,0,0.3,0,0.4-0.1c0.1-0.1,0.2-0.2,0.3-0.2c0.2,0,0.9,0.6,0.9,0.8c0,0.1-0.1,0.2-0.3,0.2
		c-0.1,0-0.3,0.1-0.4,0.3c-0.4,0.9-1.1,2.3-1.6,3c0.5,0.3,1.3,0.9,1.3,1.4c0,0.2-0.2,0.3-0.3,0.3c-0.2,0-0.4-0.2-0.5-0.4
		c-0.2-0.3-0.6-0.6-0.9-0.8c-1.2,1.5-3,2.9-5.2,3.8l-0.2-0.3c2-1,3.8-2.5,4.9-3.9c-0.6-0.4-1.5-0.9-2.7-1.2l0.1-0.3
		c1.2,0.2,2.3,0.7,2.9,1c1.1-1.7,1.6-3.1,1.6-3.2c0-0.1,0-0.1-0.2-0.1c-0.5,0-2.8,0.4-3.1,0.4c-0.2,0-0.4-0.1-0.5-0.2
		c-0.8,1.2-1.8,2.3-3.3,3.4L927.5,207.5z"/>
	<path d="M948.4,206.8c0,0.1-0.1,0.1-0.3,0.1c-0.1,0-0.1,0-0.2,0c-0.2,0-0.6-0.1-1.2-0.1c-0.8,0-1.8,0-3.3,0.1
		c-1.4,0.1-2.1,0.2-2.7,0.4c-0.2,0-0.3,0.1-0.5,0.1c-0.4,0-0.9-0.6-0.9-0.7c0-0.1,0-0.1,0.1-0.1c0.1,0,0.1,0,0.2,0
		c0.2,0.1,0.3,0.1,0.7,0.1c0.5,0,1.3-0.1,2.9-0.2c3.1-0.3,3.2-0.3,3.5-0.4c0.2,0,0.3-0.1,0.5-0.1c0.2,0,0.4,0.1,0.7,0.3
		C948.3,206.6,948.4,206.7,948.4,206.8z"/>
	<path d="M850.7,218.8c0.1-0.3,0.3-0.3,0.5-0.3c0.5,0,1.3,0.5,1.3,0.8c0,0.3-0.2,0.1-0.4,0.8c-0.6,1.7-1.7,3.6-3.3,4.9l-0.3-0.3
		c2-2,3-4.8,3-5.3C851.4,219.1,851.1,218.9,850.7,218.8L850.7,218.8z M855.2,218.9c2.1,1.4,4,4,4,5.3c0,0.3,0,0.6-0.3,0.6
		c-0.2,0-0.3-0.2-0.5-0.5c-0.5-1.6-1.5-3.6-3.4-5.1L855.2,218.9z"/>
	<path d="M864.6,216.6c0.1-0.2,0.3-0.3,0.6-0.3c0.4,0,1.2,0.3,1.2,0.6c0,0.1-0.1,0.2-0.2,0.3c0,0.1-0.1,0.2-0.1,0.4
		c0,0.3,0,1.1,0,1.4c0.9,0,1.7-0.1,2.2-0.1c0.4,0,0.7-0.1,0.8-0.2c0.1-0.1,0.2-0.3,0.3-0.3c0.2,0,1,0.7,1,0.8c0,0.1-0.2,0.2-0.3,0.3
		c-0.1,0-0.2,0.1-0.3,0.3c-0.6,3-2.1,5.6-6.1,6.9l-0.1-0.3c3.6-1.4,5-4,5.6-7.1c0,0,0-0.1,0-0.1c0-0.1-0.1-0.1-0.2-0.1
		c-0.5,0-4.3,0.3-4.7,0.3c-0.5,0.1-0.7,0.1-1.1,0.1c-0.2,0-0.4,0-0.5-0.1c0,0.8,0.1,2.2,0.2,2.6c0,0.1,0,0.1,0,0.2
		c0,0.2-0.1,0.4-0.3,0.4c-0.3,0-0.4-0.3-0.5-1c0.1-0.1,0.1-0.2,0.1-0.5c0-0.5-0.1-1.4-0.2-1.7c-0.1-0.4-0.3-0.7-0.7-0.8l0-0.1
		c0.1-0.1,0.3-0.1,0.5-0.1c0.3,0,0.7,0.3,0.8,0.6c0.1,0,0.4,0,0.4,0c0.4,0,1.5,0,2.4-0.1c0-0.4,0-1.4,0-1.6c0-0.3-0.1-0.7-0.7-0.7
		C864.8,216.6,864.7,216.6,864.6,216.6L864.6,216.6z"/>
	<path d="M872.9,225.9c2.8-1.6,5.9-5.2,6.9-7.8c0,0,0-0.1,0-0.1c0,0,0-0.1-0.1-0.1c-0.2,0-2.5,0.2-3.6,0.4c-0.3,0.1-0.4,0.1-0.5,0.2
		c-0.1,0.1-0.1,0.1-0.3,0.1c-0.4,0-1-0.6-1-1c0-0.3,0.2-0.4,0.3-0.4c0.1,0.6,0.6,0.6,1.1,0.6c0.3,0,3.2-0.2,4-0.3
		c0.2,0,0.3-0.1,0.3-0.2c0.1-0.1,0.2-0.2,0.3-0.2c0.2,0,0.9,0.5,0.9,0.7c0,0.2-0.2,0.2-0.3,0.3c-0.2,0.1-0.3,0.2-0.3,0.3
		c-0.4,0.8-1.4,2.3-2.1,3.2c1.1,0.7,2.5,1.6,3.3,2.3c0.6,0.6,1,1.2,1,1.5c0,0.3-0.1,0.5-0.4,0.5c-0.2,0-0.5-0.4-0.9-1.1
		c-0.6-0.9-2.2-2.3-3.3-2.9c-1,1.3-2.9,3.1-4.9,4.1L872.9,225.9z"/>
	<path d="M885.7,221.9c2.3-1.8,3.4-4.4,3.4-5c0-0.2-0.3-0.4-0.6-0.4c0.1-0.2,0.2-0.3,0.6-0.3c0.4,0,1.2,0.4,1.2,0.7
		c0,0.1-0.2,0.2-0.3,0.3c-0.1,0.1-0.1,0.1-0.2,0.3c-0.2,0.4-0.4,0.9-0.7,1.3c0.7,0,3.1-0.3,3.4-0.3c0.3,0,0.3-0.1,0.4-0.2
		s0.1-0.2,0.2-0.2c0.2,0,0.9,0.5,0.9,0.7c0,0.1-0.2,0.2-0.3,0.2c-0.1,0-0.3,0.2-0.3,0.4c-1,2.8-2.8,5.5-6.5,7l-0.2-0.3
		c3.2-1.6,5.2-4.2,6.1-7.1c0-0.1,0-0.1,0-0.2c0-0.1,0-0.1-0.1-0.1c-0.4,0-2.8,0.5-3.1,0.5c-0.4,0-0.6-0.1-0.8-0.2
		c-0.7,1.1-1.6,2.2-2.9,3L885.7,221.9z"/>
	<path d="M906.4,221.2c0,0.1-0.1,0.1-0.3,0.1c-0.1,0-0.1,0-0.2,0c-0.2,0-0.6-0.1-1.2-0.1c-0.8,0-1.8,0-3.3,0.1
		c-1.4,0.1-2.1,0.2-2.7,0.4c-0.2,0-0.3,0.1-0.5,0.1c-0.4,0-0.9-0.6-0.9-0.7c0-0.1,0-0.1,0.1-0.1c0.1,0,0.1,0,0.2,0
		c0.2,0.1,0.3,0.1,0.7,0.1c0.5,0,1.3-0.1,2.9-0.2c3.1-0.3,3.2-0.3,3.5-0.4c0.2,0,0.3-0.1,0.5-0.1c0.2,0,0.4,0.1,0.7,0.3
		C906.3,221,906.4,221.1,906.4,221.2z"/>
	<path d="M910.7,219c0.1-0.3,0.3-0.3,0.5-0.3c0.5,0,1.3,0.5,1.3,0.8c0,0.3-0.2,0.1-0.4,0.8c-0.6,1.7-1.7,3.6-3.3,4.9l-0.3-0.3
		c2-2,3-4.8,3-5.3C911.4,219.2,911.1,219,910.7,219L910.7,219z M915.2,219c2.1,1.4,4,4,4,5.3c0,0.3,0,0.6-0.3,0.6
		c-0.2,0-0.3-0.2-0.5-0.5c-0.5-1.6-1.5-3.6-3.4-5.1L915.2,219z M917.6,216.3c0.7,0,1.4,0.6,1.4,1.4c0,0.8-0.6,1.4-1.4,1.4
		c-0.8,0-1.4-0.6-1.4-1.4C916.2,216.9,916.8,216.3,917.6,216.3z M918.5,217.7c0-0.5-0.4-1-1-1c-0.5,0-1,0.4-1,1c0,0.5,0.4,1,1,1
		C918.1,218.7,918.5,218.2,918.5,217.7z"/>
	<path d="M930.4,221.2c0,0.1-0.1,0.1-0.3,0.1c-0.1,0-0.1,0-0.2,0c-0.2,0-0.6-0.1-1.2-0.1c-0.8,0-1.8,0-3.3,0.1
		c-1.4,0.1-2.1,0.2-2.7,0.4c-0.2,0-0.3,0.1-0.5,0.1c-0.4,0-0.9-0.6-0.9-0.7c0-0.1,0-0.1,0.1-0.1c0.1,0,0.1,0,0.2,0
		c0.2,0.1,0.3,0.1,0.7,0.1c0.5,0,1.3-0.1,2.9-0.2c3.1-0.3,3.2-0.3,3.5-0.4c0.2,0,0.3-0.1,0.5-0.1c0.2,0,0.4,0.1,0.7,0.3
		C930.3,221,930.4,221.1,930.4,221.2z"/>
	<path d="M932.9,225.9c2.8-1.6,5.9-5.2,6.9-7.8c0,0,0-0.1,0-0.1c0,0,0-0.1-0.1-0.1c-0.2,0-2.5,0.2-3.6,0.4c-0.3,0.1-0.4,0.1-0.5,0.2
		c-0.1,0.1-0.1,0.1-0.3,0.1c-0.4,0-1-0.6-1-1c0-0.3,0.2-0.4,0.3-0.4c0.1,0.6,0.6,0.6,1.1,0.6c0.3,0,3.2-0.2,4-0.3
		c0.2,0,0.3-0.1,0.3-0.2c0.1-0.1,0.2-0.2,0.3-0.2c0.2,0,0.9,0.5,0.9,0.7c0,0.2-0.2,0.2-0.3,0.3c-0.2,0.1-0.3,0.2-0.3,0.3
		c-0.4,0.8-1.4,2.3-2.1,3.2c1.1,0.7,2.5,1.6,3.3,2.3c0.6,0.6,1,1.2,1,1.5c0,0.3-0.1,0.5-0.4,0.5c-0.2,0-0.5-0.4-0.9-1.1
		c-0.6-0.9-2.2-2.3-3.3-2.9c-1,1.3-2.9,3.1-4.9,4.1L932.9,225.9z"/>
</g>
</svg>
