<?xml version="1.0" encoding="utf-8"?>
<!-- Generator: Adobe Illustrator 23.0.0, SVG Export Plug-In . SVG Version: 6.00 Build 0)  -->
<svg version="1.1" id="租金分红" xmlns="http://www.w3.org/2000/svg" xmlns:xlink="http://www.w3.org/1999/xlink" x="0px"
	 y="0px" viewBox="0 0 1072 186" style="enable-background:new 0 0 1072 186;" xml:space="preserve">
<style type="text/css">
	.st0{fill:none;stroke:#90A7AB;}
	.st1{fill:#9FE7DD;stroke:#34B9A1;stroke-width:2;}
	.st2{fill:none;stroke:#456E68;stroke-width:1.5;stroke-miterlimit:10;}
	.st3{enable-background:new    ;}
	.st4{fill:#456E68;}
</style>
<g id="组_29">
	<path id="形状_1" class="st0" d="M122.8,82.9h132.5l-4.8-5.5"/>
	<path id="形状_1_拷贝_6" class="st0" d="M255.1,103.1H122.8l4.8,5.5"/>
</g>
<path id="形状_1_拷贝_7" class="st0" d="M786.9,88.4h132.5l-4.8-5.5"/>
<g id="组_29_拷贝">
	<path id="形状_1-2" class="st0" d="M489.3,81h132.5l-4.8-5.5"/>
	<path id="形状_1_拷贝_6-2" class="st0" d="M621.6,101.3H489.3l4.8,5.5"/>
</g>
<circle id="椭圆_6" class="st1" cx="377.3" cy="93" r="91.8"/>
<g>
	<circle class="st2" cx="56" cy="65.3" r="15.3"/>
	<line class="st2" x1="43.7" y1="89.3" x2="56" y2="103.3"/>
	<line class="st2" x1="68" y1="89.3" x2="56" y2="103.3"/>
	<line class="st2" x1="56" y1="117.3" x2="56" y2="103.3"/>
	<path class="st2" d="M88.9,109.3v3.3c0,3-2.5,5.5-5.5,5.5H28.6c-3,0-5.5-2.5-5.5-5.5v-3.3"/>
	<path class="st2" d="M28.6,103.8"/>
	<path class="st2" d="M23.1,110.8c0-12.4,10.2-21.9,22.6-21.9h20.6c12.4,0,22.5,10.1,22.5,22.5l0,0"/>
</g>
<g class="st3">
	<path class="st4" d="M740.7,50h-10v10h10V50z M737.4,56.6h-3.3v-3.3h3.3V56.6z"/>
	<path class="st4" d="M754,50h-10v10h10V50z M750.7,56.6h-3.3v-3.3h3.3V56.6z"/>
	<path class="st4" d="M740.7,63.3h-10v10h10V63.3z M737.4,69.9h-3.3v-3.3h3.3V69.9z"/>
	<path class="st4" d="M754,63.3h-10v10h10V63.3z M750.7,69.9h-3.3v-3.3h3.3V69.9z"/>
	<path class="st4" d="M740.7,86.5v-10h-10v10H740.7z M734.1,79.9h3.3v3.3h-3.3V79.9z"/>
	<path class="st4" d="M754,76.6h-10v10h10V76.6z M750.7,83.2h-3.3v-3.3h3.3V83.2z"/>
	<path class="st4" d="M764,46.7v-3.3h-3.3v-6.6h-3.3v-6.6h-29.9v6.6h-3.3v6.6h-3.3v3.3h3.3v43.2h-13.3v-20h3.3V60h-3.3v-2.5
		l-23.3-16.1l-10,6.9v-5.1h-10v12l-3.3,2.3V60H661v10h3.3v20.3c-1.9,0.7-3.3,2.5-3.3,4.6v3.3c0,2.7,2.3,5,5,5h32.4
		c-2.6,3.2-4.2,7.2-4.2,11.6c0,10.1,8.2,18.3,18.3,18.3s18.3-8.1,18.3-18.2c0-4.4-1.5-8.4-4.2-11.6H759c2.7,0,5-2.3,5-5V95
		c0-2.1-1.4-4-3.3-4.6V46.7H764z M730.8,33.4H754v3.3h-23.3L730.8,33.4L730.8,33.4z M727.5,40h29.9v3.3h-29.9V40z M671,46.4h3.3v4.2
		l-3.3,2.3V46.4z M667.6,59.3l19.9-13.8l19.9,13.8v0.8h-39.9L667.6,59.3L667.6,59.3z M664.3,63.3h46.5v3.3h-46.5V63.3z M707.5,69.9
		v19.9h-13.3V73.3h-13.3v16.6h-13.3v-20H707.5z M690.9,89.9h-6.6V76.6h6.6V89.9z M712.5,129.7c-8.2,0-15-6.8-15-15s6.8-15,15-15
		s15,6.8,15,15C727.5,123.1,720.8,129.7,712.5,129.7z M760.7,98.2c0,0.9-0.7,1.7-1.7,1.7h-36.1c-3-2.1-6.5-3.3-10.4-3.3
		s-7.5,1.2-10.4,3.3H666c-0.9,0-1.7-0.7-1.7-1.7v-3.3c0-0.9,0.7-1.7,1.7-1.7h93c0.9,0,1.7,0.7,1.7,1.7V98.2z M757.4,89.9h-29.9V46.7
		h29.9V89.9z"/>
</g>
<g class="st3">
	<g>
		<g>
			<path class="st4" d="M964,53h-12.6c-0.9,0-1.6,0.7-1.6,1.6V61c0,0.9,0.7,1.6,1.6,1.6H964c0.9,0,1.6-0.7,1.6-1.6v-6.4
				C965.4,53.7,964.9,53,964,53z M955.9,59.4h-3.1v-3.1h3.1V59.4z M962.3,59.4h-3.1v-3.1h3.1V59.4z"/>
		</g>
	</g>
	<g>
		<g>
			<path class="st4" d="M964,65.6h-12.6c-0.9,0-1.6,0.7-1.6,1.6v6.4c0,0.9,0.7,1.6,1.6,1.6H964c0.9,0,1.6-0.7,1.6-1.6v-6.4
				C965.4,66.3,964.9,65.6,964,65.6z M955.9,72h-3.1v-3.1h3.1V72z M962.3,72h-3.1v-3.1h3.1V72z"/>
		</g>
	</g>
	<g>
		<g>
			<path class="st4" d="M964,78.4h-12.6c-0.9,0-1.6,0.7-1.6,1.6v6.2c0,0.9,0.7,1.6,1.6,1.6H964c0.9,0,1.6-0.7,1.6-1.6v-6.4
				C965.4,79,964.9,78.4,964,78.4z M955.9,84.6h-3.1v-3.1h3.1V84.6z M962.3,84.6h-3.1v-3.1h3.1V84.6z"/>
		</g>
	</g>
	<g>
		<g>
			<path class="st4" d="M1021,53h-12.6c-0.9,0-1.6,0.7-1.6,1.6V61c0,0.9,0.7,1.6,1.6,1.6h12.6c0.9,0,1.6-0.7,1.6-1.6v-6.4
				C1022.5,53.7,1021.9,53,1021,53z M1013,59.4h-3.1v-3.1h3.1V59.4z M1019.3,59.4h-3.1v-3.1h3.1V59.4z"/>
		</g>
	</g>
	<g>
		<g>
			<path class="st4" d="M1021,40.4h-12.6c-0.9,0-1.6,0.7-1.6,1.6v6.4c0,0.9,0.7,1.6,1.6,1.6h12.6c0.9,0,1.6-0.7,1.6-1.6V42
				C1022.5,40.9,1021.9,40.4,1021,40.4z M1013,46.6h-3.1v-3.1h3.1V46.6z M1019.3,46.6h-3.1v-3.1h3.1V46.6z"/>
		</g>
	</g>
	<g>
		<g>
			<path class="st4" d="M983,59.4h-6.4c-0.9,0-1.6,0.7-1.6,1.6v6.4c0,0.9,0.7,1.6,1.6,1.6h6.4c0.9,0,1.6-0.7,1.6-1.6V61
				C984.5,60,983.9,59.4,983,59.4z M981.3,65.6h-3.1v-3.1h3.1V65.6z"/>
		</g>
	</g>
	<g>
		<g>
			<path class="st4" d="M995.6,59.4h-6.4c-0.9,0-1.6,0.7-1.6,1.6v6.4c0,0.9,0.7,1.6,1.6,1.6h6.4c0.9,0,1.6-0.7,1.6-1.6V61
				C997.2,60,996.5,59.4,995.6,59.4z M994,65.6h-3.1v-3.1h3.1V65.6z"/>
		</g>
	</g>
	<g>
		<g>
			<path class="st4" d="M983,46.6h-6.4c-0.9,0-1.6,0.7-1.6,1.6v6.4c0,0.9,0.7,1.6,1.6,1.6h6.4c0.9,0,1.6-0.7,1.6-1.6v-6.4
				C984.5,47.3,983.9,46.6,983,46.6z M981.3,53h-3.1v-3.1h3.1V53z"/>
		</g>
	</g>
	<g>
		<g>
			<path class="st4" d="M995.6,46.6h-6.4c-0.9,0-1.6,0.7-1.6,1.6v6.4c0,0.9,0.7,1.6,1.6,1.6h6.4c0.9,0,1.6-0.7,1.6-1.6v-6.4
				C997.2,47.3,996.5,46.6,995.6,46.6z M994,53h-3.1v-3.1h3.1V53z"/>
		</g>
	</g>
	<g>
		<g>
			<path class="st4" d="M983,34h-6.4c-0.9,0-1.6,0.7-1.6,1.6V42c0,0.9,0.7,1.6,1.6,1.6h6.4c0.9,0,1.6-0.7,1.6-1.6v-6.4
				C984.5,34.7,983.9,34,983,34z M981.3,40.4h-3.1v-3.1h3.1V40.4z"/>
		</g>
	</g>
	<g>
		<g>
			<path class="st4" d="M995.6,34h-6.4c-0.9,0-1.6,0.7-1.6,1.6V42c0,0.9,0.7,1.6,1.6,1.6h6.4c0.9,0,1.6-0.7,1.6-1.6v-6.4
				C997.2,34.7,996.5,34,995.6,34z M994,40.4h-3.1v-3.1h3.1V40.4z"/>
		</g>
	</g>
	<g>
		<g>
			<path class="st4" d="M983,78.4h-6.4c-0.9,0-1.6,0.7-1.6,1.6v6.2c0,0.9,0.7,1.6,1.6,1.6h6.4c0.9,0,1.6-0.7,1.6-1.6v-6.4
				C984.5,79,983.9,78.4,983,78.4z M981.3,84.6h-3.1v-3.1h3.1V84.6z"/>
		</g>
	</g>
	<g>
		<g>
			<rect x="949.7" y="91" class="st4" width="3.1" height="3.1"/>
		</g>
	</g>
	<g>
		<g>
			<rect x="955.9" y="91" class="st4" width="3.1" height="3.1"/>
		</g>
	</g>
	<g>
		<g>
			<rect x="962.3" y="91" class="st4" width="3.1" height="3.1"/>
		</g>
	</g>
	<g>
		<g>
			<path class="st4" d="M1036.7,72h-7.9V35.6c0-0.9-0.7-1.6-1.6-1.6h-11.1v-2.5l1.6-1.6c1.3,1,3,1.6,4.6,1.6c2.1,0,4-0.7,5.5-2.2
				l0.3-0.3c0.6-0.6,0.6-1.6,0-2.2l-3.6-3.6l3.6-3.6l-2.2-2.2l-3.6,3.6l-5.2-5.2c-0.3-0.3-0.7-0.4-1.2-0.4c-0.6,0-1,0.3-1.3,0.6
				c-1.6,1.5-2.5,3.4-2.5,5.5s0.7,4.3,2.4,5.8l0.7,0.7l-2.1,2.1c-0.3,0.3-0.4,0.7-0.4,1.2v3.1h-9.5v-5c0-0.9-0.7-1.6-1.6-1.6H996
				l-9.1-12c-0.6-0.7-1.9-0.7-2.5,0l-9.1,12h-5.5c-0.9,0-1.6,0.7-1.6,1.6v17.4h-9.5V34h-3.1v12.6h-11.1c-0.9,0-1.6,0.7-1.6,1.6v60.1
				c0,0.9,0.7,1.6,1.6,1.6h25.4H981h12.6h1.6h9.5h25.4c4.3,0,7.9-3.6,7.9-7.9V73.6C1038.4,72.7,1037.6,72,1036.7,72z M968.7,106.9
				h-22.1v-57h22.1V106.9z M1016.2,18.8l8.6,8.6c-1.8,1-4.2,0.9-5.8-0.7l-2.2-2.2c-0.9-0.9-1.5-2.1-1.3-3.4
				C1015.6,20.3,1015.8,19.6,1016.2,18.8z M986.1,19.1l6.4,8.5h-12.6L986.1,19.1z M979.7,94.1v12.6h-7.9V48.2V30.9h28.5v4.8v28.5
				h3.1v-27h22.1V72h-3.1v-1.6c0-2.7-2.1-4.8-4.8-4.8h-9.5c-2.7,0-4.8,2.1-4.8,4.8V72H989c-0.9,0-1.6,0.7-1.6,1.6V91h-12.6v3.1
				H979.7z M1019.3,70.4V72h-12.6v-1.6c0-0.9,0.7-1.6,1.6-1.6h9.5C1018.6,68.9,1019.3,69.5,1019.3,70.4z M983,106.9V94.3h4.8v7.9
				c0,1.8,0.6,3.4,1.6,4.8H983V106.9z M1035.2,102.1c0,2.7-2.1,4.8-4.8,4.8H1005h-9.5c-2.7,0-4.8-2.1-4.8-4.8V86.2
				c1.3,1,3,1.6,4.8,1.6h1.6v4.8c0,0.9,0.7,1.6,1.6,1.6h6.4c0.9,0,1.6-0.7,1.6-1.6v-4.8h1.6h9.5h1.6v4.8c0,0.9,0.7,1.6,1.6,1.6h6.4
				c0.9,0,1.6-0.7,1.6-1.6v-4.8h1.6c1.8,0,3.4-0.6,4.8-1.6v15.9H1035.2z M1000.3,91v-3.1h3.1V91H1000.3z M1009.8,84.6v-3.1h6.4v3.1
				H1009.8z M1022.5,91v-3.1h3.1V91H1022.5z M1035.2,79.9c0,2.7-2.1,4.8-4.8,4.8h-3.1h-6.4h-1.6v-4.8c0-0.9-0.7-1.6-1.6-1.6h-9.5
				c-0.9,0-1.6,0.7-1.6,1.6v4.8h-1.6h-6.4h-3.1c-2.7,0-4.8-2.1-4.8-4.8v-4.8h44.4L1035.2,79.9L1035.2,79.9z"/>
		</g>
	</g>
	<g>
		<g>
			<rect x="1028.9" y="100.5" class="st4" width="3.1" height="3.1"/>
		</g>
	</g>
	<g>
		<g>
			<rect x="1022.5" y="100.5" class="st4" width="3.1" height="3.1"/>
		</g>
	</g>
	<g>
		<g>
			<rect x="1016.2" y="100.5" class="st4" width="3.1" height="3.1"/>
		</g>
	</g>
</g>
<g>
	<path class="st4" d="M706.7,122.5v-1.8c1.9-0.6,2.9-1.8,2.9-3.7v-2.2H707V113h2.6v-3c0-1.5,0.4-2.8,1.4-3.7c1-1,2.2-1.5,3.6-1.5
		c1,0,1.9,0.1,2.8,0.6v2.1c-0.8-0.6-1.8-0.7-2.6-0.7c-1.9,0-2.9,1.2-2.9,3.6v2.8h3.9v1.8h-4v1.8c0,1.9-0.8,3.2-2.3,4.1h8.9v1.8
		h-11.7V122.5z"/>
</g>
<g class="st3">
	<path class="st4" d="M10.7,145.5l-2.1,0.8v5.4c0,1.3-0.6,1.5-3,1.5c-0.1-0.3-0.2-0.8-0.4-1.1c0.8,0,1.6,0,1.9,0
		c0.2,0,0.3-0.1,0.3-0.3v-5c-0.8,0.3-1.6,0.6-2.2,0.8c0,0.1-0.1,0.3-0.2,0.3l-0.5-1.4c0.8-0.2,1.8-0.5,3-0.9v-4.2H4.7V140h2.7v-3.6
		l1.5,0.1c0,0.1-0.1,0.2-0.4,0.3v3.3h2.1v1.1H8.6v3.8l1.9-0.6L10.7,145.5z M19.3,144.3l0.8,0.4c0,0.1-0.1,0.1-0.2,0.2
		c-0.7,2.1-1.8,3.8-3.3,5.1c1.3,1,3,1.7,4.9,2.1c-0.3,0.3-0.6,0.7-0.8,1.1c-2-0.5-3.6-1.3-5-2.4c-1.5,1.1-3.3,1.9-5.1,2.4
		c-0.1-0.3-0.4-0.8-0.7-1.1c1.8-0.4,3.5-1.2,4.9-2.2c-1.2-1.2-2.1-2.5-2.7-4.2l0.9-0.3h-1.6v-1.1h7.6L19.3,144.3z M13.7,138.3v0.7
		c0,1.6-0.5,3.5-2.5,4.8c-0.2-0.3-0.6-0.7-0.8-0.9c1.8-1.2,2.1-2.7,2.1-4v-1.8h5.9v4.4c0,0.4,0.1,0.5,0.4,0.5H20
		c0.4,0,0.4-0.3,0.5-2.2c0.3,0.2,0.7,0.4,1,0.5c-0.1,2.2-0.4,2.8-1.4,2.8h-1.4c-1.1,0-1.4-0.3-1.4-1.5v-3.3H13.7z M13.2,145.4
		c0.6,1.4,1.4,2.7,2.5,3.7c1.2-1,2.1-2.3,2.7-3.7H13.2z"/>
	<path class="st4" d="M22.8,141.7c1.3-0.3,3.2-0.9,5.1-1.4l0.1,1c-1.7,0.5-3.4,1.1-4.5,1.4c0,0.1-0.1,0.2-0.2,0.3L22.8,141.7z
		 M29.6,151.1c-0.1,0.1-0.2,0.1-0.4,0.1c-1.4,0.7-3.6,1.5-5.4,1.9c-0.2-0.2-0.6-0.7-0.8-0.9c1.8-0.4,4-1.1,5.3-1.8L29.6,151.1z
		 M24.2,136.8c1.3,0.3,3,1,3.8,1.4l-0.5,1c-0.9-0.5-2.5-1.2-3.8-1.5L24.2,136.8z M25.2,150.2v-7.4H37v7.4H25.2z M26.4,143.7v1.3h9.5
		v-1.3H26.4z M26.4,145.9v1.3h9.5v-1.3H26.4z M26.4,148v1.4h9.5V148H26.4z M34.1,138.7c0.4,1.5,1.5,2.8,5.2,3.4
		c-0.2,0.2-0.5,0.7-0.6,1c-3.2-0.6-4.5-1.8-5.2-3.2c-0.6,1.4-1.9,2.3-4.7,2.8c-0.1-0.3-0.4-0.7-0.6-0.9c3-0.5,4.1-1.5,4.6-3.2h-2.1
		c-0.5,0.6-1,1.1-1.7,1.6c-0.2-0.2-0.6-0.5-0.9-0.6c1.4-1,2.3-2.2,2.8-3.3l1.4,0.2c0,0.1-0.1,0.2-0.3,0.2c-0.1,0.3-0.3,0.6-0.5,1
		h6.6l0.2,0l0.7,0.1c-0.2,0.7-1.3,2.1-1.9,2.7l-1-0.4c0.4-0.4,0.8-0.9,1.2-1.5H34.1z M37.8,153.2c-1.2-0.6-3.2-1.4-5.2-2l1-0.6
		c2,0.6,4.2,1.4,5.5,2L37.8,153.2z"/>
	<path class="st4" d="M57.2,143.4h-7c-1,0.7-2,1.4-3.1,2h7.5v7.6h-1.2v-0.5H46v0.6h-1.2v-6.5c-1.2,0.6-2.4,1.1-3.6,1.6
		c-0.2-0.3-0.5-0.7-0.7-0.9c2.7-1,5.3-2.3,7.7-3.8h-7.4v-1.1h6.4V140h-4.7v-1.1h4.7v-2.5l1.5,0.1c0,0.1-0.1,0.2-0.4,0.3v2.1h4.7v0.6
		c0.8-0.8,1.5-1.6,2.1-2.4l1.3,0.7c-0.1,0.1-0.2,0.1-0.3,0.1c-0.1,0-0.1,0-0.2,0c-1.3,1.6-2.8,3.1-4.4,4.4h5.6V143.4z M53.4,148.4
		v-1.9H46v1.9H53.4z M46,151.5h7.4v-2H46V151.5z M48.4,142.4h1.3c1-0.8,2-1.6,2.9-2.4h-4.2V142.4z"/>
	<path class="st4" d="M66.7,136.5c-2,1.6-3.6,4.6-3.6,8.3c0,3.7,1.7,6.7,3.6,8.3v0.1h-1.1c-1.8-1.6-3.4-4.7-3.4-8.4s1.6-6.7,3.4-8.4
		L66.7,136.5L66.7,136.5z"/>
	<path class="st4" d="M70.1,142.8c-0.7,1.1-1.4,2.1-2.2,3c-0.1-0.3-0.4-0.8-0.6-1.1c1.7-1.9,3.5-5,4.5-8.1l1.4,0.5
		c-0.1,0.1-0.2,0.2-0.4,0.2c-0.5,1.3-1,2.5-1.7,3.7l0.5,0.1c0,0.1-0.1,0.2-0.4,0.2v11.9h-1.2V142.8z M82.7,142.3l0.2-0.1
		c0.4,0.2,0.6,0.3,0.8,0.3c0,0.1-0.1,0.2-0.2,0.2c-0.6,2.7-1.7,4.9-3.1,6.6c1.2,1.2,2.6,2.2,4.3,2.8c-0.3,0.2-0.6,0.7-0.8,1
		c-1.6-0.6-3.1-1.6-4.3-2.9c-1.2,1.3-2.7,2.3-4.3,3c-0.2-0.3-0.6-0.8-0.8-1c1.6-0.6,3.1-1.6,4.3-2.9c-1.3-1.5-2.2-3.4-2.9-5.5
		l1.1-0.3c0.6,1.8,1.5,3.5,2.6,4.9c1.1-1.4,2-3.1,2.6-5.1h-6.9c0,3-0.4,7.1-2.3,9.8c-0.2-0.2-0.7-0.6-1-0.7c1.9-2.7,2.1-6.6,2.1-9.5
		v-5.6h10.1v1.2h-8.9v3.7H82.7z"/>
	<path class="st4" d="M90.5,141.3c0.7,0.5,2.6,1.9,3.1,2.3l-0.7,1c-0.5-0.5-1.5-1.4-2.4-2.1v4.6h-1.2v-5.1c-0.8,1.6-1.9,3.1-3,4
		c-0.2-0.3-0.5-0.6-0.8-0.8c1.4-1,2.8-2.9,3.6-4.8h-3.2v-1.1h3.4v-2.7l1.5,0.1c0,0.1-0.1,0.2-0.3,0.2v2.4h2.9v1.1h-2.9V141.3z
		 M89.2,148.7c-0.5,1.4-1.2,3-2.5,3.9l-1-0.7c1.2-0.8,2-2.3,2.4-3.7L89.2,148.7z M91.7,151.3c0,0.5,0.2,0.6,1.2,0.6h3.5
		c0.8,0,0.9-0.2,1-1.9c0.3,0.2,0.8,0.4,1.1,0.5c-0.2,2.1-0.5,2.5-2,2.5h-3.7c-1.8,0-2.3-0.3-2.3-1.6v-3l1.5,0.1
		c0,0.1-0.1,0.2-0.4,0.3V151.3z M95.2,150.2c-0.6-0.8-1.9-1.9-3.1-2.7l0.8-0.6c1.2,0.7,2.5,1.8,3.2,2.6L95.2,150.2z M101.3,137.4
		v9.5h-7.1v-9.5H101.3z M100.1,140.2v-1.8h-4.8v1.8H100.1z M100.1,143v-1.8h-4.8v1.8H100.1z M100.1,145.8V144h-4.8v1.9H100.1z
		 M101.5,152.6c-0.6-1.2-2.1-2.8-3.6-3.9l1-0.6c1.4,1.1,3,2.6,3.7,3.8L101.5,152.6z"/>
	<path class="st4" d="M107.5,143.6v5.9c1.4,2.1,3.9,2.1,7.4,2.1c2,0,4.3,0,5.7-0.1c-0.1,0.3-0.3,0.8-0.4,1.2c-1.2,0-3.2,0.1-5,0.1
		c-3.9,0-6.4,0-8.2-2.3c-1,0.8-1.9,1.6-2.8,2.2c0,0.2,0,0.2-0.2,0.3l-0.7-1.3c0.9-0.6,2-1.4,3-2.2v-4.9h-2.7v-1.2H107.5z
		 M104.8,136.8c1.2,0.8,2.5,2.1,3.1,3l-0.9,0.8c-0.6-0.9-1.9-2.2-3.1-3.1L104.8,136.8z M114.9,141c-1.1-0.6-2.5-1.2-3.7-1.6l0.8-0.7
		c0.8,0.3,1.7,0.6,2.6,1c1-0.4,2-1,2.7-1.5h-7.9v-1h9.1l0.2-0.1l0.9,0.6c-0.1,0.1-0.2,0.1-0.3,0.1c-0.9,0.8-2.3,1.7-3.7,2.4
		c0.6,0.3,1.1,0.5,1.5,0.8h2.3v8.2c0,1.2-0.4,1.3-3.1,1.3c-0.1-0.3-0.2-0.7-0.3-1c0.5,0,1,0,1.4,0c0.8,0,0.9,0,0.9-0.3v-1.8H115v3
		h-1.1v-3h-3.3v3.1h-1.2V141H114.9z M113.9,141.9h-3.3v1.7h3.3V141.9z M110.7,146.4h3.3v-1.8h-3.3V146.4z M118.4,143.7v-1.7H115v1.7
		H118.4z M115,146.4h3.4v-1.8H115V146.4z"/>
	<path class="st4" d="M125.1,142.3v-2.9c-0.9,0.6-1.8,1.1-2.7,1.5c-0.2-0.2-0.6-0.6-0.8-0.8c1.9-0.8,4.1-2.3,5.4-3.8l1.3,0.6
		c-0.1,0.1-0.3,0.2-0.4,0.1c-0.5,0.6-1.1,1.1-1.8,1.6l0.6,0.1c0,0.1-0.1,0.2-0.4,0.2v3.3H125.1z M128.6,151.1
		c-0.1,0.1-0.2,0.1-0.4,0.1c-1.4,0.7-3.6,1.5-5.4,1.9c-0.2-0.2-0.6-0.7-0.8-0.9c1.8-0.4,4-1.1,5.3-1.8L128.6,151.1z M124.2,150.2
		v-7.4H136v7.4H124.2z M125.4,143.7v1.3h9.5v-1.3H125.4z M125.4,145.9v1.3h9.5v-1.3H125.4z M125.4,148v1.4h9.5V148H125.4z
		 M135.9,141c0.8,0,1-0.2,1-1.6c0.3,0.2,0.8,0.3,1.1,0.4c-0.1,1.8-0.5,2.3-2,2.3h-4.2c-1.9,0-2.4-0.3-2.4-1.7v-3.8l1.5,0.1
		c0,0.1-0.1,0.2-0.3,0.2v1.7c2-0.4,4.2-0.9,5.5-1.5l1,0.9c0,0-0.1,0.1-0.2,0.1c-0.1,0-0.1,0-0.2,0c-1.5,0.5-3.9,1.1-6.1,1.5v0.9
		c0,0.5,0.2,0.6,1.3,0.6H135.9z M136.8,153.2c-1.2-0.6-3.2-1.4-5.2-2l1-0.6c2,0.6,4.2,1.4,5.5,2L136.8,153.2z"/>
	<path class="st4" d="M145.7,144.4l0.2,1l-2.2,0.8v5.4c0,1.3-0.6,1.5-3,1.5c-0.1-0.3-0.2-0.8-0.4-1.1c0.8,0,1.6,0,1.9,0
		c0.2,0,0.3-0.1,0.3-0.3v-5c-0.8,0.3-1.6,0.6-2.2,0.8c0,0.1-0.1,0.3-0.2,0.3l-0.5-1.4c0.8-0.2,1.8-0.5,3-0.9v-4.2h-2.7V140h2.7v-3.6
		l1.5,0.1c0,0.1-0.1,0.2-0.4,0.3v3.3h2.1v1.1h-2.1v3.9L145.7,144.4z M156.3,143.6H154c-0.1,0.1-0.1,0.2-0.4,0.2v2.1h2.4v1.1h-2.4
		v4.7c0,1.4-0.7,1.4-3.3,1.4c-0.1-0.3-0.2-0.8-0.4-1.1c0.5,0,1,0,1.4,0h0.8c0.3,0,0.3-0.1,0.3-0.3V147h-6.6v-1.1h6.6v-2.3h-7v-1.1
		h4.8v-2.6h-3.6v-1.1h3.6v-2.3l1.6,0.1c0,0.1-0.1,0.2-0.4,0.3v2h3.7v1.1h-3.7v2.6h4.9V143.6z M149.2,151.3c-0.4-0.8-1.4-2.2-2.3-3.1
		l0.9-0.6c0.8,0.9,1.9,2.2,2.3,3L149.2,151.3z"/>
	<path class="st4" d="M171,140c-2.3,0.6-5.6,1-7.7,1c-0.2,2.3-0.6,4.1-0.8,4.8c1.4-1.1,3.6-1.9,5.1-1.9c2.7,0,4.3,1.4,4.3,3.9
		c0,3.6-3.6,4.8-9.5,4.9c-0.1-0.3-0.2-0.9-0.4-1.2c5.2-0.1,8.5-1,8.5-3.7c0-1.6-1.1-2.7-3.2-2.7c-1.6,0-4.4,1-5.5,2.8l-1.3-0.6
		c0.6-0.6,1.2-3.2,1.4-6.2h-4.2v-1.3c0.8,0,3,0,4.3,0c0.1-1,0.1-2.2,0.1-3.3l1.9,0.2c0,0.3-0.3,0.4-0.6,0.4c0,0.9-0.1,1.8-0.2,2.7
		c1.9-0.1,5.2-0.5,7.4-1.1L171,140z"/>
	<path class="st4" d="M183.1,151.3h7.6v1.2h-16.2v-1.2h7.4v-4.5h-5.7v-1.2h5.7v-4.1h-6.5v-1.2h14.5v1.2h-6.7v4.1h5.9v1.2h-5.9V151.3
		z M179.9,136.3c1.9,0.6,4.4,1.8,5.6,2.7l-0.9,1.1c-1.2-0.9-3.7-2.1-5.6-2.8L179.9,136.3z"/>
	<path class="st4" d="M191.8,153c2-1.6,3.6-4.6,3.6-8.3c0-3.7-1.7-6.7-3.6-8.3v-0.1h1.1c1.8,1.6,3.4,4.7,3.4,8.4s-1.6,6.7-3.4,8.4
		L191.8,153L191.8,153z"/>
</g>
<g class="st3">
	<path class="st4" d="M598.5,152.6v-12.9h1.7v5.3h6.7v-5.3h1.7v12.9h-1.7v-6.1h-6.7v6.1H598.5z"/>
	<path class="st4" d="M610.6,147.9c0-1.7,0.5-3,1.4-3.8c0.8-0.7,1.8-1,2.9-1c1.3,0,2.3,0.4,3.1,1.3s1.2,2,1.2,3.5
		c0,1.2-0.2,2.1-0.5,2.8c-0.4,0.7-0.9,1.2-1.6,1.6c-0.7,0.4-1.4,0.6-2.3,0.6c-1.3,0-2.4-0.4-3.2-1.3
		C611,150.7,610.6,149.5,610.6,147.9z M612.2,147.9c0,1.2,0.3,2.1,0.8,2.7c0.5,0.6,1.2,0.9,2,0.9c0.8,0,1.4-0.3,2-0.9
		s0.8-1.5,0.8-2.7c0-1.2-0.3-2-0.8-2.6c-0.5-0.6-1.2-0.9-2-0.9c-0.8,0-1.4,0.3-2,0.9S612.2,146.7,612.2,147.9z"/>
	<path class="st4" d="M627.3,152.6v-1.4c-0.7,1.1-1.7,1.6-3,1.6c-0.6,0-1.1-0.1-1.5-0.3c-0.5-0.2-0.8-0.5-1.1-0.8
		c-0.2-0.3-0.4-0.7-0.5-1.2c-0.1-0.3-0.1-0.8-0.1-1.5v-5.8h1.6v5.2c0,0.8,0,1.4,0.1,1.7c0.1,0.4,0.3,0.7,0.6,1
		c0.3,0.2,0.7,0.4,1.2,0.4s0.9-0.1,1.3-0.4s0.7-0.6,0.9-1c0.2-0.4,0.3-1,0.3-1.8v-5h1.6v9.3H627.3z"/>
	<path class="st4" d="M630.6,149.8l1.6-0.2c0.1,0.6,0.3,1.1,0.7,1.4c0.4,0.3,1,0.5,1.7,0.5c0.7,0,1.3-0.1,1.6-0.4s0.5-0.6,0.5-1
		c0-0.4-0.2-0.6-0.5-0.8c-0.2-0.1-0.8-0.3-1.6-0.5c-1.2-0.3-2-0.5-2.4-0.8c-0.4-0.2-0.8-0.5-1-0.9c-0.2-0.4-0.3-0.8-0.3-1.3
		c0-0.4,0.1-0.8,0.3-1.2c0.2-0.4,0.5-0.6,0.8-0.9c0.2-0.2,0.6-0.3,1-0.5c0.4-0.1,0.9-0.2,1.4-0.2c0.7,0,1.4,0.1,1.9,0.3
		c0.6,0.2,1,0.5,1.2,0.9c0.3,0.4,0.4,0.8,0.5,1.4l-1.5,0.2c-0.1-0.5-0.3-0.9-0.6-1.1c-0.3-0.3-0.8-0.4-1.4-0.4
		c-0.7,0-1.2,0.1-1.6,0.4s-0.5,0.5-0.5,0.8c0,0.2,0.1,0.4,0.2,0.6c0.1,0.2,0.3,0.3,0.6,0.4c0.2,0.1,0.6,0.2,1.4,0.4
		c1.1,0.3,1.9,0.5,2.3,0.7c0.4,0.2,0.8,0.5,1,0.8s0.4,0.8,0.4,1.4c0,0.5-0.2,1-0.5,1.5c-0.3,0.5-0.8,0.8-1.3,1.1
		c-0.6,0.3-1.2,0.4-2,0.4c-1.2,0-2.1-0.3-2.8-0.8C631.2,151.6,630.8,150.8,630.6,149.8z"/>
	<path class="st4" d="M646.6,149.6l1.6,0.2c-0.3,1-0.7,1.7-1.4,2.2s-1.6,0.8-2.7,0.8c-1.4,0-2.4-0.4-3.2-1.3c-0.8-0.8-1.2-2-1.2-3.5
		c0-1.6,0.4-2.8,1.2-3.7s1.9-1.3,3.1-1.3c1.2,0,2.3,0.4,3.1,1.3s1.2,2,1.2,3.6c0,0.1,0,0.2,0,0.4h-7c0.1,1,0.3,1.8,0.9,2.4
		s1.2,0.8,2,0.8c0.6,0,1.1-0.2,1.5-0.5S646.4,150.3,646.6,149.6z M641.4,147h5.2c-0.1-0.8-0.3-1.4-0.6-1.8c-0.5-0.6-1.2-0.9-2-0.9
		c-0.7,0-1.3,0.2-1.8,0.7C641.7,145.6,641.5,146.2,641.4,147z"/>
	<path class="st4" d="M653.7,152.6v-11.4h-4.2v-1.5h10.2v1.5h-4.3v11.4H653.7z"/>
	<path class="st4" d="M658.6,147.9c0-1.7,0.5-3,1.4-3.8c0.8-0.7,1.8-1,2.9-1c1.3,0,2.3,0.4,3.1,1.3s1.2,2,1.2,3.5
		c0,1.2-0.2,2.1-0.5,2.8c-0.4,0.7-0.9,1.2-1.6,1.6c-0.7,0.4-1.4,0.6-2.3,0.6c-1.3,0-2.4-0.4-3.2-1.3
		C659,150.7,658.6,149.5,658.6,147.9z M660.3,147.9c0,1.2,0.3,2.1,0.8,2.7c0.5,0.6,1.2,0.9,2,0.9c0.8,0,1.4-0.3,2-0.9
		s0.8-1.5,0.8-2.7c0-1.2-0.3-2-0.8-2.6c-0.5-0.6-1.2-0.9-2-0.9c-0.8,0-1.4,0.3-2,0.9S660.3,146.7,660.3,147.9z"/>
	<path class="st4" d="M669.3,152.6v-12.9h1.6v7.3l3.7-3.8h2l-3.6,3.5l3.9,5.9h-2l-3.1-4.8l-1.1,1.1v3.7H669.3z"/>
	<path class="st4" d="M684.6,149.6l1.6,0.2c-0.3,1-0.7,1.7-1.4,2.2s-1.6,0.8-2.7,0.8c-1.4,0-2.4-0.4-3.2-1.3c-0.8-0.8-1.2-2-1.2-3.5
		c0-1.6,0.4-2.8,1.2-3.7s1.9-1.3,3.1-1.3c1.2,0,2.3,0.4,3.1,1.3s1.2,2,1.2,3.6c0,0.1,0,0.2,0,0.4h-7c0.1,1,0.3,1.8,0.9,2.4
		s1.2,0.8,2,0.8c0.6,0,1.1-0.2,1.5-0.5S684.4,150.3,684.6,149.6z M679.4,147h5.2c-0.1-0.8-0.3-1.4-0.6-1.8c-0.5-0.6-1.2-0.9-2-0.9
		c-0.7,0-1.3,0.2-1.8,0.7C679.8,145.6,679.5,146.2,679.4,147z"/>
	<path class="st4" d="M688.3,152.6v-9.3h1.4v1.3c0.7-1,1.7-1.5,3-1.5c0.6,0,1.1,0.1,1.6,0.3c0.5,0.2,0.8,0.5,1.1,0.8
		s0.4,0.7,0.5,1.2c0.1,0.3,0.1,0.8,0.1,1.5v5.7h-1.6v-5.7c0-0.6-0.1-1.1-0.2-1.4s-0.3-0.6-0.7-0.8c-0.3-0.2-0.7-0.3-1.1-0.3
		c-0.7,0-1.3,0.2-1.7,0.6c-0.5,0.4-0.7,1.2-0.7,2.4v5.1H688.3z"/>
	<path class="st4" d="M716.5,149.2h-1.2v-0.8h-3.6v0.9h-1.2v-6.1h-3.6v8.4h11.9v1.2h-11.9v1.4h-1.2v-10.9h-2.8V142h2.8v-4.1l1.6,0.1
		c0,0.1-0.1,0.2-0.4,0.3v3.8h3.6v-4.5l1.6,0.1c0,0.1-0.1,0.2-0.4,0.3v4.2h3.6v-4.3l1.6,0.1c0,0.1-0.1,0.2-0.4,0.3v4h2.9v1.2h-2.9
		V149.2z M711.7,147.2h3.6v-4h-3.6V147.2z"/>
	<path class="st4" d="M735.4,145.6h-3.3c1.3,1.5,3.3,2.7,5.4,3.3c-0.3,0.3-0.6,0.7-0.8,1c-1.4-0.5-2.9-1.3-4.1-2.4
		c-0.1,0.1-0.1,0.1-0.2,0.1v6.4h-1.2v-6.8l1.2,0.1c-0.6-0.6-1.2-1.2-1.6-1.8h-3.1c-0.5,0.6-1,1.2-1.6,1.8l1.3,0.1
		c0,0.1-0.1,0.2-0.4,0.2v0.8c0,1.9-0.4,4.2-3.9,5.8c-0.2-0.3-0.5-0.7-0.8-0.9c3.3-1.4,3.6-3.4,3.6-4.9v-1c-1.3,1.1-2.8,2-4.2,2.5
		c-0.2-0.3-0.5-0.7-0.8-1c2-0.6,4.1-2,5.4-3.5h-3.3v-7.5h12.5V145.6z M724,139.1v2.2h4.4v-2.2H724z M724,142.3v2.3h4.4v-2.3H724z
		 M734.1,141.3v-2.2h-4.5v2.2H734.1z M734.1,144.6v-2.3h-4.5v2.3H734.1z"/>
	<path class="st4" d="M754.9,139.9h-5.6c-0.1,0.1-0.3,0.2-0.4,0.1c-0.4,0.8-0.9,1.5-1.4,2.3l0.5,0.1c0,0.1-0.1,0.2-0.4,0.2v11.5
		h-1.2v-10.4c-1.9,2.3-4.2,4.5-6.9,6c-0.2-0.3-0.6-0.8-0.8-1c3.7-2.1,7-5.5,8.8-8.9h-8.3v-1.2h15.7V139.9z M754.4,149.6
		c-1.3-1.3-4.1-3.3-6.2-4.6l0.9-0.8c2.2,1.3,4.9,3.2,6.3,4.5L754.4,149.6z"/>
	<path class="st4" d="M772.6,141.7l0.6,0c0,0.1,0,0.3,0,0.4c-0.2,7.9-0.4,10.5-1,11.2c-0.5,0.7-1.1,0.7-1.9,0.7c-0.4,0-1,0-1.5,0
		c0-0.3-0.2-0.8-0.3-1.2c0.9,0.1,1.7,0.1,2.1,0.1c0.2,0,0.4-0.1,0.5-0.3c0.4-0.5,0.7-3,0.8-9.8h-2.7c0,3.7-0.4,8.2-3.9,11.3
		c-0.2-0.2-0.6-0.6-0.9-0.8c0.3-0.3,0.6-0.6,0.9-1c-3,0.4-6.1,0.8-8,1c0,0.1-0.1,0.2-0.3,0.3l-0.4-1.3c1.1-0.1,2.5-0.2,4-0.4v-1.7
		h-3.5v-1h3.5v-1.2h-3.4v-5.3h3.4v-1.3h-4v-1h4v-1.3c-1.2,0.1-2.4,0.2-3.5,0.3c-0.1-0.3-0.2-0.6-0.3-0.9c2.7-0.2,6-0.5,7.7-1
		l0.9,0.9c0,0-0.1,0-0.2,0c-0.1,0-0.1,0-0.2,0c-0.8,0.2-1.9,0.4-3.1,0.5c-0.1,0.1-0.1,0.1-0.3,0.1v1.3h4v1h-4v1.3h3.6v5.3h-3.6v1.2
		h3.7v1h-3.7v1.6c1.2-0.1,2.5-0.3,3.7-0.4l0,0.8c2.3-2.9,2.6-6.5,2.6-9.4h-2.3v-1.1h2.3v-4.2l1.5,0.1c0,0.1-0.1,0.2-0.3,0.2v3.8
		H772.6z M758.4,143.7v1.3h2.3v-1.3H758.4z M758.4,147.2h2.3v-1.4h-2.3V147.2z M764.4,143.7h-2.5v1.3h2.5V143.7z M764.4,147.2v-1.4
		h-2.5v1.4H764.4z"/>
	<path class="st4" d="M787.9,140.5c-0.1,0.1-0.2,0.2-0.4,0.1c-0.3,0.7-0.8,1.6-1.2,2.3h4.9v1.1h-13.8v1.8c0,2.4-0.3,6-1.9,8.4
		c-0.2-0.3-0.7-0.6-0.9-0.8c1.5-2.3,1.7-5.5,1.7-7.7v-2.8h3.6c-0.1-0.7-0.6-1.7-1-2.5l1-0.3H776v-1.1h6.5v-1.7l1.6,0.1
		c0,0.1-0.1,0.2-0.4,0.3v1.4h6.6v1.1h-3.5L787.9,140.5z M785.1,150.2v2.4h6.1v1.1h-13.1v-1.1h5.8v-2.4h-4.1v-1h4.1v-2h-3.5
		c-0.4,0.7-0.9,1.3-1.3,1.8c-0.2-0.2-0.6-0.4-0.9-0.6c0.9-0.9,1.8-2.4,2.3-3.9l1.4,0.4c-0.1,0.1-0.2,0.2-0.4,0.2
		c-0.1,0.4-0.3,0.7-0.5,1.1h3v-1.7l1.5,0.1c0,0.1-0.1,0.2-0.3,0.3v1.4h5v1h-5v2h4.6v1H785.1z M785.3,142.6c0.4-0.7,0.8-1.7,1.1-2.5
		H780c0.5,0.8,0.9,1.8,1.1,2.5l-0.9,0.3h5.9L785.3,142.6z"/>
	<path class="st4" d="M809.3,147.3h-4c1,1.3,2.6,2.4,4.2,3c-0.3,0.2-0.6,0.6-0.8,1c-1.8-0.8-3.6-2.3-4.7-3.9h-5.9
		c-1.1,1.7-3,3.3-4.8,4.1c-0.2-0.3-0.5-0.7-0.8-0.9c1.5-0.6,3.2-1.9,4.2-3.2h-4.1v-1h3.8v-5.9h-3v-1h3v-1.9l1.6,0.1
		c0,0.1-0.1,0.2-0.4,0.3v1.6h6.5v-1.9l1.6,0.1c0,0.1-0.1,0.2-0.4,0.3v1.6h3v1h-3v5.9h3.8V147.3z M801.7,150.6v2.1h6.4v1h-13.8v-1
		h6.2v-2.1h-3.8v-1h3.8v-1.7l1.6,0.1c0,0.1-0.1,0.2-0.4,0.3v1.4h3.9v1H801.7z M804.3,140.4h-6.5v1.3h6.5V140.4z M797.9,142.6v1.3
		h6.5v-1.3H797.9z M797.9,144.9v1.4h6.5v-1.4H797.9z"/>
	<path class="st4" d="M819.6,147.8v4.6h7.3v1.1h-15.6v-1.1h7.1v-4.6h-6.3v-1.1h6.3v-2.5h-3.9v-1c-1,0.8-2,1.5-3.1,2.1
		c-0.2-0.3-0.5-0.7-0.8-1c3.2-1.7,6.2-4.6,7.7-7l1.8,0.1c0,0.1-0.2,0.2-0.4,0.3c1.7,2.4,5,5,7.8,6.4c-0.3,0.3-0.6,0.7-0.8,1.1
		c-2.8-1.5-6-4.2-7.7-6.6c-1,1.5-2.6,3.1-4.4,4.6h9.1v1.1h-4v2.5h6.4v1.1H819.6z M815.4,152.1c-0.2-0.9-1-2.3-1.7-3.4l1-0.4
		c0.8,1,1.5,2.4,1.8,3.3L815.4,152.1z M824.6,148.9c-0.1,0.1-0.2,0.2-0.4,0.1c-0.5,0.9-1.4,2.3-2.1,3.1l-0.9-0.5
		c0.7-0.9,1.5-2.4,2-3.4L824.6,148.9z"/>
	<path class="st4" d="M621.7,159.1c-2,1.6-3.6,4.6-3.6,8.3c0,3.7,1.7,6.7,3.6,8.3v0.1h-1.1c-1.8-1.6-3.4-4.7-3.4-8.4
		s1.6-6.7,3.4-8.4L621.7,159.1L621.7,159.1z"/>
	<path class="st4" d="M627.4,162.3c0,0.2-0.2,0.3-0.4,0.3c-0.1,4.8-0.5,9.3-3.3,12.5c-0.3-0.2-0.7-0.5-1.1-0.7
		c2.7-2.9,3-7.4,3.1-12.3L627.4,162.3z M632.1,172.7c3-1.5,5-4.1,6-7.2c0.3,0.2,0.8,0.5,1.1,0.7c-1.3,3.6-3.5,6.3-7.3,8.1
		c-0.1,0.1-0.2,0.3-0.3,0.4l-0.9-1.2l0.2-0.3V160l1.7,0.1c0,0.2-0.1,0.3-0.4,0.3V172.7z"/>
	<path class="st4" d="M654,162.9c-0.1,0.1-0.2,0.2-0.3,0.3c-1.9,5.8-4.8,9.6-9.8,12.1c-0.2-0.3-0.6-0.7-0.9-1
		c4.7-2.3,7.6-5.9,9.1-10.7h-6.4c-1,1.6-2.4,3.2-4,4.4c-0.3-0.3-0.7-0.6-1-0.8c2.4-1.9,4.5-4.6,5.7-7.8l1.7,0.5
		c-0.1,0.2-0.3,0.2-0.5,0.2c-0.4,0.8-0.7,1.5-1.2,2.3h6.3l0.2-0.1L654,162.9z"/>
	<path class="st4" d="M671.5,163.6c-0.1,0.1-0.2,0.2-0.3,0.2c-0.8,1.9-2.2,4.4-3.8,5.9c-0.3-0.2-0.7-0.5-1.1-0.6
		c1.4-1.2,2.5-3,3.1-4.5l-6.9,1.8v4.7c0,1.8,1.1,2.4,2.5,2.4h2.9c0.7,0,2-0.1,2.7-0.2c0,0.4,0,0.9,0,1.3c-0.7,0.1-2,0.1-2.7,0.1h-3
		c-2.3,0-3.8-1.1-3.8-3.5v-4.4l-4.5,1.2l-0.3-1.2l4.8-1.2V160l1.7,0.1c0,0.2-0.2,0.3-0.5,0.4v4.7l7.6-2l0.2-0.1L671.5,163.6z"/>
	<path class="st4" d="M674.8,161c1.9,0.6,4,1.5,5.4,2.4l-0.7,1.1c-1.3-0.9-3.4-1.9-5.3-2.5L674.8,161z M674.7,173.4
		c6.4-2,10.6-5.6,12.8-10.6c0.4,0.3,0.8,0.5,1.2,0.7c-2.3,4.9-6.6,8.8-12.7,10.8c0,0.2-0.1,0.3-0.3,0.4L674.7,173.4z"/>
	<path class="st4" d="M691,161.7h11.5l0.1-0.1l1.2,0.9c-0.1,0.1-0.1,0.1-0.2,0.2c-1.5,6.8-4.6,10.3-10.1,12.4
		c-0.2-0.3-0.6-0.8-0.8-1.1c5.2-1.9,8.3-5.3,9.4-11.1H691V161.7z M704.7,158.5c1.1,0,2,0.9,2,2c0,1.1-0.9,2-2,2c-1.1,0-2-0.9-2-2
		C702.7,159.3,703.7,158.5,704.7,158.5z M706.1,160.4c0-0.8-0.6-1.4-1.4-1.4c-0.8,0-1.4,0.6-1.4,1.4c0,0.8,0.6,1.4,1.4,1.4
		C705.5,161.8,706.1,161.2,706.1,160.4z"/>
	<path class="st4" d="M711.7,162.3c0,0.2-0.2,0.3-0.4,0.3c-0.1,4.8-0.5,9.3-3.3,12.5c-0.3-0.2-0.7-0.5-1.1-0.7
		c2.7-2.9,3-7.4,3.1-12.3L711.7,162.3z M716.3,172.7c3-1.5,5-4.1,6-7.2c0.3,0.2,0.8,0.5,1.1,0.7c-1.3,3.6-3.5,6.3-7.3,8.1
		c-0.1,0.1-0.2,0.3-0.3,0.4l-0.9-1.2l0.2-0.3V160l1.7,0.1c0,0.2-0.1,0.3-0.4,0.3V172.7z"/>
	<path class="st4" d="M724.1,174.2l4.9-12.9h1.8l5.3,12.9h-1.9l-1.5-3.9h-5.4l-1.4,3.9H724.1z M727.9,168.9h4.4l-1.3-3.6
		c-0.4-1.1-0.7-2-0.9-2.7c-0.2,0.8-0.4,1.6-0.7,2.5L727.9,168.9z"/>
	<path class="st4" d="M737.9,174.2v-12.9h1.7v12.9H737.9z"/>
	<path class="st4" d="M742.7,174.2v-12.9h8.7v1.5h-7v4h6v1.5h-6v5.9H742.7z"/>
	<path class="st4" d="M753.5,174.2v-12.9h2.6l3.1,9.1c0.3,0.8,0.5,1.5,0.6,1.9c0.1-0.5,0.4-1.2,0.7-2.1l3.1-9h2.3v12.9h-1.6v-10.8
		l-3.7,10.8h-1.5l-3.7-11v11H753.5z"/>
	<path class="st4" d="M784.4,168.9h-4c1,1.3,2.6,2.4,4.2,3c-0.3,0.2-0.6,0.6-0.8,1c-1.8-0.8-3.6-2.3-4.7-3.9h-5.9
		c-1.1,1.7-3,3.3-4.8,4.1c-0.2-0.3-0.5-0.7-0.8-0.9c1.5-0.6,3.2-1.9,4.2-3.2h-4.1v-1h3.8V162h-3v-1h3V159l1.6,0.1
		c0,0.1-0.1,0.2-0.4,0.3v1.6h6.5V159l1.6,0.1c0,0.1-0.1,0.2-0.4,0.3v1.6h3v1h-3v5.9h3.8V168.9z M776.7,172.2v2.1h6.4v1h-13.8v-1h6.2
		v-2.1h-3.8v-1h3.8v-1.7l1.6,0.1c0,0.1-0.1,0.2-0.4,0.3v1.4h3.9v1H776.7z M779.4,162h-6.5v1.3h6.5V162z M772.9,164.2v1.3h6.5v-1.3
		H772.9z M772.9,166.5v1.4h6.5v-1.4H772.9z"/>
	<path class="st4" d="M794.7,169.4v4.6h7.3v1.1h-15.6V174h7.1v-4.6h-6.3v-1.1h6.3v-2.5h-3.9v-1c-1,0.8-2,1.5-3.1,2.1
		c-0.2-0.3-0.5-0.7-0.8-1c3.2-1.7,6.2-4.6,7.7-7l1.8,0.1c0,0.1-0.2,0.2-0.4,0.3c1.7,2.4,5,5,7.8,6.4c-0.3,0.3-0.6,0.7-0.8,1.1
		c-2.8-1.5-6-4.2-7.7-6.6c-1,1.5-2.6,3.1-4.4,4.6h9.1v1.1h-4v2.5h6.4v1.1H794.7z M790.5,173.7c-0.2-0.9-1-2.3-1.7-3.4l1-0.4
		c0.8,1,1.5,2.4,1.8,3.3L790.5,173.7z M799.7,170.5c-0.1,0.1-0.2,0.2-0.4,0.1c-0.5,0.9-1.4,2.3-2.1,3.1l-0.9-0.5
		c0.7-0.9,1.5-2.4,2-3.4L799.7,170.5z"/>
	<path class="st4" d="M803.4,175.6c2-1.6,3.6-4.6,3.6-8.3c0-3.7-1.7-6.7-3.6-8.3V159h1.1c1.8,1.6,3.4,4.7,3.4,8.4s-1.6,6.7-3.4,8.4
		L803.4,175.6L803.4,175.6z"/>
</g>
<g class="st3">
	<path class="st4" d="M952,129.8c-1.8-1-4.4-2.2-6.3-2.9v9h-1.3v-15.6l1.8,0.1c0,0.2-0.2,0.3-0.5,0.4v5.3l0.3-0.4
		c2.1,0.8,4.9,2,6.8,3L952,129.8z"/>
	<path class="st4" d="M957.3,125.1c0.5,1.1,1.1,2.8,1.4,3.9l-1,0.3c-0.2-1-0.8-2.7-1.3-3.8L957.3,125.1z M968,125.2
		c0,0.2-0.2,0.2-0.4,0.2c-1.4,5.3-4.1,8.5-8.4,10.2c-0.1-0.2-0.5-0.6-0.7-0.8c4.3-1.7,6.8-4.6,8.1-10L968,125.2z M961.6,124.2
		c0.4,1.2,0.7,2.9,0.8,4.1l-1.1,0.2c-0.1-1.2-0.5-2.8-0.8-4.1L961.6,124.2z"/>
	<path class="st4" d="M971,122.4h11.5l0.1-0.1l1.2,0.9c-0.1,0.1-0.1,0.1-0.2,0.2c-1.5,6.8-4.6,10.3-10.1,12.4
		c-0.2-0.3-0.6-0.8-0.8-1.1c5.2-1.9,8.3-5.3,9.4-11.1H971V122.4z M984.7,119.2c1.1,0,2,0.9,2,2c0,1.1-0.9,2-2,2c-1.1,0-2-0.9-2-2
		C982.7,120,983.6,119.2,984.7,119.2z M986,121.2c0-0.8-0.6-1.4-1.4-1.4c-0.8,0-1.4,0.6-1.4,1.4c0,0.8,0.6,1.4,1.4,1.4
		C985.5,122.6,986,121.9,986,121.2z"/>
	<path class="st4" d="M990.9,133.9c4.6-1.3,8.2-3.5,10.4-7.4c0.2,0.3,0.7,0.7,1,0.9c-2.4,4.1-6.4,6.6-11.9,8c0,0.1-0.1,0.3-0.3,0.4
		l-0.8-1.3l0.2-0.3v-13.3l1.9,0.1c0,0.2-0.2,0.4-0.5,0.4V133.9z"/>
	<path class="st4" d="M1004.2,129.1c1.4-1.4,4.2-4.6,5.2-5.7c0.5-0.5,0.9-0.7,1.4-0.7c0.5,0,1,0.3,1.5,0.7c2.3,2.1,6.1,6.3,8.8,9.8
		l-1.1,1c-2.6-3.5-6.3-7.8-8.3-9.7c-0.3-0.3-0.5-0.5-0.8-0.5s-0.5,0.2-0.7,0.5c-0.8,0.9-3.5,3.9-4.7,5.2c0,0,0,0.1,0,0.1
		c0,0.1-0.1,0.3-0.2,0.4L1004.2,129.1z M1016.1,121.7c0.8,0.7,1.7,1.8,2.3,2.6l-0.7,0.5c-0.5-0.8-1.5-2-2.3-2.6L1016.1,121.7z
		 M1018.2,120.1c0.8,0.7,1.8,1.8,2.3,2.6l-0.7,0.5c-0.5-0.8-1.5-1.9-2.3-2.6L1018.2,120.1z"/>
	<path class="st4" d="M1027.1,123.1c0,0.2-0.2,0.3-0.4,0.3c-0.1,4.8-0.5,9.3-3.3,12.5c-0.3-0.2-0.7-0.5-1.1-0.7
		c2.7-2.9,3-7.4,3.1-12.3L1027.1,123.1z M1031.8,133.4c3-1.5,5-4.1,6-7.2c0.3,0.2,0.8,0.5,1.1,0.7c-1.3,3.6-3.5,6.3-7.3,8.1
		c-0.1,0.1-0.2,0.3-0.3,0.4l-0.9-1.2l0.2-0.3v-13.2l1.7,0.1c0,0.2-0.1,0.3-0.4,0.3V133.4z"/>
	<path class="st4" d="M953.1,143.4v1.1h-4.3l1,0.2c-0.1,0.1-0.2,0.2-0.4,0.2c-0.3,0.6-0.6,1.4-1,2h3.8v9.7c0,1.5-0.7,1.5-3.8,1.5
		c-0.1-0.3-0.3-0.9-0.4-1.2c0.7,0,1.4,0,1.9,0c1.1,0,1.2,0,1.2-0.4v-8.6h-3.8v1.6c0,0.3,0.1,0.4,0.6,0.4h1.8c0.4,0,0.5-0.1,0.5-0.9
		c0.2,0.2,0.6,0.3,1,0.4c-0.1,1.2-0.4,1.4-1.3,1.4h-2c-1.3,0-1.5-0.3-1.5-1.3v-1.6h-2.4c-0.2,2-1,3.2-3.7,3.8
		c-0.1-0.3-0.4-0.7-0.6-0.9c2.3-0.5,3-1.3,3.2-3h-3.4v10.1H938v-11.2h3.7c-0.2-0.6-0.6-1.5-0.9-2.1l1.1-0.3c0.4,0.7,0.9,1.6,1,2.2
		l-0.6,0.2h4.7c0.4-0.7,0.8-1.7,1.1-2.4H937v-1.1h7.4v-2l1.6,0.1c0,0.1-0.1,0.2-0.4,0.2v1.7H953.1z M948.5,156.2h-5.8v1.1h-1.1v-5.5
		h6.9V156.2z M947.4,152.8h-4.7v2.5h4.7V152.8z"/>
	<path class="st4" d="M971,153.7h-6.2c1.7,1.4,4.3,2.5,6.7,3.1c-0.3,0.3-0.6,0.7-0.8,1.1c-2.5-0.7-5.3-2.1-7-3.9v4.1h-1.2v-4
		c-1.8,1.6-4.5,3-7,3.7c-0.2-0.3-0.5-0.8-0.8-1c2.3-0.5,4.9-1.7,6.6-3h-6.1v-1h7.3v-1.5h-5.6v-1h5.6v-1.4h-6.5v-1h4.1
		c-0.2-0.6-0.6-1.3-0.9-1.9l0.7-0.1h-4.6v-1.1h3c-0.3-0.8-0.9-1.9-1.5-2.7l1-0.4c0.6,0.8,1.3,2,1.6,2.7l-1,0.4h2.4v-3.3l1.5,0.1
		c0,0.2-0.2,0.3-0.4,0.3v2.9h2.3v-3.3l1.6,0.1c0,0.2-0.2,0.3-0.4,0.3v2.9h2.3c-0.2-0.1-0.5-0.2-0.7-0.3c0.5-0.8,1.2-2,1.5-2.8
		l1.4,0.5c0,0.1-0.2,0.2-0.4,0.2c-0.4,0.7-1,1.7-1.5,2.4h3v1.1h-4.1l0.5,0.2c-0.1,0.1-0.2,0.2-0.4,0.2c-0.3,0.5-0.6,1.2-1,1.7h4.3v1
		h-6.7v1.4h5.8v1h-5.8v1.5h7.4V153.7z M964.8,147.6c0.3-0.5,0.7-1.3,1-1.9h-5.6c0.4,0.6,0.8,1.4,1,1.9l-0.6,0.1h4.4L964.8,147.6z"/>
	<path class="st4" d="M988,142.6v13.7c0,1.7-0.8,1.7-4.2,1.6c-0.1-0.3-0.3-0.8-0.4-1.2c0.7,0,1.3,0,1.8,0c1.5,0,1.6,0,1.6-0.5v-3.9
		h-5.2v5.5h-1.2v-5.5h-4.7c-0.3,2.1-0.9,4.2-2.3,5.7c-0.2-0.2-0.6-0.6-0.9-0.8c2-2.3,2.2-5.5,2.2-8.1v-6.6H988z M975.9,149.3
		c0,0.6,0,1.3-0.1,2h4.6v-3.2h-4.6V149.3z M980.5,143.8h-4.6v3.2h4.6V143.8z M986.8,147v-3.2h-5.2v3.2H986.8z M981.6,151.3h5.2v-3.2
		h-5.2V151.3z"/>
	<path class="st4" d="M1006.9,143.8h-5.6c-0.1,0.1-0.3,0.2-0.5,0.1c-0.4,0.8-0.9,1.5-1.4,2.3l0.5,0.1c0,0.1-0.1,0.2-0.4,0.2v11.5
		h-1.2v-10.4c-1.9,2.3-4.2,4.5-6.9,6c-0.2-0.3-0.6-0.8-0.8-1c3.7-2.1,7-5.5,8.8-8.9h-8.3v-1.2h15.7V143.8z M1006.4,153.5
		c-1.3-1.3-4.1-3.3-6.2-4.6l0.9-0.8c2.2,1.3,4.9,3.2,6.3,4.5L1006.4,153.5z"/>
	<path class="st4" d="M1024.5,145.6l0.6,0c0,0.1,0,0.3,0,0.4c-0.2,7.9-0.4,10.5-1,11.2c-0.5,0.7-1.1,0.7-1.9,0.7c-0.4,0-1,0-1.5,0
		c0-0.3-0.2-0.8-0.3-1.2c0.9,0.1,1.7,0.1,2.1,0.1c0.2,0,0.4-0.1,0.5-0.3c0.4-0.5,0.7-3,0.8-9.8h-2.7c0,3.7-0.4,8.2-3.9,11.3
		c-0.2-0.2-0.6-0.6-0.9-0.8c0.3-0.3,0.6-0.6,0.9-1c-3,0.4-6.1,0.8-8,1c0,0.1-0.1,0.2-0.3,0.3l-0.4-1.3c1.1-0.1,2.5-0.2,4-0.4v-1.7
		h-3.5v-1h3.5V152h-3.4v-5.3h3.4v-1.3h-4v-1h4v-1.3c-1.2,0.1-2.4,0.2-3.5,0.3c-0.1-0.3-0.2-0.6-0.3-0.9c2.7-0.2,6-0.5,7.7-1l0.9,0.9
		c0,0-0.1,0-0.2,0c-0.1,0-0.1,0-0.2,0c-0.8,0.2-1.9,0.4-3.1,0.5c-0.1,0.1-0.1,0.1-0.3,0.1v1.3h4v1h-4v1.3h3.6v5.3h-3.6v1.2h3.7v1
		h-3.7v1.6c1.2-0.1,2.5-0.3,3.7-0.4l0,0.8c2.3-2.9,2.6-6.5,2.6-9.4h-2.3v-1.1h2.3v-4.2l1.5,0.1c0,0.1-0.1,0.2-0.3,0.2v3.8H1024.5z
		 M1010.3,147.6v1.3h2.3v-1.3H1010.3z M1010.3,151.2h2.3v-1.4h-2.3V151.2z M1016.3,147.6h-2.5v1.3h2.5V147.6z M1016.3,151.2v-1.4
		h-2.5v1.4H1016.3z"/>
	<path class="st4" d="M1039.8,144.4c-0.1,0.1-0.2,0.2-0.4,0.1c-0.3,0.7-0.8,1.6-1.2,2.3h4.9v1.1h-13.8v1.8c0,2.4-0.3,6-1.9,8.4
		c-0.2-0.3-0.7-0.6-0.9-0.8c1.5-2.3,1.7-5.5,1.7-7.7v-2.8h3.6c-0.1-0.7-0.6-1.7-1-2.5l1-0.3h-3.9V143h6.5v-1.7l1.6,0.1
		c0,0.1-0.1,0.2-0.4,0.3v1.4h6.6v1.1h-3.5L1039.8,144.4z M1037,154.2v2.4h6.1v1.1H1030v-1.1h5.8v-2.4h-4.1v-1h4.1v-2h-3.5
		c-0.4,0.7-0.9,1.3-1.3,1.8c-0.2-0.2-0.6-0.4-0.9-0.6c0.9-0.9,1.8-2.4,2.3-3.9l1.4,0.4c-0.1,0.1-0.2,0.2-0.4,0.2
		c-0.1,0.4-0.3,0.7-0.5,1.1h3v-1.7l1.5,0.1c0,0.1-0.1,0.2-0.3,0.3v1.4h5v1h-5v2h4.6v1H1037z M1037.2,146.6c0.4-0.7,0.8-1.7,1.1-2.5
		h-6.4c0.5,0.8,0.9,1.8,1.1,2.5l-0.9,0.3h5.9L1037.2,146.6z"/>
</g>
<g class="st3">
	<path d="M304.7,90.3V76h1.9v5.9h7.4V76h1.9v14.3H314v-6.7h-7.4v6.7H304.7z"/>
	<path d="M318.2,85.1c0-1.9,0.5-3.3,1.6-4.3c0.9-0.8,2-1.2,3.3-1.2c1.4,0,2.6,0.5,3.5,1.4s1.4,2.2,1.4,3.9c0,1.3-0.2,2.4-0.6,3.1
		s-1,1.4-1.7,1.8s-1.6,0.6-2.5,0.6c-1.5,0-2.6-0.5-3.5-1.4S318.2,86.9,318.2,85.1z M320,85.1c0,1.3,0.3,2.3,0.9,3s1.3,1,2.2,1
		c0.9,0,1.6-0.3,2.2-1s0.9-1.7,0.9-3c0-1.3-0.3-2.3-0.9-2.9s-1.3-1-2.2-1c-0.9,0-1.6,0.3-2.2,1S320,83.8,320,85.1z"/>
	<path d="M336.8,90.3v-1.5c-0.8,1.2-1.9,1.8-3.3,1.8c-0.6,0-1.2-0.1-1.7-0.4s-0.9-0.5-1.2-0.9s-0.4-0.8-0.5-1.3
		c-0.1-0.3-0.1-0.9-0.1-1.6v-6.4h1.8v5.8c0,0.9,0,1.5,0.1,1.9c0.1,0.5,0.3,0.8,0.7,1.1s0.8,0.4,1.3,0.4s1-0.1,1.5-0.4s0.8-0.6,1-1.1
		s0.3-1.1,0.3-2v-5.6h1.8v10.4H336.8z"/>
	<path d="M340.4,87.2l1.7-0.3c0.1,0.7,0.4,1.2,0.8,1.6s1.1,0.6,1.9,0.6c0.8,0,1.4-0.2,1.8-0.5s0.6-0.7,0.6-1.2
		c0-0.4-0.2-0.7-0.5-0.9c-0.2-0.2-0.8-0.4-1.8-0.6c-1.3-0.3-2.2-0.6-2.7-0.8s-0.9-0.6-1.1-1s-0.4-0.9-0.4-1.4c0-0.5,0.1-0.9,0.3-1.3
		s0.5-0.7,0.9-1c0.3-0.2,0.6-0.4,1.1-0.5s1-0.2,1.5-0.2c0.8,0,1.5,0.1,2.1,0.4s1.1,0.6,1.4,1s0.5,0.9,0.6,1.6l-1.7,0.2
		c-0.1-0.5-0.3-1-0.7-1.3s-0.9-0.4-1.6-0.4c-0.8,0-1.4,0.1-1.7,0.4s-0.5,0.6-0.5,0.9c0,0.2,0.1,0.4,0.2,0.6c0.1,0.2,0.4,0.3,0.7,0.5
		c0.2,0.1,0.7,0.2,1.6,0.4c1.2,0.3,2.1,0.6,2.6,0.8s0.9,0.5,1.2,0.9s0.4,0.9,0.4,1.5c0,0.6-0.2,1.1-0.5,1.7s-0.8,0.9-1.5,1.2
		s-1.4,0.4-2.2,0.4c-1.3,0-2.4-0.3-3.1-0.8S340.6,88.3,340.4,87.2z"/>
	<path d="M358.2,87l1.8,0.2c-0.3,1.1-0.8,1.9-1.6,2.5s-1.8,0.9-3,0.9c-1.5,0-2.7-0.5-3.6-1.4s-1.3-2.2-1.3-3.9
		c0-1.7,0.4-3.1,1.3-4.1s2.1-1.4,3.5-1.4c1.4,0,2.5,0.5,3.4,1.4s1.3,2.3,1.3,4c0,0.1,0,0.3,0,0.5h-7.7c0.1,1.1,0.4,2,1,2.6
		s1.3,0.9,2.2,0.9c0.6,0,1.2-0.2,1.7-0.5S357.9,87.7,358.2,87z M352.4,84.1h5.8c-0.1-0.9-0.3-1.5-0.7-2c-0.6-0.7-1.3-1-2.2-1
		c-0.8,0-1.5,0.3-2,0.8S352.5,83.2,352.4,84.1z"/>
	<path d="M366.1,90.3V77.7h-4.7V76h11.3v1.7H368v12.6H366.1z"/>
	<path d="M371.6,85.1c0-1.9,0.5-3.3,1.6-4.3c0.9-0.8,2-1.2,3.3-1.2c1.4,0,2.6,0.5,3.5,1.4s1.4,2.2,1.4,3.9c0,1.3-0.2,2.4-0.6,3.1
		s-1,1.4-1.7,1.8s-1.6,0.6-2.5,0.6c-1.5,0-2.6-0.5-3.5-1.4S371.6,86.9,371.6,85.1z M373.4,85.1c0,1.3,0.3,2.3,0.9,3s1.3,1,2.2,1
		c0.9,0,1.6-0.3,2.2-1s0.9-1.7,0.9-3c0-1.3-0.3-2.3-0.9-2.9s-1.3-1-2.2-1c-0.9,0-1.6,0.3-2.2,1S373.4,83.8,373.4,85.1z"/>
	<path d="M383.3,90.3V76h1.8v8.2l4.2-4.2h2.3l-4,3.8l4.4,6.5h-2.2l-3.4-5.3l-1.2,1.2v4.1H383.3z"/>
	<path d="M400.4,87l1.8,0.2c-0.3,1.1-0.8,1.9-1.6,2.5s-1.8,0.9-3,0.9c-1.5,0-2.7-0.5-3.6-1.4s-1.3-2.2-1.3-3.9
		c0-1.7,0.4-3.1,1.3-4.1s2.1-1.4,3.5-1.4c1.4,0,2.5,0.5,3.4,1.4s1.3,2.3,1.3,4c0,0.1,0,0.3,0,0.5h-7.7c0.1,1.1,0.4,2,1,2.6
		s1.3,0.9,2.2,0.9c0.6,0,1.2-0.2,1.7-0.5S400.2,87.7,400.4,87z M394.7,84.1h5.8c-0.1-0.9-0.3-1.5-0.7-2c-0.6-0.7-1.3-1-2.2-1
		c-0.8,0-1.5,0.3-2,0.8S394.7,83.2,394.7,84.1z"/>
	<path d="M404.5,90.3V79.9h1.6v1.5c0.8-1.1,1.9-1.7,3.3-1.7c0.6,0,1.2,0.1,1.7,0.3s0.9,0.5,1.2,0.9s0.4,0.8,0.5,1.3
		c0.1,0.3,0.1,0.9,0.1,1.7v6.4h-1.8V84c0-0.7-0.1-1.3-0.2-1.6s-0.4-0.6-0.7-0.8s-0.8-0.3-1.2-0.3c-0.7,0-1.4,0.2-1.9,0.7
		s-0.8,1.4-0.8,2.7v5.7H404.5z"/>
	<path d="M421.3,90.3V76h1.9v12.6h7.1v1.7H421.3z"/>
	<path d="M434.6,90.3V77.7h-4.7V76h11.3v1.7h-4.7v12.6H434.6z"/>
	<path d="M443.2,90.3V76h4.9c1.1,0,2,0.1,2.5,0.2c0.8,0.2,1.5,0.5,2.1,1c0.8,0.6,1.3,1.5,1.7,2.4s0.6,2.1,0.6,3.4
		c0,1.1-0.1,2.1-0.4,2.9s-0.6,1.5-1,2.1s-0.8,1-1.3,1.3s-1,0.6-1.7,0.7s-1.4,0.2-2.3,0.2H443.2z M445.1,88.6h3.1
		c0.9,0,1.7-0.1,2.2-0.3s1-0.4,1.3-0.7c0.4-0.4,0.8-1.1,1-1.8s0.4-1.7,0.4-2.8c0-1.5-0.2-2.6-0.7-3.5s-1.1-1.3-1.8-1.6
		c-0.5-0.2-1.3-0.3-2.5-0.3h-3V88.6z"/>
	<path d="M298.3,118.5c-1-1.2-1.8-2.7-2.5-4.3s-1-3.3-1-5.1c0-1.5,0.3-3,0.8-4.5c0.6-1.6,1.5-3.3,2.7-4.9h1.3
		c-0.8,1.4-1.3,2.3-1.6,2.9c-0.4,0.9-0.7,1.8-0.9,2.8c-0.3,1.2-0.4,2.4-0.4,3.7c0,3.1,1,6.3,2.9,9.4H298.3z"/>
	<path d="M318.2,102.7v1.4h-5c-0.1,0.1-0.2,0.2-0.4,0.2c-0.6,4.6-2.5,8.7-6.7,11.1c-0.3-0.3-0.9-0.7-1.2-0.9c4.1-2.2,6-6,6.5-10.5
		h-5.6c-0.9,1.6-2.1,3.1-3.2,4.1c-0.3-0.2-0.9-0.5-1.3-0.7c2.2-1.9,4.5-5.8,5.4-9.5l1.9,0.4c0,0.1-0.2,0.3-0.5,0.3
		c-0.4,1.2-1.1,2.8-1.7,4H318.2z"/>
	<path d="M335.6,99.3c-0.1,0.1-0.2,0.2-0.4,0.2c-0.1,0-0.1,0-0.2,0c-1.5,1.6-3.8,3.4-5.7,4.8c0.2,0.1,0.4,0.2,0.5,0.2
		c0,0.1-0.2,0.2-0.4,0.3v10.7h-1.5v-10.3c-2.1,1.5-4.9,3.1-7.6,4.5c-0.2-0.3-0.6-0.8-0.8-1.1c5.5-2.5,11.4-6.8,14.7-10.3L335.6,99.3
		z"/>
	<path d="M355.5,101.3c-0.1,0.1-0.2,0.2-0.3,0.2c-1.9,2.8-5,5.8-8.1,8c1.5,1.2,3.1,2.8,4.1,3.9l-1.2,1.1c-2.1-2.5-6-5.8-9.4-7.7l1-1
		c1.4,0.8,3,1.9,4.5,3c2.7-1.9,5.4-4.5,7-6.8h-14.7v-1.4h15.7l0.2-0.1L355.5,101.3z"/>
	<path d="M359,99.6c2.1,0.7,4.5,1.7,6,2.7l-0.8,1.3c-1.4-1-3.8-2.1-5.8-2.8L359,99.6z M358.9,113.5c7.1-2.2,11.8-6.2,14.2-11.7
		c0.4,0.3,0.9,0.6,1.3,0.8c-2.5,5.5-7.4,9.7-14.2,12c0,0.2-0.1,0.4-0.3,0.5L358.9,113.5z"/>
	<path d="M383.3,100.8v1.1h-7.1v-1.1H383.3z M382.8,109v5.9h-4.6v0.9h-1.2V109H382.8z M382.8,103.5v1.1h-5.7v-1.1H382.8z
		 M377.1,107.3v-1.1h5.7v1.1H377.1z M382.7,98.1v1.1h-5.5v-1.1H382.7z M381.7,110.1h-3.4v3.6h3.4V110.1z M394.8,105h-4.7
		c-0.8,0.8-1.6,1.6-2.5,2.2h6.1v8.7h-1.3v-0.8H387v0.8h-1.3v-7.4c-0.7,0.4-1.4,0.9-2.1,1.2c-0.2-0.3-0.6-0.8-0.9-1
		c2-1,3.8-2.2,5.5-3.8h-4.9v-1.2h4.2V101h-3.4v-1.2h3.4v-2.4l1.7,0.1c0,0.1-0.1,0.2-0.4,0.3v2h2.7v1.2h-2.7v2.8h0.7
		c1.4-1.5,2.6-3.2,3.5-5.1l1.5,0.6c-0.1,0.2-0.3,0.2-0.5,0.2c-0.8,1.5-1.8,3-2.9,4.3h3.6V105z M392.3,110.7v-2.2H387v2.2H392.3z
		 M387,114.1h5.3v-2.3H387V114.1z"/>
	<path d="M408.4,114.5h-9.7v1h-1.3v-4.2l1.6,0.1c0,0.1-0.1,0.2-0.4,0.3v1.8h3.6v-2.6l1.7,0.1c0,0.1-0.1,0.2-0.4,0.3v2.3h3.6v-2.2
		l1.7,0.1c0,0.1-0.1,0.2-0.4,0.3V114.5z M414.6,108h-14.1v1.5h12.4l0.3,0l0.8,0.2c0,0.1,0,0.3-0.1,0.4c-0.3,3.6-0.6,5-1.1,5.5
		c-0.4,0.4-0.8,0.5-2,0.5c-0.5,0-1.2,0-1.9-0.1c0-0.4-0.2-0.9-0.3-1.2c1,0.1,2.1,0.1,2.4,0.1c0.4,0,0.6,0,0.7-0.2
		c0.3-0.3,0.6-1.5,0.8-4.1h-13.3V99.1h4.7c0.3-0.6,0.6-1.2,0.7-1.7l1.7,0.4c0,0.1-0.2,0.2-0.4,0.2c-0.2,0.3-0.4,0.7-0.6,1.1h6.3v6.3
		h-11.1v1.5h14.1V108z M410.2,100.1h-9.7v1.6h9.7V100.1z M400.4,104.4h9.7v-1.7h-9.7V104.4z"/>
	<path d="M426.7,97.5c-0.1,0.2-0.2,0.3-0.4,0.3c2,2.7,5.6,5.4,8.7,6.8c-0.3,0.3-0.6,0.8-0.9,1.2c-3.2-1.6-6.8-4.3-8.7-7
		c-1.7,2.5-5,5.3-8.5,7.1c-0.2-0.3-0.5-0.8-0.8-1.1c3.5-1.7,7-4.7,8.6-7.4L426.7,97.5z M417.2,108.9v-1.3H434v1.3h-9.6l0.2,0.1
		c-0.1,0.1-0.2,0.2-0.5,0.2c-0.6,1.4-1.5,3.2-2.4,4.6c2.7-0.1,5.8-0.2,8.8-0.3c-0.9-1-1.9-2.1-2.9-3l1.1-0.6
		c1.9,1.6,3.9,3.8,4.8,5.3l-1.2,0.8c-0.3-0.4-0.6-0.9-1-1.4c-4.9,0.3-10,0.5-13.2,0.6c0,0.2-0.2,0.3-0.3,0.3l-0.5-1.6
		c0.8,0,1.8,0,2.9-0.1c0.8-1.4,1.8-3.4,2.4-5H417.2z M420.6,103.7h9.7v1.3h-9.7V103.7z"/>
	<path d="M444.5,101.7c0,0.1-0.1,0.2-0.2,0.2c-0.7,1.7-1.7,3.3-2.9,4.7c1,0.6,2.9,2.1,3.4,2.5l-0.8,1.1c-0.6-0.6-1.8-1.6-2.8-2.4
		v8.2h-1.3v-7.7c-1,1-2.1,1.9-3.1,2.6c-0.1-0.3-0.5-0.9-0.7-1.2c2.5-1.6,5.2-4.3,6.6-7.3h-6.1v-1.2h3.3v-3.8l1.7,0.1
		c0,0.1-0.1,0.2-0.4,0.3v3.4h2.2l0.2-0.1L444.5,101.7z M450.2,114.1h4.8v1.3h-11.4v-1.3h5.2v-8.7h-4.4v-1.3h4.4v-6.6l1.8,0.1
		c0,0.1-0.1,0.2-0.4,0.3v6.2h4.4v1.3h-4.4V114.1z"/>
	<path d="M455.8,115.9c2.2-1.8,4-5.2,4-9.2c0-4.1-1.8-7.4-4-9.2v-0.1h1.2c2,1.8,3.8,5.2,3.8,9.3s-1.8,7.5-3.8,9.3L455.8,115.9
		L455.8,115.9z"/>
</g>
</svg>
