<?xml version="1.0" encoding="utf-8"?>
<!-- Generator: Adobe Illustrator 22.1.0, SVG Export Plug-In . SVG Version: 6.00 Build 0)  -->
<svg version="1.1" id="强大的法律保障" xmlns="http://www.w3.org/2000/svg" xmlns:xlink="http://www.w3.org/1999/xlink"
	 x="0px" y="0px" viewBox="0 0 1017 345" style="enable-background:new 0 0 1017 345;" xml:space="preserve">
<style type="text/css">
	.st0{fill:#010101;}
	.st1{fill:#58595B;}
	.st2{fill:#70DBCB;}
	.st3{fill:none;stroke:#70DBCB;}
	.st4{fill:#FCFCFC;}
	.st5{fill:#F5F5F5;}
	.st6{enable-background:new    ;}
	.st7{fill:#17161F;}
	.st8{fill:#F2F2F2;}
	.st9{fill:#E6E7E8;}
	.st10{fill:#FFFFFF;}
</style>
<rect id="矩形_47" x="686.9" y="160" class="st0" width="321.2" height="0.8"/>
<ellipse id="椭圆_12" class="st1" cx="1003" cy="159.6" rx="14" ry="14.1"/>
<g id="组_27">
	<path id="矩形_48" class="st2" d="M409.9,159.2h181.5v0.8H409.9V159.2z"/>
	<path id="形状_2" class="st3" d="M591.4,156H474.1l-38.5-87.6h-81.9"/>
	<path id="形状_2_拷贝" class="st3" d="M591.4,164H474.1l-38.5,87.7h-81.9"/>
</g>
<path id="圆角矩形_1" class="st4" d="M609.2,144.5l39.1-10c1.6-0.4,3.4-0.3,5,0.1l32.8,10.6c1.4,0.5,1.6,1.2,0.4,1.7l-34.2,12.6
	c-2,0.6-4.1,0.7-6.1,0.1l-37.7-13.2C606.9,145.8,607.3,145,609.2,144.5z"/>
<path id="圆角矩形_1_拷贝" class="st5" d="M608.4,165.4l39.1-10c1.6-0.4,3.4-0.3,5,0.1l32.8,10.6c1.4,0.5,1.6,1.2,0.4,1.7
	l-34.2,12.6c-2,0.6-4.1,0.7-6.2,0.1l-37.7-13.2C606.1,166.7,606.5,165.9,608.4,165.4z"/>
<g id="资产管理平台" class="st6">
	<path class="st7" d="M601.6,203.9c1.3-0.9,2.6-1.8,3.8-2.8c0.1,0.1,0.2,0.4,0.4,0.8c-1.2,0.9-2.4,1.8-3.6,2.8L601.6,203.9z
		 M608.8,206.8h0.8c0,0.6,0,1.1-0.1,1.7c0,0,0,0.1,0,0.2c0,0.2-0.1,0.3-0.1,0.4c2.1,0.8,4.3,1.7,6.7,2.6l-0.5,0.8
		c-2.4-1.1-4.6-2-6.6-2.8c-0.7,1.2-2.9,2.1-6.5,2.8c-0.1-0.3-0.3-0.6-0.4-0.9c4.1-0.5,6.4-1.6,6.7-3.3
		C608.8,208,608.8,207.5,608.8,206.8z M604.8,200.2c-0.8-0.6-1.6-1.3-2.5-1.9l0.6-0.6c0.8,0.5,1.6,1.1,2.5,1.8L604.8,200.2z
		 M603.9,205.1h10.5v4.6h-0.8v-3.8h-8.8v3.8H604v-4.6H603.9z M606.4,204.6c-0.2-0.3-0.3-0.5-0.5-0.8c3.2-0.7,4.9-2.1,5.1-4.2h-2.5
		c-0.4,0.7-1,1.4-1.6,2.1c-0.2-0.2-0.5-0.4-0.7-0.6c1.1-1.1,1.9-2.4,2.5-3.8l0.8,0.2c-0.2,0.5-0.4,0.9-0.6,1.3h7.1v0.8l-0.9,1.9
		c-0.2-0.1-0.5-0.2-0.8-0.3l0.9-1.7h-3.3c0,0.2-0.1,0.3-0.1,0.4c0.8,2.1,2.4,3.3,4.9,3.8c-0.2,0.3-0.3,0.5-0.5,0.8
		c-2.5-0.7-4.1-1.9-4.7-3.6C610.9,202.5,609.3,203.7,606.4,204.6z"/>
	<path class="st7" d="M619.2,203.8h7.6c0.6-0.9,1.2-1.9,1.9-3l0.8,0.4c-0.5,0.8-1.1,1.7-1.7,2.6h4.6v0.8h-12.2v1.2
		c0.1,2.8-0.5,5.1-1.9,6.7c-0.3-0.3-0.5-0.5-0.7-0.6c0.6-0.8,1.1-1.6,1.3-2.5c0.3-0.9,0.4-2.1,0.4-3.6L619.2,203.8L619.2,203.8z
		 M624.7,197.7l0.8-0.2c0.3,0.7,0.5,1.3,0.6,1.8h6.5v0.8h-14.8v-0.8h7.4c-0.1-0.3-0.3-0.8-0.5-1.5
		C624.8,197.8,624.8,197.7,624.7,197.7z M621.4,201.2l0.7-0.5c0.5,0.6,1.1,1.4,1.8,2.3l-0.8,0.5C622.6,202.7,622,201.9,621.4,201.2z
		"/>
	<path class="st7" d="M636.6,197.4l0.8,0.2c-0.3,0.5-0.5,1-0.7,1.3h4.7v0.7h-5.2c-0.5,0.7-1.2,1.4-1.9,2c-0.1-0.2-0.3-0.4-0.6-0.6
		C634.9,200,635.9,198.8,636.6,197.4z M640.5,201l0.7-0.3c0,0,0,0.1,0.1,0.2c0.2,0.5,0.4,0.9,0.6,1.2h6.3v2.2h-0.8v-1.4h-12.3v1.5
		h-0.8v-2.2h6.8C640.9,201.7,640.7,201.4,640.5,201z M636.1,204.2h10.2v3.1h-9.4v1.4h9.7v3.9h-0.8V212h-8.9v0.7h-0.8V204.2z
		 M636.9,204.9v1.7h8.6v-1.7H636.9z M645.8,209.4h-8.9v1.9h8.9V209.4z M638.5,201.6c-0.5-0.5-0.9-1-1.3-1.4l0.6-0.4
		c0.5,0.4,0.9,0.9,1.4,1.4L638.5,201.6z M643.6,197.4l0.8,0.1c-0.2,0.5-0.4,0.9-0.6,1.3h5.1v0.7h-5.5c-0.3,0.5-0.7,0.9-1.1,1.4
		c-0.2-0.2-0.4-0.4-0.7-0.5C642.5,199.5,643.1,198.5,643.6,197.4z M646.2,201.1l-0.6,0.5c-0.4-0.5-0.9-1-1.3-1.4l0.5-0.4
		C645.3,200.2,645.8,200.7,646.2,201.1z"/>
	<path class="st7" d="M649.9,204.2h2v-4.5h-2.1v-0.8h5v0.8h-2.1v4.5h2v0.7h-2v4.7c0.7-0.2,1.4-0.3,2.1-0.5c0,0.3,0,0.6,0,0.9
		c-1.7,0.4-3.4,0.7-5,1.1l-0.2-0.9c0.9-0.2,1.6-0.3,2.3-0.5v-4.9h-2V204.2z M655.5,207.9h4v-2.2h-3.6v-7.4h8.1v7.4h-3.6v2.2h4v0.7
		h-4v2.6h4.6v0.8h-10.4v-0.8h4.9v-2.6h-4V207.9z M656.6,199.1v2.6h2.8v-2.6H656.6z M656.6,202.4v2.6h2.8v-2.6H656.6z M663.1,199.1
		h-2.8v2.6h2.8V199.1z M660.3,202.4v2.6h2.8v-2.6H660.3z"/>
	<path class="st7" d="M666.6,198.2h13.5v0.8h-6.3v6.9h7v0.9h-7v5.8h-0.9v-5.8h-7V206h7v-6.9h-6.3V198.2z M667.5,201l0.7-0.5
		c0.9,1.2,1.9,2.4,2.8,3.7l-0.8,0.5C669.5,203.6,668.6,202.4,667.5,201z M676.2,204.8l-0.7-0.6c1.1-1.2,2.1-2.4,3-3.7l0.8,0.5
		C678.3,202.2,677.3,203.5,676.2,204.8z"/>
	<path class="st7" d="M696.3,204.7c-0.5-0.6-1-1-1.3-1.3c-4.6,0.1-8.2,0.2-10.8,0.4c-0.6,0-1.1,0.1-1.5,0.2l-0.4-0.9
		c0.4-0.2,0.8-0.4,1.2-0.7c1.8-1.5,3.5-3.2,4.9-5l0.9,0.5c-1.4,1.6-3.2,3.3-5.2,5.1c1.2,0,3.3-0.1,6.1-0.2c1.3,0,2.7-0.1,4.1-0.1
		c-0.5-0.6-1.4-1.4-2.5-2.5l0.7-0.5c1.4,1.3,2.9,2.8,4.6,4.5L696.3,204.7z M694.9,205.8v6.8H694v-1h-9.1v1H684v-6.8H694.9z
		 M684.9,206.6v4.1h9.1v-4.1H684.9z"/>
</g>
<path id="椭圆_11" class="st8" d="M649.6,140.7c10,0,18.1,1.6,18.1,3.6s-8.1,3.6-18.1,3.6s-18.1-1.6-18.1-3.6
	S639.6,140.7,649.6,140.7z"/>
<path id="矩形_46" class="st9" d="M607.4,145.5l43.4,15.3v14.5L607.4,160V145.5z"/>
<path id="矩形_46_拷贝" class="st9" d="M687.7,146.3L650,160.8v14.5l37.7-14.5V146.3z"/>
<path id="圆角矩形_1-2" class="st4" d="M249.5,55.3l39.1-10.1c1.7-0.3,3.4-0.3,5,0.2L326.3,56c1.4,0.5,1.6,1.2,0.4,1.7
	l-34.2,12.5c-2,0.7-4.1,0.7-6.1,0.1l-37.7-13.2C247.2,56.6,247.5,55.8,249.5,55.3z"/>
<path id="圆角矩形_1_拷贝-2" class="st5" d="M248.7,76.2l39.1-10.1c1.7-0.3,3.4-0.3,5,0.2l32.8,10.6c1.4,0.5,1.6,1.2,0.4,1.7
	l-34.2,12.5c-2,0.7-4.1,0.7-6.1,0.1L247.9,78C246.4,77.5,246.7,76.7,248.7,76.2z"/>
<g id="资产管理平台-2" class="st6">
	<path class="st7" d="M242.6,114.7c1.3-0.9,2.6-1.8,3.8-2.8c0.1,0.1,0.2,0.4,0.4,0.8c-1.2,0.9-2.4,1.8-3.6,2.8L242.6,114.7z
		 M249.8,117.6h0.8c0,0.6,0,1.1-0.1,1.7c0,0,0,0.1,0,0.2c0,0.2-0.1,0.3-0.1,0.4c2.1,0.8,4.3,1.7,6.7,2.6l-0.5,0.8
		c-2.4-1.1-4.6-2-6.6-2.8c-0.7,1.2-2.9,2.1-6.5,2.8c-0.1-0.3-0.3-0.6-0.4-0.9c4.1-0.5,6.4-1.6,6.7-3.3
		C249.8,118.7,249.8,118.2,249.8,117.6z M245.8,111c-0.8-0.6-1.6-1.3-2.5-1.9l0.6-0.6c0.8,0.5,1.6,1.1,2.5,1.8L245.8,111z
		 M245,115.9h10.5v4.6h-0.8v-3.8h-8.8v3.8H245V115.9z M247.5,115.3c-0.2-0.3-0.3-0.5-0.5-0.8c3.2-0.7,4.9-2.1,5.1-4.2h-2.5
		c-0.4,0.7-1,1.4-1.6,2.1c-0.2-0.2-0.5-0.4-0.7-0.6c1.1-1.1,1.9-2.4,2.5-3.8l0.8,0.2c-0.2,0.5-0.4,0.9-0.6,1.3h7.1v0.8l-0.9,1.9
		c-0.2-0.1-0.5-0.2-0.8-0.3l0.9-1.7H253c0,0.2-0.1,0.3-0.1,0.4c0.8,2.1,2.4,3.3,4.9,3.8c-0.2,0.3-0.3,0.5-0.5,0.8
		c-2.5-0.7-4.1-1.9-4.7-3.6C252,113.3,250.3,114.5,247.5,115.3z"/>
	<path class="st7" d="M260.2,114.5h7.6c0.6-0.9,1.2-1.9,1.9-3l0.8,0.4c-0.5,0.8-1.1,1.7-1.7,2.6h4.6v0.8h-12.2v1.2
		c0.1,2.8-0.5,5.1-1.9,6.7c-0.3-0.3-0.5-0.5-0.7-0.6c0.6-0.8,1.1-1.6,1.3-2.5c0.3-0.9,0.4-2.1,0.4-3.6L260.2,114.5L260.2,114.5z
		 M265.8,108.5l0.8-0.2c0.3,0.7,0.5,1.3,0.6,1.8h6.5v0.8h-14.8v-0.8h7.4c-0.1-0.3-0.3-0.8-0.5-1.5
		C265.8,108.5,265.8,108.5,265.8,108.5z M262.5,111.9l0.7-0.5c0.5,0.6,1.1,1.4,1.8,2.3l-0.8,0.5C263.6,113.5,263,112.7,262.5,111.9z
		"/>
	<path class="st7" d="M277.6,108.2l0.8,0.2c-0.3,0.5-0.5,1-0.7,1.3h4.7v0.7h-5.2c-0.5,0.7-1.2,1.4-1.9,2c-0.1-0.2-0.3-0.4-0.6-0.6
		C276,110.8,276.9,109.6,277.6,108.2z M281.6,111.8l0.7-0.3c0,0,0,0.1,0.1,0.2c0.2,0.5,0.4,0.9,0.6,1.2h6.3v2.2h-0.8v-1.4h-12.3v1.5
		h-0.8V113h6.8C281.9,112.5,281.8,112.1,281.6,111.8z M277.1,115h10.2v3.1h-9.4v1.4h9.7v3.9h-0.8v-0.6h-8.9v0.7h-0.8L277.1,115
		L277.1,115z M277.9,115.7v1.7h8.6v-1.7H277.9z M286.9,120.2H278v1.9h8.9V120.2z M279.5,112.3c-0.5-0.5-0.9-1-1.3-1.4l0.6-0.4
		c0.5,0.4,0.9,0.9,1.4,1.4L279.5,112.3z M284.6,108.2l0.8,0.1c-0.2,0.5-0.4,0.9-0.6,1.3h5.1v0.7h-5.5c-0.3,0.5-0.7,0.9-1.1,1.4
		c-0.2-0.2-0.4-0.4-0.7-0.5C283.5,110.3,284.2,109.3,284.6,108.2z M287.2,111.9l-0.6,0.5c-0.4-0.5-0.9-1-1.3-1.4l0.5-0.4
		C286.3,111,286.8,111.4,287.2,111.9z"/>
	<path class="st7" d="M290.9,114.9h2v-4.5h-2.1v-0.8h5v0.8h-2.1v4.5h2v0.7h-2v4.7c0.7-0.2,1.4-0.3,2.1-0.5c0,0.3,0,0.6,0,0.9
		c-1.7,0.4-3.4,0.7-5,1.1l-0.2-0.9c0.9-0.2,1.6-0.3,2.3-0.5v-4.9h-2L290.9,114.9L290.9,114.9z M296.5,118.7h4v-2.2h-3.6v-7.4h8.1
		v7.4h-3.6v2.2h4v0.7h-4v2.6h4.6v0.8h-10.4V122h4.9v-2.6h-4V118.7z M297.6,109.8v2.6h2.8v-2.6H297.6z M297.6,113.1v2.6h2.8v-2.6
		H297.6z M304.1,109.8h-2.8v2.6h2.8V109.8z M301.3,113.1v2.6h2.8v-2.6H301.3z"/>
	<path class="st7" d="M307.7,109h13.5v0.8h-6.3v6.9h7v0.9h-7v5.8H314v-5.8h-7v-0.9h7v-6.9h-6.3L307.7,109L307.7,109z M308.5,111.7
		l0.7-0.5c0.9,1.2,1.9,2.4,2.8,3.7l-0.8,0.5C310.5,114.4,309.6,113.1,308.5,111.7z M317.2,115.6l-0.7-0.6c1.1-1.2,2.1-2.4,3-3.7
		l0.8,0.5C319.3,113,318.3,114.3,317.2,115.6z"/>
	<path class="st7" d="M337.3,115.5c-0.5-0.6-1-1-1.3-1.3c-4.6,0.1-8.2,0.2-10.8,0.4c-0.6,0-1.1,0.1-1.5,0.2l-0.4-0.9
		c0.4-0.2,0.8-0.4,1.2-0.7c1.8-1.5,3.5-3.2,4.9-5l0.9,0.5c-1.4,1.6-3.2,3.3-5.2,5.1c1.2,0,3.3-0.1,6.1-0.2c1.3,0,2.7-0.1,4.1-0.1
		c-0.5-0.6-1.4-1.4-2.5-2.5l0.7-0.5c1.4,1.3,2.9,2.8,4.6,4.5L337.3,115.5z M335.9,116.6v6.8H335v-1h-9.1v1H325v-6.8H335.9z
		 M325.9,117.4v4.1h9.1v-4.1H325.9z"/>
</g>
<ellipse id="椭圆_11-2" class="st8" cx="289.8" cy="55.1" rx="18.1" ry="3.6"/>
<path id="矩形_46-2" class="st9" d="M247.6,56.3L291,71.6V86l-43.4-15.2V56.3z"/>
<path id="矩形_46_拷贝-2" class="st9" d="M327.9,57.1l-37.7,14.5V86l37.7-14.4V57.1z"/>
<path id="圆角矩形_1-3" class="st4" d="M249.5,245l39.1-10c1.7-0.4,3.4-0.3,5,0.1l32.8,10.6c1.4,0.5,1.6,1.2,0.4,1.7L292.5,260
	c-2,0.6-4.1,0.6-6.1,0.1l-37.7-13.2C247.2,246.3,247.5,245.5,249.5,245z"/>
<path id="圆角矩形_1_拷贝-3" class="st5" d="M248.7,265.9l39.1-10c1.7-0.4,3.4-0.3,5,0.1l32.8,10.6c1.4,0.5,1.6,1.2,0.4,1.7
	l-34.2,12.6c-2,0.6-4.1,0.6-6.1,0.1L248,267.8C246.4,267.2,246.7,266.4,248.7,265.9z"/>
<g id="资产管理平台-3" class="st6">
	<path class="st7" d="M242.6,304.4c1.3-0.9,2.6-1.8,3.8-2.8c0.1,0.1,0.2,0.4,0.4,0.8c-1.2,0.9-2.4,1.8-3.6,2.8L242.6,304.4z
		 M249.8,307.3h0.8c0,0.6,0,1.1-0.1,1.7c0,0,0,0.1,0,0.2c0,0.2-0.1,0.3-0.1,0.4c2.1,0.8,4.3,1.7,6.7,2.6l-0.5,0.8
		c-2.4-1.1-4.6-2-6.6-2.8c-0.7,1.2-2.9,2.1-6.5,2.8c-0.1-0.3-0.3-0.6-0.4-0.9c4.1-0.5,6.4-1.6,6.7-3.3
		C249.8,308.5,249.8,308,249.8,307.3z M245.8,300.7c-0.8-0.6-1.6-1.3-2.5-1.9l0.6-0.6c0.8,0.5,1.6,1.1,2.5,1.8L245.8,300.7z
		 M245,305.6h10.5v4.6h-0.8v-3.8h-8.8v3.8H245V305.6z M247.5,305.1c-0.2-0.3-0.3-0.5-0.5-0.8c3.2-0.7,4.9-2.1,5.1-4.2h-2.5
		c-0.4,0.7-1,1.4-1.6,2.1c-0.2-0.2-0.5-0.4-0.7-0.6c1.1-1.1,1.9-2.4,2.5-3.8l0.8,0.2c-0.2,0.5-0.4,0.9-0.6,1.3h7.1v0.8l-0.9,1.9
		c-0.2-0.1-0.5-0.2-0.8-0.3l0.9-1.7H253c0,0.2-0.1,0.3-0.1,0.4c0.8,2.1,2.4,3.3,4.9,3.8c-0.2,0.3-0.3,0.5-0.5,0.8
		c-2.5-0.7-4.1-1.9-4.7-3.6C252,303,250.3,304.2,247.5,305.1z"/>
	<path class="st7" d="M260.2,304.3h7.6c0.6-0.9,1.2-1.9,1.9-3l0.8,0.4c-0.5,0.8-1.1,1.7-1.7,2.6h4.6v0.8h-12.2v1.2
		c0.1,2.8-0.5,5.1-1.9,6.7c-0.3-0.3-0.5-0.5-0.7-0.6c0.6-0.8,1.1-1.6,1.3-2.5c0.3-0.9,0.4-2.1,0.4-3.6L260.2,304.3L260.2,304.3z
		 M265.8,298.2l0.8-0.2c0.3,0.7,0.5,1.3,0.6,1.8h6.5v0.8h-14.8v-0.8h7.4C266.2,299.5,266,299,265.8,298.2L265.8,298.2z M262.5,301.7
		l0.7-0.5c0.5,0.6,1.1,1.4,1.8,2.3l-0.8,0.5C263.6,303.2,263,302.4,262.5,301.7z"/>
	<path class="st7" d="M277.6,297.9l0.8,0.2c-0.3,0.5-0.5,1-0.7,1.3h4.7v0.7h-5.2c-0.5,0.7-1.2,1.4-1.9,2c-0.1-0.2-0.3-0.4-0.6-0.6
		C276,300.5,276.9,299.3,277.6,297.9z M281.6,301.5l0.7-0.3c0,0,0,0.1,0.1,0.2c0.2,0.5,0.4,0.9,0.6,1.2h6.3v2.2h-0.8v-1.4h-12.3v1.5
		h-0.8v-2.2h6.8C281.9,302.2,281.8,301.9,281.6,301.5z M277.1,304.7h10.2v3.1h-9.4v1.4h9.7v3.9h-0.8v-0.6h-8.9v0.7h-0.8L277.1,304.7
		L277.1,304.7z M277.9,305.4v1.7h8.6v-1.7H277.9z M286.9,309.9H278v1.9h8.9V309.9z M279.5,302.1c-0.5-0.5-0.9-1-1.3-1.4l0.6-0.4
		c0.5,0.4,0.9,0.9,1.4,1.4L279.5,302.1z M284.6,297.9l0.8,0.1c-0.2,0.5-0.4,0.9-0.6,1.3h5.1v0.7h-5.5c-0.3,0.5-0.7,0.9-1.1,1.4
		c-0.2-0.2-0.4-0.4-0.7-0.5C283.5,300,284.2,299,284.6,297.9z M287.2,301.6l-0.6,0.5c-0.4-0.5-0.9-1-1.3-1.4l0.5-0.4
		C286.3,300.7,286.8,301.1,287.2,301.6z"/>
	<path class="st7" d="M290.9,304.7h2v-4.5h-2.1v-0.8h5v0.8h-2.1v4.5h2v0.7h-2v4.7c0.7-0.2,1.4-0.3,2.1-0.5c0,0.3,0,0.6,0,0.9
		c-1.7,0.4-3.4,0.7-5,1.1l-0.2-0.9c0.9-0.2,1.6-0.3,2.3-0.5v-4.9h-2L290.9,304.7L290.9,304.7z M296.5,308.4h4v-2.2h-3.6v-7.4h8.1
		v7.4h-3.6v2.2h4v0.7h-4v2.6h4.6v0.8h-10.4v-0.8h4.9v-2.6h-4V308.4z M297.6,299.6v2.6h2.8v-2.6H297.6z M297.6,302.9v2.6h2.8v-2.6
		H297.6z M304.1,299.6h-2.8v2.6h2.8V299.6z M301.3,302.9v2.6h2.8v-2.6H301.3z"/>
	<path class="st7" d="M307.7,298.7h13.5v0.8h-6.3v6.9h7v0.9h-7v5.8H314v-5.8h-7v-0.9h7v-6.9h-6.3L307.7,298.7L307.7,298.7z
		 M308.5,301.5l0.7-0.5c0.9,1.2,1.9,2.4,2.8,3.7l-0.8,0.5C310.5,304.1,309.6,302.8,308.5,301.5z M317.2,305.3l-0.7-0.6
		c1.1-1.2,2.1-2.4,3-3.7l0.8,0.5C319.3,302.7,318.3,304,317.2,305.3z"/>
	<path class="st7" d="M337.3,305.2c-0.5-0.6-1-1-1.3-1.3c-4.6,0.1-8.2,0.2-10.8,0.4c-0.6,0-1.1,0.1-1.5,0.2l-0.4-0.9
		c0.4-0.2,0.8-0.4,1.2-0.7c1.8-1.5,3.5-3.2,4.9-5l0.9,0.5c-1.4,1.6-3.2,3.3-5.2,5.1c1.2,0,3.3-0.1,6.1-0.2c1.3,0,2.7-0.1,4.1-0.1
		c-0.5-0.6-1.4-1.4-2.5-2.5l0.7-0.5c1.4,1.3,2.9,2.8,4.6,4.5L337.3,305.2z M335.9,306.3v6.8H335v-1h-9.1v1H325v-6.8H335.9z
		 M325.9,307.1v4.1h9.1v-4.1H325.9z"/>
</g>
<ellipse id="椭圆_11-3" class="st8" cx="289.8" cy="244.8" rx="18.1" ry="3.6"/>
<path id="矩形_46-3" class="st9" d="M247.6,246l43.4,15.3v14.5l-43.4-15.3V246z"/>
<path id="矩形_46_拷贝-3" class="st9" d="M327.9,246.8l-37.7,14.5v14.5l37.7-14.5V246.8z"/>
<path id="圆角矩形_1-4" class="st4" d="M9.5,55.3l39.1-10.1c1.7-0.3,3.4-0.3,5,0.2L86.3,56c1.4,0.5,1.6,1.2,0.4,1.7L52.5,70.2
	c-2,0.7-4.1,0.7-6.1,0.1L8.7,57.1C7.2,56.6,7.5,55.8,9.5,55.3z"/>
<path id="圆角矩形_1_拷贝-4" class="st5" d="M8.7,76.2l39.1-10.1c1.7-0.3,3.4-0.3,5,0.2l32.8,10.6c1.4,0.5,1.6,1.2,0.4,1.7
	L51.7,91.1c-2,0.7-4.1,0.7-6.1,0.1L7.9,78C6.4,77.5,6.7,76.7,8.7,76.2z"/>
<path class="st7" d="M18.8,110v5h4.5v0.8h-4.5v5.7H18v-12.2h5.7v0.8h-4.9V110z"/>
<path class="st7" d="M43.7,121.4l-1.4-3.8H37l-1.4,3.8h-0.9l4.6-12.2h0.8l4.5,12.2H43.7z M40,111.3c-0.1-0.2-0.1-0.3-0.1-0.5
	c0-0.1-0.1-0.3-0.1-0.4l0,0c-0.1,0.4-0.2,0.7-0.3,0.9l-2,5.6h4.7L40,111.3z"/>
<path class="st7" d="M33.7,121c-1,0.4-2,0.6-3.1,0.6c-1.7,0-3-0.6-4.1-1.7s-1.6-2.6-1.6-4.4c0-2,0.6-3.6,1.7-4.7
	c1.1-1.2,2.6-1.8,4.3-1.8c0.9,0,1.8,0.2,2.7,0.5v0.9c-0.9-0.4-1.7-0.6-2.7-0.6c-1.5,0-2.8,0.5-3.7,1.6c-1,1-1.4,2.4-1.4,4.1
	s0.5,3,1.4,3.9c0.9,1,2.1,1.4,3.5,1.4c1.1,0,2.1-0.2,3-0.7C33.7,120.1,33.7,121,33.7,121z"/>
<path class="st7" d="M44.6,122h1.9v-5h11.3v5h1.9v0.8H44.6V122z M45.8,109.2h0.8v6.2h-0.8V109.2z M47.3,117.7v4.3H50v-4.3H47.3z
	 M50.1,108.3v7.8h-0.8v-7.8H50.1z M51.3,115.1c-0.2-0.2-0.4-0.4-0.7-0.5c1.4-1.8,2.6-3.9,3.4-6.3l0.8,0.3c-0.4,1-0.7,1.8-1,2.3h5.6
	v0.8h-6C52.9,112.8,52.2,114,51.3,115.1z M50.8,117.7v4.3h2.7v-4.3H50.8z M54.2,113.1l0.5-0.6c1,0.8,2.1,1.6,3.1,2.5l-0.6,0.6
	C56.2,114.8,55.2,113.9,54.2,113.1z M57,117.7h-2.7v4.3H57V117.7z"/>
<path class="st7" d="M63.5,108.2l0.8,0.2c-0.3,0.5-0.5,1-0.7,1.3h4.7v0.7h-5.2c-0.5,0.7-1.2,1.4-1.9,2c-0.1-0.2-0.3-0.4-0.6-0.6
	C61.9,110.8,62.8,109.6,63.5,108.2z M67.5,111.8l0.7-0.3c0,0,0,0.1,0.1,0.2c0.2,0.5,0.4,0.9,0.6,1.2h6.3v2.2h-0.8v-1.4H62v1.5h-0.8
	V113H68C67.8,112.5,67.7,112.1,67.5,111.8z M63,115h10.2v3.1h-9.4v1.4h9.7v3.9h-0.8v-0.6h-8.9v0.7H63V115z M63.8,115.7v1.7h8.6v-1.7
	H63.8z M72.8,120.2h-8.9v1.9h8.9V120.2z M65.4,112.3c-0.5-0.5-0.9-1-1.3-1.4l0.6-0.4c0.5,0.4,0.9,0.9,1.4,1.4L65.4,112.3z
	 M70.5,108.2l0.8,0.1c-0.2,0.5-0.4,0.9-0.6,1.3h5.1v0.7h-5.5c-0.3,0.5-0.7,0.9-1.1,1.4c-0.2-0.2-0.4-0.4-0.7-0.5
	C69.4,110.3,70.1,109.3,70.5,108.2z M73.1,111.9l-0.6,0.5c-0.4-0.5-0.9-1-1.3-1.4l0.5-0.4C72.2,111,72.7,111.4,73.1,111.9z"/>
<ellipse id="椭圆_11-4" class="st8" cx="49.8" cy="55.1" rx="18.1" ry="3.6"/>
<path id="矩形_46-4" class="st9" d="M7.6,56.3L51,71.6V86L7.6,70.8V56.3z"/>
<path id="矩形_46_拷贝-4" class="st9" d="M87.9,57.1L50.2,71.6V86l37.7-14.4V57.1z"/>
<path id="圆角矩形_1-5" class="st4" d="M9.5,245l39.1-10c1.7-0.4,3.4-0.3,5,0.1l32.8,10.6c1.4,0.5,1.6,1.2,0.4,1.7L52.5,260
	c-2,0.6-4.1,0.6-6.1,0.1L8.7,246.9C7.2,246.3,7.5,245.5,9.5,245z"/>
<path id="圆角矩形_1_拷贝-5" class="st5" d="M8.7,265.9l39.1-10c1.7-0.4,3.4-0.3,5,0.1l32.8,10.6c1.4,0.5,1.6,1.2,0.4,1.7
	l-34.2,12.6c-2,0.6-4.1,0.6-6.1,0.1L7.9,267.8C6.4,267.2,6.7,266.4,8.7,265.9z"/>
<g class="st6">
	<path class="st7" d="M16,299.1h13.7v0.9h-3.2v4.9h3.9v0.9h-3.9v7.2h-0.9v-7.2h-5.3c0,0.2,0,0.4,0,0.6c0,3.1-1.4,5.4-4.1,6.8
		c-0.2-0.3-0.4-0.5-0.6-0.8c1.5-0.9,2.6-1.7,3-2.6c0.5-0.9,0.8-2.2,0.8-3.9h-4.1V305h4.1v-5H16V299.1z M20.3,300v4.9h5.3V300H20.3z"
		/>
	<path class="st7" d="M45.9,313.1c-2.9-0.3-5.3-0.8-7-1.4c-1.8,0.6-4.2,1.1-7.2,1.5c-0.1-0.3-0.2-0.5-0.4-0.8
		c2.5-0.3,4.6-0.7,6.4-1.2c-1.4-0.6-2.6-1.3-3.7-2.3h-1.3v-0.7h11.4v0.8c-1.3,0.9-2.7,1.7-4,2.2c1.5,0.4,3.6,0.8,6.3,1
		C46.1,312.5,46,312.8,45.9,313.1z M32.1,304.1h13.4v3.1H32.1V304.1z M32.9,304.7v1.8h3.4v-1.8H32.9z M33.5,298.6H44v4.3H33.5V298.6
		z M34.3,299.3v1.2h8.9v-1.2H34.3z M34.3,301.1v1.2h8.9v-1.2H34.3z M42.9,308.9h-7.8c1.2,0.9,2.4,1.5,3.7,1.9
		C40.2,310.4,41.6,309.8,42.9,308.9z M37,304.7v1.8h3.4v-1.8H37z M44.7,304.7h-3.4v1.8h3.4V304.7z"/>
	<path class="st7" d="M47.3,311.7h1.9v-5h11.3v5h1.9v0.8H47.3V311.7z M48.6,298.9h0.8v6.2h-0.8V298.9z M50,307.5v4.3h2.7v-4.3H50z
		 M52.9,298v7.8h-0.8V298H52.9z M54.1,304.8c-0.2-0.2-0.4-0.4-0.7-0.5c1.4-1.8,2.6-3.9,3.4-6.3l0.8,0.3c-0.4,1-0.7,1.8-1,2.3h5.6
		v0.8h-6C55.6,302.5,54.9,303.7,54.1,304.8z M53.5,307.5v4.3h2.7v-4.3H53.5z M57,302.9l0.5-0.6c1,0.8,2.1,1.6,3.1,2.5l-0.6,0.6
		C59,304.5,58,303.7,57,302.9z M59.7,307.5H57v4.3h2.7V307.5z"/>
	<path class="st7" d="M66.2,297.9l0.8,0.2c-0.3,0.5-0.5,1-0.7,1.3H71v0.7h-5.2c-0.5,0.7-1.2,1.4-1.9,2c-0.1-0.2-0.3-0.4-0.6-0.6
		C64.6,300.5,65.6,299.3,66.2,297.9z M70.2,301.5l0.7-0.3c0,0,0,0.1,0.1,0.2c0.2,0.5,0.4,0.9,0.6,1.2h6.3v2.2H77v-1.4H64.8v1.5H64
		v-2.2h6.8C70.6,302.2,70.4,301.9,70.2,301.5z M65.8,304.7H76v3.1h-9.4v1.4h9.7v3.9h-0.8v-0.6h-8.9v0.7h-0.8L65.8,304.7L65.8,304.7z
		 M66.6,305.4v1.7h8.6v-1.7H66.6z M75.5,309.9h-8.9v1.9h8.9V309.9z M68.2,302.1c-0.5-0.5-0.9-1-1.3-1.4l0.6-0.4
		c0.5,0.4,0.9,0.9,1.4,1.4L68.2,302.1z M73.2,297.9L74,298c-0.2,0.5-0.4,0.9-0.6,1.3h5.1v0.7H73c-0.3,0.5-0.7,0.9-1.1,1.4
		c-0.2-0.2-0.4-0.4-0.7-0.5C72.2,300,72.8,299,73.2,297.9z M75.8,301.6l-0.6,0.5c-0.4-0.5-0.9-1-1.3-1.4l0.5-0.4
		C75,300.7,75.4,301.1,75.8,301.6z"/>
</g>
<g class="st6">
	<path class="st7" d="M3,328.9l0.6-0.5c0.6,0.6,1.1,1.1,1.5,1.6l-0.5,0.4h3.6c0.6-0.7,1.1-1.3,1.5-1.9l0.8,0.4
		c-0.5,0.6-0.9,1.1-1.3,1.5h4.5v0.7H8.9v3.6h5.3v0.7h-15v-0.7h5.3v-3.6h-4.8v-0.7h4.7C3.9,329.9,3.5,329.4,3,328.9z M0.7,332.2
		l0.6-0.5c0.7,0.7,1.3,1.2,1.7,1.7L2.4,334C2,333.5,1.4,332.9,0.7,332.2z M1.4,337H12v6.6h-0.9v-0.7H2.3v0.7H1.4V337z M2.3,337.8
		v1.8h8.8v-1.8H2.3z M2.3,340.3v1.9h8.8v-1.9H2.3z M5.3,331.1v3.6H8v-3.6H5.3z M10.8,334l-0.6-0.5c0.7-0.6,1.2-1.2,1.7-1.7l0.7,0.5
		C12.1,332.9,11.5,333.5,10.8,334z"/>
	<path class="st7" d="M15.7,334.1c-0.1-0.2-0.3-0.4-0.5-0.8c1.7-1.2,3.3-2.8,4.8-4.9l0.8,0.4c-0.7,0.9-1.3,1.7-1.9,2.3v5.7H18V332
		C17.3,332.9,16.5,333.5,15.7,334.1z M22.3,336.8h0.9v2.1h7v0.8h-7v3.9h-0.9v-3.9h-7v-0.8h7V336.8z M20.3,334.8
		c-0.1-0.2-0.3-0.5-0.5-0.8c1.4-0.4,2.6-0.9,3.7-1.4v-3.9h0.9v3.5c1.5-0.7,2.9-1.6,4.4-2.6l0.6,0.6c-1.6,1.1-3.2,2.1-4.9,2.9v1.2
		c0,0.5,0.1,0.9,0.3,1.1c0.2,0.2,0.6,0.3,1.2,0.3h1.6c1,0,1.5-0.3,1.6-1.1c0.1-0.4,0.2-1,0.3-1.6c0.4,0.2,0.7,0.3,0.8,0.3
		c-0.1,0.7-0.2,1.3-0.3,1.8c-0.2,1-0.9,1.4-2.2,1.4h-2c-1.5,0.1-2.3-0.6-2.2-2v-0.9C22.4,334,21.3,334.4,20.3,334.8z"/>
	<path class="st7" d="M31.8,334.8h4.7v0.9c-0.8,2.7-2.4,4.9-4.7,6.6c-0.2-0.3-0.4-0.5-0.7-0.8c2.3-1.4,3.7-3.4,4.4-5.9h-3.8
		L31.8,334.8L31.8,334.8z M39.5,341.5c0.1,1.3-0.6,2-2,2c-0.3,0-0.5,0-0.8,0c-0.1,0-0.3,0-0.4,0c-0.1,0-0.3,0-0.6,0
		c0-0.3-0.1-0.6-0.2-0.9c0.6,0,1.2,0,1.9,0c0.5,0,0.8-0.1,1-0.3c0.2-0.2,0.3-0.5,0.3-1v-9h-5.4v-0.8h6.2v0.7c0.5,1.3,1,2.5,1.5,3.5
		c1.3-1,2.5-2,3.7-3.1l0.6,0.7c-1.3,1.1-2.6,2.1-4,3.1c1.1,1.8,2.7,3.4,4.9,4.8c-0.2,0.3-0.5,0.5-0.7,0.8c-3.2-2.3-5.3-4.9-6.2-7.9
		v7.4H39.5z M36.2,329.2l0.4-0.7c1.6,0.5,3.2,1,4.8,1.5l-0.4,0.8C39.4,330.2,37.8,329.7,36.2,329.2z"/>
	<path class="st7" d="M54,342.5c0.7,0,1.4,0,2.1,0c0.7,0,1.4,0,2.2,0c1.4,0,2.8,0,4.2-0.1c-0.1,0.3-0.2,0.6-0.3,0.9
		c-2.4,0-4.1,0-5.2,0c-1.3,0-2.3,0-3.1,0c-2,0-3.4-0.6-4.3-2c-0.6,0.5-1.2,1.3-1.8,2.2l-0.6-0.7c0.8-0.9,1.4-1.7,2-2.2V335h-1.8
		v-0.8H50v6.5C50.8,341.9,52.1,342.5,54,342.5z M49.8,332.1c-0.7-0.9-1.3-1.8-1.9-2.6l0.7-0.4c0.7,0.9,1.4,1.7,2,2.6L49.8,332.1z
		 M52.5,332.9h3.3l0.4-1.6h-4.5v-0.7H55c-0.5-0.6-0.9-1.1-1.4-1.6l0.6-0.5c0.3,0.3,0.8,0.8,1.4,1.5c0.1,0.1,0.1,0.1,0.1,0.2
		l-0.6,0.5h2.8l1.4-2.1l0.8,0.4l-1.3,1.7h3.5v0.7H57l-0.4,1.6h4.6v7.8h-8.7C52.5,340.8,52.5,332.9,52.5,332.9z M53.3,333.6v1.6h7
		v-1.6H53.3z M53.3,336v1.6h7V336H53.3z M53.3,338.3v1.7h7v-1.7H53.3z"/>
	<path class="st7" d="M70,328.7l0.8-0.3c0.4,0.6,0.7,1.1,0.9,1.6l-0.7,0.3h6.9v2.6h-0.8v-1.8H64.8v1.8H64v-2.6h7
		C70.7,329.9,70.4,329.3,70,328.7z M70.5,331.9h0.8v1.7h5.2v7.4h-0.8v-0.8h-4.3v3.4h-0.8v-3.4h-4.3v0.8h-0.8v-7.4h5.2v-1.7H70.5z
		 M66.2,334.4v2.2h4.3v-2.2H66.2z M66.2,337.3v2.2h4.3v-2.2H66.2z M75.7,334.4h-4.3v2.2h4.3V334.4z M71.3,337.3v2.2h4.3v-2.2H71.3z"
		/>
	<path class="st7" d="M82.5,341.7c1.1-0.7,2.1-1.4,2.9-2c0.1,0.3,0.2,0.6,0.3,0.9c-1,0.6-2,1.3-3.2,2.1c-0.3,0.2-0.5,0.4-0.7,0.7
		l-0.7-0.7c0.2-0.2,0.3-0.4,0.4-0.6s0.1-0.4,0.1-0.7v-6.7h-2.2v-0.8h3.1L82.5,341.7L82.5,341.7z M83.2,331.9c-1-1-1.8-1.9-2.5-2.5
		l0.7-0.6c0.9,0.8,1.8,1.7,2.6,2.5L83.2,331.9z M89,328.6h0.9v5.4h4.6v0.8h-4.6v8.9H89v-8.9h-4.6V334H89V328.6z"/>
</g>
<ellipse id="椭圆_11-5" class="st8" cx="49.8" cy="244.8" rx="18.1" ry="3.6"/>
<path id="矩形_46-5" class="st9" d="M7.6,246L51,261.3v14.5L7.6,260.5V246z"/>
<path id="矩形_46_拷贝-5" class="st9" d="M87.9,246.8l-37.7,14.5v14.5l37.7-14.5V246.8z"/>
<path id="圆角矩形_1-6" class="st4" d="M856.6,145.3l39.1-10c1.7-0.4,3.4-0.3,5,0.1l32.8,10.6c1.4,0.5,1.6,1.2,0.4,1.7
	l-34.2,12.6c-2,0.6-4.1,0.7-6.1,0.1l-37.7-13.2C854.3,146.6,854.6,145.8,856.6,145.3z"/>
<path id="圆角矩形_1_拷贝-6" class="st5" d="M855.8,166.2l39.1-10c1.6-0.4,3.4-0.3,5,0.1l32.8,10.6c1.4,0.5,1.6,1.2,0.4,1.7
	l-34.2,12.6c-2,0.6-4.1,0.7-6.1,0.1L855,168.1C853.5,167.5,853.8,166.7,855.8,166.2z"/>
<path class="st7" d="M865.4,200.1v5h4.5v0.8h-4.5v5.7h-0.8v-12.2h5.7v0.8h-4.9V200.1z"/>
<path class="st7" d="M880.7,211.1c-1,0.4-2,0.6-3.1,0.6c-1.7,0-3-0.6-4.1-1.7c-1-1.1-1.6-2.6-1.6-4.4c0-2,0.6-3.6,1.7-4.7
	c1.1-1.2,2.6-1.8,4.3-1.8c0.9,0,1.8,0.2,2.7,0.5v0.9c-0.9-0.4-1.7-0.6-2.7-0.6c-1.5,0-2.8,0.5-3.7,1.6s-1.4,2.4-1.4,4.1
	c0,1.7,0.5,3,1.4,3.9s2.1,1.4,3.5,1.4c1.1,0,2.1-0.2,3-0.7L880.7,211.1L880.7,211.1z"/>
<path class="st7" d="M891.3,211.5l-1.4-3.8h-5.3l-1.4,3.8h-0.9l4.6-12.2h0.8l4.5,12.2H891.3z M887.6,201.3c-0.1-0.2-0.1-0.3-0.1-0.5
	c0-0.1-0.1-0.3-0.1-0.4l0,0c-0.1,0.4-0.2,0.7-0.3,0.9l-2,5.6h4.7L887.6,201.3z"/>
<path class="st7" d="M893.3,212h1.9v-5h11.3v5h1.9v0.8h-15.1L893.3,212L893.3,212z M894.5,199.2h0.8v6.2h-0.8V199.2z M896,207.8v4.3
	h2.7v-4.3H896z M898.8,198.3v7.8H898v-7.8H898.8z M900,205.1c-0.2-0.2-0.4-0.4-0.7-0.5c1.4-1.8,2.6-3.9,3.4-6.3l0.8,0.3
	c-0.4,1-0.7,1.8-1,2.3h5.6v0.8h-6C901.6,202.8,900.9,204,900,205.1z M899.5,207.8v4.3h2.7v-4.3H899.5z M902.9,203.2l0.5-0.6
	c1,0.8,2.1,1.6,3.1,2.5l-0.6,0.6C904.9,204.8,903.9,204,902.9,203.2z M905.7,207.8H903v4.3h2.7V207.8z"/>
<path class="st7" d="M912.2,198.2l0.8,0.2c-0.3,0.5-0.5,1-0.7,1.3h4.7v0.7h-5.2c-0.5,0.7-1.2,1.4-1.9,2c-0.1-0.2-0.3-0.4-0.6-0.6
	C910.6,200.8,911.5,199.6,912.2,198.2z M916.2,201.8l0.7-0.3c0,0,0,0.1,0.1,0.2c0.2,0.5,0.4,0.9,0.6,1.2h6.3v2.2H923v-1.4h-12.3v1.5
	h-0.8V203h6.8C916.5,202.5,916.4,202.2,916.2,201.8z M911.7,205h10.2v3.1h-9.4v1.4h9.7v3.9h-0.8v-0.6h-8.9v0.7h-0.8V205z
	 M912.5,205.7v1.7h8.6v-1.7H912.5z M921.5,210.2h-8.9v1.9h8.9V210.2z M914.1,202.4c-0.5-0.5-0.9-1-1.3-1.4l0.6-0.4
	c0.5,0.4,0.9,0.9,1.4,1.4L914.1,202.4z M919.2,198.2l0.8,0.1c-0.2,0.5-0.4,0.9-0.6,1.3h5.1v0.7H919c-0.3,0.5-0.7,0.9-1.1,1.4
	c-0.2-0.2-0.4-0.4-0.7-0.5C918.1,200.3,918.8,199.3,919.2,198.2z M921.8,201.9l-0.6,0.5c-0.4-0.5-0.9-1-1.3-1.4l0.5-0.4
	C920.9,201,921.4,201.5,921.8,201.9z"/>
<g class="st6">
	<path class="st7" d="M850.2,229.2l0.6-0.5c0.6,0.6,1.1,1.1,1.5,1.6l-0.5,0.4h3.6c0.6-0.7,1.1-1.3,1.5-1.9l0.8,0.4
		c-0.5,0.6-0.9,1.1-1.3,1.5h4.5v0.7H856v3.6h5.3v0.7h-15V235h5.3v-3.6h-4.8v-0.7h4.7C851.1,230.2,850.6,229.7,850.2,229.2z
		 M847.9,232.5l0.6-0.5c0.7,0.7,1.3,1.2,1.7,1.7l-0.7,0.5C849.1,233.8,848.6,233.2,847.9,232.5z M848.5,237.3h10.6v6.6h-0.9v-0.7
		h-8.8v0.7h-0.9L848.5,237.3L848.5,237.3z M849.4,238.1v1.8h8.8v-1.8H849.4z M849.4,240.6v1.9h8.8v-1.9H849.4z M852.5,231.4v3.6h2.7
		v-3.6H852.5z M858,234.3l-0.6-0.5c0.7-0.6,1.2-1.2,1.7-1.7l0.7,0.5C859.2,233.2,858.6,233.8,858,234.3z"/>
	<path class="st7" d="M862.9,234.4c-0.1-0.2-0.3-0.4-0.5-0.8c1.7-1.2,3.3-2.8,4.8-4.9l0.8,0.4c-0.7,0.9-1.3,1.7-1.9,2.3v5.7h-0.9
		v-4.8C864.4,233.2,863.7,233.9,862.9,234.4z M869.4,237.2h0.9v2.1h7v0.8h-7v3.9h-0.9v-3.9h-7v-0.8h7V237.2z M867.5,235.1
		c-0.1-0.2-0.3-0.5-0.5-0.8c1.4-0.4,2.6-0.9,3.7-1.4V229h0.9v3.5c1.5-0.7,2.9-1.6,4.4-2.6l0.6,0.6c-1.6,1.1-3.2,2.1-4.9,2.9v1.2
		c0,0.5,0.1,0.9,0.3,1.1c0.2,0.2,0.6,0.3,1.2,0.3h1.6c1,0,1.5-0.3,1.6-1.1c0.1-0.4,0.2-1,0.3-1.6c0.4,0.2,0.7,0.3,0.8,0.3
		c-0.1,0.7-0.2,1.3-0.3,1.8c-0.2,1-0.9,1.4-2.2,1.4h-2c-1.5,0.1-2.3-0.6-2.2-2v-0.9C869.6,234.3,868.5,234.7,867.5,235.1z"/>
	<path class="st7" d="M878.9,235.1h4.7v0.9c-0.8,2.7-2.4,4.9-4.7,6.6c-0.2-0.3-0.4-0.5-0.7-0.8c2.3-1.4,3.7-3.4,4.4-5.9h-3.8
		L878.9,235.1L878.9,235.1z M886.6,241.8c0.1,1.3-0.6,2-2,2c-0.3,0-0.5,0-0.8,0c-0.1,0-0.3,0-0.4,0c-0.1,0-0.3,0-0.6,0
		c0-0.3-0.1-0.6-0.2-0.9c0.6,0,1.2,0,1.9,0c0.5,0,0.8-0.1,1-0.3s0.3-0.5,0.3-1v-9h-5.4V232h6.2v0.7c0.5,1.3,1,2.5,1.5,3.5
		c1.3-1,2.5-2,3.7-3.1l0.6,0.7c-1.3,1.1-2.6,2.1-4,3.1c1.1,1.8,2.7,3.4,4.9,4.8c-0.2,0.3-0.5,0.5-0.7,0.8c-3.2-2.3-5.3-4.9-6.2-7.9
		v7.2H886.6z M883.3,229.5l0.4-0.7c1.6,0.5,3.2,1,4.8,1.5l-0.4,0.8C886.5,230.5,885,230,883.3,229.5z"/>
	<path class="st7" d="M901.1,242.8c0.7,0,1.4,0,2.1,0c0.7,0,1.4,0,2.2,0c1.4,0,2.8,0,4.2-0.1c-0.1,0.3-0.2,0.6-0.3,0.9
		c-2.4,0-4.1,0-5.2,0c-1.3,0-2.3,0-3.1,0c-2,0-3.4-0.6-4.3-2c-0.6,0.5-1.2,1.3-1.8,2.2l-0.6-0.7c0.8-0.9,1.4-1.7,2-2.2v-5.6h-1.8
		v-0.8h2.7v6.5C897.9,242.2,899.2,242.8,901.1,242.8z M896.9,232.4c-0.7-0.9-1.3-1.8-1.9-2.6l0.7-0.4c0.7,0.9,1.4,1.7,2,2.6
		L896.9,232.4z M899.6,233.3h3.3l0.4-1.6h-4.5V231h3.4c-0.5-0.6-0.9-1.1-1.4-1.6l0.6-0.5c0.3,0.3,0.8,0.8,1.4,1.5
		c0.1,0.1,0.1,0.1,0.1,0.2l-0.6,0.5h2.8l1.4-2.1l0.8,0.4l-1.3,1.7h3.5v0.7h-5.3l-0.4,1.6h4.6v7.8h-8.7L899.6,233.3L899.6,233.3z
		 M900.4,234v1.6h7V234H900.4z M900.4,236.3v1.6h7v-1.6H900.4z M900.4,238.7v1.7h7v-1.7H900.4z"/>
	<path class="st7" d="M917.2,229l0.8-0.3c0.4,0.6,0.7,1.1,0.9,1.6l-0.7,0.3h6.9v2.6h-0.8v-1.8H912v1.8h-0.8v-2.6h7
		C917.8,230.2,917.5,229.6,917.2,229z M917.6,232.2h0.8v1.7h5.2v7.4h-0.8v-0.8h-4.3v3.4h-0.8v-3.4h-4.3v0.8h-0.8v-7.4h5.2v-1.7
		H917.6z M913.3,234.7v2.2h4.3v-2.2H913.3z M913.3,237.6v2.2h4.3v-2.2H913.3z M922.8,234.7h-4.3v2.2h4.3V234.7z M918.5,237.6v2.2
		h4.3v-2.2H918.5z"/>
	<path class="st7" d="M929.6,242c1.1-0.7,2.1-1.4,2.9-2c0.1,0.3,0.2,0.6,0.3,0.9c-1,0.6-2,1.3-3.2,2.1c-0.3,0.2-0.5,0.4-0.7,0.7
		l-0.7-0.7c0.2-0.2,0.3-0.4,0.4-0.6c0.1-0.2,0.1-0.4,0.1-0.7V235h-2.2v-0.8h3.1L929.6,242L929.6,242z M930.4,232.2
		c-1-1-1.8-1.9-2.5-2.5l0.7-0.6c0.9,0.8,1.8,1.7,2.6,2.5L930.4,232.2z M936.2,228.9h0.9v5.4h4.6v0.8h-4.6v8.9h-0.9v-8.9h-4.6v-0.8
		h4.6V228.9z"/>
</g>
<path id="椭圆_11-6" class="st8" d="M896.9,141.5c10,0,18.1,1.6,18.1,3.6s-8.1,3.6-18.1,3.6s-18.1-1.6-18.1-3.6
	S887,141.5,896.9,141.5z"/>
<path id="矩形_46-6" class="st9" d="M854.8,146.3l43.4,15.3v14.5l-43.4-15.3V146.3z"/>
<path id="矩形_46_拷贝-6" class="st9" d="M935.1,147.1l-37.7,14.5v14.5l37.7-14.5V147.1z"/>
<rect id="矩形_49" x="87" y="70" class="st0" width="167" height="1"/>
<rect id="矩形_49_拷贝" x="87" y="260" class="st0" width="167" height="1"/>
<g class="st6">
	<path class="st1" d="M28,45h22.5V0H28V45z M42.1,5.6h5.6v5.6h-5.6V5.6z M42.1,16.9h5.6v5.6h-5.6V16.9z M42.1,28.1h5.6v5.6h-5.6
		V28.1z M30.8,5.6h5.6v5.6h-5.6C30.8,11.2,30.8,5.6,30.8,5.6z M30.8,16.9h5.6v5.6h-5.6C30.8,22.5,30.8,16.9,30.8,16.9z M30.8,28.1
		h5.6v5.6h-5.6C30.8,33.7,30.8,28.1,30.8,28.1z M53.3,14.1H73v2.8H53.3V14.1z M53.3,45h5.6V33.8h8.4V45H73V19.7H53.3V45z"/>
</g>
<g class="st6">
	<path class="st1" d="M46.7,224.9h7.6v9.5h-7.6V224.9z"/>
	<path class="st1" d="M45.8,207.9c0,2.6,2.1,4.7,4.7,4.7s4.7-2.1,4.7-4.7s-2.1-4.7-4.7-4.7S45.8,205.4,45.8,207.9z M51.4,208.9h-3.8
		V207h1.9v-2.8h1.9C51.4,204.2,51.4,208.9,51.4,208.9z"/>
	<path class="st1" d="M24,204.1v30.3h15.1v-30.3H24z M30.6,224.1h-3.8v-1.9h3.8V224.1z M30.6,220.3h-3.8v-1.9h3.8V220.3z
		 M30.6,216.4h-3.8v-1.9h3.8V216.4z M30.6,212.6h-3.8v-1.9h3.8V212.6z M30.6,208.9h-3.8V207h3.8V208.9z M36.3,224.1h-3.8v-1.9h3.8
		V224.1z M36.3,220.3h-3.8v-1.9h3.8V220.3z M36.3,216.4h-3.8v-1.9h3.8V216.4z M36.3,212.6h-3.8v-1.9h3.8V212.6z M36.3,208.9h-3.8
		V207h3.8V208.9z"/>
	<path class="st1" d="M77,234.4v-30.3H61.9v30.3H77z M70.4,206.9h3.8v1.9h-3.8V206.9z M70.4,210.8h3.8v1.9h-3.8V210.8z M70.4,214.6
		h3.8v1.9h-3.8V214.6z M70.4,218.4h3.8v1.9h-3.8V218.4z M70.4,222.1h3.8v1.9h-3.8V222.1z M64.7,206.9h3.8v1.9h-3.8V206.9z
		 M64.7,210.8h3.8v1.9h-3.8V210.8z M64.7,214.6h3.8v1.9h-3.8V214.6z M64.7,218.4h3.8v1.9h-3.8V218.4z M64.7,222.1h3.8v1.9h-3.8
		V222.1z"/>
	<path class="st1" d="M41,199.9v34.5h3.8V224c0-0.5,0.4-0.9,0.9-0.9h9.5c0.5,0,0.9,0.4,0.9,0.9v10.4h3.8v-34.5l-9.5-6.9L41,199.9z
		 M57.1,207.9c0,3.7-3,6.6-6.6,6.6s-6.6-3-6.6-6.6s3-6.6,6.6-6.6C54.2,201.4,57.1,204.3,57.1,207.9z"/>
	<path class="st1" d="M50.5,181.4h11.4v5.7H50.5V181.4z"/>
	<path class="st1" d="M50.5,195.6c-0.5,0-0.9-0.4-0.9-0.9v-14.3c0-0.5,0.4-0.9,0.9-0.9s0.9,0.4,0.9,0.9v14.2
		C51.4,195.3,51,195.6,50.5,195.6z"/>
</g>
<g class="st6">
	<path class="st1" d="M307.6,44.5c0.7,0,1.3-0.6,1.3-1.3V21.6c0-0.7-0.6-1.3-1.3-1.3h-8.1v-0.9c0-0.5-0.3-0.9-0.7-1.2l-7.9-4v-2.5
		l5.6-1.9c0.5-0.2,0.9-0.7,0.9-1.2c0-0.6-0.4-1.1-0.9-1.2L290,5.3c-0.4-0.1-0.8-0.1-1.2,0.2c-0.3,0.2-0.5,0.6-0.5,1.1v7.8l-7.9,4
		c-0.4,0.2-0.7,0.7-0.7,1.2v0.9h-8.3c-0.7,0-1.3,0.6-1.3,1.3v21.6c0,0.7,0.6,1.3,1.3,1.3h36.3L307.6,44.5L307.6,44.5z M290.9,9.4V8
		l2.9,0.7L290.9,9.4z M272.6,22.9h7v19h-7V22.9z M282.3,20.3l7.3-3.7l7.3,3.7v21.6h-14.6L282.3,20.3L282.3,20.3z M306.3,41.9h-6.8
		v-19h6.8V41.9z"/>
	<path class="st1" d="M287.5,22.5h-2.2c-0.7,0-1.3,0.6-1.3,1.3c0,0.7,0.6,1.3,1.3,1.3h2.2c0.7,0,1.3-0.6,1.3-1.3
		C288.9,23.1,288.3,22.5,287.5,22.5z"/>
	<path class="st1" d="M275.3,27.3h2.2c0.7,0,1.3-0.6,1.3-1.3c0-0.7-0.6-1.3-1.3-1.3h-2.2c-0.7,0-1.3,0.6-1.3,1.3
		S274.5,27.3,275.3,27.3z"/>
	<path class="st1" d="M277.4,29h-2.2c-0.7,0-1.3,0.6-1.3,1.3c0,0.7,0.6,1.3,1.3,1.3h2.2c0.7,0,1.3-0.6,1.3-1.3
		C278.8,29.6,278.1,29,277.4,29z"/>
	<path class="st1" d="M277.4,33.3h-2.2c-0.7,0-1.3,0.6-1.3,1.3s0.6,1.3,1.3,1.3h2.2c0.7,0,1.3-0.6,1.3-1.3
		C278.8,33.9,278.1,33.3,277.4,33.3z"/>
	<path class="st1" d="M302,27.3h2.2c0.7,0,1.3-0.6,1.3-1.3c0-0.7-0.6-1.3-1.3-1.3H302c-0.7,0-1.3,0.6-1.3,1.3S301.3,27.3,302,27.3z"
		/>
	<path class="st1" d="M302,31.6h2.2c0.7,0,1.3-0.6,1.3-1.3c0-0.7-0.6-1.3-1.3-1.3H302c-0.7,0-1.3,0.6-1.3,1.3
		C300.6,31,301.3,31.6,302,31.6z"/>
	<path class="st1" d="M304,33.3h-2c-0.7,0-1.3,0.6-1.3,1.3s0.6,1.3,1.3,1.3h2.2c0.7,0,1.3-0.6,1.3-1.3S304.9,33.3,304,33.3z"/>
	<path class="st1" d="M294,22.5h-2.2c-0.7,0-1.3,0.6-1.3,1.3c0,0.7,0.6,1.3,1.3,1.3h2.2c0.7,0,1.3-0.6,1.3-1.3S294.8,22.5,294,22.5z
		"/>
	<path class="st1" d="M287.5,26.8h-2.2c-0.7,0-1.3,0.6-1.3,1.3c0,0.7,0.6,1.3,1.3,1.3h2.2c0.7,0,1.3-0.6,1.3-1.3
		S288.3,26.8,287.5,26.8z"/>
	<path class="st1" d="M294,26.8h-2.2c-0.7,0-1.3,0.6-1.3,1.3c0,0.7,0.6,1.3,1.3,1.3h2.2c0.7,0,1.3-0.6,1.3-1.3S294.8,26.8,294,26.8z
		"/>
	<path class="st1" d="M287.5,31.1h-2.2c-0.7,0-1.3,0.6-1.3,1.3s0.6,1.3,1.3,1.3h2.2c0.7,0,1.3-0.6,1.3-1.3
		C288.9,31.7,288.3,31.1,287.5,31.1z"/>
	<path class="st1" d="M294,31.1h-2.2c-0.7,0-1.3,0.6-1.3,1.3s0.6,1.3,1.3,1.3h2.2c0.7,0,1.3-0.6,1.3-1.3S294.8,31.1,294,31.1z"/>
</g>
<g class="st6">
	<path class="st1" d="M308.6,233.5c0.7,0,1.3-0.6,1.3-1.3v-21.6c0-0.7-0.6-1.3-1.3-1.3h-8.1v-0.9c0-0.5-0.3-0.9-0.7-1.2l-7.9-4v-2.5
		l5.6-1.9c0.5-0.2,0.9-0.7,0.9-1.2c0-0.6-0.4-1.1-0.9-1.2l-6.6-2.1c-0.4-0.1-0.8-0.1-1.2,0.2c-0.3,0.2-0.5,0.6-0.5,1.1v7.8l-7.9,4
		c-0.4,0.2-0.7,0.7-0.7,1.2v0.9h-8.3c-0.7,0-1.3,0.6-1.3,1.3v21.6c0,0.7,0.6,1.3,1.3,1.3h36.3L308.6,233.5L308.6,233.5z
		 M291.9,198.4V197l2.9,0.7L291.9,198.4z M273.6,211.9h7v19h-7V211.9z M283.3,209.3l7.3-3.7l7.3,3.7v21.6h-14.6L283.3,209.3
		L283.3,209.3z M307.3,230.9h-6.8v-19h6.8V230.9z"/>
	<path class="st1" d="M288.5,211.5h-2.2c-0.7,0-1.3,0.6-1.3,1.3s0.6,1.3,1.3,1.3h2.2c0.7,0,1.3-0.6,1.3-1.3
		C289.9,212.1,289.3,211.5,288.5,211.5z"/>
	<path class="st1" d="M276.3,216.3h2.2c0.7,0,1.3-0.6,1.3-1.3s-0.6-1.3-1.3-1.3h-2.2c-0.7,0-1.3,0.6-1.3,1.3
		S275.5,216.3,276.3,216.3z"/>
	<path class="st1" d="M278.4,218h-2.2c-0.7,0-1.3,0.6-1.3,1.3s0.6,1.3,1.3,1.3h2.2c0.7,0,1.3-0.6,1.3-1.3
		C279.8,218.6,279.1,218,278.4,218z"/>
	<path class="st1" d="M278.4,222.3h-2.2c-0.7,0-1.3,0.6-1.3,1.3s0.6,1.3,1.3,1.3h2.2c0.7,0,1.3-0.6,1.3-1.3
		C279.8,222.9,279.1,222.3,278.4,222.3z"/>
	<path class="st1" d="M303,216.3h2.2c0.7,0,1.3-0.6,1.3-1.3s-0.6-1.3-1.3-1.3H303c-0.7,0-1.3,0.6-1.3,1.3S302.3,216.3,303,216.3z"/>
	<path class="st1" d="M303,220.6h2.2c0.7,0,1.3-0.6,1.3-1.3s-0.6-1.3-1.3-1.3H303c-0.7,0-1.3,0.6-1.3,1.3
		C301.6,220,302.3,220.6,303,220.6z"/>
	<path class="st1" d="M305,222.3h-2c-0.7,0-1.3,0.6-1.3,1.3s0.6,1.3,1.3,1.3h2.2c0.7,0,1.3-0.6,1.3-1.3S305.9,222.3,305,222.3z"/>
	<path class="st1" d="M295,211.5h-2.2c-0.7,0-1.3,0.6-1.3,1.3s0.6,1.3,1.3,1.3h2.2c0.7,0,1.3-0.6,1.3-1.3S295.8,211.5,295,211.5z"/>
	<path class="st1" d="M288.5,215.8h-2.2c-0.7,0-1.3,0.6-1.3,1.3s0.6,1.3,1.3,1.3h2.2c0.7,0,1.3-0.6,1.3-1.3S289.3,215.8,288.5,215.8
		z"/>
	<path class="st1" d="M295,215.8h-2.2c-0.7,0-1.3,0.6-1.3,1.3s0.6,1.3,1.3,1.3h2.2c0.7,0,1.3-0.6,1.3-1.3S295.8,215.8,295,215.8z"/>
	<path class="st1" d="M288.5,220.1h-2.2c-0.7,0-1.3,0.6-1.3,1.3s0.6,1.3,1.3,1.3h2.2c0.7,0,1.3-0.6,1.3-1.3S289.3,220.1,288.5,220.1
		z"/>
	<path class="st1" d="M295,220.1h-2.2c-0.7,0-1.3,0.6-1.3,1.3s0.6,1.3,1.3,1.3h2.2c0.7,0,1.3-0.6,1.3-1.3S295.8,220.1,295,220.1z"/>
</g>
<g class="st6">
	<path class="st1" d="M666.7,136.5c0.7,0,1.3-0.6,1.3-1.3v-21.6c0-0.7-0.6-1.3-1.3-1.3h-8.1v-0.9c0-0.5-0.3-0.9-0.7-1.2l-7.9-4v-2.5
		l5.6-1.9c0.5-0.2,0.9-0.7,0.9-1.2c0-0.6-0.4-1.1-0.9-1.2l-6.6-2.1c-0.4-0.1-0.8-0.1-1.2,0.2c-0.3,0.2-0.5,0.6-0.5,1.1v7.8l-7.9,4
		c-0.4,0.2-0.7,0.7-0.7,1.2v0.9h-8.3c-0.7,0-1.3,0.6-1.3,1.3v21.6c0,0.7,0.6,1.3,1.3,1.3h36.3L666.7,136.5L666.7,136.5z
		 M649.8,101.4V100l2.9,0.7L649.8,101.4z M631.7,114.9h7v19h-7V114.9z M641.3,112.3l7.3-3.7l7.3,3.7v21.6h-14.6V112.3z M665.3,133.9
		h-6.8v-19h6.8V133.9z"/>
	<path class="st1" d="M646.5,114.5h-2.2c-0.7,0-1.3,0.6-1.3,1.3c0,0.7,0.6,1.3,1.3,1.3h2.2c0.7,0,1.3-0.6,1.3-1.3
		S647.3,114.5,646.5,114.5z"/>
	<path class="st1" d="M634.3,119.3h2.2c0.7,0,1.3-0.6,1.3-1.3c0-0.7-0.6-1.3-1.3-1.3h-2.2c-0.7,0-1.3,0.6-1.3,1.3
		S633.5,119.3,634.3,119.3z"/>
	<path class="st1" d="M636.3,121h-2.2c-0.7,0-1.3,0.6-1.3,1.3c0,0.7,0.6,1.3,1.3,1.3h2.2c0.7,0,1.3-0.6,1.3-1.3
		C637.8,121.6,637.2,121,636.3,121z"/>
	<path class="st1" d="M636.3,125.3h-2.2c-0.7,0-1.3,0.6-1.3,1.3c0,0.7,0.6,1.3,1.3,1.3h2.2c0.7,0,1.3-0.6,1.3-1.3
		C637.8,125.9,637.2,125.3,636.3,125.3z"/>
	<path class="st1" d="M661,119.3h2.2c0.7,0,1.3-0.6,1.3-1.3c0-0.7-0.6-1.3-1.3-1.3H661c-0.7,0-1.3,0.6-1.3,1.3
		S660.3,119.3,661,119.3z"/>
	<path class="st1" d="M661,123.6h2.2c0.7,0,1.3-0.6,1.3-1.3c0-0.7-0.6-1.3-1.3-1.3H661c-0.7,0-1.3,0.6-1.3,1.3
		S660.3,123.6,661,123.6z"/>
	<path class="st1" d="M663,125.3h-2c-0.7,0-1.3,0.6-1.3,1.3c0,0.7,0.6,1.3,1.3,1.3h2.2c0.7,0,1.3-0.6,1.3-1.3S663.8,125.3,663,125.3
		z"/>
	<path class="st1" d="M653,114.5h-2.2c-0.7,0-1.3,0.6-1.3,1.3c0,0.7,0.6,1.3,1.3,1.3h2.2c0.7,0,1.3-0.6,1.3-1.3
		S653.8,114.5,653,114.5z"/>
	<path class="st1" d="M646.5,118.8h-2.2c-0.7,0-1.3,0.6-1.3,1.3c0,0.7,0.6,1.3,1.3,1.3h2.2c0.7,0,1.3-0.6,1.3-1.3
		S647.3,118.8,646.5,118.8z"/>
	<path class="st1" d="M653,118.8h-2.2c-0.7,0-1.3,0.6-1.3,1.3c0,0.7,0.6,1.3,1.3,1.3h2.2c0.7,0,1.3-0.6,1.3-1.3
		S653.8,118.8,653,118.8z"/>
	<path class="st1" d="M646.5,123.1h-2.2c-0.7,0-1.3,0.6-1.3,1.3s0.6,1.3,1.3,1.3h2.2c0.7,0,1.3-0.6,1.3-1.3S647.3,123.1,646.5,123.1
		z"/>
	<path class="st1" d="M653,123.1h-2.2c-0.7,0-1.3,0.6-1.3,1.3s0.6,1.3,1.3,1.3h2.2c0.7,0,1.3-0.6,1.3-1.3S653.8,123.1,653,123.1z"/>
</g>
<polygon id="XMLID_63_" class="st10" points="1003.7,155.6 1005.2,155.6 1005.2,153.3 1009,153.3 1009,165.6 1005.2,165.6 
	1005.2,162.3 1007.7,162.3 1007.7,156.9 997.3,156.9 997.3,162.3 999.8,162.3 999.8,165.6 996,165.6 996,153.3 999.8,153.3 
	999.8,155.6 1001.3,155.6 1001.3,151.8 994.5,151.8 994.5,167.3 1001.3,167.3 1001.3,160.6 999,160.6 999,158.5 1006,158.5 
	1006,160.6 1003.7,160.6 1003.7,167.3 1010.5,167.3 1010.5,151.8 1003.7,151.8 "/>
<g>
	<g>
		<g>
			<path class="st1" d="M916.2,110.4c0.2-0.5,0.3-1,0.1-1.5s-0.5-0.9-1-1.2l-4.5-2.3c-0.1-0.1-0.2-0.2-0.3-0.4l-0.8-5
				c-0.2-1-1-1.7-2-1.7c-0.1,0-0.2,0-0.3,0l-5,0.8c-0.2,0-0.3,0-0.4-0.1l-3.6-3.6c-0.4-0.4-0.9-0.6-1.4-0.6s-1,0.2-1.4,0.6L892,99
				c-0.1,0.1-0.3,0.2-0.4,0.1l-5-0.8c-0.1,0-0.2,0-0.3,0c-1,0-1.8,0.7-2,1.7l-0.8,5c0,0.2-0.1,0.3-0.3,0.4l-4.5,2.3
				c-0.5,0.2-0.8,0.7-1,1.2s-0.1,1.1,0.1,1.5l2.3,4.5c0.1,0.1,0.1,0.3,0,0.5l-2.3,4.5c-0.2,0.5-0.3,1-0.1,1.5s0.5,0.9,1,1.2l4.5,2.3
				c0.1,0.1,0.2,0.2,0.3,0.4l0.8,5c0.2,1,1,1.7,2,1.7c0.1,0,0.2,0,0.3,0l5-0.8c0.2,0,0.3,0,0.4,0.1l3.6,3.6c0.4,0.4,0.9,0.6,1.4,0.6
				s1-0.2,1.4-0.6l3.6-3.6c0.1-0.1,0.3-0.2,0.4-0.1l5,0.8c0.1,0,0.2,0,0.3,0c1,0,1.8-0.7,2-1.7l0.8-5c0-0.2,0.1-0.3,0.3-0.4l4.5-2.3
				c0.5-0.2,0.8-0.7,1-1.2s0.1-1.1-0.1-1.5l-2.3-4.5c-0.1-0.1-0.1-0.3,0-0.5L916.2,110.4z M912.6,116.1l2.3,4.5
				c0.1,0.1,0.1,0.3,0,0.4c0,0.1-0.1,0.2-0.3,0.3l-4.5,2.3c-0.6,0.3-1,0.8-1.1,1.5l-0.8,5c0,0.3-0.3,0.5-0.6,0.4l-5-0.8
				c-0.1,0-0.2,0-0.3,0c-0.5,0-1,0.2-1.4,0.6l-3.6,3.6c-0.2,0.2-0.5,0.2-0.7,0l-3.4-3.7c-0.4-0.4-0.9-0.6-1.4-0.6
				c-0.1,0-0.2,0-0.3,0l-5,0.8c-0.3,0-0.5-0.2-0.6-0.4l-0.8-5c-0.1-0.6-0.5-1.2-1.1-1.5l-4.5-2.3c-0.1-0.1-0.2-0.2-0.3-0.3
				c0-0.1,0-0.3,0-0.4l2.3-4.5c0.3-0.6,0.3-1.3,0-1.8l-2.3-4.5c-0.1-0.1-0.1-0.3,0-0.4s0.1-0.2,0.3-0.3l4.5-2.3
				c0.6-0.3,1-0.8,1.1-1.5l0.8-5c0-0.3,0.3-0.5,0.6-0.4l5,0.8c0.1,0,0.2,0,0.3,0l0,0c0.5,0,1-0.2,1.4-0.6l3.6-3.6
				c0.2-0.2,0.5-0.2,0.7,0l3.6,3.6c0.4,0.5,1.1,0.7,1.7,0.6l5-0.8c0.3,0,0.5,0.2,0.6,0.4l0.8,5c0.1,0.6,0.5,1.2,1.1,1.5l4.5,2.3
				c0.1,0.1,0.2,0.2,0.3,0.3c0,0.1,0,0.3,0,0.4l-2.3,4.5C912.3,114.7,912.3,115.4,912.6,116.1z"/>
			<path class="st1" d="M903,106.6c0.1,0.1,0.3,0.1,0.4,0.1c0.2,0,0.5-0.1,0.6-0.3c0.2-0.3,0.1-0.8-0.2-1s-0.8-0.1-1,0.2
				S902.7,106.4,903,106.6z"/>
			<path class="st1" d="M905.4,108.6c0.2,0,0.4-0.1,0.5-0.2c0.3-0.3,0.3-0.7,0.1-1.1c-0.3-0.3-0.8-0.3-1.1-0.1
				c-0.3,0.3-0.3,0.7-0.1,1.1C905,108.4,905.2,108.6,905.4,108.6z"/>
			<path class="st1" d="M900.8,124.7c-0.4,0.1-0.6,0.6-0.4,1c0.1,0.3,0.4,0.5,0.7,0.5c0.1,0,0.2,0,0.3,0c0.4-0.1,0.6-0.6,0.4-1
				C901.6,124.9,901.2,124.6,900.8,124.7z"/>
			<path class="st1" d="M903,123.6c-0.3,0.2-0.4,0.7-0.2,1c0.1,0.2,0.4,0.3,0.6,0.3c0.1,0,0.3,0,0.4-0.1c0.3-0.2,0.4-0.7,0.2-1
				C903.8,123.4,903.4,123.4,903,123.6z"/>
			<path class="st1" d="M893.5,124.7c-0.4-0.1-0.8,0-1,0.4s0,0.8,0.4,1c0.1,0,0.2,0,0.3,0c0.3,0,0.6-0.2,0.7-0.5
				C894.1,125.4,893.9,124.9,893.5,124.7z"/>
			<path class="st1" d="M898.4,125.4c-0.4,0-0.7,0.4-0.7,0.8s0.4,0.7,0.7,0.7h0.1c0.4,0,0.7-0.4,0.7-0.8
				C899.2,125.6,898.8,125.2,898.4,125.4z"/>
			<path class="st1" d="M895.9,125.4L895.9,125.4c-0.4,0-0.8,0.2-0.8,0.7c0,0.4,0.2,0.8,0.7,0.8h0.1c0.4,0,0.7-0.3,0.7-0.7
				S896.3,125.4,895.9,125.4z"/>
			<path class="st1" d="M907.2,112.6L907.2,112.6c0.1,0.3,0.4,0.6,0.7,0.6c0.1,0,0.1,0,0.2,0c0.4-0.1,0.6-0.5,0.5-0.9
				s-0.5-0.6-0.9-0.5C907.3,111.9,907.1,112.2,907.2,112.6z"/>
			<path class="st1" d="M908.2,114.4c-0.4,0-0.8,0.3-0.8,0.8s0.3,0.8,0.8,0.7c0.4,0,0.8-0.3,0.7-0.8
				C909,114.6,908.6,114.4,908.2,114.4z"/>
			<path class="st1" d="M908.1,117.1c-0.4-0.1-0.8,0.1-0.9,0.5c-0.1,0.4,0.1,0.8,0.5,0.9c0.1,0,0.1,0,0.2,0c0.3,0,0.6-0.2,0.7-0.6
				C908.7,117.6,908.5,117.1,908.1,117.1z"/>
			<path class="st1" d="M906.9,110.7c0.1,0,0.2,0,0.3-0.1c0.4-0.2,0.5-0.6,0.3-1s-0.6-0.5-1-0.3s-0.5,0.6-0.3,1
				C906.4,110.6,906.7,110.7,906.9,110.7z"/>
			<path class="st1" d="M904.9,121.9c-0.3,0.3-0.2,0.8,0.1,1.1c0.1,0.1,0.3,0.2,0.5,0.2s0.4-0.1,0.6-0.3c0.3-0.3,0.2-0.8-0.1-1.1
				C905.6,121.6,905.1,121.6,904.9,121.9z"/>
			<path class="st1" d="M907.3,119.6c-0.4-0.2-0.8,0-1,0.3c-0.2,0.4,0,0.8,0.3,1c0.1,0.1,0.2,0.1,0.3,0.1c0.3,0,0.5-0.1,0.7-0.4
				C907.8,120.2,907.7,119.7,907.3,119.6z"/>
			<path class="st1" d="M888.9,108.6c0.2,0,0.4-0.1,0.6-0.2c0.3-0.3,0.2-0.8-0.1-1.1c-0.3-0.3-0.8-0.2-1.1,0.1s-0.2,0.8,0.1,1.1
				C888.5,108.4,888.7,108.6,888.9,108.6z"/>
			<path class="st1" d="M887,119.6c-0.4,0.2-0.5,0.6-0.3,1c0.1,0.3,0.4,0.4,0.7,0.4c0.1,0,0.2,0,0.3-0.1c0.4-0.2,0.5-0.6,0.3-1
				S887.4,119.4,887,119.6z"/>
			<path class="st1" d="M887.1,117.6c-0.1-0.4-0.5-0.6-0.9-0.5s-0.6,0.5-0.5,0.9c0.1,0.3,0.4,0.6,0.7,0.6c0.1,0,0.1,0,0.2,0
				C887,118.4,887.2,118.1,887.1,117.6z"/>
			<path class="st1" d="M886.2,113.1c0.1,0,0.1,0,0.2,0c0.3,0,0.6-0.2,0.7-0.6c0.1-0.4-0.1-0.8-0.5-0.9s-0.8,0.1-0.9,0.5
				C885.6,112.6,885.8,113.1,886.2,113.1z"/>
			<path class="st1" d="M886.1,115.9c0.4,0,0.7-0.3,0.7-0.8l0,0l0,0c0-0.4-0.3-0.8-0.8-0.8c-0.4,0-0.7,0.3-0.7,0.8l0,0l0,0
				C885.3,115.6,885.7,115.9,886.1,115.9L886.1,115.9z"/>
			<path class="st1" d="M887,110.6c0.1,0.1,0.2,0.1,0.3,0.1c0.3,0,0.5-0.1,0.7-0.4c0.2-0.4,0-0.8-0.3-1c-0.4-0.2-0.8,0-1,0.3
				S886.6,110.4,887,110.6z"/>
			<path class="st1" d="M888.4,121.9c-0.3,0.3-0.3,0.8-0.1,1.1c0.1,0.2,0.4,0.2,0.6,0.2c0.2,0,0.4-0.1,0.5-0.2
				c0.3-0.3,0.3-0.8,0.1-1.1C889.2,121.6,888.7,121.6,888.4,121.9z"/>
			<path class="st1" d="M895.8,104.9L895.8,104.9c0.5-0.1,0.8-0.4,0.7-0.8c0-0.4-0.4-0.7-0.8-0.7s-0.7,0.4-0.7,0.8
				C895.1,104.6,895.4,104.9,895.8,104.9z"/>
			<path class="st1" d="M898.4,104.9L898.4,104.9c0.5,0,0.8-0.3,0.8-0.7s-0.2-0.8-0.7-0.8c-0.4,0-0.8,0.2-0.8,0.7
				C897.7,104.4,898,104.9,898.4,104.9z"/>
			<path class="st1" d="M900.8,105.4c0.1,0,0.2,0,0.3,0c0.3,0,0.6-0.2,0.7-0.5c0.1-0.4,0-0.8-0.4-1c-0.4-0.1-0.8,0-1,0.4
				S900.4,105.4,900.8,105.4z"/>
			<path class="st1" d="M893.2,105.6c0.1,0,0.2,0,0.3,0c0.4-0.1,0.6-0.6,0.4-1c-0.1-0.4-0.6-0.6-1-0.4l0,0c-0.4,0.1-0.6,0.6-0.4,1
				C892.6,105.4,892.9,105.6,893.2,105.6z"/>
			<path class="st1" d="M891.3,123.6c-0.3-0.2-0.8-0.1-1,0.2c-0.2,0.3-0.1,0.8,0.2,1c0.1,0.1,0.3,0.1,0.4,0.1c0.2,0,0.5-0.1,0.6-0.3
				C891.7,124.4,891.6,123.9,891.3,123.6z"/>
			<path class="st1" d="M890.8,106.7c0.1,0,0.3,0,0.4-0.1c0.3-0.2,0.4-0.7,0.2-1s-0.7-0.4-1-0.2c-0.3,0.2-0.4,0.7-0.2,1
				C890.4,106.6,890.6,106.7,890.8,106.7z"/>
		</g>
	</g>
	<g>
		<path class="st1" d="M882.5,119.1h29.3c1.7,0,3.1-1.4,3.1-3.1c0-1.2-0.7-2.2-1.7-2.7v-3.4c0-0.4-0.2-0.8-0.6-0.9l-15-7.2
			c-0.3-0.1-0.6-0.1-0.9,0l-15,7.2c-0.4,0.2-0.6,0.5-0.6,0.9v3.4c-1,0.5-1.7,1.5-1.7,2.7C879.4,117.9,880.8,119.1,882.5,119.1z
			 M897.1,106.9c1.1,0,2,0.9,2,2s-0.9,2-2,2s-2-0.9-2-2S896,106.9,897.1,106.9z"/>
		<path class="st1" d="M911.6,130.7h-0.5l0.4-4c0.1-1.2,0.1-2.4,0-3.6l-0.2-1.9h-6.8l-0.2,1.9c-0.1,1.2-0.1,2.4,0,3.6l0.4,4h-4.5
			l0.4-4c0.1-1.2,0.1-2.4,0-3.6l-0.2-1.9h-6.8l-0.2,1.9c-0.1,1.2-0.1,2.4,0,3.6l0.4,4h-4.5l0.4-4c0.1-1.2,0.1-2.4,0-3.6l-0.2-1.9
			h-6.8l-0.2,1.9c-0.1,1.2-0.1,2.4,0,3.6l0.4,4h-0.5c-1.8,0-3.2,1.5-3.2,3.2s1.5,3.2,3.2,3.2h29c1.8,0,3.2-1.5,3.2-3.2
			S913.4,130.7,911.6,130.7z"/>
	</g>
</g>
</svg>
