<?xml version="1.0" encoding="utf-8"?>
<!-- Generator: Adobe Illustrator 22.1.0, SVG Export Plug-In . SVG Version: 6.00 Build 0)  -->
<svg version="1.1" id="图层_1" xmlns="http://www.w3.org/2000/svg" xmlns:xlink="http://www.w3.org/1999/xlink" x="0px" y="0px"
	 viewBox="0 0 194 199" style="enable-background:new 0 0 194 199;" xml:space="preserve">
<style type="text/css">
	.st0{fill:#C4C3C1;}
	.st1{fill:#D5D4D2;}
	.st2{fill:#C9C8C7;}
	.st3{fill:#F8F9F9;}
	.st4{fill:#F0F0F0;}
	.st5{fill:#007C70;}
	.st6{fill:#FFFFFF;}
</style>
<g>
	<g>
		<g>
			<polygon class="st0" points="47.8,124 47.7,145.6 0.4,121.1 0.5,99.5 			"/>
		</g>
	</g>
	<g>
		<g>
			
				<rect x="85.2" y="86.7" transform="matrix(3.558394e-03 -1 1 3.558394e-03 -39.2811 230.5561)" class="st1" width="21.6" height="96.6"/>
		</g>
	</g>
	<g>
		<polygon class="st2" points="193.6,100.3 193.5,121.9 144.3,146 144.4,124.4 		"/>
	</g>
	<g>
		<g>
			<polygon class="st3" points="193.6,100.3 144.4,124.4 47.8,124 0.5,99.5 49.7,75.4 146.3,75.8 			"/>
		</g>
	</g>
	<g>
		<g>
			<polygon class="st4" points="155.5,185 126.9,199 70.9,198.7 43.5,184.5 72,170.6 128,170.8 			"/>
		</g>
	</g>
	<g>
		<circle class="st5" cx="97" cy="41.6" r="41.6"/>
		<g>
			<path class="st6" d="M81.7,37v14.1h3.6V40.3c0-1.2,1-2.2,2.2-2.2s2.2,1,2.2,2.2v10.9h5.1V40.3c0-1.2,1-2.2,2.2-2.2s2.2,1,2.2,2.2
				v10.9h4.9V40.3c0-1.2,1-2.2,2.2-2.2s2.2,1,2.2,2.2v10.9h3.6V37H81.7z"/>
			<path class="st6" d="M114.5,57.6h-35c-0.4,0-0.7-0.3-0.7-0.7v-1.7c0-0.4,0.3-0.7,0.7-0.7h35c0.4,0,0.7,0.3,0.7,0.7v1.7
				C115.2,57.2,114.9,57.6,114.5,57.6z"/>
			<path class="st6" d="M97,21.6l-18.2,12v1.7h36.4v-1.9L97,21.6z M97,31.8c-1.8,0-3.3-1.5-3.3-3.3c0-1.8,1.5-3.3,3.3-3.3
				s3.3,1.5,3.3,3.3C100.3,30.3,98.9,31.8,97,31.8z"/>
			<path class="st6" d="M97.9,28.8c-0.2-0.2-0.4-0.5-0.7-0.6c-0.2-0.1-0.4-0.2-0.5-0.4c0-0.1,0-0.1,0-0.2c0-0.2,0.2-0.3,0.5-0.2
				c0.2,0.1,0.2,0.3,0.2,0.5H98c0,0,0.1-0.9-0.6-1v-0.4h-0.7v0.4c-0.1,0-0.2,0-0.3,0.1c-0.3,0.1-0.4,0.4-0.4,0.7
				c0,0.4,0.2,0.7,0.5,0.9c0.2,0.1,0.3,0.2,0.5,0.4c0.1,0.1,0.2,0.1,0.3,0.2c0.1,0.1,0.1,0.3,0,0.4c-0.1,0.1-0.2,0.1-0.2,0.1
				c-0.1,0-0.2,0-0.3-0.1c-0.1-0.1-0.1-0.2-0.1-0.2c0-0.1,0-0.2,0-0.3c-0.2,0-0.4,0-0.7,0c0,0.2,0,0.3,0,0.5
				c0.1,0.3,0.3,0.5,0.7,0.6v0.4h0.7v-0.5c0,0,0.1,0,0.1,0c0.2-0.1,0.4-0.2,0.5-0.4C98.1,29.4,98.1,29.1,97.9,28.8z"/>
			<rect x="80.6" y="51.1" class="st6" width="32.8" height="1.6"/>
		</g>
	</g>
	<ellipse class="st4" cx="97" cy="99.9" rx="40.2" ry="4.9"/>
</g>
</svg>
