<?xml version="1.0" encoding="utf-8"?>
<!-- Generator: Adobe Illustrator 22.1.0, SVG Export Plug-In . SVG Version: 6.00 Build 0)  -->
<svg version="1.1" id="img1" xmlns="http://www.w3.org/2000/svg" xmlns:xlink="http://www.w3.org/1999/xlink" x="0px" y="0px"
	 viewBox="0 0 985 236" style="enable-background:new 0 0 985 236;" xml:space="preserve">
<style type="text/css">
	.st0{fill:#70DBCB;}
	.st1{fill:none;stroke:#70DBCB;}
	.st2{fill:#58595B;}
	.st3{fill:#FCFCFC;}
	.st4{fill:#F5F5F5;}
	.st5{enable-background:new    ;}
	.st6{fill:#F2F2F2;}
	.st7{fill:#E6E7E8;}
</style>
<path id="矩形_48" class="st0" d="M120.3,119.1H265v0.7H120.3V119.1z"/>
<path id="形状_2" class="st1" d="M265,116.6h-93.5l-30.7-69.7H75.4"/>
<path id="形状_2_拷贝" class="st1" d="M265,123h-93.5l-30.7,69.7H75.4"/>
<path id="矩形_48-2" class="st0" d="M490.6,119.2h328.7v0.7H490.6V119.2z"/>
<path id="形状_2-2" class="st1" d="M490.6,115.8h93.5l30.7-69.6h65.3"/>
<path id="形状_2_拷贝-2" class="st1" d="M490.6,122.2h93.5l30.7,69.6h65.3"/>
<path id="形状_2_拷贝_2" class="st1" d="M698.6,115.8h93.5l30.8-69.6h65.3"/>
<path id="形状_2_拷贝_2-2" class="st1" d="M698.6,122.2h93.5l30.8,69.6h65.3"/>
<path id="矩形_49_拷贝_2" class="st2" d="M334.6,119.1h133.6v0.8H334.6V119.1z"/>
<path id="圆角矩形_1" class="st3" d="M264.2,107.6l38.9-10c1.6-0.4,3.4-0.3,5,0.1l32.7,10.6c1.4,0.5,1.6,1.2,0.4,1.7l-34.1,12.5
	c-2,0.6-4.1,0.7-6.1,0.1l-37.5-13.1C261.9,108.9,262.3,108.1,264.2,107.6z"/>
<path id="圆角矩形_1_拷贝" class="st4" d="M263.4,128.4l38.9-10c1.6-0.4,3.4-0.3,5,0.1l32.7,10.6c1.4,0.5,1.6,1.2,0.4,1.7
	l-34.1,12.5c-2,0.6-4.1,0.7-6.1,0.1l-37.5-13.1C261.1,129.8,261.5,128.9,263.4,128.4z"/>
<g id="主链_2" class="st5">
	<path d="M289.3,162.4h13.6v0.8h-6.3v4.1h5.8v0.8h-5.8v4.7h7v0.8h-14.9v-0.8h7v-4.7h-5.8v-0.8h5.8v-4.1h-6.4L289.3,162.4
		L289.3,162.4z M295.2,159.9l0.8-0.3c0.5,0.9,0.9,1.7,1.1,2.3l-0.9,0.3C296,161.5,295.7,160.8,295.2,159.9z"/>
	<path d="M304.5,164.8c0.9-1.4,1.7-3.2,2.2-5.2l0.8,0.2c-0.3,1-0.5,1.7-0.8,2.3h2.7v0.8h-3c-0.3,0.7-0.7,1.6-1.3,2.5
		C304.9,165.1,304.7,164.9,304.5,164.8z M304.6,167.9h2v-2.3h-1v-0.8h3.3v0.8h-1.5v2.3h2v0.8h-2v3.8l1.8-1.8l0.2,0.9
		c-0.8,0.7-1.4,1.3-2,1.9c-0.2,0.2-0.4,0.4-0.6,0.7l-0.6-0.7c0.2-0.2,0.3-0.4,0.3-0.6c0.1-0.2,0.1-0.5,0.1-0.8v-3.4h-2L304.6,167.9
		L304.6,167.9z M315.2,173.3c0.7,0,1.5,0,2.2,0s1.5,0,2.3,0c-0.1,0.3-0.2,0.6-0.3,0.9c-1.1,0-2.6,0-4.3-0.1c-1.7,0-2.9-0.6-3.8-1.8
		c-0.5,0.6-1.1,1.3-1.6,2.1l-0.7-0.6c0.4-0.5,0.9-1.2,1.7-2c0.1-0.1,0.2-0.2,0.2-0.3V166h-1.2v-0.8h2v6.3
		C312.5,172.7,313.7,173.3,315.2,173.3z M311.2,163.2c-0.3-0.9-0.6-1.9-1.1-3.1l0.7-0.2c0.5,1.3,0.9,2.3,1.2,3.1L311.2,163.2z
		 M312.7,169.5h3.4v-2.3h-2.9v-0.9c0.5-1.1,0.9-2.3,1.4-3.8H313v-0.8h1.8c0.2-0.7,0.4-1.5,0.6-2.2l0.8,0.2c-0.2,0.8-0.4,1.5-0.6,2
		h3.7v0.8h-4c-0.5,1.4-0.9,2.7-1.4,3.9h2.2v-2.8h0.8v2.8h2.2v0.8H317v2.3h2.6v0.8H317v2.5h-0.8v-2.5h-3.4v-0.8H312.7z"/>
</g>
<ellipse id="椭圆_11" class="st6" cx="304.4" cy="107.4" rx="18" ry="3.6"/>
<path id="矩形_46" class="st7" d="M262.4,108.7l43.2,15.2v14.4l-43.2-15.2V108.7z"/>
<path id="矩形_46_拷贝" class="st7" d="M342.4,109.4l-37.6,14.4v14.4l37.6-14.4V109.4z"/>
<path id="圆角矩形_1-2" class="st3" d="M411.4,107.6l38.9-10c1.6-0.4,3.4-0.3,5,0.1l32.7,10.6c1.4,0.5,1.6,1.2,0.4,1.7
	l-34.1,12.5c-2,0.6-4.1,0.7-6.1,0.1l-37.5-13.1C409.1,108.9,409.5,108.1,411.4,107.6z"/>
<path id="圆角矩形_1_拷贝-2" class="st4" d="M410.6,128.4l38.9-10c1.6-0.4,3.4-0.3,5,0.1l32.7,10.6c1.4,0.5,1.6,1.2,0.4,1.7
	l-34.1,12.5c-2,0.6-4.1,0.7-6.1,0.1l-37.5-13.1C408.3,129.8,408.7,128.9,410.6,128.4z"/>
<g id="跨链网关-2" class="st5">
	<path d="M422.2,162.7h0.8v5.9c0.2,0,0.4-0.1,0.7-0.1c0.3-0.1,0.5-0.1,0.6-0.1v-7.2h-2.1v-4.7h4.4v4.7h-1.4v2.6h1.6v0.7h-1.6v3.7
		c0.2-0.1,0.6-0.1,1-0.2c0.5-0.1,0.8-0.2,1-0.2c0,0.1,0,0.2,0,0.3c0,0.2,0,0.3,0,0.5c-1.6,0.3-3.5,0.7-5.8,1.2l-0.2-0.8
		c0.3-0.1,0.6-0.1,0.9-0.2v-6.1L422.2,162.7L422.2,162.7z M423,157.2v3.3h2.8v-3.3H423z M427.5,157.5h3.1c0.3-0.6,0.6-1.2,0.8-2
		l0.8,0.2c-0.2,0.7-0.5,1.3-0.7,1.8h4.5v0.7h-3.1c0.8,1.4,2,2.4,3.6,3.1c-0.1,0.1-0.2,0.3-0.4,0.6c0,0.1-0.1,0.1-0.1,0.1
		c-1.8-1-3.1-2.2-3.9-3.9h-0.9c-0.7,1.5-2,2.8-3.8,4c-0.1-0.2-0.3-0.4-0.6-0.7c1.6-1.1,2.8-2.2,3.5-3.4h-2.7L427.5,157.5
		L427.5,157.5z M427.2,163.4h9v0.7h-6.4l-0.5,1.8h5.7c-0.1,1-0.1,1.9-0.2,2.6c-0.1,1.2-0.8,1.9-2.1,1.8c-0.7,0-1.5,0-2.4,0
		c0-0.2-0.1-0.5-0.2-0.9c0.6,0,1.1,0,1.4,0c0.2,0,0.4,0,0.5,0c0.2,0,0.3,0,0.4,0c0.9,0,1.4-0.4,1.5-1.2c0.1-0.5,0.1-1.1,0.2-1.7
		h-5.9l0.7-2.5h-1.8L427.2,163.4L427.2,163.4z M429.4,161h4.7v0.7h-4.7V161z"/>
	<path d="M437.3,160.8c0.9-1.4,1.7-3.2,2.2-5.2l0.8,0.2c-0.3,1-0.5,1.7-0.8,2.3h2.7v0.8h-3c-0.3,0.7-0.7,1.6-1.3,2.5
		C437.7,161.1,437.5,160.9,437.3,160.8z M437.4,163.9h2v-2.3h-1v-0.8h3.3v0.8h-1.5v2.3h2v0.8h-2v3.8l1.8-1.8l0.2,0.9
		c-0.8,0.7-1.4,1.3-2,1.9c-0.2,0.2-0.4,0.4-0.6,0.7l-0.6-0.7c0.2-0.2,0.3-0.4,0.3-0.6c0.1-0.2,0.1-0.5,0.1-0.8v-3.4h-2L437.4,163.9
		L437.4,163.9z M448,169.3c0.7,0,1.5,0,2.2,0s1.5,0,2.3,0c-0.1,0.3-0.2,0.6-0.3,0.9c-1.1,0-2.6,0-4.3-0.1c-1.7,0-2.9-0.6-3.8-1.8
		c-0.5,0.6-1.1,1.3-1.6,2.1l-0.7-0.6c0.4-0.5,0.9-1.2,1.7-2c0.1-0.1,0.2-0.2,0.2-0.3V162h-1.2v-0.8h2v6.3
		C445.3,168.7,446.5,169.3,448,169.3z M444,159.2c-0.3-0.9-0.6-1.9-1.1-3.1l0.7-0.2c0.5,1.3,0.9,2.3,1.2,3.1L444,159.2z
		 M445.5,165.5h3.4v-2.3H446v-0.9c0.5-1.1,0.9-2.3,1.4-3.8h-1.6v-0.8h1.8c0.2-0.7,0.4-1.5,0.6-2.2l0.8,0.2c-0.2,0.8-0.4,1.5-0.6,2
		h3.7v0.8h-4c-0.5,1.4-0.9,2.7-1.4,3.9h2.2v-2.8h0.8v2.8h2.2v0.8h-2.2v2.3h2.6v0.8h-2.6v2.5H449v-2.5h-3.4v-0.8H445.5z"/>
	<path d="M455.3,170.5h-0.9v-14h13v12c0,1.3-0.6,1.9-1.8,1.9c-0.3,0-0.6,0-0.9,0c-0.1,0-0.3,0-0.5,0c-0.1,0-0.4,0-0.7,0
		c0-0.3-0.1-0.6-0.2-0.9c0.7,0,1.3,0.1,1.9,0.1c0.9,0,1.3-0.4,1.3-1.2v-11.1h-11.3v13.2H455.3z M456,159.6l0.7-0.4
		c0.3,0.6,0.8,1.4,1.5,2.6c0.2,0.3,0.3,0.5,0.4,0.6c0.6-1.2,1-2.3,1.4-3.4l0.8,0.3c-0.5,1.3-1,2.6-1.7,3.9c0.6,1,1.2,2.1,1.8,3.1
		l-0.8,0.4c-0.2-0.4-0.5-0.9-0.9-1.6c-0.3-0.5-0.5-0.8-0.6-1.1c-0.7,1.2-1.4,2.4-2.2,3.6c-0.2-0.2-0.5-0.3-0.7-0.5
		c0.9-1.3,1.8-2.7,2.4-4C457.6,162.2,456.9,161,456,159.6z M460.9,160l0.7-0.4c0.4,0.7,1,1.8,1.8,3.1c0.6-1.2,1.2-2.4,1.6-3.6
		l0.8,0.3c-0.5,1.4-1.1,2.7-1.9,4.1c0.4,0.7,0.9,1.6,1.7,3c0.2,0.3,0.3,0.5,0.3,0.6l-0.8,0.4c-0.1-0.1-0.2-0.3-0.3-0.5
		c-0.6-1.1-1.1-2-1.4-2.6c-0.7,1.3-1.4,2.4-2.1,3.5c-0.2-0.2-0.5-0.3-0.7-0.5c0.9-1.3,1.7-2.6,2.4-3.9
		C462.4,162.6,461.7,161.4,460.9,160z"/>
	<path d="M470.1,170.6c-0.1-0.2-0.3-0.4-0.4-0.6c-0.1-0.1-0.1-0.1-0.1-0.2c4-1.4,6.3-3.4,6.6-6.1h-6.5V163h6.6
		c0.1-0.7,0.2-1.7,0.2-3.3h-5.8v-0.8h7.3c0.9-1.1,1.7-2.2,2.5-3.3l0.8,0.4c-0.8,1.1-1.6,2.1-2.3,2.9h4.2v0.8h-5.9
		c0,1.3-0.1,2.4-0.2,3.3h7v0.8h-6.7c1,3,3.3,5,6.8,5.9c-0.2,0.2-0.3,0.5-0.5,0.8c-3.8-1.2-6.1-3.2-6.9-6.1
		C476.3,167.1,474.1,169.2,470.1,170.6z M472.4,156.1l0.7-0.4c0.6,0.7,1.4,1.5,2.2,2.6l-0.8,0.5C473.8,157.7,473,156.8,472.4,156.1z
		"/>
</g>
<path id="椭圆_11-2" class="st6" d="M451.6,103.8c9.9,0,18,1.6,18,3.6s-8.1,3.6-18,3.6s-18-1.6-18-3.6S441.7,103.8,451.6,103.8z"
	/>
<path id="矩形_46-2" class="st7" d="M409.6,108.7l43.2,15.2v14.4l-43.2-15.2V108.7z"/>
<path id="矩形_46_拷贝-2" class="st7" d="M489.6,109.4L452,123.8v14.4l37.6-14.4V109.4z"/>
<g id="商业地产-2" class="st5">
	<path d="M13.2,69.2l0.6-0.2c0.2,0.5,0.4,1,0.5,1.4h5V71H8.1v-0.6h5.5C13.4,70,13.3,69.6,13.2,69.2z M10.8,71.4l0.5-0.3
		c0.4,0.5,0.8,1,1.1,1.4l-0.6,0.3h2.8c0.4-0.6,0.8-1.1,1.2-1.8l0.6,0.3c-0.3,0.5-0.7,1-1.1,1.5h3v6c0,0.9-0.4,1.3-1.3,1.3
		c-0.2,0-0.4,0-0.6,0c-0.1,0-0.2,0-0.3,0c-0.1,0-0.3,0-0.5,0c0-0.2-0.1-0.4-0.1-0.7c0.3,0,0.5,0,0.7,0s0.4,0,0.7,0
		c0.3,0,0.5-0.1,0.7-0.2c0.1-0.1,0.2-0.3,0.2-0.6v-5.4H9.6v7H8.9v-7.6h2.9C11.6,72.4,11.3,72,10.8,71.4z M12.5,73.7l0.5,0.4
		c-0.9,0.7-1.8,1.3-2.6,1.8c-0.1-0.1-0.2-0.3-0.4-0.5C11,74.9,11.8,74.3,12.5,73.7z M15.9,78.6h-4.5v-3h4.5V78.6z M12,76.2v1.9h3.3
		v-1.9H12z M14.4,74.1l0.4-0.4c0.8,0.5,1.6,1,2.6,1.7L17,75.9C16.2,75.3,15.4,74.7,14.4,74.1z"/>
	<path d="M26.8,69.3h0.6V79h3.9v0.6H20V79h3.8v-9.7h0.6V79h2.4V69.3z M22.3,76.4c-0.5-1.4-1-2.9-1.7-4.6l0.6-0.2
		c0.6,1.4,1.2,2.9,1.8,4.6L22.3,76.4z M28.9,76.4l-0.6-0.3c0.6-1.3,1.3-2.8,1.9-4.5l0.6,0.2C30.2,73.6,29.5,75.1,28.9,76.4z"/>
	<path d="M32.1,79l-0.2-0.6c0.4-0.1,1-0.3,1.7-0.5V73h-1.4v-0.6h1.4v-3.3h0.6v3.3h1.3V73h-1.3v4.7c0.1,0,0.3-0.1,0.6-0.2
		c0.4-0.1,0.8-0.3,1-0.3c0,0.1,0,0.3,0.1,0.6C34.3,78.3,33,78.7,32.1,79z M36.6,70.6h0.6v2.6l2.1-0.7v-3.3h0.6v3.1l2.8-1
		c0,1.4-0.1,2.6-0.1,3.5c0,1.2-0.5,1.7-1.3,1.7c-0.2,0-0.5,0-0.8,0c0-0.2-0.1-0.4-0.1-0.6c0.1,0,0.2,0,0.4,0c0.1,0,0.1,0,0.2,0
		c0.1,0,0.2,0,0.3,0c0.5,0.1,0.8-0.3,0.8-1c0.1-1,0.1-1.9,0.1-2.7L40,73v5.1h-0.6V73l-2.1,0.7v4.4c0,0.5,0.1,0.8,0.3,0.9
		c0.2,0.2,0.5,0.2,1,0.2H41c0.9,0,1.4-0.3,1.5-1c0.1-0.5,0.2-1.1,0.3-1.6c0.2,0.1,0.4,0.2,0.6,0.2c-0.1,0.6-0.2,1.2-0.3,1.6
		c-0.1,0.5-0.3,0.8-0.6,1s-0.7,0.3-1.4,0.3h-2.9c-1.2,0-1.8-0.5-1.7-1.6V74l-1,0.4l-0.1-0.6l1.1-0.4v-2.8H36.6z"/>
	<path d="M45.2,73.8h5.7c0.5-0.7,0.9-1.5,1.4-2.3l0.6,0.3c-0.4,0.6-0.8,1.3-1.3,1.9H55v0.6h-9.1v0.9c0.1,2.1-0.4,3.8-1.4,5
		c-0.2-0.2-0.4-0.3-0.5-0.5c0.5-0.6,0.8-1.2,1-1.9c0.2-0.7,0.3-1.6,0.3-2.7L45.2,73.8L45.2,73.8z M49.3,69.3l0.6-0.2
		c0.2,0.5,0.4,1,0.5,1.4h4.8V71h-11v-0.6h5.5C49.7,70.2,49.6,69.8,49.3,69.3C49.4,69.3,49.4,69.3,49.3,69.3z M46.9,71.8l0.5-0.4
		c0.3,0.4,0.8,1,1.3,1.7l-0.6,0.4C47.7,73,47.3,72.4,46.9,71.8z"/>
</g>
<path id="圆角矩形_1_拷贝-3" class="st4" d="M8.7,52.2l23.4-6c1-0.2,2-0.2,3,0.1l19.6,6.3c0.9,0.3,1,0.7,0.2,1l-20.4,7.5
	c-1.2,0.4-2.5,0.4-3.7,0.1L8.3,53.3C7.3,53,7.5,52.5,8.7,52.2z"/>
<path id="圆角矩形_1-3" class="st3" d="M9.2,39.7l23.4-6c1-0.2,2-0.2,3,0.1l19.6,6.3c0.9,0.3,1,0.7,0.2,1L35,48.6
	c-1.2,0.4-2.5,0.4-3.7,0.1L8.7,40.8C7.8,40.5,8,40,9.2,39.7z"/>
<path id="矩形_46-3" class="st7" d="M8.1,40.3L34,48.6V58L8.1,48.9V40.3L8.1,40.3z"/>
<path id="矩形_46_拷贝-3" class="st7" d="M56.1,40.8l-22.6,7.8V58l22.6-8.7V40.8L56.1,40.8z"/>
<path id="椭圆_11-3" class="st6" d="M33.3,37.4c6,0,10.8,1,10.8,2.2s-4.8,2.2-10.8,2.2s-10.8-1-10.8-2.2S27.3,37.4,33.3,37.4z"/>
<path id="圆角矩形_1-4" class="st3" d="M9.2,117.3l23.4-6c1-0.2,2-0.2,3,0.1l19.6,6.3c0.9,0.3,1,0.7,0.2,1L35,126.2
	c-1.2,0.4-2.5,0.4-3.7,0.1l-22.5-7.9C7.8,118.1,8,117.6,9.2,117.3z"/>
<path id="圆角矩形_1_拷贝-4" class="st4" d="M8.7,129.8l23.4-6c1-0.2,2-0.2,3,0.1l19.6,6.3c0.9,0.3,1,0.7,0.2,1l-20.4,7.5
	c-1.2,0.4-2.5,0.4-3.7,0.1l-22.5-7.9C7.3,130.6,7.5,130.1,8.7,129.8z"/>
<path id="椭圆_11-4" class="st6" d="M33.3,115.1c6,0,10.8,1,10.8,2.1s-4.8,2.2-10.8,2.2s-10.8-1-10.8-2.2S27.3,115.1,33.3,115.1z"
	/>
<path id="矩形_46-4" class="st7" d="M8.1,117.9l25.9,8.3v9.4l-25.9-9.1V117.9L8.1,117.9z"/>
<path id="矩形_46_拷贝-4" class="st7" d="M56.1,118.4l-22.6,7.8v9.4l22.6-8.7V118.4L56.1,118.4z"/>
<g id="供应链金融-2" class="st5">
	<path d="M2.2,229.8c-0.1-0.2-0.2-0.5-0.3-0.7c1.1-1.6,2-3.3,2.7-5.3l0.6,0.2c-0.4,1-0.7,1.8-1,2.5v8.5H3.6v-7.3
		C3.2,228.4,2.8,229.1,2.2,229.8z M7.7,231.8l0.6,0.4c-1,1.1-1.9,2-2.9,2.7c-0.1-0.1-0.3-0.3-0.5-0.5C6,233.6,6.9,232.8,7.7,231.8z
		 M10.6,223.8h0.6v2.6h1.6v0.6h-1.6v3.6h2.1v0.6H5v-0.6h2V227H5.5v-0.6H7v-2.6h0.6v2.6h2.9v-2.6L10.6,223.8L10.6,223.8z M7.7,226.9
		v3.6h2.9v-3.6H7.7z M10,232.2l0.5-0.4c0.8,0.7,1.7,1.6,2.8,2.7l-0.5,0.5C12.1,234.2,11.2,233.3,10,232.2z"/>
	<path d="M19.6,223.8l0.6-0.2c0.2,0.5,0.4,1.1,0.6,1.7h4.3v0.6h-9.2v2.4c0,1.7-0.1,3-0.3,3.9s-0.6,1.8-1.2,2.7
		c-0.1-0.1-0.3-0.2-0.5-0.4c0.6-0.9,0.9-1.7,1.1-2.5c0.2-0.7,0.3-1.9,0.3-3.5v-3.2h4.9C20.1,225.1,19.9,224.6,19.6,223.8z
		 M23.6,227.4l0.6,0.2c-0.8,2.7-1.4,4.7-1.9,6.1h2.9v0.6h-9.1v-0.6h5.5C22.4,231.4,23.1,229.4,23.6,227.4z M16.9,227.8l0.6-0.1
		c0.4,1.3,0.8,2.9,1.3,4.5l-0.6,0.2C17.8,231,17.3,229.5,16.9,227.8z M19.7,227.3l0.6-0.1c0.3,1.3,0.6,2.8,1,4.5l-0.6,0.1
		C20.3,230.2,20,228.7,19.7,227.3z"/>
	<path d="M25.9,227.6c0.7-1.1,1.3-2.4,1.6-3.9l0.6,0.1c-0.2,0.7-0.4,1.3-0.6,1.7h2v0.6h-2.2c-0.2,0.6-0.6,1.2-1,1.9
		C26.3,227.9,26.1,227.7,25.9,227.6z M26,230h1.5v-1.7h-0.7v-0.6h2.5v0.6h-1.1v1.7h1.5v0.6h-1.5v2.8l1.4-1.3l0.1,0.7
		c-0.6,0.5-1.1,1-1.5,1.4c-0.1,0.1-0.3,0.3-0.5,0.5l-0.4-0.5c0.1-0.2,0.2-0.3,0.2-0.5c0-0.1,0.1-0.3,0.1-0.6v-2.5H26V230z M34,234
		c0.6,0,1.1,0,1.7,0c0.6,0,1.1,0,1.7,0c-0.1,0.2-0.2,0.4-0.2,0.6c-0.8,0-1.9,0-3.2-0.1c-1.2,0-2.2-0.4-2.9-1.4
		c-0.4,0.4-0.8,1-1.2,1.6l-0.5-0.4c0.3-0.4,0.7-0.9,1.3-1.5c0.1-0.1,0.1-0.2,0.2-0.2v-4.2H30V228h1.5v4.7C32,233.6,32.8,234,34,234z
		 M31,226.4c-0.2-0.7-0.5-1.4-0.8-2.4l0.5-0.2c0.4,1,0.7,1.7,0.9,2.3L31,226.4z M32.1,231.1h2.6v-1.8h-2.2v-0.7
		c0.4-0.8,0.7-1.8,1-2.8h-1.2v-0.6h1.4c0.2-0.5,0.3-1.1,0.4-1.6l0.6,0.1c-0.2,0.6-0.3,1.1-0.4,1.5h2.8v0.6h-3c-0.3,1.1-0.7,2.1-1,3
		h1.6v-2.1h0.6v2.1h1.6v0.6h-1.6v1.8h1.9v0.6h-1.9v1.8h-0.6v-1.8h-2.6C32.1,231.8,32.1,231.1,32.1,231.1z"/>
	<path d="M49,227.9c-2.2-0.8-4-2-5.3-3.5c-1.3,1.4-3,2.6-5.3,3.6c-0.1-0.1-0.2-0.3-0.4-0.6c2.6-1.1,4.5-2.4,5.6-3.9l0.7,0.1
		l-0.1,0.1c-0.1,0.1-0.1,0.1-0.1,0.2c1.4,1.5,3.1,2.6,5.2,3.3C49.1,227.6,49,227.8,49,227.9z M40,227.6h7.2v0.6H44v1.9h4.2v0.6H44
		v3.3h5v0.6H38.4V234h5v-3.3h-4.2v-0.6h4.2v-1.9H40V227.6z M39.8,231.6l0.5-0.4c0.6,0.6,1.1,1.1,1.6,1.6l-0.5,0.4
		C40.9,232.8,40.4,232.3,39.8,231.6z M45.9,233.3l-0.5-0.4c0.5-0.5,1.1-1,1.7-1.6l0.5,0.4C47,232.2,46.5,232.8,45.9,233.3z"/>
	<path d="M50.3,224.2H56v0.5h-5.7V224.2z M51,234.9h-0.6v-5.8h5.3v4.7c0.1,0.7-0.3,1.1-1.1,1.1c-0.2,0-0.5,0-0.7,0
		c0-0.2-0.1-0.4-0.1-0.6c0.1,0,0.4,0,0.8,0c0.2,0,0.4,0,0.5-0.1s0.1-0.3,0.1-0.5v-4H51V234.9z M50.9,225.7h4.3v2.4h-4.3V225.7z
		 M51.5,231.8h1.8c0.3-0.5,0.6-1.2,0.9-1.9l0.6,0.2c0,0.1-0.1,0.2-0.2,0.3c-0.3,0.6-0.5,1.1-0.7,1.3h1v0.5h-1.4v2.3h-0.6v-2.3h-1.4
		C51.5,232.2,51.5,231.8,51.5,231.8z M51.5,226.3v1.3h3.2v-1.3H51.5z M51.6,230.1l0.5-0.2c0.3,0.5,0.5,1,0.8,1.5l-0.5,0.2
		c-0.1-0.3-0.3-0.7-0.7-1.3C51.7,230.2,51.6,230.2,51.6,230.1z M56.3,234.6l-0.2-0.6c0.6,0,1.3-0.1,2.3-0.2v-3.2h-1.2v0.9h-0.6v-5.7
		h1.8v-2.1H59v2.1h1.8v4.8H59v3.1c0.6-0.1,1.1-0.1,1.5-0.1c-0.2-0.6-0.3-1.2-0.5-1.9l0.5-0.1c0.4,1.3,0.6,2.3,0.8,3.1l-0.6,0.1
		c0-0.1-0.1-0.3-0.1-0.5c0-0.1,0-0.2,0-0.2C58.5,234.4,57.1,234.5,56.3,234.6z M57.2,226.4v3.7h1.2v-3.7H57.2z M60.2,226.4H59v3.7
		h1.2V226.4z"/>
</g>
<path id="圆角矩形_1-5" class="st3" d="M9.2,189.3l23.4-6c1-0.2,2-0.2,3,0.1l19.6,6.3c0.9,0.3,1,0.7,0.2,1L35,198.2
	c-1.2,0.4-2.5,0.4-3.7,0.1l-22.5-7.9C7.8,190.1,8,189.6,9.2,189.3z"/>
<path id="圆角矩形_1_拷贝-5" class="st4" d="M8.7,201.8l23.4-6c1-0.2,2-0.2,3,0.1l19.6,6.3c0.9,0.3,1,0.7,0.2,1l-20.4,7.5
	c-1.2,0.4-2.5,0.4-3.7,0.1l-22.5-7.9C7.3,202.6,7.5,202.1,8.7,201.8z"/>
<path id="椭圆_11-5" class="st6" d="M33.3,187.1c6,0,10.8,1,10.8,2.1s-4.8,2.1-10.8,2.1s-10.8-0.9-10.8-2.1S27.3,187.1,33.3,187.1
	z"/>
<path id="矩形_46-5" class="st7" d="M8.1,189.9l25.9,8.3v9.4l-25.9-9.1V189.9L8.1,189.9z"/>
<path id="矩形_46_拷贝-5" class="st7" d="M56.1,190.4l-22.6,7.8v9.4l22.6-8.7V190.4L56.1,190.4z"/>
<path id="圆角矩形_1_拷贝-6" class="st4" d="M688.7,52.2l23.4-6c1-0.2,2-0.2,3,0.1l19.6,6.3c0.9,0.3,1,0.7,0.2,1l-20.4,7.5
	c-1.2,0.4-2.5,0.4-3.7,0.1l-22.5-7.9C687.3,53,687.5,52.5,688.7,52.2z"/>
<g id="金融侧链-2" class="st5">
	<path d="M698.9,78.3c-2.2-0.8-4-2-5.3-3.5c-1.3,1.4-3,2.6-5.3,3.6c-0.1-0.1-0.2-0.3-0.4-0.6c2.6-1.1,4.5-2.4,5.6-3.9l0.7,0.1
		l-0.1,0.1c-0.1,0.1-0.1,0.1-0.1,0.2c1.4,1.5,3.1,2.6,5.2,3.3C699.1,78,699,78.2,698.9,78.3z M690,77.9h7.2v0.6H694v1.9h4.2V81H694
		v3.3h5v0.6h-10.6v-0.6h5V81h-4.2v-0.6h4.2v-1.9H690V77.9z M689.7,82l0.5-0.4c0.6,0.6,1.1,1.1,1.6,1.6l-0.5,0.4
		C690.9,83.2,690.3,82.6,689.7,82z M695.9,83.7l-0.5-0.4c0.5-0.5,1.1-1,1.7-1.6l0.5,0.4C697,82.6,696.4,83.2,695.9,83.7z"/>
	<path d="M700.2,74.6h5.7v0.5h-5.7V74.6z M701,85.2h-0.6v-5.8h5.3v4.7c0.1,0.7-0.3,1.1-1.1,1.1c-0.2,0-0.5,0-0.7,0
		c0-0.2-0.1-0.4-0.1-0.6c0.1,0,0.4,0,0.8,0c0.2,0,0.4,0,0.5-0.1s0.1-0.3,0.1-0.5v-4H701V85.2z M700.9,76.1h4.3v2.4h-4.3V76.1z
		 M701.4,82.2h1.8c0.3-0.5,0.6-1.2,0.9-1.9l0.6,0.2c0,0.1-0.1,0.2-0.2,0.3c-0.3,0.6-0.5,1.1-0.7,1.3h1v0.5h-1.4V85h-0.6v-2.3h-1.4
		L701.4,82.2L701.4,82.2z M701.5,76.6V78h3.2v-1.3L701.5,76.6L701.5,76.6z M701.6,80.5l0.5-0.2c0.3,0.5,0.5,1,0.8,1.5l-0.5,0.2
		c-0.1-0.3-0.3-0.7-0.7-1.3C701.6,80.6,701.6,80.5,701.6,80.5z M706.3,85l-0.2-0.6c0.6,0,1.3-0.1,2.3-0.2V81h-1.2v1h-0.6v-5.7h1.8
		v-2.1h0.6v2.1h1.8V81H709v3.1c0.6-0.1,1.1-0.1,1.5-0.1c-0.2-0.6-0.3-1.2-0.5-1.9l0.5-0.1c0.4,1.3,0.6,2.3,0.8,3.1l-0.6,0.1
		c0-0.1-0.1-0.3-0.1-0.5c0-0.1,0-0.2,0-0.2C708.5,84.7,707,84.9,706.3,85z M707.2,76.8v3.7h1.2v-3.7H707.2z M710.2,76.8H709v3.7h1.2
		V76.8z"/>
	<path d="M712.2,80.2c-0.1-0.2-0.1-0.4-0.2-0.6c0-0.1,0-0.1-0.1-0.2c1-1.6,1.7-3.4,2.2-5.4l0.6,0.2c-0.3,0.9-0.6,1.9-0.9,2.8v8.3
		h-0.6v-7C712.9,79.1,712.5,79.7,712.2,80.2z M716.9,76.6h0.6V79c0,1.7-0.1,2.9-0.4,3.7l0.3-0.3c1.1,0.9,2,1.6,2.5,2.1l-0.5,0.5
		c-0.7-0.6-1.4-1.3-2.3-2.1c-0.3,0.8-1,1.7-2.3,2.6c-0.2-0.2-0.3-0.4-0.4-0.5c1.1-0.8,1.9-1.5,2.1-2.2c0.3-0.7,0.5-1.9,0.5-3.6
		L716.9,76.6L716.9,76.6z M715.1,74.7h4.1v7.2h-0.6v-6.6h-3v6.6H715L715.1,74.7L715.1,74.7z M722.2,74.1h0.6v9.7
		c0,0.9-0.4,1.4-1.2,1.4c-0.2,0-0.3,0-0.5,0c-0.1,0-0.2,0-0.3,0s-0.2,0-0.4,0c0-0.3-0.1-0.5-0.1-0.6c0.3,0,0.7,0,1,0
		s0.6-0.1,0.7-0.2c0.1-0.1,0.2-0.4,0.2-0.8V74.1z M721,82.6h-0.6v-7.5h0.6V82.6z"/>
	<path d="M723.9,78c0.7-1.1,1.3-2.4,1.6-3.9l0.6,0.1c-0.2,0.7-0.4,1.3-0.6,1.7h2v0.6h-2.2c-0.2,0.6-0.6,1.2-1,1.9
		C724.2,78.3,724.1,78.1,723.9,78z M724,80.3h1.5v-1.7h-0.7V78h2.5v0.6h-1.1v1.7h1.5v0.6h-1.5v2.8l1.4-1.3l0.1,0.7
		c-0.6,0.5-1.1,1-1.5,1.4c-0.1,0.1-0.3,0.3-0.5,0.5l-0.4-0.5c0.1-0.2,0.2-0.3,0.2-0.5c0-0.1,0.1-0.3,0.1-0.6v-2.5H724V80.3z
		 M732,84.4c0.6,0,1.1,0,1.7,0c0.6,0,1.1,0,1.7,0c-0.1,0.2-0.2,0.4-0.2,0.6c-0.8,0-1.9,0-3.2-0.1c-1.2,0-2.2-0.4-2.9-1.4
		c-0.4,0.4-0.8,1-1.2,1.6l-0.5-0.4c0.3-0.4,0.7-0.9,1.3-1.5c0.1-0.1,0.1-0.2,0.2-0.2v-4.2H728v-0.6h1.5v4.7
		C729.9,84,730.8,84.4,732,84.4z M729,76.8c-0.2-0.7-0.5-1.4-0.8-2.4l0.5-0.2c0.4,1,0.7,1.7,0.9,2.3L729,76.8z M730.1,81.5h2.6v-1.8
		h-2.2V79c0.4-0.8,0.7-1.8,1-2.8h-1.2v-0.6h1.4c0.2-0.5,0.3-1.1,0.4-1.6l0.6,0.1c-0.2,0.6-0.3,1.1-0.4,1.5h2.8v0.6h-3
		c-0.3,1.1-0.7,2.1-1,3h1.6v-2.1h0.6v2.1h1.6v0.6h-1.6v1.8h1.9v0.6h-1.9V84h-0.6v-1.8h-2.6L730.1,81.5L730.1,81.5z"/>
</g>
<path id="椭圆_11-6" class="st6" d="M713.3,37.4c6,0,10.8,1,10.8,2.2s-4.8,2.2-10.8,2.2s-10.8-1-10.8-2.2S707.3,37.4,713.3,37.4z"
	/>
<path id="圆角矩形_1-6" class="st3" d="M689.2,39.7l23.4-6c1-0.2,2-0.2,3,0.1l19.6,6.3c0.9,0.3,1,0.7,0.2,1L715,48.6
	c-1.2,0.4-2.5,0.4-3.7,0.1l-22.5-7.9C687.8,40.5,688,40,689.2,39.7z"/>
<path id="矩形_46-6" class="st7" d="M688.1,40.3l25.9,8.3V58l-25.9-9.1V40.3L688.1,40.3z"/>
<path id="矩形_46_拷贝-6" class="st7" d="M736.1,40.8l-22.6,7.8V58l22.6-8.7V40.8L736.1,40.8z"/>
<path id="圆角矩形_1_拷贝-7" class="st4" d="M688.7,201.8l23.4-6c1-0.2,2-0.2,3,0.1l19.6,6.3c0.9,0.3,1,0.7,0.2,1l-20.4,7.5
	c-1.2,0.4-2.5,0.4-3.7,0.1l-22.5-7.9C687.3,202.6,687.5,202.1,688.7,201.8z"/>
<path id="椭圆_11-7" class="st6" d="M713.3,187.1c6,0,10.8,1,10.8,2.1s-4.8,2.1-10.8,2.1s-10.8-0.9-10.8-2.1
	S707.3,187.1,713.3,187.1z"/>
<path id="圆角矩形_1-7" class="st3" d="M689.2,189.3l23.4-6c1-0.2,2-0.2,3,0.1l19.6,6.3c0.9,0.3,1,0.7,0.2,1l-20.4,7.5
	c-1.2,0.4-2.5,0.4-3.7,0.1l-22.5-7.9C687.8,190.1,688,189.6,689.2,189.3z"/>
<path id="矩形_46-7" class="st7" d="M688.1,189.9l25.9,8.3v9.4l-25.9-9.1V189.9L688.1,189.9z"/>
<path id="矩形_46_拷贝-7" class="st7" d="M736.1,190.4l-22.6,7.8v9.4l22.6-8.7V190.4L736.1,190.4z"/>
<path id="圆角矩形_1_拷贝-8" class="st4" d="M912.7,52.2l23.4-6c1-0.2,2-0.2,3,0.1l19.6,6.3c0.9,0.3,1,0.7,0.2,1l-20.4,7.5
	c-1.2,0.4-2.5,0.4-3.7,0.1l-22.5-7.9C911.3,53,911.5,52.5,912.7,52.2z"/>
<g id="去中心化交易侧链-2" class="st5">
	<path d="M893.3,74.1h0.6v2.2h4.3v0.6H894v2.8h5.3v0.6H893l0.5,0.2c-0.7,0.9-1.8,2.1-3.1,3.6c0.8,0,2.2-0.1,4-0.1
		c1.1,0,1.9,0,2.4-0.1c-0.7-0.7-1.3-1.4-1.9-2l0.5-0.4c1.3,1.3,2.3,2.4,3.2,3.4l-0.6,0.4c-0.3-0.3-0.5-0.6-0.7-0.8
		c-2.1,0.1-4.4,0.1-6.8,0.3c-0.5,0-0.8,0.1-1.1,0.1l-0.3-0.7c0.4-0.2,0.7-0.4,0.9-0.7c1-1.1,1.9-2.1,2.7-3.2H888v-0.6h5.3v-2.8H889
		v-0.6h4.3V74.1z"/>
	<path d="M900.7,76.6h4.6V74h0.7v2.6h4.6v5.1h-0.7v-0.6H906v4.4h-0.7v-4.4h-3.9v0.6h-0.7L900.7,76.6L900.7,76.6z M901.4,77.2v3.2
		h3.9v-3.2H901.4z M909.9,77.2H906v3.2h3.9V77.2z"/>
	<path d="M913.2,77.6l0.7,0.2c-0.4,1.5-0.8,3.1-1.2,4.6c-0.3-0.1-0.5-0.2-0.7-0.2C912.5,80.7,912.9,79.2,913.2,77.6z M915,76.3h0.7
		v6.8c0,0.4,0.1,0.8,0.3,0.9c0.2,0.2,0.5,0.3,0.9,0.3h2.3c0.9,0,1.3-0.3,1.4-1c0.1-0.4,0.1-0.9,0.2-1.6c0.3,0.1,0.5,0.2,0.7,0.2
		c-0.1,0.7-0.2,1.3-0.3,1.7c-0.2,0.9-0.8,1.4-1.9,1.3h-2.6c-1.1,0-1.7-0.5-1.7-1.7L915,76.3L915,76.3z M918.7,77.6
		c-0.6-1.1-1.2-2.2-1.9-3.3l0.6-0.3c0.6,1,1.3,2,2,3.2L918.7,77.6z M922.7,81.7c-0.6-1.4-1.2-2.8-1.9-4.1l0.6-0.3
		c0.7,1.4,1.4,2.8,2,4.1L922.7,81.7z"/>
	<path d="M924.4,80.6c-0.1-0.2-0.3-0.5-0.4-0.6c1.4-1.6,2.5-3.5,3.3-5.7l0.7,0.2c-0.4,1-0.9,2-1.4,3v8H926v-6.9
		C925.4,79.2,924.9,79.9,924.4,80.6z M927.6,81.9c-0.1-0.2-0.2-0.4-0.4-0.6c1-0.5,2-1,2.9-1.6v-5.3h0.7v4.9c1.3-1,2.4-2.1,3.4-3.5
		l0.6,0.4c-1.2,1.5-2.5,2.8-4,3.9v3.3c0,0.4,0.1,0.7,0.3,0.8c0.2,0.2,0.5,0.2,0.9,0.2h1.3c0.7,0,1.1-0.3,1.2-0.8
		c0.1-0.4,0.2-1.1,0.3-2.1c0.3,0.1,0.5,0.2,0.6,0.2c-0.1,0.8-0.2,1.5-0.3,2c-0.1,0.9-0.8,1.3-1.9,1.3h-1.5c-1.1,0-1.7-0.5-1.6-1.7
		v-2.9C929.3,81,928.4,81.5,927.6,81.9z"/>
	<path d="M939.6,79.2c0.6,1.2,1.3,2.2,2,2.9c0.7-0.6,1.4-1.6,2-3l0.6,0.3c-0.6,1.4-1.3,2.4-2.1,3.1c1.1,0.8,2.7,1.5,5,2
		c-0.1,0.2-0.2,0.4-0.4,0.7c-2.4-0.6-4.1-1.4-5.1-2.2c-1,0.8-2.7,1.6-5.2,2.3l-0.4-0.7c2.4-0.6,4.1-1.3,5-2.1
		c-0.7-0.7-1.4-1.7-2.1-3L939.6,79.2z M936.2,75.8h5.5c-0.2-0.5-0.5-1-0.8-1.5l0.6-0.3c0.3,0.5,0.6,1,0.9,1.5l-0.6,0.3h5.3v0.6
		h-10.9V75.8z M939.8,77.2l0.5,0.5c-1.1,0.9-2.3,1.8-3.6,2.7c-0.1-0.2-0.2-0.4-0.4-0.6C937.5,79,938.7,78.2,939.8,77.2z M946.5,80.1
		c-1-0.8-2.2-1.6-3.5-2.4l0.4-0.5c1.1,0.7,2.3,1.5,3.5,2.3L946.5,80.1z"/>
	<path d="M948.5,82.3c-0.1-0.1-0.2-0.3-0.4-0.5c1.2-0.7,2.2-1.7,3-2.8l0.6,0.3c-0.2,0.3-0.5,0.6-0.7,0.9h7.5c0,0.8-0.1,1.7-0.1,2.7
		c0,1.6-0.8,2.4-2.3,2.3c-0.4,0-0.9,0-1.4,0c0-0.2-0.1-0.4-0.1-0.7c0.5,0,1,0.1,1.5,0.1c0.1,0,0.1,0,0.2,0c1,0,1.5-0.6,1.5-1.8
		c0.1-0.9,0.1-1.6,0.1-2.1H956c-0.4,2-1.8,3.6-4.1,4.7c-0.2-0.2-0.3-0.4-0.4-0.5c2.2-1,3.5-2.4,3.9-4.2h-2c-0.7,1.7-2.3,3-4.9,4
		c-0.1-0.2-0.2-0.3-0.4-0.5c2.4-0.9,3.9-2,4.6-3.5h-2.1C949.9,81.3,949.2,81.8,948.5,82.3z M949.6,74.6h8.4v4.2h-8.4V74.6z
		 M950.2,75.1v1.3h7.1v-1.3H950.2z M950.2,77v1.3h7.1V77H950.2z"/>
	<path d="M960.2,80.2c-0.1-0.2-0.1-0.4-0.2-0.6c0-0.1,0-0.1-0.1-0.2c1-1.6,1.7-3.4,2.2-5.4l0.6,0.2c-0.3,0.9-0.6,1.9-0.9,2.8v8.3
		h-0.6v-7C960.8,79.1,960.5,79.7,960.2,80.2z M964.8,76.6h0.6V79c0,1.7-0.1,2.9-0.4,3.7l0.3-0.3c1.1,0.9,2,1.6,2.5,2.1l-0.5,0.5
		c-0.7-0.6-1.4-1.3-2.3-2.1c-0.3,0.8-1,1.7-2.3,2.6c-0.2-0.2-0.3-0.4-0.4-0.5c1.1-0.8,1.9-1.5,2.1-2.2c0.3-0.7,0.5-1.9,0.5-3.6
		L964.8,76.6L964.8,76.6z M963.1,74.7h4.1v7.2h-0.6v-6.6h-3v6.6H963L963.1,74.7L963.1,74.7z M970.2,74.1h0.6v9.7
		c0,0.9-0.4,1.4-1.2,1.4c-0.2,0-0.3,0-0.5,0c-0.1,0-0.2,0-0.3,0s-0.2,0-0.4,0c0-0.3-0.1-0.5-0.1-0.6c0.3,0,0.7,0,1,0
		s0.6-0.1,0.7-0.2c0.1-0.1,0.2-0.4,0.2-0.8V74.1z M969,82.6h-0.6v-7.5h0.6V82.6z"/>
	<path d="M971.9,78c0.7-1.1,1.3-2.4,1.6-3.9l0.6,0.1c-0.2,0.7-0.4,1.3-0.6,1.7h2v0.6h-2.2c-0.2,0.6-0.6,1.2-1,1.9
		C972.2,78.3,972.1,78.1,971.9,78z M972,80.3h1.5v-1.7h-0.7V78h2.5v0.6h-1.1v1.7h1.5v0.6h-1.5v2.8l1.4-1.3l0.1,0.7
		c-0.6,0.5-1.1,1-1.5,1.4c-0.1,0.1-0.3,0.3-0.5,0.5l-0.4-0.5c0.1-0.2,0.2-0.3,0.2-0.5c0-0.1,0.1-0.3,0.1-0.6v-2.5H972V80.3z
		 M980,84.4c0.6,0,1.1,0,1.7,0c0.6,0,1.1,0,1.7,0c-0.1,0.2-0.2,0.4-0.2,0.6c-0.8,0-1.9,0-3.2-0.1c-1.2,0-2.2-0.4-2.9-1.4
		c-0.4,0.4-0.8,1-1.2,1.6l-0.5-0.4c0.3-0.4,0.7-0.9,1.3-1.5c0.1-0.1,0.1-0.2,0.2-0.2v-4.2H976v-0.6h1.5v4.7
		C977.9,84,978.8,84.4,980,84.4z M977,76.8c-0.2-0.7-0.5-1.4-0.8-2.4l0.5-0.2c0.4,1,0.7,1.7,0.9,2.3L977,76.8z M978.1,81.5h2.6v-1.8
		h-2.2V79c0.4-0.8,0.7-1.8,1-2.8h-1.2v-0.6h1.4c0.2-0.5,0.3-1.1,0.4-1.6l0.6,0.1c-0.2,0.6-0.3,1.1-0.4,1.5h2.8v0.6h-3
		c-0.3,1.1-0.7,2.1-1,3h1.6v-2.1h0.6v2.1h1.6v0.6h-1.6v1.8h1.9v0.6h-1.9V84h-0.6v-1.8h-2.6L978.1,81.5L978.1,81.5z"/>
</g>
<path id="椭圆_11-8" class="st6" d="M937.3,37.4c6,0,10.8,1,10.8,2.2s-4.8,2.2-10.8,2.2s-10.8-1-10.8-2.2S931.3,37.4,937.3,37.4z"
	/>
<path id="圆角矩形_1-8" class="st3" d="M913.2,39.7l23.4-6c1-0.2,2-0.2,3,0.1l19.6,6.3c0.9,0.3,1,0.7,0.2,1L939,48.6
	c-1.2,0.4-2.5,0.4-3.7,0.1l-22.5-7.9C911.8,40.5,912,40,913.2,39.7z"/>
<path id="矩形_46-8" class="st7" d="M912.1,40.3l25.9,8.3V58l-25.9-9.1V40.3L912.1,40.3z"/>
<path id="矩形_46_拷贝-8" class="st7" d="M960.1,40.8l-22.6,7.8V58l22.6-8.7V40.8L960.1,40.8z"/>
<path id="圆角矩形_1_拷贝-9" class="st4" d="M912.7,201.8l23.4-6c1-0.2,2-0.2,3,0.1l19.6,6.3c0.9,0.3,1,0.7,0.2,1l-20.4,7.5
	c-1.2,0.4-2.5,0.4-3.7,0.1l-22.5-7.9C911.3,202.6,911.5,202.1,912.7,201.8z"/>
<g id="数字资产发现侧链-2" class="st5">
	<g>
		<path d="M888.4,230.5h1.9c0.1-0.2,0.3-0.5,0.5-0.8c0,0,0,0,0-0.1l0.6,0.2c-0.1,0.2-0.3,0.5-0.4,0.7h2.9c-0.2,1.1-0.6,2-1.3,2.6
			c0.5,0.2,0.9,0.4,1.3,0.6l-0.4,0.5c-0.5-0.2-0.9-0.5-1.4-0.7c-0.9,0.6-2,1.1-3.4,1.5c-0.1-0.2-0.2-0.4-0.3-0.6
			c1.3-0.3,2.4-0.7,3.2-1.2c-0.6-0.3-1.4-0.6-2.3-1.1c0.3-0.4,0.6-0.8,0.8-1.1h-1.6L888.4,230.5L888.4,230.5z M891.3,223.8h0.6v2.6
			h2.4v0.5h-2.4v1l0.3-0.3c0.6,0.4,1.2,0.8,1.9,1.2l-0.4,0.5c-0.3-0.2-0.9-0.6-1.8-1.2v1.2h-0.6v-1.8c-0.6,0.8-1.4,1.5-2.5,2
			c-0.1-0.2-0.2-0.3-0.4-0.5c1.1-0.5,2-1.1,2.8-2.1h-2.6v-0.5h2.8L891.3,223.8L891.3,223.8z M888.9,224.7l0.4-0.3
			c0.6,0.6,1.1,1.1,1.4,1.4l-0.5,0.4C890,225.8,889.6,225.4,888.9,224.7z M890,232c0.7,0.3,1.4,0.6,2,0.8c0.6-0.5,1-1.1,1.2-1.8
			h-2.5C890.5,231.3,890.3,231.6,890,232z M894.3,224.7c-0.5,0.6-1,1-1.4,1.4l-0.4-0.4c0.4-0.4,0.9-0.8,1.4-1.4L894.3,224.7z
			 M893.7,234.6c1.2-0.9,2.1-1.8,2.7-2.6c-0.6-1-1-2.4-1.2-4.2c0,0-0.1,0.1-0.1,0.2c-0.2,0.4-0.4,0.7-0.5,0.8
			c-0.2-0.2-0.3-0.3-0.5-0.4c0.9-1.3,1.6-3,2-4.9l0.6,0.1c-0.2,0.7-0.4,1.4-0.7,2.1h3.5v0.6h-1c-0.2,2.5-0.7,4.4-1.5,5.6
			c0.5,0.8,1.4,1.6,2.5,2.4c-0.2,0.2-0.3,0.4-0.4,0.5c-1.1-0.8-1.9-1.6-2.4-2.4c-0.6,0.8-1.4,1.6-2.6,2.5
			C894.1,234.9,893.9,234.8,893.7,234.6z M895.6,227c0.2,2,0.6,3.5,1.2,4.4c0.6-1.1,1-2.7,1.2-5h-2.2
			C895.8,226.6,895.7,226.7,895.6,227z"/>
		<path d="M905.8,229.8l2.7-1.6h-6v-0.6h6.8v0.7l-2.9,1.8v0.6h5.2v0.6h-5.2v2.1c0.1,0.9-0.4,1.4-1.4,1.5c-0.7,0-1.2,0-1.5,0
			c0-0.2-0.1-0.4-0.1-0.7c0.2,0,0.4,0,0.6,0c0.1,0,0.2,0,0.4,0c0.1,0,0.3,0,0.5,0c0.4,0,0.6-0.1,0.7-0.2c0.1-0.1,0.2-0.4,0.2-0.7v-2
			h-5.4v-0.6h5.4V229.8z M900.8,225.5h10.5v2.1h-0.6v-1.5h-9.2v1.5h-0.6v-2.1H900.8z M905.4,223.9l0.6-0.2c0.2,0.4,0.4,0.9,0.7,1.6
			l-0.6,0.2C905.9,224.9,905.7,224.3,905.4,223.9z"/>
		<path d="M912.4,228.5c1-0.7,1.9-1.4,2.8-2.1c0,0.1,0.1,0.3,0.3,0.6c-0.9,0.7-1.8,1.4-2.7,2.1L912.4,228.5z M917.8,230.7h0.6
			c0,0.4,0,0.8-0.1,1.2v0.1c0,0.1-0.1,0.2-0.1,0.3c1.5,0.6,3.2,1.2,5,2l-0.4,0.6c-1.8-0.8-3.5-1.5-4.9-2.1c-0.5,0.9-2.2,1.6-4.9,2.1
			c-0.1-0.2-0.2-0.4-0.3-0.7c3.1-0.4,4.8-1.2,5-2.5C917.7,231.6,917.8,231.2,917.8,230.7z M914.7,225.8c-0.6-0.5-1.2-1-1.8-1.4
			l0.4-0.5c0.6,0.4,1.2,0.8,1.9,1.4L914.7,225.8z M914.1,229.5h7.8v3.4h-0.6V230h-6.6v2.8h-0.6L914.1,229.5L914.1,229.5z M916,229.1
			c-0.1-0.2-0.2-0.4-0.4-0.6c2.4-0.5,3.6-1.6,3.8-3.1h-1.9c-0.3,0.5-0.7,1.1-1.2,1.6c-0.2-0.2-0.3-0.3-0.5-0.4
			c0.8-0.8,1.4-1.8,1.9-2.8l0.6,0.2c-0.1,0.3-0.3,0.6-0.4,0.9h5.3v0.6l-0.7,1.4c-0.2-0.1-0.4-0.2-0.6-0.2l0.7-1.2H920
			c0,0.1,0,0.2-0.1,0.3c0.6,1.5,1.8,2.5,3.6,2.8c-0.1,0.2-0.2,0.4-0.3,0.6c-1.9-0.5-3-1.4-3.5-2.7
			C919.4,227.5,918.1,228.4,916,229.1z"/>
		<path d="M925.5,228.5h5.7c0.5-0.7,0.9-1.5,1.4-2.3l0.6,0.3c-0.4,0.6-0.8,1.3-1.3,1.9h3.4v0.6h-9.1v0.9c0.1,2.1-0.4,3.8-1.4,5
			c-0.2-0.2-0.4-0.3-0.5-0.5c0.5-0.6,0.8-1.2,1-1.9s0.3-1.6,0.3-2.7v-1.3H925.5z M929.7,223.9l0.6-0.2c0.2,0.5,0.4,1,0.5,1.4h4.8
			v0.6h-11v-0.6h5.5C930,224.9,929.9,224.5,929.7,223.9C929.7,224,929.7,224,929.7,223.9z M927.2,226.5l0.5-0.4
			c0.3,0.4,0.8,1,1.3,1.7l-0.6,0.4C928.1,227.7,927.6,227.1,927.2,226.5z"/>
		<path d="M937.5,226.4h2.8c0.2-1,0.4-1.8,0.5-2.7l0.7,0.1c-0.2,1.1-0.4,1.9-0.5,2.6h6.6v0.6h-6.7c-0.2,0.6-0.3,1.2-0.5,1.7h5.9v0.6
			c-0.6,1.4-1.4,2.6-2.5,3.5c0.9,0.6,2.2,1.1,3.8,1.5c-0.1,0.2-0.3,0.4-0.4,0.7c-1.7-0.5-3-1-4-1.7c-1,0.6-2.4,1.2-4.3,1.9
			c-0.1-0.2-0.2-0.4-0.4-0.7c1.8-0.5,3.2-1,4.2-1.6c-1.1-0.9-1.9-2.1-2.3-3.5h-0.1c-0.8,1.9-1.9,3.7-3.4,5.2
			c-0.2-0.2-0.4-0.4-0.5-0.5c2-1.9,3.3-4.3,4-7h-3.3v-0.7c0.3-0.6,0.6-1.3,0.8-2.1l0.7,0.2C938.1,225.2,937.8,225.9,937.5,226.4z
			 M945.6,229.3h-4.7c0.5,1.3,1.2,2.3,2.3,3.1C944.3,231.6,945.1,230.6,945.6,229.3z M943.7,224.4l0.4-0.5c0.6,0.4,1.3,0.9,2,1.4
			l-0.4,0.5C945,225.3,944.3,224.8,943.7,224.4z"/>
		<path d="M948.3,230.8c1.2-1,2.2-2.3,3.2-4l0.6,0.3c-0.4,0.7-0.8,1.3-1.3,1.9v6.1h-0.7v-5.2c-0.5,0.6-1,1.1-1.6,1.6
			C948.5,231.2,948.4,231,948.3,230.8z M948.9,227.5c-0.1-0.2-0.3-0.4-0.4-0.6c1.1-0.9,2.1-1.9,2.9-3.1l0.6,0.4
			C951.2,225.4,950.1,226.5,948.9,227.5z M952.5,228.2h7.2v0.6h-2.3v4.4c0.1,1-0.5,1.6-1.6,1.5c-0.3,0-0.5,0-0.7,0
			c-0.1,0-0.2,0-0.4,0c-0.1,0-0.3,0-0.5,0c0-0.2-0.1-0.5-0.1-0.7c0.5,0,1,0,1.6,0c0.4,0,0.7-0.1,0.8-0.2c0.2-0.1,0.2-0.4,0.2-0.7
			v-4.4h-4.2V228.2z M953.2,224.6h5.8v0.6h-5.8V224.6z"/>
		<path d="M960.5,229.9c-0.1-0.2-0.1-0.4-0.2-0.6c0-0.1,0-0.1-0.1-0.2c1-1.6,1.7-3.4,2.2-5.4l0.6,0.2c-0.3,0.9-0.6,1.9-0.9,2.8v8.3
			h-0.6v-7C961.2,228.8,960.9,229.4,960.5,229.9z M965.2,226.3h0.6v2.4c0,1.7-0.1,2.9-0.4,3.7l0.3-0.3c1.1,0.9,2,1.6,2.5,2.1
			l-0.5,0.5c-0.7-0.6-1.4-1.3-2.3-2.1c-0.3,0.8-1,1.7-2.3,2.6c-0.2-0.2-0.3-0.4-0.4-0.5c1.1-0.8,1.9-1.5,2.1-2.2
			c0.3-0.7,0.5-1.9,0.5-3.6L965.2,226.3L965.2,226.3z M963.4,224.4h4.1v7.2H967V225h-3v6.6h-0.6V224.4z M970.6,223.8h0.6v9.7
			c0,0.9-0.4,1.4-1.2,1.4c-0.2,0-0.3,0-0.5,0c-0.1,0-0.2,0-0.3,0s-0.2,0-0.4,0c0-0.3-0.1-0.5-0.1-0.6c0.3,0,0.7,0,1,0
			s0.6-0.1,0.7-0.2c0.1-0.1,0.2-0.4,0.2-0.8V223.8z M969.3,232.3h-0.6v-7.5h0.6V232.3z"/>
		<path d="M972.3,227.7c0.7-1.1,1.3-2.4,1.6-3.9l0.6,0.1c-0.2,0.7-0.4,1.3-0.6,1.7h2v0.6h-2.2c-0.2,0.6-0.6,1.2-1,1.9
			C972.6,227.9,972.4,227.8,972.3,227.7z M972.3,230h1.5v-1.7h-0.7v-0.6h2.5v0.6h-1.1v1.7h1.5v0.6h-1.5v2.8l1.4-1.3l0.1,0.7
			c-0.6,0.5-1.1,1-1.5,1.4c-0.1,0.1-0.3,0.3-0.5,0.5l-0.4-0.5c0.1-0.2,0.2-0.3,0.2-0.5c0-0.1,0.1-0.3,0.1-0.6v-2.5h-1.5L972.3,230
			L972.3,230z M980.3,234.1c0.6,0,1.1,0,1.7,0c0.6,0,1.1,0,1.7,0c-0.1,0.2-0.2,0.4-0.2,0.6c-0.8,0-1.9,0-3.2-0.1
			c-1.2,0-2.2-0.4-2.9-1.4c-0.4,0.4-0.8,1-1.2,1.6l-0.5-0.4c0.3-0.4,0.7-0.9,1.3-1.5c0.1-0.1,0.1-0.2,0.2-0.2v-4.2h-0.9V228h1.5v4.7
			C978.3,233.6,979.2,234.1,980.3,234.1z M977.3,226.5c-0.2-0.7-0.5-1.4-0.8-2.4l0.5-0.2c0.4,1,0.7,1.7,0.9,2.3L977.3,226.5z
			 M978.5,231.2h2.6v-1.8h-2.2v-0.7c0.4-0.8,0.7-1.8,1-2.8h-1.2v-0.6h1.4c0.2-0.5,0.3-1.1,0.4-1.6l0.6,0.1c-0.2,0.6-0.3,1.1-0.4,1.5
			h2.8v0.6h-3c-0.3,1.1-0.7,2.1-1,3h1.6v-2.1h0.6v2.1h1.6v0.6h-1.6v1.8h1.9v0.6h-1.9v1.8H981v-1.8h-2.6L978.5,231.2L978.5,231.2z"/>
	</g>
</g>
<path id="椭圆_11-9" class="st6" d="M937.3,187.1c6,0,10.8,1,10.8,2.1s-4.8,2.1-10.8,2.1s-10.8-0.9-10.8-2.1
	S931.3,187.1,937.3,187.1z"/>
<g id="组_33-7">
	<path id="圆角矩形_1-9" class="st3" d="M913.2,189.3l23.4-6c1-0.2,2-0.2,3,0.1l19.6,6.3c0.9,0.3,1,0.7,0.2,1l-20.4,7.5
		c-1.2,0.4-2.5,0.4-3.7,0.1l-22.5-7.9C911.8,190.1,912,189.6,913.2,189.3z"/>
	<path id="矩形_46-9" class="st7" d="M912.1,189.9l25.9,8.3v9.4l-25.9-9.1V189.9L912.1,189.9z"/>
	<path id="矩形_46_拷贝-9" class="st7" d="M960.1,190.4l-22.6,7.8v9.4l22.6-8.7V190.4L960.1,190.4z"/>
</g>
<g>
	<path d="M21,37h13V11H21V37z M29.1,14.3h3.2v3.2h-3.2C29.1,17.5,29.1,14.3,29.1,14.3z M29.1,20.8h3.2V24h-3.2
		C29.1,24,29.1,20.8,29.1,20.8z M29.1,27.2h3.2v3.2h-3.2C29.1,30.4,29.1,27.2,29.1,27.2z M22.6,14.3h3.2v3.2h-3.2V14.3z M22.6,20.8
		h3.2V24h-3.2V20.8z M22.6,27.2h3.2v3.2h-3.2V27.2z M35.7,19.1H47v1.6H35.7V19.1z M35.7,37h3.2v-6.5h4.9V37H47V22.4H35.7V37z"/>
</g>
<g>
	<path d="M40.8,105.8L40.8,105.8c1.2-0.9,1.8-1.9,1.8-3v-3.1c0-2.7-4.3-4.7-9.9-4.7s-9.9,2.1-9.9,4.7v0.9c-1.2,0.8-1.8,1.7-1.8,2.8
		v3.1c0,1.2,0.8,2.3,2.2,3.2v2.4c0,2.8,4.3,5,9.9,5s9.9-2.2,9.9-5v-3.2C43,107.7,42.2,106.7,40.8,105.8z M42.2,108.9
		c0,2.4-4.3,4.4-9.1,4.4c-0.2,0-0.4,0-0.6,0c-0.1,0-0.2,0-0.2,0c-0.2,0-0.4,0-0.6,0c-0.1,0-0.2,0-0.3,0c-0.1,0-0.1,0-0.2,0
		c-3-0.3-5.6-1.4-6.7-2.8c0,0,0,0-0.1-0.1c0,0,0-0.1-0.1-0.1c0.6,0.2,1.1,0.4,1.7,0.6c1.7,1.1,4.2,1.7,6.9,1.7c5,0,8.4-1.9,8.4-3.6
		c0-0.5-0.3-1-0.9-1.5v-0.1v-0.1c0-0.1,0-0.1,0-0.2V107c0-0.1,0-0.1,0-0.2v-0.1l0,0C41.5,107.1,42.2,107.9,42.2,108.9z M34.6,113.9
		L34.6,113.9c0.2,0,0.5-0.1,0.6-0.1s0.1,0,0.2,0c0.2,0,0.4-0.1,0.6-0.1v2.2c-0.5,0.1-0.9,0.2-1.5,0.2L34.6,113.9
		C34.5,113.9,34.5,113.9,34.6,113.9z M36.7,113.6L36.7,113.6c0.2-0.1,0.5-0.1,0.6-0.2h0.1c0.2,0,0.2-0.1,0.4-0.1v2.2
		c-0.3,0.1-0.7,0.2-1.1,0.2V113.6L36.7,113.6z M38.5,113.1C38.5,113.1,38.6,113.1,38.5,113.1c0.1,0,0.1-0.1,0.2-0.1
		c0.2-0.1,0.3-0.1,0.5-0.2c0.1,0,0.1,0,0.2-0.1l0,0v2.2c-0.2,0.1-0.5,0.2-0.7,0.3L38.5,113.1L38.5,113.1z M40,112.5
		c0.1,0,0.2-0.1,0.2-0.1s0.1,0,0.1-0.1c0.2-0.1,0.3-0.2,0.4-0.2l0,0v2.1c-0.2,0.2-0.5,0.3-0.7,0.5V112.5L40,112.5z M25.4,112
		c0.2,0.2,0.5,0.3,0.7,0.4v2.2c-0.2-0.2-0.5-0.3-0.7-0.5V112z M23.6,101.6L23.6,101.6c0.1,0.2,0.2,0.2,0.3,0.3L24,102
		c0.1,0.1,0.2,0.2,0.2,0.2s0.1,0,0.1,0.1c0,0,0.1,0,0.1,0.1v2.1c-0.5-0.5-0.7-1-0.7-1.7L23.6,101.6L23.6,101.6z M25.5,103.2
		L25.5,103.2c0.2,0.1,0.2,0.2,0.2,0.2v2.1c-0.2-0.2-0.5-0.3-0.7-0.5v-2.1l0,0C25.2,103,25.3,103.1,25.5,103.2z M26.6,103.8
		c0.2,0.1,0.3,0.1,0.5,0.2h0.1c0,0,0,0,0.1,0v2.2c-0.2-0.1-0.5-0.2-0.7-0.3v-2.2l0,0C26.6,103.8,26.6,103.8,26.6,103.8z M28.4,104.3
		c0.2,0.1,0.4,0.1,0.6,0.2l0,0v2.2c-0.4-0.1-0.7-0.2-1.1-0.2v-2.2C28.1,104.2,28.2,104.3,28.4,104.3L28.4,104.3z M30.5,104.7
		c0.2,0,0.4,0.1,0.6,0.1l0,0c0,0,0,0,0.1,0v2.2c-0.5,0-1-0.1-1.5-0.2v-2.2c0.2,0,0.4,0.1,0.6,0.1C30.4,104.7,30.5,104.7,30.5,104.7z
		 M32.7,104.9c0.2,0,0.5,0,0.7,0c0,0,0,0,0.1,0v2.2c-0.2,0-0.5,0-0.7,0s-0.5,0-0.7,0v-2.2c0,0,0,0,0.1,0S32.5,104.9,32.7,104.9z
		 M34.2,104.8c0.2,0,0.4,0,0.6-0.1c0.1,0,0.1,0,0.2,0c0.2,0,0.4-0.1,0.6-0.1v2.2c-0.2,0-0.2,0.1-0.4,0.1c-0.1,0-0.2,0-0.2,0
		c-0.2,0-0.6,0.1-0.9,0.1L34.2,104.8L34.2,104.8L34.2,104.8z M37,104.3L37,104.3c0.2-0.1,0.3-0.1,0.5-0.2v2.2c-0.1,0-0.1,0-0.2,0.1
		l0,0c-0.1,0-0.2,0.1-0.2,0.1c-0.2,0.1-0.4,0.1-0.6,0.2h-0.1v-2.2h0.1C36.7,104.4,36.8,104.4,37,104.3z M38.3,103.9
		c0.2-0.1,0.3-0.1,0.5-0.2c0.1,0,0.1,0,0.2-0.1l0,0v2.2c-0.2,0.1-0.5,0.2-0.7,0.3V103.9C38.2,104,38.2,104,38.3,103.9L38.3,103.9z
		 M40,103.2c0.2-0.1,0.3-0.2,0.4-0.2l0,0v2.1c-0.2,0.2-0.5,0.3-0.7,0.5v-2.2c0.1,0,0.2-0.1,0.2-0.1C39.9,103.2,39.9,103.2,40,103.2z
		 M24.7,107.4c0.1,0,0.1,0,0.2,0.1c0.2,0.1,0.3,0.1,0.5,0.2h0.1c0,0,0,0,0.1,0v2.2c-0.2-0.1-0.5-0.2-0.7-0.3L24.7,107.4L24.7,107.4z
		 M26.6,108c0.2,0.1,0.4,0.1,0.6,0.2h0.1v2.2h-0.1c-0.2-0.1-0.4-0.1-0.6-0.2c-0.2,0-0.3-0.1-0.5-0.2v-2.2
		C26.2,107.9,26.4,107.9,26.6,108C26.6,107.9,26.6,107.9,26.6,108z M28.7,108.3c0.2,0,0.4,0.1,0.6,0.1l0,0c0,0,0,0,0.1,0v2.2
		c-0.2,0-0.5-0.1-0.7-0.1s-0.2,0-0.3-0.1c-0.2,0-0.2,0-0.4-0.1v-2.2C28.2,108.2,28.4,108.2,28.7,108.3
		C28.6,108.3,28.7,108.3,28.7,108.3z M30.9,108.5c0.2,0,0.5,0,0.7,0v2.2l0,0c-0.2,0-0.5,0-0.7,0s-0.5,0-0.7,0v-2.2c0,0,0,0,0.1,0
		S30.7,108.5,30.9,108.5z M33.3,110.5c-0.1,0-0.2,0-0.2,0c-0.2,0-0.4,0.1-0.6,0.1c-0.1,0-0.2,0-0.2,0l0,0v-2.2c0.2,0,0.2,0,0.4,0
		s0.2,0,0.4-0.1c0.2,0,0.3-0.1,0.6-0.1c0.1,0,0.2,0,0.2,0v2.2h-0.1C33.6,110.5,33.5,110.5,33.3,110.5z M34.8,108
		c0.2,0,0.3-0.1,0.5-0.1s0.2-0.1,0.3-0.1v2.2c-0.3,0.1-0.7,0.2-1.1,0.2V108C34.6,108.1,34.7,108.1,34.8,108z M36.3,107.6
		C36.4,107.6,36.4,107.6,36.3,107.6c0.2-0.1,0.3-0.2,0.5-0.2c0.1,0,0.2-0.1,0.2-0.1v2.2c-0.2,0.1-0.5,0.2-0.7,0.3V107.6L36.3,107.6z
		 M37.8,109.2v-2.1c0.2-0.1,0.5-0.2,0.7-0.2v1.9C38.3,108.9,38.1,109,37.8,109.2z M40,106.4c0,0.3-0.1,0.6-0.2,0.8v0.1
		c-0.1,0.2-0.2,0.5-0.5,0.6l-0.1,0.1l0,0v-1.6c0.2-0.1,0.5-0.2,0.7-0.4C40,106,40,106.4,40,106.4z M23.2,106.6L23.2,106.6
		c0.2,0.1,0.3,0.2,0.5,0.2c0,0,0.1,0,0.1,0.1c0.1,0,0.2,0.1,0.2,0.1v1.8h-0.6c-0.1-0.1-0.2-0.1-0.2-0.2V106.6L23.2,106.6z
		 M26.9,112.8c0.2,0.1,0.5,0.2,0.7,0.3v2.2c-0.2-0.1-0.5-0.2-0.7-0.3V112.8z M28.3,113.4c0.3,0.1,0.7,0.2,1.1,0.2v2.2
		c-0.4-0.1-0.7-0.2-1.1-0.2V113.4z M30.1,113.8c0.1,0,0.1,0,0.2,0s0.2,0,0.2,0c0.2,0,0.2,0,0.4,0.1c0.2,0,0.3,0,0.4,0.1
		c0.1,0,0.2,0,0.2,0v2.2c-0.5,0-1-0.1-1.5-0.2L30.1,113.8L30.1,113.8z M41.9,101.6v1.2c0,0.6-0.2,1.1-0.7,1.7v-2.1
		c0,0,0.1,0,0.1-0.1c0,0,0.1,0,0.1-0.1c0.1-0.1,0.2-0.2,0.2-0.2l0.1-0.1C41.6,101.9,41.8,101.8,41.9,101.6L41.9,101.6z M32.7,95.7
		c5.1,0,9.1,1.7,9.1,4c0,2.4-4.3,4.4-9.1,4.4c-4.9,0-9.1-2.1-9.1-4.4C23.6,97.4,27.6,95.7,32.7,95.7z M21.7,106.4v-1.2l0,0
		c0.1,0.1,0.2,0.2,0.2,0.3l0.1,0.1c0.1,0.1,0.2,0.2,0.2,0.2s0.1,0,0.1,0.1c0,0,0.1,0,0.1,0.1v2.1C22,107.6,21.7,107.1,21.7,106.4z
		 M24,112v-1.2c0.2,0.2,0.5,0.5,0.7,0.7v2.1C24.2,113.1,24,112.5,24,112z M32.3,116.1v-2.2c0,0,0,0,0.1,0c0.2,0,0.5,0,0.7,0
		s0.5,0,0.7,0c0,0,0,0,0.1,0v2.2c-0.2,0-0.5,0-0.7,0C32.9,116.1,32.6,116.1,32.3,116.1z M42.2,110.8v1.2c0,0.6-0.2,1.1-0.7,1.7v-2.1
		c0,0,0.1,0,0.1-0.1c0,0,0.1,0,0.1-0.1c0.1-0.1,0.2-0.2,0.2-0.2l0.1-0.1C42,111,42.1,110.9,42.2,110.8L42.2,110.8z"/>
	<path d="M28.1,102.7l2.8-0.9l0,0c-0.7-0.3-1-0.8-1.2-1.3c-0.2-0.1-0.3-0.2-0.4-0.3s-0.1-0.3-0.1-0.6l0.1-0.2
		c0.1-0.2,0.3-0.5,0.6-0.6c0.1-0.2,0.2-0.3,0.4-0.5c0.1-0.1,0.2-0.1,0.2-0.2l0,0l0,0c0-0.1,0-0.2,0-0.2c0-0.2,0.2-0.4,0.4-0.4
		c0.1,0,0.2,0,0.2,0.1c0,0,0.1,0.1,0.2,0.1c0.2,0.1,0.6,0.2,1,0.2c0.1,0,0.2,0,0.2,0c0.9,0,2.1,0.1,2.7,1c0.3,0.2,0.5,0.3,0.6,0.6
		l0.1,0.2c0.1,0.2,0,0.4-0.1,0.6s-0.2,0.2-0.4,0.3c-0.2,0.4-0.5,0.9-1.2,1.3l0,0l2.8,1c2.5-0.7,4-1.9,4-3.1c0-1.7-3.2-3.3-8.4-3.3
		s-8.2,1.6-8.2,3.2C24.3,100.8,25.8,102,28.1,102.7z"/>
</g>
<g>
	<path d="M33,168.8c-5.6,0-10.2,4.6-10.2,10.2s4.6,10.2,10.2,10.2s10.2-4.6,10.2-10.2S38.7,168.8,33,168.8z M35.8,182.9
		c-0.5,0.6-1.2,0.9-2.2,1v1.4h-1.2v-1.4c-1.6-0.2-2.6-1.1-2.9-2.7l1.9-0.5c0.2,1,0.8,1.6,1.7,1.6c0.4,0,0.8-0.1,1-0.3
		c0.3-0.3,0.3-0.5,0.3-0.9c0-0.3-0.1-0.6-0.3-0.8c-0.3-0.2-0.7-0.4-1.4-0.7s-1.2-0.4-1.5-0.7s-0.7-0.5-0.9-0.9
		c-0.3-0.4-0.3-0.9-0.3-1.4c0-0.7,0.2-1.4,0.6-1.9c0.4-0.6,1.1-0.9,2-1v-1.1h1.2v1.1c1.4,0.2,2.2,0.9,2.6,2.3l-1.7,0.7
		c-0.3-0.9-0.9-1.4-1.5-1.4c-0.3,0-0.6,0.1-0.9,0.3c-0.2,0.2-0.3,0.4-0.3,0.8c0,0.3,0.1,0.5,0.3,0.7s0.6,0.3,1.3,0.6
		s1.3,0.5,1.7,0.8s0.8,0.6,0.9,0.9c0.3,0.4,0.3,0.9,0.3,1.4C36.6,181.6,36.3,182.3,35.8,182.9z"/>
</g>
<g>
	<path d="M317,83.8l-5-5c-1.4-1.4-3-2-4.9-2s-3.6,0.7-5,2.1l-2.1-2.1c1.4-1.4,2.1-3,2.1-5c0-1.9-0.6-3.6-2-4.9l-5-5
		c-1.3-1.4-2.9-2-4.9-2s-3.6,0.7-4.9,2l-3.5,3.5c-1.4,1.3-2,2.9-2,4.9c0,1.9,0.6,3.6,2,4.9l5,5c1.4,1.4,3,2,4.9,2s3.6-0.7,5-2.1
		l2.1,2.1c-1.4,1.4-2.1,3-2.1,5c0,1.9,0.6,3.6,2,4.9l5,5c1.3,1.4,2.9,2,4.9,2s3.6-0.7,4.9-1.9l3.5-3.5c1.4-1.3,2-2.9,2-4.9
		C319,86.9,318.3,85.2,317,83.8z M296.7,73.6c-0.1-0.1-0.2-0.2-0.4-0.5c-0.2-0.2-0.4-0.4-0.5-0.5s-0.2-0.2-0.5-0.3
		c-0.2-0.2-0.4-0.2-0.6-0.3c-0.2-0.1-0.4-0.1-0.6-0.1c-0.6,0-1.2,0.2-1.6,0.7s-0.6,1-0.6,1.6c0,0.2,0,0.5,0.1,0.7s0.2,0.4,0.3,0.7
		s0.2,0.3,0.3,0.5c0.1,0.1,0.2,0.2,0.5,0.5c0.2,0.2,0.4,0.4,0.5,0.4c-0.5,0.5-1.1,0.7-1.7,0.7s-1.2-0.2-1.6-0.7l-5-5
		c-0.5-0.5-0.6-1-0.6-1.6s0.2-1.1,0.6-1.6l3.5-3.5c0.5-0.4,1-0.7,1.6-0.7s1.2,0.2,1.6,0.7l5,5c0.5,0.5,0.6,1,0.6,1.6
		C297.6,72.6,297.2,73.1,296.7,73.6z M313.7,90.3l-3.5,3.5c-0.5,0.4-1,0.7-1.6,0.7s-1.2-0.2-1.6-0.7l-5-5c-0.5-0.5-0.6-1-0.6-1.6
		s0.2-1.2,0.8-1.8c0.1,0.1,0.2,0.2,0.4,0.5c0.2,0.2,0.4,0.4,0.5,0.5s0.2,0.2,0.5,0.3c0.2,0.2,0.4,0.2,0.6,0.3
		c0.2,0.1,0.4,0.1,0.6,0.1c0.6,0,1.2-0.2,1.6-0.7c0.5-0.5,0.6-1,0.6-1.6c0-0.2,0-0.5-0.1-0.7s-0.2-0.4-0.3-0.7
		c-0.2-0.2-0.2-0.3-0.3-0.5c-0.1-0.1-0.2-0.2-0.5-0.5c-0.2-0.2-0.4-0.4-0.5-0.4c0.5-0.5,1.1-0.7,1.7-0.7s1.2,0.2,1.6,0.7l5,5
		c0.5,0.5,0.6,1,0.6,1.6C314.4,89.4,314.1,89.9,313.7,90.3z"/>
</g>
<g>
	<path d="M465,79.7l-1.6-1.6c4.9-5,4.9-13.1,0-18l1.6-1.6C470.8,64.5,470.8,74,465,79.7z M460.9,75.6l1.6,1.6
		c4.4-4.4,4.4-11.4,0-15.8l-1.6,1.6C464.3,66.3,464.3,72.1,460.9,75.6z M459.6,74.4c2.9-2.9,2.9-7.6,0-10.4l-1.6,1.6
		c2.1,2.1,2.1,5.3,0,7.3L459.6,74.4z M439.6,60.2l-1.6-1.6c-5.8,5.8-5.8,15.3,0,21.1l1.6-1.6C434.6,73.2,434.6,65.2,439.6,60.2z
		 M440.7,77.1l1.6-1.6c-3.5-3.5-3.5-9.3,0-12.8l-1.6-1.6C436.4,65.7,436.4,72.8,440.7,77.1z M443.4,74.4l1.6-1.6
		c-2.1-2.1-2.1-5.3,0-7.3l-1.6-1.6C440.6,66.9,440.6,71.6,443.4,74.4z M460.3,96H455l-3.1-22.7c1.5-0.2,2.6-1.4,2.6-3s-1.3-3-3-3
		s-3,1.3-3,3c0,1.5,1.2,2.7,2.6,3l-3,22.7h-5.3c-1.2,0-2.2,1-2.2,2.2s1,2.2,2.2,2.2h17.5c1.2,0,2.2-1,2.2-2.2
		C462.5,96.9,461.5,96,460.3,96z"/>
</g>
<g>
	<g id="Link_x5F_1_1_">
		<g>
			<path d="M940.3,10.7c-0.1-0.8-0.8-1.3-1.5-1.1c-0.8,0.1-1.2,0.8-1.1,1.5c0.1,0.5,0.2,1.1,0.2,1.6c0,5.5-4.5,10.1-10.1,10.1
				c-5.5,0-10.1-4.5-10.1-10.1c0-5.5,4.5-10.1,10.1-10.1c1.6,0,3,0.3,4.5,1c0.7,0.3,1.4,0.1,1.8-0.6s0.1-1.4-0.6-1.8
				c-1.8-0.8-3.7-1.4-5.7-1.4c-7,0-12.7,5.7-12.7,12.7s5.7,12.7,12.7,12.7s12.7-5.7,12.7-12.7C940.5,12.1,940.4,11.4,940.3,10.7z
				 M945.2,0.1c-7,0-12.7,5.7-12.7,12.7c0,0.7,0.1,1.4,0.2,2c0.1,0.8,0.8,1.3,1.5,1.1c0.8-0.1,1.2-0.8,1.1-1.5
				c-0.1-0.5-0.2-1.1-0.2-1.6c0-5.5,4.5-10.1,10.1-10.1s10.1,4.5,10.1,10.1c0,5.5-4.5,10.1-10.1,10.1c-1.6,0-3-0.3-4.5-1
				c-0.7-0.3-1.4-0.1-1.8,0.6s-0.1,1.4,0.6,1.8c1.8,0.8,3.7,1.4,5.7,1.4c7,0,12.7-5.7,12.7-12.7C957.9,5.8,952.2,0.1,945.2,0.1z"/>
		</g>
	</g>
</g>
<g>
	<g id="Link_x5F_1_2_">
		<g>
			<path d="M939.3,159.5c-0.1-0.8-0.8-1.3-1.5-1.1c-0.8,0.1-1.2,0.8-1.1,1.5c0.1,0.5,0.2,1.1,0.2,1.6c0,5.5-4.5,10.1-10.1,10.1
				c-5.5,0-10.1-4.5-10.1-10.1c0-5.5,4.5-10.1,10.1-10.1c1.6,0,3,0.3,4.5,1c0.7,0.3,1.4,0.1,1.8-0.6c0.3-0.7,0.1-1.4-0.6-1.8
				c-1.8-0.8-3.7-1.4-5.7-1.4c-7,0-12.7,5.7-12.7,12.7s5.7,12.7,12.7,12.7s12.7-5.7,12.7-12.7C939.5,160.8,939.4,160.1,939.3,159.5z
				 M944.2,148.8c-7,0-12.7,5.7-12.7,12.7c0,0.7,0.1,1.4,0.2,2c0.1,0.8,0.8,1.3,1.5,1.1c0.8-0.1,1.2-0.8,1.1-1.5
				c-0.1-0.5-0.2-1.1-0.2-1.6c0-5.5,4.5-10.1,10.1-10.1s10.1,4.5,10.1,10.1c0,5.5-4.5,10.1-10.1,10.1c-1.6,0-3-0.3-4.5-1
				c-0.7-0.3-1.4-0.1-1.8,0.6c-0.3,0.7-0.1,1.4,0.6,1.8c1.8,0.8,3.7,1.4,5.7,1.4c7,0,12.7-5.7,12.7-12.7
				C956.9,154.5,951.2,148.8,944.2,148.8z"/>
		</g>
	</g>
</g>
<g>
	<g id="link_1_">
		<path d="M704.8,15.4h15.3v-3.8h-15.3V15.4z M697,13.5c0-4.4,3.4-7.8,7.8-7.8h5.8V2h-5.8c-6.3,0-11.5,5.2-11.5,11.5
			S698.5,25,704.8,25h5.8v-3.7h-5.8C700.4,21.3,697,17.9,697,13.5z M720.2,2h-5.8v3.7h5.8c4.4,0,7.8,3.4,7.8,7.8s-3.4,7.8-7.8,7.8
			h-5.8V25h5.8c6.3,0,11.5-5.2,11.5-11.5S726.5,2,720.2,2z"/>
	</g>
</g>
<g>
	<g id="link_2_">
		<path d="M705.8,163.4h15.3v-3.8h-15.3V163.4z M698,161.5c0-4.4,3.4-7.8,7.8-7.8h5.8V150h-5.8c-6.3,0-11.5,5.2-11.5,11.5
			s5.2,11.5,11.5,11.5h5.8v-3.7h-5.8C701.4,169.3,698,165.9,698,161.5z M721.2,150h-5.8v3.7h5.8c4.4,0,7.8,3.4,7.8,7.8
			c0,4.4-3.4,7.8-7.8,7.8h-5.8v3.7h5.8c6.3,0,11.5-5.2,11.5-11.5S727.5,150,721.2,150z"/>
	</g>
</g>
<g>
	<path d="M676.7,230.4h1.9c0.1-0.2,0.3-0.5,0.5-0.8c0,0,0,0,0-0.1l0.6,0.2c-0.1,0.2-0.3,0.5-0.4,0.7h2.9c-0.2,1.1-0.6,2-1.3,2.6
		c0.5,0.2,0.9,0.4,1.3,0.6l-0.4,0.5c-0.5-0.2-0.9-0.5-1.4-0.7c-0.9,0.6-2,1.1-3.4,1.5c-0.1-0.2-0.2-0.4-0.3-0.6
		c1.3-0.3,2.4-0.7,3.2-1.2c-0.6-0.3-1.4-0.6-2.3-1.1c0.3-0.4,0.6-0.8,0.8-1.1h-1.6V230.4z M679.6,223.7h0.6v2.6h2.4v0.5h-2.4v1
		l0.3-0.3c0.6,0.4,1.2,0.8,1.9,1.2l-0.4,0.5c-0.3-0.2-0.9-0.6-1.8-1.2v1.2h-0.6v-1.8c-0.6,0.8-1.4,1.5-2.5,2
		c-0.1-0.2-0.2-0.3-0.4-0.5c1.1-0.5,2-1.1,2.8-2.1h-2.6v-0.5h2.8V223.7z M677.2,224.6l0.4-0.3c0.6,0.6,1.1,1.1,1.4,1.4l-0.5,0.4
		C678.3,225.8,677.8,225.3,677.2,224.6z M678.3,231.9c0.7,0.3,1.4,0.6,2,0.8c0.6-0.5,1-1.1,1.2-1.8H679
		C678.8,231.2,678.5,231.5,678.3,231.9z M682.5,224.6c-0.5,0.6-1,1-1.4,1.4l-0.4-0.4c0.4-0.4,0.9-0.8,1.4-1.4L682.5,224.6z
		 M682,234.5c1.2-0.9,2.1-1.8,2.7-2.6c-0.6-1-1-2.4-1.2-4.2c0,0-0.1,0.1-0.1,0.2c-0.2,0.4-0.4,0.7-0.5,0.8c-0.2-0.2-0.3-0.3-0.5-0.4
		c0.9-1.3,1.6-3,2-4.9l0.6,0.1c-0.2,0.7-0.4,1.4-0.7,2.1h3.5v0.6h-1c-0.2,2.5-0.7,4.4-1.5,5.6c0.5,0.8,1.4,1.6,2.5,2.4
		c-0.2,0.2-0.3,0.4-0.4,0.5c-1.1-0.8-1.9-1.6-2.4-2.4c-0.6,0.8-1.4,1.6-2.6,2.5C682.3,234.8,682.1,234.7,682,234.5z M683.8,226.9
		c0.2,2,0.6,3.5,1.2,4.4c0.6-1.1,1-2.7,1.2-5h-2.2C684,226.5,683.9,226.6,683.8,226.9z"/>
	<path d="M694.1,229.7l2.7-1.6h-6v-0.6h6.8v0.7l-2.9,1.8v0.6h5.2v0.6h-5.2v2.1c0.1,0.9-0.4,1.4-1.4,1.5c-0.7,0-1.2,0-1.5,0
		c0-0.2-0.1-0.4-0.1-0.7c0.2,0,0.4,0,0.6,0c0.1,0,0.2,0,0.4,0c0.1,0,0.3,0,0.5,0c0.4,0,0.6-0.1,0.7-0.2c0.1-0.1,0.2-0.4,0.2-0.7v-2
		h-5.4v-0.6h5.4V229.7z M689,225.4h10.5v2.1h-0.6V226h-9.2v1.5H689V225.4z M693.7,223.8l0.6-0.2c0.2,0.4,0.4,0.9,0.7,1.6l-0.6,0.2
		C694.2,224.8,693.9,224.2,693.7,223.8z"/>
	<path d="M700.6,230.5h1.6v-5.6h2.8c0.2-0.6,0.3-1.1,0.4-1.3l0.6,0.1c-0.1,0.4-0.2,0.8-0.4,1.2h4.2v4.8c0.3-0.3,0.9-0.7,1.5-1.2
		l0.4,0.5c-0.7,0.5-1.3,1.1-2,1.5v2.6c0,1.1-0.5,1.6-1.6,1.6c-0.5,0-1.1,0-2.1,0c0-0.2-0.1-0.4-0.1-0.7c0.2,0,0.8,0,1.5,0
		c0.2,0,0.3,0,0.4,0c0.8,0,1.2-0.3,1.2-1.1v-2h-0.2c-2.3,1.6-4.9,2.8-8,3.8c-0.1-0.2-0.2-0.4-0.4-0.6c3-0.9,5.5-2,7.3-3.2h-7.4
		V230.5z M702.9,225.5v1.3h6.4v-1.3H702.9z M702.9,227.3v1.3h6.4v-1.3H702.9z M708.9,230.5c0,0,0.1-0.1,0.2-0.1
		c0.1-0.1,0.1-0.1,0.2-0.1v-1.1h-6.4v1.3H708.9z"/>
	<path d="M712.9,229.8c-0.1-0.3-0.2-0.5-0.3-0.7c1.1-1.5,2-3.3,2.7-5.4l0.7,0.2c-0.4,1.1-0.8,2-1.3,3v8H714v-6.9
		C713.7,228.6,713.3,229.2,712.9,229.8z M715.9,228.9c-0.2-0.2-0.3-0.3-0.5-0.5c1.3-1.1,2.3-2.5,3-4.1l0.6,0.2
		C718.3,226.1,717.3,227.6,715.9,228.9z M716.6,228.8h5.6c0,1.6-0.1,3-0.2,4.2c0,1.1-0.7,1.7-1.9,1.7c-0.2,0-0.4,0-0.6,0
		c-0.1,0-0.2,0-0.3,0c-0.1,0-0.3,0-0.5,0c0-0.2-0.1-0.4-0.2-0.7c0.5,0,1,0,1.5,0c0.8,0,1.3-0.4,1.3-1.2c0.1-1.2,0.1-2.3,0.2-3.5
		h-2.9c0,2.4-0.9,4.2-2.7,5.6c-0.2-0.2-0.3-0.4-0.5-0.5c1.8-1.2,2.6-2.9,2.6-5h-1.4V228.8z M720.1,224l0.6-0.2
		c0.7,1.9,1.8,3.3,3.2,4.2c-0.2,0.2-0.3,0.4-0.5,0.6C721.9,227.4,720.8,225.8,720.1,224z"/>
	<path d="M724.8,229.8c-0.1-0.2-0.1-0.4-0.2-0.6c0-0.1,0-0.1-0.1-0.2c1-1.6,1.7-3.4,2.2-5.4l0.6,0.2c-0.3,0.9-0.6,1.9-0.9,2.8v8.3
		h-0.6v-7C725.5,228.7,725.1,229.3,724.8,229.8z M729.4,226.2h0.6v2.4c0,1.7-0.1,2.9-0.4,3.7l0.3-0.3c1.1,0.9,2,1.6,2.5,2.1
		l-0.5,0.5c-0.7-0.6-1.4-1.3-2.3-2.1c-0.3,0.8-1,1.7-2.3,2.6c-0.2-0.2-0.3-0.4-0.4-0.5c1.1-0.8,1.9-1.5,2.1-2.2
		c0.3-0.7,0.5-1.9,0.5-3.6V226.2z M727.7,224.3h4.1v7.2h-0.6v-6.6h-3v6.6h-0.6V224.3z M734.8,223.7h0.6v9.7c0,0.9-0.4,1.4-1.2,1.4
		c-0.2,0-0.3,0-0.5,0c-0.1,0-0.2,0-0.3,0c-0.1,0-0.2,0-0.4,0c0-0.3-0.1-0.5-0.1-0.6c0.3,0,0.7,0,1,0c0.3,0,0.6-0.1,0.7-0.2
		c0.1-0.1,0.2-0.4,0.2-0.8V223.7z M733.6,232.2H733v-7.5h0.6V232.2z"/>
	<path d="M736.5,227.6c0.7-1.1,1.3-2.4,1.6-3.9l0.6,0.1c-0.2,0.7-0.4,1.3-0.6,1.7h2v0.6H738c-0.2,0.6-0.6,1.2-1,1.9
		C736.8,227.8,736.7,227.7,736.5,227.6z M736.6,229.9h1.5v-1.7h-0.7v-0.6h2.5v0.6h-1.1v1.7h1.5v0.6h-1.5v2.8l1.4-1.3l0.1,0.7
		c-0.6,0.5-1.1,1-1.5,1.4c-0.1,0.1-0.3,0.3-0.5,0.5l-0.4-0.5c0.1-0.2,0.2-0.3,0.2-0.5c0-0.1,0.1-0.3,0.1-0.6v-2.5h-1.5V229.9z
		 M744.6,234c0.6,0,1.1,0,1.7,0c0.6,0,1.1,0,1.7,0c-0.1,0.2-0.2,0.4-0.2,0.6c-0.8,0-1.9,0-3.2-0.1c-1.2,0-2.2-0.4-2.9-1.4
		c-0.4,0.4-0.8,1-1.2,1.6l-0.5-0.4c0.3-0.4,0.7-0.9,1.3-1.5c0.1-0.1,0.1-0.2,0.2-0.2v-4.2h-0.9v-0.6h1.5v4.7
		C742.5,233.5,743.4,234,744.6,234z M741.6,226.4c-0.2-0.7-0.5-1.4-0.8-2.4l0.5-0.2c0.4,1,0.7,1.7,0.9,2.3L741.6,226.4z
		 M742.7,231.1h2.6v-1.8h-2.2v-0.7c0.4-0.8,0.7-1.8,1-2.8h-1.2v-0.6h1.4c0.2-0.5,0.3-1.1,0.4-1.6l0.6,0.1c-0.2,0.6-0.3,1.1-0.4,1.5
		h2.8v0.6h-3c-0.3,1.1-0.7,2.1-1,3h1.6v-2.1h0.6v2.1h1.6v0.6h-1.6v1.8h1.9v0.6h-1.9v1.8h-0.6v-1.8h-2.6V231.1z"/>
</g>
<g>
	<path d="M12,152.8v-4.4H6.8v4.4H6.2v-9.1h0.6v4.2H12v-4.2h0.6v9.1H12z"/>
	<path d="M17.4,153c-0.9,0-1.7-0.3-2.2-0.9s-0.8-1.4-0.8-2.4c0-1.1,0.3-1.9,0.9-2.5s1.3-0.9,2.3-0.9c0.9,0,1.7,0.3,2.2,0.9
		s0.8,1.4,0.8,2.5c0,1-0.3,1.8-0.8,2.4S18.4,153,17.4,153z M17.5,146.7c-0.8,0-1.4,0.3-1.8,0.8s-0.7,1.2-0.7,2.1
		c0,0.8,0.2,1.5,0.7,2s1,0.8,1.8,0.8c0.8,0,1.4-0.3,1.8-0.8s0.6-1.2,0.6-2.1c0-0.9-0.2-1.6-0.6-2.1S18.2,146.7,17.5,146.7z"/>
	<path d="M24.7,144.3v8.5H24v-8.5h-2.6v-0.6h5.9v0.6H24.7z"/>
	<path d="M28.1,149.7H30c0.1-0.2,0.3-0.5,0.5-0.8c0,0,0,0,0-0.1l0.6,0.2c-0.1,0.2-0.3,0.5-0.4,0.7h2.9c-0.2,1.1-0.6,2-1.3,2.6
		c0.5,0.2,0.9,0.4,1.3,0.6l-0.4,0.5c-0.5-0.2-0.9-0.5-1.4-0.7c-0.9,0.6-2,1.1-3.4,1.5c-0.1-0.2-0.2-0.4-0.3-0.6
		c1.3-0.3,2.4-0.7,3.2-1.2c-0.6-0.3-1.4-0.6-2.3-1.1c0.3-0.4,0.6-0.8,0.8-1.1h-1.6V149.7z M31,143.1h0.6v2.6H34v0.5h-2.4v1l0.3-0.3
		c0.6,0.4,1.2,0.8,1.9,1.2l-0.4,0.5c-0.3-0.2-0.9-0.6-1.8-1.2v1.2H31v-1.8c-0.6,0.8-1.4,1.5-2.5,2c-0.1-0.2-0.2-0.3-0.4-0.5
		c1.1-0.5,2-1.1,2.8-2.1h-2.6v-0.5H31V143.1z M28.6,143.9l0.4-0.3c0.6,0.6,1.1,1.1,1.4,1.4l-0.5,0.4
		C29.7,145.1,29.2,144.6,28.6,143.9z M29.7,151.2c0.7,0.3,1.4,0.6,2,0.8c0.6-0.5,1-1.1,1.2-1.8h-2.5C30.2,150.5,30,150.9,29.7,151.2
		z M34,143.9c-0.5,0.6-1,1-1.4,1.4l-0.4-0.4c0.4-0.4,0.9-0.8,1.4-1.4L34,143.9z M33.4,153.8c1.2-0.9,2.1-1.8,2.7-2.6
		c-0.6-1-1-2.4-1.2-4.2c0,0-0.1,0.1-0.1,0.2c-0.2,0.4-0.4,0.7-0.5,0.8c-0.2-0.2-0.3-0.3-0.5-0.4c0.9-1.3,1.6-3,2-4.9l0.6,0.1
		c-0.2,0.7-0.4,1.4-0.7,2.1h3.5v0.6h-1c-0.2,2.5-0.7,4.4-1.5,5.6c0.5,0.8,1.4,1.6,2.5,2.4c-0.2,0.2-0.3,0.4-0.4,0.5
		c-1.1-0.8-1.9-1.6-2.4-2.4c-0.6,0.8-1.4,1.6-2.6,2.5C33.7,154.2,33.6,154,33.4,153.8z M35.3,146.2c0.2,2,0.6,3.5,1.2,4.4
		c0.6-1.1,1-2.7,1.2-5h-2.2C35.4,145.8,35.4,146,35.3,146.2z"/>
	<path d="M41.4,148.3h8.5v3.1h-4v0.8h4.5v0.5H46v0.8h5.4v0.5H40v-0.5h5.4v-0.8h-4.5v-0.5h4.5v-0.8h-4V148.3z M40.1,147.1h11.2v0.5
		H40.1V147.1z M41.3,143.5H50v2.8h-8.7V143.5z M41.9,144v0.8h7.5V144H41.9z M41.9,145.2v0.8h7.5v-0.8H41.9z M42,148.7v0.9h3.4v-0.9
		H42z M42,150v0.9h3.4V150H42z M49.3,148.7H46v0.9h3.4V148.7z M46,150v0.9h3.4V150H46z"/>
</g>
</svg>
