<?xml version="1.0" encoding="utf-8"?>
<!-- Generator: Adobe Illustrator 22.1.0, SVG Export Plug-In . SVG Version: 6.00 Build 0)  -->
<svg version="1.1" id="img" xmlns="http://www.w3.org/2000/svg" xmlns:xlink="http://www.w3.org/1999/xlink" x="0px" y="0px"
	 viewBox="0 0 539 906" style="enable-background:new 0 0 539 906;" xml:space="preserve">
<style type="text/css">
	.st0{fill:#F5F5F5;}
	.st1{enable-background:new    ;}
	.st2{fill:#81DFD1;}
	.st3{fill:none;stroke:#70DBCB;}
	.st4{fill:#F2F2F2;}
	.st5{fill:#FCFCFC;}
	.st6{fill:#E6E8E9;}
	.st7{fill:#00DCCC;}
	.st8{fill:none;stroke:#00DCCC;}
	.st9{fill:#57595B;}
</style>
<path id="圆角矩形_1_拷贝" class="st0" d="M127.9,865.9l28.4-7.3c1.2-0.3,2.4-0.2,3.6,0.1l23.9,7.7c1,0.3,1.2,0.9,0.3,1.2
	l-24.9,9.2c-1.4,0.5-3,0.5-4.5,0.1l-27.4-9.6C126.2,866.9,126.4,866.3,127.9,865.9z"/>
<g id="金融侧链" class="st1">
	<path d="M137.1,894c-3.7-1.4-6.6-3.3-8.7-5.8c-2.2,2.4-5.1,4.4-8.8,6c-0.1-0.2-0.4-0.5-0.7-0.9c4.3-1.9,7.4-4.1,9.3-6.6l1.2,0.2
		c0,0.1-0.1,0.1-0.2,0.2c-0.1,0.1-0.2,0.2-0.2,0.3c2.3,2.5,5.2,4.3,8.7,5.5C137.4,893.5,137.2,893.8,137.1,894z M122.1,893.4h12v1
		h-5.3v3.2h7v1h-7v5.5h8.3v1h-17.6v-1h8.3v-5.5h-7v-1h7v-3.2h-5.6v-1H122.1z M121.8,900.2l0.8-0.6c0.9,0.9,1.8,1.8,2.6,2.7l-0.9,0.7
		C123.6,902.2,122.8,901.3,121.8,900.2z M132,903l-0.8-0.7c0.9-0.8,1.8-1.7,2.8-2.7l0.9,0.6C133.9,901.2,132.9,902.1,132,903z"/>
	<path d="M139.2,887.9h9.4v0.9h-9.4V887.9z M140.6,905.6h-1V896h8.8v7.8c0.1,1.2-0.5,1.8-1.8,1.8c-0.4,0-0.8,0-1.2,0
		c0-0.3-0.1-0.6-0.2-1c0.2,0,0.6,0,1.3,0c0.4,0,0.6-0.1,0.8-0.2c0.1-0.1,0.2-0.4,0.2-0.9v-6.6h-6.9L140.6,905.6L140.6,905.6z
		 M140.4,890.4h7.2v4h-7.2V890.4z M141.2,900.4h3c0.5-0.9,0.9-1.9,1.4-3.2l0.9,0.4c-0.1,0.1-0.1,0.3-0.3,0.6c-0.5,1-0.9,1.8-1.1,2.2
		h1.6v0.9h-2.3v3.8h-1v-3.8h-2.3v-0.9H141.2z M141.4,891.2v2.2h5.3v-2.2H141.4z M141.5,897.7l0.8-0.4c0.4,0.8,0.9,1.6,1.3,2.4
		l-0.9,0.4c-0.2-0.5-0.6-1.2-1.1-2.2C141.6,897.9,141.5,897.8,141.5,897.7z M149.3,905.2l-0.3-1c1-0.1,2.2-0.2,3.8-0.3v-5.3h-2v1.6
		h-1v-9.5h3v-3.5h1v3.5h3v7.9h-3v5.2c1-0.1,1.8-0.2,2.5-0.2c-0.3-1-0.5-2.1-0.9-3.2l0.9-0.2c0.6,2.1,1.1,3.8,1.4,5.2l-0.9,0.2
		c0-0.2-0.1-0.4-0.2-0.8c0-0.2-0.1-0.3-0.1-0.4C153,904.8,150.6,905,149.3,905.2z M150.9,891.5v6.2h2v-6.2H150.9z M155.9,891.5h-2
		v6.2h2V891.5z"/>
	<path d="M159.1,897.3c-0.1-0.3-0.2-0.6-0.3-0.9c0-0.1-0.1-0.2-0.1-0.3c1.7-2.7,2.9-5.7,3.7-9l1,0.3c-0.4,1.6-1,3.1-1.6,4.6v13.9h-1
		v-11.7C160.3,895.4,159.7,896.4,159.1,897.3z M166.9,891.2h1v4c0,2.8-0.2,4.8-0.7,6.1l0.5-0.5c1.9,1.6,3.2,2.7,4.1,3.5L171,905
		c-1.1-1-2.4-2.2-3.9-3.5c-0.5,1.4-1.7,2.8-3.8,4.3c-0.3-0.3-0.5-0.6-0.7-0.8c1.9-1.3,3.1-2.5,3.5-3.7c0.5-1.1,0.8-3.1,0.8-6.1
		L166.9,891.2L166.9,891.2z M164,888.1h6.9V900h-1v-11h-5v11h-1v-11.9H164z M175.8,887h1v16.1c0.1,1.5-0.6,2.3-1.9,2.3
		c-0.3,0-0.6,0-0.9,0c-0.1,0-0.3,0-0.5,0c-0.1,0-0.4,0-0.6,0c0-0.4-0.1-0.8-0.2-1.1c0.5,0,1.1,0.1,1.7,0.1c0.6,0,0.9-0.1,1.1-0.3
		c0.2-0.2,0.3-0.6,0.3-1.3L175.8,887L175.8,887z M173.8,901.2h-1v-12.5h1V901.2z"/>
	<path d="M178.6,893.5c1.2-1.8,2.1-4,2.7-6.5l1,0.2c-0.4,1.2-0.7,2.1-0.9,2.8h3.3v0.9H181c-0.4,0.9-0.9,2-1.6,3.2
		C179.2,893.9,178.9,893.7,178.6,893.5z M178.8,897.4h2.5v-2.8h-1.2v-0.9h4.1v0.9h-1.9v2.8h2.6v0.9h-2.6v4.7l2.3-2.2l0.2,1.1
		c-0.9,0.9-1.8,1.6-2.5,2.3c-0.2,0.2-0.5,0.5-0.8,0.8l-0.7-0.8c0.2-0.3,0.3-0.5,0.4-0.8c0.1-0.2,0.1-0.6,0.1-1v-4.2h-2.5
		L178.8,897.4L178.8,897.4z M192.1,904.2c0.9,0,1.9,0,2.8,0c0.9,0,1.9,0,2.8,0c-0.2,0.4-0.3,0.7-0.3,1.1c-1.4,0-3.2,0-5.4-0.1
		c-2.1,0-3.6-0.7-4.7-2.3c-0.7,0.7-1.3,1.6-2,2.7l-0.8-0.7c0.5-0.6,1.2-1.5,2.1-2.6c0.1-0.1,0.2-0.3,0.3-0.3v-7h-1.6v-0.9h2.5v7.9
		C188.7,903.5,190.1,904.2,192.1,904.2z M187.1,891.5c-0.3-1.1-0.8-2.4-1.4-3.9l0.9-0.3c0.6,1.6,1.1,2.9,1.5,3.9L187.1,891.5z
		 M189,899.4h4.3v-2.9h-3.7v-1.2c0.6-1.4,1.2-2.9,1.7-4.7h-2v-0.9h2.3c0.3-0.9,0.5-1.8,0.7-2.7l1,0.2c-0.3,1-0.5,1.8-0.7,2.5h4.7
		v0.9h-5c-0.6,1.8-1.1,3.4-1.7,4.9h2.7V892h1v3.5h2.7v0.9h-2.7v2.9h3.2v0.9h-3.2v3.1h-1v-3.1H189V899.4z"/>
</g>
<g id="组_41">
	<rect id="矩形_52" x="314" y="426" class="st2" width="1" height="266"/>
	<path id="形状_2" class="st3" d="M321.1,426v72.4L467,564"/>
	<path id="形状_2_拷贝_2" class="st3" d="M315.1,429v72.4L461,567"/>
	<path id="形状_2_拷贝" class="st3" d="M308.9,426v72.4L163,562.3"/>
	<path id="形状_2_拷贝_3" class="st3" d="M314.8,430v72.4L169,566.3"/>
</g>
<g id="组_41_拷贝">
	<path id="形状_2-2" class="st3" d="M321.3,648v72.4L467,786"/>
	<path id="形状_2_拷贝_2-2" class="st3" d="M315.3,651v72.4L461,789"/>
	<path id="形状_2_拷贝-2" class="st3" d="M309.1,648v72.4l-145.7,63.9"/>
	<path id="形状_2_拷贝_3-2" class="st3" d="M315,652v72.4l-145.7,63.9"/>
</g>
<path id="椭圆_11" class="st4" d="M157.8,847.9c7.3,0,13.2,1.2,13.2,2.6s-5.9,2.6-13.2,2.6s-13.2-1.2-13.2-2.6
	S150.5,847.9,157.8,847.9z"/>
<path id="圆角矩形_1" class="st5" d="M128.4,850.7l28.4-7.3c1.2-0.3,2.4-0.2,3.6,0.1l23.9,7.7c1,0.3,1.2,0.9,0.3,1.2l-24.9,9.1
	c-1.4,0.5-3,0.5-4.5,0.1l-27.4-9.6C126.8,851.7,127,851.1,128.4,850.7z"/>
<path id="矩形_46" class="st6" d="M127.1,851.5l31.5,10.1v11.5L127.1,862V851.5L127.1,851.5z"/>
<path id="矩形_46_拷贝" class="st6" d="M185.5,852.1l-27.5,9.6v11.5l27.5-10.5V852.1L185.5,852.1z"/>
<path id="圆角矩形_1_拷贝-2" class="st0" d="M430.1,863l28.4-7.3c1.2-0.3,2.4-0.2,3.6,0.1l23.9,7.7c1,0.3,1.2,0.9,0.3,1.2
	l-24.9,9.1c-1.4,0.5-3,0.5-4.5,0.1l-27.4-9.6C428.4,864,428.7,863.3,430.1,863z"/>
<ellipse id="椭圆_11-2" class="st4" cx="458.8" cy="847.7" rx="13.2" ry="2.6"/>
<path id="圆角矩形_1-2" class="st5" d="M429.4,847.8l28.4-7.3c1.2-0.3,2.4-0.2,3.6,0.1l23.9,7.7c1,0.3,1.2,0.9,0.3,1.2
	l-24.9,9.2c-1.4,0.5-3,0.5-4.5,0.1l-27.4-9.6C427.8,848.8,428,848.1,429.4,847.8z"/>
<path id="矩形_46-2" class="st6" d="M428.1,848.5l31.5,10.1v11.5L428.1,859V848.5L428.1,848.5z"/>
<path id="矩形_46_拷贝-2" class="st6" d="M486.5,849.1l-27.5,9.6v11.5l27.5-10.5V849.1z"/>
<path id="圆角矩形_1_拷贝-3" class="st0" d="M128.5,646.7l28.4-7.3c1.2-0.3,2.4-0.2,3.6,0.1l23.9,7.7c1,0.3,1.2,0.9,0.3,1.2
	l-24.9,9.2c-1.4,0.5-3,0.5-4.5,0.1l-27.4-9.6C126.8,647.7,127.1,647.1,128.5,646.7z"/>
<g id="去中心化交易侧链" class="st1">
	<path d="M86,668.9h1.1v3.6h7.2v1h-7.2v4.7h8.8v1H85.4l0.8,0.3c-1.2,1.5-2.9,3.6-5.2,6c1.4,0,3.6-0.1,6.7-0.2c1.8,0,3.1-0.1,4-0.1
		c-1.1-1.2-2.2-2.4-3.1-3.4l0.9-0.6c2.1,2.1,3.9,4,5.3,5.6l-1,0.7c-0.4-0.5-0.8-0.9-1.2-1.4c-3.6,0.1-7.4,0.2-11.4,0.4
		c-0.8,0-1.4,0.1-1.8,0.2l-0.6-1.2c0.6-0.3,1.1-0.7,1.6-1.1c1.7-1.8,3.2-3.5,4.4-5.3h-7.7v-1H86v-4.7h-7.2v-1H86V668.9z"/>
	<path d="M98.4,673.2h7.6v-4.3h1.1v4.3h7.6v8.5h-1.1v-1.1H107v7.3h-1v-7.3h-6.5v1.1h-1.1V673.2z M99.4,674.2v5.4h6.5v-5.4H99.4z
		 M113.6,674.2H107v5.4h6.6V674.2z"/>
	<path d="M119.1,674.9l1.1,0.3c-0.6,2.6-1.3,5.1-2,7.7c-0.4-0.2-0.8-0.3-1.2-0.4C117.9,680,118.6,677.5,119.1,674.9z M122.1,672.7
		h1.1V684c0,0.7,0.1,1.3,0.4,1.5c0.3,0.3,0.8,0.4,1.6,0.4h3.8c1.4,0,2.2-0.5,2.4-1.7c0.1-0.7,0.2-1.6,0.3-2.7
		c0.5,0.2,0.9,0.3,1.2,0.4c-0.1,1.2-0.3,2.1-0.5,2.9c-0.3,1.5-1.4,2.3-3.2,2.2h-4.3c-1.9,0-2.8-0.9-2.8-2.8
		C122.1,684.2,122.1,672.7,122.1,672.7z M128.2,674.8c-1-1.8-2-3.6-3.2-5.4l1-0.5c1.1,1.6,2.1,3.4,3.3,5.3L128.2,674.8z
		 M134.9,681.7c-0.9-2.3-2-4.6-3.2-6.9l1.1-0.5c1.2,2.4,2.3,4.7,3.3,6.8L134.9,681.7z"/>
	<path d="M137.7,679.8c-0.2-0.4-0.5-0.8-0.7-1.1c2.3-2.6,4.1-5.8,5.5-9.6l1.1,0.3c-0.7,1.6-1.5,3.3-2.4,4.9v13.3h-1.1v-11.4
		C139.4,677.5,138.6,678.7,137.7,679.8z M143.1,682c-0.2-0.3-0.4-0.6-0.7-1c1.7-0.8,3.3-1.7,4.8-2.7v-8.9h1.1v8.1
		c2.2-1.6,4.1-3.6,5.7-5.8l1,0.6c-2,2.5-4.2,4.7-6.7,6.5v5.4c0,0.7,0.1,1.1,0.4,1.4c0.3,0.3,0.8,0.4,1.5,0.4h2.2
		c1.2,0,1.9-0.4,2.1-1.3c0.2-0.7,0.3-1.8,0.5-3.4c0.4,0.2,0.8,0.3,1.1,0.4c-0.1,1.4-0.3,2.5-0.5,3.4c-0.2,1.4-1.3,2.1-3.1,2.1H150
		c-1.9,0.1-2.8-0.9-2.7-2.8v-4.8C145.8,680.5,144.5,681.3,143.1,682z"/>
	<path d="M163.1,677.6c1,2,2.1,3.6,3.4,4.8c1.2-1.1,2.2-2.7,3.3-5l1,0.4c-1,2.3-2.2,4-3.5,5.2c1.8,1.4,4.5,2.5,8.2,3.4
		c-0.2,0.3-0.4,0.6-0.6,1.1c-3.9-1-6.7-2.3-8.5-3.7c-1.7,1.4-4.5,2.7-8.6,3.9l-0.6-1.1c4-1.1,6.8-2.2,8.4-3.5
		c-1.2-1.2-2.4-2.8-3.5-5L163.1,677.6z M157.4,671.9h9.1c-0.3-0.8-0.8-1.6-1.4-2.5l1-0.5c0.6,0.9,1,1.7,1.4,2.5l-0.9,0.5h8.9v1
		h-18.2L157.4,671.9L157.4,671.9z M163.4,674.1l0.9,0.9c-1.8,1.5-3.8,3-5.9,4.4c-0.2-0.3-0.4-0.6-0.7-1
		C159.6,677.2,161.5,675.8,163.4,674.1z M174.5,679c-1.7-1.3-3.7-2.7-5.8-4.1l0.7-0.8c1.8,1.2,3.8,2.5,5.9,3.9L174.5,679z"/>
	<path d="M177.8,682.6c-0.1-0.2-0.4-0.5-0.7-0.8c2.1-1.2,3.7-2.8,5-4.6l1,0.4c-0.4,0.5-0.8,1-1.2,1.5h12.5c0,1.4-0.1,2.9-0.2,4.5
		c-0.1,2.7-1.3,4-3.8,3.9c-0.7,0-1.5,0-2.3,0c0-0.3-0.1-0.7-0.2-1.1c0.9,0.1,1.7,0.1,2.5,0.1c0.1,0,0.2,0,0.3,0c1.6,0,2.5-1,2.5-2.9
		c0.1-1.4,0.2-2.6,0.2-3.5h-3.2c-0.7,3.4-3,6-6.8,7.8c-0.3-0.3-0.5-0.6-0.7-0.9c3.7-1.7,5.9-4,6.5-7h-3.3c-1.2,2.9-3.9,5.1-8.1,6.7
		c-0.2-0.3-0.4-0.6-0.7-0.9c4-1.5,6.5-3.4,7.7-5.8h-3.6C180.2,681,179.1,681.9,177.8,682.6z M179.6,669.8h13.9v7.1h-13.9V669.8z
		 M180.7,670.8v2.1h11.8v-2.1H180.7z M180.7,673.8v2.2h11.8v-2.2H180.7z"/>
	<path d="M197.3,679.3c-0.1-0.3-0.2-0.6-0.3-0.9c0-0.1-0.1-0.2-0.1-0.3c1.7-2.7,2.9-5.7,3.7-9l1,0.3c-0.4,1.6-1,3.1-1.6,4.6v13.9h-1
		v-11.7C198.4,677.4,197.8,678.4,197.3,679.3z M205.1,673.2h1v4c0,2.8-0.2,4.8-0.7,6.1l0.5-0.5c1.9,1.6,3.2,2.7,4.1,3.5l-0.8,0.8
		c-1.1-1-2.4-2.2-3.9-3.5c-0.5,1.4-1.7,2.8-3.8,4.3c-0.3-0.3-0.5-0.6-0.7-0.8c1.9-1.3,3.1-2.5,3.5-3.7c0.5-1.1,0.8-3.1,0.8-6.1
		L205.1,673.2L205.1,673.2z M202.1,670.1h6.9V682h-1v-11h-5v11h-1v-11.9H202.1z M214,669h1v16.1c0.1,1.5-0.6,2.3-1.9,2.3
		c-0.3,0-0.6,0-0.9,0c-0.1,0-0.3,0-0.5,0c-0.1,0-0.4,0-0.6,0c0-0.4-0.1-0.8-0.2-1.1c0.5,0,1.1,0.1,1.7,0.1c0.6,0,0.9-0.1,1.1-0.3
		c0.2-0.2,0.3-0.6,0.3-1.3L214,669L214,669z M211.9,683.2h-1v-12.5h1V683.2z"/>
	<path d="M216.8,675.5c1.2-1.8,2.1-4,2.7-6.5l1,0.2c-0.4,1.2-0.7,2.1-0.9,2.8h3.3v0.9h-3.7c-0.4,0.9-0.9,2-1.6,3.2
		C217.3,675.9,217.1,675.7,216.8,675.5z M216.9,679.4h2.5v-2.8h-1.2v-0.9h4.1v0.9h-1.9v2.8h2.6v0.9h-2.6v4.7l2.3-2.2l0.2,1.1
		c-0.9,0.9-1.8,1.6-2.5,2.3c-0.2,0.2-0.5,0.5-0.8,0.8l-0.7-0.8c0.2-0.3,0.3-0.5,0.4-0.8c0.1-0.2,0.1-0.6,0.1-1v-4.2h-2.5
		L216.9,679.4L216.9,679.4z M230.2,686.2c0.9,0,1.9,0,2.8,0c0.9,0,1.9,0,2.8,0c-0.2,0.4-0.3,0.7-0.3,1.1c-1.4,0-3.2,0-5.4-0.1
		c-2.1,0-3.6-0.7-4.7-2.3c-0.7,0.7-1.3,1.6-2,2.7l-0.8-0.7c0.5-0.6,1.2-1.5,2.1-2.6c0.1-0.1,0.2-0.3,0.3-0.3v-7h-1.6v-0.9h2.5v7.9
		C226.8,685.5,228.3,686.2,230.2,686.2z M225.3,673.5c-0.3-1.1-0.8-2.4-1.4-3.9l0.9-0.3c0.6,1.6,1.1,2.9,1.5,3.9L225.3,673.5z
		 M227.1,681.4h4.3v-2.9h-3.7v-1.2c0.6-1.4,1.2-2.9,1.7-4.7h-2v-0.9h2.3c0.3-0.9,0.5-1.8,0.7-2.7l1,0.2c-0.3,1-0.5,1.8-0.7,2.5h4.7
		v0.9h-5c-0.6,1.8-1.1,3.4-1.7,4.9h2.7V674h1v3.5h2.7v0.9h-2.7v2.9h3.2v0.9h-3.2v3.1h-1v-3.1h-4.3V681.4z"/>
</g>
<ellipse id="椭圆_11-3" class="st4" cx="158.4" cy="631.3" rx="13.2" ry="2.6"/>
<path id="圆角矩形_1-3" class="st5" d="M129.1,631.5l28.4-7.3c1.2-0.3,2.4-0.2,3.6,0.1L185,632c1,0.3,1.2,0.9,0.3,1.2l-24.9,9.1
	c-1.4,0.5-3,0.5-4.5,0.1l-27.4-9.6C127.4,632.5,127.7,631.9,129.1,631.5z"/>
<path id="矩形_46-3" class="st6" d="M127.8,632.2l31.5,10.1v11.5l-31.5-11.1V632.2L127.8,632.2z"/>
<path id="矩形_46_拷贝-3" class="st6" d="M186.2,632.8l-27.5,9.6v11.5l27.5-10.5V632.8z"/>
<path id="圆角矩形_1_拷贝-4" class="st0" d="M431.5,647l28.4-7.3c1.2-0.3,2.4-0.2,3.6,0.1l23.9,7.7c1,0.3,1.2,0.9,0.3,1.2
	l-24.9,9.1c-1.4,0.5-3,0.5-4.5,0.1l-27.4-9.6C429.8,648,430.1,647.3,431.5,647z"/>
<ellipse id="椭圆_11-4" class="st4" cx="461.4" cy="631.7" rx="13.2" ry="2.6"/>
<path id="圆角矩形_1-4" class="st5" d="M432.1,631.8l28.4-7.3c1.2-0.3,2.4-0.2,3.6,0.1l23.9,7.7c1,0.3,1.2,0.9,0.3,1.2
	l-24.9,9.2c-1.5,0.5-3,0.5-4.5,0.1l-27.4-9.6C430.4,632.8,430.7,632.1,432.1,631.8z"/>
<path id="矩形_46-4" class="st6" d="M430.8,632.5l31.5,10.1v11.5L430.8,643V632.5L430.8,632.5z"/>
<path id="矩形_46_拷贝-4" class="st6" d="M489.2,633.1l-27.5,9.6v11.5l27.5-10.5V633.1z"/>
<rect id="矩形_48" x="148.8" y="159.7" class="st7" width="246.4" height="0.8"/>
<path id="形状_2-3" class="st8" d="M395.2,156.6h-134L188.8,42.7h-83.6"/>
<path id="形状_2_拷贝-3" class="st8" d="M395.2,164.4h-134l-72.5,111.9h-79.6"/>
<rect id="矩形_49_拷贝_4" x="446" y="233" class="st9" width="1" height="120"/>
<rect id="矩形_49_拷贝_5" x="349" y="352" class="st9" width="98" height="1"/>
<path id="圆角矩形_1-5" class="st5" d="M396.3,149.7l47.5-12.2c2-0.4,4.1-0.4,6.1,0.2l39.8,12.9c1.7,0.6,2,1.5,0.5,2l-41.5,15.3
	c-2.4,0.8-5,0.8-7.5,0.1l-45.8-16C393.5,151.3,393.9,150.3,396.3,149.7z"/>
<path id="圆角矩形_1_拷贝-5" class="st0" d="M397.7,175l47.5-12.1c2-0.4,4.1-0.4,6.1,0.2l39.8,12.9c1.7,0.6,2,1.5,0.5,2
	L450,193.2c-2.4,0.8-5,0.8-7.5,0.1l-45.8-16C394.9,176.7,395.4,175.6,397.7,175z"/>
<g id="主链_" class="st1">
	<path d="M426.3,210h17v1h-7.9v5.2h7.2v1h-7.2v5.9h8.8v1h-18.7v-1h8.8v-5.9h-7.2v-1h7.2V211h-8L426.3,210L426.3,210z M433.7,206.8
		l1-0.4c0.6,1.2,1.1,2.1,1.4,2.9l-1.1,0.4C434.8,208.9,434.3,208,433.7,206.8z"/>
	<path d="M445.3,212.9c1.2-1.8,2.1-3.9,2.7-6.5l1,0.2c-0.4,1.2-0.7,2.1-0.9,2.8h3.3v0.9h-3.7c-0.4,0.9-0.9,2-1.6,3.2
		C445.9,213.4,445.6,213.2,445.3,212.9z M445.4,216.9h2.5V214h-1.2v-0.9h4.1v0.9H449v2.8h2.6v0.9H449v4.7l2.3-2.2l0.2,1.1
		c-0.9,0.9-1.8,1.6-2.5,2.3c-0.2,0.2-0.5,0.5-0.8,0.8l-0.7-0.8c0.2-0.3,0.3-0.5,0.4-0.8c0.1-0.2,0.1-0.6,0.1-1v-4.2h-2.5v-0.7H445.4
		z M458.7,223.7c0.9,0,1.9,0,2.8,0s1.9,0,2.8,0c-0.2,0.4-0.3,0.7-0.3,1.1c-1.4,0-3.2,0-5.4-0.1c-2.1,0-3.7-0.7-4.8-2.3
		c-0.7,0.7-1.3,1.6-2,2.7l-0.8-0.7c0.5-0.6,1.2-1.5,2.1-2.6c0.1-0.1,0.2-0.3,0.3-0.3v-6.9h-1.6v-0.9h2.5v7.9
		C455.3,222.9,456.8,223.7,458.7,223.7z M453.8,211c-0.3-1.1-0.8-2.4-1.4-3.9l0.9-0.3c0.6,1.6,1.1,2.9,1.5,3.9L453.8,211z
		 M455.7,218.8h4.3v-2.9h-3.7v-1.2c0.6-1.4,1.2-2.9,1.7-4.7h-2v-0.9h2.3c0.3-0.9,0.5-1.8,0.7-2.7l1,0.2c-0.3,1-0.5,1.8-0.7,2.5h4.7
		v0.9h-5c-0.6,1.8-1.1,3.4-1.7,4.9h2.7v-3.5h1v3.5h2.7v0.9H461v2.9h3.2v0.9H461v3.1h-1v-3.1h-4.3V218.8z"/>
</g>
<path id="椭圆_11-5" class="st4" d="M445.3,145.1c12.1,0,22,2,22,4.4s-9.8,4.4-22,4.4s-22-2-22-4.4S433.1,145.1,445.3,145.1z"/>
<path id="矩形_46-5" class="st6" d="M394.1,150.9l52.7,18.5V187l-52.7-18.5V150.9L394.1,150.9z"/>
<path id="矩形_46_拷贝-5" class="st6" d="M491.6,151.9l-45.8,17.6V187l45.8-17.5V151.9L491.6,151.9z"/>
<path id="圆角矩形_1-6" class="st5" d="M268.7,340.9l47.5-12.2c2-0.4,4.1-0.4,6.1,0.2l39.8,12.9c1.7,0.6,2,1.5,0.5,2L321,359
	c-2.4,0.8-5,0.8-7.5,0.1l-45.8-16C265.9,342.5,266.3,341.4,268.7,340.9z"/>
<path id="圆角矩形_1_拷贝-6" class="st0" d="M267.7,366.2l47.5-12.1c2-0.4,4.1-0.4,6.1,0.2l39.8,12.9c1.7,0.6,2,1.5,0.5,2
	L320,384.3c-2.4,0.8-5,0.8-7.5,0.1l-45.8-16C264.9,367.8,265.3,366.8,267.7,366.2z"/>
<g id="跨链网关" class="st1">
	<path d="M280.9,405.3h1v7.4c0.2,0,0.5-0.1,0.9-0.2s0.6-0.1,0.8-0.2v-9h-2.7v-5.9h5.4v5.9h-1.8v3.3h2.1v0.9h-2.1v4.6
		c0.3-0.1,0.7-0.2,1.3-0.3c0.6-0.1,1-0.2,1.3-0.3c0,0.1,0,0.3,0,0.4c0,0.2,0,0.4,0,0.6c-2,0.4-4.4,0.9-7.2,1.5l-0.2-1.1
		c0.4-0.1,0.7-0.1,1.1-0.2v-7.4H280.9z M281.9,398.4v4.1h3.5v-4.1H281.9z M287.5,398.9h3.9c0.4-0.7,0.7-1.5,1-2.5l1,0.2
		c-0.3,0.8-0.6,1.6-0.9,2.2h5.6v0.9h-3.9c1,1.7,2.5,3,4.5,3.9c-0.1,0.2-0.3,0.4-0.5,0.8c0,0.1-0.1,0.1-0.1,0.1
		c-2.3-1.2-3.9-2.8-4.9-4.8H292c-0.9,1.8-2.5,3.5-4.7,5.1c-0.2-0.2-0.4-0.5-0.7-0.8c2-1.3,3.5-2.7,4.3-4.2h-3.4L287.5,398.9
		L287.5,398.9z M287.1,406.2h11.2v0.9h-7.9l-0.6,2.2h7.1c-0.1,1.3-0.2,2.4-0.3,3.2c-0.1,1.6-1,2.3-2.7,2.3c-0.9,0-1.8,0-2.9,0
		c0-0.3-0.1-0.7-0.3-1.1c0.8,0,1.4,0.1,1.8,0.1c0.2,0,0.5,0,0.7,0s0.4,0,0.5,0c1.2,0,1.8-0.5,1.8-1.5c0.1-0.7,0.2-1.4,0.2-2.1h-7.3
		l0.9-3.1h-2.2L287.1,406.2L287.1,406.2z M289.8,403.3h5.9v0.9h-5.9V403.3z"/>
	<path d="M299.7,402.9c1.2-1.8,2.1-3.9,2.7-6.5l1,0.2c-0.4,1.2-0.7,2.1-0.9,2.8h3.3v0.9h-3.7c-0.4,0.9-0.9,2-1.6,3.2
		C300.2,403.4,300,403.1,299.7,402.9z M299.8,406.8h2.5V404h-1.2v-1h4.1v0.9h-1.9v2.8h2.6v0.9h-2.6v4.7l2.3-2.2l0.2,1.1
		c-0.9,0.9-1.8,1.6-2.5,2.3c-0.2,0.2-0.5,0.5-0.8,0.8l-0.7-0.8c0.2-0.3,0.3-0.5,0.4-0.8c0.1-0.2,0.1-0.6,0.1-1v-4.2h-2.5V406.8z
		 M313.1,413.6c0.9,0,1.9,0,2.8,0s1.9,0,2.8,0c-0.2,0.4-0.3,0.7-0.3,1.1c-1.4,0-3.2,0-5.4-0.1c-2.1,0-3.7-0.7-4.8-2.3
		c-0.7,0.7-1.3,1.6-2,2.7l-0.8-0.7c0.5-0.6,1.2-1.5,2.1-2.6c0.1-0.1,0.2-0.3,0.3-0.3v-6.9h-1.6v-0.9h2.5v7.9
		C309.7,412.9,311.2,413.6,313.1,413.6z M308.2,400.9c-0.3-1.1-0.8-2.4-1.4-3.9l0.9-0.3c0.6,1.6,1.1,2.9,1.5,3.9L308.2,400.9z
		 M310,408.8h4.3v-2.9h-3.7v-1.2c0.6-1.4,1.2-2.9,1.7-4.7h-2v-1h2.3c0.3-0.9,0.5-1.8,0.7-2.7l1,0.2c-0.3,1-0.5,1.8-0.7,2.5h4.7v0.9
		h-5c-0.6,1.8-1.1,3.4-1.7,4.9h2.7v-3.5h1v3.5h2.7v0.9h-2.7v2.9h3.2v0.9h-3.2v3.1h-1v-3.1H310V408.8z"/>
	<path d="M322.2,415h-1.1v-17.5h16.2v15c0,1.6-0.7,2.4-2.2,2.4c-0.4,0-0.8,0-1.2,0c-0.2,0-0.4,0-0.6,0s-0.5,0-0.8,0
		c-0.1-0.4-0.1-0.8-0.2-1.1c0.8,0.1,1.6,0.1,2.3,0.1c1.1,0.1,1.7-0.4,1.6-1.5v-13.8h-14.1V415H322.2z M323.1,401.4l0.8-0.5
		c0.4,0.7,1.1,1.8,1.9,3.2c0.2,0.3,0.4,0.6,0.4,0.8c0.7-1.5,1.3-2.9,1.7-4.2l1,0.3c-0.6,1.6-1.3,3.2-2.1,4.9
		c0.7,1.3,1.5,2.6,2.2,3.9l-0.9,0.5c-0.3-0.5-0.6-1.1-1.1-2c-0.3-0.6-0.6-1-0.7-1.3c-0.8,1.5-1.7,3.1-2.7,4.5
		c-0.3-0.2-0.6-0.4-0.9-0.6c1.2-1.7,2.2-3.3,3-5C325.1,404.7,324.2,403.2,323.1,401.4z M329.3,401.9l0.8-0.4
		c0.5,0.9,1.3,2.2,2.3,3.9c0.8-1.5,1.4-3,2-4.5l0.9,0.4c-0.7,1.7-1.4,3.4-2.3,5.2c0.5,0.8,1.2,2.1,2.1,3.7c0.2,0.4,0.3,0.6,0.4,0.8
		l-0.9,0.5c-0.1-0.1-0.2-0.4-0.4-0.7c-0.8-1.4-1.4-2.5-1.8-3.3c-0.9,1.6-1.8,3-2.7,4.3c-0.3-0.2-0.6-0.4-0.9-0.6
		c1.1-1.6,2.1-3.2,3-4.8C331.1,405.2,330.3,403.7,329.3,401.9z"/>
	<path d="M340.8,415.2c-0.1-0.2-0.3-0.5-0.6-0.8c-0.1-0.1-0.1-0.2-0.2-0.2c5.1-1.8,7.8-4.3,8.3-7.6h-8.1v-1h8.2
		c0.1-0.8,0.2-2.2,0.2-4.1h-7.3v-1h9.2c1.1-1.3,2.2-2.7,3.2-4.2l1,0.5c-1,1.4-2,2.6-2.9,3.6h5.2v1h-7.3c0,1.6-0.1,3-0.2,4.1h8.7v1
		H350c1.2,3.8,4.1,6.2,8.6,7.3c-0.2,0.3-0.4,0.6-0.7,1c-4.7-1.5-7.6-4-8.6-7.6C348.5,410.8,345.7,413.4,340.8,415.2z M343.6,397
		l0.9-0.6c0.8,0.9,1.7,1.9,2.7,3.2l-0.9,0.6C345.3,399,344.4,398,343.6,397z"/>
</g>
<path id="椭圆_11-6" class="st4" d="M317.7,336.3c12.1,0,21.9,2,21.9,4.4s-9.8,4.4-21.9,4.4s-21.9-2-21.9-4.4
	S305.6,336.3,317.7,336.3z"/>
<path id="矩形_46-6" class="st6" d="M266.5,342.1l52.7,18.5v17.5l-52.7-18.5V342.1z"/>
<path id="矩形_46_拷贝-6" class="st6" d="M364,343.1l-45.8,17.6v17.5l45.8-17.5V343.1L364,343.1z"/>
<g id="商业地产" class="st1">
	<path d="M24.8,66.6l1-0.3c0.3,0.9,0.6,1.6,0.8,2.3H35v0.9H16.3v-0.9h9.2C25.2,67.8,25,67.1,24.8,66.6z M20.9,70.1l0.9-0.5
		c0.7,0.9,1.3,1.7,1.8,2.4l-0.9,0.6h4.7c0.7-0.9,1.3-1.9,2-3l1,0.5c-0.5,0.8-1.1,1.6-1.8,2.5h4.9v10.1c0.1,1.4-0.7,2.1-2.2,2.1
		c-0.3,0-0.7,0-1,0c-0.2,0-0.3,0-0.5,0s-0.4,0-0.8,0c0-0.4-0.1-0.7-0.2-1.1c0.5,0,0.9,0.1,1.2,0.1c0.3,0,0.7,0,1.1,0
		c0.5,0,0.9-0.1,1.1-0.3c0.2-0.2,0.3-0.5,0.3-1v-9H18.8v11.7h-1V72.6h4.8C22.2,71.9,21.6,71.1,20.9,70.1z M23.6,74l0.8,0.7
		c-1.5,1.2-2.9,2.2-4.3,3c-0.1-0.2-0.4-0.5-0.7-0.8C21.1,76,22.5,75,23.6,74z M29.4,82.3H22v-5h7.4V82.3z M22.9,78.1v3.2h5.4v-3.2
		H22.9z M26.9,74.8l0.6-0.7c1.3,0.8,2.7,1.7,4.3,2.8l-0.7,0.8C29.9,76.7,28.5,75.8,26.9,74.8z"/>
	<path d="M47.6,66.7h1.1v16.2h6.4v1H36.2v-1h6.3V66.7h1.1v16.2h3.9L47.6,66.7L47.6,66.7z M40,78.6c-0.8-2.3-1.7-4.8-2.9-7.6l1-0.3
		c1,2.3,2,4.8,3,7.6L40,78.6z M51,78.6l-1-0.5c1.1-2.1,2.1-4.7,3.2-7.6l1.1,0.4C53.2,73.8,52.1,76.4,51,78.6z"/>
	<path d="M56.4,82.8l-0.3-1c0.7-0.2,1.6-0.5,2.8-0.8v-8.1h-2.3v-1h2.3v-5.5H60v5.5h2.1v1H60v7.8c0.2-0.1,0.5-0.2,0.9-0.3
		c0.7-0.2,1.3-0.4,1.7-0.6c0,0.1,0,0.4,0.1,1C60,81.7,57.8,82.3,56.4,82.8z M63.8,68.8h1.1v4.3l3.4-1.2v-5.5h1.1v5.2l4.7-1.7
		c-0.1,2.4-0.1,4.3-0.2,5.8c0,1.9-0.8,2.9-2.2,2.8c-0.3,0-0.8,0-1.3,0c0-0.3-0.1-0.6-0.2-1c0.2,0,0.4,0,0.6,0c0.1,0,0.2,0,0.3,0
		c0.1,0,0.3,0,0.5,0c0.9,0.1,1.3-0.5,1.3-1.7c0.1-1.6,0.2-3.1,0.2-4.5l-3.7,1.3V81h-1.1v-8.1l-3.4,1.2v7.4c0,0.8,0.1,1.3,0.4,1.6
		c0.3,0.3,0.8,0.4,1.7,0.4h4.2c1.6,0.1,2.4-0.5,2.6-1.6c0.2-0.9,0.3-1.8,0.4-2.7c0.4,0.2,0.7,0.3,1,0.3c-0.1,1.1-0.3,2-0.4,2.7
		c-0.2,0.8-0.5,1.4-1,1.7c-0.5,0.3-1.2,0.5-2.3,0.5h-4.9c-2,0.1-2.9-0.8-2.8-2.6v-7.3l-1.7,0.6l-0.2-1l1.8-0.6v-4.7H63.8z"/>
	<path d="M78.2,74.2h9.4c0.8-1.2,1.5-2.4,2.3-3.8l1,0.5c-0.7,1-1.4,2.1-2.2,3.2h5.7v1H79.3v1.5c0.1,3.5-0.7,6.3-2.3,8.4
		c-0.3-0.3-0.6-0.6-0.9-0.8c0.8-1,1.3-2,1.6-3.2c0.3-1.1,0.5-2.6,0.5-4.5V74.2z M85.1,66.6l1.1-0.3c0.3,0.9,0.6,1.6,0.8,2.3h8v1
		H76.6v-1h9.2c-0.1-0.4-0.3-1-0.6-1.8C85.1,66.7,85.1,66.7,85.1,66.6z M81,70.9l0.9-0.6c0.6,0.7,1.3,1.7,2.2,2.9l-1,0.6
		C82.4,72.8,81.7,71.8,81,70.9z"/>
</g>
<path id="圆角矩形_1_拷贝-7" class="st0" d="M22.8,50.1l28.5-7.3c1.2-0.3,2.5-0.2,3.6,0.1l23.9,7.7c1,0.3,1.2,0.9,0.3,1.2
	L54.2,61c-1.5,0.5-3,0.5-4.5,0.1l-27.5-9.6C21.1,51.1,21.4,50.5,22.8,50.1z"/>
<path id="圆角矩形_1-7" class="st5" d="M23.4,34.9l28.5-7.3c1.2-0.3,2.5-0.2,3.6,0.1l23.9,7.7c1,0.3,1.2,0.9,0.3,1.2l-24.9,9.1
	c-1.5,0.5-3,0.5-4.5,0.1l-27.5-9.6C21.7,35.9,21.9,35.3,23.4,34.9z"/>
<path id="矩形_46-7" class="st6" d="M22,35.7l31.6,10.1v11.5L22,46.2V35.7L22,35.7z"/>
<path id="矩形_46_拷贝-7" class="st6" d="M80.6,36.3l-27.5,9.6v11.5l27.5-10.5V36.3z"/>
<ellipse id="椭圆_11-7" class="st4" cx="52.7" cy="34.8" rx="13.2" ry="2.6"/>
<path id="圆角矩形_1-8" class="st5" d="M23.4,152.5l28.5-7.3c1.2-0.3,2.5-0.2,3.6,0.1l23.9,7.7c1,0.3,1.2,0.9,0.3,1.2l-24.9,9.2
	c-1.5,0.5-3,0.5-4.5,0.1l-27.5-9.6C21.7,153.5,21.9,152.9,23.4,152.5z"/>
<path id="圆角矩形_1_拷贝-8" class="st0" d="M22.8,167.7l28.5-7.3c1.2-0.3,2.5-0.2,3.6,0.1l23.9,7.7c1,0.3,1.2,0.9,0.3,1.2
	l-24.9,9.1c-1.5,0.5-3,0.5-4.5,0.1L22.2,169C21.1,168.7,21.4,168.1,22.8,167.7z"/>
<ellipse id="椭圆_11-8" class="st4" cx="52.7" cy="152.4" rx="13.2" ry="2.6"/>
<path id="矩形_46-8" class="st6" d="M22,153.2l31.6,10.1v11.5l-31.6-11V153.2L22,153.2z"/>
<path id="矩形_46_拷贝-8" class="st6" d="M80.6,153.8l-27.5,9.6v11.5l27.5-10.5V153.8z"/>
<g id="供应链金融" class="st1">
	<path d="M2.9,313.3c-0.1-0.4-0.3-0.8-0.5-1.1c1.9-2.6,3.4-5.6,4.5-8.9l1.1,0.3c-0.6,1.6-1.2,3-1.7,4.2V322h-1v-12.2
		C4.6,310.9,3.8,312.1,2.9,313.3z M12.1,316.6l0.9,0.7c-1.6,1.8-3.2,3.3-4.8,4.6c-0.2-0.2-0.5-0.5-0.8-0.8
		C9.1,319.7,10.7,318.2,12.1,316.6z M16.8,303.2h1v4.3h2.7v1h-2.7v6h3.5v1H7.5v-1H11v-6H8.3v-1h2.6v-4.3h1v4.3h4.8L16.8,303.2
		L16.8,303.2z M12,308.5v6h4.8v-6H12z M15.9,317.3l0.8-0.7c1.3,1.2,2.8,2.7,4.6,4.5l-0.8,0.8C19.3,320.6,17.8,319.1,15.9,317.3z"/>
	<path d="M31.9,303.3l1-0.3c0.3,0.9,0.7,1.8,1,2.9H41v1H25.8v3.9c0,2.9-0.1,5.1-0.5,6.5c-0.3,1.5-1,3-1.9,4.5
		c-0.2-0.2-0.5-0.4-0.9-0.7c0.9-1.5,1.5-2.8,1.8-4.1c0.3-1.2,0.4-3.2,0.4-5.9v-5.3h8.1C32.7,305.4,32.4,304.5,31.9,303.3z
		 M38.5,309.3l1.1,0.3c-1.3,4.5-2.3,7.9-3.2,10.1h4.9v1H26.2v-1h9.1C36.6,316,37.7,312.6,38.5,309.3z M27.3,310l1-0.2
		c0.7,2.2,1.4,4.8,2.1,7.6l-1.1,0.3C28.8,315.2,28.1,312.7,27.3,310z M32,309.1l1-0.2c0.5,2.1,1,4.6,1.6,7.6l-1.1,0.2
		C33.1,314,32.6,311.5,32,309.1z"/>
	<path d="M42.4,309.6c1.2-1.8,2.1-4,2.7-6.5l1,0.2c-0.4,1.2-0.7,2.1-0.9,2.8h3.3v0.9h-3.7c-0.4,0.9-0.9,2-1.6,3.2
		C43,310.1,42.7,309.9,42.4,309.6z M42.6,313.5h2.5v-2.8h-1.2v-0.9H48v0.9h-1.9v2.8h2.6v0.9h-2.6v4.7l2.3-2.2l0.2,1.1
		c-0.9,0.9-1.8,1.6-2.5,2.3c-0.2,0.2-0.5,0.5-0.8,0.8l-0.7-0.8c0.2-0.3,0.3-0.5,0.4-0.8c0.1-0.2,0.1-0.6,0.1-1v-4.2h-2.5V313.5z
		 M55.9,320.3c0.9,0,1.9,0,2.8,0c0.9,0,1.9,0,2.8,0c-0.2,0.4-0.3,0.7-0.3,1.1c-1.4,0-3.2,0-5.4-0.1c-2.1,0-3.7-0.7-4.8-2.3
		c-0.7,0.7-1.3,1.6-2,2.7l-0.8-0.7c0.5-0.6,1.2-1.5,2.1-2.6c0.1-0.1,0.2-0.3,0.3-0.3v-6.9H49v-0.9h2.5v7.9
		C52.5,319.6,53.9,320.4,55.9,320.3z M50.9,307.7c-0.3-1.1-0.8-2.4-1.4-3.9l0.9-0.3c0.6,1.6,1.1,2.9,1.5,3.9L50.9,307.7z
		 M52.8,315.5h4.3v-2.9h-3.7v-1.2c0.6-1.4,1.2-2.9,1.7-4.7h-2v-0.9h2.3c0.3-0.9,0.5-1.8,0.7-2.7l1,0.2c-0.3,1-0.5,1.8-0.7,2.5h4.7
		v0.9h-5c-0.6,1.8-1.1,3.4-1.7,4.9h2.7v-3.5h1v3.5h2.7v0.9H58v2.9h3.2v0.9H58v3.1h-1v-3.1h-4.3L52.8,315.5L52.8,315.5z"/>
	<path d="M80.8,310.2c-3.7-1.4-6.6-3.3-8.8-5.8c-2.2,2.4-5.1,4.4-8.8,6c-0.1-0.2-0.4-0.5-0.7-0.9c4.3-1.9,7.5-4.1,9.3-6.6l1.2,0.2
		c0,0.1-0.1,0.1-0.2,0.2s-0.2,0.2-0.2,0.3c2.3,2.5,5.2,4.3,8.7,5.5C81.1,309.6,80.9,310,80.8,310.2z M65.8,309.6h12v1h-5.3v3.2h7v1
		h-7v5.5h8.3v1H63.2v-1h8.3v-5.5h-7v-1h7v-3.2h-5.6L65.8,309.6L65.8,309.6z M65.5,316.3l0.8-0.6c0.9,0.9,1.8,1.8,2.6,2.7l-0.9,0.7
		C67.3,318.4,66.5,317.4,65.5,316.3z M75.7,319.2l-0.8-0.7c0.9-0.8,1.8-1.7,2.8-2.7l0.9,0.6C77.6,317.4,76.6,318.3,75.7,319.2z"/>
	<path d="M83,304h9.5v0.9H83V304z M84.3,321.8h-1v-9.6h8.9v7.8c0.1,1.2-0.5,1.8-1.8,1.8c-0.4,0-0.8,0-1.2,0c0-0.3-0.1-0.6-0.2-1
		c0.2,0,0.6,0,1.3,0c0.4,0,0.6-0.1,0.8-0.2c0.1-0.1,0.2-0.4,0.2-0.9V313h-6.9v8.8H84.3z M84.1,306.5h7.2v4h-7.2V306.5z M85,316.6h3
		c0.5-0.9,0.9-1.9,1.4-3.2l0.9,0.4c-0.1,0.1-0.1,0.3-0.3,0.6c-0.5,1-0.9,1.8-1.1,2.2h1.6v0.9h-2.3v3.8h-1v-3.8H85V316.6z
		 M85.1,307.4v2.2h5.3v-2.2H85.1z M85.2,313.9l0.8-0.4c0.4,0.8,0.9,1.6,1.3,2.4l-0.9,0.4c-0.2-0.5-0.6-1.2-1.1-2.2
		C85.3,314,85.2,313.9,85.2,313.9z M93.1,321.4l-0.3-1c1-0.1,2.2-0.2,3.8-0.3v-5.3h-2v1.6h-1v-9.5h3v-3.5h1v3.5h3v7.9h-3v5.2
		c1-0.1,1.8-0.2,2.5-0.2c-0.3-1-0.5-2.1-0.9-3.2l0.9-0.2c0.6,2.1,1.1,3.8,1.4,5.2l-0.9,0.2c0-0.2-0.1-0.4-0.2-0.8
		c0-0.2-0.1-0.3-0.1-0.4C96.7,320.9,94.3,321.2,93.1,321.4z M94.6,307.6v6.2h2v-6.2H94.6z M99.6,307.6h-2v6.2h2V307.6z"/>
</g>
<path id="圆角矩形_1-9" class="st5" d="M23.4,268.1l28.5-7.3c1.2-0.3,2.5-0.2,3.6,0.1l23.9,7.7c1,0.3,1.2,0.9,0.3,1.2l-25,9.2
	c-1.5,0.5-3,0.5-4.5,0.1l-27.5-9.6C21.7,269.1,21.9,268.5,23.4,268.1z"/>
<path id="圆角矩形_1_拷贝-9" class="st0" d="M22.8,283.3l28.5-7.3c1.2-0.3,2.5-0.2,3.6,0.1l23.9,7.7c1,0.3,1.2,0.9,0.3,1.2
	l-24.9,9.1c-1.5,0.5-3,0.5-4.5,0.1l-27.5-9.6C21.1,284.3,21.4,283.7,22.8,283.3z"/>
<path id="椭圆_11-9" class="st4" d="M52.7,265.4c7.3,0,13.2,1.2,13.2,2.6s-5.9,2.6-13.2,2.6s-13.2-1.2-13.2-2.6
	S45.5,265.4,52.7,265.4z"/>
<path id="矩形_46-9" class="st6" d="M22,268.9L53.6,279v11.5L22,279.4V268.9L22,268.9z"/>
<path id="矩形_46_拷贝-9" class="st6" d="M80.6,269.4L53.1,279v11.5L80.6,280V269.4z"/>
<g>
	<path d="M37.5,32.1h16v-32h-16V32.1z M47.5,4.1h4v4h-4V4.1z M47.5,12.1h4v4h-4V12.1z M47.5,20.1h4v4h-4V20.1z M39.5,4.1h4v4h-4V4.1
		z M39.5,12.1h4v4h-4V12.1z M39.5,20.1h4v4h-4V20.1z M55.6,10.1h14v2h-14V10.1z M55.6,32.1h4v-8h6v8h4v-18h-14V32.1z"/>
</g>
<g>
	<path d="M61.9,138.1V138c1.5-1,2.3-2.3,2.3-3.7v-3.9c0-3.4-5.4-6-12.5-6s-12.5,2.6-12.5,6v1.1c-1.5,1-2.3,2.2-2.3,3.6v3.9
		c0,1.5,1,2.9,2.8,4v3c0,3.5,5.5,6.3,12.5,6.3s12.5-2.8,12.5-6.3v-4C64.7,140.5,63.7,139.2,61.9,138.1z M63.7,142
		c0,3-5.4,5.6-11.6,5.6c-0.3,0-0.5,0-0.8,0c-0.1,0-0.2,0-0.2,0c-0.2,0-0.5,0-0.7,0c-0.1,0-0.3,0-0.4,0c-0.1,0-0.1,0-0.2,0
		c-3.8-0.4-7.1-1.8-8.5-3.5c0,0,0,0-0.1-0.1c0,0,0-0.1-0.1-0.1c0.7,0.3,1.4,0.5,2.1,0.7c2.1,1.4,5.3,2.1,8.8,2.1
		c6.3,0,10.7-2.4,10.7-4.6c0-0.6-0.4-1.3-1.1-1.9v-0.1V140c0-0.1,0-0.1,0-0.2v-0.1c0-0.1,0-0.1,0-0.2v-0.1l0,0
		C62.8,139.8,63.7,140.8,63.7,142z M54.1,148.4L54.1,148.4c0.3,0,0.6-0.1,0.8-0.1c0.1,0,0.1,0,0.2,0c0.3,0,0.5-0.1,0.8-0.1v2.8
		c-0.6,0.1-1.2,0.2-1.9,0.2L54.1,148.4C54,148.4,54,148.4,54.1,148.4z M56.8,148L56.8,148c0.3-0.1,0.6-0.1,0.8-0.2h0.1
		c0.2,0,0.3-0.1,0.5-0.1v2.8c-0.4,0.1-0.9,0.2-1.4,0.3L56.8,148L56.8,148z M59.1,147.4C59.1,147.4,59.2,147.3,59.1,147.4
		c0.1,0,0.1-0.1,0.2-0.1c0.2-0.1,0.4-0.1,0.6-0.2c0.1,0,0.1,0,0.2-0.1l0,0v2.8c-0.3,0.1-0.6,0.3-0.9,0.4L59.1,147.4L59.1,147.4z
		 M61,146.6c0.1,0,0.2-0.1,0.2-0.1s0.1,0,0.1-0.1c0.2-0.1,0.4-0.2,0.5-0.3l0,0v2.7c-0.3,0.2-0.6,0.4-0.9,0.6L61,146.6L61,146.6z
		 M42.4,146c0.3,0.2,0.6,0.4,0.9,0.5v2.8c-0.3-0.2-0.6-0.4-0.9-0.6V146z M40.1,132.8L40.1,132.8c0.1,0.2,0.2,0.3,0.4,0.4l0.1,0.1
		c0.1,0.1,0.2,0.2,0.3,0.3c0,0,0.1,0,0.1,0.1c0,0,0.1,0,0.1,0.1v2.6c-0.6-0.6-0.9-1.3-0.9-2.1L40.1,132.8L40.1,132.8z M42.5,134.8
		c0,0,0.1,0,0.1,0.1c0.1,0,0.2,0.1,0.2,0.1v2.7c-0.3-0.2-0.6-0.4-0.9-0.6v-2.7l0,0C42.2,134.6,42.3,134.7,42.5,134.8z M44,135.5
		c0.2,0.1,0.4,0.1,0.6,0.2h0.1c0,0,0,0,0.1,0v2.8c-0.3-0.1-0.6-0.2-0.9-0.4v-2.8l0,0C43.9,135.5,43.9,135.5,44,135.5z M46.2,136.2
		c0.2,0.1,0.5,0.1,0.7,0.2H47v2.8c-0.5-0.1-0.9-0.2-1.4-0.3v-2.8C45.8,136.1,46,136.2,46.2,136.2L46.2,136.2z M48.9,136.7
		c0.3,0,0.5,0.1,0.8,0.1l0,0c0,0,0,0,0.1,0v2.8c-0.6,0-1.3-0.1-1.9-0.2v-2.8c0.3,0,0.5,0.1,0.8,0.1
		C48.8,136.7,48.9,136.7,48.9,136.7z M51.7,136.9c0.3,0,0.6,0,0.9,0c0,0,0,0,0.1,0v2.8c-0.3,0-0.6,0-0.9,0c-0.3,0-0.6,0-0.9,0v-2.8
		c0,0,0,0,0.1,0C51.1,136.9,51.4,136.9,51.7,136.9z M53.6,136.8c0.3,0,0.5,0,0.8-0.1c0.1,0,0.1,0,0.2,0c0.3,0,0.5-0.1,0.8-0.1v2.8
		c-0.2,0-0.3,0.1-0.5,0.1c-0.1,0-0.2,0-0.3,0c-0.3,0-0.7,0.1-1.1,0.1L53.6,136.8C53.6,136.8,53.6,136.8,53.6,136.8L53.6,136.8z
		 M57.1,136.2C57.2,136.2,57.2,136.2,57.1,136.2c0.3-0.1,0.4-0.1,0.6-0.2v2.8c-0.1,0-0.1,0-0.2,0.1l0,0c-0.1,0-0.2,0.1-0.3,0.1
		c-0.3,0.1-0.5,0.1-0.8,0.2h-0.1v-2.8h0.1C56.7,136.3,56.9,136.3,57.1,136.2z M58.8,135.7c0.2-0.1,0.4-0.1,0.6-0.2
		c0.1,0,0.1,0,0.2-0.1l0,0v2.8c-0.3,0.1-0.6,0.3-0.9,0.4v-2.8C58.7,135.8,58.7,135.8,58.8,135.7C58.8,135.7,58.8,135.7,58.8,135.7z
		 M60.9,134.8c0.2-0.1,0.4-0.2,0.5-0.3l0,0v2.7c-0.3,0.2-0.6,0.4-0.9,0.6V135c0.1,0,0.2-0.1,0.2-0.1
		C60.8,134.8,60.8,134.8,60.9,134.8z M41.5,140.1c0.1,0,0.1,0,0.2,0.1c0.2,0.1,0.4,0.1,0.6,0.2h0.1c0,0,0,0,0.1,0v2.8
		c-0.3-0.1-0.6-0.2-0.9-0.4L41.5,140.1L41.5,140.1z M43.9,140.9c0.2,0.1,0.5,0.1,0.7,0.2h0.1v2.8h-0.1c-0.2-0.1-0.5-0.1-0.7-0.2
		c-0.2,0-0.4-0.1-0.6-0.2v-2.8C43.5,140.7,43.7,140.8,43.9,140.9C43.9,140.8,43.9,140.8,43.9,140.9z M46.6,141.3
		c0.3,0,0.5,0.1,0.8,0.1l0,0c0,0,0,0,0.1,0v2.8c-0.3,0-0.6-0.1-0.9-0.1c-0.2,0-0.3,0-0.4-0.1c-0.2,0-0.3,0-0.5-0.1v-2.8
		c0.3,0,0.5,0.1,0.8,0.1C46.5,141.3,46.6,141.3,46.6,141.3z M49.4,141.5c0.3,0,0.6,0,0.9,0v2.8l0,0c-0.3,0-0.6,0-0.9,0
		c-0.3,0-0.6,0-0.9,0v-2.8c0,0,0,0,0.1,0C48.8,141.5,49.1,141.5,49.4,141.5z M52.5,144.1c-0.1,0-0.2,0-0.3,0c-0.2,0-0.5,0.1-0.7,0.1
		c-0.1,0-0.2,0-0.2,0l0,0v-2.8c0.2,0,0.3,0,0.5,0s0.3,0,0.5-0.1c0.2,0,0.4-0.1,0.7-0.1c0.1,0,0.2,0,0.3,0v2.8h-0.1
		C52.8,144,52.7,144.1,52.5,144.1z M54.4,140.9c0.2,0,0.4-0.1,0.6-0.1c0.2,0,0.3-0.1,0.4-0.1v2.8c-0.4,0.1-0.9,0.2-1.4,0.3V141
		C54.1,141,54.2,141,54.4,140.9z M56.3,140.4C56.4,140.4,56.4,140.4,56.3,140.4c0.3-0.1,0.4-0.2,0.6-0.2c0.1,0,0.2-0.1,0.3-0.1v2.8
		c-0.3,0.1-0.6,0.3-0.9,0.4L56.3,140.4L56.3,140.4z M58.2,142.4v-2.7c0.3-0.1,0.6-0.2,0.9-0.3v2.4C58.8,142,58.5,142.2,58.2,142.4z
		 M61,138.9c0,0.4-0.1,0.7-0.2,1v0.1c-0.1,0.3-0.3,0.6-0.6,0.8l-0.1,0.1l0,0v-2c0.3-0.1,0.6-0.3,0.9-0.5C61,138.4,61,138.9,61,138.9
		z M39.6,139.1C39.6,139.1,39.7,139.1,39.6,139.1c0.2,0.1,0.4,0.2,0.6,0.3c0,0,0.1,0,0.1,0.1c0.1,0,0.2,0.1,0.2,0.1v2.3h-0.7
		c-0.1-0.1-0.2-0.1-0.3-0.2v-2.6H39.6z M44.3,147c0.3,0.1,0.6,0.2,0.9,0.4v2.8c-0.3-0.1-0.6-0.2-0.9-0.4V147z M46.1,147.7
		c0.4,0.1,0.9,0.2,1.4,0.3v2.8c-0.5-0.1-0.9-0.2-1.4-0.3V147.7z M48.4,148.2c0.1,0,0.1,0,0.2,0c0.1,0,0.2,0,0.3,0
		c0.2,0,0.3,0,0.5,0.1c0.2,0,0.4,0,0.5,0.1c0.1,0,0.2,0,0.2,0v2.8c-0.6,0-1.3-0.1-1.9-0.2v-2.8H48.4z M63.3,132.8v1.5
		c0,0.7-0.3,1.4-0.9,2.1v-2.6c0,0,0.1,0,0.1-0.1c0,0,0.1,0,0.1-0.1c0.1-0.1,0.2-0.2,0.3-0.3l0.1-0.1C63,133.1,63.2,133,63.3,132.8
		L63.3,132.8z M51.7,125.3c6.5,0,11.6,2.2,11.6,5.1c0,3-5.4,5.6-11.6,5.6s-11.6-2.6-11.6-5.6C40.1,127.5,45.2,125.3,51.7,125.3z
		 M37.8,138.9v-1.5l0,0c0.1,0.1,0.2,0.3,0.3,0.4l0.1,0.1c0.1,0.1,0.2,0.2,0.3,0.3c0,0,0.1,0,0.1,0.1c0,0,0.1,0,0.1,0.1v2.6
		C38.1,140.4,37.8,139.7,37.8,138.9z M40.6,145.9v-1.5c0.3,0.3,0.6,0.6,0.9,0.9v2.6C40.9,147.3,40.6,146.6,40.6,145.9z M51.2,151.2
		v-2.8c0,0,0,0,0.1,0c0.3,0,0.6,0,0.9,0c0.3,0,0.6,0,0.9,0c0,0,0,0,0.1,0v2.8c-0.3,0-0.6,0-0.9,0S51.5,151.2,51.2,151.2z
		 M63.7,144.4v1.5c0,0.7-0.3,1.4-0.9,2.1v-2.6c0,0,0.1,0,0.1-0.1c0,0,0.1,0,0.1-0.1c0.1-0.1,0.2-0.2,0.3-0.3l0.1-0.1
		C63.5,144.7,63.6,144.6,63.7,144.4L63.7,144.4z"/>
	<path d="M45.9,134.2l3.5-1.2l0,0c-0.9-0.4-1.3-1-1.5-1.6c-0.2-0.1-0.4-0.2-0.5-0.4s-0.1-0.4-0.1-0.7l0.1-0.3
		c0.1-0.3,0.4-0.6,0.7-0.7c0.1-0.2,0.3-0.4,0.5-0.6c0.1-0.1,0.2-0.1,0.2-0.2l0,0l0,0c0-0.1,0-0.2,0-0.3c0-0.3,0.2-0.5,0.5-0.5
		c0.1,0,0.2,0,0.3,0.1c0,0,0.1,0.1,0.3,0.1c0.3,0.1,0.8,0.2,1.3,0.2c0.1,0,0.2,0,0.2,0c1.1,0,2.7,0.1,3.4,1.3
		c0.4,0.2,0.6,0.4,0.7,0.7l0.1,0.3c0.1,0.2,0,0.5-0.1,0.7s-0.3,0.3-0.5,0.4c-0.2,0.5-0.6,1.2-1.5,1.6l0,0l3.5,1.3
		c3.2-0.9,5.1-2.4,5.1-3.9c0-2.1-4-4.2-10.7-4.2s-10.4,2-10.4,4.1C41,131.8,42.9,133.3,45.9,134.2z"/>
</g>
<g>
	<path d="M51.6,243c-6.6,0-12,5.4-12,12s5.4,12,12,12s12-5.4,12-12S58.3,243,51.6,243z M54.9,259.6c-0.6,0.7-1.4,1-2.6,1.2v1.7h-1.4
		v-1.7c-1.9-0.2-3-1.3-3.4-3.2l2.2-0.6c0.2,1.2,0.9,1.9,2,1.9c0.5,0,0.9-0.1,1.2-0.4s0.4-0.6,0.4-1s-0.1-0.7-0.4-0.9
		c-0.3-0.2-0.8-0.5-1.7-0.8c-0.8-0.3-1.4-0.5-1.8-0.8c-0.4-0.3-0.8-0.6-1.1-1.1s-0.4-1-0.4-1.7c0-0.8,0.2-1.6,0.7-2.2
		c0.5-0.7,1.3-1.1,2.3-1.2v-1.3h1.4v1.3c1.6,0.2,2.6,1.1,3.1,2.7l-2,0.8c-0.4-1.1-1-1.6-1.8-1.6c-0.4,0-0.7,0.1-1,0.4
		c-0.2,0.2-0.4,0.5-0.4,0.9s0.1,0.6,0.4,0.8c0.2,0.2,0.7,0.4,1.5,0.7s1.5,0.6,2,0.9c0.5,0.3,0.9,0.7,1.1,1.1c0.3,0.5,0.4,1,0.4,1.7
		C55.8,258.1,55.5,258.9,54.9,259.6z"/>
</g>
<g>
	<path d="M460.4,121l-6.1-6.1c-1.7-1.7-3.7-2.5-6-2.5c-2.4,0-4.4,0.9-6.1,2.6l-2.6-2.6c1.7-1.7,2.6-3.7,2.6-6.2c0-2.4-0.8-4.4-2.4-6
		l-6.1-6.1c-1.6-1.7-3.6-2.5-6-2.5s-4.4,0.8-6,2.4l-4.3,4.3c-1.7,1.6-2.5,3.6-2.5,6s0.8,4.4,2.5,6l6.1,6.1c1.7,1.7,3.7,2.5,6,2.5
		c2.4,0,4.4-0.9,6.1-2.6l2.6,2.6c-1.7,1.7-2.6,3.7-2.6,6.2c0,2.4,0.8,4.4,2.4,6l6.1,6.1c1.6,1.7,3.6,2.5,6,2.5s4.4-0.8,6-2.4
		l4.3-4.3c1.7-1.6,2.5-3.6,2.5-6C462.9,124.7,462,122.7,460.4,121z M435.5,108.4c-0.1-0.1-0.2-0.2-0.5-0.6c-0.3-0.3-0.5-0.5-0.6-0.6
		s-0.3-0.3-0.6-0.4c-0.3-0.2-0.5-0.3-0.8-0.4c-0.2-0.1-0.5-0.1-0.8-0.1c-0.8,0-1.5,0.3-2,0.8s-0.8,1.2-0.8,2c0,0.3,0,0.6,0.1,0.8
		c0.1,0.2,0.2,0.5,0.4,0.8c0.2,0.3,0.3,0.4,0.4,0.6c0.1,0.1,0.3,0.3,0.6,0.6c0.3,0.3,0.5,0.5,0.6,0.5c-0.6,0.6-1.3,0.9-2.1,0.9
		c-0.8,0-1.5-0.3-2-0.8l-6.1-6.1c-0.6-0.6-0.8-1.2-0.8-2s0.3-1.4,0.8-2l4.3-4.3c0.6-0.5,1.2-0.8,2-0.8s1.5,0.3,2,0.8l6.1,6.1
		c0.6,0.6,0.8,1.2,0.8,2C436.5,107.1,436.1,107.8,435.5,108.4z M456.4,129l-4.3,4.3c-0.6,0.5-1.2,0.8-2,0.8s-1.5-0.3-2-0.8l-6.1-6.1
		c-0.6-0.6-0.8-1.2-0.8-2s0.3-1.5,1-2.2c0.1,0.1,0.2,0.2,0.5,0.6c0.3,0.3,0.5,0.5,0.6,0.6s0.3,0.3,0.6,0.4c0.3,0.2,0.5,0.3,0.8,0.4
		c0.2,0.1,0.5,0.1,0.8,0.1c0.8,0,1.5-0.3,2-0.8c0.6-0.6,0.8-1.2,0.8-2c0-0.3,0-0.6-0.1-0.8c-0.1-0.2-0.2-0.5-0.4-0.8
		c-0.2-0.3-0.3-0.4-0.4-0.6c-0.1-0.1-0.3-0.3-0.6-0.6c-0.3-0.3-0.5-0.5-0.6-0.5c0.6-0.6,1.3-0.9,2.1-0.9c0.8,0,1.5,0.3,2,0.8
		l6.1,6.1c0.6,0.6,0.8,1.2,0.8,2C457.2,127.8,456.9,128.5,456.4,129z"/>
</g>
<g>
	<path d="M333.2,306.6l-1.9-1.9c6-6.1,6-15.9,0-21.9l1.9-1.9C340.3,288.1,340.3,299.6,333.2,306.6z M328.2,301.6l1.9,1.9
		c5.3-5.3,5.3-13.9,0-19.2l-1.9,1.9C332.4,290.3,332.4,297.3,328.2,301.6z M326.7,300.1c3.5-3.5,3.5-9.2,0-12.6l-1.9,1.9
		c2.5,2.5,2.5,6.5,0,8.9L326.7,300.1z M302.3,282.9l-1.9-1.9c-7.1,7.1-7.1,18.6,0,25.6l1.9-1.9C296.3,298.7,296.3,288.9,302.3,282.9
		z M303.7,303.4l1.9-1.9c-4.3-4.3-4.3-11.3,0-15.5l-1.9-1.9C298.4,289.5,298.4,298.1,303.7,303.4z M307,300.1l1.9-1.9
		c-2.5-2.5-2.5-6.5,0-8.9l-1.9-1.9C303.5,291,303.5,296.7,307,300.1z M327.5,326.3h-6.4l-3.8-27.6c1.8-0.2,3.2-1.7,3.2-3.6
		c0-2-1.6-3.6-3.6-3.6s-3.6,1.6-3.6,3.6c0,1.8,1.4,3.3,3.2,3.6l-3.8,27.6h-6.4c-1.5,0-2.7,1.2-2.7,2.7s1.2,2.7,2.7,2.7h21.3
		c1.5,0,2.7-1.2,2.7-2.7C330.2,327.5,329,326.3,327.5,326.3z"/>
</g>
<g>
	<g id="Link_x5F_1">
		<g>
			<path d="M161.3,595.7c-0.1-0.9-0.9-1.5-1.8-1.3c-0.9,0.1-1.4,1-1.3,1.8c0.1,0.6,0.2,1.3,0.2,1.9c0,6.5-5.3,11.9-11.9,11.9
				c-6.5,0-11.9-5.3-11.9-11.9c0-6.5,5.3-11.9,11.9-11.9c1.9,0,3.6,0.4,5.3,1.2c0.8,0.4,1.7,0.1,2.1-0.7c0.4-0.8,0.1-1.7-0.7-2.1
				c-2.1-1-4.4-1.6-6.7-1.6c-8.3,0-15,6.7-15,15s6.7,15,15,15s15-6.7,15-15C161.5,597.3,161.4,596.5,161.3,595.7z M167,583.1
				c-8.3,0-15,6.7-15,15c0,0.8,0.1,1.6,0.2,2.4c0.1,0.9,0.9,1.5,1.8,1.3c0.9-0.1,1.4-1,1.3-1.8c-0.1-0.6-0.2-1.3-0.2-1.9
				c0-6.5,5.3-11.9,11.9-11.9s11.9,5.3,11.9,11.9c0,6.5-5.3,11.9-11.9,11.9c-1.9,0-3.6-0.4-5.3-1.2c-0.8-0.4-1.7-0.1-2.1,0.7
				c-0.4,0.8-0.1,1.7,0.7,2.1c2.1,1,4.4,1.6,6.7,1.6c8.3,0,15-6.7,15-15C182,589.8,175.3,583.1,167,583.1z"/>
		</g>
	</g>
</g>
<g>
	<g id="Link_x5F_1_1_">
		<g>
			<path d="M462.8,595.7c-0.1-0.9-0.9-1.5-1.8-1.3c-0.9,0.1-1.4,1-1.3,1.8c0.1,0.6,0.2,1.3,0.2,1.9c0,6.5-5.3,11.9-11.9,11.9
				c-6.5,0-11.9-5.3-11.9-11.9c0-6.5,5.3-11.9,11.9-11.9c1.9,0,3.6,0.4,5.3,1.2c0.8,0.4,1.7,0.1,2.1-0.7s0.1-1.7-0.7-2.1
				c-2.1-1-4.4-1.6-6.7-1.6c-8.3,0-15,6.7-15,15s6.7,15,15,15s15-6.7,15-15C463,597.3,462.9,596.5,462.8,595.7z M468.5,583.1
				c-8.3,0-15,6.7-15,15c0,0.8,0.1,1.6,0.2,2.4c0.1,0.9,0.9,1.5,1.8,1.3c0.9-0.1,1.4-1,1.3-1.8c-0.1-0.6-0.2-1.3-0.2-1.9
				c0-6.5,5.3-11.9,11.9-11.9s11.9,5.3,11.9,11.9c0,6.5-5.3,11.9-11.9,11.9c-1.9,0-3.6-0.4-5.3-1.2c-0.8-0.4-1.7-0.1-2.1,0.7
				s-0.1,1.7,0.7,2.1c2.1,1,4.4,1.6,6.7,1.6c8.3,0,15-6.7,15-15C483.5,589.8,476.8,583.1,468.5,583.1z"/>
		</g>
	</g>
</g>
<g>
	<g id="link">
		<path d="M147.3,818.3h19.2v-4.8h-19.2V818.3z M137.5,815.9c0-5.5,4.3-9.8,9.8-9.8h7.2v-4.6h-7.2c-7.9,0-14.4,6.5-14.4,14.4
			s6.5,14.4,14.4,14.4h7.2v-4.6h-7.2C141.8,825.7,137.5,821.4,137.5,815.9z M166.5,801.5h-7.2v4.6h7.2c5.5,0,9.8,4.3,9.8,9.8
			s-4.3,9.8-9.8,9.8h-7.2v4.6h7.2c7.9,0,14.4-6.5,14.4-14.4S174.4,801.5,166.5,801.5z"/>
	</g>
</g>
<g>
	<g id="link_1_">
		<path d="M448.6,818.3h19.2v-4.8h-19.2V818.3z M438.8,815.9c0-5.5,4.3-9.8,9.8-9.8h7.2v-4.6h-7.2c-7.9,0-14.4,6.5-14.4,14.4
			s6.5,14.4,14.4,14.4h7.2v-4.6h-7.2C443.1,825.7,438.8,821.4,438.8,815.9z M467.8,801.5h-7.2v4.6h7.2c5.5,0,9.8,4.3,9.8,9.8
			s-4.3,9.8-9.8,9.8h-7.2v4.6h7.2c7.9,0,14.4-6.5,14.4-14.4S475.7,801.5,467.8,801.5z"/>
	</g>
</g>
<g id="数字资产发现侧链-2" class="st1">
	<g>
		<path d="M380,678.3h3.2c0.2-0.3,0.5-0.8,0.8-1.3c0,0,0,0,0-0.2l1,0.3c-0.2,0.3-0.5,0.8-0.7,1.2h4.8c-0.3,1.8-1,3.3-2.2,4.3
			c0.8,0.3,1.5,0.7,2.2,1l-0.7,0.8c-0.8-0.3-1.5-0.8-2.3-1.2c-1.5,1-3.3,1.8-5.7,2.5c-0.2-0.3-0.3-0.7-0.5-1c2.2-0.5,4-1.2,5.3-2
			c-1-0.5-2.3-1-3.8-1.8c0.5-0.7,1-1.3,1.3-1.8h-2.7v-0.8H380z M384.8,667.2h1v4.3h4v0.8h-4v1.7l0.5-0.5c1,0.7,2,1.3,3.2,2l-0.7,0.8
			c-0.5-0.3-1.5-1-3-2v2h-1v-3c-1,1.3-2.3,2.5-4.2,3.3c-0.2-0.3-0.3-0.5-0.7-0.8c1.8-0.8,3.3-1.8,4.7-3.5h-4.3v-0.8h4.7v-4.3H384.8z
			 M380.8,668.7l0.7-0.5c1,1,1.8,1.8,2.3,2.3l-0.8,0.7C382.7,670.5,382,669.8,380.8,668.7z M382.7,680.8c1.2,0.5,2.3,1,3.3,1.3
			c1-0.8,1.7-1.8,2-3h-4.2C383.5,679.7,383.2,680.2,382.7,680.8z M389.8,668.7c-0.8,1-1.7,1.7-2.3,2.3l-0.7-0.7
			c0.7-0.7,1.5-1.3,2.3-2.3L389.8,668.7z M388.8,685.2c2-1.5,3.5-3,4.5-4.3c-1-1.7-1.7-4-2-7c0,0-0.2,0.2-0.2,0.3
			c-0.3,0.7-0.7,1.2-0.8,1.3c-0.3-0.3-0.5-0.5-0.8-0.7c1.5-2.2,2.7-5,3.3-8.2l1,0.2c-0.3,1.2-0.7,2.3-1.2,3.5h5.8v1h-1.7
			c-0.3,4.2-1.2,7.3-2.5,9.3c0.8,1.3,2.3,2.7,4.2,4c-0.3,0.3-0.5,0.7-0.7,0.8c-1.8-1.3-3.2-2.7-4-4c-1,1.3-2.3,2.7-4.3,4.2
			C389.5,685.7,389.2,685.5,388.8,685.2z M392,672.5c0.3,3.3,1,5.8,2,7.3c1-1.8,1.7-4.5,2-8.3h-3.7C392.3,671.8,392.1,672,392,672.5
			z"/>
		<path d="M409,677.2l4.5-2.7h-10v-1h11.3v1.2l-4.8,3v1h8.7v1H410v3.5c0.2,1.5-0.7,2.3-2.3,2.5c-1.2,0-2,0-2.5,0
			c0-0.3-0.2-0.7-0.2-1.2c0.3,0,0.7,0,1,0c0.2,0,0.3,0,0.7,0c0.2,0,0.5,0,0.8,0c0.7,0,1-0.2,1.2-0.3c0.2-0.2,0.3-0.7,0.3-1.2v-3.3
			h-9v-1h9V677.2z M400.6,670h17.5v3.5h-1V671h-15.3v2.5h-1V670H400.6z M408.3,667.4l1-0.3c0.3,0.7,0.7,1.5,1.2,2.7l-1,0.3
			C409.1,669,408.8,668,408.3,667.4z"/>
		<path d="M419.9,675c1.7-1.2,3.2-2.3,4.7-3.5c0,0.2,0.2,0.5,0.5,1c-1.5,1.2-3,2.3-4.5,3.5L419.9,675z M428.9,678.7h1
			c0,0.7,0,1.3-0.2,2v0.2c0,0.2-0.2,0.3-0.2,0.5c2.5,1,5.3,2,8.3,3.3l-0.7,1c-3-1.3-5.8-2.5-8.2-3.5c-0.8,1.5-3.7,2.7-8.2,3.5
			c-0.2-0.3-0.3-0.7-0.5-1.2c5.2-0.7,8-2,8.3-4.2C428.8,680.2,428.9,679.5,428.9,678.7z M423.8,670.5c-1-0.8-2-1.7-3-2.3l0.7-0.8
			c1,0.7,2,1.3,3.2,2.3L423.8,670.5z M422.8,676.7h13v5.7h-1v-4.8h-11v4.7h-1L422.8,676.7L422.8,676.7z M425.9,676
			c-0.2-0.3-0.3-0.7-0.7-1c4-0.8,6-2.7,6.3-5.2h-3.2c-0.5,0.8-1.2,1.8-2,2.7c-0.3-0.3-0.5-0.5-0.8-0.7c1.3-1.3,2.3-3,3.2-4.7l1,0.3
			c-0.2,0.5-0.5,1-0.7,1.5h8.8v1l-1.2,2.3c-0.3-0.2-0.7-0.3-1-0.3l1.2-2h-4.3c0,0.2,0,0.3-0.2,0.5c1,2.5,3,4.2,6,4.7
			c-0.2,0.3-0.3,0.7-0.5,1c-3.2-0.8-5-2.3-5.8-4.5C431.6,673.3,429.4,674.8,425.9,676z"/>
		<path d="M441.7,675h9.5c0.8-1.2,1.5-2.5,2.3-3.8l1,0.5c-0.7,1-1.3,2.2-2.2,3.2h5.7v1h-15.1v1.5c0.2,3.5-0.7,6.3-2.3,8.3
			c-0.3-0.3-0.7-0.5-0.8-0.8c0.8-1,1.3-2,1.7-3.2c0.3-1.2,0.5-2.7,0.5-4.5V675H441.7z M448.7,667.4l1-0.3c0.3,0.8,0.7,1.7,0.8,2.3h8
			v1h-18.3v-1h9.2C449.2,669,449.1,668.4,448.7,667.4C448.7,667.5,448.7,667.5,448.7,667.4z M444.6,671.7l0.8-0.7
			c0.5,0.7,1.3,1.7,2.2,2.8l-1,0.7C446.1,673.7,445.2,672.7,444.6,671.7z"/>
		<path d="M461.7,671.5h4.7c0.3-1.7,0.7-3,0.8-4.5l1.2,0.2c-0.3,1.8-0.7,3.2-0.8,4.3h11v1h-11.2c-0.3,1-0.5,2-0.8,2.8h9.8v1
			c-1,2.3-2.3,4.3-4.2,5.8c1.5,1,3.7,1.8,6.3,2.5c-0.2,0.3-0.5,0.7-0.7,1.2c-2.8-0.8-5-1.7-6.7-2.8c-1.7,1-4,2-7.2,3.2
			c-0.2-0.3-0.3-0.7-0.7-1.2c3-0.8,5.3-1.7,7-2.7c-1.8-1.5-3.2-3.5-3.8-5.8h-0.2c-1.3,3.2-3.2,6.2-5.7,8.7c-0.3-0.3-0.7-0.7-0.8-0.8
			c3.3-3.2,5.5-7.2,6.7-11.6H461v-1.2c0.5-1,1-2.2,1.3-3.5l1.2,0.3C462.7,669.5,462.2,670.7,461.7,671.5z M475.2,676.3h-7.8
			c0.8,2.2,2,3.8,3.8,5.2C473,680.2,474.4,678.5,475.2,676.3z M472,668.2l0.7-0.8c1,0.7,2.2,1.5,3.3,2.3l-0.7,0.8
			C474.2,669.7,473,668.9,472,668.2z"/>
		<path d="M479.7,678.8c2-1.7,3.7-3.8,5.3-6.7l1,0.5c-0.7,1.2-1.3,2.2-2.2,3.2V686h-1.2v-8.7c-0.8,1-1.7,1.8-2.7,2.7
			C480,679.5,479.9,679.2,479.7,678.8z M480.7,673.3c-0.2-0.3-0.5-0.7-0.7-1c1.8-1.5,3.5-3.2,4.8-5.2l1,0.7
			C484.5,669.8,482.7,671.7,480.7,673.3z M486.7,674.5h12v1h-3.8v7.3c0.2,1.7-0.8,2.7-2.7,2.5c-0.5,0-0.8,0-1.2,0
			c-0.2,0-0.3,0-0.7,0c-0.2,0-0.5,0-0.8,0c0-0.3-0.2-0.8-0.2-1.2c0.8,0,1.7,0,2.7,0c0.7,0,1.2-0.2,1.3-0.3c0.3-0.2,0.3-0.7,0.3-1.2
			v-7.3h-7V674.5z M487.8,668.5h9.7v1h-9.7V668.5z"/>
		<path d="M500,677.3c-0.2-0.3-0.2-0.7-0.3-1c0-0.2,0-0.2-0.2-0.3c1.7-2.7,2.8-5.7,3.7-9l1,0.3c-0.5,1.5-1,3.2-1.5,4.7v13.8h-1
			v-11.6C501.2,675.5,500.7,676.5,500,677.3z M507.8,671.3h1v4c0,2.8-0.2,4.8-0.7,6.2l0.5-0.5c1.8,1.5,3.3,2.7,4.2,3.5l-0.8,0.8
			c-1.2-1-2.3-2.2-3.8-3.5c-0.5,1.3-1.7,2.8-3.8,4.3c-0.3-0.3-0.5-0.7-0.7-0.8c1.8-1.3,3.2-2.5,3.5-3.7c0.5-1.2,0.8-3.2,0.8-6v-4.3
			H507.8z M504.8,668.2h6.8v12h-0.8v-11h-5v11h-1V668.2z M516.8,667.2h1v16.1c0,1.5-0.7,2.3-2,2.3c-0.3,0-0.5,0-0.8,0
			c-0.2,0-0.3,0-0.5,0s-0.3,0-0.7,0c0-0.5-0.2-0.8-0.2-1c0.5,0,1.2,0,1.7,0c0.5,0,1-0.2,1.2-0.3c0.2-0.2,0.3-0.7,0.3-1.3V667.2z
			 M514.6,681.3h-1v-12.5h1V681.3z"/>
		<path d="M519.6,673.7c1.2-1.8,2.2-4,2.7-6.5l1,0.2c-0.3,1.2-0.7,2.2-1,2.8h3.3v1H522c-0.3,1-1,2-1.7,3.2
			C520.1,674,519.8,673.8,519.6,673.7z M519.6,677.5h2.5v-2.8H521v-1h4.2v1h-1.8v2.8h2.5v1h-2.5v4.7l2.3-2.2l0.2,1.2
			c-1,0.8-1.8,1.7-2.5,2.3c-0.2,0.2-0.5,0.5-0.8,0.8l-0.7-0.8c0.2-0.3,0.3-0.5,0.3-0.8c0-0.2,0.2-0.5,0.2-1v-4.2h-2.5v-1H519.6z
			 M532.9,684.3c1,0,1.8,0,2.8,0c1,0,1.8,0,2.8,0c-0.2,0.3-0.3,0.7-0.3,1c-1.3,0-3.2,0-5.3-0.2c-2,0-3.7-0.7-4.8-2.3
			c-0.7,0.7-1.3,1.7-2,2.7l-0.8-0.7c0.5-0.7,1.2-1.5,2.2-2.5c0.2-0.2,0.2-0.3,0.3-0.3v-7h-1.5v-0.8h2.5v7.8
			C529.6,683.5,531.1,684.3,532.9,684.3z M527.9,671.7c-0.3-1.2-0.8-2.3-1.3-4l0.8-0.3c0.7,1.7,1.2,2.8,1.5,3.8L527.9,671.7z
			 M529.9,679.5h4.3v-3h-3.7v-1.2c0.7-1.3,1.2-3,1.7-4.7h-2v-1h2.3c0.3-0.8,0.5-1.8,0.7-2.7l1,0.2c-0.3,1-0.5,1.8-0.7,2.5h4.7v1h-5
			c-0.5,1.8-1.2,3.5-1.7,5h2.7v-3.5h1v3.5h2.7v1h-2.7v3h3.2v1h-3.2v3h-1.2v-3h-4.3v-1.2H529.9z"/>
	</g>
</g>
<g>
	<path d="M396.6,895.5h3.2c0.2-0.3,0.5-0.8,0.8-1.4c0,0,0-0.1,0-0.1l1,0.3c-0.2,0.4-0.5,0.8-0.7,1.2h4.8c-0.3,1.8-1,3.3-2.2,4.4
		c0.8,0.4,1.5,0.7,2.2,1l-0.7,0.9c-0.8-0.4-1.6-0.8-2.4-1.1c-1.4,1-3.4,1.9-5.8,2.5c-0.1-0.3-0.3-0.6-0.6-1c2.2-0.6,4-1.3,5.3-2.1
		c-1-0.5-2.3-1.1-3.9-1.8c0.5-0.7,1-1.4,1.4-1.9h-2.6V895.5z M401.4,884.3h1v4.4h4v0.9h-4v1.7l0.5-0.6c1,0.6,2,1.3,3.1,2l-0.6,0.8
		c-0.5-0.4-1.5-1.1-3-2.1v2h-1v-3c-1,1.3-2.4,2.5-4.2,3.4c-0.1-0.3-0.4-0.6-0.7-0.9c1.8-0.8,3.4-1.9,4.7-3.5h-4.4v-0.9h4.6V884.3z
		 M397.4,885.7l0.7-0.6c1.1,1,1.8,1.8,2.3,2.3l-0.8,0.6C399.2,887.7,398.5,886.9,397.4,885.7z M399.2,898c1.3,0.5,2.4,1,3.4,1.4
		c1-0.8,1.7-1.8,2-3h-4.2C400.1,896.8,399.7,897.4,399.2,898z M406.4,885.7c-0.8,0.9-1.6,1.7-2.3,2.4l-0.7-0.6
		c0.7-0.6,1.4-1.4,2.3-2.3L406.4,885.7z M405.4,902.3c2.1-1.6,3.6-3,4.4-4.3c-1-1.7-1.7-4.1-2.1-7c0,0.1-0.1,0.2-0.2,0.3
		c-0.3,0.6-0.6,1.1-0.8,1.4c-0.3-0.3-0.5-0.5-0.8-0.7c1.5-2.2,2.6-5,3.4-8.1l1.1,0.2c-0.3,1.2-0.7,2.4-1.1,3.5h5.9v1h-1.6
		c-0.4,4.2-1.2,7.3-2.5,9.4c0.9,1.3,2.3,2.7,4.2,4c-0.3,0.3-0.6,0.6-0.7,0.9c-1.9-1.4-3.2-2.7-4.1-4c-0.9,1.3-2.4,2.7-4.3,4.2
		C406,902.9,405.7,902.6,405.4,902.3z M408.6,889.6c0.4,3.3,1,5.8,2,7.5c1-1.8,1.7-4.6,2.1-8.3h-3.6
		C408.9,888.9,408.7,889.2,408.6,889.6z"/>
	<path d="M425.7,894.4l4.5-2.7h-10v-1h11.5v1.1l-4.8,3v1h8.8v1h-8.8v3.6c0.1,1.6-0.7,2.4-2.4,2.5c-1.2,0-2,0-2.6,0
		c0-0.3-0.1-0.7-0.2-1.1c0.3,0,0.7,0,1,0c0.2,0,0.4,0,0.6,0c0.2,0,0.5,0,0.8,0c0.6,0,1-0.1,1.2-0.4c0.2-0.2,0.4-0.6,0.3-1.2v-3.4
		h-9.1v-1h9.1V894.4z M417.2,887.1h17.6v3.5h-1.1v-2.6h-15.4v2.6h-1.1V887.1z M425.1,884.4l1-0.4c0.3,0.6,0.7,1.5,1.2,2.7l-1,0.4
		C425.9,886.1,425.5,885.1,425.1,884.4z"/>
	<path d="M436.7,895.6h2.7v-9.3h4.6c0.3-1.1,0.6-1.8,0.6-2.2l1.1,0.2c-0.2,0.6-0.4,1.3-0.6,2h7.1v8.1c0.6-0.4,1.4-1.1,2.6-2.1
		l0.7,0.8c-1.1,0.9-2.3,1.8-3.3,2.6v4.4c0,1.8-0.8,2.7-2.6,2.7c-0.8,0-1.9,0-3.5,0c0-0.4-0.1-0.7-0.2-1.1c0.4,0,1.3,0,2.6,0
		c0.3,0,0.5,0,0.7,0c1.4,0.1,2.1-0.5,2-1.8v-3.3h-0.3c-3.8,2.6-8.3,4.8-13.4,6.4c-0.2-0.3-0.4-0.6-0.6-1c5.1-1.5,9.2-3.3,12.3-5.4
		h-12.4V895.6z M440.5,887.2v2.2h10.7v-2.2H440.5z M440.5,890.3v2.2h10.7v-2.2H440.5z M450.6,895.6c0.1,0,0.2-0.1,0.3-0.2
		c0.1-0.1,0.2-0.2,0.3-0.2v-1.8h-10.7v2.2H450.6z"/>
	<path d="M457.2,894.5c-0.2-0.5-0.4-0.8-0.6-1.1c1.9-2.6,3.4-5.6,4.5-9l1.1,0.3c-0.6,1.8-1.3,3.4-2.1,5v13.4h-1v-11.6
		C458.6,892.4,458,893.4,457.2,894.5z M462.3,892.9c-0.3-0.3-0.5-0.6-0.8-0.8c2.2-1.9,3.9-4.2,5-6.9l1,0.4
		C466.4,888.3,464.6,890.8,462.3,892.9z M463.5,892.8h9.4c-0.1,2.6-0.2,5-0.3,7c-0.1,1.9-1.1,2.9-3.1,2.9c-0.3,0-0.7,0-1,0
		c-0.2,0-0.4,0-0.6,0c-0.2,0-0.4,0-0.8,0c-0.1-0.3-0.2-0.7-0.3-1.1c0.8,0,1.6,0.1,2.5,0.1c1.4,0,2.2-0.6,2.2-2
		c0.1-1.9,0.2-3.9,0.3-5.9H467c0.1,4-1.5,7.1-4.5,9.3c-0.3-0.3-0.5-0.6-0.8-0.9c3-2.1,4.4-4.9,4.3-8.4h-2.4V892.8z M469.4,884.7
		l1-0.4c1.2,3.1,3,5.5,5.4,7.1c-0.3,0.3-0.6,0.6-0.8,1C472.3,890.4,470.5,887.8,469.4,884.7z"/>
	<path d="M477.2,894.5c-0.1-0.3-0.2-0.6-0.3-0.9c0-0.1-0.1-0.2-0.1-0.3c1.7-2.8,2.9-5.8,3.7-9l1,0.3c-0.4,1.6-1,3.1-1.6,4.7v13.9h-1
		v-11.7C478.3,892.6,477.7,893.6,477.2,894.5z M485,888.4h1v4c0,2.8-0.2,4.9-0.7,6.1l0.5-0.5c1.9,1.6,3.3,2.7,4.1,3.5l-0.8,0.8
		c-1.1-1-2.4-2.2-3.9-3.5c-0.5,1.4-1.7,2.8-3.8,4.3c-0.3-0.3-0.5-0.6-0.7-0.8c1.9-1.3,3.1-2.5,3.6-3.7c0.6-1.1,0.8-3.2,0.8-6.1
		V888.4z M482.1,885.3h6.9v12h-1v-11h-5v11h-1V885.3z M494,884.2h1v16.2c0.1,1.5-0.6,2.3-1.9,2.4c-0.3,0-0.6,0-0.9,0
		c-0.1,0-0.3,0-0.5,0c-0.1,0-0.4,0-0.6,0c0-0.4-0.1-0.8-0.2-1.1c0.5,0,1.1,0.1,1.7,0.1c0.6,0,0.9-0.1,1.1-0.3
		c0.2-0.2,0.3-0.6,0.3-1.3V884.2z M491.9,898.4h-1v-12.6h1V898.4z"/>
	<path d="M496.8,890.7c1.2-1.8,2.1-4,2.8-6.5l1,0.2c-0.4,1.2-0.7,2.2-0.9,2.9h3.4v0.9h-3.7c-0.4,0.9-0.9,2-1.7,3.2
		C497.4,891.2,497.1,890.9,496.8,890.7z M497,894.6h2.5v-2.8h-1.2v-0.9h4.1v0.9h-1.9v2.8h2.6v0.9h-2.6v4.8l2.3-2.2l0.2,1.1
		c-0.9,0.9-1.8,1.6-2.5,2.3c-0.2,0.2-0.5,0.5-0.8,0.8l-0.7-0.8c0.2-0.3,0.3-0.5,0.4-0.8c0.1-0.2,0.1-0.6,0.1-1v-4.3H497V894.6z
		 M510.4,901.5c0.9,0,1.9,0,2.8,0c0.9,0,1.9,0,2.8,0c-0.2,0.4-0.3,0.7-0.3,1.1c-1.4,0-3.2,0-5.4-0.1c-2.1,0-3.7-0.7-4.8-2.3
		c-0.7,0.7-1.3,1.6-2,2.7l-0.8-0.7c0.5-0.6,1.2-1.5,2.1-2.6c0.1-0.1,0.2-0.3,0.3-0.3v-7h-1.6v-0.9h2.6v7.9
		C506.9,900.7,508.4,901.5,510.4,901.5z M505.4,888.7c-0.3-1.1-0.8-2.4-1.4-4l0.9-0.3c0.6,1.6,1.1,2.9,1.5,3.9L505.4,888.7z
		 M507.2,896.6h4.3v-2.9h-3.7v-1.2c0.6-1.4,1.2-2.9,1.7-4.7h-2v-0.9h2.3c0.3-0.9,0.5-1.8,0.7-2.8l1,0.2c-0.3,1-0.5,1.9-0.7,2.6h4.7
		v0.9h-5c-0.6,1.8-1.1,3.4-1.7,5h2.7v-3.6h1v3.6h2.7v0.9h-2.7v2.9h3.3v1h-3.3v3.1h-1v-3.1h-4.3V896.6z"/>
</g>
<g>
	<path d="M24.5,214.7v-7.5h-8.9v7.5h-1.1v-15.6h1.1v7.1h8.9v-7.1h1.1v15.6H24.5z"/>
	<path d="M33.8,215c-1.6,0-2.9-0.5-3.8-1.6c-0.9-1.1-1.4-2.5-1.4-4.2c0-1.8,0.5-3.3,1.5-4.3c1-1,2.3-1.6,3.9-1.6
		c1.6,0,2.8,0.5,3.8,1.6c0.9,1,1.4,2.5,1.4,4.3c0,1.7-0.5,3.1-1.4,4.2C36.7,214.4,35.4,215,33.8,215z M33.8,204.2
		c-1.3,0-2.4,0.4-3.1,1.3c-0.8,0.9-1.2,2.1-1.2,3.7c0,1.5,0.4,2.6,1.1,3.5s1.8,1.3,3.1,1.3c1.3,0,2.4-0.4,3.1-1.3
		c0.7-0.9,1.1-2.1,1.1-3.6c0-1.6-0.4-2.8-1.1-3.6C36.2,204.6,35.1,204.2,33.8,204.2z"/>
	<path d="M46.2,200.1v14.6h-1.1v-14.6h-4.5v-1h10v1H46.2z"/>
	<path d="M52.1,209.4h3.3c0.2-0.3,0.5-0.8,0.9-1.4c0,0,0-0.1,0.1-0.1l1,0.3c-0.2,0.4-0.5,0.8-0.7,1.2h4.9c-0.3,1.9-1,3.4-2.2,4.5
		c0.9,0.4,1.6,0.7,2.2,1l-0.7,0.9c-0.8-0.4-1.6-0.8-2.4-1.2c-1.5,1.1-3.4,1.9-5.9,2.6c-0.1-0.3-0.3-0.6-0.6-1
		c2.3-0.6,4.1-1.3,5.4-2.1c-1-0.5-2.3-1.1-4-1.8c0.5-0.7,1-1.4,1.4-2h-2.7V209.4z M57,198h1v4.5h4.1v0.9H58v1.7l0.5-0.6
		c1,0.6,2.1,1.3,3.2,2.1l-0.6,0.8c-0.5-0.4-1.5-1.1-3-2.1v2.1h-1v-3c-1,1.4-2.5,2.5-4.3,3.5c-0.1-0.3-0.4-0.6-0.7-0.9
		c1.9-0.8,3.5-2,4.8-3.5h-4.5v-0.9H57V198z M52.9,199.4l0.7-0.6c1.1,1,1.9,1.8,2.4,2.3l-0.8,0.7C54.8,201.4,54,200.6,52.9,199.4z
		 M54.8,211.9c1.3,0.5,2.4,1,3.5,1.5c1-0.8,1.7-1.8,2-3.1H56C55.6,210.8,55.3,211.3,54.8,211.9z M62.1,199.4c-0.9,1-1.7,1.8-2.4,2.4
		l-0.7-0.7c0.7-0.6,1.5-1.4,2.4-2.3L62.1,199.4z M61.2,216.4c2.1-1.6,3.6-3.1,4.5-4.4c-1.1-1.8-1.8-4.2-2.1-7.1
		c0,0.1-0.1,0.2-0.2,0.4c-0.3,0.6-0.6,1.1-0.8,1.4c-0.3-0.3-0.5-0.5-0.8-0.7c1.5-2.3,2.7-5.1,3.5-8.3l1.1,0.2
		c-0.3,1.2-0.7,2.4-1.2,3.6h6v1h-1.6c-0.4,4.3-1.3,7.5-2.5,9.6c0.9,1.3,2.3,2.7,4.3,4.1c-0.3,0.4-0.6,0.7-0.7,0.9
		c-1.9-1.4-3.3-2.8-4.2-4.1c-1,1.4-2.4,2.8-4.4,4.3C61.7,217,61.4,216.7,61.2,216.4z M64.3,203.3c0.4,3.4,1.1,5.9,2,7.6
		c1.1-1.8,1.8-4.7,2.1-8.5h-3.7C64.6,202.6,64.5,202.9,64.3,203.3z"/>
	<path d="M74.9,206.9h14.6v5.3h-6.8v1.4h7.6v0.8h-7.6v1.4h9.2v0.8H72.5v-0.8h9.2v-1.4H74v-0.8h7.6v-1.4h-6.8V206.9z M72.6,204.9
		h19.2v0.8H72.6V204.9z M74.7,198.8h14.9v4.8H74.7V198.8z M75.8,199.5v1.3h12.8v-1.3H75.8z M75.8,201.5v1.3h12.8v-1.3H75.8z
		 M75.9,207.7v1.5h5.8v-1.5H75.9z M75.9,209.9v1.5h5.8v-1.5H75.9z M88.5,207.7h-5.8v1.5h5.8V207.7z M82.7,209.9v1.5h5.8v-1.5H82.7z"
		/>
</g>
</svg>
