<?xml version="1.0" encoding="utf-8"?>
<!-- Generator: Adobe Illustrator 22.1.0, SVG Export Plug-In . SVG Version: 6.00 Build 0)  -->
<svg version="1.1" id="img" xmlns="http://www.w3.org/2000/svg" xmlns:xlink="http://www.w3.org/1999/xlink" x="0px" y="0px"
	 viewBox="0 0 1095 248.5" style="enable-background:new 0 0 1095 248.5;" xml:space="preserve">
<style type="text/css">
	.st0{fill:#70DBCB;}
	.st1{fill:none;stroke:#70DBCB;}
	.st2{fill:#58595B;}
	.st3{fill:#FCFCFC;}
	.st4{fill:#F5F5F5;}
	.st5{enable-background:new    ;}
	.st6{fill:#00A99E;}
	.st7{fill:#17161F;}
	.st8{fill:#F2F2F2;}
	.st9{fill:#E6E7E8;}
	.st10{fill:#636363;}
	.st11{fill:#00AB9F;}
</style>
<g id="组_27">
	<rect id="矩形_48" x="70.5" y="114.5" class="st0" width="226" height="1"/>
	<path id="形状_2" class="st1" d="M296.5,110.5h-146l-48-109H0.5"/>
	<path id="形状_2_拷贝" class="st1" d="M296.5,120.5h-146l-48,109H0.5"/>
</g>
<g id="组_27_拷贝">
	<rect id="矩形_48-2" x="798.5" y="113.5" class="st0" width="226" height="1"/>
	<path id="形状_2-2" class="st1" d="M798.5,109.5h146l48-109h102"/>
	<path id="形状_2_拷贝-2" class="st1" d="M798.5,119.5h146l48,109h102"/>
</g>
<rect id="矩形_49" x="340.5" y="113.5" class="st2" width="167" height="1"/>
<rect id="矩形_49_拷贝" x="340.5" y="113.5" class="st2" width="167" height="1"/>
<rect id="矩形_49_拷贝_2" x="597.5" y="113.5" class="st2" width="167" height="1"/>
<path id="圆角矩形_1" class="st3" d="M499.8,96.2l48.7-12.5c2.1-0.4,4.2-0.4,6.2,0.2l40.8,13.2c1.8,0.6,2,1.5,0.5,2.1
	l-42.6,15.7c-2.5,0.8-5.1,0.8-7.6,0.1l-46.9-16.4C496.9,97.9,497.3,96.8,499.8,96.2z"/>
<path id="圆角矩形_1_拷贝" class="st4" d="M498.8,122.2l48.7-12.5c2.1-0.4,4.2-0.4,6.2,0.2l40.8,13.2c1.8,0.6,2,1.5,0.5,2.1
	l-42.6,15.7c-2.5,0.8-5.1,0.8-7.6,0.1l-46.9-16.4C495.9,123.9,496.3,122.8,498.8,122.2z"/>
<g id="联盟链_2" class="st5">
	<path class="st6" d="M517,162.6h7.8v0.9h-1.2v11.4c0.2,0,0.4-0.1,0.8-0.1c0.4-0.1,0.8-0.1,1-0.2c0,0.2,0,0.4,0,0.6
		c0,0.1,0,0.3,0,0.4c-0.3,0-0.6,0.1-1.1,0.2c-0.3,0.1-0.5,0.1-0.7,0.1v4.2h-1v-4c-1.5,0.3-3.3,0.6-5.5,1l-0.2-1
		c0.5-0.1,1-0.1,1.4-0.2v-12.3H517V162.6z M519.3,163.5v3.3h3.2v-3.3H519.3z M519.3,167.7v3.3h3.2v-3.3H519.3z M519.3,175.6
		c0.2,0,0.4-0.1,0.8-0.1c1-0.2,1.8-0.3,2.4-0.4v-3.1h-3.2V175.6z M524.7,170.3h4.6c0-0.5,0.1-1.1,0.1-1.7v-2.3h-4v-1h5
		c1-1.5,1.8-2.9,2.4-4.1l1,0.5c-0.8,1.3-1.5,2.5-2.3,3.6h3.4v1h-4.5v2.2c0,0.6,0,1.2-0.1,1.8h5.2v1h-5.1c0.8,3.4,2.6,6,5.3,7.6
		c-0.1,0.1-0.1,0.1-0.2,0.2c-0.3,0.3-0.4,0.5-0.6,0.7c-2.8-1.9-4.5-4.3-5-7.3c-0.5,3-2.2,5.5-5.1,7.5c-0.2-0.3-0.5-0.6-0.8-0.9
		c3.1-2,4.8-4.6,5.1-7.8h-4.5V170.3z M526,161.8l0.9-0.5c0.5,0.7,1.2,1.7,2.1,3l-1,0.5C527.5,164.1,526.9,163,526,161.8z"/>
	<path class="st6" d="M537.1,178.3h1.9v-5.2h14.7v5.2h1.9v0.9h-18.5V178.3z M538.3,162.2h6.1v8.7h-6.1V162.2z M539.3,163.1v3h4.1v-3
		H539.3z M539.3,170h4.1v-3.1h-4.1V170z M540,174v4.3h3.6V174H540z M544.5,174v4.3h3.5V174H544.5z M551.9,170.9c1,0,1.4-0.3,1.4-1.1
		v-0.8h-5.7c-0.3,1.2-1,2.4-2.2,3.4c-0.3-0.3-0.6-0.6-0.8-0.7c1-0.8,1.6-1.6,1.9-2.4c0.3-0.8,0.5-2,0.5-3.7V162h7.4v7.9
		c0.1,1.3-0.7,1.9-2.2,1.9c-0.5,0-1.3,0-2.5,0c0-0.3-0.1-0.6-0.2-1C549.9,170.9,550.7,170.9,551.9,170.9z M547.9,165.9
		c0,0.9-0.1,1.6-0.1,2.2h5.5v-2.2H547.9z M547.9,162.9v2.1h5.4v-2.1H547.9z M552.6,174h-3.6v4.3h3.6V174z"/>
	<path class="st6" d="M556.7,167.6c1.2-1.8,2.1-3.9,2.7-6.5l1,0.2c-0.4,1.2-0.7,2.1-0.9,2.8h3.3v0.9h-3.7c-0.4,0.9-0.9,2-1.6,3.2
		C557.3,168.1,557,167.8,556.7,167.6z M556.9,171.5h2.5v-2.8h-1.2v-0.9h4.1v0.9h-1.9v2.8h2.6v0.9h-2.6v4.7l2.3-2.2l0.2,1.1
		c-0.9,0.9-1.8,1.6-2.5,2.3c-0.2,0.2-0.5,0.5-0.8,0.8l-0.7-0.8c0.2-0.3,0.3-0.5,0.4-0.8c0.1-0.2,0.1-0.6,0.1-1v-4.2h-2.5V171.5z
		 M570.2,178.3c0.9,0,1.9,0,2.8,0c0.9,0,1.9,0,2.8,0c-0.2,0.4-0.3,0.7-0.3,1.1c-1.4,0-3.2,0-5.4-0.1c-2.1,0-3.6-0.7-4.8-2.3
		c-0.7,0.7-1.3,1.6-2,2.7l-0.8-0.7c0.5-0.6,1.2-1.5,2.1-2.6c0.1-0.1,0.2-0.3,0.3-0.3v-6.9h-1.6v-0.9h2.5v7.9
		C566.8,177.6,568.2,178.3,570.2,178.3z M565.2,165.6c-0.3-1.1-0.8-2.4-1.4-3.9l0.9-0.3c0.6,1.6,1.1,2.9,1.5,3.9L565.2,165.6z
		 M567.1,173.5h4.3v-2.9h-3.7v-1.2c0.6-1.4,1.2-2.9,1.7-4.7h-2v-0.9h2.3c0.3-0.9,0.5-1.8,0.7-2.7l1,0.2c-0.3,1-0.5,1.8-0.7,2.5h4.7
		v0.9h-5c-0.6,1.8-1.1,3.4-1.7,4.9h2.7v-3.5h1v3.5h2.7v0.9h-2.7v2.9h3.2v0.9h-3.2v3.1h-1v-3.1h-4.3V173.5z"/>
</g>
<g class="st5">
	<path class="st7" d="M471.5,203.5c-3-0.9-5.4-2.1-7.1-3.5c-1.8,1.4-4.2,2.7-7.1,3.7c-0.2-0.3-0.3-0.6-0.5-0.8
		c3.1-1,5.6-2.2,7.3-3.6h1.1c0,0-0.1,0.1-0.2,0.2c-0.1,0-0.1,0.1-0.1,0.1c1.9,1.4,4.2,2.4,7,3.1C471.8,203,471.6,203.2,471.5,203.5z
		 M457.6,195.8h6.4v-1.2h-6v-0.7h12.4v0.7h-5.6v1.2h6.5v2.5h-0.8v-1.9h-5.6v2.3H464v-2.3h-5.6v1.9h-0.8V195.8z M459.4,199.1h3.1v0.6
		h-3.1V199.1z M459.6,197.5h2.9v0.6h-2.9V197.5z M460.7,206.1l0.4-0.6c0.2,0.1,0.5,0.2,0.8,0.3c1.1,0.4,2,0.6,2.5,0.8l3.6-2.2h-8.3
		v-0.7h9.4v0.8l-3.7,2.4c0.3,0.1,0.7,0.3,1.4,0.5c0.3,0.1,0.5,0.2,0.6,0.2l-0.4,0.7C464.8,207.5,462.7,206.8,460.7,206.1z
		 M463.3,201.9l0.6-0.4c0.5,0.5,1,1,1.4,1.4l-0.6,0.5C464.3,202.9,463.8,202.4,463.3,201.9z M466.3,197.5h2.9v0.6h-2.9V197.5z
		 M466.3,199.1h3.1v0.6h-3.1V199.1z"/>
	<path class="st7" d="M473.6,198.6c-0.2-0.1-0.5-0.3-0.8-0.4c0.8-1.5,1.4-3.2,1.8-5l0.8,0.2c-0.2,0.7-0.4,1.3-0.6,2h4.8v0.8h-2.5
		c0,1.5-0.1,2.8-0.1,3.9h2.9v0.8h-3c-0.1,0.7-0.2,1.4-0.4,2.1l0.5-0.4c1.1,1.2,2,2.3,2.9,3.3l-0.7,0.6c-1-1.3-2-2.4-2.8-3.3
		c-0.5,1.8-1.6,3.5-3.3,5c-0.3-0.3-0.5-0.5-0.7-0.7c2.2-1.8,3.4-4,3.5-6.6h-3.3v-0.8h3.4c0.1-1,0.1-2.3,0.1-3.9h-1.8
		C474.3,197,474,197.8,473.6,198.6z M481,194.8h6.3v12.7h-0.9v-1.5h-4.6v1.6H481V194.8z M481.9,195.6v9.5h4.6v-9.5H481.9z"/>
	<path class="st7" d="M491.6,205.3c0.7-0.5,1.5-1.1,2.4-1.9l0.1,0.9c-1,0.7-1.8,1.4-2.6,2c-0.3,0.2-0.5,0.4-0.6,0.6l-0.7-0.7
		c0.3-0.3,0.5-0.8,0.5-1.4v-5.6h-2v-0.8h2.8V205.3z M492.3,196.8c-0.8-0.9-1.5-1.7-2.3-2.6l0.7-0.5c1.1,1.2,1.9,2,2.3,2.5
		L492.3,196.8z M496.6,203.2l0.8,0.4c-1.2,1.8-2.4,3.3-3.6,4.5l-0.7-0.6C494.4,206.3,495.6,204.8,496.6,203.2z M494.7,194.3h8.2v7.5
		h-8.2V194.3z M495.6,195.1v5.9h6.4v-5.9H495.6z M499.9,203.6l0.7-0.5c1,1.3,2.2,2.7,3.4,4.3l-0.8,0.6
		C502.3,206.7,501.2,205.3,499.9,203.6z"/>
	<path class="st7" d="M507.6,204.9c0.4-0.4,1-1,1.8-1.8c0.1,0.4,0.1,0.7,0.2,1c-1,0.9-1.9,1.9-2.7,2.8l-0.7-0.7
		c0.2-0.2,0.3-0.5,0.3-0.7c0.1-0.2,0.1-0.5,0.1-0.9v-5.2h-1.9v-0.8h2.8V204.9z M506.5,193.7c0.6,0.6,1.4,1.4,2.3,2.4l-0.7,0.6
		c-0.5-0.6-1.3-1.4-2.3-2.5L506.5,193.7z M509.6,194.9v-0.8h10.1v0.8h-4.2v5h3.6v0.8h-3.6v5.9h4.5v0.8h-11.2v-0.8h2.2v-8.6h0.8v8.6
		h2.9v-11.7H509.6z"/>
	<path class="st7" d="M521.7,194.4h4.6v10.3h-3.8v1.3h-0.8V194.4z M522.5,195.2v4h3v-4H522.5z M522.5,204h3v-4.1h-3V204z
		 M532.9,207.3c0.9,0,1.3-0.4,1.3-1.2v-3.2h-5.1c-0.2,2-1.2,3.7-2.9,5.3c-0.3-0.3-0.5-0.5-0.7-0.6c1.3-1.1,2.1-2.2,2.5-3.3
		c0.4-1.1,0.6-2.7,0.6-5v-5.3h6.6v12.2c0,0.1,0,0.2,0,0.2c0,1.1-0.7,1.7-2,1.7c-0.4,0-0.7,0-1,0c-0.2,0-0.3,0-0.5,0
		c-0.2,0-0.3,0-0.6,0c0-0.2-0.1-0.5-0.2-0.9C531.3,207.3,532,207.3,532.9,207.3z M529.3,199.3c0,1,0,2-0.1,2.8h5v-3.3h-4.9V199.3z
		 M529.3,194.7v3.3h4.9v-3.3H529.3z"/>
	<path class="st7" d="M537.4,208.4h-0.7l1.3-4h0.9L537.4,208.4z"/>
	<path class="st7" d="M548.2,193l0.9,0.3c-0.7,0.6-1.2,1.1-1.7,1.5h7v0.8c-3,2.8-7.4,4.8-13,6.2c-0.1-0.3-0.3-0.6-0.4-0.8
		c5.3-1.2,9.4-3.1,12.3-5.5h-6.9c0,0-0.1,0-0.1,0.1c-0.3,0.2-0.6,0.4-0.7,0.5c0.9,0.6,1.7,1.1,2.6,1.7l-0.6,0.6
		c-1-0.8-1.9-1.4-2.7-1.9c-0.8,0.5-1.7,0.9-2.6,1.4c-0.2-0.2-0.3-0.5-0.5-0.7C544.3,196,546.4,194.7,548.2,193z M550,199.1l0.8,0.5
		c0,0-0.1,0.1-0.1,0.1c-0.6,0.5-1.1,0.9-1.4,1.1h5.8v0.9c-3,3.4-7.5,5.6-13.5,6.7c-0.1-0.3-0.2-0.6-0.4-0.8
		c5.6-0.9,9.9-2.9,12.8-5.9h-5.9c-0.5,0.4-1,0.7-1.5,0.9c0.7,0.5,1.5,1.1,2.5,1.8l-0.6,0.6c-0.9-0.7-1.7-1.4-2.6-2
		c-1.1,0.6-2.2,1.1-3.4,1.6c-0.2-0.3-0.4-0.6-0.5-0.8C545.2,202.6,547.8,201,550,199.1z"/>
	<path class="st7" d="M556.6,198.4c0.9-1.4,1.7-3.2,2.2-5.2l0.8,0.2c-0.3,1-0.5,1.7-0.8,2.3h2.7v0.8h-3c-0.3,0.7-0.7,1.6-1.3,2.5
		C557,198.7,556.8,198.5,556.6,198.4z M556.7,201.5h2v-2.3h-1v-0.8h3.3v0.8h-1.5v2.3h2v0.8h-2v3.8l1.8-1.8l0.2,0.9
		c-0.8,0.7-1.4,1.3-2,1.9c-0.2,0.2-0.4,0.4-0.6,0.7l-0.6-0.7c0.2-0.2,0.3-0.4,0.3-0.6c0.1-0.2,0.1-0.5,0.1-0.8v-3.4h-2V201.5z
		 M567.3,206.9c0.7,0,1.5,0,2.2,0c0.7,0,1.5,0,2.3,0c-0.1,0.3-0.2,0.6-0.3,0.9c-1.1,0-2.6,0-4.3-0.1c-1.7,0-2.9-0.6-3.8-1.8
		c-0.5,0.6-1.1,1.3-1.6,2.1l-0.7-0.6c0.4-0.5,0.9-1.2,1.7-2c0.1-0.1,0.2-0.2,0.2-0.3v-5.6h-1.2v-0.8h2v6.3
		C564.6,206.4,565.8,206.9,567.3,206.9z M563.3,196.8c-0.3-0.9-0.6-1.9-1.1-3.1l0.7-0.2c0.5,1.3,0.9,2.3,1.2,3.1L563.3,196.8z
		 M564.8,203.1h3.4v-2.3h-2.9v-0.9c0.5-1.1,0.9-2.3,1.4-3.8h-1.6v-0.8h1.8c0.2-0.7,0.4-1.5,0.6-2.2l0.8,0.2c-0.2,0.8-0.4,1.5-0.6,2
		h3.7v0.8h-4c-0.5,1.4-0.9,2.7-1.4,3.9h2.2v-2.8h0.8v2.8h2.2v0.8h-2.2v2.3h2.6v0.8h-2.6v2.5h-0.8v-2.5h-3.4V203.1z"/>
	<path class="st7" d="M581.8,193.4h0.9v12.9h5.2v0.8h-15.1v-0.8h5.1v-12.9h0.9v12.9h3.1V193.4z M575.7,203c-0.6-1.8-1.4-3.8-2.3-6.1
		l0.8-0.3c0.8,1.8,1.6,3.9,2.4,6.1L575.7,203z M584.5,203l-0.8-0.4c0.9-1.7,1.7-3.7,2.6-6.1l0.9,0.3
		C586.2,199.2,585.3,201.2,584.5,203z"/>
	<path class="st7" d="M603.3,200.9c-3-0.3-5.3-0.9-7-1.7c-1.7,0.8-4.1,1.4-7.3,2c-0.1-0.2-0.3-0.5-0.5-0.8c2.8-0.4,5.1-1,6.8-1.7
		c-1.1-0.7-2.2-1.6-3.1-2.8c-0.8,0.9-1.7,1.7-2.7,2.5c-0.2-0.3-0.4-0.5-0.6-0.6c1.9-1.3,3.4-2.9,4.6-4.7l0.8,0.3
		c-0.2,0.2-0.4,0.6-0.8,1c-0.1,0.1-0.1,0.2-0.2,0.2h8.2v0.9c-1.5,1.4-3,2.5-4.4,3.3c1.5,0.7,3.7,1.1,6.4,1.3
		C603.6,200.3,603.4,200.6,603.3,200.9z M589.9,202.1h4.4c0.1-0.5,0.1-1,0.1-1.6h0.9c0,0.5-0.1,1-0.2,1.6h6.5c0,0.8-0.1,1.8-0.2,2.9
		c-0.1,1.1-0.3,1.8-0.7,2.2c-0.4,0.4-1.1,0.6-2.1,0.7c-0.6,0-1.4,0-2.3,0c0-0.3-0.1-0.6-0.1-0.9c0.4,0,1.1,0,1.9,0.1
		c0.2,0,0.4,0,0.5,0c0.7,0,1.2-0.1,1.5-0.4c0.3-0.3,0.5-0.8,0.5-1.6c0.1-0.8,0.1-1.5,0.1-2.2H595c-0.3,2.5-2.1,4.3-5.6,5.4
		c-0.2-0.3-0.4-0.5-0.6-0.8c3.3-1,5.1-2.6,5.3-4.7h-4.3V202.1z M600.6,195.4h-7.7c1.1,1.3,2.3,2.2,3.5,2.9
		C597.7,197.6,599.2,196.7,600.6,195.4z"/>
	<path class="st7" d="M609.4,203c0,1.3-0.4,1.9-1.4,2c-0.4,0.1-0.8,0.1-1,0.1c0-0.3-0.1-0.5-0.3-0.8c0.3,0,0.6,0,0.9,0
		c0.7,0,1-0.4,1-1.3c0-1.2-0.4-2.4-1.4-3.6l1.4-4.6h-2.4v13.6h-0.8V194h4v0.9l-1.3,4.3C609,200.2,609.4,201.5,609.4,203z M610.3,194
		h9.2v0.7h-9.2V194z M611.2,208.3h-0.8v-7.8h8.8v5.9c0,1.1-0.5,1.6-1.5,1.7c-0.3,0-0.8,0-1.4,0c-0.1-0.4-0.1-0.7-0.2-0.9
		c0.3,0,0.8,0,1.4,0c0.6,0,0.9-0.3,0.9-0.9v-5.1h-7.1V208.3z M611.3,196h6.9v3.2h-6.9V196z M612.1,204h3c0.5-0.9,0.9-1.7,1.3-2.4
		l0.8,0.4c-0.5,0.8-0.9,1.5-1.2,2h1.6v0.7h-2.4v3.3h-0.8v-3.3h-2.3V204z M612.1,196.7v1.8h5.2v-1.8H612.1z M612.4,202l0.7-0.4
		c0.4,0.6,0.8,1.2,1.2,1.9l-0.7,0.4C613.2,203.4,612.8,202.7,612.4,202z"/>
	<path class="st7" d="M620.9,194.7h7.2c-0.1-0.6-0.3-1.1-0.4-1.4l0.9-0.1c0,0.1,0.1,0.3,0.1,0.5c0.1,0.5,0.2,0.8,0.3,1.1h6.6v0.8
		h-14.7V194.7z M622.5,196.3h0.8v3.6h9.9v-3.6h0.8v4.3h-5.3c-0.2,0.3-0.4,0.8-0.8,1.4c0,0.1-0.1,0.1-0.1,0.1h6.7v4.3
		c0,1.1-0.5,1.6-1.5,1.6c-0.5,0-1.1,0-1.8,0c-0.1-0.3-0.1-0.5-0.2-0.9c0.5,0,1,0,1.6,0c0.4,0,0.7-0.1,0.8-0.2
		c0.1-0.1,0.2-0.4,0.2-0.8V203h-6.2c-0.6,1-1.1,1.8-1.5,2.4c1.1,0,2.5-0.1,4.2-0.2c-0.3-0.4-0.7-0.8-1.1-1.2l0.6-0.5
		c0.9,0.9,1.7,1.8,2.4,2.7l-0.7,0.5c-0.1-0.1-0.2-0.3-0.4-0.5c-0.1-0.1-0.2-0.2-0.2-0.3c-1.2,0-2.7,0.1-4.8,0.2
		c-0.3,0-0.7,0.1-1.1,0.1l-0.4-0.8c0.3-0.2,0.7-0.5,1-0.9c0.3-0.4,0.6-1,1-1.6h-3.8v5.3h-0.8v-6h5.1c0.3-0.6,0.6-1.1,0.8-1.6h-5.3
		V196.3z M624.5,196.5l0.4-0.6c0.2,0.1,0.4,0.1,0.7,0.3c1.3,0.5,2.2,0.8,2.9,1.1c1.1-0.4,2.1-0.9,3-1.3l0.4,0.6
		c-0.6,0.3-1.5,0.7-2.5,1.1c0.3,0.1,0.8,0.3,1.5,0.6c0.5,0.2,0.9,0.4,1.2,0.5l-0.4,0.7c-1.1-0.5-2.2-0.9-3.3-1.3
		c-1.2,0.5-2.4,0.9-3.8,1.4c-0.1-0.2-0.2-0.4-0.4-0.7c1.1-0.3,2.1-0.6,3.2-1.1c-0.3-0.1-0.6-0.2-1.1-0.4
		C625.5,196.9,624.8,196.7,624.5,196.5z"/>
</g>
<g class="st5">
	<path class="st7" d="M499.2,222.7h4.8v-2.4h0.9v14.9H504v-3.5h-5.1V231h5.1v-3.3h-4.6v-0.8h4.6v-3.3h-4.8V222.7z M507.7,220.3h0.9
		v2.4h4.9v0.8h-4.9v3.3h4.6v0.8h-4.6v3.3h5.2v0.8h-5.2v3.5h-0.9V220.3z"/>
	<path class="st7" d="M515.8,223.6h6.1v-3.4h0.9v3.4h6.1v6.8H528v-0.8h-5.3v5.8h-0.9v-5.8h-5.2v0.8h-0.9V223.6z M516.6,224.4v4.3
		h5.2v-4.3H516.6z M528,224.4h-5.3v4.3h5.3V224.4z"/>
	<path class="st7" d="M532.4,224.9l0.9,0.2c-0.5,2.1-1,4.1-1.6,6.1c-0.4-0.1-0.7-0.2-0.9-0.3C531.4,229,532,227,532.4,224.9z
		 M534.8,223.2h0.9v9.1c0,0.6,0.1,1,0.3,1.2c0.2,0.2,0.6,0.3,1.2,0.3h3c1.1,0,1.8-0.4,1.9-1.4c0.1-0.5,0.2-1.3,0.3-2.2
		c0.4,0.1,0.7,0.2,0.9,0.3c-0.1,0.9-0.2,1.7-0.4,2.3c-0.2,1.2-1.1,1.8-2.6,1.8H537c-1.5,0-2.3-0.7-2.2-2.3V223.2z M539.7,224.9
		c-0.8-1.4-1.6-2.9-2.5-4.3l0.8-0.4c0.8,1.3,1.7,2.7,2.6,4.3L539.7,224.9z M545,230.4c-0.8-1.8-1.6-3.7-2.6-5.5l0.9-0.4
		c1,1.9,1.8,3.8,2.6,5.5L545,230.4z"/>
	<path class="st7" d="M546.9,233.3h6.9v-10.8h-6v-0.9h13v0.9h-6v10.8h6.9v0.8h-14.8V233.3z"/>
	<path class="st7" d="M563.2,228.7c-0.2-0.3-0.4-0.6-0.5-0.8c1.5-2.1,2.7-4.7,3.7-7.6l0.9,0.2c-0.5,1.3-0.9,2.5-1.4,3.6v11.2h-0.8
		v-9.5C564.4,226.8,563.8,227.8,563.2,228.7z M567.7,227c-0.2-0.2-0.5-0.4-0.7-0.5c1.5-1.8,2.6-3.9,3.4-6.3l0.9,0.2
		c-0.3,0.8-0.6,1.5-1,2.3h7.6v0.8h-5.7v3h4.8v0.8h-4.8v3.1h5.3v0.8h-5.3v4h-0.9v-11.7h-1.5C569.3,224.7,568.6,225.9,567.7,227z"/>
	<path class="st7" d="M581.1,227.1c-0.7-0.6-1.5-1.3-2.4-2l0.6-0.6c0.9,0.7,1.7,1.3,2.4,1.9L581.1,227.1z M579.1,234.7
		c0.6-1.6,1.2-3.5,1.8-5.7c0.2,0.1,0.5,0.2,0.8,0.4c-0.7,2.3-1.3,4.2-1.7,5.7L579.1,234.7z M581.6,223.1c-0.7-0.7-1.5-1.3-2.4-2.1
		l0.6-0.6c0.7,0.6,1.5,1.2,2.4,2L581.6,223.1z M584.3,228.3h0.8c0,2-0.2,3.5-0.6,4.4c-0.3,0.9-1.1,1.8-2.1,2.6
		c-0.2-0.2-0.4-0.4-0.7-0.7c1-0.7,1.7-1.4,2-2.3C584.2,231.5,584.3,230.2,584.3,228.3z M592.5,227.9c-0.1-0.1-0.2-0.2-0.3-0.4
		c-0.2-0.3-0.4-0.5-0.5-0.6c-1.6,0-3.7,0.1-6.1,0.2c-0.4,0-0.7,0-0.9,0c-0.5,0-0.9,0.1-1.3,0.1l-0.4-0.8c0.3-0.2,0.7-0.4,1-0.6
		c0.8-0.7,1.7-1.6,2.7-2.8h-4v-0.8h5.2c-0.3-0.7-0.6-1.3-0.9-1.7l0.8-0.4c0.3,0.6,0.7,1.2,1,1.8l-0.6,0.3h5.1v0.8h-6.2l0.6,0.3
		c-1.1,1.1-2.1,2.2-3.2,3.1c1.9,0,4.1-0.1,6.5-0.2c-0.5-0.5-1-1.1-1.6-1.7l0.7-0.5c1,1,2.1,2.2,3.1,3.3L592.5,227.9z M587.3,228.3
		h0.8v6.7h-0.8V228.3z M590.2,228.2h0.8v5.1c0,0.5,0.2,0.8,0.8,0.8h0.4c0.4,0,0.7-0.3,0.8-0.8c0.1-0.5,0.1-1.2,0.2-1.9
		c0.2,0.1,0.5,0.2,0.8,0.3c-0.1,0.8-0.1,1.4-0.2,1.9c-0.1,0.8-0.6,1.3-1.4,1.3h-0.7c-1,0-1.5-0.5-1.4-1.4V228.2z"/>
</g>
<ellipse id="椭圆_11" class="st8" cx="550" cy="96" rx="22.5" ry="4.5"/>
<path id="矩形_46" class="st9" d="M497.5,97.5l54,19v18l-54-19V97.5z"/>
<path id="矩形_46_拷贝" class="st9" d="M597.5,98.5l-47,18v18l47-18V98.5z"/>
<path id="圆角矩形_1-2" class="st3" d="M243.8,96.2l48.7-12.5c2.1-0.4,4.2-0.4,6.2,0.2l40.9,13.2c1.8,0.6,2,1.5,0.5,2.1
	l-42.6,15.7c-2.5,0.8-5.1,0.8-7.6,0.1l-46.9-16.4C240.9,97.9,241.3,96.8,243.8,96.2z"/>
<path id="圆角矩形_1_拷贝-2" class="st4" d="M242.8,122.2l48.7-12.5c2.1-0.4,4.2-0.4,6.2,0.2l40.9,13.2c1.8,0.6,2,1.5,0.5,2.1
	l-42.6,15.7c-2.5,0.8-5.1,0.8-7.6,0.1l-46.9-16.4C239.9,123.9,240.3,122.8,242.8,122.2z"/>
<g id="跨链-2" class="st5">
	<path class="st6" d="M271.9,165h1v7.4c0.2,0,0.5-0.1,0.9-0.2c0.4-0.1,0.6-0.1,0.8-0.2v-9h-2.7v-5.9h5.4v5.9h-1.8v3.3h2.1v0.9h-2.1
		v4.6c0.3-0.1,0.7-0.2,1.3-0.3c0.6-0.1,1-0.2,1.3-0.3c0,0.1,0,0.3,0,0.4c0,0.2,0,0.4,0,0.6c-2,0.4-4.4,0.9-7.2,1.5l-0.2-1.1
		c0.4-0.1,0.7-0.1,1.1-0.2V165z M272.9,158.1v4.1h3.5v-4.1H272.9z M278.5,158.6h3.9c0.4-0.7,0.7-1.5,1-2.5l1,0.2
		c-0.3,0.8-0.6,1.6-0.9,2.2h5.6v0.9h-3.9c1,1.7,2.5,3,4.5,3.9c-0.1,0.1-0.3,0.4-0.5,0.8c0,0.1-0.1,0.1-0.1,0.1
		c-2.3-1.2-3.9-2.8-4.9-4.8h-1.1c-0.9,1.8-2.5,3.5-4.7,5.1c-0.2-0.2-0.4-0.5-0.7-0.8c2-1.3,3.5-2.7,4.3-4.2h-3.4V158.6z
		 M278.2,165.9h11.2v0.9h-7.9l-0.6,2.2h7.1c-0.1,1.3-0.2,2.4-0.3,3.2c-0.1,1.6-1,2.3-2.7,2.3c-0.9,0-1.8,0-2.9,0
		c0-0.3-0.1-0.7-0.3-1.1c0.8,0,1.4,0.1,1.8,0.1c0.2,0,0.5,0,0.7,0c0.2,0,0.4,0,0.5,0c1.2,0,1.8-0.5,1.8-1.5c0.1-0.7,0.2-1.4,0.2-2.1
		h-7.3l0.9-3.1h-2.2V165.9z M280.9,163h5.9v0.9h-5.9V163z"/>
	<path class="st6" d="M290.7,162.6c1.2-1.8,2.1-3.9,2.7-6.5l1,0.2c-0.4,1.2-0.7,2.1-0.9,2.8h3.3v0.9h-3.7c-0.4,0.9-0.9,2-1.6,3.2
		C291.3,163.1,291,162.8,290.7,162.6z M290.9,166.5h2.5v-2.8h-1.2v-0.9h4.1v0.9h-1.9v2.8h2.6v0.9h-2.6v4.7l2.3-2.2l0.2,1.1
		c-0.9,0.9-1.8,1.6-2.5,2.3c-0.2,0.2-0.5,0.5-0.8,0.8l-0.7-0.8c0.2-0.3,0.3-0.5,0.4-0.8c0.1-0.2,0.1-0.6,0.1-1v-4.2h-2.5V166.5z
		 M304.2,173.3c0.9,0,1.9,0,2.8,0c0.9,0,1.9,0,2.8,0c-0.2,0.4-0.3,0.7-0.3,1.1c-1.4,0-3.2,0-5.4-0.1c-2.1,0-3.6-0.7-4.8-2.3
		c-0.7,0.7-1.3,1.6-2,2.7l-0.8-0.7c0.5-0.6,1.2-1.5,2.1-2.6c0.1-0.1,0.2-0.3,0.3-0.3v-6.9h-1.6v-0.9h2.5v7.9
		C300.8,172.6,302.2,173.3,304.2,173.3z M299.2,160.6c-0.3-1.1-0.8-2.4-1.4-3.9l0.9-0.3c0.6,1.6,1.1,2.9,1.5,3.9L299.2,160.6z
		 M301.1,168.5h4.3v-2.9h-3.7v-1.2c0.6-1.4,1.2-2.9,1.7-4.7h-2v-0.9h2.3c0.3-0.9,0.5-1.8,0.7-2.7l1,0.2c-0.3,1-0.5,1.8-0.7,2.5h4.7
		v0.9h-5c-0.6,1.8-1.1,3.4-1.7,4.9h2.7v-3.5h1v3.5h2.7v0.9h-2.7v2.9h3.2v0.9h-3.2v3.1h-1v-3.1h-4.3V168.5z"/>
</g>
<g id="资产跨链_信息跨链_" class="st5">
	<path class="st7" d="M224.9,199.6c1.3-0.9,2.6-1.8,3.8-2.8c0.1,0.1,0.2,0.4,0.4,0.8c-1.2,0.9-2.4,1.8-3.6,2.8L224.9,199.6z
		 M232.1,202.5h0.8c0,0.6,0,1.1-0.1,1.7c0,0,0,0.1,0,0.2c0,0.2-0.1,0.3-0.1,0.4c2.1,0.8,4.3,1.6,6.7,2.6l-0.5,0.8
		c-2.4-1.1-4.6-2-6.6-2.7c-0.7,1.2-2.9,2.1-6.5,2.8c-0.1-0.3-0.3-0.6-0.4-0.9c4.1-0.5,6.3-1.6,6.6-3.3
		C232,203.6,232.1,203.1,232.1,202.5z M228,195.9c-0.8-0.6-1.6-1.3-2.5-1.9l0.6-0.6c0.8,0.5,1.6,1.1,2.5,1.8L228,195.9z
		 M227.2,200.8h10.4v4.5h-0.8v-3.8h-8.8v3.8h-0.8V200.8z M229.7,200.2c-0.2-0.3-0.3-0.5-0.5-0.8c3.2-0.7,4.9-2.1,5.1-4.2h-2.5
		c-0.4,0.7-1,1.4-1.6,2.1c-0.2-0.2-0.5-0.4-0.7-0.6c1.1-1.1,1.9-2.3,2.5-3.8l0.8,0.2c-0.2,0.4-0.4,0.9-0.6,1.3h7.1v0.8l-0.9,1.9
		c-0.2-0.1-0.5-0.2-0.8-0.3l0.9-1.7h-3.3c0,0.2-0.1,0.3-0.1,0.4c0.8,2,2.4,3.3,4.8,3.8c-0.2,0.3-0.3,0.5-0.5,0.8
		c-2.5-0.7-4-1.9-4.7-3.6C234.2,198.2,232.5,199.4,229.7,200.2z"/>
	<path class="st7" d="M242.4,199.4h7.6c0.6-0.9,1.2-1.9,1.9-3l0.8,0.4c-0.5,0.8-1.1,1.7-1.7,2.6h4.5v0.8h-12.2v1.2
		c0.1,2.8-0.5,5-1.8,6.7c-0.3-0.3-0.5-0.5-0.7-0.6c0.6-0.8,1.1-1.6,1.3-2.5c0.3-0.9,0.4-2.1,0.4-3.6V199.4z M247.9,193.4l0.8-0.2
		c0.3,0.7,0.5,1.3,0.6,1.8h6.4v0.8h-14.7V195h7.4c-0.1-0.3-0.3-0.8-0.5-1.5C248,193.5,248,193.4,247.9,193.4z M244.6,196.9l0.7-0.5
		c0.5,0.6,1.1,1.3,1.8,2.3l-0.8,0.5C245.8,198.4,245.2,197.6,244.6,196.9z"/>
	<path class="st7" d="M257.7,200.3h0.8v5.9c0.2,0,0.4-0.1,0.7-0.1c0.3-0.1,0.5-0.1,0.6-0.1v-7.2h-2.1v-4.7h4.4v4.7h-1.4v2.6h1.6v0.7
		h-1.6v3.7c0.2-0.1,0.6-0.1,1-0.2c0.5-0.1,0.8-0.2,1-0.2c0,0.1,0,0.2,0,0.3c0,0.2,0,0.3,0,0.5c-1.6,0.3-3.5,0.7-5.8,1.2l-0.2-0.8
		c0.3-0.1,0.6-0.1,0.9-0.2V200.3z M258.5,194.8v3.3h2.8v-3.3H258.5z M263,195.1h3.1c0.3-0.6,0.6-1.2,0.8-2l0.8,0.2
		c-0.2,0.7-0.5,1.3-0.7,1.8h4.5v0.7h-3.1c0.8,1.4,2,2.4,3.6,3.1c-0.1,0.1-0.2,0.3-0.4,0.6c0,0.1-0.1,0.1-0.1,0.1
		c-1.8-1-3.1-2.2-3.9-3.9h-0.9c-0.7,1.5-2,2.8-3.8,4c-0.1-0.2-0.3-0.4-0.6-0.7c1.6-1.1,2.8-2.2,3.5-3.4H263V195.1z M262.7,201h9v0.7
		h-6.4l-0.5,1.8h5.7c-0.1,1-0.1,1.9-0.2,2.6c-0.1,1.2-0.8,1.9-2.1,1.8c-0.7,0-1.5,0-2.4,0c0-0.2-0.1-0.5-0.2-0.9c0.6,0,1.1,0,1.4,0
		c0.2,0,0.4,0,0.5,0c0.2,0,0.3,0,0.4,0c0.9,0,1.4-0.4,1.5-1.2c0.1-0.5,0.1-1.1,0.2-1.7h-5.9l0.7-2.5h-1.8V201z M264.8,198.7h4.7v0.7
		h-4.7V198.7z"/>
	<path class="st7" d="M272.7,198.4c0.9-1.4,1.7-3.2,2.2-5.2l0.8,0.2c-0.3,1-0.5,1.7-0.8,2.3h2.7v0.8h-3c-0.3,0.7-0.7,1.6-1.3,2.5
		C273.2,198.7,273,198.5,272.7,198.4z M272.8,201.5h2v-2.3h-1v-0.8h3.3v0.8h-1.5v2.3h2v0.8h-2v3.8l1.8-1.8l0.2,0.9
		c-0.8,0.7-1.4,1.3-2,1.9c-0.2,0.2-0.4,0.4-0.6,0.7l-0.6-0.7c0.2-0.2,0.3-0.4,0.3-0.6c0.1-0.2,0.1-0.5,0.1-0.8v-3.4h-2V201.5z
		 M283.5,206.9c0.7,0,1.5,0,2.2,0c0.7,0,1.5,0,2.3,0c-0.1,0.3-0.2,0.6-0.3,0.9c-1.1,0-2.6,0-4.3-0.1c-1.7,0-2.9-0.6-3.8-1.8
		c-0.5,0.6-1.1,1.3-1.6,2.1l-0.7-0.6c0.4-0.5,0.9-1.2,1.7-2c0.1-0.1,0.2-0.2,0.2-0.3v-5.6h-1.2v-0.8h2v6.3
		C280.8,206.4,281.9,206.9,283.5,206.9z M279.5,196.8c-0.3-0.9-0.6-1.9-1.1-3.1l0.7-0.2c0.5,1.3,0.9,2.3,1.2,3.1L279.5,196.8z
		 M281,203.1h3.4v-2.3h-2.9v-0.9c0.5-1.1,0.9-2.3,1.4-3.8h-1.6v-0.8h1.8c0.2-0.7,0.4-1.5,0.6-2.2l0.8,0.2c-0.2,0.8-0.4,1.5-0.6,2
		h3.7v0.8h-4c-0.5,1.4-0.9,2.7-1.4,3.9h2.2v-2.8h0.8v2.8h2.2v0.8h-2.2v2.3h2.6v0.8h-2.6v2.5h-0.8v-2.5H281V203.1z"/>
	<path class="st7" d="M289.4,208.4h-0.7l1.3-4h0.9L289.4,208.4z"/>
	<path class="st7" d="M293,201.5c-0.1-0.3-0.3-0.6-0.4-0.9c1.5-2.1,2.6-4.6,3.4-7.3l0.8,0.2c-0.4,1.3-0.9,2.5-1.4,3.6v11.1h-0.8
		v-9.4C294.1,199.9,293.6,200.7,293,201.5z M301.5,193.5l0.8-0.3c0.3,0.6,0.6,1.2,0.9,1.9l-0.7,0.3h5.3v0.8h-10.6v-0.8h5.2
		C302,194.5,301.7,193.9,301.5,193.5z M298,197.8h8.9v0.8H298V197.8z M298,200.4h8.9v0.8H298V200.4z M298.1,202.9h8.5v5.3h-0.8v-0.9
		H299v0.9h-0.8V202.9z M299,203.7v2.9h6.9v-2.9H299z"/>
	<path class="st7" d="M309.9,203.7l0.8,0.3c-0.5,1.3-0.9,2.3-1.3,3.2l-0.8-0.4C309.1,205.9,309.5,204.9,309.9,203.7z M310.7,194.7
		h3.8c0.2-0.6,0.3-1.1,0.4-1.6l0.9,0.1c0,0,0,0.1-0.1,0.2c-0.2,0.6-0.3,1-0.4,1.3h6.2v7.7h-10.9V194.7z M311.6,195.4v1.6h9.2v-1.6
		H311.6z M311.6,197.8v1.6h9.2v-1.6H311.6z M311.6,200.1v1.6h9.2v-1.6H311.6z M312.3,203.6h0.9v2.2c0,0.5,0.1,0.8,0.3,1
		c0.2,0.2,0.6,0.3,1.1,0.3h3.3c0.9,0,1.4-0.3,1.6-0.9c0.1-0.4,0.2-0.9,0.3-1.6c0.4,0.2,0.6,0.3,0.8,0.3c-0.1,0.6-0.2,1.1-0.3,1.5
		c-0.2,1.1-1,1.6-2.3,1.5h-3.6c-1.4,0.1-2.1-0.6-2.1-2V203.6z M315.1,203.5l0.6-0.5c0.7,0.6,1.3,1.2,1.9,1.9l-0.7,0.6
		C316.2,204.7,315.7,204,315.1,203.5z M321.3,204l0.6-0.5c0.7,0.7,1.4,1.5,2,2.4l-0.7,0.5C322.6,205.6,321.9,204.7,321.3,204z"/>
	<path class="st7" d="M325.5,200.3h0.8v5.9c0.2,0,0.4-0.1,0.7-0.1c0.3-0.1,0.5-0.1,0.6-0.1v-7.2h-2.1v-4.7h4.4v4.7h-1.4v2.6h1.6v0.7
		h-1.6v3.7c0.2-0.1,0.6-0.1,1-0.2c0.5-0.1,0.8-0.2,1-0.2c0,0.1,0,0.2,0,0.3c0,0.2,0,0.3,0,0.5c-1.6,0.3-3.5,0.7-5.8,1.2l-0.2-0.8
		c0.3-0.1,0.6-0.1,0.9-0.2V200.3z M326.3,194.8v3.3h2.8v-3.3H326.3z M330.8,195.1h3.1c0.3-0.6,0.6-1.2,0.8-2l0.8,0.2
		c-0.2,0.7-0.5,1.3-0.7,1.8h4.5v0.7h-3.1c0.8,1.4,2,2.4,3.6,3.1c-0.1,0.1-0.2,0.3-0.4,0.6c0,0.1-0.1,0.1-0.1,0.1
		c-1.8-1-3.1-2.2-3.9-3.9h-0.9c-0.7,1.5-2,2.8-3.8,4c-0.1-0.2-0.3-0.4-0.6-0.7c1.6-1.1,2.8-2.2,3.5-3.4h-2.7V195.1z M330.5,201h9
		v0.7h-6.4l-0.5,1.8h5.7c-0.1,1-0.1,1.9-0.2,2.6c-0.1,1.2-0.8,1.9-2.1,1.8c-0.7,0-1.5,0-2.4,0c0-0.2-0.1-0.5-0.2-0.9
		c0.6,0,1.1,0,1.4,0c0.2,0,0.4,0,0.5,0c0.2,0,0.3,0,0.4,0c0.9,0,1.4-0.4,1.5-1.2c0.1-0.5,0.1-1.1,0.2-1.7h-5.9l0.7-2.5h-1.8V201z
		 M332.7,198.7h4.7v0.7h-4.7V198.7z"/>
	<path class="st7" d="M340.6,198.4c0.9-1.4,1.7-3.2,2.2-5.2l0.8,0.2c-0.3,1-0.5,1.7-0.8,2.3h2.7v0.8h-3c-0.3,0.7-0.7,1.6-1.3,2.5
		C341,198.7,340.8,198.5,340.6,198.4z M340.7,201.5h2v-2.3h-1v-0.8h3.3v0.8h-1.5v2.3h2v0.8h-2v3.8l1.8-1.8l0.2,0.9
		c-0.8,0.7-1.4,1.3-2,1.9c-0.2,0.2-0.4,0.4-0.6,0.7l-0.6-0.7c0.2-0.2,0.3-0.4,0.3-0.6c0.1-0.2,0.1-0.5,0.1-0.8v-3.4h-2V201.5z
		 M351.3,206.9c0.7,0,1.5,0,2.2,0c0.7,0,1.5,0,2.3,0c-0.1,0.3-0.2,0.6-0.3,0.9c-1.1,0-2.6,0-4.3-0.1c-1.7,0-2.9-0.6-3.8-1.8
		c-0.5,0.6-1.1,1.3-1.6,2.1l-0.7-0.6c0.4-0.5,0.9-1.2,1.7-2c0.1-0.1,0.2-0.2,0.2-0.3v-5.6h-1.2v-0.8h2v6.3
		C348.6,206.4,349.8,206.9,351.3,206.9z M347.3,196.8c-0.3-0.9-0.6-1.9-1.1-3.1l0.7-0.2c0.5,1.3,0.9,2.3,1.2,3.1L347.3,196.8z
		 M348.8,203.1h3.4v-2.3h-2.9v-0.9c0.5-1.1,0.9-2.3,1.4-3.8h-1.6v-0.8h1.8c0.2-0.7,0.4-1.5,0.6-2.2l0.8,0.2c-0.2,0.8-0.4,1.5-0.6,2
		h3.7v0.8h-4c-0.5,1.4-0.9,2.7-1.4,3.9h2.2v-2.8h0.8v2.8h2.2v0.8h-2.2v2.3h2.6v0.8h-2.6v2.5h-0.8v-2.5h-3.4V203.1z"/>
</g>
<ellipse id="椭圆_11-2" class="st8" cx="294" cy="96" rx="22.5" ry="4.5"/>
<path id="矩形_46-2" class="st9" d="M241.5,97.5l54,19v18l-54-19V97.5z"/>
<path id="矩形_46_拷贝-2" class="st9" d="M341.5,98.5l-47,18v18l47-18V98.5z"/>
<path id="圆角矩形_1-3" class="st3" d="M755.8,96.2l48.7-12.5c2.1-0.4,4.2-0.4,6.2,0.2l40.8,13.2c1.8,0.6,2,1.5,0.5,2.1
	l-42.6,15.7c-2.5,0.8-5.1,0.8-7.7,0.1l-46.9-16.4C752.9,97.9,753.3,96.8,755.8,96.2z"/>
<path id="圆角矩形_1_拷贝-3" class="st4" d="M754.8,122.2l48.7-12.5c2.1-0.4,4.2-0.4,6.2,0.2l40.8,13.2c1.8,0.6,2,1.5,0.5,2.1
	l-42.6,15.7c-2.5,0.8-5.1,0.8-7.7,0.1l-46.9-16.4C751.9,123.9,752.3,122.8,754.8,122.2z"/>
<g id="公有链-2" class="st5">
	<path class="st6" d="M773.7,171.2c-0.2-0.3-0.5-0.6-0.9-0.9c2.9-2.1,5.1-4.9,6.5-8.2l1.1,0.4C778.9,165.9,776.6,168.8,773.7,171.2z
		 M789.5,179.9c-0.5-0.6-0.9-1.2-1.4-1.8c-4.4,0.1-8.1,0.3-11,0.5c-0.8,0-1.4,0.1-2,0.2l-0.5-1.2c0.5-0.3,1-0.6,1.4-1
		c1.9-2.1,3.7-4.6,5.3-7.5l1.2,0.6c-1.8,2.8-3.7,5.4-5.7,7.9c0.3,0,0.7,0,1.3,0c3.7-0.2,6.8-0.3,9.3-0.4c-0.8-1-1.9-2.3-3.3-3.9
		l0.9-0.7c1.8,2.1,3.7,4.3,5.6,6.6L789.5,179.9z M784.1,162.1l1.1-0.4c1.3,3.4,3.5,6.1,6.6,8c-0.4,0.4-0.6,0.7-0.9,1
		C787.6,168.4,785.4,165.6,784.1,162.1z"/>
	<path class="st6" d="M797.8,179.9h-1.1v-10.5c-0.9,1-2,2.1-3.3,3.2c-0.2-0.3-0.5-0.6-0.7-0.9c2.6-2.1,4.7-4.5,6.3-7.1h-5.6v-1h6.1
		c0.5-0.9,1-1.8,1.4-2.7l1.1,0.3c-0.5,1-0.9,1.8-1.2,2.4h10.6v1h-11.2c-0.5,0.9-1.1,1.8-1.8,2.6h10.7v9.9c0.1,1.5-0.7,2.2-2.3,2.2
		c-0.7,0-1.6,0-2.8,0c-0.1-0.4-0.2-0.8-0.3-1.1c0.8,0,1.7,0,2.8,0c0.6,0,1-0.1,1.2-0.3c0.2-0.2,0.3-0.6,0.3-1.1v-1.7h-10.3V179.9z
		 M797.8,168.3v2.6h10.3v-2.6H797.8z M797.8,171.8v2.6h10.3v-2.6H797.8z"/>
	<path class="st6" d="M812.7,167.6c1.2-1.8,2.1-3.9,2.7-6.5l1,0.2c-0.4,1.2-0.7,2.1-0.9,2.8h3.3v0.9h-3.7c-0.4,0.9-0.9,2-1.6,3.2
		C813.3,168.1,813,167.8,812.7,167.6z M812.9,171.5h2.5v-2.8h-1.2v-0.9h4.1v0.9h-1.9v2.8h2.6v0.9h-2.6v4.7l2.3-2.2l0.2,1.1
		c-0.9,0.9-1.8,1.6-2.5,2.3c-0.2,0.2-0.5,0.5-0.8,0.8l-0.7-0.8c0.2-0.3,0.3-0.5,0.4-0.8c0.1-0.2,0.1-0.6,0.1-1v-4.2h-2.5V171.5z
		 M826.2,178.3c0.9,0,1.9,0,2.8,0c0.9,0,1.9,0,2.8,0c-0.2,0.4-0.3,0.7-0.3,1.1c-1.4,0-3.2,0-5.4-0.1c-2.1,0-3.6-0.7-4.8-2.3
		c-0.7,0.7-1.3,1.6-2,2.7l-0.8-0.7c0.5-0.6,1.2-1.5,2.1-2.6c0.1-0.1,0.2-0.3,0.3-0.3v-6.9h-1.6v-0.9h2.5v7.9
		C822.8,177.6,824.2,178.3,826.2,178.3z M821.2,165.6c-0.3-1.1-0.8-2.4-1.4-3.9l0.9-0.3c0.6,1.6,1.1,2.9,1.5,3.9L821.2,165.6z
		 M823.1,173.5h4.3v-2.9h-3.7v-1.2c0.6-1.4,1.2-2.9,1.7-4.7h-2v-0.9h2.3c0.3-0.9,0.5-1.8,0.7-2.7l1,0.2c-0.3,1-0.5,1.8-0.7,2.5h4.7
		v0.9h-5c-0.6,1.8-1.1,3.4-1.7,4.9h2.7v-3.5h1v3.5h2.7v0.9h-2.7v2.9h3.2v0.9h-3.2v3.1h-1v-3.1h-4.3V173.5z"/>
</g>
<g class="st5">
	<path class="st7" d="M710.6,206.3h-0.6l-4.4-12.1h0.9l3.5,9.8c0.1,0.4,0.3,0.8,0.3,1.1h0c0.1-0.3,0.2-0.7,0.3-1.2l3.7-9.7h0.9
		L710.6,206.3z"/>
	<path class="st7" d="M718.8,206.5c-1.3,0-2.3-0.4-3-1.2s-1.1-1.9-1.1-3.2c0-1.4,0.4-2.6,1.2-3.4s1.8-1.2,3-1.2
		c1.2,0,2.2,0.4,2.9,1.2s1.1,1.9,1.1,3.3c0,1.3-0.4,2.4-1.1,3.3S720.1,206.5,718.8,206.5z M718.9,198.2c-1,0-1.8,0.3-2.4,1
		s-0.9,1.6-0.9,2.9c0,1.1,0.3,2,0.9,2.7s1.4,1,2.4,1c1,0,1.8-0.3,2.4-1s0.8-1.6,0.8-2.8c0-1.2-0.3-2.2-0.8-2.8
		S719.9,198.2,718.9,198.2z"/>
	<path class="st7" d="M729.1,198.5c-0.3-0.2-0.6-0.3-0.9-0.3c-0.7,0-1.3,0.4-1.7,1.1s-0.7,1.7-0.7,3v4.1H725v-8.6h0.8v1.9h0
		c0.2-0.7,0.5-1.2,0.9-1.5s0.9-0.6,1.5-0.6c0.3,0,0.6,0.1,0.9,0.2V198.5z"/>
	<path class="st7" d="M734.9,206.2c-0.4,0.2-0.8,0.3-1.1,0.3c-1.3,0-1.9-0.8-1.9-2.3v-5.8h-1.6v-0.7h1.6v-2.2c0.1,0,0.2-0.1,0.4-0.1
		s0.3-0.1,0.4-0.1v2.5h2.3v0.7h-2.3v5.7c0,0.6,0.1,1,0.3,1.3s0.5,0.4,1,0.4c0.3,0,0.7-0.1,1-0.3V206.2z"/>
	<path class="st7" d="M736.8,202c0,1.2,0.3,2.1,0.8,2.8s1.3,1,2.3,1c1,0,1.9-0.4,2.8-1.1v0.8c-0.9,0.6-1.9,1-3,1
		c-1.1,0-2-0.4-2.7-1.2s-1-1.9-1-3.4c0-1.3,0.4-2.3,1.1-3.2s1.7-1.3,2.8-1.3c1.1,0,1.9,0.4,2.5,1.1s0.9,1.8,0.9,3.1v0.3H736.8z
		 M742.4,201.3c0-1-0.3-1.8-0.7-2.3s-1.1-0.8-1.8-0.8c-0.8,0-1.5,0.3-2,0.8s-0.9,1.3-1,2.3H742.4z"/>
	<path class="st7" d="M748,202.1l2.8,4.2h-1l-2.3-3.6h0l-0.3,0.5c0,0.1-0.1,0.1-0.1,0.2l-1.9,2.9h-0.9l2.9-4.2l-2.8-4.4h0.9l1.9,3.1
		c0.3,0.4,0.4,0.6,0.4,0.7h0l0.4-0.7l2-3.1h0.9L748,202.1z"/>
	<path class="st7" d="M761.8,193.3h0.9v3.1h3.4v0.8h-3.4v4.7h4.1v0.8h-15v-0.8h4.1v-4.7h-3.4v-0.8h3.4v-3.1h0.9v3.1h5.2V193.3z
		 M757,204l0.7,0.7c-1.8,1.3-3.6,2.4-5.2,3.4c-0.2-0.3-0.4-0.5-0.6-0.8C753.8,206.3,755.5,205.2,757,204z M756.6,197.2v4.7h5.2v-4.7
		H756.6z M760.7,204.7l0.6-0.7c1.8,1.1,3.5,2.2,5,3.3l-0.6,0.7C763.9,206.8,762.2,205.6,760.7,204.7z"/>
	<path class="st7" d="M770.5,205.3c0.7-0.5,1.5-1.1,2.4-1.9l0.1,0.9c-1,0.7-1.8,1.4-2.6,2c-0.3,0.2-0.5,0.4-0.6,0.6l-0.7-0.7
		c0.3-0.3,0.5-0.8,0.5-1.4v-5.6h-2v-0.8h2.8V205.3z M771.2,196.8c-0.8-0.9-1.5-1.7-2.3-2.6l0.7-0.5c1.1,1.2,1.9,2,2.3,2.5
		L771.2,196.8z M775.5,203.2l0.8,0.4c-1.2,1.8-2.4,3.3-3.6,4.5l-0.7-0.6C773.2,206.3,774.4,204.8,775.5,203.2z M773.5,194.3h8.2v7.5
		h-8.2V194.3z M774.4,195.1v5.9h6.4v-5.9H774.4z M778.7,203.6l0.7-0.5c1,1.3,2.2,2.7,3.4,4.3L782,208
		C781.1,206.7,780,205.3,778.7,203.6z"/>
	<path class="st7" d="M784.3,208.4h-0.7l1.3-4h0.9L784.3,208.4z"/>
	<path class="st7" d="M798.6,206.3h-0.7l-2.7-9.1c-0.1-0.5-0.2-0.8-0.2-1.1h0c0,0.2-0.1,0.6-0.3,1.1l-2.9,9.1h-0.7l-3.6-12.1h0.9
		l2.8,9.7c0.1,0.4,0.2,0.8,0.3,1.1h0c0-0.2,0.1-0.6,0.3-1.1l3-9.7h0.4l2.7,9.7c0.1,0.5,0.2,0.8,0.3,1.1h0c0-0.2,0.1-0.3,0.1-0.5
		l2.8-10.2h0.9L798.6,206.3z"/>
	<path class="st7" d="M811,206.3l-1.4-3.8h-5.2l-1.4,3.8h-0.9l4.6-12.1h0.8l4.5,12.1H811z M807.3,196.2c-0.1-0.2-0.1-0.3-0.1-0.5
		c0-0.1-0.1-0.3-0.1-0.4h0c-0.1,0.4-0.2,0.7-0.3,0.9l-2,5.6h4.7L807.3,196.2z"/>
	<path class="st7" d="M813.6,205.9v-1c0.9,0.6,1.7,0.8,2.6,0.8c0.9,0,1.7-0.2,2.2-0.6s0.7-0.9,0.7-1.6c0-0.6-0.2-1.1-0.5-1.5
		s-1-0.9-2.1-1.5c-1.2-0.7-2-1.3-2.3-1.8s-0.5-1-0.5-1.7c0-0.9,0.3-1.6,1-2.2s1.5-0.9,2.7-0.9c0.7,0,1.4,0.1,2.2,0.4v0.9
		c-0.7-0.3-1.5-0.5-2.3-0.5c-0.8,0-1.5,0.2-1.9,0.6s-0.7,0.9-0.7,1.6c0,0.6,0.2,1.1,0.5,1.5s1,0.9,2.1,1.5c1.1,0.6,1.9,1.2,2.3,1.7
		s0.6,1.1,0.6,1.7c0,0.9-0.3,1.7-1,2.3s-1.6,0.9-2.7,0.9c-0.4,0-0.9-0.1-1.4-0.2S813.9,206,813.6,205.9z"/>
	<path class="st7" d="M833.1,206.3v-8.6c0-0.2,0-0.8,0.1-1.8h0c-0.2,0.5-0.3,0.8-0.4,1.1l-4.3,9.3h-0.3l-4.3-9.3
		c-0.1-0.3-0.3-0.7-0.4-1.1h0c0,0.5,0.1,1.1,0.1,1.6v8.8h-0.8v-12.1h0.8l4.5,9.8c0,0.1,0.1,0.1,0.1,0.2c0,0.1,0.1,0.2,0.1,0.3
		c0.1,0.1,0.1,0.3,0.2,0.5h0.1l0.1-0.3c0,0,0.1-0.3,0.3-0.8l4.4-9.7h0.7v12.1H833.1z"/>
	<path class="st7" d="M843,200.9c-1.2-0.9-2.2-1.7-2.9-2.2c-0.5,1.1-1.7,2.1-3.6,3c-0.2-0.3-0.3-0.5-0.5-0.7c2-0.8,3.2-1.8,3.6-3
		h-3.4v-0.7h3.6c0.1-0.6,0.2-1.2,0.2-2h-2.1c-0.3,0.4-0.7,0.9-1.2,1.4c-0.2-0.2-0.4-0.4-0.5-0.5c1-0.9,1.7-1.9,2.1-3.1l0.7,0.2
		c-0.2,0.5-0.5,1-0.7,1.4h4.8v0.7h-2.4c0,0.8-0.1,1.4-0.2,2h3.1v0.7h-3.3c0,0,0,0.1,0,0.1c1.2,0.8,2.3,1.5,3.2,2.2L843,200.9z
		 M838.4,201.5h10.1v6.8h-0.8v-0.7h-8.4v0.7h-0.8V201.5z M839.3,202.2v1.9h8.4v-1.9H839.3z M839.3,204.9v1.9h8.4v-1.9H839.3z
		 M844.5,194.4h5.6v5.6h-5.6V194.4z M845.3,195.2v4.1h4v-4.1H845.3z"/>
	<path class="st7" d="M859.3,198.3c-0.1-0.1-0.3-0.3-0.5-0.6c-0.1-0.2-0.2-0.3-0.3-0.3c-1.7,0.1-3.4,0.2-5.1,0.3
		c-0.4,0-0.8,0.1-1.1,0.2l-0.4-0.8c0.3-0.2,0.6-0.4,1-0.8c0.9-1,1.8-2,2.6-3.2l0.8,0.4c-1,1.3-2,2.4-3,3.5c1.1,0,2.6-0.1,4.7-0.2
		c-0.5-0.5-0.9-1-1.4-1.5l0.6-0.5c0.9,0.9,1.9,1.9,2.9,3.1L859.3,198.3z M853.6,208.1h-0.8v-8.9h5.9v7.3c0,1-0.4,1.5-1.5,1.5
		c-0.5,0-1,0-1.5,0c0-0.3-0.1-0.6-0.2-0.8c0.4,0,0.9,0,1.4,0c0.6,0,0.9-0.2,0.8-0.7v-1.7h-4.3V208.1z M853.6,199.9v1.7h4.3v-1.7
		H853.6z M853.6,202.3v1.7h4.3v-1.7H853.6z M860.7,200.9h0.8v2.7c1.7-0.6,3.3-1.4,4.7-2.2l0.5,0.8c-1.8,0.9-3.5,1.7-5.2,2.3v1.5
		c0,0.8,0.4,1.2,1.2,1.1h1.8c0.8,0,1.3-0.3,1.4-0.9c0.1-0.4,0.2-1,0.2-1.7c0.3,0.1,0.6,0.2,0.8,0.3c-0.1,0.7-0.1,1.2-0.2,1.6
		c-0.2,1-0.9,1.5-2,1.5h-2.1c-1.3,0-1.9-0.6-1.8-1.8V200.9z M860.7,193.2h0.8v3c1.6-0.6,3.1-1.3,4.4-2.1l0.5,0.7
		c-1.6,0.8-3.3,1.6-4.9,2.2v1c0,0.8,0.4,1.1,1.2,1.1h1.8c0.8,0,1.2-0.3,1.3-0.9c0.1-0.5,0.2-1,0.2-1.7c0.3,0.1,0.5,0.2,0.8,0.3
		c-0.1,0.7-0.2,1.2-0.3,1.6c-0.2,1-0.9,1.5-2,1.5h-2c-1.3,0-1.9-0.5-1.9-1.7V193.2z"/>
	<path class="st7" d="M882.4,199.7c-3-1.4-5.3-3.2-6.9-5.2c-1.6,2-3.9,3.8-7,5.4c-0.1-0.2-0.3-0.5-0.5-0.8c3.3-1.6,5.8-3.6,7.5-6
		l1,0.2c-0.1,0.1-0.1,0.2-0.2,0.3c-0.1,0.1-0.1,0.2-0.2,0.2c1.7,2.2,4,3.9,6.9,5C882.7,199.1,882.5,199.4,882.4,199.7z M870.1,201.6
		h10.5v6.6h-0.9v-1H871v1h-0.9V201.6z M871,202.4v4h8.8v-4H871z M871,198.6h8.8v0.8H871V198.6z"/>
	<path class="st7" d="M884,207l-0.2-0.8c2-0.3,4-0.5,6.1-0.9c0,0.2,0,0.5,0,0.9C888.3,206.4,886.3,206.7,884,207z M885.6,202.6
		c1.6-0.2,2.8-0.3,3.7-0.4c0,0.2-0.1,0.5-0.1,0.8c-2.2,0.2-3.8,0.4-4.6,0.5l-0.4-0.8c0.3-0.2,0.7-0.6,1.1-1.1c0.4-0.5,1-1.3,1.7-2.3
		c-1.4,0-2.4,0.1-3,0.2l-0.3-0.8c0.3-0.2,0.6-0.6,1-1.1c1-1.5,1.8-2.9,2.4-4.3l0.9,0.3c-1,1.8-2.1,3.5-3.2,5.1c0.1,0,0.4,0,0.8,0
		c0.9,0,1.5-0.1,1.8-0.1c0.4-0.6,0.8-1.3,1.3-2.1l0.9,0.4C888.4,198.9,887,200.8,885.6,202.6z M890.4,199.5
		c-0.3-0.2-0.6-0.3-0.8-0.5c1.3-1.7,2.3-3.6,3.1-5.9l0.9,0.2c-0.3,0.8-0.6,1.5-1,2.2h5.8c-0.1,3-0.2,6.2-0.3,9.5
		c0,1.8-0.9,2.6-2.8,2.6c-0.4,0-0.8,0-1.2,0c-0.2,0-0.4,0-0.6,0c-0.2,0-0.5,0-0.8,0c0-0.3-0.1-0.6-0.2-0.9c0.6,0,1.6,0,2.9,0
		c1.3,0.1,2-0.6,2-1.9c0.1-2.9,0.2-5.7,0.3-8.5h-5.3C891.6,197.7,891,198.7,890.4,199.5z M891.7,199.9l0.7-0.4
		c1.1,1.4,1.9,2.5,2.5,3.4l-0.8,0.5C893.3,202.3,892.5,201.1,891.7,199.9z"/>
</g>
<g class="st5">
	<path class="st7" d="M771,228.4c-0.1-0.3-0.2-0.5-0.3-0.8c0-0.1-0.1-0.2-0.1-0.2c1.3-2.2,2.3-4.6,3-7.2l0.8,0.2
		c-0.4,1.3-0.8,2.5-1.3,3.7v11.1h-0.8v-9.3C771.9,226.9,771.5,227.7,771,228.4z M777.2,223.5h0.8v3.2c0,2.3-0.2,3.9-0.5,4.9l0.4-0.4
		c1.5,1.3,2.6,2.2,3.3,2.8l-0.6,0.6c-0.9-0.8-1.9-1.7-3.1-2.8c-0.4,1.1-1.4,2.2-3,3.4c-0.2-0.3-0.4-0.5-0.6-0.7c1.5-1,2.5-2,2.8-3
		c0.4-0.9,0.6-2.5,0.6-4.8V223.5z M774.9,221.1h5.5v9.6h-0.8v-8.8h-4v8.8h-0.8V221.1z M784.4,220.2h0.8v12.9c0,1.2-0.5,1.8-1.5,1.9
		c-0.2,0-0.5,0-0.7,0c-0.1,0-0.2,0-0.4,0c-0.1,0-0.3,0-0.5,0c0-0.4-0.1-0.6-0.2-0.9c0.4,0,0.9,0,1.4,0c0.4,0,0.8-0.1,0.9-0.3
		c0.2-0.2,0.2-0.5,0.2-1V220.2z M782.7,231.5H782v-10h0.8V231.5z"/>
	<path class="st7" d="M786.6,225.4c0.9-1.4,1.7-3.2,2.2-5.2l0.8,0.2c-0.3,1-0.5,1.7-0.8,2.3h2.7v0.8h-3c-0.3,0.7-0.7,1.6-1.3,2.5
		C787.1,225.8,786.9,225.6,786.6,225.4z M786.8,228.5h2v-2.3h-1v-0.8h3.3v0.8h-1.5v2.3h2v0.8h-2v3.8l1.8-1.8l0.2,0.9
		c-0.8,0.7-1.4,1.3-2,1.9c-0.2,0.2-0.4,0.4-0.6,0.7l-0.6-0.7c0.2-0.2,0.3-0.4,0.3-0.6c0.1-0.2,0.1-0.5,0.1-0.8v-3.4h-2V228.5z
		 M797.4,233.9c0.7,0,1.5,0,2.2,0c0.7,0,1.5,0,2.3,0c-0.1,0.3-0.2,0.6-0.3,0.9c-1.1,0-2.6,0-4.3-0.1c-1.7,0-2.9-0.6-3.8-1.8
		c-0.5,0.6-1.1,1.3-1.6,2.1l-0.7-0.6c0.4-0.5,0.9-1.2,1.7-2c0.1-0.1,0.2-0.2,0.2-0.3v-5.6h-1.2v-0.8h2v6.3
		C794.7,233.4,795.8,234,797.4,233.9z M793.4,223.8c-0.3-0.9-0.6-1.9-1.1-3.1l0.7-0.2c0.5,1.3,0.9,2.3,1.2,3.1L793.4,223.8z
		 M794.9,230.1h3.4v-2.3h-2.9v-0.9c0.5-1.1,0.9-2.3,1.4-3.8h-1.6v-0.8h1.8c0.2-0.7,0.4-1.5,0.6-2.2l0.8,0.2c-0.2,0.8-0.4,1.5-0.6,2
		h3.7v0.8h-4c-0.5,1.4-0.9,2.7-1.4,3.9h2.2v-2.8h0.8v2.8h2.2v0.8h-2.2v2.3h2.6v0.8h-2.6v2.5h-0.8v-2.5h-3.4V230.1z"/>
	<path class="st7" d="M803,230.9c-0.1-0.3-0.2-0.6-0.4-0.9c1.2-1.6,2-3.6,2.6-6H803v-0.7h2.3v-3.1h0.8v3.1h2.2v0.7h-2.2v2.6l0.5-0.5
		c1,0.9,1.6,1.5,2,1.9l-0.6,0.6c-0.5-0.5-1.2-1.2-1.9-1.9v8.4h-0.8v-9.5C804.7,227.9,804,229.6,803,230.9z M810.6,222v4.4
		c0,2.4-0.2,4.1-0.6,5.2c-0.3,1.1-1.1,2.3-2.3,3.5c-0.3-0.3-0.5-0.5-0.7-0.6c1.2-1.2,2-2.2,2.3-3.2c0.3-0.9,0.5-2.6,0.5-4.9v-5.2
		h5.3V233c0,0.6,0.2,0.9,0.7,0.9h0.3c0.5,0,0.9-0.3,0.9-1c0.1-0.5,0.1-1.3,0.2-2.5c0.3,0.1,0.5,0.2,0.8,0.3
		c-0.1,1.1-0.2,1.9-0.2,2.4c-0.1,1.1-0.7,1.6-1.6,1.5h-0.6c-0.9,0-1.4-0.5-1.4-1.6V222H810.6z"/>
	<path class="st7" d="M818.8,225.9h4.5v-2.4h-2.6c-0.3,0.6-0.5,1.1-0.9,1.7c-0.2-0.1-0.4-0.3-0.7-0.4c0.8-1.2,1.3-2.5,1.6-3.9
		l0.8,0.2c0,0,0,0.1,0,0.1c-0.2,0.7-0.4,1.2-0.5,1.5h2.3v-2.4h0.8v2.4h3.4v0.8h-3.4v2.4h4.1v0.8h-4.1v2.1h3.4v3.6
		c0,1-0.4,1.5-1.4,1.5c-0.1,0-0.3,0-0.5,0c-0.1,0-0.2,0-0.3,0c-0.1,0-0.2,0-0.4,0c0-0.3-0.1-0.5-0.2-0.8c0.4,0,0.7,0,1.1,0
		c0.3,0,0.5,0,0.6-0.2c0.1-0.1,0.2-0.3,0.2-0.6v-2.8h-2.6v5.8h-0.8v-5.8h-2.5v4.6h-0.8v-5.4h3.3v-2.1h-4.5V225.9z M832.2,220.3h0.8
		V233c0,1.3-0.5,1.9-1.7,1.9c-0.3,0-0.6,0-0.9,0c-0.1,0-0.3,0-0.4,0c-0.1,0-0.3,0-0.6,0c0-0.3-0.1-0.6-0.2-0.9
		c0.6,0,1.3,0.1,1.9,0.1c0.4,0,0.7-0.1,0.9-0.2c0.2-0.2,0.2-0.5,0.2-0.9V220.3z M830,231.1h-0.8v-9.3h0.8V231.1z"/>
</g>
<ellipse id="椭圆_11-3" class="st8" cx="806" cy="96" rx="22.5" ry="4.5"/>
<path id="矩形_46-3" class="st9" d="M753.5,97.5l54,19v18l-54-19V97.5z"/>
<path id="矩形_46_拷贝-3" class="st9" d="M853.5,98.5l-47,18v18l47-18V98.5z"/>
<polygon id="XMLID_1_" class="st10" points="298.9,44.4 303.1,44.4 303.1,38.2 313.8,38.2 313.8,73 303.1,73 303.1,63.2 310.3,63.2 
	310.3,48.2 281,48.2 281,63.2 287.9,63.2 287.9,73 277.2,73 277.2,38.2 287.9,38.2 287.9,44.4 292.4,44.4 292.4,33.5 272.7,33.5 
	272.7,77.5 292.4,77.5 292.4,58.7 285.5,58.7 285.5,52.7 305.6,52.7 305.6,58.7 298.9,58.7 298.9,77.5 318.3,77.5 318.3,33.5 
	298.9,33.5 "/>
<polygon id="XMLID_3_" class="st10" points="809.9,41.4 814.1,41.4 814.1,35.2 824.8,35.2 824.8,70 814.1,70 814.1,60.2 821.3,60.2 
	821.3,45.2 792,45.2 792,60.2 798.9,60.2 798.9,70 788.2,70 788.2,35.2 798.9,35.2 798.9,41.4 803.4,41.4 803.4,30.5 783.7,30.5 
	783.7,74.5 803.4,74.5 803.4,55.7 796.5,55.7 796.5,49.7 816.6,49.7 816.6,55.7 809.9,55.7 809.9,74.5 829.3,74.5 829.3,30.5 
	809.9,30.5 "/>
<polygon id="XMLID_2_" class="st11" points="549.9,44.4 554.1,44.4 554.1,38.2 564.8,38.2 564.8,73 554.1,73 554.1,63.2 561.3,63.2 
	561.3,48.2 532,48.2 532,63.2 538.9,63.2 538.9,73 528.2,73 528.2,38.2 538.9,38.2 538.9,44.4 543.4,44.4 543.4,33.5 523.7,33.5 
	523.7,77.5 543.4,77.5 543.4,58.7 536.5,58.7 536.5,52.7 556.6,52.7 556.6,58.7 549.9,58.7 549.9,77.5 569.3,77.5 569.3,33.5 
	549.9,33.5 "/>
</svg>
