<?xml version="1.0" encoding="utf-8"?>
<!-- Generator: Adobe Illustrator 22.1.0, SVG Export Plug-In . SVG Version: 6.00 Build 0)  -->
<svg version="1.1" id="图层_1" xmlns="http://www.w3.org/2000/svg" xmlns:xlink="http://www.w3.org/1999/xlink" x="0px" y="0px"
	 viewBox="0 0 370 370" style="enable-background:new 0 0 370 370;" xml:space="preserve">
<style type="text/css">
	.st0{fill:#04A69E;}
	.st1{fill:#3AAFBA;}
	.st2{fill:#FFFFFF;stroke:#FFFFFF;stroke-width:0.2;stroke-miterlimit:10;}
	.st3{fill:#FFFFFF;}
	.st4{fill:#FFFFFF;stroke:#FFFFFF;stroke-width:0.1;stroke-miterlimit:10;}
	.st5{fill:#CCCCCC;}
	.st6{fill:none;}
	.st7{fill:#FFFFFF;stroke:#FFFFFF;stroke-width:0.5;stroke-miterlimit:10;}
</style>
<g>
	<path class="st0" d="M102.3,98l-1.2-0.6c0.9-1.9,11.2-9.7,13.2-11.3l0.8,1.1C110.4,90.7,102.8,96.7,102.3,98z"/>
</g>
<g>
	<path class="st0" d="M66.7,307l-21.4-22.7l1-0.9L66.8,305l43.7-43.1l0.5,0.5c0.2,0.2,17.5,18.2,52.1,21.3L163,285
		c-31.9-2.9-49.4-18.3-52.5-21.3L66.7,307z"/>
</g>
<g>
	<path class="st0" d="M137.9,300c-1.3-0.4-31.1-11-42.2-22.7l1-0.9c10.8,11.4,41.3,22.3,41.6,22.4L137.9,300z"/>
</g>
<g>
	<path class="st0" d="M190.1,314.9h-0.7v-34.8h1.4v33.5c3.1-0.1,16.4-0.6,29-4.5l0.4,1.3C205.7,314.9,190.3,314.9,190.1,314.9z"/>
</g>
<g>
	<path class="st0" d="M200.9,354.4V353c35.6-0.2,61.2-9.9,76.4-18c14.3-7.6,22.3-15.3,24.2-17.2l-56.8-58.7l1-0.9l57.7,59.6
		l-0.4,0.5c-0.1,0.1-8.3,9.1-24.9,17.9C262.6,344.4,236.8,354.2,200.9,354.4z"/>
</g>
<g>
	<polygon class="st0" points="313.4,307.1 253.3,249.4 254.2,248.4 313.3,305.2 327.4,289.6 328.4,290.5 	"/>
</g>
<g>
	
		<rect x="276.8" y="267.1" transform="matrix(0.6243 -0.7812 0.7812 0.6243 -102.3505 322.8028)" class="st0" width="15.3" height="1.4"/>
</g>
<g>
	<polygon class="st0" points="348.8,191 347.4,191 347.4,182.9 274.3,182.9 274.3,181.6 348.8,181.6 	"/>
</g>
<g>
	
		<rect x="326" y="171.7" transform="matrix(0.9982 -6.071463e-02 6.071463e-02 0.9982 -10.1443 20.1631)" class="st0" width="1.4" height="10.6"/>
</g>
<g>
	<path class="st0" d="M246.8,119.1l-1-1l56.4-55.6l0.5,0.5c1.5,1.5,14.4,14.8,15.3,16.8l-1.2,0.5c-0.6-1.3-9-10.3-14.6-16
		L246.8,119.1z"/>
</g>
<g>
	<path class="st1" d="M277.2,110.5c-4.6-5.3-9.9-11.1-10.7-11.4l0.2-0.9c1.2,0.2,8.3,8.2,11.3,11.7L277.2,110.5z"/>
</g>
<g>
	<polygon class="st0" points="217.8,104.7 216.5,104.2 252.1,25.2 263,31 262.3,32.2 252.7,27.1 	"/>
</g>
<g>
	<path class="st0" d="M152.2,98.8l-0.5-1.3c0.1-0.1,13.2-5.3,26.2-4.2l1.7-79.2h0.7c0.6,0,14.8-0.2,20.1,0.8l-0.2,1.3
		c-4.5-0.8-16.3-0.8-19.2-0.7l-1.7,79.3l-0.7-0.1C165.6,93.4,152.3,98.7,152.2,98.8z"/>
</g>
<g>
	<path class="st0" d="M152.1,40.7l-0.4-1.3c0.8-0.3,18.6-6.1,28.3-3.8l-0.3,1.3C170.4,34.7,152.3,40.7,152.1,40.7z"/>
</g>
<g>
	<path class="st0" d="M121.7,118.3L61.1,59c-5.6,5-11.3,10.7-11.5,11.9c0,0,0,0,0-0.1L48.3,71c-0.1-0.5-0.2-1.4,6.2-7.6
		c3.1-3,6.2-5.8,6.2-5.8l0.5-0.4l61.5,60.1L121.7,118.3z"/>
</g>
<g>
	<path class="st0" d="M96.5,194.2H6.7v-0.6c0-0.9-1-22.7,0-28.2l1.3,0.3c-0.9,4.8-0.2,23.5,0,27.2h88.5V194.2z"/>
</g>
<g>
	<path class="st0" d="M57.4,193.7c-0.7-2.3,0.4-17.4,0.5-19.1l1.4,0.1c-0.5,6.7-1,17.1-0.6,18.6L57.4,193.7z"/>
</g>
<g>
	<path class="st0" d="M278.1,181.2c-5.1-31.2-19.6-50.4-30.8-61.1c-12.2-11.6-23.3-15.9-23.4-15.9l0.5-1.3c0.1,0,11.4,4.4,23.8,16.1
		c11.4,10.8,26.1,30.4,31.3,61.9L278.1,181.2z"/>
</g>
<g>
	<circle class="st0" cx="6.9" cy="162.1" r="6.7"/>
</g>
<g>
	<circle class="st0" cx="60.2" cy="160.1" r="15.4"/>
</g>
<g>
	<circle class="st0" cx="34.4" cy="268.1" r="20.9"/>
</g>
<g>
	<circle class="st0" cx="183.3" cy="350.9" r="19.1"/>
</g>
<g>
	<circle class="st0" cx="333.5" cy="281.2" r="13.2"/>
</g>
<g>
	<circle class="st0" cx="295.1" cy="250.6" r="13.7"/>
</g>
<g>
	<circle class="st0" cx="325.9" cy="169.5" r="3"/>
</g>
<g>
	<circle class="st0" cx="280.1" cy="113.6" r="4.3"/>
</g>
<g>
	<circle class="st0" cx="117.9" cy="84.8" r="4.3"/>
</g>
<g>
	<circle class="st0" cx="238.1" cy="301.3" r="21.2"/>
</g>
<g>
	<circle class="st0" cx="348.1" cy="211" r="21.7"/>
</g>
<g>
	<circle class="st0" cx="336.1" cy="86.7" r="22.9"/>
</g>
<g>
	<circle class="st0" cx="216.5" cy="18.2" r="18.2"/>
</g>
<g>
	<circle class="st0" cx="38" cy="84.9" r="20"/>
</g>
<g>
	<circle class="st0" cx="137.3" cy="45.3" r="15.5"/>
</g>
<g>
	<circle class="st0" cx="274.7" cy="38.3" r="16"/>
</g>
<g>
	<g>
		<path class="st0" d="M173.5,229.2h22.6v-83.4h-22.6V229.2z M194,219h-17.8v-2.6H194V219z M194,214.6h-17.8V212H194V214.6z
			 M194,210.2h-17.8v-2.6H194V210.2z M194,205.8h-17.8v-2.6H194V205.8z M176,154.8h17.8v2.6H176V154.8z M176,159.2h17.8v2.6H176
			V159.2z M176,163.6h17.8v2.6H176V163.6z M176,168h17.8v2.6H176V168z M176,172.4h17.8v2.6H176V172.4z M176,176.8h17.8v2.6H176
			V176.8z M176,181.2h0.1h17.7h0.1v2.6h-0.1h-17.7H176V181.2z M176,185.6h0.1h17.7h0.1v2.6h-0.1h-17.7H176V185.6z M176,190h0.1h17.7
			h0.1v2.6h-0.1h-17.7H176V190z M176,194.3h0.1h17.7h0.1v2.6h-0.1h-17.7H176V194.3z M176,198.7h0.1h17.7h0.1v2.6h-0.1h-17.7H176
			V198.7z"/>
	</g>
	<g>
		<g>
			<polygon class="st0" points="153.9,224.7 145.9,224.7 145.9,222.6 153.9,222.6 153.9,221.3 145.9,221.3 145.9,219.2 153.9,219.2 
				153.9,217.9 145.9,217.9 145.9,215.8 153.9,215.8 153.9,214.5 145.9,214.5 145.9,212.4 153.9,212.4 153.9,211 145.9,211 
				145.9,209 153.9,209 153.9,207.6 145.9,207.6 145.9,205.6 153.9,205.6 153.9,204.2 145.9,204.2 145.9,202.2 153.9,202.2 
				153.9,200.8 145.9,200.8 145.9,198.8 153.9,198.8 153.9,197.4 145.9,197.4 145.9,195.4 153.9,195.4 153.9,194 145.9,194 
				145.9,192 153.9,192 153.9,190.6 145.9,190.6 145.9,188.6 153.9,188.6 153.9,187.2 145.9,187.2 145.9,185.2 153.9,185.2 
				153.9,176.6 142.4,176.6 142.4,229.2 153.9,229.2 			"/>
		</g>
		<g>
			<rect x="153.9" y="176.6" class="st0" width="2.3" height="52.7"/>
		</g>
	</g>
	<g>
		<g>
			<polygon class="st0" points="156.3,229.2 171.1,229.2 171.1,218.1 160.8,218.1 160.8,215.5 171.1,215.5 171.1,213.7 160.8,213.7 
				160.8,211.1 171.1,211.1 171.1,209.3 160.8,209.3 160.8,206.7 171.1,206.7 171.1,204.9 160.8,204.9 160.8,202.3 171.1,202.3 
				171.1,200.5 160.8,200.5 160.8,197.9 171.1,197.9 171.1,197.4 169.4,197.4 169.4,196.1 160.8,196.1 160.8,193.5 169.4,193.5 
				169.4,191.7 160.8,191.7 160.8,189.1 171.1,189.1 171.1,187.3 160.8,187.3 160.8,184.7 171.1,184.7 171.1,182.9 160.8,182.9 
				160.8,180.3 171.1,180.3 171.1,178.5 160.8,178.5 160.8,175.9 171.1,175.9 171.1,174.1 160.8,174.1 160.8,171.5 171.1,171.5 
				171.1,169.7 160.8,169.7 160.8,167.1 171.1,167.1 171.1,161.2 156.3,161.2 			"/>
		</g>
		<g>
			<rect x="169.4" y="191.7" class="st0" width="1.8" height="1.8"/>
		</g>
		<g>
			<rect x="169.4" y="196.1" class="st0" width="1.8" height="1.3"/>
		</g>
		<g>
			<rect x="171.1" y="161.2" class="st0" width="2.3" height="68"/>
		</g>
	</g>
	<g>
		<g>
			<polygon class="st0" points="198.5,167.1 208.8,167.1 208.8,169.7 198.5,169.7 198.5,171.5 208.8,171.5 208.8,174.1 198.5,174.1 
				198.5,175.9 208.8,175.9 208.8,178.5 198.5,178.5 198.5,180.3 208.8,180.3 208.8,182.9 198.5,182.9 198.5,184.7 208.8,184.7 
				208.8,187.3 198.5,187.3 198.5,189.1 208.8,189.1 208.8,191.7 198.5,191.7 198.5,193.5 208.8,193.5 208.8,196.1 198.5,196.1 
				198.5,197.9 208.8,197.9 208.8,200.5 198.5,200.5 198.5,202.3 208.8,202.3 208.8,204.9 198.5,204.9 198.5,206.7 208.8,206.7 
				208.8,209.3 198.5,209.3 198.5,211.1 208.8,211.1 208.8,213.7 198.5,213.7 198.5,215.5 208.8,215.5 208.8,218.1 198.5,218.1 
				198.5,229.2 213.3,229.2 213.3,161.2 198.5,161.2 			"/>
		</g>
		<g>
			<rect x="196.1" y="161.2" class="st0" width="2.3" height="68"/>
		</g>
	</g>
	<g>
		<g>
			<polygon class="st0" points="227.2,176.6 215.7,176.6 215.7,185.2 223.7,185.2 223.7,187.2 215.7,187.2 215.7,188.6 223.7,188.6 
				223.7,190.6 215.7,190.6 215.7,192 223.7,192 223.7,194 215.7,194 215.7,195.4 223.7,195.4 223.7,197.4 215.7,197.4 215.7,198.8 
				223.7,198.8 223.7,200.8 215.7,200.8 215.7,202.2 223.7,202.2 223.7,204.2 215.7,204.2 215.7,205.6 223.7,205.6 223.7,207.6 
				215.7,207.6 215.7,209 223.7,209 223.7,211.1 215.7,211.1 215.7,212.4 223.7,212.4 223.7,214.5 215.7,214.5 215.7,215.8 
				223.7,215.8 223.7,217.9 215.7,217.9 215.7,219.2 223.7,219.2 223.7,221.3 215.7,221.3 215.7,222.6 223.7,222.6 223.7,224.7 
				215.7,224.7 215.7,229.2 227.2,229.2 			"/>
		</g>
		<g>
			<rect x="213.3" y="176.6" class="st0" width="2.3" height="52.7"/>
		</g>
	</g>
	<g>
		<g>
			<polygon class="st0" points="227.2,229.2 142.9,229.2 138.3,234.2 231.8,234.2 			"/>
		</g>
	</g>
</g>
<g>
	<g>
		<path class="st2" d="M43.8,272.4c0.5,0,0.9-0.4,0.9-0.9v-10.2c0-0.5-0.4-0.9-0.9-0.9H25c-0.5,0-0.9,0.4-0.9,0.9v10.2
			c0,0.5,0.4,0.9,0.9,0.9H43.8z M43.8,274.1H25c-1.4,0-2.6-1.1-2.6-2.6v-10.2c0-1.4,1.1-2.6,2.6-2.6h18.8c1.4,0,2.6,1.1,2.6,2.6
			v10.2C46.3,272.9,45.2,274.1,43.8,274.1z M28.4,277.5c-0.5,0-0.9-0.4-0.9-0.9s0.4-0.9,0.9-0.9h12c0.5,0,0.9,0.4,0.9,0.9
			s-0.4,0.9-0.9,0.9H28.4z"/>
	</g>
	<g>
		<path class="st2" d="M24.1,269.8c-0.5,0-0.9-0.4-0.9-0.9s0.4-0.9,0.9-0.9h20.5c0.5,0,0.9,0.4,0.9,0.9s-0.4,0.9-0.9,0.9H24.1z
			 M31,273.2c0-0.5,0.4-0.9,0.9-0.9c0.5,0,0.9,0.4,0.9,0.9v3.4c0,0.5-0.4,0.9-0.9,0.9s-0.9-0.4-0.9-0.9V273.2z M36.1,273.2
			c0-0.5,0.4-0.9,0.9-0.9s0.9,0.4,0.9,0.9v3.4c0,0.5-0.4,0.9-0.9,0.9s-0.9-0.4-0.9-0.9V273.2z"/>
	</g>
</g>
<g>
	<g>
		<path class="st3" d="M33.2,90.9v-2.3c1.4-0.3,2.1-1.2,2.1-2.7v-1.2h-1.9v-2.2h1.9v-2c0-1.3,0.4-2.4,1.3-3.3c0.9-0.8,2-1.2,3.4-1.2
			c0.8,0,1.6,0.2,2.4,0.5v2.6c-0.7-0.4-1.4-0.7-2.2-0.7c-1.4,0-2.1,0.8-2.1,2.4v1.7H41v2.2h-2.9v0.9c0,1.2-0.5,2.2-1.5,2.9h6.7v2.4
			C43.3,90.9,33.2,90.9,33.2,90.9z"/>
	</g>
</g>
<g>
	<path class="st4" d="M339.9,215.1h16.4v-11.4h-16.4V215.1L339.9,215.1z M357.2,201.8c0.5,0,0.9,0.4,0.9,0.9V216
		c0,0.5-0.4,0.9-0.9,0.9H349v0.1l4.6,3.1c0.4,0.3,0.5,0.8,0.3,1.3c-0.2,0.3-0.5,0.4-0.8,0.4c-0.2,0-0.3-0.1-0.5-0.1l-3.7-2.4v1
		c0,0.5-0.4,0.9-0.9,0.9s-0.9-0.4-0.9-0.9v-1l-3.7,2.4c-0.1,0.1-0.3,0.1-0.5,0.1c-0.3,0-0.6-0.1-0.8-0.4c-0.3-0.4-0.1-1,0.3-1.3
		l4.6-3.1v-0.1h-8c-0.5,0-0.9-0.4-0.9-0.9v-13.2c0-0.5,0.4-0.9,0.9-0.9h8.2v-0.8c0-0.5,0.4-0.9,0.9-0.9s0.9,0.4,0.9,0.9v0.8
		L357.2,201.8L357.2,201.8z M345.3,207.1c0.3-0.3,0.8-0.3,1.1-0.1l3.7,2.6l3.3-2.7c0.4-0.3,0.9-0.3,1.3,0.1c0.3,0.4,0.3,1-0.1,1.3
		l-3.8,3.1c-0.3,0.3-0.7,0.3-1.1,0L346,209l-3.1,2.8c-0.2,0.1-0.4,0.2-0.6,0.2c-0.3,0-0.5-0.1-0.7-0.3c-0.3-0.4-0.3-1,0.1-1.3
		L345.3,207.1L345.3,207.1z"/>
</g>
<g>
	<path class="st3" d="M220,23.5c-0.7,0.5-1.6,0.9-2.6,1v1.7h-1.8v-1.7c-1.1-0.1-1.9-0.5-2.6-1c-0.9-0.7-1.2-1.5-1.3-2.4l2.7-0.7
		c0,0.9,0.9,1.9,2.3,1.9c0.8,0,1.8-0.4,1.8-1.5c0-0.9-0.9-1.5-1.9-1.7s-3.1-0.9-3.7-1.6c-0.6-0.6-0.7-1.5-0.7-2.6
		c0-0.9,0.4-1.8,1-2.4c0.6-0.5,1.4-0.9,2.4-1v-1.4h1.8v1.4c1,0.1,1.8,0.4,2.4,1c0.8,0.7,1.2,1.5,1.2,2l-2.7,0.6c0-0.7-1-1.5-1.7-1.5
		c-0.9,0-1.6,0.2-1.6,1.4c0,0.8,0.6,1.1,1.7,1.4c1.8,0.6,3.1,1.3,3.7,1.9c0.6,0.6,0.9,1.4,0.9,2.4C221.3,22,220.8,22.8,220,23.5z"/>
</g>
<g id="_">
	<path class="st5" d="M155.7,255.6l-1,13.1l0.6,0.2l1-13.1L155.7,255.6z M151.3,253.4l-2,13l0.6,0.3l2.1-13L151.3,253.4z
		 M146.9,250.9l-2.9,12.8l0.6,0.3l2.9-12.8L146.9,250.9z M142.8,248.1l-3.8,12.6l0.6,0.4l3.8-12.6L142.8,248.1z M138.8,245
		l-4.7,12.3l0.5,0.4l4.7-12.3L138.8,245z M135.1,241.7l-5.5,12l0.5,0.4l5.5-11.9L135.1,241.7z M131.6,238.1l-6.3,11.5l0.5,0.5
		l6.4-11.5L131.6,238.1z M128.4,234.3l-7.1,11.1l0.4,0.5l7.1-11.1L128.4,234.3z M125.4,230.3l-7.9,10.5l0.4,0.5l7.9-10.5
		L125.4,230.3z M122.7,226.1l-8.6,10l0.4,0.6l8.6-10L122.7,226.1z M120.4,221.6l-9.3,9.4l0.3,0.6l9.3-9.3L120.4,221.6z M118.3,217.1
		l-9.9,8.7l0.3,0.6l9.9-8.7L118.3,217.1z M116.5,212.4l-10.5,8l0.2,0.6l10.5-8L116.5,212.4z M115.1,207.6l-11,7.3l0.2,0.6l11-7.2
		L115.1,207.6z M114,202.7l-11.5,6.5l0.1,0.7l11.5-6.5L114,202.7z M113.3,197.8l-11.9,5.7l0.1,0.7l11.9-5.6L113.3,197.8z
		 M112.9,192.8l-12.2,4.8l0.1,0.7l12.3-4.8L112.9,192.8z M112.8,187.8l-12.6,4v0.7l12.6-4V187.8z M113.1,182.8l-12.8,3.1v0.7
		l12.8-3.1V182.8z M113.8,177.8l-13,2.2l-0.1,0.7l13-2.2L113.8,177.8z M114.7,172.9l-13.1,1.3l-0.1,0.7l13.1-1.3L114.7,172.9z
		 M116.1,168.1l-13.2,0.4l-0.2,0.6l13.2-0.3L116.1,168.1z M117.7,163.4l-13.2-0.5l-0.2,0.6l13.1,0.6L117.7,163.4z M119.7,158.8
		l-13.1-1.4l-0.3,0.6l13.1,1.4L119.7,158.8z M122,154.3l-13-2.3l-0.3,0.6l13,2.3L122,154.3z M124.6,150l-12.8-3.2l-0.3,0.6l12.8,3.2
		L124.6,150z M127.4,146l-12.5-4.1l-0.4,0.5l12.5,4.1L127.4,146z M130.6,142.1l-12.2-5l-0.4,0.5l12.2,5L130.6,142.1z M134,138.4
		l-11.8-5.8l-0.5,0.5l11.8,5.8L134,138.4z M137.7,135l-11.4-6.6l-0.5,0.5l11.4,6.6L137.7,135z M141.5,131.9l-10.9-7.4l-0.5,0.4
		l10.9,7.4L141.5,131.9z M145.6,129l-10.4-8.1l-0.5,0.4l10.3,8.1L145.6,129z M149.9,126.4l-9.8-8.8l-0.6,0.3l9.8,8.8L149.9,126.4z
		 M154.4,124.2l-9.2-9.5l-0.6,0.3l9.1,9.5L154.4,124.2z M159,122.2l-8.5-10.1l-0.6,0.3l8.5,10.1L159,122.2z M163.7,120.5l-7.8-10.6
		l-0.6,0.2l7.7,10.6L163.7,120.5z M168.5,119.2l-7-11.1l-0.6,0.2l7,11.1L168.5,119.2z M173.5,118.3l-6.2-11.6l-0.7,0.1l6.2,11.6
		L173.5,118.3z M178.4,117.6l-5.4-12l-0.7,0.1l5.4,12L178.4,117.6z M183.4,117.3l-4.6-12.4h-0.7l4.5,12.4H183.4z M188.4,117.4
		l-3.7-12.6H184l3.7,12.6H188.4z M193.4,117.8l-2.8-12.9l-0.7-0.1l2.8,12.9L193.4,117.8z M198.3,118.5l-1.9-13l-0.7-0.1l1.9,13
		L198.3,118.5z M203.2,119.6l-1-13.1l-0.6-0.1l1,13.1L203.2,119.6z M208,121.1l-0.1-13.2l-0.6-0.2l0.1,13.2L208,121.1z M212.7,122.8
		l0.8-13.1l-0.6-0.2l-0.9,13.1L212.7,122.8z M217.2,124.9l1.7-13.1l-0.6-0.3l-1.7,13.1L217.2,124.9z M221.6,127.3l2.6-12.9l-0.6-0.3
		L221,127L221.6,127.3z M225.9,130l3.5-12.7l-0.6-0.4l-3.5,12.7L225.9,130z M229.9,132.9l4.4-12.4l-0.5-0.4l-4.4,12.4L229.9,132.9z
		 M233.7,136.2l5.2-12.1l-0.5-0.4l-5.2,12.1L233.7,136.2z M237.3,139.7l6.1-11.7l-0.5-0.5l-6.1,11.7L237.3,139.7z M240.6,143.4
		l6.9-11.2l-0.4-0.5l-6.9,11.2L240.6,143.4z M243.7,147.4l7.6-10.7l-0.4-0.5l-7.6,10.7L243.7,147.4z M246.4,151.5l8.3-10.2l-0.4-0.5
		l-8.4,10.2L246.4,151.5z M248.9,155.9l9-9.6l-0.3-0.6l-9,9.6L248.9,155.9z M251.1,160.4l9.7-8.9l-0.3-0.6l-9.7,8.9L251.1,160.4z
		 M252.9,165l10.3-8.3l-0.2-0.6l-10.3,8.2L252.9,165z M254.5,169.8l10.8-7.5l-0.2-0.6l-10.8,7.5L254.5,169.8z M255.7,174.6l11.3-6.8
		l-0.2-0.6l-11.3,6.7L255.7,174.6z M256.6,179.6l11.7-6l-0.1-0.7l-11.7,6L256.6,179.6z M257.1,184.5l12.1-5.1l-0.1-0.7l-12.1,5.1
		L257.1,184.5z M257.3,189.5l12.5-4.3v-0.7l-12.5,4.3V189.5z M257.1,194.5l12.7-3.4v-0.7l-12.7,3.4V194.5z M256.6,199.5l12.9-2.5
		l0.1-0.7l-12.9,2.5L256.6,199.5z M255.7,204.4l13.1-1.6l0.1-0.7l-13.1,1.6L255.7,204.4z M254.5,209.3l13.2-0.7l0.2-0.6l-13.2,0.7
		L254.5,209.3z M253,214l13.2,0.2l0.2-0.6l-13.2-0.2L253,214z M251.1,218.7l13.1,0.9l0.2-0.6l-13.1-1L251.1,218.7z M248.9,223.2
		l13,2l0.3-0.6l-13-2L248.9,223.2z M246.4,227.5l12.8,2.9l0.3-0.6l-12.8-2.9L246.4,227.5z M243.7,231.7l12.6,3.8l0.4-0.6l-12.6-3.8
		L243.7,231.7z M240.6,235.7l12.3,4.7l0.4-0.5l-12.3-4.7L240.6,235.7z M237.3,239.4l12,5.5l0.4-0.5l-11.9-5.5L237.3,239.4z
		 M233.7,242.9l11.6,6.3l0.5-0.5l-11.5-6.4L233.7,242.9z M229.9,246.1l11.1,7.1l0.5-0.4l-11.1-7.1L229.9,246.1z M225.9,249.1
		l10.6,7.9l0.5-0.4l-10.5-7.9L225.9,249.1z M221.6,251.8l10,8.6l0.6-0.3l-10-8.6L221.6,251.8z M217.3,254.2l9.4,9.2l0.6-0.3
		l-9.4-9.3L217.3,254.2z M212.7,256.2l8.7,9.9l0.6-0.3l-8.7-9.9L212.7,256.2z M208,258l8,10.4l0.6-0.2l-8-10.5L208,258z
		 M203.2,259.4l7.3,11l0.6-0.2l-7.3-11L203.2,259.4z M198.3,260.5l6.5,11.4l0.6-0.1l-6.5-11.5L198.3,260.5z M193.4,261.3l5.7,11.9
		l0.7-0.1l-5.7-11.9L193.4,261.3z M188.4,261.7l4.9,12.2l0.7-0.1l-4.8-12.2L188.4,261.7z M183.4,261.7l4,12.6h0.7l-4-12.5h-0.7
		V261.7z M178.4,261.5l3.1,12.8h0.7l-3.1-12.8H178.4z M173.5,260.8l2.2,13l0.7,0.1l-2.2-13L173.5,260.8z M168.5,259.9l1.3,13.1
		l0.7,0.1l-1.3-13.1L168.5,259.9z M163.7,258.5l0.4,13.2l0.6,0.2l-0.4-13.2L163.7,258.5z M159.8,257.4l0.4,13.2l0.6,0.2l-0.4-13.2
		L159.8,257.4z"/>
</g>
<path class="st6" d="M336.9,90.8L336.9,90.8c0.1-1.3,0.6-2.4,1.3-3.4c-0.3-0.2-0.7-0.3-1.1-0.4l-0.7-0.2l-1.3,0.3
	c-2.4,0.6-4.4,2.9-4.7,5.5c0,0.2,0.1,0.6,0.2,0.7h11c0.1-0.1,0.2-0.4,0.2-0.5v-0.1v-0.1l0,0h-3.6C337.3,92.7,336.9,91.4,336.9,90.8z
	"/>
<path class="st6" d="M341.4,91c-0.5-1.3-1.3-2.3-2.3-3c-0.6,0.8-1,1.8-1.1,2.8c0,0.2,0.1,0.5,0.2,0.6h3.3c0-0.1,0-0.1-0.1-0.2V91z"
	/>
<path class="st6" d="M342.7,90.5L342.7,90.5l0.1,0.4c0,0.2,0.1,0.4,0.1,0.6h5c0.1-0.1,0.2-0.4,0.2-0.5v-0.1v-0.1
	c0-0.5-0.1-0.9-0.2-1.3v-0.2c-0.8-1.9-2.2-3.1-3.9-3.5l-0.6-0.1l-1.2,0.3c-0.8,0.2-1.5,0.6-2.1,1.1
	C341.2,87.9,342.1,89.1,342.7,90.5z"/>
<path class="st6" d="M335.1,85.9l0.8,0.3l1-0.5c0.5-0.2,0.9-0.6,1.1-1.1c0.1-0.3,0.2-0.6,0.2-0.8c0-1.3-1-2.3-2.3-2.3
	s-2.2,0.9-2.2,2.3C333.8,84.8,334.3,85.6,335.1,85.9z"/>
<path class="st6" d="M343,81c-1.2,0-1.9,0.8-1.9,2c0,0.8,0.5,1.5,1.2,1.8l0.7,0.3l0.9-0.4c0.4-0.2,0.8-0.5,1-1
	c0.1-0.3,0.2-0.6,0.2-0.7C345,81.9,344.1,81,343,81z"/>
<g>
	<path class="st7" d="M350.8,90c0-0.6-0.1-1-0.2-1.5l-0.1-0.2v-0.1c-0.8-1.8-2.1-3.2-3.6-3.9c0.2-0.2,0.4-0.5,0.5-0.8
		c0.2-0.3,0.3-0.8,0.3-1.2c0-1.8-1.4-3.2-3.2-3.2c-1.8,0-3.1,1.3-3.1,3.2c0,0.8,0.3,1.6,0.8,2.2c-0.6,0.3-1.2,0.7-1.7,1.2
		c0.4,0.2,0.7,0.4,1,0.7c0.6-0.5,1.3-0.9,2.1-1.1l1.2-0.3l0.6,0.1c1.6,0.4,3,1.6,3.9,3.5v0.2c0.1,0.4,0.2,0.8,0.2,1.3v0.1v0.1
		c0,0.1-0.1,0.4-0.2,0.5h-5c0.1,0.3,0.1,0.7,0.1,1.1c0,0,0,0,0,0.1h4.9c0.3,0,0.7-0.2,0.9-0.6C350.7,91,350.9,90.5,350.8,90z
		 M346.3,83c-0.2,0.4-0.5,0.8-1,1l-0.9,0.4l-0.7-0.3c-0.7-0.3-1.2-1-1.2-1.8c0-1.2,0.7-2,1.9-2c1.1,0,2,0.9,2,2
		C346.5,82.5,346.4,82.8,346.3,83z"/>
	<path class="st7" d="M321.8,91.4c0.3,0.4,0.6,0.6,0.9,0.6h4.9c0,0,0,0,0-0.1c0-0.4,0.1-0.8,0.1-1.1h-5c-0.1-0.1-0.2-0.4-0.2-0.5
		v-0.1v-0.1c0-0.5,0.1-0.9,0.2-1.3v-0.2c0.8-1.9,2.2-3.1,3.9-3.5l0.6-0.1l1.2,0.3c0.8,0.2,1.5,0.6,2.1,1.1c0.3-0.3,0.7-0.5,1-0.7
		c-0.5-0.5-1.1-0.9-1.7-1.2c0.5-0.6,0.8-1.3,0.8-2.2c0-1.9-1.3-3.2-3.1-3.2c-1.8,0-3.2,1.4-3.2,3.2c0,0.4,0.2,0.9,0.3,1.2
		c0.1,0.3,0.3,0.5,0.5,0.8c-1.5,0.7-2.8,2-3.6,3.9v0.1l-0.1,0.2c-0.1,0.4-0.2,0.9-0.2,1.5C321.3,90.5,321.5,91,321.8,91.4z
		 M325.7,82.3c0-1.1,0.9-2,2-2c1.2,0,1.9,0.8,1.9,2c0,0.8-0.5,1.5-1.2,1.8l-0.7,0.3l-0.9-0.4c-0.4-0.2-0.8-0.5-1-1
		C325.8,82.8,325.7,82.5,325.7,82.3z"/>
	<path class="st7" d="M343,92.2L343,92.2c0-0.5-0.1-0.9-0.1-1.2c0-0.2-0.1-0.4-0.1-0.6l-0.1-0.3V90c-0.6-1.4-1.5-2.6-2.6-3.5
		c-0.3-0.3-0.7-0.5-1-0.7c-0.1-0.1-0.3-0.2-0.4-0.2c0.2-0.3,0.4-0.5,0.6-0.9s0.4-0.9,0.4-1.4c0-2-1.6-3.7-3.7-3.7s-3.5,1.5-3.5,3.7
		c0,0.9,0.4,1.8,1,2.5c-2.4,1.1-4.1,3.5-4.4,6.3v0.1c0,0.7,0.4,2.1,1.5,2.1h11.2c0.4,0,0.8-0.2,1.1-0.6
		C342.9,93.3,343.1,92.7,343,92.2z M335.9,81.1c1.3,0,2.3,1,2.3,2.3c0,0.2-0.1,0.5-0.2,0.8c-0.2,0.5-0.6,0.9-1.1,1.1l-1,0.5
		l-0.8-0.3c-0.8-0.3-1.3-1.2-1.3-2.1C333.7,82,334.6,81.1,335.9,81.1z M341.5,93h-11c-0.1-0.1-0.2-0.5-0.2-0.7
		c0.3-2.6,2.3-4.9,4.7-5.5l1.3-0.3l0.7,0.2c0.4,0.1,0.7,0.2,1.1,0.4c0.4,0.2,0.7,0.4,1.1,0.6c0.9,0.7,1.7,1.7,2.3,3l0.1,0.2
		c0,0.1,0,0.2,0.1,0.2c0.1,0.4,0.2,0.7,0.2,1.2l0,0v0.1v0.1C341.7,92.6,341.6,92.9,341.5,93z"/>
</g>
<polygon id="XMLID_63_" class="st3" points="239.5,296.5 241.4,296.5 241.4,293.7 246,293.7 246,308.9 241.4,308.9 241.4,304.6 
	244.5,304.6 244.5,298.1 231.8,298.1 231.8,304.6 234.8,304.6 234.8,308.9 230.2,308.9 230.2,293.7 234.8,293.7 234.8,296.5 
	236.7,296.5 236.7,291.7 228.2,291.7 228.2,310.9 236.7,310.9 236.7,302.7 233.8,302.7 233.8,300.1 242.4,300.1 242.4,302.7 
	239.5,302.7 239.5,310.8 248,310.8 248,291.7 239.5,291.7 "/>
</svg>
