<?xml version="1.0" encoding="utf-8"?>
<!-- Generator: Adobe Illustrator 22.1.0, SVG Export Plug-In . SVG Version: 6.00 Build 0)  -->
<svg version="1.1" id="_x38_00X800" xmlns="http://www.w3.org/2000/svg" xmlns:xlink="http://www.w3.org/1999/xlink" x="0px"
	 y="0px" viewBox="0 0 286 314" style="enable-background:new 0 0 286 314;" xml:space="preserve">
<style type="text/css">
	.st0{fill:#00A198;}
	.st1{fill:#04B2A5;}
	.st2{fill:#FFFFFF;}
</style>
<g>
	<path class="st0" d="M148.7,291.7c0-0.4,0.3-0.7,0.7-0.7l0,0c0.4,0,0.7,0.3,0.7,0.7l0,0c0,0.4-0.3,0.7-0.7,0.7l0,0
		C149,292.5,148.7,292.1,148.7,291.7z M151.2,291.7c0-0.4,0.3-0.8,0.7-0.8l0,0c0.4,0,0.7,0.3,0.8,0.7l0,0c0,0.4-0.3,0.8-0.7,0.8l0,0
		c0,0,0,0,0,0l0,0C151.5,292.5,151.2,292.1,151.2,291.7z M146.9,292.5c-0.4,0-0.7-0.3-0.7-0.8l0,0c0-0.4,0.3-0.7,0.8-0.7l0,0
		c0.4,0,0.7,0.3,0.7,0.8l0,0C147.7,292.1,147.4,292.5,146.9,292.5L146.9,292.5C147,292.5,146.9,292.5,146.9,292.5z M153.7,291.7
		c0-0.4,0.3-0.8,0.7-0.8l0,0c0.4,0,0.8,0.3,0.8,0.7l0,0c0,0.4-0.3,0.8-0.7,0.8l0,0c0,0,0,0,0,0l0,0
		C154,292.4,153.7,292.1,153.7,291.7z M144.5,292.4c-0.4,0-0.7-0.4-0.7-0.8l0,0c0-0.4,0.4-0.7,0.8-0.7l0,0l0,0l0,0
		c0.4,0,0.7,0.4,0.7,0.8l0,0C145.2,292.1,144.9,292.4,144.5,292.4L144.5,292.4C144.5,292.4,144.5,292.4,144.5,292.4z M156.2,291.6
		c0-0.4,0.3-0.8,0.7-0.8l0,0c0.4,0,0.8,0.3,0.8,0.7l0,0c0,0.4-0.3,0.8-0.7,0.8l0,0c0,0,0,0,0,0l0,0
		C156.5,292.3,156.2,292,156.2,291.6z M142,292.3c-0.4,0-0.7-0.4-0.7-0.8l0,0c0-0.4,0.4-0.7,0.8-0.7l0,0l0,0l0,0
		c0.4,0,0.7,0.4,0.7,0.8l0,0C142.7,292,142.4,292.3,142,292.3L142,292.3C142,292.3,142,292.3,142,292.3z M158.6,291.4
		c0-0.4,0.3-0.8,0.7-0.8l0,0c0.4,0,0.8,0.3,0.8,0.7l0,0c0,0.4-0.3,0.8-0.7,0.8l0,0c0,0,0,0-0.1,0l0,0
		C159,292.1,158.7,291.8,158.6,291.4z M139.5,292.1c-0.4,0-0.7-0.4-0.7-0.8l0,0c0-0.4,0.4-0.7,0.8-0.7l0,0c0.4,0,0.7,0.4,0.7,0.8
		l0,0C140.2,291.8,139.9,292.1,139.5,292.1L139.5,292.1C139.5,292.1,139.5,292.1,139.5,292.1z M161.1,291.2c0-0.4,0.3-0.8,0.7-0.8
		l0,0l0,0l0,0c0.4,0,0.8,0.3,0.8,0.7l0,0c0,0.4-0.3,0.8-0.7,0.8l0,0c0,0,0,0-0.1,0l0,0C161.5,291.9,161.1,291.6,161.1,291.2z
		 M137,291.9c-0.4,0-0.7-0.4-0.7-0.8l0,0c0-0.4,0.4-0.7,0.8-0.7l0,0l0,0l0,0c0.4,0,0.7,0.4,0.7,0.8l0,0
		C137.8,291.6,137.4,291.9,137,291.9L137,291.9C137,291.9,137,291.9,137,291.9z M163.6,291c0-0.4,0.3-0.8,0.7-0.8l0,0l0,0l0,0
		c0.4,0,0.8,0.2,0.8,0.7l0,0c0,0.4-0.3,0.8-0.7,0.8l0,0c0,0-0.1,0-0.1,0l0,0C164,291.7,163.6,291.4,163.6,291z M134.5,291.6
		L134.5,291.6c-0.4,0-0.7-0.4-0.7-0.8l0,0c0-0.4,0.4-0.7,0.8-0.7l0,0l0,0l0,0c0.4,0,0.7,0.4,0.7,0.8l0,0
		C135.3,291.4,134.9,291.7,134.5,291.6L134.5,291.6C134.5,291.7,134.5,291.7,134.5,291.6z M166.1,290.7c-0.1-0.4,0.2-0.8,0.6-0.8
		l0,0l0,0l0,0c0.4-0.1,0.8,0.2,0.8,0.6l0,0c0,0.4-0.2,0.8-0.6,0.8l0,0c0,0-0.1,0-0.1,0l0,0C166.4,291.4,166.1,291.1,166.1,290.7z
		 M132,291.3L132,291.3c-0.4,0-0.7-0.4-0.6-0.8l0,0c0.1-0.4,0.4-0.7,0.8-0.6l0,0l0,0l0,0c0.4,0,0.7,0.4,0.6,0.8l0,0
		C132.8,291.1,132.5,291.4,132,291.3L132,291.3C132.1,291.4,132,291.4,132,291.3z M168.5,290.4c-0.1-0.4,0.2-0.8,0.6-0.8l0,0
		c0.4-0.1,0.8,0.2,0.8,0.6l0,0c0.1,0.4-0.2,0.8-0.6,0.8l0,0c0,0-0.1,0-0.1,0l0,0C168.9,291.1,168.6,290.8,168.5,290.4z M129.5,291
		c-0.4-0.1-0.7-0.4-0.6-0.8l0,0c0.1-0.4,0.4-0.7,0.8-0.6l0,0c0.4,0.1,0.7,0.4,0.6,0.8l0,0c-0.1,0.4-0.4,0.6-0.7,0.6l0,0
		C129.6,291,129.6,291,129.5,291z M149.4,291C149.4,291,149.4,291,149.4,291L149.4,291C149.4,291,149.4,291,149.4,291z M171,290
		c-0.1-0.4,0.2-0.8,0.6-0.9l0,0l0,0l0,0c0.4-0.1,0.8,0.2,0.9,0.6l0,0c0.1,0.4-0.2,0.8-0.6,0.9l0,0c0,0-0.1,0-0.1,0l0,0
		C171.4,290.7,171,290.4,171,290z M127.1,290.6c-0.4-0.1-0.7-0.5-0.6-0.9l0,0c0.1-0.4,0.5-0.7,0.9-0.6l0,0c0.4,0.1,0.7,0.5,0.6,0.9
		l0,0c-0.1,0.4-0.4,0.6-0.7,0.6l0,0C127.2,290.6,127.1,290.6,127.1,290.6z M173.4,289.6c-0.1-0.4,0.2-0.8,0.6-0.9l0,0
		c0.4-0.1,0.8,0.2,0.9,0.6l0,0c0.1,0.4-0.2,0.8-0.6,0.9l0,0c0,0-0.1,0-0.1,0l0,0C173.8,290.2,173.5,290,173.4,289.6z M124.6,290.2
		c-0.4-0.1-0.7-0.5-0.6-0.9l0,0c0.1-0.4,0.5-0.7,0.9-0.6l0,0c0.4,0.1,0.7,0.5,0.6,0.9l0,0c-0.1,0.4-0.4,0.6-0.7,0.6l0,0
		C124.7,290.2,124.7,290.2,124.6,290.2z M175.9,289.2c-0.1-0.4,0.2-0.8,0.6-0.9l0,0c0.4-0.1,0.8,0.2,0.9,0.6l0,0
		c0.1,0.4-0.2,0.8-0.6,0.9l0,0c0,0-0.1,0-0.1,0l0,0C176.2,289.8,175.9,289.5,175.9,289.2z M122.2,289.7L122.2,289.7
		c-0.4-0.1-0.7-0.5-0.6-0.9l0,0c0.1-0.4,0.5-0.7,0.9-0.6l0,0c0.4,0.1,0.7,0.5,0.6,0.9l0,0c-0.1,0.4-0.4,0.6-0.7,0.6l0,0
		C122.3,289.7,122.2,289.7,122.2,289.7z M178.3,288.7c-0.1-0.4,0.2-0.8,0.6-0.9l0,0c0.4-0.1,0.8,0.2,0.9,0.6l0,0
		c0.1,0.4-0.2,0.8-0.6,0.9l0,0c-0.1,0-0.1,0-0.2,0l0,0C178.7,289.2,178.4,289,178.3,288.7z M119.7,289.2L119.7,289.2
		c-0.4-0.1-0.7-0.5-0.6-0.9l0,0c0.1-0.4,0.5-0.7,0.9-0.6l0,0l0,0l0,0c0.4,0.1,0.7,0.5,0.6,0.9l0,0c-0.1,0.3-0.4,0.6-0.7,0.6l0,0
		C119.8,289.2,119.8,289.2,119.7,289.2z M180.7,288.1c-0.1-0.4,0.1-0.8,0.5-0.9l0,0l0,0l0,0c0.4-0.1,0.8,0.1,0.9,0.5l0,0
		c0.1,0.4-0.2,0.8-0.6,0.9l0,0c-0.1,0-0.1,0-0.2,0l0,0C181.1,288.7,180.8,288.5,180.7,288.1z M117.3,288.6c-0.4-0.1-0.6-0.5-0.5-0.9
		l0,0c0.1-0.4,0.5-0.6,0.9-0.5l0,0c0.4,0.1,0.6,0.5,0.5,0.9l0,0c-0.1,0.3-0.4,0.6-0.7,0.6l0,0C117.4,288.6,117.3,288.6,117.3,288.6z
		 M183.1,287.5c-0.1-0.4,0.1-0.8,0.5-0.9l0,0l0,0l0,0c0.4-0.1,0.8,0.1,0.9,0.5l0,0c0.1,0.4-0.1,0.8-0.5,0.9l0,0c-0.1,0-0.1,0-0.2,0
		l0,0C183.5,288.1,183.2,287.9,183.1,287.5z M114.9,288L114.9,288c-0.4-0.1-0.6-0.5-0.5-0.9l0,0c0.1-0.4,0.5-0.6,0.9-0.5l0,0l0,0
		l0,0c0.4,0.1,0.6,0.5,0.5,0.9l0,0c-0.1,0.3-0.4,0.6-0.7,0.6l0,0C115,288,114.9,288,114.9,288z M185.5,286.9
		c-0.1-0.4,0.1-0.8,0.5-0.9l0,0c0.4-0.1,0.8,0.1,0.9,0.5l0,0c0.1,0.4-0.1,0.8-0.5,0.9l0,0c-0.1,0-0.1,0-0.2,0l0,0
		C185.9,287.4,185.6,287.2,185.5,286.9z M112.5,287.3L112.5,287.3c-0.4-0.1-0.6-0.5-0.5-0.9l0,0c0.1-0.4,0.5-0.6,0.9-0.5l0,0l0,0
		l0,0c0.4,0.1,0.6,0.5,0.5,0.9l0,0c-0.1,0.3-0.4,0.5-0.7,0.5l0,0C112.6,287.4,112.5,287.3,112.5,287.3z M187.9,286.2
		c-0.1-0.4,0.1-0.8,0.5-0.9l0,0c0.4-0.1,0.8,0.1,0.9,0.5l0,0c0.1,0.4-0.1,0.8-0.5,0.9l0,0c-0.1,0-0.1,0-0.2,0l0,0
		C188.3,286.7,188,286.5,187.9,286.2z M110.1,286.6L110.1,286.6c-0.4-0.1-0.6-0.5-0.5-0.9l0,0c0.1-0.4,0.5-0.6,0.9-0.5l0,0
		c0.4,0.1,0.6,0.5,0.5,0.9l0,0c-0.1,0.3-0.4,0.5-0.7,0.5l0,0C110.2,286.6,110.1,286.6,110.1,286.6z M190.3,285.5
		c-0.1-0.4,0.1-0.8,0.5-0.9l0,0c0.4-0.1,0.8,0.1,0.9,0.5l0,0c0.1,0.4-0.1,0.8-0.5,0.9l0,0c-0.1,0-0.2,0-0.2,0l0,0
		C190.7,286,190.4,285.8,190.3,285.5z M107.7,285.9L107.7,285.9c-0.4-0.1-0.6-0.5-0.5-0.9l0,0c0.1-0.4,0.6-0.6,0.9-0.5l0,0l0,0l0,0
		c0.4,0.1,0.6,0.5,0.5,0.9l0,0c-0.1,0.3-0.4,0.5-0.7,0.5l0,0C107.8,285.9,107.7,285.9,107.7,285.9z M192.7,284.7
		c-0.1-0.4,0.1-0.8,0.5-0.9l0,0c0.4-0.1,0.8,0.1,0.9,0.5l0,0c0.1,0.4-0.1,0.8-0.5,0.9l0,0c-0.1,0-0.2,0-0.2,0l0,0
		C193.1,285.2,192.8,285,192.7,284.7z M105.3,285.1L105.3,285.1c-0.4-0.1-0.6-0.6-0.5-0.9l0,0c0.1-0.4,0.6-0.6,0.9-0.5l0,0
		c0.4,0.1,0.6,0.6,0.5,0.9l0,0c-0.1,0.3-0.4,0.5-0.7,0.5l0,0C105.5,285.1,105.4,285.1,105.3,285.1z M195,283.9
		c-0.1-0.4,0.1-0.8,0.4-1l0,0l0,0l0,0c0.4-0.1,0.8,0.1,1,0.4l0,0c0.1,0.4-0.1,0.8-0.4,1l0,0c-0.1,0-0.2,0-0.3,0l0,0
		C195.4,284.4,195.1,284.2,195,283.9z M102.9,284.2c-0.4-0.1-0.6-0.6-0.4-1l0,0c0.1-0.4,0.6-0.6,1-0.4l0,0c0.4,0.1,0.6,0.6,0.4,1
		l0,0c-0.1,0.3-0.4,0.5-0.7,0.5l0,0C103.1,284.3,103,284.3,102.9,284.2z M197.4,283c-0.1-0.4,0-0.8,0.4-1l0,0c0.4-0.1,0.8,0,1,0.4
		l0,0c0.1,0.4,0,0.8-0.4,1l0,0c-0.1,0-0.2,0-0.3,0l0,0C197.8,283.5,197.5,283.3,197.4,283z M100.6,283.3c-0.4-0.1-0.6-0.6-0.4-1l0,0
		c0.1-0.4,0.6-0.6,1-0.4l0,0l0,0l0,0c0.4,0.1,0.6,0.6,0.4,1l0,0c-0.1,0.3-0.4,0.5-0.7,0.5l0,0C100.8,283.4,100.7,283.4,100.6,283.3z
		 M199.7,282.1c-0.2-0.4,0-0.8,0.4-1l0,0l0,0l0,0c0.4-0.2,0.8,0,1,0.4l0,0c0.2,0.4,0,0.8-0.4,1l0,0c-0.1,0-0.2,0.1-0.3,0.1l0,0
		C200.1,282.6,199.8,282.4,199.7,282.1z M98.3,282.4c-0.4-0.2-0.6-0.6-0.4-1l0,0c0.2-0.4,0.6-0.6,1-0.4l0,0c0.4,0.2,0.6,0.6,0.4,1
		l0,0c-0.1,0.3-0.4,0.5-0.7,0.5l0,0C98.5,282.5,98.4,282.5,98.3,282.4z M202,281.1c-0.2-0.4,0-0.8,0.4-1l0,0c0.4-0.2,0.8,0,1,0.4
		l0,0c0.2,0.4,0,0.8-0.4,1l0,0c-0.1,0-0.2,0.1-0.3,0.1l0,0C202.4,281.6,202.1,281.4,202,281.1z M96,281.5c-0.4-0.2-0.6-0.6-0.4-1
		l0,0c0.2-0.4,0.6-0.6,1-0.4l0,0c0.4,0.2,0.6,0.6,0.4,1l0,0c-0.1,0.3-0.4,0.4-0.7,0.4l0,0C96.2,281.5,96.1,281.5,96,281.5z
		 M204.3,280.1c-0.2-0.4,0-0.8,0.4-1l0,0l0,0l0,0c0.4-0.2,0.8,0,1,0.4l0,0c0.2,0.4,0,0.8-0.4,1l0,0c-0.1,0-0.2,0.1-0.3,0.1l0,0
		C204.7,280.6,204.4,280.4,204.3,280.1z M93.7,280.4c-0.4-0.2-0.5-0.6-0.4-1l0,0c0.2-0.4,0.6-0.5,1-0.4l0,0c0,0,0,0,0,0l0,0
		c0.4,0.2,0.5,0.6,0.4,1l0,0c-0.1,0.3-0.4,0.4-0.7,0.4l0,0C93.9,280.5,93.8,280.5,93.7,280.4z M206.5,279.1c-0.2-0.4,0-0.8,0.4-1
		l0,0c0.4-0.2,0.8,0,1,0.4l0,0c0.2,0.4,0,0.8-0.4,1l0,0c-0.1,0-0.2,0.1-0.3,0.1l0,0C206.9,279.5,206.7,279.4,206.5,279.1z
		 M91.5,279.4c-0.4-0.2-0.5-0.6-0.4-1l0,0c0.2-0.4,0.6-0.5,1-0.4l0,0l0,0l0,0c0.4,0.2,0.5,0.6,0.4,1l0,0c-0.1,0.3-0.4,0.4-0.7,0.4
		l0,0C91.7,279.5,91.6,279.4,91.5,279.4z M208.8,278c-0.2-0.4,0-0.8,0.3-1l0,0c0.4-0.2,0.8,0,1,0.3l0,0c0.2,0.4,0,0.8-0.3,1l0,0
		c-0.1,0-0.2,0.1-0.3,0.1l0,0C209.2,278.4,208.9,278.3,208.8,278z M89.2,278.3L89.2,278.3c-0.4-0.2-0.5-0.6-0.3-1l0,0
		c0.2-0.4,0.6-0.5,1-0.3l0,0c0.4,0.2,0.5,0.6,0.3,1l0,0c-0.1,0.3-0.4,0.4-0.7,0.4l0,0C89.4,278.4,89.3,278.4,89.2,278.3z M211,276.9
		c-0.2-0.4,0-0.8,0.3-1l0,0c0.4-0.2,0.8,0,1,0.3l0,0c0.2,0.4,0,0.8-0.3,1l0,0c-0.1,0.1-0.2,0.1-0.3,0.1l0,0
		C211.4,277.3,211.2,277.2,211,276.9z M87,277.2c-0.4-0.2-0.5-0.6-0.3-1l0,0c0.2-0.4,0.6-0.5,1-0.3l0,0c0.4,0.2,0.5,0.6,0.3,1l0,0
		c-0.1,0.3-0.4,0.4-0.7,0.4l0,0C87.2,277.2,87.1,277.2,87,277.2z M213.2,275.8c-0.2-0.4-0.1-0.8,0.3-1l0,0c0.4-0.2,0.8-0.1,1,0.3
		l0,0c0.2,0.4,0.1,0.8-0.3,1l0,0c-0.1,0.1-0.2,0.1-0.4,0.1l0,0C213.6,276.1,213.4,276,213.2,275.8z M84.8,276
		c-0.4-0.2-0.5-0.7-0.3-1l0,0c0.2-0.4,0.7-0.5,1-0.3l0,0l0,0l0,0c0.4,0.2,0.5,0.7,0.3,1l0,0c-0.1,0.2-0.4,0.4-0.7,0.4l0,0
		C85,276.1,84.9,276.1,84.8,276z M215.4,274.6c-0.2-0.4-0.1-0.8,0.3-1l0,0c0.4-0.2,0.8-0.1,1,0.3l0,0c0.2,0.4,0.1,0.8-0.3,1l0,0
		c-0.1,0.1-0.2,0.1-0.4,0.1l0,0C215.8,274.9,215.5,274.8,215.4,274.6z M82.6,274.8L82.6,274.8c-0.4-0.2-0.5-0.7-0.3-1l0,0
		c0.2-0.4,0.7-0.5,1-0.3l0,0l0,0l0,0c0.4,0.2,0.5,0.7,0.3,1l0,0c-0.1,0.2-0.4,0.4-0.7,0.4l0,0C82.9,274.9,82.8,274.8,82.6,274.8z
		 M217.6,273.3c-0.2-0.4-0.1-0.8,0.3-1l0,0c0.4-0.2,0.8-0.1,1,0.3l0,0c0.2,0.4,0.1,0.8-0.3,1l0,0c-0.1,0.1-0.2,0.1-0.4,0.1l0,0
		C218,273.7,217.7,273.5,217.6,273.3z M80.5,273.5c-0.4-0.2-0.5-0.7-0.3-1l0,0c0.2-0.4,0.7-0.5,1-0.3l0,0c0.4,0.2,0.5,0.7,0.3,1l0,0
		c-0.1,0.2-0.4,0.4-0.6,0.4l0,0C80.7,273.6,80.6,273.6,80.5,273.5z M219.7,272c-0.2-0.3-0.1-0.8,0.2-1l0,0l0,0l0,0
		c0.3-0.2,0.8-0.1,1,0.2l0,0c0.2,0.4,0.1,0.8-0.2,1l0,0c-0.1,0.1-0.3,0.1-0.4,0.1l0,0C220.1,272.4,219.8,272.3,219.7,272z
		 M78.4,272.2c-0.3-0.2-0.5-0.7-0.2-1l0,0c0.2-0.3,0.7-0.5,1-0.2l0,0c0.3,0.2,0.5,0.7,0.2,1l0,0c-0.1,0.2-0.4,0.4-0.6,0.4l0,0
		C78.6,272.3,78.5,272.3,78.4,272.2z M221.8,270.7c-0.2-0.3-0.1-0.8,0.2-1l0,0l0,0l0,0c0.3-0.2,0.8-0.1,1,0.2l0,0
		c0.2,0.3,0.1,0.8-0.2,1l0,0c-0.1,0.1-0.3,0.1-0.4,0.1l0,0C222.2,271.1,222,270.9,221.8,270.7z M76.2,270.9L76.2,270.9
		c-0.3-0.2-0.4-0.7-0.2-1l0,0c0.2-0.3,0.7-0.4,1-0.2l0,0l0,0l0,0c0.3,0.2,0.4,0.7,0.2,1l0,0c-0.1,0.2-0.4,0.3-0.6,0.3l0,0
		C76.5,271,76.4,271,76.2,270.9z M223.9,269.4c-0.2-0.3-0.1-0.8,0.2-1l0,0c0.3-0.2,0.8-0.1,1,0.2l0,0c0.2,0.3,0.1,0.8-0.2,1l0,0
		c-0.1,0.1-0.3,0.1-0.4,0.1l0,0C224.3,269.7,224,269.6,223.9,269.4z M74.2,269.5L74.2,269.5c-0.3-0.2-0.4-0.7-0.2-1l0,0
		c0.2-0.3,0.7-0.4,1-0.2l0,0l0,0l0,0c0.3,0.2,0.4,0.7,0.2,1l0,0c-0.1,0.2-0.4,0.3-0.6,0.3l0,0C74.4,269.6,74.3,269.6,74.2,269.5z
		 M226,268c-0.2-0.3-0.2-0.8,0.2-1l0,0c0.3-0.2,0.8-0.2,1,0.2l0,0c0.2,0.3,0.2,0.8-0.2,1l0,0c-0.1,0.1-0.3,0.1-0.4,0.1l0,0
		C226.3,268.3,226.1,268.2,226,268z M72.1,268.1c-0.3-0.2-0.4-0.7-0.2-1l0,0c0.2-0.3,0.7-0.4,1-0.2l0,0c0.3,0.2,0.4,0.7,0.2,1l0,0
		c-0.1,0.2-0.4,0.3-0.6,0.3l0,0C72.4,268.2,72.2,268.2,72.1,268.1z M228,266.5c-0.2-0.3-0.2-0.8,0.2-1l0,0l0,0l0,0
		c0.3-0.2,0.8-0.2,1,0.2l0,0c0.2,0.3,0.2,0.8-0.2,1l0,0c-0.1,0.1-0.3,0.1-0.4,0.1l0,0C228.4,266.8,228.1,266.7,228,266.5z
		 M70.1,266.7c-0.3-0.2-0.4-0.7-0.2-1l0,0c0.2-0.3,0.7-0.4,1-0.2l0,0c0.3,0.2,0.4,0.7,0.2,1l0,0c-0.1,0.2-0.4,0.3-0.6,0.3l0,0
		C70.4,266.8,70.2,266.7,70.1,266.7z M230,265.1c-0.2-0.3-0.2-0.8,0.1-1l0,0l0,0l0,0c0.3-0.2,0.8-0.2,1,0.1l0,0
		c0.2,0.3,0.2,0.8-0.1,1l0,0c-0.1,0.1-0.3,0.2-0.4,0.2l0,0C230.4,265.4,230.1,265.3,230,265.1z M68.1,265.2L68.1,265.2
		c-0.3-0.2-0.4-0.7-0.1-1l0,0c0.2-0.3,0.7-0.4,1-0.1l0,0c0.3,0.2,0.4,0.7,0.1,1l0,0c-0.1,0.2-0.4,0.3-0.6,0.3l0,0
		C68.4,265.3,68.2,265.3,68.1,265.2z M232,263.6c-0.3-0.3-0.2-0.8,0.1-1l0,0l0,0l0,0c0.3-0.3,0.8-0.2,1,0.1l0,0
		c0.3,0.3,0.2,0.8-0.1,1l0,0c-0.1,0.1-0.3,0.2-0.5,0.2l0,0C232.3,263.8,232.1,263.7,232,263.6z M66.1,263.6c-0.3-0.3-0.4-0.7-0.1-1
		l0,0c0.3-0.3,0.7-0.4,1-0.1l0,0l0,0l0,0c0.3,0.3,0.4,0.7,0.1,1l0,0c-0.1,0.2-0.4,0.3-0.6,0.3l0,0C66.4,263.8,66.2,263.7,66.1,263.6
		z M233.9,262c-0.3-0.3-0.2-0.8,0.1-1l0,0l0,0l0,0c0.3-0.3,0.8-0.2,1.1,0.1l0,0c0.3,0.3,0.2,0.8-0.1,1.1v0c-0.1,0.1-0.3,0.2-0.5,0.2
		l0,0C234.3,262.3,234.1,262.2,233.9,262z M64.1,262.1c-0.3-0.3-0.4-0.7-0.1-1l0,0c0.3-0.3,0.7-0.4,1-0.1l0,0c0.3,0.3,0.4,0.7,0.1,1
		l0,0c-0.1,0.2-0.4,0.3-0.6,0.3l0,0C64.5,262.2,64.3,262.2,64.1,262.1z M235.8,260.4c-0.3-0.3-0.2-0.8,0.1-1l0,0
		c0.3-0.3,0.8-0.2,1,0.1l0,0c0.3,0.3,0.2,0.8-0.1,1l0,0c-0.1,0.1-0.3,0.2-0.5,0.2l0,0C236.2,260.7,236,260.6,235.8,260.4z
		 M62.2,260.5L62.2,260.5c-0.3-0.3-0.4-0.7-0.1-1l0,0c0.3-0.3,0.7-0.4,1.1-0.1l0,0l0,0l0,0c0.3,0.3,0.4,0.7,0.1,1l0,0
		c-0.1,0.2-0.4,0.3-0.6,0.3l0,0C62.5,260.7,62.4,260.6,62.2,260.5z M237.7,258.8c-0.3-0.3-0.2-0.8,0.1-1.1l0,0
		c0.3-0.3,0.8-0.2,1.1,0.1l0,0c0.3,0.3,0.2,0.8-0.1,1l0,0c-0.1,0.1-0.3,0.2-0.5,0.2l0,0C238.1,259.1,237.9,259,237.7,258.8z
		 M60.3,258.9c-0.3-0.3-0.3-0.7-0.1-1.1l0,0c0.3-0.3,0.7-0.3,1-0.1l0,0c0.3,0.3,0.3,0.7,0.1,1l0,0c-0.1,0.2-0.4,0.3-0.6,0.3l0,0
		C60.7,259,60.5,259,60.3,258.9z M239.6,257.2c-0.3-0.3-0.3-0.8,0-1.1l0,0c0.3-0.3,0.8-0.3,1.1,0l0,0c0.3,0.3,0.3,0.8,0,1.1l0,0
		c-0.1,0.1-0.3,0.2-0.5,0.2l0,0C239.9,257.4,239.7,257.3,239.6,257.2z M58.5,257.2c-0.3-0.3-0.3-0.8,0-1.1l0,0
		c0.3-0.3,0.8-0.3,1.1,0l0,0c0.3,0.3,0.3,0.8,0,1.1l0,0c-0.1,0.2-0.4,0.2-0.6,0.2l0,0C58.8,257.4,58.6,257.3,58.5,257.2z
		 M241.4,255.5c-0.3-0.3-0.3-0.8,0-1.1l0,0c0,0,0,0,0,0l0,0c0.3-0.3,0.8-0.3,1.1,0l0,0c0.3,0.3,0.3,0.8,0,1.1v0
		c-0.1,0.1-0.3,0.2-0.5,0.2l0,0C241.8,255.7,241.6,255.6,241.4,255.5z M56.6,255.5L56.6,255.5c-0.3-0.3-0.3-0.8,0-1.1l0,0
		c0.3-0.3,0.8-0.3,1.1,0l0,0c0.3,0.3,0.3,0.8,0,1.1l0,0c-0.1,0.2-0.3,0.2-0.5,0.2l0,0C57,255.7,56.8,255.6,56.6,255.5z M243.2,253.8
		c-0.3-0.3-0.3-0.8,0-1.1l0,0l0,0l0,0c0.3-0.3,0.8-0.3,1.1,0l0,0c0.3,0.3,0.3,0.8,0,1.1v0c-0.1,0.1-0.3,0.2-0.5,0.2l0,0
		C243.6,254,243.4,253.9,243.2,253.8z M54.8,253.8c-0.3-0.3-0.3-0.8,0-1.1l0,0c0.3-0.3,0.8-0.3,1.1,0l0,0c0.3,0.3,0.3,0.8,0,1.1l0,0
		c-0.1,0.1-0.3,0.2-0.5,0.2l0,0C55.2,254,55,253.9,54.8,253.8z M245,252c-0.3-0.3-0.3-0.8,0-1.1l0,0l0,0l0,0c0.3-0.3,0.8-0.3,1.1,0
		l0,0c0.3,0.3,0.3,0.8,0,1.1l0,0c-0.1,0.1-0.3,0.2-0.5,0.2l0,0C245.3,252.2,245.1,252.2,245,252z M53.1,252c-0.3-0.3-0.3-0.8,0-1.1
		l0,0c0.3-0.3,0.8-0.3,1.1,0l0,0c0.3,0.3,0.3,0.8,0,1.1l0,0c-0.1,0.1-0.3,0.2-0.5,0.2l0,0C53.4,252.2,53.2,252.1,53.1,252z
		 M246.7,250.3c-0.3-0.3-0.3-0.8,0-1.1l0,0c0,0,0,0,0,0l0,0c0.3-0.3,0.7-0.3,1.1,0l0,0c0.3,0.3,0.3,0.8,0,1.1l0,0
		c-0.1,0.2-0.3,0.2-0.5,0.2l0,0C247.1,250.5,246.9,250.4,246.7,250.3z M51.3,250.2c-0.3-0.3-0.3-0.8,0-1.1l0,0
		c0.3-0.3,0.8-0.3,1.1,0l0,0c0.3,0.3,0.3,0.8,0,1.1l0,0c-0.1,0.1-0.3,0.2-0.5,0.2l0,0C51.7,250.4,51.5,250.3,51.3,250.2z
		 M248.4,248.4c-0.3-0.3-0.3-0.7,0-1.1l0,0c0,0,0,0,0,0l0,0c0.3-0.3,0.7-0.3,1.1,0l0,0c0.3,0.3,0.3,0.7,0,1.1l0,0
		c-0.1,0.2-0.4,0.2-0.6,0.2l0,0C248.8,248.6,248.6,248.6,248.4,248.4z M49.6,248.4c-0.3-0.3-0.3-0.8,0-1.1l0,0
		c0.3-0.3,0.8-0.3,1.1,0l0,0c0.3,0.3,0.3,0.8,0,1.1l0,0c-0.1,0.1-0.3,0.2-0.5,0.2l0,0C50,248.6,49.8,248.5,49.6,248.4z M250.1,246.6
		c-0.3-0.3-0.3-0.7-0.1-1.1l0,0l0,0l0,0c0.3-0.3,0.7-0.3,1-0.1l0,0c0.3,0.3,0.3,0.7,0.1,1l0,0c-0.1,0.2-0.4,0.3-0.6,0.3l0,0
		C250.4,246.8,250.2,246.7,250.1,246.6z M48,246.5L48,246.5c-0.3-0.3-0.2-0.8,0.1-1l0,0c0.3-0.3,0.8-0.2,1.1,0.1l0,0l0,0l0,0
		c0.3,0.3,0.2,0.8-0.1,1.1l0,0c-0.1,0.1-0.3,0.2-0.5,0.2l0,0C48.3,246.7,48.1,246.7,48,246.5z M251.7,244.7c-0.3-0.3-0.4-0.7-0.1-1
		l0,0l0,0l0,0c0.3-0.3,0.7-0.4,1-0.1l0,0c0.3,0.3,0.4,0.7,0.1,1.1h0c-0.1,0.2-0.4,0.3-0.6,0.3l0,0
		C252,244.9,251.9,244.9,251.7,244.7z M46.4,244.6c-0.3-0.3-0.2-0.8,0.1-1l0,0c0.3-0.3,0.8-0.2,1.1,0.1l0,0c0.3,0.3,0.2,0.8-0.1,1.1
		l0,0c-0.1,0.1-0.3,0.2-0.5,0.2l0,0C46.7,244.9,46.5,244.8,46.4,244.6z M253.3,242.8c-0.3-0.3-0.4-0.7-0.1-1l0,0
		c0.3-0.3,0.7-0.4,1-0.1l0,0c0.3,0.3,0.4,0.7,0.1,1l0,0c-0.1,0.2-0.4,0.3-0.6,0.3l0,0C253.6,243,253.5,242.9,253.3,242.8z
		 M44.8,242.7L44.8,242.7c-0.3-0.3-0.2-0.8,0.1-1l0,0c0.3-0.3,0.8-0.2,1.1,0.1l0,0c0,0,0,0,0,0l0,0c0.3,0.3,0.2,0.8-0.1,1l0,0
		c-0.1,0.1-0.3,0.2-0.5,0.2l0,0C45.1,243,44.9,242.9,44.8,242.7z M254.9,240.9c-0.3-0.3-0.4-0.7-0.1-1l0,0l0,0l0,0
		c0.3-0.3,0.7-0.4,1-0.1l0,0c0.3,0.3,0.4,0.7,0.1,1h0c-0.1,0.2-0.4,0.3-0.6,0.3l0,0C255.2,241.1,255,241,254.9,240.9z M43.2,240.7
		L43.2,240.7c-0.3-0.3-0.2-0.8,0.1-1l0,0c0.3-0.3,0.8-0.2,1,0.1l0,0l0,0l0,0c0.3,0.3,0.2,0.8-0.1,1l0,0c-0.1,0.1-0.3,0.2-0.5,0.2
		l0,0C43.6,241,43.3,240.9,43.2,240.7z M256.4,239c-0.3-0.2-0.4-0.7-0.1-1l0,0l0,0l0,0c0.2-0.3,0.7-0.4,1-0.1l0,0
		c0.3,0.2,0.4,0.7,0.1,1v0c-0.1,0.2-0.4,0.3-0.6,0.3l0,0C256.7,239.1,256.5,239.1,256.4,239z M41.7,238.7L41.7,238.7
		c-0.2-0.3-0.2-0.8,0.1-1l0,0c0.3-0.2,0.8-0.2,1,0.1l0,0c0,0,0,0,0,0l0,0c0.2,0.3,0.2,0.8-0.1,1l0,0c-0.1,0.1-0.3,0.1-0.4,0.1l0,0
		C42,239,41.8,238.9,41.7,238.7z M257.9,237c-0.3-0.2-0.4-0.7-0.2-1l0,0c0.2-0.3,0.7-0.4,1-0.2l0,0c0.3,0.2,0.4,0.7,0.2,1l0,0
		c-0.1,0.2-0.4,0.3-0.6,0.3l0,0C258.2,237.1,258,237.1,257.9,237z M40.2,236.7c-0.2-0.3-0.2-0.8,0.2-1l0,0c0.3-0.2,0.8-0.2,1,0.2
		l0,0c0,0,0,0,0,0l0,0c0.2,0.3,0.2,0.8-0.2,1l0,0c-0.1,0.1-0.3,0.1-0.4,0.1l0,0C40.5,237,40.3,236.9,40.2,236.7z M259.4,235
		c-0.3-0.2-0.4-0.7-0.2-1l0,0c0.2-0.3,0.7-0.4,1-0.2l0,0c0.3,0.2,0.4,0.7,0.2,1l0,0c-0.1,0.2-0.4,0.3-0.6,0.3l0,0
		C259.6,235.1,259.5,235,259.4,235z M38.7,234.7c-0.2-0.3-0.2-0.8,0.2-1l0,0c0.3-0.2,0.8-0.2,1,0.2l0,0l0,0l0,0
		c0.2,0.3,0.2,0.8-0.2,1l0,0c-0.1,0.1-0.3,0.1-0.4,0.1l0,0C39.1,235,38.9,234.9,38.7,234.7z M260.8,232.9c-0.3-0.2-0.4-0.7-0.2-1
		l0,0c0.2-0.3,0.7-0.4,1-0.2l0,0c0.3,0.2,0.4,0.7,0.2,1l0,0c-0.1,0.2-0.4,0.3-0.6,0.3l0,0C261,233,260.9,233,260.8,232.9z
		 M37.3,232.6L37.3,232.6c-0.2-0.3-0.1-0.8,0.2-1l0,0c0.3-0.2,0.8-0.1,1,0.2l0,0l0,0l0,0c0.2,0.3,0.1,0.8-0.2,1l0,0
		c-0.1,0.1-0.3,0.1-0.4,0.1l0,0C37.7,233,37.4,232.9,37.3,232.6z M262.2,230.9c-0.3-0.2-0.4-0.7-0.2-1l0,0c0,0,0,0,0,0l0,0
		c0.2-0.3,0.7-0.4,1-0.2l0,0c0.3,0.2,0.4,0.7,0.2,1v0c-0.1,0.2-0.4,0.3-0.6,0.3l0,0C262.4,231,262.3,230.9,262.2,230.9z M35.9,230.6
		c-0.2-0.3-0.1-0.8,0.2-1l0,0c0.3-0.2,0.8-0.1,1,0.2l0,0c0.2,0.3,0.1,0.8-0.2,1l0,0c-0.1,0.1-0.3,0.1-0.4,0.1l0,0
		C36.3,230.9,36.1,230.8,35.9,230.6z M263.5,228.8c-0.3-0.2-0.5-0.7-0.2-1l0,0l0,0l0,0c0.2-0.3,0.7-0.5,1-0.2l0,0
		c0.3,0.2,0.5,0.7,0.2,1l0,0c-0.1,0.2-0.4,0.4-0.6,0.4l0,0C263.7,228.9,263.6,228.8,263.5,228.8z M34.6,228.4L34.6,228.4
		c-0.2-0.4-0.1-0.8,0.2-1l0,0c0.3-0.2,0.8-0.1,1,0.2l0,0l0,0l0,0c0.2,0.4,0.1,0.8-0.2,1l0,0c-0.1,0.1-0.3,0.1-0.4,0.1l0,0
		C35,228.8,34.7,228.7,34.6,228.4z M264.8,226.7c-0.4-0.2-0.5-0.7-0.3-1l0,0l0,0l0,0c0.2-0.4,0.7-0.5,1-0.3l0,0
		c0.4,0.2,0.5,0.7,0.3,1l0,0c-0.1,0.2-0.4,0.4-0.6,0.4l0,0C265,226.8,264.9,226.7,264.8,226.7z M33.3,226.3L33.3,226.3
		c-0.2-0.4-0.1-0.8,0.3-1l0,0c0.4-0.2,0.8-0.1,1,0.3l0,0l0,0l0,0c0.2,0.4,0.1,0.8-0.3,1l0,0c-0.1,0.1-0.3,0.1-0.4,0.1l0,0
		C33.7,226.7,33.4,226.5,33.3,226.3z M266.1,224.5c-0.4-0.2-0.5-0.7-0.3-1l0,0c0,0,0,0,0,0l0,0c0.2-0.4,0.7-0.5,1-0.3l0,0
		c0.4,0.2,0.5,0.7,0.3,1l0,0c-0.1,0.2-0.4,0.4-0.6,0.4l0,0C266.3,224.6,266.2,224.6,266.1,224.5z M32,224.1L32,224.1
		c-0.2-0.4-0.1-0.8,0.3-1l0,0c0.4-0.2,0.8-0.1,1,0.3l0,0c0.2,0.4,0.1,0.8-0.3,1l0,0c-0.1,0.1-0.2,0.1-0.4,0.1l0,0
		C32.4,224.5,32.2,224.4,32,224.1z M267.3,222.4c-0.4-0.2-0.5-0.7-0.3-1l0,0c0.2-0.4,0.7-0.5,1-0.3l0,0c0.4,0.2,0.5,0.7,0.3,1l0,0
		c-0.1,0.2-0.4,0.4-0.7,0.4l0,0C267.5,222.5,267.4,222.4,267.3,222.4z M30.8,222c-0.2-0.4-0.1-0.8,0.3-1l0,0c0.4-0.2,0.8-0.1,1,0.3
		l0,0c0.2,0.4,0.1,0.8-0.3,1l0,0c-0.1,0.1-0.2,0.1-0.4,0.1l0,0C31.2,222.3,30.9,222.2,30.8,222z M268.5,220.2
		c-0.4-0.2-0.5-0.6-0.3-1l0,0l0,0l0,0c0.2-0.4,0.6-0.5,1-0.3l0,0c0.4,0.2,0.5,0.6,0.3,1l0,0c-0.1,0.3-0.4,0.4-0.7,0.4l0,0
		C268.7,220.3,268.6,220.2,268.5,220.2z M29.6,219.7L29.6,219.7c-0.2-0.4,0-0.8,0.3-1l0,0c0.4-0.2,0.8,0,1,0.3l0,0l0,0l0,0
		c0.2,0.4,0,0.8-0.3,1l0,0c-0.1,0.1-0.2,0.1-0.3,0.1l0,0C30,220.1,29.8,220,29.6,219.7z M269.6,218c-0.4-0.2-0.5-0.6-0.3-1l0,0
		c0.2-0.4,0.6-0.5,1-0.3l0,0c0.4,0.2,0.5,0.6,0.3,1l0,0c-0.1,0.3-0.4,0.4-0.7,0.4l0,0C269.8,218.1,269.7,218,269.6,218z M28.5,217.5
		L28.5,217.5c-0.2-0.4,0-0.8,0.3-1l0,0c0.4-0.2,0.8,0,1,0.3l0,0c0.2,0.4,0,0.8-0.3,1l0,0c-0.1,0.1-0.2,0.1-0.3,0.1l0,0
		C28.9,217.9,28.6,217.8,28.5,217.5z M270.7,215.8c-0.4-0.2-0.5-0.6-0.3-1l0,0l0,0l0,0c0.2-0.4,0.6-0.5,1-0.4l0,0
		c0.4,0.2,0.5,0.6,0.3,1l0,0c-0.1,0.3-0.4,0.4-0.7,0.4l0,0C270.9,215.8,270.8,215.8,270.7,215.8z M27.4,215.3c-0.2-0.4,0-0.8,0.4-1
		l0,0c0.4-0.2,0.8,0,1,0.4l0,0c0.2,0.4,0,0.8-0.4,1l0,0c-0.1,0-0.2,0.1-0.3,0.1l0,0C27.8,215.7,27.5,215.5,27.4,215.3z M271.8,213.5
		c-0.4-0.2-0.5-0.6-0.4-1l0,0l0,0l0,0c0.2-0.4,0.6-0.5,1-0.4l0,0c0.4,0.2,0.5,0.6,0.4,1l0,0c-0.1,0.3-0.4,0.4-0.7,0.4l0,0
		C272,213.6,271.9,213.6,271.8,213.5z M26.3,213c-0.2-0.4,0-0.8,0.4-1l0,0c0.4-0.2,0.8,0,1,0.4l0,0c0.2,0.4,0,0.8-0.4,1l0,0
		c-0.1,0-0.2,0.1-0.3,0.1l0,0C26.7,213.4,26.5,213.3,26.3,213z M272.8,211.3c-0.4-0.2-0.6-0.6-0.4-1l0,0l0,0l0,0
		c0.2-0.4,0.6-0.6,1-0.4l0,0c0.4,0.2,0.6,0.6,0.4,1l0,0c-0.1,0.3-0.4,0.4-0.7,0.4l0,0C273,211.3,272.9,211.3,272.8,211.3z
		 M25.3,210.7L25.3,210.7c-0.2-0.4,0-0.8,0.4-1l0,0c0.4-0.2,0.8,0,1,0.4l0,0c0,0,0,0,0,0l0,0c0.2,0.4,0,0.8-0.4,1l0,0
		c-0.1,0-0.2,0.1-0.3,0.1l0,0C25.7,211.1,25.5,211,25.3,210.7z M273.7,209c-0.4-0.2-0.6-0.6-0.4-1l0,0l0,0l0,0
		c0.2-0.4,0.6-0.6,1-0.4l0,0c0.4,0.2,0.6,0.6,0.4,1l0,0c-0.1,0.3-0.4,0.5-0.7,0.5l0,0C273.9,209.1,273.8,209,273.7,209z M24.4,208.4
		c-0.2-0.4,0-0.8,0.4-1l0,0c0.4-0.2,0.8,0,1,0.4l0,0c0.2,0.4,0,0.8-0.4,1l0,0c-0.1,0-0.2,0.1-0.3,0.1l0,0
		C24.8,208.8,24.5,208.7,24.4,208.4z M274.7,206.7c-0.4-0.1-0.6-0.6-0.4-1l0,0l0,0l0,0c0.1-0.4,0.6-0.6,1-0.4l0,0
		c0.4,0.1,0.6,0.6,0.4,1l0,0c-0.1,0.3-0.4,0.5-0.7,0.5l0,0C274.9,206.7,274.8,206.7,274.7,206.7z M23.4,206.1c-0.1-0.4,0-0.8,0.4-1
		l0,0c0.4-0.1,0.8,0,1,0.4l0,0l0,0l0,0c0.1,0.4,0,0.8-0.4,1l0,0c-0.1,0-0.2,0-0.3,0l0,0C23.8,206.5,23.5,206.4,23.4,206.1z
		 M275.6,204.4c-0.4-0.1-0.6-0.6-0.4-1l0,0l0,0l0,0c0.1-0.4,0.6-0.6,1-0.4l0,0c0.4,0.1,0.6,0.6,0.4,1l0,0c-0.1,0.3-0.4,0.5-0.7,0.5
		l0,0C275.7,204.4,275.7,204.4,275.6,204.4z M22.6,203.7c-0.1-0.4,0.1-0.8,0.4-1l0,0c0.4-0.1,0.8,0.1,1,0.4l0,0c0,0,0,0,0,0l0,0
		c0.1,0.4-0.1,0.8-0.4,1l0,0c-0.1,0-0.2,0-0.3,0l0,0C22.9,204.2,22.7,204,22.6,203.7z M276.4,202c-0.4-0.1-0.6-0.6-0.5-0.9l0,0
		c0.1-0.4,0.6-0.6,0.9-0.5l0,0c0.4,0.1,0.6,0.6,0.5,0.9l0,0c-0.1,0.3-0.4,0.5-0.7,0.5l0,0C276.6,202.1,276.5,202.1,276.4,202z
		 M21.7,201.3c-0.1-0.4,0.1-0.8,0.5-0.9l0,0c0.4-0.1,0.8,0.1,0.9,0.5l0,0l0,0l0,0c0.1,0.4-0.1,0.8-0.5,0.9l0,0c-0.1,0-0.2,0-0.2,0
		l0,0C22.1,201.9,21.8,201.7,21.7,201.3z M277.2,199.7c-0.4-0.1-0.6-0.5-0.5-0.9l0,0c0.1-0.4,0.5-0.6,0.9-0.5l0,0
		c0.4,0.1,0.6,0.5,0.5,0.9l0,0c-0.1,0.3-0.4,0.5-0.7,0.5l0,0C277.4,199.7,277.3,199.7,277.2,199.7z M20.9,199L20.9,199
		c-0.1-0.4,0.1-0.8,0.5-0.9l0,0c0.4-0.1,0.8,0.1,0.9,0.5l0,0l0,0l0,0c0.1,0.4-0.1,0.8-0.5,0.9l0,0c-0.1,0-0.1,0-0.2,0l0,0
		C21.3,199.5,21,199.3,20.9,199z M278,197.3c-0.4-0.1-0.6-0.5-0.5-0.9l0,0c0,0,0,0,0,0l0,0c0.1-0.4,0.5-0.6,0.9-0.5l0,0
		c0.4,0.1,0.6,0.5,0.5,0.9l0,0c-0.1,0.3-0.4,0.5-0.7,0.5l0,0C278.1,197.4,278.1,197.3,278,197.3z M20.2,196.6
		c-0.1-0.4,0.1-0.8,0.5-0.9l0,0c0.4-0.1,0.8,0.1,0.9,0.5l0,0c0.1,0.4-0.1,0.8-0.5,0.9l0,0c-0.1,0-0.1,0-0.2,0l0,0
		C20.6,197.1,20.3,196.9,20.2,196.6z M278.7,194.9c-0.4-0.1-0.6-0.5-0.5-0.9l0,0c0.1-0.4,0.5-0.6,0.9-0.5l0,0
		c0.4,0.1,0.6,0.5,0.5,0.9l0,0c-0.1,0.3-0.4,0.5-0.7,0.5l0,0C278.8,195,278.8,195,278.7,194.9z M19.5,194.2
		c-0.1-0.4,0.1-0.8,0.5-0.9l0,0c0.4-0.1,0.8,0.1,0.9,0.5l0,0l0,0l0,0c0.1,0.4-0.1,0.8-0.5,0.9l0,0c-0.1,0-0.1,0-0.2,0l0,0
		C19.9,194.7,19.6,194.5,19.5,194.2z M279.4,192.6c-0.4-0.1-0.6-0.5-0.5-0.9l0,0c0.1-0.4,0.5-0.6,0.9-0.5l0,0
		c0.4,0.1,0.6,0.5,0.5,0.9l0,0c-0.1,0.3-0.4,0.6-0.7,0.6l0,0C279.5,192.6,279.4,192.6,279.4,192.6z M18.8,191.8
		c-0.1-0.4,0.1-0.8,0.5-0.9l0,0c0.4-0.1,0.8,0.1,0.9,0.5l0,0c0.1,0.4-0.1,0.8-0.5,0.9l0,0c-0.1,0-0.1,0-0.2,0l0,0
		C19.2,192.3,18.9,192.1,18.8,191.8z M280,190.1c-0.4-0.1-0.6-0.5-0.5-0.9l0,0l0,0l0,0c0.1-0.4,0.5-0.6,0.9-0.5l0,0
		c0.4,0.1,0.6,0.5,0.5,0.9l0,0c-0.1,0.3-0.4,0.6-0.7,0.6l0,0C280.1,190.2,280.1,190.2,280,190.1z M18.2,189.3
		c-0.1-0.4,0.1-0.8,0.5-0.9l0,0c0.4-0.1,0.8,0.1,0.9,0.5l0,0l0,0l0,0c0.1,0.4-0.1,0.8-0.5,0.9l0,0c-0.1,0-0.1,0-0.2,0l0,0
		C18.6,189.9,18.3,189.7,18.2,189.3z M280.6,187.7c-0.4-0.1-0.7-0.5-0.6-0.9l0,0c0,0,0,0,0,0l0,0c0.1-0.4,0.5-0.7,0.9-0.6l0,0
		c0.4,0.1,0.7,0.5,0.6,0.9l0,0c-0.1,0.3-0.4,0.6-0.7,0.6l0,0C280.7,187.8,280.7,187.7,280.6,187.7z M17.6,186.9
		c-0.1-0.4,0.2-0.8,0.6-0.9l0,0c0.4-0.1,0.8,0.2,0.9,0.6l0,0c0,0,0,0,0,0l0,0c0.1,0.4-0.2,0.8-0.6,0.9l0,0c-0.1,0-0.1,0-0.2,0l0,0
		C18,187.5,17.7,187.3,17.6,186.9z M281.1,185.3c-0.4-0.1-0.7-0.5-0.6-0.9l0,0l0,0l0,0c0.1-0.4,0.5-0.7,0.9-0.6l0,0
		c0.4,0.1,0.7,0.5,0.6,0.9l0,0c-0.1,0.4-0.4,0.6-0.7,0.6l0,0C281.2,185.3,281.2,185.3,281.1,185.3z M17.1,184.5
		c-0.1-0.4,0.2-0.8,0.6-0.9l0,0c0.4-0.1,0.8,0.2,0.9,0.6l0,0c0.1,0.4-0.2,0.8-0.6,0.9l0,0c0,0-0.1,0-0.1,0l0,0
		C17.5,185.1,17.2,184.8,17.1,184.5z M281.6,182.9c-0.4-0.1-0.7-0.5-0.6-0.9l0,0l0,0l0,0c0.1-0.4,0.5-0.7,0.9-0.6l0,0
		c0.4,0.1,0.7,0.5,0.6,0.9l0,0c-0.1,0.4-0.4,0.6-0.7,0.6l0,0C281.7,182.9,281.7,182.9,281.6,182.9z M16.6,182
		c-0.1-0.4,0.2-0.8,0.6-0.9l0,0c0.4-0.1,0.8,0.2,0.9,0.6l0,0l0,0l0,0c0.1,0.4-0.2,0.8-0.6,0.9l0,0c0,0-0.1,0-0.1,0l0,0
		C17,182.6,16.7,182.4,16.6,182z M282.1,180.4c-0.4-0.1-0.7-0.5-0.6-0.9l0,0c0.1-0.4,0.5-0.7,0.9-0.6l0,0c0.4,0.1,0.7,0.5,0.6,0.9
		l0,0c-0.1,0.4-0.4,0.6-0.7,0.6l0,0C282.2,180.4,282.1,180.4,282.1,180.4z M16.2,179.6L16.2,179.6c-0.1-0.4,0.2-0.8,0.6-0.9l0,0
		c0.4-0.1,0.8,0.2,0.9,0.6l0,0c0,0,0,0,0,0l0,0c0.1,0.4-0.2,0.8-0.6,0.9l0,0c0,0-0.1,0-0.1,0l0,0C16.6,180.2,16.2,179.9,16.2,179.6z
		 M282.5,178c-0.4-0.1-0.7-0.4-0.6-0.8l0,0l0,0l0,0c0.1-0.4,0.4-0.7,0.8-0.6l0,0c0.4,0.1,0.7,0.4,0.6,0.8l0,0
		c-0.1,0.4-0.4,0.6-0.7,0.6l0,0C282.5,178,282.5,178,282.5,178z M15.8,177.1c-0.1-0.4,0.2-0.8,0.6-0.8l0,0c0.4-0.1,0.8,0.2,0.8,0.6
		l0,0l0,0l0,0c0.1,0.4-0.2,0.8-0.6,0.8l0,0c0,0-0.1,0-0.1,0l0,0C16.2,177.7,15.9,177.5,15.8,177.1z M282.8,175.5
		c-0.4,0-0.7-0.4-0.6-0.8l0,0c0-0.4,0.4-0.7,0.8-0.6l0,0c0.4,0,0.7,0.4,0.6,0.8l0,0C283.6,175.3,283.3,175.5,282.8,175.5
		L282.8,175.5C282.9,175.5,282.9,175.5,282.8,175.5z M15.5,174.6c-0.1-0.4,0.2-0.8,0.6-0.8l0,0c0.4,0,0.8,0.2,0.8,0.6l0,0
		c0.1,0.4-0.2,0.8-0.6,0.8l0,0c0,0-0.1,0-0.1,0l0,0C15.8,175.3,15.5,175,15.5,174.6z M283.1,173.1c-0.4,0-0.7-0.4-0.7-0.8l0,0
		c0-0.4,0.4-0.7,0.8-0.7l0,0c0.4,0,0.7,0.4,0.7,0.8h0C283.9,172.8,283.6,173.1,283.1,173.1L283.1,173.1
		C283.2,173.1,283.2,173.1,283.1,173.1z M15.2,172.1c0-0.4,0.3-0.8,0.7-0.8l0,0c0.4,0,0.8,0.3,0.8,0.7l0,0c0,0.4-0.3,0.8-0.7,0.8
		l0,0c0,0-0.1,0-0.1,0l0,0C15.5,172.8,15.2,172.5,15.2,172.1z M283.4,170.6c-0.4,0-0.7-0.4-0.7-0.8l0,0c0-0.4,0.4-0.7,0.8-0.7l0,0
		c0.4,0,0.7,0.4,0.7,0.8l0,0C284.2,170.3,283.9,170.6,283.4,170.6L283.4,170.6C283.5,170.6,283.4,170.6,283.4,170.6z M14.9,169.6
		c0-0.4,0.3-0.8,0.7-0.8l0,0c0.4,0,0.8,0.3,0.8,0.7l0,0c0,0.4-0.3,0.8-0.7,0.8l0,0c0,0,0,0-0.1,0l0,0C15.3,170.3,15,170,14.9,169.6z
		 M283.6,168.1c-0.4,0-0.7-0.4-0.7-0.8l0,0l0,0l0,0c0-0.4,0.4-0.7,0.8-0.7l0,0c0.4,0,0.7,0.4,0.7,0.8h0
		C284.4,167.8,284.1,168.1,283.6,168.1L283.6,168.1C283.7,168.1,283.6,168.1,283.6,168.1z M14.7,167.2c0-0.4,0.3-0.8,0.7-0.8l0,0
		c0.4,0,0.8,0.3,0.8,0.7l0,0c0,0.4-0.3,0.8-0.7,0.8l0,0c0,0,0,0-0.1,0l0,0C15.1,167.8,14.7,167.5,14.7,167.2z M283.8,165.6
		c-0.4,0-0.7-0.4-0.7-0.8l0,0l0,0l0,0c0-0.4,0.4-0.7,0.8-0.7l0,0c0.4,0,0.7,0.4,0.7,0.8l0,0C284.6,165.3,284.2,165.6,283.8,165.6
		L283.8,165.6C283.8,165.6,283.8,165.6,283.8,165.6z M14.6,164.7L14.6,164.7c0-0.4,0.3-0.8,0.7-0.8l0,0c0.4,0,0.8,0.3,0.8,0.7l0,0
		c0,0,0,0,0,0l0,0c0,0.4-0.3,0.8-0.7,0.8l0,0c0,0,0,0,0,0l0,0C14.9,165.4,14.6,165.1,14.6,164.7z M283.9,163.2
		c-0.4,0-0.7-0.4-0.7-0.8l0,0c0-0.4,0.4-0.7,0.8-0.7l0,0c0.4,0,0.7,0.4,0.7,0.8l0,0C284.7,162.8,284.4,163.2,283.9,163.2
		L283.9,163.2C284,163.2,283.9,163.2,283.9,163.2z M14.4,162.2c0-0.4,0.3-0.8,0.7-0.8l0,0c0.4,0,0.8,0.3,0.8,0.7l0,0c0,0,0,0,0,0
		l0,0c0,0.4-0.3,0.8-0.7,0.8l0,0c0,0,0,0,0,0l0,0C14.8,162.9,14.5,162.6,14.4,162.2z M284,160.7c-0.4,0-0.7-0.3-0.7-0.8l0,0
		c0,0,0,0,0,0l0,0c0-0.4,0.3-0.7,0.8-0.7l0,0c0.4,0,0.7,0.4,0.7,0.8l0,0C284.8,160.3,284.4,160.7,284,160.7L284,160.7
		C284,160.7,284,160.7,284,160.7z M14.4,159.7c0-0.4,0.3-0.7,0.7-0.8l0,0c0.4,0,0.8,0.3,0.8,0.7l0,0c0,0.4-0.3,0.7-0.7,0.8l0,0
		c0,0,0,0,0,0l0,0C14.7,160.4,14.4,160.1,14.4,159.7z M284.1,158.2c-0.4,0-0.7-0.3-0.7-0.7l0,0c0,0,0-0.1,0-0.1l0,0c0,0,0-0.1,0-0.1
		l0,0c0-0.4,0.3-0.7,0.7-0.7l0,0c0.4,0,0.7,0.3,0.7,0.7l0,0c0,0,0,0.1,0,0.1l0,0c0,0,0,0.1,0,0.1l0,0
		C284.8,157.9,284.5,158.2,284.1,158.2L284.1,158.2L284.1,158.2z M14.4,157.2c0-0.4,0.3-0.7,0.7-0.7l0,0c0.4,0,0.7,0.3,0.7,0.7l0,0
		c0,0.4-0.3,0.7-0.7,0.7l0,0C14.7,157.9,14.4,157.6,14.4,157.2z M283.3,154.8c0-0.4,0.3-0.7,0.7-0.8l0,0c0.4,0,0.7,0.3,0.8,0.7l0,0
		c0,0.4-0.3,0.7-0.7,0.8l0,0c0,0,0,0,0,0l0,0C283.6,155.5,283.3,155.2,283.3,154.8z M15.1,155.4c-0.4,0-0.7-0.3-0.7-0.8l0,0
		c0-0.4,0.3-0.7,0.8-0.7l0,0c0.4,0,0.7,0.3,0.7,0.8l0,0c0,0,0,0,0,0l0,0C15.9,155.1,15.5,155.4,15.1,155.4L15.1,155.4
		C15.1,155.4,15.1,155.4,15.1,155.4z M283.2,152.3c0-0.4,0.3-0.8,0.7-0.8l0,0c0.4,0,0.8,0.3,0.8,0.7l0,0c0,0.4-0.3,0.8-0.7,0.8l0,0
		c0,0,0,0,0,0l0,0C283.6,153,283.2,152.7,283.2,152.3z M15.2,152.9c-0.4,0-0.7-0.4-0.7-0.8l0,0c0-0.4,0.4-0.7,0.8-0.7l0,0
		c0.4,0,0.7,0.4,0.7,0.8l0,0c0,0,0,0,0,0l0,0C15.9,152.6,15.6,152.9,15.2,152.9L15.2,152.9C15.2,152.9,15.2,152.9,15.2,152.9z
		 M283.1,149.9c0-0.4,0.3-0.8,0.7-0.8l0,0c0.4,0,0.8,0.3,0.8,0.7l0,0c0,0.4-0.3,0.8-0.7,0.8l0,0c0,0,0,0,0,0l0,0
		C283.5,150.6,283.1,150.2,283.1,149.9z M15.3,150.5c-0.4,0-0.7-0.4-0.7-0.8l0,0c0-0.4,0.4-0.7,0.8-0.7l0,0c0.4,0,0.7,0.4,0.7,0.8
		l0,0C16,150.2,15.7,150.5,15.3,150.5L15.3,150.5C15.3,150.5,15.3,150.5,15.3,150.5z M283,147.4c0-0.4,0.3-0.8,0.7-0.8l0,0
		c0.4,0,0.8,0.3,0.8,0.7l0,0c0,0.4-0.3,0.8-0.7,0.8l0,0c0,0,0,0,0,0l0,0C283.3,148.1,283,147.8,283,147.4z M15.4,148
		c-0.4,0-0.7-0.4-0.7-0.8l0,0c0-0.4,0.4-0.7,0.8-0.7l0,0c0.4,0,0.7,0.4,0.7,0.8l0,0C16.2,147.7,15.9,148,15.4,148L15.4,148
		C15.5,148,15.4,148,15.4,148z M282.8,144.9c0-0.4,0.3-0.8,0.7-0.8l0,0c0.4,0,0.8,0.3,0.8,0.7l0,0c0,0.4-0.3,0.8-0.7,0.8l0,0
		c0,0,0,0-0.1,0l0,0C283.1,145.6,282.8,145.3,282.8,144.9z M15.6,145.5c-0.4,0-0.7-0.4-0.7-0.8l0,0c0-0.4,0.4-0.7,0.8-0.7l0,0
		c0.4,0,0.7,0.4,0.7,0.8l0,0C16.4,145.2,16.1,145.5,15.6,145.5L15.6,145.5C15.7,145.5,15.6,145.5,15.6,145.5z M282.5,142.5
		c0-0.4,0.3-0.8,0.7-0.8l0,0c0.4,0,0.8,0.2,0.8,0.7h0c0,0.4-0.3,0.8-0.7,0.8l0,0c0,0-0.1,0-0.1,0l0,0
		C282.9,143.1,282.5,142.8,282.5,142.5z M15.8,143c-0.4,0-0.7-0.4-0.7-0.8h0c0-0.4,0.4-0.7,0.8-0.7l0,0c0.4,0,0.7,0.4,0.7,0.8l0,0
		C16.6,142.8,16.3,143,15.8,143L15.8,143C15.9,143,15.9,143,15.8,143z M282.2,140L282.2,140L282.2,140c0-0.4,0.2-0.8,0.6-0.8l0,0
		c0.4,0,0.8,0.2,0.8,0.6l0,0c0,0.4-0.2,0.8-0.6,0.8l0,0c0,0-0.1,0-0.1,0l0,0C282.6,140.7,282.3,140.4,282.2,140z M16.1,140.6
		c-0.4-0.1-0.7-0.4-0.6-0.8l0,0c0.1-0.4,0.4-0.7,0.8-0.6l0,0c0.4,0.1,0.7,0.4,0.6,0.8l0,0C16.9,140.3,16.6,140.6,16.1,140.6
		L16.1,140.6C16.2,140.6,16.2,140.6,16.1,140.6z M281.9,137.6C281.9,137.6,281.9,137.6,281.9,137.6L281.9,137.6
		c-0.1-0.4,0.2-0.8,0.6-0.8l0,0c0.4-0.1,0.8,0.2,0.8,0.6l0,0c0.1,0.4-0.2,0.8-0.6,0.8l0,0c0,0-0.1,0-0.1,0l0,0
		C282.2,138.2,281.9,137.9,281.9,137.6z M16.5,138.1c-0.4-0.1-0.7-0.4-0.6-0.8l0,0c0.1-0.4,0.4-0.7,0.8-0.6l0,0
		c0.4,0.1,0.7,0.4,0.6,0.8l0,0c-0.1,0.4-0.4,0.6-0.7,0.6l0,0C16.5,138.1,16.5,138.1,16.5,138.1z M281.5,135.1L281.5,135.1
		L281.5,135.1c-0.1-0.4,0.2-0.8,0.6-0.9l0,0c0.4-0.1,0.8,0.2,0.9,0.6l0,0c0.1,0.4-0.2,0.8-0.6,0.9l0,0c0,0-0.1,0-0.1,0l0,0
		C281.9,135.7,281.6,135.5,281.5,135.1z M16.8,135.6c-0.4-0.1-0.7-0.5-0.6-0.9l0,0c0.1-0.4,0.5-0.7,0.9-0.6l0,0
		c0.4,0.1,0.7,0.5,0.6,0.9l0,0l0,0l0,0c-0.1,0.4-0.4,0.6-0.7,0.6l0,0C16.9,135.7,16.9,135.7,16.8,135.6z M281.1,132.7
		c-0.1-0.4,0.2-0.8,0.6-0.9l0,0c0.4-0.1,0.8,0.2,0.9,0.6l0,0c0.1,0.4-0.2,0.8-0.6,0.9l0,0c0,0-0.1,0-0.1,0l0,0
		C281.4,133.3,281.1,133,281.1,132.7z M17.2,133.2c-0.4-0.1-0.7-0.5-0.6-0.9l0,0c0.1-0.4,0.5-0.7,0.9-0.6l0,0
		c0.4,0.1,0.7,0.5,0.6,0.9l0,0l0,0l0,0c-0.1,0.4-0.4,0.6-0.7,0.6l0,0C17.3,133.2,17.3,133.2,17.2,133.2z M280.6,130.3L280.6,130.3
		L280.6,130.3c-0.1-0.4,0.2-0.8,0.6-0.9l0,0c0.4-0.1,0.8,0.2,0.9,0.6v0c0.1,0.4-0.2,0.8-0.6,0.9l0,0c0,0-0.1,0-0.1,0l0,0
		C281,130.9,280.7,130.6,280.6,130.3z M17.7,130.8c-0.4-0.1-0.7-0.5-0.6-0.9l0,0c0.1-0.4,0.5-0.7,0.9-0.6l0,0
		c0.4,0.1,0.7,0.5,0.6,0.9l0,0l0,0l0,0c-0.1,0.4-0.4,0.6-0.7,0.6l0,0C17.8,130.8,17.8,130.8,17.7,130.8z M280.1,127.8L280.1,127.8
		L280.1,127.8c-0.1-0.4,0.2-0.8,0.6-0.9l0,0c0.4-0.1,0.8,0.2,0.9,0.6l0,0c0.1,0.4-0.2,0.8-0.6,0.9l0,0c-0.1,0-0.1,0-0.2,0l0,0
		C280.5,128.4,280.1,128.2,280.1,127.8z M18.2,128.3c-0.4-0.1-0.7-0.5-0.6-0.9l0,0c0.1-0.4,0.5-0.7,0.9-0.6l0,0
		c0.4,0.1,0.7,0.5,0.6,0.9l0,0c-0.1,0.3-0.4,0.6-0.7,0.6l0,0C18.3,128.3,18.3,128.3,18.2,128.3z M279.5,125.4
		c-0.1-0.4,0.1-0.8,0.5-0.9l0,0c0.4-0.1,0.8,0.1,0.9,0.5l0,0c0.1,0.4-0.1,0.8-0.5,0.9l0,0c-0.1,0-0.1,0-0.2,0l0,0
		C279.9,126,279.6,125.8,279.5,125.4z M18.8,125.9c-0.4-0.1-0.6-0.5-0.5-0.9l0,0c0.1-0.4,0.5-0.6,0.9-0.5l0,0
		c0.4,0.1,0.6,0.5,0.5,0.9l0,0c-0.1,0.3-0.4,0.6-0.7,0.6l0,0C18.9,125.9,18.8,125.9,18.8,125.9z M278.9,123
		c-0.1-0.4,0.1-0.8,0.5-0.9l0,0c0.4-0.1,0.8,0.1,0.9,0.5l0,0c0.1,0.4-0.1,0.8-0.5,0.9l0,0c-0.1,0-0.1,0-0.2,0l0,0
		C279.3,123.6,279,123.4,278.9,123z M19.4,123.5c-0.4-0.1-0.6-0.5-0.5-0.9l0,0c0.1-0.4,0.5-0.6,0.9-0.5l0,0c0.4,0.1,0.6,0.5,0.5,0.9
		l0,0c-0.1,0.3-0.4,0.6-0.7,0.6l0,0C19.5,123.5,19.4,123.5,19.4,123.5z M278.2,120.7C278.2,120.7,278.2,120.7,278.2,120.7
		L278.2,120.7c-0.1-0.4,0.1-0.8,0.5-0.9l0,0c0.4-0.1,0.8,0.1,0.9,0.5l0,0c0.1,0.4-0.1,0.8-0.5,0.9l0,0c-0.1,0-0.1,0-0.2,0l0,0
		C278.6,121.2,278.3,121,278.2,120.7z M20,121.1c-0.4-0.1-0.6-0.5-0.5-0.9h0c0.1-0.4,0.5-0.6,0.9-0.5l0,0c0.4,0.1,0.6,0.5,0.5,0.9
		l0,0c-0.1,0.3-0.4,0.5-0.7,0.5l0,0C20.2,121.1,20.1,121.1,20,121.1z M277.5,118.3L277.5,118.3L277.5,118.3
		c-0.1-0.4,0.1-0.8,0.5-0.9l0,0c0.4-0.1,0.8,0.1,0.9,0.5l0,0c0.1,0.4-0.1,0.8-0.5,0.9l0,0c-0.1,0-0.1,0-0.2,0l0,0
		C277.9,118.8,277.6,118.6,277.5,118.3z M20.7,118.7c-0.4-0.1-0.6-0.5-0.5-0.9l0,0c0.1-0.4,0.5-0.6,0.9-0.5l0,0
		c0.4,0.1,0.6,0.5,0.5,0.9l0,0c-0.1,0.3-0.4,0.5-0.7,0.5l0,0C20.9,118.7,20.8,118.7,20.7,118.7z M276.8,115.9
		c-0.1-0.4,0.1-0.8,0.5-0.9l0,0c0.4-0.1,0.8,0.1,0.9,0.5l0,0c0.1,0.4-0.1,0.8-0.5,0.9l0,0c-0.1,0-0.2,0-0.2,0l0,0
		C277.2,116.4,276.9,116.2,276.8,115.9z M21.4,116.3c-0.4-0.1-0.6-0.6-0.5-0.9l0,0c0.1-0.4,0.5-0.6,0.9-0.5l0,0
		c0.4,0.1,0.6,0.5,0.5,0.9l0,0c-0.1,0.3-0.4,0.5-0.7,0.5l0,0C21.6,116.4,21.5,116.4,21.4,116.3z M276,113.6
		c-0.1-0.4,0.1-0.8,0.5-0.9l0,0c0.4-0.1,0.8,0.1,0.9,0.5v0c0.1,0.4-0.1,0.8-0.5,0.9l0,0c-0.1,0-0.2,0-0.2,0l0,0
		C276.4,114.1,276.1,113.9,276,113.6z M22.2,114c-0.4-0.1-0.6-0.6-0.5-0.9l0,0c0.1-0.4,0.6-0.6,0.9-0.5l0,0c0.4,0.1,0.6,0.6,0.5,0.9
		l0,0l0,0l0,0c-0.1,0.3-0.4,0.5-0.7,0.5l0,0C22.4,114,22.3,114,22.2,114z M275.2,111.2c-0.1-0.4,0.1-0.8,0.4-1l0,0
		c0.4-0.1,0.8,0.1,1,0.4l0,0c0.1,0.4-0.1,0.8-0.4,1l0,0c-0.1,0-0.2,0-0.3,0l0,0C275.6,111.7,275.3,111.5,275.2,111.2z M23,111.6
		c-0.4-0.1-0.6-0.6-0.4-1l0,0c0.1-0.4,0.6-0.6,1-0.4l0,0c0.4,0.1,0.6,0.6,0.4,1l0,0c-0.1,0.3-0.4,0.5-0.7,0.5l0,0
		C23.2,111.7,23.1,111.7,23,111.6z M274.3,108.9c-0.1-0.4,0-0.8,0.4-1l0,0c0.4-0.1,0.8,0,1,0.4v0c0.1,0.4,0,0.8-0.4,1l0,0
		c-0.1,0-0.2,0-0.3,0l0,0C274.7,109.4,274.4,109.2,274.3,108.9z M23.9,109.3c-0.4-0.1-0.6-0.6-0.4-1l0,0c0.1-0.4,0.6-0.6,1-0.4l0,0
		c0.4,0.1,0.6,0.6,0.4,1l0,0l0,0l0,0c-0.1,0.3-0.4,0.5-0.7,0.5l0,0C24.1,109.3,24,109.3,23.9,109.3z M273.4,106.6L273.4,106.6
		L273.4,106.6c-0.2-0.4,0-0.8,0.4-1l0,0c0.4-0.2,0.8,0,1,0.4l0,0c0.2,0.4,0,0.8-0.4,1l0,0c-0.1,0-0.2,0.1-0.3,0.1l0,0
		C273.8,107.1,273.5,106.9,273.4,106.6z M24.8,107c-0.4-0.2-0.6-0.6-0.4-1l0,0c0.2-0.4,0.6-0.6,1-0.4l0,0c0.4,0.2,0.6,0.6,0.4,1l0,0
		c-0.1,0.3-0.4,0.5-0.7,0.5l0,0C25,107,24.9,107,24.8,107z M272.4,104.3c-0.2-0.4,0-0.8,0.4-1l0,0c0.4-0.2,0.8,0,1,0.4l0,0
		c0.2,0.4,0,0.8-0.4,1l0,0c-0.1,0-0.2,0.1-0.3,0.1l0,0C272.8,104.8,272.6,104.6,272.4,104.3z M25.8,104.7c-0.4-0.2-0.6-0.6-0.4-1h0
		c0.2-0.4,0.6-0.6,1-0.4l0,0c0.4,0.2,0.6,0.6,0.4,1l0,0c-0.1,0.3-0.4,0.5-0.7,0.5l0,0C26,104.8,25.9,104.7,25.8,104.7z M271.4,102.1
		c-0.2-0.4,0-0.8,0.4-1l0,0c0.4-0.2,0.8,0,1,0.4l0,0c0.2,0.4,0,0.8-0.4,1l0,0c-0.1,0-0.2,0.1-0.3,0.1l0,0
		C271.8,102.5,271.6,102.3,271.4,102.1z M26.8,102.4c-0.4-0.2-0.5-0.6-0.4-1l0,0c0.2-0.4,0.6-0.5,1-0.4l0,0c0.4,0.2,0.5,0.6,0.4,1
		l0,0c-0.1,0.3-0.4,0.4-0.7,0.4l0,0C27,102.5,26.9,102.5,26.8,102.4z M27.8,100.2c-0.4-0.2-0.5-0.6-0.4-1l0,0c0.2-0.4,0.6-0.5,1-0.4
		l0,0c0.4,0.2,0.5,0.6,0.4,1l0,0l0,0l0,0c-0.1,0.3-0.4,0.4-0.7,0.4l0,0C28,100.2,27.9,100.2,27.8,100.2z M270.4,99.8
		c-0.2-0.4,0-0.8,0.3-1l0,0c0.4-0.2,0.8,0,1,0.4l0,0c0.2,0.4,0,0.8-0.4,1l0,0c-0.1,0-0.2,0.1-0.3,0.1l0,0
		C270.8,100.2,270.5,100.1,270.4,99.8z M28.9,97.9c-0.4-0.2-0.5-0.6-0.3-1l0,0c0.2-0.4,0.6-0.5,1-0.3l0,0c0.4,0.2,0.5,0.6,0.3,1l0,0
		c-0.1,0.3-0.4,0.4-0.7,0.4l0,0C29.1,98,29,98,28.9,97.9z M269.3,97.6c-0.2-0.4,0-0.8,0.3-1l0,0c0.4-0.2,0.8,0,1,0.3l0,0
		c0.2,0.4,0,0.8-0.3,1l0,0c-0.1,0-0.2,0.1-0.3,0.1l0,0C269.7,98,269.4,97.8,269.3,97.6z M30,95.7c-0.4-0.2-0.5-0.6-0.3-1l0,0
		c0.2-0.4,0.6-0.5,1-0.3l0,0c0.4,0.2,0.5,0.6,0.3,1l0,0c-0.1,0.3-0.4,0.4-0.7,0.4l0,0C30.2,95.8,30.1,95.8,30,95.7z M268.2,95.4
		c-0.2-0.4,0-0.8,0.3-1l0,0c0.4-0.2,0.8,0,1,0.3l0,0c0.2,0.4,0,0.8-0.3,1l0,0c-0.1,0.1-0.2,0.1-0.3,0.1l0,0
		C268.6,95.8,268.3,95.6,268.2,95.4z M31.1,93.5c-0.4-0.2-0.5-0.7-0.3-1l0,0c0.2-0.4,0.7-0.5,1-0.3l0,0c0.4,0.2,0.5,0.6,0.3,1l0,0
		l0,0l0,0c-0.1,0.2-0.4,0.4-0.7,0.4l0,0C31.4,93.6,31.2,93.6,31.1,93.5z M267,93.2c-0.2-0.4-0.1-0.8,0.3-1l0,0
		c0.4-0.2,0.8-0.1,1,0.3l0,0c0.2,0.4,0.1,0.8-0.3,1l0,0c-0.1,0.1-0.2,0.1-0.4,0.1l0,0C267.4,93.6,267.1,93.4,267,93.2z M32.3,91.4
		c-0.4-0.2-0.5-0.7-0.3-1l0,0c0.2-0.4,0.7-0.5,1-0.3l0,0c0.4,0.2,0.5,0.7,0.3,1l0,0l0,0l0,0c-0.1,0.2-0.4,0.4-0.6,0.4l0,0
		C32.6,91.5,32.4,91.4,32.3,91.4z M265.8,91L265.8,91L265.8,91c-0.2-0.4-0.1-0.8,0.3-1l0,0c0.4-0.2,0.8-0.1,1,0.3l0,0
		c0.2,0.4,0.1,0.8-0.3,1l0,0c-0.1,0.1-0.2,0.1-0.4,0.1l0,0C266.2,91.4,265.9,91.3,265.8,91z M33.6,89.2c-0.4-0.2-0.5-0.7-0.3-1l0,0
		c0.2-0.4,0.7-0.5,1-0.3l0,0c0.4,0.2,0.5,0.7,0.3,1l0,0l0,0l0,0c-0.1,0.2-0.4,0.4-0.6,0.4l0,0C33.8,89.3,33.7,89.3,33.6,89.2z
		 M264.5,88.9L264.5,88.9L264.5,88.9c-0.2-0.4-0.1-0.8,0.3-1l0,0c0.4-0.2,0.8-0.1,1,0.3v0c0.2,0.4,0.1,0.8-0.3,1l0,0
		c-0.1,0.1-0.2,0.1-0.4,0.1l0,0C264.9,89.3,264.7,89.1,264.5,88.9z M34.8,87.1c-0.4-0.2-0.5-0.7-0.2-1l0,0c0.2-0.4,0.7-0.5,1-0.2
		l0,0c0.3,0.2,0.5,0.7,0.2,1l0,0c-0.1,0.2-0.4,0.4-0.6,0.4l0,0C35.1,87.2,35,87.2,34.8,87.1z M263.3,86.8
		C263.3,86.8,263.3,86.8,263.3,86.8L263.3,86.8c-0.2-0.3-0.1-0.8,0.2-1l0,0c0.3-0.2,0.8-0.1,1,0.2l0,0c0.2,0.4,0.1,0.8-0.2,1l0,0
		c-0.1,0.1-0.3,0.1-0.4,0.1l0,0C263.6,87.1,263.4,87,263.3,86.8z M36.1,85c-0.3-0.2-0.4-0.7-0.2-1l0,0c0.2-0.3,0.7-0.4,1-0.2l0,0
		c0.3,0.2,0.4,0.7,0.2,1l0,0c-0.1,0.2-0.4,0.3-0.6,0.3l0,0C36.4,85.1,36.3,85.1,36.1,85z M261.9,84.7L261.9,84.7L261.9,84.7
		c-0.2-0.3-0.1-0.8,0.2-1l0,0c0.3-0.2,0.8-0.1,1,0.2l0,0c0.2,0.3,0.1,0.8-0.2,1l0,0c-0.1,0.1-0.3,0.1-0.4,0.1l0,0
		C262.3,85,262.1,84.9,261.9,84.7z M37.5,82.9c-0.3-0.2-0.4-0.7-0.2-1l0,0c0.2-0.3,0.7-0.4,1-0.2l0,0c0.3,0.2,0.4,0.7,0.2,1l0,0
		c0,0,0,0,0,0l0,0c-0.1,0.2-0.4,0.3-0.6,0.3l0,0C37.8,83,37.6,83,37.5,82.9z M260.6,82.6c-0.2-0.3-0.1-0.8,0.2-1l0,0
		c0.3-0.2,0.8-0.1,1,0.2l0,0c0.2,0.3,0.1,0.8-0.2,1l0,0c-0.1,0.1-0.3,0.1-0.4,0.1l0,0C261,83,260.7,82.8,260.6,82.6z M38.9,80.9
		c-0.3-0.2-0.4-0.7-0.2-1l0,0c0.2-0.3,0.7-0.4,1-0.2l0,0c0.3,0.2,0.4,0.7,0.2,1l0,0l0,0l0,0c-0.1,0.2-0.4,0.3-0.6,0.3l0,0
		C39.2,81,39,80.9,38.9,80.9z M259.2,80.6L259.2,80.6L259.2,80.6c-0.2-0.3-0.2-0.8,0.2-1l0,0c0.3-0.2,0.8-0.2,1,0.2v0
		c0.2,0.3,0.2,0.8-0.2,1l0,0c-0.1,0.1-0.3,0.1-0.4,0.1l0,0C259.5,80.9,259.3,80.8,259.2,80.6z M40.3,78.8c-0.3-0.2-0.4-0.7-0.2-1
		l0,0c0.2-0.3,0.7-0.4,1-0.2l0,0c0.3,0.2,0.4,0.7,0.2,1l0,0C41.2,78.9,41,79,40.8,79l0,0C40.6,79,40.5,78.9,40.3,78.8z M257.7,78.6
		L257.7,78.6L257.7,78.6c-0.2-0.3-0.2-0.8,0.2-1l0,0c0.3-0.2,0.8-0.2,1,0.2l0,0c0.2,0.3,0.2,0.8-0.2,1l0,0c-0.1,0.1-0.3,0.1-0.4,0.1
		l0,0C258.1,78.9,257.9,78.8,257.7,78.6z M41.8,76.8c-0.3-0.2-0.4-0.7-0.1-1l0,0c0.2-0.3,0.7-0.4,1-0.1l0,0c0.3,0.2,0.4,0.7,0.1,1
		l0,0c-0.1,0.2-0.4,0.3-0.6,0.3l0,0C42.1,77,41.9,76.9,41.8,76.8z M256.3,76.6L256.3,76.6L256.3,76.6c-0.2-0.3-0.2-0.8,0.1-1l0,0
		c0.3-0.2,0.8-0.2,1,0.1v0c0.2,0.3,0.2,0.8-0.1,1l0,0c-0.1,0.1-0.3,0.1-0.5,0.1l0,0C256.6,76.9,256.4,76.8,256.3,76.6z M43.3,74.9
		c-0.3-0.3-0.4-0.7-0.1-1l0,0c0.3-0.3,0.7-0.4,1-0.1l0,0c0.3,0.3,0.4,0.7,0.1,1l0,0C44.2,74.9,44,75,43.8,75l0,0
		C43.6,75,43.4,75,43.3,74.9z M254.7,74.6c-0.3-0.3-0.2-0.8,0.1-1l0,0c0.3-0.3,0.8-0.2,1,0.1l0,0c0.3,0.3,0.2,0.8-0.1,1l0,0
		c-0.1,0.1-0.3,0.2-0.5,0.2l0,0C255.1,74.9,254.9,74.8,254.7,74.6z M44.8,72.9c-0.3-0.3-0.4-0.7-0.1-1l0,0c0.3-0.3,0.7-0.4,1-0.1
		l0,0c0.3,0.3,0.4,0.7,0.1,1l0,0l0,0l0,0c-0.1,0.2-0.4,0.3-0.6,0.3l0,0C45.1,73.1,45,73,44.8,72.9z M253.2,72.7L253.2,72.7
		L253.2,72.7c-0.3-0.3-0.2-0.8,0.1-1l0,0c0.3-0.3,0.8-0.2,1,0.1l0,0c0.3,0.3,0.2,0.8-0.1,1l0,0c-0.1,0.1-0.3,0.2-0.5,0.2l0,0
		C253.6,73,253.3,72.9,253.2,72.7z M46.4,71c-0.3-0.3-0.4-0.7-0.1-1l0,0c0.3-0.3,0.7-0.4,1.1-0.1l0,0c0.3,0.3,0.4,0.7,0.1,1.1l0,0
		c-0.1,0.2-0.4,0.3-0.6,0.3l0,0C46.7,71.2,46.6,71.1,46.4,71z M251.6,70.8C251.6,70.8,251.6,70.8,251.6,70.8L251.6,70.8
		c-0.3-0.3-0.2-0.8,0.1-1.1l0,0c0.3-0.3,0.8-0.2,1,0.1l0,0c0.3,0.3,0.2,0.8-0.1,1l0,0c-0.1,0.1-0.3,0.2-0.5,0.2l0,0
		C252,71.1,251.8,71,251.6,70.8z M48,69.1c-0.3-0.3-0.3-0.7-0.1-1.1l0,0c0.3-0.3,0.7-0.3,1-0.1l0,0c0.3,0.3,0.3,0.7,0.1,1.1l0,0
		c-0.1,0.2-0.4,0.3-0.6,0.3l0,0C48.3,69.3,48.2,69.2,48,69.1z M250,68.9L250,68.9L250,68.9c-0.3-0.3-0.2-0.8,0.1-1.1l0,0
		c0.3-0.3,0.8-0.2,1,0.1l0,0c0.3,0.3,0.2,0.8-0.1,1l0,0c-0.1,0.1-0.3,0.2-0.5,0.2l0,0C250.4,69.2,250.2,69.1,250,68.9z M49.7,67.2
		c-0.3-0.3-0.3-0.7,0-1.1v0c0.3-0.3,0.7-0.3,1.1,0l0,0c0.3,0.3,0.3,0.7,0,1l0,0c-0.1,0.2-0.4,0.2-0.6,0.2l0,0
		C50,67.4,49.8,67.4,49.7,67.2z M248.4,67.1L248.4,67.1L248.4,67.1c-0.3-0.3-0.3-0.8,0-1.1l0,0c0.3-0.3,0.8-0.3,1.1,0l0,0
		c0.3,0.3,0.3,0.8,0,1.1l0,0c-0.1,0.1-0.3,0.2-0.5,0.2l0,0C248.7,67.3,248.5,67.3,248.4,67.1z M51.4,65.4c-0.3-0.3-0.3-0.8,0-1.1
		l0,0c0.3-0.3,0.8-0.3,1.1,0l0,0c0.3,0.3,0.3,0.8,0,1.1l0,0l0,0l0,0c-0.1,0.2-0.3,0.2-0.5,0.2l0,0C51.7,65.6,51.5,65.5,51.4,65.4z
		 M246.7,65.3L246.7,65.3L246.7,65.3c-0.3-0.3-0.3-0.8,0-1.1l0,0c0.3-0.3,0.8-0.3,1.1,0l0,0c0.3,0.3,0.3,0.8,0,1.1l0,0
		c-0.1,0.1-0.3,0.2-0.5,0.2l0,0C247,65.5,246.8,65.4,246.7,65.3z M53.1,63.6c-0.3-0.3-0.3-0.8,0-1.1l0,0c0.3-0.3,0.8-0.3,1.1,0l0,0
		c0.3,0.3,0.3,0.8,0,1.1l0,0c-0.1,0.1-0.3,0.2-0.5,0.2l0,0C53.4,63.8,53.2,63.8,53.1,63.6z M245,63.5L245,63.5L245,63.5
		c-0.3-0.3-0.3-0.8,0-1.1l0,0c0.3-0.3,0.8-0.3,1.1,0l0,0c0.3,0.3,0.3,0.8,0,1.1l0,0c-0.1,0.1-0.3,0.2-0.5,0.2l0,0
		C245.3,63.7,245.1,63.7,245,63.5z M54.8,61.8c-0.3-0.3-0.3-0.8,0-1.1h0c0.3-0.3,0.8-0.3,1.1,0l0,0c0.3,0.3,0.3,0.8,0,1.1l0,0
		c-0.1,0.1-0.3,0.2-0.5,0.2l0,0C55.2,62.1,55,62,54.8,61.8z M243.2,61.8C243.2,61.8,243.2,61.8,243.2,61.8L243.2,61.8
		c-0.3-0.3-0.3-0.8,0-1.1l0,0c0.3-0.3,0.8-0.3,1.1,0h0c0.3,0.3,0.3,0.8,0,1.1l0,0c-0.1,0.1-0.3,0.2-0.5,0.2l0,0
		C243.5,62,243.3,61.9,243.2,61.8z M56.6,60.1c-0.3-0.3-0.3-0.8,0-1.1h0c0.3-0.3,0.8-0.3,1.1,0l0,0c0.3,0.3,0.3,0.8,0,1.1l0,0
		c0,0,0,0,0,0l0,0c-0.1,0.1-0.3,0.2-0.5,0.2l0,0C56.9,60.3,56.7,60.3,56.6,60.1z M241.4,60.1c-0.3-0.3-0.3-0.8,0-1.1l0,0
		c0.3-0.3,0.8-0.3,1.1,0l0,0c0.3,0.3,0.3,0.8,0,1.1l0,0c-0.1,0.2-0.3,0.2-0.5,0.2l0,0C241.8,60.3,241.6,60.2,241.4,60.1z M58.4,58.4
		c-0.3-0.3-0.3-0.8,0-1.1l0,0c0.3-0.3,0.8-0.3,1.1,0l0,0c0.3,0.3,0.3,0.8,0,1.1l0,0l0,0l0,0c-0.1,0.1-0.3,0.2-0.5,0.2l0,0
		C58.7,58.7,58.5,58.6,58.4,58.4z M239.6,58.4C239.6,58.4,239.6,58.4,239.6,58.4L239.6,58.4c-0.3-0.3-0.3-0.7,0-1.1l0,0
		c0.3-0.3,0.7-0.3,1.1,0v0c0.3,0.3,0.3,0.7,0,1.1l0,0c-0.1,0.2-0.3,0.2-0.6,0.2l0,0C239.9,58.6,239.8,58.5,239.6,58.4z M60.2,56.7
		C60,56.4,60,56,60.3,55.7l0,0c0.3-0.3,0.8-0.2,1.1,0.1l0,0c0.3,0.3,0.2,0.8-0.1,1.1l0,0C61.2,56.9,61,57,60.8,57l0,0
		C60.6,57,60.4,56.9,60.2,56.7z M237.8,56.7c-0.3-0.3-0.3-0.7-0.1-1.1l0,0c0.3-0.3,0.7-0.3,1.1-0.1l0,0c0.3,0.3,0.3,0.7,0.1,1.1l0,0
		c-0.1,0.2-0.4,0.3-0.6,0.3l0,0C238.1,56.9,237.9,56.9,237.8,56.7z M62.1,55.1c-0.3-0.3-0.2-0.8,0.1-1.1l0,0c0.3-0.3,0.8-0.2,1,0.1
		l0,0c0.3,0.3,0.2,0.8-0.1,1l0,0c-0.1,0.1-0.3,0.2-0.5,0.2l0,0C62.5,55.4,62.3,55.3,62.1,55.1z M235.9,55.1c-0.3-0.3-0.4-0.7-0.1-1
		l0,0c0.3-0.3,0.7-0.4,1-0.1l0,0c0.3,0.3,0.4,0.7,0.1,1.1l0,0c-0.1,0.2-0.4,0.3-0.6,0.3l0,0C236.2,55.3,236,55.2,235.9,55.1z
		 M64,53.5c-0.3-0.3-0.2-0.8,0.1-1l0,0c0.3-0.3,0.8-0.2,1.1,0.1l0,0c0.3,0.3,0.2,0.8-0.1,1l0,0l0,0l0,0c-0.1,0.1-0.3,0.2-0.5,0.2
		l0,0C64.4,53.8,64.2,53.7,64,53.5z M234,53.5L234,53.5L234,53.5c-0.3-0.3-0.4-0.7-0.1-1l0,0c0.3-0.3,0.7-0.4,1-0.1l0,0
		c0.3,0.3,0.4,0.7,0.1,1l0,0c-0.1,0.2-0.4,0.3-0.6,0.3l0,0C234.3,53.7,234.1,53.6,234,53.5z M65.9,51.9c-0.3-0.3-0.2-0.8,0.1-1l0,0
		c0.3-0.3,0.8-0.2,1,0.1l0,0c0.3,0.3,0.2,0.8-0.1,1l0,0c-0.1,0.1-0.3,0.2-0.5,0.2l0,0C66.3,52.2,66.1,52.1,65.9,51.9z M232.1,52
		c-0.3-0.3-0.4-0.7-0.1-1l0,0c0.3-0.3,0.7-0.4,1-0.1l0,0c0.3,0.3,0.4,0.7,0.1,1l0,0c-0.1,0.2-0.4,0.3-0.6,0.3l0,0
		C232.4,52.2,232.2,52.1,232.1,52z M67.9,50.4c-0.2-0.3-0.2-0.8,0.1-1l0,0c0.3-0.2,0.8-0.2,1,0.1l0,0c0.2,0.3,0.2,0.8-0.1,1l0,0
		c-0.1,0.1-0.3,0.1-0.5,0.1l0,0C68.3,50.7,68.1,50.6,67.9,50.4z M230.1,50.5c-0.3-0.2-0.4-0.7-0.1-1l0,0c0.2-0.3,0.7-0.4,1-0.1l0,0
		c0.3,0.2,0.4,0.7,0.1,1l0,0c-0.1,0.2-0.4,0.3-0.6,0.3l0,0C230.4,50.6,230.3,50.6,230.1,50.5z M69.9,48.9c-0.2-0.3-0.2-0.8,0.2-1
		l0,0c0.3-0.2,0.8-0.2,1,0.2l0,0c0.2,0.3,0.2,0.8-0.2,1l0,0c-0.1,0.1-0.3,0.1-0.4,0.1l0,0C70.3,49.2,70,49.1,69.9,48.9z M228.1,49
		c-0.3-0.2-0.4-0.7-0.2-1l0,0c0.2-0.3,0.7-0.4,1-0.2l0,0c0.3,0.2,0.4,0.7,0.2,1l0,0c-0.1,0.2-0.4,0.3-0.6,0.3l0,0
		C228.4,49.2,228.3,49.1,228.1,49z M71.9,47.5c-0.2-0.3-0.2-0.8,0.2-1l0,0c0.3-0.2,0.8-0.2,1,0.2l0,0c0.2,0.3,0.2,0.8-0.2,1l0,0
		c-0.1,0.1-0.3,0.1-0.4,0.1l0,0C72.3,47.8,72.1,47.7,71.9,47.5z M226.1,47.6L226.1,47.6L226.1,47.6c-0.3-0.2-0.4-0.7-0.2-1l0,0
		c0.2-0.3,0.7-0.4,1-0.2l0,0c0.3,0.2,0.4,0.7,0.2,1l0,0c-0.1,0.2-0.4,0.3-0.6,0.3l0,0C226.4,47.7,226.3,47.7,226.1,47.6z M74,46
		c-0.2-0.3-0.1-0.8,0.2-1l0,0c0.3-0.2,0.8-0.1,1,0.2l0,0c0.2,0.3,0.1,0.8-0.2,1l0,0c-0.1,0.1-0.3,0.1-0.4,0.1l0,0
		C74.3,46.4,74.1,46.3,74,46z M224.1,46.2c-0.3-0.2-0.4-0.7-0.2-1l0,0c0.2-0.3,0.7-0.4,1-0.2l0,0c0.3,0.2,0.4,0.7,0.2,1l0,0
		c-0.1,0.2-0.4,0.3-0.6,0.3l0,0C224.4,46.3,224.2,46.3,224.1,46.2z M76,44.7c-0.2-0.3-0.1-0.8,0.2-1l0,0c0.3-0.2,0.8-0.1,1,0.2l0,0
		c0.2,0.3,0.1,0.8-0.2,1l0,0C76.9,45,76.8,45,76.7,45l0,0C76.4,45,76.2,44.9,76,44.7z M222,44.8L222,44.8L222,44.8
		c-0.3-0.2-0.4-0.7-0.2-1l0,0c0.2-0.3,0.7-0.4,1-0.2l0,0c0.3,0.2,0.4,0.7,0.2,1l0,0c-0.1,0.2-0.4,0.3-0.6,0.3l0,0
		C222.3,45,222.2,44.9,222,44.8z M78.1,43.3c-0.2-0.3-0.1-0.8,0.2-1l0,0c0.3-0.2,0.8-0.1,1,0.2l0,0c0.2,0.3,0.1,0.8-0.2,1l0,0
		c-0.1,0.1-0.3,0.1-0.4,0.1l0,0C78.5,43.7,78.3,43.5,78.1,43.3z M219.9,43.5c-0.3-0.2-0.5-0.7-0.2-1l0,0c0.2-0.4,0.7-0.5,1-0.2l0,0
		c0.4,0.2,0.5,0.7,0.2,1l0,0c-0.1,0.2-0.4,0.4-0.6,0.4l0,0C220.2,43.6,220.1,43.6,219.9,43.5z M80.2,42c-0.2-0.4-0.1-0.8,0.3-1l0,0
		c0.4-0.2,0.8-0.1,1,0.3l0,0c0.2,0.4,0.1,0.8-0.3,1l0,0c-0.1,0.1-0.2,0.1-0.4,0.1l0,0C80.6,42.4,80.4,42.2,80.2,42z M217.8,42.2
		L217.8,42.2L217.8,42.2c-0.4-0.2-0.5-0.7-0.3-1l0,0c0.2-0.4,0.7-0.5,1-0.3l0,0c0.4,0.2,0.5,0.7,0.3,1l0,0c-0.1,0.2-0.4,0.4-0.6,0.4
		l0,0C218.1,42.3,218,42.3,217.8,42.2z M82.4,40.7c-0.2-0.4-0.1-0.8,0.3-1l0,0c0.4-0.2,0.8-0.1,1,0.3l0,0c0.2,0.4,0.1,0.8-0.3,1l0,0
		c0,0,0,0,0,0l0,0c-0.1,0.1-0.2,0.1-0.4,0.1l0,0C82.8,41.1,82.5,41,82.4,40.7z M215.7,41L215.7,41L215.7,41c-0.4-0.2-0.5-0.7-0.3-1
		l0,0c0.2-0.4,0.7-0.5,1-0.3l0,0c0.4,0.2,0.5,0.7,0.3,1l0,0c-0.1,0.2-0.4,0.4-0.7,0.4l0,0C216,41.1,215.8,41.1,215.7,41z M84.6,39.5
		c-0.2-0.4-0.1-0.8,0.3-1l0,0c0.4-0.2,0.8-0.1,1,0.3l0,0c0.2,0.4,0.1,0.8-0.3,1l0,0l0,0l0,0c-0.1,0.1-0.2,0.1-0.4,0.1l0,0
		C84.9,39.9,84.7,39.8,84.6,39.5z M213.6,39.8c-0.4-0.2-0.5-0.7-0.3-1l0,0c0.2-0.4,0.7-0.5,1-0.3l0,0c0.4,0.2,0.5,0.6,0.3,1l0,0
		c-0.1,0.2-0.4,0.4-0.7,0.4l0,0C213.8,39.9,213.7,39.9,213.6,39.8z M86.7,38.3c-0.2-0.4,0-0.8,0.3-1l0,0c0.4-0.2,0.8,0,1,0.3l0,0
		c0.2,0.4,0,0.8-0.3,1l0,0c-0.1,0.1-0.2,0.1-0.3,0.1l0,0C87.1,38.7,86.9,38.6,86.7,38.3z M211.4,38.6c-0.4-0.2-0.5-0.6-0.3-1l0,0
		c0.2-0.4,0.6-0.5,1-0.3v0c0.4,0.2,0.5,0.6,0.3,1l0,0c-0.1,0.3-0.4,0.4-0.7,0.4l0,0C211.6,38.7,211.5,38.7,211.4,38.6z M89,37.2
		c-0.2-0.4,0-0.8,0.3-1l0,0c0.4-0.2,0.8,0,1,0.3l0,0c0.2,0.4,0,0.8-0.3,1l0,0l0,0l0,0c-0.1,0-0.2,0.1-0.3,0.1l0,0
		C89.3,37.6,89.1,37.5,89,37.2z M209.2,37.5L209.2,37.5L209.2,37.5c-0.4-0.2-0.5-0.6-0.3-1l0,0c0.2-0.4,0.6-0.5,1-0.3l0,0
		c0.4,0.2,0.5,0.6,0.3,1l0,0c-0.1,0.3-0.4,0.4-0.7,0.4l0,0C209.4,37.6,209.3,37.6,209.2,37.5z M91.2,36.1c-0.2-0.4,0-0.8,0.4-1l0,0
		c0.4-0.2,0.8,0,1,0.4l0,0c0.2,0.4,0,0.8-0.4,1l0,0c-0.1,0-0.2,0.1-0.3,0.1l0,0C91.6,36.5,91.3,36.4,91.2,36.1z M207,36.4
		c-0.4-0.2-0.5-0.6-0.4-1l0,0c0.2-0.4,0.6-0.5,1-0.4l0,0c0.4,0.2,0.5,0.6,0.4,1l0,0c-0.1,0.3-0.4,0.4-0.7,0.4l0,0
		C207.2,36.5,207.1,36.5,207,36.4z M204.7,35.4c-0.4-0.2-0.5-0.6-0.4-1l0,0c0.2-0.4,0.6-0.5,1-0.4l0,0c0.4,0.2,0.5,0.6,0.4,1l0,0
		c-0.1,0.3-0.4,0.4-0.7,0.4l0,0C205,35.5,204.8,35.4,204.7,35.4z M93.4,35c-0.2-0.4,0-0.8,0.4-1l0,0c0.4-0.2,0.8,0,1,0.4l0,0
		c0.2,0.4,0,0.8-0.4,1l0,0c-0.1,0-0.2,0.1-0.3,0.1l0,0C93.8,35.5,93.6,35.3,93.4,35z M202.5,34.4c-0.4-0.2-0.6-0.6-0.4-1l0,0
		c0.2-0.4,0.6-0.6,1-0.4l0,0c0.4,0.2,0.6,0.6,0.4,1l0,0c-0.1,0.3-0.4,0.4-0.7,0.4l0,0C202.7,34.5,202.6,34.4,202.5,34.4z M95.7,34
		c-0.2-0.4,0-0.8,0.4-1l0,0c0.4-0.2,0.8,0,1,0.4l0,0c0.2,0.4,0,0.8-0.4,1l0,0c-0.1,0-0.2,0.1-0.3,0.1l0,0
		C96.1,34.5,95.8,34.3,95.7,34z M200.2,33.4c-0.4-0.2-0.6-0.6-0.4-1l0,0c0.2-0.4,0.6-0.6,1-0.4l0,0c0.4,0.2,0.6,0.6,0.4,1l0,0
		c-0.1,0.3-0.4,0.5-0.7,0.5l0,0C200.4,33.5,200.3,33.5,200.2,33.4z M98,33c-0.2-0.4,0-0.8,0.4-1l0,0c0.4-0.2,0.8,0,1,0.4l0,0
		c0.2,0.4,0,0.8-0.4,1l0,0c-0.1,0-0.2,0.1-0.3,0.1l0,0C98.4,33.5,98.1,33.3,98,33z M197.9,32.5c-0.4-0.1-0.6-0.6-0.4-1l0,0
		c0.1-0.4,0.6-0.6,1-0.4l0,0c0.4,0.1,0.6,0.6,0.4,1l0,0c-0.1,0.3-0.4,0.5-0.7,0.5l0,0C198.1,32.6,198,32.6,197.9,32.5z M100.3,32.1
		c-0.1-0.4,0-0.8,0.4-1l0,0c0.4-0.1,0.8,0,1,0.4l0,0c0.1,0.4,0,0.8-0.4,1l0,0c-0.1,0-0.2,0.1-0.3,0.1l0,0
		C100.7,32.6,100.4,32.4,100.3,32.1z M195.6,31.7c-0.4-0.1-0.6-0.6-0.4-1l0,0c0.1-0.4,0.6-0.6,1-0.4l0,0c0.4,0.1,0.6,0.6,0.4,1l0,0
		c-0.1,0.3-0.4,0.5-0.7,0.5l0,0C195.8,31.7,195.7,31.7,195.6,31.7z M102.6,31.2c-0.1-0.4,0.1-0.8,0.4-1l0,0c0.4-0.1,0.8,0.1,1,0.4
		l0,0c0.1,0.4-0.1,0.8-0.4,1l0,0c-0.1,0-0.2,0-0.3,0l0,0C103,31.7,102.8,31.5,102.6,31.2z M193.3,30.8c-0.4-0.1-0.6-0.6-0.5-0.9l0,0
		c0.1-0.4,0.6-0.6,0.9-0.5l0,0c0.4,0.1,0.6,0.6,0.5,0.9l0,0c-0.1,0.3-0.4,0.5-0.7,0.5l0,0C193.5,30.9,193.4,30.9,193.3,30.8z
		 M105,30.3c-0.1-0.4,0.1-0.8,0.5-0.9l0,0c0.4-0.1,0.8,0.1,0.9,0.5l0,0c0.1,0.4-0.1,0.8-0.5,0.9l0,0c-0.1,0-0.2,0-0.2,0l0,0
		C105.4,30.8,105.1,30.7,105,30.3z M190.9,30c-0.4-0.1-0.6-0.5-0.5-0.9l0,0c0.1-0.4,0.5-0.6,0.9-0.5l0,0c0.4,0.1,0.6,0.5,0.5,0.9
		l0,0c-0.1,0.3-0.4,0.5-0.7,0.5l0,0C191.1,30.1,191,30.1,190.9,30z M107.4,29.5c-0.1-0.4,0.1-0.8,0.5-0.9l0,0
		c0.4-0.1,0.8,0.1,0.9,0.5l0,0c0.1,0.4-0.1,0.8-0.5,0.9l0,0c-0.1,0-0.2,0-0.2,0l0,0C107.7,30.1,107.5,29.9,107.4,29.5z M188.6,29.3
		c-0.4-0.1-0.6-0.5-0.5-0.9l0,0c0.1-0.4,0.5-0.6,0.9-0.5l0,0c0.4,0.1,0.6,0.5,0.5,0.9l0,0c-0.1,0.3-0.4,0.5-0.7,0.5l0,0
		C188.7,29.3,188.7,29.3,188.6,29.3z M109.7,28.8c-0.1-0.4,0.1-0.8,0.5-0.9l0,0c0.4-0.1,0.8,0.1,0.9,0.5l0,0
		c0.1,0.4-0.1,0.8-0.5,0.9l0,0l0,0l0,0c-0.1,0-0.1,0-0.2,0l0,0C110.1,29.3,109.8,29.1,109.7,28.8z M186.2,28.6
		c-0.4-0.1-0.6-0.5-0.5-0.9l0,0c0.1-0.4,0.5-0.6,0.9-0.5l0,0c0.4,0.1,0.6,0.5,0.5,0.9l0,0c-0.1,0.3-0.4,0.5-0.7,0.5l0,0
		C186.4,28.6,186.3,28.6,186.2,28.6z M112.1,28.1c-0.1-0.4,0.1-0.8,0.5-0.9l0,0c0.4-0.1,0.8,0.1,0.9,0.5l0,0
		c0.1,0.4-0.1,0.8-0.5,0.9l0,0c-0.1,0-0.1,0-0.2,0l0,0C112.5,28.6,112.2,28.4,112.1,28.1z M183.8,28c-0.4-0.1-0.6-0.5-0.5-0.9l0,0
		c0.1-0.4,0.5-0.6,0.9-0.5l0,0c0.4,0.1,0.6,0.5,0.5,0.9l0,0c-0.1,0.3-0.4,0.6-0.7,0.6l0,0C184,28,183.9,28,183.8,28z M114.5,27.4
		c-0.1-0.4,0.1-0.8,0.5-0.9v0c0.4-0.1,0.8,0.1,0.9,0.5l0,0c0.1,0.4-0.1,0.8-0.5,0.9l0,0c-0.1,0-0.1,0-0.2,0l0,0
		C114.9,28,114.6,27.7,114.5,27.4z M181.4,27.3c-0.4-0.1-0.6-0.5-0.6-0.9l0,0c0.1-0.4,0.5-0.6,0.9-0.5l0,0c0.4,0.1,0.6,0.5,0.5,0.9
		l0,0c-0.1,0.3-0.4,0.6-0.7,0.6l0,0C181.6,27.4,181.5,27.4,181.4,27.3z M116.9,26.8c-0.1-0.4,0.1-0.8,0.5-0.9l0,0
		c0.4-0.1,0.8,0.1,0.9,0.5l0,0c0.1,0.4-0.1,0.8-0.5,0.9l0,0c-0.1,0-0.1,0-0.2,0l0,0C117.3,27.3,117,27.1,116.9,26.8z M179,26.8
		c-0.4-0.1-0.7-0.5-0.6-0.9l0,0c0.1-0.4,0.5-0.7,0.9-0.6l0,0c0.4,0.1,0.7,0.5,0.6,0.9l0,0c-0.1,0.3-0.4,0.6-0.7,0.6l0,0
		C179.1,26.8,179.1,26.8,179,26.8z M119.3,26.2c-0.1-0.4,0.2-0.8,0.6-0.9l0,0c0.4-0.1,0.8,0.2,0.9,0.6l0,0c0.1,0.4-0.2,0.8-0.6,0.9
		l0,0c-0.1,0-0.1,0-0.2,0l0,0C119.7,26.8,119.4,26.5,119.3,26.2z M176.6,26.3L176.6,26.3L176.6,26.3c-0.4-0.1-0.7-0.5-0.6-0.9l0,0
		c0.1-0.4,0.5-0.7,0.9-0.6l0,0c0.4,0.1,0.7,0.5,0.6,0.9l0,0c-0.1,0.4-0.4,0.6-0.7,0.6l0,0C176.7,26.3,176.7,26.3,176.6,26.3z
		 M121.7,25.7c-0.1-0.4,0.2-0.8,0.6-0.9l0,0c0.4-0.1,0.8,0.2,0.9,0.6l0,0c0.1,0.4-0.2,0.8-0.6,0.9l0,0c0,0-0.1,0-0.1,0l0,0
		C122.1,26.3,121.8,26,121.7,25.7z M174.2,25.8c-0.4-0.1-0.7-0.5-0.6-0.9l0,0c0.1-0.4,0.5-0.7,0.9-0.6l0,0c0.4,0.1,0.7,0.5,0.6,0.9
		l0,0c-0.1,0.4-0.4,0.6-0.7,0.6l0,0C174.3,25.8,174.2,25.8,174.2,25.8z M124.2,25.2c-0.1-0.4,0.2-0.8,0.6-0.9l0,0
		c0.4-0.1,0.8,0.2,0.9,0.6l0,0c0.1,0.4-0.2,0.8-0.6,0.9l0,0c0,0-0.1,0-0.1,0l0,0C124.6,25.8,124.3,25.5,124.2,25.2z M171.8,25.4
		c-0.4-0.1-0.7-0.5-0.6-0.9l0,0c0.1-0.4,0.4-0.7,0.9-0.6l0,0c0.4,0.1,0.7,0.5,0.6,0.9l0,0c-0.1,0.4-0.4,0.6-0.7,0.6l0,0
		C171.8,25.4,171.8,25.4,171.8,25.4z M126.6,24.7c-0.1-0.4,0.2-0.8,0.6-0.9l0,0c0.4-0.1,0.8,0.2,0.9,0.6l0,0
		c0.1,0.4-0.2,0.8-0.6,0.9l0,0c0,0-0.1,0-0.1,0l0,0C127,25.4,126.7,25.1,126.6,24.7z M169.3,25c-0.4-0.1-0.7-0.4-0.6-0.8l0,0
		c0.1-0.4,0.4-0.7,0.8-0.6l0,0c0.4,0.1,0.7,0.4,0.6,0.8l0,0c-0.1,0.4-0.4,0.6-0.7,0.6l0,0C169.4,25,169.4,25,169.3,25z M129.1,24.3
		c-0.1-0.4,0.2-0.8,0.6-0.8l0,0c0.4-0.1,0.8,0.2,0.8,0.6l0,0c0.1,0.4-0.2,0.8-0.6,0.8l0,0c0,0-0.1,0-0.1,0l0,0
		C129.5,25,129.1,24.7,129.1,24.3z M166.9,24.6c-0.4-0.1-0.7-0.4-0.6-0.8l0,0c0-0.4,0.4-0.7,0.8-0.6l0,0c0.4,0.1,0.7,0.4,0.6,0.8
		l0,0C167.7,24.4,167.3,24.6,166.9,24.6L166.9,24.6C166.9,24.6,166.9,24.6,166.9,24.6z M131.5,24c-0.1-0.4,0.2-0.8,0.6-0.8l0,0
		c0.4-0.1,0.8,0.2,0.8,0.6l0,0c0.1,0.4-0.2,0.8-0.6,0.8l0,0c0,0-0.1,0-0.1,0l0,0C131.9,24.6,131.6,24.4,131.5,24z M164.4,24.3
		c-0.4,0-0.7-0.4-0.7-0.8l0,0c0-0.4,0.4-0.7,0.8-0.7l0,0c0.4,0,0.7,0.4,0.7,0.8l0,0C165.2,24.1,164.9,24.3,164.4,24.3L164.4,24.3
		C164.5,24.3,164.4,24.3,164.4,24.3z M134,23.7c0-0.4,0.2-0.8,0.7-0.8l0,0c0.4,0,0.8,0.3,0.8,0.7l0,0c0,0.4-0.2,0.8-0.7,0.8l0,0
		c0,0-0.1,0-0.1,0l0,0C134.4,24.3,134.1,24.1,134,23.7z M162,24.1L162,24.1L162,24.1c-0.4,0-0.7-0.4-0.7-0.8l0,0
		c0-0.4,0.4-0.7,0.8-0.7l0,0c0.4,0,0.7,0.4,0.7,0.8l0,0C162.7,23.8,162.4,24.1,162,24.1L162,24.1C162,24.1,162,24.1,162,24.1z
		 M136.5,23.4c0-0.4,0.3-0.8,0.7-0.8l0,0c0.4,0,0.8,0.3,0.8,0.7l0,0c0,0.4-0.3,0.8-0.7,0.8l0,0l0,0l0,0c0,0,0,0-0.1,0l0,0
		C136.8,24.1,136.5,23.8,136.5,23.4z M159.5,23.9c-0.4,0-0.7-0.4-0.7-0.8l0,0c0-0.4,0.4-0.7,0.8-0.7l0,0c0.4,0,0.7,0.4,0.7,0.8l0,0
		C160.3,23.6,159.9,23.9,159.5,23.9L159.5,23.9C159.5,23.9,159.5,23.9,159.5,23.9z M139,23.2c0-0.4,0.3-0.8,0.7-0.8l0,0
		c0.4,0,0.8,0.3,0.8,0.7l0,0c0,0.4-0.3,0.8-0.7,0.8l0,0c0,0,0,0-0.1,0l0,0C139.3,23.9,139,23.6,139,23.2z M157,23.7L157,23.7
		L157,23.7c-0.4,0-0.7-0.4-0.7-0.8l0,0c0-0.4,0.4-0.7,0.8-0.7l0,0c0.4,0,0.7,0.4,0.7,0.8l0,0C157.8,23.4,157.5,23.7,157,23.7
		L157,23.7C157.1,23.7,157,23.7,157,23.7z M141.4,23c0-0.4,0.3-0.8,0.7-0.8l0,0c0.4,0,0.8,0.3,0.8,0.7l0,0c0,0.4-0.3,0.8-0.7,0.8
		l0,0l0,0l0,0c0,0,0,0,0,0l0,0C141.8,23.7,141.5,23.4,141.4,23z M154.6,23.6c-0.4,0-0.7-0.4-0.7-0.8l0,0c0-0.4,0.4-0.7,0.8-0.7l0,0
		c0.4,0,0.7,0.4,0.7,0.8l0,0C155.3,23.3,155,23.6,154.6,23.6L154.6,23.6C154.6,23.6,154.6,23.6,154.6,23.6z M143.9,22.9
		c0-0.4,0.3-0.8,0.7-0.8l0,0c0.4,0,0.8,0.3,0.8,0.7l0,0c0,0.4-0.3,0.8-0.7,0.8l0,0c0,0,0,0,0,0l0,0
		C144.3,23.6,143.9,23.3,143.9,22.9z M151.4,22.8c0-0.4,0.3-0.7,0.8-0.7l0,0c0.4,0,0.7,0.3,0.7,0.8l0,0c0,0.4-0.3,0.7-0.8,0.7l0,0
		l0,0l0,0C151.7,23.5,151.4,23.2,151.4,22.8z M146.4,22.8c0-0.4,0.3-0.8,0.7-0.8l0,0c0.4,0,0.8,0.3,0.8,0.7l0,0
		c0,0.4-0.3,0.7-0.7,0.8l0,0c0,0,0,0,0,0l0,0c0,0,0,0,0,0l0,0C146.7,23.5,146.4,23.2,146.4,22.8z M149.6,23.5
		c-0.4,0-0.7-0.3-0.7-0.7l0,0c0-0.4,0.3-0.7,0.7-0.7l0,0c0.4,0,0.7,0.3,0.7,0.7l0,0C150.4,23.2,150,23.5,149.6,23.5L149.6,23.5
		L149.6,23.5z"/>
</g>
<g>
	<g>
		
			<rect x="69.6" y="191.8" transform="matrix(0.8752 -0.4838 0.4838 0.8752 -81.8177 67.9579)" class="st0" width="42.4" height="1.5"/>
	</g>
	<g>
		<g>
			<polygon class="st0" points="68.9,194.3 77.7,210.1 65.4,206.6 			"/>
		</g>
	</g>
</g>
<g>
	<g>
		<g>
			
				<rect x="90.1" y="105.4" transform="matrix(0.4672 -0.8841 0.8841 0.4672 -63.5711 147.7664)" class="st0" width="1.5" height="42.4"/>
		</g>
		<g>
			<g>
				<polygon class="st0" points="77.4,109.3 68.9,125.3 65.1,113.1 				"/>
			</g>
		</g>
	</g>
</g>
<g>
	<g>
		
			<rect x="185.5" y="125.9" transform="matrix(0.8752 -0.4838 0.4838 0.8752 -35.4524 115.8405)" class="st0" width="42.4" height="1.5"/>
	</g>
	<g>
		<g>
			<polygon class="st0" points="228.7,124.9 219.9,109 232.2,112.6 			"/>
		</g>
	</g>
</g>
<g>
	<g>
		
			<rect x="148.4" y="79.2" transform="matrix(1 -8.935560e-03 8.935560e-03 1 -0.8917 1.3365)" class="st0" width="1.5" height="42.4"/>
	</g>
	<g>
		<g>
			<polygon class="st0" points="158,80.4 139.9,80.5 148.9,71.4 			"/>
		</g>
	</g>
</g>
<g>
	<g>
		
			<rect x="148.3" y="200.6" transform="matrix(1 -8.924135e-03 8.924135e-03 1 -1.9736 1.339)" class="st0" width="1.5" height="42.4"/>
	</g>
	<g>
		<g>
			<polygon class="st0" points="140.2,241.9 158.3,241.7 149.3,250.9 			"/>
		</g>
	</g>
</g>
<g>
	<g>
		<g>
			
				<rect x="206.5" y="170.4" transform="matrix(0.4672 -0.8841 0.8841 0.4672 -59.047 285.3144)" class="st0" width="1.5" height="42.4"/>
		</g>
		<g>
			<g>
				<polygon class="st0" points="220.7,209 229.1,193 232.9,205.2 				"/>
			</g>
		</g>
	</g>
</g>
<g>
	<polygon class="st0" points="190.1,182.9 190.1,135.6 149.1,112 108.1,135.6 108.1,182.9 149.1,206.6 	"/>
	<path class="st1" d="M149.1,207.5l-0.4-0.2l-41.3-23.9v-48.2l41.7-24.1l0.4,0.2l41.3,23.9v48.2L149.1,207.5z M108.9,182.5
		l40.2,23.2l40.2-23.2V136l-40.2-23.2L108.9,136V182.5z"/>
</g>
<g>
	<g>
		<path class="st2" d="M142.1,174.1h2.6V143h-16.1v34.2h13.5V174.1z M138.6,146.8h4.3v4.2h-4.3V146.8z M138.6,154h4.3v4.2h-4.3V154z
			 M138.6,161h4.3v4.2h-4.3V161z M138.6,168.1h4.3v4.2h-4.3V168.1z M135.1,172.3h-4.3v-4.2h4.3V172.3z M135.1,165.2h-4.3V161h4.3
			V165.2z M135.1,158.2h-4.3V154h4.3V158.2z M135.1,151h-4.3v-4.2h4.3V151z"/>
	</g>
	<g>
		<path class="st2" d="M167.1,176v-37.3h-21.2V176h-2.6v3.9h26.4V176H167.1z M159.4,177.6h-5.9v-4.7h5.9V177.6z M164.7,170.5h-16.8
			v-2h16.8V170.5z M164.7,167.1h-16.8v-2h16.8V167.1z M164.7,163.5h-16.8v-2h16.8V163.5z M164.7,160h-16.8v-2h16.8V160z
			 M164.7,156.5h-16.8v-2h16.8V156.5z M164.7,152.9h-16.8v-2h16.8V152.9z M164.7,149.4h-16.8v-2h16.8V149.4z M164.7,145.9h-16.8v-2
			h16.8V145.9z"/>
	</g>
</g>
<g>
	<g>
		<rect x="257.3" y="79.2" class="st2" width="21.8" height="28.1"/>
	</g>
	<g>
		<path class="st0" d="M277.9,75.5h-19.4c-2.6,0-4.6,2-4.6,4.6v33c0,2.5,2.1,4.6,4.6,4.6h19.4c2.6,0,4.6-2,4.6-4.6V80
			C282.6,77.5,280.5,75.5,277.9,75.5z M268.2,113.5c-1.4,0-2.6-1.1-2.6-2.6c0-1.4,1.2-2.6,2.6-2.6c1.4,0,2.6,1.1,2.6,2.6
			C270.8,112.3,269.7,113.5,268.2,113.5z M278.6,105.8h-20.7V79.7h20.7V105.8z"/>
	</g>
</g>
<g>
	<rect x="127.8" y="2" class="st2" width="43" height="27.4"/>
</g>
<g>
	<path class="st0" d="M172.2,29.5V3.6c0-2-1.6-3.6-3.6-3.6h-39.3c-2,0-3.6,1.6-3.6,3.6v25.9l-8,9.8v0.9c0,1.5,1.2,2.7,2.7,2.7h57.2
		c1.5,0,2.7-1.2,2.7-2.7v-0.9L172.2,29.5z M142.7,37.6l1.8-2.7h8.9l1.8,2.7L142.7,37.6z M169.6,25.9c0,0.5-0.4,0.9-0.9,0.9h-39.3
		c-0.5,0-0.9-0.4-0.9-0.9l0-22.4c0-0.5,0.4-0.9,0.9-0.9h39.3c0.5,0,0.9,0.4,0.9,0.9V25.9z M162.4,11.2c0,1.2-1,2.2-2.2,2.2
		c-0.2,0-0.3,0-0.5-0.1l-4.8,6.5c0.2,0.3,0.3,0.7,0.3,1.1c0,1.2-1,2.2-2.2,2.2s-2.2-1-2.2-2.2c0-0.4,0.1-0.7,0.2-1l-5.5-6.7
		c-0.2,0-0.3,0.1-0.5,0.1c-0.1,0-0.3,0-0.4,0l-4.8,6.5c0.2,0.3,0.3,0.7,0.3,1.1c0,1.2-1,2.2-2.2,2.2s-2.2-1-2.2-2.2
		c0-1.2,1-2.2,2.2-2.2c0.2,0,0.3,0,0.5,0.1l4.8-6.5c-0.2-0.3-0.3-0.7-0.3-1.2c0-1.2,1-2.2,2.2-2.2s2.2,1,2.2,2.2
		c0,0.4-0.1,0.8-0.3,1.1l5.5,6.6c0.2-0.1,0.4-0.1,0.6-0.1c0.2,0,0.3,0,0.5,0.1l4.8-6.5c-0.2-0.3-0.3-0.7-0.3-1.1
		c0-1.2,1-2.2,2.2-2.2S162.4,9.9,162.4,11.2z"/>
</g>
<g>
	<path class="st0" d="M48.7,205.2h-34c-1.6,0-3,1.3-3,2.9v22.8c0,1.6,1.3,2.9,3,2.9H28v2.8H16.1c-0.9,0-1.6,0.7-1.6,1.6
		c0,0.9,0.7,1.6,1.6,1.6h31.6c0.9,0,1.6-0.7,1.6-1.6c0-0.9-0.7-1.6-1.6-1.6H36.9v-2.8h11.8c1.6,0,3-1.3,3-2.9v-22.8
		C51.7,206.5,50.4,205.2,48.7,205.2z M48.1,227.1c0,1.4-1.2,2.6-2.6,2.6H17.9c-1.4,0-2.6-1.2-2.6-2.6V212c0-1.4,1.2-2.6,2.6-2.6
		h27.6c1.4,0,2.6,1.2,2.6,2.6V227.1z"/>
</g>
<g>
	<rect x="15.3" y="208.7" class="st2" width="33.2" height="21.4"/>
</g>
<g>
	<g>
		<circle class="st2" cx="265.8" cy="224.4" r="18.1"/>
	</g>
	<g>
		<g>
			<path class="st0" d="M285.6,224.6c0-10.9-8.8-19.7-19.7-19.7c-10.9,0-19.7,8.8-19.7,19.7s8.8,19.7,19.7,19.7
				C276.8,244.3,285.6,235.5,285.6,224.6z M248.9,224.6c0-9.4,7.6-17,17-17s17,7.6,17,17c0,9.4-7.6,17-17,17
				C256.5,241.6,248.9,234,248.9,224.6z"/>
		</g>
		<g>
			<path class="st0" d="M263.3,222.5l-2.2-2.2h12.8c0.7,0,1.3-0.6,1.3-1.3c0-0.7-0.6-1.3-1.3-1.3h-13l2.2-2.2c0.5-0.5,0.5-1.4,0-1.9
				c-0.5-0.5-1.4-0.5-1.9,0l-4.4,4.4c-0.2,0.2-0.3,0.5-0.4,0.7c0,0,0,0,0,0c0,0.1,0,0.1,0,0.2c0,0,0,0.1,0,0.1
				c0,0.5,0.2,0.9,0.6,1.1l4.4,4.4c0.5,0.5,1.4,0.5,1.9,0C263.8,223.8,263.8,223,263.3,222.5L263.3,222.5z M274.9,231.3
				c0.2-0.2,0.3-0.5,0.4-0.7c0,0,0,0,0-0.1c0-0.1,0-0.1,0-0.2c0,0,0-0.1,0-0.1c0-0.5-0.2-0.9-0.6-1.1l-4.4-4.4
				c-0.5-0.5-1.4-0.5-1.9,0c-0.5,0.5-0.5,1.4,0,1.9l2.2,2.2h-12.8c-0.7,0-1.3,0.6-1.3,1.3c0,0.7,0.6,1.3,1.3,1.3h13l-2.2,2.2
				c-0.5,0.5-0.5,1.4,0,1.9c0.5,0.5,1.4,0.5,1.9,0L274.9,231.3z"/>
		</g>
	</g>
</g>
<g>
	<path class="st2" d="M6.3,97.9l-1-9.1c0,0,2.3-2.6,3.1-2.6c0.8,0,25.7,1.8,25.7,1.8l6.6,0.2l1.2,23.8l-1.2,3.7l-3.5-1l-13.6-13.5
		L6.3,97.9z"/>
</g>
<g>
	<path class="st0" d="M42.6,114.5l0-27.6c0-0.8-0.7-1.5-1.5-1.5H21.6c-0.6,0-1.1-1.1-1.1-1.5v-0.2c0-0.9-0.7-1.6-1.6-1.6H8.6
		c-0.9,0-1.6,0.7-1.6,1.6v0.2c0,0.4-0.5,1.5-1.1,1.5h0c-0.8,0-1.5,0.7-1.5,1.5l0,8H1.1c0,0-1.5-0.1-0.9,1.7l3.5,17.9
		c0,0.9,0.6,1.6,1.5,1.6h36.7C42.8,116.1,42.6,114.5,42.6,114.5z M40.7,97.2l0,18l-3.5-19.3c-0.3-1.1-1.5-1-1.5-1H6.3v-6.1h34.5
		L40.7,97.2L40.7,97.2z"/>
</g>
<g>
	<circle class="st2" cx="151.1" cy="293.3" r="19.8"/>
</g>
<g>
	<path class="st0" d="M150.2,289.2 M158.5,298.1h-0.2C158.3,298.1,158.4,298.3,158.5,298.1z M150.6,271.6
		c-11.6,0-21.2,9.4-21.2,21.2s9.4,21.2,21.2,21.2c11.6,0,21.2-9.4,21.2-21.2C171.8,281,162.4,271.6,150.6,271.6z M164.1,279.9
		c-0.7,0-1.2,0-1.9,0.4c-0.2,0.1-0.4,0.4-0.7,0.5c-0.2,0.1-0.6,0-0.9,0.1c-1,0.4-0.9,2.4-2.1,2.1c-0.6-0.1-1-0.9-1.4-1.4
		c-0.2-0.4-0.7-0.7-0.4-1.2h-0.5c0.2-0.5,0.9-0.4,1-0.6c0.2-0.6-0.7-0.6-1.1-0.7c0.4-0.4,0.5,0.1,0.9,0c0.4-0.1-0.1-0.5-0.4-0.6
		c-0.1,0-1.2,0.4-0.6-0.2c-0.9-0.5-1.7-1.1-2.6-1.6c-0.1,0.6,1.1,1,1.6,1.1c-0.1,0.2-0.5,0.6-0.7,0.5s-0.1-0.6-0.6-0.5
		c-0.2,0.7,0.6,0.5,0.7,1s-0.4,0.2-0.5,0.2c0,0-0.4-0.4-0.4-0.1s0.5,0.2,0.6,0.5c-0.6,0-1-0.2-1.5-0.5c-0.6-0.4-0.9-0.4-1.6-0.4
		c0.2-0.1,0.5-0.1,0.7-0.2c0.1-0.1,0.5-0.5,0.5-0.6c0.1-0.4,0-0.4-0.4-0.6c-0.1-0.1-0.5-0.6-1-0.6c-1.4-0.2-0.5,1.2-1.5,1.5
		c-0.2,0-0.7-0.1-0.9,0.1c-0.1,0.1-0.1,0.5-0.2,0.6c-0.2,0.2-0.6,0.2-0.9,0.5c-0.2,0.1-0.9,0.6-1,0.9c-0.6,1.1,1.2,1.5,2,1.7
		c0.4,0.1,1.2,0.4,1.4,0.6c0.2,0.4-0.2,0.6,0.2,0.9c0.1,0.1,0.5,0.1,0.6-0.1c0.2-0.2-0.1-0.2-0.1-0.6c-0.1-0.5,0.1-0.4,0.4-0.5
		c0.5-0.4,0.4-0.5,0.2-1.1c-0.1-0.2-0.5-1.1-0.1-1.4s1.2,0.1,1.6,0.2c0.4,0,0.6,0.5,0.7,0.7c0.1,0.1,0.4,0.4,0.6,0.4
		c0.4,0,0.2-0.4,0.4-0.5c0.6-0.4,0.7,0.1,1,0.6s0.4,0.6,0.7,1c0.1,0.1,1,0.6,0.9,1c0,0.2-0.9,0.5-1.1,0.6c-0.9,0.2-2.5-0.5-2.6,0.9
		c0.4-0.1,1.2-0.9,1.5-0.5c0.1,0.1-0.1,0.4,0,0.6c0.1,0.5,0.5,0.4,1,0.2h-0.1c0.5-0.2,0.5-0.2,0.7-0.6c0.1-0.1,0.2-0.5,0.4-0.6
		c0.4-0.4,0.5-0.1,0.7,0.1c0.1,0.1,0.6,1,0.5,0.9c-0.7-0.1-1.4-0.1-2,0.2c-0.4,0.2-0.6,0.5-1,0.6c-0.1,0-0.9,0.1-0.7,0
		c0.1-0.1,0.5-0.2,0.7-0.5c-0.5-0.2-0.9,0.2-1.2,0.5c-0.4,0.1-0.5,0.5-0.7,0.9c-0.1,0.1-0.4,0.1-0.5,0.4c-0.1,0.1-0.1,0.4-0.2,0.6
		c-0.1,0.1-0.4,0-0.4,0.2c-0.1,0.2,0.1,0.4,0,0.6s-0.6,0.5-0.9,0.7l0.1-0.1c-0.2,0.2-0.5,0.4-0.6,0.6c0.1,0.4,0.4,1.2,0.2,1.4
		c-0.6,0.5-1-0.5-1.2-0.7c-0.6-0.9-1.7-0.2-2.6-0.2c-1,0.1-2,1.4-1.4,2.5c0.2,0.5,0.9,0.7,1.4,0.6c0.5-0.1,0.6-0.9,1.1-0.9
		c0.9,0,0,0.9,0,1.2c-0.1,0.2,0.1,0.4,0.4,0.4s0.6-0.1,0.7,0c0.1,0.1,0.1,0.5,0.2,0.4c-0.4,0.2-0.2,1,0.1,1.2s0.9,0,1.2,0.1
		c0.7,0.2,0.4,0,1.1-0.5c0.5-0.2,0.5,0,0.9,0c0.2,0,0.4-0.2,0.7-0.2c0.2,0.1,0.4,0.2,0.7,0.4h0.4c0.6,0.1,1.1,0.5,1.6,0.9
		c0.4,0.2,0.7,0.2,1.2,0.4c0.4,0.1,1,0.6,1,1.1c0,0.1-0.4,0.5-0.4,0.6c0.1,0.1,0.7-0.1,0.9-0.1c0,0.1-0.5,0.4-0.5,0.2
		c0,0.1,0.2,0.2,0.4,0.2c0.2-0.7,0.6-0.2,1-0.1c0.4,0.1,0.9,0.1,1.2,0.2c0.4,0.1,1.1,0.4,1.4,0.6c0.2,0.4,0.1,0.9-0.1,1.2
		c-0.2,0.5-0.7,0.6-1,1.1c-0.1,0.4,0,0.9-0.1,1.2c-0.1,0.6-0.2,0.4-0.6,0.7c-0.4,0.4,0,0.2-0.5,0.5c-0.5,0.2-0.9,0.1-1.2,0.6v-0.1
		c-0.1,0.2-0.2,0.6-0.2,0.7c-0.1,0.4-0.4,0.5-0.6,0.7c-0.1,0.1-1,1.4-1,1.2c-0.1-0.1-0.7,0.1-0.7,0c0,0.1,0,0.1,0.1,0.2
		c-0.1,1-0.6,1.1-1.6,1.1c0.1,0.5-0.4,0.4-0.6,0.6c-0.1,0.1-0.1,0.6-0.2,0.7c0,0.1-0.5,0.6-0.5,0.7c0,0.1,0.1,0.2,0.2,0.4
		c-0.7,0.1-1.4,0.2-2.1,0.2c0.1-0.1,0.1-0.4-0.2-0.4c0.1-0.4,0.4-0.5,0.5-0.7v-0.4c0.1-0.5,0.1-0.2,0-0.6c-0.2-0.9,0.1-1.1,0.4-2
		s0.2-1.9,0.4-2.8c0.1-0.4,0.2-1.4,0-1.7c-0.1-0.5-0.9-0.9-1.2-1.1c-0.5-0.5-0.7-0.9-1.1-1.5c-0.1-0.2-0.4-0.5-0.5-0.9
		c-0.2-0.6,0-0.2,0-0.6c0-0.4,0-0.7,0.1-1.1c0.1-0.4,0.5-0.7,0.7-1.1c0.1-0.4,0-0.9-0.4-1c-0.2-0.1-0.5,0.1-0.6,0
		c-0.2,0-0.6-0.2-0.9-0.5c-0.4-0.2-0.5-0.6-0.9-0.9c-0.2-0.2-0.5-0.1-0.9-0.1c-0.4-0.1-0.5-0.5-0.7-0.6c-0.4-0.2-0.6,0.1-1,0
		c-0.4,0-0.9-0.5-1.2-0.6c-0.7-0.2-1.1-0.6-1.4-1.4c-0.2-0.6-0.6-0.9-1-1.4c-0.4-0.5-0.5-0.9-1.1-1.1c-0.1,0,0.1,0.5,0.1,0.6
		c0.2,0.4,0.6,0.7,0.9,1.2c0.4,0.6,0.2,0.6-0.1,0.1c-0.5-0.6-1-1.2-1.4-1.9c0.2,0.2,0.2,0,0-0.2s-0.6-0.4-0.7-0.6
		c-0.9-0.7-1-1.9-1-3c0-0.4,0.1-0.6,0.1-1c0-0.2-0.2-0.5-0.5-0.7c-0.1-0.1-0.2-0.4-0.2-0.4c-0.2-0.4-0.4-0.6-0.6-0.9
		c-0.1-0.1-0.6-0.5-1.1-0.9c2-2.5,4.6-4.5,7.6-5.7c0,0.1,0.1,0.2,0.1,0.5c0.4,0.4,0.6,0.4,1,0.5c0,0.5-0.7,0.6-1.1,0.5
		c-0.5-0.1-1.1-0.2-1.5,0.2c0.2,0.1,1,0.7,0.9,0.1h1.5c0.2,0,0.9,0.2,1,0.1c0.1,0,0.1-0.4,0.2-0.5c-0.1,0-0.2-0.1-0.4,0
		c0.4-0.4,0.6-0.1,1.1,0.1c-0.5,0.2-0.1,1,0.2,0.4c0.4-0.5-0.1-0.7-0.5-1c0.5-0.6,0.7-0.6,1.2,0c0.1-0.4,0.4-0.2,0.7-0.2V276
		c-0.1,0-0.4-0.1-0.5-0.1c0.4-0.6,0.1-0.7,0.6-0.9c0.4-0.1,1.5,0,1.7-0.4c-0.7,0.1-1.7,0.2-2.5,0.5c-0.4,0.1-0.6,0.6-1,0.4
		c-0.4-0.4,0.2-0.9,0.5-1h-0.1c1.2-0.2,2.6-0.4,4-0.4c0.9,0,1.7,0.1,2.6,0.1c-0.2,0.1-0.1,0.2-0.2,0.4c-0.4,0.2-1.1,0.5-1.6,0.7
		c0.6,0,2.1,0.6,2.4-0.2c-0.2,0-0.4,0-0.6-0.1c0.4-0.2,0.7-0.5,1.2-0.6C158.2,275.2,161.6,277.2,164.1,279.9
		C164.2,279.9,164.1,279.9,164.1,279.9L164.1,279.9z M167.6,287.4c0-0.1,0.1-0.1,0.1-0.1c0.1-0.1,0-0.2,0.1-0.4
		c0.1-0.1,0.2-0.1,0.4-0.2l0.1-0.1c0.4,0.9,0.6,1.7,0.7,2.7l-0.4,0.1c-0.2,0-0.4-0.1-0.5-0.2l-0.5-0.5c-0.1-0.2,0-0.4,0-0.6
		C167.6,287.7,167.5,287.5,167.6,287.4L167.6,287.4z M167.8,297c-0.4-0.4-0.7-0.7-1-1.1c-0.2-0.5-0.1-0.9-0.1-1.4c0-0.4-0.2-1,0-1.4
		l0.4-0.4c0.1-0.2,0.1-0.5,0.4-0.7s0.5-0.4,0.7-0.6s0.2-0.4,0.4-0.7c0.1-0.2,0.4-0.6,0.6-0.7c0.1,1,0.2,1.9,0.2,2.8
		c0,1.6-0.2,3.3-0.6,4.8C168.4,297.5,168.1,297.3,167.8,297L167.8,297z"/>
</g>
</svg>
