<?xml version="1.0" encoding="utf-8"?>
<!-- Generator: Adobe Illustrator 22.1.0, SVG Export Plug-In . SVG Version: 6.00 Build 0)  -->
<svg version="1.1" id="租金分红" xmlns="http://www.w3.org/2000/svg" xmlns:xlink="http://www.w3.org/1999/xlink" x="0px"
	 y="0px" viewBox="0 0 1072 186" style="enable-background:new 0 0 1072 186;" xml:space="preserve">
<style type="text/css">
	.st0{fill:none;stroke:#90A7AB;}
	.st1{enable-background:new    ;}
	.st2{fill:#456E68;}
	.st3{fill:#9FE7DD;stroke:#34B9A1;stroke-width:2;}
	.st4{fill:#17161F;}
	.st5{fill:none;stroke:#456E68;stroke-width:1.5;stroke-miterlimit:10;}
</style>
<g id="组_29">
	<path id="形状_1" class="st0" d="M122.8,82.9h132.5l-4.8-5.5"/>
	<path id="形状_1_拷贝_6" class="st0" d="M255.1,103.1H122.8l4.8,5.5"/>
</g>
<path id="形状_1_拷贝_7" class="st0" d="M786.9,88.4h132.5l-4.8-5.5"/>
<g id="组_29_拷贝">
	<path id="形状_1-2" class="st0" d="M489.3,81h132.5l-4.8-5.5"/>
	<path id="形状_1_拷贝_6-2" class="st0" d="M621.6,101.3H489.3l4.8,5.5"/>
</g>
<g class="st1">
	<path class="st2" d="M608.7,154.1v-6.7h-7.9v6.7h-1v-13.9h1v6.4h7.9v-6.4h1v13.9H608.7z"/>
	<path class="st2" d="M617,154.4c-1.4,0-2.6-0.5-3.4-1.4s-1.3-2.2-1.3-3.7c0-1.7,0.4-2.9,1.3-3.9c0.9-0.9,2-1.4,3.5-1.4
		c1.4,0,2.5,0.5,3.3,1.4s1.2,2.2,1.2,3.8c0,1.5-0.4,2.8-1.3,3.8C619.6,153.9,618.5,154.4,617,154.4z M617.1,144.8
		c-1.2,0-2.1,0.4-2.8,1.2s-1,1.9-1,3.3c0,1.3,0.3,2.3,1,3.1s1.6,1.2,2.8,1.2s2.1-0.4,2.8-1.2s1-1.9,1-3.2c0-1.4-0.3-2.5-1-3.3
		S618.2,144.8,617.1,144.8z"/>
	<path class="st2" d="M630.7,154.1v-1.8l0,0c-0.7,1.4-1.8,2-3.2,2c-2.3,0-3.5-1.5-3.5-4.4v-5.7h0.9v5.5c0,1.3,0.2,2.3,0.7,2.9
		s1.1,0.9,2.1,0.9c0.9,0,1.7-0.3,2.2-1c0.6-0.7,0.9-1.6,0.9-2.7v-5.6h0.9v9.9L630.7,154.1L630.7,154.1z"/>
	<path class="st2" d="M634.3,153.7v-1.1c0.3,0.3,0.7,0.5,1.2,0.7s0.9,0.3,1.2,0.3c1.6,0,2.3-0.6,2.3-1.9c0-0.4-0.2-0.8-0.5-1.1
		s-0.9-0.6-1.7-1c-0.9-0.4-1.6-0.8-2-1.3c-0.4-0.4-0.6-1-0.6-1.6c0-0.8,0.3-1.5,0.9-2c0.6-0.5,1.4-0.7,2.3-0.7
		c0.8,0,1.6,0.2,2.2,0.5v1c-0.7-0.5-1.5-0.7-2.3-0.7c-0.7,0-1.2,0.2-1.6,0.5s-0.6,0.8-0.6,1.3s0.1,0.9,0.4,1.1
		c0.3,0.3,0.8,0.6,1.7,1c1,0.5,1.7,0.9,2.1,1.3c0.4,0.4,0.6,0.9,0.6,1.6c0,0.8-0.3,1.4-0.9,1.9s-1.4,0.8-2.4,0.8
		C635.7,154.4,634.9,154.2,634.3,153.7z"/>
	<path class="st2" d="M642.7,149.2c0,1.4,0.3,2.4,0.9,3.2s1.5,1.2,2.6,1.2s2.2-0.4,3.3-1.2v1c-1,0.7-2.2,1.1-3.4,1.1
		c-1.3,0-2.3-0.5-3.1-1.4s-1.2-2.2-1.2-3.9c0-1.4,0.4-2.7,1.2-3.7s1.9-1.5,3.2-1.5c1.2,0,2.2,0.4,2.8,1.3s1,2.1,1,3.5v0.4
		L642.7,149.2L642.7,149.2z M649.1,148.4c0-1.2-0.3-2-0.8-2.7c-0.5-0.6-1.2-0.9-2.1-0.9c-0.9,0-1.7,0.3-2.3,0.9
		c-0.6,0.6-1,1.5-1.1,2.7H649.1z"/>
	<path class="st2" d="M656.4,141.1v13h-1v-13h-4v-0.9h9v0.9H656.4z"/>
	<path class="st2" d="M663.5,154.4c-1.4,0-2.6-0.5-3.4-1.4s-1.3-2.2-1.3-3.7c0-1.7,0.4-2.9,1.3-3.9c0.9-0.9,2-1.4,3.5-1.4
		c1.4,0,2.5,0.5,3.3,1.4s1.2,2.2,1.2,3.8c0,1.5-0.4,2.8-1.3,3.8C666.1,153.9,664.9,154.4,663.5,154.4z M663.5,144.8
		c-1.2,0-2.1,0.4-2.8,1.2s-1,1.9-1,3.3c0,1.3,0.3,2.3,1,3.1s1.6,1.2,2.8,1.2s2.1-0.4,2.8-1.2s1-1.9,1-3.2c0-1.4-0.3-2.5-1-3.3
		S664.7,144.8,663.5,144.8z"/>
	<path class="st2" d="M676.3,154.1l-4.7-4.9l0,0v4.9h-0.9v-14.7h0.9v9.5l0,0l4.5-4.7h1.2l-4.7,4.8l5.1,5.1L676.3,154.1L676.3,154.1z
		"/>
	<path class="st2" d="M679.6,149.2c0,1.4,0.3,2.4,0.9,3.2s1.5,1.2,2.6,1.2s2.2-0.4,3.3-1.2v1c-1,0.7-2.2,1.1-3.4,1.1
		c-1.3,0-2.3-0.5-3.1-1.4s-1.2-2.2-1.2-3.9c0-1.4,0.4-2.7,1.2-3.7s1.9-1.5,3.2-1.5c1.2,0,2.2,0.4,2.8,1.3s1,2.1,1,3.5v0.4
		L679.6,149.2L679.6,149.2z M686,148.4c0-1.2-0.3-2-0.8-2.7c-0.5-0.6-1.2-0.9-2.1-0.9c-0.9,0-1.7,0.3-2.3,0.9
		c-0.6,0.6-1,1.5-1.1,2.7H686z"/>
	<path class="st2" d="M696.2,154.1v-5.8c0-2.4-0.9-3.6-2.6-3.6c-1,0-1.7,0.4-2.4,1.1c-0.6,0.7-0.9,1.6-0.9,2.6v5.7h-0.9v-9.9h0.9
		v1.8l0,0c0.7-1.4,1.9-2,3.4-2c1.1,0,1.9,0.4,2.5,1.1c0.6,0.7,0.9,1.7,0.9,3.1v6h-0.9V154.1z"/>
	<path class="st2" d="M715.6,146.4c-3.6-1.7-6.2-3.8-8-6.2c-2.1,2.5-4.8,4.6-8.1,6.3c-0.3-0.4-0.5-0.6-0.7-0.8
		c3.9-2,6.8-4.3,8.6-6.9l1.1,0.2c0,0-0.1,0.1-0.1,0.2c-0.1,0.1-0.2,0.2-0.2,0.3c1.9,2.5,4.6,4.5,8,6
		C716.2,145.7,715.9,146,715.6,146.4z M701.9,145.9h11.4v0.9h-5.2v3.2h5.8v0.9h-5.8v3.5h7.4v1h-15.9v-1h7.4V151h-5.9v-1h5.9v-3.2
		h-5.2L701.9,145.9L701.9,145.9z"/>
	<path class="st2" d="M717.5,154.6l-0.2-1c0.7-0.1,1.5-0.2,2.5-0.4v-5.5h-2.2v-0.8h2.2V142h-2.4v-0.9h5.7v0.9h-2.3v4.8h2v0.8h-2v5.4
		c0.8-0.1,1.7-0.3,2.5-0.5c0,0.1,0,0.4,0,1C721,153.9,719.1,154.2,717.5,154.6z M723.6,142.5h4.6v-3.3h1v3.3h5.2v0.9h-5.2v0.7
		c0.3,1.5,0.8,2.8,1.3,4c1.1-1,2-2,2.9-3l0.8,0.6c-0.8,0.9-1.9,2-3.2,3.2c0.8,1.5,2.1,3,3.8,4.5c-0.3,0.2-0.5,0.5-0.7,0.8
		c-2.5-2.2-4.1-4.6-4.9-7.2v7c0.1,1.4-0.7,2.1-2.3,2.1c-0.4,0-1,0-1.7,0c0-0.3-0.1-0.7-0.2-1c0.4,0,1,0,1.8,0.1
		c0.6,0,0.9-0.1,1.1-0.3c0.2-0.2,0.3-0.6,0.3-1.1V150c-1.6,1.1-3,2-4.4,2.9l-0.6-0.9c1.9-1.1,3.6-2.1,5-3.1v-5.5h-4.6L723.6,142.5
		L723.6,142.5z M723.9,145.6l0.8-0.5c0.7,0.9,1.4,1.9,2.1,3.1l-0.8,0.5C725.3,147.6,724.6,146.6,723.9,145.6z M730.2,140.5l0.6-0.6
		c0.9,0.5,1.6,1.1,2.4,1.6l-0.6,0.7C731.9,141.6,731.1,141.1,730.2,140.5z"/>
	<path class="st2" d="M743.9,139.2l0.9-0.3c0,0,0.1,0.1,0.1,0.2c0.4,0.8,0.6,1.5,0.8,2h6v3.9h-13.2v2.3c0,2.3-0.1,4.1-0.4,5.2
		c-0.3,1.2-0.9,2.4-1.8,3.7c-0.1-0.1-0.4-0.4-0.8-0.6c0.8-1.2,1.4-2.3,1.6-3.3c0.3-1,0.4-2.6,0.4-4.9v-6.3h7.1
		C744.5,140.5,744.2,139.9,743.9,139.2z M738.5,155.6c1.7-1,2.7-2,3.2-2.9s0.8-2.4,0.8-4.6h-3.1v-0.9h6.4c-0.1-0.3-0.2-0.8-0.5-1.6
		l1-0.2c0.2,0.8,0.4,1.4,0.5,1.8h6.2v0.9h-9.4c0,0.8-0.1,1.5-0.1,2.1h7.6c0,1.1-0.1,2.1-0.2,3.1c-0.1,1.7-1.1,2.6-2.8,2.5
		c-0.4,0-1.2,0-2.4,0c-0.1-0.3-0.1-0.7-0.2-1c0.5,0,1.3,0.1,2.5,0.1c0.1,0,0.2,0,0.3,0c1.1,0,1.7-0.6,1.7-1.8
		c0.1-0.8,0.1-1.5,0.1-2.1h-6.6c-0.2,2.1-1.5,3.9-4,5.4C739.1,156.2,738.8,155.9,738.5,155.6z M738.6,142v2.2h12.2V142H738.6z"/>
	<path class="st2" d="M754.2,154.2l-0.3-0.9c0.6-0.2,1.5-0.4,2.6-0.8V145h-2.1v-0.9h2.1v-5h1v5h2v0.9h-2v7.2
		c0.2-0.1,0.5-0.2,0.9-0.3c0.7-0.2,1.2-0.4,1.6-0.5c0,0.1,0,0.4,0.1,0.9C757.5,153.2,755.5,153.8,754.2,154.2z M761,141.3h1v4
		l3.2-1.1v-5.1h1v4.7l4.3-1.5c0,2.2-0.1,4-0.2,5.3c0,1.8-0.7,2.6-2,2.5c-0.3,0-0.7,0-1.2,0c0-0.3-0.1-0.6-0.2-1c0.2,0,0.4,0,0.5,0
		s0.2,0,0.3,0s0.2,0,0.4,0c0.8,0.1,1.2-0.4,1.2-1.6c0.1-1.5,0.2-2.9,0.2-4.1l-3.4,1.2v7.7h-1v-7.4l-3.2,1.1v6.8
		c0,0.7,0.1,1.2,0.4,1.4c0.2,0.3,0.8,0.4,1.6,0.4h3.9c1.4,0.1,2.2-0.4,2.3-1.5c0.2-0.8,0.3-1.6,0.4-2.5c0.3,0.2,0.6,0.3,0.9,0.3
		c-0.1,1-0.2,1.8-0.4,2.5c-0.2,0.8-0.5,1.3-0.9,1.6s-1.1,0.5-2.1,0.4h-4.5c-1.8,0.1-2.7-0.7-2.6-2.4v-6.7l-1.5,0.5l-0.2-0.9l1.7-0.6
		L761,141.3L761,141.3z"/>
	<path class="st2" d="M774.2,146.3h8.7c0.7-1.1,1.4-2.2,2.1-3.5l1,0.5c-0.6,1-1.3,1.9-2,3h5.2v0.9h-14v1.4c0.1,3.2-0.6,5.8-2.1,7.7
		c-0.3-0.3-0.6-0.5-0.8-0.7c0.7-0.9,1.2-1.9,1.5-2.9s0.4-2.4,0.4-4.1L774.2,146.3L774.2,146.3z M780.6,139.3l1-0.3
		c0.3,0.8,0.5,1.5,0.7,2.1h7.4v0.9h-16.9v-0.9h8.4c-0.1-0.4-0.3-0.9-0.6-1.7C780.6,139.4,780.6,139.4,780.6,139.3z M776.8,143.3
		l0.8-0.5c0.5,0.7,1.2,1.5,2,2.7l-0.9,0.6C778.1,145,777.4,144.1,776.8,143.3z"/>
	<path class="st2" d="M790.9,148.1h3.6v-6.3h-3V141h3v-2h1v1.9h8V139h1v1.9h3v0.8h-3v6.3h3.5v0.8h-5.5c1.3,1.4,3.1,2.5,5.6,3.4
		c-0.1,0.1-0.3,0.4-0.4,0.7c-0.1,0.1-0.1,0.2-0.1,0.2c-2.8-1.2-4.9-2.6-6.1-4.3h-4c-1.4,1.7-3.4,3.2-6,4.5c-0.2-0.3-0.4-0.5-0.6-0.8
		c2.3-1,4.1-2.2,5.5-3.7H791L790.9,148.1L790.9,148.1z M799,149.9h1v1.7h4.2v0.8H800v2.1h7v0.8h-15v-0.8h7.1v-2.1h-4.2v-0.8h4.2
		L799,149.9L799,149.9z M795.4,141.8v1.5h8v-1.5H795.4z M795.4,144.2v1.5h8v-1.5H795.4z M795.4,146.5v1.6h8v-1.6H795.4z"/>
	<path class="st2" d="M825.9,145.5c-3.4-1.3-6.1-3-8-5.3c-2,2.2-4.7,4-8.1,5.6c-0.1-0.2-0.4-0.5-0.6-0.8c4-1.7,6.8-3.7,8.6-6
		l1.1,0.2c0,0-0.1,0.1-0.2,0.2c-0.1,0.1-0.1,0.2-0.2,0.3c2.1,2.3,4.8,4,8,5.1C826.2,145,826,145.3,825.9,145.5z M812.1,145h11.1v0.9
		h-4.9v2.9h6.4v0.9h-6.4v5h7.6v0.9h-16.2v-0.9h7.6v-5h-6.4v-0.9h6.4v-2.9h-5.2L812.1,145L812.1,145z M811.8,151.2l0.8-0.6
		c0.9,0.8,1.7,1.7,2.4,2.5l-0.8,0.6C813.5,153,812.8,152.2,811.8,151.2z M821.2,153.8l-0.8-0.6c0.8-0.8,1.7-1.6,2.6-2.5l0.8,0.6
		C822.9,152.1,822.1,153,821.2,153.8z"/>
</g>
<g class="st1">
	<path class="st2" d="M642.2,178.5c-2-2.3-2.9-5.1-2.9-8.5c0-3.5,1-6.4,3-8.6h0.9c-2,2.3-3,5.2-3,8.6c0,3.2,1,6,3,8.5H642.2z"/>
	<path class="st2" d="M653.5,160.2h1v1.8h8.3v0.9h-8.3v2.6h6.8v7h-1v-1.2h-11.4c-0.1,2.3-0.9,4.4-2.3,6.2c-0.3-0.3-0.6-0.5-0.9-0.7
		c0.9-1.2,1.5-2.4,1.8-3.5s0.5-2.8,0.4-5.1v-2.7h5.6L653.5,160.2L653.5,160.2z M649,168.2c0,0.8,0,1.5-0.1,2.2h11.4v-4H649V168.2z"
		/>
	<path class="st2" d="M668.1,167.4h0.9v2.2h2.9v0.8H669v1.5l0.4-0.5c0.9,0.6,1.8,1.2,2.5,1.8l-0.6,0.7c-0.9-0.7-1.6-1.3-2.3-1.8v5.3
		h-0.9v-5.9c-0.7,1.5-1.9,2.9-3.4,4.2c-0.3-0.3-0.5-0.6-0.7-0.8c1.7-1.2,3.1-2.7,4.1-4.5h-3.4v-0.8h3.5L668.1,167.4L668.1,167.4z
		 M680.7,167.4c-3.2-0.8-5.7-2-7.4-3.6v4h-1v-4c-1.9,1.7-4.3,3-7.4,3.8c-0.2-0.3-0.3-0.6-0.6-0.9c3-0.7,5.5-1.8,7.5-3.4h-6.7v-0.9
		h7.1v-2.3h1v2.3h7.2v0.9h-6.8c2.1,1.6,4.6,2.7,7.6,3.2C681,166.8,680.8,167.1,680.7,167.4z M672,176c-0.2-0.3-0.5-0.5-0.7-0.8
		c1.8-1.1,3.3-2.7,4.6-4.8H673v-0.8h2.9v-2.1h0.9v2.1h3.9v0.8h-3.8c1.2,2,2.7,3.5,4.6,4.5c-0.3,0.3-0.5,0.6-0.7,0.8
		c-1.8-1.2-3.1-2.6-4-4.3v6h-0.9v-6C674.9,173.2,673.6,174.8,672,176z"/>
	<path class="st2" d="M682.9,167.5c-0.2-0.3-0.4-0.6-0.5-0.9c1.7-1.7,3.1-3.9,4.2-6.4l0.9,0.3c-0.6,1.3-1.2,2.4-1.8,3.4v7.5h-0.9
		v-6.1C684.2,166,683.6,166.8,682.9,167.5z M690.7,171.1h1v1.6h6.5v0.9h-6.5v2.2h8.1v0.9h-17.2v-0.9h8.1v-2.2h-6.6v-0.9h6.6
		L690.7,171.1L690.7,171.1z M686.9,170.4c2.4-0.8,4.1-1.7,5.2-2.7h-4.9v-0.8h5.6v-1.6h-4.1v-4.1h9.1v4.1h-4.1v1.6h5.6v0.8h-4.9
		c1.2,1.1,2.9,2,5.1,2.6c-0.2,0.3-0.4,0.6-0.5,0.9c-2.4-0.8-4.2-1.8-5.3-3.2v3.5h-0.9V168c-1.3,1.4-3.1,2.5-5.4,3.3
		C687.3,171,687.1,170.7,686.9,170.4z M689.7,161.9v2.5h7.2v-2.5H689.7z"/>
	<path class="st2" d="M711.1,175.3l-1.6-4.3h-6l-1.6,4.3h-1l5.2-13.9h0.9l5.2,13.9H711.1z M706.9,163.7c-0.1-0.2-0.1-0.4-0.2-0.6
		c0-0.2-0.1-0.3-0.1-0.5l0,0c-0.1,0.4-0.2,0.8-0.3,1l-2.3,6.5h5.4L706.9,163.7z"/>
	<path class="st2" d="M714.6,175.3v-13.9h1v13.9H714.6z"/>
	<path class="st2" d="M720.1,162.3v5.7h5.1v0.9h-5.1v6.5h-1v-13.9h6.5v0.9L720.1,162.3L720.1,162.3z"/>
	<path class="st2" d="M740.3,175.3v-9.9c0-0.2,0-0.9,0.1-2l0,0c-0.2,0.5-0.4,0.9-0.5,1.2l-4.9,10.7h-0.3l-5-10.7
		c-0.2-0.3-0.3-0.8-0.5-1.3l0,0c0,0.6,0.1,1.2,0.1,1.9v10.1h-1v-13.9h0.9l5.2,11.2c0,0.1,0.1,0.1,0.1,0.3c0,0.1,0.1,0.2,0.1,0.3
		c0.1,0.2,0.1,0.4,0.2,0.6h0.1l0.1-0.3c0,0,0.1-0.3,0.3-0.9l5.1-11.1h0.9v13.9h-1V175.3z"/>
	<path class="st2" d="M743.7,169.3h3.6V163h-3v-0.8h3v-1.9h1v1.9h8v-1.9h1v1.9h3v0.8h-3v6.3h3.5v0.8h-5.5c1.3,1.4,3.1,2.5,5.6,3.4
		c-0.1,0.1-0.3,0.4-0.4,0.7c-0.1,0.1-0.1,0.2-0.1,0.2c-2.8-1.2-4.9-2.6-6.1-4.3h-4c-1.4,1.7-3.4,3.2-6,4.5c-0.2-0.3-0.4-0.5-0.6-0.8
		c2.3-1,4.1-2.2,5.5-3.7h-5.4L743.7,169.3L743.7,169.3z M751.8,171h0.9v1.7h4.2v0.8h-4.2v2.1h7v0.8h-15v-0.8h7.1v-2.1h-4.2v-0.8h4.2
		V171z M748.2,163v1.5h8V163H748.2z M748.2,165.3v1.5h8v-1.5H748.2z M748.2,167.7v1.6h8v-1.6H748.2z"/>
	<path class="st2" d="M778.7,166.7c-3.4-1.3-6.1-3-8-5.3c-2,2.2-4.7,4-8.1,5.6c-0.1-0.2-0.4-0.5-0.6-0.8c4-1.7,6.8-3.7,8.6-6
		l1.1,0.2c0,0-0.1,0.1-0.2,0.2c-0.1,0.1-0.2,0.2-0.2,0.3c2.1,2.3,4.8,4,8,5.1C778.9,166.2,778.8,166.5,778.7,166.7z M764.9,166.1
		H776v0.9h-4.9v2.9h6.4v0.9h-6.4v5h7.6v0.9h-16.2v-0.9h7.6v-5h-6.4v-0.9h6.4V167h-5.2L764.9,166.1L764.9,166.1z M764.6,172.3
		l0.8-0.6c0.9,0.9,1.7,1.7,2.4,2.5l-0.8,0.6C766.3,174.2,765.5,173.3,764.6,172.3z M774,174.9l-0.8-0.6c0.8-0.8,1.7-1.6,2.6-2.5
		l0.8,0.6C775.7,173.3,774.8,174.2,774,174.9z"/>
	<path class="st2" d="M782.8,178.5h-0.9c2-2.4,3-5.3,3-8.5c0-3.4-1-6.3-3-8.6h1c2,2.3,3,5.1,3,8.6
		C785.7,173.4,784.7,176.2,782.8,178.5z"/>
</g>
<g class="st1">
	<path class="st2" d="M921.6,148.6c-0.1-0.4-0.3-0.8-0.5-1.1c1.9-2.6,3.3-5.3,4.2-8.3l1,0.4c-0.5,1.5-1.1,2.9-1.8,4.3v12.5h-1v-10.7
		C923,146.7,922.3,147.6,921.6,148.6z M930.2,139.2h1c0,1.8,0,3.5-0.1,4.9h7v0.9h-4.9v8.7c0,0.7,0.4,1.1,1.3,1.1h1.3
		c0.9,0,1.4-0.4,1.5-1.4c0.1-0.7,0.2-1.5,0.2-2.6c0.3,0.1,0.6,0.2,1,0.3c-0.1,1.1-0.2,2-0.3,2.7c-0.2,1.3-1,1.9-2.3,1.9h-1.5
		c-1.4,0-2.1-0.6-2.1-2V145h-1.2c0,0.1,0,0.3,0,0.5s0,0.4,0,0.5c-0.2,3.9-1.8,7.4-4.8,10.3c-0.3-0.3-0.6-0.5-0.8-0.7
		c2.9-2.8,4.4-6,4.6-9.6c0-0.2,0-0.5,0.1-0.9h-4v-0.9h4C930.2,142.6,930.2,141,930.2,139.2z M935.9,142.7c-0.9-0.8-1.8-1.5-2.7-2.2
		l0.6-0.7c0.8,0.6,1.8,1.3,2.8,2.1L935.9,142.7z"/>
	<path class="st2" d="M940.1,143.1h7.6v-2.3c-2.1,0.1-4.3,0.1-6.6,0.2c0-0.2-0.1-0.5-0.2-0.9c5.1-0.1,9.8-0.2,14.2-0.5l0.2,0.9
		c-2.3,0.1-4.5,0.2-6.7,0.3v2.3h7.7v0.9h-6.7c1.8,1.6,4.1,2.8,7.1,3.5c-0.3,0.4-0.4,0.7-0.5,0.9c-3.4-1-5.9-2.4-7.5-4.3v3.5h-1v-3.4
		c-1.6,1.8-4.1,3.3-7.5,4.5c-0.2-0.3-0.3-0.6-0.6-0.9c2.9-0.9,5.3-2.2,7.2-3.7h-6.7V143.1z M940.1,155.6c3.4-1.1,5.1-3.3,5-6.4h-2.8
		v-0.9h10.2v0.9l-1.6,1.8h4.1c-0.1,1.1-0.1,2-0.2,2.8c-0.1,1.4-0.9,2.1-2.5,2c-0.2,0-0.6,0-1,0c-0.2,0-0.4,0-0.6,0
		c-0.2,0-0.5,0-0.9,0c0-0.4-0.1-0.7-0.2-1c1.1,0,2,0.1,2.7,0.1c1,0.1,1.6-0.3,1.6-1.2c0.1-0.6,0.1-1.2,0.2-1.8h-4v-1l1.5-1.8H946
		c0.1,3.4-1.7,5.8-5.3,7.2C940.5,156.2,940.3,155.9,940.1,155.6z"/>
	<path class="st2" d="M958.6,142h1.9c0.4-1.1,0.6-2.1,0.8-2.9l1,0.2c-0.1,0.2-0.2,0.6-0.4,1.1c-0.2,0.7-0.4,1.3-0.5,1.6h3.6v14h-1
		v-1.5h-4.6v1.6h-1V142H958.6z M959.5,142.9v4.9h4.6v-4.9H959.5z M959.5,148.7v5h4.6v-5H959.5z M966.7,146c-0.2-0.2-0.5-0.3-0.8-0.5
		c1.1-1.8,2-3.9,2.8-6.3l1,0.3c-0.3,1-0.7,1.8-1,2.7h5.9c-0.1,4.2-0.2,7.8-0.3,11c0,2-1,3-3.1,3c-0.4,0-0.8,0-1.2,0
		c-0.2,0-0.5,0-0.7,0s-0.5,0-0.9,0c-0.1-0.3-0.1-0.7-0.2-1c0.9,0,1.9,0.1,2.9,0.1c1.5,0.1,2.3-0.6,2.3-2.2c0.1-1.9,0.2-5.2,0.3-9.9
		h-5.3C967.7,144.1,967.2,145.1,966.7,146z M967.4,146.8l0.7-0.5c0.8,1,1.8,2.3,2.9,3.8l-0.8,0.6
		C969.3,149.2,968.3,147.9,967.4,146.8z"/>
	<path class="st2" d="M984.1,139.3l0.9-0.3c0.3,0.8,0.6,1.5,0.8,2.2h7.7v0.9h-17.2v-0.9h8.4C984.5,140.4,984.3,139.8,984.1,139.3z
		 M980.5,142.6l0.8-0.5c0.6,0.8,1.2,1.5,1.6,2.2l-0.9,0.5h4.3c0.6-0.8,1.2-1.8,1.8-2.7l0.9,0.5c-0.5,0.7-1,1.5-1.6,2.3h4.5v9.3
		c0.1,1.3-0.6,2-2,1.9c-0.3,0-0.6,0-0.9,0c-0.1,0-0.3,0-0.5,0s-0.4,0-0.7,0c0-0.3-0.1-0.7-0.2-1c0.5,0,0.8,0,1.1,0.1
		c0.3,0,0.6,0,1,0c0.5,0,0.8-0.1,1-0.3s0.3-0.5,0.3-0.9v-8.3h-12.5v10.7h-1v-11.6h4.4C981.7,144.2,981.2,143.5,980.5,142.6z
		 M983,146.2l0.7,0.6c-1.4,1.1-2.7,2-3.9,2.8c-0.1-0.2-0.3-0.4-0.6-0.7C980.7,147.9,982,147,983,146.2z M988.3,153.7h-6.8v-4.6h6.8
		V153.7z M982.4,149.9v2.9h5v-2.9H982.4z M986,146.8l0.6-0.6c1.2,0.7,2.5,1.6,3.9,2.5l-0.6,0.8C988.8,148.6,987.5,147.7,986,146.8z"
		/>
	<path class="st2" d="M1005,139.4h1v14.9h5.9v0.9h-17.3v-0.9h5.8v-14.9h1v14.9h3.6V139.4z M998.1,150.3c-0.7-2.1-1.6-4.4-2.6-7
		l0.9-0.3c0.9,2.1,1.8,4.5,2.7,7L998.1,150.3z M1008.1,150.3l-0.9-0.4c1-2,2-4.3,3-7l1,0.3C1010.1,145.9,1009.1,148.3,1008.1,150.3z
		"/>
	<path class="st2" d="M1021.2,139.2l0.9-0.3c0,0,0.1,0.1,0.1,0.2c0.4,0.8,0.6,1.5,0.8,2h6v3.9h-13.2v2.3c0,2.3-0.1,4.1-0.4,5.2
		c-0.3,1.2-0.9,2.4-1.8,3.7c-0.1-0.1-0.4-0.4-0.8-0.6c0.8-1.2,1.4-2.3,1.6-3.3c0.3-1,0.4-2.6,0.4-4.9v-6.3h7.1
		C1021.7,140.5,1021.5,139.9,1021.2,139.2z M1015.8,155.6c1.7-1,2.7-2,3.2-2.9s0.8-2.4,0.8-4.6h-3.1v-0.9h6.4
		c-0.1-0.3-0.2-0.8-0.5-1.6l1-0.2c0.2,0.8,0.4,1.4,0.5,1.8h6.2v0.9h-9.4c0,0.8-0.1,1.5-0.1,2.1h7.6c0,1.1-0.1,2.1-0.2,3.1
		c-0.1,1.7-1.1,2.6-2.8,2.5c-0.4,0-1.2,0-2.4,0c-0.1-0.3-0.1-0.7-0.2-1c0.5,0,1.3,0.1,2.5,0.1c0.1,0,0.2,0,0.3,0
		c1.1,0,1.7-0.6,1.7-1.8c0.1-0.8,0.1-1.5,0.1-2.1h-6.6c-0.2,2.1-1.5,3.9-4,5.4C1016.3,156.2,1016.1,155.9,1015.8,155.6z M1015.8,142
		v2.2h12.2V142H1015.8z"/>
	<path class="st2" d="M1031.4,154.2l-0.3-0.9c0.6-0.2,1.5-0.4,2.6-0.8V145h-2.1v-0.9h2.1v-5h1v5h2v0.9h-2v7.2
		c0.2-0.1,0.5-0.2,0.9-0.3c0.7-0.2,1.2-0.4,1.6-0.5c0,0.1,0,0.4,0.1,0.9C1034.7,153.2,1032.8,153.8,1031.4,154.2z M1038.3,141.3h1v4
		l3.2-1.1v-5.1h1v4.7l4.3-1.5c0,2.2-0.1,4-0.2,5.3c0,1.8-0.7,2.6-2,2.5c-0.3,0-0.7,0-1.2,0c0-0.3-0.1-0.6-0.2-1c0.2,0,0.4,0,0.5,0
		s0.2,0,0.3,0c0.1,0,0.2,0,0.4,0c0.8,0.1,1.2-0.4,1.2-1.6c0.1-1.5,0.2-2.9,0.2-4.1l-3.4,1.2v7.7h-1v-7.4l-3.2,1.1v6.8
		c0,0.7,0.1,1.2,0.4,1.4c0.2,0.3,0.8,0.4,1.6,0.4h3.9c1.4,0.1,2.2-0.4,2.3-1.5c0.2-0.8,0.3-1.6,0.4-2.5c0.3,0.2,0.6,0.3,0.9,0.3
		c-0.1,1-0.2,1.8-0.4,2.5c-0.2,0.8-0.5,1.3-0.9,1.6s-1.1,0.5-2.1,0.4h-4.5c-1.8,0.1-2.7-0.7-2.6-2.4v-6.7l-1.5,0.5l-0.2-0.9l1.7-0.6
		L1038.3,141.3L1038.3,141.3z"/>
	<path class="st2" d="M1051.5,146.3h8.7c0.7-1.1,1.4-2.2,2.1-3.5l1,0.5c-0.6,1-1.3,1.9-2,3h5.2v0.9h-14v1.4c0.1,3.2-0.6,5.8-2.1,7.7
		c-0.3-0.3-0.6-0.5-0.8-0.7c0.7-0.9,1.2-1.9,1.5-2.9s0.4-2.4,0.4-4.1L1051.5,146.3L1051.5,146.3z M1057.8,139.3l1-0.3
		c0.3,0.8,0.5,1.5,0.7,2.1h7.4v0.9H1050v-0.9h8.4c-0.1-0.4-0.3-0.9-0.6-1.7C1057.8,139.4,1057.8,139.4,1057.8,139.3z M1054,143.3
		l0.8-0.5c0.5,0.7,1.2,1.5,2,2.7l-0.9,0.6C1055.4,145,1054.7,144.1,1054,143.3z"/>
</g>
<circle id="椭圆_6" class="st3" cx="377.3" cy="93" r="91.8"/>
<g class="st1">
	<path class="st4" d="M316.7,90.3h-1.8V84h-7v6.3h-1.8v-14h1.8v6h7v-6h1.8V90.3z"/>
	<path class="st4" d="M319.4,85.4c0-1.6,0.5-2.9,1.4-3.9c0.9-0.9,2.2-1.4,3.7-1.4s2.7,0.5,3.5,1.4s1.3,2.2,1.3,3.8
		c0,1.6-0.5,2.8-1.4,3.8s-2.1,1.4-3.6,1.4s-2.7-0.5-3.5-1.4C319.9,88.2,319.4,86.9,319.4,85.4z M321.2,85.3c0,1.1,0.3,2,0.9,2.7
		s1.4,1,2.3,1c1,0,1.8-0.3,2.3-1c0.5-0.6,0.8-1.6,0.8-2.8c0-1.2-0.3-2.1-0.8-2.8c-0.5-0.6-1.3-1-2.3-1s-1.8,0.3-2.3,1
		C321.5,83.2,321.2,84.2,321.2,85.3z"/>
	<path class="st4" d="M339.9,90.3h-1.8v-1.6l0,0c-0.7,1.2-1.7,1.8-3.1,1.8c-2.3,0-3.5-1.4-3.5-4.2v-5.9h1.7V86c0,2,0.8,3,2.3,3
		c0.8,0,1.4-0.3,1.9-0.8c0.5-0.6,0.7-1.3,0.7-2.1v-5.7h1.8V90.3z"/>
	<path class="st4" d="M342.5,88.1c0.9,0.6,1.8,1,2.9,1c1.4,0,2.1-0.4,2.1-1.3c0-0.4-0.1-0.7-0.4-0.9s-0.9-0.5-1.8-0.9
		c-1.1-0.4-1.8-0.9-2.1-1.3c-0.3-0.4-0.5-1-0.5-1.6c0-0.9,0.4-1.6,1.1-2.1s1.7-0.8,2.7-0.8c0.8,0,1.6,0.1,2.3,0.4v1.7
		c-0.7-0.5-1.6-0.7-2.5-0.7c-0.6,0-1,0.1-1.4,0.4s-0.5,0.6-0.5,1s0.1,0.7,0.4,0.9c0.3,0.2,0.8,0.5,1.7,0.9c1.1,0.4,1.9,0.8,2.2,1.3
		c0.4,0.4,0.6,1,0.6,1.6c0,0.9-0.4,1.6-1.1,2.2c-0.7,0.5-1.7,0.8-2.9,0.8c-1,0-1.9-0.2-2.7-0.6v-2H342.5z"/>
	<path class="st4" d="M359.7,85.7h-6.9c0,1.1,0.3,1.9,0.9,2.5c0.5,0.6,1.3,0.9,2.3,0.9c1.1,0,2.1-0.4,3.1-1.1v1.6
		c-0.9,0.6-2,0.9-3.5,0.9c-1.4,0-2.6-0.5-3.4-1.4s-1.2-2.2-1.2-3.8c0-1.5,0.4-2.8,1.3-3.8s2-1.5,3.3-1.5s2.3,0.4,3,1.3
		c0.7,0.8,1.1,2,1.1,3.5L359.7,85.7L359.7,85.7z M357.9,84.3c0-0.9-0.2-1.6-0.6-2.1s-1-0.7-1.8-0.7c-0.7,0-1.3,0.3-1.8,0.8
		s-0.8,1.2-1,2C352.7,84.3,357.9,84.3,357.9,84.3z"/>
	<path class="st4" d="M370.6,77.9h-4v12.3h-1.8V77.9h-4v-1.6h9.8V77.9z"/>
	<path class="st4" d="M369.8,85.4c0-1.6,0.5-2.9,1.4-3.9c0.9-0.9,2.2-1.4,3.7-1.4s2.7,0.5,3.5,1.4s1.3,2.2,1.3,3.8
		c0,1.6-0.5,2.8-1.4,3.8s-2.1,1.4-3.6,1.4s-2.7-0.5-3.5-1.4C370.3,88.2,369.8,86.9,369.8,85.4z M371.6,85.3c0,1.1,0.3,2,0.9,2.7
		s1.4,1,2.3,1c1,0,1.8-0.3,2.3-1c0.5-0.6,0.8-1.6,0.8-2.8c0-1.2-0.3-2.1-0.8-2.8c-0.5-0.6-1.3-1-2.3-1s-1.8,0.3-2.3,1
		C371.9,83.2,371.6,84.2,371.6,85.3z"/>
	<path class="st4" d="M390.6,90.3h-2.4l-4.2-4.8l0,0v4.8h-1.8V75.6h1.8v9.3l0,0l4-4.6h2.3l-4.5,4.8L390.6,90.3z"/>
	<path class="st4" d="M399.8,85.7h-6.9c0,1.1,0.3,1.9,0.9,2.5c0.5,0.6,1.3,0.9,2.3,0.9c1.1,0,2.1-0.4,3.1-1.1v1.6
		c-0.9,0.6-2,0.9-3.5,0.9c-1.4,0-2.6-0.5-3.4-1.4s-1.2-2.2-1.2-3.8c0-1.5,0.4-2.8,1.3-3.8s2-1.5,3.3-1.5s2.3,0.4,3,1.3
		c0.7,0.8,1.1,2,1.1,3.5L399.8,85.7L399.8,85.7z M398.1,84.3c0-0.9-0.2-1.6-0.6-2.1s-1-0.7-1.8-0.7c-0.7,0-1.3,0.3-1.8,0.8
		s-0.8,1.2-1,2C392.9,84.3,398.1,84.3,398.1,84.3z"/>
	<path class="st4" d="M410.5,90.3h-1.7v-5.7c0-2-0.7-3.1-2.2-3.1c-0.8,0-1.4,0.3-1.9,0.9s-0.7,1.3-0.7,2.2v5.7h-1.8v-9.9h1.8V82l0,0
		c0.7-1.3,1.8-1.9,3.3-1.9c1.1,0,1.9,0.3,2.5,1s0.9,1.7,0.9,3.1v6.1H410.5z"/>
	<path class="st4" d="M426.5,90.3h-7.3v-14h1.8v12.3h5.5V90.3z"/>
	<path class="st4" d="M435.9,77.9h-4v12.3H430V77.9h-4v-1.6h9.8v1.6H435.9z"/>
	<path class="st4" d="M438,90.3v-14h4c2.1,0,3.9,0.6,5.2,1.8c1.4,1.2,2.1,2.9,2.1,4.9c0,2.2-0.7,3.9-2.1,5.2
		c-1.4,1.3-3.2,1.9-5.4,1.9H438V90.3z M439.8,77.9v10.7h2c1.8,0,3.1-0.5,4.1-1.4s1.5-2.3,1.5-4.1c0-1.7-0.5-3-1.5-3.9
		s-2.4-1.3-4-1.3C441.9,77.9,439.8,77.9,439.8,77.9z"/>
</g>
<g class="st1">
	<path class="st4" d="M314.3,128.4c-2-2.3-3-5.1-3-8.5c0-3.3,1-6.2,3-8.6h1.6c-2,2.5-3,5.3-3,8.6c0,3.2,1,6.1,3,8.5H314.3z"/>
	<path class="st4" d="M316.4,117.9h4.7v-5.2h-3.9v-1.4h16.1v1.4h-3.7v5.2h4.4v1.4h-4.4v8.2h-1.5v-8.2h-5.6c0,2.2-0.4,3.8-0.9,4.9
		c-0.6,1.2-1.9,2.4-4,3.5c-0.3-0.4-0.7-0.9-1-1.3c1.8-0.9,3-1.9,3.7-2.9c0.5-0.8,0.8-2.2,0.9-4.2h-4.7v-1.4H316.4z M322.6,117.9h5.6
		v-5.2h-5.6V117.9z"/>
	<path class="st4" d="M336.4,122.8v-1h13.5v1c-1.2,1-2.7,1.8-4.4,2.5c1.9,0.5,4.2,0.8,6.7,1c-0.3,0.4-0.5,0.8-0.8,1.3
		c-3-0.4-5.6-0.9-7.7-1.6c-2.3,0.8-4.9,1.3-8,1.8c-0.2-0.4-0.4-0.8-0.6-1.2c2.6-0.3,4.8-0.7,6.9-1.3c-1.6-0.7-2.9-1.6-3.8-2.5
		C338.2,122.8,336.4,122.8,336.4,122.8z M335.7,116.8h15.8v4.4h-1.2v-0.4h-13.4v0.4h-1.2L335.7,116.8L335.7,116.8z M336.9,119.7h3.7
		v-1.9h-3.7V119.7z M337.4,110.5h12.4v5.7h-1.2v-0.5h-10v0.5h-1.2L337.4,110.5L337.4,110.5z M348.6,111.5h-10v1.1h10V111.5z
		 M338.6,114.8h10v-1.1h-10V114.8z M347.9,122.8h-8.2c1.1,0.8,2.4,1.5,4,2C345.2,124.2,346.6,123.6,347.9,122.8z M341.7,119.7h3.7
		v-1.9h-3.7V119.7z M350.3,117.8h-3.7v1.9h3.7V117.8z"/>
	<path class="st4" d="M358.1,127.6h-1.4v-9.3c-0.9,1-1.8,2-2.9,2.9c-0.3-0.4-0.5-0.9-0.9-1.3c2.3-1.9,4.1-4.1,5.4-6.4h-4.9v-1.3h5.6
		c0.3-0.7,0.6-1.5,0.9-2.3l1.5,0.3c-0.2,0.7-0.5,1.3-0.8,2h10.1v1.3H360c-0.4,0.7-0.8,1.4-1.2,2.1h9.8v9.6c0,1.5-0.7,2.2-2.2,2.2
		c-0.6,0-1.6,0-2.9,0c-0.1-0.4-0.1-0.9-0.3-1.5c1.1,0.1,2,0.1,2.7,0.1c0.8,0,1.2-0.4,1.2-1.2v-1.3h-9V127.6z M367.1,116.8h-9v2.1h9
		V116.8z M358.1,122.3h9v-2.2h-9V122.3z"/>
	<path class="st4" d="M377.7,120.6c0.3,2.3-0.2,3.6-1.7,3.8c-0.5,0.1-1.1,0.1-1.8,0c-0.1-0.5-0.2-1-0.4-1.5c0.6,0.2,1.2,0.2,1.6,0.1
		c0.8-0.2,1.1-1,0.8-2.6c-0.2-1-0.7-2-1.6-3.2c0.4-1.3,1-3,1.7-5.2h-2.7v15.7h-1.3v-16.9h5.4v1.3c-0.6,1.7-1.1,3.4-1.7,5
		C377,118.4,377.5,119.6,377.7,120.6z M378.8,110.9h8.5v8.9H386v-0.5h-3c0.4,1.1,0.9,2,1.5,2.9c1.1-0.7,2.2-1.5,3.4-2.5l1,1.1
		c-1.3,0.9-2.5,1.7-3.5,2.4c1,1.1,2.3,1.9,3.9,2.5c-0.4,0.4-0.8,0.9-1.1,1.3c-3.3-1.7-5.5-4.3-6.4-7.7h-1.5v6.1
		c0.8-0.4,1.8-0.9,3.1-1.6c0,0.6,0,1,0.1,1.4c-1.1,0.5-2.1,1.1-3.1,1.7c-0.2,0.1-0.6,0.4-1,0.8l-1-1.3c0.4-0.3,0.5-0.7,0.5-1.2
		v-14.3H378.8z M386,112.1h-5.8v2.4h5.8V112.1z M386,118.1v-2.4h-5.8v2.4H386z"/>
	<path class="st4" d="M389.7,118.4c2.7-2.2,4.7-4.8,6-7.7l1.4,0.6c-1.6,3.4-3.7,6.1-6.2,8.3C390.5,119.2,390.2,118.8,389.7,118.4z
		 M401.4,120.6c1.7,2.2,3.2,4.3,4.4,6.1l-1.4,0.9c-0.3-0.6-0.7-1.1-1.1-1.7c-3.9,0.2-7.2,0.4-9.6,0.6c-0.5,0-1,0.2-1.6,0.3l-0.8-1.5
		c0.5-0.2,1-0.5,1.5-1c1.4-1.6,2.9-4,4.6-7.2l1.5,0.7c-1.5,2.6-3.1,4.9-4.8,7.2c2.5-0.1,5.3-0.2,8.4-0.3c-0.7-1-1.4-2.1-2.3-3.3
		L401.4,120.6z M399.8,111l1.3-0.5c1.2,3.1,3.3,5.6,6.5,7.4c-0.3,0.3-0.7,0.8-1.1,1.4C403.2,117,401,114.3,399.8,111z"/>
	<path class="st4" d="M408.4,114.4H422v1.3h-13.7v-1.3H408.4z M409.4,112.2v-1.3h15.5v14c0,1.7-0.8,2.6-2.3,2.6c-0.9,0-2,0-3.5,0
		c0-0.4-0.1-0.9-0.3-1.5c1.5,0.1,2.6,0.1,3.4,0.1s1.2-0.5,1.2-1.4v-12.3h-14V112.2z M410.2,117.8h9.4v6.4h-8v1.3h-1.4V117.8z
		 M418.1,122.9v-3.8h-6.6v3.8H418.1z"/>
	<path class="st4" d="M429.4,128.4h-1.5c2.1-2.4,3.2-5.3,3.2-8.6c0-3.2-1.1-6.1-3.2-8.5h1.5c2.1,2.3,3.2,5.1,3.2,8.5
		S431.5,126,429.4,128.4z"/>
</g>
<g class="st1">
	<path class="st4" d="M29,145l-0.1-1.1c0.2,0,0.4-0.1,0.8-0.2c0.8-0.2,1.4-0.4,1.9-0.5v-4.3h-2.4V138h2.4v-3.5h0.9v3.5h2.2v0.9h-2.2
		v4c0.6-0.2,1.3-0.4,2-0.6c0,0.4,0,0.7,0,1c0,0-0.1,0-0.2,0.1c-0.8,0.2-1.4,0.4-1.8,0.6v5.5c0.1,1.4-0.5,2.1-1.8,2.1
		c-0.6,0-1,0-1.3,0c0,0,0-0.1,0-0.2c0-0.4-0.1-0.6-0.1-0.9c0.6,0,1,0,1.3,0c0.8,0,1.1-0.3,1.1-1.1v-5.1c-0.2,0.1-0.4,0.1-0.7,0.2
		C30.5,144.5,29.9,144.7,29,145z M35.7,143.5v-0.9h8.8v0.9c-0.9,2-2,3.6-3.5,4.8c1.3,1,3.1,1.7,5.4,2.2c-0.2,0.3-0.3,0.6-0.5,1
		c-2.4-0.7-4.3-1.5-5.6-2.6c-1.5,1.1-3.4,2-5.7,2.7c-0.2-0.3-0.4-0.6-0.6-0.9c2.2-0.6,4-1.4,5.5-2.4c-1.3-1.2-2.3-2.8-2.9-4.8H35.7z
		 M44.6,140h1.6c-0.1,0.3-0.1,0.6-0.2,0.9h-1.6c-1.4,0.1-2-0.6-2-2v-2.8H38v0.8c0.1,2.1-0.7,3.7-2.5,4.9c-0.3-0.3-0.5-0.6-0.7-0.8
		c0.9-0.6,1.5-1.2,1.8-1.8s0.5-1.4,0.5-2.4v-1.7h6.3v3.6c0,0.5,0.1,0.8,0.3,0.9C43.9,139.9,44.2,140,44.6,140z M43.4,143.5h-6
		c0.6,1.8,1.6,3.2,2.8,4.2C41.6,146.5,42.7,145.1,43.4,143.5z"/>
	<path class="st4" d="M47.4,141.6c1.5-1,2.9-2.1,4.3-3.2c0.1,0.2,0.2,0.5,0.5,0.9c-1.3,1-2.7,2.1-4.1,3.2L47.4,141.6z M55.7,145h1
		c0,0.6-0.1,1.3-0.2,1.9c0,0,0,0.1,0,0.2c0,0.2-0.1,0.3-0.1,0.4c2.4,0.9,4.9,1.9,7.7,3l-0.5,0.9c-2.8-1.2-5.3-2.3-7.5-3.2
		c-0.8,1.4-3.3,2.5-7.5,3.2c-0.1-0.3-0.3-0.7-0.5-1c4.7-0.6,7.3-1.9,7.6-3.8C55.6,146.3,55.7,145.7,55.7,145z M51,137.4
		c-0.9-0.7-1.8-1.5-2.8-2.2l0.6-0.7c0.9,0.6,1.8,1.3,2.9,2.1L51,137.4z M50.1,143h12v5.2h-1v-4.4H51v4.4h-1L50.1,143L50.1,143z
		 M52.9,142.4c-0.2-0.3-0.4-0.6-0.6-0.9c3.6-0.8,5.6-2.4,5.8-4.8h-2.9c-0.5,0.8-1.1,1.6-1.9,2.4c-0.3-0.3-0.5-0.5-0.8-0.7
		c1.3-1.3,2.2-2.7,2.9-4.3l0.9,0.3c-0.2,0.5-0.4,1-0.7,1.4h8.1v0.9l-1.1,2.2c-0.2-0.1-0.6-0.2-0.9-0.3l1-1.9h-3.8
		c0,0.2-0.1,0.3-0.1,0.5c0.9,2.3,2.7,3.8,5.6,4.3c-0.2,0.3-0.4,0.6-0.5,0.9c-2.8-0.8-4.6-2.2-5.4-4.1
		C58.1,140.1,56.2,141.4,52.9,142.4z"/>
	<path class="st4" d="M82.2,151.2c-4.6-2.4-7.2-6.2-7.8-11.5c-0.7,5.1-3.3,9-7.8,11.7c-0.3-0.4-0.6-0.6-0.8-0.8
		c4.6-2.6,7.2-6.5,7.8-11.6c0.1-0.6,0.2-1.3,0.2-1.9c0-0.6,0.1-1.4,0.1-2.5H75c0,0.2,0,0.5,0,0.8c0,0.9-0.1,1.5-0.1,1.9
		c0.7,6.6,3.4,11,8.1,13C82.6,150.5,82.4,150.8,82.2,151.2z"/>
</g>
<g class="st1">
	<path class="st4" d="M8.9,174.6c-2-2.3-2.9-5.1-2.9-8.5c0-3.5,1-6.4,3-8.6h0.9c-2,2.3-3,5.2-3,8.6c0,3.2,1,6,3,8.5H8.9z"/>
	<path class="st4" d="M10.9,166c-0.1-0.3-0.2-0.7-0.4-1.1c1.8-2.4,3.3-5.2,4.4-8.4l1,0.3c-0.5,1.4-1.1,2.7-1.7,3.9v13h-1v-11.2
		C12.4,163.8,11.7,164.9,10.9,166z M15.6,162.6l4.3-0.5c-0.1-1.6-0.2-3.5-0.2-5.7h1c0,2.3,0.1,4.1,0.2,5.6l6.7-0.7l0.1,0.9L21,163
		c0.2,3,0.8,5.4,1.7,7.2c0.8,1.6,1.6,2.4,2.6,2.4c0.7,0,1.1-0.4,1.3-1.3c0.2-0.6,0.3-1.4,0.5-2.3c0.3,0.1,0.6,0.2,0.9,0.3
		c-0.1,0.8-0.3,1.5-0.5,2.2c-0.4,1.3-1.1,2-2.2,2c-1.4,0-2.6-1-3.6-2.9c-0.9-1.8-1.5-4.3-1.8-7.5l-4.2,0.5L15.6,162.6z M22.6,157.9
		l0.7-0.6c1,0.8,2,1.7,3.1,2.6l-0.8,0.7C24.8,159.8,23.8,158.9,22.6,157.9z"/>
	<path class="st4" d="M45.5,158.3c-1.7,0.1-4.2,0.2-7.4,0.3v3.6h6.5v7.1c0.1,1.4-0.7,2.2-2.2,2.2c-0.3,0-0.6,0-0.9,0
		c-0.3,0-0.7,0-1.2,0c0-0.4-0.1-0.7-0.2-1c0.2,0,0.4,0,0.7,0c0.1,0,0.3,0,0.4,0c0.1,0,0.4,0,0.8,0c1.1,0,1.6-0.4,1.6-1.4V163h-5.5
		v10.5h-1V163h-5.4v8.5h-1V162h6.4v-3.6c-3.2,0.1-5.6,0.2-7.1,0.2c0-0.4-0.1-0.8-0.2-1c5.9-0.1,11.1-0.3,15.5-0.6L45.5,158.3z"/>
	<path class="st4" d="M47.3,166c0.1,0,0.3-0.1,0.5-0.1c0.9-0.2,1.6-0.4,2.1-0.5v-4.3h-2.5v-0.9h2.5v-3.8h1v3.8H53v0.9h-2.1v4.1
		c0.2,0,0.5-0.1,0.8-0.2c0.6-0.1,1-0.3,1.3-0.3c0,0.1,0,0.3,0,0.4c0,0.2,0,0.4,0,0.5c-0.3,0.1-0.7,0.2-1.3,0.3
		c-0.4,0.1-0.7,0.2-0.9,0.2v5.5c0,1.2-0.5,1.8-1.7,1.8c-0.5,0-1,0-1.5,0c0-0.3-0.1-0.7-0.2-1.1c0.3,0,0.7,0,1.4,0s1-0.3,1-1v-5.1
		c-0.3,0.1-0.7,0.2-1.3,0.3c-0.5,0.1-0.9,0.2-1.2,0.3V166z M60.9,164.5h1v1.7h2.9v0.9h-2.9v4.3c0,1.3-0.7,2-2.3,2c-0.3,0-0.7,0-1,0
		c-0.2,0-0.3,0-0.5,0s-0.4,0-0.7,0c0-0.3-0.1-0.6-0.2-1.1c0.4,0,0.7,0,1.1,0.1c0.1,0,0.3,0,0.5,0c0.1,0,0.4,0,0.7,0
		c0.6,0,1-0.1,1.2-0.3s0.3-0.6,0.3-1.1v-4h-7.5v-0.9H61L60.9,164.5L60.9,164.5z M54.2,158.9h4.4v-2.5h1v2.5H64v0.9h-4.4v3h5.2v0.9
		H53.4v-0.9h5.2v-3h-4.4V158.9z M54.3,168.6L55,168c1.2,1.1,2,1.9,2.5,2.4l-0.8,0.7C56,170.2,55.1,169.4,54.3,168.6z"/>
	<path class="st4" d="M70.3,173.7h-1v-9.6c-0.9,0.9-1.9,1.9-3,3c-0.2-0.3-0.4-0.5-0.7-0.8c2.4-2,4.3-4.1,5.8-6.5h-5.1v-0.9h5.6
		c0.5-0.8,0.9-1.6,1.3-2.5l1,0.3c-0.5,0.9-0.8,1.7-1.1,2.2h9.7v0.9H72.5c-0.5,0.8-1,1.6-1.6,2.4h9.8v9.1c0.1,1.4-0.6,2.1-2.1,2.1
		c-0.7,0-1.5,0-2.5,0c-0.1-0.4-0.1-0.7-0.3-1c0.7,0,1.6,0,2.5,0c0.5,0,0.9-0.1,1.1-0.3s0.3-0.5,0.3-1v-1.6h-9.4V173.7z M70.3,163
		v2.4h9.4V163H70.3z M70.3,166.2v2.4h9.4v-2.4H70.3z"/>
	<path class="st4" d="M100.5,173.3c-4.6-2.4-7.2-6.2-7.8-11.5c-0.7,5.1-3.3,9-7.8,11.7c-0.3-0.4-0.6-0.6-0.8-0.8
		c4.6-2.6,7.2-6.5,7.8-11.6c0.1-0.6,0.2-1.3,0.2-1.9c0-0.6,0.1-1.4,0.1-2.5h1.1c0,0.2,0,0.5,0,0.8c0,0.9-0.1,1.5-0.1,1.9
		c0.7,6.6,3.4,11,8.1,13C101,172.6,100.8,172.9,100.5,173.3z"/>
	<path class="st4" d="M103.1,174.6h-1c2-2.4,3-5.3,3-8.5c0-3.4-1-6.3-3-8.6h1c2,2.3,3,5.1,3,8.6C106,169.5,105.1,172.3,103.1,174.6z
		"/>
</g>
<g>
	<circle class="st5" cx="56" cy="65.3" r="15.3"/>
	<line class="st5" x1="43.7" y1="89.3" x2="56" y2="103.3"/>
	<line class="st5" x1="68" y1="89.3" x2="56" y2="103.3"/>
	<line class="st5" x1="56" y1="117.3" x2="56" y2="103.3"/>
	<path class="st5" d="M88.9,109.3v3.3c0,3-2.5,5.5-5.5,5.5H28.6c-3,0-5.5-2.5-5.5-5.5v-3.3"/>
	<path class="st5" d="M28.6,103.8"/>
	<path class="st5" d="M23.1,110.8c0-12.4,10.2-21.9,22.6-21.9h20.6c12.4,0,22.5,10.1,22.5,22.5l0,0"/>
</g>
<g class="st1">
	<path class="st2" d="M740.7,50h-10v10h10V50z M737.4,56.6h-3.3v-3.3h3.3V56.6z"/>
	<path class="st2" d="M754,50h-10v10h10V50z M750.7,56.6h-3.3v-3.3h3.3V56.6z"/>
	<path class="st2" d="M740.7,63.3h-10v10h10V63.3z M737.4,69.9h-3.3v-3.3h3.3V69.9z"/>
	<path class="st2" d="M754,63.3h-10v10h10V63.3z M750.7,69.9h-3.3v-3.3h3.3V69.9z"/>
	<path class="st2" d="M740.7,86.5v-10h-10v10H740.7z M734.1,79.9h3.3v3.3h-3.3V79.9z"/>
	<path class="st2" d="M754,76.6h-10v10h10V76.6z M750.7,83.2h-3.3v-3.3h3.3V83.2z"/>
	<path class="st2" d="M764,46.7v-3.3h-3.3v-6.6h-3.3v-6.6h-29.9v6.6h-3.3v6.6h-3.3v3.3h3.3v43.2h-13.3v-20h3.3V60h-3.3v-2.5
		l-23.3-16.1l-10,6.9v-5.1h-10v12l-3.3,2.3V60H661v10h3.3v20.3c-1.9,0.7-3.3,2.5-3.3,4.6v3.3c0,2.7,2.3,5,5,5h32.4
		c-2.6,3.2-4.2,7.2-4.2,11.6c0,10.1,8.2,18.3,18.3,18.3s18.3-8.1,18.3-18.2c0-4.4-1.5-8.4-4.2-11.6H759c2.7,0,5-2.3,5-5V95
		c0-2.1-1.4-4-3.3-4.6V46.7H764z M730.8,33.4H754v3.3h-23.3L730.8,33.4L730.8,33.4z M727.5,40h29.9v3.3h-29.9V40z M671,46.4h3.3v4.2
		l-3.3,2.3V46.4z M667.6,59.3l19.9-13.8l19.9,13.8v0.8h-39.9L667.6,59.3L667.6,59.3z M664.3,63.3h46.5v3.3h-46.5V63.3z M707.5,69.9
		v19.9h-13.3V73.3h-13.3v16.6h-13.3v-20H707.5z M690.9,89.9h-6.6V76.6h6.6V89.9z M712.5,129.7c-8.2,0-15-6.8-15-15s6.8-15,15-15
		s15,6.8,15,15C727.5,123.1,720.8,129.7,712.5,129.7z M760.7,98.2c0,0.9-0.7,1.7-1.7,1.7h-36.1c-3-2.1-6.5-3.3-10.4-3.3
		s-7.5,1.2-10.4,3.3H666c-0.9,0-1.7-0.7-1.7-1.7v-3.3c0-0.9,0.7-1.7,1.7-1.7h93c0.9,0,1.7,0.7,1.7,1.7V98.2z M757.4,89.9h-29.9V46.7
		h29.9V89.9z"/>
</g>
<g class="st1">
	<g>
		<g>
			<path class="st2" d="M964,53h-12.6c-0.9,0-1.6,0.7-1.6,1.6V61c0,0.9,0.7,1.6,1.6,1.6H964c0.9,0,1.6-0.7,1.6-1.6v-6.4
				C965.4,53.7,964.9,53,964,53z M955.9,59.4h-3.1v-3.1h3.1V59.4z M962.3,59.4h-3.1v-3.1h3.1V59.4z"/>
		</g>
	</g>
	<g>
		<g>
			<path class="st2" d="M964,65.6h-12.6c-0.9,0-1.6,0.7-1.6,1.6v6.4c0,0.9,0.7,1.6,1.6,1.6H964c0.9,0,1.6-0.7,1.6-1.6v-6.4
				C965.4,66.3,964.9,65.6,964,65.6z M955.9,72h-3.1v-3.1h3.1V72z M962.3,72h-3.1v-3.1h3.1V72z"/>
		</g>
	</g>
	<g>
		<g>
			<path class="st2" d="M964,78.4h-12.6c-0.9,0-1.6,0.7-1.6,1.6v6.2c0,0.9,0.7,1.6,1.6,1.6H964c0.9,0,1.6-0.7,1.6-1.6v-6.4
				C965.4,79,964.9,78.4,964,78.4z M955.9,84.6h-3.1v-3.1h3.1V84.6z M962.3,84.6h-3.1v-3.1h3.1V84.6z"/>
		</g>
	</g>
	<g>
		<g>
			<path class="st2" d="M1021,53h-12.6c-0.9,0-1.6,0.7-1.6,1.6V61c0,0.9,0.7,1.6,1.6,1.6h12.6c0.9,0,1.6-0.7,1.6-1.6v-6.4
				C1022.5,53.7,1021.9,53,1021,53z M1013,59.4h-3.1v-3.1h3.1V59.4z M1019.3,59.4h-3.1v-3.1h3.1V59.4z"/>
		</g>
	</g>
	<g>
		<g>
			<path class="st2" d="M1021,40.4h-12.6c-0.9,0-1.6,0.7-1.6,1.6v6.4c0,0.9,0.7,1.6,1.6,1.6h12.6c0.9,0,1.6-0.7,1.6-1.6V42
				C1022.5,40.9,1021.9,40.4,1021,40.4z M1013,46.6h-3.1v-3.1h3.1V46.6z M1019.3,46.6h-3.1v-3.1h3.1V46.6z"/>
		</g>
	</g>
	<g>
		<g>
			<path class="st2" d="M983,59.4h-6.4c-0.9,0-1.6,0.7-1.6,1.6v6.4c0,0.9,0.7,1.6,1.6,1.6h6.4c0.9,0,1.6-0.7,1.6-1.6V61
				C984.5,60,983.9,59.4,983,59.4z M981.3,65.6h-3.1v-3.1h3.1V65.6z"/>
		</g>
	</g>
	<g>
		<g>
			<path class="st2" d="M995.6,59.4h-6.4c-0.9,0-1.6,0.7-1.6,1.6v6.4c0,0.9,0.7,1.6,1.6,1.6h6.4c0.9,0,1.6-0.7,1.6-1.6V61
				C997.2,60,996.5,59.4,995.6,59.4z M994,65.6h-3.1v-3.1h3.1V65.6z"/>
		</g>
	</g>
	<g>
		<g>
			<path class="st2" d="M983,46.6h-6.4c-0.9,0-1.6,0.7-1.6,1.6v6.4c0,0.9,0.7,1.6,1.6,1.6h6.4c0.9,0,1.6-0.7,1.6-1.6v-6.4
				C984.5,47.3,983.9,46.6,983,46.6z M981.3,53h-3.1v-3.1h3.1V53z"/>
		</g>
	</g>
	<g>
		<g>
			<path class="st2" d="M995.6,46.6h-6.4c-0.9,0-1.6,0.7-1.6,1.6v6.4c0,0.9,0.7,1.6,1.6,1.6h6.4c0.9,0,1.6-0.7,1.6-1.6v-6.4
				C997.2,47.3,996.5,46.6,995.6,46.6z M994,53h-3.1v-3.1h3.1V53z"/>
		</g>
	</g>
	<g>
		<g>
			<path class="st2" d="M983,34h-6.4c-0.9,0-1.6,0.7-1.6,1.6V42c0,0.9,0.7,1.6,1.6,1.6h6.4c0.9,0,1.6-0.7,1.6-1.6v-6.4
				C984.5,34.7,983.9,34,983,34z M981.3,40.4h-3.1v-3.1h3.1V40.4z"/>
		</g>
	</g>
	<g>
		<g>
			<path class="st2" d="M995.6,34h-6.4c-0.9,0-1.6,0.7-1.6,1.6V42c0,0.9,0.7,1.6,1.6,1.6h6.4c0.9,0,1.6-0.7,1.6-1.6v-6.4
				C997.2,34.7,996.5,34,995.6,34z M994,40.4h-3.1v-3.1h3.1V40.4z"/>
		</g>
	</g>
	<g>
		<g>
			<path class="st2" d="M983,78.4h-6.4c-0.9,0-1.6,0.7-1.6,1.6v6.2c0,0.9,0.7,1.6,1.6,1.6h6.4c0.9,0,1.6-0.7,1.6-1.6v-6.4
				C984.5,79,983.9,78.4,983,78.4z M981.3,84.6h-3.1v-3.1h3.1V84.6z"/>
		</g>
	</g>
	<g>
		<g>
			<rect x="949.7" y="91" class="st2" width="3.1" height="3.1"/>
		</g>
	</g>
	<g>
		<g>
			<rect x="955.9" y="91" class="st2" width="3.1" height="3.1"/>
		</g>
	</g>
	<g>
		<g>
			<rect x="962.3" y="91" class="st2" width="3.1" height="3.1"/>
		</g>
	</g>
	<g>
		<g>
			<path class="st2" d="M1036.7,72h-7.9V35.6c0-0.9-0.7-1.6-1.6-1.6h-11.1v-2.5l1.6-1.6c1.3,1,3,1.6,4.6,1.6c2.1,0,4-0.7,5.5-2.2
				l0.3-0.3c0.6-0.6,0.6-1.6,0-2.2l-3.6-3.6l3.6-3.6l-2.2-2.2l-3.6,3.6l-5.2-5.2c-0.3-0.3-0.7-0.4-1.2-0.4c-0.6,0-1,0.3-1.3,0.6
				c-1.6,1.5-2.5,3.4-2.5,5.5s0.7,4.3,2.4,5.8l0.7,0.7l-2.1,2.1c-0.3,0.3-0.4,0.7-0.4,1.2v3.1h-9.5v-5c0-0.9-0.7-1.6-1.6-1.6H996
				l-9.1-12c-0.6-0.7-1.9-0.7-2.5,0l-9.1,12h-5.5c-0.9,0-1.6,0.7-1.6,1.6v17.4h-9.5V34h-3.1v12.6h-11.1c-0.9,0-1.6,0.7-1.6,1.6v60.1
				c0,0.9,0.7,1.6,1.6,1.6h25.4H981h12.6h1.6h9.5h25.4c4.3,0,7.9-3.6,7.9-7.9V73.6C1038.4,72.7,1037.6,72,1036.7,72z M968.7,106.9
				h-22.1v-57h22.1V106.9z M1016.2,18.8l8.6,8.6c-1.8,1-4.2,0.9-5.8-0.7l-2.2-2.2c-0.9-0.9-1.5-2.1-1.3-3.4
				C1015.6,20.3,1015.8,19.6,1016.2,18.8z M986.1,19.1l6.4,8.5h-12.6L986.1,19.1z M979.7,94.1v12.6h-7.9V48.2V30.9h28.5v4.8v28.5
				h3.1v-27h22.1V72h-3.1v-1.6c0-2.7-2.1-4.8-4.8-4.8h-9.5c-2.7,0-4.8,2.1-4.8,4.8V72H989c-0.9,0-1.6,0.7-1.6,1.6V91h-12.6v3.1
				H979.7z M1019.3,70.4V72h-12.6v-1.6c0-0.9,0.7-1.6,1.6-1.6h9.5C1018.6,68.9,1019.3,69.5,1019.3,70.4z M983,106.9V94.3h4.8v7.9
				c0,1.8,0.6,3.4,1.6,4.8H983V106.9z M1035.2,102.1c0,2.7-2.1,4.8-4.8,4.8H1005h-9.5c-2.7,0-4.8-2.1-4.8-4.8V86.2
				c1.3,1,3,1.6,4.8,1.6h1.6v4.8c0,0.9,0.7,1.6,1.6,1.6h6.4c0.9,0,1.6-0.7,1.6-1.6v-4.8h1.6h9.5h1.6v4.8c0,0.9,0.7,1.6,1.6,1.6h6.4
				c0.9,0,1.6-0.7,1.6-1.6v-4.8h1.6c1.8,0,3.4-0.6,4.8-1.6v15.9H1035.2z M1000.3,91v-3.1h3.1V91H1000.3z M1009.8,84.6v-3.1h6.4v3.1
				H1009.8z M1022.5,91v-3.1h3.1V91H1022.5z M1035.2,79.9c0,2.7-2.1,4.8-4.8,4.8h-3.1h-6.4h-1.6v-4.8c0-0.9-0.7-1.6-1.6-1.6h-9.5
				c-0.9,0-1.6,0.7-1.6,1.6v4.8h-1.6h-6.4h-3.1c-2.7,0-4.8-2.1-4.8-4.8v-4.8h44.4L1035.2,79.9L1035.2,79.9z"/>
		</g>
	</g>
	<g>
		<g>
			<rect x="1028.9" y="100.5" class="st2" width="3.1" height="3.1"/>
		</g>
	</g>
	<g>
		<g>
			<rect x="1022.5" y="100.5" class="st2" width="3.1" height="3.1"/>
		</g>
	</g>
	<g>
		<g>
			<rect x="1016.2" y="100.5" class="st2" width="3.1" height="3.1"/>
		</g>
	</g>
</g>
<g>
	<path class="st2" d="M706.7,122.5v-1.8c1.9-0.6,2.9-1.8,2.9-3.7v-2.2H707V113h2.6v-3c0-1.5,0.4-2.8,1.4-3.7c1-1,2.2-1.5,3.6-1.5
		c1,0,1.9,0.1,2.8,0.6v2.1c-0.8-0.6-1.8-0.7-2.6-0.7c-1.9,0-2.9,1.2-2.9,3.6v2.8h3.9v1.8h-4v1.8c0,1.9-0.8,3.2-2.3,4.1h8.9v1.8
		h-11.7V122.5z"/>
</g>
</svg>
