<?xml version="1.0" encoding="utf-8"?>
<!-- Generator: Adobe Illustrator 22.1.0, SVG Export Plug-In . SVG Version: 6.00 Build 0)  -->
<svg version="1.1" id="图层_1" xmlns="http://www.w3.org/2000/svg" xmlns:xlink="http://www.w3.org/1999/xlink" x="0px" y="0px"
	 viewBox="0 0 198 256" style="enable-background:new 0 0 198 256;" xml:space="preserve">
<style type="text/css">
	.st0{fill:#EFEFEF;}
	.st1{fill:#D9D7D7;}
	.st2{fill:#F7F8F8;}
	.st3{fill:#00A99E;}
	.st4{fill:#FFFFFF;stroke:#FFFFFF;stroke-width:2;stroke-miterlimit:10;}
</style>
<ellipse class="st0" cx="100.5" cy="249.4" rx="44" ry="6.6"/>
<path class="st1" d="M197.9,173.2H0.2l0,17.1c0,0.1,0,0.1,0,0.2c0,0.1,0,0.1,0,0.2v0.2l0,0c0.7,18.3,44.7,33,98.8,33
	c54.6,0,98.9-15,98.9-33.4c0-1.9,0.3-4.1,0-6.6l0,0V173.2z"/>
<ellipse class="st2" cx="99" cy="173.2" rx="98.9" ry="33.4"/>
<ellipse class="st0" cx="99" cy="171.8" rx="46.3" ry="6.7"/>
<polygon class="st3" points="120.9,22.9 77.3,22.9 99.1,1 "/>
<polygon class="st3" points="160,38 121.3,38 140.6,18.5 "/>
<polygon class="st3" points="77.3,38 38.6,38 57.9,18.5 "/>
<polygon class="st3" points="67.2,68 67.2,36.9 48.9,36.9 48.9,73 60.9,73 "/>
<polygon class="st3" points="99.5,69.4 57.8,101.6 57.8,151.8 142.8,151.8 142.8,100.8 "/>
<polygon class="st3" points="49.3,102.7 99.4,63.4 149.5,100.9 153.2,92.6 99.6,52.8 45.4,95.4 "/>
<polygon class="st3" points="99.7,42.5 109.5,49.8 109.5,21.6 89,21.6 89,50.9 "/>
<polygon class="st3" points="140.9,73 149.9,73 149.9,36.9 131.6,36.9 131.6,66.2 "/>
<g>
	<path class="st4" d="M81.7,141.3v-5.5c5.8-1.7,8.7-5.5,8.7-11.6v-6.7h-7.9V112h7.9v-9.2c0-4.7,1.4-8.5,4.3-11.5
		c2.9-3,6.6-4.5,11.2-4.5c3,0,5.8,0.5,8.5,1.6v6.3c-2.7-1.5-5.4-2.3-8.3-2.3c-6.1,0-9.1,3.7-9.1,11.1v8.5h11.9v5.5H97v5.5
		c0,5.8-2.4,10-7.1,12.6h27.7v5.6H81.7z"/>
</g>
</svg>
