<?xml version="1.0" encoding="utf-8"?>
<!-- Generator: Adobe Illustrator 22.1.0, SVG Export Plug-In . SVG Version: 6.00 Build 0)  -->
<svg version="1.1" id="图层_1" xmlns="http://www.w3.org/2000/svg" xmlns:xlink="http://www.w3.org/1999/xlink" x="0px" y="0px"
	 viewBox="0 0 194 199" style="enable-background:new 0 0 194 199;" xml:space="preserve">
<style type="text/css">
	.st0{fill:#C4C3C1;}
	.st1{fill:#D5D4D2;}
	.st2{fill:#C9C8C7;}
	.st3{fill:#F8F9F9;}
	.st4{fill:#F0F0F0;}
	.st5{fill:#007C70;}
	.st6{fill:#FFFFFF;}
</style>
<g>
	<g>
		<g>
			<polygon class="st0" points="48.1,124 48,145.6 0.7,121.1 0.8,99.5 			"/>
		</g>
	</g>
	<g>
		<g>
			<g>
				
					<rect x="85.6" y="86.7" transform="matrix(3.558394e-03 -1 1 3.558394e-03 -38.9697 230.8686)" class="st1" width="21.6" height="96.6"/>
			</g>
		</g>
		<g>
			<polygon class="st2" points="193.9,100.3 193.8,121.9 144.6,146 144.7,124.4 			"/>
		</g>
		<g>
			<g>
				<polygon class="st3" points="193.9,100.3 144.7,124.4 48.1,124 0.8,99.5 50,75.4 146.6,75.8 				"/>
			</g>
		</g>
		<g>
			<g>
				<polygon class="st4" points="155.8,185 127.2,199 71.2,198.7 43.8,184.5 72.3,170.6 128.3,170.8 				"/>
			</g>
		</g>
		<ellipse class="st4" cx="97.4" cy="99.9" rx="40.2" ry="4.9"/>
	</g>
</g>
<g>
	<circle class="st5" cx="97.4" cy="41.6" r="41.6"/>
</g>
<g>
	<path class="st6" d="M101.4,34.1c-4.2,0-7.7-1.2-8.9-2.8l0,0v1.8c0,2.2,4,4,9,4c5,0,9-1.8,9-4v-2l0,0
		C109.4,32.9,105.8,34.1,101.4,34.1z"/>
	<path class="st6" d="M101.4,38.3c-4.2,0-7.7-1.2-8.9-2.8l0,0v1.8c0,2.2,4,4,9,4c5,0,9-1.8,9-4v-2l0,0
		C109.4,37.1,105.8,38.3,101.4,38.3z"/>
	<path class="st6" d="M83.2,47.4c-3.8,0-7.1-1.1-8.2-2.6l0,0v1.7c0,2,3.7,3.7,8.2,3.7c4.6,0,8.2-1.7,8.2-3.7v-1.8l0,0
		C90.5,46.3,87.2,47.4,83.2,47.4z"/>
	<path class="st6" d="M83.2,51.3c-3.8,0-7.1-1.1-8.2-2.6l0,0v1.7c0,2,3.7,3.7,8.2,3.7c4.6,0,8.2-1.7,8.2-3.7v-1.8l0,0
		C90.5,50.1,87.2,51.3,83.2,51.3z"/>
	<path class="st6" d="M83.2,54.8c-3.8,0-7.1-1.1-8.2-2.6l0,0v1.7c0,2,3.7,3.7,8.2,3.7c4.6,0,8.2-1.7,8.2-3.7v-1.8l0,0
		C90.5,53.6,87.2,54.8,83.2,54.8z"/>
	<path class="st6" d="M101.7,46.5c-0.1,0-0.1,0-0.2,0c-4.2,0-7.7-1.2-8.9-2.8l0,0v1.8c0,2.2,3.9,4,8.7,4
		C101.2,48.4,101.3,47.4,101.7,46.5z"/>
	<path class="st6" d="M101.2,50.5c-4.1-0.1-7.5-1.2-8.7-2.8l0,0v1.8c0,2.2,4,4,9,4c0.1,0,0.2,0,0.4,0
		C101.5,52.6,101.2,51.6,101.2,50.5z"/>
	<path class="st6" d="M102.5,54.8c-0.3,0-0.7,0-1,0c-4.2,0-7.7-1.2-8.9-2.8l0,0v1.8c0,2.2,4,4,9,4c1.2,0,2.3-0.1,3.3-0.3
		C103.8,56.8,103.1,55.8,102.5,54.8z"/>
	<path class="st6" d="M102.2,45.3c0.6-1.3,1.5-2.4,2.5-3.3c-1,0.2-2.1,0.3-3.3,0.3c-4.2,0-7.7-1.2-8.9-2.8l0,0v1.8c0,2.2,4,4,9,4
		C101.7,45.3,101.9,45.3,102.2,45.3z"/>
	<path class="st6" d="M111.4,41.4c-4.6,0-8.3,3.7-8.3,8.3s3.7,8.3,8.3,8.3c4.6,0,8.3-3.7,8.3-8.3S116,41.4,111.4,41.4z M113.6,53.4
		h-4.5v-0.7l0.1,0c0.7-0.3,1.1-0.8,1.1-1.6v-0.8h-1.1v-0.8h1.1v-1.2c0-0.6,0.2-1.2,0.5-1.6c0.4-0.4,0.8-0.6,1.4-0.6
		c0.3,0,0.6,0.1,0.9,0.2l0.1,0v0.9L113,47c-0.3-0.1-0.5-0.2-0.8-0.2c-0.3,0-0.6,0.1-0.8,0.4c-0.2,0.2-0.3,0.6-0.3,1.1v1.1h1.5v0.8
		h-1.5v0.7c0,0.8-0.2,1.3-0.6,1.7h3.1V53.4z"/>
	<path class="st6" d="M101.5,25.2c-5,0-9,1.8-9,3.9c0,2.2,4,3.9,9,3.9c5,0,9-1.8,9-3.9C110.5,26.9,106.5,25.2,101.5,25.2z
		 M104.2,30.4h-5.4v-0.3l0.1,0c0.9-0.1,1.3-0.4,1.3-0.7V29h-1.3v-0.4h1.3v-0.5c0-0.3,0.2-0.5,0.6-0.7c0.4-0.2,1-0.3,1.7-0.3
		c0.4,0,0.8,0,1.1,0.1l0.1,0v0.4l-0.3-0.1c-0.3-0.1-0.6-0.1-1-0.1c-0.4,0-0.7,0.1-0.9,0.2c-0.2,0.1-0.4,0.3-0.4,0.5v0.5h1.7V29h-1.7
		v0.3c0,0.3-0.2,0.6-0.7,0.8h3.7V30.4z"/>
	<path class="st6" d="M83.3,39.2c-4.6,0-8.2,1.6-8.2,3.6c0,2,3.7,3.6,8.2,3.6c4.5,0,8.2-1.6,8.2-3.6C91.5,40.8,87.8,39.2,83.3,39.2z
		 M85.7,44h-4.9v-0.3l0.1,0c0.8-0.1,1.2-0.3,1.2-0.7v-0.3h-1.2v-0.3h1.2v-0.5c0-0.3,0.2-0.5,0.6-0.7c0.4-0.2,0.9-0.3,1.5-0.3
		c0.4,0,0.7,0,1,0.1l0.1,0v0.4L85,41.4c-0.3-0.1-0.6-0.1-0.9-0.1c-0.4,0-0.7,0-0.9,0.1c-0.2,0.1-0.3,0.3-0.3,0.5v0.5h1.6v0.3H83V43
		c0,0.3-0.2,0.6-0.7,0.7h3.4V44z"/>
</g>
</svg>
