<?xml version="1.0" encoding="utf-8"?>
<!-- Generator: Adobe Illustrator 22.1.0, SVG Export Plug-In . SVG Version: 6.00 Build 0)  -->
<svg version="1.1" id="图层_1" xmlns="http://www.w3.org/2000/svg" xmlns:xlink="http://www.w3.org/1999/xlink" x="0px" y="0px"
	 viewBox="0 0 194 199" style="enable-background:new 0 0 194 199;" xml:space="preserve">
<style type="text/css">
	.st0{fill:#C4C3C1;}
	.st1{fill:#D5D4D2;}
	.st2{fill:#C9C8C7;}
	.st3{fill:#F8F9F9;}
	.st4{fill:#F0F0F0;}
	.st5{fill:#007C70;}
	.st6{fill:#FFFFFF;}
</style>
<g>
	<g>
		<g>
			<polygon class="st0" points="47.8,124.1 47.7,145.7 0.4,121.2 0.5,99.6 			"/>
		</g>
	</g>
	<g>
		<g>
			<g>
				
					<rect x="85.2" y="86.8" transform="matrix(3.558394e-03 -1 1 3.558394e-03 -39.4652 230.5388)" class="st1" width="21.6" height="96.5"/>
			</g>
		</g>
		<g>
			<polygon class="st2" points="193.4,100.4 193.3,122 144.1,146.1 144.2,124.5 			"/>
		</g>
		<g>
			<g>
				<polygon class="st3" points="193.4,100.4 144.2,124.5 47.8,124.1 0.5,99.6 49.7,75.5 146.1,75.9 				"/>
			</g>
		</g>
		<g>
			<g>
				<polygon class="st4" points="155.3,185 126.8,199 70.8,198.8 43.4,184.6 71.9,170.6 127.9,170.8 				"/>
			</g>
		</g>
		<ellipse class="st4" cx="96.9" cy="100" rx="40.1" ry="4.9"/>
	</g>
</g>
<g>
	<circle class="st5" cx="97.1" cy="41.5" r="41.5"/>
</g>
<path class="st6" d="M91.3,25.1c0,1.2-0.6,2.2-1.5,2.9v34.5c0,1.1-0.9,2-2,2s-2-0.9-2-2V27.9c-0.9-0.6-1.5-1.7-1.5-2.9
	c0-1.9,1.6-3.5,3.5-3.5C89.8,21.6,91.3,23.2,91.3,25.1z M91.4,27.8c0,5.2,0,10.3,0,15.5c10.1,3.7,16.4-3.7,26.4,0
	c0-5.2,0-10.3,0-15.5C107.8,24.1,101.5,31.5,91.4,27.8z"/>
</svg>
