<?xml version="1.0" encoding="utf-8"?>
<!-- Generator: Adobe Illustrator 22.1.0, SVG Export Plug-In . SVG Version: 6.00 Build 0)  -->
<svg version="1.1" id="Capa_1" xmlns="http://www.w3.org/2000/svg" xmlns:xlink="http://www.w3.org/1999/xlink" x="0px" y="0px"
	 viewBox="0 0 20 23" style="enable-background:new 0 0 20 23;" xml:space="preserve">
<style type="text/css">
	.st0{fill:#2EB2A8;}
	.st1{fill:#2EB2A8;stroke:#2EB2A8;stroke-width:0.6;stroke-miterlimit:10;}
</style>
<path class="st0" d="M18.8,13.1c-0.6-1.4-1.4-2.7-2.5-4c-1.3-1.5-2.5-2.6-3.2-3l2.4-4.5c0.1-0.2,0.1-0.5-0.1-0.7
	c-0.6-0.6-1.3-0.9-2-0.9c-0.7,0-1.3,0.3-1.9,0.5c-0.4,0.2-0.8,0.3-1.2,0.3c-0.1,0-0.2,0-0.3,0c-1.1-0.4-2-0.7-2.9-0.7
	c-1.1,0-2,0.4-2.9,1.3C4.2,1.7,4.1,2,4.3,2.2l2.6,4C6.3,6.6,5,7.7,3.8,9.1c-1,1.3-1.9,2.6-2.5,4c-0.8,1.7-1.1,3.6-1.1,5.4
	c0,2.5,2,4.5,4.5,4.5h10.9c2.5,0,4.5-2,4.5-4.5C19.9,16.7,19.5,14.9,18.8,13.1z M5.5,1.9c0.6-0.5,1.1-0.7,1.7-0.7
	c0.7,0,1.4,0.2,2.5,0.6C9.9,1.9,10.1,2,10.3,2c0.6,0,1.1-0.2,1.6-0.4c0.5-0.2,1-0.4,1.4-0.4c0.2,0,0.5,0,0.9,0.3L12,5.7H8L5.5,1.9z
	 M15.4,21.9H4.6c-1.8,0-3.3-1.5-3.3-3.3c0-3.1,1.1-6,3.3-8.6c1.4-1.7,2.8-2.7,3.2-3h4.3c0.4,0.3,1.9,1.4,3.2,3
	c2.2,2.7,3.3,5.6,3.3,8.6C18.7,20.4,17.3,21.9,15.4,21.9z"/>
<g>
	<path class="st1" d="M7.5,19.2v-0.5C8.5,18.3,9,17.6,9,16.6v-1.2H7.6v-0.5H9v-1.7c0-0.7,0.2-1.3,0.6-1.7s0.9-0.7,1.5-0.7
		c0.4,0,0.7,0.1,1,0.2v0.5c-0.3-0.2-0.7-0.3-1.1-0.3c-0.5,0-0.8,0.2-1.1,0.5c-0.3,0.3-0.4,0.8-0.4,1.5v1.6c0,0,0,0,0,0h1.7v0.5H9.5
		v1c0,1.1-0.4,1.8-1.1,2.2c0,0,0,0.1,0,0.1h4.1v0.5H7.5z"/>
</g>
</svg>
