<?xml version="1.0" encoding="utf-8"?>
<!-- Generator: Adobe Illustrator 22.1.0, SVG Export Plug-In . SVG Version: 6.00 Build 0)  -->
<svg version="1.1" id="Capa_1" xmlns="http://www.w3.org/2000/svg" xmlns:xlink="http://www.w3.org/1999/xlink" x="0px" y="0px"
	 viewBox="0 0 512 511.4" style="enable-background:new 0 0 512 511.4;" xml:space="preserve">
<style type="text/css">
	.st0{fill:#2EB2A8;}
</style>
<g>
	<g>
		<path class="st0" d="M497,481.4h-21.8L318.3,206.5c-10.3-18.1-27.3-30.3-47-34.5v-49.5h35.4c3.1,0,6.1,1,8.6,2.8l2,1.5
			c7.7,5.7,16.9,8.7,26.4,8.7h25.7c16,0,29.1-13.1,29.1-29.1V65.6c0-16-13.1-29.1-29.1-29.1H343c-3.3,0-6.5-1.1-9.1-3.2
			c-7.9-6.3-17.8-9.8-27.9-9.8h-34.7V15c0-8.3-6.7-15-15-15s-15,6.7-15,15v157c-19.8,4.1-36.8,16.4-47.1,34.5L37.3,481.4H15
			c-8.3,0-15,6.7-15,15c0,8.3,6.7,15,15,15h482c8.3,0,15-6.7,15-15C512,488.1,505.3,481.4,497,481.4z M271.3,53.5H306
			c3.3,0,6.5,1.1,9.1,3.2c7.9,6.3,17.8,9.8,27.9,9.8h25.6v39.1h-24.8c-3.1,0-6.1-1-8.6-2.8l-2-1.5c-7.7-5.7-16.9-8.7-26.4-8.7h-35.4
			L271.3,53.5L271.3,53.5z M220.2,221.4c7.5-13.1,20.9-20.9,36-20.9c15.1,0,28.5,7.8,36,20.9l32.6,57l-11.1,9.8
			c-8.6,7.6-21.4,7.3-29.7-0.6c-14-13.4-32.3-20.7-51.7-20.7h-38L220.2,221.4z M71.8,481.4l105.3-184.5h55.2
			c11.6,0,22.6,4.4,30.9,12.4c9.4,9,21.8,14.1,34.8,14.4c0.4,0,0.7,0,1.1,0c12.6,0,24.8-4.6,34.3-12.9l6.5-5.7l100.7,176.3
			L71.8,481.4L71.8,481.4z"/>
	</g>
</g>
</svg>
