<?xml version="1.0" encoding="utf-8"?>
<!-- Generator: Adobe Illustrator 22.1.0, SVG Export Plug-In . SVG Version: 6.00 Build 0)  -->
<svg version="1.1" id="图层_1" xmlns="http://www.w3.org/2000/svg" xmlns:xlink="http://www.w3.org/1999/xlink" x="0px" y="0px"
	 viewBox="0 0 511.2 511.1" style="enable-background:new 0 0 511.2 511.1;" xml:space="preserve">
<style type="text/css">
	.st0{fill:#2EB2A8;}
</style>
<path class="st0" d="M0,511.1h287.6V409.3H0V511.1z M30,439.3h227.7v41.9H30V439.3z"/>
<path class="st0" d="M327.8,229.3c4.8-6.6,9.1-13.2,13-19.8l11.1,11.1l65.3-65.2L261.7,0l-65.3,65.3l9.5,9.5
	c-19.3,11.4-38.9,26.8-56.7,44.6c-17.8,17.8-33.2,37.4-44.6,56.7l-9.5-9.5L30,231.8l155.4,155.4l65.2-65.3l-11.1-11.1
	c6.5-3.8,13.1-8.1,19.5-12.8l183.4,183.4l68.7-68.7L327.8,229.3z M72.3,231.8l22.9-22.9l68.4,68.4l44.7,44.7l-22.9,22.9L72.3,231.8z
	 M374.8,155.4l-22.9,22.9L238.9,65.3l22.9-22.9L374.8,155.4z M170.5,140.5c18.2-18.2,38.3-33.5,57.5-43.8l90.8,90.8
	c-10.3,19.2-25.5,39.3-43.8,57.5c-18.2,18.2-38.3,33.5-57.5,43.8L126.7,198C137,178.8,152.3,158.7,170.5,140.5z M296.2,266.3
	c4.4-4.4,8.6-8.9,12.7-13.4l111,111l-26.3,26.3l-111-111C287.2,275,291.8,270.7,296.2,266.3z M414.7,411.3l26.3-26.3l27.7,27.7
	L442.5,439L414.7,411.3z"/>
</svg>
