<?xml version="1.0" encoding="utf-8"?>
<!-- Generator: Adobe Illustrator 22.1.0, SVG Export Plug-In . SVG Version: 6.00 Build 0)  -->
<svg version="1.1" id="图层_1" xmlns="http://www.w3.org/2000/svg" xmlns:xlink="http://www.w3.org/1999/xlink" x="0px" y="0px"
	 viewBox="0 0 512 512" style="enable-background:new 0 0 512 512;" xml:space="preserve">
<style type="text/css">
	.st0{fill:#2EB2A8;}
</style>
<path class="st0" d="M69.8,482H46c-8.3,0-15,6.7-15,15s6.7,15,15,15h139.3c6.6,0,12.5-4.4,14.4-10.8C208.4,471.8,231,452,256,452
	s47.6,19.8,56.3,49.3c1.9,6.4,7.7,10.8,14.4,10.8H466c8.3,0,15-6.7,15-15s-6.7-15-15-15h-23.8l-13.1-13.1
	c-38.4-38.4-70.1-84.1-92.7-136.9h9.6c8.3,0,15-6.7,15-15v-60c0-8.3-6.7-15-15-15h-37.2c-3.6-19-6.1-38.9-7.3-61H316
	c8.3,0,15-6.7,15-15s-6.7-15-15-15h-15V75c0-19.6-12.5-36.2-30-42.4V15c0-8.3-6.7-15-15-15s-15,6.7-15,15v17.6
	c-17.5,6.2-30,22.9-30,42.4v76h-15c-8.3,0-15,6.7-15,15s6.7,15,15,15h14.4c-1.1,22.3-3.6,42.2-7.3,61H166c-8.3,0-15,6.7-15,15v60
	c0,8.3,6.7,15,15,15h9.6C135.6,425.6,77.1,473.3,69.8,482z M351.5,422H271v-30h61.8C338.7,402.2,344.9,412.2,351.5,422z M241,422
	h-80.5c6.6-9.8,12.9-19.8,18.7-30H241V422z M174.7,482H112c9.2-9.7,18-19.7,26.3-30H193C185.5,460.5,179.3,470.7,174.7,482z
	 M337.3,482c-4.6-11.3-10.9-21.5-18.3-30h54.7c8.3,10.3,17.1,20.3,26.3,30H337.3z M317.1,362H271v-30h33
	C308,342.2,312.4,352.2,317.1,362z M256,60c8.3,0,15,6.7,15,15v15h-30V75C241,66.7,247.7,60,256,60z M241,120h30v31h-30V120z
	 M240.4,181h31.1c1,20.8,3.2,41.2,6.8,61h-44.7C237.2,222.2,239.5,201.8,240.4,181z M181,272h150v30H181V272z M241,332v30h-46.1
	c4.7-9.8,9.1-19.8,13.1-30H241z"/>
</svg>
