<?xml version="1.0" encoding="utf-8"?>
<!-- Generator: Adobe Illustrator 22.1.0, SVG Export Plug-In . SVG Version: 6.00 Build 0)  -->
<svg version="1.1" id="图层_1" xmlns="http://www.w3.org/2000/svg" xmlns:xlink="http://www.w3.org/1999/xlink" x="0px" y="0px"
	 viewBox="0 0 124 143" style="enable-background:new 0 0 124 143;" xml:space="preserve">
<style type="text/css">
	.st0{fill:url(#SVGID_1_);}
	.st1{fill:#CCCCCC;}
	.st2{fill:#FFFFFF;}
	.st3{fill:none;}
</style>
<linearGradient id="SVGID_1_" gradientUnits="userSpaceOnUse" x1="62" y1="0.3135" x2="62" y2="124.3135">
	<stop  offset="0" style="stop-color:#04B2A1"/>
	<stop  offset="1" style="stop-color:#1B8079"/>
</linearGradient>
<circle class="st0" cx="62" cy="62.3" r="62"/>
<ellipse class="st1" cx="62" cy="140" rx="34.9" ry="2.7"/>
<g>
	<rect x="32.3" y="83.3" class="st2" width="59.4" height="2.9"/>
</g>
<g>
	<rect x="32.3" y="89" class="st2" width="59.4" height="2.9"/>
</g>
<g>
	<ellipse transform="matrix(0.8806 -0.4739 0.4739 0.8806 -26.8951 30.1754)" class="st2" cx="46.4" cy="68.4" rx="3.9" ry="3.2"/>
</g>
<g>
	<ellipse transform="matrix(0.5 -0.866 0.866 0.5 -20.3833 101.5907)" class="st2" cx="77.8" cy="68.4" rx="3.2" ry="3.9"/>
</g>
<g>
	<path class="st3" d="M84.6,74c0.8-0.6,1.6-1,2.5-1.2l-2.9-8.7c-0.8-0.1-1.7-0.4-2.6-0.9c-1.2-0.7-2.1-1.6-2.6-2.5H45.3
		c-0.4,0.6-0.9,1.2-1.5,1.7c-1.2,1-2.5,1.5-3.6,1.5l-3,8.8c1.1,0.2,2.4,1,3.4,2.1c0.8,0.9,1.4,1.9,1.6,2.9l39.9-0.2
		C82.4,76.2,83.3,74.9,84.6,74z"/>
</g>
<g>
	<g>
		<path class="st2" d="M81.9,63.1c0.9,0.5,1.7,0.8,2.6,0.9l-1.1-3.4h-4C79.9,61.6,80.8,62.5,81.9,63.1z"/>
	</g>
	<g>
		<path class="st2" d="M45.7,60.6h-4.1l-1.1,3.2c1.1-0.1,2.5-0.6,3.6-1.5C44.7,61.8,45.3,61.2,45.7,60.6z"/>
	</g>
	<g>
		<path class="st2" d="M87.4,72.8C86.6,73,85.7,73.4,85,74c-1.3,0.9-2.2,2.2-2.5,3.4l6.5,0L87.4,72.8z"/>
	</g>
	<g>
		<path class="st2" d="M37.5,72.6l-1.7,5l6.7,0c-0.3-0.9-0.8-2-1.6-2.9C39.8,73.6,38.6,72.8,37.5,72.6z"/>
	</g>
</g>
<g>
	<path class="st2" d="M90.6,76.5l-1.1-3.7l-2.7-9.3l-1.4-4.9h-7H46.1h-7.3l-1.2,4l-3.2,10.8L34,74.9l-1.7,5.6l5.3,0l4.1,0l41.4-0.3
		l3.4,0l5.2,0L90.6,76.5z M82.4,77.3l-39.9,0.2l-6.7,0l1.7-5l3-8.8l1.1-3.2h4.1h33.7h4l1.1,3.4l2.9,8.7l1.5,4.5L82.4,77.3z"/>
</g>
<g>
	<g>
		<polygon class="st2" points="27,52.3 37.7,52.3 32.3,58.1 		"/>
		<g>
			<g>
				<rect x="29.8" y="42.3" class="st2" width="5.1" height="0.7"/>
			</g>
			<rect x="29.8" y="45.7" class="st2" width="5.1" height="2.1"/>
			<rect x="29.8" y="43.8" class="st2" width="5.1" height="1"/>
			<rect x="29.8" y="48.4" class="st2" width="5.1" height="4.2"/>
		</g>
	</g>
	<g>
		<polygon class="st2" points="42.3,43.2 53,43.2 47.7,49 		"/>
		<g>
			<g>
				<rect x="45.1" y="33.2" class="st2" width="5.1" height="0.7"/>
			</g>
			<rect x="45.1" y="36.6" class="st2" width="5.1" height="2.1"/>
			<rect x="45.1" y="34.7" class="st2" width="5.1" height="1"/>
			<rect x="45.1" y="39.3" class="st2" width="5.1" height="4.2"/>
		</g>
	</g>
	<g>
		<polygon class="st2" points="56.4,36.5 67.1,36.5 61.7,42.3 		"/>
		<g>
			<g>
				<rect x="59.2" y="26.4" class="st2" width="5.1" height="0.7"/>
			</g>
			<rect x="59.2" y="29.8" class="st2" width="5.1" height="2.1"/>
			<rect x="59.2" y="28" class="st2" width="5.1" height="1"/>
			<rect x="59.2" y="32.6" class="st2" width="5.1" height="4.2"/>
		</g>
	</g>
	<g>
		<polygon class="st2" points="72,43.2 82.7,43.2 77.3,49 		"/>
		<g>
			<g>
				<rect x="74.8" y="33.2" class="st2" width="5.1" height="0.7"/>
			</g>
			<rect x="74.8" y="36.6" class="st2" width="5.1" height="2.1"/>
			<rect x="74.8" y="34.7" class="st2" width="5.1" height="1"/>
			<rect x="74.8" y="39.3" class="st2" width="5.1" height="4.2"/>
		</g>
	</g>
	<g>
		<polygon class="st2" points="86.3,52.7 97,52.7 91.7,58.5 		"/>
		<g>
			<g>
				<rect x="89.1" y="42.6" class="st2" width="5.1" height="0.7"/>
			</g>
			<rect x="89.1" y="46" class="st2" width="5.1" height="2.1"/>
			<rect x="89.1" y="44.2" class="st2" width="5.1" height="1"/>
			<rect x="89.1" y="48.8" class="st2" width="5.1" height="4.2"/>
		</g>
	</g>
</g>
<path class="st2" d="M62.1,62.2c-4.5,0-8.1,2.9-8.1,6.5s3.6,6.5,8.1,6.5c4.5,0,8.1-2.9,8.1-6.5S66.6,62.2,62.1,62.2z M66.1,71.7h-8
	V71l0.2,0c1.3-0.3,1.9-0.7,1.9-1.4v-0.7h-1.9v-0.7h1.9v-1.1c0-0.6,0.3-1,0.9-1.4c0.6-0.4,1.5-0.5,2.5-0.5c0.6,0,1.1,0.1,1.7,0.2
	l0.2,0v0.8L65,66c-0.5-0.1-0.9-0.2-1.4-0.2c-0.6,0-1.1,0.1-1.4,0.3c-0.3,0.2-0.5,0.5-0.5,1v1h2.6v0.7h-2.6v0.6
	c0,0.7-0.4,1.2-1.1,1.5h5.5V71.7z"/>
</svg>
