<?xml version="1.0" encoding="utf-8"?>
<!-- Generator: Adobe Illustrator 22.1.0, SVG Export Plug-In . SVG Version: 6.00 Build 0)  -->
<svg version="1.1" id="图层_1" xmlns="http://www.w3.org/2000/svg" xmlns:xlink="http://www.w3.org/1999/xlink" x="0px" y="0px"
	 viewBox="0 0 124 143" style="enable-background:new 0 0 124 143;" xml:space="preserve">
<style type="text/css">
	.st0{fill:url(#SVGID_1_);}
	.st1{fill:#CCCCCC;}
	.st2{fill:#FFFFFF;}
</style>
<linearGradient id="SVGID_1_" gradientUnits="userSpaceOnUse" x1="62" y1="0.6269" x2="62" y2="124.6269">
	<stop  offset="0" style="stop-color:#04B2A1"/>
	<stop  offset="1" style="stop-color:#1B8079"/>
</linearGradient>
<circle class="st0" cx="62" cy="62.6" r="62"/>
<ellipse class="st1" cx="62" cy="140.3" rx="34.9" ry="2.7"/>
<g>
	<g>
		<polygon class="st2" points="52.6,48.7 79.4,48.7 66,62.2 		"/>
		<g>
			<g>
				<rect x="59.6" y="25.3" class="st2" width="12.7" height="1.7"/>
			</g>
			<rect x="59.6" y="33.2" class="st2" width="12.7" height="4.8"/>
			<rect x="59.6" y="29" class="st2" width="12.7" height="2.4"/>
			<rect x="59.6" y="39.7" class="st2" width="12.7" height="9.8"/>
		</g>
	</g>
	<g>
		<g>
			<g>
				<path class="st2" d="M59.6,96.1c0,2.1-1.7,3.8-3.8,3.8c-2.1,0-3.8-1.7-3.8-3.8c0-2.1,1.7-3.8,3.8-3.8
					C57.9,92.4,59.6,94.1,59.6,96.1z"/>
				<path class="st2" d="M78.9,96.1c0,2.1-1.7,3.8-3.8,3.8c-2.1,0-3.8-1.7-3.8-3.8c0-2.1,1.7-3.8,3.8-3.8
					C77.2,92.4,78.9,94.1,78.9,96.1z"/>
			</g>
			<path class="st2" d="M81.1,93.2h-34V65.7h-6.3c-0.9,0-1.7-0.8-1.7-1.7c0-0.9,0.8-1.7,1.7-1.7h9.7v27.5h30.6
				c0.9,0,1.7,0.8,1.7,1.7C82.8,92.4,82,93.2,81.1,93.2z"/>
			<path class="st2" d="M83,87.1H49.7c-0.9,0-1.7-0.8-1.7-1.7c0-0.9,0.8-1.7,1.7-1.7h30.2l1.3-13.2H50c-0.9,0-1.7-0.8-1.7-1.7
				c0-0.9,0.8-1.7,1.7-1.7h34.9L83,87.1z"/>
		</g>
		<path class="st2" d="M55.8,87c-0.9,0-1.7-0.8-1.7-1.7l-0.2-15.6c0-0.9,0.7-1.7,1.7-1.7c0.9,0,1.7,0.7,1.7,1.7l0.2,15.6
			C57.5,86.2,56.7,87,55.8,87C55.8,87,55.8,87,55.8,87z"/>
		<path class="st2" d="M62.3,87C62.3,87,62.3,87,62.3,87c-1,0-1.7-0.8-1.7-1.7l0.2-15.6c0-0.9,0.8-1.7,1.7-1.7c0,0,0,0,0,0
			c0.9,0,1.7,0.8,1.7,1.7L64,85.3C64,86.3,63.2,87,62.3,87z"/>
		<path class="st2" d="M68.4,87C68.4,87,68.4,87,68.4,87c-1,0-1.7-0.8-1.7-1.7l0.2-15.6c0-0.9,0.8-1.7,1.7-1.7
			c0.9,0,1.7,0.8,1.7,1.7l-0.2,15.6C70.1,86.3,69.4,87,68.4,87z"/>
		<path class="st2" d="M74.6,87C74.6,87,74.6,87,74.6,87c-1-0.1-1.8-0.9-1.7-1.8l0.9-15.6c0.1-0.9,0.9-1.7,1.8-1.6
			c0.9,0.1,1.7,0.9,1.6,1.8l-0.9,15.6C76.3,86.3,75.5,87,74.6,87z"/>
	</g>
</g>
</svg>
