<?xml version="1.0" encoding="utf-8"?>
<!-- Generator: Adobe Illustrator 22.1.0, SVG Export Plug-In . SVG Version: 6.00 Build 0)  -->
<svg version="1.1" id="图层_1" xmlns="http://www.w3.org/2000/svg" xmlns:xlink="http://www.w3.org/1999/xlink" x="0px" y="0px"
	 viewBox="0 0 124 143" style="enable-background:new 0 0 124 143;" xml:space="preserve">
<style type="text/css">
	.st0{fill:url(#SVGID_1_);}
	.st1{fill:#CCCCCC;}
	.st2{fill:#FFFFFF;}
</style>
<linearGradient id="SVGID_1_" gradientUnits="userSpaceOnUse" x1="62" y1="0.3561" x2="62" y2="124.3561">
	<stop  offset="0" style="stop-color:#04B2A1"/>
	<stop  offset="1" style="stop-color:#1B8079"/>
</linearGradient>
<circle class="st0" cx="62" cy="62.4" r="62"/>
<ellipse class="st1" cx="62" cy="140" rx="34.9" ry="2.7"/>
<path class="st2" d="M68.7,65.3c-5.5,0-10.2-1.6-11.8-3.7l0,0v2.4c0,2.9,5.3,5.3,11.9,5.3c6.6,0,11.9-2.4,11.9-5.3v-2.6l-0.1,0
	C79.2,63.6,74.4,65.3,68.7,65.3z"/>
<path class="st2" d="M68.7,70.8c-5.5,0-10.2-1.6-11.8-3.7l0,0v2.4c0,2.9,5.3,5.3,11.9,5.3c6.6,0,11.9-2.4,11.9-5.3v-2.6l-0.1,0
	C79.2,69.1,74.4,70.8,68.7,70.8z"/>
<path class="st2" d="M44.6,82.8c-5,0-9.3-1.4-10.8-3.4l0,0v2.2c0,2.7,4.9,4.9,10.9,4.9s10.9-2.2,10.9-4.9v-2.4l-0.1,0
	C54.2,81.3,49.8,82.8,44.6,82.8z"/>
<path class="st2" d="M44.6,87.8c-5,0-9.3-1.4-10.8-3.4l0,0v2.2c0,2.7,4.9,4.9,10.9,4.9s10.9-2.2,10.9-4.9v-2.4l-0.1,0
	C54.2,86.3,49.8,87.8,44.6,87.8z"/>
<path class="st2" d="M44.6,92.5c-5,0-9.3-1.4-10.8-3.4l0,0v2.2c0,2.7,4.9,4.9,10.9,4.9s10.9-2.2,10.9-4.9v-2.4l-0.1,0
	C54.2,91,49.8,92.5,44.6,92.5z"/>
<path class="st2" d="M69,81.5c-0.1,0-0.2,0-0.3,0c-5.5,0-10.2-1.6-11.8-3.7l0,0v2.4c0,2.9,5.1,5.2,11.4,5.3
	C68.3,84.1,68.5,82.8,69,81.5z"/>
<path class="st2" d="M68.3,86.8c-5.4-0.1-9.9-1.6-11.4-3.7l0,0v2.4c0,2.9,5.3,5.3,11.9,5.3c0.2,0,0.3,0,0.5,0
	C68.7,89.6,68.4,88.2,68.3,86.8z"/>
<path class="st2" d="M70,92.5c-0.4,0-0.9,0-1.3,0c-5.5,0-10.2-1.6-11.8-3.7l0,0v2.4c0,2.9,5.3,5.3,11.9,5.3c1.5,0,3-0.1,4.3-0.4
	C71.8,95.1,70.8,93.9,70,92.5z"/>
<path class="st2" d="M69.6,79.9c0.8-1.7,1.9-3.1,3.3-4.3c-1.3,0.2-2.8,0.3-4.3,0.3c-5.5,0-10.2-1.6-11.8-3.7l0,0v2.4
	c0,2.9,5.3,5.3,11.9,5.3C69,79.9,69.3,79.9,69.6,79.9z"/>
<g>
	<polygon class="st2" points="58.1,41.4 31.3,41.4 44.7,27.9 	"/>
	<g>
		<g>
			<rect x="38.5" y="63.1" class="st2" width="12.7" height="1.7"/>
		</g>
		<rect x="38.5" y="52.1" class="st2" width="12.7" height="4.8"/>
		<rect x="38.5" y="58.7" class="st2" width="12.7" height="2.4"/>
		<rect x="38.5" y="40.6" class="st2" width="12.7" height="9.8"/>
	</g>
</g>
<path class="st2" d="M81.8,74.8c-6.1,0-11,4.9-11,11s4.9,11,11,11c6.1,0,11-4.9,11-11S87.8,74.8,81.8,74.8z M84.8,90.7h-6v-1
	l0.2-0.1c1-0.4,1.4-1.1,1.4-2.1v-1.1h-1.4v-1.1h1.4v-1.6c0-0.9,0.2-1.5,0.7-2.1c0.5-0.5,1.1-0.8,1.9-0.8c0.4,0,0.9,0.1,1.2,0.2
	l0.2,0.1v1.2l-0.4-0.2c-0.3-0.2-0.7-0.3-1.1-0.3c-0.5,0-0.8,0.2-1,0.5c-0.3,0.3-0.4,0.8-0.4,1.5v1.5h1.9v1.1h-1.9v0.9
	c0,1-0.3,1.8-0.8,2.3h4.2V90.7z"/>
<path class="st2" d="M68.7,53.4c-6.6,0-11.9,2.3-11.9,5.2c0,2.9,5.3,5.2,11.9,5.2c6.6,0,11.9-2.3,11.9-5.2
	C80.7,55.7,75.3,53.4,68.7,53.4z M72.3,60.4h-7.1v-0.4l0.2,0c1.1-0.2,1.7-0.5,1.7-1v-0.5h-1.7v-0.5H67v-0.7c0-0.4,0.3-0.7,0.8-1
	c0.6-0.2,1.3-0.4,2.2-0.4c0.5,0,1,0,1.5,0.1l0.2,0v0.5l-0.4-0.1c-0.4-0.1-0.8-0.1-1.3-0.1c-0.5,0-0.9,0.1-1.2,0.2
	c-0.3,0.1-0.5,0.4-0.5,0.7v0.7h2.3v0.5h-2.3v0.4c0,0.5-0.3,0.8-1,1h4.9V60.4z"/>
<path class="st2" d="M44.7,72c-6,0-10.9,2.1-10.9,4.7c0,2.6,4.9,4.7,10.9,4.7c6,0,10.9-2.1,10.9-4.7C55.5,74.1,50.7,72,44.7,72z
	 M47.9,78.3h-6.5v-0.4l0.2,0c1-0.2,1.5-0.4,1.5-0.9v-0.5h-1.6v-0.4h1.6v-0.7c0-0.4,0.3-0.6,0.7-0.9c0.5-0.2,1.2-0.3,2-0.3
	c0.5,0,0.9,0,1.4,0.1l0.2,0v0.5L47,74.8c-0.4-0.1-0.8-0.1-1.2-0.1c-0.5,0-0.9,0.1-1.1,0.2c-0.3,0.1-0.4,0.3-0.4,0.6v0.6h2.1v0.4
	h-2.1v0.4c0,0.4-0.3,0.7-0.9,1h4.5V78.3z"/>
</svg>
