<?xml version="1.0" encoding="utf-8"?>
<!-- Generator: Adobe Illustrator 22.1.0, SVG Export Plug-In . SVG Version: 6.00 Build 0)  -->
<svg version="1.1" id="图层_1" xmlns="http://www.w3.org/2000/svg" xmlns:xlink="http://www.w3.org/1999/xlink" x="0px" y="0px"
	 viewBox="0 0 206 206" style="enable-background:new 0 0 206 206;" xml:space="preserve">
<style type="text/css">
	.st0{fill:#00A99E;}
	.st1{fill:none;stroke:#FFFFFF;stroke-miterlimit:10;}
	.st2{fill:#FFFFFF;stroke:#FFFFFF;stroke-miterlimit:10;}
	.st3{fill:#FFFFFF;stroke:#FFFFFF;stroke-width:0.5;stroke-miterlimit:10;}
	.st4{fill:#FFFFFF;}
</style>
<circle class="st0" cx="103" cy="103" r="103"/>
<circle class="st1" cx="102.8" cy="103.2" r="91.3"/>
<g>
	<path class="st2" d="M37.6,117.9v4.4H36v-4.4c-2.6,0-4.9-0.6-6.8-1.7v-2.1c2.1,1.4,4.4,2,6.8,2v-12.4c-2.7-1.6-4.5-2.9-5.4-4
		c-0.9-1.1-1.3-2.5-1.3-4c0-1.9,0.6-3.5,1.8-4.9c1.2-1.4,2.9-2.3,5-2.6v-3.8h1.6v3.7c2.1,0,3.9,0.3,5.4,0.9v2.1
		c-1.4-0.8-3.2-1.3-5.4-1.3v12.6c2.6,1.4,4.3,2.7,5.3,3.9c1,1.2,1.5,2.6,1.5,4.2c0,1.9-0.6,3.6-1.8,4.9
		C41.4,116.8,39.7,117.6,37.6,117.9z M36,90c-1.5,0.2-2.6,0.9-3.5,1.8c-0.9,1-1.3,2.2-1.3,3.6c0,1.2,0.3,2.3,1,3.2
		c0.6,0.9,1.9,1.9,3.8,3V90z M37.6,104.7v11.4c1.6-0.3,2.8-0.9,3.6-1.8c0.8-0.9,1.2-2.1,1.2-3.4c0-1.3-0.3-2.4-1-3.2
		C40.7,106.8,39.4,105.8,37.6,104.7z"/>
</g>
<g>
	<g>
		<path class="st3" d="M64.6,105.2c-0.9,0-1.7-0.8-1.7-1.7c0-22,17.9-39.9,39.9-39.9c13.9,0,26.7,7.1,34,19c0.5,0.8,0.2,1.9-0.6,2.4
			c-0.8,0.5-1.9,0.2-2.4-0.6C127.2,73.5,115.6,67,102.8,67c-20.1,0-36.5,16.4-36.5,36.5C66.3,104.5,65.6,105.2,64.6,105.2z"/>
	</g>
	<g>
		<path class="st3" d="M102.8,143.4c-13.8,0-26.4-7-33.8-18.6c-0.5-0.8-0.3-1.9,0.5-2.4c0.8-0.5,1.9-0.3,2.4,0.5
			c6.7,10.7,18.3,17,30.9,17c20.1,0,36.5-16.4,36.5-36.5c0-0.9,0.8-1.7,1.7-1.7s1.7,0.8,1.7,1.7
			C142.8,125.5,124.8,143.4,102.8,143.4z"/>
	</g>
	<g>
		<path class="st4" d="M135.1,59.8h0.6c1.1,0,2,0.9,2,2v21.4c0,1.1-0.9,2-2,2h-0.6c-1.1,0-2-0.9-2-2V61.8
			C133.1,60.7,134,59.8,135.1,59.8z"/>
	</g>
	<g>
		<path class="st4" d="M137.1,82.1l0.2,0.5c0.4,1-0.1,2.2-1.2,2.6l-18.3,6.9c-1,0.4-2.2-0.1-2.6-1.2l-0.2-0.5
			c-0.4-1,0.1-2.2,1.2-2.6l18.3-6.9C135.6,80.6,136.7,81.1,137.1,82.1z"/>
	</g>
	<g>
		<path class="st4" d="M70.2,146.6h-0.6c-1.1,0-2-0.9-2-2v-21.4c0-1.1,0.9-2,2-2h0.6c1.1,0,2,0.9,2,2v21.4
			C72.2,145.7,71.3,146.6,70.2,146.6z"/>
	</g>
	<g>
		<path class="st4" d="M68.4,124.4l-0.2-0.5c-0.4-1,0.1-2.2,1.2-2.6l18.3-6.9c1-0.4,2.2,0.1,2.6,1.2l0.2,0.5c0.4,1-0.1,2.2-1.2,2.6
			L71,125.6C69.9,125.9,68.8,125.4,68.4,124.4z"/>
	</g>
</g>
<g>
	<path class="st2" d="M158.4,120.2v-2c3.9-1.6,5.8-4.5,5.8-8.6v-5h-5.4v-2.1h5.4v-6.8c0-2.9,0.8-5.3,2.3-7.1
		c1.6-1.8,3.6-2.7,6.2-2.7c1.5,0,2.9,0.3,4.3,0.8v2.2c-1.4-0.7-2.9-1.1-4.4-1.1c-2,0-3.5,0.7-4.6,2.1c-1.1,1.4-1.7,3.4-1.7,6v6.5
		h7.2v2.1h-7.2v4.2c0,4.6-1.7,7.8-5,9.4h17.4v2H158.4z"/>
</g>
</svg>
