<?xml version="1.0" encoding="utf-8"?>
<!-- Generator: Adobe Illustrator 22.1.0, SVG Export Plug-In . SVG Version: 6.00 Build 0)  -->
<svg version="1.1" id="图层_1" xmlns="http://www.w3.org/2000/svg" xmlns:xlink="http://www.w3.org/1999/xlink" x="0px" y="0px"
	 viewBox="0 0 206 206" style="enable-background:new 0 0 206 206;" xml:space="preserve">
<style type="text/css">
	.st0{fill:#00A99E;}
	.st1{fill:none;stroke:#FFFFFF;stroke-miterlimit:10;}
	.st2{fill:#FFFFFF;stroke:#FFFFFF;stroke-miterlimit:10;}
	.st3{fill:#00A99E;stroke:#FFFFFF;stroke-width:3;stroke-miterlimit:10;}
	.st4{fill:#FFFFFF;}
</style>
<circle class="st0" cx="103" cy="103" r="103"/>
<circle class="st1" cx="103" cy="103" r="91.3"/>
<g>
	<g>
		<path class="st2" d="M152.3,125.7h-25.2c-7,0-12.6-5.7-12.6-12.6s5.7-12.6,12.6-12.6h25.2V125.7z M127.1,102.2
			c-5.9,0-10.8,4.8-10.8,10.8s4.8,10.8,10.8,10.8h23.3v-21.5H127.1z"/>
	</g>
	<g>
		<path class="st2" d="M129.5,119.6c-3.6,0-6.6-2.9-6.6-6.6s2.9-6.6,6.6-6.6c3.6,0,6.6,2.9,6.6,6.6S133.1,119.6,129.5,119.6z
			 M129.5,108.3c-2.6,0-4.7,2.1-4.7,4.7s2.1,4.7,4.7,4.7s4.7-2.1,4.7-4.7S132.1,108.3,129.5,108.3z"/>
	</g>
	<g>
		<path class="st2" d="M135.3,147.4H65.8c-3.2,0-5.8-2.6-5.8-5.8V85.7c0-3.2,2.6-5.8,5.8-5.8h69.5c3.2,0,5.8,2.6,5.8,5.8v55.9
			C141,144.9,138.5,147.4,135.3,147.4z M65.8,81.9c-2.1,0-3.9,1.7-3.9,3.9v55.9c0,2.1,1.7,3.9,3.9,3.9h69.5c2.1,0,3.9-1.7,3.9-3.9
			V85.7c0-2.1-1.7-3.9-3.9-3.9H65.8z"/>
	</g>
	<g>
		<path class="st2" d="M131.1,90.4H70.6c-0.4,0-0.7-0.3-0.7-0.7V89c0-0.4,0.3-0.7,0.7-0.7h60.5c0.4,0,0.7,0.3,0.7,0.7v0.7
			C131.9,90.1,131.5,90.4,131.1,90.4z"/>
	</g>
	<g>
		<path class="st2" d="M131.1,138.9H70.6c-0.4,0-0.7-0.3-0.7-0.7v-0.7c0-0.4,0.3-0.7,0.7-0.7h60.5c0.4,0,0.7,0.3,0.7,0.7v0.7
			C131.9,138.6,131.5,138.9,131.1,138.9z"/>
	</g>
	<g>
		<polygon class="st2" points="131.5,81.6 105.8,61.3 101.4,67 99.9,65.9 105.5,58.7 132.7,80.1 		"/>
	</g>
	<g>
		<polygon class="st2" points="117.6,81.6 114.9,79.3 86.7,57.4 82.3,63.1 69.8,81.4 68.3,80.3 80.8,62 86.4,54.8 116.1,77.9 
			118.9,80.2 		"/>
	</g>
	<g>
		<path class="st2" d="M106.6,81.9l-11.9-9.4c-3,3.4-7.8,3-10.6,2l-4.7,7.1l-1.6-1l5.6-8.4l0.7,0.3c0.3,0.1,6.4,2.7,9.6-1.9l0.6-0.8
			l13.4,10.6L106.6,81.9z"/>
	</g>
	<g>
		<circle class="st3" cx="72.7" cy="132.2" r="19"/>
		<path class="st4" d="M79.1,130.6h-1.4v-3.3c0-2.8-2.2-5-5-5c-2.7,0-5,2.2-5,5v3.3h-1.4c-0.7,0-1.2,0.6-1.2,1.2v9
			c0,0.7,0.6,1.2,1.2,1.2h12.8c0.7,0,1.2-0.6,1.2-1.2v-9C80.3,131.1,79.8,130.6,79.1,130.6L79.1,130.6z M73.4,136.6v2
			c0,0.1-0.1,0.2-0.2,0.2h-1.1c-0.1,0-0.2-0.1-0.2-0.2v-2c-0.5-0.3-0.8-0.8-0.8-1.4c0-0.8,0.7-1.5,1.5-1.5c0.8,0,1.5,0.7,1.5,1.5
			C74.3,135.8,73.9,136.3,73.4,136.6L73.4,136.6z M75.8,130.6h-6.1v-3.2c0-1.7,1.4-3.1,3.1-3.1c1.7,0,3.1,1.4,3.1,3.1L75.8,130.6
			L75.8,130.6z"/>
	</g>
</g>
</svg>
