<?xml version="1.0" encoding="utf-8"?>
<!-- Generator: Adobe Illustrator 22.1.0, SVG Export Plug-In . SVG Version: 6.00 Build 0)  -->
<svg version="1.1" id="运作原理" xmlns="http://www.w3.org/2000/svg" xmlns:xlink="http://www.w3.org/1999/xlink" x="0px"
	 y="0px" viewBox="0 0 817 407" style="enable-background:new 0 0 817 407;" xml:space="preserve">
<style type="text/css">
	.st0{fill:none;stroke:#90A7AB;}
	.st1{fill:#70DBCB;}
	.st2{enable-background:new    ;}
	.st3{fill:#456E68;}
	.st4{fill:#9FE7DD;stroke:#34B9A1;stroke-width:2;}
	.st5{fill:#17161F;}
	.st6{fill:none;stroke:#456E68;stroke-width:1.5;stroke-miterlimit:10;}
</style>
<path id="形状_1_拷贝_3" class="st0" d="M63.1,200.2l0.1,71.6l4.6-2.1"/>
<path id="形状_1_拷贝_5" class="st0" d="M734.8,153.2l-0.1-71.1l-4.6,2"/>
<path id="形状_1" class="st0" d="M127.2,93.1h98.3l46.2,46.1l-0.3-6"/>
<path id="形状_1_拷贝_2" class="st0" d="M271.4,172.3h-98l-46.1-46.5l0.3,6.1"/>
<path id="形状_1_拷贝" class="st0" d="M653,207.3h-98.1l-46.1,46.1l0.3-6"/>
<path id="形状_1_拷贝_4" class="st0" d="M509.1,286.5H607l46-46.5l-0.3,6.1"/>
<g id="椭圆_7">
	<path class="st1" d="M225.4,219.8c-10.8,0-19.5-8.7-19.5-19.5s8.7-19.5,19.5-19.5s19.5,8.7,19.5,19.5S236.2,219.8,225.4,219.8z
		 M225.4,181.8c-10.2,0-18.5,8.3-18.5,18.5s8.3,18.5,18.5,18.5s18.5-8.3,18.5-18.5S235.6,181.8,225.4,181.8z"/>
</g>
<g id="资金" class="st2">
	<path class="st3" d="M567.1,310.5c1.6-1.1,3.2-2.3,4.7-3.5c0.1,0.2,0.2,0.5,0.5,1c-1.5,1.1-3,2.3-4.5,3.5L567.1,310.5z
		 M576.1,314.2h1c0,0.7-0.1,1.4-0.2,2.1c0,0,0,0.1,0,0.2c0,0.2-0.1,0.4-0.1,0.5c2.6,1,5.4,2.1,8.4,3.3l-0.6,1
		c-3-1.4-5.8-2.5-8.2-3.4c-0.9,1.5-3.6,2.7-8.1,3.5c-0.2-0.4-0.3-0.7-0.6-1.1c5.2-0.6,7.9-2,8.3-4.1
		C576.1,315.6,576.1,315,576.1,314.2z M571.1,305.9c-1-0.8-2-1.6-3.1-2.3l0.7-0.8c0.9,0.7,2,1.4,3.1,2.3L571.1,305.9z M570,312h13.1
		v5.7h-1V313h-11v4.7h-1L570,312L570,312z M573.1,311.4c-0.2-0.4-0.4-0.7-0.6-1c4-0.9,6.1-2.6,6.4-5.3h-3.1c-0.5,0.9-1.2,1.8-2,2.7
		c-0.3-0.3-0.6-0.5-0.8-0.7c1.4-1.4,2.4-2.9,3.1-4.7l1,0.3c-0.2,0.6-0.5,1.1-0.7,1.6h8.9v1l-1.2,2.4c-0.3-0.1-0.6-0.3-1-0.4l1.1-2.1
		H580c0,0.2-0.1,0.4-0.1,0.6c1,2.6,3,4.1,6.1,4.7c-0.2,0.3-0.4,0.7-0.6,1c-3.1-0.9-5.1-2.4-5.9-4.5
		C578.8,308.8,576.7,310.3,573.1,311.4z"/>
	<path class="st3" d="M605.4,309.6c-3.7-1.4-6.6-3.3-8.8-5.8c-2.2,2.4-5.1,4.4-8.8,6c-0.1-0.2-0.4-0.5-0.7-0.9
		c4.3-1.9,7.5-4.1,9.4-6.6l1.2,0.2c0,0.1-0.1,0.1-0.2,0.2c-0.1,0.1-0.2,0.2-0.2,0.3c2.3,2.5,5.2,4.3,8.7,5.5
		C605.7,309,605.5,309.4,605.4,309.6z M590.4,309h12.1v1h-5.4v3.2h7v1h-7v5.5h8.3v1h-17.7v-1h8.3v-5.5h-7v-1h7V310h-5.6L590.4,309
		L590.4,309z M590,315.7l0.8-0.6c0.9,0.9,1.8,1.8,2.6,2.7l-0.9,0.7C591.9,317.8,591,316.8,590,315.7z M600.3,318.6l-0.8-0.7
		c0.9-0.8,1.8-1.7,2.8-2.7l0.9,0.6C602.1,316.8,601.2,317.7,600.3,318.6z"/>
</g>
<g id="卢森堡资产模块" class="st2">
	<path class="st3" d="M682.7,269.5h1.1v2h9v1h-9v2.8h7.4v7.6h-1.1v-1.3h-12.5c-0.1,2.5-1,4.7-2.5,6.7c-0.3-0.3-0.7-0.6-1-0.7
		c1-1.3,1.7-2.6,2-3.8c0.3-1.2,0.5-3,0.5-5.6v-3h6.1V269.5z M677.7,278.2c0,0.9,0,1.7-0.1,2.4H690v-4.3h-12.4L677.7,278.2
		L677.7,278.2z"/>
	<path class="st3" d="M698.6,277.3h1v2.4h3.2v0.9h-3.2v1.7l0.4-0.5c1,0.7,1.9,1.3,2.7,1.9l-0.6,0.8c-0.9-0.8-1.8-1.4-2.5-1.9v5.8h-1
		v-6.5c-0.8,1.7-2.1,3.2-3.7,4.6c-0.3-0.3-0.5-0.6-0.8-0.9c1.9-1.3,3.3-2.9,4.5-4.9h-3.7v-0.9h3.8v-2.5H698.6z M712.3,277.4
		c-3.5-0.8-6.2-2.2-8.1-3.9v4.4h-1v-4.4c-2,1.8-4.7,3.2-8,4.1c-0.2-0.4-0.4-0.7-0.6-1c3.2-0.7,6-1.9,8.2-3.7h-7.3V272h7.7v-2.5h1
		v2.5h7.9v0.9h-7.5c2.3,1.8,5.1,2.9,8.3,3.5C712.7,276.6,712.5,277,712.3,277.4z M702.8,286.7c-0.3-0.3-0.5-0.6-0.8-0.8
		c1.9-1.2,3.6-3,5-5.3h-3.1v-0.9h3.2v-2.3h1v2.3h4.2v0.9h-4.1c1.3,2.1,3,3.8,5,4.9c-0.3,0.3-0.6,0.6-0.8,0.9c-2-1.3-3.4-2.9-4.3-4.6
		v6.6h-1v-6.6C706.1,283.7,704.6,285.3,702.8,286.7z"/>
	<path class="st3" d="M714.8,277.4c-0.2-0.3-0.4-0.6-0.6-0.9c1.9-1.9,3.4-4.2,4.6-7l1,0.4c-0.7,1.4-1.3,2.6-1.9,3.6v8.2h-1V275
		C716.2,275.8,715.5,276.6,714.8,277.4z M723.2,281.3h1v1.8h7.1v0.9h-7.1v2.4h8.9v0.9h-18.8v-0.9h8.9V284H716v-0.9h7.2V281.3
		L723.2,281.3z M719.1,280.6c2.6-0.8,4.5-1.8,5.6-3h-5.3v-0.9h6.2v-1.8h-4.4v-4.5h10v4.5h-4.5v1.8h6.1v0.9h-5.3
		c1.3,1.2,3.1,2.2,5.5,2.8c-0.3,0.4-0.5,0.7-0.6,0.9c-2.6-0.8-4.6-2-5.8-3.5v3.9h-1v-3.8c-1.5,1.6-3.4,2.8-5.8,3.6
		C719.6,281.2,719.4,280.9,719.1,280.6z M722.1,271.3v2.7h7.9v-2.7H722.1z"/>
	<path class="st3" d="M734.4,277.5c1.6-1.1,3.2-2.3,4.7-3.5c0.1,0.2,0.2,0.5,0.5,1c-1.5,1.1-3,2.3-4.5,3.5L734.4,277.5z
		 M743.4,281.1h1c0,0.7-0.1,1.4-0.2,2.1c0,0,0,0.1,0,0.2c0,0.2-0.1,0.4-0.1,0.5c2.6,1,5.4,2.1,8.4,3.3l-0.6,1
		c-3-1.4-5.8-2.5-8.2-3.4c-0.9,1.5-3.6,2.7-8.1,3.5c-0.2-0.4-0.3-0.7-0.6-1.1c5.2-0.6,7.9-2,8.3-4.1
		C743.4,282.6,743.4,281.9,743.4,281.1z M738.3,272.9c-1-0.8-2-1.6-3.1-2.3l0.7-0.8c0.9,0.7,2,1.4,3.1,2.3L738.3,272.9z M737.3,279
		h13.1v5.7h-1V280h-11v4.7h-1L737.3,279L737.3,279z M740.4,278.3c-0.2-0.4-0.4-0.7-0.6-1c4-0.9,6.1-2.6,6.4-5.3H743
		c-0.5,0.9-1.2,1.8-2,2.7c-0.3-0.3-0.6-0.5-0.8-0.7c1.4-1.4,2.4-2.9,3.1-4.7l1,0.3c-0.2,0.6-0.5,1.1-0.7,1.6h8.9v1l-1.2,2.4
		c-0.3-0.1-0.6-0.3-1-0.4l1.1-2.1h-4.2c0,0.2-0.1,0.4-0.1,0.6c1,2.6,3,4.1,6.1,4.7c-0.2,0.3-0.4,0.7-0.6,1c-3.1-0.9-5.1-2.4-5.9-4.5
		C746,275.8,744,277.3,740.4,278.3z"/>
	<path class="st3" d="M756.3,277.3h9.5c0.8-1.2,1.5-2.4,2.3-3.8l1,0.5c-0.7,1-1.4,2.1-2.2,3.2h5.7v1h-15.2v1.5
		c0.1,3.5-0.7,6.3-2.3,8.4c-0.3-0.3-0.6-0.6-0.9-0.8c0.8-1,1.3-2,1.6-3.2c0.3-1.1,0.5-2.6,0.5-4.5L756.3,277.3L756.3,277.3z
		 M763.3,269.8l1.1-0.3c0.3,0.9,0.6,1.6,0.8,2.3h8v1h-18.4v-1h9.2c-0.1-0.4-0.3-1-0.6-1.8C763.3,269.9,763.3,269.8,763.3,269.8z
		 M759.1,274.1l0.9-0.6c0.6,0.7,1.3,1.7,2.2,2.9l-1,0.6C760.6,276,759.8,275,759.1,274.1z"/>
	<path class="st3" d="M774.7,282.8c-0.2-0.5-0.3-0.9-0.4-1.2c1.2-2,2.1-4.4,2.8-7.1v-0.1h-2.5v-0.9h2.5v-3.9h1v3.9h2.1v0.9h-2.1v3.2
		l0.5-0.4c0.8,0.8,1.6,1.5,2.2,2.3l-0.8,0.7c-0.8-0.9-1.4-1.6-2-2.2v10.4h-1v-11.5C776.5,279.2,775.7,281.2,774.7,282.8z
		 M779.9,283.1h5.8c0.1-0.6,0.2-1.2,0.2-2h-4.5v-6.4h10.2v6.4H787c0,0.7-0.1,1.3-0.2,2h6.2v0.9h-5.8c1,1.7,3,2.8,6,3.1
		c-0.1,0.2-0.3,0.6-0.5,1c-3.2-0.6-5.3-1.9-6.3-3.8c-0.7,1.8-2.8,3.2-6.3,4.1c-0.2-0.3-0.4-0.7-0.6-1c3.4-0.7,5.4-1.9,6-3.4H780
		L779.9,283.1L779.9,283.1L779.9,283.1z M780.2,271.4h3.4v-1.9h1v1.9h3.7v-1.9h1v1.9h3.6v0.9h-3.6v1.6h-1v-1.6h-3.7v1.6h-1v-1.6
		h-3.4V271.4z M782.5,275.6v1.9h8.1v-1.9H782.5z M782.5,278.3v1.9h8.1v-1.9H782.5z"/>
	<path class="st3" d="M794.7,285.1l-0.3-1.1c0.6-0.1,1.6-0.4,2.8-0.7v-7.8h-2.6v-1h2.6v-4.9h1v4.9h2.5v1h-2.5v7.6
		c0.3-0.1,0.9-0.2,1.5-0.4c0.5-0.1,0.9-0.3,1.2-0.3c0,0.3,0,0.7,0.1,1.1C798.7,283.9,796.6,284.5,794.7,285.1z M800.5,279.2h4.5
		c0.1-0.9,0.2-2.6,0.2-5.3h-3.6v-1h3.6c0-0.4,0-0.8,0-1.3c0-0.2,0-0.5,0-0.8s0-0.7,0-1.2h1.1c0,0.9,0,1.6,0,2.1s0,1,0,1.4h4.9v6.2
		h1.9v1h-6.5c1.2,3.1,3.3,5.4,6.5,6.8c-0.3,0.3-0.5,0.7-0.7,1c-3.5-1.8-5.7-4.3-6.6-7.5c-0.5,2.8-2.4,5.4-5.8,7.8
		c-0.2-0.3-0.5-0.6-0.8-0.9c3.4-2.2,5.3-4.6,5.7-7.3h-4.4L800.5,279.2L800.5,279.2z M810.2,274h-3.8c0,2.2-0.1,3.9-0.2,5.3h4V274z"
		/>
</g>
<g id="全球交易平台" class="st2">
	<path class="st3" d="M18.2,396c-3.9-1.9-6.8-4.1-8.7-6.7c-2.3,2.8-5.2,5.1-8.8,6.9c-0.3-0.4-0.6-0.7-0.8-0.9
		c4.3-2.2,7.4-4.7,9.4-7.5l1.2,0.2c0,0-0.1,0.1-0.1,0.2c-0.1,0.1-0.2,0.3-0.3,0.3c2.1,2.7,5,4.9,8.8,6.5
		C18.7,395.2,18.5,395.5,18.2,396z M3.2,395.4h12.4v1H10v3.5h6.4v1H10v3.8h8.1v1H0.8v-1h8.1V401H2.5v-1h6.4v-3.5H3.2V395.4z"/>
	<path class="st3" d="M20.2,404.9l-0.2-1.1c0.8-0.1,1.7-0.2,2.7-0.4v-6h-2.4v-0.9h2.4v-5.3H20v-0.9h6.2v0.9h-2.5v5.3H26v0.9h-2.2
		v5.8c0.9-0.2,1.8-0.3,2.7-0.5c0,0.1,0,0.5,0,1C24,404.1,21.9,404.5,20.2,404.9z M26.9,391.8h5v-3.6h1v3.6h5.7v1H33v0.8
		c0.4,1.7,0.8,3.1,1.4,4.3c1.2-1.1,2.2-2.2,3.1-3.3l0.8,0.7c-0.9,1-2.1,2.2-3.5,3.4c0.9,1.7,2.3,3.3,4.2,4.9
		c-0.3,0.3-0.5,0.5-0.8,0.9c-2.7-2.4-4.5-5-5.3-7.9v7.6c0.1,1.6-0.7,2.3-2.5,2.3c-0.4,0-1,0-1.8,0c0-0.4-0.1-0.8-0.2-1.1
		c0.4,0,1.1,0.1,1.9,0.1c0.6,0,1-0.1,1.2-0.3c0.2-0.2,0.3-0.6,0.3-1.2v-4c-1.7,1.2-3.3,2.2-4.8,3.1l-0.7-1c2.1-1.2,3.9-2.3,5.4-3.3
		v-5.9h-5v-1.1H26.9z M27.1,395.1l0.9-0.5c0.8,1,1.5,2.1,2.3,3.3l-0.9,0.6C28.7,397.3,27.9,396.2,27.1,395.1z M34,389.5l0.6-0.7
		c0.9,0.6,1.8,1.2,2.6,1.8l-0.7,0.7C35.9,390.8,35,390.2,34,389.5z"/>
	<path class="st3" d="M46.1,396.6c1,2,2.1,3.6,3.4,4.8c1.2-1.1,2.3-2.7,3.3-5l1,0.4c-1,2.3-2.2,4-3.5,5.3c1.8,1.4,4.5,2.5,8.3,3.4
		c-0.2,0.3-0.4,0.6-0.6,1.1c-3.9-1-6.8-2.3-8.5-3.7c-1.7,1.4-4.5,2.7-8.7,3.9l-0.6-1.1c4-1.1,6.8-2.2,8.4-3.5
		c-1.2-1.2-2.4-2.8-3.5-5L46.1,396.6z M40.4,390.9h9.2c-0.3-0.8-0.8-1.6-1.4-2.5l1-0.5c0.6,0.9,1,1.7,1.4,2.5l-0.9,0.5h8.9v1H40.4
		V390.9z M46.4,393.1l0.9,0.9c-1.8,1.5-3.8,3-5.9,4.5c-0.2-0.3-0.4-0.6-0.7-1C42.6,396.2,44.6,394.8,46.4,393.1z M57.6,398
		c-1.7-1.3-3.7-2.7-5.8-4.1l0.7-0.8c1.8,1.2,3.8,2.5,5.9,3.9L57.6,398z"/>
	<path class="st3" d="M60.9,401.6c-0.1-0.2-0.4-0.5-0.7-0.8c2.1-1.2,3.7-2.8,5-4.6l1,0.4c-0.4,0.5-0.8,1-1.2,1.5h12.5
		c0,1.4-0.1,2.9-0.2,4.5c-0.1,2.7-1.4,4-3.8,3.9c-0.7,0-1.5,0-2.3,0c0-0.3-0.1-0.7-0.2-1.1c0.9,0.1,1.7,0.1,2.5,0.1
		c0.1,0,0.2,0,0.3,0c1.6,0,2.5-1,2.5-2.9c0.1-1.4,0.2-2.6,0.2-3.6h-3.2c-0.7,3.4-3,6-6.9,7.9c-0.3-0.3-0.5-0.6-0.7-0.9
		c3.7-1.7,5.9-4.1,6.5-7h-3.3c-1.2,2.9-3.9,5.1-8.1,6.7c-0.2-0.3-0.4-0.6-0.7-0.9c4-1.5,6.5-3.4,7.7-5.8h-3.6
		C63.3,400,62.2,400.9,60.9,401.6z M62.7,388.8h14v7.1h-14C62.7,395.9,62.7,388.8,62.7,388.8z M63.8,389.8v2.1h11.9v-2.1H63.8z
		 M63.8,392.8v2.2h11.9v-2.2H63.8z"/>
	<path class="st3" d="M81.2,388.9H98v1h-7.9v8.6h8.8v1.1h-8.8v7.2H89v-7.2h-8.7v-1.1H89V390h-7.8V388.9z M82.3,392.3l0.9-0.6
		c1.2,1.4,2.3,3,3.5,4.6l-1,0.7C84.7,395.6,83.6,394,82.3,392.3z M93.1,397.1l-0.9-0.7c1.4-1.4,2.6-3,3.7-4.6l1,0.6
		C95.7,393.9,94.4,395.5,93.1,397.1z"/>
	<path class="st3" d="M118.1,397c-0.7-0.7-1.2-1.2-1.6-1.6c-5.8,0.1-10.2,0.3-13.4,0.5c-0.8,0-1.4,0.1-1.9,0.2l-0.5-1.2
		c0.5-0.2,1-0.5,1.5-0.9c2.3-1.9,4.3-4,6.1-6.2l1.1,0.6c-1.8,2-4,4.1-6.5,6.3c1.5,0,4.1-0.1,7.6-0.2c1.7-0.1,3.4-0.1,5.2-0.2
		c-0.7-0.7-1.7-1.7-3.1-3.1l0.9-0.6c1.7,1.6,3.7,3.5,5.8,5.6L118.1,397z M116.4,398.3v8.5h-1.1v-1.3h-11.4v1.3h-1.1v-8.5H116.4z
		 M103.9,399.3v5.2h11.4v-5.2H103.9z"/>
</g>
<circle id="椭圆_6" class="st4" cx="389.6" cy="197.3" r="104.2"/>
<g class="st2">
	<path class="st5" d="M336.9,197.3h-2.3v-8.2h-9.2v8.2H323v-18.2h2.3v7.9h9.2v-7.9h2.3v18.2H336.9z"/>
	<path class="st5" d="M340.4,191c0-2.1,0.6-3.8,1.8-5.1c1.2-1.2,2.8-1.9,4.9-1.9c1.9,0,3.5,0.6,4.6,1.8s1.7,2.8,1.7,4.9
		c0,2.1-0.6,3.7-1.8,5c-1.2,1.3-2.8,1.9-4.8,1.9c-1.9,0-3.5-0.6-4.6-1.8C341,194.6,340.4,193,340.4,191z M342.7,190.9
		c0,1.5,0.4,2.7,1.1,3.5c0.8,0.9,1.8,1.3,3,1.3c1.3,0,2.3-0.4,3-1.3c0.7-0.8,1-2,1-3.6s-0.3-2.8-1-3.6s-1.7-1.3-3-1.3
		s-2.3,0.4-3.1,1.3C343.1,188.2,342.7,189.4,342.7,190.9z"/>
	<path class="st5" d="M367.3,197.3H365v-2l0,0c-0.9,1.6-2.2,2.3-4,2.3c-3.1,0-4.6-1.8-4.6-5.5v-7.8h2.3v7.4c0,2.6,1,4,3,4
		c1,0,1.8-0.4,2.4-1.1s0.9-1.7,0.9-2.8v-7.5h2.3L367.3,197.3L367.3,197.3z"/>
	<path class="st5" d="M370.6,194.5c1.2,0.8,2.4,1.3,3.7,1.3c1.8,0,2.7-0.6,2.7-1.8c0-0.5-0.2-0.9-0.6-1.2s-1.2-0.7-2.4-1.2
		c-1.4-0.6-2.4-1.2-2.8-1.7c-0.4-0.6-0.6-1.3-0.6-2.1c0-1.2,0.5-2.1,1.5-2.8s2.2-1,3.6-1c1.1,0,2.1,0.2,3.1,0.6v2.2
		c-1-0.6-2.1-0.9-3.3-0.9c-0.7,0-1.3,0.2-1.8,0.5s-0.7,0.7-0.7,1.3c0,0.5,0.2,0.9,0.5,1.2s1.1,0.7,2.2,1.1c1.4,0.5,2.4,1.1,2.9,1.7
		s0.8,1.3,0.8,2.1c0,1.2-0.5,2.1-1.5,2.8s-2.2,1-3.8,1c-1.3,0-2.5-0.3-3.5-0.8L370.6,194.5L370.6,194.5z"/>
	<path class="st5" d="M393.1,191.4H384c0,1.4,0.4,2.5,1.1,3.2c0.7,0.8,1.7,1.1,3,1.1c1.5,0,2.8-0.5,4-1.4v2.1
		c-1.1,0.8-2.7,1.2-4.5,1.2c-1.9,0-3.3-0.6-4.4-1.8s-1.6-2.8-1.6-5c0-2,0.6-3.6,1.7-4.9c1.2-1.3,2.6-1.9,4.3-1.9c1.7,0,3,0.5,4,1.6
		s1.4,2.6,1.4,4.6v1.2L393.1,191.4L393.1,191.4z M390.8,189.6c0-1.2-0.3-2.1-0.8-2.7c-0.5-0.6-1.3-1-2.3-1c-0.9,0-1.7,0.3-2.4,1
		c-0.7,0.7-1.1,1.6-1.3,2.7H390.8z"/>
	<path class="st5" d="M407.4,181.3h-5.2v16.1h-2.4v-16.1h-5.2v-2.1h12.8L407.4,181.3L407.4,181.3z"/>
	<path class="st5" d="M406.4,191c0-2.1,0.6-3.8,1.8-5.1c1.2-1.2,2.8-1.9,4.9-1.9c1.9,0,3.5,0.6,4.6,1.8s1.7,2.8,1.7,4.9
		c0,2.1-0.6,3.7-1.8,5s-2.8,1.9-4.8,1.9c-1.9,0-3.5-0.6-4.6-1.8S406.4,193,406.4,191z M408.7,190.9c0,1.5,0.4,2.7,1.1,3.5
		c0.8,0.9,1.8,1.3,3,1.3c1.3,0,2.3-0.4,3-1.3c0.7-0.8,1-2,1-3.6s-0.3-2.8-1-3.6s-1.7-1.3-3-1.3s-2.3,0.4-3.1,1.3
		C409.1,188.2,408.7,189.4,408.7,190.9z"/>
	<path class="st5" d="M433.5,197.3h-3.1l-5.6-6.3l0,0v6.3h-2.3v-19.2h2.3v12.2l0,0l5.3-6h3l-5.9,6.2L433.5,197.3z"/>
	<path class="st5" d="M445.7,191.4h-9.1c0,1.4,0.4,2.5,1.1,3.2c0.7,0.8,1.7,1.1,3,1.1c1.5,0,2.8-0.5,4-1.4v2.1
		c-1.1,0.8-2.7,1.2-4.5,1.2c-1.9,0-3.3-0.6-4.4-1.8s-1.6-2.8-1.6-5c0-2,0.6-3.6,1.7-4.9c1.2-1.3,2.6-1.9,4.3-1.9c1.7,0,3,0.5,4,1.6
		s1.4,2.6,1.4,4.6v1.2L445.7,191.4L445.7,191.4z M443.4,189.6c0-1.2-0.3-2.1-0.8-2.7c-0.5-0.6-1.3-1-2.3-1c-0.9,0-1.7,0.3-2.4,1
		s-1.1,1.6-1.3,2.7H443.4z"/>
	<path class="st5" d="M459.7,197.3h-2.3V190c0-2.7-1-4-2.9-4c-1,0-1.8,0.4-2.5,1.1s-1,1.7-1,2.9v7.4h-2.3v-13h2.3v2.1l0,0
		c1-1.6,2.4-2.5,4.3-2.5c1.4,0,2.5,0.5,3.3,1.4c0.7,0.9,1.1,2.2,1.1,4V197.3z"/>
</g>
<g class="st2">
	<path class="st5" d="M385,235.4h-9.6v-18.2h2.3v16.1h7.2v2.1L385,235.4L385,235.4z"/>
	<path class="st5" d="M397.3,219.3h-5.2v16.1h-2.4v-16.1h-5.2v-2.1h12.8L397.3,219.3L397.3,219.3z"/>
	<path class="st5" d="M400.1,235.4v-18.2h5.2c2.8,0,5,0.8,6.9,2.4c1.8,1.6,2.7,3.8,2.7,6.5c0,2.8-0.9,5.1-2.7,6.8
		c-1.8,1.7-4.2,2.5-7.1,2.5H400.1z M402.5,219.3v14h2.6c2.3,0,4.1-0.6,5.4-1.9c1.3-1.3,1.9-3,1.9-5.3s-0.7-4-2-5.1s-3.1-1.7-5.2-1.7
		H402.5z"/>
</g>
<g class="st2">
	<path class="st3" d="M119.5,65c-0.2-0.3-0.5-0.6-0.8-0.8c1.9-1.6,3.4-3.5,4.4-5.6l1.1,0.2c-0.1,0.3-0.4,0.7-0.7,1.2
		c-0.1,0.2-0.2,0.3-0.2,0.4h13.8v1h-14.5C121.9,62.6,120.8,63.8,119.5,65z M120.6,74.4l0.9-4.9h-2.7v-1h2.8l0.9-4.9H135
		c0,0.5-0.1,1.4-0.1,2.5s-0.1,1.9-0.1,2.5h2.9v1h-2.9c0,0.5-0.1,1.3-0.1,2.3c0,0.8-0.1,1.3-0.1,1.7h2.4v1h-2.5c-0.2,2-1.2,3-3.1,2.9
		c-0.4,0-0.9,0-1.3,0c-0.2,0-0.4,0-0.6,0c-0.2,0-0.4,0-0.8,0c0-0.4-0.1-0.8-0.2-1.2c0.7,0.1,1.5,0.1,2.6,0.1c0.1,0,0.2,0,0.3,0
		c1.2,0,1.9-0.6,2-1.9L120.6,74.4L120.6,74.4z M133.5,73.4c0-0.2,0-0.5,0-1c0.1-1.3,0.1-2.2,0.1-3h-11.1l-0.7,4H133.5z M123.4,64.5
		l-0.7,4h11c0-0.5,0.1-1.4,0.1-2.4c0-0.7,0-1.2,0.1-1.5L123.4,64.5L123.4,64.5z M126.4,70.8l0.7-0.7c1,0.7,1.8,1.4,2.5,1.9l-0.7,0.8
		C128.1,72.1,127.3,71.5,126.4,70.8z M126.6,65.8l0.7-0.7c0.8,0.6,1.7,1.3,2.5,1.9l-0.7,0.8C128.3,67.2,127.5,66.5,126.6,65.8z"/>
	<path class="st3" d="M151.9,76.2c1.2,0.1,1.8-0.5,1.8-1.7V71h-10.6c-0.3,2.5-1.2,4.7-2.9,6.7c-0.3-0.2-0.6-0.5-1-0.8
		c1.2-1.3,2-2.7,2.4-4.1s0.7-3.6,0.6-6.4v-6.8h12.6v14.9c0.1,1.8-0.8,2.7-2.6,2.7c-0.7,0-1.6,0-2.7,0c-0.1-0.4-0.2-0.8-0.3-1.2
		C150.1,76.1,151,76.2,151.9,76.2z M143.3,66.4c0,1.4,0,2.6-0.1,3.5h10.5v-4.2h-10.4V66.4z M143.3,60.5v4.2h10.4v-4.2
		C153.7,60.5,143.3,60.5,143.3,60.5z"/>
	<path class="st3" d="M159.6,63.8h2.6v-3h-3v-0.9h9.6v0.9h-3.1v3h2.7v13.5h-0.9v-1.2h-6.9v1.3h-0.9V63.8H159.6z M160.5,64.6v7h6.9
		v-2.3h-1.1c-1.1,0-1.6-0.5-1.6-1.6v-3.1h-1.6v0.8c0,1.4-0.1,2.3-0.3,2.9s-0.6,1.3-1.3,2.1c-0.3-0.2-0.6-0.4-0.8-0.6
		c0.6-0.7,1-1.3,1.2-1.8s0.3-1.4,0.3-2.6v-0.8H160.5z M160.5,72.5v2.7h6.9v-2.7H160.5z M163.1,60.8v3h1.6v-3H163.1z M167.4,64.6
		h-1.8v2.9c0,0.7,0.3,1.1,1,1h0.7v-3.9H167.4z M170.1,59.9h6.5v7.6h-5.1v6.8c0,0.7,0.1,1.1,0.4,1.3c0.2,0.2,0.7,0.3,1.4,0.3h1.2
		c1.2,0.1,1.9-0.5,2-1.6c0.1-0.8,0.3-1.7,0.3-2.6c0.3,0.1,0.7,0.3,1,0.3c-0.1,1-0.2,1.8-0.3,2.5c-0.2,0.9-0.4,1.5-0.9,1.8
		c-0.4,0.4-1.1,0.5-2,0.5H173c-1.7,0.1-2.6-0.8-2.5-2.5v-7.9h5.1v-5.7h-5.5V59.9z"/>
	<path class="st3" d="M180.2,59.6h5.5v15.6c0.1,1.4-0.6,2.1-2,2c-0.2,0-0.4,0-0.6,0c-0.1,0-0.2,0-0.3,0s-0.2,0-0.4,0
		c0-0.3-0.1-0.7-0.2-1c0.4,0,0.9,0.1,1.4,0.1s0.8-0.1,0.9-0.2c0.2-0.1,0.2-0.4,0.2-0.9v-4.6h-3.5c0,0.2,0,0.4,0,0.6
		c0,2.6-0.5,4.7-1.6,6.3c-0.3-0.2-0.6-0.4-0.9-0.6c0.6-1,1.1-1.9,1.2-2.8c0.2-0.9,0.3-2.1,0.3-3.9L180.2,59.6L180.2,59.6z
		 M181.2,60.6v4.1h3.5v-4.1H181.2z M181.2,65.6v4.1h3.5v-4.1H181.2z M187.2,68.8v-1h8.9v1c-1,2.2-2.2,4-3.4,5.1
		c1.1,0.9,2.8,1.6,5.1,2.3c-0.2,0.3-0.5,0.7-0.6,1c-2.3-0.9-4.1-1.7-5.3-2.7c-1.2,1-3,2-5.3,3c-0.2-0.3-0.4-0.6-0.7-1
		c2.3-1,4.1-1.9,5.2-2.8c-1.2-1.2-2.2-2.9-3-5.1h-0.9V68.8z M196.4,65.3c0.4,0,0.6,0,0.8,0s0.4,0,0.5,0c-0.1,0.3-0.1,0.7-0.2,1
		c-0.2,0-0.4,0-0.6,0c-0.1,0-0.2,0-0.4,0c-0.1,0-0.3,0-0.6,0c-1.4,0.1-2-0.7-2-2.2v-3.4h-4.2v0.6c0,1.6-0.2,2.8-0.6,3.5
		c-0.4,0.8-1.2,1.5-2.4,2.3c-0.2-0.2-0.4-0.5-0.7-0.8c1.1-0.7,1.8-1.3,2.1-1.9s0.5-1.6,0.5-3.1v-1.6h6.3V64c0,0.5,0.1,0.9,0.3,1
		C195.5,65.2,195.9,65.3,196.4,65.3z M194.9,68.8h-5.8c0.8,2,1.7,3.5,2.7,4.5C193,72.2,194,70.7,194.9,68.8z"/>
	<path class="st3" d="M200.4,71.9l1,0.4c-0.6,1.6-1.2,2.9-1.7,4l-1-0.5C199.4,74.6,200,73.3,200.4,71.9z M201.4,60.6h4.8
		c0.2-0.8,0.4-1.4,0.5-2l1.1,0.2c0,0,0,0.1-0.1,0.2c-0.2,0.7-0.4,1.2-0.5,1.6h7.8v9.7h-13.6V60.6z M202.5,61.5v2H214v-2H202.5z
		 M202.5,64.4v2H214v-2H202.5z M202.5,67.3v2H214v-2H202.5z M203.4,71.8h1.1v2.7c0,0.6,0.1,1,0.4,1.2c0.2,0.2,0.7,0.3,1.4,0.3h4.1
		c1.1,0,1.8-0.4,2-1.1c0.1-0.4,0.2-1.1,0.4-2c0.4,0.2,0.8,0.3,1.1,0.4c-0.1,0.8-0.3,1.4-0.4,1.8c-0.3,1.3-1.2,2-2.9,1.9H206
		c-1.8,0.1-2.7-0.8-2.6-2.5V71.8z M207,71.6l0.7-0.6c0.8,0.8,1.6,1.5,2.3,2.3l-0.8,0.7C208.4,73.1,207.6,72.3,207,71.6z M214.6,72.3
		l0.8-0.6c0.8,0.9,1.7,1.9,2.6,3l-0.9,0.7C216.3,74.2,215.4,73.2,214.6,72.3z"/>
</g>
<g class="st2">
	<path class="st3" d="M32.4,159.8l-0.1-1.2c0.2-0.1,0.5-0.1,0.8-0.2c0.9-0.3,1.5-0.5,2-0.6v-4.7h-2.6v-1h2.6v-3.8h1v3.8h2.4v1h-2.4
		v4.4c0.7-0.2,1.4-0.5,2.2-0.7c0,0.5,0,0.8,0,1.1c0,0-0.1,0-0.2,0.1c-0.9,0.3-1.5,0.5-2,0.6v6c0.1,1.5-0.6,2.3-2,2.3
		c-0.6,0-1.1,0-1.4,0c0-0.1,0-0.1,0-0.2c0-0.4-0.1-0.7-0.2-0.9c0.6,0,1.1,0,1.4,0c0.8,0.1,1.2-0.4,1.2-1.2V159
		c-0.2,0.1-0.4,0.1-0.8,0.3C34,159.2,33.3,159.4,32.4,159.8z M39.6,158.1v-1h9.6v1c-0.9,2.1-2.2,3.9-3.9,5.2c1.4,1,3.4,1.8,5.8,2.4
		c-0.2,0.3-0.4,0.6-0.5,1.1c-2.6-0.8-4.7-1.7-6.2-2.8c-1.6,1.2-3.7,2.1-6.2,2.9c-0.2-0.4-0.4-0.7-0.6-1c2.4-0.6,4.4-1.5,6-2.6
		c-1.4-1.3-2.5-3-3.2-5.2L39.6,158.1L39.6,158.1z M49.4,154.3h1.7c-0.1,0.3-0.1,0.6-0.2,1h-1.7c-1.5,0.1-2.2-0.6-2.1-2.1V150h-4.8
		v0.9c0.1,2.3-0.8,4.1-2.7,5.4c-0.3-0.3-0.6-0.6-0.8-0.8c1-0.7,1.6-1.3,2-1.9c0.3-0.6,0.5-1.5,0.5-2.6v-1.9h6.8v3.9
		c0,0.5,0.1,0.8,0.3,1C48.6,154.2,48.9,154.3,49.4,154.3z M48.1,158.1h-6.6c0.7,1.9,1.7,3.4,3,4.6C46.1,161.5,47.3,159.9,48.1,158.1
		z"/>
	<path class="st3" d="M52.4,156.1c1.6-1.1,3.2-2.3,4.7-3.5c0.1,0.2,0.2,0.5,0.5,1c-1.5,1.1-3,2.3-4.5,3.5L52.4,156.1z M61.4,159.8h1
		c0,0.7-0.1,1.4-0.2,2.1c0,0,0,0.1,0,0.2c0,0.2-0.1,0.4-0.1,0.5c2.6,1,5.4,2.1,8.4,3.3l-0.6,1c-3-1.4-5.8-2.5-8.2-3.4
		c-0.9,1.5-3.6,2.7-8.1,3.5c-0.2-0.4-0.3-0.7-0.6-1.1c5.2-0.6,7.9-2,8.3-4.1C61.4,161.2,61.4,160.6,61.4,159.8z M56.4,151.5
		c-1-0.8-2-1.6-3.1-2.3l0.7-0.8c0.9,0.7,2,1.4,3.1,2.3L56.4,151.5z M55.3,157.6h13.1v5.7h-1v-4.7h-11v4.7h-1v-5.7H55.3z M58.5,157
		c-0.2-0.4-0.4-0.7-0.6-1c4-0.9,6.1-2.6,6.4-5.3H61c-0.5,0.9-1.2,1.8-2,2.7c-0.3-0.3-0.6-0.5-0.8-0.7c1.4-1.4,2.4-2.9,3.1-4.7l1,0.3
		c-0.2,0.6-0.5,1.1-0.7,1.6h8.9v1l-1.2,2.4c-0.3-0.1-0.6-0.3-1-0.4l1.1-2.1h-4.2c0,0.2-0.1,0.4-0.1,0.6c1,2.6,3,4.1,6.1,4.7
		c-0.2,0.3-0.4,0.7-0.6,1c-3.1-0.9-5.1-2.4-5.9-4.5C64.1,154.4,62,155.9,58.5,157z"/>
	<path class="st3" d="M90.4,166.5c-5-2.6-7.8-6.8-8.5-12.5c-0.7,5.6-3.6,9.8-8.5,12.7c-0.4-0.4-0.6-0.7-0.8-0.9
		c5-2.9,7.8-7.1,8.5-12.6c0.1-0.7,0.2-1.4,0.2-2.1c0-0.7,0.1-1.6,0.1-2.8h1.2c0,0.2,0,0.5,0,0.9c0,0.9-0.1,1.6-0.1,2.1
		c0.8,7.2,3.7,11.9,8.8,14.1C90.9,165.8,90.6,166.1,90.4,166.5z"/>
</g>
<g>
	<circle class="st6" cx="63.3" cy="72.4" r="17.1"/>
	<line class="st6" x1="49.5" y1="99.3" x2="63.3" y2="115"/>
	<line class="st6" x1="76.6" y1="99.3" x2="63.3" y2="115"/>
	<line class="st6" x1="63.3" y1="130.6" x2="63.3" y2="115"/>
	<path class="st6" d="M100,121.6v3.7c0,3.4-2.8,6.1-6.1,6.1H32.6c-3.4,0-6.1-2.8-6.1-6.1v-3.7"/>
	<path class="st6" d="M32.6,115.5"/>
	<path class="st6" d="M26.5,123.3c0-13.9,11.4-24.5,25.3-24.5h23c13.9,0,25.2,11.3,25.2,25.2l0,0"/>
</g>
<g class="st2">
	<g>
		<g>
			<path class="st3" d="M96.5,302.6H86.4c1-0.8,1.6-1.9,1.6-3.2c0-2.3-1.8-4.1-4.1-4.1s-4.1,1.8-4.1,4.1c0,0.7,0.2,1.3,0.5,1.9
				l-1.5,1.3h-20c-0.6-1.5-2.1-2.5-3.8-2.5s-3.2,1-3.8,2.5H28.9c-1.8,0-3.3,1.5-3.3,3.3v8c0,0.6,0.5,1.1,1.1,1.1s1.1-0.5,1.1-1.1v-8
				c0-0.6,0.5-1.1,1.1-1.1h22c0.1,0.4,0.2,0.8,0.3,1.2l-9.1,8.3c-0.6-0.4-1.4-0.7-2.2-0.7c-2.3,0-4.1,1.8-4.1,4.1s1.8,4.1,4.1,4.1
				s4.1-1.8,4.1-4.1c0-0.7-0.2-1.3-0.4-1.8l9.1-8.3c0.7,0.5,1.5,0.7,2.3,0.7c1.2,0,2.2-0.5,3-1.3l7.4,4.4c-0.1,0.3-0.1,0.5-0.1,0.8
				c0,2.3,1.8,4.1,4.1,4.1c2.3,0,4.1-1.8,4.1-4.1c0-0.6-0.1-1.2-0.4-1.7l6.4-5.8h16.9c0.6,0,1.1,0.5,1.1,1.1v26.8
				c0,0.6,0.5,1.1,1.1,1.1s1.1-0.5,1.1-1.1v-26.8C99.8,304,98.3,302.6,96.5,302.6z M39.9,319.6c-1.1,0-1.9-0.9-1.9-1.9
				c0-1.1,0.9-1.9,1.9-1.9s1.9,0.9,1.9,1.9S41,319.6,39.9,319.6z M55,306.1c-1.1,0-1.9-0.9-1.9-1.9c0-1.1,0.9-1.9,1.9-1.9
				s1.9,0.9,1.9,1.9S56.1,306.1,55,306.1z M69.5,314.2c-1.1,0-1.9-0.9-1.9-1.9c0-1.1,0.9-1.9,1.9-1.9s1.9,0.9,1.9,1.9
				C71.5,313.3,70.6,314.2,69.5,314.2z M71.9,308.9c-0.7-0.5-1.5-0.8-2.4-0.8c-1.2,0-2.3,0.5-3.1,1.4l-7.3-4.4
				c0-0.1,0.1-0.3,0.1-0.4h17.2L71.9,308.9z M83.9,301.3c-1.1,0-1.9-0.9-1.9-1.9s0.9-1.9,1.9-1.9s1.9,0.9,1.9,1.9
				S85,301.3,83.9,301.3z"/>
		</g>
	</g>
	<g>
		<g>
			<path class="st3" d="M99.8,337c0-0.6-0.5-1.1-1.1-1.1s-1.1,0.5-1.1,1.1v8.2h-8v-25.7v-4.4v-4.5c0-0.6-0.5-1.1-1.1-1.1h-8.2
				c-0.6,0-1.1,0.5-1.1,1.1v4.5v4.4v25.7h-4.1v-5.5v-4.5v-4.5c0-0.6-0.5-1.1-1.1-1.1h-8c-0.6,0-1.1,0.5-1.1,1.1v4.5v4.4v5.5h-4.1
				v-19.5v-4.4v-4.5c0-0.6-0.5-1.1-1.1-1.1h-8.2c-0.6,0-1.1,0.5-1.1,1.1v4.5v4.4v6.1c0,0.6,0.5,1.1,1.1,1.1s1.1-0.5,1.1-1.1v-5h6
				v18.4h-6V336c0-0.6-0.5-1.1-1.1-1.1s-1.1,0.5-1.1,1.1v9.1h-4.1v-5.5v-4.4v-4.5c0-0.6-0.5-1.1-1.1-1.1H37c-0.6,0-1.1,0.5-1.1,1.1
				v4.5v4.4v5.5h-8.2v-27c0-0.6-0.5-1.1-1.1-1.1s-1.1,0.5-1.1,1.1v36c0,1.8,1.5,3.3,3.3,3.3h23.8l-0.6,5.4h-5
				c-0.6,0-1.1,0.5-1.1,1.1v3.8c0,0.6,0.5,1.1,1.1,1.1h31.5c0.6,0,1.1-0.5,1.1-1.1v-3.8c0-0.6-0.5-1.1-1.1-1.1h-5.2l-0.6-5.4h23.8
				c1.8,0,3.3-1.5,3.3-3.3v-7.8l0,0V337L99.8,337z M81.5,311.6h6v2.3h-6V311.6z M81.5,316.1h6v2.3h-6V316.1z M81.5,320.5h6v24.6h-6
				V320.5z M67.1,331.8h6v2.3h-6V331.8z M67.1,336.3h6v2.3h-6V336.3z M67.1,340.7h6v4.4h-6V340.7z M52.6,320.1v-2.3h6v2.3H52.6z
				 M52.6,324.5v-2.3h6v2.3H52.6z M38.2,331.8h6v2.3h-6V331.8z M38.2,336.3h6v2.3h-6V336.3z M38.2,340.7h6v4.4h-6V340.7z M77.5,365
				v1.6H48V365H77.5z M54.2,362.8l0.6-5.4h15.6l0.6,5.4H54.2z M96.5,355.3H28.9c-0.6,0-1.1-0.5-1.1-1.1v-6.7h69.8v6.7l0,0
				C97.6,354.8,97.1,355.3,96.5,355.3z"/>
		</g>
	</g>
</g>
<path class="st3" d="M759.5,186.2h-8.4v8.4h8.4V186.2z M756.7,191.9h-2.8V189h2.8V191.9z"/>
<path class="st3" d="M770.7,186.2h-8.4v8.4h8.4V186.2z M767.9,191.9h-2.8V189h2.8V191.9z"/>
<path class="st3" d="M759.5,197.5h-8.4v8.4h8.4V197.5z M756.7,203.1h-2.8v-2.8h2.8V203.1z"/>
<path class="st3" d="M770.7,197.5h-8.4v8.4h8.4V197.5z M767.9,203.1h-2.8v-2.8h2.8V203.1z"/>
<path class="st3" d="M759.5,217.1v-8.4h-8.4v8.4H759.5z M753.9,211.5h2.8v2.8h-2.8V211.5z"/>
<path class="st3" d="M770.7,208.7h-8.4v8.4h8.4V208.7z M767.9,214.3h-2.8v-2.8h2.8V214.3z"/>
<path class="st3" d="M779.1,183.4v-2.8h-2.8V175h-2.8v-5.6h-25.2v5.6h-2.8v5.6h-2.8v2.8h2.8v36.5h-11.2v-16.8h2.8v-8.4h-2.8v-2.1
	L714.7,179l-8.4,5.8v-4.3h-8.4v10.1l-2.8,1.9v2.1h-2.8v8.4h2.8v17.1c-1.6,0.6-2.8,2.1-2.8,3.9v2.8c0,2.3,1.9,4.2,4.2,4.2h27.3
	c-2.2,2.7-3.5,6.1-3.5,9.8c0,8.5,6.9,15.4,15.4,15.4s15.4-6.8,15.4-15.3c0-3.7-1.3-7.1-3.5-9.8h27.3c2.3,0,4.2-1.9,4.2-4.2v-2.8
	c0-1.8-1.2-3.4-2.8-3.9v-36.8L779.1,183.4L779.1,183.4z M751.1,172.2h19.6v2.8h-19.6V172.2z M748.3,177.8h25.2v2.8h-25.2V177.8z
	 M700.6,183.2h2.8v3.5l-2.8,1.9V183.2z M697.8,194.1l16.8-11.6l16.8,11.6v0.7h-33.7v-0.7H697.8z M695,197.5h39.3v2.8H695V197.5z
	 M731.5,203.1v16.8h-11.2v-14H709v14h-11.2v-16.8H731.5z M717.4,219.9h-5.6v-11.2h5.6V219.9z M735.7,253.6
	c-6.9,0-12.6-5.7-12.6-12.6c0-6.9,5.7-12.6,12.6-12.6s12.6,5.7,12.6,12.6C748.3,247.9,742.7,253.6,735.7,253.6z M776.3,226.9
	c0,0.8-0.6,1.4-1.4,1.4h-30.4c-2.5-1.8-5.5-2.8-8.8-2.8s-6.3,1-8.8,2.8h-30.4c-0.8,0-1.4-0.6-1.4-1.4v-2.8c0-0.8,0.6-1.4,1.4-1.4
	H775c0.8,0,1.4,0.6,1.4,1.4L776.3,226.9L776.3,226.9z M773.5,219.9h-25.2v-36.5h25.2V219.9z"/>
<g class="st2">
	<g>
		<g>
			<path class="st3" d="M715.3,25.6h-8.5c-0.6,0-1.1,0.5-1.1,1.1V31c0,0.6,0.5,1.1,1.1,1.1h8.5c0.6,0,1.1-0.5,1.1-1.1v-4.3
				C716.3,26.1,715.9,25.6,715.3,25.6z M709.9,29.9h-2.1v-2.1h2.1V29.9z M714.2,29.9h-2.1v-2.1h2.1V29.9z"/>
		</g>
	</g>
	<g>
		<g>
			<path class="st3" d="M715.3,34.1h-8.5c-0.6,0-1.1,0.5-1.1,1.1v4.3c0,0.6,0.5,1.1,1.1,1.1h8.5c0.6,0,1.1-0.5,1.1-1.1v-4.3
				C716.3,34.6,715.9,34.1,715.3,34.1z M709.9,38.4h-2.1v-2.1h2.1V38.4z M714.2,38.4h-2.1v-2.1h2.1V38.4z"/>
		</g>
	</g>
	<g>
		<g>
			<path class="st3" d="M715.3,42.8h-8.5c-0.6,0-1.1,0.5-1.1,1.1v4.2c0,0.6,0.5,1.1,1.1,1.1h8.5c0.6,0,1.1-0.5,1.1-1.1v-4.3
				C716.3,43.2,715.9,42.8,715.3,42.8z M709.9,47h-2.1v-2.1h2.1V47z M714.2,47h-2.1v-2.1h2.1V47z"/>
		</g>
	</g>
	<g>
		<g>
			<path class="st3" d="M753.7,25.6h-8.5c-0.6,0-1.1,0.5-1.1,1.1V31c0,0.6,0.5,1.1,1.1,1.1h8.5c0.6,0,1.1-0.5,1.1-1.1v-4.3
				C754.7,26.1,754.3,25.6,753.7,25.6z M748.3,29.9h-2.1v-2.1h2.1V29.9z M752.6,29.9h-2.1v-2.1h2.1V29.9z"/>
		</g>
	</g>
	<g>
		<g>
			<path class="st3" d="M753.7,17.1h-8.5c-0.6,0-1.1,0.5-1.1,1.1v4.3c0,0.6,0.5,1.1,1.1,1.1h8.5c0.6,0,1.1-0.5,1.1-1.1v-4.3
				C754.7,17.5,754.3,17.1,753.7,17.1z M748.3,21.3h-2.1v-2.1h2.1V21.3z M752.6,21.3h-2.1v-2.1h2.1V21.3z"/>
		</g>
	</g>
	<g>
		<g>
			<path class="st3" d="M728.1,29.9h-4.3c-0.6,0-1.1,0.5-1.1,1.1v4.3c0,0.6,0.5,1.1,1.1,1.1h4.3c0.6,0,1.1-0.5,1.1-1.1V31
				C729.1,30.3,728.7,29.9,728.1,29.9z M727,34.1h-2.1V32h2.1V34.1z"/>
		</g>
	</g>
	<g>
		<g>
			<path class="st3" d="M736.6,29.9h-4.3c-0.6,0-1.1,0.5-1.1,1.1v4.3c0,0.6,0.5,1.1,1.1,1.1h4.3c0.6,0,1.1-0.5,1.1-1.1V31
				C737.7,30.3,737.2,29.9,736.6,29.9z M735.5,34.1h-2.1V32h2.1V34.1z"/>
		</g>
	</g>
	<g>
		<g>
			<path class="st3" d="M728.1,21.3h-4.3c-0.6,0-1.1,0.5-1.1,1.1v4.3c0,0.6,0.5,1.1,1.1,1.1h4.3c0.6,0,1.1-0.5,1.1-1.1v-4.3
				C729.1,21.8,728.7,21.3,728.1,21.3z M727,25.6h-2.1v-2.1h2.1V25.6z"/>
		</g>
	</g>
	<g>
		<g>
			<path class="st3" d="M736.6,21.3h-4.3c-0.6,0-1.1,0.5-1.1,1.1v4.3c0,0.6,0.5,1.1,1.1,1.1h4.3c0.6,0,1.1-0.5,1.1-1.1v-4.3
				C737.7,21.8,737.2,21.3,736.6,21.3z M735.5,25.6h-2.1v-2.1h2.1V25.6z"/>
		</g>
	</g>
	<g>
		<g>
			<path class="st3" d="M728.1,12.8h-4.3c-0.6,0-1.1,0.5-1.1,1.1v4.3c0,0.6,0.5,1.1,1.1,1.1h4.3c0.6,0,1.1-0.5,1.1-1.1v-4.3
				C729.1,13.3,728.7,12.8,728.1,12.8z M727,17.1h-2.1V15h2.1V17.1z"/>
		</g>
	</g>
	<g>
		<g>
			<path class="st3" d="M736.6,12.8h-4.3c-0.6,0-1.1,0.5-1.1,1.1v4.3c0,0.6,0.5,1.1,1.1,1.1h4.3c0.6,0,1.1-0.5,1.1-1.1v-4.3
				C737.7,13.3,737.2,12.8,736.6,12.8z M735.5,17.1h-2.1V15h2.1V17.1z"/>
		</g>
	</g>
	<g>
		<g>
			<path class="st3" d="M728.1,42.8h-4.3c-0.6,0-1.1,0.5-1.1,1.1v4.2c0,0.6,0.5,1.1,1.1,1.1h4.3c0.6,0,1.1-0.5,1.1-1.1v-4.3
				C729.1,43.2,728.7,42.8,728.1,42.8z M727,47h-2.1v-2.1h2.1V47z"/>
		</g>
	</g>
	<g>
		<g>
			<rect x="705.6" y="51.3" class="st3" width="2.1" height="2.1"/>
		</g>
	</g>
	<g>
		<g>
			<rect x="709.9" y="51.3" class="st3" width="2.1" height="2.1"/>
		</g>
	</g>
	<g>
		<g>
			<rect x="714.2" y="51.3" class="st3" width="2.1" height="2.1"/>
		</g>
	</g>
	<g>
		<g>
			<path class="st3" d="M764.3,38.4H759V13.9c0-0.6-0.5-1.1-1.1-1.1h-7.5v-1.7l1.1-1.1c0.9,0.7,2,1.1,3.1,1.1c1.4,0,2.7-0.5,3.7-1.5
				l0.2-0.2c0.4-0.4,0.4-1.1,0-1.5l-2.4-2.4l2.4-2.4L757,1.6L754.6,4l-3.5-3.5c-0.2-0.2-0.5-0.3-0.8-0.3c-0.4,0-0.7,0.2-0.9,0.4
				c-1.1,1-1.7,2.3-1.7,3.7s0.5,2.9,1.6,3.9l0.5,0.5l-1.4,1.4c-0.2,0.2-0.3,0.5-0.3,0.8V13h-6.4V9.6c0-0.6-0.5-1.1-1.1-1.1h-3.7
				l-6.1-8.1c-0.4-0.5-1.3-0.5-1.7,0L723,8.5h-3.7c-0.6,0-1.1,0.5-1.1,1.1v11.7h-6.4v-8.5h-2.1v8.5h-7.5c-0.6,0-1.1,0.5-1.1,1.1V63
				c0,0.6,0.5,1.1,1.1,1.1h17.1h7.5h8.5h1.1h6.4h17.1c2.9,0,5.3-2.4,5.3-5.3V39.6C765.4,38.9,764.9,38.4,764.3,38.4z M718.5,62
				h-14.9V23.5h14.9V62z M750.5,2.6l5.8,5.8c-1.2,0.7-2.8,0.6-3.9-0.5l-1.5-1.5c-0.6-0.6-1-1.4-0.9-2.3
				C750.1,3.6,750.2,3.1,750.5,2.6z M730.2,2.8l4.3,5.7H726L730.2,2.8z M725.9,53.4v8.5h-5.3V22.4V10.7h19.2v3.2v19.2h2.1V14.9h14.9
				v23.5h-2.1v-1.1c0-1.8-1.4-3.2-3.2-3.2h-6.4c-1.8,0-3.2,1.4-3.2,3.2v1.1h-9.6c-0.6,0-1.1,0.5-1.1,1.1v11.7h-8.5v2.1h3.2
				L725.9,53.4L725.9,53.4z M752.6,37.3v1.1h-8.5v-1.1c0-0.6,0.5-1.1,1.1-1.1h6.4C752.1,36.3,752.6,36.7,752.6,37.3z M728.1,62v-8.5
				h3.2v5.3c0,1.2,0.4,2.3,1.1,3.2H728.1z M763.3,58.8c0,1.8-1.4,3.2-3.2,3.2H743h-6.4c-1.8,0-3.2-1.4-3.2-3.2V48.1
				c0.9,0.7,2,1.1,3.2,1.1h1.1v3.2c0,0.6,0.5,1.1,1.1,1.1h4.3c0.6,0,1.1-0.5,1.1-1.1v-3.2h1.1h6.4h1.1v3.2c0,0.6,0.5,1.1,1.1,1.1
				h4.3c0.6,0,1.1-0.5,1.1-1.1v-3.2h1.1c1.2,0,2.3-0.4,3.2-1.1v10.7H763.3z M739.8,51.3v-2.1h2.1v2.1H739.8z M746.2,47v-2.1h4.3V47
				H746.2z M754.7,51.3v-2.1h2.1v2.1H754.7z M763.3,43.8c0,1.8-1.4,3.2-3.2,3.2H758h-4.3h-1.1v-3.2c0-0.6-0.5-1.1-1.1-1.1h-6.4
				c-0.6,0-1.1,0.5-1.1,1.1V47h-1.1h-4.3h-2.1c-1.8,0-3.2-1.4-3.2-3.2v-3.2h29.9L763.3,43.8L763.3,43.8z"/>
		</g>
	</g>
	<g>
		<g>
			<rect x="759" y="57.7" class="st3" width="2.1" height="2.1"/>
		</g>
	</g>
	<g>
		<g>
			<rect x="754.7" y="57.7" class="st3" width="2.1" height="2.1"/>
		</g>
	</g>
	<g>
		<g>
			<rect x="750.5" y="57.7" class="st3" width="2.1" height="2.1"/>
		</g>
	</g>
</g>
<g>
	<g>
		<path class="st1" d="M219.7,209.9v-1.1c2.2-0.9,3.3-2.5,3.3-4.8v-2.8h-3V200h3v-3.8c0-1.6,0.4-3,1.3-4c0.9-1,2-1.5,3.5-1.5
			c0.8,0,1.6,0.2,2.4,0.5v1.2c-0.8-0.4-1.6-0.6-2.4-0.6c-1.1,0-1.9,0.4-2.6,1.2c-0.6,0.8-0.9,1.9-0.9,3.4v3.6h4v1.2h-4v2.3
			c0,2.6-0.9,4.3-2.8,5.3h9.7v1.1H219.7z"/>
	</g>
</g>
<g>
	<g id="椭圆_7_1_">
		<path class="st1" d="M572.9,196.8c-10.8,0-19.5-8.7-19.5-19.5s8.7-19.5,19.5-19.5s19.5,8.7,19.5,19.5S583.7,196.8,572.9,196.8z
			 M572.9,158.8c-10.2,0-18.5,8.3-18.5,18.5s8.3,18.5,18.5,18.5s18.5-8.3,18.5-18.5S583.1,158.8,572.9,158.8z"/>
	</g>
	<g>
		<g>
			<path class="st1" d="M567.2,186.9v-1.1c2.2-0.9,3.3-2.5,3.3-4.8v-2.8h-3V177h3v-3.8c0-1.6,0.4-3,1.3-4c0.9-1,2-1.5,3.5-1.5
				c0.8,0,1.6,0.2,2.4,0.5v1.2c-0.8-0.4-1.6-0.6-2.4-0.6c-1.1,0-1.9,0.4-2.6,1.2c-0.6,0.8-0.9,1.9-0.9,3.4v3.6h4v1.2h-4v2.3
				c0,2.6-0.9,4.3-2.8,5.3h9.7v1.1H567.2z"/>
		</g>
	</g>
</g>
<g>
	<path class="st3" d="M729.9,249.1v-1.8c1.9-0.6,2.9-1.8,2.9-3.7v-2.2h-2.6v-1.8h2.6v-3c0-1.5,0.4-2.8,1.4-3.7c1-1,2.2-1.5,3.6-1.5
		c1,0,1.9,0.1,2.8,0.6v2.1c-0.8-0.6-1.8-0.7-2.6-0.7c-1.9,0-2.9,1.2-2.9,3.6v2.8h3.9v1.8H735v1.8c0,1.9-0.8,3.2-2.3,4.1h8.9v1.8
		H729.9z"/>
</g>
</svg>
