<?xml version="1.0" encoding="utf-8"?>
<!-- Generator: Adobe Illustrator 22.1.0, SVG Export Plug-In . SVG Version: 6.00 Build 0)  -->
<svg version="1.1" id="图层_1" xmlns="http://www.w3.org/2000/svg" xmlns:xlink="http://www.w3.org/1999/xlink" x="0px" y="0px"
	 viewBox="0 0 70 70" style="enable-background:new 0 0 70 70;" xml:space="preserve">
<style type="text/css">
	.st0{fill:#FFFFFF;}
</style>
<path class="st0" d="M35,0C15.7,0,0,15.7,0,35s15.7,35,35,35s35-15.7,35-35S54.3,0,35,0z M35,65C18.5,65,5,51.5,5,35S18.5,5,35,5
	s30,13.4,30,30S51.5,65,35,65z"/>
<path class="st0" d="M25.4,45c0,2.8,2,3.9,4.3,2.5l17.2-9.9c2.4-1.4,2.4-3.6,0-5l-17.2-10c-2.4-1.4-4.3-0.3-4.3,2.5L25.4,45z"/>
</svg>
