<?xml version="1.0" encoding="utf-8"?>
<!-- Generator: Adobe Illustrator 22.1.0, SVG Export Plug-In . SVG Version: 6.00 Build 0)  -->
<svg version="1.1" id="图层_1" xmlns="http://www.w3.org/2000/svg" xmlns:xlink="http://www.w3.org/1999/xlink" x="0px" y="0px"
	 viewBox="0 0 194 199" style="enable-background:new 0 0 194 199;" xml:space="preserve">
<style type="text/css">
	.st0{fill:#C4C3C1;}
	.st1{fill:#D5D4D2;}
	.st2{fill:#C9C8C7;}
	.st3{fill:#F8F9F9;}
	.st4{fill:#F0F0F0;}
	.st5{fill:#007C70;}
	.st6{fill:#FFFFFF;}
</style>
<g>
	<g>
		<g>
			<polygon class="st0" points="47.8,124 47.8,145.6 0.4,121.1 0.5,99.5 			"/>
		</g>
	</g>
	<g>
		<g>
			<g>
				
					<rect x="85.3" y="86.7" transform="matrix(3.558394e-03 -1 1 3.558394e-03 -39.235 230.6023)" class="st1" width="21.6" height="96.6"/>
			</g>
		</g>
		<g>
			<polygon class="st2" points="193.7,100.3 193.6,121.9 144.3,146 144.4,124.4 			"/>
		</g>
		<g>
			<g>
				<polygon class="st3" points="193.7,100.3 144.4,124.4 47.8,124 0.5,99.5 49.8,75.4 146.3,75.8 				"/>
			</g>
		</g>
		<g>
			<g>
				<polygon class="st4" points="155.5,185 127,199 71,198.7 43.5,184.5 72.1,170.6 128.1,170.8 				"/>
			</g>
		</g>
		<ellipse class="st4" cx="97.1" cy="99.9" rx="40.2" ry="4.9"/>
	</g>
</g>
<g>
	<circle class="st5" cx="97.1" cy="41.6" r="41.6"/>
</g>
<g>
	<g>
		<path class="st6" d="M116.5,55.2v-5.8c0-1.1-0.9-1.9-1.9-1.9h-35c-1.1,0-1.9,0.9-1.9,1.9v5.8H116.5z"/>
		<rect x="77.7" y="57.1" class="st6" width="38.9" height="1.9"/>
	</g>
	<path class="st6" d="M103.9,36.9c0.5-0.7,1.1-1.3,1.6-2.1c0.5-0.8,0.8-1.6,1-2.5c0.2-0.8,0.3-1.6,0.3-2.4c0-5.4-4.4-9.7-9.7-9.7
		c-5.4,0-9.7,4.4-9.7,9.7c0,1.3,0.3,2.7,0.8,3.9c0.3,0.6,0.6,1.2,0.9,1.7c0.3,0.4,0.7,0.8,1,1.1c0.3,0.4,0.5,0.8,0.6,1.2
		c0.9,2.6,0,5.4-1.8,7.3c-0.2,0.2-0.5,0.5-0.7,0.7h8H98c0,0,8,0,8,0c-0.1,0-0.3-0.2-0.3-0.3c-0.3-0.3-0.5-0.5-0.8-0.8
		c-0.8-0.9-1.3-2-1.6-3.1c-0.3-1.1-0.3-2.4,0.1-3.5C103.5,37.6,103.7,37.3,103.9,36.9z M97.3,23.5C97.2,23.5,97.2,23.5,97.3,23.5
		c-0.3,0-6,0.1-6.5,6.6c0,0.3-0.2,0.4-0.5,0.4c0,0,0,0,0,0c-0.3,0-0.5-0.3-0.4-0.5c0.6-7.5,7.4-7.5,7.5-7.5c0.3,0,0.5,0.2,0.5,0.5
		C97.7,23.2,97.5,23.5,97.3,23.5z"/>
</g>
</svg>
