<?xml version="1.0" encoding="utf-8"?>
<!-- Generator: Adobe Illustrator 22.1.0, SVG Export Plug-In . SVG Version: 6.00 Build 0)  -->
<svg version="1.1" id="OBJECTS" xmlns="http://www.w3.org/2000/svg" xmlns:xlink="http://www.w3.org/1999/xlink" x="0px" y="0px"
	 viewBox="0 0 430 266" style="enable-background:new 0 0 430 266;" xml:space="preserve">
<style type="text/css">
	.st0{fill:#00A99D;}
	.st1{fill:#EDB32D;}
	.st2{fill:#FFFFFF;}
	.st3{fill:#00A198;}
	.st4{fill:#007F7B;}
	.st5{fill:#005956;}
</style>
<g>
	<g>
		<path class="st0" d="M250,234.3c15.8-9.3,31.7-18.5,47.5-27.8c1-0.6,0.1-2.2-0.9-1.6c-15.8,9.3-31.7,18.5-47.5,27.8
			C248.1,233.4,249,234.9,250,234.3L250,234.3z"/>
	</g>
</g>
<g>
	<g>
		<path class="st0" d="M130.6,206.5c15.9,9.3,31.8,18.6,47.8,27.9c1,0.6,1.9-1,0.9-1.6c-15.9-9.3-31.8-18.6-47.8-27.9
			C130.5,204.3,129.6,205.9,130.6,206.5L130.6,206.5z"/>
	</g>
</g>
<g>
	<g>
		<path class="st0" d="M184,40.1c-14.1,8.2-28.1,16.5-42.2,24.7c-1,0.6-0.1,2.2,0.9,1.6c14.1-8.2,28.1-16.5,42.2-24.7
			C185.9,41.1,185,39.5,184,40.1L184,40.1z"/>
	</g>
</g>
<g>
	<g>
		<path class="st0" d="M385.4,122.1c-16.7-9.7-33.4-19.4-50.1-29.1c-1-0.6-1.9,1-0.9,1.6c16.7,9.7,33.4,19.4,50.1,29.1
			C385.5,124.2,386.4,122.6,385.4,122.1L385.4,122.1z"/>
	</g>
</g>
<g>
	<g>
		<path class="st0" d="M339.2,182.2c15.4-9,30.8-18,46.2-27.1c1-0.6,0.1-2.2-0.9-1.6c-15.4,9-30.8,18-46.2,27.1
			C337.3,181.2,338.2,182.8,339.2,182.2L339.2,182.2z"/>
	</g>
</g>
<g>
	<g>
		<path class="st1" d="M238.5,153.9c1.2,0,1.2-1.8,0-1.8C237.3,152.1,237.3,153.9,238.5,153.9L238.5,153.9z"/>
	</g>
</g>
<g>
	<g>
		<g>
			<path class="st0" d="M287.6,180.5c-16.2-9.5-32.4-18.9-48.6-28.4c-1-0.6-1.9,1-0.9,1.6c16.2,9.5,32.4,18.9,48.6,28.4
				C287.7,182.7,288.6,181.1,287.6,180.5L287.6,180.5z"/>
		</g>
	</g>
	<g>
		<g>
			<path class="st0" d="M289,93.8c-13.4,7.9-26.9,15.7-40.3,23.6c-1,0.6-0.1,2.2,0.9,1.6c13.4-7.9,26.9-15.7,40.3-23.6
				C291,94.8,290.1,93.2,289,93.8L289,93.8z"/>
		</g>
	</g>
	<g>
		<g>
			<path class="st0" d="M179.4,117.4c-12.6-7.4-25.3-14.8-37.9-22.3c-1-0.6-2,1-0.9,1.6c12.6,7.4,25.3,14.8,37.9,22.3
				C179.5,119.6,180.5,118,179.4,117.4L179.4,117.4z"/>
		</g>
	</g>
	<g>
		<g>
			<path class="st0" d="M144,180.8c14.9-8.7,29.7-17.4,44.6-26.1c1-0.6,0.1-2.2-0.9-1.6c-14.9,8.7-29.7,17.4-44.6,26.1
				C142.1,179.8,143,181.4,144,180.8L144,180.8z"/>
		</g>
	</g>
</g>
<g>
	<g>
		<path class="st0" d="M38.9,152c16.1,9.7,32.3,19.4,48.4,29.1c1,0.6,1.9-1,0.9-1.6c-16.1-9.7-32.3-19.4-48.4-29.1
			C38.8,149.8,37.9,151.4,38.9,152L38.9,152z"/>
	</g>
</g>
<g>
	<g>
		<path class="st0" d="M90.5,93.8C76,102.4,61.5,111,47,119.6c-1,0.6-0.1,2.2,0.9,1.6c14.5-8.6,29-17.2,43.5-25.8
			C92.5,94.8,91.5,93.2,90.5,93.8L90.5,93.8z"/>
	</g>
</g>
<g>
	<g>
		<path class="st0" d="M243.6,41.7c12.2,7.1,24.5,14.3,36.7,21.4c1,0.6,1.9-1,0.9-1.6c-12.2-7.1-24.5-14.3-36.7-21.4
			C243.5,39.5,242.6,41.1,243.6,41.7L243.6,41.7z"/>
	</g>
</g>
<g>
	<g>
		<g>
			<g>
				<path class="st0" d="M212.9,151.3c0,1.4,0,2.9,0,4.3c0,1.2,1.9,1.2,1.9,0c0-1.4,0-2.9,0-4.3
					C214.8,150.1,212.9,150.1,212.9,151.3L212.9,151.3z"/>
			</g>
		</g>
		<g>
			<g>
				<path class="st0" d="M212.9,101.6c0,1.4,0,2.9,0,4.3c0,1.2,1.9,1.2,1.9,0c0-1.4,0-2.9,0-4.3
					C214.8,100.4,212.9,100.4,212.9,101.6L212.9,101.6z"/>
			</g>
		</g>
	</g>
	<g>
		<g>
			<g>
				<path class="st0" d="M191.2,127.9c-1.4,0-2.9,0-4.3,0c-1.2,0-1.2,1.9,0,1.9c1.4,0,2.9,0,4.3,0
					C192.4,129.8,192.4,127.9,191.2,127.9L191.2,127.9z"/>
			</g>
		</g>
		<g>
			<g>
				<path class="st0" d="M240.9,127.9c-1.4,0-2.9,0-4.3,0c-1.2,0-1.2,1.9,0,1.9c1.4,0,2.9,0,4.3,0
					C242.1,129.8,242.1,127.9,240.9,127.9L240.9,127.9z"/>
			</g>
		</g>
	</g>
	<g>
		<g>
			<g>
				<path class="st0" d="M198.5,112.1c-1-1-2-2-3.1-3.1c-0.9-0.9-2.2,0.5-1.3,1.3c1,1,2,2,3.1,3.1C198,114.3,199.4,113,198.5,112.1
					L198.5,112.1z"/>
			</g>
		</g>
		<g>
			<g>
				<path class="st0" d="M233.7,147.3c-1-1-2-2-3.1-3.1c-0.9-0.9-2.2,0.5-1.3,1.3c1,1,2,2,3.1,3.1
					C233.2,149.5,234.5,148.2,233.7,147.3L233.7,147.3z"/>
			</g>
		</g>
	</g>
	<g>
		<g>
			<g>
				<path class="st0" d="M230.6,113.5c1-1,2-2,3.1-3.1c0.9-0.9-0.5-2.2-1.3-1.3c-1,1-2,2-3.1,3.1C228.4,113,229.7,114.3,230.6,113.5
					L230.6,113.5z"/>
			</g>
		</g>
		<g>
			<g>
				<path class="st0" d="M195.4,148.6c1-1,2-2,3.1-3.1c0.9-0.9-0.5-2.2-1.3-1.3c-1,1-2,2-3.1,3.1
					C193.2,148.2,194.6,149.5,195.4,148.6L195.4,148.6z"/>
			</g>
		</g>
	</g>
	<g>
		<g>
			<g>
				<path class="st0" d="M223.5,108.1c0.6-1.3,1.1-2.7,1.7-4c0.5-1.1-1.4-1.6-1.8-0.5c-0.6,1.3-1.1,2.7-1.7,4
					C221.2,108.8,223,109.3,223.5,108.1L223.5,108.1z"/>
			</g>
		</g>
		<g>
			<g>
				<path class="st0" d="M204.4,154.1c0.6-1.3,1.1-2.7,1.7-4c0.5-1.1-1.4-1.6-1.8-0.5c-0.6,1.3-1.1,2.7-1.7,4
					C202.1,154.7,204,155.2,204.4,154.1L204.4,154.1z"/>
			</g>
		</g>
	</g>
	<g>
		<g>
			<g>
				<path class="st0" d="M234.6,138.5c1.3,0.6,2.7,1.1,4,1.7c1.1,0.5,1.6-1.4,0.5-1.8c-1.3-0.6-2.7-1.1-4-1.7
					C234,136.2,233.5,138,234.6,138.5L234.6,138.5z"/>
			</g>
		</g>
		<g>
			<g>
				<path class="st0" d="M188.7,119.4c1.3,0.6,2.7,1.1,4,1.7c1.1,0.5,1.6-1.4,0.5-1.8c-1.3-0.6-2.7-1.1-4-1.7
					C188.1,117.1,187.6,119,188.7,119.4L188.7,119.4z"/>
			</g>
		</g>
	</g>
	<g>
		<g>
			<g>
				<path class="st0" d="M192.7,136.6c-1.3,0.5-2.7,1.1-4,1.6c-1.1,0.5-0.6,2.3,0.5,1.8c1.3-0.6,2.7-1.1,4-1.6
					C194.3,138,193.8,136.2,192.7,136.6L192.7,136.6z"/>
			</g>
		</g>
		<g>
			<g>
				<path class="st0" d="M238.6,117.6c-1.3,0.6-2.7,1.1-4,1.7c-1.1,0.5-0.6,2.3,0.5,1.8c1.3-0.5,2.7-1.1,4-1.7
					C240.2,119,239.7,117.2,238.6,117.6L238.6,117.6z"/>
			</g>
		</g>
	</g>
	<g>
		<g>
			<g>
				<path class="st0" d="M206.1,107.6c-0.6-1.3-1.1-2.7-1.7-4c-0.5-1.1-2.3-0.6-1.8,0.5c0.6,1.3,1.1,2.7,1.7,4
					C204.7,109.3,206.6,108.8,206.1,107.6L206.1,107.6z"/>
			</g>
		</g>
		<g>
			<g>
				<path class="st0" d="M225.2,153.6c-0.6-1.3-1.1-2.7-1.7-4c-0.5-1.1-2.3-0.6-1.8,0.5c0.6,1.3,1.1,2.7,1.7,4
					C223.8,155.2,225.6,154.7,225.2,153.6L225.2,153.6z"/>
			</g>
		</g>
	</g>
	<g>
		<g>
			<path class="st0" d="M234.7,128.9c-0.4,11.3-9.2,20.8-20.8,20.8c-11.3,0-20.8-9.4-20.8-20.8c0-11.3,9.4-20.8,20.8-20.8
				C225.5,108.1,234.2,117.6,234.7,128.9c0,1.2,2,1.2,1.9,0c-0.5-12.4-10-22.6-22.7-22.7c-12.3,0-22.7,10.4-22.7,22.7
				s10.3,22.7,22.7,22.7c12.7,0,22.2-10.3,22.7-22.7C236.6,127.6,234.7,127.6,234.7,128.9z"/>
		</g>
	</g>
	<g>
		<g>
			<path class="st0" d="M241.2,128.9c-0.4,14.9-12.1,27.3-27.3,27.3c-15,0-27.2-12.5-27.3-27.3c-0.1-14.6,12-26.8,26.5-27.3
				C228.6,101.1,240.8,113.7,241.2,128.9c0,1.2,2,1.2,1.9,0c-0.8-26.7-34.8-39.8-52.1-18.3c-16.4,20.4,1.6,51.2,27.3,47.2
				c14.4-2.3,24.3-14.6,24.8-28.9C243.2,127.7,241.3,127.7,241.2,128.9z"/>
		</g>
	</g>
</g>
<g>
	<g>
		<path class="st0" d="M202.8,23.5c0-9.2-0.8-21.7,12-21.7c12.9,0,12,12.6,12,21.7c0,1.2,1.8,1.2,1.8,0c0-4.2,0.5-8.8-0.4-12.9
			C226.9,4.1,221.4,0,214.8,0c-6.2,0-11.7,3.6-13.3,9.8c-1.1,4.3-0.5,9.3-0.5,13.8C200.9,24.7,202.8,24.7,202.8,23.5L202.8,23.5z"/>
	</g>
</g>
<g>
	<path class="st0" d="M231.2,48.4h-33c-0.2,0-0.4-0.2-0.4-0.4V22.5c0-0.2,0.2-0.4,0.4-0.4h33c0.2,0,0.4,0.2,0.4,0.4v25.6
		C231.6,48.3,231.4,48.4,231.2,48.4z"/>
	<path class="st0" d="M231.2,49.7h-33c-0.9,0-1.6-0.7-1.6-1.6V22.5c0-0.9,0.7-1.6,1.6-1.6h33c0.9,0,1.6,0.7,1.6,1.6v25.6
		C232.8,48.9,232.1,49.7,231.2,49.7z M199,47.2h31.3V23.3H199V47.2z"/>
</g>
<g>
	<path class="st2" d="M219,32.4c0-2.3-1.9-4.1-4.1-4.1c-2.3,0-4.1,1.9-4.1,4.1c0,1.6,0.9,2.9,2.2,3.6l-1.1,6.2h2.9h0.4h2.9L217,36
		C218.1,35.3,219,34,219,32.4z"/>
</g>
<g>
	<path class="st0" d="M126,177.9H95.1c-1.5,0-2.7,1.2-2.7,2.7v20.7c0,1.5,1.2,2.7,2.7,2.7h12.1v2.5H96.4c-0.8,0-1.5,0.7-1.5,1.5
		s0.7,1.5,1.5,1.5h28.7c0.8,0,1.5-0.7,1.5-1.5s-0.7-1.5-1.5-1.5h-9.9V204H126c1.5,0,2.7-1.2,2.7-2.7v-20.7
		C128.7,179.1,127.5,177.9,126,177.9z M125.5,199.8c0,0.2-0.2,0.4-0.4,0.4h-29c-0.2,0-0.4-0.2-0.4-0.4v-17.6c0-0.2,0.2-0.4,0.4-0.4
		H125c0.2,0,0.4,0.2,0.4,0.4L125.5,199.8L125.5,199.8z"/>
</g>
<g>
	<g>
		<path class="st3" d="M134.2,77.2c0,10.2-8.2,18.4-18.4,18.4s-18.4-8.2-18.4-18.4s8.2-18.4,18.4-18.4C126,58.8,134.2,67,134.2,77.2
			z"/>
	</g>
</g>
<g>
	<g>
		<path class="st3" d="M328.5,77.2c0,10.2-8.2,18.4-18.4,18.4s-18.4-8.2-18.4-18.4s8.2-18.4,18.4-18.4S328.5,67,328.5,77.2z"/>
	</g>
</g>
<g>
	<path class="st0" d="M331.3,183.7c-2.7,0-4.8,2.2-4.8,4.8c0,2.7,2.2,4.8,4.8,4.8c2.7,0,4.8-2.2,4.8-4.8
		C336.1,185.8,333.9,183.7,331.3,183.7z M304,183.7c-2.7,0-4.8,2.2-4.8,4.8c0,2.7,2.2,4.8,4.8,4.8c2.7,0,4.8-2.2,4.8-4.8
		C308.8,185.8,306.6,183.7,304,183.7z M317.6,174c-3.9,0-7.1,3.2-7.1,7.1c0,3.9,3.2,7.1,7.1,7.1s7.1-3.2,7.1-7.1
		C324.8,177.2,321.6,174,317.6,174z M339,203.5h-8.4v-2.2c0-2.1-0.6-4.1-1.5-5.8c0.7-0.2,1.4-0.3,2.2-0.3c4.2,0,7.7,3.5,7.7,7.7
		L339,203.5L339,203.5z M304.7,201.3v2.2h-8.4v-0.7c0-4.2,3.5-7.7,7.7-7.7c0.8,0,1.5,0.1,2.2,0.3
		C305.2,197.3,304.7,199.2,304.7,201.3z M306.5,203.9h22.3v-2.6c0-6.2-5-11.2-11.2-11.2s-11.2,5-11.2,11.2v2.6H306.5z"/>
</g>
<g id="XMLID_63_">
	<polygon class="st0" points="215.8,122.9 218.1,122.9 218.1,119.4 224,119.4 224,138.6 218.2,138.6 218.2,133.2 222,133.2 222,125 
		206,125 206,133.2 209.8,133.2 209.8,138.6 203.9,138.6 203.9,119.4 209.8,119.4 209.8,122.9 212.2,122.9 212.2,117 201.5,117 
		201.5,141.1 212.2,141.1 212.2,130.8 208.5,130.8 208.5,127.5 219.5,127.5 219.5,130.8 215.8,130.8 215.8,141 226.5,141 226.5,117 
		215.8,117 	"/>
</g>
<g>
	<polygon class="st0" points="96.9,182.3 96.9,182.3 96.9,182.3 	"/>
</g>
<g>
	<rect x="95.1" y="181.3" class="st0" width="31.3" height="19.9"/>
</g>
<g>
	<g>
		<path class="st2" d="M100.6,197c-0.2,0-0.3-0.1-0.5-0.2c-0.2-0.3-0.2-0.6,0.1-0.9l5.8-5.1l6.5,3.7l5.6-6.7
			c0.2-0.3,0.6-0.3,0.9-0.1s0.3,0.6,0.1,0.9l-6.3,7.5l-6.7-3.8l-5.2,4.5C100.8,197,100.7,197,100.6,197z"/>
	</g>
	<g>
		<g>
			<polygon class="st2" points="115.7,186.4 121,190.9 120.6,186 			"/>
		</g>
	</g>
</g>
<g>
	<g>
		<polygon class="st4" points="43.3,121.3 43.3,145.1 21.7,157.7 21.7,133.9 		"/>
	</g>
</g>
<g>
	<g>
		<polygon class="st5" points="21.7,133.9 21.7,157.7 -0.1,145.1 0,121.3 		"/>
	</g>
</g>
<g>
	<g>
		<polygon class="st0" points="43.3,121.3 21.7,133.9 0,121.3 21.6,108.8 		"/>
	</g>
</g>
<g>
	<g>
		<path class="st2" d="M109.7,86.1v-2.7c1.7-0.4,2.5-1.5,2.5-3.2v-1.5H110V76h2.3v-2.3c0-1.6,0.5-2.9,1.5-3.9s2.4-1.5,4.1-1.5
			c1,0,2,0.2,2.9,0.6V72c-0.8-0.5-1.7-0.8-2.7-0.8c-1.6,0-2.4,0.9-2.4,2.8v2h3.5v2.6h-3.5v1.1c0,1.5-0.6,2.6-1.8,3.5h8v2.9H109.7z"
			/>
	</g>
</g>
<g>
	<g>
		<path class="st2" d="M304,86.1v-2.7c1.7-0.4,2.5-1.5,2.5-3.2v-1.5h-2.2V76h2.3v-2.3c0-1.6,0.5-2.9,1.5-3.9s2.4-1.5,4.1-1.5
			c1,0,2,0.2,2.9,0.6V72c-0.8-0.5-1.7-0.8-2.7-0.8c-1.6,0-2.4,0.9-2.4,2.8v2h3.5v2.6H310v1.1c0,1.5-0.6,2.6-1.8,3.5h8v2.9H304z"/>
	</g>
</g>
<g>
	<g>
		<path class="st2" d="M14.5,149.6l-2.6-1.5l0.1-5.8l-5.2-3l-0.1,5.8L4,143.5l0.2-14.2l2.6,1.5l-0.1,5.7l5.2,3l0.1-5.7l2.6,1.5
			L14.5,149.6z"/>
	</g>
</g>
<g>
	<g>
		<polygon class="st4" points="238.9,229.8 238.8,253.6 217.2,266.1 217.3,242.3 		"/>
	</g>
</g>
<g>
	<g>
		<polygon class="st5" points="217.3,242.3 217.2,266.1 195.5,253.6 195.6,229.8 		"/>
	</g>
</g>
<g>
	<g>
		<polygon class="st0" points="238.9,229.8 217.3,242.3 195.6,229.8 217.1,217.2 		"/>
	</g>
</g>
<g>
	<g>
		<polygon class="st4" points="430,126.1 429.9,149.9 408.3,162.4 408.4,138.7 		"/>
	</g>
</g>
<g>
	<g>
		<polygon class="st5" points="408.4,138.7 408.3,162.4 386.6,149.9 386.7,126.1 		"/>
	</g>
</g>
<g>
	<g>
		<polygon class="st0" points="430,126.1 408.4,138.7 386.7,126.1 408.3,113.6 		"/>
	</g>
</g>
<g>
	<g>
		<path class="st2" d="M210.3,229.9c0-1.6,0.6-2.9,1.9-3.9c1.3-1,3-1.5,5.1-1.5c2,0,3.6,0.5,4.9,1.4c1.2,1,1.8,2.2,1.8,3.7
			c0,1.6-0.6,2.9-1.9,3.8c-1.3,1-2.9,1.5-5,1.5c-2,0-3.7-0.5-4.9-1.4C211,232.6,210.3,231.4,210.3,229.9z M213.5,229.8
			c0,1,0.3,1.8,1,2.4c0.7,0.6,1.6,0.9,2.7,0.9c1.2,0,2.1-0.3,2.7-0.9c0.7-0.6,1-1.4,1-2.4c0-1.1-0.3-1.9-1-2.5
			c-0.6-0.6-1.5-0.9-2.7-0.9s-2.1,0.3-2.8,0.9C213.8,228,213.5,228.8,213.5,229.8z"/>
	</g>
</g>
<g>
	<g>
		<path class="st2" d="M424.4,137.4l-3.8,2.2l0.1,12.6l-2.8,1.6l-0.1-12.6l-3.8,2.2v-2.6l10.4-6L424.4,137.4z"/>
	</g>
</g>
</svg>
