<?xml version="1.0" encoding="utf-8"?>
<!-- Generator: Adobe Illustrator 23.0.0, SVG Export Plug-In . SVG Version: 6.00 Build 0)  -->
<svg version="1.1" id="租金分红" xmlns="http://www.w3.org/2000/svg" xmlns:xlink="http://www.w3.org/1999/xlink" x="0px"
	 y="0px" viewBox="0 0 608 523" style="enable-background:new 0 0 608 523;" xml:space="preserve">
<style type="text/css">
	.st0{fill:none;stroke:#90A7AB;}
	.st1{fill:#9FE7DD;stroke:#34B9A1;stroke-width:2;}
	.st2{enable-background:new    ;}
	.st3{fill:#456E68;}
	.st4{fill:none;stroke:#456E68;stroke-width:1.5;stroke-miterlimit:10;}
</style>
<g id="组_29">
	<path id="形状_1" class="st0" d="M127.8,82.9h212.5l-4.8-5.5"/>
	<path id="形状_1_拷贝_6" class="st0" d="M342.1,103.1H129.8l4.8,5.5"/>
</g>
<g id="组_29_拷贝">
	<path id="形状_1-2" class="st0" d="M497.4,213v116l5.6-4.9"/>
	<path id="形状_1_拷贝_6-2" class="st0" d="M476.6,328.7V213l-5.6,4.9"/>
</g>
<path id="形状_1_拷贝_7" class="st0" d="M381,411H168.2l4.9-5.4"/>
<circle id="椭圆_6" class="st1" cx="482" cy="97" r="96"/>
<g class="st2">
	<path class="st3" d="M510.7,379h-10v10h10V379z M507.4,385.6h-3.3v-3.3h3.3V385.6z"/>
	<path class="st3" d="M524,379h-10v10h10V379z M520.7,385.6h-3.3v-3.3h3.3V385.6z"/>
	<path class="st3" d="M510.7,392.2h-10v10h10V392.2z M507.4,398.9h-3.3v-3.3h3.3V398.9z"/>
	<path class="st3" d="M524,392.2h-10v10h10V392.2z M520.7,398.9h-3.3v-3.3h3.3V398.9z"/>
	<path class="st3" d="M510.7,415.5v-10h-10v10H510.7z M504.1,408.8h3.3v3.3h-3.3V408.8z"/>
	<path class="st3" d="M524,405.5h-10v10h10V405.5z M520.7,412.2h-3.3v-3.3h3.3V412.2z"/>
	<path class="st3" d="M534,375.6v-3.3h-3.3v-6.6h-3.3V359h-29.9v6.6h-3.3v6.6h-3.3v3.3h3.3v43.2h-13.3v-19.9h3.3v-10h-3.3v-2.5
		l-23.3-16.1l-10,6.9V372h-10v12l-3.3,2.3v2.5H431v10h3.3V419c-1.9,0.7-3.3,2.5-3.3,4.7v3.3c0,2.7,2.2,5,5,5h32.4
		c-2.6,3.2-4.2,7.2-4.2,11.6c0,10.1,8.2,18.3,18.3,18.3s18.3-8.2,18.3-18.3c0-4.4-1.6-8.5-4.2-11.6H529c2.7,0,5-2.2,5-5v-3.3
		c0-2.2-1.4-4-3.3-4.7v-43.5h3.3V375.6z M500.8,362.3H524v3.3h-23.3L500.8,362.3L500.8,362.3z M497.5,369h29.9v3.3h-29.9L497.5,369
		L497.5,369z M441,375.4h3.3v4.1l-3.3,2.3V375.4z M437.7,388.1l19.9-13.8l19.9,13.8v0.8h-39.9v-0.8H437.7z M434.3,392.2h46.5v3.3
		h-46.5V392.2z M477.5,398.9v19.9h-13.3v-16.6H451v16.6h-13.3v-19.9H477.5z M460.9,418.8h-6.6v-13.3h6.6V418.8z M482.5,458.7
		c-8.2,0-14.9-6.7-14.9-14.9s6.7-14.9,14.9-14.9s14.9,6.7,14.9,14.9S490.8,458.7,482.5,458.7z M530.7,427.1c0,0.9-0.7,1.7-1.7,1.7
		h-36c-3-2.1-6.6-3.3-10.5-3.3s-7.5,1.2-10.5,3.3h-36c-0.9,0-1.7-0.7-1.7-1.7v-3.3c0-0.9,0.7-1.7,1.7-1.7h93c0.9,0,1.7,0.7,1.7,1.7
		V427.1z M527.4,418.8h-29.9v-43.2h29.9V418.8z"/>
</g>
<g>
	<path class="st3" d="M476.6,452.5v-1.8c1.9-0.6,2.9-1.8,2.9-3.7v-2.2H477V443h2.6v-3c0-1.5,0.4-2.8,1.4-3.7c1-1,2.2-1.5,3.6-1.5
		c1,0,1.9,0.1,2.8,0.6v2.1c-0.8-0.6-1.8-0.7-2.6-0.7c-1.9,0-2.9,1.2-2.9,3.6v2.8h3.9v1.8h-4v1.8c0,1.9-0.8,3.2-2.3,4.1h8.9v1.8
		h-11.7L476.6,452.5L476.6,452.5z"/>
</g>
<g class="st2">
	<g>
		<g>
			<path class="st3" d="M54.6,391H41.9c-0.9,0-1.6,0.7-1.6,1.6v6.3c0,0.9,0.7,1.6,1.6,1.6h12.7c0.9,0,1.6-0.7,1.6-1.6v-6.3
				C56.2,391.7,55.5,391,54.6,391z M46.7,397.3h-3.2v-3.2h3.2V397.3z M53,397.3h-3.2v-3.2H53V397.3z"/>
		</g>
	</g>
	<g>
		<g>
			<path class="st3" d="M54.6,403.7H41.9c-0.9,0-1.6,0.7-1.6,1.6v6.3c0,0.9,0.7,1.6,1.6,1.6h12.7c0.9,0,1.6-0.7,1.6-1.6v-6.3
				C56.2,404.4,55.5,403.7,54.6,403.7z M46.7,410h-3.2v-3.2h3.2V410z M53,410h-3.2v-3.2H53V410z"/>
		</g>
	</g>
	<g>
		<g>
			<path class="st3" d="M54.6,416.3H41.9c-0.9,0-1.6,0.7-1.6,1.6v6.3c0,0.9,0.7,1.6,1.6,1.6h12.7c0.9,0,1.6-0.7,1.6-1.6v-6.3
				C56.2,417,55.5,416.3,54.6,416.3z M46.7,422.7h-3.2v-3.2h3.2V422.7z M53,422.7h-3.2v-3.2H53V422.7z"/>
		</g>
	</g>
	<g>
		<g>
			<path class="st3" d="M111.6,391H98.9c-0.9,0-1.6,0.7-1.6,1.6v6.3c0,0.9,0.7,1.6,1.6,1.6h12.7c0.9,0,1.6-0.7,1.6-1.6v-6.3
				C113.2,391.7,112.5,391,111.6,391z M103.7,397.3h-3.2v-3.2h3.2V397.3z M110,397.3h-3.2v-3.2h3.2V397.3z"/>
		</g>
	</g>
	<g>
		<g>
			<path class="st3" d="M111.6,378.3H98.9c-0.9,0-1.6,0.7-1.6,1.6v6.3c0,0.9,0.7,1.6,1.6,1.6h12.7c0.9,0,1.6-0.7,1.6-1.6v-6.3
				C113.2,379,112.5,378.3,111.6,378.3z M103.7,384.7h-3.2v-3.2h3.2V384.7z M110,384.7h-3.2v-3.2h3.2V384.7z"/>
		</g>
	</g>
	<g>
		<g>
			<path class="st3" d="M73.6,397.3h-6.3c-0.9,0-1.6,0.7-1.6,1.6v6.3c0,0.9,0.7,1.6,1.6,1.6h6.3c0.9,0,1.6-0.7,1.6-1.6v-6.3
				C75.2,398,74.5,397.3,73.6,397.3z M72,403.7h-3.2v-3.2H72V403.7z"/>
		</g>
	</g>
	<g>
		<g>
			<path class="st3" d="M86.3,397.3H80c-0.9,0-1.6,0.7-1.6,1.6v6.3c0,0.9,0.7,1.6,1.6,1.6h6.3c0.9,0,1.6-0.7,1.6-1.6v-6.3
				C87.8,398,87.1,397.3,86.3,397.3z M84.7,403.7h-3.2v-3.2h3.2V403.7z"/>
		</g>
	</g>
	<g>
		<g>
			<path class="st3" d="M73.6,384.7h-6.3c-0.9,0-1.6,0.7-1.6,1.6v6.3c0,0.9,0.7,1.6,1.6,1.6h6.3c0.9,0,1.6-0.7,1.6-1.6v-6.3
				C75.2,385.4,74.5,384.7,73.6,384.7z M72,391h-3.2v-3.2H72V391z"/>
		</g>
	</g>
	<g>
		<g>
			<path class="st3" d="M86.3,384.7H80c-0.9,0-1.6,0.7-1.6,1.6v6.3c0,0.9,0.7,1.6,1.6,1.6h6.3c0.9,0,1.6-0.7,1.6-1.6v-6.3
				C87.8,385.4,87.1,384.7,86.3,384.7z M84.7,391h-3.2v-3.2h3.2V391z"/>
		</g>
	</g>
	<g>
		<g>
			<path class="st3" d="M73.6,372h-6.3c-0.9,0-1.6,0.7-1.6,1.6v6.3c0,0.9,0.7,1.6,1.6,1.6h6.3c0.9,0,1.6-0.7,1.6-1.6v-6.3
				C75.2,372.7,74.5,372,73.6,372z M72,378.3h-3.2v-3.2H72V378.3z"/>
		</g>
	</g>
	<g>
		<g>
			<path class="st3" d="M86.3,372H80c-0.9,0-1.6,0.7-1.6,1.6v6.3c0,0.9,0.7,1.6,1.6,1.6h6.3c0.9,0,1.6-0.7,1.6-1.6v-6.3
				C87.8,372.7,87.1,372,86.3,372z M84.7,378.3h-3.2v-3.2h3.2V378.3z"/>
		</g>
	</g>
	<g>
		<g>
			<path class="st3" d="M73.6,416.3h-6.3c-0.9,0-1.6,0.7-1.6,1.6v6.3c0,0.9,0.7,1.6,1.6,1.6h6.3c0.9,0,1.6-0.7,1.6-1.6v-6.3
				C75.2,417,74.5,416.3,73.6,416.3z M72,422.7h-3.2v-3.2H72V422.7z"/>
		</g>
	</g>
	<g>
		<g>
			<rect x="40.3" y="429" class="st3" width="3.2" height="3.2"/>
		</g>
	</g>
	<g>
		<g>
			<rect x="46.7" y="429" class="st3" width="3.2" height="3.2"/>
		</g>
	</g>
	<g>
		<g>
			<rect x="53" y="429" class="st3" width="3.2" height="3.2"/>
		</g>
	</g>
	<g>
		<g>
			<path class="st3" d="M127.4,410h-7.9v-36.4c0-0.9-0.7-1.6-1.6-1.6h-11.1v-2.5l1.7-1.7c1.4,1,3,1.6,4.7,1.6c2,0,4-0.8,5.6-2.3
				l0.3-0.3c0.6-0.6,0.6-1.6,0-2.2l-3.6-3.6l3.6-3.6l-2.2-2.2l-3.6,3.6l-5.2-5.2c-0.3-0.3-0.7-0.5-1.1-0.5c-0.6,0-1,0.3-1.3,0.6
				c-1.6,1.4-2.5,3.4-2.5,5.5s0.8,4.2,2.3,5.7l0.8,0.8l-2,2c-0.3,0.3-0.5,0.7-0.5,1.1v3.2h-9.5v-4.8c0-0.9-0.7-1.6-1.6-1.6H87l-9-12
				c-0.6-0.8-1.9-0.8-2.5,0l-9,12H61c-0.9,0-1.6,0.7-1.6,1.6v17.4h-9.5V372h-3.2v12.7H35.6c-0.9,0-1.6,0.7-1.6,1.6v60.2
				c0,0.9,0.7,1.6,1.6,1.6h25.3H72h12.7h1.6h9.5h25.3c4.4,0,7.9-3.6,7.9-7.9v-28.5C129,410.7,128.3,410,127.4,410z M59.3,444.8H37.2
				v-57h22.2v57H59.3z M106.9,356.9l8.7,8.7c-1.8,1.1-4.2,0.8-5.7-0.7l-2.2-2.2c-0.9-0.9-1.4-2.1-1.4-3.4
				C106.3,358.4,106.5,357.6,106.9,356.9z M76.8,357.2l6.3,8.4H70.4L76.8,357.2z M70.4,432.2v12.7h-7.9v-58.6v-17.4H91v4.8v28.5h3.2
				v-26.9h22.2V410h-3.2v-1.6c0-2.6-2.1-4.8-4.8-4.8h-9.5c-2.6,0-4.8,2.1-4.8,4.8v1.6H79.9c-0.9,0-1.6,0.7-1.6,1.6V429H65.7v3.2
				H70.4z M110,408.4v1.6H97.3v-1.6c0-0.9,0.7-1.6,1.6-1.6h9.5C109.3,406.8,110,407.5,110,408.4z M73.6,444.8v-12.7h4.8v7.9
				c0,1.8,0.6,3.4,1.6,4.8L73.6,444.8L73.6,444.8z M125.8,440.1c0,2.6-2.1,4.8-4.8,4.8H95.8h-9.5c-2.6,0-4.8-2.1-4.8-4.8v-15.9
				c1.3,1,3,1.6,4.8,1.6h1.6v4.8c0,0.9,0.7,1.6,1.6,1.6h6.3c0.9,0,1.6-0.7,1.6-1.6v-4.8H99h9.5h1.6v4.8c0,0.9,0.7,1.6,1.6,1.6h6.3
				c0.9,0,1.6-0.7,1.6-1.6v-4.8h1.6c1.8,0,3.4-0.6,4.8-1.6v15.9H125.8z M91,429v-3.2h3.2v3.2H91z M100.5,422.7v-3.2h6.3v3.2H100.5z
				 M113.2,429v-3.2h3.2v3.2H113.2z M125.8,417.9c0,2.6-2.1,4.8-4.8,4.8h-3.2h-6.3H110v-4.8c0-0.9-0.7-1.6-1.6-1.6h-9.5
				c-0.9,0-1.6,0.7-1.6,1.6v4.8h-1.6h-6.3h-3.2c-2.6,0-4.8-2.1-4.8-4.8v-4.8h44.3v4.8H125.8z"/>
		</g>
	</g>
	<g>
		<g>
			<rect x="119.5" y="438.5" class="st3" width="3.2" height="3.2"/>
		</g>
	</g>
	<g>
		<g>
			<rect x="113.2" y="438.5" class="st3" width="3.2" height="3.2"/>
		</g>
	</g>
	<g>
		<g>
			<rect x="106.8" y="438.5" class="st3" width="3.2" height="3.2"/>
		</g>
	</g>
</g>
<g>
	<circle class="st4" cx="56.1" cy="58.7" r="15.8"/>
	<line class="st4" x1="43.4" y1="83.4" x2="56.1" y2="97.9"/>
	<line class="st4" x1="68.4" y1="83.4" x2="56.1" y2="97.9"/>
	<line class="st4" x1="56.1" y1="112.3" x2="56.1" y2="97.9"/>
	<path class="st4" d="M89.9,104v3.4c0,3.1-2.5,5.6-5.6,5.6H27.7c-3.1,0-5.6-2.5-5.6-5.6V104"/>
	<path class="st4" d="M27.7,98.4"/>
	<path class="st4" d="M22.1,105.6C22.1,92.8,32.7,83,45.4,83h21.2c12.8,0,23.2,10.5,23.2,23.2l0,0"/>
</g>
<g class="st2">
	<path class="st3" d="M10.8,140.1l-2.1,0.8v5.4c0,1.3-0.6,1.5-3,1.5c-0.1-0.3-0.2-0.8-0.4-1.1c0.8,0,1.6,0,1.9,0
		c0.2,0,0.3-0.1,0.3-0.3v-5c-0.8,0.3-1.6,0.6-2.2,0.8c0,0.1-0.1,0.3-0.2,0.3l-0.5-1.4c0.8-0.2,1.8-0.5,3-0.9V136H4.8v-1.4h2.7V131
		l1.5,0.1c0,0.1-0.1,0.2-0.4,0.3v3.3h2.1v1.1h-2v3.8l1.9-0.6L10.8,140.1z M19.4,138.9l0.8,0.4c0,0.1-0.1,0.1-0.2,0.2
		c-0.7,2.1-1.8,3.8-3.3,5.1c1.3,1,3,1.7,4.9,2.1c-0.3,0.3-0.6,0.7-0.8,1.1c-2-0.5-3.6-1.3-5-2.4c-1.5,1.1-3.3,1.9-5.1,2.4
		c-0.1-0.3-0.4-0.8-0.7-1.1c1.8-0.4,3.5-1.2,4.9-2.2c-1.2-1.2-2.1-2.5-2.7-4.2l0.9-0.3h-1.6v-1.1h7.6H19.4z M13.8,132.9v0.7
		c0,1.6-0.5,3.5-2.5,4.8c-0.2-0.3-0.6-0.7-0.8-0.9c1.8-1.2,2.1-2.7,2.1-4v-1.8h5.9v4.4c0,0.4,0.1,0.5,0.4,0.5h1.2
		c0.4,0,0.4-0.3,0.5-2.2c0.3,0.2,0.7,0.4,1,0.5c-0.1,2.2-0.4,2.8-1.4,2.8h-1.4c-1.1,0-1.4-0.3-1.4-1.5v-3.3H13.8z M13.3,140
		c0.6,1.4,1.4,2.7,2.5,3.7c1.2-1,2.1-2.3,2.7-3.7H13.3z"/>
	<path class="st3" d="M22.9,136.3c1.3-0.3,3.2-0.9,5.1-1.4l0.1,1c-1.7,0.5-3.4,1.1-4.5,1.4c0,0.1-0.1,0.2-0.2,0.3L22.9,136.3z
		 M29.7,145.7c-0.1,0.1-0.2,0.1-0.4,0.1c-1.4,0.7-3.6,1.5-5.4,1.9c-0.2-0.2-0.6-0.7-0.8-0.9c1.8-0.4,4-1.1,5.3-1.8L29.7,145.7z
		 M24.3,131.4c1.3,0.3,3,1,3.8,1.4l-0.5,1c-0.9-0.5-2.5-1.2-3.8-1.5L24.3,131.4z M25.3,144.8v-7.4h11.8v7.4H25.3z M26.5,138.3v1.3
		H36v-1.3H26.5z M26.5,140.5v1.3H36v-1.3H26.5z M26.5,142.6v1.4H36v-1.4H26.5z M34.2,133.3c0.4,1.5,1.5,2.8,5.2,3.4
		c-0.2,0.2-0.5,0.7-0.6,1c-3.2-0.6-4.5-1.8-5.2-3.2c-0.6,1.4-1.9,2.3-4.7,2.8c-0.1-0.3-0.4-0.7-0.6-0.9c3-0.5,4.1-1.5,4.6-3.2h-2.1
		c-0.5,0.6-1,1.1-1.7,1.6c-0.2-0.2-0.6-0.5-0.9-0.6c1.4-1,2.3-2.2,2.8-3.3l1.4,0.2c0,0.1-0.1,0.2-0.3,0.2c-0.1,0.3-0.3,0.6-0.5,1
		h6.6h0.2l0.7,0.1c-0.2,0.7-1.3,2.1-1.9,2.7l-1-0.4c0.4-0.4,0.8-0.9,1.2-1.5L34.2,133.3L34.2,133.3z M37.9,147.8
		c-1.2-0.6-3.2-1.4-5.2-2l1-0.6c2,0.6,4.2,1.4,5.5,2L37.9,147.8z"/>
	<path class="st3" d="M57.3,138h-7c-1,0.7-2,1.4-3.1,2h7.5v7.6h-1.2v-0.5h-7.4v0.6h-1.2v-6.5c-1.2,0.6-2.4,1.1-3.6,1.6
		c-0.2-0.3-0.5-0.7-0.7-0.9c2.7-1,5.3-2.3,7.7-3.8h-7.4V137h6.4v-2.4h-4.7v-1.1h4.7V131l1.5,0.1c0,0.1-0.1,0.2-0.4,0.3v2.1h4.7v0.6
		c0.8-0.8,1.5-1.6,2.1-2.4l1.3,0.7c-0.1,0.1-0.2,0.1-0.3,0.1s-0.1,0-0.2,0c-1.3,1.6-2.8,3.1-4.4,4.4h5.6v1.1H57.3z M53.5,143v-1.9
		h-7.4v1.9H53.5z M46.1,146.1h7.4v-2h-7.4V146.1z M48.5,137h1.3c1-0.8,2-1.6,2.9-2.4h-4.2V137z"/>
	<path class="st3" d="M66.8,131.1c-2,1.6-3.6,4.6-3.6,8.3s1.7,6.7,3.6,8.3v0.1h-1.1c-1.8-1.6-3.4-4.7-3.4-8.4s1.6-6.7,3.4-8.4
		L66.8,131.1L66.8,131.1z"/>
	<path class="st3" d="M70.2,137.4c-0.7,1.1-1.4,2.1-2.2,3c-0.1-0.3-0.4-0.8-0.6-1.1c1.7-1.9,3.5-5,4.5-8.1l1.4,0.5
		c-0.1,0.1-0.2,0.2-0.4,0.2c-0.5,1.3-1,2.5-1.7,3.7l0.5,0.1c0,0.1-0.1,0.2-0.4,0.2v11.9h-1.2L70.2,137.4L70.2,137.4z M82.8,136.9
		l0.2-0.1c0.4,0.2,0.6,0.3,0.8,0.3c0,0.1-0.1,0.2-0.2,0.2c-0.6,2.7-1.7,4.9-3.1,6.6c1.2,1.2,2.6,2.2,4.3,2.8c-0.3,0.2-0.6,0.7-0.8,1
		c-1.6-0.6-3.1-1.6-4.3-2.9c-1.2,1.3-2.7,2.3-4.3,3c-0.2-0.3-0.6-0.8-0.8-1c1.6-0.6,3.1-1.6,4.3-2.9c-1.3-1.5-2.2-3.4-2.9-5.5
		l1.1-0.3c0.6,1.8,1.5,3.5,2.6,4.9c1.1-1.4,2-3.1,2.6-5.1h-6.9c0,3-0.4,7.1-2.3,9.8c-0.2-0.2-0.7-0.6-1-0.7c1.9-2.7,2.1-6.6,2.1-9.5
		v-5.6h10.1v1.2h-8.9v3.7h7.4V136.9z"/>
	<path class="st3" d="M90.6,135.9c0.7,0.5,2.6,1.9,3.1,2.3l-0.7,1c-0.5-0.5-1.5-1.4-2.4-2.1v4.6h-1.2v-5.1c-0.8,1.6-1.9,3.1-3,4
		c-0.2-0.3-0.5-0.6-0.8-0.8c1.4-1,2.8-2.9,3.6-4.8H86v-1.1h3.4v-2.7l1.5,0.1c0,0.1-0.1,0.2-0.3,0.2v2.4h2.9v1.1h-2.9V135.9z
		 M89.3,143.3c-0.5,1.4-1.2,3-2.5,3.9l-1-0.7c1.2-0.8,2-2.3,2.4-3.7L89.3,143.3z M91.8,145.9c0,0.5,0.2,0.6,1.2,0.6h3.5
		c0.8,0,0.9-0.2,1-1.9c0.3,0.2,0.8,0.4,1.1,0.5c-0.2,2.1-0.5,2.5-2,2.5h-3.7c-1.8,0-2.3-0.3-2.3-1.6v-3l1.5,0.1
		c0,0.1-0.1,0.2-0.4,0.3v2.5H91.8z M95.3,144.8c-0.6-0.8-1.9-1.9-3.1-2.7l0.8-0.6c1.2,0.7,2.5,1.8,3.2,2.6L95.3,144.8z M101.4,132
		v9.5h-7.1V132H101.4z M100.2,134.8V133h-4.8v1.8H100.2z M100.2,137.6v-1.8h-4.8v1.8H100.2z M100.2,140.4v-1.8h-4.8v1.9L100.2,140.4
		L100.2,140.4z M101.6,147.2c-0.6-1.2-2.1-2.8-3.6-3.9l1-0.6c1.4,1.1,3,2.6,3.7,3.8L101.6,147.2z"/>
	<path class="st3" d="M107.6,138.2v5.9c1.4,2.1,3.9,2.1,7.4,2.1c2,0,4.3,0,5.7-0.1c-0.1,0.3-0.3,0.8-0.4,1.2c-1.2,0-3.2,0.1-5,0.1
		c-3.9,0-6.4,0-8.2-2.3c-1,0.8-1.9,1.6-2.8,2.2c0,0.2,0,0.2-0.2,0.3l-0.7-1.3c0.9-0.6,2-1.4,3-2.2v-4.9h-2.7V138h3.9V138.2z
		 M104.9,131.4c1.2,0.8,2.5,2.1,3.1,3l-0.9,0.8c-0.6-0.9-1.9-2.2-3.1-3.1L104.9,131.4z M115,135.6c-1.1-0.6-2.5-1.2-3.7-1.6l0.8-0.7
		c0.8,0.3,1.7,0.6,2.6,1c1-0.4,2-1,2.7-1.5h-7.9v-1h9.1l0.2-0.1l0.9,0.6c-0.1,0.1-0.2,0.1-0.3,0.1c-0.9,0.8-2.3,1.7-3.7,2.4
		c0.6,0.3,1.1,0.5,1.5,0.8h2.3v8.2c0,1.2-0.4,1.3-3.1,1.3c-0.1-0.3-0.2-0.7-0.3-1c0.5,0,1,0,1.4,0c0.8,0,0.9,0,0.9-0.3V142h-3.3v3
		H114v-3h-3.3v3.1h-1.2v-9.5H115z M114,136.5h-3.3v1.7h3.3V136.5z M110.8,141h3.3v-1.8h-3.3V141z M118.5,138.3v-1.7h-3.4v1.7H118.5z
		 M115.1,141h3.4v-1.8h-3.4V141z"/>
	<path class="st3" d="M125.2,136.9V134c-0.9,0.6-1.8,1.1-2.7,1.5c-0.2-0.2-0.6-0.6-0.8-0.8c1.9-0.8,4.1-2.3,5.4-3.8l1.3,0.6
		c-0.1,0.1-0.3,0.2-0.4,0.1c-0.5,0.6-1.1,1.1-1.8,1.6l0.6,0.1c0,0.1-0.1,0.2-0.4,0.2v3.3L125.2,136.9L125.2,136.9z M128.7,145.7
		c-0.1,0.1-0.2,0.1-0.4,0.1c-1.4,0.7-3.6,1.5-5.4,1.9c-0.2-0.2-0.6-0.7-0.8-0.9c1.8-0.4,4-1.1,5.3-1.8L128.7,145.7z M124.3,144.8
		v-7.4h11.8v7.4H124.3z M125.5,138.3v1.3h9.5v-1.3H125.5z M125.5,140.5v1.3h9.5v-1.3H125.5z M125.5,142.6v1.4h9.5v-1.4H125.5z
		 M136,135.6c0.8,0,1-0.2,1-1.6c0.3,0.2,0.8,0.3,1.1,0.4c-0.1,1.8-0.5,2.3-2,2.3h-4.2c-1.9,0-2.4-0.3-2.4-1.7v-3.8l1.5,0.1
		c0,0.1-0.1,0.2-0.3,0.2v1.7c2-0.4,4.2-0.9,5.5-1.5l1,0.9c0,0-0.1,0.1-0.2,0.1c-0.1,0-0.1,0-0.2,0c-1.5,0.5-3.9,1.1-6.1,1.5v0.9
		c0,0.5,0.2,0.6,1.3,0.6L136,135.6L136,135.6z M136.9,147.8c-1.2-0.6-3.2-1.4-5.2-2l1-0.6c2,0.6,4.2,1.4,5.5,2L136.9,147.8z"/>
	<path class="st3" d="M145.8,139l0.2,1l-2.2,0.8v5.4c0,1.3-0.6,1.5-3,1.5c-0.1-0.3-0.2-0.8-0.4-1.1c0.8,0,1.6,0,1.9,0
		c0.2,0,0.3-0.1,0.3-0.3v-5c-0.8,0.3-1.6,0.6-2.2,0.8c0,0.1-0.1,0.3-0.2,0.3l-0.5-1.4c0.8-0.2,1.8-0.5,3-0.9v-4.2H140v-1.3h2.7V131
		l1.5,0.1c0,0.1-0.1,0.2-0.4,0.3v3.3h2.1v1.1h-2.1v3.9L145.8,139z M156.4,138.2h-2.3c-0.1,0.1-0.1,0.2-0.4,0.2v2.1h2.4v1.1h-2.4v4.7
		c0,1.4-0.7,1.4-3.3,1.4c-0.1-0.3-0.2-0.8-0.4-1.1c0.5,0,1,0,1.4,0h0.8c0.3,0,0.3-0.1,0.3-0.3v-4.7h-6.6v-1.1h6.6v-2.3h-7v-1.1h4.8
		v-2.6h-3.6v-1.1h3.6v-2.3l1.6,0.1c0,0.1-0.1,0.2-0.4,0.3v2h3.7v1.1h-3.7v2.6h4.9L156.4,138.2L156.4,138.2z M149.3,145.9
		c-0.4-0.8-1.4-2.2-2.3-3.1l0.9-0.6c0.8,0.9,1.9,2.2,2.3,3L149.3,145.9z"/>
	<path class="st3" d="M171.1,134.6c-2.3,0.6-5.6,1-7.7,1c-0.2,2.3-0.6,4.1-0.8,4.8c1.4-1.1,3.6-1.9,5.1-1.9c2.7,0,4.3,1.4,4.3,3.9
		c0,3.6-3.6,4.8-9.5,4.9c-0.1-0.3-0.2-0.9-0.4-1.2c5.2-0.1,8.5-1,8.5-3.7c0-1.6-1.1-2.7-3.2-2.7c-1.6,0-4.4,1-5.5,2.8l-1.3-0.6
		c0.6-0.6,1.2-3.2,1.4-6.2h-4.2v-1.3c0.8,0,3,0,4.3,0c0.1-1,0.1-2.2,0.1-3.3l1.9,0.2c0,0.3-0.3,0.4-0.6,0.4c0,0.9-0.1,1.8-0.2,2.7
		c1.9-0.1,5.2-0.5,7.4-1.1L171.1,134.6z"/>
	<path class="st3" d="M183.2,145.9h7.6v1.2h-16.2v-1.2h7.4v-4.5h-5.7v-1.2h5.7v-4.1h-6.5v-1.2H190v1.2h-6.7v4.1h5.9v1.2h-5.9v4.5
		H183.2z M180,130.9c1.9,0.6,4.4,1.8,5.6,2.7l-0.9,1.1c-1.2-0.9-3.7-2.1-5.6-2.8L180,130.9z"/>
	<path class="st3" d="M191.9,147.6c2-1.6,3.6-4.6,3.6-8.3s-1.7-6.7-3.6-8.3v-0.1h1.1c1.8,1.6,3.4,4.7,3.4,8.4s-1.6,6.7-3.4,8.4
		L191.9,147.6L191.9,147.6z"/>
</g>
<g class="st2">
	<path class="st3" d="M364.2,486.7v-12.9h1.7v5.3h6.7v-5.3h1.7v12.9h-1.7v-6.1h-6.7v6.1H364.2z"/>
	<path class="st3" d="M376.3,482c0-1.7,0.5-3,1.4-3.8c0.8-0.7,1.8-1,2.9-1c1.3,0,2.3,0.4,3.1,1.3s1.2,2,1.2,3.5
		c0,1.2-0.2,2.1-0.5,2.8c-0.4,0.7-0.9,1.2-1.6,1.6c-0.7,0.4-1.4,0.6-2.3,0.6c-1.3,0-2.4-0.4-3.2-1.3
		C376.7,484.8,376.3,483.6,376.3,482z M377.9,482c0,1.2,0.3,2.1,0.8,2.7c0.5,0.6,1.2,0.9,2,0.9s1.4-0.3,2-0.9
		c0.6-0.6,0.8-1.5,0.8-2.7s-0.3-2-0.8-2.6s-1.2-0.9-2-0.9s-1.4,0.3-2,0.9S377.9,480.8,377.9,482z"/>
	<path class="st3" d="M393,486.7v-1.4c-0.7,1.1-1.7,1.6-3,1.6c-0.6,0-1.1-0.1-1.5-0.3c-0.5-0.2-0.8-0.5-1.1-0.8
		c-0.2-0.3-0.4-0.7-0.5-1.2c-0.1-0.3-0.1-0.8-0.1-1.5v-5.8h1.6v5.2c0,0.8,0,1.4,0.1,1.7c0.1,0.4,0.3,0.7,0.6,1
		c0.3,0.2,0.7,0.4,1.2,0.4s0.9-0.1,1.3-0.4s0.7-0.6,0.9-1s0.3-1,0.3-1.8v-5h1.6v9.3H393z"/>
	<path class="st3" d="M396.3,483.9l1.6-0.2c0.1,0.6,0.3,1.1,0.7,1.4c0.4,0.3,1,0.5,1.7,0.5s1.3-0.1,1.6-0.4s0.5-0.6,0.5-1
		s-0.2-0.6-0.5-0.8c-0.2-0.1-0.8-0.3-1.6-0.5c-1.2-0.3-2-0.5-2.4-0.8c-0.4-0.2-0.8-0.5-1-0.9s-0.3-0.8-0.3-1.3
		c0-0.4,0.1-0.8,0.3-1.2s0.5-0.6,0.8-0.9c0.2-0.2,0.6-0.3,1-0.5c0.4-0.1,0.9-0.2,1.4-0.2c0.7,0,1.4,0.1,1.9,0.3
		c0.6,0.2,1,0.5,1.2,0.9c0.3,0.4,0.4,0.8,0.5,1.4l-1.5,0.2c-0.1-0.5-0.3-0.9-0.6-1.1c-0.3-0.3-0.8-0.4-1.4-0.4
		c-0.7,0-1.2,0.1-1.6,0.4s-0.5,0.5-0.5,0.8c0,0.2,0.1,0.4,0.2,0.6c0.1,0.2,0.3,0.3,0.6,0.4c0.2,0.1,0.6,0.2,1.4,0.4
		c1.1,0.3,1.9,0.5,2.3,0.7c0.4,0.2,0.8,0.5,1,0.8s0.4,0.8,0.4,1.4c0,0.5-0.2,1-0.5,1.5s-0.8,0.8-1.3,1.1c-0.6,0.3-1.2,0.4-2,0.4
		c-1.2,0-2.1-0.3-2.8-0.8C396.9,485.7,396.5,484.9,396.3,483.9z"/>
	<path class="st3" d="M412.3,483.7l1.6,0.2c-0.3,1-0.7,1.7-1.4,2.2s-1.6,0.8-2.7,0.8c-1.4,0-2.4-0.4-3.2-1.3c-0.8-0.8-1.2-2-1.2-3.5
		c0-1.6,0.4-2.8,1.2-3.7c0.8-0.9,1.9-1.3,3.1-1.3c1.2,0,2.3,0.4,3.1,1.3c0.8,0.9,1.2,2,1.2,3.6c0,0.1,0,0.2,0,0.4h-7
		c0.1,1,0.3,1.8,0.9,2.4c0.6,0.6,1.2,0.8,2,0.8c0.6,0,1.1-0.2,1.5-0.5S412.1,484.4,412.3,483.7z M407.1,481.1h5.2
		c-0.1-0.8-0.3-1.4-0.6-1.8c-0.5-0.6-1.2-0.9-2-0.9c-0.7,0-1.3,0.2-1.8,0.7C407.4,479.7,407.2,480.3,407.1,481.1z"/>
	<path class="st3" d="M419.4,486.7v-11.4h-4.2v-1.5h10.2v1.5h-4.3v11.4H419.4z"/>
	<path class="st3" d="M424.3,482c0-1.7,0.5-3,1.4-3.8c0.8-0.7,1.8-1,2.9-1c1.3,0,2.3,0.4,3.1,1.3s1.2,2,1.2,3.5
		c0,1.2-0.2,2.1-0.5,2.8c-0.4,0.7-0.9,1.2-1.6,1.6c-0.7,0.4-1.4,0.6-2.3,0.6c-1.3,0-2.4-0.4-3.2-1.3
		C424.7,484.8,424.3,483.6,424.3,482z M426,482c0,1.2,0.3,2.1,0.8,2.7c0.5,0.6,1.2,0.9,2,0.9s1.4-0.3,2-0.9c0.6-0.6,0.8-1.5,0.8-2.7
		s-0.3-2-0.8-2.6s-1.2-0.9-2-0.9s-1.4,0.3-2,0.9S426,480.8,426,482z"/>
	<path class="st3" d="M435,486.7v-12.9h1.6v7.3l3.7-3.8h2l-3.6,3.5l3.9,5.9h-2l-3.1-4.8l-1.1,1.1v3.7H435z"/>
	<path class="st3" d="M450.3,483.7l1.6,0.2c-0.3,1-0.7,1.7-1.4,2.2s-1.6,0.8-2.7,0.8c-1.4,0-2.4-0.4-3.2-1.3c-0.8-0.8-1.2-2-1.2-3.5
		c0-1.6,0.4-2.8,1.2-3.7c0.8-0.9,1.9-1.3,3.1-1.3c1.2,0,2.3,0.4,3.1,1.3c0.8,0.9,1.2,2,1.2,3.6c0,0.1,0,0.2,0,0.4h-7
		c0.1,1,0.3,1.8,0.9,2.4c0.6,0.6,1.2,0.8,2,0.8c0.6,0,1.1-0.2,1.5-0.5S450.1,484.4,450.3,483.7z M445.1,481.1h5.2
		c-0.1-0.8-0.3-1.4-0.6-1.8c-0.5-0.6-1.2-0.9-2-0.9c-0.7,0-1.3,0.2-1.8,0.7C445.5,479.7,445.2,480.3,445.1,481.1z"/>
	<path class="st3" d="M454,486.7v-9.3h1.4v1.3c0.7-1,1.7-1.5,3-1.5c0.6,0,1.1,0.1,1.6,0.3c0.5,0.2,0.8,0.5,1.1,0.8s0.4,0.7,0.5,1.2
		c0.1,0.3,0.1,0.8,0.1,1.5v5.7h-1.6V481c0-0.6-0.1-1.1-0.2-1.4s-0.3-0.6-0.7-0.8c-0.3-0.2-0.7-0.3-1.1-0.3c-0.7,0-1.3,0.2-1.7,0.6
		c-0.5,0.4-0.7,1.2-0.7,2.4v5.1L454,486.7L454,486.7z"/>
	<path class="st3" d="M482.2,483.3H481v-0.8h-3.6v0.9h-1.2v-6.1h-3.6v8.4h11.9v1.2h-11.9v1.4h-1.2v-10.9h-2.8v-1.3h2.8V472l1.6,0.1
		c0,0.1-0.1,0.2-0.4,0.3v3.8h3.6v-4.5l1.6,0.1c0,0.1-0.1,0.2-0.4,0.3v4.2h3.6V472l1.6,0.1c0,0.1-0.1,0.2-0.4,0.3v4h2.9v1.2h-2.9
		L482.2,483.3L482.2,483.3z M477.4,481.3h3.6v-4h-3.6V481.3z"/>
	<path class="st3" d="M501.1,479.7h-3.3c1.3,1.5,3.3,2.7,5.4,3.3c-0.3,0.3-0.6,0.7-0.8,1c-1.4-0.5-2.9-1.3-4.1-2.4
		c-0.1,0.1-0.1,0.1-0.2,0.1v6.4h-1.2v-6.8l1.2,0.1c-0.6-0.6-1.2-1.2-1.6-1.8h-3.1c-0.5,0.6-1,1.2-1.6,1.8l1.3,0.1
		c0,0.1-0.1,0.2-0.4,0.2v0.8c0,1.9-0.4,4.2-3.9,5.8c-0.2-0.3-0.5-0.7-0.8-0.9c3.3-1.4,3.6-3.4,3.6-4.9v-1c-1.3,1.1-2.8,2-4.2,2.5
		c-0.2-0.3-0.5-0.7-0.8-1c2-0.6,4.1-2,5.4-3.5h-3.3V472h12.5v7.7H501.1z M489.7,473.2v2.2h4.4v-2.2H489.7z M489.7,476.4v2.3h4.4
		v-2.3H489.7z M499.8,475.4v-2.2h-4.5v2.2H499.8z M499.8,478.7v-2.3h-4.5v2.3H499.8z"/>
	<path class="st3" d="M520.6,474H515c-0.1,0.1-0.3,0.2-0.4,0.1c-0.4,0.8-0.9,1.5-1.4,2.3l0.5,0.1c0,0.1-0.1,0.2-0.4,0.2v11.5h-1.2
		v-10.4c-1.9,2.3-4.2,4.5-6.9,6c-0.2-0.3-0.6-0.8-0.8-1c3.7-2.1,7-5.5,8.8-8.9h-8.3v-1.2h15.7L520.6,474L520.6,474z M520.1,483.7
		c-1.3-1.3-4.1-3.3-6.2-4.6l0.9-0.8c2.2,1.3,4.9,3.2,6.3,4.5L520.1,483.7z"/>
	<path class="st3" d="M538.3,475.8h0.6c0,0.1,0,0.3,0,0.4c-0.2,7.9-0.4,10.5-1,11.2c-0.5,0.7-1.1,0.7-1.9,0.7c-0.4,0-1,0-1.5,0
		c0-0.3-0.2-0.8-0.3-1.2c0.9,0.1,1.7,0.1,2.1,0.1c0.2,0,0.4-0.1,0.5-0.3c0.4-0.5,0.7-3,0.8-9.8h-2.7c0,3.7-0.4,8.2-3.9,11.3
		c-0.2-0.2-0.6-0.6-0.9-0.8c0.3-0.3,0.6-0.6,0.9-1c-3,0.4-6.1,0.8-8,1c0,0.1-0.1,0.2-0.3,0.3l-0.4-1.3c1.1-0.1,2.5-0.2,4-0.4v-1.7
		h-3.5v-1h3.5v-1.2h-3.4v-5.3h3.4v-1.3h-4v-1h4v-1.3c-1.2,0.1-2.4,0.2-3.5,0.3c-0.1-0.3-0.2-0.6-0.3-0.9c2.7-0.2,6-0.5,7.7-1
		l0.9,0.9c0,0-0.1,0-0.2,0c-0.1,0-0.1,0-0.2,0c-0.8,0.2-1.9,0.4-3.1,0.5c-0.1,0.1-0.1,0.1-0.3,0.1v1.3h4v1h-4v1.3h3.6v5.3h-3.6v1.2
		h3.7v1h-3.7v1.6c1.2-0.1,2.5-0.3,3.7-0.4v0.8c2.3-2.9,2.6-6.5,2.6-9.4h-2.3v-1.1h2.3v-4.2l1.5,0.1c0,0.1-0.1,0.2-0.3,0.2v3.8h3.5
		V475.8z M524.1,477.8v1.3h2.3v-1.3H524.1z M524.1,481.3h2.3v-1.4h-2.3V481.3z M530.1,477.8h-2.5v1.3h2.5V477.8z M530.1,481.3v-1.4
		h-2.5v1.4H530.1z"/>
	<path class="st3" d="M553.6,474.6c-0.1,0.1-0.2,0.2-0.4,0.1c-0.3,0.7-0.8,1.6-1.2,2.3h4.9v1.1h-13.8v1.8c0,2.4-0.3,6-1.9,8.4
		c-0.2-0.3-0.7-0.6-0.9-0.8c1.5-2.3,1.7-5.5,1.7-7.7V477h3.6c-0.1-0.7-0.6-1.7-1-2.5l1-0.3h-3.9v-1.1h6.5v-1.7l1.6,0.1
		c0,0.1-0.1,0.2-0.4,0.3v1.4h6.6v1.1h-3.5L553.6,474.6z M550.8,484.3v2.4h6.1v1.1h-13.1v-1.1h5.8v-2.4h-4.1v-1h4.1v-2h-3.5
		c-0.4,0.7-0.9,1.3-1.3,1.8c-0.2-0.2-0.6-0.4-0.9-0.6c0.9-0.9,1.8-2.4,2.3-3.9l1.4,0.4c-0.1,0.1-0.2,0.2-0.4,0.2
		c-0.1,0.4-0.3,0.7-0.5,1.1h3v-1.7l1.5,0.1c0,0.1-0.1,0.2-0.3,0.3v1.4h5v1h-5v2h4.6v1h-4.7V484.3z M551,476.7
		c0.4-0.7,0.8-1.7,1.1-2.5h-6.4c0.5,0.8,0.9,1.8,1.1,2.5l-0.9,0.3h5.9L551,476.7z"/>
	<path class="st3" d="M575,481.4h-4c1,1.3,2.6,2.4,4.2,3c-0.3,0.2-0.6,0.6-0.8,1c-1.8-0.8-3.6-2.3-4.7-3.9h-5.9
		c-1.1,1.7-3,3.3-4.8,4.1c-0.2-0.3-0.5-0.7-0.8-0.9c1.5-0.6,3.2-1.9,4.2-3.2h-4.1v-1h3.8v-5.9h-3v-1h3v-1.9l1.6,0.1
		c0,0.1-0.1,0.2-0.4,0.3v1.6h6.5v-1.9l1.6,0.1c0,0.1-0.1,0.2-0.4,0.3v1.6h3v1h-3v5.9h3.8v0.7H575z M567.4,484.7v2.1h6.4v1H560v-1
		h6.2v-2.1h-3.8v-1h3.8V482l1.6,0.1c0,0.1-0.1,0.2-0.4,0.3v1.4h3.9v1h-3.9V484.7z M570,474.5h-6.5v1.3h6.5V474.5z M563.6,476.7v1.3
		h6.5v-1.3H563.6z M563.6,479v1.4h6.5V479H563.6z"/>
	<path class="st3" d="M585.3,481.9v4.6h7.3v1.1H577v-1.1h7.1v-4.6h-6.3v-1.1h6.3v-2.5h-3.9v-1c-1,0.8-2,1.5-3.1,2.1
		c-0.2-0.3-0.5-0.7-0.8-1c3.2-1.7,6.2-4.6,7.7-7l1.8,0.1c0,0.1-0.2,0.2-0.4,0.3c1.7,2.4,5,5,7.8,6.4c-0.3,0.3-0.6,0.7-0.8,1.1
		c-2.8-1.5-6-4.2-7.7-6.6c-1,1.5-2.6,3.1-4.4,4.6h9.1v1.1h-4v2.5h6.4v1.1h-6.5V481.9z M581.1,486.2c-0.2-0.9-1-2.3-1.7-3.4l1-0.4
		c0.8,1,1.5,2.4,1.8,3.3L581.1,486.2z M590.3,483c-0.1,0.1-0.2,0.2-0.4,0.1c-0.5,0.9-1.4,2.3-2.1,3.1l-0.9-0.5
		c0.7-0.9,1.5-2.4,2-3.4L590.3,483z"/>
	<path class="st3" d="M387.4,493.2c-2,1.6-3.6,4.6-3.6,8.3c0,3.7,1.7,6.7,3.6,8.3v0.1h-1.1c-1.8-1.6-3.4-4.7-3.4-8.4
		s1.6-6.7,3.4-8.4L387.4,493.2L387.4,493.2z"/>
	<path class="st3" d="M393.1,496.4c0,0.2-0.2,0.3-0.4,0.3c-0.1,4.8-0.5,9.3-3.3,12.5c-0.3-0.2-0.7-0.5-1.1-0.7
		c2.7-2.9,3-7.4,3.1-12.3L393.1,496.4z M397.8,506.8c3-1.5,5-4.1,6-7.2c0.3,0.2,0.8,0.5,1.1,0.7c-1.3,3.6-3.5,6.3-7.3,8.1
		c-0.1,0.1-0.2,0.3-0.3,0.4l-0.9-1.2l0.2-0.3v-13.2l1.7,0.1c0,0.2-0.1,0.3-0.4,0.3L397.8,506.8L397.8,506.8z"/>
	<path class="st3" d="M419.7,497c-0.1,0.1-0.2,0.2-0.3,0.3c-1.9,5.8-4.8,9.6-9.8,12.1c-0.2-0.3-0.6-0.7-0.9-1
		c4.7-2.3,7.6-5.9,9.1-10.7h-6.4c-1,1.6-2.4,3.2-4,4.4c-0.3-0.3-0.7-0.6-1-0.8c2.4-1.9,4.5-4.6,5.7-7.8l1.7,0.5
		c-0.1,0.2-0.3,0.2-0.5,0.2c-0.4,0.8-0.7,1.5-1.2,2.3h6.3l0.2-0.1L419.7,497z"/>
	<path class="st3" d="M437.2,497.7c-0.1,0.1-0.2,0.2-0.3,0.2c-0.8,1.9-2.2,4.4-3.8,5.9c-0.3-0.2-0.7-0.5-1.1-0.6
		c1.4-1.2,2.5-3,3.1-4.5l-6.9,1.8v4.7c0,1.8,1.1,2.4,2.5,2.4h2.9c0.7,0,2-0.1,2.7-0.2c0,0.4,0,0.9,0,1.3c-0.7,0.1-2,0.1-2.7,0.1h-3
		c-2.3,0-3.8-1.1-3.8-3.5v-4.4l-4.5,1.2l-0.3-1.2l4.8-1.2v-5.6l1.7,0.1c0,0.2-0.2,0.3-0.5,0.4v4.7l7.6-2l0.2-0.1L437.2,497.7z"/>
	<path class="st3" d="M440.5,495.1c1.9,0.6,4,1.5,5.4,2.4l-0.7,1.1c-1.3-0.9-3.4-1.9-5.3-2.5L440.5,495.1z M440.4,507.5
		c6.4-2,10.6-5.6,12.8-10.6c0.4,0.3,0.8,0.5,1.2,0.7c-2.3,4.9-6.6,8.8-12.7,10.8c0,0.2-0.1,0.3-0.3,0.4L440.4,507.5z"/>
	<path class="st3" d="M456.7,495.8h11.5l0.1-0.1l1.2,0.9c-0.1,0.1-0.1,0.1-0.2,0.2c-1.5,6.8-4.6,10.3-10.1,12.4
		c-0.2-0.3-0.6-0.8-0.8-1.1c5.2-1.9,8.3-5.3,9.4-11.1h-11.1V495.8z M470.4,492.6c1.1,0,2,0.9,2,2s-0.9,2-2,2s-2-0.9-2-2
		C468.4,493.4,469.4,492.6,470.4,492.6z M471.8,494.5c0-0.8-0.6-1.4-1.4-1.4c-0.8,0-1.4,0.6-1.4,1.4s0.6,1.4,1.4,1.4
		C471.2,495.9,471.8,495.3,471.8,494.5z"/>
	<path class="st3" d="M477.4,496.4c0,0.2-0.2,0.3-0.4,0.3c-0.1,4.8-0.5,9.3-3.3,12.5c-0.3-0.2-0.7-0.5-1.1-0.7
		c2.7-2.9,3-7.4,3.1-12.3L477.4,496.4z M482,506.8c3-1.5,5-4.1,6-7.2c0.3,0.2,0.8,0.5,1.1,0.7c-1.3,3.6-3.5,6.3-7.3,8.1
		c-0.1,0.1-0.2,0.3-0.3,0.4l-0.9-1.2l0.2-0.3v-13.2l1.7,0.1c0,0.2-0.1,0.3-0.4,0.3L482,506.8L482,506.8z"/>
	<path class="st3" d="M489.8,508.3l4.9-12.9h1.8l5.3,12.9h-1.9l-1.5-3.9H493l-1.4,3.9H489.8z M493.6,503h4.4l-1.3-3.6
		c-0.4-1.1-0.7-2-0.9-2.7c-0.2,0.8-0.4,1.6-0.7,2.5L493.6,503z"/>
	<path class="st3" d="M503.6,508.3v-12.9h1.7v12.9H503.6z"/>
	<path class="st3" d="M508.4,508.3v-12.9h8.7v1.5h-7v4h6v1.5h-6v5.9H508.4z"/>
	<path class="st3" d="M519.2,508.3v-12.9h2.6l3.1,9.1c0.3,0.8,0.5,1.5,0.6,1.9c0.1-0.5,0.4-1.2,0.7-2.1l3.1-9h2.3v12.9H530v-10.8
		l-3.7,10.8h-1.5l-3.7-11v11L519.2,508.3L519.2,508.3z"/>
	<path class="st3" d="M550.1,503h-4c1,1.3,2.6,2.4,4.2,3c-0.3,0.2-0.6,0.6-0.8,1c-1.8-0.8-3.6-2.3-4.7-3.9h-5.9
		c-1.1,1.7-3,3.3-4.8,4.1c-0.2-0.3-0.5-0.7-0.8-0.9c1.5-0.6,3.2-1.9,4.2-3.2h-4.1v-1h3.8v-6h-3v-1h3v-2l1.6,0.1
		c0,0.1-0.1,0.2-0.4,0.3v1.6h6.5v-2l1.6,0.1c0,0.1-0.1,0.2-0.4,0.3v1.6h3v1h-3v5.9h3.8v1H550.1z M542.4,506.3v2.1h6.4v1H535v-1h6.2
		v-2.1h-3.8v-1h3.8v-1.7l1.6,0.1c0,0.1-0.1,0.2-0.4,0.3v1.4h3.9v1h-3.9V506.3z M545.1,496.1h-6.5v1.3h6.5V496.1z M538.6,498.3v1.3
		h6.5v-1.3H538.6z M538.6,500.6v1.4h6.5v-1.4H538.6z"/>
	<path class="st3" d="M560.4,503.5v4.6h7.3v1.1h-15.6v-1.1h7.1v-4.6h-6.3v-1.1h6.3v-2.5h-3.9v-1c-1,0.8-2,1.5-3.1,2.1
		c-0.2-0.3-0.5-0.7-0.8-1c3.2-1.7,6.2-4.6,7.7-7l1.8,0.1c0,0.1-0.2,0.2-0.4,0.3c1.7,2.4,5,5,7.8,6.4c-0.3,0.3-0.6,0.7-0.8,1.1
		c-2.8-1.5-6-4.2-7.7-6.6c-1,1.5-2.6,3.1-4.4,4.6h9.1v1.1h-4v2.5h6.4v1.1h-6.5V503.5z M556.2,507.8c-0.2-0.9-1-2.3-1.7-3.4l1-0.4
		c0.8,1,1.5,2.4,1.8,3.3L556.2,507.8z M565.4,504.6c-0.1,0.1-0.2,0.2-0.4,0.1c-0.5,0.9-1.4,2.3-2.1,3.1l-0.9-0.5
		c0.7-0.9,1.5-2.4,2-3.4L565.4,504.6z"/>
	<path class="st3" d="M569.1,509.7c2-1.6,3.6-4.6,3.6-8.3c0-3.7-1.7-6.7-3.6-8.3l0,0h1.1c1.8,1.6,3.4,4.7,3.4,8.4s-1.6,6.7-3.4,8.4
		L569.1,509.7L569.1,509.7z"/>
</g>
<g class="st2">
	<path class="st3" d="M43.3,469.6c-1.8-1-4.4-2.2-6.3-2.9v9h-1.3v-15.6l1.8,0.1c0,0.2-0.2,0.3-0.5,0.4v5.3l0.3-0.4
		c2.1,0.8,4.9,2,6.8,3L43.3,469.6z"/>
	<path class="st3" d="M48.6,464.9c0.5,1.1,1.1,2.8,1.4,3.9l-1,0.3c-0.2-1-0.8-2.7-1.3-3.8L48.6,464.9z M59.3,465
		c0,0.2-0.2,0.2-0.4,0.2c-1.4,5.3-4.1,8.5-8.4,10.2c-0.1-0.2-0.5-0.6-0.7-0.8c4.3-1.7,6.8-4.6,8.1-10L59.3,465z M52.9,464
		c0.4,1.2,0.7,2.9,0.8,4.1l-1.1,0.2c-0.1-1.2-0.5-2.8-0.8-4.1L52.9,464z"/>
	<path class="st3" d="M62.3,462.3h11.5l0.1-0.1l1.2,0.9c-0.1,0.1-0.1,0.1-0.2,0.2c-1.5,6.8-4.6,10.3-10.1,12.4
		c-0.2-0.3-0.6-0.8-0.8-1.1c5.2-1.9,8.3-5.3,9.4-11.1H62.3V462.3z M76,459c1.1,0,2,0.9,2,2s-0.9,2-2,2s-2-0.9-2-2
		C74,459.8,74.9,459,76,459z M77.3,461c0-0.8-0.6-1.4-1.4-1.4c-0.8,0-1.4,0.6-1.4,1.4s0.6,1.4,1.4,1.4
		C76.8,462.4,77.3,461.8,77.3,461z"/>
	<path class="st3" d="M82.2,473.8c4.6-1.3,8.2-3.5,10.4-7.4c0.2,0.3,0.7,0.7,1,0.9c-2.4,4.1-6.4,6.6-11.9,8c0,0.1-0.1,0.3-0.3,0.4
		l-0.8-1.3l0.2-0.3v-13.3l1.9,0.1c0,0.2-0.2,0.4-0.5,0.4L82.2,473.8L82.2,473.8z"/>
	<path class="st3" d="M95.5,469c1.4-1.4,4.2-4.6,5.2-5.7c0.5-0.5,0.9-0.7,1.4-0.7s1,0.3,1.5,0.7c2.3,2.1,6.1,6.3,8.8,9.8l-1.1,1
		c-2.6-3.5-6.3-7.8-8.3-9.7c-0.3-0.3-0.5-0.5-0.8-0.5s-0.5,0.2-0.7,0.5c-0.8,0.9-3.5,3.9-4.7,5.2v0.1c0,0.1-0.1,0.3-0.2,0.4
		L95.5,469z M107.4,461.5c0.8,0.7,1.7,1.8,2.3,2.6l-0.7,0.5c-0.5-0.8-1.5-2-2.3-2.6L107.4,461.5z M109.5,459.9
		c0.8,0.7,1.8,1.8,2.3,2.6l-0.7,0.5c-0.5-0.8-1.5-1.9-2.3-2.6L109.5,459.9z"/>
	<path class="st3" d="M118.4,462.9c0,0.2-0.2,0.3-0.4,0.3c-0.1,4.8-0.5,9.3-3.3,12.5c-0.3-0.2-0.7-0.5-1.1-0.7
		c2.7-2.9,3-7.4,3.1-12.3L118.4,462.9z M123.2,473.3c3-1.5,5-4.1,6-7.2c0.3,0.2,0.8,0.5,1.1,0.7c-1.3,3.6-3.5,6.3-7.3,8.1
		c-0.1,0.1-0.2,0.3-0.3,0.4l-0.9-1.2l0.2-0.3v-13.2l1.7,0.1c0,0.2-0.1,0.3-0.4,0.3L123.2,473.3L123.2,473.3z"/>
	<path class="st3" d="M44.4,483.3v1.1h-4.3l1,0.2c-0.1,0.1-0.2,0.2-0.4,0.2c-0.3,0.6-0.6,1.4-1,2h3.8v9.7c0,1.5-0.7,1.5-3.8,1.5
		c-0.1-0.3-0.3-0.9-0.4-1.2c0.7,0,1.4,0,1.9,0c1.1,0,1.2,0,1.2-0.4v-8.6h-3.8v1.6c0,0.3,0.1,0.4,0.6,0.4H41c0.4,0,0.5-0.1,0.5-0.9
		c0.2,0.2,0.6,0.3,1,0.4c-0.1,1.2-0.4,1.4-1.3,1.4h-2c-1.3,0-1.5-0.3-1.5-1.3v-1.6h-2.4c-0.2,2-1,3.2-3.7,3.8
		c-0.1-0.3-0.4-0.7-0.6-0.9c2.3-0.5,3-1.3,3.2-3h-3.4v10.1h-1.5v-11.2H33c-0.2-0.6-0.6-1.5-0.9-2.1l1.1-0.3c0.4,0.7,0.9,1.6,1,2.2
		l-0.6,0.2h4.7c0.4-0.7,0.8-1.7,1.1-2.4H28.3V483h7.4v-2l1.6,0.1c0,0.1-0.1,0.2-0.4,0.2v1.7h7.5V483.3z M39.8,496H34v1.1h-1.1v-5.5
		h6.9L39.8,496L39.8,496z M38.7,492.6H34v2.5h4.7V492.6z"/>
	<path class="st3" d="M62.3,493.5h-6.2c1.7,1.4,4.3,2.5,6.7,3.1c-0.3,0.3-0.6,0.7-0.8,1.1c-2.5-0.7-5.3-2.1-7-3.9v4.1h-1.2v-4
		c-1.8,1.6-4.5,3-7,3.7c-0.2-0.3-0.5-0.8-0.8-1c2.3-0.5,4.9-1.7,6.6-3h-6.1v-1h7.3v-1.5h-5.6v-1h5.6v-1.4h-6.5v-1h4.1
		c-0.2-0.6-0.6-1.3-0.9-1.9l0.7-0.1h-4.6v-1.1h3c-0.3-0.8-0.9-1.9-1.5-2.7l1-0.4c0.6,0.8,1.3,2,1.6,2.7l-1,0.4h2.4v-3.3l1.5,0.1
		c0,0.2-0.2,0.3-0.4,0.3v2.9h2.3v-3.3l1.6,0.1c0,0.2-0.2,0.3-0.4,0.3v2.9H59c-0.2-0.1-0.5-0.2-0.7-0.3c0.5-0.8,1.2-2,1.5-2.8
		l1.4,0.5c0,0.1-0.2,0.2-0.4,0.2c-0.4,0.7-1,1.7-1.5,2.4h3v1.1h-4.1l0.5,0.2c-0.1,0.1-0.2,0.2-0.4,0.2c-0.3,0.5-0.6,1.2-1,1.7h4.3v1
		h-6.7v1.4h5.8v1h-5.8v1.5h7.4L62.3,493.5L62.3,493.5z M56.1,487.5c0.3-0.5,0.7-1.3,1-1.9h-5.6c0.4,0.6,0.8,1.4,1,1.9l-0.6,0.1h4.4
		L56.1,487.5z"/>
	<path class="st3" d="M79.3,482.5v13.7c0,1.7-0.8,1.7-4.2,1.6c-0.1-0.3-0.3-0.8-0.4-1.2c0.7,0,1.3,0,1.8,0c1.5,0,1.6,0,1.6-0.5v-3.9
		h-5.2v5.5h-1.2v-5.5H67c-0.3,2.1-0.9,4.2-2.3,5.7c-0.2-0.2-0.6-0.6-0.9-0.8c2-2.3,2.2-5.5,2.2-8.1v-6.6h13.3V482.5z M67.2,489.1
		c0,0.6,0,1.3-0.1,2h4.6V488h-4.6L67.2,489.1L67.2,489.1z M71.8,483.6h-4.6v3.2h4.6V483.6z M78.1,486.8v-3.2h-5.2v3.2H78.1z
		 M72.9,491.1h5.2V488h-5.2V491.1z"/>
	<path class="st3" d="M98.2,483.6h-5.6c-0.1,0.1-0.3,0.2-0.5,0.1c-0.4,0.8-0.9,1.5-1.4,2.3l0.5,0.1c0,0.1-0.1,0.2-0.4,0.2v11.5h-1.2
		v-10.4c-1.9,2.3-4.2,4.5-6.9,6c-0.2-0.3-0.6-0.8-0.8-1c3.7-2.1,7-5.5,8.8-8.9h-8.3v-1.2h15.7v1.3H98.2z M97.7,493.3
		c-1.3-1.3-4.1-3.3-6.2-4.6l0.9-0.8c2.2,1.3,4.9,3.2,6.3,4.5L97.7,493.3z"/>
	<path class="st3" d="M115.8,485.5h0.6c0,0.1,0,0.3,0,0.4c-0.2,7.9-0.4,10.5-1,11.2c-0.5,0.7-1.1,0.7-1.9,0.7c-0.4,0-1,0-1.5,0
		c0-0.3-0.2-0.8-0.3-1.2c0.9,0.1,1.7,0.1,2.1,0.1c0.2,0,0.4-0.1,0.5-0.3c0.4-0.5,0.7-3,0.8-9.8h-2.7c0,3.7-0.4,8.2-3.9,11.3
		c-0.2-0.2-0.6-0.6-0.9-0.8c0.3-0.3,0.6-0.6,0.9-1c-3,0.4-6.1,0.8-8,1c0,0.1-0.1,0.2-0.3,0.3l-0.4-1.3c1.1-0.1,2.5-0.2,4-0.4V494
		h-3.5v-1h3.5v-1.1h-3.4v-5.3h3.4v-1.3h-4v-1h4v-1.3c-1.2,0.1-2.4,0.2-3.5,0.3c-0.1-0.3-0.2-0.6-0.3-0.9c2.7-0.2,6-0.5,7.7-1
		l0.9,0.9c0,0-0.1,0-0.2,0c-0.1,0-0.1,0-0.2,0c-0.8,0.2-1.9,0.4-3.1,0.5c-0.1,0.1-0.1,0.1-0.3,0.1v1.3h4v1h-4v1.3h3.6v5.3h-3.6v1.2
		h3.7v1h-3.7v1.6c1.2-0.1,2.5-0.3,3.7-0.4v0.8c2.3-2.9,2.6-6.5,2.6-9.4h-2.3v-1.1h2.3v-4.2l1.5,0.1c0,0.1-0.1,0.2-0.3,0.2v3.8
		L115.8,485.5L115.8,485.5z M101.6,487.5v1.3h2.3v-1.3H101.6z M101.6,491h2.3v-1.4h-2.3V491z M107.6,487.5h-2.5v1.3h2.5V487.5z
		 M107.6,491v-1.4h-2.5v1.4H107.6z"/>
	<path class="st3" d="M131.1,484.3c-0.1,0.1-0.2,0.2-0.4,0.1c-0.3,0.7-0.8,1.6-1.2,2.3h4.9v1.1h-13.8v1.8c0,2.4-0.3,6-1.9,8.4
		c-0.2-0.3-0.7-0.6-0.9-0.8c1.5-2.3,1.7-5.5,1.7-7.7v-2.8h3.6c-0.1-0.7-0.6-1.7-1-2.5l1-0.3h-3.9v-1h6.5v-1.7l1.6,0.1
		c0,0.1-0.1,0.2-0.4,0.3v1.4h6.6v1.1H130L131.1,484.3z M128.3,494v2.4h6.1v1.1h-13.1v-1.1h5.8V494h-4.1v-1h4.1v-2h-3.5
		c-0.4,0.7-0.9,1.3-1.3,1.8c-0.2-0.2-0.6-0.4-0.9-0.6c0.9-0.9,1.8-2.4,2.3-3.9l1.4,0.4c-0.1,0.1-0.2,0.2-0.4,0.2
		c-0.1,0.4-0.3,0.7-0.5,1.1h3v-1.7l1.5,0.1c0,0.1-0.1,0.2-0.3,0.3v1.4h5v1h-5v2h4.6v1h-4.7V494z M128.5,486.5
		c0.4-0.7,0.8-1.7,1.1-2.5h-6.4c0.5,0.8,0.9,1.8,1.1,2.5l-0.9,0.3h5.9L128.5,486.5z"/>
</g>
<g class="st2">
	<path d="M410.7,91.5V77.2h1.9v5.9h7.4v-5.9h1.9v14.3H420v-6.7h-7.4v6.7H410.7z"/>
	<path d="M424.2,86.3c0-1.9,0.5-3.3,1.6-4.3c0.9-0.8,2-1.2,3.3-1.2c1.4,0,2.6,0.5,3.5,1.4s1.4,2.2,1.4,3.9c0,1.3-0.2,2.4-0.6,3.1
		s-1,1.4-1.7,1.8s-1.6,0.6-2.5,0.6c-1.5,0-2.6-0.5-3.5-1.4S424.2,88.1,424.2,86.3z M426,86.3c0,1.3,0.3,2.3,0.9,3s1.3,1,2.2,1
		c0.9,0,1.6-0.3,2.2-1s0.9-1.7,0.9-3s-0.3-2.3-0.9-2.9s-1.3-1-2.2-1c-0.9,0-1.6,0.3-2.2,1S426,85,426,86.3z"/>
	<path d="M442.8,91.5V90c-0.8,1.2-1.9,1.8-3.3,1.8c-0.6,0-1.2-0.1-1.7-0.4s-0.9-0.5-1.2-0.9s-0.4-0.8-0.5-1.3
		c-0.1-0.3-0.1-0.9-0.1-1.6v-6.4h1.8V87c0,0.9,0,1.5,0.1,1.9c0.1,0.5,0.3,0.8,0.7,1.1s0.8,0.4,1.3,0.4s1-0.1,1.5-0.4s0.8-0.6,1-1.1
		s0.3-1.1,0.3-2v-5.6h1.8v10.4h-1.7V91.5z"/>
	<path d="M446.4,88.3l1.7-0.3c0.1,0.7,0.4,1.2,0.8,1.6s1.1,0.6,1.9,0.6s1.4-0.2,1.8-0.5s0.6-0.7,0.6-1.2c0-0.4-0.2-0.7-0.5-0.9
		c-0.2-0.2-0.8-0.4-1.8-0.6c-1.3-0.3-2.2-0.6-2.7-0.8s-0.9-0.6-1.1-1s-0.4-0.9-0.4-1.4s0.1-0.9,0.3-1.3s0.5-0.7,0.9-1
		c0.3-0.2,0.6-0.4,1.1-0.5s1-0.2,1.5-0.2c0.8,0,1.5,0.1,2.1,0.4s1.1,0.6,1.4,1s0.5,0.9,0.6,1.6l-1.7,0.2c-0.1-0.5-0.3-1-0.7-1.3
		s-0.9-0.4-1.6-0.4c-0.8,0-1.4,0.1-1.7,0.4s-0.5,0.6-0.5,0.9c0,0.2,0.1,0.4,0.2,0.6s0.4,0.3,0.7,0.5c0.2,0.1,0.7,0.2,1.6,0.4
		c1.2,0.3,2.1,0.6,2.6,0.8s0.9,0.5,1.2,0.9s0.4,0.9,0.4,1.5s-0.2,1.1-0.5,1.7s-0.8,0.9-1.5,1.2s-1.4,0.4-2.2,0.4
		c-1.3,0-2.4-0.3-3.1-0.8S446.6,89.5,446.4,88.3z"/>
	<path d="M464.2,88.2l1.8,0.2c-0.3,1.1-0.8,1.9-1.6,2.5s-1.8,0.9-3,0.9c-1.5,0-2.7-0.5-3.6-1.4s-1.3-2.2-1.3-3.9
		c0-1.7,0.4-3.1,1.3-4.1s2.1-1.4,3.5-1.4s2.5,0.5,3.4,1.4s1.3,2.3,1.3,4c0,0.1,0,0.3,0,0.5h-7.7c0.1,1.1,0.4,2,1,2.6
		s1.3,0.9,2.2,0.9c0.6,0,1.2-0.2,1.7-0.5S463.9,88.8,464.2,88.2z M458.4,85.3h5.8c-0.1-0.9-0.3-1.5-0.7-2c-0.6-0.7-1.3-1-2.2-1
		c-0.8,0-1.5,0.3-2,0.8S458.5,84.3,458.4,85.3z"/>
	<path d="M472.1,91.5V78.8h-4.7v-1.7h11.3v1.7H474v12.6C474,91.4,472.1,91.4,472.1,91.5z"/>
	<path d="M477.6,86.3c0-1.9,0.5-3.3,1.6-4.3c0.9-0.8,2-1.2,3.3-1.2c1.4,0,2.6,0.5,3.5,1.4s1.4,2.2,1.4,3.9c0,1.3-0.2,2.4-0.6,3.1
		s-1,1.4-1.7,1.8s-1.6,0.6-2.5,0.6c-1.5,0-2.6-0.5-3.5-1.4S477.6,88.1,477.6,86.3z M479.4,86.3c0,1.3,0.3,2.3,0.9,3s1.3,1,2.2,1
		c0.9,0,1.6-0.3,2.2-1s0.9-1.7,0.9-3s-0.3-2.3-0.9-2.9s-1.3-1-2.2-1c-0.9,0-1.6,0.3-2.2,1S479.4,85,479.4,86.3z"/>
	<path d="M489.3,91.5V77.2h1.8v8.2l4.2-4.2h2.3l-4,3.8l4.4,6.5h-2.2l-3.4-5.3l-1.2,1.2v4.1C491.2,91.4,489.3,91.4,489.3,91.5z"/>
	<path d="M506.4,88.2l1.8,0.2c-0.3,1.1-0.8,1.9-1.6,2.5s-1.8,0.9-3,0.9c-1.5,0-2.7-0.5-3.6-1.4s-1.3-2.2-1.3-3.9
		c0-1.7,0.4-3.1,1.3-4.1s2.1-1.4,3.5-1.4s2.5,0.5,3.4,1.4s1.3,2.3,1.3,4c0,0.1,0,0.3,0,0.5h-7.7c0.1,1.1,0.4,2,1,2.6
		s1.3,0.9,2.2,0.9c0.6,0,1.2-0.2,1.7-0.5S506.2,88.8,506.4,88.2z M500.7,85.3h5.8c-0.1-0.9-0.3-1.5-0.7-2c-0.6-0.7-1.3-1-2.2-1
		c-0.8,0-1.5,0.3-2,0.8S500.7,84.3,500.7,85.3z"/>
	<path d="M510.5,91.5V81.1h1.6v1.5c0.8-1.1,1.9-1.7,3.3-1.7c0.6,0,1.2,0.1,1.7,0.3s0.9,0.5,1.2,0.9c0.3,0.4,0.4,0.8,0.5,1.3
		c0.1,0.3,0.1,0.9,0.1,1.7v6.4h-1.8v-6.3c0-0.7-0.1-1.3-0.2-1.6c-0.1-0.3-0.4-0.6-0.7-0.8c-0.3-0.2-0.8-0.3-1.2-0.3
		c-0.7,0-1.4,0.2-1.9,0.7s-0.8,1.4-0.8,2.7v5.7L510.5,91.5L510.5,91.5z"/>
	<path d="M527.3,91.5V77.2h1.9v12.6h7.1v1.7C536.3,91.4,527.3,91.4,527.3,91.5z"/>
	<path d="M540.6,91.5V78.8h-4.7v-1.7h11.3v1.7h-4.7v12.6C542.5,91.4,540.6,91.4,540.6,91.5z"/>
	<path d="M549.2,91.5V77.2h4.9c1.1,0,2,0.1,2.5,0.2c0.8,0.2,1.5,0.5,2.1,1c0.8,0.6,1.3,1.5,1.7,2.4s0.6,2.1,0.6,3.4
		c0,1.1-0.1,2.1-0.4,2.9s-0.6,1.5-1,2.1c-0.4,0.6-0.8,1-1.3,1.3s-1,0.6-1.7,0.7s-1.4,0.2-2.3,0.2h-5.1V91.5z M551.1,89.8h3.1
		c0.9,0,1.7-0.1,2.2-0.3s1-0.4,1.3-0.7c0.4-0.4,0.8-1.1,1-1.8s0.4-1.7,0.4-2.8c0-1.5-0.2-2.6-0.7-3.5s-1.1-1.3-1.8-1.6
		c-0.5-0.2-1.3-0.3-2.5-0.3h-3V89.8z"/>
	<path d="M404.3,119.7c-1-1.2-1.8-2.7-2.5-4.3s-1-3.3-1-5.1c0-1.5,0.3-3,0.8-4.5c0.6-1.6,1.5-3.3,2.7-4.9h1.3
		c-0.8,1.4-1.3,2.3-1.6,2.9c-0.4,0.9-0.7,1.8-0.9,2.8c-0.3,1.2-0.4,2.4-0.4,3.7c0,3.1,1,6.3,2.9,9.4H404.3z"/>
	<path d="M424.2,103.8v1.4h-5c-0.1,0.1-0.2,0.2-0.4,0.2c-0.6,4.6-2.5,8.7-6.7,11.1c-0.3-0.3-0.9-0.7-1.2-0.9c4.1-2.2,6-6,6.5-10.5
		h-5.6c-0.9,1.6-2.1,3.1-3.2,4.1c-0.3-0.2-0.9-0.5-1.3-0.7c2.2-1.9,4.5-5.8,5.4-9.5l1.9,0.4c0,0.1-0.2,0.3-0.5,0.3
		c-0.4,1.2-1.1,2.8-1.7,4L424.2,103.8L424.2,103.8z"/>
	<path d="M441.6,100.5c-0.1,0.1-0.2,0.2-0.4,0.2c-0.1,0-0.1,0-0.2,0c-1.5,1.6-3.8,3.4-5.7,4.8c0.2,0.1,0.4,0.2,0.5,0.2
		c0,0.1-0.2,0.2-0.4,0.3v10.7h-1.5v-10.3c-2.1,1.5-4.9,3.1-7.6,4.5c-0.2-0.3-0.6-0.8-0.8-1.1c5.5-2.5,11.4-6.8,14.7-10.3
		L441.6,100.5z"/>
	<path d="M461.5,102.5c-0.1,0.1-0.2,0.2-0.3,0.2c-1.9,2.8-5,5.8-8.1,8c1.5,1.2,3.1,2.8,4.1,3.9l-1.2,1.1c-2.1-2.5-6-5.8-9.4-7.7l1-1
		c1.4,0.8,3,1.9,4.5,3c2.7-1.9,5.4-4.5,7-6.8h-14.7v-1.4h15.7l0.2-0.1L461.5,102.5z"/>
	<path d="M465,100.8c2.1,0.7,4.5,1.7,6,2.7l-0.8,1.3c-1.4-1-3.8-2.1-5.8-2.8L465,100.8z M464.9,114.7c7.1-2.2,11.8-6.2,14.2-11.7
		c0.4,0.3,0.9,0.6,1.3,0.8c-2.5,5.5-7.4,9.7-14.2,12c0,0.2-0.1,0.4-0.3,0.5L464.9,114.7z"/>
	<path d="M489.3,102v1.1h-7.1V102H489.3z M488.8,110.2v5.9h-4.6v0.9H483v-6.8H488.8z M488.8,104.7v1.1h-5.7v-1.1H488.8z
		 M483.1,108.5v-1.1h5.7v1.1H483.1z M488.7,99.3v1.1h-5.5v-1.1H488.7z M487.7,111.3h-3.4v3.6h3.4V111.3z M500.8,106.2h-4.7
		c-0.8,0.8-1.6,1.6-2.5,2.2h6.1v8.7h-1.3v-0.8H493v0.8h-1.3v-7.4c-0.7,0.4-1.4,0.9-2.1,1.2c-0.2-0.3-0.6-0.8-0.9-1
		c2-1,3.8-2.2,5.5-3.8h-4.9v-1.2h4.2v-2.7h-3.4V101h3.4v-2.4l1.7,0.1c0,0.1-0.1,0.2-0.4,0.3v2h2.7v1.2h-2.7v2.8h0.7
		c1.4-1.5,2.6-3.2,3.5-5.1l1.5,0.6c-0.1,0.2-0.3,0.2-0.5,0.2c-0.8,1.5-1.8,3-2.9,4.3h3.6L500.8,106.2L500.8,106.2z M498.3,111.8
		v-2.2H493v2.2H498.3z M493,115.3h5.3v-2.3H493V115.3z"/>
	<path d="M514.4,115.7h-9.7v1h-1.3v-4.2l1.6,0.1c0,0.1-0.1,0.2-0.4,0.3v1.8h3.6v-2.6l1.7,0.1c0,0.1-0.1,0.2-0.4,0.3v2.3h3.6v-2.2
		l1.7,0.1c0,0.1-0.1,0.2-0.4,0.3L514.4,115.7L514.4,115.7z M520.6,109.2h-14.1v1.5h12.4h0.3l0.8,0.2c0,0.1,0,0.3-0.1,0.4
		c-0.3,3.6-0.6,5-1.1,5.5c-0.4,0.4-0.8,0.5-2,0.5c-0.5,0-1.2,0-1.9-0.1c0-0.4-0.2-0.9-0.3-1.2c1,0.1,2.1,0.1,2.4,0.1
		c0.4,0,0.6,0,0.7-0.2c0.3-0.3,0.6-1.5,0.8-4.1h-13.3v-11.5h4.7c0.3-0.6,0.6-1.2,0.7-1.7l1.7,0.4c0,0.1-0.2,0.2-0.4,0.2
		c-0.2,0.3-0.4,0.7-0.6,1.1h6.3v6.3h-11.1v1.5h14.1V109.2z M516.2,101.3h-9.7v1.6h9.7V101.3z M506.4,105.6h9.7v-1.7h-9.7V105.6z"/>
	<path d="M532.7,98.7c-0.1,0.2-0.2,0.3-0.4,0.3c2,2.7,5.6,5.4,8.7,6.8c-0.3,0.3-0.6,0.8-0.9,1.2c-3.2-1.6-6.8-4.3-8.7-7
		c-1.7,2.5-5,5.3-8.5,7.1c-0.2-0.3-0.5-0.8-0.8-1.1c3.5-1.7,7-4.7,8.6-7.4L532.7,98.7z M523.2,110.1v-1.3H540v1.3h-9.6l0.2,0.1
		c-0.1,0.1-0.2,0.2-0.5,0.2c-0.6,1.4-1.5,3.2-2.4,4.6c2.7-0.1,5.8-0.2,8.8-0.3c-0.9-1-1.9-2.1-2.9-3l1.1-0.6
		c1.9,1.6,3.9,3.8,4.8,5.3l-1.2,0.8c-0.3-0.4-0.6-0.9-1-1.4c-4.9,0.3-10,0.5-13.2,0.6c0,0.2-0.2,0.3-0.3,0.3l-0.5-1.6
		c0.8,0,1.8,0,2.9-0.1c0.8-1.4,1.8-3.4,2.4-5L523.2,110.1L523.2,110.1z M526.6,104.8h9.7v1.3h-9.7V104.8z"/>
	<path d="M550.5,102.8c0,0.1-0.1,0.2-0.2,0.2c-0.7,1.7-1.7,3.3-2.9,4.7c1,0.6,2.9,2.1,3.4,2.5l-0.8,1.1c-0.6-0.6-1.8-1.6-2.8-2.4
		v8.2h-1.3v-7.7c-1,1-2.1,1.9-3.1,2.6c-0.1-0.3-0.5-0.9-0.7-1.2c2.5-1.6,5.2-4.3,6.6-7.3h-6.1v-1.2h3.3v-3.8l1.7,0.1
		c0,0.1-0.1,0.2-0.4,0.3v3.4h2.2l0.2-0.1L550.5,102.8z M556.2,115.3h4.8v1.3h-11.4v-1.3h5.2v-8.7h-4.4v-1.3h4.4v-6.6l1.8,0.1
		c0,0.1-0.1,0.2-0.4,0.3v6.2h4.4v1.3h-4.4V115.3z"/>
	<path d="M561.8,117.1c2.2-1.8,4-5.2,4-9.2c0-4.1-1.8-7.4-4-9.2v-0.1h1.2c2,1.8,3.8,5.2,3.8,9.3s-1.8,7.5-3.8,9.3L561.8,117.1
		L561.8,117.1z"/>
</g>
</svg>
