<?xml version="1.0" encoding="utf-8"?>
<!-- Generator: Adobe Illustrator 23.0.0, SVG Export Plug-In . SVG Version: 6.00 Build 0)  -->
<svg version="1.1" id="运作原理" xmlns="http://www.w3.org/2000/svg" xmlns:xlink="http://www.w3.org/1999/xlink" x="0px"
	 y="0px" viewBox="0 0 705 383" style="enable-background:new 0 0 705 383;" xml:space="preserve">
<style type="text/css">
	.st0{fill:none;stroke:#90A7AB;}
	.st1{fill:none;stroke:#70DBCB;}
	.st2{fill:#9FE7DD;stroke:#34B9A1;stroke-width:2;}
	.st3{enable-background:new    ;}
	.st4{fill:#456E68;}
	.st5{fill:none;stroke:#456E68;stroke-width:1.5;stroke-miterlimit:10;}
	.st6{fill:#70DBCB;}
</style>
<path id="形状_1_拷贝_3" class="st0" d="M63.1,175.9l0.1,71.4l4.6-2"/>
<path id="形状_1_拷贝_5" class="st0" d="M622,153l-0.1-71l-4.6,2"/>
<path id="形状_1" class="st0" d="M108,89h90.5l42.5,42.5l-0.3-5.5"/>
<path id="形状_1_拷贝_2" class="st0" d="M240.7,162h-90.2l-42.4-42.9l0.3,5.6"/>
<path id="形状_1_拷贝" class="st0" d="M560,201h-88.4L430,242.3l0.3-5.4"/>
<path id="形状_1_拷贝_4" class="st0" d="M430.3,272h88.2l41.4-41.7l-0.3,5.4"/>
<circle id="椭圆_7-2" class="st1" cx="487.3" cy="167" r="19"/>
<circle id="椭圆_6" class="st2" cx="339" cy="187" r="94"/>
<g class="st3">
	<path class="st4" d="M646.4,186.4H638v8.4h8.4V186.4z M643.6,192h-2.8v-2.8h2.8V192z"/>
	<path class="st4" d="M657.6,186.4h-8.4v8.4h8.4V186.4z M654.8,192H652v-2.8h2.8V192z"/>
	<path class="st4" d="M646.4,197.6H638v8.4h8.4V197.6z M643.6,203.2h-2.8v-2.8h2.8V203.2z"/>
	<path class="st4" d="M657.6,197.6h-8.4v8.4h8.4V197.6z M654.8,203.2H652v-2.8h2.8V203.2z"/>
	<path class="st4" d="M646.4,217.2v-8.4H638v8.4H646.4z M640.8,211.6h2.8v2.8h-2.8V211.6z"/>
	<path class="st4" d="M657.6,208.8h-8.4v8.4h8.4V208.8z M654.8,214.4H652v-2.8h2.8V214.4z"/>
	<path class="st4" d="M666,183.6v-2.8h-2.8v-5.6h-2.8v-5.6h-25.2v5.6h-2.8v5.6h-2.8v2.8h2.8V220h-11.2v-16.8h2.8v-8.4h-2.8v-2.1
		l-19.6-13.6l-8.4,5.8v-4.3h-8.4v10.1l-2.8,1.9v2.1h-2.8v8.4h2.8v17.1c-1.6,0.6-2.8,2.1-2.8,3.9v2.8c0,2.3,1.9,4.2,4.2,4.2h27.3
		c-2.2,2.7-3.5,6.1-3.5,9.8c0,8.5,6.9,15.4,15.4,15.4S638,249.5,638,241c0-3.7-1.3-7.1-3.5-9.8h27.3c2.3,0,4.2-1.9,4.2-4.2v-2.8
		c0-1.8-1.2-3.4-2.8-3.9v-36.7H666z M638,172.4h19.6v2.8H638V172.4z M635.2,178h25.2v2.8h-25.2V178z M587.6,183.4h2.8v3.5l-2.8,1.9
		V183.4z M584.8,194.2l16.8-11.6l16.8,11.6v0.7h-33.6V194.2z M582,197.6h39.2v2.8H582V197.6z M618.4,203.2V220h-11.2v-14H596v14
		h-11.2v-16.8H618.4z M604.4,220h-5.6v-11.2h5.6V220z M622.6,253.6c-6.9,0-12.6-5.7-12.6-12.6c0-6.9,5.7-12.6,12.6-12.6
		s12.6,5.7,12.6,12.6C635.2,248,629.6,253.6,622.6,253.6z M663.2,227c0,0.8-0.6,1.4-1.4,1.4h-30.4c-2.5-1.8-5.5-2.8-8.8-2.8
		s-6.3,1-8.8,2.8h-30.4c-0.8,0-1.4-0.6-1.4-1.4v-2.8c0-0.8,0.6-1.4,1.4-1.4h78.4c0.8,0,1.4,0.6,1.4,1.4V227z M660.4,220h-25.2v-36.4
		h25.2V220z"/>
</g>
<g class="st3">
	<g>
		<g>
			<path class="st4" d="M96.5,278.4H86.4c1-0.8,1.6-1.9,1.6-3.2c0-2.3-1.8-4.1-4.1-4.1s-4.1,1.8-4.1,4.1c0,0.7,0.2,1.3,0.5,1.9
				l-1.5,1.3H58.9c-0.6-1.5-2.1-2.5-3.8-2.5s-3.2,1-3.8,2.5H29c-1.8,0-3.3,1.5-3.3,3.3v8c0,0.6,0.5,1.1,1.1,1.1s1.1-0.5,1.1-1.1v-8
				c0-0.6,0.5-1.1,1.1-1.1h22c0.1,0.4,0.2,0.8,0.3,1.2l-9.1,8.3c-0.6-0.4-1.4-0.7-2.2-0.7c-2.3,0-4.1,1.8-4.1,4.1s1.8,4.1,4.1,4.1
				s4.1-1.8,4.1-4.1c0-0.7-0.2-1.3-0.4-1.8l9.1-8.3c0.7,0.5,1.5,0.7,2.3,0.7c1.2,0,2.2-0.5,3-1.3l7.4,4.4c-0.1,0.3-0.1,0.5-0.1,0.8
				c0,2.3,1.8,4.1,4.1,4.1s4.1-1.8,4.1-4.1c0-0.6-0.1-1.2-0.4-1.7l6.4-5.8h16.9c0.6,0,1.1,0.5,1.1,1.1v26.8c0,0.6,0.5,1.1,1.1,1.1
				s1.1-0.5,1.1-1.1v-26.8C99.8,279.8,98.3,278.4,96.5,278.4z M40,295.4c-1.1,0-1.9-0.9-1.9-1.9c0-1.1,0.9-1.9,1.9-1.9
				s1.9,0.9,1.9,1.9S41.1,295.4,40,295.4z M55.1,281.9c-1.1,0-1.9-0.9-1.9-1.9c0-1.1,0.9-1.9,1.9-1.9S57,279,57,280
				S56.2,281.9,55.1,281.9z M69.5,290c-1.1,0-1.9-0.9-1.9-1.9c0-1.1,0.9-1.9,1.9-1.9s1.9,0.9,1.9,1.9C71.5,289.1,70.6,290,69.5,290z
				 M71.9,284.7c-0.7-0.5-1.5-0.8-2.4-0.8c-1.2,0-2.3,0.5-3.1,1.4l-7.3-4.4c0-0.1,0.1-0.3,0.1-0.4h17.2L71.9,284.7z M83.9,277.1
				c-1.1,0-1.9-0.9-1.9-1.9s0.9-1.9,1.9-1.9s1.9,0.9,1.9,1.9S85,277.1,83.9,277.1z"/>
		</g>
	</g>
	<g>
		<g>
			<path class="st4" d="M99.8,312.8c0-0.6-0.5-1.1-1.1-1.1s-1.1,0.5-1.1,1.1v8.2h-8v-25.7v-4.4v-4.5c0-0.6-0.5-1.1-1.1-1.1h-8.2
				c-0.6,0-1.1,0.5-1.1,1.1v4.5v4.4V321h-4.1v-5.5V311v-4.5c0-0.6-0.5-1.1-1.1-1.1h-8c-0.6,0-1.1,0.5-1.1,1.1v4.5v4.4v5.5h-4.1
				v-19.5V297v-4.5c0-0.6-0.5-1.1-1.1-1.1h-8.2c-0.6,0-1.1,0.5-1.1,1.1v4.5v4.4v6.1c0,0.6,0.5,1.1,1.1,1.1s1.1-0.5,1.1-1.1v-5h6
				v18.4h-6v-9.1c0-0.6-0.5-1.1-1.1-1.1s-1.1,0.5-1.1,1.1v9.1h-4.1v-5.5V311v-4.5c0-0.6-0.5-1.1-1.1-1.1H37c-0.6,0-1.1,0.5-1.1,1.1
				v4.5v4.4v5.5h-8.2v-27c0-0.6-0.5-1.1-1.1-1.1s-1.1,0.5-1.1,1.1v35.9c0,1.8,1.5,3.3,3.3,3.3h23.8l-0.6,5.4h-5
				c-0.6,0-1.1,0.5-1.1,1.1v3.8c0,0.6,0.5,1.1,1.1,1.1h31.5c0.6,0,1.1-0.5,1.1-1.1v-3.8c0-0.6-0.5-1.1-1.1-1.1h-5.2l-0.6-5.4h23.8
				c1.8,0,3.3-1.5,3.3-3.3V322l0,0V312.8L99.8,312.8z M81.5,287.4h6v2.3h-6V287.4z M81.5,291.9h6v2.3h-6V291.9z M81.5,296.3h6v24.6
				h-6V296.3z M67.1,307.6h6v2.3h-6V307.6z M67.1,312.1h6v2.3h-6V312.1z M67.1,316.5h6v4.4h-6V316.5z M52.7,295.9v-2.3h6v2.3H52.7z
				 M52.7,300.3V298h6v2.3H52.7z M38.3,307.6h6v2.3h-6V307.6z M38.3,312.1h6v2.3h-6V312.1z M38.3,316.5h6v4.4h-6V316.5z M77.5,340.7
				v1.6H48.1v-1.6H77.5z M54.3,338.5l0.6-5.4h15.6l0.6,5.4H54.3z M96.5,331H29c-0.6,0-1.1-0.5-1.1-1.1v-6.7h69.7v6.7l0,0
				C97.6,330.5,97.1,331,96.5,331z"/>
		</g>
	</g>
</g>
<g class="st3">
	<g>
		<g>
			<path class="st4" d="M601.9,25.6h-8.5c-0.6,0-1.1,0.5-1.1,1.1V31c0,0.6,0.5,1.1,1.1,1.1h8.5c0.6,0,1.1-0.5,1.1-1.1v-4.3
				C602.9,26.1,602.5,25.6,601.9,25.6z M596.5,29.9h-2.1v-2.1h2.1V29.9z M600.8,29.9h-2.1v-2.1h2.1V29.9z"/>
		</g>
	</g>
	<g>
		<g>
			<path class="st4" d="M601.9,34.1h-8.5c-0.6,0-1.1,0.5-1.1,1.1v4.3c0,0.6,0.5,1.1,1.1,1.1h8.5c0.6,0,1.1-0.5,1.1-1.1v-4.3
				C602.9,34.6,602.5,34.1,601.9,34.1z M596.5,38.4h-2.1v-2.1h2.1V38.4z M600.8,38.4h-2.1v-2.1h2.1V38.4z"/>
		</g>
	</g>
	<g>
		<g>
			<path class="st4" d="M601.9,42.7h-8.5c-0.6,0-1.1,0.5-1.1,1.1V48c0,0.6,0.5,1.1,1.1,1.1h8.5c0.6,0,1.1-0.5,1.1-1.1v-4.3
				C602.9,43.1,602.5,42.7,601.9,42.7z M596.5,46.9h-2.1v-2.1h2.1V46.9z M600.8,46.9h-2.1v-2.1h2.1V46.9z"/>
		</g>
	</g>
	<g>
		<g>
			<path class="st4" d="M640.3,25.6h-8.5c-0.6,0-1.1,0.5-1.1,1.1V31c0,0.6,0.5,1.1,1.1,1.1h8.5c0.6,0,1.1-0.5,1.1-1.1v-4.3
				C641.3,26.1,640.9,25.6,640.3,25.6z M634.9,29.9h-2.1v-2.1h2.1V29.9z M639.2,29.9h-2.1v-2.1h2.1V29.9z"/>
		</g>
	</g>
	<g>
		<g>
			<path class="st4" d="M640.3,17.1h-8.5c-0.6,0-1.1,0.5-1.1,1.1v4.3c0,0.6,0.5,1.1,1.1,1.1h8.5c0.6,0,1.1-0.5,1.1-1.1v-4.3
				C641.3,17.5,640.9,17.1,640.3,17.1z M634.9,21.3h-2.1v-2.1h2.1V21.3z M639.2,21.3h-2.1v-2.1h2.1V21.3z"/>
		</g>
	</g>
	<g>
		<g>
			<path class="st4" d="M614.7,29.9h-4.3c-0.6,0-1.1,0.5-1.1,1.1v4.3c0,0.6,0.5,1.1,1.1,1.1h4.3c0.6,0,1.1-0.5,1.1-1.1V31
				C615.7,30.3,615.3,29.9,614.7,29.9z M613.6,34.1h-2.1V32h2.1V34.1z"/>
		</g>
	</g>
	<g>
		<g>
			<path class="st4" d="M623.2,29.9h-4.3c-0.6,0-1.1,0.5-1.1,1.1v4.3c0,0.6,0.5,1.1,1.1,1.1h4.3c0.6,0,1.1-0.5,1.1-1.1V31
				C624.3,30.3,623.8,29.9,623.2,29.9z M622.1,34.1H620V32h2.1V34.1z"/>
		</g>
	</g>
	<g>
		<g>
			<path class="st4" d="M614.7,21.3h-4.3c-0.6,0-1.1,0.5-1.1,1.1v4.3c0,0.6,0.5,1.1,1.1,1.1h4.3c0.6,0,1.1-0.5,1.1-1.1v-4.3
				C615.7,21.8,615.3,21.3,614.7,21.3z M613.6,25.6h-2.1v-2.1h2.1V25.6z"/>
		</g>
	</g>
	<g>
		<g>
			<path class="st4" d="M623.2,21.3h-4.3c-0.6,0-1.1,0.5-1.1,1.1v4.3c0,0.6,0.5,1.1,1.1,1.1h4.3c0.6,0,1.1-0.5,1.1-1.1v-4.3
				C624.3,21.8,623.8,21.3,623.2,21.3z M622.1,25.6H620v-2.1h2.1V25.6z"/>
		</g>
	</g>
	<g>
		<g>
			<path class="st4" d="M614.7,12.8h-4.3c-0.6,0-1.1,0.5-1.1,1.1v4.3c0,0.6,0.5,1.1,1.1,1.1h4.3c0.6,0,1.1-0.5,1.1-1.1v-4.3
				C615.7,13.3,615.3,12.8,614.7,12.8z M613.6,17.1h-2.1V15h2.1V17.1z"/>
		</g>
	</g>
	<g>
		<g>
			<path class="st4" d="M623.2,12.8h-4.3c-0.6,0-1.1,0.5-1.1,1.1v4.3c0,0.6,0.5,1.1,1.1,1.1h4.3c0.6,0,1.1-0.5,1.1-1.1v-4.3
				C624.3,13.3,623.8,12.8,623.2,12.8z M622.1,17.1H620V15h2.1V17.1z"/>
		</g>
	</g>
	<g>
		<g>
			<path class="st4" d="M614.7,42.7h-4.3c-0.6,0-1.1,0.5-1.1,1.1V48c0,0.6,0.5,1.1,1.1,1.1h4.3c0.6,0,1.1-0.5,1.1-1.1v-4.3
				C615.7,43.1,615.3,42.7,614.7,42.7z M613.6,46.9h-2.1v-2.1h2.1V46.9z"/>
		</g>
	</g>
	<g>
		<g>
			<rect x="592.3" y="51.2" class="st4" width="2.1" height="2.1"/>
		</g>
	</g>
	<g>
		<g>
			<rect x="596.5" y="51.2" class="st4" width="2.1" height="2.1"/>
		</g>
	</g>
	<g>
		<g>
			<rect x="600.8" y="51.2" class="st4" width="2.1" height="2.1"/>
		</g>
	</g>
	<g>
		<g>
			<path class="st4" d="M650.9,38.4h-5.3V13.9c0-0.6-0.5-1.1-1.1-1.1H637v-1.7l1.1-1.1c0.9,0.7,2,1.1,3.1,1.1c1.4,0,2.7-0.5,3.7-1.5
				l0.2-0.2c0.4-0.4,0.4-1.1,0-1.5l-2.4-2.4l2.4-2.4l-1.5-1.5L641.2,4l-3.5-3.5c-0.2-0.2-0.5-0.3-0.8-0.3c-0.4,0-0.7,0.2-0.9,0.4
				c-1.1,1-1.7,2.3-1.7,3.7s0.5,2.9,1.6,3.9l0.5,0.5l-1.4,1.4c-0.2,0.2-0.3,0.5-0.3,0.8V13h-6.4V9.6c0-0.6-0.5-1.1-1.1-1.1h-3.7
				l-6.1-8.1c-0.4-0.5-1.3-0.5-1.7,0l-6.1,8.1h-3.7c-0.6,0-1.1,0.5-1.1,1.1v11.7h-6.4v-8.5h-2.1v8.5h-7.5c-0.6,0-1.1,0.5-1.1,1.1
				v40.5c0,0.6,0.5,1.1,1.1,1.1h17.1h7.5h8.5h1.1h6.4h17.1c2.9,0,5.3-2.4,5.3-5.3V39.5C652,38.9,651.5,38.4,650.9,38.4z M605.1,61.9
				h-14.9V23.5h14.9V61.9z M637.1,2.6l5.8,5.8c-1.2,0.7-2.8,0.6-3.9-0.5l-1.5-1.5c-0.6-0.6-1-1.4-0.9-2.3
				C636.7,3.6,636.8,3.1,637.1,2.6z M616.8,2.8l4.3,5.7h-8.5L616.8,2.8z M612.5,53.3v8.5h-5.3V22.4V10.7h19.2v3.2v19.2h2.1V14.9
				h14.9v23.5h-2.1v-1.1c0-1.8-1.4-3.2-3.2-3.2h-6.4c-1.8,0-3.2,1.4-3.2,3.2v1.1h-9.6c-0.6,0-1.1,0.5-1.1,1.1v11.7h-8.5v2.1H612.5z
				 M639.2,37.3v1.1h-8.5v-1.1c0-0.6,0.5-1.1,1.1-1.1h6.4C638.7,36.3,639.2,36.7,639.2,37.3z M614.7,61.9v-8.5h3.2v5.3
				c0,1.2,0.4,2.3,1.1,3.2H614.7z M649.9,58.7c0,1.8-1.4,3.2-3.2,3.2h-17.1h-6.4c-1.8,0-3.2-1.4-3.2-3.2V48c0.9,0.7,2,1.1,3.2,1.1
				h1.1v3.2c0,0.6,0.5,1.1,1.1,1.1h4.3c0.6,0,1.1-0.5,1.1-1.1v-3.2h1.1h6.4h1.1v3.2c0,0.6,0.5,1.1,1.1,1.1h4.3
				c0.6,0,1.1-0.5,1.1-1.1v-3.2h1.1c1.2,0,2.3-0.4,3.2-1.1v10.7H649.9z M626.4,51.2v-2.1h2.1v2.1H626.4z M632.8,46.9v-2.1h4.3v2.1
				H632.8z M641.3,51.2v-2.1h2.1v2.1H641.3z M649.9,43.7c0,1.8-1.4,3.2-3.2,3.2h-2.1h-4.3h-1.1v-3.2c0-0.6-0.5-1.1-1.1-1.1h-6.4
				c-0.6,0-1.1,0.5-1.1,1.1v3.2h-1.1h-4.3h-2.1c-1.8,0-3.2-1.4-3.2-3.2v-3.2h29.9L649.9,43.7L649.9,43.7z"/>
		</g>
	</g>
	<g>
		<g>
			<rect x="645.6" y="57.6" class="st4" width="2.1" height="2.1"/>
		</g>
	</g>
	<g>
		<g>
			<rect x="641.3" y="57.6" class="st4" width="2.1" height="2.1"/>
		</g>
	</g>
	<g>
		<g>
			<rect x="637.1" y="57.6" class="st4" width="2.1" height="2.1"/>
		</g>
	</g>
</g>
<g>
	<circle class="st5" cx="61.9" cy="57.5" r="16.8"/>
	<line class="st5" x1="48.4" y1="83.8" x2="61.9" y2="99.2"/>
	<line class="st5" x1="75" y1="83.8" x2="61.9" y2="99.2"/>
	<line class="st5" x1="61.9" y1="114.5" x2="61.9" y2="99.2"/>
	<path class="st5" d="M97.9,105.7v3.6c0,3.3-2.7,6-6,6H31.8c-3.3,0-6-2.7-6-6v-3.6"/>
	<path class="st5" d="M31.8,99.7"/>
	<path class="st5" d="M25.8,107.4c0-13.6,11.2-24,24.8-24h22.6c13.6,0,24.7,11.1,24.7,24.7l0,0"/>
</g>
<g id="椭圆_7_1_">
	<path class="st6" d="M487.1,186.5c-10.8,0-19.5-8.7-19.5-19.5s8.7-19.5,19.5-19.5s19.5,8.7,19.5,19.5S497.9,186.5,487.1,186.5z
		 M487.1,148.5c-10.2,0-18.5,8.3-18.5,18.5s8.3,18.5,18.5,18.5s18.5-8.3,18.5-18.5S497.3,148.5,487.1,148.5z"/>
</g>
<g>
	<g>
		<path class="st6" d="M481.4,176.6v-1.1c2.2-0.9,3.3-2.5,3.3-4.8v-2.8h-3v-1.2h3v-3.8c0-1.6,0.4-3,1.3-4s2-1.5,3.5-1.5
			c0.8,0,1.6,0.2,2.4,0.5v1.2c-0.8-0.4-1.6-0.6-2.4-0.6c-1.1,0-1.9,0.4-2.6,1.2c-0.6,0.8-0.9,1.9-0.9,3.4v3.6h4v1.2h-4v2.3
			c0,2.6-0.9,4.3-2.8,5.3h9.7v1.1L481.4,176.6L481.4,176.6z"/>
	</g>
</g>
<g id="椭圆_7-2_1_">
	<path class="st6" d="M195.3,209c-10.8,0-19.5-8.7-19.5-19.5s8.7-19.5,19.5-19.5s19.5,8.7,19.5,19.5S206,209,195.3,209z
		 M195.3,171.1c-10.2,0-18.5,8.3-18.5,18.5s8.3,18.5,18.5,18.5s18.5-8.3,18.5-18.5C213.8,179.3,205.5,171.1,195.3,171.1z"/>
</g>
<g>
	<g>
		<g>
			<path class="st6" d="M189.6,199.1V198c2.2-0.9,3.3-2.5,3.3-4.8v-2.8h-3v-1.2h3v-3.8c0-1.6,0.4-3,1.3-4c0.9-1,2-1.5,3.5-1.5
				c0.8,0,1.6,0.2,2.4,0.5v1.2c-0.8-0.4-1.6-0.6-2.4-0.6c-1.1,0-1.9,0.4-2.6,1.2c-0.6,0.8-0.9,1.9-0.9,3.4v3.6h4v1.2h-4v2.3
				c0,2.6-0.9,4.3-2.8,5.3h9.7v1.1L189.6,199.1L189.6,199.1z"/>
		</g>
	</g>
</g>
<g>
	<path class="st4" d="M617.2,248.8v-1.7c1.8-0.5,2.7-1.7,2.7-3.4v-2h-2.4V240h2.4v-2.8c0-1.4,0.4-2.5,1.3-3.4c0.9-0.9,2-1.4,3.3-1.4
		c0.9,0,1.8,0.1,2.5,0.5v1.9c-0.8-0.5-1.7-0.6-2.4-0.6c-1.8,0-2.7,1.1-2.7,3.3v2.5h3.6v1.7h-3.6v1.7c0,1.8-0.8,2.9-2.2,3.8h8.3v1.7
		h-10.8V248.8z"/>
</g>
<g class="st3">
	<path d="M258.2,184.6c2,0.4,4.4,1.3,5.9,2l-0.7,1.4c-1.5-0.7-4-1.6-5.9-2L258.2,184.6z M259.5,195.3c7.2-2.4,12-6.2,15-12.8
		c0.3,0.3,1,0.7,1.3,1c-2.9,6.5-8.1,10.6-14.8,13c0,0.2-0.1,0.5-0.3,0.5L259.5,195.3z M260.6,179.1c2,0.5,4.4,1.4,5.9,2.2l-0.7,1.3
		c-1.6-0.8-3.9-1.7-5.8-2.2L260.6,179.1z"/>
	<path d="M292.2,180.5c0,0.1-0.2,0.2-0.3,0.2c-1.2,2.8-2.6,5.2-4.4,7.6c2.4,1.9,6,5.2,8.1,7.5l-1.3,1.2c-1.9-2.2-5.5-5.6-7.7-7.4
		c-1.9,2.4-5.3,5.6-8.5,7.4c-0.2-0.3-0.8-0.9-1.1-1.2c6.1-3.3,10.9-9.6,12.9-14.4h-10.8v-1.5h11.7l0.3-0.1L292.2,180.5z"/>
	<path d="M316,186.9h-7.4l0.4,0.1c0,0.1-0.2,0.2-0.4,0.3c-0.6,4.1-2.1,7.7-6.8,10.1c-0.3-0.3-0.8-0.8-1.2-1.1
		c4.6-2.2,5.9-5.3,6.4-9.3h-8.6v-1.5h17.7v1.4H316z M313.8,180.7h-13.5v-1.5h13.5V180.7z"/>
	<path d="M335.5,196.8c-0.3-0.7-0.7-1.5-1.2-2.3c-4.6,0.5-12.1,0.9-15.5,1.1c-0.1,0.2-0.2,0.4-0.4,0.4l-0.6-2c0.7,0,1.5,0,2.3-0.1
		c1.5-4.2,3.5-10.8,4.8-15.2l2.1,0.6c-0.1,0.2-0.3,0.3-0.6,0.3c-1.2,4-3.1,9.9-4.6,14.3c3.7-0.2,8.9-0.5,11.8-0.8
		c-1.1-1.9-2.6-3.9-3.9-5.4l1.3-0.7c2.3,2.5,5,6.7,6.1,9.1L335.5,196.8z"/>
	<path d="M343.2,186.4v7.2c1.7,2.6,4.9,2.6,9.1,2.6c2.4,0,5.2,0,7-0.2c-0.2,0.3-0.4,1-0.5,1.5c-1.5,0-3.9,0.1-6.1,0.1
		c-4.8,0-7.9,0-10.1-2.7c-1,1-2,2-2.9,2.7c0,0.2,0,0.3-0.2,0.4l-0.9-1.6c0.9-0.7,2.1-1.7,3.1-2.6v-6h-2.9v-1.4H343.2z M340.2,178.2
		c1.4,1,2.9,2.6,3.6,3.7l-1.2,0.9c-0.6-1.1-2.2-2.7-3.6-3.8L340.2,178.2z M350.8,195.7v-2.3h-6.6v-1.2h6.5v-1.5h-4.9v-6.3h4.9v-1.5
		H345v-1.1h5.7v-1.7l1.9,0.1c0,0.2-0.2,0.3-0.4,0.3v1.3h5.7v1.1h-5.7v1.5h4.9v6.3h-4.9v1.5h6.6v1.2h-6.6v2.3L350.8,195.7
		L350.8,195.7z M346,179.5v1.7h-1.3v-2.9h13.7v2.9H357v-1.7H346z M347.2,185.4v1.6h3.5v-1.6H347.2z M347.2,189.6h3.5V188h-3.5V189.6
		z M355.8,185.4h-3.6v1.6h3.6V185.4z M355.8,189.6V188h-3.6v1.6H355.8z"/>
	<path d="M367.5,178.4c0,0.1-0.2,0.2-0.5,0.2c-1.3,1.6-3.6,3.7-5.5,5.1c-0.2-0.3-0.6-0.9-0.9-1.2c1.8-1.2,4-3.2,5.1-4.8L367.5,178.4
		z M364.1,198.1v-9.7c-0.8,0.9-1.7,1.8-2.5,2.5c-0.2-0.3-0.7-0.9-0.9-1.1c2.1-1.7,4.5-4.6,6-7.4l1.7,0.7c-0.1,0.1-0.2,0.2-0.5,0.2
		c-0.7,1.1-1.4,2.2-2.3,3.3l0.4,0.1c0,0.1-0.2,0.2-0.4,0.3v11.1L364.1,198.1L364.1,198.1z M381.1,185.4v1.4h-3.5v9.3
		c0,1.8-0.7,1.9-5.1,1.9c-0.1-0.4-0.3-1-0.5-1.5c1,0,1.9,0,2.6,0c1.4,0,1.6,0,1.6-0.5v-9.3h-7.7v-1.4h12.6V185.4z M380.3,179v1.4
		h-11V179H380.3z"/>
	<path d="M400.6,190.6h-5.3v5.8c0,1.7-0.7,1.7-4.3,1.7c-0.1-0.4-0.3-0.9-0.5-1.3c0.8,0,1.5,0,2.1,0c1.1,0,1.2,0,1.2-0.4v-5.8h-5.2
		v-7.8h4.3c0.2-0.7,0.5-1.7,0.6-2.5h-7.3v5c0,3.7-0.3,9-2.4,12.7c-0.3-0.3-0.9-0.6-1.3-0.8c2-3.5,2.2-8.4,2.2-11.9v-6.4h18v1.4h-7.5
		c-0.2,0.7-0.5,1.7-0.8,2.5h6.1L400.6,190.6L400.6,190.6z M391.8,192.3c-0.1,0.2-0.2,0.2-0.5,0.2c-1.1,1.7-2.9,3.4-4.4,4.6
		c-0.3-0.2-0.8-0.6-1.1-0.8c1.6-1,3.3-2.8,4.4-4.5L391.8,192.3z M390.1,183.9v2.1h9v-2.1H390.1z M390.1,187.2v2.2h9v-2.2H390.1z
		 M401.9,197c-0.9-1.3-2.8-3.3-4.6-4.6l1.1-0.7c1.7,1.3,3.7,3.2,4.6,4.5L401.9,197z"/>
	<path d="M409.2,186.8v5.5l3-0.9c0,0.1,0,0.3,0.2,1.3c-2.6,0.8-5.3,1.7-7,2.2c0,0.2-0.2,0.3-0.3,0.3l-0.6-1.6c0.9-0.2,2-0.5,3.2-0.9
		v-5.9H405v-1.4h2.7v-5h-2.9V179h7.3v1.4h-2.9v5h2.7v1.4L409.2,186.8L409.2,186.8z M419.2,196h6.2v1.4h-14.2V196h6.6v-3.4h-5.1v-1.3
		h5.1v-2.6h-5v-9.8h11.6v9.8h-5.2v2.6h5.5v1.3h-5.5V196z M414.2,180.2v2.9h3.7v-2.9H414.2z M414.2,187.4h3.7v-3h-3.7V187.4z
		 M423,183.2v-2.9h-3.8v2.9H423z M423,187.4v-3h-3.8v3H423z"/>
</g>
<g class="st3">
	<path class="st4" d="M11.5,354.6c0,0.1-0.2,0.2-0.3,0.2c1.6,2.1,4.4,4.5,6.9,5.8c-0.3,0.3-0.5,0.6-0.7,0.9c-2.5-1.5-5.4-3.9-6.9-6
		c-1.3,2-4,4.4-6.7,6.1c-0.1-0.2-0.4-0.6-0.7-0.8c2.8-1.6,5.6-4.2,6.8-6.3L11.5,354.6z M11,365.2v2.8h6.5v1H3.7v-1h6.2v-2.8H5v-1
		h4.9v-2.7H5.7v-1h9.7v1H11v2.7h5v1H11z"/>
	<path class="st4" d="M31.4,365.1h-1.1v-0.7h-3.2v0.8H26v-5.4h-3.2v7.5h10.6v1H22.8v1.2h-1.1v-9.7h-2.5v-1h2.5v-3.7l1.4,0.1
		c0,0.1-0.1,0.2-0.3,0.2v3.4H26v-4l1.4,0.1c0,0.1-0.1,0.2-0.3,0.2v3.7h3.2V355l1.4,0.1c0,0.1-0.1,0.2-0.3,0.2v3.5h2.5v1h-2.5V365.1z
		 M27,363.3h3.2v-3.5H27V363.3z"/>
	<path class="st4" d="M48.1,361.9h-2.9c1.1,1.3,3,2.4,4.8,3c-0.3,0.2-0.6,0.6-0.7,0.9c-1.3-0.4-2.6-1.2-3.6-2.1c0,0-0.1,0.1-0.2,0.1
		v5.7h-1.1v-6l1.1,0.1c-0.6-0.5-1.1-1-1.5-1.6h-2.8c-0.4,0.5-0.9,1.1-1.5,1.6l1.2,0.1c0,0.1-0.1,0.2-0.3,0.2v0.7
		c0,1.6-0.4,3.7-3.5,5.1c-0.1-0.3-0.5-0.6-0.7-0.8c2.9-1.2,3.2-3,3.2-4.4v-0.8c-1.1,1-2.5,1.7-3.7,2.2c-0.2-0.3-0.5-0.6-0.7-0.9
		c1.8-0.6,3.7-1.7,4.8-3.1h-2.9v-6.7h11.1L48.1,361.9L48.1,361.9z M38.1,356.1v2H42v-2H38.1z M38.1,359v2H42v-2H38.1z M47,358.1v-2
		h-4v2H47z M47,361v-2h-4v2H47z"/>
	<path class="st4" d="M59.3,356.4h-1.5v13.1h-1v-3.3c-1.9,0.3-3.8,0.7-5.1,0.9c0,0.1-0.1,0.2-0.2,0.2l-0.4-1.2
		c0.4,0,0.9-0.1,1.4-0.2v-9.4h-1.4v-1h8.2V356.4z M56.8,358.8v-2.3h-3.3v2.3H56.8z M56.8,362.1v-2.4h-3.3v2.4H56.8z M53.5,363.1v2.6
		c1-0.1,2.2-0.3,3.3-0.5V363h-3.3V363.1z M64.8,356.9l0.7,0.2c0,0.1-0.1,0.2-0.1,0.2c-0.4,3.2-1.3,5.9-2.6,7.9
		c0.9,1.4,2,2.6,3.3,3.3c-0.3,0.2-0.6,0.6-0.8,0.9c-1.3-0.8-2.4-1.9-3.2-3.2c-1,1.3-2.1,2.4-3.3,3.2c-0.2-0.3-0.5-0.7-0.7-0.9
		c1.3-0.7,2.4-1.9,3.4-3.4c-1-1.9-1.7-4.3-2.2-6.9l1-0.2c0.4,2.2,1,4.3,1.9,6c0.9-1.7,1.6-3.8,2-6.2h-5.4v-1.1h5.8L64.8,356.9z"/>
	<path class="st4" d="M73.8,362.4h0.2l0.6,0.1c0,0.1,0,0.2,0,0.3c-0.3,4-0.6,5.6-1.2,6.1c-0.4,0.4-0.9,0.5-2,0.5
		c-0.6,0-1.3,0-2.1-0.1c0-0.3-0.2-0.8-0.4-1.1c1.2,0.1,2.4,0.1,2.8,0.1s0.6,0,0.8-0.2c0.4-0.4,0.7-1.7,0.9-4.8h-4.3
		c-0.1,0.3-0.1,0.6-0.2,0.8l-1.1-0.2c0.3-1.3,0.7-3.4,0.9-5h4.7v-2.8h-5.6v-1h6.7v5.3h-1.1v-0.5h-3.8c-0.1,0.8-0.3,1.6-0.4,2.3h4.6
		V362.4z M79.1,354.8l1.4,0.1c0,0.1-0.1,0.2-0.3,0.2v14.4h-1.1V354.8z"/>
	<path class="st4" d="M83.8,357h10.1H94l1.1,0.8c0,0.1-0.1,0.1-0.2,0.1c-1.3,6-4.1,9.2-9,11c-0.2-0.3-0.5-0.7-0.7-0.9
		c4.7-1.7,7.3-4.7,8.4-9.9h-9.9L83.8,357L83.8,357z M96,354.1c1,0,1.7,0.8,1.7,1.8s-0.8,1.7-1.7,1.7c-1,0-1.8-0.8-1.8-1.7
		C94.3,354.9,95,354.1,96,354.1z M97.3,355.9c0-0.7-0.5-1.2-1.2-1.2s-1.2,0.5-1.2,1.2s0.6,1.2,1.2,1.2
		C96.8,357.1,97.3,356.5,97.3,355.9z"/>
	<path class="st4" d="M110.9,360.3c0,0.1-0.1,0.1-0.2,0.2c-1.3,4.8-4,7.2-8.8,8.5c-0.1-0.3-0.4-0.7-0.7-0.9c4.4-1.1,7.1-3.3,8.1-7
		H98.8V360h11.1l0.2-0.1L110.9,360.3z M109.4,356.8h-9.1v-1h9.1V356.8z"/>
	<path class="st4" d="M114.5,359.4c0.5,1,1,2.5,1.2,3.4l-0.9,0.2c-0.2-0.9-0.7-2.4-1.2-3.4L114.5,359.4z M124,359.5
		c0,0.1-0.2,0.2-0.3,0.2c-1.2,4.7-3.6,7.5-7.5,9.1c-0.1-0.2-0.4-0.6-0.6-0.7c3.8-1.5,6-4.1,7.2-8.9L124,359.5z M118.4,358.6
		c0.3,1.1,0.6,2.6,0.8,3.6l-0.9,0.2c-0.1-1-0.4-2.5-0.8-3.6L118.4,358.6z"/>
	<path class="st4" d="M135.8,363.6c-1.6-0.9-3.9-1.9-5.6-2.6v8h-1.2v-13.9l1.6,0.1c0,0.2-0.1,0.3-0.4,0.3v4.7l0.2-0.3
		c1.9,0.7,4.4,1.8,6,2.7L135.8,363.6z"/>
	<path class="st4" d="M151.4,357.1c0,0.1-0.1,0.1-0.2,0.2c-1.3,6.1-4.4,9.7-9.6,11.5c-0.2-0.3-0.5-0.7-0.7-0.9c5-1.6,8-5.2,9-10
		h-10.5v-1.1h10.9l0.2-0.1L151.4,357.1z"/>
	<path class="st4" d="M164.1,361.7h-3.8l0.1,5.9c0,1.4-1.2,1.4-3,1.4c0-0.2-0.1-0.6-0.2-0.9c0.8,0,1.5,0,1.8,0s0.5-0.3,0.5-0.5v-5.1
		c-1.2,1.8-3.4,3.6-5.4,4.7c-0.2-0.2-0.4-0.5-0.6-0.7c2-1,4.3-3,5.5-4.8h-5v-0.9h5.5V358l1.3,0.1c0,0.1-0.1,0.2-0.3,0.2v2.5h3.8v0.9
		H164.1z"/>
	<path class="st4" d="M166.6,361.2h13.4v1.1h-12.8c-0.1,0.2-0.3,0.3-0.5,0.3L166.6,361.2z"/>
	<path class="st4" d="M194.8,368.6c-0.2-0.5-0.5-1.1-0.8-1.7c-3.3,0.4-8.8,0.7-11.3,0.8c0,0.2-0.2,0.3-0.3,0.3l-0.4-1.4
		c0.5,0,1.1,0,1.7-0.1c1.1-3.1,2.6-7.9,3.5-11.1l1.6,0.4c-0.1,0.1-0.2,0.2-0.5,0.2c-0.9,2.9-2.3,7.2-3.4,10.4
		c2.7-0.1,6.5-0.4,8.6-0.6c-0.8-1.4-1.9-2.8-2.8-3.9l1-0.5c1.7,1.8,3.6,4.9,4.4,6.6L194.8,368.6z"/>
</g>
<g class="st3">
	<path class="st4" d="M44.2,133.9c0.1,0.1,0.1,0.1,0.1,0.2c0,0-0.1,0-0.2,0h-2.5v2.6l1.9-1.1l0.1,0.2l-2,1.5v5.7
		c0,1.1-0.1,1.2-1.1,1.7h-0.1c0,0-0.1,0-0.1-0.1c-0.1-0.5-0.4-0.8-1.7-1.1l0.1-0.3c0.9,0.2,1.5,0.3,1.8,0.3c0.4,0,0.4-0.1,0.4-0.4
		v-5.2c-1.6,1.2-1.8,1.3-1.9,1.6c0,0.1-0.1,0.1-0.1,0.1s-0.1,0-0.1-0.1l-0.7-0.7l2.8-1.6v-3h-1.1c-0.3,0-0.8,0.1-1.1,0.2l-0.4-0.6
		c0.4,0,0.8,0.1,1.2,0.1H41v-1.6c0-0.7,0-1.7-0.1-2.3l1.3,0.6c0.1,0,0.1,0.1,0.1,0.1s0,0.1-0.1,0.1l-0.5,0.3v2.6h1l0.6-0.8
		L44.2,133.9z M53.1,143.9c-0.8,0-1.3,0.2-1.6,0.5c0,0,0,0-0.1,0c0,0-2.1-0.9-3.6-2.4c-1.4,1.3-3.5,2.2-5.7,2.8l-0.1-0.3
		c2.1-0.8,4-1.7,5.3-3.1c-1-1.2-1.7-2.8-2-4.2c-0.1,0-0.3,0.1-0.4,0.1l-0.4-0.6c0.4,0,0.8,0.1,1.2,0.1h3.9l0.4-0.6l1.1,0.7
		c0.1,0.1,0.2,0.1,0.2,0.2c0,0-0.1,0.1-0.2,0.1c-0.4,0.1-0.6,0.3-0.8,0.8c-0.5,1.4-1.2,2.6-2,3.5c1.3,1.1,3.3,1.8,4.8,2
		C53.1,143.5,53.1,143.9,53.1,143.9z M50,134.6c0,0.6,0.1,0.8,0.8,0.8c0.5,0,0.8-0.1,1.2-0.3c0.3,0.2,0.8,0.6,0.8,0.7
		c0,0.2-1.4,0.2-1.9,0.2c-1.3,0-1.6-0.3-1.6-1.2v-3.1h-2.9c-0.3,3.5-0.5,4.2-2.8,5.7l-0.1-0.1c1.8-1.6,2.1-2.3,2.1-5.3
		c0-0.4,0-0.9,0-1.4l1,0.8H49l0.5-0.7l1.1,0.8c0.1,0,0.1,0.1,0.1,0.1s0,0-0.1,0.1l-0.6,0.4V134.6z M45.6,137.3
		c0.4,1.4,1.2,2.8,2.1,3.9c0.9-1.1,1.6-2.5,1.9-3.9H45.6z"/>
	<path class="st4" d="M59,131.4l-2,2.9c-0.4,0.5-0.5,0.8-0.5,1.2c0,0.2,0.2,0.9,0.2,1.1c0,0.4-0.2,0.5-0.5,0.5s-0.4-0.1-0.4-0.5
		c0-0.1,0.1-0.7,0.1-0.9c0-0.4-0.2-0.6-0.6-0.7c-0.5-0.2-0.8-0.2-1.2-0.3v-0.2c0.4,0,0.8,0.1,1.1,0.1c0.6,0,0.8-0.1,1.2-0.6l2.4-2.8
		L59,131.4z M60.6,143.3C60.6,143.3,60.6,143.4,60.6,143.3C60.6,143.4,60.6,143.4,60.6,143.3c-0.2,0.1-0.8,0.2-1.2,0.4
		c-1.1,0.5-3.5,1.2-4.7,1.4l-0.1-0.2c1.9-0.6,3.8-1.5,5-2.3L60.6,143.3z M54.9,130.8c1,0.1,1.9,0.5,2.1,0.9c0.1,0.1,0.1,0.3,0.1,0.4
		c0,0.4-0.3,0.7-0.4,0.7c-0.1,0-0.2,0-0.3-0.4s-0.5-0.9-1.5-1.4L54.9,130.8z M66.7,137.1c0.1,0,0.1,0.1,0.1,0.1s0,0.1-0.1,0.1
		l-0.5,0.3v2.8c0,1,0,1.6,0.1,1.9v0.1c0,0.2-0.1,0.2-0.4,0.4c-0.1,0.1-0.2,0.1-0.3,0.1s-0.1,0-0.1-0.6h-8v0.3c0,0.1,0,0.2-0.4,0.4
		c-0.1,0-0.2,0.1-0.3,0.1s-0.1-0.1-0.1-0.2v-0.1c0-0.6,0-1.2,0-1.8v-2.4c0-0.6,0-1.4,0-1.9l0.9,0.5h7.5l0.5-0.6L66.7,137.1z
		 M65.6,138.7v-1.2h-8v1.2H65.6z M65.6,140.4v-1.3h-8v1.3H65.6z M65.6,142v-1.3h-8v1.3H65.6z M69.1,136.1c-0.8,0.1-1.2,0.3-1.4,0.7
		c0,0,0,0-0.1,0c0,0,0,0-0.1,0c-2.1-0.7-3.4-1.6-4.4-3.2c-1.2,1.9-2.4,2.8-5.1,3.2l-0.1-0.2c2.8-0.8,4.1-1.9,4.8-4l1,0.4
		c0,0,0.1,0,0.1,0.1c0,0-0.4,0.2-0.4,0.3c1.4,2,3.6,2.6,5.8,2.6v0.1H69.1z M68.1,132.4C68.1,132.5,68.2,132.5,68.1,132.4
		c0.1,0.1,0,0.1,0,0.1c-0.7,0.1-1.3,0.4-2.5,1.6l-0.2-0.1l1.1-1.5h-5.9c-0.6,0.8-1.2,1.5-2,2.3l-0.1-0.1c1.2-1.6,2-2.9,2.7-4.7
		l1.2,0.6h0.1c0,0,0,0-0.1,0.1c-0.3,0.1-0.6,0.2-0.7,0.4c-0.2,0.4-0.4,0.8-0.7,1.1h5.6l0.5-0.6L68.1,132.4z M62.7,142.9
		c3.3,0.3,5.2,0.6,5.2,1.6c0,0.2-0.1,0.4-0.3,0.4s-0.4-0.1-1-0.5c-0.5-0.3-2-0.9-4-1.3L62.7,142.9z"/>
	<path class="st4" d="M84.9,135.6c0.1,0.1,0.1,0.1,0.1,0.2c0,0-0.1,0.1-0.2,0.1h-6.4c-1,0.8-2,1.6-3,2.4h5.2l0.5-0.7l1,0.8
		c0.1,0,0.1,0.1,0.1,0.1s0,0.1-0.1,0.1l-0.4,0.3v3.8c0,0.3,0.1,1.8,0.1,1.8c0,0.2-0.1,0.3-0.4,0.4c-0.2,0.1-0.3,0.1-0.3,0.1
		c-0.1,0-0.1-0.1-0.1-0.2v-1.1h-6.2v0.9c0,0.2,0,0.3-0.3,0.4c-0.1,0.1-0.3,0.1-0.3,0.1c-0.1,0-0.1-0.1-0.1-0.4c0-0.3,0-2,0-2.1v-3.4
		c-1.3,0.8-2.6,1.6-3.8,2.2l-0.1-0.2c1.5-0.9,2.8-1.8,4-2.6v-1l0.7,0.5c1.1-0.8,2-1.5,2.8-2.2h-6.1c-0.3,0-0.8,0.1-1.1,0.2l-0.4-0.6
		c0.4,0,0.8,0.1,1.2,0.1h5.2V133h-2.9c-0.3,0-0.8,0.1-1,0.2l-0.4-0.6c0.4,0,0.8,0.1,1.1,0.1h3.2v-1c0-0.6,0-1,0-1.6l1.1,0.4
		c0.1,0,0.1,0.1,0.1,0.1s0,0.1-0.1,0.1l-0.4,0.3v1.6h1.5l0.6-0.8l0.9,1l0.1,0.1c0,0,0,0.1-0.1,0.1h-2.9v2.6h0.9
		c1.8-1.6,3.2-3,4.2-4.4l0.9,0.7c0.1,0,0.1,0.1,0.1,0.1s0,0-0.1,0.1c-0.5,0.1-0.5,0.2-0.7,0.4c-1.1,1.1-2.3,2.2-3.5,3.2h4.3l0.7-1
		L84.9,135.6z M80.9,140.6v-2.1h-6c-0.1,0.1-0.1,0.1-0.2,0.2v2L80.9,140.6L80.9,140.6z M80.9,143.2v-2.3h-6.2v2.3H80.9z"/>
</g>
<g class="st3">
	<path class="st4" d="M138.5,66.4c0.1,0.1,0.2,0.1,0.2,0.1s0,0.1-0.1,0.2l-0.5,0.4v11.5c0,0.8-0.2,1-1.2,1.5c-0.1,0-0.1,0-0.2,0
		c0,0-0.1,0-0.1-0.1c-0.1-0.7-0.4-0.9-2-1.4v-0.2c1,0.2,1.6,0.2,2,0.2c0.6,0,0.7-0.2,0.7-0.6v-4.1h-6.1c-0.2,2.7-1,4.4-4,6.4
		l-0.1-0.2c3-2.7,3.5-4,3.5-9.2v-3.2c0-1,0-1.6,0-2.1l1,0.8h5.5l0.5-0.8L138.5,66.4z M137.3,73.6v-3.2h-6v1c0,0.9,0,1.6-0.1,2.2
		H137.3z M137.3,70.1v-3.3h-5.9l-0.1,3.3H137.3z"/>
	<path class="st4" d="M150.6,66.5c0.1,0.1,0.1,0.1,0.1,0.1s0,0.1-0.1,0.1h-2.5V69h0.9l0.4-0.7l1,0.7l0.1,0.1c0,0,0,0.1-0.1,0.1
		l-0.4,0.3v6.7c0,1.2,0,1.9,0.1,2.5c0,0.1,0,0.1,0,0.1c0,0.2-0.1,0.3-0.4,0.4c-0.2,0.1-0.3,0.1-0.3,0.1c-0.1,0-0.1-0.1-0.1-0.2v-1.2
		h-4.6v1.3c0,0.3-0.5,0.4-0.6,0.4s-0.1-0.1-0.1-0.3v-0.1c0-0.8,0-1.7,0-2.5v-6.5c0-0.6,0-1.6-0.1-2.1l1.1,0.8h0.9c0-0.7,0-1.4,0-2.3
		h-1.5c-0.3,0-0.8,0.1-1.1,0.2l-0.4-0.6c0.4,0,0.8,0.1,1.2,0.1h5.1l0.5-0.8L150.6,66.5z M149.2,75.2v-1.6c-0.3,0-0.6,0-0.8,0
		c-0.9,0-1-0.3-1-1v-3.3h-1c-0.1,2.9-0.5,3.9-1.5,5l-0.1-0.1c0.7-1.2,1-2.4,1.1-4.9h-1.2v5.8L149.2,75.2L149.2,75.2z M149.2,77.8
		v-2.2h-4.6v2.2H149.2z M147.4,69v-2.3h-1c0,0.9,0,1.6-0.1,2.3H147.4z M148.1,72.6c0,0.3,0.1,0.5,0.5,0.5c0.2,0,0.4,0,0.6-0.1v-3.6
		h-1.1V72.6z M156.8,76c0,1.8,0.2,2.2,0.5,2.3c0.1,0,0.1,0.1,0.1,0.1v0.1c-0.3,0.8-0.6,1-1.6,1c-0.9,0-1.8,0-2.7,0
		c-1.5,0-1.6-0.2-1.6-1.6v-5.3c0-0.5,0-1.4,0-1.9l0.9,0.7h3.3V67h-3c-0.3,0-0.8,0.1-1.1,0.2l-0.4-0.6c0.4,0,0.8,0.1,1.2,0.1h3.2
		L156,66l1,0.7c0.1,0,0.1,0.1,0.1,0.1s0,0.1-0.1,0.1l-0.5,0.3v3.1c0,0.6,0,1.2,0.1,1.5c0,0.1,0,0.1,0,0.2c0,0.2-0.1,0.3-0.4,0.4
		c-0.2,0.1-0.3,0.1-0.3,0.1c-0.1,0-0.1-0.1-0.1-0.2v-0.6h-3.5v6.2c0,0.8,0.1,0.9,0.9,0.9c0.4,0,0.8,0,1.2,0s0.9,0,1.3,0
		c0.7,0,0.9-0.4,0.9-2.9h0.2V76z"/>
	<path class="st4" d="M172.1,71.8c0.1,0,0.1,0.1,0.1,0.1s0,0.1-0.1,0.1l-0.6,0.4v4.3c0,1.1,0,2.2,0.1,2.9v0.1c0,0.2-0.1,0.3-0.4,0.4
		c-0.2,0.1-0.3,0.1-0.3,0.1c-0.1,0-0.1-0.1-0.1-0.2v-0.9h-9.4c-0.3,0-0.8,0.1-1.1,0.2l-0.4-0.6c0.4,0,0.8,0.1,1.2,0.1h9.8v-3.4h-8.2
		c-0.3,0-0.8,0.1-1.1,0.2l-0.4-0.6c0.4,0,0.8,0.1,1.2,0.1h8.4v-3h-9.4c-0.3,0-0.8,0.1-1.1,0.2l-0.4-0.6c0.4,0,0.8,0.1,1.2,0.1h4.7
		v-4.1c0-0.7,0-1.7-0.1-2.3l1.3,0.7c0.1,0,0.1,0.1,0.1,0.1s0,0.1-0.1,0.1l-0.6,0.4v5.1h4l0.5-0.7L172.1,71.8z M160.7,66.9
		c1.8,0.9,3.3,2.2,3.3,2.9c0,0.4-0.2,0.8-0.5,0.8c-0.2,0-0.3-0.1-0.4-0.6c-0.3-0.8-0.9-1.9-2.5-3L160.7,66.9z M171.5,67.5
		C171.6,67.5,171.6,67.6,171.5,67.5c0.1,0.1,0,0.1,0,0.2c-0.3,0-0.6,0.2-0.8,0.4l-2.8,3.3l-0.2-0.1c0.8-1.2,2-3,2.8-4.6L171.5,67.5z
		"/>
	<path class="st4" d="M182.8,66.1c0.1,0,0.1,0.1,0.1,0.1l-0.1,0.1c-0.2,0-0.3,0-0.4,0.1c1.8,2.5,4.2,3.8,7.3,4.2v0.2
		c-0.8,0-1.3,0.3-1.5,0.7c0,0,0,0.1-0.1,0.1H188c-2.9-1.3-4.7-2.7-5.8-4.9c0,0-0.1,0.1-0.1,0.2c-1.9,2.4-4.4,4.8-7.4,6.1l-0.1-0.2
		c2.8-1.8,5.7-4.5,7.2-7.2L182.8,66.1z M188.8,79.2c0.1,0.1,0.1,0.1,0.1,0.2s-0.1,0.1-0.2,0.1h-12.3c-0.3,0-0.8,0.1-1.1,0.2
		l-0.4-0.6c0.4,0,0.8,0.1,1.2,0.1h5.6v-4.6h-4c-0.3,0-0.8,0.1-1.1,0.2l-0.4-0.6c0.4,0,0.8,0.1,1.2,0.1h4.4v-2.4h-2.4
		c-0.3,0-0.8,0.1-1.1,0.2l-0.4-0.6c0.4,0,0.8,0.1,1.2,0.1h5.6l0.6-0.8l1,0.9c0.1,0.1,0.1,0.1,0.1,0.1s-0.1,0.1-0.2,0.1h-3.6v2.4h3.6
		l0.6-0.9l1.1,1c0.1,0.1,0.1,0.1,0.1,0.2s-0.1,0.1-0.2,0.1h-5.2v4.6h1.2c0.7-1.3,1.4-2.5,2-3.6l1,0.7c0.1,0,0.1,0.1,0.1,0.1
		s0,0-0.1,0.1c-0.3,0-0.5,0.1-0.7,0.4c-0.3,0.4-1.2,1.5-2,2.4h3.2l0.7-0.8L188.8,79.2z M177.8,75.5c1.2,0.7,2,1.4,2.1,2
		c0,0.1,0,0.2,0,0.4c0,0.5-0.2,0.7-0.4,0.7s-0.4-0.1-0.4-0.4c-0.2-1-0.6-1.7-1.4-2.4L177.8,75.5z"/>
</g>
<g class="st3">
	<path class="st4" d="M464.2,287.4l-2,2.9c-0.4,0.5-0.5,0.8-0.5,1.2c0,0.2,0.2,0.9,0.2,1.1c0,0.4-0.2,0.5-0.5,0.5s-0.4-0.1-0.4-0.5
		c0-0.1,0.1-0.7,0.1-0.9c0-0.4-0.2-0.6-0.6-0.7c-0.5-0.2-0.8-0.2-1.2-0.3v-0.2c0.4,0,0.8,0.1,1.1,0.1c0.6,0,0.8-0.1,1.2-0.6l2.4-2.8
		L464.2,287.4z M465.7,299.3C465.7,299.3,465.8,299.4,465.7,299.3C465.8,299.4,465.7,299.4,465.7,299.3c-0.2,0.1-0.8,0.2-1.2,0.4
		c-1.1,0.5-3.5,1.2-4.7,1.4l-0.1-0.2c1.9-0.6,3.8-1.5,5-2.3L465.7,299.3z M460.1,286.8c1,0.1,1.9,0.5,2.1,0.9
		c0.1,0.1,0.1,0.3,0.1,0.4c0,0.4-0.3,0.7-0.4,0.7c-0.1,0-0.2,0-0.3-0.4s-0.5-0.9-1.5-1.4L460.1,286.8z M471.9,293.1
		c0.1,0,0.1,0.1,0.1,0.1s0,0.1-0.1,0.1l-0.5,0.3v2.8c0,1,0,1.6,0.1,1.9v0.1c0,0.2-0.1,0.2-0.4,0.4c-0.1,0.1-0.2,0.1-0.3,0.1
		s-0.1,0-0.1-0.6h-8v0.3c0,0.1,0,0.2-0.4,0.4c-0.1,0-0.2,0.1-0.3,0.1s-0.1-0.1-0.1-0.2v-0.1c0-0.6,0-1.2,0-1.8v-2.4
		c0-0.6,0-1.4,0-1.9l0.9,0.5h7.5l0.5-0.6L471.9,293.1z M470.7,294.7v-1.2h-8v1.2H470.7z M470.7,296.4v-1.3h-8v1.3H470.7z M470.7,298
		v-1.3h-8v1.3H470.7z M474.2,292.1c-0.8,0.1-1.2,0.3-1.4,0.7c0,0,0,0-0.1,0c0,0,0,0-0.1,0c-2.1-0.7-3.4-1.6-4.4-3.2
		c-1.2,1.9-2.4,2.8-5.1,3.2l-0.1-0.2c2.8-0.8,4.1-1.9,4.8-4l1,0.4c0,0,0.1,0,0.1,0.1c0,0-0.4,0.2-0.4,0.3c1.4,2,3.6,2.6,5.8,2.6
		L474.2,292.1L474.2,292.1z M473.2,288.4C473.3,288.5,473.3,288.5,473.2,288.4c0.1,0.1,0,0.1,0,0.1c-0.7,0.1-1.3,0.4-2.5,1.6
		l-0.2-0.1l1.1-1.5h-5.9c-0.6,0.8-1.2,1.5-2,2.3l-0.1-0.1c1.2-1.6,2-2.9,2.7-4.7l1.2,0.6h0.1c0,0,0,0-0.1,0.1
		c-0.3,0.1-0.6,0.2-0.7,0.4c-0.2,0.4-0.4,0.8-0.7,1.1h5.6l0.5-0.6L473.2,288.4z M467.8,298.9c3.3,0.3,5.2,0.6,5.2,1.6
		c0,0.2-0.1,0.4-0.3,0.4s-0.4-0.1-1-0.5c-0.5-0.3-2-0.9-4-1.3L467.8,298.9z"/>
	<path class="st4" d="M483.3,286.8c0.1,0,0.1,0.1,0.1,0.1l-0.1,0.1c-0.2,0-0.3,0-0.4,0.1c1.8,2.5,4.2,3.8,7.3,4.2v0.2
		c-0.8,0-1.3,0.3-1.5,0.7c0,0,0,0.1-0.1,0.1s-0.1,0-0.1,0c-2.9-1.3-4.7-2.7-5.8-4.9c0,0-0.1,0.1-0.1,0.2c-1.9,2.4-4.4,4.8-7.4,6.1
		l-0.1-0.2c2.8-1.8,5.7-4.5,7.2-7.2L483.3,286.8z M489.3,299.9c0.1,0.1,0.1,0.1,0.1,0.2s-0.1,0.1-0.2,0.1h-12.3
		c-0.3,0-0.8,0.1-1.1,0.2l-0.4-0.6c0.4,0,0.8,0.1,1.2,0.1h5.6v-4.6h-4c-0.3,0-0.8,0.1-1.1,0.2l-0.4-0.6c0.4,0,0.8,0.1,1.2,0.1h4.4
		v-2.4h-2.6c-0.3,0-0.8,0.1-1.1,0.2l-0.4-0.6c0.4,0,0.8,0.1,1.2,0.1h5.6l0.6-0.8l1,0.9c0.1,0.1,0.1,0.1,0.1,0.1s-0.1,0.1-0.2,0.1
		h-3.6v2.4h3.6l0.6-0.9l1.1,1c0.1,0.1,0.1,0.1,0.1,0.2s-0.1,0.1-0.2,0.1h-5.2v4.6h1.2c0.7-1.3,1.4-2.5,2-3.6l1,0.7
		c0.1,0,0.1,0.1,0.1,0.1s0,0-0.1,0.1c-0.3,0-0.5,0.1-0.7,0.4c-0.3,0.4-1.2,1.5-2,2.4h3.2l0.7-0.8L489.3,299.9z M478.3,296.2
		c1.2,0.7,2,1.4,2.1,2c0,0.1,0,0.2,0,0.4c0,0.5-0.2,0.7-0.4,0.7s-0.4-0.1-0.4-0.4c-0.2-1-0.6-1.7-1.4-2.4L478.3,296.2z"/>
</g>
<g class="st3">
	<path class="st4" d="M590,272.8c0.1,0.1,0.2,0.2,0.2,0.3c0,0.1-0.1,0.1-0.2,0.1h-13.1c-0.3,0-0.8,0.1-1.1,0.2l-0.4-0.6
		c0.4,0,0.8,0.1,1.2,0.1h12l0.7-0.9L590,272.8z M588.9,275.6c0.1,0.1,0.1,0.1,0.1,0.2c0,0,0,0.1-0.1,0.2l-0.5,0.3v7.7
		c0,0.9-0.2,1.2-1,1.6c-0.1,0-0.1,0-0.2,0c-0.1,0-0.1,0-0.1-0.1c-0.1-0.5-0.4-0.8-1.9-1.1v-0.3c0.9,0.1,1.5,0.2,1.8,0.2
		c0.5,0,0.5-0.2,0.5-0.5V276h-9.6v6.3c0,1.6,0,2.2,0.1,2.8v0.1c0,0.2,0,0.3-0.4,0.4c-0.1,0.1-0.3,0.1-0.3,0.1
		c-0.1,0-0.2-0.1-0.2-0.3v-0.1c0-0.8,0-2.1,0-3V277c0-0.6,0-1.6-0.1-2.1l1,0.8h5.7c0.6-1,0.9-1.7,1.2-2.4l0.9,0.5
		c0.1,0.1,0.2,0.1,0.2,0.2s-0.1,0.1-0.2,0.1c-0.2,0-0.3,0.1-0.4,0.3l-1.2,1.3h3.1l0.5-0.7L588.9,275.6z M582.1,277.1
		c0.1,0.1,0.2,0.1,0.2,0.2s-0.1,0.1-0.2,0.1c-0.3,0-0.5,0.1-0.6,0.3c-0.8,0.7-1.6,1.5-2.9,2.4l-0.1-0.2c1-0.7,2.1-2,2.9-3.4
		L582.1,277.1z M579.6,273.5c1.5,0.4,2,0.8,2,1.4c0,0.4-0.3,0.7-0.5,0.7s-0.3-0.1-0.4-0.4c-0.2-0.6-0.5-1-1.2-1.5L579.6,273.5z
		 M585.6,279.6c0.1,0,0.1,0.1,0.1,0.1s0,0.1-0.1,0.1l-0.4,0.3v1.4c0,0.5,0,0.9,0.1,1.6v0.1c0,0.2,0,0.3-0.4,0.4
		c-0.1,0-0.2,0.1-0.3,0.1s-0.1-0.1-0.1-0.2V283h-3.4v0.5c0,0.2,0,0.3-0.3,0.4c-0.1,0-0.3,0.1-0.3,0.1c-0.1,0-0.1-0.1-0.1-0.3
		c0-0.3,0-1.8,0-2v-1.2c0-0.4,0-1,0-1.5l0.9,0.6h2.9l0.4-0.6L585.6,279.6z M584.6,282.6v-2.7h-3.4v2.7H584.6z M581.7,270.7
		c1.3,0.4,1.9,0.8,1.9,1.4c0,0.4-0.3,0.7-0.5,0.7s-0.3-0.1-0.3-0.4c-0.1-0.4-0.4-1-1.1-1.6L581.7,270.7z M583.9,276.8
		c1.8,0.6,2.9,1.1,2.9,2c0,0.4-0.2,0.6-0.4,0.6c-0.1,0-0.2-0.1-0.4-0.4c-0.1-0.2-1-1.3-2.3-2L583.9,276.8z"/>
	<path class="st4" d="M606.1,284.2c-1,0.1-1.3,0.4-1.5,0.7c0,0.1-0.1,0.1-0.1,0.1h-0.1c-2.1-0.8-3.8-1.7-4.9-3.6h-0.4v0.9
		c0,1.2,0,2,0.1,2.7v0.1c0,0.2,0,0.3-0.4,0.4c-0.1,0.1-0.3,0.1-0.3,0.1c-0.1,0-0.2-0.1-0.2-0.3v-0.2c0-0.9,0.1-1.9,0.1-2.9v-0.8
		h-0.2c-1.8,1.8-4.3,3.4-6.8,4.1l-0.1-0.3c2.2-0.8,4.5-2.3,5.8-3.8h-4c-0.3,0-0.8,0.1-1.1,0.2l-0.4-0.6c0.4,0,0.8,0.1,1.2,0.1h5.7
		v-1.5h-3.8c-0.3,0-0.8,0.1-1.1,0.2l-0.4-0.6c0.4,0,0.8,0.1,1.2,0.1h4.1v-1.6h-4.7c-0.3,0-0.8,0.1-1.1,0.2l-0.4-0.6
		c0.4,0,0.8,0.1,1.2,0.1h6.1c0.7-1.1,1.2-2,1.5-2.4l1,0.7c0.1,0,0.1,0.1,0.1,0.1s0,0-0.1,0.1c-0.5,0-0.7,0.1-2,1.6h3.4l0.7-0.8
		l0.9,0.9c0.1,0.1,0.1,0.2,0.1,0.2s-0.1,0.1-0.2,0.1h-5.5v1.6h3.6l0.7-0.8l0.8,0.8c0.1,0.1,0.1,0.2,0.1,0.2c0,0.1-0.1,0.1-0.2,0.1
		h-4.9v1.5h4.9l0.7-0.9l0.9,0.9c0.1,0.1,0.1,0.2,0.1,0.2c0,0.1-0.1,0.1-0.2,0.1h-5.7C601.6,283.2,604,284.1,606.1,284.2
		c0.2-0.1,0.3-0.1,0.5-0.1v0.1H606.1z M605.8,274.5c0.1,0.1,0.1,0.2,0.1,0.2c0,0.1-0.1,0.1-0.2,0.1H593c-0.3,0-0.8,0.1-1.1,0.2
		l-0.4-0.6c0.4,0,0.8,0.1,1.2,0.1h4.3v-2c0-0.7,0-1.2,0-1.8l1.2,0.5c0.1,0,0.1,0.1,0.1,0.1s0,0.1-0.1,0.1l-0.4,0.2v2.9h2.1v-2
		c0-0.7,0-1.2,0-1.8l1.3,0.6c0.1,0,0.1,0.1,0.1,0.1s0,0.1-0.1,0.1l-0.5,0.2v2.8h3.7l0.8-0.9L605.8,274.5z M593.5,271.5
		c1.6,0.7,2.3,1.4,2.3,1.9c0,0.6-0.4,0.8-0.6,0.8c-0.2,0-0.3-0.1-0.4-0.6c-0.1-0.4-0.7-1.4-1.5-1.9L593.5,271.5z M595.5,274.9
		c1,0.4,1.9,0.8,1.9,1.5c0,0.3-0.3,0.7-0.5,0.7s-0.3-0.2-0.4-0.5c-0.1-0.5-0.6-1.2-1.1-1.6L595.5,274.9z M604,272.1
		C604,272.2,604,272.2,604,272.1c0.1,0.1,0,0.1,0,0.1c-0.5,0-0.9,0.3-2.8,2L601,274c0.6-0.7,1.8-2.2,2-2.6L604,272.1z"/>
	<path class="st4" d="M620.8,271.7l0.1,0.1c0,0,0,0.1-0.1,0.1l-0.5,0.4v11.6c0,0.6-0.2,0.9-1,1.4h-0.1c-0.1,0-0.1,0-0.1-0.2
		c-0.1-0.5-0.4-0.7-1.9-1v-0.3c0.7,0.1,1.2,0.2,1.6,0.2c0.6,0,0.8-0.2,0.8-0.8v-3.9h-4.3v1.7c0,1.5,0,2.4,0,3.1v0.1
		c0,0.2,0,0.3-0.4,0.4c-0.1,0.1-0.3,0.1-0.3,0.1c-0.1,0-0.1-0.1-0.1-0.4v-0.1c0-1,0-2.1,0-3.2v-1.6h-4.1c0,2.8-1.2,4.8-2.9,6.2
		l-0.2-0.2c2-2.4,2.4-3.7,2.4-8.5v-4.1c0-0.6,0-1.3,0-1.9l1,0.8h8.6l0.5-0.7L620.8,271.7z M614.6,279.1v-3.3h-4c0,1,0,2,0,3.3H614.6
		z M614.6,275.4V272h-4v3.4H614.6z M619.6,275.4V272h-4.3v3.4H619.6z M619.6,279.1v-3.3h-4.3v3.3H619.6z"/>
	<path class="st4" d="M637.9,272.5c0.1,0.1,0.1,0.2,0.1,0.2s-0.1,0.1-0.2,0.1h-5.9c-0.3,0.7-0.8,1.6-1.2,2.3l0.9,0.4
		c0.1,0,0.1,0.1,0.1,0.1s0,0.1-0.1,0.1l-0.4,0.3v5.9c0,1.2,0,2.2,0.1,2.9v0.1c0,0.2-0.1,0.3-0.4,0.4c-0.2,0.1-0.3,0.1-0.4,0.1
		c-0.1,0-0.1-0.1-0.1-0.3v-0.2c0-0.7,0.1-2,0.1-3v-6.7c-2.1,3.3-4.5,5.8-7.2,7.5l-0.1-0.2c3.2-2.5,6.2-6.1,7.8-10h-6
		c-0.3,0-0.8,0.1-1.1,0.2l-0.4-0.6c0.4,0,0.8,0.1,1.2,0.1h11.5l0.7-1L637.9,272.5z M632.5,276.8c3.3,1.8,4.3,2.6,4.8,3.3
		c0.1,0.1,0.2,0.4,0.2,0.7c0,0.4-0.2,0.9-0.4,0.9s-0.4-0.2-0.5-0.6c-0.3-0.8-1.9-2.5-4-4L632.5,276.8z"/>
	<path class="st4" d="M648.4,273.8c0.1,0.1,0.2,0.2,0.2,0.2c0,0.1-0.1,0.1-0.2,0.1h-4v1.4h1.9l0.4-0.6l0.9,0.6
		c0.1,0.1,0.1,0.1,0.1,0.2c0,0,0,0.1-0.1,0.1l-0.4,0.3v1.8c0,0.6,0,1.2,0.1,1.5v0.1c0,0.3-0.7,0.5-0.7,0.5c-0.1,0-0.1,0-0.1-0.5
		h-2.1v1.7h1.7l0.8-0.8l0.8,0.8c0.1,0.1,0.2,0.2,0.2,0.2c0,0.1-0.1,0.1-0.2,0.1h-3.3v1.5l3.2-0.5v0.2l-5.5,1.1
		c-1.1,0.2-1.4,0.3-1.9,0.6h-0.1c0,0-0.1,0-0.1-0.1l-0.4-0.7l4-0.6v-1.6h-2.1c-0.3,0-0.8,0.1-1.1,0.2L640,281c0.4,0,0.8,0.1,1.1,0.1
		h2.5v-1.7h-2.2v0.4c0,0.2-0.1,0.3-0.3,0.4c-0.1,0.1-0.2,0.1-0.3,0.1s-0.1-0.1-0.1-0.2s0-0.2,0-0.3c0-0.3,0-0.9,0-1.7v-1.9
		c0-0.4,0-1.1,0-1.6l0.9,0.7h2v-1.4h-3.2c-0.3,0-0.8,0.1-1,0.2l-0.4-0.6c0.4,0,0.8,0.1,1.1,0.1h3.5v-1.7c-1.3,0.2-2.9,0.4-3.6,0.4
		v-0.2c2-0.3,5.2-1,6.7-1.5l0.8,0.9v0.1c0,0,0,0.1-0.1,0.1c-0.2,0-0.5,0-0.7,0c-0.3,0-0.5,0-0.7,0c-0.3,0.1-0.9,0.1-1.7,0.2v1.8h2.4
		l0.8-0.8L648.4,273.8z M643.7,277.3v-1.4h-2.2v1.4H643.7z M643.7,279.3v-1.6h-2.2v1.6H643.7z M646.5,277.3v-1.4h-2.1v1.4H646.5z
		 M646.5,279.3v-1.6h-2.1v1.6H646.5z M653.7,275C653.8,275.1,653.8,275.1,653.7,275c0.1,0.1,0,0.2,0,0.2l-0.6,0.4
		c0,1.9-0.2,7-0.4,7.5c-0.2,1.3-0.5,1.6-1.7,2h-0.1c0,0-0.1,0-0.1-0.1c-0.1-0.5-0.6-0.9-2-1.4l0.1-0.2c0.9,0.2,1.5,0.3,1.9,0.3
		c0.8,0,1.1-0.4,1.2-1.5c0.1-1.4,0.3-4.9,0.3-7h-2.2c-0.5,6.4-1.4,8.6-4.9,10.3l-0.1-0.2c3.2-2,4-4.2,4.3-10.1h-0.7
		c-0.3,0-0.8,0.1-1,0.2l-0.3-0.6c0.4,0,0.8,0.1,1.1,0.1h1c0-1.4,0.1-3,0.1-4.4l1.4,0.6c0.1,0,0.1,0.1,0.1,0.1s0,0.1-0.1,0.1
		l-0.5,0.4c0,0.9-0.1,2.4-0.2,3.2h1.9l0.5-0.7L653.7,275z"/>
	<path class="st4" d="M669.7,276.1c0.1,0.1,0.1,0.1,0.1,0.1s0,0.1-0.2,0.1h-11.8c-0.1,5.9-0.3,7.2-2.6,9.1l-0.1-0.1
		c1.6-2,1.8-3.2,1.9-5.4c0-1.5,0-3.5,0-4.8l0.9,0.9h5.8c0.6-1,1.3-2.3,1.5-2.7l1,0.7c0.1,0,0.1,0.1,0.1,0.1s0,0-0.1,0.1
		c-0.3,0-0.6,0.3-1.1,0.7l-1,1.1h3.8l0.8-0.8L669.7,276.1z M669.5,272.8l0.1,0.1c0,0,0,0-0.1,0h-12.2c-0.3,0-0.8,0.1-1.1,0.2
		l-0.4-0.6c0.4,0,0.8,0.1,1.2,0.1h10.6l0.8-0.9L669.5,272.8z M669.6,284.5c0.1,0.1,0.1,0.1,0.1,0.1s0,0-0.1,0H659
		c-0.3,0-0.8,0.1-1.1,0.2l-0.4-0.6c0.4,0,0.8,0.1,1.2,0.1h4.4v-2.5h-2.5c-0.3,0-0.8,0.1-1.1,0.2l-0.4-0.6c0.4,0,0.8,0.1,1.2,0.1h2.8
		v-2.2h-2.9c-0.6,1-1.3,1.9-2,2.7l-0.2-0.1c1-1.2,2.1-3.8,2.4-4.9l1,0.7c0.1,0,0.1,0.1,0.1,0.1s0,0.1-0.1,0.1
		c-0.4,0.1-0.5,0.2-1,1.2h2.7c0-1.2,0-1.9,0-2.5l1.3,0.5c0,0,0.1,0,0.1,0.1c0,0,0,0.1-0.1,0.1l-0.5,0.4v1.4h3.2l0.6-0.8l1,1l0.1,0.1
		c0,0,0,0-0.1,0h-4.9v2.2h2.9l0.7-0.8l1,1c0.1,0.1,0.1,0.1,0.1,0.1s0,0-0.1,0h-4.6v2.5h4l0.8-0.9L669.6,284.5z M659.6,273.4
		c1.4,0.5,2,1,2.2,1.6v0.1c0,0.4-0.4,0.7-0.6,0.7c-0.2,0-0.3-0.2-0.4-0.5c-0.1-0.5-0.6-1.3-1.4-1.7L659.6,273.4z M661.4,270.5
		c1,0.1,2,0.6,2.2,1c0,0.1,0.1,0.3,0.1,0.4c0,0.4-0.3,0.7-0.6,0.7c-0.2,0-0.2-0.1-0.3-0.5c-0.2-0.6-0.6-1.1-1.3-1.5L661.4,270.5z"/>
</g>
</svg>
