<?xml version="1.0" encoding="utf-8"?>
<!-- Generator: Adobe Illustrator 23.0.0, SVG Export Plug-In . SVG Version: 6.00 Build 0)  -->
<svg version="1.1" id="强大的法律保障" xmlns="http://www.w3.org/2000/svg" xmlns:xlink="http://www.w3.org/1999/xlink"
	 x="0px" y="0px" viewBox="0 0 421 888" style="enable-background:new 0 0 421 888;" xml:space="preserve">
<style type="text/css">
	.st0{fill:#010101;}
	.st1{fill:#70DBCB;}
	.st2{fill:none;stroke:#70DBCB;}
	.st3{fill:#58595B;}
	.st4{fill:#F5F5F5;}
	.st5{fill:#FCFCFC;}
	.st6{fill:#F2F2F2;}
	.st7{fill:#E6E7E8;}
	.st8{enable-background:new    ;}
	.st9{fill:#FFFFFF;}
</style>
<rect id="矩形_47" x="215" y="658" class="st0" width="1" height="70"/>
<rect id="矩形_47_拷贝" x="250" y="795.7" class="st0" width="89.9" height="1"/>
<g id="组_27">
	<rect id="矩形_48" x="215.2" y="426.8" class="st1" width="1.2" height="77.3"/>
	<path id="形状_2" class="st2" d="M221.3,504v-72.3l146-65.5"/>
	<path id="形状_2_拷贝_2" class="st2" d="M215.3,499v-72.3l146-65.5"/>
	<path id="形状_2_拷贝" class="st2" d="M209,504v-72.3L63,367.9"/>
	<path id="形状_2_拷贝_3" class="st2" d="M215,500v-72.3L69,363.9"/>
</g>
<ellipse id="椭圆_12" class="st3" cx="349.5" cy="796.2" rx="16.6" ry="16.6"/>
<path id="圆角矩形_1_拷贝" class="st4" d="M173.8,809.9l39-10c1.7-0.4,3.4-0.3,5,0.1l32.8,10.6c1.4,0.5,1.6,1.2,0.4,1.7
	l-34.2,12.5c-2,0.6-4.1,0.7-6.1,0.1L173,811.8C171.5,811.3,171.9,810.4,173.8,809.9z"/>
<path id="圆角矩形_1" class="st5" d="M174.6,789.1l39-10c1.7-0.4,3.4-0.3,5,0.1l32.8,10.6c1.4,0.5,1.6,1.2,0.4,1.7L217.7,804
	c-2,0.6-4.1,0.7-6.1,0.1L173.9,791C172.3,790.4,172.7,789.6,174.6,789.1z"/>
<ellipse id="椭圆_11" class="st6" cx="214.9" cy="788.9" rx="18.1" ry="3.6"/>
<path id="矩形_46" class="st7" d="M172.8,790.1l43.3,15.2v14.4l-43.3-15.2V790.1z"/>
<path id="矩形_46_拷贝" class="st7" d="M253.1,790.9l-37.7,14.4v14.4l37.7-14.4V790.9z"/>
<path id="圆角矩形_1_拷贝-2" class="st4" d="M174.5,602.3l39.1-10c1.7-0.4,3.4-0.3,5,0.1l32.8,10.6c1.4,0.5,1.6,1.2,0.4,1.7
	l-34.2,12.6c-2,0.6-4.1,0.7-6.1,0.1l-37.7-13.2C172.2,603.7,172.6,602.8,174.5,602.3z"/>
<path id="圆角矩形_1-2" class="st5" d="M175.3,581.4l39.1-10c1.7-0.4,3.4-0.3,5,0.1l32.8,10.6c1.4,0.5,1.6,1.2,0.4,1.7
	l-34.2,12.6c-2,0.6-4.1,0.7-6.1,0.1l-37.7-13.2C173,582.8,173.4,581.9,175.3,581.4z"/>
<path id="椭圆_11-2" class="st6" d="M215.7,577.6c10,0,18.1,1.6,18.1,3.6s-8.1,3.6-18.1,3.6s-18.1-1.6-18.1-3.6
	S205.7,577.6,215.7,577.6z"/>
<path id="矩形_46-2" class="st7" d="M173.5,582.5l43.4,15.3v14.5L173.5,597V582.5z"/>
<path id="矩形_46_拷贝-2" class="st7" d="M253.9,583.3l-37.8,14.5v14.5l37.8-14.5V583.3z"/>
<path id="圆角矩形_1_拷贝-3" class="st4" d="M317.7,312.5l39.1-10c1.7-0.4,3.4-0.3,5,0.1l32.8,10.6c1.4,0.5,1.6,1.2,0.4,1.7
	l-34.2,12.5c-2,0.6-4.1,0.7-6.1,0.1L317,314.4C315.4,313.8,315.8,313,317.7,312.5z"/>
<path id="圆角矩形_1-3" class="st5" d="M318.5,291.6l39.1-10c1.7-0.4,3.4-0.3,5,0.1l32.8,10.6c1.4,0.5,1.6,1.2,0.4,1.6
	l-34.2,12.5c-2,0.6-4.1,0.7-6.1,0.1l-37.7-13.1C316.2,293,316.6,292.1,318.5,291.6z"/>
<path id="椭圆_11-3" class="st6" d="M358.9,287.9c10,0,18.1,1.6,18.1,3.6s-8.1,3.6-18.1,3.6s-18.1-1.6-18.1-3.6
	S348.9,287.9,358.9,287.9z"/>
<path id="矩形_46-3" class="st7" d="M316.7,292.7l43.4,15.2v14.4l-43.4-15.2V292.7z"/>
<path id="矩形_46_拷贝-3" class="st7" d="M397.1,293.5l-37.8,14.4v14.4l37.8-14.4V293.5L397.1,293.5z"/>
<path id="圆角矩形_1_拷贝-4" class="st4" d="M19.7,313.3l39.1-10c1.7-0.4,3.4-0.3,5,0.1L96.7,314c1.4,0.5,1.6,1.2,0.4,1.7
	l-34.2,12.6c-2,0.6-4.1,0.7-6.1,0.1L19,315.1C17.4,314.6,17.8,313.8,19.7,313.3z"/>
<path id="圆角矩形_1-4" class="st5" d="M20.5,292.3l39.1-10c1.7-0.4,3.4-0.3,5,0.1L97.4,293c1.4,0.5,1.6,1.2,0.4,1.7l-34.2,12.6
	c-2,0.6-4.1,0.7-6.1,0.1l-37.7-13.2C18.2,293.7,18.6,292.8,20.5,292.3z"/>
<path id="椭圆_11-4" class="st6" d="M60.9,288.5c10,0,18.1,1.6,18.1,3.6s-8.1,3.6-18.1,3.6s-18.1-1.6-18.1-3.6
	S50.9,288.5,60.9,288.5z"/>
<path id="矩形_46-4" class="st7" d="M18.7,293.4l43.4,15.3v14.5l-43.4-15.3V293.4z"/>
<path id="矩形_46_拷贝-4" class="st7" d="M99.1,294.2l-37.8,14.5v14.5l37.8-14.5V294.2z"/>
<path id="圆角矩形_1_拷贝-5" class="st4" d="M310.7,86.7l39.1-10c1.7-0.4,3.4-0.3,5,0.1l32.9,10.6c1.4,0.5,1.6,1.2,0.4,1.7
	l-34.3,12.6c-2,0.6-4.1,0.7-6.1,0.1L310,88.6C308.4,88,308.8,87.2,310.7,86.7z"/>
<path id="圆角矩形_1-5" class="st5" d="M308.5,65.8l39.1-10c1.7-0.4,3.4-0.3,5,0.1l32.9,10.6c1.4,0.5,1.6,1.2,0.4,1.7
	l-34.3,12.6c-2,0.6-4.1,0.7-6.1,0.1l-37.7-13.2C306.2,67.1,306.6,66.3,308.5,65.8z"/>
<ellipse id="椭圆_11-5" class="st6" cx="348.9" cy="65.6" rx="18.1" ry="3.6"/>
<path id="矩形_46-5" class="st7" d="M306.7,66.8l43.4,15.3v14.5l-43.4-15.3V66.8z"/>
<path id="矩形_46_拷贝-5" class="st7" d="M387.1,67.6l-37.8,14.5v14.5l37.8-14.5V67.6z"/>
<path id="圆角矩形_1_拷贝-6" class="st4" d="M20.6,86.1l39.1-10c1.7-0.4,3.4-0.3,5,0.1l32.8,10.6c1.4,0.5,1.6,1.2,0.4,1.7
	l-34.2,12.6c-2,0.6-4.1,0.7-6.1,0.1L19.9,88C18.3,87.4,18.7,86.6,20.6,86.1z"/>
<path id="圆角矩形_1-6" class="st5" d="M21.4,65.2l39.1-10c1.7-0.4,3.4-0.3,5,0.1l32.8,10.6c1.4,0.5,1.6,1.2,0.4,1.7L64.5,80.2
	c-2,0.6-4.1,0.7-6.1,0.1L20.7,67.1C19.1,66.6,19.5,65.7,21.4,65.2z"/>
<ellipse id="椭圆_11-6" class="st6" cx="61.8" cy="65.1" rx="18.1" ry="3.6"/>
<path id="矩形_46-6" class="st7" d="M19.6,66.3L63,81.5V96L19.6,80.7V66.3z"/>
<path id="矩形_46_拷贝-6" class="st7" d="M99.9,67L62.2,81.5V96L100,81.5L99.9,67L99.9,67z"/>
<rect id="矩形_49" x="359" y="172" class="st0" width="1" height="60"/>
<rect id="矩形_49_拷贝" x="62" y="162" class="st0" width="1" height="70"/>
<g class="st8">
	<path class="st3" d="M40,55h22.5V10H40V55z M54.1,15.6h5.6v5.6h-5.6V15.6z M54.1,26.9h5.6v5.6h-5.6V26.9z M54.1,38.1h5.6v5.6h-5.6
		V38.1z M42.8,15.6h5.6v5.6h-5.6V15.6z M42.8,26.9h5.6v5.6h-5.6V26.9z M42.8,38.1h5.6v5.6h-5.6V38.1z M65.3,24.1H85v2.8H65.3V24.1z
		 M65.3,55h5.6V43.8h8.4V55H85V29.7H65.3V55z"/>
</g>
<g class="st8">
	<path class="st3" d="M345.7,45.4h7.6v9.5h-7.6V45.4z"/>
	<path class="st3" d="M344.8,28.4c0,2.6,2.1,4.7,4.7,4.7s4.7-2.1,4.7-4.7s-2.1-4.7-4.7-4.7C346.9,23.7,344.8,25.8,344.8,28.4z
		 M350.4,29.3h-3.8v-1.9h1.9v-2.8h1.9V29.3z"/>
	<path class="st3" d="M323,24.6v30.3h15.1V24.6H323z M329.6,44.5h-3.8v-1.9h3.8V44.5z M329.6,40.7h-3.8v-1.9h3.8V40.7z M329.6,36.9
		h-3.8V35h3.8V36.9z M329.6,33.1h-3.8v-1.9h3.8V33.1z M329.6,29.3h-3.8v-1.9h3.8V29.3z M335.3,44.5h-3.8v-1.9h3.8V44.5z M335.3,40.7
		h-3.8v-1.9h3.8V40.7z M335.3,36.9h-3.8V35h3.8V36.9z M335.3,33.1h-3.8v-1.9h3.8V33.1z M335.3,29.3h-3.8v-1.9h3.8V29.3z"/>
	<path class="st3" d="M376,54.9V24.6h-15.1v30.3H376z M369.4,27.4h3.8v1.9h-3.8V27.4z M369.4,31.2h3.8v1.9h-3.8V31.2z M369.4,35h3.8
		v1.9h-3.8V35z M369.4,38.8h3.8v1.9h-3.8V38.8z M369.4,42.6h3.8v1.9h-3.8V42.6z M363.7,27.4h3.8v1.9h-3.8V27.4z M363.7,31.2h3.8v1.9
		h-3.8V31.2z M363.7,35h3.8v1.9h-3.8V35z M363.7,38.8h3.8v1.9h-3.8V38.8z M363.7,42.6h3.8v1.9h-3.8V42.6z"/>
	<path class="st3" d="M340,20.4v34.5h3.8V44.5c0-0.5,0.4-0.9,0.9-0.9h9.5c0.5,0,0.9,0.4,0.9,0.9v10.4h3.8V20.4l-9.5-6.9L340,20.4z
		 M356.1,28.4c0,3.7-3,6.6-6.6,6.6s-6.6-3-6.6-6.6s3-6.6,6.6-6.6C353.2,21.8,356.1,24.7,356.1,28.4z"/>
	<path class="st3" d="M349.5,1.9h11.4v5.7h-11.4V1.9z"/>
	<path class="st3" d="M349.5,16.1c-0.5,0-0.9-0.4-0.9-0.9V0.9c0-0.5,0.4-0.9,0.9-0.9s0.9,0.4,0.9,0.9v14.2
		C350.4,15.7,350,16.1,349.5,16.1z"/>
</g>
<g class="st8">
	<path class="st3" d="M78.7,281.2c0.7,0,1.3-0.6,1.3-1.3v-21.6c0-0.7-0.6-1.3-1.3-1.3h-8.1v-0.9c0-0.5-0.3-0.9-0.7-1.2l-7.9-4v-2.5
		l5.6-1.9c0.5-0.2,0.9-0.7,0.9-1.2c0-0.6-0.4-1.1-0.9-1.2L61,242c-0.4-0.1-0.8-0.1-1.2,0.2c-0.3,0.2-0.5,0.6-0.5,1.1v7.8l-7.9,4
		c-0.4,0.2-0.7,0.7-0.7,1.2v0.9h-8.3c-0.7,0-1.3,0.6-1.3,1.3v21.6c0,0.7,0.6,1.3,1.3,1.3h36.3V281.2z M61.9,246.1v-1.4l2.9,0.7
		L61.9,246.1z M43.7,259.6h7v19h-7V259.6z M53.3,257l7.3-3.7l7.3,3.7v21.6H53.3V257z M77.3,278.6h-6.8v-19h6.8V278.6z"/>
	<path class="st3" d="M58.6,259.2h-2.2c-0.7,0-1.3,0.6-1.3,1.3c0,0.7,0.6,1.3,1.3,1.3h2.2c0.7,0,1.3-0.6,1.3-1.3
		C59.9,259.8,59.3,259.2,58.6,259.2z"/>
	<path class="st3" d="M46.3,264h2.2c0.7,0,1.3-0.6,1.3-1.3c0-0.7-0.6-1.3-1.3-1.3h-2.2c-0.7,0-1.3,0.6-1.3,1.3S45.6,264,46.3,264z"
		/>
	<path class="st3" d="M48.4,265.7h-2.2c-0.7,0-1.3,0.6-1.3,1.3c0,0.7,0.6,1.3,1.3,1.3h2.2c0.7,0,1.3-0.6,1.3-1.3
		C49.8,266.3,49.2,265.7,48.4,265.7z"/>
	<path class="st3" d="M48.4,270h-2.2c-0.7,0-1.3,0.6-1.3,1.3c0,0.7,0.6,1.3,1.3,1.3h2.2c0.7,0,1.3-0.6,1.3-1.3
		C49.8,270.6,49.2,270,48.4,270z"/>
	<path class="st3" d="M73,264h2.2c0.7,0,1.3-0.6,1.3-1.3c0-0.7-0.6-1.3-1.3-1.3H73c-0.7,0-1.3,0.6-1.3,1.3S72.3,264,73,264z"/>
	<path class="st3" d="M73,268.3h2.2c0.7,0,1.3-0.6,1.3-1.3c0-0.7-0.6-1.3-1.3-1.3H73c-0.7,0-1.3,0.6-1.3,1.3
		C71.7,267.7,72.3,268.3,73,268.3z"/>
	<path class="st3" d="M75.1,270H73c-0.7,0-1.3,0.6-1.3,1.3c0,0.7,0.6,1.3,1.3,1.3h2.2c0.7,0,1.3-0.6,1.3-1.3S75.9,270,75.1,270z"/>
	<path class="st3" d="M65,259.2h-2.2c-0.7,0-1.3,0.6-1.3,1.3c0,0.7,0.6,1.3,1.3,1.3H65c0.7,0,1.3-0.6,1.3-1.3
		C66.3,259.8,65.8,259.2,65,259.2z"/>
	<path class="st3" d="M58.6,263.5h-2.2c-0.7,0-1.3,0.6-1.3,1.3c0,0.7,0.6,1.3,1.3,1.3h2.2c0.7,0,1.3-0.6,1.3-1.3
		C59.9,264.1,59.3,263.5,58.6,263.5z"/>
	<path class="st3" d="M65,263.5h-2.2c-0.7,0-1.3,0.6-1.3,1.3c0,0.7,0.6,1.3,1.3,1.3H65c0.7,0,1.3-0.6,1.3-1.3S65.8,263.5,65,263.5z"
		/>
	<path class="st3" d="M58.6,267.8h-2.2c-0.7,0-1.3,0.6-1.3,1.3s0.6,1.3,1.3,1.3h2.2c0.7,0,1.3-0.6,1.3-1.3S59.3,267.8,58.6,267.8z"
		/>
	<path class="st3" d="M65,267.8h-2.2c-0.7,0-1.3,0.6-1.3,1.3s0.6,1.3,1.3,1.3H65c0.7,0,1.3-0.6,1.3-1.3S65.8,267.8,65,267.8z"/>
</g>
<g class="st8">
	<path class="st3" d="M232.2,573.7c0.7,0,1.3-0.6,1.3-1.3v-21.6c0-0.7-0.6-1.3-1.3-1.3h-8.1v-0.9c0-0.5-0.3-0.9-0.7-1.2l-7.9-4v-2.5
		l5.6-1.9c0.5-0.2,0.9-0.7,0.9-1.2c0-0.6-0.4-1.1-0.9-1.2l-6.5-2.2c-0.4-0.1-0.8-0.1-1.2,0.2c-0.3,0.2-0.5,0.6-0.5,1.1v7.8l-7.9,4
		c-0.4,0.2-0.7,0.7-0.7,1.2v0.9H196c-0.7,0-1.3,0.6-1.3,1.3v21.6c0,0.7,0.6,1.3,1.3,1.3L232.2,573.7L232.2,573.7z M215.4,538.5v-1.4
		l2.9,0.7L215.4,538.5z M197.2,552.1h7v19h-7V552.1z M206.8,549.4l7.3-3.7l7.3,3.7V571h-14.7L206.8,549.4L206.8,549.4z M230.9,571.1
		h-6.8v-19h6.8V571.1z"/>
	<path class="st3" d="M212.1,551.6h-2.2c-0.7,0-1.3,0.6-1.3,1.3s0.6,1.3,1.3,1.3h2.2c0.7,0,1.3-0.6,1.3-1.3
		C213.4,552.2,212.8,551.6,212.1,551.6z"/>
	<path class="st3" d="M199.8,556.4h2.2c0.7,0,1.3-0.6,1.3-1.3s-0.6-1.3-1.3-1.3h-2.2c-0.7,0-1.3,0.6-1.3,1.3
		C198.5,555.8,199.1,556.4,199.8,556.4z"/>
	<path class="st3" d="M202,558.1h-2.2c-0.7,0-1.3,0.6-1.3,1.3s0.6,1.3,1.3,1.3h2.2c0.7,0,1.3-0.6,1.3-1.3S202.7,558.1,202,558.1z"/>
	<path class="st3" d="M202,562.4h-2.2c-0.7,0-1.3,0.6-1.3,1.3s0.6,1.3,1.3,1.3h2.2c0.7,0,1.3-0.6,1.3-1.3S202.7,562.4,202,562.4z"/>
	<path class="st3" d="M226.5,556.4h2.2c0.7,0,1.3-0.6,1.3-1.3s-0.6-1.3-1.3-1.3h-2.2c-0.7,0-1.3,0.6-1.3,1.3
		C225.2,555.8,225.8,556.4,226.5,556.4z"/>
	<path class="st3" d="M226.5,560.7h2.2c0.7,0,1.3-0.6,1.3-1.3s-0.6-1.3-1.3-1.3h-2.2c-0.7,0-1.3,0.6-1.3,1.3
		S225.8,560.7,226.5,560.7z"/>
	<path class="st3" d="M228.7,562.4h-2.2c-0.7,0-1.3,0.6-1.3,1.3s0.6,1.3,1.3,1.3h2.2c0.7,0,1.3-0.6,1.3-1.3S229.4,562.4,228.7,562.4
		z"/>
	<path class="st3" d="M218.6,551.6h-2.2c-0.7,0-1.3,0.6-1.3,1.3s0.6,1.3,1.3,1.3h2.2c0.7,0,1.3-0.6,1.3-1.3
		C219.9,552.2,219.3,551.6,218.6,551.6z"/>
	<path class="st3" d="M212.1,555.9h-2.2c-0.7,0-1.3,0.6-1.3,1.3s0.6,1.3,1.3,1.3h2.2c0.7,0,1.3-0.6,1.3-1.3S212.8,555.9,212.1,555.9
		z"/>
	<path class="st3" d="M218.6,555.9h-2.2c-0.7,0-1.3,0.6-1.3,1.3s0.6,1.3,1.3,1.3h2.2c0.7,0,1.3-0.6,1.3-1.3S219.3,555.9,218.6,555.9
		z"/>
	<path class="st3" d="M212.1,560.3h-2.2c-0.7,0-1.3,0.6-1.3,1.3s0.6,1.3,1.3,1.3h2.2c0.7,0,1.3-0.6,1.3-1.3S212.8,560.3,212.1,560.3
		z"/>
	<path class="st3" d="M218.6,560.3h-2.2c-0.7,0-1.3,0.6-1.3,1.3s0.6,1.3,1.3,1.3h2.2c0.7,0,1.3-0.6,1.3-1.3S219.3,560.3,218.6,560.3
		z"/>
</g>
<g class="st8">
	<path class="st3" d="M377.1,281.2c0.7,0,1.3-0.6,1.3-1.3v-21.6c0-0.7-0.6-1.3-1.3-1.3H369v-0.9c0-0.5-0.3-0.9-0.7-1.2l-7.9-4v-2.5
		l5.6-1.9c0.5-0.2,0.9-0.7,0.9-1.2c0-0.6-0.4-1.1-0.9-1.2l-6.5-2.2c-0.4-0.1-0.8-0.1-1.2,0.2c-0.3,0.2-0.5,0.6-0.5,1.1v7.8l-7.9,4
		c-0.4,0.2-0.7,0.7-0.7,1.2v0.9h-8.3c-0.7,0-1.3,0.6-1.3,1.3V280c0,0.7,0.6,1.3,1.3,1.3L377.1,281.2L377.1,281.2z M360.3,246.1v-1.4
		l2.9,0.7L360.3,246.1z M342.1,259.6h7v19h-7V259.6z M351.7,257l7.3-3.7l7.3,3.7v21.6h-14.7V257H351.7z M375.8,278.6H369v-19h6.8
		V278.6z"/>
	<path class="st3" d="M357,259.2h-2.2c-0.7,0-1.3,0.6-1.3,1.3c0,0.7,0.6,1.3,1.3,1.3h2.2c0.7,0,1.3-0.6,1.3-1.3
		C358.3,259.8,357.7,259.2,357,259.2z"/>
	<path class="st3" d="M344.7,264h2.2c0.7,0,1.3-0.6,1.3-1.3c0-0.7-0.6-1.3-1.3-1.3h-2.2c-0.7,0-1.3,0.6-1.3,1.3
		C343.4,263.4,344,264,344.7,264z"/>
	<path class="st3" d="M346.9,265.7h-2.2c-0.7,0-1.3,0.6-1.3,1.3c0,0.7,0.6,1.3,1.3,1.3h2.2c0.7,0,1.3-0.6,1.3-1.3
		C348.2,266.3,347.6,265.7,346.9,265.7z"/>
	<path class="st3" d="M346.9,270h-2.2c-0.7,0-1.3,0.6-1.3,1.3c0,0.7,0.6,1.3,1.3,1.3h2.2c0.7,0,1.3-0.6,1.3-1.3
		C348.2,270.6,347.6,270,346.9,270z"/>
	<path class="st3" d="M371.4,264h2.2c0.7,0,1.3-0.6,1.3-1.3c0-0.7-0.6-1.3-1.3-1.3h-2.2c-0.7,0-1.3,0.6-1.3,1.3S370.7,264,371.4,264
		z"/>
	<path class="st3" d="M371.4,268.3h2.2c0.7,0,1.3-0.6,1.3-1.3c0-0.7-0.6-1.3-1.3-1.3h-2.2c-0.7,0-1.3,0.6-1.3,1.3
		C370.1,267.7,370.7,268.3,371.4,268.3z"/>
	<path class="st3" d="M373.6,270h-2.2c-0.7,0-1.3,0.6-1.3,1.3c0,0.7,0.6,1.3,1.3,1.3h2.2c0.7,0,1.3-0.6,1.3-1.3S374.3,270,373.6,270
		z"/>
	<path class="st3" d="M363.5,259.2h-2.2c-0.7,0-1.3,0.6-1.3,1.3c0,0.7,0.6,1.3,1.3,1.3h2.2c0.7,0,1.3-0.6,1.3-1.3
		C364.8,259.8,364.2,259.2,363.5,259.2z"/>
	<path class="st3" d="M357,263.5h-2.2c-0.7,0-1.3,0.6-1.3,1.3c0,0.7,0.6,1.3,1.3,1.3h2.2c0.7,0,1.3-0.6,1.3-1.3
		S357.7,263.5,357,263.5z"/>
	<path class="st3" d="M363.5,263.5h-2.2c-0.7,0-1.3,0.6-1.3,1.3c0,0.7,0.6,1.3,1.3,1.3h2.2c0.7,0,1.3-0.6,1.3-1.3
		S364.2,263.5,363.5,263.5z"/>
	<path class="st3" d="M357,267.8h-2.2c-0.7,0-1.3,0.6-1.3,1.3s0.6,1.3,1.3,1.3h2.2c0.7,0,1.3-0.6,1.3-1.3S357.7,267.8,357,267.8z"/>
	<path class="st3" d="M363.5,267.8h-2.2c-0.7,0-1.3,0.6-1.3,1.3s0.6,1.3,1.3,1.3h2.2c0.7,0,1.3-0.6,1.3-1.3S364.2,267.8,363.5,267.8
		z"/>
</g>
<polygon id="XMLID_63_" class="st9" points="350.7,792.3 352.2,792.3 352.2,790 356,790 356,802.3 352.2,802.3 352.2,798.9 
	354.7,798.9 354.7,793.6 344.4,793.6 344.4,798.9 346.8,798.9 346.8,802.3 343.1,802.3 343.1,790 346.9,790 346.9,792.3 
	348.4,792.3 348.4,788.4 341.5,788.4 341.5,803.9 348.4,803.9 348.4,797.3 346,797.3 346,795.2 353.1,795.2 353.1,797.3 
	350.7,797.3 350.7,803.9 357.6,803.9 357.6,788.4 350.7,788.4 "/>
<g>
	<g>
		<g>
			<path class="st3" d="M234,751.3c0.2-0.5,0.3-1,0.1-1.5s-0.5-0.9-1-1.2l-4.5-2.3c-0.1-0.1-0.2-0.2-0.3-0.4l-0.8-5
				c-0.2-1-1-1.7-2-1.7c-0.1,0-0.2,0-0.3,0l-5,0.8c-0.2,0-0.3,0-0.4-0.1l-3.6-3.6c-0.4-0.4-0.9-0.6-1.4-0.6s-1,0.2-1.4,0.6l-3.6,3.6
				c-0.1,0.1-0.3,0.2-0.4,0.1l-5-0.8c-0.1,0-0.2,0-0.3,0c-1,0-1.8,0.7-2,1.7l-0.8,5c0,0.2-0.1,0.3-0.3,0.4l-4.5,2.3
				c-0.5,0.2-0.8,0.7-1,1.2s-0.1,1.1,0.1,1.5l2.3,4.5c0.1,0.1,0.1,0.3,0,0.5l-2.3,4.5c-0.2,0.5-0.3,1-0.1,1.5s0.5,0.9,1,1.2l4.5,2.3
				c0.1,0.1,0.2,0.2,0.3,0.4l0.8,5c0.2,1,1,1.7,2,1.7c0.1,0,0.2,0,0.3,0l5-0.8c0.2,0,0.3,0,0.4,0.1l3.6,3.6c0.4,0.4,0.9,0.6,1.4,0.6
				s1-0.2,1.4-0.6l3.6-3.6c0.1-0.1,0.3-0.2,0.4-0.1l5,0.8c0.1,0,0.2,0,0.3,0c1,0,1.8-0.7,2-1.7l0.8-5c0-0.2,0.1-0.3,0.3-0.4l4.5-2.3
				c0.5-0.2,0.8-0.7,1-1.2s0.1-1.1-0.1-1.5l-2.3-4.5c-0.1-0.1-0.1-0.3,0-0.5L234,751.3z M230.4,756.9l2.3,4.5c0.1,0.1,0.1,0.3,0,0.4
				c0,0.1-0.1,0.2-0.3,0.3l-4.5,2.3c-0.6,0.3-1,0.8-1.1,1.5l-0.8,5c0,0.3-0.3,0.5-0.6,0.4l-5-0.8c-0.1,0-0.2,0-0.3,0
				c-0.5,0-1,0.2-1.4,0.6l-3.6,3.6c-0.2,0.2-0.5,0.2-0.7,0L211,771c-0.4-0.4-0.9-0.6-1.4-0.6c-0.1,0-0.2,0-0.3,0l-5,0.8
				c-0.3,0-0.5-0.2-0.6-0.4l-0.8-5c-0.1-0.6-0.5-1.2-1.1-1.5l-4.5-2.3c-0.1-0.1-0.2-0.2-0.3-0.3c0-0.1,0-0.3,0-0.4l2.3-4.5
				c0.3-0.6,0.3-1.3,0-1.8l-2.3-4.5c-0.1-0.1-0.1-0.3,0-0.4s0.1-0.2,0.3-0.3l4.5-2.3c0.6-0.3,1-0.8,1.1-1.5l0.8-5
				c0-0.3,0.3-0.5,0.6-0.4l5,0.8c0.1,0,0.2,0,0.3,0l0,0c0.5,0,1-0.2,1.4-0.6l3.6-3.6c0.2-0.2,0.5-0.2,0.7,0l3.6,3.6
				c0.4,0.5,1.1,0.7,1.7,0.6l5-0.8c0.3,0,0.5,0.2,0.6,0.4l0.8,5c0.1,0.6,0.5,1.2,1.1,1.5l4.5,2.3c0.1,0.1,0.2,0.2,0.3,0.3
				c0,0.1,0,0.3,0,0.4l-2.3,4.5C230.1,755.6,230.1,756.3,230.4,756.9z"/>
			<path class="st3" d="M220.8,747.5c0.1,0.1,0.3,0.1,0.4,0.1c0.2,0,0.5-0.1,0.6-0.3c0.2-0.3,0.1-0.8-0.2-1s-0.8-0.1-1,0.2
				C220.4,746.8,220.5,747.2,220.8,747.5z"/>
			<path class="st3" d="M223.2,749.4c0.2,0,0.4-0.1,0.5-0.2c0.3-0.3,0.3-0.7,0.1-1.1c-0.3-0.3-0.8-0.3-1.1-0.1
				c-0.3,0.3-0.3,0.7-0.1,1.1C222.8,749.3,223,749.4,223.2,749.4z"/>
			<path class="st3" d="M218.6,765.6c-0.4,0.1-0.6,0.6-0.4,1c0.1,0.3,0.4,0.5,0.7,0.5c0.1,0,0.2,0,0.3,0c0.4-0.1,0.6-0.6,0.4-1
				C219.4,765.7,219,765.5,218.6,765.6z"/>
			<path class="st3" d="M220.8,764.4c-0.3,0.2-0.4,0.7-0.2,1c0.1,0.2,0.4,0.3,0.6,0.3c0.1,0,0.3,0,0.4-0.1c0.3-0.2,0.4-0.7,0.2-1
				C221.6,764.3,221.2,764.2,220.8,764.4z"/>
			<path class="st3" d="M211.3,765.6c-0.4-0.1-0.8,0-1,0.4s0,0.8,0.4,1c0.1,0,0.2,0,0.3,0c0.3,0,0.6-0.2,0.7-0.5
				C211.9,766.2,211.7,765.8,211.3,765.6z"/>
			<path class="st3" d="M216.2,766.2c-0.4,0-0.7,0.4-0.7,0.8c0,0.4,0.4,0.7,0.7,0.7h0.1c0.4,0,0.7-0.4,0.7-0.8
				C217,766.4,216.6,766.1,216.2,766.2z"/>
			<path class="st3" d="M213.7,766.2L213.7,766.2c-0.4,0-0.8,0.2-0.8,0.7c0,0.4,0.2,0.8,0.7,0.8h0.1c0.4,0,0.7-0.3,0.7-0.7
				S214.1,766.3,213.7,766.2z"/>
			<path class="st3" d="M225,753.5L225,753.5c0.1,0.3,0.4,0.6,0.7,0.6c0.1,0,0.1,0,0.2,0c0.4-0.1,0.6-0.5,0.5-0.9s-0.5-0.6-0.9-0.5
				C225.1,752.7,224.9,753.1,225,753.5z"/>
			<path class="st3" d="M226,755.2c-0.4,0-0.8,0.3-0.8,0.8s0.3,0.8,0.8,0.7c0.4,0,0.8-0.3,0.7-0.8
				C226.8,755.5,226.4,755.2,226,755.2z"/>
			<path class="st3" d="M225.9,757.9c-0.4-0.1-0.8,0.1-0.9,0.5c-0.1,0.4,0.1,0.8,0.5,0.9c0.1,0,0.1,0,0.2,0c0.3,0,0.6-0.2,0.7-0.6
				C226.5,758.4,226.3,758,225.9,757.9z"/>
			<path class="st3" d="M224.7,751.6c0.1,0,0.2,0,0.3-0.1c0.4-0.2,0.5-0.6,0.3-1s-0.6-0.5-1-0.3s-0.5,0.6-0.3,1
				C224.2,751.4,224.5,751.6,224.7,751.6z"/>
			<path class="st3" d="M222.7,762.8c-0.3,0.3-0.2,0.8,0.1,1.1c0.1,0.1,0.3,0.2,0.5,0.2s0.4-0.1,0.6-0.3c0.3-0.3,0.2-0.8-0.1-1.1
				C223.4,762.4,222.9,762.5,222.7,762.8z"/>
			<path class="st3" d="M225.1,760.4c-0.4-0.2-0.8,0-1,0.3c-0.2,0.4,0,0.8,0.3,1c0.1,0.1,0.2,0.1,0.3,0.1c0.3,0,0.5-0.1,0.7-0.4
				C225.6,761.1,225.5,760.6,225.1,760.4z"/>
			<path class="st3" d="M206.7,749.4c0.2,0,0.4-0.1,0.6-0.2c0.3-0.3,0.2-0.8-0.1-1.1s-0.8-0.2-1.1,0.1s-0.2,0.8,0.1,1.1
				C206.3,749.3,206.5,749.4,206.7,749.4z"/>
			<path class="st3" d="M204.8,760.5c-0.4,0.2-0.5,0.6-0.3,1c0.1,0.3,0.4,0.4,0.7,0.4c0.1,0,0.2,0,0.3-0.1c0.4-0.2,0.5-0.6,0.3-1
				S205.2,760.3,204.8,760.5z"/>
			<path class="st3" d="M204.9,758.5c-0.1-0.4-0.5-0.6-0.9-0.5s-0.6,0.5-0.5,0.9c0.1,0.3,0.4,0.6,0.7,0.6c0.1,0,0.1,0,0.2,0
				C204.8,759.3,205,758.9,204.9,758.5z"/>
			<path class="st3" d="M204,754c0.1,0,0.1,0,0.2,0c0.3,0,0.6-0.2,0.7-0.6c0.1-0.4-0.1-0.8-0.5-0.9c-0.4-0.1-0.8,0.1-0.9,0.5
				C203.4,753.5,203.6,753.9,204,754z"/>
			<path class="st3" d="M203.9,756.7c0.4,0,0.7-0.3,0.7-0.8l0,0l0,0c0-0.4-0.3-0.8-0.8-0.8c-0.4,0-0.7,0.3-0.7,0.8l0,0l0,0
				C203.1,756.4,203.5,756.7,203.9,756.7L203.9,756.7z"/>
			<path class="st3" d="M204.8,751.5c0.1,0.1,0.2,0.1,0.3,0.1c0.3,0,0.5-0.1,0.7-0.4c0.2-0.4,0-0.8-0.3-1c-0.4-0.2-0.8,0-1,0.3
				C204.3,750.8,204.4,751.3,204.8,751.5z"/>
			<path class="st3" d="M206.2,762.8c-0.3,0.3-0.3,0.8-0.1,1.1c0.1,0.2,0.4,0.2,0.6,0.2c0.2,0,0.4-0.1,0.5-0.2
				c0.3-0.3,0.3-0.8,0.1-1.1C207,762.5,206.5,762.5,206.2,762.8z"/>
			<path class="st3" d="M213.6,745.7L213.6,745.7c0.5-0.1,0.8-0.4,0.7-0.8c0-0.4-0.4-0.7-0.8-0.7s-0.7,0.4-0.7,0.8
				C212.9,745.4,213.2,745.7,213.6,745.7z"/>
			<path class="st3" d="M216.2,745.7L216.2,745.7c0.5,0,0.8-0.3,0.8-0.7s-0.2-0.8-0.7-0.8c-0.4,0-0.8,0.2-0.8,0.7
				C215.5,745.3,215.8,745.7,216.2,745.7z"/>
			<path class="st3" d="M218.6,746.3c0.1,0,0.2,0,0.3,0c0.3,0,0.6-0.2,0.7-0.5c0.1-0.4,0-0.8-0.4-1c-0.4-0.1-0.8,0-1,0.4
				S218.2,746.2,218.6,746.3z"/>
			<path class="st3" d="M211,746.4c0.1,0,0.2,0,0.3,0c0.4-0.1,0.6-0.6,0.4-1c-0.1-0.4-0.6-0.6-1-0.4l0,0c-0.4,0.1-0.6,0.6-0.4,1
				C210.4,746.2,210.7,746.4,211,746.4z"/>
			<path class="st3" d="M209.1,764.5c-0.3-0.2-0.8-0.1-1,0.2s-0.1,0.8,0.2,1c0.1,0.1,0.3,0.1,0.4,0.1c0.2,0,0.5-0.1,0.6-0.3
				C209.5,765.2,209.4,764.7,209.1,764.5z"/>
			<path class="st3" d="M208.6,747.6c0.1,0,0.3,0,0.4-0.1c0.3-0.2,0.4-0.7,0.2-1s-0.7-0.4-1-0.2s-0.4,0.7-0.2,1
				C208.2,747.5,208.4,747.6,208.6,747.6z"/>
		</g>
	</g>
	<g>
		<path class="st3" d="M200.3,760h29.3c1.7,0,3.1-1.4,3.1-3.1c0-1.2-0.7-2.2-1.7-2.7v-3.4c0-0.4-0.2-0.8-0.6-0.9l-15-7.2
			c-0.3-0.1-0.6-0.1-0.9,0l-15,7.2c-0.4,0.2-0.6,0.5-0.6,0.9v3.4c-1,0.5-1.7,1.5-1.7,2.7C197.2,758.7,198.6,760,200.3,760z
			 M214.9,747.8c1.1,0,2,0.9,2,2s-0.9,2-2,2s-2-0.9-2-2S213.8,747.8,214.9,747.8z"/>
		<path class="st3" d="M229.4,771.6h-0.5l0.4-4c0.1-1.2,0.1-2.4,0-3.6l-0.2-1.9h-6.8l-0.2,1.9c-0.1,1.2-0.1,2.4,0,3.6l0.4,4H218
			l0.4-4c0.1-1.2,0.1-2.4,0-3.6l-0.2-1.9h-6.8l-0.2,1.9c-0.1,1.2-0.1,2.4,0,3.6l0.4,4h-4.5l0.4-4c0.1-1.2,0.1-2.4,0-3.6l-0.2-1.9
			h-6.8l-0.2,1.9c-0.1,1.2-0.1,2.4,0,3.6l0.4,4h-0.5c-1.8,0-3.2,1.5-3.2,3.2s1.5,3.2,3.2,3.2h29c1.8,0,3.2-1.5,3.2-3.2
			S231.2,771.6,229.4,771.6z"/>
	</g>
</g>
<g>
	<path d="M38.5,118.9c1,0,1.1-0.3,1.1-1.1v-4.9c0-0.9-0.1-1.1-1.1-1.1v-0.2h5.1c0,0.6,0.1,1.3,0.1,1.8h-0.2
		c-0.2-1.3-0.5-1.6-1.9-1.6h-1c-0.3,0-0.3,0-0.3,0.3v2.9h1.4c1.1,0,1.2-0.1,1.4-0.9h0.2v2.3H43c-0.2-0.9-0.3-1.1-1.4-1.1h-1.4v2.3
		c0,0.9,0.1,1.1,1.3,1.1v0.2L38.5,118.9L38.5,118.9L38.5,118.9z"/>
	<path d="M52.2,116.9c-0.2,0.6-0.4,1.6-0.6,2c-0.4,0.1-1.5,0.3-2.4,0.3c-3.1,0-4.5-2-4.5-3.8c0-2.4,2-4,4.7-4c1.2,0,1.9,0.3,2.3,0.3
		c0.1,0.6,0.2,1.2,0.2,1.9h-0.2c-0.3-1.4-1.2-1.9-2.7-1.9c-2.4,0-3.4,1.6-3.4,3.4c0,2.3,1.4,3.8,3.5,3.8c1.7,0,2.4-0.9,2.9-2.1
		L52.2,116.9z"/>
	<path d="M57.7,118.9c0.7-0.1,0.9-0.2,0.9-0.5s-0.4-1.2-0.8-2.4H55c-0.1,0.2-0.7,1.8-0.7,2.2c0,0.4,0.3,0.5,1,0.6v0.2h-2.7v-0.2
		c0.8-0.2,1-0.3,1.4-1.4l2.6-6.1l0.1-0.1l0.8,2.2c0.6,1.5,1.1,3,1.5,4.1c0.4,0.9,0.5,1,1.3,1.2v0.2h-2.7v0H57.7z M56.5,112.5
		c-0.5,1.1-0.9,2.2-1.3,3.2h2.5L56.5,112.5L56.5,112.5z"/>
	<path d="M72,119c0.1,0.1,0.1,0.2,0.1,0.2s-0.1,0-0.2,0h-9.8c-0.3,0-0.6,0-0.8,0.1l-0.3-0.4c0.3,0,0.6,0,0.9,0h1.2v-2.1
		c0-0.3,0-0.9,0-1.2l0.7,0.5h5.9l0.3-0.4l0.7,0.6c0.1,0,0.1,0.1,0.1,0.1s0,0-0.1,0.1l-0.4,0.2v2.2H71l0.5-0.6L72,119z M67.6,115
		c0.1,0.1,0.1,0.1,0.1,0.2c0,0,0,0-0.1,0h-4.4l-0.2,0.3c0,0.1-0.1,0.1-0.1,0.1h-0.1l-0.7-0.5l0.5-0.3V111c0-0.9,0-1.6,0-2.1l0.7,0.6
		h3.2l0.4-0.5l0.6,0.6c0.1,0.1,0.1,0.1,0.1,0.2c0,0-0.1,0-0.2,0h-2.3v1.5h1.2l0.3-0.4l0.6,0.5c0.1,0.1,0.1,0.1,0.1,0.1
		s0,0.1-0.1,0.1l-0.3,0.2v0.6c0,0.2,0,0.9,0,1.1s-0.5,0.3-0.5,0.3c-0.1,0-0.1-0.1-0.1-0.2v-0.4H65v1.6h1.5l0.4-0.6L67.6,115z
		 M64.4,111.4v-1.5H63v1.5H64.4z M66.3,113.1v-1.4H63v1.4H66.3z M64.4,115v-1.6H63v1.6H64.4z M65.3,119v-2.5h-1.7v2.5H65.3z
		 M67.4,119v-2.5h-1.7v2.5H67.4z M72.2,111.2c0.1,0.1,0.1,0.1,0.1,0.2c0,0-0.1,0-0.2,0h-3.5c-0.6,1.2-1.2,2.2-1.5,2.6l-0.2-0.1
		c0.9-1.6,1.7-4.1,1.9-5l0.8,0.6c0.1,0,0.1,0.1,0.1,0.1s-0.1,0.1-0.2,0.1c-0.2,0.1-0.3,0.1-0.3,0.3c-0.2,0.4-0.3,0.8-0.5,1.2H71
		l0.5-0.6L72.2,111.2z M69.8,119v-2.5H68v2.5H69.8z M68.8,112.5c0.8,0.5,1.6,1.4,1.6,2c0,0.4-0.3,0.6-0.4,0.6
		c-0.2,0-0.3-0.1-0.3-0.6c-0.1-0.5-0.3-1.2-1-1.9L68.8,112.5z"/>
	<path d="M72.9,115.1c2.3-1.5,3.7-2.8,4.6-4.2h-2.9c-0.3,0-0.6,0-0.8,0.1l-0.3-0.4c0.3,0,0.6,0,0.9,0h3.8v-0.5c0-0.7,0-1,0-1.4
		l0.9,0.4c0.1,0,0.1,0.1,0.1,0.1s0,0.1-0.4,0.3v1.1h3.3l0.5-0.7l0.8,0.8c0.1,0,0.1,0.1,0.1,0.1s0,0-0.2,0h-4c1.6,2,3,2.7,4.8,2.8
		v0.2c-0.6,0.1-0.8,0.2-0.9,0.5c0,0,0,0-0.1,0h-0.1c-1.9-0.9-3.1-2-4-3.6h-0.2v1.6c0,0.6,0,0.9,0,1.3v0.1c0,0.2-0.1,0.2-0.3,0.3
		c-0.1,0-0.2,0.1-0.2,0.1c-0.1,0-0.1-0.1-0.1-0.2l0,0c0-0.4,0-0.9,0-1.4v-1.4c-0.8,1.1-1.8,2-3,2.9l0.7,0.5h5.4l0.4-0.4l0.6,0.5
		c0.1,0,0.1,0.1,0.1,0.1s0,0.1-0.3,0.3v4.2h0.6l0.6-0.7l0.8,0.8c0.1,0.1,0.1,0.1,0.1,0.1s-0.1,0.1-0.2,0.1h-9.8
		c-0.3,0-0.6,0-0.8,0.1l-0.3-0.4c0.3,0,0.6,0,0.9,0h1.3v-4c0-0.4,0-0.7,0-1.1c-0.6,0.4-1.3,0.8-2.1,1.3L72.9,115.1z M81.4,116v-1.3
		h-5.7v1.3H81.4z M81.4,117.5v-1.2h-5.7v1.2H81.4z M81.4,119.1v-1.3h-5.7v1.3H81.4z"/>
	<path d="M14.6,127.8c1.2-1.1,2-2.6,2-2.6s0-0.1-0.1-0.1c-1.5,0.1-4.5,0.3-5.2,0.4c-0.5,0.1-0.9,0.1-1.1,0.2
		c-0.3,0.1-0.3,0.2-0.6,0.2c-0.4,0-1-0.7-1-1s0.1-0.4,0.3-0.6l0,0c0,0.5,0.4,0.8,1,0.8c1.2,0,5.2-0.3,6.1-0.3c0.2,0,0.3,0,0.4-0.1
		c0.2-0.1,0.3-0.3,0.4-0.3c0.2,0,1,0.7,1,1c0,0.1-0.2,0.2-0.4,0.3c-0.2,0-0.4,0.1-0.6,0.4c-0.5,0.6-1.2,1.5-2.1,2.1L14.6,127.8z
		 M12.2,127.1c0-0.2,0.3-0.3,0.6-0.3c0.5,0,1.2,0.3,1.2,0.6c0,0.1-0.1,0.1-0.1,0.2c-0.1,0.1-0.1,0.3-0.2,0.6
		c-0.6,2.2-1.6,4.2-4.1,5.8l-0.2-0.3c3.3-2.3,3.7-5.9,3.7-6.1c0-0.4-0.4-0.4-0.6-0.4C12.3,127.1,12.3,127.1,12.2,127.1L12.2,127.1z"
		/>
	<path d="M29.9,128.7c0,0.1-0.1,0.1-0.3,0.1c-0.1,0-0.1,0-0.2,0c-0.2,0-0.6-0.1-1.2-0.1c-0.8,0-1.8,0-3.3,0.1
		c-1.4,0.1-2.1,0.2-2.7,0.4c-0.2,0-0.3,0.1-0.5,0.1c-0.4,0-0.9-0.6-0.9-0.7c0-0.1,0-0.1,0.1-0.1s0.1,0,0.2,0
		c0.2,0.1,0.3,0.1,0.7,0.1c0.5,0,1.3-0.1,2.9-0.2c3.1-0.3,3.2-0.3,3.5-0.4c0.2,0,0.3-0.1,0.5-0.1s0.4,0.1,0.7,0.3
		C29.8,128.4,29.9,128.6,29.9,128.7z"/>
	<path d="M33.2,124.9c1.5,0.2,3.3,1.1,3.3,2c0,0.2-0.1,0.4-0.4,0.4c-0.2,0-0.4-0.3-0.6-0.5c-0.4-0.5-1.3-1.3-2.5-1.7L33.2,124.9z
		 M42.6,125.9c-1.5,3.3-4.4,5.7-7.3,7.1c-0.6,0.3-0.6,0.6-0.8,0.6c-0.4,0-1.2-0.6-1.2-1.2c0-0.1,0.2-0.3,0.3-0.4
		c0.1,0.4,0.4,0.7,0.7,0.7c0.8,0,5.7-2.4,8-6.9L42.6,125.9z"/>
	<path d="M44.4,133.4c2.8-1.6,5.9-5.2,6.9-7.8v-0.1c0,0,0-0.1-0.1-0.1c-0.2,0-2.5,0.2-3.6,0.4c-0.3,0.1-0.4,0.1-0.5,0.2
		s-0.1,0.1-0.3,0.1c-0.4,0-1-0.6-1-1c0-0.3,0.2-0.4,0.3-0.4c0.1,0.6,0.6,0.6,1.1,0.6c0.3,0,3.2-0.2,4-0.3c0.2,0,0.3-0.1,0.3-0.2
		c0.1-0.1,0.2-0.2,0.3-0.2c0.2,0,0.9,0.5,0.9,0.7s-0.2,0.2-0.3,0.3c-0.2,0.1-0.3,0.2-0.3,0.3c-0.4,0.8-1.4,2.3-2.1,3.2
		c1.1,0.7,2.5,1.6,3.3,2.3c0.6,0.6,1,1.2,1,1.5s-0.1,0.5-0.4,0.5c-0.2,0-0.5-0.4-0.9-1.1c-0.6-0.9-2.2-2.3-3.3-2.9
		c-1,1.3-2.9,3.1-4.9,4.1L44.4,133.4z"/>
	<path d="M58.9,124.2c0.1-0.2,0.3-0.3,0.5-0.3c0.5,0,1.4,0.3,1.4,0.7c0,0.1-0.1,0.2-0.2,0.3c0,0.1-0.1,0.2-0.1,0.3
		c0,0.5,0,1.4-0.1,2.5c1.5,0.2,2.8,0.6,3.5,0.9c0.7,0.4,1,0.6,1,1c0,0.2-0.1,0.3-0.3,0.3c-0.3,0-0.6-0.3-0.9-0.6
		c-0.5-0.5-1.8-1-3.3-1.4c0,0.9,0,1.8,0,2.5c0,0.4,0,2.4,0,2.8c0,0.5-0.2,0.6-0.4,0.6c-0.4,0-0.6-1.2-0.6-1.4
		c0.1-0.1,0.2-0.3,0.2-0.5c0.1-0.8,0.1-1.5,0.1-4.1c0-1.1,0-2.3,0-2.8C59.8,124.8,59.7,124.2,58.9,124.2L58.9,124.2z"/>
	<path d="M74,132c-1,1.2-1.7,1.7-2.5,1.7c-1.5,0-2.3-1.2-2.3-2.1c0-1,0.6-1.8,2.2-2.6c-0.7-0.8-0.8-1.1-0.8-1.8c0-1,0.7-1.9,1.6-1.9
		s1.7,0.7,1.7,1.8c0,0.9-0.4,1.5-1.5,1.9c0.5,0.5,1.4,1.6,1.8,2c0.4-0.5,1.2-1.7,1.4-2.1c0.2-0.3,0-0.4-0.9-0.4v-0.4h2.7v0.4
		c-0.6,0-0.9,0-1.2,0.4c-0.6,0.9-1.1,1.5-1.7,2.4c1.4,1.9,1.8,2.1,2.7,0.9l0.3,0.2C76.4,134.2,75.5,134.2,74,132z M71.8,129.3
		c-0.9,0.3-1.7,1.4-1.7,2c0,0.9,0.6,1.5,1.3,1.6c0.8,0.1,1.4-0.1,2.3-1.3C73.2,130.8,72.7,130.2,71.8,129.3z M72.3,125.7
		c-0.6,0-1,0.6-1,1.2c0,0.7,0.2,1,0.9,1.7c1.1-0.5,1.3-1,1.3-1.6C73.4,126.2,73,125.7,72.3,125.7z"/>
	<path d="M86.5,127.8c1.2-1.1,2-2.6,2-2.6s0-0.1-0.1-0.1c-1.5,0.1-4.5,0.3-5.2,0.4c-0.5,0.1-0.9,0.1-1.1,0.2
		c-0.3,0.1-0.3,0.2-0.6,0.2c-0.4,0-1-0.7-1-1s0.1-0.4,0.3-0.6l0,0c0,0.5,0.4,0.8,1,0.8c1.2,0,5.2-0.3,6.1-0.3c0.2,0,0.3,0,0.4-0.1
		c0.2-0.1,0.3-0.3,0.4-0.3c0.2,0,1,0.7,1,1c0,0.1-0.2,0.2-0.4,0.3c-0.2,0-0.4,0.1-0.6,0.4c-0.5,0.6-1.2,1.5-2.1,2.1L86.5,127.8z
		 M84.2,127.1c0-0.2,0.3-0.3,0.6-0.3c0.5,0,1.2,0.3,1.2,0.6c0,0.1-0.1,0.1-0.1,0.2c-0.1,0.1-0.1,0.3-0.2,0.6
		c-0.6,2.2-1.6,4.2-4.1,5.8l-0.2-0.3c3.3-2.3,3.7-5.9,3.7-6.1c0-0.4-0.4-0.4-0.6-0.4C84.3,127.1,84.3,127.1,84.2,127.1L84.2,127.1z"
		/>
	<path d="M93.2,124.9c1.5,0.2,3.3,1.1,3.3,2c0,0.2-0.1,0.4-0.4,0.4c-0.2,0-0.4-0.3-0.6-0.5c-0.4-0.5-1.3-1.3-2.5-1.7L93.2,124.9z
		 M102.5,125.9c-1.5,3.3-4.4,5.7-7.3,7.1c-0.6,0.3-0.6,0.6-0.8,0.6c-0.4,0-1.2-0.6-1.2-1.2c0-0.1,0.2-0.3,0.3-0.4
		c0.1,0.4,0.4,0.7,0.7,0.7c0.8,0,5.7-2.4,8-6.9L102.5,125.9z"/>
	<path d="M104.8,129.5c2.3-1.8,3.4-4.4,3.4-5c0-0.2-0.3-0.4-0.6-0.4c0.1-0.2,0.2-0.3,0.6-0.3s1.2,0.4,1.2,0.7c0,0.1-0.2,0.2-0.3,0.3
		c-0.1,0.1-0.1,0.1-0.2,0.3c-0.2,0.4-0.4,0.9-0.7,1.3c0.7,0,3.1-0.3,3.4-0.3s0.3-0.1,0.4-0.2s0.1-0.2,0.2-0.2c0.2,0,0.9,0.5,0.9,0.7
		c0,0.1-0.2,0.2-0.3,0.2c-0.1,0-0.3,0.2-0.3,0.4c-1,2.8-2.8,5.5-6.5,7l-0.2-0.3c3.2-1.6,5.2-4.2,6.1-7.1c0-0.1,0-0.1,0-0.2
		s0-0.1-0.1-0.1c-0.4,0-2.8,0.5-3.1,0.5c-0.4,0-0.6-0.1-0.8-0.2c-0.7,1.1-1.6,2.2-2.9,3L104.8,129.5z M111.9,123.5
		c0.9,0.4,1.6,1.1,1.6,1.6c0,0.3-0.2,0.4-0.3,0.4c-0.2,0-0.2-0.1-0.3-0.3c-0.1-0.4-0.5-1-1.2-1.4L111.9,123.5z M113.4,123.1
		c0.9,0.4,1.6,1.1,1.6,1.6c0,0.3-0.2,0.4-0.3,0.4c-0.2,0-0.2-0.1-0.3-0.3c-0.1-0.4-0.5-1-1.2-1.4L113.4,123.1z"/>
</g>
<g>
	<path d="M320.1,110.9c0.1-0.2,0.3-0.3,0.6-0.3c0.4,0,1.1,0.4,1.1,0.6c0,0.1,0,0.2-0.1,0.3c0,0-0.1,0.1-0.2,0.4
		c-0.1,0.5-0.2,1.2-0.4,1.7c1-0.1,2.2-0.2,2.9-0.2c0.2,0,0.2-0.1,0.3-0.2c0.1-0.1,0.2-0.2,0.3-0.2s0.8,0.5,0.8,0.7
		c0,0.1-0.2,0.2-0.3,0.3c-0.1,0.1-0.1,0.2-0.1,0.5c-0.1,1.6-0.5,6-2,6c-0.1,0-0.2-0.1-0.3-0.2s-0.2-0.3-0.4-0.5
		c-0.3-0.2-1.1-0.6-1.8-1l0.1-0.2c0.6,0.3,2,0.9,2.4,0.9c0.8,0,1.4-3.1,1.4-5.5c0-0.3,0-0.3-0.2-0.3c-0.1,0-1.5,0.1-3.3,0.3
		c-0.6,2.3-1.8,4.7-4.4,6.4l-0.2-0.3c2.6-2,3.6-4.3,4-6.1c-0.8,0.1-2,0.2-2.4,0.4c-0.1,0.1-0.2,0.1-0.3,0.1c-0.3,0-0.9-0.5-0.9-0.9
		c0-0.2,0.1-0.3,0.2-0.4h0.1c0.1,0.5,0.4,0.6,0.9,0.6s1.6-0.1,2.4-0.2c0.1-0.6,0.3-1.8,0.3-2.1C320.9,111.1,320.7,111,320.1,110.9
		L320.1,110.9z"/>
	<path d="M335.6,110.8c0.1-0.1,0.3-0.3,0.5-0.3c0.6,0,1.4,0.5,1.4,0.9c0,0.1-0.1,0.1-0.3,0.2c-0.2,0.1-0.3,0.1-0.4,0.3
		c-0.9,0.8-2.2,1.9-3.1,2.5c0.2,0.1,0.4,0.4,0.4,0.6c0,0.1-0.1,0.2-0.1,0.4c0,0.5,0,1.8,0,2.2c0,0.6,0,1.1,0,1.4c0,0.4,0,0.8,0,1
		c0,0.5-0.1,0.7-0.4,0.7c-0.2,0-0.4-0.5-0.5-1.1c0.2-0.3,0.2-0.5,0.2-0.9c0-0.5,0.1-1.6,0.1-2.4s0-1.4-0.2-1.6
		c-1.1,0.8-3,1.9-5.2,2.9l-0.1-0.3c5.1-2.6,8.3-5.6,8.3-6.1C336.3,111,335.9,110.8,335.6,110.8L335.6,110.8z"/>
	<path d="M342.6,115c1,0.5,2,1.1,2.6,1.6c1.9-1.4,3.6-3.3,3.6-3.5c0-0.1-0.1-0.1-0.1-0.2c-1.3,0-5,0.3-6.4,0.5
		c-0.5,0.1-0.6,0.1-0.7,0.2c-0.1,0-0.3,0.2-0.4,0.2c-0.4,0-1-0.8-1-1.2c0-0.2,0.2-0.4,0.3-0.4c0.1,0.6,0.6,0.8,1.2,0.8
		c0.9,0,5.3-0.2,6.9-0.3c0.3,0,0.5-0.4,0.7-0.4c0.2,0,1.1,0.7,1.1,0.9c0,0.1-0.2,0.2-0.4,0.3c-0.1,0-0.3,0.1-0.4,0.2
		c-0.8,0.9-2.4,2.3-4,3.3c0.8,0.6,1.6,1.8,1.6,2.4c0,0.3-0.1,0.5-0.3,0.5c-0.3,0-0.5-0.6-0.7-1c-0.8-1.4-1.9-2.3-3.6-3.4V115z"/>
	<path d="M353.2,111.6c1.5,0.2,3.3,1.1,3.3,2c0,0.2-0.1,0.4-0.4,0.4c-0.2,0-0.4-0.3-0.6-0.5c-0.4-0.5-1.3-1.3-2.5-1.7L353.2,111.6z
		 M362.5,112.6c-1.5,3.3-4.4,5.7-7.3,7.1c-0.6,0.3-0.6,0.6-0.8,0.6c-0.4,0-1.2-0.6-1.2-1.2c0-0.1,0.2-0.3,0.3-0.4
		c0.1,0.4,0.4,0.7,0.7,0.7c0.8,0,5.7-2.4,8-6.9L362.5,112.6z"/>
	<path d="M374.7,120.1c0.1,0.1,0.1,0.2,0.1,0.2s-0.1,0-0.2,0h-9.8c-0.3,0-0.6,0-0.8,0.1l-0.3-0.4c0.3,0,0.6,0,0.9,0h1.2v-2.1
		c0-0.3,0-0.9,0-1.2l0.7,0.5h5.9l0.3-0.4l0.7,0.6c0.1,0,0.1,0.1,0.1,0.1s0,0-0.1,0.1l-0.4,0.2v2.2h0.7l0.5-0.6L374.7,120.1z
		 M370.2,116.1c0.1,0.1,0.1,0.1,0.1,0.2s0,0-0.1,0h-4.4l-0.2,0.3c0,0.1-0.1,0.1-0.1,0.1h-0.1l-0.7-0.5l0.5-0.3v-3.8
		c0-0.9,0-1.6,0-2.1l0.7,0.6h3.2l0.4-0.5l0.6,0.6c0.1,0.1,0.1,0.1,0.1,0.2c0,0-0.1,0-0.2,0h-2.3v1.5h1.2l0.3-0.4l0.6,0.5
		c0.1,0.1,0.1,0.1,0.1,0.1s0,0.1-0.1,0.1l-0.3,0.2v0.6c0,0.2,0,0.9,0,1.1s-0.5,0.3-0.5,0.3c-0.1,0-0.1-0.1-0.1-0.2v-0.4h-1.3v1.6
		h1.5l0.4-0.6L370.2,116.1z M367.1,112.5V111h-1.5v1.5H367.1z M368.9,114.2v-1.4h-3.3v1.4H368.9z M367.1,116v-1.6h-1.5v1.6H367.1z
		 M367.9,120.1v-2.5h-1.7v2.5H367.9z M370.1,120.1v-2.5h-1.7v2.5H370.1z M374.8,112.3c0.1,0.1,0.1,0.1,0.1,0.2s-0.1,0-0.2,0h-3.5
		c-0.6,1.2-1.2,2.2-1.5,2.6l-0.2-0.1c0.9-1.6,1.7-4.1,1.9-5l0.8,0.6c0.1,0,0.1,0.1,0.1,0.1s-0.1,0.1-0.2,0.1
		c-0.2,0.1-0.3,0.1-0.3,0.3c-0.2,0.4-0.3,0.8-0.5,1.2h2.3l0.5-0.6L374.8,112.3z M372.4,120.1v-2.5h-1.8v2.5H372.4z M371.5,113.6
		c0.8,0.5,1.6,1.4,1.6,2c0,0.4-0.3,0.6-0.4,0.6c-0.2,0-0.3-0.1-0.3-0.6c-0.1-0.5-0.3-1.2-1-1.9L371.5,113.6z"/>
	<path d="M375.6,116.2c2.3-1.5,3.7-2.8,4.6-4.2h-2.9c-0.3,0-0.6,0-0.8,0.1l-0.3-0.4c0.3,0,0.6,0,0.9,0h3.8v-0.4c0-0.7,0-1,0-1.4
		l0.9,0.4c0.1,0,0.1,0.1,0.1,0.1s0,0.1-0.4,0.3v1.1h3.3l0.5-0.7l0.8,0.8c0.1,0,0.1,0.1,0.1,0.1s0,0-0.2,0h-4c1.6,2,3,2.7,4.8,2.8
		v0.2c-0.6,0.1-0.8,0.2-0.9,0.5c0,0,0,0-0.1,0h-0.1c-1.9-0.9-3.1-2-4-3.6h-0.2v1.6c0,0.6,0,0.9,0,1.3v0.1c0,0.2-0.1,0.2-0.3,0.3
		c-0.1,0-0.2,0.1-0.2,0.1c-0.1,0-0.1-0.1-0.1-0.2l0,0c0-0.4,0-0.9,0-1.4v-1.6c-0.8,1.1-1.8,2-3,2.9l0.7,0.5h5.4l0.4-0.4l0.6,0.5
		c0.1,0,0.1,0.1,0.1,0.1s0,0.1-0.3,0.3v4.2h0.6l0.6-0.7l0.8,0.8c0.1,0.1,0.1,0.1,0.1,0.1s-0.1,0.1-0.2,0.1h-9.8
		c-0.3,0-0.6,0-0.8,0.1l-0.3-0.4c0.3,0,0.6,0,0.9,0h1.3v-4c0-0.4,0-0.7,0-1.1c-0.6,0.4-1.3,0.8-2.1,1.3L375.6,116.2z M384.1,117.1
		v-1.3h-5.7v1.3H384.1z M384.1,118.6v-1.3h-5.7v1.2L384.1,118.6L384.1,118.6z M384.1,120.2v-1.3h-5.7v1.3H384.1z"/>
	<path d="M293.8,134.7c4-1.8,5.5-5,6-7.8c0,0,0,0,0-0.1s0-0.1-0.2-0.1c-0.3,0-5,0.3-5.6,0.6c-0.2,0.1-0.3,0.2-0.5,0.2
		c-0.4,0-0.9-0.7-0.9-1.2c0-0.2,0.2-0.3,0.3-0.4l0,0c0.1,0.7,0.7,0.7,1.2,0.7c0.6,0,4.4-0.2,5-0.2c0.2,0,0.3-0.3,0.5-0.3
		c0.3,0,1,0.7,1,0.9c0,0.1-0.2,0.2-0.3,0.3c-0.1,0.1-0.1,0.1-0.2,0.3c-0.6,2.5-2.2,5.8-6.4,7.4L293.8,134.7z M301.9,124.1
		c0.7,0,1.3,0.6,1.3,1.3c0,0.7-0.6,1.3-1.3,1.3c-0.7,0-1.3-0.6-1.3-1.3C300.6,124.6,301.2,124.1,301.9,124.1z M302.8,125.4
		c0-0.5-0.4-0.9-0.9-0.9s-1,0.4-1,0.9s0.4,1,1,1C302.4,126.3,302.8,125.9,302.8,125.4z"/>
	<path d="M306.2,134.8c3.2-1.1,5.3-2.8,6.2-5.7c0-0.1,0.1-0.2,0.1-0.3c0-0.1,0-0.1-0.1-0.1c-0.1,0-5.3,0.4-6.2,0.7
		c-0.1,0-0.2,0.2-0.4,0.2c-0.4,0-1.1-0.7-1.1-1.1c0-0.2,0.1-0.4,0.2-0.6h0.1c0,0.7,0.7,0.7,1.2,0.7c0.6,0,4.6-0.3,6-0.4
		c0.2,0,0.4-0.4,0.6-0.4c0.2,0,0.9,0.6,0.9,0.8c0,0.1-0.2,0.2-0.3,0.2c-0.1,0-0.3,0.1-0.3,0.2c-1.2,3.2-3.3,4.9-6.8,5.9L306.2,134.8
		z M306.2,125.4c0.1,0.3,0.6,0.5,1.3,0.5c0.5,0,2.2-0.1,2.9-0.3c0.4-0.1,0.6-0.2,0.8-0.4c0.6,0.1,1.2,0.2,1.2,0.5
		c0,0.2-0.3,0.3-0.8,0.3c-0.7,0-2,0.1-3,0.2c-0.6,0-1,0.1-1.3,0.1c-0.9,0-1.3-0.4-1.3-0.7C306,125.5,306.1,125.4,306.2,125.4z"/>
	<path d="M323.6,125.2c0.1-0.1,0.3-0.3,0.5-0.3c0.6,0,1.4,0.5,1.4,0.9c0,0.1-0.1,0.1-0.3,0.2c-0.2,0.1-0.3,0.1-0.4,0.3
		c-0.9,0.8-2.2,1.9-3.1,2.5c0.2,0.1,0.4,0.4,0.4,0.6c0,0.1-0.1,0.2-0.1,0.4c0,0.5,0,1.8,0,2.2c0,0.6,0,1.1,0,1.4c0,0.4,0,0.8,0,1
		c0,0.5-0.1,0.7-0.4,0.7c-0.2,0-0.4-0.5-0.5-1.1c0.2-0.3,0.2-0.5,0.2-0.9c0-0.5,0.1-1.6,0.1-2.4s0-1.4-0.2-1.6
		c-1.1,0.8-3,1.9-5.2,2.9l-0.1-0.3c5.1-2.6,8.3-5.6,8.3-6.1C324.3,125.4,323.9,125.2,323.6,125.2L323.6,125.2z"/>
	<path d="M328.3,134.4c2.8-1.6,5.9-5.2,6.9-7.8v-0.1c0,0,0-0.1-0.1-0.1c-0.2,0-2.5,0.2-3.6,0.4c-0.3,0.1-0.4,0.1-0.5,0.2
		c-0.1,0.1-0.1,0.1-0.3,0.1c-0.4,0-1-0.6-1-1c0-0.3,0.2-0.4,0.3-0.4c0.1,0.6,0.6,0.6,1.1,0.6c0.3,0,3.2-0.2,4-0.3
		c0.2,0,0.3-0.1,0.3-0.2c0.1-0.1,0.2-0.2,0.3-0.2c0.2,0,0.9,0.5,0.9,0.7s-0.2,0.2-0.3,0.3c-0.2,0.1-0.3,0.2-0.3,0.3
		c-0.4,0.8-1.4,2.3-2.1,3.2c1.1,0.7,2.5,1.6,3.3,2.3c0.6,0.6,1,1.2,1,1.5s-0.1,0.5-0.4,0.5c-0.2,0-0.5-0.4-0.9-1.1
		c-0.6-0.9-2.2-2.3-3.3-2.9c-1,1.3-2.9,3.1-4.9,4.1L328.3,134.4z"/>
	<path d="M344,125.1c0.1-0.2,0.3-0.3,0.6-0.3c0.4,0,1.2,0.3,1.2,0.6c0,0.1-0.1,0.2-0.2,0.3c0,0.1-0.1,0.2-0.1,0.4c0,0.3,0,1.1,0,1.4
		c0.9,0,1.7-0.1,2.2-0.1c0.4,0,0.7-0.1,0.8-0.2s0.2-0.3,0.3-0.3c0.2,0,1,0.7,1,0.8s-0.2,0.2-0.3,0.3c-0.1,0-0.2,0.1-0.3,0.3
		c-0.6,3-2.1,5.6-6.1,6.9l-0.1-0.3c3.6-1.4,5-4,5.6-7.1v-0.1c0-0.1-0.1-0.1-0.2-0.1c-0.5,0-4.3,0.3-4.7,0.3
		c-0.5,0.1-0.7,0.1-1.1,0.1c-0.2,0-0.4,0-0.5-0.1c0,0.8,0.1,2.2,0.2,2.6c0,0.1,0,0.1,0,0.2c0,0.2-0.1,0.4-0.3,0.4
		c-0.3,0-0.4-0.3-0.5-1c0.1-0.1,0.1-0.2,0.1-0.5c0-0.5-0.1-1.4-0.2-1.7c-0.1-0.4-0.3-0.7-0.7-0.8V127c0.1-0.1,0.3-0.1,0.5-0.1
		c0.3,0,0.7,0.3,0.8,0.6c0.1,0,0.4,0,0.4,0c0.4,0,1.5,0,2.4-0.1c0-0.4,0-1.4,0-1.6c0-0.3-0.1-0.7-0.7-0.7
		C344.2,125.2,344.1,125.2,344,125.1L344,125.1z"/>
	<path d="M353.5,128.8c0.1,0.4,0.5,0.5,0.9,0.5c0.5,0,2.1-0.1,3.2-0.2c0-1.6,0-1.8-0.3-2.1c-0.1-0.1-0.3-0.1-0.6-0.1
		c0-0.2,0.2-0.4,0.4-0.4c0.6,0,1.2,0.4,1.2,0.7c0,0.3-0.2,0.1-0.2,0.8v1c0.5,0,1.7-0.1,2-0.4c0.6,0.1,1,0.3,1,0.6
		c0,0.1-0.1,0.2-0.2,0.2h-0.1c-0.3,0-0.7-0.1-1.2-0.1c-0.4,0-1.1,0-1.5,0.1l0.1,3.3c0,0.3,0,0.6,0,0.9c0,0.1,0.1,0.3,0.1,0.5
		c0,0.4-0.3,1-0.7,1c-0.1,0-0.2-0.1-0.2-0.3c0-0.1-0.1-0.2-0.3-0.3c-0.2-0.1-1.1-0.7-1.4-0.9l0.1-0.2c0.3,0.2,1.5,0.7,1.8,0.7
		c0.1,0,0.1-0.1,0.1-0.3V133c0-0.5,0-1.8,0-3c-1.2,1.6-2.8,2.9-4.6,3.8l-0.2-0.3c1.5-0.8,3.5-2.6,4.4-4.1c-0.7,0.1-1.7,0.2-2.5,0.3
		c-0.4,0.1-0.5,0.2-0.6,0.2c-0.3,0-0.9-0.6-0.9-0.9C353.3,129,353.3,128.9,353.5,128.8L353.5,128.8z"/>
	<path d="M373.8,129.8c0,0.1-0.1,0.1-0.3,0.1c-0.1,0-0.1,0-0.2,0c-0.2,0-0.6-0.1-1.2-0.1c-0.8,0-1.8,0-3.3,0.1
		c-1.4,0.1-2.1,0.2-2.7,0.4c-0.2,0-0.3,0.1-0.5,0.1c-0.4,0-0.9-0.6-0.9-0.7s0-0.1,0.1-0.1c0.1,0,0.1,0,0.2,0
		c0.2,0.1,0.3,0.1,0.7,0.1c0.5,0,1.3-0.1,2.9-0.2c3.1-0.3,3.2-0.3,3.5-0.4c0.2,0,0.3-0.1,0.5-0.1c0.2,0,0.4,0.1,0.7,0.3
		C373.7,129.5,373.8,129.7,373.8,129.8z"/>
	<path d="M376.9,130.4c1.5-1.2,3.1-3.1,3.5-4.4c0.1-0.2,0.1-0.4,0.1-0.5c0-0.3-0.6-0.4-0.7-0.4c0-0.2,0.2-0.3,0.5-0.3
		c0.5,0,1.3,0.4,1.3,0.7c0,0.1-0.1,0.2-0.2,0.3c-0.1,0.1-0.2,0.2-0.3,0.5c-0.1,0.2-0.2,0.4-0.3,0.6c0.1,0,0.3,0,0.4,0
		c0.4,0,2.1-0.1,2.8-0.2c0.3,0,0.3,0,0.4-0.1s0.2-0.2,0.3-0.2c0.2,0,0.9,0.6,0.9,0.8c0,0.1-0.1,0.2-0.3,0.2c-0.1,0-0.3,0.1-0.4,0.3
		c-0.4,0.9-1.1,2.3-1.6,3c0.5,0.3,1.3,0.9,1.3,1.4c0,0.2-0.2,0.3-0.3,0.3c-0.2,0-0.4-0.2-0.5-0.4c-0.2-0.3-0.6-0.6-0.9-0.8
		c-1.2,1.5-3,2.9-5.2,3.8l-0.2-0.3c2-1,3.8-2.5,4.9-3.9c-0.6-0.4-1.5-0.9-2.7-1.2l0.1-0.3c1.2,0.2,2.3,0.7,2.9,1
		c1.1-1.7,1.6-3.1,1.6-3.2s0-0.1-0.2-0.1c-0.5,0-2.8,0.4-3.1,0.4c-0.2,0-0.4-0.1-0.5-0.2c-0.8,1.2-1.8,2.3-3.3,3.4L376.9,130.4z"/>
	<path d="M397.8,129.8c0,0.1-0.1,0.1-0.3,0.1c-0.1,0-0.1,0-0.2,0c-0.2,0-0.6-0.1-1.2-0.1c-0.8,0-1.8,0-3.3,0.1
		c-1.4,0.1-2.1,0.2-2.7,0.4c-0.2,0-0.3,0.1-0.5,0.1c-0.4,0-0.9-0.6-0.9-0.7s0-0.1,0.1-0.1c0.1,0,0.1,0,0.2,0
		c0.2,0.1,0.3,0.1,0.7,0.1c0.5,0,1.3-0.1,2.9-0.2c3.1-0.3,3.2-0.3,3.5-0.4c0.2,0,0.3-0.1,0.5-0.1c0.2,0,0.4,0.1,0.7,0.3
		C397.7,129.5,397.8,129.7,397.8,129.8z"/>
	<path d="M402.1,127.4c0.1-0.3,0.3-0.3,0.5-0.3c0.5,0,1.3,0.5,1.3,0.8s-0.2,0.1-0.4,0.8c-0.6,1.7-1.7,3.6-3.3,4.9l-0.3-0.3
		c2-2,3-4.8,3-5.3C402.8,127.6,402.5,127.4,402.1,127.4L402.1,127.4z M406.6,127.4c2.1,1.4,4,4,4,5.3c0,0.3,0,0.6-0.3,0.6
		c-0.2,0-0.3-0.2-0.5-0.5c-0.5-1.6-1.5-3.6-3.4-5.1L406.6,127.4z"/>
	<path d="M314,139.5c0.1-0.2,0.3-0.3,0.6-0.3c0.4,0,1.2,0.3,1.2,0.6c0,0.1-0.1,0.2-0.2,0.3c0,0.1-0.1,0.2-0.1,0.4c0,0.3,0,1.1,0,1.4
		c0.9,0,1.7-0.1,2.2-0.1c0.4,0,0.7-0.1,0.8-0.2s0.2-0.3,0.3-0.3c0.2,0,1,0.7,1,0.8c0,0.1-0.2,0.2-0.3,0.3c-0.1,0-0.2,0.1-0.3,0.3
		c-0.6,3-2.1,5.6-6.1,6.9l-0.1-0.3c3.6-1.4,5-4,5.6-7.1v-0.1c0-0.1-0.1-0.1-0.2-0.1c-0.5,0-4.3,0.3-4.7,0.3
		c-0.5,0.1-0.7,0.1-1.1,0.1c-0.2,0-0.4,0-0.5-0.1c0,0.8,0.1,2.2,0.2,2.6c0,0.1,0,0.1,0,0.2c0,0.2-0.1,0.4-0.3,0.4
		c-0.3,0-0.4-0.3-0.5-1c0.1-0.1,0.1-0.2,0.1-0.5c0-0.5-0.1-1.4-0.2-1.7c-0.1-0.4-0.3-0.7-0.7-0.8v-0.1c0.1-0.1,0.3-0.1,0.5-0.1
		c0.3,0,0.7,0.3,0.8,0.6c0.1,0,0.4,0,0.4,0c0.4,0,1.5,0,2.4-0.1c0-0.4,0-1.4,0-1.6c0-0.3-0.1-0.7-0.7-0.7
		C314.2,139.6,314.1,139.6,314,139.5L314,139.5z"/>
	<path d="M322.3,148.8c2.8-1.6,5.9-5.2,6.9-7.8v-0.1c0,0,0-0.1-0.1-0.1c-0.2,0-2.5,0.2-3.6,0.4c-0.3,0.1-0.4,0.1-0.5,0.2
		c-0.1,0.1-0.1,0.1-0.3,0.1c-0.4,0-1-0.6-1-1c0-0.3,0.2-0.4,0.3-0.4c0.1,0.6,0.6,0.6,1.1,0.6c0.3,0,3.2-0.2,4-0.3
		c0.2,0,0.3-0.1,0.3-0.2c0.1-0.1,0.2-0.2,0.3-0.2c0.2,0,0.9,0.5,0.9,0.7s-0.2,0.2-0.3,0.3c-0.2,0.1-0.3,0.2-0.3,0.3
		c-0.4,0.8-1.4,2.3-2.1,3.2c1.1,0.7,2.5,1.6,3.3,2.3c0.6,0.6,1,1.2,1,1.5s-0.1,0.5-0.4,0.5c-0.2,0-0.5-0.4-0.9-1.1
		c-0.6-0.9-2.2-2.3-3.3-2.9c-1,1.3-2.9,3.1-4.9,4.1L322.3,148.8z"/>
	<path d="M335.1,144.9c2.3-1.8,3.4-4.4,3.4-5c0-0.2-0.3-0.4-0.6-0.4c0.1-0.2,0.2-0.3,0.6-0.3s1.2,0.4,1.2,0.7c0,0.1-0.2,0.2-0.3,0.3
		c-0.1,0.1-0.1,0.1-0.2,0.3c-0.2,0.4-0.4,0.9-0.7,1.3c0.7,0,3.1-0.3,3.4-0.3c0.3,0,0.3-0.1,0.4-0.2s0.1-0.2,0.2-0.2
		c0.2,0,0.9,0.5,0.9,0.7c0,0.1-0.2,0.2-0.3,0.2c-0.1,0-0.3,0.2-0.3,0.4c-1,2.8-2.8,5.5-6.5,7l-0.2-0.1c3.2-1.6,5.2-4.2,6.1-7.1
		c0-0.1,0-0.1,0-0.2s0-0.1-0.1-0.1c-0.4,0-2.8,0.5-3.1,0.5c-0.4,0-0.6-0.1-0.8-0.2c-0.7,1.1-1.6,2.2-2.9,3L335.1,144.9z"/>
	<path d="M355.8,144.2c0,0.1-0.1,0.1-0.3,0.1c-0.1,0-0.1,0-0.2,0c-0.2,0-0.6-0.1-1.2-0.1c-0.8,0-1.8,0-3.3,0.1
		c-1.4,0.1-2.1,0.2-2.7,0.4c-0.2,0-0.3,0.1-0.5,0.1c-0.4,0-0.9-0.6-0.9-0.7s0-0.1,0.1-0.1c0.1,0,0.1,0,0.2,0
		c0.2,0.1,0.3,0.1,0.7,0.1c0.5,0,1.3-0.1,2.9-0.2c3.1-0.3,3.2-0.3,3.5-0.4c0.2,0,0.3-0.1,0.5-0.1s0.4,0.1,0.7,0.3
		C355.7,143.9,355.8,144.1,355.8,144.2z"/>
	<path d="M360.1,141.9c0.1-0.3,0.3-0.3,0.5-0.3c0.5,0,1.3,0.5,1.3,0.8s-0.2,0.1-0.4,0.8c-0.6,1.7-1.7,3.6-3.3,4.9l-0.3-0.3
		c2-2,3-4.8,3-5.3C360.8,142.2,360.5,141.9,360.1,141.9L360.1,141.9z M364.6,141.9c2.1,1.4,4,4,4,5.3c0,0.3,0,0.6-0.3,0.6
		c-0.2,0-0.3-0.2-0.5-0.5c-0.5-1.6-1.5-3.6-3.4-5.1L364.6,141.9z M367,139.3c0.7,0,1.4,0.6,1.4,1.4s-0.6,1.4-1.4,1.4
		c-0.8,0-1.4-0.6-1.4-1.4S366.2,139.3,367,139.3z M367.9,140.6c0-0.5-0.4-1-1-1c-0.5,0-1,0.4-1,1c0,0.5,0.4,1,1,1
		C367.5,141.6,367.9,141.1,367.9,140.6z"/>
	<path d="M379.8,144.2c0,0.1-0.1,0.1-0.3,0.1c-0.1,0-0.1,0-0.2,0c-0.2,0-0.6-0.1-1.2-0.1c-0.8,0-1.8,0-3.3,0.1
		c-1.4,0.1-2.1,0.2-2.7,0.4c-0.2,0-0.3,0.1-0.5,0.1c-0.4,0-0.9-0.6-0.9-0.7s0-0.1,0.1-0.1c0.1,0,0.1,0,0.2,0
		c0.2,0.1,0.3,0.1,0.7,0.1c0.5,0,1.3-0.1,2.9-0.2c3.1-0.3,3.2-0.3,3.5-0.4c0.2,0,0.3-0.1,0.5-0.1c0.2,0,0.4,0.1,0.7,0.3
		C379.7,143.9,379.8,144.1,379.8,144.2z"/>
	<path d="M382.3,148.8c2.8-1.6,5.9-5.2,6.9-7.8v-0.1c0,0,0-0.1-0.1-0.1c-0.2,0-2.5,0.2-3.6,0.4c-0.3,0.1-0.4,0.1-0.5,0.2
		s-0.1,0.1-0.3,0.1c-0.4,0-1-0.6-1-1c0-0.3,0.2-0.4,0.3-0.4c0.1,0.6,0.6,0.6,1.1,0.6c0.3,0,3.2-0.2,4-0.3c0.2,0,0.3-0.1,0.3-0.2
		c0.1-0.1,0.2-0.2,0.3-0.2c0.2,0,0.9,0.5,0.9,0.7s-0.2,0.2-0.3,0.3c-0.2,0.1-0.3,0.2-0.3,0.3c-0.4,0.8-1.4,2.3-2.1,3.2
		c1.1,0.7,2.5,1.6,3.3,2.3c0.6,0.6,1,1.2,1,1.5s-0.1,0.5-0.4,0.5c-0.2,0-0.5-0.4-0.9-1.1c-0.6-0.9-2.2-2.3-3.3-2.9
		c-1,1.3-2.9,3.1-4.9,4.1L382.3,148.8z"/>
</g>
<g>
	<path d="M9,337.7l-1.5,2.2c-0.3,0.4-0.4,0.6-0.4,0.9c0,0.1,0.1,0.7,0.1,0.9c0,0.3-0.1,0.4-0.4,0.4c-0.2,0-0.3-0.1-0.3-0.4
		c0-0.1,0.1-0.6,0.1-0.6c0-0.3-0.1-0.4-0.4-0.5c-0.4-0.1-0.6-0.2-0.9-0.2v-0.2c0.3,0,0.6,0.1,0.8,0.1c0.4,0,0.6-0.1,0.9-0.4l1.8-2.1
		L9,337.7z M10.2,346.6L10.2,346.6C10.2,346.7,10.2,346.7,10.2,346.6c-0.2,0.1-0.6,0.2-0.9,0.3c-0.9,0.3-2.6,0.9-3.5,1.1l-0.1-0.1
		c1.4-0.5,2.9-1.1,3.7-1.7L10.2,346.6z M6,337.2c0.8,0.1,1.5,0.4,1.6,0.7c0,0.1,0.1,0.2,0.1,0.3c0,0.3-0.2,0.5-0.3,0.5
		s-0.1,0-0.3-0.3c-0.1-0.3-0.4-0.7-1.1-1V337.2z M14.8,341.9C14.9,342,14.9,342,14.8,341.9c0.1,0.1,0.1,0.1,0,0.2l-0.4,0.3v2.1
		c0,0.7,0,1.2,0,1.5v0.1c0,0.1,0,0.2-0.3,0.3c-0.1,0-0.2,0.1-0.2,0.1c-0.1,0-0.1,0-0.1-0.4h-6v0.2c0,0.1,0,0.1-0.3,0.3
		c-0.1,0-0.2,0.1-0.2,0.1c-0.1,0-0.1,0-0.1-0.2v-0.1c0-0.4,0-0.9,0-1.4v-2c0-0.4,0-1,0-1.4l0.6,0.4h5.6l0.4-0.5L14.8,341.9z
		 M13.9,343.1v-0.9h-6v0.9H13.9z M13.9,344.4v-1h-6v1H13.9z M13.9,345.6v-1h-6v1H13.9z M16.6,341.2c-0.6,0.1-0.9,0.2-1,0.5
		c0,0,0,0-0.1,0c0,0,0,0-0.1,0c-1.5-0.5-2.6-1.2-3.3-2.4c-0.9,1.5-1.8,2.1-3.9,2.4l-0.1-0.2c2.1-0.6,3.1-1.4,3.6-3l0.8,0.3h0.1
		l-0.3,0.2c1.1,1.5,2.7,2,4.3,2V341.2z M15.8,338.4C15.9,338.5,15.9,338.5,15.8,338.4C15.9,338.5,15.9,338.5,15.8,338.4
		c-0.5,0.2-1,0.4-1.9,1.3l-0.1-0.1l0.8-1.1h-4.4c-0.4,0.6-0.9,1.1-1.5,1.7l-0.1-0.1c0.9-1.2,1.5-2.2,2-3.5l0.9,0.4l0,0
		c0,0,0,0-0.1,0c-0.2,0-0.5,0.2-0.5,0.3c-0.2,0.3-0.3,0.6-0.5,0.8h4.2l0.4-0.4L15.8,338.4z M11.8,346.3c2.5,0.2,3.9,0.5,3.9,1.2
		c0,0.2-0.1,0.3-0.2,0.3c-0.1,0-0.3-0.1-0.7-0.4s-1.5-0.6-3-1V346.3z"/>
	<path d="M28.1,340.8C28.2,340.8,28.2,340.8,28.1,340.8c0.1,0.1,0,0.1,0,0.1h-8.9c-0.1,4.4-0.2,5.4-1.9,6.8l-0.1-0.1
		c1.2-1.5,1.4-2.4,1.4-4.1c0-1.1,0-2.6,0-3.6l0.7,0.7h4.3c0.5-0.8,1-1.7,1.1-2l0.7,0.5c0.1,0,0.1,0.1,0.1,0.1s0,0-0.1,0
		c-0.2,0-0.5,0.2-0.8,0.5l-0.8,0.8h2.9l0.6-0.6L28.1,340.8z M28,338.3C28,338.3,28,338.4,28,338.3c0.1,0.1,0,0.1,0,0.1h-9.1
		c-0.3,0-0.6,0-0.8,0.1l-0.3-0.4c0.3,0,0.6,0,0.9,0h8l0.6-0.7L28,338.3z M28.1,347C28.1,347.1,28.1,347.1,28.1,347
		c0.1,0.1,0,0.1,0,0.1h-7.9c-0.3,0-0.6,0-0.8,0.1l-0.3-0.4c0.3,0,0.6,0,0.9,0h3.3V345h-1.8c-0.3,0-0.6,0-0.8,0.1l-0.3-0.4
		c0.3,0,0.6,0,0.9,0h2.1v-1.6h-2.1c-0.5,0.8-1,1.4-1.5,2l-0.1-0.1c0.7-0.9,1.6-2.8,1.8-3.7l0.8,0.5l0.1,0.1c0,0,0,0-0.1,0.1
		c-0.3,0.1-0.4,0.1-0.8,0.9h2c0-0.9,0-1.5,0-1.8l1,0.4c0,0,0.1,0,0.1,0.1c0,0,0,0-0.1,0.1l-0.4,0.3v1.1h2.4l0.5-0.6l0.8,0.7l0.1,0.1
		c0,0,0,0-0.1,0h-3.7v1.6h2.2l0.5-0.6l0.8,0.7l0.1,0.1c0,0,0,0-0.1,0h-3.4v1.9h3l0.6-0.7L28.1,347z M20.5,338.7
		c1.1,0.4,1.5,0.7,1.7,1.2v0.1c0,0.3-0.3,0.5-0.5,0.5c-0.1,0-0.2-0.1-0.3-0.4c-0.1-0.4-0.5-1-1-1.3L20.5,338.7z M21.9,336.6
		c0.7,0.1,1.5,0.5,1.6,0.8c0,0.1,0,0.2,0,0.3c0,0.3-0.2,0.5-0.5,0.5c-0.1,0-0.2-0.1-0.3-0.3c-0.1-0.5-0.5-0.8-1-1.1L21.9,336.6z"/>
	<path d="M34.9,338l0.1,0.1c0,0.1,0,0.1-0.1,0.1h-2.3c0.6,0.5,0.8,0.8,0.8,1.1c0,0.3-0.2,0.5-0.4,0.5c-0.1,0-0.2-0.1-0.2-0.3
		c0-0.3-0.2-0.9-0.4-1.3h-0.7c-0.8,1-1.4,1.7-2,2.2l-0.1-0.1c1-1.3,1.9-2.5,2.5-3.7l0.7,0.4c0.1,0,0.1,0.1,0.1,0.1s0,0-0.1,0.1
		c-0.3,0.1-0.3,0.1-0.8,0.7h2l0.4-0.6L34.9,338z M40.1,340.6c0.1,0.1,0.1,0.1,0.1,0.1s0,0.1-0.1,0.1c-0.4,0-0.9,0.3-1.5,1.1
		l-0.2-0.1l0.6-1.1h-8.1c-0.1,1.1-0.5,1.4-0.9,1.4c-0.2,0-0.3-0.1-0.3-0.2c0-0.1,0.1-0.3,0.3-0.5c0.3-0.3,0.6-0.7,0.7-1.6h0.2
		c0,0.2,0,0.4,0,0.6h8l0.4-0.5L40.1,340.6z M38.2,345C38.2,345,38.3,345.1,38.2,345c0.1,0.1,0,0.1,0,0.2l-0.3,0.2v1.2
		c0,0.3,0,0.5,0,0.8l0,0c0,0.2-0.4,0.3-0.5,0.3s-0.1,0-0.1-0.1V347h-4.7v0.5c0,0.2-0.5,0.4-0.5,0.4c-0.1,0-0.1-0.1-0.1-0.2v-0.1
		c0-0.5,0-0.9,0-1.6v-3.7c0-0.4,0-0.9,0-1.2l0.7,0.6h3.9l0.3-0.5l0.7,0.6l0.1,0.1c0,0,0,0.1-0.1,0.1l-0.3,0.2v0.6c0,0.3,0,0.6,0,0.9
		l0,0c0,0.2-0.5,0.3-0.5,0.3c-0.1,0-0.1,0-0.1-0.4h-4.2v1.3H37l0.3-0.4L38.2,345z M36.9,343.3V342h-4.2v1.3H36.9z M37.4,346.8v-1.7
		h-4.7v1.7H37.4z M34,338.9c0.7,0.3,1.2,0.6,1.2,1.1c0,0.2-0.2,0.4-0.3,0.4s-0.2-0.1-0.3-0.3c-0.1-0.3-0.4-0.8-0.7-1.1L34,338.9z
		 M40,338c0.1,0.1,0.1,0.1,0.1,0.2c0,0,0,0.1-0.2,0.1h-3c0.7,0.5,0.9,0.9,0.9,1.2c0,0.3-0.3,0.5-0.4,0.5c-0.1,0-0.2-0.1-0.2-0.3
		c0-0.5-0.2-0.9-0.5-1.4h-0.8c-0.3,0.3-0.6,0.7-0.8,1l-0.1-0.1c0.7-1,1.1-1.6,1.4-2.4l0.6,0.3c0,0,0.1,0,0.1,0.1c0,0,0,0-0.1,0.1
		c-0.2,0.1-0.3,0.2-0.5,0.3c-0.1,0.2-0.3,0.3-0.4,0.5h2.7l0.5-0.6L40,338z"/>
	<path d="M46,344.2l-3,1.4c-0.4,0.2-0.8,0.4-0.9,0.6l-0.1,0.1c0,0-0.1,0-0.1-0.1l-0.4-0.6l1.9-0.7v-3.1h-0.8c-0.2,0-0.6,0-0.8,0.1
		l-0.3-0.4c0.3,0,0.6,0,0.8,0h0.9v-3h-0.6c-0.3,0-0.6,0-0.8,0.1l-0.3-0.4c0.3,0,0.6,0,0.9,0h2.3l0.4-0.6l0.7,0.6
		c0.1,0.1,0.1,0.1,0.1,0.2c0,0,0,0.1-0.1,0.1h-1.9v3h0.7l0.4-0.6l0.6,0.6c0.1,0.1,0.1,0.1,0.1,0.1s0,0.1-0.1,0.1h-1.7v3L46,344
		L46,344.2z M52.3,347c0.1,0.1,0.1,0.1,0.1,0.1s0,0.1-0.1,0.1h-6.5c-0.3,0-0.6,0-0.8,0.1l-0.3-0.4c0.3,0,0.6,0,0.9,0h3v-2.1h-1.4
		c-0.3,0-0.6,0-0.8,0.1l-0.3-0.4c0.3,0,0.6,0,0.9,0h1.6v-1.9h-1.7c0,0.3,0,0.3-0.3,0.5c-0.1,0.1-0.2,0.1-0.2,0.1
		c-0.1,0-0.1-0.1-0.1-0.2v0c0-0.5,0-1,0-1.6v-2.8c0-0.5,0-0.9,0-1.3l0.7,0.5h3.7l0.4-0.6l0.7,0.5c0.1,0,0.1,0.1,0.1,0.1
		s0,0.1-0.1,0.1l-0.3,0.2v3c0,0.5,0,1,0.1,1.4v0.1c0,0.3-0.5,0.5-0.5,0.5c-0.1,0-0.1,0-0.1-0.5h-1.8v1.9h1.6l0.5-0.7l0.8,0.7
		c0.1,0.1,0.1,0.1,0.1,0.2c0,0.1-0.1,0.1-0.2,0.1h-2.7v2.1h2l0.5-0.7L52.3,347z M48.5,340.3v-2.2h-1.7v2.2H48.5z M48.5,342.4v-1.9
		h-1.7v1.9H48.5z M50.8,340.3v-2.2H49v2.2H50.8z M50.8,342.4v-1.9H49v1.9H50.8z"/>
	<path d="M55.4,347c4-1.8,5.5-5,6-7.8c0,0,0,0,0-0.1c0-0.1,0-0.1-0.2-0.1c-0.3,0-5,0.3-5.6,0.6c-0.2,0.1-0.3,0.2-0.5,0.2
		c-0.4,0-0.9-0.7-0.9-1.2c0-0.2,0.2-0.3,0.3-0.4l0,0c0.1,0.7,0.7,0.7,1.2,0.7c0.6,0,4.4-0.2,5-0.2c0.2,0,0.3-0.3,0.5-0.3
		c0.3,0,1,0.7,1,0.9c0,0.1-0.2,0.2-0.3,0.3s-0.1,0.1-0.2,0.3c-0.6,2.5-2.2,5.8-6.4,7.4L55.4,347z M63.5,336.4c0.7,0,1.3,0.6,1.3,1.3
		s-0.6,1.3-1.3,1.3c-0.7,0-1.3-0.6-1.3-1.3C62.2,336.9,62.8,336.4,63.5,336.4z M64.5,337.7c0-0.5-0.4-0.9-0.9-0.9s-1,0.4-1,0.9
		s0.4,1,1,1C64.1,338.6,64.5,338.2,64.5,337.7z"/>
	<path d="M67.8,347.1c3.2-1.1,5.3-2.8,6.2-5.7c0-0.1,0.1-0.2,0.1-0.3c0-0.1,0-0.1-0.1-0.1s-5.3,0.4-6.2,0.7c-0.1,0-0.2,0.2-0.4,0.2
		c-0.4,0-1.1-0.7-1.1-1.1c0-0.2,0.1-0.4,0.2-0.6h0.1c0,0.7,0.7,0.7,1.2,0.7c0.6,0,4.6-0.3,6-0.4c0.2,0,0.4-0.4,0.6-0.4
		s0.9,0.6,0.9,0.8c0,0.1-0.2,0.2-0.3,0.2s-0.3,0.1-0.3,0.2c-1.2,3.2-3.3,4.9-6.8,5.9L67.8,347.1z M67.8,337.7
		c0.1,0.3,0.6,0.5,1.3,0.5c0.5,0,2.2-0.1,2.9-0.3c0.4-0.1,0.6-0.2,0.8-0.4c0.6,0.1,1.2,0.2,1.2,0.5c0,0.2-0.3,0.3-0.8,0.3
		c-0.7,0-2,0.1-3,0.2c-0.6,0-1,0.1-1.3,0.1c-0.9,0-1.3-0.4-1.3-0.7C67.7,337.8,67.8,337.7,67.8,337.7z"/>
	<path d="M79.1,340.7c0.7,0.5,1.4,1.4,1.4,2c0,0.3-0.1,0.5-0.3,0.5c-0.2,0-0.3-0.1-0.3-0.3c0-0.7-0.5-1.4-0.9-2L79.1,340.7z
		 M80.8,347.2c3.7-1.8,5-5.7,5-6.3c0-0.1,0-0.2-0.1-0.3s-0.4-0.2-0.6-0.2c0,0,0.1-0.3,0.4-0.3c0.5,0,1.2,0.5,1.2,0.8
		c0,0.1-0.1,0.2-0.2,0.3c0,0-0.1,0.1-0.1,0.2c-0.8,2.6-2.6,4.9-5.4,6.1L80.8,347.2z M82,340.1c0.9,0.7,1.2,1.5,1.2,2.1
		c0,0.4-0.1,0.7-0.3,0.7c-0.2,0-0.4-0.1-0.4-0.4c0-0.6-0.1-1.4-0.7-2.2L82,340.1z"/>
	<path d="M92.5,337.6c0.1-0.2,0.3-0.3,0.5-0.3c0.5,0,1.4,0.3,1.4,0.7c0,0.1-0.1,0.2-0.2,0.3c0,0.1-0.1,0.2-0.1,0.3
		c0,0.5,0,1.4-0.1,2.5c1.5,0.2,2.8,0.6,3.5,0.9c0.7,0.4,1,0.6,1,1c0,0.2-0.1,0.3-0.3,0.3c-0.3,0-0.6-0.3-0.9-0.6
		c-0.5-0.5-1.8-1-3.3-1.4c0,0.9,0,1.8,0,2.5c0,0.4,0,2.4,0,2.8c0,0.5-0.2,0.6-0.4,0.6c-0.4,0-0.6-1.2-0.6-1.4
		c0.1-0.1,0.2-0.3,0.2-0.5c0.1-0.8,0.1-1.5,0.1-4.1c0-1.1,0-2.3,0-2.8C93.4,338.2,93.3,337.6,92.5,337.6L92.5,337.6z"/>
	<path d="M103.5,347c4.2-1.6,6.1-5.2,6.7-8v-0.1l0,0c-0.6,0-5.8,0.3-6.3,0.6c-0.3,0.1-0.3,0.1-0.5,0.1c-0.4,0-0.9-0.6-0.9-1.1
		c0-0.2,0.1-0.3,0.3-0.4l0,0c0.1,0.6,0.8,0.6,1.3,0.6c1,0,5.1-0.2,5.7-0.3c0.3,0,0.4-0.3,0.6-0.3c0.3,0,1,0.6,1,0.8
		c0,0.1-0.2,0.2-0.3,0.2c-0.2,0.1-0.3,0.1-0.3,0.3c-0.8,2.8-2.6,6.3-7.2,7.8L103.5,347z"/>
	<path d="M115.2,341.1c0.1,0.4,0.5,0.5,0.9,0.5c0.5,0,2.1-0.1,3.2-0.2c0-1.6,0-1.8-0.3-2.1c-0.1-0.1-0.3-0.1-0.6-0.1
		c0-0.2,0.2-0.4,0.4-0.4c0.6,0,1.2,0.4,1.2,0.7s-0.2,0.1-0.2,0.8v1c0.5,0,1.7-0.1,2-0.4c0.6,0.1,1,0.3,1,0.6c0,0.1-0.1,0.2-0.2,0.2
		h-0.1c-0.3,0-0.7-0.1-1.2-0.1c-0.4,0-1.1,0-1.5,0.1l0.1,3.3c0,0.3,0,0.6,0,0.9c0,0.1,0.1,0.3,0.1,0.5c0,0.4-0.3,1-0.7,1
		c-0.1,0-0.2-0.1-0.2-0.3c0-0.1-0.1-0.2-0.3-0.3c-0.2-0.1-1.1-0.7-1.4-0.9l0.1-0.2c0.3,0.2,1.5,0.7,1.8,0.7c0.1,0,0.1-0.1,0.1-0.3
		v-0.8c0-0.5,0-1.8,0-3c-1.2,1.6-2.8,2.9-4.6,3.8l-0.2-0.3c1.5-0.8,3.5-2.6,4.4-4.1c-0.7,0.1-1.7,0.2-2.5,0.3
		c-0.4,0.1-0.5,0.2-0.6,0.2c-0.3,0-0.9-0.6-0.9-0.9C115,341.3,115,341.2,115.2,341.1L115.2,341.1z"/>
	<path d="M135.5,342.1c0,0.1-0.1,0.1-0.3,0.1c-0.1,0-0.1,0-0.2,0c-0.2,0-0.6-0.1-1.2-0.1c-0.8,0-1.8,0-3.3,0.1
		c-1.4,0.1-2.1,0.2-2.7,0.4c-0.2,0-0.3,0.1-0.5,0.1c-0.4,0-0.9-0.6-0.9-0.7c0-0.1,0-0.1,0.1-0.1s0.1,0,0.2,0
		c0.2,0.1,0.3,0.1,0.7,0.1c0.5,0,1.3-0.1,2.9-0.2c3.1-0.3,3.2-0.3,3.5-0.4c0.2,0,0.3-0.1,0.5-0.1s0.4,0.1,0.7,0.3
		C135.4,341.8,135.5,342,135.5,342.1z"/>
	<path d="M144.3,342.4c1.7,1.1,3.4,3.1,3.4,4c0,0.4,0,0.6-0.3,0.6s-0.4-0.4-0.6-0.9c0-0.1-0.1-0.2-0.1-0.4c-2,0.3-5.2,0.6-6.8,0.8
		c-0.4,0-0.5,0.3-0.8,0.3c-0.4,0-1-0.7-1-1.1c0-0.2,0.1-0.4,0.2-0.4c0.1,0.2,0.2,0.6,0.7,0.6c0.1,0,0.3,0,0.6,0
		c1.2-2.7,2.4-7.2,2.4-7.6c0-0.4-0.6-0.5-0.8-0.5c0-0.2,0.3-0.4,0.6-0.4c0.5,0,1.3,0.4,1.3,0.8c0,0.1-0.1,0.2-0.2,0.3
		s-0.2,0.2-0.2,0.4c-0.7,2.2-1.6,4.8-2.7,7c1.4-0.1,4.7-0.3,6.5-0.5c-0.5-0.9-1.5-2.1-2.4-2.7L144.3,342.4z"/>
</g>
<g>
	<path d="M279.2,337.7l-1.5,2.2c-0.3,0.4-0.4,0.6-0.4,0.9c0,0.1,0.1,0.7,0.1,0.9c0,0.3-0.1,0.4-0.4,0.4c-0.2,0-0.3-0.1-0.3-0.4
		c0-0.1,0.1-0.6,0.1-0.6c0-0.3-0.1-0.4-0.4-0.5c-0.4-0.1-0.6-0.2-0.9-0.2v-0.2c0.3,0,0.6,0.1,0.8,0.1c0.4,0,0.6-0.1,0.9-0.4l1.8-2.1
		L279.2,337.7z M280.4,346.6L280.4,346.6C280.4,346.7,280.4,346.7,280.4,346.6c-0.2,0.1-0.6,0.2-0.9,0.3c-0.9,0.3-2.6,0.9-3.5,1.1
		l-0.1-0.1c1.4-0.5,2.9-1.1,3.7-1.7L280.4,346.6z M276.2,337.2c0.8,0.1,1.5,0.4,1.6,0.7c0,0.1,0.1,0.2,0.1,0.3
		c0,0.3-0.2,0.5-0.3,0.5s-0.1,0-0.3-0.3c-0.1-0.3-0.4-0.7-1.1-1V337.2z M285,341.9C285.1,342,285.1,342,285,341.9
		c0.1,0.1,0.1,0.1,0,0.2l-0.4,0.3v2.1c0,0.7,0,1.2,0,1.5v0.1c0,0.1,0,0.2-0.3,0.3c-0.1,0-0.2,0.1-0.2,0.1c-0.1,0-0.1,0-0.1-0.4h-6
		v0.2c0,0.1,0,0.1-0.3,0.3c-0.1,0-0.2,0.1-0.2,0.1c-0.1,0-0.1,0-0.1-0.2v-0.1c0-0.4,0-0.9,0-1.4v-2c0-0.4,0-1,0-1.4l0.6,0.4h5.6
		l0.4-0.5L285,341.9z M284.1,343.1v-0.9h-6v0.9H284.1z M284.1,344.4v-1h-6v1H284.1z M284.1,345.6v-1h-6v1H284.1z M286.8,341.2
		c-0.6,0.1-0.9,0.2-1,0.5c0,0,0,0-0.1,0c0,0,0,0-0.1,0c-1.5-0.5-2.6-1.2-3.3-2.4c-0.9,1.5-1.8,2.1-3.9,2.4l-0.1-0.2
		c2.1-0.6,3.1-1.4,3.6-3l0.8,0.3h0.1l-0.3,0.2c1.1,1.5,2.7,2,4.3,2V341.2z M286,338.4C286.1,338.5,286.1,338.5,286,338.4
		C286.1,338.5,286.1,338.5,286,338.4c-0.5,0.2-1,0.4-1.9,1.3l-0.1-0.1l0.8-1.1h-4.4c-0.4,0.6-0.9,1.1-1.5,1.7l-0.1-0.1
		c0.9-1.2,1.5-2.2,2-3.5l0.9,0.4l0,0c0,0,0,0-0.1,0c-0.2,0-0.5,0.2-0.5,0.3c-0.2,0.3-0.3,0.6-0.5,0.8h4.2l0.4-0.4L286,338.4z
		 M282,346.3c2.5,0.2,3.9,0.5,3.9,1.2c0,0.2-0.1,0.3-0.2,0.3s-0.3-0.1-0.7-0.4s-1.5-0.6-3-1V346.3z"/>
	<path d="M298.3,340.8C298.4,340.8,298.4,340.8,298.3,340.8c0.1,0.1,0,0.1,0,0.1h-8.9c-0.1,4.4-0.2,5.4-1.9,6.8l-0.1-0.1
		c1.2-1.5,1.4-2.4,1.4-4.1c0-1.1,0-2.6,0-3.6l0.7,0.7h4.3c0.5-0.8,1-1.7,1.1-2l0.7,0.5c0.1,0,0.1,0.1,0.1,0.1s0,0-0.1,0
		c-0.2,0-0.5,0.2-0.8,0.5l-0.8,0.8h2.9l0.6-0.6L298.3,340.8z M298.2,338.3C298.2,338.3,298.2,338.4,298.2,338.3c0.1,0.1,0,0.1,0,0.1
		h-9.1c-0.3,0-0.6,0-0.8,0.1l-0.3-0.4c0.3,0,0.6,0,0.9,0h8l0.6-0.7L298.2,338.3z M298.3,347C298.3,347.1,298.3,347.1,298.3,347
		c0.1,0.1,0,0.1,0,0.1h-7.9c-0.3,0-0.6,0-0.8,0.1l-0.3-0.4c0.3,0,0.6,0,0.9,0h3.3V345h-1.8c-0.3,0-0.6,0-0.8,0.1l-0.3-0.4
		c0.3,0,0.6,0,0.9,0h2.1v-1.6h-2.1c-0.5,0.8-1,1.4-1.5,2l-0.1-0.1c0.7-0.9,1.6-2.8,1.8-3.7l0.8,0.5l0.1,0.1c0,0,0,0-0.1,0.1
		c-0.3,0.1-0.4,0.1-0.8,0.9h2c0-0.9,0-1.5,0-1.8l1,0.4c0,0,0.1,0,0.1,0.1c0,0,0,0-0.1,0.1l-0.4,0.3v1.1h2.4l0.5-0.6l0.8,0.7l0.1,0.1
		c0,0,0,0-0.1,0h-3.7v1.6h2.2l0.5-0.6l0.8,0.7l0.1,0.1c0,0,0,0-0.1,0h-3.4v1.9h3l0.6-0.7L298.3,347z M290.7,338.7
		c1.1,0.4,1.5,0.7,1.7,1.2v0.1c0,0.3-0.3,0.5-0.5,0.5c-0.1,0-0.2-0.1-0.3-0.4c-0.1-0.4-0.5-1-1-1.3L290.7,338.7z M292.1,336.6
		c0.7,0.1,1.5,0.5,1.6,0.8c0,0.1,0,0.2,0,0.3c0,0.3-0.2,0.5-0.5,0.5c-0.1,0-0.2-0.1-0.3-0.3c-0.1-0.5-0.5-0.8-1-1.1L292.1,336.6z"/>
	<path d="M305.1,338l0.1,0.1c0,0.1,0,0.1-0.1,0.1h-2.3c0.6,0.5,0.8,0.8,0.8,1.1c0,0.3-0.2,0.5-0.4,0.5c-0.1,0-0.2-0.1-0.2-0.3
		c0-0.3-0.2-0.9-0.4-1.3h-0.7c-0.8,1-1.4,1.7-2,2.2l-0.1-0.1c1-1.3,1.9-2.5,2.5-3.7l0.7,0.4c0.1,0,0.1,0.1,0.1,0.1s0,0-0.1,0.1
		c-0.3,0.1-0.3,0.1-0.8,0.7h2l0.4-0.6L305.1,338z M310.3,340.6c0.1,0.1,0.1,0.1,0.1,0.1s0,0.1-0.1,0.1c-0.4,0-0.9,0.3-1.5,1.1
		l-0.2-0.1l0.6-1.1h-8.1c-0.1,1.1-0.5,1.4-0.9,1.4c-0.2,0-0.3-0.1-0.3-0.2c0-0.1,0.1-0.3,0.3-0.5c0.3-0.3,0.6-0.7,0.7-1.6h0.2
		c0,0.2,0,0.4,0,0.6h8l0.4-0.5L310.3,340.6z M308.4,345C308.4,345,308.5,345.1,308.4,345c0.1,0.1,0,0.1,0,0.2l-0.3,0.2v1.2
		c0,0.3,0,0.5,0,0.8l0,0c0,0.2-0.4,0.3-0.5,0.3s-0.1,0-0.1-0.1V347h-4.7v0.5c0,0.2-0.5,0.4-0.5,0.4c-0.1,0-0.1-0.1-0.1-0.2v-0.1
		c0-0.5,0-0.9,0-1.6v-3.7c0-0.4,0-0.9,0-1.2l0.7,0.6h3.9l0.3-0.5l0.7,0.6l0.1,0.1c0,0,0,0.1-0.1,0.1l-0.3,0.2v0.6c0,0.3,0,0.6,0,0.9
		l0,0c0,0.2-0.5,0.3-0.5,0.3c-0.1,0-0.1,0-0.1-0.4h-4.2v1.3h4.5l0.3-0.4L308.4,345z M307.1,343.3V342h-4.2v1.3H307.1z M307.6,346.8
		v-1.7h-4.7v1.7H307.6z M304.2,338.9c0.7,0.3,1.2,0.6,1.2,1.1c0,0.2-0.2,0.4-0.3,0.4s-0.2-0.1-0.3-0.3c-0.1-0.3-0.4-0.8-0.7-1.1
		L304.2,338.9z M310.2,338c0.1,0.1,0.1,0.1,0.1,0.2c0,0,0,0.1-0.2,0.1h-3c0.7,0.5,0.9,0.9,0.9,1.2c0,0.3-0.3,0.5-0.4,0.5
		c-0.1,0-0.2-0.1-0.2-0.3c0-0.5-0.2-0.9-0.5-1.4h-0.8c-0.3,0.3-0.6,0.7-0.8,1l-0.1-0.1c0.7-1,1.1-1.6,1.4-2.4l0.6,0.3
		c0,0,0.1,0,0.1,0.1c0,0,0,0-0.1,0.1c-0.2,0.1-0.3,0.2-0.5,0.3c-0.1,0.2-0.3,0.3-0.4,0.5h2.7l0.5-0.6L310.2,338z"/>
	<path d="M316.2,344.2l-3,1.4c-0.4,0.2-0.8,0.4-0.9,0.6l-0.1,0.1c0,0-0.1,0-0.1-0.1l-0.4-0.6l1.9-0.7v-3.1h-0.8
		c-0.2,0-0.6,0-0.8,0.1l-0.3-0.4c0.3,0,0.6,0,0.8,0h0.9v-3h-0.6c-0.3,0-0.6,0-0.8,0.1l-0.3-0.4c0.3,0,0.6,0,0.9,0h2.3l0.4-0.6
		l0.7,0.6c0.1,0.1,0.1,0.1,0.1,0.2c0,0,0,0.1-0.1,0.1h-1.9v3h0.7l0.4-0.6l0.6,0.6c0.1,0.1,0.1,0.1,0.1,0.1s0,0.1-0.1,0.1h-1.7v3
		l2.1-0.7L316.2,344.2z M322.5,347c0.1,0.1,0.1,0.1,0.1,0.1s0,0.1-0.1,0.1H316c-0.3,0-0.6,0-0.8,0.1l-0.3-0.4c0.3,0,0.6,0,0.9,0h3
		v-2.1h-1.4c-0.3,0-0.6,0-0.8,0.1l-0.3-0.4c0.3,0,0.6,0,0.9,0h1.6v-1.9h-1.7c0,0.3,0,0.3-0.3,0.5c-0.1,0.1-0.2,0.1-0.2,0.1
		c-0.1,0-0.1-0.1-0.1-0.2v0c0-0.5,0-1,0-1.6v-2.8c0-0.5,0-0.9,0-1.3l0.7,0.5h3.7l0.4-0.6l0.7,0.5c0.1,0,0.1,0.1,0.1,0.1
		s0,0.1-0.1,0.1l-0.3,0.2v3c0,0.5,0,1,0.1,1.4v0.1c0,0.3-0.5,0.5-0.5,0.5c-0.1,0-0.1,0-0.1-0.5h-1.8v1.9h1.6l0.5-0.7l0.8,0.7
		c0.1,0.1,0.1,0.1,0.1,0.2c0,0.1-0.1,0.1-0.2,0.1h-2.7v2.1h2l0.5-0.7L322.5,347z M318.7,340.3v-2.2H317v2.2H318.7z M318.7,342.4
		v-1.9H317v1.9H318.7z M321,340.3v-2.2h-1.8v2.2H321z M321,342.4v-1.9h-1.8v1.9H321z"/>
	<path d="M325.6,347c4-1.8,5.5-5,6-7.8c0,0,0,0,0-0.1c0-0.1,0-0.1-0.2-0.1c-0.3,0-5,0.3-5.6,0.6c-0.2,0.1-0.3,0.2-0.5,0.2
		c-0.4,0-0.9-0.7-0.9-1.2c0-0.2,0.2-0.3,0.3-0.4l0,0c0.1,0.7,0.7,0.7,1.2,0.7c0.6,0,4.4-0.2,5-0.2c0.2,0,0.3-0.3,0.5-0.3
		c0.3,0,1,0.7,1,0.9c0,0.1-0.2,0.2-0.3,0.3s-0.1,0.1-0.2,0.3c-0.6,2.5-2.2,5.8-6.4,7.4L325.6,347z M333.7,336.4
		c0.7,0,1.3,0.6,1.3,1.3s-0.6,1.3-1.3,1.3c-0.7,0-1.3-0.6-1.3-1.3C332.4,336.9,333,336.4,333.7,336.4z M334.7,337.7
		c0-0.5-0.4-0.9-0.9-0.9s-1,0.4-1,0.9s0.4,1,1,1C334.3,338.6,334.7,338.2,334.7,337.7z"/>
	<path d="M338,347.1c3.2-1.1,5.3-2.8,6.2-5.7c0-0.1,0.1-0.2,0.1-0.3c0-0.1,0-0.1-0.1-0.1s-5.3,0.4-6.2,0.7c-0.1,0-0.2,0.2-0.4,0.2
		c-0.4,0-1.1-0.7-1.1-1.1c0-0.2,0.1-0.4,0.2-0.6h0.1c0,0.7,0.7,0.7,1.2,0.7c0.6,0,4.6-0.3,6-0.4c0.2,0,0.4-0.4,0.6-0.4
		s0.9,0.6,0.9,0.8c0,0.1-0.2,0.2-0.3,0.2s-0.3,0.1-0.3,0.2c-1.2,3.2-3.3,4.9-6.8,5.9L338,347.1z M338,337.7c0.1,0.3,0.6,0.5,1.3,0.5
		c0.5,0,2.2-0.1,2.9-0.3c0.4-0.1,0.6-0.2,0.8-0.4c0.6,0.1,1.2,0.2,1.2,0.5c0,0.2-0.3,0.3-0.8,0.3c-0.7,0-2,0.1-3,0.2
		c-0.6,0-1,0.1-1.3,0.1c-0.9,0-1.3-0.4-1.3-0.7C337.9,337.8,338,337.7,338,337.7z"/>
	<path d="M349.3,340.7c0.7,0.5,1.4,1.4,1.4,2c0,0.3-0.1,0.5-0.3,0.5c-0.2,0-0.3-0.1-0.3-0.3c0-0.7-0.5-1.4-0.9-2L349.3,340.7z
		 M351,347.2c3.7-1.8,5-5.7,5-6.3c0-0.1,0-0.2-0.1-0.3s-0.4-0.2-0.6-0.2c0,0,0.1-0.3,0.4-0.3c0.5,0,1.2,0.5,1.2,0.8
		c0,0.1-0.1,0.2-0.2,0.3c0,0-0.1,0.1-0.1,0.2c-0.8,2.6-2.6,4.9-5.4,6.1L351,347.2z M352.2,340.1c0.9,0.7,1.2,1.5,1.2,2.1
		c0,0.4-0.1,0.7-0.3,0.7c-0.2,0-0.4-0.1-0.4-0.4c0-0.6-0.1-1.4-0.7-2.2L352.2,340.1z"/>
	<path d="M362.7,337.6c0.1-0.2,0.3-0.3,0.5-0.3c0.5,0,1.4,0.3,1.4,0.7c0,0.1-0.1,0.2-0.2,0.3c0,0.1-0.1,0.2-0.1,0.3
		c0,0.5,0,1.4-0.1,2.5c1.5,0.2,2.8,0.6,3.5,0.9c0.7,0.4,1,0.6,1,1c0,0.2-0.1,0.3-0.3,0.3c-0.3,0-0.6-0.3-0.9-0.6
		c-0.5-0.5-1.8-1-3.3-1.4c0,0.9,0,1.8,0,2.5c0,0.4,0,2.4,0,2.8c0,0.5-0.2,0.6-0.4,0.6c-0.4,0-0.6-1.2-0.6-1.4
		c0.1-0.1,0.2-0.3,0.2-0.5c0.1-0.8,0.1-1.5,0.1-4.1c0-1.1,0-2.3,0-2.8C363.6,338.2,363.5,337.6,362.7,337.6L362.7,337.6z"/>
	<path d="M373.7,347c4.2-1.6,6.1-5.2,6.7-8v-0.1l0,0c-0.6,0-5.8,0.3-6.3,0.6c-0.3,0.1-0.3,0.1-0.5,0.1c-0.4,0-0.9-0.6-0.9-1.1
		c0-0.2,0.1-0.3,0.3-0.4l0,0c0.1,0.6,0.8,0.6,1.3,0.6c1,0,5.1-0.2,5.7-0.3c0.3,0,0.4-0.3,0.6-0.3c0.3,0,1,0.6,1,0.8
		c0,0.1-0.2,0.2-0.3,0.2c-0.2,0.1-0.3,0.1-0.3,0.3c-0.8,2.8-2.6,6.3-7.2,7.8L373.7,347z"/>
	<path d="M385.4,341.1c0.1,0.4,0.5,0.5,0.9,0.5c0.5,0,2.1-0.1,3.2-0.2c0-1.6,0-1.8-0.3-2.1c-0.1-0.1-0.3-0.1-0.6-0.1
		c0-0.2,0.2-0.4,0.4-0.4c0.6,0,1.2,0.4,1.2,0.7s-0.2,0.1-0.2,0.8v1c0.5,0,1.7-0.1,2-0.4c0.6,0.1,1,0.3,1,0.6c0,0.1-0.1,0.2-0.2,0.2
		h-0.1c-0.3,0-0.7-0.1-1.2-0.1c-0.4,0-1.1,0-1.5,0.1l0.1,3.3c0,0.3,0,0.6,0,0.9c0,0.1,0.1,0.3,0.1,0.5c0,0.4-0.3,1-0.7,1
		c-0.1,0-0.2-0.1-0.2-0.3c0-0.1-0.1-0.2-0.3-0.3c-0.2-0.1-1.1-0.7-1.4-0.9l0.1-0.2c0.3,0.2,1.5,0.7,1.8,0.7c0.1,0,0.1-0.1,0.1-0.3
		v-0.8c0-0.5,0-1.8,0-3c-1.2,1.6-2.8,2.9-4.6,3.8l-0.2-0.3c1.5-0.8,3.5-2.6,4.4-4.1c-0.7,0.1-1.7,0.2-2.5,0.3
		c-0.4,0.1-0.5,0.2-0.6,0.2c-0.3,0-0.9-0.6-0.9-0.9C385.2,341.3,385.2,341.2,385.4,341.1L385.4,341.1z"/>
	<path d="M405.7,342.1c0,0.1-0.1,0.1-0.3,0.1c-0.1,0-0.1,0-0.2,0c-0.2,0-0.6-0.1-1.2-0.1c-0.8,0-1.8,0-3.3,0.1
		c-1.4,0.1-2.1,0.2-2.7,0.4c-0.2,0-0.3,0.1-0.5,0.1c-0.4,0-0.9-0.6-0.9-0.7c0-0.1,0-0.1,0.1-0.1s0.1,0,0.2,0
		c0.2,0.1,0.3,0.1,0.7,0.1c0.5,0,1.3-0.1,2.9-0.2c3.1-0.3,3.2-0.3,3.5-0.4c0.2,0,0.3-0.1,0.5-0.1s0.4,0.1,0.7,0.3
		C405.6,341.8,405.7,342,405.7,342.1z"/>
	<path d="M414.5,342.4c1.7,1.1,3.4,3.1,3.4,4c0,0.4,0,0.6-0.3,0.6s-0.4-0.4-0.6-0.9c0-0.1-0.1-0.2-0.1-0.4c-2,0.3-5.2,0.6-6.8,0.8
		c-0.4,0-0.5,0.3-0.8,0.3c-0.4,0-1-0.7-1-1.1c0-0.2,0.1-0.4,0.2-0.4c0.1,0.2,0.2,0.6,0.7,0.6c0.1,0,0.3,0,0.6,0
		c1.2-2.7,2.4-7.2,2.4-7.6c0-0.4-0.6-0.5-0.8-0.5c0-0.2,0.3-0.4,0.6-0.4c0.5,0,1.3,0.4,1.3,0.8c0,0.1-0.1,0.2-0.2,0.3
		s-0.2,0.2-0.2,0.4c-0.7,2.2-1.6,4.8-2.7,7c1.4-0.1,4.7-0.3,6.5-0.5c-0.5-0.9-1.5-2.1-2.4-2.7L414.5,342.4z"/>
</g>
<g>
	<path d="M144.3,630.6l-1.5,2.2c-0.3,0.4-0.4,0.6-0.4,0.9c0,0.1,0.1,0.7,0.1,0.9c0,0.3-0.1,0.4-0.4,0.4c-0.2,0-0.3-0.1-0.3-0.4
		c0-0.1,0.1-0.6,0.1-0.6c0-0.3-0.1-0.4-0.4-0.5c-0.4-0.1-0.6-0.2-0.9-0.2v-0.2c0.3,0,0.6,0.1,0.8,0.1c0.4,0,0.6-0.1,0.9-0.4l1.8-2.1
		L144.3,630.6z M145.5,639.6L145.5,639.6L145.5,639.6c-0.2,0.1-0.6,0.2-0.9,0.3c-0.9,0.3-2.6,0.9-3.5,1.1l-0.1-0.1
		c1.4-0.5,2.9-1.1,3.7-1.7L145.5,639.6z M141.3,630.2c0.8,0.1,1.5,0.4,1.6,0.7c0,0.1,0.1,0.2,0.1,0.3c0,0.3-0.2,0.5-0.3,0.5
		s-0.1,0-0.3-0.3c-0.1-0.3-0.4-0.7-1.1-1V630.2z M150.1,634.9C150.2,634.9,150.2,634.9,150.1,634.9c0.1,0.1,0.1,0.1,0,0.2l-0.4,0.3
		v2.1c0,0.7,0,1.2,0,1.5v0.1c0,0.1,0,0.2-0.3,0.3c-0.1,0-0.2,0.1-0.2,0.1c-0.1,0-0.1,0-0.1-0.4h-6v0.2c0,0.1,0,0.1-0.3,0.3
		c-0.1,0-0.2,0.1-0.2,0.1c-0.1,0-0.1,0-0.1-0.2v-0.1c0-0.4,0-0.9,0-1.4v-1.8c0-0.4,0-1,0-1.4l0.6,0.4h5.6l0.4-0.5L150.1,634.9z
		 M149.2,636.1v-0.9h-6v0.9H149.2z M149.2,637.3v-1h-6v1H149.2z M149.2,638.6v-1h-6v1H149.2z M151.9,634.2c-0.6,0.1-0.9,0.2-1,0.5
		c0,0,0,0-0.1,0c0,0,0,0-0.1,0c-1.5-0.5-2.6-1.2-3.3-2.4c-0.9,1.5-1.8,2.1-3.9,2.4l-0.1-0.2c2.1-0.6,3.1-1.4,3.6-3l0.8,0.3h0.1
		l-0.3,0.2c1.1,1.5,2.7,2,4.3,2V634.2z M151.1,631.4C151.2,631.4,151.2,631.4,151.1,631.4C151.2,631.5,151.2,631.5,151.1,631.4
		c-0.5,0.2-1,0.4-1.9,1.3l-0.1-0.1l0.8-1.1h-4.4c-0.4,0.6-0.9,1.1-1.5,1.7l-0.1-0.1c0.9-1.2,1.5-2.2,2-3.5l0.9,0.4l0,0
		c0,0,0,0-0.1,0c-0.2,0-0.5,0.2-0.5,0.3c-0.2,0.3-0.3,0.6-0.5,0.8h4.2l0.4-0.4L151.1,631.4z M147.1,639.3c2.5,0.2,3.9,0.5,3.9,1.2
		c0,0.2-0.1,0.3-0.2,0.3c-0.1,0-0.3-0.1-0.7-0.4c-0.4-0.3-1.5-0.6-3-1V639.3z"/>
	<path d="M163.4,633.7C163.5,633.8,163.5,633.8,163.4,633.7C163.5,633.8,163.4,633.8,163.4,633.7l-8.9,0.1c-0.1,4.4-0.2,5.4-1.9,6.8
		l-0.1-0.1c1.2-1.5,1.4-2.4,1.4-4.1c0-1.1,0-2.6,0-3.6l0.7,0.7h4.3c0.5-0.8,1-1.7,1.1-2l0.7,0.5c0.1,0,0.1,0.1,0.1,0.1s0,0-0.1,0
		c-0.2,0-0.5,0.2-0.8,0.5l-0.8,0.8h2.9l0.6-0.6L163.4,633.7z M163.3,631.2C163.3,631.3,163.3,631.3,163.3,631.2
		C163.4,631.3,163.3,631.3,163.3,631.2l-9.1,0.1c-0.3,0-0.6,0-0.8,0.1l-0.3-0.4c0.3,0,0.6,0,0.9,0h8l0.6-0.7L163.3,631.2z
		 M163.3,640C163.4,640,163.4,640.1,163.3,640C163.4,640.1,163.3,640.1,163.3,640l-7.9,0.1c-0.3,0-0.6,0-0.8,0.1l-0.3-0.4
		c0.3,0,0.6,0,0.9,0h3.3v-1.9h-1.8c-0.3,0-0.6,0-0.8,0.1l-0.3-0.4c0.3,0,0.6,0,0.9,0h2.1V636h-2.1c-0.5,0.8-1,1.4-1.5,2l-0.1-0.1
		c0.7-0.9,1.6-2.8,1.8-3.7l0.8,0.5l0.1,0.1c0,0,0,0-0.1,0.1c-0.3,0.1-0.4,0.1-0.8,0.9h2c0-0.9,0-1.5,0-1.8l1,0.4c0,0,0.1,0,0.1,0.1
		c0,0,0,0-0.1,0.1l-0.4,0.3v1.1h2.4l0.5-0.6l0.8,0.7l0.1,0.1c0,0,0,0-0.1,0h-4v1.6h2.2l0.5-0.6l0.8,0.7l0.1,0.1c0,0,0,0-0.1,0H159
		v1.9h3l0.6-0.7L163.3,640z M155.8,631.7c1.1,0.4,1.5,0.7,1.7,1.2v0.1c0,0.3-0.3,0.5-0.5,0.5c-0.1,0-0.2-0.1-0.3-0.4
		C156.6,632.7,156.2,632.1,155.8,631.7L155.8,631.7z M157.2,629.5c0.7,0.1,1.5,0.5,1.6,0.8c0,0.1,0,0.2,0,0.3c0,0.3-0.2,0.5-0.5,0.5
		c-0.1,0-0.2-0.1-0.3-0.3c-0.1-0.5-0.5-0.8-1-1.1L157.2,629.5z"/>
	<path d="M170.2,631L170.2,631c0.1,0.2,0.1,0.2,0,0.2H168c0.6,0.5,0.8,0.8,0.8,1.1s-0.2,0.5-0.4,0.5c-0.1,0-0.2-0.1-0.2-0.3
		c0-0.3-0.2-0.9-0.4-1.3H167c-0.8,1-1.4,1.7-2,2.2l-0.1-0.1c1-1.3,1.9-2.5,2.5-3.7l0.7,0.4c0.1,0,0.1,0.1,0.1,0.1s0,0-0.1,0.1
		c-0.3,0.1-0.3,0.1-0.8,0.7h2l0.4-0.6L170.2,631z M175.4,633.5C175.5,633.6,175.5,633.6,175.4,633.5c0.1,0.1,0.1,0.2,0,0.2
		c-0.4,0-0.9,0.3-1.5,1.1l-0.2-0.1l0.6-1.1h-8.1c-0.1,1.1-0.5,1.4-0.9,1.4c-0.2,0-0.3-0.1-0.3-0.2c0-0.1,0.1-0.3,0.3-0.5
		c0.3-0.3,0.6-0.7,0.7-1.6h0.2c0,0.2,0,0.4,0,0.6h8l0.4-0.5L175.4,633.5z M173.5,637.9C173.5,638,173.6,638,173.5,637.9
		c0.1,0.1,0,0.1,0,0.2l-0.3,0.2v1.2c0,0.3,0,0.5,0,0.8l0,0c0,0.2-0.4,0.3-0.5,0.3s-0.1,0-0.1-0.1v-0.6H168v0.5
		c0,0.2-0.5,0.4-0.5,0.4c-0.1,0-0.1-0.1-0.1-0.2l0,0c0-0.5,0-0.9,0-1.6v-3.7c0-0.4,0-0.9,0-1.2l0.7,0.6h3.9l0.3-0.5l0.7,0.6l0.1,0.1
		c0,0,0,0.1-0.1,0.1l-0.3,0.2v0.6c0,0.3,0,0.6,0,0.9l0,0c0,0.2-0.5,0.3-0.5,0.3c-0.1,0-0.1,0-0.1-0.4H168v1.3h4.5l0.3-0.4
		L173.5,637.9z M172.2,636.3V635H168v1.3H172.2z M172.7,639.7V638H168v1.7H172.7z M169.3,631.8c0.7,0.3,1.2,0.6,1.2,1.1
		c0,0.2-0.2,0.4-0.3,0.4s-0.2-0.1-0.3-0.3C169.8,632.7,169.5,632.2,169.3,631.8L169.3,631.8z M175.3,630.9c0.1,0.1,0.1,0.1,0.1,0.2
		c0,0,0,0.1-0.2,0.1h-3c0.7,0.5,0.9,0.9,0.9,1.2c0,0.3-0.3,0.5-0.4,0.5c-0.1,0-0.2-0.1-0.2-0.3c0-0.5-0.2-0.9-0.5-1.4h-0.8
		c-0.3,0.3-0.6,0.7-0.8,1l-0.1-0.1c0.7-1,1.1-1.6,1.4-2.4l0.6,0.3c0,0,0.1,0,0.1,0.1c0,0,0,0-0.1,0.1c-0.2,0.1-0.3,0.2-0.5,0.3
		c-0.1,0.2-0.3,0.3-0.4,0.5h2.7l0.5-0.6L175.3,630.9z"/>
	<path d="M181.3,637.2l-3,1.4c-0.4,0.2-0.8,0.4-0.9,0.6l-0.1,0.1c0,0-0.1,0-0.1-0.1l-0.4-0.6l1.9-0.7v-3.1H178c-0.2,0-0.6,0-0.8,0.1
		l-0.3-0.4c0.3,0,0.6,0,0.8,0h0.9v-3h-0.7c-0.3,0-0.6,0-0.8,0.1l-0.3-0.4c0.3,0,0.6,0,0.9,0h2.3l0.4-0.6l0.7,0.6
		c0.1,0.1,0.1,0.1,0.1,0.2c0,0,0,0.1-0.1,0.1h-1.9v3h0.7l0.4-0.6l0.6,0.6c0.1,0.1,0.1,0.1,0.1,0.1s0,0.1-0.1,0.1h-1.7v3l2.1-0.7
		L181.3,637.2z M187.6,639.9C187.7,640,187.7,640,187.6,639.9c0.1,0.1,0.1,0.2,0,0.2h-6.5c-0.3,0-0.6,0-0.8,0.1l-0.3-0.4
		c0.3,0,0.6,0,0.9,0h3v-2.1h-1.4c-0.3,0-0.6,0-0.8,0.1l-0.3-0.4c0.3,0,0.6,0,0.9,0h1.6v-1.8h-1.7c0,0.3,0,0.3-0.3,0.5
		c-0.1,0.1-0.2,0.1-0.2,0.1c-0.1,0-0.1-0.1-0.1-0.2v-0.1c0-0.5,0-1,0-1.6v-2.7c0-0.5,0-0.9,0-1.3l0.7,0.5h3.7l0.4-0.6l0.7,0.5
		c0.1,0,0.1,0.1,0.1,0.1s0,0.1-0.1,0.1l-0.3,0.2v3c0,0.5,0,1,0.1,1.4v0.1c0,0.3-0.5,0.5-0.5,0.5c-0.1,0-0.1,0-0.1-0.5h-1.8v1.9h1.6
		l0.5-0.7l0.8,0.7c0.1,0.1,0.1,0.1,0.1,0.2c0,0.1-0.1,0.1-0.2,0.1h-2.7v2.1h2l0.5-0.7L187.6,639.9z M183.8,633.2V631h-1.7v2.2H183.8
		z M183.8,635.4v-1.9h-1.7v1.9H183.8z M186.1,633.2V631h-1.8v2.2H186.1z M186.1,635.4v-1.9h-1.8v1.9H186.1z"/>
	<path d="M190.7,640c4-1.8,5.5-5,6-7.8c0,0,0,0,0-0.1s0-0.1-0.2-0.1c-0.3,0-5,0.3-5.6,0.6c-0.2,0.1-0.3,0.2-0.5,0.2
		c-0.4,0-0.9-0.7-0.9-1.2c0-0.2,0.2-0.3,0.3-0.4l0,0c0.1,0.7,0.7,0.7,1.2,0.7c0.6,0,4.4-0.2,5-0.2c0.2,0,0.3-0.3,0.5-0.3
		c0.3,0,1,0.7,1,0.9c0,0.1-0.2,0.2-0.3,0.3s-0.1,0.1-0.2,0.3c-0.6,2.5-2.2,5.8-6.4,7.4L190.7,640z M198.8,629.3
		c0.7,0,1.3,0.6,1.3,1.3c0,0.7-0.6,1.3-1.3,1.3s-1.3-0.6-1.3-1.3C197.5,629.9,198.1,629.3,198.8,629.3z M199.8,630.6
		c0-0.5-0.4-0.9-0.9-0.9s-1,0.4-1,0.9s0.4,1,1,1C199.4,631.6,199.8,631.1,199.8,630.6z"/>
	<path d="M203.1,640c3.2-1.1,5.3-2.8,6.2-5.7c0-0.1,0.1-0.2,0.1-0.3c0-0.1,0-0.1-0.1-0.1s-5.3,0.4-6.2,0.7c-0.1,0-0.2,0.2-0.4,0.2
		c-0.4,0-1.1-0.7-1.1-1.1c0-0.2,0.1-0.4,0.2-0.6h0.1c0,0.7,0.7,0.7,1.2,0.7c0.6,0,4.6-0.3,6-0.4c0.2,0,0.4-0.4,0.6-0.4
		c0.2,0,0.9,0.6,0.9,0.8c0,0.1-0.2,0.2-0.3,0.2s-0.3,0.1-0.3,0.2c-1.2,3.2-3.3,4.9-6.8,5.9L203.1,640z M203.1,630.6
		c0.1,0.3,0.6,0.5,1.3,0.5c0.5,0,2.2-0.1,2.9-0.3c0.4-0.1,0.6-0.2,0.8-0.4c0.6,0.1,1.2,0.2,1.2,0.5c0,0.2-0.3,0.3-0.8,0.3
		c-0.7,0-2,0.1-3,0.2c-0.6,0-1,0.1-1.3,0.1c-0.9,0-1.3-0.4-1.3-0.7C203,630.8,203,630.6,203.1,630.6z"/>
	<path d="M214.4,633.6c0.7,0.5,1.4,1.4,1.4,2c0,0.3-0.1,0.5-0.3,0.5s-0.3-0.1-0.3-0.3c0-0.7-0.5-1.4-0.9-2L214.4,633.6z
		 M216.1,640.2c3.7-1.8,5-5.7,5-6.3c0-0.1,0-0.2-0.1-0.3c-0.1-0.1-0.4-0.2-0.6-0.2c0,0,0.1-0.3,0.4-0.3c0.5,0,1.2,0.5,1.2,0.8
		c0,0.1-0.1,0.2-0.2,0.3c0,0-0.1,0.1-0.1,0.2c-0.8,2.6-2.6,4.9-5.4,6.1L216.1,640.2z M217.2,633.1c0.9,0.7,1.2,1.5,1.2,2.1
		c0,0.4-0.1,0.7-0.3,0.7s-0.4-0.1-0.4-0.4c0-0.6-0.1-1.4-0.7-2.2L217.2,633.1z"/>
	<path d="M227.8,630.6c0.1-0.2,0.3-0.3,0.5-0.3c0.5,0,1.4,0.3,1.4,0.7c0,0.1-0.1,0.2-0.2,0.3c0,0.1-0.1,0.2-0.1,0.3
		c0,0.5,0,1.4-0.1,2.5c1.5,0.2,2.8,0.6,3.5,0.9c0.7,0.4,1,0.6,1,1c0,0.2-0.1,0.3-0.3,0.3c-0.3,0-0.6-0.3-0.9-0.6
		c-0.5-0.5-1.8-1-3.3-1.4c0,0.9,0,1.8,0,2.5c0,0.4,0,2.4,0,2.8c0,0.5-0.2,0.6-0.4,0.6c-0.4,0-0.6-1.2-0.6-1.4
		c0.1-0.1,0.2-0.3,0.2-0.5c0.1-0.8,0.1-1.5,0.1-4.1c0-1.1,0-2.3,0-2.8C228.7,631.2,228.6,630.6,227.8,630.6L227.8,630.6z"/>
	<path d="M238.8,640c4.2-1.6,6.1-5.2,6.7-8v-0.1l0,0c-0.6,0-5.8,0.3-6.3,0.6c-0.3,0.1-0.3,0.1-0.5,0.1c-0.4,0-0.9-0.6-0.9-1.1
		c0-0.2,0.1-0.3,0.3-0.4l0,0c0.1,0.6,0.8,0.6,1.3,0.6c1,0,5.1-0.2,5.7-0.3c0.3,0,0.4-0.3,0.6-0.3c0.3,0,1,0.6,1,0.8
		c0,0.1-0.2,0.2-0.3,0.2c-0.2,0.1-0.3,0.1-0.3,0.3c-0.8,2.8-2.6,6.3-7.2,7.8L238.8,640z"/>
	<path d="M250.5,634.1c0.1,0.4,0.5,0.5,0.9,0.5c0.5,0,2.1-0.1,3.2-0.2c0-1.6,0-1.8-0.3-2.1c-0.1-0.1-0.3-0.1-0.6-0.1
		c0-0.2,0.2-0.4,0.4-0.4c0.6,0,1.2,0.4,1.2,0.7c0,0.3-0.2,0.1-0.2,0.8v1c0.5,0,1.7-0.1,2-0.4c0.6,0.1,1,0.3,1,0.6
		c0,0.1-0.1,0.2-0.2,0.2h-0.1c-0.3,0-0.7-0.1-1.2-0.1c-0.4,0-1.1,0-1.5,0.1l0.1,3.3c0,0.3,0,0.6,0,0.9c0,0.1,0.1,0.3,0.1,0.5
		c0,0.4-0.3,1-0.7,1c-0.1,0-0.2-0.1-0.2-0.3c0-0.1-0.1-0.2-0.3-0.3s-1.1-0.7-1.4-0.9l0.1-0.2c0.3,0.2,1.5,0.7,1.8,0.7
		c0.1,0,0.1-0.1,0.1-0.3v-0.8c0-0.5,0-1.8,0-3c-1.2,1.6-2.8,2.9-4.6,3.8l-0.2-0.3c1.5-0.8,3.5-2.6,4.4-4.1c-0.7,0.1-1.7,0.2-2.5,0.3
		c-0.4,0.1-0.5,0.2-0.6,0.2c-0.3,0-0.9-0.6-0.9-0.9C250.3,634.3,250.3,634.2,250.5,634.1L250.5,634.1z"/>
	<path d="M270.8,635c0,0.1-0.1,0.1-0.3,0.1c-0.1,0-0.1,0-0.2,0c-0.2,0-0.6-0.1-1.2-0.1c-0.8,0-1.8,0-3.3,0.1
		c-1.4,0.1-2.1,0.2-2.7,0.4c-0.2,0-0.3,0.1-0.5,0.1c-0.4,0-0.9-0.6-0.9-0.7c0-0.1,0-0.1,0.1-0.1s0.1,0,0.2,0
		c0.2,0.1,0.3,0.1,0.7,0.1c0.5,0,1.3-0.1,2.9-0.2c3.1-0.3,3.2-0.3,3.5-0.4c0.2,0,0.3-0.1,0.5-0.1s0.4,0.1,0.7,0.3
		C270.6,634.8,270.8,634.9,270.8,635z"/>
	<path d="M279.6,635.4c1.7,1.1,3.4,3.1,3.4,4c0,0.4,0,0.6-0.3,0.6s-0.4-0.4-0.6-0.9c0-0.1-0.1-0.2-0.1-0.4c-2,0.3-5.2,0.6-6.8,0.8
		c-0.4,0-0.5,0.3-0.8,0.3c-0.4,0-1-0.7-1-1.1c0-0.2,0.1-0.4,0.2-0.4c0.1,0.2,0.2,0.6,0.7,0.6c0.1,0,0.3,0,0.6,0
		c1.2-2.7,2.4-7.2,2.4-7.6c0-0.4-0.6-0.5-0.8-0.5c0-0.2,0.3-0.4,0.6-0.4c0.5,0,1.3,0.4,1.3,0.8c0,0.1-0.1,0.2-0.2,0.3
		c-0.1,0.1-0.2,0.2-0.2,0.4c-0.7,2.2-1.6,4.8-2.7,7c1.4-0.1,4.7-0.3,6.5-0.5c-0.5-0.9-1.5-2.1-2.4-2.7L279.6,635.4z"/>
</g>
<g>
	<path d="M188.2,843.2c1,0,1.1-0.3,1.1-1.1v-5c0-0.9-0.1-1.1-1.1-1.1v-0.2h5.1c0,0.6,0.1,1.3,0.1,1.8h-0.2c-0.2-1.3-0.5-1.6-1.9-1.6
		h-1c-0.3,0-0.3,0-0.3,0.3v2.9h1.4c1.1,0,1.2-0.1,1.4-0.9h0.2v2.3h-0.2c-0.2-0.9-0.3-1.1-1.4-1.1H190v2.3c0,0.9,0.1,1.1,1.3,1.1v0.2
		h-3L188.2,843.2L188.2,843.2z"/>
	<path d="M201.9,841.2c-0.2,0.6-0.4,1.6-0.6,2c-0.4,0.1-1.5,0.3-2.4,0.3c-3.1,0-4.5-2-4.5-3.8c0-2.4,2-4,4.7-4
		c1.2,0,1.9,0.3,2.3,0.3c0.1,0.6,0.2,1.2,0.2,1.9h-0.2c-0.3-1.4-1.2-1.9-2.7-1.9c-2.4,0-3.4,1.6-3.4,3.4c0,2.3,1.4,3.8,3.5,3.8
		c1.7,0,2.4-0.9,2.9-2.1L201.9,841.2z"/>
	<path d="M207.5,843.2c0.7-0.1,0.9-0.2,0.9-0.5c0-0.3-0.4-1.2-0.8-2.4h-2.8c-0.1,0.2-0.7,1.8-0.7,2.2c0,0.4,0.3,0.5,1,0.6v0.2h-2.7
		V843c0.8-0.2,1-0.3,1.4-1.4l2.6-6.1l0.1-0.1l0.8,2.2c0.6,1.5,1.1,3,1.5,4.1c0.4,0.9,0.5,1,1.3,1.2v0.2h-2.7l0,0H207.5z
		 M206.3,836.8c-0.5,1.1-0.9,2.2-1.3,3.2h2.5L206.3,836.8L206.3,836.8z"/>
	<path d="M221.8,843.3c0.1,0.1,0.1,0.2,0.1,0.2s-0.1,0-0.2,0h-9.8c-0.3,0-0.6,0-0.8,0.1l-0.3-0.4c0.3,0,0.6,0,0.9,0h1.2V841
		c0-0.3,0-0.9,0-1.2l0.7,0.5h5.9l0.3-0.4l0.7,0.6c0.1,0,0.1,0.1,0.1,0.1s0,0-0.1,0.1l-0.4,0.2v2.2h0.7l0.5-0.6L221.8,843.3z
		 M217.3,839.2c0.1,0.1,0.1,0.1,0.1,0.2c0,0.1,0,0-0.1,0h-4.4l-0.2,0.3c0,0.1-0.1,0.1-0.1,0.1h-0.1l-0.7-0.5l0.5-0.3v-3.8
		c0-0.9,0-1.6,0-2.1l0.7,0.6h3.2l0.4-0.5l0.6,0.6c0.1,0.1,0.1,0.1,0.1,0.2c0,0-0.1,0-0.2,0h-2.3v1.5h1.2l0.3-0.4l0.6,0.5
		c0.1,0.1,0.1,0.1,0.1,0.1s0,0.1-0.1,0.1l-0.3,0.2v0.6c0,0.2,0,0.9,0,1.1s-0.5,0.3-0.5,0.3c-0.1,0-0.1-0.1-0.1-0.2v-0.4h-1.3v1.6
		h1.5l0.4-0.6L217.3,839.2z M214.2,835.5V834h-1.5v1.5H214.2z M216,837.3v-1.4h-3.3v1.4H216z M214.2,839.2v-1.6h-1.5v1.6H214.2z
		 M215,843.2v-2.5h-1.7v2.5H215z M217.3,843.2v-2.5h-1.7v2.5H217.3z M221.9,835.5c0.1,0.1,0.1,0.1,0.1,0.2c0,0.1-0.1,0-0.2,0h-3.5
		c-0.6,1.2-1.2,2.2-1.5,2.6l-0.2-0.1c0.9-1.6,1.7-4.1,1.9-5l0.8,0.6c0.1,0,0.1,0.1,0.1,0.1s-0.1,0.1-0.2,0.1
		c-0.2,0.1-0.3,0.1-0.3,0.3c-0.2,0.4-0.3,0.8-0.5,1.2h2.3l0.5-0.6L221.9,835.5z M219.5,843.2v-2.5h-1.8v2.5H219.5z M218.7,836.7
		c0.8,0.5,1.6,1.4,1.6,2c0,0.4-0.3,0.6-0.4,0.6c-0.2,0-0.3-0.1-0.3-0.6c-0.1-0.5-0.3-1.2-1-1.9L218.7,836.7z"/>
	<path d="M222.7,839.3c2.3-1.5,3.7-2.8,4.6-4.2h-2.9c-0.3,0-0.6,0-0.8,0.1l-0.3-0.4c0.3,0,0.6,0,0.9,0h3.8v-0.5c0-0.7,0-1,0-1.4
		l0.9,0.4c0.1,0,0.1,0.1,0.1,0.1s0,0.1-0.4,0.3v1.1h3.3l0.5-0.7l0.8,0.8c0.1,0,0.1,0.1,0.1,0.1s0,0-0.2,0h-4c1.6,2,3,2.7,4.8,2.8
		v0.2c-0.6,0.1-0.8,0.2-0.9,0.5c0,0,0,0-0.1,0h-0.1c-1.9-0.9-3.1-2-4-3.6h-0.2v1.6c0,0.6,0,0.9,0,1.3v0.1c0,0.2-0.1,0.2-0.3,0.3
		c-0.1,0-0.2,0.1-0.2,0.1c-0.1,0-0.1-0.1-0.1-0.2l0,0c0-0.4,0-0.9,0-1.4v-1.6c-0.8,1.1-1.8,2-3,2.9l0.7,0.5h5.4l0.4-0.4l0.6,0.5
		c0.1,0,0.1,0.1,0.1,0.1s0,0.1-0.3,0.3v4.2h0.6l0.6-0.7l0.8,0.8c0.1,0.1,0.1,0.1,0.1,0.1s-0.1,0.1-0.2,0.1H224c-0.3,0-0.6,0-0.8,0.1
		l-0.3-0.4c0.3,0,0.6,0,0.9,0h1.3v-4c0-0.4,0-0.7,0-1.1c-0.6,0.4-1.3,0.8-2.1,1.3L222.7,839.3z M231.3,840.2v-1.3h-5.7v1.3H231.3z
		 M231.3,841.7v-1.2h-5.7v1.2H231.3z M231.3,843.3V842h-5.7v1.3H231.3z"/>
	<path d="M159.6,857.8c4-1.8,5.5-5,6-7.8c0,0,0,0,0-0.1c0-0.1,0-0.1-0.2-0.1c-0.3,0-5,0.3-5.6,0.6c-0.2,0.1-0.3,0.2-0.5,0.2
		c-0.4,0-0.9-0.7-0.9-1.2c0-0.2,0.2-0.3,0.3-0.4l0,0c0.1,0.7,0.7,0.7,1.2,0.7c0.6,0,4.4-0.2,5-0.2c0.2,0,0.3-0.3,0.5-0.3
		c0.3,0,1,0.7,1,0.9c0,0.1-0.2,0.2-0.3,0.3c-0.1,0.1-0.1,0.1-0.2,0.3c-0.6,2.5-2.2,5.8-6.4,7.4L159.6,857.8z M167.7,847.2
		c0.7,0,1.3,0.6,1.3,1.3s-0.6,1.3-1.3,1.3s-1.3-0.6-1.3-1.3S167,847.2,167.7,847.2z M168.6,848.5c0-0.5-0.4-0.9-0.9-0.9
		s-1,0.4-1,0.9s0.4,1,1,1C168.2,849.5,168.6,849,168.6,848.5z"/>
	<path d="M172,857.8c3.2-1.1,5.3-2.8,6.2-5.7c0-0.1,0.1-0.2,0.1-0.3c0-0.1,0-0.1-0.1-0.1s-5.3,0.4-6.2,0.7c-0.1,0-0.2,0.2-0.4,0.2
		c-0.4,0-1.1-0.7-1.1-1.1c0-0.2,0.1-0.4,0.2-0.6h0.1c0,0.7,0.7,0.7,1.2,0.7c0.6,0,4.6-0.3,6-0.4c0.2,0,0.4-0.4,0.6-0.4
		c0.2,0,0.9,0.6,0.9,0.8c0,0.1-0.2,0.2-0.3,0.2s-0.3,0.1-0.3,0.2c-1.2,3.2-3.3,4.9-6.8,5.9L172,857.8z M172,848.5
		c0.1,0.3,0.6,0.5,1.3,0.5c0.5,0,2.2-0.1,2.9-0.3c0.4-0.1,0.6-0.2,0.8-0.4c0.6,0.1,1.2,0.2,1.2,0.5c0,0.2-0.3,0.3-0.8,0.3
		c-0.7,0-2,0.1-3,0.2c-0.6,0-1,0.1-1.3,0.1c-0.9,0-1.3-0.4-1.3-0.7C171.8,848.7,171.9,848.5,172,848.5z"/>
	<path d="M189.4,848.3c0.1-0.1,0.3-0.3,0.5-0.3c0.6,0,1.4,0.5,1.4,0.9c0,0.1-0.1,0.1-0.3,0.2s-0.3,0.1-0.4,0.3
		c-0.9,0.8-2.2,1.9-3.1,2.5c0.2,0.1,0.4,0.4,0.4,0.6c0,0.1-0.1,0.2-0.1,0.4c0,0.5,0,1.8,0,2.2c0,0.6,0,1.1,0,1.4c0,0.4,0,0.8,0,1
		c0,0.5-0.1,0.7-0.4,0.7c-0.2,0-0.4-0.5-0.5-1.1c0.2-0.3,0.2-0.5,0.2-0.9c0-0.5,0.1-1.6,0.1-2.4c0-0.8,0-1.4-0.2-1.6
		c-1.1,0.8-3,1.9-5.2,2.9l-0.1-0.3c5.1-2.6,8.3-5.6,8.3-6.1C190.1,848.5,189.7,848.3,189.4,848.3L189.4,848.3z"/>
	<path d="M194.1,857.5c2.8-1.6,5.9-5.2,6.9-7.8v-0.1c0,0,0-0.1-0.1-0.1c-0.2,0-2.5,0.2-3.6,0.4c-0.3,0.1-0.4,0.1-0.5,0.2
		c-0.1,0.1-0.1,0.1-0.3,0.1c-0.4,0-1-0.6-1-1c0-0.3,0.2-0.4,0.3-0.4c0.1,0.6,0.6,0.6,1.1,0.6c0.3,0,3.2-0.2,4-0.3
		c0.2,0,0.3-0.1,0.3-0.2c0.1-0.1,0.2-0.2,0.3-0.2c0.2,0,0.9,0.5,0.9,0.7c0,0.2-0.2,0.2-0.3,0.3c-0.2,0.1-0.3,0.2-0.3,0.3
		c-0.4,0.8-1.4,2.3-2.1,3.2c1.1,0.7,2.5,1.6,3.3,2.3c0.6,0.6,1,1.2,1,1.5s-0.1,0.5-0.4,0.5c-0.2,0-0.5-0.4-0.9-1.1
		c-0.6-0.9-2.2-2.3-3.3-2.9c-1,1.3-2.9,3.1-4.9,4.1L194.1,857.5z"/>
	<path d="M209.8,848.3c0.1-0.2,0.3-0.3,0.6-0.3c0.4,0,1.2,0.3,1.2,0.6c0,0.1-0.1,0.2-0.2,0.3c0,0.1-0.1,0.2-0.1,0.4
		c0,0.3,0,1.1,0,1.4c0.9,0,1.7-0.1,2.2-0.1c0.4,0,0.7-0.1,0.8-0.2s0.2-0.3,0.3-0.3c0.2,0,1,0.7,1,0.8c0,0.1-0.2,0.2-0.3,0.3
		c-0.1,0-0.2,0.1-0.3,0.3c-0.6,3-2.1,5.6-6.1,6.9l-0.1-0.3c3.6-1.4,5-4,5.6-7.1v-0.1c0-0.1-0.1-0.1-0.2-0.1c-0.5,0-4.3,0.3-4.7,0.3
		c-0.5,0.1-0.7,0.1-1.1,0.1c-0.2,0-0.4,0-0.5-0.1c0,0.8,0.1,2.2,0.2,2.6c0,0.1,0,0.1,0,0.2c0,0.2-0.1,0.4-0.3,0.4
		c-0.3,0-0.4-0.3-0.5-1c0.1-0.1,0.1-0.2,0.1-0.5c0-0.5-0.1-1.4-0.2-1.7c-0.1-0.4-0.3-0.7-0.7-0.8v-0.1c0.1-0.1,0.3-0.1,0.5-0.1
		c0.3,0,0.7,0.3,0.8,0.6c0.1,0,0.4,0,0.4,0c0.4,0,1.5,0,2.4-0.1c0-0.4,0-1.4,0-1.6c0-0.3-0.1-0.7-0.7-0.7
		C210,848.3,209.9,848.3,209.8,848.3L209.8,848.3z"/>
	<path d="M219.3,852c0.1,0.4,0.5,0.5,0.9,0.5c0.5,0,2.1-0.1,3.2-0.2c0-1.6,0-1.8-0.3-2.1c-0.1-0.1-0.3-0.1-0.6-0.1
		c0-0.2,0.2-0.4,0.4-0.4c0.6,0,1.2,0.4,1.2,0.7s-0.2,0.1-0.2,0.8v1c0.5,0,1.7-0.1,2-0.4c0.6,0.1,1,0.3,1,0.6c0,0.1-0.1,0.2-0.2,0.2
		h-0.1c-0.3,0-0.7-0.1-1.2-0.1c-0.4,0-1.1,0-1.5,0.1l0.1,3.3c0,0.3,0,0.6,0,0.9c0,0.1,0.1,0.3,0.1,0.5c0,0.4-0.3,1-0.7,1
		c-0.1,0-0.2-0.1-0.2-0.3c0-0.1-0.1-0.2-0.3-0.3c-0.2-0.1-1.1-0.7-1.4-0.9l0.1-0.2c0.3,0.2,1.5,0.7,1.8,0.7c0.1,0,0.1-0.1,0.1-0.3
		v-0.8c0-0.5,0-1.8,0-3c-1.2,1.6-2.8,2.9-4.6,3.8l-0.2-0.3c1.5-0.8,3.5-2.6,4.4-4.1c-0.7,0.1-1.7,0.2-2.5,0.3
		c-0.4,0.1-0.5,0.2-0.6,0.2c-0.3,0-0.9-0.6-0.9-0.9C219.1,852.2,219.1,852,219.3,852L219.3,852z"/>
	<path d="M239.6,852.8c0,0.1-0.1,0.1-0.3,0.1c-0.1,0-0.1,0-0.2,0c-0.2,0-0.6-0.1-1.2-0.1c-0.8,0-1.8,0-3.3,0.1
		c-1.4,0.1-2.1,0.2-2.7,0.4c-0.2,0-0.3,0.1-0.5,0.1c-0.4,0-0.9-0.6-0.9-0.7s0-0.1,0.1-0.1s0.1,0,0.2,0c0.2,0.1,0.3,0.1,0.7,0.1
		c0.5,0,1.3-0.1,2.9-0.2c3.1-0.3,3.2-0.3,3.5-0.4c0.2,0,0.3-0.1,0.5-0.1s0.4,0.1,0.7,0.3C239.5,852.7,239.6,852.8,239.6,852.8z"/>
	<path d="M242.7,853.5c1.5-1.2,3.1-3.1,3.5-4.4c0.1-0.2,0.1-0.4,0.1-0.5c0-0.3-0.6-0.4-0.7-0.4c0-0.2,0.2-0.3,0.5-0.3
		c0.5,0,1.3,0.4,1.3,0.7c0,0.1-0.1,0.2-0.2,0.3c-0.1,0.1-0.2,0.2-0.3,0.5c-0.1,0.2-0.2,0.4-0.3,0.6c0.1,0,0.3,0,0.4,0
		c0.4,0,2.1-0.1,2.8-0.2c0.3,0,0.3,0,0.4-0.1c0.1-0.1,0.2-0.2,0.3-0.2c0.2,0,0.9,0.6,0.9,0.8c0,0.1-0.1,0.2-0.3,0.2
		c-0.1,0-0.3,0.1-0.4,0.3c-0.4,0.9-1.1,2.3-1.6,3c0.5,0.3,1.3,0.9,1.3,1.4c0,0.2-0.2,0.3-0.3,0.3c-0.2,0-0.4-0.2-0.5-0.4
		c-0.2-0.3-0.6-0.6-0.9-0.8c-1.2,1.5-3,2.9-5.2,3.8l-0.2-0.3c2-1,3.8-2.5,4.9-3.9c-0.6-0.4-1.5-0.9-2.7-1.2l0.1-0.3
		c1.2,0.2,2.3,0.7,2.9,1c1.1-1.7,1.6-3.1,1.6-3.2c0-0.1,0-0.1-0.2-0.1c-0.5,0-2.8,0.4-3.1,0.4c-0.2,0-0.4-0.1-0.5-0.2
		c-0.8,1.2-1.8,2.3-3.3,3.4L242.7,853.5z"/>
	<path d="M263.6,852.8c0,0.1-0.1,0.1-0.3,0.1c-0.1,0-0.1,0-0.2,0c-0.2,0-0.6-0.1-1.2-0.1c-0.8,0-1.8,0-3.3,0.1
		c-1.4,0.1-2.1,0.2-2.7,0.4c-0.2,0-0.3,0.1-0.5,0.1c-0.4,0-0.9-0.6-0.9-0.7s0-0.1,0.1-0.1s0.1,0,0.2,0c0.2,0.1,0.3,0.1,0.7,0.1
		c0.5,0,1.3-0.1,2.9-0.2c3.1-0.3,3.2-0.3,3.5-0.4c0.2,0,0.3-0.1,0.5-0.1s0.4,0.1,0.7,0.3C263.5,852.7,263.6,852.8,263.6,852.8z"/>
	<path d="M165.9,864.8c0.1-0.3,0.3-0.3,0.5-0.3c0.5,0,1.3,0.5,1.3,0.8c0,0.3-0.2,0.1-0.4,0.8c-0.6,1.7-1.7,3.6-3.3,4.9l-0.3-0.3
		c2-2,3-4.8,3-5.3C166.6,865.2,166.3,865,165.9,864.8L165.9,864.8z M170.4,865c2.1,1.4,4,4,4,5.3c0,0.3,0,0.6-0.3,0.6
		c-0.2,0-0.3-0.2-0.5-0.5c-0.5-1.6-1.5-3.6-3.4-5.1L170.4,865z"/>
	<path d="M179.8,862.7c0.1-0.2,0.3-0.3,0.6-0.3c0.4,0,1.2,0.3,1.2,0.6c0,0.1-0.1,0.2-0.2,0.3c0,0.1-0.1,0.2-0.1,0.4
		c0,0.3,0,1.1,0,1.4c0.9,0,1.7-0.1,2.2-0.1c0.4,0,0.7-0.1,0.8-0.2c0.1-0.1,0.2-0.3,0.3-0.3c0.2,0,1,0.7,1,0.8c0,0.1-0.2,0.2-0.3,0.3
		c-0.1,0-0.2,0.1-0.3,0.3c-0.6,3-2.1,5.6-6.1,6.9l-0.1-0.3c3.6-1.4,5-4,5.6-7.1v-0.1c0-0.1-0.1-0.1-0.2-0.1c-0.5,0-4.3,0.3-4.7,0.3
		c-0.5,0.1-0.7,0.1-1.1,0.1c-0.2,0-0.4,0-0.5-0.1c0,0.8,0.1,2.2,0.2,2.6c0,0.1,0,0.1,0,0.2c0,0.2-0.1,0.4-0.3,0.4
		c-0.3,0-0.4-0.3-0.5-1c0.1-0.1,0.1-0.2,0.1-0.5c0-0.5-0.1-1.4-0.2-1.7c-0.1-0.4-0.3-0.7-0.7-0.8v-0.1c0.1-0.1,0.3-0.1,0.5-0.1
		c0.3,0,0.7,0.3,0.8,0.6c0.1,0,0.4,0,0.4,0c0.4,0,1.5,0,2.4-0.1c0-0.4,0-1.4,0-1.6c0-0.3-0.1-0.7-0.7-0.7
		C180,862.7,179.9,862.7,179.8,862.7L179.8,862.7z"/>
	<path d="M188.1,872c2.8-1.6,5.9-5.2,6.9-7.8V864c0,0,0-0.1-0.1-0.1c-0.2,0-2.5,0.2-3.6,0.4c-0.3,0.1-0.4,0.1-0.5,0.2
		c-0.1,0.1-0.1,0.1-0.3,0.1c-0.4,0-1-0.6-1-1c0-0.3,0.2-0.4,0.3-0.4c0.1,0.6,0.6,0.6,1.1,0.6c0.3,0,3.2-0.2,4-0.3
		c0.2,0,0.3-0.1,0.3-0.2c0.1-0.1,0.2-0.2,0.3-0.2c0.2,0,0.9,0.5,0.9,0.7s-0.2,0.2-0.3,0.3c-0.2,0.1-0.3,0.2-0.3,0.3
		c-0.4,0.8-1.4,2.3-2.1,3.2c1.1,0.7,2.5,1.6,3.3,2.3c0.6,0.6,1,1.2,1,1.5c0,0.3-0.1,0.5-0.4,0.5c-0.2,0-0.5-0.4-0.9-1.1
		c-0.6-0.9-2.2-2.3-3.3-2.9c-1,1.3-2.9,3.1-4.9,4.1L188.1,872z"/>
	<path d="M200.9,868c2.3-1.8,3.4-4.4,3.4-5c0-0.2-0.3-0.4-0.6-0.4c0.1-0.2,0.2-0.3,0.6-0.3c0.4,0,1.2,0.4,1.2,0.7
		c0,0.1-0.2,0.2-0.3,0.3c-0.1,0.1-0.1,0.1-0.2,0.3c-0.2,0.4-0.4,0.9-0.7,1.3c0.7,0,3.1-0.3,3.4-0.3c0.3,0,0.3-0.1,0.4-0.2
		c0.1-0.1,0.1-0.2,0.2-0.2c0.2,0,0.9,0.5,0.9,0.7c0,0.1-0.2,0.2-0.3,0.2s-0.3,0.2-0.3,0.4c-1,2.8-2.8,5.5-6.5,7l-0.2-0.3
		c3.2-1.6,5.2-4.2,6.1-7.1c0-0.1,0-0.1,0-0.2s0-0.1-0.1-0.1c-0.4,0-2.8,0.5-3.1,0.5c-0.4,0-0.6-0.1-0.8-0.2c-0.7,1.1-1.6,2.2-2.9,3
		L200.9,868z"/>
	<path d="M221.6,867.3c0,0.1-0.1,0.1-0.3,0.1c-0.1,0-0.1,0-0.2,0c-0.2,0-0.6-0.1-1.2-0.1c-0.8,0-1.8,0-3.3,0.1
		c-1.4,0.1-2.1,0.2-2.7,0.4c-0.2,0-0.3,0.1-0.5,0.1c-0.4,0-0.9-0.6-0.9-0.7c0-0.1,0-0.1,0.1-0.1s0.1,0,0.2,0
		c0.2,0.1,0.3,0.1,0.7,0.1c0.5,0,1.3-0.1,2.9-0.2c3.1-0.3,3.2-0.3,3.5-0.4c0.2,0,0.3-0.1,0.5-0.1s0.4,0.1,0.7,0.3
		C221.5,867,221.6,867.2,221.6,867.3z"/>
	<path d="M225.9,865c0.1-0.3,0.3-0.3,0.5-0.3c0.5,0,1.3,0.5,1.3,0.8s-0.2,0.1-0.4,0.8c-0.6,1.7-1.7,3.6-3.3,4.9l-0.3-0.3
		c2-2,3-4.8,3-5.3C226.6,865.3,226.3,865,225.9,865L225.9,865z M230.4,865c2.1,1.4,4,4,4,5.3c0,0.3,0,0.6-0.3,0.6
		c-0.2,0-0.3-0.2-0.5-0.5c-0.5-1.6-1.5-3.6-3.4-5.1L230.4,865z M232.8,862.3c0.7,0,1.4,0.6,1.4,1.4s-0.6,1.4-1.4,1.4
		c-0.8,0-1.4-0.6-1.4-1.4C231.4,863,232,862.3,232.8,862.3z M233.7,863.8c0-0.5-0.4-1-1-1c-0.5,0-1,0.4-1,1c0,0.5,0.4,1,1,1
		S233.7,864.3,233.7,863.8z"/>
	<path d="M245.6,867.3c0,0.1-0.1,0.1-0.3,0.1c-0.1,0-0.1,0-0.2,0c-0.2,0-0.6-0.1-1.2-0.1c-0.8,0-1.8,0-3.3,0.1
		c-1.4,0.1-2.1,0.2-2.7,0.4c-0.2,0-0.3,0.1-0.5,0.1c-0.4,0-0.9-0.6-0.9-0.7c0-0.1,0-0.1,0.1-0.1s0.1,0,0.2,0
		c0.2,0.1,0.3,0.1,0.7,0.1c0.5,0,1.3-0.1,2.9-0.2c3.1-0.3,3.2-0.3,3.5-0.4c0.2,0,0.3-0.1,0.5-0.1s0.4,0.1,0.7,0.3
		C245.5,867,245.6,867.2,245.6,867.3z"/>
	<path d="M248.1,872c2.8-1.6,5.9-5.2,6.9-7.8V864c0,0,0-0.1-0.1-0.1c-0.2,0-2.5,0.2-3.6,0.4c-0.3,0.1-0.4,0.1-0.5,0.2
		c-0.1,0.1-0.1,0.1-0.3,0.1c-0.4,0-1-0.6-1-1c0-0.3,0.2-0.4,0.3-0.4c0.1,0.6,0.6,0.6,1.1,0.6c0.3,0,3.2-0.2,4-0.3
		c0.2,0,0.3-0.1,0.3-0.2c0.1-0.1,0.2-0.2,0.3-0.2c0.2,0,0.9,0.5,0.9,0.7s-0.2,0.2-0.3,0.3c-0.2,0.1-0.3,0.2-0.3,0.3
		c-0.4,0.8-1.4,2.3-2.1,3.2c1.1,0.7,2.5,1.6,3.3,2.3c0.6,0.6,1,1.2,1,1.5c0,0.3-0.1,0.5-0.4,0.5c-0.2,0-0.5-0.4-0.9-1.1
		c-0.6-0.9-2.2-2.3-3.3-2.9c-1,1.3-2.9,3.1-4.9,4.1L248.1,872z"/>
</g>
</svg>
