<?xml version="1.0" encoding="utf-8"?>
<!-- Generator: Adobe Illustrator 23.0.0, SVG Export Plug-In . SVG Version: 6.00 Build 0)  -->
<svg version="1.1" id="图层_1" xmlns="http://www.w3.org/2000/svg" xmlns:xlink="http://www.w3.org/1999/xlink" x="0px" y="0px"
	 viewBox="0 0 750 870" style="enable-background:new 0 0 750 870;" xml:space="preserve">
<style type="text/css">
	.st0{enable-background:new    ;}
	.st1{fill:#D6D6D6;}
	.st2{fill:#0E0E0E;}
	.st3{fill:#0EAFA0;}
	.st4{fill:#CDBB78;}
	.st5{fill:#EC632F;}
</style>
<g id="_2.0_" class="st0">
	<path d="M79.2,331.6c0-0.9-0.3-1.6-0.8-2.2c-0.6-0.5-1.4-0.8-2.4-0.8c-0.6,0-1.4,0.2-2,0.5c-0.8,0.3-1.4,0.8-2,1.6v-2
		c0.5-0.6,1.1-0.9,1.9-1.3c0.6-0.3,1.6-0.5,2.5-0.5c1.6,0,2.7,0.5,3.6,1.3s1.4,1.9,1.4,3.3c0,1.3-0.3,2.4-0.8,3.1
		c-0.6,0.9-1.6,1.9-3,2.8s-2.4,1.7-2.8,2c-0.5,0.5-0.8,0.8-0.9,1.3c-0.2,0.3-0.3,0.8-0.3,1.4h8.3v1.9H71.4v-0.8
		c0-0.9,0.2-1.7,0.5-2.5c0.3-0.6,0.6-1.3,1.3-2c0.6-0.6,1.6-1.4,2.8-2.4c1.3-0.9,2.2-1.7,2.7-2.4C79,333.3,79.2,332.5,79.2,331.6z"
		/>
	<path d="M84.4,342.9c0-0.3,0.2-0.8,0.5-0.9c0.3-0.3,0.6-0.5,0.9-0.5c0.5,0,0.8,0.2,0.9,0.5c0.3,0.3,0.5,0.6,0.5,0.9
		s-0.2,0.6-0.5,0.9s-0.6,0.5-0.9,0.5c-0.5,0-0.8-0.2-0.9-0.5C84.4,343.5,84.4,343.2,84.4,342.9z"/>
	<path d="M89.4,336c0-3,0.5-5.2,1.4-6.7c0.9-1.6,2.4-2.4,4.2-2.4c3.6,0,5.3,2.8,5.3,8.6c0,2.8-0.5,5-1.6,6.4
		c-0.9,1.6-2.4,2.2-4.2,2.2c-1.7,0-3-0.8-3.9-2.2C89.9,340.7,89.4,338.7,89.4,336z M91.4,335.8c0,4.4,1.1,6.7,3.4,6.7
		c2.2,0,3.3-2.2,3.3-6.7c0-4.7-1.1-7.1-3.3-7.1C92.7,328.8,91.4,331.1,91.4,335.8z"/>
	<path d="M102.3,331.4c0-1.4,0.3-2.5,1.1-3.3c0.8-0.8,1.7-1.3,3-1.3s2.2,0.3,2.8,1.1c0.6,0.8,0.9,1.7,0.9,3.1c0,1.3-0.3,2.4-1.1,3.1
		c-0.8,0.8-1.7,1.3-3,1.3c-1.1,0-2-0.3-2.8-1.1C102.6,333.8,102.3,332.7,102.3,331.4z M104,331.3c0,0.9,0.2,1.7,0.6,2.2
		c0.5,0.5,0.9,0.8,1.7,0.8s1.3-0.3,1.7-0.8c0.5-0.5,0.6-1.3,0.6-2.2s-0.2-1.7-0.6-2.2c-0.3-0.5-0.9-0.8-1.6-0.8
		c-0.8,0-1.3,0.3-1.7,0.8C104.1,329.7,104,330.3,104,331.3z M117.5,327.2l-10.8,16.9H105l10.8-16.9H117.5z M112.3,340.1
		c0-1.4,0.3-2.5,1.1-3.3s1.7-1.3,3-1.3s2,0.3,2.8,1.1c0.6,0.8,0.9,1.7,0.9,3.1c0,1.3-0.3,2.4-1.1,3.1c-0.8,0.8-1.7,1.3-3,1.3
		c-1.1,0-2-0.3-2.8-1.1C112.6,342.3,112.3,341.3,112.3,340.1z M114,339.9c0,0.9,0.2,1.6,0.6,2.2c0.5,0.5,0.9,0.8,1.7,0.8
		s1.3-0.3,1.7-0.8c0.5-0.5,0.6-1.3,0.6-2.2c0-0.9-0.2-1.7-0.6-2.2c-0.5-0.5-0.9-0.8-1.6-0.8c-0.8,0-1.3,0.3-1.7,0.8
		C114.2,338.3,114,339,114,339.9z"/>
</g>
<g id="_4.0_" class="st0">
	<path d="M80.1,283.9V295h2.5v1.7h-2.5v3.9h-2v-3.9h-7.8V295c1.4-1.6,2.8-3.3,4.2-5.3s2.5-3.9,3.4-5.8L80.1,283.9L80.1,283.9z
		 M72.6,295.1h5.5v-8c-0.8,1.4-1.6,2.7-2.4,3.9C74.8,292.2,73.7,293.5,72.6,295.1z"/>
	<path d="M84.4,299.6c0-0.3,0.2-0.8,0.5-0.9c0.3-0.3,0.6-0.5,0.9-0.5c0.5,0,0.8,0.2,0.9,0.5c0.3,0.3,0.5,0.6,0.5,0.9
		s-0.2,0.6-0.5,0.9s-0.6,0.5-0.9,0.5c-0.5,0-0.8-0.2-0.9-0.5C84.4,300.2,84.4,299.9,84.4,299.6z"/>
	<path d="M89.4,292.7c0-3,0.5-5.2,1.4-6.7c0.9-1.6,2.4-2.4,4.2-2.4c3.6,0,5.3,2.8,5.3,8.6c0,2.8-0.5,5-1.6,6.4
		c-0.9,1.6-2.4,2.2-4.2,2.2c-1.7,0-3-0.8-3.9-2.2C89.9,297.4,89.4,295.4,89.4,292.7z M91.4,292.6c0,4.4,1.1,6.7,3.4,6.7
		c2.2,0,3.3-2.2,3.3-6.7c0-4.7-1.1-7.1-3.3-7.1C92.7,285.5,91.4,287.9,91.4,292.6z"/>
	<path d="M102.3,288.2c0-1.4,0.3-2.5,1.1-3.3c0.8-0.8,1.7-1.3,3-1.3s2.2,0.3,2.8,1.1c0.6,0.8,0.9,1.7,0.9,3.1c0,1.3-0.3,2.4-1.1,3.1
		c-0.8,0.8-1.7,1.3-3,1.3c-1.1,0-2-0.3-2.8-1.1C102.6,290.5,102.3,289.4,102.3,288.2z M104,288c0,0.9,0.2,1.7,0.6,2.2
		c0.5,0.5,0.9,0.8,1.7,0.8s1.3-0.3,1.7-0.8c0.5-0.5,0.6-1.3,0.6-2.2c0-0.9-0.2-1.7-0.6-2.2c-0.3-0.5-0.9-0.8-1.6-0.8
		c-0.8,0-1.3,0.3-1.7,0.8C104.1,286.4,104,287.1,104,288z M117.5,283.9l-10.8,16.9H105l10.8-16.9H117.5z M112.3,296.8
		c0-1.4,0.3-2.5,1.1-3.3s1.7-1.3,3-1.3s2,0.3,2.8,1.1c0.6,0.8,0.9,1.7,0.9,3.1c0,1.3-0.3,2.4-1.1,3.1c-0.8,0.8-1.7,1.3-3,1.3
		c-1.1,0-2-0.3-2.8-1.1C112.6,299,112.3,298,112.3,296.8z M114,296.6c0,0.9,0.2,1.6,0.6,2.2c0.5,0.5,0.9,0.8,1.7,0.8
		s1.3-0.3,1.7-0.8c0.5-0.5,0.6-1.3,0.6-2.2c0-0.9-0.2-1.7-0.6-2.2c-0.5-0.5-0.9-0.8-1.6-0.8c-0.8,0-1.3,0.3-1.7,0.8
		C114.2,295.1,114,295.7,114,296.6z"/>
</g>
<g id="_6.0_" class="st0">
	<path d="M81.1,238.8c-0.9-0.5-1.7-0.6-2.7-0.6c-1.4,0-2.7,0.6-3.4,1.9c-0.9,1.3-1.3,3-1.4,5.2l0,0c0.8-1.6,2-2.4,3.8-2.4
		c1.4,0,2.7,0.5,3.4,1.4c0.8,0.9,1.3,2.2,1.3,3.8s-0.5,3-1.6,4.1c-0.9,1.1-2.2,1.6-3.8,1.6c-1.7,0-3-0.6-4.1-2
		c-0.9-1.3-1.4-3.3-1.4-5.6c0-3,0.6-5.3,1.9-7.1c1.3-1.7,3-2.7,5-2.7c1.3,0,2.2,0.2,2.8,0.5L81.1,238.8L81.1,238.8z M73.6,247.9
		c0,1.1,0.3,2,0.9,2.8s1.4,1.3,2.4,1.3s1.7-0.3,2.2-0.9c0.6-0.6,0.9-1.6,0.9-2.7s-0.3-2-0.8-2.7c-0.5-0.6-1.3-0.9-2.4-0.9
		c-0.9,0-1.7,0.3-2.4,0.9C73.9,246.3,73.6,247.1,73.6,247.9z"/>
	<path d="M84.4,252.3c0-0.3,0.2-0.8,0.5-0.9c0.3-0.3,0.6-0.5,0.9-0.5c0.5,0,0.8,0.2,0.9,0.5c0.3,0.3,0.5,0.6,0.5,0.9
		c0,0.3-0.2,0.6-0.5,0.9c-0.3,0.3-0.6,0.5-0.9,0.5c-0.5,0-0.8-0.2-0.9-0.5C84.4,252.9,84.4,252.6,84.4,252.3z"/>
	<path d="M89.4,245.4c0-3,0.5-5.2,1.4-6.7s2.4-2.4,4.2-2.4c3.6,0,5.3,2.8,5.3,8.6c0,2.8-0.5,5-1.6,6.4c-0.9,1.6-2.4,2.2-4.2,2.2
		c-1.7,0-3-0.8-3.9-2.2C89.9,250.1,89.4,248,89.4,245.4z M91.4,245.2c0,4.4,1.1,6.7,3.4,6.7c2.2,0,3.3-2.2,3.3-6.7
		c0-4.7-1.1-7.1-3.3-7.1C92.7,238.1,91.4,240.5,91.4,245.2z"/>
	<path d="M102.3,240.8c0-1.4,0.3-2.5,1.1-3.3s1.7-1.3,3-1.3s2.2,0.3,2.8,1.1c0.6,0.8,0.9,1.7,0.9,3.1c0,1.3-0.3,2.4-1.1,3.1
		c-0.8,0.8-1.7,1.3-3,1.3c-1.1,0-2-0.3-2.8-1.1C102.6,243.2,102.3,242.1,102.3,240.8z M104,240.8c0,0.9,0.2,1.7,0.6,2.2
		c0.5,0.5,0.9,0.8,1.7,0.8s1.3-0.3,1.7-0.8s0.6-1.3,0.6-2.2s-0.2-1.7-0.6-2.2c-0.3-0.5-0.9-0.8-1.6-0.8c-0.8,0-1.3,0.3-1.7,0.8
		C104.1,239.1,104,239.9,104,240.8z M117.5,236.6l-10.8,16.9H105l10.8-16.9H117.5z M112.3,249.4c0-1.4,0.3-2.5,1.1-3.3
		c0.8-0.8,1.7-1.3,3-1.3s2,0.3,2.8,1.1c0.6,0.8,0.9,1.7,0.9,3.1c0,1.3-0.3,2.4-1.1,3.1c-0.8,0.8-1.7,1.3-3,1.3c-1.1,0-2-0.3-2.8-1.1
		C112.6,251.6,112.3,250.7,112.3,249.4z M114,249.3c0,0.9,0.2,1.6,0.6,2.2c0.5,0.5,0.9,0.8,1.7,0.8s1.3-0.3,1.7-0.8
		c0.5-0.5,0.6-1.3,0.6-2.2s-0.2-1.7-0.6-2.2c-0.5-0.5-0.9-0.8-1.6-0.8c-0.8,0-1.3,0.3-1.7,0.8C114.2,247.7,114,248.3,114,249.3z"/>
</g>
<g id="_8.0_" class="st0">
	<path d="M71,197.4c0-0.9,0.3-1.9,0.9-2.7s1.3-1.4,2.2-1.7c-0.8-0.5-1.3-0.9-1.7-1.6c-0.5-0.6-0.6-1.4-0.6-2c0-0.8,0.2-1.6,0.6-2.2
		c0.5-0.6,0.9-1.1,1.7-1.6c0.8-0.3,1.6-0.6,2.4-0.6c0.9,0,1.7,0.2,2.4,0.6c0.8,0.3,1.3,0.9,1.7,1.6c0.5,0.6,0.6,1.4,0.6,2.2
		s-0.2,1.4-0.6,2c-0.5,0.6-0.9,1.3-1.7,1.6c0.9,0.3,1.7,0.9,2.2,1.7c0.6,0.8,0.8,1.7,0.8,2.7c0,0.9-0.2,1.9-0.6,2.5
		c-0.5,0.8-1.1,1.4-1.9,1.7c-0.8,0.5-1.7,0.6-2.8,0.6c-1.1,0-2-0.2-2.8-0.6s-1.4-0.9-1.9-1.7C71.4,199.1,71,198.3,71,197.4z
		 M73.2,197.2c0,0.9,0.3,1.7,0.9,2.4s1.4,0.9,2.5,0.9c0.9,0,1.9-0.3,2.5-0.9s0.9-1.4,0.9-2.4c0-0.9-0.3-1.7-0.9-2.4
		c-0.6-0.6-1.4-0.9-2.4-0.9s-1.7,0.3-2.4,0.9C73.6,195.5,73.2,196.3,73.2,197.2z M73.7,189.4c0,0.8,0.3,1.4,0.8,1.9s1.3,0.8,1.9,0.8
		c0.8,0,1.4-0.3,2-0.8s0.8-1.3,0.8-1.9c0-0.8-0.3-1.4-0.8-1.9s-1.3-0.8-2-0.8s-1.4,0.3-2,0.8C74,188,73.7,188.7,73.7,189.4z"/>
	<path d="M84.4,201c0-0.3,0.2-0.8,0.5-0.9c0.3-0.3,0.6-0.5,0.9-0.5c0.5,0,0.8,0.2,0.9,0.5c0.3,0.3,0.5,0.6,0.5,0.9
		c0,0.3-0.2,0.6-0.5,0.9c-0.3,0.3-0.6,0.5-0.9,0.5c-0.5,0-0.8-0.2-0.9-0.5C84.4,201.6,84.4,201.3,84.4,201z"/>
	<path d="M89.4,193.9c0-3,0.5-5.2,1.4-6.7s2.4-2.4,4.2-2.4c3.6,0,5.3,2.8,5.3,8.6c0,2.8-0.5,5-1.6,6.4c-0.9,1.6-2.4,2.2-4.2,2.2
		c-1.7,0-3-0.8-3.9-2.2C89.9,198.8,89.4,196.7,89.4,193.9z M91.4,193.9c0,4.4,1.1,6.7,3.4,6.7c2.2,0,3.3-2.2,3.3-6.7
		c0-4.7-1.1-7.1-3.3-7.1C92.7,186.7,91.4,189.1,91.4,193.9z"/>
	<path d="M102.3,189.5c0-1.4,0.3-2.5,1.1-3.3c0.8-0.8,1.7-1.3,3-1.3s2.2,0.3,2.8,1.1c0.6,0.8,0.9,1.7,0.9,3.1c0,1.3-0.3,2.4-1.1,3.1
		c-0.8,0.8-1.7,1.3-3,1.3c-1.1,0-2-0.3-2.8-1.1C102.6,191.7,102.3,190.8,102.3,189.5z M104,189.4c0,0.9,0.2,1.7,0.6,2.2
		c0.5,0.5,0.9,0.8,1.7,0.8s1.3-0.3,1.7-0.8s0.6-1.3,0.6-2.2s-0.2-1.7-0.6-2.2c-0.3-0.5-0.9-0.8-1.6-0.8c-0.8,0-1.3,0.3-1.7,0.8
		C104.1,187.6,104,188.4,104,189.4z M117.5,185.3l-10.8,16.8H105l10.8-16.9L117.5,185.3L117.5,185.3z M112.3,198.2
		c0-1.4,0.3-2.5,1.1-3.3s1.7-1.3,3-1.3s2,0.3,2.8,1.1c0.6,0.8,0.9,1.7,0.9,3.1c0,1.3-0.3,2.4-1.1,3.1c-0.8,0.8-1.7,1.3-3,1.3
		c-1.1,0-2-0.3-2.8-1.1C112.6,200.3,112.3,199.4,112.3,198.2z M114,198c0,0.9,0.2,1.6,0.6,2.2c0.5,0.5,0.9,0.8,1.7,0.8
		s1.3-0.3,1.7-0.8c0.5-0.5,0.6-1.3,0.6-2.2s-0.2-1.7-0.6-2.2c-0.5-0.5-0.9-0.8-1.6-0.8c-0.8,0-1.3,0.3-1.7,0.8
		C114.2,196.3,114,197.1,114,198z"/>
</g>
<g id="_10.0_" class="st0">
	<path d="M64.6,150.6v-14.3c-0.3,0.3-0.9,0.6-1.7,1.1s-1.6,0.6-2.2,0.9v-2.2c0.9-0.3,1.9-0.6,2.8-1.1s1.7-1.1,2.4-1.6h0.8v17.1h-2.1
		V150.6z"/>
	<path d="M72.5,142.6c0-3,0.5-5.2,1.4-6.7c0.9-1.6,2.4-2.4,4.2-2.4c3.6,0,5.3,2.8,5.3,8.6c0,2.8-0.5,5-1.6,6.4
		c-0.9,1.6-2.4,2.2-4.2,2.2c-1.7,0-3-0.8-3.9-2.2C72.9,147.3,72.5,145.3,72.5,142.6z M74.7,142.5c0,4.4,1.1,6.7,3.4,6.7
		c2.2,0,3.3-2.2,3.3-6.7c0-4.7-1.1-7.1-3.3-7.1C75.8,135.4,74.7,137.8,74.7,142.5z"/>
	<path d="M85.8,149.5c0-0.3,0.2-0.8,0.5-0.9c0.3-0.3,0.6-0.5,0.9-0.5c0.5,0,0.8,0.2,0.9,0.5c0.3,0.3,0.5,0.6,0.5,0.9
		c0,0.3-0.2,0.6-0.5,0.9c-0.3,0.3-0.6,0.5-0.9,0.5c-0.5,0-0.8-0.2-0.9-0.5C85.9,150.3,85.8,150,85.8,149.5z"/>
	<path d="M90.8,142.6c0-3,0.5-5.2,1.4-6.7s2.4-2.4,4.2-2.4c3.6,0,5.3,2.8,5.3,8.6c0,2.8-0.5,5-1.6,6.4c-0.9,1.6-2.4,2.2-4.2,2.2
		c-1.7,0-3-0.8-3.9-2.2C91.3,147.3,90.8,145.3,90.8,142.6z M93,142.5c0,4.4,1.1,6.7,3.4,6.7c2.2,0,3.3-2.2,3.3-6.7
		c0-4.7-1.1-7.1-3.3-7.1C94.1,135.4,93,137.8,93,142.5z"/>
	<path d="M103.8,138.1c0-1.4,0.3-2.5,1.1-3.3c0.8-0.8,1.7-1.3,3-1.3s2.2,0.3,2.8,1.1c0.6,0.8,0.9,1.7,0.9,3.1c0,1.3-0.3,2.4-1.1,3.1
		c-0.8,0.8-1.7,1.3-3,1.3c-1.1,0-2-0.3-2.8-1.1C104.1,140.4,103.8,139.3,103.8,138.1z M105.4,138.1c0,0.9,0.2,1.7,0.6,2.2
		c0.5,0.5,0.9,0.8,1.7,0.8s1.3-0.3,1.7-0.8c0.5-0.5,0.6-1.3,0.6-2.2s-0.2-1.7-0.6-2.2c-0.3-0.5-0.9-0.8-1.6-0.8
		c-0.8,0-1.3,0.3-1.7,0.8C105.7,136.4,105.4,137.2,105.4,138.1z M118.9,133.9l-10.8,16.9h-1.9l10.8-16.9H118.9z M113.9,146.7
		c0-1.4,0.3-2.5,1.1-3.3c0.8-0.8,1.7-1.3,3-1.3s2,0.3,2.8,1.1c0.6,0.8,0.9,1.7,0.9,3.1c0,1.3-0.3,2.4-1.1,3.1
		c-0.8,0.8-1.7,1.3-3,1.3c-1.1,0-2-0.3-2.8-1.1C114.2,149.1,113.9,148,113.9,146.7z M115.4,146.7c0,0.9,0.2,1.6,0.6,2.2
		c0.5,0.5,0.9,0.8,1.7,0.8s1.3-0.3,1.7-0.8s0.6-1.3,0.6-2.2s-0.2-1.7-0.6-2.2c-0.5-0.5-0.9-0.8-1.6-0.8c-0.8,0-1.3,0.3-1.7,0.8
		C115.6,145,115.4,145.8,115.4,146.7z"/>
</g>
<g id="_12.0_" class="st0">
	<path d="M64.6,102.3V88.1c-0.3,0.3-0.9,0.6-1.7,1.1s-1.6,0.6-2.2,0.9v-2c0.9-0.3,1.9-0.6,2.8-1.1s1.7-1.1,2.4-1.6h0.8v17.1
		L64.6,102.3L64.6,102.3z"/>
	<path d="M80.8,90c0-0.9-0.3-1.6-0.8-2.2c-0.6-0.5-1.4-0.8-2.4-0.8c-0.6,0-1.4,0.2-2,0.5c-0.8,0.3-1.4,0.8-2,1.6v-2
		c0.5-0.6,1.1-0.9,1.9-1.3c0.6-0.3,1.6-0.5,2.5-0.5c1.6,0,2.7,0.5,3.6,1.3s1.4,1.9,1.4,3.3c0,1.3-0.3,2.4-0.8,3.1
		c-0.6,0.9-1.6,1.9-3,2.8s-2.4,1.7-2.8,2c-0.5,0.5-0.8,0.8-0.9,1.3c-0.2,0.3-0.3,0.8-0.3,1.4h8.3v1.9H72.8v-0.8
		c0-0.9,0.2-1.7,0.5-2.5c0.3-0.6,0.6-1.3,1.3-2c0.6-0.6,1.6-1.4,2.8-2.4c1.3-0.9,2.2-1.7,2.7-2.4C80.5,91.7,80.8,90.9,80.8,90z"/>
	<path d="M85.8,101.2c0-0.3,0.2-0.8,0.5-0.9c0.3-0.3,0.6-0.5,0.9-0.5c0.5,0,0.8,0.2,0.9,0.5c0.3,0.3,0.5,0.6,0.5,0.9
		s-0.2,0.6-0.5,0.9s-0.6,0.5-0.9,0.5c-0.5,0-0.8-0.2-0.9-0.5C85.9,101.9,85.8,101.6,85.8,101.2z"/>
	<path d="M90.8,94.3c0-3,0.5-5.2,1.4-6.7s2.4-2.4,4.2-2.4c3.6,0,5.3,2.8,5.3,8.6c0,2.8-0.5,5-1.6,6.4c-0.9,1.6-2.4,2.2-4.2,2.2
		c-1.7,0-3-0.8-3.9-2.2C91.3,99,90.8,97,90.8,94.3z M93,94.2c0,4.4,1.1,6.7,3.4,6.7c2.2,0,3.3-2.2,3.3-6.7c0-4.7-1.1-7.1-3.3-7.1
		C94.1,87.1,93,89.5,93,94.2z"/>
	<path d="M103.8,89.8c0-1.4,0.3-2.5,1.1-3.3s1.7-1.3,3-1.3s2.2,0.3,2.8,1.1c0.6,0.8,0.9,1.7,0.9,3.1c0,1.3-0.3,2.4-1.1,3.1
		s-1.7,1.3-3,1.3c-1.1,0-2-0.3-2.8-1.1C104.1,92.1,103.8,91,103.8,89.8z M105.4,89.8c0,0.9,0.2,1.7,0.6,2.2c0.5,0.5,0.9,0.8,1.7,0.8
		s1.3-0.3,1.7-0.8s0.6-1.3,0.6-2.2c0-0.9-0.2-1.7-0.6-2.2c-0.3-0.5-0.9-0.8-1.6-0.8c-0.8,0-1.3,0.3-1.7,0.8
		C105.7,88.1,105.4,88.7,105.4,89.8z M118.9,85.6l-10.8,16.9h-1.9L117,85.6H118.9z M113.9,98.4c0-1.4,0.3-2.5,1.1-3.3s1.7-1.3,3-1.3
		s2,0.3,2.8,1.1c0.6,0.8,0.9,1.7,0.9,3.1c0,1.3-0.3,2.4-1.1,3.1s-1.7,1.3-3,1.3c-1.1,0-2-0.3-2.8-1.1
		C114.2,100.6,113.9,99.7,113.9,98.4z M115.4,98.3c0,0.9,0.2,1.6,0.6,2.2c0.5,0.5,0.9,0.8,1.7,0.8s1.3-0.3,1.7-0.8s0.6-1.3,0.6-2.2
		c0-0.9-0.2-1.7-0.6-2.2c-0.5-0.5-0.9-0.8-1.6-0.8c-0.8,0-1.3,0.3-1.7,0.8C115.6,96.7,115.4,97.3,115.4,98.3z"/>
</g>
<g id="线">
	<rect id="矩形_863_拷贝_2" x="132" y="342.9" class="st1" width="213.4" height="2"/>
	<rect id="矩形_863_拷贝_3" x="132" y="291.5" class="st1" width="213.4" height="2"/>
	<rect id="矩形_863_拷贝_4" x="132" y="240.2" class="st1" width="213.4" height="2"/>
	<rect id="矩形_863_拷贝_5" x="132" y="189.8" class="st1" width="213.4" height="2"/>
	<rect id="矩形_863_拷贝_5-2" x="132" y="138.6" class="st1" width="213.4" height="2"/>
	<rect id="矩形_863_拷贝_5-3" x="132" y="87.1" class="st1" width="213.4" height="2"/>
	<rect id="矩形_863" x="132" y="84.2" class="st2" width="2" height="314.1"/>
</g>
<rect id="矩形_864" x="163.3" y="138.6" class="st3" width="46.3" height="257.8"/>
<rect id="矩形_864_拷贝" x="209.5" y="240.2" class="st4" width="46.3" height="156"/>
<rect id="矩形_864_拷贝_2" x="255.8" y="326.7" class="st5" width="46.3" height="69.5"/>
<rect id="矩形_863_拷贝" x="132" y="396.2" class="st2" width="213.4" height="2"/>
<g id="_2">
	<g id="_2.0_2" class="st0">
		<path d="M389.7,332c0-0.9-0.3-1.6-0.8-2.2c-0.6-0.5-1.4-0.8-2.3-0.8c-0.6,0-1.4,0.2-2,0.5c-0.8,0.3-1.4,0.8-2,1.6v-2
			c0.5-0.6,1.1-0.9,1.9-1.3c0.6-0.3,1.6-0.5,2.5-0.5c1.6,0,2.7,0.5,3.6,1.3s1.4,1.9,1.4,3.3c0,1.3-0.3,2.3-0.8,3.1
			c-0.6,0.9-1.6,1.9-3,2.8s-2.3,1.7-2.8,2c-0.5,0.5-0.8,0.8-0.9,1.3c-0.2,0.3-0.3,0.8-0.3,1.4h8.3v1.9H382v-0.8
			c0-0.9,0.2-1.7,0.5-2.5c0.3-0.6,0.6-1.3,1.3-2c0.6-0.6,1.6-1.4,2.8-2.3c1.3-0.9,2.2-1.7,2.7-2.3
			C389.6,333.7,389.7,332.9,389.7,332z"/>
		<path d="M394.9,343.2c0-0.3,0.2-0.8,0.5-0.9c0.3-0.3,0.6-0.5,0.9-0.5c0.5,0,0.8,0.2,0.9,0.5c0.3,0.3,0.5,0.6,0.5,0.9
			s-0.2,0.6-0.5,0.9s-0.6,0.5-0.9,0.5c-0.5,0-0.8-0.2-0.9-0.5C395.1,343.9,394.9,343.5,394.9,343.2z"/>
		<path d="M399.9,336.3c0-3,0.5-5.2,1.4-6.7c0.9-1.6,2.3-2.3,4.2-2.3c3.6,0,5.3,2.8,5.3,8.6c0,2.8-0.5,5-1.6,6.4
			c-0.9,1.6-2.3,2.2-4.2,2.2c-1.7,0-3-0.8-3.9-2.2C400.4,341,399.9,339,399.9,336.3z M402,336.2c0,4.4,1.1,6.7,3.4,6.7
			c2.2,0,3.3-2.2,3.3-6.7c0-4.7-1.1-7-3.3-7C403.2,329.1,402,331.5,402,336.2z"/>
		<path d="M412.8,331.8c0-1.4,0.3-2.5,1.1-3.3c0.8-0.8,1.7-1.3,3-1.3s2.2,0.3,2.8,1.1s0.9,1.7,0.9,3.1c0,1.3-0.3,2.3-1.1,3.1
			c-0.8,0.8-1.7,1.3-3,1.3c-1.1,0-2-0.3-2.8-1.1C413.2,334.1,412.8,333,412.8,331.8z M414.5,331.6c0,0.9,0.2,1.7,0.6,2.2
			c0.5,0.5,0.9,0.8,1.7,0.8c0.8,0,1.3-0.3,1.7-0.8s0.6-1.3,0.6-2.2c0-0.9-0.2-1.7-0.6-2.2c-0.3-0.5-0.9-0.8-1.6-0.8
			c-0.8,0-1.3,0.3-1.7,0.8C414.6,330.1,414.5,330.7,414.5,331.6z M428,327.6l-10.8,16.9h-1.9l10.8-16.9H428z M422.8,340.4
			c0-1.4,0.3-2.5,1.1-3.3c0.8-0.8,1.7-1.3,3-1.3s2,0.3,2.8,1.1c0.6,0.8,0.9,1.7,0.9,3.1c0,1.3-0.3,2.3-1.1,3.1
			c-0.8,0.8-1.7,1.3-3,1.3c-1.1,0-2-0.3-2.8-1.1C423.3,342.6,422.8,341.7,422.8,340.4z M424.5,340.3c0,0.9,0.2,1.6,0.6,2.2
			c0.5,0.5,0.9,0.8,1.7,0.8c0.8,0,1.3-0.3,1.7-0.8s0.6-1.3,0.6-2.2c0-0.9-0.2-1.7-0.6-2.2c-0.5-0.5-0.9-0.8-1.6-0.8
			c-0.8,0-1.3,0.3-1.7,0.8C424.7,338.7,424.5,339.3,424.5,340.3z"/>
	</g>
	<g id="_4.0_2" class="st0">
		<path d="M390.7,284.3v11.1h2.5v1.7h-2.5v3.9h-2v-3.9h-7.8v-1.7c1.4-1.6,2.8-3.3,4.2-5.3c1.4-2,2.5-3.9,3.4-5.8L390.7,284.3
			L390.7,284.3z M383.2,295.5h5.5v-8c-0.8,1.4-1.6,2.7-2.3,3.9C385.4,292.6,384.3,293.9,383.2,295.5z"/>
		<path d="M394.9,300c0-0.3,0.2-0.8,0.5-0.9c0.3-0.3,0.6-0.5,0.9-0.5c0.5,0,0.8,0.2,0.9,0.5c0.3,0.3,0.5,0.6,0.5,0.9
			s-0.2,0.6-0.5,0.9s-0.6,0.5-0.9,0.5c-0.5,0-0.8-0.2-0.9-0.5C395.1,300.6,394.9,300.3,394.9,300z"/>
		<path d="M399.9,293.1c0-3,0.5-5.2,1.4-6.7c0.9-1.6,2.3-2.3,4.2-2.3c3.6,0,5.3,2.8,5.3,8.6c0,2.8-0.5,5-1.6,6.4
			c-0.9,1.6-2.3,2.2-4.2,2.2c-1.7,0-3-0.8-3.9-2.2C400.4,297.8,399.9,295.8,399.9,293.1z M402,293c0,4.4,1.1,6.7,3.4,6.7
			c2.2,0,3.3-2.2,3.3-6.7c0-4.7-1.1-7-3.3-7C403.2,285.9,402,288.3,402,293z"/>
		<path d="M412.8,288.6c0-1.4,0.3-2.5,1.1-3.3c0.8-0.8,1.7-1.3,3-1.3s2.2,0.3,2.8,1.1c0.6,0.8,0.9,1.7,0.9,3.1
			c0,1.3-0.3,2.3-1.1,3.1c-0.8,0.8-1.7,1.3-3,1.3c-1.1,0-2-0.3-2.8-1.1C413.2,290.9,412.8,289.8,412.8,288.6z M414.5,288.4
			c0,0.9,0.2,1.7,0.6,2.2c0.5,0.5,0.9,0.8,1.7,0.8c0.8,0,1.3-0.3,1.7-0.8s0.6-1.3,0.6-2.2c0-0.9-0.2-1.7-0.6-2.2
			c-0.3-0.5-0.9-0.8-1.6-0.8c-0.8,0-1.3,0.3-1.7,0.8C414.6,286.8,414.5,287.5,414.5,288.4z M428,284.3l-10.8,16.9h-1.9l10.8-16.9
			H428z M422.8,297.2c0-1.4,0.3-2.5,1.1-3.3c0.8-0.8,1.7-1.3,3-1.3s2,0.3,2.8,1.1c0.6,0.8,0.9,1.7,0.9,3.1c0,1.3-0.3,2.3-1.1,3.1
			c-0.8,0.8-1.7,1.3-3,1.3c-1.1,0-2-0.3-2.8-1.1C423.3,299.4,422.8,298.4,422.8,297.2z M424.5,297c0,0.9,0.2,1.6,0.6,2.2
			c0.5,0.5,0.9,0.8,1.7,0.8c0.8,0,1.3-0.3,1.7-0.8s0.6-1.3,0.6-2.2c0-0.9-0.2-1.7-0.6-2.2c-0.5-0.5-0.9-0.8-1.6-0.8
			c-0.8,0-1.3,0.3-1.7,0.8C424.7,295.5,424.5,296.1,424.5,297z"/>
	</g>
	<g id="_6.0_2" class="st0">
		<path d="M391.6,239.2c-0.9-0.5-1.7-0.6-2.7-0.6c-1.4,0-2.7,0.6-3.4,1.9c-0.9,1.3-1.3,3-1.4,5.2l0,0c0.8-1.6,2-2.3,3.8-2.3
			c1.4,0,2.7,0.5,3.4,1.4c0.8,0.9,1.3,2.2,1.3,3.8s-0.5,3-1.6,4.1c-0.9,1.1-2.2,1.6-3.8,1.6c-1.7,0-3-0.6-4.1-2
			c-0.9-1.3-1.4-3.3-1.4-5.6c0-3,0.6-5.3,1.9-7s3-2.7,5-2.7c1.3,0,2.2,0.2,2.8,0.5L391.6,239.2L391.6,239.2z M384.1,248.3
			c0,1.1,0.3,2,0.9,2.8s1.4,1.3,2.3,1.3s1.7-0.3,2.2-0.9c0.6-0.6,0.9-1.6,0.9-2.7s-0.3-2-0.8-2.7c-0.5-0.6-1.3-0.9-2.3-0.9
			c-0.9,0-1.7,0.3-2.3,0.9C384.4,246.8,384.1,247.5,384.1,248.3z"/>
		<path d="M394.9,252.7c0-0.3,0.2-0.8,0.5-0.9c0.3-0.3,0.6-0.5,0.9-0.5c0.5,0,0.8,0.2,0.9,0.5c0.3,0.3,0.5,0.6,0.5,0.9
			s-0.2,0.6-0.5,0.9c-0.3,0.3-0.6,0.5-0.9,0.5c-0.5,0-0.8-0.2-0.9-0.5C395.1,253.3,394.9,253,394.9,252.7z"/>
		<path d="M399.9,245.8c0-3,0.5-5.2,1.4-6.7c0.9-1.6,2.3-2.3,4.2-2.3c3.6,0,5.3,2.8,5.3,8.6c0,2.8-0.5,5-1.6,6.4
			c-0.9,1.6-2.3,2.2-4.2,2.2c-1.7,0-3-0.8-3.9-2.2C400.4,250.5,399.9,248.5,399.9,245.8z M402,245.7c0,4.4,1.1,6.7,3.4,6.7
			c2.2,0,3.3-2.2,3.3-6.7c0-4.7-1.1-7-3.3-7C403.2,238.6,402,241,402,245.7z"/>
		<path d="M412.8,241.3c0-1.4,0.3-2.5,1.1-3.3c0.8-0.8,1.7-1.3,3-1.3s2.2,0.3,2.8,1.1s0.9,1.7,0.9,3.1c0,1.3-0.3,2.3-1.1,3.1
			c-0.8,0.8-1.7,1.3-3,1.3c-1.1,0-2-0.3-2.8-1.1C413.2,243.6,412.8,242.5,412.8,241.3z M414.5,241.3c0,0.9,0.2,1.7,0.6,2.2
			c0.5,0.5,0.9,0.8,1.7,0.8c0.8,0,1.3-0.3,1.7-0.8c0.5-0.5,0.6-1.3,0.6-2.2s-0.2-1.7-0.6-2.2c-0.3-0.5-0.9-0.8-1.6-0.8
			c-0.8,0-1.3,0.3-1.7,0.8C414.6,239.5,414.5,240.3,414.5,241.3z M428,237l-10.8,17h-1.9l10.8-16.9h1.9V237z M422.8,249.9
			c0-1.4,0.3-2.5,1.1-3.3c0.8-0.8,1.7-1.3,3-1.3s2,0.3,2.8,1.1c0.6,0.8,0.9,1.7,0.9,3.1c0,1.3-0.3,2.3-1.1,3.1
			c-0.8,0.8-1.7,1.3-3,1.3c-1.1,0-2-0.3-2.8-1.1C423.3,252.1,422.8,251.1,422.8,249.9z M424.5,249.7c0,0.9,0.2,1.6,0.6,2.2
			c0.5,0.5,0.9,0.8,1.7,0.8c0.8,0,1.3-0.3,1.7-0.8c0.5-0.5,0.6-1.3,0.6-2.2s-0.2-1.7-0.6-2.2c-0.5-0.5-0.9-0.8-1.6-0.8
			c-0.8,0-1.3,0.3-1.7,0.8C424.7,248.2,424.5,248.8,424.5,249.7z"/>
	</g>
	<g id="_8.0_2" class="st0">
		<path d="M381.6,197.9c0-0.9,0.3-1.9,0.9-2.7s1.3-1.4,2.2-1.7c-0.8-0.5-1.3-0.9-1.7-1.6c-0.5-0.6-0.6-1.4-0.6-2
			c0-0.8,0.2-1.6,0.6-2.2c0.5-0.6,0.9-1.1,1.7-1.6c0.8-0.5,1.6-0.6,2.3-0.6c0.9,0,1.7,0.2,2.3,0.6c0.8,0.3,1.3,0.9,1.7,1.6
			s0.6,1.4,0.6,2.2s-0.2,1.4-0.6,2c-0.5,0.6-0.9,1.3-1.7,1.6c0.9,0.3,1.7,0.9,2.2,1.7c0.6,0.8,0.8,1.7,0.8,2.7
			c0,0.9-0.2,1.9-0.6,2.5c-0.5,0.8-1.1,1.4-1.9,1.7c-0.8,0.5-1.7,0.6-2.8,0.6s-2-0.2-2.8-0.6c-0.8-0.5-1.4-0.9-1.9-1.7
			S381.6,198.8,381.6,197.9z M383.8,197.7c0,0.9,0.3,1.7,0.9,2.3s1.4,0.9,2.5,0.9c0.9,0,1.9-0.3,2.5-0.9c0.6-0.6,0.9-1.4,0.9-2.3
			s-0.3-1.7-0.9-2.3s-1.4-0.9-2.3-0.9s-1.7,0.3-2.3,0.9C384.1,196,383.8,196.8,383.8,197.7z M384.4,189.9c0,0.8,0.3,1.4,0.8,1.9
			s1.3,0.8,1.9,0.8c0.8,0,1.4-0.3,2-0.8s0.8-1.3,0.8-1.9c0-0.8-0.3-1.4-0.8-1.9s-1.3-0.8-2-0.8c-0.8,0-1.4,0.3-2,0.8
			C384.6,188.5,384.4,189.3,384.4,189.9z"/>
		<path d="M394.9,201.5c0-0.3,0.2-0.8,0.5-0.9c0.3-0.3,0.6-0.5,0.9-0.5c0.5,0,0.8,0.2,0.9,0.5c0.3,0.3,0.5,0.6,0.5,0.9
			s-0.2,0.6-0.5,0.9c-0.3,0.3-0.6,0.5-0.9,0.5c-0.5,0-0.8-0.2-0.9-0.5C395.1,202.1,394.9,201.8,394.9,201.5z"/>
		<path d="M399.9,194.4c0-3,0.5-5.2,1.4-6.7c0.9-1.6,2.3-2.3,4.2-2.3c3.6,0,5.3,2.8,5.3,8.6c0,2.8-0.5,5-1.6,6.4
			c-0.9,1.6-2.3,2.2-4.2,2.2c-1.7,0-3-0.8-3.9-2.2C400.4,199.3,399.9,197.3,399.9,194.4z M402,194.4c0,4.4,1.1,6.7,3.4,6.7
			c2.2,0,3.3-2.2,3.3-6.7c0-4.7-1.1-7-3.3-7C403.2,187.2,402,189.6,402,194.4z"/>
		<path d="M412.8,190.1c0-1.4,0.3-2.5,1.1-3.3c0.8-0.8,1.7-1.3,3-1.3s2.2,0.3,2.8,1.1s0.9,1.7,0.9,3.1c0,1.3-0.3,2.3-1.1,3.1
			c-0.8,0.8-1.7,1.3-3,1.3c-1.1,0-2-0.3-2.8-1.1C412.9,192.3,412.8,191.3,412.8,190.1z M414.5,189.9c0,0.9,0.2,1.7,0.6,2.2
			c0.5,0.5,0.9,0.8,1.7,0.8c0.8,0,1.3-0.3,1.7-0.8s0.6-1.3,0.6-2.2s-0.2-1.7-0.6-2.2c-0.3-0.5-0.9-0.8-1.6-0.8
			c-0.8,0-1.3,0.3-1.7,0.8C414.6,188.2,414.5,189,414.5,189.9z M428,185.8l-10.8,16.9h-1.9l10.8-16.9H428z M422.8,198.7
			c0-1.4,0.3-2.5,1.1-3.3c0.8-0.8,1.7-1.3,3-1.3s2,0.3,2.8,1.1c0.6,0.8,0.9,1.7,0.9,3.1c0,1.3-0.3,2.3-1.1,3.1
			c-0.8,0.8-1.7,1.3-3,1.3c-1.1,0-2-0.3-2.8-1.1C423.3,200.9,422.8,199.9,422.8,198.7z M424.5,198.5c0,0.9,0.2,1.6,0.6,2.2
			c0.5,0.5,0.9,0.8,1.7,0.8c0.8,0,1.3-0.3,1.7-0.8s0.6-1.3,0.6-2.2s-0.2-1.7-0.6-2.2c-0.5-0.5-0.9-0.8-1.6-0.8
			c-0.8,0-1.3,0.3-1.7,0.8C424.7,196.8,424.5,197.6,424.5,198.5z"/>
	</g>
	<g id="_10.0_2" class="st0">
		<path d="M375.2,151.2V137c-0.3,0.3-0.9,0.6-1.7,1.1c-0.8,0.5-1.6,0.6-2.2,0.9v-2.2c0.9-0.3,1.9-0.6,2.8-1.1s1.7-1.1,2.3-1.6h0.8
			v17.1H375.2z"/>
		<path d="M383,143.2c0-3,0.5-5.2,1.4-6.7c0.9-1.6,2.3-2.3,4.2-2.3c3.6,0,5.3,2.8,5.3,8.6c0,2.8-0.5,5-1.6,6.4
			c-0.9,1.6-2.3,2.2-4.2,2.2c-1.7,0-3-0.8-3.9-2.2C383.5,147.9,383,145.9,383,143.2z M385.2,143.1c0,4.4,1.1,6.7,3.4,6.7
			c2.2,0,3.3-2.2,3.3-6.7c0-4.7-1.1-7-3.3-7C386.3,136,385.2,138.4,385.2,143.1z"/>
		<path d="M396.3,150.1c0-0.3,0.2-0.8,0.5-0.9c0.3-0.3,0.6-0.5,0.9-0.5c0.5,0,0.8,0.2,0.9,0.5c0.3,0.3,0.5,0.6,0.5,0.9
			s-0.2,0.6-0.5,0.9c-0.3,0.3-0.6,0.5-0.9,0.5c-0.5,0-0.8-0.2-0.9-0.5C396.5,150.9,396.3,150.6,396.3,150.1z"/>
		<path d="M401.3,143.2c0-3,0.5-5.2,1.4-6.7c0.9-1.6,2.3-2.3,4.2-2.3c3.6,0,5.3,2.8,5.3,8.6c0,2.8-0.5,5-1.6,6.4
			c-0.9,1.6-2.3,2.2-4.2,2.2c-1.7,0-3-0.8-3.9-2.2C401.7,147.8,401.3,145.9,401.3,143.2z M403.5,143.1c0,4.4,1.1,6.7,3.4,6.7
			c2.2,0,3.3-2.2,3.3-6.7c0-4.7-1.1-7-3.3-7C404.6,136,403.5,138.4,403.5,143.1z"/>
		<path d="M414.3,138.7c0-1.4,0.3-2.5,1.1-3.3c0.8-0.8,1.7-1.3,3-1.3s2.2,0.3,2.8,1.1s0.9,1.7,0.9,3.1c0,1.3-0.3,2.3-1.1,3.1
			s-1.7,1.3-3,1.3c-1.1,0-2-0.3-2.8-1.1C414.6,141,414.3,139.9,414.3,138.7z M415.9,138.7c0,0.9,0.2,1.7,0.6,2.2
			c0.5,0.5,0.9,0.8,1.7,0.8c0.8,0,1.3-0.3,1.7-0.8c0.5-0.5,0.6-1.3,0.6-2.2s-0.2-1.7-0.6-2.2c-0.3-0.5-0.9-0.8-1.6-0.8
			c-0.8,0-1.3,0.3-1.7,0.8C416.2,137,415.9,137.8,415.9,138.7z M429.4,134.5l-10.8,16.9h-1.7l10.8-16.9
			C427.6,134.5,429.4,134.5,429.4,134.5z M424.4,147.3c0-1.4,0.3-2.5,1.1-3.3c0.8-0.8,1.7-1.3,3-1.3s2,0.3,2.8,1.1
			c0.6,0.8,0.9,1.7,0.9,3.1c0,1.3-0.3,2.3-1.1,3.1c-0.8,0.8-1.7,1.3-3,1.3c-1.1,0-2-0.3-2.8-1.1
			C424.7,149.7,424.4,148.6,424.4,147.3z M425.9,147.3c0,0.9,0.2,1.6,0.6,2.2c0.5,0.5,0.9,0.8,1.7,0.8c0.8,0,1.3-0.3,1.7-0.8
			c0.5-0.5,0.6-1.3,0.6-2.2s-0.2-1.7-0.6-2.2c-0.5-0.5-0.9-0.8-1.6-0.8c-0.8,0-1.3,0.3-1.7,0.8C426.1,145.6,425.9,146.4,425.9,147.3
			z"/>
	</g>
	<g id="_12.0_2" class="st0">
		<path d="M375.2,103V88.7c-0.3,0.3-0.9,0.6-1.7,1.1c-0.8,0.5-1.6,0.6-2.2,0.9v-2c0.9-0.3,1.9-0.6,2.8-1.1s1.7-1.1,2.3-1.6h0.8v17.1
			L375.2,103L375.2,103z"/>
		<path d="M391.3,90.6c0-0.9-0.3-1.6-0.8-2.2c-0.6-0.5-1.4-0.8-2.3-0.8c-0.6,0-1.4,0.2-2,0.5c-0.8,0.3-1.4,0.8-2,1.6v-2
			c0.5-0.6,1.1-0.9,1.9-1.3c0.6-0.3,1.6-0.5,2.5-0.5c1.6,0,2.7,0.5,3.6,1.3s1.4,1.9,1.4,3.3c0,1.3-0.3,2.3-0.8,3.1
			c-0.6,0.9-1.6,1.9-3,2.8s-2.3,1.7-2.8,2s-0.8,0.8-0.9,1.3c-0.2,0.3-0.3,0.8-0.3,1.4h8.3v1.9h-10.5v-0.8c0-0.9,0.2-1.7,0.5-2.5
			c0.3-0.6,0.6-1.3,1.3-2c0.6-0.6,1.6-1.4,2.8-2.3c1.3-0.9,2.2-1.7,2.7-2.3C391,92.3,391.3,91.6,391.3,90.6z"/>
		<path d="M396.3,101.9c0-0.3,0.2-0.8,0.5-0.9c0.3-0.3,0.6-0.5,0.9-0.5c0.5,0,0.8,0.2,0.9,0.5c0.3,0.3,0.5,0.6,0.5,0.9
			s-0.2,0.6-0.5,0.9s-0.6,0.5-0.9,0.5c-0.5,0-0.8-0.2-0.9-0.5C396.5,102.5,396.3,102.2,396.3,101.9z"/>
		<path d="M401.3,95c0-3,0.5-5.2,1.4-6.7c0.9-1.6,2.3-2.3,4.2-2.3c3.6,0,5.3,2.8,5.3,8.6c0,2.8-0.5,5-1.6,6.4
			c-0.9,1.6-2.3,2.2-4.2,2.2c-1.7,0-3-0.8-3.9-2.2C401.7,99.5,401.3,97.7,401.3,95z M403.5,94.8c0,4.4,1.1,6.7,3.4,6.7
			c2.2,0,3.3-2.2,3.3-6.7c0-4.7-1.1-7-3.3-7C404.6,87.8,403.5,90.1,403.5,94.8z"/>
		<path d="M414.3,90.5c0-1.4,0.3-2.5,1.1-3.3c0.8-0.8,1.7-1.3,3-1.3s2.2,0.3,2.8,1.1s0.9,1.7,0.9,3.1c0,1.3-0.3,2.3-1.1,3.1
			s-1.7,1.3-3,1.3c-1.1,0-2-0.3-2.8-1.1C414.6,92.8,414.3,91.7,414.3,90.5z M415.9,90.5c0,0.9,0.2,1.7,0.6,2.2
			c0.5,0.5,0.9,0.8,1.7,0.8c0.8,0,1.3-0.3,1.7-0.8c0.5-0.5,0.6-1.3,0.6-2.2c0-0.9-0.2-1.7-0.6-2.2c-0.3-0.5-0.9-0.8-1.6-0.8
			c-0.8,0-1.3,0.3-1.7,0.8C416.2,88.7,415.9,89.4,415.9,90.5z M429.4,86.2l-10.8,16.9h-1.7l10.8-16.9H429.4z M424.4,99.1
			c0-1.4,0.3-2.5,1.1-3.3c0.8-0.8,1.7-1.3,3-1.3s2,0.3,2.8,1.1c0.6,0.8,0.9,1.7,0.9,3.1c0,1.3-0.3,2.3-1.1,3.1
			c-0.8,0.8-1.7,1.3-3,1.3c-1.1,0-2-0.3-2.8-1.1C424.7,101.3,424.4,100.3,424.4,99.1z M425.9,98.9c0,0.9,0.2,1.6,0.6,2.2
			c0.5,0.5,0.9,0.8,1.7,0.8c0.8,0,1.3-0.3,1.7-0.8c0.5-0.5,0.6-1.3,0.6-2.2c0-0.9-0.2-1.7-0.6-2.2c-0.5-0.5-0.9-0.8-1.6-0.8
			c-0.8,0-1.3,0.3-1.7,0.8C426.1,97.3,425.9,98,425.9,98.9z"/>
	</g>
</g>
<g id="线-2">
	<rect id="矩形_863_拷贝_2-2" x="442.5" y="343.2" class="st1" width="213.3" height="2"/>
	<rect id="矩形_863_拷贝_3-2" x="442.5" y="291.9" class="st1" width="213.3" height="2"/>
	<rect id="矩形_863_拷贝_4-2" x="442.5" y="240.6" class="st1" width="213.3" height="2"/>
	<rect id="矩形_863_拷贝_5-4" x="442.5" y="190.4" class="st1" width="213.3" height="2"/>
	<rect id="矩形_863_拷贝_5-5" x="442.5" y="139.2" class="st1" width="213.3" height="2"/>
	<rect id="矩形_863_拷贝_5-6" x="442.5" y="87.8" class="st1" width="213.3" height="2"/>
	<rect id="矩形_863-2" x="442.5" y="84.8" class="st2" width="2" height="313.7"/>
</g>
<rect id="矩形_864-2" x="473.8" y="253.6" class="st3" width="46.2" height="142.8"/>
<rect id="矩形_864_拷贝-2" x="520.2" y="261.8" class="st4" width="46.2" height="134.7"/>
<rect id="矩形_864_拷贝_2-2" x="566.4" y="305" class="st5" width="46.2" height="91.5"/>
<rect id="矩形_863_拷贝-2" x="442.5" y="396.5" class="st2" width="213.3" height="2"/>
<g id="_3">
	<g id="_2.0_3" class="st0">
		<path d="M97.6,747.2c0-0.9-0.3-1.6-0.8-2.2c-0.6-0.5-1.4-0.8-2.4-0.8c-0.6,0-1.4,0.2-2,0.5c-0.8,0.3-1.4,0.8-2,1.6v-2
			c0.5-0.6,1.1-0.9,1.9-1.3c0.6-0.3,1.6-0.5,2.5-0.5c1.6,0,2.7,0.5,3.6,1.3s1.4,1.9,1.4,3.3c0,1.3-0.3,2.4-0.8,3.1
			c-0.6,0.9-1.6,1.9-3,2.8s-2.4,1.7-2.8,2c-0.5,0.5-0.8,0.8-0.9,1.3c-0.2,0.3-0.3,0.8-0.3,1.4h8.3v1.9H89.8v-0.8
			c0-0.9,0.2-1.7,0.5-2.5c0.3-0.6,0.6-1.3,1.3-2c0.6-0.6,1.6-1.4,2.8-2.4c1.3-0.9,2.2-1.7,2.7-2.4C97.5,748.7,97.6,748,97.6,747.2z"
			/>
		<path d="M102.7,758.3c0-0.3,0.2-0.8,0.5-0.9c0.3-0.3,0.6-0.5,0.9-0.5c0.5,0,0.8,0.2,0.9,0.5c0.3,0.3,0.5,0.6,0.5,0.9
			c0,0.3-0.2,0.6-0.5,0.9c-0.3,0.3-0.6,0.5-0.9,0.5c-0.5,0-0.8-0.2-0.9-0.5C102.8,759.1,102.7,758.8,102.7,758.3z"/>
		<path d="M107.7,751.4c0-3,0.5-5.2,1.4-6.7c0.9-1.6,2.4-2.4,4.2-2.4c3.6,0,5.3,2.8,5.3,8.6c0,2.8-0.5,5-1.6,6.4
			c-0.9,1.6-2.4,2.2-4.2,2.2c-1.7,0-3-0.8-3.9-2.2C108.1,756.3,107.7,754.2,107.7,751.4z M109.9,751.4c0,4.4,1.1,6.7,3.4,6.7
			c2.2,0,3.3-2.2,3.3-6.7c0-4.7-1.1-7.1-3.3-7.1C111.1,744.2,109.9,746.5,109.9,751.4z"/>
		<path d="M120.7,747c0-1.4,0.3-2.5,1.1-3.3c0.8-0.8,1.7-1.3,3-1.3s2.2,0.3,2.8,1.1c0.6,0.8,0.9,1.7,0.9,3.1c0,1.3-0.3,2.4-1.1,3.1
			c-0.8,0.8-1.7,1.3-3,1.3c-1.1,0-2-0.3-2.8-1.1C121,749.2,120.7,748.3,120.7,747z M122.4,746.9c0,0.9,0.2,1.7,0.6,2.2
			c0.5,0.5,0.9,0.8,1.7,0.8c0.8,0,1.3-0.3,1.7-0.8c0.5-0.5,0.6-1.3,0.6-2.2s-0.2-1.7-0.6-2.2c-0.3-0.5-0.9-0.8-1.6-0.8
			c-0.8,0-1.3,0.3-1.7,0.8C122.6,745.1,122.4,745.9,122.4,746.9z M135.9,742.8l-10.8,16.9h-1.9l10.8-16.9H135.9z M130.7,755.6
			c0-1.4,0.3-2.5,1.1-3.3s1.7-1.3,3-1.3s2,0.3,2.8,1.1c0.6,0.8,0.9,1.7,0.9,3.1c0,1.3-0.3,2.4-1.1,3.1s-1.7,1.3-3,1.3
			c-1.1,0-2-0.3-2.8-1.1C131,757.8,130.7,756.7,130.7,755.6z M132.4,755.5c0,0.9,0.2,1.6,0.6,2.2c0.5,0.5,0.9,0.8,1.7,0.8
			s1.3-0.3,1.7-0.8c0.5-0.5,0.6-1.3,0.6-2.2s-0.2-1.7-0.6-2.2c-0.5-0.5-0.9-0.8-1.6-0.8c-0.8,0-1.3,0.3-1.7,0.8
			C132.6,753.8,132.4,754.5,132.4,755.5z"/>
	</g>
	<g id="_4.0_3" class="st0">
		<path d="M98.4,699.5v11.1h2.5v1.7h-2.5v3.9h-2v-3.9h-7.8v-1.7c1.4-1.6,2.8-3.3,4.2-5.3c1.4-2,2.5-3.9,3.4-5.8H98.4L98.4,699.5z
			 M91.1,710.5h5.5v-8c-0.8,1.4-1.6,2.7-2.4,3.9C93.2,707.7,92.1,709.1,91.1,710.5z"/>
		<path d="M102.7,715c0-0.3,0.2-0.8,0.5-0.9c0.3-0.3,0.6-0.5,0.9-0.5c0.5,0,0.8,0.2,0.9,0.5c0.3,0.3,0.5,0.6,0.5,0.9
			c0,0.3-0.2,0.6-0.5,0.9c-0.3,0.3-0.6,0.5-0.9,0.5c-0.5,0-0.8-0.2-0.9-0.5C102.8,715.8,102.7,715.5,102.7,715z"/>
		<path d="M107.7,708.1c0-3,0.5-5.2,1.4-6.7c0.9-1.6,2.4-2.4,4.2-2.4c3.6,0,5.3,2.8,5.3,8.6c0,2.8-0.5,5-1.6,6.4
			c-0.9,1.6-2.4,2.2-4.2,2.2c-1.7,0-3-0.8-3.9-2.2C108.1,713,107.7,711,107.7,708.1z M109.9,708.1c0,4.4,1.1,6.7,3.4,6.7
			c2.2,0,3.3-2.2,3.3-6.7c0-4.7-1.1-7.1-3.3-7.1C111.1,700.9,109.9,703.3,109.9,708.1z"/>
		<path d="M120.7,703.7c0-1.4,0.3-2.5,1.1-3.3c0.8-0.8,1.7-1.3,3-1.3s2.2,0.3,2.8,1.1c0.6,0.8,0.9,1.7,0.9,3.1
			c0,1.3-0.3,2.4-1.1,3.1c-0.8,0.8-1.7,1.3-3,1.3c-1.1,0-2-0.3-2.8-1.1C121,705.9,120.7,705,120.7,703.7z M122.4,703.6
			c0,0.9,0.2,1.7,0.6,2.2s0.9,0.8,1.7,0.8c0.8,0,1.3-0.3,1.7-0.8c0.5-0.5,0.6-1.3,0.6-2.2s-0.2-1.7-0.6-2.2
			c-0.3-0.5-0.9-0.8-1.6-0.8c-0.8,0-1.3,0.3-1.7,0.8C122.6,701.9,122.4,702.7,122.4,703.6z M135.9,699.5l-10.8,16.9h-1.9l10.8-16.9
			H135.9z M130.7,712.4c0-1.4,0.3-2.5,1.1-3.3s1.7-1.3,3-1.3s2,0.3,2.8,1.1c0.6,0.8,0.9,1.7,0.9,3.1c0,1.3-0.3,2.4-1.1,3.1
			s-1.7,1.3-3,1.3c-1.1,0-2-0.3-2.8-1.1C131,714.6,130.7,713.5,130.7,712.4z M132.4,712.2c0,0.9,0.2,1.6,0.6,2.2
			c0.5,0.5,0.9,0.8,1.7,0.8s1.3-0.3,1.7-0.8c0.5-0.5,0.6-1.3,0.6-2.2s-0.2-1.7-0.6-2.2c-0.5-0.5-0.9-0.8-1.6-0.8
			c-0.8,0-1.3,0.3-1.7,0.8C132.6,710.5,132.4,711.3,132.4,712.2z"/>
	</g>
	<g id="_6.0_3" class="st0">
		<path d="M99.5,654.4c-0.9-0.5-1.7-0.6-2.7-0.6c-1.4,0-2.7,0.6-3.4,1.9c-0.9,1.3-1.3,3-1.4,5.2l0,0c0.8-1.6,2-2.4,3.8-2.4
			c1.4,0,2.7,0.5,3.4,1.4c0.9,0.9,1.3,2.2,1.3,3.8s-0.5,3-1.6,4.1c-0.9,1.1-2.2,1.6-3.8,1.6c-1.7,0-3-0.6-4.1-2
			c-0.9-1.3-1.4-3.3-1.4-5.6c0-3,0.6-5.3,1.9-7.1c1.3-1.7,3-2.7,5-2.7c1.3,0,2.2,0.2,2.8,0.5v2h0.2
			C99.5,654.5,99.5,654.4,99.5,654.4z M92,663.5c0,1.1,0.3,2,0.9,2.8s1.4,1.3,2.4,1.3s1.7-0.3,2.2-0.9c0.6-0.6,0.9-1.6,0.9-2.7
			c0-1.1-0.3-2-0.8-2.7c-0.5-0.6-1.3-0.9-2.4-0.9c-0.9,0-1.7,0.3-2.4,0.9C92.3,661.9,92,662.5,92,663.5z"/>
		<path d="M102.7,667.8c0-0.3,0.2-0.8,0.5-0.9c0.3-0.3,0.6-0.5,0.9-0.5c0.5,0,0.8,0.2,0.9,0.5c0.3,0.3,0.5,0.6,0.5,0.9
			c0,0.3-0.2,0.6-0.5,0.9c-0.3,0.3-0.6,0.5-0.9,0.5c-0.5,0-0.8-0.2-0.9-0.5C102.8,668.5,102.7,668.2,102.7,667.8z"/>
		<path d="M107.7,660.9c0-3,0.5-5.2,1.4-6.7c0.9-1.6,2.4-2.4,4.2-2.4c3.6,0,5.3,2.8,5.3,8.6c0,2.8-0.5,5-1.6,6.4
			c-0.9,1.6-2.4,2.2-4.2,2.2c-1.7,0-3-0.8-3.9-2.2C108.1,665.7,107.7,663.6,107.7,660.9z M109.9,660.8c0,4.4,1.1,6.7,3.4,6.7
			c2.2,0,3.3-2.2,3.3-6.7c0-4.7-1.1-7.1-3.3-7.1S109.9,656.1,109.9,660.8z"/>
		<path d="M120.7,656.4c0-1.4,0.3-2.5,1.1-3.3c0.8-0.8,1.7-1.3,3-1.3s2.2,0.3,2.8,1.1c0.6,0.8,0.9,1.7,0.9,3.1
			c0,1.3-0.3,2.4-1.1,3.1s-1.7,1.3-3,1.3c-1.1,0-2-0.3-2.8-1.1C121,658.8,120.7,657.7,120.7,656.4z M122.4,656.2
			c0,0.9,0.2,1.7,0.6,2.2s0.9,0.8,1.7,0.8c0.8,0,1.3-0.3,1.7-0.8c0.5-0.5,0.6-1.3,0.6-2.2s-0.2-1.7-0.6-2.2
			c-0.3-0.5-0.9-0.8-1.6-0.8c-0.8,0-1.3,0.3-1.7,0.8C122.6,654.7,122.4,655.3,122.4,656.2z M135.9,652.2l-10.8,16.9h-1.9l10.8-16.9
			H135.9z M130.7,665c0-1.4,0.3-2.5,1.1-3.3s1.7-1.3,3-1.3s2,0.3,2.8,1.1c0.6,0.8,0.9,1.7,0.9,3.1c0,1.3-0.3,2.4-1.1,3.1
			s-1.7,1.3-3,1.3c-1.1,0-2-0.3-2.8-1.1C131,667.2,130.7,666.3,130.7,665z M132.4,664.9c0,0.9,0.2,1.6,0.6,2.2
			c0.5,0.5,0.9,0.8,1.7,0.8s1.3-0.3,1.7-0.8c0.5-0.5,0.6-1.3,0.6-2.2s-0.2-1.7-0.6-2.2c-0.5-0.5-0.9-0.8-1.6-0.8
			c-0.8,0-1.3,0.3-1.7,0.8C132.6,663.3,132.4,663.9,132.4,664.9z"/>
	</g>
	<g id="_8.0_3" class="st0">
		<path d="M89.5,613c0-0.9,0.3-1.9,0.9-2.7s1.3-1.4,2.2-1.7c-0.8-0.5-1.3-0.9-1.7-1.6c-0.5-0.6-0.6-1.4-0.6-2c0-0.8,0.2-1.6,0.6-2.2
			c0.5-0.6,0.9-1.1,1.7-1.6c0.8-0.5,1.6-0.6,2.4-0.6c0.9,0,1.7,0.2,2.4,0.6c0.8,0.3,1.3,0.9,1.7,1.6c0.5,0.6,0.6,1.4,0.6,2.2
			s-0.2,1.4-0.6,2c-0.5,0.6-0.9,1.3-1.7,1.6c0.9,0.3,1.7,0.9,2.2,1.7c0.6,0.8,0.8,1.7,0.8,2.7s-0.2,1.9-0.6,2.5
			c-0.5,0.8-1.1,1.4-1.9,1.7c-0.8,0.5-1.7,0.6-2.8,0.6c-1.1,0-2-0.2-2.8-0.6c-0.8-0.5-1.4-0.9-1.9-1.7
			C89.8,614.7,89.5,613.9,89.5,613z M91.5,612.8c0,0.9,0.3,1.7,0.9,2.4c0.6,0.6,1.4,0.9,2.5,0.9c0.9,0,1.9-0.3,2.5-0.9
			c0.6-0.6,0.9-1.4,0.9-2.4s-0.3-1.7-0.9-2.4c-0.6-0.6-1.4-0.9-2.4-0.9s-1.7,0.3-2.4,0.9C91.8,611.1,91.5,611.9,91.5,612.8z
			 M92.1,605c0,0.8,0.3,1.4,0.8,1.9s1.3,0.8,1.9,0.8c0.8,0,1.4-0.3,2-0.8s0.8-1.3,0.8-1.9c0-0.8-0.3-1.4-0.8-1.9s-1.3-0.8-2-0.8
			s-1.4,0.3-2,0.8C92.5,603.6,92.1,604.2,92.1,605z"/>
		<path d="M102.7,616.4c0-0.3,0.2-0.8,0.5-0.9c0.3-0.2,0.6-0.5,0.9-0.5c0.5,0,0.8,0.2,0.9,0.5c0.3,0.3,0.5,0.6,0.5,0.9
			s-0.2,0.6-0.5,0.9c-0.3,0.3-0.6,0.5-0.9,0.5c-0.5,0-0.8-0.2-0.9-0.5C102.8,617.2,102.7,616.9,102.7,616.4z"/>
		<path d="M107.7,609.5c0-3,0.5-5.2,1.4-6.7c0.9-1.6,2.4-2.4,4.2-2.4c3.6,0,5.3,2.8,5.3,8.6c0,2.8-0.5,5-1.6,6.4
			c-0.9,1.6-2.4,2.2-4.2,2.2c-1.7,0-3-0.8-3.9-2.2C108.1,614.4,107.7,612.2,107.7,609.5z M109.9,609.5c0,4.4,1.1,6.7,3.4,6.7
			c2.2,0,3.3-2.2,3.3-6.7c0-4.7-1.1-7.1-3.3-7.1C111.1,602.3,109.9,604.7,109.9,609.5z"/>
		<path d="M120.7,605.1c0-1.4,0.3-2.5,1.1-3.3c0.8-0.8,1.7-1.3,3-1.3s2.2,0.3,2.8,1.1c0.6,0.8,0.9,1.7,0.9,3.1
			c0,1.3-0.3,2.4-1.1,3.1s-1.7,1.3-3,1.3c-1.1,0-2-0.3-2.8-1.1C121,607.3,120.7,606.4,120.7,605.1z M122.4,605
			c0,0.9,0.2,1.7,0.6,2.2s0.9,0.8,1.7,0.8c0.8,0,1.3-0.3,1.7-0.8c0.5-0.5,0.6-1.3,0.6-2.2s-0.2-1.7-0.6-2.2
			c-0.3-0.5-0.9-0.8-1.6-0.8c-0.8,0-1.3,0.3-1.7,0.8C122.6,603.3,122.4,604,122.4,605z M135.9,600.9l-10.8,16.9h-1.9l10.8-16.9
			H135.9z M130.7,613.6c0-1.4,0.3-2.5,1.1-3.3s1.7-1.3,3-1.3s2,0.3,2.8,1.1c0.6,0.8,0.9,1.7,0.9,3.1c0,1.3-0.3,2.4-1.1,3.1
			s-1.7,1.3-3,1.3c-1.1,0-2-0.3-2.8-1.1C131,616,130.7,614.9,130.7,613.6z M132.4,613.6c0,0.9,0.2,1.6,0.6,2.2
			c0.5,0.5,0.9,0.8,1.7,0.8s1.3-0.3,1.7-0.8c0.5-0.5,0.6-1.3,0.6-2.2s-0.2-1.7-0.6-2.2c-0.5-0.5-0.9-0.8-1.6-0.8
			c-0.8,0-1.3,0.3-1.7,0.8C132.6,611.9,132.4,612.7,132.4,613.6z"/>
	</g>
	<g id="_10.0_3" class="st0">
		<path d="M83.1,566.3V552c-0.3,0.3-0.9,0.6-1.7,1.1c-0.8,0.5-1.6,0.6-2.2,0.9v-2.2c0.9-0.3,1.9-0.6,2.8-1.1s1.7-1.1,2.4-1.6h0.8
			v17.1L83.1,566.3L83.1,566.3z"/>
		<path d="M90.9,558.3c0-3,0.5-5.2,1.4-6.7c0.9-1.6,2.4-2.4,4.2-2.4c3.6,0,5.3,2.8,5.3,8.6c0,2.8-0.5,5-1.6,6.4
			c-0.9,1.6-2.4,2.2-4.2,2.2c-1.7,0-3-0.8-3.9-2.2C91.2,562.8,90.9,560.9,90.9,558.3z M93.1,558.1c0,4.4,1.1,6.7,3.4,6.7
			c2.2,0,3.3-2.2,3.3-6.7c0-4.7-1.1-7.1-3.3-7.1C94.2,551,93.1,553.4,93.1,558.1z"/>
		<path d="M104.2,565.2c0-0.3,0.2-0.8,0.5-0.9c0.3-0.3,0.6-0.5,0.9-0.5c0.5,0,0.8,0.2,0.9,0.5c0.3,0.3,0.5,0.6,0.5,0.9
			s-0.2,0.6-0.5,0.9c-0.3,0.3-0.6,0.5-0.9,0.5c-0.5,0-0.8-0.2-0.9-0.5C104.4,565.8,104.2,565.5,104.2,565.2z"/>
		<path d="M109.2,558.3c0-3,0.5-5.2,1.4-6.7c0.9-1.6,2.4-2.4,4.2-2.4c3.6,0,5.3,2.8,5.3,8.6c0,2.8-0.5,5-1.6,6.4
			c-0.9,1.6-2.4,2.2-4.2,2.2c-1.7,0-3-0.8-3.9-2.2C109.7,563,109.2,560.9,109.2,558.3z M111.3,558.1c0,4.4,1.1,6.7,3.4,6.7
			c2.2,0,3.3-2.2,3.3-6.7c0-4.7-1.1-7.1-3.3-7.1S111.3,553.4,111.3,558.1z"/>
		<path d="M122.1,553.7c0-1.4,0.3-2.5,1.1-3.3c0.8-0.8,1.7-1.3,3-1.3s2.2,0.3,2.8,1.1s0.9,1.7,0.9,3.1c0,1.3-0.3,2.4-1.1,3.1
			s-1.7,1.3-3,1.3c-1.1,0-2-0.3-2.8-1.1C122.2,555.9,122.1,555,122.1,553.7z M123.8,553.7c0,0.9,0.2,1.7,0.6,2.2s0.9,0.8,1.7,0.8
			c0.8,0,1.3-0.3,1.7-0.8c0.5-0.5,0.6-1.3,0.6-2.2s-0.2-1.7-0.6-2.2c-0.3-0.5-0.9-0.8-1.6-0.8c-0.8,0-1.3,0.3-1.7,0.8
			C124,552,123.8,552.8,123.8,553.7z M137.3,549.5l-10.8,16.9h-1.9l10.8-16.9H137.3z M132.1,562.3c0-1.4,0.3-2.5,1.1-3.3
			s1.7-1.3,3-1.3s2,0.3,2.8,1.1c0.6,0.8,0.9,1.7,0.9,3.1c0,1.3-0.3,2.4-1.1,3.1s-1.7,1.3-3,1.3c-1.1,0-2-0.3-2.8-1.1
			C132.4,564.5,132.1,563.6,132.1,562.3z M133.9,562.2c0,0.9,0.2,1.6,0.6,2.2c0.5,0.5,0.9,0.8,1.7,0.8s1.3-0.3,1.7-0.8
			c0.5-0.5,0.6-1.3,0.6-2.2s-0.2-1.7-0.6-2.2c-0.5-0.5-0.9-0.8-1.6-0.8c-0.8,0-1.3,0.3-1.7,0.8C134,560.6,133.9,561.2,133.9,562.2z"
			/>
	</g>
	<g id="_12.0_3" class="st0">
		<path d="M83.1,518v-14.3c-0.3,0.3-0.9,0.6-1.7,1.1c-0.8,0.5-1.6,0.6-2.2,0.9v-2c0.9-0.3,1.9-0.6,2.8-1.1s1.7-1.1,2.4-1.6h0.8v17.1
			L83.1,518L83.1,518z"/>
		<path d="M99,505.6c0-0.9-0.3-1.6-0.8-2.2c-0.6-0.5-1.4-0.8-2.4-0.8c-0.6,0-1.4,0.2-2,0.5c-0.8,0.3-1.4,0.8-2,1.6v-2
			c0.5-0.6,1.1-0.9,1.9-1.3c0.6-0.3,1.6-0.5,2.5-0.5c1.6,0,2.7,0.5,3.6,1.3s1.4,1.9,1.4,3.3c0,1.3-0.3,2.4-0.8,3.1
			c-0.6,0.9-1.6,1.9-3,2.8s-2.4,1.7-2.8,2c-0.5,0.5-0.8,0.8-0.9,1.3c-0.2,0.3-0.3,0.8-0.3,1.4h8.3v1.9H91.2v-0.8
			c0-0.9,0.2-1.7,0.5-2.5c0.3-0.6,0.6-1.3,1.3-2c0.6-0.6,1.6-1.4,2.8-2.4c1.3-0.9,2.2-1.7,2.7-2.4C98.9,507.3,99,506.5,99,505.6z"/>
		<path d="M104.2,516.9c0-0.3,0.2-0.8,0.5-0.9c0.3-0.3,0.6-0.5,0.9-0.5c0.5,0,0.8,0.2,0.9,0.5c0.3,0.3,0.5,0.6,0.5,0.9
			c0,0.3-0.2,0.6-0.5,0.9c-0.3,0.3-0.6,0.5-0.9,0.5c-0.5,0-0.8-0.2-0.9-0.5C104.4,517.5,104.2,517.2,104.2,516.9z"/>
		<path d="M109.2,510c0-3,0.5-5.2,1.4-6.7c0.9-1.6,2.4-2.4,4.2-2.4c3.6,0,5.3,2.8,5.3,8.6c0,2.8-0.5,5-1.6,6.4
			c-0.9,1.6-2.4,2.2-4.2,2.2c-1.7,0-3-0.8-3.9-2.2C109.7,514.7,109.2,512.6,109.2,510z M111.3,509.8c0,4.4,1.1,6.7,3.4,6.7
			c2.2,0,3.3-2.2,3.3-6.7c0-4.7-1.1-7.1-3.3-7.1C112.5,502.8,111.3,505.1,111.3,509.8z"/>
		<path d="M122.1,505.4c0-1.4,0.3-2.5,1.1-3.3c0.8-0.8,1.7-1.3,3-1.3s2.2,0.3,2.8,1.1c0.6,0.8,0.9,1.7,0.9,3.1
			c0,1.3-0.3,2.4-1.1,3.1c-0.8,0.8-1.7,1.3-3,1.3c-1.1,0-2-0.3-2.8-1.1C122.2,507.6,122.1,506.7,122.1,505.4z M123.8,505.3
			c0,0.9,0.2,1.7,0.6,2.2s0.9,0.8,1.7,0.8c0.8,0,1.3-0.3,1.7-0.8c0.5-0.5,0.6-1.3,0.6-2.2s-0.2-1.7-0.6-2.2
			c-0.3-0.5-0.9-0.8-1.6-0.8c-0.8,0-1.3,0.3-1.7,0.8C124,503.7,123.8,504.3,123.8,505.3z M137.3,501.2l-10.8,16.9h-1.9l10.8-16.9
			L137.3,501.2L137.3,501.2z M132.1,514c0-1.4,0.3-2.5,1.1-3.3s1.7-1.3,3-1.3s2,0.3,2.8,1.1c0.6,0.8,0.9,1.7,0.9,3.1
			c0,1.3-0.3,2.4-1.1,3.1c-0.8,0.8-1.7,1.3-3,1.3c-1.1,0-2-0.3-2.8-1.1C132.4,516.2,132.1,515.3,132.1,514z M133.9,513.9
			c0,0.9,0.2,1.6,0.6,2.2c0.5,0.5,0.9,0.8,1.7,0.8s1.3-0.3,1.7-0.8c0.5-0.5,0.6-1.3,0.6-2.2s-0.2-1.7-0.6-2.2
			c-0.5-0.5-0.9-0.8-1.6-0.8c-0.8,0-1.3,0.3-1.7,0.8C134,512.3,133.9,513,133.9,513.9z"/>
	</g>
</g>
<g id="线-3">
	<rect id="矩形_863_拷贝_2-3" x="150.5" y="758.3" class="st1" width="213.5" height="2"/>
	<rect id="矩形_863_拷贝_3-3" x="150.5" y="707" class="st1" width="213.5" height="2"/>
	<rect id="矩形_863_拷贝_4-3" x="150.5" y="655.8" class="st1" width="213.5" height="2"/>
	<rect id="矩形_863_拷贝_5-7" x="150.5" y="605.4" class="st1" width="213.5" height="2"/>
	<rect id="矩形_863_拷贝_5-8" x="150.5" y="554.2" class="st1" width="213.5" height="2"/>
	<rect id="矩形_863_拷贝_5-9" x="150.5" y="502.8" class="st1" width="213.5" height="2"/>
	<rect id="矩形_863-3" x="150.5" y="499.8" class="st2" width="2" height="314"/>
</g>
<rect id="矩形_864-3" x="181.8" y="579.3" class="st3" width="46.2" height="232.5"/>
<rect id="矩形_864_拷贝-3" x="228.1" y="626.6" class="st4" width="46.2" height="185.2"/>
<rect id="矩形_864_拷贝_2-3" x="274.5" y="677.9" class="st5" width="46.2" height="133.9"/>
<rect id="矩形_863_拷贝-3" x="150.5" y="811.8" class="st2" width="213.5" height="2"/>
<rect id="矩形_865" x="470" y="632" class="st3" width="36.5" height="35.9"/>
<rect id="矩形_865_拷贝" x="470" y="694.3" class="st4" width="36.5" height="35.9"/>
<rect id="矩形_865_拷贝_2" x="470" y="756.3" class="st5" width="36.5" height="35.9"/>
<g>
	<path d="M71,28.5l1.9,0.6c-0.2,0.8-0.6,1.5-1.1,2.1h13v1.7c-1.7,2.1-3.8,3.8-6.3,5.3c2.7,1.3,6.1,1.9,9.9,2.1
		c-0.4,0.8-1.1,1.5-1.3,2.1c-4.2-0.4-7.8-1.5-10.5-2.9c-3.4,1.5-7.1,2.7-11.4,3.6c-0.4-0.6-0.8-1.3-1.1-1.7c4-0.6,7.4-1.7,10.3-3.2
		c-1.7-1.3-3.4-2.7-4.4-4.4c-1.3,1.5-2.5,2.9-4,4.2c-0.4-0.6-0.8-1.1-1.3-1.5C67.7,34.2,69.8,31.7,71,28.5z M68.3,42.8h16.2v9.5
		h-1.7v-1.5H70.2v1.5h-1.9V42.8z M82.8,44.5H70.2v4.6h12.6V44.5z M82.4,32.9H71.7c1.3,1.7,2.9,3.2,5,4.4
		C78.8,36.1,80.7,34.6,82.4,32.9z"/>
	<path d="M97.5,48.7l0.8,1.5c-2.5,0.8-5.3,1.5-8.2,2.1c-0.2-0.6-0.6-1.1-0.8-1.5C92,50.2,94.8,49.5,97.5,48.7z M95.4,33.1
		c0.2,0.6,0.6,1.1,0.8,1.5c-2.5,1.7-4.4,2.9-5.9,4l-1.1-1.5C91.6,35.9,93.5,34.6,95.4,33.1z M91.6,28.9c1.5,0.8,2.7,1.7,4,2.3
		l-1.3,1.3c-1.1-0.8-2.3-1.7-3.8-2.5L91.6,28.9z M92,38.8h17.4v10.1h-1.9v-0.6H93.7v0.6h-1.9V38.8H92z M107.8,40.1H93.9v1.5h13.9
		V40.1z M93.9,44.3h13.9v-1.5H93.9C93.9,42.8,93.9,44.3,93.9,44.3z M93.9,46.8h13.9v-1.5H93.9C93.9,45.3,93.9,46.8,93.9,46.8z
		 M95.6,36.9c4.4-0.8,7.1-2.5,7.8-5.3h-3.6c-0.6,1.3-1.3,2.3-2.3,3.4c-0.4-0.2-1.1-0.6-1.7-0.8c1.5-1.5,2.5-3.4,3.4-5.5h1.7
		c-0.2,0.6-0.4,1.1-0.6,1.5h10.9v1.3l-1.7,2.9c-0.6-0.2-1.1-0.4-1.7-0.6l1.3-2.1h-4.4c0,0.4-0.2,0.8-0.2,1.1c1.5,2.1,4,3.4,7.6,4
		c-0.4,0.4-0.8,1.1-1.1,1.7c-2.9-0.4-5.5-1.9-6.9-4c-1.3,2.1-3.8,3.4-7.1,4.2C96.5,38,96,37.6,95.6,36.9z M102.8,50.2l0.8-1.3
		c2.7,0.6,5.5,1.3,8.4,1.9l-0.6,1.5C107.8,51.4,105.1,50.6,102.8,50.2z"/>
	<path d="M126.3,39h1.9v1.9h7.6v1.7h-7.6v2.7h6.5V47h-6.5v2.7h8.4v1.7h-18.9v-1.7h8.6v-2.5h-5.7v-1.9h5.7v-2.7h-5.3
		c-0.8,1.5-1.9,2.7-2.7,4c-0.2-0.4-0.6-0.8-1.3-1.3c-0.4,2.9-1.3,5.5-2.7,7.1c-0.4-0.6-0.8-1.3-1.3-1.7c1.5-1.9,2.3-4.8,2.3-9v-5.3
		h6.5c-0.4-0.8-1.1-1.7-1.9-2.7l1.5-0.8h-6.1v-1.7h10.3c-0.2-0.4-0.6-1.1-0.8-1.7l1.7-0.8c0.4,0.8,0.8,1.7,1.3,2.5h8.6v1.7h-5
		l1.7,0.8c-0.6,0.8-1.3,1.7-1.9,2.7h5.5v1.7h-19.3v3.6c0,1.3,0,2.3-0.2,3.4c1.5-1.9,2.9-4,4-6.3l1.9,0.8c-0.2,0.4-0.4,1.1-0.8,1.5
		h4.2V39z M123.8,35.9l-1.3,0.6h6.5c0.8-1.3,1.7-2.3,2.3-3.4h-9.5C122.5,34,123.2,34.8,123.8,35.9z"/>
	<path d="M137.7,38.6c3.4-2.3,6.1-5.5,8.4-9.5l1.7,0.8c-2.3,4.2-5.3,7.6-8.6,10.1C138.7,39.7,138.1,39,137.7,38.6z M140.8,39.2h15.8
		c0,2.7-0.2,5.3-0.4,8c-0.2,2.9-1.7,4.4-4.2,4.4c-1.3,0-2.7,0-4-0.2c0-0.6-0.2-1.3-0.4-2.1c1.3,0.2,2.5,0.2,4.2,0.2s2.5-0.8,2.5-2.7
		c0.2-1.7,0.2-3.8,0.2-5.9h-7.4c-0.2,2.7-0.8,4.8-1.7,6.5c-1.3,2.1-3.2,3.8-6.1,4.8c-0.4-0.6-0.8-1.1-1.3-1.7
		c2.7-1.1,4.6-2.3,5.7-4.2c0.8-1.5,1.3-3.2,1.5-5.5h-4.6v-1.7H140.8z M150.7,29.4l1.7-0.6c1.7,4.2,4.8,7.4,9.3,9.5
		c-0.6,0.8-1.3,1.3-1.5,1.9C155.7,37.6,152.6,34,150.7,29.4z"/>
	<path d="M162.5,34.4h4.6v-5.3h1.7v5.3h4.6v1.5h-4.6v1.5l0.6-0.8c1.3,0.8,2.7,1.7,4,2.7l-1.1,1.5c-1.3-1.1-2.3-1.9-3.6-2.5v2.5h-1.7
		v-3.4c-1.3,1.5-2.5,2.9-4.2,4.2c-0.2-0.4-0.6-1.1-0.8-1.5c1.7-1.1,3.4-2.5,4.6-4h-4.2V34.4z M162.5,43.7h4.6c0-0.6,0-1.3,0-2.1h1.7
		c0,0.8,0,1.5,0,2.1h2.7c-0.4-0.4-0.8-1.3-1.5-2.1l1.3-0.8c0.6,0.8,1.3,1.5,1.5,1.9l-1.3,0.8h2.1v1.5h-4.8c0,0.4-0.2,0.6-0.2,1.1
		c1.5,0.8,2.9,1.9,4.6,2.9l-1.3,1.7c-1.5-1.1-2.9-2.1-4.2-2.9c-0.8,1.7-2.3,3.2-4.8,4.4c-0.4-0.6-0.6-1.1-1.1-1.5
		c2.9-1.3,4.6-3.2,4.8-5.5h-4.4v-1.5H162.5z M162.9,30.8l1.3-0.8c0.6,0.8,1.5,1.7,2.1,2.7l-1.3,0.8L162.9,30.8z M171.7,29.8l1.5,0.8
		c-0.8,1.5-1.7,2.5-2.3,3.4c-0.4-0.2-0.8-0.6-1.3-0.8C170.5,32.1,171.1,31,171.7,29.8z M177.4,47.9l1.3,1.3
		c-1.1,0.8-2.7,1.9-4.8,3.2c-0.4-0.6-0.8-1.1-1.3-1.5C174.9,49.8,176.3,48.7,177.4,47.9z M174.7,34.2h3.6l0.4-2.3h-4.8v-1.7h12v1.5
		h-5.3l-0.6,2.3h5v13.7h-1.7V47h-6.9v0.8h-1.7C174.7,47.9,174.7,34.2,174.7,34.2z M183.3,35.7h-6.9V38h6.9V35.7z M176.3,41.8h6.9
		v-2.3h-6.9V41.8z M176.3,45.5h6.9v-2.3h-6.9V45.5z M180.6,49.1l1.1-1.3c1.3,0.8,2.7,1.7,4.2,2.9l-1.1,1.5
		C183.1,50.8,181.6,50,180.6,49.1z"/>
	<path d="M199.5,34.8c-0.4,3.6-1.1,6.3-1.9,8.6c-0.8,2.3-1.5,3.6-2.1,4.2s-1.3,0.8-2.1,0.8c-1.3,0-2.3-0.6-3.2-1.7
		c-0.8-1.1-1.3-2.7-1.3-4.6c0-2.9,1.1-5.5,3.2-7.1c2.1-1.9,4.6-2.7,7.8-2.7c2.7,0,4.8,0.8,6.5,2.5c1.5,1.7,2.3,3.6,2.3,5.9
		c0,4-2.5,7.1-7.4,9.5l-1.5-1.5c2.3-0.8,4-2.1,5.3-3.4c1.3-1.5,1.9-2.9,1.9-4.6c0-1.9-0.6-3.4-1.9-4.6c-1.3-1.3-2.9-1.9-5-1.9
		c-0.6,0-1.3,0-1.9,0.2L199.5,34.8z M197.4,34.4c-1.9,0.4-3.6,1.3-4.8,2.7c-1.3,1.5-1.9,3.2-1.9,5c0,1.3,0.2,2.3,0.8,3.2
		c0.6,0.8,1.1,1.3,1.5,1.3c0.8,0,1.7-1.1,2.5-3.4C196.3,40.9,197,38,197.4,34.4z"/>
	<path d="M211,44.3h3.8v-6.9h8.4v-4.2h-6.9c-1.1,1.9-2.3,3.8-3.6,5.3c-0.4-0.4-0.8-0.8-1.5-1.3c2.3-2.5,4-5.5,5-8.6l1.9,0.6
		c-0.4,0.8-0.6,1.5-1.1,2.3h16.4v1.7h-8.4v4.2h8V39h-8v5.3h9.5V46h-9.5v6.5h-1.9V46H211C211,46,211,44.3,211,44.3z M216.9,44.3h6.5
		V39h-6.5V44.3z"/>
	<path d="M246.6,29.4l1.7-0.8c0.6,0.8,1.1,1.9,1.7,2.9h8.8v1.7h-19.1v7.1c0,5.5-1.1,9.5-3.2,12.2c-0.4-0.4-0.8-1.1-1.3-1.7
		c1.7-2.1,2.7-5.7,2.7-10.7v-8.6h9.9C247.4,30.6,247,30,246.6,29.4z M240.9,44.5v-1.7h14.9v1.5c-1.5,1.5-3.2,2.9-5,4
		c2.3,0.8,5,1.5,8,1.9l-0.8,1.9c-3.6-0.4-6.5-1.5-9-2.5c-2.7,1.3-5.7,2.3-9,2.9c-0.2-0.4-0.6-1.1-1.1-1.7c3.2-0.4,5.9-1.3,8.2-2.3
		c-1.7-1.1-3.2-2.5-4.2-4C242.8,44.5,240.9,44.5,240.9,44.5z M240.3,35.7h3.6v-2.1h1.9v2.1h6.7v-2.1h1.9v2.1h4.4v1.5h-4.4v4.6h-1.9
		v-0.8h-6.7v0.8h-1.9v-4.6h-3.6V35.7z M253.5,44.5h-8.6c1.1,1.3,2.5,2.3,4,3.2C250.8,46.8,252.2,45.8,253.5,44.5z M245.7,39.4h6.7
		v-2.3h-6.7V39.4z"/>
	<path d="M266.1,28.9h1.9v23.3h-1.9v-7.8c-1.3,0.6-2.3,1.3-3.4,2.1c-0.4,0.2-0.8,0.6-1.3,1.1L260,46c0.4-0.6,0.8-1.3,0.8-2.1V32.1
		h1.9v12.2c1.1-0.6,2.1-1.3,3.4-1.9C266.1,42.4,266.1,28.9,266.1,28.9z M269.7,32.3v-1.7h12.2v1.7c-0.6,5.9-2.1,10.3-4.4,13.2
		c1.7,1.9,3.6,3.4,5.9,4.4c-0.6,0.6-1.1,1.3-1.5,1.9c-2.3-1.5-4.2-3.2-5.7-4.8c-1.7,1.9-4,3.6-6.7,5c-0.2-0.4-0.6-1.1-1.3-1.7
		c2.7-1.3,5-2.9,6.7-5c-2.3-2.9-3.6-7.4-3.8-13.2h-1.5V32.3z M280,32.3h-6.9c0.4,5.3,1.5,9.3,3.4,11.8
		C278.3,41.3,279.6,37.3,280,32.3z"/>
	<path d="M284.4,49.5h3.4v-8h16.8v8h3.4v1.7h-23.5V49.5z M292.8,35.9l1.3,1.5c-2.5,1.5-5.3,2.9-8.4,4.6c-0.4-0.6-0.6-1.3-1.1-1.7
		C287.6,38.8,290.3,37.3,292.8,35.9z M284.8,33.4h13c1.5-1.3,2.7-2.9,4-4.6l1.7,1.1c-1.1,1.3-2.1,2.5-3.4,3.6h6.9V35h-22.3V33.4z
		 M288.6,30l1.3-1.3c1.5,1.1,2.5,1.9,3.8,2.9l-1.3,1.5C291.1,32.1,290.1,31,288.6,30z M289.5,49.5h3.4v-6.3h-3.4V49.5z M294.5,49.5
		h3.4v-6.3h-3.4V49.5z M298.5,37.3l1.1-1.5c3.2,1.5,5.9,2.9,8.2,4.2l-1.1,1.7C303.5,39.9,300.8,38.4,298.5,37.3z M302.9,43h-3.4v6.3
		h3.4V43z"/>
	<path d="M308.8,45.3h10.9v-2.1h1.9v2.1h10.7V47h-10.7v5.5h-1.9V47h-10.9V45.3z M314.9,38.8l0.8,1.5c-1.9,1.1-3.8,2.3-5.9,3.4
		l-1.1-1.7C310.7,41.3,312.6,40.3,314.9,38.8z M318,41.3c0.2,0,2.1-0.2,5.3-0.2c-0.4-0.6-0.8-1.1-1.3-1.5l1.3-0.8
		c1.1,1.3,2.1,2.5,3.2,4l-1.5,1.1c-0.2-0.4-0.6-0.8-0.8-1.3c-2.9,0.2-5.5,0.4-7.6,0.4c-0.4,0-0.8,0-1.3,0.2l-0.6-1.7
		c0.4-0.2,0.8-0.2,1.1-0.4c1.3-0.8,2.7-1.9,4-3.2c-1.1,0-2.1,0.2-2.9,0.2c-0.4,0-0.6,0.2-1.1,0.2l-0.6-1.5c0.4-0.2,0.8-0.4,1.1-0.6
		c1.1-0.8,2.1-2.1,2.9-3.4H309v-1.7h10.7c-0.4-0.6-0.8-1.3-1.1-1.9l1.7-0.8c0.6,1.1,1.3,1.9,1.7,2.7h9.7v1.7h-12l1.1,0.6
		c-1.3,1.3-2.3,2.3-3.4,3.2c0.8,0,2.1,0,3.6,0c0.6-0.6,1.3-1.3,1.9-2.1l1.7,1.1C322.5,38,320.2,39.9,318,41.3z M309.6,35.2l1.3-1.3
		c1.3,1.1,2.5,2.1,3.4,2.9l-1.3,1.3C312.2,37.3,311.1,36.3,309.6,35.2z M326.9,38.8c2.3,1.3,4,2.3,5.3,3.4l-1.1,1.5
		c-1.7-1.3-3.4-2.5-5.3-3.6L326.9,38.8z M331.3,35.5c-1.3,1.1-2.5,2.1-4,2.9l-1.3-1.3c1.5-1.1,2.7-2.1,3.8-2.9L331.3,35.5z"/>
</g>
<g>
	<path d="M218.2,433.5c0,2.3-0.8,4-2.3,5.5c-1.5,1.5-3.6,2.1-5.9,2.1c-2.1,0-3.8-0.4-4.8-1.1v-2.9c1.5,1.1,3.2,1.5,4.6,1.5
		c1.7,0,2.9-0.4,3.8-1.3c1.1-0.8,1.5-2.1,1.5-3.6c0-1.5-0.4-2.5-1.5-3.4c-1.1-0.8-2.5-1.3-4.4-1.3c-1.5,0-2.7,0-3.8,0.2l0.8-11.6
		h10.9v2.5h-8.4l-0.4,6.5h2.1c2.5,0,4.4,0.6,5.7,1.9C217.6,429.7,218.2,431.4,218.2,433.5z"/>
	<path d="M230,434.5h4.8v-8.4h10.5v-5.3h-8.6c-1.3,2.3-2.7,4.6-4.4,6.5c-0.4-0.6-1.1-1.1-1.9-1.7c2.7-3.2,4.8-6.7,6.3-10.5l2.5,0.6
		c-0.4,1.1-0.8,1.9-1.3,2.7h20.4v2.1h-10.3v5.3h9.9v2.1h-9.9v6.3h11.8v2.1h-11.8v8h-2.3v-8h-15.1v-1.9H230z M237,434.5h8.2v-6.3H237
		V434.5z"/>
</g>
<g>
	<path d="M512.4,439.6v-17.7c-0.4,0.4-1.1,0.8-2.1,1.5c-1.1,0.4-1.9,0.8-2.7,1.1v-2.5c1.1-0.2,2.3-0.8,3.6-1.5
		c1.3-0.6,2.1-1.3,2.9-1.9h1.1v21L512.4,439.6L512.4,439.6z"/>
	<path d="M522,429.7c0-3.6,0.6-6.3,1.9-8.2c1.3-1.9,2.9-2.7,5.3-2.7c4.4,0,6.5,3.6,6.5,10.5c0,3.6-0.6,6.1-1.9,8
		c-1.3,1.9-2.9,2.7-5.3,2.7c-2.1,0-3.8-0.8-4.8-2.5C522.7,435.6,522,433.1,522,429.7z M524.8,429.5c0,5.5,1.5,8.2,4.2,8.2
		c2.7,0,4-2.7,4-8.4s-1.3-8.6-4-8.6C526,420.7,524.8,423.6,524.8,429.5z"/>
	<path d="M545.4,434.1h4.2v-7.6h9.5v-4.8h-7.8c-1.3,2.1-2.5,4.2-4,5.9c-0.4-0.4-1.1-1.1-1.7-1.5c2.5-2.7,4.4-6.1,5.7-9.5l2.1,0.6
		c-0.4,0.8-0.8,1.7-1.3,2.5h18.3v1.9h-9.3v4.8h8.8v1.9h-8.8v5.7h10.5v1.9h-10.5v7.1H559V436h-13.7L545.4,434.1L545.4,434.1z
		 M551.7,434.1h7.4v-5.7h-7.4V434.1z"/>
</g>
<g>
	<path d="M221.5,834.4c0-1.1-0.4-1.9-1.1-2.5c-0.6-0.6-1.5-0.8-2.7-0.8c-0.8,0-1.7,0.2-2.5,0.6s-1.7,1.1-2.3,1.7v-2.3
		c0.6-0.6,1.3-1.3,2.1-1.5c0.8-0.4,1.7-0.6,2.9-0.6c1.7,0,3.2,0.4,4.2,1.5c1.1,1.1,1.7,2.3,1.7,3.8c0,1.5-0.4,2.7-1.1,3.8
		c-0.6,1.1-1.9,2.1-3.4,3.2c-1.7,1.1-2.7,1.9-3.4,2.5c-0.6,0.4-0.8,1.1-1.1,1.5s-0.4,1.1-0.4,1.7h9.7v2.1h-12.2v-1.1
		c0-1.1,0.2-2.1,0.4-2.9s0.8-1.5,1.5-2.3c0.6-0.8,1.9-1.7,3.4-2.7c1.5-1.1,2.5-2.1,3.2-2.7C221.3,836.3,221.5,835.5,221.5,834.4z"/>
	<path d="M227.2,839.5c0-3.4,0.6-6.1,1.7-7.8c1.1-1.7,2.7-2.7,5-2.7c4.2,0,6.3,3.4,6.3,10.1c0,3.4-0.6,5.9-1.7,7.6
		c-1.3,1.7-2.7,2.5-4.8,2.5c-1.9,0-3.6-0.8-4.6-2.5C227.6,844.9,227.2,842.6,227.2,839.5z M229.7,839.3c0,5.3,1.3,7.8,4,7.8
		c2.5,0,3.8-2.7,3.8-8c0-5.5-1.3-8.2-3.8-8.2C231,831.1,229.7,833.8,229.7,839.3z"/>
	<path d="M249.3,843.7h4v-7.1h9v-4.6H255c-1.1,2.1-2.3,4-3.8,5.7c-0.4-0.4-1.1-0.8-1.5-1.5c2.3-2.7,4.2-5.7,5.5-9l2.1,0.6
		c-0.4,0.8-0.6,1.7-1.1,2.5h17.4v1.9h-8.8v4.4h8.4v1.7h-8.4v5.5h10.1v1.9h-10.1v6.7h-2.1v-6.7h-13v-1.9H249.3z M255.4,843.7h6.9
		v-5.5h-6.9V843.7z"/>
</g>
<g>
	<path d="M536.7,637.4h26.8v2.3h-10.4c-0.9,1.4-2,3.5-3.7,5.5h1.7v17.6h-2.3v-16.7c-3.2,4-6.9,7.2-11.2,10.1c-0.6-0.6-0.9-1.4-1.4-2
		c6-3.7,10.6-8.6,14.4-14.4H537v-2.3H536.7z M554,646.1c3.5,2,6.9,4.3,10.1,6.6l-1.7,2.3c-3.7-2.9-7.2-5.2-9.8-6.9L554,646.1z"/>
	<path d="M581.6,641.2h2.6c0-2,0-4,0-6h2c0,2,0,4,0,6h5.5c-0.3,5.5-0.3,10.6-0.6,16.1c0,2-0.3,3.2-0.9,4c-0.6,0.6-1.4,1.2-2.9,1.2
		c-0.6,0-1.4,0-2.6,0c0-0.9-0.3-1.7-0.3-2.3c1.4,0,2.3,0.3,2.9,0.3c0.9,0,1.4-0.3,1.7-0.6c0.3-0.3,0.6-1.2,0.6-2.3
		c0.3-4.9,0.3-9.5,0.3-14.1h-3.7c0,1.2,0,2.6,0,3.7c0,7.2-1.7,12.7-4.9,16.1c-0.9-0.9-1.2-1.2-1.4-1.4c0.3-0.3,0.3-0.3,0.6-0.6
		c-5.2,0.3-10.1,0.6-15,1.2l-0.3-1.7c2.6,0,4.9-0.3,7.5-0.3v-2h-6.3v-2.6h6.3v-2.3h-4.3v0.9h-1.7v-10.1h6v-2h-7.5v-1.4h7.5v-2.3
		c-1.7,0-4,0.3-6,0.3c0-0.6-0.3-1.2-0.6-1.7c4.9,0,9.5-0.6,13.8-1.2l0.9,1.7c-1.7,0.3-3.7,0.3-6.3,0.6v2.3h6.6v1.4h-6.6v2h6v9.8
		h-1.7V653h-4.3v2.3h6.3v1.4h-6.3v2c2.3,0,4.3-0.3,6.3-0.3c0,0.3,0,0.9,0,1.2c2.3-2.9,3.5-7.5,3.5-13.2c0-1.4,0-2.9,0-4.3h-2.6
		V641.2z M568.1,648.1h4.3v-2.3h-4.3V648.1z M568.1,651.8h4.3v-2.3h-4.3V651.8z M578.5,646.1h-4.3v2.3h4.3V646.1z M574.2,651.8h4.3
		v-2.3h-4.3V651.8z"/>
	<path d="M609,646.9h2.3v2.3h8.9v2h-8.9v3.2h7.8v2h-7.8v3.2h10.1v2h-22.4v-2H609v-3.2h-6.6v-2h6.6v-3.2h-6c-1.2,1.7-2,3.2-3.2,4.6
		c-0.3-0.6-0.9-1.2-1.4-1.4c-0.3,3.5-1.4,6.3-3.2,8.3c-0.6-0.9-0.9-1.4-1.4-2c1.7-2,2.6-5.8,2.6-10.6v-6.3h7.5
		c-0.6-0.9-1.2-2-2.3-3.2l1.7-0.9H596v-2h12.1c-0.3-0.6-0.6-1.2-1.2-2l2-0.9c0.6,0.9,1.2,2,1.7,2.9h10.1v2H615l2,0.9
		c-0.9,1.2-1.4,2-2.3,3.2h6.6v2h-22.7v4.3c0,1.4,0,2.9-0.3,4c1.7-2,3.5-4.6,4.6-7.5l2,0.9c-0.3,0.6-0.6,1.2-0.9,1.7h4.9L609,646.9
		L609,646.9z M606.1,643.2l-1.4,0.9h7.5c0.9-1.4,1.7-2.9,2.6-4h-11.2C604.4,641.2,605.2,642,606.1,643.2z"/>
</g>
<g>
	<path d="M536.2,718.1c1.7-3.2,3.2-6.3,4-10.1h-3.7v-2h4v-5.8h2v5.8h3.5v2h-3.5v3.7l0.9-0.9c0.9,0.9,1.7,1.4,2.6,2.6l-1.4,1.4
		c-0.9-0.9-1.4-1.7-2.3-2.3v15.5h-2v-15c-0.9,3.2-2,5.8-3.2,7.5C536.7,719.9,536.5,719,536.2,718.1z M564.1,723.9
		c-0.6,0.6-1.2,1.2-1.7,1.7c-2.9-2.6-5.2-5.8-7.2-9.2v11.8h-2v-11.8c-1.7,3.2-4.3,6.3-7.5,9.2c-0.6-0.6-1.2-1.2-1.7-1.4
		c3.5-2.9,6.3-5.8,8.3-8.9h-6.6v-2h7.2v-5.2h-4c-0.3,1.4-0.9,2.6-1.4,3.7c-0.3-0.3-0.9-0.3-2-0.9c1.2-2.9,2-5.8,2.6-8.9l2,0.3
		c-0.3,1.2-0.6,2.3-0.9,3.5h3.5V700h2v5.8h6.6v2h-6.6v5.2h7.8v2h-7.2C558.3,718.7,560.9,721.6,564.1,723.9z"/>
</g>
<g>
	<path d="M536.5,773.1h12.4v-10.4h2.6v10.4h12.4v2.3h-12.4v15h-2.6v-15h-12.4V773.1z"/>
	<path d="M565,780.9h4.6v-8.1h10.1v-4.9h-8.3c-1.2,2.3-2.6,4.3-4.3,6.3c-0.6-0.6-1.2-1.2-1.7-1.4c2.6-2.9,4.6-6.3,6-10.1l2.3,0.6
		c-0.3,0.9-0.9,1.7-1.2,2.6h19.3v2h-9.8v4.9h9.5v2h-9.5v6h11.2v2h-11.2v7.5h-2.3v-7.5h-14.4v-2H565z M571.6,780.9h7.8v-6h-7.8V780.9
		z"/>
	<path d="M598.6,783.7l1.7,1.4c-2,2-3.7,3.7-5.2,5.2c-0.3-0.6-0.9-0.9-1.4-1.4C595.5,787.2,596.9,785.8,598.6,783.7z M593.7,781.4
		h2.6v-13H594v-2h2.3V763h2v3.5h5.8V763h2v3.5h2.3v2h-2.3v13h2.3v2h-15v-2H593.7z M598.6,771.7h5.8v-3.2h-5.8V771.7z M598.6,776.5
		h5.8v-3.2h-5.8V776.5z M598.6,781.4h5.8v-3.2h-5.8V781.4z M602.1,785.2l1.4-1.4c1.4,0.9,2.6,2,3.7,2.9l-1.4,1.7
		C604.7,787.2,603.5,786.3,602.1,785.2z M610.1,763.6h10.1v22.7c0,2.3-1.2,3.5-3.2,3.5c-1.2,0-2,0-3.2,0c0-0.6-0.3-1.4-0.3-2.3
		c1.4,0,2.3,0.3,2.9,0.3c1.2,0,1.4-0.6,1.4-1.4v-6h-6c-0.3,4-1.4,7.5-3.7,10.4c-0.6-0.6-1.2-1.2-1.7-1.4c1.4-1.7,2.6-3.5,2.9-5.5
		c0.6-1.7,0.6-4.9,0.6-9.5v-10.6H610.1z M612.2,778.6h5.8v-5.5h-5.8C612.2,775.4,612.2,777.1,612.2,778.6z M617.9,765.6h-5.8v5.5
		h5.8V765.6z"/>
	<path d="M624,763.9h10.9v9.8H626v16.7h-2V763.9z M632.9,765.3H626v2.3h6.9V765.3z M632.9,771.9v-2.6H626v2.3h6.9V771.9z
		 M630.3,775.4h12.4V786h-10.4v1.4h-2V775.4z M640.6,777.1h-8.3v2.9h8.3V777.1z M640.6,784.3v-2.9h-8.3v2.9H640.6z M638.1,763.9H649
		V786c0,2.6-1.2,4-3.7,4c-1.2,0-2.3,0-4,0c-0.3-0.9-0.3-1.4-0.6-2c1.7,0,3.2,0.3,4,0.3c1.2,0,2-0.6,2-2V774h-8.9v-10.1H638.1z
		 M639.8,765.3v2.3h7.2v-2.3H639.8z M639.8,771.9h7.2v-2.6h-7.2V771.9z"/>
	<path d="M652.7,764.2h24.5v26.2h-2.3v-1.4h-20.1v1.4h-2.3v-26.2H652.7z M675.2,765.9H655v20.7h20.1V765.9z M656.5,782h7.8v-5.5
		h-6.9v-2h6.9v-3.7h-7.5v-2h16.7v2H666v3.7h6.9v2H666v5.5h7.8v2h-17.6v-2H656.5z M667.7,778.3l1.4-1.2c1.2,1.2,2,2,2.6,2.9l-1.7,1.2
		C669.4,780,668.6,779.1,667.7,778.3z"/>
	<path d="M679.8,776.3c2.6-3.7,4.6-8.3,6-13.5l2.3,0.6c-0.9,2.6-1.7,4.9-2.6,7.2v19.9h-2v-15.8c-0.9,1.4-1.7,2.9-2.6,4
		C680.7,777.7,680.4,777.1,679.8,776.3z M694.8,786.3l1.2,1.7c-2.3,0.9-4.9,1.7-8.1,2.6c-0.3-0.9-0.9-1.4-1.2-2
		C689,788.1,691.9,787.2,694.8,786.3z M687,771.4h9.5v-1.7h-7.2v-1.4h7.2v-1.7h-8.3V765h8.3v-2h2v2h8.3v1.4h-8.3v1.7h7.2v1.4h-7.2
		v1.7h9.5v1.4h-20.7v-1.4H687z M689.3,774.5H706v11.8h-2v-0.9h-12.7v0.9h-2V774.5z M704,776h-12.7v1.7H704V776z M691.3,780.9H704
		v-1.7h-12.7V780.9z M691.3,784H704v-1.7h-12.7V784z M699.1,787.8l0.9-1.7c2.3,0.6,4.9,1.4,8.1,2.3l-0.9,1.7
		C704.5,789.5,702,788.6,699.1,787.8z"/>
</g>
</svg>
