<?xml version="1.0" encoding="utf-8"?>
<!-- Generator: Adobe Illustrator 22.1.0, SVG Export Plug-In . SVG Version: 6.00 Build 0)  -->
<svg version="1.1" id="Capa_1" xmlns="http://www.w3.org/2000/svg" xmlns:xlink="http://www.w3.org/1999/xlink" x="0px" y="0px"
	 viewBox="0 0 59 64" style="enable-background:new 0 0 59 64;" xml:space="preserve">
<style type="text/css">
	.st0{fill:#000F35;}
	.st1{fill:#001139;}
	.st2{fill:#00A99D;}
	.st3{fill:#001139;stroke:#001139;stroke-width:0.5;stroke-miterlimit:10;}
</style>
<path class="st0" d="M57.1,45h-55c-0.3,0-0.5-0.1-0.7-0.3S1.1,44.2,1.1,44V1.1c0-0.3,0.1-0.5,0.3-0.7S1.8,0,2.1,0H57
	c0.3,0,0.5,0.1,0.7,0.3S58,0.8,58,1v42.9c0,0.3-0.1,0.5-0.3,0.7C57.6,44.9,57.3,45,57.1,45L57.1,45z M3.2,42.9H56l0,0V2.1l0,0H3.2
	l0,0V42.9L3.2,42.9z"/>
<path class="st1" d="M57.1,64h-55c-0.3,0-0.5-0.1-0.7-0.3S1.1,63.2,1.1,63V44c0-0.3,0.1-0.5,0.3-0.7S1.9,43,2.1,43H57
	c0.3,0,0.5,0.1,0.7,0.3S58,43.8,58,44v19c0,0.3-0.1,0.5-0.3,0.7C57.6,63.9,57.3,64,57.1,64z M3.2,61.9H56l0,0V45l0,0H3.2l0,0V61.9
	L3.2,61.9z"/>
<polygon id="XMLID_1_" class="st2" points="31,17.6 32.9,17.6 32.9,14.7 37.7,14.7 37.7,30.3 33,30.3 33,25.9 36.1,25.9 36.1,19.3 
	23.1,19.3 23.1,25.9 26.2,25.9 26.2,30.3 21.5,30.3 21.5,14.7 26.2,14.7 26.2,17.6 28.2,17.6 28.2,12.7 19.4,12.7 19.4,32.3 
	28.2,32.3 28.2,23.9 25.1,23.9 25.1,21.2 34,21.2 34,23.9 31,23.9 31,32.2 39.7,32.2 39.7,12.7 31,12.7 "/>
<g>
	<path class="st3" d="M22.4,56.5h-0.8v-2.7h-3.1v2.7h-0.8v-6.1h0.8V53h3.1v-2.6h0.8V56.5z"/>
	<path class="st3" d="M28.2,53.5c0-0.7,0.2-1.3,0.6-1.7c0.4-0.4,0.9-0.6,1.5-0.6c0.6,0,1.1,0.2,1.4,0.6c0.4,0.4,0.6,0.9,0.6,1.6
		c0,0.7-0.2,1.3-0.6,1.7c-0.4,0.4-0.9,0.6-1.5,0.6c-0.6,0-1.1-0.2-1.5-0.6C28.4,54.6,28.2,54.1,28.2,53.5z M28.8,53.4
		c0,0.5,0.1,0.9,0.4,1.3c0.3,0.3,0.6,0.5,1.1,0.5s0.9-0.1,1.1-0.4c0.3-0.3,0.4-0.7,0.4-1.3c0-0.6-0.1-1-0.4-1.3
		c-0.3-0.3-0.6-0.4-1.1-0.4s-0.8,0.1-1.1,0.5C28.9,52.5,28.8,52.9,28.8,53.4z"/>
	<path class="st3" d="M41.4,51.1h-1.7v5.4h-0.8v-5.4h-1.7v-0.7h4.3L41.4,51.1L41.4,51.1z"/>
</g>
</svg>
