<?xml version="1.0" encoding="utf-8"?>
<!-- Generator: Adobe Illustrator 22.1.0, SVG Export Plug-In . SVG Version: 6.00 Build 0)  -->
<svg version="1.1" id="Capa_1" xmlns="http://www.w3.org/2000/svg" xmlns:xlink="http://www.w3.org/1999/xlink" x="0px" y="0px"
	 viewBox="0 0 61 66" style="enable-background:new 0 0 61 66;" xml:space="preserve">
<style type="text/css">
	.st0{fill:#00A99D;}
	.st1{fill:#000F35;}
</style>
<g>
	<path class="st0" d="M17.2,12.6h-1.7V6c0-2.4-1.9-4.3-4.3-4.3S7,3.6,7,6H5.3c0-3.3,2.7-6,6-6s6,2.7,6,6V12.6z"/>
</g>
<g>
	<path class="st0" d="M13.5,18.2c-2.1,0-3.7-1.7-3.7-3.7V9.4h1.7v5.1c0,1.1,0.9,2,2,2s2-0.9,2-2V6.4h1.7v8.1
		C17.2,16.5,15.5,18.2,13.5,18.2z"/>
</g>
<g>
	<path class="st1" d="M35.8,66H1.7c-0.7,0-1.3-0.6-1.3-1.3V6.4C0.3,5.6,0.9,5,1.7,5h45.5c0.7,0,1.3,0.6,1.3,1.3v47.8H35.8V66z
		 M2.5,63.9h31.1V52h12.8V7.2H2.5V63.9z"/>
</g>
<g>
	<path class="st1" d="M38.8,23.3H11c-0.5,0-0.9-0.4-0.9-0.9v0c0-0.5,0.4-0.9,0.9-0.9h27.8c0.5,0,0.9,0.4,0.9,0.9v0
		C39.6,22.9,39.3,23.3,38.8,23.3z"/>
</g>
<g>
	<path class="st1" d="M38.8,29.6H11c-0.5,0-0.9-0.4-0.9-0.9v0c0-0.5,0.4-0.9,0.9-0.9h27.8c0.5,0,0.9,0.4,0.9,0.9v0
		C39.6,29.2,39.3,29.6,38.8,29.6z"/>
</g>
<g>
	<path class="st1" d="M38.8,36.2H11c-0.5,0-0.9-0.4-0.9-0.9l0,0c0-0.5,0.4-0.9,0.9-0.9h27.8c0.5,0,0.9,0.4,0.9,0.9l0,0
		C39.6,35.8,39.3,36.2,38.8,36.2z"/>
</g>
<g>
	<path class="st1" d="M38.8,42.8H11c-0.5,0-0.9-0.4-0.9-0.9l0,0c0-0.5,0.4-0.9,0.9-0.9h27.8c0.5,0,0.9,0.4,0.9,0.9l0,0
		C39.6,42.4,39.3,42.8,38.8,42.8z"/>
</g>
<g>
	<path class="st1" d="M38.8,48.6H11c-0.5,0-0.9-0.4-0.9-0.9v0c0-0.5,0.4-0.9,0.9-0.9h27.8c0.5,0,0.9,0.4,0.9,0.9v0
		C39.6,48.2,39.3,48.6,38.8,48.6z"/>
</g>
<g>
	
		<rect x="32.7" y="58.2" transform="matrix(0.7328 -0.6805 0.6805 0.7328 -29.2774 44.0239)" class="st1" width="17.4" height="2.1"/>
</g>
<g>
	<path class="st1" d="M52.4,4.9h-2.3v0.9h2.3c0.3,0,0.5,0.2,0.5,0.5V64c0,0.3-0.2,0.5-0.5,0.5H40.5v0.9h11.9c0.8,0,1.4-0.6,1.4-1.4
		V6.3C53.8,5.5,53.2,4.9,52.4,4.9z"/>
	<path class="st1" d="M52.4,65.9H40V64h12.4l0-57.7l-2.8,0V4.4h2.7c1,0,1.9,0.8,1.9,1.9V64C54.3,65,53.5,65.9,52.4,65.9z"/>
</g>
<g>
	<path class="st1" d="M59,4.9h-2.3v0.9H59c0.3,0,0.5,0.2,0.5,0.5V64c0,0.3-0.2,0.5-0.5,0.5h-2.1v0.9H59c0.8,0,1.4-0.6,1.4-1.4V6.3
		C60.4,5.5,59.8,4.9,59,4.9z"/>
	<path class="st1" d="M59,65.9h-2.6V64H59l0-57.7l-2.8,0V4.4H59c1,0,1.9,0.8,1.9,1.9V64C60.9,65,60.1,65.9,59,65.9z"/>
</g>
</svg>
