<?xml version="1.0" encoding="utf-8"?>
<!-- Generator: Adobe Illustrator 22.1.0, SVG Export Plug-In . SVG Version: 6.00 Build 0)  -->
<svg version="1.1" id="Capa_1" xmlns="http://www.w3.org/2000/svg" xmlns:xlink="http://www.w3.org/1999/xlink" x="0px" y="0px"
	 viewBox="0 0 59 61" style="enable-background:new 0 0 59 61;" xml:space="preserve">
<style type="text/css">
	.st0{fill:#00A99D;}
	.st1{fill:#000F35;}
	.st2{fill:#001139;}
	.st3{fill:#000014;}
</style>
<path class="st0" d="M24,28.8c-0.3,0-0.6-0.1-0.8-0.3s-0.3-0.5-0.3-0.8V12.4c0-0.4,0.2-0.8,0.6-1c0.3-0.2,0.8-0.2,1.1,0l12,7.6
	c0.3,0.2,0.5,0.5,0.5,0.9c0,0.4-0.2,0.7-0.5,0.9l-12,7.6C24.4,28.7,24.2,28.8,24,28.8L24,28.8z M25.1,14.4v11.3c0,0,0,0,0,0L34,20
	c0,0,0,0,0,0L25.1,14.4C25.1,14.4,25.1,14.4,25.1,14.4z"/>
<path class="st1" d="M57.9,40.8H1.1c-0.3,0-0.6-0.1-0.8-0.3S0,40,0,39.7V1.5c0-0.3,0.1-0.6,0.3-0.8s0.5-0.3,0.8-0.3h56.8
	c0.3,0,0.6,0.1,0.8,0.3S59,1.2,59,1.5v38.2c0,0.3-0.1,0.6-0.3,0.8C58.5,40.7,58.2,40.8,57.9,40.8L57.9,40.8z M2.2,38.6h54.6
	c0,0,0,0,0,0v-36c0,0,0,0,0,0H2.2c0,0,0,0,0,0L2.2,38.6C2.2,38.6,2.2,38.6,2.2,38.6z"/>
<path class="st2" d="M51.4,50.6H18.7c-0.6,0-1.1-0.4-1.2-1c-0.1-0.6,0.5-1.2,1.1-1.2l32.7,0c0.6,0,1.1,0.4,1.2,1
	C52.5,50.1,52,50.6,51.4,50.6z"/>
<path class="st2" d="M24,53.9c-0.3,0-0.6-0.1-0.8-0.3s-0.3-0.5-0.3-0.8l0-6.5c0-0.6,0.4-1.1,1-1.2c0.6-0.1,1.2,0.5,1.2,1.1v6.6
	c0,0.3-0.1,0.6-0.3,0.8C24.6,53.8,24.3,53.9,24,53.9z"/>
<path class="st2" d="M7.6,53.9c-0.3,0-0.6-0.1-0.8-0.3s-0.3-0.5-0.3-0.8l0-6.5c0-0.6,0.4-1.1,1-1.2c0.6-0.1,1.2,0.5,1.2,1.1v6.6
	c0,0.3-0.1,0.6-0.3,0.8C8.2,53.8,7.9,53.9,7.6,53.9L7.6,53.9z"/>
<path class="st3" d="M12,53.9c-0.3,0-0.6-0.1-0.8-0.3s-0.3-0.5-0.3-0.8l0-6.5c0-0.6,0.4-1.1,1-1.2c0.6-0.1,1.2,0.5,1.2,1.1v6.6
	c0,0.3-0.1,0.6-0.3,0.8C12.6,53.8,12.3,53.9,12,53.9z"/>
<path class="st2" d="M57.9,60.5H1.1c-0.3,0-0.6-0.1-0.8-0.3S0,59.7,0,59.4V39.7c0-0.3,0.1-0.6,0.3-0.8s0.5-0.3,0.8-0.3h56.8
	c0.3,0,0.6,0.1,0.8,0.3s0.3,0.5,0.3,0.8v19.7c0,0.3-0.1,0.6-0.3,0.8C58.5,60.3,58.2,60.5,57.9,60.5z M2.2,58.3h54.6c0,0,0,0,0,0
	V40.8c0,0,0,0,0,0H2.2c0,0,0,0,0,0L2.2,58.3C2.2,58.3,2.2,58.3,2.2,58.3z"/>
</svg>
