<?xml version="1.0" encoding="utf-8"?>
<!-- Generator: Adobe Illustrator 22.1.0, SVG Export Plug-In . SVG Version: 6.00 Build 0)  -->
<svg version="1.1" id="图层_1" xmlns="http://www.w3.org/2000/svg" xmlns:xlink="http://www.w3.org/1999/xlink" x="0px" y="0px"
	 viewBox="0 0 240 286" style="enable-background:new 0 0 240 286;" xml:space="preserve">
<style type="text/css">
	.st0{fill:#F4F4F4;}
	.st1{fill:#E5E5E5;}
	.st2{fill:#00A99E;}
	.st3{fill:#26B1B5;}
	.st4{fill:#1FA3B5;}
	.st5{fill:#1DB799;}
	.st6{fill:#FFFFFF;}
</style>
<g>
	
		<ellipse transform="matrix(0.9933 -0.1157 0.1157 0.9933 -14.6145 14.7993)" class="st0" cx="120.1" cy="133.3" rx="119.4" ry="119.4"/>
</g>
<g>
	<g>
		<path class="st1" d="M18.8,91.1c1.9,1.7-0.5,7.7,0.2,10.2c0.6,2.1,2.7,6.1,4.5,7.3c0.9,0.6,3.4,1.3,4.3,0.7
			c0.7-0.5,0.7-2.5,0.5-3.3c-0.6-1.9-4.7-3.9-5.4-5.7c-0.7-1.7-1.2-6,0-7.3c0.4-0.5,2.1-0.7,2.6-0.2c1.4,1.2-0.2,5.5,0.5,7.1
			c1.2,2.8,8,5.9,8.3,9c0.1,1.1-2.3,2.7-2.4,3.8c-0.1,2.3,2.6,6.7,4.5,8c1.9,1.4,7.3,3,9.2,1.7c0.5-0.3,0-1.8,0.5-2.1
			c0.9-0.5,3.3,0.2,4,0.9c0.5,0.6-0.3,2.5,0.2,3.1c1.3,1.4,5.9-0.2,7.6,0.7c2.5,1.3,4.8,7.4,7.3,8.8c2.1,1.1,7.7-0.7,9.5,0.9
			c1.2,1.1,0.9,4.9,0.2,6.4c-0.8,1.8-5.2,3-6.1,4.7c-1.2,2.2-1.4,7.7-0.7,10.2c1.1,3.7,7.8,8.7,9.2,12.3c0.4,1-0.3,3.6,0.5,4.3
			c0.8,0.6,3.1-0.5,4-0.2c2.1,0.7,5.9,3.5,6.9,5.4c2.3,4.9-4,17.4-0.5,21.5c0.4,0.5,2.2-0.5,2.6,0c1.4,1.7-2,6.6-1.4,8.8
			c0.4,1.4,3.1,3.1,3.5,4.5c0.9,2.6-0.3,8.4,0,11.1c0.5,4.9,0.7,9.6,12.8,14.9c1.6,0.7,8.1,1.2,7.1-1.2c-0.6-1.5-4.3-2.9-4.7-4.5
			c-0.5-1.9,3-6,1.9-7.6c-0.5-0.7-2.8,0-3.5-0.5c-0.7-0.4-2-1.6-1.9-2.4c0.1-1,2.5-1.7,2.8-2.6c0.1-0.3,0.2-1.1,0-1.4
			c-0.5-0.7-2.5-0.8-3.1-1.4c-0.3-0.4-0.4-1.8,0-2.1c2.9-2.5,8.5,0.8,13.5-7.3c1.8-2.9,7.3-7.6,8-10.9c0.5-2.2-2.4-6.8-1.9-9
			c0.2-0.7,1-1.9,1.7-2.1c1.7-0.7,5.5,1.6,7.3,1.2c1.5-0.3,4.4-2.2,5.2-3.5c2-3.4,0-12.2,1.7-15.8c0.9-2,5.1-4.5,5.9-6.6
			c0.4-0.9,0.8-3.4,0-4c-1.9-1.3-1.1-0.9-7.3-5.7c-2.7-2-10-0.7-13.2-1.2c-1.8-0.2-5.7-1.1-6.6-2.6c-0.8-1.3,0.9-4.7,0.5-6.2
			c-0.4-1.4-2.1-4-3.3-4.7c-1.7-1-6.1,0.5-7.8-0.5c-2-1.1-3.2-6.5-5.2-7.6c-0.6-0.3-2.1-0.4-2.6,0c-0.3,0.3-0.1,1.4-0.5,1.7
			c-1.4,1.1-5.5,1.1-7.1,0.2c-3.4-1.9-2-5.7-15.4,1.4c-2.2,1.2-8.3,0.5-9.9-1.4c-1.7-1.9,1.4-8.4-0.2-10.4c-1.1-1.4-6.2-0.1-7.1-1.7
			c-0.8-1.5,3.1-5,2.4-6.6c-0.3-0.7-2.3-1.3-3.1-1.2c-2.6,0.3-6,5.2-8.5,5.9c-4.6,1.2-20.4-8.7,4-18.5c3.8-1.5,13.5-3.6,16.3-0.7
			c0.7,0.8-0.8,3.3-0.2,4.3c0.6,1,3.3,2.6,4.3,1.9c1.5-1-0.1-5.5,0.7-7.1c1.6-3,8.7-5.8,10.4-8.8c0.4-0.6,0.1-2.2,0.5-2.8
			c2.3-3.8,11.1-7.7,14.2-10.9c1.5-1.6,2.9-6.6,5-7.1c1-0.2,2.6,2,3.6,1.9c0.7-0.1,2-1.2,1.9-1.9c-0.1-0.9-2.9-1.1-3.3-1.9
			c-0.5-1,0.2-4.5,4.5-0.7c4.3,3.8,5.2-0.6,6.9-0.9c0.5-0.1,1.6,0.7,1.7,1.2c0,0.5-1.2,0.8-1.4,1.2c-0.3,0.7-0.5,2.5,0,3.1
			c1.1,1.6,5.6,3.3,7.3,2.4c0.9-0.5,1.6-3.1,1.2-4c-0.5-1-3.6-0.7-4.3-1.7c-0.2-0.3-0.2-1.3,0-1.7c0.5-0.7,2.6-0.7,3.1-1.4
			c0.5-0.8,0.4-2.9,0-3.8c-0.6-1.2-3.6-2.1-4.3-3.3c-0.8-1.5,0.8-6-0.7-6.9c-1.3-0.7-4,2.1-5.4,2.4c-0.6,0.1-2,0.2-2.4-0.2
			c-0.7-0.7,0.6-3.2,0-4c-1.3-1.8-6.1-3.4-8.3-3.1c-1.2,0.2-3.5,1.7-4,2.8c-1,2,1.5,7.3,0,9c-1,1.2-4.9,0.1-6.1,0.9
			c-1.3,0.9-1.8,4.7-3.1,5.7c-0.5,0.4-1.9,0.9-2.4,0.5c-1.3-1.1,1.2-5.6,0-6.9c-2-2-20.7-1.6-2.1-11.1c2-1,6.1-4.5,8-3.5
			c0.8,0.4,0.2,3.1,0.9,3.5c0.7,0.4,2.5-0.1,3.1-0.7c0.5-0.5-0.1-2.4,0.5-2.8c0.6-0.4,2.2,0.5,2.8,0.2c1.6-0.7,2.8-4.5,4.3-5.4
			c1.9-1.3,9-1.4,9-1.4s1.8,1.7,1.7,2.4c-0.3,2.2-7.3,3.3-6.9,5.4c0.6,2.6,8,3.8,10.4,2.6c0.8-0.4,0.7-2.6,1.4-3.1
			c1.2-0.8,4.6,0.5,5.7-0.5c0.7-0.6,1.4-2.9,0.9-3.8c-0.4-0.7-2.4-0.4-2.8-0.9c-0.6-0.8-0.2-4-0.2-4s-16.6-13.9-22.9-1.9
			c-0.6,1.1,0.4,3.9-0.5,4.7c-0.9,0.8-3.9,0.8-4.7,0c-0.7-0.6-0.6-2.9-0.2-3.8c0.5-1.2,4.4-1.9,4-3.1c-0.6-2.1-6.8-1.5-8.8-0.5
			C92.6,28,91,30.1,91.4,31c0.2,0.5,1.7-0.1,2.1,0.2c0.6,0.6,1,2.7,0.5,3.3c-0.9,1-4.4-1.1-5.4-0.2c-0.4,0.3-0.1,1.6-0.5,1.9
			c-1.6,1.3-6.6,1.7-8,0.2c-0.6-0.6-0.5-3,0.2-3.5c1.1-0.9,4.4,0.6,5.7,0c1.1-0.5,3-2.6,2.8-3.8c-0.1-0.7-1.5-1.7-2.1-1.7
			c-0.7,0-1.6,1.4-2.1,1.9c-1.1,1-0.1,1.1-5.2-3c-1.7-1.4-8.7-0.1-8.7-0.1l-4.5,4.5l3.8,0.1l-1.3,3.2c0,0,5.1-0.6,6.1,0.5
			c0.3,0.3,0.1,1.4-0.2,1.7c-1.2,1.3-7.1,1.4-7.1,1.4l-2.1-3.5l-5.2-1.4l-3.7-0.5c-18.4,11.6-33.4,28-43.2,47.6l0.5,1
			C13.8,80.7,14.3,86.9,18.8,91.1z"/>
	</g>
	<g>
		<path class="st1" d="M102.6,73.3c-1.2,0-2.2,0.7-2.2,1.7c0,0.9,1,1.7,2.2,1.7c1.2,0,2.2-0.7,2.2-1.7
			C104.8,74,103.8,73.3,102.6,73.3z"/>
	</g>
	<g>
		<path class="st1" d="M109.8,72.4c-0.7,0.5-2.8-0.7-3.3,0c-0.4,0.6,0.4,2.3,0.9,2.8c0.5,0.4,2,0.8,2.6,0.5c0.6-0.3,0.4-2.1,0.9-2.4
			c0.6-0.3,1.8,1.3,2.4,0.9c0.8-0.6,0.7-3.3,0-4c-0.5-0.5-2.1-0.4-2.6,0C110.3,70.5,110.3,72,109.8,72.4z"/>
	</g>
	<g>
		<path class="st1" d="M189.5,51.1c0.7,0.8,0.7,3.5,1.7,4c1.1,0.7,4-1.7,5-0.9c1,0.8,1.2,4.3,0.2,5.2c-1.6,1.6-7.2-0.4-9.2,0.7
			c-1.8,1-2.9,5.7-4.7,6.6c-1.3,0.7-4.8-1.2-5.9-0.2c-1,0.9-1.5,4.3-0.7,5.4c0.3,0.4,1.6,0.1,1.9,0.5c0.5,0.7,0.6,2.9,0,3.5
			c-1.6,1.5-6.6-0.6-8.8-0.5c-1.3,0.1-3.9,0.5-3.8,3.8c0.1,1.7-0.2,5.5,0.9,6.9c0.8,0.9,3.5,1.5,4.7,1.4c2.1-0.2,6-2.2,7.6-3.5
			c1.8-1.5,3.5-6.7,5.7-7.6c1.3-0.5,4.3,1.5,5.7,0.9c1.1-0.4,1.9-3.9,3.1-3.8c0.9,0.1,0.4,2.8,0.9,3.5c1.4,1.9,7.2,2.8,8,5
			c0.5,1.1-1.8,3.7-1.2,4.7c0.1,0.2,0.7,0.3,0.9,0.2c1.4-0.5,3.6-4.7,3.6-4.7s-5.3-3.9-6.4-5.7c-0.5-0.8-1.5-2.8-0.9-3.5
			c0.7-1,3.8-0.7,5-0.2c1.6,0.6,4.3,3,5,4.5c0.5,1.2,0.1,4.1,0.7,5.2c0.7,1.4,3.3,4.7,4.7,4c2-0.9,0.5-5.2,4.5-7.6
			c0,0-0.2,4,0.2,5.2c0.4,1.1,2,3.3,3.1,3.8c2.2,1,9.5-0.6,9.5-0.6c-7.6-18.3-19.7-34.3-34.8-46.7l-1.2,2.5
			C194.4,43.3,183.7,44.2,189.5,51.1z"/>
	</g>
	<g>
		<path class="st1" d="M234,97c0,0-10.3,1.5-13.5,0.4c-1.4-0.5-3.1-3.3-4.5-3.8c-1.5-0.5-5.1-1-6.4,0c-0.6,0.5-0.1,2.5-0.7,3.1
			c-2.8,2.6-9.3,1.5-14.7-3.5c-1.2-1.1,1.1-5.2,0-6.4c-2.4-2.5-10.7-0.2-14,0.9c-0.9,0.3-2.2,1.8-3.1,2.1c-2.3,0.7-7.2-0.5-9.5,0.2
			c-1.4,0.5-4.3,2.2-5,3.5c-0.6,1.3,0.7,4.6,0,5.9c-1.8,3.6-11.6,5.7-13,9.5c-0.3,0.8,0.1,2.9,0.7,3.5c0.5,0.5,2.2-0.1,2.6,0.5
			c0.7,0.9,0.1,3.7-0.7,4.5c-0.4,0.4-1.8-0.2-2.1,0.2c-1.8,1.9-1.1,8-0.2,10.4c1.5,4.2,7.5,11.7,11.6,13.5c1.2,0.5,4.4,0.7,5.4-0.2
			c0.3-0.2,0-1.2,0.2-1.4c1.7-1.5,7,1.1,9,0c0.7-0.4,1-2.2,1.7-2.6c1.3-0.7,4.6-0.9,5.9-0.2c1,0.5,1.6,3.3,2.6,3.8
			c1.4,0.7,5.2-1.1,6.4,0c2.1,1.9-0.1,8.6,0.7,11.4c1.1,3.6,7.2,9.5,7.3,13.2c0.1,2.5-3.5,6.6-4,9c-0.2,1-0.5,3.3,0,4.3
			c0.6,1.2,3.5,2.1,4,3.3c1,2.1-1,7-0.2,9.2c0.5,1.5,3.5,3.5,4,5c0.8,2.3,0,9.7,0,9.7h10.3c15.5-20.1,24.7-45.4,24.7-72.7
			C239.6,120.6,237.6,108.4,234,97z"/>
	</g>
</g>
<g>
	<path class="st2" d="M119.8,253.1C53.7,253.1,0,199.3,0,133.3S53.7,13.5,119.8,13.5s119.8,53.7,119.8,119.8
		S185.9,253.1,119.8,253.1z M119.8,14.9C54.5,14.9,1.4,68,1.4,133.3s53.1,118.4,118.4,118.4s118.4-53.1,118.4-118.4
		S185.1,14.9,119.8,14.9z"/>
</g>
<g>
	<circle class="st3" cx="120.8" cy="13.8" r="7.4"/>
</g>
<g>
	<path class="st3" d="M120.8,26.1c-6.8,0-12.3-5.5-12.3-12.3s5.5-12.3,12.3-12.3c6.8,0,12.3,5.5,12.3,12.3S127.6,26.1,120.8,26.1z
		 M120.8,2.9c-6,0-10.9,4.9-10.9,10.9s4.9,10.9,10.9,10.9c6,0,10.9-4.9,10.9-10.9S126.9,2.9,120.8,2.9z"/>
</g>
<g>
	<circle class="st4" cx="17.6" cy="191.3" r="7.4"/>
</g>
<g>
	<path class="st4" d="M17.6,203.6c-6.8,0-12.3-5.5-12.3-12.3c0-6.8,5.5-12.3,12.3-12.3c6.8,0,12.3,5.5,12.3,12.3
		C29.9,198.1,24.4,203.6,17.6,203.6z M17.6,180.4c-6,0-10.9,4.9-10.9,10.9c0,6,4.9,10.9,10.9,10.9s10.9-4.9,10.9-10.9
		C28.5,185.3,23.7,180.4,17.6,180.4z"/>
</g>
<g>
	<circle class="st5" cx="222.9" cy="191.3" r="7.4"/>
</g>
<g>
	<path class="st5" d="M222.9,203.6c-6.8,0-12.3-5.5-12.3-12.3c0-6.8,5.5-12.3,12.3-12.3c6.8,0,12.3,5.5,12.3,12.3
		C235.2,198.1,229.7,203.6,222.9,203.6z M222.9,180.4c-6,0-10.9,4.9-10.9,10.9c0,6,4.9,10.9,10.9,10.9c6,0,10.9-4.9,10.9-10.9
		C233.8,185.3,228.9,180.4,222.9,180.4z"/>
</g>
<g>
	<polygon class="st2" points="120.7,132.2 120.9,132.1 120.7,131.9 	"/>
</g>
<g>
	<path class="st3" d="M121.2,40.8c-0.2,0-0.3,0-0.5,0C87.1,41,57.8,59.4,42.2,86.6l78.5,45.3l0.3,0.1l79.2-45.7
		C184.4,59.1,154.9,40.8,121.2,40.8z"/>
</g>
<g>
	<path class="st5" d="M201.7,89.3L122.4,135v87.9c33.1-0.4,61.9-18.5,77.5-45.3c7.8-13.5,12.4-29.1,12.4-45.8
		C212.3,116.5,208.4,102,201.7,89.3z"/>
</g>
<g>
	<path class="st4" d="M118.9,134.7L40.6,89.5c-6.7,12.7-10.5,27-10.5,42.3c0,16.6,4.5,32.2,12.2,45.6c15.4,26.6,43.8,44.7,76.6,45.5
		V134.7z"/>
</g>
<g>
	<g>
		<path class="st3" d="M120.8,28.8c-0.1,0-0.2,0-0.3-0.1c-0.1,0-0.2-0.1-0.2-0.2c-0.1-0.1-0.2-0.3-0.2-0.5c0-0.1,0-0.2,0.1-0.3
			c0-0.1,0.1-0.2,0.2-0.2c0.1-0.1,0.1-0.1,0.2-0.2c0.3-0.1,0.6,0,0.8,0.2c0.1,0.1,0.1,0.1,0.2,0.2c0,0.1,0.1,0.2,0.1,0.3
			c0,0.2-0.1,0.4-0.2,0.5C121.2,28.7,121,28.8,120.8,28.8z"/>
	</g>
	<g>
		<path class="st3" d="M120.1,36.5c0-0.4,0.3-0.7,0.7-0.7l0,0c0.4,0,0.7,0.3,0.7,0.7l0,0c0,0.4-0.3,0.7-0.7,0.7l0,0
			C120.5,37.2,120.1,36.9,120.1,36.5z M120.1,33.7c0-0.4,0.3-0.7,0.7-0.7l0,0c0.4,0,0.7,0.3,0.7,0.7l0,0c0,0.4-0.3,0.7-0.7,0.7l0,0
			C120.5,34.4,120.1,34.1,120.1,33.7z M120.1,30.9c0-0.4,0.3-0.7,0.7-0.7l0,0c0.4,0,0.7,0.3,0.7,0.7l0,0c0,0.4-0.3,0.7-0.7,0.7l0,0
			C120.5,31.6,120.1,31.3,120.1,30.9z"/>
	</g>
	<g>
		<path class="st3" d="M120.8,40c-0.2,0-0.4-0.1-0.5-0.2c-0.1-0.1-0.2-0.3-0.2-0.5c0-0.2,0.1-0.4,0.2-0.5c0.2-0.2,0.5-0.3,0.8-0.2
			c0.1,0,0.2,0.1,0.2,0.2c0.1,0.1,0.1,0.1,0.2,0.2c0,0.1,0.1,0.2,0.1,0.3s0,0.2-0.1,0.3c0,0.1-0.1,0.2-0.2,0.2
			c-0.1,0.1-0.1,0.1-0.2,0.2C121,40,120.9,40,120.8,40z"/>
	</g>
</g>
<g>
	<g>
		<path class="st5" d="M200.9,179.7c-0.1,0-0.2,0-0.3-0.1c-0.1,0-0.2-0.1-0.2-0.1c-0.1-0.1-0.1-0.2-0.2-0.2c0-0.1,0-0.2,0-0.3
			c0-0.1,0-0.2,0-0.3c0-0.1,0.1-0.2,0.2-0.2c0.1-0.1,0.1-0.1,0.2-0.2c0.2-0.1,0.4-0.1,0.5,0c0.1,0,0.2,0.1,0.2,0.2
			c0.1,0.1,0.1,0.1,0.2,0.2c0,0.1,0,0.2,0,0.3c0,0.1,0,0.2,0,0.3c0,0.1-0.1,0.2-0.2,0.2c-0.1,0.1-0.1,0.1-0.2,0.1
			C201.1,179.6,201,179.7,200.9,179.7z"/>
	</g>
	<g>
		<path class="st5" d="M207.9,183.6c-0.3-0.2-0.5-0.6-0.3-1l0,0c0.2-0.4,0.6-0.5,1-0.3l0,0c0.3,0.2,0.5,0.6,0.3,1l0,0
			c-0.1,0.2-0.4,0.4-0.6,0.4l0,0C208.2,183.7,208,183.7,207.9,183.6z M205.5,182.3c-0.4-0.2-0.5-0.6-0.3-1l0,0
			c0.2-0.3,0.6-0.5,1-0.3l0,0c0.3,0.2,0.5,0.6,0.3,0.9l0,0c-0.1,0.2-0.4,0.4-0.6,0.4l0,0C205.7,182.4,205.6,182.3,205.5,182.3z
			 M203,180.9c-0.4-0.2-0.5-0.6-0.3-0.9l0,0c0.2-0.4,0.6-0.5,1-0.3l0,0c0.3,0.2,0.5,0.6,0.3,1l0,0c-0.1,0.2-0.4,0.4-0.6,0.4l0,0
			C203.2,181,203.1,181,203,180.9z"/>
	</g>
	<g>
		<path class="st5" d="M210.7,185.1c-0.1,0-0.2,0-0.3,0c-0.1,0-0.2-0.1-0.2-0.2c-0.1-0.1-0.1-0.1-0.2-0.2c0-0.1-0.1-0.2-0.1-0.3
			c0-0.1,0-0.2,0.1-0.3c0-0.1,0.1-0.2,0.2-0.2c0.1-0.1,0.1-0.1,0.2-0.2c0.2-0.1,0.4-0.1,0.5,0c0.1,0,0.2,0.1,0.2,0.2
			c0.1,0.1,0.1,0.1,0.2,0.2c0,0.1,0.1,0.2,0.1,0.3c0,0.1,0,0.2-0.1,0.3c0,0.1-0.1,0.2-0.2,0.2c-0.1,0.1-0.1,0.1-0.2,0.2
			C210.9,185,210.8,185.1,210.7,185.1z"/>
	</g>
</g>
<g>
	<g>
		<path class="st4" d="M29.6,183.8c-0.2,0-0.4-0.1-0.5-0.2c-0.1-0.1-0.1-0.1-0.2-0.2c0-0.1-0.1-0.2-0.1-0.3c0-0.1,0-0.2,0.1-0.3
			c0-0.1,0.1-0.2,0.2-0.2c0.3-0.3,0.7-0.3,1,0c0.1,0.1,0.1,0.2,0.2,0.2c0,0.1,0,0.2,0,0.3c0,0.2-0.1,0.4-0.2,0.5
			C30,183.7,29.8,183.8,29.6,183.8z"/>
	</g>
	<g>
		<path class="st4" d="M31.5,182.2c-0.2-0.4,0-0.8,0.3-0.9l0,0c0.4-0.2,0.8,0,0.9,0.3l0,0c0.2,0.3,0,0.8-0.3,0.9l0,0
			c-0.1,0-0.2,0.1-0.3,0.1l0,0C31.9,182.6,31.6,182.4,31.5,182.2z M34,180.9c-0.2-0.4,0-0.8,0.3-0.9l0,0c0.3-0.2,0.8,0,0.9,0.3l0,0
			c0.2,0.4,0,0.8-0.3,0.9l0,0c-0.1,0-0.2,0.1-0.3,0.1l0,0C34.4,181.3,34.1,181.2,34,180.9z M36.5,179.7c-0.2-0.3,0-0.8,0.3-0.9l0,0
			c0.3-0.2,0.8,0,0.9,0.3l0,0c0.2,0.4,0,0.8-0.3,0.9l0,0c-0.1,0-0.2,0.1-0.3,0.1l0,0C36.9,180.1,36.6,179.9,36.5,179.7z"/>
	</g>
	<g>
		<path class="st4" d="M39.7,178.8c-0.1,0-0.2,0-0.3,0c-0.1,0-0.2-0.1-0.2-0.2c-0.1-0.1-0.1-0.1-0.2-0.2c0-0.1-0.1-0.2-0.1-0.3
			c0-0.1,0-0.2,0.1-0.3c0-0.1,0.1-0.2,0.2-0.2c0.1-0.1,0.1-0.1,0.2-0.2c0.3-0.1,0.6,0,0.8,0.2c0.1,0.1,0.1,0.1,0.2,0.2
			c0,0.1,0.1,0.2,0.1,0.3c0,0.1,0,0.2-0.1,0.3c0,0.1-0.1,0.2-0.2,0.2c-0.1,0.1-0.1,0.1-0.2,0.2C39.8,178.8,39.7,178.8,39.7,178.8z"
			/>
	</g>
</g>
<g>
	<path class="st6" d="M90.2,89.3c0.5-0.1,1-0.2,1.5-0.2V77h-1.3v-1.4h8.6V77h-1.5v11c0.6-0.1,1.2-0.2,1.8-0.3c0,0.5,0.1,1,0.1,1.4
		c-0.6,0.1-1.3,0.3-1.9,0.4v4.2H96v-3.9c-1.7,0.3-3.5,0.7-5.5,1.1L90.2,89.3z M93.1,79.9H96V77h-2.9V79.9z M93.1,84.2H96v-2.9h-2.9
		V84.2z M96,88.3v-2.8h-2.9v3.3C94.1,88.6,95,88.5,96,88.3z M98.1,83.5h4.6c0.1-1,0.1-2.2,0.1-3.6h-4.1v-1.5h5.4
		c0.6-1,1.4-2.3,2.3-4.2l1.5,0.7c-0.8,1.3-1.6,2.4-2.3,3.4h3.3v1.5h-4.6c0,1.4,0,2.6-0.1,3.6h5.4v1.5h-5.2c1,3.2,2.8,5.5,5.5,7
		c-0.5,0.5-0.9,1-1.3,1.5c-2.3-1.8-4-4-5-6.7c-0.7,2.8-2.3,5.1-4.8,6.9c-0.4-0.5-0.8-0.9-1.1-1.3c2.8-1.7,4.4-4.2,4.8-7.4h-4.5V83.5
		z M99.4,75l1.1-0.8c0.8,0.9,1.5,1.9,2.2,3l-1.3,0.9C101,77.2,100.3,76.1,99.4,75z"/>
	<path class="st6" d="M111.6,91.7h2.4v-5.3h14.6v5.3h2.2V93h-19.2V91.7z M112.8,75.2h6.5v8.5h-5.2v1.1h-1.4V75.2z M118,76.5h-3.8
		v2.3h3.8V76.5z M118,82.4v-2.4h-3.8v2.4H118z M115.3,91.7h3v-4.1h-3V91.7z M120.4,86c-0.3-0.3-0.6-0.7-1.1-1.1
		c1.5-1.2,2.3-3,2.3-5.5v-4.4h7.9v8.4c0,1.3-0.7,2-2,2c-0.5,0-1.2,0-2.3,0c-0.1-0.5-0.2-1-0.3-1.4c1,0.1,1.7,0.1,2.4,0.1
		c0.5,0,0.8-0.3,0.8-0.9v-0.7h-5.6C122.1,84,121.4,85.1,120.4,86z M119.7,91.7h3v-4.1h-3V91.7z M122.7,81.3h5.3v-1.9h-5.2
		C122.9,80.1,122.8,80.7,122.7,81.3z M128,76.3h-5.2v1.9h5.2V76.3z M127.1,87.6h-3v4.1h3V87.6z"/>
	<path class="st6" d="M132.4,81.1c1.1-1.7,1.9-4,2.5-6.8l1.5,0.3c-0.2,1-0.5,1.9-0.8,2.8h3.4v1.4h-3.9c-0.6,1.4-1.2,2.7-1.9,3.9
		C133,82.1,132.7,81.6,132.4,81.1z M138.7,88.1c0.1,0.6,0.2,1.1,0.3,1.5c-1.2,1.2-2.2,2.1-3,2.9c-0.1,0.1-0.3,0.4-0.6,0.7l-1.1-1.2
		c0.4-0.4,0.6-1,0.6-1.8v-4.1h-2.5v-1.4h2.5v-2.4h-0.8v-1.4h4.2v1.4h-1.9v2.4h2.5v1.4h-2.5v4.2C137.3,89.5,138,88.8,138.7,88.1z
		 M145.7,91.6c1.8,0.1,3.9,0.1,6.4-0.1c-0.2,0.5-0.4,1-0.6,1.5c-2.3,0.1-4.3,0-6-0.1c-1.9-0.1-3.3-0.8-4.2-2.2
		c-0.4,0.5-1,1.5-1.9,2.9l-1-1.4c0.9-1,1.6-1.9,2.2-2.7v-6.8h-1.6v-1.4h3v8.3C142.8,90.9,144,91.6,145.7,91.6z M140.8,74.4
		c0.6,1.6,1.2,3.1,1.6,4.4c-0.5,0.2-1,0.3-1.5,0.5c-0.4-1.4-0.9-2.9-1.4-4.5L140.8,74.4z M145,82.8h2.2v-3.6h1.4v3.6h2.7v1.4h-2.7
		v2.6h3.3v1.4h-3.3v3.1h-1.4v-3.1h-4.4v-1.4h4.4v-2.6h-3.8v-1.4c0.6-1.5,1.2-3,1.7-4.7h-2v-1.4h2.4c0.3-0.9,0.5-1.8,0.7-2.7l1.5,0.3
		c-0.2,0.8-0.4,1.6-0.7,2.4h4.6v1.4h-5C146.1,79.7,145.6,81.2,145,82.8z"/>
</g>
<g>
	<path class="st6" d="M144.4,163.3c0.3-0.1,0.7-0.1,1-0.2l0-7.7l1.3,0l0,7.4c0.6-0.1,1.1-0.2,1.7-0.4l0.1-9l-1.5,0l0,0.7l-1.3,0
		l0-6.8l5.8,0l0,6.1l-1.8,0l0,3.5l2,0l0,1.2l-2,0l0,4c0.8-0.2,1.5-0.3,2.3-0.5c0,0.5,0.1,1,0.1,1.4c-1.8,0.4-4.2,1-7.2,1.8
		L144.4,163.3z M150.2,152.4l0-3.8l-3.2,0l0,3.8L150.2,152.4z M151.1,154.2c1.7-1.1,3.1-2.5,4.2-4.2l-3,0l0-1.3l3.7,0
		c0.4-0.8,0.7-1.6,1-2.5l1.5,0.4c-0.2,0.8-0.5,1.5-0.8,2.2l6.3,0l0,1.3l-3.7,0c1.2,1.9,2.6,3.1,4.3,3.7c-0.4,0.5-0.7,1-1,1.4
		c-0.9-0.5-1.7-1.1-2.4-1.7l0,1.2l-7,0l0-0.9c-0.7,0.6-1.4,1.2-2.1,1.7C151.8,155,151.4,154.6,151.1,154.2z M152.2,156.2l11.4,0.1
		l0,1.3l-7.9,0l-0.7,1.8l7.1,0c-0.1,1.3-0.2,2.4-0.3,3.5c-0.2,1.7-1.1,2.6-2.9,2.6c-1.1,0-2.3,0-3.7-0.1c-0.1-0.5-0.2-1-0.3-1.6
		c1.4,0.1,2.6,0.2,3.6,0.2c1,0,1.6-0.4,1.7-1.3c0.1-0.7,0.1-1.3,0.2-2l-7,0l0-1.3l0.7-1.7l-2.1,0L152.2,156.2z M154.5,153.3l6.6,0
		c-0.9-0.9-1.7-2-2.3-3.2l-1.8,0C156.2,151.2,155.4,152.3,154.5,153.3z"/>
	<path class="st6" d="M165.7,153.3c1.1-1.7,1.9-4,2.6-6.8l1.5,0.3c-0.3,1-0.5,1.9-0.8,2.7l3.4,0l0,1.4l-3.9,0
		c-0.6,1.4-1.2,2.7-1.9,3.9C166.3,154.3,166,153.8,165.7,153.3z M172,160.4c0.1,0.6,0.2,1.1,0.3,1.5c-1.2,1.2-2.2,2.1-3,2.9
		c-0.1,0.1-0.3,0.4-0.6,0.7l-1.1-1.2c0.4-0.4,0.6-1,0.6-1.8l0-4.1l-2.5,0l0-1.4l2.5,0l0-2.4l-0.8,0l0-1.4l4.2,0l0,1.4l-1.9,0l0,2.4
		l2.5,0l0,1.4l-2.5,0l0,4.2C170.5,161.8,171.3,161.1,172,160.4z M178.9,163.9c1.8,0.1,3.9,0.1,6.4,0c-0.2,0.5-0.4,1-0.6,1.5
		c-2.3,0-4.3,0-6-0.1c-1.9-0.1-3.3-0.8-4.2-2.2c-0.4,0.5-1,1.4-1.9,2.8l-1-1.4c0.9-1,1.6-1.9,2.2-2.7l0-6.8l-1.6,0l0-1.4l3,0
		l-0.1,8.3C176,163.2,177.2,163.9,178.9,163.9z M174.2,146.7c0.6,1.6,1.2,3.1,1.6,4.4c-0.5,0.2-1,0.3-1.5,0.5
		c-0.4-1.4-0.9-2.9-1.4-4.5L174.2,146.7z M178.2,155.1l2.2,0l0-3.6l1.4,0l0,3.6l2.7,0l0,1.4l-2.7,0l0,2.6l3.3,0l0,1.4l-3.3,0l0,3.1
		l-1.4,0l0-3.1l-4.4,0l0-1.4l4.4,0l0-2.6l-3.8,0l0-1.4c0.6-1.5,1.2-3,1.7-4.6l-2,0l0-1.4l2.4,0c0.3-0.9,0.5-1.7,0.7-2.7l1.5,0.3
		c-0.2,0.8-0.4,1.6-0.7,2.4l4.6,0l0,1.4l-5,0C179.4,152,178.9,153.5,178.2,155.1z"/>
</g>
<g>
	<path class="st6" d="M44.4,155.6c3-2.4,5.2-5.2,6.7-8.5l1.6,0.7c-1.8,3.7-4.1,6.7-7,9.1C45.3,156.5,44.9,156.1,44.4,155.6z
		 M57.2,158.2c1.9,2.5,3.5,4.7,4.8,6.8l-1.5,1c-0.4-0.6-0.8-1.2-1.2-1.9c-4.4,0.2-7.9,0.4-10.6,0.6c-0.5,0-1.1,0.2-1.8,0.3l-0.9-1.7
		c0.6-0.2,1.1-0.6,1.7-1.1c1.6-1.8,3.3-4.4,5.1-7.9l1.7,0.8c-1.7,2.8-3.4,5.4-5.3,7.9c2.7-0.1,5.8-0.2,9.3-0.3
		c-0.7-1.1-1.6-2.4-2.5-3.6L57.2,158.2z M55.6,147.5l1.5-0.6c1.3,3.5,3.6,6.2,7.1,8.2c-0.4,0.4-0.8,0.9-1.2,1.5
		C59.3,154.2,56.9,151.1,55.6,147.5z"/>
	<path class="st6" d="M71,165.9l-1.6,0l0.1-10.3c-1,1.1-2,2.2-3.2,3.2c-0.3-0.5-0.6-0.9-0.9-1.5c2.6-2.1,4.6-4.5,6-7.1l-5.4,0l0-1.5
		l6.2,0c0.4-0.8,0.7-1.7,1-2.5l1.6,0.4c-0.3,0.7-0.6,1.5-0.9,2.2l11.2,0.1l0,1.5l-11.9-0.1c-0.4,0.8-0.9,1.5-1.4,2.3l10.9,0.1
		l-0.1,10.6c0,1.6-0.8,2.5-2.4,2.4c-0.7,0-1.8,0-3.2,0c-0.1-0.5-0.2-1-0.3-1.6c1.2,0.1,2.2,0.2,2.9,0.2c0.9,0,1.4-0.4,1.4-1.3l0-1.4
		l-10-0.1L71,165.9z M71.1,160.1l10,0.1l0-2.4l-10-0.1L71.1,160.1z M81.1,154l-10-0.1l0,2.4l10,0.1L81.1,154z"/>
	<path class="st6" d="M86.7,153.4c1.1-1.7,1.9-4,2.6-6.8l1.5,0.3c-0.3,1-0.5,1.9-0.8,2.7l3.4,0l0,1.4l-3.9,0
		c-0.6,1.4-1.2,2.7-1.9,3.9C87.2,154.5,87,154,86.7,153.4z M92.9,160.5c0.1,0.6,0.2,1.1,0.3,1.5c-1.2,1.2-2.2,2.1-3,2.9
		c-0.1,0.1-0.3,0.4-0.6,0.7l-1.1-1.2c0.4-0.4,0.6-1,0.6-1.8l0-4.1l-2.5,0l0-1.4l2.5,0l0-2.4l-0.8,0l0-1.4l4.2,0l0,1.4l-1.9,0l0,2.4
		l2.5,0l0,1.4l-2.5,0l0,4.2C91.5,161.9,92.2,161.2,92.9,160.5z M99.8,164.1c1.8,0.1,3.9,0.1,6.4,0c-0.2,0.5-0.4,1-0.6,1.5
		c-2.3,0-4.3,0-6-0.1c-1.9-0.1-3.3-0.8-4.2-2.2c-0.4,0.5-1,1.4-1.9,2.8l-1-1.4c0.9-1,1.6-1.9,2.2-2.7l0-6.8l-1.6,0l0-1.4l3,0
		l-0.1,8.3C97,163.3,98.2,164,99.8,164.1z M95.1,146.8c0.6,1.6,1.2,3.1,1.6,4.4c-0.5,0.2-1,0.3-1.5,0.5c-0.4-1.4-0.9-2.9-1.4-4.5
		L95.1,146.8z M99.2,155.2l2.2,0l0-3.6l1.4,0l0,3.6l2.7,0l0,1.4l-2.7,0l0,2.6l3.3,0l0,1.4l-3.3,0l0,3.1l-1.4,0l0-3.1l-4.4,0l0-1.4
		l4.4,0l0-2.6l-3.8,0l0-1.4c0.6-1.5,1.2-3,1.7-4.6l-2,0l0-1.4l2.4,0c0.3-0.9,0.5-1.7,0.7-2.7l1.5,0.3c-0.2,0.8-0.4,1.6-0.7,2.4
		l4.6,0l0,1.4l-5,0C100.4,152.1,99.8,153.7,99.2,155.2z"/>
</g>
<ellipse class="st0" cx="122.4" cy="276.3" rx="58.2" ry="7.9"/>
</svg>
