<?xml version="1.0" encoding="utf-8"?>
<!-- Generator: Adobe Illustrator 22.1.0, SVG Export Plug-In . SVG Version: 6.00 Build 0)  -->
<svg version="1.1" id="图层_1" xmlns="http://www.w3.org/2000/svg" xmlns:xlink="http://www.w3.org/1999/xlink" x="0px" y="0px"
	 viewBox="0 0 124 124" style="enable-background:new 0 0 124 124;" xml:space="preserve">
<style type="text/css">
	.st0{opacity:0.6;}
	.st1{fill:#EFEFEF;}
	.st2{fill:#C1C2BE;}
	.st3{fill:#D8D8D8;}
	.st4{fill:#F9F9F9;}
	.st5{fill:#2DA291;}
</style>
<g>
	<g class="st0">
		<g>
			<path class="st1" d="M121.9,102.4c1.1,0.4,1.1,1,0,1.4l-58.8,20c-0.5,0.2-1.4,0.2-1.9,0l-59.2-20c-1.1-0.4-1.1-1,0-1.4l58.8-20
				c0.5-0.2,1.4-0.2,1.9,0L121.9,102.4z"/>
		</g>
	</g>
	<g>
		<g>
			<path class="st2" d="M123.2,92.5c0.4,0.1,0.4,0.4,0,0.5L63,113.5c-0.4,0.1-1.2,0.1-1.6,0L0.8,93c-0.4-0.1-0.4-0.4,0-0.5L61,72
				c0.4-0.1,1.2-0.1,1.6,0L123.2,92.5z"/>
		</g>
	</g>
	<polygon class="st3" points="0.4,78.8 0.4,92.8 62.3,113.6 123.6,92.8 123.6,78.8 62.3,99.7 	"/>
	<g>
		<path class="st4" d="M123.2,78.5c0.4,0.1,0.4,0.4,0,0.5L63,99.6c-0.4,0.1-1.2,0.1-1.6,0L0.8,79.1c-0.4-0.1-0.4-0.4,0-0.5L61,58
			c0.4-0.1,1.2-0.1,1.6,0L123.2,78.5z"/>
	</g>
	<g>
		<path class="st5" d="M79.9,3.1c0-0.8-0.7-1.5-1.5-1.5h-6c-0.8,0-1.5,0.7-1.5,1.5v3.7l9,7.5V3.1z"/>
		<path class="st5" d="M35.7,23.1l4.3,2.6L59.5,8.9c0.6-0.5,1.4-0.5,1.9,0L81,25.6l4.3-2.6c0.9-0.5,1-1.8,0.2-2.4l-24-20.3
			c-0.6-0.5-1.4-0.5-1.9,0l-24,20.3C34.7,21.3,34.8,22.5,35.7,23.1z"/>
		<g>
			<path class="st5" d="M65.4,39.4c-0.9,0-1.6,0.8-1.6,1.6c0,0.9,0.8,1.6,1.6,1.6c0.9,0,1.6-0.8,1.6-1.6
				C67,40.1,66.3,39.4,65.4,39.4z"/>
			<path class="st5" d="M55.5,33.1c0.9,0,1.6-0.8,1.6-1.6c0-0.9-0.8-1.6-1.6-1.6c-0.9,0-1.6,0.8-1.6,1.6
				C53.9,32.4,54.7,33.1,55.5,33.1z"/>
			<path class="st5" d="M84.5,48.1h-4.6V28.7L60.5,12L41,28.7v19.4h-4.6c-0.8,0-1.5,0.7-1.5,1.5c0,0.8,0.7,1.5,1.5,1.5h48.1
				c0.8,0,1.5-0.7,1.5-1.5C86,48.8,85.3,48.1,84.5,48.1z M55.4,27.7c2.1,0,3.8,1.6,3.8,3.7s-1.6,3.8-3.7,3.8c-2.1,0-3.8-1.6-3.8-3.7
				C51.7,29.5,53.4,27.7,55.4,27.7z M53.1,45c-0.3,0-0.6-0.1-0.8-0.3c-0.4-0.4-0.4-1.1,0-1.5c0,0,0,0,0,0l14.8-15.4
				c0.4-0.4,1.1-0.4,1.5,0c0.4,0.4,0.4,1.1,0,1.5L53.8,44.7C53.6,44.9,53.4,45,53.1,45z M65.5,44.8c-2.1,0-3.8-1.6-3.8-3.7
				c0-2.1,1.6-3.8,3.7-3.8c2.1,0,3.8,1.6,3.8,3.7C69.2,43,67.6,44.7,65.5,44.8z"/>
		</g>
	</g>
	<ellipse class="st1" cx="61.8" cy="76" rx="30.8" ry="6.3"/>
</g>
</svg>
