<?xml version="1.0" encoding="utf-8"?>
<!-- Generator: Adobe Illustrator 22.1.0, SVG Export Plug-In . SVG Version: 6.00 Build 0)  -->
<svg version="1.1" id="图层_1" xmlns="http://www.w3.org/2000/svg" xmlns:xlink="http://www.w3.org/1999/xlink" x="0px" y="0px"
	 viewBox="0 0 124 124" style="enable-background:new 0 0 124 124;" xml:space="preserve">
<style type="text/css">
	.st0{fill:#2DA291;}
	.st1{opacity:0.6;}
	.st2{fill:#EFEFEF;}
	.st3{fill:#C1C2BE;}
	.st4{fill:#D8D8D8;}
	.st5{fill:#F9F9F9;}
	.st6{fill:#FFFFFF;}
</style>
<circle class="st0" cx="62" cy="25.6" r="22.5"/>
<g>
	<g class="st1">
		<g>
			<path class="st2" d="M120.5,103c1.1,0.4,1.1,1,0,1.4l-57.4,19.5c-0.5,0.2-1.3,0.2-1.8,0L3.5,104.3c-1.1-0.4-1.1-1,0-1.4
				l57.4-19.5c0.5-0.2,1.3-0.2,1.8,0L120.5,103z"/>
		</g>
	</g>
	<g>
		<g>
			<path class="st3" d="M121.8,93.2c0.4,0.1,0.4,0.4,0,0.5l-58.8,20c-0.4,0.1-1.1,0.1-1.6,0l-59.2-20c-0.4-0.1-0.4-0.4,0-0.5
				l58.8-20c0.4-0.1,1.1-0.1,1.6,0L121.8,93.2z"/>
		</g>
	</g>
	<polygon class="st4" points="1.9,79.9 1.9,93.5 62.3,113.9 122.1,93.5 122.1,79.9 62.3,100.3 	"/>
	<g>
		<path class="st5" d="M121.8,79.6c0.4,0.1,0.4,0.4,0,0.5l-58.8,20c-0.4,0.1-1.1,0.1-1.6,0l-59.2-20c-0.4-0.1-0.4-0.4,0-0.5l58.8-20
			c0.4-0.1,1.1-0.1,1.6,0L121.8,79.6z"/>
	</g>
	<ellipse class="st2" cx="61.8" cy="77.1" rx="30.1" ry="6.2"/>
</g>
<g>
	<path class="st0" d="M61.9,3.7c8.4,0,15.6,4.7,19.3,11.6h4.1c-4-9-13-15.3-23.4-15.3S42.5,6.3,38.5,15.2h4.1
		C46.3,8.4,53.5,3.7,61.9,3.7z"/>
	<path class="st0" d="M40,25.6c0-3,0.6-5.9,1.7-8.5h-1.1h-2.8h-4.2c-0.5-1.4-1.8-2.5-3.4-2.5c-2,0-3.6,1.6-3.6,3.6s1.6,3.6,3.6,3.6
		c1.6,0,2.9-1,3.4-2.5h3.5c-0.4,1.7-0.7,3.4-0.7,5.2h-9.9C26,23.1,24.7,22,23.1,22c-2,0-3.6,1.6-3.6,3.6s1.6,3.6,3.6,3.6
		c1.6,0,2.9-1,3.4-2.5h9.9c0.1,1.8,0.4,3.5,0.8,5.2h-3.6c-0.5-1.4-1.8-2.5-3.4-2.5c-2,0-3.6,1.6-3.6,3.6s1.6,3.6,3.6,3.6
		c1.6,0,2.9-1,3.4-2.5h4.3l0,0h4C40.7,31.7,40,28.7,40,25.6z M30.2,19.5c-0.7,0-1.3-0.6-1.3-1.3s0.6-1.3,1.3-1.3
		c0.7,0,1.3,0.6,1.3,1.3S30.9,19.5,30.2,19.5z M23.1,27c-0.7,0-1.3-0.6-1.3-1.3c0-0.7,0.6-1.3,1.3-1.3c0.7,0,1.3,0.6,1.3,1.3
		C24.3,26.5,23.8,27,23.1,27z M30.2,34.5c-0.7,0-1.3-0.6-1.3-1.3s0.6-1.3,1.3-1.3c0.7,0,1.3,0.6,1.3,1.3S30.9,34.5,30.2,34.5z"/>
	<path class="st0" d="M61.9,47.5c-8.2,0-15.3-4.5-19.1-11.2h-4.1c4.1,8.8,12.9,14.9,23.2,14.9S81,45,85.1,36.3H81
		C77.2,42.9,70.1,47.5,61.9,47.5z"/>
	<path class="st0" d="M100.9,22.2c-1.6,0-2.9,1-3.4,2.5H87.4c-0.1-1.8-0.3-3.5-0.7-5.2h3.7c0.5,1.4,1.8,2.5,3.4,2.5
		c2,0,3.6-1.6,3.6-3.6s-1.6-3.6-3.6-3.6c-1.6,0-2.9,1-3.4,2.5H86h-2.6h-1.3c1.1,2.6,1.7,5.5,1.7,8.5c0,3.1-0.7,6.1-1.9,8.8h4l0,0
		h4.5c0.5,1.4,1.8,2.5,3.4,2.5c2,0,3.6-1.6,3.6-3.6s-1.6-3.6-3.6-3.6c-1.6,0-2.9,1-3.4,2.5h-3.8c0.5-1.7,0.7-3.4,0.8-5.2h10.1
		c0.5,1.4,1.8,2.5,3.4,2.5c2,0,3.6-1.6,3.6-3.6C104.5,23.8,102.9,22.2,100.9,22.2z M93.8,17c0.7,0,1.3,0.6,1.3,1.3
		c0,0.7-0.6,1.3-1.3,1.3c-0.7,0-1.3-0.6-1.3-1.3S93.1,17,93.8,17z M93.8,32c0.7,0,1.3,0.6,1.3,1.3s-0.6,1.3-1.3,1.3
		c-0.7,0-1.3-0.6-1.3-1.3S93.1,32,93.8,32z M100.9,27c-0.7,0-1.3-0.6-1.3-1.3s0.6-1.3,1.3-1.3c0.7,0,1.3,0.6,1.3,1.3
		S101.6,27,100.9,27z"/>
</g>
<polygon id="XMLID_63_" class="st6" points="63.8,19.4 66.2,19.4 66.2,15.8 72.3,15.8 72.3,35.4 66.3,35.4 66.3,29.9 70.2,29.9 
	70.2,21.5 53.8,21.5 53.8,29.9 57.7,29.9 57.7,35.4 51.7,35.4 51.7,15.8 57.8,15.8 57.8,19.4 60.2,19.4 60.2,13.2 49.2,13.2 
	49.2,38 60.2,38 60.2,27.4 56.4,27.4 56.4,24 67.6,24 67.6,27.4 63.8,27.4 63.8,37.9 74.8,37.9 74.8,13.2 63.8,13.2 "/>
</svg>
