<?xml version="1.0" encoding="utf-8"?>
<!-- Generator: Adobe Illustrator 22.1.0, SVG Export Plug-In . SVG Version: 6.00 Build 0)  -->
<svg version="1.1" id="图层_1" xmlns="http://www.w3.org/2000/svg" xmlns:xlink="http://www.w3.org/1999/xlink" x="0px" y="0px"
	 viewBox="0 0 124 124" style="enable-background:new 0 0 124 124;" xml:space="preserve">
<style type="text/css">
	.st0{opacity:0.6;}
	.st1{fill:#EFEFEF;}
	.st2{fill:#C1C2BE;}
	.st3{fill:#D8D8D8;}
	.st4{fill:#F9F9F9;}
	.st5{fill:#2DA291;}
</style>
<g>
	<g class="st0">
		<g>
			<path class="st1" d="M121.9,102.3c1.1,0.4,1.1,1,0,1.4l-58.8,20c-0.5,0.2-1.4,0.2-1.9,0L2,103.7c-1.1-0.4-1.1-1,0-1.4l58.8-20
				c0.5-0.2,1.4-0.2,1.9,0L121.9,102.3z"/>
		</g>
	</g>
	<g>
		<g>
			<path class="st2" d="M123.2,92.3c0.4,0.1,0.4,0.4,0,0.5L63,113.4c-0.4,0.1-1.2,0.1-1.6,0L0.8,92.9c-0.4-0.1-0.4-0.4,0-0.5
				L61,71.9c0.4-0.1,1.2-0.1,1.6,0L123.2,92.3z"/>
		</g>
	</g>
	<polygon class="st3" points="0.4,78.7 0.4,92.6 62.3,113.5 123.6,92.6 123.6,78.7 62.3,99.6 	"/>
	<g>
		<path class="st4" d="M123.2,78.4c0.4,0.1,0.4,0.4,0,0.5L63,99.5c-0.4,0.1-1.2,0.1-1.6,0L0.8,79c-0.4-0.1-0.4-0.4,0-0.5L61,57.9
			c0.4-0.1,1.2-0.1,1.6,0L123.2,78.4z"/>
	</g>
	<ellipse class="st1" cx="61.8" cy="75.9" rx="30.8" ry="6.3"/>
</g>
<path class="st5" d="M66.3,6.6V4.5c0-2.4-1.9-4.3-4.3-4.3s-4.3,1.9-4.3,4.3v2.2C57.7,9,59.6,11,62,11S66.3,9,66.3,6.6z"/>
<path class="st5" d="M83.7,6.6V4.5c0-2.4-1.9-4.3-4.3-4.3S75,2.1,75,4.5v2.2C75,9,77,11,79.3,11S83.7,9,83.7,6.6z"/>
<path class="st5" d="M49,6.6V4.5c0-2.4-1.9-4.3-4.3-4.3c-2.4,0-4.3,1.9-4.3,4.3v2.2c0,2.4,1.9,4.3,4.3,4.3C47,11,49,9,49,6.6z"/>
<path class="st5" d="M62,13.1c2.4,0,4.5,1.3,5.6,3.3H70c-1.3-3.2-4.4-5.4-8-5.4s-6.7,2.2-8,5.4h2.4C57.5,14.4,59.6,13.1,62,13.1z"/>
<path class="st5" d="M79.3,11c-3.6,0-6.7,2.2-8,5.4h16.1C86.1,13.2,83,11,79.3,11z"/>
<path class="st5" d="M44.7,11c-3.6,0-6.7,2.2-8,5.4h16.1C51.4,13.2,48.3,11,44.7,11z"/>
<path class="st5" d="M66.2,18.5c-0.5-1.9-2.2-3.3-4.2-3.3s-3.7,1.4-4.2,3.3H32.7v2.2h10.8v8.7c-4.9,0.5-8.7,4.7-8.7,9.7
	c0,5.4,4.4,9.8,9.8,9.8c5.4,0,9.8-4.4,9.8-9.8c0-5-3.8-9.2-8.7-9.7v-8.7h12.1c0.3,1.1,1,2.1,2,2.6v29.9h-6.5v4.3
	c-2.4,0-4.3,1.9-4.3,4.3h26c0-2.4-1.9-4.3-4.3-4.3v-4.3h-6.5V23.4c1-0.6,1.7-1.5,2-2.6h12.1v8.7c-4.9,0.5-8.7,4.7-8.7,9.7
	c0,5.4,4.4,9.8,9.8,9.8c5.4,0,9.8-4.4,9.8-9.8c0-5-3.8-9.2-8.7-9.7v-8.7h10.8v-0.1v-2.2H66.2z M49.3,35l0,0.3h-1.8l0-0.3
	c-0.1-0.8-0.8-1.2-2-1.3c-1.6,0-2.3,1-2.4,2.9v0.4H46v1.7h-2.9V44h5.8v1.7h-8.7V44h1.1v-5.1h-1.4v-1.7h1.4c-0.1-1.7,0.2-3,1-3.8
	c0.7-0.8,1.8-1.2,3.3-1.2C47.9,32.3,49.1,33.3,49.3,35z M84,35l0,0.3h-1.8l0-0.3c-0.1-0.8-0.8-1.2-2-1.3c-1.6,0-2.3,1-2.4,2.9v0.4
	h2.9v1.7h-2.9V44h5.8v1.7H75V44H76v-5.1h-1.4v-1.7h1.4c-0.1-1.7,0.2-3,1-3.8c0.7-0.8,1.8-1.2,3.3-1.2C82.7,32.3,83.9,33.3,84,35z"/>
</svg>
