<?xml version="1.0" encoding="utf-8"?>
<!-- Generator: Adobe Illustrator 22.1.0, SVG Export Plug-In . SVG Version: 6.00 Build 0)  -->
<svg version="1.1" id="_x31_" xmlns="http://www.w3.org/2000/svg" xmlns:xlink="http://www.w3.org/1999/xlink" x="0px" y="0px"
	 viewBox="0 0 409 155" style="enable-background:new 0 0 409 155;" xml:space="preserve">
<style type="text/css">
	.st0{fill-rule:evenodd;clip-rule:evenodd;fill:#00A99E;}
</style>
<g>
	<g>
		<rect y="149" class="st0" width="409" height="6"/>
		<path class="st0" d="M51.3,121v1.1v8.8v0.7v1.5v14.6v4.9L53,155h-4.9h-7.6h-6.6l1.5-2.4h0v-19.1l-1-2.6h3.4h-1.1h-1.3
			c-0.3-3.9-3.6-6.9-7.5-6.9c-4,0-7.2,3.1-7.5,6.9h-1.3H18h3.4l-1,2.6v19.1h0l1.7,2.4h-6.8H8.2h-5l1.4-2.4v-4.9v-14.6v-1.5V131v-8.8
			V121v-3.1v-0.4l-4.1-3.2H0.4v-0.1V114h4.3v-3.1V110v-0.7v-0.5h46.6v0.5v0.7v0.9v3.1h4.3v0.1v0.2h-0.2l-4.1,3.2v0.4V121z"/>
		<path class="st0" d="M52.6,127.8v5v0.4v0.4h0.3v8.3v0.5v3.1v0.5v7.5v1v0.4h54.6v-0.4v-1v-7.5v-0.5v-3.1V142v-8.3h0.6v-0.4v-0.4v-5
			v-0.7h-0.8v-4.7v-11.3v-0.7v-10.2v-0.7V78.7h1.1v-1.4h-2.2v-2h-0.8v-0.6h-0.2l-0.9-1.5l-0.9-1.6l-0.9,1.6l-0.9,1.5h-0.2v0.6H88.6
			v2h-2.2v1.4h1.2v20.8v0.7v0.5h-5.4l-0.9-6.5l-0.2-1.7v-9.3h1.5v-1.1h-1.5V81H80v1.2h-1.5v1.1H80v9l-0.3,1.9l-0.9,6.5h-6v-0.5v-0.7
			V78.7h1.1v-1.4h-2.2v-2H59.1v-0.6h-0.2L58,73.1l-0.9-1.6l-0.9,1.6l-0.8,1.5h-0.3v0.6h-1v2h-2.2v1.4h1.2v20.8v0.7v10.2v0.7v11.3
			v4.7h-0.5V127.8z M72.8,102.8h6.1v3.8l-0.4,0.6l-2.1,3.3h-3.6v-0.1V102.8z M82.2,102.8h5.4v7.6v0.1h-2.9l-2-3.3l-0.4-0.6V102.8z
			 M73.8,119.5c0.2-3.3,2.7-5.9,5.9-6.1C76.5,113.7,73.9,116.3,73.8,119.5L73.8,119.5z M80.7,113.5c1.4,0.1,2.6,0.6,3.6,1.4
			C83.3,114.1,82.1,113.5,80.7,113.5L80.7,113.5z M104,111H90.9v-0.5V101H104v9.4V111z M99.3,102.6c0.5,0,0.9,0.3,0.9,0.6v6.8h-1.7
			v-6.8C98.4,102.8,98.8,102.6,99.3,102.6L99.3,102.6z M95.9,102.6c0.5,0,0.9,0.3,0.9,0.6v6.8H95v-6.8
			C95,102.8,95.4,102.6,95.9,102.6L95.9,102.6z M101.2,114.3h1.8v-1.8h-1.8V114.3z M91.9,114.3h1.8v-1.8h-1.8V114.3z M64.8,102.6
			c0.5,0,0.9,0.3,0.9,0.6v6.8H64v-6.8C64,102.8,64.3,102.6,64.8,102.6L64.8,102.6z M61.4,102.6c0.5,0,0.8,0.3,0.8,0.6v6.8h-1.7v-6.8
			C60.6,102.8,60.9,102.6,61.4,102.6L61.4,102.6z M66.8,114.3h1.8v-1.8h-1.8V114.3z M57.5,114.3h1.8v-1.8h-1.8V114.3z M104.1,153.7
			h-1.2v-12c0-3.7-5.4-6.7-5.4-6.7s-5.4,3-5.4,6.7v12h-1.8v-7.5v-0.5v-3.1V142v-8.3h13.8v8.3v0.5v3.1v0.5V153.7z M87,153.7h-1.4v-12
			c0-3.7-5.4-6.7-5.4-6.7s-5.4,3-5.4,6.7v12h-1.5v-7.5v-0.5v-3.1V142v-8.3H87v8.3v0.5v3.1v0.5V153.7z M69.9,153.7h-1.5v-12
			c0-3.7-5.4-6.7-5.4-6.7s-5.4,3-5.4,6.7v12h-1.4v-7.5v-0.5v-3.1V142v-8.3h13.7v8.3v0.5v3.1v0.5V153.7z"/>
		<path class="st0" d="M280.1,151.8h0.9l-6.8-13.2c-3.6-3.4-8.5-5.5-13.8-5.5c-4.9,0-9.3,1.8-12.8,4.7l-7.3,14.1h1.3v3.2h-17.2v-3.2
			h2.3l14.2-27.4v-4.1h3l5-14.4v-0.3h0.1l1.4-4.1h-0.5v-3.8h1.6v-0.7H249v-4.1h3.6c2.7-21,3.9-57,4.4-68.5h-0.1v-0.9h0.1l0-2.2h-0.6
			v-3.7h1.6v-4.6h1.9V6.3h0.6V0.4h0.7v5.9h0.7v6.5h1.9v4.6h1.7v3.7h-0.7l0.1,2.2h0.1v0.9h0c0.2,6.5,0.7,20.8,1.6,35.9l0,0.1l0,0
			c0.5,9.1,1.2,18.4,2,26.4c0.2,2.2,0.5,4.1,0.7,6h3.6v4.1h-2.4v0.7h1.5v3.8h-0.4l1.4,4.1l5.1,14.7h1.6v3.9l0.3-0.1l14.4,27.8h2.7
			v3.2h-17.2V151.8z M245.1,119.3L245.1,119.3l4.6-2.7L247,114L245.1,119.3z M247.7,111.9L247.7,111.9l4.1-2.7l-2.3-2.3L247.7,111.9
			z M250.1,105.1L250.1,105.1l3-1.9l-1.8-1.5L250.1,105.1z M270.7,101.4L270.7,101.4h-0.1l-1.7,1.6l3,1.8L270.7,101.4z M272.7,106.9
			L272.7,106.9l-2.1,2.2l3.7,2.3L272.7,106.9z M275.1,113.8L275.1,113.8l-2.9,2.8l4.9,2.8L275.1,113.8z M260.4,21.1L260.4,21.1
			l-1.1,0.9l-1.1-0.9H260.4z M259,22.3L259,22.3l-1.3,1l0.1-2L259,22.3z M258.4,23.3L258.4,23.3l0.9-0.8l0.8,0.8H258.4z M259.6,22.3
			L259.6,22.3l0.9-0.7v0v0v0.2v0v0.3v0v0.3v0.1v0.5L259.6,22.3z M260.5,24.3L260.5,24.3l-1.4,1.4l-1.4-1.5L260.5,24.3L260.5,24.3z
			 M258.8,26.1L258.8,26.1l-1.1,1.2l0-2.4L258.8,26.1z M257.7,27.9L257.7,27.9l1.5-1.5l1.3,1.5H257.7z M259.5,26L259.5,26l1.1-1.1
			v2.3L259.5,26z M260.5,28.8L260.5,28.8l-1.5,1.5l-1.3-1.5L260.5,28.8L260.5,28.8z M258.7,30.6L258.7,30.6l-1.2,1.3l0.1-2.6
			L258.7,30.6z M257.5,32.5L257.5,32.5l1.6-1.5l1.3,1.6L257.5,32.5L257.5,32.5z M259.4,30.6L259.4,30.6l1.2-1.2v2.5L259.4,30.6z
			 M260.5,33.5L260.5,33.5l-1.5,1.5l-1.4-1.5L260.5,33.5L260.5,33.5z M258.6,35.3L258.6,35.3l-1.3,1.3v-0.3l0.1-2.4L258.6,35.3z
			 M257.4,37.1L257.4,37.1l1.5-1.5l1.3,1.5H257.4z M259.3,35.3L259.3,35.3l1.3-1.2v2.5L259.3,35.3z M260.5,38.2L260.5,38.2l-1.5,1.3
			l-1.6-1.6h3l0.1,0V38.2z M258.6,39.9L258.6,39.9l-1.5,1.3l0.1-2.7L258.6,39.9z M257.2,41.7L257.2,41.7l1.8-1.5l1.5,1.5H257.2z
			 M259.3,39.9L259.3,39.9l1.3-1v1.1v0.2v0.3v0.1v0.4v0.2L259.3,39.9z M261.4,38.1L261.4,38.1l0.1-0.2h3l-1.5,1.6L261.4,38.1
			L261.4,38.1z M257.3,37.9L257.3,37.9L257.3,37.9L257.3,37.9z M260.5,42.6L260.5,42.6l-1.7,1.5l-1.5-1.5L260.5,42.6L260.5,42.6z
			 M258.5,44.4L258.5,44.4l-1.5,1.3L257,43L258.5,44.4z M256.9,46.2L256.9,46.2l1.9-1.5l1.5,1.6L256.9,46.2L256.9,46.2z M259.1,44.4
			L259.1,44.4l1.3-1.2v0.3v0.4v0.3v0.5v0.3v0.5v0.4v0L259.1,44.4z M260.4,47.2L260.4,47.2l-1.7,1.5l-1.5-1.6L260.4,47.2L260.4,47.2z
			 M258.3,49L258.3,49l-1.6,1.4l0.1-2.9L258.3,49z M256.9,50.9L256.9,50.9l1.8-1.5l1.5,1.5H256.9z M259,49L259,49l1.4-1.2v0.3v0.2
			V49v0.3l0,0.7v0.2v0.2L259,49z M257,47.1L257,47.1l-0.1,0.4L257,47.1L257,47.1z M260.2,51.7L260.2,51.7l-1.6,1.5l-1.5-1.5H260.2z
			 M258.2,53.5L258.2,53.5l-1.7,1.5l0.1-3.1L258.2,53.5z M256.8,55.5L256.8,55.5l1.8-1.6l1.7,1.6H256.8z M259,53.5L259,53.5l1.4-1.2
			l0,0.8v0.1v1v0.1l0,0.5L259,53.5z M260,56.3L260,56.3l-1.6,1.3l-1.3-1.3H260z M257.9,58.1L257.9,58.1l-1.7,1.4l0.2-3L257.9,58.1z
			 M256.5,60.1L256.5,60.1l1.9-1.6l1.5,1.6H256.5z M258.8,58.1L258.8,58.1l1.4-1.3v0.6l-0.1,2L258.8,58.1z M260.1,60.9L260.1,60.9
			l-1.7,1.4l-1.4-1.4H260.1z M257.9,62.7L257.9,62.7l-2,1.7l0.2-3.5L257.9,62.7z M256.6,64.6L256.6,64.6l1.7-1.5l1.5,1.5H256.6z
			 M258.8,62.7L258.8,62.7l1.3-1v0.2l0,0.2V63v0.3l0,0.7L258.8,62.7z M259.7,65.5L259.7,65.5l-1.6,1.3l-1.3-1.3H259.7z M257.6,67.3
			L257.6,67.3l-2,1.7l0.3-3.4L257.6,67.3z M256.2,69.2L256.2,69.2l1.8-1.5l1.5,1.5H256.2z M258.5,67.3L258.5,67.3L260,66l0,0.5v0.4
			l-0.1,1.7L258.5,67.3z M259.4,70.1L259.4,70.1l-1.7,1.4l-1.4-1.4H259.4z M257.1,71.9L257.1,71.9l-1.9,1.5l0.3-3.2L257.1,71.9z
			 M255.6,73.8L255.6,73.8l1.9-1.5l1.4,1.5H255.6z M258,71.9L258,71.9l1.7-1.3c0,1-0.1,2-0.2,2.9L258,71.9z M259.2,74.7L259.2,74.7
			l-1.7,1.3l-1.3-1.3H259.2z M257,76.4L257,76.4l-2.1,1.7c0.1-1.1,0.2-2.3,0.3-3.4h0.2L257,76.4z M255.6,78.4L255.6,78.4l1.9-1.5
			l1.5,1.5H255.6z M257.9,76.5L257.9,76.5l1.5-1.2c0,0.9-0.1,1.8-0.2,2.7L257.9,76.5z M258.5,79.3L258.5,79.3l-1.5,1.2l-1.1-1.2
			H258.5z M256.5,80.9L256.5,80.9l-2,1.5c0.1-1,0.2-2.1,0.3-3.2h0.2L256.5,80.9z M254.8,83L254.8,83l2.1-1.7l1.7,1.7H254.8z
			 M257.4,80.9L257.4,80.9l1.8-1.4c-0.1,1-0.1,2.1-0.3,3L257.4,80.9z M258.6,83.9L258.6,83.9l-2,1.5l-1.4-1.5H258.6z M256.1,85.8
			L256.1,85.8l-2,1.6h-0.1c0.1-1.1,0.2-2.3,0.3-3.5L256.1,85.8z M255.1,87.4L255.1,87.4l1.5-1.2l1.1,1.2H255.1z M257,85.9L257,85.9
			l1.7-1.4c-0.1,1-0.2,2-0.3,2.8L257,85.9z M258.2,88.3L258.2,88.3l-2.2,1.8l-1.7-1.8H258.2z M255.6,90.5L255.6,90.5l-2,1.6
			c0.1-1.1,0.3-2.2,0.4-3.4L255.6,90.5z M253.6,92.7L253.6,92.7l2.3-1.8l1.5,1.6v0l0,0.1H253.6z M256.4,90.5L256.4,90.5l1.8-1.4
			c-0.2,1-0.3,2-0.5,2.8L256.4,90.5z M261.6,21.1L261.6,21.1l1.1,0.9l1-0.9H261.6z M263,22.3L263,22.3l1.1,0.9l0-1.8L263,22.3z
			 M263.6,23.3L263.6,23.3l-0.9-0.8l-0.9,0.8H263.6z M262.4,22.3L262.4,22.3l-1-0.9v0.2v0v0.2v0v0.3v0v0.3v0.1v0.5L262.4,22.3z
			 M261.4,24.2L261.4,24.2l1.5,1.5l1.3-1.5v0H261.4z M263.2,26.1L263.2,26.1l1,1.1l0-2.1L263.2,26.1z M264.3,27.8L264.3,27.8
			l-1.3-1.4l-1.4,1.5L264.3,27.8L264.3,27.8z M262.6,26L262.6,26l-1.2-1.2v2.5L262.6,26z M261.5,28.8L261.5,28.8l1.5,1.5l1.2-1.5
			H261.5z M263.3,30.6L263.3,30.6l1.1,1.1l0-2.3L263.3,30.6z M264.4,32.3L264.4,32.3l-1.4-1.4l-1.3,1.6h2.7V32.3z M262.7,30.6
			L262.7,30.6l-1.3-1.3v2.9L262.7,30.6z M261.4,33.4L261.4,33.4l1.6,1.5l1.4-1.5H261.4z M263.4,35.3L263.4,35.3l1.2,1.1l-0.1-2.3
			L263.4,35.3z M264.6,37.1L264.6,37.1l-1.5-1.5l-1.3,1.5H264.6z M262.7,35.3L262.7,35.3l-1.3-1.3v2.8L262.7,35.3z M263.4,39.9
			L263.4,39.9l1.4,1.2l-0.1-2.5L263.4,39.9z M264.8,41.6L264.8,41.6l-1.7-1.5l-1.5,1.5L264.8,41.6L264.8,41.6z M262.7,39.9
			L262.7,39.9l-1.3-1.1v1.2v0.2v0.3v0.1v0.4v0.2v0L262.7,39.9z M261.5,42.6L261.5,42.6l1.8,1.5l1.5-1.5H261.5z M263.6,44.4
			L263.6,44.4l1.4,1.2l-0.1-2.4L263.6,44.4z M265,46.1L265,46.1l-1.7-1.5l-1.5,1.6h3.3L265,46.1z M262.9,44.4L262.9,44.4l-1.5-1.3
			v0.4v0.4v0.3v0.5v0.3v0.5v0.4v0.1L262.9,44.4z M261.5,47.1L261.5,47.1l1.9,1.6l1.6-1.6H261.5z M263.8,49L263.8,49l1.5,1.3
			l-0.1-2.6L263.8,49z M265.2,50.9L265.2,50.9l-1.8-1.5l-1.5,1.5H265.2z M263,49L263,49l-1.5-1.4v0.4v0.2V49v0.3l0,0.7v0.2v0.3
			L263,49z M261.9,51.7L261.9,51.7l1.5,1.5l1.5-1.5H261.9z M263.9,53.5L263.9,53.5l1.6,1.4l-0.1-2.8L263.9,53.5z M265.3,55.5
			L265.3,55.5l-1.8-1.6l-1.7,1.6H265.3z M263.1,53.5L263.1,53.5l-1.5-1.4l0,0.9v0.1v1v0.1l0,0.7L263.1,53.5z M262.1,56.3L262.1,56.3
			l1.6,1.3l1.3-1.3H262.1z M264.1,58.1L264.1,58.1l1.5,1.3l-0.1-2.7L264.1,58.1z M265.6,60.1L265.6,60.1l-1.8-1.6l-1.6,1.6H265.6z
			 M263.3,58.1L263.3,58.1l-1.6-1.4l0.1,0.7l0,2.2L263.3,58.1z M262,60.9L262,60.9l1.6,1.4l1.5-1.4H262z M264.1,62.7L264.1,62.7
			l1.9,1.6l-0.2-3.3L264.1,62.7z M265.4,64.6L265.4,64.6l-1.7-1.5l-1.5,1.5H265.4z M263.3,62.7L263.3,62.7l-1.5-1.2v0.3l0,0.2V63
			v0.3l0,0.9L263.3,62.7z M262.4,65.5L262.4,65.5l1.5,1.3l1.4-1.3H262.4z M264.4,67.3L264.4,67.3l1.9,1.5l-0.2-3.2L264.4,67.3z
			 M265.9,69.2L265.9,69.2l-1.8-1.5l-1.6,1.5H265.9z M263.6,67.3L263.6,67.3l-1.6-1.4l0,0.6v0.4l0,1.9L263.6,67.3z M262.7,70.1
			L262.7,70.1l1.8,1.4l1.3-1.4H262.7z M264.9,71.9L264.9,71.9l1.6,1.4l-0.2-2.9L264.9,71.9z M266.3,73.8L266.3,73.8l-1.9-1.5
			l-1.4,1.5H266.3z M264,71.9L264,71.9l-1.8-1.5c0,1.1,0.1,2.2,0.2,3.3L264,71.9z M262.8,74.7L262.8,74.7l1.7,1.3l1.3-1.3H262.8z
			 M265,76.4L265,76.4l2,1.6c-0.1-1.1-0.2-2.2-0.3-3.3h0L265,76.4z M266.5,78.4L266.5,78.4l-2-1.5l-1.4,1.5H266.5z M264.1,76.5
			L264.1,76.5l-1.7-1.4c0,1,0.1,2,0.2,2.9L264.1,76.5z M263.6,79.3L263.6,79.3l1.5,1.2l1.1-1.2H263.6z M265.6,80.9L265.6,80.9
			l1.8,1.5c-0.1-1-0.2-2-0.3-3.1h0L265.6,80.9z M267.3,83L267.3,83l-2.2-1.7l-1.6,1.7H267.3z M264.7,80.9L264.7,80.9l-2-1.6
			c0,1.2,0.2,2.3,0.3,3.4L264.7,80.9z M263.5,83.9L263.5,83.9l1.9,1.5l1.5-1.5H263.5z M265.9,85.8L265.9,85.8l2,1.6
			c-0.1-1.1-0.2-2.2-0.4-3.3L265.9,85.8z M266.9,87.4L266.9,87.4l-1.4-1.2l-1.1,1.2H266.9z M265,85.9L265,85.9l-1.9-1.5
			c0.1,1,0.2,2.1,0.4,3L265,85.9z M263.8,88.3L263.8,88.3l2.2,1.8l1.7-1.8H263.8z M266.5,90.5L266.5,90.5l1.9,1.5
			c-0.1-1-0.3-2-0.4-3.1L266.5,90.5z M268.4,92.7L268.4,92.7l-2.3-1.8l-1.7,1.8l0,0H268.4z M265.6,90.5L265.6,90.5l-1.9-1.5
			c0.1,1.1,0.3,2.1,0.5,3L265.6,90.5z M250.7,105.5L250.7,105.5h5.1l-2.1-1.8L250.7,105.5z M255.8,101.4L255.8,101.4l-2.2,1.4
			l-1.6-1.4H255.8z M254.1,103.3L254.1,103.3l2.9-1.9h0.4l-0.5,4.1h-0.2L254.1,103.3z M268.3,103.5L268.3,103.5l-2.1,2h5.6
			L268.3,103.5z M266,101.4L266,101.4l2.3,1.3l1.4-1.3H266z M267.8,103.2L267.8,103.2l-3.2-1.8l0.7,4.1L267.8,103.2z M248.2,112.6
			L248.2,112.6h7l-2.8-2.8L248.2,112.6z M256.1,106.3L256.1,106.3l-3.7,2.4l-2.4-2.4H256.1z M253.1,109.4L253.1,109.4l3.5-2.3
			l-0.8,5L253.1,109.4z M269.8,109.8L269.8,109.8l-2.9,2.9h7.5L269.8,109.8z M266.1,106.3L266.1,106.3l3.7,2.3l2.3-2.3H266.1z
			 M269.2,109.3L269.2,109.3l-3.7-2.3l0.8,4.9l0,0.4L269.2,109.3z M271.5,117.3L271.5,117.3l-3,2.9h7.8L271.5,117.3z M267.1,113.5
			L267.1,113.5l4.3,2.6l2.7-2.6H267.1z M270.7,116.9L270.7,116.9l-4-2.5l0.9,5.5L270.7,116.9z M245.5,120.2L245.5,120.2h7.9
			l-3.1-2.9L245.5,120.2z M254.7,113.5L254.7,113.5l-4.3,2.6l-2.7-2.6H254.7z M251.2,116.9L251.2,116.9l4.4-2.6l-0.9,5.9
			L251.2,116.9z M269.2,128.9L269.2,128.9v1.4c0.3,0.1,0.6,0.3,0.9,0.4L269.2,128.9z M268.8,130.1L268.8,130.1v-2l-0.6-1.1v2.9
			L268.8,130.1z M267.8,129.8L267.8,129.8v-3.5l-0.4-0.7h-0.2v4L267.8,129.8z M266.8,129.5L266.8,129.5v-3.9h-0.5v3.8L266.8,129.5z
			 M265.8,129.3L265.8,129.3v-3.7h-0.6v3.5L265.8,129.3z M264.8,129.1L264.8,129.1v-3.5h-0.6v3.4L264.8,129.1z M263.9,128.9
			L263.9,128.9v-3.3h-0.6v3.2L263.9,128.9z M262.9,128.7L262.9,128.7v-3.2h-0.6v3.1L262.9,128.7z M262,128.7L262,128.7v-3.1h-0.6
			v3.1L262,128.7z M261,128.6L261,128.6v-3.1h-0.6v3.1H261z M260,128.6L260,128.6v-3.1h-0.5v3.1H260z M259,128.6L259,128.6v-3.1
			h-0.6v3.1L259,128.6z M258,128.7L258,128.7v-3.2h-0.6v3.2L258,128.7z M257.1,128.8L257.1,128.8v-3.3h-0.6v3.3L257.1,128.8z
			 M256.1,129L256.1,129v-3.4h-0.6v3.5L256.1,129z M255.2,129.1L255.2,129.1v-3.6h-0.6v3.8L255.2,129.1z M254.2,129.4L254.2,129.4
			v-3.9h-0.4l-0.2,0.3v3.7L254.2,129.4z M253.2,129.7L253.2,129.7v-3l-0.5,1.1v2.1L253.2,129.7z M282.5,150.7L282.5,150.7l2.4-3
			l-5.1-2.3L282.5,150.7z M285.8,146.7L285.8,146.7l2.3-2.9h-8.7L285.8,146.7z M288.9,144.8L288.9,144.8l-2,2.5l4.3,1.9L288.9,144.8
			z M286.1,148.3L286.1,148.3l-2.8,3.5h9.3l-0.4-0.8L286.1,148.3z M278.3,142.5L278.3,142.5l2.6-1.9l-4.4-1.5L278.3,142.5z
			 M281.9,140L281.9,140l2.4-1.7h-7L281.9,140z M285.7,138.5L285.7,138.5l-2.7,1.9l4.4,1.6L285.7,138.5z M281.9,141.1L281.9,141.1
			l-2.8,1.9h8.1L281.9,141.1z M276.6,137.4L276.6,137.4h7.7l-5-1.8L276.6,137.4z M275.5,137.1L275.5,137.1l2.6-1.8l-4.4-1.6
			L275.5,137.1z M279.2,134.5L279.2,134.5l2.6-1.8h-7.5L279.2,134.5z M282.9,133.1L282.9,133.1l-2.6,1.8l4.4,1.6L282.9,133.1z
			 M272.8,131.9L272.8,131.9h9.5l-0.9-1.7h-9.5L272.8,131.9z M238.6,150.8L238.6,150.8l-2.4-3.1l5.2-2.3L238.6,150.8z M235.3,146.7
			L235.3,146.7l-2.3-2.9h8.7L235.3,146.7z M232.2,144.8L232.2,144.8l1.9,2.5l-4.1,1.8L232.2,144.8z M235,148.3L235,148.3l2.8,3.5
			h-9.2l0.4-0.9L235,148.3z M242.2,143.9L242.2,143.9l0.7-1.3l-2.7-1.9l4.4-1.6l-1.8,3.5L242.2,143.9z M239.1,140L239.1,140
			l-2.4-1.7h7L239.1,140z M235.5,138.5L235.5,138.5l2.6,1.8l-4.4,1.6L235.5,138.5z M239.1,141.1L239.1,141.1l2.8,1.9h-8.2
			L239.1,141.1z M244.6,137.4L244.6,137.4h-7.7l5-1.8L244.6,137.4z M281,129.4L281,129.4h-9.5l-2-3.8h9.5L281,129.4z M245.7,137.1
			L245.7,137.1l-2.7-1.9l4.5-1.6L245.7,137.1z M241.9,134.5L241.9,134.5l-2.6-1.8h7.5L241.9,134.5z M238.3,133.1L238.3,133.1
			l2.6,1.8l-4.3,1.5L238.3,133.1z M248.4,131.9L248.4,131.9h-9.5l0.9-1.7h9.5L248.4,131.9z M249.7,129.4L249.7,129.4h-9.5l2-3.8h9.5
			L249.7,129.4z M258.1,103.9L258.1,103.9h5.9l2.5,16.3h-11l1.3-8.3L258.1,103.9z M263.9,103L263.9,103h-5.7l0.3-1.6h5.1L263.9,103z
			 M252.2,130L252.2,130v-1.5l-1,1.9C251.6,130.2,251.9,130.1,252.2,130L252.2,130z M272.1,134.5L272.1,134.5l-0.5-1
			c-3.3-2-7.1-3-11.2-3c-3.8,0-7.3,1-10.4,2.6l-0.5,0.9c3.2-1.8,6.9-2.9,10.9-2.9C264.7,131.1,268.6,132.3,272.1,134.5L272.1,134.5z
			"/>
		<path class="st0" d="M176.9,116.3v3.2h0.4v0.6h-0.1c11.6,7.3,5.1,9.6,6.4,11c-2.2,0-4.4,0-6.7,0h-6.8c0.9-1.6-5.9-3.7,6.1-11h-0.1
			v-0.6h0.4v-3c-0.1,0-0.2,0-0.3,0c-0.5,0-1-0.3-1.1-0.8c0.2,0.2,0.5,0.3,0.8,0.3c0.7,0,1.3-0.5,1.3-1.2c0-0.1,0-0.3-0.1-0.4
			c0.3,0.2,0.4,0.5,0.4,0.9C177.5,115.7,177.3,116.1,176.9,116.3L176.9,116.3z M154.4,134c0.1-0.3-1-0.6,1-1.8
			c1.9,1.2,0.9,1.6,1.1,1.8C155.8,134,155.1,134,154.4,134L154.4,134z M154.3,136h2.2v-1.2h-2.2V136z M154.7,135.8L154.7,135.8h0.4
			v-0.7h-0.4V135.8z M155.7,135.8L155.7,135.8h0.4v-0.7h-0.4V135.8z M155.2,135.8L155.2,135.8h0.4v-0.7h-0.4V135.8z M154,134.7h2.8
			v-0.2H154V134.7z M154,134.3h2.8v-0.2H154V134.3z M154,136.4h2.8v-0.2H154V136.4z M154,136.7h2.8v-0.2H154V136.7z M154.2,136.7
			h2.3v5.6h-2.3V136.7z M156.5,142.7v4.9h-2.3v-4.9H156.5z M156.5,147.9v3h2.7V137l4.5-0.9v14.8h0.2v-17.2h0.6v-0.2h5.3v-1.6h14.2
			v1.3l0,0v0.3h5.4v0.2h0.5v17.2h0.3v-15l4.4,1.2v13.8h2.9v-3h2.2v3h4v-4.9h3.6v4.9h4.6v1.2h-70v-1.2h4.8v-4.9h3.7v4.9h4v-3H156.5z
			 M150,123.3c-0.2-0.4,1.5-0.9-1.7-2.9c-3.1,1.9-1.4,2.5-1.8,2.9C147.7,123.3,148.9,123.3,150,123.3L150,123.3z M150.1,126.7h-3.5
			v-1.9h3.5V126.7z M149.5,126.3L149.5,126.3h-0.6v-1.1h0.6V126.3z M147.9,126.3L147.9,126.3h-0.6v-1.1h0.6V126.3z M148.7,126.3
			L148.7,126.3h-0.6v-1.1h0.6V126.3z M150.7,124.7h-4.5v-0.5h4.5V124.7z M150.7,124h-4.5v-0.5h4.5V124z M150.7,127.3h-4.5v-0.5h4.5
			V127.3z M150.7,127.8h-4.5v-0.3h4.5V127.8z M211.8,155h-70v-2.4h70V155z M150.2,127.9h-3.7v9.1h3.7V127.9z M203.7,123.3
			c0.3-0.4-1.5-0.9,1.7-2.9c3.1,1.9,1.4,2.5,1.8,2.9C206,123.3,204.9,123.3,203.7,123.3L203.7,123.3z M207.2,126.7v-1.9h0.5v-0.6
			h-4.5v0.6h0.5v1.9h-0.5v0.5v0v0.5h0.5v9.1h3.6v-9.1h0.5v-0.5v0v-0.5H207.2z M204.3,126.3L204.3,126.3h0.6v-1.1h-0.6V126.3z
			 M205.9,126.3L205.9,126.3h0.6v-1.1h-0.6V126.3z M205.1,126.3L205.1,126.3h0.6v-1.1h-0.6V126.3z M203.1,124.2h4.5v-0.6h-4.5V124.2
			z M207.2,137.6v7.8h-3.6v-7.8H207.2z M170.5,150.9H183v-16.5h-12.5V150.9z M199.4,134c-0.1-0.3,1-0.6-1-1.8
			c-2,1.2-0.9,1.6-1.1,1.8C198,134,198.7,134,199.4,134L199.4,134z M199.5,136h-2.2v-1.2h2.2V136z M199.1,135.8L199.1,135.8h-0.4
			v-0.7h0.4V135.8z M198.1,135.8L198.1,135.8h-0.4v-0.7h0.4V135.8z M198.6,135.8L198.6,135.8h-0.4v-0.7h0.4V135.8z M199.8,134.8H197
			v-0.3h2.8V134.8z M199.8,134.3H197v-0.2h2.8V134.3z M199.8,136.4H197v-0.2h2.8V136.4z M199.8,136.7h-0.3v5.6h-2.2v-5.6H197v-0.2
			h2.8V136.7z M197.3,142.7v4.9h2.2v-4.9H197.3z M146.6,137.6v7.8h3.7v-7.8H146.6z M162.4,146.2v3.4l-2.3,0v-3.1
			c0-0.6,1.1-1.5,1.1-1.5C161.3,144.9,162.4,145.6,162.4,146.2L162.4,146.2z M162.4,140.6v3.3l-2.3,0.3v-3.3c0-0.6,1.1-1.6,1.1-1.6
			C161.3,139.2,162.4,139.9,162.4,140.6L162.4,140.6z M191.3,146.2v3.4l2.3,0v-3.1c0-0.6-1.1-1.5-1.2-1.5
			C192.4,144.9,191.3,145.6,191.3,146.2L191.3,146.2z M191.3,140.6v3.3l2.3,0.3v-3.3c0-0.6-1.1-1.6-1.2-1.6
			C192.4,139.2,191.3,139.9,191.3,140.6L191.3,140.6z M184.5,133.2c0.3-0.5-1.9-1.1,2.1-3.5h0h-0.1v-0.2h0.1v-0.8c0,0-0.1,0-0.1,0
			c-0.1,0-0.3-0.1-0.4-0.3c0,0,0.2,0.1,0.3,0.1c0.2,0,0.4-0.2,0.4-0.4c0,0,0-0.1,0-0.1c0.1,0,0.1,0.1,0.1,0.3c0,0.1,0,0.2-0.1,0.3
			v0.9h0.1v0.2h-0.1h-0.1c3.8,2.3,1.8,3,2.2,3.5H184.5z M177.9,141.3v2.6h2.6v-2.7c0-1.5-3.6-3.6-3.8-3.6c-0.2,0-3.8,2.1-3.8,3.6
			v2.7h2.6v-2.6c0-0.5,1.1-1.1,1.2-1.1C176.9,140.2,177.9,140.8,177.9,141.3L177.9,141.3z M177.9,147.1v2.5h-2.3v-2.5
			c0-0.5,1.1-1.1,1.2-1.1C176.9,145.9,177.9,146.6,177.9,147.1L177.9,147.1z M180.6,144.8H173v4.8H172v-13.8l0,0h9.7v13.8h-1V144.8z
			 M166,141.9h0.9v1.7H166V141.9z M166,147.9h0.9v1.7H166V147.9z M186.8,147.9h0.9v1.7h-0.9V147.9z M186.8,141.9h0.9v1.7h-0.9V141.9
			z M165.2,134.6L165.2,134.6h0.8v1.2h-0.8V134.6z M187.8,134.6L187.8,134.6h0.9v1.2h-0.9V134.6z M186.5,134.6L186.5,134.6h0.8v1.2
			h-0.8V134.6z M185.1,134.6L185.1,134.6h0.8v1.2h-0.8V134.6z M168,134.6L168,134.6h0.8v1.2H168V134.6z M166.6,134.6L166.6,134.6
			h0.8v1.2h-0.8V134.6z M185.6,144.7h1.3c-0.3,0.1-0.5,0.4-0.7,0.5c-0.3,0.2-0.6,0.6-0.6,1v3.6h3.5v-3.6c0-0.4-0.4-0.8-0.7-1
			c-0.1-0.1-0.4-0.3-0.7-0.5h1.4v-0.4h-3.4V144.7z M164.7,138.5h1.5c-0.3,0.1-0.8,0.5-0.9,0.6c-0.3,0.2-0.7,0.6-0.7,1v3.6h3.5v-3.6
			c0-0.4-0.4-0.8-0.7-1c-0.1-0.1-0.6-0.5-0.9-0.6h1.6v-0.4h-3.4V138.5z M164.7,144.7h1.3c-0.3,0.1-0.6,0.4-0.7,0.5
			c-0.3,0.2-0.7,0.6-0.7,1v3.6h3.5v-3.6c0-0.4-0.4-0.8-0.7-1c-0.1-0.1-0.4-0.3-0.6-0.5h1.3v-0.4h-3.4V144.7z M185.5,138.5h1.6
			c-0.3,0.1-0.8,0.5-0.9,0.6c-0.3,0.2-0.7,0.6-0.7,1v3.6h3.5v-3.6c0-0.4-0.4-0.8-0.7-1c-0.1-0.1-0.6-0.5-0.9-0.6h1.5v-0.4h-3.4
			V138.5z M167.1,128.1c0.1,0,0.1,0.1,0.1,0.3c0,0.1,0,0.2-0.1,0.3v0.9h0.1v0.2h-0.1h-0.1h0h-0.1v-0.2h0.1v-0.8c0,0-0.1,0-0.1,0
			c-0.1,0-0.3-0.1-0.4-0.3c0.1,0,0.2,0.1,0.3,0.1c0.2,0,0.4-0.2,0.4-0.4C167.2,128.1,167.2,128.1,167.1,128.1L167.1,128.1z
			 M167.1,129.7c3.8,2.3,1.9,3,2.2,3.5H165C165.3,132.7,163.1,132.1,167.1,129.7L167.1,129.7z"/>
		<path class="st0" d="M227.2,84.1h-0.8v-3.5v-2.3l-0.1,0.1l-0.1-0.1v1.9l-0.2-0.2l-0.2,0.3l-0.2,0.3l-0.2-0.3l-0.2-0.3l-0.2,0.3
			l-0.2,0.3l-0.2-0.3l-0.2-0.3l-0.2,0.3l-0.2,0.3l-0.2-0.3l-0.2-0.3l-0.2,0.3l-0.2,0.3l-0.2-0.3l-0.2-0.3l-0.2,0.3l-0.2,0.3
			l-0.2-0.3l-0.2-0.3l-0.2,0.3l-0.2,0.3l-0.2-0.3l-0.2-0.3l-0.2,0.3l-0.2,0.3l-0.2-0.3l-0.2-0.3l-0.2,0.3l-0.2,0.3l-0.2-0.3
			l-0.2-0.3l-0.2,0.3l-0.2,0.3l-0.2-0.3l-0.2-0.3l-0.2,0.3l-0.2,0.3l-0.2-0.3l-0.2-0.3l-0.2,0.3l-0.2,0.3l-0.2-0.3l-0.2-0.3
			l-0.2,0.3l-0.2,0.3l-0.2-0.3l-0.2-0.3l-0.2,0.3l-0.2,0.3l-0.2-0.3l-0.2-0.3l-0.2,0.3l-0.2,0.3l-0.2-0.3l-0.2-0.3l-0.2,0.3
			l-0.2,0.3l-0.2-0.3l-0.2-0.3l-0.2,0.3l-0.2,0.3l-0.2-0.3l-0.2-0.3l-0.2,0.3l-0.2,0.3l-0.2-0.3l-0.2-0.3l-0.2,0.3v-1.9l-0.1,0.1
			l-0.1-0.1v2.3v3.5h-0.8v-2.3l-0.1,0.1l-0.1-0.1v2.3v16.6h16.6V84.1v-2.3l-0.1,0.1l-0.1-0.1V84.1z M227.7,155h-17.6v-10.5h17.6V155
			z M225.9,143.7v-9.8h-0.7v9.8h-0.5v-9.8h-0.8v9.8h-0.5v-9.8h-0.7v9.8H222v-9.8h-0.7v9.8h-0.6v-9.8H220v9.8h-0.6v-9.8h-0.7v9.8
			h-0.6v-9.8h-0.7v9.8h-0.5v-9.8H216v9.8h-0.5v-9.8h-0.7v9.8h-0.6v-9.8h-0.7v9.8h-0.6v-9.8h-0.7v9.8h-0.6v-20.3h15v20.3H225.9z
			 M225.2,133.4h0.7v-9.5h-0.7V133.4z M212.1,133.4h0.7v-9.5h-0.7V133.4z M213.5,133.4h0.7v-9.5h-0.7V133.4z M214.8,133.4h0.7v-9.5
			h-0.7V133.4z M216,133.4h0.8v-9.5H216V133.4z M217.4,133.4h0.7v-9.5h-0.7V133.4z M218.7,133.4h0.7v-9.5h-0.7V133.4z M220,133.4
			h0.7v-9.5H220V133.4z M221.3,133.4h0.7v-9.5h-0.7V133.4z M222.6,133.4h0.7v-9.5h-0.7V133.4z M223.9,133.4h0.8v-9.5h-0.8V133.4z
			 M212.5,77.8l-0.5-0.5l-0.5,0.5l0.5,0.5L212.5,77.8z M226.7,77.8l-0.5-0.5l-0.5,0.5l0.5,0.5L226.7,77.8z M227.7,81.3l-0.5-0.5
			l-0.5,0.5l0.5,0.5L227.7,81.3z M211.4,81.3l-0.5-0.5l-0.5,0.5l0.5,0.5L211.4,81.3z M211.8,77.3V77h0.3v0.3l-0.1-0.1L211.8,77.3z
			 M226.1,77.3V77h0.2v0.3l-0.1-0.1L226.1,77.3z M210.8,80.9v-0.4h0.2v0.3l-0.1-0.1L210.8,80.9z M227.2,80.8v-0.3h0.2v0.4
			L227.2,80.8L227.2,80.8z M215.5,74.7l-2.2,5.4l0,0l0,0.1l0.4-0.6l0.3,0.5l0.1,0.1l0.1-0.1l0.3-0.5l0.4,0.6l0.1-0.1l0.3-0.5
			l0.3,0.5l0.1,0.1l0.4-0.6l0.4,0.5l0,0.1l0.1-0.1l0.3-0.5l0.3,0.5l0.1,0.1l0.1-0.1l0.3-0.5l0.3,0.5l0.1,0.1l0.1-0.1l0.3-0.5
			l0.3,0.5l0.1,0.1l0-0.1l0.3-0.5l0.4,0.5l0,0.1l0.4-0.6l0.3,0.5l0.1,0.1l0.1-0.1l0.3-0.5l0.4,0.6l0.1-0.1l0.3-0.5l0.3,0.5l0.1,0.1
			l0.4-0.6l0.4,0.5l0,0.1l0.4-0.6l0.3,0.5l0.1,0.1l0.1-0.1l0.3-0.5l0.4,0.6l0-0.1l0,0l-2.2-5.4H215.5z M216.3,78.4l-0.5-0.8
			l-0.1-0.2l-0.6,1l0.2,0.1l0.4-0.7l0.4,0.7L216.3,78.4z M219.7,76.6l-0.5-0.8l-0.1-0.2l-0.6,1l0.2,0.1l0.4-0.7l0.4,0.7L219.7,76.6z
			 M221.9,76.6l-0.5-0.8l-0.1-0.2l-0.6,1l0.2,0.1l0.4-0.7l0.4,0.7L221.9,76.6z M223.1,78.4l-0.5-0.8l-0.1-0.2l-0.5,1l0.1,0.1
			l0.4-0.7l0.4,0.7L223.1,78.4z M220.8,78.4l-0.4-0.8l-0.1-0.2l-0.6,1l0.2,0.1l0.4-0.7l0.4,0.7L220.8,78.4z M218.5,78.4l-0.4-0.8
			l-0.1-0.2l-0.6,1l0.2,0.1l0.4-0.7l0.4,0.7L218.5,78.4z M217.6,76.6l-0.4-0.8l-0.1-0.2l-0.6,1l0.2,0.1l0.4-0.7l0.4,0.7L217.6,76.6z
			 M214.1,81.3h-1.6v2.2h1.6V81.3z M225.5,81.3h-1.6v2.2h1.6V81.3z M223.3,81.3h-1.7v2.2h1.7V81.3z M221,81.3h-1.7v2.2h1.7V81.3z
			 M218.7,81.3H217v2.2h1.7V81.3z M216.4,81.3h-1.6v2.2h1.6V81.3z M219.8,61h-1.3v-1h1.3V61z M215.5,68.3l-0.5-0.5l-0.5,0.5l0.5,0.5
			L215.5,68.3z M223.7,68.3l-0.5-0.5l-0.5,0.5l0.5,0.5L223.7,68.3z M222.9,70.2l-0.2,0.4l-0.2,0.4h0l-0.1-0.4l-0.2-0.4l-0.2,0.4
			l-0.1,0.4l0,0l-0.2-0.4l-0.2-0.4l-0.2,0.4L221,71l0,0l-0.2-0.4l-0.2-0.4l-0.2,0.4l-0.2,0.4l0,0l-0.2-0.4l-0.2-0.4l-0.2,0.4
			l-0.1,0.4h0l-0.2-0.4l-0.2-0.4l-0.2,0.4l-0.1,0.4h0l-0.2-0.4l-0.2-0.4l-0.2,0.4L218,71h0l-0.2-0.4l-0.2-0.4l-0.2,0.4l-0.1,0.4h0
			l-0.2-0.4l-0.2-0.4l-0.2,0.4l-0.2,0.4l0,0l-0.1-0.4l-0.2-0.4l-0.2,0.4l-0.1,0.4h0l-0.1-0.4l-0.2-0.4l-0.1,0.2v-1.6L215,69
			l-0.1-0.1V71l0,0v3.5h8.5V71l0,0v-2.1l-0.1,0.1l-0.1-0.1v1.6L222.9,70.2z M219.1,59.5c0,0.1,0,0.3,0,0.4h0
			C219.1,59.7,219.1,59.6,219.1,59.5L219.1,59.5z M218.9,61.1c-0.5,3.1-2,5.9-2.9,8.8v0l0.4,0.6l0,0.1l0.4-0.7l0.4,0.6l0,0.1l0-0.1
			l0.4-0.6l0.4,0.7l0-0.1l0.4-0.6l0.4,0.7l0-0.1l0.4-0.6l0.3,0.6l0,0.1l0-0.1l0.4-0.6l0.4,0.7l0-0.1l0.4-0.6l0.4,0.7l0-0.1l0.4-0.6
			l0.3,0.6l0.1,0.1l0-0.1l0.3-0.6c0.1-0.1-2.8-7.5-2.9-8.8H218.9z M219.7,65.4l-0.5-0.7l-0.1-0.2l-0.6,1l0.2,0.1l0.4-0.7l0.4,0.7
			L219.7,65.4z M217.9,69.3l-0.4-0.8l-0.1-0.2l-0.6,1l0.2,0.1l0.4-0.7l0.4,0.7L217.9,69.3z M219.7,69.3l-0.5-0.8l-0.1-0.2l-0.6,1
			l0.2,0.1l0.4-0.7l0.4,0.7L219.7,69.3z M221.4,69.3l-0.5-0.8l-0.1-0.2l-0.6,1l0.2,0.1l0.4-0.7l0.4,0.7L221.4,69.3z M218.7,67.4
			l-0.5-0.8l-0.1-0.2l-0.5,1l0.2,0.1l0.4-0.7l0.4,0.7L218.7,67.4z M220.7,67.4l-0.5-0.8l-0.1-0.2l-0.6,1l0.1,0.1l0.5-0.7l0.4,0.7
			L220.7,67.4z M214.9,67.7v-0.3h0.3v0.3l-0.1-0.1L214.9,67.7z M223.1,67.7v-0.3h0.3v0.3l-0.1-0.1L223.1,67.7z M216.6,71.6h-1.3v2.3
			h1.3V71.6z M222.9,71.6h-1.3v2.3h1.3V71.6z M221.3,71.6H220v2.3h1.3V71.6z M219.8,71.6h-1.3v2.3h1.3V71.6z M218.2,71.6h-1.3v2.3
			h1.3V71.6z M225.3,122.3h0.7V112h-0.7V122.3z M212.2,122.3h0.7V112h-0.7V122.3z M213.5,122.3h0.7V112h-0.7V122.3z M214.8,122.3
			h0.7V112h-0.7V122.3z M216.1,122.3h0.7V112h-0.7V122.3z M217.5,122.3h0.7V112h-0.7V122.3z M218.7,122.3h0.8V112h-0.8V122.3z
			 M220,122.3h0.7V112H220V122.3z M221.4,122.3h0.7V112h-0.7V122.3z M222.7,122.3h0.7V112h-0.7V122.3z M224,122.3h0.7V112H224V122.3
			z M225.3,111.4h0.7v-9.5h-0.7V111.4z M212.2,111.4h0.7v-9.5h-0.7V111.4z M213.5,111.4h0.7v-9.5h-0.7V111.4z M214.8,111.4h0.7v-9.5
			h-0.7V111.4z M216.1,111.4h0.7v-9.5h-0.7V111.4z M217.5,111.4h0.7v-9.5h-0.7V111.4z M218.7,111.4h0.8v-9.5h-0.8V111.4z M220,111.4
			h0.7v-9.5H220V111.4z M221.4,111.4h0.7v-9.5h-0.7V111.4z M222.7,111.4h0.7v-9.5h-0.7V111.4z M224,111.4h0.7v-9.5H224V111.4z
			 M226.6,101.5h-14.9v21.2h14.9V101.5z M213.5,99.2h-0.9v0.9h0.9V99.2z M225.5,99.2h-0.9v0.9h0.9V99.2z M224.4,99.2h-0.9v0.9h0.9
			V99.2z M223.3,99.2h-0.9v0.9h0.9V99.2z M222.2,99.2h-0.9v0.9h0.9V99.2z M221.1,99.2h-0.9v0.9h0.9V99.2z M220,99.2h-0.9v0.9h0.9
			V99.2z M218.9,99.2h-0.9v0.9h0.9V99.2z M217.9,99.2H217v0.9h0.9V99.2z M216.8,99.2H216v0.9h0.8V99.2z M215.7,99.2h-0.9v0.9h0.9
			V99.2z M214.6,99.2h-0.9v0.9h0.9V99.2z M219.1,92.9c-0.1,0-0.2,0-0.3,0l-0.3,0.3c0,0.2,0,0.3-0.1,0.4c0,0-0.1,0-0.2,0
			c-0.1-0.1-0.1-0.1-0.2-0.3c-0.1,0-0.1-0.1,0-0.2c0.1-0.1,0.2-0.1,0.4-0.1l0.4-0.3c-0.1,0-0.1-0.2-0.1-0.3c0,0,0-0.1,0-0.1
			l-3.3-3.5c0,0,0,0,0-0.1h0.1c0,0,0,0,0,0l3.4,3.2c0,0,0.1,0,0.2,0c0.1,0,0.2,0,0.3,0.1l0.5-0.5c0,0-0.1,0-0.1-0.1
			c-0.1,0-0.1-0.2,0-0.2c0.1-0.1,0.3-0.1,0.5-0.1l0.1-0.1v-0.2h0.3v0.3h-0.2l-0.1,0.1c0,0.2,0,0.5-0.1,0.5c-0.1,0-0.2,0-0.3,0
			c0,0,0,0,0,0l-0.5,0.5c0,0.1,0.1,0.2,0.1,0.3c0,0.1,0,0.1,0,0.2c0.1,0.2,0.4,0.4,0.7,0.5c0,0,0,0,0,0c0,0,0,0.1,0,0.1
			c-0.1,0-0.1,0-0.1,0.1c0,0,0,0,0,0.1c0,0,0,0.1,0,0.1c-0.1,0-0.1,0-0.1,0c0,0-0.1,0-0.1,0.1h0c0,0,0,0-0.1,0
			C219.7,93.2,219.5,93,219.1,92.9C219.2,92.9,219.2,92.9,219.1,92.9L219.1,92.9z M219,87.6c-0.1,0-0.2,0-0.3,0l0-0.6h0
			c0.1,0,0.3,0,0.4,0V87.6z M218.4,87.6c-0.1,0-0.3,0-0.4,0.1l-0.1-0.6l0,0c0.1,0,0.3-0.1,0.5-0.1l0,0L218.4,87.6z M217.8,87.8
			c-0.1,0-0.2,0.1-0.3,0.1l-0.2-0.5c0.1,0,0.3-0.1,0.4-0.1l0,0L217.8,87.8z M217.3,88c-0.1,0.1-0.3,0.1-0.4,0.2l-0.3-0.5
			c0.1-0.1,0.3-0.2,0.5-0.2L217.3,88z M216.6,88.3c-0.1,0.1-0.2,0.1-0.3,0.2L216,88c0.1,0,0.2-0.1,0.4-0.2L216.6,88.3z M216.2,88.6
			c-0.1,0.1-0.1,0.1-0.2,0.2l0.1,0.1C216.1,88.8,216.2,88.7,216.2,88.6L216.2,88.6L216.2,88.6l0.1,0c0.1-0.1,0.2-0.2,0.4-0.3l0,0h0
			l1,1.7c-0.1,0-0.2,0.1-0.2,0.1l0.1,0.1c0.4-0.4,1-0.5,1.6-0.5c0.6,0,1.3,0.3,1.7,0.7h0.2l0,0c-0.1-0.1-0.3-0.3-0.5-0.4l0.9-1.7h0
			l0,0c0.2,0.1,0.3,0.2,0.5,0.4l0,0l0,0c0.1,0.1,0.2,0.2,0.3,0.3c0.1,0.1,0.2,0.3,0.4,0.4v0l0,0c0.1,0.1,0.2,0.2,0.2,0.4l-1.6,1
			c-0.1-0.1-0.2-0.3-0.3-0.5v0.2c0.4,0.4,0.6,1,0.6,1.7c0,0.7-0.3,1.4-0.8,1.9c-0.5,0.5-1.1,0.8-1.8,0.8c-0.7,0-1.4-0.3-1.9-0.8
			c-0.5-0.5-0.8-1.1-0.8-1.9c0-0.6,0.2-1.1,0.5-1.5l-0.1-0.1c0,0-0.1,0.1-0.1,0.2l-1.6-1c0.1-0.2,0.2-0.4,0.4-0.5v0l0,0
			c0,0,0,0,0.1-0.1l-0.1-0.1c0,0,0,0.1-0.1,0.1l-0.5-0.4c0.1,0,0.1-0.1,0.2-0.2v0c0,0,0,0,0-0.1v-0.1l0.1,0c0-0.1,0.1-0.1,0.2-0.1
			c0.1-0.1,0.2-0.1,0.3-0.2l0,0L216.2,88.6z M215.4,89.4L215.4,89.4L215,89l0,0l0,0L215.4,89.4L215.4,89.4z M215.3,89.5
			c-0.1,0.1-0.2,0.2-0.2,0.4l-0.3-0.2l-0.3-0.1l0,0c0.1-0.1,0.2-0.3,0.3-0.4h0L215.3,89.5z M215,90c0,0.1-0.1,0.2-0.1,0.3l-0.6-0.3
			c0-0.1,0.1-0.2,0.2-0.3l0,0L215,90z M214.7,90.6c0,0.1-0.1,0.3-0.1,0.4l-0.5-0.2h0c0-0.2,0.1-0.3,0.2-0.5l0,0L214.7,90.6z
			 M214.5,91.1L214.5,91.1L214,91l0,0l0,0L214.5,91.1z M214.5,91.2c0,0.1,0,0.2-0.1,0.3l-0.6-0.1c0-0.1,0-0.3,0.1-0.4v0L214.5,91.2z
			 M214.4,91.6L214.4,91.6l-0.5,0l0,0v0L214.4,91.6z M214.4,91.8c0,0.1,0,0.3,0,0.4h-0.6c0-0.2,0-0.3,0-0.5L214.4,91.8z M214.4,92.5
			c0,0.1,0,0.2,0,0.3l-0.6,0l0,0c0-0.1,0-0.2,0-0.4H214.4z M214.4,93c0,0.1,0,0.3,0.1,0.5l-0.6,0.1l0,0c0-0.2-0.1-0.3-0.1-0.5l0,0
			L214.4,93z M214.5,93.5L214.5,93.5L214.5,93.5l-0.5,0.1l0,0L214.5,93.5z M214.5,93.7c0,0.1,0.1,0.2,0.1,0.3l-0.6,0.2v0
			c0-0.1-0.1-0.3-0.1-0.4h0L214.5,93.7z M214.7,94.1L214.7,94.1L214.7,94.1l-0.5,0.2l0,0v0L214.7,94.1z M214.8,94.2
			c0,0.1,0.1,0.3,0.2,0.4l-0.5,0.3l0,0c-0.1-0.1-0.1-0.3-0.2-0.5l0,0L214.8,94.2z M215.1,94.8c0,0.1,0.1,0.2,0.2,0.2l-0.5,0.4l0,0
			c0-0.1-0.1-0.2-0.2-0.3l0,0L215.1,94.8z M215.4,95.2c0.1,0.1,0.2,0.2,0.3,0.4l-0.4,0.5h0c-0.1-0.1-0.2-0.3-0.3-0.4l0,0L215.4,95.2
			z M215.9,95.8c0.1,0,0.1,0.1,0.2,0.2l-0.4,0.5h0c-0.1-0.1-0.2-0.2-0.3-0.3l0,0L215.9,95.8z M216.3,96.1c0.1,0.1,0.2,0.1,0.4,0.2
			l-0.3,0.5h0c-0.1-0.1-0.3-0.2-0.4-0.3l0,0L216.3,96.1z M216.9,96.5c0.1,0,0.2,0.1,0.3,0.1l-0.2,0.5c-0.1,0-0.3-0.1-0.4-0.2l0,0
			L216.9,96.5z M217.4,96.7c0.1,0,0.3,0.1,0.4,0.1l-0.1,0.6l0,0c-0.2,0-0.4-0.1-0.5-0.1L217.4,96.7z M217.9,96.9L217.9,96.9
			L217.9,96.9l-0.1,0.5l0,0h0L217.9,96.9z M218,96.9c0.1,0,0.2,0,0.3,0l-0.1,0.6l0,0c-0.1,0-0.3,0-0.4,0l0,0L218,96.9z M218.4,97
			L218.4,97l0,0.5l0,0L218.4,97z M218.5,97c0.1,0,0.3,0,0.5,0v0.6c-0.2,0-0.4,0-0.5,0l0,0L218.5,97z M219.2,97.1c0.1,0,0.2,0,0.3,0
			l0.1,0.6v0c-0.1,0-0.3,0-0.4,0V97.1z M219.8,97c0.1,0,0.3,0,0.4-0.1l0.1,0.6l0,0c-0.1,0-0.3,0-0.5,0.1l0,0L219.8,97z M220.4,96.9
			L220.4,96.9l0.1,0.5l0,0h0L220.4,96.9L220.4,96.9z M220.4,96.9c0.1,0,0.2,0,0.3-0.1l0.2,0.5v0c-0.1,0-0.2,0.1-0.4,0.1l0,0
			L220.4,96.9z M220.9,96.7L220.9,96.7l0.2,0.5l0,0L220.9,96.7z M221,96.7c0.1,0,0.3-0.1,0.4-0.2l0.3,0.5v0c-0.1,0-0.3,0.1-0.5,0.2
			v0L221,96.7z M221.6,96.4c0.1,0,0.2-0.1,0.3-0.2l0.4,0.5c-0.1,0.1-0.2,0.1-0.3,0.2l0,0L221.6,96.4z M221.9,96.1L221.9,96.1
			L221.9,96.1l0.3,0.4l0,0L221.9,96.1z M222,96c0.1-0.1,0.2-0.2,0.3-0.3l0.5,0.4l0,0c-0.1,0.1-0.3,0.3-0.4,0.4l0,0L222,96z
			 M222.5,95.6c0.1-0.1,0.1-0.2,0.2-0.2l0.5,0.4c0,0.1-0.1,0.2-0.2,0.3L222.5,95.6z M222.9,95.1c0.1-0.1,0.2-0.2,0.2-0.4l0.5,0.3
			c-0.1,0.2-0.2,0.3-0.3,0.5h0L222.9,95.1z M223.3,94.6c0-0.1,0.1-0.2,0.1-0.3l0.6,0.2c-0.1,0.1-0.1,0.2-0.2,0.4h0L223.3,94.6z
			 M223.5,94.1c0-0.1,0.1-0.3,0.1-0.4l0.6,0.1h0c-0.1,0.2-0.1,0.4-0.2,0.5L223.5,94.1z M223.7,93.4c0-0.1,0-0.2,0-0.3l0.6,0.1
			c0,0.1,0,0.2-0.1,0.4l0,0L223.7,93.4z M223.8,93L223.8,93l0.5,0.1l0,0h0L223.8,93z M223.8,92.9c0-0.1,0-0.3,0-0.4h0.6
			c0,0.2,0,0.3,0,0.5L223.8,92.9z M223.8,92.2c0-0.1,0-0.2,0-0.3l0.6-0.1l0,0c0,0.1,0,0.2,0,0.4H223.8z M223.8,91.8L223.8,91.8
			L223.8,91.8l0.5-0.1l0,0v0L223.8,91.8z M223.8,91.6c0-0.1,0-0.3-0.1-0.4l0.6-0.1v0c0,0.2,0.1,0.4,0.1,0.5l0,0L223.8,91.6z
			 M223.7,91c0-0.1-0.1-0.2-0.1-0.3l0.6-0.2l0,0c0,0.1,0.1,0.2,0.1,0.4l0,0L223.7,91z M223.5,90.5L223.5,90.5l0.5-0.2l0,0v0
			L223.5,90.5z M223.4,90.5c0-0.1-0.1-0.3-0.2-0.4l0.5-0.3h0c0.1,0.1,0.1,0.3,0.2,0.5L223.4,90.5z M223.1,89.9
			c0-0.1-0.1-0.2-0.1-0.3l0.5-0.4c0.1,0.1,0.2,0.2,0.2,0.3L223.1,89.9z M222.8,89.4c-0.1-0.1-0.2-0.2-0.3-0.3l0.5-0.4
			c0.1,0.1,0.2,0.3,0.3,0.4v0L222.8,89.4z M222.3,88.9c0-0.1-0.1-0.2-0.2-0.2l0.4-0.5c0.1,0.1,0.2,0.2,0.3,0.3L222.3,88.9z
			 M222,88.6L222,88.6l0.4-0.4l0,0L222,88.6L222,88.6z M221.9,88.6c-0.1-0.1-0.2-0.2-0.4-0.3l0.3-0.5c0.1,0.1,0.3,0.2,0.4,0.3
			L221.9,88.6z M221.4,88.2c-0.1-0.1-0.2-0.1-0.3-0.2l0.2-0.5l0,0c0.1,0,0.2,0.1,0.4,0.2L221.4,88.2z M220.9,87.9
			c-0.1,0-0.3-0.1-0.4-0.1l0.2-0.6l0,0c0.1,0,0.3,0.1,0.5,0.2l0,0L220.9,87.9z M220.2,87.7c-0.1,0-0.2,0-0.3-0.1l0.1-0.6
			c0.1,0,0.3,0,0.4,0.1l0,0L220.2,87.7z M219.8,87.6L219.8,87.6L219.8,87.6l0-0.5l0,0L219.8,87.6z M219.7,87.6c-0.1,0-0.3,0-0.5,0
			V87c0.2,0,0.4,0,0.5,0L219.7,87.6z M216.9,88.3c0.1-0.1,0.2-0.1,0.4-0.2h0l0.1,0l0,0c0.1,0,0.2-0.1,0.4-0.1h0l0.1,0h0.1
			c0.1,0,0.3,0,0.4-0.1l0,0h0h0.1h0v0c0.1,0,0.2,0,0.3,0v1.9c-0.4,0-0.8,0.1-1.1,0.3L216.9,88.3z M219.2,87.7c0.1,0,0.3,0,0.4,0l0,0
			h0h0.1h0c0.1,0,0.2,0,0.3,0.1l0,0h0l0.1,0h0c0.1,0,0.3,0.1,0.4,0.1v0h0c0,0,0.1,0,0.1,0l0,0l0,0l0,0c0.1,0,0.2,0.1,0.3,0.1l-1,1.6
			c-0.4-0.2-0.7-0.3-1.1-0.3V87.7z M223.2,90.1c0.1,0.1,0.1,0.3,0.2,0.4l0,0l0,0c0,0,0,0.1,0,0.1v0l0,0c0,0.1,0.1,0.3,0.1,0.5l0,0
			l0,0c0.1,0.3,0.1,0.6,0.1,1h-1.9c0-0.4-0.1-0.8-0.3-1.1L223.2,90.1z M223.7,92.5c0,0.1,0,0.3,0,0.4l0,0l0,0c0,0.2,0,0.4-0.1,0.5
			l0,0l0,0c-0.1,0.4-0.2,0.8-0.4,1.1l-1.7-1c0.2-0.4,0.3-0.7,0.3-1.1H223.7z M223,94.7c0,0.1-0.1,0.3-0.2,0.4l-0.1,0.1l0,0l0,0
			c-0.1,0.1-0.1,0.2-0.2,0.2l-0.1,0l0,0.1l0,0l-0.1,0h0c-0.1,0.1-0.2,0.2-0.3,0.3h0v0l0,0c-0.1,0.1-0.2,0.1-0.4,0.2l-1-1.7
			c0.1-0.1,0.3-0.2,0.5-0.4c0.1-0.1,0.3-0.3,0.4-0.5L223,94.7L223,94.7L223,94.7z M221.3,96.4c-0.1,0-0.2,0.1-0.4,0.2v0l-0.1,0l0,0
			l-0.1,0l0,0l0,0c-0.1,0-0.2,0-0.3,0.1l0,0h0c0,0-0.1,0-0.2,0h0l0,0c-0.2,0-0.3,0.1-0.5,0.1h-0.1l0,0c-0.1,0-0.2,0-0.4,0V95
			c0.4,0,0.8-0.1,1.1-0.3L221.3,96.4z M219,96.9c-0.1,0-0.3,0-0.4,0l0,0l0,0c0,0-0.1,0-0.1,0h0h0c-0.1,0-0.2,0-0.3-0.1l0,0l0,0
			c-0.2,0-0.5-0.1-0.7-0.2h0l0,0c-0.1,0-0.3-0.1-0.4-0.2l1-1.7c0.4,0.2,0.7,0.3,1.1,0.3V96.9z M216.7,96.3c-0.1,0-0.2-0.1-0.4-0.2h0
			l0,0l-0.1,0v0h0l0,0c0-0.1-0.1-0.1-0.2-0.2h0l0,0l-0.1-0.1l-0.1,0c-0.1-0.1-0.2-0.2-0.3-0.3h0h0l-0.1-0.1l0,0
			c0-0.1-0.1-0.2-0.1-0.3l0,0l0,0h0l1.7-1c0.1,0.2,0.2,0.3,0.4,0.5c0.1,0.1,0.3,0.3,0.5,0.4L216.7,96.3L216.7,96.3L216.7,96.3z
			 M215,94.5c-0.1-0.1-0.1-0.3-0.2-0.5l0,0h0c0-0.1-0.1-0.3-0.1-0.5l0,0l0,0c0-0.1,0-0.1,0-0.2l0,0l0,0c-0.1-0.3-0.1-0.6-0.1-1h1.9
			c0,0.4,0.1,0.8,0.3,1.1L215,94.5z M214.5,92.2c0-0.1,0-0.3,0-0.5l0,0l0,0c0-0.1,0-0.1,0-0.2l0,0l0,0c0-0.1,0-0.2,0.1-0.3l0,0l0,0
			c0-0.1,0-0.1,0-0.2v0l0,0c0-0.1,0.1-0.3,0.1-0.4l0,0l0-0.1v0c0,0,0,0,0-0.1l0,0l0,0c0-0.1,0.1-0.2,0.1-0.3l1.7,1
			c-0.2,0.4-0.3,0.7-0.3,1.1H214.5z M225.3,86.1h-6.1c3.4,0,6.1,2.8,6.1,6.2V86.1z M220.4,87.2L220.4,87.2L220.4,87.2l-0.1,0.5
			L220.4,87.2z M222.8,88.6L222.8,88.6L222.8,88.6l-0.3,0.4l0,0L222.8,88.6z M224.2,91L224.2,91L224.2,91l-0.5,0.1L224.2,91z
			 M224.2,93.7L224.2,93.7L224.2,93.7l-0.5-0.1l0,0L224.2,93.7z M222.8,96L222.8,96L222.8,96l-0.4-0.4h0L222.8,96z M215.4,96.1
			L215.4,96.1L215.4,96.1l0.3-0.4h0L215.4,96.1z M217.7,87.2L217.7,87.2L217.7,87.2l0.1,0.5L217.7,87.2z M221.2,87.5L221.2,87.5
			L221,88L221.2,87.5z M223.3,89.1L223.3,89.1l-0.5,0.4v0L223.3,89.1z M224,94.4L224,94.4L224,94.4l-0.5-0.2l0,0L224,94.4z
			 M223.3,95.6L223.3,95.6L223.3,95.6l-0.5-0.3L223.3,95.6z M219.7,97.6L219.7,97.6l0-0.5L219.7,97.6z M217,97.2L217,97.2L217,97.2
			l0.2-0.5L217,97.2z M215.8,96.5L215.8,96.5L215.8,96.5l0.4-0.5L215.8,96.5z M214.9,95.5L214.9,95.5L214.9,95.5l0.5-0.3L214.9,95.5
			z M213.9,92.9L213.9,92.9l0.5,0L213.9,92.9z M214.2,90.2L214.2,90.2l0.5,0.2L214.2,90.2z M216,88.1L216,88.1L216,88.1l0.3,0.4v0
			L216,88.1z M217.1,87.4L217.1,87.4L217.1,87.4l0.2,0.5l0,0L217.1,87.4z M218.5,87.1L218.5,87.1l0,0.5L218.5,87.1z M219.1,86.1H213
			v6.2C213,88.9,215.7,86.1,219.1,86.1L219.1,86.1z M213,92.3v6.2h6.2C215.7,98.5,213,95.7,213,92.3L213,92.3z M219.1,98.5h6.1v-6.2
			C225.3,95.7,222.5,98.5,219.1,98.5L219.1,98.5z M219.1,98.2c-3.2,0-5.9-2.6-5.9-5.9c0-3.2,2.6-5.8,5.9-5.8c3.2,0,5.8,2.6,5.8,5.8
			C224.9,95.5,222.3,98.2,219.1,98.2L219.1,98.2z M224.3,97.8c-0.3,0-0.5-0.2-0.5-0.5c0-0.2,0.2-0.4,0.5-0.4c0.2,0,0.5,0.2,0.5,0.4
			C224.8,97.6,224.5,97.8,224.3,97.8L224.3,97.8z M224.3,87.6c-0.3,0-0.5-0.2-0.5-0.5c0-0.3,0.2-0.5,0.5-0.5c0.2,0,0.5,0.2,0.5,0.5
			C224.8,87.4,224.5,87.6,224.3,87.6L224.3,87.6z M214,87.6c-0.3,0-0.5-0.2-0.5-0.5c0-0.3,0.2-0.5,0.5-0.5c0.3,0,0.5,0.2,0.5,0.5
			C214.5,87.4,214.3,87.6,214,87.6L214,87.6z M214,97.8c-0.3,0-0.5-0.2-0.5-0.5c0-0.2,0.2-0.4,0.5-0.4c0.3,0,0.5,0.2,0.5,0.4
			C214.5,97.6,214.3,97.8,214,97.8L214,97.8z M225.4,86v12.7h-12.7V86H225.4z M225.5,84.6h-0.9v0.9h0.9V84.6z M213.5,84.6h-0.9v0.9
			h0.9V84.6z M214.6,84.6h-0.9v0.9h0.9V84.6z M215.7,84.6h-0.9v0.9h0.9V84.6z M216.8,84.6H216v0.9h0.8V84.6z M217.9,84.6H217v0.9
			h0.9V84.6z M218.9,84.6h-0.9v0.9h0.9V84.6z M220,84.6h-0.9v0.9h0.9V84.6z M221.1,84.6h-0.9v0.9h0.9V84.6z M222.2,84.6h-0.9v0.9
			h0.9V84.6z M223.3,84.6h-0.9v0.9h0.9V84.6z M224.4,84.6h-0.9v0.9h0.9V84.6z M212.2,100h0.2V84.6h-0.2V100z M211.3,100h0.2V84.6
			h-0.2V100z M211.7,100h0.2V84.6h-0.2V100z M225.8,100h0.3V84.6h-0.3V100z M226.7,100h0.2V84.6h-0.2V100z M226.3,100h0.2V84.6h-0.2
			V100z"/>
		<path class="st0" d="M394.4,98.6V98l-1.9-0.9v3.1L394.4,98.6z M353.4,81.7H367v3.9h-13.6V81.7z M367,86.3v6h-13.6v-6H367z
			 M367,93.3v10.8h-13.6V93.3H367z M356.9,83h2.3v0.5h-2.3V83z M364.8,88.3V91h-2.2v-2.8c0-0.5,0.5-0.9,1.1-0.9
			C364.4,87.4,364.8,87.8,364.8,88.3L364.8,88.3z M361.4,88.3V91h-2.2v-2.8c0-0.5,0.5-0.9,1.1-0.9C360.9,87.4,361.4,87.8,361.4,88.3
			L361.4,88.3z M357.9,88.3V91h-2.2v-2.8c0-0.5,0.5-0.9,1.1-0.9C357.4,87.4,357.9,87.8,357.9,88.3L357.9,88.3z M361.3,96.4h2.3v0.5
			h-2.3V96.4z M358.4,96.4h2.3v0.5h-2.3V96.4z M360.1,97h2.3v0.5h-2.3V97z M361.4,97.9h2.3v0.5h-2.3V97.9z M358.7,97.9h2.3v0.5h-2.3
			V97.9z M356.9,102.5h2.3v0.5h-2.3V102.5z M355.8,101.9h2.3v0.5h-2.3V101.9z M354.7,101.3h2.3v0.5h-2.3V101.3z M363.5,101.2h2.3
			v0.5h-2.3V101.2z M362.1,82.4h2.3v0.5h-2.3V82.4z M358.5,84.1h2.3v0.5h-2.3V84.1z M335.7,117h23v18h-23V117z M358.7,135.8V155h-23
			v-19.2H358.7z M352.6,150h3.9v0.8h-3.9V150z M348.9,141.8h3.9v0.8h-3.9V141.8z M344.1,141.9h3.9v0.8h-3.9V141.9z M346.9,143h3.9
			v0.8h-3.9V143z M349.1,144.4h3.9v0.8h-3.9V144.4z M344.5,144.4h3.9v0.8h-3.9V144.4z M341.5,152.3h3.9v0.8h-3.9V152.3z
			 M339.6,151.2h3.9v0.8h-3.9V151.2z M337.7,150.1h3.9v0.9h-3.9V150.1z M343.1,128.1v4.7h-3.7v-4.7c0-0.9,0.8-1.6,1.9-1.6
			C342.3,126.6,343.1,127.3,343.1,128.1L343.1,128.1z M355,128.1v4.7h-3.7v-4.7c0-0.9,0.8-1.6,1.8-1.6
			C354.1,126.6,355,127.3,355,128.1L355,128.1z M349,128.1v4.7h-3.7v-4.7c0-0.9,0.8-1.6,1.8-1.6C348.2,126.6,349,127.3,349,128.1
			L349,128.1z M341.4,119.2h3.9v0.8h-3.9V119.2z M350.4,118.2h3.9v0.8h-3.9V118.2z M344.2,121h3.9v0.9h-3.9V121z M335.7,123.2h23
			v0.8h-23V123.2z M360.3,72.4l-4.5,3.8h9.3L360.3,72.4z M364.2,76.3v5.1h-7.5v-5.1H364.2z M359.6,78.3h1.5v-1.5h-1.5V78.3z
			 M399.2,94.7l-6.4,5.4h13.2L399.2,94.7z M404.6,100.5v7.2h4V139h-19v-31.3h4.6v-7.2H404.6z M398.3,102.9h2.1v-2.1h-2.1V102.9z
			 M394.4,109.5h3.2v0.6h-3.2V109.5z M405.6,116.9v3.8h-3v-3.8c0-0.7,0.6-1.3,1.5-1.3C404.9,115.6,405.6,116.2,405.6,116.9
			L405.6,116.9z M400.7,116.9v3.8h-3v-3.8c0-0.7,0.7-1.3,1.5-1.3C400,115.6,400.7,116.2,400.7,116.9L400.7,116.9z M395.8,116.9v3.8
			h-3v-3.8c0-0.7,0.7-1.3,1.5-1.3C395.2,115.6,395.8,116.2,395.8,116.9L395.8,116.9z M400.6,128.1h3.2v0.7h-3.2V128.1z M396.7,128.2
			h3.2v0.7h-3.2V128.2z M398.9,129.1h3.3v0.7h-3.3V129.1z M400.8,130.3h3.2v0.7h-3.2V130.3z M397,130.3h3.3v0.7H397V130.3z
			 M394.5,136.8h3.2v0.7h-3.2V136.8z M392.9,136h3.2v0.7h-3.2V136z M391.4,135.1h3.2v0.7h-3.2V135.1z M403.7,134.9h3.2v0.6h-3.2
			V134.9z M401.8,108.7h3.2v0.6h-3.2V108.7z M396.8,111h3.2v0.7h-3.2V111z M389.7,112.8h19v0.9h-19V112.8z M389.7,122.6h19v1.9h-19
			V122.6z M347.2,101.3l-7.8,6.5h16.1L347.2,101.3z M353.8,108.2v8.2h-12.6v-8.2H353.8z M346.1,111.3h2.6v-2.6h-2.6V111.3z
			 M359.2,129.7l0.6-0.3v4.9l1-0.5v-4.9l2.2-1v4.9l1-0.5v-4.9l2.2-1v4.9l1-0.5v-4.9l2.2-1v4.9l1-0.5v-4.9l2.2-1v4.9l1-0.5v-4.9
			l2.2-1v4.9l1-0.5v-4.9l2.2-1.1v4.9l1-0.5v-4.9l2.1-1v4.9l1-0.5v-4.9l2.2-1v4.9l1-0.5v-4.9l2.2-1v4.9l0.5-0.2v16.3l-29.8,14.3
			V129.7z M392.5,100.2v1l-0.9-0.4v-4.2l-1.9-0.9v4.2l-0.9-0.5v-4.2l-1.9-0.9v4.2l-0.9-0.5V94l-1.8-0.9v4.2l-0.9-0.5v-4.2l-1.9-0.9
			v4.1l-0.9-0.4v-4.2l-1.9-0.9v4.2l-0.9-0.4V90l-1.9-0.9v4.2l-0.9-0.4v-4.2l-1.9-0.9V92l-0.9-0.4v-4.2l-1.9-0.9v4.2l-0.9-0.4v-4.2
			l-1.8-0.9v4.2l-0.2-0.1v14.1l21.5,10.3v-6.5h4.8v-6.9H392.5z"/>
		<path class="st0" d="M146.8,80.8l-0.7,6.8L122,85l0.7-6.8L146.8,80.8z M127.6,142.9c12.6,0,23.4,5,27.8,12.1H99.7
			C104.2,147.9,115,142.9,127.6,142.9L127.6,142.9z M116.9,124.6l25.6,2.8l-0.1,1.5l-25.6-2.8L116.9,124.6z M126.8,67.5l18.4,2
			l0.1-1.4l-18.4-2L126.8,67.5z M122.2,75.9l25.6,2.8l-0.2,1.6l-25.6-2.8L122.2,75.9z M121.2,85.6l25.6,2.8l-0.1,1.6L121,87.2
			L121.2,85.6z M120.1,95.4l25.6,2.8l-0.2,1.5l-25.6-2.8L120.1,95.4z M119,105.1l25.6,2.8l-0.2,1.6l-25.6-2.8L119,105.1z M118,114.8
			l25.6,2.8l-0.2,1.6l-25.6-2.8L118,114.8z M142.8,77.7l0.9-7.8l-15.5-1.7l-0.9,7.8L142.8,77.7z M132.3,72l-0.3,2.8l-2.7-0.3
			l0.3-2.8c0.1-0.8,0.8-1.4,1.5-1.3C131.8,70.6,132.4,71.3,132.3,72L132.3,72z M141.5,73.1l-0.3,2.8l-2.7-0.3l0.3-2.8
			c0.1-0.8,0.8-1.3,1.5-1.2C141,71.6,141.6,72.3,141.5,73.1L141.5,73.1z M136.9,72.6l-0.3,2.8l-2.7-0.3l0.3-2.8
			c0-0.8,0.7-1.4,1.5-1.2C136.4,71.1,136.9,71.8,136.9,72.6L136.9,72.6z M125.2,79.8l-0.5,4.5l-1.6-0.2l0.5-4.5
			c0-0.4,0.4-0.6,0.9-0.6C124.9,79.1,125.2,79.4,125.2,79.8L125.2,79.8z M140.7,121.3L140.7,121.3l-0.5,4.5l-1.5-0.2l0.5-4.5
			c0-0.4,0.4-0.6,0.9-0.6C140.4,120.7,140.7,121,140.7,121.3L140.7,121.3z M138.5,121.1L138.5,121.1l-0.5,4.5l-1.6-0.2l0.5-4.5
			c0-0.4,0.4-0.6,0.9-0.6C138.3,120.4,138.6,120.8,138.5,121.1L138.5,121.1z M136.3,120.9L136.3,120.9l-0.5,4.4l-1.5-0.1l0.5-4.5
			c0-0.4,0.5-0.6,0.9-0.5C136,120.2,136.3,120.5,136.3,120.9L136.3,120.9z M134.1,120.6L134.1,120.6l-0.5,4.5l-1.6-0.2l0.5-4.5
			c0-0.4,0.4-0.6,0.9-0.6C133.9,119.9,134.2,120.3,134.1,120.6L134.1,120.6z M131.9,120.3L131.9,120.3l-0.5,4.5l-1.5-0.2l0.5-4.5
			c0-0.4,0.5-0.6,0.9-0.6C131.6,119.7,131.9,120,131.9,120.3L131.9,120.3z M129.7,120.2L129.7,120.2l-0.5,4.4l-1.6-0.1l0.5-4.5
			c0-0.4,0.5-0.6,0.9-0.5C129.5,119.4,129.8,119.8,129.7,120.2L129.7,120.2z M127.5,119.9L127.5,119.9l-0.5,4.5l-1.6-0.2l0.5-4.4
			c0-0.4,0.5-0.6,0.9-0.6C127.2,119.2,127.5,119.5,127.5,119.9L127.5,119.9z M125.3,119.7L125.3,119.7l-0.5,4.5l-1.6-0.2l0.5-4.5
			c0-0.4,0.5-0.6,0.9-0.6C125,118.9,125.3,119.3,125.3,119.7L125.3,119.7z M123.1,119.4L123.1,119.4l-0.5,4.5l-1.6-0.2l0.5-4.5
			c0-0.4,0.5-0.6,0.9-0.6C122.8,118.7,123.1,119,123.1,119.4L123.1,119.4z M120.9,119.2L120.9,119.2l-0.5,4.5l-1.6-0.2l0.5-4.4
			c0-0.4,0.4-0.6,0.9-0.6C120.6,118.5,120.9,118.8,120.9,119.2L120.9,119.2z M141.8,111.5L141.8,111.5l-0.5,4.5l-1.6-0.2l0.5-4.5
			c0-0.4,0.4-0.6,0.9-0.6C141.5,110.8,141.8,111.1,141.8,111.5L141.8,111.5z M139.6,111.3L139.6,111.3l-0.5,4.5l-1.5-0.2l0.5-4.5
			c0-0.4,0.4-0.6,0.9-0.6C139.3,110.5,139.6,110.9,139.6,111.3L139.6,111.3z M137.4,111L137.4,111l-0.5,4.5l-1.6-0.2l0.5-4.5
			c0-0.3,0.4-0.6,0.9-0.5C137.1,110.3,137.4,110.6,137.4,111L137.4,111z M135.2,110.8L135.2,110.8l-0.5,4.5l-1.5-0.1l0.5-4.5
			c0.1-0.4,0.5-0.6,0.9-0.6C134.9,110.1,135.2,110.4,135.2,110.8L135.2,110.8z M133,110.5L133,110.5l-0.5,4.5l-1.6-0.2l0.5-4.5
			c0-0.4,0.4-0.6,0.9-0.6C132.7,109.8,133,110.2,133,110.5L133,110.5z M130.8,110.3L130.8,110.3l-0.5,4.5l-1.5-0.2l0.5-4.5
			c0-0.3,0.5-0.6,0.9-0.5C130.5,109.6,130.8,109.9,130.8,110.3L130.8,110.3z M128.6,110.1L128.6,110.1l-0.5,4.5l-1.6-0.1l0.5-4.5
			c0-0.4,0.4-0.6,0.9-0.6C128.3,109.4,128.6,109.7,128.6,110.1L128.6,110.1z M126.4,109.8L126.4,109.8l-0.5,4.5l-1.5-0.2l0.5-4.5
			c0-0.4,0.5-0.6,0.9-0.5C126.1,109.1,126.4,109.5,126.4,109.8L126.4,109.8z M124.1,109.6L124.1,109.6l-0.5,4.5l-1.6-0.2l0.5-4.5
			c0-0.3,0.5-0.6,0.9-0.5C123.9,108.9,124.2,109.2,124.1,109.6L124.1,109.6z M122,109.3L122,109.3l-0.5,4.5l-1.6-0.1l0.5-4.5
			c0-0.4,0.5-0.6,0.9-0.6C121.7,108.6,122,109,122,109.3L122,109.3z M142.9,101.7L142.9,101.7l-0.5,4.5l-1.6-0.1l0.5-4.5
			c0-0.4,0.4-0.6,0.9-0.5C142.6,101,142.9,101.3,142.9,101.7L142.9,101.7z M140.7,101.4L140.7,101.4l-0.5,4.5l-1.6-0.2l0.5-4.5
			c0-0.4,0.5-0.6,0.9-0.6C140.4,100.7,140.7,101.1,140.7,101.4L140.7,101.4z M138.5,101.2L138.5,101.2l-0.5,4.5l-1.6-0.2l0.5-4.5
			c0-0.4,0.4-0.6,0.9-0.6C138.2,100.5,138.5,100.8,138.5,101.2L138.5,101.2z M136.3,100.9L136.3,100.9l-0.5,4.5l-1.6-0.1l0.5-4.5
			c0-0.4,0.4-0.6,0.9-0.6C136,100.3,136.3,100.6,136.3,100.9L136.3,100.9z M134.1,100.7L134.1,100.7l-0.5,4.5L132,105l0.5-4.5
			c0.1-0.4,0.5-0.6,0.9-0.6C133.8,100,134.1,100.3,134.1,100.7L134.1,100.7z M131.9,100.5L131.9,100.5l-0.5,4.5l-1.6-0.2l0.5-4.5
			c0-0.4,0.4-0.6,0.9-0.6C131.6,99.8,131.9,100.1,131.9,100.5L131.9,100.5z M129.6,100.3L129.6,100.3l-0.5,4.4l-1.5-0.1l0.5-4.5
			c0-0.4,0.5-0.6,0.9-0.6C129.4,99.5,129.7,99.8,129.6,100.3L129.6,100.3z M127.5,100L127.5,100l-0.5,4.5l-1.6-0.2l0.5-4.5
			c0-0.4,0.4-0.6,0.9-0.5C127.2,99.3,127.5,99.6,127.5,100L127.5,100z M125.2,99.8L125.2,99.8l-0.5,4.5l-1.5-0.2l0.5-4.5
			c0-0.4,0.5-0.6,0.9-0.6C125,99,125.3,99.4,125.2,99.8L125.2,99.8z M123.1,99.5L123.1,99.5l-0.5,4.4l-1.6-0.1l0.5-4.5
			c0-0.4,0.5-0.6,0.9-0.6C122.8,98.8,123.1,99.1,123.1,99.5L123.1,99.5z M143.9,91.9L143.9,91.9l-0.5,4.4l-1.6-0.1l0.5-4.5
			c0-0.4,0.4-0.6,0.8-0.5C143.7,91.1,144,91.5,143.9,91.9L143.9,91.9z M141.7,91.6L141.7,91.6l-0.5,4.5l-1.6-0.2l0.5-4.4
			c0-0.4,0.4-0.6,0.9-0.6C141.4,90.9,141.8,91.2,141.7,91.6L141.7,91.6z M139.5,91.3L139.5,91.3l-0.5,4.5l-1.6-0.2l0.5-4.5
			c0-0.4,0.4-0.6,0.8-0.5C139.3,90.6,139.6,91,139.5,91.3L139.5,91.3z M137.3,91.1L137.3,91.1l-0.5,4.5l-1.6-0.2l0.5-4.5
			c0-0.3,0.4-0.6,0.9-0.5C137,90.4,137.3,90.7,137.3,91.1L137.3,91.1z M135.1,90.9L135.1,90.9l-0.5,4.5l-1.6-0.2l0.5-4.4
			c0-0.4,0.4-0.6,0.9-0.6C134.9,90.2,135.2,90.5,135.1,90.9L135.1,90.9z M132.9,90.6L132.9,90.6l-0.5,4.5l-1.5-0.2l0.5-4.5
			c0.1-0.4,0.5-0.6,0.9-0.5C132.6,89.9,132.9,90.3,132.9,90.6L132.9,90.6z M130.7,90.4L130.7,90.4l-0.5,4.5l-1.6-0.2l0.5-4.5
			c0-0.4,0.4-0.6,0.9-0.6C130.5,89.7,130.8,90,130.7,90.4L130.7,90.4z M128.5,90.1L128.5,90.1l-0.5,4.5l-1.5-0.2l0.5-4.4
			c0.1-0.4,0.5-0.6,0.9-0.6C128.2,89.5,128.5,89.8,128.5,90.1L128.5,90.1z M126.3,89.9L126.3,89.9l-0.5,4.5l-1.6-0.2l0.5-4.5
			c0-0.4,0.4-0.6,0.9-0.5C126.1,89.2,126.4,89.5,126.3,89.9L126.3,89.9z M124.1,89.7L124.1,89.7l-0.5,4.5l-1.5-0.2l0.5-4.5
			c0-0.4,0.5-0.6,0.9-0.6C123.8,89,124.1,89.3,124.1,89.7L124.1,89.7z M145,82L145,82l-0.5,4.5l-1.6-0.2l0.5-4.5
			c0-0.3,0.5-0.6,0.9-0.5C144.7,81.3,145.1,81.6,145,82L145,82z M142.8,81.7L142.8,81.7l-0.5,4.5l-1.6-0.1l0.5-4.5
			c0-0.4,0.4-0.6,0.8-0.6C142.5,81.1,142.9,81.4,142.8,81.7L142.8,81.7z M140.6,81.5L140.6,81.5l-0.5,4.5l-1.6-0.2l0.5-4.5
			c0-0.4,0.4-0.6,0.9-0.5C140.3,80.8,140.7,81.2,140.6,81.5L140.6,81.5z M138.4,81.3L138.4,81.3l-0.5,4.5l-1.6-0.2l0.5-4.5
			c0-0.4,0.4-0.6,0.8-0.6C138.1,80.6,138.5,80.9,138.4,81.3L138.4,81.3z M136.2,81L136.2,81l-0.5,4.5l-1.6-0.1l0.5-4.5
			c0-0.4,0.4-0.6,0.9-0.6C135.9,80.3,136.2,80.7,136.2,81L136.2,81z M134,80.8L134,80.8l-0.5,4.5l-1.6-0.2l0.5-4.5
			c0-0.4,0.4-0.6,0.9-0.5C133.7,80.1,134,80.4,134,80.8L134,80.8z M131.8,80.6L131.8,80.6l-0.5,4.5l-1.6-0.2l0.5-4.5
			c0-0.4,0.4-0.6,0.9-0.6C131.5,79.8,131.8,80.2,131.8,80.6L131.8,80.6z M129.6,80.3L129.6,80.3l-0.5,4.5l-1.6-0.1l0.5-4.5
			c0-0.4,0.4-0.6,0.9-0.6C129.3,79.6,129.6,79.9,129.6,80.3L129.6,80.3z M127.4,80.1L127.4,80.1l-0.5,4.5l-1.5-0.2l0.5-4.5
			c0.1-0.4,0.5-0.6,0.9-0.5C127.1,79.3,127.4,79.7,127.4,80.1L127.4,80.1z M145.7,90.6l-0.7,6.8l-24.1-2.6l0.7-6.8L145.7,90.6z
			 M144.7,100.3l-0.8,6.8l-24.1-2.6l0.8-6.8L144.7,100.3z M143.6,110.1l-0.7,6.8l-24.1-2.6l0.7-6.8L143.6,110.1z M142.6,119.8
			l-0.8,6.8l-24-2.6l0.7-6.8L142.6,119.8z M141.5,129.6l-1.5,14.3c-0.4-0.1-0.7-0.2-1.1-0.3l1.2-10.5c0.1-1-0.8-1.9-2.1-2.1
			c-1.3-0.1-2.4,0.6-2.4,1.7l-1.1,10.1c-0.4,0-0.8-0.1-1.2-0.1l1.1-10.1c0.1-1-0.8-2-2-2.1c-1.2-0.1-2.4,0.6-2.4,1.6l-1.1,10.3
			c-0.4,0-0.7,0-1,0h-0.1l1.1-10.3c0.1-1-0.8-2-2-2.1c-1.3-0.1-2.4,0.6-2.5,1.6l-1.2,11.1c-0.4,0-0.8,0.1-1.2,0.1l1.2-11.3
			c0.1-1-0.8-2-2-2.1c-1.2-0.1-2.4,0.6-2.4,1.7l-1.4,12.7c-0.5,0.1-1,0.2-1.4,0.4l1.8-16.9L141.5,129.6z"/>
		<path class="st0" d="M302.1,153.4l-17.4,0.2l2.3-2.8l0,0l0.9-1l0,0l0.5-0.7l0,0l0.9-1l0,0l0.5-0.7l0,0l0.8-1l11.5-13.8l11.6,13.6
			c-0.1,0.1-0.2,0.2-0.3,0.3l7.3-6.8v-0.2v0.2c1.5,1.3,2.9,2.5,4.4,3.8c1-1.6,2.7-3.6,4.9-3.4l0,0c3.8,0.1,4.3,5.9,4.3,5.9l-2,0
			l0,1.1c0.7,0.7,1.3,1.6,1.6,2.6c0,0,0,0.1,0.1,0.1l0.1,0.2l0,0.1c0.1,0.2,0.1,0.4,0.3,0.6l-8,0c2.7,0,5.4,0,8,0l-0.1-0.2l-0.1-0.2
			l0-0.1c0.1,0.2,0.1,0.4,0.3,0.6c0.1,0.3,0.4,1,0.5,1.3l4.2,0.2c0.7,0.2,1,0.1,1.5,2.4l-13.1,0.1c0,0.2-6.2-0.1-6.2-0.1l-13.2-0.1
			c0,0,0-0.8-0.1-1.2L302.1,153.4z M314.7,148.2L314.7,148.2c0.2,0,0.4,0.1,0.6,0.2C315.1,148.3,314.9,148.2,314.7,148.2
			L314.7,148.2z M317.7,149.1c0.2,0,0.3,0,0.5,0C318.1,149.1,317.9,149.1,317.7,149.1L317.7,149.1z M320.5,153.2
			c-0.1-0.1-0.3-0.2-0.5-0.3C320.2,153,320.4,153.1,320.5,153.2L320.5,153.2z M334,150.1c0,0,0-0.1-0.1-0.1l0,0L334,150.1z"/>
		<path class="st0" d="M327.2,122.5v1.4h-6.9v7.3h3l-2.1,0.7V155h-4.6v-23.1l-2.1-0.7h3v-7.3h-23.1v7.3h3l-2.1,0.7V155h-4.6v-23.1
			l-2-0.7h3v-7.3h-6.9v-1.4h-1.9v-1h8.8v-3.9h-2.1V116c-2.9-0.4-5.8-0.9-8.8-1.5v-3.4c-1.1-0.2-2.2-0.4-3.4-0.7v-2.7
			c-1.3-0.2-2.6-0.5-3.9-0.8c0-0.8,0-1.6,0-2.5c21.8,3.7,43.4,3.4,64.6,0c0,0.8,0,1.6,0,2.5c-1.3,0.3-2.5,0.5-3.9,0.8v2.7
			c-1.1,0.3-2.2,0.5-3.4,0.7v3.3c-2.9,0.6-5.8,1.2-8.8,1.6v1.5h-2v3.9h8.8v1H327.2z M296.5,116.8v0.8h-2.1v3.9h9.5v-4.4
			C301.5,117.1,299,116.9,296.5,116.8L296.5,116.8z M317.5,117.5h-2.1v-0.7c-2.4,0.2-4.9,0.3-7.3,0.4v4.3h9.4V117.5z"/>
	</g>
</g>
</svg>
