<?xml version="1.0" encoding="utf-8"?>
<!-- Generator: Adobe Illustrator 22.1.0, SVG Export Plug-In . SVG Version: 6.00 Build 0)  -->
<svg version="1.1" id="图层_1" xmlns="http://www.w3.org/2000/svg" xmlns:xlink="http://www.w3.org/1999/xlink" x="0px" y="0px"
	 viewBox="0 0 56 56" style="enable-background:new 0 0 56 56;" xml:space="preserve">
<style type="text/css">
	.st0{fill:#B2B2B2;}
</style>
<g id="椭圆_4">
	<path class="st0" d="M28,56C12.6,56,0,43.4,0,28S12.6,0,28,0s28,12.6,28,28S43.4,56,28,56z M28,2C13.7,2,2,13.7,2,28
		c0,14.3,11.7,26,26,26c14.3,0,26-11.7,26-26C54,13.7,42.3,2,28,2z"/>
</g>
<g>
	<g>
		<polygon class="st0" points="43.3,28 43.3,28 42.5,27.2 41.9,26.6 41.9,26.6 32,16.7 30.6,18.1 39.5,27 40,27.5 40.5,28 40,28.5 
			39.5,29 30.6,37.9 32,39.3 41.9,29.4 41.9,29.4 42.7,28.6 		"/>
	</g>
	<g>
		<polygon class="st0" points="41,27.5 39.5,27 13,27 13,29 39.5,29 41,28.5 		"/>
	</g>
</g>
</svg>
