<?xml version="1.0" encoding="utf-8"?>
<!-- Generator: Adobe Illustrator 22.1.0, SVG Export Plug-In . SVG Version: 6.00 Build 0)  -->
<svg version="1.1" id="图层_1" xmlns="http://www.w3.org/2000/svg" xmlns:xlink="http://www.w3.org/1999/xlink" x="0px" y="0px"
	 viewBox="0 0 36 36" style="enable-background:new 0 0 36 36;" xml:space="preserve">
<style type="text/css">
	.st0{fill:#069896;}
</style>
<path class="st0" d="M18,0C8.1,0,0,8.1,0,18s8.1,18,18,18s18-8.1,18-18S27.9,0,18,0z M18,33.4C9.5,33.4,2.6,26.5,2.6,18
	S9.5,2.6,18,2.6S33.4,9.5,33.4,18S26.5,33.4,18,33.4z"/>
<path class="st0" d="M13,23.1c0,1.4,1,2,2.2,1.3l8.9-5.1c1.2-0.7,1.2-1.9,0-2.6l-8.9-5.1C14,10.9,13,11.5,13,12.9
	C13,12.9,13,23.1,13,23.1z"/>
</svg>
