<?xml version="1.0" encoding="utf-8"?>
<!-- Generator: Adobe Illustrator 22.1.0, SVG Export Plug-In . SVG Version: 6.00 Build 0)  -->
<svg version="1.1" id="图层_1" xmlns="http://www.w3.org/2000/svg" xmlns:xlink="http://www.w3.org/1999/xlink" x="0px" y="0px"
	 viewBox="0 0 56 56" style="enable-background:new 0 0 56 56;" xml:space="preserve">
<style type="text/css">
	.st0{fill:#B2B2B2;}
</style>
<g id="椭圆_4">
	<path class="st0" d="M28,56C12.6,56,0,43.4,0,28S12.6,0,28,0s28,12.6,28,28S43.4,56,28,56z M28,2C13.7,2,2,13.7,2,28
		c0,14.3,11.7,26,26,26c14.3,0,26-11.7,26-26C54,13.7,42.3,2,28,2z"/>
</g>
<g>
	<g>
		<polygon class="st0" points="13,28 13,28 13.8,28.8 14.4,29.4 14.4,29.4 24.3,39.3 25.7,37.9 16.8,29 16.3,28.5 15.8,28 
			16.3,27.5 16.8,27 25.7,18.1 24.3,16.7 14.4,26.6 14.4,26.6 13.6,27.4 		"/>
	</g>
	<g>
		<polygon class="st0" points="15.3,28.5 16.8,29 43.3,29 43.3,27 16.8,27 15.3,27.5 		"/>
	</g>
</g>
</svg>
