<?xml version="1.0" encoding="utf-8"?>
<!-- Generator: Adobe Illustrator 22.1.0, SVG Export Plug-In . SVG Version: 6.00 Build 0)  -->
<svg version="1.1" id="图层_1" xmlns="http://www.w3.org/2000/svg" xmlns:xlink="http://www.w3.org/1999/xlink" x="0px" y="0px"
	 viewBox="0 0 132 142" style="enable-background:new 0 0 132 142;" xml:space="preserve">
<style type="text/css">
	.st0{clip-path:url(#SVGID_2_);fill:#FFFFFF;}
	.st1{clip-path:url(#SVGID_4_);fill:#FFFFFF;}
	.st2{clip-path:url(#SVGID_6_);fill:#FEFEFE;}
	.st3{clip-path:url(#SVGID_8_);fill:#FDFDFD;}
	.st4{clip-path:url(#SVGID_10_);fill:#FCFCFC;}
	.st5{clip-path:url(#SVGID_12_);fill:#FBFBFB;}
	.st6{clip-path:url(#SVGID_14_);fill:#FAFAFA;}
	.st7{clip-path:url(#SVGID_16_);fill:#F9F9F9;}
	.st8{clip-path:url(#SVGID_18_);fill:#F8F8F8;}
	.st9{clip-path:url(#SVGID_20_);fill:#F7F7F7;}
	.st10{clip-path:url(#SVGID_22_);fill:#F5F7F7;}
	.st11{clip-path:url(#SVGID_24_);fill:#F4F6F6;}
	.st12{clip-path:url(#SVGID_26_);fill:#F3F5F5;}
	.st13{clip-path:url(#SVGID_28_);fill:#F2F4F4;}
	.st14{clip-path:url(#SVGID_30_);fill:#F1F3F3;}
	.st15{clip-path:url(#SVGID_32_);fill:#F0F2F2;}
	.st16{clip-path:url(#SVGID_34_);fill:#EFF1F1;}
	.st17{clip-path:url(#SVGID_36_);fill:#EEF0F0;}
	.st18{clip-path:url(#SVGID_38_);fill:#EDEFEF;}
	.st19{clip-path:url(#SVGID_40_);fill:#EDEFEF;}
	.st20{fill:#EFEFEF;}
	.st21{fill:none;stroke:#00B5A3;stroke-width:2;stroke-miterlimit:10;}
	.st22{fill:#294441;}
	.st23{fill:#00B5A3;}
</style>
<g>
	<g>
		<g>
			<g>
				<defs>
					<ellipse id="SVGID_1_" cx="66" cy="61.3" rx="43.5" ry="43.9"/>
				</defs>
				<clipPath id="SVGID_2_">
					<use xlink:href="#SVGID_1_"  style="overflow:visible;"/>
				</clipPath>
				<path class="st0" d="M109.5,17.4h-87H109.5z"/>
			</g>
		</g>
		<g>
			<g>
				<defs>
					<ellipse id="SVGID_3_" cx="66" cy="61.3" rx="43.5" ry="43.9"/>
				</defs>
				<clipPath id="SVGID_4_">
					<use xlink:href="#SVGID_3_"  style="overflow:visible;"/>
				</clipPath>
				<rect x="22.5" y="17.4" class="st1" width="87" height="4.9"/>
			</g>
		</g>
		<g>
			<g>
				<defs>
					<ellipse id="SVGID_5_" cx="66" cy="61.3" rx="43.5" ry="43.9"/>
				</defs>
				<clipPath id="SVGID_6_">
					<use xlink:href="#SVGID_5_"  style="overflow:visible;"/>
				</clipPath>
				<rect x="22.5" y="22.3" class="st2" width="87" height="4.9"/>
			</g>
		</g>
		<g>
			<g>
				<defs>
					<ellipse id="SVGID_7_" cx="66" cy="61.3" rx="43.5" ry="43.9"/>
				</defs>
				<clipPath id="SVGID_8_">
					<use xlink:href="#SVGID_7_"  style="overflow:visible;"/>
				</clipPath>
				<rect x="22.5" y="27.2" class="st3" width="87" height="4.9"/>
			</g>
		</g>
		<g>
			<g>
				<defs>
					<ellipse id="SVGID_9_" cx="66" cy="61.3" rx="43.5" ry="43.9"/>
				</defs>
				<clipPath id="SVGID_10_">
					<use xlink:href="#SVGID_9_"  style="overflow:visible;"/>
				</clipPath>
				<rect x="22.5" y="32" class="st4" width="87" height="4.9"/>
			</g>
		</g>
		<g>
			<g>
				<defs>
					<ellipse id="SVGID_11_" cx="66" cy="61.3" rx="43.5" ry="43.9"/>
				</defs>
				<clipPath id="SVGID_12_">
					<use xlink:href="#SVGID_11_"  style="overflow:visible;"/>
				</clipPath>
				<rect x="22.5" y="36.9" class="st5" width="87" height="4.9"/>
			</g>
		</g>
		<g>
			<g>
				<defs>
					<ellipse id="SVGID_13_" cx="66" cy="61.3" rx="43.5" ry="43.9"/>
				</defs>
				<clipPath id="SVGID_14_">
					<use xlink:href="#SVGID_13_"  style="overflow:visible;"/>
				</clipPath>
				<rect x="22.5" y="41.8" class="st6" width="87" height="4.9"/>
			</g>
		</g>
		<g>
			<g>
				<defs>
					<ellipse id="SVGID_15_" cx="66" cy="61.3" rx="43.5" ry="43.9"/>
				</defs>
				<clipPath id="SVGID_16_">
					<use xlink:href="#SVGID_15_"  style="overflow:visible;"/>
				</clipPath>
				<rect x="22.5" y="46.7" class="st7" width="87" height="4.9"/>
			</g>
		</g>
		<g>
			<g>
				<defs>
					<ellipse id="SVGID_17_" cx="66" cy="61.3" rx="43.5" ry="43.9"/>
				</defs>
				<clipPath id="SVGID_18_">
					<use xlink:href="#SVGID_17_"  style="overflow:visible;"/>
				</clipPath>
				<rect x="22.5" y="51.5" class="st8" width="87" height="4.9"/>
			</g>
		</g>
		<g>
			<g>
				<defs>
					<ellipse id="SVGID_19_" cx="66" cy="61.3" rx="43.5" ry="43.9"/>
				</defs>
				<clipPath id="SVGID_20_">
					<use xlink:href="#SVGID_19_"  style="overflow:visible;"/>
				</clipPath>
				<rect x="22.5" y="56.4" class="st9" width="87" height="4.9"/>
			</g>
		</g>
		<g>
			<g>
				<defs>
					<ellipse id="SVGID_21_" cx="66" cy="61.3" rx="43.5" ry="43.9"/>
				</defs>
				<clipPath id="SVGID_22_">
					<use xlink:href="#SVGID_21_"  style="overflow:visible;"/>
				</clipPath>
				<rect x="22.5" y="61.3" class="st10" width="87" height="4.9"/>
			</g>
		</g>
		<g>
			<g>
				<defs>
					<ellipse id="SVGID_23_" cx="66" cy="61.3" rx="43.5" ry="43.9"/>
				</defs>
				<clipPath id="SVGID_24_">
					<use xlink:href="#SVGID_23_"  style="overflow:visible;"/>
				</clipPath>
				<rect x="22.5" y="66.3" class="st11" width="87" height="4.9"/>
			</g>
		</g>
		<g>
			<g>
				<defs>
					<ellipse id="SVGID_25_" cx="66" cy="61.3" rx="43.5" ry="43.9"/>
				</defs>
				<clipPath id="SVGID_26_">
					<use xlink:href="#SVGID_25_"  style="overflow:visible;"/>
				</clipPath>
				<rect x="22.5" y="71" class="st12" width="87" height="4.9"/>
			</g>
		</g>
		<g>
			<g>
				<defs>
					<ellipse id="SVGID_27_" cx="66" cy="61.3" rx="43.5" ry="43.9"/>
				</defs>
				<clipPath id="SVGID_28_">
					<use xlink:href="#SVGID_27_"  style="overflow:visible;"/>
				</clipPath>
				<rect x="22.5" y="75.9" class="st13" width="87" height="4.9"/>
			</g>
		</g>
		<g>
			<g>
				<defs>
					<ellipse id="SVGID_29_" cx="66" cy="61.3" rx="43.5" ry="43.9"/>
				</defs>
				<clipPath id="SVGID_30_">
					<use xlink:href="#SVGID_29_"  style="overflow:visible;"/>
				</clipPath>
				<rect x="22.5" y="80.8" class="st14" width="87" height="4.9"/>
			</g>
		</g>
		<g>
			<g>
				<defs>
					<ellipse id="SVGID_31_" cx="66" cy="61.3" rx="43.5" ry="43.9"/>
				</defs>
				<clipPath id="SVGID_32_">
					<use xlink:href="#SVGID_31_"  style="overflow:visible;"/>
				</clipPath>
				<rect x="22.5" y="85.6" class="st15" width="87" height="4.9"/>
			</g>
		</g>
		<g>
			<g>
				<defs>
					<ellipse id="SVGID_33_" cx="66" cy="61.3" rx="43.5" ry="43.9"/>
				</defs>
				<clipPath id="SVGID_34_">
					<use xlink:href="#SVGID_33_"  style="overflow:visible;"/>
				</clipPath>
				<rect x="22.5" y="90.5" class="st16" width="87" height="4.9"/>
			</g>
		</g>
		<g>
			<g>
				<defs>
					<ellipse id="SVGID_35_" cx="66" cy="61.3" rx="43.5" ry="43.9"/>
				</defs>
				<clipPath id="SVGID_36_">
					<use xlink:href="#SVGID_35_"  style="overflow:visible;"/>
				</clipPath>
				<rect x="22.5" y="95.4" class="st17" width="87" height="4.9"/>
			</g>
		</g>
		<g>
			<g>
				<defs>
					<ellipse id="SVGID_37_" cx="66" cy="61.3" rx="43.5" ry="43.9"/>
				</defs>
				<clipPath id="SVGID_38_">
					<use xlink:href="#SVGID_37_"  style="overflow:visible;"/>
				</clipPath>
				<rect x="22.5" y="100.3" class="st18" width="87" height="4.9"/>
			</g>
		</g>
		<g>
			<g>
				<defs>
					<ellipse id="SVGID_39_" cx="66" cy="61.3" rx="43.5" ry="43.9"/>
				</defs>
				<clipPath id="SVGID_40_">
					<use xlink:href="#SVGID_39_"  style="overflow:visible;"/>
				</clipPath>
				<path class="st19" d="M22.5,105.1h87H22.5z"/>
			</g>
		</g>
	</g>
</g>
<g>
	<ellipse class="st20" cx="67.5" cy="135.1" rx="34.6" ry="6.9"/>
</g>
<g>
	<path class="st21" d="M5.5,61.3"/>
</g>
<g>
	<g>
		<path class="st22" d="M81.1,79.5V61.8h-1.4v-2.2l-2.1-1.4l-2.1,1.4v2.2H75v-3.2h-4.9v-4.1l-5.4-3.8l-5.4,3.8v4.1h-4.8v3.2H54v-2.2
			l-2.1-1.4l-2.1,1.4v2.2h-1.3v17.7h-1.6v2.2h35.7v-2.2C82.6,79.5,81.1,79.5,81.1,79.5z M51.6,61.8h-1.1v-1.7h1.1V61.8z M52.3,60.1
			h1.1v1.7h-1.1V60.1z M54.4,78.3h-1.9v-4.1h1.9V78.3z M54.4,73.3h-1.9v-4.1h1.9V73.3z M54.4,68.3h-1.9v-4.1h1.9V68.3z M58.9,78.3
			H57v-4.1h1.9V78.3z M58.9,73.3H57v-4.1h1.9V73.3z M58.9,68.3H57v-4.1h1.9V68.3z M63.5,78.3h-1.9v-4.1h1.9V78.3z M63.5,73.3h-1.9
			v-4.1h1.9V73.3z M63.5,68.3h-1.9v-4.1h1.9V68.3z M62.9,57c0-1.1,0.9-1.9,1.9-1.9c1.1,0,1.9,0.9,1.9,1.9c0,1.1-0.9,1.9-1.9,1.9
			C63.7,59,62.9,58.1,62.9,57z M68,78.3h-1.9v-4.1H68V78.3z M68,73.3h-1.9v-4.1H68V73.3z M68,68.3h-1.9v-4.1H68V68.3z M72.6,78.3
			h-1.9v-4.1h1.9V78.3z M72.6,73.3h-1.9v-4.1h1.9V73.3z M72.6,68.3h-1.9v-4.1h1.9V68.3z M77.1,78.3h-1.9v-4.1h1.9V78.3z M77.1,73.3
			h-1.9v-4.1h1.9V73.3z M77.1,68.3h-1.9v-4.1h1.9V68.3z M77.3,61.8h-1.1v-1.7h1.1V61.8z M79,61.8h-1.1v-1.7H79V61.8z"/>
	</g>
	<g>
		<g>
			<g>
				<path class="st22" d="M46.5,56.4l-1-1.6c-0.2-0.3-0.1-0.8,0.2-1l18.7-12.4c0.2-0.2,0.6-0.2,0.8,0l9.5,6.8c0.3,0.2,0.6,0.2,0.9,0
					l5.5-4.4c0.3-0.2,0.8-0.2,1,0.1l1.2,1.5c0.2,0.3,0.2,0.8-0.1,1l-7.4,6c-0.2,0.2-0.6,0.2-0.9,0l-9.7-6.9c-0.2-0.2-0.6-0.2-0.8,0
					L47.5,56.6C47.2,56.8,46.7,56.7,46.5,56.4z"/>
			</g>
		</g>
		<g>
			<g>
				<path class="st22" d="M86.7,41.9l-0.2,6.7c0,0.9-1.1,1.3-1.7,0.7l-6.5-6.5c-0.6-0.6-0.2-1.6,0.7-1.7l6.6-0.2
					C86.2,40.9,86.7,41.4,86.7,41.9z"/>
			</g>
		</g>
	</g>
</g>
<g>
	<g>
		<path class="st22" d="M66.2,122.7c-28,0-52.4-18.9-59.4-46c-0.3-1.2-0.6-2.4-0.8-3.6l1.2-0.2C7.5,74,7.7,75.2,8,76.4
			c6.8,26.5,30.8,45.1,58.2,45.1s51.4-18.5,58.2-45.1l1.2,0.3C118.7,103.8,94.2,122.7,66.2,122.7z"/>
	</g>
	<g>
		<path class="st23" d="M7.3,49.4l-1.2-0.2C11.8,20.7,37.1,0,66.2,0s54.4,20.7,60.1,49.2l-1.2,0.2C119.5,21.5,94.7,1.3,66.2,1.3
			S12.9,21.5,7.3,49.4z"/>
	</g>
	<g>
		<circle class="st23" cx="5.5" cy="62.9" r="5"/>
		<path class="st23" d="M5.5,68.1c-2.9,0-5.2-2.3-5.2-5.2s2.3-5.2,5.2-5.2s5.2,2.3,5.2,5.2C10.7,65.8,8.4,68.1,5.5,68.1z M5.5,58.1
			c-2.7,0-4.8,2.2-4.8,4.8c0,2.6,2.2,4.8,4.8,4.8s4.8-2.2,4.8-4.8S8.2,58.1,5.5,58.1z"/>
	</g>
	<g>
		<circle class="st22" cx="126.5" cy="62.9" r="5"/>
		<path class="st22" d="M126.5,68.1c-2.9,0-5.2-2.3-5.2-5.2s2.3-5.2,5.2-5.2s5.2,2.3,5.2,5.2C131.7,65.8,129.4,68.1,126.5,68.1z
			 M126.5,58.1c-2.7,0-4.8,2.2-4.8,4.8c0,2.6,2.2,4.8,4.8,4.8s4.8-2.2,4.8-4.8S129.2,58.1,126.5,58.1z"/>
	</g>
</g>
<g>
	<path class="st21" d="M5.5,61.3"/>
</g>
</svg>
