<?xml version="1.0" encoding="utf-8"?>
<!-- Generator: Adobe Illustrator 22.1.0, SVG Export Plug-In . SVG Version: 6.00 Build 0)  -->
<svg version="1.1" id="图层_1" xmlns="http://www.w3.org/2000/svg" xmlns:xlink="http://www.w3.org/1999/xlink" x="0px" y="0px"
	 viewBox="0 0 132 142" style="enable-background:new 0 0 132 142;" xml:space="preserve">
<style type="text/css">
	.st0{fill:#EFEFEF;}
	.st1{fill:#294441;}
	.st2{fill:#00B5A3;}
	.st3{clip-path:url(#SVGID_2_);fill:#FFFFFF;}
	.st4{clip-path:url(#SVGID_2_);fill:#FEFEFE;}
	.st5{clip-path:url(#SVGID_2_);fill:#FDFDFD;}
	.st6{clip-path:url(#SVGID_2_);fill:#FCFCFC;}
	.st7{clip-path:url(#SVGID_2_);fill:#FBFBFB;}
	.st8{clip-path:url(#SVGID_2_);fill:#FAFAFA;}
	.st9{clip-path:url(#SVGID_2_);fill:#F9F9F9;}
	.st10{clip-path:url(#SVGID_2_);fill:#F8F8F8;}
	.st11{clip-path:url(#SVGID_2_);fill:#F7F7F7;}
	.st12{clip-path:url(#SVGID_2_);fill:#F5F7F7;}
	.st13{clip-path:url(#SVGID_2_);fill:#F4F6F6;}
	.st14{clip-path:url(#SVGID_2_);fill:#F3F5F5;}
	.st15{clip-path:url(#SVGID_2_);fill:#F2F4F4;}
	.st16{clip-path:url(#SVGID_2_);fill:#F1F3F3;}
	.st17{clip-path:url(#SVGID_2_);fill:#F0F2F2;}
	.st18{clip-path:url(#SVGID_2_);fill:#EFF1F1;}
	.st19{clip-path:url(#SVGID_2_);fill:#EEF0F0;}
	.st20{clip-path:url(#SVGID_2_);fill:#EDEFEF;}
</style>
<g>
	<ellipse class="st0" cx="67.5" cy="135.1" rx="34.6" ry="6.9"/>
</g>
<g>
	<g>
		<g>
			<path class="st1" d="M66.2,122.8c-28,0-52.5-18.9-59.4-46c-0.3-1.2-0.6-2.4-0.8-3.6L6.8,73c0.2,1.2,0.5,2.4,0.8,3.5
				c6.9,26.7,31,45.4,58.6,45.4s51.7-18.7,58.6-45.4l0.8,0.2C118.7,103.8,94.3,122.8,66.2,122.8z"/>
		</g>
		<g>
			<path class="st2" d="M6.9,49.4l-0.8-0.2C11.8,20.7,37.1,0,66.2,0c29.1,0,54.4,20.7,60.2,49.2l-0.8,0.2
				C119.9,21.3,95,0.9,66.2,0.9C37.5,0.9,12.6,21.3,6.9,49.4z"/>
		</g>
		<g>
			<circle class="st2" cx="5.3" cy="62.9" r="5"/>
			<path class="st2" d="M5.3,68.2c-2.9,0-5.3-2.4-5.3-5.3s2.4-5.3,5.3-5.3s5.3,2.4,5.3,5.3S8.2,68.2,5.3,68.2z M5.3,58.1
				c-2.7,0-4.8,2.2-4.8,4.8s2.2,4.8,4.8,4.8s4.8-2.2,4.8-4.8S8,58.1,5.3,58.1z"/>
		</g>
		<g>
			<circle class="st1" cx="126.8" cy="62.9" r="5"/>
			<path class="st1" d="M126.8,68.2c-2.9,0-5.3-2.4-5.3-5.3s2.4-5.3,5.3-5.3c2.9,0,5.3,2.4,5.3,5.3S129.7,68.2,126.8,68.2z
				 M126.8,58.1c-2.7,0-4.8,2.2-4.8,4.8s2.2,4.8,4.8,4.8s4.8-2.2,4.8-4.8S129.5,58.1,126.8,58.1z"/>
		</g>
	</g>
	<g>
		<g>
			<g>
				<g>
					<defs>
						<ellipse id="SVGID_1_" cx="66" cy="61.4" rx="43.7" ry="44"/>
					</defs>
					<clipPath id="SVGID_2_">
						<use xlink:href="#SVGID_1_"  style="overflow:visible;"/>
					</clipPath>
					<path class="st3" d="M109.7,17.4H22.4H109.7z"/>
					<rect x="22.4" y="17.4" class="st3" width="87.4" height="4.9"/>
					<rect x="22.4" y="22.2" class="st4" width="87.4" height="4.9"/>
					<rect x="22.4" y="27.1" class="st5" width="87.4" height="4.9"/>
					<rect x="22.4" y="32" class="st6" width="87.4" height="4.9"/>
					<rect x="22.4" y="36.9" class="st7" width="87.4" height="4.9"/>
					<rect x="22.4" y="41.8" class="st8" width="87.4" height="4.9"/>
					<rect x="22.4" y="46.7" class="st9" width="87.4" height="4.9"/>
					<rect x="22.4" y="51.6" class="st10" width="87.4" height="4.9"/>
					<rect x="22.4" y="56.5" class="st11" width="87.4" height="4.9"/>
					<rect x="22.4" y="61.4" class="st12" width="87.4" height="4.9"/>
					<rect x="22.4" y="66.3" class="st13" width="87.4" height="4.9"/>
					<rect x="22.4" y="71.2" class="st14" width="87.4" height="4.9"/>
					<rect x="22.4" y="76.1" class="st15" width="87.4" height="4.9"/>
					<rect x="22.4" y="81" class="st16" width="87.4" height="4.9"/>
					<rect x="22.4" y="85.8" class="st17" width="87.4" height="4.9"/>
					<rect x="22.4" y="90.7" class="st18" width="87.4" height="4.9"/>
					<rect x="22.4" y="95.6" class="st19" width="87.4" height="4.9"/>
					<rect x="22.4" y="100.5" class="st20" width="87.4" height="4.9"/>
					<path class="st20" d="M22.4,105.4h87.4H22.4z"/>
				</g>
			</g>
		</g>
		<g>
			<defs>
				<ellipse id="SVGID_3_" cx="66" cy="61.4" rx="43.7" ry="44"/>
			</defs>
			<clipPath id="SVGID_4_">
				<use xlink:href="#SVGID_3_"  style="overflow:visible;"/>
			</clipPath>
		</g>
		<g>
			<g>
				<g>
					<path class="st1" d="M41.5,56.5l-2.9-0.6c2.6-13,14.1-22.5,27.4-22.5c0,0,0,0,0.1,0c6.1,0,11.9,1.9,16.8,5.6
						c4.7,3.5,8.3,8.6,10,14.2L90,54C86.7,43.5,77.1,36.4,66,36.4c0,0,0,0-0.1,0C54.1,36.4,43.8,44.9,41.5,56.5z"/>
				</g>
				<g>
					<g>
						<polygon class="st1" points="85.6,53 92.5,61.3 96.2,51.1 						"/>
					</g>
				</g>
			</g>
			<g>
				<g>
					<path class="st1" d="M66,89.3c-6.1,0-11.9-1.9-16.8-5.6c-4.7-3.5-8.3-8.6-10-14.2l2.8-0.9C45.4,79.3,55,86.4,66,86.4
						c0,0,0,0,0.1,0c11.9,0,22.2-8.5,24.5-20.1l2.9,0.6C90.9,79.9,79.4,89.3,66,89.3C66.1,89.3,66.1,89.3,66,89.3z"/>
				</g>
				<g>
					<g>
						<polygon class="st1" points="46.5,69.7 39.5,61.4 35.8,71.6 						"/>
					</g>
				</g>
			</g>
		</g>
		<g>
			<g>
				<rect x="64.7" y="50.4" class="st1" width="4.4" height="21.9"/>
			</g>
			<g>
				<rect x="70.2" y="60.8" class="st1" width="4.4" height="11.6"/>
			</g>
			<g>
				<rect x="75.7" y="58.3" class="st1" width="4.4" height="14"/>
			</g>
			<g>
				<rect x="53.7" y="58.5" class="st1" width="4.4" height="13.9"/>
			</g>
			<g>
				<rect x="59.2" y="55.8" class="st1" width="4.4" height="16.5"/>
			</g>
		</g>
	</g>
</g>
</svg>
