<?xml version="1.0" encoding="utf-8"?>
<!-- Generator: Adobe Illustrator 22.1.0, SVG Export Plug-In . SVG Version: 6.00 Build 0)  -->
<svg version="1.1" id="图层_1" xmlns="http://www.w3.org/2000/svg" xmlns:xlink="http://www.w3.org/1999/xlink" x="0px" y="0px"
	 viewBox="0 0 132 142" style="enable-background:new 0 0 132 142;" xml:space="preserve">
<style type="text/css">
	.st0{fill:#EFEFEF;}
	.st1{clip-path:url(#SVGID_2_);fill:#FFFFFF;}
	.st2{clip-path:url(#SVGID_2_);fill:#FEFEFE;}
	.st3{clip-path:url(#SVGID_2_);fill:#FDFDFD;}
	.st4{clip-path:url(#SVGID_2_);fill:#FCFCFC;}
	.st5{clip-path:url(#SVGID_2_);fill:#FBFBFB;}
	.st6{clip-path:url(#SVGID_2_);fill:#FAFAFA;}
	.st7{clip-path:url(#SVGID_2_);fill:#F9F9F9;}
	.st8{clip-path:url(#SVGID_2_);fill:#F8F8F8;}
	.st9{clip-path:url(#SVGID_2_);fill:#F7F7F7;}
	.st10{clip-path:url(#SVGID_2_);fill:#F5F7F7;}
	.st11{clip-path:url(#SVGID_2_);fill:#F4F6F6;}
	.st12{clip-path:url(#SVGID_2_);fill:#F3F5F5;}
	.st13{clip-path:url(#SVGID_2_);fill:#F2F4F4;}
	.st14{clip-path:url(#SVGID_2_);fill:#F1F3F3;}
	.st15{clip-path:url(#SVGID_2_);fill:#F0F2F2;}
	.st16{clip-path:url(#SVGID_2_);fill:#EFF1F1;}
	.st17{clip-path:url(#SVGID_2_);fill:#EEF0F0;}
	.st18{clip-path:url(#SVGID_2_);fill:#EDEFEF;}
	.st19{fill:none;}
	.st20{fill:#294441;}
	.st21{clip-path:url(#SVGID_6_);}
	.st22{fill:#233A36;}
	.st23{fill:#00B5A3;}
</style>
<g>
	<ellipse class="st0" cx="67.5" cy="135.1" rx="34.6" ry="6.9"/>
</g>
<g>
	<g>
		<g>
			<defs>
				<ellipse id="SVGID_1_" cx="66" cy="61.3" rx="43.7" ry="44"/>
			</defs>
			<clipPath id="SVGID_2_">
				<use xlink:href="#SVGID_1_"  style="overflow:visible;"/>
			</clipPath>
			<path class="st1" d="M109.7,17.3H22.3H109.7z"/>
			<rect x="22.3" y="17.3" class="st1" width="87.3" height="4.9"/>
			<rect x="22.3" y="22.2" class="st2" width="87.3" height="4.9"/>
			<rect x="22.3" y="27.1" class="st3" width="87.3" height="4.9"/>
			<rect x="22.3" y="32" class="st4" width="87.3" height="4.9"/>
			<rect x="22.3" y="36.9" class="st5" width="87.3" height="4.9"/>
			<rect x="22.3" y="41.8" class="st6" width="87.3" height="4.9"/>
			<rect x="22.3" y="46.7" class="st7" width="87.3" height="4.9"/>
			<rect x="22.3" y="51.6" class="st8" width="87.3" height="4.9"/>
			<rect x="22.3" y="56.5" class="st9" width="87.3" height="4.9"/>
			<rect x="22.3" y="61.3" class="st10" width="87.3" height="4.9"/>
			<rect x="22.3" y="66.2" class="st11" width="87.3" height="4.9"/>
			<rect x="22.3" y="71.1" class="st12" width="87.3" height="4.9"/>
			<rect x="22.3" y="76" class="st13" width="87.3" height="4.9"/>
			<rect x="22.3" y="80.9" class="st14" width="87.3" height="4.9"/>
			<rect x="22.3" y="85.8" class="st15" width="87.3" height="4.9"/>
			<rect x="22.3" y="90.7" class="st16" width="87.3" height="4.9"/>
			<rect x="22.3" y="95.6" class="st17" width="87.3" height="4.9"/>
			<rect x="22.3" y="100.5" class="st18" width="87.3" height="4.9"/>
			<path class="st18" d="M22.3,105.4h87.3H22.3z"/>
		</g>
	</g>
	<g>
		<defs>
			<ellipse id="SVGID_3_" cx="66" cy="61.3" rx="43.7" ry="44"/>
		</defs>
		<clipPath id="SVGID_4_">
			<use xlink:href="#SVGID_3_"  style="overflow:visible;"/>
		</clipPath>
	</g>
	<g>
		<path class="st19" d="M61.8,50.5h-0.2c-1.4,0-2.6,1.2-2.6,2.6v9.3h5.3v-9.3C64.4,51.6,63.2,50.5,61.8,50.5z"/>
	</g>
	<g>
		<path class="st19" d="M73.1,50.5h-0.2c-1.4,0-2.6,1.2-2.6,2.6v9.3h5.3v-9.3C75.7,51.6,74.5,50.5,73.1,50.5z"/>
	</g>
	<g>
		<g>
			<g>
				<g>
					<polygon class="st20" points="67.5,34.8 51.3,44.8 51.3,47.8 83.6,47.8 83.6,44.8 					"/>
				</g>
				<g>
					<defs>
						<polygon id="SVGID_5_" points="67.5,34.8 51.3,44.8 51.3,47.8 83.6,47.8 83.6,44.8 						"/>
					</defs>
					<clipPath id="SVGID_6_">
						<use xlink:href="#SVGID_5_"  style="overflow:visible;"/>
					</clipPath>
					<g class="st21">
						<rect x="50.8" y="44.8" class="st22" width="33.5" height="4.3"/>
					</g>
				</g>
			</g>
			<g>
				<path class="st20" d="M80,62.4V49.1H54.7v13.3h-3v3.3h31.6v-3.3H80z M64.4,62.4h-5.3v-9.3c0-1.4,1.2-2.6,2.6-2.6h0.2
					c1.4,0,2.6,1.2,2.6,2.6V62.4z M75.7,62.4h-5.3v-9.3c0-1.4,1.2-2.6,2.6-2.6h0.2c1.4,0,2.6,1.2,2.6,2.6V62.4z"/>
			</g>
		</g>
		<g>
			<path class="st20" d="M89.3,70.7c-0.4,0.1-0.8,0.4-1.8,0.1c-0.5-0.2-0.9-0.1-1.4-0.1c-0.5,0.1-0.9,0.2-1.3,0.4
				c-1.1,0.6-2.2,1.2-3.3,1.8c-0.9,0.5-1.8,1-2.7,1.5c-0.1,0-0.2,0.2-0.3,0.2c0,0,0.1,0,0,0c1.1,0.2,3.9,1.3,3.4,3.8
				c-0.5,2.5-3.1,2.5-3.9,2.5c-0.8,0-6.2-0.9-7.1-1.1c-1-0.2-8-1-9.3-1c-1.3,0-1.9-0.5-1.7-1c0.2-0.5,1.2-0.4,1.2-0.4
				c4.6,0,10.1,1,12.1,1.5c1.1,0.3,2.1,0.5,3.2,0.7c1.3,0.3,2.5,0.5,3.7-0.2c1-0.6,1-1.8,0.3-2.7c-0.4-0.5-0.9-0.7-1.4-1
				c-0.5-0.3-5.7-1.6-6.7-1.8c-0.3-0.1-0.6-0.1-1-0.2c-0.2-0.1-0.4-0.1-0.6-0.1c-2.3-0.5-4.2-1.2-4.6-1.3c-1.1-0.3-2.4-0.8-3.9-1.8
				c-1.5-1-5-1.9-7.1-1.9c-2,0-7,0.9-10.9,4.1c-0.7,0.1-5.8,1-6.1,1.2l5.2,9.5c0,0,3-0.8,3.7-0.9c0.6-0.1,2.4-0.9,4.5-0.2
				c2.1,0.7,6,2,6.5,2.2c0.5,0.1,6.1,2.8,6.7,3c0.6,0.2,2.5,0.9,4.3,0.3c1.7-0.6,10.6-4.4,14.9-7.1c4.3-2.7,9.8-6.1,10-8.1
				C94,70.4,90.2,70.6,89.3,70.7z"/>
		</g>
	</g>
	<g>
		<g>
			<path class="st20" d="M66.2,122.7c-28,0-52.4-18.9-59.4-46c-0.3-1.2-0.6-2.4-0.8-3.6L6.8,73c0.2,1.2,0.5,2.4,0.8,3.5
				c6.9,26.7,31,45.4,58.6,45.4c27.6,0,51.7-18.7,58.6-45.4l0.8,0.2C118.6,103.8,94.2,122.7,66.2,122.7z"/>
		</g>
		<g>
			<path class="st23" d="M6.9,49.3l-0.8-0.2C11.8,20.7,37.1,0,66.2,0c29.1,0,54.4,20.7,60.1,49.2l-0.8,0.2
				C119.9,21.2,94.9,0.8,66.2,0.8C37.5,0.8,12.5,21.2,6.9,49.3z"/>
		</g>
		<g>
			<circle class="st23" cx="5.3" cy="62.9" r="5"/>
			<path class="st23" d="M5.3,68.1c-2.9,0-5.3-2.4-5.3-5.3c0-2.9,2.4-5.3,5.3-5.3s5.3,2.4,5.3,5.3C10.5,65.8,8.2,68.1,5.3,68.1z
				 M5.3,58.1c-2.7,0-4.8,2.2-4.8,4.8s2.2,4.8,4.8,4.8s4.8-2.2,4.8-4.8S7.9,58.1,5.3,58.1z"/>
		</g>
		<g>
			<circle class="st20" cx="126.7" cy="62.9" r="5"/>
			<path class="st20" d="M126.7,68.1c-2.9,0-5.3-2.4-5.3-5.3c0-2.9,2.4-5.3,5.3-5.3c2.9,0,5.3,2.4,5.3,5.3
				C132,65.8,129.6,68.1,126.7,68.1z M126.7,58.1c-2.7,0-4.8,2.2-4.8,4.8s2.2,4.8,4.8,4.8c2.7,0,4.8-2.2,4.8-4.8
				S129.4,58.1,126.7,58.1z"/>
		</g>
	</g>
</g>
</svg>
