<?xml version="1.0" encoding="utf-8"?>
<!-- Generator: Adobe Illustrator 22.1.0, SVG Export Plug-In . SVG Version: 6.00 Build 0)  -->
<svg version="1.1" id="图层_1" xmlns="http://www.w3.org/2000/svg" xmlns:xlink="http://www.w3.org/1999/xlink" x="0px" y="0px"
	 viewBox="0 0 132 142" style="enable-background:new 0 0 132 142;" xml:space="preserve">
<style type="text/css">
	.st0{fill:#EFEFEF;}
	.st1{fill:none;stroke:#00B5A3;stroke-width:2;stroke-miterlimit:10;}
	.st2{clip-path:url(#SVGID_2_);fill:#FFFFFF;}
	.st3{clip-path:url(#SVGID_2_);fill:#FEFEFE;}
	.st4{clip-path:url(#SVGID_2_);fill:#FDFDFD;}
	.st5{clip-path:url(#SVGID_2_);fill:#FCFCFC;}
	.st6{clip-path:url(#SVGID_2_);fill:#FBFBFB;}
	.st7{clip-path:url(#SVGID_2_);fill:#FAFAFA;}
	.st8{clip-path:url(#SVGID_2_);fill:#F9F9F9;}
	.st9{clip-path:url(#SVGID_2_);fill:#F8F8F8;}
	.st10{clip-path:url(#SVGID_2_);fill:#F7F7F7;}
	.st11{clip-path:url(#SVGID_2_);fill:#F5F7F7;}
	.st12{clip-path:url(#SVGID_2_);fill:#F4F6F6;}
	.st13{clip-path:url(#SVGID_2_);fill:#F3F5F5;}
	.st14{clip-path:url(#SVGID_2_);fill:#F2F4F4;}
	.st15{clip-path:url(#SVGID_2_);fill:#F1F3F3;}
	.st16{clip-path:url(#SVGID_2_);fill:#F0F2F2;}
	.st17{clip-path:url(#SVGID_2_);fill:#EFF1F1;}
	.st18{clip-path:url(#SVGID_2_);fill:#EEF0F0;}
	.st19{clip-path:url(#SVGID_2_);fill:#EDEFEF;}
	.st20{fill:#294441;}
	.st21{fill:#00B5A3;}
	.st22{fill:#406861;}
	.st23{fill:#FEFEFE;}
	.st24{fill:#BDE0D9;}
	.st25{fill:#DAEFEB;}
</style>
<g>
	<ellipse class="st0" cx="67.5" cy="135.1" rx="34.6" ry="6.9"/>
</g>
<g>
	<path class="st1" d="M5.5,61.3"/>
</g>
<g>
	<path class="st1" d="M5.5,61.3"/>
</g>
<g>
	<g>
		<defs>
			<ellipse id="SVGID_1_" cx="66" cy="61.3" rx="43.7" ry="44"/>
		</defs>
		<clipPath id="SVGID_2_">
			<use xlink:href="#SVGID_1_"  style="overflow:visible;"/>
		</clipPath>
		<path class="st2" d="M109.7,17.3H22.3H109.7z"/>
		<rect x="22.3" y="17.3" class="st2" width="87.3" height="4.9"/>
		<rect x="22.3" y="22.2" class="st3" width="87.3" height="4.9"/>
		<rect x="22.3" y="27.1" class="st4" width="87.3" height="4.9"/>
		<rect x="22.3" y="32" class="st5" width="87.3" height="4.9"/>
		<rect x="22.3" y="36.9" class="st6" width="87.3" height="4.9"/>
		<rect x="22.3" y="41.8" class="st7" width="87.3" height="4.9"/>
		<rect x="22.3" y="46.7" class="st8" width="87.3" height="4.9"/>
		<rect x="22.3" y="51.6" class="st9" width="87.3" height="4.9"/>
		<rect x="22.3" y="56.5" class="st10" width="87.3" height="4.9"/>
		<rect x="22.3" y="61.3" class="st11" width="87.3" height="4.9"/>
		<rect x="22.3" y="66.2" class="st12" width="87.3" height="4.9"/>
		<rect x="22.3" y="71.1" class="st13" width="87.3" height="4.9"/>
		<rect x="22.3" y="76" class="st14" width="87.3" height="4.9"/>
		<rect x="22.3" y="80.9" class="st15" width="87.3" height="4.9"/>
		<rect x="22.3" y="85.8" class="st16" width="87.3" height="4.9"/>
		<rect x="22.3" y="90.7" class="st17" width="87.3" height="4.9"/>
		<rect x="22.3" y="95.6" class="st18" width="87.3" height="4.9"/>
		<rect x="22.3" y="100.5" class="st19" width="87.3" height="4.9"/>
		<path class="st19" d="M22.3,105.4h87.3H22.3z"/>
	</g>
</g>
<g>
	<g>
		<path class="st20" d="M66.2,122.7c-28,0-52.4-18.9-59.4-46c-0.3-1.2-0.6-2.4-0.8-3.6L6.8,73c0.2,1.2,0.5,2.4,0.8,3.5
			c6.9,26.7,31,45.4,58.6,45.4c27.6,0,51.7-18.7,58.6-45.4l0.8,0.2C118.6,103.8,94.2,122.7,66.2,122.7z"/>
	</g>
	<g>
		<path class="st21" d="M6.9,49.3l-0.8-0.2C11.8,20.7,37.1,0,66.2,0c29.1,0,54.4,20.7,60.1,49.2l-0.8,0.2
			C119.9,21.2,94.9,0.8,66.2,0.8C37.5,0.8,12.5,21.2,6.9,49.3z"/>
	</g>
	<g>
		<circle class="st21" cx="5.3" cy="62.9" r="5"/>
		<path class="st21" d="M5.3,68.1c-2.9,0-5.3-2.4-5.3-5.3c0-2.9,2.4-5.3,5.3-5.3s5.3,2.4,5.3,5.3C10.5,65.8,8.2,68.1,5.3,68.1z
			 M5.3,58.1c-2.7,0-4.8,2.2-4.8,4.8c0,2.7,2.2,4.8,4.8,4.8s4.8-2.2,4.8-4.8C10.1,60.2,7.9,58.1,5.3,58.1z"/>
	</g>
	<g>
		<circle class="st20" cx="126.7" cy="62.9" r="5"/>
		<path class="st20" d="M126.7,68.1c-2.9,0-5.3-2.4-5.3-5.3c0-2.9,2.4-5.3,5.3-5.3c2.9,0,5.3,2.4,5.3,5.3
			C132,65.8,129.6,68.1,126.7,68.1z M126.7,58.1c-2.7,0-4.8,2.2-4.8,4.8c0,2.7,2.2,4.8,4.8,4.8c2.7,0,4.8-2.2,4.8-4.8
			C131.6,60.2,129.4,58.1,126.7,58.1z"/>
	</g>
</g>
<g>
	<defs>
		<ellipse id="SVGID_3_" cx="66" cy="61.3" rx="43.7" ry="44"/>
	</defs>
	<clipPath id="SVGID_4_">
		<use xlink:href="#SVGID_3_"  style="overflow:visible;"/>
	</clipPath>
</g>
<g>
	<g>
		<path class="st22" d="M56.2,64.3c-1.3,0-2.6,0.4-3.6,1.1v10.3c1,0.7,2.3,1.1,3.6,1.1c3.5,0,6.3-2.8,6.3-6.3S59.7,64.3,56.2,64.3z"
			/>
	</g>
	<g>
		<path class="st20" d="M73.4,39.5V46c0,0.1,0.1,0.2,0.2,0.2h9.8c0.2,0,0.3-0.3,0.2-0.4l-9.8-6.5C73.7,39.2,73.4,39.3,73.4,39.5z"/>
	</g>
	<g>
		<path class="st20" d="M83.7,48.3h-12c-0.3,0-0.5-0.2-0.5-0.5v-8.4c0-0.3-0.2-0.5-0.5-0.5H53.4c-0.3,0-0.5,0.2-0.5,0.5v23.2
			c1-0.4,2.2-0.7,3.4-0.7c4.8,0,8.6,3.9,8.6,8.6c0,2.5-1.1,4.8-2.9,6.4h21.7c0.3,0,0.5-0.2,0.5-0.5V48.8
			C84.2,48.5,83.9,48.3,83.7,48.3z"/>
	</g>
	<g>
		<path class="st23" d="M63.5,51.6h-1.6V53h1.5v0.5h-1.5v1.8h-0.5v-4.1h2.1V51.6z"/>
		<path class="st23" d="M68.8,55.1c-0.3,0.2-0.7,0.2-1.1,0.2c-0.6,0-1.1-0.2-1.4-0.6c-0.4-0.4-0.5-0.9-0.5-1.5
			c0-0.7,0.2-1.2,0.6-1.6c0.4-0.4,0.9-0.6,1.5-0.6c0.4,0,0.7,0.1,1,0.2v0.6c-0.3-0.2-0.6-0.2-1-0.2c-0.5,0-0.8,0.2-1.1,0.5
			c-0.3,0.3-0.4,0.7-0.4,1.2c0,0.5,0.1,0.9,0.4,1.2c0.3,0.3,0.6,0.4,1.1,0.4c0.4,0,0.8-0.1,1.1-0.3V55.1z"/>
		<path class="st23" d="M74.5,55.3h-0.6l-0.4-1.1h-1.7l-0.4,1.1h-0.6l1.6-4.1h0.6L74.5,55.3z M73.3,53.7L72.7,52
			c0-0.1,0-0.2-0.1-0.3h0c0,0.1,0,0.2-0.1,0.3l-0.6,1.7H73.3z"/>
	</g>
	<g>
		<g>
			<path class="st24" d="M57.6,59.3v0.8c0,0.1,0,0.1,0.1,0.1h21.6c0.1,0,0.1,0,0.1-0.1v-0.8c0-0.1,0-0.1-0.1-0.1H57.7
				C57.7,59.2,57.6,59.3,57.6,59.3z"/>
		</g>
		<g>
			<path class="st24" d="M57.6,62.1c0.9,0.2,1.8,0.5,2.7,0.9c0,0,0,0,0.1,0l19,0c0.1,0,0.1-0.1,0.1-0.1v-0.8c0-0.1-0.1-0.1-0.1-0.1
				H57.6V62.1z"/>
		</g>
		<g>
			<path class="st24" d="M79.4,66.2v-0.8c0-0.1-0.1-0.1-0.1-0.1H63.1l0.6,1h15.5C79.4,66.4,79.4,66.3,79.4,66.2z"/>
		</g>
		<g>
			<path class="st24" d="M79.4,69.6v-0.8c0-0.1-0.1-0.1-0.1-0.1H64.7l0.2,1h14.5C79.4,69.8,79.4,69.7,79.4,69.6z"/>
		</g>
		<g>
			<path class="st24" d="M79.4,72.9v-0.6c0-0.1-0.1-0.2-0.2-0.2H64.7l-0.2,1h14.7C79.3,73.1,79.4,73,79.4,72.9z"/>
		</g>
	</g>
	<g>
		<g>
			<path class="st25" d="M60.7,66.2h-2.8c-0.2,0-0.3-0.1-0.3-0.3v-0.5c0-0.2,0.1-0.3,0.3-0.3h2.8c0.2,0,0.3,0.1,0.3,0.3v0.5
				C61,66,60.9,66.2,60.7,66.2z"/>
		</g>
		<g>
			<path class="st25" d="M62.7,69.7h-4.8c-0.2,0-0.3-0.2-0.3-0.3V69c0-0.2,0.2-0.3,0.3-0.3h4.8c0.2,0,0.3,0.2,0.3,0.3v0.4
				C63.1,69.6,62.9,69.7,62.7,69.7z"/>
		</g>
		<g>
			<path class="st25" d="M62.7,73.3h-4.8c-0.2,0-0.3-0.1-0.3-0.3v-0.4c0-0.2,0.1-0.3,0.3-0.3h4.8c0.2,0,0.3,0.1,0.3,0.3v0.4
				C63.1,73.1,62.9,73.3,62.7,73.3z"/>
		</g>
	</g>
	<g>
		<g>
			<path class="st20" d="M44.4,81.4l-0.7-0.8c-0.2-0.2-0.2-0.5,0-0.7l6.5-5.7c0.2-0.2,0.5-0.2,0.7,0l0.7,0.8c0.2,0.2,0.2,0.5,0,0.7
				l-6.5,5.7C44.9,81.6,44.6,81.6,44.4,81.4z"/>
		</g>
		<g>
			<path class="st20" d="M56.2,63c-4.2,0-7.6,3.4-7.6,7.6s3.4,7.6,7.6,7.6s7.6-3.4,7.6-7.6S60.4,63,56.2,63z M56.2,76.5
				c-3.3,0-5.9-2.6-5.9-5.9c0-3.3,2.6-5.9,5.9-5.9s5.9,2.6,5.9,5.9C62.1,73.9,59.5,76.5,56.2,76.5z"/>
		</g>
	</g>
</g>
</svg>
