<?xml version="1.0" encoding="utf-8"?>
<!-- Generator: Adobe Illustrator 22.1.0, SVG Export Plug-In . SVG Version: 6.00 Build 0)  -->
<svg version="1.1" id="图层_1" xmlns="http://www.w3.org/2000/svg" xmlns:xlink="http://www.w3.org/1999/xlink" x="0px" y="0px"
	 viewBox="0 0 132 142" style="enable-background:new 0 0 132 142;" xml:space="preserve">
<style type="text/css">
	.st0{fill:#EFEFEF;}
	.st1{fill:#294441;}
	.st2{fill:#00B5A3;}
	.st3{clip-path:url(#SVGID_2_);fill:#FFFFFF;}
	.st4{clip-path:url(#SVGID_2_);fill:#FEFEFE;}
	.st5{clip-path:url(#SVGID_2_);fill:#FDFDFD;}
	.st6{clip-path:url(#SVGID_2_);fill:#FCFCFC;}
	.st7{clip-path:url(#SVGID_2_);fill:#FBFBFB;}
	.st8{clip-path:url(#SVGID_2_);fill:#FAFAFA;}
	.st9{clip-path:url(#SVGID_2_);fill:#F9F9F9;}
	.st10{clip-path:url(#SVGID_2_);fill:#F8F8F8;}
	.st11{clip-path:url(#SVGID_2_);fill:#F7F7F7;}
	.st12{clip-path:url(#SVGID_2_);fill:#F5F7F7;}
	.st13{clip-path:url(#SVGID_2_);fill:#F4F6F6;}
	.st14{clip-path:url(#SVGID_2_);fill:#F3F5F5;}
	.st15{clip-path:url(#SVGID_2_);fill:#F2F4F4;}
	.st16{clip-path:url(#SVGID_2_);fill:#F1F3F3;}
	.st17{clip-path:url(#SVGID_2_);fill:#F0F2F2;}
	.st18{clip-path:url(#SVGID_2_);fill:#EFF1F1;}
	.st19{clip-path:url(#SVGID_2_);fill:#EEF0F0;}
	.st20{clip-path:url(#SVGID_2_);fill:#EDEFEF;}
</style>
<g>
	<ellipse class="st0" cx="67.5" cy="135.1" rx="34.6" ry="6.9"/>
</g>
<g>
	<g>
		<g>
			<path class="st1" d="M66.2,122.7c-28,0-52.5-18.9-59.4-46c-0.3-1.2-0.6-2.4-0.8-3.6L6.8,73c0.2,1.2,0.5,2.4,0.8,3.5
				c6.9,26.7,31,45.4,58.6,45.4c27.6,0,51.7-18.7,58.6-45.4l0.8,0.2C118.7,103.8,94.2,122.7,66.2,122.7z"/>
		</g>
		<g>
			<path class="st2" d="M6.9,49.3L6,49.2C11.8,20.7,37.1,0,66.2,0c29.1,0,54.4,20.7,60.2,49.2l-0.8,0.2
				C119.9,21.2,94.9,0.8,66.2,0.8C37.5,0.8,12.5,21.2,6.9,49.3z"/>
		</g>
		<g>
			<circle class="st2" cx="5.3" cy="62.9" r="5"/>
			<path class="st2" d="M5.3,68.1c-2.9,0-5.3-2.4-5.3-5.3c0-2.9,2.4-5.3,5.3-5.3s5.3,2.4,5.3,5.3C10.5,65.8,8.2,68.1,5.3,68.1z
				 M5.3,58.1c-2.7,0-4.8,2.2-4.8,4.8s2.2,4.8,4.8,4.8s4.8-2.2,4.8-4.8S7.9,58.1,5.3,58.1z"/>
		</g>
		<g>
			<circle class="st1" cx="126.7" cy="62.9" r="5"/>
			<path class="st1" d="M126.7,68.1c-2.9,0-5.3-2.4-5.3-5.3c0-2.9,2.4-5.3,5.3-5.3c2.9,0,5.3,2.4,5.3,5.3
				C132,65.8,129.6,68.1,126.7,68.1z M126.7,58.1c-2.7,0-4.8,2.2-4.8,4.8s2.2,4.8,4.8,4.8s4.8-2.2,4.8-4.8S129.4,58.1,126.7,58.1z"
				/>
		</g>
	</g>
	<g>
		<g>
			<defs>
				<ellipse id="SVGID_1_" cx="66" cy="61.3" rx="43.7" ry="44"/>
			</defs>
			<clipPath id="SVGID_2_">
				<use xlink:href="#SVGID_1_"  style="overflow:visible;"/>
			</clipPath>
			<path class="st3" d="M109.7,17.3H22.3H109.7z"/>
			<rect x="22.3" y="17.3" class="st3" width="87.4" height="4.9"/>
			<rect x="22.3" y="22.2" class="st4" width="87.4" height="4.9"/>
			<rect x="22.3" y="27.1" class="st5" width="87.4" height="4.9"/>
			<rect x="22.3" y="32" class="st6" width="87.4" height="4.9"/>
			<rect x="22.3" y="36.9" class="st7" width="87.4" height="4.9"/>
			<rect x="22.3" y="41.8" class="st8" width="87.4" height="4.9"/>
			<rect x="22.3" y="46.7" class="st9" width="87.4" height="4.9"/>
			<rect x="22.3" y="51.6" class="st10" width="87.4" height="4.9"/>
			<rect x="22.3" y="56.5" class="st11" width="87.4" height="4.9"/>
			<rect x="22.3" y="61.3" class="st12" width="87.4" height="4.9"/>
			<rect x="22.3" y="66.2" class="st13" width="87.4" height="4.9"/>
			<rect x="22.3" y="71.1" class="st14" width="87.4" height="4.9"/>
			<rect x="22.3" y="76" class="st15" width="87.4" height="4.9"/>
			<rect x="22.3" y="80.9" class="st16" width="87.4" height="4.9"/>
			<rect x="22.3" y="85.8" class="st17" width="87.4" height="4.9"/>
			<rect x="22.3" y="90.7" class="st18" width="87.4" height="4.9"/>
			<rect x="22.3" y="95.6" class="st19" width="87.4" height="4.9"/>
			<rect x="22.3" y="100.5" class="st20" width="87.4" height="4.9"/>
			<path class="st20" d="M22.3,105.4h87.4H22.3z"/>
		</g>
	</g>
	<g>
		<g>
			<rect x="41.3" y="82.1" class="st1" width="50.8" height="1.4"/>
		</g>
		<g>
			
				<rect x="18.5" y="60.7" transform="matrix(-1.836970e-16 1 -1 -1.836970e-16 101.9377 20.7623)" class="st1" width="44.1" height="1.4"/>
		</g>
		<g>
			<g>
				<path class="st1" d="M82.5,59.3h1.8v-0.7c0-0.3,0-0.4-0.4-0.4v-0.1h1v0.1c-0.4,0-0.4,0.1-0.4,0.4v1.7c0,0.3,0,0.4,0.4,0.4v0.1
					h-1v-0.1c0.4,0,0.4-0.1,0.4-0.4v-0.8h-1.8v0.8c0,0.3,0,0.4,0.4,0.4v0.1h-1v-0.1c0.4,0,0.4-0.1,0.4-0.4v-1.7c0-0.3,0-0.4-0.4-0.4
					v-0.1h1v0.1c-0.3,0-0.4,0.1-0.4,0.4V59.3z"/>
				<path class="st1" d="M84.9,60.8h-1.1v-0.1l0,0c0.4,0,0.4-0.1,0.4-0.4v-0.8h-1.7v0.8c0,0.3,0,0.4,0.4,0.4l0,0v0.1h-1.1v-0.1l0,0
					c0.3,0,0.3-0.1,0.3-0.4v-1.7c0-0.3,0-0.4-0.4-0.4l0,0v-0.1h1.1v0.1l0,0c-0.3,0-0.3,0.1-0.3,0.4v0.7h1.7v-0.7
					c0-0.3,0-0.4-0.4-0.4l0,0v-0.1h1.1v0.1l0,0c-0.3,0-0.4,0.1-0.4,0.4v1.7c0,0.3,0,0.4,0.4,0.4l0,0V60.8z M84,60.7h0.6
					c-0.2,0-0.2-0.2-0.2-0.4v-1.7c0-0.3,0-0.4,0.3-0.4h-0.6c0.2,0,0.2,0.2,0.2,0.4v0.7h-1.9v-0.7c0-0.3,0-0.4,0.2-0.4h-0.6
					c0.2,0,0.3,0.2,0.3,0.4v1.7c0,0.3,0,0.4-0.2,0.4h0.6c-0.2,0-0.2-0.2-0.2-0.4v-0.9h1.9v0.9C84.3,60.6,84.3,60.7,84,60.7z"/>
			</g>
			<g>
				<path class="st1" d="M88.1,59.4c0,0.8-0.7,1.4-1.5,1.4c-0.8,0-1.4-0.6-1.4-1.3c0-0.7,0.5-1.4,1.5-1.4
					C87.4,58.1,88.1,58.6,88.1,59.4z M85.5,59.4c0,0.8,0.5,1.4,1.2,1.4c0.6,0,1.1-0.4,1.1-1.1c0-1-0.5-1.4-1.2-1.4
					C86,58.2,85.5,58.6,85.5,59.4z"/>
				<path class="st1" d="M86.6,60.9c-0.8,0-1.4-0.6-1.4-1.4c0-0.7,0.5-1.5,1.5-1.5c0.7,0,1.4,0.5,1.4,1.4
					C88.1,60.3,87.5,60.9,86.6,60.9z M86.7,58.1c-0.9,0-1.4,0.7-1.4,1.4c0,0.7,0.6,1.3,1.3,1.3c0.8,0,1.4-0.6,1.4-1.4
					C88,58.6,87.4,58.1,86.7,58.1z M86.7,60.8c-0.7,0-1.2-0.6-1.2-1.4c0-0.9,0.6-1.2,1.1-1.2c0.8,0,1.3,0.6,1.3,1.5
					C87.8,60.4,87.3,60.8,86.7,60.8z M86.6,58.2c-0.5,0-1,0.3-1,1.1c0,0.8,0.5,1.3,1.2,1.3c0.5,0,1-0.3,1-1.1
					C87.8,58.8,87.3,58.2,86.6,58.2z"/>
			</g>
			<g>
				<path class="st1" d="M89,60.7c0.4,0,0.4-0.1,0.4-0.4v-2.1h-0.3c-0.6,0-0.6,0.1-0.7,0.5h-0.1c0-0.2,0-0.5,0-0.7h0.1
					c0,0.1,0.1,0.1,0.1,0.1c0,0,0.1,0,0.1,0h1.7c0.1,0,0.1,0,0.2-0.1l0.1,0c0,0.2,0,0.5,0,0.7l-0.1,0c-0.1-0.5-0.3-0.5-0.6-0.5h-0.4
					v2.1c0,0.3,0,0.4,0.5,0.4v0.1L89,60.7L89,60.7z"/>
				<path class="st1" d="M90.2,60.8H89v-0.1l0,0c0.4,0,0.4-0.1,0.4-0.4v-2h-0.2c-0.5,0-0.6,0.1-0.7,0.5l0,0h-0.1l0,0
					c0-0.3,0-0.5,0-0.7l0,0h0.1l0,0c0,0,0.1,0.1,0.1,0.1c0,0,0.1,0,0.1,0h1.7c0.1,0,0.1,0,0.2-0.1l0,0l0.1,0l0,0c0,0.2,0,0.4,0,0.6
					l0,0.1l-0.1,0l0,0c-0.1-0.5-0.2-0.5-0.6-0.5h-0.3v2c0,0.3,0,0.3,0.4,0.4l0,0V60.8z M89.2,60.7h0.7c-0.2,0-0.3-0.2-0.3-0.4v-2.1
					H90c0.4,0,0.5,0.1,0.6,0.5c0-0.2,0-0.4,0-0.6l0,0c-0.1,0.1-0.1,0.1-0.2,0.1h-1.7c-0.1,0-0.1,0-0.1,0c0,0-0.1,0-0.1-0.1h0
					c0,0.2,0,0.4,0,0.6c0.1-0.4,0.2-0.5,0.7-0.5h0.3v2.1C89.5,60.6,89.5,60.7,89.2,60.7z"/>
			</g>
		</g>
		<g>
			<g>
				<path class="st1" d="M68.5,53.8c-0.3,0.6-0.5,0.8-0.7,0.8c-0.2,0-0.4-0.1-0.7-0.3c-0.3-0.2-0.4-0.2-0.6-0.2
					c-0.2,0-0.3,0-0.7,0.4c-0.1,0.1-0.2,0.1-0.3,0.1c-0.1,0-0.1,0-0.1-0.1c0-0.1,0.3-0.3,0.7-0.5c0.1-0.2,0.2-0.5,0.3-1h-0.7v-0.2
					h0.7c0.1-1.1,0.2-1.3,0.4-1.5c0.2-0.2,0.5-0.3,0.7-0.3c0.3,0,0.6,0.3,0.6,0.5c0,0.2-0.2,0.3-0.3,0.3c-0.1,0-0.2-0.1-0.2-0.2
					c0-0.1,0.1-0.2,0.2-0.2c0.1,0,0.1,0,0.1-0.1c0,0-0.1-0.2-0.4-0.2c-0.2,0-0.4,0.1-0.5,0.3c-0.1,0.2-0.2,0.5-0.2,0.9
					c0,0.2,0,0.3,0,0.5h0.8v0.2h-0.8c-0.1,0.3-0.2,0.6-0.4,0.9c0.1,0,0.3-0.1,0.4-0.1c0.2,0,0.4,0.1,1,0.4c0.1,0,0.1,0.1,0.2,0.1
					c0.2,0,0.3-0.1,0.5-0.6L68.5,53.8z"/>
				<path class="st1" d="M67.8,54.6c-0.2,0-0.5-0.1-0.7-0.3c-0.3-0.2-0.4-0.2-0.6-0.2c-0.2,0-0.2,0-0.6,0.4
					c-0.1,0.1-0.2,0.1-0.3,0.1c-0.1,0-0.1-0.1-0.1-0.1c0-0.1,0.3-0.4,0.7-0.5c0.1-0.2,0.2-0.5,0.3-0.9h-0.7v-0.3h0.7
					c0.1-1,0.2-1.3,0.5-1.5c0.2-0.2,0.5-0.3,0.7-0.3c0.3,0,0.7,0.3,0.7,0.6c0,0.2-0.2,0.3-0.3,0.3c-0.2,0-0.3-0.1-0.3-0.2
					c0-0.1,0.1-0.2,0.2-0.3c0,0,0,0,0.1,0c0,0-0.1-0.2-0.3-0.2c-0.2,0-0.4,0.1-0.5,0.3c-0.1,0.2-0.2,0.5-0.2,0.9c0,0.2,0,0.3,0,0.4
					h0.8V53h-0.8c-0.1,0.3-0.2,0.5-0.4,0.8c0.1,0,0.2,0,0.3,0c0.2,0,0.4,0.1,1,0.4c0.1,0,0.1,0.1,0.2,0.1c0.2,0,0.3-0.2,0.5-0.6l0,0
					l0.2,0.1l0,0C68.3,54.4,68.1,54.6,67.8,54.6z M66.5,54c0.2,0,0.3,0.1,0.6,0.3c0.3,0.2,0.5,0.3,0.7,0.3c0.2,0,0.4-0.2,0.7-0.7
					l-0.1,0c-0.1,0.4-0.3,0.6-0.5,0.6c-0.1,0-0.1,0-0.2-0.1c-0.6-0.3-0.8-0.4-0.9-0.4C66.7,53.8,66.5,53.9,66.5,54l-0.2,0l0.1-0.1
					c0.2-0.3,0.4-0.6,0.4-0.9l0,0h0.8v-0.1h-0.8l0,0c0-0.1,0-0.3,0-0.5c0-0.4,0.1-0.8,0.2-0.9c0.1-0.2,0.4-0.3,0.6-0.3
					c0.3,0,0.4,0.2,0.4,0.2c0,0.1-0.1,0.1-0.1,0.1c-0.1,0-0.1,0.1-0.1,0.2c0,0.1,0.1,0.2,0.2,0.2c0.1,0,0.2-0.1,0.2-0.2
					c0-0.2-0.3-0.5-0.6-0.5c-0.2,0-0.4,0.1-0.6,0.3c-0.3,0.2-0.3,0.4-0.4,1.5l0,0h-0.7v0.1h0.7l0,0c-0.1,0.5-0.1,0.8-0.3,1l0,0l0,0
					c-0.4,0.2-0.7,0.4-0.7,0.5c0,0,0,0,0.1,0c0.1,0,0.1,0,0.2-0.1C66.2,54,66.3,54,66.5,54z"/>
			</g>
		</g>
		<g>
			<polygon class="st1" points="50.3,73.2 49.7,72.7 60.2,58.7 74.2,65.6 87.1,45.8 87.8,46.2 74.5,66.7 60.4,59.8 			"/>
		</g>
		<g>
			<circle class="st1" cx="87.4" cy="46.8" r="2.1"/>
		</g>
		<g>
			<circle class="st1" cx="74.4" cy="66.2" r="2.1"/>
		</g>
		<g>
			<circle class="st1" cx="50" cy="73.3" r="2.1"/>
		</g>
		<g>
			<g>
				<polygon class="st1" points="63.2,68.4 46.2,59.6 46.6,58.9 62.9,67.3 74,46.6 74.7,47 				"/>
			</g>
			<g>
				<circle class="st1" cx="63" cy="67.9" r="2.1"/>
			</g>
			<g>
				<circle class="st1" cx="46.2" cy="59" r="2.1"/>
			</g>
			<g>
				<circle class="st1" cx="74.4" cy="46.8" r="2.1"/>
			</g>
		</g>
	</g>
</g>
</svg>
