<?xml version="1.0" encoding="utf-8"?>
<!-- Generator: Adobe Illustrator 22.1.0, SVG Export Plug-In . SVG Version: 6.00 Build 0)  -->
<svg version="1.1" id="图层_1" xmlns="http://www.w3.org/2000/svg" xmlns:xlink="http://www.w3.org/1999/xlink" x="0px" y="0px"
	 viewBox="0 0 65 65" style="enable-background:new 0 0 65 65;" xml:space="preserve">
<style type="text/css">
	.st0{opacity:0.75;fill:#02968C;}
</style>
<path class="st0" d="M32.5,0C14.6,0,0,14.6,0,32.5S14.6,65,32.5,65S65,50.4,65,32.5S50.4,0,32.5,0z M32.5,60.3
	c-15.3,0-27.8-12.5-27.8-27.8S17.2,4.7,32.5,4.7s27.8,12.5,27.8,27.8S47.8,60.3,32.5,60.3z"/>
<path class="st0" d="M23.5,41.7c0,2.6,1.8,3.6,4,2.3l16-9.2c2.2-1.3,2.2-3.4,0-4.7l-16-9.2c-2.2-1.3-4-0.2-4,2.3L23.5,41.7z"/>
</svg>
