<?xml version="1.0" encoding="utf-8"?>
<!-- Generator: Adobe Illustrator 23.0.0, SVG Export Plug-In . SVG Version: 6.00 Build 0)  -->
<svg version="1.1" id="图层_1" xmlns="http://www.w3.org/2000/svg" xmlns:xlink="http://www.w3.org/1999/xlink" x="0px" y="0px"
	 viewBox="0 0 750 870" style="enable-background:new 0 0 750 870;" xml:space="preserve">
<style type="text/css">
	.st0{enable-background:new    ;}
	.st1{fill:#D6D6D6;}
	.st2{fill:#0E0E0E;}
	.st3{fill:#0EAFA0;}
	.st4{fill:#CDBB78;}
	.st5{fill:#EC632F;}
</style>
<g id="_2.0_" class="st0">
	<path d="M79.2,331.6c0-0.9-0.3-1.6-0.8-2.2c-0.6-0.5-1.4-0.8-2.4-0.8c-0.6,0-1.4,0.2-2,0.5c-0.8,0.3-1.4,0.8-2,1.6v-2
		c0.5-0.6,1.1-0.9,1.9-1.3c0.6-0.3,1.6-0.5,2.5-0.5c1.6,0,2.7,0.5,3.6,1.3s1.4,1.9,1.4,3.3c0,1.3-0.3,2.4-0.8,3.1
		c-0.6,0.9-1.6,1.9-3,2.8s-2.4,1.7-2.8,2c-0.5,0.5-0.8,0.8-0.9,1.3c-0.2,0.3-0.3,0.8-0.3,1.4h8.3v1.9H71.4v-0.8
		c0-0.9,0.2-1.7,0.5-2.5c0.3-0.6,0.6-1.3,1.3-2c0.6-0.6,1.6-1.4,2.8-2.4c1.3-0.9,2.2-1.7,2.7-2.4C79,333.3,79.2,332.5,79.2,331.6z"
		/>
	<path d="M84.4,342.9c0-0.3,0.2-0.8,0.5-0.9c0.3-0.3,0.6-0.5,0.9-0.5c0.5,0,0.8,0.2,0.9,0.5c0.3,0.3,0.5,0.6,0.5,0.9
		s-0.2,0.6-0.5,0.9s-0.6,0.5-0.9,0.5c-0.5,0-0.8-0.2-0.9-0.5C84.4,343.5,84.4,343.2,84.4,342.9z"/>
	<path d="M89.4,336c0-3,0.5-5.2,1.4-6.7c0.9-1.6,2.4-2.4,4.2-2.4c3.6,0,5.3,2.8,5.3,8.6c0,2.8-0.5,5-1.6,6.4
		c-0.9,1.6-2.4,2.2-4.2,2.2c-1.7,0-3-0.8-3.9-2.2C89.9,340.7,89.4,338.7,89.4,336z M91.4,335.8c0,4.4,1.1,6.7,3.4,6.7
		c2.2,0,3.3-2.2,3.3-6.7c0-4.7-1.1-7.1-3.3-7.1C92.7,328.8,91.4,331.1,91.4,335.8z"/>
	<path d="M102.3,331.4c0-1.4,0.3-2.5,1.1-3.3c0.8-0.8,1.7-1.3,3-1.3s2.2,0.3,2.8,1.1c0.6,0.8,0.9,1.7,0.9,3.1c0,1.3-0.3,2.4-1.1,3.1
		c-0.8,0.8-1.7,1.3-3,1.3c-1.1,0-2-0.3-2.8-1.1C102.6,333.8,102.3,332.7,102.3,331.4z M104,331.3c0,0.9,0.2,1.7,0.6,2.2
		c0.5,0.5,0.9,0.8,1.7,0.8s1.3-0.3,1.7-0.8c0.5-0.5,0.6-1.3,0.6-2.2s-0.2-1.7-0.6-2.2c-0.3-0.5-0.9-0.8-1.6-0.8
		c-0.8,0-1.3,0.3-1.7,0.8C104.1,329.7,104,330.3,104,331.3z M117.5,327.2l-10.8,16.9H105l10.8-16.9H117.5z M112.3,340.1
		c0-1.4,0.3-2.5,1.1-3.3s1.7-1.3,3-1.3s2,0.3,2.8,1.1c0.6,0.8,0.9,1.7,0.9,3.1c0,1.3-0.3,2.4-1.1,3.1c-0.8,0.8-1.7,1.3-3,1.3
		c-1.1,0-2-0.3-2.8-1.1C112.6,342.3,112.3,341.3,112.3,340.1z M114,339.9c0,0.9,0.2,1.6,0.6,2.2c0.5,0.5,0.9,0.8,1.7,0.8
		s1.3-0.3,1.7-0.8c0.5-0.5,0.6-1.3,0.6-2.2c0-0.9-0.2-1.7-0.6-2.2c-0.5-0.5-0.9-0.8-1.6-0.8c-0.8,0-1.3,0.3-1.7,0.8
		C114.2,338.3,114,339,114,339.9z"/>
</g>
<g id="_4.0_" class="st0">
	<path d="M80.1,283.9V295h2.5v1.7h-2.5v3.9h-2v-3.9h-7.8V295c1.4-1.6,2.8-3.3,4.2-5.3s2.5-3.9,3.4-5.8L80.1,283.9L80.1,283.9z
		 M72.6,295.1h5.5v-8c-0.8,1.4-1.6,2.7-2.4,3.9C74.8,292.2,73.7,293.5,72.6,295.1z"/>
	<path d="M84.4,299.6c0-0.3,0.2-0.8,0.5-0.9c0.3-0.3,0.6-0.5,0.9-0.5c0.5,0,0.8,0.2,0.9,0.5c0.3,0.3,0.5,0.6,0.5,0.9
		s-0.2,0.6-0.5,0.9s-0.6,0.5-0.9,0.5c-0.5,0-0.8-0.2-0.9-0.5C84.4,300.2,84.4,299.9,84.4,299.6z"/>
	<path d="M89.4,292.7c0-3,0.5-5.2,1.4-6.7c0.9-1.6,2.4-2.4,4.2-2.4c3.6,0,5.3,2.8,5.3,8.6c0,2.8-0.5,5-1.6,6.4
		c-0.9,1.6-2.4,2.2-4.2,2.2c-1.7,0-3-0.8-3.9-2.2C89.9,297.4,89.4,295.4,89.4,292.7z M91.4,292.6c0,4.4,1.1,6.7,3.4,6.7
		c2.2,0,3.3-2.2,3.3-6.7c0-4.7-1.1-7.1-3.3-7.1C92.7,285.5,91.4,287.9,91.4,292.6z"/>
	<path d="M102.3,288.2c0-1.4,0.3-2.5,1.1-3.3c0.8-0.8,1.7-1.3,3-1.3s2.2,0.3,2.8,1.1c0.6,0.8,0.9,1.7,0.9,3.1c0,1.3-0.3,2.4-1.1,3.1
		c-0.8,0.8-1.7,1.3-3,1.3c-1.1,0-2-0.3-2.8-1.1C102.6,290.5,102.3,289.4,102.3,288.2z M104,288c0,0.9,0.2,1.7,0.6,2.2
		c0.5,0.5,0.9,0.8,1.7,0.8s1.3-0.3,1.7-0.8c0.5-0.5,0.6-1.3,0.6-2.2c0-0.9-0.2-1.7-0.6-2.2c-0.3-0.5-0.9-0.8-1.6-0.8
		c-0.8,0-1.3,0.3-1.7,0.8C104.1,286.4,104,287.1,104,288z M117.5,283.9l-10.8,16.9H105l10.8-16.9H117.5z M112.3,296.8
		c0-1.4,0.3-2.5,1.1-3.3s1.7-1.3,3-1.3s2,0.3,2.8,1.1c0.6,0.8,0.9,1.7,0.9,3.1c0,1.3-0.3,2.4-1.1,3.1c-0.8,0.8-1.7,1.3-3,1.3
		c-1.1,0-2-0.3-2.8-1.1C112.6,299,112.3,298,112.3,296.8z M114,296.6c0,0.9,0.2,1.6,0.6,2.2c0.5,0.5,0.9,0.8,1.7,0.8
		s1.3-0.3,1.7-0.8c0.5-0.5,0.6-1.3,0.6-2.2c0-0.9-0.2-1.7-0.6-2.2c-0.5-0.5-0.9-0.8-1.6-0.8c-0.8,0-1.3,0.3-1.7,0.8
		C114.2,295.1,114,295.7,114,296.6z"/>
</g>
<g id="_6.0_" class="st0">
	<path d="M81.1,238.8c-0.9-0.5-1.7-0.6-2.7-0.6c-1.4,0-2.7,0.6-3.4,1.9c-0.9,1.3-1.3,3-1.4,5.2l0,0c0.8-1.6,2-2.4,3.8-2.4
		c1.4,0,2.7,0.5,3.4,1.4c0.8,0.9,1.3,2.2,1.3,3.8s-0.5,3-1.6,4.1c-0.9,1.1-2.2,1.6-3.8,1.6c-1.7,0-3-0.6-4.1-2
		c-0.9-1.3-1.4-3.3-1.4-5.6c0-3,0.6-5.3,1.9-7.1c1.3-1.7,3-2.7,5-2.7c1.3,0,2.2,0.2,2.8,0.5L81.1,238.8L81.1,238.8z M73.6,247.9
		c0,1.1,0.3,2,0.9,2.8s1.4,1.3,2.4,1.3s1.7-0.3,2.2-0.9c0.6-0.6,0.9-1.6,0.9-2.7s-0.3-2-0.8-2.7c-0.5-0.6-1.3-0.9-2.4-0.9
		c-0.9,0-1.7,0.3-2.4,0.9C73.9,246.3,73.6,247.1,73.6,247.9z"/>
	<path d="M84.4,252.3c0-0.3,0.2-0.8,0.5-0.9c0.3-0.3,0.6-0.5,0.9-0.5c0.5,0,0.8,0.2,0.9,0.5c0.3,0.3,0.5,0.6,0.5,0.9
		c0,0.3-0.2,0.6-0.5,0.9c-0.3,0.3-0.6,0.5-0.9,0.5c-0.5,0-0.8-0.2-0.9-0.5C84.4,252.9,84.4,252.6,84.4,252.3z"/>
	<path d="M89.4,245.4c0-3,0.5-5.2,1.4-6.7s2.4-2.4,4.2-2.4c3.6,0,5.3,2.8,5.3,8.6c0,2.8-0.5,5-1.6,6.4c-0.9,1.6-2.4,2.2-4.2,2.2
		c-1.7,0-3-0.8-3.9-2.2C89.9,250.1,89.4,248,89.4,245.4z M91.4,245.2c0,4.4,1.1,6.7,3.4,6.7c2.2,0,3.3-2.2,3.3-6.7
		c0-4.7-1.1-7.1-3.3-7.1C92.7,238.1,91.4,240.5,91.4,245.2z"/>
	<path d="M102.3,240.8c0-1.4,0.3-2.5,1.1-3.3s1.7-1.3,3-1.3s2.2,0.3,2.8,1.1c0.6,0.8,0.9,1.7,0.9,3.1c0,1.3-0.3,2.4-1.1,3.1
		c-0.8,0.8-1.7,1.3-3,1.3c-1.1,0-2-0.3-2.8-1.1C102.6,243.2,102.3,242.1,102.3,240.8z M104,240.8c0,0.9,0.2,1.7,0.6,2.2
		c0.5,0.5,0.9,0.8,1.7,0.8s1.3-0.3,1.7-0.8s0.6-1.3,0.6-2.2s-0.2-1.7-0.6-2.2c-0.3-0.5-0.9-0.8-1.6-0.8c-0.8,0-1.3,0.3-1.7,0.8
		C104.1,239.1,104,239.9,104,240.8z M117.5,236.6l-10.8,16.9H105l10.8-16.9H117.5z M112.3,249.4c0-1.4,0.3-2.5,1.1-3.3
		c0.8-0.8,1.7-1.3,3-1.3s2,0.3,2.8,1.1c0.6,0.8,0.9,1.7,0.9,3.1c0,1.3-0.3,2.4-1.1,3.1c-0.8,0.8-1.7,1.3-3,1.3c-1.1,0-2-0.3-2.8-1.1
		C112.6,251.6,112.3,250.7,112.3,249.4z M114,249.3c0,0.9,0.2,1.6,0.6,2.2c0.5,0.5,0.9,0.8,1.7,0.8s1.3-0.3,1.7-0.8
		c0.5-0.5,0.6-1.3,0.6-2.2s-0.2-1.7-0.6-2.2c-0.5-0.5-0.9-0.8-1.6-0.8c-0.8,0-1.3,0.3-1.7,0.8C114.2,247.7,114,248.3,114,249.3z"/>
</g>
<g id="_8.0_" class="st0">
	<path d="M71,197.4c0-0.9,0.3-1.9,0.9-2.7s1.3-1.4,2.2-1.7c-0.8-0.5-1.3-0.9-1.7-1.6c-0.5-0.6-0.6-1.4-0.6-2c0-0.8,0.2-1.6,0.6-2.2
		c0.5-0.6,0.9-1.1,1.7-1.6c0.8-0.3,1.6-0.6,2.4-0.6c0.9,0,1.7,0.2,2.4,0.6c0.8,0.3,1.3,0.9,1.7,1.6c0.5,0.6,0.6,1.4,0.6,2.2
		s-0.2,1.4-0.6,2c-0.5,0.6-0.9,1.3-1.7,1.6c0.9,0.3,1.7,0.9,2.2,1.7c0.6,0.8,0.8,1.7,0.8,2.7c0,0.9-0.2,1.9-0.6,2.5
		c-0.5,0.8-1.1,1.4-1.9,1.7c-0.8,0.5-1.7,0.6-2.8,0.6c-1.1,0-2-0.2-2.8-0.6s-1.4-0.9-1.9-1.7C71.4,199.1,71,198.3,71,197.4z
		 M73.2,197.2c0,0.9,0.3,1.7,0.9,2.4s1.4,0.9,2.5,0.9c0.9,0,1.9-0.3,2.5-0.9s0.9-1.4,0.9-2.4c0-0.9-0.3-1.7-0.9-2.4
		c-0.6-0.6-1.4-0.9-2.4-0.9s-1.7,0.3-2.4,0.9C73.6,195.5,73.2,196.3,73.2,197.2z M73.7,189.4c0,0.8,0.3,1.4,0.8,1.9s1.3,0.8,1.9,0.8
		c0.8,0,1.4-0.3,2-0.8s0.8-1.3,0.8-1.9c0-0.8-0.3-1.4-0.8-1.9s-1.3-0.8-2-0.8s-1.4,0.3-2,0.8C74,188,73.7,188.7,73.7,189.4z"/>
	<path d="M84.4,201c0-0.3,0.2-0.8,0.5-0.9c0.3-0.3,0.6-0.5,0.9-0.5c0.5,0,0.8,0.2,0.9,0.5c0.3,0.3,0.5,0.6,0.5,0.9
		c0,0.3-0.2,0.6-0.5,0.9c-0.3,0.3-0.6,0.5-0.9,0.5c-0.5,0-0.8-0.2-0.9-0.5C84.4,201.6,84.4,201.3,84.4,201z"/>
	<path d="M89.4,193.9c0-3,0.5-5.2,1.4-6.7s2.4-2.4,4.2-2.4c3.6,0,5.3,2.8,5.3,8.6c0,2.8-0.5,5-1.6,6.4c-0.9,1.6-2.4,2.2-4.2,2.2
		c-1.7,0-3-0.8-3.9-2.2C89.9,198.8,89.4,196.7,89.4,193.9z M91.4,193.9c0,4.4,1.1,6.7,3.4,6.7c2.2,0,3.3-2.2,3.3-6.7
		c0-4.7-1.1-7.1-3.3-7.1C92.7,186.7,91.4,189.1,91.4,193.9z"/>
	<path d="M102.3,189.5c0-1.4,0.3-2.5,1.1-3.3c0.8-0.8,1.7-1.3,3-1.3s2.2,0.3,2.8,1.1c0.6,0.8,0.9,1.7,0.9,3.1c0,1.3-0.3,2.4-1.1,3.1
		c-0.8,0.8-1.7,1.3-3,1.3c-1.1,0-2-0.3-2.8-1.1C102.6,191.7,102.3,190.8,102.3,189.5z M104,189.4c0,0.9,0.2,1.7,0.6,2.2
		c0.5,0.5,0.9,0.8,1.7,0.8s1.3-0.3,1.7-0.8s0.6-1.3,0.6-2.2s-0.2-1.7-0.6-2.2c-0.3-0.5-0.9-0.8-1.6-0.8c-0.8,0-1.3,0.3-1.7,0.8
		C104.1,187.6,104,188.4,104,189.4z M117.5,185.3l-10.8,16.8H105l10.8-16.9L117.5,185.3L117.5,185.3z M112.3,198.2
		c0-1.4,0.3-2.5,1.1-3.3s1.7-1.3,3-1.3s2,0.3,2.8,1.1c0.6,0.8,0.9,1.7,0.9,3.1c0,1.3-0.3,2.4-1.1,3.1c-0.8,0.8-1.7,1.3-3,1.3
		c-1.1,0-2-0.3-2.8-1.1C112.6,200.3,112.3,199.4,112.3,198.2z M114,198c0,0.9,0.2,1.6,0.6,2.2c0.5,0.5,0.9,0.8,1.7,0.8
		s1.3-0.3,1.7-0.8c0.5-0.5,0.6-1.3,0.6-2.2s-0.2-1.7-0.6-2.2c-0.5-0.5-0.9-0.8-1.6-0.8c-0.8,0-1.3,0.3-1.7,0.8
		C114.2,196.3,114,197.1,114,198z"/>
</g>
<g id="_10.0_" class="st0">
	<path d="M64.6,150.6v-14.3c-0.3,0.3-0.9,0.6-1.7,1.1s-1.6,0.6-2.2,0.9v-2.2c0.9-0.3,1.9-0.6,2.8-1.1s1.7-1.1,2.4-1.6h0.8v17.1h-2.1
		V150.6z"/>
	<path d="M72.5,142.6c0-3,0.5-5.2,1.4-6.7c0.9-1.6,2.4-2.4,4.2-2.4c3.6,0,5.3,2.8,5.3,8.6c0,2.8-0.5,5-1.6,6.4
		c-0.9,1.6-2.4,2.2-4.2,2.2c-1.7,0-3-0.8-3.9-2.2C72.9,147.3,72.5,145.3,72.5,142.6z M74.7,142.5c0,4.4,1.1,6.7,3.4,6.7
		c2.2,0,3.3-2.2,3.3-6.7c0-4.7-1.1-7.1-3.3-7.1C75.8,135.4,74.7,137.8,74.7,142.5z"/>
	<path d="M85.8,149.5c0-0.3,0.2-0.8,0.5-0.9c0.3-0.3,0.6-0.5,0.9-0.5c0.5,0,0.8,0.2,0.9,0.5c0.3,0.3,0.5,0.6,0.5,0.9
		c0,0.3-0.2,0.6-0.5,0.9c-0.3,0.3-0.6,0.5-0.9,0.5c-0.5,0-0.8-0.2-0.9-0.5C85.9,150.3,85.8,150,85.8,149.5z"/>
	<path d="M90.8,142.6c0-3,0.5-5.2,1.4-6.7s2.4-2.4,4.2-2.4c3.6,0,5.3,2.8,5.3,8.6c0,2.8-0.5,5-1.6,6.4c-0.9,1.6-2.4,2.2-4.2,2.2
		c-1.7,0-3-0.8-3.9-2.2C91.3,147.3,90.8,145.3,90.8,142.6z M93,142.5c0,4.4,1.1,6.7,3.4,6.7c2.2,0,3.3-2.2,3.3-6.7
		c0-4.7-1.1-7.1-3.3-7.1C94.1,135.4,93,137.8,93,142.5z"/>
	<path d="M103.8,138.1c0-1.4,0.3-2.5,1.1-3.3c0.8-0.8,1.7-1.3,3-1.3s2.2,0.3,2.8,1.1c0.6,0.8,0.9,1.7,0.9,3.1c0,1.3-0.3,2.4-1.1,3.1
		c-0.8,0.8-1.7,1.3-3,1.3c-1.1,0-2-0.3-2.8-1.1C104.1,140.4,103.8,139.3,103.8,138.1z M105.4,138.1c0,0.9,0.2,1.7,0.6,2.2
		c0.5,0.5,0.9,0.8,1.7,0.8s1.3-0.3,1.7-0.8c0.5-0.5,0.6-1.3,0.6-2.2s-0.2-1.7-0.6-2.2c-0.3-0.5-0.9-0.8-1.6-0.8
		c-0.8,0-1.3,0.3-1.7,0.8C105.7,136.4,105.4,137.2,105.4,138.1z M118.9,133.9l-10.8,16.9h-1.9l10.8-16.9H118.9z M113.9,146.7
		c0-1.4,0.3-2.5,1.1-3.3c0.8-0.8,1.7-1.3,3-1.3s2,0.3,2.8,1.1c0.6,0.8,0.9,1.7,0.9,3.1c0,1.3-0.3,2.4-1.1,3.1
		c-0.8,0.8-1.7,1.3-3,1.3c-1.1,0-2-0.3-2.8-1.1C114.2,149.1,113.9,148,113.9,146.7z M115.4,146.7c0,0.9,0.2,1.6,0.6,2.2
		c0.5,0.5,0.9,0.8,1.7,0.8s1.3-0.3,1.7-0.8s0.6-1.3,0.6-2.2s-0.2-1.7-0.6-2.2c-0.5-0.5-0.9-0.8-1.6-0.8c-0.8,0-1.3,0.3-1.7,0.8
		C115.6,145,115.4,145.8,115.4,146.7z"/>
</g>
<g id="_12.0_" class="st0">
	<path d="M64.6,102.3V88.1c-0.3,0.3-0.9,0.6-1.7,1.1s-1.6,0.6-2.2,0.9v-2c0.9-0.3,1.9-0.6,2.8-1.1s1.7-1.1,2.4-1.6h0.8v17.1
		L64.6,102.3L64.6,102.3z"/>
	<path d="M80.8,90c0-0.9-0.3-1.6-0.8-2.2c-0.6-0.5-1.4-0.8-2.4-0.8c-0.6,0-1.4,0.2-2,0.5c-0.8,0.3-1.4,0.8-2,1.6v-2
		c0.5-0.6,1.1-0.9,1.9-1.3c0.6-0.3,1.6-0.5,2.5-0.5c1.6,0,2.7,0.5,3.6,1.3s1.4,1.9,1.4,3.3c0,1.3-0.3,2.4-0.8,3.1
		c-0.6,0.9-1.6,1.9-3,2.8s-2.4,1.7-2.8,2c-0.5,0.5-0.8,0.8-0.9,1.3c-0.2,0.3-0.3,0.8-0.3,1.4h8.3v1.9H72.8v-0.8
		c0-0.9,0.2-1.7,0.5-2.5c0.3-0.6,0.6-1.3,1.3-2c0.6-0.6,1.6-1.4,2.8-2.4c1.3-0.9,2.2-1.7,2.7-2.4C80.5,91.7,80.8,90.9,80.8,90z"/>
	<path d="M85.8,101.2c0-0.3,0.2-0.8,0.5-0.9c0.3-0.3,0.6-0.5,0.9-0.5c0.5,0,0.8,0.2,0.9,0.5c0.3,0.3,0.5,0.6,0.5,0.9
		s-0.2,0.6-0.5,0.9s-0.6,0.5-0.9,0.5c-0.5,0-0.8-0.2-0.9-0.5C85.9,101.9,85.8,101.6,85.8,101.2z"/>
	<path d="M90.8,94.3c0-3,0.5-5.2,1.4-6.7s2.4-2.4,4.2-2.4c3.6,0,5.3,2.8,5.3,8.6c0,2.8-0.5,5-1.6,6.4c-0.9,1.6-2.4,2.2-4.2,2.2
		c-1.7,0-3-0.8-3.9-2.2C91.3,99,90.8,97,90.8,94.3z M93,94.2c0,4.4,1.1,6.7,3.4,6.7c2.2,0,3.3-2.2,3.3-6.7c0-4.7-1.1-7.1-3.3-7.1
		C94.1,87.1,93,89.5,93,94.2z"/>
	<path d="M103.8,89.8c0-1.4,0.3-2.5,1.1-3.3s1.7-1.3,3-1.3s2.2,0.3,2.8,1.1c0.6,0.8,0.9,1.7,0.9,3.1c0,1.3-0.3,2.4-1.1,3.1
		s-1.7,1.3-3,1.3c-1.1,0-2-0.3-2.8-1.1C104.1,92.1,103.8,91,103.8,89.8z M105.4,89.8c0,0.9,0.2,1.7,0.6,2.2c0.5,0.5,0.9,0.8,1.7,0.8
		s1.3-0.3,1.7-0.8s0.6-1.3,0.6-2.2c0-0.9-0.2-1.7-0.6-2.2c-0.3-0.5-0.9-0.8-1.6-0.8c-0.8,0-1.3,0.3-1.7,0.8
		C105.7,88.1,105.4,88.7,105.4,89.8z M118.9,85.6l-10.8,16.9h-1.9L117,85.6H118.9z M113.9,98.4c0-1.4,0.3-2.5,1.1-3.3s1.7-1.3,3-1.3
		s2,0.3,2.8,1.1c0.6,0.8,0.9,1.7,0.9,3.1c0,1.3-0.3,2.4-1.1,3.1s-1.7,1.3-3,1.3c-1.1,0-2-0.3-2.8-1.1
		C114.2,100.6,113.9,99.7,113.9,98.4z M115.4,98.3c0,0.9,0.2,1.6,0.6,2.2c0.5,0.5,0.9,0.8,1.7,0.8s1.3-0.3,1.7-0.8s0.6-1.3,0.6-2.2
		c0-0.9-0.2-1.7-0.6-2.2c-0.5-0.5-0.9-0.8-1.6-0.8c-0.8,0-1.3,0.3-1.7,0.8C115.6,96.7,115.4,97.3,115.4,98.3z"/>
</g>
<g id="线">
	<rect id="矩形_863_拷贝_2" x="132" y="342.9" class="st1" width="213.4" height="2"/>
	<rect id="矩形_863_拷贝_3" x="132" y="291.5" class="st1" width="213.4" height="2"/>
	<rect id="矩形_863_拷贝_4" x="132" y="240.2" class="st1" width="213.4" height="2"/>
	<rect id="矩形_863_拷贝_5" x="132" y="189.8" class="st1" width="213.4" height="2"/>
	<rect id="矩形_863_拷贝_5-2" x="132" y="138.6" class="st1" width="213.4" height="2"/>
	<rect id="矩形_863_拷贝_5-3" x="132" y="87.1" class="st1" width="213.4" height="2"/>
	<rect id="矩形_863" x="132" y="84.2" class="st2" width="2" height="314.1"/>
</g>
<rect id="矩形_864" x="163.3" y="138.6" class="st3" width="46.3" height="257.8"/>
<rect id="矩形_864_拷贝" x="209.5" y="240.2" class="st4" width="46.3" height="156"/>
<rect id="矩形_864_拷贝_2" x="255.8" y="326.7" class="st5" width="46.3" height="69.5"/>
<rect id="矩形_863_拷贝" x="132" y="396.2" class="st2" width="213.4" height="2"/>
<g id="_2">
	<g id="_2.0_2" class="st0">
		<path d="M389.7,332c0-0.9-0.3-1.6-0.8-2.2c-0.6-0.5-1.4-0.8-2.3-0.8c-0.6,0-1.4,0.2-2,0.5c-0.8,0.3-1.4,0.8-2,1.6v-2
			c0.5-0.6,1.1-0.9,1.9-1.3c0.6-0.3,1.6-0.5,2.5-0.5c1.6,0,2.7,0.5,3.6,1.3s1.4,1.9,1.4,3.3c0,1.3-0.3,2.3-0.8,3.1
			c-0.6,0.9-1.6,1.9-3,2.8s-2.3,1.7-2.8,2c-0.5,0.5-0.8,0.8-0.9,1.3c-0.2,0.3-0.3,0.8-0.3,1.4h8.3v1.9H382v-0.8
			c0-0.9,0.2-1.7,0.5-2.5c0.3-0.6,0.6-1.3,1.3-2c0.6-0.6,1.6-1.4,2.8-2.3c1.3-0.9,2.2-1.7,2.7-2.3
			C389.6,333.7,389.7,332.9,389.7,332z"/>
		<path d="M394.9,343.2c0-0.3,0.2-0.8,0.5-0.9c0.3-0.3,0.6-0.5,0.9-0.5c0.5,0,0.8,0.2,0.9,0.5c0.3,0.3,0.5,0.6,0.5,0.9
			s-0.2,0.6-0.5,0.9s-0.6,0.5-0.9,0.5c-0.5,0-0.8-0.2-0.9-0.5C395.1,343.9,394.9,343.5,394.9,343.2z"/>
		<path d="M399.9,336.3c0-3,0.5-5.2,1.4-6.7c0.9-1.6,2.3-2.3,4.2-2.3c3.6,0,5.3,2.8,5.3,8.6c0,2.8-0.5,5-1.6,6.4
			c-0.9,1.6-2.3,2.2-4.2,2.2c-1.7,0-3-0.8-3.9-2.2C400.4,341,399.9,339,399.9,336.3z M402,336.2c0,4.4,1.1,6.7,3.4,6.7
			c2.2,0,3.3-2.2,3.3-6.7c0-4.7-1.1-7-3.3-7C403.2,329.1,402,331.5,402,336.2z"/>
		<path d="M412.8,331.8c0-1.4,0.3-2.5,1.1-3.3c0.8-0.8,1.7-1.3,3-1.3s2.2,0.3,2.8,1.1s0.9,1.7,0.9,3.1c0,1.3-0.3,2.3-1.1,3.1
			c-0.8,0.8-1.7,1.3-3,1.3c-1.1,0-2-0.3-2.8-1.1C413.2,334.1,412.8,333,412.8,331.8z M414.5,331.6c0,0.9,0.2,1.7,0.6,2.2
			c0.5,0.5,0.9,0.8,1.7,0.8c0.8,0,1.3-0.3,1.7-0.8s0.6-1.3,0.6-2.2c0-0.9-0.2-1.7-0.6-2.2c-0.3-0.5-0.9-0.8-1.6-0.8
			c-0.8,0-1.3,0.3-1.7,0.8C414.6,330.1,414.5,330.7,414.5,331.6z M428,327.6l-10.8,16.9h-1.9l10.8-16.9H428z M422.8,340.4
			c0-1.4,0.3-2.5,1.1-3.3c0.8-0.8,1.7-1.3,3-1.3s2,0.3,2.8,1.1c0.6,0.8,0.9,1.7,0.9,3.1c0,1.3-0.3,2.3-1.1,3.1
			c-0.8,0.8-1.7,1.3-3,1.3c-1.1,0-2-0.3-2.8-1.1C423.3,342.6,422.8,341.7,422.8,340.4z M424.5,340.3c0,0.9,0.2,1.6,0.6,2.2
			c0.5,0.5,0.9,0.8,1.7,0.8c0.8,0,1.3-0.3,1.7-0.8s0.6-1.3,0.6-2.2c0-0.9-0.2-1.7-0.6-2.2c-0.5-0.5-0.9-0.8-1.6-0.8
			c-0.8,0-1.3,0.3-1.7,0.8C424.7,338.7,424.5,339.3,424.5,340.3z"/>
	</g>
	<g id="_4.0_2" class="st0">
		<path d="M390.7,284.3v11.1h2.5v1.7h-2.5v3.9h-2v-3.9h-7.8v-1.7c1.4-1.6,2.8-3.3,4.2-5.3c1.4-2,2.5-3.9,3.4-5.8L390.7,284.3
			L390.7,284.3z M383.2,295.5h5.5v-8c-0.8,1.4-1.6,2.7-2.3,3.9C385.4,292.6,384.3,293.9,383.2,295.5z"/>
		<path d="M394.9,300c0-0.3,0.2-0.8,0.5-0.9c0.3-0.3,0.6-0.5,0.9-0.5c0.5,0,0.8,0.2,0.9,0.5c0.3,0.3,0.5,0.6,0.5,0.9
			s-0.2,0.6-0.5,0.9s-0.6,0.5-0.9,0.5c-0.5,0-0.8-0.2-0.9-0.5C395.1,300.6,394.9,300.3,394.9,300z"/>
		<path d="M399.9,293.1c0-3,0.5-5.2,1.4-6.7c0.9-1.6,2.3-2.3,4.2-2.3c3.6,0,5.3,2.8,5.3,8.6c0,2.8-0.5,5-1.6,6.4
			c-0.9,1.6-2.3,2.2-4.2,2.2c-1.7,0-3-0.8-3.9-2.2C400.4,297.8,399.9,295.8,399.9,293.1z M402,293c0,4.4,1.1,6.7,3.4,6.7
			c2.2,0,3.3-2.2,3.3-6.7c0-4.7-1.1-7-3.3-7C403.2,285.9,402,288.3,402,293z"/>
		<path d="M412.8,288.6c0-1.4,0.3-2.5,1.1-3.3c0.8-0.8,1.7-1.3,3-1.3s2.2,0.3,2.8,1.1c0.6,0.8,0.9,1.7,0.9,3.1
			c0,1.3-0.3,2.3-1.1,3.1c-0.8,0.8-1.7,1.3-3,1.3c-1.1,0-2-0.3-2.8-1.1C413.2,290.9,412.8,289.8,412.8,288.6z M414.5,288.4
			c0,0.9,0.2,1.7,0.6,2.2c0.5,0.5,0.9,0.8,1.7,0.8c0.8,0,1.3-0.3,1.7-0.8s0.6-1.3,0.6-2.2c0-0.9-0.2-1.7-0.6-2.2
			c-0.3-0.5-0.9-0.8-1.6-0.8c-0.8,0-1.3,0.3-1.7,0.8C414.6,286.8,414.5,287.5,414.5,288.4z M428,284.3l-10.8,16.9h-1.9l10.8-16.9
			H428z M422.8,297.2c0-1.4,0.3-2.5,1.1-3.3c0.8-0.8,1.7-1.3,3-1.3s2,0.3,2.8,1.1c0.6,0.8,0.9,1.7,0.9,3.1c0,1.3-0.3,2.3-1.1,3.1
			c-0.8,0.8-1.7,1.3-3,1.3c-1.1,0-2-0.3-2.8-1.1C423.3,299.4,422.8,298.4,422.8,297.2z M424.5,297c0,0.9,0.2,1.6,0.6,2.2
			c0.5,0.5,0.9,0.8,1.7,0.8c0.8,0,1.3-0.3,1.7-0.8s0.6-1.3,0.6-2.2c0-0.9-0.2-1.7-0.6-2.2c-0.5-0.5-0.9-0.8-1.6-0.8
			c-0.8,0-1.3,0.3-1.7,0.8C424.7,295.5,424.5,296.1,424.5,297z"/>
	</g>
	<g id="_6.0_2" class="st0">
		<path d="M391.6,239.2c-0.9-0.5-1.7-0.6-2.7-0.6c-1.4,0-2.7,0.6-3.4,1.9c-0.9,1.3-1.3,3-1.4,5.2l0,0c0.8-1.6,2-2.3,3.8-2.3
			c1.4,0,2.7,0.5,3.4,1.4c0.8,0.9,1.3,2.2,1.3,3.8s-0.5,3-1.6,4.1c-0.9,1.1-2.2,1.6-3.8,1.6c-1.7,0-3-0.6-4.1-2
			c-0.9-1.3-1.4-3.3-1.4-5.6c0-3,0.6-5.3,1.9-7s3-2.7,5-2.7c1.3,0,2.2,0.2,2.8,0.5L391.6,239.2L391.6,239.2z M384.1,248.3
			c0,1.1,0.3,2,0.9,2.8s1.4,1.3,2.3,1.3s1.7-0.3,2.2-0.9c0.6-0.6,0.9-1.6,0.9-2.7s-0.3-2-0.8-2.7c-0.5-0.6-1.3-0.9-2.3-0.9
			c-0.9,0-1.7,0.3-2.3,0.9C384.4,246.8,384.1,247.5,384.1,248.3z"/>
		<path d="M394.9,252.7c0-0.3,0.2-0.8,0.5-0.9c0.3-0.3,0.6-0.5,0.9-0.5c0.5,0,0.8,0.2,0.9,0.5c0.3,0.3,0.5,0.6,0.5,0.9
			s-0.2,0.6-0.5,0.9c-0.3,0.3-0.6,0.5-0.9,0.5c-0.5,0-0.8-0.2-0.9-0.5C395.1,253.3,394.9,253,394.9,252.7z"/>
		<path d="M399.9,245.8c0-3,0.5-5.2,1.4-6.7c0.9-1.6,2.3-2.3,4.2-2.3c3.6,0,5.3,2.8,5.3,8.6c0,2.8-0.5,5-1.6,6.4
			c-0.9,1.6-2.3,2.2-4.2,2.2c-1.7,0-3-0.8-3.9-2.2C400.4,250.5,399.9,248.5,399.9,245.8z M402,245.7c0,4.4,1.1,6.7,3.4,6.7
			c2.2,0,3.3-2.2,3.3-6.7c0-4.7-1.1-7-3.3-7C403.2,238.6,402,241,402,245.7z"/>
		<path d="M412.8,241.3c0-1.4,0.3-2.5,1.1-3.3c0.8-0.8,1.7-1.3,3-1.3s2.2,0.3,2.8,1.1s0.9,1.7,0.9,3.1c0,1.3-0.3,2.3-1.1,3.1
			c-0.8,0.8-1.7,1.3-3,1.3c-1.1,0-2-0.3-2.8-1.1C413.2,243.6,412.8,242.5,412.8,241.3z M414.5,241.3c0,0.9,0.2,1.7,0.6,2.2
			c0.5,0.5,0.9,0.8,1.7,0.8c0.8,0,1.3-0.3,1.7-0.8c0.5-0.5,0.6-1.3,0.6-2.2s-0.2-1.7-0.6-2.2c-0.3-0.5-0.9-0.8-1.6-0.8
			c-0.8,0-1.3,0.3-1.7,0.8C414.6,239.5,414.5,240.3,414.5,241.3z M428,237l-10.8,17h-1.9l10.8-16.9h1.9V237z M422.8,249.9
			c0-1.4,0.3-2.5,1.1-3.3c0.8-0.8,1.7-1.3,3-1.3s2,0.3,2.8,1.1c0.6,0.8,0.9,1.7,0.9,3.1c0,1.3-0.3,2.3-1.1,3.1
			c-0.8,0.8-1.7,1.3-3,1.3c-1.1,0-2-0.3-2.8-1.1C423.3,252.1,422.8,251.1,422.8,249.9z M424.5,249.7c0,0.9,0.2,1.6,0.6,2.2
			c0.5,0.5,0.9,0.8,1.7,0.8c0.8,0,1.3-0.3,1.7-0.8c0.5-0.5,0.6-1.3,0.6-2.2s-0.2-1.7-0.6-2.2c-0.5-0.5-0.9-0.8-1.6-0.8
			c-0.8,0-1.3,0.3-1.7,0.8C424.7,248.2,424.5,248.8,424.5,249.7z"/>
	</g>
	<g id="_8.0_2" class="st0">
		<path d="M381.6,197.9c0-0.9,0.3-1.9,0.9-2.7s1.3-1.4,2.2-1.7c-0.8-0.5-1.3-0.9-1.7-1.6c-0.5-0.6-0.6-1.4-0.6-2
			c0-0.8,0.2-1.6,0.6-2.2c0.5-0.6,0.9-1.1,1.7-1.6c0.8-0.5,1.6-0.6,2.3-0.6c0.9,0,1.7,0.2,2.3,0.6c0.8,0.3,1.3,0.9,1.7,1.6
			s0.6,1.4,0.6,2.2s-0.2,1.4-0.6,2c-0.5,0.6-0.9,1.3-1.7,1.6c0.9,0.3,1.7,0.9,2.2,1.7c0.6,0.8,0.8,1.7,0.8,2.7
			c0,0.9-0.2,1.9-0.6,2.5c-0.5,0.8-1.1,1.4-1.9,1.7c-0.8,0.5-1.7,0.6-2.8,0.6s-2-0.2-2.8-0.6c-0.8-0.5-1.4-0.9-1.9-1.7
			S381.6,198.8,381.6,197.9z M383.8,197.7c0,0.9,0.3,1.7,0.9,2.3s1.4,0.9,2.5,0.9c0.9,0,1.9-0.3,2.5-0.9c0.6-0.6,0.9-1.4,0.9-2.3
			s-0.3-1.7-0.9-2.3s-1.4-0.9-2.3-0.9s-1.7,0.3-2.3,0.9C384.1,196,383.8,196.8,383.8,197.7z M384.4,189.9c0,0.8,0.3,1.4,0.8,1.9
			s1.3,0.8,1.9,0.8c0.8,0,1.4-0.3,2-0.8s0.8-1.3,0.8-1.9c0-0.8-0.3-1.4-0.8-1.9s-1.3-0.8-2-0.8c-0.8,0-1.4,0.3-2,0.8
			C384.6,188.5,384.4,189.3,384.4,189.9z"/>
		<path d="M394.9,201.5c0-0.3,0.2-0.8,0.5-0.9c0.3-0.3,0.6-0.5,0.9-0.5c0.5,0,0.8,0.2,0.9,0.5c0.3,0.3,0.5,0.6,0.5,0.9
			s-0.2,0.6-0.5,0.9c-0.3,0.3-0.6,0.5-0.9,0.5c-0.5,0-0.8-0.2-0.9-0.5C395.1,202.1,394.9,201.8,394.9,201.5z"/>
		<path d="M399.9,194.4c0-3,0.5-5.2,1.4-6.7c0.9-1.6,2.3-2.3,4.2-2.3c3.6,0,5.3,2.8,5.3,8.6c0,2.8-0.5,5-1.6,6.4
			c-0.9,1.6-2.3,2.2-4.2,2.2c-1.7,0-3-0.8-3.9-2.2C400.4,199.3,399.9,197.3,399.9,194.4z M402,194.4c0,4.4,1.1,6.7,3.4,6.7
			c2.2,0,3.3-2.2,3.3-6.7c0-4.7-1.1-7-3.3-7C403.2,187.2,402,189.6,402,194.4z"/>
		<path d="M412.8,190.1c0-1.4,0.3-2.5,1.1-3.3c0.8-0.8,1.7-1.3,3-1.3s2.2,0.3,2.8,1.1s0.9,1.7,0.9,3.1c0,1.3-0.3,2.3-1.1,3.1
			c-0.8,0.8-1.7,1.3-3,1.3c-1.1,0-2-0.3-2.8-1.1C412.9,192.3,412.8,191.3,412.8,190.1z M414.5,189.9c0,0.9,0.2,1.7,0.6,2.2
			c0.5,0.5,0.9,0.8,1.7,0.8c0.8,0,1.3-0.3,1.7-0.8s0.6-1.3,0.6-2.2s-0.2-1.7-0.6-2.2c-0.3-0.5-0.9-0.8-1.6-0.8
			c-0.8,0-1.3,0.3-1.7,0.8C414.6,188.2,414.5,189,414.5,189.9z M428,185.8l-10.8,16.9h-1.9l10.8-16.9H428z M422.8,198.7
			c0-1.4,0.3-2.5,1.1-3.3c0.8-0.8,1.7-1.3,3-1.3s2,0.3,2.8,1.1c0.6,0.8,0.9,1.7,0.9,3.1c0,1.3-0.3,2.3-1.1,3.1
			c-0.8,0.8-1.7,1.3-3,1.3c-1.1,0-2-0.3-2.8-1.1C423.3,200.9,422.8,199.9,422.8,198.7z M424.5,198.5c0,0.9,0.2,1.6,0.6,2.2
			c0.5,0.5,0.9,0.8,1.7,0.8c0.8,0,1.3-0.3,1.7-0.8s0.6-1.3,0.6-2.2s-0.2-1.7-0.6-2.2c-0.5-0.5-0.9-0.8-1.6-0.8
			c-0.8,0-1.3,0.3-1.7,0.8C424.7,196.8,424.5,197.6,424.5,198.5z"/>
	</g>
	<g id="_10.0_2" class="st0">
		<path d="M375.2,151.2V137c-0.3,0.3-0.9,0.6-1.7,1.1c-0.8,0.5-1.6,0.6-2.2,0.9v-2.2c0.9-0.3,1.9-0.6,2.8-1.1s1.7-1.1,2.3-1.6h0.8
			v17.1H375.2z"/>
		<path d="M383,143.2c0-3,0.5-5.2,1.4-6.7c0.9-1.6,2.3-2.3,4.2-2.3c3.6,0,5.3,2.8,5.3,8.6c0,2.8-0.5,5-1.6,6.4
			c-0.9,1.6-2.3,2.2-4.2,2.2c-1.7,0-3-0.8-3.9-2.2C383.5,147.9,383,145.9,383,143.2z M385.2,143.1c0,4.4,1.1,6.7,3.4,6.7
			c2.2,0,3.3-2.2,3.3-6.7c0-4.7-1.1-7-3.3-7C386.3,136,385.2,138.4,385.2,143.1z"/>
		<path d="M396.3,150.1c0-0.3,0.2-0.8,0.5-0.9c0.3-0.3,0.6-0.5,0.9-0.5c0.5,0,0.8,0.2,0.9,0.5c0.3,0.3,0.5,0.6,0.5,0.9
			s-0.2,0.6-0.5,0.9c-0.3,0.3-0.6,0.5-0.9,0.5c-0.5,0-0.8-0.2-0.9-0.5C396.5,150.9,396.3,150.6,396.3,150.1z"/>
		<path d="M401.3,143.2c0-3,0.5-5.2,1.4-6.7c0.9-1.6,2.3-2.3,4.2-2.3c3.6,0,5.3,2.8,5.3,8.6c0,2.8-0.5,5-1.6,6.4
			c-0.9,1.6-2.3,2.2-4.2,2.2c-1.7,0-3-0.8-3.9-2.2C401.7,147.8,401.3,145.9,401.3,143.2z M403.5,143.1c0,4.4,1.1,6.7,3.4,6.7
			c2.2,0,3.3-2.2,3.3-6.7c0-4.7-1.1-7-3.3-7C404.6,136,403.5,138.4,403.5,143.1z"/>
		<path d="M414.3,138.7c0-1.4,0.3-2.5,1.1-3.3c0.8-0.8,1.7-1.3,3-1.3s2.2,0.3,2.8,1.1s0.9,1.7,0.9,3.1c0,1.3-0.3,2.3-1.1,3.1
			s-1.7,1.3-3,1.3c-1.1,0-2-0.3-2.8-1.1C414.6,141,414.3,139.9,414.3,138.7z M415.9,138.7c0,0.9,0.2,1.7,0.6,2.2
			c0.5,0.5,0.9,0.8,1.7,0.8c0.8,0,1.3-0.3,1.7-0.8c0.5-0.5,0.6-1.3,0.6-2.2s-0.2-1.7-0.6-2.2c-0.3-0.5-0.9-0.8-1.6-0.8
			c-0.8,0-1.3,0.3-1.7,0.8C416.2,137,415.9,137.8,415.9,138.7z M429.4,134.5l-10.8,16.9h-1.7l10.8-16.9
			C427.6,134.5,429.4,134.5,429.4,134.5z M424.4,147.3c0-1.4,0.3-2.5,1.1-3.3c0.8-0.8,1.7-1.3,3-1.3s2,0.3,2.8,1.1
			c0.6,0.8,0.9,1.7,0.9,3.1c0,1.3-0.3,2.3-1.1,3.1c-0.8,0.8-1.7,1.3-3,1.3c-1.1,0-2-0.3-2.8-1.1
			C424.7,149.7,424.4,148.6,424.4,147.3z M425.9,147.3c0,0.9,0.2,1.6,0.6,2.2c0.5,0.5,0.9,0.8,1.7,0.8c0.8,0,1.3-0.3,1.7-0.8
			c0.5-0.5,0.6-1.3,0.6-2.2s-0.2-1.7-0.6-2.2c-0.5-0.5-0.9-0.8-1.6-0.8c-0.8,0-1.3,0.3-1.7,0.8C426.1,145.6,425.9,146.4,425.9,147.3
			z"/>
	</g>
	<g id="_12.0_2" class="st0">
		<path d="M375.2,103V88.7c-0.3,0.3-0.9,0.6-1.7,1.1c-0.8,0.5-1.6,0.6-2.2,0.9v-2c0.9-0.3,1.9-0.6,2.8-1.1s1.7-1.1,2.3-1.6h0.8v17.1
			L375.2,103L375.2,103z"/>
		<path d="M391.3,90.6c0-0.9-0.3-1.6-0.8-2.2c-0.6-0.5-1.4-0.8-2.3-0.8c-0.6,0-1.4,0.2-2,0.5c-0.8,0.3-1.4,0.8-2,1.6v-2
			c0.5-0.6,1.1-0.9,1.9-1.3c0.6-0.3,1.6-0.5,2.5-0.5c1.6,0,2.7,0.5,3.6,1.3s1.4,1.9,1.4,3.3c0,1.3-0.3,2.3-0.8,3.1
			c-0.6,0.9-1.6,1.9-3,2.8s-2.3,1.7-2.8,2s-0.8,0.8-0.9,1.3c-0.2,0.3-0.3,0.8-0.3,1.4h8.3v1.9h-10.5v-0.8c0-0.9,0.2-1.7,0.5-2.5
			c0.3-0.6,0.6-1.3,1.3-2c0.6-0.6,1.6-1.4,2.8-2.3c1.3-0.9,2.2-1.7,2.7-2.3C391,92.3,391.3,91.6,391.3,90.6z"/>
		<path d="M396.3,101.9c0-0.3,0.2-0.8,0.5-0.9c0.3-0.3,0.6-0.5,0.9-0.5c0.5,0,0.8,0.2,0.9,0.5c0.3,0.3,0.5,0.6,0.5,0.9
			s-0.2,0.6-0.5,0.9s-0.6,0.5-0.9,0.5c-0.5,0-0.8-0.2-0.9-0.5C396.5,102.5,396.3,102.2,396.3,101.9z"/>
		<path d="M401.3,95c0-3,0.5-5.2,1.4-6.7c0.9-1.6,2.3-2.3,4.2-2.3c3.6,0,5.3,2.8,5.3,8.6c0,2.8-0.5,5-1.6,6.4
			c-0.9,1.6-2.3,2.2-4.2,2.2c-1.7,0-3-0.8-3.9-2.2C401.7,99.5,401.3,97.7,401.3,95z M403.5,94.8c0,4.4,1.1,6.7,3.4,6.7
			c2.2,0,3.3-2.2,3.3-6.7c0-4.7-1.1-7-3.3-7C404.6,87.8,403.5,90.1,403.5,94.8z"/>
		<path d="M414.3,90.5c0-1.4,0.3-2.5,1.1-3.3c0.8-0.8,1.7-1.3,3-1.3s2.2,0.3,2.8,1.1s0.9,1.7,0.9,3.1c0,1.3-0.3,2.3-1.1,3.1
			s-1.7,1.3-3,1.3c-1.1,0-2-0.3-2.8-1.1C414.6,92.8,414.3,91.7,414.3,90.5z M415.9,90.5c0,0.9,0.2,1.7,0.6,2.2
			c0.5,0.5,0.9,0.8,1.7,0.8c0.8,0,1.3-0.3,1.7-0.8c0.5-0.5,0.6-1.3,0.6-2.2c0-0.9-0.2-1.7-0.6-2.2c-0.3-0.5-0.9-0.8-1.6-0.8
			c-0.8,0-1.3,0.3-1.7,0.8C416.2,88.7,415.9,89.4,415.9,90.5z M429.4,86.2l-10.8,16.9h-1.7l10.8-16.9H429.4z M424.4,99.1
			c0-1.4,0.3-2.5,1.1-3.3c0.8-0.8,1.7-1.3,3-1.3s2,0.3,2.8,1.1c0.6,0.8,0.9,1.7,0.9,3.1c0,1.3-0.3,2.3-1.1,3.1
			c-0.8,0.8-1.7,1.3-3,1.3c-1.1,0-2-0.3-2.8-1.1C424.7,101.3,424.4,100.3,424.4,99.1z M425.9,98.9c0,0.9,0.2,1.6,0.6,2.2
			c0.5,0.5,0.9,0.8,1.7,0.8c0.8,0,1.3-0.3,1.7-0.8c0.5-0.5,0.6-1.3,0.6-2.2c0-0.9-0.2-1.7-0.6-2.2c-0.5-0.5-0.9-0.8-1.6-0.8
			c-0.8,0-1.3,0.3-1.7,0.8C426.1,97.3,425.9,98,425.9,98.9z"/>
	</g>
</g>
<g id="线-2">
	<rect id="矩形_863_拷贝_2-2" x="442.5" y="343.2" class="st1" width="213.3" height="2"/>
	<rect id="矩形_863_拷贝_3-2" x="442.5" y="291.9" class="st1" width="213.3" height="2"/>
	<rect id="矩形_863_拷贝_4-2" x="442.5" y="240.6" class="st1" width="213.3" height="2"/>
	<rect id="矩形_863_拷贝_5-4" x="442.5" y="190.4" class="st1" width="213.3" height="2"/>
	<rect id="矩形_863_拷贝_5-5" x="442.5" y="139.2" class="st1" width="213.3" height="2"/>
	<rect id="矩形_863_拷贝_5-6" x="442.5" y="87.8" class="st1" width="213.3" height="2"/>
	<rect id="矩形_863-2" x="442.5" y="84.8" class="st2" width="2" height="313.7"/>
</g>
<rect id="矩形_864-2" x="473.8" y="253.6" class="st3" width="46.2" height="142.8"/>
<rect id="矩形_864_拷贝-2" x="520.2" y="261.8" class="st4" width="46.2" height="134.7"/>
<rect id="矩形_864_拷贝_2-2" x="566.4" y="305" class="st5" width="46.2" height="91.5"/>
<rect id="矩形_863_拷贝-2" x="442.5" y="396.5" class="st2" width="213.3" height="2"/>
<g id="_3">
	<g id="_2.0_3" class="st0">
		<path d="M97.6,747.2c0-0.9-0.3-1.6-0.8-2.2c-0.6-0.5-1.4-0.8-2.4-0.8c-0.6,0-1.4,0.2-2,0.5c-0.8,0.3-1.4,0.8-2,1.6v-2
			c0.5-0.6,1.1-0.9,1.9-1.3c0.6-0.3,1.6-0.5,2.5-0.5c1.6,0,2.7,0.5,3.6,1.3s1.4,1.9,1.4,3.3c0,1.3-0.3,2.4-0.8,3.1
			c-0.6,0.9-1.6,1.9-3,2.8s-2.4,1.7-2.8,2c-0.5,0.5-0.8,0.8-0.9,1.3c-0.2,0.3-0.3,0.8-0.3,1.4h8.3v1.9H89.8v-0.8
			c0-0.9,0.2-1.7,0.5-2.5c0.3-0.6,0.6-1.3,1.3-2c0.6-0.6,1.6-1.4,2.8-2.4c1.3-0.9,2.2-1.7,2.7-2.4C97.5,748.7,97.6,748,97.6,747.2z"
			/>
		<path d="M102.7,758.3c0-0.3,0.2-0.8,0.5-0.9c0.3-0.3,0.6-0.5,0.9-0.5c0.5,0,0.8,0.2,0.9,0.5c0.3,0.3,0.5,0.6,0.5,0.9
			c0,0.3-0.2,0.6-0.5,0.9c-0.3,0.3-0.6,0.5-0.9,0.5c-0.5,0-0.8-0.2-0.9-0.5C102.8,759.1,102.7,758.8,102.7,758.3z"/>
		<path d="M107.7,751.4c0-3,0.5-5.2,1.4-6.7c0.9-1.6,2.4-2.4,4.2-2.4c3.6,0,5.3,2.8,5.3,8.6c0,2.8-0.5,5-1.6,6.4
			c-0.9,1.6-2.4,2.2-4.2,2.2c-1.7,0-3-0.8-3.9-2.2C108.1,756.3,107.7,754.2,107.7,751.4z M109.9,751.4c0,4.4,1.1,6.7,3.4,6.7
			c2.2,0,3.3-2.2,3.3-6.7c0-4.7-1.1-7.1-3.3-7.1C111.1,744.2,109.9,746.5,109.9,751.4z"/>
		<path d="M120.7,747c0-1.4,0.3-2.5,1.1-3.3c0.8-0.8,1.7-1.3,3-1.3s2.2,0.3,2.8,1.1c0.6,0.8,0.9,1.7,0.9,3.1c0,1.3-0.3,2.4-1.1,3.1
			c-0.8,0.8-1.7,1.3-3,1.3c-1.1,0-2-0.3-2.8-1.1C121,749.2,120.7,748.3,120.7,747z M122.4,746.9c0,0.9,0.2,1.7,0.6,2.2
			c0.5,0.5,0.9,0.8,1.7,0.8c0.8,0,1.3-0.3,1.7-0.8c0.5-0.5,0.6-1.3,0.6-2.2s-0.2-1.7-0.6-2.2c-0.3-0.5-0.9-0.8-1.6-0.8
			c-0.8,0-1.3,0.3-1.7,0.8C122.6,745.1,122.4,745.9,122.4,746.9z M135.9,742.8l-10.8,16.9h-1.9l10.8-16.9H135.9z M130.7,755.6
			c0-1.4,0.3-2.5,1.1-3.3s1.7-1.3,3-1.3s2,0.3,2.8,1.1c0.6,0.8,0.9,1.7,0.9,3.1c0,1.3-0.3,2.4-1.1,3.1s-1.7,1.3-3,1.3
			c-1.1,0-2-0.3-2.8-1.1C131,757.8,130.7,756.7,130.7,755.6z M132.4,755.5c0,0.9,0.2,1.6,0.6,2.2c0.5,0.5,0.9,0.8,1.7,0.8
			s1.3-0.3,1.7-0.8c0.5-0.5,0.6-1.3,0.6-2.2s-0.2-1.7-0.6-2.2c-0.5-0.5-0.9-0.8-1.6-0.8c-0.8,0-1.3,0.3-1.7,0.8
			C132.6,753.8,132.4,754.5,132.4,755.5z"/>
	</g>
	<g id="_4.0_3" class="st0">
		<path d="M98.4,699.5v11.1h2.5v1.7h-2.5v3.9h-2v-3.9h-7.8v-1.7c1.4-1.6,2.8-3.3,4.2-5.3c1.4-2,2.5-3.9,3.4-5.8H98.4L98.4,699.5z
			 M91.1,710.5h5.5v-8c-0.8,1.4-1.6,2.7-2.4,3.9C93.2,707.7,92.1,709.1,91.1,710.5z"/>
		<path d="M102.7,715c0-0.3,0.2-0.8,0.5-0.9c0.3-0.3,0.6-0.5,0.9-0.5c0.5,0,0.8,0.2,0.9,0.5c0.3,0.3,0.5,0.6,0.5,0.9
			c0,0.3-0.2,0.6-0.5,0.9c-0.3,0.3-0.6,0.5-0.9,0.5c-0.5,0-0.8-0.2-0.9-0.5C102.8,715.8,102.7,715.5,102.7,715z"/>
		<path d="M107.7,708.1c0-3,0.5-5.2,1.4-6.7c0.9-1.6,2.4-2.4,4.2-2.4c3.6,0,5.3,2.8,5.3,8.6c0,2.8-0.5,5-1.6,6.4
			c-0.9,1.6-2.4,2.2-4.2,2.2c-1.7,0-3-0.8-3.9-2.2C108.1,713,107.7,711,107.7,708.1z M109.9,708.1c0,4.4,1.1,6.7,3.4,6.7
			c2.2,0,3.3-2.2,3.3-6.7c0-4.7-1.1-7.1-3.3-7.1C111.1,700.9,109.9,703.3,109.9,708.1z"/>
		<path d="M120.7,703.7c0-1.4,0.3-2.5,1.1-3.3c0.8-0.8,1.7-1.3,3-1.3s2.2,0.3,2.8,1.1c0.6,0.8,0.9,1.7,0.9,3.1
			c0,1.3-0.3,2.4-1.1,3.1c-0.8,0.8-1.7,1.3-3,1.3c-1.1,0-2-0.3-2.8-1.1C121,705.9,120.7,705,120.7,703.7z M122.4,703.6
			c0,0.9,0.2,1.7,0.6,2.2s0.9,0.8,1.7,0.8c0.8,0,1.3-0.3,1.7-0.8c0.5-0.5,0.6-1.3,0.6-2.2s-0.2-1.7-0.6-2.2
			c-0.3-0.5-0.9-0.8-1.6-0.8c-0.8,0-1.3,0.3-1.7,0.8C122.6,701.9,122.4,702.7,122.4,703.6z M135.9,699.5l-10.8,16.9h-1.9l10.8-16.9
			H135.9z M130.7,712.4c0-1.4,0.3-2.5,1.1-3.3s1.7-1.3,3-1.3s2,0.3,2.8,1.1c0.6,0.8,0.9,1.7,0.9,3.1c0,1.3-0.3,2.4-1.1,3.1
			s-1.7,1.3-3,1.3c-1.1,0-2-0.3-2.8-1.1C131,714.6,130.7,713.5,130.7,712.4z M132.4,712.2c0,0.9,0.2,1.6,0.6,2.2
			c0.5,0.5,0.9,0.8,1.7,0.8s1.3-0.3,1.7-0.8c0.5-0.5,0.6-1.3,0.6-2.2s-0.2-1.7-0.6-2.2c-0.5-0.5-0.9-0.8-1.6-0.8
			c-0.8,0-1.3,0.3-1.7,0.8C132.6,710.5,132.4,711.3,132.4,712.2z"/>
	</g>
	<g id="_6.0_3" class="st0">
		<path d="M99.5,654.4c-0.9-0.5-1.7-0.6-2.7-0.6c-1.4,0-2.7,0.6-3.4,1.9c-0.9,1.3-1.3,3-1.4,5.2l0,0c0.8-1.6,2-2.4,3.8-2.4
			c1.4,0,2.7,0.5,3.4,1.4c0.9,0.9,1.3,2.2,1.3,3.8s-0.5,3-1.6,4.1c-0.9,1.1-2.2,1.6-3.8,1.6c-1.7,0-3-0.6-4.1-2
			c-0.9-1.3-1.4-3.3-1.4-5.6c0-3,0.6-5.3,1.9-7.1c1.3-1.7,3-2.7,5-2.7c1.3,0,2.2,0.2,2.8,0.5v2h0.2
			C99.5,654.5,99.5,654.4,99.5,654.4z M92,663.5c0,1.1,0.3,2,0.9,2.8s1.4,1.3,2.4,1.3s1.7-0.3,2.2-0.9c0.6-0.6,0.9-1.6,0.9-2.7
			c0-1.1-0.3-2-0.8-2.7c-0.5-0.6-1.3-0.9-2.4-0.9c-0.9,0-1.7,0.3-2.4,0.9C92.3,661.9,92,662.5,92,663.5z"/>
		<path d="M102.7,667.8c0-0.3,0.2-0.8,0.5-0.9c0.3-0.3,0.6-0.5,0.9-0.5c0.5,0,0.8,0.2,0.9,0.5c0.3,0.3,0.5,0.6,0.5,0.9
			c0,0.3-0.2,0.6-0.5,0.9c-0.3,0.3-0.6,0.5-0.9,0.5c-0.5,0-0.8-0.2-0.9-0.5C102.8,668.5,102.7,668.2,102.7,667.8z"/>
		<path d="M107.7,660.9c0-3,0.5-5.2,1.4-6.7c0.9-1.6,2.4-2.4,4.2-2.4c3.6,0,5.3,2.8,5.3,8.6c0,2.8-0.5,5-1.6,6.4
			c-0.9,1.6-2.4,2.2-4.2,2.2c-1.7,0-3-0.8-3.9-2.2C108.1,665.7,107.7,663.6,107.7,660.9z M109.9,660.8c0,4.4,1.1,6.7,3.4,6.7
			c2.2,0,3.3-2.2,3.3-6.7c0-4.7-1.1-7.1-3.3-7.1S109.9,656.1,109.9,660.8z"/>
		<path d="M120.7,656.4c0-1.4,0.3-2.5,1.1-3.3c0.8-0.8,1.7-1.3,3-1.3s2.2,0.3,2.8,1.1c0.6,0.8,0.9,1.7,0.9,3.1
			c0,1.3-0.3,2.4-1.1,3.1s-1.7,1.3-3,1.3c-1.1,0-2-0.3-2.8-1.1C121,658.8,120.7,657.7,120.7,656.4z M122.4,656.2
			c0,0.9,0.2,1.7,0.6,2.2s0.9,0.8,1.7,0.8c0.8,0,1.3-0.3,1.7-0.8c0.5-0.5,0.6-1.3,0.6-2.2s-0.2-1.7-0.6-2.2
			c-0.3-0.5-0.9-0.8-1.6-0.8c-0.8,0-1.3,0.3-1.7,0.8C122.6,654.7,122.4,655.3,122.4,656.2z M135.9,652.2l-10.8,16.9h-1.9l10.8-16.9
			H135.9z M130.7,665c0-1.4,0.3-2.5,1.1-3.3s1.7-1.3,3-1.3s2,0.3,2.8,1.1c0.6,0.8,0.9,1.7,0.9,3.1c0,1.3-0.3,2.4-1.1,3.1
			s-1.7,1.3-3,1.3c-1.1,0-2-0.3-2.8-1.1C131,667.2,130.7,666.3,130.7,665z M132.4,664.9c0,0.9,0.2,1.6,0.6,2.2
			c0.5,0.5,0.9,0.8,1.7,0.8s1.3-0.3,1.7-0.8c0.5-0.5,0.6-1.3,0.6-2.2s-0.2-1.7-0.6-2.2c-0.5-0.5-0.9-0.8-1.6-0.8
			c-0.8,0-1.3,0.3-1.7,0.8C132.6,663.3,132.4,663.9,132.4,664.9z"/>
	</g>
	<g id="_8.0_3" class="st0">
		<path d="M89.5,613c0-0.9,0.3-1.9,0.9-2.7s1.3-1.4,2.2-1.7c-0.8-0.5-1.3-0.9-1.7-1.6c-0.5-0.6-0.6-1.4-0.6-2c0-0.8,0.2-1.6,0.6-2.2
			c0.5-0.6,0.9-1.1,1.7-1.6c0.8-0.5,1.6-0.6,2.4-0.6c0.9,0,1.7,0.2,2.4,0.6c0.8,0.3,1.3,0.9,1.7,1.6c0.5,0.6,0.6,1.4,0.6,2.2
			s-0.2,1.4-0.6,2c-0.5,0.6-0.9,1.3-1.7,1.6c0.9,0.3,1.7,0.9,2.2,1.7c0.6,0.8,0.8,1.7,0.8,2.7s-0.2,1.9-0.6,2.5
			c-0.5,0.8-1.1,1.4-1.9,1.7c-0.8,0.5-1.7,0.6-2.8,0.6c-1.1,0-2-0.2-2.8-0.6c-0.8-0.5-1.4-0.9-1.9-1.7
			C89.8,614.7,89.5,613.9,89.5,613z M91.5,612.8c0,0.9,0.3,1.7,0.9,2.4c0.6,0.6,1.4,0.9,2.5,0.9c0.9,0,1.9-0.3,2.5-0.9
			c0.6-0.6,0.9-1.4,0.9-2.4s-0.3-1.7-0.9-2.4c-0.6-0.6-1.4-0.9-2.4-0.9s-1.7,0.3-2.4,0.9C91.8,611.1,91.5,611.9,91.5,612.8z
			 M92.1,605c0,0.8,0.3,1.4,0.8,1.9s1.3,0.8,1.9,0.8c0.8,0,1.4-0.3,2-0.8s0.8-1.3,0.8-1.9c0-0.8-0.3-1.4-0.8-1.9s-1.3-0.8-2-0.8
			s-1.4,0.3-2,0.8C92.5,603.6,92.1,604.2,92.1,605z"/>
		<path d="M102.7,616.4c0-0.3,0.2-0.8,0.5-0.9c0.3-0.2,0.6-0.5,0.9-0.5c0.5,0,0.8,0.2,0.9,0.5c0.3,0.3,0.5,0.6,0.5,0.9
			s-0.2,0.6-0.5,0.9c-0.3,0.3-0.6,0.5-0.9,0.5c-0.5,0-0.8-0.2-0.9-0.5C102.8,617.2,102.7,616.9,102.7,616.4z"/>
		<path d="M107.7,609.5c0-3,0.5-5.2,1.4-6.7c0.9-1.6,2.4-2.4,4.2-2.4c3.6,0,5.3,2.8,5.3,8.6c0,2.8-0.5,5-1.6,6.4
			c-0.9,1.6-2.4,2.2-4.2,2.2c-1.7,0-3-0.8-3.9-2.2C108.1,614.4,107.7,612.2,107.7,609.5z M109.9,609.5c0,4.4,1.1,6.7,3.4,6.7
			c2.2,0,3.3-2.2,3.3-6.7c0-4.7-1.1-7.1-3.3-7.1C111.1,602.3,109.9,604.7,109.9,609.5z"/>
		<path d="M120.7,605.1c0-1.4,0.3-2.5,1.1-3.3c0.8-0.8,1.7-1.3,3-1.3s2.2,0.3,2.8,1.1c0.6,0.8,0.9,1.7,0.9,3.1
			c0,1.3-0.3,2.4-1.1,3.1s-1.7,1.3-3,1.3c-1.1,0-2-0.3-2.8-1.1C121,607.3,120.7,606.4,120.7,605.1z M122.4,605
			c0,0.9,0.2,1.7,0.6,2.2s0.9,0.8,1.7,0.8c0.8,0,1.3-0.3,1.7-0.8c0.5-0.5,0.6-1.3,0.6-2.2s-0.2-1.7-0.6-2.2
			c-0.3-0.5-0.9-0.8-1.6-0.8c-0.8,0-1.3,0.3-1.7,0.8C122.6,603.3,122.4,604,122.4,605z M135.9,600.9l-10.8,16.9h-1.9l10.8-16.9
			H135.9z M130.7,613.6c0-1.4,0.3-2.5,1.1-3.3s1.7-1.3,3-1.3s2,0.3,2.8,1.1c0.6,0.8,0.9,1.7,0.9,3.1c0,1.3-0.3,2.4-1.1,3.1
			s-1.7,1.3-3,1.3c-1.1,0-2-0.3-2.8-1.1C131,616,130.7,614.9,130.7,613.6z M132.4,613.6c0,0.9,0.2,1.6,0.6,2.2
			c0.5,0.5,0.9,0.8,1.7,0.8s1.3-0.3,1.7-0.8c0.5-0.5,0.6-1.3,0.6-2.2s-0.2-1.7-0.6-2.2c-0.5-0.5-0.9-0.8-1.6-0.8
			c-0.8,0-1.3,0.3-1.7,0.8C132.6,611.9,132.4,612.7,132.4,613.6z"/>
	</g>
	<g id="_10.0_3" class="st0">
		<path d="M83.1,566.3V552c-0.3,0.3-0.9,0.6-1.7,1.1c-0.8,0.5-1.6,0.6-2.2,0.9v-2.2c0.9-0.3,1.9-0.6,2.8-1.1s1.7-1.1,2.4-1.6h0.8
			v17.1L83.1,566.3L83.1,566.3z"/>
		<path d="M90.9,558.3c0-3,0.5-5.2,1.4-6.7c0.9-1.6,2.4-2.4,4.2-2.4c3.6,0,5.3,2.8,5.3,8.6c0,2.8-0.5,5-1.6,6.4
			c-0.9,1.6-2.4,2.2-4.2,2.2c-1.7,0-3-0.8-3.9-2.2C91.2,562.8,90.9,560.9,90.9,558.3z M93.1,558.1c0,4.4,1.1,6.7,3.4,6.7
			c2.2,0,3.3-2.2,3.3-6.7c0-4.7-1.1-7.1-3.3-7.1C94.2,551,93.1,553.4,93.1,558.1z"/>
		<path d="M104.2,565.2c0-0.3,0.2-0.8,0.5-0.9c0.3-0.3,0.6-0.5,0.9-0.5c0.5,0,0.8,0.2,0.9,0.5c0.3,0.3,0.5,0.6,0.5,0.9
			s-0.2,0.6-0.5,0.9c-0.3,0.3-0.6,0.5-0.9,0.5c-0.5,0-0.8-0.2-0.9-0.5C104.4,565.8,104.2,565.5,104.2,565.2z"/>
		<path d="M109.2,558.3c0-3,0.5-5.2,1.4-6.7c0.9-1.6,2.4-2.4,4.2-2.4c3.6,0,5.3,2.8,5.3,8.6c0,2.8-0.5,5-1.6,6.4
			c-0.9,1.6-2.4,2.2-4.2,2.2c-1.7,0-3-0.8-3.9-2.2C109.7,563,109.2,560.9,109.2,558.3z M111.3,558.1c0,4.4,1.1,6.7,3.4,6.7
			c2.2,0,3.3-2.2,3.3-6.7c0-4.7-1.1-7.1-3.3-7.1S111.3,553.4,111.3,558.1z"/>
		<path d="M122.1,553.7c0-1.4,0.3-2.5,1.1-3.3c0.8-0.8,1.7-1.3,3-1.3s2.2,0.3,2.8,1.1s0.9,1.7,0.9,3.1c0,1.3-0.3,2.4-1.1,3.1
			s-1.7,1.3-3,1.3c-1.1,0-2-0.3-2.8-1.1C122.2,555.9,122.1,555,122.1,553.7z M123.8,553.7c0,0.9,0.2,1.7,0.6,2.2s0.9,0.8,1.7,0.8
			c0.8,0,1.3-0.3,1.7-0.8c0.5-0.5,0.6-1.3,0.6-2.2s-0.2-1.7-0.6-2.2c-0.3-0.5-0.9-0.8-1.6-0.8c-0.8,0-1.3,0.3-1.7,0.8
			C124,552,123.8,552.8,123.8,553.7z M137.3,549.5l-10.8,16.9h-1.9l10.8-16.9H137.3z M132.1,562.3c0-1.4,0.3-2.5,1.1-3.3
			s1.7-1.3,3-1.3s2,0.3,2.8,1.1c0.6,0.8,0.9,1.7,0.9,3.1c0,1.3-0.3,2.4-1.1,3.1s-1.7,1.3-3,1.3c-1.1,0-2-0.3-2.8-1.1
			C132.4,564.5,132.1,563.6,132.1,562.3z M133.9,562.2c0,0.9,0.2,1.6,0.6,2.2c0.5,0.5,0.9,0.8,1.7,0.8s1.3-0.3,1.7-0.8
			c0.5-0.5,0.6-1.3,0.6-2.2s-0.2-1.7-0.6-2.2c-0.5-0.5-0.9-0.8-1.6-0.8c-0.8,0-1.3,0.3-1.7,0.8C134,560.6,133.9,561.2,133.9,562.2z"
			/>
	</g>
	<g id="_12.0_3" class="st0">
		<path d="M83.1,518v-14.3c-0.3,0.3-0.9,0.6-1.7,1.1c-0.8,0.5-1.6,0.6-2.2,0.9v-2c0.9-0.3,1.9-0.6,2.8-1.1s1.7-1.1,2.4-1.6h0.8v17.1
			L83.1,518L83.1,518z"/>
		<path d="M99,505.6c0-0.9-0.3-1.6-0.8-2.2c-0.6-0.5-1.4-0.8-2.4-0.8c-0.6,0-1.4,0.2-2,0.5c-0.8,0.3-1.4,0.8-2,1.6v-2
			c0.5-0.6,1.1-0.9,1.9-1.3c0.6-0.3,1.6-0.5,2.5-0.5c1.6,0,2.7,0.5,3.6,1.3s1.4,1.9,1.4,3.3c0,1.3-0.3,2.4-0.8,3.1
			c-0.6,0.9-1.6,1.9-3,2.8s-2.4,1.7-2.8,2c-0.5,0.5-0.8,0.8-0.9,1.3c-0.2,0.3-0.3,0.8-0.3,1.4h8.3v1.9H91.2v-0.8
			c0-0.9,0.2-1.7,0.5-2.5c0.3-0.6,0.6-1.3,1.3-2c0.6-0.6,1.6-1.4,2.8-2.4c1.3-0.9,2.2-1.7,2.7-2.4C98.9,507.3,99,506.5,99,505.6z"/>
		<path d="M104.2,516.9c0-0.3,0.2-0.8,0.5-0.9c0.3-0.3,0.6-0.5,0.9-0.5c0.5,0,0.8,0.2,0.9,0.5c0.3,0.3,0.5,0.6,0.5,0.9
			c0,0.3-0.2,0.6-0.5,0.9c-0.3,0.3-0.6,0.5-0.9,0.5c-0.5,0-0.8-0.2-0.9-0.5C104.4,517.5,104.2,517.2,104.2,516.9z"/>
		<path d="M109.2,510c0-3,0.5-5.2,1.4-6.7c0.9-1.6,2.4-2.4,4.2-2.4c3.6,0,5.3,2.8,5.3,8.6c0,2.8-0.5,5-1.6,6.4
			c-0.9,1.6-2.4,2.2-4.2,2.2c-1.7,0-3-0.8-3.9-2.2C109.7,514.7,109.2,512.6,109.2,510z M111.3,509.8c0,4.4,1.1,6.7,3.4,6.7
			c2.2,0,3.3-2.2,3.3-6.7c0-4.7-1.1-7.1-3.3-7.1C112.5,502.8,111.3,505.1,111.3,509.8z"/>
		<path d="M122.1,505.4c0-1.4,0.3-2.5,1.1-3.3c0.8-0.8,1.7-1.3,3-1.3s2.2,0.3,2.8,1.1c0.6,0.8,0.9,1.7,0.9,3.1
			c0,1.3-0.3,2.4-1.1,3.1c-0.8,0.8-1.7,1.3-3,1.3c-1.1,0-2-0.3-2.8-1.1C122.2,507.6,122.1,506.7,122.1,505.4z M123.8,505.3
			c0,0.9,0.2,1.7,0.6,2.2s0.9,0.8,1.7,0.8c0.8,0,1.3-0.3,1.7-0.8c0.5-0.5,0.6-1.3,0.6-2.2s-0.2-1.7-0.6-2.2
			c-0.3-0.5-0.9-0.8-1.6-0.8c-0.8,0-1.3,0.3-1.7,0.8C124,503.7,123.8,504.3,123.8,505.3z M137.3,501.2l-10.8,16.9h-1.9l10.8-16.9
			L137.3,501.2L137.3,501.2z M132.1,514c0-1.4,0.3-2.5,1.1-3.3s1.7-1.3,3-1.3s2,0.3,2.8,1.1c0.6,0.8,0.9,1.7,0.9,3.1
			c0,1.3-0.3,2.4-1.1,3.1c-0.8,0.8-1.7,1.3-3,1.3c-1.1,0-2-0.3-2.8-1.1C132.4,516.2,132.1,515.3,132.1,514z M133.9,513.9
			c0,0.9,0.2,1.6,0.6,2.2c0.5,0.5,0.9,0.8,1.7,0.8s1.3-0.3,1.7-0.8c0.5-0.5,0.6-1.3,0.6-2.2s-0.2-1.7-0.6-2.2
			c-0.5-0.5-0.9-0.8-1.6-0.8c-0.8,0-1.3,0.3-1.7,0.8C134,512.3,133.9,513,133.9,513.9z"/>
	</g>
</g>
<g id="线-3">
	<rect id="矩形_863_拷贝_2-3" x="150.5" y="758.3" class="st1" width="213.5" height="2"/>
	<rect id="矩形_863_拷贝_3-3" x="150.5" y="707" class="st1" width="213.5" height="2"/>
	<rect id="矩形_863_拷贝_4-3" x="150.5" y="655.8" class="st1" width="213.5" height="2"/>
	<rect id="矩形_863_拷贝_5-7" x="150.5" y="605.4" class="st1" width="213.5" height="2"/>
	<rect id="矩形_863_拷贝_5-8" x="150.5" y="554.2" class="st1" width="213.5" height="2"/>
	<rect id="矩形_863_拷贝_5-9" x="150.5" y="502.8" class="st1" width="213.5" height="2"/>
	<rect id="矩形_863-3" x="150.5" y="499.8" class="st2" width="2" height="314"/>
</g>
<rect id="矩形_864-3" x="181.8" y="579.3" class="st3" width="46.2" height="232.5"/>
<rect id="矩形_864_拷贝-3" x="228.1" y="626.6" class="st4" width="46.2" height="185.2"/>
<rect id="矩形_864_拷贝_2-3" x="274.5" y="677.9" class="st5" width="46.2" height="133.9"/>
<rect id="矩形_863_拷贝-3" x="150.5" y="811.8" class="st2" width="213.5" height="2"/>
<rect id="矩形_865" x="470" y="632" class="st3" width="36.5" height="35.9"/>
<rect id="矩形_865_拷贝" x="470" y="694.3" class="st4" width="36.5" height="35.9"/>
<rect id="矩形_865_拷贝_2" x="470" y="756.3" class="st5" width="36.5" height="35.9"/>
<g>
	<path d="M72.1,31.8h-5.4v16.5h-2.4V31.8H59v-2.2h13.1V31.8z"/>
	<path d="M72.1,36c1.4-0.8,2.8-1.2,4.6-1.2c3.2,0,4.8,1.6,4.8,5v8.5h-2.4v-2l0,0c-1,1.6-2.2,2.4-4.2,2.4c-1.2,0-2.4-0.4-3-1
		c-0.8-0.8-1.2-1.6-1.2-2.8c0-2.6,1.6-4.2,4.6-4.6l4-0.6c0-2.2-1-3.2-2.8-3.2c-1.6,0-3,0.6-4.4,1.6C72.1,38.1,72.1,36,72.1,36z
		 M76.1,42.1c-1.2,0-1.8,0.4-2.4,0.8c-0.4,0.4-0.6,0.8-0.6,1.6c0,0.6,0.2,1.2,0.6,1.6s1,0.6,1.8,0.6c1,0,1.8-0.4,2.6-1
		c0.6-0.8,1-1.6,1-2.8v-1.4L76.1,42.1z"/>
	<path d="M84.6,45.5c1.2,0.8,2.4,1.2,3.8,1.2c1.8,0,2.8-0.6,2.8-1.8c0-0.6-0.2-1-0.6-1.2c-0.4-0.4-1.2-0.8-2.4-1.2
		c-1.4-0.6-2.4-1.2-2.8-1.8c-0.4-0.6-0.6-1.2-0.6-2.2c0-1.2,0.6-2.2,1.6-2.8c1-0.8,2.2-1,3.8-1c1.2,0,2.2,0.2,3.2,0.6v2.2
		c-1-0.6-2.2-1-3.4-1c-0.8,0-1.4,0.2-1.8,0.4c-0.4,0.4-0.8,0.8-0.8,1.4s0.2,1,0.6,1.2s1.2,0.6,2.2,1.2c1.4,0.6,2.4,1.2,3,1.8
		s0.8,1.4,0.8,2.2c0,1.2-0.6,2.2-1.6,2.8c-1,0.8-2.4,1-3.8,1S86,48.3,85,47.7v-2.2H84.6z"/>
	<path d="M97.1,36c1.4-0.8,2.8-1.2,4.6-1.2c3.2,0,4.8,1.6,4.8,5v8.5H104v-2l0,0c-1,1.6-2.2,2.4-4.2,2.4c-1.2,0-2.4-0.4-3-1
		c-0.8-0.8-1.2-1.6-1.2-2.8c0-2.4,1.4-4,4.4-4.4l4-0.6c0-2.2-1-3.2-2.8-3.2c-1.6,0-3,0.6-4.4,1.6V36H97.1z M101.1,42.1
		c-1,0.2-1.8,0.4-2.2,0.8c-0.6,0.4-0.8,0.8-0.8,1.6c0,0.6,0.2,1.2,0.6,1.6c0.4,0.4,1,0.6,1.8,0.6c1,0,1.8-0.4,2.6-1
		c0.8-0.8,1-1.8,1-2.8v-1.4L101.1,42.1z"/>
	<path d="M129,48.3h-2.4v-2.2l0,0c-1,1.6-2.4,2.6-4.6,2.6c-1.6,0-3-0.6-4-1.8c-1-1.2-1.4-2.8-1.4-4.8c0-2.2,0.6-4,1.6-5.4
		c1.2-1.4,2.6-2,4.4-2c1.8,0,3.2,0.8,4,2.2l0,0v-8.3h2.4V48.3z M126.9,40.3c0-1-0.4-2-1-2.6c-0.8-0.8-1.6-1-2.6-1
		c-1.2,0-2.2,0.4-3,1.4c-0.8,1-1,2.2-1,3.8c0,1.4,0.4,2.6,1,3.6c0.6,0.8,1.6,1.2,2.8,1.2c1.2,0,2-0.4,2.8-1.2c0.8-0.8,1-2,1-3.2
		C126.9,42.3,126.9,40.3,126.9,40.3z"/>
	<path d="M144.1,42.3h-9.3c0,1.4,0.4,2.6,1.2,3.4s1.8,1.2,3.2,1.2c1.6,0,2.8-0.4,4.2-1.4v2.2c-1.2,0.8-2.8,1.2-4.6,1.2
		c-2,0-3.4-0.6-4.6-1.8c-1-1.2-1.6-3-1.6-5.2c0-2,0.6-3.8,1.8-5c1.2-1.4,2.6-2,4.4-2c1.8,0,3.2,0.6,4,1.6s1.4,2.6,1.4,4.8V42.3z
		 M141.7,40.3c0-1.2-0.2-2.2-0.8-2.8c-0.6-0.6-1.4-1-2.4-1c-1,0-1.8,0.4-2.4,1c-0.8,0.8-1.2,1.6-1.4,2.8H141.7z"/>
	<path d="M161.6,37.3c-0.4-0.2-1-0.4-1.6-0.4c-1,0-1.6,0.4-2.2,1.2c-0.6,0.8-0.8,2-0.8,3.4v6.7h-2.4V35h2.4v2.8l0,0
		c0.6-2,1.8-3,3.6-3c0.6,0,1,0,1.2,0.2L161.6,37.3L161.6,37.3z"/>
	<path d="M174.3,42.3H165c0,1.4,0.4,2.6,1.2,3.4s1.8,1.2,3.2,1.2c1.6,0,2.8-0.4,4.2-1.4v2.2c-1.2,0.8-2.8,1.2-4.6,1.2
		c-2,0-3.4-0.6-4.6-1.8c-1-1.2-1.6-3-1.6-5.2c0-2,0.6-3.8,1.8-5c1.2-1.4,2.6-2,4.4-2c1.8,0,3.2,0.6,4,1.6s1.4,2.6,1.4,4.8V42.3z
		 M172.1,40.3c0-1.2-0.2-2.2-0.8-2.8c-0.6-0.6-1.4-1-2.4-1s-1.8,0.4-2.4,1c-0.8,0.8-1.2,1.6-1.4,2.8H172.1z"/>
	<path d="M183.8,48.1c-0.6,0.2-1.2,0.4-2,0.4c-2.4,0-3.6-1.4-3.6-4v-7.5h-2.2v-2h2.2v-3.2l2.4-0.8v4h3.4v2h-3.4v7.3
		c0,0.8,0.2,1.6,0.4,1.8c0.2,0.4,0.8,0.6,1.4,0.6s1-0.2,1.4-0.4C183.8,46.3,183.8,48.1,183.8,48.1z"/>
	<path d="M185.6,41.7c0-2.2,0.6-4,1.8-5.2c1.2-1.2,3-2,5-2s3.6,0.6,4.8,1.8c1.2,1.2,1.8,3,1.8,5c0,2.2-0.6,3.8-1.8,5.2
		c-1.2,1.2-2.8,2-4.8,2s-3.6-0.6-4.8-1.8C186.2,45.5,185.6,43.9,185.6,41.7z M188,41.7c0,1.6,0.4,2.8,1.2,3.6
		c0.8,0.8,1.8,1.4,3.2,1.4c1.4,0,2.4-0.4,3-1.2c0.8-0.8,1-2.2,1-3.8s-0.4-2.8-1-3.8c-0.8-0.8-1.8-1.4-3-1.4c-1.4,0-2.4,0.4-3.2,1.4
		C188.4,38.9,188,40.1,188,41.7z"/>
	<path d="M209.2,37.3c-0.4-0.2-1-0.4-1.6-0.4c-1,0-1.6,0.4-2.2,1.2c-0.6,0.8-0.8,2-0.8,3.4v6.7h-2.4V35h2.4v2.8l0,0
		c0.6-2,1.8-3,3.6-3c0.6,0,1,0,1.2,0.2L209.2,37.3L209.2,37.3z"/>
	<path d="M222.7,48.3h-2.4v-7.5c0-2.8-1-4.2-3-4.2c-1,0-1.8,0.4-2.6,1.2c-0.6,0.8-1,1.8-1,3v7.5h-2.4V35h2.4v2.2l0,0
		c1-1.6,2.4-2.6,4.4-2.6c1.4,0,2.6,0.4,3.4,1.4c0.8,1,1.2,2.4,1.2,4.2C222.7,40.1,222.7,48.3,222.7,48.3z"/>
	<path d="M225.7,41.7c0-2.2,0.6-4,1.8-5.2s3-2,5-2c2,0,3.6,0.6,4.8,1.8c1.2,1.2,1.8,3,1.8,5c0,2.2-0.6,3.8-1.8,5.2
		c-1.2,1.2-2.8,2-4.8,2c-2,0-3.6-0.6-4.8-1.8C226.3,45.5,225.7,43.9,225.7,41.7z M228,41.7c0,1.6,0.4,2.8,1.2,3.6
		c0.8,0.8,1.8,1.4,3.2,1.4c1.4,0,2.4-0.4,3-1.2c0.8-0.8,1-2.2,1-3.8c0-1.6-0.4-2.8-1-3.8c-0.8-0.8-1.8-1.4-3-1.4
		c-1.4,0-2.4,0.4-3.2,1.4C228.4,38.9,228,40.1,228,41.7z"/>
	<path d="M261,48.3h-2.4v-2.2l0,0c-1,1.6-2.4,2.6-4.6,2.6c-1.6,0-3-0.6-4-1.8c-1-1.2-1.4-2.8-1.4-4.8c0-2.2,0.6-4,1.6-5.4
		c1.2-1.4,2.6-2,4.4-2s3.2,0.8,4,2.2l0,0v-8.3h2.4V48.3z M258.6,40.3c0-1-0.4-2-1-2.6c-0.8-0.8-1.6-1-2.6-1c-1.2,0-2.2,0.4-3,1.4
		c-0.8,0.8-1.2,2-1.2,3.8c0,1.4,0.4,2.6,1,3.6c0.6,0.8,1.6,1.2,2.8,1.2c1.2,0,2-0.4,2.8-1.2c0.8-0.8,1-2,1-3.2L258.6,40.3
		L258.6,40.3z"/>
	<path d="M275.8,42.3h-9.1c0,1.4,0.4,2.6,1.2,3.4c0.8,0.8,1.8,1.2,3.2,1.2c1.6,0,2.8-0.4,4.2-1.4v2.2c-1.2,0.8-2.8,1.2-4.6,1.2
		c-2,0-3.4-0.6-4.6-1.8c-1-1.2-1.6-3-1.6-5.2c0-2,0.6-3.8,1.8-5c1.2-1.4,2.6-2,4.4-2c1.8,0,3.2,0.6,4,1.6s1.4,2.6,1.4,4.8
		L275.8,42.3L275.8,42.3z M273.7,40.3c0-1.2-0.2-2.2-0.8-2.8c-0.6-0.6-1.4-1-2.4-1s-1.8,0.4-2.4,1c-0.8,0.8-1.2,1.6-1.4,2.8H273.7z"
		/>
	<path d="M286.4,48.3V28.6h2.4v19.6H286.4z"/>
	<path d="M291.9,41.7c0-2.2,0.6-4,1.8-5.2c1.2-1.2,3-2,5-2c2,0,3.6,0.6,4.8,1.8s1.8,3,1.8,5c0,2.2-0.6,3.8-1.8,5.2
		c-1.2,1.2-2.8,2-4.8,2c-2,0-3.6-0.6-4.8-1.8C292.5,45.5,291.9,43.9,291.9,41.7z M294.3,41.7c0,1.6,0.4,2.8,1.2,3.6
		c0.8,0.8,1.8,1.4,3.2,1.4c1.4,0,2.4-0.4,3-1.2c0.8-0.8,1-2.2,1-3.8c0-1.6-0.4-2.8-1-3.8c-0.8-0.8-1.8-1.4-3-1.4
		c-1.4,0-2.4,0.4-3.2,1.4C294.7,38.9,294.3,40.1,294.3,41.7z"/>
	<path d="M307.8,45.5c1.2,0.8,2.4,1.2,3.8,1.2c1.8,0,2.8-0.6,2.8-1.8c0-0.6-0.2-1-0.6-1.2c-0.4-0.4-1.2-0.8-2.4-1.2
		c-1.4-0.6-2.4-1.2-2.8-1.8c-0.4-0.6-0.6-1.2-0.6-2.2c0-1.2,0.6-2.2,1.6-2.8c1-0.8,2.2-1,3.8-1c1.2,0,2.2,0.2,3.2,0.6v2.2
		c-1-0.6-2.2-1-3.4-1c-0.8,0-1.4,0.2-1.8,0.4c-0.4,0.4-0.8,0.8-0.8,1.4s0.2,1,0.6,1.2s1.2,0.6,2.2,1.2c1.4,0.6,2.4,1.2,3,1.8
		s0.8,1.4,0.8,2.2c0,1.2-0.6,2.2-1.6,2.8c-1,0.8-2.4,1-3.8,1c-1.4,0-2.6-0.2-3.6-0.8v-2.2H307.8z"/>
	<path d="M327.4,36c1.4-0.8,2.8-1.2,4.6-1.2c3.2,0,4.8,1.6,4.8,5v8.5h-2.4v-2l0,0c-1,1.6-2.2,2.4-4.2,2.4c-1.2,0-2.4-0.4-3-1
		c-0.8-0.8-1.2-1.6-1.2-2.8c0-2.4,1.4-4,4.4-4.4l4-0.6c0-2.2-1-3.2-2.8-3.2c-1.6,0-3,0.6-4.4,1.6V36H327.4z M331.4,42.1
		c-1,0.2-1.8,0.4-2.2,0.8c-0.4,0.4-0.6,1-0.6,1.6s0.2,1.2,0.6,1.6s1,0.6,1.8,0.6c1,0,1.8-0.4,2.6-1c0.6-0.8,1-1.6,1-2.8v-1.4
		L331.4,42.1z"/>
	<path d="M349.8,47.7c-1,0.6-2.2,1-3.8,1c-2,0-3.4-0.6-4.6-1.8c-1.2-1.2-1.8-2.8-1.8-4.8c0-2.2,0.6-4,2-5.4c1.2-1.4,3-2,5-2
		c1.2,0,2.2,0.2,3.2,0.6v2.4c-1-0.6-2-1-3.2-1c-1.4,0-2.4,0.4-3.4,1.4c-0.8,1-1.2,2.2-1.2,3.8s0.4,2.8,1.2,3.6
		c0.8,0.8,1.8,1.4,3.2,1.4c1.2,0,2.2-0.4,3.2-1.2L349.8,47.7L349.8,47.7z"/>
	<path d="M359.4,48.1c-0.6,0.2-1.2,0.4-2,0.4c-2.4,0-3.6-1.4-3.6-4v-7.5h-2.2v-2h2.2v-3.2l2.4-0.8v4h3.4v2h-3.4v7.3
		c0,0.8,0.2,1.6,0.4,1.8c0.2,0.4,0.8,0.6,1.4,0.6s1-0.2,1.4-0.4L359.4,48.1L359.4,48.1z"/>
	<path d="M361.9,30.4c0-0.4,0.2-0.8,0.4-1c0.2-0.2,0.6-0.4,1-0.4s0.8,0.2,1,0.4s0.4,0.6,0.4,1c0,0.4-0.2,0.8-0.4,1
		c-0.2,0.2-0.6,0.4-1,0.4s-0.8-0.2-1-0.4C362.1,31.2,361.9,30.8,361.9,30.4z M362.1,48.3V35h2.4v13.3H362.1z"/>
	<path d="M379.4,35l-5.2,13.3h-2.4l-5-13.3h2.6l3.2,9.5c0.2,0.8,0.4,1.4,0.4,2l0,0c0-0.6,0.2-1.4,0.4-1.8l3.4-9.5h2.6V35z"/>
	<path d="M380.6,41.7c0-2.2,0.6-4,1.8-5.2c1.2-1.2,3-2,5-2c2,0,3.6,0.6,4.8,1.8c1.2,1.2,1.8,3,1.8,5c0,2.2-0.6,3.8-1.8,5.2
		c-1.2,1.2-2.8,2-4.8,2c-2,0-3.6-0.6-4.8-1.8C381.2,45.5,380.6,43.9,380.6,41.7z M383,41.7c0,1.6,0.4,2.8,1.2,3.6
		c0.8,0.8,1.8,1.4,3.2,1.4c1.4,0,2.4-0.4,3-1.2c0.8-0.8,1-2.2,1-3.8c0-1.6-0.4-2.8-1-3.8c-0.8-0.8-1.8-1.4-3-1.4
		c-1.4,0-2.4,0.4-3.2,1.4C383.4,38.9,383,40.1,383,41.7z"/>
	<path d="M396.3,45.5c1.2,0.8,2.4,1.2,3.8,1.2c1.8,0,2.8-0.6,2.8-1.8c0-0.6-0.2-1-0.6-1.2c-0.4-0.4-1.2-0.8-2.4-1.2
		c-1.4-0.6-2.4-1.2-2.8-1.8c-0.4-0.6-0.6-1.2-0.6-2.2c0-1.2,0.6-2.2,1.6-2.8c1-0.8,2.2-1,3.8-1c1.2,0,2.2,0.2,3.2,0.6v2.2
		c-1-0.6-2.2-1-3.4-1c-0.8,0-1.4,0.2-1.8,0.4c-0.4,0.4-0.8,0.8-0.8,1.4s0.2,1,0.6,1.2s1.2,0.6,2.2,1.2c1.4,0.6,2.4,1.2,3,1.8
		s0.8,1.4,0.8,2.2c0,1.2-0.6,2.2-1.6,2.8c-1,0.8-2.4,1-3.8,1c-1.4,0-2.6-0.2-3.6-0.8v-2.2H396.3z"/>
	<path d="M427.2,48.3h-2.4v-2.2l0,0c-1,1.6-2.4,2.6-4.6,2.6c-1.6,0-3-0.6-4-1.8c-1-1.2-1.4-2.8-1.4-4.8c0-2.2,0.6-4,1.6-5.4
		c1.2-1.4,2.6-2,4.4-2s3.2,0.8,4,2.2l0,0v-8.3h2.4V48.3z M424.8,40.3c0-1-0.4-2-1-2.6c-0.8-0.8-1.6-1-2.6-1c-1.2,0-2.2,0.4-3,1.4
		c-0.8,1-1,2.2-1,3.8c0,1.4,0.4,2.6,1,3.6c0.6,0.8,1.6,1.2,2.8,1.2c1.2,0,2-0.4,2.8-1.2c0.8-0.8,1-2,1-3.2L424.8,40.3L424.8,40.3z"
		/>
	<path d="M442.3,42.3H433c0,1.4,0.4,2.6,1.2,3.4c0.8,0.8,1.8,1.2,3.2,1.2c1.6,0,2.8-0.4,4.2-1.4v2.2c-1.2,0.8-2.8,1.2-4.6,1.2
		c-2,0-3.4-0.6-4.6-1.8c-1-1.2-1.6-3-1.6-5.2c0-2,0.6-3.8,1.8-5c1.2-1.4,2.6-2,4.4-2c1.8,0,3.2,0.6,4,1.6s1.4,2.6,1.4,4.8V42.3z
		 M439.9,40.3c0-1.2-0.2-2.2-0.8-2.8c-0.6-0.6-1.4-1-2.4-1c-1,0-1.8,0.4-2.4,1c-0.6,0.8-1.2,1.6-1.2,2.8H439.9z"/>
	<path d="M464.1,48.3h-2.4v-2.2l0,0c-1,1.6-2.4,2.6-4.6,2.6c-1.6,0-3-0.6-4-1.8c-1-1.2-1.4-2.8-1.4-4.8c0-2.2,0.6-4,1.6-5.4
		c1.2-1.4,2.6-2,4.4-2s3.2,0.8,4,2.2l0,0v-8.3h2.4V48.3z M461.9,40.3c0-1-0.4-2-1-2.6c-0.8-0.8-1.6-1-2.6-1c-1.2,0-2.2,0.4-3,1.4
		c-0.8,1-1,2.2-1,3.8c0,1.4,0.4,2.6,1,3.6c0.6,0.8,1.6,1.2,2.8,1.2c1.2,0,2-0.4,2.8-1.2c0.8-0.8,1-2,1-3.2L461.9,40.3L461.9,40.3z"
		/>
	<path d="M468.1,30.4c0-0.4,0.2-0.8,0.4-1c0.2-0.2,0.6-0.4,1-0.4s0.8,0.2,1,0.4s0.4,0.6,0.4,1c0,0.4-0.2,0.8-0.4,1
		c-0.2,0.2-0.6,0.4-1,0.4s-0.8-0.2-1-0.4C468.3,31.2,468.1,30.8,468.1,30.4z M468.3,48.3V35h2.4v13.3H468.3z"/>
	<path d="M474.2,45.5c1.2,0.8,2.4,1.2,3.8,1.2c1.8,0,2.8-0.6,2.8-1.8c0-0.6-0.2-1-0.6-1.2c-0.4-0.4-1.2-0.8-2.4-1.2
		c-1.4-0.6-2.4-1.2-2.8-1.8c-0.4-0.6-0.6-1.2-0.6-2.2c0-1.2,0.6-2.2,1.6-2.8c1-0.8,2.2-1,3.8-1c1.2,0,2.2,0.2,3.2,0.6v2.2
		c-1-0.6-2.2-1-3.4-1c-0.8,0-1.4,0.2-1.8,0.4c-0.4,0.4-0.8,0.8-0.8,1.4c0,0.6,0.2,1,0.6,1.2c0.4,0.2,1.2,0.6,2.2,1.2
		c1.4,0.6,2.4,1.2,3,1.8c0.6,0.6,0.8,1.4,0.8,2.2c0,1.2-0.6,2.2-1.6,2.8c-1,0.8-2.4,1-3.8,1c-1.4,0-2.6-0.2-3.6-0.8v-2.2H474.2z"/>
	<path d="M492.7,48.1c-0.6,0.2-1.2,0.4-2,0.4c-2.4,0-3.6-1.4-3.6-4v-7.5h-2.2v-2h2.2v-3.2l2.4-0.8v4h3.4v2h-3.4v7.3
		c0,0.8,0.2,1.6,0.4,1.8c0.2,0.4,0.8,0.6,1.4,0.6s1-0.2,1.4-0.4V48.1L492.7,48.1z"/>
	<path d="M495.1,30.4c0-0.4,0.2-0.8,0.4-1c0.2-0.2,0.6-0.4,1-0.4s0.8,0.2,1,0.4s0.4,0.6,0.4,1c0,0.4-0.2,0.8-0.4,1
		c-0.2,0.2-0.6,0.4-1,0.4s-0.8-0.2-1-0.4C495.3,31.2,495.1,30.8,495.1,30.4z M495.5,48.3V35h2.4v13.3H495.5z"/>
	<path d="M513.1,48.3h-2.4v-7.5c0-2.8-1-4.2-3-4.2c-1,0-1.8,0.4-2.6,1.2c-0.6,0.8-1,1.8-1,3v7.5h-2.4V35h2.4v2.2l0,0
		c1-1.6,2.4-2.6,4.4-2.6c1.4,0,2.6,0.4,3.4,1.4s1.2,2.4,1.2,4.2V48.3z"/>
	<path d="M523.4,48.1c-0.6,0.2-1.2,0.4-2,0.4c-2.4,0-3.6-1.4-3.6-4v-7.5h-2.2v-2h2.2v-3.2l2.4-0.8v4h3.4v2h-3.4v7.3
		c0,0.8,0.2,1.6,0.4,1.8c0.2,0.4,0.8,0.6,1.4,0.6s1-0.2,1.4-0.4L523.4,48.1L523.4,48.1z"/>
	<path d="M526.6,36c1.4-0.8,2.8-1.2,4.6-1.2c3.2,0,4.8,1.6,4.8,5v8.5h-2.4v-2l0,0c-1,1.6-2.2,2.4-4.2,2.4c-1.2,0-2.4-0.4-3-1
		c-0.8-0.8-1.2-1.6-1.2-2.8c0-2.4,1.4-4,4.4-4.4l4-0.6c0-2.2-1-3.2-2.8-3.2c-1.6,0-3,0.6-4.4,1.6V36H526.6z M530.6,42.1
		c-1,0.2-1.8,0.4-2.2,0.8s-0.6,1-0.6,1.6s0.2,1.2,0.6,1.6c0.4,0.4,1,0.6,1.8,0.6c1,0,1.8-0.4,2.6-1c0.6-0.8,1-1.6,1-2.8v-1.4
		L530.6,42.1z"/>
	<path d="M539.1,45.5c1.2,0.8,2.4,1.2,3.8,1.2c1.8,0,2.8-0.6,2.8-1.8c0-0.6-0.2-1-0.6-1.2c-0.4-0.4-1.2-0.8-2.4-1.2
		c-1.4-0.6-2.4-1.2-2.8-1.8c-0.4-0.6-0.6-1.2-0.6-2.2c0-1.2,0.6-2.2,1.6-2.8c1-0.8,2.2-1,3.8-1c1.2,0,2.2,0.2,3.2,0.6v2.2
		c-1-0.6-2.2-1-3.4-1c-0.8,0-1.4,0.2-1.8,0.4c-0.4,0.4-0.8,0.8-0.8,1.4s0.2,1,0.6,1.2c0.4,0.2,1.2,0.6,2.2,1.2
		c1.4,0.6,2.4,1.2,3,1.8s0.8,1.4,0.8,2.2c0,1.2-0.6,2.2-1.6,2.8c-1,0.8-2.4,1-3.8,1s-2.6-0.2-3.6-0.8v-2.2H539.1z"/>
	<path d="M567.7,47.7c-1,0.6-2.2,1-3.8,1c-2,0-3.4-0.6-4.6-1.8c-1.2-1.2-1.8-2.8-1.8-4.8c0-2.2,0.6-4,2-5.4c1.2-1.4,3-2,5-2
		c1.2,0,2.2,0.2,3.2,0.6v2.4c-1-0.6-2-1-3.2-1c-1.4,0-2.4,0.4-3.4,1.4c-0.8,1-1.2,2.2-1.2,3.8s0.4,2.8,1.2,3.6s1.8,1.4,3.2,1.4
		c1.2,0,2.2-0.4,3.2-1.2v2C567.5,47.7,567.7,47.7,567.7,47.7z"/>
	<path d="M571,36c1.4-0.8,2.8-1.2,4.6-1.2c3.2,0,4.8,1.6,4.8,5v8.5h-2.2v-2l0,0c-1,1.6-2.2,2.4-4.2,2.4c-1.2,0-2.4-0.4-3-1
		c-0.8-0.8-1.2-1.6-1.2-2.8c0-2.4,1.4-4,4.4-4.4l4-0.6c0-2.2-1-3.2-2.8-3.2c-1.6,0-3,0.6-4.4,1.6V36z M575,42.1
		c-1,0.2-1.8,0.4-2.2,0.8s-0.6,1-0.6,1.6s0.2,1.2,0.6,1.6c0.4,0.4,1,0.6,1.8,0.6c1,0,1.8-0.4,2.6-1c0.6-0.8,1-1.6,1-2.8v-1.4
		L575,42.1z"/>
	<path d="M590.7,48.1c-0.6,0.2-1.2,0.4-2,0.4c-2.4,0-3.6-1.4-3.6-4v-7.5h-2.2v-2h2.2v-3.2l2.4-0.8v4h3.4v2h-3.4v7.3
		c0,0.8,0.2,1.6,0.4,1.8c0.2,0.4,0.8,0.6,1.4,0.6s1-0.2,1.4-0.4L590.7,48.1L590.7,48.1z"/>
	<path d="M604.2,42.3h-9.3c0,1.4,0.4,2.6,1.2,3.4s1.8,1.2,3.2,1.2c1.6,0,2.8-0.4,4.2-1.4v2.2c-1.2,0.8-2.8,1.2-4.6,1.2
		c-2,0-3.4-0.6-4.6-1.8c-1-1.2-1.6-3-1.6-5.2c0-2,0.6-3.8,1.8-5c1.2-1.4,2.6-2,4.4-2c1.8,0,3.2,0.6,4,1.6s1.4,2.6,1.4,4.8
		L604.2,42.3L604.2,42.3z M601.8,40.3c0-1.2-0.2-2.2-0.8-2.8c-0.6-0.6-1.4-1-2.4-1c-1,0-1.8,0.4-2.4,1c-0.6,0.8-1.2,1.6-1.2,2.8
		H601.8z"/>
	<path d="M618.9,47.1c0,5-2.4,7.3-7.1,7.3c-1.6,0-3.2-0.4-4.4-1v-2.2c1.4,0.8,3,1.2,4.2,1.2c3.2,0,4.8-1.8,4.8-5.2v-1.2l0,0
		c-1,1.6-2.6,2.6-4.6,2.6c-1.6,0-3-0.6-4-1.8c-1-1.2-1.6-2.8-1.6-4.8c0-2.2,0.6-4,1.6-5.4c1.2-1.4,2.6-2,4.4-2c1.8,0,3.2,0.8,4,2.2
		l0,0v-2h2.4v12.1H618.9z M616.5,40.3c0-1-0.4-2-1-2.6c-0.8-0.8-1.6-1.2-2.6-1.2c-1.2,0-2.2,0.4-3,1.4c-0.8,1-1,2.2-1,3.8
		c0,1.4,0.4,2.6,1,3.4s1.6,1.4,2.8,1.4s2-0.4,2.8-1.2c0.8-0.8,1-2,1-3.2V40.3z"/>
	<path d="M622,41.7c0-2.2,0.6-4,1.8-5.2s3-2,5-2s3.6,0.6,4.8,1.8c1.2,1.2,1.8,3,1.8,5c0,2.2-0.6,3.8-1.8,5.2c-1.2,1.2-2.8,2-4.8,2
		s-3.6-0.6-4.8-1.8C622.6,45.5,622,43.9,622,41.7z M624.4,41.7c0,1.6,0.4,2.8,1.2,3.6c0.8,0.8,1.8,1.4,3.2,1.4c1.4,0,2.4-0.4,3-1.2
		c0.8-0.8,1-2.2,1-3.8c0-1.6-0.4-2.8-1-3.8c-0.8-0.8-1.8-1.4-3-1.4c-1.4,0-2.4,0.4-3.2,1.4C624.8,38.9,624.4,40.1,624.4,41.7z"/>
	<path d="M645.6,37.3c-0.4-0.2-1-0.4-1.6-0.4c-1,0-1.6,0.4-2.2,1.2c-0.6,0.8-0.8,2-0.8,3.4v6.7h-2.4V35h2.4v2.8l0,0
		c0.6-2,1.8-3,3.6-3c0.6,0,1,0,1.2,0.2v2.4H645.6z"/>
	<path d="M652.4,28.2l-3.4,4.2h-1.8l3-4.2C650.2,28.2,652.4,28.2,652.4,28.2z M648,48.3V35h2.4v13.3H648z"/>
	<path d="M654.8,36c1.4-0.8,2.8-1.2,4.6-1.2c3.2,0,4.8,1.6,4.8,5v8.5h-2.4v-2l0,0c-1,1.6-2.2,2.4-4.2,2.4c-1.2,0-2.4-0.4-3-1
		c-0.8-0.8-1.2-1.6-1.2-2.8c0-2.4,1.4-4,4.4-4.4l4-0.6c0-2.2-1-3.2-2.8-3.2c-1.6,0-3,0.6-4.4,1.6V36H654.8z M658.7,42.1
		c-1,0.2-1.8,0.4-2.2,0.8c-0.4,0.4-0.6,1-0.6,1.6s0.2,1.2,0.6,1.6s1,0.6,1.8,0.6c1,0,1.8-0.4,2.6-1c0.6-0.8,1-1.6,1-2.8v-1.4
		L658.7,42.1z"/>
	<path d="M667.5,45.5c1.2,0.8,2.4,1.2,3.8,1.2c1.8,0,2.8-0.6,2.8-1.8c0-0.6-0.2-1-0.6-1.2c-0.4-0.4-1.2-0.8-2.4-1.2
		c-1.4-0.6-2.4-1.2-2.8-1.8c-0.4-0.6-0.6-1.2-0.6-2.2c0-1.2,0.6-2.2,1.6-2.8c1-0.8,2.2-1,3.8-1c1.2,0,2.2,0.2,3.2,0.6v2.2
		c-1-0.6-2.2-1-3.4-1c-0.8,0-1.4,0.2-1.8,0.4c-0.4,0.4-0.8,0.8-0.8,1.4s0.2,1,0.6,1.2c0.4,0.2,1.2,0.6,2.2,1.2
		c1.4,0.6,2.4,1.2,3,1.8c0.6,0.6,0.8,1.4,0.8,2.2c0,1.2-0.6,2.2-1.6,2.8c-1,0.8-2.4,1-3.8,1s-2.6-0.2-3.6-0.8v-2.2H667.5z"/>
</g>
<g>
	<path d="M204.4,426.9c0,2-0.6,3.8-2,5c-1.4,1.2-3.2,2-5.6,2c-2,0-3.4-0.2-4.4-0.8v-2.8c1.4,1,2.8,1.4,4.4,1.4
		c1.4,0,2.6-0.4,3.6-1.2c1-0.8,1.4-1.8,1.4-3.2s-0.4-2.4-1.4-3.2c-1-0.8-2.2-1.2-4-1.2c-1.4,0-2.6,0-3.6,0.2l0.8-10.7h9.7v2.4h-7.5
		l-0.4,6h2c2.2,0,4,0.6,5.2,1.6S204.4,424.9,204.4,426.9z"/>
	<path d="M217.3,419.6c1.6-1,3.2-1.4,5.2-1.4c3.6,0,5.4,2,5.4,5.8v9.7h-2.6v-2.4l0,0c-1,1.8-2.6,2.6-4.6,2.6c-1.4,0-2.6-0.4-3.6-1.2
		c-1-0.8-1.2-1.8-1.2-3.2c0-2.8,1.6-4.4,5-5l4.4-0.6c0-2.4-1-3.8-3-3.8c-1.8,0-3.4,0.6-5,1.8L217.3,419.6L217.3,419.6z M221.9,426.3
		c-1.2,0.2-2,0.4-2.6,1s-0.8,1-0.8,2c0,0.8,0.2,1.4,0.8,1.8s1.2,0.6,2,0.6c1.2,0,2.2-0.4,2.8-1.2s1.2-1.8,1.2-3v-1.4L221.9,426.3z"
		/>
	<path d="M245.1,433.5h-2.6v-8.5c0-3.2-1.2-4.6-3.4-4.6c-1.2,0-2.2,0.4-2.8,1.4s-1.2,2-1.2,3.4v8.5h-2.6v-15.1h2.6v2.6l0,0
		c1.2-2,2.8-2.8,5-2.8c1.6,0,3,0.6,3.8,1.6c0.8,1,1.2,2.6,1.2,4.6V433.5z M243.5,412c0,1-0.2,2-0.8,2.6c-0.4,0.6-1.2,1-2,1
		c-0.8,0-1.6-0.2-2.4-0.8c-0.8-0.4-1.4-0.6-1.8-0.6c-0.8,0-1.2,0.6-1.2,1.6H234c0-1.2,0.2-2,0.8-2.6c0.6-0.6,1.2-1,2-1
		c0.6,0,1.4,0.2,2.2,0.8c0.8,0.4,1.4,0.6,1.8,0.6c0.8,0,1.2-0.6,1.2-1.8L243.5,412L243.5,412z"/>
	<path d="M248.4,426.1c0-2.4,0.6-4.4,2-6c1.4-1.4,3.2-2.2,5.6-2.2c2.2,0,4,0.6,5.4,2c1.2,1.4,2,3.4,2,5.8c0,2.4-0.6,4.4-2,5.8
		c-1.4,1.4-3.2,2.2-5.6,2.2c-2.2,0-4-0.8-5.4-2.2C249,430.1,248.4,428.5,248.4,426.1z M251.2,426.1c0,1.8,0.4,3.2,1.4,4.2
		c1,1,2,1.6,3.6,1.6c1.6,0,2.6-0.4,3.6-1.4c0.8-1,1.2-2.4,1.2-4.2s-0.4-3.2-1.2-4.2c-0.8-1-2-1.4-3.6-1.4c-1.6,0-2.6,0.6-3.6,1.6
		C251.6,423.3,251.2,424.3,251.2,426.1z"/>
	<path d="M266.3,430.3c1.4,1,2.8,1.4,4.4,1.4c2,0,3.2-0.6,3.2-2c0-0.6-0.2-1-0.6-1.4s-1.4-0.8-2.8-1.4c-1.6-0.6-2.8-1.4-3.2-2
		c-0.6-0.6-0.8-1.4-0.8-2.4c0-1.4,0.6-2.4,1.8-3.2c1.2-0.8,2.6-1.2,4.2-1.2c1.2,0,2.4,0.2,3.6,0.6v2.6c-1.2-0.8-2.4-1-3.8-1
		c-0.8,0-1.6,0.2-2,0.6s-0.8,0.8-0.8,1.4s0.2,1,0.6,1.4c0.4,0.4,1.2,0.8,2.6,1.2c1.6,0.6,2.8,1.2,3.4,2s0.8,1.6,0.8,2.6
		c0,1.4-0.6,2.4-1.8,3.2c-1.2,0.8-2.6,1.2-4.4,1.2c-1.6,0-3-0.2-4.2-0.8L266.3,430.3L266.3,430.3z"/>
</g>
<g>
	<path d="M502.2,433.5v-18.1c-0.4,0.4-1.2,0.8-2.2,1.4c-1,0.6-2,0.8-2.8,1v-2.6c1.2-0.4,2.4-0.8,3.6-1.4c1.2-0.6,2.2-1.4,3-2h1v21.6
		H502.2z"/>
	<path d="M511.9,423.3c0-3.8,0.6-6.5,1.8-8.3c1.2-2,3-2.8,5.4-2.8c4.4,0,6.7,3.6,6.7,10.7c0,3.6-0.6,6.3-1.8,8.1
		c-1.2,1.8-3,2.8-5.4,2.8c-2.2,0-3.8-0.8-5-2.6S511.9,426.7,511.9,423.3z M514.7,423.3c0,5.6,1.4,8.3,4.2,8.3s4.2-2.8,4.2-8.5
		c0-6-1.4-8.7-4.2-8.7C516.1,414.2,514.7,417.2,514.7,423.3z"/>
	<path d="M537.9,419.6c1.6-1,3.2-1.4,5.2-1.4c3.6,0,5.4,2,5.4,5.8v9.7h-2.6v-2.4l0,0c-1,1.8-2.6,2.6-4.6,2.6c-1.4,0-2.6-0.4-3.6-1.2
		s-1.2-1.8-1.2-3.2c0-2.8,1.6-4.4,5-5l4.4-0.6c0-2.4-1-3.8-3-3.8c-1.8,0-3.4,0.6-5,1.8L537.9,419.6L537.9,419.6z M542.4,426.3
		c-1.2,0.2-2,0.4-2.6,1c-0.6,0.6-0.8,1-0.8,2c0,0.8,0.2,1.4,0.8,1.8c0.6,0.4,1.2,0.6,2,0.6c1.2,0,2.2-0.4,2.8-1.2s1.2-1.8,1.2-3
		v-1.4L542.4,426.3z"/>
	<path d="M565.7,433.5h-2.6v-8.5c0-3.2-1.2-4.6-3.4-4.6c-1.2,0-2.2,0.4-2.8,1.4c-0.6,1-1.2,2-1.2,3.4v8.5h-2.6v-15.1h2.6v2.6l0,0
		c1.2-2,2.8-2.8,5-2.8c1.6,0,3,0.6,3.8,1.6s1.2,2.6,1.2,4.6V433.5z M564.1,412c0,1-0.2,2-0.8,2.6c-0.4,0.6-1.2,1-2,1
		c-0.8,0-1.6-0.2-2.4-0.8c-0.8-0.4-1.4-0.6-1.8-0.6c-0.8,0-1.2,0.6-1.2,1.6h-1.4c0-1.2,0.2-2,0.8-2.6c0.6-0.6,1.2-1,2-1
		c0.6,0,1.4,0.2,2.2,0.8c0.8,0.4,1.4,0.6,1.8,0.6c0.8,0,1.2-0.6,1.2-1.8L564.1,412L564.1,412z"/>
	<path d="M569,426.1c0-2.4,0.6-4.4,2-6c1.4-1.4,3.2-2.2,5.6-2.2c2.2,0,4,0.6,5.4,2c1.2,1.4,2,3.4,2,5.8s-0.6,4.4-2,5.8
		c-1.4,1.4-3.2,2.2-5.6,2.2c-2.2,0-4-0.8-5.4-2.2C569.6,430.1,569,428.5,569,426.1z M571.8,426.1c0,1.8,0.4,3.2,1.4,4.2
		c1,1,2,1.6,3.6,1.6s2.6-0.4,3.6-1.4c0.8-1,1.2-2.4,1.2-4.2c0-1.8-0.4-3.2-1.2-4.2c-0.8-1-2-1.4-3.6-1.4s-2.6,0.6-3.6,1.6
		C572.2,423.3,571.8,424.3,571.8,426.1z"/>
	<path d="M586.9,430.3c1.4,1,2.8,1.4,4.4,1.4c2,0,3.2-0.6,3.2-2c0-0.6-0.2-1-0.6-1.4c-0.4-0.4-1.4-0.8-2.8-1.4
		c-1.6-0.6-2.8-1.4-3.2-2c-0.6-0.6-0.8-1.4-0.8-2.4c0-1.4,0.6-2.4,1.8-3.2c1.2-0.8,2.6-1.2,4.2-1.2c1.2,0,2.4,0.2,3.6,0.6v2.6
		c-1.2-0.8-2.4-1-3.8-1c-0.8,0-1.6,0.2-2,0.6s-0.8,0.8-0.8,1.4c0,0.6,0.2,1,0.6,1.4s1.2,0.8,2.6,1.2c1.6,0.6,2.8,1.2,3.4,2
		c0.6,0.6,0.8,1.6,0.8,2.6c0,1.4-0.6,2.4-1.8,3.2c-1.2,0.8-2.6,1.2-4.4,1.2c-1.6,0-3-0.2-4.2-0.8v-2.8L586.9,430.3L586.9,430.3z"/>
</g>
<g>
	<path d="M205.8,835.3c0-1.2-0.4-2-1-2.6c-0.8-0.6-1.6-1-3-1c-0.8,0-1.8,0.2-2.6,0.6c-0.8,0.4-1.8,1-2.6,2v-2.6
		c0.6-0.8,1.4-1.2,2.4-1.6c0.8-0.4,2-0.6,3-0.6c2,0,3.4,0.6,4.6,1.6c1.2,1,1.8,2.4,1.8,4.2c0,1.6-0.4,3-1,4c-0.8,1.2-2,2.4-3.6,3.6
		c-1.8,1.2-3,2-3.6,2.6s-1,1-1.2,1.6c-0.2,0.4-0.4,1-0.4,1.8h10.5v2.4h-13.3v-1c0-1.2,0.2-2.2,0.6-3.2c0.4-0.8,0.8-1.6,1.6-2.4
		c0.8-0.8,2-1.8,3.6-3c1.6-1.2,2.8-2.2,3.4-3C205.4,837.3,205.8,836.3,205.8,835.3z"/>
	<path d="M211.8,840.6c0-3.8,0.6-6.5,1.8-8.3c1.2-2,3-2.8,5.4-2.8c4.4,0,6.7,3.6,6.7,10.7c0,3.6-0.6,6.3-1.8,8.1
		c-1.2,1.8-3,2.8-5.4,2.8c-2.2,0-3.8-0.8-5-2.6C212.4,846.6,211.8,844,211.8,840.6z M214.6,840.6c0,5.6,1.4,8.3,4.2,8.3
		c2.8,0,4.2-2.8,4.2-8.5c0-6-1.4-8.7-4.2-8.7C215.9,831.5,214.6,834.5,214.6,840.6z"/>
	<path d="M237.8,836.9c1.6-1,3.2-1.4,5.2-1.4c3.6,0,5.4,2,5.4,5.8v9.7h-2.6v-2.4l0,0c-1,1.8-2.6,2.6-4.6,2.6c-1.4,0-2.6-0.4-3.6-1.2
		c-0.8-0.8-1.2-1.8-1.2-3.2c0-2.8,1.6-4.4,5-5l4.4-0.6c0-2.4-1-3.8-3-3.8c-1.8,0-3.4,0.6-5,1.8L237.8,836.9L237.8,836.9z
		 M242.1,843.6c-1.2,0.2-2,0.4-2.6,1c-0.4,0.4-0.8,1-0.8,2c0,0.8,0.2,1.4,0.8,1.8c0.6,0.4,1.2,0.6,2,0.6c1.2,0,2.2-0.4,2.8-1.2
		c0.8-0.8,1.2-1.8,1.2-3v-1.4L242.1,843.6z"/>
	<path d="M265.5,850.8H263v-8.5c0-3.2-1.2-4.6-3.4-4.6c-1.2,0-2.2,0.4-2.8,1.4c-0.8,0.8-1.2,2-1.2,3.4v8.5H253v-15.1h2.6v2.6l0,0
		c1.2-2,2.8-2.8,5-2.8c1.6,0,3,0.6,3.8,1.6c0.8,1,1.2,2.6,1.2,4.6V850.8z M263.8,829.3c0,1-0.2,2-0.8,2.6c-0.4,0.6-1.2,1-2,1
		c-0.8,0-1.6-0.2-2.4-0.8c-0.8-0.4-1.4-0.6-1.8-0.6c-0.8,0-1.2,0.6-1.2,1.6h-1.4c0-1.2,0.2-2,0.8-2.6c0.4-0.6,1.2-1,2-1
		c0.6,0,1.4,0.2,2.2,0.8c0.8,0.4,1.4,0.6,1.8,0.6c0.8,0,1.2-0.6,1.2-1.8L263.8,829.3L263.8,829.3z"/>
	<path d="M268.9,843.4c0-2.4,0.6-4.4,2-6c1.4-1.4,3.2-2.2,5.6-2.2c2.2,0,4,0.6,5.4,2c1.2,1.4,2,3.4,2,5.8c0,2.4-0.6,4.4-2,5.8
		c-1.4,1.4-3.2,2.2-5.6,2.2c-2.2,0-4-0.8-5.4-2.2C269.5,847.6,268.9,845.8,268.9,843.4z M271.7,843.4c0,1.8,0.4,3.2,1.4,4.2
		c0.8,1,2,1.6,3.6,1.6s2.6-0.4,3.6-1.4c0.8-1,1.2-2.4,1.2-4.2s-0.4-3.2-1.2-4.2c-0.8-1-2-1.4-3.6-1.4s-2.6,0.6-3.6,1.6
		C272.1,840.3,271.7,841.6,271.7,843.4z"/>
	<path d="M286.8,847.6c1.4,1,2.8,1.4,4.4,1.4c2,0,3.2-0.6,3.2-2c0-0.6-0.2-1-0.6-1.4c-0.4-0.4-1.4-0.8-2.8-1.4
		c-1.6-0.6-2.8-1.4-3.2-2c-0.6-0.6-0.8-1.4-0.8-2.4c0-1.4,0.6-2.4,1.8-3.2c1.2-0.8,2.6-1.2,4.2-1.2c1.2,0,2.4,0.2,3.6,0.6v2.6
		c-1.2-0.8-2.4-1-3.8-1c-0.8,0-1.6,0.2-2,0.6c-0.6,0.4-0.8,0.8-0.8,1.4s0.2,1,0.6,1.4c0.4,0.4,1.2,0.8,2.6,1.2
		c1.6,0.6,2.8,1.2,3.4,2c0.6,0.6,0.8,1.6,0.8,2.6c0,1.4-0.6,2.4-1.8,3.2c-1.2,0.8-2.6,1.2-4.4,1.2c-1.6,0-3-0.2-4.2-0.8L286.8,847.6
		L286.8,847.6z"/>
</g>
<g>
	<path d="M527.7,656.9v-13.7h4.1c1.3,0,2,0.3,3,1c0.5,0.5,1.3,1.3,1.3,2.5c0,1-0.3,1.5-0.5,2c-0.3,0.5-1,1-1.8,1.3l0,0
		c1,0,1.8,0.5,2,1.3s1,1.5,1,2.5c0,1.3-0.3,2-1.3,2.8s-1.8,1.3-3.3,1.3H528v-1H527.7z M529.5,644.4v4.3h1.5c1,0,1.5-0.3,2-0.5
		c0.5-0.3,0.5-1,0.5-1.8c0-1.3-1-1.8-2.8-1.8L529.5,644.4L529.5,644.4z M529.5,650.5v4.8h2c1,0,1.5-0.3,2-0.5c0.5-0.3,1-1,1-1.8
		c0-1.5-1.3-2.5-3.3-2.5H529.5z"/>
	<path d="M538.7,643.4c0-0.3,0-0.5,0.3-1c0.3-0.3,0.5-0.3,1-0.3c0.5,0,0.5,0,1,0.3c0.3,0.3,0.3,0.5,0.3,1c0,0.3,0,0.5-0.3,1
		c-0.3,0.3-0.5,0.3-1,0.3c-0.5,0-0.5,0-1-0.3C538.7,644.2,538.7,643.7,538.7,643.4z M538.9,656.9v-9.7h1.8v9.9h-1.8V656.9z"/>
	<path d="M551.9,652.3h-7.1c0,1,0.3,1.8,1,2.5s1.3,1,2.5,1c1.3,0,2-0.3,3-1v1.5c-1,0.5-2,1-3.3,1c-1.5,0-2.5-0.3-3.3-1.3
		c-1-1-1.3-2-1.3-3.6s0.3-2.8,1.3-3.6c1-1,1.8-1.5,3.3-1.5c1.3,0,2.5,0.3,3,1.3c0.5,1,1.3,2,1.3,3.3v0.5h-0.5V652.3z M550.1,650.8
		c0-1-0.3-1.5-0.5-2c-0.3-0.5-1-0.5-1.8-0.5c-0.5,0-1.3,0.3-1.8,1c-0.5,0.8-1,1.3-1,2h5.3v-0.5H550.1z"/>
	<path d="M562.5,656.9h-1.8V651c0-2-0.5-3-2-3c-1,0-1.5,0.3-1.8,1c-0.3,0.8-0.5,1.3-0.5,2v5.6h-1.8v-9.9h1.8v1.5l0,0
		c0.5-1.3,1.8-1.8,3.3-1.8c1.3,0,1.8,0.3,2.5,1c0.8,0.8,1,1.8,1,3v6.4H562.5z"/>
	<path d="M573.7,652.3h-7.1c0,1,0.3,1.8,1,2.5s1.3,1,2.5,1c1.3,0,2-0.3,3-1v1.5c-1,0.5-2,1-3.3,1c-1.5,0-2.5-0.3-3.3-1.3
		c-1-1-1.3-2-1.3-3.6s0.3-2.8,1.3-3.6c1-1,1.8-1.5,3.3-1.5c1.3,0,2.5,0.3,3,1.3c0.5,1,1.3,2,1.3,3.3v0.5h-0.5V652.3z M571.9,650.8
		c0-1-0.3-1.5-0.5-2c-0.3-0.5-1-0.5-1.8-0.5c-0.5,0-1.3,0.3-1.8,1c-0.5,0.8-1,1.3-1,2h5.3v-0.5H571.9z"/>
	<path d="M575.5,654.8c1,0.5,1.8,1,2.8,1c1.3,0,2-0.3,2-1.3c0-0.3,0-0.5-0.3-1c-0.3-0.5-1-0.5-1.8-1c-1.3-0.3-1.8-1-2-1.3
		s-0.5-1-0.5-1.5c0-1,0.3-1.5,1.3-2c1-0.5,1.5-1,2.8-1c1,0,1.5,0,2.5,0.3v1.8c-0.5-0.5-1.5-0.5-2.5-0.5c-0.5,0-1,0-1.3,0.3
		s-0.5,0.5-0.5,1c0,0.3,0,0.5,0.3,1c0.3,0.3,1,0.5,1.8,1c1.3,0.3,1.8,1,2,1.3c0.3,0.3,0.5,1,0.5,1.5c0,1-0.3,1.5-1.3,2
		c-0.5,0.5-1.8,1-2.8,1c-1,0-1.8-0.3-2.8-0.5v-2H575.5z"/>
	<path d="M590,643.4c0-0.3,0-0.5,0.3-1c0.3-0.3,0.5-0.3,1-0.3c0.5,0,0.5,0,1,0.3c0.3,0.3,0.3,0.5,0.3,1c0,0.3,0,0.5-0.3,1
		c-0.3,0.3-0.5,0.3-1,0.3c-0.5,0-0.5,0-1-0.3C590,644.2,590,643.7,590,643.4z M590,656.9v-9.7h1.8v9.9H590V656.9z"/>
	<path d="M603.4,656.9h-1.8V651c0-2-0.5-3-2-3c-1,0-1.5,0.3-1.8,1c-0.3,0.8-0.5,1.3-0.5,2v5.6h-1.8v-9.9h1.8v1.5l0,0
		c0.5-1.3,1.8-1.8,3.3-1.8c1.3,0,1.8,0.3,2.5,1c0.8,0.8,1,1.8,1,3v6.4H603.4z"/>
	<path d="M620.5,656.9h-1.8V651c0-1.3-0.3-1.8-0.5-2.5c-0.3-0.5-1-0.5-1.5-0.5s-1.3,0.3-1.5,1c-0.3,0.8-0.5,1.3-0.5,2v5.6h-1.8v-5.8
		c0-1.8-0.5-2.8-2-2.8c-0.5,0-1.3,0.3-1.5,1c-0.3,0.8-0.5,1.3-0.5,2v5.6H607v-9.9h1.8v1.5l0,0c0.5-1.3,1.8-1.8,3-1.8
		c0.5,0,1.3,0.3,1.8,0.5c0.5,0.3,1,1,1,1.5c0.5-1.3,1.8-2,3.3-2c2,0,3.3,1.3,3.3,4.1v6.4H620.5z"/>
	<path d="M631.6,656.9h-1.5v-1.5l0,0c-0.5,1.3-1.8,1.8-3,1.8c-2.5,0-3.6-1.5-3.6-4.3v-5.6h1.8v5.8c0,2,1,3,2.5,3c1,0,1.5-0.3,1.8-1
		c0.5-0.5,0.5-1.3,0.5-2v-5.8h1.8v9.9h-0.3V656.9z"/>
	<path d="M642.8,652.3h-7.1c0,1,0.3,1.8,1,2.5c0.5,0.5,1.3,1,2.5,1c1.3,0,2-0.3,3-1v1.5c-1,0.5-2,1-3.3,1c-1.5,0-2.5-0.3-3.3-1.3
		c-1-1-1.3-2-1.3-3.6s0.3-2.8,1.3-3.6c1-1,1.8-1.5,3.3-1.5c1.3,0,2.5,0.3,3,1.3c0.5,1,1.3,2,1.3,3.3v0.5h-0.5V652.3z M641,650.8
		c0-1-0.3-1.5-0.5-2c-0.3-0.5-1-0.5-1.8-0.5c-0.5,0-1.3,0.3-1.8,1c-0.5,0.5-1,1.3-1,2h5.3v-0.5H641z"/>
	<path d="M646.9,655.3v1.5h-1.5v-14.7h1.8v6.4l0,0c1-1.3,1.8-1.8,3.3-1.8c1.3,0,2,0.3,3,1.3c1,1,1.3,2,1.3,3.6s-0.3,3-1.3,4.1
		s-1.8,1.5-3.3,1.5C648.7,656.9,647.9,656.6,646.9,655.3L646.9,655.3z M646.9,652.5c0,1,0.3,1.5,1,2c0.8,0.5,1.3,1,1.8,1
		c1,0,1.5-0.3,2-1.3c0.5-1,1-1.8,1-3c0-1-0.3-1.8-0.5-2.5c-0.3-0.5-1.3-1-2-1c-1,0-1.5,0.3-2,1c-0.5,0.8-1,1.5-1,2.5L646.9,652.5
		L646.9,652.5z"/>
	<path d="M657,656.9v-14.7h1.8v14.7H657z"/>
	<path d="M670,652.3h-7.1c0,1,0.3,1.8,1,2.5s1.3,1,2.5,1c1.3,0,2-0.3,3-1v1.5c-1,0.5-2,1-3.3,1c-1.5,0-2.5-0.3-3.3-1.3
		c-1-1-1.3-2-1.3-3.6s0.3-2.8,1.3-3.6c1-1,1.8-1.5,3.3-1.5c1.3,0,2.5,0.3,3,1.3c0.5,1,1.3,2,1.3,3.3v0.5H670V652.3z M668.5,650.8
		c0-1-0.3-1.5-0.5-2c-0.3-0.5-1-0.5-1.8-0.5c-0.5,0-1.3,0.3-1.8,1c-0.5,0.8-1,1.3-1,2h5.3v-0.5H668.5z"/>
	<path d="M671.8,654.8c1,0.5,1.8,1,2.8,1c1.3,0,2-0.3,2-1.3c0-0.3,0-0.5-0.3-1c-0.3-0.5-1-0.5-1.8-1c-1.3-0.3-1.8-1-2-1.3
		s-0.5-1-0.5-1.5c0-1,0.3-1.5,1.3-2c1-0.5,1.5-1,2.8-1c1,0,1.5,0,2.5,0.3v1.8c-0.5-0.5-1.5-0.5-2.5-0.5c-0.5,0-1,0-1.3,0.3
		s-0.5,0.5-0.5,1c0,0.3,0,0.5,0.3,1c0.3,0.3,1,0.5,1.8,1c1.3,0.3,1.8,1,2,1.3c0.3,0.3,0.5,1,0.5,1.5c0,1-0.3,1.5-1.3,2
		c-0.5,0.5-1.8,1-2.8,1c-1,0-1.8-0.3-2.8-0.5v-2H671.8z"/>
</g>
<g>
	<path d="M538.7,719.5h-1.8l-1.5-3.6h-5.8l-1.3,3.6h-1.8l5.3-13.7h1.8L538.7,719.5z M534.8,713.9l-2-5.8c0-0.3,0-0.5-0.3-1l0,0
		c0,0.3,0,0.5-0.3,1l-2,5.8H534.8z"/>
	<path d="M547.3,718.7c-0.5,0.3-1.5,0.5-2.8,0.5c-1.5,0-2.5-0.5-3.3-1.5c-1-1-1.3-2-1.3-3.6c0-1.5,0.5-3,1.5-4.1c1-1,2-1.5,3.6-1.5
		c1,0,1.8,0.3,2.5,0.5v1.8c-0.5-0.5-1.5-1-2.5-1c-1,0-1.8,0.3-2.5,1c-0.5,0.5-1,1.5-1,2.8c0,1.3,0.3,2,1,2.8s1.5,1,2.5,1
		c1,0,1.5-0.3,2.5-1v2h-0.3V718.7z"/>
	<path d="M556.4,718.7c-0.5,0.3-1.5,0.5-2.8,0.5c-1.5,0-2.5-0.5-3.3-1.5c-1-1-1.3-2-1.3-3.6c0-1.5,0.5-3,1.5-4.1c1-1,2-1.5,3.6-1.5
		c1,0,1.8,0.3,2.5,0.5v1.8c-0.5-0.5-1.5-1-2.5-1s-1.8,0.3-2.5,1c-0.5,0.5-1,1.5-1,2.8c0,1.3,0.3,2,1,2.8c0.5,0.5,1.5,1,2.5,1
		s1.5-0.3,2.5-1v2h-0.3V718.7z"/>
	<path d="M558.7,706c0-0.3,0-0.5,0.3-1c0.3-0.3,0.5-0.3,1-0.3c0.5,0,0.5,0,1,0.3c0.3,0.3,0.3,0.5,0.3,1c0,0.3,0,0.5-0.3,1
		c-0.3,0.3-0.5,0.3-1,0.3c-0.5,0-0.5,0-1-0.3C558.7,706.5,558.7,706.3,558.7,706z M559,719.5v-9.9h1.8v9.9H559z"/>
	<path d="M563,714.6c0-1.5,0.3-3,1.3-4.1c1-1,2-1.5,3.6-1.5c1.5,0,2.8,0.3,3.3,1.3s1.3,2,1.3,3.6s-0.3,2.8-1.3,3.6
		c-1,1-2,1.5-3.6,1.5c-1.5,0-2.8-0.5-3.6-1.5C563,716.7,563,716.2,563,714.6z M564.8,714.6c0,1.3,0.3,2,1,2.8c0.5,0.5,1.3,1,2.5,1
		c1,0,1.8-0.3,2.5-1c0.5-0.5,1-1.5,1-2.8s-0.3-2-1-2.8c-0.5-0.5-1.3-1-2.5-1c-1,0-1.8,0.3-2.5,1
		C565.1,712.4,564.8,713.4,564.8,714.6z"/>
	<path d="M583.9,719.5h-2v-5.8c0-2-0.5-3-2-3c-1,0-1.5,0.3-1.8,1c-0.3,0.8-0.5,1.3-0.5,2v5.6h-1.8v-9.9h1.8v1.5l0,0
		c0.5-1.3,1.8-1.8,3.3-1.8c1.3,0,1.8,0.3,2.5,1c0.8,0.8,1,1.8,1,3v6.4H583.9z"/>
	<path d="M594.8,714.9h-7.1c0,1,0.3,1.8,1,2.5s1.3,1,2.5,1c1.3,0,2-0.3,3-1v1.5c-1,0.5-2,1-3.3,1c-1.5,0-2.5-0.3-3.3-1.3
		c-1-1-1.3-2-1.3-3.6s0.3-2.8,1.3-3.6c1-1,1.8-1.5,3.3-1.5c1.3,0,2.5,0.3,3,1.3c0.5,1,1.3,2,1.3,3.3v0.5h-0.5V714.9z M593,713.4
		c0-1-0.3-1.5-0.5-2c-0.3-0.5-1-0.5-1.8-0.5c-0.5,0-1.3,0.3-1.8,1s-1,1.3-1,2h5.3v-0.5H593z"/>
	<path d="M596.6,717.2c1,0.5,1.8,1,2.8,1c1.3,0,2-0.3,2-1.3c0-0.3,0-0.5-0.3-1c-0.3-0.3-1-0.5-1.8-1c-1.3-0.3-1.8-1-2-1.3
		s-0.5-1-0.5-1.5c0-1,0.3-1.5,1.3-2c1-0.5,1.5-1,2.8-1c1,0,1.5,0,2.5,0.3v1.8c-0.5-0.5-1.5-0.5-2.5-0.5c-0.5,0-1,0-1.3,0.3
		s-0.5,0.5-0.5,1c0,0.3,0,0.5,0.3,1c0.3,0.3,1,0.5,1.8,1c1.3,0.3,1.8,1,2,1.3c0.3,0.3,0.5,1,0.5,1.5c0,1-0.3,1.5-1.3,2
		c-0.5,0.5-1.8,1-2.8,1s-1.8-0.3-2.8-0.5v-2H596.6z"/>
</g>
<g>
	<path d="M527.7,778.7V765h4.1c2,0,4.1,0.5,5.3,1.8c1.3,1.3,2,2.8,2,4.8c0,2-0.5,4.1-2,5.3c-1.5,1.3-3,1.8-5.6,1.8H527.7
		L527.7,778.7z M529.5,766.5v10.7h2c1.8,0,3-0.5,4.1-1.5c1-1,1.5-2.5,1.5-4.1s-0.5-3-1.5-4.1c-1-1-2.5-1.3-4.1-1.3h-2V766.5z"/>
	<path d="M549.3,774.4h-7.1c0,1,0.3,1.8,1,2.5s1.3,1,2.5,1s2-0.3,3-1v1.5c-1,0.5-2,1-3.3,1c-1.5,0-2.5-0.3-3.3-1.3
		c-1-1-1.3-2-1.3-3.6s0.3-2.8,1.3-3.6c1-1,1.8-1.5,3.3-1.5c1.3,0,2.5,0.3,3,1.3c0.5,1,1.3,2,1.3,3.3v0.5h-0.5V774.4z M547.6,772.8
		c0-1-0.3-1.5-0.5-2c-0.3-0.5-1-0.5-1.8-0.5c-0.5,0-1.3,0.3-1.8,1c-0.5,0.5-1,1.3-1,2h5.3v-0.5H547.6z"/>
	<path d="M560.3,778.7h-1.8v-1.5l0,0c-0.5,1.3-1.5,1.8-3,1.8c-2.5,0-3.6-1.5-3.6-4.3v-5.8h1.8v5.8c0,2,1,3,2.5,3c1,0,1.5-0.3,1.8-1
		c0.5-0.5,0.5-1.3,0.5-2v-5.8h1.8V778.7L560.3,778.7z"/>
	<path d="M571.9,778.7h-1.8v-1.5l0,0c-0.5,1.3-1.8,1.8-3.3,1.8c-1.3,0-2-0.3-3-1.3s-1.3-2-1.3-3.6c0-1.5,0.3-3,1.3-4.1
		c1-1,1.8-1.5,3.3-1.5s2.5,0.5,3,1.5l0,0v-6.1h1.8V778.7z M569.9,772.8c0-1-0.3-1.5-1-2s-1.3-1-1.8-1c-1,0-1.5,0.3-2,1
		c-0.5,0.5-1,1.5-1,2.8s0.3,1.8,1,2.8c0.5,1,1.3,1,2,1c1,0,1.5-0.3,2-1c0.5-0.5,1-1.5,1-2.5v-1L569.9,772.8L569.9,772.8z"/>
	<path d="M575.2,769.5c1-0.5,2-1,3.3-1c2.5,0,3.6,1.3,3.6,3.6v6.4h-1.8v-1.5l0,0c-0.5,1.3-1.8,1.8-3,1.8c-1,0-1.8-0.3-2.5-1
		c-0.5-0.5-1-1.3-1-2c0-1.8,1.3-3,3.3-3.3l3-0.3c0-1.5-0.5-2.5-2-2.5c-1.3,0-2,0.3-3.3,1.3v-1.5h0.5V769.5z M578.3,774.1
		c-1,0-1.3,0.3-1.5,0.5c-0.3,0.3-0.5,0.5-0.5,1.3s0.3,1,0.5,1.3c0.3,0.3,1,0.3,1.3,0.3c1,0,1.5-0.3,1.8-1c0.3-0.8,0.5-1.3,0.5-2v-1
		L578.3,774.1z"/>
	<path d="M584.6,776.4c1,0.5,1.8,1,2.8,1c1.3,0,2-0.3,2-1.3c0-0.3,0-0.5-0.3-1c-0.3-0.3-1-0.5-1.8-1c-1.3-0.3-1.8-1-2-1.3
		c-0.3-0.3-0.5-1-0.5-1.5c0-1,0.3-1.5,1.3-2c0.5-0.5,1.5-1,2.8-1c1,0,1.5,0,2.5,0.3v1.8c-0.5-0.5-1.5-0.5-2.5-0.5
		c-0.5,0-1,0-1.3,0.3c-0.3,0.3-0.5,0.5-0.5,1s0,0.5,0.3,1c0.3,0.3,1,0.5,1.8,1c1.3,0.3,1.8,1,2,1.3c0.3,0.3,0.5,1,0.5,1.5
		c0,1-0.3,1.5-1.3,2c-0.5,0.5-1.8,1-2.8,1c-1,0-1.8-0.3-2.8-0.5v-1.8h-0.3V776.4z"/>
	<path d="M607.2,778.7h-1.8v-5.6c0-2-0.5-3-2-3c-1,0-1.5,0.3-1.8,1c-0.3,0.8-0.5,1.3-0.5,2v5.6h-1.8v-9.9h1.8v1.5l0,0
		c0.5-1.3,1.8-1.8,3.3-1.8c1.3,0,1.8,0.3,2.5,1c0.5,0.5,1,1.8,1,3v6.1H607.2z"/>
	<path d="M610.8,769.5c1-0.5,2-1,3.3-1c2.5,0,3.6,1.3,3.6,3.6v6.4h-1.8v-1.5l0,0c-0.5,1.3-1.8,1.8-3,1.8c-1,0-1.8-0.3-2.5-1
		c-0.5-0.5-1-1.3-1-2c0-1.8,1.3-3,3.3-3.3l3-0.3c0-1.5-0.5-2.5-2-2.5c-1.3,0-2,0.3-3.3,1.3v-1.5h0.5V769.5z M613.6,774.1
		c-1,0-1.3,0.3-1.5,0.5c-0.3,0.3-0.5,0.5-0.5,1.3s0.3,1,0.5,1.3c0.3,0.3,1,0.3,1.3,0.3c1,0,1.5-0.3,1.8-1c0.3-0.8,0.5-1.3,0.5-2v-1
		L613.6,774.1z"/>
	<path d="M627.3,778.4c-0.5,0.3-1.5,0.5-2.8,0.5c-1.5,0-2.5-0.5-3.3-1.5c-1-1-1.3-2-1.3-3.6s0.5-3,1.5-4.1c1-1,2-1.5,3.6-1.5
		c1,0,1.8,0.3,2.5,0.5v1.8c-0.5-0.5-1.5-1-2.5-1s-1.8,0.3-2.5,1c-0.5,0.5-1,1.5-1,2.8s0.3,2,1,2.8c0.5,0.5,1.5,1,2.5,1
		s1.5-0.3,2.5-1v2h-0.3V778.4z"/>
	<path d="M629.3,765.5c0-0.3,0-0.5,0.3-1s0.5-0.3,1-0.3s0.5,0,1,0.3c0.5,0.3,0.3,0.5,0.3,1c0,0.3,0,0.5-0.3,1
		c-0.3,0.3-0.5,0.3-1,0.3s-0.5,0-1-0.3C629.9,765.7,629.3,765.7,629.3,765.5z M629.9,778.7v-9.9h1.8v9.9H629.9z"/>
	<path d="M633.9,774.1c0-1.5,0.3-3,1.3-4.1c1-1,2-1.5,3.6-1.5c1.5,0,2.8,0.3,3.3,1.3s1.3,2,1.3,3.6c0,1.5-0.3,2.8-1.3,3.6
		c-1,1-2,1.5-3.6,1.5c-1.5,0-2.8-0.5-3.6-1.5C633.9,776.1,633.9,775.6,633.9,774.1z M636,773.9c0,1.3,0.3,2,1,2.8
		c0.5,0.5,1.3,1,2.5,1c1,0,1.8-0.3,2.5-1c0.5-0.5,1-1.5,1-2.8s-0.3-2-1-2.8c-0.5-0.5-1.3-1-2.5-1c-1,0-1.8,0.3-2.5,1
		C636.2,771.8,636,772.8,636,773.9z"/>
	<path d="M654.7,778.7H653v-5.6c0-2-0.5-3-2-3c-1,0-1.5,0.3-1.8,1c-0.3,0.8-0.5,1.3-0.5,2v5.6h-1.8v-9.9h1.8v1.5l0,0
		c0.5-1.3,1.8-1.8,3.3-1.8c1.3,0,1.8,0.3,2.5,1c0.5,0.5,1,1.8,1,3v6.1H654.7z"/>
	<path d="M658.1,769.5c1-0.5,2-1,3.3-1c2.5,0,3.6,1.3,3.6,3.6v6.4h-1.8v-1.5l0,0c-0.5,1.3-1.8,1.8-3,1.8c-1,0-1.8-0.3-2.5-1
		c-0.5-0.5-1-1.3-1-2c0-1.8,1.3-3,3.3-3.3l3-0.3c0-1.5-0.5-2.5-2-2.5c-1.3,0-2,0.3-3.3,1.3v-1.5h0.5V769.5z M661.1,774.1
		c-1,0-1.3,0.3-1.5,0.5c-0.3,0.3-0.5,0.5-0.5,1.3s0.3,1,0.5,1.3c0.3,0.3,1,0.3,1.3,0.3c1,0,1.5-0.3,1.8-1c0.3-0.8,0.5-1.3,0.5-2v-1
		L661.1,774.1z"/>
	<path d="M667.7,778.7v-14.7h1.8v14.7H667.7z"/>
	<path d="M680.9,774.4h-7.1c0,1,0.3,1.8,1,2.5c0.5,0.5,1.3,1,2.5,1s2-0.3,3-1v1.5c-1,0.5-2,1-3.3,1c-1.5,0-2.5-0.3-3.3-1.3
		c-0.8-1-1.3-2-1.3-3.6s0.3-2.8,1.3-3.6c1-1,1.8-1.5,3.3-1.5c1.3,0,2.5,0.3,3,1.3c0.5,1,1.3,2,1.3,3.3v0.5h-0.5V774.4z M679.1,772.8
		c0-1-0.3-1.5-0.5-2c-0.3-0.5-1-0.5-1.8-0.5c-0.5,0-1.3,0.3-1.8,1c-0.5,0.5-1,1.3-1,2h5.3v-0.5H679.1z"/>
	<path d="M682.7,776.4c1,0.5,1.8,1,2.8,1c1.3,0,2-0.3,2-1.3c0-0.3,0-0.5-0.3-1c-0.3-0.3-1-0.5-1.8-1c-1.3-0.3-1.8-1-2-1.3
		c-0.3-0.3-0.5-1-0.5-1.5c0-1,0.3-1.5,1.3-2c0.5-0.5,1.5-1,2.8-1c1,0,1.5,0,2.5,0.3v1.8c-0.5-0.5-1.5-0.5-2.5-0.5
		c-0.5,0-1,0-1.3,0.3c-0.3,0.3-0.5,0.5-0.5,1s0,0.5,0.3,1c0.3,0.3,1,0.5,1.8,1c1.3,0.3,1.8,1,2,1.3c0.3,0.3,0.5,1,0.5,1.5
		c0,1-0.3,1.5-1.3,2c-0.5,0.5-1.8,1-2.8,1c-1,0-1.8-0.3-2.8-0.5v-1.8h-0.3V776.4z"/>
	<path d="M535.9,800.8h-1.8v-1.5l0,0c-0.5,1.3-1.8,1.8-3.3,1.8c-1.3,0-2-0.3-3-1.3c-1-1-1.3-2-1.3-3.6c0-1.5,0.3-3,1.3-4.1
		c1-1,1.8-1.5,3.3-1.5s2.5,0.5,3,1.5l0,0V786h1.8V800.8z M534.3,794.9c0-1-0.3-1.5-1-2s-1.3-1-1.8-1c-1,0-1.5,0.3-2,1
		c-0.5,0.5-1,1.5-1,2.8s0.3,1.8,1,2.8c0.5,1,1.3,1,2,1c1,0,1.5-0.3,2-1c0.5-0.8,1-1.5,1-2.5v-1H534.3L534.3,794.9z"/>
	<path d="M547.3,796.5h-7.1c0,1,0.3,1.8,1,2.5s1.3,1,2.5,1c1.3,0,2-0.3,3-1v1.5c-1,0.5-2,1-3.3,1c-1.5,0-2.5-0.3-3.3-1.3
		c-1-1-1.3-2-1.3-3.6c0-1.5,0.3-2.8,1.3-3.6c1-1,1.8-1.5,3.3-1.5c1.3,0,2.5,0.3,3,1.3c0.5,1,1.3,2,1.3,3.3v0.5h-0.5V796.5z
		 M545.5,794.9c0-1-0.3-1.5-0.5-2c-0.3-0.5-1-0.5-1.8-0.5c-0.5,0-1.3,0.3-1.8,1c-0.5,0.5-1,1.3-1,2h5.3v-0.5H545.5z"/>
	<path d="M549.8,800.8V786h1.8v14.7H549.8z"/>
	<path d="M561.8,799.5v5.8H560v-14.5h1.8v1.8l0,0c1-1.3,1.8-1.8,3.3-1.8c1.3,0,2,0.3,3,1.3c0.5,1,1.3,2,1.3,3.6c0,1.5-0.3,3-1.3,4.1
		c-1,1-1.8,1.5-3.3,1.5C563.6,801,562.3,800.5,561.8,799.5L561.8,799.5z M561.8,796.7c0,1,0.3,1.5,1,2s1.3,1,1.8,1
		c1,0,1.5-0.3,2-1.3c0.5-1,1-1.8,1-3c0-1-0.3-1.8-0.5-2.5c-0.5-0.5-1.3-1-2-1c-0.8,0-1.5,0.3-2,1c-0.5,0.8-1,1.5-1,2.5L561.8,796.7
		L561.8,796.7z"/>
	<path d="M571.9,800.8V786h1.8v14.7H571.9z"/>
	<path d="M576.8,791.6c1-0.5,2-1,3.3-1c2.5,0,3.6,1.3,3.6,3.6v6.4h-1.8V799l0,0c-0.5,1.3-1.8,1.8-3,1.8c-1,0-1.8-0.3-2.5-1
		c-0.8-0.8-1-1.3-1-2c0-1.8,1.3-3,3.3-3.3l3-0.3c0-1.5-0.5-2.5-2-2.5c-1.3,0-2,0.3-3.3,1.3v-1.5h0.5V791.6z M579.8,796.2
		c-1,0-1.3,0.3-1.5,0.5c-0.3,0.3-0.5,0.5-0.5,1.3s0.3,1,0.5,1.3c0.3,0.3,1,0.3,1.3,0.3c1,0,1.5-0.3,1.8-1c0.3-0.8,0.5-1.3,0.5-2v-1
		L579.8,796.2z"/>
	<path d="M593.8,800.8h-8.4v-0.5l5.8-7.9h-5.3v-1.3h7.6v0.5l-5.8,7.9h5.8v1.3H593.8z"/>
	<path d="M595.1,796.2c0-1.5,0.3-3,1.3-4.1s2-1.5,3.6-1.5s2.8,0.3,3.3,1.3c0.5,1,1.3,2,1.3,3.6s-0.3,2.8-1.3,3.6c-1,1-2,1.5-3.6,1.5
		c-1.5,0-2.8-0.5-3.6-1.5C595.1,798.2,595.1,797.7,595.1,796.2z M596.8,795.7c0,1.3,0.3,2,1,2.8s1.3,1,2.5,1c1,0,1.8-0.3,2.5-1
		c0.8-0.8,1-1.5,1-2.8s-0.3-2-1-2.8s-1.3-1-2.5-1c-1,0-1.8,0.3-2.5,1C597.3,793.9,596.8,794.9,596.8,795.7z"/>
	<path d="M621.5,800.8h-1.8v-1.5l0,0c-0.5,1.3-1.8,1.8-3.3,1.8c-1.3,0-2-0.3-3-1.3c-1-1-1.3-2-1.3-3.6c0-1.5,0.3-3,1.3-4.1
		c1-1,1.8-1.5,3.3-1.5c1.5,0,2.5,0.5,3,1.5l0,0V786h1.8V800.8z M619.9,794.9c0-1-0.3-1.5-1-2s-1.3-1-1.8-1c-1,0-1.5,0.3-2,1
		c-0.5,0.5-1,1.5-1,2.8s0.3,1.8,1,2.8c0.5,1,1.3,1,2,1c1,0,1.5-0.3,2-1c0.5-0.5,1-1.5,1-2.5v-1H619.9L619.9,794.9z"/>
	<path d="M632.9,796.5h-7.1c0,1,0.3,1.8,1,2.5c0.5,0.5,1.3,1,2.5,1s2-0.3,3-1v1.5c-1,0.5-2,1-3.3,1c-1.5,0-2.5-0.3-3.3-1.3
		c-1-1-1.3-2-1.3-3.6c0-1.5,0.3-2.8,1.3-3.6c1-1,1.8-1.5,3.3-1.5c1.3,0,2.5,0.3,3,1.3c0.5,1,1.3,2,1.3,3.3v0.5h-0.5V796.5z
		 M630.9,794.9c0-1-0.3-1.5-0.5-2c-0.3-0.5-1-0.5-1.8-0.5c-0.5,0-1.3,0.3-1.8,1c-0.5,0.5-1,1.3-1,2h5.3v-0.5H630.9z"/>
	<path d="M531,822.9v-11.9c-0.3,0.3-0.5,0.5-1.5,1c-0.5,0.3-1.3,0.5-1.8,0.5v-1.8c0.5-0.3,1.5-0.5,2.5-1c1-0.3,1.5-1,1.8-1.3h0.5v14
		H531V822.9z"/>
	<path d="M537.4,816.3c0-2.5,0.3-4.3,1.3-5.6s2-1.8,3.6-1.8c3,0,4.3,2.5,4.3,7.1c0,2.5-0.3,4.3-1.3,5.6c-1,1.3-2,1.8-3.3,1.8
		c-1.5,0-2.5-0.5-3.3-1.8C537.9,820.3,537.4,818.6,537.4,816.3z M539.4,816c0,3.6,1,5.6,2.8,5.6c1.8,0,2.8-1.8,2.8-5.6
		c0-4.1-1-5.8-2.8-5.8C540.4,810.2,539.4,812.5,539.4,816z"/>
	<path d="M554.7,813.5c1-0.5,2-1,3.3-1c2.5,0,3.6,1.3,3.6,3.6v6.4h-1.8v-1.5l0,0c-0.5,1.3-1.8,1.8-3,1.8c-1,0-1.8-0.3-2.5-1
		c-0.8-0.8-1-1.3-1-2c0-1.8,1.3-3,3.3-3.3l3-0.3c0-1.5-0.5-2.5-2-2.5c-1.3,0-2,0.3-3.3,1.3v-1.5h0.5V813.5z M557.7,818.3
		c-1,0-1.3,0.3-1.5,0.5s-0.5,0.5-0.5,1.3s0.3,1,0.5,1.3c0.3,0.3,1,0.3,1.3,0.3c1,0,1.5-0.3,1.8-1c0.3-0.8,0.5-1.3,0.5-2v-1
		L557.7,818.3z"/>
	<path d="M573,822.9h-1.8v-5.6c0-2-0.5-3-2-3c-1,0-1.5,0.3-1.8,1c-0.3,0.8-0.5,1.3-0.5,2v5.6h-1.8V813h1.8v1.5l0,0
		c0.5-1.3,1.8-1.8,3.3-1.8c1.3,0,1.8,0.3,2.5,1c0.5,0.5,1,1.8,1,3v6.1H573z M571.9,808.7c0,0.5-0.3,1.3-0.5,1.8
		c-0.3,0.3-0.5,0.5-1.3,0.5s-1-0.3-1.5-0.5c-0.5-0.3-1-0.3-1.3-0.3c-0.5,0-1,0.3-1,1.3h-0.5c0-0.5,0.3-1.3,0.5-1.8
		c0.3-0.3,0.5-0.5,1.3-0.5c0.3,0,1,0.3,1.5,0.5c0.5,0.3,1,0.3,1.3,0.3c0.5,0,1-0.3,1-1.3H571.9z"/>
	<path d="M575.2,818.3c0-1.5,0.3-3,1.3-4.1c1-1,2-1.5,3.6-1.5c1.5,0,2.8,0.3,3.3,1.3s1.3,2,1.3,3.6c0,1.5-0.3,2.8-1.3,3.6
		c-1,1-2,1.5-3.6,1.5c-1.5,0-2.8-0.5-3.6-1.5C575.2,820.3,575.2,819.8,575.2,818.3z M577,817.8c0,1.3,0.3,2,1,2.8
		c0.5,0.5,1.3,1,2.5,1c1,0,1.8-0.3,2.5-1c0.5-0.5,1-1.5,1-2.8s-0.3-2-1-2.8c-0.5-0.5-1.3-1-2.5-1c-1,0-1.8,0.3-2.5,1
		C577.3,816,577,817,577,817.8z"/>
	<path d="M587.2,820.6c1,0.5,1.8,1,2.8,1c1.3,0,2-0.3,2-1.3c0-0.3,0-0.5-0.3-1c-0.3-0.3-1-0.5-1.8-1c-1.3-0.3-1.8-1-2-1.3
		s-0.5-1-0.5-1.5c0-1,0.3-1.5,1.3-2c0.5-0.5,1.5-1,2.8-1c1,0,1.5,0,2.5,0.3v1.8c-0.5-0.5-1.5-0.5-2.5-0.5c-0.5,0-1,0-1.3,0.3
		s-0.5,0.5-0.5,1c0,0.3,0,0.5,0.3,1c0.3,0.3,1,0.5,1.8,1c1.3,0.3,1.8,1,2,1.3c0.3,0.3,0.5,1,0.5,1.5c0,1-0.3,1.5-1.3,2
		c-0.5,0.5-1.8,1-2.8,1c-1,0-1.8-0.3-2.8-0.5v-1.8h-0.3V820.6z"/>
</g>
</svg>
