<?xml version="1.0" encoding="utf-8"?>
<!-- Generator: Adobe Illustrator 23.0.0, SVG Export Plug-In . SVG Version: 6.00 Build 0)  -->
<svg version="1.1" id="租金分红" xmlns="http://www.w3.org/2000/svg" xmlns:xlink="http://www.w3.org/1999/xlink" x="0px"
	 y="0px" viewBox="0 0 608 523" style="enable-background:new 0 0 608 523;" xml:space="preserve">
<style type="text/css">
	.st0{fill:none;stroke:#90A7AB;}
	.st1{fill:#9FE7DD;stroke:#34B9A1;stroke-width:2;}
	.st2{enable-background:new    ;}
	.st3{fill:#456E68;}
	.st4{fill:none;stroke:#456E68;stroke-width:1.5;stroke-miterlimit:10;}
</style>
<g id="组_29">
	<path id="形状_1" class="st0" d="M127.8,82.9h212.5l-4.8-5.5"/>
	<path id="形状_1_拷贝_6" class="st0" d="M342.1,103.1H129.8l4.8,5.5"/>
</g>
<g id="组_29_拷贝">
	<path id="形状_1-2" class="st0" d="M497.4,213v116l5.6-4.9"/>
	<path id="形状_1_拷贝_6-2" class="st0" d="M476.6,328.7V213l-5.6,4.9"/>
</g>
<path id="形状_1_拷贝_7" class="st0" d="M381,411H168.2l4.9-5.4"/>
<circle id="椭圆_6" class="st1" cx="482" cy="97" r="96"/>
<g class="st2">
	<path class="st3" d="M510.7,379h-10v10h10V379z M507.4,385.6h-3.3v-3.3h3.3V385.6z"/>
	<path class="st3" d="M524,379h-10v10h10V379z M520.7,385.6h-3.3v-3.3h3.3V385.6z"/>
	<path class="st3" d="M510.7,392.2h-10v10h10V392.2z M507.4,398.9h-3.3v-3.3h3.3V398.9z"/>
	<path class="st3" d="M524,392.2h-10v10h10V392.2z M520.7,398.9h-3.3v-3.3h3.3V398.9z"/>
	<path class="st3" d="M510.7,415.5v-10h-10v10H510.7z M504.1,408.8h3.3v3.3h-3.3V408.8z"/>
	<path class="st3" d="M524,405.5h-10v10h10V405.5z M520.7,412.2h-3.3v-3.3h3.3V412.2z"/>
	<path class="st3" d="M534,375.6v-3.3h-3.3v-6.6h-3.3V359h-29.9v6.6h-3.3v6.6h-3.3v3.3h3.3v43.2h-13.3v-19.9h3.3v-10h-3.3v-2.5
		l-23.3-16.1l-10,6.9V372h-10v12l-3.3,2.3v2.5H431v10h3.3V419c-1.9,0.7-3.3,2.5-3.3,4.7v3.3c0,2.7,2.2,5,5,5h32.4
		c-2.6,3.2-4.2,7.2-4.2,11.6c0,10.1,8.2,18.3,18.3,18.3s18.3-8.2,18.3-18.3c0-4.4-1.6-8.5-4.2-11.6H529c2.7,0,5-2.2,5-5v-3.3
		c0-2.2-1.4-4-3.3-4.7v-43.5h3.3V375.6z M500.8,362.3H524v3.3h-23.3L500.8,362.3L500.8,362.3z M497.5,369h29.9v3.3h-29.9L497.5,369
		L497.5,369z M441,375.4h3.3v4.1l-3.3,2.3V375.4z M437.7,388.1l19.9-13.8l19.9,13.8v0.8h-39.9v-0.8H437.7z M434.3,392.2h46.5v3.3
		h-46.5V392.2z M477.5,398.9v19.9h-13.3v-16.6H451v16.6h-13.3v-19.9H477.5z M460.9,418.8h-6.6v-13.3h6.6V418.8z M482.5,458.7
		c-8.2,0-14.9-6.7-14.9-14.9s6.7-14.9,14.9-14.9s14.9,6.7,14.9,14.9S490.8,458.7,482.5,458.7z M530.7,427.1c0,0.9-0.7,1.7-1.7,1.7
		h-36c-3-2.1-6.6-3.3-10.5-3.3s-7.5,1.2-10.5,3.3h-36c-0.9,0-1.7-0.7-1.7-1.7v-3.3c0-0.9,0.7-1.7,1.7-1.7h93c0.9,0,1.7,0.7,1.7,1.7
		V427.1z M527.4,418.8h-29.9v-43.2h29.9V418.8z"/>
</g>
<g>
	<path class="st3" d="M476.6,452.5v-1.8c1.9-0.6,2.9-1.8,2.9-3.7v-2.2H477V443h2.6v-3c0-1.5,0.4-2.8,1.4-3.7c1-1,2.2-1.5,3.6-1.5
		c1,0,1.9,0.1,2.8,0.6v2.1c-0.8-0.6-1.8-0.7-2.6-0.7c-1.9,0-2.9,1.2-2.9,3.6v2.8h3.9v1.8h-4v1.8c0,1.9-0.8,3.2-2.3,4.1h8.9v1.8
		h-11.7L476.6,452.5L476.6,452.5z"/>
</g>
<g class="st2">
	<g>
		<g>
			<path class="st3" d="M54.6,391H41.9c-0.9,0-1.6,0.7-1.6,1.6v6.3c0,0.9,0.7,1.6,1.6,1.6h12.7c0.9,0,1.6-0.7,1.6-1.6v-6.3
				C56.2,391.7,55.5,391,54.6,391z M46.7,397.3h-3.2v-3.2h3.2V397.3z M53,397.3h-3.2v-3.2H53V397.3z"/>
		</g>
	</g>
	<g>
		<g>
			<path class="st3" d="M54.6,403.7H41.9c-0.9,0-1.6,0.7-1.6,1.6v6.3c0,0.9,0.7,1.6,1.6,1.6h12.7c0.9,0,1.6-0.7,1.6-1.6v-6.3
				C56.2,404.4,55.5,403.7,54.6,403.7z M46.7,410h-3.2v-3.2h3.2V410z M53,410h-3.2v-3.2H53V410z"/>
		</g>
	</g>
	<g>
		<g>
			<path class="st3" d="M54.6,416.3H41.9c-0.9,0-1.6,0.7-1.6,1.6v6.3c0,0.9,0.7,1.6,1.6,1.6h12.7c0.9,0,1.6-0.7,1.6-1.6v-6.3
				C56.2,417,55.5,416.3,54.6,416.3z M46.7,422.7h-3.2v-3.2h3.2V422.7z M53,422.7h-3.2v-3.2H53V422.7z"/>
		</g>
	</g>
	<g>
		<g>
			<path class="st3" d="M111.6,391H98.9c-0.9,0-1.6,0.7-1.6,1.6v6.3c0,0.9,0.7,1.6,1.6,1.6h12.7c0.9,0,1.6-0.7,1.6-1.6v-6.3
				C113.2,391.7,112.5,391,111.6,391z M103.7,397.3h-3.2v-3.2h3.2V397.3z M110,397.3h-3.2v-3.2h3.2V397.3z"/>
		</g>
	</g>
	<g>
		<g>
			<path class="st3" d="M111.6,378.3H98.9c-0.9,0-1.6,0.7-1.6,1.6v6.3c0,0.9,0.7,1.6,1.6,1.6h12.7c0.9,0,1.6-0.7,1.6-1.6v-6.3
				C113.2,379,112.5,378.3,111.6,378.3z M103.7,384.7h-3.2v-3.2h3.2V384.7z M110,384.7h-3.2v-3.2h3.2V384.7z"/>
		</g>
	</g>
	<g>
		<g>
			<path class="st3" d="M73.6,397.3h-6.3c-0.9,0-1.6,0.7-1.6,1.6v6.3c0,0.9,0.7,1.6,1.6,1.6h6.3c0.9,0,1.6-0.7,1.6-1.6v-6.3
				C75.2,398,74.5,397.3,73.6,397.3z M72,403.7h-3.2v-3.2H72V403.7z"/>
		</g>
	</g>
	<g>
		<g>
			<path class="st3" d="M86.3,397.3H80c-0.9,0-1.6,0.7-1.6,1.6v6.3c0,0.9,0.7,1.6,1.6,1.6h6.3c0.9,0,1.6-0.7,1.6-1.6v-6.3
				C87.8,398,87.1,397.3,86.3,397.3z M84.7,403.7h-3.2v-3.2h3.2V403.7z"/>
		</g>
	</g>
	<g>
		<g>
			<path class="st3" d="M73.6,384.7h-6.3c-0.9,0-1.6,0.7-1.6,1.6v6.3c0,0.9,0.7,1.6,1.6,1.6h6.3c0.9,0,1.6-0.7,1.6-1.6v-6.3
				C75.2,385.4,74.5,384.7,73.6,384.7z M72,391h-3.2v-3.2H72V391z"/>
		</g>
	</g>
	<g>
		<g>
			<path class="st3" d="M86.3,384.7H80c-0.9,0-1.6,0.7-1.6,1.6v6.3c0,0.9,0.7,1.6,1.6,1.6h6.3c0.9,0,1.6-0.7,1.6-1.6v-6.3
				C87.8,385.4,87.1,384.7,86.3,384.7z M84.7,391h-3.2v-3.2h3.2V391z"/>
		</g>
	</g>
	<g>
		<g>
			<path class="st3" d="M73.6,372h-6.3c-0.9,0-1.6,0.7-1.6,1.6v6.3c0,0.9,0.7,1.6,1.6,1.6h6.3c0.9,0,1.6-0.7,1.6-1.6v-6.3
				C75.2,372.7,74.5,372,73.6,372z M72,378.3h-3.2v-3.2H72V378.3z"/>
		</g>
	</g>
	<g>
		<g>
			<path class="st3" d="M86.3,372H80c-0.9,0-1.6,0.7-1.6,1.6v6.3c0,0.9,0.7,1.6,1.6,1.6h6.3c0.9,0,1.6-0.7,1.6-1.6v-6.3
				C87.8,372.7,87.1,372,86.3,372z M84.7,378.3h-3.2v-3.2h3.2V378.3z"/>
		</g>
	</g>
	<g>
		<g>
			<path class="st3" d="M73.6,416.3h-6.3c-0.9,0-1.6,0.7-1.6,1.6v6.3c0,0.9,0.7,1.6,1.6,1.6h6.3c0.9,0,1.6-0.7,1.6-1.6v-6.3
				C75.2,417,74.5,416.3,73.6,416.3z M72,422.7h-3.2v-3.2H72V422.7z"/>
		</g>
	</g>
	<g>
		<g>
			<rect x="40.3" y="429" class="st3" width="3.2" height="3.2"/>
		</g>
	</g>
	<g>
		<g>
			<rect x="46.7" y="429" class="st3" width="3.2" height="3.2"/>
		</g>
	</g>
	<g>
		<g>
			<rect x="53" y="429" class="st3" width="3.2" height="3.2"/>
		</g>
	</g>
	<g>
		<g>
			<path class="st3" d="M127.4,410h-7.9v-36.4c0-0.9-0.7-1.6-1.6-1.6h-11.1v-2.5l1.7-1.7c1.4,1,3,1.6,4.7,1.6c2,0,4-0.8,5.6-2.3
				l0.3-0.3c0.6-0.6,0.6-1.6,0-2.2l-3.6-3.6l3.6-3.6l-2.2-2.2l-3.6,3.6l-5.2-5.2c-0.3-0.3-0.7-0.5-1.1-0.5c-0.6,0-1,0.3-1.3,0.6
				c-1.6,1.4-2.5,3.4-2.5,5.5s0.8,4.2,2.3,5.7l0.8,0.8l-2,2c-0.3,0.3-0.5,0.7-0.5,1.1v3.2h-9.5v-4.8c0-0.9-0.7-1.6-1.6-1.6H87l-9-12
				c-0.6-0.8-1.9-0.8-2.5,0l-9,12H61c-0.9,0-1.6,0.7-1.6,1.6v17.4h-9.5V372h-3.2v12.7H35.6c-0.9,0-1.6,0.7-1.6,1.6v60.2
				c0,0.9,0.7,1.6,1.6,1.6h25.3H72h12.7h1.6h9.5h25.3c4.4,0,7.9-3.6,7.9-7.9v-28.5C129,410.7,128.3,410,127.4,410z M59.3,444.8H37.2
				v-57h22.2v57H59.3z M106.9,356.9l8.7,8.7c-1.8,1.1-4.2,0.8-5.7-0.7l-2.2-2.2c-0.9-0.9-1.4-2.1-1.4-3.4
				C106.3,358.4,106.5,357.6,106.9,356.9z M76.8,357.2l6.3,8.4H70.4L76.8,357.2z M70.4,432.2v12.7h-7.9v-58.6v-17.4H91v4.8v28.5h3.2
				v-26.9h22.2V410h-3.2v-1.6c0-2.6-2.1-4.8-4.8-4.8h-9.5c-2.6,0-4.8,2.1-4.8,4.8v1.6H79.9c-0.9,0-1.6,0.7-1.6,1.6V429H65.7v3.2
				H70.4z M110,408.4v1.6H97.3v-1.6c0-0.9,0.7-1.6,1.6-1.6h9.5C109.3,406.8,110,407.5,110,408.4z M73.6,444.8v-12.7h4.8v7.9
				c0,1.8,0.6,3.4,1.6,4.8L73.6,444.8L73.6,444.8z M125.8,440.1c0,2.6-2.1,4.8-4.8,4.8H95.8h-9.5c-2.6,0-4.8-2.1-4.8-4.8v-15.9
				c1.3,1,3,1.6,4.8,1.6h1.6v4.8c0,0.9,0.7,1.6,1.6,1.6h6.3c0.9,0,1.6-0.7,1.6-1.6v-4.8H99h9.5h1.6v4.8c0,0.9,0.7,1.6,1.6,1.6h6.3
				c0.9,0,1.6-0.7,1.6-1.6v-4.8h1.6c1.8,0,3.4-0.6,4.8-1.6v15.9H125.8z M91,429v-3.2h3.2v3.2H91z M100.5,422.7v-3.2h6.3v3.2H100.5z
				 M113.2,429v-3.2h3.2v3.2H113.2z M125.8,417.9c0,2.6-2.1,4.8-4.8,4.8h-3.2h-6.3H110v-4.8c0-0.9-0.7-1.6-1.6-1.6h-9.5
				c-0.9,0-1.6,0.7-1.6,1.6v4.8h-1.6h-6.3h-3.2c-2.6,0-4.8-2.1-4.8-4.8v-4.8h44.3v4.8H125.8z"/>
		</g>
	</g>
	<g>
		<g>
			<rect x="119.5" y="438.5" class="st3" width="3.2" height="3.2"/>
		</g>
	</g>
	<g>
		<g>
			<rect x="113.2" y="438.5" class="st3" width="3.2" height="3.2"/>
		</g>
	</g>
	<g>
		<g>
			<rect x="106.8" y="438.5" class="st3" width="3.2" height="3.2"/>
		</g>
	</g>
</g>
<g>
	<circle class="st4" cx="56.1" cy="58.7" r="15.8"/>
	<line class="st4" x1="43.4" y1="83.4" x2="56.1" y2="97.9"/>
	<line class="st4" x1="68.4" y1="83.4" x2="56.1" y2="97.9"/>
	<line class="st4" x1="56.1" y1="112.3" x2="56.1" y2="97.9"/>
	<path class="st4" d="M89.9,104v3.4c0,3.1-2.5,5.6-5.6,5.6H27.7c-3.1,0-5.6-2.5-5.6-5.6V104"/>
	<path class="st4" d="M27.7,98.4"/>
	<path class="st4" d="M22.1,105.6C22.1,92.8,32.7,83,45.4,83h21.2c12.8,0,23.2,10.5,23.2,23.2l0,0"/>
</g>
<g class="st2">
	<path class="st3" d="M4.8,146v-12.9h1.7V146H4.8z"/>
	<path class="st3" d="M9.3,146v-9.3h1.4v1.3c0.7-1,1.7-1.5,3-1.5c0.6,0,1.1,0.1,1.6,0.3c0.5,0.2,0.8,0.5,1.1,0.8s0.4,0.7,0.5,1.2
		c0.1,0.3,0.1,0.8,0.1,1.5v5.7h-1.6v-5.7c0-0.6-0.1-1.1-0.2-1.4s-0.3-0.6-0.7-0.8c-0.3-0.2-0.7-0.3-1.1-0.3c-0.7,0-1.3,0.2-1.7,0.6
		s-0.7,1.2-0.7,2.4v5.1L9.3,146L9.3,146z"/>
	<path class="st3" d="M21.9,146l-3.6-9.3H20l2,5.6c0.2,0.6,0.4,1.2,0.6,1.9c0.1-0.5,0.3-1.1,0.6-1.8l2.1-5.7h1.6l-3.5,9.3H21.9z"/>
	<path class="st3" d="M34.7,143l1.6,0.2c-0.3,1-0.7,1.7-1.4,2.2s-1.6,0.8-2.7,0.8c-1.4,0-2.4-0.4-3.2-1.3c-0.8-0.8-1.2-2-1.2-3.5
		c0-1.6,0.4-2.8,1.2-3.7s1.9-1.3,3.1-1.3s2.3,0.4,3.1,1.3s1.2,2,1.2,3.6c0,0.1,0,0.2,0,0.4h-7c0.1,1,0.3,1.8,0.9,2.4s1.2,0.8,2,0.8
		c0.6,0,1.1-0.2,1.5-0.5S34.4,143.7,34.7,143z M29.5,140.4h5.2c-0.1-0.8-0.3-1.4-0.6-1.8c-0.5-0.6-1.2-0.9-2-0.9
		c-0.7,0-1.3,0.2-1.8,0.7S29.5,139.6,29.5,140.4z"/>
	<path class="st3" d="M38.3,146v-9.3h1.4v1.4c0.4-0.7,0.7-1.1,1-1.3s0.6-0.3,1-0.3c0.5,0,1.1,0.2,1.6,0.5l-0.5,1.5
		c-0.4-0.2-0.8-0.3-1.2-0.3c-0.3,0-0.7,0.1-0.9,0.3s-0.5,0.5-0.6,0.9c-0.2,0.6-0.3,1.2-0.3,1.8v4.9L38.3,146L38.3,146z"/>
	<path class="st3" d="M43.7,143.2l1.6-0.2c0.1,0.6,0.3,1.1,0.7,1.4s1,0.5,1.7,0.5s1.3-0.1,1.6-0.4s0.5-0.6,0.5-1s-0.2-0.6-0.5-0.8
		c-0.2-0.1-0.8-0.3-1.6-0.5c-1.2-0.3-2-0.5-2.4-0.8s-0.8-0.5-1-0.9s-0.3-0.8-0.3-1.3c0-0.4,0.1-0.8,0.3-1.2s0.4-0.6,0.8-0.9
		c0.2-0.2,0.6-0.3,1-0.5s0.9-0.2,1.4-0.2c0.7,0,1.4,0.1,1.9,0.3s1,0.5,1.2,0.9c0.3,0.4,0.4,0.8,0.5,1.4l-1.5,0.2
		c-0.1-0.5-0.3-0.9-0.6-1.1s-0.8-0.4-1.4-0.4c-0.7,0-1.2,0.1-1.6,0.4s-0.5,0.5-0.5,0.8c0,0.2,0.1,0.4,0.2,0.6
		c0.1,0.2,0.3,0.3,0.6,0.4c0.2,0.1,0.6,0.2,1.4,0.4c1.1,0.3,1.9,0.5,2.3,0.7s0.8,0.5,1,0.8s0.4,0.8,0.4,1.4c0,0.5-0.2,1-0.5,1.5
		s-0.8,0.8-1.3,1.1c-0.6,0.3-1.2,0.4-2,0.4c-1.2,0-2.1-0.3-2.8-0.8S43.8,144.2,43.7,143.2z"/>
	<path class="st3" d="M53.3,134.9v-1.8h1.6v1.8H53.3z M53.3,146v-9.3h1.6v9.3H53.3z"/>
	<path class="st3" d="M56.7,141.3c0-1.7,0.5-3,1.4-3.8c0.8-0.7,1.8-1,2.9-1c1.3,0,2.3,0.4,3.1,1.3s1.2,2,1.2,3.5
		c0,1.2-0.2,2.1-0.5,2.8c-0.4,0.7-0.9,1.2-1.6,1.6s-1.4,0.6-2.3,0.6c-1.3,0-2.4-0.4-3.2-1.3S56.7,142.9,56.7,141.3z M58.3,141.3
		c0,1.2,0.3,2.1,0.8,2.7c0.5,0.6,1.2,0.9,2,0.9s1.4-0.3,2-0.9s0.8-1.5,0.8-2.7s-0.3-2-0.8-2.6s-1.2-0.9-2-0.9s-1.4,0.3-2,0.9
		S58.3,140.1,58.3,141.3z"/>
	<path class="st3" d="M67.3,146v-9.3h1.4v1.3c0.7-1,1.7-1.5,3-1.5c0.6,0,1.1,0.1,1.6,0.3s0.8,0.5,1.1,0.8s0.4,0.7,0.5,1.2
		c0.1,0.3,0.1,0.8,0.1,1.5v5.7h-1.6v-5.7c0-0.6-0.1-1.1-0.2-1.4s-0.3-0.6-0.7-0.8c-0.3-0.2-0.7-0.3-1.1-0.3c-0.7,0-1.3,0.2-1.7,0.6
		s-0.7,1.2-0.7,2.4v5.1L67.3,146L67.3,146z"/>
	<path class="st3" d="M77.3,134.9v-1.8h1.6v1.8H77.3z M77.3,146v-9.3h1.6v9.3H77.3z"/>
	<path class="st3" d="M80.7,143.2l1.6-0.2c0.1,0.6,0.3,1.1,0.7,1.4s1,0.5,1.7,0.5s1.3-0.1,1.6-0.4s0.5-0.6,0.5-1s-0.2-0.6-0.5-0.8
		c-0.2-0.1-0.8-0.3-1.6-0.5c-1.2-0.3-2-0.5-2.4-0.8s-0.8-0.5-1-0.9s-0.3-0.8-0.3-1.3c0-0.4,0.1-0.8,0.3-1.2c0.2-0.4,0.4-0.6,0.8-0.9
		c0.2-0.2,0.6-0.3,1-0.5s0.9-0.2,1.4-0.2c0.7,0,1.4,0.1,1.9,0.3s1,0.5,1.2,0.9c0.3,0.4,0.4,0.8,0.5,1.4l-1.5,0.2
		c-0.1-0.5-0.3-0.9-0.6-1.1s-0.8-0.4-1.4-0.4c-0.7,0-1.2,0.1-1.6,0.4s-0.5,0.5-0.5,0.8c0,0.2,0.1,0.4,0.2,0.6
		c0.1,0.2,0.3,0.3,0.6,0.4c0.2,0.1,0.6,0.2,1.4,0.4c1.1,0.3,1.9,0.5,2.3,0.7s0.8,0.5,1,0.8s0.4,0.8,0.4,1.4c0,0.5-0.2,1-0.5,1.5
		s-0.8,0.8-1.3,1.1c-0.6,0.3-1.2,0.4-2,0.4c-1.2,0-2.1-0.3-2.8-0.8S80.9,144.2,80.7,143.2z"/>
	<path class="st3" d="M93.8,144.6L94,146c-0.4,0.1-0.8,0.1-1.2,0.1c-0.6,0-1-0.1-1.3-0.3s-0.5-0.4-0.7-0.7s-0.2-0.9-0.2-1.9v-5.4
		h-1.2v-1.2h1.2v-2.2l1.6-0.9v3.3h1.6v1.2h-1.6v5.5c0,0.5,0,0.7,0.1,0.9s0.1,0.2,0.3,0.3s0.3,0.1,0.5,0.1
		C93.3,144.6,93.5,144.6,93.8,144.6z"/>
	<path class="st3" d="M101.4,144.8c-0.6,0.5-1.1,0.8-1.7,1.1s-1.1,0.3-1.7,0.3c-1,0-1.8-0.3-2.4-0.8s-0.8-1.1-0.8-1.9
		c0-0.5,0.1-0.9,0.3-1.3c0.2-0.4,0.5-0.7,0.8-0.9s0.7-0.4,1.1-0.5c0.3-0.1,0.8-0.2,1.4-0.2c1.3-0.2,2.2-0.3,2.8-0.5
		c0-0.2,0-0.4,0-0.4c0-0.6-0.1-1.1-0.4-1.4c-0.4-0.4-1-0.5-1.8-0.5c-0.7,0-1.3,0.1-1.6,0.4s-0.6,0.7-0.8,1.4l-1.5-0.2
		c0.1-0.7,0.4-1.2,0.7-1.6c0.3-0.4,0.8-0.7,1.4-0.9s1.3-0.3,2.1-0.3c0.8,0,1.4,0.1,1.9,0.3s0.9,0.4,1.1,0.7s0.4,0.6,0.5,1.1
		c0.1,0.3,0.1,0.8,0.1,1.5v2.1c0,1.5,0,2.4,0.1,2.8c0.1,0.4,0.2,0.8,0.4,1.1h-1.7C101.6,145.7,101.5,145.3,101.4,144.8z
		 M101.3,141.3c-0.6,0.2-1.4,0.4-2.6,0.6c-0.7,0.1-1.1,0.2-1.4,0.3s-0.5,0.3-0.6,0.5s-0.2,0.5-0.2,0.8c0,0.4,0.2,0.8,0.5,1.1
		s0.8,0.4,1.4,0.4s1.2-0.1,1.6-0.4s0.8-0.6,1-1.1c0.2-0.4,0.3-0.9,0.3-1.6C101.3,141.9,101.3,141.3,101.3,141.3z"/>
	<path class="st3" d="M113.4,149.8c-0.9-1.1-1.6-2.4-2.2-3.9s-0.9-3-0.9-4.6c0-1.4,0.2-2.7,0.7-4c0.5-1.5,1.3-3,2.4-4.4h1.1
		c-0.7,1.2-1.2,2.1-1.4,2.6c-0.4,0.8-0.6,1.7-0.8,2.5c-0.3,1.1-0.4,2.2-0.4,3.3c0,2.8,0.9,5.6,2.6,8.4L113.4,149.8L113.4,149.8z"/>
	<path class="st3" d="M119.8,146v-11.4h-4.2v-1.5h10.2v1.5h-4.3V146H119.8z"/>
	<path class="st3" d="M131.7,143l1.6,0.2c-0.3,1-0.7,1.7-1.4,2.2s-1.6,0.8-2.7,0.8c-1.4,0-2.4-0.4-3.2-1.3c-0.8-0.8-1.2-2-1.2-3.5
		c0-1.6,0.4-2.8,1.2-3.7s1.9-1.3,3.1-1.3c1.2,0,2.3,0.4,3.1,1.3s1.2,2,1.2,3.6c0,0.1,0,0.2,0,0.4h-7c0.1,1,0.3,1.8,0.9,2.4
		s1.2,0.8,2,0.8c0.6,0,1.1-0.2,1.5-0.5S131.5,143.7,131.7,143z M126.5,140.4h5.2c-0.1-0.8-0.3-1.4-0.6-1.8c-0.5-0.6-1.2-0.9-2-0.9
		c-0.7,0-1.3,0.2-1.8,0.7S126.6,139.6,126.5,140.4z"/>
	<path class="st3" d="M135.3,146v-9.3h1.4v1.3c0.7-1,1.7-1.5,3-1.5c0.6,0,1.1,0.1,1.6,0.3s0.8,0.5,1.1,0.8s0.4,0.7,0.5,1.2
		c0.1,0.3,0.1,0.8,0.1,1.5v5.7h-1.6v-5.7c0-0.6-0.1-1.1-0.2-1.4s-0.3-0.6-0.7-0.8c-0.3-0.2-0.7-0.3-1.1-0.3c-0.7,0-1.3,0.2-1.7,0.6
		s-0.7,1.2-0.7,2.4v5.1L135.3,146L135.3,146z"/>
	<path class="st3" d="M151.7,143l1.6,0.2c-0.3,1-0.7,1.7-1.4,2.2s-1.6,0.8-2.7,0.8c-1.4,0-2.4-0.4-3.2-1.3c-0.8-0.8-1.2-2-1.2-3.5
		c0-1.6,0.4-2.8,1.2-3.7s1.9-1.3,3.1-1.3c1.2,0,2.3,0.4,3.1,1.3s1.2,2,1.2,3.6c0,0.1,0,0.2,0,0.4h-7c0.1,1,0.3,1.8,0.9,2.4
		s1.2,0.8,2,0.8c0.6,0,1.1-0.2,1.5-0.5S151.5,143.7,151.7,143z M146.5,140.4h5.2c-0.1-0.8-0.3-1.4-0.6-1.8c-0.5-0.6-1.2-0.9-2-0.9
		c-0.7,0-1.3,0.2-1.8,0.7S146.6,139.6,146.5,140.4z"/>
	<path class="st3" d="M161.4,146v-1.2c-0.6,0.9-1.5,1.4-2.6,1.4c-0.7,0-1.4-0.2-2.1-0.6s-1.1-1-1.5-1.7c-0.3-0.7-0.5-1.6-0.5-2.5
		s0.2-1.8,0.5-2.5s0.8-1.3,1.4-1.7s1.3-0.6,2.1-0.6c0.6,0,1.1,0.1,1.5,0.4c0.4,0.2,0.8,0.5,1.1,0.9v-4.6h1.6v12.9h-1.5V146z
		 M156.4,141.3c0,1.2,0.3,2.1,0.8,2.7s1.1,0.9,1.8,0.9s1.3-0.3,1.8-0.8s0.7-1.4,0.7-2.6c0-1.3-0.2-2.2-0.7-2.8s-1.1-0.9-1.8-0.9
		s-1.3,0.3-1.8,0.9S156.4,140.1,156.4,141.3z"/>
	<path class="st3" d="M164.8,141.3c0-1.7,0.5-3,1.4-3.8c0.8-0.7,1.8-1,2.9-1c1.3,0,2.3,0.4,3.1,1.3s1.2,2,1.2,3.5
		c0,1.2-0.2,2.1-0.5,2.8c-0.4,0.7-0.9,1.2-1.6,1.6s-1.4,0.6-2.3,0.6c-1.3,0-2.4-0.4-3.2-1.3S164.8,142.9,164.8,141.3z M166.4,141.3
		c0,1.2,0.3,2.1,0.8,2.7c0.5,0.6,1.2,0.9,2,0.9s1.4-0.3,2-0.9s0.8-1.5,0.8-2.7s-0.3-2-0.8-2.6s-1.2-0.9-2-0.9s-1.4,0.3-2,0.9
		S166.4,140.1,166.4,141.3z"/>
	<path class="st3" d="M175.4,146v-9.3h1.4v1.4c0.4-0.7,0.7-1.1,1-1.3s0.6-0.3,1-0.3c0.5,0,1.1,0.2,1.6,0.5l-0.5,1.5
		c-0.4-0.2-0.8-0.3-1.2-0.3c-0.3,0-0.7,0.1-0.9,0.3s-0.5,0.5-0.6,0.9c-0.2,0.6-0.3,1.2-0.3,1.8v4.9L175.4,146L175.4,146z"/>
	<path class="st3" d="M192.4,146v-1.2c-0.6,0.9-1.5,1.4-2.6,1.4c-0.7,0-1.4-0.2-2.1-0.6s-1.1-1-1.5-1.7c-0.3-0.7-0.5-1.6-0.5-2.5
		s0.2-1.8,0.5-2.5s0.8-1.3,1.4-1.7s1.3-0.6,2.1-0.6c0.6,0,1.1,0.1,1.5,0.4c0.4,0.2,0.8,0.5,1.1,0.9v-4.6h1.6v12.9h-1.5V146z
		 M187.4,141.3c0,1.2,0.3,2.1,0.8,2.7s1.1,0.9,1.8,0.9s1.3-0.3,1.8-0.8s0.7-1.4,0.7-2.6c0-1.3-0.2-2.2-0.7-2.8s-1.1-0.9-1.8-0.9
		s-1.3,0.3-1.8,0.9S187.4,140.1,187.4,141.3z"/>
	<path class="st3" d="M202.8,143l1.6,0.2c-0.3,1-0.7,1.7-1.4,2.2s-1.6,0.8-2.7,0.8c-1.4,0-2.4-0.4-3.2-1.3c-0.8-0.8-1.2-2-1.2-3.5
		c0-1.6,0.4-2.8,1.2-3.7s1.9-1.3,3.1-1.3c1.2,0,2.3,0.4,3.1,1.3s1.2,2,1.2,3.6c0,0.1,0,0.2,0,0.4h-7c0.1,1,0.3,1.8,0.9,2.4
		s1.2,0.8,2,0.8c0.6,0,1.1-0.2,1.5-0.5S202.5,143.7,202.8,143z M197.6,140.4h5.2c-0.1-0.8-0.3-1.4-0.6-1.8c-0.5-0.6-1.2-0.9-2-0.9
		c-0.7,0-1.3,0.2-1.8,0.7S197.6,139.6,197.6,140.4z"/>
	<path class="st3" d="M214.8,144.6l0.2,1.4c-0.4,0.1-0.8,0.1-1.2,0.1c-0.6,0-1-0.1-1.3-0.3s-0.5-0.4-0.7-0.7s-0.2-0.9-0.2-1.9v-5.4
		h-1.2v-1.2h1.2v-2.2l1.6-0.9v3.3h1.6v1.2h-1.6v5.5c0,0.5,0,0.7,0.1,0.9s0.1,0.2,0.3,0.3s0.3,0.1,0.5,0.1
		C214.3,144.6,214.6,144.6,214.8,144.6z"/>
	<path class="st3" d="M215.8,141.3c0-1.7,0.5-3,1.4-3.8c0.8-0.7,1.8-1,2.9-1c1.3,0,2.3,0.4,3.1,1.3s1.2,2,1.2,3.5
		c0,1.2-0.2,2.1-0.5,2.8c-0.4,0.7-0.9,1.2-1.6,1.6s-1.4,0.6-2.3,0.6c-1.3,0-2.4-0.4-3.2-1.3S215.8,142.9,215.8,141.3z M217.4,141.3
		c0,1.2,0.3,2.1,0.8,2.7c0.5,0.6,1.2,0.9,2,0.9s1.4-0.3,2-0.9s0.8-1.5,0.8-2.7s-0.3-2-0.8-2.6s-1.2-0.9-2-0.9s-1.4,0.3-2,0.9
		S217.4,140.1,217.4,141.3z"/>
	<path class="st3" d="M226.4,146v-12.9h1.6v7.3l3.7-3.8h2l-3.6,3.5l3.9,5.9h-2l-3.1-4.8l-1.1,1.1v3.7H226.4z"/>
	<path class="st3" d="M241.8,143l1.6,0.2c-0.3,1-0.7,1.7-1.4,2.2s-1.6,0.8-2.7,0.8c-1.4,0-2.4-0.4-3.2-1.3c-0.8-0.8-1.2-2-1.2-3.5
		c0-1.6,0.4-2.8,1.2-3.7s1.9-1.3,3.1-1.3c1.2,0,2.3,0.4,3.1,1.3s1.2,2,1.2,3.6c0,0.1,0,0.2,0,0.4h-7c0.1,1,0.3,1.8,0.9,2.4
		s1.2,0.8,2,0.8c0.6,0,1.1-0.2,1.5-0.5S241.6,143.7,241.8,143z M236.6,140.4h5.2c-0.1-0.8-0.3-1.4-0.6-1.8c-0.5-0.6-1.2-0.9-2-0.9
		c-0.7,0-1.3,0.2-1.8,0.7S236.7,139.6,236.6,140.4z"/>
	<path class="st3" d="M245.4,146v-9.3h1.4v1.3c0.7-1,1.7-1.5,3-1.5c0.6,0,1.1,0.1,1.6,0.3s0.8,0.5,1.1,0.8s0.4,0.7,0.5,1.2
		c0.1,0.3,0.1,0.8,0.1,1.5v5.7h-1.6v-5.7c0-0.6-0.1-1.1-0.2-1.4s-0.3-0.6-0.7-0.8c-0.3-0.2-0.7-0.3-1.1-0.3c-0.7,0-1.3,0.2-1.7,0.6
		s-0.7,1.2-0.7,2.4v5.1L245.4,146L245.4,146z"/>
	<path class="st3" d="M254.8,143.2l1.6-0.2c0.1,0.6,0.3,1.1,0.7,1.4s1,0.5,1.7,0.5s1.3-0.1,1.6-0.4s0.5-0.6,0.5-1s-0.2-0.6-0.5-0.8
		c-0.2-0.1-0.8-0.3-1.6-0.5c-1.2-0.3-2-0.5-2.4-0.8s-0.8-0.5-1-0.9s-0.3-0.8-0.3-1.3c0-0.4,0.1-0.8,0.3-1.2c0.2-0.4,0.4-0.6,0.8-0.9
		c0.2-0.2,0.6-0.3,1-0.5s0.9-0.2,1.4-0.2c0.7,0,1.4,0.1,1.9,0.3s1,0.5,1.2,0.9c0.3,0.4,0.4,0.8,0.5,1.4l-1.5,0.2
		c-0.1-0.5-0.3-0.9-0.6-1.1s-0.8-0.4-1.4-0.4c-0.7,0-1.2,0.1-1.6,0.4s-0.5,0.5-0.5,0.8c0,0.2,0.1,0.4,0.2,0.6
		c0.1,0.2,0.3,0.3,0.6,0.4c0.2,0.1,0.6,0.2,1.4,0.4c1.1,0.3,1.9,0.5,2.3,0.7s0.8,0.5,1,0.8s0.4,0.8,0.4,1.4c0,0.5-0.2,1-0.5,1.5
		s-0.8,0.8-1.3,1.1c-0.6,0.3-1.2,0.4-2,0.4c-1.2,0-2.1-0.3-2.8-0.8S255,144.2,254.8,143.2z"/>
	<path class="st3" d="M265.5,149.8h-1.1c1.8-2.8,2.6-5.6,2.6-8.4c0-1.1-0.1-2.2-0.4-3.3c-0.2-0.9-0.5-1.7-0.8-2.5
		c-0.2-0.5-0.7-1.4-1.4-2.6h1.1c1.1,1.5,1.9,2.9,2.4,4.4c0.5,1.3,0.7,2.6,0.7,4c0,1.6-0.3,3.1-0.9,4.6S266.3,148.7,265.5,149.8z"/>
</g>
<g class="st2">
	<path class="st3" d="M189.2,480.3v-11.5h7.7v1.4h-6.2v3.5h5.4v1.4h-5.4v5.2L189.2,480.3L189.2,480.3z"/>
	<path class="st3" d="M198.2,476.2c0-1.5,0.4-2.7,1.3-3.4c0.7-0.6,1.6-0.9,2.6-0.9c1.1,0,2.1,0.4,2.8,1.1c0.7,0.7,1.1,1.8,1.1,3.1
		c0,1.1-0.2,1.9-0.5,2.5s-0.8,1.1-1.4,1.4c-0.6,0.3-1.3,0.5-2,0.5c-1.2,0-2.1-0.4-2.8-1.1C198.6,478.6,198.2,477.6,198.2,476.2z
		 M199.6,476.2c0,1.1,0.2,1.9,0.7,2.4s1,0.8,1.8,0.8c0.7,0,1.3-0.3,1.7-0.8c0.5-0.5,0.7-1.3,0.7-2.4c0-1-0.2-1.8-0.7-2.3
		s-1-0.8-1.7-0.8s-1.3,0.3-1.8,0.8C199.9,474.3,199.6,475.1,199.6,476.2z"/>
	<path class="st3" d="M207.5,480.3V472h1.3v1.2c0.6-0.9,1.5-1.4,2.6-1.4c0.5,0,1,0.1,1.4,0.3c0.4,0.2,0.7,0.4,0.9,0.7s0.4,0.6,0.4,1
		c0.1,0.3,0.1,0.7,0.1,1.4v5.1H213v-5c0-0.6-0.1-1-0.2-1.3c-0.1-0.3-0.3-0.5-0.6-0.7s-0.6-0.3-1-0.3c-0.6,0-1.1,0.2-1.6,0.6
		c-0.4,0.4-0.7,1.1-0.7,2.2v4.5H207.5z"/>
	<path class="st3" d="M221.9,480.3v-1c-0.5,0.8-1.3,1.2-2.3,1.2c-0.7,0-1.3-0.2-1.8-0.5c-0.5-0.3-1-0.9-1.3-1.5
		c-0.3-0.6-0.5-1.4-0.5-2.3c0-0.8,0.1-1.6,0.4-2.3c0.3-0.7,0.7-1.2,1.2-1.6c0.6-0.4,1.2-0.5,1.9-0.5c0.5,0,0.9,0.1,1.3,0.3
		s0.7,0.5,1,0.8v-4.1h1.4v11.5L221.9,480.3L221.9,480.3z M217.5,476.2c0,1.1,0.2,1.9,0.7,2.4c0.4,0.5,1,0.8,1.6,0.8s1.1-0.3,1.6-0.8
		s0.6-1.3,0.6-2.3c0-1.1-0.2-2-0.7-2.5s-1-0.8-1.6-0.8s-1.1,0.3-1.6,0.8C217.7,474.3,217.5,475.1,217.5,476.2z"/>
	<path class="st3" d="M224.9,476.2c0-1.5,0.4-2.7,1.3-3.4c0.7-0.6,1.6-0.9,2.6-0.9c1.1,0,2.1,0.4,2.8,1.1s1.1,1.8,1.1,3.1
		c0,1.1-0.2,1.9-0.5,2.5s-0.8,1.1-1.4,1.4s-1.3,0.5-2,0.5c-1.2,0-2.1-0.4-2.8-1.1C225.3,478.6,224.9,477.6,224.9,476.2z
		 M226.3,476.2c0,1.1,0.2,1.9,0.7,2.4s1,0.8,1.8,0.8c0.7,0,1.3-0.3,1.7-0.8s0.7-1.3,0.7-2.4c0-1-0.2-1.8-0.7-2.3s-1-0.8-1.7-0.8
		s-1.3,0.3-1.8,0.8C226.5,474.3,226.3,475.1,226.3,476.2z"/>
	<path class="st3" d="M233.8,477.8l1.4-0.2c0.1,0.6,0.3,1,0.7,1.3s0.9,0.4,1.5,0.4s1.1-0.1,1.4-0.4s0.5-0.6,0.5-0.9
		c0-0.3-0.1-0.6-0.4-0.8c-0.2-0.1-0.7-0.3-1.4-0.5c-1-0.3-1.7-0.5-2.1-0.7s-0.7-0.5-0.9-0.8c-0.2-0.3-0.3-0.7-0.3-1.1
		c0-0.4,0.1-0.7,0.3-1c0.2-0.3,0.4-0.6,0.7-0.8c0.2-0.2,0.5-0.3,0.9-0.4s0.8-0.2,1.2-0.2c0.7,0,1.2,0.1,1.7,0.3s0.9,0.4,1.1,0.8
		c0.2,0.4,0.4,0.7,0.5,1.3l-1.4,0.2c-0.1-0.4-0.2-0.8-0.5-1c-0.3-0.2-0.7-0.4-1.3-0.4s-1.1,0.1-1.4,0.3s-0.4,0.5-0.4,0.8
		c0,0.2,0.1,0.3,0.2,0.5c0.1,0.2,0.3,0.3,0.5,0.4c0.1,0.1,0.6,0.2,1.2,0.4c1,0.3,1.7,0.5,2.1,0.7s0.7,0.4,0.9,0.7
		c0.2,0.3,0.3,0.7,0.3,1.2s-0.1,0.9-0.4,1.3c-0.3,0.4-0.7,0.7-1.2,1c-0.5,0.3-1.1,0.3-1.8,0.3c-1.1,0-1.9-0.2-2.5-0.7
		S233.9,478.7,233.8,477.8z"/>
	<path class="st3" d="M252,480.3v-1c-0.5,0.8-1.3,1.2-2.3,1.2c-0.7,0-1.3-0.2-1.8-0.5c-0.5-0.3-1-0.9-1.3-1.5
		c-0.3-0.6-0.5-1.4-0.5-2.3c0-0.8,0.1-1.6,0.4-2.3c0.3-0.7,0.7-1.2,1.2-1.6c0.5-0.4,1.2-0.5,1.9-0.5c0.5,0,0.9,0.1,1.3,0.3
		s0.7,0.5,1,0.8v-4.1h1.4v11.5L252,480.3L252,480.3z M247.7,476.2c0,1.1,0.2,1.9,0.7,2.4s1,0.8,1.6,0.8s1.1-0.3,1.6-0.8
		s0.6-1.3,0.6-2.3c0-1.1-0.2-2-0.7-2.5s-1-0.8-1.6-0.8s-1.1,0.3-1.6,0.8S247.7,475.1,247.7,476.2z"/>
	<path class="st3" d="M261.3,477.6l1.5,0.2c-0.2,0.8-0.7,1.5-1.3,2s-1.4,0.7-2.4,0.7c-1.2,0-2.2-0.4-2.9-1.1s-1.1-1.8-1.1-3.1
		c0-1.4,0.4-2.5,1.1-3.3c0.7-0.8,1.7-1.2,2.8-1.2s2,0.4,2.7,1.1s1.1,1.8,1.1,3.2c0,0.1,0,0.2,0,0.4h-6.2c0.1,0.9,0.3,1.6,0.8,2.1
		s1,0.7,1.7,0.7c0.5,0,1-0.1,1.3-0.4S261,478.2,261.3,477.6z M256.7,475.4h4.6c-0.1-0.7-0.2-1.2-0.5-1.6c-0.4-0.5-1-0.8-1.7-0.8
		c-0.6,0-1.2,0.2-1.6,0.6S256.8,474.6,256.7,475.4z"/>
	<path class="st3" d="M269,480.3v-11.5h1.4v11.5H269z"/>
	<path class="st3" d="M272,476.2c0-1.5,0.4-2.7,1.3-3.4c0.7-0.6,1.6-0.9,2.6-0.9c1.1,0,2.1,0.4,2.8,1.1s1.1,1.8,1.1,3.1
		c0,1.1-0.2,1.9-0.5,2.5s-0.8,1.1-1.4,1.4s-1.3,0.5-2,0.5c-1.2,0-2.1-0.4-2.8-1.1S272,477.6,272,476.2z M273.5,476.2
		c0,1.1,0.2,1.9,0.7,2.4s1,0.8,1.8,0.8c0.7,0,1.3-0.3,1.7-0.8s0.7-1.3,0.7-2.4c0-1-0.2-1.8-0.7-2.3s-1-0.8-1.7-0.8s-1.3,0.3-1.8,0.8
		S273.5,475.1,273.5,476.2z"/>
	<path class="st3" d="M280.9,477.8l1.4-0.2c0.1,0.6,0.3,1,0.7,1.3s0.9,0.4,1.5,0.4s1.1-0.1,1.4-0.4s0.5-0.6,0.5-0.9
		c0-0.3-0.1-0.6-0.4-0.8c-0.2-0.1-0.7-0.3-1.4-0.5c-1-0.3-1.7-0.5-2.1-0.7s-0.7-0.5-0.9-0.8c-0.2-0.3-0.3-0.7-0.3-1.1
		c0-0.4,0.1-0.7,0.3-1c0.2-0.3,0.4-0.6,0.7-0.8c0.2-0.2,0.5-0.3,0.9-0.4s0.8-0.2,1.2-0.2c0.7,0,1.2,0.1,1.7,0.3s0.9,0.4,1.1,0.8
		c0.2,0.4,0.4,0.7,0.5,1.3l-1.4,0.2c-0.1-0.4-0.2-0.8-0.5-1c-0.3-0.2-0.7-0.4-1.3-0.4s-1.1,0.1-1.4,0.3s-0.4,0.5-0.4,0.8
		c0,0.2,0.1,0.3,0.2,0.5c0.1,0.2,0.3,0.3,0.5,0.4c0.1,0.1,0.6,0.2,1.2,0.4c1,0.3,1.7,0.5,2.1,0.7s0.7,0.4,0.9,0.7
		c0.2,0.3,0.3,0.7,0.3,1.2s-0.1,0.9-0.4,1.3c-0.3,0.4-0.7,0.7-1.2,1c-0.5,0.3-1.1,0.3-1.8,0.3c-1.1,0-1.9-0.2-2.5-0.7
		S281,478.7,280.9,477.8z"/>
	<path class="st3" d="M295.2,480.3h-1.3v-11.5h1.4v4.1c0.6-0.7,1.4-1.1,2.3-1.1c0.5,0,1,0.1,1.4,0.3c0.4,0.2,0.8,0.5,1.1,0.9
		c0.3,0.4,0.5,0.8,0.7,1.3s0.3,1.1,0.3,1.7c0,1.4-0.4,2.5-1.1,3.3s-1.5,1.2-2.5,1.2s-1.7-0.4-2.3-1.2L295.2,480.3L295.2,480.3z
		 M295.2,476.1c0,1,0.1,1.7,0.4,2.2c0.4,0.7,1,1.1,1.8,1.1c0.6,0,1.1-0.3,1.6-0.8s0.7-1.3,0.7-2.4c0-1.1-0.2-1.9-0.6-2.4
		s-0.9-0.8-1.6-0.8c-0.6,0-1.1,0.3-1.6,0.8S295.2,475.1,295.2,476.1z"/>
	<path class="st3" d="M302.8,470.5v-1.6h1.4v1.6H302.8z M302.8,480.3V472h1.4v8.3H302.8z"/>
	<path class="st3" d="M312,477.6l1.5,0.2c-0.2,0.8-0.7,1.5-1.3,2s-1.4,0.7-2.4,0.7c-1.2,0-2.2-0.4-2.9-1.1s-1.1-1.8-1.1-3.1
		c0-1.4,0.4-2.5,1.1-3.3c0.7-0.8,1.7-1.2,2.8-1.2s2,0.4,2.7,1.1s1.1,1.8,1.1,3.2c0,0.1,0,0.2,0,0.4h-6.2c0.1,0.9,0.3,1.6,0.8,2.1
		s1,0.7,1.7,0.7c0.5,0,1-0.1,1.3-0.4S311.8,478.2,312,477.6z M307.4,475.4h4.6c-0.1-0.7-0.2-1.2-0.5-1.6c-0.4-0.5-1-0.8-1.7-0.8
		c-0.6,0-1.2,0.2-1.6,0.6S307.5,474.6,307.4,475.4z"/>
	<path class="st3" d="M315.3,480.3V472h1.3v1.2c0.6-0.9,1.5-1.4,2.6-1.4c0.5,0,1,0.1,1.4,0.3c0.4,0.2,0.7,0.4,0.9,0.7s0.4,0.6,0.4,1
		c0.1,0.3,0.1,0.7,0.1,1.4v5.1h-1.4v-5c0-0.6-0.1-1-0.2-1.3c-0.1-0.3-0.3-0.5-0.6-0.7s-0.6-0.3-1-0.3c-0.6,0-1.1,0.2-1.6,0.6
		c-0.5,0.4-0.7,1.1-0.7,2.2v4.5H315.3z"/>
	<path class="st3" d="M329.8,477.6l1.5,0.2c-0.2,0.8-0.7,1.5-1.3,2s-1.4,0.7-2.4,0.7c-1.2,0-2.2-0.4-2.9-1.1s-1.1-1.8-1.1-3.1
		c0-1.4,0.4-2.5,1.1-3.3c0.7-0.8,1.7-1.2,2.8-1.2s2,0.4,2.7,1.1s1.1,1.8,1.1,3.2c0,0.1,0,0.2,0,0.4H325c0.1,0.9,0.3,1.6,0.8,2.1
		s1,0.7,1.7,0.7c0.5,0,1-0.1,1.3-0.4S329.5,478.2,329.8,477.6z M325.2,475.4h4.6c-0.1-0.7-0.2-1.2-0.5-1.6c-0.4-0.5-1-0.8-1.7-0.8
		c-0.6,0-1.2,0.2-1.6,0.6S325.3,474.6,325.2,475.4z"/>
	<path class="st3" d="M332.5,477.8l1.4-0.2c0.1,0.6,0.3,1,0.7,1.3s0.9,0.4,1.5,0.4s1.1-0.1,1.4-0.4s0.5-0.6,0.5-0.9
		c0-0.3-0.1-0.6-0.4-0.8c-0.2-0.1-0.7-0.3-1.4-0.5c-1-0.3-1.7-0.5-2.1-0.7s-0.7-0.5-0.9-0.8c-0.2-0.3-0.3-0.7-0.3-1.1
		c0-0.4,0.1-0.7,0.3-1c0.2-0.3,0.4-0.6,0.7-0.8c0.2-0.2,0.5-0.3,0.9-0.4s0.8-0.2,1.2-0.2c0.7,0,1.2,0.1,1.7,0.3s0.9,0.4,1.1,0.8
		c0.2,0.4,0.4,0.7,0.5,1.3l-1.4,0.2c-0.1-0.4-0.2-0.8-0.5-1c-0.3-0.2-0.7-0.4-1.3-0.4s-1.1,0.1-1.4,0.3s-0.4,0.5-0.4,0.8
		c0,0.2,0.1,0.3,0.2,0.5c0.1,0.2,0.3,0.3,0.5,0.4c0.1,0.1,0.6,0.2,1.2,0.4c1,0.3,1.7,0.5,2.1,0.7s0.7,0.4,0.9,0.7
		c0.2,0.3,0.3,0.7,0.3,1.2s-0.1,0.9-0.4,1.3c-0.3,0.4-0.7,0.7-1.2,1c-0.5,0.3-1.1,0.3-1.8,0.3c-1.1,0-1.9-0.2-2.5-0.7
		S332.5,478.7,332.5,477.8z"/>
	<path class="st3" d="M345.5,470.5v-1.6h1.4v1.6H345.5z M345.5,480.3V472h1.4v8.3H345.5z"/>
	<path class="st3" d="M349,480.3V472h1.3v1.2c0.6-0.9,1.5-1.4,2.6-1.4c0.5,0,1,0.1,1.4,0.3c0.4,0.2,0.7,0.4,0.9,0.7s0.4,0.6,0.4,1
		c0.1,0.3,0.1,0.7,0.1,1.4v5.1h-1.4v-5c0-0.6-0.1-1-0.2-1.3c-0.1-0.3-0.3-0.5-0.6-0.7s-0.6-0.3-1-0.3c-0.6,0-1.1,0.2-1.6,0.6
		c-0.5,0.4-0.7,1.1-0.7,2.2v4.5H349z"/>
	<path class="st3" d="M358,480.3V472h1.3v1.2c0.3-0.4,0.6-0.7,1-1s0.9-0.4,1.5-0.4s1.1,0.1,1.5,0.4s0.7,0.6,0.8,1.1
		c0.7-1,1.5-1.5,2.6-1.5c0.8,0,1.5,0.2,1.9,0.7s0.7,1.2,0.7,2.1v5.7h-1.4v-5.2c0-0.6,0-1-0.1-1.2s-0.3-0.4-0.5-0.6s-0.5-0.2-0.8-0.2
		c-0.6,0-1.1,0.2-1.5,0.6c-0.4,0.4-0.6,1-0.6,1.9v4.8H363V475c0-0.6-0.1-1.1-0.3-1.4s-0.6-0.5-1.1-0.5c-0.4,0-0.8,0.1-1.1,0.3
		c-0.3,0.2-0.6,0.5-0.7,0.9c-0.1,0.4-0.2,1-0.2,1.7v4.3L358,480.3L358,480.3z"/>
	<path class="st3" d="M376.7,480.3v-1.2c-0.6,0.9-1.5,1.4-2.6,1.4c-0.5,0-0.9-0.1-1.4-0.3s-0.7-0.4-0.9-0.7c-0.2-0.3-0.4-0.6-0.4-1
		c-0.1-0.3-0.1-0.7-0.1-1.3v-5.1h1.4v4.6c0,0.7,0,1.2,0.1,1.5c0.1,0.4,0.3,0.7,0.6,0.9s0.6,0.3,1.1,0.3s0.8-0.1,1.2-0.3
		s0.6-0.5,0.8-0.9s0.2-0.9,0.2-1.6v-4.4h1.4v8.3h-1.4V480.3z"/>
	<path class="st3" d="M385.9,477.6l1.5,0.2c-0.2,0.8-0.7,1.5-1.3,2s-1.4,0.7-2.4,0.7c-1.2,0-2.2-0.4-2.9-1.1s-1.1-1.8-1.1-3.1
		c0-1.4,0.4-2.5,1.1-3.3c0.7-0.8,1.7-1.2,2.8-1.2s2,0.4,2.7,1.1s1.1,1.8,1.1,3.2c0,0.1,0,0.2,0,0.4h-6.2c0.1,0.9,0.3,1.6,0.8,2.1
		s1,0.7,1.7,0.7c0.5,0,1-0.1,1.3-0.4S385.5,478.2,385.9,477.6z M381.2,475.4h4.6c-0.1-0.7-0.2-1.2-0.5-1.6c-0.4-0.5-1-0.8-1.7-0.8
		c-0.6,0-1.2,0.2-1.6,0.6S381.3,474.6,381.2,475.4z"/>
	<path class="st3" d="M390.4,480.3h-1.3v-11.5h1.4v4.1c0.6-0.7,1.4-1.1,2.3-1.1c0.5,0,1,0.1,1.4,0.3c0.4,0.2,0.8,0.5,1.1,0.9
		c0.3,0.4,0.5,0.8,0.7,1.3s0.3,1.1,0.3,1.7c0,1.4-0.4,2.5-1.1,3.3s-1.5,1.2-2.5,1.2s-1.7-0.4-2.3-1.2L390.4,480.3L390.4,480.3z
		 M390.4,476.1c0,1,0.1,1.7,0.4,2.2c0.4,0.7,1,1.1,1.8,1.1c0.6,0,1.1-0.3,1.6-0.8s0.7-1.3,0.7-2.4c0-1.1-0.2-1.9-0.6-2.4
		s-0.9-0.8-1.6-0.8c-0.6,0-1.1,0.3-1.6,0.8S390.4,475.1,390.4,476.1z"/>
	<path class="st3" d="M397.9,480.3v-11.5h1.4v11.5H397.9z"/>
	<path class="st3" d="M407.2,477.6l1.5,0.2c-0.2,0.8-0.7,1.5-1.3,2s-1.4,0.7-2.4,0.7c-1.2,0-2.2-0.4-2.9-1.1s-1.1-1.8-1.1-3.1
		c0-1.4,0.4-2.5,1.1-3.3c0.7-0.8,1.7-1.2,2.8-1.2s2,0.4,2.7,1.1s1.1,1.8,1.1,3.2c0,0.1,0,0.2,0,0.4h-6.2c0.1,0.9,0.3,1.6,0.8,2.1
		s1,0.7,1.7,0.7c0.5,0,1-0.1,1.3-0.4S407,478.2,407.2,477.6z M402.5,475.4h4.6c-0.1-0.7-0.2-1.2-0.5-1.6c-0.4-0.5-1-0.8-1.7-0.8
		c-0.6,0-1.2,0.2-1.6,0.6S402.5,474.6,402.5,475.4z"/>
	<path class="st3" d="M409.9,477.8l1.4-0.2c0.1,0.6,0.3,1,0.7,1.3s0.9,0.4,1.5,0.4s1.1-0.1,1.4-0.4s0.5-0.6,0.5-0.9
		c0-0.3-0.1-0.6-0.4-0.8c-0.2-0.1-0.7-0.3-1.4-0.5c-1-0.3-1.7-0.5-2.1-0.7s-0.7-0.5-0.9-0.8c-0.2-0.3-0.3-0.7-0.3-1.1
		c0-0.4,0.1-0.7,0.3-1c0.2-0.3,0.4-0.6,0.7-0.8c0.2-0.2,0.5-0.3,0.9-0.4s0.8-0.2,1.2-0.2c0.7,0,1.2,0.1,1.7,0.3s0.9,0.4,1.1,0.8
		c0.2,0.4,0.4,0.7,0.5,1.3l-1.4,0.2c-0.1-0.4-0.2-0.8-0.5-1c-0.3-0.2-0.7-0.4-1.3-0.4s-1.1,0.1-1.4,0.3s-0.4,0.5-0.4,0.8
		c0,0.2,0.1,0.3,0.2,0.5c0.1,0.2,0.3,0.3,0.5,0.4c0.1,0.1,0.6,0.2,1.2,0.4c1,0.3,1.7,0.5,2.1,0.7s0.7,0.4,0.9,0.7
		c0.2,0.3,0.3,0.7,0.3,1.2s-0.1,0.9-0.4,1.3c-0.3,0.4-0.7,0.7-1.2,1c-0.5,0.3-1.1,0.3-1.8,0.3c-1.1,0-1.9-0.2-2.5-0.7
		S410,478.7,409.9,477.8z"/>
	<path class="st3" d="M422.5,481l1.4,0.2c0.1,0.4,0.2,0.7,0.5,0.9c0.3,0.3,0.8,0.4,1.4,0.4c0.7,0,1.2-0.1,1.5-0.4s0.6-0.6,0.7-1.1
		c0.1-0.3,0.1-0.9,0.1-1.8c-0.6,0.7-1.4,1.1-2.3,1.1c-1.1,0-2-0.4-2.6-1.2s-0.9-1.8-0.9-3c0-0.8,0.1-1.5,0.4-2.2
		c0.3-0.7,0.7-1.2,1.2-1.6c0.5-0.4,1.2-0.5,1.9-0.5c1,0,1.8,0.4,2.4,1.2v-1h1.3v7.2c0,1.3-0.1,2.2-0.4,2.7s-0.7,1-1.3,1.3
		c-0.6,0.3-1.3,0.5-2.1,0.5c-1,0-1.8-0.2-2.4-0.7S422.5,481.9,422.5,481z M423.8,476c0,1.1,0.2,1.9,0.6,2.4s1,0.8,1.6,0.8
		s1.2-0.2,1.6-0.7s0.7-1.3,0.7-2.3s-0.2-1.8-0.7-2.3s-1-0.8-1.6-0.8s-1.2,0.3-1.6,0.8S423.8,475,423.8,476z"/>
	<path class="st3" d="M431.7,480.3v-11.5h1.4v11.5H431.7z"/>
	<path class="st3" d="M434.8,476.2c0-1.5,0.4-2.7,1.3-3.4c0.7-0.6,1.6-0.9,2.6-0.9c1.1,0,2.1,0.4,2.8,1.1s1.1,1.8,1.1,3.1
		c0,1.1-0.2,1.9-0.5,2.5s-0.8,1.1-1.4,1.4s-1.3,0.5-2,0.5c-1.2,0-2.1-0.4-2.8-1.1S434.8,477.6,434.8,476.2z M436.3,476.2
		c0,1.1,0.2,1.9,0.7,2.4s1,0.8,1.8,0.8c0.7,0,1.3-0.3,1.7-0.8s0.7-1.3,0.7-2.4c0-1-0.2-1.8-0.7-2.3s-1-0.8-1.7-0.8s-1.3,0.3-1.8,0.8
		S436.3,475.1,436.3,476.2z"/>
	<path class="st3" d="M445.5,480.3h-1.3v-11.5h1.4v4.1c0.6-0.7,1.4-1.1,2.3-1.1c0.5,0,1,0.1,1.4,0.3c0.4,0.2,0.8,0.5,1.1,0.9
		c0.3,0.4,0.5,0.8,0.7,1.3s0.3,1.1,0.3,1.7c0,1.4-0.4,2.5-1.1,3.3s-1.5,1.2-2.5,1.2s-1.7-0.4-2.3-1.2L445.5,480.3L445.5,480.3z
		 M445.5,476.1c0,1,0.1,1.7,0.4,2.2c0.4,0.7,1,1.1,1.8,1.1c0.6,0,1.1-0.3,1.6-0.8s0.7-1.3,0.7-2.4c0-1.1-0.2-1.9-0.6-2.4
		s-0.9-0.8-1.6-0.8c-0.6,0-1.1,0.3-1.6,0.8S445.5,475.1,445.5,476.1z"/>
	<path class="st3" d="M458.5,479.3c-0.5,0.4-1,0.8-1.5,0.9s-1,0.3-1.6,0.3c-0.9,0-1.6-0.2-2.1-0.7s-0.7-1-0.7-1.7
		c0-0.4,0.1-0.8,0.3-1.1c0.2-0.3,0.4-0.6,0.7-0.8s0.6-0.4,1-0.5c0.3-0.1,0.7-0.1,1.3-0.2c1.1-0.1,2-0.3,2.5-0.5c0-0.2,0-0.3,0-0.4
		c0-0.6-0.1-1-0.4-1.2c-0.4-0.3-0.9-0.5-1.6-0.5c-0.7,0-1.1,0.1-1.5,0.3c-0.4,0.2-0.5,0.6-0.7,1.2l-1.4-0.2c0.1-0.6,0.3-1.1,0.6-1.4
		s0.7-0.6,1.2-0.8s1.2-0.3,1.9-0.3s1.3,0.1,1.7,0.3s0.8,0.4,1,0.6s0.4,0.6,0.4,1c0,0.2,0.1,0.7,0.1,1.3v1.9c0,1.3,0,2.1,0.1,2.5
		c0.1,0.4,0.2,0.7,0.4,1h-1.5C458.7,480,458.5,479.7,458.5,479.3z M458.4,476.1c-0.5,0.2-1.3,0.4-2.3,0.5c-0.6,0.1-1,0.2-1.2,0.3
		c-0.2,0.1-0.4,0.3-0.6,0.5c-0.2,0.2-0.2,0.4-0.2,0.7c0,0.4,0.1,0.7,0.4,0.9s0.7,0.4,1.2,0.4s1-0.1,1.4-0.4s0.7-0.6,0.9-1
		c0.2-0.3,0.2-0.8,0.2-1.4v-0.5H458.4z"/>
	<path class="st3" d="M462,480.3v-11.5h1.4v11.5H462z"/>
	<path class="st3" d="M471.3,477.6l1.5,0.2c-0.2,0.8-0.7,1.5-1.3,2s-1.4,0.7-2.4,0.7c-1.2,0-2.2-0.4-2.9-1.1s-1.1-1.8-1.1-3.1
		c0-1.4,0.4-2.5,1.1-3.3c0.7-0.8,1.7-1.2,2.8-1.2s2,0.4,2.7,1.1s1.1,1.8,1.1,3.2c0,0.1,0,0.2,0,0.4h-6.2c0.1,0.9,0.3,1.6,0.8,2.1
		s1,0.7,1.7,0.7c0.5,0,1-0.1,1.3-0.4S471,478.2,471.3,477.6z M466.5,475.4h4.6c-0.1-0.7-0.2-1.2-0.5-1.6c-0.4-0.5-1-0.8-1.7-0.8
		c-0.6,0-1.2,0.2-1.6,0.6S466.7,474.6,466.5,475.4z"/>
	<path class="st3" d="M473.9,477.8l1.4-0.2c0.1,0.6,0.3,1,0.7,1.3s0.9,0.4,1.5,0.4s1.1-0.1,1.4-0.4s0.5-0.6,0.5-0.9
		c0-0.3-0.1-0.6-0.4-0.8c-0.2-0.1-0.7-0.3-1.4-0.5c-1-0.3-1.7-0.5-2.1-0.7s-0.7-0.5-0.9-0.8c-0.2-0.3-0.3-0.7-0.3-1.1
		c0-0.4,0.1-0.7,0.3-1c0.2-0.3,0.4-0.6,0.7-0.8c0.2-0.2,0.5-0.3,0.9-0.4s0.8-0.2,1.2-0.2c0.7,0,1.2,0.1,1.7,0.3s0.9,0.4,1.1,0.8
		c0.2,0.4,0.4,0.7,0.5,1.3l-1.4,0.2c-0.1-0.4-0.2-0.8-0.5-1c-0.3-0.2-0.7-0.4-1.3-0.4s-1.1,0.1-1.4,0.3s-0.4,0.5-0.4,0.8
		c0,0.2,0.1,0.3,0.2,0.5c0.1,0.2,0.3,0.3,0.5,0.4c0.1,0.1,0.6,0.2,1.2,0.4c1,0.3,1.7,0.5,2.1,0.7s0.7,0.4,0.9,0.7
		c0.2,0.3,0.3,0.7,0.3,1.2s-0.1,0.9-0.4,1.3c-0.3,0.4-0.7,0.7-1.2,1c-0.5,0.3-1.1,0.3-1.8,0.3c-1.1,0-1.9-0.2-2.5-0.7
		S474,478.7,473.9,477.8z"/>
	<path class="st3" d="M492.3,480.3v-1c-0.5,0.8-1.3,1.2-2.3,1.2c-0.7,0-1.3-0.2-1.8-0.5c-0.5-0.3-1-0.9-1.3-1.5
		c-0.3-0.6-0.5-1.4-0.5-2.3c0-0.8,0.1-1.6,0.4-2.3c0.3-0.7,0.7-1.2,1.2-1.6c0.5-0.4,1.2-0.5,1.9-0.5c0.5,0,0.9,0.1,1.3,0.3
		s0.7,0.5,1,0.8v-4.1h1.4v11.5L492.3,480.3L492.3,480.3z M487.9,476.2c0,1.1,0.2,1.9,0.7,2.4s1,0.8,1.6,0.8s1.1-0.3,1.6-0.8
		s0.6-1.3,0.6-2.3c0-1.1-0.2-2-0.7-2.5s-1-0.8-1.6-0.8s-1.1,0.3-1.6,0.8S487.9,475.1,487.9,476.2z"/>
	<path class="st3" d="M501.5,477.6l1.5,0.2c-0.2,0.8-0.7,1.5-1.3,2s-1.4,0.7-2.4,0.7c-1.2,0-2.2-0.4-2.9-1.1s-1.1-1.8-1.1-3.1
		c0-1.4,0.4-2.5,1.1-3.3c0.7-0.8,1.7-1.2,2.8-1.2s2,0.4,2.7,1.1s1.1,1.8,1.1,3.2c0,0.1,0,0.2,0,0.4h-6.2c0.1,0.9,0.3,1.6,0.8,2.1
		s1,0.7,1.7,0.7c0.5,0,1-0.1,1.3-0.4S501.3,478.2,501.5,477.6z M496.9,475.4h4.6c-0.1-0.7-0.2-1.2-0.5-1.6c-0.4-0.5-1-0.8-1.7-0.8
		c-0.6,0-1.2,0.2-1.6,0.6S496.9,474.6,496.9,475.4z"/>
	<path class="st3" d="M509.4,480.3v-11.5h1.5v4.7h6v-4.7h1.5v11.5h-1.5v-5.4h-6v5.4H509.4z"/>
	<path class="st3" d="M520.2,476.2c0-1.5,0.4-2.7,1.3-3.4c0.7-0.6,1.6-0.9,2.6-0.9c1.1,0,2.1,0.4,2.8,1.1s1.1,1.8,1.1,3.1
		c0,1.1-0.2,1.9-0.5,2.5s-0.8,1.1-1.4,1.4s-1.3,0.5-2,0.5c-1.2,0-2.1-0.4-2.8-1.1S520.2,477.6,520.2,476.2z M521.5,476.2
		c0,1.1,0.2,1.9,0.7,2.4s1,0.8,1.8,0.8c0.7,0,1.3-0.3,1.7-0.8s0.7-1.3,0.7-2.4c0-1-0.2-1.8-0.7-2.3s-1-0.8-1.7-0.8s-1.3,0.3-1.8,0.8
		S521.5,475.1,521.5,476.2z"/>
	<path class="st3" d="M535,480.3v-1.2c-0.6,0.9-1.5,1.4-2.6,1.4c-0.5,0-0.9-0.1-1.4-0.3s-0.7-0.4-0.9-0.7c-0.2-0.3-0.4-0.6-0.4-1
		c-0.1-0.3-0.1-0.7-0.1-1.3v-5.1h1.4v4.6c0,0.7,0,1.2,0.1,1.5c0.1,0.4,0.3,0.7,0.6,0.9s0.6,0.3,1.1,0.3s0.8-0.1,1.2-0.3
		s0.6-0.5,0.8-0.9s0.2-0.9,0.2-1.6v-4.4h1.4v8.3H535V480.3z"/>
	<path class="st3" d="M538,477.8l1.4-0.2c0.1,0.6,0.3,1,0.7,1.3s0.9,0.4,1.5,0.4s1.1-0.1,1.4-0.4s0.5-0.6,0.5-0.9
		c0-0.3-0.1-0.6-0.4-0.8c-0.2-0.1-0.7-0.3-1.4-0.5c-1-0.3-1.7-0.5-2.1-0.7s-0.7-0.5-0.9-0.8c-0.2-0.3-0.3-0.7-0.3-1.1
		c0-0.4,0.1-0.7,0.3-1c0.2-0.3,0.4-0.6,0.7-0.8c0.2-0.2,0.5-0.3,0.9-0.4s0.8-0.2,1.2-0.2c0.7,0,1.2,0.1,1.7,0.3s0.9,0.4,1.1,0.8
		c0.2,0.4,0.4,0.7,0.5,1.3l-1.4,0.2c-0.1-0.4-0.2-0.8-0.5-1c-0.3-0.2-0.7-0.4-1.3-0.4s-1.1,0.1-1.4,0.3s-0.4,0.5-0.4,0.8
		c0,0.2,0.1,0.3,0.2,0.5c0.1,0.2,0.3,0.3,0.5,0.4c0.1,0.1,0.6,0.2,1.2,0.4c1,0.3,1.7,0.5,2.1,0.7s0.7,0.4,0.9,0.7
		c0.2,0.3,0.3,0.7,0.3,1.2s-0.1,0.9-0.4,1.3c-0.3,0.4-0.7,0.7-1.2,1c-0.5,0.3-1.1,0.3-1.8,0.3c-1.1,0-1.9-0.2-2.5-0.7
		S538,478.7,538,477.8z"/>
	<path class="st3" d="M552.2,477.6l1.5,0.2c-0.2,0.8-0.7,1.5-1.3,2s-1.4,0.7-2.4,0.7c-1.2,0-2.2-0.4-2.9-1.1s-1.1-1.8-1.1-3.1
		c0-1.4,0.4-2.5,1.1-3.3c0.7-0.8,1.7-1.2,2.8-1.2s2,0.4,2.7,1.1s1.1,1.8,1.1,3.2c0,0.1,0,0.2,0,0.4h-6.2c0.1,0.9,0.3,1.6,0.8,2.1
		s1,0.7,1.7,0.7c0.5,0,1-0.1,1.3-0.4S552,478.2,552.2,477.6z M547.5,475.4h4.6c-0.1-0.7-0.2-1.2-0.5-1.6c-0.4-0.5-1-0.8-1.7-0.8
		c-0.6,0-1.2,0.2-1.6,0.6S547.5,474.6,547.5,475.4z"/>
	<path class="st3" d="M558.5,480.3v-10.1h-3.8v-1.4h9.1v1.4H560v10.1H558.5z"/>
	<path class="st3" d="M562.9,476.2c0-1.5,0.4-2.7,1.3-3.4c0.7-0.6,1.6-0.9,2.6-0.9c1.1,0,2.1,0.4,2.8,1.1s1.1,1.8,1.1,3.1
		c0,1.1-0.2,1.9-0.5,2.5s-0.8,1.1-1.4,1.4s-1.3,0.5-2,0.5c-1.2,0-2.1-0.4-2.8-1.1S562.9,477.6,562.9,476.2z M564.3,476.2
		c0,1.1,0.2,1.9,0.7,2.4s1,0.8,1.8,0.8c0.7,0,1.3-0.3,1.7-0.8s0.7-1.3,0.7-2.4c0-1-0.2-1.8-0.7-2.3s-1-0.8-1.7-0.8s-1.3,0.3-1.8,0.8
		S564.3,475.1,564.3,476.2z"/>
	<path class="st3" d="M572.3,480.3v-11.5h1.4v6.5l3.3-3.4h1.8l-3.2,3.1l3.5,5.2h-1.7l-2.7-4.2l-1,1v3.3L572.3,480.3L572.3,480.3z"/>
	<path class="st3" d="M586,477.6l1.5,0.2c-0.2,0.8-0.7,1.5-1.3,2s-1.4,0.7-2.4,0.7c-1.2,0-2.2-0.4-2.9-1.1s-1.1-1.8-1.1-3.1
		c0-1.4,0.4-2.5,1.1-3.3c0.7-0.8,1.7-1.2,2.8-1.2s2,0.4,2.7,1.1s1.1,1.8,1.1,3.2c0,0.1,0,0.2,0,0.4h-6.2c0.1,0.9,0.3,1.6,0.8,2.1
		s1,0.7,1.7,0.7c0.5,0,1-0.1,1.3-0.4S585.8,478.2,586,477.6z M581.4,475.4h4.6c-0.1-0.7-0.2-1.2-0.5-1.6c-0.4-0.5-1-0.8-1.7-0.8
		c-0.6,0-1.2,0.2-1.6,0.6S581.4,474.6,581.4,475.4z"/>
	<path class="st3" d="M589.2,480.3V472h1.3v1.2c0.6-0.9,1.5-1.4,2.6-1.4c0.5,0,1,0.1,1.4,0.3c0.4,0.2,0.7,0.4,0.9,0.7s0.4,0.6,0.4,1
		c0.1,0.3,0.1,0.7,0.1,1.4v5.1h-1.4v-5c0-0.6-0.1-1-0.2-1.3c-0.1-0.3-0.3-0.5-0.6-0.7s-0.6-0.3-1-0.3c-0.6,0-1.1,0.2-1.6,0.6
		c-0.5,0.4-0.7,1.1-0.7,2.2v4.5H589.2z"/>
	<path class="st3" d="M279.3,502.9c-0.8-1-1.4-2.1-2-3.4s-0.8-2.7-0.8-4.1c0-1.2,0.2-2.4,0.6-3.6c0.5-1.3,1.2-2.6,2.2-3.9h1
		c-0.6,1.1-1,1.9-1.3,2.3c-0.3,0.7-0.6,1.5-0.8,2.3c-0.2,1-0.3,2-0.3,2.9c0,2.5,0.8,5,2.3,7.5H279.3z"/>
	<path class="st3" d="M282.2,499.5V488h7.7v1.4h-6.2v3.5h5.4v1.4h-5.4v5.2H282.2L282.2,499.5z"/>
	<path class="st3" d="M297,499.5v-1.2c-0.6,0.9-1.5,1.4-2.6,1.4c-0.5,0-0.9-0.1-1.4-0.3c-0.5-0.2-0.7-0.4-0.9-0.7s-0.4-0.6-0.4-1
		c-0.1-0.3-0.1-0.7-0.1-1.3v-5.1h1.4v4.6c0,0.7,0,1.2,0.1,1.5c0.1,0.4,0.3,0.7,0.6,0.9c0.3,0.2,0.6,0.3,1.1,0.3s0.8-0.1,1.2-0.3
		c0.4-0.2,0.6-0.5,0.8-0.9c0.2-0.4,0.2-0.9,0.2-1.6v-4.4h1.4v8.3H297V499.5z"/>
	<path class="st3" d="M300.5,499.5v-8.3h1.3v1.2c0.6-0.9,1.5-1.4,2.6-1.4c0.5,0,1,0.1,1.4,0.3s0.7,0.4,0.9,0.7
		c0.2,0.3,0.4,0.6,0.4,1c0.1,0.3,0.1,0.7,0.1,1.4v5.1h-1.4v-5c0-0.6-0.1-1-0.2-1.3s-0.3-0.5-0.6-0.7c-0.3-0.2-0.6-0.3-1-0.3
		c-0.6,0-1.1,0.2-1.6,0.6s-0.7,1.1-0.7,2.2v4.5H300.5z"/>
	<path class="st3" d="M314.9,499.5v-1c-0.5,0.8-1.3,1.2-2.3,1.2c-0.7,0-1.3-0.2-1.8-0.5s-1-0.9-1.3-1.5s-0.5-1.4-0.5-2.3
		c0-0.8,0.1-1.6,0.4-2.3s0.7-1.2,1.2-1.6s1.2-0.5,1.9-0.5c0.5,0,0.9,0.1,1.3,0.3c0.4,0.2,0.7,0.5,1,0.8V488h1.4v11.5H314.9
		L314.9,499.5z M310.4,495.4c0,1.1,0.2,1.9,0.7,2.4s1,0.8,1.6,0.8s1.1-0.3,1.6-0.8s0.6-1.3,0.6-2.3c0-1.1-0.2-2-0.7-2.5
		s-1-0.8-1.6-0.8s-1.1,0.3-1.6,0.8S310.4,494.3,310.4,495.4z"/>
	<path class="st3" d="M323.8,498.5c-0.5,0.4-1,0.8-1.5,0.9c-0.5,0.1-1,0.3-1.6,0.3c-0.9,0-1.6-0.2-2.1-0.7s-0.7-1-0.7-1.7
		c0-0.4,0.1-0.8,0.3-1.1s0.4-0.6,0.7-0.8c0.3-0.2,0.6-0.4,1-0.5c0.3-0.1,0.7-0.1,1.3-0.2c1.1-0.1,2-0.3,2.5-0.5c0-0.2,0-0.3,0-0.4
		c0-0.6-0.1-1-0.4-1.2c-0.4-0.3-0.9-0.5-1.6-0.5c-0.7,0-1.1,0.1-1.5,0.3s-0.5,0.6-0.7,1.2l-1.4-0.2c0.1-0.6,0.3-1.1,0.6-1.4
		s0.7-0.6,1.2-0.8c0.5-0.2,1.2-0.3,1.9-0.3s1.3,0.1,1.7,0.3c0.4,0.2,0.8,0.4,1,0.6s0.4,0.6,0.4,1c0,0.2,0.1,0.7,0.1,1.3v1.9
		c0,1.3,0,2.1,0.1,2.5s0.2,0.7,0.4,1H324C323.9,499.2,323.8,498.9,323.8,498.5z M323.7,495.3c-0.5,0.2-1.3,0.4-2.3,0.5
		c-0.6,0.1-1,0.2-1.2,0.3c-0.2,0.1-0.4,0.3-0.6,0.5c-0.2,0.2-0.2,0.4-0.2,0.7c0,0.4,0.1,0.7,0.4,0.9s0.7,0.4,1.2,0.4s1-0.1,1.4-0.4
		s0.7-0.6,0.9-1c0.2-0.3,0.2-0.8,0.2-1.4v-0.5H323.7z"/>
	<path class="st3" d="M332.7,496.5l1.4,0.2c-0.2,1-0.5,1.7-1.2,2.2s-1.4,0.8-2.3,0.8c-1.1,0-2-0.4-2.7-1.1s-1-1.8-1-3.2
		c0-0.9,0.1-1.7,0.4-2.4c0.3-0.7,0.7-1.2,1.4-1.5c0.7-0.3,1.3-0.5,2-0.5c0.9,0,1.6,0.2,2.2,0.7s0.9,1.1,1.1,1.9l-1.4,0.2
		c-0.1-0.6-0.4-1-0.7-1.3s-0.7-0.4-1.2-0.4c-0.7,0-1.3,0.3-1.7,0.8s-0.7,1.3-0.7,2.4c0,1.1,0.2,1.9,0.6,2.4s1,0.8,1.7,0.8
		c0.6,0,1-0.2,1.4-0.5S332.5,497.2,332.7,496.5z"/>
	<path class="st3" d="M335.3,489.7v-1.6h1.4v1.6H335.3z M335.3,499.5v-8.3h1.4v8.3H335.3z"/>
	<path class="st3" d="M338.3,495.4c0-1.5,0.4-2.7,1.3-3.4c0.7-0.6,1.6-0.9,2.6-0.9c1.1,0,2.1,0.4,2.8,1.1s1.1,1.8,1.1,3.1
		c0,1.1-0.2,1.9-0.5,2.5c-0.3,0.6-0.8,1.1-1.4,1.4s-1.3,0.5-2,0.5c-1.2,0-2.1-0.4-2.8-1.1S338.3,496.8,338.3,495.4z M339.8,495.4
		c0,1.1,0.2,1.9,0.7,2.4s1,0.8,1.8,0.8c0.7,0,1.3-0.3,1.7-0.8s0.7-1.3,0.7-2.4c0-1-0.2-1.8-0.7-2.3s-1-0.8-1.7-0.8s-1.3,0.3-1.8,0.8
		S339.8,494.3,339.8,495.4z M341.4,490.2l1-2.2h1.8l-1.7,2.2H341.4z"/>
	<path class="st3" d="M347.7,499.5v-8.3h1.3v1.2c0.6-0.9,1.5-1.4,2.6-1.4c0.5,0,1,0.1,1.4,0.3s0.7,0.4,0.9,0.7
		c0.2,0.3,0.4,0.6,0.4,1c0.1,0.3,0.1,0.7,0.1,1.4v5.1H353v-5c0-0.6-0.1-1-0.2-1.3s-0.3-0.5-0.6-0.7c-0.3-0.2-0.6-0.3-1-0.3
		c-0.6,0-1.1,0.2-1.6,0.6s-0.7,1.1-0.7,2.2v4.5H347.7z"/>
	<path class="st3" d="M359,499.5l4.4-11.5h1.6l4.7,11.5H368l-1.3-3.5H362l-1.3,3.5H359z M362.4,494.8h3.9l-1.2-3.2
		c-0.4-1-0.6-1.8-0.8-2.4c-0.1,0.7-0.4,1.5-0.6,2.2L362.4,494.8z"/>
	<path class="st3" d="M371.3,499.5V488h1.5v11.5H371.3z"/>
	<path class="st3" d="M375.5,499.5V488h7.7v1.4H377v3.5h5.4v1.4H377v5.2H375.5L375.5,499.5z"/>
	<path class="st3" d="M385.2,499.5V488h2.3l2.7,8.1c0.3,0.8,0.4,1.3,0.5,1.7c0.1-0.4,0.3-1,0.6-1.8l2.7-8h2v11.5h-1.5v-9.6l-3.3,9.6
		H390l-3.3-9.8v9.8H385.2z"/>
	<path class="st3" d="M408.2,499.5v-1c-0.5,0.8-1.3,1.2-2.3,1.2c-0.7,0-1.3-0.2-1.8-0.5s-1-0.9-1.3-1.5s-0.5-1.4-0.5-2.3
		c0-0.8,0.1-1.6,0.4-2.3s0.7-1.2,1.2-1.6s1.2-0.5,1.9-0.5c0.5,0,0.9,0.1,1.3,0.3c0.4,0.2,0.7,0.5,1,0.8V488h1.4v11.5H408.2
		L408.2,499.5z M403.8,495.4c0,1.1,0.2,1.9,0.7,2.4s1,0.8,1.6,0.8s1.1-0.3,1.6-0.8s0.6-1.3,0.6-2.3c0-1.1-0.2-2-0.7-2.5
		s-1-0.8-1.6-0.8s-1.1,0.3-1.6,0.8S403.8,494.3,403.8,495.4z"/>
	<path class="st3" d="M417.4,496.8l1.5,0.2c-0.2,0.8-0.7,1.5-1.3,2s-1.4,0.7-2.4,0.7c-1.2,0-2.2-0.4-2.9-1.1s-1.1-1.8-1.1-3.1
		c0-1.4,0.4-2.5,1.1-3.3c0.7-0.8,1.7-1.2,2.8-1.2s2,0.4,2.7,1.1s1.1,1.8,1.1,3.2c0,0.1,0,0.2,0,0.4h-6.2c0.1,0.9,0.3,1.6,0.8,2.1
		s1,0.7,1.7,0.7c0.5,0,1-0.1,1.3-0.4S417.2,497.4,417.4,496.8z M412.8,494.6h4.6c-0.1-0.7-0.2-1.2-0.5-1.6c-0.4-0.5-1-0.8-1.7-0.8
		c-0.6,0-1.2,0.2-1.6,0.6C413.2,493.2,412.9,493.8,412.8,494.6z"/>
	<path class="st3" d="M425.2,499.5V488h1.5v10.1h5.6v1.4H425.2z"/>
	<path class="st3" d="M439.4,499.5v-1.2c-0.6,0.9-1.5,1.4-2.6,1.4c-0.5,0-0.9-0.1-1.4-0.3c-0.5-0.2-0.7-0.4-0.9-0.7s-0.4-0.6-0.4-1
		c-0.1-0.3-0.1-0.7-0.1-1.3v-5.1h1.4v4.6c0,0.7,0,1.2,0.1,1.5c0.1,0.4,0.3,0.7,0.6,0.9c0.3,0.2,0.6,0.3,1.1,0.3s0.8-0.1,1.2-0.3
		c0.4-0.2,0.6-0.5,0.8-0.9c0.2-0.4,0.2-0.9,0.2-1.6v-4.4h1.4v8.3h-1.4V499.5z"/>
	<path class="st3" d="M442,499.5l3-4.3l-2.8-4h1.8l1.3,1.9c0.2,0.4,0.4,0.7,0.6,0.9c0.2-0.3,0.4-0.6,0.6-0.9l1.4-2h1.7l-2.9,3.9
		l3.1,4.4H448l-1.7-2.6l-0.5-0.7l-2.2,3.3H442V499.5z"/>
	<path class="st3" d="M456.5,496.8l1.5,0.2c-0.2,0.8-0.7,1.5-1.3,2s-1.4,0.7-2.4,0.7c-1.2,0-2.2-0.4-2.9-1.1s-1.1-1.8-1.1-3.1
		c0-1.4,0.4-2.5,1.1-3.3c0.7-0.8,1.7-1.2,2.8-1.2s2,0.4,2.7,1.1s1.1,1.8,1.1,3.2c0,0.1,0,0.2,0,0.4h-6.2c0.1,0.9,0.3,1.6,0.8,2.1
		s1,0.7,1.7,0.7c0.5,0,1-0.1,1.3-0.4S456.4,497.4,456.5,496.8z M452,494.6h4.6c-0.1-0.7-0.2-1.2-0.5-1.6c-0.4-0.5-1-0.8-1.7-0.8
		c-0.6,0-1.2,0.2-1.6,0.6C452.4,493.2,452,493.8,452,494.6z"/>
	<path class="st3" d="M459.8,499.5v-8.3h1.3v1.2c0.3-0.4,0.6-0.7,1-1c0.4-0.3,0.9-0.4,1.5-0.4s1.1,0.1,1.5,0.4s0.7,0.6,0.8,1.1
		c0.7-1,1.5-1.5,2.6-1.5c0.8,0,1.5,0.2,1.9,0.7s0.7,1.2,0.7,2.1v5.7h-1.4v-5.2c0-0.6,0-1-0.1-1.2c-0.1-0.2-0.3-0.4-0.5-0.6
		s-0.5-0.2-0.8-0.2c-0.6,0-1.1,0.2-1.5,0.6s-0.6,1-0.6,1.9v4.8h-1.4v-5.4c0-0.6-0.1-1.1-0.3-1.4s-0.6-0.5-1.1-0.5
		c-0.4,0-0.8,0.1-1.1,0.3s-0.6,0.5-0.7,0.9s-0.2,1-0.2,1.7v4.3L459.8,499.5L459.8,499.5z"/>
	<path class="st3" d="M474.4,499.5h-1.3V488h1.4v4.1c0.6-0.7,1.4-1.1,2.3-1.1c0.5,0,1,0.1,1.4,0.3s0.8,0.5,1.1,0.9s0.5,0.8,0.7,1.3
		s0.3,1.1,0.3,1.7c0,1.4-0.4,2.5-1.1,3.3c-0.7,0.8-1.5,1.2-2.5,1.2s-1.7-0.4-2.3-1.2L474.4,499.5L474.4,499.5z M474.4,495.3
		c0,1,0.1,1.7,0.4,2.2c0.4,0.7,1,1.1,1.8,1.1c0.6,0,1.1-0.3,1.6-0.8s0.7-1.3,0.7-2.4c0-1.1-0.2-1.9-0.6-2.4s-0.9-0.8-1.6-0.8
		c-0.6,0-1.1,0.3-1.6,0.8S474.4,494.3,474.4,495.3z"/>
	<path class="st3" d="M487.5,499.5v-1.2c-0.6,0.9-1.5,1.4-2.6,1.4c-0.5,0-0.9-0.1-1.4-0.3c-0.5-0.2-0.7-0.4-0.9-0.7s-0.4-0.6-0.4-1
		c-0.1-0.3-0.1-0.7-0.1-1.3v-5.1h1.4v4.6c0,0.7,0,1.2,0.1,1.5c0.1,0.4,0.3,0.7,0.6,0.9c0.3,0.2,0.6,0.3,1.1,0.3s0.8-0.1,1.2-0.3
		c0.4-0.2,0.6-0.5,0.8-0.9c0.2-0.4,0.2-0.9,0.2-1.6v-4.4h1.4v8.3h-1.4V499.5z"/>
	<path class="st3" d="M490.9,499.5v-8.3h1.3v1.3c0.3-0.6,0.6-1,0.9-1.2s0.6-0.3,0.9-0.3c0.5,0,1,0.2,1.4,0.5l-0.5,1.3
		c-0.3-0.2-0.7-0.3-1-0.3s-0.6,0.1-0.8,0.3s-0.4,0.4-0.5,0.8c-0.2,0.5-0.2,1-0.2,1.6v4.3L490.9,499.5L490.9,499.5z"/>
	<path class="st3" d="M496,500.2l1.4,0.2c0.1,0.4,0.2,0.7,0.5,0.9c0.3,0.3,0.8,0.4,1.4,0.4c0.7,0,1.2-0.1,1.5-0.4s0.6-0.6,0.7-1.1
		c0.1-0.3,0.1-0.9,0.1-1.8c-0.6,0.7-1.4,1.1-2.3,1.1c-1.1,0-2-0.4-2.6-1.2c-0.6-0.8-0.9-1.8-0.9-3c0-0.8,0.1-1.5,0.4-2.2
		s0.7-1.2,1.2-1.6s1.2-0.5,1.9-0.5c1,0,1.8,0.4,2.4,1.2v-1h1.3v7.2c0,1.3-0.1,2.2-0.4,2.7s-0.7,1-1.3,1.3s-1.3,0.5-2.1,0.5
		c-1,0-1.8-0.2-2.4-0.7S496,501.1,496,500.2z M497.2,495.2c0,1.1,0.2,1.9,0.6,2.4s1,0.8,1.6,0.8s1.2-0.2,1.6-0.7s0.7-1.3,0.7-2.3
		s-0.2-1.8-0.7-2.3s-1-0.8-1.6-0.8s-1.2,0.3-1.6,0.8S497.2,494.2,497.2,495.2z"/>
	<path class="st3" d="M504.5,495.4c0-1.5,0.4-2.7,1.3-3.4c0.7-0.6,1.6-0.9,2.6-0.9c1.1,0,2.1,0.4,2.8,1.1s1.1,1.8,1.1,3.1
		c0,1.1-0.2,1.9-0.5,2.5c-0.3,0.6-0.8,1.1-1.4,1.4s-1.3,0.5-2,0.5c-1.2,0-2.1-0.4-2.8-1.1S504.5,496.8,504.5,495.4z M506,495.4
		c0,1.1,0.2,1.9,0.7,2.4s1,0.8,1.8,0.8c0.7,0,1.3-0.3,1.7-0.8s0.7-1.3,0.7-2.4c0-1-0.2-1.8-0.7-2.3s-1-0.8-1.7-0.8s-1.3,0.3-1.8,0.8
		S506,494.3,506,495.4z"/>
	<path class="st3" d="M515,502.9h-1c1.6-2.5,2.3-5,2.3-7.5c0-1-0.1-2-0.3-2.9c-0.2-0.8-0.4-1.5-0.7-2.3c-0.2-0.5-0.6-1.3-1.3-2.3h1
		c1,1.3,1.7,2.6,2.2,3.9c0.4,1.1,0.6,2.3,0.6,3.6c0,1.4-0.3,2.8-0.8,4.1C516.5,500.8,515.7,501.9,515,502.9z"/>
</g>
<g class="st2">
	<path class="st3" d="M15.9,467.8v-12.9h4.8c1,0,1.8,0.1,2.4,0.4c0.6,0.3,1.1,0.7,1.4,1.2s0.5,1.1,0.5,1.7s-0.1,1.1-0.4,1.6
		s-0.8,0.9-1.4,1.2c0.8,0.2,1.4,0.6,1.8,1.2c0.4,0.6,0.6,1.2,0.6,2c0,0.6-0.1,1.2-0.4,1.7c-0.3,0.5-0.6,0.9-0.9,1.2
		c-0.3,0.3-0.8,0.5-1.4,0.6c-0.6,0.1-1.3,0.2-2.1,0.2L15.9,467.8L15.9,467.8z M17.6,460.3h2.8c0.8,0,1.3,0,1.6-0.1
		c0.4-0.1,0.8-0.3,1-0.6s0.3-0.7,0.3-1.1c0-0.4-0.1-0.8-0.3-1.1c-0.2-0.3-0.5-0.5-0.9-0.7s-1-0.2-2-0.2h-2.6v3.8H17.6z M17.6,466.3
		h3.2c0.6,0,0.9,0,1.2-0.1c0.4-0.1,0.7-0.2,1-0.4c0.3-0.2,0.5-0.4,0.7-0.7s0.3-0.7,0.3-1.1c0-0.5-0.1-0.9-0.4-1.3
		c-0.2-0.4-0.6-0.6-1-0.7s-1.1-0.2-1.9-0.2h-3L17.6,466.3L17.6,466.3z"/>
	<path class="st3" d="M27.8,456.8v-1.9h1.6v1.8h-1.6V456.8z M27.8,467.8v-9.3h1.6v9.3H27.8z"/>
	<path class="st3" d="M38.1,464.8l1.6,0.2c-0.3,1-0.7,1.7-1.4,2.2s-1.6,0.8-2.7,0.8c-1.4,0-2.4-0.4-3.2-1.3c-0.8-0.8-1.2-2-1.2-3.5
		c0-1.6,0.4-2.8,1.2-3.7s1.9-1.3,3.1-1.3c1.2,0,2.3,0.4,3.1,1.3s1.2,2,1.2,3.6c0,0.1,0,0.2,0,0.4h-7c0.1,1,0.3,1.8,0.9,2.4
		s1.2,0.8,2,0.8c0.6,0,1.1-0.2,1.5-0.5C37.6,465.8,37.9,465.5,38.1,464.8z M32.9,462.3h5.2c-0.1-0.8-0.3-1.4-0.6-1.8
		c-0.5-0.6-1.2-0.9-2-0.9c-0.7,0-1.3,0.2-1.8,0.7S33,461.5,32.9,462.3z"/>
	<path class="st3" d="M41.8,467.8v-9.3h1.4v1.3c0.7-1,1.7-1.5,3-1.5c0.6,0,1.1,0.1,1.6,0.3s0.8,0.5,1.1,0.8c0.3,0.3,0.4,0.7,0.5,1.2
		c0.1,0.3,0.1,0.8,0.1,1.5v5.7h-1.6V462c0-0.6-0.1-1.1-0.2-1.4c-0.1-0.3-0.3-0.6-0.7-0.8c-0.3-0.2-0.7-0.3-1.1-0.3
		c-0.7,0-1.3,0.2-1.7,0.6c-0.4,0.4-0.7,1.2-0.7,2.4v5.1h-1.7V467.8z"/>
	<path class="st3" d="M58.2,464.8l1.6,0.2c-0.3,1-0.7,1.7-1.4,2.2s-1.6,0.8-2.7,0.8c-1.4,0-2.4-0.4-3.2-1.3c-0.8-0.8-1.2-2-1.2-3.5
		c0-1.6,0.4-2.8,1.2-3.7s1.9-1.3,3.1-1.3c1.2,0,2.3,0.4,3.1,1.3s1.2,2,1.2,3.6c0,0.1,0,0.2,0,0.4h-7c0.1,1,0.3,1.8,0.9,2.4
		s1.2,0.8,2,0.8c0.6,0,1.1-0.2,1.5-0.5C57.7,465.8,57.9,465.5,58.2,464.8z M53,462.3h5.2c-0.1-0.8-0.3-1.4-0.6-1.8
		c-0.5-0.6-1.2-0.9-2-0.9c-0.7,0-1.3,0.2-1.8,0.7S53,461.5,53,462.3z"/>
	<path class="st3" d="M61.1,465l1.6-0.2c0.1,0.6,0.3,1.1,0.7,1.4s1,0.5,1.7,0.5s1.3-0.1,1.6-0.4s0.5-0.6,0.5-1s-0.2-0.6-0.5-0.8
		c-0.2-0.1-0.8-0.3-1.6-0.5c-1.2-0.3-2-0.5-2.4-0.8s-0.8-0.5-1-0.9s-0.3-0.8-0.3-1.3c0-0.4,0.1-0.8,0.3-1.2s0.5-0.6,0.8-0.9
		c0.2-0.2,0.6-0.3,1-0.5c0.4-0.2,0.9-0.2,1.4-0.2c0.7,0,1.4,0.1,1.9,0.3s1,0.5,1.2,0.9c0.3,0.4,0.4,0.8,0.5,1.4L67,461
		c-0.1-0.5-0.3-0.9-0.6-1.1c-0.3-0.2-0.8-0.4-1.4-0.4c-0.7,0-1.2,0.1-1.6,0.4c-0.4,0.3-0.5,0.5-0.5,0.8c0,0.2,0.1,0.4,0.2,0.6
		c0.1,0.2,0.3,0.3,0.6,0.4c0.2,0.1,0.6,0.2,1.4,0.4c1.1,0.3,1.9,0.5,2.3,0.7s0.8,0.5,1,0.8c0.2,0.3,0.4,0.8,0.4,1.4
		c0,0.5-0.2,1-0.5,1.5s-0.8,0.8-1.3,1.1c-0.6,0.3-1.2,0.4-2,0.4c-1.2,0-2.1-0.3-2.8-0.8S61.3,466,61.1,465z"/>
	<path class="st3" d="M75.8,456.8v-1.9h1.6v1.8h-1.6V456.8z M75.8,467.8v-9.3h1.6v9.3H75.8z"/>
	<path class="st3" d="M79.8,467.8v-9.3h1.4v1.3c0.7-1,1.7-1.5,3-1.5c0.6,0,1.1,0.1,1.6,0.3s0.8,0.5,1.1,0.8c0.3,0.3,0.4,0.7,0.5,1.2
		c0.1,0.3,0.1,0.8,0.1,1.5v5.7h-1.6V462c0-0.6-0.1-1.1-0.2-1.4c-0.1-0.3-0.3-0.6-0.7-0.8c-0.3-0.2-0.7-0.3-1.1-0.3
		c-0.7,0-1.3,0.2-1.7,0.6c-0.4,0.4-0.7,1.2-0.7,2.4v5.1h-1.7V467.8z"/>
	<path class="st3" d="M89.8,467.8v-9.3h1.4v1.3c0.3-0.5,0.7-0.8,1.2-1.1c0.5-0.3,1-0.4,1.7-0.4s1.3,0.1,1.7,0.4
		c0.4,0.3,0.8,0.7,0.9,1.2c0.7-1.1,1.7-1.6,2.9-1.6c0.9,0,1.6,0.3,2.1,0.8s0.7,1.3,0.7,2.4v6.4h-1.6v-5.9c0-0.6-0.1-1.1-0.2-1.4
		c-0.1-0.3-0.3-0.5-0.6-0.7c-0.3-0.2-0.6-0.3-0.9-0.3c-0.7,0-1.2,0.2-1.6,0.7c-0.4,0.4-0.7,1.1-0.7,2.1v5.4h-1.6v-6.1
		c0-0.7-0.1-1.2-0.4-1.6s-0.7-0.5-1.3-0.5c-0.4,0-0.9,0.1-1.2,0.4c-0.3,0.3-0.7,0.6-0.8,1c-0.1,0.4-0.3,1.1-0.3,2v4.8L89.8,467.8
		L89.8,467.8z"/>
	<path class="st3" d="M110.9,467.8v-1.4c-0.7,1.1-1.7,1.6-3,1.6c-0.6,0-1.1-0.1-1.5-0.3s-0.8-0.5-1.1-0.8c-0.3-0.3-0.4-0.7-0.5-1.2
		c-0.1-0.3-0.1-0.8-0.1-1.5v-5.8h1.6v5.2c0,0.8,0,1.4,0.1,1.7c0.1,0.4,0.3,0.7,0.6,1c0.3,0.2,0.7,0.4,1.2,0.4s0.9-0.1,1.3-0.4
		s0.7-0.6,0.9-1c0.2-0.4,0.3-1,0.3-1.8v-5h1.6v9.3H110.9z"/>
	<path class="st3" d="M121.2,464.8l1.6,0.2c-0.3,1-0.7,1.7-1.4,2.2s-1.6,0.8-2.7,0.8c-1.4,0-2.4-0.4-3.2-1.3c-0.8-0.8-1.2-2-1.2-3.5
		c0-1.6,0.4-2.8,1.2-3.7s1.9-1.3,3.1-1.3c1.2,0,2.3,0.4,3.1,1.3s1.2,2,1.2,3.6c0,0.1,0,0.2,0,0.4h-7c0.1,1,0.3,1.8,0.9,2.4
		s1.2,0.8,2,0.8c0.6,0,1.1-0.2,1.5-0.5C120.7,465.8,120.9,465.5,121.2,464.8z M116,462.3h5.2c-0.1-0.8-0.3-1.4-0.6-1.8
		c-0.5-0.6-1.2-0.9-2-0.9c-0.7,0-1.3,0.2-1.8,0.7S116,461.5,116,462.3z"/>
	<path class="st3" d="M126.3,467.8h-1.5v-12.9h1.6v4.6c0.7-0.8,1.5-1.3,2.6-1.3c0.6,0,1.1,0.1,1.6,0.3c0.5,0.2,0.9,0.6,1.3,1
		c0.3,0.4,0.6,0.9,0.8,1.5c0.2,0.6,0.3,1.2,0.3,1.9c0,1.6-0.4,2.8-1.2,3.7s-1.7,1.3-2.8,1.3c-1.1,0-2-0.5-2.6-1.4v1.3H126.3z
		 M126.2,463c0,1.1,0.2,1.9,0.5,2.4c0.5,0.8,1.2,1.2,2,1.2c0.7,0,1.3-0.3,1.8-0.9c0.5-0.6,0.8-1.5,0.8-2.7s-0.2-2.1-0.7-2.7
		c-0.5-0.6-1.1-0.9-1.8-0.9c-0.7,0-1.3,0.3-1.8,0.9C126.5,461,126.2,462,126.2,463z"/>
	<path class="st3" d="M134.8,467.8v-12.9h1.6v12.9H134.8z"/>
	<path class="st3" d="M145.2,464.8l1.6,0.2c-0.3,1-0.7,1.7-1.4,2.2s-1.6,0.8-2.7,0.8c-1.4,0-2.4-0.4-3.2-1.3c-0.8-0.8-1.2-2-1.2-3.5
		c0-1.6,0.4-2.8,1.2-3.7s1.9-1.3,3.1-1.3s2.3,0.4,3.1,1.3s1.2,2,1.2,3.6c0,0.1,0,0.2,0,0.4h-7c0.1,1,0.3,1.8,0.9,2.4s1.2,0.8,2,0.8
		c0.6,0,1.1-0.2,1.5-0.5C144.7,465.8,145,465.5,145.2,464.8z M140,462.3h5.2c-0.1-0.8-0.3-1.4-0.6-1.8c-0.5-0.6-1.2-0.9-2-0.9
		c-0.7,0-1.3,0.2-1.8,0.7S140.1,461.5,140,462.3z"/>
	<path class="st3" d="M148.2,465l1.6-0.2c0.1,0.6,0.3,1.1,0.7,1.4s1,0.5,1.7,0.5s1.3-0.1,1.6-0.4s0.5-0.6,0.5-1s-0.2-0.6-0.5-0.8
		c-0.2-0.1-0.8-0.3-1.6-0.5c-1.2-0.3-2-0.5-2.4-0.8s-0.8-0.5-1-0.9s-0.3-0.8-0.3-1.3c0-0.4,0.1-0.8,0.3-1.2c0.2-0.4,0.5-0.6,0.8-0.9
		c0.2-0.2,0.6-0.3,1-0.5c0.4-0.2,0.9-0.2,1.4-0.2c0.7,0,1.4,0.1,1.9,0.3s1,0.5,1.2,0.9c0.3,0.4,0.4,0.8,0.5,1.4l-1.5,0.2
		c-0.1-0.5-0.3-0.9-0.6-1.1c-0.3-0.2-0.8-0.4-1.4-0.4c-0.7,0-1.2,0.1-1.6,0.4c-0.4,0.3-0.5,0.5-0.5,0.8c0,0.2,0.1,0.4,0.2,0.6
		c0.1,0.2,0.3,0.3,0.6,0.4c0.2,0.1,0.6,0.2,1.4,0.4c1.1,0.3,1.9,0.5,2.3,0.7s0.8,0.5,1,0.8c0.2,0.3,0.4,0.8,0.4,1.4
		c0,0.5-0.2,1-0.5,1.5s-0.8,0.8-1.3,1.1c-0.6,0.3-1.2,0.4-2,0.4c-1.2,0-2.1-0.3-2.8-0.8S148.4,466,148.2,465z"/>
	<path class="st3" d="M22.8,486l1.6,0.2c-0.2,1.1-0.6,1.9-1.3,2.5s-1.6,0.9-2.6,0.9c-1.3,0-2.3-0.4-3.1-1.3c-0.8-0.8-1.2-2-1.2-3.6
		c0-1,0.2-1.9,0.5-2.6s0.8-1.3,1.5-1.7s1.4-0.6,2.2-0.6c1,0,1.8,0.3,2.5,0.8s1.1,1.2,1.2,2.2l-1.5,0.2c-0.1-0.6-0.4-1.1-0.8-1.4
		S21,481,20.5,481c-0.8,0-1.4,0.3-1.9,0.9c-0.5,0.6-0.7,1.5-0.7,2.7c0,1.3,0.2,2.2,0.7,2.7s1.1,0.9,1.9,0.9c0.6,0,1.1-0.2,1.6-0.6
		C22.6,487.2,22.7,486.8,22.8,486z"/>
	<path class="st3" d="M25.2,484.8c0-1.7,0.5-3,1.4-3.8c0.8-0.7,1.8-1,2.9-1c1.3,0,2.3,0.4,3.1,1.3c0.8,0.9,1.2,2,1.2,3.5
		c0,1.2-0.2,2.1-0.5,2.8c-0.4,0.7-0.9,1.2-1.6,1.6s-1.4,0.6-2.3,0.6c-1.3,0-2.4-0.4-3.2-1.3C25.4,487.5,25.2,486.3,25.2,484.8z
		 M26.8,484.8c0,1.2,0.3,2.1,0.8,2.7s1.2,0.9,2,0.9s1.4-0.3,2-0.9s0.8-1.5,0.8-2.7c0-1.2-0.3-2-0.8-2.6c-0.5-0.6-1.2-0.9-2-0.9
		s-1.4,0.3-2,0.9C27,482.7,26.8,483.5,26.8,484.8z"/>
	<path class="st3" d="M35.8,489.3V480h1.4v1.3c0.3-0.5,0.7-0.8,1.2-1.1c0.5-0.3,1-0.4,1.7-0.4s1.3,0.1,1.7,0.4s0.8,0.7,0.9,1.2
		c0.7-1.1,1.7-1.6,2.9-1.6c0.9,0,1.6,0.3,2.1,0.8s0.7,1.3,0.7,2.4v6.4h-1.6v-5.9c0-0.6-0.1-1.1-0.2-1.4s-0.3-0.5-0.6-0.7
		s-0.6-0.3-0.9-0.3c-0.7,0-1.2,0.2-1.6,0.7c-0.4,0.4-0.7,1.1-0.7,2.1v5.4h-1.6v-6.1c0-0.7-0.1-1.2-0.4-1.6s-0.7-0.5-1.3-0.5
		c-0.4,0-0.9,0.1-1.2,0.4s-0.7,0.6-0.8,1s-0.3,1.1-0.3,2v4.8H35.8L35.8,489.3z"/>
	<path class="st3" d="M57.1,486.3l1.6,0.2c-0.3,1-0.7,1.7-1.4,2.2s-1.6,0.8-2.7,0.8c-1.4,0-2.4-0.4-3.2-1.3c-0.8-0.8-1.2-2-1.2-3.5
		c0-1.6,0.4-2.8,1.2-3.7s1.9-1.3,3.1-1.3c1.2,0,2.3,0.4,3.1,1.3s1.2,2,1.2,3.6c0,0.1,0,0.2,0,0.4h-7c0.1,1,0.3,1.8,0.9,2.4
		s1.2,0.8,2,0.8c0.6,0,1.1-0.2,1.5-0.5C56.6,487.4,56.9,487,57.1,486.3z M52,483.8h5.2c-0.1-0.8-0.3-1.4-0.6-1.8
		c-0.5-0.6-1.2-0.9-2-0.9c-0.7,0-1.3,0.2-1.8,0.7S52,483,52,483.8z"/>
	<path class="st3" d="M60.8,489.3V480h1.4v1.4c0.4-0.7,0.7-1.1,1-1.3c0.3-0.2,0.6-0.3,1-0.3c0.5,0,1.1,0.2,1.6,0.5l-0.5,1.5
		c-0.4-0.2-0.8-0.3-1.2-0.3c-0.3,0-0.7,0.1-0.9,0.3s-0.5,0.5-0.6,0.9c-0.2,0.6-0.3,1.2-0.3,1.8v4.9L60.8,489.3L60.8,489.3z"/>
	<path class="st3" d="M72.9,486l1.6,0.2c-0.2,1.1-0.6,1.9-1.3,2.5s-1.6,0.9-2.6,0.9c-1.3,0-2.3-0.4-3.1-1.3c-0.8-0.8-1.2-2-1.2-3.6
		c0-1,0.2-1.9,0.5-2.6s0.8-1.3,1.5-1.7s1.4-0.6,2.2-0.6c1,0,1.8,0.3,2.5,0.8s1.1,1.2,1.2,2.2l-1.5,0.2c-0.1-0.6-0.4-1.1-0.8-1.4
		s-0.8-0.5-1.3-0.5c-0.8,0-1.4,0.3-1.9,0.9c-0.5,0.6-0.7,1.5-0.7,2.7c0,1.3,0.2,2.2,0.7,2.7s1.1,0.9,1.9,0.9c0.6,0,1.1-0.2,1.6-0.6
		C72.7,487.2,72.7,486.8,72.9,486z"/>
	<path class="st3" d="M75.8,478.3v-1.8h1.6v1.8H75.8z M75.8,489.3V480h1.6v9.3H75.8z"/>
	<path class="st3" d="M85.9,488.3c-0.6,0.5-1.2,0.8-1.7,1.1c-0.5,0.3-1.1,0.3-1.7,0.3c-1,0-1.8-0.3-2.4-0.8
		c-0.6-0.5-0.8-1.1-0.8-1.9c0-0.5,0.1-0.9,0.3-1.3s0.5-0.7,0.8-0.9s0.7-0.4,1.1-0.5c0.3-0.1,0.8-0.2,1.4-0.2
		c1.3-0.2,2.2-0.3,2.8-0.5c0-0.2,0-0.4,0-0.4c0-0.6-0.1-1.1-0.4-1.4c-0.4-0.4-1-0.5-1.8-0.5c-0.7,0-1.3,0.1-1.6,0.4
		s-0.6,0.7-0.8,1.4l-1.5-0.2c0.1-0.7,0.4-1.2,0.7-1.6c0.3-0.4,0.8-0.7,1.4-0.9c0.6-0.2,1.3-0.3,2.1-0.3s1.4,0.1,1.9,0.3
		s0.9,0.4,1.1,0.7c0.2,0.3,0.4,0.6,0.5,1.1c0.1,0.3,0.1,0.8,0.1,1.5v2.1c0,1.5,0,2.4,0.1,2.8s0.2,0.8,0.4,1.1h-1.7
		C86,489,85.9,488.6,85.9,488.3z M85.7,484.6c-0.6,0.2-1.4,0.4-2.6,0.6c-0.7,0.1-1.1,0.2-1.4,0.3c-0.3,0.1-0.5,0.3-0.6,0.5
		c-0.1,0.2-0.2,0.5-0.2,0.8c0,0.4,0.2,0.8,0.5,1.1s0.8,0.4,1.4,0.4c0.6,0,1.2-0.1,1.6-0.4s0.8-0.6,1-1.1c0.2-0.4,0.3-0.9,0.3-1.6
		V484.6z"/>
	<path class="st3" d="M89.7,489.3v-12.9h1.6v12.9H89.7z"/>
	<path class="st3" d="M100.2,486.3l1.6,0.2c-0.3,1-0.7,1.7-1.4,2.2s-1.6,0.8-2.7,0.8c-1.4,0-2.4-0.4-3.2-1.3c-0.8-0.8-1.2-2-1.2-3.5
		c0-1.6,0.4-2.8,1.2-3.7s1.9-1.3,3.1-1.3c1.2,0,2.3,0.4,3.1,1.3s1.2,2,1.2,3.6c0,0.1,0,0.2,0,0.4h-7c0.1,1,0.3,1.8,0.9,2.4
		s1.2,0.8,2,0.8c0.6,0,1.1-0.2,1.5-0.5C99.7,487.4,99.9,487,100.2,486.3z M95,483.8h5.2c-0.1-0.8-0.3-1.4-0.6-1.8
		c-0.5-0.6-1.2-0.9-2-0.9c-0.7,0-1.3,0.2-1.8,0.7S95,483,95,483.8z"/>
	<path class="st3" d="M103.2,486.5l1.6-0.2c0.1,0.6,0.3,1.1,0.7,1.4s1,0.5,1.7,0.5s1.3-0.1,1.6-0.4s0.5-0.6,0.5-1
		c0-0.4-0.2-0.6-0.5-0.8c-0.2-0.1-0.8-0.3-1.6-0.5c-1.2-0.3-2-0.5-2.4-0.8c-0.4-0.3-0.8-0.5-1-0.9c-0.2-0.4-0.3-0.8-0.3-1.3
		c0-0.4,0.1-0.8,0.3-1.2c0.2-0.4,0.5-0.6,0.8-0.9c0.2-0.2,0.6-0.3,1-0.5c0.4-0.2,0.9-0.2,1.4-0.2c0.7,0,1.4,0.1,1.9,0.3
		c0.5,0.2,1,0.5,1.2,0.9c0.3,0.4,0.4,0.8,0.5,1.4l-1.5,0.2c-0.1-0.5-0.3-0.9-0.6-1.1s-0.8-0.4-1.4-0.4c-0.7,0-1.2,0.1-1.6,0.4
		s-0.5,0.5-0.5,0.8c0,0.2,0.1,0.4,0.2,0.6c0.1,0.2,0.3,0.3,0.6,0.4c0.2,0.1,0.6,0.2,1.4,0.4c1.1,0.3,1.9,0.5,2.3,0.7s0.8,0.5,1,0.8
		c0.2,0.3,0.4,0.8,0.4,1.4c0,0.5-0.2,1-0.5,1.5s-0.8,0.8-1.3,1.1c-0.6,0.3-1.2,0.4-2,0.4c-1.2,0-2.1-0.3-2.8-0.8
		S103.3,487.5,103.2,486.5z"/>
	<path class="st3" d="M123.8,489.3v-1.2c-0.6,0.9-1.5,1.4-2.6,1.4c-0.7,0-1.4-0.2-2.1-0.6s-1.1-1-1.5-1.7c-0.3-0.7-0.5-1.6-0.5-2.5
		c0-0.9,0.2-1.8,0.5-2.5c0.3-0.7,0.8-1.3,1.4-1.7s1.3-0.6,2.1-0.6c0.6,0,1.1,0.1,1.5,0.4c0.4,0.2,0.8,0.5,1.1,0.9v-4.6h1.6v12.9
		h-1.5V489.3z M118.8,484.8c0,1.2,0.3,2.1,0.8,2.7s1.1,0.9,1.8,0.9s1.3-0.3,1.8-0.8c0.5-0.5,0.7-1.4,0.7-2.6c0-1.3-0.2-2.2-0.7-2.8
		s-1.1-0.9-1.8-0.9s-1.3,0.3-1.8,0.9S118.8,483.5,118.8,484.8z"/>
	<path class="st3" d="M134.2,486.3l1.6,0.2c-0.3,1-0.7,1.7-1.4,2.2s-1.6,0.8-2.7,0.8c-1.4,0-2.4-0.4-3.2-1.3c-0.8-0.8-1.2-2-1.2-3.5
		c0-1.6,0.4-2.8,1.2-3.7c0.8-0.9,1.9-1.3,3.1-1.3s2.3,0.4,3.1,1.3s1.2,2,1.2,3.6c0,0.1,0,0.2,0,0.4h-7c0.1,1,0.3,1.8,0.9,2.4
		s1.2,0.8,2,0.8c0.6,0,1.1-0.2,1.5-0.5C133.7,487.4,133.9,487,134.2,486.3z M129,483.8h5.2c-0.1-0.8-0.3-1.4-0.6-1.8
		c-0.5-0.6-1.2-0.9-2-0.9c-0.7,0-1.3,0.2-1.8,0.7S129,483,129,483.8z"/>
	<path class="st3" d="M142.8,489.3v-12.9h1.6v12.9H142.8z"/>
	<path class="st3" d="M152.9,488.3c-0.6,0.5-1.2,0.8-1.7,1.1c-0.5,0.3-1.1,0.3-1.7,0.3c-1,0-1.8-0.3-2.4-0.8s-0.8-1.1-0.8-1.9
		c0-0.5,0.1-0.9,0.3-1.3c0.2-0.4,0.5-0.7,0.8-0.9s0.7-0.4,1.1-0.5c0.3-0.1,0.8-0.2,1.4-0.2c1.3-0.2,2.2-0.3,2.8-0.5
		c0-0.2,0-0.4,0-0.4c0-0.6-0.1-1.1-0.4-1.4c-0.4-0.4-1-0.5-1.8-0.5c-0.7,0-1.3,0.1-1.6,0.4s-0.6,0.7-0.8,1.4l-1.5-0.2
		c0.1-0.7,0.4-1.2,0.7-1.6c0.3-0.4,0.8-0.7,1.4-0.9s1.3-0.3,2.1-0.3c0.8,0,1.4,0.1,1.9,0.3s0.9,0.4,1.1,0.7c0.2,0.3,0.4,0.6,0.5,1.1
		c0.1,0.3,0.1,0.8,0.1,1.5v2.1c0,1.5,0,2.4,0.1,2.8s0.2,0.8,0.4,1.1h-1.7C153,489,152.9,488.6,152.9,488.3z M152.8,484.6
		c-0.6,0.2-1.4,0.4-2.6,0.6c-0.7,0.1-1.1,0.2-1.4,0.3c-0.3,0.1-0.5,0.3-0.6,0.5c-0.1,0.2-0.2,0.5-0.2,0.8c0,0.4,0.2,0.8,0.5,1.1
		s0.8,0.4,1.4,0.4s1.2-0.1,1.6-0.4s0.8-0.6,1-1.1c0.2-0.4,0.3-0.9,0.3-1.6L152.8,484.6L152.8,484.6z"/>
	<path class="st3" d="M27.8,514.5v-12.9h1.4v1.2c0.3-0.5,0.7-0.8,1.2-1.1c0.4-0.2,0.9-0.4,1.6-0.4c0.8,0,1.5,0.2,2.1,0.6
		c0.6,0.4,1.1,1,1.4,1.7c0.3,0.7,0.5,1.6,0.5,2.5c0,1-0.2,1.8-0.5,2.6s-0.8,1.4-1.5,1.8c-0.7,0.4-1.3,0.6-2.1,0.6
		c-0.5,0-1-0.1-1.4-0.3s-0.8-0.5-1-0.8v4.5H27.8L27.8,514.5z M29.2,506.3c0,1.2,0.2,2.1,0.7,2.7s1.1,0.9,1.8,0.9s1.3-0.3,1.8-0.9
		c0.5-0.6,0.8-1.5,0.8-2.8c0-1.2-0.2-2.1-0.7-2.7s-1.1-0.9-1.8-0.9s-1.3,0.3-1.8,0.9C29.5,504.3,29.2,505.1,29.2,506.3z"/>
	<path class="st3" d="M37.8,511v-9.3h1.4v1.4c0.4-0.7,0.7-1.1,1-1.3c0.3-0.2,0.6-0.3,1-0.3c0.5,0,1.1,0.2,1.6,0.5l-0.5,1.5
		c-0.4-0.2-0.8-0.3-1.2-0.3c-0.3,0-0.7,0.1-0.9,0.3s-0.5,0.5-0.6,0.9c-0.2,0.6-0.3,1.2-0.3,1.8v4.9L37.8,511L37.8,511z"/>
	<path class="st3" d="M43.8,500v-1.8h1.6v1.8H43.8z M43.8,511v-9.3h1.6v9.3H43.8z"/>
	<path class="st3" d="M47.8,511v-9.3h1.4v1.3c0.3-0.5,0.7-0.8,1.2-1.1c0.5-0.3,1-0.4,1.7-0.4s1.3,0.1,1.7,0.4s0.8,0.7,0.9,1.2
		c0.7-1.1,1.7-1.6,2.9-1.6c0.9,0,1.6,0.3,2.1,0.8s0.7,1.3,0.7,2.4v6.4h-1.6v-5.9c0-0.6-0.1-1.1-0.2-1.4s-0.3-0.5-0.6-0.7
		s-0.6-0.3-0.9-0.3c-0.7,0-1.2,0.2-1.6,0.7c-0.4,0.4-0.7,1.1-0.7,2.1v5.4h-1.6v-6.1c0-0.7-0.1-1.2-0.4-1.6s-0.7-0.5-1.3-0.5
		c-0.4,0-0.9,0.1-1.2,0.4s-0.7,0.6-0.8,1s-0.3,1.1-0.3,2v4.8L47.8,511L47.8,511z"/>
	<path class="st3" d="M69.1,508l1.6,0.2c-0.3,1-0.7,1.7-1.4,2.2s-1.6,0.8-2.7,0.8c-1.4,0-2.4-0.4-3.2-1.3c-0.8-0.8-1.2-2-1.2-3.5
		c0-1.6,0.4-2.8,1.2-3.7s1.9-1.3,3.1-1.3c1.2,0,2.3,0.4,3.1,1.3s1.2,2,1.2,3.6c0,0.1,0,0.2,0,0.4h-7c0.1,1,0.3,1.8,0.9,2.4
		s1.2,0.8,2,0.8c0.6,0,1.1-0.2,1.5-0.5C68.6,509,68.9,508.6,69.1,508z M64,505.5h5.2c-0.1-0.8-0.3-1.4-0.6-1.8
		c-0.5-0.6-1.2-0.9-2-0.9c-0.7,0-1.3,0.2-1.8,0.7S64,504.6,64,505.5z"/>
	<path class="st3" d="M72.7,511v-9.3h1.4v1.4c0.4-0.7,0.7-1.1,1-1.3c0.3-0.2,0.6-0.3,1-0.3c0.5,0,1.1,0.2,1.6,0.5l-0.5,1.5
		c-0.4-0.2-0.8-0.3-1.2-0.3c-0.3,0-0.7,0.1-0.9,0.3s-0.5,0.5-0.6,0.9c-0.2,0.6-0.3,1.2-0.3,1.8v4.9L72.7,511L72.7,511z"/>
	<path class="st3" d="M84.9,509.8c-0.6,0.5-1.2,0.8-1.7,1.1c-0.5,0.3-1.1,0.3-1.7,0.3c-1,0-1.8-0.3-2.4-0.8
		c-0.6-0.5-0.8-1.1-0.8-1.9c0-0.5,0.1-0.9,0.3-1.3c0.2-0.4,0.5-0.7,0.8-0.9s0.7-0.4,1.1-0.5c0.3-0.1,0.8-0.2,1.4-0.2
		c1.3-0.2,2.2-0.3,2.8-0.5c0-0.2,0-0.4,0-0.4c0-0.6-0.1-1.1-0.4-1.4c-0.4-0.4-1-0.5-1.8-0.5c-0.7,0-1.3,0.1-1.6,0.4
		s-0.6,0.7-0.8,1.4l-1.5-0.2c0.1-0.7,0.4-1.2,0.7-1.6s0.8-0.7,1.4-0.9c0.6-0.2,1.3-0.3,2.1-0.3s1.4,0.1,1.9,0.3s0.9,0.4,1.1,0.7
		c0.2,0.3,0.4,0.6,0.5,1.1c0.1,0.3,0.1,0.8,0.1,1.5v2.1c0,1.5,0,2.4,0.1,2.8c0.1,0.4,0.2,0.8,0.4,1.1h-1.7
		C85,510.6,84.9,510.3,84.9,509.8z M84.7,506.3c-0.6,0.2-1.4,0.4-2.6,0.6c-0.7,0.1-1.1,0.2-1.4,0.3s-0.5,0.3-0.6,0.5
		s-0.2,0.5-0.2,0.8c0,0.4,0.2,0.8,0.5,1.1c0.3,0.3,0.8,0.4,1.4,0.4c0.6,0,1.2-0.1,1.6-0.4s0.8-0.6,1-1.1c0.2-0.4,0.3-0.9,0.3-1.6
		V506.3z"/>
	<path class="st3" d="M99.9,507.5l1.6,0.2c-0.2,1.1-0.6,1.9-1.3,2.5c-0.7,0.6-1.6,0.9-2.6,0.9c-1.3,0-2.3-0.4-3.1-1.3
		c-0.8-0.8-1.2-2-1.2-3.6c0-1,0.2-1.9,0.5-2.6s0.8-1.3,1.5-1.7c0.7-0.4,1.4-0.6,2.2-0.6c1,0,1.8,0.3,2.5,0.8s1.1,1.2,1.2,2.2
		l-1.5,0.2c-0.1-0.6-0.4-1.1-0.8-1.4s-0.8-0.5-1.3-0.5c-0.8,0-1.4,0.3-1.9,0.9S95,505,95,506.2c0,1.3,0.2,2.2,0.7,2.7
		s1.1,0.9,1.9,0.9c0.6,0,1.1-0.2,1.6-0.6S99.8,508.3,99.9,507.5z"/>
	<path class="st3" d="M108.9,509.8c-0.6,0.5-1.2,0.8-1.7,1.1c-0.5,0.3-1.1,0.3-1.7,0.3c-1,0-1.8-0.3-2.4-0.8
		c-0.6-0.5-0.8-1.1-0.8-1.9c0-0.5,0.1-0.9,0.3-1.3c0.2-0.4,0.5-0.7,0.8-0.9s0.7-0.4,1.1-0.5c0.3-0.1,0.8-0.2,1.4-0.2
		c1.3-0.2,2.2-0.3,2.8-0.5c0-0.2,0-0.4,0-0.4c0-0.6-0.1-1.1-0.4-1.4c-0.4-0.4-1-0.5-1.8-0.5c-0.7,0-1.3,0.1-1.6,0.4
		s-0.6,0.7-0.8,1.4l-1.5-0.2c0.1-0.7,0.4-1.2,0.7-1.6s0.8-0.7,1.4-0.9c0.6-0.2,1.3-0.3,2.1-0.3s1.4,0.1,1.9,0.3s0.9,0.4,1.1,0.7
		c0.2,0.3,0.4,0.6,0.5,1.1c0.1,0.3,0.1,0.8,0.1,1.5v2.1c0,1.5,0,2.4,0.1,2.8c0.1,0.4,0.2,0.8,0.4,1.1h-1.7
		C109,510.6,108.9,510.3,108.9,509.8z M108.7,506.3c-0.6,0.2-1.4,0.4-2.6,0.6c-0.7,0.1-1.1,0.2-1.4,0.3s-0.5,0.3-0.6,0.5
		s-0.2,0.5-0.2,0.8c0,0.4,0.2,0.8,0.5,1.1c0.3,0.3,0.8,0.4,1.4,0.4c0.6,0,1.2-0.1,1.6-0.4s0.8-0.6,1-1.1c0.2-0.4,0.3-0.9,0.3-1.6
		V506.3z"/>
	<path class="st3" d="M112.7,511V498h1.6V511H112.7z"/>
	<path class="st3" d="M116.8,500v-1.8h1.6v1.8H116.8z M116.8,511v-9.3h1.6v9.3H116.8z"/>
	<path class="st3" d="M126.8,511v-1.1c-0.6,0.9-1.5,1.4-2.6,1.4c-0.7,0-1.4-0.2-2.1-0.6c-0.7-0.4-1.1-1-1.5-1.7
		c-0.3-0.7-0.5-1.6-0.5-2.5s0.2-1.8,0.5-2.5s0.8-1.3,1.4-1.7c0.6-0.4,1.3-0.6,2.1-0.6c0.6,0,1.1,0.1,1.5,0.4
		c0.4,0.2,0.8,0.5,1.1,0.9v-4.6h1.6v12.9h-1.5V511z M121.8,506.3c0,1.2,0.3,2.1,0.8,2.7c0.5,0.6,1.1,0.9,1.8,0.9s1.3-0.3,1.8-0.8
		s0.7-1.4,0.7-2.6c0-1.3-0.2-2.2-0.7-2.8s-1.1-0.9-1.8-0.9c-0.7,0-1.3,0.3-1.8,0.9S121.8,505,121.8,506.3z"/>
	<path class="st3" d="M136.9,509.8c-0.6,0.5-1.2,0.8-1.7,1.1c-0.5,0.3-1.1,0.3-1.7,0.3c-1,0-1.8-0.3-2.4-0.8s-0.8-1.1-0.8-1.9
		c0-0.5,0.1-0.9,0.3-1.3c0.2-0.4,0.5-0.7,0.8-0.9s0.7-0.4,1.1-0.5c0.3-0.1,0.8-0.2,1.4-0.2c1.3-0.2,2.2-0.3,2.8-0.5
		c0-0.2,0-0.4,0-0.4c0-0.6-0.1-1.1-0.4-1.4c-0.4-0.4-1-0.5-1.8-0.5c-0.7,0-1.3,0.1-1.6,0.4s-0.6,0.7-0.8,1.4l-1.5-0.2
		c0.1-0.7,0.4-1.2,0.7-1.6c0.3-0.4,0.8-0.7,1.4-0.9s1.3-0.3,2.1-0.3c0.8,0,1.4,0.1,1.9,0.3s0.9,0.4,1.1,0.7c0.2,0.3,0.4,0.6,0.5,1.1
		c0.1,0.3,0.1,0.8,0.1,1.5v2.1c0,1.5,0,2.4,0.1,2.8c0.1,0.4,0.2,0.8,0.4,1.1h-1.7C137,510.6,136.9,510.3,136.9,509.8z M136.8,506.3
		c-0.6,0.2-1.4,0.4-2.6,0.6c-0.7,0.1-1.1,0.2-1.4,0.3s-0.5,0.3-0.6,0.5s-0.2,0.5-0.2,0.8c0,0.4,0.2,0.8,0.5,1.1
		c0.3,0.3,0.8,0.4,1.4,0.4s1.2-0.1,1.6-0.4s0.8-0.6,1-1.1c0.2-0.4,0.3-0.9,0.3-1.6L136.8,506.3L136.8,506.3z"/>
	<path class="st3" d="M146.9,511v-1.1c-0.6,0.9-1.5,1.4-2.6,1.4c-0.7,0-1.4-0.2-2.1-0.6c-0.7-0.4-1.1-1-1.5-1.7
		c-0.3-0.7-0.5-1.6-0.5-2.5s0.2-1.8,0.5-2.5s0.8-1.3,1.4-1.7c0.6-0.4,1.3-0.6,2.1-0.6c0.6,0,1.1,0.1,1.5,0.4
		c0.4,0.2,0.8,0.5,1.1,0.9v-4.6h1.6v12.9h-1.5V511z M141.9,506.3c0,1.2,0.3,2.1,0.8,2.7s1.1,0.9,1.8,0.9c0.7,0,1.3-0.3,1.8-0.8
		s0.7-1.4,0.7-2.6c0-1.3-0.2-2.2-0.7-2.8s-1.1-0.9-1.8-0.9c-0.7,0-1.3,0.3-1.8,0.9S141.9,505,141.9,506.3z"/>
</g>
<g class="st2">
	<path d="M411.7,98.1V83.8h1.9v5.9h7.4v-5.9h1.9v14.3H421v-6.7h-7.4v6.7H411.7z"/>
	<path d="M425.3,92.9c0-1.9,0.5-3.3,1.6-4.3c0.9-0.8,2-1.2,3.3-1.2c1.4,0,2.6,0.5,3.5,1.4c0.9,0.9,1.4,2.2,1.4,3.9
		c0,1.3-0.2,2.4-0.6,3.1c-0.4,0.7-1,1.4-1.7,1.8c-0.7,0.4-1.6,0.6-2.5,0.6c-1.5,0-2.6-0.5-3.5-1.4C425.9,95.9,425.3,94.7,425.3,92.9
		z M427.1,92.9c0,1.3,0.3,2.3,0.9,3c0.6,0.7,1.3,1,2.2,1c0.9,0,1.6-0.3,2.2-1c0.6-0.7,0.9-1.7,0.9-3s-0.3-2.3-0.9-2.9
		c-0.6-0.6-1.3-1-2.2-1s-1.6,0.3-2.2,1C427.4,90.7,427.1,91.6,427.1,92.9z"/>
	<path d="M443.8,98.1v-1.5c-0.8,1.2-1.9,1.8-3.3,1.8c-0.6,0-1.2-0.1-1.7-0.4s-0.9-0.5-1.2-0.9c-0.3-0.4-0.4-0.8-0.5-1.3
		c-0.1-0.3-0.1-0.9-0.1-1.6v-6.4h1.8v5.8c0,0.9,0,1.5,0.1,1.9c0.1,0.5,0.3,0.8,0.7,1.1c0.4,0.3,0.8,0.4,1.3,0.4s1-0.1,1.5-0.4
		s0.8-0.6,1-1.1s0.3-1.1,0.3-2v-5.6h1.8v10.4h-1.7V98.1z"/>
	<path d="M447.5,95l1.7-0.3c0.1,0.7,0.4,1.2,0.8,1.6c0.4,0.4,1.1,0.6,1.9,0.6s1.4-0.2,1.8-0.5c0.4-0.3,0.6-0.7,0.6-1.2
		c0-0.4-0.2-0.7-0.5-0.9c-0.2-0.2-0.8-0.4-1.8-0.6c-1.3-0.3-2.2-0.6-2.7-0.8c-0.5-0.2-0.9-0.6-1.1-1c-0.2-0.4-0.4-0.9-0.4-1.4
		s0.1-0.9,0.3-1.3c0.2-0.4,0.5-0.7,0.9-1c0.3-0.2,0.6-0.4,1.1-0.5c0.5-0.1,1-0.2,1.5-0.2c0.8,0,1.5,0.1,2.1,0.4
		c0.6,0.3,1.1,0.6,1.4,1c0.3,0.4,0.5,0.9,0.6,1.6l-1.7,0.2c-0.1-0.5-0.3-1-0.7-1.3s-0.9-0.4-1.6-0.4c-0.8,0-1.4,0.1-1.7,0.4
		c-0.3,0.3-0.5,0.6-0.5,0.9c0,0.2,0.1,0.4,0.2,0.6c0.1,0.2,0.4,0.3,0.7,0.5c0.2,0.1,0.7,0.2,1.6,0.4c1.2,0.3,2.1,0.6,2.6,0.8
		c0.5,0.2,0.9,0.5,1.2,0.9c0.3,0.4,0.4,0.9,0.4,1.5c0,0.6-0.2,1.1-0.5,1.7c-0.3,0.6-0.8,0.9-1.5,1.2c-0.7,0.3-1.4,0.4-2.2,0.4
		c-1.3,0-2.4-0.3-3.1-0.8S447.6,96.1,447.5,95z"/>
	<path d="M465.3,94.8l1.8,0.2c-0.3,1.1-0.8,1.9-1.6,2.5c-0.8,0.6-1.8,0.9-3,0.9c-1.5,0-2.7-0.5-3.6-1.4c-0.9-0.9-1.3-2.2-1.3-3.9
		c0-1.7,0.4-3.1,1.3-4.1c0.9-1,2.1-1.4,3.5-1.4c1.4,0,2.5,0.5,3.4,1.4c0.9,0.9,1.3,2.3,1.3,4c0,0.1,0,0.3,0,0.5h-7.7
		c0.1,1.1,0.4,2,1,2.6c0.6,0.6,1.3,0.9,2.2,0.9c0.6,0,1.2-0.2,1.7-0.5S465,95.5,465.3,94.8z M459.5,91.9h5.8c-0.1-0.9-0.3-1.5-0.7-2
		c-0.6-0.7-1.3-1-2.2-1c-0.8,0-1.5,0.3-2,0.8S459.5,91,459.5,91.9z"/>
	<path d="M473.1,98.1V85.5h-4.7v-1.7h11.3v1.7H475v12.6C475,98.1,473.1,98.1,473.1,98.1z"/>
	<path d="M478.6,92.9c0-1.9,0.5-3.3,1.6-4.3c0.9-0.8,2-1.2,3.3-1.2c1.4,0,2.6,0.5,3.5,1.4c0.9,0.9,1.4,2.2,1.4,3.9
		c0,1.3-0.2,2.4-0.6,3.1c-0.4,0.7-1,1.4-1.7,1.8c-0.7,0.4-1.6,0.6-2.5,0.6c-1.5,0-2.6-0.5-3.5-1.4C479.2,95.9,478.6,94.7,478.6,92.9
		z M480.4,92.9c0,1.3,0.3,2.3,0.9,3c0.6,0.7,1.3,1,2.2,1c0.9,0,1.6-0.3,2.2-1c0.6-0.7,0.9-1.7,0.9-3s-0.3-2.3-0.9-2.9
		c-0.6-0.6-1.3-1-2.2-1s-1.6,0.3-2.2,1C480.7,90.7,480.4,91.6,480.4,92.9z"/>
	<path d="M490.4,98.1V83.8h1.8V92l4.2-4.2h2.3l-4,3.8l4.4,6.5h-2.2l-3.5-5.3l-1.2,1.2v4.1C492.2,98.1,490.4,98.1,490.4,98.1z"/>
	<path d="M507.5,94.8l1.8,0.2c-0.3,1.1-0.8,1.9-1.6,2.5c-0.8,0.6-1.8,0.9-3,0.9c-1.5,0-2.7-0.5-3.6-1.4c-0.9-0.9-1.3-2.2-1.3-3.9
		c0-1.7,0.4-3.1,1.3-4.1c0.9-1,2.1-1.4,3.5-1.4c1.4,0,2.5,0.5,3.4,1.4c0.9,0.9,1.3,2.3,1.3,4c0,0.1,0,0.3,0,0.5h-7.7
		c0.1,1.1,0.4,2,1,2.6c0.6,0.6,1.3,0.9,2.2,0.9c0.6,0,1.2-0.2,1.7-0.5S507.2,95.5,507.5,94.8z M501.7,91.9h5.8
		c-0.1-0.9-0.3-1.5-0.7-2c-0.6-0.7-1.3-1-2.2-1c-0.8,0-1.5,0.3-2,0.8S501.8,91,501.7,91.9z"/>
	<path d="M511.5,98.1V87.7h1.6v1.5c0.8-1.1,1.9-1.7,3.3-1.7c0.6,0,1.2,0.1,1.7,0.3c0.5,0.2,0.9,0.5,1.2,0.9c0.3,0.4,0.4,0.8,0.5,1.3
		c0.1,0.3,0.1,0.9,0.1,1.7v6.4h-1.8v-6.3c0-0.7-0.1-1.3-0.2-1.6c-0.1-0.3-0.4-0.6-0.7-0.8c-0.3-0.2-0.8-0.3-1.2-0.3
		c-0.7,0-1.4,0.2-1.9,0.7s-0.8,1.4-0.8,2.7v5.7L511.5,98.1L511.5,98.1z"/>
	<path d="M528.3,98.1V83.8h1.9v12.6h7.1v1.7C537.3,98.1,528.3,98.1,528.3,98.1z"/>
	<path d="M541.7,98.1V85.5H537v-1.7h11.3v1.7h-4.7v12.6C543.6,98.1,541.7,98.1,541.7,98.1z"/>
	<path d="M550.3,98.1V83.8h4.9c1.1,0,2,0.1,2.5,0.2c0.8,0.2,1.5,0.5,2.1,1c0.8,0.6,1.3,1.5,1.7,2.4c0.4,0.9,0.6,2.1,0.6,3.4
		c0,1.1-0.1,2.1-0.4,2.9s-0.6,1.5-1,2.1c-0.4,0.6-0.8,1-1.3,1.3s-1,0.6-1.7,0.7c-0.7,0.1-1.4,0.2-2.3,0.2h-5.1V98.1z M552.2,96.4
		h3.1c0.9,0,1.7-0.1,2.2-0.3c0.5-0.2,1-0.4,1.3-0.7c0.4-0.4,0.8-1.1,1-1.8c0.2-0.7,0.4-1.7,0.4-2.8c0-1.5-0.2-2.6-0.7-3.5
		c-0.5-0.9-1.1-1.3-1.8-1.6c-0.5-0.2-1.3-0.3-2.5-0.3h-3V96.4z"/>
	<path d="M403,126.3c-1-1.2-1.8-2.7-2.5-4.3s-1-3.3-1-5.1c0-1.5,0.3-3,0.8-4.5c0.6-1.6,1.5-3.3,2.7-4.9h1.3
		c-0.8,1.4-1.3,2.3-1.6,2.9c-0.4,0.9-0.7,1.8-0.9,2.8c-0.3,1.2-0.4,2.4-0.4,3.7c0,3.1,1,6.3,2.9,9.4H403z"/>
	<path d="M416.7,117.1l1.9,0.5c-0.4,1.6-1.1,2.7-2.1,3.6c-1,0.9-2.3,1.2-3.8,1.2s-2.8-0.3-3.8-0.9c-1-0.6-1.7-1.5-2.2-2.7
		s-0.8-2.5-0.8-3.8c0-1.5,0.3-2.8,0.9-3.9c0.6-1.1,1.4-2,2.4-2.5s2.2-0.9,3.5-0.9c1.4,0,2.6,0.4,3.6,1.1s1.7,1.8,2,3.1l-1.9,0.4
		c-0.3-1-0.8-1.8-1.4-2.3c-0.6-0.5-1.4-0.7-2.4-0.7c-1.1,0-2,0.3-2.8,0.8s-1.3,1.2-1.6,2.1c-0.3,0.9-0.4,1.8-0.4,2.7
		c0,1.2,0.2,2.3,0.5,3.2s0.9,1.6,1.7,2c0.8,0.4,1.6,0.7,2.4,0.7c1.1,0,2-0.3,2.7-0.9C415.8,119.3,416.5,118.3,416.7,117.1z"/>
	<path d="M427.5,120.8c-0.7,0.6-1.3,0.9-1.9,1.2c-0.6,0.3-1.2,0.3-1.9,0.3c-1.1,0-2-0.3-2.6-0.8c-0.6-0.5-0.9-1.3-0.9-2.1
		c0-0.5,0.1-1,0.3-1.4c0.2-0.4,0.5-0.8,0.9-1c0.4-0.2,0.8-0.4,1.3-0.6c0.3-0.1,0.9-0.2,1.6-0.3c1.4-0.2,2.5-0.4,3.1-0.6
		c0-0.2,0-0.4,0-0.5c0-0.7-0.2-1.2-0.5-1.5c-0.4-0.4-1.1-0.6-2-0.6c-0.8,0-1.4,0.1-1.8,0.4c-0.4,0.3-0.7,0.8-0.9,1.5l-1.7-0.2
		c0.2-0.7,0.4-1.3,0.8-1.8c0.4-0.5,0.9-0.8,1.6-1s1.5-0.4,2.4-0.4c0.9,0,1.6,0.1,2.2,0.3c0.6,0.2,1,0.5,1.2,0.8s0.4,0.7,0.5,1.2
		c0.1,0.3,0.1,0.8,0.1,1.6v2.3c0,1.6,0,2.7,0.1,3.1c0.1,0.4,0.2,0.8,0.4,1.2H428C427.7,121.7,427.5,121.3,427.5,120.8z M427.3,116.9
		c-0.6,0.3-1.6,0.5-2.9,0.7c-0.7,0.1-1.2,0.2-1.5,0.4c-0.3,0.2-0.5,0.3-0.7,0.6c-0.2,0.3-0.2,0.5-0.2,0.8c0,0.5,0.2,0.9,0.5,1.2
		c0.3,0.3,0.9,0.5,1.6,0.5s1.3-0.1,1.8-0.4s0.9-0.7,1.2-1.2c0.2-0.4,0.3-1,0.3-1.8L427.3,116.9L427.3,116.9z"/>
	<path d="M431.8,126.1l-0.2-1.7c0.4,0.1,0.7,0.2,1,0.2c0.4,0,0.7-0.1,0.9-0.2c0.2-0.1,0.4-0.3,0.6-0.5c0.1-0.2,0.3-0.6,0.5-1.3
		c0-0.1,0.1-0.2,0.2-0.4l-3.9-10.4h1.9l2.2,6c0.3,0.8,0.5,1.6,0.8,2.4c0.2-0.8,0.4-1.6,0.7-2.4l2.2-6h1.8l-3.9,10.5
		c-0.4,1.1-0.8,1.9-1,2.4c-0.3,0.6-0.7,1-1.1,1.3c-0.4,0.3-0.9,0.4-1.4,0.4C432.6,126.3,432.2,126.2,431.8,126.1z"/>
	<path d="M441.8,122.1v-10.4h1.6v1.5c0.3-0.5,0.8-0.9,1.3-1.2c0.5-0.3,1.2-0.5,1.8-0.5c0.8,0,1.4,0.2,1.9,0.5s0.8,0.8,1,1.3
		c0.8-1.2,1.9-1.8,3.2-1.8c1,0,1.8,0.3,2.4,0.9c0.6,0.6,0.8,1.4,0.8,2.6v7.1h-1.7v-6.5c0-0.7-0.1-1.2-0.2-1.5
		c-0.1-0.3-0.3-0.6-0.6-0.7c-0.3-0.1-0.7-0.3-1.1-0.3c-0.7,0-1.3,0.2-1.8,0.7s-0.7,1.3-0.7,2.3v6h-1.8v-6.7c0-0.8-0.1-1.4-0.4-1.8
		c-0.3-0.4-0.8-0.6-1.4-0.6c-0.5,0-1,0.1-1.4,0.4c-0.4,0.3-0.7,0.6-0.9,1.1c-0.2,0.5-0.3,1.2-0.3,2.2v5.4H441.8z"/>
	<path d="M465.3,120.8c-0.7,0.6-1.3,0.9-1.9,1.2c-0.6,0.3-1.2,0.3-1.9,0.3c-1.1,0-2-0.3-2.6-0.8c-0.6-0.5-0.9-1.3-0.9-2.1
		c0-0.5,0.1-1,0.3-1.4c0.2-0.4,0.5-0.8,0.9-1c0.4-0.2,0.8-0.4,1.3-0.6c0.3-0.1,0.9-0.2,1.6-0.3c1.4-0.2,2.5-0.4,3.1-0.6
		c0-0.2,0-0.4,0-0.5c0-0.7-0.2-1.2-0.5-1.5c-0.4-0.4-1.1-0.6-2-0.6c-0.8,0-1.4,0.1-1.8,0.4c-0.4,0.3-0.7,0.8-0.9,1.5l-1.7-0.2
		c0.2-0.7,0.4-1.3,0.8-1.8c0.4-0.5,0.9-0.8,1.6-1s1.5-0.4,2.4-0.4c0.9,0,1.6,0.1,2.2,0.3c0.6,0.2,1,0.5,1.2,0.8s0.4,0.7,0.5,1.2
		c0.1,0.3,0.1,0.8,0.1,1.6v2.3c0,1.6,0,2.7,0.1,3.1c0.1,0.4,0.2,0.8,0.4,1.2h-1.8C465.4,121.7,465.3,121.3,465.3,120.8z
		 M465.1,116.9c-0.6,0.3-1.6,0.5-2.9,0.7c-0.7,0.1-1.2,0.2-1.5,0.4c-0.3,0.2-0.5,0.3-0.7,0.6c-0.2,0.3-0.2,0.5-0.2,0.8
		c0,0.5,0.2,0.9,0.5,1.2c0.3,0.3,0.9,0.5,1.6,0.5s1.3-0.1,1.8-0.4s0.9-0.7,1.2-1.2c0.2-0.4,0.3-1,0.3-1.8L465.1,116.9L465.1,116.9z"
		/>
	<path d="M469.6,122.1v-10.4h1.6v1.5c0.8-1.1,1.9-1.7,3.3-1.7c0.6,0,1.2,0.1,1.7,0.3c0.5,0.2,0.9,0.5,1.2,0.9
		c0.3,0.4,0.4,0.8,0.5,1.3c0.1,0.3,0.1,0.9,0.1,1.7v6.4h-1.8v-6.3c0-0.7-0.1-1.3-0.2-1.6c-0.1-0.3-0.4-0.6-0.7-0.8
		c-0.3-0.2-0.8-0.3-1.2-0.3c-0.7,0-1.4,0.2-1.9,0.7s-0.8,1.4-0.8,2.7v5.7L469.6,122.1L469.6,122.1z"/>
	<path d="M496.7,117.1l1.9,0.5c-0.4,1.6-1.1,2.7-2.1,3.6c-1,0.9-2.3,1.2-3.8,1.2s-2.8-0.3-3.8-0.9c-1-0.6-1.7-1.5-2.2-2.7
		s-0.8-2.5-0.8-3.8c0-1.5,0.3-2.8,0.9-3.9c0.6-1.1,1.4-2,2.4-2.5s2.2-0.9,3.5-0.9c1.4,0,2.6,0.4,3.6,1.1s1.7,1.8,2,3.1l-1.9,0.4
		c-0.3-1-0.8-1.8-1.4-2.3c-0.6-0.5-1.4-0.7-2.4-0.7c-1.1,0-2,0.3-2.8,0.8s-1.3,1.2-1.6,2.1c-0.3,0.9-0.4,1.8-0.4,2.7
		c0,1.2,0.2,2.3,0.5,3.2s0.9,1.6,1.7,2c0.8,0.4,1.6,0.7,2.4,0.7c1.1,0,2-0.3,2.7-0.9C495.8,119.3,496.5,118.3,496.7,117.1z"/>
	<path d="M500.1,116.9c0-1.9,0.5-3.3,1.6-4.3c0.9-0.8,2-1.2,3.3-1.2c1.4,0,2.6,0.5,3.5,1.4c0.9,0.9,1.4,2.2,1.4,3.9
		c0,1.3-0.2,2.4-0.6,3.1c-0.4,0.7-1,1.4-1.7,1.8c-0.7,0.4-1.6,0.6-2.5,0.6c-1.5,0-2.6-0.5-3.5-1.4
		C500.7,119.9,500.1,118.7,500.1,116.9z M501.9,116.9c0,1.3,0.3,2.3,0.9,3c0.6,0.7,1.3,1,2.2,1c0.9,0,1.6-0.3,2.2-1
		c0.6-0.7,0.9-1.7,0.9-3s-0.3-2.3-0.9-2.9c-0.6-0.6-1.3-1-2.2-1s-1.6,0.3-2.2,1C502.2,114.7,501.9,115.6,501.9,116.9z"/>
	<path d="M512.4,122.1v-2h2v2H512.4z"/>
	<path d="M517.9,122.1v-2h2v2c0,0.7-0.1,1.3-0.4,1.8s-0.7,0.8-1.2,1l-0.5-0.8c0.4-0.2,0.6-0.4,0.8-0.7c0.2-0.3,0.3-0.8,0.3-1.4h-1
		V122.1z"/>
	<path d="M523.1,122.1v-14.3h1.9v12.6h7.1v1.7C532.1,122.1,523.1,122.1,523.1,122.1z"/>
	<path d="M537.9,120.5l0.3,1.6c-0.5,0.1-0.9,0.2-1.3,0.2c-0.6,0-1.1-0.1-1.5-0.3c-0.4-0.2-0.6-0.5-0.7-0.8c-0.1-0.3-0.2-1-0.2-2.1
		v-6h-1.3v-1.4h1.3v-2.6l1.7-1.1v3.6h1.8v1.4h-1.8v6.1c0,0.5,0,0.8,0.1,1c0.1,0.2,0.2,0.3,0.3,0.3s0.3,0.1,0.6,0.1
		C537.4,120.6,537.6,120.6,537.9,120.5z"/>
	<path d="M546.4,122.1v-1.3c-0.7,1-1.6,1.5-2.9,1.5c-0.8,0-1.6-0.2-2.3-0.7c-0.7-0.5-1.2-1.1-1.6-1.9c-0.4-0.8-0.6-1.8-0.6-2.8
		s0.2-2,0.5-2.8s0.9-1.5,1.6-1.9c0.7-0.4,1.5-0.7,2.3-0.7c0.6,0,1.2,0.1,1.7,0.4s0.9,0.6,1.2,1v-5.1h1.7v14.3H546.4z M540.8,116.9
		c0,1.3,0.3,2.3,0.8,3s1.2,1,2,1s1.4-0.3,2-0.9c0.6-0.6,0.8-1.6,0.8-2.9c0-1.4-0.3-2.5-0.8-3.1c-0.5-0.6-1.2-1-2-1s-1.4,0.3-2,1
		C541,114.7,540.8,115.6,540.8,116.9z"/>
	<path d="M551.3,122.1v-2h2v2H551.3z"/>
	<path d="M557.3,125l-0.3-0.3c2.5-2.4,3.6-5.6,3.6-8.7c0-3.1-1.1-6.1-3.7-8.5l0.2-0.3c3.6,2.8,4.8,6,4.8,8.8
		C562,119.6,560.4,122.6,557.3,125z"/>
</g>
</svg>
