<?xml version="1.0" encoding="utf-8"?>
<!-- Generator: Adobe Illustrator 23.0.0, SVG Export Plug-In . SVG Version: 6.00 Build 0)  -->
<svg version="1.1" id="运作原理" xmlns="http://www.w3.org/2000/svg" xmlns:xlink="http://www.w3.org/1999/xlink" x="0px"
	 y="0px" viewBox="0 0 705 383" style="enable-background:new 0 0 705 383;" xml:space="preserve">
<style type="text/css">
	.st0{fill:none;stroke:#90A7AB;}
	.st1{fill:none;stroke:#70DBCB;}
	.st2{fill:#9FE7DD;stroke:#34B9A1;stroke-width:2;}
	.st3{enable-background:new    ;}
	.st4{fill:#456E68;}
	.st5{fill:none;stroke:#456E68;stroke-width:1.5;stroke-miterlimit:10;}
	.st6{fill:#70DBCB;}
</style>
<path id="形状_1_拷贝_3" class="st0" d="M63.1,175.9l0.1,71.4l4.6-2"/>
<path id="形状_1_拷贝_5" class="st0" d="M622,153l-0.1-71l-4.6,2"/>
<path id="形状_1" class="st0" d="M108,89h90.5l42.5,42.5l-0.3-5.5"/>
<path id="形状_1_拷贝_2" class="st0" d="M240.7,162h-90.2l-42.4-42.9l0.3,5.6"/>
<path id="形状_1_拷贝" class="st0" d="M560,201h-88.4L430,242.3l0.3-5.4"/>
<path id="形状_1_拷贝_4" class="st0" d="M430.3,272h88.2l41.4-41.7l-0.3,5.4"/>
<circle id="椭圆_7-2" class="st1" cx="487.3" cy="167" r="19"/>
<circle id="椭圆_6" class="st2" cx="339" cy="187" r="94"/>
<g class="st3">
	<path class="st4" d="M646.4,186.4H638v8.4h8.4V186.4z M643.6,192h-2.8v-2.8h2.8V192z"/>
	<path class="st4" d="M657.6,186.4h-8.4v8.4h8.4V186.4z M654.8,192H652v-2.8h2.8V192z"/>
	<path class="st4" d="M646.4,197.6H638v8.4h8.4V197.6z M643.6,203.2h-2.8v-2.8h2.8V203.2z"/>
	<path class="st4" d="M657.6,197.6h-8.4v8.4h8.4V197.6z M654.8,203.2H652v-2.8h2.8V203.2z"/>
	<path class="st4" d="M646.4,217.2v-8.4H638v8.4H646.4z M640.8,211.6h2.8v2.8h-2.8V211.6z"/>
	<path class="st4" d="M657.6,208.8h-8.4v8.4h8.4V208.8z M654.8,214.4H652v-2.8h2.8V214.4z"/>
	<path class="st4" d="M666,183.6v-2.8h-2.8v-5.6h-2.8v-5.6h-25.2v5.6h-2.8v5.6h-2.8v2.8h2.8V220h-11.2v-16.8h2.8v-8.4h-2.8v-2.1
		l-19.6-13.6l-8.4,5.8v-4.3h-8.4v10.1l-2.8,1.9v2.1h-2.8v8.4h2.8v17.1c-1.6,0.6-2.8,2.1-2.8,3.9v2.8c0,2.3,1.9,4.2,4.2,4.2h27.3
		c-2.2,2.7-3.5,6.1-3.5,9.8c0,8.5,6.9,15.4,15.4,15.4S638,249.5,638,241c0-3.7-1.3-7.1-3.5-9.8h27.3c2.3,0,4.2-1.9,4.2-4.2v-2.8
		c0-1.8-1.2-3.4-2.8-3.9v-36.7H666z M638,172.4h19.6v2.8H638V172.4z M635.2,178h25.2v2.8h-25.2V178z M587.6,183.4h2.8v3.5l-2.8,1.9
		V183.4z M584.8,194.2l16.8-11.6l16.8,11.6v0.7h-33.6V194.2z M582,197.6h39.2v2.8H582V197.6z M618.4,203.2V220h-11.2v-14H596v14
		h-11.2v-16.8H618.4z M604.4,220h-5.6v-11.2h5.6V220z M622.6,253.6c-6.9,0-12.6-5.7-12.6-12.6c0-6.9,5.7-12.6,12.6-12.6
		s12.6,5.7,12.6,12.6C635.2,248,629.6,253.6,622.6,253.6z M663.2,227c0,0.8-0.6,1.4-1.4,1.4h-30.4c-2.5-1.8-5.5-2.8-8.8-2.8
		s-6.3,1-8.8,2.8h-30.4c-0.8,0-1.4-0.6-1.4-1.4v-2.8c0-0.8,0.6-1.4,1.4-1.4h78.4c0.8,0,1.4,0.6,1.4,1.4V227z M660.4,220h-25.2v-36.4
		h25.2V220z"/>
</g>
<g class="st3">
	<g>
		<g>
			<path class="st4" d="M96.5,278.4H86.4c1-0.8,1.6-1.9,1.6-3.2c0-2.3-1.8-4.1-4.1-4.1s-4.1,1.8-4.1,4.1c0,0.7,0.2,1.3,0.5,1.9
				l-1.5,1.3H58.9c-0.6-1.5-2.1-2.5-3.8-2.5s-3.2,1-3.8,2.5H29c-1.8,0-3.3,1.5-3.3,3.3v8c0,0.6,0.5,1.1,1.1,1.1s1.1-0.5,1.1-1.1v-8
				c0-0.6,0.5-1.1,1.1-1.1h22c0.1,0.4,0.2,0.8,0.3,1.2l-9.1,8.3c-0.6-0.4-1.4-0.7-2.2-0.7c-2.3,0-4.1,1.8-4.1,4.1s1.8,4.1,4.1,4.1
				s4.1-1.8,4.1-4.1c0-0.7-0.2-1.3-0.4-1.8l9.1-8.3c0.7,0.5,1.5,0.7,2.3,0.7c1.2,0,2.2-0.5,3-1.3l7.4,4.4c-0.1,0.3-0.1,0.5-0.1,0.8
				c0,2.3,1.8,4.1,4.1,4.1s4.1-1.8,4.1-4.1c0-0.6-0.1-1.2-0.4-1.7l6.4-5.8h16.9c0.6,0,1.1,0.5,1.1,1.1v26.8c0,0.6,0.5,1.1,1.1,1.1
				s1.1-0.5,1.1-1.1v-26.8C99.8,279.8,98.3,278.4,96.5,278.4z M40,295.4c-1.1,0-1.9-0.9-1.9-1.9c0-1.1,0.9-1.9,1.9-1.9
				s1.9,0.9,1.9,1.9S41.1,295.4,40,295.4z M55.1,281.9c-1.1,0-1.9-0.9-1.9-1.9c0-1.1,0.9-1.9,1.9-1.9S57,279,57,280
				S56.2,281.9,55.1,281.9z M69.5,290c-1.1,0-1.9-0.9-1.9-1.9c0-1.1,0.9-1.9,1.9-1.9s1.9,0.9,1.9,1.9C71.5,289.1,70.6,290,69.5,290z
				 M71.9,284.7c-0.7-0.5-1.5-0.8-2.4-0.8c-1.2,0-2.3,0.5-3.1,1.4l-7.3-4.4c0-0.1,0.1-0.3,0.1-0.4h17.2L71.9,284.7z M83.9,277.1
				c-1.1,0-1.9-0.9-1.9-1.9s0.9-1.9,1.9-1.9s1.9,0.9,1.9,1.9S85,277.1,83.9,277.1z"/>
		</g>
	</g>
	<g>
		<g>
			<path class="st4" d="M99.8,312.8c0-0.6-0.5-1.1-1.1-1.1s-1.1,0.5-1.1,1.1v8.2h-8v-25.7v-4.4v-4.5c0-0.6-0.5-1.1-1.1-1.1h-8.2
				c-0.6,0-1.1,0.5-1.1,1.1v4.5v4.4V321h-4.1v-5.5V311v-4.5c0-0.6-0.5-1.1-1.1-1.1h-8c-0.6,0-1.1,0.5-1.1,1.1v4.5v4.4v5.5h-4.1
				v-19.5V297v-4.5c0-0.6-0.5-1.1-1.1-1.1h-8.2c-0.6,0-1.1,0.5-1.1,1.1v4.5v4.4v6.1c0,0.6,0.5,1.1,1.1,1.1s1.1-0.5,1.1-1.1v-5h6
				v18.4h-6v-9.1c0-0.6-0.5-1.1-1.1-1.1s-1.1,0.5-1.1,1.1v9.1h-4.1v-5.5V311v-4.5c0-0.6-0.5-1.1-1.1-1.1H37c-0.6,0-1.1,0.5-1.1,1.1
				v4.5v4.4v5.5h-8.2v-27c0-0.6-0.5-1.1-1.1-1.1s-1.1,0.5-1.1,1.1v35.9c0,1.8,1.5,3.3,3.3,3.3h23.8l-0.6,5.4h-5
				c-0.6,0-1.1,0.5-1.1,1.1v3.8c0,0.6,0.5,1.1,1.1,1.1h31.5c0.6,0,1.1-0.5,1.1-1.1v-3.8c0-0.6-0.5-1.1-1.1-1.1h-5.2l-0.6-5.4h23.8
				c1.8,0,3.3-1.5,3.3-3.3V322l0,0V312.8L99.8,312.8z M81.5,287.4h6v2.3h-6V287.4z M81.5,291.9h6v2.3h-6V291.9z M81.5,296.3h6v24.6
				h-6V296.3z M67.1,307.6h6v2.3h-6V307.6z M67.1,312.1h6v2.3h-6V312.1z M67.1,316.5h6v4.4h-6V316.5z M52.7,295.9v-2.3h6v2.3H52.7z
				 M52.7,300.3V298h6v2.3H52.7z M38.3,307.6h6v2.3h-6V307.6z M38.3,312.1h6v2.3h-6V312.1z M38.3,316.5h6v4.4h-6V316.5z M77.5,340.7
				v1.6H48.1v-1.6H77.5z M54.3,338.5l0.6-5.4h15.6l0.6,5.4H54.3z M96.5,331H29c-0.6,0-1.1-0.5-1.1-1.1v-6.7h69.7v6.7l0,0
				C97.6,330.5,97.1,331,96.5,331z"/>
		</g>
	</g>
</g>
<g class="st3">
	<g>
		<g>
			<path class="st4" d="M601.9,25.6h-8.5c-0.6,0-1.1,0.5-1.1,1.1V31c0,0.6,0.5,1.1,1.1,1.1h8.5c0.6,0,1.1-0.5,1.1-1.1v-4.3
				C602.9,26.1,602.5,25.6,601.9,25.6z M596.5,29.9h-2.1v-2.1h2.1V29.9z M600.8,29.9h-2.1v-2.1h2.1V29.9z"/>
		</g>
	</g>
	<g>
		<g>
			<path class="st4" d="M601.9,34.1h-8.5c-0.6,0-1.1,0.5-1.1,1.1v4.3c0,0.6,0.5,1.1,1.1,1.1h8.5c0.6,0,1.1-0.5,1.1-1.1v-4.3
				C602.9,34.6,602.5,34.1,601.9,34.1z M596.5,38.4h-2.1v-2.1h2.1V38.4z M600.8,38.4h-2.1v-2.1h2.1V38.4z"/>
		</g>
	</g>
	<g>
		<g>
			<path class="st4" d="M601.9,42.7h-8.5c-0.6,0-1.1,0.5-1.1,1.1V48c0,0.6,0.5,1.1,1.1,1.1h8.5c0.6,0,1.1-0.5,1.1-1.1v-4.3
				C602.9,43.1,602.5,42.7,601.9,42.7z M596.5,46.9h-2.1v-2.1h2.1V46.9z M600.8,46.9h-2.1v-2.1h2.1V46.9z"/>
		</g>
	</g>
	<g>
		<g>
			<path class="st4" d="M640.3,25.6h-8.5c-0.6,0-1.1,0.5-1.1,1.1V31c0,0.6,0.5,1.1,1.1,1.1h8.5c0.6,0,1.1-0.5,1.1-1.1v-4.3
				C641.3,26.1,640.9,25.6,640.3,25.6z M634.9,29.9h-2.1v-2.1h2.1V29.9z M639.2,29.9h-2.1v-2.1h2.1V29.9z"/>
		</g>
	</g>
	<g>
		<g>
			<path class="st4" d="M640.3,17.1h-8.5c-0.6,0-1.1,0.5-1.1,1.1v4.3c0,0.6,0.5,1.1,1.1,1.1h8.5c0.6,0,1.1-0.5,1.1-1.1v-4.3
				C641.3,17.5,640.9,17.1,640.3,17.1z M634.9,21.3h-2.1v-2.1h2.1V21.3z M639.2,21.3h-2.1v-2.1h2.1V21.3z"/>
		</g>
	</g>
	<g>
		<g>
			<path class="st4" d="M614.7,29.9h-4.3c-0.6,0-1.1,0.5-1.1,1.1v4.3c0,0.6,0.5,1.1,1.1,1.1h4.3c0.6,0,1.1-0.5,1.1-1.1V31
				C615.7,30.3,615.3,29.9,614.7,29.9z M613.6,34.1h-2.1V32h2.1V34.1z"/>
		</g>
	</g>
	<g>
		<g>
			<path class="st4" d="M623.2,29.9h-4.3c-0.6,0-1.1,0.5-1.1,1.1v4.3c0,0.6,0.5,1.1,1.1,1.1h4.3c0.6,0,1.1-0.5,1.1-1.1V31
				C624.3,30.3,623.8,29.9,623.2,29.9z M622.1,34.1H620V32h2.1V34.1z"/>
		</g>
	</g>
	<g>
		<g>
			<path class="st4" d="M614.7,21.3h-4.3c-0.6,0-1.1,0.5-1.1,1.1v4.3c0,0.6,0.5,1.1,1.1,1.1h4.3c0.6,0,1.1-0.5,1.1-1.1v-4.3
				C615.7,21.8,615.3,21.3,614.7,21.3z M613.6,25.6h-2.1v-2.1h2.1V25.6z"/>
		</g>
	</g>
	<g>
		<g>
			<path class="st4" d="M623.2,21.3h-4.3c-0.6,0-1.1,0.5-1.1,1.1v4.3c0,0.6,0.5,1.1,1.1,1.1h4.3c0.6,0,1.1-0.5,1.1-1.1v-4.3
				C624.3,21.8,623.8,21.3,623.2,21.3z M622.1,25.6H620v-2.1h2.1V25.6z"/>
		</g>
	</g>
	<g>
		<g>
			<path class="st4" d="M614.7,12.8h-4.3c-0.6,0-1.1,0.5-1.1,1.1v4.3c0,0.6,0.5,1.1,1.1,1.1h4.3c0.6,0,1.1-0.5,1.1-1.1v-4.3
				C615.7,13.3,615.3,12.8,614.7,12.8z M613.6,17.1h-2.1V15h2.1V17.1z"/>
		</g>
	</g>
	<g>
		<g>
			<path class="st4" d="M623.2,12.8h-4.3c-0.6,0-1.1,0.5-1.1,1.1v4.3c0,0.6,0.5,1.1,1.1,1.1h4.3c0.6,0,1.1-0.5,1.1-1.1v-4.3
				C624.3,13.3,623.8,12.8,623.2,12.8z M622.1,17.1H620V15h2.1V17.1z"/>
		</g>
	</g>
	<g>
		<g>
			<path class="st4" d="M614.7,42.7h-4.3c-0.6,0-1.1,0.5-1.1,1.1V48c0,0.6,0.5,1.1,1.1,1.1h4.3c0.6,0,1.1-0.5,1.1-1.1v-4.3
				C615.7,43.1,615.3,42.7,614.7,42.7z M613.6,46.9h-2.1v-2.1h2.1V46.9z"/>
		</g>
	</g>
	<g>
		<g>
			<rect x="592.3" y="51.2" class="st4" width="2.1" height="2.1"/>
		</g>
	</g>
	<g>
		<g>
			<rect x="596.5" y="51.2" class="st4" width="2.1" height="2.1"/>
		</g>
	</g>
	<g>
		<g>
			<rect x="600.8" y="51.2" class="st4" width="2.1" height="2.1"/>
		</g>
	</g>
	<g>
		<g>
			<path class="st4" d="M650.9,38.4h-5.3V13.9c0-0.6-0.5-1.1-1.1-1.1H637v-1.7l1.1-1.1c0.9,0.7,2,1.1,3.1,1.1c1.4,0,2.7-0.5,3.7-1.5
				l0.2-0.2c0.4-0.4,0.4-1.1,0-1.5l-2.4-2.4l2.4-2.4l-1.5-1.5L641.2,4l-3.5-3.5c-0.2-0.2-0.5-0.3-0.8-0.3c-0.4,0-0.7,0.2-0.9,0.4
				c-1.1,1-1.7,2.3-1.7,3.7s0.5,2.9,1.6,3.9l0.5,0.5l-1.4,1.4c-0.2,0.2-0.3,0.5-0.3,0.8V13h-6.4V9.6c0-0.6-0.5-1.1-1.1-1.1h-3.7
				l-6.1-8.1c-0.4-0.5-1.3-0.5-1.7,0l-6.1,8.1h-3.7c-0.6,0-1.1,0.5-1.1,1.1v11.7h-6.4v-8.5h-2.1v8.5h-7.5c-0.6,0-1.1,0.5-1.1,1.1
				v40.5c0,0.6,0.5,1.1,1.1,1.1h17.1h7.5h8.5h1.1h6.4h17.1c2.9,0,5.3-2.4,5.3-5.3V39.5C652,38.9,651.5,38.4,650.9,38.4z M605.1,61.9
				h-14.9V23.5h14.9V61.9z M637.1,2.6l5.8,5.8c-1.2,0.7-2.8,0.6-3.9-0.5l-1.5-1.5c-0.6-0.6-1-1.4-0.9-2.3
				C636.7,3.6,636.8,3.1,637.1,2.6z M616.8,2.8l4.3,5.7h-8.5L616.8,2.8z M612.5,53.3v8.5h-5.3V22.4V10.7h19.2v3.2v19.2h2.1V14.9
				h14.9v23.5h-2.1v-1.1c0-1.8-1.4-3.2-3.2-3.2h-6.4c-1.8,0-3.2,1.4-3.2,3.2v1.1h-9.6c-0.6,0-1.1,0.5-1.1,1.1v11.7h-8.5v2.1H612.5z
				 M639.2,37.3v1.1h-8.5v-1.1c0-0.6,0.5-1.1,1.1-1.1h6.4C638.7,36.3,639.2,36.7,639.2,37.3z M614.7,61.9v-8.5h3.2v5.3
				c0,1.2,0.4,2.3,1.1,3.2H614.7z M649.9,58.7c0,1.8-1.4,3.2-3.2,3.2h-17.1h-6.4c-1.8,0-3.2-1.4-3.2-3.2V48c0.9,0.7,2,1.1,3.2,1.1
				h1.1v3.2c0,0.6,0.5,1.1,1.1,1.1h4.3c0.6,0,1.1-0.5,1.1-1.1v-3.2h1.1h6.4h1.1v3.2c0,0.6,0.5,1.1,1.1,1.1h4.3
				c0.6,0,1.1-0.5,1.1-1.1v-3.2h1.1c1.2,0,2.3-0.4,3.2-1.1v10.7H649.9z M626.4,51.2v-2.1h2.1v2.1H626.4z M632.8,46.9v-2.1h4.3v2.1
				H632.8z M641.3,51.2v-2.1h2.1v2.1H641.3z M649.9,43.7c0,1.8-1.4,3.2-3.2,3.2h-2.1h-4.3h-1.1v-3.2c0-0.6-0.5-1.1-1.1-1.1h-6.4
				c-0.6,0-1.1,0.5-1.1,1.1v3.2h-1.1h-4.3h-2.1c-1.8,0-3.2-1.4-3.2-3.2v-3.2h29.9L649.9,43.7L649.9,43.7z"/>
		</g>
	</g>
	<g>
		<g>
			<rect x="645.6" y="57.6" class="st4" width="2.1" height="2.1"/>
		</g>
	</g>
	<g>
		<g>
			<rect x="641.3" y="57.6" class="st4" width="2.1" height="2.1"/>
		</g>
	</g>
	<g>
		<g>
			<rect x="637.1" y="57.6" class="st4" width="2.1" height="2.1"/>
		</g>
	</g>
</g>
<g>
	<circle class="st5" cx="61.9" cy="57.5" r="16.8"/>
	<line class="st5" x1="48.4" y1="83.8" x2="61.9" y2="99.2"/>
	<line class="st5" x1="75" y1="83.8" x2="61.9" y2="99.2"/>
	<line class="st5" x1="61.9" y1="114.5" x2="61.9" y2="99.2"/>
	<path class="st5" d="M97.9,105.7v3.6c0,3.3-2.7,6-6,6H31.8c-3.3,0-6-2.7-6-6v-3.6"/>
	<path class="st5" d="M31.8,99.7"/>
	<path class="st5" d="M25.8,107.4c0-13.6,11.2-24,24.8-24h22.6c13.6,0,24.7,11.1,24.7,24.7l0,0"/>
</g>
<g id="椭圆_7_1_">
	<path class="st6" d="M487.1,186.5c-10.8,0-19.5-8.7-19.5-19.5s8.7-19.5,19.5-19.5s19.5,8.7,19.5,19.5S497.9,186.5,487.1,186.5z
		 M487.1,148.5c-10.2,0-18.5,8.3-18.5,18.5s8.3,18.5,18.5,18.5s18.5-8.3,18.5-18.5S497.3,148.5,487.1,148.5z"/>
</g>
<g>
	<g>
		<path class="st6" d="M481.4,176.6v-1.1c2.2-0.9,3.3-2.5,3.3-4.8v-2.8h-3v-1.2h3v-3.8c0-1.6,0.4-3,1.3-4s2-1.5,3.5-1.5
			c0.8,0,1.6,0.2,2.4,0.5v1.2c-0.8-0.4-1.6-0.6-2.4-0.6c-1.1,0-1.9,0.4-2.6,1.2c-0.6,0.8-0.9,1.9-0.9,3.4v3.6h4v1.2h-4v2.3
			c0,2.6-0.9,4.3-2.8,5.3h9.7v1.1L481.4,176.6L481.4,176.6z"/>
	</g>
</g>
<g id="椭圆_7-2_1_">
	<path class="st6" d="M195.3,209c-10.8,0-19.5-8.7-19.5-19.5s8.7-19.5,19.5-19.5s19.5,8.7,19.5,19.5S206,209,195.3,209z
		 M195.3,171.1c-10.2,0-18.5,8.3-18.5,18.5s8.3,18.5,18.5,18.5s18.5-8.3,18.5-18.5C213.8,179.3,205.5,171.1,195.3,171.1z"/>
</g>
<g>
	<g>
		<g>
			<path class="st6" d="M189.6,199.1V198c2.2-0.9,3.3-2.5,3.3-4.8v-2.8h-3v-1.2h3v-3.8c0-1.6,0.4-3,1.3-4c0.9-1,2-1.5,3.5-1.5
				c0.8,0,1.6,0.2,2.4,0.5v1.2c-0.8-0.4-1.6-0.6-2.4-0.6c-1.1,0-1.9,0.4-2.6,1.2c-0.6,0.8-0.9,1.9-0.9,3.4v3.6h4v1.2h-4v2.3
				c0,2.6-0.9,4.3-2.8,5.3h9.7v1.1L189.6,199.1L189.6,199.1z"/>
		</g>
	</g>
</g>
<g>
	<path class="st4" d="M617.2,248.8v-1.7c1.8-0.5,2.7-1.7,2.7-3.4v-2h-2.4V240h2.4v-2.8c0-1.4,0.4-2.5,1.3-3.4c0.9-0.9,2-1.4,3.3-1.4
		c0.9,0,1.8,0.1,2.5,0.5v1.9c-0.8-0.5-1.7-0.6-2.4-0.6c-1.8,0-2.7,1.1-2.7,3.3v2.5h3.6v1.7h-3.6v1.7c0,1.8-0.8,2.9-2.2,3.8h8.3v1.7
		h-10.8V248.8z"/>
</g>
<g class="st3">
	<path d="M278.6,172.9v-15.7h5.9c1,0,1.8,0,2.4,0.2c0.8,0.1,1.4,0.4,1.9,0.7c0.5,0.4,0.9,0.9,1.3,1.5c0.3,0.7,0.5,1.4,0.5,2.1
		c0,1.3-0.4,2.5-1.3,3.4s-2.4,1.4-4.6,1.4h-4v6.4L278.6,172.9L278.6,172.9z M280.7,164.6h4.1c1.3,0,2.3-0.3,2.9-0.8s0.8-1.2,0.8-2.1
		c0-0.7-0.2-1.2-0.5-1.7s-0.8-0.8-1.3-0.9c-0.4-0.1-1-0.1-1.9-0.1h-4v5.6H280.7z"/>
	<path d="M293,172.9v-11.4h1.7v1.7c0.4-0.8,0.9-1.3,1.2-1.6s0.8-0.4,1.2-0.4c0.7,0,1.3,0.2,2,0.6l-0.7,1.8c-0.5-0.3-0.9-0.4-1.4-0.4
		c-0.4,0-0.8,0.1-1.1,0.4c-0.3,0.3-0.6,0.6-0.7,1.1c-0.2,0.7-0.3,1.4-0.3,2.3v6H293V172.9z"/>
	<path d="M300.4,159.4v-2.2h1.9v2.2H300.4z M300.4,172.9v-11.4h1.9v11.4H300.4z"/>
	<path d="M305.3,172.9v-11.4h1.7v1.6c0.8-1.3,2-1.9,3.6-1.9c0.7,0,1.3,0.1,1.9,0.4c0.6,0.2,1,0.6,1.3,1s0.5,0.9,0.6,1.4
		c0.1,0.4,0.1,1,0.1,1.9v7h-1.9V166c0-0.8-0.1-1.4-0.2-1.8c-0.2-0.4-0.4-0.7-0.8-0.9s-0.8-0.3-1.3-0.3c-0.8,0-1.5,0.3-2.1,0.8
		s-0.9,1.5-0.9,3v6.2h-2V172.9z"/>
	<path d="M324.9,168.7l1.9,0.2c-0.2,1.3-0.7,2.3-1.6,3.1c-0.9,0.7-1.9,1.1-3.2,1.1c-1.6,0-2.8-0.5-3.8-1.5c-0.9-1-1.4-2.5-1.4-4.4
		c0-1.2,0.2-2.3,0.6-3.2s1-1.6,1.9-2.1c0.8-0.5,1.7-0.7,2.7-0.7c1.2,0,2.3,0.3,3,0.9c0.8,0.6,1.3,1.5,1.5,2.7l-1.9,0.3
		c-0.2-0.8-0.5-1.3-1-1.7s-1-0.6-1.6-0.6c-1,0-1.8,0.3-2.4,1s-0.9,1.8-0.9,3.3s0.3,2.6,0.9,3.3s1.4,1,2.3,1c0.8,0,1.4-0.2,1.9-0.7
		C324.5,170.4,324.8,169.7,324.9,168.7z"/>
	<path d="M328.5,159.4v-2.2h1.9v2.2H328.5z M328.5,172.9v-11.4h1.9v11.4H328.5z"/>
	<path d="M333.4,177.3v-15.8h1.8v1.5c0.4-0.6,0.9-1,1.4-1.3s1.2-0.4,1.9-0.4c1,0,1.8,0.3,2.6,0.8c0.7,0.5,1.3,1.2,1.7,2.1
		c0.4,0.9,0.6,1.9,0.6,3c0,1.2-0.2,2.2-0.6,3.2c-0.4,0.9-1,1.7-1.8,2.1c-0.8,0.5-1.6,0.7-2.5,0.7c-0.6,0-1.2-0.1-1.7-0.4
		c-0.5-0.3-0.9-0.6-1.3-1v5.6h-2.1V177.3z M335.1,167.3c0,1.5,0.3,2.6,0.9,3.3s1.3,1.1,2.2,1.1c0.9,0,1.6-0.4,2.2-1.1
		c0.6-0.7,0.9-1.9,0.9-3.4s-0.3-2.5-0.9-3.3c-0.6-0.7-1.3-1.1-2.1-1.1c-0.8,0-1.6,0.4-2.2,1.2C335.5,164.7,335.1,165.8,335.1,167.3z
		"/>
	<path d="M345.6,159.4v-2.2h1.9v2.2H345.6z M345.6,172.9v-11.4h1.9v11.4H345.6z"/>
	<path d="M349.8,167.2c0-2.1,0.6-3.7,1.8-4.7c1-0.8,2.2-1.3,3.6-1.3c1.6,0,2.9,0.5,3.8,1.5c1,1,1.5,2.4,1.5,4.3
		c0,1.5-0.2,2.6-0.7,3.5c-0.4,0.8-1.1,1.5-1.9,2s-1.8,0.7-2.8,0.7c-1.6,0-2.9-0.5-3.9-1.5C350.3,170.6,349.8,169.1,349.8,167.2z
		 M351.8,167.2c0,1.5,0.3,2.6,1,3.3c0.6,0.7,1.4,1.1,2.4,1.1s1.8-0.4,2.4-1.1c0.6-0.7,1-1.8,1-3.3c0-1.4-0.3-2.5-1-3.2
		c-0.6-0.7-1.4-1.1-2.4-1.1s-1.8,0.4-2.4,1.1C352.1,164.6,351.8,165.7,351.8,167.2z"/>
	<path d="M362,169.4l1.9-0.3c0.1,0.8,0.4,1.4,0.9,1.8s1.2,0.6,2.1,0.6s1.5-0.2,2-0.5c0.4-0.4,0.6-0.8,0.6-1.3c0-0.4-0.2-0.8-0.6-1
		c-0.3-0.2-0.9-0.4-2-0.7c-1.4-0.4-2.4-0.7-2.9-0.9c-0.5-0.3-1-0.6-1.2-1.1c-0.3-0.5-0.4-1-0.4-1.5s0.1-1,0.3-1.4
		c0.2-0.4,0.5-0.8,1-1.1c0.3-0.2,0.7-0.4,1.2-0.6c0.5-0.2,1.1-0.2,1.7-0.2c0.9,0,1.7,0.1,2.4,0.4s1.2,0.6,1.5,1s0.5,1,0.7,1.8
		l-1.9,0.3c-0.1-0.6-0.3-1-0.7-1.4s-1-0.5-1.7-0.5c-0.9,0-1.5,0.1-1.9,0.4c-0.4,0.3-0.6,0.6-0.6,1c0,0.3,0.1,0.5,0.2,0.7
		c0.2,0.2,0.4,0.4,0.7,0.5c0.2,0.1,0.8,0.2,1.7,0.5c1.4,0.4,2.3,0.7,2.9,0.9c0.5,0.2,1,0.6,1.3,1s0.5,1,0.5,1.7
		c0,0.6-0.2,1.3-0.6,1.8c-0.4,0.6-0.9,1-1.6,1.3s-1.5,0.5-2.4,0.5c-1.5,0-2.6-0.3-3.4-0.9S362.2,170.7,362,169.4z"/>
	<path d="M387.3,172.9v-1.4c-0.7,1.1-1.8,1.7-3.2,1.7c-0.9,0-1.7-0.3-2.5-0.8s-1.4-1.2-1.8-2.1c-0.4-0.9-0.6-1.9-0.6-3.1
		c0-1.1,0.2-2.2,0.6-3.1c0.4-0.9,0.9-1.6,1.7-2.1c0.8-0.5,1.6-0.7,2.5-0.7c0.7,0,1.3,0.1,1.8,0.4c0.5,0.3,1,0.7,1.3,1.1V157h1.9
		v15.7h-1.7V172.9z M381.1,167.2c0,1.5,0.3,2.6,0.9,3.3s1.3,1.1,2.2,1.1c0.8,0,1.6-0.3,2.2-1s0.9-1.7,0.9-3.2c0-1.6-0.3-2.7-0.9-3.4
		s-1.3-1.1-2.2-1.1c-0.9,0-1.6,0.4-2.2,1.1S381.1,165.7,381.1,167.2z"/>
	<path d="M399.9,169.2l2,0.2c-0.3,1.2-0.9,2.1-1.8,2.7c-0.9,0.6-1.9,1-3.3,1c-1.7,0-3-0.5-4-1.5s-1.5-2.5-1.5-4.3
		c0-1.9,0.5-3.4,1.5-4.5s2.3-1.6,3.8-1.6s2.8,0.5,3.7,1.6s1.5,2.5,1.5,4.4c0,0.1,0,0.3,0,0.5h-8.5c0.1,1.3,0.4,2.2,1.1,2.9
		c0.6,0.7,1.4,1,2.4,1c0.7,0,1.3-0.2,1.8-0.6C399.2,170.6,399.6,169.9,399.9,169.2z M393.6,166.1h6.4c-0.1-1-0.3-1.7-0.7-2.2
		c-0.6-0.7-1.4-1.1-2.4-1.1c-0.9,0-1.6,0.3-2.2,0.9S393.6,165.1,393.6,166.1z"/>
	<path d="M292.3,193.6c0-2.1,0.6-3.7,1.8-4.7c1-0.8,2.2-1.3,3.6-1.3c1.6,0,2.9,0.5,3.8,1.5c1,1,1.5,2.4,1.5,4.3
		c0,1.5-0.2,2.6-0.7,3.5c-0.4,0.8-1.1,1.5-1.9,2s-1.8,0.7-2.8,0.7c-1.6,0-2.9-0.5-3.9-1.5C292.8,196.9,292.3,195.4,292.3,193.6z
		 M294.3,193.6c0,1.5,0.3,2.6,1,3.3c0.6,0.7,1.4,1.1,2.4,1.1s1.8-0.4,2.4-1.1c0.6-0.7,1-1.8,1-3.3c0-1.4-0.3-2.5-1-3.2
		c-0.6-0.7-1.4-1.1-2.4-1.1s-1.8,0.4-2.4,1.1C294.6,190.9,294.3,192.1,294.3,193.6z"/>
	<path d="M305.3,203.7v-15.8h1.8v1.5c0.4-0.6,0.9-1,1.4-1.3s1.2-0.4,1.9-0.4c1,0,1.8,0.3,2.6,0.8c0.7,0.5,1.3,1.2,1.7,2.1
		c0.4,0.9,0.6,1.9,0.6,3c0,1.2-0.2,2.2-0.6,3.2c-0.4,0.9-1,1.7-1.8,2.1c-0.8,0.5-1.6,0.7-2.5,0.7c-0.6,0-1.2-0.1-1.7-0.4
		c-0.5-0.3-0.9-0.6-1.3-1v5.6h-2.1V203.7z M307,193.7c0,1.5,0.3,2.6,0.9,3.3s1.3,1.1,2.2,1.1c0.9,0,1.6-0.4,2.2-1.1
		c0.6-0.7,0.9-1.9,0.9-3.4s-0.3-2.5-0.9-3.3c-0.6-0.7-1.3-1.1-2.1-1.1c-0.8,0-1.6,0.4-2.2,1.2C307.3,191.1,307,192.2,307,193.7z"/>
	<path d="M325.3,195.6l2,0.2c-0.3,1.2-0.9,2.1-1.8,2.7c-0.9,0.6-1.9,1-3.3,1c-1.7,0-3-0.5-4-1.5s-1.5-2.5-1.5-4.3
		c0-1.9,0.5-3.4,1.5-4.5s2.3-1.6,3.8-1.6s2.8,0.5,3.7,1.6s1.5,2.5,1.5,4.4c0,0.1,0,0.3,0,0.5h-8.5c0.1,1.3,0.4,2.2,1.1,2.9
		c0.6,0.7,1.4,1,2.4,1c0.7,0,1.3-0.2,1.8-0.6C324.6,196.9,325,196.4,325.3,195.6z M319,192.4h6.4c-0.1-1-0.3-1.7-0.7-2.2
		c-0.6-0.7-1.4-1.1-2.4-1.1c-0.9,0-1.6,0.3-2.2,0.9C319.4,190.7,319,191.4,319,192.4z"/>
	<path d="M329.7,199.3v-11.4h1.7v1.7c0.4-0.8,0.9-1.3,1.2-1.6s0.8-0.4,1.2-0.4c0.7,0,1.3,0.2,2,0.6l-0.7,1.8
		c-0.5-0.3-0.9-0.4-1.4-0.4c-0.4,0-0.8,0.1-1.1,0.4c-0.3,0.3-0.6,0.6-0.7,1.1c-0.2,0.7-0.3,1.4-0.3,2.3v6h-1.9V199.3z"/>
	<path d="M344.5,197.9c-0.7,0.6-1.4,1-2.1,1.3s-1.4,0.4-2.1,0.4c-1.3,0-2.2-0.3-2.9-0.9c-0.7-0.6-1-1.4-1-2.3c0-0.6,0.1-1.1,0.4-1.5
		c0.3-0.5,0.6-0.8,1-1.1s0.9-0.5,1.4-0.6c0.4-0.1,1-0.2,1.7-0.3c1.6-0.2,2.7-0.4,3.4-0.7c0-0.3,0-0.4,0-0.5c0-0.8-0.2-1.3-0.5-1.7
		c-0.5-0.4-1.2-0.7-2.2-0.7c-0.9,0-1.6,0.2-2,0.5s-0.8,0.9-1,1.7l-1.9-0.3c0.2-0.8,0.5-1.5,0.8-2c0.4-0.5,1-0.9,1.7-1.2
		s1.6-0.4,2.6-0.4s1.8,0.1,2.4,0.3s1.1,0.5,1.3,0.9c0.3,0.3,0.5,0.8,0.6,1.3c0.1,0.3,0.1,0.9,0.1,1.8v2.6c0,1.8,0,2.9,0.1,3.4
		s0.2,0.9,0.5,1.4h-2C344.7,198.9,344.6,198.4,344.5,197.9z M344.4,193.6c-0.7,0.3-1.8,0.5-3.2,0.7c-0.8,0.1-1.4,0.2-1.7,0.4
		c-0.3,0.1-0.6,0.4-0.8,0.6c-0.2,0.3-0.3,0.6-0.3,0.9c0,0.5,0.2,0.9,0.6,1.3c0.4,0.3,1,0.5,1.7,0.5s1.4-0.2,2-0.5s1-0.8,1.3-1.3
		c0.2-0.4,0.3-1.1,0.3-1.9v-0.7H344.4z"/>
	<path d="M356.7,195.1l1.9,0.2c-0.2,1.3-0.7,2.3-1.6,3.1c-0.9,0.7-1.9,1.1-3.2,1.1c-1.6,0-2.8-0.5-3.8-1.5c-0.9-1-1.4-2.5-1.4-4.4
		c0-1.2,0.2-2.3,0.6-3.2s1-1.6,1.9-2.1c0.8-0.5,1.7-0.7,2.7-0.7c1.2,0,2.3,0.3,3,0.9c0.8,0.6,1.3,1.5,1.5,2.7l-1.9,0.3
		c-0.2-0.8-0.5-1.3-1-1.7s-1-0.6-1.6-0.6c-1,0-1.8,0.3-2.4,1s-0.9,1.8-0.9,3.3s0.3,2.6,0.9,3.3s1.4,1,2.3,1c0.8,0,1.4-0.2,1.9-0.7
		C356.3,196.8,356.6,196.1,356.7,195.1z"/>
	<path d="M360.3,185.8v-2.2h1.9v2.2H360.3z M360.3,199.3v-11.4h1.9v11.4H360.3z"/>
	<path d="M364.5,193.6c0-2.1,0.6-3.7,1.8-4.7c1-0.8,2.2-1.3,3.6-1.3c1.6,0,2.8,0.5,3.8,1.5s1.5,2.4,1.5,4.3c0,1.5-0.2,2.6-0.7,3.5
		c-0.4,0.8-1.1,1.5-1.9,2s-1.8,0.7-2.8,0.7c-1.6,0-2.9-0.5-3.9-1.5S364.5,195.4,364.5,193.6z M366.5,193.6c0,1.5,0.3,2.6,1,3.3
		c0.6,0.7,1.4,1.1,2.4,1.1s1.8-0.4,2.4-1.1c0.6-0.7,1-1.8,1-3.3c0-1.4-0.3-2.5-1-3.2c-0.6-0.7-1.4-1.1-2.4-1.1s-1.8,0.4-2.4,1.1
		C366.8,190.9,366.5,192.1,366.5,193.6z M368.7,186.4l1.4-3h2.5l-2.4,3H368.7z"/>
	<path d="M377.4,199.3v-11.4h1.7v1.6c0.8-1.3,2-1.9,3.6-1.9c0.7,0,1.3,0.1,1.9,0.4c0.6,0.2,1,0.6,1.3,1s0.5,0.9,0.6,1.4
		c0.1,0.4,0.1,1,0.1,1.9v7h-1.9v-6.9c0-0.8-0.1-1.4-0.2-1.8c-0.2-0.4-0.4-0.7-0.8-0.9s-0.8-0.3-1.3-0.3c-0.8,0-1.5,0.3-2.1,0.8
		s-0.9,1.5-0.9,3v6.2h-2V199.3z"/>
	<path d="M293.1,225.7v-1.4c-0.7,1.1-1.8,1.7-3.2,1.7c-0.9,0-1.7-0.3-2.5-0.8s-1.4-1.2-1.8-2.1c-0.4-0.9-0.6-1.9-0.6-3.1
		c0-1.1,0.2-2.2,0.6-3.1c0.4-0.9,0.9-1.6,1.7-2.1c0.8-0.5,1.6-0.7,2.5-0.7c0.7,0,1.3,0.1,1.8,0.4c0.5,0.3,1,0.7,1.3,1.1v-5.7h1.9
		v15.7h-1.7V225.7z M287,219.9c0,1.5,0.3,2.6,0.9,3.3s1.3,1.1,2.2,1.1c0.8,0,1.6-0.3,2.2-1s0.9-1.7,0.9-3.2c0-1.6-0.3-2.7-0.9-3.4
		s-1.3-1.1-2.2-1.1c-0.9,0-1.6,0.4-2.2,1.1C287.3,217.4,287,218.4,287,219.9z"/>
	<path d="M305.8,221.9l2,0.2c-0.3,1.2-0.9,2.1-1.8,2.7c-0.9,0.6-1.9,1-3.3,1c-1.7,0-3-0.5-4-1.5s-1.5-2.5-1.5-4.3
		c0-1.9,0.5-3.4,1.5-4.5s2.3-1.6,3.8-1.6s2.8,0.5,3.7,1.6s1.5,2.5,1.5,4.4c0,0.1,0,0.3,0,0.5h-8.5c0.1,1.3,0.4,2.2,1.1,2.9
		c0.6,0.7,1.4,1,2.4,1c0.7,0,1.3-0.2,1.8-0.6C305.1,223.4,305.5,222.8,305.8,221.9z M299.4,218.9h6.4c-0.1-1-0.3-1.7-0.7-2.2
		c-0.6-0.7-1.4-1.1-2.4-1.1c-0.9,0-1.6,0.3-2.2,0.9C299.8,217.1,299.5,217.9,299.4,218.9z"/>
	<path d="M310.1,225.7V210h1.9v15.7H310.1z"/>
	<path d="M320.4,222.3l1.9-0.3c0.1,0.8,0.4,1.4,0.9,1.8c0.5,0.4,1.2,0.6,2.1,0.6s1.5-0.2,2-0.5c0.4-0.4,0.6-0.8,0.6-1.3
		c0-0.4-0.2-0.8-0.6-1c-0.3-0.2-0.9-0.4-2-0.7c-1.4-0.4-2.4-0.7-2.9-0.9c-0.5-0.3-1-0.6-1.2-1.1c-0.3-0.5-0.4-1-0.4-1.5
		s0.1-1,0.3-1.4c0.2-0.4,0.5-0.8,1-1.1c0.3-0.2,0.7-0.4,1.2-0.6c0.5-0.2,1.1-0.2,1.7-0.2c0.9,0,1.7,0.1,2.4,0.4s1.2,0.6,1.5,1
		s0.5,1,0.7,1.8l-1.9,0.3c-0.1-0.6-0.3-1-0.7-1.4c-0.4-0.3-1-0.5-1.7-0.5c-0.9,0-1.5,0.1-1.9,0.4c-0.4,0.3-0.6,0.6-0.6,1
		c0,0.3,0.1,0.5,0.2,0.7c0.2,0.2,0.4,0.4,0.7,0.5c0.2,0.1,0.8,0.2,1.7,0.5c1.4,0.4,2.3,0.7,2.9,0.9c0.5,0.2,1,0.6,1.3,1
		s0.5,1,0.5,1.7c0,0.6-0.2,1.3-0.6,1.8c-0.4,0.6-0.9,1-1.6,1.3s-1.5,0.5-2.4,0.5c-1.5,0-2.6-0.3-3.4-0.9
		C321.1,224.4,320.6,223.4,320.4,222.3z"/>
	<path d="M332.2,212.2V210h1.9v2.2H332.2z M332.2,225.7v-11.4h1.9v11.4H332.2z"/>
	<path d="M336.3,222.3l1.9-0.3c0.1,0.8,0.4,1.4,0.9,1.8c0.5,0.4,1.2,0.6,2.1,0.6s1.5-0.2,2-0.5c0.4-0.4,0.6-0.8,0.6-1.3
		c0-0.4-0.2-0.8-0.6-1c-0.3-0.2-0.9-0.4-2-0.7c-1.4-0.4-2.4-0.7-2.9-0.9c-0.5-0.3-1-0.6-1.2-1.1c-0.3-0.5-0.4-1-0.4-1.5
		s0.1-1,0.3-1.4c0.2-0.4,0.5-0.8,1-1.1c0.3-0.2,0.7-0.4,1.2-0.6c0.5-0.2,1.1-0.2,1.7-0.2c0.9,0,1.7,0.1,2.4,0.4s1.2,0.6,1.5,1
		s0.5,1,0.7,1.8l-1.9,0.3c-0.1-0.6-0.3-1-0.7-1.4c-0.4-0.3-1-0.5-1.7-0.5c-0.9,0-1.5,0.1-1.9,0.4c-0.4,0.3-0.6,0.6-0.6,1
		c0,0.3,0.1,0.5,0.2,0.7c0.2,0.2,0.4,0.4,0.7,0.5c0.2,0.1,0.8,0.2,1.7,0.5c1.4,0.4,2.3,0.7,2.9,0.9c0.5,0.2,1,0.6,1.3,1
		s0.5,1,0.5,1.7c0,0.6-0.2,1.3-0.6,1.8c-0.4,0.6-0.9,1-1.6,1.3s-1.5,0.5-2.4,0.5c-1.5,0-2.6-0.3-3.4-0.9
		C337,224.4,336.5,223.4,336.3,222.3z"/>
	<path d="M352.3,223.9l0.3,1.7c-0.5,0.1-1,0.2-1.5,0.2c-0.7,0-1.2-0.1-1.6-0.3s-0.7-0.5-0.8-0.9c-0.2-0.4-0.2-1.1-0.2-2.3v-6.6H347
		v-1.5h1.4v-2.8l1.9-1.2v4h1.9v1.5h-1.9v6.7c0,0.6,0,0.9,0.1,1.1c0.1,0.2,0.2,0.3,0.3,0.4c0.2,0.1,0.4,0.1,0.7,0.1
		C351.7,223.9,351.9,223.9,352.3,223.9z"/>
	<path d="M362,221.9l2,0.2c-0.3,1.2-0.9,2.1-1.8,2.7s-1.9,1-3.3,1c-1.7,0-3-0.5-4-1.5s-1.5-2.5-1.5-4.3c0-1.9,0.5-3.4,1.5-4.5
		s2.3-1.6,3.8-1.6s2.8,0.5,3.7,1.6s1.5,2.5,1.5,4.4c0,0.1,0,0.3,0,0.5h-8.5c0.1,1.3,0.4,2.2,1.1,2.9c0.6,0.7,1.4,1,2.4,1
		c0.7,0,1.3-0.2,1.8-0.6C361.3,223.4,361.7,222.8,362,221.9z M355.6,218.9h6.4c-0.1-1-0.3-1.7-0.7-2.2c-0.6-0.7-1.4-1.1-2.4-1.1
		c-0.9,0-1.6,0.3-2.2,0.9C356,217.1,355.7,217.9,355.6,218.9z"/>
	<path d="M366.4,225.7v-11.4h1.7v1.6c0.4-0.6,0.8-1,1.4-1.3s1.3-0.5,2-0.5c0.8,0,1.5,0.2,2.1,0.5c0.5,0.4,0.9,0.8,1.1,1.5
		c0.9-1.3,2.1-2,3.5-2c1.1,0,2,0.3,2.6,0.9c0.6,0.6,0.9,1.6,0.9,2.9v7.8H380v-7.2c0-0.8-0.1-1.3-0.2-1.7c-0.1-0.3-0.4-0.6-0.7-0.8
		s-0.7-0.3-1.2-0.3c-0.8,0-1.5,0.3-2,0.8s-0.8,1.4-0.8,2.6v6.6h-1.9v-7.4c0-0.9-0.2-1.5-0.5-1.9s-0.8-0.6-1.5-0.6
		c-0.5,0-1,0.1-1.5,0.4s-0.8,0.7-1,1.3s-0.3,1.3-0.3,2.4v5.9h-2V225.7z"/>
	<path d="M392.2,224.3c-0.7,0.6-1.4,1-2.1,1.3s-1.4,0.4-2.1,0.4c-1.3,0-2.2-0.3-2.9-0.9c-0.7-0.6-1-1.4-1-2.3c0-0.6,0.1-1.1,0.4-1.5
		c0.3-0.5,0.6-0.8,1-1.1s0.9-0.5,1.4-0.6c0.4-0.1,1-0.2,1.7-0.3c1.6-0.2,2.7-0.4,3.4-0.7c0-0.3,0-0.4,0-0.5c0-0.8-0.2-1.3-0.5-1.7
		c-0.5-0.4-1.2-0.7-2.2-0.7c-0.9,0-1.6,0.2-2,0.5s-0.8,0.9-1,1.7l-1.9-0.3c0.2-0.8,0.5-1.5,0.8-2c0.4-0.5,1-0.9,1.7-1.2
		s1.6-0.4,2.6-0.4s1.8,0.1,2.4,0.3s1.1,0.5,1.3,0.9c0.3,0.3,0.5,0.8,0.6,1.3c0.1,0.3,0.1,0.9,0.1,1.8v2.6c0,1.8,0,2.9,0.1,3.4
		s0.2,0.9,0.5,1.4h-2C392.4,225.3,392.3,224.8,392.2,224.3z M392,219.9c-0.7,0.3-1.8,0.5-3.2,0.7c-0.8,0.1-1.4,0.2-1.7,0.4
		s-0.6,0.4-0.8,0.6c-0.2,0.3-0.3,0.6-0.3,0.9c0,0.5,0.2,0.9,0.6,1.3c0.4,0.3,1,0.5,1.7,0.5s1.4-0.2,2-0.5s1-0.8,1.3-1.3
		c0.2-0.4,0.3-1.1,0.3-1.9v-0.7H392z"/>
</g>
<g class="st3">
	<path class="st4" d="M2.3,369.1v-11.5h4.3c0.8,0,1.3,0,1.7,0.1c0.6,0.1,1,0.3,1.4,0.5c0.4,0.3,0.7,0.6,0.9,1.1s0.3,1,0.3,1.6
		c0,1-0.3,1.8-0.9,2.5c-0.6,0.7-1.7,1-3.4,1H3.8v4.7L2.3,369.1L2.3,369.1z M3.8,363.1h3c1,0,1.7-0.2,2.1-0.5
		c0.4-0.4,0.6-0.9,0.6-1.5c0-0.5-0.1-0.9-0.4-1.2s-0.6-0.6-1-0.7c-0.3-0.1-0.7-0.1-1.4-0.1H3.8V363.1z"/>
	<path class="st4" d="M12.7,369.1v-11.5h1.4v11.5H12.7z"/>
	<path class="st4" d="M21.7,368.1c-0.5,0.4-1,0.8-1.5,0.9c-0.5,0.2-1,0.3-1.6,0.3c-0.9,0-1.6-0.2-2.1-0.7c-0.5-0.4-0.7-1-0.7-1.7
		c0-0.4,0.1-0.8,0.3-1.1c0.2-0.3,0.4-0.6,0.7-0.8c0.3-0.2,0.6-0.4,1-0.5c0.3-0.1,0.7-0.1,1.3-0.2c1.1-0.1,2-0.3,2.5-0.5
		c0-0.2,0-0.3,0-0.4c0-0.6-0.1-1-0.4-1.2c-0.4-0.3-0.9-0.5-1.6-0.5s-1.1,0.1-1.5,0.3c-0.3,0.2-0.5,0.6-0.7,1.2L16,363
		c0.1-0.6,0.3-1.1,0.6-1.4c0.3-0.4,0.7-0.6,1.2-0.8c0.5-0.2,1.2-0.3,1.9-0.3c0.7,0,1.3,0.1,1.7,0.3c0.4,0.2,0.8,0.4,1,0.6
		c0.2,0.3,0.4,0.6,0.4,1c0,0.2,0.1,0.7,0.1,1.3v1.9c0,1.3,0,2.1,0.1,2.5c0.1,0.3,0.2,0.7,0.4,1h-1.5
		C21.9,368.8,21.8,368.5,21.7,368.1z M21.6,365c-0.5,0.2-1.3,0.4-2.3,0.5c-0.6,0.1-1,0.2-1.2,0.3c-0.2,0.1-0.4,0.3-0.6,0.5
		c-0.1,0.2-0.2,0.4-0.2,0.7c0,0.4,0.1,0.7,0.4,0.9c0.3,0.3,0.7,0.4,1.2,0.4s1-0.1,1.4-0.4s0.7-0.6,0.9-1c0.2-0.3,0.2-0.8,0.2-1.4
		V365H21.6z"/>
	<path class="st4" d="M28.3,367.9l0.2,1.2c-0.4,0.1-0.8,0.1-1.1,0.1c-0.5,0-0.9-0.1-1.2-0.2s-0.5-0.4-0.6-0.6
		c-0.1-0.3-0.2-0.8-0.2-1.7v-4.8h-1v-1.1h1v-2l1.4-0.8v2.9h1.4v1.1h-1.4v4.9c0,0.4,0,0.7,0.1,0.8c0,0.1,0.1,0.2,0.2,0.3
		c0.1,0.1,0.3,0.1,0.5,0.1C27.8,367.9,28,367.9,28.3,367.9z"/>
	<path class="st4" d="M35.1,368.1c-0.5,0.4-1,0.8-1.5,0.9c-0.5,0.2-1,0.3-1.6,0.3c-0.9,0-1.6-0.2-2.1-0.7c-0.5-0.4-0.7-1-0.7-1.7
		c0-0.4,0.1-0.8,0.3-1.1c0.2-0.3,0.4-0.6,0.7-0.8c0.3-0.2,0.6-0.4,1-0.5c0.3-0.1,0.7-0.1,1.3-0.2c1.1-0.1,2-0.3,2.5-0.5
		c0-0.2,0-0.3,0-0.4c0-0.6-0.1-1-0.4-1.2c-0.4-0.3-0.9-0.5-1.6-0.5c-0.7,0-1.1,0.1-1.5,0.3c-0.3,0.2-0.5,0.6-0.7,1.2l-1.4-0.2
		c0.1-0.6,0.3-1.1,0.6-1.4c0.3-0.4,0.7-0.6,1.2-0.8c0.5-0.2,1.2-0.3,1.9-0.3s1.3,0.1,1.7,0.3c0.4,0.2,0.8,0.4,1,0.6
		c0.2,0.3,0.4,0.6,0.4,1c0,0.2,0.1,0.7,0.1,1.3v1.9c0,1.3,0,2.1,0.1,2.5c0.1,0.3,0.2,0.7,0.4,1h-1.4
		C35.2,368.8,35.1,368.5,35.1,368.1z M35,365c-0.5,0.2-1.3,0.4-2.3,0.5c-0.6,0.1-1,0.2-1.2,0.3c-0.2,0.1-0.4,0.3-0.6,0.5
		c-0.1,0.2-0.2,0.4-0.2,0.7c0,0.4,0.1,0.7,0.4,0.9c0.3,0.3,0.7,0.4,1.2,0.4s1-0.1,1.4-0.4s0.7-0.6,0.9-1c0.2-0.3,0.2-0.8,0.2-1.4
		V365H35z"/>
	<path class="st4" d="M38.9,369.1v-7.2h-1.2v-1.1h1.2v-0.9c0-0.6,0-1,0.1-1.2c0.1-0.4,0.4-0.7,0.7-0.9c0.3-0.2,0.8-0.3,1.4-0.3
		c0.4,0,0.8,0,1.3,0.1l-0.2,1.2c-0.3-0.1-0.6-0.1-0.8-0.1c-0.4,0-0.7,0.1-0.9,0.3c-0.2,0.2-0.3,0.5-0.3,1v0.8h1.6v1.1h-1.6v7.2
		L38.9,369.1L38.9,369.1z"/>
	<path class="st4" d="M42.5,365c0-1.5,0.4-2.7,1.3-3.4c0.7-0.6,1.6-0.9,2.6-0.9c1.1,0,2.1,0.4,2.8,1.1s1.1,1.8,1.1,3.1
		c0,1.1-0.2,1.9-0.5,2.5s-0.8,1.1-1.4,1.4c-0.6,0.3-1.3,0.5-2,0.5c-1.2,0-2.1-0.4-2.8-1.1C42.8,367.5,42.5,366.4,42.5,365z
		 M43.9,365c0,1.1,0.2,1.9,0.7,2.4s1,0.8,1.8,0.8c0.7,0,1.3-0.3,1.7-0.8c0.5-0.5,0.7-1.3,0.7-2.4c0-1-0.2-1.8-0.7-2.3
		s-1-0.8-1.7-0.8s-1.3,0.3-1.8,0.8C44.2,363.1,43.9,363.9,43.9,365z"/>
	<path class="st4" d="M51.9,369.1v-8.3h1.3v1.3c0.3-0.6,0.6-1,0.9-1.2s0.6-0.3,0.9-0.3c0.5,0,1,0.2,1.4,0.5l-0.5,1.3
		c-0.3-0.2-0.7-0.3-1-0.3s-0.6,0.1-0.8,0.3c-0.2,0.2-0.4,0.4-0.5,0.8c-0.2,0.5-0.2,1-0.2,1.6v4.3L51.9,369.1L51.9,369.1z"/>
	<path class="st4" d="M57.2,369.1v-8.3h1.3v1.2c0.3-0.4,0.6-0.7,1-1c0.4-0.2,0.9-0.4,1.5-0.4s1.1,0.1,1.5,0.4s0.7,0.6,0.8,1.1
		c0.7-1,1.5-1.5,2.6-1.5c0.8,0,1.5,0.2,1.9,0.7s0.7,1.2,0.7,2.1v5.7h-1.4v-5.2c0-0.6,0-1-0.1-1.2s-0.3-0.4-0.5-0.6s-0.5-0.2-0.8-0.2
		c-0.6,0-1.1,0.2-1.5,0.6s-0.6,1-0.6,1.9v4.8h-1.4v-5.4c0-0.6-0.1-1.1-0.3-1.4c-0.2-0.3-0.6-0.5-1.1-0.5c-0.4,0-0.8,0.1-1.1,0.3
		s-0.6,0.5-0.7,0.9c-0.2,0.4-0.2,1-0.2,1.7v4.3H57.2z"/>
	<path class="st4" d="M76,368.1c-0.5,0.4-1,0.8-1.5,0.9c-0.5,0.2-1,0.3-1.6,0.3c-0.9,0-1.6-0.2-2.1-0.7c-0.5-0.4-0.7-1-0.7-1.7
		c0-0.4,0.1-0.8,0.3-1.1c0.2-0.3,0.4-0.6,0.7-0.8c0.3-0.2,0.6-0.4,1-0.5c0.3-0.1,0.7-0.1,1.3-0.2c1.1-0.1,2-0.3,2.5-0.5
		c0-0.2,0-0.3,0-0.4c0-0.6-0.1-1-0.4-1.2c-0.4-0.3-0.9-0.5-1.6-0.5s-1.1,0.1-1.5,0.3c-0.3,0.2-0.5,0.6-0.7,1.2l-1.4-0.2
		c0.1-0.6,0.3-1.1,0.6-1.4c0.3-0.4,0.7-0.6,1.2-0.8c0.5-0.2,1.2-0.3,1.9-0.3c0.7,0,1.3,0.1,1.7,0.3c0.4,0.2,0.8,0.4,1,0.6
		c0.2,0.3,0.4,0.6,0.4,1c0,0.2,0.1,0.7,0.1,1.3v1.9c0,1.3,0,2.1,0.1,2.5c0.1,0.3,0.2,0.7,0.4,1h-1.5C76.1,368.8,76,368.5,76,368.1z
		 M75.9,365c-0.5,0.2-1.3,0.4-2.3,0.5c-0.6,0.1-1,0.2-1.2,0.3c-0.2,0.1-0.4,0.3-0.6,0.5c-0.1,0.2-0.2,0.4-0.2,0.7
		c0,0.4,0.1,0.7,0.4,0.9c0.3,0.3,0.7,0.4,1.2,0.4s1-0.1,1.4-0.4s0.7-0.6,0.9-1c0.2-0.3,0.2-0.8,0.2-1.4V365H75.9z"/>
	<path class="st4" d="M89.3,369.1v-1c-0.5,0.8-1.3,1.2-2.3,1.2c-0.7,0-1.3-0.2-1.8-0.5s-1-0.9-1.3-1.5s-0.5-1.5-0.5-2.3
		s0.1-1.6,0.4-2.3c0.3-0.7,0.7-1.2,1.2-1.6c0.6-0.4,1.2-0.5,1.9-0.5c0.5,0,0.9,0.1,1.3,0.3s0.7,0.5,1,0.8v-4.1h1.4v11.5H89.3z
		 M84.8,365c0,1.1,0.2,1.9,0.7,2.4c0.4,0.5,1,0.8,1.6,0.8s1.1-0.3,1.6-0.8s0.6-1.3,0.6-2.3c0-1.1-0.2-2-0.7-2.5s-1-0.8-1.6-0.8
		s-1.1,0.3-1.6,0.8C85,363.1,84.8,363.9,84.8,365z"/>
	<path class="st4" d="M98.5,366.5l1.5,0.2c-0.2,0.8-0.7,1.5-1.3,2c-0.6,0.5-1.4,0.7-2.4,0.7c-1.2,0-2.2-0.4-2.9-1.1
		s-1.1-1.8-1.1-3.1c0-1.4,0.4-2.5,1.1-3.3s1.7-1.2,2.8-1.2c1.1,0,2,0.4,2.7,1.1s1.1,1.8,1.1,3.2c0,0.1,0,0.2,0,0.4h-6.2
		c0.1,0.9,0.3,1.6,0.8,2.1s1,0.7,1.7,0.7c0.5,0,1-0.1,1.3-0.4C98,367.5,98.3,367.1,98.5,366.5z M93.9,364.2h4.6
		c-0.1-0.7-0.2-1.2-0.5-1.6c-0.4-0.5-1-0.8-1.7-0.8c-0.6,0-1.2,0.2-1.6,0.6C94.1,362.9,93.9,363.5,93.9,364.2z"/>
	<path class="st4" d="M109.2,367.9l0.2,1.2c-0.4,0.1-0.8,0.1-1.1,0.1c-0.5,0-0.9-0.1-1.2-0.2s-0.5-0.4-0.6-0.6
		c-0.1-0.3-0.2-0.8-0.2-1.7v-4.8h-1v-1.1h1v-2l1.4-0.8v2.9h1.4v1.1h-1.4v4.9c0,0.4,0,0.7,0.1,0.8c0,0.1,0.1,0.2,0.2,0.3
		c0.1,0.1,0.3,0.1,0.5,0.1C108.7,367.9,109,367.9,109.2,367.9z"/>
	<path class="st4" d="M110.6,369.1v-8.3h1.3v1.3c0.3-0.6,0.6-1,0.9-1.2s0.6-0.3,0.9-0.3c0.5,0,1,0.2,1.4,0.5l-0.5,1.3
		c-0.3-0.2-0.7-0.3-1-0.3s-0.6,0.1-0.8,0.3c-0.2,0.2-0.4,0.4-0.5,0.8c-0.2,0.5-0.2,1-0.2,1.6v4.3L110.6,369.1L110.6,369.1z"/>
	<path class="st4" d="M121.3,368.1c-0.5,0.4-1,0.8-1.5,0.9c-0.5,0.2-1,0.3-1.6,0.3c-0.9,0-1.6-0.2-2.1-0.7c-0.5-0.4-0.7-1-0.7-1.7
		c0-0.4,0.1-0.8,0.3-1.1c0.2-0.3,0.4-0.6,0.7-0.8c0.3-0.2,0.6-0.4,1-0.5c0.3-0.1,0.7-0.1,1.3-0.2c1.1-0.1,2-0.3,2.5-0.5
		c0-0.2,0-0.3,0-0.4c0-0.6-0.1-1-0.4-1.2c-0.4-0.3-0.9-0.5-1.6-0.5s-1.1,0.1-1.5,0.3c-0.3,0.2-0.5,0.6-0.7,1.2l-1.4-0.2
		c0.1-0.6,0.3-1.1,0.6-1.4c0.3-0.4,0.7-0.6,1.2-0.8c0.5-0.2,1.2-0.3,1.9-0.3c0.7,0,1.3,0.1,1.7,0.3c0.4,0.2,0.8,0.4,1,0.6
		c0.2,0.3,0.4,0.6,0.4,1c0,0.2,0.1,0.7,0.1,1.3v1.9c0,1.3,0,2.1,0.1,2.5c0.1,0.3,0.2,0.7,0.4,1h-1.5
		C121.5,368.8,121.4,368.5,121.3,368.1z M121.2,365c-0.5,0.2-1.3,0.4-2.3,0.5c-0.6,0.1-1,0.2-1.2,0.3c-0.2,0.1-0.4,0.3-0.6,0.5
		c-0.1,0.2-0.2,0.4-0.2,0.7c0,0.4,0.1,0.7,0.4,0.9c0.3,0.3,0.7,0.4,1.2,0.4s1-0.1,1.4-0.4s0.7-0.6,0.9-1c0.2-0.3,0.2-0.8,0.2-1.4
		V365H121.2z"/>
	<path class="st4" d="M124.8,369.1v-8.3h1.3v1.2c0.6-0.9,1.5-1.4,2.6-1.4c0.5,0,1,0.1,1.4,0.3c0.4,0.2,0.7,0.4,0.9,0.7
		c0.2,0.3,0.4,0.6,0.4,1c0.1,0.3,0.1,0.7,0.1,1.4v5.1h-1.4v-5c0-0.6-0.1-1-0.2-1.3s-0.3-0.5-0.6-0.7s-0.6-0.3-1-0.3
		c-0.6,0-1.1,0.2-1.6,0.6c-0.4,0.4-0.7,1.1-0.7,2.2v4.5L124.8,369.1L124.8,369.1z"/>
	<path class="st4" d="M133.1,366.7l1.4-0.2c0.1,0.6,0.3,1,0.7,1.3s0.9,0.4,1.5,0.4s1.1-0.1,1.4-0.4s0.5-0.6,0.5-0.9
		s-0.1-0.6-0.4-0.8c-0.2-0.1-0.7-0.3-1.4-0.5c-1-0.3-1.7-0.5-2.1-0.7s-0.7-0.5-0.9-0.8s-0.3-0.7-0.3-1.1s0.1-0.7,0.3-1
		s0.4-0.6,0.7-0.8c0.2-0.2,0.5-0.3,0.9-0.4s0.8-0.2,1.2-0.2c0.7,0,1.2,0.1,1.7,0.3s0.9,0.4,1.1,0.8s0.4,0.7,0.5,1.3l-1.4,0.2
		c-0.1-0.4-0.2-0.8-0.5-1s-0.7-0.4-1.3-0.4s-1.1,0.1-1.4,0.3c-0.3,0.2-0.4,0.5-0.4,0.8c0,0.2,0.1,0.3,0.2,0.5
		c0.1,0.2,0.3,0.3,0.5,0.4c0.1,0.1,0.6,0.2,1.2,0.4c1,0.3,1.7,0.5,2.1,0.7c0.4,0.2,0.7,0.4,0.9,0.7c0.2,0.3,0.3,0.7,0.3,1.2
		s-0.1,0.9-0.4,1.3s-0.7,0.7-1.2,1s-1.1,0.3-1.8,0.3c-1.1,0-1.9-0.2-2.5-0.7C133.7,368.2,133.3,367.5,133.1,366.7z"/>
	<path class="st4" d="M147.1,368.1c-0.5,0.4-1,0.8-1.5,0.9c-0.5,0.2-1,0.3-1.6,0.3c-0.9,0-1.6-0.2-2.1-0.7c-0.5-0.4-0.7-1-0.7-1.7
		c0-0.4,0.1-0.8,0.3-1.1c0.2-0.3,0.4-0.6,0.7-0.8c0.3-0.2,0.6-0.4,1-0.5c0.3-0.1,0.7-0.1,1.3-0.2c1.1-0.1,2-0.3,2.5-0.5
		c0-0.2,0-0.3,0-0.4c0-0.6-0.1-1-0.4-1.2c-0.4-0.3-0.9-0.5-1.6-0.5c-0.7,0-1.1,0.1-1.5,0.3c-0.3,0.2-0.5,0.6-0.7,1.2l-1.4-0.2
		c0.1-0.6,0.3-1.1,0.6-1.4c0.3-0.4,0.7-0.6,1.2-0.8c0.5-0.2,1.2-0.3,1.9-0.3s1.3,0.1,1.7,0.3c0.4,0.2,0.8,0.4,1,0.6
		c0.2,0.3,0.4,0.6,0.4,1c0,0.2,0.1,0.7,0.1,1.3v1.9c0,1.3,0,2.1,0.1,2.5c0.1,0.3,0.2,0.7,0.4,1h-1.4
		C147.3,368.8,147.2,368.5,147.1,368.1z M147,365c-0.5,0.2-1.3,0.4-2.3,0.5c-0.6,0.1-1,0.2-1.2,0.3c-0.2,0.1-0.4,0.3-0.6,0.5
		c-0.1,0.2-0.2,0.4-0.2,0.7c0,0.4,0.1,0.7,0.4,0.9c0.3,0.3,0.7,0.4,1.2,0.4s1-0.1,1.4-0.4s0.7-0.6,0.9-1c0.2-0.3,0.2-0.8,0.2-1.4
		V365H147z"/>
	<path class="st4" d="M156,366.1l1.4,0.2c-0.2,1-0.5,1.7-1.2,2.2c-0.6,0.5-1.4,0.8-2.3,0.8c-1.1,0-2-0.4-2.7-1.1s-1-1.8-1-3.2
		c0-0.9,0.1-1.7,0.4-2.4s0.7-1.2,1.4-1.5c0.6-0.3,1.3-0.5,2-0.5c0.9,0,1.6,0.2,2.2,0.7c0.6,0.5,0.9,1.1,1.1,1.9l-1.4,0.2
		c-0.1-0.6-0.4-1-0.7-1.3s-0.7-0.4-1.2-0.4c-0.7,0-1.3,0.3-1.7,0.8s-0.7,1.3-0.7,2.4s0.2,1.9,0.6,2.4c0.4,0.5,1,0.8,1.7,0.8
		c0.6,0,1-0.2,1.4-0.5S155.9,366.8,156,366.1z"/>
	<path class="st4" d="M164,366.1l1.4,0.2c-0.2,1-0.5,1.7-1.2,2.2c-0.6,0.5-1.4,0.8-2.3,0.8c-1.1,0-2-0.4-2.7-1.1s-1-1.8-1-3.2
		c0-0.9,0.1-1.7,0.4-2.4s0.7-1.2,1.4-1.5c0.6-0.3,1.3-0.5,2-0.5c0.9,0,1.6,0.2,2.2,0.7c0.6,0.5,0.9,1.1,1.1,1.9l-1.4,0.2
		c-0.1-0.6-0.4-1-0.7-1.3s-0.7-0.4-1.2-0.4c-0.7,0-1.3,0.3-1.7,0.8s-0.7,1.3-0.7,2.4s0.2,1.9,0.6,2.4c0.4,0.5,1,0.8,1.7,0.8
		c0.6,0,1-0.2,1.4-0.5S163.9,366.8,164,366.1z"/>
	<path class="st4" d="M166.6,359.3v-1.6h1.4v1.6H166.6z M166.6,369.1v-8.3h1.4v8.3H166.6z"/>
	<path class="st4" d="M169.6,365c0-1.5,0.4-2.7,1.3-3.4c0.7-0.6,1.6-0.9,2.6-0.9c1.1,0,2.1,0.4,2.8,1.1s1.1,1.8,1.1,3.1
		c0,1.1-0.2,1.9-0.5,2.5s-0.8,1.1-1.4,1.4c-0.6,0.3-1.3,0.5-2,0.5c-1.2,0-2.1-0.4-2.8-1.1C170,367.5,169.6,366.4,169.6,365z
		 M171.1,365c0,1.1,0.2,1.9,0.7,2.4s1,0.8,1.8,0.8c0.7,0,1.3-0.3,1.7-0.8c0.5-0.5,0.7-1.3,0.7-2.4c0-1-0.2-1.8-0.7-2.3
		s-1-0.8-1.7-0.8s-1.3,0.3-1.8,0.8C171.3,363.1,171.1,363.9,171.1,365z"/>
	<path class="st4" d="M179.1,369.1v-8.3h1.3v1.2c0.6-0.9,1.5-1.4,2.6-1.4c0.5,0,1,0.1,1.4,0.3c0.4,0.2,0.7,0.4,0.9,0.7
		c0.2,0.3,0.4,0.6,0.4,1c0.1,0.3,0.1,0.7,0.1,1.4v5.1h-1.4v-5c0-0.6-0.1-1-0.2-1.3s-0.3-0.5-0.6-0.7s-0.6-0.3-1-0.3
		c-0.6,0-1.1,0.2-1.6,0.6c-0.4,0.4-0.7,1.1-0.7,2.2v4.5L179.1,369.1L179.1,369.1z"/>
	<path class="st4" d="M193.6,366.5l1.5,0.2c-0.2,0.8-0.7,1.5-1.3,2s-1.4,0.7-2.4,0.7c-1.2,0-2.2-0.4-2.9-1.1s-1.1-1.8-1.1-3.1
		c0-1.4,0.4-2.5,1.1-3.3s1.7-1.2,2.8-1.2s2,0.4,2.7,1.1s1.1,1.8,1.1,3.2c0,0.1,0,0.2,0,0.4h-6.2c0.1,0.9,0.3,1.6,0.8,2.1
		s1,0.7,1.7,0.7c0.5,0,1-0.1,1.3-0.4C193.1,367.5,193.4,367.1,193.6,366.5z M189,364.2h4.6c-0.1-0.7-0.2-1.2-0.5-1.6
		c-0.4-0.5-1-0.8-1.7-0.8c-0.6,0-1.2,0.2-1.6,0.6C189.3,362.9,189.1,363.5,189,364.2z"/>
	<path class="st4" d="M196.3,366.7l1.4-0.2c0.1,0.6,0.3,1,0.7,1.3s0.9,0.4,1.5,0.4s1.1-0.1,1.4-0.4s0.5-0.6,0.5-0.9
		s-0.1-0.6-0.4-0.8c-0.2-0.1-0.7-0.3-1.4-0.5c-1-0.3-1.7-0.5-2.1-0.7s-0.7-0.5-0.9-0.8s-0.3-0.7-0.3-1.1s0.1-0.7,0.3-1
		s0.4-0.6,0.7-0.8c0.2-0.2,0.5-0.3,0.9-0.4s0.8-0.2,1.2-0.2c0.7,0,1.2,0.1,1.7,0.3s0.9,0.4,1.1,0.8s0.4,0.7,0.5,1.3l-1.4,0.2
		c-0.1-0.4-0.2-0.8-0.5-1s-0.7-0.4-1.3-0.4s-1.1,0.1-1.4,0.3c-0.3,0.2-0.4,0.5-0.4,0.8c0,0.2,0.1,0.3,0.2,0.5
		c0.1,0.2,0.3,0.3,0.5,0.4c0.1,0.1,0.6,0.2,1.2,0.4c1,0.3,1.7,0.5,2.1,0.7c0.4,0.2,0.7,0.4,0.9,0.7c0.2,0.3,0.3,0.7,0.3,1.2
		s-0.1,0.9-0.4,1.3s-0.7,0.7-1.2,1s-1.1,0.3-1.8,0.3c-1.1,0-1.9-0.2-2.5-0.7C196.8,368.2,196.5,367.5,196.3,366.7z"/>
	<path class="st4" d="M209,369.8l1.4,0.2c0.1,0.4,0.2,0.7,0.5,0.9c0.3,0.3,0.8,0.4,1.4,0.4c0.7,0,1.2-0.1,1.5-0.4
		c0.4-0.3,0.6-0.6,0.7-1.1c0.1-0.3,0.1-0.9,0.1-1.8c-0.6,0.7-1.4,1.1-2.3,1.1c-1.1,0-2-0.4-2.6-1.2s-0.9-1.8-0.9-3
		c0-0.8,0.1-1.5,0.4-2.2c0.3-0.7,0.7-1.2,1.2-1.6s1.2-0.5,1.9-0.5c1,0,1.8,0.4,2.4,1.2v-1h1.3v7.2c0,1.3-0.1,2.2-0.4,2.7
		c-0.3,0.5-0.7,1-1.3,1.3s-1.3,0.5-2.1,0.5c-1,0-1.8-0.2-2.4-0.7S209,370.7,209,369.8z M210.2,364.8c0,1.1,0.2,1.9,0.6,2.4
		c0.4,0.5,1,0.8,1.6,0.8s1.2-0.2,1.6-0.7s0.7-1.3,0.7-2.3s-0.2-1.8-0.7-2.3s-1-0.8-1.6-0.8s-1.2,0.3-1.6,0.8
		S210.2,363.8,210.2,364.8z"/>
	<path class="st4" d="M218.2,369.1v-11.5h1.4v11.5H218.2z"/>
	<path class="st4" d="M221.2,365c0-1.5,0.4-2.7,1.3-3.4c0.7-0.6,1.6-0.9,2.6-0.9c1.1,0,2.1,0.4,2.8,1.1s1.1,1.8,1.1,3.1
		c0,1.1-0.2,1.9-0.5,2.5s-0.8,1.1-1.4,1.4c-0.6,0.3-1.3,0.5-2,0.5c-1.2,0-2.1-0.4-2.8-1.1C221.6,367.5,221.2,366.4,221.2,365z
		 M222.7,365c0,1.1,0.2,1.9,0.7,2.4s1,0.8,1.8,0.8c0.7,0,1.3-0.3,1.7-0.8c0.5-0.5,0.7-1.3,0.7-2.4c0-1-0.2-1.8-0.7-2.3
		s-1-0.8-1.7-0.8s-1.3,0.3-1.8,0.8C222.9,363.1,222.7,363.9,222.7,365z"/>
	<path class="st4" d="M232,369.1h-1.3v-11.5h1.4v4.1c0.6-0.7,1.4-1.1,2.3-1.1c0.5,0,1,0.1,1.4,0.3c0.5,0.2,0.8,0.5,1.1,0.9
		s0.5,0.8,0.7,1.3s0.3,1.1,0.3,1.7c0,1.4-0.4,2.5-1.1,3.3s-1.5,1.2-2.5,1.2s-1.7-0.4-2.3-1.2L232,369.1L232,369.1z M231.9,364.9
		c0,1,0.1,1.7,0.4,2.2c0.4,0.7,1,1.1,1.8,1.1c0.6,0,1.1-0.3,1.6-0.8c0.4-0.5,0.7-1.3,0.7-2.4s-0.2-1.9-0.6-2.4s-0.9-0.8-1.6-0.8
		c-0.6,0-1.1,0.3-1.6,0.8C232.2,363.1,231.9,363.9,231.9,364.9z"/>
	<path class="st4" d="M245,368.1c-0.5,0.4-1,0.8-1.5,0.9c-0.5,0.2-1,0.3-1.6,0.3c-0.9,0-1.6-0.2-2.1-0.7c-0.5-0.4-0.7-1-0.7-1.7
		c0-0.4,0.1-0.8,0.3-1.1c0.2-0.3,0.4-0.6,0.7-0.8c0.3-0.2,0.6-0.4,1-0.5c0.3-0.1,0.7-0.1,1.3-0.2c1.1-0.1,2-0.3,2.5-0.5
		c0-0.2,0-0.3,0-0.4c0-0.6-0.1-1-0.4-1.2c-0.4-0.3-0.9-0.5-1.6-0.5c-0.7,0-1.1,0.1-1.5,0.3c-0.3,0.2-0.5,0.6-0.7,1.2l-1.4-0.2
		c0.1-0.6,0.3-1.1,0.6-1.4c0.3-0.4,0.7-0.6,1.2-0.8c0.5-0.2,1.2-0.3,1.9-0.3s1.3,0.1,1.7,0.3c0.4,0.2,0.8,0.4,1,0.6
		c0.2,0.3,0.4,0.6,0.4,1c0,0.2,0.1,0.7,0.1,1.3v1.9c0,1.3,0,2.1,0.1,2.5c0.1,0.3,0.2,0.7,0.4,1h-1.5
		C245.1,368.8,245,368.5,245,368.1z M244.9,365c-0.5,0.2-1.3,0.4-2.3,0.5c-0.6,0.1-1,0.2-1.2,0.3c-0.2,0.1-0.4,0.3-0.6,0.5
		c-0.1,0.2-0.2,0.4-0.2,0.7c0,0.4,0.1,0.7,0.4,0.9c0.3,0.3,0.7,0.4,1.2,0.4s1-0.1,1.4-0.4s0.7-0.6,0.9-1c0.2-0.3,0.2-0.8,0.2-1.4
		V365H244.9z"/>
	<path class="st4" d="M248.4,369.1v-11.5h1.4v11.5H248.4z"/>
	<path class="st4" d="M257.7,366.5l1.5,0.2c-0.2,0.8-0.7,1.5-1.3,2c-0.6,0.5-1.4,0.7-2.4,0.7c-1.2,0-2.2-0.4-2.9-1.1
		s-1.1-1.8-1.1-3.1c0-1.4,0.4-2.5,1.1-3.3s1.7-1.2,2.8-1.2c1.1,0,2,0.4,2.7,1.1s1.1,1.8,1.1,3.2c0,0.1,0,0.2,0,0.4H253
		c0.1,0.9,0.3,1.6,0.8,2.1s1,0.7,1.7,0.7c0.5,0,1-0.1,1.3-0.4C257.2,367.5,257.5,367.1,257.7,366.5z M253.1,364.2h4.6
		c-0.1-0.7-0.2-1.2-0.5-1.6c-0.4-0.5-1-0.8-1.7-0.8c-0.6,0-1.2,0.2-1.6,0.6C253.4,362.9,253.1,363.5,253.1,364.2z"/>
	<path class="st4" d="M260.3,366.7l1.4-0.2c0.1,0.6,0.3,1,0.7,1.3c0.4,0.3,0.9,0.4,1.5,0.4s1.1-0.1,1.4-0.4s0.5-0.6,0.5-0.9
		s-0.1-0.6-0.4-0.8c-0.2-0.1-0.7-0.3-1.4-0.5c-1-0.3-1.7-0.5-2.1-0.7s-0.7-0.5-0.9-0.8c-0.2-0.3-0.3-0.7-0.3-1.1s0.1-0.7,0.3-1
		c0.2-0.3,0.4-0.6,0.7-0.8c0.2-0.2,0.5-0.3,0.9-0.4s0.8-0.2,1.2-0.2c0.7,0,1.2,0.1,1.7,0.3s0.9,0.4,1.1,0.8s0.4,0.7,0.5,1.3
		l-1.4,0.2c-0.1-0.4-0.2-0.8-0.5-1s-0.7-0.4-1.3-0.4c-0.6,0-1.1,0.1-1.4,0.3c-0.3,0.2-0.4,0.5-0.4,0.8c0,0.2,0.1,0.3,0.2,0.5
		s0.3,0.3,0.5,0.4c0.1,0.1,0.6,0.2,1.2,0.4c1,0.3,1.7,0.5,2.1,0.7s0.7,0.4,0.9,0.7c0.2,0.3,0.3,0.7,0.3,1.2s-0.1,0.9-0.4,1.3
		s-0.7,0.7-1.2,1s-1.1,0.3-1.8,0.3c-1.1,0-1.9-0.2-2.5-0.7C260.9,368.2,260.5,367.5,260.3,366.7z"/>
</g>
<g class="st3">
	<path class="st4" d="M18.3,145.2v-11.5h1.5v11.5H18.3z"/>
	<path class="st4" d="M22.4,145.2v-8.3h1.3v1.2c0.6-0.9,1.5-1.4,2.6-1.4c0.5,0,1,0.1,1.4,0.3s0.7,0.4,0.9,0.7c0.2,0.3,0.4,0.6,0.4,1
		c0.1,0.3,0.1,0.7,0.1,1.4v5.1h-1.4v-5c0-0.6-0.1-1-0.2-1.3s-0.3-0.5-0.6-0.7c-0.3-0.2-0.6-0.3-1-0.3c-0.6,0-1.1,0.2-1.6,0.6
		c-0.4,0.4-0.7,1.1-0.7,2.2v4.5H22.4z"/>
	<path class="st4" d="M33.6,145.2l-3.2-8.3h1.5l1.8,5c0.2,0.5,0.4,1.1,0.5,1.7c0.1-0.4,0.3-1,0.5-1.6l1.8-5.1h1.4l-3.1,8.3
		L33.6,145.2L33.6,145.2z"/>
	<path class="st4" d="M44.9,142.5l1.5,0.2c-0.2,0.8-0.7,1.5-1.3,2s-1.4,0.7-2.4,0.7c-1.2,0-2.2-0.4-2.9-1.1
		c-0.7-0.7-1.1-1.8-1.1-3.1c0-1.4,0.4-2.5,1.1-3.3s1.7-1.2,2.8-1.2s2,0.4,2.7,1.1c0.7,0.7,1.1,1.8,1.1,3.2c0,0.1,0,0.2,0,0.4h-6.2
		c0.1,0.9,0.3,1.6,0.8,2.1s1,0.7,1.7,0.7c0.5,0,1-0.1,1.3-0.4C44.4,143.6,44.7,143.1,44.9,142.5z M40.3,140.3h4.6
		c-0.1-0.7-0.2-1.2-0.5-1.6c-0.4-0.5-1-0.8-1.7-0.8c-0.6,0-1.2,0.2-1.6,0.6C40.6,139,40.4,139.5,40.3,140.3z"/>
	<path class="st4" d="M48.1,145.2v-8.3h1.3v1.3c0.3-0.6,0.6-1,0.9-1.2s0.6-0.3,0.9-0.3c0.5,0,1,0.2,1.4,0.5l-0.5,1.3
		c-0.3-0.2-0.7-0.3-1-0.3c-0.3,0-0.6,0.1-0.8,0.3c-0.2,0.2-0.4,0.4-0.5,0.8c-0.2,0.5-0.2,1-0.2,1.6v4.3L48.1,145.2L48.1,145.2z"/>
	<path class="st4" d="M52.9,142.7l1.4-0.2c0.1,0.6,0.3,1,0.7,1.3s0.9,0.4,1.5,0.4s1.1-0.1,1.4-0.4s0.5-0.6,0.5-0.9
		c0-0.3-0.1-0.6-0.4-0.8c-0.2-0.1-0.7-0.3-1.4-0.5c-1-0.3-1.7-0.5-2.1-0.7c-0.4-0.2-0.7-0.5-0.9-0.8c-0.2-0.3-0.3-0.7-0.3-1.1
		c0-0.4,0.1-0.7,0.3-1c0.2-0.3,0.4-0.6,0.7-0.8c0.2-0.2,0.5-0.3,0.9-0.4c0.4-0.1,0.8-0.2,1.2-0.2c0.7,0,1.2,0.1,1.7,0.3
		s0.9,0.4,1.1,0.8s0.4,0.7,0.5,1.3l-1.4,0.2c-0.1-0.4-0.2-0.8-0.5-1c-0.3-0.2-0.7-0.4-1.3-0.4s-1.1,0.1-1.4,0.3s-0.4,0.5-0.4,0.8
		c0,0.2,0.1,0.3,0.2,0.5s0.3,0.3,0.5,0.4c0.1,0.1,0.6,0.2,1.2,0.4c1,0.3,1.7,0.5,2.1,0.7s0.7,0.4,0.9,0.7c0.2,0.3,0.3,0.7,0.3,1.2
		s-0.1,0.9-0.4,1.3s-0.7,0.7-1.2,1s-1.1,0.3-1.8,0.3c-1.1,0-1.9-0.2-2.5-0.7C53.4,144.3,53.1,143.6,52.9,142.7z"/>
	<path class="st4" d="M61.5,135.4v-1.6h1.4v1.6H61.5z M61.5,145.2v-8.3h1.4v8.3H61.5z"/>
	<path class="st4" d="M64.5,141.1c0-1.5,0.4-2.7,1.3-3.4c0.7-0.6,1.6-0.9,2.6-0.9c1.1,0,2.1,0.4,2.8,1.1c0.7,0.7,1.1,1.8,1.1,3.1
		c0,1.1-0.2,1.9-0.5,2.5s-0.8,1.1-1.4,1.4c-0.6,0.3-1.3,0.5-2,0.5c-1.2,0-2.1-0.4-2.8-1.1C64.9,143.5,64.5,142.5,64.5,141.1z
		 M66,141.1c0,1.1,0.2,1.9,0.7,2.4s1,0.8,1.8,0.8c0.7,0,1.3-0.3,1.7-0.8c0.5-0.5,0.7-1.3,0.7-2.4c0-1-0.2-1.8-0.7-2.3
		s-1-0.8-1.7-0.8s-1.3,0.3-1.8,0.8C66.2,139.2,66,140,66,141.1z"/>
	<path class="st4" d="M73.9,145.2v-8.3h1.3v1.2c0.6-0.9,1.5-1.4,2.6-1.4c0.5,0,1,0.1,1.4,0.3s0.7,0.4,0.9,0.7c0.2,0.3,0.4,0.6,0.4,1
		c0.1,0.3,0.1,0.7,0.1,1.4v5.1h-1.4v-5c0-0.6-0.1-1-0.2-1.3s-0.3-0.5-0.6-0.7c-0.3-0.2-0.6-0.3-1-0.3c-0.6,0-1.1,0.2-1.6,0.6
		c-0.4,0.4-0.7,1.1-0.7,2.2v4.5H73.9z"/>
	<path class="st4" d="M82.8,135.4v-1.6h1.4v1.6H82.8z M82.8,145.2v-8.3h1.4v8.3H82.8z"/>
	<path class="st4" d="M85.8,142.7l1.4-0.2c0.1,0.6,0.3,1,0.7,1.3c0.4,0.3,0.9,0.4,1.5,0.4s1.1-0.1,1.4-0.4s0.5-0.6,0.5-0.9
		c0-0.3-0.1-0.6-0.4-0.8c-0.2-0.1-0.7-0.3-1.4-0.5c-1-0.3-1.7-0.5-2.1-0.7s-0.7-0.5-0.9-0.8c-0.2-0.3-0.3-0.7-0.3-1.1
		c0-0.4,0.1-0.7,0.3-1c0.2-0.3,0.4-0.6,0.7-0.8c0.2-0.2,0.5-0.3,0.9-0.4c0.4-0.1,0.8-0.2,1.2-0.2c0.7,0,1.2,0.1,1.7,0.3
		s0.9,0.4,1.1,0.8s0.4,0.7,0.5,1.3l-1.4,0.2c-0.1-0.4-0.2-0.8-0.5-1s-0.7-0.4-1.3-0.4c-0.6,0-1.1,0.1-1.4,0.3s-0.4,0.5-0.4,0.8
		c0,0.2,0.1,0.3,0.2,0.5s0.3,0.3,0.5,0.4c0.1,0.1,0.6,0.2,1.2,0.4c1,0.3,1.7,0.5,2.1,0.7s0.7,0.4,0.9,0.7c0.2,0.3,0.3,0.7,0.3,1.2
		s-0.1,0.9-0.4,1.3s-0.7,0.7-1.2,1s-1.1,0.3-1.8,0.3c-1.1,0-1.9-0.2-2.5-0.7C86.3,144.3,86,143.6,85.8,142.7z"/>
	<path class="st4" d="M97.5,143.9l0.2,1.2c-0.4,0.1-0.8,0.1-1.1,0.1c-0.5,0-0.9-0.1-1.2-0.2s-0.5-0.4-0.6-0.6
		c-0.1-0.3-0.2-0.8-0.2-1.7v-4.8h-1v-1.1h1v-2L96,134v2.9h1.4v1.1H96v4.9c0,0.4,0,0.7,0.1,0.8c0,0.1,0.1,0.2,0.2,0.3
		s0.3,0.1,0.5,0.1C97,144,97.2,144,97.5,143.9z"/>
	<path class="st4" d="M104.2,144.2c-0.5,0.4-1,0.8-1.5,0.9c-0.5,0.2-1,0.3-1.6,0.3c-0.9,0-1.6-0.2-2.1-0.7c-0.5-0.4-0.7-1-0.7-1.7
		c0-0.4,0.1-0.8,0.3-1.1c0.2-0.3,0.4-0.6,0.7-0.8c0.3-0.2,0.6-0.4,1-0.5c0.3-0.1,0.7-0.1,1.3-0.2c1.1-0.1,2-0.3,2.5-0.5
		c0-0.2,0-0.3,0-0.4c0-0.6-0.1-1-0.4-1.2c-0.4-0.3-0.9-0.5-1.6-0.5s-1.1,0.1-1.5,0.3c-0.3,0.2-0.5,0.6-0.7,1.2l-1.4-0.2
		c0.1-0.6,0.3-1.1,0.6-1.4c0.3-0.4,0.7-0.6,1.2-0.8s1.2-0.3,1.9-0.3c0.7,0,1.3,0.1,1.7,0.3c0.4,0.2,0.8,0.4,1,0.6
		c0.2,0.3,0.4,0.6,0.4,1c0,0.2,0.1,0.7,0.1,1.3v1.9c0,1.3,0,2.1,0.1,2.5c0.1,0.3,0.2,0.7,0.4,1h-1.5
		C104.4,144.9,104.3,144.6,104.2,144.2z M104.1,141c-0.5,0.2-1.3,0.4-2.3,0.5c-0.6,0.1-1,0.2-1.2,0.3s-0.4,0.3-0.6,0.5
		c-0.1,0.2-0.2,0.4-0.2,0.7c0,0.4,0.1,0.7,0.4,0.9c0.3,0.3,0.7,0.4,1.2,0.4s1-0.1,1.4-0.4s0.7-0.6,0.9-1c0.2-0.3,0.2-0.8,0.2-1.4
		V141H104.1z"/>
</g>
<g class="st3">
	<path class="st4" d="M99.9,69.6V58.1h3.9c0.9,0,1.6,0.1,2,0.2c0.7,0.2,1.2,0.4,1.7,0.8c0.6,0.5,1.1,1.2,1.4,2s0.4,1.7,0.4,2.7
		c0,0.9-0.1,1.6-0.3,2.3c-0.2,0.7-0.5,1.2-0.8,1.7c-0.3,0.4-0.7,0.8-1,1c-0.4,0.3-0.8,0.4-1.4,0.6c-0.5,0.1-1.1,0.2-1.8,0.2
		C104,69.6,99.9,69.6,99.9,69.6z M101.4,68.2h2.4c0.8,0,1.3-0.1,1.8-0.2s0.8-0.3,1-0.6c0.4-0.4,0.6-0.8,0.8-1.4
		c0.2-0.6,0.3-1.3,0.3-2.2c0-1.2-0.2-2.1-0.6-2.8c-0.4-0.6-0.9-1.1-1.4-1.3c-0.4-0.2-1.1-0.2-2-0.2h-2.4L101.4,68.2L101.4,68.2z"/>
	<path class="st4" d="M111.3,59.8v-1.6h1.4v1.6H111.3z M111.3,69.6v-8.3h1.4v8.3H111.3z"/>
	<path class="st4" d="M117.2,69.6l-3.2-8.3h1.5l1.8,5c0.2,0.5,0.4,1.1,0.5,1.7c0.1-0.4,0.3-1,0.5-1.6l1.8-5.1h1.4l-3.1,8.3H117.2z"
		/>
	<path class="st4" d="M122.9,59.8v-1.6h1.4v1.6H122.9z M122.9,69.6v-8.3h1.4v8.3H122.9z"/>
	<path class="st4" d="M131.8,69.6v-1c-0.5,0.8-1.3,1.2-2.3,1.2c-0.7,0-1.3-0.2-1.8-0.5s-1-0.9-1.3-1.5s-0.5-1.4-0.5-2.3
		c0-0.8,0.1-1.6,0.4-2.3c0.3-0.7,0.7-1.2,1.2-1.6c0.6-0.4,1.2-0.5,1.9-0.5c0.5,0,0.9,0.1,1.3,0.3s0.7,0.5,1,0.8v-4.1h1.4v11.5H131.8
		z M127.3,65.5c0,1.1,0.2,1.9,0.7,2.4c0.4,0.5,1,0.8,1.6,0.8s1.1-0.3,1.6-0.8s0.6-1.3,0.6-2.3c0-1.1-0.2-2-0.7-2.5s-1-0.8-1.6-0.8
		s-1.1,0.3-1.6,0.8C127.6,63.6,127.3,64.4,127.3,65.5z"/>
	<path class="st4" d="M141,66.9l1.5,0.2c-0.2,0.8-0.7,1.5-1.3,2s-1.4,0.7-2.4,0.7c-1.2,0-2.2-0.4-2.9-1.1s-1.1-1.8-1.1-3.1
		c0-1.4,0.4-2.5,1.1-3.3s1.7-1.2,2.8-1.2s2,0.4,2.7,1.1s1.1,1.8,1.1,3.2c0,0.1,0,0.2,0,0.4h-6.2c0.1,0.9,0.3,1.6,0.8,2.1
		s1,0.7,1.7,0.7c0.5,0,1-0.1,1.3-0.4C140.5,68,140.8,67.5,141,66.9z M136.4,64.7h4.6c-0.1-0.7-0.2-1.2-0.5-1.6
		c-0.4-0.5-1-0.8-1.7-0.8c-0.6,0-1.2,0.2-1.6,0.6C136.7,63.4,136.4,63.9,136.4,64.7z"/>
	<path class="st4" d="M144.2,69.6v-8.3h1.3v1.2c0.6-0.9,1.5-1.4,2.6-1.4c0.5,0,1,0.1,1.4,0.3c0.4,0.2,0.7,0.4,0.9,0.7
		c0.2,0.3,0.4,0.6,0.4,1c0.1,0.3,0.1,0.7,0.1,1.4v5.1h-1.4v-5c0-0.6-0.1-1-0.2-1.3s-0.3-0.5-0.6-0.7s-0.6-0.3-1-0.3
		c-0.6,0-1.1,0.2-1.6,0.6c-0.4,0.4-0.7,1.1-0.7,2.2v4.5C145.4,69.6,144.2,69.6,144.2,69.6z"/>
	<path class="st4" d="M158.5,69.6v-1c-0.5,0.8-1.3,1.2-2.3,1.2c-0.7,0-1.3-0.2-1.8-0.5s-1-0.9-1.3-1.5s-0.5-1.4-0.5-2.3
		c0-0.8,0.1-1.6,0.4-2.3c0.3-0.7,0.7-1.2,1.2-1.6c0.6-0.4,1.2-0.5,1.9-0.5c0.5,0,0.9,0.1,1.3,0.3s0.7,0.5,1,0.8v-4.1h1.4v11.5H158.5
		z M154,65.5c0,1.1,0.2,1.9,0.7,2.4c0.4,0.5,1,0.8,1.6,0.8s1.1-0.3,1.6-0.8s0.6-1.3,0.6-2.3c0-1.1-0.2-2-0.7-2.5s-1-0.8-1.6-0.8
		s-1.1,0.3-1.6,0.8C154.2,63.6,154,64.4,154,65.5z"/>
	<path class="st4" d="M161.5,65.5c0-1.5,0.4-2.7,1.3-3.4c0.7-0.6,1.6-0.9,2.6-0.9c1.1,0,2.1,0.4,2.8,1.1s1.1,1.8,1.1,3.1
		c0,1.1-0.2,1.9-0.5,2.5s-0.8,1.1-1.4,1.4c-0.6,0.3-1.3,0.5-2,0.5c-1.2,0-2.1-0.4-2.8-1.1C161.8,67.9,161.5,66.9,161.5,65.5z
		 M162.9,65.5c0,1.1,0.2,1.9,0.7,2.4s1,0.8,1.8,0.8c0.7,0,1.3-0.3,1.7-0.8c0.5-0.5,0.7-1.3,0.7-2.4c0-1-0.2-1.8-0.7-2.3
		s-1-0.8-1.7-0.8s-1.3,0.3-1.8,0.8C163.2,63.6,162.9,64.4,162.9,65.5z"/>
	<path class="st4" d="M170.3,67.1l1.4-0.2c0.1,0.6,0.3,1,0.7,1.3s0.9,0.4,1.5,0.4s1.1-0.1,1.4-0.4s0.5-0.6,0.5-0.9s-0.1-0.6-0.4-0.8
		c-0.2-0.1-0.7-0.3-1.4-0.5c-1-0.3-1.7-0.5-2.1-0.7s-0.7-0.5-0.9-0.8s-0.3-0.7-0.3-1.1s0.1-0.7,0.3-1s0.4-0.6,0.7-0.8
		c0.2-0.2,0.5-0.3,0.9-0.4s0.8-0.2,1.2-0.2c0.7,0,1.2,0.1,1.7,0.3s0.9,0.4,1.1,0.8s0.4,0.7,0.5,1.3l-1.4,0.2c-0.1-0.4-0.2-0.8-0.5-1
		s-0.7-0.4-1.3-0.4s-1.1,0.1-1.4,0.3c-0.3,0.2-0.4,0.5-0.4,0.8c0,0.2,0.1,0.3,0.2,0.5c0.1,0.2,0.3,0.3,0.5,0.4
		c0.1,0.1,0.6,0.2,1.2,0.4c1,0.3,1.7,0.5,2.1,0.7c0.4,0.2,0.7,0.4,0.9,0.7c0.2,0.3,0.3,0.7,0.3,1.2s-0.1,0.9-0.4,1.3s-0.7,0.7-1.2,1
		s-1.1,0.3-1.8,0.3c-1.1,0-1.9-0.2-2.5-0.7C170.9,68.7,170.5,68,170.3,67.1z"/>
	<path class="st4" d="M188.7,69.6v-1c-0.5,0.8-1.3,1.2-2.3,1.2c-0.7,0-1.3-0.2-1.8-0.5s-1-0.9-1.3-1.5s-0.5-1.4-0.5-2.3
		c0-0.8,0.1-1.6,0.4-2.3c0.3-0.7,0.7-1.2,1.2-1.6c0.6-0.4,1.2-0.5,1.9-0.5c0.5,0,0.9,0.1,1.3,0.3s0.7,0.5,1,0.8v-4.1h1.4v11.5H188.7
		z M184.3,65.5c0,1.1,0.2,1.9,0.7,2.4c0.4,0.5,1,0.8,1.6,0.8s1.1-0.3,1.6-0.8s0.6-1.3,0.6-2.3c0-1.1-0.2-2-0.7-2.5s-1-0.8-1.6-0.8
		s-1.1,0.3-1.6,0.8C184.5,63.6,184.3,64.4,184.3,65.5z"/>
	<path class="st4" d="M192.3,59.8v-1.6h1.4v1.6H192.3z M192.3,69.6v-8.3h1.4v8.3H192.3z"/>
	<path class="st4" d="M195.2,67.1l1.4-0.2c0.1,0.6,0.3,1,0.7,1.3s0.9,0.4,1.5,0.4s1.1-0.1,1.4-0.4s0.5-0.6,0.5-0.9s-0.1-0.6-0.4-0.8
		c-0.2-0.1-0.7-0.3-1.4-0.5c-1-0.3-1.7-0.5-2.1-0.7s-0.7-0.5-0.9-0.8s-0.3-0.7-0.3-1.1s0.1-0.7,0.3-1s0.4-0.6,0.7-0.8
		c0.2-0.2,0.5-0.3,0.9-0.4s0.8-0.2,1.2-0.2c0.7,0,1.2,0.1,1.7,0.3s0.9,0.4,1.1,0.8s0.4,0.7,0.5,1.3l-1.4,0.2c-0.1-0.4-0.2-0.8-0.5-1
		s-0.7-0.4-1.3-0.4s-1.1,0.1-1.4,0.3c-0.3,0.2-0.4,0.5-0.4,0.8c0,0.2,0.1,0.3,0.2,0.5c0.1,0.2,0.3,0.3,0.5,0.4
		c0.1,0.1,0.6,0.2,1.2,0.4c1,0.3,1.7,0.5,2.1,0.7c0.4,0.2,0.7,0.4,0.9,0.7c0.2,0.3,0.3,0.7,0.3,1.2s-0.1,0.9-0.4,1.3s-0.7,0.7-1.2,1
		s-1.1,0.3-1.8,0.3c-1.1,0-1.9-0.2-2.5-0.7C195.8,68.7,195.4,68,195.2,67.1z"/>
	<path class="st4" d="M206.9,68.3l0.2,1.2c-0.4,0.1-0.8,0.1-1.1,0.1c-0.5,0-0.9-0.1-1.2-0.2s-0.5-0.4-0.6-0.6
		c-0.1-0.3-0.2-0.8-0.2-1.7v-4.8h-1v-1.1h1v-2.1l1.4-0.8v2.9h1.4v1.1h-1.4v4.9c0,0.4,0,0.7,0.1,0.8c0,0.1,0.1,0.2,0.2,0.3
		c0.1,0.1,0.3,0.1,0.5,0.1C206.4,68.4,206.6,68.4,206.9,68.3z"/>
	<path class="st4" d="M208.2,69.6v-8.3h1.3v1.3c0.3-0.6,0.6-1,0.9-1.2s0.6-0.3,0.9-0.3c0.5,0,1,0.2,1.4,0.5l-0.5,1.3
		c-0.3-0.2-0.7-0.3-1-0.3s-0.6,0.1-0.8,0.3c-0.2,0.2-0.4,0.4-0.5,0.8c-0.2,0.5-0.2,1-0.2,1.6v4.3C209.7,69.7,208.2,69.7,208.2,69.6z
		"/>
	<path class="st4" d="M213.6,59.8v-1.6h1.4v1.6H213.6z M213.6,69.6v-8.3h1.4v8.3H213.6z"/>
	<path class="st4" d="M218.4,69.6h-1.3V58.1h1.4v4.1c0.6-0.7,1.4-1.1,2.3-1.1c0.5,0,1,0.1,1.4,0.3c0.5,0.2,0.8,0.5,1.1,0.9
		s0.5,0.8,0.7,1.3s0.3,1.1,0.3,1.7c0,1.4-0.4,2.5-1.1,3.3s-1.5,1.2-2.5,1.2s-1.7-0.4-2.3-1.2L218.4,69.6L218.4,69.6z M218.4,65.4
		c0,1,0.1,1.7,0.4,2.2c0.4,0.7,1,1.1,1.8,1.1c0.6,0,1.1-0.3,1.6-0.8c0.4-0.5,0.7-1.3,0.7-2.4s-0.2-1.9-0.6-2.4s-0.9-0.8-1.6-0.8
		c-0.6,0-1.1,0.3-1.6,0.8C218.6,63.6,218.4,64.4,218.4,65.4z"/>
	<path class="st4" d="M231.5,69.6v-1.2c-0.6,0.9-1.5,1.4-2.6,1.4c-0.5,0-0.9-0.1-1.4-0.3c-0.4-0.2-0.7-0.4-0.9-0.7
		c-0.2-0.3-0.4-0.6-0.4-1c-0.1-0.3-0.1-0.7-0.1-1.3v-5.1h1.4V66c0,0.7,0,1.2,0.1,1.5c0.1,0.4,0.3,0.7,0.6,0.9
		c0.3,0.2,0.6,0.3,1.1,0.3s0.8-0.1,1.2-0.3c0.4-0.2,0.6-0.5,0.8-0.9s0.2-0.9,0.2-1.6v-4.4h1.4v8.3h-1.4V69.6z"/>
	<path class="st4" d="M234.9,59.8v-1.6h1.4v1.6H234.9z M234.9,69.6v-8.3h1.4v8.3H234.9z"/>
	<path class="st4" d="M243.9,69.6v-1c-0.5,0.8-1.3,1.2-2.3,1.2c-0.7,0-1.3-0.2-1.8-0.5s-1-0.9-1.3-1.5s-0.5-1.4-0.5-2.3
		c0-0.8,0.1-1.6,0.4-2.3c0.3-0.7,0.7-1.2,1.2-1.6c0.6-0.4,1.2-0.5,1.9-0.5c0.5,0,0.9,0.1,1.3,0.3s0.7,0.5,1,0.8v-4.1h1.4v11.5H243.9
		z M239.4,65.5c0,1.1,0.2,1.9,0.7,2.4c0.4,0.5,1,0.8,1.6,0.8s1.1-0.3,1.6-0.8s0.6-1.3,0.6-2.3c0-1.1-0.2-2-0.7-2.5s-1-0.8-1.6-0.8
		s-1.1,0.3-1.6,0.8C239.6,63.6,239.4,64.4,239.4,65.5z"/>
	<path class="st4" d="M246.9,65.5c0-1.5,0.4-2.7,1.3-3.4c0.7-0.6,1.6-0.9,2.6-0.9c1.1,0,2.1,0.4,2.8,1.1c0.7,0.7,1.1,1.8,1.1,3.1
		c0,1.1-0.2,1.9-0.5,2.5s-0.8,1.1-1.4,1.4s-1.3,0.5-2,0.5c-1.2,0-2.1-0.4-2.8-1.1C247.2,67.9,246.9,66.9,246.9,65.5z M248.3,65.5
		c0,1.1,0.2,1.9,0.7,2.4s1,0.8,1.8,0.8c0.7,0,1.3-0.3,1.7-0.8c0.5-0.5,0.7-1.3,0.7-2.4c0-1-0.2-1.8-0.7-2.3s-1-0.8-1.7-0.8
		s-1.3,0.3-1.8,0.8C248.5,63.6,248.3,64.4,248.3,65.5z"/>
	<path class="st4" d="M255.7,67.1l1.4-0.2c0.1,0.6,0.3,1,0.7,1.3c0.4,0.3,0.9,0.4,1.5,0.4s1.1-0.1,1.4-0.4s0.5-0.6,0.5-0.9
		s-0.1-0.6-0.4-0.8c-0.2-0.1-0.7-0.3-1.4-0.5c-1-0.3-1.7-0.5-2.1-0.7s-0.7-0.5-0.9-0.8c-0.2-0.3-0.3-0.7-0.3-1.1s0.1-0.7,0.3-1
		c0.2-0.3,0.4-0.6,0.7-0.8c0.2-0.2,0.5-0.3,0.9-0.4s0.8-0.2,1.2-0.2c0.7,0,1.2,0.1,1.7,0.3s0.9,0.4,1.1,0.8s0.4,0.7,0.5,1.3
		l-1.4,0.2c-0.1-0.4-0.2-0.8-0.5-1s-0.7-0.4-1.3-0.4c-0.6,0-1.1,0.1-1.4,0.3c-0.3,0.2-0.4,0.5-0.4,0.8c0,0.2,0.1,0.3,0.2,0.5
		s0.3,0.3,0.5,0.4c0.1,0.1,0.6,0.2,1.2,0.4c1,0.3,1.7,0.5,2.1,0.7s0.7,0.4,0.9,0.7c0.2,0.3,0.3,0.7,0.3,1.2s-0.1,0.9-0.4,1.3
		s-0.7,0.7-1.2,1s-1.1,0.3-1.8,0.3c-1.1,0-1.9-0.2-2.5-0.7C256.2,68.7,255.9,68,255.7,67.1z"/>
	<path class="st4" d="M274.1,66.6l1.4,0.2c-0.2,1-0.5,1.7-1.2,2.2c-0.6,0.5-1.4,0.8-2.3,0.8c-1.1,0-2-0.4-2.7-1.1s-1-1.8-1-3.2
		c0-0.9,0.1-1.7,0.4-2.4s0.7-1.2,1.4-1.5c0.6-0.3,1.3-0.5,2-0.5c0.9,0,1.6,0.2,2.2,0.7s0.9,1.1,1.1,1.9l-1.4,0.2
		c-0.1-0.6-0.4-1-0.7-1.3c-0.3-0.3-0.7-0.4-1.2-0.4c-0.7,0-1.3,0.3-1.7,0.8c-0.4,0.5-0.7,1.3-0.7,2.4s0.2,1.9,0.6,2.4s1,0.8,1.7,0.8
		c0.6,0,1-0.2,1.4-0.5C273.8,67.8,274,67.3,274.1,66.6z"/>
	<path class="st4" d="M282.1,68.6c-0.5,0.4-1,0.8-1.5,0.9c-0.5,0.2-1,0.3-1.6,0.3c-0.9,0-1.6-0.2-2.1-0.7c-0.5-0.4-0.7-1-0.7-1.7
		c0-0.4,0.1-0.8,0.3-1.1c0.2-0.3,0.4-0.6,0.7-0.8c0.3-0.2,0.6-0.4,1-0.5c0.3-0.1,0.7-0.1,1.3-0.2c1.1-0.1,2-0.3,2.5-0.5
		c0-0.2,0-0.3,0-0.4c0-0.6-0.1-1-0.4-1.2c-0.4-0.3-0.9-0.5-1.6-0.5s-1.1,0.1-1.5,0.3c-0.3,0.2-0.5,0.6-0.7,1.2l-1.4-0.2
		c0.1-0.6,0.3-1.1,0.6-1.4c0.3-0.4,0.7-0.6,1.2-0.8c0.5-0.2,1.2-0.3,1.9-0.3c0.7,0,1.3,0.1,1.7,0.3c0.4,0.2,0.8,0.4,1,0.6
		c0.2,0.3,0.4,0.6,0.4,1c0,0.2,0.1,0.7,0.1,1.3v1.9c0,1.3,0,2.1,0.1,2.5c0.1,0.3,0.2,0.7,0.4,1h-1.5C282.3,69.3,282.2,69,282.1,68.6
		z M282,65.4c-0.5,0.2-1.3,0.4-2.3,0.5c-0.6,0.1-1,0.2-1.2,0.3c-0.2,0.1-0.4,0.3-0.6,0.5c-0.1,0.2-0.2,0.4-0.2,0.7
		c0,0.4,0.1,0.7,0.4,0.9c0.3,0.3,0.7,0.4,1.2,0.4s1-0.1,1.4-0.4s0.7-0.6,0.9-1c0.2-0.3,0.2-0.8,0.2-1.4v-0.5H282z"/>
	<path class="st4" d="M291,69.6v-1c-0.5,0.8-1.3,1.2-2.3,1.2c-0.7,0-1.3-0.2-1.8-0.5s-1-0.9-1.3-1.5s-0.5-1.4-0.5-2.3
		c0-0.8,0.1-1.6,0.4-2.3c0.3-0.7,0.7-1.2,1.2-1.6c0.6-0.4,1.2-0.5,1.9-0.5c0.5,0,0.9,0.1,1.3,0.3s0.7,0.5,1,0.8v-4.1h1.4v11.5H291z
		 M286.6,65.5c0,1.1,0.2,1.9,0.7,2.4c0.4,0.5,1,0.8,1.6,0.8s1.1-0.3,1.6-0.8s0.6-1.3,0.6-2.3c0-1.1-0.2-2-0.7-2.5s-1-0.8-1.6-0.8
		s-1.1,0.3-1.6,0.8C286.8,63.6,286.6,64.4,286.6,65.5z"/>
	<path class="st4" d="M299.9,68.6c-0.5,0.4-1,0.8-1.5,0.9c-0.5,0.2-1,0.3-1.6,0.3c-0.9,0-1.6-0.2-2.1-0.7c-0.5-0.4-0.7-1-0.7-1.7
		c0-0.4,0.1-0.8,0.3-1.1c0.2-0.3,0.4-0.6,0.7-0.8c0.3-0.2,0.6-0.4,1-0.5c0.3-0.1,0.7-0.1,1.3-0.2c1.1-0.1,2-0.3,2.5-0.5
		c0-0.2,0-0.3,0-0.4c0-0.6-0.1-1-0.4-1.2c-0.4-0.3-0.9-0.5-1.6-0.5s-1.1,0.1-1.5,0.3c-0.3,0.2-0.5,0.6-0.7,1.2l-1.4-0.2
		c0.1-0.6,0.3-1.1,0.6-1.4c0.3-0.4,0.7-0.6,1.2-0.8c0.5-0.2,1.2-0.3,1.9-0.3c0.7,0,1.3,0.1,1.7,0.3c0.4,0.2,0.8,0.4,1,0.6
		c0.2,0.3,0.4,0.6,0.4,1c0,0.2,0.1,0.7,0.1,1.3v1.9c0,1.3,0,2.1,0.1,2.5c0.1,0.3,0.2,0.7,0.4,1h-1.5C300.1,69.3,300,69,299.9,68.6z
		 M299.8,65.4c-0.5,0.2-1.3,0.4-2.3,0.5c-0.6,0.1-1,0.2-1.2,0.3c-0.2,0.1-0.4,0.3-0.6,0.5c-0.1,0.2-0.2,0.4-0.2,0.7
		c0,0.4,0.1,0.7,0.4,0.9c0.3,0.3,0.7,0.4,1.2,0.4s1-0.1,1.4-0.4s0.7-0.6,0.9-1c0.2-0.3,0.2-0.8,0.2-1.4v-0.5H299.8z"/>
	<path class="st4" d="M307.9,69.6v-8.3h1.3v1.2c0.3-0.4,0.6-0.7,1-1c0.4-0.2,0.9-0.4,1.5-0.4s1.1,0.1,1.5,0.4s0.7,0.6,0.8,1.1
		c0.7-1,1.5-1.5,2.6-1.5c0.8,0,1.5,0.2,1.9,0.7s0.7,1.2,0.7,2.1v5.7h-1.4v-5.2c0-0.6,0-1-0.1-1.2s-0.3-0.4-0.5-0.6s-0.5-0.2-0.8-0.2
		c-0.6,0-1.1,0.2-1.5,0.6s-0.6,1-0.6,1.9v4.8h-1.4v-5.4c0-0.6-0.1-1.1-0.3-1.4c-0.2-0.3-0.6-0.5-1.1-0.5c-0.4,0-0.8,0.1-1.1,0.3
		s-0.6,0.5-0.7,0.9c-0.2,0.4-0.2,1-0.2,1.7v4.3C309.5,69.7,307.9,69.7,307.9,69.6z"/>
	<path class="st4" d="M326.9,66.9l1.5,0.2c-0.2,0.8-0.7,1.5-1.3,2c-0.6,0.5-1.4,0.7-2.4,0.7c-1.2,0-2.2-0.4-2.9-1.1
		s-1.1-1.8-1.1-3.1c0-1.4,0.4-2.5,1.1-3.3s1.7-1.2,2.8-1.2c1.1,0,2,0.4,2.7,1.1s1.1,1.8,1.1,3.2c0,0.1,0,0.2,0,0.4h-6.2
		c0.1,0.9,0.3,1.6,0.8,2.1s1,0.7,1.7,0.7c0.5,0,1-0.1,1.3-0.4C326.4,68,326.7,67.5,326.9,66.9z M322.3,64.7h4.6
		c-0.1-0.7-0.2-1.2-0.5-1.6c-0.4-0.5-1-0.8-1.7-0.8c-0.6,0-1.2,0.2-1.6,0.6C322.5,63.4,322.3,63.9,322.3,64.7z"/>
	<path class="st4" d="M329.5,67.1l1.4-0.2c0.1,0.6,0.3,1,0.7,1.3c0.4,0.3,0.9,0.4,1.5,0.4s1.1-0.1,1.4-0.4s0.5-0.6,0.5-0.9
		s-0.1-0.6-0.4-0.8c-0.2-0.1-0.7-0.3-1.4-0.5c-1-0.3-1.7-0.5-2.1-0.7s-0.7-0.5-0.9-0.8c-0.2-0.3-0.3-0.7-0.3-1.1s0.1-0.7,0.3-1
		c0.2-0.3,0.4-0.6,0.7-0.8c0.2-0.2,0.5-0.3,0.9-0.4s0.8-0.2,1.2-0.2c0.7,0,1.2,0.1,1.7,0.3s0.9,0.4,1.1,0.8s0.4,0.7,0.5,1.3
		l-1.4,0.2c-0.1-0.4-0.2-0.8-0.5-1s-0.7-0.4-1.3-0.4c-0.6,0-1.1,0.1-1.4,0.3c-0.3,0.2-0.4,0.5-0.4,0.8c0,0.2,0.1,0.3,0.2,0.5
		s0.3,0.3,0.5,0.4c0.1,0.1,0.6,0.2,1.2,0.4c1,0.3,1.7,0.5,2.1,0.7s0.7,0.4,0.9,0.7c0.2,0.3,0.3,0.7,0.3,1.2s-0.1,0.9-0.4,1.3
		s-0.7,0.7-1.2,1s-1.1,0.3-1.8,0.3c-1.1,0-1.9-0.2-2.5-0.7C330,68.7,329.7,68,329.5,67.1z"/>
</g>
<g class="st3">
	<path class="st4" d="M455.6,294.7v-11.5h7.7v1.4h-6.2v3.5h5.4v1.4h-5.4v5.2H455.6z"/>
	<path class="st4" d="M464.6,290.6c0-1.5,0.4-2.7,1.3-3.4c0.7-0.6,1.6-0.9,2.6-0.9c1.1,0,2.1,0.4,2.8,1.1s1.1,1.8,1.1,3.1
		c0,1.1-0.2,1.9-0.5,2.5c-0.3,0.6-0.8,1.1-1.4,1.4s-1.3,0.5-2,0.5c-1.2,0-2.1-0.4-2.8-1.1S464.6,292,464.6,290.6z M466.1,290.6
		c0,1.1,0.2,1.9,0.7,2.4s1,0.8,1.8,0.8c0.7,0,1.3-0.3,1.7-0.8s0.7-1.3,0.7-2.4c0-1-0.2-1.8-0.7-2.3s-1-0.8-1.7-0.8s-1.3,0.3-1.8,0.8
		S466.1,289.5,466.1,290.6z"/>
	<path class="st4" d="M474.1,294.7v-8.3h1.3v1.2c0.6-0.9,1.5-1.4,2.6-1.4c0.5,0,1,0.1,1.4,0.3c0.4,0.2,0.7,0.4,0.9,0.7
		c0.2,0.3,0.4,0.6,0.4,1c0.1,0.3,0.1,0.7,0.1,1.4v5.1h-1.4v-5c0-0.6-0.1-1-0.2-1.3s-0.3-0.5-0.6-0.7s-0.6-0.3-1-0.3
		c-0.6,0-1.1,0.2-1.6,0.6c-0.5,0.4-0.7,1.1-0.7,2.2v4.5L474.1,294.7L474.1,294.7z"/>
	<path class="st4" d="M488.3,294.7v-1c-0.5,0.8-1.3,1.2-2.3,1.2c-0.7,0-1.3-0.2-1.8-0.5s-1-0.9-1.3-1.5c-0.3-0.6-0.5-1.4-0.5-2.3
		c0-0.8,0.1-1.6,0.4-2.3c0.3-0.7,0.7-1.2,1.2-1.6c0.5-0.4,1.2-0.5,1.9-0.5c0.5,0,0.9,0.1,1.3,0.3c0.4,0.2,0.7,0.5,1,0.8v-4.1h1.4
		v11.5H488.3z M483.9,290.6c0,1.1,0.2,1.9,0.7,2.4s1,0.8,1.6,0.8s1.1-0.3,1.6-0.8s0.6-1.3,0.6-2.3c0-1.1-0.2-2-0.7-2.5
		s-1-0.8-1.6-0.8s-1.1,0.3-1.6,0.8S483.9,289.5,483.9,290.6z"/>
	<path class="st4" d="M491.3,290.6c0-1.5,0.4-2.7,1.3-3.4c0.7-0.6,1.6-0.9,2.6-0.9c1.1,0,2.1,0.4,2.8,1.1s1.1,1.8,1.1,3.1
		c0,1.1-0.2,1.9-0.5,2.5c-0.3,0.6-0.8,1.1-1.4,1.4s-1.3,0.5-2,0.5c-1.2,0-2.1-0.4-2.8-1.1S491.3,292,491.3,290.6z M492.8,290.6
		c0,1.1,0.2,1.9,0.7,2.4s1,0.8,1.8,0.8c0.7,0,1.3-0.3,1.7-0.8s0.7-1.3,0.7-2.4c0-1-0.2-1.8-0.7-2.3s-1-0.8-1.7-0.8s-1.3,0.3-1.8,0.8
		S492.8,289.5,492.8,290.6z"/>
	<path class="st4" d="M500.2,292.2l1.4-0.2c0.1,0.6,0.3,1,0.7,1.3s0.9,0.4,1.5,0.4s1.1-0.1,1.4-0.4s0.5-0.6,0.5-0.9
		s-0.1-0.6-0.4-0.8c-0.2-0.1-0.7-0.3-1.4-0.5c-1-0.3-1.7-0.5-2.1-0.7s-0.7-0.5-0.9-0.8s-0.3-0.7-0.3-1.1c0-0.4,0.1-0.7,0.3-1
		s0.4-0.6,0.7-0.8c0.2-0.2,0.5-0.3,0.9-0.4c0.4-0.1,0.8-0.2,1.2-0.2c0.7,0,1.2,0.1,1.7,0.3c0.5,0.2,0.9,0.4,1.1,0.8
		c0.2,0.4,0.4,0.7,0.5,1.3l-1.4,0.2c-0.1-0.4-0.2-0.8-0.5-1s-0.7-0.4-1.3-0.4s-1.1,0.1-1.4,0.3c-0.3,0.2-0.4,0.5-0.4,0.8
		c0,0.2,0.1,0.3,0.2,0.5c0.1,0.2,0.3,0.3,0.5,0.4c0.1,0.1,0.6,0.2,1.2,0.4c1,0.3,1.7,0.5,2.1,0.7s0.7,0.4,0.9,0.7
		c0.2,0.3,0.3,0.7,0.3,1.2s-0.1,0.9-0.4,1.3c-0.3,0.4-0.7,0.7-1.2,1s-1.1,0.3-1.8,0.3c-1.1,0-1.9-0.2-2.5-0.7
		S500.4,293.1,500.2,292.2z"/>
</g>
<g class="st3">
	<path class="st4" d="M562,280.4v-11.5h4.3c0.9,0,1.6,0.1,2.1,0.3s0.9,0.6,1.2,1.1s0.4,1,0.4,1.5s-0.1,1-0.4,1.4s-0.7,0.8-1.2,1
		c0.7,0.2,1.2,0.5,1.6,1s0.6,1.1,0.6,1.7c0,0.5-0.1,1-0.3,1.5s-0.5,0.8-0.8,1.1s-0.8,0.4-1.3,0.6s-1.1,0.2-1.8,0.2L562,280.4
		L562,280.4z M563.5,273.8h2.5c0.7,0,1.2,0,1.4-0.1c0.4-0.1,0.7-0.3,0.9-0.6s0.3-0.6,0.3-1s-0.1-0.7-0.3-1s-0.4-0.5-0.8-0.6
		s-0.9-0.2-1.7-0.2h-2.3L563.5,273.8L563.5,273.8z M563.5,279h2.9c0.5,0,0.8,0,1-0.1c0.3-0.1,0.6-0.2,0.9-0.3s0.4-0.4,0.6-0.6
		s0.2-0.6,0.2-1s-0.1-0.8-0.3-1.1s-0.5-0.5-0.9-0.7s-0.9-0.2-1.7-0.2h-2.6v4H563.5z"/>
	<path class="st4" d="M572.6,270.6v-1.7h1.4v1.6h-1.4V270.6z M572.6,280.4v-8.3h1.4v8.3H572.6z"/>
	<path class="st4" d="M581.8,277.7l1.5,0.2c-0.2,0.8-0.7,1.5-1.3,2s-1.4,0.7-2.4,0.7c-1.2,0-2.2-0.4-2.9-1.1s-1.1-1.8-1.1-3.1
		c0-1.4,0.4-2.5,1.1-3.3s1.7-1.2,2.8-1.2s2,0.4,2.7,1.1s1.1,1.8,1.1,3.2c0,0.1,0,0.2,0,0.4h-6.2c0.1,0.9,0.3,1.6,0.8,2.1
		s1,0.7,1.7,0.7c0.5,0,1-0.1,1.3-0.4S581.6,278.3,581.8,277.7z M577.2,275.5h4.6c-0.1-0.7-0.2-1.2-0.5-1.6c-0.4-0.5-1-0.8-1.7-0.8
		c-0.6,0-1.2,0.2-1.6,0.6S577.2,274.7,577.2,275.5z"/>
	<path class="st4" d="M585,280.4v-8.3h1.3v1.2c0.6-0.9,1.5-1.4,2.6-1.4c0.5,0,1,0.1,1.4,0.3s0.7,0.4,0.9,0.7s0.4,0.6,0.4,1
		c0.1,0.3,0.1,0.7,0.1,1.4v5.1h-1.4v-5c0-0.6-0.1-1-0.2-1.3s-0.3-0.5-0.6-0.7s-0.6-0.3-1-0.3c-0.6,0-1.1,0.2-1.6,0.6
		s-0.7,1.1-0.7,2.2v4.5L585,280.4L585,280.4z"/>
	<path class="st4" d="M599.6,277.7l1.5,0.2c-0.2,0.8-0.7,1.5-1.3,2s-1.4,0.7-2.4,0.7c-1.2,0-2.2-0.4-2.9-1.1s-1.1-1.8-1.1-3.1
		c0-1.4,0.4-2.5,1.1-3.3s1.7-1.2,2.8-1.2s2,0.4,2.7,1.1s1.1,1.8,1.1,3.2c0,0.1,0,0.2,0,0.4h-6.2c0.1,0.9,0.3,1.6,0.8,2.1
		s1,0.7,1.7,0.7c0.5,0,1-0.1,1.3-0.4S599.4,278.3,599.6,277.7z M595,275.5h4.6c-0.1-0.7-0.2-1.2-0.5-1.6c-0.4-0.5-1-0.8-1.7-0.8
		c-0.6,0-1.2,0.2-1.6,0.6S595,274.7,595,275.5z"/>
	<path class="st4" d="M602.3,277.9l1.4-0.2c0.1,0.6,0.3,1,0.7,1.3s0.9,0.4,1.5,0.4s1.1-0.1,1.4-0.4s0.5-0.6,0.5-0.9
		s-0.1-0.6-0.4-0.8c-0.2-0.1-0.7-0.3-1.4-0.5c-1-0.3-1.7-0.5-2.1-0.7s-0.7-0.5-0.9-0.8s-0.3-0.7-0.3-1.1s0.1-0.7,0.3-1
		s0.4-0.6,0.7-0.8c0.2-0.2,0.5-0.3,0.9-0.4s0.8-0.2,1.2-0.2c0.7,0,1.2,0.1,1.7,0.3s0.9,0.4,1.1,0.8s0.4,0.7,0.5,1.3l-1.4,0.2
		c-0.1-0.4-0.2-0.8-0.5-1s-0.7-0.4-1.3-0.4s-1.1,0.1-1.4,0.3s-0.4,0.5-0.4,0.8c0,0.2,0.1,0.3,0.2,0.5c0.1,0.2,0.3,0.3,0.5,0.4
		c0.1,0.1,0.6,0.2,1.2,0.4c1,0.3,1.7,0.5,2.1,0.7s0.7,0.4,0.9,0.7s0.3,0.7,0.3,1.2s-0.1,0.9-0.4,1.3s-0.7,0.7-1.2,1
		s-1.1,0.3-1.8,0.3c-1.1,0-1.9-0.2-2.5-0.7S602.4,278.8,602.3,277.9z"/>
	<path class="st4" d="M615.3,270.6v-1.7h1.4v1.6h-1.4V270.6z M615.3,280.4v-8.3h1.4v8.3H615.3z"/>
	<path class="st4" d="M618.8,280.4v-8.3h1.3v1.2c0.6-0.9,1.5-1.4,2.6-1.4c0.5,0,1,0.1,1.4,0.3s0.7,0.4,0.9,0.7s0.4,0.6,0.4,1
		c0.1,0.3,0.1,0.7,0.1,1.4v5.1h-1.4v-5c0-0.6-0.1-1-0.2-1.3s-0.3-0.5-0.6-0.7s-0.6-0.3-1-0.3c-0.6,0-1.1,0.2-1.6,0.6
		s-0.7,1.1-0.7,2.2v4.5L618.8,280.4L618.8,280.4z"/>
	<path class="st4" d="M627.7,280.4v-8.3h1.3v1.2c0.3-0.4,0.6-0.7,1-1s0.9-0.4,1.5-0.4s1.1,0.1,1.5,0.4s0.7,0.6,0.8,1.1
		c0.7-1,1.5-1.5,2.6-1.5c0.8,0,1.5,0.2,1.9,0.7s0.7,1.2,0.7,2.1v5.7h-1.4v-5.2c0-0.6,0-1-0.1-1.2s-0.3-0.4-0.5-0.6s-0.5-0.2-0.8-0.2
		c-0.6,0-1.1,0.2-1.5,0.6s-0.6,1-0.6,1.9v4.8h-1.4v-5.4c0-0.6-0.1-1.1-0.3-1.4s-0.6-0.5-1.1-0.5c-0.4,0-0.8,0.1-1.1,0.3
		s-0.6,0.5-0.7,0.9s-0.2,1-0.2,1.7v4.3H627.7z"/>
	<path class="st4" d="M646.5,280.4v-1.2c-0.6,0.9-1.5,1.4-2.6,1.4c-0.5,0-0.9-0.1-1.4-0.3s-0.7-0.4-0.9-0.7s-0.4-0.6-0.4-1
		c-0.1-0.3-0.1-0.7-0.1-1.3v-5.1h1.4v4.6c0,0.7,0,1.2,0.1,1.5c0.1,0.4,0.3,0.7,0.6,0.9s0.6,0.3,1.1,0.3s0.8-0.1,1.2-0.3
		s0.6-0.5,0.8-0.9s0.2-0.9,0.2-1.6v-4.4h1.4v8.3h-1.4V280.4z"/>
	<path class="st4" d="M655.6,277.7l1.5,0.2c-0.2,0.8-0.7,1.5-1.3,2s-1.4,0.7-2.4,0.7c-1.2,0-2.2-0.4-2.9-1.1s-1.1-1.8-1.1-3.1
		c0-1.4,0.4-2.5,1.1-3.3s1.7-1.2,2.8-1.2s2,0.4,2.7,1.1s1.1,1.8,1.1,3.2c0,0.1,0,0.2,0,0.4h-6.2c0.1,0.9,0.3,1.6,0.8,2.1
		s1,0.7,1.7,0.7c0.5,0,1-0.1,1.3-0.4S655.4,278.3,655.6,277.7z M651,275.5h4.6c-0.1-0.7-0.2-1.2-0.5-1.6c-0.4-0.5-1-0.8-1.7-0.8
		c-0.6,0-1.2,0.2-1.6,0.6S651.1,274.7,651,275.5z"/>
	<path class="st4" d="M660.1,280.4h-1.3v-11.5h1.4v4.1c0.6-0.7,1.4-1.1,2.3-1.1c0.5,0,1,0.1,1.4,0.3s0.8,0.5,1.1,0.9
		s0.5,0.8,0.7,1.3s0.3,1.1,0.3,1.7c0,1.4-0.4,2.5-1.1,3.3s-1.5,1.2-2.5,1.2s-1.7-0.4-2.3-1.2L660.1,280.4L660.1,280.4z M660.1,276.2
		c0,1,0.1,1.7,0.4,2.2c0.4,0.7,1,1.1,1.8,1.1c0.6,0,1.1-0.3,1.6-0.8s0.7-1.3,0.7-2.4s-0.2-1.9-0.6-2.4s-0.9-0.8-1.6-0.8
		c-0.6,0-1.1,0.3-1.6,0.8S660.1,275.2,660.1,276.2z"/>
	<path class="st4" d="M667.7,280.4v-11.5h1.4v11.5H667.7z"/>
	<path class="st4" d="M677,277.7l1.5,0.2c-0.2,0.8-0.7,1.5-1.3,2s-1.4,0.7-2.4,0.7c-1.2,0-2.2-0.4-2.9-1.1s-1.1-1.8-1.1-3.1
		c0-1.4,0.4-2.5,1.1-3.3s1.7-1.2,2.8-1.2s2,0.4,2.7,1.1s1.1,1.8,1.1,3.2c0,0.1,0,0.2,0,0.4h-6.2c0.1,0.9,0.3,1.6,0.8,2.1
		s1,0.7,1.7,0.7c0.5,0,1-0.1,1.3-0.4S676.8,278.3,677,277.7z M672.4,275.5h4.6c-0.1-0.7-0.2-1.2-0.5-1.6c-0.4-0.5-1-0.8-1.7-0.8
		c-0.6,0-1.2,0.2-1.6,0.6S672.4,274.7,672.4,275.5z"/>
	<path class="st4" d="M679.6,277.9l1.4-0.2c0.1,0.6,0.3,1,0.7,1.3s0.9,0.4,1.5,0.4s1.1-0.1,1.4-0.4s0.5-0.6,0.5-0.9
		s-0.1-0.6-0.4-0.8c-0.2-0.1-0.7-0.3-1.4-0.5c-1-0.3-1.7-0.5-2.1-0.7s-0.7-0.5-0.9-0.8s-0.3-0.7-0.3-1.1s0.1-0.7,0.3-1
		s0.4-0.6,0.7-0.8c0.2-0.2,0.5-0.3,0.9-0.4s0.8-0.2,1.2-0.2c0.7,0,1.2,0.1,1.7,0.3s0.9,0.4,1.1,0.8s0.4,0.7,0.5,1.3l-1.4,0.2
		c-0.1-0.4-0.2-0.8-0.5-1s-0.7-0.4-1.3-0.4s-1.1,0.1-1.4,0.3s-0.4,0.5-0.4,0.8c0,0.2,0.1,0.3,0.2,0.5c0.1,0.2,0.3,0.3,0.5,0.4
		c0.1,0.1,0.6,0.2,1.2,0.4c1,0.3,1.7,0.5,2.1,0.7s0.7,0.4,0.9,0.7s0.3,0.7,0.3,1.2s-0.1,0.9-0.4,1.3s-0.7,0.7-1.2,1
		s-1.1,0.3-1.8,0.3c-1.1,0-1.9-0.2-2.5-0.7S679.8,278.8,679.6,277.9z"/>
	<path class="st4" d="M587.8,296.6l1.4,0.2c-0.2,1-0.5,1.7-1.2,2.2s-1.4,0.8-2.3,0.8c-1.1,0-2-0.4-2.7-1.1s-1-1.8-1-3.2
		c0-0.9,0.1-1.7,0.4-2.4s0.7-1.2,1.4-1.5s1.3-0.5,2-0.5c0.9,0,1.6,0.2,2.2,0.7s0.9,1.1,1.1,1.9l-1.4,0.2c-0.1-0.6-0.4-1-0.7-1.3
		s-0.7-0.4-1.2-0.4c-0.7,0-1.3,0.3-1.7,0.8s-0.7,1.3-0.7,2.4s0.2,1.9,0.6,2.4s1,0.8,1.7,0.8c0.6,0,1-0.2,1.4-0.5
		S587.7,297.3,587.8,296.6z"/>
	<path class="st4" d="M589.9,295.5c0-1.5,0.4-2.7,1.3-3.4c0.7-0.6,1.6-0.9,2.6-0.9c1.1,0,2.1,0.4,2.8,1.1s1.1,1.8,1.1,3.1
		c0,1.1-0.2,1.9-0.5,2.5s-0.8,1.1-1.4,1.4s-1.3,0.5-2,0.5c-1.2,0-2.1-0.4-2.8-1.1S589.9,296.9,589.9,295.5z M591.3,295.5
		c0,1.1,0.2,1.9,0.7,2.4s1,0.8,1.8,0.8c0.7,0,1.3-0.3,1.7-0.8s0.7-1.3,0.7-2.4c0-1-0.2-1.8-0.7-2.3s-1-0.8-1.7-0.8s-1.3,0.3-1.8,0.8
		S591.3,294.4,591.3,295.5z"/>
	<path class="st4" d="M599.3,299.6v-8.3h1.3v1.2c0.3-0.4,0.6-0.7,1-1s0.9-0.4,1.5-0.4s1.1,0.1,1.5,0.4s0.7,0.6,0.8,1.1
		c0.7-1,1.5-1.5,2.6-1.5c0.8,0,1.5,0.2,1.9,0.7s0.7,1.2,0.7,2.1v5.7h-1.4v-5.2c0-0.6,0-1-0.1-1.2s-0.3-0.4-0.5-0.6s-0.5-0.2-0.8-0.2
		c-0.6,0-1.1,0.2-1.5,0.6s-0.6,1-0.6,1.9v4.8h-1.4v-5.4c0-0.6-0.1-1.1-0.3-1.4s-0.6-0.5-1.1-0.5c-0.4,0-0.8,0.1-1.1,0.3
		s-0.6,0.5-0.7,0.9s-0.2,1-0.2,1.7v4.3H599.3z"/>
	<path class="st4" d="M618.3,296.9l1.5,0.2c-0.2,0.8-0.7,1.5-1.3,2s-1.4,0.7-2.4,0.7c-1.2,0-2.2-0.4-2.9-1.1s-1.1-1.8-1.1-3.1
		c0-1.4,0.4-2.5,1.1-3.3s1.7-1.2,2.8-1.2s2,0.4,2.7,1.1s1.1,1.8,1.1,3.2c0,0.1,0,0.2,0,0.4h-6.2c0.1,0.9,0.3,1.6,0.8,2.1
		s1,0.7,1.7,0.7c0.5,0,1-0.1,1.3-0.4S618.1,297.5,618.3,296.9z M613.7,294.7h4.6c-0.1-0.7-0.2-1.2-0.5-1.6c-0.4-0.5-1-0.8-1.7-0.8
		c-0.6,0-1.2,0.2-1.6,0.6S613.7,293.9,613.7,294.7z"/>
	<path class="st4" d="M621.5,299.6v-8.3h1.3v1.3c0.3-0.6,0.6-1,0.9-1.2s0.6-0.3,0.9-0.3c0.5,0,1,0.2,1.4,0.5l-0.5,1.3
		c-0.3-0.2-0.7-0.3-1-0.3s-0.6,0.1-0.8,0.3s-0.4,0.4-0.5,0.8c-0.2,0.5-0.2,1-0.2,1.6v4.3L621.5,299.6L621.5,299.6z"/>
	<path class="st4" d="M632.2,296.6l1.4,0.2c-0.2,1-0.5,1.7-1.2,2.2s-1.4,0.8-2.3,0.8c-1.1,0-2-0.4-2.7-1.1s-1-1.8-1-3.2
		c0-0.9,0.1-1.7,0.4-2.4s0.7-1.2,1.4-1.5s1.3-0.5,2-0.5c0.9,0,1.6,0.2,2.2,0.7s0.9,1.1,1.1,1.9l-1.4,0.2c-0.1-0.6-0.4-1-0.7-1.3
		s-0.7-0.4-1.2-0.4c-0.7,0-1.3,0.3-1.7,0.8s-0.7,1.3-0.7,2.4s0.2,1.9,0.6,2.4s1,0.8,1.7,0.8c0.6,0,1-0.2,1.4-0.5
		S632.1,297.3,632.2,296.6z"/>
	<path class="st4" d="M634.8,289.8v-1.6h1.4v1.6H634.8z M634.8,299.6v-8.3h1.4v8.3H634.8z"/>
	<path class="st4" d="M643.8,298.6c-0.5,0.4-1,0.8-1.5,0.9s-1,0.3-1.6,0.3c-0.9,0-1.6-0.2-2.1-0.7s-0.7-1-0.7-1.7
		c0-0.4,0.1-0.8,0.3-1.1s0.4-0.6,0.7-0.8s0.6-0.4,1-0.5c0.3-0.1,0.7-0.1,1.3-0.2c1.1-0.1,2-0.3,2.5-0.5c0-0.2,0-0.3,0-0.4
		c0-0.6-0.1-1-0.4-1.2c-0.4-0.3-0.9-0.5-1.6-0.5c-0.7,0-1.1,0.1-1.5,0.3s-0.5,0.6-0.7,1.2l-1.4-0.2c0.1-0.6,0.3-1.1,0.6-1.4
		s0.7-0.6,1.2-0.8s1.2-0.3,1.9-0.3s1.3,0.1,1.7,0.3s0.8,0.4,1,0.6s0.4,0.6,0.4,1c0,0.2,0.1,0.7,0.1,1.3v1.9c0,1.3,0,2.1,0.1,2.5
		s0.2,0.7,0.4,1H644C643.9,299.3,643.8,299,643.8,298.6z M643.7,295.4c-0.5,0.2-1.3,0.4-2.3,0.5c-0.6,0.1-1,0.2-1.2,0.3
		s-0.4,0.3-0.6,0.5s-0.2,0.4-0.2,0.7c0,0.4,0.1,0.7,0.4,0.9s0.7,0.4,1.2,0.4s1-0.1,1.4-0.4s0.7-0.6,0.9-1c0.2-0.3,0.2-0.8,0.2-1.4
		v-0.5H643.7z"/>
	<path class="st4" d="M647.2,299.6v-11.5h1.4v11.5H647.2z"/>
	<path class="st4" d="M656.5,296.9l1.5,0.2c-0.2,0.8-0.7,1.5-1.3,2s-1.4,0.7-2.4,0.7c-1.2,0-2.2-0.4-2.9-1.1s-1.1-1.8-1.1-3.1
		c0-1.4,0.4-2.5,1.1-3.3s1.7-1.2,2.8-1.2s2,0.4,2.7,1.1s1.1,1.8,1.1,3.2c0,0.1,0,0.2,0,0.4h-6.2c0.1,0.9,0.3,1.6,0.8,2.1
		s1,0.7,1.7,0.7c0.5,0,1-0.1,1.3-0.4S656.3,297.5,656.5,296.9z M651.9,294.7h4.6c-0.1-0.7-0.2-1.2-0.5-1.6c-0.4-0.5-1-0.8-1.7-0.8
		c-0.6,0-1.2,0.2-1.6,0.6S651.9,293.9,651.9,294.7z"/>
	<path class="st4" d="M659.2,297.1l1.4-0.2c0.1,0.6,0.3,1,0.7,1.3s0.9,0.4,1.5,0.4s1.1-0.1,1.4-0.4s0.5-0.6,0.5-0.9
		s-0.1-0.6-0.4-0.8c-0.2-0.1-0.7-0.3-1.4-0.5c-1-0.3-1.7-0.5-2.1-0.7s-0.7-0.5-0.9-0.8s-0.3-0.7-0.3-1.1s0.1-0.7,0.3-1
		s0.4-0.6,0.7-0.8c0.2-0.2,0.5-0.3,0.9-0.4s0.8-0.2,1.2-0.2c0.7,0,1.2,0.1,1.7,0.3s0.9,0.4,1.1,0.8s0.4,0.7,0.5,1.3l-1.4,0.2
		c-0.1-0.4-0.2-0.8-0.5-1s-0.7-0.4-1.3-0.4s-1.1,0.1-1.4,0.3s-0.4,0.5-0.4,0.8c0,0.2,0.1,0.3,0.2,0.5c0.1,0.2,0.3,0.3,0.5,0.4
		c0.1,0.1,0.6,0.2,1.2,0.4c1,0.3,1.7,0.5,2.1,0.7s0.7,0.4,0.9,0.7s0.3,0.7,0.3,1.2s-0.1,0.9-0.4,1.3s-0.7,0.7-1.2,1
		s-1.1,0.3-1.8,0.3c-1.1,0-1.9-0.2-2.5-0.7S659.3,298,659.2,297.1z"/>
</g>
</svg>
